<?xml version="1.0" encoding="utf-8"?>
<!-- Generator: Adobe Illustrator 22.1.0, SVG Export Plug-In . SVG Version: 6.00 Build 0)  -->
<svg version="1.1" xmlns="http://www.w3.org/2000/svg" xmlns:xlink="http://www.w3.org/1999/xlink" x="0px" y="0px"
	 viewBox="0 0 662.4 921.6" style="enable-background:new 0 0 662.4 921.6;" xml:space="preserve">
<style type="text/css">
	.st0{fill:#0C4E84;}
	.st1{fill:#1761AB;}
	.st2{fill:#045887;}
	.st3{fill:#E4A16C;}
	.st4{fill:#04101B;}
	.st5{fill:#B7B7B7;}
	.st6{fill:#B5E9FF;}
	.st7{fill:#E6F7FF;}
	.st8{fill:#01ADC0;}
	.st9{fill:#FFFFFF;}
	.st10{fill:#63180F;}
	.st11{fill:#BB4835;}
</style>
<g id="Слой5_xA0_Изображение_1_">
</g>
<g id="Слой4_xA0_Изображение_1_">
	<g>
		<path d="M277.1,800.9c-1.9-0.3-3.7-0.5-5.4-0.9c-4.8-1.1-8.9-3.3-11.8-7.6c-1.7-2.6-2.1-5.5-2.2-8.5c0-1.8-0.1-3.6-0.2-5.4
			c-0.4-4.6-3.4-7.3-7.3-9.2c-2.4-1.2-4.9-1.8-7.6-1.7c-1.4,0-2.2-0.9-2.8-2.2c-1.2-2.9-0.6-5.9-0.4-8.9c0.4-5.8,0.6-11.6,0.9-17.4
			c0.6-10.9,1.3-21.8,1.8-32.7c0.4-8.4,0.7-16.9,1-25.3c0.4-10.1,0.9-20.2,1.4-30.3c0.4-8.3,0.8-16.6,1.3-24.9
			c0.5-8.1,1.1-16.3,1.6-24.4c0.5-8.9,1.1-17.8,1.2-26.7c0.2-11.9,0.1-23.8,0-35.8c0-0.5-0.1-1.1-0.4-1.4c-3.1-4.1-6.4-8.1-9.3-12.3
			c-2.9-4.2-7-5.6-11.8-5.5c-1.9,0-3.7,0.2-5.6,0.3c-1,0.1-1.6-0.7-1.3-1.8c0.6-2.1,1.2-4.1,2-6.1c9.9-25.8,18.5-52,27.1-78.2
			c2.1-6.4,4.3-12.9,6.5-19.3c0.3-0.7,0.2-1.3-0.2-2c-4.7-8.1-9.6-16.2-14.9-23.9c-2.4-3.6-4.1-7.6-6.1-11.5
			c-0.3-0.5-0.2-1.3-0.1-1.8c2-6.3,2.5-12.9,3.4-19.4c0.7-5.2,1.3-10.4,2-15.6c0.8-6.2,1.5-12.4,2.4-18.5c0.9-6.5,2.1-13,3-19.5
			c1.1-7.7,2.1-15.4,3-23.2c0.8-6.7,1.3-13.4,1.8-20.2c0.4-5.8,0.6-11.7,1.1-17.5c0.6-6.8,1.3-13.5,2-20.3c0.3-3,0.8-5.9,1.2-8.9
			c0.2-1.2,1.1-2.2,2.8-2.4c2.2-0.3,4.5-0.5,6.8-0.4c3.1,0.2,6.1,0.8,9.1,1.3c5.2,0.7,10.1-0.4,15-1.9c0.8-0.2,1.5-0.5,2.5-0.8
			c-0.5-0.4-0.9-0.6-1.3-0.9c-1.4-0.9-1.3-2.3,0.1-3.1c0.5-0.3,1.1-0.5,1.6-0.8c5.6-2.5,11.3-4.9,16.9-7.4c1.2-0.5,2.5-1.2,3.7-1.7
			c0.8-0.4,1.7-0.7,2.6-1c0-0.6,0-1.3,0-1.9c-2.1-0.4-4.2-0.8-6.2-1.2c-2.7-0.7-5.2-1.9-7.4-3.6c-2.7-2-5.4-4-7.8-6.3
			c-7.2-6.9-9.2-19.5-1.9-28c0.4-0.5,0.7-1.1,1.2-1.5c1.1-0.8,1.2-1.8,0.8-3.1c-0.3-1.2-0.7-2.5-0.8-3.7c0-2.1-1.4-3.1-3-4
			c-1.7-1-3.5-2.2-5.1-3.4c-3.2-2.5-4.7-6.1-5.8-9.8c-1.5-5.2-2.1-10.4-0.6-15.7c0.4-1.4,1.4-2.6,2.1-3.8c0.1-0.2,0.3-0.5,0.3-0.7
			c-0.2-4.7-0.4-9.3-0.6-14c0-0.2-0.1-0.3-0.1-0.5c-3.4-0.3-6.8-0.5-10.2-0.8c-4.4-0.4-8.9-0.7-13-2.4c-1.1-0.5-2.2-1.1-3.2-1.9
			c-2-1.6-2.1-4-0.2-5.7c1-0.9,2.2-1.7,3.4-2.2c4.4-1.9,9.2-2.7,13.9-3.6c2.1-0.4,4.1-1,6.2-1.3c0.8-0.1,1-0.5,1-1.2
			c0.1-3.9,0.2-7.8,0.3-11.6c0.1-4.7,0.2-9.4,0.4-14c0-1.1-0.1-2.2,0-3.2c0.5-3.7,3-6.1,5.7-8.3c4-3.1,8.5-5.6,13.4-7.1
			c8.6-2.6,17.3-4.9,26.3-5.7c9.2-0.8,18.5-1,27.7-0.2c11.6,0.9,23,2.7,34.3,5.5c4.2,1,8.3,2.7,12.2,4.4c1.8,0.8,3.4,2.1,4.8,3.5
			c0.7,0.7,0.8,2,1,3.1c0.6,4.8,1.1,9.6,1.7,14.3c0.4-1,0.8-2.2,1.2-3.4c1.4-3.8,3.1-7.5,6.6-9.9c2.7-1.9,5.6-3.3,8.9-3.7
			c1.4-0.2,2.8,0.1,4,0.9c1.8,1.1,2.5,2.8,2,4.9c-0.8,3.5-2.8,6.3-4.9,9.1c-0.3,0.3-0.5,0.7-0.8,1c1.4,0.3,2.7,0.5,4,1
			c1.2,0.5,2.4,1.1,3.4,2c2.2,1.9,2.2,4.5,0.2,6.5c-1.6,1.6-3.6,2.5-5.8,3c-0.3,0.1-0.7,0.2-0.8,0.2c0.6,1.5,1.4,3,1.6,4.5
			c0.3,1.6-0.7,3.1-2,4.2c0.8,0.6,1.6,1.1,2.4,1.6c0.6,0.5,1.3,1,1.8,1.5c2.3,2.3,2.2,4.9-0.8,6.3c-3.2,1.6-6.5,2.8-9.9,3.8
			c-2.9,0.9-5.9,1.2-8.8,1.7c-0.7,0.1-1,0.3-1,1.1c0.1,4.2,0.1,8.4,0.2,12.6c0,0.3,0.2,0.8,0.5,0.9c2.9,1.9,4.2,4.7,4.3,8
			c0.2,4.6-0.8,8.9-2.9,12.9c-1.1,2-2.1,4-3,6c-1.2,2.8-3,5.3-5.1,7.5c-0.8,0.8-1.1,1.7-1.3,2.8c-0.5,2.3-1.1,4.7-1.6,7
			c-0.1,0.3-0.1,0.8,0.1,1.1c2.2,2.7,3.1,5.9,3.8,9.2c0.8,4.4,1,8.8,0,13.2c-1.6,7.3-5.7,12.4-12.5,15.3c-4,1.7-8.1,2.8-12.6,3
			c1.3,0.8,2.4,1.7,3.6,2.4c6.8,3.6,13.6,7.2,20.3,10.7c0.2,0.1,0.5,0.2,0.8,0.3c1.3,0.5,1.3,0.5,1.7,2c8.7,1,17.4,1.9,26.1,0.3
			c2.9-0.5,3.7,0,5.1,2.6c2.7,5.3,4,11,4.7,16.9c0.7,6,0.7,12,0.1,18c-0.1,1.4,0.1,2.9,0.1,4.3c0.1,2.2,0.2,4.5,0.3,6.7
			c0.4,6.4,0.6,12.8,1.2,19.1c0.6,5.8,1.5,11.5,2.5,17.2c1.4,7.9,3.1,15.7,4.4,23.5c1.2,7.2,2.3,14.5,3.3,21.8
			c1.3,9.2,2.4,18.5,3.6,27.7c1,8.3,2.4,16.6,2.4,25c0,5.5-1.5,10.5-4.8,14.9c-1.5,2-3.1,4.1-4.8,6c-4.6,5.2-9.2,10.4-13.8,15.5
			c-1.4,1.6-3,3.1-4.6,4.6c-0.9,0.8-1.1,1.6-0.8,2.8c2,8.6,3.9,17.3,5.9,25.9c4,17.1,8.1,34.2,12.3,51.2c1.3,5.5,3.1,10.8,4.7,16.2
			c0.3,1-0.3,1.8-1.4,1.7c-1,0-2-0.3-2.9-0.5c-3.2-0.8-6.4-0.4-9.6,0.1c-2.7,0.4-5.4,0.9-7.9,2.2c-0.7,0.4-0.9,0.8-0.8,1.6
			c1.2,8.9,2.3,17.9,3.5,26.9c1.3,9.5,2.7,19,4,28.5c1.1,8.3,2.1,16.7,3,25c0.9,8.5,1.8,17,2.5,25.5c0.7,8.3,1.2,16.6,1.8,24.9
			c2,27.5,1,55.1,1.3,82.6c0.1,6.6,0.4,13.3,0.7,19.9c0.2,6.3,0.5,12.5,0.7,18.8c0,0.9,0,1.8-0.1,2.6c0,1-0.5,1.7-1.5,2.2
			c-1.3,0.8-2.6,1.8-3.7,2.8c-2.8,2.6-5.8,5.2-8.3,8.1c-3.7,4.1-8.3,6.2-13.7,7c-0.6,0.1-1.2,0.2-1.9,0.3c0.3,1.7,0.6,3.3,0.9,4.9
			c1.4,6.1,2.6,12.2,4.2,18.2c1.9,7.2,4.2,14.4,6.3,21.6c1.4,4.8,2.8,9.6,3.9,14.4c0.6,2.7,0.9,5.4,1.1,8.2
			c0.3,3.9,0.4,7.7,0.3,11.6c-0.1,3.3-1.9,5.9-5,7.1c-3,1.2-6.1,2.2-9.2,2.8c-6.6,1.4-13.3,2.9-20,3.8c-6.6,0.8-13.3,1.5-20,0.5
			c-3.5-0.5-7.1-0.6-10.5-1.4c-2.8-0.7-5.6-2-8.1-3.4c-1.4-0.8-2.5-2.3-3.5-3.7c-1-1.2-1-2.6-0.3-3.9c0.8-1.3,1.7-2.6,2.6-3.9
			c4.4-5.9,8-12.2,11.4-18.7c1.3-2.4,2.8-4.8,4-7.2c4.3-8.5,6.7-17.7,7.7-27.2c0.8-7.5,1-15,0.5-22.5c-0.2-2.6-0.4-5.1-0.5-7.7
			c0-0.3-0.1-0.5-0.2-1c-1.6,1.2-3.1,2.3-4.6,3.4c-2.7,2-5.2,4.3-8.2,5.8c-7.7,4.1-15.5,3.7-23-0.7c-5.5-3.2-9.3-7.9-11.3-14
			c-1.6-4.8-5.3-6.1-9.5-5.4c-3.7,0.6-7.2,2-10.8,3c-0.7,0.2-1,0.6-0.9,1.4c0.3,3.8,0.5,7.7,0.6,11.5c0.2,6,0.9,11.9,1.7,17.9
			c0.7,5.1,1.3,10.3,1.6,15.5c0.3,5.3,0.3,10.6,0.4,15.9c0.1,3.9-1,7.7-1.8,11.4c-0.1,0.4-0.3,0.8-0.3,1.3c-0.1,2.3-1.5,3.8-3.5,4.6
			c-1.3,0.5-2.6,1-4,1.2c-2.8,0.4-5.6,0.8-8.4,0.9c-1.4,0-2.9-0.5-4.3-1c-1.3-0.5-1.8-1.7-1.9-3.1c-0.1-1-0.3-2.1-0.7-3
			c-0.6-1.3-1.7-1.9-3.1-1.4c-3.5,1.1-7,2.2-10.3,3.7c-10,4.8-20.6,7.7-31.5,9.6c-6.7,1.1-13.4,2-20.1,1.6
			c-6.5-0.4-12.5-2.4-18.2-5.6c-0.9-0.5-1.7-1.2-2.4-1.9c-1.6-1.7-1.7-3.4-0.3-5.3c1.6-2.2,3.8-3.7,6.4-4.7c6.6-2.5,13.1-5,19.7-7.4
			c8.2-3,16-6.9,23.1-12.1c3.3-2.4,6.7-4.7,9.4-7.8c3.8-4.4,6.3-9.5,8.2-14.9C275.8,813.1,276.3,807,277.1,800.9z M313.3,788
			c-0.2-0.6-0.6-1.3-0.7-1.9c-0.3-3.7-0.6-7.4-0.7-11.1c-0.3-14.4,0.3-28.7,1-43.1c0.3-6.9,0.8-13.7,1.2-20.6
			c0.4-6.2,0.9-12.4,1.4-18.7c0.4-6.3,0.9-12.5,1.3-18.8c0.5-7.4,1.1-14.8,1.6-22.2c0.4-5.8,0.9-11.6,1.3-17.5
			c0.5-7.8,1.1-15.6,1.6-23.3c0.4-5.3,0.7-10.6,1.1-15.9c0.5-6.5,1-13,1.6-19.5c0.5-6,1.1-12,1.7-18c0-0.3,0.4-0.6,0.6-0.9
			c0.2,0.3,0.5,0.7,0.4,1c-0.5,5.8-1.1,11.5-1.6,17.3c-0.6,6.5-1.1,13.1-1.6,19.6c-0.5,6.8-0.8,13.6-1.3,20.3
			c-0.6,9-1.2,17.9-1.8,26.9c-0.5,7.8-1,15.6-1.5,23.5c-0.8,12.2-1.7,24.3-2.5,36.5c-0.6,9.2-1.2,18.3-1.8,27.5
			c-0.9,14.4-1.5,28.8-1.4,43.2c0,4.4,0.3,8.9,0.6,13.3c0.1,1.4,0.9,1.8,2.3,1.5c3.1-0.8,6.2-1.8,9.3-2.2c4.7-0.7,9.8,1,11.8,7
			c0.2,0.6,0.5,1.3,0.7,1.9c5.3,12.8,21.5,18.8,33.4,9.3c2.9-2.3,5.7-4.7,8.8-6.6c5.8-3.6,12-5.9,19-5.8c3.2,0.1,5.5,1.8,6.3,4.9
			c0.2,0.8,0.4,1.6,0.7,2.4c0.9,2.5,2.5,4.2,5.2,4.7c1.3,0.3,2.7,0.4,4,0.3c5.4-0.4,10.4-1.7,14-6c3.6-4.2,7.8-7.8,12.1-11.3
			c0.9-0.7,1.3-1.5,1.3-2.7c-0.3-6.5-0.5-13-0.8-19.5c-0.2-6.3-0.6-12.6-0.6-18.9c-0.1-16.3,0.1-32.6-0.1-48.8
			c-0.1-8.6-0.3-17.3-0.7-25.9c-0.5-9.9-1.3-19.9-2-29.8c-0.6-7.3-1.2-14.6-2-21.8c-1-9.4-2.1-18.8-3.3-28.2
			c-1-7.9-2.1-15.8-3.2-23.6c-1.1-8-2.2-15.9-3.3-23.9c-0.5-3.8-1-7.6-1.5-11.6c-0.9,0.8-1.7,1.4-2.4,2.1c-2.6,2.7-5.1,5.4-7.7,8.1
			c-3.2,3.3-7.1,5.1-11.6,5.8c-3.6,0.5-7.2,0-10.7-0.9c-5.6-1.5-11.3-1.8-16.9,0.2c-2.9,1-5.7,2.4-8.6,3.4c-3.3,1.2-6.6,2.2-9.9,3.2
			c-1.7,0.5-3.5,0.6-5.4,0.8c0,0.3,0,0.5,0,0.8c0.1,9.4,0.4,18.8,0.4,28.2c0,30.2-0.3,60.5-0.1,90.7c0.1,20.4,1,40.8,1.5,61.2
			c0.3,11.1,0.5,22.2,0.7,33.3c0.1,3.5,0.1,7,0.1,10.4c0,0.4-0.3,0.8-0.5,1.3c-0.2-0.4-0.5-0.9-0.5-1.3c-0.1-1.5-0.1-3-0.2-4.6
			c-0.4-18.4-0.8-36.8-1.2-55.2c-0.3-14.1-0.9-28.2-1-42.3c-0.2-27.1-0.1-54.2-0.1-81.2c0-13.2-0.1-26.5-0.1-39.7
			c0-0.5-0.1-1-0.1-1.6c-0.6,0-1,0-1.5,0c-7,0.2-13.5-1.5-19.5-5.3c-3.9-2.5-8-4.8-12.1-7.1c-2.3-1.3-4.8-1.9-7.4-2.1
			c-4.8-0.3-9.4,0.5-13.9,2.1c-4.6,1.6-9.1,3.6-13.7,5.4c-3.6,1.5-7.4,2.6-11.3,3c-4.7,0.4-9-1.1-13-3.5c-2.6-1.5-5-3.4-7.5-5.1
			c0,0.1,0,0.2,0,0.4c0,10.2,0.3,20.5,0.1,30.7c-0.2,10.8-0.9,21.6-1.5,32.4c-0.5,9.7-1.3,19.3-1.8,29c-0.6,10.3-1.1,20.7-1.5,31
			c-0.5,11.2-0.9,22.4-1.4,33.6c-0.3,8-0.7,15.9-1.1,23.8c-0.4,7.1-0.9,14.2-1.3,21.3c-0.2,4.3-0.4,8.6-0.7,12.9
			c-0.1,2-0.4,3.9-0.4,5.9c0,1,0.3,2,0.8,2.8c0.3,0.4,1.3,0.2,2,0.3c6,0.9,11.2,3.2,14.4,8.7c0,0.1,0.2,0.1,0.3,0.1
			c0.3-3.3,0.6-6.6,0.7-9.8c0.6-11.5,1.2-23.1,1.8-34.6c0.3-5.9,0.6-11.7,1.1-17.6c0.5-7.2,1.1-14.3,1.8-21.5
			c0.7-7.2,1.4-14.4,2.3-21.6c0.9-7.3,1.8-14.7,2.8-22c1-7.8,2.2-15.6,3.2-23.4c1-7.6,2.1-15.1,3-22.7c0.8-6.5,1.5-13.1,2.2-19.7
			c0.8-7.6,1.6-15.2,2.3-22.8c0.1-1,0.2-2.1,0.4-3.1c0-0.2,0.4-0.4,0.6-0.6c0.1,0.2,0.3,0.4,0.4,0.7c0.1,0.2,0,0.4,0,0.6
			c-0.9,8.3-1.7,16.7-2.6,25c-0.7,6.3-1.3,12.6-2,18.8c-0.7,6.5-1.5,13-2.3,19.5c-0.8,6.5-1.7,12.9-2.5,19.4c-1,7.7-2,15.4-3,23.2
			c-0.8,6.5-1.6,13.1-2.2,19.6c-0.7,7.2-1.4,14.4-2.1,21.6c-0.5,6.1-0.9,12.2-1.3,18.3c-0.5,7.7-0.9,15.5-1.4,23.2
			c-0.3,5.7-0.7,11.5-1.1,17.2c-0.5,7.3-1.6,14.6-1,22c0.2,2.5,0.4,4.9,1.8,7.1c2.2,3.2,5.2,5,8.8,6.1c4.2,1.2,8.5,1.3,12.8,1
			c4.7-0.3,9.5-0.7,13.8-2.6C302.9,793.2,308.2,790.5,313.3,788z M273.3,249.1c1.1-2.6,2.3-5.3,3.5-8c0.4-1,0.9-2,1.4-2.9
			c0.1-0.2,0.6-0.3,1-0.4c0,0.3,0,0.7-0.1,1c-0.3,0.9-0.7,1.8-0.9,2.7c-0.6,2.3-1,4.6-1.7,6.9c-2,6.5-4.2,12.9-4.9,19.7
			c-0.7,6.1-0.6,12,1.2,17.9c1.8,6.1,4.3,11.8,7.1,17.5c2.2,4.5,4.2,9,6.3,13.6c1.2,2.5,3.1,4.3,5.5,5.5c10.1,5.1,20.6,8.6,32,9.4
			c9.3,0.7,18.6,1,27.9,0.5c8.5-0.5,17.1-1.2,25.4-3.2c7.9-1.8,15.8-3.9,23-7.9c1-0.6,1.7-1.3,2.2-2.2c2.1-4,4.2-8,6.4-11.9
			c3.1-5.4,4.6-11.3,6-17.2c1.3-5.5,1.9-11.1,0.8-16.5c-1.4-6.9-3.4-13.8-5.5-20.6c-1.1-3.6-2.9-7.1-4.4-10.6
			c-0.5-1.2-0.3-1.5,0.9-1.5c-0.3-1.8-0.7-3.6-0.7-5.4c-0.1-1.5,0.2-3.1,0.4-4.6c0-0.2,0.6-0.4,0.9-0.6c0.2,0.4,0.5,0.8,0.5,1.2
			c0.1,0.5-0.2,1-0.1,1.5c0.3,2.3,0.7,4.7,1,7c0.6,4.2,2,8.1,4,11.9c0.1-0.3,0.2-0.5,0.2-0.7c0.8-3.7,1.6-7.4,2.5-11.1
			c0.6-2.5,1.4-5,2.2-7.5c0.1-0.3,0.5-0.5,0.8-0.7c0.1,0.3,0.4,0.6,0.4,0.9c-0.1,0.6-0.4,1.3-0.5,1.9c-1.5,6.2-3,12.5-4.5,18.7
			c-0.2,0.7-0.1,1.4,0.1,2.1c0.7,2.6,1.5,5.1,2.1,7.7c0.9,3.7,2.1,7.3,2.4,11.1c1,10.3-1.1,20.3-5.1,29.7
			c-2.5,5.8-5.8,11.2-8.8,16.8c-0.6,1.2-1.1,2.2-0.4,3.5c0.4,0.7,0.5,1.5,0.7,2.3c2.6,11.7,5.3,23.4,7.9,35.2
			c0.9,4,1.8,7.9,2.7,11.9c0.1,0,0.3,0.1,0.4,0.1c0.3-0.6,0.8-1.2,0.9-1.8c0.3-1.6,0.4-3.2,0.5-4.8c1-10.1,1.9-20.3,2.9-30.4
			c0.4-3.5,0.9-7,1.4-10.6c0-0.3,0.4-0.6,0.6-0.9c0.1,0.4,0.4,0.7,0.4,1.1c-0.1,1.2-0.4,2.3-0.5,3.4c-0.6,6.2-1.3,12.3-1.8,18.5
			c-0.3,3.5-0.4,6.9-0.6,10.5c0.2-0.1,0.3-0.1,0.3-0.2c2.4-5.9,4.7-11.8,7.1-17.7c0.1-0.3,0.3-0.7,0.2-0.8c-0.8-0.7-0.2-1.3,0.2-1.8
			c0.4-0.5,1-0.8,1.5-1.1c0.1,0.6,0.3,1.3,0.1,1.8c-2.6,9.1-5.8,18-9.2,26.8c-0.7,1.7-0.7,3.6-1.1,5.4c0.5,0,0.7-0.2,0.9-0.3
			c3.4-2.2,6.8-4.3,10.2-6.5c1.2-0.8,2.4-1.6,3.7-2.3c0.3-0.2,0.7-0.2,1.1-0.3c-0.1,0.4-0.2,0.8-0.4,1.1c-0.1,0.2-0.3,0.3-0.5,0.5
			c-3.8,2.9-7.7,5.9-11.5,8.8c-1.8,1.4-3.8,2.5-5.2,4.2c-3.2,3.7-6.2,7.5-9.2,11.4c-5.5,7.2-11.1,14.2-17.8,20.4
			c-3.6,3.4-6.9,7.1-10.4,10.7c0.3,0.4,0.5,0.9,0.9,1.3c3.4,3.1,6.4,6.5,9,10.3c3.6,5.3,6.8,10.8,8.1,17.1c0.5,2.4,1,4.7,1.5,7.2
			c0.3-0.2,0.5-0.4,0.7-0.6c8.3-8.2,17.1-15.9,25-24.5c4.6-5.1,9.6-9.9,14.2-15c3.6-4,7.1-8.2,10.4-12.4c1.5-1.9,2.6-4,3.5-6.2
			c1.7-4.1,1.4-8.5,1-12.8c-0.6-6.9-1.5-13.8-2.4-20.7c-1.4-11.3-2.8-22.5-4.4-33.8c-1.2-8.5-2.8-16.9-4.2-25.4
			c-1.5-8.8-3.2-17.6-4.5-26.4c-0.8-5.5-1.2-11.1-1.6-16.7c-0.3-4.7-0.4-9.4-0.4-14.1c0-3.3,0.4-6.5,0.3-9.8
			c-0.1-3.8-0.3-7.6-0.6-11.4c-0.5-5.5-2-10.8-4.5-15.8c-0.4-0.9-1-1.1-1.9-0.9c-2.4,0.4-4.7,0.8-7.1,0.9
			c-6.8,0.3-13.7-0.2-20.4-1.2c-0.8-0.1-1.2,0.1-1.7,0.7c-6.5,7.8-11,16.7-15.9,25.5c-1.1,2-2,3.5-4.5,3.9c-5,0.8-9.7,2.9-14.4,4.8
			c-4.4,1.7-8.3,3.9-10.2,8.4c-0.2,0.4-0.3,1-0.1,1.4c0.6,1.8,1.4,3.5,2,5.2c0.4,1.1,0.6,2.3,0.8,3.5c0,0.3-0.1,0.7-0.3,0.8
			c-0.2,0.1-0.6-0.1-0.8-0.2c-0.2-0.1-0.4-0.3-0.5-0.5c-2.2-2.3-4.4-4.7-6.6-6.9c-2.2-2.2-4.3-4.4-7.1-5.8
			c-6.7-3.3-13.5-6.1-20.8-7.8c-3.4-0.8-6.8-1.8-10.4-1.2c-1.3,0.2-2.1-0.3-2.7-1.4c-2.5-5.3-5.1-10.5-7.5-15.8
			c-1.8-3.8-3.9-7.3-6.7-10.5c-0.9-1-1.7-1.3-3-0.8c-4.7,1.5-9.5,3.1-14.6,2.9c-0.4,0-0.8,0.3-1.1,0.6c-2.4,3.4-4.7,6.8-7.1,10.2
			c-1.4,2-2.9,4-4.4,6c-0.2,0.3-0.7,0.3-1.1,0.5c0-0.4-0.1-0.9,0-1.3c0.1-0.4,0.4-0.9,0.7-1.3c3-4.1,6-8.2,9-12.3
			c0.6-0.8,1.2-1.6,1.9-2.5c-3.9-0.5-7.5-1.1-11.1-1.5c-1.7-0.2-3.5,0.1-5.2,0.3c-0.4,0-1,0.4-1.1,0.8c-0.4,1.5-0.7,3.1-0.9,4.7
			c-0.8,7.6-1.7,15.2-2.4,22.8c-0.9,11.2-1.5,22.3-2.5,33.5c-0.8,8.3-1.9,16.6-3,24.9c-0.9,6.9-2.2,13.8-3.2,20.7
			c-1,6.8-1.8,13.5-2.6,20.3c-0.8,6.6-1.6,13.2-2.5,19.7c-0.7,5.3-1.3,10.7-2.9,15.9c-0.1,0.4-0.1,0.9,0.1,1.2
			c1.9,3.6,3.7,7.4,5.8,10.9c2.9,4.8,6.1,9.4,9.1,14.1c3,4.8,5.9,9.8,8.9,14.7c2.6,4.3,5.5,8.3,7.9,12.7c3.9,7,8.6,13.4,13.1,20.1
			c0.1,0.1,0.2,0.1,0.2,0.1c8-10.3,17.3-19.2,26.6-27.8c-1.4-2.7-2.9-5.3-4.3-8c-3.2-6.1-6.3-12.3-9.5-18.4
			c-2.5-4.7-5.3-9.1-7.6-13.9c-3.9-7.7-9.2-14-16-19.3c-4.5-3.5-8.4-7.6-12.6-11.5c-0.5-0.5-1.3-1.2-0.6-1.9c0.3-0.3,1.4,0,2,0.2
			c0.4,0.1,0.6,0.5,0.9,0.8c-0.3,0.2-0.7,0.4-1.2,0.7c4.8,3.5,9.5,7.1,14.2,10.6c0.1-0.3,0-0.5-0.1-0.7c-3.1-5.5-5.1-11.5-6.6-17.5
			c-0.1-0.4-0.3-0.9-0.2-1.3c0.1-0.3,0.8-0.6,0.8-0.5c0.4,0.5,0.8,1,1,1.5c0.2,0.5,0,1.1,0.2,1.5c1.6,3.7,3.2,7.3,4.8,11
			c0.1,0.1,0.2,0.3,0.4,0.6c-0.1-0.4-0.1-0.6-0.1-0.8c-2.1-8.4-3.2-17-4-25.7c-0.1-1.2-0.1-2.5,0-3.7c0-0.3,0.4-0.6,0.6-0.9
			c0.1,0.3,0.4,0.6,0.4,0.9c0.1,0.8-0.1,1.6,0,2.4c1,7.2,2,14.3,3.1,21.5c0.3,2.3,1,4.5,1.5,7c0.2-0.3,0.3-0.4,0.3-0.5
			c3.5-10.9,7.1-21.8,10.5-32.7c0.1-0.3-0.1-0.8-0.3-1.1c-0.9-1.4-2-2.6-2.7-4.1c-1.4-2.9-2.7-5.9-4-8.8c-2.3-5-4.8-10-6.9-15.1
			c-2.2-5.4-4-10.9-4.2-16.8c-0.3-7.5,0.7-14.9,3.1-22.1c0.7-2.2,0.6-4.1-0.1-6.2c-0.9-2.9-1.6-5.8-2.4-8.8c-0.1-0.4-0.2-1,0-1.1
			c0.5-0.4,1.1-0.7,1.7-0.8c0.2-0.1,0.5,0.4,0.8,0.5c-0.4,0.2-0.8,0.4-1.2,0.6c-0.1,0-0.1,0.1-0.3,0.2
			C271.2,242.6,272.3,245.9,273.3,249.1z M280.5,453.5c-8,26.2-15.6,52.4-26.1,77.7c0-0.2,0-0.3,0-0.4c1.2-3.8,2.6-7.6,3.7-11.4
			c6.7-22.5,13.2-45.1,20-67.6c0.6-1.9,0.3-3.3-0.8-4.9c-2.9-4.1-5.7-8.3-8.4-12.6c-3.4-5.4-6.7-10.9-10.1-16.3
			c-0.3-0.4-0.6-0.8-1-1.4c-11.4,33.9-21.9,67.8-35,101c1.6-0.1,2.8-0.2,4.1-0.3c5.8-0.2,10.7,1.6,14,6.6c1.9,2.9,4,5.7,6.1,8.4
			c3.9,5,8.4,9.4,14.2,12.3c3.7,1.9,7.5,2.9,11.7,2.2c4.3-0.7,8.3-2.2,12.2-4c5.8-2.7,11.8-4.9,18.1-6c5.8-0.9,11.4-0.6,16.6,2.4
			c4.1,2.4,8.1,4.9,12.2,7.1c2.5,1.3,5.1,2.7,7.7,3.4c8,2.1,15.9,1.3,23.5-1.5c3-1.1,6-2.5,9-3.7c3.2-1.2,6.4-2.2,9.8-2.4
			c4.3-0.3,8.5,0.6,12.7,1.6c7.8,1.8,14.5,0.1,19.8-6.1c1.4-1.7,3-3.2,4.4-4.9c5.7-6.5,13.1-9.1,21.5-9.3c2.1,0,4.2,0.1,6.3,0.2
			c-8.6-29.9-14.8-60.6-22-91.1c-0.3,0.2-0.4,0.4-0.6,0.5c-6.2,6.1-12.4,12.1-18.5,18.3c-4.3,4.3-9.3,8-12.1,13.7
			c-0.4,0.8-0.6,1.4-0.4,2.2c2.8,10.1,5.6,20.3,8.5,30.4c3,10.3,6.5,20.5,11.9,29.9c0.1,0.1,0.1,0.3,0.1,0.4
			c-11.3-18.3-17-38.7-22.8-59.2c-0.6,0.6-1,1.1-1.5,1.6c-2.2,2.2-4.7,4-7.8,4.6c-2.8,0.6-3.9-0.7-3.2-3.4c0-0.1,0-0.1-0.1-0.3
			c-0.2,0.3-0.4,0.6-0.5,0.8c-2.7,4.4-6.1,8.1-11,10.1c-2.4,1-4.8,2.1-7.3,3c-0.7,0.3-1,0.6-1.2,1.4c-0.7,3-1.5,6-2.4,8.9
			c-0.6,1.9-1.8,3.3-4.3,2.8c0.5,1.9,0.4,3.5-1,4.8c-0.2,0.2-0.1,0.7-0.1,1c0.8,7.6,1.7,15.2,2.5,22.9c0.2,1.4,0.3,2.7,0.5,4.1
			c-0.1,0-0.2,0-0.3,0c-1.2-9.1-2.5-18.2-3.7-27.4c-2.1,0.1-2.3,0-5.2-2c-1,1.3-2.3,1.4-3.7,1c-0.9-0.3-1.8-0.7-2.6-1.2
			c-1.1-0.7-2.2-1.4-3.3-2.1c-1.4,1.9-2.5,2.2-4.7,1.4c-1.4-0.5-2.7-1.2-4.1-1.8c-7.5-3.6-14.5-7.9-20.3-14.1
			c-0.2-0.2-0.4-0.3-0.9-0.8c0,3.4,0,6.4,0,9.5c-0.3-3-0.3-6-0.3-8.9c0-0.4,0-0.9-0.2-1.1c-2.1-2.4-2.9-5.5-4-8.4
			c-0.6-1.6-1.1-3.2-1.7-4.8c-1.2,0.9-2.3,1.9-3.6,2.5c-1.8,1-2.7,2.3-3,4.4c-0.3,2.8-1.9,4.9-4.6,6c-3,1.2-4.9,0.3-5.4-2.9
			c-0.7-4.6-1.4-9.3-1.7-13.9C280.3,462.3,280.5,457.9,280.5,453.5z M340,347c1.2,27.3,3.2,54.5,5.3,81.9c4.6-2.4,8.7-5.4,13.3-5.6
			c-0.4-0.5-1-1.4-1.7-2.3c-1.1-1.5-1.3-3.3-0.4-4.7c0.8-1.2,1.9-1.5,4-1c0.3,0.1,0.6,0.2,0.9,0.3c4,1.3,8,1.8,12.1,1.9
			c2.3,0.1,4-0.5,5.5-2.2c0.5-0.6,0.7-1.1,0.6-1.8c-0.3-1.4-0.5-2.8-0.7-4.1c-1.5-9.6-3-19.2-4.4-28.8c-1.3-8.7-2.2-17.4-2.6-26.2
			c0-0.4,0-0.8,0-1.2c0-0.3,0-0.7,0.1-1c1.3,20.4,6.1,40.2,9.3,59.9c4.3-4.1,8.9-7.9,12.8-12.4c6.3-7.2,12.1-14.8,18.1-22.2
			c0.8-0.9,0.8-1.7,0.6-2.8c-3.3-14.5-6.5-29-9.8-43.5c-0.6-2.5-1-5.1-1.5-7.6c-2.9,1.3-5.8,2.7-8.8,3.8
			c-14.3,5.2-29.2,7.3-44.3,7.7c-8.2,0.2-16.4-0.2-24.6-0.7c-9.8-0.5-19.1-3.1-28-7.2c-2.3-1-4.5-2.1-6.8-3.1
			c-1.4,4.9-2.8,9.8-4.3,14.6c-2.6,7.8-5.3,15.5-8,23.3c-0.1,0.3-0.1,0.8,0,1.1c0.4,0.6,1,1,1.5,1.5c3.9,3.5,6.9,7.6,9.5,12.1
			c2.5,4.5,4.9,9,7.3,13.5c0.1,0.2,0.3,0.5,0.6,0.9c2.2-7.6,4.3-14.9,6.4-22.2c0.2,0.4,0.1,0.7,0.1,1c-1.9,7.1-3.8,14.1-5.7,21.2
			c-0.2,0.6-0.1,1.4,0.2,1.9c3.4,6.6,6.9,13.3,10.3,19.9c0.2,0.3,0.4,0.7,0.7,1.2c0.1-0.6,0.2-0.8,0.2-1.1c0.2-3.9,0.5-7.7,0.7-11.6
			c0.7-10.6,1.6-21.1,2.2-31.7c0.5-8.6,0.8-17.2,1.2-25.9c0.1-1.9,0-3.9,0-5.8c0.2,1.7,0.4,3.4,0.4,5.1c0,4.4-0.1,8.8-0.2,13.2
			c-0.2,5.4-0.4,10.7-0.6,16.1c-0.4,7.9-0.9,15.9-1.3,23.8c-0.4,6.3-0.6,12.7-1.1,19c-0.2,2,0.6,3.5,1.4,5.2
			c6.1-1.4,12.2-1.6,18.3-1.6c1.3,0,2.6-0.2,3.9-0.4c1.5-0.2,2.4,0.5,2.5,2c0,0.7,0,1.6-0.3,2.2c-0.9,1.6-1.9,3.2-3.1,4.5
			c-1.2,1.3-2.7,2.4-4.2,3.7c2.9,0.3,5.6,1.4,8.1,2.7c0.4,0.2,1,0.2,1.4,0c1.9-1,3.8-2,5.6-3.2c0.4-0.2,0.7-0.9,0.7-1.3
			c-0.1-3-0.3-5.9-0.5-8.9c-0.6-12.3-1.2-24.6-1.8-36.9c-0.3-7.2-0.6-14.5-0.9-21.7C340.3,356.7,340.2,351.9,340,347z M360.5,170.9
			c0.7-0.2,1.5-0.4,2.3-0.6c6-1.8,11.9-3.6,17.8-5.5c5.1-1.7,8.9-4.9,11.2-9.8c2.1-4.6,3.8-9.2,4.8-14.2c1.6-8.3,1.7-16.6,1.1-25
			c-0.1-1.3,0.3-2.7,0.5-4.1c0.1-0.7,0.2-1.3,0.1-2c-0.2-1.4-0.7-2.8-0.9-4.2c-0.8-5-2.7-9.7-5.2-14.1c-0.3-0.5-0.6-0.8-1.3-0.8
			c-4.2,0.2-8.4,0.4-12.6,0.5c-9.3,0.4-18.7,0.9-28,1.1c-5,0.1-9.9-0.1-14.9-0.1c-6.4,0-12.8,0.3-19.2,0.3c-7,0.1-14,0-21,0
			c-0.6,0-1.1-0.1-1.5,0.6c-1.8,3.5-3.4,7.1-4.1,11.1c-0.3,1.9-0.5,3.7-0.8,5.6c-0.2,0.9,0.2,1.5,0.8,2.1c0.3,0.3,0.6,0.6,0.7,1
			c0.3,1.7,0.5,3.5,0.7,5.2c0.6,5.1,1.1,10.2,1.9,15.2c0.8,5,2,9.9,2.7,14.8c0.6,4.3,2.4,7.6,5.3,10.7c3,3.1,6,5.9,10.2,7.3
			c2,0.6,4,1.5,6,2.2c1.1,0.4,2.2,0.6,3.2,0.9c0.1-1.9,0.2-3.7,0.4-5.4c0.1-2,0.3-3.9,0.5-5.9c0-0.3,0.3-0.5,0.5-0.7
			c0.2,0.2,0.5,0.4,0.7,0.7c0.1,0.3,0.1,0.6,0.1,0.9c0,2.8-0.1,5.5,0.1,8.3c0.1,1.4,0.4,3,1.2,4c1.5,2.1,3.6,3.6,6.2,4.3
			c6.2,1.6,12.3,3.1,18.8,2c3.6-0.6,6.9-1.8,9.3-4.6c0.7-0.8,0.9-1.6,0.8-2.7c-0.3-2.9-0.6-5.7-0.8-8.6c-0.1-0.6,0.1-1.3,0.2-1.9
			c0-0.2,0.4-0.3,0.6-0.5c0.1,0.2,0.4,0.4,0.4,0.6C359.7,163.5,360.1,167.2,360.5,170.9z M280.6,66.9c0.1,0,0.3,0.1,0.6,0.2
			c15,3.3,30.2,5.6,45.6,6.6c15.1,0.9,30.1,0.3,45.1-2.2c10.2-1.7,20.1-4.7,29.9-8.1c0.3-0.1,0.6-0.6,0.7-0.9
			c0.1-6.9,0.1-13.8-1-20.7c-0.3-1.7-0.4-3.6-1.9-4.8c-1.1-0.9-2.2-1.7-3.5-2.3c-5.6-2.7-11.6-4.2-17.7-5.4
			c-9.8-1.9-19.7-3.5-29.6-4.1c-9.7-0.6-19.4-0.5-29.1,0.9c-8.6,1.3-17,3.2-25.1,6.4c-4.3,1.8-8.2,4.3-11.5,7.7
			c-1.3,1.4-2.1,3-2.1,4.9c0,3.5-0.2,7-0.3,10.4C280.6,59.3,280.6,63,280.6,66.9z M370.8,868.1c1.1,0,1.9-0.1,2.7,0
			c3.4,0.5,6.3-0.7,8.8-2.9c0,0,0.1,0,0.1-0.1c7.1-5.3,14.6-5.7,22.3-1.8c4.3,2.1,8.5,4.4,13.2,5.7c3.2,0.8,6.1,0.7,8.8-1.2
			c1.4-1,2.6-2.3,2-4.4c-2.2-7.9-4.3-16-6.7-23.8c-2.5-8.2-5.2-16.3-6.6-24.7c-0.5-3.1-1.2-6.1-1.9-9.1c-3.1-0.2-5.8-1-7.9-3.4
			c-1.5-1.7-2.2-3.8-2.7-6c-0.4-1.8-1.6-2.7-3.2-2.9c-1.5-0.2-3.1-0.1-4.5,0.1c-3.5,0.5-6.8,1.7-10,3.1c-1,0.4-1.2,0.9-1.1,1.9
			c0.5,4,1,8.1,1.3,12.1c0.5,8.5-0.1,16.9-1.5,25.3c-1.6,8.7-4.2,17.1-8.7,24.9C373.7,863.2,372.3,865.6,370.8,868.1z M363.6,457.4
			c-0.4-0.7-0.6-1.2-0.9-1.6c-1.9-2.7-4.5-4.6-7.2-6.4c-4.1-2.7-8.1-5.4-12.1-8.2c-4.5-3.1-9.2-6-14.4-7.8c-2.6-0.9-5.2-1.3-7.7,0.1
			c-0.4,0.2-0.9,0.6-1.1,1.1c-0.4,1.3-0.7,2.7-1.1,4c-0.6,2.5-2.1,4.2-4.6,5.1c-1.4,0.5-2.8,1-4.1,1.6c-1.8,0.8-2.8,2.2-2.9,4.3
			c-0.2,4.4-1.8,8-5.5,10.5c-0.4,0.3-0.9,0.6-1.2,1c-0.2,0.3-0.5,0.8-0.4,1.1c0.4,2.9,0.7,5.8,1.5,8.6c1.5,5.3,3.4,10.4,7.8,14.3
			c6.5,5.8,13.8,10.1,21.7,13.4c0.6,0.3,1.4,0.2,2.2,0.2c-0.1-0.5-0.3-0.7-0.4-0.8c-5.9-5.9-11.9-11.8-17.8-17.8
			c-0.7-0.7-1.6-1.7-0.7-2.6c1-1,1.8,0.1,2.5,0.8c2,2,4,4.1,6,6.1c4.2,4.1,8.4,8.3,12.8,12.3c1.4,1.3,3.1,2.2,4.7,3.2
			c0.8,0.5,1.7,0.8,2.6,0.1c-0.5-0.8-0.9-1.5-1.3-2.2c-3.3-5.6-6.7-11.1-9.7-16.8c-1.6-3.1-3.3-5.8-6.2-7.8c-1.4-1-2.4-2.5-3.5-3.9
			c-0.3-0.3-0.2-0.9-0.2-1.4c0.4,0.1,1,0,1.3,0.3c2.2,1.6,4.3,3.3,6.4,5c1.5,1.1,2.4,2.5,3.3,4.1c3.7,6.8,7.7,13.6,11.6,20.3
			c0.7,1.2,1.7,2.2,2.7,3.1c0.4,0.3,1.1,0.3,1.6,0.5c0.1-0.5,0.4-1.1,0.4-1.6c-0.4-2.8-1-5.6-1.4-8.4c-0.6-5.1-1.2-10.2-1.7-15.2
			c-0.2-1.7-0.6-3.3-2-4.4c-1.6-1.2-3.2-2.5-4.8-3.5c-2.8-1.7-5.7-3.3-8.5-5c-0.7-0.4-1.4-1-0.9-1.9c0.5-0.9,1.3-0.6,2-0.3
			c1.1,0.5,2.1,1.1,3.1,1.6c3.9,2.2,7.8,4.3,11.1,7.3c1.4,1.3,2.3,2.8,2.5,4.8c0.4,4,0.7,8,1.3,11.9c0.3,2.5,0.9,4.9,1.5,7.4
			c0.2,0.8,0.8,1.5,1.4,2.5c0.5-0.9,0.9-1.5,1.1-2.1c0.7-2.8,1.6-5.6,2.1-8.5c0.8-4.8,1.2-9.6,0.6-14.4c-0.4-2.7-1.1-5.3-3.2-7.3
			c-1.7-1.6-3.5-3.1-5.1-4.7c-2.2-2.2-4.3-4.6-6.4-6.9c-0.2-0.2-0.1-0.8-0.2-1.1c0.4,0.1,0.9,0,1.1,0.2c0.9,1,2,1.3,3.2,1.5
			c0.7,0.1,1.3,0.4,1.9,0.6c3.4,1.3,6.7,2.6,10.1,3.8C359.7,457.7,361.5,457.9,363.6,457.4z M315.1,839.3c-0.7,0.7-1.1,1.2-1.6,1.7
			c-2.8,2.6-6.2,4-9.6,5.5c-6.1,2.7-12.5,4.3-19.3,3.9c-5.4-0.3-10.3-1.8-14.4-5.6c-1.3-1.2-2.8-2.2-4.4-3.1c-1.4-0.7-3-1.7-4.7-0.5
			c-1.2,0.8-2.3,1.6-3.4,2.4c-7.2,5.4-15.2,9.4-23.7,12.4c-5.4,2-10.9,3.9-16.3,6c-2.3,0.9-4.6,2-6.7,3.4c-3.1,2-2.9,3.5,0.2,5.4
			c0,0,0.1,0,0.1,0.1c7.7,4.4,16,5.8,24.6,5c5-0.4,10-1.4,15-2.2c9.1-1.5,17.7-4.2,26.1-8.1c3.9-1.8,7.9-3.2,12-4.5
			c3.5-1.1,7,1.7,7.2,5.4c0.1,2.4,0.1,2.4,2.5,2.9c0.5,0.1,1,0.2,1.4,0.1c3.1-0.4,6.2-0.8,9.2-1.3c2.1-0.4,3.9-1.3,3.8-3.9
			c0-0.1,0.1-0.2,0.1-0.3c0.6-2.8,1.5-5.6,1.7-8.4c0.3-4.3,0.2-8.7,0.2-13.1C315.3,841.5,315.2,840.6,315.1,839.3z M311,792
			c-2.2,1.1-4.1,1.9-6,3c-6,3.4-12.5,5.3-19.4,5.6c-2.1,0.1-4.1,0.3-6.2,0.4c-0.5,14.3-4.2,27.3-14.7,37.6c0.9,0.4,2,0.6,2.8,1.2
			c1.9,1.3,3.7,2.6,5.5,4c1.7,1.3,3.4,2.5,5.5,3.1c4,1.1,8,1.3,12.1,0.9c5.4-0.6,10.4-2.6,15.3-4.9c3.4-1.6,6.6-3.4,8.2-7
			c0.2-0.4,0.6-0.9,0.6-1.3c-0.2-2.6-0.4-5.3-0.7-7.9c-1.2-8.4-2.4-16.9-2.5-25.4C311.4,798.2,311.1,795.3,311,792z M429.5,868.8
			c-0.3,0.3-0.5,0.5-0.8,0.7c-2.6,2.1-5.6,3.1-8.9,2.5c-1.8-0.3-3.6-0.7-5.3-1.4c-3.8-1.6-7.5-3.4-11.2-5.2
			c-5.9-2.8-11.7-3-17.4,0.4c-1.8,1.1-3.5,2.4-5.2,3.6c-1.3,0.9-2.6,1.2-4.2,1.2c-2.1,0-4.3,0.2-6.4,0.4c-0.4,0-0.9,0.4-1.1,0.8
			c-3,4.4-5.8,9-8.9,13.4c-2.1,3-2.3,3.4,0.8,6.1c1.5,1.3,3.5,2.1,5.4,2.8c6.6,2.5,13.7,2.5,20.6,2.5c5.5,0,11-0.8,16.5-1.5
			c7.5-1,14.9-2.8,22.2-5c2.2-0.7,4.2-1.9,4.8-4.4c0.1-0.3,0.2-0.7,0.2-1C430.6,879.3,430.5,874.1,429.5,868.8z M317.9,89.9
			c0-0.1,0-0.2,0-0.2c8.2,0,16.4,0,24.6,0c3.8,0,7.5,0.1,11.3-0.1c8.8-0.3,17.5-0.8,26.2-1.1c9.2-0.4,18.5-0.7,27.6-2.2
			c5.5-0.9,10.9-2,16-4.4c3-1.5,3.2-2.2,0.3-4.1c-6.1-4-12.5-5.9-19.8-3.4c-8.6,2.9-17.5,4.6-26.5,6.1c-11.9,2-23.8,3.2-35.9,3.9
			c-13.2,0.7-26.5,0.6-39.6-1.5c-6.9-1.1-13.6-2.7-20-5.6c-2.1-0.9-4-1.3-6.3-0.6c-3.1,0.9-6.3,1.3-9.5,2.1c-3.4,0.9-6.8,2-10.1,3.2
			c-0.8,0.3-1.8,1.3-1.8,2.1c0,0.6,1.1,1.6,1.9,1.9c2.6,0.9,5.2,1.8,7.8,2.1c9.6,1.2,19.3,1.7,29,1.8
			C301.4,89.9,309.7,89.9,317.9,89.9z M399,205c-6.9-3.6-13.9-7.3-20.9-11.1c-0.1,0.2-0.2,0.3-0.3,0.5c1,0.7,1.9,1.4,2.9,2.1
			c0.5,0.3,1.4,0.5,1.4,0.9c0.1,0.5-0.3,1.3-0.8,1.7c-1.4,1.1-3,2-4.5,2.9c-7.6,4.3-15.1,8.8-22.1,14.1c-1.5,1.1-2.6,2.5-2.9,4.4
			c-0.9,4.3-1.6,8.6-2.5,12.9c-1.1,5.6-1.1,5.6,1.6,10.7c0.7,1.4,1.5,2.9,2.3,4.4c1.9-3.1,4.3-5.5,7.5-6.9
			c6.3-2.8,12.7-5.5,19.6-6.9c0.4-0.1,0.8-0.4,0.9-0.7c2.9-5.2,5.6-10.4,8.7-15.5C392.7,213.9,395.9,209.6,399,205z M352.2,253.3
			c0.1-0.1,0.2-0.1,0.3-0.2c-0.2-0.5-0.4-0.9-0.6-1.4c-5.4-11.2-10.8-22.5-16.2-33.7c-0.3-0.7-0.8-1.3-1.4-1.8
			c-5.6-4.7-11.3-9.3-17-13.9c-1.9-1.6-3.8-3.1-5.9-4.8c-6.2,2.7-12.7,5.6-19.2,8.4c1.1,1.2,2,2.4,3.2,3.4c2.6,2.3,4.7,5.1,6.2,8.2
			c3,6,5.9,12.1,8.7,18.1c0.3,0.7,0.7,0.9,1.4,0.9c1.9,0,3.8,0,5.6,0.4c9.1,1.7,17.8,4.6,25.9,8.9c2,1.1,3.8,2.5,5.5,3.9
			C350.1,250.8,351.1,252.1,352.2,253.3z M332.9,421.6c-0.4-0.2-0.5-0.2-0.5-0.2c-5.5,0.3-11.1,0.5-16.6,0.8
			c-1.5,0.1-3.1,0.3-4.3,1.1c-2,1.2-3.7,2.9-5.4,4.5c-5.2,5.2-10.3,10.4-15.4,15.6c-2.2,2.2-4.3,4.5-6.5,6.7
			c-0.8,0.8-1.1,1.5-1.1,2.6c0.1,6.6-0.3,13.3,0.7,19.9c0.4,2.6,0.8,5.2,1.2,7.8c0.2,1.3,0.6,1.4,1.8,0.9c2.3-0.9,3.2-2.8,3.4-5.1
			c0.2-2,1.1-3.5,2.9-4.5c0.5-0.3,1-0.6,1.4-0.9c3.6-2.3,4.3-3.9,3.5-8.1c-0.2-1.3,0.1-2.3,1-3.1c0.5-0.5,1.1-1,1.7-1.4
			c2.9-2.1,4.3-5,4.4-8.5c0.1-3.1,1.6-5.3,4.4-6.5c1.3-0.6,2.7-1.1,4-1.5c1.8-0.6,2.9-1.8,3.4-3.7c0.6-1.7,1.2-3.5,2.1-5.1
			c0.5-0.9,1.2-1.9,2.5-2.2c3.5-1.1,6.6-2.9,9-5.7C331.4,423.9,332.1,422.7,332.9,421.6z M381.2,472.4c2.1-0.2,4.5-1.6,6.6-3.8
			c3.4-3.5,5.9-7.6,8.1-12c0.3-0.5,0.3-1.2,0.3-1.7c-0.6-4.5-1.4-9-3.3-13.2c-3.8-8.4-9.2-15.5-16.2-21.4c-0.2-0.2-0.6-0.3-1-0.3
			c-5.4,0.4-10.7-0.4-15.8-2c-0.4-0.1-0.8,0-1.2,0.1c0.1,0.5,0,1,0.3,1.3c0.6,0.7,1.3,1.4,2.1,1.9c3.2,1.9,4,4.8,3.4,8.3
			c-0.2,1.4-0.2,2.9-0.3,4.4c0,1.1,0.6,1.8,1.6,2.3c1.6,0.7,3.1,1.4,4.7,2.1c1.5,0.7,2.4,2,2.4,3.6c0,1.2-0.2,2.4-0.5,3.5
			c-0.4,2-0.9,4-1.4,6.1c-0.2,0.8,0.2,1.2,0.9,1.4c1.1,0.3,2.1,0.7,3.2,1.1c2.7,1.1,4.1,3.3,3.9,6.2c-0.1,1.2-0.3,2.4-0.4,3.7
			C382,466.1,382.6,467.8,381.2,472.4z M350.6,457.6c1.6,1.5,3,2.9,4.5,4.3c1.8,1.7,2.9,3.7,3.5,6c1,3.8,1.1,7.7,0.8,11.7
			c-0.1,1.2-0.2,2.4-0.3,3.9c3.8-2,7.6-3.7,10.9-5.9c3.8-2.6,6.1-6.5,7.8-10.8c-2-1.3-2.1-1.6-1.7-4c0.1-0.8,0.2-1.6,0.3-2.4
			c0.1-2-0.6-3.2-2.4-4c-0.8-0.3-1.6-0.6-2.5-0.9c-2.9-1-3.6-2.1-3-5.1c0.5-2.4,1.2-4.8,1.7-7.2c0.3-1.5,0-2.1-1.4-2.8
			c-1.1-0.5-2.2-1-3.3-1.5c-3.3-1.4-4-2.5-3.9-6c0-1.7,0.2-3.3,0.4-5c0.1-0.7-0.1-1-0.7-1.3c-2-0.9-3.9-0.8-5.8,0.1
			c-5.4,2.8-10.7,5.7-16,8.6c0,0,0,0.1-0.1,0.2c0.1,0.1,0.2,0.2,0.3,0.2c6.3,4.2,12.6,8.4,19,12.6c2.6,1.8,4.9,3.9,6.6,6.5
			c1.7,2.7,0.6,5.2-2.6,5.2c-2.2,0-4.4-0.4-6.5-0.8C354.3,459,352.5,458.2,350.6,457.6z M280.5,68.5c-0.1,0.2-0.2,0.3-0.2,0.4
			c-0.1,1.4,0,2.9-0.2,4.3c-0.1,1.2,0.3,1.7,1.4,2.1c11.5,4,23.4,5.9,35.6,6.7c11.4,0.7,22.8,0.2,34.1-0.7c11.6-1,23.2-2.4,34.6-4.8
			c5.4-1.1,10.7-2.6,16-4c0.4-0.1,0.9-0.6,0.9-0.8c-0.1-1.9-0.3-3.7-0.4-5.8c-19.6,7.4-39.8,10.8-60.7,10.9
			C320.9,76.7,300.5,74.6,280.5,68.5z M372,180.7c-2.9,2.3-6,3.8-9.4,4.7c-7.9,2.2-16.1,2.7-24.2,2.3c-7.4-0.3-14.5-2-21.1-5.6
			c-0.1-0.1-0.3-0.1-0.2,0c0,4.4,0,8.7,0,13c0.6-0.1,1-0.1,1.3-0.1c2.6-0.1,3.8,0.7,4.7,3.1c0.2,0.5,0.4,1.1,0.6,1.6
			c0.6,1.5,1.8,2.3,3.5,2.3c1.4,0,2.4-0.8,3.5-1.6c1.8-1.2,3.5-2.5,5.4-3.5c2.5-1.2,4.5-0.6,6.3,1.4c0.8,0.9,1.5,1.8,2.3,2.6
			c2.8,2.9,6.2,2.4,8-1.2c0.7-1.3,1.5-2.6,2.4-3.7c1.1-1.3,2.5-1.4,4-0.6c0.9,0.5,1.7,1.1,2.5,1.6c1.6,1,3.2,1.8,5.1,1.8
			c1.6,0,2-0.4,2.3-2c0.4-2.4,1.6-4,4.1-4.6c0.2,0,0.3-0.2,0.4-0.2c-0.4-1.9-1-3.7-1.2-5.6C372.1,184.7,372.1,182.8,372,180.7z
			 M378.1,198.3c-0.9-1.1-1.8-2.1-2.6-3.1c-0.7-0.9-1.6-1-2.6-0.5c-1,0.5-1.5,1.4-1.6,2.6c-0.3,2.6-1.5,3.8-4.1,3.7
			c-1.6,0-3.2-0.5-4.7-1.1c-1.4-0.6-2.6-1.7-3.9-2.5c-0.8-0.6-1.6-0.6-2.2,0.3c-0.8,1.1-1.5,2.3-2.1,3.5c-2,4-6.8,4.9-10.1,1.9
			c-0.9-0.8-1.7-1.8-2.5-2.8c-2-2.4-3.3-2.7-6-1.2c-0.5,0.3-1,0.6-1.5,1c-1.3,0.9-2.5,2-3.9,2.8c-1.9,1.2-3.8,1.2-5.8,0.2
			c-1.6-0.9-2.2-2.5-2.8-4c-0.8-2.4-2.1-3-4.5-2.3c-0.5,2-0.4,1.9,1.1,3.1c5.9,4.8,11.8,9.5,17.7,14.4c0.9,0.7,1.6,1.7,2.1,2.7
			c2.7,5.7,5.3,11.4,8,17c0.2,0.4,0.4,0.7,0.4,0.8c1-5,2-10.2,3-15.3c0.5-2.1,1.7-3.8,3.5-5.2c6.2-4.8,12.8-8.9,19.6-12.7
			C374.3,200.4,376.2,199.3,378.1,198.3z M293.9,152.7c-1.2,1.9-2.5,3.5-3.3,5.3c-3,6.7-1.3,15.5,4.2,20.5c2.4,2.2,5.1,4.3,7.8,6.2
			c3.5,2.6,7.7,3.6,11.8,4.8c0-0.3,0.1-0.4,0.1-0.6c-0.3-6-0.6-12.1-0.9-18.1c0-1-0.5-1.3-1.3-1.7c-2.7-1.1-5.6-2-7.9-3.7
			C300.1,162.1,296.2,158.3,293.9,152.7z M396.1,151.3c-3.1,11-11.1,15.8-21.3,18c0.5,6.2-0.8,12.2,0.3,18.2c0.3,0,0.4,0,0.6,0
			c3.8-1,7.6-1.8,11.3-3.1c6.3-2.3,10.2-6.7,11.7-13.3c1-4.4,0.8-8.7,0-13.1C398.3,155.8,397.7,153.6,396.1,151.3z M405.1,70.7
			c1.2,0,2.1-0.1,3,0c2.9,0.2,5.7,0.5,8.6,0.8c1.2,0.1,2.4,0.4,3.5,0.4c1.4,0,2.4-1.3,2-2.6c-0.2-0.5-0.4-1.1-0.7-1.5
			c-1-1.4-2.2-2.4-3.8-2.9c-0.8-0.2-1.3-0.7-1.1-1.6c0.2-0.9,0.9-1,1.7-1c0.2,0,0.5,0.1,0.7,0.2c3.2,0.6,6.2,0,8.8-2.2
			c1.3-1.1,1.3-2.3-0.2-3.3c-0.9-0.6-1.9-1.1-2.9-1.4c-2-0.6-4-0.6-6,0c-0.8,0.2-1.5,0.2-1.8-0.6c-0.4-0.8,0.1-1.4,0.7-1.8
			c0.1-0.1,0.3-0.2,0.4-0.3c3.5-2.8,6-6.3,7.4-10.6c0.6-1.7,0-2.7-1.8-3.1c-0.6-0.1-1.3-0.2-1.9,0c-5.7,1.3-10,4.3-11.9,10
			c-1.7,5.2-3.2,10.5-4.5,15.9C404.8,66.8,405.1,68.7,405.1,70.7z M372.7,170.3c-3.9,1-7.7,1.9-11.5,2.9c-0.2,0-0.3,0.3-0.5,0.5
			c-1.4,1.3-2.6,2.7-4.1,3.8c-3.2,2.1-6.9,2.7-10.6,2.9c-4.5,0.3-8.9-0.7-13.3-1.5c-4.5-0.9-8.4-2.8-11.3-6.4
			c-0.1-0.2-0.4-0.3-0.6-0.4c-1.7-0.5-3.3-1-5-1.5c0.3,2.8,0.7,5.5,0.9,8.2c0.1,1,0.4,1.5,1.3,1.8c6.2,2.1,12.4,4,18.9,4.4
			c8.5,0.5,16.9,0.2,25.1-2.1c3.2-0.9,6.1-2.2,8.5-4.5c0.7-0.7,1.5-1.5,1.7-2.4C372.5,174.2,372.5,172.2,372.7,170.3z M289.1,124
			c-0.2,0.1-0.3,0.2-0.5,0.3c-1.9,1.7-1,4-1.5,6.1c-0.1,0.3-0.1,0.7-0.2,1c-0.3-0.2-0.7-0.3-0.9-0.6c-2-2.7-1.9-6.3,0.8-8.2
			c2.1-1.5,2.2-3.1,2.1-5.2c0-0.4,0.1-0.8,0-1.2c-0.2-0.7-0.2-1.5-0.6-2c-1.5-1.7-3.2-3.3-4.8-4.8c-0.8-0.7-1.6-0.6-2.1,0.3
			c-0.5,1.1-1.1,2.2-1.3,3.3c-1.2,6.4,0.1,12.4,3,18.1c1.7,3.3,4.7,5.2,8,6.9C290.4,133.3,289.8,128.7,289.1,124z M400.4,116.5
			c0.4,0,0.7,0.1,1,0.1c2.5,0.4,4.3,3.7,3.2,6c-0.2,0.5-0.9,0.7-1.3,1.1c-0.3-0.4-0.7-0.8-0.9-1.3c-0.2-0.4-0.1-0.9-0.2-1.4
			c-0.2-1.1-0.6-2-1.8-2.7c0,5.4,0,10.6,0,16c0.7-1.1,1.3-1.9,1.7-2.9c1.3-2.5,2.5-5.1,3.8-7.6c2-3.7,2.9-7.7,2.9-12
			c0-1.7-0.5-3.2-1.5-4.6c-1.3-1.8-2.9-2-4.5-0.3C400.4,109.6,400,112.8,400.4,116.5z M404.7,103.1c0.2-4.6,0.4-9.2,0.5-13.7
			c-3.9,0.4-7.7,0.8-11.7,1.2c3.2,5.1,5.3,10.5,5.8,16.7C400.8,105,402.3,103.4,404.7,103.1z M282.4,106.3c2.1,0.1,3.3,1.8,5,3.2
			c0.4-6.2,1.7-11.8,5.4-17.1c-4.1,0-7.8,0-11.4,0C281.8,97,282.1,101.6,282.4,106.3z"/>
		<path class="st0" d="M313.3,788c-5.1,2.5-10.4,5.1-15.8,7.5c-4.4,1.9-9.1,2.3-13.8,2.6c-4.3,0.3-8.6,0.2-12.8-1
			c-3.6-1-6.6-2.9-8.8-6.1c-1.5-2.2-1.6-4.6-1.8-7.1c-0.6-7.4,0.6-14.7,1-22c0.4-5.7,0.7-11.5,1.1-17.2c0.5-7.7,0.9-15.5,1.4-23.2
			c0.4-6.1,0.8-12.2,1.3-18.3c0.6-7.2,1.3-14.4,2.1-21.6c0.7-6.6,1.4-13.1,2.2-19.6c0.9-7.7,2-15.5,3-23.2
			c0.8-6.5,1.7-12.9,2.5-19.4c0.8-6.5,1.6-13,2.3-19.5c0.7-6.3,1.4-12.6,2-18.8c0.9-8.3,1.7-16.7,2.6-25c0-0.2,0.1-0.4,0-0.6
			c-0.1-0.2-0.2-0.4-0.4-0.7c-0.2,0.2-0.6,0.4-0.6,0.6c-0.2,1-0.3,2-0.4,3.1c-0.8,7.6-1.5,15.2-2.3,22.8c-0.7,6.6-1.4,13.1-2.2,19.7
			c-0.9,7.6-2,15.1-3,22.7c-1.1,7.8-2.2,15.6-3.2,23.4c-1,7.3-1.9,14.7-2.8,22c-0.8,7.2-1.6,14.4-2.3,21.6
			c-0.7,7.2-1.3,14.3-1.8,21.5c-0.4,5.9-0.7,11.7-1.1,17.6c-0.6,11.5-1.1,23.1-1.8,34.6c-0.2,3.3-0.5,6.5-0.7,9.8
			c-0.1-0.1-0.3-0.1-0.3-0.1c-3.2-5.6-8.3-7.9-14.4-8.7c-0.7-0.1-1.8,0.1-2-0.3c-0.5-0.8-0.8-1.9-0.8-2.8c0-2,0.3-3.9,0.4-5.9
			c0.2-4.3,0.4-8.6,0.7-12.9c0.4-7.1,0.9-14.2,1.3-21.3c0.4-7.9,0.8-15.9,1.1-23.8c0.5-11.2,0.9-22.4,1.4-33.6
			c0.5-10.3,1-20.7,1.5-31c0.5-9.7,1.3-19.3,1.8-29c0.6-10.8,1.2-21.6,1.5-32.4c0.2-10.2,0-20.5-0.1-30.7c0-0.2,0-0.4,0-0.4
			c2.5,1.7,4.9,3.6,7.5,5.1c4,2.4,8.2,3.9,13,3.5c3.9-0.4,7.7-1.5,11.3-3c4.6-1.8,9.1-3.8,13.7-5.4c4.5-1.6,9.1-2.4,13.9-2.1
			c2.6,0.2,5.1,0.8,7.4,2.1c4.1,2.3,8.2,4.6,12.1,7.1c6,3.8,12.4,5.5,19.5,5.3c0.4,0,0.9,0,1.5,0c0,0.5,0.1,1.1,0.1,1.6
			c0,13.2,0.1,26.5,0.1,39.7c0,27.1-0.1,54.2,0.1,81.2c0.1,14.1,0.7,28.2,1,42.3c0.4,18.4,0.8,36.8,1.2,55.2c0,1.5,0.1,3,0.2,4.6
			c0,0.4,0.3,0.9,0.5,1.3c0.2-0.4,0.5-0.8,0.5-1.3c0-3.5,0-7-0.1-10.4c-0.2-11.1-0.4-22.2-0.7-33.3c-0.5-20.4-1.4-40.8-1.5-61.2
			c-0.2-30.2,0.1-60.5,0.1-90.7c0-9.4-0.2-18.8-0.4-28.2c0-0.2,0-0.5,0-0.8c1.8-0.3,3.6-0.3,5.4-0.8c3.3-0.9,6.6-2,9.9-3.2
			c2.9-1,5.7-2.4,8.6-3.4c5.6-2,11.2-1.7,16.9-0.2c3.5,0.9,7,1.4,10.7,0.9c4.5-0.7,8.4-2.5,11.6-5.8c2.6-2.7,5.1-5.4,7.7-8.1
			c0.7-0.7,1.5-1.4,2.4-2.1c0.5,4,1,7.8,1.5,11.6c1.1,8,2.2,15.9,3.3,23.9c1.1,7.9,2.2,15.7,3.2,23.6c1.2,9.4,2.3,18.8,3.3,28.2
			c0.8,7.3,1.4,14.6,2,21.8c0.8,9.9,1.5,19.9,2,29.8c0.4,8.6,0.7,17.3,0.7,25.9c0.1,16.3,0,32.6,0.1,48.8c0,6.3,0.4,12.6,0.6,18.9
			c0.2,6.5,0.5,13,0.8,19.5c0,1.1-0.4,2-1.3,2.7c-4.3,3.4-8.5,7-12.1,11.3c-3.7,4.3-8.7,5.6-14,6c-1.3,0.1-2.7,0-4-0.3
			c-2.6-0.5-4.3-2.2-5.2-4.7c-0.3-0.8-0.5-1.6-0.7-2.4c-0.8-3.1-3.1-4.8-6.3-4.9c-6.9-0.1-13.2,2.2-19,5.8c-3.1,1.9-6,4.3-8.8,6.6
			c-11.9,9.5-28.1,3.5-33.4-9.3c-0.3-0.6-0.5-1.3-0.7-1.9c-2-6-7.1-7.6-11.8-7c-3.1,0.4-6.2,1.4-9.3,2.2c-1.4,0.4-2.3,0-2.3-1.5
			c-0.2-4.4-0.5-8.9-0.6-13.3c-0.1-14.4,0.6-28.8,1.4-43.2c0.6-9.2,1.1-18.4,1.8-27.5c0.8-12.2,1.7-24.3,2.5-36.5
			c0.5-7.8,1-15.6,1.5-23.5c0.6-9,1.2-17.9,1.8-26.9c0.4-6.8,0.8-13.6,1.3-20.3c0.5-6.5,1-13.1,1.6-19.6c0.5-5.8,1.1-11.5,1.6-17.3
			c0-0.3-0.3-0.7-0.4-1c-0.2,0.3-0.5,0.6-0.6,0.9c-0.6,6-1.2,12-1.7,18c-0.6,6.5-1.1,13-1.6,19.5c-0.4,5.3-0.7,10.6-1.1,15.9
			c-0.5,7.8-1.1,15.6-1.6,23.3c-0.4,5.8-0.8,11.6-1.3,17.5c-0.5,7.4-1.1,14.8-1.6,22.2c-0.4,6.3-0.9,12.5-1.3,18.8
			c-0.4,6.2-1,12.4-1.4,18.7c-0.4,6.9-0.9,13.7-1.2,20.6c-0.7,14.3-1.3,28.7-1,43.1c0.1,3.7,0.4,7.4,0.7,11.1
			C312.7,786.7,313.1,787.4,313.3,788z M395.3,575.1c0.1,0,0.2,0,0.2,0c0-6.1,0-12.2,0-18.4c0-0.4-0.3-0.7-0.5-1.1
			c-0.2,0.3-0.5,0.7-0.5,1c-0.1,2-0.2,4.1-0.2,6.1c0.2,10.8,0.3,21.7,0.8,32.5c0.5,11.9,1.5,23.9,2.3,35.8c0.6,8.1,1.3,16.3,2,24.4
			c0.9,9.9,1.8,19.7,2.8,29.6c0.9,9.3,1.9,18.5,3,27.8c1.3,11.6,2.8,23.2,4.2,34.9c1.3,10.4,2.9,20.7,5.1,31
			c0.4,1.9,0.9,3.8,1.4,5.7c0.1,0.3,0.5,0.5,0.7,0.8c0.1-0.3,0.2-0.7,0.3-1c0-0.1-0.1-0.3-0.1-0.5c-1-4.7-2.2-9.4-3-14.2
			c-1.4-8.3-2.6-16.6-3.7-24.9c-1.1-8.4-2.1-16.9-3-25.3c-0.8-7.1-1.5-14.1-2.3-21.2c-0.8-7.5-1.6-15-2.3-22.5
			c-0.7-7.4-1.4-14.9-2-22.3c-0.7-7.9-1.5-15.8-2.1-23.8c-0.6-7.5-1.1-15.1-1.5-22.6C396.3,596.2,395.8,585.6,395.3,575.1z
			 M428.6,790.4c-0.1-0.4-0.2-0.6-0.2-0.9c-0.9-3.7-1.9-7.3-2.8-11c-5.6-23.6-9.7-47.4-13-71.4c-0.1-0.6,0.3-1.5-0.8-1.8
			c-0.1,0.7-0.3,1.4-0.2,2c1.2,8.1,2.4,16.2,3.7,24.3c2.5,15.6,5.4,31.1,9.2,46.5c1,4,2,8,3.1,12.1c0.1,0.3,0.5,0.5,0.7,0.8
			C428.3,790.7,428.5,790.5,428.6,790.4z"/>
		<path class="st1" d="M273.3,249.1c-1-3.2-2.1-6.5-3.1-9.7c0.1-0.1,0.2-0.2,0.3-0.2c0.4-0.2,0.8-0.4,1.2-0.6
			c-0.3-0.2-0.6-0.6-0.8-0.5c-0.6,0.2-1.2,0.4-1.7,0.8c-0.2,0.2-0.1,0.8,0,1.1c0.8,2.9,1.5,5.9,2.4,8.8c0.6,2.1,0.8,4,0.1,6.2
			c-2.4,7.1-3.4,14.5-3.1,22.1c0.2,5.9,2,11.4,4.2,16.8c2.1,5.1,4.6,10.1,6.9,15.1c1.3,2.9,2.6,5.9,4,8.8c0.7,1.4,1.8,2.7,2.7,4.1
			c0.2,0.3,0.4,0.8,0.3,1.1c-3.5,10.9-7,21.8-10.5,32.7c0,0.1-0.1,0.2-0.3,0.5c-0.5-2.4-1.2-4.7-1.5-7c-1.1-7.1-2.1-14.3-3.1-21.5
			c-0.1-0.8,0-1.6,0-2.4c0-0.3-0.3-0.6-0.4-0.9c-0.2,0.3-0.6,0.6-0.6,0.9c-0.1,1.2-0.1,2.5,0,3.7c0.8,8.6,1.9,17.2,4,25.7
			c0,0.2,0.1,0.4,0.1,0.8c-0.2-0.3-0.4-0.4-0.4-0.6c-1.6-3.7-3.2-7.3-4.8-11c-0.2-0.5,0-1.1-0.2-1.5c-0.2-0.6-0.6-1.1-1-1.5
			c0,0-0.8,0.3-0.8,0.5c-0.1,0.4,0.1,0.9,0.2,1.3c1.5,6.1,3.6,12,6.6,17.5c0.1,0.2,0.2,0.4,0.1,0.7c-4.7-3.5-9.4-7-14.2-10.6
			c0.6-0.3,0.9-0.5,1.2-0.7c-0.3-0.3-0.6-0.7-0.9-0.8c-0.7-0.2-1.7-0.5-2-0.2c-0.7,0.7,0.1,1.4,0.6,1.9c4.1,3.9,8.1,8,12.6,11.5
			c6.8,5.3,12.2,11.6,16,19.3c2.4,4.7,5.2,9.2,7.6,13.9c3.2,6.1,6.4,12.3,9.5,18.4c1.4,2.7,2.9,5.3,4.3,8
			c-9.3,8.6-18.6,17.6-26.6,27.8c0,0-0.1,0-0.2-0.1c-4.4-6.7-9.2-13.1-13.1-20.1c-2.4-4.4-5.3-8.4-7.9-12.7c-3-4.9-5.8-9.8-8.9-14.7
			c-3-4.7-6.2-9.3-9.1-14.1c-2.1-3.5-3.9-7.2-5.8-10.9c-0.2-0.3-0.2-0.9-0.1-1.2c1.7-5.2,2.2-10.5,2.9-15.9
			c0.9-6.6,1.7-13.2,2.5-19.7c0.9-6.8,1.7-13.6,2.6-20.3c1-6.9,2.2-13.8,3.2-20.7c1.1-8.3,2.3-16.6,3-24.9c1-11.1,1.6-22.3,2.5-33.5
			c0.6-7.6,1.5-15.2,2.4-22.8c0.2-1.6,0.5-3.2,0.9-4.7c0.1-0.3,0.7-0.7,1.1-0.8c1.7-0.2,3.5-0.4,5.2-0.3c3.6,0.3,7.3,0.9,11.1,1.5
			c-0.7,1-1.4,1.7-1.9,2.5c-3,4.1-6,8.2-9,12.3c-0.3,0.4-0.6,0.8-0.7,1.3c-0.1,0.4,0,0.9,0,1.3c0.4-0.2,0.9-0.2,1.1-0.5
			c1.5-2,3-3.9,4.4-6c2.4-3.4,4.7-6.8,7.1-10.2c0.2-0.3,0.7-0.6,1.1-0.6c5.1,0.2,9.9-1.4,14.6-2.9c1.3-0.4,2.1-0.2,3,0.8
			c2.7,3.2,4.9,6.7,6.7,10.5c2.5,5.3,5,10.5,7.5,15.8c0.6,1.2,1.3,1.7,2.7,1.4c3.6-0.6,7,0.4,10.4,1.2c7.3,1.7,14.1,4.5,20.8,7.8
			c2.8,1.4,5,3.6,7.1,5.8c2.2,2.3,4.4,4.6,6.6,6.9c0.2,0.2,0.3,0.4,0.5,0.5c0.3,0.1,0.6,0.3,0.8,0.2c0.2-0.1,0.4-0.5,0.3-0.8
			c-0.2-1.2-0.4-2.4-0.8-3.5c-0.6-1.8-1.4-3.5-2-5.2c-0.1-0.4-0.1-1,0.1-1.4c2-4.5,5.9-6.7,10.2-8.4c4.7-1.9,9.4-4,14.4-4.8
			c2.6-0.4,3.5-1.9,4.5-3.9c4.8-8.8,9.4-17.7,15.9-25.5c0.5-0.6,0.9-0.8,1.7-0.7c6.8,1,13.6,1.5,20.4,1.2c2.4-0.1,4.8-0.5,7.1-0.9
			c0.9-0.1,1.5,0.1,1.9,0.9c2.5,5,4,10.3,4.5,15.8c0.4,3.8,0.6,7.6,0.6,11.4c0,3.3-0.4,6.5-0.3,9.8c0,4.7,0.1,9.4,0.4,14.1
			c0.4,5.6,0.8,11.2,1.6,16.7c1.3,8.8,3,17.6,4.5,26.4c1.4,8.5,3,16.9,4.2,25.4c1.6,11.2,3,22.5,4.4,33.8c0.9,6.9,1.8,13.8,2.4,20.7
			c0.4,4.3,0.7,8.7-1,12.8c-0.9,2.2-2,4.4-3.5,6.2c-3.3,4.3-6.8,8.4-10.4,12.4c-4.6,5.1-9.6,9.9-14.2,15c-7.9,8.6-16.6,16.4-25,24.5
			c-0.2,0.2-0.5,0.4-0.7,0.6c-0.5-2.5-1-4.8-1.5-7.2c-1.4-6.3-4.5-11.8-8.1-17.1c-2.6-3.8-5.6-7.2-9-10.3c-0.4-0.4-0.7-0.9-0.9-1.3
			c3.5-3.6,6.8-7.3,10.4-10.7c6.7-6.2,12.3-13.2,17.8-20.4c3-3.9,6-7.7,9.2-11.4c1.4-1.6,3.5-2.8,5.2-4.2c3.8-2.9,7.7-5.9,11.5-8.8
			c0.2-0.1,0.4-0.3,0.5-0.5c0.2-0.4,0.3-0.7,0.4-1.1c-0.4,0.1-0.8,0.1-1.1,0.3c-1.2,0.7-2.4,1.5-3.7,2.3c-3.4,2.2-6.8,4.3-10.2,6.5
			c-0.2,0.1-0.4,0.3-0.9,0.3c0.3-1.8,0.4-3.7,1.1-5.4c3.5-8.8,6.6-17.7,9.2-26.8c0.2-0.6-0.1-1.2-0.1-1.8c-0.5,0.4-1.1,0.7-1.5,1.1
			c-0.4,0.5-0.9,1.1-0.2,1.8c0.1,0.1-0.1,0.5-0.2,0.8c-2.3,5.9-4.7,11.8-7.1,17.7c0,0.1-0.1,0.1-0.3,0.2c0.2-3.5,0.3-7,0.6-10.5
			c0.5-6.2,1.2-12.3,1.8-18.5c0.1-1.2,0.4-2.3,0.5-3.4c0-0.3-0.2-0.7-0.4-1.1c-0.2,0.3-0.6,0.6-0.6,0.9c-0.5,3.5-1.1,7-1.4,10.6
			c-1,10.1-2,20.3-2.9,30.4c-0.2,1.6-0.2,3.2-0.5,4.8c-0.1,0.6-0.6,1.2-0.9,1.8c-0.1,0-0.3-0.1-0.4-0.1c-0.9-4-1.8-7.9-2.7-11.9
			c-2.6-11.7-5.3-23.4-7.9-35.2c-0.2-0.8-0.3-1.6-0.7-2.3c-0.7-1.3-0.2-2.4,0.4-3.5c3-5.6,6.3-11,8.8-16.8c4-9.4,6.1-19.4,5.1-29.7
			c-0.4-3.7-1.5-7.4-2.4-11.1c-0.6-2.6-1.5-5.1-2.1-7.7c-0.2-0.7-0.2-1.4-0.1-2.1c1.5-6.3,3-12.5,4.5-18.7c0.2-0.6,0.4-1.3,0.5-1.9
			c0-0.3-0.2-0.6-0.4-0.9c-0.3,0.2-0.7,0.4-0.8,0.7c-0.8,2.5-1.6,5-2.2,7.5c-0.9,3.7-1.7,7.4-2.5,11.1c-0.1,0.2-0.1,0.4-0.2,0.7
			c-2-3.8-3.4-7.7-4-11.9c-0.3-2.3-0.7-4.7-1-7c-0.1-0.5,0.2-1,0.1-1.5c-0.1-0.4-0.3-0.8-0.5-1.2c-0.3,0.2-0.9,0.4-0.9,0.6
			c-0.2,1.5-0.5,3.1-0.4,4.6c0.1,1.8,0.5,3.6,0.7,5.4c-1.2-0.1-1.4,0.2-0.9,1.5c1.5,3.5,3.3,7,4.4,10.6c2.1,6.8,4.1,13.6,5.5,20.6
			c1.1,5.5,0.4,11.1-0.8,16.5c-1.4,6-2.9,11.9-6,17.2c-2.2,3.9-4.3,7.9-6.4,11.9c-0.5,1-1.2,1.7-2.2,2.2c-7.2,4-15.1,6-23,7.9
			c-8.4,1.9-16.9,2.7-25.4,3.2c-9.3,0.5-18.6,0.2-27.9-0.5c-11.3-0.8-21.9-4.3-32-9.4c-2.4-1.2-4.3-3-5.5-5.5
			c-2.1-4.5-4.1-9.1-6.3-13.6c-2.8-5.7-5.3-11.5-7.1-17.5c-1.8-5.9-1.9-11.8-1.2-17.9c0.7-6.8,3-13.2,4.9-19.7
			c0.7-2.2,1.1-4.6,1.7-6.9c0.2-0.9,0.6-1.8,0.9-2.7c0.1-0.3,0.1-0.6,0.1-1c-0.3,0.1-0.8,0.2-1,0.4c-0.5,0.9-1,1.9-1.4,2.9
			C275.6,243.8,274.4,246.5,273.3,249.1z M282.5,215.7c-0.4-0.2-0.8-0.5-0.9-0.4c-0.8,0.5-1.7,1.1-2.3,1.8c-0.7,0.8-1.2,1.8-1.8,2.6
			c-4.9,6.1-9.9,12.1-14.8,18.2c-0.3,0.4-0.6,0.8-0.7,1.2c-0.1,0.2,0,0.6,0.2,0.7c0.1,0.1,0.6,0,0.7-0.2c0.3-0.4,0.6-0.9,0.9-1.3
			c5.4-7.6,11.6-14.5,17.9-21.4C281.8,216.5,282,216.2,282.5,215.7z"/>
		<path class="st2" d="M280.5,453.5c0,4.4-0.2,8.7,0.1,13.1c0.3,4.7,0.9,9.3,1.7,13.9c0.5,3.2,2.4,4.1,5.4,2.9
			c2.7-1.1,4.3-3.2,4.6-6c0.2-2.1,1.1-3.4,3-4.4c1.3-0.7,2.4-1.6,3.6-2.5c0.5,1.6,1,3.2,1.7,4.8c1.1,2.9,2,5.9,4,8.4
			c0.2,0.3,0.2,0.7,0.2,1.1c0,3,0,6,0.3,8.9c0-3.1,0-6.1,0-9.5c0.5,0.4,0.7,0.6,0.9,0.8c5.8,6.1,12.7,10.5,20.3,14.1
			c1.3,0.6,2.7,1.3,4.1,1.8c2.2,0.9,3.3,0.5,4.7-1.4c1.1,0.7,2.1,1.5,3.3,2.1c0.8,0.5,1.7,0.9,2.6,1.2c1.4,0.4,2.8,0.3,3.7-1
			c2.9,2,3.1,2.1,5.2,2c1.2,9.1,2.5,18.2,3.7,27.4c0.1,0,0.2,0,0.3,0c-0.2-1.4-0.4-2.7-0.5-4.1c-0.9-7.6-1.7-15.2-2.5-22.9
			c0-0.3-0.1-0.8,0.1-1c1.4-1.3,1.5-2.9,1-4.8c2.5,0.5,3.7-0.9,4.3-2.8c0.9-2.9,1.7-5.9,2.4-8.9c0.2-0.8,0.5-1.1,1.2-1.4
			c2.5-1,4.9-2,7.3-3c4.9-2.1,8.3-5.7,11-10.1c0.2-0.3,0.3-0.5,0.5-0.8c0,0.2,0.1,0.2,0.1,0.3c-0.8,2.7,0.4,4,3.2,3.4
			c3.1-0.6,5.6-2.4,7.8-4.6c0.5-0.5,0.9-1,1.5-1.6c5.8,20.5,11.5,40.9,22.8,59.2c0-0.1,0-0.3-0.1-0.4c-5.4-9.4-8.9-19.5-11.9-29.9
			c-2.9-10.1-5.7-20.3-8.5-30.4c-0.2-0.8,0-1.5,0.4-2.2c2.8-5.7,7.8-9.4,12.1-13.7c6.2-6.1,12.4-12.2,18.5-18.3
			c0.1-0.1,0.3-0.3,0.6-0.5c7.2,30.5,13.4,61.1,22,91.1c-2.1-0.1-4.2-0.2-6.3-0.2c-8.4,0.2-15.8,2.8-21.5,9.3
			c-1.4,1.7-3,3.2-4.4,4.9c-5.3,6.2-12,7.9-19.8,6.1c-4.2-1-8.3-1.9-12.7-1.6c-3.4,0.2-6.7,1.2-9.8,2.4c-3,1.2-5.9,2.6-9,3.7
			c-7.7,2.8-15.6,3.6-23.5,1.5c-2.7-0.7-5.3-2-7.7-3.4c-4.1-2.3-8.1-4.8-12.2-7.1c-5.2-3.1-10.8-3.4-16.6-2.4
			c-6.4,1-12.3,3.2-18.1,6c-3.9,1.9-8,3.3-12.2,4c-4.2,0.7-8-0.3-11.7-2.2c-5.8-2.9-10.3-7.3-14.2-12.3c-2.1-2.7-4.2-5.6-6.1-8.4
			c-3.4-5-8.2-6.8-14-6.6c-1.2,0-2.5,0.2-4.1,0.3c13.1-33.2,23.6-67.1,35-101c0.4,0.6,0.7,1,1,1.4c3.4,5.4,6.7,10.9,10.1,16.3
			c2.7,4.2,5.5,8.4,8.4,12.6c1.1,1.6,1.4,3,0.8,4.9c-6.7,22.5-13.3,45.1-20,67.6c-1.1,3.8-2.5,7.6-3.7,11.4c0,0.1-0.1,0.3,0,0.4
			C264.9,506,272.5,479.7,280.5,453.5z"/>
		<path class="st2" d="M340,347c0.1,4.9,0.3,9.7,0.4,14.6c0.3,7.2,0.5,14.5,0.9,21.7c0.6,12.3,1.2,24.6,1.8,36.9
			c0.1,3,0.4,5.9,0.5,8.9c0,0.4-0.3,1.1-0.7,1.3c-1.8,1.1-3.7,2.2-5.6,3.2c-0.4,0.2-1,0.2-1.4,0c-2.6-1.3-5.2-2.4-8.1-2.7
			c1.5-1.2,3-2.3,4.2-3.7c1.2-1.3,2.2-2.9,3.1-4.5c0.3-0.6,0.3-1.5,0.3-2.2c0-1.5-1-2.2-2.5-2c-1.3,0.2-2.6,0.4-3.9,0.4
			c-6.1,0-12.2,0.2-18.3,1.6c-0.8-1.6-1.6-3.2-1.4-5.2c0.5-6.3,0.8-12.7,1.1-19c0.4-7.9,0.9-15.9,1.3-23.8
			c0.3-5.4,0.5-10.7,0.6-16.1c0.1-4.4,0.2-8.8,0.2-13.2c0-1.7-0.2-3.4-0.4-5.1c0,1.9,0.1,3.9,0,5.8c-0.4,8.6-0.7,17.3-1.2,25.9
			c-0.6,10.6-1.5,21.1-2.2,31.7c-0.3,3.9-0.5,7.7-0.7,11.6c0,0.3-0.1,0.5-0.2,1.1c-0.3-0.6-0.5-0.9-0.7-1.2
			c-3.4-6.6-6.9-13.2-10.3-19.9c-0.3-0.5-0.3-1.3-0.2-1.9c1.9-7.1,3.8-14.1,5.7-21.2c0.1-0.3,0.1-0.6-0.1-1
			c-2.1,7.3-4.2,14.6-6.4,22.2c-0.3-0.4-0.5-0.6-0.6-0.9c-2.4-4.5-4.8-9-7.3-13.5c-2.5-4.5-5.6-8.6-9.5-12.1c-0.5-0.5-1.1-1-1.5-1.5
			c-0.2-0.2-0.2-0.8,0-1.1c2.7-7.8,5.4-15.5,8-23.3c1.6-4.8,2.9-9.7,4.3-14.6c2.2,1,4.5,2.1,6.8,3.1c8.9,4,18.3,6.6,28,7.2
			c8.2,0.5,16.4,0.9,24.6,0.7c15.1-0.4,30-2.5,44.3-7.7c3-1.1,5.9-2.5,8.8-3.8c0.5,2.5,0.9,5,1.5,7.6c3.2,14.5,6.5,29,9.8,43.5
			c0.2,1.1,0.2,1.9-0.6,2.8c-6.1,7.4-11.9,15-18.1,22.2c-3.9,4.5-8.5,8.3-12.8,12.4c-3.2-19.6-8-39.5-9.3-59.9c0,0.3-0.1,0.7-0.1,1
			c0,0.4,0,0.8,0,1.2c0.3,8.8,1.3,17.5,2.6,26.2c1.4,9.6,2.9,19.2,4.4,28.8c0.2,1.4,0.4,2.8,0.7,4.1c0.1,0.7-0.1,1.2-0.6,1.8
			c-1.5,1.8-3.2,2.3-5.5,2.2c-4.2-0.1-8.2-0.6-12.1-1.9c-0.3-0.1-0.6-0.2-0.9-0.3c-2-0.5-3.2-0.2-4,1c-0.9,1.4-0.8,3.2,0.4,4.7
			c0.7,0.9,1.3,1.8,1.7,2.3c-4.6,0.1-8.7,3.2-13.3,5.6C343.2,401.5,341.2,374.3,340,347z"/>
		<path class="st3" d="M360.5,170.9c-0.4-3.7-0.8-7.4-1.3-11.2c0-0.2-0.3-0.4-0.4-0.6c-0.2,0.2-0.5,0.3-0.6,0.5
			c-0.1,0.6-0.3,1.3-0.2,1.9c0.2,2.9,0.5,5.7,0.8,8.6c0.1,1.1-0.1,1.9-0.8,2.7c-2.5,2.9-5.8,4-9.3,4.6c-6.4,1.1-12.6-0.4-18.8-2
			c-2.6-0.7-4.7-2.2-6.2-4.3c-0.8-1.1-1.1-2.7-1.2-4c-0.2-2.7-0.1-5.5-0.1-8.3c0-0.3,0.1-0.7-0.1-0.9c-0.1-0.3-0.4-0.5-0.7-0.7
			c-0.2,0.2-0.5,0.5-0.5,0.7c-0.2,1.9-0.3,3.9-0.5,5.9c-0.1,1.8-0.2,3.5-0.4,5.4c-1.1-0.3-2.2-0.5-3.2-0.9c-2-0.7-3.9-1.5-6-2.2
			c-4.2-1.3-7.3-4.2-10.2-7.3c-2.9-3.1-4.7-6.5-5.3-10.7c-0.7-5-1.9-9.9-2.7-14.8c-0.8-5-1.3-10.1-1.9-15.2
			c-0.2-1.7-0.4-3.5-0.7-5.2c-0.1-0.4-0.4-0.8-0.7-1c-0.6-0.6-1-1.1-0.8-2.1c0.3-1.8,0.6-3.7,0.8-5.6c0.6-4,2.3-7.6,4.1-11.1
			c0.4-0.7,0.9-0.6,1.5-0.6c7,0,14,0,21,0c6.4-0.1,12.8-0.3,19.2-0.3c5,0,9.9,0.2,14.9,0.1c9.4-0.3,18.7-0.7,28-1.1
			c4.2-0.2,8.4-0.3,12.6-0.5c0.7,0,1,0.2,1.3,0.8c2.5,4.4,4.3,9.1,5.2,14.1c0.2,1.4,0.7,2.8,0.9,4.2c0.1,0.6,0,1.3-0.1,2
			c-0.2,1.4-0.6,2.7-0.5,4.1c0.6,8.4,0.4,16.7-1.1,25c-0.9,5-2.6,9.7-4.8,14.2c-2.3,4.9-6.1,8.2-11.2,9.8
			c-5.9,1.9-11.9,3.7-17.8,5.5C362,170.5,361.3,170.7,360.5,170.9z M374,117.6c0.7,0.4,1.5,1,2.4,1.5c0.9,0.5,1.9,1,2.9,1.4
			c0.2,0.1,0.5,0,0.8,0c0-0.3,0-0.6-0.1-0.9c-0.5-1.7-1.9-2.6-3.3-3.5c-4.3-2.6-8.9-4.2-13.8-4.8c-4.1-0.5-7.7,0.3-9.9,4.2
			c0,0.1-0.2,0.1-0.5,0.3c0.5-1.7,0.8-3.1,1.3-4.6c0.4-1.3,1.3-2.2,2.6-2.5c1.9-0.4,3.9-0.5,5.9-0.8c0.4-0.1,0.7-0.2,1.1-0.4
			c-0.3-0.2-0.6-0.7-1-0.7c-2.1,0.1-4.3,0.1-6.4,0.5c-1.6,0.3-2.7,1.5-3.4,3c-1.4,3.4-1.5,6.9-1.2,10.4c0.1,1.6,0.9,3.3,1.7,4.8
			c1.5,3,3.2,5.8,6.1,7.7c0.3,0.2,0.9,0.2,1.3,0.3c-0.1-0.5,0-1-0.2-1.4c-0.8-1.3-1.8-2.5-2.7-3.8c-1.6-2.4-3.1-4.8-4.6-7.3
			c-0.2-0.4-0.2-0.9-0.4-1.4c1.6,0.9,2.9,1.8,4.3,2.3c5.1,1.7,9.9,1,14.5-1.8C372.2,119.5,373,118.5,374,117.6z M307.2,117.2
			c1.9,3.6,5,5.2,8.8,5.5c3.6,0.3,7-0.6,10.3-2.3c-1.9,3.8-3.9,7.5-5.9,11.2c-0.2,0.3-0.2,0.7-0.3,1.1c0.4-0.1,0.9,0,1.3-0.2
			c0.3-0.2,0.7-0.5,0.9-0.8c1.6-2.5,3.4-4.8,4.7-7.5c2.2-4.4,2.2-8.8-0.2-13.4c-2.9-5.6-7.9-5.6-12.4-3.6c-0.4,0.2-0.5,0.7-0.8,1
			c0.4,0,0.9,0.1,1.2-0.1c2.1-1,4.4-1.6,6.5-0.6c3.5,1.7,5.2,4.8,6.1,8.5c-2.9-3.6-4.4-4.4-9.1-4.3c-5.8,0-10.9,2.2-15.6,5.5
			c-1.1,0.8-2.1,1.6-3.1,2.5c-0.4,0.3-0.5,1-0.7,1.5c0.6,0,1.2,0.2,1.7,0.1c0.6-0.2,1.2-0.6,1.8-1
			C304,119.2,305.5,118.2,307.2,117.2z M354,142.6c0.7,2.4,1.4,4.6,2.1,6.8c0.1,0.4,0.5,0.7,0.8,1.1c0.1-0.4,0.3-0.9,0.3-1.3
			c-0.6-4.5-1.8-8.8-3.6-12.9c-1.8-4.1-3.7-8.2-5.6-12.3c-0.1-0.3-0.6-0.5-0.9-0.7c0,0.4-0.2,0.8-0.1,1.1c1.8,4.5,3.7,8.9,5.4,13.4
			c0.3,0.7,0.1,1.9-0.3,2.6c-0.6,0.9-1.6,1.8-2.6,2.1c-2.8,0.9-5.6,1.7-8.4,2.1c-3.4,0.5-6.8-0.1-9.8-1.8c-1.8-1-2.6-3.4-1.9-5.3
			c1.5-4.3,2.9-8.6,4.3-12.9c0.1-0.4-0.1-0.9-0.2-1.4c-0.3,0.3-0.8,0.6-0.9,1c-1.1,2.7-1.9,5.5-3.2,8.1c-2.8,6.2-4.7,12.6-5.6,19.4
			c-0.1,0.5,0.2,1,0.3,1.6c0.2-0.4,0.6-0.9,0.7-1.3c0.9-3.1,1.7-6.1,2.6-9.2c0.1-0.3,0.2-0.5,0.4-0.8c1.1,2.4,2.3,3.5,4.7,4.3
			c3.9,1.4,8,1.5,12,0.6C347.8,146.1,351.3,145.5,354,142.6z M339.9,160.5c0-0.1,0-0.2,0-0.3c1.2-0.1,2.3-0.1,3.5-0.2
			c4.2-0.3,8.5-0.2,12.6-1.4c1.3-0.4,2.2-1,2.6-2.2c0.2-0.4-0.3-1-0.4-1.6c-0.5,0.2-1.1,0.3-1.5,0.5c-0.6,0.3-1.1,0.9-1.7,1.1
			c-1.7,0.4-3.4,0.7-5.1,0.8c-6.5,0.4-13.1,1-19.6,0.1c-2-0.3-4.2-0.2-5.8-1.9c-0.2-0.2-1.2,0-1.5,0.3c-0.6,0.5-0.3,1.7,0.6,2.1
			c1.1,0.6,2.2,1.2,3.4,1.3C331.3,159.8,335.6,160.1,339.9,160.5z M357.4,101.8c0,0.1,0,0.1,0,0.2c-1.9,0.1-3.9,0.3-5.8,0.5
			c-0.3,0-0.8,0.4-0.8,0.6c0,0.3,0.3,0.8,0.5,0.9c0.8,0.3,1.7,0.5,2.5,0.6c4.4,0.3,8.8,0.4,13.1,0.8c4.2,0.3,8.3,1.1,11.9,3.6
			c0.3,0.2,0.6,0.4,0.9,0.4c0.5-0.1,1.1-0.2,1.3-0.5c0.2-0.3,0-1-0.2-1.4c-0.1-0.3-0.5-0.5-0.8-0.7c-2.2-1.5-4.6-2.7-7.2-3.1
			C367.7,102.9,362.5,102.4,357.4,101.8z M301.6,109.4c0.9-0.3,1.8-0.6,2.7-1c1.8-0.7,3.6-1.9,5.5-2.1c5.3-0.6,10.6-0.9,15.9-1.3
			c0.8-0.1,1.6,0,2.4-0.2c0.4-0.1,0.8-0.7,1.2-1c-0.3-0.4-0.6-0.9-1.1-1.1c-0.5-0.2-1.1-0.3-1.6-0.2c-5.7,0.4-11.3,0.6-17,1.3
			c-3.3,0.4-6.4,1.5-8.4,4.5c-0.2,0.2-0.3,0.5-0.3,0.8C301,109.1,301.3,109.2,301.6,109.4z M343,98.8c0-0.2,0-0.5,0-0.7
			c-0.2-2.8-2.4-4.6-5.3-4.3c-2.2,0.2-3.5,2.1-3.1,4.9c0.1,0.4,0.1,0.8,0.2,1.2c0.7,2.5,2.9,4.3,4.9,4
			C341.7,103.5,343,101.5,343,98.8z"/>
		<path class="st4" d="M280.6,66.9c0-3.8,0-7.6,0-11.3c0-3.5,0.2-7,0.3-10.4c0-2,0.8-3.6,2.1-4.9c3.3-3.4,7.2-5.9,11.5-7.7
			c8.1-3.3,16.5-5.2,25.1-6.4c9.6-1.4,19.4-1.5,29.1-0.9c10,0.6,19.8,2.2,29.6,4.1c6.1,1.2,12.1,2.8,17.7,5.4
			c1.2,0.6,2.4,1.4,3.5,2.3c1.5,1.2,1.6,3,1.9,4.8c1.1,6.9,1.1,13.8,1,20.7c0,0.3-0.4,0.8-0.7,0.9c-9.8,3.4-19.7,6.4-29.9,8.1
			c-14.9,2.5-29.9,3.1-45.1,2.2c-15.4-0.9-30.6-3.2-45.6-6.6C281,67,280.7,66.9,280.6,66.9z"/>
		<path class="st5" d="M370.8,868.1c1.5-2.6,2.8-4.9,4.2-7.3c4.4-7.8,7.1-16.1,8.7-24.9c1.5-8.4,2-16.8,1.5-25.3
			c-0.2-4.1-0.8-8.1-1.3-12.1c-0.1-1,0.1-1.5,1.1-1.9c3.2-1.4,6.6-2.6,10-3.1c1.5-0.2,3-0.3,4.5-0.1c1.7,0.2,2.8,1.1,3.2,2.9
			c0.5,2.2,1.2,4.2,2.7,6c2,2.4,4.8,3.2,7.9,3.4c0.6,3,1.4,6,1.9,9.1c1.4,8.5,4.1,16.6,6.6,24.7c2.4,7.9,4.4,15.9,6.7,23.8
			c0.6,2.1-0.6,3.4-2,4.4c-2.7,2-5.6,2.1-8.8,1.2c-4.7-1.2-8.9-3.5-13.2-5.7c-7.7-3.9-15.2-3.5-22.3,1.8c0,0-0.1,0-0.1,0.1
			c-2.5,2.2-5.3,3.4-8.8,2.9C372.7,868,371.9,868.1,370.8,868.1z"/>
		<path class="st3" d="M363.6,457.4c-2.1,0.5-3.9,0.3-5.6-0.2c-3.4-1.1-6.7-2.5-10.1-3.8c-0.6-0.2-1.3-0.5-1.9-0.6
			c-1.2-0.2-2.3-0.5-3.2-1.5c-0.2-0.2-0.7-0.2-1.1-0.2c0.1,0.4,0,0.9,0.2,1.1c2.1,2.3,4.2,4.7,6.4,6.9c1.6,1.7,3.4,3.2,5.1,4.7
			c2.1,2,2.8,4.6,3.2,7.3c0.6,4.8,0.3,9.7-0.6,14.4c-0.5,2.9-1.3,5.7-2.1,8.5c-0.2,0.6-0.6,1.2-1.1,2.1c-0.6-1-1.3-1.7-1.4-2.5
			c-0.6-2.4-1.1-4.9-1.5-7.4c-0.5-4-0.8-7.9-1.3-11.9c-0.2-1.9-1.1-3.5-2.5-4.8c-3.3-3-7.2-5.1-11.1-7.3c-1-0.6-2-1.2-3.1-1.6
			c-0.7-0.3-1.6-0.6-2,0.3c-0.5,0.9,0.2,1.5,0.9,1.9c2.8,1.7,5.7,3.2,8.5,5c1.7,1,3.2,2.3,4.8,3.5c1.5,1.1,1.8,2.7,2,4.4
			c0.5,5.1,1.1,10.2,1.7,15.2c0.4,2.8,1,5.6,1.4,8.4c0.1,0.5-0.2,1.1-0.4,1.6c-0.6-0.1-1.3-0.1-1.6-0.5c-1-1-2-2-2.7-3.1
			c-3.9-6.7-7.9-13.4-11.6-20.3c-0.9-1.6-1.8-3-3.3-4.1c-2.2-1.6-4.3-3.3-6.4-5c-0.3-0.2-0.8-0.2-1.3-0.3c0.1,0.5,0,1.1,0.2,1.4
			c1.1,1.4,2.2,2.9,3.5,3.9c2.8,2.1,4.6,4.8,6.2,7.8c3,5.7,6.4,11.2,9.7,16.8c0.4,0.7,0.8,1.4,1.3,2.2c-0.9,0.7-1.8,0.4-2.6-0.1
			c-1.6-1-3.4-1.9-4.7-3.2c-4.3-4-8.5-8.2-12.8-12.3c-2-2-4-4.1-6-6.1c-0.7-0.7-1.5-1.8-2.5-0.8c-0.9,0.9,0,1.9,0.7,2.6
			c5.9,5.9,11.9,11.9,17.8,17.8c0.2,0.2,0.3,0.3,0.4,0.8c-0.7-0.1-1.5,0-2.2-0.2c-7.9-3.3-15.3-7.6-21.7-13.4
			c-4.4-3.9-6.3-9-7.8-14.3c-0.8-2.8-1-5.7-1.5-8.6c-0.1-0.4,0.2-0.8,0.4-1.1c0.3-0.4,0.8-0.7,1.2-1c3.7-2.6,5.3-6.2,5.5-10.5
			c0.1-2.1,1.1-3.5,2.9-4.3c1.4-0.6,2.7-1.1,4.1-1.6c2.5-0.9,4-2.6,4.6-5.1c0.3-1.4,0.6-2.7,1.1-4c0.1-0.4,0.7-0.8,1.1-1.1
			c2.5-1.4,5.1-1,7.7-0.1c5.2,1.8,9.8,4.8,14.4,7.8c4,2.7,8.1,5.5,12.1,8.2c2.7,1.8,5.3,3.7,7.2,6.4
			C362.9,456.2,363.2,456.7,363.6,457.4z"/>
		<path class="st4" d="M315.1,839.3c0.1,1.2,0.1,2.2,0.1,3.1c0,4.4,0.1,8.7-0.2,13.1c-0.2,2.8-1.1,5.6-1.7,8.4
			c0,0.1-0.1,0.2-0.1,0.3c0.1,2.7-1.7,3.5-3.8,3.9c-3.1,0.5-6.1,0.9-9.2,1.3c-0.5,0.1-1,0-1.4-0.1c-2.4-0.4-2.4-0.5-2.5-2.9
			c-0.2-3.7-3.6-6.5-7.2-5.4c-4.1,1.3-8.1,2.7-12,4.5c-8.4,3.8-17,6.6-26.1,8.1c-5,0.8-10,1.8-15,2.2c-8.7,0.8-17-0.7-24.6-5
			c0,0-0.1,0-0.1-0.1c-3.2-1.9-3.3-3.4-0.2-5.4c2.1-1.4,4.4-2.5,6.7-3.4c5.4-2.1,10.9-4,16.3-6c8.5-3.1,16.5-7,23.7-12.4
			c1.1-0.8,2.3-1.6,3.4-2.4c1.7-1.1,3.3-0.2,4.7,0.5c1.6,0.8,3.1,1.8,4.4,3.1c4.1,3.9,9,5.3,14.4,5.6c6.8,0.4,13.2-1.2,19.3-3.9
			c3.4-1.5,6.9-2.9,9.6-5.5C314,840.6,314.4,840.1,315.1,839.3z"/>
		<path class="st5" d="M311,792c0.2,3.3,0.4,6.3,0.5,9.3c0.2,8.5,1.4,17,2.5,25.4c0.4,2.6,0.5,5.2,0.7,7.9c0,0.4-0.4,0.9-0.6,1.3
			c-1.6,3.6-4.8,5.4-8.2,7c-4.9,2.3-9.9,4.3-15.3,4.9c-4.1,0.4-8.1,0.3-12.1-0.9c-2.1-0.6-3.8-1.7-5.5-3.1c-1.8-1.4-3.6-2.8-5.5-4
			c-0.8-0.6-1.9-0.8-2.8-1.2c10.5-10.2,14.2-23.3,14.7-37.6c2.1-0.1,4.2-0.3,6.2-0.4c6.9-0.3,13.3-2.3,19.4-5.6
			C306.8,793.9,308.8,793,311,792z"/>
		<path class="st4" d="M429.5,868.8c1,5.3,1.1,10.5,0.9,15.8c0,0.4-0.1,0.7-0.2,1c-0.7,2.5-2.6,3.7-4.8,4.4c-7.3,2.2-14.6,4-22.2,5
			c-5.5,0.7-11,1.5-16.5,1.5c-6.9,0-13.9,0-20.6-2.5c-1.9-0.7-3.9-1.5-5.4-2.8c-3.1-2.7-2.9-3-0.8-6.1c3.1-4.4,5.9-8.9,8.9-13.4
			c0.2-0.4,0.7-0.7,1.1-0.8c2.1-0.2,4.3-0.4,6.4-0.4c1.5,0,2.9-0.4,4.2-1.2c1.8-1.2,3.4-2.5,5.2-3.6c5.7-3.4,11.5-3.2,17.4-0.4
			c3.7,1.8,7.4,3.6,11.2,5.2c1.7,0.7,3.5,1.1,5.3,1.4c3.3,0.5,6.3-0.5,8.9-2.5C429,869.3,429.2,869.1,429.5,868.8z"/>
		<path class="st4" d="M317.9,89.9c-8.2,0-16.5,0-24.7,0c-9.7,0-19.3-0.6-29-1.8c-2.7-0.3-5.3-1.3-7.8-2.1c-0.8-0.3-1.9-1.3-1.9-1.9
			c0.1-0.8,1-1.8,1.8-2.1c3.3-1.2,6.7-2.3,10.1-3.2c3.1-0.8,6.4-1.1,9.5-2.1c2.3-0.7,4.2-0.4,6.3,0.6c6.4,2.9,13.1,4.4,20,5.6
			c13.1,2.1,26.3,2.2,39.6,1.5c12-0.7,24-1.9,35.9-3.9c8.9-1.5,17.9-3.2,26.5-6.1c7.3-2.5,13.7-0.7,19.8,3.4
			c2.8,1.9,2.7,2.7-0.3,4.1c-5.1,2.4-10.5,3.5-16,4.4c-9.1,1.4-18.4,1.8-27.6,2.2c-8.8,0.3-17.5,0.8-26.2,1.1
			c-3.8,0.1-7.5,0.1-11.3,0.1c-8.2,0-16.4,0-24.6,0C317.9,89.7,317.9,89.8,317.9,89.9z"/>
		<path class="st0" d="M399,205c-3.1,4.5-6.3,8.8-9.1,13.4c-3.1,5-5.8,10.3-8.7,15.5c-0.2,0.3-0.6,0.7-0.9,0.7
			c-6.9,1.4-13.3,4.1-19.6,6.9c-3.2,1.4-5.6,3.8-7.5,6.9c-0.8-1.5-1.6-2.9-2.3-4.4c-2.7-5.1-2.7-5.1-1.6-10.7
			c0.8-4.3,1.6-8.6,2.5-12.9c0.4-1.8,1.4-3.2,2.9-4.4c7-5.3,14.5-9.8,22.1-14.1c1.6-0.9,3.1-1.8,4.5-2.9c0.5-0.3,0.8-1.1,0.8-1.7
			c0-0.3-0.9-0.6-1.4-0.9c-1-0.7-2-1.4-2.9-2.1c0.1-0.2,0.2-0.3,0.3-0.5C385.1,197.7,392.1,201.4,399,205z"/>
		<path class="st0" d="M352.2,253.3c-1.1-1.2-2.1-2.4-3.4-3.5c-1.8-1.4-3.6-2.9-5.5-3.9c-8.2-4.3-16.8-7.3-25.9-8.9
			c-1.8-0.3-3.7-0.3-5.6-0.4c-0.8,0-1.1-0.2-1.4-0.9c-2.9-6.1-5.8-12.1-8.7-18.1c-1.5-3.1-3.6-5.9-6.2-8.2c-1.2-1-2.1-2.3-3.2-3.4
			c6.5-2.9,13-5.7,19.2-8.4c2.1,1.7,4,3.2,5.9,4.8c5.7,4.6,11.3,9.2,17,13.9c0.6,0.5,1,1.1,1.4,1.8c5.4,11.2,10.8,22.4,16.2,33.7
			c0.2,0.5,0.4,0.9,0.6,1.4C352.4,253.1,352.3,253.2,352.2,253.3z"/>
		<path class="st6" d="M332.9,421.6c-0.8,1.2-1.5,2.4-2.4,3.4c-2.4,2.8-5.5,4.6-9,5.7c-1.2,0.4-2,1.3-2.5,2.2
			c-0.9,1.6-1.5,3.3-2.1,5.1c-0.6,1.8-1.6,3.1-3.4,3.7c-1.4,0.4-2.7,1-4,1.5c-2.8,1.2-4.3,3.4-4.4,6.5c-0.1,3.5-1.5,6.4-4.4,8.5
			c-0.6,0.4-1.1,0.9-1.7,1.4c-0.9,0.8-1.3,1.9-1,3.1c0.8,4.2,0.1,5.8-3.5,8.1c-0.5,0.3-0.9,0.6-1.4,0.9c-1.8,1-2.7,2.5-2.9,4.5
			c-0.2,2.3-1.1,4.2-3.4,5.1c-1.2,0.5-1.6,0.4-1.8-0.9c-0.5-2.6-0.8-5.2-1.2-7.8c-0.9-6.6-0.5-13.2-0.7-19.9c0-1.1,0.3-1.8,1.1-2.6
			c2.2-2.2,4.3-4.5,6.5-6.7c5.1-5.2,10.2-10.5,15.4-15.6c1.7-1.7,3.4-3.3,5.4-4.5c1.2-0.8,2.9-1,4.3-1.1c5.5-0.4,11.1-0.6,16.6-0.8
			C332.4,421.3,332.5,421.4,332.9,421.6z"/>
		<path class="st6" d="M381.2,472.4c1.4-4.6,0.9-6.3-2.6-8.4c0.1-1.2,0.4-2.4,0.4-3.7c0.1-2.9-1.2-5.1-3.9-6.2
			c-1-0.4-2.1-0.8-3.2-1.1c-0.7-0.2-1.1-0.6-0.9-1.4c0.5-2,1-4,1.4-6.1c0.2-1.2,0.5-2.4,0.5-3.5c0-1.7-0.9-2.9-2.4-3.6
			c-1.5-0.8-3.1-1.5-4.7-2.1c-1-0.4-1.6-1.2-1.6-2.3c0-1.5,0-3,0.3-4.4c0.6-3.5-0.3-6.3-3.4-8.3c-0.8-0.5-1.5-1.2-2.1-1.9
			c-0.3-0.3-0.2-0.9-0.3-1.3c0.4,0,0.8-0.2,1.2-0.1c5.2,1.6,10.4,2.4,15.8,2c0.3,0,0.7,0.1,1,0.3c7,6,12.4,13.1,16.2,21.4
			c1.9,4.2,2.7,8.7,3.3,13.2c0.1,0.6,0,1.2-0.3,1.7c-2.2,4.3-4.7,8.4-8.1,12C385.7,470.8,383.3,472.2,381.2,472.4z"/>
		<path class="st3" d="M350.6,457.6c1.9,0.6,3.7,1.4,5.5,1.8c2.1,0.5,4.3,0.9,6.5,0.8c3.2,0,4.4-2.5,2.6-5.2c-1.7-2.7-4-4.8-6.6-6.5
			c-6.3-4.2-12.6-8.4-19-12.6c-0.1-0.1-0.2-0.1-0.3-0.2c0-0.1,0-0.2,0.1-0.2c5.3-2.9,10.6-5.8,16-8.6c1.8-1,3.8-1.1,5.8-0.1
			c0.6,0.3,0.8,0.6,0.7,1.3c-0.2,1.7-0.4,3.3-0.4,5c-0.1,3.6,0.7,4.6,3.9,6c1.1,0.5,2.2,0.9,3.3,1.5c1.4,0.7,1.7,1.3,1.4,2.8
			c-0.5,2.4-1.2,4.8-1.7,7.2c-0.6,3.1,0,4.1,3,5.1c0.8,0.3,1.7,0.6,2.5,0.9c1.8,0.8,2.5,2,2.4,4c-0.1,0.8-0.2,1.6-0.3,2.4
			c-0.4,2.4-0.3,2.7,1.7,4c-1.7,4.2-4,8.2-7.8,10.8c-3.3,2.3-7.1,3.9-10.9,5.9c0.1-1.5,0.2-2.7,0.3-3.9c0.4-3.9,0.2-7.8-0.8-11.7
			c-0.6-2.4-1.8-4.3-3.5-6C353.6,460.5,352.2,459.1,350.6,457.6z"/>
		<path class="st1" d="M280.5,68.5c20,6.1,40.5,8.2,61.2,8.2c20.8-0.1,41.1-3.4,60.7-10.9c0.2,2.1,0.4,4,0.4,5.8
			c0,0.3-0.5,0.7-0.9,0.8c-5.3,1.4-10.6,2.9-16,4c-11.4,2.4-23,3.8-34.6,4.8c-11.4,1-22.8,1.4-34.1,0.7c-12.1-0.7-24-2.7-35.6-6.7
			c-1.2-0.4-1.6-0.9-1.4-2.1c0.2-1.4,0.1-2.9,0.2-4.3C280.3,68.7,280.4,68.7,280.5,68.5z"/>
		<path class="st7" d="M372,180.7c0.1,2.1,0.1,3.9,0.3,5.8c0.3,1.8,0.8,3.7,1.2,5.6c-0.1,0-0.2,0.1-0.4,0.2
			c-2.4,0.6-3.7,2.2-4.1,4.6c-0.3,1.6-0.7,2-2.3,2c-1.9,0-3.6-0.8-5.1-1.8c-0.8-0.5-1.7-1.1-2.5-1.6c-1.5-0.8-2.9-0.7-4,0.6
			c-1,1.1-1.8,2.4-2.4,3.7c-1.8,3.6-5.2,4.2-8,1.2c-0.8-0.8-1.5-1.7-2.3-2.6c-1.8-2.1-3.9-2.6-6.3-1.4c-1.9,0.9-3.6,2.3-5.4,3.5
			c-1.1,0.7-2.1,1.6-3.5,1.6c-1.7,0-2.8-0.8-3.5-2.3c-0.2-0.5-0.4-1-0.6-1.6c-0.9-2.4-2.1-3.3-4.7-3.1c-0.4,0-0.7,0.1-1.3,0.1
			c0-4.4,0-8.7,0-13c-0.1,0,0.1,0,0.2,0c6.6,3.6,13.7,5.2,21.1,5.6c8.2,0.4,16.3-0.1,24.2-2.3C366,184.5,369.1,183,372,180.7z"/>
		<path class="st6" d="M378.1,198.3c-1.8,1.1-3.7,2.2-5.6,3.3c-6.8,3.8-13.4,8-19.6,12.7c-1.8,1.3-3,3-3.5,5.2
			c-1.1,5.1-2,10.2-3,15.3c-0.1-0.1-0.3-0.5-0.4-0.8c-2.6-5.7-5.3-11.4-8-17c-0.5-1-1.2-2-2.1-2.7c-5.9-4.8-11.8-9.6-17.7-14.4
			c-1.5-1.2-1.6-1.2-1.1-3.1c2.5-0.7,3.7-0.1,4.5,2.3c0.6,1.6,1.1,3.2,2.8,4c2,1,3.9,1,5.8-0.2c1.3-0.9,2.6-1.9,3.9-2.8
			c0.5-0.3,1-0.7,1.5-1c2.7-1.5,4-1.2,6,1.2c0.8,1,1.6,1.9,2.5,2.8c3.3,3,8.1,2.1,10.1-1.9c0.6-1.2,1.3-2.4,2.1-3.5
			c0.6-0.8,1.4-0.9,2.2-0.3c1.3,0.9,2.5,1.9,3.9,2.5c1.5,0.6,3.1,1.1,4.7,1.1c2.6,0.1,3.8-1.1,4.1-3.7c0.1-1.2,0.6-2.1,1.6-2.6
			c1-0.5,1.8-0.4,2.6,0.5C376.3,196.1,377.1,197.1,378.1,198.3z"/>
		<path class="st5" d="M293.9,152.7c2.3,5.6,6.2,9.4,10.5,12.8c2.2,1.7,5.2,2.6,7.9,3.7c0.8,0.4,1.3,0.7,1.3,1.7
			c0.3,6,0.6,12.1,0.9,18.1c0,0.2,0,0.3-0.1,0.6c-4.2-1.2-8.3-2.3-11.8-4.8c-2.7-1.9-5.3-4-7.8-6.2c-5.5-5-7.2-13.8-4.2-20.5
			C291.4,156.2,292.7,154.6,293.9,152.7z"/>
		<path class="st5" d="M396.1,151.3c1.6,2.3,2.1,4.5,2.6,6.8c0.9,4.4,1,8.7,0,13.1c-1.5,6.6-5.4,11.1-11.7,13.3
			c-3.7,1.3-7.5,2.1-11.3,3.1c-0.1,0-0.3,0-0.6,0c-1.1-6,0.2-12-0.3-18.2C385,167.1,393.1,162.3,396.1,151.3z"/>
		<path class="st8" d="M405.1,70.7c0-2-0.4-3.9,0.1-5.7c1.3-5.3,2.8-10.6,4.5-15.9c1.9-5.7,6.2-8.7,11.9-10c0.6-0.1,1.3-0.1,1.9,0
			c1.7,0.4,2.3,1.4,1.8,3.1c-1.4,4.2-3.9,7.7-7.4,10.6c-0.1,0.1-0.3,0.2-0.4,0.3c-0.6,0.5-1.1,1-0.7,1.8c0.4,0.8,1.1,0.9,1.8,0.6
			c2-0.6,4-0.6,6,0c1,0.3,2,0.8,2.9,1.4c1.4,1,1.5,2.1,0.2,3.3c-2.5,2.2-5.5,2.7-8.8,2.2c-0.2,0-0.5-0.1-0.7-0.2
			c-0.8-0.1-1.5,0.1-1.7,1c-0.2,0.9,0.3,1.4,1.1,1.6c1.7,0.5,2.9,1.5,3.8,2.9c0.3,0.4,0.6,1,0.7,1.5c0.4,1.3-0.6,2.7-2,2.6
			c-1.2,0-2.4-0.3-3.5-0.4c-2.9-0.3-5.7-0.6-8.6-0.8C407.3,70.6,406.3,70.7,405.1,70.7z"/>
		<path class="st3" d="M372.7,170.3c-0.1,1.9-0.1,3.8-0.5,5.7c-0.2,0.9-0.9,1.7-1.7,2.4c-2.4,2.3-5.4,3.6-8.5,4.5
			c-8.2,2.3-16.6,2.6-25.1,2.1c-6.6-0.4-12.8-2.4-18.9-4.4c-0.9-0.3-1.2-0.8-1.3-1.8c-0.2-2.7-0.6-5.4-0.9-8.2c1.6,0.5,3.3,1,5,1.5
			c0.2,0.1,0.4,0.2,0.6,0.4c2.9,3.6,6.8,5.6,11.3,6.4c4.4,0.8,8.8,1.8,13.3,1.5c3.7-0.3,7.4-0.8,10.6-2.9c1.5-1,2.8-2.5,4.1-3.8
			c0.2-0.2,0.3-0.4,0.5-0.5C364.9,172.2,368.8,171.3,372.7,170.3z"/>
		<path class="st3" d="M289.1,124c0.6,4.7,1.3,9.3,1.9,14.1c-3.3-1.7-6.3-3.6-8-6.9c-2.9-5.7-4.1-11.7-3-18.1
			c0.2-1.2,0.7-2.3,1.3-3.3c0.5-0.9,1.3-1.1,2.1-0.3c1.6,1.6,3.3,3.2,4.8,4.8c0.4,0.5,0.5,1.3,0.6,2c0.1,0.4,0,0.8,0,1.2
			c0.2,2.1,0,3.7-2.1,5.2c-2.7,1.9-2.8,5.5-0.8,8.2c0.2,0.3,0.6,0.4,0.9,0.6c0.1-0.3,0.1-0.7,0.2-1c0.5-2-0.5-4.4,1.5-6.1
			C288.8,124.2,288.9,124.2,289.1,124z"/>
		<path class="st3" d="M400.4,116.5c-0.5-3.6-0.1-6.9,2.5-9.6c1.6-1.7,3.2-1.5,4.5,0.3c1,1.4,1.5,2.9,1.5,4.6
			c0.1,4.2-0.8,8.2-2.9,12c-1.4,2.5-2.5,5.1-3.8,7.6c-0.5,0.9-1.1,1.8-1.7,2.9c0-5.5,0-10.6,0-16c1.2,0.7,1.6,1.7,1.8,2.7
			c0.1,0.5,0,1,0.2,1.4c0.2,0.5,0.6,0.8,0.9,1.3c0.4-0.4,1.1-0.6,1.3-1.1c1.1-2.2-0.7-5.6-3.2-6
			C401.2,116.5,400.9,116.5,400.4,116.5z"/>
		<path class="st5" d="M404.7,103.1c-2.3,0.3-3.9,1.9-5.3,4.1c-0.5-6.2-2.6-11.6-5.8-16.7c3.9-0.4,7.8-0.8,11.7-1.2
			C405,93.9,404.9,98.4,404.7,103.1z"/>
		<path class="st5" d="M282.4,106.3c-0.3-4.8-0.6-9.3-0.9-13.9c3.6,0,7.3,0,11.4,0c-3.6,5.3-5,10.9-5.4,17.1
			C285.8,108.1,284.5,106.4,282.4,106.3z"/>
		<path d="M395.3,575.1c0.5,10.5,1,21.1,1.6,31.6c0.4,7.5,0.9,15.1,1.5,22.6c0.6,7.9,1.4,15.8,2.1,23.8c0.7,7.4,1.3,14.9,2,22.3
			c0.7,7.5,1.5,15,2.3,22.5c0.7,7.1,1.4,14.2,2.3,21.2c1,8.5,1.9,16.9,3,25.3c1.1,8.3,2.3,16.6,3.7,24.9c0.8,4.8,2,9.5,3,14.2
			c0,0.2,0.1,0.3,0.1,0.5c-0.1,0.4-0.2,0.7-0.3,1c-0.2-0.3-0.6-0.5-0.7-0.8c-0.5-1.9-1-3.8-1.4-5.7c-2.2-10.2-3.8-20.6-5.1-31
			c-1.5-11.6-2.9-23.2-4.2-34.9c-1.1-9.2-2-18.5-3-27.8c-1-9.9-1.9-19.7-2.8-29.6c-0.7-8.1-1.4-16.2-2-24.4
			c-0.8-11.9-1.7-23.8-2.3-35.8c-0.5-10.8-0.6-21.7-0.8-32.5c0-2,0.1-4.1,0.2-6.1c0-0.3,0.3-0.7,0.5-1c0.2,0.4,0.5,0.7,0.5,1.1
			c0,6.1,0,12.2,0,18.4C395.5,575.1,395.4,575.1,395.3,575.1z"/>
		<path d="M428.6,790.4c-0.1,0.1-0.3,0.4-0.5,0.6c-0.2-0.2-0.6-0.5-0.7-0.8c-1.1-4-2.1-8-3.1-12.1c-3.7-15.4-6.6-30.9-9.2-46.5
			c-1.3-8.1-2.5-16.2-3.7-24.3c-0.1-0.6,0.2-1.3,0.2-2c1.1,0.2,0.7,1.2,0.8,1.8c3.4,24,7.4,47.8,13,71.4c0.9,3.7,1.9,7.3,2.8,11
			C428.4,789.7,428.5,789.9,428.6,790.4z"/>
		<path d="M282.5,215.7c-0.4,0.5-0.7,0.8-1,1.2c-6.3,6.9-12.4,13.9-17.9,21.4c-0.3,0.4-0.5,0.9-0.9,1.3c-0.1,0.2-0.6,0.3-0.7,0.2
			c-0.2-0.1-0.3-0.5-0.2-0.7c0.2-0.4,0.5-0.8,0.7-1.2c4.9-6.1,9.9-12.1,14.8-18.2c0.7-0.8,1.1-1.8,1.8-2.6c0.7-0.7,1.5-1.3,2.3-1.8
			C281.7,215.1,282.1,215.5,282.5,215.7z"/>
		<path d="M374,117.6c-1,1-1.8,1.9-2.7,2.5c-4.5,2.8-9.4,3.5-14.5,1.8c-1.4-0.5-2.7-1.4-4.3-2.3c0.1,0.5,0.1,1.1,0.4,1.4
			c1.5,2.5,3,4.9,4.6,7.3c0.8,1.3,1.8,2.5,2.7,3.8c0.2,0.4,0.2,0.9,0.2,1.4c-0.4-0.1-1-0.1-1.3-0.3c-2.8-1.9-4.6-4.8-6.1-7.7
			c-0.8-1.5-1.6-3.2-1.7-4.8c-0.2-3.5-0.2-7.1,1.2-10.4c0.6-1.5,1.8-2.7,3.4-3c2.1-0.4,4.3-0.4,6.4-0.5c0.3,0,0.6,0.4,1,0.7
			c-0.4,0.1-0.7,0.3-1.1,0.4c-2,0.3-3.9,0.4-5.9,0.8c-1.3,0.3-2.2,1.2-2.6,2.5c-0.5,1.4-0.8,2.9-1.3,4.6c0.3-0.2,0.5-0.2,0.5-0.3
			c2.3-3.9,5.8-4.7,9.9-4.2c4.9,0.7,9.5,2.3,13.8,4.8c1.4,0.8,2.8,1.7,3.3,3.5c0.1,0.3,0,0.6,0.1,0.9c-0.3,0-0.6,0.1-0.8,0
			c-1-0.4-1.9-0.9-2.9-1.4C375.5,118.6,374.7,118,374,117.6z M358.2,113.9c-2.3,0.6-3,2.4-4.1,4c5.6,3.5,15.6,2.6,17.3-1.6
			c-1.3-0.5-2.7-1-4.1-1.4c-0.4,4.3-3.5,5.3-6,4.8C358.6,119.1,357.4,116.9,358.2,113.9z M364.9,114.3c-1.2-0.2-2.4-0.4-3.6-0.5
			c-1.4-0.1-1.9,0.7-1.3,2c0.5,1.1,1.8,1.7,3,1.5C364.2,116.9,364.9,116,364.9,114.3z"/>
		<path d="M307.2,117.2c-1.7,1.1-3.3,2.1-4.9,3c-0.6,0.4-1.1,0.8-1.8,1c-0.5,0.2-1.2,0-1.7-0.1c0.2-0.5,0.3-1.1,0.7-1.5
			c1-0.9,2-1.7,3.1-2.5c4.7-3.3,9.8-5.4,15.6-5.5c4.7,0,6.3,0.7,9.1,4.3c-0.9-3.6-2.6-6.8-6.1-8.5c-2.1-1-4.4-0.4-6.5,0.6
			c-0.3,0.2-0.8,0.1-1.2,0.1c0.3-0.3,0.5-0.9,0.8-1c4.5-2,9.5-2,12.4,3.6c2.4,4.6,2.4,9,0.2,13.4c-1.3,2.6-3.1,5-4.7,7.5
			c-0.2,0.3-0.5,0.6-0.9,0.8c-0.4,0.2-0.8,0.1-1.3,0.2c0.1-0.4,0.2-0.7,0.3-1.1c2-3.7,4-7.4,5.9-11.2c-3.3,1.6-6.7,2.6-10.3,2.3
			C312.2,122.3,309.2,120.8,307.2,117.2z M308.6,116.3c1.9,3.2,7.6,4.6,11.2,3.6c-3.3-0.5-4.3-2.6-4.3-5.7
			C313,115,310.8,115.6,308.6,116.3z M322.1,114.8c-0.1-0.1-0.2-0.3-0.3-0.4c-1.4-0.1-2.8-0.2-4.2-0.2c-0.2,0-0.6,0.5-0.6,0.5
			c0.5,0.8,0.8,1.9,1.6,2.4c0.5,0.4,1.7,0.2,2.3-0.2C321.5,116.5,321.8,115.6,322.1,114.8z M321.7,119.7c1.3-0.5,2.7-1.1,4.2-1.7
			c-0.7-0.9-1.2-1.5-1.9-2.5C324,117.7,323,118.7,321.7,119.7z"/>
		<path d="M354,142.6c-2.7,2.9-6.2,3.6-9.7,4.4c-4.1,0.9-8.1,0.8-12-0.6c-2.4-0.9-3.6-2-4.7-4.3c-0.2,0.3-0.3,0.6-0.4,0.8
			c-0.9,3.1-1.7,6.1-2.6,9.2c-0.1,0.5-0.5,0.9-0.7,1.3c-0.1-0.5-0.4-1.1-0.3-1.6c0.9-6.7,2.8-13.2,5.6-19.4c1.2-2.6,2.1-5.4,3.2-8.1
			c0.2-0.4,0.6-0.7,0.9-1c0.1,0.5,0.4,1,0.2,1.4c-1.4,4.3-2.8,8.6-4.3,12.9c-0.7,1.9,0.2,4.2,1.9,5.3c3.1,1.8,6.4,2.3,9.8,1.8
			c2.9-0.4,5.7-1.2,8.4-2.1c1-0.3,2-1.2,2.6-2.1c0.4-0.6,0.6-1.8,0.3-2.6c-1.7-4.5-3.6-8.9-5.4-13.4c-0.1-0.3,0-0.7,0.1-1.1
			c0.3,0.2,0.8,0.4,0.9,0.7c1.9,4.1,3.8,8.2,5.6,12.3c1.8,4.1,3.1,8.4,3.6,12.9c0.1,0.4-0.2,0.8-0.3,1.3c-0.3-0.4-0.7-0.7-0.8-1.1
			C355.3,147.2,354.7,144.9,354,142.6z"/>
		<path d="M339.9,160.5c-4.3-0.4-8.7-0.8-13-1.3c-1.2-0.1-2.3-0.7-3.4-1.3c-0.9-0.5-1.1-1.6-0.6-2.1c0.4-0.3,1.3-0.5,1.5-0.3
			c1.7,1.6,3.8,1.6,5.8,1.9c6.5,0.8,13.1,0.2,19.6-0.1c1.7-0.1,3.4-0.4,5.1-0.8c0.6-0.1,1.1-0.8,1.7-1.1c0.5-0.2,1-0.4,1.5-0.5
			c0.2,0.5,0.6,1.2,0.4,1.6c-0.4,1.2-1.4,1.9-2.6,2.2c-4.1,1.2-8.4,1.1-12.6,1.4c-1.2,0.1-2.3,0.1-3.5,0.2
			C340,160.3,339.9,160.4,339.9,160.5z"/>
		<path d="M357.4,101.8c5.1,0.6,10.3,1.1,15.4,1.8c2.6,0.4,5,1.6,7.2,3.1c0.3,0.2,0.7,0.4,0.8,0.7c0.2,0.4,0.4,1.1,0.2,1.4
			c-0.2,0.3-0.9,0.4-1.3,0.5c-0.3,0-0.6-0.2-0.9-0.4c-3.6-2.5-7.6-3.3-11.9-3.6c-4.4-0.3-8.8-0.5-13.1-0.8c-0.9-0.1-1.7-0.3-2.5-0.6
			c-0.3-0.1-0.6-0.6-0.5-0.9c0-0.3,0.5-0.6,0.8-0.6c1.9-0.2,3.9-0.3,5.8-0.5C357.4,101.9,357.4,101.8,357.4,101.8z"/>
		<path d="M301.6,109.4c-0.3-0.2-0.7-0.3-0.7-0.4c0-0.3,0.1-0.6,0.3-0.8c1.9-3,5.1-4.1,8.4-4.5c5.6-0.6,11.3-0.9,17-1.3
			c0.5,0,1.2,0,1.6,0.2c0.4,0.2,0.7,0.7,1.1,1.1c-0.4,0.4-0.7,0.9-1.2,1c-0.8,0.2-1.6,0.2-2.4,0.2c-5.3,0.4-10.6,0.7-15.9,1.3
			c-1.9,0.2-3.7,1.4-5.5,2.1C303.4,108.8,302.5,109.1,301.6,109.4z"/>
		<path d="M343,98.8c0,2.7-1.3,4.7-3.3,5c-2,0.3-4.2-1.5-4.9-4c-0.1-0.4-0.2-0.8-0.2-1.2c-0.4-2.8,0.9-4.7,3.1-4.9
			c2.9-0.3,5.1,1.5,5.3,4.3C343,98.3,343,98.5,343,98.8z M341.1,98.9c0-0.5,0-0.9-0.1-1.3c-0.2-1.2-1.1-1.9-2.5-2
			c-1.3-0.1-1.9,0.3-2.3,1.6c-0.6,1.8-0.3,2.7,1.4,4.1c1.4,1.1,2.7,0.7,3.2-1C341,99.8,341,99.3,341.1,98.9z"/>
		<path class="st9" d="M358.2,113.9c-0.8,3,0.4,5.2,3.1,5.7c2.4,0.5,5.6-0.4,6-4.8c1.4,0.5,2.7,1,4.1,1.4c-1.6,4.1-11.7,5-17.3,1.6
			C355.2,116.3,355.9,114.5,358.2,113.9z"/>
		<path class="st10" d="M364.9,114.3c0,1.7-0.7,2.7-2,2.9c-1.2,0.2-2.5-0.4-3-1.5c-0.6-1.3,0-2.2,1.3-2
			C362.5,113.8,363.7,114.1,364.9,114.3z"/>
		<path class="st9" d="M308.6,116.3c2.3-0.7,4.5-1.4,6.8-2.1c0.1,3.1,1.1,5.2,4.3,5.7C316.2,120.9,310.4,119.6,308.6,116.3z"/>
		<path class="st10" d="M322.1,114.8c-0.4,0.7-0.6,1.7-1.2,2.1c-0.6,0.4-1.8,0.5-2.3,0.2c-0.7-0.5-1.1-1.5-1.6-2.4
			c0-0.1,0.4-0.5,0.6-0.5c1.4,0,2.8,0.1,4.2,0.2C322,114.5,322.1,114.7,322.1,114.8z"/>
		<path class="st9" d="M321.7,119.7c1.3-0.9,2.3-2,2.3-4.1c0.7,0.9,1.3,1.6,1.9,2.5C324.4,118.6,323.1,119.2,321.7,119.7z"/>
		<path class="st11" d="M341.1,98.9c0,0.4-0.1,0.9-0.2,1.3c-0.5,1.8-1.8,2.2-3.2,1c-1.8-1.4-2.1-2.2-1.4-4.1c0.4-1.3,1-1.7,2.3-1.6
			c1.4,0.1,2.3,0.8,2.5,2C341.1,98,341.1,98.4,341.1,98.9z"/>
	</g>
</g>
</svg>
