<?xml version="1.0" encoding="utf-8"?>
<!-- Generator: Adobe Illustrator 22.1.0, SVG Export Plug-In . SVG Version: 6.00 Build 0)  -->
<svg version="1.1" id="A1" xmlns="http://www.w3.org/2000/svg" xmlns:xlink="http://www.w3.org/1999/xlink" x="0px" y="0px"
	 viewBox="0 0 690 500" style="enable-background:new 0 0 690 500;" xml:space="preserve">
<style type="text/css">
	.st0{clip-path:url(#SVGID_2_);fill:#BFDCEE;}
	.st1{clip-path:url(#SVGID_2_);}
	.st2{clip-path:url(#SVGID_4_);fill:#FFFFFF;}
	.st3{clip-path:url(#SVGID_4_);fill:#91C640;}
	.st4{clip-path:url(#SVGID_4_);fill:#3A454B;}
	.st5{clip-path:url(#SVGID_4_);fill:none;stroke:#000000;stroke-width:1.7586;stroke-miterlimit:10;}
	.st6{clip-path:url(#SVGID_4_);fill:#66C7BC;}
	.st7{clip-path:url(#SVGID_4_);fill:#E21B17;}
</style>
<g>
	<g>
		<defs>
			<rect id="SVGID_1_" x="0" y="2" width="690" height="498"/>
		</defs>
		<clipPath id="SVGID_2_">
			<use xlink:href="#SVGID_1_"  style="overflow:visible;"/>
		</clipPath>
		<rect x="0" y="2" class="st0" width="690" height="498"/>
		<g class="st1">
			<defs>
				<rect id="SVGID_3_" x="0" y="2" width="690" height="498"/>
			</defs>
			<clipPath id="SVGID_4_">
				<use xlink:href="#SVGID_3_"  style="overflow:visible;"/>
			</clipPath>
			<path class="st2" d="M479.2,165.6c3.1-6.4,8.2-13.9,17.5-14.4c6-0.3,11.6,2.7,14.4,6.5c2.9,3.8,3.5,8.3,3.6,12.6
				c12.7-2.1,26.9,1.6,35,9c1.7,1.6,3,4.1,0.8,5.4c-8.6,4.8-34.9,2.1-45.7,3c-12.2,1-23.8,4-35.9,5.4c-30.4,3.3-32.7-22.3-12.1-17.8
				C455.5,166.4,468.9,158.5,479.2,165.6"/>
			<path class="st2" d="M559.8,114.6c-10-0.7-21.3-2.1-26.6-8.2c-6.4-7.5,1.4-18.2,13-20.9c11.6-2.7,24.4,0.9,33.7,6.6
				c-6.5-9.1-9.3-20.4-2.5-29.4c6.9-9,26-12.8,35.7-5.4c-0.1-9.9-0.2-20.3,5.7-29.3c5.9-9,19.6-16.2,33-13.9
				c7.2,1.2,13.2,4.9,18.1,8.8c19.3,15.4,28.1,37.3,23,57.8c-1.2-6.8,11.1-10.1,20.5-10.9c14.4-1.2,30-2.3,42.5,2.9
				c12.5,5.2,17.4,17.9,7.9,26.1c22.2,1.7,35.8,18.7,11.1,27.7c-14.4,5.2-30.6-2.8-44.4-5.8C678.6,109.5,614.3,118.3,559.8,114.6"/>
			<path class="st2" d="M190.2,117.5c2.4,0,5.1-0.1,6.5-1.5c1.9-1.7,0.4-4.2-1.4-6c-9.2-8.4-28.7-9.4-39.4-2.1
				c0.6-21.8-28.3-39.5-58.2-42.7c-15-1.6-33.9,1.4-38.2,11.9C56.2,63.7,36.9,53.3,18,54.8c-18.9,1.6-34.3,14.9-33.1,28.6
				c-10.4-7.4-28.6-4.7-39.9,2c-13.7,8.2-21.4,27.3,0.3,32.8c17.1,4.3,49.3-0.6,67.4-0.6C71.9,117.5,131,117.5,190.2,117.5"/>
			<path class="st2" d="M423.6,49.8c-35-0.5-69.9-1-104.9-1.5c-6.5-0.1-14.9-1.2-16.1-5.8c-1.1-3.8,4.3-7.3,9.7-7.7
				s10.5,1.5,15.4,3.3c-3.5-5,2.3-11.3,9.7-13c7.4-1.8,15.4-0.3,22.9,1.1C353,17,345.6,5.7,352.6-3.5c3.2-4.1,8.7-7,14.4-9.3
				c10.5-4.3,22-7.3,33.8-8.9c5.3-0.7,11.1-1,15.6,1.1c4.2,2,6.3,5.6,7.8,9.1c5.3,12.8,5.7,26.6,1.1,39.6
				c10.1-7.8,31.6-3.5,34.7,6.9c8.2-3.7,16.5-7.5,25.9-9.1c9.4-1.6,20.2-0.6,27.2,4.2c7,4.8,8.1,14,0.8,18.6
				c-5.2,3.3-12.8,3.4-19.7,3.4c-32.4-0.2-64.7-1.1-97-2.7"/>
			<path class="st2" d="M188.7,43.3c3.1-6.4,8.2-13.9,17.5-14.4c6-0.3,11.6,2.7,14.4,6.5c2.9,3.8,3.5,8.3,3.6,12.6
				c12.7-2.1,26.9,1.6,35,9c1.7,1.6,3,4.1,0.8,5.4c-8.6,4.8-34.9,2.1-45.7,3c-12.2,1-23.8,4-35.9,5.4c-30.4,3.3-32.7-22.3-12.1-17.8
				C165,44.1,178.4,36.2,188.7,43.3"/>
			<rect x="-33.1" y="328.9" class="st3" width="747.6" height="226.6"/>
			<rect x="-42.2" y="355.7" class="st4" width="774.7" height="47"/>
			<rect x="-42.2" y="355.7" class="st5" width="774.7" height="47"/>
			<rect x="27.8" y="181.8" class="st2" width="634.5" height="182.8"/>
			<rect x="27.8" y="181.8" class="st5" width="634.5" height="182.8"/>
			<rect x="27.8" y="271.7" class="st6" width="634.6" height="84"/>
			<rect x="27.8" y="271.7" class="st5" width="634.6" height="84"/>
			<rect x="219.7" y="114.5" class="st6" width="250.9" height="259.9"/>
			<rect x="219.7" y="114.5" class="st5" width="250.9" height="259.9"/>
			<rect x="239.6" y="281.5" class="st2" width="13.3" height="102.9"/>
			<rect x="239.6" y="281.5" class="st5" width="13.3" height="102.9"/>
			<rect x="437.4" y="281.5" class="st2" width="13.3" height="102.9"/>
			<rect x="437.4" y="281.5" class="st5" width="13.3" height="102.9"/>
			<rect x="207" y="258.6" class="st2" width="276.2" height="37.9"/>
			<rect x="207" y="258.6" class="st5" width="276.2" height="37.9"/>
			<rect x="291.8" y="301.7" class="st2" width="106.6" height="72.7"/>
			<rect x="291.8" y="301.7" class="st5" width="106.6" height="72.7"/>
			<rect x="297.5" y="306.6" class="st4" width="44.6" height="62.9"/>
			<rect x="297.5" y="306.6" class="st5" width="44.6" height="62.9"/>
			<rect x="348.1" y="306.6" class="st4" width="44.6" height="62.9"/>
			<rect x="348.1" y="306.6" class="st5" width="44.6" height="62.9"/>
			<rect x="334.6" y="336.9" class="st2" width="4.7" height="12.3"/>
			<rect x="334.6" y="336.9" class="st5" width="4.7" height="12.3"/>
			<rect x="350.9" y="336.9" class="st2" width="4.7" height="12.3"/>
			<rect x="350.9" y="336.9" class="st5" width="4.7" height="12.3"/>
			<rect x="230.8" y="201.4" class="st2" width="48.5" height="45.5"/>
			<rect x="230.8" y="201.4" class="st5" width="48.5" height="45.5"/>
			<rect x="237" y="206.7" class="st4" width="36" height="34.9"/>
			<rect x="237" y="206.7" class="st5" width="36" height="34.9"/>
			<rect x="290.9" y="201.4" class="st2" width="48.4" height="45.5"/>
			<rect x="290.9" y="201.4" class="st5" width="48.4" height="45.5"/>
			<rect x="297.1" y="206.7" class="st4" width="36" height="34.9"/>
			<rect x="297.1" y="206.7" class="st5" width="36" height="34.9"/>
			<rect x="350.9" y="201.4" class="st2" width="48.4" height="45.5"/>
			<rect x="350.9" y="201.4" class="st5" width="48.4" height="45.5"/>
			<rect x="357.1" y="206.7" class="st4" width="36" height="34.9"/>
			<rect x="357.1" y="206.7" class="st5" width="36" height="34.9"/>
			<rect x="410.9" y="201.4" class="st2" width="48.5" height="45.5"/>
			<rect x="410.9" y="201.4" class="st5" width="48.5" height="45.5"/>
			<rect x="417.2" y="206.7" class="st4" width="36" height="34.9"/>
			<rect x="417.2" y="206.7" class="st5" width="36" height="34.9"/>
			<rect x="260.7" y="99.1" class="st2" width="168.9" height="91"/>
			<rect x="260.7" y="99.1" class="st5" width="168.9" height="91"/>
			<path class="st7" d="M345.1,107.2c-28.6,0-51.7,16.7-51.7,37.3c0,20.6,23.2,37.3,51.7,37.3c28.6,0,51.7-16.7,51.7-37.3
				C396.8,123.9,373.7,107.2,345.1,107.2 M354.8,151.5v20.7h-19.3v-20.7h-28.6v-13.9h28.6v-20.7h19.3v20.7h28.6v13.9H354.8z"/>
			<path class="st5" d="M345.1,107.2c-28.6,0-51.7,16.7-51.7,37.3c0,20.6,23.2,37.3,51.7,37.3c28.6,0,51.7-16.7,51.7-37.3
				C396.8,123.9,373.7,107.2,345.1,107.2z M354.8,151.5v20.7h-19.3v-20.7h-28.6v-13.9h28.6v-20.7h19.3v20.7h28.6v13.9H354.8z"/>
			<rect x="49.9" y="208.8" class="st2" width="39.9" height="37.5"/>
			<rect x="49.9" y="208.8" class="st5" width="39.9" height="37.5"/>
			<rect x="55" y="213.1" class="st4" width="29.7" height="28.7"/>
			<rect x="55" y="213.1" class="st5" width="29.7" height="28.7"/>
			<rect x="103.8" y="208.8" class="st2" width="39.9" height="37.5"/>
			<rect x="103.8" y="208.8" class="st5" width="39.9" height="37.5"/>
			<rect x="108.9" y="213.1" class="st4" width="29.7" height="28.7"/>
			<rect x="108.9" y="213.1" class="st5" width="29.7" height="28.7"/>
			<rect x="157.7" y="208.8" class="st2" width="39.9" height="37.5"/>
			<rect x="157.7" y="208.8" class="st5" width="39.9" height="37.5"/>
			<rect x="162.9" y="213.1" class="st4" width="29.7" height="28.7"/>
			<rect x="162.9" y="213.1" class="st5" width="29.7" height="28.7"/>
			<rect x="49.9" y="257.8" class="st2" width="39.9" height="37.5"/>
			<rect x="49.9" y="257.8" class="st5" width="39.9" height="37.5"/>
			<rect x="55" y="262.1" class="st4" width="29.7" height="28.7"/>
			<rect x="55" y="262.1" class="st5" width="29.7" height="28.7"/>
			<rect x="103.8" y="257.8" class="st2" width="39.9" height="37.5"/>
			<rect x="103.8" y="257.8" class="st5" width="39.9" height="37.5"/>
			<rect x="108.9" y="262.1" class="st4" width="29.7" height="28.7"/>
			<rect x="108.9" y="262.1" class="st5" width="29.7" height="28.7"/>
			<rect x="157.7" y="257.8" class="st2" width="39.9" height="37.5"/>
			<rect x="157.7" y="257.8" class="st5" width="39.9" height="37.5"/>
			<rect x="162.9" y="262.1" class="st4" width="29.7" height="28.7"/>
			<rect x="162.9" y="262.1" class="st5" width="29.7" height="28.7"/>
			<rect x="49.9" y="305.6" class="st2" width="39.9" height="37.5"/>
			<rect x="49.9" y="305.6" class="st5" width="39.9" height="37.5"/>
			<rect x="55" y="309.9" class="st4" width="29.7" height="28.7"/>
			<rect x="55" y="309.9" class="st5" width="29.7" height="28.7"/>
			<rect x="103.8" y="305.6" class="st2" width="39.9" height="37.5"/>
			<rect x="103.8" y="305.6" class="st5" width="39.9" height="37.5"/>
			<rect x="108.9" y="309.9" class="st4" width="29.7" height="28.7"/>
			<rect x="108.9" y="309.9" class="st5" width="29.7" height="28.7"/>
			<rect x="157.7" y="305.6" class="st2" width="39.9" height="37.5"/>
			<rect x="157.7" y="305.6" class="st5" width="39.9" height="37.5"/>
			<rect x="162.9" y="309.9" class="st4" width="29.7" height="28.7"/>
			<rect x="162.9" y="309.9" class="st5" width="29.7" height="28.7"/>
			<rect x="492.5" y="208.8" class="st2" width="39.9" height="37.5"/>
			<rect x="492.5" y="208.8" class="st5" width="39.9" height="37.5"/>
			<rect x="497.7" y="213.1" class="st4" width="29.7" height="28.7"/>
			<rect x="497.7" y="213.1" class="st5" width="29.7" height="28.7"/>
			<rect x="546.5" y="208.8" class="st2" width="39.9" height="37.5"/>
			<rect x="546.5" y="208.8" class="st5" width="39.9" height="37.5"/>
			<rect x="551.6" y="213.1" class="st4" width="29.7" height="28.7"/>
			<rect x="551.6" y="213.1" class="st5" width="29.7" height="28.7"/>
			<rect x="600.4" y="208.8" class="st2" width="39.9" height="37.5"/>
			<rect x="600.4" y="208.8" class="st5" width="39.9" height="37.5"/>
			<rect x="605.5" y="213.1" class="st4" width="29.7" height="28.7"/>
			<rect x="605.5" y="213.1" class="st5" width="29.7" height="28.7"/>
			<rect x="492.5" y="257.8" class="st2" width="39.9" height="37.5"/>
			<rect x="492.5" y="257.8" class="st5" width="39.9" height="37.5"/>
			<rect x="497.7" y="262.1" class="st4" width="29.7" height="28.7"/>
			<rect x="497.7" y="262.1" class="st5" width="29.7" height="28.7"/>
			<rect x="546.5" y="257.8" class="st2" width="39.9" height="37.5"/>
			<rect x="546.5" y="257.8" class="st5" width="39.9" height="37.5"/>
			<rect x="551.6" y="262.1" class="st4" width="29.7" height="28.7"/>
			<rect x="551.6" y="262.1" class="st5" width="29.7" height="28.7"/>
			<rect x="600.4" y="257.8" class="st2" width="39.9" height="37.5"/>
			<rect x="600.4" y="257.8" class="st5" width="39.9" height="37.5"/>
			<rect x="605.5" y="262.1" class="st4" width="29.7" height="28.7"/>
			<rect x="605.5" y="262.1" class="st5" width="29.7" height="28.7"/>
			<rect x="492.5" y="305.6" class="st2" width="39.9" height="37.5"/>
			<rect x="492.5" y="305.6" class="st5" width="39.9" height="37.5"/>
			<rect x="497.7" y="309.9" class="st4" width="29.7" height="28.7"/>
			<rect x="497.7" y="309.9" class="st5" width="29.7" height="28.7"/>
			<rect x="546.5" y="305.6" class="st2" width="39.9" height="37.5"/>
			<rect x="546.5" y="305.6" class="st5" width="39.9" height="37.5"/>
			<rect x="551.6" y="309.9" class="st4" width="29.7" height="28.7"/>
			<rect x="551.6" y="309.9" class="st5" width="29.7" height="28.7"/>
			<rect x="600.4" y="305.6" class="st2" width="39.9" height="37.5"/>
			<rect x="600.4" y="305.6" class="st5" width="39.9" height="37.5"/>
			<rect x="605.5" y="309.9" class="st4" width="29.7" height="28.7"/>
			<rect x="605.5" y="309.9" class="st5" width="29.7" height="28.7"/>
		</g>
	</g>
</g>
</svg>
