<?xml version="1.0" encoding="utf-8"?>
<!-- Generator: Adobe Illustrator 22.1.0, SVG Export Plug-In . SVG Version: 6.00 Build 0)  -->
<svg version="1.1" id="A1" xmlns="http://www.w3.org/2000/svg" xmlns:xlink="http://www.w3.org/1999/xlink" x="0px" y="0px"
	 viewBox="0 0 690 500" style="enable-background:new 0 0 690 500;" xml:space="preserve">
<style type="text/css">
	.st0{clip-path:url(#SVGID_2_);fill:#BDDFE9;}
	.st1{clip-path:url(#SVGID_2_);}
	.st2{clip-path:url(#SVGID_4_);fill:none;stroke:#000000;stroke-width:1.7621;stroke-miterlimit:10;}
	.st3{clip-path:url(#SVGID_4_);fill:#FFFFFF;}
	.st4{clip-path:url(#SVGID_4_);fill:#7D90A1;}
	.st5{clip-path:url(#SVGID_4_);fill:#5F7484;}
	.st6{clip-path:url(#SVGID_4_);fill:#F5F3E4;}
	.st7{clip-path:url(#SVGID_4_);}
	.st8{clip-path:url(#SVGID_4_);fill:#448BA1;}
	.st9{clip-path:url(#SVGID_4_);fill:#BDDFE9;}
	.st10{clip-path:url(#SVGID_4_);fill:#DC4647;}
	.st11{clip-path:url(#SVGID_4_);fill:#FFE266;}
	.st12{clip-path:url(#SVGID_4_);fill:#E6DBAE;}
	.st13{clip-path:url(#SVGID_4_);fill:#689638;}
</style>
<g>
	<g>
		<defs>
			<rect id="SVGID_1_" width="690" height="500"/>
		</defs>
		<clipPath id="SVGID_2_">
			<use xlink:href="#SVGID_1_"  style="overflow:visible;"/>
		</clipPath>
		<rect class="st0" width="690" height="500"/>
		<g class="st1">
			<defs>
				<rect id="SVGID_3_" width="690" height="500"/>
			</defs>
			<clipPath id="SVGID_4_">
				<use xlink:href="#SVGID_3_"  style="overflow:visible;"/>
			</clipPath>
			<rect x="-33.1" y="-22.8" class="st2" width="747.6" height="563.5"/>
			<path class="st3" d="M114.9,184.6c3.4-0.9,7.3-2.9,6.5-5.5c-0.3-1.1-1.4-1.9-2.5-2.7c-7.9-5.5-18.9-8.6-29.9-8.4
				c7.7-2.8,12-9.2,11.8-15.4c-0.2-6.2-4.4-12.1-10.1-16.7c-12.2-9.7-31.8-14.2-49.5-11.3c2.7-7.6-2.9-16-11.6-20.7
				c-8.7-4.7-20-6.3-30.9-6.3c-33,0-65.2,14.9-79.2,36.6c-2.8,4.4-5,9.3-3.9,14c1.1,4.8,6.3,9.3,13,9.6c-12.6-0.5-38.6,2.3-37,16.1
				c1.3,11.3,27.4,12.9,39.8,15.1c32.4,5.5,66,6.4,99,4.1C56.1,191.3,90.9,191.3,114.9,184.6"/>
			<path class="st3" d="M662.9,86.6c33.4-17.9,127.3-19,123.6,26.3c-1.2,15-17.6,27.7-36.5,33.8c-19,6.2-40.3,7-61.1,7.5
				c-75.7,1.9-151.6,0.3-227-4.9c-22.4-1.5-45.3-15.4-23.8-30.4c7.3-5.1,59.6-14.2,60.7-0.2c-0.8-10.3,0.5-21.6,9.8-29.4
				c9.3-7.8,29.1-9.5,36.9-0.8c12.7-13.3,11.6-32.6,28.2-43.3c6.5-4.2,15-6.5,23.6-7.3C633.4,34.6,668.5,60.7,662.9,86.6"/>
			<path class="st3" d="M91.9,72.3c3.1-13.6,26.9-22.2,43.8-15.8c-5.4-6.4,5.4-15.9,15.1-13.3c3-9.2,14.9-16.4,27.9-16.9
				c13-0.5,25.9,5.8,30.2,14.7c13.2-15.3,36.3-26.8,61.2-27.1c24.9-0.3,50.1,12.5,54.6,30.3c23.2-6.6,50.3-5.5,72.3,3
				c9.7,3.7,19.2,10,18.8,17.9c-0.3,6.8-8.1,12.5-17,14.9c-8.9,2.4-18.6,2.1-28,1.8c-54-1.7-107.3-11.2-161.5-9.3
				C198.9,72.9,91,76.3,91.9,72.3"/>
			<rect x="-9" y="273.3" class="st4" width="142.1" height="226.8"/>
			<rect x="84.5" y="341" class="st4" width="142.1" height="226.8"/>
			<rect x="416.8" y="239" class="st4" width="142.1" height="226.8"/>
			<rect x="446.4" y="286.8" class="st4" width="142.1" height="226.8"/>
			<rect x="608.2" y="183.8" class="st4" width="142.1" height="290.8"/>
			<rect x="-33.1" y="459" class="st5" width="747.6" height="227.5"/>
			<rect x="213.3" y="62.5" class="st6" width="263.7" height="408.3"/>
			<path class="st7" d="M477.4,471.2H212.8v-409h264.7V471.2z M213.8,470.5h262.7V62.9H213.8V470.5z"/>
			<rect x="224.7" y="158.5" class="st8" width="33.9" height="35.7"/>
			<path class="st7" d="M259.1,194.6h-34.9v-36.4h34.9V194.6z M225.2,193.8h32.9v-35h-32.9V193.8z"/>
			<rect x="228.2" y="161.9" class="st9" width="26.9" height="28.9"/>
			<path class="st7" d="M255.6,191.2h-27.9v-29.6h27.9V191.2z M228.7,190.4h25.9v-28.2h-25.9V190.4z"/>
			<rect x="219.8" y="194.2" class="st8" width="43.7" height="5.3"/>
			<path class="st7" d="M264,199.9h-44.7v-6.1H264V199.9z M220.3,199.1H263v-4.6h-42.7V199.1z"/>
			<polygon class="st10" points="263.5,158.5 219.8,158.5 224.8,153.1 258.6,153.1 			"/>
			<path class="st7" d="M264.4,158.8h-45.6l5.6-6.1h34.4L264.4,158.8z M220.7,158.1h41.9l-4.2-4.6H225L220.7,158.1z"/>
			<rect x="276.4" y="158.5" class="st8" width="33.9" height="35.7"/>
			<path class="st7" d="M310.8,194.6h-34.9v-36.4h34.9V194.6z M276.9,193.8h32.9v-35h-32.9V193.8z"/>
			<rect x="280" y="161.9" class="st9" width="26.9" height="28.9"/>
			<path class="st7" d="M307.3,191.2h-27.9v-29.6h27.9V191.2z M280.4,190.4h25.9v-28.2h-25.9V190.4z"/>
			<rect x="271.5" y="194.2" class="st8" width="43.7" height="5.3"/>
			<path class="st7" d="M315.7,199.9H271v-6.1h44.7V199.9z M272,199.1h42.7v-4.6H272V199.1z"/>
			<polygon class="st10" points="315.2,158.5 271.5,158.5 276.5,153.1 310.4,153.1 			"/>
			<path class="st7" d="M316.2,158.8h-45.6l5.6-6.1h34.4L316.2,158.8z M272.5,158.1h41.9l-4.2-4.6h-33.3L272.5,158.1z"/>
			<rect x="328.2" y="158.5" class="st8" width="33.9" height="35.7"/>
			<path class="st7" d="M362.5,194.6h-34.9v-36.4h34.9V194.6z M328.7,193.8h32.9v-35h-32.9V193.8z"/>
			<rect x="331.7" y="161.9" class="st9" width="26.9" height="28.9"/>
			<path class="st7" d="M359,191.2h-27.9v-29.6H359V191.2z M332.2,190.4H358v-28.2h-25.9V190.4z"/>
			<rect x="323.3" y="194.2" class="st8" width="43.7" height="5.3"/>
			<path class="st7" d="M367.5,199.9h-44.7v-6.1h44.7V199.9z M323.7,199.1h42.7v-4.6h-42.7V199.1z"/>
			<polygon class="st10" points="367,158.5 323.3,158.5 328.2,153.1 362.1,153.1 			"/>
			<path class="st7" d="M367.9,158.8h-45.6l5.6-6.1h34.4L367.9,158.8z M324.2,158.1H366l-4.2-4.6h-33.3L324.2,158.1z"/>
			<rect x="379.9" y="158.5" class="st8" width="33.9" height="35.7"/>
			<path class="st7" d="M414.3,194.6h-34.9v-36.4h34.9V194.6z M380.4,193.8h32.9v-35h-32.9V193.8z"/>
			<rect x="383.4" y="161.9" class="st9" width="26.9" height="28.9"/>
			<path class="st7" d="M410.8,191.2h-27.9v-29.6h27.9V191.2z M383.9,190.4h25.9v-28.2h-25.9V190.4z"/>
			<rect x="375" y="194.2" class="st8" width="43.7" height="5.3"/>
			<path class="st7" d="M419.2,199.9h-44.7v-6.1h44.7V199.9z M375.5,199.1h42.7v-4.6h-42.7V199.1z"/>
			<polygon class="st10" points="418.7,158.5 375,158.5 379.9,153.1 413.8,153.1 			"/>
			<path class="st7" d="M419.6,158.8H374l5.6-6.1h34.4L419.6,158.8z M375.9,158.1h41.9l-4.2-4.6h-33.3L375.9,158.1z"/>
			<rect x="431.6" y="158.5" class="st8" width="33.9" height="35.7"/>
			<path class="st7" d="M466,194.6h-34.9v-36.4H466V194.6z M432.1,193.8H465v-35h-32.9V193.8z"/>
			<rect x="435.1" y="161.9" class="st9" width="26.9" height="28.9"/>
			<path class="st7" d="M462.5,191.2h-27.9v-29.6h27.9V191.2z M435.6,190.4h25.9v-28.2h-25.9V190.4z"/>
			<rect x="426.7" y="194.2" class="st8" width="43.7" height="5.3"/>
			<path class="st7" d="M470.9,199.9h-44.7v-6.1h44.7V199.9z M427.2,199.1h42.7v-4.6h-42.7V199.1z"/>
			<polygon class="st10" points="470.4,158.5 426.7,158.5 431.7,153.1 465.5,153.1 			"/>
			<path class="st7" d="M471.3,158.8h-45.6l5.6-6.1h34.4L471.3,158.8z M427.6,158.1h41.9l-4.2-4.6h-33.3L427.6,158.1z"/>
			<rect x="224.7" y="214" class="st8" width="33.9" height="35.7"/>
			<path class="st7" d="M259.1,250.1h-34.9v-36.4h34.9V250.1z M225.2,249.4h32.9v-35h-32.9V249.4z"/>
			<rect x="228.2" y="217.5" class="st9" width="26.9" height="28.9"/>
			<path class="st7" d="M255.6,246.7h-27.9v-29.6h27.9V246.7z M228.7,246h25.9v-28.2h-25.9V246z"/>
			<rect x="219.8" y="249.7" class="st8" width="43.7" height="5.3"/>
			<path class="st7" d="M264,255.4h-44.7v-6.1H264V255.4z M220.3,254.7H263v-4.6h-42.7V254.7z"/>
			<polygon class="st10" points="263.5,214 219.8,214 224.8,208.7 258.6,208.7 			"/>
			<path class="st7" d="M264.4,214.4h-45.6l5.6-6.1h34.4L264.4,214.4z M220.7,213.7h41.9l-4.2-4.6H225L220.7,213.7z"/>
			<rect x="276.4" y="214" class="st8" width="33.9" height="35.7"/>
			<path class="st7" d="M310.8,250.1h-34.9v-36.4h34.9V250.1z M276.9,249.4h32.9v-35h-32.9V249.4z"/>
			<rect x="280" y="217.5" class="st9" width="26.9" height="28.9"/>
			<path class="st7" d="M307.3,246.7h-27.9v-29.6h27.9V246.7z M280.4,246h25.9v-28.2h-25.9V246z"/>
			<rect x="271.5" y="249.7" class="st8" width="43.7" height="5.3"/>
			<path class="st7" d="M315.7,255.4H271v-6.1h44.7V255.4z M272,254.7h42.7v-4.6H272V254.7z"/>
			<polygon class="st10" points="315.2,214 271.5,214 276.5,208.7 310.4,208.7 			"/>
			<path class="st7" d="M316.2,214.4h-45.6l5.6-6.1h34.4L316.2,214.4z M272.5,213.7h41.9l-4.2-4.6h-33.3L272.5,213.7z"/>
			<rect x="328.2" y="214" class="st8" width="33.9" height="35.7"/>
			<path class="st7" d="M362.5,250.1h-34.9v-36.4h34.9V250.1z M328.7,249.4h32.9v-35h-32.9V249.4z"/>
			<rect x="331.7" y="217.5" class="st9" width="26.9" height="28.9"/>
			<path class="st7" d="M359,246.7h-27.9v-29.6H359V246.7z M332.2,246H358v-28.2h-25.9V246z"/>
			<rect x="323.3" y="249.7" class="st8" width="43.7" height="5.3"/>
			<path class="st7" d="M367.5,255.4h-44.7v-6.1h44.7V255.4z M323.7,254.7h42.7v-4.6h-42.7V254.7z"/>
			<polygon class="st10" points="367,214 323.3,214 328.2,208.7 362.1,208.7 			"/>
			<path class="st7" d="M367.9,214.4h-45.6l5.6-6.1h34.4L367.9,214.4z M324.2,213.7H366l-4.2-4.6h-33.3L324.2,213.7z"/>
			<rect x="379.9" y="214" class="st8" width="33.9" height="35.7"/>
			<path class="st7" d="M414.3,250.1h-34.9v-36.4h34.9V250.1z M380.4,249.4h32.9v-35h-32.9V249.4z"/>
			<rect x="383.4" y="217.5" class="st9" width="26.9" height="28.9"/>
			<path class="st7" d="M410.8,246.7h-27.9v-29.6h27.9V246.7z M383.9,246h25.9v-28.2h-25.9V246z"/>
			<rect x="375" y="249.7" class="st8" width="43.7" height="5.3"/>
			<path class="st7" d="M419.2,255.4h-44.7v-6.1h44.7V255.4z M375.5,254.7h42.7v-4.6h-42.7V254.7z"/>
			<polygon class="st10" points="418.7,214 375,214 379.9,208.7 413.8,208.7 			"/>
			<path class="st7" d="M419.6,214.4H374l5.6-6.1h34.4L419.6,214.4z M375.9,213.7h41.9l-4.2-4.6h-33.3L375.9,213.7z"/>
			<rect x="431.6" y="214" class="st8" width="33.9" height="35.7"/>
			<path class="st7" d="M466,250.1h-34.9v-36.4H466V250.1z M432.1,249.4H465v-35h-32.9V249.4z"/>
			<rect x="435.1" y="217.5" class="st9" width="26.9" height="28.9"/>
			<path class="st7" d="M462.5,246.7h-27.9v-29.6h27.9V246.7z M435.6,246h25.9v-28.2h-25.9V246z"/>
			<rect x="426.7" y="249.7" class="st8" width="43.7" height="5.3"/>
			<path class="st7" d="M470.9,255.4h-44.7v-6.1h44.7V255.4z M427.2,254.7h42.7v-4.6h-42.7V254.7z"/>
			<polygon class="st10" points="470.4,214 426.7,214 431.7,208.7 465.5,208.7 			"/>
			<path class="st7" d="M471.3,214.4h-45.6l5.6-6.1h34.4L471.3,214.4z M427.6,213.7h41.9l-4.2-4.6h-33.3L427.6,213.7z"/>
			<rect x="224.7" y="269.6" class="st8" width="33.9" height="35.7"/>
			<path class="st7" d="M259.1,305.7h-34.9v-36.4h34.9V305.7z M225.2,304.9h32.9v-35h-32.9V304.9z"/>
			<rect x="228.2" y="273" class="st9" width="26.9" height="28.9"/>
			<path class="st7" d="M255.6,302.2h-27.9v-29.6h27.9V302.2z M228.7,301.5h25.9v-28.2h-25.9V301.5z"/>
			<rect x="219.8" y="305.3" class="st8" width="43.7" height="5.3"/>
			<path class="st7" d="M264,311h-44.7v-6.1H264V311z M220.3,310.2H263v-4.6h-42.7V310.2z"/>
			<polygon class="st10" points="263.5,269.6 219.8,269.6 224.8,264.2 258.6,264.2 			"/>
			<path class="st7" d="M264.4,269.9h-45.6l5.6-6.1h34.4L264.4,269.9z M220.7,269.2h41.9l-4.2-4.6H225L220.7,269.2z"/>
			<rect x="276.4" y="269.6" class="st8" width="33.9" height="35.7"/>
			<path class="st7" d="M310.8,305.7h-34.9v-36.4h34.9V305.7z M276.9,304.9h32.9v-35h-32.9V304.9z"/>
			<rect x="280" y="273" class="st9" width="26.9" height="28.9"/>
			<path class="st7" d="M307.3,302.2h-27.9v-29.6h27.9V302.2z M280.4,301.5h25.9v-28.2h-25.9V301.5z"/>
			<rect x="271.5" y="305.3" class="st8" width="43.7" height="5.3"/>
			<path class="st7" d="M315.7,311H271v-6.1h44.7V311z M272,310.2h42.7v-4.6H272V310.2z"/>
			<polygon class="st10" points="315.2,269.6 271.5,269.6 276.5,264.2 310.4,264.2 			"/>
			<path class="st7" d="M316.2,269.9h-45.6l5.6-6.1h34.4L316.2,269.9z M272.5,269.2h41.9l-4.2-4.6h-33.3L272.5,269.2z"/>
			<rect x="328.2" y="269.6" class="st8" width="33.9" height="35.7"/>
			<path class="st7" d="M362.5,305.7h-34.9v-36.4h34.9V305.7z M328.7,304.9h32.9v-35h-32.9V304.9z"/>
			<rect x="331.7" y="273" class="st9" width="26.9" height="28.9"/>
			<path class="st7" d="M359,302.2h-27.9v-29.6H359V302.2z M332.2,301.5H358v-28.2h-25.9V301.5z"/>
			<rect x="323.3" y="305.3" class="st8" width="43.7" height="5.3"/>
			<path class="st7" d="M367.5,311h-44.7v-6.1h44.7V311z M323.7,310.2h42.7v-4.6h-42.7V310.2z"/>
			<polygon class="st10" points="367,269.6 323.3,269.6 328.2,264.2 362.1,264.2 			"/>
			<path class="st7" d="M367.9,269.9h-45.6l5.6-6.1h34.4L367.9,269.9z M324.2,269.2H366l-4.2-4.6h-33.3L324.2,269.2z"/>
			<rect x="379.9" y="269.6" class="st8" width="33.9" height="35.7"/>
			<path class="st7" d="M414.3,305.7h-34.9v-36.4h34.9V305.7z M380.4,304.9h32.9v-35h-32.9V304.9z"/>
			<rect x="383.4" y="273" class="st9" width="26.9" height="28.9"/>
			<path class="st7" d="M410.8,302.2h-27.9v-29.6h27.9V302.2z M383.9,301.5h25.9v-28.2h-25.9V301.5z"/>
			<rect x="375" y="305.3" class="st8" width="43.7" height="5.3"/>
			<path class="st7" d="M419.2,311h-44.7v-6.1h44.7V311z M375.5,310.2h42.7v-4.6h-42.7V310.2z"/>
			<polygon class="st10" points="418.7,269.6 375,269.6 379.9,264.2 413.8,264.2 			"/>
			<path class="st7" d="M419.6,269.9H374l5.6-6.1h34.4L419.6,269.9z M375.9,269.2h41.9l-4.2-4.6h-33.3L375.9,269.2z"/>
			<rect x="431.6" y="269.6" class="st8" width="33.9" height="35.7"/>
			<path class="st7" d="M466,305.7h-34.9v-36.4H466V305.7z M432.1,304.9H465v-35h-32.9V304.9z"/>
			<rect x="435.1" y="273" class="st9" width="26.9" height="28.9"/>
			<path class="st7" d="M462.5,302.2h-27.9v-29.6h27.9V302.2z M435.6,301.5h25.9v-28.2h-25.9V301.5z"/>
			<rect x="426.7" y="305.3" class="st8" width="43.7" height="5.3"/>
			<path class="st7" d="M470.9,311h-44.7v-6.1h44.7V311z M427.2,310.2h42.7v-4.6h-42.7V310.2z"/>
			<polygon class="st10" points="470.4,269.6 426.7,269.6 431.7,264.2 465.5,264.2 			"/>
			<path class="st7" d="M471.3,269.9h-45.6l5.6-6.1h34.4L471.3,269.9z M427.6,269.2h41.9l-4.2-4.6h-33.3L427.6,269.2z"/>
			<rect x="224.7" y="325.1" class="st8" width="33.9" height="35.7"/>
			<path class="st7" d="M259.1,361.2h-34.9v-36.4h34.9V361.2z M225.2,360.5h32.9v-35h-32.9V360.5z"/>
			<rect x="228.2" y="328.5" class="st9" width="26.9" height="28.9"/>
			<path class="st7" d="M255.6,357.8h-27.9v-29.6h27.9V357.8z M228.7,357.1h25.9v-28.2h-25.9V357.1z"/>
			<rect x="219.8" y="360.8" class="st8" width="43.7" height="5.3"/>
			<path class="st7" d="M264,366.5h-44.7v-6.1H264V366.5z M220.3,365.8H263v-4.6h-42.7V365.8z"/>
			<polygon class="st10" points="263.5,325.1 219.8,325.1 224.8,319.8 258.6,319.8 			"/>
			<path class="st7" d="M264.4,325.5h-45.6l5.6-6.1h34.4L264.4,325.5z M220.7,324.7h41.9l-4.2-4.6H225L220.7,324.7z"/>
			<rect x="276.4" y="325.1" class="st8" width="33.9" height="35.7"/>
			<path class="st7" d="M310.8,361.2h-34.9v-36.4h34.9V361.2z M276.9,360.5h32.9v-35h-32.9V360.5z"/>
			<rect x="280" y="328.5" class="st9" width="26.9" height="28.9"/>
			<path class="st7" d="M307.3,357.8h-27.9v-29.6h27.9V357.8z M280.4,357.1h25.9v-28.2h-25.9V357.1z"/>
			<rect x="271.5" y="360.8" class="st8" width="43.7" height="5.3"/>
			<path class="st7" d="M315.7,366.5H271v-6.1h44.7V366.5z M272,365.8h42.7v-4.6H272V365.8z"/>
			<polygon class="st10" points="315.2,325.1 271.5,325.1 276.5,319.8 310.4,319.8 			"/>
			<path class="st7" d="M316.2,325.5h-45.6l5.6-6.1h34.4L316.2,325.5z M272.5,324.7h41.9l-4.2-4.6h-33.3L272.5,324.7z"/>
			<rect x="328.2" y="325.1" class="st8" width="33.9" height="35.7"/>
			<path class="st7" d="M362.5,361.2h-34.9v-36.4h34.9V361.2z M328.7,360.5h32.9v-35h-32.9V360.5z"/>
			<rect x="331.7" y="328.5" class="st9" width="26.9" height="28.9"/>
			<path class="st7" d="M359,357.8h-27.9v-29.6H359V357.8z M332.2,357.1H358v-28.2h-25.9V357.1z"/>
			<rect x="323.3" y="360.8" class="st8" width="43.7" height="5.3"/>
			<path class="st7" d="M367.5,366.5h-44.7v-6.1h44.7V366.5z M323.7,365.8h42.7v-4.6h-42.7V365.8z"/>
			<polygon class="st10" points="367,325.1 323.3,325.1 328.2,319.8 362.1,319.8 			"/>
			<path class="st7" d="M367.9,325.5h-45.6l5.6-6.1h34.4L367.9,325.5z M324.2,324.7H366l-4.2-4.6h-33.3L324.2,324.7z"/>
			<rect x="379.9" y="325.1" class="st8" width="33.9" height="35.7"/>
			<path class="st7" d="M414.3,361.2h-34.9v-36.4h34.9V361.2z M380.4,360.5h32.9v-35h-32.9V360.5z"/>
			<rect x="383.4" y="328.5" class="st9" width="26.9" height="28.9"/>
			<path class="st7" d="M410.8,357.8h-27.9v-29.6h27.9V357.8z M383.9,357.1h25.9v-28.2h-25.9V357.1z"/>
			<rect x="375" y="360.8" class="st8" width="43.7" height="5.3"/>
			<path class="st7" d="M419.2,366.5h-44.7v-6.1h44.7V366.5z M375.5,365.8h42.7v-4.6h-42.7V365.8z"/>
			<polygon class="st10" points="418.7,325.1 375,325.1 379.9,319.8 413.8,319.8 			"/>
			<path class="st7" d="M419.6,325.5H374l5.6-6.1h34.4L419.6,325.5z M375.9,324.7h41.9l-4.2-4.6h-33.3L375.9,324.7z"/>
			<rect x="431.6" y="325.1" class="st8" width="33.9" height="35.7"/>
			<path class="st7" d="M466,361.2h-34.9v-36.4H466V361.2z M432.1,360.5H465v-35h-32.9V360.5z"/>
			<rect x="435.1" y="328.5" class="st9" width="26.9" height="28.9"/>
			<path class="st7" d="M462.5,357.8h-27.9v-29.6h27.9V357.8z M435.6,357.1h25.9v-28.2h-25.9V357.1z"/>
			<rect x="426.7" y="360.8" class="st8" width="43.7" height="5.3"/>
			<path class="st7" d="M470.9,366.5h-44.7v-6.1h44.7V366.5z M427.2,365.8h42.7v-4.6h-42.7V365.8z"/>
			<polygon class="st10" points="470.4,325.1 426.7,325.1 431.7,319.8 465.5,319.8 			"/>
			<path class="st7" d="M471.3,325.5h-45.6l5.6-6.1h34.4L471.3,325.5z M427.6,324.7h41.9l-4.2-4.6h-33.3L427.6,324.7z"/>
			<rect x="224.7" y="103" class="st8" width="33.9" height="35.7"/>
			<path class="st7" d="M259.1,139h-34.9v-36.4h34.9V139z M225.2,138.3h32.9v-35h-32.9V138.3z"/>
			<rect x="228.2" y="106.4" class="st9" width="26.9" height="28.9"/>
			<path class="st7" d="M255.6,135.6h-27.9V106h27.9V135.6z M228.7,134.9h25.9v-28.2h-25.9V134.9z"/>
			<rect x="219.8" y="138.6" class="st8" width="43.7" height="5.3"/>
			<path class="st7" d="M264,144.3h-44.7v-6.1H264V144.3z M220.3,143.6H263V139h-42.7V143.6z"/>
			<polygon class="st10" points="263.5,102.9 219.8,102.9 224.8,97.6 258.6,97.6 			"/>
			<path class="st7" d="M264.4,103.3h-45.6l5.6-6.1h34.4L264.4,103.3z M220.7,102.6h41.9l-4.2-4.6H225L220.7,102.6z"/>
			<rect x="276.4" y="103" class="st8" width="33.9" height="35.7"/>
			<path class="st7" d="M310.8,139h-34.9v-36.4h34.9V139z M276.9,138.3h32.9v-35h-32.9V138.3z"/>
			<rect x="280" y="106.4" class="st9" width="26.9" height="28.9"/>
			<path class="st7" d="M307.3,135.6h-27.9V106h27.9V135.6z M280.4,134.9h25.9v-28.2h-25.9V134.9z"/>
			<rect x="271.5" y="138.6" class="st8" width="43.7" height="5.3"/>
			<path class="st7" d="M315.7,144.3H271v-6.1h44.7V144.3z M272,143.6h42.7V139H272V143.6z"/>
			<polygon class="st10" points="315.2,102.9 271.5,102.9 276.5,97.6 310.4,97.6 			"/>
			<path class="st7" d="M316.2,103.3h-45.6l5.6-6.1h34.4L316.2,103.3z M272.5,102.6h41.9l-4.2-4.6h-33.3L272.5,102.6z"/>
			<rect x="328.2" y="103" class="st8" width="33.9" height="35.7"/>
			<path class="st7" d="M362.5,139h-34.9v-36.4h34.9V139z M328.7,138.3h32.9v-35h-32.9V138.3z"/>
			<rect x="331.7" y="106.4" class="st9" width="26.9" height="28.9"/>
			<path class="st7" d="M359,135.6h-27.9V106H359V135.6z M332.2,134.9H358v-28.2h-25.9V134.9z"/>
			<rect x="323.3" y="138.6" class="st8" width="43.7" height="5.3"/>
			<path class="st7" d="M367.5,144.3h-44.7v-6.1h44.7V144.3z M323.7,143.6h42.7V139h-42.7V143.6z"/>
			<polygon class="st10" points="367,102.9 323.3,102.9 328.2,97.6 362.1,97.6 			"/>
			<path class="st7" d="M367.9,103.3h-45.6l5.6-6.1h34.4L367.9,103.3z M324.2,102.6H366l-4.2-4.6h-33.3L324.2,102.6z"/>
			<rect x="379.9" y="103" class="st8" width="33.9" height="35.7"/>
			<path class="st7" d="M414.3,139h-34.9v-36.4h34.9V139z M380.4,138.3h32.9v-35h-32.9V138.3z"/>
			<rect x="383.4" y="106.4" class="st9" width="26.9" height="28.9"/>
			<path class="st7" d="M410.8,135.6h-27.9V106h27.9V135.6z M383.9,134.9h25.9v-28.2h-25.9V134.9z"/>
			<rect x="375" y="138.6" class="st8" width="43.7" height="5.3"/>
			<path class="st7" d="M419.2,144.3h-44.7v-6.1h44.7V144.3z M375.5,143.6h42.7V139h-42.7V143.6z"/>
			<polygon class="st10" points="418.7,102.9 375,102.9 379.9,97.6 413.8,97.6 			"/>
			<path class="st7" d="M419.6,103.3H374l5.6-6.1h34.4L419.6,103.3z M375.9,102.6h41.9l-4.2-4.6h-33.3L375.9,102.6z"/>
			<rect x="431.6" y="103" class="st8" width="33.9" height="35.7"/>
			<path class="st7" d="M466,139h-34.9v-36.4H466V139z M432.1,138.3H465v-35h-32.9V138.3z"/>
			<rect x="435.1" y="106.4" class="st9" width="26.9" height="28.9"/>
			<path class="st7" d="M462.5,135.6h-27.9V106h27.9V135.6z M435.6,134.9h25.9v-28.2h-25.9V134.9z"/>
			<rect x="426.7" y="138.6" class="st8" width="43.7" height="5.3"/>
			<path class="st7" d="M470.9,144.3h-44.7v-6.1h44.7V144.3z M427.2,143.6h42.7V139h-42.7V143.6z"/>
			<polygon class="st10" points="470.4,102.9 426.7,102.9 431.7,97.6 465.5,97.6 			"/>
			<path class="st7" d="M471.3,103.3h-45.6l5.6-6.1h34.4L471.3,103.3z M427.6,102.6h41.9l-4.2-4.6h-33.3L427.6,102.6z"/>
			<polygon class="st10" points="203.2,103 213.2,103 213.2,97.6 208.2,97.6 			"/>
			<path class="st7" d="M213.7,103.4h-11.4l5.6-6.1h5.7V103.4z M204.2,102.6h8.5V98h-4.2L204.2,102.6z"/>
			<polygon class="st10" points="203.2,158.5 213.2,158.5 213.2,153.1 208.2,153.1 			"/>
			<path class="st7" d="M213.7,158.8h-11.4l5.6-6.1h5.7V158.8z M204.2,158.1h8.5v-4.7h-4.2L204.2,158.1z"/>
			<polygon class="st10" points="203.2,214 213.2,214 213.2,208.6 208.2,208.6 			"/>
			<path class="st7" d="M213.7,214.4h-11.4l5.6-6.1h5.7V214.4z M204.2,213.7h8.5V209h-4.2L204.2,213.7z"/>
			<polygon class="st10" points="203.2,325.2 213.2,325.2 213.2,319.8 208.2,319.8 			"/>
			<path class="st7" d="M213.7,325.5h-11.4l5.6-6.1h5.7V325.5z M204.2,324.8h8.5v-4.7h-4.2L204.2,324.8z"/>
			<polygon class="st10" points="203.2,269.5 213.2,269.5 213.2,264.1 208.2,264.1 			"/>
			<path class="st7" d="M213.7,269.9h-11.4l5.6-6.1h5.7V269.9z M204.2,269.1h8.5v-4.7h-4.2L204.2,269.1z"/>
			<polygon class="st10" points="487,103 477,103 477,97.6 482,97.6 			"/>
			<path class="st7" d="M487.9,103.4h-11.4v-6.1h5.7L487.9,103.4z M477.5,102.6h8.5l-4.3-4.7h-4.2V102.6z"/>
			<polygon class="st10" points="487,158.5 477,158.5 477,153.1 482,153.1 			"/>
			<path class="st7" d="M487.9,158.8h-11.4v-6.1h5.7L487.9,158.8z M477.5,158.1h8.5l-4.3-4.7h-4.2V158.1z"/>
			<polygon class="st10" points="487,214 477,214 477,208.6 482,208.6 			"/>
			<path class="st7" d="M487.9,214.4h-11.4v-6.1h5.7L487.9,214.4z M477.5,213.7h8.5l-4.3-4.7h-4.2V213.7z"/>
			<polygon class="st10" points="487,325.2 477,325.2 477,319.8 482,319.8 			"/>
			<path class="st7" d="M487.9,325.5h-11.4v-6.1h5.7L487.9,325.5z M477.5,324.8h8.5l-4.3-4.7h-4.2V324.8z"/>
			<polygon class="st10" points="487,269.5 477,269.5 477,264.1 482,264.1 			"/>
			<path class="st7" d="M487.9,269.9h-11.4v-6.1h5.7L487.9,269.9z M477.5,269.1h8.5l-4.3-4.7h-4.2V269.1z"/>
			<path class="st8" d="M479.1,91.1H211.2c-6.1,0-11-3.6-11-8V66.9c0-4.4,4.9-8,11-8h267.9c6.1,0,11,3.6,11,8v16.1
				C490.1,87.5,485.2,91.1,479.1,91.1"/>
			<path class="st7" d="M479.1,91.4H211.2c-6.4,0-11.5-3.7-11.5-8.3V66.9c0-4.6,5.2-8.3,11.5-8.3h267.9c6.4,0,11.5,3.7,11.5,8.3
				v16.1C490.6,87.7,485.4,91.4,479.1,91.4 M211.2,59.3c-5.8,0-10.5,3.4-10.5,7.6v16.1c0,4.2,4.7,7.6,10.5,7.6h267.9
				c5.8,0,10.5-3.4,10.5-7.6V66.9c0-4.2-4.7-7.6-10.5-7.6H211.2z"/>
			<path class="st10" d="M431,70.8H259.3c-7.5,0-13.5-4.4-13.5-9.8V41.2c0-5.4,6.1-9.8,13.5-9.8H431c7.5,0,13.5,4.4,13.5,9.8V61
				C444.5,66.4,438.5,70.8,431,70.8"/>
			<path class="st7" d="M431,71.2H259.3c-7.7,0-14-4.6-14-10.2V41.2c0-5.6,6.3-10.2,14-10.2H431c7.7,0,14,4.6,14,10.2V61
				C445,66.6,438.7,71.2,431,71.2 M259.3,31.7c-7.2,0-13,4.2-13,9.5V61c0,5.2,5.9,9.5,13,9.5H431c7.2,0,13-4.2,13-9.5V41.2
				c0-5.2-5.9-9.5-13-9.5H259.3z"/>
			<polygon class="st11" points="276.7,41.6 280.9,47.8 290.5,48.8 283.6,53.7 285.2,60.6 276.7,57.4 268.1,60.6 269.7,53.7 
				262.8,48.8 272.4,47.8 			"/>
			<path class="st7" d="M285.9,61.3l-9.2-3.5l-9.2,3.5l1.8-7.4l-7.4-5.3l10.3-1.1l4.6-6.8l4.6,6.8l10.3,1.1l-7.4,5.3L285.9,61.3z
				 M263.9,49.1l6.4,4.5l-1.5,6.4l7.9-3l7.9,3l-1.5-6.4l6.4-4.5l-8.8-0.9l-3.9-5.8l-3.9,5.8L263.9,49.1z"/>
			<polygon class="st11" points="310.9,41.6 315.2,47.8 324.7,48.8 317.8,53.7 319.4,60.6 310.9,57.4 302.3,60.6 304,53.7 
				297.1,48.8 306.6,47.8 			"/>
			<path class="st7" d="M320.1,61.3l-9.2-3.5l-9.2,3.5l1.8-7.4l-7.4-5.3l10.3-1.1l4.6-6.8l4.6,6.8l10.3,1.1l-7.4,5.3L320.1,61.3z
				 M298.1,49.1l6.4,4.5L303,60l7.9-3l7.9,3l-1.5-6.4l6.4-4.5l-8.8-0.9l-3.9-5.8l-3.9,5.8L298.1,49.1z"/>
			<polygon class="st11" points="345.1,41.6 349.4,47.8 358.9,48.8 352,53.7 353.7,60.6 345.1,57.4 336.6,60.6 338.2,53.7 
				331.3,48.8 340.8,47.8 			"/>
			<path class="st7" d="M335.9,61.3l1.8-7.4l-7.4-5.3l10.3-1.1l4.6-6.8l4.6,6.8l10.3,1.1l-7.4,5.3l1.8,7.4l-9.2-3.5L335.9,61.3z
				 M345.1,57l7.9,3l-1.5-6.4l6.4-4.5l-8.8-0.9l-3.9-5.8l-3.9,5.8l-8.8,0.9l6.4,4.5l-1.5,6.4L345.1,57z"/>
			<polygon class="st11" points="379.3,41.6 383.6,47.8 393.2,48.8 386.3,53.7 387.9,60.6 379.3,57.4 370.8,60.6 372.4,53.7 
				365.5,48.8 375.1,47.8 			"/>
			<path class="st7" d="M388.5,61.3l-9.2-3.5l-9.2,3.5l1.8-7.4l-7.4-5.3l10.3-1.1l4.6-6.8l4.6,6.8l10.3,1.1l-7.4,5.3L388.5,61.3z
				 M366.6,49.1l6.4,4.5l-1.5,6.4l7.9-3l7.9,3l-1.5-6.4l6.4-4.5l-8.8-0.9l-3.9-5.8l-3.9,5.8L366.6,49.1z"/>
			<polygon class="st11" points="413.6,41.6 417.8,47.8 427.4,48.8 420.5,53.7 422.1,60.6 413.6,57.4 405,60.6 406.7,53.7 
				399.8,48.8 409.3,47.8 			"/>
			<path class="st7" d="M422.8,61.3l-9.2-3.5l-9.2,3.5l1.8-7.4l-7.4-5.3l10.3-1.1l4.6-6.8l4.6,6.8l10.3,1.1l-7.4,5.3L422.8,61.3z
				 M413.6,57l7.9,3l-1.5-6.4l6.4-4.5l-8.8-0.9l-3.9-5.8l-3.9,5.8l-8.8,0.9l6.4,4.5l-1.5,6.4L413.6,57z"/>
			<rect x="213.3" y="381.1" class="st12" width="263.7" height="89.7"/>
			<path class="st7" d="M477.5,471.2H212.8v-90.5h264.7V471.2z M213.8,470.5h262.7v-89H213.8V470.5z"/>
			<path class="st10" d="M500.6,390h-311v-8.9c0-4.9,5.4-8.8,12.1-8.8h286.7c6.7,0,12.1,3.9,12.1,8.8V390z"/>
			<path class="st7" d="M501.1,390.4h-312v-9.3c0-5.1,5.7-9.2,12.6-9.2h286.7c7,0,12.6,4.1,12.6,9.2V390.4z M190.1,389.6h310v-8.5
				c0-4.7-5.2-8.4-11.7-8.4H201.8c-6.4,0-11.7,3.8-11.7,8.4V389.6z"/>
			<rect x="298.3" y="394.7" class="st8" width="46.8" height="76.1"/>
			<path class="st7" d="M345.6,471.2h-47.8v-76.8h47.8V471.2z M298.8,470.5h45.8v-75.4h-45.8V470.5z"/>
			<rect x="303.2" y="402" class="st9" width="37.1" height="61.6"/>
			<path class="st7" d="M340.7,463.9h-38.1v-62.3h38.1V463.9z M303.7,463.2h36.1v-60.8h-36.1V463.2z"/>
			<rect x="345.1" y="394.7" class="st8" width="46.8" height="76.1"/>
			<path class="st7" d="M392.4,471.2h-47.8v-76.8h47.8V471.2z M345.6,470.5h45.8v-75.4h-45.8V470.5z"/>
			<rect x="350" y="402" class="st9" width="37.1" height="61.6"/>
			<path class="st7" d="M387.6,463.9h-38.1v-62.3h38.1V463.9z M350.5,463.2h36.1v-60.8h-36.1V463.2z"/>
			<rect x="405.5" y="402" class="st8" width="29.6" height="40.4"/>
			<path class="st7" d="M435.6,442.7H405v-41.1h30.6V442.7z M406,442h28.6v-39.6H406V442z"/>
			<rect x="408.5" y="405.8" class="st9" width="23.5" height="32.6"/>
			<path class="st7" d="M432.5,438.8H408v-33.4h24.5V438.8z M409,438.1h22.5v-31.9H409V438.1z"/>
			<rect x="435.1" y="402" class="st8" width="29.6" height="40.4"/>
			<path class="st7" d="M465.3,442.7h-30.6v-41.1h30.6V442.7z M435.6,442h28.6v-39.6h-28.6V442z"/>
			<rect x="438.2" y="405.8" class="st9" width="23.5" height="32.6"/>
			<path class="st7" d="M462.2,438.8h-24.5v-33.4h24.5V438.8z M438.7,438.1h22.5v-31.9h-22.5V438.1z"/>
			<rect x="225.5" y="402" class="st8" width="29.6" height="40.4"/>
			<path class="st7" d="M255.6,442.7H225v-41.1h30.6V442.7z M226,442h28.6v-39.6H226V442z"/>
			<rect x="228.5" y="405.8" class="st9" width="23.5" height="32.6"/>
			<path class="st7" d="M252.5,438.8H228v-33.4h24.5V438.8z M229,438.1h22.5v-31.9H229V438.1z"/>
			<rect x="255.1" y="402" class="st8" width="29.6" height="40.4"/>
			<path class="st7" d="M285.3,442.7h-30.6v-41.1h30.6V442.7z M255.6,442h28.6v-39.6h-28.6V442z"/>
			<rect x="258.2" y="405.8" class="st9" width="23.5" height="32.6"/>
			<path class="st7" d="M282.2,438.8h-24.5v-33.4h24.5V438.8z M258.7,438.1h22.5v-31.9h-22.5V438.1z"/>
			<rect x="184.2" y="457.6" class="st10" width="43.5" height="20.6"/>
			<path class="st7" d="M228.2,478.6h-44.5v-21.4h44.5V478.6z M184.7,477.9h42.6V458h-42.6V477.9z"/>
			<path class="st13" d="M178,458.4c-1.9-0.3-3.9-1-4.5-2.3s1.2-3.1,3-2.5c-2.2-1.6-4.1-3.7-4-6c0-2.3,2.6-4.6,5.8-4.5
				c1.5,0.1,3.1,0.6,4.2-0.1c0.6-0.4,0.8-1,1-1.6c1-3,3-6.2,6.8-7.6c2.9-1.1,6.5-1.1,9.3,0.1c2.8,1.2,4.7,3.5,4.7,5.8
				c2.4-0.9,5-1.8,7.8-1.6c2.7,0.2,5.4,2.1,4.7,4c2.9-0.9,5.8-1.9,8.9-2.1c3.1-0.2,6.5,0.4,8.6,2.1c2,1.7,2.1,4.7-0.3,6.1
				c2.4-1,5.7,0.4,6.4,2.3c0.7,1.9-0.8,4-3.1,5.1c-2.3,1.1-5.2,1.3-8,1.1c0.8,0.3,1,1.3,0.4,1.8c-0.5,0.6-1.5,0.9-2.4,1.1
				c-2.2,0.5-4.7,0.4-6.9-0.3c-0.9-0.3-1.8-0.6-2.8-0.6c-0.8,0-1.6,0.3-2.3,0.5c-3.6,1.1-8.5,1.6-10.8-0.7
				c-3.8,1.7-8.8,1.9-12.9,0.5c-0.8-0.3-4.8-0.1-6.1-0.2C182.9,458.6,180.5,458.8,178,458.4"/>
			<path class="st7" d="M209.7,460.5c-2,0-4-0.4-5.3-1.5c-3.9,1.6-8.9,1.8-13,0.3c-0.4-0.1-2.5-0.1-3.8-0.1c-0.9,0-1.7,0-2.1,0
				c-0.9-0.1-1.8-0.1-2.6-0.1c-1.6,0-3.3,0-5-0.3c-2.6-0.5-4.3-1.4-4.9-2.6c-0.5-1,0.2-2,1-2.6c0.4-0.2,0.7-0.4,1.1-0.4
				c-1.7-1.4-3.3-3.4-3.3-5.6c0-1.4,0.9-2.8,2.3-3.7c1.2-0.8,2.6-1.2,4-1.1c0.4,0,0.9,0.1,1.3,0.1c1,0.1,2,0.2,2.6-0.1
				c0.5-0.3,0.7-0.8,0.9-1.4l0,0c1.3-3.9,3.7-6.6,7-7.9c3-1.2,6.9-1.1,9.8,0.1c2.7,1.2,4.6,3.3,4.9,5.6c2.1-0.8,4.7-1.6,7.4-1.4
				c1.7,0.1,3.4,0.9,4.4,1.9c0.6,0.6,0.8,1.2,0.8,1.8c2.4-0.8,5.3-1.7,8.3-1.9c3.7-0.3,7,0.6,9,2.3c1.2,1,1.8,2.4,1.6,3.8
				c-0.1,0.7-0.4,1.4-0.8,1.9c0.8,0,1.5,0.1,2.3,0.3c1.6,0.5,2.8,1.5,3.2,2.6c0.7,1.9-0.7,4.3-3.4,5.5c-2.3,1.1-5,1.3-7.1,1.2
				c0,0.1,0.1,0.1,0.1,0.2c0.2,0.5,0.1,1-0.3,1.4c-0.5,0.6-1.4,1-2.7,1.3c-2.4,0.5-4.9,0.4-7.2-0.3c-0.2-0.1-0.4-0.1-0.6-0.2
				c-0.7-0.2-1.4-0.4-2-0.4c-0.7,0-1.3,0.2-2,0.4l-0.2,0C213.8,460.1,211.7,460.5,209.7,460.5 M204.6,458l0.3,0.3
				c2.2,2.2,6.9,1.7,10.2,0.6l0.2,0c0.7-0.2,1.5-0.5,2.4-0.5c0,0,0,0,0,0c0.9,0,1.7,0.2,2.4,0.5c0.2,0.1,0.4,0.1,0.5,0.2
				c2.1,0.6,4.4,0.7,6.6,0.2c1.1-0.2,1.7-0.5,2.1-0.9c0.2-0.3,0.3-0.6,0.2-0.9c-0.1-0.1-0.2-0.3-0.5-0.5l-2.2-0.9l2.5,0.2
				c2.1,0.2,5.2,0.1,7.6-1c2.3-1.1,3.5-3.1,2.9-4.7c-0.3-0.9-1.3-1.7-2.6-2.1c-1.1-0.3-2.2-0.3-3.1,0l-0.6-0.6
				c0.9-0.5,1.5-1.4,1.6-2.4c0.1-1.2-0.4-2.4-1.4-3.3c-1.8-1.5-4.8-2.2-8.1-2c-3.2,0.2-6.3,1.2-8.8,2.1l-1,0.3l0.3-0.7
				c0.3-0.8-0.1-1.5-0.5-1.9c-0.8-0.9-2.3-1.5-3.7-1.6c-2.7-0.2-5.3,0.8-7.5,1.6l-0.7,0.3l0-0.6c-0.1-2.2-1.8-4.4-4.5-5.5
				c-2.7-1.1-6.1-1.2-8.9-0.1c-3.1,1.2-5.3,3.7-6.5,7.4l0,0c-0.2,0.6-0.4,1.3-1.2,1.8c-1,0.6-2.3,0.4-3.4,0.3
				c-0.4,0-0.8-0.1-1.2-0.1c-1.2,0-2.3,0.3-3.3,0.9c-1.2,0.8-2,2.1-2,3.2c0,2.4,2.1,4.5,3.9,5.8l2.1,1.6l-2.7-1
				c-0.6-0.2-1.2,0-1.5,0.2c-0.6,0.4-1.1,1.2-0.8,1.8c0.6,1.2,2.6,1.8,4.2,2.1c1.6,0.3,3.1,0.3,4.8,0.3c0.9,0,1.8,0,2.7,0.1
				c0.4,0,1.2,0,2,0c2.2,0,3.7,0,4.2,0.2c3.9,1.4,8.7,1.2,12.4-0.5L204.6,458z"/>
			<rect x="254.5" y="463.3" class="st10" width="31.6" height="15"/>
			<path class="st7" d="M286.6,478.6H254v-15.7h32.6V478.6z M255,477.9h30.7v-14.3H255V477.9z"/>
			<path class="st13" d="M249.9,463.8c-1.4-0.3-2.8-0.7-3.3-1.7c-0.5-1,0.9-2.2,2.2-1.8c-1.6-1.2-3-2.7-2.9-4.4
				c0-1.7,1.9-3.4,4.2-3.3c1.1,0,2.3,0.4,3.1-0.1c0.5-0.3,0.6-0.7,0.8-1.2c0.7-2.2,2.2-4.5,4.9-5.5c2.1-0.8,4.7-0.8,6.8,0.1
				c2,0.9,3.4,2.5,3.4,4.2c1.8-0.7,3.7-1.3,5.6-1.2s3.9,1.5,3.4,2.9c2.1-0.7,4.2-1.4,6.5-1.5c2.3-0.2,4.7,0.3,6.2,1.6
				c1.5,1.3,1.6,3.4-0.2,4.5c1.7-0.7,4.2,0.3,4.7,1.7c0.5,1.4-0.6,2.9-2.3,3.7c-1.7,0.8-3.8,0.9-5.8,0.8c0.6,0.2,0.7,0.9,0.3,1.3
				c-0.4,0.4-1.1,0.7-1.7,0.8c-1.6,0.3-3.4,0.3-5-0.2c-0.7-0.2-1.3-0.5-2-0.4c-0.6,0-1.2,0.2-1.7,0.4c-2.6,0.8-6.2,1.1-7.9-0.5
				c-2.8,1.2-6.4,1.4-9.4,0.3c-0.6-0.2-3.5-0.1-4.4-0.1C253.5,464,251.8,464.1,249.9,463.8"/>
			<path class="st7" d="M273,465.4c-1.5,0-2.9-0.3-3.9-1.1c-2.9,1.2-6.5,1.2-9.5,0.2c-0.3-0.1-1.9-0.1-2.7-0.1c-0.7,0-1.2,0-1.6,0
				c-0.6,0-1.3,0-1.9,0c-1.2,0-2.4,0-3.7-0.3c-1.9-0.4-3.2-1-3.6-1.9c-0.4-0.7,0.1-1.6,0.8-2c0.2-0.1,0.4-0.2,0.7-0.3
				c-1.2-1-2.3-2.4-2.3-4c0-1,0.7-2.1,1.7-2.8c0.9-0.6,1.9-0.9,3-0.8c0.3,0,0.6,0.1,1,0.1c0.7,0.1,1.4,0.2,1.8-0.1
				c0.3-0.2,0.5-0.6,0.6-0.9c1-2.9,2.7-4.8,5.2-5.8c2.2-0.9,5.1-0.8,7.3,0.1c2,0.8,3.3,2.4,3.6,4c1.5-0.6,3.3-1.1,5.3-1
				c1.3,0.1,2.6,0.6,3.3,1.4c0.4,0.4,0.6,0.8,0.6,1.2c1.7-0.6,3.7-1.2,5.9-1.3c2.7-0.2,5.2,0.4,6.7,1.7c0.9,0.8,1.3,1.8,1.2,2.8
				c-0.1,0.5-0.2,0.9-0.5,1.3c0.5,0,1,0.1,1.5,0.2c1.2,0.4,2.1,1.1,2.4,1.9c0.5,1.5-0.5,3.2-2.5,4.1c-1.6,0.8-3.5,0.9-5.1,0.9
				c0.1,0.4,0,0.8-0.2,1.1c-0.4,0.4-1,0.8-2,1c-1.7,0.4-3.6,0.3-5.3-0.2c-0.1,0-0.3-0.1-0.4-0.1c-0.5-0.2-1-0.3-1.4-0.3
				c-0.5,0-0.9,0.1-1.4,0.3l-0.1,0C276,465.1,274.4,465.4,273,465.4 M269.3,463.4l0.3,0.3c1.5,1.5,4.9,1.2,7.3,0.4l0.1,0
				c0.5-0.2,1.1-0.4,1.8-0.4h0c0.7,0,1.2,0.2,1.8,0.4c0.1,0,0.3,0.1,0.4,0.1c1.5,0.4,3.1,0.5,4.7,0.2c0.7-0.2,1.2-0.4,1.5-0.6
				c0.1-0.2,0.2-0.4,0.1-0.6c0-0.1-0.1-0.2-0.3-0.3l-2.2-0.9l2.5,0.2c1.5,0.1,3.7,0.1,5.5-0.7c1.4-0.6,2.5-2,2.1-3.3
				c-0.2-0.6-0.9-1.2-1.8-1.5c-0.8-0.2-1.5-0.2-2.1,0l-0.6-0.6c0.6-0.4,1-1,1.1-1.7c0.1-0.8-0.3-1.7-1-2.3c-1.2-1.1-3.4-1.6-5.8-1.4
				c-2.3,0.2-4.5,0.9-6.3,1.5l-1,0.3l0.3-0.7c0.2-0.6-0.1-1-0.4-1.3c-0.6-0.6-1.6-1-2.6-1.1c-1.9-0.1-3.8,0.6-5.4,1.1l-0.7,0.3
				l0-0.6c0-1.6-1.3-3.1-3.2-3.9c-1.9-0.8-4.4-0.8-6.3-0.1c-2.2,0.9-3.8,2.6-4.7,5.3c-0.2,0.5-0.3,1-0.9,1.3
				c-0.8,0.5-1.7,0.3-2.6,0.2c-0.3,0-0.6-0.1-0.8-0.1c-1,0-1.8,0.3-2.3,0.7c-0.9,0.6-1.4,1.4-1.4,2.3c0,1.7,1.5,3.2,2.8,4.1l2.1,1.6
				l-2.7-1c-0.4-0.1-0.8,0-0.9,0.1c-0.4,0.3-0.7,0.8-0.5,1.2c0.4,0.8,1.8,1.3,2.9,1.5c1.2,0.2,2.3,0.2,3.4,0.2c0.6,0,1.3,0,2,0
				c0.3,0,0.9,0,1.5,0c1.7,0,2.7,0,3.1,0.2c2.8,1,6.3,0.9,8.9-0.3L269.3,463.4z"/>
			<rect x="462.5" y="457.6" class="st10" width="43.5" height="20.6"/>
			<path class="st7" d="M506.5,478.6H462v-21.4h44.5V478.6z M463,477.9h42.6V458H463V477.9z"/>
			<path class="st13" d="M512.3,458.4c1.9-0.3,3.9-1,4.5-2.3c0.6-1.3-1.2-3.1-3-2.5c2.2-1.6,4.1-3.7,4-6c0-2.3-2.6-4.6-5.8-4.5
				c-1.5,0.1-3.1,0.6-4.2-0.1c-0.6-0.4-0.8-1-1-1.6c-1-3-3-6.2-6.8-7.6c-2.9-1.1-6.5-1.1-9.3,0.1c-2.8,1.2-4.7,3.5-4.7,5.8
				c-2.4-0.9-5-1.8-7.8-1.6c-2.7,0.2-5.4,2.1-4.7,4c-2.9-0.9-5.8-1.9-8.9-2.1c-3.1-0.2-6.5,0.4-8.6,2.1c-2,1.7-2.1,4.7,0.3,6.1
				c-2.4-1-5.7,0.4-6.4,2.3c-0.7,1.9,0.8,4,3.1,5.1c2.3,1.1,5.2,1.3,8,1.1c-0.8,0.3-1,1.3-0.4,1.8c0.5,0.6,1.5,0.9,2.4,1.1
				c2.2,0.5,4.7,0.4,6.9-0.3c0.9-0.3,1.8-0.6,2.8-0.6c0.8,0,1.6,0.3,2.3,0.5c3.6,1.1,8.5,1.6,10.8-0.7c3.8,1.7,8.8,1.9,12.9,0.5
				c0.8-0.3,4.8-0.1,6.1-0.2C507.3,458.6,509.7,458.8,512.3,458.4"/>
			<path class="st7" d="M480.6,460.5c-2,0-4.1-0.4-5.9-1l-0.2,0c-0.7-0.2-1.3-0.4-2-0.4c-0.7,0-1.3,0.2-2,0.4
				c-0.2,0.1-0.4,0.1-0.6,0.2c-2.3,0.7-4.8,0.8-7.2,0.3c-1.3-0.3-2.2-0.7-2.7-1.3c-0.4-0.4-0.5-1-0.3-1.4c0-0.1,0-0.1,0.1-0.2
				c-2.2,0.1-4.8-0.1-7.1-1.2c-2.6-1.2-4.1-3.6-3.4-5.5c0.4-1.1,1.6-2.1,3.2-2.6c0.8-0.2,1.6-0.3,2.3-0.3c-0.5-0.6-0.8-1.2-0.8-1.9
				c-0.2-1.4,0.4-2.8,1.6-3.8c2-1.7,5.3-2.5,9-2.3c3,0.2,5.9,1.1,8.3,1.9c0-0.6,0.3-1.3,0.8-1.8c1-1,2.7-1.8,4.4-1.9
				c2.7-0.2,5.2,0.6,7.4,1.4c0.3-2.3,2.2-4.4,4.9-5.6c3-1.3,6.8-1.3,9.8-0.1c3.3,1.3,5.7,3.9,7,7.9l0,0c0.2,0.5,0.4,1.1,0.9,1.4
				c0.6,0.4,1.6,0.3,2.6,0.1c0.4-0.1,0.9-0.1,1.3-0.1c1.4-0.1,2.9,0.3,4,1.1c1.4,1,2.3,2.4,2.3,3.7c0,2.2-1.6,4.2-3.3,5.6
				c0.4,0.1,0.8,0.2,1.1,0.4c0.9,0.6,1.5,1.6,1,2.6c-0.6,1.2-2.3,2.1-4.9,2.6c-1.7,0.3-3.4,0.3-5,0.3c-0.9,0-1.7,0-2.6,0.1
				c-0.5,0-1.2,0-2.1,0c-1.3,0-3.4,0-3.8,0.1c-4,1.4-9.1,1.3-13-0.3C484.6,460,482.6,460.5,480.6,460.5 M472.6,458.3
				C472.6,458.3,472.6,458.3,472.6,458.3c0.9,0,1.7,0.3,2.4,0.5l0.2,0c3.4,1.1,8.1,1.6,10.2-0.6l0.3-0.3l0.4,0.2
				c3.7,1.6,8.5,1.8,12.4,0.5c0.6-0.2,2-0.2,4.2-0.2c0.8,0,1.6,0,2,0c0.9-0.1,1.8-0.1,2.7-0.1c1.6,0,3.1,0,4.8-0.3
				c1.6-0.3,3.6-0.9,4.2-2.1c0.3-0.6-0.2-1.4-0.8-1.8c-0.3-0.2-0.9-0.5-1.5-0.2l-2.7,1l2.1-1.6c1.8-1.3,4-3.4,3.9-5.8
				c0-1.2-0.8-2.4-2-3.2c-1-0.7-2.1-1-3.3-0.9c-0.4,0-0.8,0.1-1.2,0.1c-1.1,0.1-2.4,0.3-3.4-0.3c-0.8-0.5-1-1.1-1.2-1.8l0,0
				c-1.2-3.7-3.4-6.2-6.5-7.4c-2.7-1.1-6.2-1-8.9,0.1c-2.7,1.1-4.4,3.3-4.5,5.5l0,0.6l-0.7-0.3c-2.1-0.8-4.8-1.8-7.5-1.6
				c-1.4,0.1-2.9,0.7-3.7,1.6c-0.4,0.4-0.8,1.1-0.5,1.9l0.3,0.7l-1-0.3c-2.5-0.8-5.6-1.9-8.8-2.1c-3.3-0.2-6.4,0.5-8.1,2
				c-1,0.9-1.5,2.1-1.4,3.3c0.1,1,0.7,1.8,1.6,2.4l-0.6,0.6c-0.9-0.4-2-0.4-3.1,0c-1.3,0.4-2.3,1.2-2.6,2.1
				c-0.6,1.7,0.6,3.6,2.9,4.7c2.5,1.1,5.5,1.2,7.6,1l2.5-0.2l-2.2,0.9c-0.3,0.1-0.4,0.3-0.5,0.5c-0.1,0.3,0,0.6,0.2,0.9
				c0.4,0.4,1.1,0.7,2.1,0.9c2.1,0.4,4.5,0.4,6.6-0.2c0.2-0.1,0.4-0.1,0.5-0.2C470.9,458.6,471.7,458.3,472.6,458.3"/>
			<rect x="404.1" y="463.3" class="st10" width="31.6" height="15"/>
			<path class="st7" d="M436.3,478.6h-32.6v-15.7h32.6V478.6z M404.6,477.9h30.7v-14.3h-30.7V477.9z"/>
			<path class="st13" d="M440.3,463.8c1.4-0.3,2.8-0.7,3.3-1.7c0.5-1-0.9-2.2-2.2-1.8c1.6-1.2,3-2.7,2.9-4.4c0-1.7-1.9-3.4-4.2-3.3
				c-1.1,0-2.3,0.4-3.1-0.1c-0.5-0.3-0.6-0.7-0.8-1.2c-0.7-2.2-2.2-4.5-4.9-5.5c-2.1-0.8-4.7-0.8-6.8,0.1c-2,0.9-3.4,2.5-3.4,4.2
				c-1.8-0.7-3.7-1.3-5.6-1.2c-2,0.1-3.9,1.5-3.4,2.9c-2.1-0.7-4.2-1.4-6.5-1.5c-2.3-0.2-4.7,0.3-6.2,1.6c-1.5,1.3-1.6,3.4,0.2,4.5
				c-1.7-0.7-4.2,0.3-4.7,1.7c-0.5,1.4,0.6,2.9,2.3,3.7c1.7,0.8,3.8,0.9,5.8,0.8c-0.6,0.2-0.7,0.9-0.3,1.3c0.4,0.4,1.1,0.7,1.7,0.8
				c1.6,0.3,3.4,0.3,5-0.2c0.7-0.2,1.3-0.5,2-0.4c0.6,0,1.2,0.2,1.7,0.4c2.6,0.8,6.2,1.1,7.9-0.5c2.8,1.2,6.4,1.4,9.4,0.3
				c0.6-0.2,3.5-0.1,4.4-0.1C436.7,464,438.4,464.1,440.3,463.8"/>
			<path class="st7" d="M417.3,465.4c-1.5,0-3-0.3-4.3-0.7l-0.1,0c-0.5-0.2-0.9-0.3-1.4-0.3c-0.5,0-0.9,0.1-1.4,0.3
				c-0.1,0-0.3,0.1-0.4,0.1c-1.7,0.5-3.6,0.6-5.3,0.2c-1-0.2-1.6-0.5-2-1c-0.3-0.3-0.4-0.7-0.2-1.1c-1.6,0-3.4-0.1-5.1-0.9
				c-2-0.9-3-2.6-2.5-4.1c0.3-0.8,1.2-1.6,2.4-1.9c0.5-0.2,1-0.2,1.5-0.2c-0.3-0.4-0.4-0.8-0.5-1.3c-0.1-1,0.3-2.1,1.2-2.8
				c1.5-1.2,3.9-1.9,6.7-1.7c2.1,0.1,4.1,0.7,5.9,1.3c0-0.4,0.2-0.9,0.6-1.2c0.7-0.8,2-1.3,3.3-1.4c1.9-0.1,3.7,0.4,5.3,1
				c0.3-1.6,1.7-3.2,3.6-4c2.2-0.9,5-1,7.3-0.1c2.5,1,4.2,2.9,5.2,5.8c0.1,0.4,0.3,0.8,0.6,1c0.4,0.2,1.1,0.2,1.8,0.1
				c0.3,0,0.6-0.1,1-0.1c1.1,0,2.1,0.3,3,0.8c1.1,0.7,1.7,1.8,1.7,2.8c0,1.6-1.1,3-2.3,4c0.2,0.1,0.5,0.2,0.7,0.3
				c0.7,0.4,1.2,1.2,0.8,2c-0.4,0.9-1.7,1.6-3.6,1.9c-1.3,0.2-2.5,0.2-3.7,0.3c-0.6,0-1.3,0-1.9,0c-0.3,0-0.9,0-1.6,0
				c-0.8,0-2.4,0-2.7,0.1c-2.9,1-6.6,1-9.5-0.2C420.2,465.1,418.8,465.4,417.3,465.4 M411.4,463.7L411.4,463.7
				c0.7,0,1.3,0.2,1.8,0.4l0.1,0c2.4,0.8,5.7,1.1,7.3-0.4l0.3-0.3l0.4,0.2c2.6,1.2,6.1,1.3,8.9,0.3c0.4-0.2,1.5-0.2,3.1-0.2
				c0.6,0,1.2,0,1.5,0c0.7,0,1.3,0,2,0c1.2,0,2.3,0,3.4-0.2c1.1-0.2,2.5-0.6,2.9-1.5c0.2-0.4-0.1-0.9-0.5-1.2
				c-0.2-0.1-0.5-0.3-0.9-0.1l-2.7,1l2.1-1.6c1.3-0.9,2.8-2.4,2.8-4.1c0-0.8-0.6-1.7-1.4-2.3c-0.5-0.3-1.3-0.7-2.3-0.7
				c-0.3,0-0.5,0-0.8,0.1c-0.9,0.1-1.8,0.2-2.6-0.2c-0.6-0.3-0.8-0.9-0.9-1.3c-0.9-2.7-2.5-4.5-4.7-5.3c-1.9-0.8-4.4-0.7-6.3,0.1
				c-1.9,0.8-3.1,2.3-3.2,3.9l0,0.6l-0.7-0.3c-1.5-0.6-3.5-1.3-5.4-1.1c-1,0.1-2,0.5-2.6,1.1c-0.3,0.3-0.6,0.8-0.4,1.3l0.3,0.7
				l-1-0.3c-1.8-0.6-4-1.3-6.3-1.5c-2.4-0.2-4.6,0.4-5.8,1.4c-0.7,0.6-1.1,1.5-1,2.3c0.1,0.7,0.5,1.3,1.1,1.7l-0.6,0.6
				c-0.6-0.2-1.4-0.3-2.1,0c-0.9,0.3-1.6,0.8-1.8,1.5c-0.5,1.3,0.7,2.7,2.1,3.3c1.8,0.8,3.9,0.8,5.5,0.7l2.5-0.2l-2.2,0.9
				c-0.2,0.1-0.2,0.2-0.3,0.3c-0.1,0.2,0,0.4,0.1,0.6c0.2,0.3,0.7,0.5,1.5,0.6c1.5,0.3,3.2,0.3,4.7-0.2c0.1,0,0.3-0.1,0.4-0.1
				C410.2,463.9,410.8,463.7,411.4,463.7"/>
		</g>
	</g>
</g>
</svg>
