<?xml version="1.0" encoding="utf-8"?>
<!-- Generator: Adobe Illustrator 22.1.0, SVG Export Plug-In . SVG Version: 6.00 Build 0)  -->
<svg version="1.1" id="A1" xmlns="http://www.w3.org/2000/svg" xmlns:xlink="http://www.w3.org/1999/xlink" x="0px" y="0px"
	 viewBox="0 0 690 500" style="enable-background:new 0 0 690 500;" xml:space="preserve">
<style type="text/css">
	.st0{clip-path:url(#SVGID_2_);fill:#BBECFF;}
	.st1{clip-path:url(#SVGID_2_);}
	.st2{clip-path:url(#SVGID_4_);fill:#FFFFFF;}
	.st3{clip-path:url(#SVGID_4_);fill:#99BD11;}
	.st4{clip-path:url(#SVGID_4_);fill:#3B4C56;}
	.st5{clip-path:url(#SVGID_4_);fill:#CCCDCE;}
	.st6{clip-path:url(#SVGID_4_);fill:#FFE7B3;}
	.st7{clip-path:url(#SVGID_4_);fill:#0C6BF4;}
	.st8{clip-path:url(#SVGID_4_);fill:none;stroke:#000000;stroke-width:1.7621;stroke-miterlimit:10;}
	.st9{clip-path:url(#SVGID_4_);fill:#FF3938;}
	.st10{clip-path:url(#SVGID_4_);fill:#FFEC8D;}
	.st11{clip-path:url(#SVGID_4_);fill:#8E2303;}
	.st12{clip-path:url(#SVGID_4_);fill:#FF672E;}
	.st13{clip-path:url(#SVGID_4_);fill:#FFD878;}
	.st14{clip-path:url(#SVGID_4_);}
	.st15{clip-path:url(#SVGID_4_);fill:#FF881D;}
</style>
<g>
	<g>
		<defs>
			<rect id="SVGID_1_" x="0" width="690" height="500"/>
		</defs>
		<clipPath id="SVGID_2_">
			<use xlink:href="#SVGID_1_"  style="overflow:visible;"/>
		</clipPath>
		<rect x="0" class="st0" width="690" height="186.3"/>
		<g class="st1">
			<defs>
				<rect id="SVGID_3_" x="0" width="690" height="500"/>
			</defs>
			<clipPath id="SVGID_4_">
				<use xlink:href="#SVGID_3_"  style="overflow:visible;"/>
			</clipPath>
			<path class="st2" d="M117.3,85.2c6.7-0.1,15.5-1.7,15.9-6.5c0.4-4.8-7.8-7.1-14.3-8c4.3,2.2,10.8-0.5,12.2-4.2s-0.8-7.6-3.6-10.9
				c-11.6-13.6-34.4-21.7-56.3-20c3-9.4-6.9-19.4-19.8-21.8s-27,1.9-35.7,9.1C6.9,30.1,3.1,39.9,2.5,49.6
				c-11.3-4.5-25.7-5.4-37.2-1.2c-11.5,4.2-19.1,14.2-16.1,23.2c6.5,19.5,42.9,11.9,62.3,12.6C46.8,85.6,82,85.9,117.3,85.2"/>
			<path class="st2" d="M486.9,43c-10.5-3.8-20.7-12.4-15.6-20.1c6-8.9,24.2-6.5,36.9-2.6c-4.1-7.8-8.2-17-2.4-24.3
				c5-6.3,16.3-8.9,26.3-8c10,0.8,19.1,4.4,28,7.9c-5.5-9.1-3.3-20.1,4.2-28.5c7.4-8.3,19.6-14.2,32.6-17.2
				c23.2-5.4,50.3-2.1,68.9,9.4c18.6,11.5,27.5,30.9,20.8,47.9c14.9-11.3,37.5-16.5,59-15.1c21.5,1.4,41.8,8.8,57.8,19.2
				c9,5.9,16.5,17,6.9,22.4c-6.1,3.5-22.4,5.1-30.1,6.7c-15,3.2-30.9,3.8-46.4,4.4c-46,1.8-92,3.6-137.9,5.5
				C560.4,52.1,520.2,55.1,486.9,43"/>
			<path class="st2" d="M395.8,98.3c-77.1,13.3-157.2,17.4-236.1,11.9c-8.1-0.6-16.4-1.3-23.3-4.4c-6.9-3.1-11.8-9.3-9.2-14.9
				c2.6-5.7,11.9-8.6,20.1-8c8.2,0.5,15.6,3.7,22.7,6.8c-8.4-8.1,1.9-19.3,11.7-26.6c7-5.2,13.9-10.3,20.9-15.5
				c5.2-3.9,10.8-7.9,18-9.2c12.3-2.2,24.6,4.2,31.4,12c6.7,7.8,9.9,16.9,16.3,24.8c22.1-12.6,52.8-13.3,80.8-11.4
				c10.3,0.7,21,1.8,29.7,5.9c8.7,4.1,14.6,12.2,11.2,19.3c3.8-1.2,7.8-2.5,11.9-2.2c4.1,0.3,8.2,2.9,7.6,5.9
				c-0.7,3.4-6.2,4.8-10.9,5.6c-10.7,1.7-21.5,3.4-32.2,5.1"/>
			<rect x="-10" y="170" class="st3" width="743.5" height="64.8"/>
			<rect x="-29.7" y="218.8" class="st4" width="788.3" height="50.8"/>
			<rect x="578.4" y="147.8" class="st2" width="9.7" height="146"/>
			<rect x="625.3" y="147.8" class="st2" width="9.7" height="146"/>
			<rect x="672.1" y="147.8" class="st2" width="9.7" height="146"/>
			<rect x="-95.4" y="217.2" class="st2" width="920" height="7"/>
			<rect x="390.9" y="147.8" class="st2" width="9.7" height="146"/>
			<rect x="437.8" y="147.8" class="st2" width="9.7" height="146"/>
			<rect x="484.7" y="147.8" class="st2" width="9.7" height="146"/>
			<rect x="531.5" y="147.8" class="st2" width="9.7" height="146"/>
			<rect x="203.5" y="147.8" class="st2" width="9.7" height="146"/>
			<rect x="250.4" y="147.8" class="st2" width="9.7" height="146"/>
			<rect x="297.2" y="147.8" class="st2" width="9.7" height="146"/>
			<rect x="344.1" y="147.8" class="st2" width="9.7" height="146"/>
			<rect x="16" y="147.8" class="st2" width="9.7" height="146"/>
			<rect x="62.9" y="147.8" class="st2" width="9.7" height="146"/>
			<rect x="109.8" y="147.8" class="st2" width="9.7" height="146"/>
			<rect x="156.6" y="147.8" class="st2" width="9.7" height="146"/>
			<rect x="-29.7" y="264.3" class="st5" width="788.3" height="38.8"/>
			<rect x="-70.7" y="278" class="st3" width="786.9" height="230"/>
			<path class="st6" d="M604.8,334.8H18.6c-26.7,0-48.3,15.7-48.3,35v124.6c0,19.3,21.6,35,48.3,35h586.2c26.7,0,48.3-15.7,48.3-35
				V369.7C653.1,350.4,631.5,334.8,604.8,334.8"/>
			<path class="st7" d="M-9.2,31.5v56v0v25.6v0.6v25v0.6v25v0.6v25v0.6v25v0.6v25v0.6v20.8v4.2v0.6v19.3v6.3v16.9h8.1v-16.9h103.4
				v16.9h8.1v-16.9v-25.6v-0.6v-4.2v-20.8v-0.6v-25v-0.6v-25V190v-25v-0.6v-25v-0.6v-25v-0.6V87.6v0v-56H-9.2z M-1.1,270.2h103.4
				v16.7H-1.1V270.2z M102.3,264.3H-1.1v-1.6v-18.2h103.4v18.2V264.3z M102.3,238.7H-1.1v-19.8h103.4V238.7z M102.3,213.1H-1.1
				v-19.8h103.4V213.1z M102.3,187.4H-1.1v-19.8h103.4V187.4z M102.3,161.8H-1.1V142h103.4V161.8z M102.3,136.2H-1.1v-19.8h103.4
				V136.2z M102.3,110.6H-1.1V90.8h103.4V110.6z M-1.1,35.3h103.4v48.5H-1.1V35.3z"/>
			<path class="st8" d="M-9.2,31.5v56v0v25.6v0.6v25v0.6v25v0.6v25v0.6v25v0.6v25v0.6v20.8v4.2v0.6v19.3v6.3v16.9h8.1v-16.9h103.4
				v16.9h8.1v-16.9v-25.6v-0.6v-4.2v-20.8v-0.6v-25v-0.6v-25V190v-25v-0.6v-25v-0.6v-25v-0.6V87.6v0v-56H-9.2z M-1.1,270.2h103.4
				v16.7H-1.1V270.2z M102.3,264.3H-1.1v-1.6v-18.2h103.4v18.2V264.3z M102.3,238.7H-1.1v-19.8h103.4V238.7z M102.3,213.1H-1.1
				v-19.8h103.4V213.1z M102.3,187.4H-1.1v-19.8h103.4V187.4z M102.3,161.8H-1.1V142h103.4V161.8z M102.3,136.2H-1.1v-19.8h103.4
				V136.2z M102.3,110.6H-1.1V90.8h103.4V110.6z M-1.1,35.3h103.4v48.5H-1.1V35.3z"/>
			<polygon class="st7" points="144.8,97.9 144.8,310.6 152.8,310.6 152.8,102 256,102 256,310.6 264.3,310.6 264.3,97.9 			"/>
			<polygon class="st8" points="144.8,97.9 144.8,310.6 152.8,310.6 152.8,102 256,102 256,310.6 264.3,310.6 264.3,97.9 			"/>
			<polygon class="st7" points="535.3,150 535.3,310.1 543.3,310.1 543.3,154 646.5,154 646.5,310.1 654.8,310.1 654.8,150 			"/>
			<polygon class="st8" points="535.3,150 535.3,310.1 543.3,310.1 543.3,154 646.5,154 646.5,310.1 654.8,310.1 654.8,150 			"/>
			<path class="st9" d="M349.3,74.5v61.1v0.1v27.9v0.7v27.3v0.7v27.3v0.7v27.3v0.7v27.3v0.7v27.3v0.7v22.7v4.6v0.7v21.1v6.9v18.4
				h7.2v-18.4h92.7v18.4h7.2v-18.4v-28v-0.7v-4.6v-22.7v-0.7v-27.3v-0.7v-27.3v-0.7v-27.3v-0.7v-27.3v-0.7v-27.3v-0.7v-27.9v-0.1
				V74.5H349.3z M356.6,335h92.7v18.2h-92.7V335z M449.2,328.7h-92.7v-1.8v-19.8h92.7v19.8V328.7z M449.2,300.7h-92.7v-21.6h92.7
				V300.7z M449.2,272.7h-92.7v-21.6h92.7V272.7z M449.2,244.7h-92.7v-21.6h92.7V244.7z M449.2,216.8h-92.7v-21.6h92.7V216.8z
				 M449.2,188.8h-92.7v-21.6h92.7V188.8z M449.2,160.8h-92.7v-21.6h92.7V160.8z M356.6,78.6h92.7v52.9h-92.7V78.6z"/>
			<path class="st8" d="M349.3,74.5v61.1v0.1v27.9v0.7v27.3v0.7v27.3v0.7v27.3v0.7v27.3v0.7v27.3v0.7v22.7v4.6v0.7v21.1v6.9v18.4
				h7.2v-18.4h92.7v18.4h7.2v-18.4v-28v-0.7v-4.6v-22.7v-0.7v-27.3v-0.7v-27.3v-0.7v-27.3v-0.7v-27.3v-0.7v-27.3v-0.7v-27.9v-0.1
				V74.5H349.3z M356.6,335h92.7v18.2h-92.7V335z M449.2,328.7h-92.7v-1.8v-19.8h92.7v19.8V328.7z M449.2,300.7h-92.7v-21.6h92.7
				V300.7z M449.2,272.7h-92.7v-21.6h92.7V272.7z M449.2,244.7h-92.7v-21.6h92.7V244.7z M449.2,216.8h-92.7v-21.6h92.7V216.8z
				 M449.2,188.8h-92.7v-21.6h92.7V188.8z M449.2,160.8h-92.7v-21.6h92.7V160.8z M356.6,78.6h92.7v52.9h-92.7V78.6z"/>
			<path class="st9" d="M228.6,74.5v61.1v0.1v27.9v0.7v27.3v0.7v27.3v0.7v27.3v0.7v27.3v0.7v27.3v0.7v22.7v4.6v0.7v21.1v6.9v18.4
				h7.2v-18.4h92.7v18.4h7.2v-18.4v-28v-0.7v-4.6v-22.7v-0.7v-27.3v-0.7v-27.3v-0.7v-27.3v-0.7v-27.3v-0.7v-27.3v-0.7v-27.9v-0.1
				V74.5H228.6z M235.8,78.6h92.7v274.7h-92.7V78.6z"/>
			<path class="st8" d="M228.6,74.5v61.1v0.1v27.9v0.7v27.3v0.7v27.3v0.7v27.3v0.7v27.3v0.7v27.3v0.7v22.7v4.6v0.7v21.1v6.9v18.4
				h7.2v-18.4h92.7v18.4h7.2v-18.4v-28v-0.7v-4.6v-22.7v-0.7v-27.3v-0.7v-27.3v-0.7v-27.3v-0.7v-27.3v-0.7v-27.3v-0.7v-27.9v-0.1
				V74.5H228.6z M235.8,78.6h92.7v274.7h-92.7V78.6z"/>
			<polygon class="st10" points="356.6,131.6 282.1,131.6 278.5,155.7 265.3,200.5 233,264.4 174.6,329 79.8,383.7 44.6,396.2 
				134.1,415.3 158.4,407.3 229.8,367.1 265.7,331.3 309.6,272.7 334.9,211.4 346.3,160.8 			"/>
			<polygon class="st8" points="356.6,131.6 282.1,131.6 278.5,155.7 265.3,200.5 233,264.4 174.6,329 79.8,383.7 44.6,396.2 
				134.1,415.3 158.4,407.3 229.8,367.1 265.7,331.3 309.6,272.7 334.9,211.4 346.3,160.8 			"/>
			<path class="st9" d="M125.5,413.5l15.6,3.2C272.8,377,334.9,270.3,356.6,131.6h-15.6C323.7,266.2,257.9,370.6,125.5,413.5"/>
			<path class="st8" d="M125.5,413.5l15.6,3.2C272.8,377,334.9,270.3,356.6,131.6h-15.6C323.7,266.2,257.9,370.6,125.5,413.5z"/>
			<path class="st9" d="M34.8,394.2l15.6,3.2c131.7-39.7,216.7-127,238.3-265.8h-15.2C256.3,266.2,167.3,351.3,34.8,394.2"/>
			<path class="st8" d="M34.8,394.2l15.6,3.2c131.7-39.7,216.7-127,238.3-265.8h-15.2C256.3,266.2,167.3,351.3,34.8,394.2z"/>
			<polygon class="st11" points="346.8,421.1 383.2,400.2 616,400.2 642.4,421.1 			"/>
			<polygon class="st8" points="346.8,421.1 383.2,400.2 616,400.2 642.4,421.1 			"/>
			<rect x="344.4" y="421.1" class="st12" width="300.4" height="23.5"/>
			<rect x="344.4" y="421.1" class="st8" width="300.4" height="23.5"/>
			<path class="st13" d="M610.6,405.9c-1.4-2.9-4.4-5.5-8.6-6.1c-4-0.6-8,0.8-12.1,0.7c1.3-4.3-0.8-8.9-4.6-12.3
				c-3.8-3.4-9.2-5.8-14.7-7.6c-7.5-2.5-15.7-4-23.8-3.6c-8.2,0.4-16.4,3.1-21.3,7.8c-1,0.9-1.9,2-3.4,2.4c-1.2,0.3-2.6,0.2-3.8,0
				c-7.4-1.4-12.8-6.8-20.4-7.5c-6-0.6-11.8,1.9-16,5c-1,0.7-2.1,1.6-3.5,1.8c-1.2,0.2-2.4-0.1-3.6-0.5c-7.4-2.5-12.4-7.8-19.2-11.1
				c-9.7-4.7-22.2-4.9-33.7-3.7c-4.6,0.5-9.3,1.2-13.3,3c-4,1.8-7.1,4.9-7.1,8.2c0,3.8,3.6,7.9,0.6,11.1c-3.1,3.3-10.9,2.4-14.2,5.5
				c-2.3,2.2-1.6,5.6-3.9,7.8c-1.3,1.3-3.4,1.9-5,3c-5.2,3.4-1.2,6.9-2.1,10.8c3.9,1.1,9.9,0.4,14.2,0.4h128.9h62.3
				c4.1,0,28.1,1.9,30.2-0.2c1-1-1.5-3.7-1.7-4.9c-0.4-2.8,1.3-5.5,0.5-8.5C611,407,610.8,406.4,610.6,405.9"/>
			<path class="st8" d="M610.6,405.9c-1.4-2.9-4.4-5.5-8.6-6.1c-4-0.6-8,0.8-12.1,0.7c1.3-4.3-0.8-8.9-4.6-12.3
				c-3.8-3.4-9.2-5.8-14.7-7.6c-7.5-2.5-15.7-4-23.8-3.6c-8.2,0.4-16.4,3.1-21.3,7.8c-1,0.9-1.9,2-3.4,2.4c-1.2,0.3-2.6,0.2-3.8,0
				c-7.4-1.4-12.8-6.8-20.4-7.5c-6-0.6-11.8,1.9-16,5c-1,0.7-2.1,1.6-3.5,1.8c-1.2,0.2-2.4-0.1-3.6-0.5c-7.4-2.5-12.4-7.8-19.2-11.1
				c-9.7-4.7-22.2-4.9-33.7-3.7c-4.6,0.5-9.3,1.2-13.3,3c-4,1.8-7.1,4.9-7.1,8.2c0,3.8,3.6,7.9,0.6,11.1c-3.1,3.3-10.9,2.4-14.2,5.5
				c-2.3,2.2-1.6,5.6-3.9,7.8c-1.3,1.3-3.4,1.9-5,3c-5.2,3.4-1.2,6.9-2.1,10.8c3.9,1.1,9.9,0.4,14.2,0.4h128.9h62.3
				c4.1,0,28.1,1.9,30.2-0.2c1-1-1.5-3.7-1.7-4.9c-0.4-2.8,1.3-5.5,0.5-8.5C611,407,610.8,406.4,610.6,405.9z"/>
			<path class="st13" d="M578.8,387.5H526l5.6-29.1c0.5-2.4,4.4-4.2,9.1-4.2h23.5c4.7,0,8.6,1.8,9.1,4.2L578.8,387.5z"/>
			<path class="st8" d="M578.8,387.5H526l5.6-29.1c0.5-2.4,4.4-4.2,9.1-4.2h23.5c4.7,0,8.6,1.8,9.1,4.2L578.8,387.5z"/>
			<path class="st13" d="M496,421.4c-0.7-23.6-27.3-42.6-60-42.6s-59.3,19-60,42.6H496z"/>
			<path class="st8" d="M496,421.4c-0.7-23.6-27.3-42.6-60-42.6s-59.3,19-60,42.6H496z"/>
			<path class="st13" d="M283.6,460.2h-56.4l5.9-44.4c0.5-3.6,4.7-6.4,9.7-6.4H268c5,0,9.2,2.8,9.7,6.4L283.6,460.2z"/>
			<path class="st8" d="M283.6,460.2h-56.4l5.9-44.4c0.5-3.6,4.7-6.4,9.7-6.4H268c5,0,9.2,2.8,9.7,6.4L283.6,460.2z"/>
			<path class="st13" d="M436.4,466.9h-52.8l5.6-29.1c0.5-2.4,4.4-4.2,9.1-4.2h23.5c4.7,0,8.6,1.8,9.1,4.2L436.4,466.9z"/>
			<path class="st8" d="M436.4,466.9h-52.8l5.6-29.1c0.5-2.4,4.4-4.2,9.1-4.2h23.5c4.7,0,8.6,1.8,9.1,4.2L436.4,466.9z"/>
			<path class="st13" d="M270.7,409.5h-30.3l3.2-16.7c0.3-1.4,2.5-2.4,5.2-2.4h13.5c2.7,0,4.9,1,5.2,2.4L270.7,409.5z"/>
			<path class="st8" d="M270.7,409.5h-30.3l3.2-16.7c0.3-1.4,2.5-2.4,5.2-2.4h13.5c2.7,0,4.9,1,5.2,2.4L270.7,409.5z"/>
			<path class="st13" d="M494.4,485.7h-39.6l4.2-40.6c0.3-3.3,3.3-5.8,6.8-5.8h17.6c3.5,0,6.5,2.5,6.8,5.8L494.4,485.7z"/>
			<path class="st8" d="M494.4,485.7h-39.6l4.2-40.6c0.3-3.3,3.3-5.8,6.8-5.8h17.6c3.5,0,6.5,2.5,6.8,5.8L494.4,485.7z"/>
			<path class="st13" d="M375.6,477.3c-0.7-23.6-27.3-42.6-60-42.6c-32.7,0-59.3,19-60,42.6H375.6z"/>
			<path class="st8" d="M375.6,477.3c-0.7-23.6-27.3-42.6-60-42.6c-32.7,0-59.3,19-60,42.6H375.6z"/>
			<path class="st14" d="M95.7,468.9c-0.5-23.1,26.1-43.3,59.8-43.6c31.9-0.3,61.1,18.3,61.2,43.7c0.1,23.8-26.5,43.4-58.5,44
				C123.3,513.7,95,493.1,95.7,468.9 M133.2,457.4c0.6,0.5,0.7,0.7,1,0.9c6.5,3.5,10.7,8.4,12.7,13.9c2.8,7.3,4.8,14.8,6.7,22.3
				c1.4,5.5,4,10.5,10.1,14.2c0.9,0.6,2.6,1,3.8,0.8c12.7-1.8,23.2-6.3,31.7-13.3c1.3-1.1,1.6-2,0.8-3.3
				c-11.5-18.9-30.5-32.9-54.9-43.2c-0.6-0.3-2-0.3-2.3,0C139.5,452.2,136.3,454.8,133.2,457.4 M131.1,460.2
				c-0.6,0.7-1.1,1.1-1.4,1.5c-9.1,11.1-12.6,23.2-12.7,36c0,0.9,0.8,2,1.7,2.5c8,5,17.2,8.4,27.7,9.6c4.4,0.5,9,0.4,13.6,0.7
				c-2.6-3.1-5.5-5.6-7-8.6c-1.9-3.7-2.7-7.7-3.7-11.6c-1.8-6.8-3.2-13.7-7.2-20.2C139.6,466.3,136.5,462.7,131.1,460.2 M146.4,447
				c25.4,11,44.8,25.4,57.2,45c0.8-0.9,1.4-1.5,1.9-2.1c5.3-6.7,8.2-13.9,7.6-21.7c-0.6-7.9-5.2-13.4-15.5-16
				c-5.3-1.3-10.9-2-16.5-2.8c-9.1-1.3-18.3-2.2-26.2-6.1c-0.5-0.3-1.7-0.3-2.2,0C150.6,444.4,148.7,445.6,146.4,447 M112.2,495.9
				c0.4-0.1,0.8-0.2,1.1-0.3c0.7-13.1,4.8-25.4,14.3-36.5c-0.3-0.3-0.4-0.4-0.6-0.5c-11-3.6-20.3-0.8-27.2,5.5
				c-0.4,0.4-0.6,1-0.7,1.5c-0.7,7.7,0.8,15.1,5.9,22C107.2,490.5,109.9,493.2,112.2,495.9 M156.8,441.1c2,0.8,3.2,1.6,4.5,1.8
				c6.6,1.4,13.3,2.9,20,3.9c9.2,1.4,18.7,2,26.5,6.4c0.1,0,0.3-0.1,0.5-0.1c0-0.2,0-0.4-0.1-0.5c-5.3-8.7-13.7-15.3-25.3-19.8
				c-0.9-0.3-2.4-0.3-3.3,0c-5,1.6-10,3.2-15,5C162.3,438.6,159.9,439.7,156.8,441.1 M100.8,459.2c13-5.4,13-5.4,28.1-3
				c0.5,0.1,1.4,0,1.7-0.3c3.2-2.7,6.2-5.5,9.8-8.7c-6.5-1.7-12.6-3.6-18.9-4.8c-8.5-1.6-6.6-2.6-12.5,3.4
				C105.1,449.8,102.4,454.1,100.8,459.2 M141.7,429.2c-8.9,1.6-17,4.8-23.9,9.3c8.3,2.4,16.4,4.7,24.4,6.9c0.4,0.1,1.1,0.1,1.5-0.1
				c2.4-1.4,4.7-2.9,6.6-4C147.3,437.2,144.6,433.2,141.7,429.2 M146.1,428.4c1.1,3.8,3.3,7,6.5,9.8c1.1,1,2,0.9,3.4,0.3
				c6.1-2.4,12.2-4.7,18.3-7.1c0.6-0.2,1.2-0.5,2.2-0.9C166.5,427.7,156.6,427.2,146.1,428.4"/>
			<path class="st15" d="M133.2,457.4c3.2-2.6,6.3-5.3,9.6-7.8c0.4-0.3,1.7-0.3,2.3,0c24.4,10.3,43.4,24.3,54.9,43.2
				c0.8,1.4,0.5,2.2-0.8,3.3c-8.5,7.1-19,11.6-31.7,13.3c-1.2,0.2-2.8-0.3-3.8-0.8c-6-3.7-8.7-8.6-10.1-14.2c-1.9-7.5-4-15-6.7-22.3
				c-2.1-5.5-6.2-10.3-12.7-13.9C133.9,458.2,133.7,457.9,133.2,457.4"/>
			<path class="st15" d="M131.1,460.2c5.4,2.5,8.5,6.1,10.9,10c4,6.4,5.4,13.3,7.2,20.2c1,3.9,1.9,7.9,3.7,11.6
				c1.5,2.9,4.4,5.4,7,8.6c-4.6-0.2-9.2-0.1-13.6-0.7c-10.5-1.2-19.7-4.5-27.7-9.6c-0.9-0.6-1.7-1.7-1.7-2.5
				c0.1-12.8,3.7-24.9,12.7-36C130.1,461.3,130.5,460.9,131.1,460.2"/>
			<path class="st15" d="M146.4,447c2.3-1.4,4.3-2.6,6.4-3.6c0.5-0.3,1.6-0.2,2.2,0c7.9,3.9,17.1,4.8,26.2,6.1
				c5.5,0.8,11.2,1.5,16.5,2.8c10.3,2.6,14.9,8,15.5,16c0.5,7.8-2.3,15-7.6,21.7c-0.5,0.6-1,1.2-1.9,2.1
				C191.2,472.4,171.7,457.9,146.4,447"/>
			<path class="st15" d="M112.2,495.9c-2.4-2.8-5-5.5-7.1-8.4c-5-6.9-6.5-14.3-5.9-22c0-0.5,0.2-1.1,0.7-1.5
				c6.8-6.3,16.2-9.1,27.2-5.5c0.1,0,0.2,0.2,0.6,0.5c-9.6,11.1-13.6,23.5-14.3,36.5C113,495.8,112.6,495.9,112.2,495.9"/>
			<path class="st15" d="M156.8,441.1c3.1-1.3,5.4-2.5,7.9-3.4c4.9-1.7,9.9-3.4,15-5c0.9-0.3,2.4-0.3,3.3,0
				c11.5,4.5,20,11.1,25.3,19.8c0.1,0.2,0.1,0.4,0.1,0.5c-0.2,0.1-0.4,0.2-0.5,0.1c-7.8-4.3-17.3-4.9-26.5-6.4
				c-6.7-1.1-13.4-2.5-20-3.9C160,442.6,158.9,441.9,156.8,441.1"/>
			<path class="st15" d="M100.8,459.2c1.6-5.1,4.3-9.4,8.1-13.3c5.9-6,4-5,12.5-3.4c6.3,1.2,12.4,3.1,18.9,4.8
				c-3.6,3.2-6.7,6-9.8,8.7c-0.3,0.3-1.1,0.3-1.7,0.3C113.9,453.8,113.9,453.8,100.8,459.2"/>
			<path class="st15" d="M141.7,429.2c2.9,4.1,5.7,8,8.6,12.2c-1.8,1.1-4.2,2.6-6.6,4c-0.3,0.2-1.1,0.3-1.5,0.1
				c-8.1-2.3-16.1-4.6-24.4-6.9C124.7,433.9,132.8,430.8,141.7,429.2"/>
			<path class="st15" d="M146.1,428.4c10.5-1.2,20.4-0.7,30.5,2.1c-1,0.4-1.6,0.7-2.2,0.9c-6.1,2.3-12.3,4.6-18.3,7.1
				c-1.4,0.6-2.3,0.7-3.4-0.3C149.4,435.4,147.2,432.3,146.1,428.4"/>
		</g>
	</g>
</g>
</svg>
