<?xml version="1.0" encoding="utf-8"?>
<!-- Generator: Adobe Illustrator 21.0.0, SVG Export Plug-In . SVG Version: 6.00 Build 0)  -->
<svg version="1.1" xmlns="http://www.w3.org/2000/svg" xmlns:xlink="http://www.w3.org/1999/xlink" x="0px" y="0px"
	 viewBox="0 0 1366 768" style="enable-background:new 0 0 1366 768;" xml:space="preserve">
<style type="text/css">
	.st0{opacity:0.3;}
	.st1{fill:#FCCC00;}
	.st2{fill:#009315;}
	.st3{fill:#FF0000;}
	.st4{fill:#FFAA00;}
	.st5{fill:#3333FF;}
</style>
<g id="Слой_7" class="st0">
	<rect x="811.248" y="32.06" class="st1" width="195.556" height="195.556"/>
	<rect x="298.35" y="32.06" class="st2" width="195.556" height="195.556"/>
	<rect x="554.977" y="30" class="st3" width="195.556" height="195.556"/>
	<rect x="811.605" y="259.699" class="st4" width="195.556" height="195.556"/>
	<rect x="299.241" y="263.444" class="st5" width="195.556" height="195.556"/>
	<rect x="555.869" y="258.45" width="195.556" height="195.556"/>
</g>
<g id="M1">
	<rect x="812.248" y="32.06" class="st1" width="195.556" height="195.556"/>
</g>
<g id="M2">
	<rect x="299.35" y="32.06" class="st2" width="195.556" height="195.556"/>
</g>
<g id="M3">
	<rect x="555.977" y="30" class="st3" width="195.556" height="195.556"/>
</g>
<g id="M4">
	<rect x="812.605" y="259.699" class="st4" width="195.556" height="195.556"/>
</g>
<g id="M5">
	<rect x="300.241" y="263.444" class="st5" width="195.556" height="195.556"/>
</g>
<g id="M6">
	<rect x="556.869" y="258.45" width="195.556" height="195.556"/>
</g>
<g id="L1">
	<rect x="54.207" y="550" class="st1" width="156.65" height="156.65"/>
</g>
<g id="L2">
	<rect x="1076.35" y="550" class="st2" width="156.65" height="156.65"/>
</g>
<g id="L3">
	<rect x="871.921" y="552.35" class="st3" width="156.65" height="156.65"/>
</g>
<g id="L4">
	<rect x="667.493" y="552.35" class="st4" width="156.65" height="156.65"/>
</g>
<g id="L5">
	<rect x="463.064" y="552.35" class="st5" width="156.65" height="156.65"/>
</g>
<g id="L6">
	<rect x="258.635" y="552.35" width="156.65" height="156.65"/>
</g>
</svg>
