<?xml version="1.0" encoding="utf-8"?>
<!-- Generator: Adobe Illustrator 22.1.0, SVG Export Plug-In . SVG Version: 6.00 Build 0)  -->
<svg version="1.1" xmlns="http://www.w3.org/2000/svg" xmlns:xlink="http://www.w3.org/1999/xlink" x="0px" y="0px"
	 viewBox="0 0 717.6 768" style="enable-background:new 0 0 717.6 768;" xml:space="preserve">
<style type="text/css">
	.st0{fill:#CC3834;}
	.st1{fill:#1E0000;}
	.st2{fill:#848484;}
	.st3{fill:#660B00;}
	.st4{fill:#FFFBF0;}
	.st5{fill:#363533;}
	.st6{fill:#380804;}
	.st7{fill:#FFFFFF;}
</style>
<g id="Слой3_xA0_Изображение_1_">
</g>
<g id="Слой2_xA0_Изображение_1_">
	<g>
		<path d="M353.7,10.9c2.7,0.4,5.5,0.7,8.2,1.2c6.4,1.3,12.4,3.8,17.2,8.5c3,2.9,4.9,6.5,6.3,10.4c0.8,2.4,1.5,4.8,2.2,7.2
			c0.1,0.3,0.2,0.5,0.2,0.7c1.7-0.6,3.3-1.2,4.9-1.6c3.1-0.7,6.3-0.6,9.4,0.3c9.5,3,17.5,8.5,23.3,16.7c6.6,9.4,6,19.7-1.2,28.5
			c-1.8,2.2-3.8,4.2-5.8,6.4c1.4,2,1.3,4.2,1,6.4c-0.3,1.7,0.2,2.8,1.7,3.7c1.4,0.8,2.9,1.7,4.2,2.8c3.6,3.2,5.4,7.1,4.6,12
			c-0.5,3-2.3,5.2-4.6,6.9c-5.2,3.8-11,5.7-17.5,5.3c-0.1,0-0.2,0-0.4,0c-0.1,0-0.1,0-0.4,0.1c0,0.4,0,0.8,0,1.2
			c-0.1,1,0,2.1-0.2,3.1c-0.8,4.8-4.7,7.6-10,6.9c-1.4-0.2-2.1,0.1-2.7,1.4c-1.3,2.6-3.9,3.4-6.6,3.7c-2.3,0.2-4.5-0.1-6.6-0.9
			c-0.5-0.2-1,0-1.6,0c0,0.4-0.1,0.9,0,1.3c1,3.5,2,7.1,3,10.6c0.2,0.9,0.6,1.2,1.6,1.3c12.9,1.1,24.6,5.1,33.8,14.8
			c1.6,1.7,2.9,3.3,1.3,5.6c0.3,0.2,0.4,0.3,0.5,0.3c6,1.9,11.2,5.4,15.5,9.9c2.8,2.9,5.5,6,8.2,9.1c0.8,0.9,1.3,1.8,0.7,3.1
			c-0.1,0.2,0.1,0.7,0.3,0.9c2.8,2.2,4.8,5.1,6.3,8.2c2.4,5,5,10,6.6,15.3c3.1,10,8.7,18.1,15.7,25.6c4.5,4.9,9.1,9.7,13.5,14.7
			c5.8,6.7,9.9,14.5,14.4,22.1c0.9,1.6,1.7,3.3,2.6,4.9c0.8,1.5,0.7,2.9-0.2,4.2c-1.5,2-2.9,4-4.5,5.9c-11,12.8-22.5,25-34.6,36.8
			c-6.7,6.5-13,13.3-18.7,20.7c-0.2,0.2-0.3,0.4-0.5,0.6c-1.4,1.6-2.7,1.6-4-0.2c-1.9-2.7-3.8-5.3-5.7-8c-0.1-0.2-0.3-0.4-0.5-0.5
			c-1,1-1.8,2.2-2.8,2.9c-1,0.8-2.3,1.2-3.7,1.8c0.3,1.2,0.7,2.4,1,3.6c0.7,2.6,0.3,3.2-2.3,3.9c0.6,2.9,1.3,5.8,1.8,8.8
			c1.7,10.5,3.5,21.1,5.1,31.6c1.6,10.8,2.7,21.7,2.9,32.7c0.2,12.3-0.7,24.6-2.1,36.9c-1.2,10.4-2.7,20.7-4.1,31
			c-0.1,0.4-0.1,0.9,0,1.3c1.3,9.6,2.5,19.2,5.5,28.5c0.5,1.5,1.2,2.8,2,4.2c0.9,1.5,0.6,2.7-1,3.6c-4.1,2.3-8.4,4-12.9,5.2
			c-1.2,0.3-1.6,0.9-1.8,2.1c-2.1,12.8-3.3,25.7-4.1,38.6c-1.4,22.6-2.1,45.2-2.1,67.9c0,15.4,1.3,30.7,3.7,45.9
			c0.2,1.1,0.3,2.1,0.4,3.2c0.2,2-0.3,3-2.4,3.5c-2.7,0.7-5.4,1.2-8.1,1.8c-0.9,0.2-1.9,0.3-3,0.5c0.2,0.5,0.3,0.9,0.5,1.2
			c2.9,6.3,5.8,12.6,8.6,18.9c2.3,5.2,2.5,10.6,1.5,16c-0.8,4.4-3.2,7.6-7.7,9.2c-4.4,1.5-8.9,2.4-13.5,2.8
			c-9.6,0.7-19.1,0.7-28.6-1.1c-3.3-0.6-6.5-1.5-9.3-3.3c-4.2-2.5-5.8-6.2-5-11c0.8-5.4,2.7-10.4,4.8-15.4c2-4.8,4.1-9.5,6.2-14.2
			c0.2-0.4,0.3-0.7,0.5-1.3c-0.7,0-1.3,0-1.9,0c-2-0.1-3.9-0.1-5.9-0.2c-2.2-0.2-2.7-0.9-2.3-3.2c0.6-3.3,1.2-6.7,1.7-10.1
			c2-14,3.3-28,4.3-42.1c1.4-20.8,1.8-41.6,0.8-62.5c-0.5-10.7-1.4-21.3-2.2-32c0-0.2-0.1-0.5-0.2-0.7c-4.2,0.7-8.4,1.3-12.5,2
			c0,2.7-0.1,5.4,0,8c2,36.2,2.6,72.5,2,108.8c-0.1,6.7,0.1,13.4-0.9,20.1c-0.2,1.3-0.2,2.7-0.7,3.9c-1.8,4.3-1.4,8.9-2,13.4
			c-0.4,3.3-1,6.5-3,9.3c-1.8,2.5-4.2,4-7.3,4.2c-0.3,0-0.6,0.1-1,0.1c-4.2-0.3-8,0.9-11.9,2.3c-8.8,3.3-17.9,4.8-27.2,5.3
			c-8.7,0.4-17.4,0.3-26-1c-5.8-0.9-11.5-2.2-16.6-5.3c-1.5-0.9-2.8-2.1-4.2-3.2c-0.8-0.6-1-1.6-0.6-2.5c2.2-6.6,4.9-12.9,9.3-18.3
			c0.2-0.3,0.5-0.5,0.7-0.8c3-3.6,6.7-5.3,11.6-5c7.1,0.5,13.6-1.8,19.8-5.3c0.2-0.1,0.3-0.2,0.5-0.3c0.1,0,0.1-0.1,0.2-0.3
			c-0.6-0.4-1.1-0.8-1.7-1.2c-1.9-1.4-1.8-2.8,0-4.2c1.6-1.2,3.1-2.5,4.5-3.9c3.4-3.4,5.1-7.7,5.1-12.5c0-7.3,0.1-14.6-0.4-21.8
			c-1.2-18.2-2.9-36.4-4-54.7c-0.7-11-0.8-22.1-1.2-33.1c0-1.1,0-2.2,0.2-3.3c0.1-1-0.2-1.3-1.1-1.6c-6.1-1.8-12.3-3.1-18.5-3.8
			c-9.1-0.9-18.1-1.7-27.2-2.3c-3.6-0.2-7.2,0.1-10.8,0.2c-0.6,0-1.3,0-1.9-0.2c-1-0.3-1.5-1.2-1.1-2.1c1.7-3.8,1.8-7.9,2.4-11.8
			c1.2-7.9,2.4-15.7,3.5-23.6c1.2-9,2-18,3.3-26.9c2-13.8,4.3-27.7,6.6-41.5c3.1-19,6.3-38,9.5-57c0.6-3.7,1.4-7.4,2.1-11.1
			c0.2-0.9,0-1.5-0.5-2.2c-5.2-6.7-10.5-13.4-15.6-20.3c-13.5-18.2-22.9-38.4-27.6-60.7c-0.5-2.5-0.7-5.1-1.1-7.7
			c-0.3-1.9,0.4-3.5,1.6-5c3.5-4.3,7-8.6,10.4-12.9c6.5-8.2,13.1-16.2,19.4-24.5c6.4-8.4,11.1-17.8,15.8-27.2
			c3.8-7.7,7.8-15.3,11.7-23c0.2-0.4,0.4-0.8,0.6-1.2c1.3-2.3,1.6-2.5,4.2-1.9c1.3,0.3,2.6,0.6,4.2,1c-0.8-2.6,1-3.5,2.7-4.6
			c5.1-3.1,10-6.5,15.5-8.9c4.5-1.9,9-4,13.9-5c0.2,0,0.5-0.1,0.7-0.1c1.5,0.1,2.1-0.9,2.2-2.3c-10-2.8-18.6-7.8-24.5-16.8
			c-1.4,1.2-3.1,1.5-4.8,1.1c-0.4-0.1-0.9,0.2-1.4,0.4c-3,1.3-5.8,0.5-7.4-2.4c-0.8-1.4-1.4-3-2-4.5c-0.3,0.2-0.6,0.4-0.9,0.6
			c-7.5,5.4-15.5,4.1-21.1-3.2c-6.3-8.3-6-19.1,0.6-27.5c1-1.3,2.1-2.5,3.3-3.8c-1.6-0.1-3-0.2-4.5-0.4c-0.9-0.1-1.8-0.3-2.7-0.5
			c-2.4-0.7-3.3-2.4-2.8-4.8c0.1-0.7,0.3-1.3,0.5-1.9c-2.5-1.4-3-2.4-2.2-5.3c0.4-1.5,1-3,1.5-4.6c-0.5,0-1-0.1-1.4-0.1
			c-2.9-0.2-5.2-1.4-6.5-4.2c-0.1-0.3-0.7-0.5-1.1-0.5c-2.4,0.2-4.8,0.6-7.2,0.7c-1.6,0.1-3.2,0-4.8-0.2c-5.4-0.7-9.1-4.1-10.2-9.4
			c-2.3-10.2,2.5-22.5,11.2-28.4c3.2-2.2,6.7-3.4,10.4-4.2c0.3-0.1,0.5-0.1,0.8-0.2c0.1,0,0.1-0.1,0.2-0.1c-0.4-5.1,0.5-6,7.7-7.8
			c0,0,0-0.1,0-0.1c-1.7-4.2,0.2-7.2,3.2-9.9c4.7-4.1,10.1-7.1,15.7-9.5c12.5-5.4,25.4-8.4,39.1-7.7c3.2,0.2,6.4,0.9,9.6,1.3
			c0.5,0.1,1.1-0.1,1.7-0.3c1.4-0.3,2.7-0.8,4-0.8c2.8,0.2,5.6,0.6,8.3,1.1c1.7,0.3,3.1,0.1,4.5-1.2c4-3.7,8.8-5.6,14.2-6
			c0.4,0,0.9-0.1,1.3-0.2C350.8,10.9,352.3,10.9,353.7,10.9z M408.9,366.6c-6,1.3-11.7,2.6-17.4,3.8c-0.4,0.1-0.8,0.3-1.2,0.5
			c-9.7,5.7-19.9,10.2-30.3,14.4c-16.9,6.9-34.1,13-52,17.3c-10.9,2.6-21.9,4.6-33,5.8c-0.9,0.1-1.8,0.3-2.6,0.5
			c0.5,0.4,1,0.5,1.5,0.5c5.2,0.1,10.4,0.6,15.6,0.2c10.3-0.8,20.5-1.9,30.8-3.3c13.4-1.8,26.8-4,40.2-6.1c0.4-0.1,0.8-0.1,1.2-0.2
			c-1.2,0.4-2.5,0.7-3.7,1c-17.1,3.4-34.4,6.2-51.7,8.6c-10,1.3-20,2.3-30.1,1.5c-1.6-0.1-3.3-0.4-4.8-0.8c-0.5-0.1-1.1-0.8-1.2-1.3
			c0-0.4,0.7-1.1,1.2-1.2c1.3-0.4,2.7-0.7,4.1-0.9c8.4-1.4,16.9-2.5,25.3-4.3c18.8-3.9,36.9-9.8,54.7-16.7
			c10.8-4.2,21.5-8.6,31.9-13.9c0.4-0.2,0.8-0.5,1.3-0.7c-0.3-0.2-0.6-0.2-0.8-0.1c-7,1.2-13.9,2.5-20.9,3.6
			c-11.9,1.9-23.8,3.1-35.8,3.5c-16.8,0.5-33.5-1.2-50.1-3.7c-4.6-0.7-9.2-1.5-13.6-3.3c-1.5-0.6-3-1.2-3.8-3.2
			c-0.6,1.9-1.4,3.4-1.7,5c-1,5.3-2,10.7-2.9,16.1c-4.2,26.1-8.4,52.3-12.4,78.4c-1.9,12.4-3.5,24.8-5.1,37.2
			c-1.4,10.1-2.7,20.2-4.1,30.3c-0.6,4.7-1.4,9.4-2.1,14c1.9,0,3.8-0.1,5.7,0c8.3,0.5,16.6,1,24.9,1.6c9.9,0.8,19.6,2.5,29,5.6
			c5.8,1.9,11.7,3.2,17.9,3.2c6.6,0,13.1-0.2,19.7-0.5c10.4-0.4,20.7-1.7,30.9-4c13.6-3,27.3-5.8,40.9-8.8
			c8.4-1.8,16.8-3.5,24.9-6.7c1.9-0.7,3.7-1.6,5.4-2.5c1.1-0.5,1.1-1,0.2-1.8c-0.5-0.5-0.9-1.1-1.2-1.8c-0.6-1.6-1.2-3.3-1.7-5
			c-2.7-9.7-4-19.6-5.2-29.5c-1.2-9.4-2.1-18.8-3.2-28.2c-1.9-16-3.8-31.9-5.9-47.8c-2.2-16.2-4.6-32.3-7-48.4
			C410.2,372,409.5,369.3,408.9,366.6z M271.8,341.5c0-0.1,0.1-0.2,0.1-0.3c0.9,0.2,1.8,0.5,2.7,0.6c7.9,1.5,15.9,2.1,23.9,2.3
			c10.8,0.3,21.5,0.4,32.3,0.3c16.1-0.1,32.2-0.7,48.2-2.9c2.3-0.3,4.6-0.7,6.9-1.1c0-0.2,0-0.3,0-0.5c-31,0.4-61.6-3.9-92.2-7.6
			c0.7-0.1,1.4-0.1,2,0c9.6,0.8,19.1,1.7,28.7,2.5c8.2,0.7,16.5,1.3,24.8,1.8c11,0.6,22.1,0.9,33.1,1.3c0.4,0,0.8,0,1.3-0.1
			c-2.3-4.7-0.6-6.7,2.3-9c0.8-0.6,1.6-1.2,2.5-1.9c-2.8-1.5-3.2-2.8-2-5.7c0.1-0.3,0.2-0.5,0.3-0.8c3.7-7.3,8.8-13,16.9-15.5
			c0.3-0.1,0.7-0.3,1-0.4c0.9-0.2,1.2-0.7,1.4-1.6c1.6-6.3,3.3-12.6,4.9-18.9c0.8-3.1,1.9-6.1,2.2-9.2c0.4-4.8,1.5-9.5,2.9-14.1
			c2.7-9.4,5.3-18.8,8.2-28.1c2.7-8.7,5.9-17.2,10.7-25c2.1-3.4,4.2-6.7,6.4-10c0.5-0.7,0.4-1.2-0.2-1.9c-2.1-2.2-4-4.6-6.1-6.8
			c-4.1-4.5-8.8-8.3-14.5-10.7c-0.8-0.3-1.5-0.6-2.3-0.9c-0.2,0.3-0.3,0.4-0.3,0.5c-6.3,10.6-12.7,21.1-19,31.7
			c-0.9,1.4-2.3,1.5-3.3,0.2c-0.2-0.3-0.4-0.6-0.6-0.9c-1.5-2.5-3.1-5.1-4.6-7.6c-0.4-0.6-0.8-1.2-1.3-1.9c-0.1,0.2-0.2,0.2-0.2,0.3
			c-0.1,0.4-0.2,0.8-0.3,1.2c-4.1,19.9-14.4,35.9-30.9,47.8c-3,2.1-6.1,4.1-9.7,4.9c-1.8,0.4-3.6,0.6-5.1-0.8
			c-5.9-5.2-11-11-14.3-18.2c-5.1-11.1-7.6-22.9-8.9-34.9c0-0.3-0.1-0.7-0.2-1.2c-0.9,0.4-1.6,0.7-2.3,1.1c-3.3,2.3-6.6,4.6-9.9,6.9
			c-1.6,1.1-2.5,1.4-3.2,0.7c-1.1-1-0.4-2.1,0-3.1c3.4-8.5,6.9-17,10.3-25.5c0.3-0.7,0.5-1.5,0.8-2.2c-0.2,0-0.3-0.1-0.4-0.1
			c-0.2,0-0.4,0.1-0.6,0.1c-8.6,2.4-16.5,6.2-24,11c-1.6,1.1-3.3,2.2-5,3.1c-1,0.5-1.2,1.1-0.7,2.1c1.4,2.8,2.7,5.7,4.1,8.5
			c3,6.2,3.3,12.5,1,19c-1.7,5-4.4,9.5-7.4,13.8c-4.1,5.9-7.2,12.4-10.3,18.8c-2.6,5.5-3.2,11.1-1.3,17c1.8,5.4,2.8,10.9,2.8,16.6
			c0.1,9.9,0.7,19.8-0.3,29.6c-0.6,5.8-1.4,11.7-4.2,16.9c-2,3.8-4.4,7.4-6.7,11.1c-0.2,0.4-0.6,0.9-0.5,1.1
			c0.8,1.5,1.6,3.1,2.8,4.2c3.5,3.3,8,4.6,12.5,5.8c9.5,2.7,19.1,4.4,28.9,5c9.5,0.7,19,1.5,28.5,1.8c15.9,0.5,31.7-1.7,47.4-4.3
			c7.7-1.3,15.2-3.4,22.1-7.2c0.3-0.2,0.7-0.4,1-0.6c-1.7-0.2-3.4-0.1-5-0.2c-3-0.2-4.6-1.7-5.1-4.7c-0.3-1.5-0.3-3-0.4-4.4
			c-1.9,0.3-3.9,0.5-5.9,0.8c-5.8,0.9-11.6,2-17.4,2.6c-16.7,1.8-33.4,2.1-50.2,1.9c-11-0.1-21.9-0.3-32.8-1.5
			c-5-0.5-10-1.1-14.8-2.8C272.9,342.1,272.3,341.8,271.8,341.5z M266.5,77.7c0.9,0.5,1.7,0.8,2.2,1.3c0.9,0.9,1.6,0.9,2.5,0.1
			c0.4-0.3,0.8-0.7,1.1-1.1c1.1-1.1,1.6-1.1,3-0.4c1.9,0.9,3.8,1.8,5.7,2.3c4.9,1.2,9.8,1.4,14.8,0.8c4-0.5,7.9-1.4,11-4.2
			c1.7-1.5,3-3.2,3.4-5.5c0.4-2-0.3-3.7-1.6-5.3c-0.3-0.3-0.3-1.3-0.1-1.6c0.3-0.4,1.1-0.7,1.6-0.6c1,0.1,1.9,0.6,2.9,0.9
			c4.2,1.4,8,0.5,11.5-2.1c0.5-0.4,0.9-0.9,1.4-1.1c0.9-0.3,1.9-0.8,2.7-0.6c3.6,0.8,6.7,0.1,9.4-2.5c1-0.9,2.3-0.4,2.5,0.9
			c0.1,0.7,0,1.4,0.1,2c0.1,2.4,0.5,4.8,2.5,6.4c3.5,2.8,7.5,4.1,12,3.7c0.5,0,1.2,0.2,1.4,0.5c0.3,0.4,0.2,1,0.1,1.6
			c0,0.3-0.4,0.5-0.5,0.8c-0.9,1.9-1.9,3.8-2.7,5.7c-0.6,1.4-0.1,2.8,0.8,4c2.9,3.7,9.6,4.6,13.4,1.9c0.7-0.5,1.3-1,2.2-0.5
			c0.9,0.6,0.7,1.5,0.6,2.4c-0.2,1.1-0.5,2.3-0.6,3.4c0,0.5,0.3,1.1,0.5,1.7c0.1,0,0.2,0,0.3-0.1c0.1-0.4,0.3-0.8,0.4-1.2
			c0.9-3,2.2-5.8,4.4-8c1.9-1.9,4.2-2.5,6.6-1.3c1.7,0.9,3.3,2,4.5,3.4c6.1,7.3,8,15.7,6.4,25.1c-1.5,8.7-9.8,16.3-17.5,15.8
			c0.9,4.2,1.8,8.4,2.8,12.8c1.3-0.9,2.5-0.6,3.6-0.1c1.9,0.8,3.9,0.9,5.9,0.7c2.1-0.3,3.6-1.2,4.3-3.3c0.6-1.7,1.6-2.2,3.5-2
			c1,0.1,2,0.3,3,0.2c3-0.1,4.8-1.8,5.3-4.7c0.2-1.3,0.1-2.6,0.2-3.9c0.1-2.2,1.1-3,3.2-2.8c1.7,0.1,3.4,0.2,5,0
			c4.6-0.6,8.8-2.3,12.3-5.5c2.4-2.2,3-4.9,2.1-8c-0.8-2.7-2.5-4.7-4.9-6.2c-1.1-0.7-2.3-1.4-3.4-2.2c-1.4-1-2.2-2.4-2.1-4.2
			c0-1,0.2-2.1,0.2-3.1c-0.1-0.9-0.2-2.2-0.8-2.7c-1.5-1.5-1.2-2.6,0-3.9c2-2.1,4-4.1,5.9-6.3c6.8-8.1,7-17.6,0.5-25.9
			c-5.1-6.5-11.6-11.1-19.2-14c-4.3-1.6-8.6-1.6-12.9,0.1c-0.9,0.4-1.8,0.7-1.7,2c0,0.3-0.5,0.8-0.8,0.9c-0.3,0-0.8-0.4-1-0.7
			c-0.4-0.8-0.6-1.7-0.8-2.6c-1-3.2-2-6.4-3.2-9.6c-2.6-6.8-7.5-11.4-14.3-14c-6.2-2.4-12.7-3.4-19.4-3c-4.9,0.3-9.3,2-12.9,5.4
			c-1.8,1.8-3.8,2.2-6.2,1.8c-2.8-0.5-5.7-0.8-8.5-1.2c-0.7-0.1-1.7,0-2.2,0.4c-1.2,1-2.5,0.8-3.9,0.6c-3-0.5-6.1-1.2-9.1-1.3
			c-16.4-0.7-31.6,3.5-45.8,11.6c-2.9,1.6-5.5,3.8-8,6c-2.4,2.1-2.3,3.9-0.7,6.7c0.4,0.6,0.6,1.5,0.4,2.2c-0.3,1-1.3,0.9-2.2,1
			c-1.3,0-2.7,0-3.9,0.3c-2.7,0.6-3.2,2.1-1.7,4.4c0.7,1.1,0.4,2.1-0.9,2.6c-0.4,0.1-0.9,0.2-1.3,0.2c-14.2,1.5-24.1,14.9-21.3,29
			c0.9,4.4,3.6,7,8.2,7.5c1.7,0.2,3.4,0.2,5.1,0.1c2.3-0.2,4.5-0.5,6.8-0.8c1.7-0.2,2.5,0.3,2.9,1.9c0.4,1.6,1.4,2.5,3,2.8
			c1.1,0.2,2.3,0.2,3.5,0.2c1.8,0,2.6,1,2.1,2.7c-0.5,1.6-1.1,3.2-1.6,4.8c-0.2,0.7-0.4,1.4-0.6,2.2c0.3,0.1,0.5,0.1,0.7,0.1
			c2.2,0.1,2.7,1,2,3.1c-0.3,0.8-0.5,1.6-0.8,2.4c-0.3,0.9,0.1,1.4,0.9,1.6c1.1,0.2,2.2,0.4,3.3,0.5c1.8,0.1,3.6,0.2,5.4,0.3
			c0.9,0,1.8,0.3,2,1.2c0.1,0.7-0.2,1.5-0.7,2.1c-0.7,0.9-1.6,1.6-2.4,2.4c-3.4,3.5-6,7.4-6.7,12.3c-1,7.2,1.3,13.1,7.1,17.6
			c3.3,2.6,7,2.8,10.7,1c1.4-0.7,2.7-1.7,4-2.6c2-1.4,3.3-1,4.1,1.3c0.3,1,0.6,2,1.1,2.9c0.3,0.7,0.7,1.5,1.2,2.1
			c0.7,1,1.8,1.3,2.9,0.8c1.5-0.7,2.9-0.9,4.5-0.5c1.2,0.3,1.8-0.7,1.4-1.9c-0.6-1.5-1.3-3.1-1.5-4.7c-0.5-4-0.8-8.1-1-12.2
			c-0.3-6.9-1.6-13.6-4.6-19.8c-1.4-3-3-6-4.4-9c-1.3-2.9-2.7-5.8-3.7-8.8c-1.5-5-1.1-10.1-0.9-15.3c0-0.5-0.1-1-0.2-1.6
			c-0.4,0.3-0.9,0.5-1.3,0.8c-2,1.7-3.7,1.7-5.7,0.1c-0.3-0.2-0.7-0.4-1.1-0.4c-1.4-0.2-2.1-0.8-2.4-2.1c-0.1-0.4-0.2-0.8-0.3-1.2
			c-0.8,0.4-1.4,0.8-2.1,1c-2.3,0.8-4.7,1.7-7.1,2.1c-3.3,0.5-5.4-1.2-5.6-4.6c-0.5-7,1.5-13.4,6-18.8c1.3-1.6,3-2.8,5.1-3.3
			c0.4-0.1,0.9,0,1.7,0c-0.6,0.5-0.8,0.8-1.2,1c-4.1,2.9-6.5,7.1-7.9,11.8c-0.8,2.7-1.2,5.5-1.1,8.3c0.2,2.5,1.1,3.2,3.5,2.8
			c0.7-0.1,1.4-0.2,2-0.5c2.3-1,4.6-2.1,6.8-3.2c1.7-0.9,2.9-0.2,3,1.7C266.5,76.6,266.5,77.3,266.5,77.7z M357.8,706.7
			c0.7,0.1,1.4,0.2,2.1,0.2c9-0.1,18.1-0.1,27.1-0.2c9.1-0.1,18.2-0.9,27.2-2.8c3-0.6,2.5-0.2,2.2-3c0-0.3-0.1-0.6-0.1-1
			c-2.2-13.8-3.5-27.6-3.6-41.6c-0.2-22.6,0.5-45.2,1.8-67.8c0.8-14.4,2.1-28.7,4.4-43c0.1-0.3,0.1-0.7,0.1-1.1
			c-2.8,0.7-5.5,1.3-8.2,1.9c-15.7,3.4-31.4,6.7-47.2,10.1c-1.1,0.2-1.4,0.6-1.3,1.8c1.5,15.3,2.4,30.5,2.7,45.9
			c0.3,16.4-0.2,32.7-1.3,49c-1,14.2-2.3,28.4-4.3,42.5C358.8,700.7,358.3,703.6,357.8,706.7z M293.8,559.7c0,1.8-0.1,3.4,0,5.1
			c0.7,11.5,1.2,22.9,2,34.4c1.3,16.5,2.9,33.1,4.1,49.6c0.6,7.8,0.6,15.7,0.6,23.5c0.1,6.7-2.4,12.5-7.4,17.1
			c-0.8,0.8-1.5,1.8-2.2,2.7c0.1,0.1,0.4,0.3,0.8,0.5c4.9,3.2,10.1,5.7,15.6,7.7c8.1,2.9,16.3,4.6,24.9,3.8
			c3.4-0.3,6.8-0.7,10.3-0.9c0.9-0.1,1.3-0.3,1.4-1.2c0.5-4.8,1.2-9.6,1.3-14.4c0.3-7.2,0.2-14.4,0.1-21.6
			c-0.1-18.3,0-36.6-0.4-54.9c-0.3-16.1-1.2-32.2-1.8-48.3c0-0.2-0.1-0.4-0.1-0.7c-0.5,0-0.9,0-1.3,0c-5.8,0.4-11.6,0.7-17.4,1.1
			c-10,0.5-20,0.1-29.6-3.1C294.5,559.8,294.2,559.8,293.8,559.7z M276.7,81.9c0,0.4,0,0.6,0,0.8c-0.1,8.7,1.6,16.8,6.2,24.3
			c1.9,3.2,3.4,6.6,4.8,10.1c2.7,6.5,3.5,13.4,3.6,20.4c0.1,4,0.1,8.1,1.7,11.9c2.7,6.6,7.5,11.5,13.6,15.1
			c7.6,4.5,16.1,6.1,24.8,6.5c2.8,0.1,5.5-0.3,7.9-1.5c2-1,4.1-2.1,5.9-3.4c9.7-7.1,17.3-16.1,22.7-26.9c3.1-6.2,4.6-12.7,3.9-19.6
			c-0.4-3.8-0.8-7.6-1.5-11.3c-0.6-3.8-0.8-7.6-0.5-11.5c0-0.4-0.2-0.9-0.5-1.1c-1.7-1.1-2.4-2.6-2.5-4.5c0-0.5,0-0.9,0-1.5
			c-0.5,0.1-0.9,0.2-1.2,0.3c-3.7,0.9-7.3,0.4-10.5-1.5c-4.6-2.7-5.9-6.6-3.7-11.5c0.3-0.8,0.7-1.6,1.1-2.4c-0.4-0.1-0.7-0.1-1-0.2
			c-2.5-0.8-5.1-1.3-7.5-2.4c-3.7-1.7-5.9-4.7-6.2-8.9c0-0.2-0.1-0.4-0.1-0.7c-0.3,0.1-0.6,0.2-0.8,0.4c-2.5,1.4-5.2,1.7-8,1.2
			c-0.6-0.1-1.3,0.2-1.8,0.5c-4,3.1-8.3,4.7-13.4,3.5c-0.2,0-0.4,0-0.6,0c1,5.1-1.1,8.9-5,11.7c-1.8,1.3-3.9,2.4-6,3.1
			c-3.8,1.4-7.9,1.7-12,1.5C285.6,84,281.1,83.5,276.7,81.9z M443,199.8c-3.7,5.7-7.4,11-10.1,17c-4.5,10.1-7.6,20.6-10.6,31.2
			c-0.1,0.4,0.2,1.1,0.5,1.5c7,7.7,13.7,15.8,19.8,24.2c1,1.3,1.9,2.7,2.9,4.2c1-2.9,1.9-5.7,2.9-8.4c0.1,0,0.2,0.1,0.3,0.1
			c-0.3,1.9-0.6,3.8-0.9,5.8c0.5-0.4,0.8-0.9,1-1.4c1.9-3.5,3.7-7,5.6-10.5c0.2-0.3,0.3-0.6,0.5-0.8c0.3-0.3,0.8-0.4,1.2-0.6
			c0.1,0.4,0.3,0.9,0.3,1.3c0,0.4-0.2,0.8-0.4,1.1c-2.4,5-4.8,10.1-7.2,15.1c-0.2,0.4-0.1,0.9-0.1,1.3c0.4-0.1,0.7-0.1,1.1-0.3
			c6.6-3.3,13.2-6.6,19.9-9.9c0.4-0.2,0.8-0.4,1.2-0.4c0.5,0.1,1,0.3,1.2,0.6c0.2,0.3-0.1,0.9-0.4,1.2c-0.4,0.4-1,0.7-1.6,1
			c-5.8,3-11.7,5.9-17.6,8.9c-3.5,1.8-6.3,4.3-8.5,7.6c-3.4,5.1-7.2,10-10.8,15c-2.7,3.7-5.5,7.3-9,10.1c2.7,4.4,4.1,8.9,2.9,14
			c4.8,1.2,6.6,3.8,5.9,8.7c0,0.2,0.1,0.6,0.3,0.8c2,1.3,2.4,3.3,2.4,5.4c0,0.5,0,1.2,0.2,1.6c2.2,3.1,4.5,6.2,6.9,9.4
			c0.4-0.5,0.8-1,1.1-1.4c4.1-4.7,8-9.6,12.4-14c10.5-10.8,21.4-21.2,31.4-32.5c3.8-4.3,7.5-8.6,11.3-12.9c1.3-1.5,1.5-2.8,0.4-4.6
			c-2.2-3.5-4.2-7.2-6.2-10.8c-4.3-7.4-9.3-14.2-15.2-20.3c-3.9-4.1-7.8-8.3-11.5-12.6c-3.6-4.2-7.1-8.6-9.1-13.9
			c-1-2.5-1.9-5.1-2.8-7.7c-2.4-6.8-4.9-13.6-8.6-19.9C445.2,202.7,444.1,201.3,443,199.8z M248.9,268.3c-0.1,0-0.2,0.1-0.3,0.1
			c0,0.2,0,0.4,0.1,0.6c1.7,6.4,3.4,12.8,5.2,19.2c0.1,0.3,0.3,0.5,0.4,0.7c0.8,1.8,1.7,3.7,2.5,5.5c0.4,1,0.6,2,0.9,3.1
			c0.7-1.3,1.1-2.5,2-3.5c3.2-3.7,6.5-7.4,9.8-11c0.7-0.7,0.9-1.3,0.7-2.2c-0.8-3.3-1.3-6.7-2.3-9.9c-2-6.5-1.4-12.8,1.5-18.8
			c3.2-6.8,6.5-13.4,10.8-19.6c2.7-3.8,5-7.9,6.7-12.3c2.2-6,2.1-11.8-0.7-17.6c-0.9-2-1.9-3.9-2.8-6c-0.4-0.8-0.8-1.1-1.7-1.2
			c-1.3-0.1-2.6-0.3-3.8-0.7c-1.3-0.4-2-0.1-2.6,1.2c-3.6,7.3-7.4,14.5-10.9,21.9c-6.9,14.7-15.1,28.4-25.4,41
			c-6.7,8.1-13.3,16.3-20,24.4c-1.6,1.9-2.5,3.7-1.9,6.2c0.2,0.8,0.2,1.7,0.4,2.6c3.7,18.8,10.6,36.3,21,52.4
			c6,9.3,12.7,17.9,19.6,26.5c0.5,0.6,1,1.3,1.7,2.1c0.4-1.2,0.7-2.2,1-3.2c0.6-2.1,1.4-4.2,3.2-5.6c0.2-0.2,0.3-0.5,0.4-0.8
			c0.5-2.7,1.1-5.3,1.6-8c0.1-0.4,0-1.1-0.3-1.4c-1.3-1.1-2.7-2.1-4.1-3.2c-0.3-0.2-0.6-0.5-0.8-0.8c-0.5-0.8-0.9-1.6-1.3-2.4
			c-1-1.7-0.8-3.1,0.3-4.8c2.2-3.2,4.2-6.5,6.1-9.9c0.3-0.5,0.3-1.4,0.1-2c-1.4-4-3-8-4.3-12.1c-2.6-8.1-5-16.3-7.4-24.4
			c-0.8-2.9-2.5-4.7-5.3-5.7c-4.1-1.6-8.4-2.6-12.8-3c-1.6-0.2-3.3-0.2-4.9-0.3c0,0.1,0,0.2,0,0.3c0.3,0.2,0.6,0.5,0.9,0.7
			c0,0.1-0.1,0.2-0.1,0.3c-1.7-0.3-3.4-0.5-5.1-0.9c-0.5-0.1-1-1-1-1.5c0-0.4,0.7-1,1.2-1.2c0.5-0.3,1.2-0.3,1.9-0.3
			c7.5-0.6,14.7,0.8,21.7,3.7c0.5,0.2,0.9,0.4,1.6,0.8c-0.2-0.7-0.4-1.1-0.5-1.5c-1.6-5.4-3.2-10.8-4.8-16.2
			c-0.3-1.1-0.4-2.4-0.4-3.6c0-0.5,0.5-1.2,0.9-1.4c0.5-0.2,1.3,0.1,1.7,0.4c0.6,0.5,1.1,1.2,1.4,1.9c1.7,3.6,3.4,7.1,4.9,10.8
			c1,2.3,1.7,4.8,2.5,7.1c1.8-5.3,3.5-10.6,5.3-16c0.1,0,0.3,0.1,0.4,0.1c-0.1,0.7-0.3,1.3-0.4,2c-1.3,5.7-2.5,11.4-3.8,17.1
			c-0.2,0.9,0,2.1-1.2,2.2c-1.3,0.1-1.2-1.3-1.5-2.1c-1.8-5-3.5-10-5.3-15C250.6,271.4,249.7,269.9,248.9,268.3z M397,206.6
			c0.3-0.4,0.5-0.6,0.6-0.9c4.4-7.1,8.8-14.1,13-21.3c1.9-3.1,3.5-6.4,5.3-9.5c0.6-1.1,0.4-1.8-0.4-2.7c-3.3-3.3-6.7-6.4-10.9-8.4
			c-5.1-2.5-10.4-4.4-16.1-5.5c-1.7-0.3-3.4-0.6-5.3-1c0.8,2.2,1.4,4.2,2,5.8c1,0,2.1-0.3,2.4,0.1c0.6,0.9,0,1.8-0.7,2.5
			c-1.5,1.6-3.1,3.2-4.7,4.7c-7.9,7.4-15.8,14.9-23.7,22.3c-1.5,1.4-2.7,3-3.4,5c-3.2,8.1-6.4,16.3-9.6,24.4
			c-0.7,1.9-1.4,3.8-2.2,5.7c-0.3,0.8-0.9,1.5-1.5,2.1c-0.5,0.5-1.1,0.4-1.4-0.4c-0.5-1.7-1.2-3.3-1.3-5c-0.6-8-4.2-14.6-9.4-20.4
			c-1.7-1.9-3.9-3.5-5.9-5.1c-0.5-0.4-1.4-0.5-2.3-0.8c0.1,0.6,0.1,0.7,0.1,0.9c1.7,8.6,3.4,17.2,6.2,25.6
			c3.2,9.8,8.5,18.3,16.3,25.2c0.9,0.8,1.8,1.2,2.9,0.7c1.9-0.8,3.8-1.4,5.6-2.5c9.6-5.9,17.2-13.9,23.1-23.4
			c5.4-8.5,8.3-18,10.3-27.7c0.1-0.2,0.1-0.6-0.1-0.8c-1.4-1.2-2.7-2.9-4.7-2.8c-6.8,0.2-13.1,1.7-17.7,7.2c-2.6,3.1-5,6.2-7.5,9.4
			c-0.6,0.8-1.3,1.5-2,2.4c-0.1-0.3-0.1-0.4-0.1-0.5c0.9-2.2,1.8-4.4,2.8-6.5c4.8-10.1,13-14.8,24-15.1c1.3,0,2.7,0.3,3.8,1
			c1.4,0.8,2.9,1.9,3.9,3.1c2.2,2.7,4.2,5.6,6.3,8.5C395.5,204,396.2,205.3,397,206.6z M342.5,706.3c-1.8,0.2-3.4,0.3-5.1,0.5
			c-5.7,0.8-11.4,1-17.1,0.2c-9.7-1.4-18.7-4.9-27.2-9.7c-0.8-0.5-1.3-0.4-2.1,0.1c-6.7,4.6-14.2,7.1-22.3,6.7
			c-3.6-0.2-6.4,0.9-8.7,3.6c-0.3,0.4-0.7,0.8-1,1.2c-3.7,4.5-6,9.9-8.1,15.3c-0.4,1.2-0.2,1.8,0.8,2.5c3.2,2.4,6.9,3.7,10.7,4.7
			c7,1.9,14.3,2.4,21.5,2.5c14.1,0.3,27.9-1.3,41.1-6.8c1.2-0.5,2.5-0.7,3.8-0.8c1.4-0.2,2.8-0.2,4.2-0.1c3.5,0.2,6.2-0.9,7.7-5.6
			c0.8-2.6,1.1-5.4,1.4-8.1C342.4,710.4,342.4,708.5,342.5,706.3z M385.8,753.6c2.4,0,4.7,0.1,7.1,0c5.3-0.3,10.6-1,15.6-2.8
			c3.3-1.2,5.1-3.5,5.6-6.7c0.8-5,0.6-10-1.6-14.7c-3-6.5-6-13.1-9-19.6c-0.3-0.7-0.8-0.7-1.4-0.7c-3.6,0.3-7.2,0.7-10.8,0.8
			c-7.5,0.2-15,0.3-22.5,0.5c-0.6,0-1.1,0-1.4,0.8c-2.6,6.5-5.4,12.9-7.9,19.4c-1.5,3.9-2.8,7.9-3.2,12.1c-0.3,2.9,0.7,5.2,3.3,6.5
			c2.2,1.1,4.6,2.1,7,2.7C372.8,753.6,379.3,753.7,385.8,753.6z M333.8,174.3c0.6,2.5,1.2,4.9,1.7,7.3c0.4,2.2,1.2,4.2,2.6,6
			c2.4,3.2,3.5,6.8,3.4,10.8c-0.1,6.5-0.1,13,0,19.6c0,2,0.4,4,0.6,6c0.1,0,0.2,0,0.4,0.1c0.3-0.5,0.6-1.1,0.8-1.6
			c3.1-8.4,6.2-16.7,9.2-25.1c1-2.9,2.8-5.1,5-7.2c8.2-7.7,16.3-15.4,24.4-23c0.8-0.8,0.9-1.4,0.5-2.4c-2.9-8.3-5.3-16.7-7.1-25.3
			c-0.4-2.1-0.8-4.2-1.3-6.6c-0.8,2.2-1.5,4.2-2.3,6.1c-5.2,11.3-12.9,20.7-22.6,28.5c-3.8,3.1-8.1,5.6-13,6.6
			C335.4,174.1,334.5,174.2,333.8,174.3z M268,355.8c-0.1,0.4-0.2,0.8-0.3,1.2c-0.5,3.3-0.9,6.6-1.4,9.8c-0.1,0.9,0.2,1.4,1,1.6
			c1.8,0.6,3.6,1.4,5.5,1.7c8,1.3,16,2.5,24,3.5c18.2,2.2,36.4,2.2,54.6,0.1c16.8-1.9,33.4-4.8,49.8-8.7c8.4-2,16.6-4.5,25-6.8
			c-0.4-1.5-0.7-2.6-0.9-3.4c-3.3,0.1-6.4,0.4-9.4,0.3c-2.6-0.1-5.3-0.5-7.2-2.8c-0.4,0.2-0.8,0.4-1.2,0.7c-5.7,3.2-11.7,5.6-18,7.1
			c-8.3,2-16.7,3.1-25.2,4.1c-10.9,1.3-21.7,2.2-32.7,1.6c-5.3-0.3-10.5-0.6-15.8-1c-6.9-0.6-13.9-1.1-20.8-2.1
			C285.8,361.5,276.7,359.5,268,355.8z M429,490.1c0.8-6.2,1.6-12.4,2.3-18.7c1.5-13.3,2.5-26.6,2.3-40c-0.2-10.7-1.3-21.2-2.9-31.8
			c-1.7-11.7-3.6-23.4-5.5-35.1c-0.2-1-0.4-2-0.6-2.8c-4.3,1.4-8.4,2.7-12.5,4C419.6,407,423.6,448.6,429,490.1z M421.3,251.7
			c-1.2,4.2-2.4,8.2-3.3,12.2c-0.7,3-1.7,6.1-1.8,9.1c-0.3,8-0.2,16-0.2,24c0,1.5,0.2,2.9,0.4,4.3c2.8,0.1,3.4,0.4,4.1,2.9
			c0.7,2.5,1.2,5,1.7,7.6c0.1,0.4,0.1,0.8,0.2,1.2c0.2,0.1,0.3,0.2,0.5,0.3c0.6-0.7,1.2-1.4,1.7-2.1c2.4-2.9,4.8-5.8,7-8.8
			c4.8-6.4,9.5-12.8,14.2-19.2c0.5-0.7,0.7-1.3-0.1-2.1c-0.8-0.8-1.5-1.8-2.2-2.7c-5.8-7.2-11.6-14.4-17.4-21.5
			C424.6,255.2,423,253.6,421.3,251.7z M308.6,201.8c0.2,0,0.3,0,0.3,0c0.3-0.2,0.6-0.4,0.9-0.6c2.9-1.7,5.7-3.6,8.6-5.1
			c2.8-1.4,5.6-1,8.2,0.9c5,3.7,8.6,8.4,11.6,13.7c0.2,0.4,0.4,0.7,0.8,1.3c0-0.6,0.1-0.8,0.1-1c0-4.8,0-9.5,0-14.3
			c0-3.5-1.2-6.5-3.7-9c-1.6-1.6-2.5-3.5-2.8-5.8c-0.3-2.2-0.8-4.4-1.3-6.6c-0.2-0.9-0.7-1.2-1.7-1.3c-3.2-0.3-6.4-0.8-9.6-1.2
			c-0.3,0-0.5,0-0.8,0C316.4,182.9,312.4,192.3,308.6,201.8z M372.4,102.9c0,1.7-0.1,2.9,0,4c0.1,1,0.2,2.2,0.6,3.1
			c1.6,3.6,2.3,7.3,2.4,11.2c0.1,2.2,0.3,2.4,2.5,2c0.4-0.1,0.9-0.2,1.3-0.4c4.7-1.9,8.2-5.1,9.8-9.9c3-9.3,1.2-17.9-4.8-25.6
			c-0.8-1-1.9-1.8-3.1-2.4c-1.5-0.9-2.8-0.7-3.8,0.7c-1.2,1.7-2.3,3.5-3.1,5.4C372.5,94.9,372.2,99.2,372.4,102.9z M425.2,324.6
			c0.2-2.1-0.6-4.1-1.4-6.1c-1-2.6-3.6-3.9-6.1-2.8c-8.3,3.8-16.5,7.5-24.6,11.5c-2.5,1.3-4.8,3.1-7.1,4.9c-1.3,1-1.3,2.1-0.7,3.6
			c1.3,2.8,4.6,4.3,7.4,3.2c1.4-0.5,2.7-1.2,4-2c3.5-2,7.1-3.6,11.1-4.5c4.7-1,9.4-1.9,14.1-2.9c2.7-0.6,3.2-1.2,3.3-4
			C425.2,325.3,425.2,325,425.2,324.6z M402.5,348c0.6,0,1.3,0,1.9,0c0.8-0.1,1.7-0.2,2.5-0.4c8.4-1.8,15.9-5.6,23.3-9.9
			c0.5-0.3,0.8-0.9,1-1.4c0.6-2.6-1.6-5.5-4.2-5.4c-1.3,0-2.6,0.7-3.9,0.9c-3.3,0.7-6.7,1.3-10,2c-4.8,0.9-9.4,2-13.7,4.4
			c-1.7,1-2.6,2.2-2.5,4.2C397,347,398.1,348.1,402.5,348z M409.7,315.4c1.8,0.4,3.6-0.4,5.5-1.2c1.3-0.5,2.5-1,3.9-1.3
			c0.9-0.2,1.2-0.7,1-1.5c-0.5-2.1-0.9-4.2-1.5-6.3c-0.5-1.6-0.7-1.7-2.4-1.3c-5.4,1-10.5,2.7-15.5,5c-6.3,2.8-9.6,8.2-12.5,14
			c-0.1,0.3-0.2,0.6-0.2,0.9c0,0.3,0.1,0.6,0.2,0.8c0.5,0.7,2.8,1,3.5,0.7c3-1.5,6.1-3.1,9.1-4.6c0.4-0.2,0.9-0.6,1.1-1
			c1.6-2.5,3.6-4.4,6.9-4C409,315.5,409.2,315.4,409.7,315.4z M270.5,285.9c-1.6,1.5-3.1,2.8-4.3,4.2c-2.3,2.7-4.5,5.6-6.7,8.4
			c-0.9,1.1-1.1,2.3-0.6,3.8c2.8,8.6,5.5,17.3,8.3,25.9c0.1,0.2,0.2,0.4,0.4,0.9C272,314.7,270.4,300.4,270.5,285.9z M418.1,353.3
			c3.9-0.3,7.7-1,11.2-2.7c3.9-1.9,5.2-5.3,4.2-9.3c-0.1-0.4-0.4-0.8-0.6-1.1c-0.5-0.6-1.1-0.8-1.9-0.3c-0.7,0.5-1.5,1-2.3,1.3
			c-5.4,2.5-10.9,5-16.4,7.4c-1.2,0.5-1.1,1.6-1.3,2.5c-0.1,0.3,0.8,0.9,1.3,1.1C414.1,352.7,416.1,353,418.1,353.3z M413.2,286.8
			c-0.1,0-0.3,0-0.4,0c-1.4,5.4-2.8,10.9-4.2,16.5c1.8-0.5,3.3-0.9,4.6-1.2C413.2,296.9,413.2,291.9,413.2,286.8z"/>
		<path class="st0" d="M408.9,366.6c0.5,2.7,1.2,5.4,1.6,8.1c2.4,16.1,4.8,32.3,7,48.4c2.1,15.9,4,31.9,5.9,47.8
			c1.1,9.4,2,18.8,3.2,28.2c1.3,9.9,2.5,19.8,5.2,29.5c0.5,1.7,1.1,3.4,1.7,5c0.3,0.7,0.7,1.3,1.2,1.8c0.8,0.9,0.9,1.3-0.2,1.8
			c-1.8,0.9-3.6,1.8-5.4,2.5c-8,3.1-16.5,4.9-24.9,6.7c-13.6,2.9-27.3,5.8-40.9,8.8c-10.2,2.3-20.5,3.6-30.9,4
			c-6.6,0.2-13.1,0.5-19.7,0.5c-6.1,0-12.1-1.3-17.9-3.2c-9.4-3.1-19.1-4.8-29-5.6c-8.3-0.7-16.6-1.1-24.9-1.6c-1.9-0.1-3.8,0-5.7,0
			c0.7-4.6,1.5-9.3,2.1-14c1.4-10.1,2.7-20.2,4.1-30.3c1.7-12.4,3.2-24.8,5.1-37.2c4-26.2,8.2-52.3,12.4-78.4
			c0.9-5.4,1.8-10.7,2.9-16.1c0.3-1.6,1-3.2,1.7-5c0.8,1.9,2.3,2.6,3.8,3.2c4.4,1.8,9,2.6,13.6,3.3c16.6,2.5,33.3,4.1,50.1,3.7
			c12-0.3,23.9-1.6,35.8-3.5c7-1.1,13.9-2.4,20.9-3.6c0.2,0,0.5,0,0.8,0.1c-0.4,0.2-0.8,0.5-1.3,0.7c-10.3,5.3-21.1,9.6-31.9,13.9
			c-17.8,7-36,12.9-54.7,16.7c-8.4,1.7-16.9,2.9-25.3,4.3c-1.4,0.2-2.8,0.5-4.1,0.9c-0.5,0.2-1.2,0.9-1.2,1.2
			c0.1,0.5,0.7,1.2,1.2,1.3c1.6,0.4,3.2,0.7,4.8,0.8c10.1,0.7,20.1-0.2,30.1-1.5c17.3-2.3,34.5-5.2,51.7-8.6c1.3-0.2,2.5-0.5,3.7-1
			c-0.4,0.1-0.8,0.1-1.2,0.2c-13.4,2-26.8,4.2-40.2,6.1c-10.2,1.4-20.5,2.5-30.8,3.3c-5.2,0.4-10.4-0.1-15.6-0.2
			c-0.5,0-1-0.2-1.5-0.5c0.9-0.2,1.8-0.4,2.6-0.5c11.1-1.3,22.1-3.2,33-5.8c17.8-4.3,35-10.3,52-17.3c10.4-4.2,20.6-8.7,30.3-14.4
			c0.4-0.2,0.8-0.4,1.2-0.5C397.2,369.2,403,367.9,408.9,366.6z M407.3,370.1c0,0-0.1,0-0.1,0c-1.7,2.6-3.2,5.4-5.2,7.7
			c-4.1,4.8-8.2,9.6-12.6,13.9c-15,14.7-31.3,27.9-48.1,40.4c-22.3,16.6-44.8,32.9-67.9,48.4c-0.7,0.5-1.4,1-2.2,1.5
			c1-0.4,2-1,2.9-1.5c6.4-4.2,12.8-8.4,19.1-12.6c21.7-14.5,43.2-29.3,63.5-45.6c13.2-10.6,26.1-21.6,37.7-33.9
			c4.3-4.6,8.4-9.3,11.4-14.9C406.4,372.4,406.8,371.3,407.3,370.1z"/>
		<path class="st0" d="M271.8,341.5c0.5,0.3,1.1,0.6,1.6,0.8c4.8,1.8,9.8,2.3,14.8,2.8c10.9,1.2,21.9,1.4,32.8,1.5
			c16.8,0.1,33.5-0.1,50.2-1.9c5.8-0.6,11.6-1.7,17.4-2.6c2-0.3,4-0.5,5.9-0.8c0.1,1.3,0.1,2.9,0.4,4.4c0.5,3,2.1,4.4,5.1,4.7
			c1.6,0.1,3.3,0,5,0.2c-0.3,0.2-0.7,0.4-1,0.6c-6.9,3.8-14.4,5.9-22.1,7.2c-15.7,2.7-31.4,4.8-47.4,4.3c-9.5-0.3-19-1.1-28.5-1.8
			c-9.8-0.7-19.4-2.4-28.9-5c-4.5-1.3-9-2.6-12.5-5.8c-1.2-1.1-1.9-2.8-2.8-4.2c-0.1-0.2,0.3-0.8,0.5-1.1c2.2-3.7,4.7-7.3,6.7-11.1
			c2.8-5.3,3.6-11.1,4.2-16.9c1-9.9,0.4-19.7,0.3-29.6c0-5.7-1-11.2-2.8-16.6c-1.9-5.9-1.4-11.5,1.3-17c3.1-6.5,6.2-12.9,10.3-18.8
			c3-4.3,5.6-8.8,7.4-13.8c2.2-6.5,2-12.8-1-19c-1.4-2.8-2.7-5.7-4.1-8.5c-0.5-1-0.3-1.6,0.7-2.1c1.7-0.9,3.3-2,5-3.1
			c7.5-4.8,15.4-8.7,24-11c0.2-0.1,0.4-0.1,0.6-0.1c0.1,0,0.2,0,0.4,0.1c-0.3,0.7-0.5,1.5-0.8,2.2c-3.4,8.5-6.9,17-10.3,25.5
			c-0.4,1-1.1,2.1,0,3.1c0.7,0.7,1.6,0.4,3.2-0.7c3.3-2.3,6.6-4.6,9.9-6.9c0.6-0.4,1.4-0.7,2.3-1.1c0.1,0.5,0.1,0.8,0.2,1.2
			c1.3,12.1,3.8,23.8,8.9,34.9c3.3,7.2,8.4,13,14.3,18.2c1.5,1.4,3.4,1.2,5.1,0.8c3.6-0.8,6.7-2.8,9.7-4.9
			c16.5-11.9,26.8-27.9,30.9-47.8c0.1-0.4,0.2-0.8,0.3-1.2c0-0.1,0.1-0.1,0.2-0.3c0.4,0.6,0.9,1.2,1.3,1.9c1.5,2.5,3.1,5.1,4.6,7.6
			c0.2,0.3,0.4,0.6,0.6,0.9c1.1,1.3,2.5,1.2,3.3-0.2c6.3-10.6,12.7-21.1,19-31.7c0.1-0.1,0.2-0.3,0.3-0.5c0.8,0.3,1.5,0.6,2.3,0.9
			c5.7,2.4,10.4,6.1,14.5,10.7c2,2.2,4,4.6,6.1,6.8c0.6,0.6,0.6,1.2,0.2,1.9c-2.2,3.3-4.3,6.6-6.4,10c-4.8,7.8-8,16.3-10.7,25
			c-2.9,9.3-5.4,18.7-8.2,28.1c-1.3,4.6-2.4,9.2-2.9,14.1c-0.3,3.1-1.4,6.1-2.2,9.2c-1.6,6.3-3.3,12.6-4.9,18.9
			c-0.2,0.8-0.5,1.4-1.4,1.6c-0.3,0.1-0.7,0.3-1,0.4c-8.1,2.5-13.3,8.2-16.9,15.5c-0.1,0.3-0.2,0.5-0.3,0.8c-1.2,2.9-0.8,4.2,2,5.7
			c-0.9,0.6-1.7,1.2-2.5,1.9c-2.8,2.3-4.6,4.2-2.3,9c-0.5,0-0.9,0.1-1.3,0.1c-11-0.4-22.1-0.7-33.1-1.3c-8.3-0.4-16.5-1.1-24.8-1.8
			c-9.6-0.8-19.1-1.7-28.7-2.5c-0.7-0.1-1.3-0.1-2,0c30.6,3.7,61.2,8.1,92.2,7.6c0,0.2,0,0.3,0,0.5c-2.3,0.4-4.6,0.8-6.9,1.1
			c-16,2.3-32.1,2.8-48.2,2.9c-10.8,0.1-21.5-0.1-32.3-0.3c-8-0.2-16-0.8-23.9-2.3c-0.9-0.2-1.8-0.4-2.7-0.6
			C271.9,341.3,271.8,341.4,271.8,341.5z M388,256.6c-0.1-0.3-0.1-0.6-0.1-0.8c-0.2-2-0.2-4-0.5-6c-0.2-1.9-1.2-2.7-3.1-2.5
			c-1.7,0.2-3.5,0.5-5.2,1c-2,0.5-2.4,1.3-2.4,3.3c0,1.8,0.1,3.7,0,5.5c0,0.3-0.5,0.9-0.9,1c-3.9,0.2-7.9,0.7-11.8-0.2
			c-0.5-0.1-1.1-0.1-1.7-0.1c-1.3,0.1-1.9,0.6-1.9,2c-0.2,6-0.3,11.9-0.4,17.9c0,2,0.9,2.8,3,2.6c7.3-0.7,14.6-1.4,21.8-2.1
			c6.7-0.6,13.4-1.3,20.1-1.8c2.1-0.2,2.7-0.8,2.4-2.9c-0.4-3.5-0.8-6.9-1.1-10.4c-0.2-2.2-0.3-4.5-0.5-6.7
			c-0.1-1.4-0.7-1.9-2.1-1.9c-0.4,0-0.8,0.1-1.2,0.1C397.6,255.3,392.9,255.9,388,256.6z"/>
		<path class="st1" d="M266.5,77.7c0-0.5,0-1.2,0-1.8c0-1.9-1.3-2.6-3-1.7c-2.2,1.1-4.5,2.2-6.8,3.2c-0.6,0.3-1.3,0.4-2,0.5
			c-2.4,0.4-3.3-0.3-3.5-2.8c-0.2-2.8,0.3-5.6,1.1-8.3c1.4-4.8,3.8-8.9,7.9-11.8c0.3-0.2,0.6-0.5,1.2-1c-0.8,0-1.3-0.1-1.7,0
			c-2,0.5-3.7,1.7-5.1,3.3c-4.5,5.4-6.5,11.8-6,18.8c0.2,3.4,2.3,5,5.6,4.6c2.4-0.3,4.7-1.3,7.1-2.1c0.7-0.2,1.4-0.7,2.1-1
			c0.1,0.5,0.2,0.9,0.3,1.2c0.3,1.3,1,1.9,2.4,2.1c0.4,0,0.8,0.2,1.1,0.4c2,1.6,3.7,1.6,5.7-0.1c0.4-0.3,0.9-0.5,1.3-0.8
			c0.1,0.5,0.2,1.1,0.2,1.6c-0.1,5.1-0.6,10.3,0.9,15.3c0.9,3,2.3,5.9,3.7,8.8c1.4,3.1,3,6,4.4,9c3,6.3,4.3,12.9,4.6,19.8
			c0.2,4.1,0.5,8.1,1,12.2c0.2,1.6,0.9,3.1,1.5,4.7c0.5,1.2-0.1,2.2-1.4,1.9c-1.6-0.4-3.1-0.2-4.5,0.5c-1.1,0.5-2.2,0.2-2.9-0.8
			c-0.5-0.6-0.8-1.4-1.2-2.1c-0.4-1-0.7-2-1.1-2.9c-0.8-2.3-2.1-2.7-4.1-1.3c-1.3,0.9-2.6,1.9-4,2.6c-3.7,1.8-7.5,1.6-10.7-1
			c-5.7-4.4-8.1-10.4-7.1-17.6c0.7-4.9,3.2-8.9,6.7-12.3c0.8-0.8,1.7-1.5,2.4-2.4c0.4-0.6,0.8-1.4,0.7-2.1c-0.1-0.9-1.1-1.2-2-1.2
			c-1.8-0.1-3.6-0.1-5.4-0.3c-1.1-0.1-2.2-0.3-3.3-0.5c-0.9-0.2-1.2-0.7-0.9-1.6c0.3-0.8,0.5-1.6,0.8-2.4c0.7-2.1,0.1-2.9-2-3.1
			c-0.2,0-0.4-0.1-0.7-0.1c0.2-0.8,0.3-1.5,0.6-2.2c0.5-1.6,1.1-3.2,1.6-4.8c0.5-1.7-0.3-2.7-2.1-2.7c-1.2,0-2.3,0-3.5-0.2
			c-1.5-0.3-2.5-1.2-3-2.8c-0.4-1.6-1.2-2.1-2.9-1.9c-2.3,0.3-4.5,0.6-6.8,0.8c-1.7,0.1-3.4,0.1-5.1-0.1c-4.5-0.5-7.3-3.1-8.2-7.5
			c-2.8-14.1,7.1-27.5,21.3-29c0.4,0,0.9-0.1,1.3-0.2c1.2-0.4,1.6-1.5,0.9-2.6c-1.5-2.3-1-3.8,1.7-4.4c1.3-0.3,2.6-0.3,3.9-0.3
			c0.9,0,2,0,2.2-1c0.2-0.6,0-1.6-0.4-2.2c-1.6-2.8-1.6-4.6,0.7-6.7c2.5-2.2,5.1-4.4,8-6c14.2-8.1,29.4-12.3,45.8-11.6
			c3.1,0.1,6.1,0.8,9.1,1.3c1.4,0.2,2.6,0.4,3.9-0.6c0.5-0.4,1.5-0.4,2.2-0.4c2.9,0.3,5.7,0.6,8.5,1.2c2.4,0.5,4.4,0,6.2-1.8
			c3.6-3.4,7.9-5.1,12.9-5.4c6.7-0.4,13.2,0.5,19.4,3c6.8,2.6,11.7,7.2,14.3,14c1.2,3.1,2.1,6.4,3.2,9.6c0.3,0.9,0.5,1.8,0.8,2.6
			c0.1,0.3,0.7,0.7,1,0.7c0.3,0,0.8-0.6,0.8-0.9c0-1.3,0.8-1.6,1.7-2c4.3-1.7,8.6-1.7,12.9-0.1c7.7,2.9,14.2,7.5,19.2,14
			c6.5,8.4,6.3,17.8-0.5,25.9c-1.8,2.2-3.9,4.3-5.9,6.3c-1.2,1.3-1.5,2.4,0,3.9c0.6,0.6,0.7,1.8,0.8,2.7c0.1,1-0.1,2.1-0.2,3.1
			c-0.1,1.8,0.7,3.2,2.1,4.2c1.1,0.8,2.3,1.5,3.4,2.2c2.3,1.5,4,3.5,4.9,6.2c0.9,3.1,0.3,5.8-2.1,8c-3.5,3.2-7.6,4.9-12.3,5.5
			c-1.6,0.2-3.3,0.1-5,0c-2.2-0.1-3.1,0.7-3.2,2.8c-0.1,1.3,0,2.6-0.2,3.9c-0.4,3-2.2,4.6-5.3,4.7c-1,0-2-0.1-3-0.2
			c-1.9-0.2-2.8,0.2-3.5,2c-0.8,2.1-2.3,3-4.3,3.3c-2,0.3-4,0.1-5.9-0.7c-1.2-0.5-2.3-0.8-3.6,0.1c-0.9-4.3-1.9-8.5-2.8-12.8
			c7.6,0.6,16-7,17.5-15.8c1.6-9.3-0.4-17.7-6.4-25.1c-1.2-1.4-2.9-2.6-4.5-3.4c-2.4-1.3-4.7-0.7-6.6,1.3c-2.2,2.3-3.4,5.1-4.4,8
			c-0.1,0.4-0.3,0.8-0.4,1.2c-0.1,0-0.2,0-0.3,0.1c-0.2-0.6-0.5-1.1-0.5-1.7c0.1-1.1,0.4-2.3,0.6-3.4c0.2-0.9,0.4-1.8-0.6-2.4
			c-0.8-0.5-1.5,0-2.2,0.5c-3.8,2.8-10.5,1.8-13.4-1.9c-1-1.2-1.4-2.6-0.8-4c0.8-2,1.8-3.8,2.7-5.7c0.1-0.3,0.5-0.5,0.5-0.8
			c0.1-0.5,0.2-1.2-0.1-1.6c-0.3-0.3-1-0.6-1.4-0.5c-4.5,0.4-8.5-0.9-12-3.7c-2-1.6-2.4-4-2.5-6.4c0-0.7,0-1.4-0.1-2
			c-0.2-1.4-1.5-1.9-2.5-0.9c-2.7,2.6-5.8,3.3-9.4,2.5c-0.8-0.2-1.8,0.3-2.7,0.6c-0.5,0.2-0.9,0.7-1.4,1.1
			c-3.5,2.6-7.3,3.5-11.5,2.1c-0.9-0.3-1.9-0.7-2.9-0.9c-0.5-0.1-1.3,0.2-1.6,0.6c-0.3,0.3-0.2,1.3,0.1,1.6c1.3,1.6,1.9,3.3,1.6,5.3
			c-0.4,2.3-1.7,4-3.4,5.5c-3.2,2.8-7,3.7-11,4.2c-5,0.6-9.9,0.3-14.8-0.8c-2-0.5-3.9-1.4-5.7-2.3c-1.4-0.7-1.9-0.7-3,0.4
			c-0.4,0.4-0.8,0.7-1.1,1.1c-0.9,0.8-1.6,0.8-2.5-0.1C268.1,78.5,267.3,78.3,266.5,77.7z"/>
		<path class="st2" d="M357.8,706.7c0.5-3.1,1-6,1.4-9c2-14.1,3.4-28.3,4.3-42.5c1.1-16.3,1.6-32.7,1.3-49
			c-0.3-15.3-1.2-30.6-2.7-45.9c-0.1-1.2,0.2-1.6,1.3-1.8c15.7-3.3,31.4-6.7,47.2-10.1c2.7-0.6,5.4-1.2,8.2-1.9c0,0.4,0,0.8-0.1,1.1
			c-2.3,14.2-3.6,28.6-4.4,43c-1.3,22.6-2,45.1-1.8,67.8c0.1,13.9,1.5,27.8,3.6,41.6c0,0.3,0.1,0.6,0.1,1c0.3,2.8,0.8,2.4-2.2,3
			c-9,1.8-18,2.6-27.2,2.8c-9,0.1-18.1,0.2-27.1,0.2C359.2,706.9,358.6,706.8,357.8,706.7z"/>
		<path class="st2" d="M293.8,559.7c0.4,0.1,0.7,0.1,0.9,0.2c9.7,3.2,19.6,3.6,29.6,3.1c5.8-0.3,11.6-0.7,17.4-1.1
			c0.4,0,0.8,0,1.3,0c0,0.2,0.1,0.4,0.1,0.7c0.6,16.1,1.5,32.2,1.8,48.3c0.4,18.3,0.3,36.6,0.4,54.9c0,7.2,0.1,14.4-0.1,21.6
			c-0.2,4.8-0.9,9.6-1.3,14.4c-0.1,0.9-0.5,1.2-1.4,1.2c-3.4,0.3-6.8,0.6-10.3,0.9c-8.6,0.8-16.9-0.8-24.9-3.8
			c-5.5-2-10.7-4.5-15.6-7.7c-0.4-0.2-0.7-0.5-0.8-0.5c0.8-0.9,1.4-1.9,2.2-2.7c5-4.6,7.5-10.3,7.4-17.1c-0.1-7.8-0.1-15.7-0.6-23.5
			c-1.2-16.5-2.8-33.1-4.1-49.6c-0.9-11.4-1.4-22.9-2-34.4C293.8,563.1,293.8,561.5,293.8,559.7z"/>
		<path class="st3" d="M276.7,81.9c4.4,1.6,8.8,2.2,13.3,2.3c4.1,0.1,8.1-0.2,12-1.5c2.1-0.8,4.2-1.8,6-3.1c3.8-2.9,5.9-6.7,5-11.7
			c0.3,0,0.5,0,0.6,0c5.1,1.2,9.5-0.4,13.4-3.5c0.5-0.4,1.2-0.6,1.8-0.5c2.8,0.5,5.5,0.2,8-1.2c0.2-0.1,0.5-0.2,0.8-0.4
			c0.1,0.3,0.1,0.5,0.1,0.7c0.3,4.2,2.5,7.2,6.2,8.9c2.4,1.1,5,1.6,7.5,2.4c0.3,0.1,0.6,0.1,1,0.2c-0.4,0.9-0.8,1.6-1.1,2.4
			c-2.2,4.9-1,8.8,3.7,11.5c3.3,1.9,6.8,2.4,10.5,1.5c0.4-0.1,0.8-0.2,1.2-0.3c0,0.6,0,1,0,1.5c0.1,1.9,0.8,3.5,2.5,4.5
			c0.3,0.2,0.6,0.7,0.5,1.1c-0.3,3.8-0.1,7.7,0.5,11.5c0.6,3.7,1.1,7.5,1.5,11.3c0.7,6.9-0.8,13.5-3.9,19.6
			c-5.4,10.7-13,19.7-22.7,26.9c-1.8,1.3-3.9,2.4-5.9,3.4c-2.5,1.2-5.2,1.7-7.9,1.5c-8.7-0.4-17.2-2-24.8-6.5
			c-6.1-3.6-10.9-8.4-13.6-15.1c-1.6-3.8-1.6-7.9-1.7-11.9c-0.1-7-0.9-13.9-3.6-20.4c-1.4-3.4-2.9-6.9-4.8-10.1
			c-4.6-7.5-6.3-15.6-6.2-24.3C276.7,82.5,276.7,82.3,276.7,81.9z M309.8,145.4c-0.2,0.1-0.3,0.3-0.5,0.4c-0.6-0.8-1.2-1.7-1.9-2.3
			c-0.3-0.3-1-0.1-1.6-0.2c0,0.5-0.1,1-0.1,1.5c0,0.2,0.2,0.3,0.3,0.5c1.3,1.1,2.5,2.4,4,3.3c1.1,0.7,1.6,1.3,1.5,2.7
			c-0.2,3.2,1.1,6,3.6,8.1c2.1,1.7,4.5,2.8,7.1,3.2c4.4,0.7,7.9-0.9,10.3-4.5c1.1-1.6,1.9-3.5,2.8-5.3c1.7-3.4,3.4-6.7,6.7-8.8
			c0.7-0.4,1.2-1,1.7-1.7c0.5-0.7,0.9-1.5,1.2-2.3c0.3-0.8,0.1-1.6-0.8-1.8c-0.9-0.2-1.4,0.4-1.7,1.2c-0.2,0.5-0.4,1-0.7,1.5
			c-1.4,1.8-3.3,2.3-5.5,1.7c-1.9-0.6-3.8-1.3-5.7-2.1c-5.2-2-10.4-2.2-15.7-0.4C312.3,140.9,310.3,142.4,309.8,145.4z M311.5,135.9
			c-0.3-0.5-0.4-0.8-0.6-1c-1.2-1.4-2.5-2.8-3.7-4.2c-2.3-2.9-2.1-4.3,0.8-6.5c1.4-1,2.6-2.3,2.9-4c0.9-5,1.2-9.9-3-13.8
			c-2.3-2.2-4.8-3.9-7.9-4.7c-2.6-0.6-5-0.1-7,1.9c-2.5,2.5-3,6-1.4,9.6c1.4,3.2,4.6,5.3,7.9,4.9c1.7-0.2,3.5-0.9,5-1.7
			c1.5-0.8,2.7-2.1,4.1-3.2c0,0,0.1,0.1,0.1,0.2c0.3,2.9,0.3,7.4-3.3,9.3c-1.7,0.9-2.7,2.4-2.7,4.5c0.1,3.3,2.9,7.1,6,8.1
			C309.6,135.5,310.4,135.6,311.5,135.9z M333.2,113.5c4.1-0.2,8-1,11.4-3.5c2.1-1.6,2.9-3.7,2.5-6.2c-0.5-3.5-3.1-6.5-6.5-7.4
			c-3.5-0.9-6.8-0.3-10,1.4c-3.3,1.7-5.4,4.4-6.4,8c-0.5,1.8-0.1,3.3,1.2,4.7C327.4,112.7,330.1,113.6,333.2,113.5z M350.5,94.3
			c-0.3-0.6-0.5-1.1-0.9-1.4c-1-1-2-1.9-3.1-2.8c-2.5-2.1-5.4-2.7-8.5-1.7c-5.1,1.6-9.8,4-13.8,7.5c-0.6,0.5-1.1,1.1-1.5,1.7
			c-0.4,0.6-0.8,1.3-0.1,1.8c0.3,0.2,1.1-0.1,1.5-0.5c4.3-3.4,9-6,14.2-7.6c2.7-0.8,5-0.3,7,1.7c0.9,0.8,1.7,1.7,2.6,2.4
			c0.4,0.3,1.1,0.4,1.5,0.2C349.9,95.4,350.1,94.8,350.5,94.3z M293.3,93c-3.7,0.1-7.3,3-8.3,6.7c-0.2,0.8-0.6,1.7,0.4,2.1
			c1,0.4,1.2-0.7,1.6-1.2c0,0,0-0.1,0.1-0.1c3.1-4.8,6-5.6,11-2.7c2.1,1.2,4,2.7,6,4.1c1.1,0.7,2,0.8,2.6,0.1
			c0.6-0.7,0.5-1.7-0.6-2.5c-2.8-1.9-5.6-3.7-8.5-5.4C296.2,93.6,294.7,93.4,293.3,93z M322.3,132.3c0,0.1,0,0.2,0.1,0.2
			c0.2,0,0.3,0,0.5,0c0.9,0,1.8,0,1.9-1.2c0.1-0.8-0.6-1.4-1.8-1.4c-2.2-0.1-4.2,0.6-5.9,2c-0.4,0.3-0.4,0.9-0.6,1.4
			c0.5,0,1,0.2,1.4,0.1C319.3,133.1,320.8,132.7,322.3,132.3z"/>
		<path class="st4" d="M443,199.8c1.1,1.6,2.2,2.9,3.1,4.4c3.8,6.2,6.2,13.1,8.6,19.9c0.9,2.6,1.8,5.1,2.8,7.7
			c2,5.3,5.5,9.7,9.1,13.9c3.7,4.3,7.5,8.5,11.5,12.6c5.9,6.1,11,12.9,15.2,20.3c2.1,3.6,4.1,7.3,6.2,10.8c1.1,1.8,0.9,3.1-0.4,4.6
			c-3.8,4.3-7.5,8.6-11.3,12.9c-10,11.3-20.9,21.7-31.4,32.5c-4.3,4.5-8.3,9.3-12.4,14c-0.4,0.4-0.7,0.8-1.1,1.4
			c-2.4-3.2-4.7-6.3-6.9-9.4c-0.3-0.4-0.2-1.1-0.2-1.6c0-2.2-0.4-4.1-2.4-5.4c-0.2-0.1-0.3-0.5-0.3-0.8c0.6-4.9-1.1-7.5-5.9-8.7
			c1.3-5.1-0.2-9.6-2.9-14c3.5-2.9,6.3-6.5,9-10.1c3.7-5,7.4-9.9,10.8-15c2.2-3.3,5-5.8,8.5-7.6c5.8-3,11.7-5.9,17.6-8.9
			c0.6-0.3,1.2-0.6,1.6-1c0.3-0.3,0.5-1,0.4-1.2c-0.2-0.3-0.8-0.6-1.2-0.6c-0.4,0-0.9,0.2-1.2,0.4c-6.6,3.3-13.2,6.6-19.9,9.9
			c-0.3,0.2-0.7,0.2-1.1,0.3c0-0.4-0.1-0.9,0.1-1.3c2.4-5.1,4.8-10.1,7.2-15.1c0.2-0.4,0.4-0.8,0.4-1.1c0-0.4-0.2-0.8-0.3-1.3
			c-0.4,0.2-0.8,0.3-1.2,0.6c-0.2,0.2-0.3,0.5-0.5,0.8c-1.9,3.5-3.7,7-5.6,10.5c-0.3,0.5-0.5,1-1,1.4c0.3-1.9,0.6-3.8,0.9-5.8
			c-0.1,0-0.2-0.1-0.3-0.1c-0.9,2.8-1.9,5.5-2.9,8.4c-1-1.4-1.9-2.8-2.9-4.2c-6.1-8.4-12.8-16.5-19.8-24.2c-0.3-0.4-0.7-1.1-0.5-1.5
			c3-10.6,6.1-21.1,10.6-31.2C435.6,210.8,439.3,205.5,443,199.8z"/>
		<path class="st4" d="M248.9,268.3c0.8,1.6,1.7,3.1,2.3,4.8c1.8,5,3.5,10,5.3,15c0.3,0.8,0.1,2.2,1.5,2.1c1.2-0.1,1-1.3,1.2-2.2
			c1.3-5.7,2.5-11.4,3.8-17.1c0.1-0.7,0.3-1.3,0.4-2c-0.1,0-0.3-0.1-0.4-0.1c-1.8,5.3-3.6,10.7-5.3,16c-0.8-2.3-1.5-4.8-2.5-7.1
			c-1.5-3.6-3.2-7.2-4.9-10.8c-0.3-0.7-0.8-1.4-1.4-1.9c-0.4-0.4-1.2-0.6-1.7-0.4c-0.4,0.1-0.9,0.9-0.9,1.4c0,1.2,0.1,2.4,0.4,3.6
			c1.5,5.4,3.2,10.8,4.8,16.2c0.1,0.4,0.3,0.8,0.5,1.5c-0.7-0.3-1.2-0.6-1.6-0.8c-6.9-2.9-14.1-4.3-21.7-3.7c-0.6,0-1.3,0.1-1.9,0.3
			c-0.5,0.2-1.2,0.8-1.2,1.2c0,0.5,0.6,1.4,1,1.5c1.7,0.4,3.4,0.6,5.1,0.9c0-0.1,0.1-0.2,0.1-0.3c-0.3-0.2-0.6-0.5-0.9-0.7
			c0-0.1,0-0.2,0-0.3c1.6,0.1,3.3,0.1,4.9,0.3c4.4,0.4,8.7,1.5,12.8,3c2.8,1,4.4,2.9,5.3,5.7c2.4,8.2,4.8,16.3,7.4,24.4
			c1.3,4.1,2.9,8,4.3,12.1c0.2,0.6,0.2,1.5-0.1,2c-2,3.3-4,6.7-6.1,9.9c-1.1,1.6-1.3,3.1-0.3,4.8c0.5,0.8,0.9,1.6,1.3,2.4
			c0.2,0.3,0.5,0.6,0.8,0.8c1.4,1.1,2.8,2.1,4.1,3.2c0.3,0.3,0.4,0.9,0.3,1.4c-0.5,2.7-1,5.3-1.6,8c-0.1,0.3-0.2,0.7-0.4,0.8
			c-1.8,1.5-2.6,3.5-3.2,5.6c-0.3,1-0.6,2-1,3.2c-0.6-0.8-1.2-1.4-1.7-2.1c-6.8-8.6-13.6-17.3-19.6-26.5
			c-10.4-16.1-17.3-33.6-21-52.4c-0.2-0.9-0.2-1.8-0.4-2.6c-0.6-2.5,0.3-4.3,1.9-6.2c6.7-8.1,13.3-16.3,20-24.4
			c10.3-12.5,18.6-26.3,25.4-41c3.5-7.4,7.3-14.6,10.9-21.9c0.6-1.2,1.2-1.6,2.6-1.2c1.2,0.4,2.5,0.6,3.8,0.7
			c0.9,0.1,1.3,0.4,1.7,1.2c0.9,2,1.9,4,2.8,6c2.7,5.8,2.9,11.6,0.7,17.6c-1.7,4.4-4,8.5-6.7,12.3c-4.3,6.2-7.6,12.9-10.8,19.6
			c-2.9,6-3.5,12.3-1.5,18.8c1,3.2,1.5,6.6,2.3,9.9c0.2,0.9,0,1.5-0.7,2.2c-3.3,3.6-6.6,7.3-9.8,11c-0.8,0.9-1.3,2.2-2,3.5
			c-0.3-1.1-0.5-2.2-0.9-3.1c-0.8-1.9-1.7-3.7-2.5-5.5c-0.1-0.3-0.3-0.5-0.4-0.7c-1.7-6.4-3.5-12.8-5.2-19.2
			c-0.1-0.2-0.1-0.4-0.1-0.6C248.7,268.4,248.8,268.3,248.9,268.3z"/>
		<path class="st4" d="M397,206.6c-0.8-1.3-1.4-2.5-2.2-3.6c-2-2.9-4-5.8-6.3-8.5c-1-1.3-2.5-2.3-3.9-3.1c-1.1-0.6-2.5-1-3.8-1
			c-10.9,0.3-19.2,4.9-24,15.1c-1,2.1-1.9,4.3-2.8,6.5c0,0.1,0,0.1,0.1,0.5c0.7-0.9,1.4-1.6,2-2.4c2.5-3.1,4.9-6.3,7.5-9.4
			c4.6-5.5,10.9-7.1,17.7-7.2c2.1,0,3.3,1.6,4.7,2.8c0.1,0.1,0.1,0.5,0.1,0.8c-2,9.8-5,19.2-10.3,27.7c-6,9.5-13.5,17.5-23.1,23.4
			c-1.7,1-3.7,1.7-5.6,2.5c-1.1,0.4-2,0.1-2.9-0.7c-7.8-6.9-13-15.3-16.3-25.2c-2.8-8.4-4.5-17-6.2-25.6c0-0.2,0-0.4-0.1-0.9
			c0.9,0.3,1.7,0.3,2.3,0.8c2,1.6,4.2,3.2,5.9,5.1c5.2,5.8,8.8,12.4,9.4,20.4c0.1,1.7,0.8,3.3,1.3,5c0.2,0.8,0.8,0.9,1.4,0.4
			c0.6-0.6,1.2-1.3,1.5-2.1c0.8-1.9,1.4-3.8,2.2-5.7c3.2-8.1,6.4-16.3,9.6-24.4c0.8-1.9,1.9-3.6,3.4-5c7.9-7.4,15.8-14.8,23.7-22.3
			c1.6-1.5,3.1-3.1,4.7-4.7c0.7-0.7,1.3-1.7,0.7-2.5c-0.2-0.3-1.4-0.1-2.4-0.1c-0.5-1.6-1.2-3.6-2-5.8c1.9,0.4,3.6,0.7,5.3,1
			c5.6,1.1,10.9,3,16.1,5.5c4.2,2.1,7.6,5.2,10.9,8.4c0.9,0.9,1.1,1.6,0.4,2.7c-1.8,3.2-3.4,6.4-5.3,9.5c-4.3,7.1-8.7,14.2-13,21.3
			C397.4,205.9,397.2,206.2,397,206.6z M352.6,232.9c0,0.1,0.1,0.2,0.1,0.3c1.6-0.5,3.3-0.8,4.8-1.6c2.6-1.4,3.1-4.7,1.3-6.8
			c-2.7-3.2-8.7-2.8-11,0.7c-2.1,3.2-0.8,6.4,3,7.2C351.4,232.8,352,232.8,352.6,232.9z"/>
		<path class="st5" d="M342.5,706.3c-0.1,2.1-0.1,4.1-0.3,6c-0.3,2.7-0.6,5.5-1.4,8.1c-1.5,4.8-4.2,5.8-7.7,5.6
			c-1.4-0.1-2.8,0-4.2,0.1c-1.3,0.2-2.6,0.4-3.8,0.8c-13.2,5.4-27,7-41.1,6.8c-7.3-0.1-14.5-0.7-21.5-2.5c-3.8-1-7.5-2.4-10.7-4.7
			c-0.9-0.7-1.2-1.3-0.8-2.5c2.1-5.4,4.3-10.8,8.1-15.3c0.3-0.4,0.7-0.8,1-1.2c2.3-2.7,5-3.8,8.7-3.6c8.2,0.4,15.6-2.1,22.3-6.7
			c0.8-0.5,1.3-0.6,2.1-0.1c8.5,4.9,17.5,8.3,27.2,9.7c5.7,0.8,11.4,0.6,17.1-0.2C339,706.6,340.7,706.5,342.5,706.3z"/>
		<path class="st5" d="M385.8,753.6c-6.5,0.1-13,0-19.3-1.7c-2.4-0.6-4.8-1.6-7-2.7c-2.5-1.3-3.5-3.7-3.3-6.5
			c0.4-4.2,1.7-8.2,3.2-12.1c2.6-6.5,5.3-12.9,7.9-19.4c0.3-0.7,0.8-0.7,1.4-0.8c7.5-0.1,15-0.2,22.5-0.5c3.6-0.1,7.2-0.5,10.8-0.8
			c0.6-0.1,1.1-0.1,1.4,0.7c3,6.6,5.9,13.1,9,19.6c2.2,4.7,2.4,9.7,1.6,14.7c-0.5,3.2-2.3,5.6-5.6,6.7c-5.1,1.8-10.3,2.5-15.6,2.8
			C390.5,753.7,388.2,753.6,385.8,753.6z"/>
		<path class="st3" d="M333.8,174.3c0.7-0.1,1.6-0.2,2.4-0.4c4.9-1,9.2-3.5,13-6.6c9.6-7.8,17.4-17.1,22.6-28.5
			c0.9-1.9,1.5-3.9,2.3-6.1c0.5,2.4,0.9,4.5,1.3,6.6c1.8,8.6,4.1,17,7.1,25.3c0.4,1,0.3,1.6-0.5,2.4c-8.2,7.7-16.3,15.4-24.4,23
			c-2.2,2.1-4,4.4-5,7.2c-3.1,8.4-6.1,16.7-9.2,25.1c-0.2,0.6-0.6,1.1-0.8,1.6c-0.1,0-0.2,0-0.4-0.1c-0.2-2-0.6-4-0.6-6
			c-0.1-6.5-0.1-13,0-19.6c0.1-4-1-7.6-3.4-10.8c-1.4-1.8-2.1-3.8-2.6-6C335.1,179.2,334.4,176.8,333.8,174.3z"/>
		<path class="st5" d="M268,355.8c8.7,3.7,17.7,5.7,26.9,7c6.9,0.9,13.8,1.5,20.8,2.1c5.3,0.4,10.5,0.7,15.8,1
			c10.9,0.6,21.8-0.3,32.7-1.6c8.5-1,16.9-2.1,25.2-4.1c6.3-1.5,12.3-3.9,18-7.1c0.4-0.2,0.8-0.5,1.2-0.7c1.9,2.3,4.6,2.7,7.2,2.8
			c3.1,0.1,6.1-0.2,9.4-0.3c0.2,0.8,0.5,1.9,0.9,3.4c-8.4,2.3-16.6,4.8-25,6.8c-16.4,3.8-33.1,6.7-49.8,8.7
			c-18.2,2.1-36.4,2.1-54.6-0.1c-8-0.9-16-2.2-24-3.5c-1.9-0.3-3.7-1.1-5.5-1.7c-0.8-0.3-1.1-0.7-1-1.6c0.5-3.3,0.9-6.6,1.4-9.8
			C267.8,356.6,267.9,356.2,268,355.8z"/>
		<path class="st2" d="M429,490.1c-5.4-41.4-9.4-83.1-16.9-124.3c4-1.3,8.2-2.6,12.5-4c0.2,0.8,0.5,1.8,0.6,2.8
			c1.9,11.7,3.8,23.4,5.5,35.1c1.5,10.5,2.6,21.1,2.9,31.8c0.3,13.4-0.7,26.7-2.3,40C430.6,477.6,429.8,483.8,429,490.1z"/>
		<path class="st4" d="M308.6,201.8c3.8-9.5,7.8-18.9,10.6-28.8c0.3,0,0.5,0,0.8,0c3.2,0.4,6.4,0.9,9.6,1.2c1,0.1,1.5,0.4,1.7,1.3
			c0.4,2.2,1,4.4,1.3,6.6c0.3,2.2,1.1,4.1,2.8,5.8c2.4,2.4,3.7,5.5,3.7,9c0,4.8,0,9.5,0,14.3c0,0.2,0,0.5-0.1,1
			c-0.4-0.6-0.6-1-0.8-1.3c-3-5.3-6.6-10-11.6-13.7c-2.6-2-5.4-2.3-8.2-0.9c-3,1.5-5.8,3.4-8.6,5.1c-0.3,0.2-0.6,0.4-0.9,0.6
			C308.9,201.8,308.8,201.8,308.6,201.8z"/>
		<path class="st3" d="M372.4,102.9c-0.1-3.7,0.1-7.9,1.8-11.9c0.8-1.9,1.9-3.7,3.1-5.4c1-1.4,2.3-1.6,3.8-0.7
			c1.1,0.7,2.3,1.4,3.1,2.4c6,7.7,7.8,16.3,4.8,25.6c-1.6,4.8-5,8.1-9.8,9.9c-0.4,0.2-0.8,0.3-1.3,0.4c-2.2,0.4-2.5,0.2-2.5-2
			c-0.1-3.9-0.9-7.6-2.4-11.2c-0.4-0.9-0.5-2.1-0.6-3.1C372.3,105.7,372.4,104.6,372.4,102.9z M376.3,97.1c-0.1,0-0.3,0-0.4,0
			c-0.2,0.5-0.4,1-0.5,1.6c-0.5,2.2-1.2,4.5-1.6,6.7c-0.3,1.6,0.3,2.3,1.8,3c0.7,0.4,1.4,0.7,2.1,1.2c1.7,1.3,1.9,2.6,1.1,4.5
			c-0.4,0.9-0.9,1.7-1.3,2.6c-0.2,0.4-0.2,0.8-0.4,1.5c0.7-0.3,1.1-0.4,1.5-0.6c4.1-3,4-7.8-0.2-10.6c-0.3-0.2-0.6-0.4-0.9-0.5
			c-0.9-0.3-1.1-0.8-1.1-1.8C376.3,102.1,376.3,99.6,376.3,97.1z"/>
		<path class="st3" d="M425.2,324.6c0,0.4,0,0.7,0,1c-0.1,2.7-0.6,3.4-3.3,4c-4.7,1-9.4,1.9-14.1,2.9c-3.9,0.8-7.6,2.4-11.1,4.5
			c-1.3,0.7-2.6,1.5-4,2c-2.9,1.1-6.2-0.4-7.4-3.2c-0.7-1.5-0.6-2.6,0.7-3.6c2.3-1.8,4.5-3.6,7.1-4.9c8.1-4,16.4-7.8,24.6-11.5
			c2.5-1.1,5.1,0.2,6.1,2.8C424.6,320.5,425.4,322.5,425.2,324.6z"/>
		<path class="st3" d="M402.5,348c-4.5,0.1-5.6-1-5.7-5.5c-0.1-2,0.8-3.3,2.5-4.2c4.3-2.4,9-3.5,13.7-4.4c3.3-0.6,6.7-1.3,10-2
			c1.3-0.3,2.6-0.9,3.9-0.9c2.6-0.1,4.8,2.8,4.2,5.4c-0.1,0.5-0.5,1.1-1,1.4c-7.3,4.2-14.9,8.1-23.3,9.9c-0.8,0.2-1.7,0.3-2.5,0.4
			C403.8,348.1,403.2,348,402.5,348z"/>
		<path class="st3" d="M409.7,315.4c-0.5,0-0.7,0.1-0.9,0.1c-3.3-0.3-5.3,1.5-6.9,4c-0.3,0.4-0.7,0.8-1.1,1c-3,1.6-6.1,3.1-9.1,4.6
			c-0.8,0.4-3,0-3.5-0.7c-0.2-0.2-0.2-0.5-0.2-0.8c0-0.3,0.1-0.6,0.2-0.9c2.9-5.8,6.2-11.2,12.5-14c5-2.2,10.1-3.9,15.5-5
			c1.7-0.3,1.9-0.2,2.4,1.3c0.6,2.1,1,4.2,1.5,6.3c0.2,0.8,0,1.3-1,1.5c-1.3,0.3-2.6,0.8-3.9,1.3
			C413.3,314.9,411.5,315.8,409.7,315.4z"/>
		<path class="st3" d="M418.1,353.3c-2-0.4-3.9-0.7-5.9-1.2c-0.5-0.1-1.3-0.8-1.3-1.1c0.2-0.9,0.1-2,1.3-2.5
			c5.5-2.4,10.9-4.9,16.4-7.4c0.8-0.4,1.6-0.8,2.3-1.3c0.8-0.5,1.4-0.4,1.9,0.3c0.3,0.3,0.5,0.7,0.6,1.1c1,3.9-0.3,7.4-4.2,9.3
			C425.8,352.3,422,353.1,418.1,353.3z"/>
		<path class="st4" d="M413.2,286.8c0,5,0,10,0,15.2c-1.3,0.4-2.9,0.8-4.6,1.2c1.4-5.6,2.8-11.1,4.2-16.5
			C412.9,286.8,413.1,286.8,413.2,286.8z"/>
		<path d="M407.3,370.1c-0.5,1.1-0.9,2.3-1.5,3.4c-2.9,5.6-7.1,10.3-11.4,14.9c-11.6,12.4-24.5,23.3-37.7,33.9
			c-20.4,16.3-41.8,31.1-63.5,45.6c-6.3,4.3-12.7,8.4-19.1,12.6c-0.9,0.6-1.8,1.1-2.9,1.5c0.7-0.5,1.4-1,2.2-1.5
			c23.1-15.5,45.6-31.8,67.9-48.4c16.8-12.6,33.1-25.7,48.1-40.4c4.5-4.4,8.6-9.2,12.6-13.9c2-2.3,3.5-5.1,5.2-7.7
			C407.2,370.1,407.3,370.1,407.3,370.1z"/>
		<path d="M388,256.6c4.9-0.7,9.6-1.3,14.4-1.9c0.4-0.1,0.8-0.1,1.2-0.1c1.4-0.1,2,0.4,2.1,1.9c0.2,2.2,0.3,4.5,0.5,6.7
			c0.3,3.5,0.7,6.9,1.1,10.4c0.2,2.1-0.4,2.7-2.4,2.9c-6.7,0.6-13.4,1.2-20.1,1.8c-7.3,0.7-14.6,1.4-21.8,2.1c-2.1,0.2-3-0.6-3-2.6
			c0.1-6,0.3-11.9,0.4-17.9c0-1.3,0.6-1.8,1.9-2c0.5-0.1,1.1,0,1.7,0.1c3.9,0.8,7.9,0.3,11.8,0.2c0.3,0,0.8-0.6,0.9-1
			c0.1-1.8,0.1-3.7,0-5.5c0-2,0.4-2.8,2.4-3.3c1.7-0.4,3.4-0.7,5.2-1c1.9-0.2,2.9,0.5,3.1,2.5c0.2,2,0.3,4,0.5,6
			C387.9,256,388,256.2,388,256.6z M404.3,273.3c-0.4-5.4-0.8-10.8-1.1-16.1c-0.3,0-0.6,0-0.8,0.1c-7.3,1-14.5,2.2-21.8,3.1
			c-5.7,0.7-11.5,1.2-17.3,0.2c-0.4-0.1-0.8,0-1.1,0c0.2,5.7,0.4,11.4,0.6,16.9C376.5,276,390.4,274.6,404.3,273.3z M385.6,257
			c-0.2-2.2-0.3-4.3-0.4-6.3c0-0.8-0.3-1.1-1.1-1c-1.4,0.3-2.8,0.5-4.2,0.9c-0.3,0.1-0.7,0.7-0.8,1.1c-0.2,2-0.2,4-0.3,6.2
			C380.9,257.5,383.2,257.3,385.6,257z"/>
		<path d="M309.8,145.4c0.5-3,2.5-4.5,5.1-5.4c5.3-1.8,10.5-1.7,15.7,0.4c1.9,0.7,3.8,1.5,5.7,2.1c2.1,0.7,4,0.1,5.5-1.7
			c0.3-0.4,0.5-1,0.7-1.5c0.3-0.7,0.7-1.4,1.7-1.2c0.9,0.2,1.1,1.1,0.8,1.8c-0.3,0.8-0.7,1.6-1.2,2.3c-0.5,0.6-1,1.3-1.7,1.7
			c-3.4,2.1-5,5.4-6.7,8.8c-0.9,1.8-1.7,3.6-2.8,5.3c-2.5,3.6-5.9,5.2-10.3,4.5c-2.7-0.4-5.1-1.5-7.1-3.2c-2.5-2.1-3.7-4.9-3.6-8.1
			c0.1-1.4-0.4-2-1.5-2.7c-1.4-0.9-2.7-2.2-4-3.3c-0.1-0.1-0.3-0.3-0.3-0.5c0-0.5,0.1-1,0.1-1.5c0.5,0,1.3-0.1,1.6,0.2
			c0.7,0.7,1.3,1.5,1.9,2.3C309.5,145.7,309.6,145.5,309.8,145.4z M336.1,145.1c-2.2-0.9-4.4-1.8-6.6-2.6c-4.6-1.8-9.2-1.9-13.8-0.3
			c-1.2,0.4-2.3,1.3-3.2,2.2c-1,1-0.6,2.6,0.5,3.2C319.8,151.5,330.2,150.4,336.1,145.1z M313.7,150.4c0.1,1,0.2,1.7,0.3,2.4
			c1,4.3,5.7,7.5,10.6,7.2c1.6-0.1,3.1-0.6,4.2-1.7c2.5-2.3,3.4-5.4,4.9-8.4C327.2,153.3,320.6,153.6,313.7,150.4z"/>
		<path d="M311.5,135.9c-1.1-0.3-1.9-0.4-2.7-0.6c-3.2-1-5.9-4.8-6-8.1c-0.1-2.1,1-3.6,2.7-4.5c3.6-1.9,3.6-6.5,3.3-9.3
			c0-0.1-0.1-0.2-0.1-0.2c-1.4,1.1-2.6,2.4-4.1,3.2c-1.5,0.8-3.3,1.5-5,1.7c-3.3,0.4-6.5-1.7-7.9-4.9c-1.6-3.5-1.1-7.1,1.4-9.6
			c2-1.9,4.3-2.5,7-1.9c3.1,0.8,5.6,2.5,7.9,4.7c4.3,3.9,4,8.8,3,13.8c-0.3,1.7-1.5,3-2.9,4c-3,2.1-3.2,3.6-0.8,6.5
			c1.2,1.5,2.5,2.8,3.7,4.2C311,135.1,311.1,135.4,311.5,135.9z M296.5,104.3c-0.3,0.1-0.5,0.2-0.8,0.4c-2,1.3-2.8,3.5-2.1,6
			c0.7,2.8,2.6,4.5,5.1,4.6c2.9,0.2,7.2-2.5,8.3-5.3c0.3-0.8,0-1.2-0.6-1.5c-1.3,3.6-4,5.3-6.9,4.4
			C296.5,112.1,295.5,109.1,296.5,104.3z M298,107.2c0.2,1.4,0.3,2.9,1.8,3.5c1.1,0.5,2.6,0,3.5-0.9c1.4-1.4,1.1-3.3-0.6-4.3
			c-0.7-0.4-1.4-0.7-2.1-0.9c-1.5-0.6-2.1-0.2-2.5,1.4C298.1,106.3,298.1,106.8,298,107.2z"/>
		<path d="M333.2,113.5c-3.1,0.1-5.7-0.8-7.9-3.1c-1.3-1.4-1.7-2.9-1.2-4.7c1-3.6,3.2-6.2,6.4-8c3.1-1.7,6.5-2.3,10-1.4
			c3.5,0.9,6,3.8,6.5,7.4c0.4,2.6-0.4,4.7-2.5,6.2C341.2,112.4,337.3,113.3,333.2,113.5z M330.1,100.9c-2.2,1.6-3.5,3.8-4.3,6.2
			c0.7,0.6,1.2,1.2,1.9,1.7c1,0.6,2,1.3,3.1,1.5c4.1,0.7,7.9-0.2,11.5-2.4c1.4-0.9,2.1-2.1,1.9-3.8c-0.4-2.1-1.7-4.1-3.3-4.5
			c0.6,3.4,0.1,5.6-1.7,7.5c-1.5,1.5-3.3,2.1-5.4,1.4c-2.1-0.6-3.3-2.1-3.6-4.2C330,103.2,330.1,102.1,330.1,100.9z M332.3,102.5
			C332.2,102.6,332.2,102.6,332.3,102.5c0.1,0.7,0.1,1.4,0.4,2c0.8,1.7,2.8,2.2,4.3,1.1c1.8-1.3,2.2-4.4,0.8-6.2
			c-0.3-0.3-0.7-0.7-1.1-0.7c-2.9-0.4-4.3,0.9-4.3,3.7C332.3,102.5,332.3,102.5,332.3,102.5z"/>
		<path d="M350.5,94.3c-0.4,0.5-0.6,1.1-1.1,1.3c-0.4,0.2-1.1,0.1-1.5-0.2c-0.9-0.7-1.8-1.6-2.6-2.4c-2-2-4.3-2.5-7-1.7
			c-5.2,1.6-9.9,4.2-14.2,7.6c-0.4,0.3-1.2,0.6-1.5,0.5c-0.7-0.5-0.4-1.2,0.1-1.8c0.5-0.6,1-1.2,1.5-1.7c4.1-3.5,8.7-5.9,13.8-7.5
			c3.2-1,6-0.4,8.5,1.7c1.1,0.9,2.1,1.9,3.1,2.8C350,93.3,350.2,93.8,350.5,94.3z"/>
		<path d="M293.3,93c1.4,0.4,3,0.6,4.2,1.3c2.9,1.6,5.7,3.5,8.5,5.4c1.1,0.7,1.2,1.8,0.6,2.5c-0.6,0.7-1.5,0.6-2.6-0.1
			c-2-1.4-3.9-2.9-6-4.1c-5-2.9-7.9-2.2-11,2.7c0,0,0,0.1-0.1,0.1c-0.5,0.5-0.7,1.6-1.6,1.2c-0.9-0.4-0.6-1.4-0.4-2.1
			C286,96,289.6,93.2,293.3,93z"/>
		<path d="M322.3,132.3c-1.5,0.4-3,0.8-4.5,1.2c-0.4,0.1-0.9-0.1-1.4-0.1c0.2-0.5,0.3-1.1,0.6-1.4c1.7-1.4,3.7-2.1,5.9-2
			c1.2,0,1.9,0.6,1.8,1.4c-0.1,1.1-1,1.2-1.9,1.2c-0.2,0-0.3,0-0.5,0C322.3,132.4,322.3,132.3,322.3,132.3z"/>
		<path d="M352.6,232.9c-0.6-0.1-1.2-0.1-1.8-0.2c-3.8-0.8-5.1-4-3-7.2c2.3-3.5,8.2-3.9,11-0.7c1.8,2.1,1.3,5.4-1.3,6.8
			c-1.5,0.8-3.2,1.1-4.8,1.6C352.7,233.1,352.6,233,352.6,232.9z M352.5,230.3c0,0.1,0.1,0.2,0.1,0.2c1.3-0.4,2.6-0.7,3.7-1.4
			c1.5-0.9,1.3-2.5-0.2-3.3c-1.6-0.9-3.3-0.9-5-0.5c-1.2,0.3-2.2,1.6-2.2,2.8c0,1,0.8,1.7,2.2,2C351.6,230.3,352,230.3,352.5,230.3z
			"/>
		<path d="M376.3,97.1c0,2.5,0.1,5.1,0,7.6c0,0.9,0.2,1.5,1.1,1.8c0.3,0.1,0.6,0.3,0.9,0.5c4.2,2.7,4.3,7.6,0.2,10.6
			c-0.3,0.2-0.8,0.3-1.5,0.6c0.2-0.7,0.3-1.1,0.4-1.5c0.4-0.9,0.9-1.7,1.3-2.6c0.9-1.9,0.6-3.3-1.1-4.5c-0.6-0.5-1.4-0.8-2.1-1.2
			c-1.5-0.7-2-1.4-1.8-3c0.4-2.3,1-4.5,1.6-6.7c0.1-0.5,0.3-1,0.5-1.6C376,97,376.1,97,376.3,97.1z"/>
		<path class="st4" d="M404.3,273.3c-13.9,1.4-27.7,2.7-41.6,4.1c-0.2-5.6-0.4-11.2-0.6-16.9c0.3,0,0.7-0.1,1.1,0
			c5.8,1,11.6,0.5,17.3-0.2c7.3-0.9,14.6-2.1,21.8-3.1c0.3,0,0.5,0,0.8-0.1C403.5,262.5,403.9,267.8,404.3,273.3z"/>
		<path class="st5" d="M385.6,257c-2.3,0.3-4.7,0.6-6.8,0.8c0.1-2.1,0.1-4.1,0.3-6.2c0-0.4,0.4-1,0.8-1.1c1.4-0.4,2.8-0.6,4.2-0.9
			c0.8-0.2,1.1,0.2,1.1,1C385.3,252.7,385.4,254.7,385.6,257z"/>
		<path class="st6" d="M336.1,145.1c-5.9,5.3-16.3,6.4-23.1,2.5c-1.1-0.6-1.5-2.2-0.5-3.2c0.9-0.9,2-1.8,3.2-2.2
			c4.6-1.6,9.3-1.4,13.8,0.3C331.7,143.4,333.8,144.2,336.1,145.1z"/>
		<path class="st6" d="M313.7,150.4c6.9,3.2,13.5,2.9,20.1-0.5c-1.4,3-2.4,6.2-4.9,8.4c-1.2,1.1-2.6,1.7-4.2,1.7
			c-4.9,0.2-9.6-2.9-10.6-7.2C313.8,152.1,313.8,151.4,313.7,150.4z"/>
		<path class="st7" d="M296.5,104.3c-1,4.8,0,7.8,3,8.6c2.9,0.8,5.6-0.9,6.9-4.4c0.6,0.4,0.9,0.8,0.6,1.5c-1.1,2.7-5.3,5.4-8.3,5.3
			c-2.5-0.2-4.4-1.8-5.1-4.6c-0.6-2.5,0.2-4.7,2.1-6C296,104.5,296.2,104.5,296.5,104.3z"/>
		<path class="st1" d="M298,107.2c0.1-0.4,0.1-0.8,0.2-1.3c0.4-1.6,1-1.9,2.5-1.4c0.7,0.3,1.4,0.6,2.1,0.9c1.7,0.9,1.9,2.8,0.6,4.3
			c-0.9,1-2.4,1.4-3.5,0.9C298.3,110.1,298.2,108.6,298,107.2z"/>
		<path class="st7" d="M330.1,100.9c0,1.2-0.1,2.3,0,3.4c0.3,2.2,1.5,3.6,3.6,4.2c2,0.6,3.9,0.1,5.4-1.4c1.8-1.9,2.3-4.1,1.7-7.5
			c1.6,0.5,3,2.4,3.3,4.5c0.3,1.7-0.4,3-1.9,3.8c-3.5,2.2-7.4,3-11.5,2.4c-1.1-0.2-2.1-0.9-3.1-1.5c-0.7-0.4-1.2-1-1.9-1.7
			C326.6,104.7,327.9,102.6,330.1,100.9z"/>
		<path class="st1" d="M332.3,102.5c0,0,0-0.1,0-0.1c0.1-2.9,1.5-4.1,4.3-3.7c0.4,0.1,0.9,0.4,1.1,0.7c1.4,1.7,1,4.8-0.8,6.2
			c-1.5,1.1-3.6,0.7-4.3-1.1C332.4,103.9,332.3,103.2,332.3,102.5C332.2,102.6,332.2,102.6,332.3,102.5z"/>
		<path class="st5" d="M352.5,230.3c-0.4,0-0.9-0.1-1.3-0.1c-1.4-0.3-2.2-1-2.2-2c0-1.2,0.9-2.5,2.2-2.8c1.7-0.5,3.4-0.4,5,0.5
			c1.5,0.8,1.7,2.5,0.2,3.3c-1.1,0.7-2.5,0.9-3.7,1.4C352.5,230.5,352.5,230.4,352.5,230.3z"/>
	</g>
</g>
</svg>
