<?xml version="1.0" encoding="utf-8"?>
<!-- Generator: Adobe Illustrator 22.1.0, SVG Export Plug-In . SVG Version: 6.00 Build 0)  -->
<svg version="1.1" id="Слой_3" xmlns="http://www.w3.org/2000/svg" xmlns:xlink="http://www.w3.org/1999/xlink" x="0px" y="0px"
	 viewBox="0 0 690 500" enable-background="new 0 0 690 500" xml:space="preserve">
<g>
	<g>
		<defs>
			<rect id="SVGID_1_" x="225.6" y="19.9" width="238.8" height="460.1"/>
		</defs>
		<clipPath id="SVGID_2_">
			<use xlink:href="#SVGID_1_"  overflow="visible"/>
		</clipPath>
		<g clip-path="url(#SVGID_2_)">
			<defs>
				<rect id="SVGID_3_" x="225.6" y="19.9" width="238.8" height="460.1"/>
			</defs>
			<clipPath id="SVGID_4_">
				<use xlink:href="#SVGID_3_"  overflow="visible"/>
			</clipPath>
			<path clip-path="url(#SVGID_4_)" d="M322.8,182.4c1.4-1.5,2.3-3.2,3-5.1c1-2.8,1.4-5.8,1.6-8.7c0.2-3.1,0.2-6.1,0.2-9.2
				c0-1.1-1.4-2-2.5-1.9c-4.2,0.6-8.1-0.4-11.6-2.8c0,0-0.1,0-0.1-0.1c-0.8-1.4-2.2-1.5-3.6-1.7c-7.9-1.2-10.1-9.4-7.6-14.8
				c0.7-1.4,1.8-2.3,3.3-2.7c-0.1-0.5-0.4-1-0.3-1.4c0.1-0.4,0.6-0.7,0.8-0.9c-0.5-1.9-1.2-3.8-1.6-5.7c-0.2-1-0.1-2.1,0-3.1
				c0.1-1,0.3-2.1,1.3-2.7c-0.8-1.6-1.7-3.1-2.4-4.7c-0.8-1.7-1.6-3.5-2-5.3c-0.9-3.6,0.5-5.4,4.2-5.6c1.2-0.1,2.4,0,3.7,0
				c-0.3-1.2-0.6-2.3-0.8-3.4c-0.1-0.4-0.1-0.9-0.1-1.3c0.1-1.3,0.8-1.8,2-1.7c0.5,0,1,0.1,1.5,0.2c0.4,0.1,0.9,0.1,1.4,0.2
				c-0.2-0.5-0.4-1-0.5-1.4c-0.5-1.7,0.1-3,1.8-3.5c1.6-0.4,3.3-0.7,5-0.7c2.5-0.1,5,0.2,7.4,0.3c0.4,0,0.7,0,1.1,0.1
				c-0.1-1.1-0.4-2.2-0.4-3.2c0-1,0.1-2,0.4-3c0.3-1,1-1.3,1.9-1.1c1.6,0.4,3.1,0.9,4.6,1.5c2.1,0.8,4.1,1.8,6.2,2.8
				c0.2-0.8,0.3-1.6,0.5-2.3c0.5-1.7,1.3-2.2,3-2c3.3,0.4,6.4,1.5,9.2,3.2c0.2,0.1,0.5,0.3,0.7,0.4c0,0,0.1,0,0.1,0
				c0.2-0.6,0.4-1.2,0.6-1.9c0.5-1.3,1.2-1.5,2.3-0.7c1.6,1.2,3.2,2.4,4.6,3.8c1.7,1.6,3.3,3.4,4.9,5.1c0.3,0.3,0.5,0.6,0.8,0.9
				c1.4-1.6,1.7-1.6,2.8,0.2c2.6,3.9,3.9,8.2,4.5,12.8c0.6,4.4,1.1,8.9,1.5,13.3c0.1,1,0,2,0,3c0,0.7,0,1.3,0,2.1
				c0.2-0.1,0.3-0.1,0.4-0.2c2.2-1.4,3.9-1,5.3,1.2c1.7,2.6,2,5.4,1.3,8.3c-1,4.1-2.9,7.7-6.8,9.8c-0.9,0.5-1.9,0.7-2.9,1.1
				c-0.3,0.1-0.5,0.2-0.7,0.4c-1.5,1.4-2.9,3-4.5,4.3c-3.7,3-7.5,5.8-11.7,8.1c-1.2,0.6-2.5,1.1-3.7,1.7c-0.3,0.1-0.6,0.5-0.6,0.8
				c0.2,3.3,0.4,6.5,0.8,9.8c0.3,2.7,1.8,4.6,4.3,5.7c0.6,0.3,1.2,0.6,1.9,0.9c0.1-0.4,0.3-0.7,0.3-1c0-0.9,0.4-0.9,1.1-0.6
				c4.3,1.8,8.8,3.3,13,5.3c2.8,1.3,5.4,3.3,8,5c0.3,0.2,0.5,0.7,0.4,1c-0.4,2.3,0.1,4.5,0.8,6.7c1.7,5.7,3.4,11.3,4.9,17
				c0.6,2.2,0.8,4.6,1,6.9c0.1,1.1-0.2,1.3-1.3,1.4c-2.2,0.1-4.3,0.2-6.5,0.4c-0.3,0-0.6,0.1-1.1,0.2c0,1.3,0.1,2.6,0,3.9
				c-0.5,7.5-0.9,15-1.4,22.6c-0.1,1.7,0.3,3.3,1,4.9c1.6,3.1,3,6.2,3.8,9.5c0.9,4,1,8,0.8,12.1c-0.2,6.7,0.4,13.4,2.5,19.9
				c0.6,1.9,1.7,3.7,2.6,5.5c1,2,2.1,3.8,3.1,5.8c0.3,0.6,0.4,1.4,0.3,2c-0.4,2.3-0.9,4.6-1.4,6.8c-0.5,2-1.5,3.7-3.4,4.7
				c0.2,0.6,0.4,1.1,0.6,1.6c3,8,6.1,16,8.4,24.3c0.3,1,0.5,2,0.7,2.9c0.2,1.1-0.1,1.5-1.3,1.5c-1.8-0.1-3.7-0.3-5.5-0.5
				c-0.2,0-0.4,0-0.9,0c-1.7,22.6-4.1,45.2-5.6,67.9c2.7-0.4,4.2,1,5.2,3.1c0.6,1.3,1.4,2.6,2,3.9c1.4,3,3.7,5.3,6.6,6.8
				c2,1,4.2,1.9,6.3,2.8c0.3,0.1,0.7,0,0.9-0.1c2.7-1.2,3.9-1,5.8,1.2c2.4,2.9,4.7,5.8,5.7,9.6c0.8,3.3-0.1,5.2-3.3,6.5
				c-4,1.6-8.2,1.9-12.5,1.7c-3.9-0.1-7.6-1.2-11-3.2c-5.6-3.2-11.6-3.4-17.7-2.4c-1.6,0.3-3.4,0.4-4.9,0c-3.1-0.9-4.9-3.4-5-6.5
				c-0.3-4.9,0.5-9.8,2.9-14.2c0.6-1.1,1.2-2.3,2.7-2.6c0-5,0.2-10,0-15c-0.3-5.8-0.8-11.5-1.4-17.3c-0.5-5.6-1.9-11-3.2-16.5
				c-0.7-3-1.4-6.1-1.3-9.2c0.1-3.2,1-6.1,2.3-9c1-2.1,1.8-4.2,2.6-6.4c0.1-0.3,0.2-0.6,0.3-1.1c-1.5,0.1-2.8,0.2-4.2,0.3
				c-2.4,0.2-4.8,0.5-7.2,0.8c-0.9,0.1-1.4-0.3-1.5-1.1c-0.2-1.1-0.3-2.1-0.4-3.2c-0.8-14.3-3-28.4-6.3-42.3
				c-0.6-2.8-1.6-5.5-2.4-8.3c0-0.1-0.1-0.1-0.3-0.4c-0.2,2-0.4,3.8-0.6,5.6c-0.7,7.6-0.6,15.2-0.6,22.9c0,9.2-0.3,18.4-0.5,27.7
				c0,1.6-0.3,1.9-1.9,1.8c-3.5-0.1-7-0.2-10.6-0.4c-0.5,0-0.8,0.1-0.9,0.6c-2.8,7.2-5.6,14.3-8.3,21.5c-3,7.6-5,15.6-6.2,23.7
				c-1,7.6-1.9,15.3-2.7,23c-0.2,2.2-0.3,4.4-0.5,6.6c1.5-0.3,1.9,0,2.1,1.4c0.2,2.3,0.3,4.6,0.5,7c0.4,4.7,2,9,4.7,13
				c2.1,3.1,3.6,6.4,4.2,10.1c0.5,2.7-0.9,5.2-3.3,6.5c-2.7,1.4-5.5,2.2-8.5,2.4c-5.8,0.4-11.5,0.5-17.2-0.5c-2.2-0.4-4.2-1-6-2.4
				c-2.2-1.7-2.8-3.4-1.9-6c0.4-1.1,1-2.2,1.4-3.3c0.2-0.6,0.3-1.3,0.2-1.9c-0.3-2.1-0.8-4.1-1-6.2c-0.4-2.6,0.2-5,1.5-7.3
				c0.2-0.4,0.4-1,0.3-1.5c-0.1-1.7-0.2-3.4-0.3-5c-0.3-4,1.9-5.9,4.7-6.7c1.1-0.4,1.4-0.9,1.4-2c0.3-5.7,0.7-11.4,0.9-17.1
				c0.3-7,0.4-14.1,0.5-21.1c0.2-8.9,1-17.7,2.3-26.5c0.5-3.5,1-7.1,1.5-10.6c0-0.2,0-0.4,0-0.7c-1-0.1-1.9-0.2-2.9-0.4
				c-1.3-0.2-1.4-0.4-1.3-1.7c1-9,3.5-17.7,6.1-26.4c2.5-8.2,4.8-16.5,6.3-25c0.4-2.1,0.8-4.3,1.1-6.4c0.1-0.5-0.2-1.1-0.4-1.6
				c-0.8-1.4-0.9-1.7,0.2-3c1.3-1.5,1.4-3.3,1.2-5.1c-0.1-0.8-0.2-1.6-0.3-2.5c-0.1-1.2,0.4-1.7,1.6-1.4c0.4,0.1,0.9,0.2,1.3,0.3
				c0.1-0.1,0.1-0.2,0.2-0.3c-3-2.3-6-4.7-9-7c-7.5-5.6-15-11.1-22.4-16.8c-2.3-1.7-4.3-3.8-6.3-5.8c-1.2-1.2-2.2-2.7-2.6-4.5
				c-0.1-0.7-0.2-1.6,0-2.2c0.7-1.7,1.6-3.5,2.5-5.1c2.5-4.3,5-8.5,7.6-12.8c0.3-0.6,0.3-0.9-0.1-1.4c-0.5-0.7-1-1.4-1.5-2.1
				c-0.5-0.7-0.5-1.4,0.1-2.1c3.3-4.3,6.5-8.6,9.8-12.9c3.7-4.8,7-9.9,8.8-15.7c0.6-1.8,1.5-2.6,3.3-3c5.1-1.3,10.1-2.7,14.8-5.2
				c0.6-0.3,1.1-0.6,1.7-0.9c0.6-0.4,1.1-0.2,1.5,0.3C321.9,181.4,322.3,181.8,322.8,182.4 M376.2,209c1.4-0.3,2.7-0.6,4-0.7
				c0.4-0.1,1.1,0.2,1.2,0.4c0.1,0.4-0.2,0.9-0.4,1.3c-0.1,0.3-0.4,0.5-0.6,0.7c-1.7,1.4-3.5,2.8-5.3,4.2c-0.2,0.2-0.6,0.1-0.9,0.1
				c0.2-0.3,0.3-0.6,0.5-0.8c1.6-1.3,3.2-2.5,4.7-3.8c0.4-0.3,0.7-0.6,1.1-0.9l-0.2-0.3c-0.5,0.1-0.9,0.1-1.4,0.2
				c-0.8,0.2-1.7,0.5-2.5,0.6c-0.9,0.2-1.3-0.2-1.2-1.1c0-0.2,0.1-0.4,0.1-0.6c1-3.6,1.3-7.3,1-11.1c-0.1-0.6-0.1-1.3-0.2-1.9
				c-1,4.8-2.5,9.5-2.7,14.4c-0.2,4.9-0.6,9.8-0.9,14.9c5.3-0.9,10.2-2.9,15.5-2.2c0-0.5,0-0.8,0-1c-0.4-2.5-0.6-5-1.3-7.4
				c-1.4-5.2-3-10.4-4.6-15.6c-0.7-2.3-1.3-4.5-0.9-6.9c0-0.2-0.1-0.5-0.3-0.6c-2.6-1.7-5.1-3.5-7.9-4.9c-3.1-1.6-6.4-2.7-9.6-4
				c-1-0.4-2-0.7-2.9-1.1c-0.1,0.1-0.1,0.1-0.1,0.2c0,0.1-0.1,0.3-0.1,0.4c-0.9,3.9-3.3,6.5-7,8c-2.9,1.1-6,1.7-9.1,1.9
				c-9.3,0.5-17.1-2.5-23.3-9.6c-0.1-0.1-0.2-0.3-0.3-0.4c-0.8,0.4-1.5,0.8-2.2,1.1c-4.8,2.5-10,3.9-15.1,5.3
				c-1.2,0.3-1.8,0.9-2.1,2.1c-1.8,5.8-5,10.9-8.7,15.8c-3.3,4.4-6.6,8.7-10,13.1c-0.4,0.6-0.6,1-0.1,1.6c0.7,0.8,1.2,1.8,1.9,2.6
				c5.3,5.9,11.3,10.8,18.4,14.5c0.5,0.2,1,0.4,1.5,0.6c0.2-0.2,0.3-0.4,0.4-0.5c2.8-4.2,6.1-8.1,9.9-11.4c0.6-0.5,1-1.3,1.2-2
				c0.6-2,1-4,1.5-6c0.3-1.4,0.6-2.8,1-4.3c-0.1,0-0.1,0-0.2-0.1c-0.6,1.5-1.1,3-1.8,4.4c-0.3,0.7-0.4,1.8-1.3,1.7
				c-0.5-0.1-1.1-0.9-1.4-1.5c-1.4-2.4-2.9-4.8-5-6.7c-0.3-0.2-0.5-0.4-0.9-0.7c0,0.3,0,0.4,0,0.6c0.1,0.4,0.2,0.8,0.3,1.2
				c0.9,3,2.3,5.7,4,8.2c0.1,0.2,0.1,0.6,0.1,0.9c-0.2-0.1-0.6-0.2-0.7-0.4c-2-3-3.7-6.1-4.4-9.6c-0.1-0.5,0.2-1.1,0.3-1.7
				c0.5,0.2,1.2,0.3,1.6,0.6c2,1.6,3.4,3.7,4.7,5.8c0.5,0.8,0.9,1.6,1.4,2.5c0.3-0.8,0.6-1.4,0.8-2c0.9-2.2,1.8-4.5,2.8-6.7
				c0.1-0.3,0.5-0.4,0.8-0.6c0.1,0.3,0.4,0.6,0.3,0.9c-0.2,1.3-0.4,2.6-0.7,3.8c-1,3.8-2,7.6-3,11.3c-0.1,0.2,0,0.5,0,0.7
				c1.2,5,1.6,10.1,1.9,15.2c0.1,1,0.3,2.1,0,3c-0.4,1.2-0.9,2.3-0.2,3.6c0.1,0.1,0,0.4,0,0.5c-0.4,5-0.8,9.9-1.3,14.9
				c0,0.3,0,0.6,0,0.9c0.5-0.5,0.8-1,1-1.6c0.4-1,1.1-1.5,2.1-1.4c2.5,0.2,5.1,0.3,7.6,0.6c0.5,0.1,1.2,0.6,1.4,1.1
				c0.2,0.5-0.2,1.2-0.4,1.8c-0.1,0.2-0.5,0.3-0.7,0.5c0,0.1,0.1,0.2,0.1,0.2c2.7,0.2,3.7,1.8,4.1,4.2c0.4,2.3,0.3,4.5-0.2,6.7
				c-0.3,1.6-0.6,3.2-1,4.9c16.3,2,32.6,2.1,48.9,3.3c-0.4-1.7-0.7-3.3-1-4.9c-2.3-10.5-4.5-21.1-6.8-31.6
				c-0.8-3.8-1.3-7.6-0.9-11.5c0.7-8.5,1.3-17.1,2-25.7c0.1-1.8,0.1-3.6,0.4-5.4c0.8-4.1,1.7-8.2,2.6-12.3c0.1-0.4,0.4-0.7,0.6-1
				c0.3,0.3,0.5,0.7,0.8,1c0.1,0.1,0,0.2,0.1,0.4c0.6,3.8,0.6,7.5,0,11.3C376.8,206.5,376.5,207.7,376.2,209 M296.8,350.3
				c1.1,0.2,2.1,0.3,3,0.4c5.9,0.8,11.8,1.9,17.7,2.4c7.7,0.6,15.4,0.8,23,1.2c2,0.1,2.1,0.1,2.1-1.9c0.1-8.7,0.3-17.5,0.4-26.2
				c0.1-10.6-0.3-21.1,1.8-31.6c0.1-0.8,0.4-1.2,1.1-1.5c4-2.1,8-4.2,12-6.2c0.4-0.2,0.9-0.2,1.4-0.2c-0.3,0.3-0.6,0.8-1,1
				c-3.9,2.1-7.8,4.1-11.7,6.1c-0.3,0.2-0.7,0.6-0.7,0.9c0,0.7,0.1,1.4,0.3,2.1c0.8,2.9,1.8,5.7,2.4,8.6c1.4,7,2.8,14,4,21
				c1.2,6.9,2,13.9,2.3,21c0,1.2,0.2,2.4,0.3,3.6c0.1,0.5,0.2,0.9,0.9,0.8c3.8-0.4,7.6-0.8,11.4-1.1c8.6-0.8,17.2-0.8,25.8,0.2
				c1.2,0.1,2.3,0.2,3.6,0.3c-0.3-1.3-0.5-2.5-0.9-3.6c-2.9-8.3-5.7-16.6-8.7-24.9c-3-8.3-5.9-16.7-7.3-25.5c-0.4-2.3-1-4.8,1.1-6.7
				c-1.3-1.4-2.6-2.7-3.8-4c-0.4-0.5-0.9-0.7-1.6-0.8c-4.7-0.3-9.4-0.5-14.1-0.8c-5.9-0.3-11.9-0.6-17.8-1.1
				c-4.3-0.3-8.7-0.8-13-1.2c-0.6-0.1-0.8,0.1-1.1,0.6c-0.3,0.6-0.9,1.1-1.5,1.4c-0.5,0.3-0.9,0.6-1.1,1.2c-0.4,1.2-1.2,2-2.5,2
				c-2.3,0-4.5,0-6.8-0.2c-1.9-0.2-3.2-1.7-2.8-3.6c0.2-1.3-0.2-2.2-0.8-3.3c-0.7-1.5-1.9-1.5-3.4-1.8c0.1,0.7,0,1.3,0.2,1.8
				c0.5,1.1,1,2.1,1.6,3.1c1.5,2.5,3.6,4.4,5.9,6.1c1.4,1,2.8,1.9,4.2,2.9c0.2,0.1,0.3,0.5,0.4,0.7c-0.3,0-0.6,0.1-0.8,0
				c-4.2-2.7-8.3-5.5-10.9-9.9c0-0.1-0.1-0.1-0.3-0.2c0.1,1.7-0.7,3.1-1.6,4.3c-0.2,0.3-0.4,1-0.2,1.3c0.9,1.3,0.8,2.6,0.6,4
				c-1.5,9.1-3.7,18.1-6.3,27c-2.2,7.5-4.7,15-6,22.7C297.6,345.3,297.2,347.8,296.8,350.3 M375.5,132c0-1.2,0-2.3,0-3.5
				c0-0.7,0.1-1.6-0.2-2.2c-1.8-3.6-3.6-7.2-5.5-10.7c-0.6-1.1-1.4-2.3-2.3-3.2c-2.4-2.5-5.3-3.5-8.7-2.5c-3.5,1-7,2.2-10.5,2.8
				c-5.8,1.1-11.7,0.7-17.5,0.3c-2.1-0.1-4.2-0.1-6.2-0.2c-0.8,0-1.2,0.4-1.4,1.2c-0.2,0.8-0.4,1.5-0.6,2.3c-1,3.9-1.8,7.8-3,11.6
				c-1.2,3.7-2.9,7.2-6,9.8c-1.4,1.2-1.4,2.2-1,3.6c0.1,0.3,0.2,0.5,0.3,0.8c1.5,3.7,3.5,7.2,6.7,9.6c3.5,2.7,7.3,5.1,11,7.4
				c2.3,1.4,4.7,2.5,7.2,3.5c6.3,2.5,12.5,2.5,18.5-0.8c5-2.8,9.6-6.2,14-9.9c1.7-1.4,2.8-3.2,3.4-5.5
				C374.8,141.8,375.4,136.9,375.5,132 M311.7,138.3c1.8-1.2,3-2.7,4.1-4.4c2.2-3.5,3.5-7.3,4.5-11.2c0.7-2.9,1.3-5.9,2-8.8
				c0.4-1.5,0.8-1.8,2.3-1.8c2.7,0,5.4,0.1,8.2,0.3c4.8,0.2,9.6,0.4,14.4-0.3c3.8-0.5,7.5-1.5,11.1-2.9c4.2-1.6,8.5,0.5,10.4,3.1
				c0.7,1,1.4,1.9,2,3c1.6,2.9,3,5.7,4.5,8.6c0.1,0.2,0.3,0.5,0.4,0.7c0.1,0,0.2-0.1,0.3-0.1c-0.6-4.6-1.2-9.3-1.8-13.9
				c-0.6-4.2-1.9-8.2-4.3-11.7c-0.2-0.3-0.4-0.6-0.7-0.9c-0.2,0.2-0.3,0.4-0.5,0.6c-0.6,0.9-1,0.9-1.7,0.2c-0.4-0.4-0.7-0.8-1.1-1.2
				c-2.5-2.8-5-5.6-8-7.8c-0.5-0.3-1-0.6-1.6-1c-0.3,0.9-0.6,1.6-0.8,2.3c-0.4,1.4-0.6,1.4-1.7,0.7c-2.5-1.7-5.3-2.7-8.2-3.2
				c-2.6-0.4-3.1-0.6-3.5,2.8c-0.2,1.6-0.4,1.7-1.9,1c-3.1-1.3-6.3-2.7-9.5-3.9c-1.3-0.5-1.8-0.1-1.8,1.2c0,1.6,0.2,3.2,0.4,4.7
				c0.1,1,0,1.3-1.1,1.2c-1.1-0.1-2.3-0.3-3.4-0.2c-2.8,0-5.6-0.1-8.3,0.2c-2.9,0.3-3.3,1.2-2.2,4c0.4,1,0.1,1.3-0.9,1.3
				c-0.9-0.1-1.8-0.3-2.6-0.4c-1.1-0.1-1.5,0.1-1.4,1.2c0.1,0.9,0.3,1.9,0.6,2.8c0.6,2.2,0.5,2.4-1.8,2.4c-1.4,0-2.8,0.1-4.2,0.4
				c-1.3,0.3-1.8,1.1-1.8,2.4c0,0.5,0.1,1,0.1,1.5c0.5,2.7,1.9,5,3.1,7.4c0.5,0.9,1,1.8,1.4,2.7c0.1,0.3,0.1,0.9-0.1,1
				c-1.2,0.6-1.1,1.6-1.2,2.7c-0.2,2.8,0.5,5.3,1.9,7.7c0.6,1,0.4,1.2-0.7,1.4c-0.1,0-0.2,0.1-0.5,0.2
				C307.7,136,310.6,135.9,311.7,138.3 M301.1,352.1c-0.4,3-0.8,6.2-1.3,9.3c-1.7,11.1-2.5,22.3-2.7,33.5
				c-0.1,7.3-0.4,14.6-0.7,21.9c-0.2,3.9-0.4,7.8-0.7,11.7c0,0.3,0.1,0.6,0.2,0.8c0.1,0,0.2,0,0.3,0c0.2-2.4,1.6-3.9,3.8-4.8
				c2.9-1.2,5.8-0.8,8.6,0.4c2,0.9,2.7,2,2.5,4.2c0,0.7-0.1,1.3-0.2,2c0.1,0,0.2,0,0.3,0.1c0.1-0.3,0.2-0.6,0.3-0.9
				c0.2-2,0.2-4.1,0.4-6.1c0.8-7.3,1.6-14.6,2.5-21.9c1.1-8.7,3.2-17.1,6.4-25.3c2.7-6.9,5.4-13.8,8.1-20.7c0.2-0.4,0.3-0.9,0.5-1.5
				c-1.1-0.1-2.2-0.2-3.2-0.1c-0.5,0-1,0.2-1.5,0.4c-1,0.5-1.9,1.2-3,1.6c-2.8,1.1-5.7,0.9-8.6,0.5c-0.6-0.1-1.3-0.2-1.9-0.4
				c-0.2,0-0.3-0.3-0.4-0.5c0.2-0.1,0.3-0.2,0.5-0.3c0.2,0,0.4,0.1,0.5,0.1c2.6,0.5,5.2,0.7,7.8,0.3c1.5-0.3,2.9-0.8,4-1.6
				C316.2,353.8,308.7,353,301.1,352.1 M381,431.4c0-1.6-0.1-3,0-4.4c0.2-2.3,0.8-4.5,2.1-6.4c0.4-0.6,0.6-1.2,0.6-1.8
				c0.5-7,0.9-14.1,1.5-21.1c0.4-5.6,1-11.3,1.5-16.9c0.4-4.9,0.8-9.9,1.2-14.8c0.3-3.5,0.6-7.1,0.9-10.4c-1.1,0.5-2.2,1.2-3.3,1.5
				c-3.3,0.7-6.4,0-9.3-1.4c-0.1-0.1-0.3-0.1-0.3-0.2c-0.1-0.2-0.2-0.4-0.1-0.6c0-0.1,0.3-0.2,0.5-0.2c0.3,0.1,0.5,0.2,0.8,0.3
				c2.5,1.1,5.1,1.7,7.9,1.3c2.7-0.4,4.6-2.5,4.4-5c-1.2-0.1-2.3-0.2-3.5-0.3c-5.6-0.5-11.1,0-16.7,0.4c-0.2,0-0.6,0.3-0.7,0.5
				c-0.8,3.1-2.3,6-3.6,8.9c-1.6,3.6-2,7.3-1.4,11.1c0.7,3.7,1.6,7.3,2.4,11c1.4,6.2,2.2,12.5,2.6,18.8c0.5,6.2,0.9,12.5,0.7,18.7
				c-0.1,1.7-0.1,3.4-0.2,5.1c0,0.3,0.2,0.8,0.4,0.9c2.8,1.5,5.6,2.9,8.5,4.2C378.8,431.2,380,431.2,381,431.4 M284.1,223.9
				c-0.2,0.3-0.4,0.6-0.6,0.9c-2.5,4.3-5.1,8.5-7.6,12.8c-0.6,1.1-1.2,2.2-1.7,3.2c-0.9,1.7-0.6,3.3,0.3,4.9
				c0.4,0.7,0.8,1.4,1.4,1.9c1.6,1.6,3.1,3.3,4.8,4.7c10.4,8,20.9,15.8,31.3,23.7c0.2-0.2,0.4-0.5,0.5-0.7c0.2,0.2,0.4,0.4,0.6,0.6
				c0.4,0.8,0.8,1.6,1,2.4c0.8,2.9,2.9,3.8,5.6,3.6c0.7-0.1,1.6,0.1,1.7-1c0-0.2,0.4-0.3,0.6-0.4c0.1,0.2,0.3,0.4,0.3,0.6
				c0,0.9,0,1.7-0.1,2.6c0,0.2-0.2,0.5-0.2,0.7c-0.2-0.2-0.5-0.3-0.6-0.6c-0.2-0.3-0.2-0.7-0.3-1c-1.7-0.1-3.3-0.2-4.9-0.3
				c-0.1,0.4-0.3,0.8-0.3,1.3c-0.1,1.2,0.6,2.5,1.5,2.6c2.5,0.5,5,0.7,7.5,0.2c0.5-0.1,1.1-0.6,1.2-1c0.5-1.3,0.9-2.7,1.1-4.1
				c0.4-2.3,0.3-2.3-1.8-3.3c-1.1-0.5-2.1-1-3.2-1.5c-0.2-0.1-0.2-0.5-0.4-0.7c0.2,0,0.5-0.1,0.7,0c1.2,0.5,2.5,1.1,3.7,1.7
				c1.8,0.9,2,1.3,1.8,3.3c-0.1,0.8-0.2,1.6-0.3,2.4c0.1,0.1,0.2,0.1,0.3,0.2c0.3-0.5,0.8-1,1-1.5c0.5-2,0.9-3.9,1.3-5.9
				c0.2-1.2,0-1.6-1.2-2.1c-1.2-0.4-2.5-0.7-3.7-1.1c-0.3-0.1-0.5-0.4-0.8-0.6c0.3-0.1,0.7-0.2,1-0.2c1.7,0.4,3.4,0.9,5.1,1.4
				c0.4-1.9,0-2.8-1.9-3.6c-1-0.4-2.1-0.6-3.1-1c-0.2-0.1-0.3-0.3-0.5-0.5c0.2-0.1,0.4-0.3,0.7-0.3c0.2,0,0.4,0,0.5,0.1
				c1.4,0.4,2.7,0.9,4,1.3c0-1.8-0.6-2.7-2.5-3.1c-2.1-0.4-4.2-0.6-6.3-1c-0.4-0.1-0.7-0.3-1-0.5c0.4-0.1,0.8-0.3,1.2-0.3
				c0.9,0.1,1.8,0.4,2.7,0.3c0.9,0,1.8-0.3,2.7-0.7c0.3-0.1,0.5-0.7,0.4-1.1c0-0.2-0.5-0.5-0.8-0.6c-2.5-0.2-4.9-0.4-7.4-0.5
				c-0.7,0-1,0.3-1.2,0.9c-1,2.8-3.1,3.9-5.9,3c-1.4-0.5-2.8-1.2-3.9-2.2c-1.5-1.3-2.7-2.8-3.9-4.4c-2.7-3.6-5.3-7.3-7.8-11
				c-2.4-3.5-5.4-6.4-9.4-8.1c-0.3-0.1-0.4-0.5-0.6-0.8c0.3,0,0.7-0.1,1,0.1c1.4,0.7,2.8,1.5,4.3,2.2c1.7-2.3,3.4-4.7,5.1-7
				C292.5,231.7,288,228.2,284.1,223.9 M351.5,164.8c-0.3,0.1-0.6,0.1-0.9,0.2c-2.4,0.6-4.8,0.6-7.2,0.2c-4.8-0.8-9.2-2.7-13.4-5.1
				c-0.5-0.3-0.9-0.5-1.3-0.8c-0.2,3.5-0.2,6.9-0.5,10.3c-0.4,4.8-1.3,9.6-4.8,13.5c1.5,1.1,2.8,2.2,4.3,3.2
				c6.2,3.8,12.9,4.9,20,3.7c2.9-0.5,5.6-1.2,8.1-2.8c1.7-1.2,2.9-2.8,3.5-4.8c-1-0.5-2-1-3-1.5c-1.9-1.1-3.2-2.7-3.6-4.8
				c-0.3-1.5-0.6-3.1-0.7-4.6C351.7,169.2,351.7,167,351.5,164.8 M372.6,225.5c0,0,0,0.1-0.1,0.2c-0.3,3-0.6,6-0.9,9
				c-0.4,3.7-0.5,7.4,0.3,11.1c2,9.5,4,19,6,28.5c0.8,3.5,1.5,7.1,2.3,10.6c0.1,0.7-0.1,1-0.8,1c-0.4,0-0.8,0-1.3,0
				c1.3,1.3,2.5,2.5,3.7,3.7c0.8,0.8,0.7,1,0,1.7c-0.5,0.6-0.9,1.3-1,2.1c-0.1,0.9-0.1,1.9,0.1,2.8c1,4.5,2.1,9,3.2,13.5
				c0.2,0.8,0.1,1.8,1.1,2.2c0.1,0,0.1,0.3,0.1,0.5c-0.3,1.3,0.5,2.4,0.9,3.5c0.2-0.6,0.3-1.2,0.4-1.8c0.1-0.3,0.3-0.6,0.5-0.8
				c0.1,0.3,0.4,0.6,0.4,0.8c0,0.7-0.1,1.4-0.3,2c-0.8,1.8,0.1,3.2,0.7,4.7c1.8-0.9,2.5-2.4,2.9-4.1c0.5-2,0.9-4.1,1.3-6.2
				c0.1-0.7,0.1-1.6-0.3-2.3c-0.8-1.8-1.9-3.5-2.8-5.3c-1-1.9-2.1-3.7-2.8-5.7c-2.1-6.5-2.8-13.3-2.6-20.1c0.1-3.7,0.2-7.5-0.6-11.2
				c-0.8-3.8-2.4-7.2-4.1-10.6c-0.7-1.5-1.2-2.9-1-4.6c0.1-1.4,0-2.8,0.1-4.2c0.4-6.1,0.9-12.2,1.3-18.2c0.1-1.4,0-2.7,0-4.1
				C377.1,224.5,374.9,225,372.6,225.5 M292.9,242.5c1.9,2.4,3.7,4.6,5.4,6.8c2.5,3.3,4.7,6.8,7.2,10.1c1.3,1.7,2.9,3.3,4.5,4.8
				c1.2,1.1,2.8,1.6,4.5,1.6c0.6,0,1-0.2,1-1c0.1-1.9,0.2-3.8,0.4-5.7c0.3-3.3,0.6-6.6,0.8-9.9c0-0.7-0.2-1.4-0.2-2.1
				c0-0.5-0.2-1.2,0.1-1.6c0.5-0.8,0.7-1.6,0.6-2.5c-0.4-3.9-0.7-7.7-1.1-11.6c-0.2-1.6-0.6-3.2-0.9-4.9c-0.4,0.4-0.7,0.6-0.9,0.8
				c-3.5,3.1-6.4,6.7-9,10.5c-0.7,1.1-0.9,1.1-2,0.6c-1.8-0.9-3.6-1.8-5.5-2.8C296.1,238,294.4,240.3,292.9,242.5 M403.1,454
				c1.3-0.1,2.6-0.1,3.9-0.3c2.5-0.3,5-0.7,7.2-2c1.6-0.9,2.2-2.2,2-3.9c-0.1-0.5-0.1-1-0.3-1.4c-1.2-3.8-3.5-6.8-6.2-9.7
				c-0.1-0.1-0.2-0.2-0.3-0.2c-0.6-0.5-1.4-0.8-2.1-0.5c-1.4,0.6-2.9,1.3-4.1,2.2c-1.5,1-2.8,2.3-4.2,3.5c-2.6,2.2-4.5,4.8-5.6,8
				c-0.1,0.2-0.1,0.5-0.2,0.7c-0.1,0.2-0.1,0.6-0.3,0.7c-0.2,0.1-0.5,0-0.7-0.2c-2.9-1.9-6.1-3.2-9.3-4.2c-0.8-0.2-1-0.6-1.3-1.3
				c-1.1-3.7-2.8-7-6.3-9c-2.2-1.2-4.6-2-7.1-2.4c-1.2-0.2-2.4-0.1-3.6-0.1c-0.2,0-0.6,0.3-0.6,0.5c-0.4,2.7-1.1,5.4-0.8,8.1
				c0.4,3.5,3.1,6.3,6.7,5.9c1.3-0.1,2.6-0.3,3.9-0.5c5.8-0.8,11.4-0.3,16.6,2.7C394.5,453.1,398.7,454.1,403.1,454 M287.4,462.6
				c-0.4,1.6,0.1,2.8,1.3,3.9c1.7,1.4,3.6,2.1,5.7,2.5c5.5,1,11.1,0.9,16.7,0.6c2.9-0.1,5.7-0.8,8.3-2c2.9-1.4,4.1-3.5,3.3-6.6
				c-0.4-1.6-0.8-3.4-1.8-4.5c-4.1-4.5-9.4-5.9-15.3-5.6c-4.2,0.2-7.1,2.1-8.9,5.9c-0.9,1.9-2,3.7-3.2,5.4c-0.6,0.9-1.4,1.6-2.2,2.3
				c-0.7,0.6-1.6,0.6-2.4-0.1C288.5,463.9,288,463.2,287.4,462.6 M364.5,432.9c1.8,0.2,3.5,0.3,5.2,0.7c5.9,1.2,10.4,4.2,12.3,10.1
				c0.2,0.6,0.3,1.1,0.5,1.7c0.1,0.2,0.3,0.5,0.6,0.6c3,0.9,5.9,2.1,8.6,3.7c0.2,0.1,0.4,0.2,0.7,0.4c1.1-3.2,2.9-6,5.4-8.3
				c-1.5-0.6-2.8-1.1-4.2-1.6c-4.5-1.7-8.5-4-11.7-7.7c-0.2-0.2-0.5-0.3-0.7-0.3c-2.5,0-4.7-0.8-6.8-2c-1.9-1-3.8-2-5.7-3
				c-0.7-0.4-1.2-0.3-1.7,0.4C365.9,429.3,365,431.1,364.5,432.9 M300.2,451.4c-0.3-0.7-0.5-1.3-0.7-1.8c-2.1-6-2.6-12.2-3.3-18.5
				c-0.1-0.6-0.2-1.1-0.9-1c-3.1,0.1-5.7,2.8-5.6,5.9c0.1,2.8,0.4,5.6,0.7,8.4c0.6,4.9,0.4,9.7-1.5,14.4c-0.5,1.1-0.6,2.3-0.4,3.4
				c0.1,0.6,0.8,1.3,1.4,1.7c0.3,0.2,1.1-0.1,1.5-0.4c0.6-0.4,1.1-1,1.5-1.6c1-1.6,1.9-3.2,2.8-4.8
				C296.9,454.8,298.1,452.8,300.2,451.4 M311,450.2c-0.5-1-1-1.9-1.3-2.9c-1.5-4-1.3-8.1-0.6-12.1c0.3-2.1,0.9-4.1,1.3-6.1
				c0.3-1.6-0.3-2.5-1.7-3.2c-2-1-4.1-1.5-6.2-1.1c-5,0.9-6,3.6-4.9,8.2c1.6-0.7,3.1-1.4,4.7-2c1.3-0.5,2.7-0.6,4.1-0.2
				c0.7,0.2,1.4,0.6,1.5,1.4c0,0.9-0.8,1.1-1.5,1.3c-1.4,0.4-2.7,0.6-4.1,1c-0.4,0.1-0.8,0.3-1.2,0.4c0,0.1,0,0.3,0,0.4
				c1.1,0.3,2.2,0.5,3.2,0.8c0.8,0.2,1.7,0.4,2.4,0.8c1.2,0.7,1.2,2.1,0,2.8c-0.6,0.3-1.2,0.5-1.8,0.8c-0.5,0.2-1,0.3-1.4,0.6
				c-0.7,0.4-0.7,0.9-0.1,1.3c0.4,0.2,0.8,0.4,1.2,0.5c0.7,0.3,1.5,0.5,2.2,0.9c1.6,0.9,1.5,2.8-0.1,3.7c-0.7,0.4-1.5,0.6-2.2,0.8
				c-1,0.2-2,0.4-3.1,0.6c-0.4,0.1-0.9,0.4-0.6,0.9c0.2,0.4,0.1,1.3,1,1C304.6,449.9,307.7,449.9,311,450.2 M316.3,149.8
				c-0.3-0.4-0.6-0.8-0.8-1.2c-1.7-2.5-3.3-5.1-3.9-8.1c-0.5-2.5-2-4-4.5-4.3c-1.6-0.2-3.1,0.4-3.7,1.9c-0.5,1.3-0.9,2.7-1,4
				c-0.3,5,2.8,8.9,7.6,9.8C312.4,152.6,314.6,152,316.3,149.8 M403.8,436.6c-0.7-0.3-1.4-0.5-2-0.8c-0.7-0.4-1.1-0.2-1.7,0.3
				c-1,0.8-2,1.5-3.1,2.1c-0.8,0.4-1.8,0.7-2.5-0.1c-0.7-0.8-0.2-1.6,0.2-2.4c0.2-0.5,0.5-1.1,0.8-1.6c-0.1-0.1-0.1-0.1-0.2-0.2
				c-0.4,0.2-0.8,0.5-1.2,0.7c-1.3,0.8-2.6,1-4,0.6c-1.4-0.4-1.8-1.4-1-2.6c0.3-0.5,0.8-1,1.2-1.5c0.2-0.2,0.3-0.5,0.5-0.8
				c-0.1-0.1-0.1-0.1-0.2-0.2c-0.5,0.3-1.1,0.6-1.6,0.9c-0.7,0.5-1.3,1.1-1.9,1.5c-0.5,0.4-1.2,0.9-1.7,0.3
				c-0.3-0.4-0.3-1.2-0.1-1.8c0.8-2,2.2-3.4,4.3-4.1c0.4-0.1,0.9-0.3,1.3-0.4c-0.8-1.5-1.4-3-2.2-4.4c-0.4-0.7-1-1.3-1.7-1.7
				c-1-0.7-2.1-0.4-2.8,0.6c-0.4,0.5-0.7,1-0.9,1.6c-0.5,1.9-1,3.8-1.3,5.8c-0.3,1.8,0.6,3.3,1.8,4.6c3.1,3.2,6.9,5.1,11,6.6
				c1.1,0.4,2.3,0.8,3.5,1.1c0.3,0.1,0.7,0,1-0.2C400.6,439.3,402.2,438,403.8,436.6 M313.4,430.7c-0.8,0.5-1.4,1-2.1,1.4
				c-0.7,0.4-0.9,0.9-1.1,1.7c-0.7,2.6-0.8,5.2-0.8,7.8c0,2.7,0.6,5.2,2,7.5c0.5,0.9,1.3,1.5,2.3,1.8c1.3,0.4,2.6,1.1,3.8,1.7
				c0.9,0.5,1.8,1.1,2.6,1.7c-0.4-0.9-0.8-1.6-1.3-2.3c-2.1-3-3.5-6.3-4.2-9.8c-0.6-3-0.7-6.1-1-9.2
				C313.6,432.2,313.5,431.6,313.4,430.7 M376.4,133.1c0.8,0.2,1.5,0.2,2.1,0.5c0.4,0.2,0.6,0.7,0.8,1c-0.4-0.1-0.8-0.2-1.2-0.3
				c-0.1,0-0.2-0.1-0.2-0.1c-1-0.4-1.6,0-1.7,1.1c-0.1,1.6-0.3,3.1-0.4,4.7c0,0.2,0,0.5,0.1,0.7c1.1,1.1,0.9,2.5,0.8,3.8
				c0,0.4-0.4,0.8-0.6,1.3c-0.1-0.4-0.2-0.9-0.3-1.3c-0.1-0.8-0.1-1.7-0.1-2.5c-0.1,0-0.1,0-0.2,0c-0.5,2.3-1.1,4.6-1.7,7.1
				c0.6-0.2,1.2-0.4,1.7-0.6c4.5-2.1,7.9-8.6,7.2-13.6c-0.3-1.7-0.8-3.2-2-4.4c-1-1-1.9-1-3.2-0.4
				C376.2,130.7,376.3,131.9,376.4,133.1 M299.8,448.2c1.1-0.2,2-0.4,2.8-0.6c1.1-0.3,2.2-0.5,3.2-0.9c0.4-0.2,0.8-0.7,0.9-1.1
				c0-0.4-0.4-0.9-0.8-1.2c-0.6-0.4-1.4-0.6-2-0.8c-0.9-0.4-2.1-0.7-2.1-1.9c0-1.3,1.2-1.6,2.1-2c0.6-0.2,1.3-0.4,1.9-0.7
				c0.3-0.1,0.7-0.5,0.6-0.8c0-0.3-0.4-0.7-0.7-0.8c-0.5-0.2-1-0.3-1.6-0.5c-1.1-0.3-2.3-0.5-3.3-0.9c-0.4-0.1-0.9-0.8-0.8-1.1
				c0-0.4,0.6-0.9,1-1c1-0.4,2-0.5,3-0.8c0.9-0.2,1.8-0.5,3-0.8c-1-1-1.9-1-2.9-0.9c-2.3,0.2-4.3,1.2-6.2,2.5
				c-0.2,0.2-0.4,0.6-0.4,0.9c0.2,2,0.4,4,0.8,5.9C298.7,443.2,299.3,445.7,299.8,448.2 M385.6,431.9c0.1,0.1,0.3,0.2,0.4,0.3
				c0.5-0.4,1.1-0.9,1.6-1.3c0.6-0.5,1.3-1,1.9-1.4c0.6-0.3,1.3-0.5,1.8,0.1c0.5,0.6,0.1,1.2-0.3,1.7c-0.4,0.5-0.9,1-1.3,1.6
				c-0.6,0.8-0.4,1.2,0.6,1.4c1,0.3,2.1,0.2,3-0.4c0.4-0.2,0.8-0.6,1.2-0.7c0.5-0.1,1.1-0.2,1.4,0c0.3,0.2,0.3,1,0.1,1.4
				c-0.2,0.6-0.6,1.2-0.9,1.8c-0.1,0.3-0.2,0.7-0.1,0.8c0.2,0.2,0.6,0.3,0.9,0.2c1.6-0.4,2.7-1.5,3.9-2.5c-0.9-0.5-1.7-0.9-2.5-1.3
				c-2.1-1.2-4-2.7-5.4-4.8c-1.1-1.7-1.2-1.8-3.1-0.9c-0.7,0.3-1.4,0.8-2,1.4C386.5,430.2,386.1,431.1,385.6,431.9 M313.2,153
				c1.1,2.4,8.5,4.5,11.1,3.7c-2.5-1.9-5-3.9-7.6-5.9c-0.4,0.3-0.9,0.8-1.5,1.2C314.6,152.4,313.9,152.7,313.2,153 M289.1,455.1
				c0.9-2.7,1-9.3,0.2-11.1C287.8,446.4,287.7,452.1,289.1,455.1"/>
			<path clip-path="url(#SVGID_4_)" fill="#FEC900" d="M376.2,209c0.3-1.3,0.6-2.5,0.8-3.7c0.6-3.7,0.6-7.5,0-11.3
				c0-0.1,0-0.3-0.1-0.4c-0.2-0.4-0.5-0.7-0.8-1c-0.2,0.3-0.6,0.6-0.6,1c-0.9,4.1-1.8,8.2-2.6,12.3c-0.3,1.8-0.3,3.6-0.4,5.4
				c-0.7,8.6-1.3,17.1-2,25.7c-0.3,3.9,0.1,7.7,0.9,11.5c2.3,10.5,4.5,21.1,6.8,31.6c0.3,1.6,0.6,3.1,1,4.9
				c-16.3-1.2-32.6-1.3-48.9-3.3c0.3-1.7,0.6-3.3,1-4.9c0.5-2.2,0.6-4.4,0.2-6.7c-0.4-2.4-1.4-4-4.1-4.2c0-0.1-0.1-0.2-0.1-0.2
				c0.2-0.2,0.6-0.3,0.7-0.5c0.2-0.6,0.6-1.3,0.4-1.8c-0.1-0.5-0.9-1-1.4-1.1c-2.5-0.3-5.1-0.4-7.6-0.6c-1.1-0.1-1.7,0.4-2.1,1.4
				c-0.2,0.6-0.6,1.1-1,1.6c0-0.3,0-0.6,0-0.9c0.4-5,0.8-9.9,1.3-14.9c0-0.2,0.1-0.4,0-0.5c-0.7-1.2-0.2-2.3,0.2-3.6
				c0.3-0.9,0.1-2,0-3c-0.3-5.1-0.8-10.2-1.9-15.2c-0.1-0.2-0.1-0.5,0-0.7c1-3.8,2-7.6,3-11.3c0.3-1.2,0.5-2.5,0.7-3.8
				c0-0.3-0.2-0.6-0.3-0.9c-0.3,0.2-0.7,0.3-0.8,0.6c-0.9,2.2-1.8,4.5-2.8,6.7c-0.2,0.6-0.5,1.2-0.8,2c-0.5-1-1-1.8-1.4-2.5
				c-1.3-2.2-2.7-4.2-4.7-5.8c-0.4-0.3-1.1-0.4-1.6-0.6c-0.1,0.6-0.4,1.2-0.3,1.7c0.7,3.6,2.4,6.7,4.4,9.6c0.1,0.2,0.5,0.2,0.7,0.4
				c0-0.3,0.1-0.7-0.1-0.9c-1.7-2.6-3.1-5.3-4-8.2c-0.1-0.4-0.2-0.8-0.3-1.2c0-0.1,0-0.2,0-0.6c0.4,0.3,0.7,0.5,0.9,0.7
				c2.1,1.9,3.6,4.3,5,6.7c0.3,0.6,0.9,1.4,1.4,1.5c0.9,0.1,1-1,1.3-1.7c0.6-1.4,1.2-2.9,1.8-4.4c0.1,0,0.1,0,0.2,0.1
				c-0.3,1.4-0.6,2.8-1,4.3c-0.5,2-0.9,4.1-1.5,6c-0.2,0.7-0.7,1.5-1.2,2c-3.8,3.3-7.1,7.2-9.9,11.4c-0.1,0.2-0.2,0.3-0.4,0.5
				c-0.5-0.2-1-0.4-1.5-0.7c-7-3.7-13.1-8.6-18.4-14.5c-0.7-0.8-1.2-1.8-1.9-2.6c-0.5-0.6-0.3-1,0.1-1.6c3.3-4.3,6.7-8.7,10-13.1
				c3.7-4.8,6.8-9.9,8.7-15.8c0.4-1.2,0.9-1.7,2.1-2.1c5.2-1.3,10.3-2.8,15.1-5.3c0.7-0.4,1.4-0.7,2.2-1.1c0.1,0.2,0.2,0.3,0.3,0.4
				c6.2,7,14.1,10,23.3,9.6c3.1-0.2,6.2-0.7,9.1-1.9c3.7-1.4,6.1-4,7-8c0-0.1,0.1-0.3,0.1-0.4c0,0,0,0,0.1-0.2
				c0.9,0.3,2,0.7,2.9,1.1c3.2,1.3,6.5,2.5,9.6,4c2.7,1.4,5.3,3.2,7.9,4.9c0.2,0.1,0.3,0.4,0.3,0.6c-0.4,2.4,0.2,4.7,0.9,6.9
				c1.6,5.2,3.2,10.4,4.6,15.6c0.6,2.4,0.9,4.9,1.3,7.4c0,0.3,0,0.5,0,1c-5.3-0.7-10.3,1.3-15.5,2.2c0.3-5.1,0.7-10,0.9-14.9
				c0.2-4.9,1.7-9.6,2.7-14.4c0.1,0.6,0.1,1.3,0.2,1.9c0.3,3.8,0,7.5-1,11.1c-0.1,0.2-0.1,0.4-0.1,0.6c-0.1,0.9,0.2,1.3,1.2,1.1
				c0.8-0.2,1.7-0.4,2.5-0.6c0.5-0.1,0.9-0.1,1.4-0.2l0.2,0.3c-0.4,0.3-0.7,0.6-1.1,0.9c-1.6,1.3-3.2,2.5-4.7,3.8
				c-0.2,0.2-0.3,0.6-0.5,0.8c0.3,0,0.7,0,0.9-0.1c1.8-1.4,3.5-2.8,5.3-4.2c0.2-0.2,0.5-0.4,0.6-0.7c0.2-0.4,0.5-0.9,0.4-1.3
				c-0.1-0.2-0.8-0.4-1.2-0.4C378.9,208.4,377.6,208.7,376.2,209 M336.2,234.3c0.3-0.3,0.4-0.4,0.5-0.5c1.9-2,3.9-3.9,5.6-6
				c1.3-1.6,2.3-3.5,2.9-5.4c1.6-4.9,0-9.1-5.7-10.2c-1.6-0.3-3.3-0.7-5-0.8c-2.8-0.1-5.6-0.1-8.4-0.1c-1.1,0-1.4,0.3-1.3,1.5
				c0,1.8,0.1,3.6,0.2,5.4c0,1.5,0.6,2.1,2.1,2c1.3-0.1,2.5-0.2,3.8-0.2c1.4,0,2.8,0.1,4.1,0.3c1.2,0.2,1.6,1,1.2,2.1
				c-0.4,1-1,2.1-1.8,2.8c-1.6,1.5-3.3,2.9-5,4.4c-1,0.9-2,1.7-3,2.6c-0.9,0.9-1.4,2-1.2,3.2c0.2,1.9,0.5,3.8,0.8,5.6
				c0.2,0.9,0.8,1.4,1.7,1.5c1.1,0.1,2.2,0.1,3.3,0.1c2.2-0.1,4.4-0.4,6.6-0.5c2.6-0.1,5.2-0.2,7.8-0.3c0.9,0,1.2-0.5,1.3-1.2
				c0.1-1.1,0.3-2.2,0.4-3.3c0.1-1.3-0.1-1.7-1.4-2.1c-0.3-0.1-0.6-0.2-0.9-0.2c-2.5-0.2-4.9-0.4-7.4-0.6
				C337.1,234.3,336.8,234.3,336.2,234.3 M351.1,227.5c0.1,0,0.2,0,0.3,0c0,0.9-0.1,1.9,0,2.8c0.3,2.4,0.5,4.9,0.9,7.3
				c0.4,2.1,1.8,3.4,3.9,3.7c2,0.3,4.1,0.3,6.2,0.1c2.1-0.1,3.7-1.3,4.7-3.2c0.7-1.4,1.3-2.8,1.6-4.3c0.8-4,0.4-8,0.3-12
				c-0.1-4-2-6.9-5.4-8.8c-0.7-0.4-1.7-0.6-2.5-0.7c-1-0.1-2,0.1-2.9,0.2c-4.3,0.8-5.7,2.1-6.4,6.5
				C351.4,221.9,351.3,224.7,351.1,227.5 M313.2,203.3c-0.1-0.4-0.2-0.6-0.3-0.9c-1-2.9-2.7-5.3-4.6-7.6c-1.7-2-3.5-3.9-5.3-5.8
				c-0.2-0.2-0.5-0.1-0.8-0.2c0.1,0.3,0.2,0.6,0.2,0.8c0,0.1,0.1,0.1,0.1,0.1c3.9,4,7.7,8.1,9.7,13.5c0,0.1,0.1,0.2,0.1,0.2
				c0.1,0.1,0.3,0.3,0.4,0.2C313,203.6,313.1,203.4,313.2,203.3"/>
			<path clip-path="url(#SVGID_4_)" fill="#5D202C" d="M296.8,350.3c0.4-2.5,0.7-5,1.1-7.4c1.3-7.7,3.8-15.2,6-22.7
				c2.6-8.9,4.8-17.8,6.3-27c0.2-1.5,0.4-2.7-0.6-4c-0.2-0.3,0-1,0.2-1.3c0.9-1.3,1.7-2.6,1.6-4.3c0.1,0.1,0.2,0.1,0.3,0.2
				c2.6,4.5,6.7,7.3,10.9,9.9c0.2,0.1,0.5,0,0.8,0c-0.1-0.2-0.2-0.6-0.4-0.7c-1.4-1-2.9-1.9-4.2-2.9c-2.3-1.7-4.4-3.6-5.9-6.1
				c-0.6-1-1.1-2.1-1.6-3.1c-0.2-0.5-0.1-1.1-0.2-1.8c1.4,0.3,2.6,0.2,3.4,1.8c0.5,1.1,1,1.9,0.8,3.3c-0.3,1.9,0.9,3.4,2.8,3.6
				c2.2,0.2,4.5,0.2,6.8,0.2c1.3,0,2.1-0.8,2.5-2c0.2-0.6,0.6-0.9,1.1-1.2c0.6-0.3,1.1-0.8,1.5-1.4c0.3-0.5,0.6-0.7,1.1-0.6
				c4.3,0.4,8.7,0.9,13,1.2c5.9,0.4,11.9,0.7,17.8,1.1c4.7,0.3,9.4,0.6,14.1,0.8c0.7,0,1.1,0.3,1.6,0.8c1.2,1.4,2.5,2.7,3.8,4
				c-2.1,1.9-1.5,4.4-1.1,6.7c1.4,8.8,4.3,17.1,7.3,25.5c3,8.3,5.8,16.6,8.7,24.9c0.4,1.1,0.6,2.2,0.9,3.6c-1.3-0.1-2.5-0.1-3.6-0.3
				c-8.6-1-17.2-0.9-25.8-0.2c-3.8,0.3-7.6,0.7-11.4,1.1c-0.7,0.1-0.9-0.3-0.9-0.8c-0.1-1.2-0.3-2.4-0.3-3.6c-0.3-7.1-1.2-14-2.3-21
				c-1.2-7-2.6-14-4-21c-0.6-2.9-1.6-5.7-2.4-8.6c-0.2-0.7-0.3-1.4-0.3-2.1c0-0.3,0.4-0.7,0.7-0.9c3.9-2.1,7.8-4.1,11.7-6.1
				c0.4-0.2,0.7-0.6,1-1c-0.5,0.1-1,0-1.4,0.2c-4,2-8,4.1-12,6.2c-0.6,0.3-0.9,0.8-1.1,1.5c-2,10.5-1.7,21-1.8,31.6
				c0,8.7-0.2,17.5-0.4,26.2c0,2-0.1,2-2.1,1.9c-7.7-0.4-15.4-0.6-23-1.2c-5.9-0.5-11.8-1.6-17.7-2.4
				C298.9,350.6,298,350.5,296.8,350.3 M312.7,330.1c0.2-0.2,0.5-0.3,0.7-0.5c2-1.6,4.1-3.2,6.1-4.9c6.1-5.3,12.2-10.6,17.4-16.9
				c1.5-1.8,2.8-3.8,4.2-5.7c0.2-0.2,0-0.6,0-1c-0.2,0.2-0.6,0.3-0.7,0.5c-2,2.5-3.7,5.2-5.9,7.6c-6.3,7.2-13.6,13.4-21,19.3
				c-0.3,0.3-0.7,0.5-1,0.8c-0.1,0.1-0.1,0.3-0.1,0.5C312.3,329.9,312.5,330,312.7,330.1 M339.3,313.7c-0.1-0.2-0.3-0.4-0.4-0.4
				c-0.2,0.1-0.5,0.2-0.6,0.4c-1,1.6-1.9,3.2-2.9,4.8c-3.9,6.3-7.8,12.6-11.6,18.9c-0.2,0.3-0.2,0.8-0.3,1.2c0.3-0.2,0.8-0.4,1-0.7
				c0.7-1,1.3-2,1.9-2.9c4.1-6.7,8.2-13.3,12.3-20C338.8,314.6,339,314.2,339.3,313.7 M320.9,296.8c0,0.1,0,0.2,0,0.2
				c-0.7,0.2-1.4,0.5-2.1,0.6c-2,0.5-4.1,1-6.2,1.5c-0.2,0.1-0.4,0.4-0.6,0.6c0.2,0.1,0.5,0.3,0.7,0.2c2.6-0.6,5.3-1.2,7.9-1.9
				c0.4-0.1,1.1-0.6,1.1-0.9c0-0.4-0.5-1-0.9-1.2c-1.2-0.7-2.4-1.3-3.6-1.9c-1.9-1.1-3.7-2.1-5-3.9c-0.1-0.1-0.4-0.1-0.5-0.2
				c-0.1,0.2-0.2,0.6-0.1,0.7c0.3,0.4,0.6,0.8,1,1.2c1.9,1.8,4.2,3,6.6,4.1C319.7,296.1,320.3,296.5,320.9,296.8 M354.3,295.9
				c-0.2,0.1-0.3,0.2-0.5,0.4c0.1,0.2,0.2,0.4,0.4,0.5c0.3,0.1,0.6,0.2,1,0.3c5.6,1.4,11,3.5,16.4,5.7c0.3,0.1,0.6,0.3,0.9,0.4
				c0.2,0,0.5-0.1,0.5-0.2c0.1-0.1-0.1-0.4-0.2-0.5c-0.1-0.1-0.4-0.2-0.6-0.3c-4.4-1.7-8.8-3.3-13.2-4.9
				C357.5,296.6,355.9,296.3,354.3,295.9 M364.1,292.7c0,0.1,0,0.2,0,0.2c-3.2,0-6.3,0-9.5,0c-0.2,0-0.4,0.2-0.6,0.4
				c0.2,0.2,0.4,0.4,0.6,0.4c0.4,0.1,0.9,0.1,1.3,0c5.8-0.2,11.5-0.4,17.3-0.6c0.2,0,0.5,0,0.7-0.1c0.1-0.1,0.3-0.3,0.3-0.4
				c0-0.1-0.2-0.3-0.3-0.4c-0.3-0.1-0.6,0-0.9,0C370,292.5,367,292.6,364.1,292.7"/>
			<path clip-path="url(#SVGID_4_)" fill="#FFA07A" d="M375.5,132c-0.1,4.9-0.7,9.8-1.9,14.5c-0.5,2.2-1.7,4-3.4,5.5
				c-4.4,3.7-9,7.1-14,9.9c-6,3.3-12.3,3.3-18.5,0.8c-2.5-1-4.9-2.1-7.2-3.5c-3.8-2.3-7.5-4.7-11-7.4c-3.2-2.4-5.2-5.9-6.7-9.6
				c-0.1-0.3-0.2-0.5-0.3-0.8c-0.4-1.4-0.5-2.5,1-3.6c3.1-2.5,4.8-6,6-9.8c1.2-3.8,2-7.8,3-11.6c0.2-0.8,0.4-1.5,0.6-2.3
				c0.2-0.8,0.6-1.2,1.4-1.2c2.1,0.1,4.2,0.1,6.2,0.2c5.8,0.3,11.7,0.7,17.5-0.3c3.6-0.7,7-1.8,10.5-2.8c3.5-1,6.3-0.1,8.7,2.5
				c0.9,1,1.7,2.1,2.3,3.2c1.9,3.5,3.7,7.1,5.5,10.7c0.3,0.6,0.2,1.4,0.2,2.2C375.6,129.7,375.5,130.8,375.5,132 M331.1,140.9
				c2.5,0,4.6-0.6,6.7-1.4c2-0.8,2.1-1.3,0.7-2.9c-1.2-1.4-2.8-2.3-4.5-2.9c-4.1-1.5-7.9-0.8-11.1,2.3c-0.9,0.9-0.9,1.1,0,2
				C325.3,140.2,328.2,140.8,331.1,140.9 M364.5,130c-5,0-8.5,2.4-9.9,6.7c-0.5,1.4-0.1,2,1.4,1.9c3.4-0.2,6.6-1.1,9.5-2.9
				c1.4-0.9,2.2-2.2,2.6-3.9c0.2-0.9-0.1-1.4-1-1.5C366.3,130.2,365.4,130.1,364.5,130 M366,126.4c0.7,0,1.3,0,2,0
				c0.3,0,0.7-0.3,0.7-0.5c0.1-0.2-0.2-0.7-0.4-0.8c-0.5-0.3-1.1-0.6-1.7-0.7c-4.6-0.6-9,0.1-13,2.6c-0.7,0.4-1.2,1-1.7,1.6
				c-0.6,0.8-0.5,1.7,0.1,2.3c0.6,0.5,1.4,0.4,2.2-0.2C357.6,128.1,361.5,126.3,366,126.4 M330.7,126.4c-0.1,0-0.2,0-0.4,0
				c-2.4,0.1-4.8,0.4-6.8,1.8c-0.4,0.3-0.9,1-0.8,1.4c0.1,0.8,1,0.5,1.6,0.4c2.7-0.3,5.5-0.3,8.1,0.3c1.8,0.4,3.6,0.6,5.1,1.9
				c0.2,0.2,1.1,0.1,1.4-0.2c1.2-1.3,0.7-3.3-0.8-4.1C335.6,126.8,333.2,126.4,330.7,126.4 M344.9,155.8c1.7-0.2,3.4-0.2,5-0.5
				c3-0.6,5.9-1.4,8.9-2.2c1.3-0.4,2-1.4,2.1-2.7c0-0.3-0.2-0.5-0.3-0.8c-0.2,0.2-0.5,0.4-0.5,0.6c-0.1,1.3-0.9,2-2.1,2.4
				c-4.4,1.4-8.9,2.3-13.5,2.3c-3,0-6-0.5-8.6-2.2c-0.1-0.1-0.2-0.2-0.3-0.1c-0.2,0-0.4,0.1-0.5,0.2c-0.1,0.1,0,0.4,0.1,0.5
				c0.1,0.2,0.4,0.2,0.5,0.3C338.4,155.3,341.6,155.7,344.9,155.8 M349.1,150.5c1.2-0.2,2.4-0.4,3.5-0.7c0.7-0.2,1.3-0.7,1.2-1.5
				c-0.2-0.9-0.5-1.8-0.9-2.7c-0.1-0.1-0.4-0.2-0.6-0.3c0,0.2-0.2,0.5-0.1,0.6c0.1,0.4,0.4,0.8,0.6,1.3c0.4,1.2,0.2,1.6-1,1.9
				c-1.9,0.5-3.9,0.5-5.8-0.1c-1.3-0.4-1.5-1-1.3-2.3c0-0.2-0.1-0.5-0.2-0.8c-0.2,0.2-0.6,0.4-0.6,0.6c-0.5,1.4,0,2.6,1.4,3.1
				C346.5,150,347.8,150.2,349.1,150.5"/>
			<path clip-path="url(#SVGID_4_)" fill="#333939" d="M311.7,138.3c-1.2-2.4-4-2.3-5.9-4c0.3-0.1,0.4-0.1,0.5-0.2
				c1.1-0.2,1.3-0.4,0.7-1.4c-1.4-2.4-2.1-5-1.9-7.7c0.1-1,0.1-2.1,1.2-2.7c0.2-0.1,0.2-0.7,0.1-1c-0.4-0.9-0.9-1.8-1.4-2.7
				c-1.2-2.4-2.5-4.8-3.1-7.4c-0.1-0.5-0.1-1-0.1-1.5c0-1.4,0.4-2.1,1.8-2.4c1.4-0.3,2.8-0.5,4.2-0.4c2.3,0,2.5-0.1,1.8-2.4
				c-0.3-0.9-0.5-1.8-0.6-2.8c-0.1-1.1,0.2-1.4,1.4-1.2c0.9,0.1,1.8,0.3,2.6,0.4c1,0.1,1.3-0.3,0.9-1.3c-1.1-2.7-0.7-3.6,2.2-4
				c2.8-0.3,5.6-0.2,8.3-0.2c1.1,0,2.3,0.2,3.4,0.2c1,0.1,1.2-0.2,1.1-1.2c-0.2-1.6-0.4-3.1-0.4-4.7c0-1.3,0.6-1.7,1.8-1.2
				c3.2,1.2,6.4,2.5,9.5,3.9c1.5,0.7,1.7,0.6,1.9-1c0.4-3.5,1-3.3,3.5-2.8c3,0.5,5.7,1.6,8.2,3.2c1.2,0.8,1.3,0.7,1.7-0.7
				c0.2-0.7,0.5-1.4,0.8-2.3c0.6,0.4,1.1,0.7,1.6,1c3,2.2,5.5,5,8,7.8c0.4,0.4,0.7,0.8,1.1,1.2c0.8,0.8,1.1,0.7,1.7-0.2
				c0.1-0.2,0.3-0.3,0.5-0.6c0.2,0.3,0.5,0.6,0.7,0.9c2.4,3.6,3.7,7.5,4.3,11.7c0.6,4.6,1.2,9.3,1.8,13.9c-0.1,0-0.2,0.1-0.3,0.1
				c-0.1-0.2-0.3-0.5-0.4-0.7c-1.5-2.9-3-5.8-4.5-8.6c-0.6-1-1.3-2-2-3c-1.9-2.6-6.1-4.7-10.4-3.1c-3.6,1.4-7.3,2.4-11.1,2.9
				c-4.8,0.6-9.6,0.5-14.4,0.3c-2.7-0.1-5.4-0.3-8.2-0.3c-1.5,0-1.9,0.3-2.3,1.8c-0.7,2.9-1.3,5.9-2,8.8c-0.9,4-2.3,7.8-4.5,11.2
				C314.8,135.6,313.5,137.1,311.7,138.3"/>
			<path clip-path="url(#SVGID_4_)" fill="#FFA07A" d="M301.1,352.1c7.6,0.9,15,1.8,22.4,2.6c-1.1,0.9-2.5,1.4-4,1.6
				c-2.6,0.4-5.2,0.2-7.8-0.3c-0.2,0-0.4-0.1-0.5-0.1c-0.2,0-0.3,0.2-0.5,0.3c0.1,0.2,0.2,0.5,0.4,0.5c0.6,0.2,1.3,0.3,1.9,0.4
				c2.9,0.4,5.8,0.6,8.6-0.5c1-0.4,2-1.1,3-1.6c0.5-0.2,1-0.4,1.5-0.4c1,0,2.1,0.1,3.2,0.1c-0.2,0.6-0.3,1-0.5,1.5
				c-2.7,6.9-5.4,13.8-8.1,20.7c-3.2,8.2-5.2,16.6-6.4,25.3c-0.9,7.3-1.7,14.6-2.5,21.9c-0.2,2-0.3,4.1-0.4,6.1
				c0,0.3-0.2,0.6-0.3,0.9c-0.1,0-0.2,0-0.3-0.1c0.1-0.7,0.2-1.3,0.2-2c0.1-2.2-0.5-3.3-2.5-4.2c-2.8-1.2-5.7-1.6-8.6-0.4
				c-2.1,0.9-3.6,2.3-3.8,4.8c-0.1,0-0.2,0-0.3,0c-0.1-0.3-0.2-0.6-0.2-0.8c0.2-3.9,0.5-7.8,0.7-11.7c0.3-7.3,0.6-14.6,0.7-21.9
				c0.2-11.2,1-22.4,2.7-33.5C300.3,358.2,300.7,355.1,301.1,352.1"/>
			<path clip-path="url(#SVGID_4_)" fill="#FFA07A" d="M381,431.4c-1-0.2-2.2-0.2-3.1-0.7c-2.9-1.3-5.7-2.8-8.5-4.2
				c-0.2-0.1-0.4-0.6-0.4-0.9c0-1.7,0.1-3.4,0.2-5.1c0.3-6.3-0.2-12.5-0.7-18.7c-0.5-6.3-1.2-12.6-2.6-18.8c-0.8-3.7-1.8-7.3-2.4-11
				c-0.7-3.8-0.3-7.6,1.4-11.1c1.3-2.9,2.8-5.8,3.6-8.9c0.1-0.2,0.4-0.5,0.7-0.5c5.6-0.3,11.1-0.8,16.7-0.4c1.2,0.1,2.4,0.2,3.5,0.3
				c0.2,2.5-1.7,4.7-4.4,5c-2.8,0.4-5.4-0.2-7.9-1.3c-0.3-0.1-0.5-0.3-0.8-0.3c-0.1,0-0.4,0.1-0.5,0.2c0,0.2,0,0.4,0.1,0.6
				c0,0.1,0.2,0.1,0.3,0.2c3,1.5,6.1,2.1,9.3,1.4c1.2-0.3,2.2-1,3.3-1.5c-0.3,3.4-0.6,6.9-0.9,10.4c-0.4,4.9-0.8,9.9-1.2,14.8
				c-0.5,5.6-1.1,11.3-1.5,16.9c-0.5,7-1,14.1-1.5,21.1c0,0.7-0.2,1.3-0.6,1.8c-1.3,1.9-1.9,4.1-2.1,6.4
				C380.9,428.4,381,429.8,381,431.4"/>
			<path clip-path="url(#SVGID_4_)" fill="#FFA07A" d="M284.1,223.9c3.8,4.3,8.4,7.7,13,11.2c-1.7,2.4-3.4,4.7-5.1,7
				c-1.5-0.8-2.9-1.5-4.3-2.2c-0.3-0.1-0.6,0-1-0.1c0.2,0.3,0.3,0.7,0.6,0.8c4,1.7,6.9,4.6,9.4,8.1c2.6,3.7,5.2,7.4,7.8,11
				c1.2,1.6,2.4,3.1,3.9,4.4c1.1,1,2.5,1.7,3.9,2.2c2.8,1,4.9-0.2,5.9-3c0.2-0.7,0.6-1,1.2-0.9c2.5,0.2,5,0.3,7.4,0.5
				c0.3,0,0.8,0.4,0.8,0.6c0,0.4-0.2,1-0.4,1.1c-0.9,0.3-1.8,0.6-2.7,0.7c-0.9,0-1.8-0.3-2.7-0.3c-0.4,0-0.8,0.2-1.2,0.3
				c0.3,0.2,0.7,0.5,1,0.5c2.1,0.4,4.2,0.6,6.3,1c1.8,0.3,2.5,1.3,2.5,3.1c-1.3-0.4-2.7-0.9-4-1.3c-0.2-0.1-0.4-0.1-0.5-0.1
				c-0.2,0.1-0.4,0.2-0.7,0.3c0.2,0.2,0.3,0.5,0.5,0.5c1,0.4,2.1,0.6,3.1,1c1.9,0.8,2.3,1.7,1.9,3.6c-1.7-0.5-3.4-1-5.1-1.4
				c-0.3-0.1-0.6,0.1-1,0.2c0.3,0.2,0.5,0.5,0.8,0.6c1.2,0.4,2.5,0.6,3.7,1.1c1.1,0.4,1.4,0.9,1.2,2.1c-0.4,2-0.8,4-1.3,5.9
				c-0.1,0.5-0.6,1-1,1.5c-0.1-0.1-0.2-0.1-0.3-0.2c0.1-0.8,0.2-1.6,0.3-2.4c0.2-2,0-2.4-1.8-3.3c-1.2-0.6-2.4-1.2-3.7-1.7
				c-0.2-0.1-0.5,0-0.7,0c0.1,0.2,0.2,0.6,0.4,0.7c1,0.5,2.1,1,3.2,1.5c2.1,0.9,2.2,1,1.8,3.3c-0.2,1.4-0.6,2.7-1.1,4.1
				c-0.2,0.4-0.8,0.9-1.2,1c-2.5,0.5-5,0.3-7.5-0.2c-1-0.2-1.7-1.5-1.5-2.6c0.1-0.4,0.2-0.9,0.3-1.3c1.7,0.1,3.2,0.2,4.9,0.3
				c0.1,0.3,0.1,0.7,0.3,1c0.1,0.2,0.4,0.4,0.6,0.6c0.1-0.2,0.2-0.5,0.2-0.7c0.1-0.9,0.1-1.7,0.1-2.6c0-0.2-0.2-0.4-0.3-0.6
				c-0.2,0.1-0.6,0.2-0.6,0.4c-0.1,1.1-1,1-1.7,1c-2.8,0.2-4.8-0.7-5.6-3.6c-0.2-0.8-0.7-1.6-1-2.4c-0.1-0.2-0.4-0.4-0.6-0.6
				c-0.2,0.2-0.4,0.4-0.5,0.7c-10.4-7.9-20.9-15.8-31.3-23.7c-1.8-1.3-3.3-3.1-4.8-4.7c-0.5-0.6-1-1.3-1.4-1.9
				c-0.9-1.6-1.2-3.2-0.3-4.9c0.6-1.1,1.1-2.2,1.7-3.2c2.5-4.3,5.1-8.5,7.6-12.8C283.7,224.5,283.9,224.3,284.1,223.9"/>
			<path clip-path="url(#SVGID_4_)" fill="#FFA07A" d="M351.5,164.8c0.1,2.2,0.2,4.4,0.4,6.6c0.2,1.5,0.4,3.1,0.7,4.6
				c0.5,2.2,1.7,3.8,3.6,4.8c1,0.5,2,1,3,1.5c-0.6,2-1.8,3.6-3.5,4.8c-2.5,1.6-5.2,2.4-8.1,2.8c-7.1,1.2-13.9,0.1-20-3.7
				c-1.5-0.9-2.9-2.1-4.3-3.2c3.5-4,4.4-8.7,4.8-13.5c0.3-3.4,0.3-6.8,0.5-10.3c0.4,0.2,0.9,0.5,1.3,0.8c4.2,2.5,8.6,4.3,13.4,5.1
				c2.4,0.4,4.8,0.4,7.2-0.2C350.9,164.9,351.2,164.9,351.5,164.8"/>
			<path clip-path="url(#SVGID_4_)" fill="#FFA07A" d="M372.6,225.5c2.3-0.5,4.5-1,6.6-1.4c0,1.4,0.1,2.8,0,4.1
				c-0.4,6.1-0.9,12.2-1.3,18.2c-0.1,1.4,0,2.8-0.1,4.2c-0.1,1.6,0.3,3.1,1,4.6c1.7,3.4,3.3,6.8,4.1,10.6c0.7,3.7,0.7,7.4,0.6,11.2
				c-0.2,6.8,0.5,13.6,2.6,20.1c0.6,2,1.8,3.8,2.8,5.7c0.9,1.8,2,3.5,2.8,5.3c0.3,0.7,0.4,1.6,0.3,2.3c-0.3,2.1-0.8,4.2-1.3,6.2
				c-0.4,1.7-1.2,3.2-2.9,4.1c-0.6-1.6-1.5-3-0.7-4.7c0.3-0.6,0.3-1.3,0.3-2c0-0.3-0.2-0.5-0.4-0.8c-0.2,0.3-0.4,0.5-0.5,0.8
				c-0.1,0.6-0.2,1.2-0.4,1.8c-0.4-1.2-1.2-2.2-0.9-3.5c0-0.2,0-0.5-0.1-0.5c-1-0.4-0.9-1.4-1.1-2.2c-1.1-4.5-2.2-9-3.2-13.5
				c-0.2-0.9-0.2-1.9-0.1-2.8c0.1-0.7,0.5-1.5,1-2.1c0.6-0.8,0.7-1,0-1.7c-1.2-1.2-2.4-2.4-3.7-3.7c0.5,0,0.9,0,1.3,0
				c0.7,0,0.9-0.3,0.8-1c-0.8-3.5-1.5-7.1-2.3-10.6c-2-9.5-4-19-6-28.5c-0.8-3.7-0.6-7.4-0.3-11.1c0.3-3,0.6-6,0.9-9
				C372.6,225.6,372.6,225.5,372.6,225.5 M390.6,309.6c-0.2-0.5-0.5-1.4-0.9-2.3c-0.7-1.8-1.5-3.6-2.2-5.4c-0.1-0.3-0.3-0.5-0.5-0.7
				c-0.1,0.3-0.3,0.7-0.3,1c0,0.3,0.2,0.7,0.3,1c0.7,1.7,1.5,3.4,2.2,5.1c0.3,0.6,0.4,1.3,0.5,1.9c0.1,0.8-0.4,1.2-1.2,1.1
				c-0.9-0.1-1.6-0.6-1.9-1.4c-0.4-1.1-0.7-2.3-1.2-3.4c-0.1-0.2-0.4-0.3-0.5-0.5c-0.1,0.2-0.3,0.5-0.3,0.7c0.4,1.4,0.8,2.8,1.5,4
				c0.3,0.6,1.2,1.1,2,1.4C389.4,312.5,390.6,311.6,390.6,309.6"/>
			<path clip-path="url(#SVGID_4_)" fill="#FFFFFF" d="M403.1,454c-4.5,0.1-8.7-0.9-12.6-3.2c-5.2-3-10.8-3.5-16.6-2.7
				c-1.3,0.2-2.6,0.4-3.9,0.5c-3.6,0.4-6.2-2.5-6.7-5.9c-0.3-2.7,0.3-5.4,0.8-8.1c0-0.2,0.4-0.5,0.6-0.5c1.2,0,2.4-0.1,3.6,0.1
				c2.5,0.4,4.9,1.2,7.1,2.4c3.6,1.9,5.2,5.3,6.3,9c0.2,0.7,0.5,1.1,1.3,1.3c3.3,1,6.4,2.3,9.3,4.2c0.2,0.1,0.5,0.3,0.7,0.2
				c0.2-0.1,0.2-0.4,0.3-0.7c0.1-0.2,0.1-0.5,0.2-0.7c1.1-3.2,3-5.8,5.6-8c1.4-1.2,2.7-2.5,4.2-3.5c1.3-0.9,2.7-1.5,4.1-2.2
				c0.8-0.3,1.5,0,2.1,0.5c0.1,0.1,0.2,0.1,0.3,0.2c2.7,2.8,5,5.9,6.2,9.7c0.1,0.5,0.2,1,0.3,1.4c0.2,1.7-0.4,3-2,3.9
				c-2.3,1.2-4.7,1.7-7.2,2C405.8,453.9,404.5,454,403.1,454"/>
			<path clip-path="url(#SVGID_4_)" fill="#FFFFFF" d="M287.4,462.6c0.6,0.6,1,1.2,1.6,1.7c0.7,0.6,1.6,0.7,2.4,0.1
				c0.8-0.7,1.6-1.4,2.2-2.3c1.1-1.7,2.2-3.5,3.2-5.4c1.8-3.7,4.7-5.7,8.9-5.9c5.9-0.3,11.2,1.1,15.3,5.6c1,1.1,1.5,2.9,1.8,4.5
				c0.7,3.1-0.5,5.3-3.3,6.6c-2.6,1.2-5.4,1.9-8.3,2c-5.6,0.2-11.1,0.4-16.7-0.6c-2.1-0.4-4.1-1.1-5.7-2.5
				C287.5,465.5,287,464.2,287.4,462.6"/>
			<path clip-path="url(#SVGID_4_)" fill="#049FAB" d="M364.5,432.9c0.5-1.8,1.4-3.6,2.6-5.3c0.5-0.7,1-0.8,1.7-0.4
				c1.9,1,3.8,2,5.7,3c2.1,1.1,4.3,2,6.8,2c0.2,0,0.6,0.1,0.7,0.3c3.2,3.7,7.2,6,11.7,7.7c1.3,0.5,2.7,1,4.2,1.6
				c-2.5,2.3-4.3,5-5.4,8.3c-0.3-0.1-0.5-0.2-0.7-0.4c-2.7-1.6-5.6-2.8-8.6-3.7c-0.2-0.1-0.5-0.4-0.6-0.6c-0.2-0.5-0.4-1.1-0.5-1.7
				c-2-6-6.5-8.9-12.3-10.1C368,433.2,366.3,433.1,364.5,432.9"/>
			<path clip-path="url(#SVGID_4_)" fill="#049FAB" d="M300.2,451.4c-2.1,1.4-3.3,3.4-4.5,5.5c-0.9,1.6-1.8,3.2-2.8,4.8
				c-0.4,0.6-0.9,1.2-1.5,1.6c-0.4,0.3-1.2,0.6-1.5,0.4c-0.6-0.4-1.2-1-1.4-1.7c-0.2-1.1-0.1-2.2,0.4-3.4c1.9-4.6,2.2-9.4,1.5-14.4
				c-0.4-2.8-0.6-5.6-0.7-8.4c-0.1-3.1,2.5-5.8,5.6-5.9c0.7,0,0.8,0.4,0.9,1c0.7,6.2,1.2,12.5,3.3,18.5
				C299.7,450.2,300,450.7,300.2,451.4"/>
			<path clip-path="url(#SVGID_4_)" fill="#0D7D7F" d="M311,450.2c-3.2-0.3-6.4-0.4-9.4,0.6c-0.9,0.3-0.7-0.6-1-1
				c-0.3-0.5,0.1-0.8,0.6-0.9c1-0.2,2.1-0.4,3.1-0.6c0.8-0.2,1.6-0.4,2.2-0.8c1.6-0.9,1.7-2.7,0.1-3.7c-0.7-0.4-1.5-0.6-2.2-0.9
				c-0.4-0.2-0.8-0.3-1.2-0.5c-0.7-0.4-0.7-0.9,0.1-1.3c0.5-0.2,1-0.4,1.4-0.6c0.6-0.3,1.3-0.4,1.8-0.8c1.2-0.7,1.2-2.1,0-2.8
				c-0.7-0.4-1.6-0.6-2.4-0.8c-1.1-0.3-2.1-0.5-3.2-0.8c0-0.1,0-0.3,0-0.4c0.4-0.2,0.8-0.3,1.2-0.4c1.4-0.3,2.7-0.6,4.1-1
				c0.7-0.2,1.5-0.4,1.5-1.3c0-0.9-0.7-1.2-1.5-1.4c-1.4-0.4-2.8-0.3-4.1,0.2c-1.6,0.6-3.1,1.3-4.7,2c-1.1-4.6-0.1-7.3,4.9-8.2
				c2.2-0.4,4.3,0.2,6.2,1.1c1.4,0.7,2,1.6,1.7,3.2c-0.3,2-0.9,4.1-1.3,6.1c-0.7,4.1-0.9,8.2,0.6,12.1
				C310,448.3,310.5,449.2,311,450.2"/>
			<path clip-path="url(#SVGID_4_)" fill="#FFA07A" d="M316.3,149.8c-1.7,2.1-3.9,2.7-6.4,2.3c-4.8-0.9-7.9-4.9-7.6-9.8
				c0.1-1.4,0.5-2.8,1-4c0.6-1.5,2.1-2.1,3.7-1.9c2.5,0.3,4.1,1.8,4.5,4.3c0.6,3.1,2.2,5.6,3.9,8.1
				C315.7,149.1,316,149.4,316.3,149.8 M310.6,144.8c-0.6,0.5-1.2,0.9-1.7,1.4c-0.7,0.8-0.8,1.7-0.1,2.5c0.7,0.8,1.6,1.3,2.7,1.3
				c0.3,0,0.6-0.2,0.8-0.3c-0.2-0.2-0.5-0.4-0.7-0.5c-0.7-0.3-1.4-0.5-2-0.9c-0.6-0.4-0.6-1.1-0.1-1.6c0.4-0.4,1-0.6,1.3-1
				c0.3-0.3,0.6-0.9,0.5-1.2c-0.7-1.3-1.4-2.6-2.3-3.8c-0.4-0.5-1.1-0.6-1.8-0.8c-0.1,0-0.4,0.2-0.5,0.4c0.1,0.2,0.2,0.4,0.4,0.4
				C309.3,141.2,309.8,143.2,310.6,144.8"/>
			<path clip-path="url(#SVGID_4_)" fill="#0D7D7F" d="M403.8,436.6c-1.6,1.4-3.2,2.7-4.8,3.9c-0.2,0.2-0.7,0.3-1,0.2
				c-1.2-0.3-2.3-0.7-3.5-1.1c-4.1-1.5-7.9-3.4-11-6.6c-1.3-1.3-2.1-2.7-1.8-4.6c0.3-1.9,0.8-3.9,1.3-5.8c0.1-0.6,0.5-1.1,0.9-1.6
				c0.7-1,1.8-1.3,2.8-0.6c0.7,0.4,1.3,1,1.7,1.7c0.8,1.4,1.5,2.9,2.2,4.4c-0.5,0.1-0.9,0.3-1.3,0.4c-2.1,0.7-3.5,2.1-4.3,4.1
				c-0.2,0.5-0.2,1.4,0.1,1.8c0.5,0.6,1.2,0.1,1.7-0.3c0.7-0.5,1.3-1.1,1.9-1.5c0.5-0.4,1.1-0.6,1.6-0.9c0.1,0.1,0.1,0.1,0.2,0.2
				c-0.2,0.3-0.3,0.5-0.5,0.8c-0.4,0.5-0.8,1-1.2,1.5c-0.8,1.2-0.4,2.2,1,2.6c1.4,0.4,2.8,0.2,4-0.6c0.4-0.3,0.8-0.5,1.2-0.7
				c0.1,0.1,0.1,0.1,0.2,0.2c-0.3,0.5-0.5,1-0.8,1.6c-0.4,0.8-0.9,1.6-0.2,2.4c0.7,0.8,1.7,0.5,2.5,0.1c1.1-0.6,2.1-1.3,3.1-2.1
				c0.6-0.4,1-0.6,1.7-0.3C402.4,436.1,403.1,436.3,403.8,436.6"/>
			<path clip-path="url(#SVGID_4_)" fill="#049FAB" d="M313.4,430.7c0.1,0.9,0.2,1.5,0.3,2.2c0.3,3.1,0.4,6.2,1,9.2
				c0.7,3.5,2.1,6.8,4.2,9.8c0.5,0.7,1,1.5,1.3,2.3c-0.9-0.6-1.7-1.2-2.6-1.7c-1.2-0.6-2.5-1.3-3.8-1.7c-1-0.3-1.8-0.9-2.3-1.8
				c-1.3-2.3-1.9-4.8-2-7.5c0-2.6,0.1-5.3,0.8-7.8c0.2-0.7,0.5-1.3,1.1-1.7C312,431.7,312.6,431.3,313.4,430.7"/>
			<path clip-path="url(#SVGID_4_)" fill="#FFA07A" d="M376.4,133.1c-0.1-1.2-0.2-2.4,1.2-3.1c1.2-0.6,2.1-0.6,3.2,0.4
				c1.2,1.2,1.7,2.8,2,4.4c0.8,5-2.6,11.4-7.2,13.6c-0.5,0.2-1.1,0.4-1.7,0.6c0.6-2.4,1.1-4.8,1.7-7.1c0.1,0,0.1,0,0.2,0
				c0,0.8,0,1.7,0.1,2.5c0,0.4,0.2,0.9,0.3,1.3c0.2-0.4,0.6-0.8,0.6-1.3c0.1-1.3,0.3-2.7-0.8-3.8c-0.1-0.1-0.1-0.4-0.1-0.7
				c0.1-1.6,0.3-3.1,0.4-4.7c0.1-1.1,0.7-1.5,1.7-1.1c0.1,0,0.2,0.1,0.2,0.1c0.4,0.1,0.8,0.2,1.2,0.3c-0.3-0.4-0.5-0.9-0.8-1
				C377.9,133.3,377.2,133.2,376.4,133.1"/>
			<path clip-path="url(#SVGID_4_)" fill="#022F30" d="M299.8,448.2c-0.5-2.5-1.1-5-1.6-7.5c-0.3-2-0.6-3.9-0.8-5.9
				c0-0.3,0.1-0.8,0.4-0.9c1.9-1.2,3.9-2.3,6.2-2.5c1-0.1,1.9,0,2.9,0.9c-1.1,0.3-2.1,0.6-3,0.8c-1,0.3-2,0.4-3,0.8
				c-0.4,0.2-1,0.7-1,1c0,0.4,0.5,1,0.8,1.1c1.1,0.4,2.2,0.6,3.3,0.9c0.5,0.1,1.1,0.2,1.6,0.5c0.3,0.2,0.7,0.5,0.7,0.8
				c0,0.2-0.4,0.6-0.6,0.8c-0.6,0.3-1.3,0.5-1.9,0.7c-1,0.4-2.1,0.6-2.1,2c0,1.2,1.1,1.5,2.1,1.9c0.7,0.3,1.4,0.4,2,0.8
				c0.4,0.2,0.8,0.8,0.8,1.2c0,0.4-0.5,1-0.9,1.1c-1,0.4-2.1,0.6-3.2,0.9C301.8,447.9,301,448,299.8,448.2"/>
			<path clip-path="url(#SVGID_4_)" fill="#022F30" d="M385.6,431.9c0.5-0.8,0.9-1.7,1.5-2.4c0.5-0.6,1.2-1.1,2-1.4
				c1.9-0.9,1.9-0.9,3.1,0.9c1.4,2.1,3.3,3.5,5.4,4.8c0.8,0.5,1.6,0.8,2.5,1.3c-1.2,1-2.3,2.1-3.9,2.5c-0.3,0.1-0.7,0-0.9-0.2
				c-0.1-0.1,0-0.6,0.1-0.8c0.3-0.6,0.7-1.2,0.9-1.8c0.1-0.4,0.1-1.2-0.1-1.4c-0.3-0.2-1-0.1-1.4,0c-0.4,0.1-0.8,0.5-1.2,0.7
				c-0.9,0.6-2,0.7-3,0.4c-1-0.2-1.1-0.6-0.6-1.4c0.4-0.6,0.9-1,1.3-1.6c0.4-0.5,0.8-1.1,0.3-1.7c-0.5-0.6-1.2-0.4-1.8-0.1
				c-0.7,0.4-1.3,0.9-1.9,1.4c-0.6,0.4-1.1,0.8-1.6,1.3C385.8,432.1,385.7,432,385.6,431.9"/>
			<path clip-path="url(#SVGID_4_)" fill="#333939" d="M313.2,153c0.7-0.4,1.4-0.6,2-1c0.6-0.4,1.1-0.9,1.5-1.2c2.6,2,5.1,4,7.6,5.9
				C321.7,157.5,314.4,155.4,313.2,153"/>
			<path clip-path="url(#SVGID_4_)" fill="#FFFFFF" d="M289.1,455.1c-1.5-3-1.4-8.7,0.2-11.1C290.2,445.8,290,452.4,289.1,455.1"/>
			<path clip-path="url(#SVGID_4_)" d="M336.2,234.3c0.6,0,0.9,0,1.2,0c2.5,0.2,4.9,0.4,7.4,0.6c0.3,0,0.6,0.1,0.9,0.2
				c1.3,0.4,1.6,0.8,1.4,2.1c-0.1,1.1-0.3,2.2-0.4,3.3c-0.1,0.8-0.5,1.2-1.3,1.2c-2.6,0.1-5.2,0.1-7.8,0.3c-2.2,0.1-4.4,0.4-6.6,0.5
				c-1.1,0.1-2.2,0-3.3-0.1c-0.9-0.1-1.5-0.6-1.7-1.5c-0.3-1.9-0.6-3.7-0.8-5.6c-0.1-1.2,0.3-2.4,1.2-3.2c1-0.9,2-1.7,3-2.6
				c1.7-1.4,3.4-2.8,5-4.4c0.8-0.8,1.3-1.8,1.8-2.8c0.5-1.1,0-1.9-1.2-2.1c-1.4-0.2-2.7-0.3-4.1-0.3c-1.3,0-2.5,0.1-3.8,0.2
				c-1.5,0.1-2.1-0.5-2.1-2c0-1.8-0.1-3.6-0.2-5.4c0-1.2,0.2-1.5,1.3-1.5c2.8,0,5.6,0,8.4,0.1c1.7,0.1,3.3,0.4,5,0.8
				c5.6,1.1,7.2,5.3,5.7,10.2c-0.6,1.9-1.7,3.8-2.9,5.4c-1.7,2.2-3.7,4-5.6,6C336.6,233.9,336.5,234,336.2,234.3 M330,211.6
				c0,0.1,0,0.1,0,0.2c-1.1,0.1-2.2,0.1-3.3,0.2c-0.6,0-0.9,0.3-0.9,1c0.1,1.3,0.1,2.7,0.2,4c0.1,2.4,0.1,2.3,2.6,2.2
				c2.1-0.1,4.3-0.1,6.4,0.1c2.1,0.2,2.9,1.7,2,3.7c-0.5,1.2-1.3,2.3-2.2,3.2c-1.3,1.4-2.9,2.5-4.4,3.8c-1.1,0.9-2.2,1.8-3.2,2.7
				c-0.7,0.6-1.1,1.5-1,2.5c0.2,1.8,0.4,3.6,0.8,5.4c0.1,0.4,0.6,0.8,1,0.9c1.1,0.1,2.2,0.2,3.3,0.1c3.3-0.1,6.7-0.4,10-0.5
				c0.7,0,1.4,0,2.1-0.1c2.5-0.2,2.5-0.2,2.8-2.7c0.3-2.4,0.3-2.5-2.1-2.7c-2.8-0.3-5.6-0.4-8.3-0.6c-0.3,0-0.6-0.3-0.9-0.4
				c0.2-0.3,0.3-0.6,0.5-0.9c0.1-0.2,0.4-0.3,0.6-0.5c2.9-2.3,5.3-5,7.2-8.1c1-1.6,1.7-3.3,1.8-5.2c0.3-3.8-1.2-6.1-4.8-6.9
				C336.8,212.4,333.4,212.1,330,211.6"/>
			<path clip-path="url(#SVGID_4_)" d="M351.1,227.5c0.2-2.8,0.3-5.6,0.7-8.3c0.6-4.3,2-5.7,6.4-6.5c1-0.2,2-0.3,2.9-0.2
				c0.9,0.1,1.8,0.3,2.5,0.7c3.4,1.9,5.2,4.9,5.4,8.8c0.1,4,0.5,8-0.3,12c-0.3,1.5-0.9,2.9-1.6,4.3c-0.9,1.9-2.6,3-4.7,3.2
				c-2.1,0.1-4.2,0.1-6.2-0.1c-2.1-0.3-3.5-1.6-3.9-3.7c-0.4-2.4-0.7-4.8-0.9-7.3c-0.1-0.9,0-1.9,0-2.8
				C351.3,227.5,351.2,227.5,351.1,227.5 M351.9,227.4c0.1,0,0.2,0,0.3,0c0.1,1.5,0.1,2.9,0.2,4.4c0.2,1.9,0.4,3.8,0.8,5.6
				c0.3,1.7,1.5,2.8,3.2,3c1.7,0.2,3.5,0.3,5.3,0.2c2.4-0.1,4.1-1.4,5-3.5c0.5-1.2,1-2.6,1.2-3.9c0.6-3.6,0.2-7.3,0.2-11
				c-0.1-3.7-1.7-6.4-4.9-8.3c-0.4-0.2-0.8-0.4-1.2-0.5c-1.7-0.2-3.5,0-5.2,0.5c-2.3,0.6-3.6,1.9-3.9,4.2
				C352.4,221.2,352.2,224.3,351.9,227.4"/>
			<path clip-path="url(#SVGID_4_)" d="M313.2,203.3c-0.1,0.1-0.2,0.3-0.4,0.4c-0.1,0-0.3-0.1-0.4-0.2c-0.1,0-0.1-0.2-0.1-0.2
				c-2-5.4-5.7-9.5-9.7-13.5c0,0-0.1-0.1-0.1-0.1c-0.1-0.3-0.2-0.6-0.2-0.8c0.3,0.1,0.6,0,0.8,0.2c1.8,1.9,3.6,3.8,5.3,5.8
				c1.9,2.3,3.6,4.7,4.6,7.6C313,202.6,313,202.9,313.2,203.3"/>
			<path clip-path="url(#SVGID_4_)" d="M312.7,330.1c-0.2-0.1-0.4-0.1-0.4-0.2c0-0.2,0-0.4,0.1-0.5c0.3-0.3,0.6-0.6,1-0.8
				c7.5-5.9,14.7-12.2,21-19.3c2.1-2.4,3.9-5.1,5.9-7.6c0.2-0.2,0.5-0.3,0.7-0.5c0,0.3,0.1,0.7,0,1c-1.4,1.9-2.7,3.9-4.2,5.7
				c-5.1,6.3-11.2,11.7-17.4,16.9c-2,1.7-4,3.3-6.1,4.9C313.1,329.8,312.9,329.9,312.7,330.1"/>
			<path clip-path="url(#SVGID_4_)" d="M339.3,313.7c-0.2,0.4-0.4,0.9-0.7,1.2c-4.1,6.7-8.2,13.4-12.3,20c-0.6,1-1.2,2-1.9,2.9
				c-0.2,0.3-0.6,0.5-1,0.7c0.1-0.4,0.1-0.9,0.3-1.2c3.9-6.3,7.8-12.6,11.6-18.9c1-1.6,1.9-3.2,2.9-4.8c0.1-0.2,0.4-0.3,0.6-0.4
				C339,313.3,339.1,313.6,339.3,313.7"/>
			<path clip-path="url(#SVGID_4_)" d="M320.9,296.8c-0.6-0.3-1.1-0.6-1.7-0.9c-2.3-1.2-4.6-2.4-6.6-4.1c-0.4-0.3-0.7-0.7-1-1.2
				c-0.1-0.2,0.1-0.5,0.1-0.7c0.2,0.1,0.4,0.1,0.5,0.2c1.3,1.8,3.2,2.8,5,3.9c1.2,0.7,2.5,1.2,3.6,1.9c0.4,0.2,0.9,0.8,0.9,1.2
				c0,0.3-0.6,0.8-1.1,0.9c-2.6,0.7-5.3,1.3-7.9,1.9c-0.2,0-0.5-0.2-0.7-0.2c0.2-0.2,0.3-0.5,0.6-0.6c2-0.5,4.1-1,6.2-1.5
				c0.7-0.2,1.4-0.4,2.1-0.6C320.8,296.9,320.8,296.9,320.9,296.8"/>
			<path clip-path="url(#SVGID_4_)" d="M354.3,295.9c1.6,0.4,3.2,0.7,4.7,1.3c4.4,1.6,8.8,3.3,13.2,4.9c0.2,0.1,0.4,0.1,0.6,0.3
				c0.1,0.1,0.3,0.4,0.2,0.5c-0.1,0.1-0.4,0.2-0.5,0.2c-0.3-0.1-0.6-0.2-0.9-0.4c-5.3-2.2-10.7-4.4-16.4-5.7c-0.3-0.1-0.7-0.1-1-0.3
				c-0.2-0.1-0.3-0.3-0.4-0.5C354,296.1,354.1,296,354.3,295.9"/>
			<path clip-path="url(#SVGID_4_)" d="M364.1,292.7c2.9-0.1,5.9-0.3,8.8-0.4c0.3,0,0.6,0,0.9,0c0.1,0,0.3,0.2,0.3,0.4
				c0,0.1-0.2,0.3-0.3,0.4c-0.2,0.1-0.5,0.1-0.7,0.1c-5.8,0.2-11.5,0.4-17.3,0.6c-0.4,0-0.9,0-1.3,0c-0.2,0-0.4-0.3-0.6-0.4
				c0.2-0.1,0.4-0.4,0.6-0.4c3.2,0,6.3,0,9.5,0C364.1,292.9,364.1,292.8,364.1,292.7"/>
			<path clip-path="url(#SVGID_4_)" d="M331.1,140.9c-2.9-0.1-5.8-0.7-8.1-3c-0.9-0.8-1-1.1,0-2c3.2-3,7-3.7,11.1-2.3
				c1.7,0.6,3.3,1.5,4.5,2.9c1.4,1.6,1.3,2.2-0.7,2.9C335.7,140.3,333.6,140.9,331.1,140.9 M338.5,138.3c-0.9-2.6-6.2-5-9.2-4.3
				c1.2,2,1.6,3.9-0.4,5.8C332.4,140.4,335.5,139.6,338.5,138.3 M329.5,136.6c-0.1-0.3-0.3-1-0.6-1.6c-0.4-0.8-1-1-1.9-0.6
				c-1.1,0.5-1.5,1.6-1.2,2.9c0.3,1.2,1.2,1.9,2.1,1.8C328.8,139,329.5,138.1,329.5,136.6 M324.8,135.5c-0.6,0.5-1.1,0.9-1.6,1.5
				c0.7,0.5,1.3,1,1.8,1.5C324.9,137.4,324.8,136.5,324.8,135.5"/>
			<path clip-path="url(#SVGID_4_)" d="M364.5,130c0.9,0.1,1.8,0.2,2.6,0.3c0.9,0.1,1.2,0.6,1,1.5c-0.4,1.6-1.2,3-2.6,3.9
				c-2.9,1.8-6.1,2.7-9.5,2.9c-1.5,0.1-1.9-0.5-1.4-1.9C356,132.4,359.5,130.1,364.5,130 M359.8,137.1c4.2-0.9,7.5-2.9,7.5-5.8
				c-2.6-0.5-5.1-0.4-7.6,0.7C361.3,133.7,361,135.3,359.8,137.1 M360,134.5c0.1-0.1,0.1-0.1,0.2-0.2c-0.4-0.5-0.7-1.2-1.2-1.5
				c-0.2-0.1-0.9,0.4-1.3,0.6c-0.2,0.1-0.3,0.3-0.5,0.5c-0.6,0.7-0.5,1.5-0.2,2.2c0.2,0.4,0.7,0.8,1.1,0.8c0.8,0.1,1.3-0.6,1.6-1.3
				C359.8,135.3,359.9,134.9,360,134.5 M356.9,137.7c-0.4-0.6-0.7-1.1-1.1-1.7c-0.2,0.6-0.3,1.1-0.5,1.7H356.9z"/>
			<path clip-path="url(#SVGID_4_)" d="M366,126.4c-4.5-0.1-8.4,1.7-11.9,4.4c-0.8,0.6-1.6,0.7-2.2,0.2c-0.6-0.6-0.7-1.5-0.1-2.3
				c0.5-0.6,1.1-1.2,1.7-1.6c4-2.5,8.4-3.2,13-2.6c0.6,0.1,1.2,0.4,1.7,0.7c0.2,0.1,0.5,0.6,0.4,0.8c0,0.2-0.5,0.5-0.7,0.5
				C367.3,126.5,366.7,126.4,366,126.4 M366.7,125.3c-0.3-0.1-0.6-0.2-1-0.2c-3.5-0.3-6.8,0.2-9.9,1.6c-1.1,0.5-2.1,1.3-3.1,2.1
				c-0.3,0.2-0.3,0.8-0.4,1.2c0.4,0,0.8,0,1.2,0c0.1,0,0.2-0.1,0.3-0.2C357.7,127,361.9,125.3,366.7,125.3"/>
			<path clip-path="url(#SVGID_4_)" d="M330.7,126.4c2.5,0,5,0.5,7.3,1.6c1.6,0.7,2,2.8,0.8,4.1c-0.3,0.3-1.1,0.4-1.4,0.2
				c-1.5-1.3-3.3-1.5-5.1-1.9c-2.7-0.6-5.4-0.6-8.1-0.3c-0.6,0.1-1.4,0.4-1.6-0.4c-0.1-0.4,0.4-1.1,0.8-1.4c2-1.4,4.4-1.7,6.8-1.8
				C330.4,126.4,330.5,126.4,330.7,126.4 M323.8,129.1c5-0.5,9.8,0.1,14.4,2.1c0.6-1.8,0.5-2.1-1.2-2.8c-2.9-1.2-5.9-1.5-8.9-1.1
				C326.6,127.7,325.1,128,323.8,129.1"/>
			<path clip-path="url(#SVGID_4_)" d="M344.9,155.8c-3.3-0.1-6.4-0.5-9.3-2.3c-0.2-0.1-0.4-0.2-0.5-0.3c-0.1-0.1-0.2-0.4-0.1-0.5
				c0.1-0.1,0.3-0.2,0.5-0.2c0.1,0,0.2,0.1,0.3,0.1c2.6,1.7,5.5,2.2,8.6,2.2c4.6,0,9.1-0.9,13.5-2.3c1.2-0.4,2-1,2.1-2.4
				c0-0.2,0.4-0.4,0.5-0.6c0.1,0.3,0.3,0.6,0.3,0.8c-0.2,1.3-0.8,2.4-2.1,2.7c-2.9,0.8-5.9,1.5-8.9,2.2
				C348.2,155.6,346.5,155.6,344.9,155.8"/>
			<path clip-path="url(#SVGID_4_)" d="M349.1,150.5c-1.2-0.3-2.6-0.4-3.8-0.9c-1.4-0.5-1.9-1.8-1.4-3.1c0.1-0.2,0.4-0.4,0.6-0.6
				c0.1,0.3,0.2,0.5,0.2,0.8c-0.2,1.3,0,1.9,1.3,2.3c1.9,0.6,3.9,0.7,5.8,0.1c1.2-0.3,1.4-0.7,1-1.9c-0.2-0.4-0.4-0.8-0.6-1.3
				c-0.1-0.2,0.1-0.4,0.1-0.6c0.2,0.1,0.5,0.1,0.6,0.3c0.3,0.9,0.7,1.7,0.9,2.7c0.1,0.8-0.5,1.3-1.2,1.5
				C351.4,150,350.3,150.2,349.1,150.5"/>
			<path clip-path="url(#SVGID_4_)" d="M390.6,309.6c0,2-1.1,2.9-2.5,2.4c-0.7-0.3-1.6-0.7-2-1.4c-0.7-1.2-1-2.7-1.5-4
				c-0.1-0.2,0.2-0.4,0.3-0.7c0.2,0.2,0.5,0.3,0.5,0.5c0.4,1.1,0.7,2.3,1.2,3.4c0.3,0.8,1,1.3,1.9,1.4c0.8,0.1,1.3-0.3,1.2-1.1
				c-0.1-0.7-0.3-1.3-0.5-1.9c-0.7-1.7-1.5-3.4-2.2-5.1c-0.1-0.3-0.3-0.7-0.3-1c0-0.3,0.2-0.7,0.3-1c0.2,0.2,0.4,0.5,0.5,0.7
				c0.8,1.8,1.5,3.6,2.2,5.4C390.1,308.2,390.4,309.1,390.6,309.6"/>
			<path clip-path="url(#SVGID_4_)" d="M310.6,144.8c-0.9-1.6-1.3-3.5-3.5-4.1c-0.2,0-0.3-0.3-0.4-0.4c0.2-0.1,0.4-0.4,0.5-0.4
				c0.6,0.2,1.4,0.4,1.8,0.8c0.9,1.2,1.6,2.5,2.3,3.8c0.1,0.3-0.2,0.9-0.5,1.2c-0.4,0.4-0.9,0.6-1.3,1c-0.5,0.5-0.6,1.2,0.1,1.6
				c0.6,0.4,1.3,0.6,2,0.9c0.3,0.1,0.5,0.3,0.7,0.5c-0.3,0.1-0.6,0.4-0.8,0.3c-1.1,0-2-0.5-2.7-1.3c-0.7-0.8-0.6-1.7,0.1-2.5
				C309.4,145.7,310,145.3,310.6,144.8"/>
			<path clip-path="url(#SVGID_4_)" fill="#48A5FF" d="M330,211.6c3.4,0.5,6.8,0.8,10.1,1.5c3.7,0.8,5.1,3.1,4.8,6.9
				c-0.1,1.9-0.8,3.6-1.8,5.2c-1.9,3.1-4.3,5.8-7.2,8.1c-0.2,0.2-0.4,0.3-0.6,0.5c-0.2,0.3-0.3,0.6-0.5,0.9c0.3,0.1,0.6,0.4,0.9,0.4
				c2.8,0.2,5.6,0.3,8.3,0.6c2.4,0.2,2.4,0.4,2.1,2.7c-0.3,2.5-0.3,2.5-2.8,2.7c-0.7,0.1-1.4,0-2.1,0.1c-3.3,0.2-6.7,0.4-10,0.5
				c-1.1,0-2.2,0-3.3-0.1c-0.4,0-0.9-0.5-1-0.9c-0.3-1.8-0.6-3.6-0.8-5.4c-0.1-1,0.3-1.8,1-2.5c1-0.9,2.1-1.8,3.2-2.7
				c1.5-1.3,3-2.4,4.4-3.8c0.9-0.9,1.7-2,2.2-3.2c0.9-1.9,0.1-3.4-2-3.7c-2.1-0.2-4.3-0.3-6.4-0.1c-2.5,0.1-2.5,0.2-2.6-2.2
				c-0.1-1.3-0.1-2.7-0.2-4c-0.1-0.7,0.2-0.9,0.9-1c1.1,0,2.2-0.1,3.3-0.2C330,211.8,330,211.7,330,211.6"/>
			<path clip-path="url(#SVGID_4_)" fill="#48A5FF" d="M351.9,227.4c0.3-3.1,0.6-6.2,1-9.3c0.3-2.2,1.7-3.6,3.9-4.2
				c1.7-0.4,3.4-0.6,5.2-0.5c0.4,0,0.8,0.3,1.2,0.5c3.2,1.8,4.8,4.6,4.9,8.3c0.1,3.7,0.5,7.4-0.2,11c-0.2,1.3-0.6,2.7-1.2,3.9
				c-0.9,2.1-2.6,3.5-5,3.5c-1.8,0-3.5,0-5.3-0.2c-1.7-0.2-2.9-1.3-3.2-3c-0.4-1.9-0.6-3.7-0.8-5.6c-0.2-1.5-0.2-2.9-0.2-4.4
				C352.1,227.4,352,227.4,351.9,227.4 M357.4,226.1c0.1,2.3,0.2,3.9,0.3,5.5c0.1,1.7,0.8,2.3,2.5,2.5c0.2,0,0.5,0,0.7,0.1
				c1.9,0.1,2.6-0.5,2.7-2.4c0.1-1.2,0.1-2.4,0.1-3.6c0-2.4,0-4.7-0.1-7.1c0-0.4-0.3-0.9-0.7-1.1c-1.7-1.1-4.9-0.8-5.2,2.1
				C357.5,223.6,357.4,225.2,357.4,226.1"/>
			<path clip-path="url(#SVGID_4_)" fill="#FFFFFF" d="M338.5,138.3c-3,1.3-6.1,2.1-9.5,1.5c2-1.9,1.6-3.8,0.4-5.8
				C332.3,133.3,337.6,135.7,338.5,138.3"/>
			<path clip-path="url(#SVGID_4_)" fill="#1D1D1B" d="M329.5,136.6c0,1.5-0.7,2.5-1.6,2.6c-0.9,0.1-1.8-0.6-2.1-1.8
				c-0.3-1.3,0.2-2.4,1.2-2.9c0.9-0.4,1.5-0.3,1.9,0.6C329.2,135.6,329.3,136.2,329.5,136.6"/>
			<path clip-path="url(#SVGID_4_)" fill="#FFFFFF" d="M324.8,135.5c0.1,1,0.1,1.9,0.2,2.9c-0.6-0.5-1.2-0.9-1.8-1.5
				C323.7,136.4,324.2,136,324.8,135.5"/>
			<path clip-path="url(#SVGID_4_)" fill="#FFFFFF" d="M359.8,137.1c1.2-1.7,1.5-3.4-0.2-5.1c2.5-1.2,5.1-1.3,7.6-0.7
				C367.3,134.2,364,136.2,359.8,137.1"/>
			<path clip-path="url(#SVGID_4_)" fill="#1D1D1B" d="M360,134.5c-0.1,0.4-0.2,0.8-0.4,1.2c-0.3,0.7-0.8,1.4-1.6,1.3
				c-0.4,0-0.9-0.5-1.1-0.8c-0.4-0.7-0.5-1.5,0.2-2.2c0.2-0.2,0.3-0.4,0.5-0.5c0.4-0.3,1.1-0.8,1.3-0.6c0.5,0.4,0.8,1,1.2,1.5
				C360.1,134.3,360,134.4,360,134.5"/>
			<path clip-path="url(#SVGID_4_)" fill="#FFFFFF" d="M356.9,137.7h-1.6c0.2-0.6,0.3-1.1,0.5-1.7
				C356.2,136.6,356.5,137.1,356.9,137.7"/>
			<path clip-path="url(#SVGID_4_)" fill="#1D1D1B" d="M366.7,125.3c-4.8-0.1-9,1.7-12.8,4.5c-0.1,0.1-0.2,0.2-0.3,0.2
				c-0.4,0-0.8,0-1.2,0c0.1-0.4,0.1-1,0.4-1.2c1-0.8,1.9-1.6,3.1-2.1c3.2-1.4,6.5-1.9,9.9-1.6C366.1,125.2,366.4,125.3,366.7,125.3"
				/>
			<path clip-path="url(#SVGID_4_)" fill="#1D1D1B" d="M323.8,129.1c1.3-1.1,2.8-1.5,4.3-1.7c3.1-0.5,6-0.1,8.9,1.1
				c1.6,0.7,1.8,1,1.2,2.8C333.6,129.2,328.8,128.7,323.8,129.1"/>
			<path clip-path="url(#SVGID_4_)" d="M357.4,226.1c0.1-0.8,0.1-2.4,0.3-4c0.3-2.9,3.5-3.2,5.2-2.1c0.3,0.2,0.6,0.7,0.7,1.1
				c0.1,2.3,0.1,4.7,0.1,7.1c0,1.2,0,2.4-0.1,3.6c-0.1,1.9-0.7,2.5-2.7,2.4c-0.2,0-0.5,0-0.7-0.1c-1.7-0.2-2.3-0.8-2.5-2.5
				C357.5,230,357.5,228.4,357.4,226.1 M358.1,227.3c0.1,0,0.2,0,0.3,0c0,1.3-0.1,2.6,0,3.9c0.1,1.7,0.4,1.9,2.1,2
				c0.2,0,0.3,0,0.5,0c1.2,0,1.5-0.3,1.6-1.5c0.1-1.4,0.2-2.9,0.2-4.3c0-2-0.1-4-0.1-6c0-0.3-0.1-0.6-0.3-0.7
				c-1-0.9-3.6-0.2-3.8,1.1C358.3,223.6,358.3,225.5,358.1,227.3"/>
			<path clip-path="url(#SVGID_4_)" fill="#FEC900" d="M358.1,227.3c0.1-1.8,0.2-3.7,0.5-5.5c0.2-1.4,2.8-2.1,3.8-1.1
				c0.2,0.2,0.3,0.5,0.3,0.7c0.1,2,0.1,4,0.1,6c0,1.4-0.1,2.9-0.2,4.3c-0.1,1.2-0.3,1.5-1.6,1.5c-0.2,0-0.3,0-0.5,0
				c-1.7-0.1-1.9-0.3-2.1-2c-0.1-1.3,0-2.6,0-3.9C358.4,227.3,358.3,227.3,358.1,227.3"/>
		</g>
	</g>
</g>
</svg>
