<?xml version="1.0" encoding="utf-8"?>
<!-- Generator: Adobe Illustrator 21.0.0, SVG Export Plug-In . SVG Version: 6.00 Build 0)  -->
<svg version="1.1" id="Слой_1" xmlns="http://www.w3.org/2000/svg" xmlns:xlink="http://www.w3.org/1999/xlink" x="0px" y="0px"
	 viewBox="0 0 1920 1080" style="enable-background:new 0 0 1920 1080;" xml:space="preserve">
<style type="text/css">
	.st0{fill:#C9A614;}
	.st1{opacity:0.1;enable-background:new    ;}
	.st2{enable-background:new    ;}
	.st3{fill:#D2D047;}
	#FR1,#FR2,#F3,#F4,#F5,#F6,#F7,#F8,#F9 { transition: all .3s}
</style>
<g>
	
		<image style="overflow:visible;enable-background:new    ;" width="208" height="85" xlink:href="4437C747.jpeg"  transform="matrix(0.9952 0 0 0.9882 666.127 654.6248)">
	</image>
</g>
<g id="Misc">
	<g>
		<g>
			<ellipse cx="769.6" cy="696.4" rx="100.7" ry="39.6"/>
		</g>
	</g>
	<path class="st0" d="M781.5,339.9c11.7,0,18.5,6,18.5,14.6c0,10.2-8.1,12.5-12.3,15.3c-1.5,1-2.6,2.2-2.6,3.9
		c0,2.2-0.8,2.8-2.9,2.8h-6.3c-2.1,0-2.9-0.6-2.9-2.8c0-6.7,2.9-9.5,5.9-11.3c3.5-2.2,7.4-3.1,7.4-7.8c0-2.3-1.5-4-4.8-4
		c-3.7,0-5.4,1.9-7.2,6c-1,2.2-1.7,2.6-3.8,1.9l-6.7-2.5c-2-0.7-2.6-1.8-1.8-3.8C764.9,344.9,770.7,339.9,781.5,339.9z M786.4,384.3
		v2.5c0,4.1-1.3,5.5-5.5,5.5h-3.5c-4.2,0-5.5-1.3-5.5-5.5v-2.5c0-4.1,1.3-5.5,5.5-5.5h3.5C785.1,378.9,786.4,380.2,786.4,384.3z"/>
</g>
<g id="BG">
	<image style="overflow:visible;enable-background:new    ;" width="1920" height="1080" xlink:href="4437C745.jpeg" >
	</image>
	<g id="Слой_3">
		<rect x="-99.2" y="-32.2" class="st1" width="2183.9" height="1144.4"/>
	</g>
	<g id="Слой_12">
	</g>
	<g id="Слой_17">
	</g>
</g>
<g id="FLY1">
	<g class="st2">
		<path class="st3" d="M108.3,1019.1v-40.9h-7.6v-10h7.6V964c0-5.7,1.6-10.1,4.9-13.3c3.3-3.1,7.9-4.7,13.7-4.7
			c1.9,0,4.2,0.3,6.9,0.9l-0.1,10.5c-1.1-0.3-2.5-0.4-4.1-0.4c-5.1,0-7.7,2.4-7.7,7.2v4.1H132v10h-10.1v40.9H108.3z"/>
	</g>
	
		<image style="overflow:visible;enable-background:new    ;" width="512" height="532" xlink:href="4437C74E.png"  transform="matrix(9.729066e-02 0 0 9.681664e-02 99.3673 885.9758)">
	</image>
</g>
<g id="FLY2">
	<g class="st2">
		<path class="st3" d="M347.4,994.2c0,8.1-1.7,14.5-5.2,19.1c-3.5,4.6-8.3,6.8-14.6,6.8c-5.5,0-9.9-2.1-13.2-6.3l-0.6,5.4h-12.2
			v-72.2h13.6v25.9c3.1-3.7,7.3-5.5,12.4-5.5c6.2,0,11.1,2.3,14.6,6.8c3.5,4.6,5.3,11,5.3,19.2V994.2z M333.8,993.2
			c0-5.1-0.8-8.9-2.4-11.3c-1.6-2.4-4.1-3.5-7.3-3.5c-4.3,0-7.3,1.8-8.9,5.3v20.1c1.7,3.6,4.7,5.4,9,5.4c4.4,0,7.3-2.2,8.6-6.5
			C333.4,1000.6,333.8,997.4,333.8,993.2z"/>
	</g>
	
		<image style="overflow:visible;enable-background:new    ;" width="512" height="532" xlink:href="4437C741.png"  transform="matrix(9.729066e-02 0 0 9.681664e-02 296.3184 891.4967)">
	</image>
</g>
<g id="FLY3">
	<g class="st2">
		<path class="st3" d="M540.9,1020.7c-7.5,0-13.5-2.3-18.2-6.9c-4.7-4.6-7-10.7-7-18.3v-1.3c0-5.1,1-9.7,3-13.7c2-4,4.8-7.1,8.4-9.3
			c3.6-2.2,7.7-3.3,12.4-3.3c7,0,12.4,2.2,16.4,6.6s6,10.6,6,18.7v5.5h-32.4c0.4,3.3,1.8,6,4,8c2.2,2,5,3,8.4,3
			c5.2,0,9.3-1.9,12.3-5.7l6.7,7.5c-2,2.9-4.8,5.1-8.3,6.7S545.1,1020.7,540.9,1020.7z M539.3,978.9c-2.7,0-4.9,0.9-6.6,2.7
			c-1.7,1.8-2.7,4.4-3.2,7.8h18.9v-1.1c-0.1-3-0.9-5.4-2.4-7C544.5,979.7,542.2,978.9,539.3,978.9z"/>
	</g>
	
		<image style="overflow:visible;enable-background:new    ;" width="512" height="532" xlink:href="4437C742.png"  transform="matrix(9.729066e-02 0 0 9.681664e-02 512.2776 890.4967)">
	</image>
</g>
<g id="FLY4">
	<g class="st2">
		<path class="st3" d="M716.9,993.3c0-7.9,1.8-14.2,5.3-18.9c3.6-4.7,8.4-7,14.6-7c5,0,9,1.8,12.3,5.5v-25.9h13.6v72.2h-12.3
			l-0.7-5.4c-3.4,4.2-7.7,6.3-13.1,6.3c-6,0-10.8-2.4-14.4-7.1C718.7,1008.3,716.9,1001.7,716.9,993.3z M730.5,994.3
			c0,4.8,0.8,8.4,2.5,11c1.7,2.5,4.1,3.8,7.2,3.8c4.2,0,7.2-1.8,8.9-5.3v-20.1c-1.7-3.5-4.6-5.3-8.8-5.3
			C733.7,978.4,730.5,983.7,730.5,994.3z"/>
	</g>
	
		<image style="overflow:visible;enable-background:new    ;" width="512" height="532" xlink:href="4437C743.png"  transform="matrix(9.729066e-02 0 0 9.681664e-02 715.7673 887.4967)">
	</image>
</g>
<g id="FLY5">
	<g class="st2">
		<path class="st3" d="M965.1,1006.3c2.5,0,4.5-0.7,6.1-2.1c1.6-1.4,2.4-3.2,2.4-5.5h12.7c0,3.4-1,6.6-2.8,9.5
			c-1.8,2.9-4.4,5.1-7.6,6.7c-3.2,1.6-6.8,2.4-10.6,2.4c-7.3,0-13-2.3-17.2-6.9c-4.2-4.6-6.3-11-6.3-19.2v-0.9
			c0-7.8,2.1-14.1,6.3-18.8c4.2-4.7,9.9-7,17.2-7c6.4,0,11.5,1.8,15.3,5.4c3.8,3.6,5.8,8.4,5.9,14.5h-12.7c-0.1-2.6-0.9-4.8-2.4-6.4
			c-1.6-1.7-3.6-2.5-6.2-2.5c-3.2,0-5.6,1.2-7.2,3.5c-1.6,2.3-2.4,6-2.4,11.2v1.4c0,5.2,0.8,9,2.4,11.3
			C959.4,1005.1,961.8,1006.3,965.1,1006.3z"/>
	</g>
	
		<image style="overflow:visible;enable-background:new    ;" width="512" height="532" xlink:href="4437C746.png"  transform="matrix(9.729066e-02 0 0 9.681664e-02 939.689 886.9758)">
	</image>
</g>
<g id="FLY6">
	
		<image style="overflow:visible;enable-background:new    ;" width="512" height="532" xlink:href="4437C740.png"  transform="matrix(9.729066e-02 0 0 9.681664e-02 1150.7236 888.4967)">
	</image>
	<g class="st2">
		<path class="st3" d="M1185.4,1017.7c-0.6-1.2-1.1-2.7-1.4-4.6c-3.3,3.7-7.6,5.5-12.8,5.5c-5,0-9.1-1.4-12.4-4.3s-4.9-6.5-4.9-10.9
			c0-5.4,2-9.5,6-12.4c4-2.9,9.8-4.3,17.3-4.4h6.3v-2.9c0-2.3-0.6-4.2-1.8-5.6c-1.2-1.4-3.1-2.1-5.7-2.1c-2.3,0-4.1,0.5-5.4,1.6
			c-1.3,1.1-2,2.6-2,4.5H1155c0-2.9,0.9-5.7,2.7-8.2s4.4-4.5,7.7-5.9c3.3-1.4,7-2.1,11.2-2.1c6.3,0,11.2,1.6,14.9,4.7
			c3.7,3.1,5.5,7.6,5.5,13.3v22c0,4.8,0.7,8.5,2,11v0.8H1185.4z M1174.2,1008.3c2,0,3.9-0.4,5.5-1.3c1.7-0.9,2.9-2.1,3.8-3.6v-8.7
			h-5.1c-6.8,0-10.4,2.3-10.9,7l0,0.8c0,1.7,0.6,3.1,1.8,4.2C1170.5,1007.7,1172.1,1008.3,1174.2,1008.3z"/>
	</g>
</g>
<g id="FLY7">
	
		<image style="overflow:visible;enable-background:new    ;" width="512" height="532" xlink:href="4437C75E.png"  transform="matrix(9.729066e-02 0 0 9.681664e-02 1354.2628 890.8118)">
	</image>
	<g class="st2">
		<path class="st3" d="M1373.4,968.1c0-1.7,0.7-3.1,2-4.1c1.4-1.1,3.2-1.6,5.6-1.6c2.3,0,4.2,0.5,5.5,1.6c1.4,1.1,2.1,2.5,2.1,4.1
			c0,1.7-0.7,3.1-2.1,4.2c-1.4,1.1-3.2,1.6-5.5,1.6c-2.3,0-4.1-0.5-5.5-1.6C1374.1,971.2,1373.4,969.8,1373.4,968.1z M1387.8,1020.7
			h-13.6v-41.8h13.6V1020.7z"/>
	</g>
</g>
<g id="FLY8">
	
		<image style="overflow:visible;enable-background:new    ;" width="502" height="532" xlink:href="DC0FCD45.png"  transform="matrix(9.922872e-02 0 0 9.681664e-02 1554.0111 888.8118)">
	</image>
	<g class="st2">
		<path class="st3" d="M1572.5,973.7c3.6-4.3,8.1-6.5,13.6-6.5c11,0,16.6,6.4,16.8,19.2v32.6h-13.6v-32.2c0-2.9-0.6-5.1-1.9-6.5
			c-1.3-1.4-3.3-2.1-6.3-2.1c-4,0-6.9,1.5-8.6,4.6v36.1h-13.6v-72.2h13.6V973.7z"/>
	</g>
</g>
<g id="FLY9">
	<g class="st2">
		<path class="st3" d="M1755.5,981.4c0-7.8,1.9-14.1,5.6-18.8c3.7-4.8,8.7-7.1,15-7.1c5.6,0,9.9,1.9,13,5.7l0.6-4.8h12.3v49.2
			c0,4.4-1,8.3-3,11.6c-2,3.3-4.9,5.8-8.5,7.5c-3.7,1.7-8,2.6-12.9,2.6c-3.7,0-7.4-0.7-10.9-2.2c-3.5-1.5-6.2-3.4-8-5.8l6-8.3
			c3.4,3.8,7.5,5.7,12.3,5.7c3.6,0,6.4-1,8.4-2.9c2-1.9,3-4.7,3-8.2v-2.7c-3.1,3.5-7.3,5.3-12.4,5.3c-6.1,0-11.1-2.4-14.8-7.2
			c-3.8-4.8-5.7-11.1-5.7-19V981.4z M1769.1,982.4c0,4.6,0.9,8.2,2.8,10.9s4.4,3.9,7.6,3.9c4.1,0,7.1-1.6,8.9-4.7v-21.4
			c-1.8-3.1-4.7-4.7-8.8-4.7c-3.3,0-5.8,1.3-7.7,4C1770,973.1,1769.1,977.1,1769.1,982.4z"/>
	</g>
	
		<image style="overflow:visible;" width="500" height="517" xlink:href="DC0FCD45.png"  transform="matrix(9.960548e-02 0 0 9.960548e-02 1752.2456 887.3503)">
	</image>
</g>
<g id="B1">
	
		<image style="overflow:visible;enable-background:new    ;" width="502" height="317" xlink:href="DC0FCD5E.jpeg"  transform="matrix(0.3957 0 0 0.4282 17.3912 372.5599)">
	</image>
</g>
<g id="F2">
	<defs>
		<rect id="SVGID_1_" x="252.8" y="585.6" width="134.3" height="134.3"/>
	</defs>
	<clipPath id="SVGID_2_">
		<use xlink:href="#SVGID_1_"  style="overflow:visible;"/>
	</clipPath>
	<g transform="matrix(1 0 0 1 -1.525879e-05 0)" style="clip-path:url(#SVGID_2_);enable-background:new    ;">
		
			<image style="overflow:visible;" width="1609" height="906" xlink:href="DC0FCD5F.jpg"  transform="matrix(0.1466 0 0 0.1465 177.3727 587.7905)">
		</image>
	</g>
</g>
<g id="F1">
	
		<image style="overflow:visible;enable-background:new    ;" width="3404" height="1943" xlink:href="DC0FCD40.jpg"  transform="matrix(5.157756e-02 0 0 6.934327e-02 1720.4321 374.4496)">
	</image>
</g>
<g id="C1">
	
		<image style="overflow:visible;enable-background:new    ;" width="500" height="315" xlink:href="DC0FCD41.jpg"  transform="matrix(0.4375 0 0 0.4347 806.572 373.5034)">
	</image>
</g>
<g id="D1">
	
		<image style="overflow:visible;enable-background:new    ;" width="502" height="505" xlink:href="DC0FCD46.jpg"  transform="matrix(0.269 0 0 0.2674 1066.1382 374.4496)">
	</image>
</g>
<g id="B2">
	
		<image style="overflow:visible;enable-background:new    ;" width="505" height="346" xlink:href="DC0FCD47.jpeg"  transform="matrix(0.3827 0 0 0.3843 16.9422 586.94)">
	</image>
</g>
<g id="A1">
	
		<image style="overflow:visible;enable-background:new    ;" width="302" height="302" xlink:href="DC0FCD4E.jpg"  transform="matrix(0.4471 0 0 0.4471 248.1357 374.4496)">
	</image>
</g>
<g id="A2">
	
		<image style="overflow:visible;enable-background:new    ;" width="302" height="302" xlink:href="DC0FCD4F.jpg"  transform="matrix(0.4516 0 0 0.4516 437.2115 585.7528)">
	</image>
</g>
<g id="D2">
	
		<image style="overflow:visible;enable-background:new    ;" width="802" height="539" xlink:href="DC0FCD64.jpg"  transform="matrix(0.2516 0 0 0.2499 615.3884 585.5881)">
	</image>
</g>
<g id="E2">
	
		<image style="overflow:visible;enable-background:new    ;" width="1008" height="671" xlink:href="DC0FCD6C.jpg"  transform="matrix(0.2011 0 0 0.2008 853.2708 586.0757)">
	</image>
</g>
<g id="C2">
	
		<image style="overflow:visible;enable-background:new    ;" width="503" height="503" xlink:href="DC0FCD6D.jpg"  transform="matrix(0.2689 0 0 0.2678 1760.4321 585.3914)">
	</image>
</g>
<g id="E1">
	
		<image style="overflow:visible;enable-background:new    ;" width="803" height="644" xlink:href="DC0FCD6A.jpg"  transform="matrix(0.2109 0 0 0.2097 426.0655 374.4496)">
	</image>
</g>
<image style="overflow:visible;enable-background:new    ;" width="955" height="524" id="I2" xlink:href="DC0FCD6B.jpg"  transform="matrix(0.2012 0 0 0.2563 1535.6243 585.5881)">
</image>
<image style="overflow:visible;enable-background:new    ;" width="1600" height="656" id="I1" xlink:href="DC0FCD58.jpg"  transform="matrix(0.1254 -7.211383e-04 1.156007e-03 0.2011 1242.215 379.1916)">
</image>
<image style="overflow:visible;enable-background:new    ;" width="960" height="720" id="H2" xlink:href="DC0FCD59.jpg"  transform="matrix(0.1865 0 0 0.1865 1326.6643 585.6284)">
</image>
<image style="overflow:visible;enable-background:new    ;" width="1600" height="1196" id="H1" xlink:href="DC0FCD5A.jpg"  transform="matrix(0.1226 0 0 0.1093 1493.8937 378.5263)">
</image>
<image style="overflow:visible;" width="2048" height="1361" id="G2" xlink:href="../../15/img/apple.jpg"  transform="matrix(9.778795e-02 0 0 9.778795e-02 1091.8026 585.6284)">
</image>
<image style="overflow:visible;" width="4500" height="2999" id="G1" xlink:href="../../15/img/ant.jpg"  transform="matrix(3.496932e-02 0 0 4.341578e-02 624.0861 378.0897)">
</image>
<g id="FR1">
	
		<image style="overflow:visible;enable-background:new    ;" width="505" height="457" xlink:href="DC0FCD87.png"  transform="matrix(0.2861 0 0 0.2871 55.7032 42.6205)">
	</image>
	<g class="st2">
		<path class="st3" d="M135.1,149.1h-16.9l-3.2,9.7h-10.3l17.5-46.9h9l17.5,46.9h-10.3L135.1,149.1z M120.7,141.3h11.7l-5.9-17.5
			L120.7,141.3z"/>
	</g>
</g>
<g id="FR2">
	
		<image style="overflow:visible;enable-background:new    ;" width="505" height="457" xlink:href="DC0FCDBD.png"  transform="matrix(0.2861 0 0 0.2871 252.6245 42.6205)">
	</image>
	<g class="st2">
		<path class="st3" d="M310.7,158.8v-46.9h16.4c5.7,0,10,1.1,12.9,3.3c2.9,2.2,4.4,5.4,4.4,9.6c0,2.3-0.6,4.3-1.8,6.1
			s-2.8,3-4.9,3.8c2.4,0.6,4.3,1.8,5.7,3.6s2.1,4.1,2.1,6.7c0,4.5-1.4,7.9-4.3,10.2c-2.9,2.3-7,3.5-12.3,3.5H310.7z M320.4,131.5
			h7.1c4.9-0.1,7.3-2,7.3-5.8c0-2.1-0.6-3.7-1.9-4.6s-3.2-1.4-5.8-1.4h-6.8V131.5z M320.4,138.3V151h8.3c2.3,0,4.1-0.5,5.3-1.6
			s1.9-2.6,1.9-4.5c0-4.3-2.2-6.5-6.7-6.5H320.4z"/>
	</g>
</g>
<g id="F3">
	
		<image style="overflow:visible;enable-background:new    ;" width="505" height="457" xlink:href="DC0FCDBF.png"  transform="matrix(0.2861 0 0 0.2871 469.5457 42.6205)">
	</image>
	<g class="st2">
		<path class="st3" d="M560.7,143.1c-0.4,5-2.2,9-5.6,11.9c-3.4,2.9-7.8,4.3-13.3,4.3c-6,0-10.7-2-14.2-6.1c-3.4-4-5.2-9.6-5.2-16.7
			v-2.9c0-4.5,0.8-8.5,2.4-11.9c1.6-3.4,3.9-6.1,6.8-7.9c3-1.8,6.4-2.8,10.3-2.8c5.4,0,9.8,1.4,13.1,4.3c3.3,2.9,5.2,7,5.7,12.2
			h-9.7c-0.2-3-1.1-5.2-2.5-6.6c-1.4-1.4-3.7-2-6.6-2c-3.2,0-5.6,1.2-7.2,3.5c-1.6,2.3-2.4,5.9-2.5,10.7v3.5c0,5.1,0.8,8.8,2.3,11.1
			c1.5,2.3,4,3.5,7.3,3.5c3,0,5.2-0.7,6.7-2c1.5-1.4,2.3-3.5,2.5-6.3H560.7z"/>
	</g>
</g>
<g id="F4">
	
		<image style="overflow:visible;enable-background:new    ;" width="505" height="457" xlink:href="DC0FCDBC.png"  transform="matrix(0.2861 0 0 0.2871 671.5668 42.6205)">
	</image>
	<g class="st2">
		<path class="st3" d="M726.9,158.8v-46.9h14.4c4.1,0,7.8,0.9,11.1,2.8c3.3,1.9,5.8,4.5,7.6,7.9s2.7,7.3,2.7,11.7v2.2
			c0,4.4-0.9,8.2-2.7,11.6c-1.8,3.4-4.3,6-7.6,7.9c-3.3,1.9-6.9,2.8-11,2.8H726.9z M736.6,119.7V151h4.7c3.8,0,6.7-1.2,8.7-3.7
			c2-2.5,3-6,3.1-10.6v-2.5c0-4.8-1-8.4-3-10.8c-2-2.5-4.9-3.7-8.7-3.7H736.6z"/>
	</g>
</g>
<g id="F5">
	
		<image style="overflow:visible;enable-background:new    ;" width="501" height="457" xlink:href="DC0FCDB4.png"  transform="matrix(0.2884 0 0 0.2871 891.3256 35.3792)">
	</image>
	<g>
		<g class="st2">
			<path class="st3" d="M974.5,136H956v12.6h21.8v7.8h-31.4v-46.9h31.4v7.8H956v11.2h18.5V136z"/>
		</g>
	</g>
</g>
<g id="F6">
	
		<image style="overflow:visible;enable-background:new    ;" width="505" height="457" xlink:href="DC0FCDB5.png"  transform="matrix(0.2861 0 0 0.2871 1113.6072 33.2067)">
	</image>
	<g class="st2">
		<path class="st3" d="M1205,130.2h-18.5v19.2h-9.7v-46.9h30.5v7.8h-20.9v12.1h18.5V130.2z"/>
	</g>
</g>
<g id="F8">
	
		<image style="overflow:visible;enable-background:new    ;" width="501" height="457" xlink:href="DC0FCDB2.png"  transform="matrix(0.2884 0 0 0.2871 1721.2678 30.2067)">
	</image>
	<g class="st2">
		<path class="st3" d="M1797.8,146.3h-9.7V99.5h9.7V146.3z"/>
	</g>
</g>
<g id="F7">
	
		<image style="overflow:visible;enable-background:new    ;" width="505" height="457" xlink:href="DC0FCDB3.png"  transform="matrix(0.2861 0 0 0.2871 1516.6632 30.2067)">
	</image>
	<g class="st2">
		<path class="st3" d="M1612,146.3h-9.7v-20.1h-18.8v20.1h-9.7V99.5h9.7v19h18.8v-19h9.7V146.3z"/>
	</g>
</g>
<g id="F9">
	
		<image style="overflow:visible;" width="500" height="454" xlink:href="DC0FCDB3.png"  transform="matrix(0.2898 0 0 0.2898 1313.2278 32.8623)">
	</image>
	<g class="st2">
		<path class="st3" d="M1401.8,140.4c-1.7,2.1-4.2,3.7-7.4,4.8c-3.2,1.1-6.7,1.7-10.6,1.7c-4.1,0-7.6-0.9-10.7-2.7
			c-3.1-1.8-5.4-4.3-7.1-7.7c-1.7-3.4-2.5-7.3-2.6-11.9v-3.2c0-4.7,0.8-8.7,2.4-12.2s3.9-6,6.8-7.9c3-1.8,6.5-2.7,10.4-2.7
			c5.6,0,9.9,1.3,13,4c3.1,2.7,5,6.5,5.6,11.6h-9.4c-0.4-2.7-1.4-4.6-2.8-5.9c-1.5-1.2-3.5-1.9-6.1-1.9c-3.3,0-5.8,1.2-7.5,3.7
			c-1.7,2.5-2.6,6.1-2.6,11v3c0,4.9,0.9,8.6,2.8,11.1c1.9,2.5,4.6,3.8,8.2,3.8c3.6,0,6.2-0.8,7.8-2.3v-8.1h-8.8v-7.1h18.5V140.4z"/>
	</g>
</g>
</svg>
