<?xml version="1.0" encoding="utf-8"?>
<!-- Generator: Adobe Illustrator 21.0.0, SVG Export Plug-In . SVG Version: 6.00 Build 0)  -->
<svg version="1.1" xmlns="http://www.w3.org/2000/svg" xmlns:xlink="http://www.w3.org/1999/xlink" x="0px" y="0px"
	 viewBox="0 0 471.5 1075.2" style="enable-background:new 0 0 471.5 1075.2;" xml:space="preserve">
<style type="text/css">
	.st0{fill:#2E3030;}
	.st1{fill:#284346;}
	.st2{fill:#C9B185;}
	.st3{fill:#FFE6D2;}
	.st4{fill:#1C899C;}
	.st5{fill:#596363;}
	.st6{fill:#BA443E;}
	.st7{fill:#FFFFFF;}
	.st8{fill:#FDB7C3;}
	.st9{fill:#EAAF83;}
	.st10{fill:none;stroke:#000000;stroke-width:3;stroke-linecap:round;stroke-linejoin:round;stroke-miterlimit:10;}
</style>
<g id="Слой4_xA0_Изображение_1_">
</g>
<g id="Слой5_xA0_Изображение_1_">
	<g>
		<g>
			<g>
				<path d="M359.7,479.7c0.2,0.4,0.4,0.8,0.6,1.1c2.3,3.5,4.5,7,6.9,10.4c3.5,5.2,3.5,5.2,9.5,7.3c7.2,2.5,14.6,4,22.1,5.3
					c3.2,0.6,6.4,1.2,9.6,1.9c0.9,0.2,1.8,0.6,2.7,0.9c3.7,1.3,3.5,6.6,0.5,8.1c-1.8,0.9-3.7,1.6-5.6,1.9c-5.6,1-11.2,1.7-16.9,1.6
					c-0.6,0-1.3,0-1.9,0.2c-4.2,1.5-8.2,0.8-12.1-1c-2.1-0.9-4.1-2.2-6.1-3.3c-0.7-0.4-1.3-0.8-2.2-0.9c0.4,0.5,0.8,0.9,1.1,1.4
					c5.2,6.5,10.3,13,15.5,19.5c0.2,0.3,0.5,0.7,0.6,1c1,1.9,0.6,3.4-1.4,4.4c-2.5,1.2-5.1,1.3-7.7,0.4c-1.8-0.6-3.5-1.6-5.5-2.5
					c-2.9,1.2-6,0.3-8.8-1.2c-2.4-1.3-4.4-3.3-6.9-4.4c-2.3-1-5.1-1.1-7.6-2c-6.9-2.7-11.9-7.7-15.5-14c-1.2-2-2.2-4.1-3.4-6.1
					c-0.5-0.8-1-1.6-2-2.3c0,0.8-0.1,1.6,0,2.4c0.3,2.5,0.6,5.1,1.1,7.6c0.5,2.5-0.4,4.2-2.3,5.6c-0.9,0.7-1.8,1.3-2.7,1.9
					c0.3,6.5,0.5,12.9,0.8,19.3c0.3,8.3,0.7,16.6,0.8,24.9c0.2,11.7,0.4,23.4,0.4,35c0,15.2-0.6,30.4-1.9,45.5
					c-1.2,13.3-2.5,26.6-5.2,39.7c-0.2,1.1-0.4,2.2-0.8,3.3c-1.9,5.8-2.3,11.9-2.5,18c-0.2,8-0.4,16-1.1,24
					c-0.6,7.3-1.8,14.6-2.9,21.9c-1.5,9.7-3,19.4-4.7,29.1c-2.6,14.5-5.3,28.9-7.9,43.4c-1.1,6.3-1.7,12.7-1.7,19.1
					c-0.1,7.2-0.3,14.4,0,21.6c0.2,4.9,1,9.9,1.8,14.7c1.5,9.6,3.4,19,4.7,28.6c0.7,5.1,0.5,10.4,0.7,15.6c0,1.4-0.6,2.7-1.7,3.6
					c-1.4,1.1-2.8,2.1-4.6,3.3c0.4,2.6,0.8,5.5,1.3,8.4c2.6,15.4,6.5,30.5,10,45.7c2.2,9.3,4.6,18.5,6.6,27.8
					c2.8,12.7-4.2,23.8-17,26.8c-8.8,2.1-17.7,3.5-26.8,3.8c-4.2,0.1-8.3-0.4-12.3-1.5c-7.3-2.1-11.3-6.9-12.1-14.4
					c-0.9-8.4-1.1-16.9-0.7-25.4c0-0.8,0.1-1.6,0.1-2.4c0-0.1-0.1-0.3-0.3-0.7c-0.5,0-1.1,0-1.7,0c-11.7,0.1-23.1-1.8-34.3-5
					c-2.3-0.6-4.5-1.7-6.6-2.9c-3.1-1.8-4.5-4.8-3.7-8.4c0.7-3.2,1.7-6.3,2.8-9.4c3.6-9.3,7.4-18.6,10.9-27.9
					c2.5-6.7,4.6-13.6,6.9-20.4c0.2-0.7,0.4-1.5,0.7-2.6c-0.8-0.7-1.7-1.4-2.5-2.2c-1.1-1.2-1.7-2.7-1.2-4.4
					c0.5-2.1,0.8-4.3,1.4-6.3c2.9-8.4,3.2-16.9,1.4-25.5c-2.6-12.6-5.1-25.2-7.5-37.9c-2.4-12.6-4.7-25.3-7.1-37.9
					c-2.3-11.7-4.7-23.3-7-35c-1.9-10.3-3.7-20.6-5.4-30.9c-0.4-2.3-0.4-4.6-0.5-6.9c-0.9-18.5-1.8-36.9-1.5-55.4
					c0-3.1,0.1-6.2,0.3-9.4c0.3-4.6,0-9.1-0.7-13.6c-1-6.2-1.5-12.4-2.7-18.5c-1.3-6.6-3.1-13-4.9-19.5
					c-4.6-16.6-9.4-33.1-13.8-49.7c-3.7-13.9-6.5-28-8.3-42.3c-0.7-5.6-1-11.3-1.5-17c0-0.5-0.1-1.1-0.1-1.9
					c-3.1-0.5-6.3-0.9-9.6-1.4c3.1-21.5,6.1-42.8,8.3-64.3c-2-0.9-4-1.7-6.1-2.6c-0.2,1-0.4,2.1-0.6,3.1c-0.5,4.7-0.9,9.4-1.5,14.1
					c-0.6,4.5-1.4,9-2.1,13.5c-0.1,0.5-0.2,0.9-0.4,1.4c-0.6,1.4-1.1,1.8-2.6,1.3c-7.8-2.6-15.7-5-22.7-9.5
					c-10.3-6.5-18.9-14.7-26.1-24.5c-9.6-13-17.3-27.1-23.1-42.2c-3-7.9-5.9-15.9-8.8-23.8c-2.4-6.8-4-13.8-5.1-20.9
					c-0.2-1.2,0.3-2,1-2.8c12.4-15.4,25.3-30.4,38.2-45.3c4.9-5.6,9.2-11.7,13.9-17.4c8.2-9.7,16.6-19.3,24.9-28.9
					c7.7-8.9,14.6-18.2,20.2-28.6c-2-1.6-2.3-3.7-1.8-6c0.7-3.1,1.3-6.3,2.4-9.3c1.3-3.5,1.7-7.1,1.9-10.8
					c0.6-10.6,0.1-21.3-0.1-31.9c-0.2-8.3-0.2-16.6-0.4-25c-0.3-12.6-0.8-25.3-0.8-37.9c0.1-15.1,2.7-29.9,7.6-44.3
					c1.7-5,3.9-9.8,7.2-14c0.7-0.9,1.4-1.7,2.1-2.6c3.7-4.7,8.6-6.6,14.4-5.5c1.6,0.3,2.4-0.3,3.2-1.4c0-0.1,0.1-0.1,0.1-0.2
					c3.7-6.5,9.6-10,16.4-12.5c11.7-4.2,23.7-6.2,36-5.1c14.1,1.2,27.8,4.5,40.6,10.6c4.6,2.2,9.1,4.6,13.7,6.9
					c8.5,4.3,13.5,11.4,16.6,20.2c1.6,4.6,2.4,9.3,3.1,14c1.4,9.8,2.9,19.6,4.1,29.4c0.9,7,1.4,14,2.2,21c0.8,8.1,1.8,16.2,2.6,24.3
					c0.6,6.4,1.2,12.9,1.6,19.4c0.7,11.5,1.6,23,1,34.5c-0.3,6.7,0.9,13.2,0.8,19.9c0,0.6,0.1,1.1,0,1.7c-0.1,2.1,0.4,4,1.6,5.8
					c2.2,3.2,2.7,7,3.3,10.7c1,5.8,2,11.7,2.7,17.5c0.9,7.4,1.6,14.8,2.2,22.2c1,11.6,1.8,23.1,2.7,34.7c0.2,3.2,0.2,6.4,0.3,9.6
					c0.6,14.9,1.6,29.7,4.1,44.4c2.8,16.5,7.7,32.3,14.3,47.7c5.2,12.1,11.2,23.7,17.9,35c1,1.7,1.7,3.6,2.6,5.4
					c0.5,1.1,0.3,2-0.7,2.8c-0.6,0.4-1.1,0.9-1.7,1.3c-6,4-12,8-18,12C361.1,478.9,360.5,479.3,359.7,479.7z M126.5,387.5
					c-1.2-0.2-1.4,0.9-1.8,1.6c-3.7,6.6-6.6,13.6-9.1,20.8c-0.1,0.3-0.1,0.6-0.2,0.9c0.4,0.1,0.7,0.1,1.1,0.1
					c-0.9,0.6-0.5,1.3-0.1,2.1c1.6,2.6,3.3,5.3,4.9,7.9c1.1,1.7,2.3,3.2,3.5,4.9c1.9-0.8,3.5-1.5,5.2-2.2c1.6-0.6,3.3-1.2,4.9-1.8
					c-2.5,1.3-5.1,2.6-7.6,3.9c-0.6,0.3-1.2,0.7-1.7,1c3.2,5.1,9,12.5,10.5,13.5c1-6.6,1.9-13.1,2.9-19.9c-0.6,0.2-0.9,0.3-1.1,0.4
					c0.4-0.5,0.7-0.9,0.9-1.2c-2.7-5.1-5.2-10-7.9-15c-0.7,0.4-1.5,0.8-2.3,1.1c-4.1,1.8-8.2,3.5-12.2,5.3c0.7-0.4,1.3-0.9,2-1.2
					c3.4-1.7,6.8-3.4,10.2-5.2c0.7-0.4,1.3-0.8,2.1-1.2c-0.3-1-0.6-1.9-0.9-2.9c-0.9-3.4-1.8-6.7-2.8-10.1c1.5,4.1,3,8.2,4.6,12.5
					c4.5-2.4,8.6-5.1,12.6-8c0.9-0.7,0.7-1.3-0.2-2.1c-2-1.7-4-3.4-6.1-5c-0.5-0.4-1.3-0.7-1.9-0.7c-2.9-0.1-5.9-0.2-8.8-0.2
					C127.1,386.9,126.8,387.3,126.5,387.5z M225.3,228.1c-0.3,0-0.6,0-0.9,0c1.7,7.7,3.3,15.2,5,22.9c6-4,11.7-7.8,17.3-11.5
					c-0.7-1.5-1.7-2.1-3-2.6c-4.8-2-9.5-4.1-14.3-6.2C228,229.9,226.6,228.9,225.3,228.1c0.8,0.2,1.7,0.4,2.6,0.8
					c4.7,2.2,9.4,4.4,14.1,6.6c0.7,0.3,1.4,0.5,2.6,1c-0.4-0.8-0.5-1.3-0.8-1.6c-2.3-2.7-3.4-5.9-4.3-9.3c-0.6-2.6-1.2-5.1-1.9-7.7
					c-0.5-2-1.1-3.9-1.9-6.3c-4.2,5.3-8.4,9.9-11.8,15.2C224.6,227.3,224.9,227.7,225.3,228.1z M344.2,438.7
					c-0.1-0.3-0.1-0.7-0.1-0.9c-5.8,2.4-11.5,4.8-17.4,7.3c4.3,3.1,8.5,6.2,12.9,9.2c0.5-1.8,0.8-3.1,1.2-4.5
					C342,446,343.1,442.3,344.2,438.7c-1,4.3-2.1,8.7-3.1,13.1c-0.2,1-0.5,2-0.7,3c4.7,3.1,9.2,6,14,9.1c0.7-6.8,1.4-13.3,2.2-19.7
					c-3.6-2.6-7.1-5.2-10.8-7.9C345.1,437.1,344.7,437.9,344.2,438.7z M330.7,473.6c0.9,0.5,1.7,1,2.8,1.7c2.6-6.5,4-13.2,5.8-19.7
					c-4.5-3.3-8.7-6.5-13.1-9.7c-1.9,6.7-3.7,13.2-5.6,19.7c2.8,2.1,5.5,4.1,8.2,6.1C329.5,472.3,330.1,473,330.7,473.6
					c-0.9-0.5-1.8-0.9-2.7-1.6c-2.5-1.8-5-3.7-7.8-5.8c-0.5,4.7,0.9,8.6,1.5,13.1c3.7-1.3,7.1-2.5,10.6-3.7
					C331.6,474.8,331.2,474.2,330.7,473.6z M290,387.3c-0.2-0.1-0.4-0.4-0.5-0.4c-1.8,0.4-3.6,0.9-5.3,1.4c-0.4,0.1-0.8,0.6-1,0.9
					c-1,1.5-2,3.1-3,4.6c-1.4,2.1-1.6,4.4-0.3,6.6c1.2,2,2.7,4,4.1,5.8c1.3,1.6,3.1,2.3,5.1,2c4-0.6,8-1.3,12-2c1-0.2,1.7-0.8,2-1.8
					c1.3-4.5,3.6-8.5,6-12.5c1.4-2.3,0.8-4-1.8-4.9c-1.9-0.7-3.8-0.9-5.9-1.4c-2.5,4.6-6.3,7.8-10.2,10.9c-0.6,0.5-1.1,0.9-1.6,1.4
					c-2.7,3.1-2.5,2.5-5.7,0.7c-2.2-1.2-2.5-2.2-0.9-4.2c2-2.4,4.3-4.5,6.4-6.7c-1.5,2.1-3.1,4.2-4.6,6.4c-0.6,0.9-1.2,1.8-1.9,2.8
					c1.5,0.9,2.8,1.7,4.1,2.5c4.5-4.9,10.2-8.1,13.7-13.8c-4.4-2-4.4-2-8.3,0.1C291.6,386.2,290.8,386.8,290,387.3z M372.3,456.1
					c-1.1,0.8-2.1,1.7-3.2,2.4c-14.6,8.8-29.8,16.4-46.2,21.3c-0.3,0.1-0.6,0.2-1,0.4c0.7,4,1.4,7.8,2.1,12
					c20.8-6.2,38.8-16.9,56.2-29.3c-1.6-2.6-3-5.1-4.5-7.5c-0.2-0.3-1-0.1-1.5-0.2c0.3-0.2,0.7-0.4,0.9-0.6
					c-4.9-9.5-9.6-18.8-14.4-28c-0.2,0-0.3,0-0.5,0.1c-0.8,5.7-1.7,11.4-2.5,17c0.3,0.3,0.4,0.4,0.5,0.5c5.3,3.7,10.6,7.4,15.9,11.1
					c-0.5,0.4-1,0.8-1.5,1.1c0.3-1.2-0.8-1.5-1.4-1.9c-3.8-2.7-7.7-5.4-11.6-8.1c-0.6-0.4-1.2-0.8-2.1-1.3c-0.5,3.5-1,6.7-1.4,9.9
					c-0.4,3.2-1.2,6.5-1.2,10.3C361,462,366.7,459,372.3,456.1z M300.1,410.4c1.3,3.5,2.8,6.9,3.9,10.5c0.5,1.8,0.6,4,0.3,5.9
					c-1.2,6.3-3.7,12.2-6.5,18c-0.3,0.6-0.8,1-1.2,1.4c-1.4-0.8-1.2-2-1.3-3c-0.5-8.6-1-17.2-1.5-25.8c-0.1-2.5-0.3-4.9-0.5-7.4
					c-2.3,0.1-4.5,0.2-6.8,0.4c0.2,1.8,0.4,3.5,0.5,5.1c1.4,12.7,2.8,25.4,4.1,38.1c0.6,5.3,1,10.7,0.4,16c-0.1,0.6,0,1.2,0.1,1.9
					c6.8,0.1,13.4,0.2,19.9-1.2c0.1-0.5,0.2-0.8,0.1-1.2c-0.3-5.2-0.4-10.4-0.9-15.6c-0.6-7.2-1.3-14.5-2.2-21.7
					c-0.9-7.8-1.9-15.5-2.9-23.3c-0.1-0.8-0.1-1.7-0.9-2.2c-1.3,0.8-2.5,1.5-3.8,2.2c0.8,1.1,1.5,2.1,2.2,3.1
					c-1.1-0.5-1.8-1.2-2.6-1.9C300.6,410,300.3,410.3,300.1,410.4c-0.2-0.4-0.4-0.9-0.7-1.6c-1.7,0.4-3.4,0.7-4.9,1
					c0.8,11.2,1.5,22.2,2.3,33.4c0.4-0.5,0.6-0.6,0.7-0.8c1.8-4.9,3.7-9.9,5.4-14.9c1-2.8,0.7-5.6-0.3-8.5
					C301.6,416.3,300.9,413.4,300.1,410.4z M127,338.8c-0.3-0.3-0.5-0.6-0.8-0.8c-2.4-1.5-4.9-2.8-7.1-4.5c-3.1-2.5-6.4-3.3-10.3-3
					c-6.1,0.4-12,1.5-17.9,3c-0.5,0.1-0.9,0.4-1.7,0.7c14.3,1.7,27,6.2,38.9,13.5c-0.2-0.6-0.6-1.1-0.9-1.5
					c-1.4-1.9-1.3-2.2,0.5-3.7c6.1-5,12.1-9.9,18.1-15c11.2-9.5,22.7-18.8,32.8-29.5c0.9-1,1.4-1.9,1.4-3.3
					c0.1-5.8,0.3-11.7,0.6-17.5c0.2-3.1,0.5-6.2,0.9-9.3c0.1-0.9,0-1.9,1.3-2.5c0.2,1.4,0.4,2.5,0.4,3.7c0,2.2-0.1,4.3-0.1,6.5
					c-0.1,7.2-0.3,14.4-0.2,21.6c0.1,4.4,1,8.7,2.7,12.8c2.6,6.3,5.1,12.8,7.6,19.2c0.3,0.7,0.5,1.5,0.7,2.2
					c-0.1,0.1-0.3,0.1-0.4,0.2c-1.7-3.3-3.3-6.6-5-10c-0.4,0.6-0.3,1.1-0.3,1.6c0.2,4.3,0.5,8.6,0.4,12.9c0,4.8-1.7,9.1-4.7,12.9
					c-0.7,0.9-1.3,1.8-1.9,2.8c-1.3,2.2-1.2,2.8,0.7,4.5c2.1,1.9,4.2,3.7,6.3,5.6c0.9,0.8,1.8,1.6,2.8,2.1c7.8,4,15.7,7.8,23.6,11.7
					c0.2,0.1,0.4,0.1,0.9,0.1c-5.6-6.1-11.5-11.4-18.9-14.7c-2.4-1.1-4.9-2-7.3-3.1c-0.6-0.2-1.5-0.2-1.5-1.5c1.1,0.2,2.1,0.3,3,0.5
					c6.2,1.7,11.9,4.4,16.8,8.5c3.3,2.7,6.3,5.7,9.4,8.6c3.3,3.1,6.7,6,10.7,8c8.9,4.5,18.4,6.9,28.4,7.2c12,0.4,23.5-2.2,34.9-5.7
					c0.9-0.3,1.6-0.8,2.5-1.2c-2.1-0.8-4.1-1.2-6.1-1.5c-8.6-1.5-17.2-2.6-25.9-3.2c-8.7-0.5-17.4-0.4-26.1,0.3
					c-0.8,0.1-1.6-0.1-2.4-0.1c1-0.6,2-0.8,3-0.9c2.7-0.2,5.4-0.5,8.1-0.6c16.1-0.6,31.9,1,47.6,4.6c2.2,0.5,4,0.5,5.8-0.8
					c1.1-0.8,2.5-1.5,3.8-2c4.7-1.9,8.3-5.4,12.1-8.5c0.2-0.2,0.4-0.5,0.6-0.9c-0.7-1.5-1.4-3-2.2-4.5c-2.4-4.5-4.9-9-7.2-13.5
					c-2.1-4-3.1-8.2-3.2-12.7c-0.1-6,0.2-12,0.9-18c0.3-2.1,0.5-4.3,0.8-6.4c-1.2,1.5-2.2,3-3.2,4.6c-1.1,1.6-2.2,3.1-3.4,4.7
					c-1,1.4-2.1,2.7-3.2,4.1c2-4.5,4.2-8.7,6.5-12.9c2.1-4,4-8.2,5.2-12.6c1.7-6.1,2.2-12.4,2.3-18.8c0.1-7,0.1-14.1,0.2-21.1
					c0-1,0.1-2,0.2-3.1c0.2,0,0.3,0,0.5,0c0.2,0.9,0.4,1.8,0.5,2.8c0.8,7.8,1.1,15.6,0.8,23.5c-0.2,6.6-0.7,13.3-2.9,19.6
					c-1.2,3.3-2,6.4-2,9.9c-0.1,7.5-0.5,15-0.8,22.5c-0.2,5.1,1.3,9.8,3.7,14.2c2,3.7,4,7.3,5.9,11c0.9,1.8,1.7,3.6,2.5,5.4
					c0.6,1.4,0.3,2.7-0.8,3.7c-1.1,1-2.4,1.9-3.4,3c-0.5,0.5-0.9,1.1-1,1.7c-0.2,3.5-0.9,6.8-2.3,10.1c3.4,2.4,2.8,5.3,0.7,8.4
					c0.6,0.3,0.9,0.5,1.3,0.6c2.6,0.5,3.4,2.2,3.4,4.7c0,3.6,0.2,7.2,0.4,10.8c0.9,10.9,1.9,21.8,2.8,32.7c0.1,0.6,0.2,1.2,0.4,2.1
					c15.7-3.4,29.4-10.5,41.3-21.2c-0.4-1-0.8-1.8-1.1-2.7c-6.7-15.3-11.3-31.2-13.8-47.8c-1.9-12.1-2.6-24.3-2.8-36.6
					c0-2.2-0.3-4.3-0.5-6.5c-0.2-2-0.4-4.1-0.7-6.1c-0.1,10-0.8,20-1.8,30c-0.8,8-2.3,15.8-5.8,23.1c-0.3,0.7-0.7,1.4-1,2.1
					c-0.3-0.5-0.2-0.9-0.1-1.3c1.4-5.3,3.1-10.6,4-16c1.1-6.8,1.8-13.8,2.4-20.7c0.4-5.1,0.4-10.2,0.7-15.3c0.1-1.5,0.3-3.1,0.9-4.4
					c0.5-1.1,0.6-2.1,0.5-3.2c-0.4-5.4-0.7-10.9-1.1-16.3c-0.3-4.4-0.7-8.7-1-13.1c-1.1,8.3-1.9,16.6-3,24.9
					c-1.1,8.3-3.2,16.5-5.7,24.5c-0.1-0.6,0-1.1,0.1-1.7c1.2-6.5,2.6-13,3.6-19.6c1.4-9.6,2.6-19.3,3.7-29c0.4-4,0.6-8,0.5-12
					c-0.5-11.4-3.1-22.5-5.1-33.6c-0.9-5.3-3.9-9.4-7.6-13c-0.6-0.6-1.2-1-1.9-1.4c-6.1-3.5-12.3-6.9-18.4-10.4
					c-1.2-0.7-1.9-0.6-3,0.1c-3.7,2.3-7.5,4.4-11.2,6.6c-5.9,3.5-11.8,7.1-17.7,10.6c-1.2,0.7-1.7,1.5-1.8,2.8
					c-0.1,3.6-0.4,7.2-0.4,10.8c0,3.4,0.3,6.7,0.4,10.1c0.3,9.4,0.6,18.7,0.9,28.1c0.1,3.6,0.4,7.2,0.5,10.8c0.1,2.3,0,2.4-2.3,2.8
					c-6.9,1.1-13.7,2.3-20.6,3.3c-4.2,0.6-8.4,1.1-12.6,1.5c-2.2,0.2-2.3,0.1-3.2-2c-1.2-2.8-2.5-5.5-3.5-8.4
					c-3.5-9.6-6.2-19.5-8-29.6c-1.7-9.4-3.3-18.9-5-28.3c-0.2-1.3-0.4-2.4-2-2.9c-3.9-1.1-7.8-2.2-11.6-3.3
					c-2.9,3.3-5.6,6.4-8.5,9.4c-2.7,2.9-5.8,5.3-9.2,7.2c-6.1,3.3-9.9,2.9-15-1.8c-2.6-2.4-5-5-7.4-7.5c-1.4-1.5-3.1-2.7-5-3.6
					c-0.3,0.4-0.5,0.7-0.6,0.9c-4.3,8.8-9.7,16.8-16,24.2c-7.3,8.6-14.9,16.9-22.4,25.4c-0.7,0.8-1.5,1.7-2.2,2.6
					c-2.5,3.2-4.9,6.6-7.5,9.7c-11.1,13.2-22.2,26.3-33.3,39.4c-5.1,6.1-10.2,12.3-15.2,18.6c-0.5,0.6-0.6,1.6-0.5,2.4
					c0.6,3.7,1.1,7.5,2.2,11c2.8,9.2,6,18.2,9,27.3c1.8,5.4,3.9,10.6,6.6,15.7c2.7,5,5.4,10,8.2,14.9c4.7,7.9,9.8,15.6,16,22.4
					c0.6,0.6,1.2,1.2,2,2c0.2-1.3,0.4-2.1,0.5-3c1.7-13.6,4.8-26.9,9.3-39.8c3.3-9.5,7.5-18.5,13.4-26.7c1.4-1.9,2.9-3.6,4.3-5.5
					c-2.2-3.2-4.8-6-7.7-8.5c-2.3-2-5-2.9-8-2.6c-4,0.4-8,0.7-11.9,1.5c-9,1.8-17.8,4.5-26,8.8c-0.8,0.4-1.6,1.1-2.9,0.2
					c1.2-2.1,3.3-3.2,4.9-4.7c1.8-1.6,3.7-3.1,5.6-4.6c1.8-1.4,3.7-2.8,5.6-4.2c1.9-1.4,3.8-2.8,5.9-3.7
					c-5.1,4.5-10.7,8.3-16.1,13.2c4.7-1.6,8.9-3.2,13.2-4.5c6.8-2.1,13.8-3.5,20.9-3.8c4.3-0.2,7.9,1.1,10.7,4.2
					c1,1.1,1.9,2.2,2.8,3.3c0.4,0.4,0.7,0.8,1.1,1.3c0.1-0.3,0.3-0.4,0.2-0.5c-0.1-0.4-0.1-0.8-0.2-1.2c-1-3.3-2.4-6.3-4.5-9
					c-0.3-0.4-0.7-0.9-1-1.3c-1.6-2-1.5-2.6,0.9-3.7c1.3-0.6,2.6-1.1,3.9-1.8c1-0.5,1.9-1.1,2.9-1.7c-1.3-1.9-2.9-3.1-4.7-4
					c-6.4-3.6-13-6.6-19.9-8.8c-8.2-2.6-16.4-4.9-25.1-4.3c-0.3,0-0.6-0.3-1.5-0.6c1.1-0.4,1.7-0.8,2.3-1c4-1.1,8-2.3,12.1-3.1
					c4.3-0.9,8.7-1.4,13-1.9c4.2-0.5,8.1,0.5,11.3,3.5c1.9,1.7,4,3.2,6,4.8C126.6,337.7,127.2,338,127,338.8L127,338.8z
					 M241.6,532.8c0,0.7-0.1,1.2-0.1,1.6c0,24.6,0.4,49.1,2.2,73.6c1.3,17.5,2.4,35.1,3.9,52.6c1,11.7,2.5,23.4,3.7,35.1
					c0.4,4.4,0.7,8.8,0.4,13.2c-0.6,9.4-2.4,18.6-5,27.6c-2.9,10-4.3,20.1-4,30.5c0.1,2.8-0.2,5.6-0.2,8.4c0,5.9-0.2,11.8,0,17.8
					c0.3,7.7,0.8,15.3,1.3,23c0.5,7.5,1,15,1.5,22.5c0.7,9.7,1.7,19.4,2,29.2c0.7,23.6,1.1,47.2,1.6,70.8c0,0.7,0.1,1.4,0.2,2.2
					c0.8,0,1.5,0,2.1,0c5.9-0.5,11.8-0.7,17.7-1.5c6.8-0.9,13.6-2.1,20.1-4.3c2.8-0.9,5.4-2.3,8-3.7c1.5-0.8,2-2.2,2.1-4
					c0.2-8.4-0.9-16.6-2.3-24.8c-1.4-8-2.6-15.9-3.6-23.9c-1.2-9.2-1.1-18.5-1.1-27.8c0-8.7,0.7-17.4,2.3-26c2.5-13.5,5-27,7.4-40.6
					c1.7-9.8,3.3-19.7,4.7-29.6c1.1-7.7,2.3-15.3,2.9-23.1c0.7-8.3,0.7-16.6,0.9-24.9c0.1-4,0.7-7.9,1.7-11.8
					c0.9-3.3,1.7-6.7,2.3-10.1c3.1-17.9,4.8-36,5.6-54.1c0.6-13.9,0.9-27.8,0.9-41.7c0-20.6-0.4-41.3-0.7-61.9c0-0.3-0.1-0.7-0.2-1
					c-0.4,0-0.5,0-0.7,0.1c-8.4,4.2-17.2,6.8-26.6,7.6c-5,0.4-10.1,0.7-15.1,0.5c-11-0.3-21.9-0.9-32.8-1.4
					C243.9,532.8,242.9,532.8,241.6,532.8z M160,513c0,0.9,0,1.6,0,2.2c1.1,12,2.9,24,5.4,35.8c4.5,21.7,10.6,43,16.8,64.2
					c2.3,7.7,4.8,15.4,6.4,23.3c1.8,9.3,2.8,18.8,4,28.2c0.2,1.3,0.1,2.7,0,4.1c-0.1,1.7-0.4,3.3-0.5,5c-0.1,3,0,6.1,0.1,9.1
					c0.6,21.3,1.2,42.7,1.9,64c0,0.6,0.1,1.1,0.2,1.7c1.3,6.6,2.5,13.2,3.8,19.8c2.9,14.2,6,28.5,8.9,42.7
					c4.5,22.5,8.9,45,13.2,67.5c1,5.3,1.8,10.6,2.4,15.9c0.7,5.6-0.4,11.1-2,16.6c-0.7,2.2-1.1,4.5-1.8,6.7
					c-0.7,2.2,0.2,3.7,1.9,4.9c3.6,2.8,7.4,5.1,11.6,6.6c4.5,1.6,9.2,1.9,14.1,2.3c0-2.5,0.1-4.8,0-7.1c-0.3-11.7-0.8-23.3-0.9-35
					c-0.1-18.3-1.1-36.6-2.6-54.9c-1.2-14.4-2.2-28.9-2.7-43.3c-0.4-11.3,0.1-22.7,0.2-34.1c0.1-6.4,1.3-12.7,2.8-18.9
					c1.7-6.9,3.2-13.8,4.7-20.8c2.1-10.1,1.6-20.3,0.4-30.5c-0.5-3.9-1.1-7.8-1.5-11.7c-1-10.2-2-20.4-2.8-30.6
					c-1.2-16-2.4-32.1-3.4-48.1c-1-15.6-1.5-31.3-1.5-47c0-5.5,0-11-0.1-16.6c0-0.9-0.1-1.7-0.1-2.6c-13.5-1.4-26.4-4.5-39.1-8.3
					c-9.6-2.8-19.1-5.7-28.7-8.4C167.6,514.7,163.9,513.9,160,513z M288.3,447.6c-4.9,0.5-9.5,0.7-14.1,1.4
					c-11.5,1.6-22.9,3.5-34.4,5.2c-13.9,2.1-28,3.2-42,4.1c-0.8,0.1-1.6,0-2.4,0c1.1-0.4,2.2-0.3,3.3-0.5c6.7-0.7,13.4-1.4,20-2.3
					c15.4-2,30.7-4,46.1-6.1c7.1-0.9,14.1-2.1,21.2-2.2c0.6,0,1.2-0.1,2-0.2c-0.1-1.3-0.1-2.5-0.3-3.7c-0.1-1.2-0.3-2.5-0.5-3.8
					c-26.2-5-51.6-12.4-76.7-20.8c25.3,7.1,50.5,14.4,76.5,19.6c-0.8-9.7-1.5-19.1-2.3-28.4c-1.3-1.2-2.8-2.5-4-3.9
					c-1.2-1.4-2.2-3.1-3.2-4.5c-3.4,0-6.7,0.1-9.9,0c-12.9-0.6-25.6-2.4-38.1-5.6c-16.4-4.1-31.1-11.2-43.1-23.3
					c-0.3-0.3-0.6-0.5-1.1-0.8c-1.5,3.9-2.3,8-5.2,11.1c3,2.7,4.3,6.2,5.6,9.6c2.3,6.3,1.9,12.9,1.7,19.5c0,1.7,0.3,3.5-0.1,5.2
					c-0.7,3.2-1.6,6.3-2.7,9.4c-0.5,1.6-1.3,3-1.3,4.8c0,1-0.4,2-0.9,3c-2,4-4.3,7.8-7.3,11.2c-1,1.1-2,2.1-3.2,2.9
					c-2.4,1.7-4.5,1.5-6.7-0.5c-0.7-0.7-1.4-1.5-2-2.1c-1.7,0.4-3.3,0.8-5,1.2c-1.3,20.9-4.6,41.5-7.4,62.2c0.4,0.1,0.6,0.2,0.8,0.2
					c7.1,0.4,14.1,2,20.9,3.9c11.9,3.4,23.8,7,35.7,10.3c12.5,3.5,25.2,5.9,38.2,6.6c8.5,0.4,16.9,0.9,25.4,1.3
					c6.9,0.3,13.7,0.6,20.6-0.3c8.7-1.1,17.1-3.4,25-7.3c1.7-0.8,3.3-1.9,5-2.9c1.2-0.7,1.7-1.8,1.4-3.3c-0.3-2.1-0.5-4.3-0.6-6.4
					c-0.5-8.7-1.6-17.3-3.2-25.9c-1.1-6.1-2.3-12.1-3-18.2c-0.9-8.8-1.5-17.7-1.9-26.5c-0.6-14-3-27.8-3-41.9c0-0.9-0.3-1.5-1.2-1.9
					c-0.8-0.3-1.6-0.6-2.6-1c-0.9,1.8-1.7,3.5-2.4,5.1c-0.7,1.7-1.8,3.5,0.2,5.2c0.2,0.2,0.2,0.6,0.3,0.9c0.5,2,1.2,4,1.4,6.1
					c1.5,12.1,2.9,24.3,4.2,36.4c0.7,6.4,0.9,12.8,1.3,19.1c0.2,2.8-0.1,3.2-2.8,3.7c-6.5,1.4-13.1,1-19.6,0.8
					c-1.6,0-1.9-0.5-1.9-2.1c0-1.5,0.1-3,0.1-4.6C289.7,460.6,289,454.4,288.3,447.6z M179.4,157c-0.5-5,0-9.9,0.4-14.8
					c0.6-7,2.3-13.9,4.3-20.6c3.4-11.7,5.9-23.6,7.1-35.7c0.4-4,0.9-7.9,1.3-11.9c0.1-1.2,0.1-2.5,1.2-3.6c1,1.3,1.9,2.5,2.7,3.6
					c4.8,6.4,10.7,11.7,18,15.1c8.8,4.2,18.1,6.3,27.8,6.8c8,0.4,15.8-0.8,23.6-2.1c3.7-0.6,7.3-1.6,11.2-1.4
					c6.3,0.4,10.1,3.6,11.5,9.6c0.2,0.7,0.3,1.3,0.6,2.2c0.6-0.9,1-1.6,1.5-2.2c2.5-3.1,5.8-3.3,8.2,0c1.2,1.6,2.1,3.4,2.6,5.3
					c1.7,5.6,1.7,11.3,0.6,17.1c-0.7,3.5-1.7,6.8-3.9,9.7c-1.8,2.3-3.8,4.1-7.3,3.1c0,1,0,1.9,0,2.8c-0.2,5.2-0.8,10.4-2.5,15.3
					c-0.6,1.7-1.4,3.5-2.5,4.9c-2.4,3.2-5.1,6.2-7.7,9.2c-0.8,0.9-1.1,1.9-1.1,3c-0.1,2.9-0.4,5.7-0.4,8.6c-0.1,3.1,0,6.2,0,9.3
					c2.1,1,3.5,2.8,4,4.9c0.8,3,2.7,5,5.1,6.7c3.5,2.5,7,5,10.6,7.5c8.2,5.8,16.7,10.9,25.6,15.5c2.2,1.2,4.3,2.5,6,4.3
					c0.1,0.1,0.4,0.2,0.8,0.3c-0.1-1.6-0.2-3.1-0.3-4.6c-0.4-7.3-0.3-14.7-0.9-22c-0.8-9.6-1-19.2-1.6-28.7
					c-0.6-8.5-1.3-16.9-2-25.3c-0.8-9-1.8-18-2.7-27c-0.4-4.3-0.6-8.6-1.2-12.9c-1.3-9-2.7-18-4.1-27c-0.8-4.7-1.5-9.5-2.8-14.1
					c-2.5-9.3-7.7-16.7-16.6-21c-6.4-3.1-12.8-6.3-19.3-9.2c-11.6-5.1-23.9-7.2-36.3-8c-11.3-0.8-22.1,1.6-32.7,5.3
					c-6.7,2.3-12.1,6.2-15.6,12.4c-0.1,0.1-0.2,0.3-0.3,0.4c-0.6,0.9-1.3,1.3-2.4,1.1c-0.9-0.2-1.7-0.2-2.6-0.3
					c-4.6-0.5-8.2,1.1-11.2,4.6c-3.5,4-6.2,8.5-8,13.5c-5.5,14.7-8.1,29.9-8.4,45.5c-0.2,12,0.2,24,0.4,36c0.1,5.7-0.2,11.4,0.1,17
					c0.7,13.1,1.4,26.2,0.7,39.3c0,0.5,0,1,0.1,1.5c0.1,0,0.2,0,0.4,0.1c1.8-4,3.6-8,5.4-12.1c0.2,0.6,0.1,1-0.1,1.4
					c-2.5,7.2-5,14.3-7.3,21.6c-1.2,3.6-2.2,7.4-3,11.1c-0.5,2.3-0.3,2.7,1.9,3.7c3.2,1.4,5.8,3.6,8.2,6.1c2.1,2.2,4.3,4.3,6.5,6.4
					c3.2,3.1,6.8,3.5,10.5,1.3c2.7-1.6,5.4-3.3,7.6-5.4c11-10.3,18.8-22.6,22.9-37.1c0.5-1.9,0.6-3.9,0.6-5.9
					c-0.1-2.3-0.6-4.6-0.8-6.9c-0.1-1.1-0.6-1.6-1.5-2.2c-3.5-2.2-7.1-4.3-10.3-6.9c-9.8-8-17.2-17.8-20.7-30.2
					c0-0.2-0.2-0.3-0.5-0.8C180.1,152.8,179.7,154.9,179.4,157z M288.8,120c0.3,1.3,0.5,2.7,0.7,4c0.5,3.2,0.9,6.3,1.3,9.5
					c0.3,1.9,1.8,2.6,3.5,1.5c0.6-0.4,1.2-0.9,1.6-1.5c1-1.5,2.1-3.1,2.7-4.8c2.4-6.8,2.6-13.8,0.8-20.8c-0.4-1.7-1.3-3.3-2.2-4.7
					c-1.5-2.1-3.4-2.2-4.9-0.1c-1.2,1.6-1.9,3.7-2.8,5.5c-0.2,0.4-0.4,0.9-0.8,1.9c-0.5-1.6-0.9-2.6-1.2-3.7c-0.4-1.4-0.6-2.8-1-4.2
					c-1.7-5.7-5.7-8.3-11.6-7.6c-2.3,0.3-4.6,0.7-6.9,1c-6.2,0.8-12.3,2-18.5,2.4c-7.9,0.6-15.8-0.5-23.5-2.6
					c-12.9-3.4-23.7-9.8-31-21.3c-0.1-0.2-0.4-0.3-0.7-0.5c-0.2,3.1-0.4,6.1-0.6,9c-0.8,10.9-2.5,21.6-5.2,32.1
					c-2.1,8.1-3.8,16.4-6,24.4c-1.2,4.3-0.3,8.2,1.1,12.1c0.1,0.1,0.1,0.3,0.2,0.4c5,13,13.8,22.9,25.1,30.7
					c4.2,2.8,8.6,5.3,12.9,7.8c1.2,0.7,2.5,1.1,3.8,1.5c8.3,2.5,16.4,1.8,24-2.1c4.9-2.5,9.4-5.7,14.1-8.6c0.5-0.3,0.9-0.7,1.2-1.1
					c6.3-7.2,12.7-14.4,19-21.6c1.1-1.3,1.8-2.8,2.3-4.4c1.1-4.1,1.8-8.3,2-12.5C288.4,134.7,288.6,127.4,288.8,120z M251.1,962.4
					c-0.1,0-0.2-0.1-0.3-0.1c-0.5,5.5-1.1,11-1.5,16.5c-0.7,9.6-1.3,19.1-1.7,28.7c-0.4,8.1-0.1,16.2,0.7,24.2
					c0.7,6.7,3.9,10.4,10.4,12.2c1.9,0.5,3.9,0.8,5.9,1.1c4.6,0.6,9.3,0.2,13.9-0.5c5.8-0.9,11.7-1.7,17.5-3
					c5.4-1.1,9.5-4.4,12.8-8.8c3.5-4.7,3.5-9.9,2.2-15.4c-3.2-13.2-6.3-26.4-9.4-39.6c-0.1-0.6-0.4-1.1-0.6-1.6
					c-0.3,4.7-0.3,9.4-0.3,14c0,2.2-0.2,4.5-0.5,6.7c-0.3,2.5-1.2,3.1-3.7,2.7c-4.7-0.8-9.5-1.5-14.3-0.6c-3.9,0.8-7.8,1.7-11.7,2.6
					c-1.6,0.4-3.1,0.9-4.6,1.2c-2.3,0.5-4.2-0.3-5.6-2.2c-2-2.7-3.5-5.6-4.1-8.8c-1.2-6-2.4-12.1-3.4-18.1
					C251.9,969.8,251.5,966.1,251.1,962.4z M153.3,396.8c1.7-1.1,3.3-2,4.8-3.2c7.7-6,13.2-13.6,16.1-23c0.5-1.7,1-3.4,2.9-4.1
					c-2-2.4-3-5.1-3.8-7.9c-4.2-14-6-28.3-6.6-42.8c0-0.8-0.1-1.6-0.1-2.6c-12.7,10.7-25.1,21.1-37.6,31.5c0.3,0.5,0.6,0.9,1,1.4
					c1.4,1.6,2.9,3.2,4.3,4.9c1.2,1.5,1.2,2.5-0.3,3.7c-0.9,0.7-1.9,1.2-2.9,1.7c-1.4,0.7-2.8,1.3-4.3,2c0.1,0.4,0.2,0.6,0.3,0.8
					c3.2,4,5.1,8.6,6.3,13.6c0.9,3.8,2.2,7.5,4.6,10.7c3.3,4.4,7.4,7.7,12.7,9.3c1.6,0.5,2.5,1.3,2.4,3
					C153,396,153.1,396.2,153.3,396.8z M252.2,943.5c-0.2,3.1-0.6,5.8-0.4,8.5c0.7,6.3,1.6,12.7,2.7,19c1.3,7.2,2.8,14.3,4.3,21.4
					c0.5,2.4,1.8,4.4,3.2,6.4c1,1.5,2.3,1.8,3.9,1.4c2.2-0.7,4.4-1.3,6.7-1.9c7.6-2.1,15.3-3.2,23.2-1.3c0.5,0.1,1.1,0,1.9,0
					c0.2-1.9,0.4-3.7,0.4-5.5c0.2-7.6,0.3-15.2,0.3-22.8c0-2.1-0.3-4.3-0.7-6.4c-0.6-3.5-1.4-7-2.1-10.6c-0.9-4.9-1.7-9.9-2.6-14.9
					C279.9,940.8,266.2,942.9,252.2,943.5z M293.5,210.8c-3.2,2.1-6.2,4-9.2,6c-7.1,4.7-14.1,9.4-21.2,14.1
					c-1.3,0.8-2.1,1.8-2.1,3.5c-0.1,4.1-0.4,8.1-0.4,12.2c0,12.5,1.7,24.9,2.4,37.3c0.1,1.8,0,3.6,0,5.6c-3.9,0.9-7.7,1.9-11.5,2.8
					c-3.6,0.9-7.1,1.8-10.7,2.5c-2.2,0.4-2.4,0.2-3.1-1.9c-1.2-3.6-2.5-7.1-3.3-10.8c-2.7-12.3-5.1-24.6-7.7-36.8
					c-1.2-5.8-2.6-11.5-3.8-17.3c-0.2-0.9-0.4-1.7-1.5-1.9c-4.4-0.9-8.9-1.8-13.3-2.7c-1.4,2.2-2.7,4.2-4,6.3
					c0.7,0.2,1.1,0.3,1.4,0.4c3.4,0.9,6.8,1.9,10.2,2.8c1.7,0.5,2.5,1.5,2.8,3.2c1.1,6.4,2.4,12.7,3.5,19.1
					c2.1,12.7,4.9,25.3,9.1,37.5c1.3,3.8,2.9,7.4,4.4,11.2c11.9-1.2,23.5-3.2,35.2-4.9c0-1.4,0-2.6,0-3.8
					c-0.4-16.9-0.9-33.9-1.3-50.8c-0.1-2.5,0.4-5.1,0.5-7.6c0.1-1,0.5-1.6,1.3-2.1c2.4-1.5,4.7-3.3,7.2-4.7
					c6.8-4.1,13.8-8.2,20.6-12.2c0.7-0.4,1.3-0.8,2.1-1.4C298.4,214.2,296,212.5,293.5,210.8z M183,427.1c1.2-3.8,2.5-7.6,2.8-11.6
					c0.1-1.4-0.7-2.4-1.9-3.1c-2.9-1.7-6-2.5-9.4-1.8c-1.7,0.3-3.4,0.5-5,0.8c5.4-4.2,10.9-3.6,16.3-0.2c0-3.7,0.1-7.1,0-10.5
					c-0.1-2.3-0.8-2.9-3.1-3.2c-2.8-0.4-5.6-0.1-8.3,0.6c-1.5,0.4-2.9,0.8-4.4,1.2c1.8-2.2,4.1-3.5,6.8-3.7c2.7-0.2,5.4,0,8.2,0
					c-1.1-3.1-2.2-6.2-4.1-8.9c-0.8-1.3-2-2-3.5-2.2c-2.7-0.5-5.2,0-7.3,1.7c-2.2,1.7-4.3,3.6-6.2,5.6c-3.2,3.3-6,7-10.7,7.7
					c-0.7,14.6-1.5,29.1-2.2,43.6c0.8,0.4,1.6,0.8,2.5,1.1c5.4,2,9.9,0.7,13.4-3.9c0.9-1.2,1.6-2.6,2.5-3.8c0.3-0.5,0.7-1,1.1-1.5
					c1.4,0.7,0.9,1.5,0.6,2.3c-1.4,3.1-3.4,5.9-6.2,8c3.9,3.9,5.4,2.6,7.9,0.2c0.3-0.3,0.6-0.5,0.8-0.9c2.6-3.7,5.2-7.3,7.6-11
					c1.9-3.1,0.8-6.1-2.7-7.2c-2.5-0.8-5.1-1.1-7.7-1.5c-0.7-0.1-1.4-0.2-2.1-0.4C173.9,422.5,178.6,423.5,183,427.1z M221.4,928.7
					c-0.2,0.5-0.4,0.8-0.5,1.2c-2,6.6-3.8,13.4-6.2,19.9c-3.4,9.4-7.2,18.6-10.7,28c-1.2,3.1-2.2,6.3-3.1,9.6
					c-0.8,3,0.1,4.9,2.9,6.4c1.6,0.9,3.3,1.7,5.1,2.1c5.9,1.4,11.8,2.7,17.8,3.8c5.1,0.9,10.3,1.4,15.5,1.1c0.8,0,1.7-0.2,2.4-0.2
					c1-12,2-23.7,3.1-35.6c-1.8-0.3-3.5-0.7-5.1-0.7c-4.9-0.2-9.8-0.2-14.6-0.4c-1.6,0-3.2,0-4.8-0.2c-3.1-0.3-5.3-1.8-5.9-5
					c-0.3-1.5-0.6-3.2-0.4-4.7c0.6-5.8,2.5-11.4,4.2-16.9c0.7-2.4,1.5-4.7,2.3-7.1C222.7,929.5,222.1,929.2,221.4,928.7z
					 M334.1,504.8c0.2-0.2,0.4-0.4,0.6-0.5c0.3,0.5,0.6,1.1,1,1.5c2.7,3,5.9,5.1,9.5,6.7c2.1,0.9,4,1.9,6.1,2.9
					c1.6,0.8,2.9,1.9,4.1,3.3c3.1,3.7,6.2,7.3,9.4,10.9c1.8,2,3.6,3.8,5.5,5.7c1.6,1.6,3.6,2.7,5.9,3.1c2.2,0.4,4.4,0.6,6.4-1.2
					c-0.5-0.8-0.9-1.6-1.4-2.2c-5.8-7.4-11.6-14.7-17.2-22.1c-1.5-2-3.3-2.9-5.6-3.2c-0.6-0.1-1.1-0.2-1.7-0.3
					c-3.9-0.7-7.6-2-10.6-4.7c-1-0.9-2-1.9-3.1-2.6c-2.4-1.4-3-3.6-2.7-6.1c0.1-1,0.4-2,0.6-3c0.5,1.7,0.7,3.3,0.8,4.9
					c0.1,1.4,0.3,2.8,1.6,3.5c3.3,1.7,6.5,3.4,9.9,4.9c1.1,0.5,2.4,0.8,3.7,0.9c4.6,0.5,8.5,2.5,12.4,4.9c2.2,1.4,4.5,2.7,6.9,3.8
					c2.6,1.2,5.4,1.9,8.4,1.4c3.4-0.6,4.5-3,2.9-6c-0.5-0.9-1.5-1.7-2.4-2.2c-1.4-0.8-2.9-1.4-4.3-2c-4.5-1.9-8.3-4.8-11.2-8.8
					c-1.9-2.7-3.8-5.3-5.6-8.1c-2-3.1-3.8-6.3-5.7-9.5c-10.8,6-21.9,11.1-34,14c0.3,3.1,0.3,6,1,8.8c0.5,1.8,2.2,3.2,3.4,4.9
					c0.1,0.1,0.2,0.3,0.2,0.4c1.3,2.2,2.5,4.5,3.8,6.6c3.7,6.1,8.6,10.7,15.2,13.4c0.9,0.4,1.9,0.7,2.9,1
					C344.3,521.9,338.3,513.9,334.1,504.8z M246.2,233.8c0-0.8,0.1-1.2,0.1-1.7c-0.3-5.9,0.3-11.8,0.9-17.7c0.4-3.7,1.9-6,5.5-6.9
					c0.5-0.1,0.9-0.3,1.3-0.5c6-2.6,12-5.2,18-7.9c0.9-0.4,1.8-1,2.7-1.5c-1.2-8.4-0.2-16.5,0.9-25.1c-1.4,1.3-2.4,2.3-3.4,3.2
					c-4.6,4.2-9,8.6-13.9,12.5c-6.2,5-13.5,7.9-21.6,8.2c-6.8,0.2-13.1-1.7-19-5.1c-0.6-0.3-1.2-0.6-2.2-1.1
					c1.2,5.3,2,10.1,0.3,15.1c2.2,0.4,4,0.8,5.9,1.1c4.6,0.8,9.1,1.5,13.7,2.2c1.2,0.2,2.1,0.6,2.4,1.9c0.7,2.5,1.4,5.1,2.1,7.6
					c0.9,3.4,1.7,6.8,2.7,10.2C243.4,230.3,244.4,232.1,246.2,233.8z M280.9,389.2c-0.9,0.1-1.2,0.1-1.6,0.1
					c-4.2,0.6-8.3,1.5-12.5,1.9c-13.3,1.5-25.9-1.1-38-6.7c-5.7-4-12.4-6.2-18.6-9.2c-6.3-3.1-12.4-6.6-18.6-9.9
					c-1.3-0.7-2.7-1.4-4.1-2.1c-0.5,1.3-0.8,2.4-1.3,3.5c-0.5,1-0.3,1.8,0.4,2.6c0.5,0.5,1,1,1.5,1.5c8.2,8,17.7,14.2,28.5,18.2
					c19.1,7.1,39,9.8,59.2,10.5c0.4,0,0.8-0.1,1.4-0.2C276.1,395.3,278.6,392.4,280.9,389.2z M143.9,476c0.3-1.1,0.5-1.6,0.6-2.3
					c1.6-7.7,2.9-15.4,3.2-23.2c0.1-2.5,0.1-5,0.3-7.4c1.3-15,1.9-30,2.3-45c0-0.9,0-1.7,0-2.5c-1.6-0.6-3-1.1-4.3-1.6
					c-0.1,0-0.2,0-0.5,0c-6,25.8-9.8,51.9-10.5,78.8C137.9,473.9,140.8,474.9,143.9,476z M180.2,299.7c-0.2,0-0.4,0-0.5,0.1
					c-3.6,3.6-7.2,7.3-10.8,10.9c-0.6,0.6-0.8,1.3-0.7,2.1c0.6,5.6,1.1,11.1,1.7,16.7c1.1,9.3,2.8,18.5,5.4,27.5
					c0.6,2.2,1.4,4.5,2.5,6.5c1.6,3,3.6,5.8,5.6,9c0.2-1.1,0.7-2,0.5-2.7c-0.6-1.5-0.2-2.8,0.3-4.2c0.5-1.2,1-2.5,1.5-3.8
					c-0.9-0.8-1.7-1.5-2.6-2.3c-0.8-0.7-1.7-1.5-2.5-2.2c-2.1-2-2.4-3.4-1.1-6c0.7-1.5,1.6-2.9,2.6-4.3c1.9-2.7,3.2-5.7,3.7-9
					c0.8-5.9,0.5-11.8-0.9-17.6c-1-4.2-2.2-8.3-3.2-12.5C181.1,305.2,180.7,302.4,180.2,299.7z M248.1,962.8
					c0.8-6.4,1.5-12.7,2.3-19.1c-0.4-0.1-0.7-0.2-1-0.2c-2.8-0.2-3-0.5-3-3.4c0-1.3,0-2.5,0-3.8c-3.7-0.5-7.2-0.7-10.6-1.4
					c-3.4-0.8-6.7-2.1-10.1-3.2c0,0-0.2,0.2-0.3,0.4c-2.2,6.9-4.6,13.8-5.8,21c-0.3,1.7,0,3.6,0.3,5.4c0.2,1.5,1.3,2.4,2.8,2.5
					c1.5,0.2,3,0.3,4.5,0.4c5.2,0.2,10.4,0.3,15.6,0.5C244.6,961.9,246.3,962.5,248.1,962.8z M120.4,450.2c5-1.8,9.7-3.4,13.9-6
					c2.1-1.3,2.1-2.1,0.6-4c-3-3.6-5.9-7.3-8.9-10.9c-0.5-0.7-1-1.4-1.6-2.1c-4.8,2-9.5,3.9-14.4,5.9
					C113.6,438.9,117,444.5,120.4,450.2z M229.6,252.3c6.3,2.5,12.2,4.7,17.9,6.9c3.8-2.9,7.3-5.7,10.8-8.5c1.3-1,1.3-2.6-0.1-3.6
					c-1.8-1.3-3.7-2.5-5.5-3.8c-1.7-1.2-3.3-2.4-4.9-3.6C241.8,243.9,235.9,247.9,229.6,252.3z M248.7,279.9
					c4.2-4.3,10.7-12.8,11.3-14.9c-4-1.5-8-2.9-12-4.4c-4.8,3.7-9.5,7.4-14.3,11.2C238.8,274.6,243.7,277.2,248.7,279.9z
					 M389.9,516.6c2.9-0.2,5.7-0.3,8.3-0.7c3.6-0.5,7.3-1.1,10.8-2c2-0.5,2.9-1.7,2.9-3.1c-0.1-1.9-1.7-2.2-3-2.6
					c-3-0.7-6.1-1.3-9.1-1.9c-8.5-1.6-17-3.2-25-6.5c-0.1-0.1-0.3,0-1,0.1c1.9,1.3,3.3,2.5,4.9,3.3c2,1.1,4.2,2,6.3,3
					C389.5,508.5,390.9,511.2,389.9,516.6z M265.2,204.9c-4.7,1.8-9.1,3.6-13.5,5.3c-0.9,0.4-1.7,0.9-1.8,2c0.1,0.1,0.1,0.3,0.2,0.4
					c4.7,4.5,9.4,9.1,14.1,13.6c0.6,0.5,1.2,1,1.8,0.4c0.4-0.4,0.6-1.1,0.6-1.6c-0.2-2.7-0.6-5.4-0.8-8.1
					C265.6,213.1,265.5,209.2,265.2,204.9z M264.1,227.8c-4.8-4.8-9.5-9.4-14.5-14.4c-1.1,8.2-1.7,15.8-1.1,23.8
					C253.8,233.9,258.8,231,264.1,227.8z M108.7,455.2c7.5,7.3,16,12.5,25,17c0.6-1.2-0.1-1.8-0.6-2.5c-4-5.5-7.9-11-11.9-16.5
					c-0.3-0.4-0.7-0.8-1.1-1.3C116.3,453,112.7,454,108.7,455.2z M279.1,197.8c-3.8,2.1-7.5,4.1-11.4,6.2c4.5,4.6,9.1,8.7,14.1,12.5
					c1.4-0.9,2.6-1.7,4-2.6C283.5,208.4,282.5,202.6,279.1,197.8z M340.1,456.1c-1.8,6.3-3.6,12.3-5.4,18.3
					c4.5-1.3,17.9-7.7,19.6-9.5C349.6,462,344.9,459.1,340.1,456.1z M121.7,451.7c2.6,4.7,10.4,15.4,12.2,16.6
					c0.6-7.7,1.1-15.4,1.6-23C130.9,447.4,126.3,449.5,121.7,451.7z M341.1,512.6c0.1,0.5,0.1,0.7,0.1,0.8c3.6,5.3,7.4,10.4,12,14.9
					c2.9,2.8,6,5.3,9.7,6.9c1.7,0.7,3.3,1.4,5.3,1.3c-0.1-0.3-0.1-0.4-0.2-0.5c-4.9-5.6-9.8-11.2-14.7-16.7
					c-0.4-0.4-0.7-0.9-1.2-1.2C348.5,516.3,344.9,514.5,341.1,512.6z M267.9,225.7c4.4-2.9,8.5-5.7,12.7-8.5
					c-4.7-4.3-9.2-8.5-13.7-12.7c0,0-0.2,0-0.2,0c-0.1,0-0.1,0.1-0.4,0.2C266.2,211.6,266.8,218.5,267.9,225.7z M108.1,454.4
					c3.6-1.2,7.4-2.5,11.2-3.8c-3.3-5.7-6.5-11.2-9.7-16.7c-0.3,0.3-0.4,0.4-0.4,0.5c-0.9,5.7-1.7,11.4-2.6,17
					C106.3,452.9,106.7,453.8,108.1,454.4z M123.6,426.4c-2.9-4.9-5.8-9.6-8.7-14.5c-2.1,6.5-3.9,13-5.3,20.2
					C114.5,430.2,119,428.3,123.6,426.4z M246.5,260.1c-5.6-2.2-10.8-4.2-16.4-6.4c1.2,5.9,2.3,11.4,3.5,17.2
					C238,267.2,242.1,263.8,246.5,260.1z M239,292.1c3.2-3.9,6.1-7.5,9.2-11.3c-4.9-2.8-9.4-5.4-14.3-8.3
					C234.9,279.3,236.7,285.4,239,292.1z M132.2,404c1.9,5,4.2,9.7,7.2,14.6c1.7-7.7,3.2-14.8,4.8-22.3
					C140,399,136.2,401.4,132.2,404z M223.4,225.2c3.9-4.8,7.6-9.4,11.7-14.4c-4.8-0.6-9-1.7-13.4-2.1c0.2,5.1,0.4,9.9,0.5,14.7
					C222.3,224.2,222.2,225,223.4,225.2z M249.2,281.3c-3.3,3.9-6.4,7.7-9.5,11.4c0,0,0,0.2,0,0.2c0,0.1,0.1,0.1,0.2,0.5
					c7.2-1.7,14.4-3.4,21.6-5.1c0-0.2,0-0.3,0-0.5C257.4,285.6,253.4,283.5,249.2,281.3z M260.3,267.8c-0.1,0-0.3-0.1-0.4-0.1
					c-3.3,4.2-6.6,8.4-10,12.7c4,2.2,7.7,4.2,11.9,6.5C261.2,280.3,260.8,274.1,260.3,267.8z M356.7,443.2
					c0.9-5.6,1.7-10.8,2.5-16.2c-4.4,3.2-8.4,6.2-12.6,9.3C349.9,438.4,353.1,440.6,356.7,443.2z M258.9,246.4
					c0.4-5.3,0.7-10,1-14.9c-4,2.4-7.9,4.8-12.3,7.4C251.6,241.4,255.1,243.8,258.9,246.4z M178.5,382.1c1.9-2.3,3.9-4.9,2.7-8.6
					c-0.7-2.1-1.4-4.1-3.8-4.9c-2.1,4.8-4.1,9.5-6,14C173.6,382.4,176,382.3,178.5,382.1z M318.4,446.6c-0.4,3.6,0.5,15.5,1.4,17.9
					c2-6.6,4.1-12.8,5.8-19.5C323,445.6,320.8,446.1,318.4,446.6z M259.9,264.1c-0.2-2.5-0.3-4.6-0.5-6.6c-0.1-2-0.2-4-0.3-6.5
					c-3.6,3.1-6.7,5.8-10.1,8.7C252.7,261.2,256.1,262.6,259.9,264.1z M219.5,208.1c-1.6-0.4-2.8-0.8-3.8-1.1
					c-2.1,4.6-4.1,8.9-6,13.3c-0.3,0.6-0.2,1.3-0.3,2.1c1.4,0.2,2.5,0.4,3.9,0.6C215.3,218.1,217.4,213.2,219.5,208.1z M220.3,208.2
					c-2.1,5.1-4.1,10-6.2,14.9c0.6,0.2,1.1,0.3,1.5,0.4c1.8,0.3,3.6,0.6,5.4,1C221.6,221.4,221.2,211.2,220.3,208.2z M132.3,377.7
					c-2.1,2.5-4,5.2-5.6,8c2.7,0.7,7.8,0.7,9.5,0.1C134.9,383.2,133.7,380.6,132.3,377.7z M298.8,382.8c0,0.2-0.1,0.3-0.1,0.5
					c2.8,0.6,5.7,1.2,8.5,1.8c1.3-2.9,2-5.5,2.4-8.4C305.9,378.8,302.4,380.8,298.8,382.8z M292.1,209.8c-3.1-2.3-5.9-4.3-8.7-6.3
					c0.7,3.4,1.9,6.5,3.3,9.8C288.6,212.1,290.2,211.1,292.1,209.8z M276.5,193c0.2,1.2,0.3,1.9,0.4,2.8
					C278.3,194.8,277.8,194.2,276.5,193z"/>
				<path class="st0" d="M127,338.8c0.1-0.7-0.4-1.1-0.9-1.5c-2-1.6-4.1-3.1-6-4.8c-3.2-3-7.1-4-11.3-3.5c-4.4,0.5-8.7,1.1-13,1.9
					c-4.1,0.8-8,2-12.1,3.1c-0.6,0.2-1.2,0.5-2.3,1c0.8,0.4,1.2,0.6,1.5,0.6c8.7-0.6,17,1.7,25.1,4.3c7,2.2,13.5,5.3,19.9,8.8
					c1.7,1,3.4,2.1,4.7,4c-1,0.6-1.9,1.2-2.9,1.7c-1.3,0.6-2.6,1.2-3.9,1.8c-2.4,1.1-2.5,1.7-0.9,3.7c0.3,0.4,0.7,0.9,1,1.3
					c2.1,2.7,3.5,5.7,4.5,9c0.1,0.4,0.2,0.8,0.2,1.2c0,0.1-0.1,0.3-0.2,0.5c-0.4-0.5-0.7-0.9-1.1-1.3c-0.9-1.1-1.9-2.2-2.8-3.3
					c-2.9-3.2-6.4-4.5-10.7-4.2c-7.2,0.4-14.1,1.7-20.9,3.8c-4.3,1.3-8.4,2.9-13.2,4.5c5.4-4.9,11-8.8,16.1-13.2
					c-2.2,1-4,2.4-5.9,3.7c-1.9,1.4-3.7,2.7-5.6,4.2c-1.9,1.5-3.8,3-5.6,4.6c-1.7,1.5-3.7,2.7-4.9,4.7c1.2,0.9,2.1,0.2,2.9-0.2
					c8.2-4.3,17-7,26-8.8c3.9-0.8,7.9-1.1,11.9-1.5c3-0.3,5.7,0.6,8,2.6c2.9,2.5,5.5,5.3,7.7,8.5c-1.5,1.9-3,3.6-4.3,5.5
					c-5.9,8.2-10,17.3-13.4,26.7c-4.6,12.9-7.6,26.2-9.3,39.8c-0.1,0.9-0.3,1.7-0.5,3c-0.8-0.8-1.4-1.4-2-2
					c-6.2-6.9-11.3-14.5-16-22.4c-2.9-4.9-5.5-9.9-8.2-14.9c-2.7-5-4.9-10.2-6.6-15.7c-3-9.1-6.1-18.2-9-27.3
					c-1.1-3.6-1.6-7.3-2.2-11c-0.1-0.8,0-1.8,0.5-2.4c5-6.2,10-12.5,15.2-18.6c11.1-13.2,22.2-26.3,33.3-39.4c2.6-3.1,5-6.5,7.5-9.7
					c0.7-0.9,1.4-1.7,2.2-2.6c7.5-8.4,15.1-16.8,22.4-25.4c6.3-7.4,11.7-15.4,16-24.2c0.1-0.3,0.3-0.5,0.6-0.9
					c1.9,0.9,3.6,2.1,5,3.6c2.4,2.5,4.8,5.1,7.4,7.5c5.1,4.7,8.9,5.1,15,1.8c3.5-1.9,6.5-4.4,9.2-7.2c2.9-3,5.6-6.2,8.5-9.4
					c3.7,1.1,7.6,2.3,11.6,3.3c1.6,0.4,1.8,1.6,2,2.9c1.6,9.4,3.3,18.9,5,28.3c1.8,10.1,4.5,19.9,8,29.6c1,2.9,2.3,5.6,3.5,8.4
					c0.9,2.1,1,2.2,3.2,2c4.2-0.4,8.4-0.9,12.6-1.5c6.9-1,13.7-2.1,20.6-3.3c2.3-0.4,2.4-0.5,2.3-2.8c-0.1-3.6-0.4-7.2-0.5-10.8
					c-0.3-9.4-0.6-18.7-0.9-28.1c-0.1-3.4-0.4-6.7-0.4-10.1c0-3.6,0.3-7.2,0.4-10.8c0-1.3,0.6-2.2,1.8-2.8c5.9-3.5,11.8-7,17.7-10.6
					c3.7-2.2,7.5-4.3,11.2-6.6c1.1-0.7,1.9-0.7,3-0.1c6.1,3.5,12.2,6.9,18.4,10.4c0.7,0.4,1.4,0.9,1.9,1.4c3.7,3.6,6.7,7.7,7.6,13
					c1.9,11.2,4.5,22.3,5.1,33.6c0.2,4,0,8-0.5,12c-1.1,9.7-2.3,19.4-3.7,29c-1,6.6-2.4,13.1-3.6,19.6c-0.1,0.5-0.2,1.1-0.1,1.7
					c2.5-8,4.6-16.2,5.7-24.5c1.1-8.3,1.9-16.6,3-24.9c0.3,4.4,0.7,8.7,1,13.1c0.4,5.4,0.8,10.8,1.1,16.3c0.1,1.1,0,2.1-0.5,3.2
					c-0.6,1.3-0.8,2.9-0.9,4.4c-0.3,5.1-0.3,10.2-0.7,15.3c-0.6,6.9-1.2,13.9-2.4,20.7c-0.9,5.4-2.6,10.7-4,16
					c-0.1,0.4-0.2,0.7,0.1,1.3c0.3-0.7,0.7-1.4,1-2.1c3.5-7.3,5-15.1,5.8-23.1c1-10,1.6-19.9,1.8-30c0.2,2,0.5,4.1,0.7,6.1
					c0.2,2.1,0.4,4.3,0.5,6.5c0.2,12.2,0.9,24.4,2.8,36.6c2.5,16.5,7.1,32.5,13.8,47.8c0.4,0.9,0.7,1.8,1.1,2.7
					c-11.9,10.7-25.5,17.7-41.3,21.2c-0.2-0.8-0.3-1.4-0.4-2.1c-1-10.9-1.9-21.8-2.8-32.7c-0.3-3.6-0.4-7.2-0.4-10.8
					c0-2.5-0.9-4.1-3.4-4.7c-0.4-0.1-0.7-0.3-1.3-0.6c2.2-3,2.7-5.9-0.7-8.4c1.4-3.3,2.2-6.7,2.3-10.1c0-0.6,0.5-1.3,1-1.7
					c1.1-1.1,2.3-2,3.4-3c1.1-1,1.5-2.3,0.8-3.7c-0.8-1.8-1.6-3.7-2.5-5.4c-1.9-3.7-3.9-7.3-5.9-11c-2.4-4.4-3.8-9.1-3.7-14.2
					c0.2-7.5,0.7-15,0.8-22.5c0.1-3.5,0.9-6.7,2-9.9c2.2-6.3,2.8-13,2.9-19.6c0.2-7.8-0.1-15.7-0.8-23.5c-0.1-0.9-0.3-1.8-0.5-2.8
					c-0.2,0-0.3,0-0.5,0c-0.1,1-0.2,2-0.2,3.1c-0.1,7-0.1,14.1-0.2,21.1c-0.1,6.3-0.6,12.6-2.3,18.8c-1.2,4.4-3,8.6-5.2,12.6
					c-2.3,4.2-4.5,8.5-6.5,12.9c1.1-1.4,2.2-2.7,3.2-4.1c1.2-1.5,2.3-3.1,3.4-4.7c1-1.5,2-3.1,3.2-4.6c-0.3,2.1-0.5,4.3-0.8,6.4
					c-0.8,6-1.1,11.9-0.9,18c0.1,4.5,1.1,8.7,3.2,12.7c2.4,4.5,4.8,9,7.2,13.5c0.8,1.5,1.5,3,2.2,4.5c-0.2,0.4-0.4,0.7-0.6,0.9
					c-3.8,3.2-7.4,6.6-12.1,8.5c-1.3,0.5-2.7,1.2-3.8,2c-1.9,1.4-3.7,1.3-5.8,0.8c-15.7-3.6-31.5-5.2-47.6-4.6
					c-2.7,0.1-5.4,0.4-8.1,0.6c-1,0.1-2,0.3-3,0.9c0.8,0,1.6,0.2,2.4,0.1c8.7-0.7,17.4-0.8,26.1-0.3c8.7,0.5,17.3,1.7,25.9,3.2
					c2,0.4,4,0.7,6.1,1.5c-0.8,0.4-1.6,0.9-2.5,1.2c-11.4,3.5-22.9,6.1-34.9,5.7c-10-0.4-19.4-2.8-28.4-7.2c-4-2-7.5-4.9-10.7-8
					c-3.1-2.9-6.1-5.9-9.4-8.6c-4.9-4.1-10.6-6.8-16.8-8.5c-1-0.3-2-0.4-3-0.5c0,1.3,0.9,1.3,1.5,1.5c2.4,1.1,4.9,2,7.3,3.1
					c7.4,3.4,13.3,8.7,18.9,14.7c-0.5-0.1-0.7,0-0.9-0.1c-7.9-3.9-15.8-7.8-23.6-11.7c-1-0.5-1.9-1.4-2.8-2.1
					c-2.1-1.8-4.2-3.7-6.3-5.6c-1.9-1.7-2-2.3-0.7-4.5c0.6-1,1.2-1.9,1.9-2.8c2.9-3.8,4.6-8.1,4.7-12.9c0-4.3-0.3-8.6-0.4-12.9
					c0-0.5-0.1-0.9,0.3-1.6c1.7,3.3,3.3,6.6,5,10c0.1-0.1,0.3-0.1,0.4-0.2c-0.2-0.7-0.5-1.5-0.7-2.2c-2.5-6.4-5-12.8-7.6-19.2
					c-1.7-4.1-2.6-8.4-2.7-12.8c-0.1-7.2,0.1-14.4,0.2-21.6c0-2.2,0.2-4.3,0.1-6.5c0-1.2-0.3-2.3-0.4-3.7c-1.3,0.7-1.2,1.7-1.3,2.5
					c-0.3,3.1-0.7,6.2-0.9,9.3c-0.3,5.8-0.5,11.7-0.6,17.5c0,1.4-0.4,2.3-1.4,3.3c-10.1,10.8-21.6,20-32.8,29.5
					c-6,5.1-12.1,10-18.1,15c-1.8,1.5-1.9,1.8-0.5,3.7c0.3,0.5,0.6,0.9,0.9,1.5c-11.9-7.3-24.7-11.8-38.9-13.5
					c0.8-0.4,1.3-0.6,1.7-0.7c5.9-1.5,11.9-2.6,17.9-3c3.8-0.3,7.2,0.6,10.3,3c2.2,1.7,4.7,3,7.1,4.5
					C126.5,338.2,126.7,338.5,127,338.8c0.5,0,1,0,2.1,0c-2.8-6.5-6.2-12.2-9.8-17.8c0.1,0.7,0.3,1.4,0.6,2c2.3,4.5,4.7,9,7.1,13.6
					C127.4,337.3,127.9,338,127,338.8z M216.4,307.6c3-0.4,6-0.7,9-1.1c1.4-0.2,1.6-0.6,1.3-2.2c-0.6-3.1-1.1-6.3-1.9-9.4
					c-3.3-12.8-6.5-25.7-9-38.7c-0.6-3.2-1.4-6.4-1.6-9.7c-0.2-3.4,0.2-4.2-3.9-3.3c-1.7,0.4-3.5,0.4-5.2,0.7
					c-1.3,0.2-1.8,0.9-1.3,2.2c0.4,1.2,0.6,2.5,0.6,3.7c0.4,7.6,0.9,15.2,2.4,22.6c2.1,10.4,4.4,20.8,6.6,31.2
					c0.2,0.9,0.4,1.7,0.7,2.5C214.5,307.2,215.3,307.8,216.4,307.6z M292.7,239.4c-1-0.1-1.9-0.3-2.9-0.3c-1.9-0.1-3.8-0.1-5.8-0.1
					c-2.1,0-2.2,0-2.4,2c-0.3,2.9-0.4,5.9-0.6,8.8c-0.6,7.7-1.3,15.4-1.6,23.2c-0.3,6.7-0.4,13.4-0.4,20.1c0,2.4,0.3,4.9,0.9,7.6
					c3-0.4,5.9-0.8,8.7-1.2c1-0.1,1.5-0.8,1.5-1.9c0-0.9,0-1.8,0-2.6c0.2-5.3,0.4-10.5,0.8-15.8c0.3-4.5,0.8-9.1,1.1-13.6
					c0.3-4.8,0.6-9.6,0.8-14.4C292.8,247.4,292.7,243.6,292.7,239.4z M304.2,370.6c-1.7,0.2-2.9,0.3-4.1,0.4
					c-5.7,0.3-11.3-0.3-17-1.2c-13.3-2.1-26.5-5-39.6-8.2c-16.3-3.9-32.6-8-48.9-12c-0.6-0.1-1.2-0.2-1.8-0.3c0,0.2-0.1,0.3-0.1,0.5
					c1.5,0.5,3,1.1,4.5,1.5c23.7,6.8,47.6,13.1,71.8,18.1c7.4,1.5,14.9,2.9,22.5,3.3C295.7,373,299.8,372.8,304.2,370.6z M230,342.2
					c0,0.1-0.1,0.2-0.1,0.3c0.7,0.3,1.4,0.7,2.1,0.9c12.8,4.8,25.7,9.7,38.6,14.4c11.9,4.3,23.9,8.1,36.3,10.5
					c0.9,0.2,1.8,0.1,2.9,0.2c-1-1.5-1-1.4-2.6-1.9c-7.5-2-15-3.7-22.4-6.1c-17.5-5.7-34.9-11.7-52.4-17.6
					C231.6,342.6,230.8,342.4,230,342.2z M336.2,331.4c-1,1.7-2,3.4-2.9,5.1c-0.9,1.7-2,3.3-2.7,5c-0.7,1.7-2.3,2.7-3,4.4
					c-0.7,1.7-1.4,3.5-2.2,5.2C329.8,345,333.7,338.6,336.2,331.4z M113.8,351.2c-0.1,0.1-0.2,0.3-0.3,0.4c1.1,0.8,2,1.9,3.6,1.7
					C116,352.6,114.9,351.9,113.8,351.2z"/>
				<path class="st1" d="M241.6,532.8c1.3,0,2.3,0,3.3,0c10.9,0.5,21.9,1.1,32.8,1.4c5,0.1,10.1-0.1,15.1-0.5
					c9.3-0.8,18.2-3.4,26.6-7.6c0.1-0.1,0.3,0,0.7-0.1c0.1,0.3,0.2,0.7,0.2,1c0.3,20.6,0.7,41.3,0.7,61.9c0,13.9-0.3,27.8-0.9,41.7
					c-0.8,18.1-2.5,36.2-5.6,54.1c-0.6,3.4-1.4,6.7-2.3,10.1c-1,3.9-1.6,7.8-1.7,11.8c-0.2,8.3-0.3,16.6-0.9,24.9
					c-0.6,7.7-1.8,15.4-2.9,23.1c-1.5,9.9-3,19.8-4.7,29.6c-2.4,13.5-4.9,27.1-7.4,40.6c-1.6,8.6-2.4,17.3-2.3,26
					c0,9.3-0.1,18.6,1.1,27.8c1,8,2.3,16,3.6,23.9c1.4,8.2,2.5,16.4,2.3,24.8c0,1.8-0.6,3.2-2.1,4c-2.6,1.3-5.3,2.7-8,3.7
					c-6.5,2.2-13.3,3.4-20.1,4.3c-5.9,0.8-11.8,1-17.7,1.5c-0.6,0.1-1.3,0-2.1,0c-0.1-0.8-0.2-1.5-0.2-2.2
					c-0.5-23.6-0.9-47.2-1.6-70.8c-0.3-9.7-1.3-19.5-2-29.2c-0.5-7.5-1.1-15-1.5-22.5c-0.5-7.7-1-15.3-1.3-23
					c-0.2-5.9-0.1-11.8,0-17.8c0-2.8,0.3-5.6,0.2-8.4c-0.3-10.4,1.1-20.6,4-30.5c2.6-9,4.3-18.2,5-27.6c0.3-4.4,0-8.8-0.4-13.2
					c-1.1-11.7-2.7-23.4-3.7-35.1c-1.5-17.5-2.6-35.1-3.9-52.6c-1.9-24.5-2.2-49-2.2-73.6C241.5,534,241.6,533.5,241.6,532.8z
					 M263.3,714.6c0.1-0.2,0.3-0.5,0.4-0.7c0.8,0,1.6-0.2,2.3,0c2.2,0.6,4.5,1.2,6.6,2c3.8,1.3,7.6,2.6,11.6,2.8
					c9.5,0.4,16.6-3.7,21.9-11.4c0.3-0.4,0.4-1,0.6-1.6c-0.7,0.4-1.1,0.8-1.5,1.3c-7.7,8.8-17.1,12.3-28.6,9.1
					c-2.5-0.7-4.9-1.6-7.3-2.2c-1.5-0.4-3.1-0.8-4.7-1c-2-0.2-2.9,1.1-2,2.8c0.8,1.5,1.8,2.9,2.9,4c5.5,5.7,12.2,9.3,19.8,11.2
					c5.1,1.3,10.3,1.5,15.4,0.3c0.5-0.1,1-0.2,1.5-0.2c0.1,0.1,0.2,0.2,0.3,0.4c-2.3,2.8-4.6,5.6-6.9,8.3c4.1-2.3,8.4-7.7,8.4-10.4
					c-0.5,0-1.1,0-1.6,0.2c-4.7,1.4-9.5,1.4-14.2,0.5c-8.7-1.6-16.3-5.5-22.5-12C264.8,717,264.1,715.8,263.3,714.6z"/>
				<path class="st1" d="M160,513c3.9,0.9,7.5,1.7,11.1,2.7c9.6,2.7,19.2,5.6,28.7,8.4c12.7,3.8,25.6,6.9,39.1,8.3
					c0,0.9,0.1,1.8,0.1,2.6c0,5.5,0.1,11,0.1,16.6c0,15.7,0.5,31.3,1.5,47c1,16,2.1,32.1,3.4,48.1c0.8,10.2,1.8,20.4,2.8,30.6
					c0.4,3.9,1,7.8,1.5,11.7c1.2,10.2,1.7,20.4-0.4,30.5c-1.5,7-3,13.9-4.7,20.8c-1.6,6.2-2.7,12.5-2.8,18.9
					c-0.1,11.4-0.6,22.7-0.2,34.1c0.5,14.5,1.5,28.9,2.7,43.3c1.5,18.3,2.5,36.5,2.6,54.9c0.1,11.7,0.6,23.3,0.9,35
					c0.1,2.3,0,4.6,0,7.1c-5-0.4-9.7-0.7-14.1-2.3c-4.3-1.5-8.1-3.8-11.6-6.6c-1.6-1.3-2.6-2.7-1.9-4.9c0.7-2.2,1.1-4.5,1.8-6.7
					c1.6-5.4,2.7-10.9,2-16.6c-0.6-5.3-1.4-10.6-2.4-15.9c-4.3-22.5-8.7-45-13.2-67.5c-2.8-14.3-5.9-28.5-8.9-42.7
					c-1.3-6.6-2.5-13.2-3.8-19.8c-0.1-0.5-0.2-1.1-0.2-1.7c-0.6-21.3-1.3-42.7-1.9-64c-0.1-3-0.1-6.1-0.1-9.1c0-1.7,0.4-3.3,0.5-5
					c0.1-1.3,0.2-2.7,0-4.1c-1.3-9.4-2.2-18.9-4-28.2c-1.6-7.9-4.1-15.6-6.4-23.3c-6.2-21.2-12.3-42.5-16.8-64.2
					c-2.4-11.8-4.3-23.8-5.4-35.8C160,514.5,160,513.9,160,513z M196,670.1c1.1,1.1,2.3,0.9,3.3,0.8c7.4-0.5,14.8-1.1,22.2-1.7
					c2.6-0.2,5.1-0.5,7.7-0.7c0,0.2,0.1,0.3,0.1,0.5c-0.8,0.5-1.6,1-2.4,1.4c-7.9,4.1-15.7,8.2-23.6,12.4c-0.4,0.2-0.9,0.4-1.3,0.7
					c-2,1.2-2.2,2.3-0.5,3.9c0.9,0.8,1.8,1.6,2.8,2.3c8.8,6.4,18,12.2,27.4,17.7c0.3,0.2,0.7,0.3,1,0.5c-0.2-0.5-0.5-0.8-0.8-1.1
					c-4.6-3.2-9.2-6.4-13.8-9.6c-4.6-3.2-9.2-6.3-13.8-9.5c-0.9-0.6-1.6-1.4-2.5-2.3c1-0.6,1.7-1,2.4-1.3
					c7.9-4.2,15.9-8.3,23.8-12.5c1-0.5,2-1,2.9-1.7c0.6-0.4,1.2-1.2,1.2-1.9c0-1-1.1-1-1.9-1.1c-0.9,0-1.8,0-2.6,0
					c-7.4,0.7-14.8,1.5-22.2,2.3C202.4,669.6,199.3,669.8,196,670.1z"/>
				<path class="st0" d="M288.3,447.6c0.7,6.8,1.5,13,1.3,19.3c0,1.5-0.1,3-0.1,4.6c0,1.7,0.3,2.1,1.9,2.1
					c6.6,0.1,13.1,0.5,19.6-0.8c2.7-0.6,3-0.9,2.8-3.7c-0.4-6.4-0.6-12.8-1.3-19.1c-1.3-12.2-2.7-24.3-4.2-36.4
					c-0.2-2-0.9-4-1.4-6.1c-0.1-0.3-0.1-0.7-0.3-0.9c-2-1.7-0.9-3.5-0.2-5.2c0.7-1.7,1.5-3.3,2.4-5.1c1,0.4,1.8,0.7,2.6,1
					c0.9,0.3,1.2,1,1.2,1.9c0,14,2.4,27.9,3,41.9c0.4,8.9,1,17.7,1.9,26.5c0.6,6.1,1.9,12.2,3,18.2c1.5,8.6,2.7,17.2,3.2,25.9
					c0.1,2.2,0.3,4.3,0.6,6.4c0.2,1.5-0.3,2.5-1.4,3.3c-1.6,1-3.2,2.1-5,2.9c-7.9,3.9-16.2,6.1-25,7.3c-6.9,0.9-13.7,0.7-20.6,0.3
					c-8.5-0.4-16.9-0.9-25.4-1.3c-13-0.7-25.7-3-38.2-6.6c-11.9-3.4-23.8-6.9-35.7-10.3c-6.8-2-13.8-3.5-20.9-3.9
					c-0.2,0-0.5-0.1-0.8-0.2c2.8-20.7,6.1-41.4,7.4-62.2c1.7-0.4,3.2-0.7,5-1.2c0.6,0.6,1.2,1.4,2,2.1c2.2,2,4.3,2.2,6.7,0.5
					c1.2-0.8,2.2-1.8,3.2-2.9c3-3.4,5.4-7.2,7.3-11.2c0.5-0.9,0.9-2,0.9-3c-0.1-1.8,0.7-3.2,1.3-4.8c1-3.1,2-6.2,2.7-9.4
					c0.4-1.7,0-3.5,0.1-5.2c0.2-6.6,0.6-13.1-1.7-19.5c-1.3-3.5-2.6-6.9-5.6-9.6c2.8-3.2,3.7-7.2,5.2-11.1c0.5,0.4,0.8,0.6,1.1,0.8
					c12,12.1,26.8,19.2,43.1,23.3c12.5,3.1,25.2,5,38.1,5.6c3.3,0.1,6.5,0,9.9,0c1,1.4,2,3.1,3.2,4.5c1.2,1.4,2.7,2.7,4,3.9
					c0.7,9.3,1.5,18.7,2.3,28.4c-26-5.2-51.2-12.5-76.5-19.6c25.1,8.4,50.5,15.8,76.7,20.8c0.2,1.3,0.4,2.6,0.5,3.8
					c0.1,1.2,0.2,2.4,0.3,3.7c-0.8,0.1-1.4,0.2-2,0.2c-7.1,0.1-14.2,1.2-21.2,2.2c-15.4,2.1-30.7,4.1-46.1,6.1
					c-6.7,0.9-13.3,1.6-20,2.3c-1.1,0.1-2.2,0.1-3.3,0.5c0.8,0,1.6,0,2.4,0c14-0.9,28.1-2,42-4.1c11.5-1.7,22.9-3.6,34.4-5.2
					C278.8,448.3,283.4,448.1,288.3,447.6z M189.8,458.5c0,0.1-0.1,0.1-0.1,0.2c1,0,1.9,0,2.9,0c0-0.1,0-0.1,0-0.2
					C191.6,458.5,190.7,458.5,189.8,458.5z M185.7,459.1C185.7,459.1,185.7,459.1,185.7,459.1c-0.3-0.1-0.6-0.1-0.9-0.1
					c0,0,0,0,0,0.1C185.1,459.1,185.4,459.1,185.7,459.1z"/>
				<path class="st2" d="M179.4,157c0.4-2.1,0.8-4.2,1.2-6.6c0.3,0.5,0.4,0.6,0.5,0.8c3.5,12.4,10.9,22.1,20.7,30.2
					c3.2,2.6,6.8,4.7,10.3,6.9c0.9,0.6,1.4,1.1,1.5,2.2c0.2,2.3,0.7,4.6,0.8,6.9c0.1,2,0,4-0.6,5.9c-4.1,14.5-11.9,26.8-22.9,37.1
					c-2.2,2.1-4.9,3.8-7.6,5.4c-3.7,2.2-7.3,1.9-10.5-1.3c-2.2-2.1-4.4-4.2-6.5-6.4c-2.4-2.6-5-4.7-8.2-6.1c-2.2-1-2.5-1.4-1.9-3.7
					c0.9-3.7,1.9-7.4,3-11.1c2.4-7.2,4.9-14.4,7.3-21.6c0.1-0.4,0.2-0.9,0.1-1.4c-1.8,4-3.6,8-5.4,12.1c-0.1,0-0.2,0-0.4-0.1
					c0-0.5-0.1-1-0.1-1.5c0.7-13.1,0-26.2-0.7-39.3c-0.3-5.7-0.1-11.4-0.1-17c-0.1-12-0.6-24-0.4-36c0.3-15.6,3-30.8,8.4-45.5
					c1.9-5,4.5-9.5,8-13.5c3-3.5,6.6-5.1,11.2-4.6c0.9,0.1,1.8,0.1,2.6,0.3c1.1,0.2,1.9-0.2,2.4-1.1c0.1-0.1,0.2-0.3,0.3-0.4
					c3.5-6.2,8.9-10.1,15.6-12.4c10.6-3.7,21.4-6.1,32.7-5.3c12.5,0.8,24.8,2.9,36.3,8c6.5,2.9,12.9,6,19.3,9.2
					c8.9,4.3,14,11.7,16.6,21c1.3,4.6,2,9.4,2.8,14.1c1.5,9,2.9,18,4.1,27c0.6,4.3,0.8,8.6,1.2,12.9c0.9,9,1.9,18,2.7,27
					c0.8,8.4,1.5,16.9,2,25.3c0.6,9.6,0.8,19.2,1.6,28.7c0.6,7.3,0.5,14.7,0.9,22c0.1,1.5,0.2,3,0.3,4.6c-0.3-0.1-0.6-0.1-0.8-0.3
					c-1.8-1.8-3.8-3.1-6-4.3c-8.9-4.6-17.4-9.8-25.6-15.5c-3.5-2.5-7.1-5-10.6-7.5c-2.4-1.7-4.3-3.8-5.1-6.7c-0.6-2.1-1.9-3.9-4-4.9
					c0-3.1-0.1-6.2,0-9.3c0.1-2.9,0.3-5.7,0.4-8.6c0-1.2,0.3-2.1,1.1-3c2.6-3,5.3-6,7.7-9.2c1.1-1.4,1.9-3.2,2.5-4.9
					c1.7-5,2.3-10.1,2.5-15.3c0-0.9,0-1.7,0-2.8c3.4,1,5.5-0.8,7.3-3.1c2.2-2.9,3.2-6.2,3.9-9.7c1.1-5.7,1.1-11.5-0.6-17.1
					c-0.6-1.9-1.5-3.8-2.6-5.3c-2.4-3.2-5.7-3.1-8.2,0c-0.5,0.6-0.9,1.3-1.5,2.2c-0.2-0.9-0.4-1.6-0.6-2.2
					c-1.5-6.1-5.3-9.2-11.5-9.6c-3.8-0.3-7.5,0.7-11.2,1.4c-7.8,1.3-15.6,2.5-23.6,2.1c-9.7-0.5-19-2.6-27.8-6.8
					c-7.3-3.5-13.2-8.7-18-15.1c-0.9-1.1-1.7-2.3-2.7-3.6c-1.1,1.1-1.1,2.4-1.2,3.6c-0.5,4-0.9,7.9-1.3,11.9
					c-1.2,12.1-3.7,24-7.1,35.7c-2,6.8-3.7,13.6-4.3,20.6C179.4,147.1,178.9,152,179.4,157z"/>
				<path class="st3" d="M288.8,120c-0.2,7.4-0.4,14.7-0.7,22c-0.1,4.2-0.9,8.4-2,12.5c-0.4,1.7-1.1,3.1-2.3,4.4
					c-6.4,7.2-12.7,14.4-19,21.6c-0.4,0.4-0.8,0.8-1.2,1.1c-4.7,2.9-9.2,6.1-14.1,8.6c-7.6,3.9-15.7,4.6-24,2.1
					c-1.3-0.4-2.6-0.8-3.8-1.5c-4.4-2.5-8.8-5-12.9-7.8c-11.4-7.7-20.1-17.7-25.1-30.7c-0.1-0.1-0.1-0.3-0.2-0.4
					c-1.5-3.9-2.3-7.8-1.1-12.1c2.2-8.1,3.9-16.3,6-24.4c2.7-10.6,4.4-21.3,5.2-32.1c0.2-2.9,0.4-5.9,0.6-9c0.3,0.2,0.6,0.3,0.7,0.5
					c7.3,11.5,18.1,17.9,31,21.3c7.7,2,15.6,3.1,23.5,2.6c6.2-0.4,12.4-1.6,18.5-2.4c2.3-0.3,4.6-0.7,6.9-1c5.9-0.7,10,1.9,11.6,7.6
					c0.4,1.4,0.7,2.8,1,4.2c0.3,1.1,0.7,2.1,1.2,3.7c0.4-1,0.6-1.4,0.8-1.9c0.9-1.9,1.6-3.9,2.8-5.5c1.5-2.1,3.4-2,4.9,0.1
					c1,1.4,1.8,3.1,2.2,4.7c1.8,7,1.6,13.9-0.8,20.8c-0.6,1.7-1.7,3.2-2.7,4.8c-0.4,0.6-1,1.1-1.6,1.5c-1.7,1.1-3.2,0.4-3.5-1.5
					c-0.5-3.2-0.9-6.3-1.3-9.5C289.3,122.7,289,121.4,288.8,120z M233.6,148.1c-1.5-0.1-3-0.2-4.5-0.2c-2,0-4-0.5-5.7-1.5
					c-1.6-1-1.9-1.9-1.1-3.6c0.6-1.3,1.4-2.5,2.1-3.8c1.7-3.1,2.2-6.4,1.1-9.7c-1.8-5.4-4.7-10-9.6-13c-1.4-0.9-3-1.5-4.6-1.9
					c-5.9-1.5-11,0.8-13.5,5.8c-2.6,5.4-0.6,10.8,5,13c4.8,1.9,9.7,1.9,14.3-0.7c1-0.6,2.2-1,3.2-1.7c0.9-0.6,1.6-1.5,2.5-2.4
					c1.4,3.3,1.1,6.5-0.6,9.5c-0.8,1.5-1.7,2.9-2.3,4.4c-0.8,1.9-0.5,3.6,1,5C224,150.7,229.7,151.2,233.6,148.1z M237.1,175
					c2.3-0.2,4.3-0.9,6.2-2.1c8-4.9,12.7-12.4,16.8-20.5c0.1-0.3,0.1-0.9-0.1-1.1c-0.2-0.2-0.8-0.4-1.1-0.2c-0.8,0.5-1.6,1-2.2,1.8
					c-0.6,0.8-1.2,1.3-2.2,1.6c-6.2,1.8-12.4,3.7-18.6,5.5c-6.8,1.9-13.6,2.5-20.6,1.1c-0.5-0.1-1.4,0.2-1.6,0.5
					c-0.5,0.8,0.2,1.3,0.9,1.7c3.6,2.1,7.1,4.2,10.7,6.3c2.6,1.5,5.1,2.9,7.8,4.2C234.3,174.5,235.8,174.7,237.1,175z M254,128.5
					c0-0.1,0-0.3,0.1-0.4c0.6,0,1.1,0,1.7,0c6.3-0.6,10.2-5.1,9.7-11.1c-0.5-6.5-6.1-11.3-12.2-10.3c-6.2,1-10.7,4.5-13.5,10
					c-0.7,1.3-0.9,2.9-1.1,4.4c-0.1,0.7,0.2,1.8,0.7,2.2c1.5,1.1,3.1,2.3,4.8,2.9C247.4,127.1,250.8,127.7,254,128.5z M263.8,105.6
					c-1.8-2.8-3.9-4.4-6.7-4.9c-6.8-1.2-12.8,0.6-18,5c-0.6,0.5-1,1.2-1.5,1.7c0.8,0.3,1.3,0.3,1.8,0.1c0.9-0.4,1.8-1,2.7-1.5
					c6.1-3.5,12.5-4.1,19.1-1.5C261.9,104.9,262.6,105.2,263.8,105.6z M216.7,110.4c-0.6-0.6-1-1.1-1.5-1.4
					c-5.5-3.6-13.8-2.7-18.3,2c-1.1,1.1-1.8,2.4-2,4.4c1.6-1.1,2.8-1.8,4-2.7c1.7-1.3,3.6-2.4,5.7-2.9c2.8-0.8,5.5-0.2,8.2,0.5
					C214,110.7,215.1,111.3,216.7,110.4z"/>
				<path class="st4" d="M251.1,962.4c0.5,3.7,0.8,7.5,1.5,11.1c1,6.1,2.2,12.1,3.4,18.1c0.6,3.3,2.1,6.2,4.1,8.8
					c1.5,1.9,3.3,2.7,5.6,2.2c1.6-0.3,3.1-0.8,4.6-1.2c3.9-0.9,7.8-1.9,11.7-2.6c4.8-0.9,9.6-0.2,14.3,0.6c2.5,0.4,3.4-0.1,3.7-2.7
					c0.3-2.2,0.4-4.5,0.5-6.7c0.1-4.6,0-9.3,0.3-14c0.2,0.5,0.5,1.1,0.6,1.6c3.1,13.2,6.3,26.4,9.4,39.6c1.3,5.4,1.2,10.7-2.2,15.4
					c-3.2,4.4-7.4,7.7-12.8,8.8c-5.8,1.2-11.6,2-17.5,3c-4.6,0.7-9.2,1-13.9,0.5c-2-0.2-4-0.5-5.9-1.1c-6.5-1.7-9.7-5.5-10.4-12.2
					c-0.8-8-1.1-16.1-0.7-24.2c0.5-9.6,1.1-19.2,1.7-28.7c0.4-5.5,1-11,1.5-16.5C250.9,962.3,251,962.3,251.1,962.4z"/>
				<path class="st3" d="M252.2,943.5c14.1-0.6,27.7-2.7,40.9-6.9c0.9,5,1.7,10,2.6,14.9c0.6,3.5,1.5,7,2.1,10.6
					c0.4,2.1,0.7,4.3,0.7,6.4c0,7.6-0.2,15.2-0.3,22.8c0,1.8-0.3,3.6-0.4,5.5c-0.8,0-1.4,0.1-1.9,0c-7.9-1.9-15.6-0.8-23.2,1.3
					c-2.2,0.6-4.4,1.3-6.7,1.9c-1.6,0.5-2.9,0.1-3.9-1.4c-1.4-2-2.7-4-3.2-6.4c-1.5-7.1-3-14.2-4.3-21.4c-1.1-6.3-2-12.6-2.7-19
					C251.5,949.3,252,946.6,252.2,943.5z"/>
				<path class="st5" d="M293.5,210.8c2.6,1.8,5,3.5,7.6,5.3c-0.8,0.6-1.5,1-2.1,1.4c-6.9,4.1-13.8,8.1-20.6,12.2
					c-2.5,1.5-4.8,3.2-7.2,4.7c-0.8,0.5-1.2,1.1-1.3,2.1c-0.2,2.6-0.6,5.1-0.5,7.6c0.4,17,0.9,33.9,1.3,50.8c0,1.2,0,2.4,0,3.8
					c-11.7,1.7-23.3,3.7-35.2,4.9c-1.5-3.8-3.1-7.4-4.4-11.2c-4.2-12.2-7-24.7-9.1-37.5c-1.1-6.4-2.3-12.7-3.5-19.1
					c-0.3-1.7-1.1-2.8-2.8-3.2c-3.4-0.9-6.8-1.9-10.2-2.8c-0.4-0.1-0.8-0.2-1.4-0.4c1.4-2.1,2.6-4.1,4-6.3c4.4,0.9,8.9,1.8,13.3,2.7
					c1.1,0.2,1.3,1,1.5,1.9c1.3,5.8,2.6,11.5,3.8,17.3c2.6,12.3,5,24.6,7.7,36.8c0.8,3.7,2.1,7.2,3.3,10.8c0.7,2.1,0.9,2.3,3.1,1.9
					c3.6-0.7,7.2-1.6,10.7-2.5c3.8-0.9,7.6-1.8,11.5-2.8c0-2,0.1-3.8,0-5.6c-0.7-12.5-2.4-24.8-2.4-37.3c0-4.1,0.4-8.1,0.4-12.2
					c0-1.6,0.8-2.6,2.1-3.5c7.1-4.7,14.1-9.4,21.2-14.1C287.2,214.7,290.3,212.8,293.5,210.8z"/>
				<path class="st3" d="M183,427.1c-4.4-3.6-9.1-4.6-14.4-2.7c0.7,0.1,1.4,0.2,2.1,0.4c2.6,0.5,5.2,0.8,7.7,1.5
					c3.5,1.1,4.6,4.1,2.7,7.2c-2.4,3.8-5,7.4-7.6,11c-0.2,0.3-0.5,0.6-0.8,0.9c-2.5,2.4-4.1,3.7-7.9-0.2c2.8-2.1,4.8-4.9,6.2-8
					c0.4-0.8,0.8-1.6-0.6-2.3c-0.4,0.5-0.8,1-1.1,1.5c-0.8,1.3-1.6,2.6-2.5,3.8c-3.5,4.6-7.9,5.9-13.4,3.9c-0.9-0.3-1.7-0.8-2.5-1.1
					c0.7-14.5,1.5-29,2.2-43.6c4.8-0.7,7.6-4.4,10.7-7.7c1.9-2,4-3.9,6.2-5.6c2.1-1.6,4.6-2.1,7.3-1.7c1.5,0.3,2.7,1,3.5,2.2
					c1.8,2.7,2.9,5.8,4.1,8.9c-2.9,0-5.5-0.1-8.2,0c-2.7,0.2-5,1.5-6.8,3.7c1.5-0.4,2.9-0.8,4.4-1.2c2.7-0.8,5.5-1.1,8.3-0.6
					c2.3,0.3,3,1,3.1,3.2c0.1,3.4,0,6.9,0,10.5c-5.4-3.4-10.9-4-16.3,0.2c1.7-0.3,3.4-0.5,5-0.8c3.4-0.6,6.5,0.1,9.4,1.8
					c1.2,0.7,1.9,1.7,1.9,3.1C185.5,419.5,184.2,423.2,183,427.1z"/>
				<path class="st4" d="M221.4,928.7c0.7,0.5,1.3,0.8,2,1.3c-0.8,2.4-1.6,4.8-2.3,7.1c-1.7,5.6-3.6,11.1-4.2,16.9
					c-0.2,1.5,0.1,3.2,0.4,4.7c0.7,3.1,2.8,4.7,5.9,5c1.6,0.1,3.2,0.1,4.8,0.2c4.9,0.1,9.8,0.2,14.6,0.4c1.7,0.1,3.3,0.5,5.1,0.7
					c-1,11.9-2,23.6-3.1,35.6c-0.7,0.1-1.6,0.2-2.4,0.2c-5.2,0.2-10.4-0.3-15.5-1.1c-6-1-11.9-2.4-17.8-3.8
					c-1.8-0.4-3.5-1.2-5.1-2.1c-2.7-1.5-3.6-3.4-2.9-6.4c0.9-3.2,1.9-6.4,3.1-9.6c3.5-9.3,7.3-18.6,10.7-28
					c2.3-6.5,4.1-13.3,6.2-19.9C221,929.5,221.2,929.2,221.4,928.7z"/>
				<path class="st3" d="M334.1,504.8c4.3,9.1,10.2,17.1,16.8,24.9c-1-0.3-1.9-0.6-2.9-1c-6.6-2.7-11.5-7.4-15.2-13.4
					c-1.3-2.2-2.6-4.4-3.8-6.6c-0.1-0.1-0.2-0.3-0.2-0.4c-1.2-1.6-2.9-3.1-3.4-4.9c-0.8-2.7-0.7-5.7-1-8.8c12-2.9,23.2-8,34-14
					c1.9,3.2,3.8,6.4,5.7,9.5c1.8,2.8,3.7,5.4,5.6,8.1c2.9,4,6.7,6.8,11.2,8.8c1.5,0.6,3,1.2,4.3,2c0.9,0.5,1.9,1.3,2.4,2.2
					c1.7,3,0.5,5.3-2.9,6c-2.9,0.5-5.8-0.1-8.4-1.4c-2.4-1.1-4.7-2.5-6.9-3.8c-3.8-2.4-7.8-4.4-12.4-4.9c-1.3-0.1-2.6-0.4-3.7-0.9
					c-3.3-1.5-6.6-3.2-9.9-4.9c-1.4-0.7-1.5-2.1-1.6-3.5c-0.1-1.6-0.3-3.3-0.8-4.9c-0.2,1-0.5,2-0.6,3c-0.3,2.5,0.3,4.7,2.7,6.1
					c1.2,0.7,2.1,1.7,3.1,2.6c3,2.7,6.7,4,10.6,4.7c0.6,0.1,1.1,0.2,1.7,0.3c2.3,0.3,4.1,1.2,5.6,3.2c5.6,7.5,11.5,14.8,17.2,22.1
					c0.5,0.7,0.9,1.4,1.4,2.2c-2,1.8-4.2,1.7-6.4,1.2c-2.2-0.5-4.2-1.6-5.9-3.1c-1.9-1.8-3.8-3.7-5.5-5.7c-3.2-3.6-6.3-7.2-9.4-10.9
					c-1.2-1.4-2.5-2.5-4.1-3.3c-2-0.9-4-2-6.1-2.9c-3.6-1.6-6.9-3.7-9.5-6.7c-0.4-0.5-0.7-1-1-1.5
					C334.5,504.4,334.3,504.6,334.1,504.8z M338.7,502c-3.6-0.5-7.1-1.4-11.3-0.6C331.4,502.9,335,503.2,338.7,502z"/>
				<path class="st3" d="M246.2,233.8c-1.8-1.7-2.8-3.5-3.4-5.5c-1-3.4-1.8-6.8-2.7-10.2c-0.7-2.5-1.5-5.1-2.1-7.6
					c-0.3-1.3-1.2-1.7-2.4-1.9c-4.6-0.7-9.2-1.5-13.7-2.2c-1.9-0.3-3.7-0.7-5.9-1.1c1.6-5,0.9-9.8-0.3-15.1c1,0.5,1.6,0.8,2.2,1.1
					c5.9,3.3,12.1,5.3,19,5.1c8.1-0.3,15.4-3.2,21.6-8.2c4.9-3.9,9.3-8.3,13.9-12.5c1-0.9,2-1.8,3.4-3.2c-1.1,8.7-2.1,16.8-0.9,25.1
					c-0.9,0.5-1.8,1.1-2.7,1.5c-6,2.6-12,5.3-18,7.9c-0.4,0.2-0.9,0.4-1.3,0.5c-3.5,1-5.1,3.3-5.5,6.9c-0.6,5.9-1.1,11.8-0.9,17.7
					C246.4,232.5,246.3,233,246.2,233.8z"/>
				<path class="st6" d="M300.1,410.5c0.2-0.2,0.6-0.5,0.6-0.5c0.8,0.7,1.5,1.4,2.6,1.9c-0.7-1-1.4-2-2.2-3.1
					c1.2-0.7,2.4-1.4,3.8-2.2c0.7,0.4,0.8,1.4,0.9,2.2c1,7.8,2.1,15.5,2.9,23.3c0.8,7.2,1.6,14.5,2.2,21.7
					c0.4,5.2,0.6,10.4,0.9,15.6c0,0.3-0.1,0.6-0.1,1.2c-6.5,1.4-13.1,1.3-19.9,1.2c0-0.7-0.1-1.3-0.1-1.9c0.6-5.4,0.1-10.7-0.4-16
					c-1.3-12.7-2.7-25.4-4.1-38.1c-0.2-1.7-0.3-3.3-0.5-5.1c2.3-0.1,4.4-0.2,6.8-0.4c0.2,2.5,0.3,4.9,0.5,7.4
					c0.5,8.6,1,17.2,1.5,25.8c0.1,1-0.1,2.1,1.3,3c0.4-0.5,1-0.9,1.2-1.4c2.8-5.8,5.3-11.7,6.5-18c0.4-1.9,0.2-4-0.3-5.9
					C302.9,417.4,301.4,413.9,300.1,410.5L300.1,410.5z"/>
				<path class="st6" d="M280.9,389.2c-2.4,3.2-4.8,6.1-3.7,10.2c-0.6,0.1-1,0.2-1.4,0.2c-20.2-0.6-40.1-3.4-59.2-10.5
					c-10.8-4-20.2-10.2-28.5-18.2c-0.5-0.5-1-1-1.5-1.5c-0.8-0.8-0.9-1.6-0.4-2.6c0.5-1.1,0.8-2.2,1.3-3.5c1.4,0.7,2.7,1.4,4.1,2.1
					c6.2,3.3,12.3,6.7,18.6,9.9c6.2,3.1,12.9,5.2,18.6,9.2c12.1,5.6,24.7,8.2,38,6.7c4.2-0.5,8.4-1.3,12.5-1.9
					C279.7,389.3,280.1,389.3,280.9,389.2z"/>
				<path class="st5" d="M143.9,476c-3.1-1.1-5.9-2.1-8.8-3.2c0.6-26.8,4.4-53,10.5-78.8c0.4,0,0.5-0.1,0.5,0c1.3,0.5,2.7,1,4.3,1.6
					c0,0.8,0,1.6,0,2.5c-0.4,15-1,30-2.3,45c-0.2,2.5-0.2,4.9-0.3,7.4c-0.4,7.8-1.6,15.6-3.2,23.2C144.4,474.4,144.2,475,143.9,476z
					"/>
				<path class="st2" d="M180.2,299.7c0.5,2.7,0.9,5.5,1.5,8.1c1,4.2,2.2,8.3,3.2,12.5c1.3,5.8,1.6,11.7,0.9,17.6
					c-0.4,3.3-1.8,6.3-3.7,9c-0.9,1.4-1.9,2.8-2.6,4.3c-1.2,2.7-0.9,4,1.1,6c0.8,0.8,1.7,1.5,2.5,2.2c0.8,0.7,1.7,1.5,2.6,2.3
					c-0.5,1.3-1,2.6-1.5,3.8c-0.5,1.4-0.9,2.6-0.3,4.2c0.3,0.6-0.3,1.6-0.5,2.7c-2.1-3.2-4-6-5.6-9c-1.1-2-1.8-4.3-2.5-6.5
					c-2.6-9-4.3-18.2-5.4-27.5c-0.7-5.6-1.1-11.1-1.7-16.7c-0.1-0.9,0-1.5,0.7-2.1c3.6-3.6,7.2-7.3,10.8-10.9
					C179.8,299.7,180,299.8,180.2,299.7z"/>
				<path class="st3" d="M248.1,962.8c-1.9-0.4-3.5-0.9-5.3-1c-5.2-0.3-10.4-0.3-15.6-0.5c-1.5-0.1-3-0.2-4.5-0.4
					c-1.5-0.2-2.6-1-2.8-2.5c-0.3-1.8-0.6-3.7-0.3-5.4c1.2-7.2,3.6-14.1,5.8-21c0.1-0.2,0.3-0.4,0.3-0.4c3.4,1.1,6.7,2.4,10.1,3.2
					c3.4,0.8,6.9,1,10.6,1.4c0,1.3,0,2.5,0,3.8c0,2.9,0.2,3.1,3,3.4c0.3,0,0.6,0.1,1,0.2C249.7,950.1,248.9,956.4,248.1,962.8z"/>
				<path class="st5" d="M374.1,455.2c0.5,0.1,1.3-0.1,1.5,0.2c1.5,2.4,3,4.9,4.5,7.5c-17.4,12.5-35.4,23.1-56.2,29.3
					c-0.7-4.2-1.4-8-2.1-12c0.4-0.2,0.7-0.3,1-0.4c16.4-4.9,31.6-12.5,46.2-21.3c1.1-0.7,2.1-1.6,3.2-2.4c0.2,0,0.3,0.1,0.4,0.2
					C373.2,455.9,373.7,455.6,374.1,455.2L374.1,455.2z"/>
				<path class="st6" d="M289.5,387.8c-2.2,2.2-4.4,4.4-6.4,6.7c-1.6,1.9-1.3,2.9,0.9,4.2c3.2,1.9,3,2.4,5.7-0.7
					c0.5-0.5,1.1-1,1.6-1.4c3.9-3.1,7.7-6.2,10.2-10.9c2,0.5,4,0.8,5.9,1.4c2.6,0.9,3.2,2.6,1.8,4.9c-2.4,4-4.7,8-6,12.5
					c-0.3,1-1,1.6-2,1.8c-4,0.7-8,1.4-12,2c-2,0.3-3.9-0.4-5.1-2c-1.5-1.9-2.9-3.8-4.1-5.8c-1.3-2.2-1.1-4.5,0.3-6.6
					c1-1.6,2-3.1,3-4.6c0.3-0.4,0.6-0.8,1-0.9c1.8-0.5,3.5-1,5.3-1.4c0.1,0,0.3,0.3,0.5,0.4C289.8,387.5,289.7,387.6,289.5,387.8z"
					/>
				<path class="st6" d="M120.4,450.2c-3.4-5.7-6.8-11.3-10.3-17.1c4.9-2,9.5-3.9,14.4-5.9c0.5,0.7,1,1.4,1.6,2.1
					c3,3.7,5.9,7.3,8.9,10.9c1.6,1.9,1.5,2.7-0.6,4C130.2,446.9,125.5,448.4,120.4,450.2z"/>
				<path class="st6" d="M330.8,473.7c-0.7-0.7-1.3-1.4-2-2c-2.7-2-5.4-4-8.2-6.1c1.8-6.5,3.7-13,5.6-19.7c4.3,3.2,8.6,6.4,13.1,9.7
					c-1.7,6.5-3.2,13.2-5.8,19.7C332.4,474.6,331.6,474.1,330.8,473.7L330.8,473.7z"/>
				<path class="st6" d="M229.6,252.3c6.3-4.3,12.2-8.4,18.2-12.5c1.6,1.1,3.2,2.4,4.9,3.6c1.8,1.3,3.7,2.5,5.5,3.8
					c1.3,1,1.4,2.5,0.1,3.6c-3.5,2.8-7,5.5-10.8,8.5C241.8,257,235.9,254.7,229.6,252.3z"/>
				<path class="st6" d="M116.5,411c4.1-1.8,8.2-3.5,12.3-5.3c0.8-0.3,1.6-0.8,2.3-1.1c2.6,5,5.2,9.9,7.9,15
					c-0.2,0.2-0.6,0.7-0.9,1.2c-1,0.4-2,0.7-3,1.1c-1.6,0.6-3.3,1.2-4.9,1.8c-1.7,0.7-3.4,1.4-5.2,2.2c-1.2-1.7-2.4-3.3-3.5-4.9
					c-1.7-2.6-3.3-5.3-4.9-7.9C116,412.2,115.7,411.5,116.5,411C116.6,410.9,116.5,411,116.5,411z"/>
				<path class="st6" d="M344.2,438.6c0.5-0.8,0.9-1.6,1.5-2.4c3.7,2.7,7.2,5.3,10.8,7.9c-0.7,6.4-1.4,12.9-2.2,19.7
					c-4.8-3.1-9.3-6.1-14-9.1c0.2-1,0.5-2,0.7-3C342.1,447.4,343.2,443,344.2,438.6L344.2,438.6z"/>
				<path class="st6" d="M248.7,279.9c-5-2.7-9.9-5.3-15-8.1c4.8-3.8,9.5-7.4,14.3-11.2c4,1.4,8,2.9,12,4.4
					C259.4,267.1,252.9,275.6,248.7,279.9z"/>
				<path class="st6" d="M225.2,228c1.4,0.9,2.8,1.9,4.3,2.6c4.7,2.1,9.5,4.2,14.3,6.2c1.2,0.5,2.3,1.1,3,2.6
					c-5.7,3.8-11.3,7.5-17.3,11.5c-1.7-7.7-3.3-15.2-5-22.9C224.7,228,225,228,225.2,228L225.2,228z"/>
				<path class="st3" d="M389.9,516.6c1-5.4-0.4-8.1-5-10.2c-2.1-1-4.2-1.9-6.3-3c-1.6-0.9-3-2-4.9-3.3c0.7-0.1,0.9-0.2,1-0.1
					c8,3.3,16.5,5,25,6.5c3.1,0.6,6.1,1.2,9.1,1.9c1.4,0.3,2.9,0.7,3,2.6c0.1,1.4-0.8,2.6-2.9,3.1c-3.6,0.8-7.2,1.5-10.8,2
					C395.6,516.3,392.9,516.3,389.9,516.6z"/>
				<path class="st6" d="M225.3,228.1c-0.4-0.4-0.7-0.8-1.3-1.4c3.3-5.3,7.6-9.9,11.8-15.2c0.7,2.4,1.3,4.4,1.9,6.3
					c0.7,2.5,1.2,5.1,1.9,7.7c0.8,3.4,2,6.6,4.3,9.3c0.3,0.3,0.4,0.8,0.8,1.6c-1.2-0.4-1.9-0.7-2.6-1c-4.7-2.2-9.4-4.4-14.1-6.6
					C227,228.5,226.1,228.3,225.3,228.1C225.2,228,225.3,228.1,225.3,228.1z"/>
				<path class="st6" d="M265.2,204.9c0.2,4.2,0.4,8.2,0.7,12.1c0.2,2.7,0.6,5.4,0.8,8.1c0,0.5-0.2,1.2-0.6,1.6
					c-0.7,0.6-1.3,0.1-1.8-0.4c-4.7-4.6-9.4-9.1-14.1-13.6c-0.1-0.1-0.2-0.3-0.2-0.4c0-1.2,0.9-1.7,1.8-2
					C256.1,208.5,260.6,206.8,265.2,204.9z"/>
				<path class="st6" d="M264.1,227.8c-5.3,3.2-10.3,6.2-15.6,9.4c-0.6-7.9,0-15.6,1.1-23.8C254.6,218.3,259.3,223,264.1,227.8z"/>
				<path class="st6" d="M300.1,410.4c0.8,2.9,1.5,5.9,2.5,8.7c1,2.8,1.3,5.6,0.3,8.5c-1.7,5-3.6,9.9-5.4,14.9
					c-0.1,0.2-0.3,0.3-0.7,0.8c-0.8-11.2-1.5-22.2-2.3-33.4c1.5-0.3,3.1-0.7,4.9-1C299.6,409.5,299.9,410,300.1,410.4
					C300.1,410.5,300.1,410.4,300.1,410.4z"/>
				<path class="st6" d="M374.2,455.2c-5.3-3.7-10.6-7.4-15.9-11.1c-0.1-0.1-0.2-0.2-0.5-0.5c0.8-5.6,1.6-11.3,2.5-17
					c0.2,0,0.3,0,0.5-0.1c4.7,9.2,9.5,18.5,14.4,28C374.8,454.8,374.4,455,374.2,455.2C374.1,455.2,374.2,455.2,374.2,455.2z"/>
				<path class="st6" d="M372.7,456.3c-0.1-0.1-0.2-0.2-0.4-0.2c-5.6,2.9-11.2,5.9-17.3,9c0-3.8,0.9-7,1.2-10.3
					c0.4-3.2,0.9-6.4,1.4-9.9c0.9,0.6,1.5,0.9,2.1,1.3c3.9,2.7,7.7,5.4,11.6,8.1C371.9,454.9,373,455.1,372.7,456.3z"/>
				<path class="st6" d="M126.5,387.5c0.3-0.2,0.6-0.5,0.8-0.5c2.9,0,5.9,0.1,8.8,0.2c0.7,0,1.4,0.3,1.9,0.7c2.1,1.6,4,3.3,6.1,5
					c1,0.8,1.2,1.4,0.2,2.1c-4,2.9-8.2,5.5-12.6,8c-1.6-4.3-3.1-8.4-4.6-12.5C127,389.4,126.8,388.4,126.5,387.5z"/>
				<path class="st6" d="M108.7,455.2c4-1.1,7.7-2.2,11.4-3.3c0.4,0.5,0.7,0.9,1.1,1.3c4,5.5,7.9,11,11.9,16.5
					c0.5,0.7,1.2,1.3,0.6,2.5C124.7,467.6,116.2,462.4,108.7,455.2z"/>
				<path class="st6" d="M279.1,197.8c3.4,4.8,4.3,10.6,6.7,16c-1.4,0.9-2.6,1.7-4,2.6c-5-3.8-9.6-7.9-14.1-12.5
					C271.6,201.9,275.3,199.9,279.1,197.8z"/>
				<path class="st6" d="M340.1,456.1c4.9,3,9.5,5.9,14.2,8.8c-1.6,1.8-15.1,8.2-19.6,9.5C336.5,468.4,338.2,462.4,340.1,456.1z"/>
				<path class="st6" d="M121.7,451.7c4.7-2.1,9.2-4.2,13.9-6.3c-0.5,7.5-1.1,15.2-1.6,23C132.1,467,124.2,456.4,121.7,451.7z"/>
				<path class="st6" d="M126.5,387.5c0.2,1,0.4,1.9,0.7,2.9c0.9,3.4,1.8,6.7,2.8,10.1c0.3,0.9,0.6,1.8,0.9,2.9
					c-0.7,0.4-1.4,0.9-2.1,1.2c-3.4,1.7-6.8,3.4-10.2,5.2c-0.7,0.4-1.3,0.8-2,1.2c0,0,0.1-0.1,0.1-0.1c-0.3,0-0.6-0.1-1.1-0.1
					c0.1-0.3,0.1-0.6,0.2-0.9c2.4-7.2,5.3-14.2,9.1-20.8C125.1,388.3,125.3,387.3,126.5,387.5z"/>
				<path class="st3" d="M341.1,512.6c3.8,1.9,7.4,3.7,11,5.5c0.5,0.2,0.8,0.7,1.2,1.2c4.9,5.6,9.8,11.1,14.7,16.7
					c0.1,0.1,0.1,0.3,0.2,0.5c-1.9,0.2-3.6-0.5-5.3-1.3c-3.7-1.6-6.9-4.1-9.7-6.9c-4.6-4.5-8.4-9.7-12-14.9
					C341.2,513.4,341.2,513.2,341.1,512.6z"/>
				<path class="st6" d="M267.9,225.7c-1.1-7.2-1.7-14.2-1.7-21c0.3-0.2,0.4-0.2,0.4-0.2c0.1,0,0.2,0,0.2,0
					c4.6,4.2,9.1,8.4,13.7,12.7C276.5,220,272.3,222.8,267.9,225.7z"/>
				<path class="st6" d="M108.1,454.4c-1.4-0.7-1.9-1.6-1.6-3c0.9-5.7,1.8-11.4,2.6-17c0-0.1,0.2-0.2,0.4-0.5
					c3.2,5.5,6.4,11,9.7,16.7C115.5,451.9,111.8,453.2,108.1,454.4z"/>
				<path class="st6" d="M135,421.8c1-0.4,2-0.7,3-1.1c0.3-0.1,0.5-0.2,1.1-0.4c-1,6.8-2,13.4-2.9,19.9c-1.5-1-7.2-8.4-10.5-13.5
					c0.6-0.3,1.2-0.7,1.7-1C130,424.4,132.5,423.2,135,421.8z"/>
				<path class="st6" d="M123.6,426.4c-4.6,1.9-9.1,3.7-14,5.7c1.3-7.1,3.2-13.6,5.3-20.2C117.9,416.8,120.7,421.6,123.6,426.4z"/>
				<path class="st6" d="M246.5,260.1c-4.4,3.7-8.5,7.1-12.9,10.8c-1.2-5.8-2.3-11.3-3.5-17.2C235.6,255.9,240.8,257.9,246.5,260.1z
					"/>
				<path class="st6" d="M344.2,438.6c-1.1,3.7-2.3,7.4-3.4,11.1c-0.4,1.4-0.8,2.8-1.2,4.5c-4.5-3-8.6-6.1-12.9-9.2
					c5.9-2.5,11.6-4.8,17.4-7.3C344.1,438,344.1,438.3,344.2,438.6C344.2,438.6,344.2,438.6,344.2,438.6z"/>
				<path class="st6" d="M239,292.1c-2.2-6.6-4.1-12.8-5.1-19.6c4.9,2.8,9.5,5.5,14.3,8.3C245.1,284.5,242.2,288.1,239,292.1z"/>
				<path class="st6" d="M132.2,404c4-2.6,7.8-5,12-7.7c-1.6,7.5-3.2,14.6-4.8,22.3C136.4,413.7,134.1,409,132.2,404z"/>
				<path class="st6" d="M223.4,225.2c-1.2-0.2-1.2-1-1.2-1.8c-0.2-4.8-0.3-9.6-0.5-14.7c4.3,0.5,8.6,1.5,13.4,2.1
					C231.1,215.8,227.3,220.4,223.4,225.2z"/>
				<path class="st6" d="M249.2,281.3c4.2,2.2,8.3,4.4,12.3,6.5c0,0.2,0,0.3,0,0.5c-7.2,1.7-14.4,3.4-21.6,5.1
					c-0.1-0.3-0.2-0.4-0.2-0.5c0-0.1,0-0.2,0-0.2C242.8,289,245.9,285.2,249.2,281.3z"/>
				<path class="st6" d="M289.5,387.8c0.2-0.2,0.3-0.3,0.5-0.5c0.8-0.5,1.6-1.1,2.4-1.5c3.9-2.1,3.9-2.1,8.3-0.1
					c-3.4,5.7-9.2,8.9-13.7,13.8c-1.3-0.8-2.6-1.6-4.1-2.5c0.7-1.1,1.3-1.9,1.9-2.8C286.4,392,288,389.9,289.5,387.8z"/>
				<path class="st6" d="M260.3,267.8c0.5,6.2,0.9,12.4,1.4,19.1c-4.2-2.3-7.9-4.3-11.9-6.5c3.4-4.3,6.7-8.5,10-12.7
					C260,267.8,260.1,267.8,260.3,267.8z"/>
				<path class="st6" d="M356.7,443.2c-3.6-2.5-6.8-4.7-10-7c4.2-3.1,8.2-6.1,12.6-9.3C358.4,432.4,357.6,437.6,356.7,443.2z"/>
				<path class="st6" d="M258.9,246.4c-3.8-2.5-7.4-4.9-11.3-7.5c4.3-2.6,8.3-5,12.3-7.4C259.6,236.3,259.3,241.1,258.9,246.4z"/>
				<path class="st3" d="M178.5,382.1c-2.6,0.2-4.9,0.4-7.1,0.5c1.9-4.5,3.9-9.2,6-14c2.4,0.8,3.1,2.8,3.8,4.9
					C182.4,377.1,180.4,379.7,178.5,382.1z"/>
				<path class="st6" d="M330.7,473.6c0.5,0.6,0.9,1.2,1.6,2.1c-3.5,1.2-6.9,2.4-10.6,3.7c-0.6-4.5-2-8.4-1.5-13.1
					c2.8,2.1,5.3,4,7.8,5.8C328.9,472.7,329.9,473.1,330.7,473.6C330.8,473.7,330.7,473.6,330.7,473.6z"/>
				<path class="st6" d="M318.4,446.6c2.3-0.5,4.6-1,7.2-1.5c-1.7,6.7-3.8,12.9-5.8,19.5C318.9,462.1,318,450.2,318.4,446.6z"/>
				<path class="st6" d="M259.9,264.1c-3.8-1.5-7.1-2.8-10.9-4.3c3.4-2.9,6.6-5.7,10.1-8.7c0.1,2.5,0.2,4.5,0.3,6.5
					C259.5,259.5,259.7,261.6,259.9,264.1z"/>
				<path class="st6" d="M219.5,208.1c-2.1,5.1-4.2,9.9-6.3,14.9c-1.4-0.2-2.5-0.4-3.9-0.6c0.1-0.8,0.1-1.5,0.3-2.1
					c1.9-4.4,3.9-8.7,6-13.3C216.7,207.3,218,207.7,219.5,208.1z"/>
				<path class="st6" d="M220.3,208.2c0.9,3,1.3,13.2,0.7,16.3c-1.8-0.3-3.6-0.6-5.4-1c-0.5-0.1-0.9-0.2-1.5-0.4
					C216.1,218.1,218.1,213.3,220.3,208.2z"/>
				<path class="st6" d="M132.3,377.7c1.3,2.8,2.6,5.5,3.8,8.1c-1.6,0.6-6.7,0.6-9.5-0.1C128.4,382.9,130.2,380.3,132.3,377.7z"/>
				<path class="st6" d="M298.8,382.8c3.5-2,7.1-3.9,10.9-6.1c-0.4,2.8-1.1,5.5-2.4,8.4c-2.9-0.6-5.7-1.2-8.5-1.8
					C298.8,383.1,298.8,382.9,298.8,382.8z"/>
				<path class="st6" d="M292.1,209.8c-2,1.3-3.6,2.3-5.4,3.4c-1.4-3.2-2.6-6.4-3.3-9.8C286.3,205.5,289.1,207.6,292.1,209.8z"/>
				<path class="st6" d="M276.5,193c1.3,1.1,1.8,1.8,0.4,2.8C276.8,194.9,276.7,194.2,276.5,193z"/>
				<path d="M216.4,307.6c-1.1,0.2-1.8-0.4-2.2-1.4c-0.3-0.8-0.6-1.7-0.7-2.5c-2.2-10.4-4.5-20.8-6.6-31.2c-1.5-7.5-2-15-2.4-22.6
					c-0.1-1.3-0.2-2.6-0.6-3.7c-0.5-1.3,0-2,1.3-2.2c1.7-0.3,3.5-0.3,5.2-0.7c4.1-0.9,3.6-0.1,3.9,3.3c0.2,3.2,1,6.5,1.6,9.7
					c2.5,13,5.7,25.9,9,38.7c0.8,3.1,1.3,6.2,1.9,9.4c0.3,1.5,0.1,2-1.3,2.2C222.4,306.9,219.4,307.2,216.4,307.6z M217.4,277.3
					c0.9,0.2,1.2-0.1,1-1c-0.4-1.6-0.7-3.3-1.1-4.9c-0.2-0.8-0.4-1.5-0.8-2.8c-1.2,2.1-2.1,3.7-2.8,5c0.9,1,1.5,1.7,2.1,2.4
					c-0.9-0.3-1.9-0.7-2.9-1c-1,1.7-2,3.3-3,5.1c2.2,1.1,4.3,2.1,6.4,3.1c0.6-0.8,1-1.5,1.5-2.1
					C219.4,278.9,219.4,278.9,217.4,277.3z M214.2,300.2c0.5,1.9,1,3.7,1.5,5.7c3.3-0.4,6.3-0.8,9.4-1.2c-0.6-2.4-0.6-4.7-1.6-6.7
					C220.5,298.8,217.6,299.4,214.2,300.2z M209.2,251.3c-0.9,1.7-1.9,3.2-2.6,4.7c-0.4,0.9-0.6,2,0.4,2.9c1.4,1.2,2.9,2.4,4.5,3.7
					c0.9-1.3,1.7-2.3,2.4-3.5c0.9-1.3,0.8-2.9-0.3-3.9C212.3,253.9,210.9,252.7,209.2,251.3z M211.9,291.9c1.7,0.8,3.1,1.4,4.7,2.1
					c1.6-2.4,3.3-4.5,4.8-7.1c-1.6-0.8-3-1.6-4.5-2.3C215.3,287,213.8,289.2,211.9,291.9z M216.3,267.7c-1.6-1.2-3-2.2-4.5-3.3
					c-1.3,2-2.5,3.8-3.8,5.7c1.6,1.1,3.1,2.2,4.8,3.4C214,271.4,215.1,269.6,216.3,267.7z M215.9,284.1c-2-1.1-3.7-2.1-5.8-3.3
					c0.5,3.4,1.1,6.2,2.1,9.3C213.5,287.9,214.7,286.1,215.9,284.1z M223.3,296.5c-0.4-2.7-1-5.1-2-7.9c-1.4,2.1-2.5,3.9-3.9,5.9
					C219.6,295,220.9,296.7,223.3,296.5z M211.7,244.7c-0.1-0.2-0.1-0.3-0.2-0.5c-2.1,0.7-4.4,0-6.8,1.3c1.6,1.5,2.9,2.8,4.4,4.2
					C210,247.9,210.9,246.3,211.7,244.7z M207.6,267.9c0.2,0.1,0.4,0.1,0.6,0.2c0.9-1.4,1.8-2.9,2.8-4.5c-1.4-1.2-2.6-2.2-3.8-3.3
					c-0.1,0.1-0.3,0.2-0.4,0.3C207,263,207.3,265.5,207.6,267.9z M213.3,253.8c0.1-0.1,0.3-0.2,0.4-0.2c-0.4-2.7-0.8-5.5-1.2-8.2
					c-0.1,0-0.2-0.1-0.4-0.1c-0.8,1.7-1.6,3.3-2.5,5.1C211,251.6,212.2,252.7,213.3,253.8z M208.8,271.6c-0.2,0.1-0.3,0.2-0.5,0.3
					c0.4,2.2,0.8,4.4,1.2,6.6c0.2,0,0.3,0.1,0.5,0.1c0.8-1.4,1.5-2.8,2.3-4.2C211,273.3,209.9,272.4,208.8,271.6z M212.4,263.4
					c1.2,1.1,2.3,2.1,3.3,3.1c0.2-0.1,0.3-0.2,0.5-0.3c-0.4-2-0.8-4.1-1.2-6.1c-0.2,0-0.3-0.1-0.5-0.1
					C213.9,261,213.2,262.1,212.4,263.4z M206,254.4c0.2,0.1,0.4,0.1,0.6,0.2c0.6-1.3,1.3-2.6,2-4c-1.1-0.8-1.7-2-3.2-2.5
					C205.6,250.3,205.8,252.3,206,254.4z M214.7,298.4c0.1,0.1,0.1,0.3,0.2,0.4c1.8-0.5,3.6-1,6-1.7c-1.6-0.8-2.7-1.4-3.8-1.9
					C216.1,296.3,215.4,297.4,214.7,298.4z M216.1,294.7c-1-0.6-2-1.1-3.4-1.9c0.5,2,0.8,3.4,1.2,5.3
					C214.8,296.8,215.4,295.8,216.1,294.7z M220.7,285.7c-0.5-1.9-0.9-3.3-1.4-5.2c-0.8,1.4-1.4,2.3-2,3.3
					C218.5,284.4,219.3,284.9,220.7,285.7z"/>
				<path d="M292.7,239.4c0,4.2,0.1,8,0,11.8c-0.2,4.8-0.4,9.6-0.8,14.4c-0.3,4.5-0.8,9.1-1.1,13.6c-0.3,5.3-0.5,10.5-0.8,15.8
					c0,0.9,0,1.8,0,2.6c0,1-0.4,1.7-1.5,1.9c-2.8,0.4-5.7,0.8-8.7,1.2c-0.6-2.7-0.9-5.1-0.9-7.6c0-6.7,0.1-13.4,0.4-20.1
					c0.4-7.7,1.1-15.5,1.6-23.2c0.2-2.9,0.3-5.9,0.6-8.8c0.2-2,0.3-2,2.4-2c1.9,0,3.8,0,5.8,0.1
					C290.8,239.1,291.7,239.3,292.7,239.4z M286,242.6c0.6-0.2,1.3-0.4,1.9-0.7c0.8-0.4,1.6-0.8,2.5-1.2c-0.9,0.9-1.9,1.9-3,2.9
					c1.3,1.2,2.5,2.3,4.1,3.8c0.1-2.6,0.2-4.7,0.3-6.9c-0.7,0.1-1.1,0.2-1.5,0.2c-1.7-0.1-3.3-0.3-5-0.3c-0.4,0-0.8,0.4-1.2,0.6
					c-0.3-0.1-0.6-0.1-1-0.2c-0.1,1.6-0.2,3-0.3,4.5c0.2,0.1,0.3,0.1,0.5,0.2C284.2,244.4,285.7,244.2,286,242.6z M288.8,282.5
					c-1.1-1.4-2.2-2.7-3.3-4.1c-1.6,0.8-3.1,1.5-4.9,2.4c1,2,2.7,3,4.2,4.4C286.1,284.2,287.4,283.4,288.8,282.5
					c0.2-2.5,0.4-5,0.7-7.5c-1.3-2.1-3.1-3.9-4.8-5.8c-1.2,0.9-2.2,1.7-3.3,2.6c1.5,1.8,2.9,3.5,4.3,5.2c1.4-0.7,2.6-1.4,3.8-2
					c-1,1-2,1.9-3,2.9C287.2,279.5,288,281,288.8,282.5z M290.4,254c-1.1-0.8-2.1-1.5-3.2-2.3c-1.5,0.9-2.9,1.9-4.5,2.9
					c1.5,1.4,2.8,2.7,4.2,4c1.2-0.5,2.3-1.1,3.4-1.6c-0.9,0.8-1.7,1.6-2.7,2.4c0.9,1,1.5,2.1,2.9,2.4c0.1-1.3,0.3-2.5,0.3-3.7
					c0-0.4-0.4-0.7-0.6-1.1C291.2,256.1,290.7,255,290.4,254c0.1-0.1,0.3-0.1,0.3-0.1c0.4-1.5,0.6-3.1,0.4-5c-1.2,0.8-2,1.5-3,2.2
					C289,252.2,289.7,253.1,290.4,254z M289.3,273.6c0.2,0,0.4-0.1,0.5-0.1c0.2-3.4,0.4-6.8,0.6-10.1c-1.3-1.1-2.6-2.2-3.9-3.3
					c-1.8,1.3-3.4,2.4-5.3,3.8c1.3,1.5,2.4,2.7,3.5,4c0.6-0.2,1.1-0.3,1.7-0.4c-0.4,0.6-0.6,1-0.9,1.4
					C286.9,270.5,288.1,272.1,289.3,273.6z M288.4,298c0-2.6,0-5.1,0-7.6c-2.7,0.2-5.2,0.5-7.9,0.7c0.3,2.7,0.5,5.2,0.8,7.8
					C283.8,298.5,286,298.3,288.4,298z M283.6,246.2c1.4,1.5,2.6,2.8,3.8,4.2c1.3-0.7,2.4-1.4,3.2-1.8c-1.3-1.6-2.4-3.1-3.7-4.7
					C285.7,244.7,284.8,245.3,283.6,246.2z M282.2,254c1.8-1.2,3.1-2.1,4.6-3.1c-1.3-1.5-2.5-2.8-4-4.5
					C282.6,249.1,282.4,251.3,282.2,254z M284.7,277.7c-1.8-3.2-2.5-4-3.8-4.5c0,2.1,0,4.1,0,6.5
					C282.3,278.9,283.4,278.3,284.7,277.7z M281.6,262.6c1.7-1.3,3-2.2,4.3-3.3c-1.2-1.4-2.3-2.6-3.4-3.8c-0.2,0.1-0.3,0.1-0.5,0.2
					C281.9,257.8,281.8,259.9,281.6,262.6z M280.6,289c0.1,0.2,0.2,0.5,0.3,0.7c2-0.2,4-0.5,6.5-0.8c-1.2-1-2.1-1.7-2.9-2.4
					C283,287.4,281.8,288.2,280.6,289z M283.5,286c-1-1.1-1.7-1.9-2.8-3.1c0,1.9,0,3.4,0,5.2C281.9,287.3,282.7,286.6,283.5,286z
					 M288.8,283.7c-0.1-0.1-0.3-0.2-0.4-0.3c-0.9,0.8-1.9,1.5-3,2.4c1.1,0.9,2,1.6,3.2,2.6C288.6,286.5,288.7,285.1,288.8,283.7z
					 M281.3,270.8c1.1-0.9,1.9-1.6,2.8-2.3c-0.9-1.1-1.4-2.2-2.8-3C281.3,267.3,281.3,268.8,281.3,270.8z"/>
				<path d="M304.2,370.6c-4.4,2.2-8.5,2.3-12.7,2.1c-7.6-0.5-15.1-1.8-22.5-3.3c-24.2-5-48.1-11.2-71.8-18.1c-1.5-0.4-3-1-4.5-1.5
					c0-0.2,0.1-0.3,0.1-0.5c0.6,0.1,1.2,0.1,1.8,0.3c16.3,4,32.6,8,48.9,12c13.1,3.2,26.3,6.1,39.6,8.2c5.6,0.9,11.3,1.5,17,1.2
					C301.3,370.9,302.5,370.8,304.2,370.6z"/>
				<path d="M230,342.2c0.8,0.2,1.6,0.5,2.4,0.7c17.5,5.9,34.9,11.9,52.4,17.6c7.3,2.4,14.9,4.1,22.4,6.1c1.6,0.4,1.6,0.4,2.6,1.9
					c-1.1-0.1-2-0.1-2.9-0.2c-12.4-2.4-24.4-6.2-36.3-10.5c-12.9-4.7-25.7-9.6-38.6-14.4c-0.7-0.3-1.4-0.6-2.1-0.9
					C229.9,342.4,229.9,342.3,230,342.2z"/>
				<path d="M336.2,331.4c-2.5,7.2-6.4,13.6-10.8,19.7c0.7-1.7,1.5-3.4,2.2-5.2c0.6-1.7,2.3-2.7,3-4.4c0.7-1.8,1.8-3.4,2.7-5
					C334.2,334.8,335.2,333.1,336.2,331.4z"/>
				<path d="M127,338.8c0.9-0.8,0.4-1.5,0-2.3c-2.4-4.5-4.7-9-7.1-13.6c-0.3-0.6-0.5-1.3-0.6-2c3.6,5.6,7,11.4,9.8,17.8
					C128.1,338.8,127.5,338.8,127,338.8C127,338.8,127,338.8,127,338.8z"/>
				<path d="M113.8,351.2c1.1,0.7,2.2,1.4,3.3,2.1c-1.6,0.2-2.6-0.9-3.6-1.7C113.6,351.5,113.7,351.4,113.8,351.2z"/>
				<path d="M263.3,714.6c0.8,1.1,1.5,2.4,2.5,3.4c6.2,6.5,13.7,10.3,22.5,12c4.8,0.9,9.5,0.9,14.2-0.5c0.5-0.1,1-0.1,1.6-0.2
					c0.1,2.7-4.2,8.1-8.4,10.4c2.3-2.8,4.6-5.6,6.9-8.3c-0.1-0.1-0.2-0.2-0.3-0.4c-0.5,0.1-1,0.1-1.5,0.2c-5.2,1.2-10.3,1-15.4-0.3
					c-7.6-1.9-14.3-5.5-19.8-11.2c-1.2-1.2-2.2-2.6-2.9-4c-0.9-1.8,0-3,2-2.8c1.6,0.2,3.1,0.6,4.7,1c2.5,0.7,4.9,1.6,7.3,2.2
					c11.5,3.2,20.9-0.3,28.6-9.1c0.4-0.5,0.8-1,1.5-1.3c-0.2,0.5-0.3,1.1-0.6,1.6c-5.3,7.6-12.4,11.8-21.9,11.4
					c-4-0.2-7.8-1.4-11.6-2.8c-2.2-0.8-4.4-1.4-6.6-2c-0.7-0.2-1.5,0-2.3,0C263.5,714.2,263.4,714.4,263.3,714.6z"/>
				<path d="M196,670.1c3.3-0.3,6.4-0.5,9.4-0.8c7.4-0.7,14.8-1.5,22.2-2.3c0.9-0.1,1.8-0.1,2.6,0c0.8,0,1.9,0.1,1.9,1.1
					c0,0.6-0.6,1.4-1.2,1.9c-0.9,0.7-1.9,1.2-2.9,1.7c-7.9,4.2-15.9,8.3-23.8,12.5c-0.7,0.4-1.4,0.8-2.4,1.3
					c0.9,0.9,1.7,1.7,2.5,2.3c4.6,3.2,9.2,6.3,13.8,9.5c4.6,3.2,9.2,6.4,13.8,9.6c0.3,0.2,0.7,0.5,0.8,1.1c-0.3-0.2-0.7-0.3-1-0.5
					c-9.4-5.5-18.5-11.3-27.4-17.7c-1-0.7-1.9-1.4-2.8-2.3c-1.7-1.7-1.6-2.8,0.5-3.9c0.4-0.2,0.9-0.4,1.3-0.7
					c7.9-4.1,15.7-8.2,23.6-12.4c0.8-0.4,1.6-0.9,2.4-1.4c0-0.2-0.1-0.3-0.1-0.5c-2.6,0.2-5.1,0.5-7.7,0.7
					c-7.4,0.6-14.8,1.2-22.2,1.7C198.3,671,197.1,671.2,196,670.1z"/>
				<path d="M189.8,458.5c0.9,0,1.8,0,2.8,0c0,0.1,0,0.1,0,0.2c-1,0-1.9,0-2.9,0C189.7,458.6,189.7,458.5,189.8,458.5z"/>
				<path d="M185.7,459.1c-0.3,0-0.6,0-0.9,0c0,0,0,0,0-0.1C185.1,459.1,185.4,459.1,185.7,459.1
					C185.7,459.1,185.7,459.1,185.7,459.1z"/>
				<path d="M233.6,148.1c-3.8,3.1-9.6,2.6-12.8-0.6c-1.5-1.5-1.8-3.2-1-5c0.7-1.5,1.5-3,2.3-4.4c1.7-3.1,2-6.2,0.6-9.5
					c-0.9,0.8-1.6,1.8-2.5,2.4c-1,0.7-2.1,1.1-3.2,1.7c-4.7,2.6-9.5,2.5-14.3,0.7c-5.6-2.1-7.6-7.6-5-13c2.5-5.1,7.6-7.4,13.5-5.8
					c1.6,0.4,3.2,1.1,4.6,1.9c4.9,3,7.9,7.6,9.6,13c1.1,3.4,0.6,6.6-1.1,9.7c-0.7,1.3-1.5,2.5-2.1,3.8c-0.8,1.7-0.6,2.6,1.1,3.6
					c1.7,1.1,3.7,1.5,5.7,1.5C230.6,147.9,232.1,148,233.6,148.1z M214,131.3c-4.3-4.2-7.2-8.6-4.9-14.7c-3.3-0.6-6,0.4-8.1,3
					c-3.6,4.5-2,9.6,3.4,11.4C207.5,132.2,210.7,132.3,214,131.3z M210.5,120.2c0.4,3.3,1.7,6.2,4.4,8.3c2.3,1.8,4.4,1.4,6.2-0.9
					c0.7-1,0.8-1.8,0.1-2.8c-2-2.7-4.3-5-7.3-6.8C211.6,116.7,210.5,118.1,210.5,120.2z"/>
				<path d="M237.1,175c-1.4-0.4-2.8-0.5-4.1-1.2c-2.7-1.3-5.2-2.7-7.8-4.2c-3.6-2.1-7.1-4.2-10.7-6.3c-0.7-0.4-1.3-0.9-0.9-1.7
					c0.2-0.4,1.1-0.6,1.6-0.5c7,1.3,13.8,0.8,20.6-1.1c6.2-1.8,12.4-3.7,18.6-5.5c1-0.3,1.6-0.8,2.2-1.6c0.5-0.7,1.4-1.3,2.2-1.8
					c0.2-0.1,0.8,0,1.1,0.2c0.2,0.2,0.3,0.8,0.1,1.1c-4,8.1-8.8,15.6-16.8,20.5C241.4,174.1,239.4,174.8,237.1,175z M220.8,164.3
					c4.6,3,8.9,6.5,14.2,8.2c1.3,0.4,2.9,0.4,4.2,0c1.6-0.4,3.1-1.3,4.5-2.2c4.7-3.2,8.4-7.4,11.2-12.3c0.3-0.4,0.4-0.9,0.8-1.6
					c-0.8,0.2-1.2,0.3-1.7,0.4c-5.3,1.6-10.6,3.1-15.8,4.7c-3.7,1.1-7.4,2-11.2,2.3C224.9,163.9,222.9,164.1,220.8,164.3z"/>
				<path d="M254,128.5c-3.3-0.7-6.6-1.3-9.7-2.3c-1.7-0.6-3.3-1.7-4.8-2.9c-0.5-0.4-0.8-1.5-0.7-2.2c0.2-1.5,0.4-3.1,1.1-4.4
					c2.8-5.5,7.3-9,13.5-10c6.1-1,11.7,3.8,12.2,10.3c0.5,6-3.4,10.4-9.7,11.1c-0.6,0.1-1.1,0-1.7,0
					C254.1,128.2,254,128.3,254,128.5z M257,125.1c-3.2-1.2-5.1-3.4-6.3-6.4c-1.1-2.9-0.8-5.9-0.2-9.2c-4.8,2.1-8.1,5.2-9.9,9.8
					c-0.9,2.3-0.7,3,1.4,4.4C246.8,126.8,251.9,126.8,257,125.1z M251.9,114.4c0,1.2,0.5,3.2,1.7,5.1c0.9,1.5,2.2,2.5,3.9,3
					c2.2,0.6,5.3-1.3,5.6-3.6c0.6-3.6-1.8-8.2-5.2-9.4C253.2,107.9,252.1,108.9,251.9,114.4z"/>
				<path d="M263.8,105.6c-1.1-0.5-1.9-0.7-2.6-1c-6.6-2.6-13-2-19.1,1.5c-0.9,0.5-1.8,1.1-2.7,1.5c-0.5,0.2-1,0.2-1.8-0.1
					c0.5-0.6,0.9-1.3,1.5-1.7c5.2-4.4,11.2-6.2,18-5C259.9,101.2,262,102.9,263.8,105.6z"/>
				<path d="M216.7,110.4c-1.6,0.9-2.7,0.2-3.8-0.1c-2.7-0.8-5.4-1.3-8.2-0.5c-2.1,0.6-4,1.6-5.7,2.9c-1.2,0.9-2.4,1.7-4,2.7
					c0.3-2,1-3.3,2-4.4c4.5-4.8,12.8-5.7,18.3-2C215.7,109.3,216.1,109.8,216.7,110.4z"/>
				<path d="M338.7,502c-3.7,1.1-7.3,0.8-11.3-0.6C331.6,500.7,335.1,501.5,338.7,502z"/>
				<path class="st5" d="M214.2,300.2c3.3-0.8,6.2-1.5,9.3-2.2c1,2,1,4.3,1.6,6.7c-3.1,0.4-6.1,0.8-9.4,1.2
					C215.2,304,214.7,302.2,214.2,300.2z"/>
				<path class="st6" d="M209.2,251.3c1.6,1.4,3.1,2.6,4.4,3.9c1.1,1.1,1.1,2.6,0.3,3.9c-0.7,1.1-1.5,2.2-2.4,3.5
					c-1.6-1.3-3.1-2.5-4.5-3.7c-0.9-0.8-0.8-1.9-0.4-2.9C207.4,254.5,208.3,253,209.2,251.3z"/>
				<path class="st6" d="M211.9,291.9c1.8-2.7,3.3-4.9,4.9-7.3c1.5,0.8,2.9,1.5,4.5,2.3c-1.5,2.6-3.2,4.6-4.8,7.1
					C215.1,293.3,213.7,292.7,211.9,291.9z"/>
				<path class="st6" d="M217.4,277.3c1.9,1.7,1.9,1.7,0.5,3.8c-0.4,0.7-0.9,1.3-1.5,2.1c-2.1-1-4.1-2-6.4-3.1c1-1.8,2-3.4,3-5.1
					c1,0.4,1.9,0.7,2.9,1C216.4,276.5,216.9,276.9,217.4,277.3z"/>
				<path class="st6" d="M216.3,267.7c-1.2,1.9-2.3,3.7-3.5,5.8c-1.7-1.2-3.2-2.3-4.8-3.4c1.3-1.9,2.5-3.7,3.8-5.7
					C213.3,265.5,214.7,266.5,216.3,267.7z"/>
				<path class="st6" d="M215.9,284.1c-1.3,2-2.4,3.8-3.8,6.1c-0.9-3.2-1.5-6-2.1-9.3C212.2,282,213.9,282.9,215.9,284.1z"/>
				<path class="st6" d="M223.3,296.5c-2.4,0.2-3.8-1.5-5.9-2c1.3-2,2.5-3.8,3.9-5.9C222.4,291.4,222.9,293.8,223.3,296.5z"/>
				<path class="st6" d="M217.4,277.3c-0.5-0.4-1-0.8-1.5-1.2c-0.6-0.7-1.2-1.4-2.1-2.4c0.7-1.3,1.6-2.9,2.8-5
					c0.3,1.2,0.6,2,0.8,2.8c0.4,1.6,0.7,3.3,1.1,4.9C218.6,277.2,218.3,277.5,217.4,277.3z"/>
				<path class="st6" d="M211.7,244.7c-0.8,1.6-1.7,3.2-2.7,5.1c-1.5-1.4-2.8-2.7-4.4-4.2c2.4-1.3,4.7-0.6,6.8-1.3
					C211.6,244.4,211.6,244.6,211.7,244.7z"/>
				<path class="st6" d="M207.6,267.9c-0.3-2.4-0.6-4.9-0.9-7.3c0.1-0.1,0.3-0.2,0.4-0.3c1.2,1.1,2.4,2.1,3.8,3.3
					c-1,1.6-1.9,3-2.8,4.5C207.9,268,207.7,267.9,207.6,267.9z"/>
				<path class="st6" d="M213.3,253.8c-1.2-1.1-2.3-2.2-3.6-3.5c0.9-1.8,1.7-3.4,2.5-5.1c0.1,0,0.2,0.1,0.4,0.1
					c0.4,2.7,0.8,5.5,1.2,8.2C213.6,253.7,213.5,253.8,213.3,253.8z"/>
				<path class="st6" d="M208.8,271.6c1.1,0.8,2.2,1.7,3.5,2.6c-0.8,1.5-1.6,2.9-2.3,4.2c-0.2,0-0.3-0.1-0.5-0.1
					c-0.4-2.2-0.8-4.4-1.2-6.6C208.4,271.8,208.6,271.7,208.8,271.6z"/>
				<path class="st6" d="M212.4,263.4c0.8-1.2,1.5-2.3,2.1-3.4c0.2,0,0.3,0.1,0.5,0.1c0.4,2,0.8,4.1,1.2,6.1
					c-0.2,0.1-0.3,0.2-0.5,0.3C214.7,265.4,213.6,264.4,212.4,263.4z"/>
				<path class="st6" d="M206,254.4c-0.2-2-0.4-4.1-0.6-6.4c1.5,0.5,2.1,1.7,3.2,2.5c-0.7,1.4-1.4,2.7-2,4
					C206.4,254.5,206.2,254.4,206,254.4z"/>
				<path class="st6" d="M214.7,298.4c0.7-1,1.4-2,2.3-3.3c1.1,0.6,2.2,1.1,3.8,1.9c-2.3,0.7-4.1,1.2-6,1.7
					C214.8,298.6,214.7,298.5,214.7,298.4z"/>
				<path class="st6" d="M216.1,294.7c-0.7,1.1-1.3,2-2.2,3.5c-0.4-1.9-0.8-3.3-1.2-5.3C214.1,293.6,215,294.2,216.1,294.7z"/>
				<path class="st6" d="M220.7,285.7c-1.3-0.8-2.2-1.3-3.4-1.9c0.6-1,1.1-1.9,2-3.3C219.8,282.4,220.2,283.8,220.7,285.7z"/>
				<path class="st6" d="M289.3,273.6c-1.2-1.6-2.4-3.1-3.7-4.8c0.2-0.4,0.5-0.8,0.9-1.4c-0.6,0.2-1.1,0.3-1.7,0.4
					c-1.1-1.2-2.1-2.5-3.5-4c1.9-1.3,3.5-2.5,5.3-3.8c1.3,1.1,2.5,2.2,3.9,3.3c-0.2,3.4-0.4,6.7-0.6,10.1
					C289.7,273.6,289.5,273.6,289.3,273.6z"/>
				<path class="st5" d="M288.4,298c-2.4,0.3-4.6,0.6-7.1,0.9c-0.3-2.6-0.5-5.1-0.8-7.8c2.7-0.2,5.2-0.5,7.9-0.7
					C288.4,292.9,288.4,295.4,288.4,298z"/>
				<path class="st6" d="M290.3,254c0.4,1.1,0.9,2.2-0.1,3.2l0.1-0.1c-1.1,0.5-2.3,1.1-3.4,1.6c-1.4-1.3-2.7-2.6-4.2-4
					c1.6-1,3.1-2,4.5-2.9C288.3,252.5,289.3,253.3,290.3,254L290.3,254z"/>
				<path class="st6" d="M289.4,275.1c-1.2,0.6-2.4,1.2-3.8,2c-1.4-1.7-2.8-3.4-4.3-5.2c1.1-0.9,2.1-1.6,3.3-2.6
					C286.3,271.1,288.1,272.9,289.4,275.1L289.4,275.1z"/>
				<path class="st6" d="M288.8,282.5c-1.3,0.9-2.6,1.7-4,2.6c-1.5-1.3-3.2-2.3-4.2-4.4c1.8-0.9,3.3-1.6,4.9-2.4
					C286.6,279.8,287.7,281.2,288.8,282.5C288.8,282.5,288.8,282.5,288.8,282.5z"/>
				<path class="st6" d="M283.6,246.2c1.2-0.9,2.1-1.5,3.3-2.4c1.3,1.6,2.4,3.1,3.7,4.7c-0.7,0.4-1.9,1.1-3.2,1.8
					C286.2,249,285,247.7,283.6,246.2z"/>
				<path class="st6" d="M290.4,240.7c0.4-0.1,0.8-0.1,1.5-0.2c-0.1,2.2-0.2,4.2-0.3,6.9c-1.7-1.5-2.9-2.6-4.1-3.8
					C288.5,242.5,289.4,241.6,290.4,240.7C290.4,240.7,290.4,240.7,290.4,240.7z"/>
				<path class="st6" d="M282.2,254c0.2-2.7,0.4-4.9,0.6-7.7c1.5,1.7,2.7,3,4,4.5C285.3,251.9,283.9,252.8,282.2,254z"/>
				<path class="st6" d="M284.7,277.7c-1.3,0.7-2.5,1.3-3.8,2c0-2.4,0-4.4,0-6.5C282.2,273.7,282.9,274.5,284.7,277.7z"/>
				<path class="st6" d="M281.6,262.6c0.2-2.7,0.3-4.8,0.4-6.9c0.2-0.1,0.3-0.1,0.5-0.2c1.1,1.2,2.2,2.4,3.4,3.8
					C284.5,260.4,283.3,261.3,281.6,262.6z"/>
				<path class="st6" d="M280.6,289c1.2-0.8,2.5-1.6,3.9-2.5c0.8,0.7,1.7,1.4,2.9,2.4c-2.5,0.3-4.5,0.5-6.5,0.8
					C280.7,289.5,280.6,289.2,280.6,289z"/>
				<path class="st6" d="M289.4,275.1c-0.2,2.5-0.4,5-0.7,7.5c0,0,0,0,0,0c-0.8-1.5-1.5-3-2.3-4.6C287.4,277,288.4,276,289.4,275.1
					C289.4,275.1,289.4,275.1,289.4,275.1z"/>
				<path class="st6" d="M290.2,257.1c0.2,0.4,0.6,0.7,0.6,1.1c0,1.2-0.2,2.4-0.3,3.7c-1.4-0.4-2-1.5-2.9-2.4
					C288.5,258.6,289.3,257.9,290.2,257.1C290.2,257.1,290.2,257.1,290.2,257.1z"/>
				<path class="st6" d="M283.5,286c-0.8,0.6-1.7,1.2-2.8,2.1c0-1.8,0-3.3,0-5.2C281.8,284.1,282.6,285,283.5,286z"/>
				<path class="st6" d="M286,242.6c-0.3,1.5-1.8,1.8-2.6,2.8c-0.2-0.1-0.3-0.1-0.5-0.2c0.1-1.4,0.2-2.9,0.3-4.5
					c0.4,0.1,0.7,0.1,1,0.2C284.8,241.5,285.4,242.1,286,242.6z"/>
				<path class="st6" d="M290.3,254L290.3,254c-0.6-0.9-1.3-1.8-2.2-2.9c1-0.7,1.8-1.3,3-2.2c0.2,1.9,0,3.5-0.4,5
					C290.7,254,290.4,253.9,290.3,254z"/>
				<path class="st6" d="M288.8,283.7c-0.1,1.4-0.1,2.8-0.2,4.7c-1.2-0.9-2-1.7-3.2-2.6c1.1-0.9,2-1.7,3-2.4
					C288.5,283.6,288.6,283.7,288.8,283.7z"/>
				<path class="st6" d="M286,242.6c-0.6-0.6-1.2-1.1-1.8-1.7c0.4-0.2,0.8-0.6,1.2-0.6c1.7,0,3.3,0.2,5,0.3c0,0,0,0,0,0
					c-0.8,0.4-1.6,0.9-2.5,1.2C287.3,242.2,286.7,242.4,286,242.6z"/>
				<path class="st6" d="M281.3,270.8c0-2,0-3.4,0-5.2c1.4,0.8,1.9,1.9,2.8,3C283.2,269.2,282.4,269.9,281.3,270.8z"/>
				<path class="st7" d="M214,131.3c-3.4,1-6.5,0.8-9.6-0.2c-5.4-1.8-6.9-6.9-3.4-11.4c2.1-2.6,4.8-3.6,8.1-3
					C206.9,122.8,209.7,127.1,214,131.3z"/>
				<path class="st4" d="M210.5,120.2c0-2.1,1.1-3.5,3.4-2.2c2.9,1.7,5.3,4,7.3,6.8c0.7,1,0.7,1.8-0.1,2.8c-1.7,2.3-3.9,2.7-6.2,0.9
					C212.2,126.4,210.9,123.5,210.5,120.2z"/>
				<path class="st7" d="M220.8,164.3c2-0.2,4.1-0.4,6.1-0.5c3.9-0.3,7.6-1.2,11.2-2.3c5.3-1.6,10.6-3.2,15.8-4.7
					c0.4-0.1,0.9-0.2,1.7-0.4c-0.3,0.7-0.5,1.2-0.8,1.6c-2.9,4.9-6.5,9.1-11.2,12.3c-1.4,0.9-2.9,1.8-4.5,2.2
					c-1.3,0.4-2.9,0.4-4.2,0C229.7,170.8,225.4,167.3,220.8,164.3z"/>
				<path class="st7" d="M257,125.1c-5.2,1.8-10.2,1.7-14.9-1.4c-2.1-1.4-2.3-2.1-1.4-4.4c1.8-4.6,5.1-7.6,9.9-9.8
					c-0.6,3.3-1,6.3,0.2,9.2C251.9,121.7,253.9,123.9,257,125.1z"/>
				<path class="st4" d="M251.9,114.4c0.2-5.5,1.3-6.5,5.9-4.8c3.4,1.2,5.8,5.8,5.2,9.4c-0.4,2.3-3.4,4.2-5.6,3.6
					c-1.7-0.5-3-1.6-3.9-3C252.4,117.6,251.9,115.6,251.9,114.4z"/>
			</g>
			<g>
				<path class="st8" d="M184.2,143.3c-1.5-5.5,2.8-16.4,10.1-14.7c2.9,0.7,2.9,3.8,4.5,5.8c2.3,2.8,6.2,4.9,6.6,8.9
					c0.2,2.4-0.9,4.8-2.7,6.5c-1.8,1.6-4.2,2.4-6.7,2.5C190.7,152.3,185.6,148.4,184.2,143.3z"/>
				<path class="st8" d="M261.3,133.9c-0.8,2.5,0.8,5.4,3.2,6.6s5.3,1,7.7,0c2.5-1,4.6-2.7,6.6-4.5c1.1-1,2.2-2,3-3.2
					c0.9-1.6,1.1-3.4,1.3-5.2c0.1-1.1,0.3-2.2,0-3.3c-0.5-2.2-2.6-3.8-4.8-4.2c-4-0.7-7.4,1.8-9.9,4.6c-1.3,1.4-2.3,3.1-3.5,4.6
					C263.6,130.8,262,131.9,261.3,133.9z"/>
			</g>
		</g>
		<g>
			<g>
				<rect x="106" y="487.8" class="st9" width="18.6" height="557.4"/>
				<path d="M124.6,1046.7H106c-0.8,0-1.5-0.7-1.5-1.5V487.8c0-0.8,0.7-1.5,1.5-1.5h18.6c0.8,0,1.5,0.7,1.5,1.5v557.4
					C126.1,1046,125.4,1046.7,124.6,1046.7z M107.5,1043.7h15.6V489.3h-15.6V1043.7z"/>
			</g>
			<g>
				<path class="st10" d="M69.7,1041.7"/>
			</g>
			<g>
				<g>
					<path d="M118.7,493.9h-11.6c-0.8,0-1.5-0.7-1.5-1.5s0.7-1.5,1.5-1.5h11.6c0.8,0,1.5,0.7,1.5,1.5S119.5,493.9,118.7,493.9z"/>
				</g>
				<g>
					<path d="M118.7,522.8h-11.6c-0.8,0-1.5-0.7-1.5-1.5s0.7-1.5,1.5-1.5h11.6c0.8,0,1.5,0.7,1.5,1.5S119.5,522.8,118.7,522.8z"/>
				</g>
				<g>
					<path d="M113.7,499.7h-6.7c-0.8,0-1.5-0.7-1.5-1.5s0.7-1.5,1.5-1.5h6.7c0.8,0,1.5,0.7,1.5,1.5S114.6,499.7,113.7,499.7z"/>
				</g>
				<g>
					<path d="M113.7,505.5h-6.7c-0.8,0-1.5-0.7-1.5-1.5s0.7-1.5,1.5-1.5h6.7c0.8,0,1.5,0.7,1.5,1.5S114.6,505.5,113.7,505.5z"/>
				</g>
				<g>
					<path d="M113.7,511.2h-6.7c-0.8,0-1.5-0.7-1.5-1.5s0.7-1.5,1.5-1.5h6.7c0.8,0,1.5,0.7,1.5,1.5S114.6,511.2,113.7,511.2z"/>
				</g>
				<g>
					<path d="M113.7,517h-6.7c-0.8,0-1.5-0.7-1.5-1.5s0.7-1.5,1.5-1.5h6.7c0.8,0,1.5,0.7,1.5,1.5S114.6,517,113.7,517z"/>
				</g>
				<g>
					<path d="M118.7,551.7h-11.6c-0.8,0-1.5-0.7-1.5-1.5s0.7-1.5,1.5-1.5h11.6c0.8,0,1.5,0.7,1.5,1.5S119.5,551.7,118.7,551.7z"/>
				</g>
				<g>
					<path d="M113.7,528.6h-6.7c-0.8,0-1.5-0.7-1.5-1.5c0-0.8,0.7-1.5,1.5-1.5h6.7c0.8,0,1.5,0.7,1.5,1.5
						C115.2,527.9,114.6,528.6,113.7,528.6z"/>
				</g>
				<g>
					<path d="M113.7,534.3h-6.7c-0.8,0-1.5-0.7-1.5-1.5s0.7-1.5,1.5-1.5h6.7c0.8,0,1.5,0.7,1.5,1.5S114.6,534.3,113.7,534.3z"/>
				</g>
				<g>
					<path d="M113.7,540.1h-6.7c-0.8,0-1.5-0.7-1.5-1.5s0.7-1.5,1.5-1.5h6.7c0.8,0,1.5,0.7,1.5,1.5S114.6,540.1,113.7,540.1z"/>
				</g>
				<g>
					<path d="M113.7,545.9h-6.7c-0.8,0-1.5-0.7-1.5-1.5s0.7-1.5,1.5-1.5h6.7c0.8,0,1.5,0.7,1.5,1.5S114.6,545.9,113.7,545.9z"/>
				</g>
				<g>
					<path d="M113.7,557.4h-6.7c-0.8,0-1.5-0.7-1.5-1.5s0.7-1.5,1.5-1.5h6.7c0.8,0,1.5,0.7,1.5,1.5S114.6,557.4,113.7,557.4z"/>
				</g>
				<g>
					<path d="M113.7,563.2h-6.7c-0.8,0-1.5-0.7-1.5-1.5s0.7-1.5,1.5-1.5h6.7c0.8,0,1.5,0.7,1.5,1.5S114.6,563.2,113.7,563.2z"/>
				</g>
				<g>
					<path d="M113.7,569h-6.7c-0.8,0-1.5-0.7-1.5-1.5s0.7-1.5,1.5-1.5h6.7c0.8,0,1.5,0.7,1.5,1.5S114.6,569,113.7,569z"/>
				</g>
				<g>
					<path d="M113.7,574.7h-6.7c-0.8,0-1.5-0.7-1.5-1.5s0.7-1.5,1.5-1.5h6.7c0.8,0,1.5,0.7,1.5,1.5S114.6,574.7,113.7,574.7z"/>
				</g>
				<g>
					<path d="M118.7,580.5h-11.6c-0.8,0-1.5-0.7-1.5-1.5s0.7-1.5,1.5-1.5h11.6c0.8,0,1.5,0.7,1.5,1.5S119.5,580.5,118.7,580.5z"/>
				</g>
				<g>
					<path d="M113.7,586.3h-6.7c-0.8,0-1.5-0.7-1.5-1.5s0.7-1.5,1.5-1.5h6.7c0.8,0,1.5,0.7,1.5,1.5S114.6,586.3,113.7,586.3z"/>
				</g>
				<g>
					<path d="M113.7,592.1h-6.7c-0.8,0-1.5-0.7-1.5-1.5s0.7-1.5,1.5-1.5h6.7c0.8,0,1.5,0.7,1.5,1.5S114.6,592.1,113.7,592.1z"/>
				</g>
				<g>
					<path d="M113.7,597.8h-6.7c-0.8,0-1.5-0.7-1.5-1.5s0.7-1.5,1.5-1.5h6.7c0.8,0,1.5,0.7,1.5,1.5S114.6,597.8,113.7,597.8z"/>
				</g>
				<g>
					<path d="M113.7,603.6h-6.7c-0.8,0-1.5-0.7-1.5-1.5s0.7-1.5,1.5-1.5h6.7c0.8,0,1.5,0.7,1.5,1.5S114.6,603.6,113.7,603.6z"/>
				</g>
				<g>
					<path d="M118.7,609.4h-11.6c-0.8,0-1.5-0.7-1.5-1.5s0.7-1.5,1.5-1.5h11.6c0.8,0,1.5,0.7,1.5,1.5S119.5,609.4,118.7,609.4z"/>
				</g>
				<g>
					<path d="M118.7,638.2h-11.6c-0.8,0-1.5-0.7-1.5-1.5s0.7-1.5,1.5-1.5h11.6c0.8,0,1.5,0.7,1.5,1.5S119.5,638.2,118.7,638.2z"/>
				</g>
				<g>
					<path d="M113.7,615.1h-6.7c-0.8,0-1.5-0.7-1.5-1.5s0.7-1.5,1.5-1.5h6.7c0.8,0,1.5,0.7,1.5,1.5S114.6,615.1,113.7,615.1z"/>
				</g>
				<g>
					<path d="M113.7,620.9h-6.7c-0.8,0-1.5-0.7-1.5-1.5s0.7-1.5,1.5-1.5h6.7c0.8,0,1.5,0.7,1.5,1.5S114.6,620.9,113.7,620.9z"/>
				</g>
				<g>
					<path d="M113.7,626.7h-6.7c-0.8,0-1.5-0.7-1.5-1.5s0.7-1.5,1.5-1.5h6.7c0.8,0,1.5,0.7,1.5,1.5S114.6,626.7,113.7,626.7z"/>
				</g>
				<g>
					<path d="M113.7,632.5h-6.7c-0.8,0-1.5-0.7-1.5-1.5s0.7-1.5,1.5-1.5h6.7c0.8,0,1.5,0.7,1.5,1.5S114.6,632.5,113.7,632.5z"/>
				</g>
				<g>
					<path d="M118.7,667.1h-11.6c-0.8,0-1.5-0.7-1.5-1.5s0.7-1.5,1.5-1.5h11.6c0.8,0,1.5,0.7,1.5,1.5S119.5,667.1,118.7,667.1z"/>
				</g>
				<g>
					<path d="M113.7,644h-6.7c-0.8,0-1.5-0.7-1.5-1.5s0.7-1.5,1.5-1.5h6.7c0.8,0,1.5,0.7,1.5,1.5S114.6,644,113.7,644z"/>
				</g>
				<g>
					<path d="M113.7,649.8h-6.7c-0.8,0-1.5-0.7-1.5-1.5s0.7-1.5,1.5-1.5h6.7c0.8,0,1.5,0.7,1.5,1.5S114.6,649.8,113.7,649.8z"/>
				</g>
				<g>
					<path d="M113.7,655.6h-6.7c-0.8,0-1.5-0.7-1.5-1.5s0.7-1.5,1.5-1.5h6.7c0.8,0,1.5,0.7,1.5,1.5S114.6,655.6,113.7,655.6z"/>
				</g>
				<g>
					<path d="M113.7,661.3h-6.7c-0.8,0-1.5-0.7-1.5-1.5s0.7-1.5,1.5-1.5h6.7c0.8,0,1.5,0.7,1.5,1.5S114.6,661.3,113.7,661.3z"/>
				</g>
				<g>
					<path d="M113.7,672.9h-6.7c-0.8,0-1.5-0.7-1.5-1.5s0.7-1.5,1.5-1.5h6.7c0.8,0,1.5,0.7,1.5,1.5S114.6,672.9,113.7,672.9z"/>
				</g>
				<g>
					<path d="M113.7,678.6h-6.7c-0.8,0-1.5-0.7-1.5-1.5s0.7-1.5,1.5-1.5h6.7c0.8,0,1.5,0.7,1.5,1.5S114.6,678.6,113.7,678.6z"/>
				</g>
				<g>
					<path d="M113.7,684.4h-6.7c-0.8,0-1.5-0.7-1.5-1.5s0.7-1.5,1.5-1.5h6.7c0.8,0,1.5,0.7,1.5,1.5S114.6,684.4,113.7,684.4z"/>
				</g>
				<g>
					<path d="M113.7,690.2h-6.7c-0.8,0-1.5-0.7-1.5-1.5s0.7-1.5,1.5-1.5h6.7c0.8,0,1.5,0.7,1.5,1.5S114.6,690.2,113.7,690.2z"/>
				</g>
				<g>
					<path d="M118.7,696h-11.6c-0.8,0-1.5-0.7-1.5-1.5s0.7-1.5,1.5-1.5h11.6c0.8,0,1.5,0.7,1.5,1.5S119.5,696,118.7,696z"/>
				</g>
				<g>
					<path d="M113.7,701.7h-6.7c-0.8,0-1.5-0.7-1.5-1.5s0.7-1.5,1.5-1.5h6.7c0.8,0,1.5,0.7,1.5,1.5S114.6,701.7,113.7,701.7z"/>
				</g>
				<g>
					<path d="M113.7,707.5h-6.7c-0.8,0-1.5-0.7-1.5-1.5s0.7-1.5,1.5-1.5h6.7c0.8,0,1.5,0.7,1.5,1.5S114.6,707.5,113.7,707.5z"/>
				</g>
				<g>
					<path d="M113.7,713.3h-6.7c-0.8,0-1.5-0.7-1.5-1.5s0.7-1.5,1.5-1.5h6.7c0.8,0,1.5,0.7,1.5,1.5S114.6,713.3,113.7,713.3z"/>
				</g>
				<g>
					<path d="M113.7,719.1h-6.7c-0.8,0-1.5-0.7-1.5-1.5s0.7-1.5,1.5-1.5h6.7c0.8,0,1.5,0.7,1.5,1.5S114.6,719.1,113.7,719.1z"/>
				</g>
				<g>
					<path d="M118.7,724.8h-11.6c-0.8,0-1.5-0.7-1.5-1.5s0.7-1.5,1.5-1.5h11.6c0.8,0,1.5,0.7,1.5,1.5S119.5,724.8,118.7,724.8z"/>
				</g>
				<g>
					<path d="M118.7,753.7h-11.6c-0.8,0-1.5-0.7-1.5-1.5s0.7-1.5,1.5-1.5h11.6c0.8,0,1.5,0.7,1.5,1.5S119.5,753.7,118.7,753.7z"/>
				</g>
				<g>
					<path d="M113.7,730.6h-6.7c-0.8,0-1.5-0.7-1.5-1.5s0.7-1.5,1.5-1.5h6.7c0.8,0,1.5,0.7,1.5,1.5S114.6,730.6,113.7,730.6z"/>
				</g>
				<g>
					<path d="M113.7,736.4h-6.7c-0.8,0-1.5-0.7-1.5-1.5s0.7-1.5,1.5-1.5h6.7c0.8,0,1.5,0.7,1.5,1.5S114.6,736.4,113.7,736.4z"/>
				</g>
				<g>
					<path d="M113.7,742.1h-6.7c-0.8,0-1.5-0.7-1.5-1.5s0.7-1.5,1.5-1.5h6.7c0.8,0,1.5,0.7,1.5,1.5S114.6,742.1,113.7,742.1z"/>
				</g>
				<g>
					<path d="M113.7,747.9h-6.7c-0.8,0-1.5-0.7-1.5-1.5s0.7-1.5,1.5-1.5h6.7c0.8,0,1.5,0.7,1.5,1.5S114.6,747.9,113.7,747.9z"/>
				</g>
				<g>
					<path d="M118.7,782.6h-11.6c-0.8,0-1.5-0.7-1.5-1.5s0.7-1.5,1.5-1.5h11.6c0.8,0,1.5,0.7,1.5,1.5S119.5,782.6,118.7,782.6z"/>
				</g>
				<g>
					<path d="M113.7,759.5h-6.7c-0.8,0-1.5-0.7-1.5-1.5s0.7-1.5,1.5-1.5h6.7c0.8,0,1.5,0.7,1.5,1.5S114.6,759.5,113.7,759.5z"/>
				</g>
				<g>
					<path d="M113.7,765.2h-6.7c-0.8,0-1.5-0.7-1.5-1.5s0.7-1.5,1.5-1.5h6.7c0.8,0,1.5,0.7,1.5,1.5S114.6,765.2,113.7,765.2z"/>
				</g>
				<g>
					<path d="M113.7,771h-6.7c-0.8,0-1.5-0.7-1.5-1.5s0.7-1.5,1.5-1.5h6.7c0.8,0,1.5,0.7,1.5,1.5S114.6,771,113.7,771z"/>
				</g>
				<g>
					<path d="M113.7,776.8h-6.7c-0.8,0-1.5-0.7-1.5-1.5s0.7-1.5,1.5-1.5h6.7c0.8,0,1.5,0.7,1.5,1.5S114.6,776.8,113.7,776.8z"/>
				</g>
				<g>
					<path d="M113.7,788.3h-6.7c-0.8,0-1.5-0.7-1.5-1.5s0.7-1.5,1.5-1.5h6.7c0.8,0,1.5,0.7,1.5,1.5S114.6,788.3,113.7,788.3z"/>
				</g>
				<g>
					<path d="M113.7,794.1h-6.7c-0.8,0-1.5-0.7-1.5-1.5s0.7-1.5,1.5-1.5h6.7c0.8,0,1.5,0.7,1.5,1.5S114.6,794.1,113.7,794.1z"/>
				</g>
				<g>
					<path d="M113.7,799.9h-6.7c-0.8,0-1.5-0.7-1.5-1.5s0.7-1.5,1.5-1.5h6.7c0.8,0,1.5,0.7,1.5,1.5S114.6,799.9,113.7,799.9z"/>
				</g>
				<g>
					<path d="M113.7,805.6h-6.7c-0.8,0-1.5-0.7-1.5-1.5s0.7-1.5,1.5-1.5h6.7c0.8,0,1.5,0.7,1.5,1.5S114.6,805.6,113.7,805.6z"/>
				</g>
				<g>
					<path d="M118.7,811.4h-11.6c-0.8,0-1.5-0.7-1.5-1.5s0.7-1.5,1.5-1.5h11.6c0.8,0,1.5,0.7,1.5,1.5S119.5,811.4,118.7,811.4z"/>
				</g>
				<g>
					<path d="M113.7,817.2h-6.7c-0.8,0-1.5-0.7-1.5-1.5s0.7-1.5,1.5-1.5h6.7c0.8,0,1.5,0.7,1.5,1.5S114.6,817.2,113.7,817.2z"/>
				</g>
				<g>
					<path d="M113.7,823h-6.7c-0.8,0-1.5-0.7-1.5-1.5s0.7-1.5,1.5-1.5h6.7c0.8,0,1.5,0.7,1.5,1.5S114.6,823,113.7,823z"/>
				</g>
				<g>
					<path d="M113.7,828.7h-6.7c-0.8,0-1.5-0.7-1.5-1.5s0.7-1.5,1.5-1.5h6.7c0.8,0,1.5,0.7,1.5,1.5S114.6,828.7,113.7,828.7z"/>
				</g>
				<g>
					<path d="M113.7,834.5h-6.7c-0.8,0-1.5-0.7-1.5-1.5s0.7-1.5,1.5-1.5h6.7c0.8,0,1.5,0.7,1.5,1.5S114.6,834.5,113.7,834.5z"/>
				</g>
				<g>
					<path d="M118.7,840.3h-11.6c-0.8,0-1.5-0.7-1.5-1.5s0.7-1.5,1.5-1.5h11.6c0.8,0,1.5,0.7,1.5,1.5S119.5,840.3,118.7,840.3z"/>
				</g>
				<g>
					<path d="M118.7,869.1h-11.6c-0.8,0-1.5-0.7-1.5-1.5s0.7-1.5,1.5-1.5h11.6c0.8,0,1.5,0.7,1.5,1.5S119.5,869.1,118.7,869.1z"/>
				</g>
				<g>
					<path d="M113.7,846h-6.7c-0.8,0-1.5-0.7-1.5-1.5s0.7-1.5,1.5-1.5h6.7c0.8,0,1.5,0.7,1.5,1.5S114.6,846,113.7,846z"/>
				</g>
				<g>
					<path d="M113.7,851.8h-6.7c-0.8,0-1.5-0.7-1.5-1.5s0.7-1.5,1.5-1.5h6.7c0.8,0,1.5,0.7,1.5,1.5S114.6,851.8,113.7,851.8z"/>
				</g>
				<g>
					<path d="M113.7,857.6h-6.7c-0.8,0-1.5-0.7-1.5-1.5s0.7-1.5,1.5-1.5h6.7c0.8,0,1.5,0.7,1.5,1.5S114.6,857.6,113.7,857.6z"/>
				</g>
				<g>
					<path d="M113.7,863.4h-6.7c-0.8,0-1.5-0.7-1.5-1.5s0.7-1.5,1.5-1.5h6.7c0.8,0,1.5,0.7,1.5,1.5S114.6,863.4,113.7,863.4z"/>
				</g>
				<g>
					<path d="M118.7,898h-11.6c-0.8,0-1.5-0.7-1.5-1.5s0.7-1.5,1.5-1.5h11.6c0.8,0,1.5,0.7,1.5,1.5S119.5,898,118.7,898z"/>
				</g>
				<g>
					<path d="M113.7,874.9h-6.7c-0.8,0-1.5-0.7-1.5-1.5s0.7-1.5,1.5-1.5h6.7c0.8,0,1.5,0.7,1.5,1.5S114.6,874.9,113.7,874.9z"/>
				</g>
				<g>
					<path d="M113.7,880.7h-6.7c-0.8,0-1.5-0.7-1.5-1.5s0.7-1.5,1.5-1.5h6.7c0.8,0,1.5,0.7,1.5,1.5S114.6,880.7,113.7,880.7z"/>
				</g>
				<g>
					<path d="M113.7,886.5h-6.7c-0.8,0-1.5-0.7-1.5-1.5s0.7-1.5,1.5-1.5h6.7c0.8,0,1.5,0.7,1.5,1.5S114.6,886.5,113.7,886.5z"/>
				</g>
				<g>
					<path d="M113.7,892.2h-6.7c-0.8,0-1.5-0.7-1.5-1.5s0.7-1.5,1.5-1.5h6.7c0.8,0,1.5,0.7,1.5,1.5S114.6,892.2,113.7,892.2z"/>
				</g>
				<g>
					<path d="M113.7,903.8h-6.7c-0.8,0-1.5-0.7-1.5-1.5s0.7-1.5,1.5-1.5h6.7c0.8,0,1.5,0.7,1.5,1.5S114.6,903.8,113.7,903.8z"/>
				</g>
				<g>
					<path d="M113.7,909.5h-6.7c-0.8,0-1.5-0.7-1.5-1.5s0.7-1.5,1.5-1.5h6.7c0.8,0,1.5,0.7,1.5,1.5S114.6,909.5,113.7,909.5z"/>
				</g>
				<g>
					<path d="M113.7,915.3h-6.7c-0.8,0-1.5-0.7-1.5-1.5s0.7-1.5,1.5-1.5h6.7c0.8,0,1.5,0.7,1.5,1.5S114.6,915.3,113.7,915.3z"/>
				</g>
				<g>
					<path d="M113.7,921.1h-6.7c-0.8,0-1.5-0.7-1.5-1.5s0.7-1.5,1.5-1.5h6.7c0.8,0,1.5,0.7,1.5,1.5S114.6,921.1,113.7,921.1z"/>
				</g>
				<g>
					<path d="M118.7,926.9h-11.6c-0.8,0-1.5-0.7-1.5-1.5s0.7-1.5,1.5-1.5h11.6c0.8,0,1.5,0.7,1.5,1.5S119.5,926.9,118.7,926.9z"/>
				</g>
				<g>
					<path d="M113.7,932.6h-6.7c-0.8,0-1.5-0.7-1.5-1.5s0.7-1.5,1.5-1.5h6.7c0.8,0,1.5,0.7,1.5,1.5S114.6,932.6,113.7,932.6z"/>
				</g>
				<g>
					<path d="M113.7,938.4h-6.7c-0.8,0-1.5-0.7-1.5-1.5s0.7-1.5,1.5-1.5h6.7c0.8,0,1.5,0.7,1.5,1.5S114.6,938.4,113.7,938.4z"/>
				</g>
				<g>
					<path d="M113.7,944.2h-6.7c-0.8,0-1.5-0.7-1.5-1.5s0.7-1.5,1.5-1.5h6.7c0.8,0,1.5,0.7,1.5,1.5S114.6,944.2,113.7,944.2z"/>
				</g>
				<g>
					<path d="M113.7,949.9h-6.7c-0.8,0-1.5-0.7-1.5-1.5s0.7-1.5,1.5-1.5h6.7c0.8,0,1.5,0.7,1.5,1.5S114.6,949.9,113.7,949.9z"/>
				</g>
				<g>
					<path d="M118.7,955.7h-11.6c-0.8,0-1.5-0.7-1.5-1.5s0.7-1.5,1.5-1.5h11.6c0.8,0,1.5,0.7,1.5,1.5S119.5,955.7,118.7,955.7z"/>
				</g>
				<g>
					<path d="M118.7,984.6h-11.6c-0.8,0-1.5-0.7-1.5-1.5s0.7-1.5,1.5-1.5h11.6c0.8,0,1.5,0.7,1.5,1.5S119.5,984.6,118.7,984.6z"/>
				</g>
				<g>
					<path d="M113.7,961.5h-6.7c-0.8,0-1.5-0.7-1.5-1.5s0.7-1.5,1.5-1.5h6.7c0.8,0,1.5,0.7,1.5,1.5S114.6,961.5,113.7,961.5z"/>
				</g>
				<g>
					<path d="M113.7,967.3h-6.7c-0.8,0-1.5-0.7-1.5-1.5s0.7-1.5,1.5-1.5h6.7c0.8,0,1.5,0.7,1.5,1.5S114.6,967.3,113.7,967.3z"/>
				</g>
				<g>
					<path d="M113.7,973h-6.7c-0.8,0-1.5-0.7-1.5-1.5s0.7-1.5,1.5-1.5h6.7c0.8,0,1.5,0.7,1.5,1.5S114.6,973,113.7,973z"/>
				</g>
				<g>
					<path d="M113.7,978.8h-6.7c-0.8,0-1.5-0.7-1.5-1.5s0.7-1.5,1.5-1.5h6.7c0.8,0,1.5,0.7,1.5,1.5S114.6,978.8,113.7,978.8z"/>
				</g>
				<g>
					<path d="M113.7,990.4h-6.7c-0.8,0-1.5-0.7-1.5-1.5s0.7-1.5,1.5-1.5h6.7c0.8,0,1.5,0.7,1.5,1.5S114.6,990.4,113.7,990.4z"/>
				</g>
				<g>
					<path d="M113.7,996.1h-6.7c-0.8,0-1.5-0.7-1.5-1.5s0.7-1.5,1.5-1.5h6.7c0.8,0,1.5,0.7,1.5,1.5S114.6,996.1,113.7,996.1z"/>
				</g>
				<g>
					<path d="M113.7,1001.9h-6.7c-0.8,0-1.5-0.7-1.5-1.5s0.7-1.5,1.5-1.5h6.7c0.8,0,1.5,0.7,1.5,1.5S114.6,1001.9,113.7,1001.9z"/>
				</g>
				<g>
					<path d="M113.7,1007.7h-6.7c-0.8,0-1.5-0.7-1.5-1.5s0.7-1.5,1.5-1.5h6.7c0.8,0,1.5,0.7,1.5,1.5S114.6,1007.7,113.7,1007.7z"/>
				</g>
				<g>
					<path d="M118.7,1013.4h-11.6c-0.8,0-1.5-0.7-1.5-1.5s0.7-1.5,1.5-1.5h11.6c0.8,0,1.5,0.7,1.5,1.5S119.5,1013.4,118.7,1013.4z"
						/>
				</g>
				<g>
					<path d="M118.7,1042.3h-11.6c-0.8,0-1.5-0.7-1.5-1.5s0.7-1.5,1.5-1.5h11.6c0.8,0,1.5,0.7,1.5,1.5S119.5,1042.3,118.7,1042.3z"
						/>
				</g>
				<g>
					<path d="M113.7,1019.2h-6.7c-0.8,0-1.5-0.7-1.5-1.5s0.7-1.5,1.5-1.5h6.7c0.8,0,1.5,0.7,1.5,1.5S114.6,1019.2,113.7,1019.2z"/>
				</g>
				<g>
					<path d="M113.7,1025h-6.7c-0.8,0-1.5-0.7-1.5-1.5s0.7-1.5,1.5-1.5h6.7c0.8,0,1.5,0.7,1.5,1.5S114.6,1025,113.7,1025z"/>
				</g>
				<g>
					<path d="M113.7,1030.8h-6.7c-0.8,0-1.5-0.7-1.5-1.5s0.7-1.5,1.5-1.5h6.7c0.8,0,1.5,0.7,1.5,1.5S114.6,1030.8,113.7,1030.8z"/>
				</g>
				<g>
					<path d="M113.7,1036.5h-6.7c-0.8,0-1.5-0.7-1.5-1.5s0.7-1.5,1.5-1.5h6.7c0.8,0,1.5,0.7,1.5,1.5S114.6,1036.5,113.7,1036.5z"/>
				</g>
			</g>
		</g>
	</g>
</g>
<g id="Слой5_x28_2_x29__xA0_Изображение_1_">
</g>
<g id="Слой5_x28_3_x29__xA0_Изображение_1_">
</g>
<g id="Слой5_x28_4_x29__xA0_Изображение_1_">
</g>
<g id="Слой6_xA0_Изображение_1_">
</g>
<g id="Слой7_xA0_Изображение_1_">
</g>
<g id="Слой8_xA0_Изображение_1_">
</g>
<g id="Слой9_xA0_Изображение_1_">
</g>
<g id="Слой10_xA0_Изображение_1_">
</g>
<g id="Слой11_xA0_Изображение_1_">
</g>
<g id="Слой12_xA0_Изображение_1_">
</g>
<g id="Слой13_xA0_Изображение_1_">
</g>
</svg>
