<?xml version="1.0" encoding="utf-8"?>
<!-- Generator: Adobe Illustrator 21.0.0, SVG Export Plug-In . SVG Version: 6.00 Build 0)  -->
<svg version="1.1" xmlns="http://www.w3.org/2000/svg" xmlns:xlink="http://www.w3.org/1999/xlink" x="0px" y="0px"
	 viewBox="0 0 471.5 1075.2" style="enable-background:new 0 0 471.5 1075.2;" xml:space="preserve">
<style type="text/css">
	.st0{fill:#2E3030;}
	.st1{fill:#284346;}
	.st2{fill:#C9B185;}
	.st3{fill:#FFE6D2;}
	.st4{fill:#1C899C;}
	.st5{fill:#596363;}
	.st6{fill:#BA443E;}
	.st7{fill:#FFFFFF;}
	.st8{fill:#FFD000;}
	.st9{fill:#FDB7C3;}
</style>
<g id="Слой4_xA0_Изображение_1_">
</g>
<g id="Слой5_xA0_Изображение_1_">
</g>
<g id="Слой5_x28_2_x29__xA0_Изображение_1_">
	<g>
		<g>
			<path d="M157.8,512.6c-3.1-0.4-6.1-0.9-9.5-1.3c3.1-21.5,6.1-42.9,8.3-64.3c-2.1-0.9-4.1-1.7-6.3-2.7c-0.5,4.1-1.2,8.1-1.4,12.2
				c-0.4,6.1-1.1,12.1-2.4,18c-0.1,0.5-0.3,1.1-0.4,1.6c-0.6,1.7-1.1,2-2.8,1.5c-10.7-3.2-20.9-7.4-29.8-14.5
				c-7.4-5.9-14-12.6-19.6-20.3c-9-12.5-16.5-25.9-22-40.3c-3.7-9.7-7.1-19.5-10.6-29.3c-1.9-5.4-2.7-11-3.7-16.6
				c-0.2-1.1,0.3-1.8,0.9-2.6C70.4,340,82.3,326,94.1,311.9c5.7-6.8,11-13.9,16.8-20.6c8.2-9.7,16.5-19.2,24.8-28.7
				c7.7-8.9,14.6-18.2,20.2-28.7c-2-1.6-2.3-3.8-1.7-6.2c0.7-3,1.3-6.1,2.4-9c1.3-3.6,1.8-7.3,2-11c0.6-10.6,0.1-21.1-0.1-31.7
				c-0.2-8.4-0.3-16.8-0.4-25.2c-0.3-12.6-0.8-25.1-0.8-37.7c0.1-15.6,2.8-30.9,8-45.6c1.7-4.8,3.9-9.3,7.1-13.2
				c1.5-1.8,3.2-3.6,5-5.2c2-1.8,4.5-2.8,7.3-2.6c1.8,0.1,3.7,0,6,0c0.5-0.6,1.3-1.6,2-2.6c2.8-4.3,6.5-7.4,11.2-9.4
				c14.8-6.4,30.1-8.5,46.2-6.4c16.4,2.1,31.6,7.8,46.1,15.5c0.3,0.2,0.6,0.3,0.8,0.5c10.9,5.2,16.9,14.2,19.5,25.5
				c1.4,6,2.3,12.1,3.3,18.2c1,6.7,1.9,13.5,2.7,20.2c0.8,7.2,1.5,14.5,2.2,21.7c0.9,8.1,1.8,16.2,2.6,24.3
				c0.6,6.4,1.2,12.9,1.6,19.4c0.7,11.5,1.6,23,1,34.5c-0.3,6.7,0.9,13.2,0.8,19.9c0,0.9,0.1,1.8,0.1,2.6c-0.2,1.7,0.4,3.1,1.3,4.5
				c2.3,3.3,2.9,7.2,3.6,11.1c1,5.8,2,11.7,2.7,17.5c0.9,7.2,1.6,14.5,2.2,21.7c1,11.8,1.9,23.6,2.7,35.4c0.4,5.7,0.4,11.3,0.7,17
				c0.7,15.1,2.1,30.1,5.2,45c2.9,13.5,7.2,26.5,12.6,39.2c5.1,12.1,11.2,23.7,17.8,35c1,1.7,1.8,3.5,2.6,5.4
				c0.7,1.7,0.6,2.2-0.9,3.3c-2.2,1.7-4.3,3.3-6.6,4.8c-4.2,2.8-8.5,5.5-12.7,8.2c-0.7,0.4-1.3,0.8-2.1,1.3c0.1,0.4,0.2,0.7,0.4,0.9
				c3,4.5,6.1,9,9,13.6c1,1.5,2.3,2.4,3.9,3c7.4,3.1,15.2,4.7,23.1,6.2c4,0.8,8,1.5,12,2.3c0.9,0.2,1.9,0.5,2.7,0.9
				c1.6,0.7,2.8,1.7,3,3.7c0.1,2.2-0.6,3.7-2.5,4.8c-2.6,1.5-5.6,1.9-8.5,2.2c-4.7,0.5-9.4,0.7-14.1,1c-0.5,0-1,0-1.4,0.2
				c-4.3,1.6-8.4,0.8-12.3-1c-2.2-1-4.3-2.4-6.5-3.6c-0.5-0.3-0.9-0.5-1.7-0.6c0.4,0.4,0.7,0.9,1.1,1.3c5.2,6.5,10.3,13,15.5,19.5
				c0.3,0.4,0.5,0.8,0.7,1.2c0.9,1.9,0.5,3.2-1.4,4.2c-2.5,1.2-5.1,1.3-7.7,0.5c-1.9-0.6-3.6-1.6-5.7-2.5c-2,1-4.2,0.5-6.5-0.2
				c-3-1-5.6-2.7-8.1-4.7c-0.8-0.6-1.5-0.9-2.6-1c-5.4-0.7-10-3.1-14.1-6.6c-3.6-3.1-6.4-6.9-8.6-11.1c-1.1-2.2-2.4-4.3-3.6-6.5
				c-0.2,0-0.4,0-0.5,0.1c0,0.6-0.2,1.3-0.1,1.9c0.3,2.7,0.6,5.4,1.1,8.1c0.5,2.6-0.5,4.3-2.5,5.7c-0.5,0.4-1,0.8-1.6,1.1
				c-0.9,0.5-1,1.2-1,2.2c0.4,9.3,0.9,18.5,1.2,27.8c0.4,16.6,0.8,33.3,0.8,49.9c0.1,17-0.8,34.1-2.4,51
				c-1.1,11.5-2.4,22.9-4.7,34.2c-0.2,1.2-0.5,2.4-0.8,3.5c-1.8,5.7-2.3,11.6-2.4,17.5c-0.2,7.7-0.3,15.4-1,23
				c-0.7,8-1.9,15.9-3.1,23.8c-1.3,8.7-2.7,17.4-4.2,26c-1.1,6.3-2.4,12.6-3.6,18.8c-1.8,10-3.7,20-5.2,30
				c-0.8,4.9-1.1,9.9-1.2,14.8c-0.2,7.7-0.4,15.4-0.1,23c0.2,4.9,1,9.7,1.8,14.5c1.5,9.5,3.2,18.9,4.7,28.4
				c0.9,5.2,0.8,10.5,0.7,15.8c0,1.4-0.6,2.7-1.7,3.6c-1.4,1.1-2.8,2.1-4.6,3.4c0.2,1.6,0.5,3.6,0.8,5.5c2.3,14.4,5.7,28.5,9.1,42.7
				c2.8,11.4,5.4,22.9,8.1,34.3c1.4,5.8,0.7,11.4-2.8,16.3c-3.6,5-8.4,8.7-14.5,10c-8.7,1.9-17.4,3.4-26.3,3.7
				c-4.2,0.2-8.3-0.3-12.3-1.4c-7.6-2.2-11.6-6.8-12.4-14.7c-0.8-8.4-1.1-16.8-0.7-25.2c0-0.9,0-1.9,0-3c-0.6-0.1-1.1-0.2-1.6-0.1
				c-11.7,0.2-23.1-1.7-34.3-4.9c-2.1-0.6-4.2-1.5-6.2-2.5c-3.8-2-5.2-5-4.3-9.2c0.7-3,1.6-6,2.7-8.9c3.6-9.3,7.4-18.6,10.9-27.9
				c2.5-6.7,4.6-13.6,6.9-20.4c0.3-0.7,0.4-1.5,0.7-2.3c-0.9-0.9-1.7-1.7-2.5-2.6c-1-1.2-1.5-2.6-1.1-4.2c0.5-2.1,0.7-4.3,1.4-6.3
				c2.9-8.4,3.2-16.9,1.5-25.5c-2.6-12.7-5.1-25.4-7.6-38.1c-2.4-12.6-4.7-25.3-7.1-37.9c-2.3-11.7-4.8-23.3-7-35
				c-1.9-10.2-3.6-20.5-5.3-30.7c-0.4-2.3-0.4-4.6-0.5-6.9c-0.9-18.5-1.8-37.1-1.5-55.6c0-3,0.1-6.1,0.3-9.1c0.3-4.6,0-9.1-0.7-13.6
				c-1-6.1-1.5-12.4-2.7-18.5c-1.3-6.6-3.1-13.1-4.9-19.5c-4.6-16.6-9.4-33.1-13.8-49.7c-3.7-13.9-6.5-28-8.3-42.3
				C158.8,525.4,158.4,519.2,157.8,512.6z M126.6,387.4c-1.2-0.2-1.4,0.9-1.8,1.6c-3.7,6.6-6.6,13.6-9.1,20.8
				c-0.1,0.3-0.1,0.6-0.2,0.9c0.4,0.1,0.7,0.1,1.1,0.1c-0.9,0.6-0.5,1.3-0.1,2.1c1.6,2.6,3.3,5.3,4.9,7.9c1.1,1.7,2.3,3.2,3.5,4.9
				c1.9-0.8,3.5-1.5,5.2-2.2c1.6-0.6,3.3-1.2,4.9-1.8c-2.5,1.3-5.1,2.6-7.6,3.9c-0.6,0.3-1.2,0.7-1.7,1c3.2,5.1,9,12.5,10.5,13.5
				c1-6.6,1.9-13.1,2.9-19.9c-0.6,0.2-0.9,0.3-1.1,0.4c0.4-0.5,0.7-0.9,0.9-1.2c-2.7-5.1-5.2-10-7.9-15c-0.7,0.4-1.5,0.8-2.3,1.1
				c-4.1,1.8-8.2,3.5-12.2,5.3c0.7-0.4,1.3-0.9,2-1.2c3.4-1.7,6.8-3.4,10.2-5.2c0.7-0.4,1.3-0.8,2.1-1.2c-0.3-1-0.6-1.9-0.9-2.9
				c-0.9-3.4-1.8-6.7-2.8-10.1c1.5,4.1,3,8.2,4.6,12.5c4.5-2.4,8.6-5.1,12.6-8c0.9-0.7,0.7-1.3-0.2-2.1c-2-1.7-4-3.4-6.1-5
				c-0.5-0.4-1.3-0.7-1.9-0.7c-2.9-0.1-5.9-0.2-8.8-0.2C127.1,386.9,126.9,387.2,126.6,387.4z M225.3,228c-0.3,0-0.6,0-0.9,0
				c1.7,7.7,3.3,15.2,5,22.9c6-4,11.7-7.8,17.3-11.5c-0.7-1.5-1.7-2.1-3-2.6c-4.8-2-9.5-4.1-14.3-6.2
				C228,229.8,226.7,228.8,225.3,228c0.8,0.2,1.7,0.4,2.6,0.8c4.7,2.2,9.4,4.4,14.1,6.6c0.7,0.3,1.4,0.5,2.6,1
				c-0.4-0.8-0.5-1.3-0.8-1.6c-2.3-2.7-3.4-5.9-4.3-9.3c-0.6-2.6-1.2-5.1-1.9-7.7c-0.5-2-1.1-3.9-1.9-6.3
				c-4.2,5.3-8.4,9.9-11.8,15.2C224.6,227.2,225,227.6,225.3,228z M344.2,438.6c-0.1-0.3-0.1-0.7-0.1-0.9
				c-5.8,2.4-11.5,4.8-17.4,7.3c4.3,3.1,8.5,6.2,12.9,9.2c0.5-1.8,0.8-3.1,1.2-4.5C342,445.9,343.1,442.2,344.2,438.6
				c-1,4.3-2.1,8.7-3.1,13.1c-0.2,1-0.5,2-0.7,3c4.7,3.1,9.2,6,14,9.1c0.7-6.8,1.4-13.3,2.2-19.7c-3.6-2.6-7.1-5.2-10.8-7.9
				C345.2,437,344.7,437.8,344.2,438.6z M330.7,473.5c0.9,0.5,1.7,1,2.8,1.7c2.6-6.5,4-13.2,5.8-19.7c-4.5-3.3-8.7-6.5-13.1-9.7
				c-1.9,6.7-3.7,13.2-5.6,19.7c2.8,2.1,5.5,4.1,8.2,6.1C329.6,472.2,330.2,473,330.7,473.5c-0.9-0.5-1.8-0.9-2.7-1.6
				c-2.5-1.8-5-3.7-7.8-5.8c-0.5,4.7,0.9,8.6,1.5,13.1c3.7-1.3,7.1-2.5,10.6-3.7C331.7,474.7,331.2,474.1,330.7,473.5z M290,387.2
				c-0.2-0.1-0.4-0.4-0.5-0.4c-1.8,0.4-3.6,0.9-5.3,1.4c-0.4,0.1-0.8,0.6-1,0.9c-1,1.5-2,3.1-3,4.6c-1.4,2.1-1.6,4.4-0.3,6.6
				c1.2,2,2.7,4,4.1,5.8c1.3,1.6,3.1,2.3,5.1,2c4-0.6,8-1.3,12-2c1-0.2,1.7-0.8,2-1.8c1.3-4.5,3.6-8.5,6-12.5c1.4-2.3,0.8-4-1.8-4.9
				c-1.9-0.7-3.8-0.9-5.9-1.4c-2.5,4.6-6.3,7.8-10.2,10.9c-0.6,0.5-1.1,0.9-1.6,1.4c-2.7,3.1-2.5,2.5-5.7,0.7
				c-2.2-1.2-2.5-2.2-0.9-4.2c2-2.4,4.3-4.5,6.4-6.7c-1.5,2.1-3.1,4.2-4.6,6.4c-0.6,0.9-1.2,1.8-1.9,2.8c1.5,0.9,2.8,1.7,4.1,2.5
				c4.5-4.9,10.2-8.1,13.7-13.8c-4.4-2-4.4-2-8.3,0.1C291.6,386.1,290.8,386.7,290,387.2z M372.7,456.3c0.3-1.2-0.8-1.5-1.4-1.9
				c-3.8-2.7-7.7-5.4-11.6-8.1c-0.6-0.4-1.2-0.8-2.1-1.3c-0.5,3.5-1,6.7-1.4,9.9c-0.4,3.2-1.2,6.5-1.2,10.3c6-3.2,11.7-6.1,17.3-9
				c-1.1,0.8-2.1,1.7-3.2,2.4c-14.6,8.8-29.8,16.4-46.2,21.3c-0.3,0.1-0.6,0.2-1,0.4c0.7,4,1.4,7.8,2.1,12
				c20.8-6.2,38.8-16.9,56.2-29.3c-1.6-2.6-3-5.1-4.5-7.5c-0.2-0.3-1-0.1-1.5-0.2c0.3-0.2,0.7-0.4,0.9-0.6
				c-4.9-9.5-9.6-18.8-14.4-28c-0.2,0-0.3,0-0.5,0.1c-0.8,5.7-1.7,11.4-2.5,17c0.3,0.3,0.4,0.4,0.5,0.5c5.3,3.7,10.6,7.4,15.9,11.1
				C373.7,455.5,373.2,455.9,372.7,456.3z M300.1,410.4c1.3,3.5,2.8,6.9,3.9,10.5c0.5,1.8,0.6,4,0.3,5.9c-1.2,6.3-3.7,12.2-6.5,18
				c-0.3,0.6-0.8,1-1.2,1.4c-1.4-0.8-1.2-2-1.3-3c-0.5-8.6-1-17.2-1.5-25.8c-0.1-2.5-0.3-4.9-0.5-7.4c-2.3,0.1-4.5,0.2-6.8,0.4
				c0.2,1.8,0.4,3.5,0.5,5.1c1.4,12.7,2.8,25.4,4.1,38.1c0.6,5.3,1,10.7,0.4,16c-0.1,0.6,0,1.2,0.1,1.9c6.8,0.1,13.4,0.2,19.9-1.2
				c0.1-0.5,0.2-0.8,0.1-1.2c-0.3-5.2-0.4-10.4-0.9-15.6c-0.6-7.2-1.3-14.5-2.2-21.7c-0.9-7.8-1.9-15.5-2.9-23.3
				c-0.1-0.8-0.1-1.7-0.9-2.2c-1.3,0.8-2.5,1.5-3.8,2.2c0.8,1.1,1.5,2.1,2.2,3.1c-1.1-0.5-1.8-1.2-2.6-1.9
				C300.7,409.9,300.3,410.3,300.1,410.4c-0.2-0.4-0.4-0.9-0.7-1.6c-1.7,0.4-3.4,0.7-4.9,1c0.8,11.2,1.5,22.2,2.3,33.4
				c0.4-0.5,0.6-0.6,0.7-0.8c1.8-4.9,3.7-9.9,5.4-14.9c1-2.8,0.7-5.6-0.3-8.5C301.6,416.3,300.9,413.3,300.1,410.4z M127,338.7
				c-0.3-0.3-0.5-0.6-0.8-0.8c-2.4-1.5-4.9-2.8-7.1-4.5c-3.1-2.5-6.4-3.3-10.3-3c-6.1,0.4-12,1.5-17.9,3c-0.5,0.1-0.9,0.4-1.7,0.7
				c14.3,1.7,27,6.2,38.9,13.5c-0.2-0.6-0.6-1.1-0.9-1.5c-1.4-1.9-1.3-2.2,0.5-3.7c6.1-5,12.1-9.9,18.1-15
				c11.2-9.5,22.7-18.8,32.8-29.5c0.9-1,1.4-1.9,1.4-3.3c0.1-5.8,0.3-11.7,0.6-17.5c0.2-3.1,0.5-6.2,0.9-9.3c0.1-0.9,0-1.9,1.3-2.5
				c0.2,1.4,0.4,2.5,0.4,3.7c0,2.2-0.1,4.3-0.1,6.5c-0.1,7.2-0.3,14.4-0.2,21.6c0.1,4.4,1,8.7,2.7,12.8c2.6,6.3,5.1,12.8,7.6,19.2
				c0.3,0.7,0.5,1.5,0.7,2.2c-0.1,0.1-0.3,0.1-0.4,0.2c-1.7-3.3-3.3-6.6-5-10c-0.4,0.6-0.3,1.1-0.3,1.6c0.2,4.3,0.5,8.6,0.4,12.9
				c0,4.8-1.7,9.1-4.7,12.9c-0.7,0.9-1.3,1.8-1.9,2.8c-1.3,2.2-1.2,2.8,0.7,4.5c2.1,1.9,4.2,3.7,6.3,5.6c0.9,0.8,1.8,1.6,2.8,2.1
				c7.8,4,15.7,7.8,23.6,11.7c0.2,0.1,0.4,0.1,0.9,0.1c-5.6-6.1-11.5-11.4-18.9-14.7c-2.4-1.1-4.9-2-7.3-3.1
				c-0.6-0.2-1.5-0.2-1.5-1.5c1.1,0.2,2.1,0.3,3,0.5c6.2,1.7,11.9,4.4,16.8,8.5c3.3,2.7,6.3,5.7,9.4,8.6c3.3,3.1,6.7,6,10.7,8
				c8.9,4.5,18.4,6.9,28.4,7.2c12,0.4,23.5-2.2,34.9-5.7c0.9-0.3,1.6-0.8,2.5-1.2c-2.1-0.8-4.1-1.2-6.1-1.5
				c-8.6-1.5-17.2-2.6-25.9-3.2c-8.7-0.5-17.4-0.4-26.1,0.3c-0.8,0.1-1.6-0.1-2.4-0.1c1-0.6,2-0.8,3-0.9c2.7-0.2,5.4-0.5,8.1-0.6
				c16.1-0.6,31.9,1,47.6,4.6c2.2,0.5,4,0.5,5.8-0.8c1.1-0.8,2.5-1.5,3.8-2c4.7-1.9,8.3-5.4,12.1-8.5c0.2-0.2,0.4-0.5,0.6-0.9
				c-0.7-1.5-1.4-3-2.2-4.5c-2.4-4.5-4.9-9-7.2-13.5c-2.1-4-3.1-8.2-3.2-12.7c-0.1-6,0.2-12,0.9-18c0.3-2.1,0.5-4.3,0.8-6.4
				c-1.2,1.5-2.2,3-3.2,4.6c-1.1,1.6-2.2,3.1-3.4,4.7c-1,1.4-2.1,2.7-3.2,4.1c2-4.5,4.2-8.7,6.5-12.9c2.1-4,4-8.2,5.2-12.6
				c1.7-6.1,2.2-12.4,2.3-18.8c0.1-7,0.1-14.1,0.2-21.1c0-1,0.1-2,0.2-3.1c0.2,0,0.3,0,0.5,0c0.2,0.9,0.4,1.8,0.5,2.8
				c0.8,7.8,1.1,15.6,0.8,23.5c-0.2,6.6-0.7,13.3-2.9,19.6c-1.2,3.3-2,6.4-2,9.9c-0.1,7.5-0.5,15-0.8,22.5
				c-0.2,5.1,1.3,9.8,3.7,14.2c2,3.7,4,7.3,5.9,11c0.9,1.8,1.7,3.6,2.5,5.4c0.6,1.4,0.3,2.7-0.8,3.7c-1.1,1-2.4,1.9-3.4,3
				c-0.5,0.5-0.9,1.1-1,1.7c-0.2,3.5-0.9,6.8-2.3,10.1c3.4,2.4,2.8,5.3,0.7,8.4c0.6,0.3,0.9,0.5,1.3,0.6c2.6,0.5,3.4,2.2,3.4,4.7
				c0,3.6,0.2,7.2,0.4,10.8c0.9,10.9,1.9,21.8,2.8,32.7c0.1,0.6,0.2,1.2,0.4,2.1c15.7-3.4,29.4-10.5,41.3-21.2
				c-0.4-1-0.8-1.8-1.1-2.7c-6.7-15.3-11.3-31.2-13.8-47.8c-1.9-12.1-2.6-24.3-2.8-36.6c0-2.2-0.3-4.3-0.5-6.5
				c-0.2-2-0.4-4.1-0.7-6.1c-0.1,10-0.8,20-1.8,30c-0.8,8-2.3,15.8-5.8,23.1c-0.3,0.7-0.7,1.4-1,2.1c-0.3-0.5-0.2-0.9-0.1-1.3
				c1.4-5.3,3.1-10.6,4-16c1.1-6.8,1.8-13.8,2.4-20.7c0.4-5.1,0.4-10.2,0.7-15.3c0.1-1.5,0.3-3.1,0.9-4.4c0.5-1.1,0.6-2.1,0.5-3.2
				c-0.4-5.4-0.7-10.9-1.1-16.3c-0.3-4.4-0.7-8.7-1-13.1c-1.1,8.3-1.9,16.6-3,24.9c-1.1,8.3-3.2,16.5-5.7,24.5
				c-0.1-0.6,0-1.1,0.1-1.7c1.2-6.5,2.6-13,3.6-19.6c1.4-9.6,2.6-19.3,3.7-29c0.4-4,0.6-8,0.5-12c-0.5-11.4-3.1-22.5-5.1-33.6
				c-0.9-5.3-3.9-9.4-7.6-13c-0.6-0.6-1.2-1-1.9-1.4c-6.1-3.5-12.3-6.9-18.4-10.4c-1.2-0.7-1.9-0.6-3,0.1c-3.7,2.3-7.5,4.4-11.2,6.6
				c-5.9,3.5-11.8,7.1-17.7,10.6c-1.2,0.7-1.7,1.5-1.8,2.8c-0.1,3.6-0.4,7.2-0.4,10.8c0,3.4,0.3,6.7,0.4,10.1
				c0.3,9.4,0.6,18.7,0.9,28.1c0.1,3.6,0.4,7.2,0.5,10.8c0.1,2.3,0,2.4-2.3,2.8c-6.9,1.1-13.7,2.3-20.6,3.3
				c-4.2,0.6-8.4,1.1-12.6,1.5c-2.2,0.2-2.3,0.1-3.2-2c-1.2-2.8-2.5-5.5-3.5-8.4c-3.5-9.6-6.2-19.5-8-29.6c-1.7-9.4-3.3-18.9-5-28.3
				c-0.2-1.3-0.4-2.4-2-2.9c-3.9-1.1-7.8-2.2-11.6-3.3c-2.9,3.3-5.6,6.4-8.5,9.4c-2.7,2.9-5.8,5.3-9.2,7.2c-6.1,3.3-9.9,2.9-15-1.8
				c-2.6-2.4-5-5-7.4-7.5c-1.4-1.5-3.1-2.7-5-3.6c-0.3,0.4-0.5,0.7-0.6,0.9c-4.3,8.8-9.7,16.8-16,24.2c-7.3,8.6-14.9,16.9-22.4,25.4
				c-0.7,0.8-1.5,1.7-2.2,2.6c-2.5,3.2-4.9,6.6-7.5,9.7c-11.1,13.2-22.2,26.3-33.3,39.4c-5.1,6.1-10.2,12.3-15.2,18.6
				c-0.5,0.6-0.6,1.6-0.5,2.4c0.6,3.7,1.1,7.5,2.2,11c2.8,9.2,6,18.2,9,27.3c1.8,5.4,3.9,10.6,6.6,15.7c2.7,5,5.4,10,8.2,14.9
				c4.7,7.9,9.8,15.6,16,22.4c0.6,0.6,1.2,1.2,2,2c0.2-1.3,0.4-2.1,0.5-3c1.7-13.6,4.8-26.9,9.3-39.8c3.3-9.5,7.5-18.5,13.4-26.7
				c1.4-1.9,2.9-3.6,4.3-5.5c-2.2-3.2-4.8-6-7.7-8.5c-2.3-2-5-2.9-8-2.6c-4,0.4-8,0.7-11.9,1.5c-9,1.8-17.8,4.5-26,8.8
				c-0.8,0.4-1.6,1.1-2.9,0.2c1.2-2.1,3.3-3.2,4.9-4.7c1.8-1.6,3.7-3.1,5.6-4.6c1.8-1.4,3.7-2.8,5.6-4.2c1.9-1.4,3.8-2.8,5.9-3.7
				c-5.1,4.5-10.7,8.3-16.1,13.2c4.7-1.6,8.9-3.2,13.2-4.5c6.8-2.1,13.8-3.5,20.9-3.8c4.3-0.2,7.9,1.1,10.7,4.2
				c1,1.1,1.9,2.2,2.8,3.3c0.4,0.4,0.7,0.8,1.1,1.3c0.1-0.3,0.3-0.4,0.2-0.5c-0.1-0.4-0.1-0.8-0.2-1.2c-1-3.3-2.4-6.3-4.5-9
				c-0.3-0.4-0.7-0.9-1-1.3c-1.6-2-1.5-2.6,0.9-3.7c1.3-0.6,2.6-1.1,3.9-1.8c1-0.5,1.9-1.1,2.9-1.7c-1.3-1.9-2.9-3.1-4.7-4
				c-6.4-3.6-13-6.6-19.9-8.8c-8.2-2.6-16.4-4.9-25.1-4.3c-0.3,0-0.6-0.3-1.5-0.6c1.1-0.4,1.7-0.8,2.3-1c4-1.1,8-2.3,12.1-3.1
				c4.3-0.9,8.7-1.4,13-1.9c4.2-0.5,8.1,0.5,11.3,3.5c1.9,1.7,4,3.2,6,4.8C126.7,337.7,127.2,338,127,338.7L127,338.7z M241.6,532.8
				c0,0.8,0,1.6,0,2.4c0.3,16,0.4,32,0.9,48c0.3,10,0.9,20,1.6,29.9c1.1,16,2.2,31.9,3.6,47.8c1,11.5,2.4,23,3.7,34.6
				c0.5,4.8,0.9,9.5,0.4,14.4c-0.9,9.5-2.7,18.8-5.3,28c-2.5,8.8-3.8,17.8-3.6,27c0.1,3.8-0.2,7.7-0.2,11.5c0,5.6-0.1,11.2,0.1,16.8
				c0.3,7.7,0.8,15.3,1.3,23c0.5,7.8,1.1,15.6,1.7,23.4c0.7,9.7,1.6,19.3,1.9,29c0.7,23.4,1,46.9,1.5,70.3c0,0.6,0.1,1.2,0.2,1.9
				c0.7,0,1.1,0,1.6,0c12.4-0.1,24.5-2,36.4-5.3c3.1-0.8,6.1-2.3,9.1-3.7c2.1-0.9,2.8-2.6,2.9-5c0.1-8.2-0.8-16.3-2.4-24.3
				c-3.3-16.9-5-34-4.7-51.3c0.1-8.9,0.7-17.7,2.4-26.5c2.5-13.5,5-27,7.4-40.6c1.7-9.8,3.3-19.7,4.7-29.6
				c1.1-7.6,2.3-15.2,2.9-22.8c0.7-8.3,0.7-16.6,1-24.9c0.1-3.9,0.5-7.7,1.5-11.4c2.1-7.4,3.3-15,4.2-22.6
				c1.7-12.9,2.9-25.9,3.6-38.9c1-17.8,1.3-35.6,1.1-53.5c-0.2-17.4-0.5-34.7-0.7-52.1c0-0.8,0-1.6,0-2.3c-0.3,0-0.5-0.1-0.7-0.1
				c-0.2,0.1-0.5,0.2-0.7,0.3c-12.2,6.1-25.3,8.3-38.8,8c-11.7-0.3-23.3-0.9-35-1.4C244.1,532.7,243,532.8,241.6,532.8z
				 M246.5,933.3c0-2.5,0.1-4.8,0-7.1c-0.3-11.9-0.8-23.8-0.9-35.7c-0.2-18.1-1.2-36.1-2.6-54.1c-1.2-14.7-2.2-29.4-2.7-44
				c-0.4-11.1,0.1-22.2,0.3-33.3c0.1-6.4,1.2-12.7,2.9-18.9c2.1-7.9,4-16,5.3-24.1c1.4-9,0.8-17.8-0.1-26.8
				c-0.6-5.6-1.5-11.1-2.1-16.7c-1-10-1.8-20.1-2.6-30.1c-1.3-17.6-2.7-35.2-3.6-52.9c-0.7-13.3-0.7-26.7-1-40.1
				c-0.1-4.9,0-9.8-0.1-14.6c0-0.8-0.1-1.7-0.1-2.5c-14.2-1.4-27.6-4.8-41-8.8c-9.5-2.8-19-5.6-28.5-8.3c-3-0.9-6.2-1.5-9.5-2.2
				c0,0.8,0,1.3,0,1.7c0.5,4.5,0.9,9.1,1.5,13.6c2.1,15.5,5.2,30.7,9.3,45.8c4.6,17,9.6,34,14.3,51c1.5,5.5,3.1,10.9,4.1,16.5
				c1.3,7.5,2.2,15,3.2,22.6c0.3,2.3,0.2,4.6,0.1,6.9c0,1.3-0.4,2.7-0.4,4c0.6,24.5,1.3,49.1,1.9,73.6c0,0.6,0.1,1.3,0.2,1.9
				c1.9,9.6,3.7,19.3,5.7,28.9c2.6,12.9,5.4,25.8,8,38.7c2.8,13.9,5.3,27.8,8,41.7c2,10.6,4.1,21.2,6.1,31.8
				c0.8,4.3,1.2,8.8,0.3,13.1c-0.9,4.1-2,8.2-3,12.3c-1.2,5.4-1.9,5.1,3.3,8.9C229.6,931.2,237.6,933.1,246.5,933.3z M151.2,509.3
				c0.5,0.1,0.9,0.2,1.3,0.2c6.2,0.4,12.2,1.6,18.1,3.3c12.1,3.4,24.2,7,36.4,10.5c13.4,3.8,27.1,6.4,41,7.1
				c8.5,0.4,16.9,0.9,25.4,1.3c6.5,0.3,12.9,0.4,19.4-0.4c8.8-1.1,17.2-3.4,25.2-7.3c1.8-0.9,3.4-2,5.1-3.1c0.9-0.6,1.3-1.5,1.1-2.7
				c-0.3-2.2-0.5-4.4-0.7-6.7c-0.5-8.6-1.5-17.2-3.1-25.7c-2.5-13.1-4.2-26.3-4.6-39.7c-0.3-7.9-1.1-15.8-1.7-23.7
				c-0.6-7.6-1.8-15.1-1.5-22.7c0-1.6-0.4-2.6-2.1-3c-0.5-0.1-1-0.3-1.8-0.6c-0.9,2-1.8,4-2.7,5.9c-0.6,1.4-1.2,2.9,0.4,4.1
				c0.3,0.2,0.4,0.7,0.5,1.1c0.5,2,1.2,4,1.5,6.1c1.3,10.5,2.7,21.1,3.7,31.7c0.8,8.1,1.2,16.3,1.8,24.4c0.2,2.3-0.2,2.8-2.5,3.3
				c-6.6,1.4-13.4,1-20.1,0.9c-0.1,0-0.2,0-0.2,0c-0.9-0.1-1.5-0.6-1.5-1.6c0-0.5,0-1,0-1.4c0.3-6.4-0.1-12.8-0.8-19.2
				c-0.1-1.2-0.2-2.3-0.4-3.5c-1.7,0-3.1-0.1-4.5,0c-9.6,0.6-19,2.5-28.5,3.9c-9.7,1.4-19.5,2.9-29.2,4c-8.9,1-17.8,1.6-26.8,2.3
				c-1.3,0.1-2.6,0-3.9,0c1.1-0.3,2.2-0.2,3.3-0.4c6.7-0.7,13.4-1.4,20-2.3c15.5-2,30.9-4.1,46.4-6.1c7.1-0.9,14.1-2,21.2-2.1
				c0.5,0,1.1-0.1,1.9-0.2c-0.2-2.5-0.5-5-0.7-7.5c-13.2-2.4-26.1-5.6-38.9-9.1c-23.3-6.5-35.7-10.3-37.9-11.9
				c25.3,7.4,50.5,14.6,76.5,19.9c-0.8-9.7-1.5-19.1-2.3-28.7c-3.1-1.8-5.3-5-7-8.1c-3.2,0-6.1,0.1-9.1,0
				c-14.5-0.6-28.8-2.7-42.8-6.6c-14.5-4-27.5-10.7-38.4-21.2c-0.6-0.6-1.3-1.2-2.1-1.9c-0.7,2.1-1.3,4.1-2.1,6
				c-0.8,1.9-1.9,3.6-2.8,5.2c1,1.3,2,2.4,2.7,3.6c2.8,5,4.4,10.5,4.5,16.2c0,2.6,0,5.1,0,7.7c0,2.3,0.2,4.7-0.2,6.9
				c-0.6,3-1.5,6-2.5,9c-0.6,1.7-1.4,3.3-1.4,5.2c0,0.8-0.3,1.7-0.7,2.5c-2.1,4.4-4.7,8.6-8.1,12.1c-0.9,1-2,1.9-3.1,2.6
				c-2.1,1.3-3.8,1.1-5.7-0.5c-0.9-0.8-1.7-1.6-2.6-2.4c-1.5,0.4-3,0.7-4.8,1.1C157.3,467.8,154,488.4,151.2,509.3z M180.5,150.7
				c-0.4,2.1-0.7,4.2-1.1,6.3c-0.3-1.1-0.3-2.2-0.3-3.4c0.2-10.4,1.6-20.5,4.6-30.5c2.6-8.9,5-17.9,6.2-27.1
				c1-7.3,1.8-14.6,2.7-21.9c0.2-1.2,0.5-2.4,0.8-3.7c0.5,0.2,0.7,0.2,0.7,0.3c0.7,0.9,1.5,1.9,2.2,2.9c4.9,6.6,10.8,12,18.3,15.5
				c8.8,4.2,18.1,6.3,27.8,6.8c8,0.4,15.8-0.8,23.6-2.1c3.7-0.6,7.3-1.6,11.2-1.4c6.3,0.4,10.1,3.6,11.5,9.7
				c0.2,0.7,0.3,1.3,0.6,2.2c0.6-0.9,1-1.6,1.5-2.2c2.5-3.1,5.8-3.2,8.2,0c1.2,1.6,2,3.5,2.6,5.3c1.7,5.6,1.7,11.3,0.6,17.1
				c-0.7,3.5-1.7,6.8-3.9,9.7c-1.8,2.3-3.9,4.1-7.3,3.1c0,1.1,0,1.9,0,2.8c-0.2,5.2-0.8,10.4-2.5,15.3c-0.6,1.6-1.3,3.3-2.3,4.7
				c-1.7,2.4-3.5,4.8-5.7,6.8c-2.6,2.5-3.6,5.4-3.5,8.9c0.1,4.8-0.4,9.6-0.6,14.4c2.3,1.2,3.7,2.9,4.3,5.1c0.8,2.9,2.6,4.9,4.9,6.6
				c4.4,3.1,8.7,6.2,13.1,9.3c7.4,5.2,15.2,9.7,23.2,13.9c2.2,1.1,4.2,2.4,5.8,4.1c0.2,0.2,0.5,0.3,0.9,0.5
				c-0.1-1.7-0.2-3.2-0.3-4.7c-0.1-4.8-0.1-9.6-0.3-14.4c-0.5-8.8-1-17.6-1.6-26.3c-0.8-11.6-1.4-23.3-2.6-34.9
				c-1.9-17.6-2.9-35.2-5.6-52.7c-1.3-8.4-2.6-16.9-4.3-25.3c-2.3-11.3-8.3-19.9-18.9-25.4c-14.8-7.6-30-13.6-46.8-15.6
				c-14.8-1.8-29,0.3-42.8,5.8c-5.3,2.1-9.5,5.7-12.4,10.5c-1.1,1.8-2.2,2.6-4.4,2.2c-5.3-1-9.8,0.6-13.1,5
				c-0.4,0.6-0.9,1.1-1.4,1.7c-3,3.8-5.1,8.1-6.7,12.7c-5.1,14.3-7.7,29.1-7.9,44.2c-0.2,12,0.2,24,0.4,36c0.1,5.7-0.2,11.4,0.1,17
				c0.7,13,1.4,26,0.7,39.1c0,0.6,0,1.2,0.1,1.7c0.1,0,0.2,0,0.4,0c1.8-4,3.6-8,5.4-12.1c0.2,0.5,0.1,0.9,0,1.2
				c-2.5,7.3-5,14.5-7.4,21.8c-1.1,3.5-2.1,7-3,10.6c-0.7,2.8-0.5,3.1,2,4.3c3,1.3,5.4,3.3,7.7,5.7c2.2,2.3,4.5,4.5,6.8,6.7
				c3.2,3.1,6.8,3.5,10.5,1.2c2.6-1.5,5.2-3.2,7.4-5.2c11.1-10.3,18.9-22.7,23-37.3c0.5-1.9,0.6-3.9,0.6-5.9
				c-0.1-2.3-0.6-4.6-0.8-6.9c-0.1-1.1-0.6-1.7-1.5-2.2c-9.7-5.1-17.4-12.4-23.6-21.4C185,161.9,182.5,156.5,180.5,150.7z
				 M288.9,110.4c-0.4-0.8-0.7-1.3-0.8-1.8c-0.6-2-1-4-1.6-6c-1.5-5-4.7-8-11.3-7.5c-2.4,0.2-4.7,0.7-7.1,1
				c-6.3,0.9-12.5,2-18.8,2.5c-8.8,0.6-17.5-0.8-26-3.3c-11.8-3.6-21.5-10-28.3-20.5c-0.1-0.2-0.4-0.3-0.8-0.7
				c-0.2,3.4-0.4,6.5-0.6,9.6c-0.7,9.3-2,18.6-4.2,27.7c-2.4,9.9-5.4,19.6-7.2,29.6c-0.5,3-0.4,5.8,0.5,8.6
				c3.7,11.6,10.6,20.8,19.7,28.7c6.1,5.3,13.3,9.2,20.3,13.1c0.6,0.3,1.2,0.5,1.8,0.7c6.4,2,12.9,2.3,19.4,0.4
				c7.6-2.2,13.8-6.9,20.3-11.2c0.3-0.2,0.5-0.4,0.7-0.7c6.4-7.3,12.8-14.5,19.1-21.8c1-1.1,1.6-2.6,2.1-4c1.3-4.1,1.9-8.4,2.1-12.7
				c0.3-7.4,0.5-14.7,0.7-22.1c0.8,4.4,1.4,8.9,2.1,13.3c0.3,2.1,1.8,2.8,3.6,1.5c0.6-0.4,1.2-0.9,1.6-1.5c1-1.6,2-3.1,2.6-4.8
				c2.4-6.7,2.6-13.6,0.8-20.5c-0.5-1.7-1.3-3.5-2.4-4.9c-1.4-2-3.3-2.1-4.7-0.1c-1.2,1.6-1.9,3.6-2.8,5.5
				C289.3,109.1,289.2,109.6,288.9,110.4z M251.1,962.3c-0.1,0-0.2,0-0.3,0c-0.5,5.5-1.1,11-1.5,16.5c-0.7,9.5-1.3,19-1.7,28.5
				c-0.4,8.1-0.1,16.2,0.7,24.2c0.7,7,3.9,10.7,10.7,12.5c4.3,1.1,8.7,1.6,13.1,1.1c7.1-0.8,14.2-1.9,21.4-3
				c4.9-0.7,9.1-2.9,12.7-6.3c4.7-4.4,6.6-9.8,5.3-16.1c-0.7-3.7-1.7-7.3-2.6-11c-2.4-10.2-4.8-20.4-7.2-30.6
				c-0.2-0.7-0.4-1.4-0.6-2c-0.4,4.8-0.4,9.5-0.4,14.3c0,2.2-0.2,4.3-0.5,6.4c-0.4,2.5-1.2,3.1-3.8,2.6c-4.7-0.8-9.5-1.5-14.3-0.6
				c-3.9,0.8-7.8,1.7-11.7,2.6c-1.6,0.4-3.2,0.9-4.9,1.2c-2.2,0.4-3.9-0.3-5.2-2.1c-2.1-2.7-3.6-5.7-4.3-9c-1.2-6-2.4-12.1-3.4-18.1
				C251.9,969.7,251.6,966,251.1,962.3z M126.6,358.3c0.3,0.5,0.5,0.8,0.7,1.1c2.9,3.7,4.8,7.9,5.8,12.5c0.4,1.6,0.9,3.2,1.4,4.8
				c2.8,7.9,8.2,13.2,16.1,15.9c1.4,0.5,2.4,1.1,2.4,2.8c0,0.3,0.1,0.6,0.3,1.2c1.2-0.7,2.2-1.2,3.2-1.9
				c8.6-6.1,14.7-14.2,17.8-24.3c0.5-1.7,1-3.3,2.9-4.1c-2.4-2.8-3.3-6.1-4.2-9.3c-3.8-13.5-5.6-27.4-6.2-41.4
				c0-0.8-0.1-1.6-0.1-2.6c-12.7,10.7-25.1,21.1-37.6,31.5c0.4,0.5,0.6,1,1,1.4c1.4,1.6,2.9,3.2,4.3,4.9c1.2,1.4,1.1,2.5-0.4,3.7
				c-0.9,0.7-1.9,1.2-2.9,1.7C129.6,356.9,128.1,357.6,126.6,358.3z M297.7,996.8c0.2-1.7,0.4-3.5,0.4-5.2
				c0.2-7.8,0.3-15.5,0.3-23.3c0-2.1-0.3-4.3-0.7-6.4c-1.1-6.4-2.4-12.9-3.6-19.3c-0.4-2-0.6-4-1-6c-13.4,4.3-27.1,6.3-41,7
				c-0.2,3-0.7,5.7-0.4,8.4c0.7,6.5,1.6,13,2.7,19.5c1.2,7,2.8,13.9,4.2,20.9c0.5,2.3,1.7,4.3,3,6.2c1.1,1.6,2.4,2.2,4.3,1.6
				c2.1-0.7,4.3-1.3,6.4-1.9c7.6-2.1,15.3-3.2,23.2-1.3C296.3,996.9,296.9,996.8,297.7,996.8z M293.5,210.7c-3.2,2.1-6.2,4-9.2,5.9
				c-7.1,4.7-14.1,9.4-21.2,14.1c-1.3,0.8-2.1,1.8-2.1,3.5c-0.1,4-0.4,8-0.4,12c0,12.6,1.7,25,2.4,37.6c0.1,1.8,0,3.6,0,5.6
				c-3.8,0.9-7.6,1.9-11.4,2.8c-3.6,0.9-7.1,1.8-10.7,2.5c-2.2,0.4-2.4,0.2-3.1-1.9c-1.2-3.6-2.5-7.1-3.3-10.8
				c-2.7-12.3-5.1-24.6-7.7-36.8c-1.2-5.8-2.6-11.5-3.8-17.3c-0.2-0.9-0.4-1.7-1.5-1.9c-4.4-0.9-8.9-1.8-13.3-2.7
				c-1.4,2.2-2.7,4.2-4,6.3c0.7,0.2,1.1,0.3,1.4,0.4c3.4,0.9,6.8,1.9,10.2,2.8c1.7,0.4,2.5,1.5,2.8,3.2c1.1,6.4,2.4,12.7,3.5,19.1
				c2,11.7,4.5,23.2,8.1,34.5c1.6,4.8,3.3,9.5,5.6,14.1c11.7-1.1,23.3-3.2,35-4.9c0-1.4,0-2.6,0-3.8c-0.4-16.9-0.9-33.9-1.3-50.8
				c-0.1-2.5,0.4-5.1,0.5-7.6c0.1-1,0.5-1.6,1.3-2.1c3.6-2.3,7.1-4.7,10.7-6.9c5.7-3.5,11.6-6.8,17.4-10.2c0.6-0.3,1.1-0.8,1.9-1.3
				C298.5,214.1,296.1,212.5,293.5,210.7z M164.8,445.1c3.9,4,5.5,2.6,8,0.3c0.2-0.2,0.5-0.5,0.7-0.7c3.2-3.5,5.8-7.5,8-11.6
				c1.5-2.7,0.4-5.7-2.5-6.6c-2.6-0.8-5.3-1.2-7.9-1.7c-0.8-0.2-1.6-0.2-2.4-0.4c5.3-1.9,10-0.9,14.6,2.8c0.9-3.8,1.8-7.3,2.5-10.8
				c0.4-2.1-0.5-3.5-2.4-4.5c-2.9-1.5-5.8-2.1-9-1.4c-1.6,0.3-3.2,0.5-4.8,0.8c5.4-4.3,10.9-3.6,16.3-0.2c0-3.7,0.1-7.1,0-10.5
				c-0.1-2.3-0.8-2.9-3-3.3c-2.8-0.4-5.6-0.1-8.3,0.6c-1.5,0.4-3,0.8-5,1.4c4.7-4.7,10-4.5,15.7-3.7c-1.3-3.4-2.3-6.5-4.3-9.3
				c-0.8-1.2-2-1.8-3.4-2c-2.7-0.5-5.2,0-7.3,1.7c-2.3,1.8-4.4,3.7-6.4,5.8c-3.1,3.2-5.9,6.8-10.8,7.5c-0.1,1-0.1,1.8-0.2,2.5
				c-0.2,7.1-0.4,14.2-0.7,21.3c-0.2,5-0.7,9.9-1.1,14.8c-0.1,1.2-0.3,2.4-0.3,3.6c0,0.5,0.4,1.3,0.8,1.5c4.2,2.3,9.8,3.1,14.1-1.5
				c1.3-1.5,2.3-3.2,3.5-4.9c0.3-0.4,0.4-0.9,0.7-1.2c0.2-0.2,0.9-0.5,1-0.4c0.3,0.3,0.6,0.8,0.5,1.1c0,0.5-0.4,1.1-0.6,1.5
				C169.3,440.5,167.5,443.1,164.8,445.1z M244.7,1000.6c1-12,2.1-23.7,3.1-35.5c-0.6-0.2-1.1-0.4-1.7-0.5c-2.6-0.3-5.2-0.6-7.9-0.7
				c-4.7-0.2-9.4-0.1-14.2-0.3c-4.5-0.2-6.4-2.1-7.2-6.5c-0.5-2.8,0.1-5.6,0.8-8.3c1.7-6,3.5-11.9,5.3-17.9c0.1-0.4,0.1-0.8,0.2-1.2
				c-0.7-0.4-1.2-0.7-1.9-1.1c-0.2,0.5-0.4,0.7-0.4,1c-2.1,6.7-3.9,13.5-6.2,20.1c-3.3,9.3-7.1,18.5-10.6,27.8
				c-1.2,3.1-2.2,6.3-3.1,9.6c-0.8,3.1,0.1,5.1,2.9,6.6c1.6,0.9,3.3,1.5,5.1,2.1c8.7,2.7,17.6,4,26.6,4.7
				C238.6,1000.9,241.6,1000.6,244.7,1000.6z M340.9,492.8c0.2,0,0.3-0.1,0.5-0.1c0.2,1.7,0.3,3.3,0.5,5c0.1,1.3,0.2,2.6,1.5,3.4
				c3.9,2.2,7.7,4.6,12.1,5.6c1.4,0.3,2.8,0.5,4.2,0.8c3.4,0.7,6.4,2.5,9.4,4.2c2.3,1.4,4.7,2.8,7.1,4c2.7,1.3,5.6,2,8.6,1.4
				c3.2-0.6,4.3-2.6,2.9-5.6c-0.5-1-1.5-1.9-2.4-2.5c-1.3-0.8-2.7-1.3-4.1-1.9c-4.8-2-8.9-5-11.9-9.4c-3.4-5.1-6.7-10.3-10-15.5
				c-0.3-0.5-0.6-1-1-1.6c-10.8,6-21.9,11.2-34,14c0.3,3,0.3,5.9,1,8.6c0.4,1.5,1.8,2.7,2.8,4.1c0.1,0.1,0.2,0.3,0.3,0.4
				c1.6,2.8,3.2,5.6,4.9,8.3c3.8,6.2,9.1,10.7,15.9,13.2c0.5,0.2,1.1,0.3,1.7,0.5c-3.2-4.1-6.4-8-9.3-12c-2.9-4-5.6-8.3-7.3-13
				c6.3,5.6,6.3,5.6,14.1,9.3c0.9,0.4,1.9,0.9,2.8,1.4c1.7,0.8,3.1,1.9,4.3,3.4c3.1,3.7,6.2,7.3,9.4,10.9c1.8,2,3.6,3.8,5.5,5.6
				c1.7,1.6,3.6,2.7,5.9,3.1c2.2,0.4,4.4,0.5,6.3-1.3c-0.4-0.7-0.7-1.4-1.2-1.9c-5.7-7.4-11.6-14.7-17.2-22.2
				c-1.8-2.4-3.9-3.3-6.6-3.6c-0.2,0-0.5,0-0.7-0.1c-4-0.7-7.7-2-10.8-4.8c-1-0.9-2-1.9-3.1-2.6c-2.2-1.3-2.9-3.3-2.7-5.7
				C340.4,495,340.7,493.9,340.9,492.8z M275.2,172.8c-1,0.9-1.9,1.9-2.9,2.8c-4.6,4.2-9,8.6-13.9,12.5c-6.2,5-13.5,7.9-21.6,8.2
				c-6.8,0.2-12.9-1.7-18.8-4.9c-0.7-0.4-1.3-0.7-2.4-1.3c1.1,5.3,2,10.2,0.3,15.2c1.3,0.3,2.3,0.5,3.3,0.7
				c5.3,0.9,10.6,1.8,15.9,2.6c1.7,0.3,2.7,0.9,3.1,2.7c1,4.3,2.1,8.5,3.4,12.7c0.7,2.4,1.6,4.8,2.6,7.2c0.4,0.9,0.9,1.9,2.2,2.5
				c0-0.6,0-1,0-1.4c-0.3-6,0.3-12,0.9-17.9c0.4-3.4,1.8-5.7,5.2-6.6c0.6-0.2,1.2-0.4,1.8-0.7c5.9-2.6,11.9-5.2,17.8-7.8
				c0.9-0.4,1.8-1,2.7-1.5C273.6,189.2,274.5,181.1,275.2,172.8z M281,389.2c-0.9,0.1-1.2,0.1-1.6,0.1c-4.2,0.6-8.3,1.5-12.5,1.9
				c-13.3,1.5-25.9-1.1-38-6.7c-5.7-4-12.4-6.2-18.6-9.2c-6.3-3.1-12.4-6.6-18.6-9.9c-1.3-0.7-2.7-1.4-4.1-2.1
				c-0.5,1.3-0.8,2.4-1.3,3.5c-0.5,1-0.3,1.8,0.4,2.6c0.5,0.5,1,1,1.5,1.5c8.2,8,17.7,14.2,28.5,18.2c19.1,7.1,39,9.8,59.2,10.5
				c0.4,0,0.8-0.1,1.4-0.2C276.2,395.3,278.6,392.4,281,389.2z M145.9,393.9c-4.6,11.8-11.9,66.5-10.6,78.9c2.8,1.1,5.5,2.5,8.7,2.9
				c0.2-0.6,0.4-0.9,0.4-1.3c1-6.1,2.4-12.3,2.9-18.4c1-10.7,1.5-21.4,2.1-32c0.3-5.7,0.6-11.3,0.7-17c0.1-3.7,0-7.5,0-11.4
				C148.8,395,147.3,394.5,145.9,393.9z M185.8,361.9c-1.7-1.6-3.4-3.1-5.2-4.6c-1.9-1.6-2.2-3.5-1.2-5.6c0.8-1.6,1.8-3.2,2.8-4.7
				c2.1-3.1,3.4-6.5,3.7-10.2c0.6-6.6,0-13.1-1.7-19.5c-1.6-5.7-3.1-11.4-3.8-17.3c0-0.1-0.2-0.2-0.4-0.2c0.1,0.1,0.3,0.3,0.4,0.4
				c-3.9,3.6-7.7,7.2-11.6,10.8c-0.6,0.6-0.7,1.2-0.6,1.9c0.8,6.8,1.4,13.7,2.3,20.5c1.2,8.9,2.9,17.7,5.7,26.2
				c0.5,1.5,1.1,3,1.9,4.4c1.6,2.8,3.4,5.5,5.2,8.3c0.4-0.8,1.3-1.4,0.7-2.5c-0.7-1.2-0.3-2.3,0.1-3.5
				C184.6,364.8,185.2,363.4,185.8,361.9z M225.7,931.1c-2.5,7.8-5.1,15-6.2,22.7c-0.2,1.5,0.2,3.2,0.5,4.7c0.3,1.4,1.3,2.2,2.7,2.4
				c1.6,0.2,3.2,0.3,4.8,0.4c5.2,0.2,10.4,0.3,15.6,0.5c1.7,0.1,3.4,0.6,5.1,0.9c0.8-6.5,1.5-12.8,2.3-19.1
				c-0.4-0.1-0.6-0.2-0.9-0.2c-2.9-0.2-3.1-0.5-3.2-3.3c0-1.3,0-2.7,0-4.1C239.2,935.6,232.2,935,225.7,931.1z M124.3,427.3
				c-4.6,1.9-9.3,3.8-14.1,5.7c3.4,6,6.7,11.7,10.4,17.2c2.3-0.9,4.4-1.6,6.5-2.5c2.5-1.1,5.1-2.3,7.5-3.7c1.8-1,1.9-2,0.5-3.6
				C131.6,436.1,128.1,431.8,124.3,427.3z M229.9,252.1c0.6,0.3,0.9,0.6,1.2,0.7c5.1,2,10.1,3.9,15.2,5.9c1.1,0.4,1.8,0.2,2.6-0.5
				c3-2.4,6-4.8,9-7.2c1.9-1.5,1.9-2.8-0.1-4.3c-3-2.1-6-4.3-9-6.4c-0.4-0.3-0.8-0.4-1-0.6C241.7,243.9,235.9,248,229.9,252.1z
				 M248.1,260.6c-4.7,3.7-9.5,7.4-14.4,11.2c5.2,2.8,10.2,5.5,15.2,8.1c4-4.9,7.9-9.5,11.7-14.8
				C256.1,263.5,252.1,262.1,248.1,260.6z M390.1,516.2c0.2,0,0.5,0.2,0.8,0.1c5.8-0.2,11.5-0.8,17.1-2.2c1-0.2,2-0.7,2.8-1.3
				c1.7-1.3,1.5-3.2-0.4-4.2c-0.8-0.4-1.6-0.7-2.5-0.9c-2.7-0.6-5.5-1.1-8.2-1.6c-8.4-1.5-16.8-3.2-24.8-6.4
				c-0.2-0.1-0.4-0.1-0.9-0.1c2,2.1,4.2,3.4,6.6,4.6c1.9,0.9,3.9,1.8,5.9,2.8c2.3,1.2,3.5,3.2,3.8,5.8
				C390.4,513.9,390.2,515.1,390.1,516.2z M249.6,212.1c1.9,1.7,3.4,3.1,4.9,4.6c3.3,3.2,6.5,6.4,9.7,9.6c0.5,0.5,1,1,1.9,0.5
				c0.8-0.4,0.8-1.1,0.6-1.8c0-0.1,0-0.2,0-0.2c-0.4-6-0.8-12.1-1.3-18.1c0-0.5-0.1-1-0.1-1.8c-4.8,1.9-9.4,3.7-13.9,5.6
				C250.8,210.7,250.3,211.5,249.6,212.1z M249.8,213.8c-1.5,5-2,20.4-0.8,23.1c5-3,10-6,15-9C259.1,223.1,254.5,218.5,249.8,213.8z
				 M133.7,472.1c0.6-1.2-0.1-1.8-0.6-2.5c-4-5.5-7.9-11-11.9-16.5c-0.3-0.4-0.7-0.8-1.1-1.3c-3.7,1.1-7.4,2.1-11.4,3.3
				C116.3,462.4,124.7,467.6,133.7,472.1z M281.9,216.4c1.5-1,2.7-1.8,4-2.7c-2.4-5.5-3.3-11.4-6.7-16c-3.7,2-7.4,4-11.4,6.2
				C272.2,208.5,276.8,212.5,281.9,216.4z M354.8,465.2c-5.1-3.2-9.8-6.1-14.6-9.1c-1.8,6.2-3.6,12.3-5.4,18.5
				C341.5,471.8,348,468.8,354.8,465.2z M121.7,451.6c2,4,10.2,15.1,12.2,16.7c0.6-7.8,1.1-15.5,1.6-23
				C130.9,447.4,126.4,449.4,121.7,451.6z M341.4,512.7c-0.1,0.1-0.3,0.3-0.4,0.4c2.1,2.8,4.2,5.6,6.3,8.4c2.6,3.4,5.5,6.6,8.9,9.4
				c2.6,2.1,5.3,3.9,8.4,4.9c1.1,0.4,2.4,0.5,3.6,0.8c-0.1-0.4,0-0.5-0.1-0.6c-5-5.6-9.9-11.3-14.9-16.9c-0.5-0.6-1.1-1.2-1.8-1.5
				C348.1,516,344.8,514.4,341.4,512.7z M268,225.7c4.4-3,8.6-5.7,12.7-8.5c-4.8-4.4-9.4-8.6-14.4-13.2
				C266.2,211.4,266.8,218.4,268,225.7z M109.6,433.8c-0.3,0.3-0.4,0.4-0.5,0.5c-0.9,5.7-1.7,11.4-2.7,17c-0.2,1.4,0.2,2.3,1.6,3
				c1.8-0.6,3.7-1.2,5.5-1.9c1.9-0.6,3.7-1.3,5.7-2C116,444.8,112.9,439.4,109.6,433.8z M115,411.9c-2.1,6.6-4,13.1-5.2,20.1
				c5-1.9,9.5-3.6,13.8-5.8C120.7,421.3,117.9,416.7,115,411.9z M246.5,260c-5.6-2.2-10.8-4.2-16.4-6.4c1.2,5.9,2.3,11.4,3.5,17.2
				C238,267.1,242.1,263.7,246.5,260z M248.2,280.7c-4.9-2.8-9.5-5.5-14.3-8.3c1.1,6.8,2.9,13,5.2,19.5
				C242.2,288.1,245.1,284.5,248.2,280.7z M139.4,418.6c1.7-7.7,3.2-14.8,4.8-22.3c-4.2,2.7-8,5.1-12,7.7
				C134.1,408.9,136.4,413.6,139.4,418.6z M234.9,210.8c-4.5-0.6-8.8-1.6-13.1-2.1c0.2,5.1,0.3,9.8,0.5,14.6c0,0.2-0.1,0.5,0,0.7
				c0.3,0.5,0.6,0.9,1,1.3c3.9-4.7,7.6-9.2,11.3-13.7C234.7,211.5,234.7,211.3,234.9,210.8z M239.5,292.9c2.2,0.2,20.5-4.2,22.1-5.2
				c-4.1-2.2-8.2-4.3-12.4-6.5C245.9,285.1,242.8,289,239.5,292.9z M261.8,286.9c-0.6-6.7-0.8-13-1.6-19.6
				c-3.6,4.6-6.8,8.7-10.3,13.1C253.8,282.5,257.5,284.6,261.8,286.9z M346.7,436.1c3.3,2.3,6.5,4.5,10,6.9
				c0.9-5.6,1.7-10.8,2.5-16.2C354.9,430.1,350.9,433,346.7,436.1z M259.9,231.4c-4,2.4-7.9,4.8-11.9,7.1c1.5,1.8,8.8,6.6,10.9,7.3
				C259.3,241.1,259.6,236.3,259.9,231.4z M178.6,382c1.3-2.1,3.3-4.1,2.9-7.1c-0.4-3.1-2-5.6-4.2-6.1c-2,4.7-4,9.4-5.9,13.8
				C173.6,382.4,176,382.2,178.6,382z M319.3,464.1c0.2,0,0.5,0,0.7,0.1c2-6.2,4-12.4,5.7-19.2c-2.7,0.6-5,1.1-7.6,1.6
				C318.5,452.5,318.9,458.3,319.3,464.1z M259.1,251c-3.5,3-6.7,5.8-10.1,8.7c3.8,1.5,7.2,2.8,10.8,4.3
				C259.6,259.6,259.4,255.6,259.1,251z M215.7,207c-2.1,4.6-4.1,8.9-6,13.3c-0.3,0.6-0.2,1.3-0.4,2.1c1.5,0.2,2.6,0.4,3.9,0.6
				c2.1-5,4.1-9.8,6.3-14.8C218.1,207.6,216.9,207.3,215.7,207z M220.9,208.6c-0.2,0-0.5-0.1-0.7-0.1c-2,4.8-4,9.6-6.1,14.6
				c2.4,0.5,4.7,0.9,7.3,1.4C221.2,219,221.1,213.8,220.9,208.6z M132.3,377.5c-1.9,2.8-3.8,5.4-5.7,8.1c2.6,0.7,7.7,0.8,9.6,0.2
				C135,383.2,133.7,380.5,132.3,377.5z M310,376.2c-2.3,1.4-4,2.6-5.7,3.6c-1.8,1-3.7,1.9-5.6,2.8c0,0.2,0.1,0.4,0.1,0.6
				c2.8,0.6,5.7,1.2,8.7,1.8C308.4,382.1,309.1,379.4,310,376.2z M286.7,213.2c1.9-1.2,3.5-2.3,5.4-3.5c-3-2.2-5.8-4.2-8.6-6.3
				c-0.1,0.1-0.3,0.2-0.4,0.3C284.3,206.9,285.5,210,286.7,213.2z M276.6,193.1c0.1,1.1,0.3,1.8,0.4,2.8
				C278.4,194.6,277.8,194,276.6,193.1z"/>
			<path class="st0" d="M127.1,338.7c0.1-0.7-0.4-1.1-0.9-1.5c-2-1.6-4.1-3.1-6-4.8c-3.2-3-7.1-4-11.3-3.5c-4.4,0.5-8.7,1.1-13,1.9
				c-4.1,0.8-8,2-12.1,3.1c-0.6,0.2-1.2,0.5-2.3,1c0.8,0.4,1.2,0.6,1.5,0.6c8.7-0.6,17,1.7,25.1,4.3c7,2.2,13.5,5.3,19.9,8.8
				c1.7,1,3.4,2.1,4.7,4c-1,0.6-1.9,1.2-2.9,1.7c-1.3,0.6-2.6,1.2-3.9,1.8c-2.4,1.1-2.5,1.7-0.9,3.7c0.3,0.4,0.7,0.9,1,1.3
				c2.1,2.7,3.5,5.7,4.5,9c0.1,0.4,0.2,0.8,0.2,1.2c0,0.1-0.1,0.3-0.2,0.5c-0.4-0.5-0.7-0.9-1.1-1.3c-0.9-1.1-1.9-2.2-2.8-3.3
				c-2.9-3.2-6.4-4.5-10.7-4.2c-7.2,0.4-14.1,1.7-20.9,3.8c-4.3,1.3-8.4,2.9-13.2,4.5c5.4-4.9,11-8.8,16.1-13.2
				c-2.2,1-4,2.4-5.9,3.7c-1.9,1.4-3.7,2.7-5.6,4.2c-1.9,1.5-3.8,3-5.6,4.6c-1.7,1.5-3.7,2.7-4.9,4.7c1.2,0.9,2.1,0.2,2.9-0.2
				c8.2-4.3,17-7,26-8.8c3.9-0.8,7.9-1.1,11.9-1.5c3-0.3,5.7,0.6,8,2.6c2.9,2.5,5.5,5.3,7.7,8.5c-1.5,1.9-3,3.6-4.3,5.5
				c-5.9,8.2-10,17.3-13.4,26.7c-4.6,12.9-7.6,26.2-9.3,39.8c-0.1,0.9-0.3,1.7-0.5,3c-0.8-0.8-1.4-1.4-2-2
				c-6.2-6.9-11.3-14.5-16-22.4c-2.9-4.9-5.5-9.9-8.2-14.9c-2.7-5-4.9-10.2-6.6-15.7c-3-9.1-6.1-18.2-9-27.3
				c-1.1-3.6-1.6-7.3-2.2-11c-0.1-0.8,0-1.8,0.5-2.4c5-6.2,10-12.5,15.2-18.6c11.1-13.2,22.2-26.3,33.3-39.4c2.6-3.1,5-6.5,7.5-9.7
				c0.7-0.9,1.4-1.7,2.2-2.6c7.5-8.4,15.1-16.8,22.4-25.4c6.3-7.4,11.7-15.4,16-24.2c0.1-0.3,0.3-0.5,0.6-0.9c1.9,0.9,3.6,2.1,5,3.6
				c2.4,2.5,4.8,5.1,7.4,7.5c5.1,4.7,8.9,5.1,15,1.8c3.5-1.9,6.5-4.4,9.2-7.2c2.9-3,5.6-6.2,8.5-9.4c3.7,1.1,7.6,2.3,11.6,3.3
				c1.6,0.4,1.8,1.6,2,2.9c1.6,9.4,3.3,18.9,5,28.3c1.8,10.1,4.5,19.9,8,29.6c1,2.9,2.3,5.6,3.5,8.4c0.9,2.1,1,2.2,3.2,2
				c4.2-0.4,8.4-0.9,12.6-1.5c6.9-1,13.7-2.1,20.6-3.3c2.3-0.4,2.4-0.5,2.3-2.8c-0.1-3.6-0.4-7.2-0.5-10.8
				c-0.3-9.4-0.6-18.7-0.9-28.1c-0.1-3.4-0.4-6.7-0.4-10.1c0-3.6,0.3-7.2,0.4-10.8c0-1.3,0.6-2.2,1.8-2.8c5.9-3.5,11.8-7,17.7-10.6
				c3.7-2.2,7.5-4.3,11.2-6.6c1.1-0.7,1.9-0.7,3-0.1c6.1,3.5,12.2,6.9,18.4,10.4c0.7,0.4,1.4,0.9,1.9,1.4c3.7,3.6,6.7,7.7,7.6,13
				c1.9,11.2,4.5,22.3,5.1,33.6c0.2,4,0,8-0.5,12c-1.1,9.7-2.3,19.4-3.7,29c-1,6.6-2.4,13.1-3.6,19.6c-0.1,0.5-0.2,1.1-0.1,1.7
				c2.5-8,4.6-16.2,5.7-24.5c1.1-8.3,1.9-16.6,3-24.9c0.3,4.4,0.7,8.7,1,13.1c0.4,5.4,0.8,10.8,1.1,16.3c0.1,1.1,0,2.1-0.5,3.2
				c-0.6,1.3-0.8,2.9-0.9,4.4c-0.3,5.1-0.3,10.2-0.7,15.3c-0.6,6.9-1.2,13.9-2.4,20.7c-0.9,5.4-2.6,10.7-4,16
				c-0.1,0.4-0.2,0.7,0.1,1.3c0.3-0.7,0.7-1.4,1-2.1c3.5-7.3,5-15.1,5.8-23.1c1-10,1.6-19.9,1.8-30c0.2,2,0.5,4.1,0.7,6.1
				c0.2,2.1,0.4,4.3,0.5,6.5c0.2,12.2,0.9,24.4,2.8,36.6c2.5,16.5,7.1,32.5,13.8,47.8c0.4,0.9,0.7,1.8,1.1,2.7
				c-11.9,10.7-25.5,17.7-41.3,21.2c-0.2-0.8-0.3-1.4-0.4-2.1c-1-10.9-1.9-21.8-2.8-32.7c-0.3-3.6-0.4-7.2-0.4-10.8
				c0-2.5-0.9-4.1-3.4-4.7c-0.4-0.1-0.7-0.3-1.3-0.6c2.2-3,2.7-5.9-0.7-8.4c1.4-3.3,2.2-6.7,2.3-10.1c0-0.6,0.5-1.3,1-1.7
				c1.1-1.1,2.3-2,3.4-3c1.1-1,1.5-2.3,0.8-3.7c-0.8-1.8-1.6-3.7-2.5-5.4c-1.9-3.7-3.9-7.3-5.9-11c-2.4-4.4-3.8-9.1-3.7-14.2
				c0.2-7.5,0.7-15,0.8-22.5c0.1-3.5,0.9-6.7,2-9.9c2.2-6.3,2.8-13,2.9-19.6c0.2-7.8-0.1-15.7-0.8-23.5c-0.1-0.9-0.3-1.8-0.5-2.8
				c-0.2,0-0.3,0-0.5,0c-0.1,1-0.2,2-0.2,3.1c-0.1,7-0.1,14.1-0.2,21.1c-0.1,6.3-0.6,12.6-2.3,18.8c-1.2,4.4-3,8.6-5.2,12.6
				c-2.3,4.2-4.5,8.5-6.5,12.9c1.1-1.4,2.2-2.7,3.2-4.1c1.2-1.5,2.3-3.1,3.4-4.7c1-1.5,2-3.1,3.2-4.6c-0.3,2.1-0.5,4.3-0.8,6.4
				c-0.8,6-1.1,11.9-0.9,18c0.1,4.5,1.1,8.7,3.2,12.7c2.4,4.5,4.8,9,7.2,13.5c0.8,1.5,1.5,3,2.2,4.5c-0.2,0.4-0.4,0.7-0.6,0.9
				c-3.8,3.2-7.4,6.6-12.1,8.5c-1.3,0.5-2.7,1.2-3.8,2c-1.9,1.4-3.7,1.3-5.8,0.8c-15.7-3.6-31.5-5.2-47.6-4.6
				c-2.7,0.1-5.4,0.4-8.1,0.6c-1,0.1-2,0.3-3,0.9c0.8,0,1.6,0.2,2.4,0.1c8.7-0.7,17.4-0.8,26.1-0.3c8.7,0.5,17.3,1.7,25.9,3.2
				c2,0.4,4,0.7,6.1,1.5c-0.8,0.4-1.6,0.9-2.5,1.2c-11.4,3.5-22.9,6.1-34.9,5.7c-10-0.4-19.4-2.8-28.4-7.2c-4-2-7.5-4.9-10.7-8
				c-3.1-2.9-6.1-5.9-9.4-8.6c-4.9-4.1-10.6-6.8-16.8-8.5c-1-0.3-2-0.4-3-0.5c0,1.3,0.9,1.3,1.5,1.5c2.4,1.1,4.9,2,7.3,3.1
				c7.4,3.4,13.3,8.7,18.9,14.7c-0.5-0.1-0.7,0-0.9-0.1c-7.9-3.9-15.8-7.8-23.6-11.7c-1-0.5-1.9-1.4-2.8-2.1
				c-2.1-1.8-4.2-3.7-6.3-5.6c-1.9-1.7-2-2.3-0.7-4.5c0.6-1,1.2-1.9,1.9-2.8c2.9-3.8,4.6-8.1,4.7-12.9c0-4.3-0.3-8.6-0.4-12.9
				c0-0.5-0.1-0.9,0.3-1.6c1.7,3.3,3.3,6.6,5,10c0.1-0.1,0.3-0.1,0.4-0.2c-0.2-0.7-0.5-1.5-0.7-2.2c-2.5-6.4-5-12.8-7.6-19.2
				c-1.7-4.1-2.6-8.4-2.7-12.8c-0.1-7.2,0.1-14.4,0.2-21.6c0-2.2,0.2-4.3,0.1-6.5c0-1.2-0.3-2.3-0.4-3.7c-1.3,0.7-1.2,1.7-1.3,2.5
				c-0.3,3.1-0.7,6.2-0.9,9.3c-0.3,5.8-0.5,11.7-0.6,17.5c0,1.4-0.4,2.3-1.4,3.3c-10.1,10.8-21.6,20-32.8,29.5
				c-6,5.1-12.1,10-18.1,15c-1.8,1.5-1.9,1.8-0.5,3.7c0.3,0.5,0.6,0.9,0.9,1.5c-11.9-7.3-24.7-11.8-38.9-13.5
				c0.8-0.4,1.3-0.6,1.7-0.7c5.9-1.5,11.9-2.6,17.9-3c3.8-0.3,7.2,0.6,10.3,3c2.2,1.7,4.7,3,7.1,4.5
				C126.5,338.2,126.8,338.5,127.1,338.7c0.5,0,1,0,2.1,0c-2.8-6.5-6.2-12.2-9.8-17.8c0.1,0.7,0.3,1.4,0.6,2c2.3,4.5,4.7,9,7.1,13.6
				C127.4,337.2,128,338,127.1,338.7z M216.4,307.5c2.9-0.3,5.7-0.6,8.6-1c2-0.3,2.2-0.6,1.8-2.7c-1.5-6.6-3.1-13.2-4.6-19.8
				c-3.1-13.1-6.6-26.2-8-39.6c-0.1-1.4-0.5-1.7-1.9-1.5c-2.1,0.3-4.3,0.6-6.4,0.8c-0.4,0.1-0.8,0.1-1.2,0.2c-0.9,0.3-1.2,0.8-1,1.8
				c0.4,1.5,0.7,3.1,0.8,4.7c0.5,7.3,0.9,14.5,2.3,21.7c2,9.9,4.2,19.7,6.3,29.5c0.3,1.5,0.7,3,1.1,4.4
				C214.5,307.1,215.2,307.7,216.4,307.5z M279.8,300.6c3.3-0.5,6.2-0.8,9.1-1.3c0.8-0.1,1.2-0.7,1.3-1.5c0-0.8,0-1.6,0.1-2.4
				c0.2-5.5,0.4-11,0.8-16.5c0.3-5.1,0.8-10.2,1.1-15.3c0.3-4.4,0.6-8.8,0.7-13.2c0.1-3.7,0-7.3,0-11c-2.1-0.8-4.2-0.5-6.2-0.5
				c-5-0.1-5-0.1-5.3,5c-0.5,7.6-1.2,15.3-1.6,22.9c-0.4,8.6-0.6,17.2-0.7,25.9C279,295.2,279.5,297.7,279.8,300.6z M304,370.6
				c-5.7,0.6-12,0.5-17.5-0.3c-11-1.6-21.9-3.8-32.7-6.3c-19.7-4.7-39.4-9.6-59.1-14.3c-0.6-0.1-1.2-0.2-1.9-0.3
				c0,0.2-0.1,0.3-0.1,0.5c1.5,0.5,3,1.1,4.5,1.5c9.6,2.7,19.2,5.4,28.9,7.9c18.6,4.8,37.1,9.6,56.1,12.5c4.3,0.6,8.6,0.9,12.9,1
				C298.1,372.8,301.1,372.3,304,370.6z M309.5,368.5c0.1-0.3,0.2-0.6,0.4-0.9c-0.3-0.1-0.6-0.3-0.9-0.4
				c-27-6.3-52.7-16.7-79.1-24.9c0.4,0.4,0.9,0.6,1.4,0.8c15.5,5.7,30.9,11.6,46.5,17.2c9.5,3.4,19.2,6.1,29.1,8
				C307.8,368.4,308.7,368.4,309.5,368.5z M336.2,331.4c-0.7,1.2-1.4,2.4-2.1,3.6c-0.7,1.2-1.3,2.4-2,3.5c-0.7,1.3-1.6,2.4-2,3.8
				c-0.5,1.2-1.7,1.8-2.2,2.9c-0.8,2-1.7,3.9-2.5,5.9C329.9,345,333.7,338.5,336.2,331.4z M116.8,353.8c0.1-0.2,0.2-0.4,0.3-0.6
				c-1.1-0.7-2.2-1.4-3.3-2.1c-0.1,0.2-0.2,0.3-0.3,0.5C114.6,352.4,115.7,353.1,116.8,353.8z"/>
			<path class="st1" d="M241.6,532.8c1.4,0,2.5,0,3.6,0c11.7,0.5,23.3,1.1,35,1.4c13.5,0.4,26.6-1.8,38.8-8c0.2-0.1,0.4-0.2,0.7-0.3
				c0.1,0,0.3,0,0.7,0.1c0,0.8,0,1.6,0,2.3c0.2,17.4,0.5,34.7,0.7,52.1c0.2,17.8-0.1,35.7-1.1,53.5c-0.7,13-1.9,26-3.6,38.9
				c-1,7.6-2.1,15.2-4.2,22.6c-1.1,3.7-1.4,7.5-1.5,11.4c-0.2,8.3-0.3,16.6-1,24.9c-0.6,7.6-1.8,15.2-2.9,22.8
				c-1.5,9.9-3,19.8-4.7,29.6c-2.4,13.5-4.9,27.1-7.4,40.6c-1.6,8.8-2.2,17.6-2.4,26.5c-0.3,17.3,1.4,34.3,4.7,51.3
				c1.6,8,2.5,16.1,2.4,24.3c0,2.4-0.8,4.1-2.9,5c-3,1.4-5.9,2.8-9.1,3.7c-11.9,3.2-24.1,5.1-36.4,5.3c-0.5,0-0.9,0-1.6,0
				c-0.1-0.7-0.2-1.3-0.2-1.9c-0.5-23.4-0.9-46.9-1.5-70.3c-0.3-9.7-1.2-19.3-1.9-29c-0.5-7.8-1.2-15.6-1.7-23.4
				c-0.5-7.7-1-15.3-1.3-23c-0.2-5.6-0.1-11.2-0.1-16.8c0-3.8,0.3-7.7,0.2-11.5c-0.1-9.2,1.1-18.2,3.6-27c2.6-9.2,4.4-18.5,5.3-28
				c0.5-4.8,0.1-9.6-0.4-14.4c-1.2-11.5-2.6-23-3.7-34.6c-1.4-15.9-2.5-31.9-3.6-47.8c-0.7-10-1.3-20-1.6-29.9
				c-0.5-16-0.6-32-0.9-48C241.6,534.4,241.6,533.6,241.6,532.8z M306.9,705.9c-0.2-0.1-0.3-0.2-0.5-0.3c-0.4,0.5-0.8,1-1.2,1.5
				c-7.7,8.8-17.1,12.3-28.6,9c-2.9-0.8-5.8-1.8-8.7-2.6c-1.1-0.3-2.3-0.6-3.5-0.6c-1.8-0.1-2.5,1.1-1.8,2.7c0.5,1.1,1.1,2.2,1.9,3
				c1.8,1.9,3.7,3.8,5.8,5.3c9.5,6.7,19.8,9.9,31.5,7.1c0.2,0,0.4,0.1,0.9,0.2c-2.4,2.9-4.7,5.7-7,8.5c0.2,0.1,0.3,0.2,0.5,0.4
				c3-3.2,6.7-5.9,8.3-10.2c-1-1-1.7-0.4-2.5-0.3c-1.7,0.3-3.3,0.8-4.9,0.9c-10.9,0.6-20.4-3.1-28.7-10c-1.4-1.2-2.6-2.6-3.8-4
				c-0.5-0.6-0.7-1.5-1.3-2.6c1.2,0,2-0.1,2.7,0c1.8,0.4,3.5,0.9,5.3,1.5c2.4,0.7,4.7,1.7,7.1,2.3c10.4,2.7,19.1,0,26.1-8.1
				C305.4,708.5,306.1,707.1,306.9,705.9z"/>
			<path class="st1" d="M246.5,933.3c-8.9-0.2-16.9-2.1-23.8-7.3c-5.1-3.8-4.5-3.6-3.3-8.9c0.9-4.1,2.1-8.2,3-12.3
				c0.9-4.4,0.5-8.8-0.3-13.1c-1.9-10.6-4.1-21.2-6.1-31.8c-2.7-13.9-5.3-27.8-8-41.7c-2.6-12.9-5.4-25.8-8-38.7
				c-2-9.6-3.8-19.3-5.7-28.9c-0.1-0.6-0.2-1.3-0.2-1.9c-0.7-24.5-1.3-49.1-1.9-73.6c0-1.3,0.4-2.7,0.4-4c0-2.3,0.1-4.6-0.1-6.9
				c-0.9-7.5-1.8-15.1-3.2-22.6c-1-5.6-2.6-11-4.1-16.5c-4.7-17-9.7-34-14.3-51c-4.1-15.1-7.2-30.3-9.3-45.8
				c-0.6-4.5-1-9.1-1.5-13.6c0-0.5,0-0.9,0-1.7c3.3,0.8,6.4,1.4,9.5,2.2c9.5,2.7,19,5.5,28.5,8.3c13.3,4,26.8,7.4,41,8.8
				c0,0.9,0.1,1.7,0.1,2.5c0,4.9,0,9.8,0.1,14.6c0.3,13.4,0.3,26.7,1,40.1c0.9,17.6,2.3,35.3,3.6,52.9c0.7,10,1.6,20.1,2.6,30.1
				c0.5,5.6,1.5,11.1,2.1,16.7c0.9,8.9,1.6,17.8,0.1,26.8c-1.3,8.1-3.1,16.2-5.3,24.1c-1.7,6.2-2.8,12.5-2.9,18.9
				c-0.1,11.1-0.7,22.2-0.3,33.3c0.5,14.7,1.5,29.4,2.7,44c1.5,18,2.5,36.1,2.6,54.1c0.1,11.9,0.6,23.8,0.9,35.7
				C246.5,928.5,246.5,930.8,246.5,933.3z M202,685.5c0.7-0.4,1-0.7,1.3-0.9c4.7-2.5,9.5-5,14.2-7.5c4-2.1,7.9-4.1,11.9-6.2
				c0.9-0.5,1.8-1.1,2.5-1.8c0.8-0.8,0.5-1.7-0.6-2c-0.7-0.2-1.4-0.2-2.1-0.2c-1.8,0.1-3.7,0.2-5.5,0.4c-7.3,0.7-14.6,1.5-21.9,2.3
				c-1,0.1-1.9,0.2-2.9,0.3c-0.9,0.1-1.7,0.1-2.6,0.2c0,0.2,0,0.4,0,0.6c0.8,0.1,1.7,0.3,2.5,0.3c2.3,0,4.6,0,6.9-0.2
				c5.7-0.5,11.3-1.1,16.9-1.6c2.2-0.2,4.4-0.4,6.6-0.5c-0.4,0.7-1,1.2-1.6,1.5c-4.3,2.3-8.6,4.5-13,6.8c-4.2,2.2-8.4,4.4-12.5,6.6
				c-2.1,1.1-2.3,2.2-0.6,3.9c1,0.9,2.1,1.8,3.2,2.6c8.7,6.3,17.7,12,27,17.5c0.3,0.2,0.8,0.3,1.1,0.4c-5.7-4.4-11.5-8.4-17.4-12.4
				c-3.6-2.5-7.2-5-10.8-7.5C203.9,687.2,203.1,686.4,202,685.5z"/>
			<path class="st0" d="M151.2,509.3c2.8-20.9,6.1-41.5,7.4-62.3c1.7-0.4,3.3-0.8,4.8-1.1c0.8,0.8,1.7,1.6,2.6,2.4
				c1.9,1.6,3.6,1.8,5.7,0.5c1.1-0.7,2.2-1.6,3.1-2.6c3.4-3.6,5.9-7.7,8.1-12.1c0.4-0.8,0.8-1.7,0.7-2.5c-0.1-1.9,0.8-3.5,1.4-5.2
				c1-2.9,2-5.9,2.5-9c0.4-2.2,0.2-4.6,0.2-6.9c0-2.6,0.1-5.1,0-7.7c-0.1-5.8-1.7-11.2-4.5-16.2c-0.7-1.2-1.7-2.3-2.7-3.6
				c0.9-1.6,2-3.4,2.8-5.2c0.8-1.9,1.4-3.8,2.1-6c0.8,0.8,1.5,1.3,2.1,1.9c10.9,10.6,23.9,17.2,38.4,21.2c14,3.9,28.3,6,42.8,6.6
				c2.9,0.1,5.9,0,9.1,0c1.8,3.2,3.9,6.3,7,8.1c0.8,9.6,1.5,19,2.3,28.7c-26-5.2-51.2-12.4-76.5-19.9c2.2,1.6,14.6,5.5,37.9,11.9
				c12.8,3.5,25.7,6.7,38.9,9.1c0.3,2.6,0.5,5,0.7,7.5c-0.8,0.1-1.4,0.2-1.9,0.2c-7.1,0.1-14.2,1.2-21.2,2.1
				c-15.4,2.1-30.9,4.1-46.4,6.1c-6.7,0.9-13.3,1.6-20,2.3c-1.1,0.1-2.2,0.1-3.3,0.4c1.3,0,2.6,0.1,3.9,0c8.9-0.7,17.9-1.3,26.8-2.3
				c9.8-1.1,19.5-2.6,29.2-4c9.5-1.4,18.9-3.3,28.5-3.9c1.4-0.1,2.9,0,4.5,0c0.1,1.1,0.2,2.3,0.4,3.5c0.8,6.4,1.2,12.7,0.8,19.2
				c0,0.5,0,1,0,1.4c0,1,0.6,1.4,1.5,1.6c0.1,0,0.2,0,0.2,0c6.7,0.1,13.4,0.5,20.1-0.9c2.3-0.5,2.7-1,2.5-3.3
				c-0.6-8.1-1-16.3-1.8-24.4c-1.1-10.6-2.4-21.1-3.7-31.7c-0.3-2-0.9-4-1.5-6.1c-0.1-0.4-0.2-0.9-0.5-1.1c-1.6-1.3-1-2.7-0.4-4.1
				c0.9-2,1.8-3.9,2.7-5.9c0.8,0.2,1.3,0.4,1.8,0.6c1.6,0.4,2.1,1.4,2.1,3c-0.2,7.6,1,15.2,1.5,22.7c0.6,7.9,1.4,15.8,1.7,23.7
				c0.5,13.4,2.1,26.6,4.6,39.7c1.6,8.5,2.7,17,3.1,25.7c0.1,2.2,0.4,4.5,0.7,6.7c0.2,1.2-0.2,2.1-1.1,2.7c-1.7,1.1-3.3,2.2-5.1,3.1
				c-8,3.9-16.4,6.2-25.2,7.3c-6.5,0.8-12.9,0.7-19.4,0.4c-8.5-0.4-16.9-0.9-25.4-1.3c-14-0.7-27.6-3.2-41-7.1
				c-12.1-3.5-24.2-7.1-36.4-10.5c-5.9-1.7-12-2.9-18.1-3.3C152.1,509.5,151.7,509.4,151.2,509.3z M192.5,458.6c0,0,0-0.1,0-0.1
				c-1,0-1.9,0-2.9,0c0,0,0,0.1,0,0.1C190.6,458.6,191.6,458.6,192.5,458.6z M185.8,459.1C185.8,459,185.8,459,185.8,459.1
				c-0.3-0.1-0.6-0.1-0.9-0.1c0,0,0,0,0,0.1C185.2,459.1,185.5,459.1,185.8,459.1z"/>
			<path class="st2" d="M180.5,150.7c2,5.8,4.5,11.2,8,16.2c6.2,8.9,13.9,16.2,23.6,21.4c1,0.5,1.4,1.1,1.5,2.2
				c0.2,2.3,0.7,4.6,0.8,6.9c0.1,2,0,4-0.6,5.9c-4.1,14.6-12,27-23,37.3c-2.2,2-4.8,3.7-7.4,5.2c-3.7,2.2-7.3,1.9-10.5-1.2
				c-2.3-2.2-4.6-4.4-6.8-6.7c-2.2-2.4-4.7-4.3-7.7-5.7c-2.5-1.1-2.7-1.5-2-4.3c0.9-3.6,1.8-7.1,3-10.6c2.4-7.3,4.9-14.5,7.4-21.8
				c0.1-0.4,0.2-0.7,0-1.2c-1.8,4-3.6,8-5.4,12.1c-0.1,0-0.2,0-0.4,0c0-0.6-0.1-1.2-0.1-1.7c0.7-13,0-26.1-0.7-39.1
				c-0.3-5.7-0.1-11.4-0.1-17c-0.1-12-0.6-24-0.4-36c0.3-15.1,2.9-29.9,7.9-44.2c1.6-4.5,3.7-8.8,6.7-12.7c0.4-0.6,0.9-1.1,1.4-1.7
				c3.3-4.4,7.8-6,13.1-5c2.2,0.4,3.3-0.3,4.4-2.2c2.9-4.9,7-8.4,12.4-10.5c13.8-5.5,27.9-7.5,42.8-5.8c16.7,2,31.9,8,46.8,15.6
				c10.6,5.5,16.6,14.1,18.9,25.4c1.7,8.4,3,16.8,4.3,25.3c2.8,17.5,3.7,35.1,5.6,52.7c1.3,11.6,1.8,23.3,2.6,34.9
				c0.6,8.8,1.2,17.6,1.6,26.3c0.2,4.8,0.2,9.6,0.3,14.4c0,1.5,0.2,3,0.3,4.7c-0.4-0.2-0.7-0.3-0.9-0.5c-1.7-1.8-3.7-3-5.8-4.1
				c-8-4.2-15.8-8.8-23.2-13.9c-4.4-3.1-8.8-6.1-13.1-9.3c-2.3-1.7-4.1-3.7-4.9-6.6c-0.6-2.2-2.1-3.9-4.3-5.1
				c0.2-4.8,0.6-9.6,0.6-14.4c-0.1-3.6,0.9-6.4,3.5-8.9c2.1-2,3.9-4.4,5.7-6.8c1-1.4,1.8-3,2.3-4.7c1.7-5,2.3-10.1,2.5-15.3
				c0-0.9,0-1.8,0-2.8c3.4,1,5.5-0.8,7.3-3.1c2.2-2.9,3.2-6.2,3.9-9.7c1.1-5.7,1.1-11.5-0.6-17.1c-0.6-1.9-1.5-3.8-2.6-5.3
				c-2.4-3.2-5.7-3.1-8.2,0c-0.5,0.6-0.9,1.3-1.5,2.2c-0.2-0.9-0.4-1.5-0.6-2.2c-1.4-6.1-5.2-9.2-11.5-9.7
				c-3.8-0.3-7.5,0.7-11.2,1.4c-7.8,1.3-15.6,2.5-23.6,2.1c-9.7-0.5-19-2.6-27.8-6.8c-7.5-3.5-13.4-8.9-18.3-15.5
				c-0.7-1-1.4-1.9-2.2-2.9c-0.1-0.1-0.3-0.1-0.7-0.3c-0.3,1.3-0.6,2.5-0.8,3.7c-0.9,7.3-1.7,14.6-2.7,21.9
				c-1.3,9.2-3.6,18.2-6.2,27.1c-2.9,10-4.4,20.1-4.6,30.5c0,1.1,0,2.2,0.3,3.4C179.8,154.9,180.1,152.8,180.5,150.7z"/>
			<path class="st3" d="M288.9,110.4c0.3-0.8,0.4-1.3,0.7-1.8c0.9-1.9,1.6-3.9,2.8-5.5c1.5-2,3.3-2,4.7,0.1c1,1.5,1.9,3.2,2.4,4.9
				c1.8,6.9,1.6,13.8-0.8,20.5c-0.6,1.7-1.7,3.2-2.6,4.8c-0.4,0.6-1,1.1-1.6,1.5c-1.8,1.2-3.3,0.6-3.6-1.5
				c-0.6-4.5-1.3-8.9-2.1-13.3c-0.2,7.4-0.4,14.7-0.7,22.1c-0.2,4.3-0.8,8.6-2.1,12.7c-0.4,1.4-1.1,2.9-2.1,4
				c-6.3,7.3-12.7,14.6-19.1,21.8c-0.2,0.2-0.4,0.5-0.7,0.7c-6.4,4.3-12.6,9-20.3,11.2c-6.5,1.9-12.9,1.6-19.4-0.4
				c-0.6-0.2-1.2-0.4-1.8-0.7c-7-4-14.2-7.8-20.3-13.1c-9.1-7.8-16-17.1-19.7-28.7c-0.9-2.9-1.1-5.6-0.5-8.6
				c1.7-10,4.8-19.7,7.2-29.6c2.2-9.1,3.5-18.4,4.2-27.7c0.2-3.1,0.4-6.2,0.6-9.6c0.4,0.3,0.6,0.4,0.8,0.7
				c6.7,10.5,16.5,17,28.3,20.5c8.5,2.6,17.2,3.9,26,3.3c6.3-0.4,12.5-1.6,18.8-2.5c2.4-0.3,4.7-0.8,7.1-1c6.5-0.5,9.7,2.5,11.3,7.5
				c0.6,2,1,4,1.6,6C288.2,109.1,288.5,109.6,288.9,110.4z M237,175c3-0.1,5.4-1.4,7.8-3.1c7.1-4.9,11.4-11.9,15.2-19.4
				c0.2-0.3,0.2-0.9,0-1.1c-0.3-0.2-1-0.5-1.3-0.3c-0.8,0.5-1.6,1.1-2.1,1.8c-0.5,0.8-1.1,1.2-2,1.5c-6.4,1.8-12.7,3.8-19.1,5.6
				c-6.6,1.8-13.4,2.4-20.2,1c-0.8-0.2-1.5-0.3-1.8,0.6c-0.3,0.9,0.4,1.3,1,1.6c3.5,2.1,7,4.2,10.5,6.2c2.6,1.5,5.1,2.9,7.8,4.2
				C234.2,174.4,235.7,174.6,237,175z M202,126.7c-0.2,0.3-0.4,0.5-0.4,0.7c0,0.5-0.1,1.1,0.2,1.4c0.2,0.2,0.9,0.1,1.3,0
				c0.4-0.2,0.8-0.5,1.2-0.8c1.8-1.2,3.9-1.7,6.1-2c3.9-0.4,7.2,1.2,10.5,2.7c2.4,1.1,3.2,2.7,2.7,5c-0.4,1.7-1.1,3.3-1.8,4.9
				c-0.5,1.2-1.3,2.2-1.8,3.4c-1.1,2.5-0.5,4.5,1.7,6.1c2.2,1.5,4.6,2.2,7.3,2.1c1.8-0.1,3.4-0.7,5.2-2.1c-2-0.1-3.5-0.2-4.9-0.2
				c-2.2,0-4.3-0.5-6.1-1.7c-1.3-0.9-1.5-1.7-0.8-3.1c0.6-1.3,1.4-2.5,2.1-3.8c3.7-6.3,0.9-13.5-2.5-17.1c-1.4-1.5-3.2-2.4-5.4-2.7
				c1.3,2.1,3.7,3,4.6,5.8c-0.9-0.5-1.4-0.8-2-1.1c-5.2-3-10.6-3.2-16.1-0.8c-1.2,0.5-2.3,1.1-2.7,2.6
				C200.8,126.2,201.3,126.4,202,126.7z M244,125.6c1.1-1.5,1.9-2.5,2.6-3.5c3.6-5.3,10.3-7,16-4c0.3,0.1,0.5,0.2,1,0.4
				c-0.5-0.9-0.8-1.5-1.2-2.2c0.7-0.3,1.3-0.6,2-0.9c-2.8-2.5-5.9-2.6-9.1-2c-3.4,0.7-6.8,1.7-10,4.3c0.4-1.8,0.7-2.9,1-4.3
				c-2.7,1.7-4,4.1-4.2,6.9c-0.2,1.9-1.3,3.9,0.1,6c1-1.1,0.8-2.8,2.2-3.5C244.1,123.6,244.1,124.3,244,125.6z M263.3,105.4
				c-1.4-2.7-3.6-4.3-6.5-4.8c-6.6-1-12.5,0.8-17.6,5c-0.6,0.5-1.4,1-1.3,2.3c0.6-0.2,1.2-0.2,1.7-0.4c0.9-0.4,1.8-1,2.7-1.5
				c5.9-3.3,12-4,18.4-1.6C261.5,104.7,262.4,105,263.3,105.4z M195,114.7c0.1,0.2,0.2,0.3,0.4,0.5c1.4-0.9,2.7-1.8,4.1-2.8
				c3.8-2.8,7.9-3.7,12.4-2.4c0.9,0.3,1.8,0.6,2.8,0.8c0.7,0.1,1.4,0.4,2.1-0.7c-3.6-3-7.7-4-12.2-3C200.1,108,196.4,110,195,114.7z
				"/>
			<path class="st4" d="M251.1,962.3c0.5,3.7,0.8,7.4,1.5,11.1c1,6.1,2.2,12.1,3.4,18.1c0.7,3.3,2.2,6.3,4.3,9
				c1.4,1.8,3.1,2.5,5.2,2.1c1.6-0.3,3.2-0.8,4.9-1.2c3.9-0.9,7.8-1.9,11.7-2.6c4.8-0.9,9.6-0.2,14.3,0.6c2.6,0.4,3.4-0.1,3.8-2.6
				c0.3-2.1,0.4-4.3,0.5-6.4c0.1-4.7,0-9.4,0.4-14.3c0.2,0.7,0.4,1.4,0.6,2c2.4,10.2,4.8,20.4,7.2,30.6c0.9,3.7,1.8,7.3,2.6,11
				c1.3,6.3-0.6,11.7-5.3,16.1c-3.6,3.4-7.7,5.6-12.7,6.3c-7.1,1-14.2,2.1-21.4,3c-4.4,0.5-8.8,0-13.1-1.1
				c-6.8-1.8-10-5.5-10.7-12.5c-0.8-8-1.1-16.1-0.7-24.2c0.5-9.5,1.1-19,1.7-28.5c0.4-5.5,1-11,1.5-16.5
				C250.9,962.3,251,962.3,251.1,962.3z"/>
			<path class="st3" d="M297.7,996.8c-0.8,0-1.4,0.1-1.9,0c-7.9-1.9-15.6-0.8-23.2,1.3c-2.2,0.6-4.3,1.2-6.4,1.9
				c-1.9,0.6-3.2,0.1-4.3-1.6c-1.3-1.9-2.5-3.9-3-6.2c-1.5-7-3-13.9-4.2-20.9c-1.1-6.4-2-12.9-2.7-19.5c-0.3-2.7,0.2-5.4,0.4-8.4
				c13.9-0.6,27.5-2.7,41-7c0.3,2,0.6,4.1,1,6c1.2,6.4,2.4,12.9,3.6,19.3c0.4,2.1,0.7,4.3,0.7,6.4c0,7.8-0.2,15.5-0.3,23.3
				C298.1,993.3,297.8,995,297.7,996.8z"/>
			<path class="st5" d="M293.5,210.7c2.6,1.8,5,3.5,7.6,5.3c-0.8,0.5-1.3,0.9-1.9,1.3c-5.8,3.4-11.6,6.7-17.4,10.2
				c-3.6,2.2-7.1,4.6-10.7,6.9c-0.8,0.5-1.2,1.2-1.3,2.1c-0.2,2.6-0.6,5.1-0.5,7.6c0.4,17,0.9,33.9,1.3,50.8c0,1.2,0,2.4,0,3.8
				c-11.8,1.7-23.3,3.7-35,4.9c-2.3-4.6-4.1-9.3-5.6-14.1c-3.7-11.3-6.2-22.8-8.1-34.5c-1.1-6.4-2.3-12.7-3.5-19.1
				c-0.3-1.7-1.1-2.8-2.8-3.2c-3.4-0.9-6.8-1.9-10.2-2.8c-0.4-0.1-0.8-0.2-1.4-0.4c1.4-2.1,2.6-4.1,4-6.3c4.4,0.9,8.9,1.8,13.3,2.7
				c1.1,0.2,1.3,1,1.5,1.9c1.3,5.8,2.6,11.5,3.8,17.3c2.6,12.3,5,24.6,7.7,36.8c0.8,3.7,2.1,7.2,3.3,10.8c0.7,2.1,0.9,2.3,3.1,1.9
				c3.6-0.7,7.2-1.6,10.7-2.5c3.8-0.9,7.6-1.8,11.4-2.8c0-2,0.1-3.8,0-5.6c-0.7-12.5-2.4-25-2.4-37.6c0-4,0.4-8,0.4-12
				c0-1.7,0.8-2.6,2.1-3.5c7.1-4.7,14.1-9.4,21.2-14.1C287.3,214.7,290.3,212.7,293.5,210.7z"/>
			<path class="st3" d="M164.8,445.1c2.8-2,4.5-4.5,6-7.3c0.3-0.5,0.6-1,0.6-1.5c0-0.4-0.3-0.9-0.5-1.1c-0.1-0.1-0.7,0.2-1,0.4
				c-0.3,0.3-0.5,0.8-0.7,1.2c-1.1,1.6-2.1,3.4-3.5,4.9c-4.2,4.6-9.9,3.8-14.1,1.5c-0.4-0.2-0.8-1-0.8-1.5c0-1.2,0.2-2.4,0.3-3.6
				c0.4-4.9,0.8-9.9,1.1-14.8c0.3-7.1,0.5-14.2,0.7-21.3c0-0.8,0.1-1.6,0.2-2.5c4.9-0.7,7.6-4.3,10.8-7.5c2-2.1,4.1-4,6.4-5.8
				c2.1-1.6,4.6-2.1,7.3-1.7c1.4,0.2,2.6,0.9,3.4,2c1.9,2.8,3,5.9,4.3,9.3c-5.7-0.8-11-1-15.7,3.7c2-0.5,3.5-0.9,5-1.4
				c2.7-0.8,5.5-1,8.3-0.6c2.3,0.3,3,1,3,3.3c0.1,3.4,0,6.9,0,10.5c-5.4-3.4-10.9-4-16.3,0.2c1.6-0.2,3.2-0.4,4.8-0.8
				c3.2-0.7,6.2-0.1,9,1.4c1.9,1,2.8,2.4,2.4,4.5c-0.7,3.5-1.6,7-2.5,10.8c-4.6-3.7-9.3-4.8-14.6-2.8c0.8,0.1,1.6,0.2,2.4,0.4
				c2.7,0.5,5.4,0.9,7.9,1.7c2.9,0.9,3.9,3.9,2.5,6.6c-2.2,4.2-4.8,8.1-8,11.6c-0.2,0.2-0.4,0.5-0.7,0.7
				C170.3,447.6,168.7,449.1,164.8,445.1z"/>
			<path class="st4" d="M244.7,1000.6c-3.1,0-6.1,0.2-9,0c-9-0.8-17.9-2.1-26.6-4.7c-1.7-0.5-3.5-1.2-5.1-2.1
				c-2.8-1.5-3.8-3.5-2.9-6.6c0.9-3.2,1.9-6.4,3.1-9.6c3.5-9.3,7.3-18.4,10.6-27.8c2.4-6.6,4.2-13.4,6.2-20.1c0.1-0.3,0.2-0.6,0.4-1
				c0.7,0.4,1.3,0.7,1.9,1.1c-0.1,0.5-0.1,0.9-0.2,1.2c-1.8,6-3.6,11.9-5.3,17.9c-0.8,2.7-1.3,5.4-0.8,8.3c0.7,4.5,2.7,6.4,7.2,6.5
				c4.7,0.2,9.4,0.1,14.2,0.3c2.6,0.1,5.3,0.4,7.9,0.7c0.5,0.1,1,0.3,1.7,0.5C246.8,976.9,245.8,988.6,244.7,1000.6z"/>
			<path class="st3" d="M340.9,492.8c-0.2,1.1-0.4,2.2-0.5,3.3c-0.2,2.4,0.5,4.3,2.7,5.7c1.1,0.7,2.1,1.7,3.1,2.6
				c3.1,2.8,6.8,4.1,10.8,4.8c0.2,0,0.5,0.1,0.7,0.1c2.7,0.3,4.9,1.3,6.6,3.6c5.6,7.5,11.5,14.8,17.2,22.2c0.4,0.6,0.7,1.2,1.2,1.9
				c-1.9,1.8-4.1,1.7-6.3,1.3c-2.2-0.4-4.2-1.5-5.9-3.1c-1.9-1.8-3.8-3.7-5.5-5.6c-3.2-3.6-6.3-7.2-9.4-10.9
				c-1.2-1.5-2.6-2.6-4.3-3.4c-0.9-0.4-1.9-0.9-2.8-1.4c-7.9-3.7-7.9-3.7-14.1-9.3c1.7,4.7,4.4,9,7.3,13c3,4.1,6.1,7.9,9.3,12
				c-0.6-0.2-1.2-0.3-1.7-0.5c-6.9-2.5-12.1-7-15.9-13.2c-1.7-2.7-3.2-5.5-4.9-8.3c-0.1-0.1-0.2-0.3-0.3-0.4c-1-1.3-2.5-2.6-2.8-4.1
				c-0.7-2.8-0.7-5.7-1-8.6c12.1-2.9,23.2-8,34-14c0.3,0.6,0.6,1.1,1,1.6c3.3,5.2,6.5,10.4,10,15.5c2.9,4.4,7,7.4,11.9,9.4
				c1.4,0.6,2.9,1.1,4.1,1.9c1,0.6,1.9,1.5,2.4,2.5c1.4,2.9,0.3,5-2.9,5.6c-3,0.6-5.9-0.1-8.6-1.4c-2.4-1.2-4.8-2.6-7.1-4
				c-3-1.7-5.9-3.5-9.4-4.2c-1.4-0.3-2.8-0.4-4.2-0.8c-4.4-1-8.2-3.4-12.1-5.6c-1.3-0.7-1.4-2.1-1.5-3.4c-0.2-1.7-0.3-3.3-0.5-5
				C341.2,492.8,341,492.8,340.9,492.8z M339.1,502.3c-1.7-1-7.7-1.5-11.4-0.9C331.5,502.8,335.1,503.1,339.1,502.3z"/>
			<path class="st3" d="M275.2,172.8c-0.7,8.3-1.6,16.4-0.5,24.7c-0.9,0.5-1.8,1.1-2.7,1.5c-5.9,2.6-11.8,5.2-17.8,7.8
				c-0.6,0.3-1.2,0.5-1.8,0.7c-3.4,0.9-4.8,3.2-5.2,6.6c-0.6,6-1.2,11.9-0.9,17.9c0,0.4,0,0.8,0,1.4c-1.3-0.5-1.8-1.5-2.2-2.5
				c-1-2.3-1.9-4.7-2.6-7.2c-1.2-4.2-2.4-8.5-3.4-12.7c-0.4-1.8-1.4-2.5-3.1-2.7c-5.3-0.8-10.6-1.7-15.9-2.6c-1-0.2-2-0.4-3.3-0.7
				c1.7-5,0.8-9.8-0.3-15.2c1.1,0.6,1.7,1,2.4,1.3c5.8,3.3,12,5.2,18.8,4.9c8.1-0.3,15.4-3.2,21.6-8.2c4.9-3.9,9.3-8.3,13.9-12.5
				C273.2,174.7,274.2,173.7,275.2,172.8z"/>
			<path class="st6" d="M300.1,410.5c0.2-0.2,0.6-0.5,0.6-0.5c0.8,0.7,1.5,1.4,2.6,1.9c-0.7-1-1.4-2-2.2-3.1
				c1.2-0.7,2.4-1.4,3.8-2.2c0.7,0.4,0.8,1.4,0.9,2.2c1,7.8,2.1,15.5,2.9,23.3c0.8,7.2,1.6,14.5,2.2,21.7c0.4,5.2,0.6,10.4,0.9,15.6
				c0,0.3-0.1,0.6-0.1,1.2c-6.5,1.4-13.1,1.3-19.9,1.2c0-0.7-0.1-1.3-0.1-1.9c0.6-5.4,0.1-10.7-0.4-16c-1.3-12.7-2.7-25.4-4.1-38.1
				c-0.2-1.7-0.3-3.3-0.5-5.1c2.3-0.1,4.4-0.2,6.8-0.4c0.2,2.5,0.3,4.9,0.5,7.4c0.5,8.6,1,17.2,1.5,25.8c0.1,1-0.1,2.1,1.3,3
				c0.4-0.5,1-0.9,1.2-1.4c2.8-5.8,5.3-11.7,6.5-18c0.4-1.9,0.2-4-0.3-5.9C302.9,417.3,301.4,413.9,300.1,410.5L300.1,410.5z"/>
			<path class="st6" d="M281,389.2c-2.4,3.2-4.8,6.1-3.7,10.2c-0.6,0.1-1,0.2-1.4,0.2c-20.2-0.6-40.1-3.4-59.2-10.5
				c-10.8-4-20.2-10.2-28.5-18.2c-0.5-0.5-1-1-1.5-1.5c-0.8-0.8-0.9-1.6-0.4-2.6c0.5-1.1,0.8-2.2,1.3-3.5c1.4,0.7,2.7,1.4,4.1,2.1
				c6.2,3.3,12.3,6.7,18.6,9.9c6.2,3.1,12.9,5.2,18.6,9.2c12.1,5.6,24.7,8.2,38,6.7c4.2-0.5,8.4-1.3,12.5-1.9
				C279.7,389.2,280.1,389.2,281,389.2z"/>
			<path class="st5" d="M145.9,393.9c1.5,0.6,2.9,1.1,4.3,1.6c0,3.9,0.1,7.6,0,11.4c-0.2,5.7-0.4,11.3-0.7,17
				c-0.6,10.7-1.1,21.4-2.1,32c-0.6,6.2-1.9,12.3-2.9,18.4c-0.1,0.4-0.2,0.7-0.4,1.3c-3.1-0.4-5.9-1.8-8.7-2.9
				C134,460.4,141.3,405.7,145.9,393.9z"/>
			<path class="st2" d="M185.8,361.9c-0.6,1.5-1.2,2.9-1.7,4.3c-0.4,1.1-0.8,2.3-0.1,3.5c0.6,1.1-0.3,1.8-0.7,2.5
				c-1.8-2.8-3.6-5.5-5.2-8.3c-0.8-1.4-1.4-2.9-1.9-4.4c-2.8-8.5-4.5-17.3-5.7-26.2c-0.9-6.8-1.5-13.7-2.3-20.5
				c-0.1-0.8,0-1.4,0.6-1.9c3.9-3.6,7.7-7.2,11.6-10.8c-0.1-0.1-0.3-0.3-0.4-0.4c0.1,0.1,0.3,0.2,0.4,0.2c0.7,5.9,2.3,11.6,3.8,17.3
				c1.8,6.4,2.4,12.9,1.7,19.5c-0.4,3.8-1.6,7.1-3.7,10.2c-1,1.5-2,3.1-2.8,4.7c-1,2.1-0.7,4,1.2,5.6
				C182.4,358.7,184.1,360.3,185.8,361.9z"/>
			<path class="st3" d="M225.7,931.1c6.5,3.9,13.4,4.5,20.7,5c0,1.4,0,2.7,0,4.1c0,2.8,0.3,3,3.2,3.3c0.2,0,0.5,0.1,0.9,0.2
				c-0.8,6.3-1.5,12.6-2.3,19.1c-1.8-0.3-3.5-0.9-5.1-0.9c-5.2-0.3-10.4-0.3-15.6-0.5c-1.6-0.1-3.2-0.2-4.8-0.4
				c-1.4-0.2-2.4-1-2.7-2.4c-0.3-1.5-0.7-3.2-0.5-4.7C220.7,946.1,223.3,938.8,225.7,931.1z"/>
			<path class="st5" d="M374.1,455.1c0.5,0.1,1.3-0.1,1.5,0.2c1.5,2.4,3,4.9,4.5,7.5c-17.4,12.5-35.4,23.1-56.2,29.3
				c-0.7-4.2-1.4-8-2.1-12c0.4-0.2,0.7-0.3,1-0.4c16.4-4.9,31.6-12.5,46.2-21.3c1.1-0.7,2.1-1.6,3.2-2.4c0.2,0,0.3,0.1,0.4,0.2
				C373.2,455.9,373.7,455.5,374.1,455.1L374.1,455.1z"/>
			<path class="st6" d="M289.5,387.7c-2.2,2.2-4.4,4.4-6.4,6.7c-1.6,1.9-1.3,2.9,0.9,4.2c3.2,1.9,3,2.4,5.7-0.7
				c0.5-0.5,1.1-1,1.6-1.4c3.9-3.1,7.7-6.2,10.2-10.9c2,0.5,4,0.8,5.9,1.4c2.6,0.9,3.2,2.6,1.8,4.9c-2.4,4-4.7,8-6,12.5
				c-0.3,1-1,1.6-2,1.8c-4,0.7-8,1.4-12,2c-2,0.3-3.9-0.4-5.1-2c-1.5-1.9-2.9-3.8-4.1-5.8c-1.3-2.2-1.1-4.5,0.3-6.6
				c1-1.6,2-3.1,3-4.6c0.3-0.4,0.6-0.8,1-0.9c1.8-0.5,3.5-1,5.3-1.4c0.1,0,0.3,0.3,0.5,0.4C289.9,387.4,289.7,387.6,289.5,387.7z"/>
			<path class="st6" d="M124.3,427.3c3.7,4.5,7.3,8.8,10.8,13.1c1.4,1.7,1.3,2.6-0.5,3.6c-2.4,1.4-4.9,2.6-7.5,3.7
				c-2,0.9-4.2,1.6-6.5,2.5c-3.7-5.5-7-11.2-10.4-17.2C115,431,119.7,429.2,124.3,427.3z"/>
			<path class="st6" d="M330.8,473.6c-0.7-0.7-1.3-1.4-2-2c-2.7-2-5.4-4-8.2-6.1c1.8-6.5,3.7-13,5.6-19.7c4.3,3.2,8.6,6.4,13.1,9.7
				c-1.7,6.5-3.2,13.2-5.8,19.7C332.5,474.6,331.6,474.1,330.8,473.6L330.8,473.6z"/>
			<path class="st6" d="M229.9,252.1c6-4.1,11.9-8.1,17.9-12.3c0.2,0.1,0.7,0.3,1,0.6c3,2.1,6,4.3,9,6.4c2,1.4,2,2.8,0.1,4.3
				c-3,2.4-6,4.7-9,7.2c-0.8,0.7-1.5,0.9-2.6,0.5c-5-2-10.1-4-15.2-5.9C230.8,252.6,230.4,252.4,229.9,252.1z"/>
			<path class="st6" d="M116.5,410.9c4.1-1.8,8.2-3.5,12.3-5.3c0.8-0.3,1.6-0.8,2.3-1.1c2.6,5,5.2,9.9,7.9,15
				c-0.2,0.2-0.6,0.7-0.9,1.2c-1,0.4-2,0.7-3,1.1c-1.6,0.6-3.3,1.2-4.9,1.8c-1.7,0.7-3.4,1.4-5.2,2.2c-1.2-1.7-2.4-3.3-3.5-4.9
				c-1.7-2.6-3.3-5.3-4.9-7.9C116.1,412.2,115.7,411.5,116.5,410.9C116.6,410.8,116.5,410.9,116.5,410.9z"/>
			<path class="st6" d="M344.2,438.6c0.5-0.8,0.9-1.6,1.5-2.4c3.7,2.7,7.2,5.3,10.8,7.9c-0.7,6.4-1.4,12.9-2.2,19.7
				c-4.8-3.1-9.3-6.1-14-9.1c0.2-1,0.5-2,0.7-3C342.2,447.3,343.2,442.9,344.2,438.6L344.2,438.6z"/>
			<path class="st6" d="M248.1,260.6c4.1,1.5,8.1,3,12.5,4.6c-3.8,5.3-7.7,9.8-11.7,14.8c-5-2.7-10-5.4-15.2-8.1
				C238.6,268,243.3,264.3,248.1,260.6z"/>
			<path class="st6" d="M225.3,227.9c1.4,0.9,2.8,1.9,4.3,2.6c4.7,2.1,9.5,4.2,14.3,6.2c1.2,0.5,2.3,1.1,3,2.6
				c-5.7,3.8-11.3,7.5-17.3,11.5c-1.7-7.7-3.3-15.2-5-22.9C224.8,228,225,228,225.3,227.9L225.3,227.9z"/>
			<path class="st3" d="M390.1,516.2c0.1-1.2,0.3-2.3,0.2-3.4c-0.3-2.5-1.4-4.6-3.8-5.8c-1.9-1-3.9-1.8-5.9-2.8
				c-2.4-1.2-4.6-2.4-6.6-4.6c0.5,0.1,0.7,0,0.9,0.1c8,3.3,16.4,4.9,24.8,6.4c2.8,0.5,5.5,1,8.2,1.6c0.9,0.2,1.7,0.5,2.5,0.9
				c1.9,1,2.2,2.9,0.4,4.2c-0.8,0.6-1.8,1-2.8,1.3c-5.6,1.4-11.3,1.9-17.1,2.2C390.7,516.4,390.3,516.3,390.1,516.2z"/>
			<path class="st6" d="M225.3,228c-0.4-0.4-0.7-0.8-1.3-1.4c3.3-5.3,7.6-9.9,11.8-15.2c0.7,2.4,1.3,4.4,1.9,6.3
				c0.7,2.5,1.2,5.1,1.9,7.7c0.8,3.4,2,6.6,4.3,9.3c0.3,0.3,0.4,0.8,0.8,1.6c-1.2-0.4-1.9-0.7-2.6-1c-4.7-2.2-9.4-4.4-14.1-6.6
				C227.1,228.4,226.1,228.2,225.3,228C225.3,227.9,225.3,228,225.3,228z"/>
			<path class="st6" d="M249.6,212.1c0.7-0.7,1.1-1.4,1.8-1.7c4.5-1.9,9.1-3.7,13.9-5.6c0,0.7,0.1,1.2,0.1,1.8
				c0.4,6,0.8,12.1,1.3,18.1c0,0.1,0,0.2,0,0.2c0.2,0.7,0.2,1.4-0.6,1.8c-0.8,0.4-1.3,0-1.9-0.5c-3.2-3.2-6.5-6.4-9.7-9.6
				C253,215.2,251.5,213.9,249.6,212.1z"/>
			<path class="st6" d="M249.8,213.8c4.7,4.7,9.4,9.3,14.1,14c-5,3-10,6-15,9C247.8,234.2,248.3,218.8,249.8,213.8z"/>
			<path class="st6" d="M300.1,410.4c0.8,2.9,1.5,5.9,2.5,8.7c1,2.8,1.3,5.6,0.3,8.5c-1.7,5-3.6,9.9-5.4,14.9
				c-0.1,0.2-0.3,0.3-0.7,0.8c-0.8-11.2-1.5-22.2-2.3-33.4c1.5-0.3,3.1-0.7,4.9-1C299.7,409.5,299.9,410,300.1,410.4
				C300.1,410.5,300.1,410.4,300.1,410.4z"/>
			<path class="st6" d="M374.2,455.1c-5.3-3.7-10.6-7.4-15.9-11.1c-0.1-0.1-0.2-0.2-0.5-0.5c0.8-5.6,1.6-11.3,2.5-17
				c0.2,0,0.3,0,0.5-0.1c4.7,9.2,9.5,18.5,14.4,28C374.8,454.7,374.5,454.9,374.2,455.1C374.1,455.1,374.2,455.1,374.2,455.1z"/>
			<path class="st6" d="M372.7,456.3c-0.1-0.1-0.2-0.2-0.4-0.2c-5.6,2.9-11.2,5.9-17.3,9c0-3.8,0.9-7,1.2-10.3
				c0.4-3.2,0.9-6.4,1.4-9.9c0.9,0.6,1.5,0.9,2.1,1.3c3.9,2.7,7.7,5.4,11.6,8.1C371.9,454.8,373,455.1,372.7,456.3z"/>
			<path class="st6" d="M126.6,387.4c0.3-0.2,0.6-0.5,0.8-0.5c2.9,0,5.9,0.1,8.8,0.2c0.7,0,1.4,0.3,1.9,0.7c2.1,1.6,4,3.3,6.1,5
				c1,0.8,1.2,1.4,0.2,2.1c-4,2.9-8.2,5.5-12.6,8c-1.6-4.3-3.1-8.4-4.6-12.5C127,389.3,126.8,388.4,126.6,387.4z"/>
			<path class="st6" d="M133.7,472.1c-9-4.6-17.4-9.8-25-17c4-1.1,7.6-2.2,11.4-3.3c0.4,0.5,0.7,0.9,1.1,1.3c4,5.5,7.9,11,11.9,16.5
				C133.6,470.4,134.3,471,133.7,472.1z"/>
			<path class="st6" d="M281.9,216.4c-5.1-3.9-9.7-8-14.1-12.5c4-2.1,7.7-4.2,11.4-6.2c3.4,4.6,4.3,10.5,6.7,16
				C284.6,214.6,283.3,215.4,281.9,216.4z"/>
			<path class="st6" d="M354.8,465.2c-6.7,3.6-13.2,6.6-20.1,9.4c1.8-6.3,3.6-12.3,5.4-18.5C345,459.1,349.7,462,354.8,465.2z"/>
			<path class="st6" d="M121.7,451.6c4.7-2.1,9.2-4.2,13.8-6.3c-0.5,7.6-1.1,15.3-1.6,23C131.9,466.7,123.8,455.5,121.7,451.6z"/>
			<path class="st6" d="M126.6,387.4c0.2,1,0.4,1.9,0.7,2.9c0.9,3.4,1.8,6.7,2.8,10.1c0.3,0.9,0.6,1.8,0.9,2.9
				c-0.7,0.4-1.4,0.9-2.1,1.2c-3.4,1.7-6.8,3.4-10.2,5.2c-0.7,0.4-1.3,0.8-2,1.2c0,0,0.1-0.1,0.1-0.1c-0.3,0-0.6-0.1-1.1-0.1
				c0.1-0.3,0.1-0.6,0.2-0.9c2.4-7.2,5.3-14.2,9.1-20.8C125.2,388.3,125.4,387.2,126.6,387.4z"/>
			<path class="st3" d="M341.4,512.7c3.4,1.6,6.7,3.2,10.1,4.9c0.7,0.3,1.3,0.9,1.8,1.5c5,5.6,9.9,11.3,14.9,16.9c0,0,0,0.2,0.1,0.6
				c-1.3-0.3-2.5-0.4-3.6-0.8c-3.2-1-5.9-2.8-8.4-4.9c-3.4-2.7-6.3-5.9-8.9-9.4c-2.1-2.8-4.2-5.6-6.3-8.4
				C341.1,513,341.2,512.9,341.4,512.7z"/>
			<path class="st6" d="M268,225.7c-1.1-7.3-1.7-14.2-1.7-21.8c5,4.6,9.6,8.9,14.4,13.2C276.5,219.9,272.4,222.7,268,225.7z"/>
			<path class="st6" d="M109.6,433.8c3.2,5.5,6.4,11,9.7,16.7c-1.9,0.7-3.8,1.3-5.7,2c-1.9,0.6-3.8,1.3-5.5,1.9
				c-1.4-0.7-1.8-1.6-1.6-3c0.9-5.7,1.8-11.4,2.7-17C109.2,434.2,109.4,434.1,109.6,433.8z"/>
			<path class="st6" d="M135,421.8c1-0.4,2-0.7,3-1.1c0.3-0.1,0.5-0.2,1.1-0.4c-1,6.8-2,13.4-2.9,19.9c-1.5-1-7.2-8.4-10.5-13.5
				c0.6-0.3,1.2-0.7,1.7-1C130,424.4,132.5,423.1,135,421.8z"/>
			<path class="st6" d="M115,411.9c2.9,4.8,5.7,9.4,8.6,14.3c-4.3,2.2-8.9,3.9-13.8,5.8C111,425,112.9,418.5,115,411.9z"/>
			<path class="st6" d="M246.5,260c-4.4,3.7-8.5,7.1-12.9,10.8c-1.2-5.8-2.3-11.2-3.5-17.2C235.6,255.8,240.9,257.9,246.5,260z"/>
			<path class="st6" d="M344.3,438.5c-1.1,3.7-2.3,7.4-3.4,11.1c-0.4,1.4-0.8,2.8-1.2,4.5c-4.5-3-8.6-6.1-12.9-9.2
				c5.9-2.5,11.6-4.8,17.4-7.3C344.1,437.9,344.2,438.2,344.3,438.5C344.2,438.6,344.3,438.5,344.3,438.5z"/>
			<path class="st6" d="M248.2,280.7c-3.1,3.8-6,7.4-9.2,11.3c-2.3-6.5-4.1-12.7-5.2-19.5C238.7,275.3,243.3,277.9,248.2,280.7z"/>
			<path class="st6" d="M139.4,418.6c-3-5-5.3-9.6-7.2-14.6c4-2.5,7.8-5,12-7.7C142.6,403.7,141.1,410.9,139.4,418.6z"/>
			<path class="st6" d="M234.9,210.8c-0.2,0.5-0.2,0.7-0.3,0.8c-3.7,4.5-7.4,9-11.3,13.7c-0.3-0.4-0.7-0.8-1-1.3
				c-0.1-0.2,0-0.5,0-0.7c-0.2-4.8-0.3-9.5-0.5-14.6C226.1,209.2,230.4,210.1,234.9,210.8z"/>
			<path class="st6" d="M239.5,292.9c3.3-4,6.5-7.8,9.7-11.7c4.2,2.2,8.2,4.3,12.4,6.5C260,288.7,241.7,293.1,239.5,292.9z"/>
			<path class="st6" d="M261.8,286.9c-4.2-2.3-8-4.4-11.9-6.5c3.4-4.3,6.7-8.5,10.3-13.1C261,273.9,261.2,280.2,261.8,286.9z"/>
			<path class="st6" d="M289.5,387.7c0.2-0.2,0.3-0.3,0.5-0.5c0.8-0.5,1.6-1.1,2.4-1.5c3.9-2.1,3.9-2.1,8.3-0.1
				c-3.4,5.7-9.2,8.9-13.7,13.8c-1.3-0.8-2.6-1.6-4.1-2.5c0.7-1.1,1.3-1.9,1.9-2.8C286.5,392,288,389.9,289.5,387.7z"/>
			<path class="st6" d="M346.7,436.1c4.2-3.1,8.2-6.1,12.6-9.3c-0.8,5.5-1.7,10.7-2.5,16.2C353.2,440.6,350,438.4,346.7,436.1z"/>
			<path class="st6" d="M259.9,231.4c-0.3,5-0.7,9.7-1,14.5c-2.1-0.7-9.4-5.5-10.9-7.3C252,236.1,256,233.8,259.9,231.4z"/>
			<path class="st3" d="M178.6,382c-2.7,0.2-5,0.4-7.2,0.5c1.9-4.4,3.9-9.1,5.9-13.8c2.3,0.6,3.8,3,4.2,6.1
				C182,378,180,379.9,178.6,382z"/>
			<path class="st6" d="M330.7,473.5c0.5,0.6,0.9,1.2,1.6,2.1c-3.5,1.2-6.9,2.4-10.6,3.7c-0.6-4.5-2-8.4-1.5-13.1
				c2.8,2.1,5.3,4,7.8,5.8C328.9,472.6,329.9,473.1,330.7,473.5C330.8,473.6,330.7,473.5,330.7,473.5z"/>
			<path class="st6" d="M319.3,464.1c-0.4-5.8-0.8-11.6-1.1-17.5c2.6-0.5,4.9-1,7.6-1.6c-1.8,6.7-3.8,12.9-5.7,19.2
				C319.7,464.1,319.5,464.1,319.3,464.1z"/>
			<path class="st6" d="M259.1,251c0.2,4.6,0.5,8.6,0.7,13c-3.7-1.5-7.1-2.8-10.8-4.3C252.4,256.7,255.6,254,259.1,251z"/>
			<path class="st6" d="M215.7,207c1.1,0.3,2.3,0.7,3.8,1.1c-2.1,5-4.1,9.8-6.3,14.8c-1.3-0.2-2.5-0.4-3.9-0.6
				c0.1-0.8,0.1-1.5,0.4-2.1C211.6,215.9,213.6,211.6,215.7,207z"/>
			<path class="st6" d="M220.9,208.6c0.2,5.2,0.4,10.4,0.6,15.9c-2.7-0.5-4.9-0.9-7.3-1.4c2.1-5,4.1-9.8,6.1-14.6
				C220.4,208.5,220.6,208.5,220.9,208.6z"/>
			<path class="st6" d="M132.3,377.5c1.4,3,2.7,5.6,3.9,8.3c-1.8,0.6-7,0.6-9.6-0.2C128.5,382.9,130.4,380.3,132.3,377.5z"/>
			<path class="st6" d="M310,376.2c-0.9,3.2-1.6,5.8-2.5,8.8c-3.1-0.6-5.9-1.2-8.7-1.8c0-0.2-0.1-0.4-0.1-0.6
				c1.9-0.9,3.8-1.8,5.6-2.8C306.1,378.8,307.8,377.7,310,376.2z"/>
			<path class="st6" d="M286.7,213.2c-1.3-3.3-2.4-6.4-3.6-9.4c0.1-0.1,0.3-0.2,0.4-0.3c2.8,2,5.6,4.1,8.6,6.3
				C290.3,211,288.6,212,286.7,213.2z"/>
			<path class="st6" d="M276.6,193.1c1.2,0.9,1.8,1.5,0.4,2.8C276.8,194.9,276.7,194.1,276.6,193.1z"/>
			<path d="M216.4,307.5c-1.1,0.2-1.9-0.4-2.2-1.4c-0.4-1.4-0.8-2.9-1.1-4.4c-2.1-9.8-4.3-19.7-6.3-29.5c-1.5-7.1-1.9-14.4-2.3-21.7
				c-0.1-1.6-0.4-3.1-0.8-4.7c-0.2-1,0.1-1.5,1-1.8c0.4-0.1,0.8-0.2,1.2-0.2c2.1-0.3,4.3-0.6,6.4-0.8c1.4-0.2,1.7,0.1,1.9,1.5
				c1.4,13.5,4.9,26.5,8,39.6c1.6,6.6,3.1,13.2,4.6,19.8c0.5,2.1,0.2,2.4-1.8,2.7C222.1,306.9,219.2,307.2,216.4,307.5z M216,276
				c-0.9-0.3-1.9-0.7-2.9-1c-1,1.7-2,3.3-3,5.1c2.2,1.1,4.3,2.1,6.4,3.1c0.6-0.8,1-1.5,1.5-2.1c1.5-2.1,1.5-2.2-0.5-3.8
				c0.9,0.2,1.2-0.1,1-1c-0.4-1.6-0.7-3.3-1.1-4.9c-0.2-0.8-0.4-1.5-0.8-2.8c-1.2,2.1-2.1,3.7-2.8,5
				C214.7,274.6,215.3,275.3,216,276z M223.8,297.9c-3.4,0.8-6.4,1.5-9.6,2.2c0.5,1.9,0.9,3.7,1.4,5.7c3.3-0.4,6.3-0.8,9.4-1.2
				C224.7,302.3,224.3,300.2,223.8,297.9z M209.3,251.3c-1,1.7-1.8,3.1-2.6,4.6c-0.5,1-0.7,2.2,0.4,3.1c1.4,1.2,2.9,2.4,4.5,3.7
				c0.9-1.2,1.6-2.3,2.3-3.3c1-1.5,0.9-3-0.4-4.3C212.2,253.8,210.9,252.6,209.3,251.3z M216.9,284.5c-1.7,2.5-3.1,4.7-4.7,7
				c1.2,1.4,2.9,1.6,4.5,2.3c1.6-2.2,3.1-4.4,4.8-6.9C219.8,286.1,218.4,285.4,216.9,284.5z M208,270c1.7,1.2,3.2,2.2,4.9,3.3
				c1.3-2.1,2.4-3.9,3.5-5.7c-1.6-1.2-3-2.2-4.5-3.3C210.6,266.2,209.4,268,208,270z M210.6,281c-0.2,0.1-0.3,0.2-0.5,0.3
				c0.6,2.8,1.2,5.6,1.8,8.3c0.2,0,0.3,0,0.5,0c1.1-1.8,2.3-3.7,3.5-5.7C214,282.9,212.3,281.9,210.6,281z M221.7,289
				c-0.2-0.1-0.4-0.1-0.5-0.2c-1.2,1.8-2.3,3.5-3.5,5.3c3.3,2.2,4.1,2.4,5.8,1.9C222.8,293.7,222.3,291.4,221.7,289z M209.1,249.8
				c1-2,1.9-3.6,3-5.7c-2.6,0.7-4.9,0.3-7.3,1.3C206.3,246.9,207.6,248.2,209.1,249.8z M206.8,260c0.2,3.1,0.4,5.6,1.2,8.4
				c1.1-1.8,2-3.3,3-4.8C209.6,262.4,208.4,261.4,206.8,260z M212.6,245.4c-0.1-0.1-0.3-0.1-0.4-0.2c-0.8,1.7-1.6,3.3-2.5,5.1
				c1.3,1.2,2.5,2.4,3.6,3.5c0.1-0.1,0.3-0.2,0.4-0.2C213.4,250.8,213,248.1,212.6,245.4z M209.5,278.3c0.2,0,0.4,0,0.5,0
				c0.7-1.4,1.5-2.7,2.3-4.2c-1.3-1-2.5-1.9-3.6-2.7c-0.1,0.1-0.3,0.2-0.4,0.3C208.7,273.9,209.1,276.1,209.5,278.3z M215.1,260
				c-0.2-0.1-0.3-0.1-0.5-0.2c-0.7,1.1-1.4,2.2-2.1,3.4c1.2,1.1,2.3,2.1,3.3,3.1c0.1-0.1,0.3-0.2,0.4-0.3
				C215.8,264.1,215.5,262.1,215.1,260z M206.1,254.3c0.2,0,0.4,0.1,0.6,0.1c0.6-1.2,1.3-2.5,1.7-3.3c-1-1.2-1.8-2.1-2.9-3.5
				C205.7,250.2,205.9,252.3,206.1,254.3z M214.8,298.2c2-0.1,3.8-0.4,5.9-1.4c-1.5-0.7-2.5-1.2-3.7-1.8
				C216.2,296.2,215.5,297.2,214.8,298.2z M213.7,297.5c0.2,0.1,0.3,0.1,0.5,0.2c0.6-1,1.2-1.9,1.9-3c-1.1-0.6-2.1-1.1-3.4-1.8
				C213.1,294.7,213.4,296.1,213.7,297.5z M220.7,285.7c-0.5-1.9-0.9-3.3-1.3-5.2c-0.8,1.3-1.4,2.2-2,3.3
				C218.4,284.3,219.3,284.9,220.7,285.7z"/>
			<path d="M279.8,300.6c-0.3-3-0.8-5.4-0.7-7.9c0.1-8.6,0.3-17.2,0.7-25.9c0.4-7.7,1.1-15.3,1.6-22.9c0.3-5.1,0.3-5.1,5.3-5
				c2,0,4.1-0.3,6.2,0.5c0,3.7,0.1,7.4,0,11c-0.1,4.4-0.4,8.8-0.7,13.2c-0.3,5.1-0.8,10.2-1.1,15.3c-0.3,5.5-0.5,11-0.8,16.5
				c0,0.8,0,1.6-0.1,2.4c0,0.8-0.5,1.4-1.3,1.5C285.9,299.8,283,300.2,279.8,300.6z M284.3,240.9c-0.3-0.1-0.6-0.1-1-0.2
				c-0.1,1.6-0.2,3-0.3,4.6c2.3-1.3,2.3-1.3,3.1-2.8c0.6-0.2,1.3-0.4,1.9-0.7c0.8-0.4,1.6-0.8,2.5-1.2c-0.9,0.9-1.9,1.9-3,2.9
				c1.3,1.2,2.5,2.3,4.1,3.8c0.1-2.6,0.2-4.7,0.3-6.9c-0.7,0.1-1.1,0.2-1.5,0.2c-1.7-0.1-3.3-0.3-5-0.3
				C285,240.3,284.6,240.7,284.3,240.9z M288.8,282.5c-1.1-1.4-2.2-2.7-3.3-4.1c-1.6,0.8-3.1,1.5-4.9,2.4c1,2,2.7,3,4.2,4.4
				C286.2,284.2,287.5,283.3,288.8,282.5c0.2-2.5,0.4-5,0.7-7.5c-1.3-2.1-3.1-3.9-4.8-5.8c-1.2,0.9-2.2,1.7-3.3,2.6
				c1.5,1.8,2.9,3.5,4.3,5.2c1.4-0.7,2.6-1.4,3.8-2c-1,1-2,1.9-3,2.9C287.3,279.4,288,280.9,288.8,282.5z M290.3,257
				c-0.9,0.8-1.7,1.6-2.7,2.4c0.9,1,1.5,2.1,2.9,2.4c0.1-1.3,0.3-2.5,0.3-3.7C290.8,257.8,290.4,257.4,290.3,257c1-1,0.5-2,0.1-3.1
				c0.1,0,0.4,0,0.4,0c0.4-1.5,0.6-3.1,0.4-5c-1.2,0.8-2,1.5-3,2.2c0.8,1.1,1.5,2,2.3,2.9c-1.1-0.8-2.1-1.5-3.2-2.3
				c-1.5,0.9-2.9,1.9-4.5,2.9c1.5,1.4,2.8,2.7,4.2,4C288,258.1,289.1,257.5,290.3,257z M286.4,267.3c-0.2,0.7-0.7,1.4-0.5,1.6
				c1.2,1.6,2.2,3.3,4,4.9c0.2-3.8,0.4-7.2,0.6-10.5c-1.4-1.2-2.6-2.2-3.9-3.3c-1.7,1.5-3.7,2.2-5,4c1.2,1.3,2.3,2.6,3.3,3.8
				C285.4,267.6,285.9,267.5,286.4,267.3z M280.6,290.9c0.3,2.7,0.1,5.3,0.9,7.9c2.5-0.3,4.7-0.6,7-0.9c0-2.6,0-5.1,0-7.6
				C285.8,290.5,283.4,290.7,280.6,290.9z M286.8,243.8c-1.1,0.8-2.1,1.5-3.1,2.3c1.4,1.5,2.5,2.8,3.8,4.1c1.3-0.7,2.4-1.4,3.3-1.9
				C289.5,246.9,288.3,245.5,286.8,243.8z M286.8,250.8c-1.3-1.5-2.5-2.8-4-4.5c-0.2,2.8-0.4,5-0.6,7.7
				C284,252.7,285.3,251.8,286.8,250.8z M281.5,272.8c-0.2,0.1-0.3,0.2-0.5,0.3c0,2.1,0,4.1,0,6.5c1.4-0.8,2.6-1.4,3.9-2.2
				C283.7,275.8,282.6,274.3,281.5,272.8z M286,259.3c-1.3-1.4-2.4-2.6-3.5-3.8c-0.2,0.1-0.3,0.1-0.5,0.2c-0.1,2.1-0.2,4.2-0.3,6.8
				C283.3,261.2,284.5,260.3,286,259.3z M284.5,286.4c-1.3,0.9-2.6,1.7-4.2,2.7c2.3,0.5,4.5,0.2,6.6-0.7
				C286.1,287.8,285.3,287.2,284.5,286.4z M280.8,288.1c1.2-0.9,2.1-1.6,2.6-2c-0.8-1-1.6-2-2.6-3.4
				C280.8,284.8,280.8,286.2,280.8,288.1z M288.6,288.5c0-2,0-3.5,0-5.3c-1.2,1-2.1,1.7-3.2,2.6
				C286.5,286.7,287.3,287.4,288.6,288.5z M284.2,268.5c-0.8-1-1.6-2-2.3-2.9c-0.5,1.8-0.9,3.3-0.3,5
				C282.4,269.8,283.2,269.3,284.2,268.5z"/>
			<path d="M304,370.6c-2.9,1.7-5.9,2.2-8.9,2.1c-4.3-0.2-8.6-0.4-12.9-1c-19-2.9-37.6-7.6-56.1-12.5c-9.7-2.5-19.3-5.2-28.9-7.9
				c-1.5-0.4-3-1-4.5-1.5c0-0.2,0.1-0.3,0.1-0.5c0.6,0.1,1.3,0.2,1.9,0.3c19.7,4.8,39.4,9.6,59.1,14.3c10.8,2.6,21.7,4.8,32.7,6.3
				C292.1,371.1,298.4,371.2,304,370.6z"/>
			<path d="M309.5,368.5c-0.9-0.1-1.8-0.1-2.7-0.2c-9.9-1.9-19.6-4.6-29.1-8c-15.5-5.6-31-11.4-46.5-17.2c-0.5-0.2-1-0.4-1.4-0.8
				c26.4,8.3,52.1,18.7,79.1,24.9c0.3,0.1,0.6,0.3,0.9,0.4C309.8,367.9,309.7,368.2,309.5,368.5z"/>
			<path d="M336.2,331.4c-2.5,7.2-6.4,13.6-10.8,19.7c0.9-2,1.8-3.9,2.5-5.9c0.5-1.2,1.7-1.7,2.2-2.9c0.5-1.3,1.3-2.5,2-3.8
				c0.7-1.2,1.3-2.4,2-3.5C334.8,333.7,335.5,332.6,336.2,331.4z"/>
			<path d="M127.1,338.7c0.9-0.8,0.4-1.5,0-2.3c-2.4-4.5-4.7-9-7.1-13.6c-0.3-0.6-0.5-1.3-0.6-2c3.6,5.6,7,11.4,9.8,17.8
				C128.1,338.7,127.6,338.7,127.1,338.7C127,338.7,127.1,338.7,127.1,338.7z"/>
			<path d="M116.8,353.8c-1.1-0.7-2.2-1.4-3.3-2.1c0.1-0.2,0.2-0.3,0.3-0.5c1.1,0.7,2.2,1.4,3.3,2.1
				C117,353.4,116.9,353.6,116.8,353.8z"/>
			<path d="M306.9,705.9c-0.8,1.2-1.5,2.5-2.5,3.7c-7,8.1-15.8,10.8-26.1,8.1c-2.4-0.6-4.7-1.6-7.1-2.3c-1.8-0.5-3.5-1.1-5.3-1.5
				c-0.7-0.2-1.5,0-2.7,0c0.5,1.1,0.8,1.9,1.3,2.6c1.2,1.4,2.4,2.8,3.8,4c8.3,6.9,17.8,10.6,28.7,10c1.7-0.1,3.3-0.6,4.9-0.9
				c0.7-0.1,1.5-0.7,2.5,0.3c-1.6,4.3-5.2,7-8.3,10.2c-0.2-0.1-0.3-0.2-0.5-0.4c2.3-2.8,4.6-5.5,7-8.5c-0.5-0.2-0.8-0.3-0.9-0.2
				c-11.6,2.8-22-0.4-31.5-7.1c-2.1-1.5-4-3.4-5.8-5.3c-0.8-0.8-1.4-1.9-1.9-3c-0.7-1.6,0-2.7,1.8-2.7c1.2,0,2.4,0.3,3.5,0.6
				c2.9,0.8,5.8,1.8,8.7,2.6c11.5,3.2,20.9-0.2,28.6-9c0.4-0.5,0.8-1,1.2-1.5C306.6,705.7,306.8,705.8,306.9,705.9z"/>
			<path d="M202,685.5c1.1,0.9,1.9,1.7,2.8,2.3c3.6,2.5,7.2,5,10.8,7.5c5.9,4,11.7,8.1,17.4,12.4c-0.4-0.1-0.8-0.2-1.1-0.4
				c-9.2-5.4-18.3-11.2-27-17.5c-1.1-0.8-2.2-1.6-3.2-2.6c-1.7-1.6-1.5-2.8,0.6-3.9c4.2-2.2,8.3-4.4,12.5-6.6
				c4.3-2.3,8.6-4.5,13-6.8c0.6-0.3,1.1-0.7,1.6-1.5c-2.2,0.2-4.4,0.3-6.6,0.5c-5.7,0.5-11.3,1.1-16.9,1.6c-2.3,0.2-4.6,0.2-6.9,0.2
				c-0.8,0-1.7-0.2-2.5-0.3c0-0.2,0-0.4,0-0.6c0.9-0.1,1.7-0.1,2.6-0.2c1-0.1,1.9-0.2,2.9-0.3c7.3-0.8,14.6-1.5,21.9-2.3
				c1.8-0.2,3.7-0.3,5.5-0.4c0.7,0,1.5,0,2.1,0.2c1.1,0.3,1.3,1.2,0.6,2c-0.7,0.7-1.6,1.3-2.5,1.8c-3.9,2.1-7.9,4.2-11.9,6.2
				c-4.7,2.5-9.5,5-14.2,7.5C202.9,684.8,202.6,685,202,685.5z"/>
			<path d="M192.5,458.6c-1,0-1.9,0-2.9,0c0,0,0-0.1,0-0.1c1,0,1.9,0,2.9,0C192.5,458.5,192.5,458.5,192.5,458.6z"/>
			<path d="M185.8,459.1c-0.3,0-0.6,0-0.9,0c0,0,0,0,0-0.1C185.2,459,185.5,459,185.8,459.1C185.8,459,185.8,459,185.8,459.1z"/>
			<path d="M237,175c-1.4-0.4-2.8-0.6-4.1-1.2c-2.7-1.3-5.2-2.7-7.8-4.2c-3.5-2-7-4.1-10.5-6.2c-0.6-0.4-1.3-0.8-1-1.6
				c0.3-0.9,1-0.8,1.8-0.6c6.8,1.3,13.5,0.8,20.2-1c6.4-1.8,12.7-3.7,19.1-5.6c0.9-0.3,1.5-0.7,2-1.5c0.5-0.8,1.3-1.3,2.1-1.8
				c0.3-0.2,0.9,0,1.3,0.3c0.2,0.1,0.1,0.8,0,1.1c-3.8,7.5-8.1,14.5-15.2,19.4C242.5,173.5,240,174.8,237,175z M220.9,164.2
				c-0.1,0.2-0.1,0.3-0.2,0.5c4.1,2.3,8.1,4.7,12.3,7c3.3,1.8,6.7,1.5,9.7-0.8c2.5-1.8,4.9-3.8,7.1-6c2.4-2.4,4.2-5.3,6.1-8.6
				c-0.8,0.1-1.2,0.2-1.6,0.3c-4.4,1.3-8.9,2.7-13.3,3.9c-3.6,1-7.2,2.1-10.9,2.8C227.1,163.9,224,163.9,220.9,164.2z"/>
			<path d="M202,126.7c-0.8-0.3-1.3-0.4-1.8-0.6c0.4-1.6,1.6-2.1,2.7-2.6c5.5-2.3,10.9-2.2,16.1,0.8c0.5,0.3,1,0.6,2,1.1
				c-0.9-2.8-3.3-3.8-4.6-5.8c2.2,0.2,4,1.1,5.4,2.7c3.4,3.6,6.2,10.8,2.5,17.1c-0.7,1.2-1.5,2.5-2.1,3.8c-0.7,1.4-0.4,2.2,0.8,3.1
				c1.8,1.3,3.9,1.7,6.1,1.7c1.5,0,3,0.1,4.9,0.2c-1.8,1.5-3.4,2.1-5.2,2.1c-2.6,0.1-5.1-0.6-7.3-2.1c-2.2-1.5-2.8-3.6-1.7-6.1
				c0.5-1.2,1.3-2.2,1.8-3.4c0.7-1.6,1.4-3.2,1.8-4.9c0.5-2.3-0.3-3.9-2.7-5c-3.3-1.5-6.6-3.1-10.5-2.7c-2.2,0.3-4.2,0.8-6.1,2
				c-0.4,0.3-0.7,0.7-1.2,0.8c-0.4,0.1-1.1,0.2-1.3,0c-0.3-0.3-0.2-1-0.2-1.4C201.6,127.2,201.8,127,202,126.7z"/>
			<path d="M244,125.6c0.1-1.3,0.2-1.9,0.2-2.8c-1.4,0.7-1.2,2.4-2.2,3.5c-1.4-2.1-0.3-4.1-0.1-6c0.2-2.8,1.4-5.2,4.2-6.9
				c-0.3,1.4-0.6,2.6-1,4.3c3.2-2.6,6.5-3.6,10-4.3c3.2-0.6,6.4-0.6,9.1,2c-0.6,0.3-1.2,0.6-2,0.9c0.4,0.7,0.7,1.4,1.2,2.2
				c-0.4-0.2-0.7-0.2-1-0.4c-5.7-3-12.4-1.3-16,4C245.9,123.1,245.1,124.1,244,125.6z"/>
			<path d="M263.3,105.4c-0.9-0.3-1.8-0.7-2.6-1c-6.4-2.4-12.5-1.7-18.4,1.6c-0.9,0.5-1.8,1-2.7,1.5c-0.5,0.2-1,0.3-1.7,0.4
				c0-1.2,0.7-1.8,1.3-2.3c5.1-4.3,11-6.1,17.6-5C259.7,101.1,261.9,102.7,263.3,105.4z"/>
			<path d="M195,114.7c1.4-4.6,5.1-6.7,9.5-7.6c4.4-1,8.6,0,12.2,3c-0.7,1.1-1.4,0.9-2.1,0.7c-0.9-0.2-1.8-0.5-2.8-0.8
				c-4.5-1.3-8.7-0.4-12.4,2.4c-1.3,1-2.7,1.9-4.1,2.8C195.2,115,195.1,114.8,195,114.7z"/>
			<path d="M339.1,502.3c-4,0.8-7.6,0.6-11.4-0.9C331.3,500.8,337.3,501.2,339.1,502.3z"/>
			<path class="st5" d="M223.8,297.9c0.4,2.3,0.8,4.4,1.3,6.7c-3.1,0.4-6.1,0.8-9.4,1.2c-0.5-2-1-3.8-1.4-5.7
				C217.5,299.4,220.5,298.7,223.8,297.9z"/>
			<path class="st6" d="M209.3,251.3c1.6,1.4,2.9,2.5,4.2,3.7c1.3,1.2,1.4,2.7,0.4,4.3c-0.7,1.1-1.4,2.1-2.3,3.3
				c-1.6-1.3-3-2.4-4.5-3.7c-1-0.9-0.9-2-0.4-3.1C207.5,254.3,208.3,252.9,209.3,251.3z"/>
			<path class="st6" d="M216.9,284.5c1.6,0.8,2.9,1.6,4.6,2.5c-1.7,2.4-3.3,4.6-4.8,6.9c-1.6-0.7-3.2-0.9-4.5-2.3
				C213.7,289.2,215.2,287,216.9,284.5z"/>
			<path class="st6" d="M217.5,277.2c1.9,1.7,1.9,1.7,0.5,3.8c-0.4,0.7-0.9,1.3-1.5,2.1c-2.1-1-4.1-2-6.4-3.1c1-1.8,2-3.4,3-5.1
				c1,0.4,1.9,0.7,2.9,1C216.5,276.4,217,276.8,217.5,277.2z"/>
			<path class="st6" d="M208,270c1.4-2,2.6-3.8,3.8-5.7c1.5,1.1,2.9,2.1,4.5,3.3c-1.1,1.9-2.2,3.7-3.5,5.7
				C211.2,272.2,209.7,271.2,208,270z"/>
			<path class="st6" d="M210.6,281c1.7,1,3.4,1.9,5.3,3c-1.2,2-2.3,3.8-3.5,5.7c-0.2,0-0.3,0-0.5,0c-0.6-2.8-1.2-5.6-1.8-8.3
				C210.3,281.2,210.4,281.1,210.6,281z"/>
			<path class="st6" d="M221.7,289c0.6,2.4,1.2,4.7,1.8,7c-1.7,0.5-2.5,0.2-5.8-1.9c1.2-1.8,2.3-3.5,3.5-5.3
				C221.3,288.9,221.5,289,221.7,289z"/>
			<path class="st6" d="M217.5,277.2c-0.5-0.4-1-0.8-1.5-1.2c-0.6-0.7-1.2-1.4-2.1-2.4c0.7-1.3,1.6-2.9,2.8-5c0.3,1.2,0.6,2,0.8,2.8
				c0.4,1.6,0.7,3.3,1.1,4.9C218.6,277.1,218.3,277.5,217.5,277.2z"/>
			<path class="st6" d="M209.1,249.8c-1.5-1.6-2.8-2.9-4.3-4.5c2.4-1,4.7-0.6,7.3-1.3C210.9,246.2,210.1,247.8,209.1,249.8z"/>
			<path class="st6" d="M206.8,260c1.6,1.4,2.8,2.4,4.2,3.6c-1,1.5-1.9,3-3,4.8C207.1,265.5,207,263,206.8,260z"/>
			<path class="st6" d="M212.6,245.4c0.4,2.7,0.8,5.4,1.2,8.2c-0.1,0.1-0.3,0.2-0.4,0.2c-1.2-1.1-2.3-2.3-3.6-3.5
				c0.9-1.8,1.7-3.4,2.5-5.1C212.4,245.3,212.5,245.3,212.6,245.4z"/>
			<path class="st6" d="M209.5,278.3c-0.4-2.2-0.8-4.4-1.2-6.6c0.1-0.1,0.3-0.2,0.4-0.3c1.2,0.9,2.3,1.8,3.6,2.7
				c-0.8,1.5-1.5,2.8-2.3,4.2C209.9,278.4,209.7,278.3,209.5,278.3z"/>
			<path class="st6" d="M215.1,260c0.4,2,0.8,4,1.1,6c-0.1,0.1-0.3,0.2-0.4,0.3c-1.1-1-2.1-2-3.3-3.1c0.8-1.2,1.4-2.3,2.1-3.4
				C214.7,259.9,214.9,260,215.1,260z"/>
			<path class="st6" d="M206.1,254.3c-0.2-2.1-0.4-4.1-0.6-6.8c1.2,1.4,1.9,2.3,2.9,3.5c-0.4,0.8-1.1,2.1-1.7,3.3
				C206.5,254.4,206.3,254.4,206.1,254.3z"/>
			<path class="st6" d="M214.8,298.2c0.7-1,1.5-2,2.3-3.2c1.1,0.6,2.2,1.1,3.7,1.8C218.6,297.8,216.8,298.2,214.8,298.2z"/>
			<path class="st6" d="M213.7,297.5c-0.3-1.4-0.6-2.7-1-4.6c1.4,0.7,2.3,1.2,3.4,1.8c-0.7,1.1-1.3,2.1-1.9,3
				C214.1,297.6,213.9,297.5,213.7,297.5z"/>
			<path class="st6" d="M220.7,285.7c-1.4-0.8-2.3-1.3-3.3-2c0.6-1,1.2-1.9,2-3.3C219.9,282.3,220.2,283.7,220.7,285.7z"/>
			<path class="st6" d="M286.4,267.3c-0.5,0.2-1,0.3-1.5,0.5c-1.1-1.2-2.2-2.4-3.3-3.8c1.4-1.8,3.4-2.6,5-4c1.3,1.1,2.5,2.1,3.9,3.3
				c-0.2,3.3-0.4,6.7-0.6,10.5c-1.8-1.6-2.8-3.4-4-4.9C285.7,268.7,286.2,268,286.4,267.3z"/>
			<path class="st5" d="M280.6,290.9c2.8-0.2,5.3-0.4,7.9-0.6c0,2.5,0,5,0,7.6c-2.3,0.3-4.5,0.6-7,0.9
				C280.6,296.3,280.9,293.6,280.6,290.9z"/>
			<path class="st6" d="M290.3,253.9c0.4,1.1,0.9,2.2-0.1,3.2l0.1-0.1c-1.1,0.5-2.3,1.1-3.4,1.6c-1.4-1.3-2.7-2.6-4.2-4
				c1.6-1,3.1-2,4.5-2.9C288.3,252.5,289.4,253.2,290.3,253.9L290.3,253.9z"/>
			<path class="st6" d="M289.5,275c-1.2,0.6-2.4,1.2-3.8,2c-1.4-1.7-2.8-3.4-4.3-5.2c1.1-0.9,2.1-1.6,3.3-2.6
				C286.4,271.1,288.1,272.9,289.5,275L289.5,275z"/>
			<path class="st6" d="M288.8,282.5c-1.3,0.9-2.6,1.7-4,2.6c-1.5-1.3-3.2-2.3-4.2-4.4c1.8-0.9,3.3-1.6,4.9-2.4
				C286.6,279.8,287.7,281.1,288.8,282.5L288.8,282.5z"/>
			<path class="st6" d="M286.8,243.8c1.4,1.7,2.6,3.1,3.9,4.6c-0.9,0.5-2,1.2-3.3,1.9c-1.3-1.4-2.4-2.6-3.8-4.1
				C284.8,245.4,285.7,244.6,286.8,243.8z"/>
			<path class="st6" d="M290.4,240.6c0.4-0.1,0.8-0.1,1.5-0.2c-0.1,2.2-0.2,4.2-0.3,6.9c-1.7-1.5-2.9-2.6-4.1-3.8
				C288.5,242.5,289.5,241.5,290.4,240.6C290.4,240.6,290.4,240.6,290.4,240.6z"/>
			<path class="st6" d="M286.8,250.8c-1.5,1-2.8,1.9-4.6,3.2c0.2-2.7,0.4-4.9,0.6-7.7C284.3,247.9,285.5,249.3,286.8,250.8z"/>
			<path class="st6" d="M281.5,272.8c1.1,1.5,2.2,2.9,3.4,4.6c-1.3,0.7-2.5,1.4-3.9,2.2c0-2.4,0-4.4,0-6.5
				C281.2,273,281.4,272.9,281.5,272.8z"/>
			<path class="st6" d="M286,259.3c-1.5,1.1-2.7,2-4.3,3.2c0.1-2.5,0.2-4.6,0.3-6.8c0.2-0.1,0.3-0.1,0.5-0.2
				C283.6,256.7,284.7,257.9,286,259.3z"/>
			<path class="st6" d="M289.5,275c-0.2,2.5-0.4,5-0.7,7.5l0,0c-0.8-1.5-1.5-3-2.3-4.6C287.5,276.9,288.5,276,289.5,275
				C289.5,275,289.5,275,289.5,275z"/>
			<path class="st6" d="M284.5,286.4c0.8,0.7,1.6,1.4,2.4,2.1c-2.1,0.9-4.3,1.1-6.6,0.7C281.9,288.1,283.1,287.3,284.5,286.4z"/>
			<path class="st6" d="M290.2,257.1c0.2,0.4,0.6,0.7,0.6,1.1c0,1.2-0.2,2.4-0.3,3.7c-1.4-0.4-2-1.5-2.9-2.4
				C288.5,258.6,289.4,257.8,290.2,257.1C290.3,257,290.2,257.1,290.2,257.1z"/>
			<path class="st6" d="M280.8,288.1c0-1.9,0-3.3,0-5.3c1.1,1.4,1.8,2.3,2.6,3.4C282.8,286.5,282,287.2,280.8,288.1z"/>
			<path class="st6" d="M286.1,242.6c-0.8,1.5-0.8,1.5-3.1,2.8c0.1-1.6,0.2-3,0.3-4.6c0.4,0.1,0.7,0.1,1,0.2
				C284.9,241.4,285.5,242,286.1,242.6z"/>
			<path class="st6" d="M288.6,288.5c-1.3-1.1-2.2-1.8-3.2-2.7c1.1-0.9,2-1.6,3.2-2.6C288.6,285,288.6,286.5,288.6,288.5z"/>
			<path class="st6" d="M290.3,253.9L290.3,253.9c-0.6-0.9-1.3-1.8-2.2-2.9c1-0.7,1.8-1.3,3-2.2c0.2,1.9,0,3.5-0.4,5
				C290.7,253.9,290.5,253.9,290.3,253.9z"/>
			<path class="st6" d="M286.1,242.6c-0.6-0.6-1.2-1.1-1.8-1.7c0.4-0.2,0.8-0.6,1.2-0.6c1.7,0,3.3,0.2,5,0.3c0,0,0,0,0,0
				c-0.8,0.4-1.6,0.9-2.5,1.2C287.3,242.1,286.7,242.3,286.1,242.6z"/>
			<path class="st6" d="M284.2,268.5c-1,0.8-1.8,1.4-2.7,2.1c-0.5-1.7-0.1-3.3,0.3-5C282.6,266.5,283.4,267.4,284.2,268.5z"/>
			<path class="st7" d="M220.9,164.2c3.1-0.3,6.2-0.4,9.2-1c3.7-0.7,7.3-1.8,10.9-2.8c4.5-1.3,8.9-2.6,13.3-3.9
				c0.4-0.1,0.8-0.1,1.6-0.3c-1.9,3.3-3.6,6.2-6.1,8.6c-2.2,2.2-4.6,4.2-7.1,6c-3,2.2-6.4,2.6-9.7,0.8c-4.1-2.2-8.2-4.6-12.3-7
				C220.8,164.5,220.8,164.4,220.9,164.2z"/>
		</g>
		<g>
			<polygon class="st8" points="348.7,80.3 341.6,75.3 333.5,78.2 336.1,70 330.8,63.1 339.4,63.1 344.3,55.9 347,64.1 355.4,66.5 
				348.4,71.6 			"/>
			<path d="M348.7,81.4c-0.2,0-0.5-0.1-0.7-0.2l-6.6-4.7l-7.6,2.8c-0.4,0.1-0.9,0.1-1.2-0.2c-0.3-0.3-0.4-0.7-0.3-1.2l2.4-7.7
				l-5-6.4c-0.3-0.3-0.3-0.8-0.1-1.2c0.2-0.4,0.6-0.6,1-0.6l8.1-0.1l4.5-6.7c0.2-0.4,0.7-0.5,1.1-0.5c0.4,0.1,0.8,0.4,0.9,0.8
				l2.6,7.7l7.8,2.2c0.4,0.1,0.7,0.5,0.8,0.9s-0.1,0.9-0.4,1.1l-6.5,4.8l0.3,8.1c0,0.4-0.2,0.8-0.6,1
				C349.1,81.4,348.9,81.4,348.7,81.4z M341.6,74.2c0.2,0,0.5,0.1,0.7,0.2l5.2,3.7l-0.2-6.4c0-0.4,0.2-0.7,0.5-0.9l5.1-3.8l-6.1-1.8
				c-0.4-0.1-0.6-0.4-0.8-0.7l-2-6.1l-3.6,5.3c-0.2,0.3-0.6,0.5-0.9,0.5l-6.4,0.1l3.9,5c0.2,0.3,0.3,0.7,0.2,1l-1.9,6.1l6-2.2
				C341.4,74.2,341.5,74.2,341.6,74.2z"/>
		</g>
		<g>
			<polygon class="st8" points="338.3,102.9 330.7,101.7 325.4,107.3 324.2,99.8 317.2,96.5 324,93 325,85.4 330.5,90.8 338,89.3 
				334.6,96.2 			"/>
			<path d="M325.4,108.3c-0.1,0-0.2,0-0.3,0c-0.4-0.1-0.6-0.4-0.7-0.8l-1.2-7.1l-6.5-3c-0.3-0.2-0.6-0.5-0.6-0.9
				c0-0.4,0.2-0.7,0.5-0.9l6.4-3.3l0.9-7.1c0-0.4,0.3-0.7,0.7-0.8c0.4-0.1,0.8,0,1,0.2l5.1,5l7-1.3c0.4-0.1,0.8,0.1,1,0.4
				c0.2,0.3,0.3,0.7,0.1,1.1l-3.2,6.4l3.4,6.3c0.2,0.3,0.2,0.7-0.1,1.1c-0.2,0.3-0.6,0.5-1,0.4l-7.1-1.1l-4.9,5.2
				C325.9,108.2,325.7,108.3,325.4,108.3z M319.5,96.4l5.1,2.4c0.3,0.1,0.5,0.4,0.6,0.7l0.9,5.6l3.9-4.1c0.2-0.2,0.6-0.4,0.9-0.3
				l5.6,0.9l-2.7-5c-0.2-0.3-0.2-0.6,0-0.9l2.5-5l-5.5,1.1c-0.3,0.1-0.7,0-0.9-0.3l-4-4l-0.7,5.6c0,0.3-0.2,0.6-0.5,0.8L319.5,96.4z
				"/>
		</g>
		<g>
			<polygon class="st8" points="351,145.9 345.7,140.3 338.1,141.6 341.8,134.8 338.3,128 345.8,129.3 351.2,123.9 352.2,131.5 
				359.1,135 352.2,138.3 			"/>
			<path d="M351,146.9c-0.3,0-0.5-0.1-0.7-0.3l-4.9-5.2l-7.1,1.1c-0.4,0.1-0.8-0.1-1-0.4c-0.2-0.3-0.2-0.7-0.1-1.1l3.4-6.3l-3.3-6.4
				c-0.2-0.3-0.1-0.7,0.1-1.1c0.2-0.3,0.6-0.5,1-0.4l7,1.3l5-5.1c0.3-0.3,0.7-0.4,1-0.2c0.4,0.1,0.6,0.4,0.7,0.8l1,7.1l6.4,3.2
				c0.3,0.2,0.6,0.5,0.5,0.9c0,0.4-0.2,0.7-0.6,0.9l-6.4,3.1L352,146c-0.1,0.4-0.3,0.7-0.7,0.8C351.2,146.9,351.1,146.9,351,146.9z
				 M345.7,139.3c0.3,0,0.5,0.1,0.7,0.3l3.9,4.1l0.9-5.6c0.1-0.3,0.3-0.6,0.6-0.7l5.1-2.4l-5-2.5c-0.3-0.1-0.5-0.4-0.5-0.8l-0.8-5.6
				l-4,4c-0.2,0.2-0.6,0.3-0.9,0.3l-5.6-1l2.6,5c0.2,0.3,0.1,0.6,0,0.9l-2.7,5l5.6-0.9C345.6,139.3,345.6,139.3,345.7,139.3z"/>
		</g>
		<g>
			<polygon class="st8" points="108.9,124 103.6,118.5 96,119.7 99.6,113 96.1,106.1 103.7,107.5 109.1,102.1 110.1,109.7 
				117,113.1 110,116.5 			"/>
			<path d="M108.9,125c-0.3,0-0.5-0.1-0.7-0.3l-4.9-5.2l-7.1,1.1c-0.4,0.1-0.8-0.1-1-0.4c-0.2-0.3-0.2-0.7-0.1-1.1l3.4-6.3l-3.3-6.4
				c-0.2-0.3-0.1-0.7,0.1-1.1c0.2-0.3,0.6-0.5,1-0.4l7,1.3l5-5.1c0.3-0.3,0.7-0.4,1-0.2c0.4,0.1,0.6,0.4,0.7,0.8l1,7.1l6.4,3.2
				c0.3,0.2,0.6,0.5,0.5,0.9c0,0.4-0.2,0.7-0.6,0.9l-6.4,3.1l-1.1,7.1c-0.1,0.4-0.3,0.7-0.7,0.8C109.1,125,109,125,108.9,125z
				 M103.6,117.5c0.3,0,0.5,0.1,0.7,0.3l3.9,4.1l0.9-5.6c0.1-0.3,0.3-0.6,0.6-0.7l5.1-2.4l-5-2.5c-0.3-0.1-0.5-0.4-0.5-0.8l-0.8-5.6
				l-4,4c-0.2,0.2-0.6,0.3-0.9,0.3l-5.6-1l2.6,5c0.2,0.3,0.1,0.6,0,0.9l-2.7,5l5.6-0.9C103.5,117.5,103.5,117.5,103.6,117.5z"/>
		</g>
		<g>
			<polygon class="st8" points="378.7,109.2 373,107.5 368.3,111.2 368.2,105.3 363.2,102 368.8,100 370.4,94.3 374,99 380,98.7 
				376.6,103.6 			"/>
			<path d="M368.3,112c-0.1,0-0.2,0-0.3-0.1c-0.3-0.1-0.4-0.4-0.4-0.7l-0.1-5.6l-4.7-3.1c-0.2-0.2-0.4-0.5-0.3-0.7
				c0-0.3,0.2-0.5,0.5-0.6l5.3-1.8l1.5-5.4c0.1-0.3,0.3-0.5,0.6-0.6c0.3-0.1,0.6,0.1,0.8,0.3l3.4,4.4l5.6-0.3c0.3,0,0.6,0.1,0.7,0.4
				c0.1,0.3,0.1,0.6,0,0.8l-3.2,4.6l2,5.2c0.1,0.3,0,0.6-0.2,0.8c-0.2,0.2-0.5,0.3-0.8,0.2l-5.3-1.6l-4.3,3.5
				C368.6,112,368.5,112,368.3,112z M364.9,102.2l3.7,2.4c0.2,0.1,0.3,0.4,0.4,0.6l0.1,4.4l3.4-2.8c0.2-0.2,0.5-0.2,0.7-0.1l4.2,1.3
				l-1.6-4.1c-0.1-0.2-0.1-0.5,0.1-0.7l2.5-3.6l-4.4,0.2c-0.3,0-0.5-0.1-0.7-0.3l-2.7-3.5l-1.2,4.2c-0.1,0.2-0.3,0.4-0.5,0.5
				L364.9,102.2z"/>
		</g>
		<g>
			<polygon class="st8" points="161.7,165.9 154.1,164.7 148.9,170.3 147.7,162.7 140.7,159.5 147.5,155.9 148.5,148.3 154,153.7 
				161.5,152.3 158,159.1 			"/>
			<path d="M148.9,171.3c-0.1,0-0.2,0-0.3,0c-0.4-0.1-0.6-0.4-0.7-0.8l-1.2-7.1l-6.5-3c-0.3-0.2-0.6-0.5-0.6-0.9
				c0-0.4,0.2-0.7,0.5-0.9l6.4-3.3l0.9-7.1c0-0.4,0.3-0.7,0.7-0.8c0.4-0.1,0.8,0,1,0.2l5.1,5l7-1.3c0.4-0.1,0.8,0.1,1,0.4
				c0.2,0.3,0.3,0.7,0.1,1.1l-3.2,6.4l3.4,6.3c0.2,0.3,0.2,0.7-0.1,1.1s-0.6,0.5-1,0.4l-7.1-1.1l-4.9,5.2
				C149.4,171.2,149.2,171.3,148.9,171.3z M143,159.4l5.1,2.4c0.3,0.1,0.5,0.4,0.6,0.7l0.9,5.6l3.9-4.1c0.2-0.2,0.6-0.4,0.9-0.3
				l5.6,0.9l-2.7-5c-0.2-0.3-0.2-0.6,0-0.9l2.5-5l-5.5,1.1c-0.3,0.1-0.7,0-0.9-0.3l-4-4l-0.7,5.6c0,0.3-0.2,0.6-0.5,0.8L143,159.4z"
				/>
		</g>
		<g>
			<polygon class="st8" points="142.7,126.1 138.4,117.5 128.9,116.2 135.8,109.5 134.1,100 142.6,104.5 151.1,100 149.5,109.4 
				156.4,116.1 146.9,117.5 			"/>
			<path d="M142.7,127.4c-0.5,0-0.9-0.3-1.1-0.7l-4-8l-8.9-1.3c-0.5-0.1-0.9-0.4-1-0.8c-0.1-0.5,0-1,0.3-1.3l6.4-6.3l-1.5-8.8
				c-0.1-0.5,0.1-0.9,0.5-1.2c0.4-0.3,0.9-0.3,1.3-0.1l7.9,4.1l7.9-4.2c0.4-0.2,0.9-0.2,1.3,0.1c0.4,0.3,0.6,0.8,0.5,1.2l-1.5,8.8
				l6.4,6.2c0.3,0.3,0.5,0.8,0.3,1.3c-0.1,0.5-0.5,0.8-1,0.9l-8.8,1.3l-3.9,8C143.6,127.1,143.2,127.4,142.7,127.4z M131.6,115.3
				l7,1c0.4,0.1,0.8,0.3,0.9,0.7l3.1,6.3l3.1-6.3c0.2-0.4,0.5-0.6,0.9-0.7l7-1l-5.1-4.9c-0.3-0.3-0.4-0.7-0.4-1.1l1.2-7l-6.2,3.3
				c-0.4,0.2-0.8,0.2-1.2,0l-6.3-3.3l1.2,7c0.1,0.4-0.1,0.8-0.4,1.1L131.6,115.3z"/>
		</g>
		<g>
			<path class="st9" d="M184,143.2c-1.5-5.5,2.8-16.4,10.1-14.7c2.9,0.7,2.9,3.8,4.5,5.8c2.3,2.8,6.2,4.9,6.6,8.9
				c0.2,2.4-0.9,4.8-2.7,6.5c-1.8,1.6-4.2,2.4-6.7,2.5C190.6,152.2,185.5,148.4,184,143.2z"/>
			<path class="st9" d="M261.2,133.9c-0.8,2.5,0.8,5.4,3.2,6.6s5.3,1,7.7,0c2.5-1,4.6-2.7,6.6-4.5c1.1-1,2.2-2,3-3.2
				c0.9-1.6,1.1-3.4,1.3-5.2c0.1-1.1,0.3-2.2,0-3.3c-0.5-2.2-2.6-3.8-4.8-4.2c-4-0.7-7.4,1.8-9.9,4.6c-1.3,1.4-2.3,3.1-3.5,4.6
				C263.5,130.7,261.8,131.9,261.2,133.9z"/>
		</g>
	</g>
</g>
<g id="Слой5_x28_3_x29__xA0_Изображение_1_">
</g>
<g id="Слой5_x28_4_x29__xA0_Изображение_1_">
</g>
<g id="Слой6_xA0_Изображение_1_">
</g>
<g id="Слой7_xA0_Изображение_1_">
</g>
<g id="Слой8_xA0_Изображение_1_">
</g>
<g id="Слой9_xA0_Изображение_1_">
</g>
<g id="Слой10_xA0_Изображение_1_">
</g>
<g id="Слой11_xA0_Изображение_1_">
</g>
<g id="Слой12_xA0_Изображение_1_">
</g>
<g id="Слой13_xA0_Изображение_1_">
</g>
</svg>
