<?xml version="1.0" encoding="utf-8"?>
<!-- Generator: Adobe Illustrator 22.1.0, SVG Export Plug-In . SVG Version: 6.00 Build 0)  -->
<svg version="1.1" xmlns="http://www.w3.org/2000/svg" xmlns:xlink="http://www.w3.org/1999/xlink" x="0px" y="0px"
	 viewBox="0 0 690 500" style="enable-background:new 0 0 690 500;" xml:space="preserve">
<style type="text/css">
	.st0{clip-path:url(#SVGID_2_);}
	.st1{clip-path:url(#SVGID_4_);fill:#D6B78B;}
	
		.st2{clip-path:url(#SVGID_4_);fill:none;stroke:#000000;stroke-width:1.6491;stroke-linecap:round;stroke-linejoin:round;stroke-miterlimit:10;}
	.st3{clip-path:url(#SVGID_4_);fill:#60D65C;}
	.st4{clip-path:url(#SVGID_4_);fill:#C97979;}
	.st5{clip-path:url(#SVGID_4_);fill:#4B75BF;}
	.st6{clip-path:url(#SVGID_6_);fill:#756D65;}
	
		.st7{clip-path:url(#SVGID_6_);fill:none;stroke:#000000;stroke-width:1.3178;stroke-linecap:round;stroke-linejoin:round;stroke-miterlimit:10;}
	.st8{clip-path:url(#SVGID_6_);fill:#443F3B;}
	.st9{clip-path:url(#SVGID_8_);}
	.st10{clip-path:url(#SVGID_10_);fill:#999999;}
	.st11{clip-path:url(#SVGID_12_);}
	.st12{clip-path:url(#SVGID_14_);fill:#FFFFFF;}
	
		.st13{clip-path:url(#SVGID_14_);fill:none;stroke:#000000;stroke-width:1.6592;stroke-linecap:round;stroke-linejoin:round;stroke-miterlimit:10;}
	.st14{clip-path:url(#SVGID_16_);}
	.st15{clip-path:url(#SVGID_18_);fill:#60D65C;}
	
		.st16{clip-path:url(#SVGID_18_);fill:none;stroke:#000000;stroke-width:2.4277;stroke-linecap:round;stroke-linejoin:round;stroke-miterlimit:10;}
	.st17{clip-path:url(#SVGID_18_);}
	.st18{clip-path:url(#SVGID_18_);fill:#FFFFFF;}
	.st19{clip-path:url(#SVGID_20_);fill:#355A96;}
	
		.st20{clip-path:url(#SVGID_20_);fill:none;stroke:#000000;stroke-width:1.8491;stroke-linecap:round;stroke-linejoin:round;stroke-miterlimit:10;}
	.st21{clip-path:url(#SVGID_20_);fill:#77B5ED;}
	.st22{clip-path:url(#SVGID_20_);}
	.st23{clip-path:url(#SVGID_22_);fill:#FFFFFF;}
</style>
<g id="TIGER">
</g>
<g id="A1">
	<g>
		<g>
			<defs>
				<rect id="SVGID_1_" x="203" y="24.1" width="224.7" height="182.3"/>
			</defs>
			<clipPath id="SVGID_2_">
				<use xlink:href="#SVGID_1_"  style="overflow:visible;"/>
			</clipPath>
			<g class="st0">
				<defs>
					<rect id="SVGID_3_" x="203" y="24.1" width="224.7" height="182.3"/>
				</defs>
				<clipPath id="SVGID_4_">
					<use xlink:href="#SVGID_3_"  style="overflow:visible;"/>
				</clipPath>
				<path class="st1" d="M348.9,96.1c-2.8-1.6-5.4-1.3-7.3,0.2l-24,18.2l10.1,7l23.4-17.6c0,0,0,0,0,0l0,0l0,0
					c0.3-0.3,0.6-0.6,0.8-0.9C353.2,100.9,351.8,97.9,348.9,96.1"/>
				<path class="st2" d="M348.9,96.1c-2.8-1.6-5.4-1.3-7.3,0.2l-24,18.2l10.1,7l23.4-17.6c0,0,0,0,0,0l0,0l0,0
					c0.3-0.3,0.6-0.6,0.8-0.9C353.2,100.9,351.8,97.9,348.9,96.1z"/>
				<path class="st1" d="M327.7,121.6c-1.2,2.1-4.6,2.4-7.5,0.6c-3-1.7-4.4-4.8-3.1-6.9c1.2-2.1,4.6-2.4,7.5-0.6
					C327.5,116.4,328.9,119.5,327.7,121.6"/>
				<path class="st2" d="M327.7,121.6c-1.2,2.1-4.6,2.4-7.5,0.6c-3-1.7-4.4-4.8-3.1-6.9c1.2-2.1,4.6-2.4,7.5-0.6
					C327.5,116.4,328.9,119.5,327.7,121.6z"/>
				<path class="st3" d="M321.7,97.6c-2.8-1.6-5.4-1.3-7.3,0.2l-35.5,25.7l10.1,7l35-25c0,0,0,0,0,0l0,0l0,0
					c0.3-0.3,0.6-0.6,0.8-0.9C326,102.4,324.6,99.3,321.7,97.6"/>
				<path class="st2" d="M321.7,97.6c-2.8-1.6-5.4-1.3-7.3,0.2l-35.5,25.7l10.1,7l35-25c0,0,0,0,0,0l0,0l0,0
					c0.3-0.3,0.6-0.6,0.8-0.9C326,102.4,324.6,99.3,321.7,97.6z"/>
				<path class="st3" d="M288.9,130.5c-1.2,2.1-4.6,2.4-7.5,0.6c-3-1.7-4.4-4.8-3.1-6.9c1.2-2.1,4.6-2.4,7.5-0.6
					C288.8,125.4,290.2,128.4,288.9,130.5"/>
				<path class="st2" d="M288.9,130.5c-1.2,2.1-4.6,2.4-7.5,0.6c-3-1.7-4.4-4.8-3.1-6.9c1.2-2.1,4.6-2.4,7.5-0.6
					C288.8,125.4,290.2,128.4,288.9,130.5z"/>
				<path class="st4" d="M349.4,118.4c-2.8-1.6-5.4-1.3-7.3,0.2l-20.7,15l10.1,7l20.1-14.4c0,0,0,0,0,0l0,0l0,0
					c0.3-0.3,0.6-0.6,0.8-0.9C353.7,123.3,352.3,120.2,349.4,118.4"/>
				<path class="st2" d="M349.4,118.4c-2.8-1.6-5.4-1.3-7.3,0.2l-20.7,15l10.1,7l20.1-14.4c0,0,0,0,0,0l0,0l0,0
					c0.3-0.3,0.6-0.6,0.8-0.9C353.7,123.3,352.3,120.2,349.4,118.4z"/>
				<path class="st4" d="M331.5,140.7c-1.2,2.1-4.6,2.4-7.5,0.6c-3-1.7-4.4-4.8-3.1-6.9c1.2-2.1,4.6-2.4,7.5-0.6
					C331.3,135.5,332.7,138.6,331.5,140.7"/>
				<path class="st2" d="M331.5,140.7c-1.2,2.1-4.6,2.4-7.5,0.6c-3-1.7-4.4-4.8-3.1-6.9c1.2-2.1,4.6-2.4,7.5-0.6
					C331.3,135.5,332.7,138.6,331.5,140.7z"/>
				<path class="st5" d="M340.1,89c-2.8-1.6-5.4-1.3-7.3,0.2l-19.1,13.7l10.1,7c0,0,19.2-13.6,19.4-14C344.4,93.9,343,90.8,340.1,89
					"/>
				<path class="st2" d="M340.1,89c-2.8-1.6-5.4-1.3-7.3,0.2l-19.1,13.7l10.1,7c0,0,19.2-13.6,19.4-14C344.4,93.9,343,90.8,340.1,89
					z"/>
				<path class="st5" d="M323.8,109.9c-1.2,2.1-4.6,2.4-7.5,0.6c-3-1.7-4.4-4.8-3.1-6.9c1.2-2.1,4.6-2.4,7.5-0.6
					C323.6,104.8,325,107.9,323.8,109.9"/>
				<path class="st2" d="M323.8,109.9c-1.2,2.1-4.6,2.4-7.5,0.6c-3-1.7-4.4-4.8-3.1-6.9c1.2-2.1,4.6-2.4,7.5-0.6
					C323.6,104.8,325,107.9,323.8,109.9z"/>
			</g>
		</g>
	</g>
</g>
<g id="A2">
	<g>
		<g>
			<defs>
				<rect id="SVGID_5_" x="61.2" y="42.4" width="179.6" height="145.6"/>
			</defs>
			<clipPath id="SVGID_6_">
				<use xlink:href="#SVGID_5_"  style="overflow:visible;"/>
			</clipPath>
			<path class="st6" d="M122,77.9l8.1,75.4h41.3l8.1-75.4H122z M149,90.9v34.4h-7.7l-1.2-34.4H149z M153.8,90.9h8.7l-1.8,34.4h-6.9
				V90.9z M127,90.9h7l2.9,34.4h-5.5L127,90.9z M170.7,125.3h-4.9l2.6-34.4h6.8L170.7,125.3z"/>
			<path class="st7" d="M122,77.9l8.1,75.4h41.3l8.1-75.4H122z M149,90.9v34.4h-7.7l-1.2-34.4H149z M153.8,90.9h8.7l-1.8,34.4h-6.9
				V90.9z M127,90.9h7l2.9,34.4h-5.5L127,90.9z M170.7,125.3h-4.9l2.6-34.4h6.8L170.7,125.3z"/>
			<polygon class="st8" points="120.6,77.1 122,88.4 179.6,88.4 181.3,77.1 			"/>
			<polygon class="st7" points="120.6,77.1 122,88.4 179.6,88.4 181.3,77.1 			"/>
		</g>
	</g>
</g>
<g id="A3">
	<g>
		<g>
			<defs>
				<rect id="SVGID_7_" x="29" y="250" width="243.8" height="158.2"/>
			</defs>
			<clipPath id="SVGID_8_">
				<use xlink:href="#SVGID_7_"  style="overflow:visible;"/>
			</clipPath>
			<g class="st9">
				<defs>
					<rect id="SVGID_9_" x="29" y="250" width="243.8" height="158.2"/>
				</defs>
				<clipPath id="SVGID_10_">
					<use xlink:href="#SVGID_9_"  style="overflow:visible;"/>
				</clipPath>
				<path class="st10" d="M226.4,397.3H75.5c-11.7,0-21.2-9.5-21.2-21.2v-93.9c0-11.7,9.5-21.2,21.2-21.2h150.9
					c11.7,0,21.2,9.5,21.2,21.2v93.9C247.6,387.8,238.1,397.3,226.4,397.3"/>
			</g>
			<g class="st9">
				<defs>
					<path id="SVGID_11_" d="M75.5,260.9c-11.7,0-21.2,9.5-21.2,21.2v93.9c0,11.7,9.5,21.2,21.2,21.2h150.9
						c11.7,0,21.2-9.5,21.2-21.2v-93.9c0-11.7-9.5-21.2-21.2-21.2H75.5z"/>
				</defs>
				<clipPath id="SVGID_12_">
					<use xlink:href="#SVGID_11_"  style="overflow:visible;"/>
				</clipPath>
				<rect x="48" y="257.2" class="st11" width="27.8" height="25.8"/>
				<rect x="225" y="257.2" class="st11" width="27.8" height="25.8"/>
				<rect x="48" y="376.3" class="st11" width="27.8" height="25.8"/>
				<rect x="225" y="376.3" class="st11" width="27.8" height="25.8"/>
			</g>
			<g class="st9">
				<defs>
					<rect id="SVGID_13_" x="29" y="250" width="243.8" height="158.2"/>
				</defs>
				<clipPath id="SVGID_14_">
					<use xlink:href="#SVGID_13_"  style="overflow:visible;"/>
				</clipPath>
				<path class="st12" d="M227.6,392.8H74.3c-9.1,0-16.4-7.4-16.4-16.4v-94.6c0-9.1,7.4-16.4,16.4-16.4h153.4
					c9.1,0,16.4,7.4,16.4,16.4v94.6C244.1,385.5,236.7,392.8,227.6,392.8"/>
				<path class="st13" d="M227.6,392.8H74.3c-9.1,0-16.4-7.4-16.4-16.4v-94.6c0-9.1,7.4-16.4,16.4-16.4h153.4
					c9.1,0,16.4,7.4,16.4,16.4v94.6C244.1,385.5,236.7,392.8,227.6,392.8z"/>
			</g>
		</g>
	</g>
</g>
<g id="A5">
	<g>
		<g>
			<defs>
				<rect id="SVGID_15_" x="345" y="-18.9" width="330.8" height="268.3"/>
			</defs>
			<clipPath id="SVGID_16_">
				<use xlink:href="#SVGID_15_"  style="overflow:visible;"/>
			</clipPath>
			<g class="st14">
				<defs>
					<rect id="SVGID_17_" x="345" y="-18.9" width="330.8" height="268.3"/>
				</defs>
				<clipPath id="SVGID_18_">
					<use xlink:href="#SVGID_17_"  style="overflow:visible;"/>
				</clipPath>
				<path class="st15" d="M556.8,115.2c0,25.6-20.8,46.4-46.4,46.4c-25.6,0-46.4-20.8-46.4-46.4s20.8-46.4,46.4-46.4
					C536,68.8,556.8,89.6,556.8,115.2"/>
				<circle class="st16" cx="510.4" cy="115.2" r="46.4"/>
				<path class="st17" d="M552.2,115.2c0,23.1-18.7,41.8-41.8,41.8c-23.1,0-41.8-18.7-41.8-41.8s18.7-41.8,41.8-41.8
					C533.5,73.4,552.2,92.1,552.2,115.2"/>
				<path class="st18" d="M483.4,144.2c0.4-0.5,0.7-1.1,1.1-1.6c-0.1-0.1-0.2-0.2-0.3-0.3c-0.6,0.4-1.1,0.8-1.8,1.2
					c-7.5-7.6-11.4-16.6-11.8-27.4c0.8-0.2,1.5-0.3,2.2-0.4c0-0.1,0-0.3,0-0.4c-0.7-0.2-1.3-0.3-2.2-0.5c0.3-11,4.4-20.4,12.3-28.2
					c0.7,0.5,1.3,1,2,1.5c0.1-0.1,0.2-0.2,0.4-0.4c-0.4-0.6-0.9-1.2-1.3-1.8c4.2-5.5,18.2-11.1,25.6-10.3c0.2,0.6,0.3,1.2,0.5,1.9
					c0.1,0,0.3,0,0.4,0c0.1-0.6,0.2-1.2,0.4-2c10.5,0.2,19.6,3.9,27.4,11.2c-0.3,0.4-0.6,0.7-0.8,1c-0.2,0.3-0.3,0.5-0.2,1.1
					c0.6-0.4,1.1-0.8,1.9-1.3c7.2,7.6,11,16.6,11.3,27.2c-0.8,0.2-1.5,0.3-2.2,0.4c0,0.1,0,0.3,0,0.4c0.6,0.1,1.3,0.3,2.1,0.4
					c-0.2,9.9-3.7,18.5-10.3,26c-0.6-0.3-1.1-0.6-1.6-0.9c-0.1,0.1-0.2,0.2-0.3,0.3c0.3,0.5,0.6,1,1,1.6
					c-7.7,7.8-17.1,11.8-28.2,12.1c-0.1-0.9-0.3-1.6-0.4-2.4c-0.2,0-0.3,0-0.5,0c-0.1,0.7-0.3,1.5-0.4,2.2
					C502.3,155.8,488.2,150,483.4,144.2 M510.9,106.3L510.9,106.3c0-2.2,0-4.3,0-6.5c0-0.5-0.4-1-0.6-1.4c-0.2,0.5-0.7,1-0.7,1.5
					c-0.1,4.1,0,8.1-0.1,12.2c0,0.7-0.3,1.4-0.7,2c-1,1.4-0.6,2.9,1.1,3.4c0.8,0.2,1.6,0.6,2.2,1.1c5.4,4.5,10.8,9,16.3,13.4
					c0.4,0.4,0.9,0.7,1.4,1c0.2,0.1,0.6,0,0.9-0.1c0.1-0.1,0-0.6-0.1-0.8c-0.3-0.4-0.6-0.7-1-1c-4-3.3-8.2-6.6-12-10.1
					c-2.1-1.9-5.3-2.9-5.8-6.6c-0.1-1-0.8-2.3-0.8-3.5C510.8,109.4,510.9,107.9,510.9,106.3"/>
				<path class="st17" d="M510.9,106.3c0,1.6,0,3.1,0,4.7c0,1.2,0.7,2.5,0.8,3.5c0.5,3.7,3.7,4.7,5.8,6.6c3.9,3.5,8,6.7,12,10.1
					c0.4,0.3,0.7,0.6,1,1c0.1,0.2,0.2,0.7,0.1,0.8c-0.2,0.2-0.7,0.3-0.9,0.2c-0.5-0.3-1-0.6-1.4-1c-5.4-4.5-10.8-9-16.3-13.4
					c-0.6-0.5-1.5-0.9-2.2-1.1c-1.6-0.5-2.1-2-1.1-3.4c0.4-0.6,0.7-1.3,0.7-2c0.1-4.1,0-8.1,0.1-12.2c0-0.5,0.4-1,0.7-1.5
					c0.2,0.5,0.6,0.9,0.6,1.4C510.9,102,510.9,104.1,510.9,106.3L510.9,106.3z M511.9,115.4c-0.8-0.5-1.3-1.2-1.7-1.1
					c-0.5,0.1-0.9,0.8-1.3,1.3c0.5,0.4,0.9,1,1.4,1.1C510.7,116.7,511.1,116,511.9,115.4 M510.2,99.6c-0.1,0-0.1,0-0.2,0.1V113
					c0.1,0,0.1,0,0.2,0V99.6z"/>
				<path class="st18" d="M511.9,115.4c-0.7,0.6-1.2,1.3-1.6,1.3c-0.5-0.1-0.9-0.7-1.4-1.1c0.4-0.4,0.8-1.1,1.3-1.3
					C510.5,114.2,511.1,114.9,511.9,115.4"/>
				<path class="st18" d="M510.2,99.6V113c-0.1,0-0.1,0-0.2,0V99.7C510.1,99.7,510.2,99.7,510.2,99.6"/>
			</g>
		</g>
	</g>
</g>
<g id="A4">
	<g>
		<g>
			<defs>
				<rect id="SVGID_19_" x="366.1" y="240.9" width="271.8" height="176.3"/>
			</defs>
			<clipPath id="SVGID_20_">
				<use xlink:href="#SVGID_19_"  style="overflow:visible;"/>
			</clipPath>
			<rect x="372" y="248.6" class="st19" width="259.9" height="160.9"/>
			<rect x="372" y="248.6" class="st20" width="259.9" height="160.9"/>
			<rect x="377.6" y="253.9" class="st21" width="248.8" height="150.4"/>
			<rect x="377.6" y="253.9" class="st20" width="248.8" height="150.4"/>
			<g class="st22">
				<defs>
					<rect id="SVGID_21_" x="366.1" y="240.9" width="271.8" height="176.3"/>
				</defs>
				<clipPath id="SVGID_22_">
					<use xlink:href="#SVGID_21_"  style="overflow:visible;"/>
				</clipPath>
				<path class="st23" d="M490,317.9c1.5-1.5,4.2-2.3,4.1-4.8h1.8c0.1-0.2,0.2-0.4,0.4-0.7c-1.2-0.4-2.4-0.9-4-1.5
					c-0.7-1.3-0.7-2.7,1.3-4.1c1.4-1,2.3-2.6,3.1-4c2.2-4,5-5,9.5-3.1c1.2,0.5,2.5,0.8,3.6,1.3c1,0.5,1.7,1.3,2.9,2.1
					c0.2-0.7,0.4-1.4,0.4-1.2c4.1-1.4,7.7-2.5,11.5-3.8v-4.4c3.6,1.5,6.1,0.1,7.3-3.3c0.4-1.2,1.3-2.2,2.2-3.2
					c1-1.2,2.2-2.2,3.6-3.5c6.6,1.4,6.6,1.4,6.4,5.1c2.8-0.6,5.5-1.5,8.2-1.6c1.7,0,3.4,1.2,6,2.2c0.8-0.8,1.7-2.4,3.3-3.2
					c1.3-0.7,3.4-0.6,5.1-0.4c4.4,0.5,9.7,2.3,13,0.2c4-2.5,7.1-0.7,10.5-0.8c3.3,0,3.3,0.1,4.1,3c-3.8,1.4-4.1,2.6-0.5,6.3
					c-1.9,1.7-4.1,3.5-5.9,5.4c-0.5,0.5-0.5,2,0,2.5c2.4,2.5,1.2,5.1,0.8,7.7c-0.4,0.1-0.7,0.2-1.1,0.3c-0.9-2-2.4-4-2.7-6.1
					c-0.3-2.1,0.6-4.3,0.2-6.7c-1.5,1.3-3,2.6-5.2,4.6c-3.8,0.2-5.1,1.1-6.2,4.7c-0.4,1.5-0.2,2.5,1.8,2.4c3.8-0.1,4.3,2.4,4.8,4.9
					c-0.6-0.6-1.1-1.2-1.9-2c0.2,3.4,0.6,6.5-3.3,8.6c-0.8,0.4-0.6,2.4-0.7,3.7c0,0.8,0.5,1.6,0.4,2.5c-5.3-4.3-5.7-4.5-7.4-2.1
					c0.8,0.2,1.5,0.4,2.1,0.6c0.4,2.6,1.8,5.4,1,7.6c-0.9,2.2-3.9,3.9-5.9,5.7c-0.7-0.3-1.4-0.6-2.1-0.9c0.1,0.8-0.1,1.7,0.3,2.3
					c2.2,2.8,2.2,2.9-0.9,4.9c-1-0.6-2-1.3-3.1-1.9c-0.3,0.1-0.7,0.2-1,0.3c1.6,3.4,3.2,6.9,4.8,10.3c-0.5,0.2-1,0.5-1.4,0.7
					c-1.9-2.1-3.8-4.3-6.3-7.1c1.7,0.6,2.5,0.9,3.5,1.2c-0.8-4.2-2.5-7.9-6.3-10.6c-0.7-0.5-2.7-0.6-3.3-0.1c-2,1.6-4.7,2.9-4.6,5.9
					c0,0.6-0.7,1.2-1.5,2.4c-1.1-1.9-2.2-3.2-2.8-4.6c-1.8-4.1-4.7-6.4-10.1-6.5c-2.6-0.1-5.2-1.4-8-2.1c1.2,1.4,1.5,3.6,4.8,2.6
					c0.6-0.2,2.1,0.7,2.4,1.4c0.3,0.6-0.3,2-0.9,2.3c-3.1,1.4-6.3,2.6-9.5,3.9c-1.7-3-3.4-6.1-5.1-9.1c-0.5,0.3-1.1,0.5-1.6,0.8
					c2.3,2.7,4.5,5.5,6.8,8.2c1.7,0.5,3.5,1,6,1.7c-1.6,1.7-3,3.6-4.8,5.1c-2.5,2.1-4.7,4-3.1,7.4c0.4,0.8,0.2,2.5-0.5,2.8
					c-3.6,1.7-3.4,5.4-5.7,7.7c-1,1-1.9,2.2-3.1,2.9c-3,1.9-5.9,1.2-7.2-1.8c-1-2.3-2.8-4.6-2.7-6.9c0.3-4.1,0.1-8-2.1-11.7
					c-0.2-0.4,0.1-1,0.2-2.3c-2.7-0.1-5.2-0.5-7.7-0.3c-4.5,0.4-7.8-1-9.9-4.5c-1.1-1.8,0.2-7.1,2-8.9c1.1-1,2-2.2,2.9-3.3
					c1.2-1.6,10.2-4.2,12.1-3.2c1.6,0.9,2.9,2.3,4.5,3.3c0.5,0.3,1.3,0.5,2,0.5c2,0,3.9-0.2,5.9-0.3c2.2-0.1,5.1,0.7,5-2.2
					c-2.8-1.1-5.2-2.1-7.8-3.2c0,0.1-0.3,0.8-0.7,1.9c-2-2.1-3.8-3.9-5.5-5.7c-0.3,0.2-0.6,0.3-0.8,0.5c0.9,1.1,1.8,2.1,2.7,3.2
					c-0.2,0.1-0.3,0.3-0.5,0.4c-1-0.6-2-1.2-2.9-1.8c-2.8-1.9-4.9-1.7-7,0.7c-0.6,0.6-0.8,1.7-1.5,2c-1.2,0.5-3.4,1-3.8,0.5
					c-1-1.1-1.1-2.7-1.6-4.1c5.8-1.1,5.8-1.1,3.9-3.9C487.9,319.1,489,318.4,490,317.9L490,317.9z M502.2,304.8
					c-0.4-0.1-0.7-0.3-1.1-0.4c-1.3,3.5-2.5,7-3.8,10.4c4.7,1,4.4-4,7.8-5.1C500.7,309.6,500.4,309.2,502.2,304.8 M516.2,324.5
					c-1.7-1.6-2.7-2.6-3.5-3.3c-1.3,0-2.3-0.2-3.1,0.1c-0.9,0.3-1.6,1.1-2.2,1.8c-0.1,0.1,0.8,1.3,1.3,1.3
					C510.8,324.6,513,324.5,516.2,324.5 M521.4,319.9c-0.7,0.8-1.9,2.1-1.8,2.2c1.8,1.5,0.7,4.8,4.9,5.5
					C523.4,324.9,522.5,322.7,521.4,319.9"/>
				<path class="st23" d="M435,334.7c-2.6-2.9-5.3-3.5-9.2-2.3c-2.3,0.7-3.7,5.2-1.6,6.2c1.4,0.6,3.6-0.2,5.7-0.4
					c-0.1,0.5-0.2,1.4-0.3,2.5c0.8,0.2,1.7,0.5,2.6,0.8c0.1,0.3,0.3,0.6,0.3,0.8c0.1,2.5,2.3,4.1,4.4,2.6c3.1-2.2,6.2-1.2,8.8-0.4
					c3.5,1.1,6.4,3.5,9.6,5.2c1.7,0.9,3.5,2,5.5,2.5c5.1,1.2,5.6,2.1,3.1,5.9c-0.5,0.8-0.7,1.7-0.8,2.6c-0.3,1.9-1,3.4-3.4,4.2
					c-1.1,0.3-1.8,1.7-2.6,2.6c-2.4,2.7-5.1,5.3-7.2,8.2c-1.3,1.8-2.2,4-2.6,6.1c-0.4,2.1,0.1,4.3,0.2,6.7c-2.8,0.4-5.5-1.8-5.6-5.8
					c-0.1-5.1-0.1-10.3,0.1-15.4c0.1-2.9,0-5.3-3.5-7.4c-4.2-2.5-4.6-6.7-2.4-10.9c0.7-1.4,1.1-2.6-1.9-3.1c-2.7-0.5-5-2.5-7.5-3.7
					c-0.8-0.4-1.7-0.7-2.6-0.9c-3.1-0.6-5.9-1.3-6.7-4.5c-0.3-1.1-1.5-2-2.7-3.4c-0.1,1.1-0.2,1.7-0.3,3.2c-0.4-0.9-0.5-1.2-0.7-1.5
					c-1.6-2.7-3.6-5.2-4.7-8.1c-0.8-2-1-4.5-0.2-6.5c1.5-4,0.5-7.7-0.9-11.2c-1.1-2.5-0.5-6.2-4.6-7.1c-2-0.4-4.5-0.1-6.5,0.5
					c-2.2,0.7-4.1,2.1-6.6,2.6c1.2-0.7,2.3-1.5,3.4-2.2c-3.6-4.9-3.3-5.8,2-7.9c-0.4-1.1-0.8-2.2-1.2-3.2c1.1-0.2,2.3-0.4,3.7-0.7
					c-1.5-3.7,2.4-4.1,5.5-5.2c2-0.7,3.3-0.2,5.1,1c3.1,2.1,5.6,5,10.6,4.4c2.1-0.2,4.7,2.3,7,3.6c1,0.6,1.8,1.3,3.1,1.6
					c-1.2-1.4-4.2-1.9-2.2-4.5c0.2-0.3-1.6-1.7-2.9-3.1c1-0.8,2.2-2.1,3.8-2.7c0.4-0.2,1.8,1.8,2.9,2.4c1.3,0.6,2.9,0.8,4.5,1.2
					c-0.7,1.9-1.5,4.3-2.6,7.2c0,0,1.6,0.5,1.8,0.3c1.4-1.7,4.9-3,1.7-5.7c1.6-3,4.4-0.8,6.7-1.5c-2.9,2.6-4.8,5-0.8,8.2
					c0-0.9,0.3-1.8,0-2.6c-0.8-2.1,0.2-3.8,2.1-4.3c1.9-0.4,4.5-0.5,5.6,1.8c1.4,2.7,2.9,5.3,4.2,8c0.2,0.4-0.9,1.3-2,1.5
					c-0.4,1-0.8,2-1.2,3c-1.1-0.5-2.2-0.9-3.3-1.5c-0.8-0.4-1.5-0.9-2.3-1.3c1.8-1.2,5-1.7,2.7-4.7c-1.2-1.6-2.1-1.8-3.3,0
					c-0.8,1.1-1.8,2.2-3,3.5c0.1,0.2,0.4,0.9,0.8,1.7c-0.7,0.1-1.3,0.4-1.8,0.3c-2.7-0.7-6.8,0.7-7.4,3c-0.2,1,0.7,2.4,1.5,3.3
					c1.5,1.6,3.4,3,5.3,4.8c0.9-2.1,1.9-4.6,3.1-6.9c0.4-0.9,1.4-1.6,2.1-2.3c0.9,0.8,1.8,1.6,2.7,2.5c0.3,0.3,0.2,0.8,0.4,1.4
					c1-0.3,1.8-0.5,2.8-0.8c1.6,3.5,3.1,7.1,4.7,10.6c-0.3,0.2-0.6,0.4-0.9,0.7c-0.9-0.7-1.9-1.5-2.8-2.2c0.2-0.2,0.5-0.5,0.7-0.7
					c-1.6,0.1-3.2,0.2-5.1,0.4c0.7,1.2,1.4,2.4,1.9,3.2c-2.3,1.1-5,1.9-7,3.4c-2.6,1.9-4.9,4.3-6.9,6.7
					C434.8,331.7,435.1,333.3,435,334.7"/>
				<path class="st23" d="M446.2,287.9c1.1,0.4,2.3,0.7,3.4,1.1c-0.1,0.4-0.1,0.7-0.2,1.1c-1.5-0.1-3.5,0.2-4.4-0.6
					c-1-0.8-1.1-2.5-1.5-3.6c1.7-0.1,3.3-0.3,5.5-0.5c-2.8-2.7-2.7-5.2-0.3-6.4c3.2-1.5,7-2.4,10.6-2.8c1.5-0.2,3.6,1.3,4.9,2.4
					c1.9,1.7,4.6,1.9,6.9,0.6c3.7-2.2,6.4-2.2,9.3,1.3c-0.4,0.3-0.9,0.7-1.8,1.4c1.8,0.3,3.4,0.6,5.3,1c-5.1,4.4-4.1,10.3-6.6,15.3
					c-0.6,1.2-2.3,2.1-3.6,3c-1.1,0.7-2.6,1-3.7,1.7c-2.5,1.7-4.8,3.6-7.5,5.6c-2.1-0.7-4.5-4.2-3.1-6.7c1.5-2.8,0.6-5.7,1.1-8.5
					c0.3-1.9-0.2-3.7-3.2-4c-0.6-0.1-1.5-1.3-1.4-1.9c0.1-1,0.8-2,1.6-2.8c1-0.9,2.3-1.6,3.4-2.4c-0.3-0.3-0.6-0.6-0.9-1
					c-1.8,1.2-3.7,2.4-5.4,3.6c-2.4,1.8-4.6,4.1-8.7,2C446,287.3,446.1,287.6,446.2,287.9"/>
				<path class="st23" d="M566.7,373.8c-0.2-2.3-0.4-4.2-0.6-6.1c-0.1-2,0.8-3.4,3.3-4.1c1.4-0.4,2.5-1.4,3.8-2.1
					c2.2-1.2,4.5-2.4,6.8-3.3c0.6-0.2,1.9,0.7,2.7,1.3c0.8,0.7,1.4,1.6,2.6,2.9c0.8-1.8,1.3-2.9,1.9-4.3c2.1,3.3,4.3,6.3,5.9,9.5
					c1.1,2.2-2.8,9-5.5,10c-2.2,0.9-4.2,0.8-5.5-1.5c-2.3-4.2-4.6-4.9-9.6-3.4C570.6,373.2,568.6,373.4,566.7,373.8"/>
				<path class="st23" d="M580.3,351.4c2.4,0.4,4.7,0.4,6.6,1.2c2,0.8,3.6,2.3,5.1,3.7C582,353.7,581.8,353.7,580.3,351.4"/>
				<path class="st23" d="M575.7,328.9c3.8-2.9,7.5-5.8,4.6-11.1c1.8,0.6,2.5,0.8,2.6,0.8c0,2.7,0.2,5-0.1,7.2
					c-0.1,0.6-1.5,1.2-2.3,1.7c-1.1,0.7-2.3,1.2-3.5,1.9C576.5,329.2,576.1,329.1,575.7,328.9"/>
				<path class="st23" d="M570.8,347.2c-0.5,1.9-0.9,3.9-1.4,6c-1.6-0.3-2.9-0.2-3.5-0.7c-0.6-0.6-1-2.2-0.5-2.6
					c1.3-1.2,3-2.1,4.6-3.1C570.3,346.9,570.5,347.1,570.8,347.2"/>
				<path class="st23" d="M498.9,288.9c-0.9,0.5-1.8,1-3,1.6c-0.7-1-1.6-2.2-2.8-3.9c2.5-0.7,4.6-1.3,7.2-2
					C499.7,286.5,499.3,287.7,498.9,288.9"/>
				<path class="st23" d="M523.1,358.8c-0.5,2.6-0.7,5.4-3.7,7.3C517.7,362.8,518.5,361.2,523.1,358.8"/>
				<path class="st23" d="M430.1,282.8c1.4-0.5,2.5-0.9,3.8-1.3c0.6,1.5-0.7,4.1,2.9,3.2c0.1,0,0.7,0.9,0.6,1.3
					c-0.1,0.3-0.8,0.8-1.2,0.9c-2,0.1-4.4,0.8-4.7-2.2C431.5,284.1,430.7,283.6,430.1,282.8"/>
				<path class="st23" d="M521.3,288.6c-2.3,2.6-4.9,5.1-2.8,8.7c-0.3,0.1-0.6,0.3-0.9,0.4c-0.6-0.8-1.6-1.6-1.7-2.4
					C515.6,291.7,517,290,521.3,288.6"/>
				<path class="st23" d="M490,317.8c-1.1,0.1-2.3,0.1-3.4,0.2c-0.4-2.1-0.7-4.1-1-6.1c0.4-0.1,0.8-0.2,1.1-0.3
					C487.8,313.7,488.9,315.8,490,317.8L490,317.8"/>
				<path class="st23" d="M603.8,382.5c-1.9,1.5-3.8,2.9-5.7,4.4c-0.3-0.2-0.6-0.5-0.9-0.7c1.9-1.5,3.7-2.9,5.6-4.4
					C603.1,382,603.5,382.2,603.8,382.5"/>
				<path class="st23" d="M481.1,305.5c-1.2,0.3-2.5,0.8-3.7,0.7c-0.6,0-1.1-1.2-2.1-2.4c2.5,0.1,4.1,0.2,5.7,0.3
					C481,304.6,481,305.1,481.1,305.5"/>
				<path class="st23" d="M532.4,281.9c-2.2-0.2-4.4-0.4-4.3-3.9c2,1.3,3.5,2.2,5,3.2C532.8,281.4,532.6,281.7,532.4,281.9"/>
			</g>
		</g>
	</g>
</g>
</svg>
