<?xml version="1.0" encoding="utf-8"?>
<!-- Generator: Adobe Illustrator 22.1.0, SVG Export Plug-In . SVG Version: 6.00 Build 0)  -->
<svg version="1.1" xmlns="http://www.w3.org/2000/svg" xmlns:xlink="http://www.w3.org/1999/xlink" x="0px" y="0px"
	 viewBox="0 0 690 500" style="enable-background:new 0 0 690 500;" xml:space="preserve">
<style type="text/css">
	#A1, #A2, #A3, #A4, #A5, #A6, #A7 {
		transform-origin: center;
		pointer-events: visible;
		transition: all .3s;
	}

	.st0{clip-path:url(#SVGID_2_);fill:#FFFEFD;}
	.st1{clip-path:url(#SVGID_2_);fill:#725A48;}
	.st2{clip-path:url(#SVGID_2_);fill:#EDE57E;}
	.st3{clip-path:url(#SVGID_2_);fill:#D6B78B;}
	
		.st4{clip-path:url(#SVGID_2_);fill:none;stroke:#000000;stroke-width:1.1741;stroke-linecap:round;stroke-linejoin:round;stroke-miterlimit:10;}
	
		.st5{clip-path:url(#SVGID_2_);fill:none;stroke:#000000;stroke-width:2.9352;stroke-linecap:round;stroke-linejoin:round;stroke-miterlimit:10;}
	.st6{clip-path:url(#SVGID_2_);}
	.st7{clip-path:url(#SVGID_4_);fill:#414141;}
	
		.st8{clip-path:url(#SVGID_4_);fill:none;stroke:#000000;stroke-width:1.1741;stroke-linecap:round;stroke-linejoin:round;stroke-miterlimit:10;}
	.st9{clip-path:url(#SVGID_4_);fill:#D6B78B;}
	
		.st10{clip-path:url(#SVGID_4_);fill:none;stroke:#000000;stroke-width:2.9352;stroke-linecap:round;stroke-linejoin:round;stroke-miterlimit:10;}
	.st11{clip-path:url(#SVGID_4_);fill:#755232;}
	.st12{clip-path:url(#SVGID_6_);}
	.st13{clip-path:url(#SVGID_8_);fill:#E5E3E1;}
	
		.st14{clip-path:url(#SVGID_8_);fill:none;stroke:#000000;stroke-width:0.8297;stroke-linecap:round;stroke-linejoin:round;stroke-miterlimit:10;}
	.st15{clip-path:url(#SVGID_10_);fill:#4B75BF;}
	
		.st16{clip-path:url(#SVGID_10_);fill:none;stroke:#000000;stroke-width:1.1404;stroke-linecap:round;stroke-linejoin:round;stroke-miterlimit:10;}
	.st17{clip-path:url(#SVGID_10_);fill:#C97979;}
	.st18{clip-path:url(#SVGID_12_);}
	.st19{clip-path:url(#SVGID_14_);fill:#D6B78B;}
	
		.st20{clip-path:url(#SVGID_14_);fill:none;stroke:#000000;stroke-width:1.4936;stroke-linecap:round;stroke-linejoin:round;stroke-miterlimit:10;}
	.st21{clip-path:url(#SVGID_14_);fill:#60D65C;}
	.st22{clip-path:url(#SVGID_14_);fill:#C97979;}
	.st23{clip-path:url(#SVGID_14_);fill:#4B75BF;}
	.st24{clip-path:url(#SVGID_16_);}
	.st25{clip-path:url(#SVGID_18_);}
	.st26{clip-path:url(#SVGID_18_);fill:#A2AAAD;}
	.st27{clip-path:url(#SVGID_18_);fill:#2B2D2C;}
	.st28{clip-path:url(#SVGID_18_);fill:#2B2C2E;}
	.st29{clip-path:url(#SVGID_20_);}
	.st30{clip-path:url(#SVGID_22_);}
	.st31{clip-path:url(#SVGID_22_);fill:#FEAB41;}
	.st32{clip-path:url(#SVGID_22_);fill:#FABA62;}
	.st33{clip-path:url(#SVGID_22_);fill:#F88F10;}
	.st34{clip-path:url(#SVGID_22_);fill:#B4328A;}
	.st35{clip-path:url(#SVGID_22_);fill:#FAD9B6;}
	.st36{clip-path:url(#SVGID_22_);fill:#BABABA;}
	.st37{clip-path:url(#SVGID_22_);fill:#020003;}
	.st38{clip-path:url(#SVGID_24_);}
	.st39{clip-path:url(#SVGID_26_);fill:#999999;}
	.st40{clip-path:url(#SVGID_28_);}
	.st41{clip-path:url(#SVGID_30_);fill:#FFFFFF;}
	
		.st42{clip-path:url(#SVGID_30_);fill:none;stroke:#000000;stroke-width:1.4157;stroke-linecap:round;stroke-linejoin:round;stroke-miterlimit:10;}
	.st43{clip-path:url(#SVGID_32_);fill:#755232;}
	
		.st44{clip-path:url(#SVGID_32_);fill:none;stroke:#000000;stroke-width:1.3752;stroke-linecap:round;stroke-linejoin:round;stroke-miterlimit:10;}
	.st45{clip-path:url(#SVGID_32_);fill:#668655;}
</style>
<g id="Слой_5">
	<g>
		<g>
			<defs>
				<rect id="SVGID_1_" x="0" y="0" width="690" height="500"/>
			</defs>
			<clipPath id="SVGID_2_">
				<use xlink:href="#SVGID_1_"  style="overflow:visible;"/>
			</clipPath>
			<rect x="0" y="236.3" class="st0" width="690" height="24.5"/>
			<rect x="0" y="245.5" class="st1" width="690" height="254.5"/>
			<rect x="0" y="0" class="st2" width="690" height="239.9"/>
			<rect x="439.2" y="174.7" class="st3" width="55.9" height="44.5"/>
			<rect x="439.2" y="174.7" class="st4" width="55.9" height="44.5"/>
			<polyline class="st5" points="439.2,266 439.2,221.9 447.9,226 447.9,258.9 447.9,215.2 509.2,215.2 509.2,267.4 509.2,207 
				495.1,257.9 			"/>
			<line class="st5" x1="375.6" y1="228.6" x2="375.6" y2="291.8"/>
			<line class="st5" x1="549" y1="291.8" x2="549" y2="230.2"/>
			<g class="st6">
				<defs>
					<rect id="SVGID_3_" x="0" y="0" width="690" height="500"/>
				</defs>
				<clipPath id="SVGID_4_">
					<use xlink:href="#SVGID_3_"  style="overflow:visible;"/>
				</clipPath>
				<path class="st7" d="M558.8,227.8V297l11.9,8.6v4.9c0,0.8-0.9,1.5-2.1,1.5h-5.8l-23.1-16.7v-3.8c0-0.8,0.9-1.5,2.1-1.5h4.6
					l5.7,4.1v-63.9L558.8,227.8z"/>
				<path class="st8" d="M558.8,227.8V297l11.9,8.6v4.9c0,0.8-0.9,1.5-2.1,1.5h-5.8l-23.1-16.7v-3.8c0-0.8,0.9-1.5,2.1-1.5h4.6
					l5.7,4.1v-63.9L558.8,227.8z"/>
				<path class="st7" d="M366.1,227.8V297l-11.9,8.6v4.9c0,0.8,0.9,1.5,2.1,1.5h5.8l23.1-16.7v-3.8c0-0.8-0.9-1.5-2-1.5h-4.6
					l-5.7,4.1v-63.9L366.1,227.8z"/>
				<path class="st8" d="M366.1,227.8V297l-11.9,8.6v4.9c0,0.8,0.9,1.5,2.1,1.5h5.8l23.1-16.7v-3.8c0-0.8-0.9-1.5-2-1.5h-4.6
					l-5.7,4.1v-63.9L366.1,227.8z"/>
				<rect x="331.6" y="198" class="st9" width="260.8" height="33.8"/>
				<rect x="331.6" y="198" class="st8" width="260.8" height="33.8"/>
				<polygon class="st9" points="325,193.6 596.2,193.6 617.7,202.4 306.2,202.4 				"/>
				<polygon class="st8" points="325,193.6 596.2,193.6 617.7,202.4 306.2,202.4 				"/>
				<polygon class="st7" points="156.1,328.9 169.3,421.4 186.4,421.4 179.3,327.4 				"/>
				<polygon class="st8" points="156.1,328.9 169.3,421.4 186.4,421.4 179.3,327.4 				"/>
				<line class="st10" x1="203.6" y1="312.3" x2="228.6" y2="418.9"/>
				<polygon class="st7" points="296.2,327.6 309.3,420.1 326.4,420.1 319.3,326.2 				"/>
				<polygon class="st8" points="296.2,327.6 309.3,420.1 326.4,420.1 319.3,326.2 				"/>
				<line class="st10" x1="343.7" y1="311" x2="368.6" y2="417.6"/>
				<polygon class="st7" points="393.2,278.5 393.2,371.3 377.3,395.1 377.3,399.1 385.3,399.1 409.7,359.7 400.7,359.7 
					400.7,278.5 				"/>
				<polygon class="st8" points="393.2,278.5 393.2,371.3 377.3,395.1 377.3,399.1 385.3,399.1 409.7,359.7 400.7,359.7 
					400.7,278.5 				"/>
				<line class="st10" x1="386.8" y1="278.5" x2="386.8" y2="386.1"/>
				<polygon class="st7" points="319.5,309.1 319.5,472 291.5,513.8 291.5,520.8 305.5,520.8 348.3,451.7 332.6,451.7 332.6,309.1 
									"/>
				<polygon class="st8" points="319.5,309.1 319.5,472 291.5,513.8 291.5,520.8 305.5,520.8 348.3,451.7 332.6,451.7 332.6,309.1 
									"/>
				<line class="st10" x1="308.2" y1="309.1" x2="308.2" y2="498"/>
				<polygon class="st11" points="-26.3,280.1 408,280.1 427.7,265.9 427.7,259.9 -26.3,272.2 				"/>
				<polygon class="st8" points="-26.3,280.1 408,280.1 427.7,265.9 427.7,259.9 -26.3,272.2 				"/>
				<polygon class="st11" points="391,286.4 391,293.6 329.4,338.3 -30.2,338.3 -30.2,330.4 				"/>
				<polygon class="st8" points="391,286.4 391,293.6 329.4,338.3 -30.2,338.3 -30.2,330.4 				"/>
				<polygon class="st9" points="-30.8,330.4 329.9,330.4 391,286.4 -30.8,286.4 				"/>
				<polygon class="st8" points="-30.8,330.4 329.9,330.4 391,286.4 -30.8,286.4 				"/>
				<polygon class="st9" points="-30.8,259.9 -30.8,274.4 407.7,274.4 427.7,259.9 				"/>
				<polygon class="st8" points="-30.8,259.9 -30.8,274.4 407.7,274.4 427.7,259.9 				"/>
				<rect x="254.6" y="247.6" class="st9" width="70.9" height="38.8"/>
				<rect x="254.6" y="247.6" class="st8" width="70.9" height="38.8"/>
				<rect x="71.6" y="247.6" class="st9" width="70.9" height="38.8"/>
				<rect x="71.6" y="247.6" class="st8" width="70.9" height="38.8"/>
				<polygon class="st7" points="137.2,415 179.2,520.8 199,520.8 164.1,413.3 				"/>
				<polygon class="st8" points="137.2,415 179.2,520.8 199,520.8 164.1,413.3 				"/>
				<line class="st10" x1="192.3" y1="395.8" x2="248" y2="517.8"/>
				<polygon class="st9" points="23.4,418.6 155.6,418.6 200.4,390.8 46.7,391.6 19.2,396.3 				"/>
				<polygon class="st8" points="23.4,418.6 155.6,418.6 200.4,390.8 46.7,391.6 19.2,396.3 				"/>
				<rect x="-10.9" y="272.6" class="st9" width="128.8" height="143.3"/>
				<rect x="-10.9" y="272.6" class="st8" width="128.8" height="143.3"/>
				<polygon class="st7" points="676.1,327.9 662.9,420.4 645.8,420.4 652.9,326.5 				"/>
				<polygon class="st8" points="676.1,327.9 662.9,420.4 645.8,420.4 652.9,326.5 				"/>
				<line class="st10" x1="628.6" y1="311.4" x2="603.6" y2="417.9"/>
				<polygon class="st7" points="579,278.8 579,371.6 594.9,395.4 594.9,399.4 587,399.4 562.6,360 571.5,360 571.5,278.8 				"/>
				<polygon class="st8" points="579,278.8 579,371.6 594.9,395.4 594.9,399.4 587,399.4 562.6,360 571.5,360 571.5,278.8 				"/>
				<line class="st10" x1="585.4" y1="278.8" x2="585.4" y2="386.4"/>
				<polygon class="st7" points="652.8,309.4 652.8,472.3 680.7,514.1 680.7,521.1 666.7,521.1 623.9,452 639.6,452 639.6,309.4 
									"/>
				<polygon class="st8" points="652.8,309.4 652.8,472.3 680.7,514.1 680.7,521.1 666.7,521.1 623.9,452 639.6,452 639.6,309.4 
									"/>
				<line class="st10" x1="664" y1="309.4" x2="664" y2="498.3"/>
				<polygon class="st11" points="890.8,280.4 564.2,280.4 544.5,266.2 544.5,260.2 890.8,272.5 				"/>
				<polygon class="st8" points="890.8,280.4 564.2,280.4 544.5,266.2 544.5,260.2 890.8,272.5 				"/>
				<polygon class="st11" points="581.2,286.7 581.2,293.9 642.9,338.6 894.8,338.6 894.8,330.7 				"/>
				<polygon class="st8" points="581.2,286.7 581.2,293.9 642.9,338.6 894.8,338.6 894.8,330.7 				"/>
				<polygon class="st9" points="895.4,330.7 642.3,330.7 581.2,286.7 895.4,286.7 				"/>
				<polygon class="st8" points="895.4,330.7 642.3,330.7 581.2,286.7 895.4,286.7 				"/>
				<polygon class="st9" points="895.4,260.2 895.4,274.7 564.6,274.7 544.5,260.2 				"/>
				<polygon class="st8" points="895.4,260.2 895.4,274.7 564.6,274.7 544.5,260.2 				"/>
				<rect x="646.8" y="247.9" class="st9" width="70.9" height="38.8"/>
				<rect x="646.8" y="247.9" class="st8" width="70.9" height="38.8"/>
				<polygon class="st7" points="164.2,414.3 164.2,717.5 112.2,795.4 112.2,808.3 138.2,808.3 218,679.7 188.7,679.7 188.7,414.3 
									"/>
				<polygon class="st8" points="164.2,414.3 164.2,717.5 112.2,795.4 112.2,808.3 138.2,808.3 218,679.7 188.7,679.7 188.7,414.3 
									"/>
				<line class="st10" x1="143.3" y1="414.3" x2="143.3" y2="765.9"/>
				<polygon class="st11" points="297.4,372 297.4,385.4 182.7,468.5 -286.3,468.5 -286.3,453.9 				"/>
				<polygon class="st8" points="297.4,372 297.4,385.4 182.7,468.5 -286.3,468.5 -286.3,453.9 				"/>
				<polygon class="st9" points="-287.5,453.9 183.7,453.9 297.4,372 -287.5,372 				"/>
				<polygon class="st8" points="-287.5,453.9 183.7,453.9 297.4,372 -287.5,372 				"/>
			</g>
		</g>
	</g>
</g>
<g id="A7">
	<g>
		<g>
			<defs>
				<rect id="SVGID_5_" x="139.2" y="259.1" width="113.1" height="91.7"/>
			</defs>
			<clipPath id="SVGID_6_">
				<use xlink:href="#SVGID_5_"  style="overflow:visible;"/>
			</clipPath>
			<g class="st12">
				<defs>
					<rect id="SVGID_7_" x="139.2" y="259.1" width="113.1" height="91.7"/>
				</defs>
				<clipPath id="SVGID_8_">
					<use xlink:href="#SVGID_7_"  style="overflow:visible;"/>
				</clipPath>
				<path class="st13" d="M147.4,286.8l51-13.8c4.9,17,21.3,33.9,42.2,50.7l-56.9,18.5C167.8,325.4,155.9,306.8,147.4,286.8"/>
				<path class="st14" d="M147.4,286.8l51-13.8c4.9,17,21.3,33.9,42.2,50.7l-56.9,18.5C167.8,325.4,155.9,306.8,147.4,286.8z"/>
				<path class="st13" d="M151.3,280.4l51.8-10.8c3.9,17.3,19.3,35.1,39.2,53.1l-57.9,15.2C169.4,320.1,158.6,300.9,151.3,280.4"/>
				<path class="st14" d="M151.3,280.4l51.8-10.8c3.9,17.3,19.3,35.1,39.2,53.1l-57.9,15.2C169.4,320.1,158.6,300.9,151.3,280.4z"/>
				<path class="st13" d="M155.5,275.8l52.2-8.1c3,17.4,17.5,36,36.4,55l-58.6,12.2C171.5,316.4,161.7,296.6,155.5,275.8"/>
				<path class="st14" d="M155.5,275.8l52.2-8.1c3,17.4,17.5,36,36.4,55l-58.6,12.2C171.5,316.4,161.7,296.6,155.5,275.8z"/>
			</g>
		</g>
	</g>
</g>
<g id="A6">
	<g>
		<g>
			<defs>
				<rect id="SVGID_9_" x="58.1" y="369" width="155.4" height="126"/>
			</defs>
			<clipPath id="SVGID_10_">
				<use xlink:href="#SVGID_9_"  style="overflow:visible;"/>
			</clipPath>
			<polygon class="st15" points="142.6,422.6 118.4,431.4 127,437.4 153.1,426.8 			"/>
			<polygon class="st16" points="142.6,422.6 118.4,431.4 127,437.4 153.1,426.8 			"/>
			<polyline class="st15" points="126.7,441.4 153.1,430.6 153.1,426.8 127,437.4 126.7,441.4 118.4,435.5 118.4,431.4 127,437.4 
							"/>
			<polyline class="st16" points="126.7,441.4 153.1,430.6 153.1,426.8 127,437.4 126.7,441.4 118.4,435.5 118.4,431.4 127,437.4 
							"/>
			<polygon class="st17" points="134,425.8 142.9,431 153.1,426.8 142.9,431 139.5,436.2 153.1,430.6 153.1,426.8 142.6,422.6 			
				"/>
			<polygon class="st16" points="134,425.8 142.9,431 153.1,426.8 142.9,431 139.5,436.2 153.1,430.6 153.1,426.8 142.6,422.6 			
				"/>
		</g>
	</g>
</g>
<g id="A5">
	<g>
		<g>
			<defs>
				<rect id="SVGID_11_" x="-49.8" y="314.9" width="203.5" height="165.1"/>
			</defs>
			<clipPath id="SVGID_12_">
				<use xlink:href="#SVGID_11_"  style="overflow:visible;"/>
			</clipPath>
			<g class="st18">
				<defs>
					<rect id="SVGID_13_" x="-49.8" y="314.9" width="203.5" height="165.1"/>
				</defs>
				<clipPath id="SVGID_14_">
					<use xlink:href="#SVGID_13_"  style="overflow:visible;"/>
				</clipPath>
				<path class="st19" d="M82.3,380.2c-2.5-1.5-4.9-1.2-6.6,0.2L54,396.9l9.1,6.3l21.2-15.9c0,0,0,0,0,0l0,0l0,0
					c0.3-0.2,0.6-0.5,0.8-0.8C86.3,384.5,85,381.7,82.3,380.2"/>
				<path class="st20" d="M82.3,380.2c-2.5-1.5-4.9-1.2-6.6,0.2L54,396.9l9.1,6.3l21.2-15.9c0,0,0,0,0,0l0,0l0,0
					c0.3-0.2,0.6-0.5,0.8-0.8C86.3,384.5,85,381.7,82.3,380.2z"/>
				<path class="st19" d="M63.2,403.2c-1.1,1.9-4.2,2.1-6.8,0.6c-2.7-1.6-3.9-4.4-2.8-6.2c1.1-1.9,4.2-2.1,6.8-0.6
					C63,398.6,64.3,401.4,63.2,403.2"/>
				<path class="st20" d="M63.2,403.2c-1.1,1.9-4.2,2.1-6.8,0.6c-2.7-1.6-3.9-4.4-2.8-6.2c1.1-1.9,4.2-2.1,6.8-0.6
					C63,398.6,64.3,401.4,63.2,403.2z"/>
				<path class="st21" d="M57.7,381.5c-2.5-1.5-4.9-1.2-6.6,0.2L18.9,405l9.1,6.3l31.7-22.7c0,0,0,0,0,0l0,0l0,0
					c0.3-0.2,0.6-0.5,0.8-0.8C61.6,385.9,60.4,383.1,57.7,381.5"/>
				<path class="st20" d="M57.7,381.5c-2.5-1.5-4.9-1.2-6.6,0.2L18.9,405l9.1,6.3l31.7-22.7c0,0,0,0,0,0l0,0l0,0
					c0.3-0.2,0.6-0.5,0.8-0.8C61.6,385.9,60.4,383.1,57.7,381.5z"/>
				<path class="st21" d="M28,411.3c-1.1,1.9-4.2,2.1-6.8,0.6c-2.7-1.6-3.9-4.4-2.8-6.2c1.1-1.9,4.2-2.1,6.8-0.6
					C27.9,406.6,29.1,409.4,28,411.3"/>
				<path class="st20" d="M28,411.3c-1.1,1.9-4.2,2.1-6.8,0.6c-2.7-1.6-3.9-4.4-2.8-6.2c1.1-1.9,4.2-2.1,6.8-0.6
					C27.9,406.6,29.1,409.4,28,411.3z"/>
				<path class="st22" d="M82.8,400.4c-2.5-1.5-4.9-1.2-6.6,0.2l-18.7,13.6l9.1,6.3l18.2-13c0,0,0,0,0,0l0,0l0,0
					c0.3-0.2,0.6-0.5,0.8-0.8C86.7,404.8,85.5,402,82.8,400.4"/>
				<path class="st20" d="M82.8,400.4c-2.5-1.5-4.9-1.2-6.6,0.2l-18.7,13.6l9.1,6.3l18.2-13c0,0,0,0,0,0l0,0l0,0
					c0.3-0.2,0.6-0.5,0.8-0.8C86.7,404.8,85.5,402,82.8,400.4z"/>
				<path class="st22" d="M66.6,420.5c-1.1,1.9-4.2,2.1-6.8,0.6c-2.7-1.6-3.9-4.4-2.8-6.2c1.1-1.9,4.2-2.1,6.8-0.6
					C66.4,415.9,67.7,418.7,66.6,420.5"/>
				<path class="st20" d="M66.6,420.5c-1.1,1.9-4.2,2.1-6.8,0.6c-2.7-1.6-3.9-4.4-2.8-6.2c1.1-1.9,4.2-2.1,6.8-0.6
					C66.4,415.9,67.7,418.7,66.6,420.5z"/>
				<path class="st23" d="M74.4,373.8c-2.5-1.5-4.9-1.2-6.6,0.2l-17.3,12.4l9.1,6.3c0,0,17.4-12.3,17.6-12.7
					C78.3,378.1,77,375.3,74.4,373.8"/>
				<path class="st20" d="M74.4,373.8c-2.5-1.5-4.9-1.2-6.6,0.2l-17.3,12.4l9.1,6.3c0,0,17.4-12.3,17.6-12.7
					C78.3,378.1,77,375.3,74.4,373.8z"/>
				<path class="st23" d="M59.6,392.7c-1.1,1.9-4.2,2.1-6.8,0.6c-2.7-1.6-3.9-4.4-2.8-6.2c1.1-1.9,4.2-2.1,6.8-0.6
					C59.4,388,60.7,390.8,59.6,392.7"/>
				<path class="st20" d="M59.6,392.7c-1.1,1.9-4.2,2.1-6.8,0.6c-2.7-1.6-3.9-4.4-2.8-6.2c1.1-1.9,4.2-2.1,6.8-0.6
					C59.4,388,60.7,390.8,59.6,392.7z"/>
			</g>
		</g>
	</g>
</g>
<g id="A4">
	<g>
		<g>
			<defs>
				<rect id="SVGID_15_" x="135.8" y="331" width="130" height="105.4"/>
			</defs>
			<clipPath id="SVGID_16_">
				<use xlink:href="#SVGID_15_"  style="overflow:visible;"/>
			</clipPath>
			<g class="st24">
				<defs>
					<rect id="SVGID_17_" x="135.8" y="331" width="130" height="105.4"/>
				</defs>
				<clipPath id="SVGID_18_">
					<use xlink:href="#SVGID_17_"  style="overflow:visible;"/>
				</clipPath>
				<path class="st25" d="M237.8,370.9c-0.2-0.8-0.2-0.8-0.8-0.8c0-0.4,0-0.8,0-1.2c0-0.8-0.7-1.3-1.4-1.1
					c-3.6,1.1-7.2,2.2-10.8,3.3c-1.5,0.5-3,1-4.4,1.5c-1.2,0.4-2.4,0.8-3.6,1.2c-0.7,0.2-1,0.7-0.7,1.5c0.1,0.2,0.2,0.5,0.3,0.7
					c-0.7,0.8-2.5,0.7-3.2-0.2c-0.3-0.4-0.2-1,0.3-1.4c0.7-0.5,1.4-0.8,2.2-1.2c1.7-0.7,3.5-1.4,5.2-2.2c1.7-0.7,3.4-1.4,5.1-2.1
					c1.7-0.7,3.4-1.4,5.1-2.1c1.5-0.6,3-1.2,4.5-1.8c1.5-0.6,2.9-0.2,4.3,0.6c1.2,0.7,2.2,1.7,3,2.9c-0.4,0.1-0.7,0.2-1.1,0.3
					c0,0.3,0.1,0.6,0.1,0.9c0.7-0.1,1.4-0.4,2.1-0.4c0.8,0,1.1,0.6,1.4,1.3c1.4-0.4,2.8-0.8,4.1-1.2c1.1-0.4,2,0,2.3,1.2
					c0.2,0.9,0.5,1.8,0.8,2.7c0.3,1-0.1,1.7-1.1,2c-1.4,0.4-2.9,0.8-4.3,1.3c0,1.6-0.2,1.9-1.7,2.3c-10,2.9-19.9,5.8-29.9,8.8
					c-1.9,0.6-3.8,1.2-5.6,1.7c-7.6,2.2-15.2,4.4-22.9,6.6c-3.7,1-7.5,2-11.2,2.9c-2.6,0.6-5.2,1.2-7.8,1.7c-3.9,0.8-7.8,1.7-11.8,2
					c-1.7,0.1-3.5,0.3-5.2-0.2c-0.3-0.1-0.7,0.1-1,0.2c-0.3,0-0.6,0-0.9,0c-0.2,0-0.4-0.3-0.4-0.4c0-0.2,0.1-0.5,0.2-0.6
					c2.5-1.6,4.9-3.5,7.7-4.7c2.5-1,5-2.1,7.5-3.2c0.1,0,0.2-0.1,0.4,0c0.4,0.1,0.6,0,0.9-0.3c0.3-0.3,0.8-0.4,1.2-0.6
					c2.3-0.8,4.6-1.7,7-2.5c5-1.7,10-3.4,15-4.9c14.6-4.4,29.2-8.6,43.8-12.9C234.2,371.9,235.9,371.4,237.8,370.9 M167.7,394.6
					c13.3-3.9,26.7-7.8,40-11.7c-0.1-0.4-0.2-0.8-0.4-1.2c-0.2,0.1-0.5,0.1-0.7,0.2c-13,3.8-26,7.5-38.7,12
					C167.6,394.1,167.4,394.2,167.7,394.6 M210.8,382c11-3.2,22-6.5,33-9.7c-0.2-0.8-0.7-1.1-1.8-0.8c-10.3,3-20.7,6.1-31,9.1
					c-0.2,0.1-0.4,0.1-0.6,0.2C210.6,381.2,210.7,381.6,210.8,382 M151.3,401.6c0.3,0.2,0.5,0.4,0.7,0.4c1.8,0,3.6,0,5.4-0.2
					c1.7-0.2,3.4-0.5,5-0.8c1.2-0.2,2.3-0.5,3.5-0.8c-0.3-0.9-0.5-1.8-0.8-2.7C160.6,398.9,156.1,400.2,151.3,401.6 M251.7,372.4
					c-1.4,0.4-2.8,0.8-4.2,1.2c0.2,0.7,0.4,1.3,0.6,2c1.1-0.3,2.2-0.6,3.3-1c0.5-0.2,0.7-0.7,0.6-1.2
					C252,373.1,251.8,372.8,251.7,372.4 M211.2,387.7c-0.7-2.4-1.4-4.8-2.1-7.3c-0.3,0.1-0.5,0.2-0.7,0.3c0.7,2.4,1.4,4.8,2.1,7.2
					C210.8,387.9,211,387.8,211.2,387.7 M165.8,394.7c-0.3,0-0.5,0.1-0.8,0.1c0.5,1.7,1,3.3,1.4,4.9c0.3-0.1,0.5-0.2,0.7-0.3
					C166.7,397.8,166.2,396.3,165.8,394.7 M247.5,375.2c-0.4-1.3-0.7-2.5-1.1-3.8c-0.3,0.1-0.5,0.1-0.7,0.2c0.4,1.3,0.7,2.5,1.1,3.8
					C247,375.4,247.3,375.3,247.5,375.2 M240.7,370c-0.1-0.3-0.1-0.5-0.2-0.8c-0.5,0.2-1,0.3-1.5,0.4c0.1,0.3,0.2,0.5,0.4,0.8
					C239.8,370.3,240.2,370.1,240.7,370"/>
				<path class="st26" d="M167.7,394.6c-0.3-0.4-0.1-0.6,0.3-0.7c12.8-4.5,25.7-8.2,38.7-12c0.2-0.1,0.4-0.1,0.7-0.2
					c0.1,0.4,0.2,0.8,0.4,1.2C194.3,386.8,181,390.7,167.7,394.6"/>
				<path class="st26" d="M210.8,382c-0.1-0.4-0.2-0.7-0.3-1.2c0.2-0.1,0.4-0.1,0.6-0.2c10.3-3,20.7-6.1,31-9.1
					c1-0.3,1.6-0.1,1.8,0.8C232.8,375.5,221.8,378.7,210.8,382"/>
				<path class="st26" d="M151.3,401.6c4.8-1.4,9.3-2.7,13.8-4.1c0.3,0.9,0.5,1.7,0.8,2.7c-1.2,0.3-2.3,0.6-3.5,0.8
					c-1.7,0.3-3.3,0.7-5,0.8c-1.8,0.2-3.6,0.1-5.4,0.2C151.8,402,151.6,401.8,151.3,401.6"/>
				<path class="st26" d="M251.7,372.4c0.1,0.4,0.2,0.7,0.3,1c0.1,0.5,0,1-0.6,1.2c-1.1,0.4-2.2,0.7-3.3,1c-0.2-0.7-0.4-1.3-0.6-2
					C248.9,373.2,250.3,372.8,251.7,372.4"/>
				<path class="st27" d="M211.2,387.7c-0.2,0.1-0.4,0.1-0.7,0.2c-0.7-2.4-1.4-4.8-2.1-7.2c0.2-0.1,0.4-0.2,0.7-0.3
					C209.8,382.9,210.5,385.3,211.2,387.7"/>
				<path class="st28" d="M165.8,394.7c0.5,1.6,0.9,3.1,1.4,4.7c-0.2,0.1-0.5,0.2-0.7,0.3c-0.5-1.6-0.9-3.2-1.4-4.9
					C165.2,394.8,165.5,394.7,165.8,394.7"/>
				<path class="st28" d="M247.5,375.2c-0.3,0.1-0.5,0.1-0.7,0.2c-0.4-1.2-0.7-2.5-1.1-3.8c0.2-0.1,0.5-0.1,0.7-0.2
					C246.8,372.7,247.2,373.9,247.5,375.2"/>
				<path class="st27" d="M240.7,370c-0.5,0.1-0.9,0.3-1.3,0.4c-0.1-0.2-0.2-0.5-0.4-0.8c0.5-0.2,1-0.3,1.5-0.4
					C240.6,369.4,240.6,369.7,240.7,370"/>
			</g>
		</g>
	</g>
</g>
<g id="A3">
	<g>
		<g>
			<defs>
				<rect id="SVGID_19_" x="228.7" y="238.8" width="162.3" height="131.7"/>
			</defs>
			<clipPath id="SVGID_20_">
				<use xlink:href="#SVGID_19_"  style="overflow:visible;"/>
			</clipPath>
			<g class="st29">
				<defs>
					<rect id="SVGID_21_" x="228.7" y="238.8" width="162.3" height="131.7"/>
				</defs>
				<clipPath id="SVGID_22_">
					<use xlink:href="#SVGID_21_"  style="overflow:visible;"/>
				</clipPath>
				<path class="st30" d="M337.4,312.5c-3.5,0-57.1,0-60.6,0c-3.8,0-7.6-0.1-11.4-0.1c-1.6,0-3.3-0.1-4.9-0.1
					c-0.3,0-0.6-0.2-0.7-0.5c-1.6-2.2-2.4-4.7-2.3-7.4c0.1-2.5,0.8-4.7,2.3-6.7c0.5-0.7,1.2-1.1,2.2-1.1c3.5,0.2,7,0.3,10.4,0.4
					c3.3,0.1,6.6,0.2,9.9,0.3c3.3,0.1,56.6,0.2,60,0.3c1.9,0.1,3.9,0.1,5.8,0.2c0.9,0,1.7,0.2,2.5,0.6c3.5,1.9,7,3.7,10.5,5.6
					c0.9,0.5,1.3,1.2,0.9,2c-0.1,0.3-0.4,0.6-0.7,0.8c-2.2,1.1-4.5,2.2-6.8,3.3c-1.7,0.8-3.3,1.7-5,2.5c-0.2,0.1-0.5,0.2-0.7,0.2
					c-3.8,0-7.6,0-11.4,0V312.5z M267.9,308.2c5.7,0.1,61.4,0.2,67.1,0.2c3.4,0,6.8,0.1,10.2,0.1c1.1,0,2.4,0.4,3.4-0.6
					c0.6-0.6,1.3-1,1.5-1.9c0.2-1.1,0.3-2-0.7-2.7c-0.3-0.2-0.6-0.6-0.9-0.8c-0.3-0.2-0.6-0.4-0.9-0.4c-6.7-0.1-63.4-0.1-70.1-0.2
					c-2.9,0-5.8-0.1-8.7-0.1c-0.4,0-0.6,0.1-0.7,0.6C267.6,304.3,267.5,306.2,267.9,308.2 M268.3,300.8c0.3,0,0.4,0,0.6,0
					c4.2,0,8.5,0.1,12.7,0.1c5.3,0,60.6,0.1,65.9,0.1c1.2,0,2.3-0.8,2.8-2.1c-0.5-0.1-0.9-0.4-1.3-0.4c-1.3-0.1-2.6-0.1-4-0.1
					c-3.3-0.1-6.6-0.2-9.9-0.3c-2.1-0.1-54.2-0.1-56.3-0.2c-3-0.1-5.9-0.2-8.9-0.3c-0.2,0-0.5,0.2-0.5,0.3
					C269,299,268.7,299.9,268.3,300.8 M268.1,309.2c0.2,0.6,0.4,1.2,0.5,1.8c0.1,0.4,0.3,0.5,0.7,0.5c3.1,0,6.3,0.1,9.4,0.1
					c5.1,0.1,60.1,0.1,65.2,0.1c1.7,0,3.3,0,5,0c0.4,0,0.7-0.3,1-0.5c-0.2-0.3-0.3-0.6-0.6-0.8c-0.3-0.3-0.7-0.6-1.1-0.9
					c-0.1-0.1-0.3-0.1-0.5-0.1c-3.2,0-6.4-0.1-9.6-0.1c-3.2,0-56.3-0.1-59.5-0.1C275.1,309.2,271.7,309.2,268.1,309.2 M263.8,311.3
					c-1.6-4.7-1.2-9.3,0.9-13.7c-0.9-0.1-1.7-0.1-2.5-0.2c-0.9-0.1-1.5,0.3-1.9,1c-1,1.5-1.6,3.1-1.8,4.9c-0.4,2.9,0.3,5.5,1.9,7.8
					c0.1,0.1,0.3,0.2,0.4,0.2C261.8,311.4,262.8,311.3,263.8,311.3 M356.8,307.8c-0.1-0.9-0.3-1.7-0.2-2.6c0-0.8,0.3-1.6,0.5-2.5
					c-1.9-1-3.9-2.1-5.8-3.1c-0.7,0.8-1.4,1.5-2.1,2.2c1.1,0.8,2.2,1.8,1.9,3.5c-0.2,1.5-0.9,2.8-2.3,3.4c0.8,0.7,1.5,1.3,2.2,2
					C352.9,309.8,354.9,308.8,356.8,307.8 M266.7,297.7c-0.5,0-0.9-0.3-1.1,0.3c-0.8,1.9-1.6,3.9-1.8,6c-0.2,2.5,0.1,5,0.9,7.4h1
					c-0.7-2.3-1.1-4.6-0.9-6.9C265,302.1,265.7,299.9,266.7,297.7 M267.8,311.4c-1.6-4.7-1.3-9.2,0.7-13.7c-0.3,0.1-0.7,0.1-0.8,0.3
					c-1.1,2.4-1.9,4.9-1.8,7.6c0.1,1.7,0.4,3.3,0.7,5C266.6,311.5,266.7,311.5,267.8,311.4 M357.7,307.3c1-0.5,2-1,3-1.5
					c0.2-0.1,0.5-0.3,0.5-0.5c0-0.2-0.2-0.5-0.4-0.6c-0.9-0.5-1.9-1-2.9-1.5C357.4,304.6,357.2,305.9,357.7,307.3"/>
				<path class="st31" d="M267.9,308.2c-0.4-2-0.3-3.9,0.1-5.8c0.1-0.5,0.3-0.6,0.7-0.6c2.9,0.1,5.8,0.1,8.7,0.1
					c6.7,0.1,63.4,0.1,70.1,0.2c0.3,0,0.7,0.2,0.9,0.4c0.3,0.2,0.6,0.6,0.9,0.8c1,0.7,0.9,1.7,0.7,2.7c-0.2,0.9-0.9,1.3-1.5,1.9
					c-1,1-2.2,0.6-3.4,0.6c-3.4,0-6.8-0.1-10.2-0.1C329.3,308.3,273.6,308.3,267.9,308.2"/>
				<path class="st32" d="M268.3,300.8c0.4-1,0.7-1.9,1.1-2.8c0.1-0.2,0.4-0.3,0.5-0.3c3,0.1,5.9,0.2,8.9,0.3
					c2.1,0.1,54.2,0.1,56.3,0.2c3.3,0.1,6.6,0.2,9.9,0.3c1.3,0,2.6,0,4,0.1c0.5,0,0.9,0.3,1.3,0.4c-0.5,1.3-1.6,2.1-2.8,2.1
					c-5.3,0-60.6-0.1-65.9-0.1c-4.2,0-8.5-0.1-12.7-0.1C268.7,300.9,268.6,300.9,268.3,300.8"/>
				<path class="st33" d="M268.1,309.2c3.6,0,7.1,0,10.6,0c3.2,0,56.3,0.1,59.5,0.1c3.2,0,6.4,0.1,9.6,0.1c0.2,0,0.3,0,0.5,0.1
					c0.4,0.3,0.8,0.5,1.1,0.9c0.2,0.2,0.4,0.5,0.6,0.8c-0.3,0.2-0.7,0.4-1,0.5c-1.7,0-3.3,0-5,0c-5.1,0-60.1-0.1-65.2-0.1
					c-3.1,0-6.3-0.1-9.4-0.1c-0.4,0-0.6-0.1-0.7-0.5C268.4,310.4,268.2,309.8,268.1,309.2"/>
				<path class="st34" d="M263.8,311.3c-1.1,0-2,0-3,0c-0.1,0-0.3-0.1-0.4-0.2c-1.7-2.4-2.3-4.9-1.9-7.8c0.2-1.8,0.8-3.4,1.8-4.9
					c0.5-0.7,1-1.1,1.9-1c0.8,0.1,1.6,0.1,2.5,0.2C262.6,302.1,262.2,306.6,263.8,311.3"/>
				<path class="st35" d="M356.8,307.8c-1.9,1-3.9,2-5.9,3c-0.7-0.7-1.4-1.3-2.2-2c1.5-0.6,2.1-1.8,2.3-3.4c0.3-1.7-0.8-2.7-1.9-3.5
					c0.7-0.7,1.4-1.4,2.1-2.2c1.9,1,3.9,2.1,5.8,3.1c-0.2,0.9-0.5,1.7-0.5,2.5C356.5,306.1,356.7,306.9,356.8,307.8"/>
				<path class="st36" d="M266.7,297.7c-1,2.2-1.7,4.5-1.9,6.8c-0.2,2.3,0.2,4.6,0.9,6.9h-1c-0.8-2.4-1.2-4.9-0.9-7.4
					c0.2-2.1,0.9-4.1,1.8-6C265.8,297.4,266.2,297.7,266.7,297.7"/>
				<path class="st36" d="M267.8,311.4c-1.1,0.1-1.1,0.1-1.3-0.8c-0.3-1.7-0.7-3.3-0.7-5c-0.1-2.7,0.7-5.2,1.8-7.6
					c0.1-0.2,0.5-0.3,0.8-0.3C266.5,302.2,266.1,306.7,267.8,311.4"/>
				<path class="st37" d="M357.7,307.3c-0.6-1.4-0.4-2.7,0.2-4c1,0.5,1.9,1,2.9,1.5c0.2,0.1,0.4,0.4,0.4,0.6c0,0.2-0.3,0.4-0.5,0.5
					C359.8,306.3,358.8,306.8,357.7,307.3"/>
			</g>
		</g>
	</g>
</g>
<g id="A2">
	<g>
		<g>
			<defs>
				<rect id="SVGID_23_" x="33.8" y="27" width="208.1" height="135"/>
			</defs>
			<clipPath id="SVGID_24_">
				<use xlink:href="#SVGID_23_"  style="overflow:visible;"/>
			</clipPath>
			<g class="st38">
				<defs>
					<rect id="SVGID_25_" x="33.8" y="27" width="208.1" height="135"/>
				</defs>
				<clipPath id="SVGID_26_">
					<use xlink:href="#SVGID_25_"  style="overflow:visible;"/>
				</clipPath>
				<path class="st39" d="M202.2,152.7H73.5c-10,0-18.1-8.1-18.1-18.1V54.4c0-10,8.1-18.1,18.1-18.1h128.7c10,0,18.1,8.1,18.1,18.1
					v80.1C220.3,144.6,212.2,152.7,202.2,152.7"/>
			</g>
			<g class="st38">
				<defs>
					<path id="SVGID_27_" d="M73.5,36.3c-10,0-18.1,8.1-18.1,18.1v80.1c0,10,8.1,18.1,18.1,18.1h128.7c10,0,18.1-8.1,18.1-18.1V54.4
						c0-10-8.1-18.1-18.1-18.1H73.5z"/>
				</defs>
				<clipPath id="SVGID_28_">
					<use xlink:href="#SVGID_27_"  style="overflow:visible;"/>
				</clipPath>
				<rect x="49.9" y="33.1" class="st40" width="23.7" height="22"/>
				<rect x="201" y="33.1" class="st40" width="23.7" height="22"/>
				<rect x="49.9" y="134.7" class="st40" width="23.7" height="22"/>
				<rect x="201" y="134.7" class="st40" width="23.7" height="22"/>
			</g>
			<g class="st38">
				<defs>
					<rect id="SVGID_29_" x="33.8" y="27" width="208.1" height="135"/>
				</defs>
				<clipPath id="SVGID_30_">
					<use xlink:href="#SVGID_29_"  style="overflow:visible;"/>
				</clipPath>
				<path class="st41" d="M203.2,148.9H72.4c-7.7,0-14-6.3-14-14V54.2c0-7.7,6.3-14,14-14h130.9c7.7,0,14,6.3,14,14v80.7
					C217.3,142.6,211,148.9,203.2,148.9"/>
				<path class="st42" d="M203.2,148.9H72.4c-7.7,0-14-6.3-14-14V54.2c0-7.7,6.3-14,14-14h130.9c7.7,0,14,6.3,14,14v80.7
					C217.3,142.6,211,148.9,203.2,148.9z"/>
			</g>
		</g>
	</g>
</g>
<g id="A1">
	<g>
		<g>
			<defs>
				<rect id="SVGID_31_" x="311.5" y="-11" width="323.5" height="203"/>
			</defs>
			<clipPath id="SVGID_32_">
				<use xlink:href="#SVGID_31_"  style="overflow:visible;"/>
			</clipPath>
			<path class="st43" d="M619.9,158.2V11.5H326v146.7h-5.1v11.3h304.7v-11.3H619.9z M331.7,16.7h282.5v141.5H331.7V16.7z"/>
			<path class="st44" d="M619.9,158.2V11.5H326v146.7h-5.1v11.3h304.7v-11.3H619.9z M331.7,16.7h282.5v141.5H331.7V16.7z"/>
			<rect x="330.6" y="15.5" class="st45" width="284.6" height="143.7"/>
		</g>
	</g>
</g>
</svg>
