<?xml version="1.0" encoding="utf-8"?>
<!-- Generator: Adobe Illustrator 21.0.0, SVG Export Plug-In . SVG Version: 6.00 Build 0)  -->
<svg version="1.1" xmlns="http://www.w3.org/2000/svg" xmlns:xlink="http://www.w3.org/1999/xlink" x="0px" y="0px"
	 viewBox="0 0 690 500" style="enable-background:new 0 0 690 500;" xml:space="preserve">
<style type="text/css">
	.st0{display:none;}
	.st1{display:inline;opacity:0.5;}
	.st2{filter:url(#Adobe_OpacityMaskFilter);}
	.st3{clip-path:url(#SVGID_3_);}
	.st4{clip-path:url(#SVGID_5_);}
	.st5{clip-path:url(#SVGID_5_);fill:#377AFA;}
	.st6{clip-path:url(#SVGID_5_);fill:#FAEF53;}
	.st7{clip-path:url(#SVGID_5_);fill:#9FDE51;}
	.st8{clip-path:url(#SVGID_5_);fill:#EC4774;}
	.st9{clip-path:url(#SVGID_5_);fill:#FFAC44;}
	.st10{clip-path:url(#SVGID_5_);fill:#5F2A86;}
	.st11{clip-path:url(#SVGID_5_);fill:#B288D1;}
	.st12{clip-path:url(#SVGID_7_);}
	.st13{clip-path:url(#SVGID_9_);}
	.st14{clip-path:url(#SVGID_9_);fill:#377AFA;}
	.st15{clip-path:url(#SVGID_9_);fill:#FAEF53;}
	.st16{clip-path:url(#SVGID_9_);fill:#9FDE51;}
	.st17{clip-path:url(#SVGID_9_);fill:#EC4774;}
	.st18{clip-path:url(#SVGID_9_);fill:#FFAC44;}
	.st19{clip-path:url(#SVGID_9_);fill:#5F2A86;}
	.st20{clip-path:url(#SVGID_9_);fill:#B288D1;}
	.st21{fill:#D83D3D;stroke:#000000;stroke-miterlimit:10;}
	.st22{clip-path:url(#SVGID_11_);}
	.st23{clip-path:url(#SVGID_13_);fill:#FFE8D0;}
	.st24{clip-path:url(#SVGID_13_);}
	.st25{clip-path:url(#SVGID_15_);}
	.st26{clip-path:url(#SVGID_17_);fill:#FFE8D0;}
	.st27{clip-path:url(#SVGID_17_);}
	.st28{clip-path:url(#SVGID_19_);}
	.st29{clip-path:url(#SVGID_21_);fill:#FFE8D0;}
	.st30{clip-path:url(#SVGID_21_);}
	.st31{clip-path:url(#SVGID_23_);}
	.st32{clip-path:url(#SVGID_25_);fill:#FFE8D0;}
	.st33{clip-path:url(#SVGID_25_);}
	.st34{clip-path:url(#SVGID_27_);}
	.st35{clip-path:url(#SVGID_29_);fill:#FFE8D0;}
	.st36{clip-path:url(#SVGID_29_);fill:#FFFFFF;}
	.st37{clip-path:url(#SVGID_29_);}
	.st38{clip-path:url(#SVGID_31_);}
	.st39{clip-path:url(#SVGID_33_);fill:#FFE8D0;}
	.st40{clip-path:url(#SVGID_33_);fill:#FFFFFF;}
	.st41{clip-path:url(#SVGID_33_);}
	.st42{clip-path:url(#SVGID_35_);}
	.st43{clip-path:url(#SVGID_37_);}
	.st44{clip-path:url(#SVGID_37_);fill:#FFE8D0;}
	.st45{clip-path:url(#SVGID_39_);}
	.st46{clip-path:url(#SVGID_41_);}
	.st47{clip-path:url(#SVGID_41_);fill:#FFE8D0;}
	.st48{clip-path:url(#SVGID_43_);}
	.st49{clip-path:url(#SVGID_45_);fill:#F8D3BA;}
	.st50{clip-path:url(#SVGID_47_);}
	.st51{clip-path:url(#SVGID_49_);fill:#F8D3BA;}
	.st52{clip-path:url(#SVGID_51_);}
	.st53{clip-path:url(#SVGID_53_);fill:#ECECEC;}
	.st54{clip-path:url(#SVGID_53_);fill:#514234;}
	.st55{clip-path:url(#SVGID_53_);}
	.st56{clip-path:url(#SVGID_55_);}
	.st57{clip-path:url(#SVGID_57_);fill:#ECECEC;}
	.st58{clip-path:url(#SVGID_57_);fill:#514234;}
	.st59{clip-path:url(#SVGID_57_);}
	.st60{clip-path:url(#SVGID_59_);}
	.st61{clip-path:url(#SVGID_61_);fill:#514234;}
	.st62{clip-path:url(#SVGID_61_);}
	.st63{clip-path:url(#SVGID_63_);}
	.st64{clip-path:url(#SVGID_65_);fill:#514234;}
	.st65{clip-path:url(#SVGID_65_);}
	.st66{clip-path:url(#SVGID_67_);}
	.st67{clip-path:url(#SVGID_69_);fill:#ECECEC;}
	.st68{clip-path:url(#SVGID_69_);fill:#FFFFFF;}
	.st69{clip-path:url(#SVGID_69_);fill:#514234;}
	.st70{clip-path:url(#SVGID_69_);}
	.st71{clip-path:url(#SVGID_71_);}
	.st72{clip-path:url(#SVGID_73_);fill:#ECECEC;}
	.st73{clip-path:url(#SVGID_73_);fill:#FFFFFF;}
	.st74{clip-path:url(#SVGID_73_);fill:#514234;}
	.st75{clip-path:url(#SVGID_73_);}
	.st76{display:inline;fill:#D83D3D;stroke:#000000;stroke-miterlimit:10;}
	#FACE2,#FACE,#NOSE,#NOSE2,#MOUTH,#MOUTH2,#EARS,#EARS2,#CHEEKS,#CHEEKS2,#EYEBROWS,#EYEBROWS2,#HAIR,#HAIR2,#EYES,#EYES2 { opacity: 0}
</style>
<g id="BG">
	<rect x="208.3" y="58.4" class="st76" width="91.7" height="91.7"/>
	<rect x="315.2" y="162.4" class="st76" width="91.7" height="91.7"/>
	<rect x="100.3" y="58.3" class="st76" width="91.7" height="91.7"/>
	<rect x="209.4" y="266.5" class="st76" width="91.7" height="91.7"/>
	<rect x="418.9" y="58.3" class="st76" width="91.7" height="91.7"/>
	<rect x="315.2" y="266.5" class="st76" width="91.7" height="91.7"/>
	<rect x="315.2" y="372" class="st76" width="91.7" height="91.7"/>
	<rect x="209.4" y="371.1" class="st76" width="91.7" height="91.7"/>
	<rect x="315.2" y="58.4" class="st76" width="91.7" height="91.7"/>
	<rect x="100.3" y="371.1" class="st76" width="91.7" height="91.7"/>
	<rect x="100.3" y="162.4" class="st76" width="91.7" height="91.7"/>
	<rect x="418.9" y="162.4" class="st76" width="91.7" height="91.7"/>
	<rect x="209.4" y="162.4" class="st76" width="91.7" height="91.7"/>
	<rect x="418.9" y="267.4" class="st76" width="91.7" height="91.7"/>
	<rect x="418.9" y="372.4" class="st76" width="91.7" height="91.7"/>
	<rect x="100.3" y="266.8" class="st76" width="91.7" height="91.7"/>
</g>
<g id="BALL2">
	<g>
		<g>
			<defs>
				<rect id="SVGID_2_" x="15" y="403.2" width="75.7" height="79.8"/>
			</defs>
			<clipPath id="SVGID_3_">
				<use xlink:href="#SVGID_2_"  style="overflow:visible;"/>
			</clipPath>
			<g class="st3">
				<defs>
					<rect id="SVGID_4_" x="15" y="403.2" width="75.7" height="79.8"/>
				</defs>
				<clipPath id="SVGID_5_">
					<use xlink:href="#SVGID_4_"  style="overflow:visible;"/>
				</clipPath>
				<path class="st4" d="M50.7,474.3c-1.5-0.3-3-0.4-4.5-0.8c-9.6-2.2-16.7-7.7-21.1-16.4c-9.2-18.5,1.5-40.4,22-44.4
					c6.2-1.2,12.3-0.6,18.1,2c10.5,4.9,16.8,13.1,18.4,24.6c2.3,16.6-9.8,32.3-26.3,34.6c-0.8,0.1-1.5,0.3-2.3,0.4H50.7z
					 M77.9,459.1c0.2-0.4,0.4-0.6,0.6-0.9c6.7-11.2,5.1-25.9-4-35.3c-2.8-2.9-1.7-2.4-5.6-2.1C60,421.4,52,424.5,45,430
					c-1,0.8-1.9,1.6-2.8,2.4c2.2,2.1,2.1,2.1,3.4,5.3c0.1,0.3,0.6,0.5,0.9,0.6c1.6,0.5,3.3,0.9,4.8,1.5c9.5,3.7,17.5,9.6,24.5,16.9
					C76.5,457.6,77.2,458.3,77.9,459.1 M45.8,439.1c-1.2,3.2-1.5,3.8-2.8,4.7c-0.6,0.4-0.6,0.8-0.3,1.4c1.3,2.6,2.4,5.3,3.7,7.8
					c3.5,6.7,8.2,12.6,12.7,18.6c0.4,0.5,0.8,0.4,1.3,0.3c4.8-1.3,9-3.6,12.6-6.9c1.8-1.6,3.3-3.4,4.7-5.5
					C68.7,450,58.6,442.5,45.8,439.1 M58.8,472.3c-0.2-0.4-0.3-0.5-0.4-0.7c-1.2-1.6-2.4-3.2-3.6-4.7c-5.2-6.6-10.1-13.4-13.2-21.3
					c-0.2-0.6-0.5-0.6-1-0.5c-1.8,0.5-3.5,0.4-5.1-0.7c-0.5-0.4-0.9-0.3-1.2,0.4c-0.9,2.2-2,4.4-2.8,6.6c-1,2.6-1.7,5.3-2.6,8
					c-0.3,0.8-0.1,1.3,0.4,2c6.4,8,14.8,11.9,25,11.6C55.7,472.8,57.2,472.5,58.8,472.3 M71.7,420.1c-1.2-0.9-2.3-1.7-3.3-2.4
					c-0.8-0.5-1.7-1-2.7-1.4c-9.5-4.3-18.8-3.9-27.9,1.2c-0.4,0.2-0.8,0.7-0.8,1.1c-0.4,4.2-0.4,8.3,0.2,12.4
					c0.1,0.5,0.3,0.7,0.8,0.6c0.8,0,1.6,0,2.4,0.2c0.7,0.2,1.1,0,1.5-0.4c6.6-5.9,14.3-9.3,22.9-10.6
					C67.1,420.5,69.2,420.4,71.7,420.1 M23.4,444.2c2.2-2.4,4.7-4.4,7.6-5.8c0.6-0.3,0.9-0.7,1-1.3c0.4-2,1.5-3.6,3.3-4.6
					c0.9-0.5,1-1.1,0.9-2c-0.1-2.1-0.2-4.1-0.2-6.2c0-1.8,0.2-3.7,0.3-5.5C29.5,421.2,21.9,436.1,23.4,444.2 M28,459.5
					c0.2-0.2,0.3-0.2,0.3-0.3c0.8-3.3,1.7-6.6,3.2-9.8c0.8-1.7,1.4-3.6,2.1-5.4c0.1-0.3,0.2-0.7,0.1-0.9c-0.7-1.3-1.4-2.5-2.1-3.9
					c0,0-0.2,0-0.4,0.1c-2.9,1.3-5.5,3.2-7.6,5.6c-0.3,0.3-0.4,0.9-0.3,1.3c0.5,3.8,1.3,7.4,3.3,10.7C27,457.9,27.5,458.7,28,459.5
					 M38.1,444.2c3.5-0.1,6.1-2.6,6-6c-0.1-3.3-2.7-5.9-6-5.8c-3.3,0.1-5.8,2.7-5.8,6.1C32.3,441.6,35.4,444.6,38.1,444.2"/>
				<path class="st5" d="M77.9,459.1c-0.7-0.8-1.4-1.5-2.1-2.3c-7-7.3-15-13.3-24.5-16.9c-1.6-0.6-3.2-1-4.8-1.5
					c-0.3-0.1-0.8-0.3-0.9-0.6c-1.2-3.3-1.2-3.3-3.4-5.3c0.9-0.8,1.8-1.6,2.8-2.4c7-5.6,15-8.6,23.9-9.3c3.9-0.3,2.9-0.8,5.6,2.1
					c9,9.5,10.6,24.1,4,35.3C78.3,458.5,78.2,458.7,77.9,459.1"/>
				<path class="st6" d="M45.8,439.1c12.8,3.3,22.9,10.9,31.9,20.3c-1.3,2.1-2.9,3.9-4.7,5.5c-3.6,3.4-7.8,5.7-12.6,6.9
					c-0.5,0.1-0.9,0.2-1.3-0.3c-4.5-6-9.2-11.9-12.7-18.6c-1.4-2.5-2.5-5.2-3.7-7.8c-0.3-0.6-0.3-0.9,0.3-1.4
					C44.3,442.9,44.6,442.4,45.8,439.1"/>
				<path class="st7" d="M58.8,472.3c-1.6,0.2-3.1,0.5-4.5,0.5c-10.2,0.3-18.6-3.6-25-11.6c-0.5-0.6-0.7-1.2-0.4-2
					c0.9-2.6,1.7-5.3,2.6-8c0.8-2.2,1.9-4.4,2.8-6.6c0.3-0.7,0.6-0.7,1.2-0.4c1.6,1.1,3.3,1.2,5.1,0.7c0.5-0.1,0.8-0.1,1,0.5
					c3.1,7.9,8,14.7,13.2,21.3c1.2,1.6,2.4,3.1,3.6,4.7C58.5,471.8,58.6,472,58.8,472.3"/>
				<path class="st8" d="M71.7,420.1c-2.4,0.2-4.6,0.4-6.8,0.7c-8.7,1.3-16.4,4.7-22.9,10.6c-0.5,0.4-0.9,0.6-1.5,0.4
					c-0.8-0.2-1.6-0.2-2.4-0.2c-0.5,0-0.8-0.1-0.8-0.6c-0.6-4.1-0.6-8.3-0.2-12.4c0-0.4,0.4-0.9,0.8-1.1c9.1-5.1,18.4-5.5,27.9-1.2
					c0.9,0.4,1.8,0.9,2.7,1.4C69.4,418.4,70.4,419.2,71.7,420.1"/>
				<path class="st9" d="M28,459.5c-0.5-0.9-1-1.7-1.4-2.4c-1.9-3.3-2.8-7-3.3-10.7c-0.1-0.4,0-1,0.3-1.3c2.1-2.5,4.7-4.3,7.6-5.6
					c0.2-0.1,0.4-0.1,0.4-0.1c0.7,1.3,1.5,2.6,2.1,3.9c0.1,0.2,0,0.6-0.1,0.9c-0.7,1.8-1.3,3.7-2.1,5.4c-1.5,3.1-2.4,6.4-3.2,9.8
					C28.2,459.3,28.1,459.3,28,459.5"/>
				<path class="st10" d="M38.1,444.2c-2.8,0.3-5.9-2.7-5.8-5.8c0-3.3,2.5-6,5.8-6.1c3.3-0.1,6,2.5,6,5.8
					C44.2,441.6,41.6,444.2,38.1,444.2"/>
				<path class="st11" d="M36,424.3c0-1.8,0.2-3.7,0.3-5.5c-6.8,2.4-14.4,17.3-13,25.4c2.2-2.4,4.7-4.4,7.6-5.8
					c0.6-0.3,0.9-0.7,1-1.3c0.4-2,1.5-3.6,3.3-4.6c0.9-0.5,1-1.1,0.9-2C36,428.5,36,426.4,36,424.3"/>
			</g>
		</g>
	</g>
</g>
<g id="BALL1">
	<g>
		<g>
			<defs>
				<rect id="SVGID_6_" x="522.2" y="403.2" width="75.7" height="79.8"/>
			</defs>
			<clipPath id="SVGID_7_">
				<use xlink:href="#SVGID_6_"  style="overflow:visible;"/>
			</clipPath>
			<g class="st12">
				<defs>
					<rect id="SVGID_8_" x="522.2" y="403.2" width="75.7" height="79.8"/>
				</defs>
				<clipPath id="SVGID_9_">
					<use xlink:href="#SVGID_8_"  style="overflow:visible;"/>
				</clipPath>
				<path class="st13" d="M557.9,474.3c-1.5-0.3-3-0.4-4.5-0.8c-9.6-2.2-16.7-7.7-21.1-16.4c-9.2-18.5,1.5-40.4,22-44.4
					c6.2-1.2,12.3-0.6,18.1,2c10.5,4.9,16.8,13.1,18.4,24.6c2.3,16.6-9.8,32.3-26.3,34.6c-0.8,0.1-1.5,0.3-2.3,0.4H557.9z
					 M585.1,459.1c0.2-0.4,0.4-0.6,0.6-0.9c6.7-11.2,5.1-25.9-4-35.3c-2.8-2.9-1.7-2.4-5.6-2.1c-8.9,0.7-16.9,3.7-23.9,9.3
					c-1,0.8-1.9,1.6-2.8,2.4c2.2,2.1,2.1,2.1,3.4,5.3c0.1,0.3,0.6,0.5,0.9,0.6c1.6,0.5,3.3,0.9,4.8,1.5c9.5,3.7,17.5,9.6,24.5,16.9
					C583.7,457.6,584.4,458.3,585.1,459.1 M553,439.1c-1.2,3.2-1.5,3.8-2.8,4.7c-0.6,0.4-0.6,0.8-0.3,1.4c1.3,2.6,2.4,5.3,3.7,7.8
					c3.5,6.7,8.2,12.6,12.7,18.6c0.4,0.5,0.8,0.4,1.3,0.3c4.8-1.3,9-3.6,12.6-6.9c1.8-1.6,3.3-3.4,4.7-5.5
					C575.9,450,565.8,442.5,553,439.1 M566,472.3c-0.2-0.4-0.3-0.5-0.4-0.7c-1.2-1.6-2.4-3.2-3.6-4.7c-5.2-6.6-10.1-13.4-13.2-21.3
					c-0.2-0.6-0.5-0.6-1-0.5c-1.8,0.5-3.5,0.4-5.1-0.7c-0.5-0.4-0.9-0.3-1.2,0.4c-0.9,2.2-2,4.4-2.8,6.6c-1,2.6-1.7,5.3-2.6,8
					c-0.3,0.8-0.1,1.3,0.4,2c6.4,8,14.8,11.9,25,11.6C562.9,472.8,564.4,472.5,566,472.3 M578.9,420.1c-1.2-0.9-2.3-1.7-3.3-2.4
					c-0.8-0.5-1.7-1-2.7-1.4c-9.5-4.3-18.8-3.9-27.9,1.2c-0.4,0.2-0.8,0.7-0.8,1.1c-0.4,4.2-0.4,8.3,0.2,12.4
					c0.1,0.5,0.3,0.7,0.8,0.6c0.8,0,1.6,0,2.4,0.2c0.7,0.2,1.1,0,1.5-0.4c6.6-5.9,14.3-9.3,22.9-10.6
					C574.3,420.5,576.4,420.4,578.9,420.1 M530.5,444.2c2.2-2.4,4.7-4.4,7.6-5.8c0.6-0.3,0.9-0.7,1-1.3c0.4-2,1.5-3.6,3.3-4.6
					c0.9-0.5,1-1.1,0.9-2c-0.1-2.1-0.2-4.1-0.2-6.2c0-1.8,0.2-3.7,0.3-5.5C536.7,421.2,529.1,436.1,530.5,444.2 M535.2,459.5
					c0.2-0.2,0.3-0.2,0.3-0.3c0.8-3.3,1.7-6.6,3.2-9.8c0.8-1.7,1.4-3.6,2.1-5.4c0.1-0.3,0.2-0.7,0.1-0.9c-0.7-1.3-1.4-2.5-2.1-3.9
					c0,0-0.2,0-0.4,0.1c-2.9,1.3-5.5,3.2-7.6,5.6c-0.3,0.3-0.4,0.9-0.3,1.3c0.5,3.8,1.3,7.4,3.3,10.7
					C534.2,457.9,534.6,458.7,535.2,459.5 M545.3,444.2c3.5-0.1,6.1-2.6,6-6c-0.1-3.3-2.7-5.9-6-5.8c-3.3,0.1-5.8,2.7-5.8,6.1
					C539.4,441.6,542.6,444.6,545.3,444.2"/>
				<path class="st14" d="M585.1,459.1c-0.7-0.8-1.4-1.5-2.1-2.3c-7-7.3-15-13.3-24.5-16.9c-1.6-0.6-3.2-1-4.8-1.5
					c-0.3-0.1-0.8-0.3-0.9-0.6c-1.2-3.3-1.2-3.3-3.4-5.3c0.9-0.8,1.8-1.6,2.8-2.4c7-5.6,15-8.6,23.9-9.3c3.9-0.3,2.9-0.8,5.6,2.1
					c9,9.5,10.6,24.1,4,35.3C585.5,458.5,585.3,458.7,585.1,459.1"/>
				<path class="st15" d="M553,439.1c12.8,3.3,22.9,10.9,31.9,20.3c-1.3,2.1-2.9,3.9-4.7,5.5c-3.6,3.4-7.8,5.7-12.6,6.9
					c-0.5,0.1-0.9,0.2-1.3-0.3c-4.5-6-9.2-11.9-12.7-18.6c-1.4-2.5-2.5-5.2-3.7-7.8c-0.3-0.6-0.3-0.9,0.3-1.4
					C551.5,442.9,551.8,442.4,553,439.1"/>
				<path class="st16" d="M566,472.3c-1.6,0.2-3.1,0.5-4.5,0.5c-10.2,0.3-18.6-3.6-25-11.6c-0.5-0.6-0.7-1.2-0.4-2
					c0.9-2.6,1.7-5.3,2.6-8c0.8-2.2,1.9-4.4,2.8-6.6c0.3-0.7,0.6-0.7,1.2-0.4c1.6,1.1,3.3,1.2,5.1,0.7c0.5-0.1,0.8-0.1,1,0.5
					c3.1,7.9,8,14.7,13.2,21.3c1.2,1.6,2.4,3.1,3.6,4.7C565.7,471.8,565.8,472,566,472.3"/>
				<path class="st17" d="M578.9,420.1c-2.4,0.2-4.6,0.4-6.8,0.7c-8.7,1.3-16.4,4.7-22.9,10.6c-0.5,0.4-0.9,0.6-1.5,0.4
					c-0.8-0.2-1.6-0.2-2.4-0.2c-0.5,0-0.8-0.1-0.8-0.6c-0.6-4.1-0.6-8.3-0.2-12.4c0-0.4,0.4-0.9,0.8-1.1c9.1-5.1,18.4-5.5,27.9-1.2
					c0.9,0.4,1.8,0.9,2.7,1.4C576.6,418.4,577.6,419.2,578.9,420.1"/>
				<path class="st18" d="M535.2,459.5c-0.5-0.9-1-1.7-1.4-2.4c-1.9-3.3-2.8-7-3.3-10.7c-0.1-0.4,0-1,0.3-1.3
					c2.1-2.5,4.7-4.3,7.6-5.6c0.2-0.1,0.4-0.1,0.4-0.1c0.7,1.3,1.5,2.6,2.1,3.9c0.1,0.2,0,0.6-0.1,0.9c-0.7,1.8-1.3,3.7-2.1,5.4
					c-1.5,3.1-2.4,6.4-3.2,9.8C535.4,459.3,535.3,459.3,535.2,459.5"/>
				<path class="st19" d="M545.3,444.2c-2.8,0.3-5.9-2.7-5.8-5.8c0-3.3,2.5-6,5.8-6.1c3.3-0.1,6,2.5,6,5.8
					C551.4,441.6,548.8,444.2,545.3,444.2"/>
				<path class="st20" d="M543.2,424.3c0-1.8,0.2-3.7,0.3-5.5c-6.8,2.4-14.4,17.3-13,25.4c2.2-2.4,4.7-4.4,7.6-5.8
					c0.6-0.3,0.9-0.7,1-1.3c0.4-2,1.5-3.6,3.3-4.6c0.9-0.5,1-1.1,0.9-2C543.2,428.5,543.1,426.4,543.2,424.3"/>
			</g>
		</g>
	</g>
</g>
<g id="FACE2">
	<rect x="208" y="58.2" class="st21" width="91.7" height="91.7"/>
	<g>
		<g>
			<defs>
				<rect id="SVGID_10_" x="206.5" y="34.8" width="94.8" height="115.1"/>
			</defs>
			<clipPath id="SVGID_11_">
				<use xlink:href="#SVGID_10_"  style="overflow:visible;"/>
			</clipPath>
			<g class="st22">
				<defs>
					<rect id="SVGID_12_" x="206.5" y="34.8" width="94.8" height="115.1"/>
				</defs>
				<clipPath id="SVGID_13_">
					<use xlink:href="#SVGID_12_"  style="overflow:visible;"/>
				</clipPath>
				<path class="st23" d="M276.7,97.5c0-0.1,0.1-0.2,0.1-0.3c0,0,0,0,0.1,0c-0.2-0.5-0.4-1.1-0.4-1.6c-0.1-0.7-0.1-1.5-0.1-2.3
					c0-0.4,0-0.8,0-1.2c0-0.2,0.2-0.9,0.1-1.1c0,0,0,0,0,0c-0.1-0.1-0.2-0.2-0.2-0.3c0-0.4,0-0.8,0.1-1.1c0.3-1.9,0.7-3.9,0.6-5.9
					c0-0.4-0.1-0.8-0.1-1.1c-0.5,0.2-0.9,0.5-1.3,0.7c-0.2,0.1-0.5,0-0.6-0.1c-0.1-0.1-0.1-0.4,0-0.6c0.1-0.3,0.2-0.7,0.3-0.9
					c-0.4,0.3-0.8,0.7-1.3,1.1c-0.1,0.1-0.4,0.2-0.5,0.1c-0.1-0.1-0.3-0.3-0.3-0.4c0-1.3-0.4-2.5-1-3.7c-0.6-1.2-1.5-2-2.6-2.5
					c-0.1,0.3-0.1,0.6-0.2,0.9c-0.4,1.2-1.2,2.1-2.1,2.9c-0.7,0.6-1.4,0.9-2.3,1.1c-0.5,0.1-0.7-0.1-0.6-0.6c0-0.1,0-0.2,0-0.4
					c-0.7,1.5-1.8,2.6-3.2,3.3c-0.9,0.4-1.8,0.8-2.7,1.2c-0.1,0.1-0.4,0-0.5-0.1c-0.1-0.1-0.1-0.3-0.1-0.5c0-0.4,0.1-0.7,0.2-1.1
					c0-0.3,0-0.7,0-1c-1,0.9-1.9,1.9-2.3,3.2c-0.1,0.3-0.2,0.6-0.3,0.8c-0.1,0.1-0.3,0.3-0.4,0.3c-0.1,0-0.3-0.1-0.4-0.3
					c-0.1-0.2-0.2-0.5-0.3-0.7c-0.8-2.3-1.8-4.4-3.6-6.1c-1-1-1.5-1.1-2.7-0.4c-0.1,0.1-0.2,0.1-0.3,0.2c-0.5,0.3-0.9,0.6-1.4,0.9
					c-0.4,0.2-0.7,0.1-0.9-0.3c-0.1-0.3-0.2-0.6-0.4-1c-0.2,0.2-0.4,0.3-0.5,0.4c-0.3,0.4-0.6,0.8-0.9,1.3c-0.3,0.4-0.6,0.5-0.9,0.1
					c-0.2-0.3-0.5-0.6-0.7-1c-0.3-0.4-0.7-0.7-1.3-0.9c-0.9-0.2-1.6-0.1-2.4,0.4c-2.3,1.4-3.8,3.3-4.7,5.8c-0.8,2.3-0.8,4.6-0.8,7
					c0,0.9,0,1.7,0,2.6c0,0.1-0.1,0.2-0.2,0.3c0,0,0,0,0,0l0,1.2l-0.2,4.7c0,0.1,0.1,0.2,0.1,0.3c0,0.5-0.1,0.9-0.1,1.4
					c0,1.2-0.1,2.5-0.1,3.7l0.1,1.3c0,0,0-0.1,0-0.1c0.2,2.2,1,4.1,2.3,5.9c0.6,0.9,1.3,1.7,2,2.5c1.3,1.4,2.5,2.8,3.9,4
					c2.7,2.2,5.6,4.1,8.6,5.8c2.5,1.4,5.2,2.5,8.1,2.8c1.6,0.2,3.2-0.1,4.7-0.8c2.6-1.4,5-3.1,7-5.3c1.7-1.8,3.3-3.5,4.9-5.3
					c1.9-2.1,3-4.6,3.5-7.4c0.4-2.4,0.2-4.7-0.1-7.1C277.3,100.6,277,99,276.7,97.5"/>
				<path class="st24" d="M277.8,106.6c0,0.9-0.1,1.7-0.2,2.6c-0.5,2.8-1.6,5.3-3.5,7.4c0,0-0.1,0.1-0.1,0.1
					c-1.6,1.8-3.2,3.5-4.8,5.2c-2,2.2-4.4,3.9-7,5.3c-1.5,0.8-3,1-4.7,0.8c-2.9-0.3-5.6-1.4-8.1-2.8c-3-1.7-5.9-3.6-8.6-5.8
					c-0.6-0.5-1.1-1-1.7-1.6c-0.8-0.8-1.5-1.6-2.2-2.4c-0.7-0.8-1.4-1.7-2-2.5c-0.7-0.9-1.2-1.9-1.6-2.9c-0.4-0.9-0.6-1.8-0.7-2.8
					l0,0l-0.5,1.5c0,0,0,0,0,0c0.4,0.9,0.7,1.7,1.2,2.6c1.5,2.9,3.6,5.3,6,7.5c2.6,2.5,5.7,4.5,8.8,6.4c2.4,1.4,5,2.6,7.8,3.2
					c1.3,0.3,2.7,0.5,4.1,0.2c1.8-0.4,3.4-1.2,4.9-2.2c2-1.4,3.9-3,5.6-4.8c1.3-1.4,2.7-2.7,3.9-4.1c2-2.3,3.4-4.9,3.9-7.9
					c0.1-0.7,0.2-1.4,0.3-2.2C278.3,107.2,278,106.9,277.8,106.6"/>
			</g>
		</g>
	</g>
</g>
<g id="FACE">
	<rect x="314.9" y="162.2" class="st21" width="91.7" height="91.7"/>
	<g>
		<g>
			<defs>
				<rect id="SVGID_14_" x="313.3" y="142.1" width="94.8" height="115.1"/>
			</defs>
			<clipPath id="SVGID_15_">
				<use xlink:href="#SVGID_14_"  style="overflow:visible;"/>
			</clipPath>
			<g class="st25">
				<defs>
					<rect id="SVGID_16_" x="313.3" y="142.1" width="94.8" height="115.1"/>
				</defs>
				<clipPath id="SVGID_17_">
					<use xlink:href="#SVGID_16_"  style="overflow:visible;"/>
				</clipPath>
				<path class="st26" d="M383.6,204.7c0-0.1,0.1-0.2,0.1-0.3c0,0,0,0,0.1,0c-0.2-0.5-0.4-1.1-0.4-1.6c-0.1-0.7-0.1-1.5-0.1-2.3
					c0-0.4,0-0.8,0-1.2c0-0.2,0.2-0.9,0.1-1.1c0,0,0,0,0,0c-0.1-0.1-0.2-0.2-0.2-0.3c0-0.4,0-0.8,0.1-1.1c0.3-1.9,0.7-3.9,0.6-5.9
					c0-0.4-0.1-0.8-0.1-1.1c-0.5,0.2-0.9,0.5-1.3,0.7c-0.2,0.1-0.5,0-0.6-0.1c-0.1-0.1-0.1-0.4,0-0.6c0.1-0.3,0.2-0.7,0.3-0.9
					c-0.4,0.3-0.8,0.7-1.3,1.1c-0.1,0.1-0.4,0.2-0.5,0.1c-0.1-0.1-0.3-0.3-0.3-0.4c0-1.3-0.4-2.5-1-3.7c-0.6-1.2-1.5-2-2.6-2.5
					c-0.1,0.3-0.1,0.6-0.2,0.9c-0.4,1.2-1.2,2.1-2.1,2.9c-0.7,0.6-1.4,0.9-2.3,1.1c-0.5,0.1-0.7-0.1-0.6-0.6c0-0.1,0-0.2,0-0.4
					c-0.7,1.5-1.8,2.6-3.2,3.3c-0.9,0.4-1.8,0.8-2.7,1.2c-0.1,0.1-0.4,0-0.5-0.1c-0.1-0.1-0.1-0.3-0.1-0.5c0-0.4,0.1-0.7,0.2-1.1
					c0-0.3,0-0.7,0-1c-1,0.9-1.9,1.9-2.3,3.2c-0.1,0.3-0.2,0.6-0.3,0.8c-0.1,0.1-0.3,0.3-0.4,0.3c-0.1,0-0.3-0.1-0.4-0.3
					c-0.1-0.2-0.2-0.5-0.3-0.7c-0.8-2.3-1.8-4.4-3.6-6.1c-1-1-1.5-1.1-2.7-0.4c-0.1,0.1-0.2,0.1-0.3,0.2c-0.5,0.3-0.9,0.6-1.4,0.9
					c-0.4,0.2-0.7,0.1-0.9-0.3c-0.1-0.3-0.2-0.6-0.4-1c-0.2,0.2-0.4,0.3-0.5,0.4c-0.3,0.4-0.6,0.8-0.9,1.3c-0.3,0.4-0.6,0.5-0.9,0.1
					c-0.2-0.3-0.5-0.6-0.7-1c-0.3-0.4-0.7-0.7-1.3-0.9c-0.9-0.2-1.6-0.1-2.4,0.4c-2.3,1.4-3.8,3.3-4.7,5.8c-0.8,2.3-0.8,4.6-0.8,7
					c0,0.9,0,1.7,0,2.6c0,0.1-0.1,0.2-0.2,0.3c0,0,0,0,0,0l0,1.2l-0.2,4.7c0,0.1,0.1,0.2,0.1,0.3c0,0.5-0.1,0.9-0.1,1.4
					c0,1.2-0.1,2.5-0.1,3.7l0.1,1.3c0,0,0-0.1,0-0.1c0.2,2.2,1,4.1,2.3,5.9c0.6,0.9,1.3,1.7,2,2.5c1.3,1.4,2.5,2.8,3.9,4
					c2.7,2.2,5.6,4.1,8.6,5.8c2.5,1.4,5.2,2.5,8.1,2.8c1.6,0.2,3.2-0.1,4.7-0.8c2.6-1.4,5-3.1,7-5.3c1.7-1.8,3.3-3.5,4.9-5.3
					c1.9-2.1,3-4.6,3.5-7.4c0.4-2.4,0.2-4.7-0.1-7.1C384.1,207.8,383.8,206.3,383.6,204.7"/>
				<path class="st27" d="M384.7,213.9c0,0.9-0.1,1.7-0.2,2.6c-0.5,2.8-1.6,5.3-3.5,7.4c0,0-0.1,0.1-0.1,0.1
					c-1.6,1.8-3.2,3.5-4.8,5.2c-2,2.2-4.4,3.9-7,5.3c-1.5,0.8-3,1-4.7,0.8c-2.9-0.3-5.6-1.4-8.1-2.8c-3-1.7-5.9-3.6-8.6-5.8
					c-0.6-0.5-1.1-1-1.7-1.6c-0.8-0.8-1.5-1.6-2.2-2.4c-0.7-0.8-1.4-1.7-2-2.5c-0.7-0.9-1.2-1.9-1.6-2.9c-0.4-0.9-0.6-1.8-0.7-2.8
					l0,0l-0.5,1.5c0,0,0,0,0,0c0.4,0.9,0.7,1.7,1.2,2.6c1.5,2.9,3.6,5.3,6,7.5c2.6,2.5,5.7,4.5,8.8,6.4c2.4,1.4,5,2.6,7.8,3.2
					c1.3,0.3,2.7,0.5,4.1,0.2c1.8-0.4,3.4-1.2,4.9-2.2c2-1.4,3.9-3,5.6-4.8c1.3-1.4,2.7-2.7,3.9-4.1c2-2.3,3.4-4.9,3.9-7.9
					c0.1-0.7,0.2-1.4,0.3-2.2C385.2,214.4,384.9,214.2,384.7,213.9"/>
			</g>
		</g>
	</g>
</g>
<g id="NOSE2">
	<rect x="99.9" y="58.1" class="st21" width="91.7" height="91.7"/>
	<g>
		<g>
			<defs>
				<rect id="SVGID_18_" x="87.8" y="21.2" width="109.2" height="132.6"/>
			</defs>
			<clipPath id="SVGID_19_">
				<use xlink:href="#SVGID_18_"  style="overflow:visible;"/>
			</clipPath>
			<g class="st28">
				<defs>
					<rect id="SVGID_20_" x="87.8" y="21.2" width="109.2" height="132.6"/>
				</defs>
				<clipPath id="SVGID_21_">
					<use xlink:href="#SVGID_20_"  style="overflow:visible;"/>
				</clipPath>
				<path class="st29" d="M147.6,92.9l-0.2,3.8l0.9,4.4l1.5,2.8l1,1.5v1.8l-1.3,1.5l-2,1h-1.8l-2.8-0.8l-1.7-1.9v-0.8l2.5-2.5
					C143.6,103.6,143.2,93.4,147.6,92.9"/>
				<path class="st30" d="M150.3,103.9c-0.5-0.5-1-1.1-1.2-1.8c-0.8-2.1-1.4-4.2-1.3-6.5c0-0.8,0.1-1.7,0.1-2.5
					c0-0.1-0.1-0.3-0.2-0.4c-0.1,0.1-0.3,0.1-0.4,0.3c-0.1,0.2-0.1,0.4-0.2,0.6c-0.1,2.3-0.1,4.5,0.6,6.7c0.5,1.5,0.9,3,2,4.2
					c0.3,0.3,0.5,0.6,0.7,1c0.1,0.2,0.2,0.5,0.2,0.8c-0.1,0.6-0.4,1.1-0.7,1.6c-1.1,1.4-2.6,1.9-4.3,1.6c-1.6-0.2-2.9-1-3.7-2.4
					c-0.1-0.2-0.2-0.5-0.1-0.7c0.5-0.9,1-1.7,1.8-2.3c0.1-0.1,0.2-0.2,0.2-0.3c-0.1-0.1-0.3-0.2-0.4-0.2c-0.3,0.1-0.7,0.2-0.9,0.5
					c-0.5,0.6-1,1.3-1.5,2c-0.2,0.3-0.2,0.7,0,1.1c0.6,1,1.2,2,2.3,2.5c1,0.5,2.1,0.7,3.1,0.8c2.2,0,3.7-1.1,4.7-2.8
					c0.4-0.7,0.7-1.5,0.3-2.3C150.9,104.7,150.7,104.2,150.3,103.9"/>
			</g>
		</g>
	</g>
</g>
<g id="NOSE">
	<rect x="209.1" y="266.3" class="st21" width="91.7" height="91.7"/>
	<g>
		<g>
			<defs>
				<rect id="SVGID_22_" x="195.9" y="232.6" width="109.2" height="132.6"/>
			</defs>
			<clipPath id="SVGID_23_">
				<use xlink:href="#SVGID_22_"  style="overflow:visible;"/>
			</clipPath>
			<g class="st31">
				<defs>
					<rect id="SVGID_24_" x="195.9" y="232.6" width="109.2" height="132.6"/>
				</defs>
				<clipPath id="SVGID_25_">
					<use xlink:href="#SVGID_24_"  style="overflow:visible;"/>
				</clipPath>
				<path class="st32" d="M255.7,304.3l-0.2,3.8l0.9,4.4l1.5,2.8l1,1.5v1.8l-1.3,1.5l-2,1h-1.8l-2.8-0.8l-1.7-1.9v-0.8l2.5-2.5
					C251.7,315.1,251.3,304.9,255.7,304.3"/>
				<path class="st33" d="M258.4,315.3c-0.5-0.5-1-1.1-1.2-1.8c-0.8-2.1-1.4-4.2-1.3-6.5c0-0.8,0.1-1.7,0.1-2.5
					c0-0.1-0.1-0.3-0.2-0.4c-0.1,0.1-0.3,0.1-0.4,0.3c-0.1,0.2-0.1,0.4-0.2,0.6c-0.1,2.3-0.1,4.5,0.6,6.7c0.5,1.5,0.9,3,2,4.2
					c0.3,0.3,0.5,0.6,0.7,1c0.1,0.2,0.2,0.5,0.2,0.8c-0.1,0.6-0.4,1.1-0.7,1.6c-1.1,1.4-2.6,1.9-4.3,1.6c-1.6-0.2-2.9-1-3.7-2.4
					c-0.1-0.2-0.2-0.5-0.1-0.7c0.5-0.9,1-1.7,1.8-2.3c0.1-0.1,0.2-0.2,0.2-0.3c-0.1-0.1-0.3-0.2-0.4-0.2c-0.3,0.1-0.7,0.2-0.9,0.5
					c-0.5,0.6-1,1.3-1.5,2c-0.2,0.3-0.2,0.7,0,1.1c0.6,1,1.2,2,2.3,2.5c1,0.5,2.1,0.7,3.1,0.8c2.2,0,3.7-1.1,4.7-2.8
					c0.4-0.7,0.7-1.5,0.3-2.3C259,316.1,258.7,315.7,258.4,315.3"/>
			</g>
		</g>
	</g>
</g>
<g id="MOUTH2">
	<rect x="418.5" y="58.1" class="st21" width="91.7" height="91.7"/>
	<g>
		<g>
			<defs>
				<rect id="SVGID_26_" x="404.5" y="5" width="114.5" height="139.1"/>
			</defs>
			<clipPath id="SVGID_27_">
				<use xlink:href="#SVGID_26_"  style="overflow:visible;"/>
			</clipPath>
			<g class="st34">
				<defs>
					<rect id="SVGID_28_" x="404.5" y="5" width="114.5" height="139.1"/>
				</defs>
				<clipPath id="SVGID_29_">
					<use xlink:href="#SVGID_28_"  style="overflow:visible;"/>
				</clipPath>
				<path class="st35" d="M456.3,102.5c0,0,9.7-1.5,18.7-1.5c0.1,0,0.5-0.1,0.5,0c0,0.1,0,0.1,0,0.2c-0.1,0.3-0.5,0.9-0.7,1.1
					c-0.3,0.5-0.7,1-1.1,1.5c-1.1,1.3-2.3,2.4-3.8,3.1c-1.8,0.9-3.9,1.1-5.8,0.7C461,106.8,458.4,104.7,456.3,102.5
					C456.3,102.5,456.3,102.5,456.3,102.5"/>
				<path class="st36" d="M473.7,102.3c-4.1,3.4-10.5,3.9-16.4,0.6C462.8,103.9,468.2,103.6,473.7,102.3"/>
				<path class="st37" d="M454.3,101.4c-0.4-0.3-0.7-0.7-1.1-1.1c-0.2-0.2-0.5-0.3-0.7-0.1c-0.3,0.3-0.1,0.5,0.1,0.7
					c0.8,0.9,1.7,1.6,2.7,2.1c0.1,0,0.1,0.1,0.2,0.1c1.1,0.5,2.2,1,3.3,1.5c2.2,1,4.5,1.5,7,1.6c0.5,0,0.9-0.1,1.4-0.1
					c0.1,0,0.1,0,0.2,0c3.2-0.5,5.9-1.7,8.2-4c0.1-0.1,0.3-0.3,0.4-0.4c0.2-0.1,0.3-0.2,0.5-0.3c0.8-0.4,1.5-0.9,2.1-1.7
					c0.3-0.4,0.2-0.8-0.1-1c-0.3-0.2-0.6,0-0.8,0.4c-0.2,0.3-0.5,0.7-0.8,0.9c-0.5,0.3-1,0.6-1.6,0.8c-0.1,0-0.2,0.1-0.3,0.1
					c-3.5,1.1-7,1.6-10.6,1.8c-1.7,0.1-3.4,0-5.1-0.2c-1-0.1-2-0.2-3-0.4c-0.2,0-0.4-0.1-0.6-0.1
					C455.2,101.9,454.7,101.6,454.3,101.4 M473.7,102.3c-4.1,3.4-10.5,3.9-16.4,0.6C462.8,103.9,468.2,103.6,473.7,102.3"/>
			</g>
		</g>
	</g>
</g>
<g id="MOUTH">
	<rect x="314.9" y="266.3" class="st21" width="91.7" height="91.7"/>
	<g>
		<g>
			<defs>
				<rect id="SVGID_30_" x="299.8" y="215.1" width="114.5" height="139.1"/>
			</defs>
			<clipPath id="SVGID_31_">
				<use xlink:href="#SVGID_30_"  style="overflow:visible;"/>
			</clipPath>
			<g class="st38">
				<defs>
					<rect id="SVGID_32_" x="299.8" y="215.1" width="114.5" height="139.1"/>
				</defs>
				<clipPath id="SVGID_33_">
					<use xlink:href="#SVGID_32_"  style="overflow:visible;"/>
				</clipPath>
				<path class="st39" d="M351.6,312.6c0,0,9.7-1.5,18.7-1.5c0.1,0,0.5-0.1,0.5,0c0,0.1,0,0.1,0,0.2c-0.1,0.3-0.5,0.9-0.7,1.1
					c-0.3,0.5-0.7,1-1.1,1.5c-1.1,1.3-2.3,2.4-3.8,3.1c-1.8,0.9-3.9,1.1-5.8,0.7C356.3,316.9,353.8,314.9,351.6,312.6
					C351.6,312.6,351.6,312.6,351.6,312.6"/>
				<path class="st40" d="M369.1,312.5c-4.1,3.4-10.5,3.9-16.4,0.6C358.1,314,363.6,313.7,369.1,312.5"/>
				<path class="st41" d="M349.6,311.5c-0.4-0.3-0.7-0.7-1.1-1.1c-0.2-0.2-0.5-0.3-0.7-0.1c-0.3,0.3-0.1,0.5,0.1,0.7
					c0.8,0.9,1.7,1.6,2.7,2.1c0.1,0,0.1,0.1,0.2,0.1c1.1,0.5,2.2,1,3.3,1.5c2.2,1,4.5,1.5,7,1.6c0.5,0,0.9-0.1,1.4-0.1
					c0.1,0,0.1,0,0.2,0c3.2-0.5,5.9-1.7,8.2-4c0.1-0.1,0.3-0.3,0.4-0.4c0.2-0.1,0.3-0.2,0.5-0.3c0.8-0.4,1.5-0.9,2.1-1.7
					c0.3-0.4,0.2-0.8-0.1-1c-0.3-0.2-0.6,0-0.8,0.4c-0.2,0.3-0.5,0.7-0.8,0.9c-0.5,0.3-1,0.6-1.6,0.8c-0.1,0-0.2,0.1-0.3,0.1
					c-3.5,1.1-7,1.6-10.6,1.8c-1.7,0.1-3.4,0-5.1-0.2c-1-0.1-2-0.2-3-0.4c-0.2,0-0.4-0.1-0.6-0.1C350.5,312,350,311.8,349.6,311.5
					 M369.1,312.5c-4.1,3.4-10.5,3.9-16.4,0.6C358.1,314,363.6,313.7,369.1,312.5"/>
			</g>
		</g>
	</g>
</g>
<g id="EARS2">
	<rect x="314.9" y="371.8" class="st21" width="91.7" height="91.7"/>
	<g>
		<g>
			<defs>
				<rect id="SVGID_34_" x="314.5" y="354.2" width="94.8" height="115.1"/>
			</defs>
			<clipPath id="SVGID_35_">
				<use xlink:href="#SVGID_34_"  style="overflow:visible;"/>
			</clipPath>
			<g class="st42">
				<defs>
					<rect id="SVGID_36_" x="314.5" y="354.2" width="94.8" height="115.1"/>
				</defs>
				<clipPath id="SVGID_37_">
					<use xlink:href="#SVGID_36_"  style="overflow:visible;"/>
				</clipPath>
				<path class="st43" d="M337.9,413.8c-0.4-1-0.9-2-1.7-2.7c-0.3-0.3-0.8-0.6-1.2-0.7c-0.5-0.2-1-0.1-1.3,0.3
					c-0.1,0.1-0.1,0.2-0.1,0.3c0.1,0,0.2,0,0.3,0c0.6-0.3,1.2-0.2,1.6,0.2c0.5,0.4,0.9,0.9,1.2,1.5c1.1,2,1.7,4.2,2.1,6.5
					c-0.1,0-0.1,0-0.2,0c-1.1,0.1-1.9,0.7-2.2,1.7c-0.3,1.2,0,2.5,0.9,3.1c0.4,0.3,0.8,0.4,1.2,0.3c-0.4-0.3-0.7-0.6-1-0.9
					c-0.7-0.8-0.8-1.7-0.4-2.6c0.3-0.8,1-1,1.9-0.9c0.3,0,0.4-0.2,0.4-0.5C339.1,417.4,338.7,415.6,337.9,413.8"/>
				<path class="st43" d="M388.3,408c-0.5,0.5-0.8,1-1.1,1.7c-0.5,1.3-0.7,2.8-0.8,4.2c-0.1,0.8,0,1.6,0,2.4c0,0.4,0.2,0.6,0.7,0.4
					c0.1,0,0.1,0,0.2,0c0.9-0.2,1.9,0.7,1.7,1.6c-0.1,0.6-0.4,1.1-1,1.5c-0.2,0.1-0.3,0.4-0.1,0.5c0.1,0.1,0.4,0,0.5,0
					c0.1,0,0.1-0.1,0.2-0.1c0.5-0.5,0.9-1.1,1-1.8c0.1-0.6,0-1.2-0.5-1.6c-0.6-0.6-1.2-0.9-2.1-0.7c0-0.1,0-0.3,0-0.4
					c0-1.3,0.1-2.7,0.3-4c0.2-1,0.5-2,1.1-2.8c0.4-0.5,0.8-0.9,1.5-0.9c0.1,0,0.3-0.1,0.4-0.1c0,0,0-0.1,0-0.1
					c-0.2-0.1-0.3-0.2-0.5-0.2C389.3,407.4,388.8,407.6,388.3,408"/>
				<path class="st44" d="M339.9,426.7c0-1.3-0.1-2.7,0-4c0-0.9,0.3-1.8,0.4-2.7c0-0.1,0.2-0.2,0.2-0.2c0,0.1,0.1,0.2,0.1,0.3
					c0,0.5-0.1,0.9-0.1,1.4c0,1.6-0.1,3.3,0,4.9c0,0,0,0.1,0,0.1l-0.2-2.7l0.3-8.7l0-1.2c-0.1-0.1-0.2-0.1-0.2-0.2
					c-0.1-0.3-0.2-0.6-0.3-0.9c-0.3-1-0.7-2-1.4-2.9c-0.9-1-1.8-1.9-3.1-2.4c-1.1-0.4-2-0.1-2.7,0.7c-0.3,0.4-0.6,0.8-0.8,1.3
					c-0.8,1.9-0.8,4-0.4,6c0.7,3.3,1.8,6.4,3.5,9.3c0.6,1.1,1.4,2.1,2.3,2.9c0.6,0.5,1.3,0.5,1.8,0c0.2-0.2,0.4-0.4,0.5-0.7
					C339.9,427,339.9,426.8,339.9,426.7 M339,419.8c-0.8-0.1-1.5,0.1-1.9,0.9c-0.4,0.9-0.3,1.8,0.4,2.6c0.3,0.3,0.6,0.6,1,0.9
					c-0.5,0.1-0.9,0-1.2-0.3c-0.8-0.6-1.2-1.9-0.9-3.1c0.3-1,1-1.6,2.2-1.7c0,0,0.1,0,0.2,0c-0.4-2.3-1-4.5-2.1-6.5
					c-0.3-0.5-0.8-1-1.2-1.5c-0.4-0.4-1-0.5-1.6-0.2c-0.1,0-0.2,0-0.3,0c0-0.1,0.1-0.2,0.1-0.3c0.4-0.3,0.9-0.4,1.4-0.3
					c0.4,0.2,0.9,0.4,1.2,0.7c0.8,0.7,1.3,1.7,1.7,2.7c0.7,1.8,1.2,3.6,1.5,5.5C339.5,419.6,339.3,419.8,339,419.8"/>
				<path class="st43" d="M340,428.1l0.5-1.5l0,0c0,0,0-0.1,0-0.1c-0.1-1.6,0-3.2,0-4.9c0-0.5,0.1-0.9,0.1-1.4
					c0-0.1-0.1-0.2-0.1-0.3c-0.1,0.1-0.2,0.2-0.2,0.2c-0.2,0.9-0.4,1.8-0.4,2.7c-0.1,1.3,0,2.7,0,4c0,0.1,0,0.3-0.1,0.4
					c-0.2,0.2-0.3,0.5-0.5,0.7c-0.5,0.6-1.2,0.6-1.8,0c-0.9-0.8-1.6-1.8-2.3-2.9c-1.7-2.9-2.8-6-3.5-9.3c-0.4-2-0.4-4,0.4-6
					c0.2-0.5,0.5-0.9,0.8-1.3c0.7-0.9,1.7-1.1,2.7-0.7c1.3,0.5,2.3,1.3,3.1,2.4c0.7,0.8,1.1,1.8,1.4,2.9c0.1,0.3,0.2,0.6,0.3,0.9
					c0,0.1,0.2,0.2,0.2,0.2l-0.7-3.4c-0.3-0.5-0.7-1-1-1.4c-0.7-0.9-1.6-1.6-2.7-2.1c-1.3-0.5-2.5-0.6-3.6,0.4c0,0-0.7,0.7-1,1.2
					c0,0,0,0,0,0c-0.2,0.4-0.4,0.7-0.5,1.1c-0.6,1.9-0.7,3.8-0.3,5.7c0.7,3.3,1.8,6.5,3.4,9.4c0.7,1.2,1.5,2.4,2.5,3.4
					c0.9,0.9,2.1,0.9,3,0C339.9,428.2,340,428.1,340,428.1"/>
				<path class="st43" d="M393.2,411.5c-0.1-0.9-0.1-1.8-0.2-2.8c-0.1-1.1-0.4-2.1-0.9-3.1c-0.6-1.1-1.5-1.8-2.9-1.6c0,0,0,0,0,0
					c-0.3,0.1-0.5,0.2-0.8,0.3c0,0-0.1,0.1-0.1,0.1c-1.3,0.6-2.2,1.6-3,2.8c0,0,0,0,0,0c-0.3,1-0.6,2.1-0.8,3.2c0,0,0,0,0,0
					c0.1-0.1,0.2-0.2,0.3-0.3c0.2-0.6,0.4-1.1,0.6-1.7c0.6-1.4,1.5-2.6,2.9-3.3c0.3-0.1,0.6-0.3,0.9-0.4c0.8-0.3,1.5,0,2,0.6
					c0.7,0.9,1.1,1.8,1.2,2.9c0.1,1.2,0.2,2.4,0.2,3.7c0.1,1.4-0.2,2.7-0.6,4c-0.6,2.3-1.7,4.5-2.6,6.7c-0.3,0.6-0.5,1.2-0.7,1.8
					c-0.2,0.5-0.4,0.9-0.8,1.2c-0.4,0.3-0.7,0.4-1.2,0.3c0-0.3,0-0.5,0-0.8c0-2-0.4-4-0.8-6c-0.1-0.7-0.3-1.4-0.5-2.1
					c0-0.1-0.1-0.3-0.2-0.4c-0.1-0.1-0.2-0.1-0.3-0.2c0,0.1-0.1,0.2-0.1,0.3c0.3,1.5,0.5,3.1,0.8,4.6c0,0.3,0.1,0.5,0.1,0.8
					c0.2,1.2,0.3,2.5,0.2,3.7c0.2,0.3,0.5,0.6,0.7,0.8c0,0,0,0,0,0c0.9,0.1,1.6-0.3,2.2-1c0.3-0.4,0.4-0.8,0.6-1.2
					c0.3-0.6,0.5-1.2,0.7-1.8c0.8-2,1.8-3.9,2.3-5.9C393,415,393.3,413.3,393.2,411.5"/>
				<path class="st44" d="M392.5,412c-0.1-1.2-0.1-2.5-0.2-3.7c-0.1-1.1-0.5-2.1-1.2-2.9c-0.5-0.7-1.2-0.9-2-0.6
					c-0.3,0.1-0.6,0.2-0.9,0.4c-1.4,0.7-2.2,2-2.9,3.3c-0.3,0.5-0.4,1.1-0.6,1.7c0,0.1-0.2,0.2-0.3,0.3c0,0,0,0,0,0
					c0.1,0.1-0.1,0.9-0.1,1.1c0,0.4,0,0.8,0,1.2c0,0.8,0,1.5,0.1,2.3c0.2,1.5,1.1,2.8,1.4,4.3c0.4,2,0.7,4,0.8,6c0,0.3,0,0.6,0,0.8
					c0.5,0.1,0.9,0,1.2-0.3c0.4-0.3,0.7-0.7,0.8-1.2c0.2-0.6,0.4-1.2,0.7-1.8c0.9-2.2,2-4.3,2.6-6.7
					C392.3,414.7,392.5,413.4,392.5,412 M390.3,407.9c-0.1,0-0.3,0.1-0.4,0.1c-0.7,0-1.2,0.4-1.5,0.9c-0.6,0.9-0.9,1.8-1.1,2.8
					c-0.3,1.3-0.4,2.7-0.3,4c0,0.1,0,0.2,0,0.4c0.9-0.2,1.5,0.1,2.1,0.7c0.4,0.5,0.6,1,0.5,1.6c-0.1,0.7-0.5,1.3-1,1.8
					c-0.1,0-0.1,0.1-0.2,0.1c-0.2,0-0.5,0.1-0.5,0c-0.2-0.2,0-0.4,0.1-0.5c0.5-0.4,0.8-0.9,1-1.5c0.2-1-0.8-1.9-1.7-1.6
					c-0.1,0-0.1,0-0.2,0c-0.4,0.1-0.6,0-0.7-0.4c0-0.8,0-1.6,0-2.4c0.1-1.4,0.3-2.8,0.8-4.2c0.3-0.6,0.6-1.2,1.1-1.7
					c0.4-0.4,0.9-0.7,1.6-0.5c0.2,0,0.3,0.2,0.5,0.2C390.3,407.8,390.3,407.9,390.3,407.9"/>
			</g>
		</g>
	</g>
</g>
<g id="EARS">
	<rect x="209.1" y="370.9" class="st21" width="91.7" height="91.7"/>
	<g>
		<g>
			<defs>
				<rect id="SVGID_38_" x="208.9" y="354.2" width="94.8" height="115.1"/>
			</defs>
			<clipPath id="SVGID_39_">
				<use xlink:href="#SVGID_38_"  style="overflow:visible;"/>
			</clipPath>
			<g class="st45">
				<defs>
					<rect id="SVGID_40_" x="208.9" y="354.2" width="94.8" height="115.1"/>
				</defs>
				<clipPath id="SVGID_41_">
					<use xlink:href="#SVGID_40_"  style="overflow:visible;"/>
				</clipPath>
				<path class="st46" d="M232.4,413.8c-0.4-1-0.9-2-1.7-2.7c-0.3-0.3-0.8-0.6-1.2-0.7c-0.5-0.2-1-0.1-1.3,0.3
					c-0.1,0.1-0.1,0.2-0.1,0.3c0.1,0,0.2,0,0.3,0c0.6-0.3,1.2-0.2,1.6,0.2c0.5,0.4,0.9,0.9,1.2,1.5c1.1,2,1.7,4.2,2.1,6.5
					c-0.1,0-0.1,0-0.2,0c-1.1,0.1-1.9,0.7-2.2,1.7c-0.3,1.2,0,2.5,0.9,3.1c0.4,0.3,0.8,0.4,1.2,0.3c-0.4-0.3-0.7-0.6-1-0.9
					c-0.7-0.8-0.8-1.7-0.4-2.6c0.3-0.8,1-1,1.9-0.9c0.3,0,0.4-0.2,0.4-0.5C233.6,417.4,233.1,415.6,232.4,413.8"/>
				<path class="st46" d="M282.7,408c-0.5,0.5-0.8,1-1.1,1.7c-0.5,1.3-0.7,2.8-0.8,4.2c-0.1,0.8,0,1.6,0,2.4c0,0.4,0.2,0.6,0.7,0.4
					c0.1,0,0.1,0,0.2,0c0.9-0.2,1.9,0.7,1.7,1.6c-0.1,0.6-0.4,1.1-1,1.5c-0.2,0.1-0.3,0.4-0.1,0.5c0.1,0.1,0.4,0,0.5,0
					c0.1,0,0.1-0.1,0.2-0.1c0.5-0.5,0.9-1.1,1-1.8c0.1-0.6,0-1.2-0.5-1.6c-0.6-0.6-1.2-0.9-2.1-0.7c0-0.1,0-0.3,0-0.4
					c0-1.3,0.1-2.7,0.3-4c0.2-1,0.5-2,1.1-2.8c0.4-0.5,0.8-0.9,1.5-0.9c0.1,0,0.3-0.1,0.4-0.1c0,0,0-0.1,0-0.1
					c-0.2-0.1-0.3-0.2-0.5-0.2C283.7,407.4,283.2,407.6,282.7,408"/>
				<path class="st47" d="M234.3,426.7c0-1.3-0.1-2.7,0-4c0-0.9,0.3-1.8,0.4-2.7c0-0.1,0.2-0.2,0.2-0.2c0,0.1,0.1,0.2,0.1,0.3
					c0,0.5-0.1,0.9-0.1,1.4c0,1.6-0.1,3.3,0,4.9c0,0,0,0.1,0,0.1l-0.2-2.7l0.3-8.7l0-1.2c-0.1-0.1-0.2-0.1-0.2-0.2
					c-0.1-0.3-0.2-0.6-0.3-0.9c-0.3-1-0.7-2-1.4-2.9c-0.9-1-1.8-1.9-3.1-2.4c-1.1-0.4-2-0.1-2.7,0.7c-0.3,0.4-0.6,0.8-0.8,1.3
					c-0.8,1.9-0.8,4-0.4,6c0.7,3.3,1.8,6.4,3.5,9.3c0.6,1.1,1.4,2.1,2.3,2.9c0.6,0.5,1.3,0.5,1.8,0c0.2-0.2,0.4-0.4,0.5-0.7
					C234.3,427,234.3,426.8,234.3,426.7 M233.5,419.8c-0.8-0.1-1.5,0.1-1.9,0.9c-0.4,0.9-0.3,1.8,0.4,2.6c0.3,0.3,0.6,0.6,1,0.9
					c-0.5,0.1-0.9,0-1.2-0.3c-0.8-0.6-1.2-1.9-0.9-3.1c0.3-1,1-1.6,2.2-1.7c0,0,0.1,0,0.2,0c-0.4-2.3-1-4.5-2.1-6.5
					c-0.3-0.5-0.8-1-1.2-1.5c-0.4-0.4-1-0.5-1.6-0.2c-0.1,0-0.2,0-0.3,0c0-0.1,0.1-0.2,0.1-0.3c0.4-0.3,0.9-0.4,1.4-0.3
					c0.4,0.2,0.9,0.4,1.2,0.7c0.8,0.7,1.3,1.7,1.7,2.7c0.7,1.8,1.2,3.6,1.5,5.5C233.9,419.6,233.8,419.8,233.5,419.8"/>
				<path class="st46" d="M234.5,428.1l0.5-1.5l0,0c0,0,0-0.1,0-0.1c-0.1-1.6,0-3.2,0-4.9c0-0.5,0.1-0.9,0.1-1.4
					c0-0.1-0.1-0.2-0.1-0.3c-0.1,0.1-0.2,0.2-0.2,0.2c-0.2,0.9-0.4,1.8-0.4,2.7c-0.1,1.3,0,2.7,0,4c0,0.1,0,0.3-0.1,0.4
					c-0.2,0.2-0.3,0.5-0.5,0.7c-0.5,0.6-1.2,0.6-1.8,0c-0.9-0.8-1.6-1.8-2.3-2.9c-1.7-2.9-2.8-6-3.5-9.3c-0.4-2-0.4-4,0.4-6
					c0.2-0.5,0.5-0.9,0.8-1.3c0.7-0.9,1.7-1.1,2.7-0.7c1.3,0.5,2.3,1.3,3.1,2.4c0.7,0.8,1.1,1.8,1.4,2.9c0.1,0.3,0.2,0.6,0.3,0.9
					c0,0.1,0.2,0.2,0.2,0.2l-0.7-3.4c-0.3-0.5-0.7-1-1-1.4c-0.7-0.9-1.6-1.6-2.7-2.1c-1.3-0.5-2.5-0.6-3.6,0.4c0,0-0.7,0.7-1,1.2
					c0,0,0,0,0,0c-0.2,0.4-0.4,0.7-0.5,1.1c-0.6,1.9-0.7,3.8-0.3,5.7c0.7,3.3,1.8,6.5,3.4,9.4c0.7,1.2,1.5,2.4,2.5,3.4
					c0.9,0.9,2.1,0.9,3,0C234.4,428.2,234.4,428.1,234.5,428.1"/>
				<path class="st46" d="M287.6,411.5c-0.1-0.9-0.1-1.8-0.2-2.8c-0.1-1.1-0.4-2.1-0.9-3.1c-0.6-1.1-1.5-1.8-2.9-1.6c0,0,0,0,0,0
					c-0.3,0.1-0.5,0.2-0.8,0.3c0,0-0.1,0.1-0.1,0.1c-1.3,0.6-2.2,1.6-3,2.8c0,0,0,0,0,0c-0.3,1-0.6,2.1-0.8,3.2c0,0,0,0,0,0
					c0.1-0.1,0.2-0.2,0.3-0.3c0.2-0.6,0.4-1.1,0.6-1.7c0.6-1.4,1.5-2.6,2.9-3.3c0.3-0.1,0.6-0.3,0.9-0.4c0.8-0.3,1.5,0,2,0.6
					c0.7,0.9,1.1,1.8,1.2,2.9c0.1,1.2,0.2,2.4,0.2,3.7c0.1,1.4-0.2,2.7-0.6,4c-0.6,2.3-1.7,4.5-2.6,6.7c-0.3,0.6-0.5,1.2-0.7,1.8
					c-0.2,0.5-0.4,0.9-0.8,1.2c-0.4,0.3-0.7,0.4-1.2,0.3c0-0.3,0-0.5,0-0.8c0-2-0.4-4-0.8-6c-0.1-0.7-0.3-1.4-0.5-2.1
					c0-0.1-0.1-0.3-0.2-0.4c-0.1-0.1-0.2-0.1-0.3-0.2c0,0.1-0.1,0.2-0.1,0.3c0.3,1.5,0.5,3.1,0.8,4.6c0,0.3,0.1,0.5,0.1,0.8
					c0.2,1.2,0.3,2.5,0.2,3.7c0.2,0.3,0.5,0.6,0.7,0.8c0,0,0,0,0,0c0.9,0.1,1.6-0.3,2.2-1c0.3-0.4,0.4-0.8,0.6-1.2
					c0.3-0.6,0.5-1.2,0.7-1.8c0.8-2,1.8-3.9,2.3-5.9C287.4,415,287.7,413.3,287.6,411.5"/>
				<path class="st47" d="M286.9,412c-0.1-1.2-0.1-2.5-0.2-3.7c-0.1-1.1-0.5-2.1-1.2-2.9c-0.5-0.7-1.2-0.9-2-0.6
					c-0.3,0.1-0.6,0.2-0.9,0.4c-1.4,0.7-2.2,2-2.9,3.3c-0.3,0.5-0.4,1.1-0.6,1.7c0,0.1-0.2,0.2-0.3,0.3c0,0,0,0,0,0
					c0.1,0.1-0.1,0.9-0.1,1.1c0,0.4,0,0.8,0,1.2c0,0.8,0,1.5,0.1,2.3c0.2,1.5,1.1,2.8,1.4,4.3c0.4,2,0.7,4,0.8,6c0,0.3,0,0.6,0,0.8
					c0.5,0.1,0.9,0,1.2-0.3c0.4-0.3,0.7-0.7,0.8-1.2c0.2-0.6,0.4-1.2,0.7-1.8c0.9-2.2,2-4.3,2.6-6.7
					C286.7,414.7,287,413.4,286.9,412 M284.7,407.9c-0.1,0-0.3,0.1-0.4,0.1c-0.7,0-1.2,0.4-1.5,0.9c-0.6,0.9-0.9,1.8-1.1,2.8
					c-0.3,1.3-0.4,2.7-0.3,4c0,0.1,0,0.2,0,0.4c0.9-0.2,1.5,0.1,2.1,0.7c0.4,0.5,0.6,1,0.5,1.6c-0.1,0.7-0.5,1.3-1,1.8
					c-0.1,0-0.1,0.1-0.2,0.1c-0.2,0-0.5,0.1-0.5,0c-0.2-0.2,0-0.4,0.1-0.5c0.5-0.4,0.8-0.9,1-1.5c0.2-1-0.8-1.9-1.7-1.6
					c-0.1,0-0.1,0-0.2,0c-0.4,0.1-0.6,0-0.7-0.4c0-0.8,0-1.6,0-2.4c0.1-1.4,0.3-2.8,0.8-4.2c0.3-0.6,0.6-1.2,1.1-1.7
					c0.4-0.4,0.9-0.7,1.6-0.5c0.2,0,0.3,0.2,0.5,0.2C284.8,407.8,284.8,407.9,284.7,407.9"/>
			</g>
		</g>
	</g>
</g>
<g id="CHEEKS2">
	<rect x="314.9" y="58.2" class="st21" width="91.7" height="91.7"/>
	<g>
		<g>
			<defs>
				<rect id="SVGID_42_" x="311.8" y="29.9" width="94.8" height="115.1"/>
			</defs>
			<clipPath id="SVGID_43_">
				<use xlink:href="#SVGID_42_"  style="overflow:visible;"/>
			</clipPath>
			<g class="st48">
				<defs>
					<rect id="SVGID_44_" x="311.8" y="29.9" width="94.8" height="115.1"/>
				</defs>
				<clipPath id="SVGID_45_">
					<use xlink:href="#SVGID_44_"  style="overflow:visible;"/>
				</clipPath>
				<path class="st49" d="M381.1,96.4c-1.2-0.6-2.5-1-3.9-1c-4.7,0-8.5,3.9-8.5,8.7c0,1.8,0.7,3.6,1.7,5.1c0.4-0.2,0.9-0.4,1.3-0.6
					c0.3-0.2,0.5-0.5,0.7-0.7c0.2-0.3,0.5-0.5,0.7-0.3c0.2,0.2,0.3,0.5,0,0.8c-0.4,0.6-1,1-1.7,1.4c-0.1,0.1-0.3,0.2-0.4,0.2
					c0.1,0.1,0.1,0.1,0.2,0.2c0.7,0.8,1.6,1.5,2.6,2c1.1,0.5,2.2,0.7,3.3,0.3c0.8-0.3,1.6-0.4,2.3-0.7c0,0,0.1-0.1,0.1-0.1
					c1.9-2.1,3-4.6,3.5-7.4c0.3-2.1,0.3-4.2,0-6.2C382.5,97.4,381.9,96.9,381.1,96.4"/>
				<path class="st49" d="M354,111.1c-0.1,0-0.1-0.1-0.2-0.1c-0.9-0.4-1.6-1-2.2-1.7c-0.2-0.2-0.3-0.4-0.1-0.6
					c0.2-0.2,0.4-0.1,0.6,0c0.3,0.3,0.6,0.7,0.9,0.9c0.3,0.2,0.7,0.5,1.2,0.5c0.2,0,0.3,0.1,0.5,0.1c1.3-1.6,2-3.6,2-5.7
					c0-3.5-2-6.6-4.9-8.1c-1.3,0-2.7-0.3-3.8-1c-0.1,0-0.2,0-0.3,0c-1,0-2,0.2-3,0.5c-2.2,0.8-4,2.4-5.1,4.4c-0.5,0.9-1,2.1-0.9,3.2
					c0,0.5-0.1,1-0.1,1.5c0.4,1,1,2,1.6,2.9c0.6,0.9,1.3,1.7,2,2.5c0.7,0.8,1.5,1.6,2.2,2.4c1,0.5,2.1,0.8,3.4,0.8
					C350.3,113.8,352.4,112.7,354,111.1"/>
			</g>
		</g>
	</g>
</g>
<g id="CHEEKS">
	<rect x="99.9" y="370.9" class="st21" width="91.7" height="91.7"/>
	<g>
		<g>
			<defs>
				<rect id="SVGID_46_" x="95" y="345.6" width="94.8" height="115.1"/>
			</defs>
			<clipPath id="SVGID_47_">
				<use xlink:href="#SVGID_46_"  style="overflow:visible;"/>
			</clipPath>
			<g class="st50">
				<defs>
					<rect id="SVGID_48_" x="95" y="345.6" width="94.8" height="115.1"/>
				</defs>
				<clipPath id="SVGID_49_">
					<use xlink:href="#SVGID_48_"  style="overflow:visible;"/>
				</clipPath>
				<path class="st51" d="M164.3,412.2c-1.2-0.6-2.5-1-3.9-1c-4.7,0-8.5,3.9-8.5,8.7c0,1.8,0.7,3.6,1.7,5.1c0.4-0.2,0.9-0.4,1.3-0.6
					c0.3-0.2,0.5-0.5,0.7-0.7c0.2-0.3,0.5-0.5,0.7-0.3c0.2,0.2,0.3,0.5,0,0.8c-0.4,0.6-1,1-1.7,1.4c-0.1,0.1-0.3,0.2-0.4,0.2
					c0.1,0.1,0.1,0.1,0.2,0.2c0.7,0.8,1.6,1.5,2.6,2c1.1,0.5,2.2,0.7,3.3,0.3c0.8-0.3,1.6-0.4,2.3-0.7c0,0,0.1-0.1,0.1-0.1
					c1.9-2.1,3-4.6,3.5-7.4c0.3-2.1,0.3-4.2,0-6.2C165.7,413.1,165.1,412.6,164.3,412.2"/>
				<path class="st51" d="M137.2,426.9c-0.1,0-0.1-0.1-0.2-0.1c-0.9-0.4-1.6-1-2.2-1.7c-0.2-0.2-0.3-0.4-0.1-0.6
					c0.2-0.2,0.4-0.1,0.6,0c0.3,0.3,0.6,0.7,0.9,0.9c0.3,0.2,0.7,0.5,1.1,0.5c0.2,0,0.3,0.1,0.5,0.1c1.3-1.6,2-3.6,2-5.7
					c0-3.5-2-6.6-4.9-8.1c-1.3,0-2.7-0.3-3.8-1c-0.1,0-0.2,0-0.3,0c-1,0-2,0.2-3,0.5c-2.2,0.8-4,2.4-5.1,4.4c-0.5,0.9-1,2.1-0.9,3.2
					c0,0.5-0.1,1-0.1,1.5c0.4,1,1,2,1.6,2.9c0.6,0.9,1.3,1.7,2,2.5c0.7,0.8,1.5,1.6,2.2,2.4c1,0.5,2.1,0.8,3.4,0.8
					C133.5,429.5,135.6,428.5,137.2,426.9"/>
			</g>
		</g>
	</g>
</g>
<g id="EYEBROWS2">
	<rect x="99.9" y="162.2" class="st21" width="91.7" height="91.7"/>
	<g>
		<g>
			<defs>
				<rect id="SVGID_50_" x="95.9" y="155.1" width="94.8" height="115.1"/>
			</defs>
			<clipPath id="SVGID_51_">
				<use xlink:href="#SVGID_50_"  style="overflow:visible;"/>
			</clipPath>
			<g class="st52">
				<defs>
					<rect id="SVGID_52_" x="95.9" y="155.1" width="94.8" height="115.1"/>
				</defs>
				<clipPath id="SVGID_53_">
					<use xlink:href="#SVGID_52_"  style="overflow:visible;"/>
				</clipPath>
				<path class="st53" d="M138,207C138,207.1,138,207.1,138,207c-0.4,0.1-0.9,0.1-1.3,0.1c-2.3,0.2-4.5,0.8-6.6,1.8
					c-1,0.4-1.8,1-2.6,1.7c-0.1,0.1-0.1,0.2-0.2,0.3c0.1,0,0.2,0.1,0.4,0.1c0.3,0,0.6,0,0.9-0.1c2.3-0.6,4.7-0.6,7.1-0.4
					c1.9,0.2,3.8,0.8,5.5,1.6c0.5,0.2,0.7,0.1,0.7-0.4c0-0.7,0-1.4-0.1-2.1c-0.2-1.1-0.7-2-1.9-2.3C139.2,207.2,138.6,207.1,138,207
					 M156.9,206c-0.3,0-0.8,0.1-1.3,0.2c-2.5,0.7-4.5,2.1-6,4.3c-0.1,0.2-0.2,0.6-0.2,0.8c0,0.3,0.2,0.4,0.5,0.4
					c0.3-0.1,0.6-0.1,1-0.2c2.2-0.6,4.3-1.4,6.5-1.6c1.5-0.2,3-0.2,4.5,0.5c0.1,0,0.2,0.1,0.3,0.1c0.4,0,0.5-0.1,0.4-0.5
					c0-0.1,0-0.1-0.1-0.2C161.5,207.4,160,206.1,156.9,206"/>
				<path class="st54" d="M128.9,210.3c1-0.6,2-1,3-1.4c2.1-0.8,4.4-1.1,6.6-1.1c0.3,0,0.5,0,0.8,0.1c1,0.2,1.4,0.9,1.6,1.8
					c0.1,0.6,0.1,1.2,0.2,1.8C137.2,209.7,133.1,209.4,128.9,210.3"/>
				<path class="st54" d="M150,211.2c0.1-0.2,0.1-0.3,0.2-0.4c1.3-1.9,3.1-3.2,5.3-3.9c1.7-0.5,3.4-0.3,4.9,0.8
					c0.6,0.5,1,1.2,1.4,1.9c-0.5-0.1-1.1-0.3-1.6-0.4c-1.1-0.2-2.1-0.1-3.2,0c-2.3,0.3-4.4,1-6.6,1.7
					C150.3,211,150.2,211.1,150,211.2"/>
				<path class="st55" d="M141.6,209.6c-0.2-1.1-0.7-2-1.9-2.3c-0.6-0.2-1.2-0.2-1.8-0.3c0,0,0,0,0,0c-0.4,0-0.9,0.1-1.3,0.1
					c-2.3,0.2-4.5,0.8-6.6,1.8c-1,0.4-1.8,1-2.6,1.7c-0.1,0.1-0.1,0.2-0.2,0.3c0.1,0,0.2,0.1,0.4,0.1c0.3,0,0.6,0,0.9-0.1
					c2.3-0.6,4.7-0.6,7.1-0.4c1.9,0.2,3.8,0.8,5.5,1.6c0.5,0.2,0.7,0.1,0.7-0.4C141.7,211.1,141.8,210.3,141.6,209.6 M128.9,210.3
					c1-0.6,2-1,3-1.4c2.1-0.8,4.4-1.1,6.6-1.1c0.3,0,0.5,0,0.8,0.1c1,0.2,1.4,0.9,1.6,1.8c0.1,0.6,0.1,1.2,0.2,1.8
					C137.2,209.7,133.1,209.4,128.9,210.3"/>
				<path class="st55" d="M162.5,209.8c-0.9-2.4-2.5-3.7-5.6-3.8c-0.3,0-0.8,0.1-1.3,0.2c-2.5,0.7-4.5,2.1-6,4.3
					c-0.1,0.2-0.2,0.6-0.2,0.8c0,0.3,0.2,0.4,0.5,0.4c0.3-0.1,0.6-0.1,1-0.2c2.2-0.6,4.3-1.4,6.5-1.6c1.5-0.2,3-0.2,4.5,0.5
					c0.1,0,0.2,0.1,0.3,0.1c0.4,0,0.5-0.1,0.4-0.5C162.5,209.9,162.5,209.9,162.5,209.8 M160.2,209.2c-1.1-0.2-2.1-0.1-3.2,0
					c-2.3,0.3-4.4,1-6.6,1.7c-0.1,0-0.2,0.1-0.4,0.1c0.1-0.2,0.1-0.3,0.2-0.4c1.3-1.9,3.1-3.2,5.3-3.9c1.7-0.5,3.4-0.3,4.9,0.8
					c0.6,0.5,1,1.2,1.4,1.9C161.2,209.5,160.7,209.3,160.2,209.2"/>
			</g>
		</g>
	</g>
</g>
<g id="EYEBROWS">
	<rect x="418.5" y="162.2" class="st21" width="91.7" height="91.7"/>
	<g>
		<g>
			<defs>
				<rect id="SVGID_54_" x="416.1" y="151" width="94.8" height="115.1"/>
			</defs>
			<clipPath id="SVGID_55_">
				<use xlink:href="#SVGID_54_"  style="overflow:visible;"/>
			</clipPath>
			<g class="st56">
				<defs>
					<rect id="SVGID_56_" x="416.1" y="151" width="94.8" height="115.1"/>
				</defs>
				<clipPath id="SVGID_57_">
					<use xlink:href="#SVGID_56_"  style="overflow:visible;"/>
				</clipPath>
				<path class="st57" d="M458.1,202.9C458.1,203,458.1,203,458.1,202.9c-0.4,0.1-0.9,0.1-1.3,0.1c-2.3,0.2-4.5,0.8-6.6,1.8
					c-1,0.4-1.8,1-2.6,1.7c-0.1,0.1-0.1,0.2-0.2,0.3c0.1,0,0.2,0.1,0.4,0.1c0.3,0,0.6,0,0.9-0.1c2.3-0.6,4.7-0.6,7.1-0.4
					c1.9,0.2,3.8,0.8,5.5,1.6c0.5,0.2,0.7,0.1,0.7-0.4c0-0.7,0-1.4-0.1-2.1c-0.2-1.1-0.7-2-1.9-2.3
					C459.3,203.1,458.7,203,458.1,202.9 M477,201.9c-0.3,0-0.8,0.1-1.3,0.2c-2.5,0.7-4.5,2.1-6,4.3c-0.1,0.2-0.2,0.6-0.2,0.8
					c0,0.3,0.2,0.4,0.5,0.4c0.3-0.1,0.6-0.1,1-0.2c2.2-0.6,4.3-1.4,6.5-1.6c1.5-0.2,3-0.2,4.5,0.5c0.1,0,0.2,0.1,0.3,0.1
					c0.4,0,0.5-0.1,0.4-0.5c0-0.1,0-0.1-0.1-0.2C481.7,203.3,480.1,202,477,201.9"/>
				<path class="st58" d="M449,206.2c1-0.6,2-1,3-1.4c2.1-0.8,4.4-1.1,6.6-1.1c0.3,0,0.5,0,0.8,0.1c1,0.2,1.4,0.9,1.6,1.8
					c0.1,0.6,0.1,1.2,0.2,1.8C457.3,205.6,453.3,205.3,449,206.2"/>
				<path class="st58" d="M470.1,207.1c0.1-0.2,0.1-0.3,0.2-0.4c1.3-1.9,3.1-3.2,5.3-3.9c1.7-0.5,3.4-0.3,4.9,0.8
					c0.6,0.5,1,1.2,1.4,1.9c-0.5-0.1-1.1-0.3-1.6-0.4c-1.1-0.2-2.1-0.1-3.2,0c-2.3,0.3-4.4,1-6.6,1.7
					C470.4,206.9,470.3,207,470.1,207.1"/>
				<path class="st59" d="M461.8,205.5c-0.2-1.1-0.7-2-1.9-2.3c-0.6-0.2-1.2-0.2-1.8-0.3c0,0,0,0,0,0c-0.4,0-0.9,0.1-1.3,0.1
					c-2.3,0.2-4.5,0.8-6.6,1.8c-1,0.4-1.8,1-2.6,1.7c-0.1,0.1-0.1,0.2-0.2,0.3c0.1,0,0.2,0.1,0.4,0.1c0.3,0,0.6,0,0.9-0.1
					c2.3-0.6,4.7-0.6,7.1-0.4c1.9,0.2,3.8,0.8,5.5,1.6c0.5,0.2,0.7,0.1,0.7-0.4C461.9,207,461.9,206.2,461.8,205.5 M449,206.2
					c1-0.6,2-1,3-1.4c2.1-0.8,4.4-1.1,6.6-1.1c0.3,0,0.5,0,0.8,0.1c1,0.2,1.4,0.9,1.6,1.8c0.1,0.6,0.1,1.2,0.2,1.8
					C457.3,205.6,453.3,205.3,449,206.2"/>
				<path class="st59" d="M482.6,205.7c-0.9-2.4-2.5-3.7-5.6-3.8c-0.3,0-0.8,0.1-1.3,0.2c-2.5,0.7-4.5,2.1-6,4.3
					c-0.1,0.2-0.2,0.6-0.2,0.8c0,0.3,0.2,0.4,0.5,0.4c0.3-0.1,0.6-0.1,1-0.2c2.2-0.6,4.3-1.4,6.5-1.6c1.5-0.2,3-0.2,4.5,0.5
					c0.1,0,0.2,0.1,0.3,0.1c0.4,0,0.5-0.1,0.4-0.5C482.7,205.8,482.6,205.8,482.6,205.7 M480.3,205.1c-1.1-0.2-2.1-0.1-3.2,0
					c-2.3,0.3-4.4,1-6.6,1.7c-0.1,0-0.2,0.1-0.4,0.1c0.1-0.2,0.1-0.3,0.2-0.4c1.3-1.9,3.1-3.2,5.3-3.9c1.7-0.5,3.4-0.3,4.9,0.8
					c0.6,0.5,1,1.2,1.4,1.9C481.4,205.4,480.9,205.2,480.3,205.1"/>
			</g>
		</g>
	</g>
</g>
<g id="HAIR2">
	<rect x="209.1" y="162.2" class="st21" width="91.7" height="91.7"/>
	<g>
		<g>
			<defs>
				<rect id="SVGID_58_" x="208.9" y="166.5" width="94.8" height="115.1"/>
			</defs>
			<clipPath id="SVGID_59_">
				<use xlink:href="#SVGID_58_"  style="overflow:visible;"/>
			</clipPath>
			<g class="st60">
				<defs>
					<rect id="SVGID_60_" x="208.9" y="166.5" width="94.8" height="115.1"/>
				</defs>
				<clipPath id="SVGID_61_">
					<use xlink:href="#SVGID_60_"  style="overflow:visible;"/>
				</clipPath>
				<path class="st61" d="M260.9,215.4c0-0.7,0-1.3,0-2c0-0.1,0-0.3-0.1-0.4c-0.1-0.2-0.2-0.4-0.3-0.4c-0.1,0-0.4,0.1-0.5,0.2
					c-1.1,1.2-2.3,2.3-2.8,4c-0.3-0.8-0.6-1.5-0.9-2.2c-0.7-1.8-1.9-3.2-3.3-4.6c-0.8-0.8-1.6-0.9-2.6-0.4c-0.6,0.3-1.1,0.7-1.6,1
					c-0.1,0.1-0.2,0.1-0.4,0.2c-0.1-0.3-0.2-0.6-0.3-0.8c-0.3-0.6-0.7-0.7-1.2-0.3c-0.4,0.3-0.7,0.8-1.1,1.2
					c-0.1,0.1-0.1,0.2-0.2,0.3c-0.2-0.2-0.4-0.5-0.6-0.7c-1.1-1.3-2.7-1.7-4.1-0.9c-2.8,1.5-4.6,3.7-5.5,6.7
					c-0.6,1.9-0.7,3.9-0.7,5.9c0,0.3,0,0.5,0,0.8c-0.4-0.6-0.8-1.2-1.2-1.7c-0.7-0.9-1.6-1.6-2.7-2.1c-1.3-0.5-2.5-0.6-3.6,0.4
					c-0.1,0-0.1-0.1-0.2-0.1c-0.5-0.3-0.5-0.6-0.1-1c0.1-0.1,0.1-0.1,0.2-0.2c0.3-0.2,0.3-0.4,0-0.7c-0.1-0.1-0.2-0.2-0.3-0.4
					c-0.1-0.3,0-0.4,0.3-0.5c0.6-0.1,0.8-0.5,0.5-1.2c-0.4-0.9-0.8-1.8-1.2-2.7c-0.3-0.7-0.5-1.5-0.8-2.2c0-0.1,0-0.2,0-0.3
					c0-0.2,0.1-0.3,0.3-0.3c0.5,0.1,0.6-0.1,0.5-0.6c-0.2-0.5-0.3-0.9-0.4-1.4c0-0.1,0-0.2,0-0.3c0-0.7,0.3-0.9,0.9-0.7
					c0,0,0.1,0,0.1,0c0.4,0.1,0.6-0.1,0.5-0.5c-0.2-1-0.3-2,0-3.1c0-0.2,0.1-0.3,0.2-0.5c0,0,0.1,0,0.1-0.1c0.2,0.2,0.3,0.4,0.5,0.6
					c0.1,0.1,0.3,0.2,0.4,0.1c0.1,0,0.2-0.2,0.2-0.4c0.1-4.1,2-7.3,4.9-10.1c1.4-1.3,3.1-2,4.8-2.7c2.3-0.9,4.8-1.5,7.3-1.7
					c1.6-0.2,3.3-0.4,4.9-0.5c2.7-0.2,5.4-0.3,8.2,0c2.1,0.3,4.3,0.5,6.4,0.8c4.2,0.7,8.1,2.2,11.7,4.6c1.2,0.8,2.1,1.9,2.9,3.1
					c0.3,0.5,0.6,1.1,1,1.6c0,0,0,0-0.1,0.1c-0.1-0.1-0.2-0.2-0.3-0.2c-0.2,0-0.3,0-0.5,0c0,0.2,0,0.4,0,0.5c0.7,1,1.2,2.1,1.7,3.2
					c0.5,1,0.7,2.1,0.7,3.3c0,1,0,2.1,0.1,3.1c0,0.6,0.2,0.8,0.8,0.8c0.6,0,0.7,0.1,0.6,0.7c-0.1,0.3-0.2,0.6-0.3,0.9
					c-0.1,0.4-0.1,0.5,0.3,0.6c0.6,0.2,0.7,0.4,0.3,0.9c-0.1,0.2-0.3,0.4-0.5,0.6c-0.3,0.3-0.3,0.5,0.1,0.7c0.3,0.1,0.3,0.3,0.2,0.5
					c-0.3,0.4-0.7,0.9-1.1,1.2c-0.2,0.2-0.3,0.3-0.2,0.6c0,0.1-0.1,0.4-0.2,0.4c-1.3,0.6-2.2,1.6-3,2.8c0,0,0,0-0.1,0.1
					c0.1-0.7,0.2-1.3,0.2-2c0.1-1.3,0.1-2.6-0.2-3.9c-0.1-0.4-0.4-0.5-0.7-0.2c-0.2,0.2-0.5,0.4-0.7,0.6c-0.1,0-0.1,0.1-0.2,0.1
					c0.1-0.3,0.2-0.5,0.2-0.7c0-0.6,0-1.3-0.1-1.9c0-0.2-0.1-0.4-0.4-0.3c-0.1,0-0.2,0.3-0.3,0.4c-0.2,0.4-0.3,0.8-0.5,1.1
					c-0.2,0.3-0.4,0.5-0.7,0.9c0-0.2-0.1-0.3-0.1-0.4c-0.2-1.3-0.7-2.5-1.4-3.7c-0.8-1.2-2-1.9-3.3-2.4c-0.1,0-0.3,0-0.4,0.1
					c-0.1,0.1-0.1,0.2,0,0.4c0,0.3,0.1,0.6,0,0.8c-0.6,1.8-1.7,3.1-3.5,3.7c-0.1,0-0.2,0-0.3,0.1c-0.1-0.7-0.1-1.3-0.2-1.9
					c0-0.2,0-0.4-0.1-0.6c-0.1-0.1-0.3-0.3-0.4-0.3c-0.1,0-0.4,0.2-0.4,0.3c-0.1,2.6-1.6,4.2-3.8,5.2
					C261.9,215.1,261.4,215.3,260.9,215.4"/>
				<path class="st62" d="M226.2,216.9c0,0.4,0.1,0.8,0.2,1.2c0,0.1,0,0.1-0.1,0.2c-0.5,0.7-0.5,1.2,0.1,1.8c0,0,0,0.1,0,0.1
					l0.3,0.5l0.4-0.9c-0.1,0-0.1-0.1-0.2-0.1c-0.5-0.3-0.5-0.6-0.1-1c0.1-0.1,0.1-0.1,0.2-0.2c0.3-0.2,0.3-0.4,0-0.7
					c-0.1-0.1-0.2-0.2-0.3-0.4c-0.1-0.3,0-0.4,0.3-0.5c0.6-0.1,0.8-0.5,0.5-1.2c-0.4-0.9-0.8-1.8-1.2-2.7c-0.3-0.7-0.5-1.5-0.8-2.2
					c0-0.1,0-0.2,0-0.3c0-0.2,0.1-0.3,0.3-0.3c0.5,0.1,0.6-0.1,0.5-0.6c-0.2-0.5-0.3-0.9-0.4-1.4c0-0.1,0-0.2,0-0.3
					c0-0.7,0.3-0.9,0.9-0.7c0,0,0.1,0,0.1,0c0.4,0.1,0.6-0.1,0.5-0.5c-0.2-1-0.3-2,0-3.1c0-0.2,0.1-0.3,0.2-0.5c0,0,0.1,0,0.1-0.1
					c0.2,0.2,0.3,0.4,0.5,0.6c0.1,0.1,0.3,0.2,0.4,0.1c0.1,0,0.2-0.2,0.2-0.4c0.1-4.1,2-7.3,4.9-10.1c1.4-1.3,3.1-2,4.8-2.7
					c2.3-0.9,4.8-1.5,7.3-1.7c1.6-0.2,3.3-0.4,4.9-0.5c2.7-0.2,5.4-0.3,8.2,0c2.1,0.3,4.3,0.5,6.4,0.8c4.2,0.7,8.1,2.2,11.7,4.6
					c1.2,0.8,2.1,1.9,2.9,3.1c0.3,0.5,0.6,1.1,1,1.6c0,0,0,0-0.1,0.1c-0.1-0.1-0.2-0.2-0.3-0.2c-0.2,0-0.3,0-0.5,0
					c0,0.2,0,0.4,0,0.5c0.7,1,1.2,2.1,1.7,3.2c0.5,1,0.7,2.1,0.7,3.3c0,1,0,2.1,0.1,3.1c0,0.6,0.2,0.8,0.8,0.8
					c0.6,0,0.7,0.1,0.6,0.7c-0.1,0.3-0.2,0.6-0.3,0.9c-0.1,0.4-0.1,0.5,0.3,0.6c0.6,0.2,0.7,0.4,0.3,0.9c-0.1,0.2-0.3,0.4-0.5,0.6
					c-0.3,0.3-0.3,0.5,0.1,0.7c0.3,0.1,0.3,0.3,0.2,0.5c-0.3,0.4-0.7,0.9-1.1,1.2c-0.2,0.2-0.3,0.3-0.2,0.6c0,0.1,0,0.2-0.1,0.3
					c0.3-0.1,0.5-0.2,0.8-0.2c0.1-0.2,0.1-0.3,0.2-0.4c0.3-0.4,0.7-0.7,0.9-1.1c0.3-0.5,0.4-0.9-0.1-1.4c0.9-1.1,0.8-1.8-0.1-2.4
					c0.1-0.3,0.2-0.6,0.3-0.9c0.2-0.9-0.1-1.4-1.1-1.4c-0.3,0-0.3-0.1-0.3-0.4c0-1-0.1-2-0.1-3.1c0-1.1-0.2-2.2-0.7-3.3
					c-0.4-0.8-0.8-1.6-1.2-2.5c0.4-0.2,0.5-0.4,0.3-0.8c-0.3-0.7-0.7-1.4-1.1-2.1c-0.9-1.3-1.8-2.6-3.2-3.5c-2.5-1.6-5.1-2.9-8-3.7
					c-3.6-1.1-7.3-1.4-11-1.8c-0.8-0.1-1.6-0.1-2.3-0.1h-0.8c-1,0-1.9,0.1-2.9,0.1c-2.1,0.2-4.2,0.3-6.2,0.6
					c-1.9,0.2-3.9,0.6-5.7,1.1c-1.6,0.5-3.1,1-4.5,1.8c-2.7,1.5-4.7,3.7-6.1,6.5c-0.6,1.2-1.1,2.5-1.3,3.8c-0.1,0.4-0.1,0.8-0.1,1.3
					c0,0-0.1,0-0.1,0c-0.6-0.5-1-0.4-1.3,0.3c-0.3,0.9-0.3,1.7-0.2,2.6c0,0.2,0,0.5,0.1,0.7c0,0,0,0,0,0c-1.3-0.2-1.6,0.8-1.5,1.8
					c0.1,0.4,0.2,0.8,0.3,1.3c-0.4,0.1-0.6,0.4-0.7,0.8v0.6c0.4,1.8,1.3,3.5,2.1,5.3C226.6,216.2,226.2,216.4,226.2,216.9"/>
				<path class="st62" d="M278.6,222.4c0,0.1,0.1,0.2,0.2,0.3c-0.2-0.8,0-1.8,0.9-3.2c0,0,0,0-0.1,0.1c0.1-0.7,0.2-1.3,0.2-2
					c0.1-1.3,0.1-2.6-0.2-3.9c-0.1-0.4-0.4-0.5-0.7-0.2c-0.2,0.2-0.5,0.4-0.7,0.6c-0.1,0-0.1,0.1-0.2,0.1c0.1-0.3,0.2-0.5,0.2-0.7
					c0-0.6,0-1.3-0.1-1.9c0-0.2-0.1-0.4-0.4-0.3c-0.1,0-0.2,0.3-0.3,0.4c-0.2,0.4-0.3,0.8-0.5,1.1c-0.2,0.3-0.4,0.5-0.7,0.9
					c0-0.2-0.1-0.3-0.1-0.4c-0.2-1.3-0.7-2.5-1.4-3.7c-0.8-1.2-2-1.9-3.3-2.4c-0.1,0-0.3,0-0.4,0.1c-0.1,0.1-0.1,0.2,0,0.4
					c0,0.3,0.1,0.6,0,0.8c-0.6,1.8-1.7,3.1-3.5,3.7c-0.1,0-0.2,0-0.3,0.1c-0.1-0.7-0.1-1.3-0.2-1.9c0-0.2,0-0.4-0.1-0.6
					c-0.1-0.1-0.3-0.3-0.4-0.3c-0.1,0-0.4,0.2-0.4,0.3c-0.1,2.6-1.6,4.2-3.8,5.2c-0.5,0.2-0.9,0.4-1.4,0.6c0-0.7,0-1.3,0-2
					c0-0.1,0-0.3-0.1-0.4c-0.1-0.2-0.2-0.4-0.3-0.4c-0.1,0-0.4,0.1-0.5,0.2c-1.1,1.2-2.3,2.3-2.8,4c-0.3-0.8-0.6-1.5-0.9-2.2
					c-0.7-1.8-1.9-3.2-3.3-4.6c-0.8-0.8-1.6-0.9-2.6-0.4c-0.6,0.3-1.1,0.7-1.6,1c-0.1,0.1-0.2,0.1-0.4,0.2c-0.1-0.3-0.2-0.6-0.3-0.8
					c-0.3-0.6-0.7-0.7-1.2-0.3c-0.4,0.3-0.7,0.8-1.1,1.2c-0.1,0.1-0.1,0.2-0.2,0.3c-0.2-0.2-0.4-0.5-0.6-0.7
					c-1.1-1.3-2.7-1.7-4.1-0.9c-2.8,1.5-4.6,3.7-5.5,6.7c-0.6,1.9-0.7,3.9-0.7,5.9c0,0.3,0,0.5,0,0.8l0.5,3.1
					c0.1-0.1,0.2-0.2,0.2-0.3c0-0.9,0-1.7,0-2.6c0-2.4,0-4.7,0.8-7c0.9-2.5,2.5-4.4,4.7-5.8c0.7-0.5,1.5-0.6,2.4-0.4
					c0.5,0.1,0.9,0.5,1.3,0.9c0.2,0.3,0.5,0.6,0.7,1c0.3,0.4,0.6,0.4,0.9-0.1c0.3-0.4,0.6-0.9,0.9-1.3c0.1-0.2,0.3-0.3,0.5-0.4
					c0.1,0.4,0.2,0.7,0.4,1c0.2,0.5,0.4,0.6,0.9,0.3c0.5-0.3,0.9-0.6,1.4-0.9c0.1-0.1,0.2-0.1,0.3-0.2c1.2-0.7,1.7-0.6,2.7,0.4
					c1.7,1.7,2.8,3.8,3.6,6.1c0.1,0.3,0.2,0.5,0.3,0.7c0.1,0.1,0.2,0.3,0.4,0.3c0.1,0,0.3-0.1,0.4-0.3c0.2-0.3,0.2-0.6,0.3-0.8
					c0.4-1.3,1.3-2.2,2.3-3.2c0,0.3,0,0.7,0,1c0,0.4-0.1,0.7-0.2,1.1c0,0.2,0,0.4,0.1,0.5c0.1,0.1,0.3,0.1,0.5,0.1
					c0.9-0.4,1.8-0.8,2.7-1.2c1.5-0.7,2.5-1.8,3.2-3.3c0,0.1,0,0.2,0,0.4c0,0.5,0.2,0.6,0.6,0.6c0.9-0.1,1.6-0.5,2.3-1.1
					c1-0.8,1.7-1.7,2.1-2.9c0.1-0.3,0.2-0.6,0.2-0.9c1.2,0.5,2.1,1.3,2.6,2.5c0.6,1.2,1,2.4,1,3.7c0,0.2,0.1,0.4,0.3,0.4
					c0.1,0.1,0.4,0,0.5-0.1c0.5-0.4,0.9-0.8,1.3-1.1c-0.1,0.2-0.2,0.5-0.3,0.9c0,0.2-0.1,0.5,0,0.6c0.1,0.1,0.4,0.2,0.6,0.1
					c0.4-0.2,0.9-0.4,1.3-0.7c0,0.4,0.1,0.7,0.1,1.1c0.1,2-0.2,3.9-0.6,5.9C278.6,221.7,278.6,222.1,278.6,222.4"/>
			</g>
		</g>
	</g>
</g>
<g id="HAIR">
	<rect x="418.5" y="267.2" class="st21" width="91.7" height="91.7"/>
	<g>
		<g>
			<defs>
				<rect id="SVGID_62_" x="422.5" y="273" width="94.8" height="115.1"/>
			</defs>
			<clipPath id="SVGID_63_">
				<use xlink:href="#SVGID_62_"  style="overflow:visible;"/>
			</clipPath>
			<g class="st63">
				<defs>
					<rect id="SVGID_64_" x="422.5" y="273" width="94.8" height="115.1"/>
				</defs>
				<clipPath id="SVGID_65_">
					<use xlink:href="#SVGID_64_"  style="overflow:visible;"/>
				</clipPath>
				<path class="st64" d="M474.5,322c0-0.7,0-1.3,0-2c0-0.1,0-0.3-0.1-0.4c-0.1-0.2-0.2-0.4-0.3-0.4c-0.1,0-0.4,0.1-0.5,0.2
					c-1.1,1.2-2.3,2.3-2.8,4c-0.3-0.8-0.6-1.5-0.9-2.2c-0.7-1.8-1.9-3.2-3.3-4.6c-0.8-0.8-1.6-0.9-2.6-0.4c-0.6,0.3-1.1,0.7-1.6,1
					c-0.1,0.1-0.2,0.1-0.4,0.2c-0.1-0.3-0.2-0.6-0.3-0.8c-0.3-0.6-0.7-0.7-1.2-0.3c-0.4,0.3-0.7,0.8-1.1,1.2
					c-0.1,0.1-0.1,0.2-0.2,0.3c-0.2-0.2-0.4-0.5-0.6-0.7c-1.1-1.3-2.7-1.7-4.1-0.9c-2.8,1.5-4.6,3.7-5.5,6.7
					c-0.6,1.9-0.7,3.9-0.7,5.9c0,0.3,0,0.5,0,0.8c-0.4-0.6-0.8-1.2-1.2-1.7c-0.7-0.9-1.6-1.6-2.7-2.1c-1.3-0.5-2.5-0.6-3.6,0.4
					c-0.1,0-0.1-0.1-0.2-0.1c-0.5-0.3-0.5-0.6-0.1-1c0.1-0.1,0.1-0.1,0.2-0.2c0.3-0.2,0.3-0.4,0-0.7c-0.1-0.1-0.2-0.2-0.3-0.4
					c-0.1-0.3,0-0.4,0.3-0.5c0.6-0.1,0.8-0.5,0.5-1.2c-0.4-0.9-0.8-1.8-1.2-2.7c-0.3-0.7-0.5-1.5-0.8-2.2c0-0.1,0-0.2,0-0.3
					c0-0.2,0.1-0.3,0.3-0.3c0.5,0.1,0.6-0.1,0.5-0.6c-0.2-0.5-0.3-0.9-0.4-1.4c0-0.1,0-0.2,0-0.3c0-0.7,0.3-0.9,0.9-0.7
					c0,0,0.1,0,0.1,0c0.4,0.1,0.6-0.1,0.5-0.5c-0.2-1-0.3-2,0-3.1c0-0.2,0.1-0.3,0.2-0.5c0,0,0.1,0,0.1-0.1c0.2,0.2,0.3,0.4,0.5,0.6
					c0.1,0.1,0.3,0.2,0.4,0.1c0.1,0,0.2-0.2,0.2-0.4c0.1-4.1,2-7.3,4.9-10.1c1.4-1.3,3.1-2,4.8-2.7c2.3-0.9,4.8-1.5,7.3-1.7
					c1.6-0.2,3.3-0.4,4.9-0.5c2.7-0.2,5.4-0.3,8.2,0c2.1,0.3,4.3,0.5,6.4,0.8c4.2,0.7,8.1,2.2,11.7,4.6c1.2,0.8,2.1,1.9,2.9,3.1
					c0.3,0.5,0.6,1.1,1,1.6c0,0,0,0-0.1,0.1c-0.1-0.1-0.2-0.2-0.3-0.2c-0.2,0-0.3,0-0.5,0c0,0.2,0,0.4,0,0.5c0.7,1,1.2,2.1,1.7,3.2
					c0.5,1,0.7,2.1,0.7,3.3c0,1,0,2.1,0.1,3.1c0,0.6,0.2,0.8,0.8,0.8c0.6,0,0.7,0.1,0.6,0.7c-0.1,0.3-0.2,0.6-0.3,0.9
					c-0.1,0.4-0.1,0.5,0.3,0.6c0.6,0.2,0.7,0.4,0.3,0.9c-0.1,0.2-0.3,0.4-0.5,0.6c-0.3,0.3-0.3,0.5,0.1,0.7c0.3,0.1,0.3,0.3,0.2,0.5
					c-0.3,0.4-0.7,0.9-1.1,1.2c-0.2,0.2-0.3,0.3-0.2,0.6c0,0.1-0.1,0.4-0.2,0.4c-1.3,0.6-2.2,1.6-3,2.8c0,0,0,0-0.1,0.1
					c0.1-0.7,0.2-1.3,0.2-2c0.1-1.3,0.1-2.6-0.2-3.9c-0.1-0.4-0.4-0.5-0.7-0.2c-0.2,0.2-0.5,0.4-0.7,0.6c-0.1,0-0.1,0.1-0.2,0.1
					c0.1-0.3,0.2-0.5,0.2-0.7c0-0.6,0-1.3-0.1-1.9c0-0.2-0.1-0.4-0.4-0.3c-0.1,0-0.2,0.3-0.3,0.4c-0.2,0.4-0.3,0.8-0.5,1.1
					c-0.2,0.3-0.4,0.5-0.7,0.9c0-0.2-0.1-0.3-0.1-0.4c-0.2-1.3-0.7-2.5-1.4-3.7c-0.8-1.2-2-1.9-3.3-2.4c-0.1,0-0.3,0-0.4,0.1
					c-0.1,0.1-0.1,0.2,0,0.4c0,0.3,0.1,0.6,0,0.8c-0.6,1.8-1.7,3.1-3.5,3.7c-0.1,0-0.2,0-0.3,0.1c-0.1-0.7-0.1-1.3-0.2-1.9
					c0-0.2,0-0.4-0.1-0.6c-0.1-0.1-0.3-0.3-0.4-0.3c-0.1,0-0.4,0.2-0.4,0.3c-0.1,2.6-1.6,4.2-3.8,5.2
					C475.5,321.6,475,321.8,474.5,322"/>
				<path class="st65" d="M439.8,323.5c0,0.4,0.1,0.8,0.2,1.2c0,0.1,0,0.1-0.1,0.2c-0.5,0.7-0.5,1.2,0.1,1.8c0,0,0,0.1,0,0.1
					l0.3,0.5l0.4-0.9c-0.1,0-0.1-0.1-0.2-0.1c-0.5-0.3-0.5-0.6-0.1-1c0.1-0.1,0.1-0.1,0.2-0.2c0.3-0.2,0.3-0.4,0-0.7
					c-0.1-0.1-0.2-0.2-0.3-0.4c-0.1-0.3,0-0.4,0.3-0.5c0.6-0.1,0.8-0.5,0.5-1.2c-0.4-0.9-0.8-1.8-1.2-2.7c-0.3-0.7-0.5-1.5-0.8-2.2
					c0-0.1,0-0.2,0-0.3c0-0.2,0.1-0.3,0.3-0.3c0.5,0.1,0.6-0.1,0.5-0.6c-0.2-0.5-0.3-0.9-0.4-1.4c0-0.1,0-0.2,0-0.3
					c0-0.7,0.3-0.9,0.9-0.7c0,0,0.1,0,0.1,0c0.4,0.1,0.6-0.1,0.5-0.5c-0.2-1-0.3-2,0-3.1c0-0.2,0.1-0.3,0.2-0.5c0,0,0.1,0,0.1-0.1
					c0.2,0.2,0.3,0.4,0.5,0.6c0.1,0.1,0.3,0.2,0.4,0.1c0.1,0,0.2-0.2,0.2-0.4c0.1-4.1,2-7.3,4.9-10.1c1.4-1.3,3.1-2,4.8-2.7
					c2.3-0.9,4.8-1.5,7.3-1.7c1.6-0.2,3.3-0.4,4.9-0.5c2.7-0.2,5.4-0.3,8.2,0c2.1,0.3,4.3,0.5,6.4,0.8c4.2,0.7,8.1,2.2,11.7,4.6
					c1.2,0.8,2.1,1.9,2.9,3.1c0.3,0.5,0.6,1.1,1,1.6c0,0,0,0-0.1,0.1c-0.1-0.1-0.2-0.2-0.3-0.2c-0.2,0-0.3,0-0.5,0
					c0,0.2,0,0.4,0,0.5c0.7,1,1.2,2.1,1.7,3.2c0.5,1,0.7,2.1,0.7,3.3c0,1,0,2.1,0.1,3.1c0,0.6,0.2,0.8,0.8,0.8
					c0.6,0,0.7,0.1,0.6,0.7c-0.1,0.3-0.2,0.6-0.3,0.9c-0.1,0.4-0.1,0.5,0.3,0.6c0.6,0.2,0.7,0.4,0.3,0.9c-0.1,0.2-0.3,0.4-0.5,0.6
					c-0.3,0.3-0.3,0.5,0.1,0.7c0.3,0.1,0.3,0.3,0.2,0.5c-0.3,0.4-0.7,0.9-1.1,1.2c-0.2,0.2-0.3,0.3-0.2,0.6c0,0.1,0,0.2-0.1,0.3
					c0.3-0.1,0.5-0.2,0.8-0.2c0.1-0.2,0.1-0.3,0.2-0.4c0.3-0.4,0.7-0.7,0.9-1.1c0.3-0.5,0.4-0.9-0.1-1.4c0.9-1.1,0.8-1.8-0.1-2.4
					c0.1-0.3,0.2-0.6,0.3-0.9c0.2-0.9-0.1-1.4-1.1-1.4c-0.3,0-0.3-0.1-0.3-0.4c0-1-0.1-2-0.1-3.1c0-1.1-0.2-2.2-0.7-3.3
					c-0.4-0.8-0.8-1.6-1.2-2.5c0.4-0.2,0.5-0.4,0.3-0.8c-0.3-0.7-0.7-1.4-1.1-2.1c-0.9-1.3-1.8-2.6-3.2-3.5c-2.5-1.6-5.1-2.9-8-3.7
					c-3.6-1.1-7.3-1.4-11-1.8c-0.8-0.1-1.6-0.1-2.3-0.1h-0.8c-1,0-1.9,0.1-2.9,0.1c-2.1,0.2-4.2,0.3-6.2,0.6
					c-1.9,0.2-3.9,0.6-5.7,1.1c-1.6,0.5-3.1,1-4.5,1.8c-2.7,1.5-4.7,3.7-6.1,6.5c-0.6,1.2-1.1,2.5-1.3,3.8c-0.1,0.4-0.1,0.8-0.1,1.3
					c0,0-0.1,0-0.1,0c-0.6-0.5-1-0.4-1.3,0.3c-0.3,0.9-0.3,1.7-0.2,2.6c0,0.2,0,0.5,0.1,0.7c0,0,0,0,0,0c-1.3-0.2-1.6,0.8-1.5,1.8
					c0.1,0.4,0.2,0.8,0.3,1.3c-0.4,0.1-0.6,0.4-0.7,0.8v0.6c0.4,1.8,1.3,3.5,2.1,5.3C440.2,322.8,439.8,323,439.8,323.5"/>
				<path class="st65" d="M492.2,329c0,0.1,0.1,0.2,0.2,0.3c-0.2-0.8,0-1.8,0.9-3.2c0,0,0,0-0.1,0.1c0.1-0.7,0.2-1.3,0.2-2
					c0.1-1.3,0.1-2.6-0.2-3.9c-0.1-0.4-0.4-0.5-0.7-0.2c-0.2,0.2-0.5,0.4-0.7,0.6c-0.1,0-0.1,0.1-0.2,0.1c0.1-0.3,0.2-0.5,0.2-0.7
					c0-0.6,0-1.3-0.1-1.9c0-0.2-0.1-0.4-0.4-0.3c-0.1,0-0.2,0.3-0.3,0.4c-0.2,0.4-0.3,0.8-0.5,1.1c-0.2,0.3-0.4,0.5-0.7,0.9
					c0-0.2-0.1-0.3-0.1-0.4c-0.2-1.3-0.7-2.5-1.4-3.7c-0.8-1.2-2-1.9-3.3-2.4c-0.1,0-0.3,0-0.4,0.1c-0.1,0.1-0.1,0.2,0,0.4
					c0,0.3,0.1,0.6,0,0.8c-0.6,1.8-1.7,3.1-3.5,3.7c-0.1,0-0.2,0-0.3,0.1c-0.1-0.7-0.1-1.3-0.2-1.9c0-0.2,0-0.4-0.1-0.6
					c-0.1-0.1-0.3-0.3-0.4-0.3c-0.1,0-0.4,0.2-0.4,0.3c-0.1,2.6-1.6,4.2-3.8,5.2c-0.5,0.2-0.9,0.4-1.4,0.6c0-0.7,0-1.3,0-2
					c0-0.1,0-0.3-0.1-0.4c-0.1-0.2-0.2-0.4-0.3-0.4c-0.1,0-0.4,0.1-0.5,0.2c-1.1,1.2-2.3,2.3-2.8,4c-0.3-0.8-0.6-1.5-0.9-2.2
					c-0.7-1.8-1.9-3.2-3.3-4.6c-0.8-0.8-1.6-0.9-2.6-0.4c-0.6,0.3-1.1,0.7-1.6,1c-0.1,0.1-0.2,0.1-0.4,0.2c-0.1-0.3-0.2-0.6-0.3-0.8
					c-0.3-0.6-0.7-0.7-1.2-0.3c-0.4,0.3-0.7,0.8-1.1,1.2c-0.1,0.1-0.1,0.2-0.2,0.3c-0.2-0.2-0.4-0.5-0.6-0.7
					c-1.1-1.3-2.7-1.7-4.1-0.9c-2.8,1.5-4.6,3.7-5.5,6.7c-0.6,1.9-0.7,3.9-0.7,5.9c0,0.3,0,0.5,0,0.8l0.5,3.1
					c0.1-0.1,0.2-0.2,0.2-0.3c0-0.9,0-1.7,0-2.6c0-2.4,0-4.7,0.8-7c0.9-2.5,2.5-4.4,4.7-5.8c0.7-0.5,1.5-0.6,2.4-0.4
					c0.5,0.1,0.9,0.5,1.3,0.9c0.2,0.3,0.5,0.6,0.7,1c0.3,0.4,0.6,0.4,0.9-0.1c0.3-0.4,0.6-0.9,0.9-1.3c0.1-0.2,0.3-0.3,0.5-0.4
					c0.1,0.4,0.2,0.7,0.4,1c0.2,0.5,0.4,0.6,0.9,0.3c0.5-0.3,0.9-0.6,1.4-0.9c0.1-0.1,0.2-0.1,0.3-0.2c1.2-0.7,1.7-0.6,2.7,0.4
					c1.7,1.7,2.8,3.8,3.6,6.1c0.1,0.3,0.2,0.5,0.3,0.7c0.1,0.1,0.2,0.3,0.4,0.3c0.1,0,0.3-0.1,0.4-0.3c0.2-0.3,0.2-0.6,0.3-0.8
					c0.4-1.3,1.3-2.2,2.3-3.2c0,0.3,0,0.7,0,1c0,0.4-0.1,0.7-0.2,1.1c0,0.2,0,0.4,0.1,0.5c0.1,0.1,0.3,0.1,0.5,0.1
					c0.9-0.4,1.8-0.8,2.7-1.2c1.5-0.7,2.5-1.8,3.2-3.3c0,0.1,0,0.2,0,0.4c0,0.5,0.2,0.6,0.6,0.6c0.9-0.1,1.6-0.5,2.3-1.1
					c1-0.8,1.7-1.7,2.1-2.9c0.1-0.3,0.2-0.6,0.2-0.9c1.2,0.5,2.1,1.3,2.6,2.5c0.6,1.2,1,2.4,1,3.7c0,0.2,0.1,0.4,0.3,0.4
					c0.1,0.1,0.4,0,0.5-0.1c0.5-0.4,0.9-0.8,1.3-1.1c-0.1,0.2-0.2,0.5-0.3,0.9c0,0.2-0.1,0.5,0,0.6c0.1,0.1,0.4,0.2,0.6,0.1
					c0.4-0.2,0.9-0.4,1.3-0.7c0,0.4,0.1,0.7,0.1,1.1c0.1,2-0.2,3.9-0.6,5.9C492.2,328.2,492.2,328.6,492.2,329"/>
			</g>
		</g>
	</g>
</g>
<g id="EYES2">
	<rect x="418.5" y="372.2" class="st21" width="91.7" height="91.7"/>
	<g>
		<g>
			<defs>
				<rect id="SVGID_66_" x="407.3" y="345.6" width="108.9" height="132.2"/>
			</defs>
			<clipPath id="SVGID_67_">
				<use xlink:href="#SVGID_66_"  style="overflow:visible;"/>
			</clipPath>
			<g class="st66">
				<defs>
					<rect id="SVGID_68_" x="407.3" y="345.6" width="108.9" height="132.2"/>
				</defs>
				<clipPath id="SVGID_69_">
					<use xlink:href="#SVGID_68_"  style="overflow:visible;"/>
				</clipPath>
				<path class="st67" d="M454.3,411.9c-0.7,0.1-1.5,0.2-2.2,0.3c-2.3,0.5-4.3,1.4-6,3c-0.5,0.5-0.5,0.9-0.4,1.5
					c0.4,1.7,1.4,3,2.8,4c2.7,1.9,6.2,1.8,9,0.2c0.9-0.5,1.4-1.3,1.8-2.3c0.3-0.8,0.3-1.6,0.1-2.4
					C458.8,414,457.2,411.9,454.3,411.9 M476,411.7c-2.7,0.1-5,1.3-6.4,4c-0.4,0.8-0.4,1.7,0.1,2.5c1.6,2.5,3.8,4,6.9,3.5
					c2.7-0.4,4.7-1.9,5.8-4.3c0.1-0.2,0.2-0.4,0.2-0.7c0-1.7-0.7-3-2.2-3.9C479.2,412.1,477.7,411.8,476,411.7"/>
				<path class="st68" d="M458.1,415.3c0.5,1,0.6,2,0.4,3.1c-0.1,0.5-0.5,1-0.9,1.3c-1,0.9-2.2,1.3-3.5,1.5c-2,0.3-3.9-0.1-5.5-1.4
					c-1.2-0.9-1.9-2.1-2.3-3.5c0-0.1,0-0.3,0.1-0.4c1.6-1.6,3.5-2.4,5.6-2.9c-0.3,0.7-0.7,1.4-0.9,2.2c-0.6,2.1,0.5,4,2.7,4.4
					c1.3,0.2,2.3-0.2,3.2-1.1C457.7,417.6,458.1,416.5,458.1,415.3"/>
				<path class="st69" d="M457.2,415.5c0,1.6-1.3,3.1-2.9,3.2c-1.5,0.1-2.7-1-2.7-2.5c0-1,0.3-1.9,1-2.7c0.7-0.9,1.6-1,2.7-0.8
					c1.3,0.3,1.8,0.9,2,2.4C457.2,415.3,457.2,415.4,457.2,415.5"/>
				<path class="st68" d="M473.4,413.1c-0.6,1.1-0.8,2.1-0.5,3.3c0.4,1.8,1.8,2.6,3.5,2.4c2.9-0.3,3.9-3.2,2.9-5.3
					c-0.1-0.1-0.1-0.3-0.2-0.4c1.8,0.5,2.8,2.2,2.8,3.5c0,0.1,0,0.3-0.1,0.4c-1.5,2.6-3.7,4-6.7,3.9c-0.8,0-1.7-0.3-2.4-0.7
					c-0.7-0.4-1.3-0.9-1.9-1.4c-0.5-0.5-0.9-1.1-0.8-1.8c0-0.1,0-0.2,0-0.3c0.7-1.5,1.6-2.8,3.2-3.5
					C473.3,413.1,473.3,413.1,473.4,413.1"/>
				<path class="st69" d="M476.1,412.5c0.6,0.1,1,0.1,1.3,0.1c0.2,0,0.5,0.2,0.6,0.4c0.9,1,1.1,2.5,0.5,3.6c-0.8,1.5-3.1,2-4.3,0.8
					c-1.2-1.3-0.8-3.8,0.7-4.6C475.4,412.5,475.8,412.5,476.1,412.5"/>
				<path class="st70" d="M480.5,412.8c-1.3-0.8-2.8-1.1-4.5-1.1c-2.7,0.1-5,1.3-6.4,4c-0.4,0.8-0.4,1.7,0.1,2.5
					c1.6,2.5,3.8,4,6.9,3.5c2.7-0.4,4.7-1.9,5.8-4.3c0.1-0.2,0.2-0.4,0.2-0.7C482.7,415,481.9,413.7,480.5,412.8 M475,412.7
					c0.4-0.2,0.8-0.2,1-0.3c0.6,0.1,1,0.1,1.3,0.1c0.2,0,0.5,0.2,0.6,0.4c0.9,1,1.1,2.5,0.5,3.6c-0.8,1.5-3.1,2-4.3,0.8
					C473.1,416.1,473.5,413.5,475,412.7 M481.9,417c-1.5,2.6-3.7,4-6.7,3.9c-0.8,0-1.7-0.3-2.4-0.7c-0.7-0.4-1.3-0.9-1.9-1.4
					c-0.5-0.5-0.9-1.1-0.8-1.8c0-0.1,0-0.2,0-0.3c0.7-1.5,1.6-2.8,3.2-3.5c0,0,0.1,0,0.2,0c-0.6,1.1-0.8,2.1-0.5,3.3
					c0.4,1.8,1.8,2.6,3.5,2.4c2.9-0.3,3.9-3.2,2.9-5.3c-0.1-0.1-0.1-0.3-0.2-0.4c1.8,0.5,2.8,2.2,2.8,3.5
					C482,416.7,481.9,416.9,481.9,417"/>
				<path class="st70" d="M457.4,420.9c0.9-0.5,1.4-1.3,1.8-2.3c0.3-0.8,0.3-1.6,0.1-2.4c-0.5-2.3-2.1-4.4-5-4.4
					c-0.7,0.1-1.5,0.2-2.2,0.3c-2.3,0.5-4.3,1.4-6,3c-0.5,0.5-0.5,0.9-0.4,1.5c0.4,1.7,1.4,3,2.8,4c0.1,0.1,0.3,0.2,0.4,0.3
					c1.4,0.8,2.9,1.2,4.4,1.2C454.7,422.1,456.1,421.7,457.4,420.9 M452.6,413.5c0.7-0.9,1.6-1,2.7-0.8c1.3,0.3,1.8,0.9,2,2.4
					c0,0.1,0,0.3,0,0.4c0,1.6-1.3,3.1-2.9,3.2c-1.5,0.1-2.7-1-2.7-2.5C451.6,415.2,452,414.3,452.6,413.5 M448.6,419.8
					c-1.2-0.9-1.9-2.1-2.3-3.5c0-0.1,0-0.3,0.1-0.4c1.6-1.6,3.5-2.4,5.6-2.9c-0.3,0.7-0.7,1.4-0.9,2.2c-0.6,2.1,0.5,4,2.7,4.4
					c1.3,0.2,2.3-0.2,3.2-1.1c0.8-0.8,1.3-1.9,1.3-3.1c0.5,1,0.6,2,0.4,3.1c-0.1,0.5-0.5,1-0.9,1.3c-1,0.9-2.2,1.3-3.5,1.5
					C452.1,421.5,450.2,421,448.6,419.8"/>
				<line class="st70" x1="466.9" y1="416.9" x2="466.6" y2="421"/>
			</g>
		</g>
	</g>
</g>
<g id="EYES">
	<rect x="99.9" y="266.6" class="st21" width="91.7" height="91.7"/>
	<g>
		<g>
			<defs>
				<rect id="SVGID_70_" x="88.9" y="240.1" width="108.9" height="132.2"/>
			</defs>
			<clipPath id="SVGID_71_">
				<use xlink:href="#SVGID_70_"  style="overflow:visible;"/>
			</clipPath>
			<g class="st71">
				<defs>
					<rect id="SVGID_72_" x="88.9" y="240.1" width="108.9" height="132.2"/>
				</defs>
				<clipPath id="SVGID_73_">
					<use xlink:href="#SVGID_72_"  style="overflow:visible;"/>
				</clipPath>
				<path class="st72" d="M135.9,306.4c-0.7,0.1-1.5,0.2-2.2,0.3c-2.3,0.5-4.3,1.4-6,3c-0.5,0.5-0.5,0.9-0.4,1.5
					c0.4,1.7,1.4,3,2.8,4c2.7,1.9,6.2,1.8,9,0.2c0.9-0.5,1.4-1.3,1.8-2.3c0.3-0.8,0.3-1.6,0.1-2.4
					C140.4,308.5,138.8,306.4,135.9,306.4 M157.6,306.3c-2.7,0.1-5,1.3-6.4,4c-0.4,0.8-0.4,1.7,0.1,2.5c1.6,2.5,3.8,4,6.9,3.5
					c2.7-0.4,4.7-1.9,5.8-4.3c0.1-0.2,0.2-0.4,0.2-0.7c0-1.7-0.7-3-2.2-3.9C160.8,306.6,159.3,306.3,157.6,306.3"/>
				<path class="st73" d="M139.7,309.9c0.5,1,0.6,2,0.4,3.1c-0.1,0.5-0.5,1-0.9,1.3c-1,0.9-2.2,1.3-3.5,1.5c-2,0.3-3.9-0.1-5.5-1.4
					c-1.2-0.9-1.9-2.1-2.3-3.5c0-0.1,0-0.3,0.1-0.4c1.6-1.6,3.5-2.4,5.6-2.9c-0.3,0.7-0.7,1.4-0.9,2.2c-0.6,2.1,0.5,4,2.7,4.4
					c1.3,0.2,2.3-0.2,3.2-1.1C139.3,312.1,139.7,311.1,139.7,309.9"/>
				<path class="st74" d="M138.8,310c0,1.6-1.3,3.1-2.9,3.2c-1.5,0.1-2.7-1-2.7-2.5c0-1,0.3-1.9,1-2.7c0.7-0.9,1.6-1,2.7-0.8
					c1.3,0.3,1.8,0.9,2,2.4C138.8,309.8,138.8,309.9,138.8,310"/>
				<path class="st73" d="M155,307.7c-0.6,1.1-0.8,2.1-0.5,3.3c0.4,1.8,1.8,2.6,3.5,2.4c2.9-0.3,3.9-3.2,2.9-5.3
					c-0.1-0.1-0.1-0.3-0.2-0.4c1.8,0.5,2.8,2.2,2.8,3.5c0,0.1,0,0.3-0.1,0.4c-1.5,2.6-3.7,4-6.7,3.9c-0.8,0-1.7-0.3-2.4-0.7
					c-0.7-0.4-1.3-0.9-1.9-1.4c-0.5-0.5-0.9-1.1-0.8-1.8c0-0.1,0-0.2,0-0.3c0.7-1.5,1.6-2.8,3.2-3.5
					C154.9,307.7,154.9,307.7,155,307.7"/>
				<path class="st74" d="M157.7,307c0.6,0.1,1,0.1,1.3,0.1c0.2,0,0.5,0.2,0.6,0.4c0.9,1,1.1,2.5,0.5,3.6c-0.8,1.5-3.1,2-4.3,0.8
					c-1.2-1.3-0.8-3.8,0.7-4.6C157,307,157.4,307,157.7,307"/>
				<path class="st75" d="M162.1,307.4c-1.3-0.8-2.8-1.1-4.5-1.1c-2.7,0.1-5,1.3-6.4,4c-0.4,0.8-0.4,1.7,0.1,2.5
					c1.6,2.5,3.8,4,6.9,3.5c2.7-0.4,4.7-1.9,5.8-4.3c0.1-0.2,0.2-0.4,0.2-0.7C164.3,309.6,163.5,308.2,162.1,307.4 M156.6,307.2
					c0.4-0.2,0.8-0.2,1-0.3c0.6,0.1,1,0.1,1.3,0.1c0.2,0,0.5,0.2,0.6,0.4c0.9,1,1.1,2.5,0.5,3.6c-0.8,1.5-3.1,2-4.3,0.8
					C154.7,310.6,155.1,308,156.6,307.2 M163.5,311.5c-1.5,2.6-3.7,4-6.7,3.9c-0.8,0-1.7-0.3-2.4-0.7c-0.7-0.4-1.3-0.9-1.9-1.4
					c-0.5-0.5-0.9-1.1-0.8-1.8c0-0.1,0-0.2,0-0.3c0.7-1.5,1.6-2.8,3.2-3.5c0,0,0.1,0,0.2,0c-0.6,1.1-0.8,2.1-0.5,3.3
					c0.4,1.8,1.8,2.6,3.5,2.4c2.9-0.3,3.9-3.2,2.9-5.3c-0.1-0.1-0.1-0.3-0.2-0.4c1.8,0.5,2.8,2.2,2.8,3.5
					C163.6,311.3,163.5,311.4,163.5,311.5"/>
				<path class="st75" d="M139,315.4c0.9-0.5,1.4-1.3,1.8-2.3c0.3-0.8,0.3-1.6,0.1-2.4c-0.5-2.3-2.1-4.4-5-4.4
					c-0.7,0.1-1.5,0.2-2.2,0.3c-2.3,0.5-4.3,1.4-6,3c-0.5,0.5-0.5,0.9-0.4,1.5c0.4,1.7,1.4,3,2.8,4c0.1,0.1,0.3,0.2,0.4,0.3
					c1.4,0.8,2.9,1.2,4.4,1.2C136.3,316.6,137.7,316.2,139,315.4 M134.2,308.1c0.7-0.9,1.6-1,2.7-0.8c1.3,0.3,1.8,0.9,2,2.4
					c0,0.1,0,0.3,0,0.4c0,1.6-1.3,3.1-2.9,3.2c-1.5,0.1-2.7-1-2.7-2.5C133.2,309.7,133.6,308.8,134.2,308.1 M130.2,314.3
					c-1.2-0.9-1.9-2.1-2.3-3.5c0-0.1,0-0.3,0.1-0.4c1.6-1.6,3.5-2.4,5.6-2.9c-0.3,0.7-0.7,1.4-0.9,2.2c-0.6,2.1,0.5,4,2.7,4.4
					c1.3,0.2,2.3-0.2,3.2-1.1c0.8-0.8,1.3-1.9,1.3-3.1c0.5,1,0.6,2,0.4,3.1c-0.1,0.5-0.5,1-0.9,1.3c-1,0.9-2.2,1.3-3.5,1.5
					C133.7,316,131.8,315.6,130.2,314.3"/>
				<line class="st75" x1="148.5" y1="311.4" x2="148.2" y2="315.5"/>
			</g>
		</g>
	</g>
</g>
</svg>
