<?xml version="1.0" encoding="utf-8"?>
<!-- Generator: Adobe Illustrator 21.0.0, SVG Export Plug-In . SVG Version: 6.00 Build 0)  -->
<svg version="1.1" xmlns="http://www.w3.org/2000/svg" xmlns:xlink="http://www.w3.org/1999/xlink" x="0px" y="0px"
	 viewBox="0 0 731.1 500" style="enable-background:new 0 0 731.1 500;" xml:space="preserve">
<style type="text/css">
	.st0{clip-path:url(#SVGID_2_);}
	.st1{clip-path:url(#SVGID_4_);}
	.st2{clip-path:url(#SVGID_4_);fill:#5B7DBD;}
	.st3{clip-path:url(#SVGID_4_);fill:#F3E960;}
	.st4{clip-path:url(#SVGID_4_);fill:#99C45D;}
	.st5{clip-path:url(#SVGID_4_);fill:#D65577;}
	.st6{clip-path:url(#SVGID_4_);fill:#E9A958;}
	.st7{clip-path:url(#SVGID_4_);fill:#635082;}
	.st8{clip-path:url(#SVGID_4_);fill:#AA88BC;}
	.st9{clip-path:url(#SVGID_6_);}
	.st10{clip-path:url(#SVGID_8_);}
	.st11{clip-path:url(#SVGID_8_);fill:#5B7DBD;}
	.st12{clip-path:url(#SVGID_8_);fill:#F3E960;}
	.st13{clip-path:url(#SVGID_8_);fill:#99C45D;}
	.st14{clip-path:url(#SVGID_8_);fill:#D65577;}
	.st15{clip-path:url(#SVGID_8_);fill:#E9A958;}
	.st16{clip-path:url(#SVGID_8_);fill:#635082;}
	.st17{clip-path:url(#SVGID_8_);fill:#AA88BC;}
	.st18{fill:#D24A43;stroke:#713F41;stroke-miterlimit:10;}
	.st19{clip-path:url(#SVGID_10_);}
	.st20{clip-path:url(#SVGID_12_);fill:#4C73AE;}
	.st21{clip-path:url(#SVGID_12_);fill:#8DBBE3;}
	.st22{clip-path:url(#SVGID_12_);}
	.st23{clip-path:url(#SVGID_14_);}
	.st24{clip-path:url(#SVGID_16_);fill:#F9E6D0;}
	.st25{clip-path:url(#SVGID_18_);}
	.st26{clip-path:url(#SVGID_20_);fill:#F9E6D0;}
	.st27{clip-path:url(#SVGID_22_);}
	.st28{clip-path:url(#SVGID_24_);fill:#F9E6D0;}
	.st29{clip-path:url(#SVGID_26_);}
	.st30{clip-path:url(#SVGID_28_);fill:#F9E6D0;}
	.st31{clip-path:url(#SVGID_30_);}
	.st32{clip-path:url(#SVGID_32_);fill:#F9E6D0;}
	.st33{clip-path:url(#SVGID_34_);}
	.st34{clip-path:url(#SVGID_36_);fill:#F9E6D0;}
	.st35{clip-path:url(#SVGID_36_);}
	.st36{clip-path:url(#SVGID_38_);}
	.st37{clip-path:url(#SVGID_40_);fill:#F9E6D0;}
	.st38{clip-path:url(#SVGID_42_);}
	.st39{clip-path:url(#SVGID_44_);fill:#F9E6D0;}
	.st40{clip-path:url(#SVGID_44_);}
	.st41{clip-path:url(#SVGID_46_);}
	.st42{clip-path:url(#SVGID_48_);fill:#4C73AE;}
	.st43{clip-path:url(#SVGID_48_);fill:#8DBBE3;}
	.st44{clip-path:url(#SVGID_48_);}
	.st45{clip-path:url(#SVGID_50_);}
	.st46{clip-path:url(#SVGID_52_);fill:#F9E6D0;}
	.st47{clip-path:url(#SVGID_52_);}
	.st48{clip-path:url(#SVGID_54_);}
	.st49{clip-path:url(#SVGID_56_);fill:#F9E6D0;}
	.st50{clip-path:url(#SVGID_58_);}
	.st51{clip-path:url(#SVGID_60_);fill:#F9E6D0;}
	.st52{clip-path:url(#SVGID_62_);}
	.st53{clip-path:url(#SVGID_64_);fill:#F9E6D0;}
	.st54{clip-path:url(#SVGID_64_);}
		#R1E1,	#R1E2, 	#R1E3,	#R1E4,
	#R2E1,	#R2E2,	#R2E3,	#R2E4,
	#R3E1,	#R3E2,	#R3E3,	#R3E4,
	#R4E1,	#R4E2,	#R4E3,	#R4E4 { opacity: 0; transition: all .3s;}
	.act { opacity: 1 !important; }
</style>
<g id="BALL2">
	<g>
		<g>
			<defs>
				<rect id="SVGID_1_" x="532" y="387.2" width="93.3" height="98.4"/>
			</defs>
			<clipPath id="SVGID_2_">
				<use xlink:href="#SVGID_1_"  style="overflow:visible;"/>
			</clipPath>
			<g class="st0">
				<defs>
					<rect id="SVGID_3_" x="532" y="387.2" width="93.3" height="98.4"/>
				</defs>
				<clipPath id="SVGID_4_">
					<use xlink:href="#SVGID_3_"  style="overflow:visible;"/>
				</clipPath>
				<path class="st1" d="M576,474.7c-1.8-0.3-3.7-0.5-5.5-1c-11.8-2.7-20.6-9.4-26-20.3c-11.3-22.7,1.9-49.8,27.1-54.7
					c7.7-1.5,15.2-0.8,22.3,2.5c13,6,20.7,16.1,22.7,30.3c2.8,20.5-12,39.9-32.4,42.6c-0.9,0.1-1.9,0.3-2.8,0.5H576z M609.6,456
					c0.3-0.4,0.5-0.8,0.7-1.1c8.2-13.9,6.2-31.9-4.9-43.5c-3.4-3.6-2.1-3-6.9-2.6c-11,0.8-20.8,4.6-29.4,11.5c-1.2,0.9-2.3,2-3.4,3
					c2.7,2.5,2.6,2.5,4.1,6.6c0.1,0.3,0.7,0.6,1.1,0.7c2,0.7,4,1.1,5.9,1.9c11.7,4.6,21.6,11.8,30.2,20.9
					C607.8,454.1,608.7,455,609.6,456 M569.9,431.4c-1.5,4-1.8,4.7-3.5,5.8c-0.7,0.5-0.7,1-0.4,1.7c1.5,3.2,2.9,6.5,4.6,9.6
					c4.4,8.2,10.1,15.5,15.7,22.9c0.5,0.6,1,0.5,1.6,0.3c5.9-1.6,11.1-4.4,15.5-8.5c2.2-2,4.1-4.2,5.8-6.8
					C598.2,444.8,585.8,435.5,569.9,431.4 M586,472.3c-0.3-0.4-0.3-0.6-0.5-0.8c-1.5-1.9-2.9-3.9-4.5-5.8
					c-6.4-8.2-12.4-16.5-16.3-26.3c-0.3-0.7-0.6-0.8-1.3-0.6c-2.2,0.6-4.4,0.4-6.3-0.9c-0.7-0.5-1.1-0.4-1.4,0.4
					c-1.1,2.7-2.5,5.4-3.5,8.1c-1.2,3.2-2.1,6.5-3.2,9.8c-0.3,1-0.1,1.7,0.5,2.4c7.9,9.9,18.2,14.6,30.8,14.3
					C582.2,472.9,584,472.6,586,472.3 M601.9,408c-1.5-1.1-2.8-2.1-4.1-2.9c-1-0.7-2.2-1.2-3.3-1.7c-11.7-5.3-23.2-4.8-34.3,1.5
					c-0.4,0.3-0.9,0.8-1,1.3c-0.5,5.1-0.5,10.2,0.3,15.3c0.1,0.7,0.4,0.8,1,0.8c1,0,2,0,3,0.2c0.8,0.2,1.3,0,1.9-0.5
					c8.1-7.2,17.6-11.5,28.2-13.1C596.2,408.4,598.9,408.3,601.9,408 M542.3,437.7c2.8-2.9,5.8-5.5,9.4-7.2c0.7-0.3,1.1-0.8,1.2-1.6
					c0.5-2.5,1.8-4.5,4.1-5.6c1.1-0.6,1.2-1.3,1.1-2.4c-0.2-2.5-0.3-5.1-0.2-7.7c0-2.3,0.3-4.5,0.4-6.8
					C549.9,409.3,540.5,427.7,542.3,437.7 M548,456.6c0.2-0.2,0.3-0.3,0.3-0.4c1-4.1,2.1-8.2,4-12c1-2.1,1.8-4.4,2.6-6.7
					c0.1-0.3,0.3-0.8,0.1-1.1c-0.8-1.6-1.7-3.1-2.6-4.8c0,0-0.3,0-0.5,0.1c-3.6,1.7-6.8,3.9-9.4,6.9c-0.3,0.4-0.5,1.1-0.4,1.7
					c0.6,4.6,1.6,9.1,4,13.2C546.8,454.5,547.4,455.5,548,456.6 M560.5,437.7c4.3-0.1,7.5-3.3,7.4-7.4c-0.1-4.1-3.3-7.2-7.4-7.2
					c-4.1,0.1-7.1,3.3-7.2,7.5C553.3,434.4,557.1,438.1,560.5,437.7"/>
				<path class="st2" d="M609.6,456c-0.9-1-1.7-1.9-2.6-2.8c-8.6-9-18.5-16.3-30.2-20.9c-1.9-0.8-4-1.2-5.9-1.9
					c-0.4-0.1-1-0.4-1.1-0.7c-1.5-4-1.5-4-4.1-6.6c1.2-1,2.3-2,3.4-3c8.6-6.9,18.5-10.6,29.4-11.5c4.8-0.4,3.5-0.9,6.9,2.6
					c11.1,11.7,13.1,29.7,4.9,43.5C610.1,455.2,609.9,455.6,609.6,456"/>
				<path class="st3" d="M569.9,431.4c15.8,4.1,28.2,13.4,39.3,25c-1.6,2.6-3.6,4.8-5.8,6.8c-4.5,4.1-9.7,7-15.5,8.5
					c-0.6,0.2-1.1,0.3-1.6-0.3c-5.6-7.4-11.3-14.7-15.7-22.9c-1.7-3.1-3.1-6.4-4.6-9.6c-0.3-0.7-0.3-1.2,0.4-1.7
					C568.1,436.1,568.4,435.4,569.9,431.4"/>
				<path class="st4" d="M586,472.3c-2,0.2-3.8,0.6-5.6,0.6c-12.6,0.4-22.9-4.4-30.8-14.3c-0.6-0.8-0.9-1.5-0.5-2.4
					c1.1-3.3,2-6.6,3.2-9.8c1-2.8,2.3-5.4,3.5-8.1c0.3-0.8,0.8-0.9,1.4-0.4c2,1.4,4.1,1.5,6.3,0.9c0.7-0.2,1-0.1,1.3,0.6
					c3.8,9.7,9.9,18.1,16.3,26.3c1.5,1.9,3,3.9,4.5,5.8C585.7,471.7,585.8,471.9,586,472.3"/>
				<path class="st5" d="M601.9,408c-3,0.3-5.7,0.4-8.3,0.8c-10.7,1.6-20.2,5.8-28.2,13.1c-0.6,0.5-1.1,0.7-1.9,0.5
					c-1-0.2-2-0.3-3-0.2c-0.7,0-0.9-0.1-1-0.8c-0.7-5.1-0.8-10.2-0.3-15.3c0-0.5,0.5-1.1,1-1.3c11.2-6.3,22.7-6.7,34.3-1.5
					c1.1,0.5,2.2,1.1,3.3,1.7C599.1,405.9,600.4,406.9,601.9,408"/>
				<path class="st6" d="M548,456.6c-0.6-1.1-1.2-2.1-1.7-3c-2.4-4.1-3.5-8.6-4-13.2c-0.1-0.5,0.1-1.3,0.4-1.7
					c2.6-3.1,5.8-5.3,9.4-6.9c0.2-0.1,0.5-0.1,0.5-0.1c0.9,1.7,1.8,3.2,2.6,4.8c0.1,0.3,0,0.8-0.1,1.1c-0.8,2.2-1.6,4.5-2.6,6.7
					c-1.9,3.9-3,7.9-4,12C548.3,456.3,548.2,456.3,548,456.6"/>
				<path class="st7" d="M560.5,437.7c-3.4,0.4-7.2-3.3-7.2-7.1c0-4.1,3.1-7.4,7.2-7.5c4.1-0.1,7.4,3.1,7.4,7.2
					C568,434.4,564.8,437.6,560.5,437.7"/>
				<path class="st8" d="M557.9,413.1c0-2.3,0.3-4.5,0.4-6.8c-8.4,2.9-17.8,21.3-16,31.4c2.8-2.9,5.8-5.5,9.4-7.2
					c0.7-0.3,1.1-0.8,1.2-1.6c0.5-2.5,1.8-4.5,4.1-5.6c1.1-0.6,1.2-1.3,1.1-2.4C557.9,418.2,557.8,415.7,557.9,413.1"/>
			</g>
		</g>
	</g>
</g>
<g id="BALL1">
	<g>
		<g>
			<defs>
				<rect id="SVGID_5_" x="9.2" y="386.2" width="93.3" height="98.4"/>
			</defs>
			<clipPath id="SVGID_6_">
				<use xlink:href="#SVGID_5_"  style="overflow:visible;"/>
			</clipPath>
			<g class="st9">
				<defs>
					<rect id="SVGID_7_" x="9.2" y="386.2" width="93.3" height="98.4"/>
				</defs>
				<clipPath id="SVGID_8_">
					<use xlink:href="#SVGID_7_"  style="overflow:visible;"/>
				</clipPath>
				<path class="st10" d="M53.2,473.7c-1.8-0.3-3.7-0.5-5.5-1c-11.8-2.7-20.6-9.4-26-20.3c-11.3-22.7,1.9-49.8,27.1-54.7
					c7.7-1.5,15.2-0.8,22.3,2.5c13,6,20.7,16.1,22.7,30.3c2.8,20.5-12,39.9-32.4,42.6c-0.9,0.1-1.9,0.3-2.8,0.5H53.2z M86.7,455
					c0.3-0.4,0.5-0.8,0.7-1.1c8.2-13.9,6.2-31.9-4.9-43.5c-3.4-3.6-2.1-3-6.9-2.6c-11,0.8-20.8,4.6-29.4,11.5c-1.2,0.9-2.3,2-3.4,3
					c2.7,2.5,2.6,2.5,4.1,6.6c0.1,0.3,0.7,0.6,1.1,0.7c2,0.7,4,1.1,5.9,1.9c11.7,4.6,21.6,11.8,30.2,20.9
					C85,453.1,85.8,454,86.7,455 M47.1,430.4c-1.5,4-1.8,4.7-3.5,5.8c-0.7,0.5-0.7,1-0.4,1.7c1.5,3.2,2.9,6.5,4.6,9.6
					c4.4,8.2,10.1,15.5,15.7,22.9c0.5,0.6,1,0.5,1.6,0.3c5.9-1.6,11.1-4.4,15.5-8.5c2.2-2,4.1-4.2,5.8-6.8
					C75.3,443.8,62.9,434.5,47.1,430.4 M63.2,471.3c-0.3-0.4-0.3-0.6-0.5-0.8c-1.5-1.9-2.9-3.9-4.5-5.8
					c-6.4-8.2-12.4-16.5-16.3-26.3c-0.3-0.7-0.6-0.8-1.3-0.6c-2.2,0.6-4.4,0.4-6.3-0.9c-0.7-0.5-1.1-0.4-1.4,0.4
					c-1.1,2.7-2.5,5.4-3.5,8.1c-1.2,3.2-2.1,6.5-3.2,9.8c-0.3,1-0.1,1.7,0.5,2.4c7.9,9.9,18.2,14.6,30.8,14.3
					C59.4,471.9,61.2,471.6,63.2,471.3 M79,407c-1.5-1.1-2.8-2.1-4.1-2.9c-1-0.7-2.2-1.2-3.3-1.7c-11.7-5.3-23.2-4.8-34.3,1.5
					c-0.4,0.3-0.9,0.8-1,1.3c-0.5,5.1-0.5,10.2,0.3,15.3c0.1,0.7,0.4,0.8,1,0.8c1,0,2,0,3,0.2c0.8,0.2,1.3,0,1.9-0.5
					c8.1-7.2,17.6-11.5,28.2-13.1C73.3,407.4,76,407.3,79,407 M19.5,436.7c2.8-2.9,5.8-5.5,9.4-7.2c0.7-0.3,1.1-0.8,1.2-1.6
					c0.5-2.5,1.8-4.5,4.1-5.6c1.1-0.6,1.2-1.3,1.1-2.4c-0.2-2.5-0.3-5.1-0.2-7.7c0-2.3,0.3-4.5,0.4-6.8
					C27.1,408.3,17.7,426.7,19.5,436.7 M25.2,455.6c0.2-0.2,0.3-0.3,0.3-0.4c1-4.1,2.1-8.2,4-12c1-2.1,1.8-4.4,2.6-6.7
					c0.1-0.3,0.3-0.8,0.1-1.1c-0.8-1.6-1.7-3.1-2.6-4.8c0,0-0.3,0-0.5,0.1c-3.6,1.7-6.8,3.9-9.4,6.9c-0.3,0.4-0.5,1.1-0.4,1.7
					c0.6,4.6,1.6,9.1,4,13.2C24,453.5,24.5,454.5,25.2,455.6 M37.7,436.7c4.3-0.1,7.5-3.3,7.4-7.4c-0.1-4.1-3.3-7.2-7.4-7.2
					c-4.1,0.1-7.1,3.3-7.2,7.5C30.4,433.4,34.3,437.1,37.7,436.7"/>
				<path class="st11" d="M86.7,455c-0.9-1-1.7-1.9-2.6-2.8c-8.6-9-18.5-16.3-30.2-20.9c-1.9-0.8-4-1.2-5.9-1.9
					c-0.4-0.1-1-0.4-1.1-0.7c-1.5-4-1.5-4-4.1-6.6c1.2-1,2.3-2,3.4-3c8.6-6.9,18.5-10.6,29.4-11.5c4.8-0.4,3.5-0.9,6.9,2.6
					c11.1,11.7,13.1,29.7,4.9,43.5C87.2,454.2,87,454.6,86.7,455"/>
				<path class="st12" d="M47.1,430.4c15.8,4.1,28.2,13.4,39.3,25c-1.6,2.6-3.6,4.8-5.8,6.8c-4.5,4.1-9.7,7-15.5,8.5
					c-0.6,0.2-1.1,0.3-1.6-0.3c-5.6-7.4-11.3-14.7-15.7-22.9c-1.7-3.1-3.1-6.4-4.6-9.6c-0.3-0.7-0.3-1.2,0.4-1.7
					C45.3,435.1,45.6,434.4,47.1,430.4"/>
				<path class="st13" d="M63.2,471.3c-2,0.2-3.8,0.6-5.6,0.6c-12.6,0.4-22.9-4.4-30.8-14.3c-0.6-0.8-0.9-1.5-0.5-2.4
					c1.1-3.3,2-6.6,3.2-9.8c1-2.8,2.3-5.4,3.5-8.1c0.3-0.8,0.8-0.9,1.4-0.4c2,1.4,4.1,1.5,6.3,0.9c0.7-0.2,1-0.1,1.3,0.6
					c3.8,9.7,9.9,18.1,16.3,26.3c1.5,1.9,3,3.9,4.5,5.8C62.8,470.7,62.9,470.9,63.2,471.3"/>
				<path class="st14" d="M79,407c-3,0.3-5.7,0.4-8.3,0.8c-10.7,1.6-20.2,5.8-28.2,13.1c-0.6,0.5-1.1,0.7-1.9,0.5
					c-1-0.2-2-0.3-3-0.2c-0.7,0-0.9-0.1-1-0.8c-0.7-5.1-0.8-10.2-0.3-15.3c0-0.5,0.5-1.1,1-1.3c11.2-6.3,22.7-6.7,34.3-1.5
					c1.1,0.5,2.2,1.1,3.3,1.7C76.3,404.9,77.5,405.9,79,407"/>
				<path class="st15" d="M25.2,455.6c-0.6-1.1-1.2-2.1-1.7-3c-2.4-4.1-3.5-8.6-4-13.2c-0.1-0.5,0.1-1.3,0.4-1.7
					c2.6-3.1,5.8-5.3,9.4-6.9c0.2-0.1,0.5-0.1,0.5-0.1c0.9,1.7,1.8,3.2,2.6,4.8c0.1,0.3,0,0.8-0.1,1.1c-0.8,2.2-1.6,4.5-2.6,6.7
					c-1.9,3.9-3,7.9-4,12C25.5,455.3,25.4,455.3,25.2,455.6"/>
				<path class="st16" d="M37.7,436.7c-3.4,0.4-7.2-3.3-7.2-7.1c0-4.1,3.1-7.4,7.2-7.5c4.1-0.1,7.4,3.1,7.4,7.2
					C45.2,433.4,42,436.6,37.7,436.7"/>
				<path class="st17" d="M35,412.1c0-2.3,0.3-4.5,0.4-6.8c-8.4,2.9-17.8,21.3-16,31.4c2.8-2.9,5.8-5.5,9.4-7.2
					c0.7-0.3,1.1-0.8,1.2-1.6c0.5-2.5,1.8-4.5,4.1-5.6c1.1-0.6,1.2-1.3,1.1-2.4C35.1,417.2,35,414.7,35,412.1"/>
			</g>
		</g>
	</g>
</g>
<g id="BLOCKS">
	<polyline class="st18" points="117,50 208,50 208,141 117,141 	"/>
	<rect x="222.6" y="50" class="st18" width="91" height="91"/>
	<rect x="328.2" y="50" class="st18" width="91" height="91"/>
	<polyline class="st18" points="523,141 432,141 432,50 523,50 	"/>
	<rect x="171.6" y="155.6" class="st18" width="91" height="91"/>
	<rect x="277.2" y="155.6" class="st18" width="91" height="91"/>
	<rect x="382.8" y="155.6" class="st18" width="91" height="91"/>
	<rect x="172.5" y="261.2" class="st18" width="91" height="91"/>
	<rect x="278.1" y="261.2" class="st18" width="91" height="91"/>
	<rect x="381.9" y="261.2" class="st18" width="91" height="91"/>
	<polyline class="st18" points="117,366.8 208,366.8 208,457.8 117,457.8 	"/>
	<rect x="222.6" y="366.8" class="st18" width="91" height="91"/>
	<rect x="328.2" y="366.8" class="st18" width="91" height="91"/>
	<polyline class="st18" points="523,457.8 432,457.8 432,366.8 523,366.8 	"/>
</g>
<g id="R1E1">
	<polyline class="st18" points="117,50 208,50 208,141 117,141 	"/>
	<g>
		<g>
			<defs>
				<rect id="SVGID_9_" x="124.1" y="58.8" width="78.9" height="66.1"/>
			</defs>
			<clipPath id="SVGID_10_">
				<use xlink:href="#SVGID_9_"  style="overflow:visible;"/>
			</clipPath>
			<g class="st19">
				<defs>
					<rect id="SVGID_11_" x="124.1" y="58.8" width="78.9" height="66.1"/>
				</defs>
				<clipPath id="SVGID_12_">
					<use xlink:href="#SVGID_11_"  style="overflow:visible;"/>
				</clipPath>
				<path class="st20" d="M168.4,82.8c7.8,1.5,15.4,0.8,22.9-1.7c-0.1-1.4-0.2-2.6-0.3-4c-0.8,0.4-1.5,0.8-2.2,1
					c-1.1,0.3-2.3,0.4-3.5,0.5c-5.3,0.4-10.5,0.1-15.7-0.8c-5-0.8-9.8-2.2-14.3-4.4c-2.5-1.2-4.9-2.7-6.3-5.3
					c-0.1-0.2-0.4-0.3-0.7-0.4c-0.5,1.1-1,2.1-1.5,3C150.5,75.6,160.8,81.3,168.4,82.8"/>
				<path class="st21" d="M167,84.3c-8.2-1.9-15.2-5.9-21.1-12.1c-0.2,0.3-0.3,0.5-0.4,0.7c-2.7,5.2-5.4,10.4-8.5,15.4
					c-1.1,1.7-1.7,3.6-2.1,5.6c-0.3,1.6-0.8,3.1-1.2,4.7c0,0.1-0.1,0.3-0.1,0.4c0,0,0,0,0,0c0,0.1-0.1,0.2-0.1,0.3c0,0,0,0,0,0
					c-0.1,0.2-0.2,0.4-0.4,0.6c0.3,0.6,0.8,1.2,1.3,1.7c1.2,1.3,2.7,2.3,4.2,3.1c0.7,0.1,1.3,0.2,2,0.4c0,0,0.1,0,0.1,0
					c0.2,0.1,0.4,0.1,0.6,0.2c0.1,0,0.1,0.1,0.2,0.1c0.3,0.1,0.5,0.2,0.8,0.3c0.2,0.1,0.3,0.1,0.5,0.2c0.1,0,0.2,0.1,0.3,0.1
					c0.3,0.1,0.5,0.3,0.8,0.4c-1.4-2-2.9-3.9-2.1-6.8c0.6,1.1,1,2.1,1.6,3c0.6,0.9,1.1,1.8,2.2,2.5c-0.2-3.2,0.3-6.1,1-9.2
					c-0.9,0.3-1.5,0.6-2.2,0.9c0.8-1,1.7-1.8,2.6-2.6c0.4-0.3,0.9-0.6,1.4-0.3c0.6,0.4,0.4,1,0.2,1.5c-0.1,0.2-0.2,0.4-0.2,0.6
					c-1,3-1.7,6.1-1.8,9.3c0,0.9,0.3,1.6,0.9,2.2c1.5,1.6,2.9,3.3,4.2,5c0.1,0.1,0.2,0.2,0.3,0.3c0.1,0,0.2,0.1,0.3,0.1
					c1.6,0.6,3.2,1.1,4.8,1.5c5.6,1.5,11.3,2,17,0.6c3.4-0.8,6.3-2.3,8.5-5.1c2-2.5,4.3-4.7,7.1-6.4c1.3-0.8,2.7-1.4,4.2-1.3
					c0,0,0,0,0,0c-0.9-6.4-1.7-12.9-2.5-19.4C183.3,85.5,175.2,86.2,167,84.3"/>
				<path class="st22" d="M147.4,107.6c-0.6-0.7-0.9-1.4-0.9-2.2c0-3.2,0.8-6.3,1.8-9.3c0.1-0.2,0.2-0.4,0.2-0.6
					c0.2-0.5,0.4-1.1-0.2-1.5c-0.5-0.4-1-0.1-1.4,0.3c-0.9,0.8-1.8,1.6-2.6,2.6c0.7-0.3,1.4-0.5,2.2-0.9c-0.7,3.1-1.2,6-1,9.2
					c-1.1-0.7-1.6-1.6-2.2-2.5c-0.6-0.9-1-1.9-1.6-3c-0.7,2.9,0.8,4.8,2.1,6.8c-0.3-0.1-0.5-0.3-0.8-0.4c-0.1,0-0.2-0.1-0.3-0.1
					c-0.2-0.1-0.3-0.2-0.5-0.2c-0.3-0.1-0.5-0.2-0.8-0.3c-0.1,0-0.1-0.1-0.2-0.1c-0.2-0.1-0.4-0.1-0.6-0.2c0,0-0.1,0-0.1,0
					c-0.6-0.2-1.3-0.3-2-0.4c0.7,0.4,1.4,0.7,2.1,1c2.3,1,4.4,2.4,6.3,4.1c1.4,1.3,3,2.4,4.8,3.1c-0.1-0.1-0.2-0.2-0.3-0.3
					C150.3,110.9,148.9,109.2,147.4,107.6"/>
				<path class="st22" d="M191.3,81.1c-7.5,2.5-15.1,3.2-22.9,1.7c-7.5-1.5-17.9-7.2-21.6-12.1c0.1-0.1,0.1-0.3,0.2-0.4l-1.3,2.4
					l0,0c0.1-0.2,0.2-0.3,0.3-0.6c5.9,6.2,12.9,10.2,21.1,12.1c8.2,1.9,16.2,1.2,24.3-1.3c0,0.2,0.1,0.4,0.1,0.7l0,0L191.3,81.1z"/>
			</g>
		</g>
	</g>
</g>
<g id="R1E2">
	<rect x="222.6" y="50" class="st18" width="91" height="91"/>
	<g>
		<g>
			<defs>
				<rect id="SVGID_13_" x="227" y="61.1" width="82.1" height="68.9"/>
			</defs>
			<clipPath id="SVGID_14_">
				<use xlink:href="#SVGID_13_"  style="overflow:visible;"/>
			</clipPath>
			<g class="st23">
				<defs>
					<rect id="SVGID_15_" x="227" y="61.1" width="82.1" height="68.9"/>
				</defs>
				<clipPath id="SVGID_16_">
					<use xlink:href="#SVGID_15_"  style="overflow:visible;"/>
				</clipPath>
				<path class="st24" d="M255.2,96.6c2.1-1.1,4.1-2.2,6.2-3.3c-0.1-0.9-0.7-1-1.4-0.8c-1.4,0.4-2.8,0.8-4.1,1.4
					c-1.1,0.5-2.1,1.1-3.1,1.8c-0.3,0.2-0.5,0.6-0.8,1C253.2,97,254.2,97.1,255.2,96.6"/>
				<path class="st24" d="M248.7,101.1c0.4,0.2,0.9,0.5,1.2,0.7c2.3,1.7,4.6,1.6,6.8-0.1c0.2-0.2,0.5-0.3,0.8-0.5
					c2-1.1,4.1-2.3,6.2-3.4c-0.4-0.6-0.8-1.3-1.4-2.2c-1.8,0.9-3.5,1.7-5,2.6c-2.1,1.3-4.3,1.5-6.6,0.6c-0.8-0.3-1.7-0.6-2.6-1
					C247.1,99.7,247.3,100.2,248.7,101.1"/>
				<path class="st24" d="M290.8,99.5c-0.3-1.8-0.5-3.7-0.7-5.6c-0.4-4.3-1.1-8.6-0.2-13c0,0,0,0,0,0c0-0.1,0-0.2,0.1-0.3
					c0,0,0,0,0,0c-0.1-0.9-0.5-1.5-1.1-2.1c-2.6-2.2-5.6-2.6-8.8-2.4c-0.7,0.1-1.5,0.2-2.1,0.4c-0.2,0.5-0.5,1-0.7,1.5
					c-0.1,0.2-0.2,0.4-0.3,0.6c-0.1,0.2-0.2,0.3-0.4,0.5c0,0,0,0,0,0c-0.3,0.3-0.6,0.7-0.9,0.9c0,0,0,0-0.1,0.1
					c-0.8,0.6-1.7,1.1-2.6,1.5c-3.3,1.4-6.4,3.1-9,5.7c-0.6,0.6-1,1.1-1.1,2c0,0.5-0.1,1-0.3,1.4c-0.4,1-0.2,1.9,0.2,2.8
					c0.8,1.6,1.6,3.1,2.4,4.7c0.2,0.4,0.4,0.8,0.6,1.1c-0.4,0.1-0.8,0-1.1,0.2c-0.6,0.4-1.2,1-1.8,1.4c-1.2,0.7-2.4,1.4-3.6,2.1
					c-1.2,0.7-2.3,1.3-3.5,1.9c-1.6,0.8-3.2,0.9-4.9,0.1c-1.2-0.6-2.3-1.2-3.5-1.9c-1.3-0.7-2.2-0.1-2.2,1.4c0,0.9,0.5,1.5,1.2,1.9
					c1.3,0.8,2.5,1.6,3.9,2.5c1.8-1.6,3.9-1.9,6.1-1.8c2.4,0.1,4.5-0.5,6.3-2.2c1.2-1,2.5-1.9,3.9-2.6c0.9-0.5,1.7-0.3,1.9,0.3
					c0.3,0.8-0.2,1.2-0.7,1.7c-0.1,0.1-0.2,0.1-0.3,0.2c-1.6,1.1-3.1,2.4-4.7,3.4c-1.1,0.6-2.3,1.2-3.5,1.4c-1.5,0.3-3,0.2-4.5,0.3
					c-1.2,0.1-2.4,0.3-3,1.5c0.9,0.9,1.3,1.3,2.6,1.6c4.7,1.4,9.4,1.2,14.1-0.3c1.8-0.6,3-2,3.8-3.7c0.9-2.1,2.3-3.6,4.3-4.8
					c0.8-0.5,1.7-0.9,2.6-1.3c1.4-0.8,1.4-0.8,1-2.4c-0.3-1.4-0.8-2.8-1-4.2c-0.2-1.4,0-2.6,1.3-3.5c0.2,0.2,0.4,0.3,0.4,0.5
					c0.7,2.8,1.4,5.6,1.9,8.5c0.2,1.2-0.4,2.1-1.4,2.7c-1,0.6-2.2,1.1-3.2,1.7c-1,0.7-2.1,1.5-2.9,2.4c-1.6,2-1.4,5,0.2,6.6
					c0.3-0.1,0.7-0.2,0.9-0.4c2.1-1.8,4.6-2.9,6.9-4.2c1.3-0.7,2.5-1.5,3.7-2.3C290.3,106,291.4,103.2,290.8,99.5"/>
			</g>
		</g>
	</g>
</g>
<g id="R1E3">
	<rect x="328.2" y="50" class="st18" width="91" height="91"/>
	<g>
		<g>
			<defs>
				<rect id="SVGID_17_" x="335.1" y="62.9" width="77.3" height="64.8"/>
			</defs>
			<clipPath id="SVGID_18_">
				<use xlink:href="#SVGID_17_"  style="overflow:visible;"/>
			</clipPath>
			<g class="st25">
				<defs>
					<rect id="SVGID_19_" x="335.1" y="62.9" width="77.3" height="64.8"/>
				</defs>
				<clipPath id="SVGID_20_">
					<use xlink:href="#SVGID_19_"  style="overflow:visible;"/>
				</clipPath>
				<path class="st26" d="M404.7,107.9c-0.1-0.4-0.4-0.7-0.6-1c-1.4-1.5-2.9-2.8-4.8-3.6c-0.2-0.1-0.5-0.1-0.8-0.1
					c2.3,2.2,3.4,4.9,3.9,8C404.5,110.8,405.3,109.6,404.7,107.9"/>
				<path class="st26" d="M364.2,83.6c-1.4-3.3-4.2-5.3-7.6-6.6c-3.1-1.1-5.5-0.2-7.3,2.7c-0.2,0.3-0.3,0.6-0.4,0.9v0
					c0,0.4,0,0.7,0,1.1c0,1,0,2,0,3c-0.1,2.9-0.7,5.7-2.4,8.2c-0.8,1.1-1.5,2.4-2.1,3.7c-1.8,4.2-2.5,8.4-0.2,12.6
					c1.1,2.1,2.7,3.4,5,4c1.6,0.4,2.9-0.1,4.3-0.6c0.9-0.3,1.7-0.7,2.6-0.9c4.7-1.2,9.4-1.1,13.8,0.9c2.4,1.1,4.9,1.6,7.6,1.5
					c0.8-0.1,1.7,0,2.6,0c2.2,0.1,4.2-0.3,6-1.6c1.7-1.2,3.4-1.1,5.1-0.3c0.5,0.3,1.1,0.4,1.6,0.5c1.9,0.4,3.9,0.8,5.9,0.2
					c1.2-0.3,1.6-0.9,1.4-2c-0.4-2.7-1.6-4.9-3.9-6.4c-0.6-0.4-1.5-0.7-2.2-0.5c-2.5,0.6-5.1,0.3-7.6,0.4c-2.4,0.1-4.5-0.6-6.4-1.9
					c-2.6-1.7-5.1-3.7-7.2-6c-2.4-2.7-4.6-5.5-7.1-8.1c-0.2-0.2-0.3-0.4-0.5-0.6c-0.1-0.1-0.2-0.3-0.3-0.4c0-0.1-0.1-0.1-0.1-0.2
					c-0.1-0.2-0.2-0.3-0.3-0.5c0,0,0,0,0,0C364,85.8,363.9,84.8,364.2,83.6"/>
			</g>
		</g>
	</g>
</g>
<g id="R1E4">
	<polyline class="st18" points="523,141 432,141 432,50 523,50 	"/>
	<g>
		<g>
			<defs>
				<rect id="SVGID_21_" x="435.9" y="61.1" width="82.1" height="68.9"/>
			</defs>
			<clipPath id="SVGID_22_">
				<use xlink:href="#SVGID_21_"  style="overflow:visible;"/>
			</clipPath>
			<g class="st27">
				<defs>
					<rect id="SVGID_23_" x="435.9" y="61.1" width="82.1" height="68.9"/>
				</defs>
				<clipPath id="SVGID_24_">
					<use xlink:href="#SVGID_23_"  style="overflow:visible;"/>
				</clipPath>
				<path class="st28" d="M464,96.6c2.1-1.1,4.1-2.2,6.2-3.3c-0.1-0.9-0.7-1-1.4-0.8c-1.4,0.4-2.8,0.8-4.1,1.4
					c-1.1,0.5-2.1,1.1-3.1,1.8c-0.3,0.2-0.5,0.6-0.8,1C462.1,97,463,97.1,464,96.6"/>
				<path class="st28" d="M457.5,101.1c0.4,0.2,0.9,0.5,1.2,0.7c2.3,1.7,4.6,1.6,6.8-0.1c0.2-0.2,0.5-0.3,0.8-0.5
					c2-1.1,4.1-2.3,6.2-3.4c-0.4-0.6-0.8-1.3-1.4-2.2c-1.8,0.9-3.5,1.7-5,2.6c-2.1,1.3-4.3,1.5-6.6,0.6c-0.8-0.3-1.7-0.6-2.6-1
					C456,99.7,456.1,100.2,457.5,101.1"/>
				<path class="st28" d="M499.7,99.5c-0.3-1.8-0.5-3.7-0.7-5.6c-0.4-4.3-1.1-8.6-0.2-13c0,0,0,0,0,0c0-0.1,0-0.2,0.1-0.3
					c0,0,0,0,0,0c-0.1-0.9-0.5-1.5-1.1-2.1c-2.6-2.2-5.6-2.6-8.8-2.4c-0.7,0.1-1.5,0.2-2.1,0.4c-0.2,0.5-0.5,1-0.7,1.5
					c-0.1,0.2-0.2,0.4-0.3,0.6c-0.1,0.2-0.2,0.3-0.4,0.5c0,0,0,0,0,0c-0.3,0.3-0.6,0.7-0.9,0.9c0,0,0,0-0.1,0.1
					c-0.8,0.6-1.7,1.1-2.6,1.5c-3.3,1.4-6.4,3.1-9,5.7c-0.6,0.6-1,1.1-1.1,2c0,0.5-0.1,1-0.3,1.4c-0.4,1-0.2,1.9,0.2,2.8
					c0.8,1.6,1.6,3.1,2.4,4.7c0.2,0.4,0.4,0.8,0.6,1.1c-0.4,0.1-0.8,0-1.1,0.2c-0.6,0.4-1.2,1-1.8,1.4c-1.2,0.7-2.4,1.4-3.6,2.1
					c-1.2,0.7-2.3,1.3-3.5,1.9c-1.6,0.8-3.2,0.9-4.9,0.1c-1.2-0.6-2.3-1.2-3.5-1.9c-1.3-0.7-2.2-0.1-2.2,1.4c0,0.9,0.5,1.5,1.2,1.9
					c1.3,0.8,2.5,1.6,3.9,2.5c1.8-1.6,3.9-1.9,6.1-1.8c2.4,0.1,4.5-0.5,6.3-2.2c1.2-1,2.5-1.9,3.9-2.6c0.9-0.5,1.7-0.3,1.9,0.3
					c0.3,0.8-0.2,1.2-0.7,1.7c-0.1,0.1-0.2,0.1-0.3,0.2c-1.6,1.1-3.1,2.4-4.7,3.4c-1.1,0.6-2.3,1.2-3.5,1.4c-1.5,0.3-3,0.2-4.5,0.3
					c-1.2,0.1-2.4,0.3-3,1.5c0.9,0.9,1.3,1.3,2.6,1.6c4.7,1.4,9.4,1.2,14.1-0.3c1.8-0.6,3-2,3.8-3.7c0.9-2.1,2.3-3.6,4.3-4.8
					c0.8-0.5,1.7-0.9,2.6-1.3c1.4-0.8,1.4-0.8,1-2.4c-0.3-1.4-0.8-2.8-1-4.2c-0.2-1.4,0-2.6,1.3-3.5c0.2,0.2,0.4,0.3,0.4,0.5
					c0.7,2.8,1.4,5.6,1.9,8.5c0.2,1.2-0.4,2.1-1.4,2.7c-1,0.6-2.2,1.1-3.2,1.7c-1,0.7-2.1,1.5-2.9,2.4c-1.6,2-1.4,5,0.2,6.6
					c0.3-0.1,0.7-0.2,0.9-0.4c2.1-1.8,4.6-2.9,6.9-4.2c1.3-0.7,2.5-1.5,3.7-2.3C499.1,106,500.3,103.2,499.7,99.5"/>
			</g>
		</g>
	</g>
</g>
<g id="R2E1">
	<rect x="171.6" y="155.6" class="st18" width="91" height="91"/>
	<g>
		<g>
			<defs>
				<rect id="SVGID_25_" x="185.1" y="157.9" width="64" height="84.8"/>
			</defs>
			<clipPath id="SVGID_26_">
				<use xlink:href="#SVGID_25_"  style="overflow:visible;"/>
			</clipPath>
			<g class="st29">
				<defs>
					<rect id="SVGID_27_" x="185.1" y="157.9" width="64" height="84.8"/>
				</defs>
				<clipPath id="SVGID_28_">
					<use xlink:href="#SVGID_27_"  style="overflow:visible;"/>
				</clipPath>
				<path class="st30" d="M235.6,168.6c-1.1-0.6-2.2-1.1-3.2-1.7c-1-0.6-2.2-0.9-3.2-1.5c0,0-0.1,0-0.2,0c-0.1,0.1-0.2,0.2-0.2,0.3
					c-1,2.1-2.1,4.1-3,6.2c-2.9,6.6-5.2,13.4-7.4,20.3c-0.3,0.9-0.5,1.8-0.9,2.6c-1.2,2.9-3.2,5.1-5.7,6.9c-1.6,1.2-3.1,2.3-4.7,3.5
					c-2,1.5-3.7,3.3-4.9,5.4c-0.8,1.4-1.6,2.9-2.3,4.4c-1.3,3.1-2.8,6.1-4.4,9.1c-0.6,1.2-1.4,2.2-2.2,3.1c-0.7,0.7-1.4,1.2-2.2,1.7
					c-0.3,0.2-0.6,0.3-0.9,0.4c0,0.2-0.1,0.4-0.1,0.6c-0.3,3,1.9,5.4,5,5.4c0.9,0,1.7-0.2,2.3-0.5c0.1-0.3,0.3-0.6,0.4-0.8
					c0.1-0.2,0.3-0.4,0.4-0.6c0.5-0.6,0.9-1.3,1.4-2c0.9-1.3,1.8-2.7,2.8-3.9c3-3.5,6-7,9.5-10c2.5-2.2,4.9-4.5,7.4-6.7
					c0.8-0.8,1.7-1.5,2.4-2.3c2.1-2.3,4.1-4.7,6.1-7.1c0.4-0.5,0.8-1,1.2-1.6c1.8-2.6,3.6-5.3,5.2-8c2.1-3.6,4.1-7.1,5.8-10.9
					c1.2-2.6,2.4-5.2,3.6-7.9c0-0.1,0.1-0.2,0.1-0.3c-0.3-0.1-0.5-0.2-0.7-0.3C240.7,171.2,238.1,170,235.6,168.6"/>
			</g>
		</g>
	</g>
</g>
<g id="R2E2">
	<rect x="277.2" y="155.6" class="st18" width="91" height="91"/>
	<g>
		<g>
			<defs>
				<rect id="SVGID_29_" x="289.4" y="170" width="77.3" height="64.8"/>
			</defs>
			<clipPath id="SVGID_30_">
				<use xlink:href="#SVGID_29_"  style="overflow:visible;"/>
			</clipPath>
			<g class="st31">
				<defs>
					<rect id="SVGID_31_" x="289.4" y="170" width="77.3" height="64.8"/>
				</defs>
				<clipPath id="SVGID_32_">
					<use xlink:href="#SVGID_31_"  style="overflow:visible;"/>
				</clipPath>
				<path class="st32" d="M359,215c-0.1-0.4-0.4-0.7-0.6-1c-1.4-1.5-2.9-2.8-4.8-3.6c-0.2-0.1-0.5-0.1-0.8-0.1
					c2.3,2.2,3.4,4.9,3.9,8C358.8,217.9,359.6,216.6,359,215"/>
				<path class="st32" d="M318.5,190.7c-1.4-3.3-4.2-5.3-7.6-6.6c-3.1-1.1-5.5-0.2-7.3,2.7c-0.2,0.3-0.3,0.6-0.4,0.9v0
					c0,0.4,0,0.7,0,1.1c0,1,0,2,0,3c-0.1,2.9-0.7,5.7-2.4,8.2c-0.8,1.1-1.5,2.4-2.1,3.7c-1.8,4.2-2.5,8.4-0.2,12.6
					c1.1,2.1,2.7,3.4,5,4c1.6,0.4,2.9-0.1,4.3-0.6c0.9-0.3,1.7-0.7,2.6-0.9c4.7-1.2,9.4-1.1,13.8,0.9c2.4,1.1,4.9,1.6,7.6,1.5
					c0.8-0.1,1.7,0,2.6,0c2.2,0.1,4.2-0.3,6-1.6c1.7-1.2,3.4-1.1,5.1-0.3c0.5,0.3,1.1,0.4,1.6,0.5c1.9,0.4,3.9,0.8,5.9,0.2
					c1.2-0.3,1.6-0.9,1.4-2c-0.4-2.7-1.6-4.9-3.9-6.4c-0.6-0.4-1.5-0.7-2.2-0.5c-2.5,0.6-5.1,0.3-7.6,0.4c-2.4,0.1-4.5-0.6-6.4-1.9
					c-2.6-1.7-5.1-3.7-7.2-6c-2.4-2.7-4.6-5.5-7.1-8.1c-0.2-0.2-0.3-0.4-0.5-0.6c-0.1-0.1-0.2-0.3-0.3-0.4c0-0.1-0.1-0.1-0.1-0.2
					c-0.1-0.2-0.2-0.3-0.3-0.5c0,0,0,0,0,0C318.3,192.9,318.2,191.9,318.5,190.7"/>
			</g>
		</g>
	</g>
</g>
<g id="R2E3">
	<rect x="382.8" y="155.6" class="st18" width="91" height="91"/>
	<g>
		<g>
			<defs>
				<rect id="SVGID_33_" x="374.7" y="154.7" width="108.7" height="91.2"/>
			</defs>
			<clipPath id="SVGID_34_">
				<use xlink:href="#SVGID_33_"  style="overflow:visible;"/>
			</clipPath>
			<g class="st33">
				<defs>
					<rect id="SVGID_35_" x="374.7" y="154.7" width="108.7" height="91.2"/>
				</defs>
				<clipPath id="SVGID_36_">
					<use xlink:href="#SVGID_35_"  style="overflow:visible;"/>
				</clipPath>
				<path class="st34" d="M430.6,175.1c-3.5,0.4-6.7,1.4-9.6,3.5c-1.9,1.4-2.9,3.1-3.1,5.4c-0.3,2.8,0.2,5.5,1.1,8.1
					c0.9,2.6,1.8,5.3,2.6,8c1.3,4.3,1.3,8.6-0.7,12.7c-0.5,1.1-0.9,2.2-1.3,3.4c-1.4,4.2,0.5,7.9,4.8,9.2c2.9,0.9,5.9,0.3,8-1.5
					c0.3-0.7,0.6-1.4,0.9-2.2c1.7-4.1,1.7-8-0.1-12c-1.9-4.2-3.7-8.5-5.5-12.8c-0.2-0.5-0.4-1.1-0.6-1.6c4.1,4.8,7.2,10.2,9.5,16.3
					c1.9-4,3.7-7.7,3.6-11.9c-0.1-3.8-0.4-7.7-1.4-11.4c-1.2-4.3-2-8.7-2.7-13.1C434.4,174.6,432.5,174.8,430.6,175.1"/>
				<path class="st35" d="M436.5,214.6c0.3-1,0.3-2,0.2-3c-2.3-6.1-5.4-11.5-9.5-16.3c0.2,0.5,0.4,1.1,0.6,1.6
					c1.8,4.3,3.6,8.6,5.5,12.8c1.1,2.5,1.6,5,1.3,7.4C435.5,216.6,436.2,215.6,436.5,214.6"/>
			</g>
		</g>
	</g>
</g>
<g id="R3E1">
	<rect x="172.5" y="261.2" class="st18" width="91" height="91"/>
	<g>
		<g>
			<defs>
				<rect id="SVGID_37_" x="164" y="265.7" width="108.7" height="91.2"/>
			</defs>
			<clipPath id="SVGID_38_">
				<use xlink:href="#SVGID_37_"  style="overflow:visible;"/>
			</clipPath>
			<g class="st36">
				<defs>
					<rect id="SVGID_39_" x="164" y="265.7" width="108.7" height="91.2"/>
				</defs>
				<clipPath id="SVGID_40_">
					<use xlink:href="#SVGID_39_"  style="overflow:visible;"/>
				</clipPath>
				<path class="st37" d="M221.9,298.4c-0.6,0.1-1.3,0.2-1.9,0.3c-3.1,0.7-5.2,2.8-5.4,6c-0.1,1.6,0.3,3.2,0.5,4.7c0,0,0,0,0,0
					c0.4,0.2,0.7,0.4,1,0.6c0,0,0.1,0,0.1,0.1c0.3,0.2,0.6,0.4,0.9,0.6c0.1,0.1,0.2,0.2,0.3,0.3c0.2,0.2,0.5,0.3,0.7,0.5
					c0.3,0.3,0.7,0.6,1,0.9c0.9,0.9,1.7,1.9,2.6,2.8c0.1,0.1,0.3,0.1,0.4,0.1c0.3-0.3,0.5-0.7,0.9-1.1c0.8,1.2,1.6,2.2,2.3,3.3
					c2.4,4,6.3,5.7,10.7,6.6c1.1,0.2,2.5,0.3,3.5-0.2c2.4-1.1,4.7-2.4,6.8-3.9c1.5-1,1.5-1.9,0.7-3.6c-0.7-1.4-1.6-2.8-2.3-4.2
					c-0.6-1.2-1.6-1.8-3-2.1c-2.6-0.4-5.3-0.8-7.4-2.5c-0.6-0.4-1.1-0.9-1.6-1.3c-0.2-0.1-0.3-0.3-0.5-0.4c-0.4-0.4-0.9-0.8-1.3-1.2
					c-0.2-0.2-0.4-0.4-0.7-0.6c-0.3-0.3-0.5-0.5-0.8-0.8c-0.2-0.3-0.5-0.5-0.7-0.8c-0.2-0.2-0.3-0.4-0.5-0.6
					c-0.4-0.5-0.8-1.1-1.2-1.6c-0.1-0.2-0.2-0.3-0.3-0.5c-0.2-0.4-0.5-0.7-0.7-1.1C224.8,298.3,223.5,298.1,221.9,298.4"/>
				<path class="st37" d="M210.8,311.3c1,3.3,1.9,6.2,3.9,8.7c2.1,2.7,4.9,4,8.2,4.3c1.1,0.1,2.2-0.1,2.8-0.7
					c-1.2-2.3-2.2-4.4-3.2-6.4C218.4,315.9,215.6,311.9,210.8,311.3"/>
				<path class="st37" d="M200.7,309.2c0.3,2.7,0.8,5.4,1.8,7.9c0.7,2,2.2,2.9,4.3,2.9c1.3,0,2.6-0.3,3.9-0.4
					c-0.4-2.9-0.9-5.5-1.3-8.1C206.4,310.7,203.6,309.9,200.7,309.2"/>
				<path class="st37" d="M193.6,305c0,2.8-0.1,5.1,0,7.5c0.1,1.2,0.6,2.3,1.1,3.4c0.6,1.3,1.4,1.7,2.4,1.3c1.1-0.4,1.7-1.2,1.5-2.6
					c-0.3-2.2-0.2-4.4,0.6-6.7C197.4,307,195.6,306.1,193.6,305"/>
				<path class="st37" d="M190.1,301.6c-1.4,3.5-1.3,6.9,0.2,9.6c0.3-2.1,0.5-4.1,1-5.9C191.7,303.7,191.5,302.6,190.1,301.6"/>
			</g>
		</g>
	</g>
</g>
<g id="R3E2">
	<rect x="278.1" y="261.2" class="st18" width="91" height="91"/>
	<g>
		<g>
			<defs>
				<rect id="SVGID_41_" x="301.9" y="261.3" width="52.5" height="90.7"/>
			</defs>
			<clipPath id="SVGID_42_">
				<use xlink:href="#SVGID_41_"  style="overflow:visible;"/>
			</clipPath>
			<g class="st38">
				<defs>
					<rect id="SVGID_43_" x="301.9" y="261.3" width="52.5" height="90.7"/>
				</defs>
				<clipPath id="SVGID_44_">
					<use xlink:href="#SVGID_43_"  style="overflow:visible;"/>
				</clipPath>
				<path class="st39" d="M342.3,283.6c0.4-2.6,1.4-4.9,2.7-7.1c0.8-1.5,2.1-2.3,3.7-2.8c0.6-0.2,1.2-0.3,1.8-0.5
					c0.1,0,0.2-0.1,0.3-0.1c-0.2,0-0.4,0-0.6,0c0,0-0.1,0-0.1,0c-0.2,0-0.4,0-0.6-0.1c-2.2-0.3-4.1,0.2-5.7,1.8
					c-2,2-3.9,4.1-5.7,6.4c-3.2,3.9-6.4,7.8-9.7,11.6c-1.8,2.1-3.7,4.2-5.6,6.2c-1,1.1-2.1,2.1-2.6,3.5c-0.5,1.2-0.8,2.3,0.1,3.5
					c0.2,0.2,0.3,0.5,0.5,0.7c0.1,0.1,0.1,0.3,0.2,0.5c-1,0-1.4-0.6-2-1.2c-1,3-1.9,5.9-2.8,8.9c-0.7,2.3-1.6,4.5-2.6,6.6
					c-1.1,2.3-2.1,4.7-3.2,7c-1,2.2-2.1,4.4-3.2,6.6c-0.6,1.2-1.2,2.4-1.8,3.7c0.3-0.1,0.6-0.2,1-0.2c1.5-0.1,2.9,0.1,4.1,1.1
					c0.3,0.3,0.5,0.5,0.5,1c0,0,0,0,0,0c0-0.1,0-0.2,0-0.3c-0.2-0.5,0-0.9,0.2-1.3c1.8-3.6,3.8-7.1,6.3-10.3
					c2.1-2.7,3.9-5.6,5.7-8.6c1.3-2.1,2.1-4.4,2.5-6.8c0.3-1.9,0.7-3.7,1.1-5.6c0.3-1.5,1-2.6,2.3-3.4c1.2-0.7,2.2-1.6,3.4-2.4
					c1.3-0.9,2.5-1.8,3.9-2.6c2-1.1,4-2.1,6-3.1c0.6-0.3,1.1-0.6,1.7-1c-0.3-1-0.5-1.9-0.8-2.8c-0.2-0.9-0.4-1.8-0.6-2.7
					c-0.2-0.8-0.4-1.6-0.3-2.5C342.2,286,342.2,284.8,342.3,283.6 M321.9,306.2c0.8-1.5,1.4-3,1-4.9
					C324,302.8,323.5,304.9,321.9,306.2"/>
				<path class="st40" d="M321.9,306.2c1.7-1.3,2.1-3.4,1-4.9C323.3,303.2,322.7,304.8,321.9,306.2"/>
				<path class="st40" d="M321,307.1c-0.1-0.2-0.2-0.4-0.2-0.5c-0.1-0.2-0.3-0.5-0.5-0.7c-0.5-0.6-0.7-1.2-0.6-1.9
					c0,0-0.1,0.1-0.1,0.1c-0.1,0.2-0.3,0.3-0.4,0.5c-0.1,0.2-0.3,0.5-0.3,0.8c0,0.2,0,0.4,0.1,0.6c0,0,0,0,0,0
					C319.6,306.5,320.1,307.1,321,307.1"/>
			</g>
		</g>
	</g>
</g>
<g id="R3E3">
	<rect x="381.9" y="261.2" class="st18" width="91" height="91"/>
	<g>
		<g>
			<defs>
				<rect id="SVGID_45_" x="389.5" y="271.9" width="78.9" height="66.1"/>
			</defs>
			<clipPath id="SVGID_46_">
				<use xlink:href="#SVGID_45_"  style="overflow:visible;"/>
			</clipPath>
			<g class="st41">
				<defs>
					<rect id="SVGID_47_" x="389.5" y="271.9" width="78.9" height="66.1"/>
				</defs>
				<clipPath id="SVGID_48_">
					<use xlink:href="#SVGID_47_"  style="overflow:visible;"/>
				</clipPath>
				<path class="st42" d="M433.8,295.9c7.8,1.5,15.4,0.8,22.9-1.7c-0.1-1.4-0.2-2.6-0.3-4c-0.8,0.4-1.5,0.8-2.2,1
					c-1.1,0.3-2.3,0.4-3.5,0.5c-5.3,0.4-10.5,0.1-15.7-0.8c-5-0.8-9.8-2.2-14.3-4.4c-2.5-1.2-4.9-2.7-6.3-5.3
					c-0.1-0.2-0.4-0.3-0.7-0.4c-0.5,1.1-1,2.1-1.5,3C415.9,288.7,426.3,294.5,433.8,295.9"/>
				<path class="st43" d="M432.5,297.4c-8.2-1.9-15.2-5.9-21.1-12.1c-0.2,0.3-0.3,0.5-0.4,0.7c-2.7,5.2-5.4,10.4-8.5,15.4
					c-1.1,1.7-1.7,3.6-2.1,5.6c-0.3,1.6-0.8,3.1-1.2,4.7c0,0.1-0.1,0.3-0.1,0.4c0,0,0,0,0,0c0,0.1-0.1,0.2-0.1,0.3c0,0,0,0,0,0
					c-0.1,0.2-0.2,0.4-0.4,0.6c0.3,0.6,0.8,1.2,1.3,1.7c1.2,1.3,2.7,2.3,4.2,3.1c0.7,0.1,1.3,0.2,2,0.4c0,0,0.1,0,0.1,0
					c0.2,0.1,0.4,0.1,0.6,0.2c0.1,0,0.1,0.1,0.2,0.1c0.3,0.1,0.5,0.2,0.8,0.3c0.2,0.1,0.3,0.1,0.5,0.2c0.1,0,0.2,0.1,0.3,0.1
					c0.3,0.1,0.5,0.3,0.8,0.4c-1.4-2-2.9-3.9-2.1-6.8c0.6,1.1,1,2.1,1.6,3c0.6,0.9,1.1,1.8,2.2,2.5c-0.2-3.2,0.3-6.1,1-9.2
					c-0.9,0.3-1.5,0.6-2.2,0.9c0.8-1,1.7-1.8,2.6-2.6c0.4-0.3,0.9-0.6,1.4-0.3c0.6,0.4,0.4,1,0.2,1.5c-0.1,0.2-0.2,0.4-0.2,0.6
					c-1,3-1.7,6.1-1.8,9.3c0,0.9,0.3,1.6,0.9,2.2c1.5,1.6,2.9,3.3,4.2,5c0.1,0.1,0.2,0.2,0.3,0.3c0.1,0,0.2,0.1,0.3,0.1
					c1.6,0.6,3.2,1.1,4.8,1.5c5.6,1.5,11.3,2,17,0.6c3.4-0.8,6.3-2.3,8.5-5.1c2-2.5,4.3-4.7,7.1-6.4c1.3-0.8,2.7-1.4,4.2-1.3
					c0,0,0,0,0,0c-0.9-6.4-1.7-12.9-2.5-19.4C448.7,298.6,440.6,299.3,432.5,297.4"/>
				<path class="st44" d="M412.8,320.7c-0.6-0.7-0.9-1.4-0.9-2.2c0-3.2,0.8-6.3,1.8-9.3c0.1-0.2,0.2-0.4,0.2-0.6
					c0.2-0.5,0.4-1.1-0.2-1.5c-0.5-0.4-1-0.1-1.4,0.3c-0.9,0.8-1.8,1.6-2.6,2.6c0.7-0.3,1.4-0.5,2.2-0.9c-0.7,3.1-1.2,6-1,9.2
					c-1.1-0.7-1.6-1.6-2.2-2.5c-0.6-0.9-1-1.9-1.6-3c-0.7,2.9,0.8,4.8,2.1,6.8c-0.3-0.1-0.5-0.3-0.8-0.4c-0.1,0-0.2-0.1-0.3-0.1
					c-0.2-0.1-0.3-0.2-0.5-0.2c-0.3-0.1-0.5-0.2-0.8-0.3c-0.1,0-0.1-0.1-0.2-0.1c-0.2-0.1-0.4-0.1-0.6-0.2c0,0-0.1,0-0.1,0
					c-0.6-0.2-1.3-0.3-2-0.4c0.7,0.4,1.4,0.7,2.1,1c2.3,1,4.4,2.4,6.3,4.1c1.4,1.3,3,2.4,4.8,3.1c-0.1-0.1-0.2-0.2-0.3-0.3
					C415.7,324,414.3,322.4,412.8,320.7"/>
				<path class="st44" d="M456.7,294.2c-7.5,2.5-15.1,3.2-22.9,1.7c-7.5-1.5-17.9-7.2-21.6-12.1c0.1-0.1,0.1-0.3,0.2-0.4l-1.3,2.4
					l0,0c0.1-0.2,0.2-0.3,0.3-0.6c5.9,6.2,12.9,10.2,21.1,12.1c8.2,1.9,16.2,1.2,24.3-1.3c0,0.2,0.1,0.4,0.1,0.7l0,0L456.7,294.2z"
					/>
			</g>
		</g>
	</g>
</g>
<g id="R4E1">
	<polyline class="st18" points="117,366.8 208,366.8 208,457.8 117,457.8 	"/>
	<g>
		<g>
			<defs>
				<rect id="SVGID_49_" x="136.2" y="366.9" width="52.5" height="90.7"/>
			</defs>
			<clipPath id="SVGID_50_">
				<use xlink:href="#SVGID_49_"  style="overflow:visible;"/>
			</clipPath>
			<g class="st45">
				<defs>
					<rect id="SVGID_51_" x="136.2" y="366.9" width="52.5" height="90.7"/>
				</defs>
				<clipPath id="SVGID_52_">
					<use xlink:href="#SVGID_51_"  style="overflow:visible;"/>
				</clipPath>
				<path class="st46" d="M176.7,389.1c0.4-2.6,1.4-4.9,2.7-7.1c0.8-1.5,2.1-2.3,3.7-2.8c0.6-0.2,1.2-0.3,1.8-0.5
					c0.1,0,0.2-0.1,0.3-0.1c-0.2,0-0.4,0-0.6,0c0,0-0.1,0-0.1,0c-0.2,0-0.4,0-0.6-0.1c-2.2-0.3-4.1,0.2-5.7,1.8
					c-2,2-3.9,4.1-5.7,6.4c-3.2,3.9-6.4,7.8-9.7,11.6c-1.8,2.1-3.7,4.2-5.6,6.2c-1,1.1-2.1,2.1-2.6,3.5c-0.5,1.2-0.8,2.3,0.1,3.5
					c0.2,0.2,0.3,0.5,0.5,0.7c0.1,0.1,0.1,0.3,0.2,0.5c-1,0-1.4-0.6-2-1.2c-1,3-1.9,5.9-2.8,8.9c-0.7,2.3-1.6,4.5-2.6,6.6
					c-1.1,2.3-2.1,4.7-3.2,7c-1,2.2-2.1,4.4-3.2,6.6c-0.6,1.2-1.2,2.4-1.8,3.7c0.3-0.1,0.6-0.2,1-0.2c1.5-0.1,2.9,0.1,4.1,1.1
					c0.3,0.3,0.5,0.5,0.5,1c0,0,0,0,0,0c0-0.1,0-0.2,0-0.3c-0.2-0.5,0-0.9,0.2-1.3c1.8-3.6,3.8-7.1,6.3-10.3
					c2.1-2.7,3.9-5.6,5.7-8.6c1.3-2.1,2.1-4.4,2.5-6.8c0.3-1.9,0.7-3.7,1.1-5.6c0.3-1.5,1-2.6,2.3-3.4c1.2-0.7,2.2-1.6,3.4-2.4
					c1.3-0.9,2.5-1.8,3.9-2.6c2-1.1,4-2.1,6-3.1c0.6-0.3,1.1-0.6,1.7-1c-0.3-1-0.5-1.9-0.8-2.8c-0.2-0.9-0.4-1.8-0.6-2.7
					c-0.2-0.8-0.4-1.6-0.3-2.5C176.6,391.6,176.5,390.4,176.7,389.1 M156.2,411.8c0.8-1.5,1.4-3,1-4.9
					C158.3,408.4,157.9,410.5,156.2,411.8"/>
				<path class="st47" d="M156.2,411.8c1.7-1.3,2.1-3.4,1-4.9C157.6,408.8,157,410.3,156.2,411.8"/>
				<path class="st47" d="M155.3,412.7c-0.1-0.2-0.2-0.4-0.2-0.5c-0.1-0.2-0.3-0.5-0.5-0.7c-0.5-0.6-0.7-1.2-0.6-1.9
					c0,0-0.1,0.1-0.1,0.1c-0.1,0.2-0.3,0.3-0.4,0.5c-0.1,0.2-0.3,0.5-0.3,0.8c0,0.2,0,0.4,0.1,0.6c0,0,0,0,0,0
					C153.9,412.1,154.4,412.7,155.3,412.7"/>
			</g>
		</g>
	</g>
</g>
<g id="R4E2">
	<rect x="222.6" y="366.8" class="st18" width="91" height="91"/>
	<g>
		<g>
			<defs>
				<rect id="SVGID_53_" x="234.6" y="368.8" width="64" height="84.8"/>
			</defs>
			<clipPath id="SVGID_54_">
				<use xlink:href="#SVGID_53_"  style="overflow:visible;"/>
			</clipPath>
			<g class="st48">
				<defs>
					<rect id="SVGID_55_" x="234.6" y="368.8" width="64" height="84.8"/>
				</defs>
				<clipPath id="SVGID_56_">
					<use xlink:href="#SVGID_55_"  style="overflow:visible;"/>
				</clipPath>
				<path class="st49" d="M285.1,379.5c-1.1-0.6-2.2-1.1-3.2-1.7c-1-0.6-2.2-0.9-3.2-1.5c0,0-0.1,0-0.2,0c-0.1,0.1-0.2,0.2-0.2,0.3
					c-1,2.1-2.1,4.1-3,6.2c-2.9,6.6-5.2,13.4-7.4,20.3c-0.3,0.9-0.5,1.8-0.9,2.6c-1.2,2.9-3.2,5.1-5.7,6.9c-1.6,1.2-3.1,2.3-4.7,3.5
					c-2,1.5-3.7,3.3-4.9,5.4c-0.8,1.4-1.6,2.9-2.3,4.4c-1.3,3.1-2.8,6.1-4.4,9.1c-0.6,1.2-1.4,2.2-2.2,3.1c-0.7,0.7-1.4,1.2-2.2,1.7
					c-0.3,0.2-0.6,0.3-0.9,0.4c0,0.2-0.1,0.4-0.1,0.6c-0.3,3,1.9,5.4,5,5.4c0.9,0,1.7-0.2,2.3-0.5c0.1-0.3,0.3-0.6,0.4-0.8
					c0.1-0.2,0.3-0.4,0.4-0.6c0.5-0.6,0.9-1.3,1.4-2c0.9-1.3,1.8-2.7,2.8-3.9c3-3.5,6-7,9.5-10c2.5-2.2,4.9-4.5,7.4-6.7
					c0.8-0.8,1.7-1.5,2.4-2.3c2.1-2.3,4.1-4.7,6.1-7.1c0.4-0.5,0.8-1,1.2-1.6c1.8-2.6,3.6-5.3,5.2-8c2.1-3.6,4.1-7.1,5.8-10.9
					c1.2-2.6,2.4-5.2,3.6-7.9c0-0.1,0.1-0.2,0.1-0.3c-0.3-0.1-0.5-0.2-0.7-0.3C290.1,382.1,287.5,380.9,285.1,379.5"/>
			</g>
		</g>
	</g>
</g>
<g id="R4E3">
	<rect x="328.2" y="366.8" class="st18" width="91" height="91"/>
	<g>
		<g>
			<defs>
				<rect id="SVGID_57_" x="317" y="366.7" width="108.7" height="91.2"/>
			</defs>
			<clipPath id="SVGID_58_">
				<use xlink:href="#SVGID_57_"  style="overflow:visible;"/>
			</clipPath>
			<g class="st50">
				<defs>
					<rect id="SVGID_59_" x="317" y="366.7" width="108.7" height="91.2"/>
				</defs>
				<clipPath id="SVGID_60_">
					<use xlink:href="#SVGID_59_"  style="overflow:visible;"/>
				</clipPath>
				<path class="st51" d="M374.9,399.4c-0.6,0.1-1.3,0.2-1.9,0.3c-3.1,0.7-5.2,2.8-5.4,6c-0.1,1.6,0.3,3.2,0.5,4.7c0,0,0,0,0,0
					c0.4,0.2,0.7,0.4,1,0.6c0,0,0.1,0,0.1,0.1c0.3,0.2,0.6,0.4,0.9,0.6c0.1,0.1,0.2,0.2,0.3,0.3c0.2,0.2,0.5,0.3,0.7,0.5
					c0.3,0.3,0.7,0.6,1,0.9c0.9,0.9,1.7,1.9,2.6,2.8c0.1,0.1,0.3,0.1,0.4,0.1c0.3-0.3,0.5-0.7,0.9-1.1c0.8,1.2,1.6,2.2,2.3,3.3
					c2.4,4,6.3,5.7,10.7,6.6c1.1,0.2,2.5,0.3,3.5-0.2c2.4-1.1,4.7-2.4,6.8-3.9c1.5-1,1.5-1.9,0.7-3.6c-0.7-1.4-1.6-2.8-2.3-4.2
					c-0.6-1.2-1.6-1.8-3-2.1c-2.6-0.4-5.3-0.8-7.4-2.5c-0.6-0.4-1.1-0.9-1.6-1.3c-0.2-0.1-0.3-0.3-0.5-0.4c-0.4-0.4-0.9-0.8-1.3-1.2
					c-0.2-0.2-0.4-0.4-0.7-0.6c-0.3-0.3-0.5-0.5-0.8-0.8c-0.2-0.3-0.5-0.5-0.7-0.8c-0.2-0.2-0.3-0.4-0.5-0.6
					c-0.4-0.5-0.8-1.1-1.2-1.6c-0.1-0.2-0.2-0.3-0.3-0.5c-0.2-0.4-0.5-0.7-0.7-1.1C377.8,399.3,376.5,399.1,374.9,399.4"/>
				<path class="st51" d="M363.8,412.3c1,3.3,1.9,6.2,3.9,8.7c2.1,2.7,4.9,4,8.2,4.3c1.1,0.1,2.2-0.1,2.8-0.7
					c-1.2-2.3-2.2-4.4-3.2-6.4C371.4,416.9,368.6,412.9,363.8,412.3"/>
				<path class="st51" d="M353.7,410.2c0.3,2.7,0.8,5.4,1.8,7.9c0.7,2,2.2,2.9,4.3,2.9c1.3,0,2.6-0.3,3.9-0.4
					c-0.5-2.9-0.9-5.5-1.3-8.1C359.4,411.7,356.6,410.9,353.7,410.2"/>
				<path class="st51" d="M346.6,406c0,2.8-0.1,5.1,0,7.5c0.1,1.2,0.6,2.3,1.1,3.4c0.6,1.3,1.4,1.7,2.4,1.3c1.1-0.4,1.7-1.2,1.5-2.6
					c-0.3-2.2-0.2-4.4,0.6-6.7C350.4,408,348.6,407.1,346.6,406"/>
				<path class="st51" d="M343.1,402.6c-1.4,3.5-1.3,6.9,0.2,9.6c0.3-2.1,0.5-4.1,1-5.9C344.7,404.7,344.5,403.6,343.1,402.6"/>
			</g>
		</g>
	</g>
</g>
<g id="R4E4">
	<polyline class="st18" points="523,457.8 432,457.8 432,366.8 523,366.8 	"/>
	<g>
		<g>
			<defs>
				<rect id="SVGID_61_" x="422.4" y="366.7" width="108.7" height="91.2"/>
			</defs>
			<clipPath id="SVGID_62_">
				<use xlink:href="#SVGID_61_"  style="overflow:visible;"/>
			</clipPath>
			<g class="st52">
				<defs>
					<rect id="SVGID_63_" x="422.4" y="366.7" width="108.7" height="91.2"/>
				</defs>
				<clipPath id="SVGID_64_">
					<use xlink:href="#SVGID_63_"  style="overflow:visible;"/>
				</clipPath>
				<path class="st53" d="M478.3,387.1c-3.5,0.4-6.7,1.4-9.6,3.5c-1.9,1.4-2.9,3.1-3.1,5.4c-0.3,2.8,0.2,5.5,1.1,8.1
					c0.9,2.6,1.8,5.3,2.6,8c1.3,4.3,1.3,8.6-0.7,12.7c-0.5,1.1-0.9,2.2-1.3,3.4c-1.4,4.2,0.5,7.9,4.8,9.2c2.9,0.9,5.9,0.3,8-1.5
					c0.3-0.7,0.6-1.4,0.9-2.2c1.7-4.1,1.7-8-0.1-12c-1.9-4.2-3.7-8.5-5.5-12.8c-0.2-0.5-0.4-1.1-0.6-1.6c4.1,4.8,7.2,10.2,9.5,16.3
					c1.9-4,3.7-7.7,3.6-11.9c-0.1-3.8-0.4-7.7-1.4-11.4c-1.2-4.3-2-8.7-2.7-13.1C482.1,386.6,480.2,386.8,478.3,387.1"/>
				<path class="st54" d="M484.2,426.6c0.3-1,0.3-2,0.2-3c-2.3-6.1-5.4-11.5-9.5-16.3c0.2,0.5,0.4,1.1,0.6,1.6
					c1.8,4.3,3.6,8.6,5.5,12.8c1.1,2.5,1.6,5,1.3,7.4C483.1,428.6,483.9,427.6,484.2,426.6"/>
			</g>
		</g>
	</g>
</g>
</svg>
