<?xml version="1.0" encoding="utf-8"?>
<!-- Generator: Adobe Illustrator 22.1.0, SVG Export Plug-In . SVG Version: 6.00 Build 0)  -->
<svg version="1.1" id="Слой_2" xmlns="http://www.w3.org/2000/svg" xmlns:xlink="http://www.w3.org/1999/xlink" x="0px" y="0px"
	 viewBox="0 0 690 500" style="enable-background:new 0 0 690 500;" xml:space="preserve">
<style type="text/css">
	.st0{clip-path:url(#SVGID_2_);}
	.st1{clip-path:url(#SVGID_4_);}
	.st2{clip-path:url(#SVGID_4_);fill:#84004F;}
	.st3{clip-path:url(#SVGID_4_);fill:#435A2C;}
	.st4{clip-path:url(#SVGID_4_);fill:#420000;}
	.st5{clip-path:url(#SVGID_4_);fill:#8B3216;}
	.st6{clip-path:url(#SVGID_4_);fill:#F3A000;}
	.st7{clip-path:url(#SVGID_4_);fill:#FFFFFF;}
	.st8{clip-path:url(#SVGID_4_);fill:#1E4411;}
	.st9{clip-path:url(#SVGID_6_);}
	.st10{clip-path:url(#SVGID_8_);}
	.st11{clip-path:url(#SVGID_8_);fill:#FEAB41;}
	.st12{clip-path:url(#SVGID_8_);fill:#FABA62;}
	.st13{clip-path:url(#SVGID_8_);fill:#F88F10;}
	.st14{clip-path:url(#SVGID_8_);fill:#B4328A;}
	.st15{clip-path:url(#SVGID_8_);fill:#FAD9B6;}
	.st16{clip-path:url(#SVGID_8_);fill:#BABABA;}
	.st17{clip-path:url(#SVGID_8_);fill:#020003;}
	.st18{fill:none;stroke:#FF0A0A;stroke-width:13;}
</style>
<g>
	<g>
		<defs>
			<rect id="SVGID_1_" x="27" y="55.1" width="289.9" height="403.4"/>
		</defs>
		<clipPath id="SVGID_2_">
			<use xlink:href="#SVGID_1_"  style="overflow:visible;"/>
		</clipPath>
		<g class="st0">
			<defs>
				<rect id="SVGID_3_" x="27" y="55.1" width="289.9" height="403.4"/>
			</defs>
			<clipPath id="SVGID_4_">
				<use xlink:href="#SVGID_3_"  style="overflow:visible;"/>
			</clipPath>
			<path class="st1" d="M205.1,265.4c0.1,1.5,0.2,3,0.4,4.5c0.6,3.9,1.2,7.8,1.8,11.8c0.6,4,1.1,8,1.8,12c1.4,8.3,3.3,16.4,5.5,24.5
				c0.6,2.2,1.2,4.3,1.8,6.5c0.3,1,0.3,1.9,0.1,2.9c-0.1,0.7-0.1,1.5-0.1,2.2c0,0.9-0.2,1.3-1.1,1.5c-0.6,0.2-0.8,0.5-0.9,1.1
				c-0.5,3.5-1.2,6.9-1.7,10.4c-0.5,3.6-0.9,7.2-1.3,10.8c-0.8,6.8-1.6,13.6-2.3,20.4c-1.1,10.3-1.8,20.6-1.6,31
				c0,0.8,0.1,1.7,0.1,2.5c0,0.2,0.2,0.5,0.4,0.6c0.9,0.4,1.6,1.1,1.8,2.1c0.3,1.1,0.5,2.2,0.7,3.2c0.2,1.4,0.9,2.3,2.1,3
				c2.3,1.3,4.9,1.9,7.4,2.5c3.6,0.8,7.1,1.5,10.7,2.4c1.5,0.4,3,1,4.5,1.7c1.5,0.7,2,1.9,1.7,3.6c-0.6,2.5-2,4.2-4.4,5.2
				c-2,0.8-4.2,1.1-6.4,1.4c-5.5,0.7-11,0.5-16.5,0.2c-3.8-0.2-7.6-0.4-11.3-0.5c-1.7,0-2.8-0.9-3.4-2.4c-1-2.2-1.1-4.4-0.6-6.7
				c0.2-1,0.5-2,0.8-3c0.1-0.4,0.1-0.8,0.6-1c0.2-0.1,0.3-0.8,0.2-1.2c-0.6-2.7-1.4-5.5-2-8.2c-2.4-10.6-4.2-21.2-5.5-32
				c-0.5-4.1-0.9-8.1-1.1-12.2c-0.1-2,0.2-4,0.5-6c0.4-3.7,0.9-7.5,1.4-11.2c0.3-2.2,0.7-4.4,1.6-6.4c0.1-0.1,0.1-0.3,0.1-0.4
				c-0.1-1.7-0.2-3.4-0.2-5c0-0.5-0.2-0.6-0.7-0.5c-0.3,0.1-0.6,0.1-0.9,0.1c-1,0-1.5-0.4-1.5-1.4c-0.2-3.3-0.9-6.5-1.8-9.7
				c-1.2-3.7-2.4-7.4-3.2-11.3c-0.6-3.3-1.3-6.6-2.1-9.9c-0.4-2-1.1-3.9-1.5-5.9c-0.3-1.6-0.5-3.3-0.7-4.9c-0.1-1.1-0.2-2.2-0.4-3.3
				c0-0.3-0.2-0.6-0.3-1c-0.1,0-0.1,0-0.2,0c-0.4,1.5-0.8,3.1-1.1,4.6c-1.5,8.1-2.9,16.3-4.4,24.4c-1.2,6.5-2.7,13-4.1,19.4
				c-0.1,0.4-0.1,0.7-0.2,1.1c-0.2,0.9-0.5,1.2-1.5,1.2c-0.7,0-1.4,0-2.2,0c0,0.2,0,0.4,0,0.6c0.6,10.6,0.7,21.1,0.6,31.7
				c0,6.9-0.6,13.7-1.1,20.5c-0.4,4.9-1,9.9-0.7,14.8c0.1,1.4,0.4,2.9,0.6,4.3c0.2,1.2,0.4,2.4,0.6,3.6c0.4,1.6,0.8,3.3,1.3,4.9
				c1.3,4.2,2.2,8.5,2.1,12.9c0,1.4-0.3,1.8-1.6,2.2c-2.8,0.9-5.7,1.2-8.6,1.3c-4.3,0.2-8.5,0.1-12.8-0.6c-1.3-0.2-2.6-0.5-3.7-1.4
				c-0.5-0.4-0.9-0.9-1.3-1.4c-0.5-0.7-0.5-1.5,0-2.2c4.5-6.7,7.6-14.1,9.5-22c0.3-1.2,0.8-2.3,1.2-3.4c0.1-0.2,0.1-0.5,0-0.8
				c-0.5-3-1-6.1-1.7-9.1c-1.3-6.1-2.8-12.1-4-18.1c-2.4-12.4-3.2-25-2.2-37.6c0-0.1,0-0.2,0-0.4c-1.4-0.2-2.8-0.4-4.2-0.6
				c-0.1,0-0.3,0-0.4,0c-0.9-0.2-1.3-0.7-0.8-1.6c0.8-1.7,1.4-3.5,1.9-5.3c0.9-3.5,1.2-7.1,1.2-10.7c0-9.5-0.2-19-0.3-28.5
				c0-7.1,0.2-14.2,0.3-21.3c0.1-2.3,0.4-4.5,0.6-6.8c0.1-0.6,0-1.1-0.3-1.5c-1.1-1.7-2.2-3.4-3.4-5c-5.2-6.8-10.4-13.6-15.6-20.4
				c-3.2-4.2-6.3-8.5-9.3-12.9c-1.7-2.5-3.1-5.3-4.7-8c-0.1-0.1-0.1-0.3-0.2-0.4c-1.2-1.2-1-2.6-0.6-4c0.2-0.9,0.6-1.7,1.1-2.4
				c1.4-2,2.6-4.1,3.7-6.4c1.3-2.6,2.8-5.1,4.4-7.5c5.9-8.9,11.2-18.2,15.7-27.9c1.4-3.1,2.7-6.2,4.1-9.3c0.8-1.7,1.7-3.5,2.7-5.1
				c1.5-2.4,3.8-3.5,6.6-3.8c2.7-0.3,5.4,0.1,7.9,1.2c1.9,0.8,3.9,1.1,6,0.7c2.5-0.4,4.1-2,5.1-4.3c0.7-1.9,0.8-3.9,0.9-5.9
				c-0.1,0-0.2,0-0.2,0c-1.7,1.8-3.8,1.9-6.1,1.5c-2.3-0.4-4.1-1.6-5-3.8c-0.5-1.2-0.8-1.2-2-0.8c-1.4,0.5-2.7,1.2-4.1,1.5
				c-3.7,1-6.6-0.9-7.4-4.9c-0.3-1.3-0.2-2.7-0.4-4.2c-0.5,0-1,0-1.6,0.1c-2.3,0.2-3.3-0.8-3.1-3.1c0-0.4,0.1-0.7,0.1-1.1
				c-0.3,0-0.5-0.1-0.7-0.1c-1.6-0.2-2.4-1.1-2.7-2.6c-0.3-1.9,0.2-3.5,1.5-4.8c0.7-0.7,1.4-1.4,2.4-2.3c-0.2-0.1-0.5-0.2-0.7-0.4
				c-0.6-0.7-1.2-1.4-1.7-2.3c-0.6-1.1-0.6-2.2,0-3.3c0.1-0.2,0.1-0.6,0-0.8c-0.8-1.9-1.4-3.8-1.5-5.9c-0.2-3.9,2-6.5,6-6.8
				c1-0.1,1-0.1,1-1.1c-0.1-2.2,0.3-4.3,1.6-6.1c1-1.4,2.2-2.1,3.9-2.3c0.2,0,0.4,0,0.6-0.1c0,0,0,0,0.1-0.1c0.4-3.8,2.6-6.3,5.9-8
				c3.3-1.8,6.7-1.7,9.8,0.5c0.1-0.2,0.1-0.3,0.2-0.4c0.5-1.8,1.7-3,3.4-3.7c1-0.4,2.1-0.7,3.1-0.9c1.4-0.3,2.5,0.4,3.6,1.2
				c0.2,0.1,0.6,0.3,0.7,0.2c1.8-1.3,3.7-1.4,5.8-1.1c3.3,0.5,6.2,1.8,8,4.8c0.4,0.7,0.7,1.4,1.1,2.2c0.3-0.1,0.6-0.1,0.9-0.2
				c1.9-0.5,3,0,3.6,1.9c0.4,1.4,0.7,2.8,1.1,4.3c0.4,0,0.8-0.1,1.3-0.1c2.6-0.1,4.9,0.9,6.8,2.7c1.4,1.3,1.8,2.8,1.3,4.6
				c0,0.2-0.1,0.3-0.1,0.6c0.4,0.1,0.8,0.2,1.2,0.2c3.8,0.8,5.5,4.4,3.7,7.8c-0.5,1-1.3,1.9-2,2.9c1.7,1.4,2.3,3.3,1.8,5.5
				c-0.4,2.2-1.6,3.8-3.7,4.7c0.3,0.6,0.7,1.1,0.9,1.7c1.3,2.6,1.5,5.2-0.1,7.8c-1.1,1.8-2.7,2.8-4.8,3c-0.2,0-0.4,0.1-0.7,0.1
				c0.1,2.9-0.9,5-4,5.6c-0.3,1.3-1.1,2.5-2.2,3.3c-1.4,0.9-2.9,1.1-4.4,0.3c-0.2-0.1-0.5,0-0.7,0.1c-0.4,0.3-0.8,0.7-1.2,0.9
				c-0.8,0.3-1.6,0.6-2.5,0.8c0-0.1-0.1-0.1-0.1-0.2c0,0.1-0.1,0.2,0,0.3c0.4,2.4,1.2,4.6,2.7,6.5c1.3,1.6,2.9,2.3,4.9,2.1
				c1.5-0.1,3.1-0.3,4.6-0.5c1.9-0.3,3.4,0.3,4.8,1.5c0.4,0.3,0.7,0.7,0.6,1.2c0,0.1,0.1,0.3,0.1,0.5c3.3,4.8,5.7,10.1,8.4,15.2
				c3.4,6.4,6.7,12.8,10.2,19.2c1.6,3,3.5,5.9,5.2,8.8c1,1.8,2.1,3.5,2.9,5.4c0.7,1.6,1,3.5,1.8,5.1c1.5,3.1,1.2,6.2,0.3,9.3
				c-2.1,7.6-5,15-8.7,22c-4,7.4-8,14.8-12.1,22.2c-0.6,1-1.2,2.1-1.8,3.1c-0.2,0.3-0.4,0.5-0.4,0.8
				C206.2,265.1,205.8,265.4,205.1,265.4 M191.8,152.3c-0.9-0.1-0.9-0.1-0.9,0.7c0,0.8,0,1.7-0.1,2.5c-0.6,3.4-1.1,6.8-1.8,10.2
				c-0.7,3.2-2.1,6-4.3,8.4c-3.8,4-12.1,5.5-16.4-1.1c-1.4-2.1-2.8-4.2-4.1-6.3c-2.2-3.7-3.9-7.6-5.2-11.8c-0.1-0.2-0.3-0.5-0.5-0.5
				c-0.6,0-1.2,0-1.8,0.1c0,0.2,0.1,0.4,0.1,0.6c0.2,1.5,0.5,2.9,0.7,4.4c0.8,7.6,0.8,15.2,0.3,22.8c-0.2,3.4-0.8,6.7-2.2,9.9
				c-1.2,2.9-2.9,5.4-5.3,7.5c-1.5,1.3-3.3,2.1-5.3,2.4c0,0.2,0,0.4,0,0.6c1.4,8.5,2.9,16.9,4.3,25.4c0.8,4.6,1.7,9.2,2.5,13.9
				c0.5,3.1,0.5,6.1-1.9,8.7c0,0,0,0,0,0.1c-0.5,0.8-0.6,1.5,0,2.3c0.3,0.4,0.6,0.9,0.9,1.3c1.5,1.7,3.4,2.8,5.5,3.5
				c9.4,3.2,19.1,4.9,29.1,4.6c2.9-0.1,5.7-0.6,8.4-1.7c1.3-0.5,2.6-0.9,3.9-1.4c1.2-0.5,2.3-1.2,3.5-1.9c0.4-0.2,0.5-0.7,0.5-1.1
				c-0.2-1.8-0.4-3.6-1.5-5.1c-0.2-0.3-0.3-0.6-0.5-0.9c-0.9-1.8-1-3.7-0.1-5.6c0.4-0.7,0.7-1.4,1.1-2.1c0.4-0.7,0.3-1.3-0.1-1.9
				c-1-1.6-1.7-3.4-1.8-5.4c-0.1-1.9-0.3-3.9-0.4-5.8c-0.2-3.6-0.5-7.2-0.7-10.8c-0.2-3.3-0.5-6.7-0.7-10c-0.3-4-0.6-8-0.8-12
				c-0.2-3.8-0.5-7.6-0.7-11.4c-0.1-3.2,0.1-6.4,0.1-9.6c0-0.8-0.1-1.6-0.2-2.4c-1-5.6-2.1-11.2-3.1-16.7
				C192.1,155.2,191.9,153.8,191.8,152.3 M195.3,262.1c-1.4,0.5-2.8,0.9-4.2,1.4c-0.2,0.1-0.3,0.4-0.3,0.6c-0.1,2.6-0.2,5.2-0.3,7.7
				c-0.1,1.4-0.1,2.9-0.3,4.3c-0.1,1.1-0.5,1.5-1.6,1.7c-2.1,0.5-4.2,0.9-6.3,1.4c-1,0.2-1.9,0.4-2.9,0.5c-0.9,0.1-1.4-0.4-1.5-1.3
				c0-0.2,0-0.5,0-0.8c0.3-3.2,0.5-6.3,0.8-9.5c0.1-1.4,0.2-2.7,0.3-4.1c-0.3,0-0.4-0.1-0.6-0.1c-5.4-0.5-10.8-1.3-16.1-2.7
				c-0.6-0.1-0.8,0-1.1,0.4c-3.7,5.6-7.4,11.3-11.1,16.9c-1.1,1.7-2.3,3.4-3.6,5.1c-0.8,1.1-1.4,1.2-2.7,0.7c-0.7-0.2-1.3-0.5-2-0.8
				c0,1.9,0,3.7,0,5.5c0.2,8.2,0.4,16.4,0.5,24.6c0,4.7-0.2,9.4-0.4,14.1c0,0.9-0.1,1,0.8,1.3c2.8,1.1,5.7,1.6,8.7,1.8
				c5.4,0.4,10.7,0.1,16.1-0.3c0.4,0,0.6-0.2,0.7-0.6c0.7-3.2,1.4-6.4,2-9.6c1.6-8.5,3.1-17.1,4.7-25.7c0.6-3.1,1.6-6.1,2.4-9.1
				c0.2-0.7,0.6-1.1,1.4-1.2c0.5-0.1,1.1-0.3,1.6-0.4c3.7-1.1,7.5-2.3,11.2-3.4c0.3-0.1,0.7-0.1,1.1-0.2c0,0.1,0,0.1,0.1,0.2
				c-0.3,0.2-0.7,0.4-1,0.6c-3.9,2-7.9,3.8-12.2,4.9c-0.2,0.1-0.6,0.4-0.6,0.6c0.1,0.7,0.3,1.3,0.5,2c0.2,0.8,0.6,1.5,0.8,2.2
				c0.2,1,0.2,2,0.4,2.9c0.2,1.6,0.4,3.1,0.7,4.7c0.3,1.6,0.9,3.2,1.3,4.8c0.9,4.1,1.6,8.2,2.6,12.3c1,3.8,2.2,7.6,3.3,11.4
				c0.1,0.4,0.4,0.4,0.7,0.4c3.1-0.2,6.2-0.2,9.2-0.5c5.3-0.6,10.5-1.9,15.4-3.8c0.8-0.3,0.8-0.3,0.6-1.2c-0.4-1.3-0.7-2.6-1-3.9
				c-2.6-9.6-4.7-19.3-5.9-29.2c-0.3-2.6-0.5-5.3-1.5-7.8c-0.1-0.4-0.2-0.8-0.4-1.1c-2.5-4.4-5-8.8-7.4-13.2
				C196.9,265.2,196.1,263.7,195.3,262.1 M182.8,140.2c0,0.1,0,0.1,0,0.2c0.3,0,0.6,0.1,0.8-0.1c1-0.5,1.9-1.1,2.9-1.7
				c0.4-0.3,0.8-0.3,1.2,0.1c0.5,0.6,1.2,0.7,1.9,0.6c1.5-0.3,2.7-1.7,2.9-3.2c0.1-0.8,0.4-1.1,0.9-1c1.5,0.1,2.8-0.9,3-2.4
				c0.1-0.6,0-1.1,0-1.7c0-1.1,0.2-1.4,1.3-1.4c3.5,0.1,5.5-3.3,5.2-6.2c-0.2-1.8-1.1-3.3-2.1-4.7c-0.6-0.8-0.4-1.4,0.6-1.5
				c0.4-0.1,0.9-0.2,1.3-0.4c2.3-1.4,3.5-6.3,0.1-7.8c-0.7-0.3-0.7-1-0.1-1.4c1.2-0.9,2.2-2.1,2.6-3.5c0.7-2.3,0-4.4-2.6-5
				c-0.6-0.1-1.2-0.2-1.9-0.3c-0.8-0.2-1.1-0.7-0.9-1.4c0.1-0.2,0.1-0.4,0.2-0.7c0.5-1.4,0.2-2.6-1-3.6c-1.9-1.6-4.1-2.4-6.6-2
				c-1.4,0.2-1.6-0.1-1.9-1.5c-0.2-1.3-0.5-2.7-0.9-4c-0.3-0.9-0.7-1.1-1.6-0.9c-0.6,0.1-1.1,0.3-1.6,0.4c-0.6,0.1-1-0.1-1.2-0.8
				c-0.2-0.6-0.4-1.2-0.6-1.8c-1.2-2.4-3.3-3.6-5.8-4.3c-2.3-0.6-4.5-0.8-6.6,0.8c-0.5,0.4-1.1,0.3-1.6,0c-0.4-0.3-0.7-0.6-1.1-0.8
				c-0.5-0.2-1.2-0.6-1.7-0.5c-3.2,0.4-5.2,1.5-5.8,4.3c-0.3,1.2-0.9,1.4-1.9,0.6c-1-0.8-2.1-1.4-3.5-1.6c-3.5-0.5-6.2,1.1-8.4,3.5
				c-1.1,1.2-1.7,2.7-1.9,4.4c-0.1,1.1-0.4,1.3-1.5,1.4c-1.5,0.1-2.7,0.7-3.5,2c-0.9,1.5-1.2,3.1-1.2,4.8c0,2.2-0.2,2.5-2.5,2.8
				c-0.8,0.1-1.7,0.4-2.4,0.8c-1.4,0.8-2,2.1-2.1,3.6c-0.1,2.3,0.5,4.5,1.5,6.6c0.2,0.5,0.4,1,0,1.5c-0.7,0.9-0.6,1.9,0,2.8
				c0.5,0.7,1.2,1.4,1.8,2c0.8,0.8,0.8,1.2-0.1,1.9c-0.7,0.6-1.5,1.3-2.1,1.9c-0.9,0.9-1.3,2-1.2,3.3c0.1,1.3,0.6,1.8,1.9,2
				c0.2,0,0.5,0,0.7,0.1c0.9,0.1,1.2,0.6,1,1.4c-0.1,0.6-0.2,1.2-0.2,1.7c0,0.8,0.3,1,1.1,1c0.7,0,1.4-0.1,2.1-0.1
				c1.4,0,1.8,0.4,1.6,1.8c-0.1,1.8,0,3.6,0.8,5.3c0.8,1.6,2.1,2.4,3.9,2.2c1.1-0.1,2.2-0.5,3.3-0.9c1-0.3,1.9-0.8,2.8-1
				c1.1-0.3,2,0.2,2.5,1.2c0.3,0.6,0.6,1.1,0.9,1.7c0.4,0.7,1.1,1.2,1.9,1.5c1.3,0.5,2.5,0.7,3.9,0.6c1.6-0.1,2.7-1,3.4-2.3
				c0.4-0.7,0.2-1.1-0.5-1.3c-2.3-0.8-4.5-1.8-6.5-3.1c-2.6-1.6-4.7-3.5-6.1-6.2c-0.1-0.1-0.1-0.2-0.2-0.3c-1.8,1.1-3.7,1.2-5.5,0.2
				c-0.8-0.4-1.6-0.9-2.2-1.5c-2.4-2.2-3.6-4.8-3-8.1c0.5-2.8,2.3-4.6,4.6-6c0.6-0.3,1.4-0.3,2.1-0.4c0.6-0.1,1.2,0,1.7-0.2
				c1.4-0.5,2.9-1.1,4.2-1.7c1.6-0.8,2.7-2.1,3-4c0.1-0.5,0.2-0.9,0.4-1.3c0.5-1.4,1.2-1.9,2.7-1.9c2.1,0.1,4-0.6,5.7-1.8
				c0.9-0.6,1.4-1.4,1.3-2.6c0-0.4,0-0.7,0-1.1c0-0.6,0.3-0.9,0.8-1c2.6-0.7,5.1-0.6,7.2,1.4c0.2,0.2,0.4,0.3,0.7,0.5
				c1,0.8,2.2,1.1,3.4,1.1c2,0,3.7-0.6,5.4-1.6c0.5-0.3,1.2-0.4,1.9-0.4c0.9,0,1.5,0.4,2.2,1c2,1.7,4.2,2.6,6.9,2.4
				c0.4,0,0.7,0.1,0.8,0.5c0.1,0.4-0.2,0.7-0.6,0.8c-0.4,0.1-0.9,0.1-1.3,0.2c0,0.2,0,0.3,0,0.4c0.2,1.5,0.4,3,0.6,4.4
				c1.1,6,1,12-0.6,18c-1.4,5.1-4.2,9.1-8.8,11.9C184.3,139.5,183.5,139.8,182.8,140.2 M143.3,192.8c0.2,0.9,0.4,1.6,0.5,2.2
				c0.2,1,0.3,1.1,1.2,0.9c1.2-0.2,2.1-0.9,2.8-1.8c2-2.4,3.1-5.1,3.5-8.2c0.6-3.8,0.8-7.6,0.8-11.5c0-6.8-0.1-13.7-0.1-20.5
				c0-0.5-0.2-0.7-0.6-0.9c-2-0.7-4-0.8-6-0.6c-2.6,0.3-4.6,1.5-5.8,3.8c-0.6,1.1-1.3,2.3-1.8,3.5c-1,2.4-1.9,4.8-3,7.2
				c-1.9,4.3-4.1,8.4-6.3,12.5c-3.5,6.4-7.1,12.6-11,18.6c-1.6,2.5-3.1,5.1-4.4,7.8c-0.9,1.7-1.7,3.4-2.8,4.9
				c-0.3,0.4-0.6,0.8-0.8,1.3c-1.1,1.8-1.2,3.6-0.1,5.4c1.1,1.8,2.1,3.6,3.3,5.3c3.3,4.6,6.6,9.2,10,13.8
				c4.6,6.1,9.2,12.2,13.9,18.3c1.4,1.9,3,3.6,4.3,5.6c1.2,1.7,2.1,3.7,3.2,5.5c0.5,0.8,1.1,1.4,1.6,2.1c1.1-1.7,2.1-3.2,3.1-4.8
				c0.3-0.4,0.5-0.9,0.7-1.4c0.4-0.7,0.3-1.4-0.1-2.2c-0.8-1.3-1.5-2.6-2.3-3.8c-1.2-1.8-2.3-3.6-3.6-5.2
				c-4.2-5.1-7.5-10.8-9.5-17.1c-0.9-2.9-1.9-5.8-2.7-8.7c-1.3-4.7-3.8-8.6-8.1-11.1c-0.4-0.2-0.8-0.5-1.1-0.8
				c-0.2-0.2-0.2-0.5-0.2-0.8c0.3,0,0.6-0.1,0.8,0c0.9,0.5,1.8,1,2.7,1.6c0.2,0.1,0.3,0.2,0.4,0.2c0.4-0.7,0.7-1.3,1.2-1.9
				c2.8-3.6,5.5-7.2,8.3-10.7c2.8-3.5,5.7-7,8.2-10.8c1.1-1.7,2.2-3.5,3.3-5.2c0.1-0.2,0.3-0.3,0.5-0.5c0.1,0,0.1,0.1,0.2,0.1
				c0,0.3-0.1,0.6-0.1,0.9c0.2-0.1,0.4-0.3,0.6-0.4c0.8-0.4,1.6-0.8,2.4-1.2c0.4-0.2,0.8-0.1,0.9,0.3c0.2,0.5-0.1,0.8-0.5,0.9
				c-0.2,0.1-0.3,0.1-0.5,0.2c-1.5,0.5-2.8,1.4-3.8,2.6C145.3,189.8,144.2,191.5,143.3,192.8 M197.8,419.9c0,0.1,0.1,0.1,0.1,0.2
				c0.5-0.2,1-0.3,1.4-0.5c0.6-0.4,1-0.9,1.5-1.3c0.7-0.6,1.2-1.2,0.5-2.1c0-0.1-0.1-0.2-0.1-0.2c-1.2-3.4,1.6-7,4.2-7.9
				c0.4-0.1,0.5-0.3,0.5-0.8c-0.1-1.8-0.2-3.6-0.2-5.4c0-13,1.3-26,3-38.9c0.8-5.9,1.5-11.9,2.3-17.8c0.5-3.5,1-6.9,1.5-10.3
				c0.1-0.8,0.2-1.7,0.4-2.7c-6.6,2.7-13.5,3.4-20.4,4.4c0.3,2.5,0.2,5-0.4,7.4c-0.4,1.7-0.7,3.4-1,5.1c-0.5,3.6-0.9,7.2-1.4,10.7
				c-0.6,4.1-0.7,8.2-0.2,12.2c0.9,6.6,1.7,13.2,2.7,19.8c1.2,7.8,2.7,15.6,4.7,23.3C197.5,416.7,198.1,418.3,197.8,419.9
				 M205.2,262.7c0.8-1.4,1.7-2.9,2.5-4.3c2.7-5,5.4-10,8.2-14.9c3.5-6.3,6.8-12.6,9.1-19.4c1.2-3.5,2.5-6.9,3.2-10.6
				c0.3-1.6,0.3-3.2-0.5-4.8c-0.4-0.9-0.8-2-1.1-2.9c-0.4-1-0.6-2-1-3c-0.9-1.8-1.9-3.6-2.9-5.3c-3.9-6.4-7.6-12.8-11-19.5
				c-4.3-8.4-8.3-16.9-13.1-25c-0.5-0.9-1.6-1.4-2.6-1.2c0.2,0.9,0.4,1.9,0.4,2.8c0.2,2.5,0.3,5,0.3,7.5c0.1,4.8,0.3,9.5,0.3,14.3
				c0,2.5-0.1,5-0.1,7.6c0,0.5,0.1,1.1,0.3,1.6c3.2,8,8.1,14.6,14.8,19.9c1.4,1.1,2.8,2.3,4.1,3.5c0.4,0.4,0.7,1,1,1.6
				c0.2,0.4,0,0.9-0.5,1.1c-0.5,0.2-0.8-0.1-1.1-0.5c-0.1-0.2-0.2-0.4-0.4-0.6c-0.5,1.3-1,2.6-1.5,3.8c-1.9,4.3-2.7,8.7-2.3,13.4
				c0.1,1.6,0.2,3.2-0.1,4.8c-0.3,2.2-1,4.3-1.5,6.4c-1.1,4.5-3.4,8.3-6.9,11.4c-0.3,0.3-0.8,0.5-0.9,0.9c-0.1,0.3,0.2,0.8,0.4,1.2
				c0.6,1.6,0.5,3.2,0.4,4.8c0,0.3,0,0.5,0.1,0.8C203.8,259.6,204.5,261.1,205.2,262.7 M149.1,115.4c0.9,3.4,2,6.9,2.8,10.4
				c0.9,3.6,2.8,6.4,5.9,8.4c6.3,4,13.1,6,20.6,5.2c3-0.3,5.6-1.3,7.9-3.3c3.7-3.1,5.6-7.2,6.5-11.8c1-4.9,1-9.8,0.2-14.7
				c-0.3-1.9-0.4-3.7-0.7-5.7c-2.1-0.4-4-1.4-5.7-2.9c-0.4-0.3-1.2-0.5-1.6-0.4c-0.9,0.3-1.7,0.9-2.6,1.3c1.6-0.1,3,0.4,4.4,1.2
				c0.1,0.1,0.3,0.1,0.4,0.2c0.4,0.2,0.8,0.4,0.6,0.9c-0.1,0.5-0.6,0.6-1,0.5c-0.5,0-0.9,0-1.4,0c-2.8,0.2-5.3,1.1-7.7,2.5
				c-0.5,0.3-0.9,0.6-1.4,0.8c-0.6,0.3-1.7-0.1-2.1-0.7c-0.3-0.5-0.2-1,0.5-1.6c1.4-1.2,2.9-2.2,4.6-2.9c0.2-0.1,0.4-0.2,0.6-0.3
				c0,0-0.1-0.1-0.1-0.1c-0.1,0-0.2,0-0.2,0c-2.1,0.2-4-0.4-5.7-1.7c-0.4-0.3-0.8-0.7-1.2-1c-1.5-1.1-3.3-0.8-5-0.7
				c0,0.4,0,0.8,0.1,1.1c0.2,1.4-0.3,2.5-1.4,3.4c-2,1.6-4.2,2.5-6.7,2.5c-1,0-1.2,0.1-1.5,1.1c-0.1,0.3-0.1,0.6-0.2,1
				c0.2-0.1,0.3-0.1,0.4-0.1c1.7-0.7,3.5-1,5.4-0.9c1.1,0.1,2.2,0.3,3.2,0.6c1,0.3,1.2,0.9,0.8,1.8c-0.1,0.2-0.1,0.3-0.2,0.5
				c-0.1,0.4-0.4,0.5-0.8,0.5c-3.6-0.4-6.8,0.4-9.9,2.3c-0.4,0.2-0.7,0.4-1.1,0.6c-0.6,0.3-1.2,0.4-1.8,0.1
				c-0.2-0.1-0.4-0.1-0.6-0.1C151.9,114.2,150.5,114.8,149.1,115.4 M161.4,409.2c0-0.9-0.1-1.6-0.1-2.4c-0.2-5.5,0.6-11,0.9-16.5
				c0.3-5.9,0.9-11.8,0.9-17.7c0.1-10.2-0.1-20.3-0.1-30.5c0-0.6,0.1-1.5-0.2-1.8c-0.3-0.3-1.2-0.1-1.8-0.1
				c-4.5,0.1-8.9,0.1-13.4,0.2c-1.2,0-2.3-0.1-3.6-0.2c0,0.4-0.1,0.7-0.1,1c-0.7,13.6,0.4,27,3.3,40.3c1.2,5.6,2.5,11.1,3.8,16.7
				c0.6,2.6,0.9,5.1,1.4,7.7C155.8,405.6,159,406.2,161.4,409.2 M148.1,254.1c0-0.5-0.1-0.9-0.1-1.2c0-0.6-0.2-1.2-0.1-1.7
				c0.2-0.7,0.5-1.5,1-2.1c1.1-1.4,1.6-3,1.4-4.7c-0.1-1.3-0.2-2.5-0.4-3.8c-1.2-7-2.6-14-3.7-21c-1.1-6.9-2.1-13.8-3.1-20.7
				c-0.2-1.5-0.4-3.1-0.6-4.7c-5.2,6.8-10.4,13.5-15.6,20.2c0.1,0.1,0.2,0.2,0.2,0.3c2.5,2.1,4.1,4.8,5.1,7.9
				c0.9,2.8,1.7,5.5,2.6,8.3c1.6,4.9,3.6,9.7,6.6,14c1.5,2.1,3.1,4.1,4.6,6.1C146.7,252.1,147.3,253,148.1,254.1 M201.3,249.8
				c3-2.6,5.4-5.5,6.6-9.2c0.6-1.8,1-3.7,1.5-5.6c0.6-2.3,0.8-4.6,0.6-6.9c-0.3-3.9,0-7.7,1.4-11.3c0.8-2.2,1.9-4.4,2.9-6.6
				c0.2-0.4,0.1-0.7-0.2-0.9c-0.9-0.7-1.7-1.5-2.6-2.2c-5.9-4.7-10.6-10.3-13.7-17.2c0-0.1-0.1-0.1-0.2-0.3c0,0.5,0,0.9,0.1,1.3
				c0.2,2.6,0.4,5.2,0.6,7.9c0.3,4.6,0.6,9.2,0.9,13.8c0.5,7.3,1,14.6,1.5,21.9c0.1,1.9,0.5,3.8,1.6,5.4c0.8,1.3,0.8,2.5,0.1,3.8
				c-0.4,0.8-0.8,1.5-1.2,2.3C200.3,247.2,200.5,248.5,201.3,249.8 M166.6,140c-0.1,1.8-0.1,3.5-0.2,5.1c-0.1,2.4-0.6,4.7-2.2,6.5
				c-0.1,0.2-0.1,0.5-0.1,0.8c1.3,5.7,3.8,10.8,7.1,15.6c0.8,1.1,1.8,2,2.9,2.7c2.5,1.5,6.6,1.4,8.5-2.4c0.7-1.5,1.2-3.1,1.3-4.7
				c0.2-4.5,0.3-8.9,0.4-13.4c0-0.3-0.1-0.5-0.2-0.8c-1.4-1.9-2.2-4.1-2.5-6.4c-0.1-0.7-0.2-1.5-0.3-2.3
				C176.2,141.6,171.3,141.4,166.6,140 M224,421.8c-0.5-0.1-1.1-0.3-1.6-0.4c-1.2-0.3-1.1-0.3-1.8,0.7c-0.7,1.1-1.4,2.2-2.2,3.1
				c-1.3,1.4-2,1.5-3.7,0.7c-4.2-1.9-8.2-4.3-11.9-7.2c-0.6,0.6-1.2,1.2-1.9,1.8c-1.2,1-2.4,1.6-4,0.8c-0.3,1.2-0.5,2.3-0.8,3.4
				c-0.4,1.8-0.2,3.5,0.5,5.2c0.4,0.8,0.9,1.3,1.9,1.3c1.8,0,3.7,0.1,5.5,0.2c5.1,0.2,10.2,0.3,15.4,0.5c0.5,0,0.8-0.1,0.9-0.7
				c0.6-3.3,1.6-6.5,3.7-9.2C224,421.9,224,421.9,224,421.8 M154.1,435.6l0-0.2c1.1,0,2.2,0,3.3,0c2.7-0.1,5.4-0.4,8.1-1.2
				c0.5-0.1,0.6-0.4,0.6-0.8c0-1.3-0.5-2.4-1-3.5c-0.4-1-1.1-1.7-2-2.3c-1.6-1-3.4-1.5-5.2-1.7c-4.7-0.5-9.1,0.6-13.1,3.1
				c-1.1,0.7-2.1,1.7-2.7,2.9c-0.1,0.1-0.2,0.2-0.4,0.3c-0.5,0.2-0.5,0.6-0.2,0.9c0.2,0.2,0.5,0.5,0.8,0.7c0.9,0.4,1.8,0.8,2.7,0.9
				C148,435.1,151,435.3,154.1,435.6 M149.3,254.6c-0.4,0.9-0.3,1.6,0.4,2.2c0.1,0.1,0.2,0.3,0.2,0.4c0.2,0.6,0.4,1.2,0.7,1.7
				c0.6,1.1,0.8,2.2,0.2,3.4c-0.5,1-1.1,2.1-1.8,3.1c-1.1,1.8-2.3,3.5-3.3,5.3c-1.4,2.4-2.6,4.9-3.9,7.3c-0.2,0.3-0.3,0.6-0.3,0.9
				c0,0.9,0,1.7-0.1,2.6c0,0.4,0.1,0.5,0.5,0.6c0.7,0.3,1.4,0.5,2.1,0.8c0.4,0.2,0.7,0.1,1-0.3c0.6-0.8,1.2-1.6,1.8-2.4
				c4-6,8-12.1,12-18.2c0.3-0.5,0.6-0.9,1-1.4C155.9,259.3,151.9,258.3,149.3,254.6 M139.4,337.7c0,0,0.1,0.1,0.3,0.1
				c3.1,0.3,6.2,0.8,9.3,0.9c5.6,0.1,11.2-0.1,16.8-0.1c0.1,0,0.4-0.2,0.4-0.4c0.1-0.5,0.2-1.1,0.3-1.6c0.3-1.4,0.6-2.8,0.9-4.2
				c-0.3,0-0.5,0-0.7,0c-5.3,0.3-10.6,0.6-15.9,0.1c-3.1-0.3-6.2-0.8-9.1-2.2c-0.1,0-0.2-0.1-0.2-0.1
				C140.9,332.7,140.2,335.2,139.4,337.7 M185.9,151.5c0,0.2,0,0.4,0,0.6c-0.1,3.5-0.1,6.9-0.3,10.4c-0.1,2.5-0.6,5-2,7.2
				c-1.6,2.6-3.9,3.7-6.9,3.5c-2.6-0.2-4.6-1.5-6.2-3.4c-3.7-4.6-5.9-9.9-7.5-15.6c-0.1-0.4-0.2-0.8-0.2-1.1c-1,0.5-2,0.9-3.1,1.4
				c0.3,0.8,0.6,1.6,0.9,2.4c2.3,5.7,5.2,11.1,8.9,15.9c0.9,1.2,2,2.4,3.6,2.9c3.1,0.9,6.1,0.7,8.8-1.3c2.4-1.8,4.2-4.1,5-7
				c1.3-4.7,2.2-9.4,2.6-14.3c0-0.2,0-0.4,0-0.5C188.3,152.2,187.1,151.8,185.9,151.5 M189.5,335.1c0.2,0,0.4,0,0.6,0
				c2.5-0.3,4.9-0.6,7.4-0.9c5.8-0.7,11.4-2,16.8-4.2c0.4-0.2,0.5-0.3,0.5-0.7c0-0.7,0-1.4,0.2-2.1c0.2-1,0-1.8-0.3-2.7
				c-8.4,3.2-17.1,4.7-26,4.3C188.9,330.8,189.2,332.9,189.5,335.1 M153.8,154c0,0.9,0,1.7,0,2.5c0.2,8.8,0.3,17.5-0.4,26.3
				c-0.2,2.9-0.7,5.8-2,8.5c-0.3,0.5-0.5,1.1-0.8,1.6c-1.5,2.4-3.1,4.5-6.4,4.4c0.2,1.2,0.4,2.4,0.6,3.8c1-0.4,1.9-0.7,2.8-1.1
				c2.4-1.3,4.1-3.3,5.4-5.6c2.3-3.9,3.3-8.2,3.5-12.6c0.2-5,0.2-10,0.1-15c0-4-0.4-8-1.2-12c0-0.2-0.2-0.5-0.4-0.6
				C154.6,154.1,154.2,154.1,153.8,154 M189.5,263.9c-3.2,0.1-6.3,0.2-9.4,0.3c-0.3,4.6-0.5,9.4-0.8,14.1c0.4,0,0.7-0.1,0.9-0.1
				c2.6-0.5,5.2-1.1,7.8-1.6c0.7-0.1,0.9-0.4,0.9-1c0.1-1.6,0.2-3.2,0.2-4.8C189.3,268.5,189.4,266.2,189.5,263.9 M159.7,422.6
				c0.1-0.6,0.1-1.2,0.2-1.7c0.4-2.9,0.8-5.8,1.2-8.7c0-0.3,0-0.6-0.1-0.8c-2-3.1-4-4.1-7.6-3.9c-1,0-1.8,1-1.7,2.1
				c0.2,3.9,0.2,7.8-0.2,11.8c0,0.4-0.1,0.8-0.2,1.4C154.2,421.7,156.9,421.9,159.7,422.6 M219.9,420.7c-0.4-0.1-0.5-0.2-0.7-0.2
				c-2.3-0.5-4.6-1.1-6.7-2.2c-2-1-3.3-2.6-3.6-4.9c-0.1-0.7-0.1-1.4-0.3-2.1c-0.3-1.5-1.8-2.2-3.1-1.4c-1.3,0.7-2.2,1.8-2.7,3.2
				c-0.7,2,0.8,5.1,3,6.1c0.7,0.3,1.4,0.7,2,1.2c2.5,1.6,5.1,3.1,7.8,4.3c0.5,0.2,1,0.2,1.4-0.2
				C217.9,423.1,218.9,421.9,219.9,420.7 M221.6,431.8c1.2-0.1,2.2-0.1,3.2-0.2c2.3-0.2,4.6-0.5,6.9-1.3c1.9-0.7,3.1-1.9,3.6-3.9
				c0.3-1,0.1-1.5-0.9-2c-1-0.5-2.1-0.9-3.2-1.2c-1.7-0.4-3.5-0.7-5.3-1.1c-0.4-0.1-0.6,0-0.9,0.4c-1.3,1.8-2.2,3.9-2.8,6
				C222.1,429.6,221.9,430.6,221.6,431.8 M149.2,122.1c-0.3-1.3-0.5-2.5-0.7-3.7c-0.1-0.5-0.3-1-0.5-1.5c-0.6-1.2-1.4-1.5-2.6-0.7
				c-2.3,1.4-3.5,3.5-3.2,6.1c0.3,3.2,2.2,5.3,5.1,6.5c1.1,0.4,2.1,0.2,3.2-0.2c0.4-0.2,0.5-0.4,0.4-0.8c-0.2-0.6-0.3-1.2-0.5-1.8
				c-0.3-1-0.5-1.9-0.8-2.9c-0.9,0.3-1.2,0.9-1.4,1.7c-0.1,0.4-0.1,0.9-0.7,0.8c-0.5-0.1-0.6-0.6-0.5-1.1c0.1-0.4,0.2-0.8,0.4-1.1
				C147.7,122.7,148.4,122.3,149.2,122.1 M144.5,427.2c1.7-0.7,3.2-1.5,4.9-2.1c4.5-1.4,9-1.5,13.3,0.4c1,0.5,1.9,1.1,2.9,1.8
				c-1.2-4.5-2.3-9-3.5-13.5c-0.3,1.9-0.5,3.7-0.7,5.6c-0.2,1.2-0.2,2.5-0.4,3.7c-0.1,0.8-0.6,1.2-1.4,1c-2.9-0.8-5.9-1-8.8,0.3
				c-0.9,0.4-1.5-0.2-1.3-1.2c0.1-0.6,0.3-1.1,0.4-1.7c0.2-3.3,0.4-6.7,0.6-10c0-0.2,0-0.3,0-0.5
				C149.3,416.7,147.3,422.1,144.5,427.2 M204.4,275.6c0,0,0.1,0,0.1-0.1c0-0.3-0.1-0.6-0.1-0.9c-0.3-3.5-0.7-6.9-0.9-10.4
				c-0.1-1.9-1-3.5-1.4-5.5c-1.5,1.9-3.7,2.1-5.6,2.9C199.1,266.3,201.7,270.9,204.4,275.6 M195.3,166.9c0.1,0,0.1,0,0.2,0
				c-0.5-5,0-10-0.9-15c-0.7,0.1-1.3,0.1-2,0.2C193.5,157.1,194.4,162,195.3,166.9 M142.2,266.5c-0.2,2.9-0.3,5.6-0.4,8.3
				c0.1,0,0.1,0,0.2,0c0.9-1.6,1.8-3.3,2.7-4.9c0.1-0.2,0-0.5-0.2-0.7C143.8,268.3,143,267.5,142.2,266.5 M156.1,111.8
				c3.3-2,6.8-2.7,10.6-2.2c-0.1-0.5,0-0.5-0.5-0.6c-1.9-0.5-3.8-0.5-5.7,0C158.8,109.5,157.1,110,156.1,111.8 M183.6,103.6
				c-3.2-0.1-5.6,1.5-7.9,3.4c0.3,0,0.5-0.1,0.7-0.2c1.5-0.8,2.9-1.6,4.4-2.4C181.6,104,182.6,103.9,183.6,103.6"/>
			<path class="st2" d="M191.8,152.3c0.2,1.4,0.3,2.9,0.6,4.3c1,5.6,2.1,11.2,3.1,16.7c0.1,0.8,0.2,1.6,0.2,2.4
				c0,3.2-0.2,6.4-0.1,9.6c0.1,3.8,0.4,7.6,0.7,11.4c0.3,4,0.5,8,0.8,12c0.2,3.3,0.5,6.7,0.7,10c0.2,3.6,0.5,7.2,0.7,10.8
				c0.1,1.9,0.3,3.9,0.4,5.8c0.1,1.9,0.8,3.7,1.8,5.4c0.4,0.7,0.5,1.3,0.1,2c-0.4,0.7-0.7,1.4-1.1,2.1c-0.9,1.9-0.9,3.7,0.1,5.6
				c0.1,0.3,0.3,0.6,0.5,0.9c1.2,1.5,1.4,3.3,1.5,5.1c0,0.5-0.1,0.9-0.5,1.1c-1.1,0.7-2.3,1.3-3.5,1.9c-1.3,0.6-2.6,1-3.9,1.4
				c-2.7,1-5.5,1.6-8.4,1.7c-10,0.2-19.7-1.4-29.1-4.6c-2.1-0.7-4.1-1.7-5.5-3.5c-0.4-0.4-0.6-0.9-0.9-1.3c-0.6-0.8-0.4-1.5,0-2.3
				c0,0,0,0,0-0.1c2.3-2.5,2.4-5.5,1.9-8.7c-0.8-4.6-1.7-9.3-2.5-13.9c-1.5-8.5-2.9-16.9-4.3-25.4c0-0.2,0-0.4,0-0.6
				c2-0.3,3.8-1.1,5.3-2.4c2.4-2,4.1-4.6,5.3-7.5c1.4-3.2,2-6.5,2.2-9.9c0.4-7.6,0.4-15.2-0.3-22.8c-0.1-1.5-0.4-2.9-0.7-4.4
				c0-0.2-0.1-0.4-0.1-0.6c0.6,0,1.2-0.1,1.8-0.1c0.2,0,0.4,0.3,0.5,0.5c1.3,4.1,3,8.1,5.2,11.8c1.3,2.1,2.7,4.2,4.1,6.3
				c4.3,6.5,12.6,5.1,16.4,1.1c2.3-2.4,3.7-5.2,4.3-8.4c0.7-3.4,1.3-6.8,1.8-10.2c0.1-0.8,0.1-1.6,0.1-2.5
				C190.8,152.3,190.8,152.2,191.8,152.3 M184.8,191.7c0.5,0,1.2,0.1,1.9,0.1c0.8,0,1.2-0.3,1.1-1.1c-0.1-1.4-0.2-2.8-0.5-4.2
				c-0.1-0.4-0.5-0.9-0.8-0.9c-0.6-0.2-1.4-0.3-1.9-0.1c-1.4,0.7-3,0.7-4.5,1.2c-2.7,0.8-5.4,1.7-8,2.9c-1.5,0.8-2.9,1.6-4.3,2.6
				c-1.3,0.9-2.2,2.3-2.7,3.8c-0.7,2.2,0,4.1,2,5.2c0.8,0.5,1.7,0.8,2.6,1.2c2.1,0.7,4.1,1.4,6.2,2.2c2,0.8,4,1.7,5.7,3.1
				c1.3,1,1.5,1.9,0.9,3.4c-0.8,1.9-2.2,3.2-4.1,3.9c-3.6,1.2-7.2,2.8-11.1,2.9c-0.7,0-1,0.4-1,1.1c0,2.5,2,4.3,4.4,3.7
				c2.9-0.7,5.7-1.4,8.5-2.3c3.2-1,6.2-2.4,8.9-4.3c1.9-1.3,3.7-2.8,4.9-4.9c1.6-2.8,1.5-6.2-1.6-8.8c-2-1.7-4.4-2.7-6.9-3.3
				c-2.7-0.7-5.4-1.3-8-1.9c-0.7-0.2-1.4-0.4-2.1-0.7c-0.9-0.4-1-1.3-0.2-1.9c0.3-0.3,0.7-0.5,1.1-0.6
				C178.4,192.5,181.4,191.6,184.8,191.7"/>
			<path class="st3" d="M195.3,262.1c0.8,1.6,1.6,3.1,2.4,4.6c2.5,4.4,5,8.8,7.4,13.2c0.2,0.3,0.3,0.7,0.4,1.1
				c0.9,2.5,1.2,5.1,1.5,7.8c1.1,9.9,3.3,19.6,5.9,29.2c0.4,1.3,0.7,2.6,1,3.9c0.2,0.9,0.2,0.9-0.6,1.2c-5,1.9-10.1,3.2-15.4,3.8
				c-3.1,0.3-6.2,0.4-9.2,0.5c-0.3,0-0.6,0-0.7-0.4c-1.1-3.8-2.3-7.6-3.3-11.4c-1-4.1-1.7-8.2-2.6-12.3c-0.4-1.6-0.9-3.2-1.3-4.8
				c-0.3-1.5-0.5-3.1-0.7-4.7c-0.1-1-0.1-2-0.4-2.9c-0.2-0.8-0.6-1.5-0.8-2.2c-0.2-0.6-0.4-1.3-0.5-2c0-0.2,0.3-0.5,0.6-0.6
				c4.3-1.1,8.3-2.8,12.2-4.9c0.3-0.2,0.7-0.4,1-0.6c0-0.1,0-0.1-0.1-0.2c-0.4,0.1-0.7,0.1-1.1,0.2c-3.7,1.1-7.5,2.3-11.2,3.4
				c-0.5,0.2-1,0.3-1.6,0.4c-0.7,0.1-1.2,0.5-1.4,1.2c-0.8,3-1.8,6.1-2.4,9.1c-1.6,8.5-3.1,17.1-4.7,25.7c-0.6,3.2-1.4,6.4-2,9.6
				c-0.1,0.4-0.2,0.6-0.7,0.6c-5.3,0.4-10.7,0.6-16.1,0.3c-3-0.2-5.9-0.7-8.7-1.8c-0.9-0.4-0.8-0.4-0.8-1.3
				c0.2-4.7,0.4-9.4,0.4-14.1c-0.1-8.2-0.3-16.4-0.5-24.6c0-1.8,0-3.6,0-5.5c0.7,0.3,1.4,0.5,2,0.8c1.3,0.5,1.9,0.4,2.7-0.7
				c1.3-1.7,2.4-3.4,3.6-5.1c3.7-5.6,7.4-11.3,11.1-16.9c0.3-0.5,0.6-0.6,1.1-0.4c5.3,1.4,10.6,2.3,16.1,2.7c0.2,0,0.4,0,0.6,0.1
				c-0.1,1.4-0.1,2.7-0.3,4.1c-0.2,3.2-0.5,6.3-0.8,9.5c0,0.2,0,0.5,0,0.8c0.1,0.9,0.6,1.4,1.5,1.3c1-0.1,1.9-0.3,2.9-0.5
				c2.1-0.4,4.2-0.9,6.3-1.4c1.1-0.2,1.5-0.6,1.6-1.7c0.1-1.4,0.2-2.9,0.3-4.3c0.1-2.6,0.2-5.2,0.3-7.7c0-0.2,0.2-0.5,0.3-0.6
				C192.4,263,193.8,262.6,195.3,262.1"/>
			<path class="st4" d="M182.8,140.2c0.8-0.4,1.5-0.7,2.3-1.2c4.5-2.8,7.3-6.9,8.8-11.9c1.7-5.9,1.8-11.9,0.6-18
				c-0.3-1.5-0.4-2.9-0.6-4.4c0-0.1,0-0.3,0-0.4c0.5-0.1,0.9-0.1,1.3-0.2c0.4-0.1,0.6-0.4,0.6-0.8c-0.1-0.4-0.4-0.6-0.8-0.5
				c-2.7,0.2-4.9-0.7-6.9-2.4c-0.6-0.5-1.3-1-2.2-1c-0.6,0-1.3,0.1-1.9,0.4c-1.7,0.9-3.4,1.6-5.4,1.6c-1.3,0-2.4-0.4-3.4-1.1
				c-0.2-0.2-0.5-0.3-0.7-0.5c-2.1-2-4.6-2.1-7.2-1.4c-0.6,0.1-0.8,0.5-0.8,1c0,0.4-0.1,0.7,0,1.1c0.1,1.1-0.4,1.9-1.3,2.6
				c-1.7,1.2-3.6,1.9-5.7,1.8c-1.5-0.1-2.2,0.4-2.7,1.9c-0.1,0.4-0.3,0.9-0.4,1.3c-0.4,1.8-1.4,3.2-3,4c-1.4,0.7-2.8,1.2-4.2,1.7
				c-0.5,0.2-1.1,0.1-1.7,0.2c-0.7,0.1-1.5,0.1-2.1,0.4c-2.3,1.4-4.1,3.2-4.6,6c-0.6,3.3,0.6,5.9,3,8.1c0.7,0.6,1.4,1.1,2.2,1.5
				c1.8,1,3.7,0.8,5.5-0.2c0.1,0.1,0.2,0.2,0.2,0.3c1.4,2.7,3.5,4.7,6.1,6.2c2.1,1.3,4.3,2.3,6.5,3.1c0.8,0.3,0.9,0.6,0.5,1.3
				c-0.7,1.3-1.8,2.2-3.4,2.3c-1.3,0.1-2.6-0.1-3.9-0.6c-0.8-0.3-1.4-0.8-1.9-1.5c-0.3-0.5-0.6-1.1-0.9-1.7c-0.5-1-1.4-1.5-2.5-1.2
				c-1,0.3-1.9,0.7-2.8,1c-1.1,0.3-2.2,0.8-3.3,0.9c-1.8,0.2-3.1-0.6-3.9-2.2c-0.8-1.7-0.9-3.5-0.8-5.3c0.1-1.4-0.3-1.8-1.6-1.8
				c-0.7,0-1.4,0.1-2.1,0.1c-0.8,0-1-0.2-1.1-1c0-0.6,0.1-1.2,0.2-1.7c0.1-0.9-0.1-1.3-1-1.4c-0.2,0-0.5,0-0.7-0.1
				c-1.3-0.2-1.8-0.7-1.9-2c-0.1-1.3,0.3-2.4,1.2-3.3c0.7-0.7,1.4-1.3,2.1-1.9c0.8-0.7,0.8-1.1,0.1-1.9c-0.6-0.7-1.3-1.3-1.8-2
				c-0.6-0.9-0.7-1.9,0-2.8c0.4-0.5,0.2-1,0-1.5c-1-2.1-1.6-4.2-1.5-6.6c0.1-1.5,0.7-2.9,2.1-3.6c0.7-0.4,1.6-0.7,2.4-0.8
				c2.2-0.3,2.5-0.5,2.5-2.8c0-1.7,0.3-3.3,1.2-4.8c0.8-1.3,2-2,3.5-2c1.1,0,1.4-0.3,1.5-1.4c0.1-1.7,0.7-3.2,1.9-4.4
				c2.3-2.4,5-3.9,8.4-3.5c1.3,0.2,2.4,0.8,3.5,1.6c1,0.7,1.6,0.6,1.9-0.6c0.6-2.8,2.6-3.9,5.8-4.3c0.5-0.1,1.2,0.2,1.7,0.5
				c0.4,0.2,0.8,0.5,1.1,0.8c0.5,0.3,1.1,0.4,1.6,0c2-1.6,4.3-1.4,6.6-0.8c2.5,0.6,4.6,1.9,5.8,4.3c0.3,0.6,0.5,1.2,0.6,1.8
				c0.2,0.6,0.5,0.9,1.2,0.8c0.6-0.1,1.1-0.3,1.6-0.4c0.9-0.2,1.4-0.1,1.6,0.9c0.4,1.3,0.7,2.6,0.9,4c0.2,1.3,0.5,1.6,1.9,1.5
				c2.5-0.3,4.7,0.4,6.6,2c1.2,1,1.5,2.2,1,3.6c-0.1,0.2-0.2,0.4-0.2,0.7c-0.2,0.8,0.1,1.3,0.9,1.4c0.6,0.1,1.2,0.2,1.9,0.3
				c2.6,0.6,3.3,2.7,2.6,5c-0.4,1.4-1.4,2.6-2.6,3.5c-0.6,0.4-0.6,1.1,0.1,1.4c3.4,1.4,2.2,6.4-0.1,7.8c-0.4,0.2-0.9,0.4-1.3,0.4
				c-1,0.2-1.2,0.8-0.6,1.5c1.1,1.4,1.9,2.9,2.1,4.7c0.4,2.9-1.6,6.2-5.2,6.2c-1.1,0-1.4,0.3-1.3,1.4c0,0.6,0.1,1.1,0,1.7
				c-0.2,1.5-1.4,2.5-3,2.4c-0.6,0-0.8,0.3-0.9,1c-0.2,1.5-1.5,2.9-2.9,3.2c-0.7,0.1-1.4,0-1.9-0.6c-0.4-0.4-0.7-0.4-1.2-0.1
				c-0.9,0.6-1.9,1.2-2.9,1.7c-0.2,0.1-0.6,0.1-0.8,0.1C182.8,140.4,182.8,140.3,182.8,140.2"/>
			<path class="st5" d="M143.3,192.8c0.9-1.4,2-3,3.2-4.6c1-1.3,2.3-2.1,3.8-2.6c0.2-0.1,0.3-0.1,0.5-0.2c0.4-0.2,0.7-0.5,0.5-0.9
				c-0.2-0.4-0.6-0.5-0.9-0.3c-0.8,0.4-1.6,0.8-2.4,1.2c-0.2,0.1-0.4,0.2-0.6,0.4c0-0.4,0.1-0.7,0.1-0.9c-0.1,0-0.1-0.1-0.2-0.1
				c-0.2,0.2-0.4,0.3-0.5,0.5c-1.1,1.7-2.2,3.5-3.3,5.2c-2.4,3.8-5.4,7.2-8.2,10.8c-2.8,3.5-5.6,7.1-8.3,10.7
				c-0.4,0.6-0.8,1.2-1.2,1.9c-0.1-0.1-0.3-0.1-0.4-0.2c-0.9-0.5-1.8-1.1-2.7-1.6c-0.2-0.1-0.5,0-0.8,0c0.1,0.3,0.1,0.6,0.2,0.8
				c0.3,0.3,0.7,0.6,1.1,0.8c4.3,2.6,6.8,6.4,8.1,11.1c0.8,2.9,1.7,5.8,2.7,8.7c2,6.3,5.3,12,9.5,17.1c1.3,1.6,2.4,3.5,3.6,5.2
				c0.8,1.2,1.5,2.6,2.3,3.8c0.4,0.7,0.5,1.4,0.1,2.2c-0.2,0.5-0.5,1-0.7,1.4c-1,1.6-2,3.1-3.1,4.8c-0.6-0.7-1.2-1.4-1.6-2.1
				c-1.1-1.8-2-3.7-3.2-5.5c-1.3-1.9-2.9-3.7-4.3-5.6c-4.6-6.1-9.3-12.2-13.9-18.3c-3.4-4.5-6.7-9.2-10-13.8
				c-1.2-1.7-2.2-3.5-3.3-5.3c-1.1-1.8-1-3.6,0.1-5.4c0.3-0.4,0.6-0.8,0.8-1.3c1.1-1.5,2-3.2,2.8-4.9c1.3-2.7,2.8-5.2,4.4-7.8
				c3.9-6.1,7.6-12.3,11-18.6c2.2-4.1,4.4-8.2,6.3-12.5c1.1-2.4,2-4.8,3-7.2c0.5-1.2,1.2-2.3,1.8-3.5c1.3-2.3,3.2-3.5,5.8-3.8
				c2.1-0.2,4.1-0.1,6,0.6c0.5,0.2,0.6,0.4,0.6,0.9c0,6.8,0.1,13.7,0.1,20.5c0,3.8-0.2,7.7-0.8,11.5c-0.5,3-1.5,5.8-3.5,8.2
				c-0.7,0.9-1.6,1.6-2.8,1.8c-1,0.2-1,0.1-1.2-0.9C143.7,194.4,143.5,193.8,143.3,192.8"/>
			<path class="st5" d="M197.8,419.9c0.3-1.7-0.3-3.2-0.7-4.8c-2-7.7-3.5-15.5-4.7-23.3c-1-6.6-1.9-13.2-2.7-19.8
				c-0.5-4.1-0.4-8.2,0.2-12.2c0.5-3.6,0.9-7.2,1.4-10.7c0.2-1.7,0.6-3.4,1-5.1c0.6-2.4,0.7-4.8,0.4-7.4c6.9-1,13.8-1.6,20.4-4.4
				c-0.1,1-0.2,1.8-0.4,2.7c-0.5,3.4-1,6.9-1.5,10.3c-0.8,5.9-1.5,11.9-2.3,17.8c-1.7,12.9-2.9,25.9-3,38.9c0,1.8,0.1,3.6,0.2,5.4
				c0,0.4-0.1,0.6-0.5,0.8c-2.6,0.9-5.4,4.5-4.2,7.9c0,0.1,0,0.2,0.1,0.2c0.7,0.9,0.2,1.5-0.5,2.1c-0.5,0.4-1,0.9-1.5,1.3
				c-0.4,0.3-0.9,0.4-1.4,0.5C197.9,420.1,197.9,420,197.8,419.9"/>
			<path class="st5" d="M205.2,262.7c-0.7-1.6-1.4-3.2-2-4.8c-0.1-0.2-0.1-0.5-0.1-0.8c0.1-1.6,0.1-3.2-0.4-4.8
				c-0.1-0.4-0.4-0.8-0.4-1.2c0.1-0.3,0.5-0.6,0.9-0.9c3.5-3.1,5.8-6.8,6.9-11.4c0.5-2.1,1.1-4.3,1.5-6.4c0.2-1.6,0.2-3.2,0.1-4.8
				c-0.4-4.7,0.4-9.2,2.3-13.4c0.5-1.2,1-2.5,1.5-3.8c0.1,0.2,0.2,0.4,0.4,0.6c0.2,0.4,0.6,0.7,1.1,0.5c0.5-0.2,0.7-0.7,0.5-1.1
				c-0.2-0.6-0.5-1.2-1-1.6c-1.3-1.2-2.7-2.4-4.1-3.5c-6.7-5.3-11.7-12-14.8-19.9c-0.2-0.5-0.3-1.1-0.3-1.6c0-2.5,0.1-5,0.1-7.6
				c-0.1-4.8-0.2-9.5-0.3-14.3c-0.1-2.5-0.2-5-0.3-7.5c-0.1-1-0.3-1.9-0.4-2.8c1-0.2,2.1,0.3,2.6,1.2c4.8,8.1,8.8,16.6,13.1,25
				c3.4,6.6,7.1,13.1,11,19.5c1,1.7,2,3.5,2.9,5.3c0.5,0.9,0.7,2,1,3c0.4,1,0.7,2,1.1,2.9c0.7,1.6,0.8,3.2,0.5,4.8
				c-0.7,3.6-1.9,7.1-3.2,10.6c-2.4,6.8-5.7,13.1-9.1,19.4c-2.8,5-5.4,10-8.2,14.9C206.9,259.9,206,261.3,205.2,262.7"/>
			<path class="st5" d="M149.1,115.4c1.4-0.6,2.8-1.1,4.2-1.7c0.2-0.1,0.4,0,0.6,0.1c0.6,0.3,1.2,0.2,1.8-0.1
				c0.4-0.2,0.7-0.4,1.1-0.6c3-1.9,6.3-2.7,9.9-2.3c0.4,0,0.7-0.1,0.8-0.5c0-0.2,0.1-0.3,0.2-0.5c0.3-0.9,0.1-1.6-0.8-1.8
				c-1-0.3-2.1-0.5-3.2-0.6c-1.8-0.1-3.6,0.2-5.4,0.9c-0.1,0-0.2,0.1-0.4,0.1c0.1-0.4,0.2-0.7,0.2-1c0.3-1,0.5-1.1,1.5-1.1
				c2.5,0,4.8-0.9,6.7-2.5c1.1-0.9,1.6-2,1.4-3.4c0-0.4,0-0.7-0.1-1.1c1.8-0.2,3.5-0.4,5,0.7c0.4,0.3,0.8,0.6,1.2,1
				c1.7,1.4,3.5,2,5.7,1.7c0.1,0,0.2,0,0.2,0c0,0,0,0,0.1,0.1c-0.2,0.1-0.4,0.2-0.6,0.3c-1.7,0.7-3.2,1.7-4.6,2.9
				c-0.7,0.6-0.8,1.1-0.5,1.6c0.4,0.6,1.5,1,2.1,0.7c0.5-0.2,1-0.5,1.4-0.8c2.4-1.4,4.9-2.4,7.7-2.5c0.5,0,0.9,0,1.4,0
				c0.4,0,0.9,0,1-0.5c0.1-0.5-0.2-0.8-0.6-0.9c-0.1-0.1-0.3-0.1-0.4-0.2c-1.3-0.8-2.7-1.3-4.4-1.2c0.9-0.5,1.7-1,2.6-1.3
				c0.5-0.1,1.3,0,1.6,0.4c1.7,1.5,3.6,2.5,5.7,2.9c0.2,1.9,0.4,3.8,0.7,5.7c0.8,4.9,0.8,9.8-0.2,14.7c-0.9,4.6-2.8,8.7-6.5,11.8
				c-2.3,1.9-4.9,3-7.9,3.3c-7.5,0.8-14.3-1.3-20.6-5.2c-3.1-2-5-4.8-5.9-8.4C151.1,122.3,150,118.8,149.1,115.4 M180.3,115.9
				C180.3,115.9,180.3,115.9,180.3,115.9c0.5,0,1,0,1.5-0.1c1.9-0.2,3.5-0.9,4.8-2.3c1.5-1.6,1.5-2.3,0.3-4.1
				c-1.4-1.9-3.6-2.6-5.8-1.7c-2.5,1.1-3.7,3.2-3.9,5.8c-0.1,1.3,0.8,2.2,2.1,2.3C179.6,115.9,180,115.9,180.3,115.9 M160.9,120.8
				c1.9-0.1,4.2-0.8,5.8-1.8c0.5-0.4,1-0.8,1.5-1.4c0.5-0.7,0.6-1.4,0.2-2.2c-1.8-3.4-6.4-4.1-9.1-1.4c-1.2,1.3-2,2.8-1.9,4.6
				c0,1.1,0.1,1.3,1.2,1.7C159.2,120.6,160,120.7,160.9,120.8 M172,131.9c0.4-0.1,1.1-0.4,1.7-0.6c1.9-0.5,3.8-1.1,5.8-1.6
				c1.1-0.2,2.2-0.2,3.3-0.3c1-0.1,1.7-0.8,1.9-1.7c0.1-0.4-0.1-0.7-0.5-0.7c-0.2,0-0.5,0.2-0.6,0.4c-0.4,1-0.3,1.1-1.4,1.1
				c-3.2,0.1-6.3,0.8-9.3,2c-0.8,0.3-1.6,0.3-2.4,0c-0.3-0.1-0.7-0.3-1-0.3c-0.2,0-0.6,0.1-0.7,0.3c-0.1,0.2,0,0.6,0.1,0.8
				c0.1,0.2,0.4,0.3,0.6,0.4C170.3,131.7,171,131.8,172,131.9 M176.3,117.3c0.1,0.2,0.3,0.4,0.4,0.6c0.7,0.7,1.7,1.1,2.7,1.2
				c1,0.1,1.5,0.6,1.6,1.4c0.3,1.3-0.6,2.6-1.8,3c-0.2,0.1-0.4,0.3-0.4,0.4c0,0.2,0.3,0.5,0.4,0.5c0.5,0,1.1,0,1.5-0.3
				c1.2-0.8,1.7-2,1.6-3.4c-0.1-1.1-0.5-2.1-1.6-2.5c-1.4-0.4-2.8-0.7-4.2-1C176.5,117.2,176.5,117.2,176.3,117.3 M173.9,126
				c0.5-0.2,1.1-0.3,1.6-0.5c0.6-0.2,1.2-0.4,1.8-0.7c0.2-0.1,0.4-0.2,0.4-0.4c0-0.2-0.2-0.4-0.3-0.4c-0.4-0.1-0.8-0.1-1.2,0
				c-0.6,0.1-1.1,0.4-1.7,0.6c-0.5,0.2-1,0.2-1.4-0.3c-0.1-0.2-0.5-0.1-0.7-0.2c-0.1,0.3-0.2,0.6-0.2,0.8
				C172.4,125.5,173.1,125.9,173.9,126"/>
			<path class="st5" d="M161.4,409.2c-2.5-3-5.6-3.7-9-3.3c-0.5-2.6-0.9-5.2-1.4-7.7c-1.2-5.6-2.5-11.1-3.8-16.7
				c-2.9-13.3-4-26.7-3.3-40.3c0-0.3,0.1-0.7,0.1-1c1.2,0.1,2.4,0.2,3.6,0.2c4.5,0,8.9-0.1,13.4-0.2c0.6,0,1.5-0.2,1.8,0.1
				c0.3,0.3,0.2,1.2,0.2,1.8c0.1,10.2,0.2,20.3,0.1,30.5c-0.1,5.9-0.6,11.8-0.9,17.7c-0.3,5.5-1.1,11-0.9,16.5
				C161.3,407.6,161.4,408.3,161.4,409.2"/>
			<path class="st5" d="M166.6,140c4.8,1.5,9.6,1.7,14.6,0.7c0.1,0.8,0.2,1.5,0.3,2.3c0.4,2.3,1.2,4.5,2.5,6.4
				c0.1,0.2,0.3,0.5,0.2,0.8c-0.1,4.5-0.2,8.9-0.4,13.4c-0.1,1.6-0.6,3.2-1.3,4.7c-1.9,3.9-5.9,3.9-8.5,2.4
				c-1.2-0.7-2.2-1.6-2.9-2.7c-3.3-4.8-5.8-9.9-7.1-15.6c-0.1-0.2-0.1-0.6,0.1-0.8c1.7-1.9,2.1-4.2,2.2-6.5
				C166.5,143.4,166.5,141.7,166.6,140"/>
			<path class="st6" d="M224,421.8c0,0.1,0,0.1,0,0.2c-2.1,2.7-3.1,5.9-3.7,9.2c-0.1,0.6-0.3,0.7-0.9,0.7
				c-5.1-0.2-10.2-0.3-15.4-0.5c-1.8-0.1-3.7-0.2-5.5-0.2c-1,0-1.5-0.5-1.9-1.3c-0.7-1.7-0.9-3.4-0.5-5.2c0.2-1.1,0.5-2.2,0.8-3.4
				c1.6,0.8,2.9,0.2,4-0.8c0.7-0.6,1.3-1.2,1.9-1.8c3.7,2.9,7.6,5.3,11.9,7.2c1.7,0.8,2.4,0.7,3.7-0.7c0.8-0.9,1.5-2,2.2-3.1
				c0.7-1,0.6-1.1,1.8-0.7C222.9,421.5,223.4,421.6,224,421.8"/>
			<path class="st7" d="M154.1,435.6c-3-0.3-6.1-0.5-9.1-0.8c-0.9-0.1-1.8-0.6-2.7-0.9c-0.3-0.1-0.5-0.4-0.8-0.7
				c-0.3-0.4-0.3-0.7,0.2-0.9c0.1-0.1,0.3-0.2,0.4-0.3c0.6-1.3,1.6-2.2,2.7-2.9c4-2.5,8.4-3.6,13.1-3.1c1.9,0.2,3.6,0.7,5.2,1.7
				c0.9,0.5,1.6,1.3,2,2.3c0.5,1.1,1.1,2.2,1,3.5c0,0.5-0.2,0.7-0.6,0.8c-2.6,0.8-5.4,1-8.1,1.2c-1.1,0-2.2,0-3.3,0L154.1,435.6z"/>
			<path class="st8" d="M149.3,254.6c2.5,3.7,6.6,4.7,10.5,6.1c-0.4,0.5-0.7,1-1,1.4c-4,6.1-8,12.1-12,18.2
				c-0.5,0.8-1.2,1.6-1.8,2.4c-0.3,0.4-0.6,0.4-1,0.3c-0.7-0.3-1.4-0.6-2.1-0.8c-0.3-0.1-0.5-0.3-0.5-0.6c0-0.9,0-1.7,0.1-2.6
				c0-0.3,0.1-0.7,0.3-0.9c1.3-2.4,2.5-4.9,3.9-7.3c1-1.8,2.2-3.5,3.3-5.3c0.6-1,1.2-2,1.8-3.1c0.6-1.1,0.5-2.3-0.2-3.4
				c-0.3-0.5-0.5-1.1-0.7-1.7c-0.1-0.2-0.1-0.3-0.2-0.4C149,256.2,148.9,255.5,149.3,254.6"/>
			<path class="st8" d="M139.4,337.7c0.7-2.5,1.4-5,2.2-7.5c0,0,0.1,0,0.2,0.1c2.9,1.3,6,1.9,9.1,2.2c5.3,0.5,10.6,0.2,15.9-0.1
				c0.2,0,0.4,0,0.7,0c-0.3,1.5-0.6,2.8-0.9,4.2c-0.1,0.5-0.2,1.1-0.3,1.6c0,0.2-0.3,0.4-0.4,0.4c-5.6,0.1-11.2,0.2-16.8,0.1
				c-3.1-0.1-6.2-0.6-9.3-0.9C139.6,337.8,139.4,337.7,139.4,337.7"/>
			<path class="st7" d="M185.9,151.5c1.2,0.4,2.4,0.7,3.7,1.1c0,0.1,0,0.3,0,0.5c-0.4,4.9-1.2,9.6-2.6,14.3c-0.8,2.9-2.6,5.2-5,7
				c-2.7,2-5.7,2.2-8.8,1.3c-1.6-0.5-2.6-1.6-3.6-2.9c-3.7-4.9-6.7-10.2-8.9-15.9c-0.3-0.8-0.6-1.6-0.9-2.4c1.1-0.5,2.1-1,3.1-1.4
				c0.1,0.3,0.1,0.7,0.2,1.1c1.5,5.6,3.8,10.9,7.5,15.6c1.6,2,3.6,3.2,6.2,3.4c3,0.2,5.3-0.9,6.9-3.5c1.3-2.2,1.9-4.6,2-7.2
				c0.2-3.5,0.2-6.9,0.3-10.4C185.9,151.8,185.9,151.6,185.9,151.5"/>
			<path class="st8" d="M189.5,335.1c-0.3-2.2-0.6-4.2-1-6.4c9,0.4,17.6-1.1,26-4.3c0.3,0.9,0.5,1.8,0.3,2.7
				c-0.1,0.7-0.1,1.4-0.2,2.1c0,0.4-0.1,0.6-0.5,0.7c-5.4,2.2-11,3.5-16.8,4.2c-2.5,0.3-4.9,0.6-7.4,0.9
				C189.9,335.1,189.7,335.1,189.5,335.1"/>
			<path class="st7" d="M153.8,154c0.4,0.1,0.8,0.1,1.2,0.3c0.2,0.1,0.3,0.3,0.4,0.6c0.8,3.9,1.2,7.9,1.2,12c0,5,0,10-0.1,15
				c-0.1,4.5-1.1,8.7-3.5,12.6c-1.4,2.3-3,4.3-5.4,5.6c-0.9,0.4-1.8,0.7-2.8,1.1c-0.2-1.4-0.4-2.6-0.6-3.8c3.2,0.1,4.9-2,6.4-4.4
				c0.3-0.5,0.6-1,0.8-1.6c1.3-2.7,1.8-5.6,2-8.5c0.7-8.7,0.6-17.5,0.4-26.3C153.7,155.7,153.8,154.9,153.8,154"/>
			<path class="st8" d="M189.5,263.9c-0.1,2.2-0.2,4.5-0.3,6.8c-0.1,1.6-0.2,3.2-0.2,4.8c0,0.7-0.3,0.9-0.9,1
				c-2.6,0.5-5.2,1.1-7.8,1.6c-0.3,0.1-0.6,0.1-0.9,0.1c0.3-4.8,0.5-9.5,0.8-14.1C183.2,264.1,186.3,264,189.5,263.9"/>
			<path class="st7" d="M159.7,422.6c-2.8-0.6-5.5-0.9-8.4,0.1c0.1-0.5,0.1-0.9,0.2-1.4c0.4-3.9,0.4-7.8,0.2-11.8
				c-0.1-1.1,0.7-2,1.7-2.1c3.7-0.1,5.6,0.9,7.6,3.9c0.1,0.2,0.1,0.5,0.1,0.8c-0.4,2.9-0.8,5.8-1.2,8.7
				C159.8,421.4,159.8,421.9,159.7,422.6"/>
			<path class="st7" d="M219.9,420.7c-1,1.3-2,2.4-2.9,3.6c-0.4,0.4-0.8,0.5-1.4,0.2c-2.8-1.2-5.3-2.7-7.8-4.3
				c-0.7-0.4-1.3-0.8-2-1.2c-2.1-1-3.7-4.1-3-6.1c0.5-1.4,1.4-2.5,2.7-3.2c1.4-0.7,2.8-0.1,3.1,1.4c0.1,0.7,0.2,1.4,0.3,2.1
				c0.3,2.3,1.6,3.9,3.6,4.9c2.1,1.1,4.4,1.7,6.7,2.2C219.4,420.5,219.5,420.6,219.9,420.7"/>
			<path class="st7" d="M221.6,431.8c0.3-1.1,0.4-2.2,0.7-3.2c0.6-2.2,1.4-4.2,2.8-6c0.2-0.3,0.5-0.5,0.9-0.4
				c1.8,0.4,3.6,0.6,5.3,1.1c1.1,0.3,2.1,0.8,3.2,1.2c1,0.4,1.2,1,0.9,2c-0.5,1.9-1.8,3.2-3.6,3.9c-2.2,0.8-4.5,1-6.9,1.3
				C223.8,431.6,222.8,431.7,221.6,431.8"/>
			<path class="st5" d="M149.2,122.1c-0.9,0.2-1.5,0.6-1.9,1.4c-0.2,0.3-0.3,0.7-0.4,1.1c-0.1,0.4,0,1,0.5,1.1
				c0.5,0.1,0.6-0.5,0.7-0.8c0.2-0.8,0.5-1.4,1.4-1.7c0.3,1,0.6,2,0.8,2.9c0.2,0.6,0.3,1.2,0.5,1.8c0.1,0.4,0,0.6-0.4,0.8
				c-1,0.5-2.1,0.7-3.2,0.2c-2.9-1.2-4.9-3.3-5.1-6.5c-0.2-2.6,1-4.7,3.2-6.1c1.2-0.7,2-0.5,2.6,0.7c0.2,0.5,0.4,1,0.5,1.5
				C148.8,119.6,149,120.8,149.2,122.1"/>
			<path class="st6" d="M144.5,427.2c2.8-5.1,4.8-10.5,6-16.2c0,0.2,0,0.3,0,0.5c-0.2,3.3-0.4,6.7-0.6,10c0,0.6-0.2,1.1-0.4,1.7
				c-0.2,1,0.4,1.6,1.3,1.2c2.9-1.2,5.8-1.1,8.8-0.3c0.7,0.2,1.3-0.2,1.4-1c0.2-1.2,0.2-2.5,0.4-3.7c0.2-1.9,0.5-3.7,0.7-5.6
				c1.2,4.5,2.3,9,3.5,13.5c-1-0.6-1.9-1.3-2.9-1.8c-4.4-2-8.9-1.8-13.3-0.4C147.8,425.7,146.2,426.5,144.5,427.2"/>
			<path class="st8" d="M204.4,275.6c-2.6-4.6-5.2-9.3-7.9-14c1.9-0.9,4.1-1,5.6-2.9c0.5,2,1.4,3.6,1.4,5.5
				c0.1,3.5,0.6,6.9,0.9,10.4c0,0.3,0.1,0.6,0.1,0.9C204.4,275.5,204.4,275.5,204.4,275.6"/>
			<path class="st7" d="M195.3,166.9c-0.9-4.9-1.8-9.8-2.7-14.8c0.8-0.1,1.4-0.2,2-0.2c0.9,5,0.4,10,0.9,15
				C195.4,166.9,195.4,166.9,195.3,166.9"/>
			<path class="st3" d="M142.2,266.5c0.9,1,1.6,1.9,2.3,2.7c0.1,0.2,0.3,0.5,0.2,0.7c-0.9,1.7-1.8,3.3-2.7,4.9c-0.1,0-0.1,0-0.2,0
				C141.9,272.1,142,269.3,142.2,266.5"/>
			<path class="st4" d="M156.1,111.8c1-1.8,2.7-2.4,4.4-2.8c1.9-0.5,3.8-0.5,5.7,0c0.5,0.1,0.5,0.1,0.5,0.6
				C162.9,109.1,159.4,109.8,156.1,111.8"/>
			<path class="st4" d="M183.6,103.6c-0.9,0.3-1.9,0.5-2.8,0.9c-1.5,0.7-3,1.6-4.4,2.4c-0.2,0.1-0.4,0.2-0.7,0.2
				C177.9,105,180.4,103.5,183.6,103.6"/>
			<path class="st1" d="M184.8,191.7c-3.4,0-6.5,0.8-9.4,2.1c-0.4,0.2-0.7,0.4-1.1,0.6c-0.8,0.6-0.7,1.5,0.2,1.9
				c0.7,0.3,1.4,0.5,2.1,0.7c2.7,0.7,5.4,1.2,8,1.9c2.5,0.6,4.9,1.7,6.9,3.3c3.1,2.5,3.1,6,1.6,8.8c-1.2,2.1-2.9,3.6-4.9,4.9
				c-2.8,1.9-5.8,3.3-8.9,4.3c-2.8,0.9-5.6,1.7-8.5,2.3c-2.4,0.6-4.4-1.3-4.4-3.7c0-0.6,0.3-1.1,1-1.1c3.9,0,7.5-1.6,11.1-2.9
				c1.9-0.6,3.3-1.9,4.1-3.9c0.6-1.5,0.4-2.4-0.9-3.4c-1.7-1.4-3.6-2.3-5.7-3.1c-2-0.8-4.1-1.4-6.2-2.2c-0.9-0.3-1.8-0.7-2.6-1.2
				c-2-1.2-2.7-3.1-2-5.2c0.5-1.6,1.3-2.9,2.7-3.8c1.4-1,2.8-1.9,4.3-2.6c2.5-1.3,5.3-2.1,8-2.9c1.5-0.5,3.1-0.5,4.5-1.2
				c0.5-0.2,1.3-0.1,1.9,0.1c0.3,0.1,0.7,0.6,0.8,0.9c0.2,1.4,0.4,2.8,0.5,4.2c0,0.8-0.4,1.1-1.1,1.1
				C186,191.7,185.3,191.7,184.8,191.7 M168,219.3c0.3,1.6,1.1,2.3,2.7,2c3.1-0.6,6.2-1.5,9.2-2.7c3.2-1.2,6.2-2.6,8.9-4.8
				c1.7-1.4,3.2-2.8,3.7-5c0.5-1.8,0.1-3.4-1.2-4.8c-1.1-1.1-2.5-2.1-4-2.6c-2.4-0.8-4.8-1.4-7.3-2.1c-2-0.6-4-1-6-1.6
				c-1-0.3-1.5-1.1-1.7-2.2c-0.1-1.1,0.3-1.8,1.2-2.4c0.5-0.4,1.1-0.7,1.7-1c3.3-1.4,6.7-2.3,10.3-2c0.2,0,0.5,0,0.8,0
				c-0.1-0.9-0.2-1.8-0.2-2.6c-0.1-0.9-0.3-1-1.2-0.7c-0.2,0.1-0.4,0.1-0.5,0.1c-3,0.4-6,1.2-8.8,2.4c-2.4,1-4.7,2-6.7,3.6
				c-1.1,0.8-1.9,1.9-2.3,3.2c-0.6,1.8-0.1,3.1,1.6,4c0.8,0.4,1.7,0.7,2.6,1.1c2.5,0.9,5.1,1.7,7.6,2.8c1.6,0.7,3.2,1.8,4.6,2.9
				c1.3,0.9,1.6,2.4,1.2,3.9c-0.7,2.6-2.4,4.4-4.9,5.4C175.6,217.6,172,219,168,219.3"/>
			<path class="st1" d="M180.3,115.9c-0.4,0-0.7,0-1.1,0c-1.3-0.1-2.2-1-2.1-2.3c0.2-2.7,1.4-4.7,3.9-5.8c2.2-0.9,4.4-0.3,5.8,1.7
				c1.3,1.8,1.2,2.5-0.3,4.1c-1.3,1.4-2.9,2.1-4.8,2.3C181.4,115.9,180.8,115.9,180.3,115.9C180.3,115.9,180.3,115.9,180.3,115.9
				 M181.7,110.7C181.7,110.7,181.7,110.7,181.7,110.7c0.1,0.7,0.2,1.3,0.4,1.9c0.2,0.6,0.8,0.9,1.4,0.9c1.2-0.1,2.1-0.7,2.7-1.7
				c0.1-0.2,0.2-0.4,0.1-0.6c-0.4-1.3-1.8-2.4-3.1-2.5c-1.2-0.1-1.3,0-1.5,1.2C181.8,110.1,181.8,110.4,181.7,110.7 M181.8,114.6
				c-1.4-1.6-1.5-3.3-1-5.3c-0.4,0.3-0.6,0.5-0.8,0.7c-1,1-1.4,2.2-1.7,3.5c-0.1,0.6,0.1,1,0.7,1.1
				C180,114.6,180.9,114.6,181.8,114.6"/>
			<path class="st1" d="M160.9,120.8c-0.8-0.2-1.7-0.3-2.4-0.5c-1.1-0.3-1.1-0.5-1.2-1.7c0-1.8,0.7-3.4,1.9-4.6
				c2.7-2.7,7.3-2,9.1,1.4c0.4,0.8,0.4,1.6-0.2,2.2c-0.4,0.5-0.9,1-1.5,1.4C165.1,120.1,162.8,120.7,160.9,120.8 M161.6,114
				c-0.1,0-0.1,0-0.2,0c-1.7,0.7-3.1,2.5-3.1,4.8c0,0.1,0.1,0.3,0.3,0.3c1.6,0.6,3.2,0.4,4.8-0.1C161.3,116.7,161.2,116.4,161.6,114
				 M162.6,115.1c0,1,0.6,2,1.5,2.6c1.2,0.7,2.3,0.5,2.9-0.8c0.1-0.2,0.1-0.6,0-0.9c-0.6-1.3-1.7-2-3-2.3c-1.2-0.3-1.4-0.1-1.5,1.1
				C162.6,115,162.6,115,162.6,115.1"/>
			<path class="st1" d="M172,131.9c-1-0.1-1.7-0.2-2.5-0.3c-0.2,0-0.5-0.2-0.6-0.4c-0.1-0.2-0.2-0.6-0.1-0.8
				c0.1-0.2,0.5-0.3,0.7-0.3c0.3,0,0.7,0.2,1,0.3c0.8,0.3,1.6,0.3,2.4,0c3-1.1,6.1-1.9,9.3-2c1.1,0,1-0.1,1.4-1.1
				c0.1-0.2,0.4-0.4,0.6-0.4c0.4,0,0.6,0.3,0.5,0.7c-0.2,0.9-0.9,1.6-1.9,1.7c-1.1,0.1-2.2,0.1-3.3,0.3c-1.9,0.4-3.8,1-5.8,1.6
				C173.1,131.5,172.5,131.8,172,131.9"/>
			<path class="st1" d="M176.3,117.3c0.1-0.1,0.2-0.1,0.2-0.1c1.4,0.3,2.8,0.6,4.2,1c1.1,0.4,1.6,1.4,1.6,2.5
				c0.1,1.4-0.5,2.6-1.6,3.4c-0.4,0.3-1,0.2-1.5,0.3c-0.1,0-0.3-0.3-0.4-0.5c0-0.1,0.2-0.3,0.4-0.4c1.2-0.4,2.1-1.7,1.8-3
				c-0.2-0.8-0.6-1.3-1.6-1.4c-1-0.1-2-0.5-2.7-1.2C176.6,117.8,176.5,117.5,176.3,117.3"/>
			<path class="st1" d="M173.9,126c-0.8-0.1-1.4-0.5-1.6-1.1c-0.1-0.2,0.1-0.5,0.2-0.8c0.2,0.1,0.6,0.1,0.7,0.2
				c0.4,0.5,0.9,0.5,1.4,0.3c0.6-0.2,1.1-0.4,1.7-0.6c0.4-0.1,0.8-0.1,1.2,0c0.1,0,0.3,0.3,0.3,0.4c0,0.1-0.2,0.3-0.4,0.4
				c-0.6,0.2-1.2,0.5-1.8,0.7C174.9,125.7,174.4,125.8,173.9,126"/>
			<path class="st6" d="M168,219.3c3.9-0.4,7.6-1.7,11.2-3.1c2.5-0.9,4.2-2.7,4.9-5.4c0.4-1.5,0.1-3-1.2-3.9c-1.5-1.1-3-2.1-4.6-2.9
				c-2.5-1.1-5-1.9-7.6-2.8c-0.9-0.3-1.7-0.6-2.6-1.1c-1.6-0.9-2.1-2.2-1.6-4c0.4-1.3,1.2-2.3,2.3-3.2c2-1.6,4.4-2.6,6.7-3.6
				c2.8-1.2,5.7-2,8.8-2.4c0.2,0,0.4-0.1,0.5-0.1c0.9-0.4,1.1-0.3,1.2,0.7c0.1,0.8,0.2,1.7,0.2,2.6c-0.3,0-0.6,0-0.8,0
				c-3.6-0.2-7,0.6-10.3,2c-0.6,0.3-1.2,0.6-1.7,1c-0.9,0.6-1.3,1.4-1.2,2.4c0.1,1.1,0.6,1.9,1.7,2.2c2,0.6,4,1.1,6,1.6
				c2.4,0.7,4.9,1.3,7.3,2.1c1.5,0.5,2.9,1.4,4,2.6c1.3,1.3,1.7,3,1.2,4.8c-0.6,2.2-2.1,3.7-3.7,5c-2.7,2.2-5.7,3.6-8.9,4.8
				c-3,1.2-6,2.1-9.2,2.7C169.1,221.6,168.3,221,168,219.3"/>
			<path class="st4" d="M181.7,110.7c0-0.3,0.1-0.6,0.1-0.9c0.2-1.2,0.3-1.2,1.5-1.2c1.3,0.1,2.7,1.2,3.1,2.5c0,0.2,0,0.4-0.1,0.6
				c-0.6,1-1.6,1.6-2.7,1.7c-0.6,0.1-1.2-0.3-1.4-0.9C181.9,112,181.8,111.3,181.7,110.7C181.7,110.7,181.7,110.7,181.7,110.7"/>
			<path class="st7" d="M181.8,114.6c-0.9,0-1.8,0-2.7,0c-0.6,0-0.8-0.5-0.7-1.1c0.3-1.3,0.7-2.5,1.7-3.5c0.2-0.2,0.4-0.4,0.8-0.7
				C180.3,111.3,180.4,113,181.8,114.6"/>
			<path class="st7" d="M161.6,114c-0.4,2.4-0.3,2.7,1.9,5c-1.6,0.5-3.2,0.6-4.8,0.1c-0.1,0-0.3-0.2-0.3-0.3
				c-0.1-2.3,1.4-4.1,3.1-4.8C161.5,114,161.5,114,161.6,114"/>
			<path class="st4" d="M162.6,115.1c0,0,0-0.1,0-0.1c0.1-1.2,0.3-1.4,1.5-1.1c1.3,0.3,2.4,1,3,2.3c0.1,0.2,0.1,0.6,0,0.9
				c-0.7,1.2-1.7,1.5-2.9,0.8C163.2,117.1,162.6,116.1,162.6,115.1"/>
		</g>
	</g>
</g>
<g>
	<g>
		<defs>
			<rect id="SVGID_5_" x="345" y="145.5" width="241.7" height="196.1"/>
		</defs>
		<clipPath id="SVGID_6_">
			<use xlink:href="#SVGID_5_"  style="overflow:visible;"/>
		</clipPath>
		<g class="st9">
			<defs>
				<rect id="SVGID_7_" x="345" y="145.5" width="241.7" height="196.1"/>
			</defs>
			<clipPath id="SVGID_8_">
				<use xlink:href="#SVGID_7_"  style="overflow:visible;"/>
			</clipPath>
			<path class="st10" d="M507,255.2c-5.3,0-85,0-90.3,0c-5.6,0-11.3-0.1-16.9-0.2c-2.4,0-4.9-0.1-7.3-0.2c-0.4,0-0.9-0.4-1.1-0.7
				c-2.4-3.3-3.6-7-3.4-11.1c0.1-3.7,1.2-7,3.4-9.9c0.8-1.1,1.7-1.6,3.2-1.6c5.2,0.3,10.4,0.4,15.6,0.5c4.9,0.1,9.9,0.3,14.8,0.4
				c5,0.2,84.4,0.3,89.3,0.5c2.9,0.1,5.8,0.2,8.7,0.2c1.3,0,2.5,0.2,3.7,0.9c5.2,2.8,10.4,5.6,15.6,8.3c1.3,0.7,1.9,1.8,1.4,2.9
				c-0.2,0.5-0.6,0.9-1.1,1.2c-3.3,1.7-6.7,3.3-10.1,4.9c-2.5,1.2-5,2.5-7.5,3.8c-0.3,0.2-0.7,0.3-1.1,0.3c-5.7,0-11.3,0-17,0V255.2
				z M403.4,248.8c8.5,0.1,91.4,0.2,99.9,0.4c5.1,0.1,10.1,0.2,15.2,0.2c1.7,0,3.5,0.5,5.1-0.9c0.9-0.8,1.9-1.5,2.2-2.8
				c0.4-1.6,0.5-3-1-4.1c-0.5-0.4-0.9-0.9-1.4-1.2c-0.4-0.3-0.9-0.6-1.4-0.6c-10-0.1-94.4-0.2-104.4-0.3c-4.3,0-8.6-0.1-12.9-0.2
				c-0.7,0-0.9,0.1-1.1,0.9C402.9,243,402.9,245.9,403.4,248.8 M404,237.9c0.4,0,0.7,0.1,0.9,0.1c6.3,0.1,12.6,0.1,18.9,0.2
				c7.9,0.1,90.2,0.1,98.2,0.2c1.8,0,3.4-1.1,4.1-3.1c-0.7-0.2-1.3-0.5-2-0.6c-2-0.1-3.9-0.1-5.9-0.2c-4.9-0.2-9.9-0.3-14.8-0.5
				c-3.1-0.1-80.7-0.2-83.8-0.3c-4.4-0.1-8.8-0.3-13.2-0.4c-0.3,0-0.7,0.2-0.8,0.5C405.1,235.1,404.6,236.4,404,237.9 M403.7,250.4
				c0.2,0.8,0.5,1.7,0.7,2.6c0.1,0.6,0.5,0.7,1,0.7c4.7,0,9.4,0.1,14,0.2c7.5,0.1,89.5,0.1,97,0.2c2.5,0,4.9,0.1,7.4,0
				c0.5,0,1-0.4,1.6-0.7c-0.3-0.4-0.5-0.9-0.9-1.2c-0.5-0.5-1.1-0.9-1.7-1.3c-0.2-0.1-0.5-0.2-0.7-0.2c-4.7-0.1-9.5-0.1-14.2-0.2
				c-4.7-0.1-83.9-0.1-88.6-0.2C414.2,250.3,409,250.4,403.7,250.4 M397.4,253.5c-2.4-7-1.8-13.8,1.3-20.4c-1.3-0.1-2.5-0.1-3.7-0.3
				c-1.4-0.2-2.2,0.5-2.9,1.4c-1.5,2.2-2.3,4.6-2.7,7.2c-0.6,4.3,0.4,8.1,2.9,11.6c0.1,0.2,0.4,0.4,0.6,0.4
				C394.3,253.5,395.8,253.5,397.4,253.5 M535.8,248.3c-0.1-1.4-0.4-2.6-0.4-3.8c0.1-1.2,0.5-2.4,0.7-3.7c-2.9-1.5-5.8-3.1-8.6-4.6
				c-1.1,1.1-2.1,2.2-3.2,3.3c1.7,1.3,3.3,2.7,2.9,5.3c-0.4,2.3-1.3,4.1-3.5,5c1.1,1,2.2,2,3.3,3C530,251.3,533,249.7,535.8,248.3
				 M401.7,233.2c-0.7,0-1.3-0.4-1.7,0.4c-1.3,2.9-2.3,5.8-2.6,9c-0.4,3.8,0.1,7.4,1.4,11h1.5c-1-3.4-1.6-6.8-1.4-10.2
				C399.1,239.8,400.1,236.5,401.7,233.2 M403.2,253.6c-2.4-7-1.9-13.7,1-20.4c-0.5,0.1-1.1,0.2-1.3,0.5c-1.7,3.6-2.9,7.3-2.8,11.3
				c0.1,2.5,0.7,5,1.1,7.4C401.5,253.7,401.6,253.7,403.2,253.6 M537.2,247.5c1.5-0.7,3-1.4,4.5-2.2c0.3-0.1,0.7-0.4,0.7-0.7
				c0-0.3-0.3-0.7-0.6-0.9c-1.4-0.8-2.8-1.5-4.3-2.3C536.7,243.5,536.4,245.4,537.2,247.5"/>
			<path class="st11" d="M403.4,248.8c-0.5-2.9-0.5-5.8,0.1-8.7c0.1-0.7,0.4-0.9,1.1-0.9c4.3,0.1,8.6,0.1,12.9,0.2
				c10,0.1,94.4,0.1,104.4,0.3c0.5,0,1,0.3,1.4,0.6c0.5,0.4,0.9,0.9,1.4,1.2c1.5,1.1,1.4,2.5,1,4.1c-0.3,1.3-1.3,2-2.2,2.8
				c-1.5,1.4-3.3,0.9-5.1,0.9c-5.1,0-10.1-0.1-15.2-0.2C494.8,249,411.9,248.9,403.4,248.8"/>
			<path class="st12" d="M404,237.9c0.6-1.5,1.1-2.8,1.6-4.1c0.1-0.2,0.5-0.5,0.8-0.5c4.4,0.1,8.8,0.3,13.2,0.4
				c3.1,0.1,80.7,0.2,83.8,0.3c4.9,0.2,9.9,0.3,14.8,0.5c2,0.1,3.9,0.1,5.9,0.2c0.7,0,1.3,0.4,2,0.6c-0.7,1.9-2.3,3.1-4.1,3.1
				c-7.9-0.1-90.2-0.1-98.2-0.2c-6.3-0.1-12.6-0.1-18.9-0.2C404.7,237.9,404.4,237.9,404,237.9"/>
			<path class="st13" d="M403.7,250.4c5.4,0,10.5,0,15.7,0c4.7,0,83.9,0.1,88.6,0.2c4.7,0.1,9.5,0.1,14.2,0.2c0.2,0,0.5,0,0.7,0.2
				c0.6,0.4,1.2,0.8,1.7,1.3c0.4,0.3,0.6,0.8,0.9,1.2c-0.5,0.2-1,0.7-1.6,0.7c-2.5,0.1-4.9,0-7.4,0c-7.5-0.1-89.5-0.1-97-0.2
				c-4.7,0-9.4-0.1-14-0.2c-0.6,0-0.9-0.1-1-0.7C404.2,252.1,403.9,251.2,403.7,250.4"/>
			<path class="st14" d="M397.4,253.5c-1.6,0-3,0-4.5,0c-0.2,0-0.5-0.2-0.6-0.4c-2.5-3.5-3.5-7.4-2.9-11.6c0.4-2.6,1.2-5.1,2.7-7.2
				c0.7-1,1.5-1.7,2.9-1.4c1.2,0.2,2.4,0.2,3.7,0.3C395.6,239.7,394.9,246.5,397.4,253.5"/>
			<path class="st15" d="M535.8,248.3c-2.8,1.4-5.8,3-8.7,4.5c-1.1-1-2.1-1.9-3.3-3c2.2-0.9,3.1-2.7,3.5-5c0.4-2.6-1.2-4-2.9-5.3
				c1-1.1,2.1-2.1,3.2-3.3c2.8,1.5,5.8,3.1,8.6,4.6c-0.3,1.3-0.7,2.5-0.7,3.7C535.4,245.7,535.7,246.9,535.8,248.3"/>
			<path class="st16" d="M401.7,233.2c-1.5,3.3-2.5,6.7-2.8,10.1c-0.3,3.5,0.3,6.9,1.4,10.2h-1.5c-1.3-3.6-1.8-7.3-1.4-11
				c0.3-3.1,1.4-6.1,2.6-9C400.3,232.7,401,233.2,401.7,233.2"/>
			<path class="st16" d="M403.2,253.6c-1.6,0.1-1.7,0.1-1.9-1.2c-0.4-2.5-1-4.9-1.1-7.4c-0.1-4,1.1-7.7,2.8-11.3
				c0.1-0.3,0.7-0.4,1.3-0.5C401.3,239.9,400.8,246.7,403.2,253.6"/>
			<path class="st17" d="M537.2,247.5c-0.8-2.1-0.5-4,0.3-6c1.4,0.8,2.9,1.5,4.3,2.3c0.3,0.2,0.6,0.6,0.6,0.9c0,0.2-0.4,0.5-0.7,0.7
				C540.2,246.1,538.7,246.8,537.2,247.5"/>
		</g>
	</g>
</g>
<line class="st18" x1="354.1" y1="128.6" x2="576.8" y2="351.3"/>
<line class="st18" x1="575.8" y1="130.6" x2="353.1" y2="353.3"/>
</svg>
