<?xml version="1.0" encoding="utf-8"?>
<!-- Generator: Adobe Illustrator 22.1.0, SVG Export Plug-In . SVG Version: 6.00 Build 0)  -->
<svg version="1.1" xmlns="http://www.w3.org/2000/svg" xmlns:xlink="http://www.w3.org/1999/xlink" x="0px" y="0px"
	 viewBox="0 0 690 500" style="enable-background:new 0 0 690 500;" xml:space="preserve">
<style type="text/css">
	.st0{clip-path:url(#SVGID_2_);}
	.st1{clip-path:url(#SVGID_4_);}
	.st2{clip-path:url(#SVGID_4_);fill:#FF6927;}
	.st3{clip-path:url(#SVGID_4_);fill:#275615;}
	.st4{fill:#FFFFFF;stroke:#000000;stroke-miterlimit:10;}
	.st5{font-family:'Roboto-Black', sans-serif;}
	.st6{font-size:56.3436px;}
	.st7{clip-path:url(#SVGID_6_);}
	.st8{clip-path:url(#SVGID_8_);}
	.st9{clip-path:url(#SVGID_8_);fill:#FF6927;}
	.st10{clip-path:url(#SVGID_8_);fill:#275615;}
	.st11{clip-path:url(#SVGID_10_);}
	.st12{clip-path:url(#SVGID_12_);}
	.st13{clip-path:url(#SVGID_12_);fill:#FF6927;}
	.st14{clip-path:url(#SVGID_12_);fill:#275615;}
	.st15{font-size:34.359px;}
	.st16{clip-path:url(#SVGID_14_);}
	.st17{clip-path:url(#SVGID_16_);}
	.st18{clip-path:url(#SVGID_16_);fill:#FF6927;}
	.st19{clip-path:url(#SVGID_16_);fill:#275615;}
	.st20{clip-path:url(#SVGID_18_);}
	.st21{clip-path:url(#SVGID_20_);}
	.st22{clip-path:url(#SVGID_20_);fill:#FF6927;}
	.st23{clip-path:url(#SVGID_20_);fill:#275615;}
	.st24{clip-path:url(#SVGID_22_);}
	.st25{clip-path:url(#SVGID_24_);}
	.st26{clip-path:url(#SVGID_24_);fill:#FF6927;}
	.st27{clip-path:url(#SVGID_24_);fill:#275615;}
	.st28{clip-path:url(#SVGID_26_);}
	.st29{clip-path:url(#SVGID_28_);}
	.st30{clip-path:url(#SVGID_28_);fill:#FF6927;}
	.st31{clip-path:url(#SVGID_28_);fill:#275615;}
</style>
<g id="J">
	<g>
		<g>
			<defs>
				<rect id="SVGID_1_" y="11.2" width="196" height="225.8"/>
			</defs>
			<clipPath id="SVGID_2_">
				<use xlink:href="#SVGID_1_"  style="overflow:visible;"/>
			</clipPath>
			<g class="st0">
				<defs>
					<rect id="SVGID_3_" y="11.2" width="98" height="219.1"/>
				</defs>
				<clipPath id="SVGID_4_">
					<use xlink:href="#SVGID_3_"  style="overflow:visible;"/>
				</clipPath>
				<path class="st1" d="M85.9,71.5c-0.8-1.6-0.7-2.4,0.6-3.7c1-1.1,2.3-1.8,3.7-2.1c3.3-0.7,6.5-0.7,9.7,0.7
					c2.7,1.2,3.8,3.3,3.6,6.2c1.8,0.6,3.7,1.2,5.6,1.8c2.3,0.7,4.7,1.3,6.9,2.2c8.5,3.3,16.2,7.9,22.5,14.7
					c5.3,5.7,9.7,11.9,13.2,18.8c5.7,11.3,5.9,22.8,1.1,34.4c-3.2,7.9-7.6,15.1-13.3,21.5c-6.5,7.3-14.6,12.1-24.1,14.6
					c-10.4,2.7-20.8,3-31.3,0.9c-9.8-1.9-18.7-5.9-26.6-12.1c-12.1-9.5-17.7-22-17.3-37.3c0.2-10.2,3.1-19.8,7.5-28.9
					c3.5-7.1,7.9-13.6,13.8-19c6.6-6,14-10.4,22.7-12.6c0.3-0.1,0.6-0.1,1-0.2C85.3,71.6,85.6,71.5,85.9,71.5 M96.3,180.4
					c7.1,0,13-0.7,18.9-2.3c7.1-2,13.5-5.2,18.9-10.3c7.7-7.3,13.2-16,16.9-25.9c3.5-9.4,3.5-18.7-0.5-28
					c-3.1-7.2-7.4-13.5-12.5-19.4c-6.6-7.7-15.1-12.5-24.3-16.1c-3.4-1.3-7.1-2-10.7-2.7c-5.7-1.1-11.4-1.5-17.1-0.7
					c-8.5,1.2-15.8,4.9-22.3,10.3c-1.3,1-2.4,2.3-3.5,3.5c-5.2,5.6-9,12.1-12,19.1c-3.9,9.2-6.1,18.8-5.5,28.9
					c0.4,6.6,2,12.8,5.4,18.5c4,6.8,9.7,12,16.4,16.1C74.4,177.5,85.5,180.3,96.3,180.4 M87.5,70c0.3,0.2,0.6,0.4,0.9,0.5
					c1.5,0.5,3.1,1,4.7,1.5c0.6,0.2,1.2,0.2,1.8,0.2c1.8,0,3.6-0.2,5.4-0.2c0.8,0,1-0.2,0.8-1c-0.4-1.3-1.3-2.1-2.5-2.6
					c-2.8-1-5.7-1.1-8.5-0.3C89,68.3,88.1,68.9,87.5,70"/>
				<path class="st2" d="M96.3,180.4c-10.8-0.1-21.9-2.9-32-9c-6.7-4.1-12.4-9.3-16.4-16.1c-3.3-5.7-5-11.9-5.4-18.5
					c-0.7-10.1,1.5-19.7,5.5-28.9c3-7,6.8-13.5,12-19.1c1.1-1.2,2.3-2.4,3.5-3.5C70,79.9,77.3,76.2,85.8,75
					c5.8-0.8,11.5-0.4,17.1,0.7c3.6,0.7,7.3,1.4,10.7,2.7c9.3,3.6,17.7,8.4,24.3,16.1c5.1,5.9,9.5,12.2,12.5,19.4
					c4,9.3,4,18.6,0.5,28c-3.7,9.9-9.2,18.6-16.9,25.9c-5.4,5.1-11.8,8.3-18.9,10.3C109.3,179.7,103.3,180.4,96.3,180.4 M77.8,88.4
					c0.2,0.8,0.2,1.5,0.4,2c0.1,0.3,0.6,0.5,0.9,0.7c0.2-0.3,0.6-0.6,0.6-1c0-0.5-0.1-1.1-0.2-1.7c-0.2-0.6-0.2-1.5-1-1.4
					C78.2,87.1,78,88,77.8,88.4 M109.5,126.2c0-1.1-0.9-2.1-1.6-1.9c-0.3,0.1-0.7,0.5-0.7,0.8c-0.1,0.9,0.6,1.9,1.3,1.8
					C108.9,126.8,109.3,126.4,109.5,126.2 M136.2,140.2c0.6-0.8,0.8-1.5,0.4-2.2c-0.3-0.5-0.7-0.7-1.3-0.5c-0.5,0.2-0.7,0.8-0.4,1.3
					C135.2,139.2,135.7,139.6,136.2,140.2 M97.4,128.4c-0.6-0.7-1-1.2-1.5-1.8c-0.3,0.4-0.7,0.9-0.8,1.3c-0.1,0.8,0.5,1.5,1.2,1.3
					C96.7,129.2,96.9,128.8,97.4,128.4 M72.1,148.7c-0.6-0.9-1.5-1.2-2.2-0.7c-0.6,0.4-0.6,0.9,0,1.3
					C70.6,149.8,71.4,149.6,72.1,148.7 M58.8,139c0-1-0.7-1.8-1.3-1.8c-0.6,0-0.7,0.4-0.7,0.9c0,0.8,0.6,1.6,1.2,1.5
					C58.3,139.5,58.6,139.1,58.8,139 M123.8,130.1c0.1-0.2,0.5-0.4,0.5-0.7c0.1-0.6-0.7-1.3-1.4-1.3c-0.5,0-0.7,0.2-0.7,0.7
					C122.2,129.4,122.8,130.1,123.8,130.1 M70,90.4c0.1-0.2,0.5-0.4,0.6-0.7c0.1-0.6-0.6-1.3-1.2-1.2c-0.3,0.1-0.8,0.5-0.8,0.8
					C68.5,89.9,69.1,90.2,70,90.4 M130.9,102.5c0-0.9-0.6-1.6-1.2-1.5c-0.3,0.1-0.7,0.5-0.7,0.8c0,0.6,0.3,1.2,1,1.2
					C130.4,103,130.7,102.6,130.9,102.5 M55.5,127.2c0.4-0.9,0.6-1.6-0.1-2.3c-0.2-0.2-0.6-0.3-0.9-0.2c-0.2,0.1-0.4,0.5-0.4,0.7
					C54.2,126.3,54.7,126.8,55.5,127.2 M100.3,117.5c-0.5-0.5-0.8-0.8-1.1-1.2c-0.3,0.3-0.7,0.7-0.7,1c-0.1,0.6,0.2,1.2,0.9,1.2
					C99.6,118.5,99.9,117.9,100.3,117.5 M124.8,99.3c-0.5-0.5-0.8-1-1.1-1c-0.6-0.1-0.8,0.4-0.9,1c0,0.5,0.2,1,0.8,1
					C123.9,100.2,124.2,99.8,124.8,99.3 M79.3,118.8c-0.5-0.5-0.9-0.9-1.2-1.3c-0.2,0.3-0.6,0.6-0.6,0.9c-0.1,0.6,0.5,1.3,1,1.2
					C78.7,119.5,78.9,119.2,79.3,118.8 M77.7,141.2c0.2-0.1,0.3-0.2,0.5-0.3c-0.1-0.5-0.2-1.1-0.4-1.6c-0.1-0.2-0.6-0.2-0.9-0.3
					c-0.1,0.3-0.4,0.8-0.3,1C76.9,140.5,77.3,140.8,77.7,141.2 M77.5,155.3c0-0.1,0-0.2,0-0.4c-0.4-0.2-0.8-0.5-1.2-0.6
					c-0.5-0.1-1,0.3-0.9,0.8c0.1,0.3,0.6,0.7,0.9,0.7C76.7,155.9,77.1,155.5,77.5,155.3 M59.9,133.6c0.1-0.1,0.4-0.3,0.4-0.5
					c0-0.6-0.3-1.2-0.9-1.2c-0.3,0-0.8,0.4-0.8,0.6C58.6,133.1,59,133.4,59.9,133.6 M61.8,126.9c-0.6-0.5-0.9-0.9-1.2-0.9
					c-0.3,0-0.7,0.5-0.7,0.8c0,0.3,0.4,0.8,0.7,0.8C60.9,127.7,61.2,127.3,61.8,126.9 M124.4,143.3c0.6,0.4,0.9,0.8,1.3,0.9
					c0.1,0,0.7-0.6,0.6-0.8c-0.2-0.4-0.6-0.7-1-0.9C125.2,142.4,124.9,142.8,124.4,143.3 M104.9,135.1c-0.6-0.4-0.9-0.8-1.2-0.8
					c-0.3,0-0.8,0.5-0.8,0.8c0,0.3,0.5,0.8,0.8,0.8C104,136,104.3,135.6,104.9,135.1 M72.5,158.5c-0.4,0.5-0.7,0.8-0.7,1
					c0,0.6,0.4,1,1,1c0.2,0,0.7-0.5,0.7-0.6C73.3,159.5,73,159.1,72.5,158.5 M96.3,147.3c-0.4-0.4-0.7-0.7-1-0.8
					c-0.2,0-0.7,0.6-0.7,0.7c0.2,0.4,0.6,0.7,0.9,1C95.7,147.9,95.9,147.7,96.3,147.3 M87.1,166.7c-0.5-0.5-0.9-0.8-1.2-1.1
					c-0.2,0.3-0.6,0.5-0.6,0.8c-0.1,0.6,0.3,1,0.9,1C86.3,167.5,86.6,167.1,87.1,166.7 M58.3,110.2c0.4-0.4,0.7-0.6,0.7-0.8
					c0-0.6-0.2-1-0.8-1c-0.2,0-0.7,0.5-0.7,0.6C57.6,109.4,58,109.7,58.3,110.2 M137.4,111.5c-0.5-0.4-0.8-0.6-1.1-0.9
					c-0.2,0.3-0.6,0.6-0.7,1c0,0.2,0.5,0.8,0.6,0.7C136.7,112.3,136.9,111.9,137.4,111.5 M84.3,99.8c-0.4,0.5-0.8,0.9-0.8,1
					c0.1,0.3,0.5,0.7,0.8,0.8c0.1,0.1,0.7-0.4,0.7-0.7C85.1,100.7,84.7,100.4,84.3,99.8 M57.5,149.6c0-0.1,0-0.2,0-0.3
					c-0.3-0.2-0.7-0.5-1-0.5c-0.3,0-0.6,0.4-0.9,0.6c0.2,0.2,0.5,0.7,0.7,0.7C56.8,150.1,57.2,149.8,57.5,149.6 M74.6,93.2
					c-0.4,0.5-0.8,0.9-0.7,1c0.2,0.3,0.5,0.6,0.8,0.8c0.1,0.1,0.7-0.4,0.6-0.4C75.2,94.1,74.9,93.8,74.6,93.2 M115.2,164.6
					c0.3-0.6,0.7-0.9,0.6-1.2c0-0.3-0.5-0.5-0.7-0.7c-0.2,0.3-0.6,0.5-0.7,0.9C114.5,163.8,114.9,164.1,115.2,164.6 M88.2,155.8
					c-0.5-0.7-0.9-1.2-1.7-0.8c-0.2,0.1-0.3,0.6-0.2,0.7C86.7,156.4,87.4,156.1,88.2,155.8 M136.9,129.7c-0.6-0.4-1-0.7-1.4-0.9
					c-0.1,0-0.4,0.4-0.5,0.6c0.3,0.3,0.7,0.6,1,0.8C136.1,130.3,136.4,130,136.9,129.7 M110.9,150.6c-0.4-0.4-0.7-0.6-1-0.9
					c-0.2,0.3-0.6,0.6-0.5,0.8c0.1,0.4,0.5,0.7,0.7,1C110.3,151.2,110.5,151,110.9,150.6 M66.8,132.3c-0.3-0.7-0.6-1.3-1.4-1
					c-0.2,0.1-0.4,0.5-0.3,0.7C65.5,132.8,66.1,132.6,66.8,132.3 M101.4,88.1c0.4-0.6,0.5-1.2,0.2-1.8c-0.1-0.2-0.3-0.4-0.5-0.3
					c-0.2,0.1-0.4,0.3-0.5,0.5C100.5,87.1,100.8,87.6,101.4,88.1 M119.7,89.8c-0.1,0-0.2,0-0.3,0c-0.2,0.3-0.5,0.6-0.4,0.8
					c0.1,0.3,0.5,0.6,0.7,0.9c0.2-0.3,0.5-0.6,0.5-0.8C120.1,90.4,119.8,90.1,119.7,89.8 M68.8,104.2c-0.4-0.3-0.6-0.7-0.9-0.7
					c-0.2,0-0.6,0.5-0.6,0.7c0.1,0.3,0.4,0.6,0.7,0.9C68.2,104.8,68.5,104.6,68.8,104.2 M129.2,106.5c-0.4-0.4-0.7-0.8-0.9-0.7
					c-0.3,0.1-0.6,0.4-0.7,0.7c0,0.2,0.4,0.6,0.6,0.6C128.5,107.2,128.8,106.9,129.2,106.5 M63.9,135.8c-0.3,0.5-0.6,0.8-0.6,1.1
					c0,0.3,0.4,0.5,0.6,0.7c0.2-0.3,0.6-0.5,0.6-0.8C64.6,136.6,64.3,136.3,63.9,135.8 M101.9,168c-0.3,0.5-0.6,0.7-0.6,1
					c0,0.2,0.4,0.4,0.6,0.6c0.2-0.3,0.6-0.5,0.7-0.8C102.6,168.7,102.3,168.4,101.9,168 M102.1,127.4c-0.3,0.5-0.6,0.8-0.6,1
					c0,0.2,0.4,0.5,0.7,0.6c0.2,0,0.6-0.4,0.5-0.6C102.7,128.2,102.4,127.9,102.1,127.4 M89.3,93.2c0.3-0.4,0.7-0.7,0.7-0.9
					c-0.1-0.3-0.5-0.6-0.7-0.6c-0.2,0-0.6,0.4-0.7,0.6C88.6,92.5,89,92.7,89.3,93.2 M105.6,99.7c0.2-0.5,0.5-0.8,0.5-0.9
					c-0.1-0.3-0.4-0.5-0.7-0.8c-0.2,0.2-0.5,0.5-0.5,0.7C105,99,105.3,99.3,105.6,99.7 M133,147.1c-0.3,0.4-0.6,0.7-0.6,0.9
					c0,0.2,0.4,0.6,0.6,0.6c0.2,0,0.5-0.3,0.6-0.6C133.5,147.8,133.3,147.5,133,147.1 M116.7,113.5c0.2-0.6,0.3-1.1-0.3-1.5
					c-0.1-0.1-0.5,0.1-0.5,0.2C115.6,112.9,116,113.2,116.7,113.5 M123.5,154.8c0.3-0.4,0.6-0.6,0.5-0.7c-0.1-0.3-0.4-0.5-0.6-0.7
					c-0.2,0.2-0.6,0.4-0.5,0.5C122.9,154.2,123.2,154.4,123.5,154.8 M127.5,93.7c0.3-0.5,0.5-0.7,0.5-1c0-0.2-0.3-0.4-0.4-0.5
					c-0.2,0.2-0.4,0.4-0.5,0.7C127.1,93,127.3,93.3,127.5,93.7 M78.7,104.3c-0.6,0.2-0.8,0.5-0.6,1.1c0,0.1,0.5,0.2,0.6,0.2
					C79.2,105.2,79.1,104.8,78.7,104.3 M147.8,127.2c0-0.2,0-0.4,0-0.6c-0.3-0.1-0.5-0.3-0.8-0.2c-0.2,0-0.5,0.3-0.5,0.5
					c0,0.2,0.2,0.6,0.4,0.6C147.3,127.5,147.6,127.3,147.8,127.2 M117.1,142.9c-0.4-0.2-0.6-0.5-0.8-0.5c-0.2,0-0.3,0.2-0.5,0.4
					c0.2,0.2,0.3,0.5,0.5,0.5C116.4,143.3,116.7,143.1,117.1,142.9"/>
				<path class="st3" d="M87.5,70c0.6-1.1,1.5-1.7,2.6-2c2.9-0.8,5.7-0.7,8.5,0.3c1.2,0.5,2.1,1.3,2.5,2.6c0.2,0.8,0,1-0.8,1
					c-1.8,0-3.6,0.2-5.4,0.2c-0.6,0-1.2,0-1.8-0.2c-1.6-0.5-3.1-1-4.7-1.5C88.1,70.4,87.8,70.2,87.5,70"/>
				<path class="st1" d="M77.8,88.4c0.2-0.4,0.4-1.3,0.7-1.3c0.8-0.1,0.8,0.8,1,1.4c0.2,0.5,0.3,1.1,0.2,1.7c0,0.3-0.4,0.7-0.6,1
					c-0.3-0.2-0.8-0.4-0.9-0.7C78,89.8,78,89.2,77.8,88.4"/>
				<path class="st1" d="M97.4,128.4c-0.5,0.4-0.7,0.8-1.1,0.9c-0.7,0.1-1.3-0.6-1.2-1.3c0.1-0.5,0.5-0.9,0.8-1.3
					C96.4,127.2,96.8,127.7,97.4,128.4"/>
				<path class="st1" d="M72.1,148.7c-0.6,0.9-1.4,1.1-2.2,0.6c-0.6-0.4-0.7-0.9,0-1.3C70.6,147.5,71.4,147.8,72.1,148.7"/>
				<path class="st1" d="M58.8,139c-0.2,0.1-0.4,0.5-0.8,0.5c-0.6,0.1-1.2-0.7-1.2-1.5c0-0.5,0.1-0.9,0.7-0.9
					C58.1,137.2,58.8,138,58.8,139"/>
				<path class="st1" d="M70,90.4c-0.9-0.1-1.5-0.4-1.4-1.1c0-0.3,0.5-0.7,0.8-0.8c0.5-0.1,1.2,0.6,1.2,1.2
					C70.5,90,70.1,90.2,70,90.4"/>
				<path class="st1" d="M55.5,127.2c-0.8-0.4-1.4-0.9-1.3-1.8c0-0.3,0.2-0.7,0.4-0.7c0.3-0.1,0.7,0,0.9,0.2
					C56.1,125.6,55.9,126.4,55.5,127.2"/>
				<path class="st1" d="M79.3,118.8c-0.4,0.4-0.6,0.7-0.9,0.8c-0.5,0.1-1.1-0.6-1-1.2c0.1-0.3,0.4-0.6,0.6-0.9
					C78.4,117.9,78.8,118.3,79.3,118.8"/>
				<path class="st1" d="M77.7,141.2c-0.4-0.4-0.8-0.8-1.1-1.2c-0.1-0.2,0.2-0.7,0.3-1c0.3,0.1,0.8,0.1,0.9,0.3
					c0.2,0.5,0.3,1.1,0.4,1.6C78,141,77.9,141.1,77.7,141.2"/>
				<path class="st1" d="M77.5,155.3c-0.4,0.2-0.8,0.6-1.1,0.6c-0.3,0-0.8-0.4-0.9-0.7c-0.1-0.6,0.3-0.9,0.9-0.8
					c0.4,0.1,0.8,0.4,1.2,0.6C77.5,155.1,77.5,155.2,77.5,155.3"/>
				<path class="st1" d="M59.9,133.6c-0.8-0.2-1.3-0.5-1.3-1.2c0-0.2,0.5-0.6,0.8-0.6c0.7,0,1,0.6,0.9,1.2
					C60.3,133.3,60,133.5,59.9,133.6"/>
				<path class="st1" d="M61.8,126.9c-0.6,0.4-1,0.8-1.2,0.8c-0.3-0.1-0.8-0.5-0.7-0.8c0-0.3,0.5-0.9,0.7-0.9
					C60.9,125.9,61.3,126.4,61.8,126.9"/>
				<path class="st1" d="M72.5,158.5c0.4,0.6,0.8,1,0.9,1.4c0,0.1-0.4,0.6-0.7,0.6c-0.6,0-1-0.4-1-1C71.8,159.2,72.1,159,72.5,158.5
					"/>
				<path class="st1" d="M96.3,147.3c-0.4,0.4-0.6,0.6-0.8,0.9c-0.3-0.3-0.7-0.6-0.9-1c0-0.1,0.5-0.7,0.7-0.7
					C95.6,146.5,95.8,146.9,96.3,147.3"/>
				<path class="st1" d="M87.1,166.7c-0.5,0.4-0.7,0.8-1,0.8c-0.6,0-0.9-0.5-0.9-1c0-0.3,0.4-0.5,0.6-0.8
					C86.2,166,86.5,166.3,87.1,166.7"/>
				<path class="st1" d="M58.3,110.2c-0.4-0.6-0.7-0.9-0.8-1.3c0-0.1,0.4-0.6,0.7-0.6c0.6,0,0.9,0.5,0.8,1
					C59,109.6,58.7,109.8,58.3,110.2"/>
				<path class="st1" d="M84.3,99.8c0.4,0.6,0.7,0.9,0.7,1.2c0,0.2-0.6,0.7-0.7,0.7c-0.3-0.1-0.7-0.5-0.8-0.8
					C83.5,100.7,83.9,100.4,84.3,99.8"/>
				<path class="st1" d="M57.5,149.6c-0.4,0.2-0.7,0.5-1.1,0.5c-0.2,0-0.5-0.4-0.7-0.7c0.3-0.2,0.6-0.6,0.9-0.6c0.3,0,0.7,0.3,1,0.5
					C57.5,149.4,57.5,149.5,57.5,149.6"/>
				<path class="st1" d="M74.6,93.2c0.4,0.6,0.6,1,0.7,1.4c0,0.1-0.5,0.5-0.6,0.4c-0.3-0.2-0.7-0.5-0.8-0.8
					C73.8,94,74.2,93.7,74.6,93.2"/>
				<path class="st1" d="M88.2,155.8c-0.8,0.3-1.4,0.6-1.9-0.1c-0.1-0.1,0.1-0.6,0.2-0.7C87.3,154.6,87.7,155.1,88.2,155.8"/>
				<path class="st1" d="M66.8,132.3c-0.7,0.3-1.3,0.4-1.7-0.3c-0.1-0.2,0.1-0.6,0.3-0.7C66.2,131.1,66.6,131.6,66.8,132.3"/>
				<path class="st1" d="M68.8,104.2c-0.4,0.4-0.6,0.6-0.8,0.8c-0.2-0.3-0.6-0.5-0.7-0.9c0-0.2,0.4-0.7,0.6-0.7
					C68.2,103.5,68.4,103.9,68.8,104.2"/>
				<path class="st1" d="M63.9,135.8c0.3,0.5,0.7,0.8,0.7,1c-0.1,0.3-0.4,0.5-0.6,0.8c-0.2-0.2-0.6-0.5-0.6-0.7
					C63.3,136.6,63.6,136.3,63.9,135.8"/>
				<path class="st1" d="M89.3,93.2c-0.4-0.4-0.7-0.7-0.7-0.9c0-0.2,0.4-0.6,0.7-0.6c0.3,0,0.6,0.3,0.7,0.6
					C90,92.4,89.6,92.7,89.3,93.2"/>
				<path class="st1" d="M78.7,104.3c0.4,0.4,0.5,0.9,0,1.2c-0.1,0.1-0.5,0-0.6-0.2C77.9,104.8,78.1,104.5,78.7,104.3"/>
			</g>
		</g>
	</g>
	<text transform="matrix(1 0 0 1 73.6357 140.1602)" class="st4 st5 st6">j</text>
</g>
<g id="R">
	<g>
		<g>
			<defs>
				<rect id="SVGID_5_" x="-8" y="181.2" width="196" height="225.8"/>
			</defs>
			<clipPath id="SVGID_6_">
				<use xlink:href="#SVGID_5_"  style="overflow:visible;"/>
			</clipPath>
			<g class="st7">
				<defs>
					<rect id="SVGID_7_" x="-8" y="181.2" width="98" height="219.1"/>
				</defs>
				<clipPath id="SVGID_8_">
					<use xlink:href="#SVGID_7_"  style="overflow:visible;"/>
				</clipPath>
				<path class="st8" d="M77.9,241.5c-0.8-1.6-0.7-2.4,0.6-3.7c1-1.1,2.3-1.8,3.7-2.1c3.3-0.7,6.5-0.7,9.7,0.7
					c2.7,1.2,3.8,3.3,3.6,6.2c1.8,0.6,3.7,1.2,5.6,1.8c2.3,0.7,4.7,1.3,6.9,2.2c8.5,3.3,16.2,7.9,22.5,14.7
					c5.3,5.7,9.7,11.9,13.2,18.8c5.7,11.3,5.9,22.8,1.1,34.4c-3.2,7.9-7.6,15.1-13.3,21.5c-6.5,7.3-14.6,12.1-24.1,14.6
					c-10.4,2.7-20.8,3-31.3,0.9c-9.8-1.9-18.7-5.9-26.6-12.1c-12.1-9.5-17.7-22-17.3-37.3c0.2-10.2,3.1-19.8,7.5-28.9
					c3.5-7.1,7.9-13.6,13.8-19c6.6-6,14-10.4,22.7-12.6c0.3-0.1,0.6-0.1,1-0.2C77.3,241.6,77.6,241.5,77.9,241.5 M88.3,350.4
					c7.1,0,13-0.7,18.9-2.3c7.1-2,13.5-5.2,18.9-10.3c7.7-7.3,13.2-16,16.9-25.9c3.5-9.4,3.5-18.7-0.5-28
					c-3.1-7.2-7.4-13.5-12.5-19.4c-6.6-7.7-15.1-12.5-24.3-16.1c-3.4-1.3-7.1-2-10.7-2.7c-5.7-1.1-11.4-1.5-17.1-0.7
					c-8.5,1.2-15.8,4.9-22.3,10.3c-1.3,1-2.4,2.3-3.5,3.5c-5.2,5.6-9,12.1-12,19.1c-3.9,9.2-6.1,18.8-5.5,28.9
					c0.4,6.6,2,12.8,5.4,18.5c4,6.8,9.7,12,16.4,16.1C66.4,347.5,77.5,350.3,88.3,350.4 M79.5,240c0.3,0.2,0.6,0.4,0.9,0.5
					c1.5,0.5,3.1,1,4.7,1.5c0.6,0.2,1.2,0.2,1.8,0.2c1.8,0,3.6-0.2,5.4-0.2c0.8,0,1-0.2,0.8-1c-0.4-1.3-1.3-2.1-2.5-2.6
					c-2.8-1-5.7-1.1-8.5-0.3C81,238.3,80.1,238.9,79.5,240"/>
				<path class="st9" d="M88.3,350.4c-10.8-0.1-21.9-2.9-32-9c-6.7-4.1-12.4-9.3-16.4-16.1c-3.3-5.7-5-11.9-5.4-18.5
					c-0.7-10.1,1.5-19.7,5.5-28.9c3-7,6.8-13.5,12-19.1c1.1-1.2,2.3-2.4,3.5-3.5c6.5-5.4,13.8-9.1,22.3-10.3
					c5.8-0.8,11.5-0.4,17.1,0.7c3.6,0.7,7.3,1.4,10.7,2.7c9.3,3.6,17.7,8.4,24.3,16.1c5.1,5.9,9.5,12.2,12.5,19.4
					c4,9.3,4,18.6,0.5,28c-3.7,9.9-9.2,18.6-16.9,25.9c-5.4,5.1-11.8,8.3-18.9,10.3C101.3,349.7,95.3,350.4,88.3,350.4 M69.8,258.4
					c0.2,0.8,0.2,1.5,0.4,2c0.1,0.3,0.6,0.5,0.9,0.7c0.2-0.3,0.6-0.6,0.6-1c0-0.5-0.1-1.1-0.2-1.7c-0.2-0.6-0.2-1.5-1-1.4
					C70.2,257.1,70,258,69.8,258.4 M101.5,296.2c0-1.1-0.9-2.1-1.6-1.9c-0.3,0.1-0.7,0.5-0.7,0.8c-0.1,0.9,0.6,1.9,1.3,1.8
					C100.9,296.8,101.3,296.4,101.5,296.2 M128.2,310.2c0.6-0.8,0.8-1.5,0.4-2.2c-0.3-0.5-0.7-0.7-1.3-0.5c-0.5,0.2-0.7,0.8-0.4,1.3
					C127.2,309.2,127.7,309.6,128.2,310.2 M89.4,298.4c-0.6-0.7-1-1.2-1.5-1.8c-0.3,0.4-0.7,0.9-0.8,1.3c-0.1,0.8,0.5,1.5,1.2,1.3
					C88.7,299.2,88.9,298.8,89.4,298.4 M64.1,318.7c-0.6-0.9-1.5-1.2-2.2-0.7c-0.6,0.4-0.6,0.9,0,1.3
					C62.6,319.8,63.4,319.6,64.1,318.7 M50.8,309c0-1-0.7-1.8-1.3-1.8c-0.6,0-0.7,0.4-0.7,0.9c0,0.8,0.6,1.6,1.2,1.5
					C50.3,309.5,50.6,309.1,50.8,309 M115.8,300.1c0.1-0.2,0.5-0.4,0.5-0.7c0.1-0.6-0.7-1.3-1.4-1.3c-0.5,0-0.7,0.2-0.7,0.7
					C114.2,299.4,114.8,300.1,115.8,300.1 M62,260.4c0.1-0.2,0.5-0.4,0.6-0.7c0.1-0.6-0.6-1.3-1.2-1.2c-0.3,0.1-0.8,0.5-0.8,0.8
					C60.5,259.9,61.1,260.2,62,260.4 M122.9,272.5c0-0.9-0.6-1.6-1.2-1.5c-0.3,0.1-0.7,0.5-0.7,0.8c0,0.6,0.3,1.2,1,1.2
					C122.4,273,122.7,272.6,122.9,272.5 M47.5,297.2c0.4-0.9,0.6-1.6-0.1-2.3c-0.2-0.2-0.6-0.3-0.9-0.2c-0.2,0.1-0.4,0.5-0.4,0.7
					C46.2,296.3,46.7,296.8,47.5,297.2 M92.3,287.5c-0.5-0.5-0.8-0.8-1.1-1.2c-0.3,0.3-0.7,0.7-0.7,1c-0.1,0.6,0.2,1.2,0.9,1.2
					C91.6,288.5,91.9,287.9,92.3,287.5 M116.8,269.3c-0.5-0.5-0.8-1-1.1-1c-0.6-0.1-0.8,0.4-0.9,1c0,0.5,0.2,1,0.8,1
					C115.9,270.2,116.2,269.8,116.8,269.3 M71.3,288.8c-0.5-0.5-0.9-0.9-1.2-1.3c-0.2,0.3-0.6,0.6-0.6,0.9c-0.1,0.6,0.5,1.3,1,1.2
					C70.7,289.5,70.9,289.2,71.3,288.8 M69.7,311.2c0.2-0.1,0.3-0.2,0.5-0.3c-0.1-0.5-0.2-1.1-0.4-1.6c-0.1-0.2-0.6-0.2-0.9-0.3
					c-0.1,0.3-0.4,0.8-0.3,1C68.9,310.5,69.3,310.8,69.7,311.2 M69.5,325.3c0-0.1,0-0.2,0-0.4c-0.4-0.2-0.8-0.5-1.2-0.6
					c-0.5-0.1-1,0.3-0.9,0.8c0.1,0.3,0.6,0.7,0.9,0.7C68.7,325.9,69.1,325.5,69.5,325.3 M51.9,303.6c0.1-0.1,0.4-0.3,0.4-0.5
					c0-0.6-0.3-1.2-0.9-1.2c-0.3,0-0.8,0.4-0.8,0.6C50.6,303.1,51,303.4,51.9,303.6 M53.8,296.9c-0.6-0.5-0.9-0.9-1.2-0.9
					c-0.3,0-0.7,0.5-0.7,0.8c0,0.3,0.4,0.8,0.7,0.8C52.9,297.7,53.2,297.3,53.8,296.9 M116.4,313.3c0.6,0.4,0.9,0.8,1.3,0.9
					c0.1,0,0.7-0.6,0.6-0.8c-0.2-0.4-0.6-0.7-1-0.9C117.2,312.4,116.9,312.8,116.4,313.3 M96.9,305.1c-0.6-0.4-0.9-0.8-1.2-0.8
					c-0.3,0-0.8,0.5-0.8,0.8c0,0.3,0.5,0.8,0.8,0.8C96,306,96.3,305.6,96.9,305.1 M64.5,328.5c-0.4,0.5-0.7,0.8-0.7,1
					c0,0.6,0.4,1,1,1c0.2,0,0.7-0.5,0.7-0.6C65.3,329.5,65,329.1,64.5,328.5 M88.3,317.3c-0.4-0.4-0.7-0.7-1-0.8
					c-0.2,0-0.7,0.6-0.7,0.7c0.2,0.4,0.6,0.7,0.9,1C87.7,317.9,87.9,317.7,88.3,317.3 M79.1,336.7c-0.5-0.5-0.9-0.8-1.2-1.1
					c-0.2,0.3-0.6,0.5-0.6,0.8c-0.1,0.6,0.3,1,0.9,1C78.3,337.5,78.6,337.1,79.1,336.7 M50.3,280.2c0.4-0.4,0.7-0.6,0.7-0.8
					c0-0.6-0.2-1-0.8-1c-0.2,0-0.7,0.5-0.7,0.6C49.6,279.4,50,279.7,50.3,280.2 M129.4,281.5c-0.5-0.4-0.8-0.6-1.1-0.9
					c-0.2,0.3-0.6,0.6-0.7,1c0,0.2,0.5,0.8,0.6,0.7C128.7,282.3,128.9,281.9,129.4,281.5 M76.3,269.8c-0.4,0.5-0.8,0.9-0.8,1
					c0.1,0.3,0.5,0.7,0.8,0.8c0.1,0.1,0.7-0.4,0.7-0.7C77.1,270.7,76.7,270.4,76.3,269.8 M49.5,319.6c0-0.1,0-0.2,0-0.3
					c-0.3-0.2-0.7-0.5-1-0.5c-0.3,0-0.6,0.4-0.9,0.6c0.2,0.2,0.5,0.7,0.7,0.7C48.8,320.1,49.2,319.8,49.5,319.6 M66.6,263.2
					c-0.4,0.5-0.8,0.9-0.7,1c0.2,0.3,0.5,0.6,0.8,0.8c0.1,0.1,0.7-0.4,0.6-0.4C67.2,264.1,66.9,263.8,66.6,263.2 M107.2,334.6
					c0.3-0.6,0.7-0.9,0.6-1.2c0-0.3-0.5-0.5-0.7-0.7c-0.2,0.3-0.6,0.5-0.7,0.9C106.5,333.8,106.9,334.1,107.2,334.6 M80.2,325.8
					c-0.5-0.7-0.9-1.2-1.7-0.8c-0.2,0.1-0.3,0.6-0.2,0.7C78.7,326.4,79.4,326.1,80.2,325.8 M128.9,299.7c-0.6-0.4-1-0.7-1.4-0.9
					c-0.1,0-0.4,0.4-0.5,0.6c0.3,0.3,0.7,0.6,1,0.8C128.1,300.3,128.4,300,128.9,299.7 M102.9,320.6c-0.4-0.4-0.7-0.6-1-0.9
					c-0.2,0.3-0.6,0.6-0.5,0.8c0.1,0.4,0.5,0.7,0.7,1C102.3,321.2,102.5,321,102.9,320.6 M58.8,302.3c-0.3-0.7-0.6-1.3-1.4-1
					c-0.2,0.1-0.4,0.5-0.3,0.7C57.5,302.8,58.1,302.6,58.8,302.3 M93.4,258.1c0.4-0.6,0.5-1.2,0.2-1.8c-0.1-0.2-0.3-0.4-0.5-0.3
					c-0.2,0.1-0.4,0.3-0.5,0.5C92.5,257.1,92.8,257.6,93.4,258.1 M111.7,259.8c-0.1,0-0.2,0-0.3,0c-0.2,0.3-0.5,0.6-0.4,0.8
					c0.1,0.3,0.5,0.6,0.7,0.9c0.2-0.3,0.5-0.6,0.5-0.8C112.1,260.4,111.8,260.1,111.7,259.8 M60.8,274.2c-0.4-0.3-0.6-0.7-0.9-0.7
					c-0.2,0-0.6,0.5-0.6,0.7c0.1,0.3,0.4,0.6,0.7,0.9C60.2,274.8,60.5,274.6,60.8,274.2 M121.2,276.5c-0.4-0.4-0.7-0.8-0.9-0.7
					c-0.3,0.1-0.6,0.4-0.7,0.7c0,0.2,0.4,0.6,0.6,0.6C120.5,277.2,120.8,276.9,121.2,276.5 M55.9,305.8c-0.3,0.5-0.6,0.8-0.6,1.1
					c0,0.3,0.4,0.5,0.6,0.7c0.2-0.3,0.6-0.5,0.6-0.8C56.6,306.6,56.3,306.3,55.9,305.8 M93.9,338c-0.3,0.5-0.6,0.7-0.6,1
					c0,0.2,0.4,0.4,0.6,0.6c0.2-0.3,0.6-0.5,0.7-0.8C94.6,338.7,94.3,338.4,93.9,338 M94.1,297.4c-0.3,0.5-0.6,0.8-0.6,1
					c0,0.2,0.4,0.5,0.7,0.6c0.2,0,0.6-0.4,0.5-0.6C94.7,298.2,94.4,297.9,94.1,297.4 M81.3,263.2c0.3-0.4,0.7-0.7,0.7-0.9
					c-0.1-0.3-0.5-0.6-0.7-0.6c-0.2,0-0.6,0.4-0.7,0.6C80.6,262.5,81,262.7,81.3,263.2 M97.6,269.7c0.2-0.5,0.5-0.8,0.5-0.9
					c-0.1-0.3-0.4-0.5-0.7-0.8c-0.2,0.2-0.5,0.5-0.5,0.7C97,269,97.3,269.3,97.6,269.7 M125,317.1c-0.3,0.4-0.6,0.7-0.6,0.9
					c0,0.2,0.4,0.6,0.6,0.6c0.2,0,0.5-0.3,0.6-0.6C125.5,317.8,125.3,317.5,125,317.1 M108.7,283.5c0.2-0.6,0.3-1.1-0.3-1.5
					c-0.1-0.1-0.5,0.1-0.5,0.2C107.6,282.9,108,283.2,108.7,283.5 M115.5,324.8c0.3-0.4,0.6-0.6,0.5-0.7c-0.1-0.3-0.4-0.5-0.6-0.7
					c-0.2,0.2-0.6,0.4-0.5,0.5C114.9,324.2,115.2,324.4,115.5,324.8 M119.5,263.7c0.3-0.5,0.5-0.7,0.5-1c0-0.2-0.3-0.4-0.4-0.5
					c-0.2,0.2-0.4,0.4-0.5,0.7C119.1,263,119.3,263.3,119.5,263.7 M70.7,274.3c-0.6,0.2-0.8,0.5-0.6,1.1c0,0.1,0.5,0.2,0.6,0.2
					C71.2,275.2,71.1,274.8,70.7,274.3 M139.8,297.2c0-0.2,0-0.4,0-0.6c-0.3-0.1-0.5-0.3-0.8-0.2c-0.2,0-0.5,0.3-0.5,0.5
					c0,0.2,0.2,0.6,0.4,0.6C139.3,297.5,139.6,297.3,139.8,297.2 M109.1,312.9c-0.4-0.2-0.6-0.5-0.8-0.5c-0.2,0-0.3,0.2-0.5,0.4
					c0.2,0.2,0.3,0.5,0.5,0.5C108.4,313.3,108.7,313.1,109.1,312.9"/>
				<path class="st10" d="M79.5,240c0.6-1.1,1.5-1.7,2.6-2c2.9-0.8,5.7-0.7,8.5,0.3c1.2,0.5,2.1,1.3,2.5,2.6c0.2,0.8,0,1-0.8,1
					c-1.8,0-3.6,0.2-5.4,0.2c-0.6,0-1.2,0-1.8-0.2c-1.6-0.5-3.1-1-4.7-1.5C80.1,240.4,79.8,240.2,79.5,240"/>
				<path class="st8" d="M69.8,258.4c0.2-0.4,0.4-1.3,0.7-1.3c0.8-0.1,0.8,0.8,1,1.4c0.2,0.5,0.3,1.1,0.2,1.7c0,0.3-0.4,0.7-0.6,1
					c-0.3-0.2-0.8-0.4-0.9-0.7C70,259.8,70,259.2,69.8,258.4"/>
				<path class="st8" d="M89.4,298.4c-0.5,0.4-0.7,0.8-1.1,0.9c-0.7,0.1-1.3-0.6-1.2-1.3c0.1-0.5,0.5-0.9,0.8-1.3
					C88.4,297.2,88.8,297.7,89.4,298.4"/>
				<path class="st8" d="M64.1,318.7c-0.6,0.9-1.4,1.1-2.2,0.6c-0.6-0.4-0.7-0.9,0-1.3C62.6,317.5,63.4,317.8,64.1,318.7"/>
				<path class="st8" d="M50.8,309c-0.2,0.1-0.4,0.5-0.8,0.5c-0.6,0.1-1.2-0.7-1.2-1.5c0-0.5,0.1-0.9,0.7-0.9
					C50.1,307.2,50.8,308,50.8,309"/>
				<path class="st8" d="M62,260.4c-0.9-0.1-1.5-0.4-1.4-1.1c0-0.3,0.5-0.7,0.8-0.8c0.5-0.1,1.2,0.6,1.2,1.2
					C62.5,260,62.1,260.2,62,260.4"/>
				<path class="st8" d="M47.5,297.2c-0.8-0.4-1.4-0.9-1.3-1.8c0-0.3,0.2-0.7,0.4-0.7c0.3-0.1,0.7,0,0.9,0.2
					C48.1,295.6,47.9,296.4,47.5,297.2"/>
				<path class="st8" d="M71.3,288.8c-0.4,0.4-0.6,0.7-0.9,0.8c-0.5,0.1-1.1-0.6-1-1.2c0.1-0.3,0.4-0.6,0.6-0.9
					C70.4,287.9,70.8,288.3,71.3,288.8"/>
				<path class="st8" d="M69.7,311.2c-0.4-0.4-0.8-0.8-1.1-1.2c-0.1-0.2,0.2-0.7,0.3-1c0.3,0.1,0.8,0.1,0.9,0.3
					c0.2,0.5,0.3,1.1,0.4,1.6C70,311,69.9,311.1,69.7,311.2"/>
				<path class="st8" d="M69.5,325.3c-0.4,0.2-0.8,0.6-1.1,0.6c-0.3,0-0.8-0.4-0.9-0.7c-0.1-0.6,0.3-0.9,0.9-0.8
					c0.4,0.1,0.8,0.4,1.2,0.6C69.5,325.1,69.5,325.2,69.5,325.3"/>
				<path class="st8" d="M51.9,303.6c-0.8-0.2-1.3-0.5-1.3-1.2c0-0.2,0.5-0.6,0.8-0.6c0.7,0,1,0.6,0.9,1.2
					C52.3,303.3,52,303.5,51.9,303.6"/>
				<path class="st8" d="M53.8,296.9c-0.6,0.4-1,0.8-1.2,0.8c-0.3-0.1-0.8-0.5-0.7-0.8c0-0.3,0.5-0.9,0.7-0.9
					C52.9,295.9,53.3,296.4,53.8,296.9"/>
				<path class="st8" d="M64.5,328.5c0.4,0.6,0.8,1,0.9,1.4c0,0.1-0.4,0.6-0.7,0.6c-0.6,0-1-0.4-1-1C63.8,329.2,64.1,329,64.5,328.5
					"/>
				<path class="st8" d="M88.3,317.3c-0.4,0.4-0.6,0.6-0.8,0.9c-0.3-0.3-0.7-0.6-0.9-1c0-0.1,0.5-0.7,0.7-0.7
					C87.6,316.5,87.8,316.9,88.3,317.3"/>
				<path class="st8" d="M79.1,336.7c-0.5,0.4-0.7,0.8-1,0.8c-0.6,0-0.9-0.5-0.9-1c0-0.3,0.4-0.5,0.6-0.8
					C78.2,336,78.5,336.3,79.1,336.7"/>
				<path class="st8" d="M50.3,280.2c-0.4-0.6-0.7-0.9-0.8-1.3c0-0.1,0.4-0.6,0.7-0.6c0.6,0,0.9,0.5,0.8,1
					C51,279.6,50.7,279.8,50.3,280.2"/>
				<path class="st8" d="M76.3,269.8c0.4,0.6,0.7,0.9,0.7,1.2c0,0.2-0.6,0.7-0.7,0.7c-0.3-0.1-0.7-0.5-0.8-0.8
					C75.5,270.7,75.9,270.4,76.3,269.8"/>
				<path class="st8" d="M49.5,319.6c-0.4,0.2-0.7,0.5-1.1,0.5c-0.2,0-0.5-0.4-0.7-0.7c0.3-0.2,0.6-0.6,0.9-0.6c0.3,0,0.7,0.3,1,0.5
					C49.5,319.4,49.5,319.5,49.5,319.6"/>
				<path class="st8" d="M66.6,263.2c0.4,0.6,0.6,1,0.7,1.4c0,0.1-0.5,0.5-0.6,0.4c-0.3-0.2-0.7-0.5-0.8-0.8
					C65.8,264,66.2,263.7,66.6,263.2"/>
				<path class="st8" d="M80.2,325.8c-0.8,0.3-1.4,0.6-1.9-0.1c-0.1-0.1,0.1-0.6,0.2-0.7C79.3,324.6,79.7,325.1,80.2,325.8"/>
				<path class="st8" d="M58.8,302.3c-0.7,0.3-1.3,0.4-1.7-0.3c-0.1-0.2,0.1-0.6,0.3-0.7C58.2,301.1,58.6,301.6,58.8,302.3"/>
				<path class="st8" d="M60.8,274.2c-0.4,0.4-0.6,0.6-0.8,0.8c-0.2-0.3-0.6-0.5-0.7-0.9c0-0.2,0.4-0.7,0.6-0.7
					C60.2,273.5,60.4,273.9,60.8,274.2"/>
				<path class="st8" d="M55.9,305.8c0.3,0.5,0.7,0.8,0.7,1c-0.1,0.3-0.4,0.5-0.6,0.8c-0.2-0.2-0.6-0.5-0.6-0.7
					C55.3,306.6,55.6,306.3,55.9,305.8"/>
				<path class="st8" d="M81.3,263.2c-0.4-0.4-0.7-0.7-0.7-0.9c0-0.2,0.4-0.6,0.7-0.6c0.3,0,0.6,0.3,0.7,0.6
					C82,262.4,81.6,262.7,81.3,263.2"/>
				<path class="st8" d="M70.7,274.3c0.4,0.4,0.5,0.9,0,1.2c-0.1,0.1-0.5,0-0.6-0.2C69.9,274.8,70.1,274.5,70.7,274.3"/>
			</g>
		</g>
	</g>
	<text transform="matrix(1 0 0 1 60.6357 315.1602)" class="st4 st5 st6">r</text>
</g>
<g id="A">
	<g>
		<g>
			<defs>
				<rect id="SVGID_9_" x="95" y="343.3" width="149" height="171.7"/>
			</defs>
			<clipPath id="SVGID_10_">
				<use xlink:href="#SVGID_9_"  style="overflow:visible;"/>
			</clipPath>
			<g class="st11">
				<defs>
					<rect id="SVGID_11_" x="169.5" y="343.3" width="74.5" height="166.5"/>
				</defs>
				<clipPath id="SVGID_12_">
					<use xlink:href="#SVGID_11_"  style="overflow:visible;"/>
				</clipPath>
				<path class="st12" d="M160.3,389.2c-0.6-1.2-0.5-1.8,0.4-2.8c0.8-0.8,1.7-1.3,2.8-1.6c2.5-0.6,5-0.5,7.3,0.5
					c2,0.9,2.9,2.5,2.8,4.7c1.4,0.5,2.8,0.9,4.2,1.4c1.8,0.6,3.5,1,5.3,1.7c6.5,2.5,12.3,6,17.1,11.2c4,4.3,7.4,9,10,14.3
					c4.3,8.6,4.5,17.3,0.9,26.2c-2.5,6-5.8,11.5-10.1,16.4c-5,5.6-11.1,9.2-18.3,11.1c-7.9,2.1-15.8,2.3-23.8,0.7
					c-7.5-1.5-14.3-4.5-20.2-9.2c-9.2-7.2-13.4-16.8-13.2-28.4c0.2-7.8,2.4-15,5.7-22c2.6-5.4,6-10.3,10.5-14.4
					c5-4.6,10.7-7.9,17.3-9.5c0.2-0.1,0.5-0.1,0.7-0.1C159.8,389.2,160,389.2,160.3,389.2 M168.2,472c5.4,0,9.9-0.5,14.4-1.8
					c5.4-1.5,10.2-4,14.3-7.8c5.9-5.5,10-12.2,12.9-19.7c2.7-7.1,2.7-14.2-0.4-21.3c-2.3-5.5-5.7-10.3-9.5-14.8
					c-5-5.8-11.4-9.5-18.5-12.2c-2.6-1-5.4-1.5-8.1-2c-4.3-0.8-8.6-1.2-13-0.6c-6.4,0.9-12,3.7-16.9,7.8c-1,0.8-1.8,1.7-2.7,2.6
					c-4,4.3-6.9,9.2-9.1,14.5c-3,7-4.7,14.3-4.2,22c0.3,5,1.6,9.7,4.1,14.1c3,5.2,7.3,9.2,12.5,12.3
					C151.6,469.8,160,471.9,168.2,472 M161.5,388.1c0.2,0.1,0.4,0.3,0.7,0.4c1.2,0.4,2.3,0.8,3.5,1.1c0.4,0.1,0.9,0.1,1.4,0.1
					c1.4,0,2.8-0.1,4.1-0.2c0.6,0,0.8-0.1,0.6-0.7c-0.3-1-1-1.6-1.9-2c-2.1-0.8-4.3-0.9-6.5-0.2C162.7,386.8,162,387.2,161.5,388.1"
					/>
				<path class="st13" d="M168.2,472c-8.2-0.1-16.6-2.2-24.3-6.9c-5.1-3.1-9.4-7.1-12.5-12.3c-2.5-4.3-3.8-9.1-4.1-14.1
					c-0.5-7.7,1.2-14.9,4.2-22c2.3-5.3,5.2-10.3,9.1-14.5c0.9-0.9,1.7-1.8,2.7-2.6c4.9-4.1,10.5-6.9,16.9-7.8
					c4.4-0.6,8.7-0.3,13,0.6c2.7,0.5,5.5,1,8.1,2c7,2.7,13.4,6.4,18.5,12.2c3.9,4.5,7.2,9.3,9.5,14.8c3,7,3,14.1,0.4,21.3
					c-2.8,7.5-7,14.2-12.9,19.7c-4.1,3.8-9,6.3-14.3,7.8C178.1,471.4,173.5,472,168.2,472 M154.1,402c0.1,0.6,0.1,1.1,0.3,1.5
					c0.1,0.2,0.4,0.4,0.7,0.6c0.2-0.2,0.4-0.5,0.5-0.7c0-0.4-0.1-0.9-0.2-1.3c-0.1-0.4-0.1-1.1-0.8-1.1
					C154.4,401,154.3,401.7,154.1,402 M178.2,430.8c0-0.8-0.6-1.6-1.2-1.5c-0.2,0-0.5,0.4-0.5,0.6c-0.1,0.7,0.5,1.4,1,1.4
					C177.8,431.2,178.1,430.9,178.2,430.8 M198.5,441.4c0.5-0.6,0.6-1.1,0.3-1.7c-0.2-0.4-0.5-0.6-1-0.4c-0.4,0.2-0.6,0.6-0.3,1
					C197.8,440.7,198.2,441,198.5,441.4 M169,432.4c-0.4-0.5-0.8-0.9-1.1-1.4c-0.2,0.3-0.5,0.7-0.6,1c-0.1,0.6,0.4,1.1,0.9,1
					C168.5,433.1,168.7,432.8,169,432.4 M149.8,447.9c-0.5-0.7-1.1-0.9-1.7-0.5c-0.5,0.3-0.5,0.7,0,1
					C148.7,448.7,149.3,448.5,149.8,447.9 M139.7,440.5c0-0.8-0.5-1.4-1-1.4c-0.5,0-0.6,0.3-0.6,0.7c0,0.6,0.5,1.2,0.9,1.1
					C139.3,440.9,139.6,440.6,139.7,440.5 M189.1,433.7c0.1-0.1,0.3-0.3,0.4-0.6c0.1-0.5-0.5-1-1.1-1c-0.4,0-0.5,0.1-0.5,0.5
					C187.9,433.2,188.4,433.7,189.1,433.7 M148.2,403.5c0.1-0.1,0.4-0.3,0.4-0.5c0.1-0.4-0.5-1-0.9-0.9c-0.2,0.1-0.6,0.4-0.6,0.6
					C147.1,403.2,147.5,403.4,148.2,403.5 M194.5,412.7c0-0.7-0.5-1.2-0.9-1.1c-0.2,0-0.5,0.4-0.5,0.6c0,0.5,0.3,0.9,0.8,0.9
					C194.1,413.1,194.4,412.8,194.5,412.7 M137.2,431.5c0.3-0.6,0.5-1.2-0.1-1.7c-0.1-0.1-0.5-0.2-0.7-0.2c-0.1,0-0.3,0.4-0.3,0.5
					C136.2,430.9,136.6,431.2,137.2,431.5 M171.2,424.1c-0.4-0.4-0.6-0.6-0.9-0.9c-0.2,0.3-0.5,0.5-0.6,0.8
					c-0.1,0.4,0.2,0.9,0.7,0.9C170.7,424.9,170.9,424.5,171.2,424.1 M189.9,410.3c-0.4-0.4-0.6-0.7-0.9-0.8
					c-0.5-0.1-0.6,0.3-0.7,0.8c0,0.4,0.2,0.8,0.6,0.7C189.2,411,189.5,410.7,189.9,410.3 M155.3,425.1c-0.4-0.4-0.7-0.7-0.9-1
					c-0.2,0.2-0.4,0.4-0.5,0.7c-0.1,0.5,0.4,1,0.8,0.9C154.8,425.7,155,425.4,155.3,425.1 M154.1,442.2c0.1-0.1,0.2-0.1,0.4-0.2
					c-0.1-0.4-0.1-0.9-0.3-1.2c-0.1-0.2-0.5-0.2-0.7-0.3c-0.1,0.3-0.3,0.6-0.2,0.8C153.4,441.6,153.8,441.9,154.1,442.2
					 M153.9,452.9c0-0.1,0-0.2,0-0.3c-0.3-0.2-0.6-0.4-0.9-0.4c-0.4-0.1-0.8,0.2-0.7,0.6c0.1,0.2,0.4,0.5,0.7,0.5
					C153.3,453.4,153.6,453.1,153.9,452.9 M140.5,436.4c0.1-0.1,0.3-0.2,0.3-0.4c0-0.5-0.2-0.9-0.7-0.9c-0.2,0-0.6,0.3-0.6,0.4
					C139.5,436,139.9,436.3,140.5,436.4 M142,431.3c-0.4-0.3-0.7-0.7-0.9-0.7c-0.2,0-0.6,0.4-0.6,0.6c0,0.2,0.3,0.6,0.6,0.6
					C141.3,431.9,141.6,431.6,142,431.3 M189.6,443.7c0.4,0.3,0.7,0.6,1,0.7c0.1,0,0.5-0.5,0.5-0.6c-0.2-0.3-0.4-0.5-0.7-0.7
					C190.2,443.1,189.9,443.4,189.6,443.7 M174.7,437.6c-0.4-0.3-0.7-0.6-0.9-0.6c-0.2,0-0.6,0.4-0.6,0.6c0,0.2,0.4,0.6,0.6,0.6
					C174.1,438.2,174.3,437.9,174.7,437.6 M150.1,455.3c-0.3,0.4-0.6,0.6-0.6,0.8c0,0.5,0.3,0.8,0.8,0.8c0.2,0,0.5-0.4,0.5-0.4
					C150.7,456,150.5,455.8,150.1,455.3 M168.2,446.8c-0.3-0.3-0.5-0.6-0.8-0.6c-0.1,0-0.5,0.4-0.5,0.5c0.2,0.3,0.5,0.5,0.7,0.8
					C167.7,447.3,167.9,447.1,168.2,446.8 M161.2,461.6c-0.4-0.3-0.7-0.6-0.9-0.8c-0.2,0.2-0.4,0.4-0.5,0.6
					c-0.1,0.4,0.2,0.8,0.6,0.8C160.6,462.2,160.8,461.9,161.2,461.6 M139.3,418.6c0.3-0.3,0.5-0.5,0.6-0.6c0-0.4-0.2-0.8-0.6-0.8
					c-0.2,0-0.5,0.3-0.5,0.5C138.8,418,139.1,418.2,139.3,418.6 M199.5,419.6c-0.4-0.3-0.6-0.5-0.8-0.7c-0.2,0.2-0.5,0.5-0.5,0.7
					c0,0.2,0.3,0.6,0.5,0.6C198.9,420.2,199.1,419.9,199.5,419.6 M159.1,410.7c-0.3,0.4-0.6,0.7-0.6,0.8c0.1,0.3,0.4,0.5,0.6,0.6
					c0.1,0,0.5-0.3,0.5-0.5C159.7,411.4,159.4,411.1,159.1,410.7 M138.7,448.5c0-0.1,0-0.2,0-0.2c-0.3-0.1-0.5-0.4-0.8-0.4
					c-0.2,0-0.4,0.3-0.7,0.5c0.2,0.2,0.4,0.5,0.6,0.5C138.2,448.9,138.5,448.7,138.7,448.5 M151.7,405.6c-0.3,0.4-0.6,0.7-0.5,0.7
					c0.1,0.3,0.4,0.5,0.6,0.6c0.1,0,0.5-0.3,0.5-0.3C152.2,406.4,152,406.1,151.7,405.6 M182.6,459.9c0.2-0.4,0.5-0.7,0.5-0.9
					c0-0.2-0.3-0.4-0.5-0.5c-0.2,0.2-0.5,0.4-0.5,0.7C182,459.3,182.3,459.6,182.6,459.9 M162,453.3c-0.3-0.5-0.7-0.9-1.3-0.6
					c-0.1,0-0.3,0.4-0.2,0.5C160.9,453.7,161.4,453.5,162,453.3 M199,433.5c-0.5-0.3-0.7-0.5-1-0.7c-0.1,0-0.3,0.3-0.4,0.5
					c0.3,0.2,0.5,0.4,0.8,0.6C198.5,433.9,198.7,433.7,199,433.5 M179.3,449.3c-0.3-0.3-0.5-0.5-0.8-0.7c-0.1,0.2-0.5,0.4-0.4,0.6
					c0.1,0.3,0.4,0.5,0.5,0.7C178.9,449.8,179,449.6,179.3,449.3 M145.8,435.4c-0.2-0.6-0.5-1-1.1-0.8c-0.1,0-0.3,0.4-0.2,0.5
					C144.8,435.8,145.3,435.6,145.8,435.4 M172.1,401.8c0.3-0.4,0.4-0.9,0.1-1.3c-0.1-0.1-0.3-0.3-0.3-0.2c-0.1,0-0.3,0.2-0.3,0.3
					C171.4,401.1,171.6,401.5,172.1,401.8 M186,403.1c-0.1,0-0.2,0-0.2,0c-0.1,0.2-0.4,0.5-0.3,0.6c0.1,0.3,0.3,0.5,0.5,0.7
					c0.1-0.2,0.4-0.4,0.4-0.6C186.3,403.6,186.1,403.3,186,403.1 M147.3,414c-0.3-0.2-0.5-0.5-0.7-0.5c-0.1,0-0.5,0.4-0.4,0.5
					c0.1,0.3,0.3,0.4,0.5,0.7C146.9,414.5,147,414.3,147.3,414 M193.2,415.8c-0.3-0.3-0.6-0.6-0.7-0.6c-0.2,0.1-0.5,0.3-0.5,0.6
					c0,0.1,0.3,0.5,0.5,0.5C192.7,416.3,192.9,416.1,193.2,415.8 M143.6,438.1c-0.2,0.4-0.5,0.6-0.4,0.8c0,0.2,0.3,0.4,0.5,0.5
					c0.2-0.2,0.4-0.4,0.5-0.6C144.1,438.6,143.9,438.4,143.6,438.1 M172.5,462.5c-0.2,0.4-0.4,0.6-0.4,0.8c0,0.2,0.3,0.3,0.4,0.5
					c0.2-0.2,0.4-0.4,0.5-0.6C173,463.1,172.7,462.8,172.5,462.5 M172.6,431.7c-0.2,0.4-0.5,0.6-0.4,0.8c0,0.2,0.3,0.4,0.5,0.4
					c0.1,0,0.4-0.3,0.4-0.5C173.1,432.3,172.8,432.1,172.6,431.7 M162.9,405.7c0.2-0.3,0.5-0.5,0.5-0.7c0-0.2-0.3-0.4-0.5-0.4
					c-0.2,0-0.5,0.3-0.5,0.5C162.3,405.1,162.6,405.3,162.9,405.7 M175.3,410.6c0.2-0.4,0.4-0.6,0.3-0.7c-0.1-0.2-0.3-0.4-0.5-0.6
					c-0.1,0.2-0.4,0.4-0.4,0.5C174.8,410.1,175,410.3,175.3,410.6 M196.1,446.6c-0.2,0.3-0.5,0.5-0.5,0.7c0,0.2,0.3,0.4,0.4,0.4
					c0.1,0,0.4-0.3,0.4-0.4C196.5,447.2,196.3,447,196.1,446.6 M183.7,421.1c0.2-0.5,0.2-0.9-0.2-1.1c-0.1,0-0.4,0.1-0.4,0.2
					C182.9,420.7,183.2,420.9,183.7,421.1 M188.9,452.5c0.2-0.3,0.4-0.5,0.4-0.6c-0.1-0.2-0.3-0.4-0.5-0.6c-0.1,0.1-0.4,0.3-0.4,0.4
					C188.4,452,188.6,452.2,188.9,452.5 M191.9,406c0.2-0.4,0.4-0.5,0.4-0.7c0-0.1-0.2-0.3-0.3-0.4c-0.1,0.2-0.3,0.3-0.4,0.5
					C191.6,405.5,191.8,405.7,191.9,406 M154.9,414.1c-0.4,0.1-0.6,0.4-0.5,0.8c0,0.1,0.4,0.2,0.4,0.1
					C155.2,414.8,155.1,414.5,154.9,414.1 M207.4,431.5c0-0.2,0-0.3,0-0.5c-0.2-0.1-0.4-0.2-0.6-0.2c-0.1,0-0.4,0.3-0.3,0.4
					c0,0.2,0.2,0.4,0.3,0.5C207,431.8,207.2,431.6,207.4,431.5 M184,443.4c-0.3-0.2-0.4-0.4-0.6-0.4c-0.1,0-0.3,0.2-0.4,0.3
					c0.1,0.1,0.2,0.4,0.4,0.4C183.5,443.8,183.7,443.6,184,443.4"/>
				<path class="st14" d="M161.5,388.1c0.5-0.8,1.1-1.3,1.9-1.5c2.2-0.6,4.4-0.6,6.5,0.2c0.9,0.3,1.6,1,1.9,2c0.2,0.6,0,0.7-0.6,0.7
					c-1.4,0-2.8,0.1-4.1,0.2c-0.5,0-0.9,0-1.4-0.1c-1.2-0.3-2.4-0.7-3.5-1.1C162,388.3,161.8,388.2,161.5,388.1"/>
				<path class="st12" d="M178.2,430.8c-0.2,0.1-0.4,0.4-0.7,0.5c-0.5,0.1-1.1-0.7-1-1.4c0-0.2,0.3-0.6,0.5-0.6
					C177.6,429.2,178.3,430,178.2,430.8"/>
				<path class="st12" d="M198.5,441.4c-0.4-0.4-0.7-0.7-1-1.1c-0.2-0.4-0.1-0.8,0.3-1c0.4-0.2,0.8,0,1,0.4
					C199.2,440.3,199,440.8,198.5,441.4"/>
				<path class="st12" d="M189.1,433.7c-0.8,0-1.2-0.5-1.2-1.1c0-0.4,0.2-0.5,0.5-0.5c0.5,0,1.1,0.5,1.1,1
					C189.5,433.4,189.2,433.6,189.1,433.7"/>
				<path class="st12" d="M194.5,412.7c-0.1,0.1-0.4,0.4-0.6,0.4c-0.5,0-0.8-0.4-0.8-0.9c0-0.2,0.3-0.6,0.5-0.6
					C194,411.5,194.5,412,194.5,412.7"/>
				<path class="st12" d="M171.2,424.1c-0.3,0.4-0.6,0.8-0.8,0.8c-0.5,0-0.7-0.5-0.7-0.9c0.1-0.3,0.4-0.5,0.6-0.8
					C170.6,423.5,170.9,423.8,171.2,424.1"/>
				<path class="st12" d="M189.9,410.3c-0.4,0.3-0.7,0.7-1,0.7c-0.4,0.1-0.6-0.3-0.6-0.7c0-0.4,0.2-0.8,0.7-0.8
					C189.3,409.6,189.5,410,189.9,410.3"/>
				<path class="st12" d="M189.6,443.7c0.4-0.3,0.7-0.7,0.7-0.6c0.3,0.2,0.6,0.4,0.7,0.7c0.1,0.1-0.4,0.6-0.5,0.6
					C190.2,444.3,190,444,189.6,443.7"/>
				<path class="st12" d="M174.7,437.6c-0.4,0.3-0.7,0.7-0.9,0.6c-0.2,0-0.6-0.4-0.6-0.6c0-0.2,0.3-0.6,0.6-0.6
					C174,436.9,174.3,437.3,174.7,437.6"/>
				<path class="st12" d="M199.5,419.6c-0.4,0.3-0.6,0.6-0.9,0.6c-0.1,0-0.5-0.4-0.5-0.6c0-0.3,0.3-0.5,0.5-0.7
					C198.9,419.1,199.1,419.3,199.5,419.6"/>
				<path class="st12" d="M182.6,459.9c-0.3-0.4-0.6-0.6-0.6-0.8c0-0.2,0.3-0.4,0.5-0.7c0.2,0.2,0.5,0.3,0.5,0.5
					C183.1,459.3,182.9,459.5,182.6,459.9"/>
				<path class="st12" d="M199,433.5c-0.4,0.2-0.6,0.4-0.7,0.4c-0.3-0.1-0.5-0.4-0.8-0.6c0.1-0.2,0.4-0.5,0.4-0.5
					C198.3,432.9,198.6,433.2,199,433.5"/>
				<path class="st12" d="M179.3,449.3c-0.3,0.3-0.5,0.5-0.6,0.6c-0.2-0.2-0.5-0.5-0.5-0.7c0-0.1,0.3-0.4,0.4-0.6
					C178.8,448.8,179,449,179.3,449.3"/>
				<path class="st12" d="M172.1,401.8c-0.5-0.3-0.7-0.7-0.6-1.2c0-0.1,0.2-0.3,0.3-0.3c0.1,0,0.3,0.1,0.3,0.2
					C172.5,400.9,172.4,401.3,172.1,401.8"/>
				<path class="st12" d="M186,403.1c0.1,0.2,0.4,0.4,0.4,0.7c0,0.2-0.2,0.4-0.4,0.6c-0.2-0.2-0.5-0.4-0.5-0.7
					c0-0.2,0.2-0.4,0.3-0.6C185.8,403.1,185.9,403.1,186,403.1"/>
				<path class="st12" d="M193.2,415.8c-0.3,0.2-0.5,0.5-0.7,0.5c-0.2,0-0.5-0.3-0.5-0.5c0-0.2,0.3-0.5,0.5-0.6
					C192.7,415.2,192.9,415.6,193.2,415.8"/>
				<path class="st12" d="M172.5,462.5c0.3,0.3,0.5,0.5,0.5,0.7c-0.1,0.2-0.3,0.4-0.5,0.6c-0.2-0.2-0.4-0.3-0.4-0.5
					C172.1,463.1,172.3,462.9,172.5,462.5"/>
				<path class="st12" d="M172.6,431.7c0.3,0.4,0.5,0.6,0.5,0.8c0,0.2-0.3,0.5-0.4,0.5c-0.2,0-0.5-0.2-0.5-0.4
					C172.1,432.3,172.4,432.1,172.6,431.7"/>
				<path class="st12" d="M175.3,410.6c-0.3-0.4-0.5-0.5-0.5-0.8c0-0.1,0.2-0.3,0.4-0.5c0.2,0.2,0.4,0.4,0.5,0.6
					C175.7,410.1,175.5,410.3,175.3,410.6"/>
				<path class="st12" d="M196.1,446.6c0.2,0.3,0.4,0.5,0.4,0.7c0,0.2-0.3,0.4-0.4,0.4c-0.2,0-0.4-0.3-0.4-0.4
					C195.6,447.2,195.8,447,196.1,446.6"/>
				<path class="st12" d="M183.7,421.1c-0.5-0.2-0.8-0.4-0.6-1c0-0.1,0.3-0.2,0.4-0.2C183.9,420.3,183.8,420.7,183.7,421.1"/>
				<path class="st12" d="M188.9,452.5c-0.2-0.3-0.4-0.5-0.5-0.7c0-0.1,0.3-0.3,0.4-0.4c0.2,0.2,0.4,0.4,0.5,0.6
					C189.3,452.1,189.1,452.2,188.9,452.5"/>
				<path class="st12" d="M191.9,406c-0.2-0.3-0.3-0.5-0.3-0.6c0.1-0.2,0.3-0.3,0.4-0.5c0.1,0.1,0.3,0.3,0.3,0.4
					C192.3,405.5,192.1,405.7,191.9,406"/>
				<path class="st12" d="M207.4,431.5c-0.2,0.1-0.4,0.2-0.6,0.2c-0.2,0-0.3-0.3-0.3-0.5c0-0.1,0.2-0.4,0.3-0.4
					c0.2,0,0.4,0.1,0.6,0.2C207.4,431.2,207.4,431.4,207.4,431.5"/>
				<path class="st12" d="M184,443.4c-0.3,0.2-0.5,0.4-0.6,0.3c-0.1,0-0.2-0.3-0.4-0.4c0.1-0.1,0.3-0.3,0.4-0.3
					C183.5,443.1,183.7,443.3,184,443.4"/>
			</g>
		</g>
	</g>
	<text transform="matrix(1 0 0 1 181 441.1719)" class="st4 st5 st15">a</text>
</g>
<g id="E">
	<g>
		<g>
			<defs>
				<rect id="SVGID_13_" x="197" y="343.3" width="149" height="171.7"/>
			</defs>
			<clipPath id="SVGID_14_">
				<use xlink:href="#SVGID_13_"  style="overflow:visible;"/>
			</clipPath>
			<g class="st16">
				<defs>
					<rect id="SVGID_15_" x="271.5" y="343.3" width="74.5" height="166.5"/>
				</defs>
				<clipPath id="SVGID_16_">
					<use xlink:href="#SVGID_15_"  style="overflow:visible;"/>
				</clipPath>
				<path class="st17" d="M262.3,389.2c-0.6-1.2-0.5-1.8,0.4-2.8c0.8-0.8,1.7-1.3,2.8-1.6c2.5-0.6,5-0.5,7.3,0.5
					c2,0.9,2.9,2.5,2.8,4.7c1.4,0.5,2.8,0.9,4.2,1.4c1.8,0.6,3.5,1,5.3,1.7c6.5,2.5,12.3,6,17.1,11.2c4,4.3,7.4,9,10,14.3
					c4.3,8.6,4.5,17.3,0.9,26.2c-2.5,6-5.8,11.5-10.1,16.4c-5,5.6-11.1,9.2-18.3,11.1c-7.9,2.1-15.8,2.3-23.8,0.7
					c-7.5-1.5-14.3-4.5-20.2-9.2c-9.2-7.2-13.4-16.8-13.2-28.4c0.2-7.8,2.4-15,5.7-22c2.6-5.4,6-10.3,10.5-14.4
					c5-4.6,10.7-7.9,17.3-9.5c0.2-0.1,0.5-0.1,0.7-0.1C261.8,389.2,262,389.2,262.3,389.2 M270.2,472c5.4,0,9.9-0.5,14.4-1.8
					c5.4-1.5,10.2-4,14.3-7.8c5.9-5.5,10-12.2,12.9-19.7c2.7-7.1,2.7-14.2-0.4-21.3c-2.3-5.5-5.7-10.3-9.5-14.8
					c-5-5.8-11.4-9.5-18.5-12.2c-2.6-1-5.4-1.5-8.1-2c-4.3-0.8-8.6-1.2-13-0.6c-6.4,0.9-12,3.7-16.9,7.8c-1,0.8-1.8,1.7-2.7,2.6
					c-4,4.3-6.9,9.2-9.1,14.5c-3,7-4.7,14.3-4.2,22c0.3,5,1.6,9.7,4.1,14.1c3,5.2,7.3,9.2,12.5,12.3
					C253.6,469.8,262,471.9,270.2,472 M263.5,388.1c0.2,0.1,0.4,0.3,0.7,0.4c1.2,0.4,2.3,0.8,3.5,1.1c0.4,0.1,0.9,0.1,1.4,0.1
					c1.4,0,2.8-0.1,4.1-0.2c0.6,0,0.8-0.1,0.6-0.7c-0.3-1-1-1.6-1.9-2c-2.1-0.8-4.3-0.9-6.5-0.2C264.7,386.8,264,387.2,263.5,388.1"
					/>
				<path class="st18" d="M270.2,472c-8.2-0.1-16.6-2.2-24.3-6.9c-5.1-3.1-9.4-7.1-12.5-12.3c-2.5-4.3-3.8-9.1-4.1-14.1
					c-0.5-7.7,1.2-14.9,4.2-22c2.3-5.3,5.2-10.3,9.1-14.5c0.9-0.9,1.7-1.8,2.7-2.6c4.9-4.1,10.5-6.9,16.9-7.8
					c4.4-0.6,8.7-0.3,13,0.6c2.7,0.5,5.5,1,8.1,2c7,2.7,13.4,6.4,18.5,12.2c3.9,4.5,7.2,9.3,9.5,14.8c3,7,3,14.1,0.4,21.3
					c-2.8,7.5-7,14.2-12.9,19.7c-4.1,3.8-9,6.3-14.3,7.8C280.1,471.4,275.5,472,270.2,472 M256.1,402c0.1,0.6,0.1,1.1,0.3,1.5
					c0.1,0.2,0.4,0.4,0.7,0.6c0.2-0.2,0.4-0.5,0.5-0.7c0-0.4-0.1-0.9-0.2-1.3c-0.1-0.4-0.1-1.1-0.8-1.1
					C256.4,401,256.3,401.7,256.1,402 M280.2,430.8c0-0.8-0.6-1.6-1.2-1.5c-0.2,0-0.5,0.4-0.5,0.6c-0.1,0.7,0.5,1.4,1,1.4
					C279.8,431.2,280.1,430.9,280.2,430.8 M300.5,441.4c0.5-0.6,0.6-1.1,0.3-1.7c-0.2-0.4-0.5-0.6-1-0.4c-0.4,0.2-0.6,0.6-0.3,1
					C299.8,440.7,300.2,441,300.5,441.4 M271,432.4c-0.4-0.5-0.8-0.9-1.1-1.4c-0.2,0.3-0.5,0.7-0.6,1c-0.1,0.6,0.4,1.1,0.9,1
					C270.5,433.1,270.7,432.8,271,432.4 M251.8,447.9c-0.5-0.7-1.1-0.9-1.7-0.5c-0.5,0.3-0.5,0.7,0,1
					C250.7,448.7,251.3,448.5,251.8,447.9 M241.7,440.5c0-0.8-0.5-1.4-1-1.4c-0.5,0-0.6,0.3-0.6,0.7c0,0.6,0.5,1.2,0.9,1.1
					C241.3,440.9,241.6,440.6,241.7,440.5 M291.1,433.7c0.1-0.1,0.3-0.3,0.4-0.6c0.1-0.5-0.5-1-1.1-1c-0.4,0-0.5,0.1-0.5,0.5
					C289.9,433.2,290.4,433.7,291.1,433.7 M250.2,403.5c0.1-0.1,0.4-0.3,0.4-0.5c0.1-0.4-0.5-1-0.9-0.9c-0.2,0.1-0.6,0.4-0.6,0.6
					C249.1,403.2,249.5,403.4,250.2,403.5 M296.5,412.7c0-0.7-0.5-1.2-0.9-1.1c-0.2,0-0.5,0.4-0.5,0.6c0,0.5,0.3,0.9,0.8,0.9
					C296.1,413.1,296.4,412.8,296.5,412.7 M239.2,431.5c0.3-0.6,0.5-1.2-0.1-1.7c-0.1-0.1-0.5-0.2-0.7-0.2c-0.1,0-0.3,0.4-0.3,0.5
					C238.2,430.9,238.6,431.2,239.2,431.5 M273.2,424.1c-0.4-0.4-0.6-0.6-0.9-0.9c-0.2,0.3-0.5,0.5-0.6,0.8
					c-0.1,0.4,0.2,0.9,0.7,0.9C272.7,424.9,272.9,424.5,273.2,424.1 M291.9,410.3c-0.4-0.4-0.6-0.7-0.9-0.8
					c-0.5-0.1-0.6,0.3-0.7,0.8c0,0.4,0.2,0.8,0.6,0.7C291.2,411,291.5,410.7,291.9,410.3 M257.3,425.1c-0.4-0.4-0.7-0.7-0.9-1
					c-0.2,0.2-0.4,0.4-0.5,0.7c-0.1,0.5,0.4,1,0.8,0.9C256.8,425.7,257,425.4,257.3,425.1 M256.1,442.2c0.1-0.1,0.2-0.1,0.4-0.2
					c-0.1-0.4-0.1-0.9-0.3-1.2c-0.1-0.2-0.5-0.2-0.7-0.3c-0.1,0.3-0.3,0.6-0.2,0.8C255.4,441.6,255.8,441.9,256.1,442.2
					 M255.9,452.9c0-0.1,0-0.2,0-0.3c-0.3-0.2-0.6-0.4-0.9-0.4c-0.4-0.1-0.8,0.2-0.7,0.6c0.1,0.2,0.4,0.5,0.7,0.5
					C255.3,453.4,255.6,453.1,255.9,452.9 M242.5,436.4c0.1-0.1,0.3-0.2,0.3-0.4c0-0.5-0.2-0.9-0.7-0.9c-0.2,0-0.6,0.3-0.6,0.4
					C241.5,436,241.9,436.3,242.5,436.4 M244,431.3c-0.4-0.3-0.7-0.7-0.9-0.7c-0.2,0-0.6,0.4-0.6,0.6c0,0.2,0.3,0.6,0.6,0.6
					C243.3,431.9,243.6,431.6,244,431.3 M291.6,443.7c0.4,0.3,0.7,0.6,1,0.7c0.1,0,0.5-0.5,0.5-0.6c-0.2-0.3-0.4-0.5-0.7-0.7
					C292.2,443.1,291.9,443.4,291.6,443.7 M276.7,437.6c-0.4-0.3-0.7-0.6-0.9-0.6c-0.2,0-0.6,0.4-0.6,0.6c0,0.2,0.4,0.6,0.6,0.6
					C276.1,438.2,276.3,437.9,276.7,437.6 M252.1,455.3c-0.3,0.4-0.6,0.6-0.6,0.8c0,0.5,0.3,0.8,0.8,0.8c0.2,0,0.5-0.4,0.5-0.4
					C252.7,456,252.5,455.8,252.1,455.3 M270.2,446.8c-0.3-0.3-0.5-0.6-0.8-0.6c-0.1,0-0.5,0.4-0.5,0.5c0.2,0.3,0.5,0.5,0.7,0.8
					C269.7,447.3,269.9,447.1,270.2,446.8 M263.2,461.6c-0.4-0.3-0.7-0.6-0.9-0.8c-0.2,0.2-0.4,0.4-0.5,0.6
					c-0.1,0.4,0.2,0.8,0.6,0.8C262.6,462.2,262.8,461.9,263.2,461.6 M241.3,418.6c0.3-0.3,0.5-0.5,0.6-0.6c0-0.4-0.2-0.8-0.6-0.8
					c-0.2,0-0.5,0.3-0.5,0.5C240.8,418,241.1,418.2,241.3,418.6 M301.5,419.6c-0.4-0.3-0.6-0.5-0.8-0.7c-0.2,0.2-0.5,0.5-0.5,0.7
					c0,0.2,0.3,0.6,0.5,0.6C300.9,420.2,301.1,419.9,301.5,419.6 M261.1,410.7c-0.3,0.4-0.6,0.7-0.6,0.8c0.1,0.3,0.4,0.5,0.6,0.6
					c0.1,0,0.5-0.3,0.5-0.5C261.7,411.4,261.4,411.1,261.1,410.7 M240.7,448.5c0-0.1,0-0.2,0-0.2c-0.3-0.1-0.5-0.4-0.8-0.4
					c-0.2,0-0.4,0.3-0.7,0.5c0.2,0.2,0.4,0.5,0.6,0.5C240.2,448.9,240.5,448.7,240.7,448.5 M253.7,405.6c-0.3,0.4-0.6,0.7-0.5,0.7
					c0.1,0.3,0.4,0.5,0.6,0.6c0.1,0,0.5-0.3,0.5-0.3C254.2,406.4,254,406.1,253.7,405.6 M284.6,459.9c0.2-0.4,0.5-0.7,0.5-0.9
					c0-0.2-0.3-0.4-0.5-0.5c-0.2,0.2-0.5,0.4-0.5,0.7C284,459.3,284.3,459.6,284.6,459.9 M264,453.3c-0.3-0.5-0.7-0.9-1.3-0.6
					c-0.1,0-0.3,0.4-0.2,0.5C262.9,453.7,263.4,453.5,264,453.3 M301,433.5c-0.5-0.3-0.7-0.5-1-0.7c-0.1,0-0.3,0.3-0.4,0.5
					c0.3,0.2,0.5,0.4,0.8,0.6C300.5,433.9,300.7,433.7,301,433.5 M281.3,449.3c-0.3-0.3-0.5-0.5-0.8-0.7c-0.1,0.2-0.5,0.4-0.4,0.6
					c0.1,0.3,0.4,0.5,0.5,0.7C280.9,449.8,281,449.6,281.3,449.3 M247.8,435.4c-0.2-0.6-0.5-1-1.1-0.8c-0.1,0-0.3,0.4-0.2,0.5
					C246.8,435.8,247.3,435.6,247.8,435.4 M274.1,401.8c0.3-0.4,0.4-0.9,0.1-1.3c-0.1-0.1-0.3-0.3-0.3-0.2c-0.1,0-0.3,0.2-0.3,0.3
					C273.4,401.1,273.6,401.5,274.1,401.8 M288,403.1c-0.1,0-0.2,0-0.2,0c-0.1,0.2-0.4,0.5-0.3,0.6c0.1,0.3,0.3,0.5,0.5,0.7
					c0.1-0.2,0.4-0.4,0.4-0.6C288.3,403.6,288.1,403.3,288,403.1 M249.3,414c-0.3-0.2-0.5-0.5-0.7-0.5c-0.1,0-0.5,0.4-0.4,0.5
					c0.1,0.3,0.3,0.4,0.5,0.7C248.9,414.5,249,414.3,249.3,414 M295.2,415.8c-0.3-0.3-0.6-0.6-0.7-0.6c-0.2,0.1-0.5,0.3-0.5,0.6
					c0,0.1,0.3,0.5,0.5,0.5C294.7,416.3,294.9,416.1,295.2,415.8 M245.6,438.1c-0.2,0.4-0.5,0.6-0.4,0.8c0,0.2,0.3,0.4,0.5,0.5
					c0.2-0.2,0.4-0.4,0.5-0.6C246.1,438.6,245.9,438.4,245.6,438.1 M274.5,462.5c-0.2,0.4-0.4,0.6-0.4,0.8c0,0.2,0.3,0.3,0.4,0.5
					c0.2-0.2,0.4-0.4,0.5-0.6C275,463.1,274.7,462.8,274.5,462.5 M274.6,431.7c-0.2,0.4-0.5,0.6-0.4,0.8c0,0.2,0.3,0.4,0.5,0.4
					c0.1,0,0.4-0.3,0.4-0.5C275.1,432.3,274.8,432.1,274.6,431.7 M264.9,405.7c0.2-0.3,0.5-0.5,0.5-0.7c0-0.2-0.3-0.4-0.5-0.4
					c-0.2,0-0.5,0.3-0.5,0.5C264.3,405.1,264.6,405.3,264.9,405.7 M277.3,410.6c0.2-0.4,0.4-0.6,0.3-0.7c-0.1-0.2-0.3-0.4-0.5-0.6
					c-0.1,0.2-0.4,0.4-0.4,0.5C276.8,410.1,277,410.3,277.3,410.6 M298.1,446.6c-0.2,0.3-0.5,0.5-0.5,0.7c0,0.2,0.3,0.4,0.4,0.4
					c0.1,0,0.4-0.3,0.4-0.4C298.5,447.2,298.3,447,298.1,446.6 M285.7,421.1c0.2-0.5,0.2-0.9-0.2-1.1c-0.1,0-0.4,0.1-0.4,0.2
					C284.9,420.7,285.2,420.9,285.7,421.1 M290.9,452.5c0.2-0.3,0.4-0.5,0.4-0.6c-0.1-0.2-0.3-0.4-0.5-0.6c-0.1,0.1-0.4,0.3-0.4,0.4
					C290.4,452,290.6,452.2,290.9,452.5 M293.9,406c0.2-0.4,0.4-0.5,0.4-0.7c0-0.1-0.2-0.3-0.3-0.4c-0.1,0.2-0.3,0.3-0.4,0.5
					C293.6,405.5,293.8,405.7,293.9,406 M256.9,414.1c-0.4,0.1-0.6,0.4-0.5,0.8c0,0.1,0.4,0.2,0.4,0.1
					C257.2,414.8,257.1,414.5,256.9,414.1 M309.4,431.5c0-0.2,0-0.3,0-0.5c-0.2-0.1-0.4-0.2-0.6-0.2c-0.1,0-0.4,0.3-0.3,0.4
					c0,0.2,0.2,0.4,0.3,0.5C309,431.8,309.2,431.6,309.4,431.5 M286,443.4c-0.3-0.2-0.4-0.4-0.6-0.4c-0.1,0-0.3,0.2-0.4,0.3
					c0.1,0.1,0.2,0.4,0.4,0.4C285.5,443.8,285.7,443.6,286,443.4"/>
				<path class="st19" d="M263.5,388.1c0.5-0.8,1.1-1.3,1.9-1.5c2.2-0.6,4.4-0.6,6.5,0.2c0.9,0.3,1.6,1,1.9,2c0.2,0.6,0,0.7-0.6,0.7
					c-1.4,0-2.8,0.1-4.1,0.2c-0.5,0-0.9,0-1.4-0.1c-1.2-0.3-2.4-0.7-3.5-1.1C264,388.3,263.8,388.2,263.5,388.1"/>
				<path class="st17" d="M280.2,430.8c-0.2,0.1-0.4,0.4-0.7,0.5c-0.5,0.1-1.1-0.7-1-1.4c0-0.2,0.3-0.6,0.5-0.6
					C279.6,429.2,280.3,430,280.2,430.8"/>
				<path class="st17" d="M300.5,441.4c-0.4-0.4-0.7-0.7-1-1.1c-0.2-0.4-0.1-0.8,0.3-1c0.4-0.2,0.8,0,1,0.4
					C301.2,440.3,301,440.8,300.5,441.4"/>
				<path class="st17" d="M291.1,433.7c-0.8,0-1.2-0.5-1.2-1.1c0-0.4,0.2-0.5,0.5-0.5c0.5,0,1.1,0.5,1.1,1
					C291.5,433.4,291.2,433.6,291.1,433.7"/>
				<path class="st17" d="M296.5,412.7c-0.1,0.1-0.4,0.4-0.6,0.4c-0.5,0-0.8-0.4-0.8-0.9c0-0.2,0.3-0.6,0.5-0.6
					C296,411.5,296.5,412,296.5,412.7"/>
				<path class="st17" d="M273.2,424.1c-0.3,0.4-0.6,0.8-0.8,0.8c-0.5,0-0.7-0.5-0.7-0.9c0.1-0.3,0.4-0.5,0.6-0.8
					C272.6,423.5,272.9,423.8,273.2,424.1"/>
				<path class="st17" d="M291.9,410.3c-0.4,0.3-0.7,0.7-1,0.7c-0.4,0.1-0.6-0.3-0.6-0.7c0-0.4,0.2-0.8,0.7-0.8
					C291.3,409.6,291.5,410,291.9,410.3"/>
				<path class="st17" d="M291.6,443.7c0.4-0.3,0.7-0.7,0.7-0.6c0.3,0.2,0.6,0.4,0.7,0.7c0,0.1-0.4,0.6-0.5,0.6
					C292.2,444.3,292,444,291.6,443.7"/>
				<path class="st17" d="M276.7,437.6c-0.4,0.3-0.7,0.7-0.9,0.6c-0.2,0-0.6-0.4-0.6-0.6c0-0.2,0.3-0.6,0.6-0.6
					C276,436.9,276.3,437.3,276.7,437.6"/>
				<path class="st17" d="M301.5,419.6c-0.4,0.3-0.6,0.6-0.9,0.6c-0.1,0-0.5-0.4-0.5-0.6c0-0.3,0.3-0.5,0.5-0.7
					C300.9,419.1,301.1,419.3,301.5,419.6"/>
				<path class="st17" d="M284.6,459.9c-0.3-0.4-0.6-0.6-0.6-0.8c0-0.2,0.3-0.4,0.5-0.7c0.2,0.2,0.5,0.3,0.5,0.5
					C285.1,459.3,284.9,459.5,284.6,459.9"/>
				<path class="st17" d="M301,433.5c-0.4,0.2-0.6,0.4-0.7,0.4c-0.3-0.1-0.5-0.4-0.8-0.6c0.1-0.2,0.4-0.5,0.4-0.5
					C300.3,432.9,300.6,433.2,301,433.5"/>
				<path class="st17" d="M281.3,449.3c-0.3,0.3-0.5,0.5-0.6,0.6c-0.2-0.2-0.5-0.5-0.5-0.7c0-0.1,0.3-0.4,0.4-0.6
					C280.8,448.8,281,449,281.3,449.3"/>
				<path class="st17" d="M274.1,401.8c-0.5-0.3-0.7-0.7-0.6-1.2c0-0.1,0.2-0.3,0.3-0.3c0.1,0,0.3,0.1,0.3,0.2
					C274.5,400.9,274.4,401.3,274.1,401.8"/>
				<path class="st17" d="M288,403.1c0.1,0.2,0.4,0.4,0.4,0.7c0,0.2-0.2,0.4-0.4,0.6c-0.2-0.2-0.5-0.4-0.5-0.7
					c0-0.2,0.2-0.4,0.3-0.6C287.8,403.1,287.9,403.1,288,403.1"/>
				<path class="st17" d="M295.2,415.8c-0.3,0.2-0.5,0.5-0.7,0.5c-0.2,0-0.5-0.3-0.5-0.5c0-0.2,0.3-0.5,0.5-0.6
					C294.7,415.2,294.9,415.6,295.2,415.8"/>
				<path class="st17" d="M274.5,462.5c0.3,0.3,0.5,0.5,0.5,0.7c-0.1,0.2-0.3,0.4-0.5,0.6c-0.2-0.2-0.4-0.3-0.4-0.5
					C274.1,463.1,274.3,462.9,274.5,462.5"/>
				<path class="st17" d="M274.6,431.7c0.3,0.4,0.5,0.6,0.5,0.8c0,0.2-0.3,0.5-0.4,0.5c-0.2,0-0.5-0.2-0.5-0.4
					C274.1,432.3,274.4,432.1,274.6,431.7"/>
				<path class="st17" d="M277.3,410.6c-0.3-0.4-0.5-0.5-0.5-0.8c0-0.1,0.2-0.3,0.4-0.5c0.2,0.2,0.4,0.4,0.5,0.6
					C277.7,410.1,277.5,410.3,277.3,410.6"/>
				<path class="st17" d="M298.1,446.6c0.2,0.3,0.4,0.5,0.4,0.7c0,0.2-0.3,0.4-0.4,0.4c-0.2,0-0.4-0.3-0.4-0.4
					C297.6,447.2,297.8,447,298.1,446.6"/>
				<path class="st17" d="M285.7,421.1c-0.5-0.2-0.8-0.4-0.6-1c0-0.1,0.3-0.2,0.4-0.2C285.9,420.3,285.8,420.7,285.7,421.1"/>
				<path class="st17" d="M290.9,452.5c-0.2-0.3-0.4-0.5-0.5-0.7c0-0.1,0.3-0.3,0.4-0.4c0.2,0.2,0.4,0.4,0.5,0.6
					C291.3,452.1,291.1,452.2,290.9,452.5"/>
				<path class="st17" d="M293.9,406c-0.2-0.3-0.3-0.5-0.3-0.6c0.1-0.2,0.3-0.3,0.4-0.5c0.1,0.1,0.3,0.3,0.3,0.4
					C294.3,405.5,294.1,405.7,293.9,406"/>
				<path class="st17" d="M309.4,431.5c-0.2,0.1-0.4,0.2-0.6,0.2c-0.2,0-0.3-0.3-0.3-0.5c0-0.1,0.2-0.4,0.3-0.4
					c0.2,0,0.4,0.1,0.6,0.2C309.4,431.2,309.4,431.4,309.4,431.5"/>
				<path class="st17" d="M286,443.4c-0.3,0.2-0.5,0.4-0.6,0.3c-0.1,0-0.2-0.3-0.4-0.4c0.1-0.1,0.3-0.3,0.4-0.3
					C285.5,443.1,285.7,443.3,286,443.4"/>
			</g>
		</g>
	</g>
	<text transform="matrix(1 0 0 1 283.6934 441.1719)" class="st4 st5 st15">e</text>
</g>
<g id="I">
	<g>
		<g>
			<defs>
				<rect id="SVGID_17_" x="290" y="344.3" width="149" height="171.7"/>
			</defs>
			<clipPath id="SVGID_18_">
				<use xlink:href="#SVGID_17_"  style="overflow:visible;"/>
			</clipPath>
			<g class="st20">
				<defs>
					<rect id="SVGID_19_" x="364.5" y="344.3" width="74.5" height="166.5"/>
				</defs>
				<clipPath id="SVGID_20_">
					<use xlink:href="#SVGID_19_"  style="overflow:visible;"/>
				</clipPath>
				<path class="st21" d="M355.3,390.2c-0.6-1.2-0.5-1.8,0.4-2.8c0.8-0.8,1.7-1.3,2.8-1.6c2.5-0.6,5-0.5,7.3,0.5
					c2,0.9,2.9,2.5,2.8,4.7c1.4,0.5,2.8,0.9,4.2,1.4c1.8,0.6,3.5,1,5.3,1.7c6.5,2.5,12.3,6,17.1,11.2c4,4.3,7.4,9,10,14.3
					c4.3,8.6,4.5,17.3,0.9,26.2c-2.5,6-5.8,11.5-10.1,16.4c-5,5.6-11.1,9.2-18.3,11.1c-7.9,2.1-15.8,2.3-23.8,0.7
					c-7.5-1.5-14.3-4.5-20.2-9.2c-9.2-7.2-13.4-16.8-13.2-28.4c0.2-7.8,2.4-15,5.7-22c2.6-5.4,6-10.3,10.5-14.4
					c5-4.6,10.7-7.9,17.3-9.5c0.2-0.1,0.5-0.1,0.7-0.1C354.8,390.2,355,390.2,355.3,390.2 M363.2,473c5.4,0,9.9-0.5,14.4-1.8
					c5.4-1.5,10.2-4,14.3-7.8c5.9-5.5,10-12.2,12.9-19.7c2.7-7.1,2.7-14.2-0.4-21.3c-2.3-5.5-5.7-10.3-9.5-14.8
					c-5-5.8-11.4-9.5-18.5-12.2c-2.6-1-5.4-1.5-8.1-2c-4.3-0.8-8.6-1.2-13-0.6c-6.4,0.9-12,3.7-16.9,7.8c-1,0.8-1.8,1.7-2.7,2.6
					c-4,4.3-6.9,9.2-9.1,14.5c-3,7-4.7,14.3-4.2,22c0.3,5,1.6,9.7,4.1,14.1c3,5.2,7.3,9.2,12.5,12.3
					C346.6,470.8,355,472.9,363.2,473 M356.5,389.1c0.2,0.1,0.4,0.3,0.7,0.4c1.2,0.4,2.3,0.8,3.5,1.1c0.4,0.1,0.9,0.1,1.4,0.1
					c1.4,0,2.8-0.1,4.1-0.2c0.6,0,0.8-0.1,0.6-0.7c-0.3-1-1-1.6-1.9-2c-2.1-0.8-4.3-0.9-6.5-0.2C357.7,387.8,357,388.2,356.5,389.1"
					/>
				<path class="st22" d="M363.2,473c-8.2-0.1-16.6-2.2-24.3-6.9c-5.1-3.1-9.4-7.1-12.5-12.3c-2.5-4.3-3.8-9.1-4.1-14.1
					c-0.5-7.7,1.2-14.9,4.2-22c2.3-5.3,5.2-10.3,9.1-14.5c0.9-0.9,1.7-1.8,2.7-2.6c4.9-4.1,10.5-6.9,16.9-7.8
					c4.4-0.6,8.7-0.3,13,0.6c2.7,0.5,5.5,1,8.1,2c7,2.7,13.4,6.4,18.5,12.2c3.9,4.5,7.2,9.3,9.5,14.8c3,7,3,14.1,0.4,21.3
					c-2.8,7.5-7,14.2-12.9,19.7c-4.1,3.8-9,6.3-14.3,7.8C373.1,472.4,368.5,473,363.2,473 M349.1,403c0.1,0.6,0.1,1.1,0.3,1.5
					c0.1,0.2,0.4,0.4,0.7,0.6c0.2-0.2,0.4-0.5,0.5-0.7c0-0.4-0.1-0.9-0.2-1.3c-0.1-0.4-0.1-1.1-0.8-1.1
					C349.4,402,349.3,402.7,349.1,403 M373.2,431.8c0-0.8-0.6-1.6-1.2-1.5c-0.2,0-0.5,0.4-0.5,0.6c-0.1,0.7,0.5,1.4,1,1.4
					C372.8,432.2,373.1,431.9,373.2,431.8 M393.5,442.4c0.5-0.6,0.6-1.1,0.3-1.7c-0.2-0.4-0.5-0.6-1-0.4c-0.4,0.2-0.6,0.6-0.3,1
					C392.8,441.7,393.2,442,393.5,442.4 M364,433.4c-0.4-0.5-0.8-0.9-1.1-1.4c-0.2,0.3-0.5,0.7-0.6,1c-0.1,0.6,0.4,1.1,0.9,1
					C363.5,434.1,363.7,433.8,364,433.4 M344.8,448.9c-0.5-0.7-1.1-0.9-1.7-0.5c-0.5,0.3-0.5,0.7,0,1
					C343.7,449.7,344.3,449.5,344.8,448.9 M334.7,441.5c0-0.8-0.5-1.4-1-1.4c-0.5,0-0.6,0.3-0.6,0.7c0,0.6,0.5,1.2,0.9,1.1
					C334.3,441.9,334.6,441.6,334.7,441.5 M384.1,434.7c0.1-0.1,0.3-0.3,0.4-0.6c0.1-0.5-0.5-1-1.1-1c-0.4,0-0.5,0.1-0.5,0.5
					C382.9,434.2,383.4,434.7,384.1,434.7 M343.2,404.5c0.1-0.1,0.4-0.3,0.4-0.5c0.1-0.4-0.5-1-0.9-0.9c-0.2,0.1-0.6,0.4-0.6,0.6
					C342.1,404.2,342.5,404.4,343.2,404.5 M389.5,413.7c0-0.7-0.5-1.2-0.9-1.1c-0.2,0-0.5,0.4-0.5,0.6c0,0.5,0.3,0.9,0.8,0.9
					C389.1,414.1,389.4,413.8,389.5,413.7 M332.2,432.5c0.3-0.6,0.5-1.2-0.1-1.7c-0.1-0.1-0.5-0.2-0.7-0.2c-0.1,0-0.3,0.4-0.3,0.5
					C331.2,431.9,331.6,432.2,332.2,432.5 M366.2,425.1c-0.4-0.4-0.6-0.6-0.9-0.9c-0.2,0.3-0.5,0.5-0.6,0.8
					c-0.1,0.4,0.2,0.9,0.7,0.9C365.7,425.9,365.9,425.5,366.2,425.1 M384.9,411.3c-0.4-0.4-0.6-0.7-0.9-0.8
					c-0.5-0.1-0.6,0.3-0.7,0.8c0,0.4,0.2,0.8,0.6,0.7C384.2,412,384.5,411.7,384.9,411.3 M350.3,426.1c-0.4-0.4-0.7-0.7-0.9-1
					c-0.2,0.2-0.4,0.4-0.5,0.7c-0.1,0.5,0.4,1,0.8,0.9C349.8,426.7,350,426.4,350.3,426.1 M349.1,443.2c0.1-0.1,0.2-0.1,0.4-0.2
					c-0.1-0.4-0.1-0.9-0.3-1.2c-0.1-0.2-0.5-0.2-0.7-0.3c-0.1,0.3-0.3,0.6-0.2,0.8C348.4,442.6,348.8,442.9,349.1,443.2
					 M348.9,453.9c0-0.1,0-0.2,0-0.3c-0.3-0.2-0.6-0.4-0.9-0.4c-0.4-0.1-0.8,0.2-0.7,0.6c0.1,0.2,0.4,0.5,0.7,0.5
					C348.3,454.4,348.6,454.1,348.9,453.9 M335.5,437.4c0.1-0.1,0.3-0.2,0.3-0.4c0-0.5-0.2-0.9-0.7-0.9c-0.2,0-0.6,0.3-0.6,0.4
					C334.5,437,334.9,437.3,335.5,437.4 M337,432.3c-0.4-0.3-0.7-0.7-0.9-0.7c-0.2,0-0.6,0.4-0.6,0.6c0,0.2,0.3,0.6,0.6,0.6
					C336.3,432.9,336.6,432.6,337,432.3 M384.6,444.7c0.4,0.3,0.7,0.6,1,0.7c0.1,0,0.5-0.5,0.5-0.6c-0.2-0.3-0.4-0.5-0.7-0.7
					C385.2,444.1,384.9,444.4,384.6,444.7 M369.7,438.6c-0.4-0.3-0.7-0.6-0.9-0.6c-0.2,0-0.6,0.4-0.6,0.6c0,0.2,0.4,0.6,0.6,0.6
					C369.1,439.2,369.3,438.9,369.7,438.6 M345.1,456.3c-0.3,0.4-0.6,0.6-0.6,0.8c0,0.5,0.3,0.8,0.8,0.8c0.2,0,0.5-0.4,0.5-0.4
					C345.7,457,345.5,456.8,345.1,456.3 M363.2,447.8c-0.3-0.3-0.5-0.6-0.8-0.6c-0.1,0-0.5,0.4-0.5,0.5c0.2,0.3,0.5,0.5,0.7,0.8
					C362.7,448.3,362.9,448.1,363.2,447.8 M356.2,462.6c-0.4-0.3-0.7-0.6-0.9-0.8c-0.2,0.2-0.4,0.4-0.5,0.6
					c-0.1,0.4,0.2,0.8,0.6,0.8C355.6,463.2,355.8,462.9,356.2,462.6 M334.3,419.6c0.3-0.3,0.5-0.5,0.6-0.6c0-0.4-0.2-0.8-0.6-0.8
					c-0.2,0-0.5,0.3-0.5,0.5C333.8,419,334.1,419.2,334.3,419.6 M394.5,420.6c-0.4-0.3-0.6-0.5-0.8-0.7c-0.2,0.2-0.5,0.5-0.5,0.7
					c0,0.2,0.3,0.6,0.5,0.6C393.9,421.2,394.1,420.9,394.5,420.6 M354.1,411.7c-0.3,0.4-0.6,0.7-0.6,0.8c0.1,0.3,0.4,0.5,0.6,0.6
					c0.1,0,0.5-0.3,0.5-0.5C354.7,412.4,354.4,412.1,354.1,411.7 M333.7,449.5c0-0.1,0-0.2,0-0.2c-0.3-0.1-0.5-0.4-0.8-0.4
					c-0.2,0-0.4,0.3-0.7,0.5c0.2,0.2,0.4,0.5,0.6,0.5C333.2,449.9,333.5,449.7,333.7,449.5 M346.7,406.6c-0.3,0.4-0.6,0.7-0.5,0.7
					c0.1,0.3,0.4,0.5,0.6,0.6c0.1,0,0.5-0.3,0.5-0.3C347.2,407.4,347,407.1,346.7,406.6 M377.6,460.9c0.2-0.4,0.5-0.7,0.5-0.9
					c0-0.2-0.3-0.4-0.5-0.5c-0.2,0.2-0.5,0.4-0.5,0.7C377,460.3,377.3,460.6,377.6,460.9 M357,454.3c-0.3-0.5-0.7-0.9-1.3-0.6
					c-0.1,0-0.3,0.4-0.2,0.5C355.9,454.7,356.4,454.5,357,454.3 M394,434.5c-0.5-0.3-0.7-0.5-1-0.7c-0.1,0-0.3,0.3-0.4,0.5
					c0.3,0.2,0.5,0.4,0.8,0.6C393.5,434.9,393.7,434.7,394,434.5 M374.3,450.3c-0.3-0.3-0.5-0.5-0.8-0.7c-0.1,0.2-0.5,0.4-0.4,0.6
					c0.1,0.3,0.4,0.5,0.5,0.7C373.9,450.8,374,450.6,374.3,450.3 M340.8,436.4c-0.2-0.6-0.5-1-1.1-0.8c-0.1,0-0.3,0.4-0.2,0.5
					C339.8,436.8,340.3,436.6,340.8,436.4 M367.1,402.8c0.3-0.4,0.4-0.9,0.1-1.3c-0.1-0.1-0.3-0.3-0.3-0.2c-0.1,0-0.3,0.2-0.3,0.3
					C366.4,402.1,366.6,402.5,367.1,402.8 M381,404.1c-0.1,0-0.2,0-0.2,0c-0.1,0.2-0.4,0.5-0.3,0.6c0.1,0.3,0.3,0.5,0.5,0.7
					c0.1-0.2,0.4-0.4,0.4-0.6C381.3,404.6,381.1,404.3,381,404.1 M342.3,415c-0.3-0.2-0.5-0.5-0.7-0.5c-0.1,0-0.5,0.4-0.4,0.5
					c0.1,0.3,0.3,0.4,0.5,0.7C341.9,415.5,342,415.3,342.3,415 M388.2,416.8c-0.3-0.3-0.6-0.6-0.7-0.6c-0.2,0.1-0.5,0.3-0.5,0.6
					c0,0.1,0.3,0.5,0.5,0.5C387.7,417.3,387.9,417.1,388.2,416.8 M338.6,439.1c-0.2,0.4-0.5,0.6-0.4,0.8c0,0.2,0.3,0.4,0.5,0.5
					c0.2-0.2,0.4-0.4,0.5-0.6C339.1,439.6,338.9,439.4,338.6,439.1 M367.5,463.5c-0.2,0.4-0.4,0.6-0.4,0.8c0,0.2,0.3,0.3,0.4,0.5
					c0.2-0.2,0.4-0.4,0.5-0.6C368,464.1,367.7,463.8,367.5,463.5 M367.6,432.7c-0.2,0.4-0.5,0.6-0.4,0.8c0,0.2,0.3,0.4,0.5,0.4
					c0.1,0,0.4-0.3,0.4-0.5C368.1,433.3,367.8,433.1,367.6,432.7 M357.9,406.7c0.2-0.3,0.5-0.5,0.5-0.7c0-0.2-0.3-0.4-0.5-0.4
					c-0.2,0-0.5,0.3-0.5,0.5C357.3,406.1,357.6,406.3,357.9,406.7 M370.3,411.6c0.2-0.4,0.4-0.6,0.3-0.7c-0.1-0.2-0.3-0.4-0.5-0.6
					c-0.1,0.2-0.4,0.4-0.4,0.5C369.8,411.1,370,411.3,370.3,411.6 M391.1,447.6c-0.2,0.3-0.5,0.5-0.5,0.7c0,0.2,0.3,0.4,0.4,0.4
					c0.1,0,0.4-0.3,0.4-0.4C391.5,448.2,391.3,448,391.1,447.6 M378.7,422.1c0.2-0.5,0.2-0.9-0.2-1.1c-0.1,0-0.4,0.1-0.4,0.2
					C377.9,421.7,378.2,421.9,378.7,422.1 M383.9,453.5c0.2-0.3,0.4-0.5,0.4-0.6c-0.1-0.2-0.3-0.4-0.5-0.6c-0.1,0.1-0.4,0.3-0.4,0.4
					C383.4,453,383.6,453.2,383.9,453.5 M386.9,407c0.2-0.4,0.4-0.5,0.4-0.7c0-0.1-0.2-0.3-0.3-0.4c-0.1,0.2-0.3,0.3-0.4,0.5
					C386.6,406.5,386.8,406.7,386.9,407 M349.9,415.1c-0.4,0.1-0.6,0.4-0.5,0.8c0,0.1,0.4,0.2,0.4,0.1
					C350.2,415.8,350.1,415.5,349.9,415.1 M402.4,432.5c0-0.2,0-0.3,0-0.5c-0.2-0.1-0.4-0.2-0.6-0.2c-0.1,0-0.4,0.3-0.3,0.4
					c0,0.2,0.2,0.4,0.3,0.5C402,432.8,402.2,432.6,402.4,432.5 M379,444.4c-0.3-0.2-0.4-0.4-0.6-0.4c-0.1,0-0.3,0.2-0.4,0.3
					c0.1,0.1,0.2,0.4,0.4,0.4C378.5,444.8,378.7,444.6,379,444.4"/>
				<path class="st23" d="M356.5,389.1c0.5-0.8,1.1-1.3,1.9-1.5c2.2-0.6,4.4-0.6,6.5,0.2c0.9,0.3,1.6,1,1.9,2c0.2,0.6,0,0.7-0.6,0.7
					c-1.4,0-2.8,0.1-4.1,0.2c-0.5,0-0.9,0-1.4-0.1c-1.2-0.3-2.4-0.7-3.5-1.1C357,389.3,356.8,389.2,356.5,389.1"/>
				<path class="st21" d="M373.2,431.8c-0.2,0.1-0.4,0.4-0.7,0.5c-0.5,0.1-1.1-0.7-1-1.4c0-0.2,0.3-0.6,0.5-0.6
					C372.6,430.2,373.3,431,373.2,431.8"/>
				<path class="st21" d="M393.5,442.4c-0.4-0.4-0.7-0.7-1-1.1c-0.2-0.4-0.1-0.8,0.3-1c0.4-0.2,0.8,0,1,0.4
					C394.2,441.3,394,441.8,393.5,442.4"/>
				<path class="st21" d="M384.1,434.7c-0.8,0-1.2-0.5-1.2-1.1c0-0.4,0.2-0.5,0.5-0.5c0.5,0,1.1,0.5,1.1,1
					C384.5,434.4,384.2,434.6,384.1,434.7"/>
				<path class="st21" d="M389.5,413.7c-0.1,0.1-0.4,0.4-0.6,0.4c-0.5,0-0.8-0.4-0.8-0.9c0-0.2,0.3-0.6,0.5-0.6
					C389,412.5,389.5,413,389.5,413.7"/>
				<path class="st21" d="M366.2,425.1c-0.3,0.4-0.6,0.8-0.8,0.8c-0.5,0-0.7-0.5-0.7-0.9c0.1-0.3,0.4-0.5,0.6-0.8
					C365.6,424.5,365.9,424.8,366.2,425.1"/>
				<path class="st21" d="M384.9,411.3c-0.4,0.3-0.7,0.7-1,0.7c-0.4,0.1-0.6-0.3-0.6-0.7c0-0.4,0.2-0.8,0.7-0.8
					C384.3,410.6,384.5,411,384.9,411.3"/>
				<path class="st21" d="M384.6,444.7c0.4-0.3,0.7-0.7,0.7-0.6c0.3,0.2,0.6,0.4,0.7,0.7c0,0.1-0.4,0.6-0.5,0.6
					C385.2,445.3,385,445,384.6,444.7"/>
				<path class="st21" d="M369.7,438.6c-0.4,0.3-0.7,0.7-0.9,0.6c-0.2,0-0.6-0.4-0.6-0.6c0-0.2,0.3-0.6,0.6-0.6
					C369,437.9,369.3,438.3,369.7,438.6"/>
				<path class="st21" d="M394.5,420.6c-0.4,0.3-0.6,0.6-0.9,0.6c-0.1,0-0.5-0.4-0.5-0.6c0-0.3,0.3-0.5,0.5-0.7
					C393.9,420.1,394.1,420.3,394.5,420.6"/>
				<path class="st21" d="M377.6,460.9c-0.3-0.4-0.6-0.6-0.6-0.8c0-0.2,0.3-0.4,0.5-0.7c0.2,0.2,0.5,0.3,0.5,0.5
					C378.1,460.3,377.9,460.5,377.6,460.9"/>
				<path class="st21" d="M394,434.5c-0.4,0.2-0.6,0.4-0.7,0.4c-0.3-0.1-0.5-0.4-0.8-0.6c0.1-0.2,0.4-0.5,0.4-0.5
					C393.3,433.9,393.6,434.2,394,434.5"/>
				<path class="st21" d="M374.3,450.3c-0.3,0.3-0.5,0.5-0.6,0.6c-0.2-0.2-0.5-0.5-0.5-0.7c0-0.1,0.3-0.4,0.4-0.6
					C373.8,449.8,374,450,374.3,450.3"/>
				<path class="st21" d="M367.1,402.8c-0.5-0.3-0.7-0.7-0.6-1.2c0-0.1,0.2-0.3,0.3-0.3c0.1,0,0.3,0.1,0.3,0.2
					C367.5,401.9,367.4,402.3,367.1,402.8"/>
				<path class="st21" d="M381,404.1c0.1,0.2,0.4,0.4,0.4,0.7c0,0.2-0.2,0.4-0.4,0.6c-0.2-0.2-0.5-0.4-0.5-0.7
					c0-0.2,0.2-0.4,0.3-0.6C380.8,404.1,380.9,404.1,381,404.1"/>
				<path class="st21" d="M388.2,416.8c-0.3,0.2-0.5,0.5-0.7,0.5c-0.2,0-0.5-0.3-0.5-0.5c0-0.2,0.3-0.5,0.5-0.6
					C387.7,416.2,387.9,416.6,388.2,416.8"/>
				<path class="st21" d="M367.5,463.5c0.3,0.3,0.5,0.5,0.5,0.7c-0.1,0.2-0.3,0.4-0.5,0.6c-0.2-0.2-0.4-0.3-0.4-0.5
					C367.1,464.1,367.3,463.9,367.5,463.5"/>
				<path class="st21" d="M367.6,432.7c0.3,0.4,0.5,0.6,0.5,0.8c0,0.2-0.3,0.5-0.4,0.5c-0.2,0-0.5-0.2-0.5-0.4
					C367.1,433.3,367.4,433.1,367.6,432.7"/>
				<path class="st21" d="M370.3,411.6c-0.3-0.4-0.5-0.5-0.5-0.8c0-0.1,0.2-0.3,0.4-0.5c0.2,0.2,0.4,0.4,0.5,0.6
					C370.7,411.1,370.5,411.3,370.3,411.6"/>
				<path class="st21" d="M391.1,447.6c0.2,0.3,0.4,0.5,0.4,0.7c0,0.2-0.3,0.4-0.4,0.4c-0.2,0-0.4-0.3-0.4-0.4
					C390.6,448.2,390.8,448,391.1,447.6"/>
				<path class="st21" d="M378.7,422.1c-0.5-0.2-0.8-0.4-0.6-1c0-0.1,0.3-0.2,0.4-0.2C378.9,421.3,378.8,421.7,378.7,422.1"/>
				<path class="st21" d="M383.9,453.5c-0.2-0.3-0.4-0.5-0.5-0.7c0-0.1,0.3-0.3,0.4-0.4c0.2,0.2,0.4,0.4,0.5,0.6
					C384.3,453.1,384.1,453.2,383.9,453.5"/>
				<path class="st21" d="M386.9,407c-0.2-0.3-0.3-0.5-0.3-0.6c0.1-0.2,0.3-0.3,0.4-0.5c0.1,0.1,0.3,0.3,0.3,0.4
					C387.3,406.5,387.1,406.7,386.9,407"/>
				<path class="st21" d="M402.4,432.5c-0.2,0.1-0.4,0.2-0.6,0.2c-0.2,0-0.3-0.3-0.3-0.5c0-0.1,0.2-0.4,0.3-0.4
					c0.2,0,0.4,0.1,0.6,0.2C402.4,432.2,402.4,432.4,402.4,432.5"/>
				<path class="st21" d="M379,444.4c-0.3,0.2-0.5,0.4-0.6,0.3c-0.1,0-0.2-0.3-0.4-0.4c0.1-0.1,0.3-0.3,0.4-0.3
					C378.5,444.1,378.7,444.3,379,444.4"/>
			</g>
		</g>
	</g>
	<text transform="matrix(1 0 0 1 377.6934 441.1721)" class="st4 st5 st15">i</text>
</g>
<g id="O">
	<g>
		<g>
			<defs>
				<rect id="SVGID_21_" x="382" y="343.3" width="149" height="171.7"/>
			</defs>
			<clipPath id="SVGID_22_">
				<use xlink:href="#SVGID_21_"  style="overflow:visible;"/>
			</clipPath>
			<g class="st24">
				<defs>
					<rect id="SVGID_23_" x="456.5" y="343.3" width="74.5" height="166.5"/>
				</defs>
				<clipPath id="SVGID_24_">
					<use xlink:href="#SVGID_23_"  style="overflow:visible;"/>
				</clipPath>
				<path class="st25" d="M447.3,389.2c-0.6-1.2-0.5-1.8,0.4-2.8c0.8-0.8,1.7-1.3,2.8-1.6c2.5-0.6,5-0.5,7.3,0.5
					c2,0.9,2.9,2.5,2.8,4.7c1.4,0.5,2.8,0.9,4.2,1.4c1.8,0.6,3.5,1,5.3,1.7c6.5,2.5,12.3,6,17.1,11.2c4,4.3,7.4,9,10,14.3
					c4.3,8.6,4.5,17.3,0.9,26.2c-2.5,6-5.8,11.5-10.1,16.4c-5,5.6-11.1,9.2-18.3,11.1c-7.9,2.1-15.8,2.3-23.8,0.7
					c-7.5-1.5-14.3-4.5-20.2-9.2c-9.2-7.2-13.4-16.8-13.2-28.4c0.2-7.8,2.4-15,5.7-22c2.6-5.4,6-10.3,10.5-14.4
					c5-4.6,10.7-7.9,17.3-9.5c0.2-0.1,0.5-0.1,0.7-0.1C446.8,389.2,447,389.2,447.3,389.2 M455.2,472c5.4,0,9.9-0.5,14.4-1.8
					c5.4-1.5,10.2-4,14.3-7.8c5.9-5.5,10-12.2,12.9-19.7c2.7-7.1,2.7-14.2-0.4-21.3c-2.3-5.5-5.7-10.3-9.5-14.8
					c-5-5.8-11.4-9.5-18.5-12.2c-2.6-1-5.4-1.5-8.1-2c-4.3-0.8-8.6-1.2-13-0.6c-6.4,0.9-12,3.7-16.9,7.8c-1,0.8-1.8,1.7-2.7,2.6
					c-4,4.3-6.9,9.2-9.1,14.5c-3,7-4.7,14.3-4.2,22c0.3,5,1.6,9.7,4.1,14.1c3,5.2,7.3,9.2,12.5,12.3
					C438.6,469.8,447,471.9,455.2,472 M448.5,388.1c0.2,0.1,0.4,0.3,0.7,0.4c1.2,0.4,2.3,0.8,3.5,1.1c0.4,0.1,0.9,0.1,1.4,0.1
					c1.4,0,2.8-0.1,4.1-0.2c0.6,0,0.8-0.1,0.6-0.7c-0.3-1-1-1.6-1.9-2c-2.1-0.8-4.3-0.9-6.5-0.2C449.7,386.8,449,387.2,448.5,388.1"
					/>
				<path class="st26" d="M455.2,472c-8.2-0.1-16.6-2.2-24.3-6.9c-5.1-3.1-9.4-7.1-12.5-12.3c-2.5-4.3-3.8-9.1-4.1-14.1
					c-0.5-7.7,1.2-14.9,4.2-22c2.3-5.3,5.2-10.3,9.1-14.5c0.9-0.9,1.7-1.8,2.7-2.6c4.9-4.1,10.5-6.9,16.9-7.8
					c4.4-0.6,8.7-0.3,13,0.6c2.7,0.5,5.5,1,8.1,2c7,2.7,13.4,6.4,18.5,12.2c3.9,4.5,7.2,9.3,9.5,14.8c3,7,3,14.1,0.4,21.3
					c-2.8,7.5-7,14.2-12.9,19.7c-4.1,3.8-9,6.3-14.3,7.8C465.1,471.4,460.5,472,455.2,472 M441.1,402c0.1,0.6,0.1,1.1,0.3,1.5
					c0.1,0.2,0.4,0.4,0.7,0.6c0.2-0.2,0.4-0.5,0.5-0.7c0-0.4-0.1-0.9-0.2-1.3c-0.1-0.4-0.1-1.1-0.8-1.1
					C441.4,401,441.3,401.7,441.1,402 M465.2,430.8c0-0.8-0.6-1.6-1.2-1.5c-0.2,0-0.5,0.4-0.5,0.6c-0.1,0.7,0.5,1.4,1,1.4
					C464.8,431.2,465.1,430.9,465.2,430.8 M485.5,441.4c0.5-0.6,0.6-1.1,0.3-1.7c-0.2-0.4-0.5-0.6-1-0.4c-0.4,0.2-0.6,0.6-0.3,1
					C484.8,440.7,485.2,441,485.5,441.4 M456,432.4c-0.4-0.5-0.8-0.9-1.1-1.4c-0.2,0.3-0.5,0.7-0.6,1c-0.1,0.6,0.4,1.1,0.9,1
					C455.5,433.1,455.7,432.8,456,432.4 M436.8,447.9c-0.5-0.7-1.1-0.9-1.7-0.5c-0.5,0.3-0.5,0.7,0,1
					C435.7,448.7,436.3,448.5,436.8,447.9 M426.7,440.5c0-0.8-0.5-1.4-1-1.4c-0.5,0-0.6,0.3-0.6,0.7c0,0.6,0.5,1.2,0.9,1.1
					C426.3,440.9,426.6,440.6,426.7,440.5 M476.1,433.7c0.1-0.1,0.3-0.3,0.4-0.6c0.1-0.5-0.5-1-1.1-1c-0.4,0-0.5,0.1-0.5,0.5
					C474.9,433.2,475.4,433.7,476.1,433.7 M435.2,403.5c0.1-0.1,0.4-0.3,0.4-0.5c0.1-0.4-0.5-1-0.9-0.9c-0.2,0.1-0.6,0.4-0.6,0.6
					C434.1,403.2,434.5,403.4,435.2,403.5 M481.5,412.7c0-0.7-0.5-1.2-0.9-1.1c-0.2,0-0.5,0.4-0.5,0.6c0,0.5,0.3,0.9,0.8,0.9
					C481.1,413.1,481.4,412.8,481.5,412.7 M424.2,431.5c0.3-0.6,0.5-1.2-0.1-1.7c-0.1-0.1-0.5-0.2-0.7-0.2c-0.1,0-0.3,0.4-0.3,0.5
					C423.2,430.9,423.6,431.2,424.2,431.5 M458.2,424.1c-0.4-0.4-0.6-0.6-0.9-0.9c-0.2,0.3-0.5,0.5-0.6,0.8
					c-0.1,0.4,0.2,0.9,0.7,0.9C457.7,424.9,457.9,424.5,458.2,424.1 M476.9,410.3c-0.4-0.4-0.6-0.7-0.9-0.8
					c-0.5-0.1-0.6,0.3-0.7,0.8c0,0.4,0.2,0.8,0.6,0.7C476.2,411,476.5,410.7,476.9,410.3 M442.3,425.1c-0.4-0.4-0.7-0.7-0.9-1
					c-0.2,0.2-0.4,0.4-0.5,0.7c-0.1,0.5,0.4,1,0.8,0.9C441.8,425.7,442,425.4,442.3,425.1 M441.1,442.2c0.1-0.1,0.2-0.1,0.4-0.2
					c-0.1-0.4-0.1-0.9-0.3-1.2c-0.1-0.2-0.5-0.2-0.7-0.3c-0.1,0.3-0.3,0.6-0.2,0.8C440.4,441.6,440.8,441.9,441.1,442.2
					 M440.9,452.9c0-0.1,0-0.2,0-0.3c-0.3-0.2-0.6-0.4-0.9-0.4c-0.4-0.1-0.8,0.2-0.7,0.6c0.1,0.2,0.4,0.5,0.7,0.5
					C440.3,453.4,440.6,453.1,440.9,452.9 M427.5,436.4c0.1-0.1,0.3-0.2,0.3-0.4c0-0.5-0.2-0.9-0.7-0.9c-0.2,0-0.6,0.3-0.6,0.4
					C426.5,436,426.9,436.3,427.5,436.4 M429,431.3c-0.4-0.3-0.7-0.7-0.9-0.7c-0.2,0-0.6,0.4-0.6,0.6c0,0.2,0.3,0.6,0.6,0.6
					C428.3,431.9,428.6,431.6,429,431.3 M476.6,443.7c0.4,0.3,0.7,0.6,1,0.7c0.1,0,0.5-0.5,0.5-0.6c-0.2-0.3-0.4-0.5-0.7-0.7
					C477.2,443.1,476.9,443.4,476.6,443.7 M461.7,437.6c-0.4-0.3-0.7-0.6-0.9-0.6c-0.2,0-0.6,0.4-0.6,0.6c0,0.2,0.4,0.6,0.6,0.6
					C461.1,438.2,461.3,437.9,461.7,437.6 M437.1,455.3c-0.3,0.4-0.6,0.6-0.6,0.8c0,0.5,0.3,0.8,0.8,0.8c0.2,0,0.5-0.4,0.5-0.4
					C437.7,456,437.5,455.8,437.1,455.3 M455.2,446.8c-0.3-0.3-0.5-0.6-0.8-0.6c-0.1,0-0.5,0.4-0.5,0.5c0.2,0.3,0.5,0.5,0.7,0.8
					C454.7,447.3,454.9,447.1,455.2,446.8 M448.2,461.6c-0.4-0.3-0.7-0.6-0.9-0.8c-0.2,0.2-0.4,0.4-0.5,0.6
					c-0.1,0.4,0.2,0.8,0.6,0.8C447.6,462.2,447.8,461.9,448.2,461.6 M426.3,418.6c0.3-0.3,0.5-0.5,0.6-0.6c0-0.4-0.2-0.8-0.6-0.8
					c-0.2,0-0.5,0.3-0.5,0.5C425.8,418,426.1,418.2,426.3,418.6 M486.5,419.6c-0.4-0.3-0.6-0.5-0.8-0.7c-0.2,0.2-0.5,0.5-0.5,0.7
					c0,0.2,0.3,0.6,0.5,0.6C485.9,420.2,486.1,419.9,486.5,419.6 M446.1,410.7c-0.3,0.4-0.6,0.7-0.6,0.8c0.1,0.3,0.4,0.5,0.6,0.6
					c0.1,0,0.5-0.3,0.5-0.5C446.7,411.4,446.4,411.1,446.1,410.7 M425.7,448.5c0-0.1,0-0.2,0-0.2c-0.3-0.1-0.5-0.4-0.8-0.4
					c-0.2,0-0.4,0.3-0.7,0.5c0.2,0.2,0.4,0.5,0.6,0.5C425.2,448.9,425.5,448.7,425.7,448.5 M438.7,405.6c-0.3,0.4-0.6,0.7-0.5,0.7
					c0.1,0.3,0.4,0.5,0.6,0.6c0.1,0,0.5-0.3,0.5-0.3C439.2,406.4,439,406.1,438.7,405.6 M469.6,459.9c0.2-0.4,0.5-0.7,0.5-0.9
					c0-0.2-0.3-0.4-0.5-0.5c-0.2,0.2-0.5,0.4-0.5,0.7C469,459.3,469.3,459.6,469.6,459.9 M449,453.3c-0.3-0.5-0.7-0.9-1.3-0.6
					c-0.1,0-0.3,0.4-0.2,0.5C447.9,453.7,448.4,453.5,449,453.3 M486,433.5c-0.5-0.3-0.7-0.5-1-0.7c-0.1,0-0.3,0.3-0.4,0.5
					c0.3,0.2,0.5,0.4,0.8,0.6C485.5,433.9,485.7,433.7,486,433.5 M466.3,449.3c-0.3-0.3-0.5-0.5-0.8-0.7c-0.1,0.2-0.5,0.4-0.4,0.6
					c0.1,0.3,0.4,0.5,0.5,0.7C465.9,449.8,466,449.6,466.3,449.3 M432.8,435.4c-0.2-0.6-0.5-1-1.1-0.8c-0.1,0-0.3,0.4-0.2,0.5
					C431.8,435.8,432.3,435.6,432.8,435.4 M459.1,401.8c0.3-0.4,0.4-0.9,0.1-1.3c-0.1-0.1-0.3-0.3-0.3-0.2c-0.1,0-0.3,0.2-0.3,0.3
					C458.4,401.1,458.6,401.5,459.1,401.8 M473,403.1c-0.1,0-0.2,0-0.2,0c-0.1,0.2-0.4,0.5-0.3,0.6c0.1,0.3,0.3,0.5,0.5,0.7
					c0.1-0.2,0.4-0.4,0.4-0.6C473.3,403.6,473.1,403.3,473,403.1 M434.3,414c-0.3-0.2-0.5-0.5-0.7-0.5c-0.1,0-0.5,0.4-0.4,0.5
					c0.1,0.3,0.3,0.4,0.5,0.7C433.9,414.5,434,414.3,434.3,414 M480.2,415.8c-0.3-0.3-0.6-0.6-0.7-0.6c-0.2,0.1-0.5,0.3-0.5,0.6
					c0,0.1,0.3,0.5,0.5,0.5C479.7,416.3,479.9,416.1,480.2,415.8 M430.6,438.1c-0.2,0.4-0.5,0.6-0.4,0.8c0,0.2,0.3,0.4,0.5,0.5
					c0.2-0.2,0.4-0.4,0.5-0.6C431.1,438.6,430.9,438.4,430.6,438.1 M459.5,462.5c-0.2,0.4-0.4,0.6-0.4,0.8c0,0.2,0.3,0.3,0.4,0.5
					c0.2-0.2,0.4-0.4,0.5-0.6C460,463.1,459.7,462.8,459.5,462.5 M459.6,431.7c-0.2,0.4-0.5,0.6-0.4,0.8c0,0.2,0.3,0.4,0.5,0.4
					c0.1,0,0.4-0.3,0.4-0.5C460.1,432.3,459.8,432.1,459.6,431.7 M449.9,405.7c0.2-0.3,0.5-0.5,0.5-0.7c0-0.2-0.3-0.4-0.5-0.4
					c-0.2,0-0.5,0.3-0.5,0.5C449.3,405.1,449.6,405.3,449.9,405.7 M462.3,410.6c0.2-0.4,0.4-0.6,0.3-0.7c-0.1-0.2-0.3-0.4-0.5-0.6
					c-0.1,0.2-0.4,0.4-0.4,0.5C461.8,410.1,462,410.3,462.3,410.6 M483.1,446.6c-0.2,0.3-0.5,0.5-0.5,0.7c0,0.2,0.3,0.4,0.4,0.4
					c0.1,0,0.4-0.3,0.4-0.4C483.5,447.2,483.3,447,483.1,446.6 M470.7,421.1c0.2-0.5,0.2-0.9-0.2-1.1c-0.1,0-0.4,0.1-0.4,0.2
					C469.9,420.7,470.2,420.9,470.7,421.1 M475.9,452.5c0.2-0.3,0.4-0.5,0.4-0.6c-0.1-0.2-0.3-0.4-0.5-0.6c-0.1,0.1-0.4,0.3-0.4,0.4
					C475.4,452,475.6,452.2,475.9,452.5 M478.9,406c0.2-0.4,0.4-0.5,0.4-0.7c0-0.1-0.2-0.3-0.3-0.4c-0.1,0.2-0.3,0.3-0.4,0.5
					C478.6,405.5,478.8,405.7,478.9,406 M441.9,414.1c-0.4,0.1-0.6,0.4-0.5,0.8c0,0.1,0.4,0.2,0.4,0.1
					C442.2,414.8,442.1,414.5,441.9,414.1 M494.4,431.5c0-0.2,0-0.3,0-0.5c-0.2-0.1-0.4-0.2-0.6-0.2c-0.1,0-0.4,0.3-0.3,0.4
					c0,0.2,0.2,0.4,0.3,0.5C494,431.8,494.2,431.6,494.4,431.5 M471,443.4c-0.3-0.2-0.4-0.4-0.6-0.4c-0.1,0-0.3,0.2-0.4,0.3
					c0.1,0.1,0.2,0.4,0.4,0.4C470.5,443.8,470.7,443.6,471,443.4"/>
				<path class="st27" d="M448.5,388.1c0.5-0.8,1.1-1.3,1.9-1.5c2.2-0.6,4.4-0.6,6.5,0.2c0.9,0.3,1.6,1,1.9,2c0.2,0.6,0,0.7-0.6,0.7
					c-1.4,0-2.8,0.1-4.1,0.2c-0.5,0-0.9,0-1.4-0.1c-1.2-0.3-2.4-0.7-3.5-1.1C449,388.3,448.8,388.2,448.5,388.1"/>
				<path class="st25" d="M465.2,430.8c-0.2,0.1-0.4,0.4-0.7,0.5c-0.5,0.1-1.1-0.7-1-1.4c0-0.2,0.3-0.6,0.5-0.6
					C464.6,429.2,465.3,430,465.2,430.8"/>
				<path class="st25" d="M485.5,441.4c-0.4-0.4-0.7-0.7-1-1.1c-0.2-0.4-0.1-0.8,0.3-1c0.4-0.2,0.8,0,1,0.4
					C486.2,440.3,486,440.8,485.5,441.4"/>
				<path class="st25" d="M476.1,433.7c-0.8,0-1.2-0.5-1.2-1.1c0-0.4,0.2-0.5,0.5-0.5c0.5,0,1.1,0.5,1.1,1
					C476.5,433.4,476.2,433.6,476.1,433.7"/>
				<path class="st25" d="M481.5,412.7c-0.1,0.1-0.4,0.4-0.6,0.4c-0.5,0-0.8-0.4-0.8-0.9c0-0.2,0.3-0.6,0.5-0.6
					C481,411.5,481.5,412,481.5,412.7"/>
				<path class="st25" d="M458.2,424.1c-0.3,0.4-0.6,0.8-0.8,0.8c-0.5,0-0.7-0.5-0.7-0.9c0.1-0.3,0.4-0.5,0.6-0.8
					C457.6,423.5,457.9,423.8,458.2,424.1"/>
				<path class="st25" d="M476.9,410.3c-0.4,0.3-0.7,0.7-1,0.7c-0.4,0.1-0.6-0.3-0.6-0.7c0-0.4,0.2-0.8,0.7-0.8
					C476.3,409.6,476.5,410,476.9,410.3"/>
				<path class="st25" d="M476.6,443.7c0.4-0.3,0.7-0.7,0.7-0.6c0.3,0.2,0.6,0.4,0.7,0.7c0,0.1-0.4,0.6-0.5,0.6
					C477.2,444.3,477,444,476.6,443.7"/>
				<path class="st25" d="M461.7,437.6c-0.4,0.3-0.7,0.7-0.9,0.6c-0.2,0-0.6-0.4-0.6-0.6c0-0.2,0.3-0.6,0.6-0.6
					C461,436.9,461.3,437.3,461.7,437.6"/>
				<path class="st25" d="M486.5,419.6c-0.4,0.3-0.6,0.6-0.9,0.6c-0.1,0-0.5-0.4-0.5-0.6c0-0.3,0.3-0.5,0.5-0.7
					C485.9,419.1,486.1,419.3,486.5,419.6"/>
				<path class="st25" d="M469.6,459.9c-0.3-0.4-0.6-0.6-0.6-0.8c0-0.2,0.3-0.4,0.5-0.7c0.2,0.2,0.5,0.3,0.5,0.5
					C470.1,459.3,469.9,459.5,469.6,459.9"/>
				<path class="st25" d="M486,433.5c-0.4,0.2-0.6,0.4-0.7,0.4c-0.3-0.1-0.5-0.4-0.8-0.6c0.1-0.2,0.4-0.5,0.4-0.5
					C485.3,432.9,485.6,433.2,486,433.5"/>
				<path class="st25" d="M466.3,449.3c-0.3,0.3-0.5,0.5-0.6,0.6c-0.2-0.2-0.5-0.5-0.5-0.7c0-0.1,0.3-0.4,0.4-0.6
					C465.8,448.8,466,449,466.3,449.3"/>
				<path class="st25" d="M459.1,401.8c-0.5-0.3-0.7-0.7-0.6-1.2c0-0.1,0.2-0.3,0.3-0.3c0.1,0,0.3,0.1,0.3,0.2
					C459.5,400.9,459.4,401.3,459.1,401.8"/>
				<path class="st25" d="M473,403.1c0.1,0.2,0.4,0.4,0.4,0.7c0,0.2-0.2,0.4-0.4,0.6c-0.2-0.2-0.5-0.4-0.5-0.7
					c0-0.2,0.2-0.4,0.3-0.6C472.8,403.1,472.9,403.1,473,403.1"/>
				<path class="st25" d="M480.2,415.8c-0.3,0.2-0.5,0.5-0.7,0.5c-0.2,0-0.5-0.3-0.5-0.5c0-0.2,0.3-0.5,0.5-0.6
					C479.7,415.2,479.9,415.6,480.2,415.8"/>
				<path class="st25" d="M459.5,462.5c0.3,0.3,0.5,0.5,0.5,0.7c-0.1,0.2-0.3,0.4-0.5,0.6c-0.2-0.2-0.4-0.3-0.4-0.5
					C459.1,463.1,459.3,462.9,459.5,462.5"/>
				<path class="st25" d="M459.6,431.7c0.3,0.4,0.5,0.6,0.5,0.8c0,0.2-0.3,0.5-0.4,0.5c-0.2,0-0.5-0.2-0.5-0.4
					C459.1,432.3,459.4,432.1,459.6,431.7"/>
				<path class="st25" d="M462.3,410.6c-0.3-0.4-0.5-0.5-0.5-0.8c0-0.1,0.2-0.3,0.4-0.5c0.2,0.2,0.4,0.4,0.5,0.6
					C462.7,410.1,462.5,410.3,462.3,410.6"/>
				<path class="st25" d="M483.1,446.6c0.2,0.3,0.4,0.5,0.4,0.7c0,0.2-0.3,0.4-0.4,0.4c-0.2,0-0.4-0.3-0.4-0.4
					C482.6,447.2,482.8,447,483.1,446.6"/>
				<path class="st25" d="M470.7,421.1c-0.5-0.2-0.8-0.4-0.6-1c0-0.1,0.3-0.2,0.4-0.2C470.9,420.3,470.8,420.7,470.7,421.1"/>
				<path class="st25" d="M475.9,452.5c-0.2-0.3-0.4-0.5-0.5-0.7c0-0.1,0.3-0.3,0.4-0.4c0.2,0.2,0.4,0.4,0.5,0.6
					C476.3,452.1,476.1,452.2,475.9,452.5"/>
				<path class="st25" d="M478.9,406c-0.2-0.3-0.3-0.5-0.3-0.6c0.1-0.2,0.3-0.3,0.4-0.5c0.1,0.1,0.3,0.3,0.3,0.4
					C479.3,405.5,479.1,405.7,478.9,406"/>
				<path class="st25" d="M494.4,431.5c-0.2,0.1-0.4,0.2-0.6,0.2c-0.2,0-0.3-0.3-0.3-0.5c0-0.1,0.2-0.4,0.3-0.4
					c0.2,0,0.4,0.1,0.6,0.2C494.4,431.2,494.4,431.4,494.4,431.5"/>
				<path class="st25" d="M471,443.4c-0.3,0.2-0.5,0.4-0.6,0.3c-0.1,0-0.2-0.3-0.4-0.4c0.1-0.1,0.3-0.3,0.4-0.3
					C470.5,443.1,470.7,443.3,471,443.4"/>
			</g>
		</g>
	</g>
	<text transform="matrix(1 0 0 1 466 441.1721)" class="st4 st5 st15">o</text>
</g>
<g id="U">
	<g>
		<g>
			<defs>
				<rect id="SVGID_25_" x="483" y="344.3" width="149" height="171.7"/>
			</defs>
			<clipPath id="SVGID_26_">
				<use xlink:href="#SVGID_25_"  style="overflow:visible;"/>
			</clipPath>
			<g class="st28">
				<defs>
					<rect id="SVGID_27_" x="557.5" y="344.3" width="74.5" height="166.5"/>
				</defs>
				<clipPath id="SVGID_28_">
					<use xlink:href="#SVGID_27_"  style="overflow:visible;"/>
				</clipPath>
				<path class="st29" d="M548.3,390.2c-0.6-1.2-0.5-1.8,0.4-2.8c0.8-0.8,1.7-1.3,2.8-1.6c2.5-0.6,5-0.5,7.3,0.5
					c2,0.9,2.9,2.5,2.8,4.7c1.4,0.5,2.8,0.9,4.2,1.4c1.8,0.6,3.5,1,5.3,1.7c6.5,2.5,12.3,6,17.1,11.2c4,4.3,7.4,9,10,14.3
					c4.3,8.6,4.5,17.3,0.9,26.2c-2.5,6-5.8,11.5-10.1,16.4c-5,5.6-11.1,9.2-18.3,11.1c-7.9,2.1-15.8,2.3-23.8,0.7
					c-7.5-1.5-14.3-4.5-20.2-9.2c-9.2-7.2-13.4-16.8-13.2-28.4c0.2-7.8,2.4-15,5.7-22c2.6-5.4,6-10.3,10.5-14.4
					c5-4.6,10.7-7.9,17.3-9.5c0.2-0.1,0.5-0.1,0.7-0.1C547.8,390.2,548,390.2,548.3,390.2 M556.2,473c5.4,0,9.9-0.5,14.4-1.8
					c5.4-1.5,10.2-4,14.3-7.8c5.9-5.5,10-12.2,12.9-19.7c2.7-7.1,2.7-14.2-0.4-21.3c-2.3-5.5-5.7-10.3-9.5-14.8
					c-5-5.8-11.4-9.5-18.5-12.2c-2.6-1-5.4-1.5-8.1-2c-4.3-0.8-8.6-1.2-13-0.6c-6.4,0.9-12,3.7-16.9,7.8c-1,0.8-1.8,1.7-2.7,2.6
					c-4,4.3-6.9,9.2-9.1,14.5c-3,7-4.7,14.3-4.2,22c0.3,5,1.6,9.7,4.1,14.1c3,5.2,7.3,9.2,12.5,12.3
					C539.6,470.8,548,472.9,556.2,473 M549.5,389.1c0.2,0.1,0.4,0.3,0.7,0.4c1.2,0.4,2.3,0.8,3.5,1.1c0.4,0.1,0.9,0.1,1.4,0.1
					c1.4,0,2.8-0.1,4.1-0.2c0.6,0,0.8-0.1,0.6-0.7c-0.3-1-1-1.6-1.9-2c-2.1-0.8-4.3-0.9-6.5-0.2C550.7,387.8,550,388.2,549.5,389.1"
					/>
				<path class="st30" d="M556.2,473c-8.2-0.1-16.6-2.2-24.3-6.9c-5.1-3.1-9.4-7.1-12.5-12.3c-2.5-4.3-3.8-9.1-4.1-14.1
					c-0.5-7.7,1.2-14.9,4.2-22c2.3-5.3,5.2-10.3,9.1-14.5c0.9-0.9,1.7-1.8,2.7-2.6c4.9-4.1,10.5-6.9,16.9-7.8
					c4.4-0.6,8.7-0.3,13,0.6c2.7,0.5,5.5,1,8.1,2c7,2.7,13.4,6.4,18.5,12.2c3.9,4.5,7.2,9.3,9.5,14.8c3,7,3,14.1,0.4,21.3
					c-2.8,7.5-7,14.2-12.9,19.7c-4.1,3.8-9,6.3-14.3,7.8C566.1,472.4,561.5,473,556.2,473 M542.1,403c0.1,0.6,0.1,1.1,0.3,1.5
					c0.1,0.2,0.4,0.4,0.7,0.6c0.2-0.2,0.4-0.5,0.5-0.7c0-0.4-0.1-0.9-0.2-1.3c-0.1-0.4-0.1-1.1-0.8-1.1
					C542.4,402,542.3,402.7,542.1,403 M566.2,431.8c0-0.8-0.6-1.6-1.2-1.5c-0.2,0-0.5,0.4-0.5,0.6c-0.1,0.7,0.5,1.4,1,1.4
					C565.8,432.2,566.1,431.9,566.2,431.8 M586.5,442.4c0.5-0.6,0.6-1.1,0.3-1.7c-0.2-0.4-0.5-0.6-1-0.4c-0.4,0.2-0.6,0.6-0.3,1
					C585.8,441.7,586.2,442,586.5,442.4 M557,433.4c-0.4-0.5-0.8-0.9-1.1-1.4c-0.2,0.3-0.5,0.7-0.6,1c-0.1,0.6,0.4,1.1,0.9,1
					C556.5,434.1,556.7,433.8,557,433.4 M537.8,448.9c-0.5-0.7-1.1-0.9-1.7-0.5c-0.5,0.3-0.5,0.7,0,1
					C536.7,449.7,537.3,449.5,537.8,448.9 M527.7,441.5c0-0.8-0.5-1.4-1-1.4c-0.5,0-0.6,0.3-0.6,0.7c0,0.6,0.5,1.2,0.9,1.1
					C527.3,441.9,527.6,441.6,527.7,441.5 M577.1,434.7c0.1-0.1,0.3-0.3,0.4-0.6c0.1-0.5-0.5-1-1.1-1c-0.4,0-0.5,0.1-0.5,0.5
					C575.9,434.2,576.4,434.7,577.1,434.7 M536.2,404.5c0.1-0.1,0.4-0.3,0.4-0.5c0.1-0.4-0.5-1-0.9-0.9c-0.2,0.1-0.6,0.4-0.6,0.6
					C535.1,404.2,535.5,404.4,536.2,404.5 M582.5,413.7c0-0.7-0.5-1.2-0.9-1.1c-0.2,0-0.5,0.4-0.5,0.6c0,0.5,0.3,0.9,0.8,0.9
					C582.1,414.1,582.4,413.8,582.5,413.7 M525.2,432.5c0.3-0.6,0.5-1.2-0.1-1.7c-0.1-0.1-0.5-0.2-0.7-0.2c-0.1,0-0.3,0.4-0.3,0.5
					C524.2,431.9,524.6,432.2,525.2,432.5 M559.2,425.1c-0.4-0.4-0.6-0.6-0.9-0.9c-0.2,0.3-0.5,0.5-0.6,0.8
					c-0.1,0.4,0.2,0.9,0.7,0.9C558.7,425.9,558.9,425.5,559.2,425.1 M577.9,411.3c-0.4-0.4-0.6-0.7-0.9-0.8
					c-0.5-0.1-0.6,0.3-0.7,0.8c0,0.4,0.2,0.8,0.6,0.7C577.2,412,577.5,411.7,577.9,411.3 M543.3,426.1c-0.4-0.4-0.7-0.7-0.9-1
					c-0.2,0.2-0.4,0.4-0.5,0.7c-0.1,0.5,0.4,1,0.8,0.9C542.8,426.7,543,426.4,543.3,426.1 M542.1,443.2c0.1-0.1,0.2-0.1,0.4-0.2
					c-0.1-0.4-0.1-0.9-0.3-1.2c-0.1-0.2-0.5-0.2-0.7-0.3c-0.1,0.3-0.3,0.6-0.2,0.8C541.4,442.6,541.8,442.9,542.1,443.2
					 M541.9,453.9c0-0.1,0-0.2,0-0.3c-0.3-0.2-0.6-0.4-0.9-0.4c-0.4-0.1-0.8,0.2-0.7,0.6c0.1,0.2,0.4,0.5,0.7,0.5
					C541.3,454.4,541.6,454.1,541.9,453.9 M528.5,437.4c0.1-0.1,0.3-0.2,0.3-0.4c0-0.5-0.2-0.9-0.7-0.9c-0.2,0-0.6,0.3-0.6,0.4
					C527.5,437,527.9,437.3,528.5,437.4 M530,432.3c-0.4-0.3-0.7-0.7-0.9-0.7c-0.2,0-0.6,0.4-0.6,0.6c0,0.2,0.3,0.6,0.6,0.6
					C529.3,432.9,529.6,432.6,530,432.3 M577.6,444.7c0.4,0.3,0.7,0.6,1,0.7c0.1,0,0.5-0.5,0.5-0.6c-0.2-0.3-0.4-0.5-0.7-0.7
					C578.2,444.1,577.9,444.4,577.6,444.7 M562.7,438.6c-0.4-0.3-0.7-0.6-0.9-0.6c-0.2,0-0.6,0.4-0.6,0.6c0,0.2,0.4,0.6,0.6,0.6
					C562.1,439.2,562.3,438.9,562.7,438.6 M538.1,456.3c-0.3,0.4-0.6,0.6-0.6,0.8c0,0.5,0.3,0.8,0.8,0.8c0.2,0,0.5-0.4,0.5-0.4
					C538.7,457,538.5,456.8,538.1,456.3 M556.2,447.8c-0.3-0.3-0.5-0.6-0.8-0.6c-0.1,0-0.5,0.4-0.5,0.5c0.2,0.3,0.5,0.5,0.7,0.8
					C555.7,448.3,555.9,448.1,556.2,447.8 M549.2,462.6c-0.4-0.3-0.7-0.6-0.9-0.8c-0.2,0.2-0.4,0.4-0.5,0.6
					c-0.1,0.4,0.2,0.8,0.6,0.8C548.6,463.2,548.8,462.9,549.2,462.6 M527.3,419.6c0.3-0.3,0.5-0.5,0.6-0.6c0-0.4-0.2-0.8-0.6-0.8
					c-0.2,0-0.5,0.3-0.5,0.5C526.8,419,527.1,419.2,527.3,419.6 M587.5,420.6c-0.4-0.3-0.6-0.5-0.8-0.7c-0.2,0.2-0.5,0.5-0.5,0.7
					c0,0.2,0.3,0.6,0.5,0.6C586.9,421.2,587.1,420.9,587.5,420.6 M547.1,411.7c-0.3,0.4-0.6,0.7-0.6,0.8c0.1,0.3,0.4,0.5,0.6,0.6
					c0.1,0,0.5-0.3,0.5-0.5C547.7,412.4,547.4,412.1,547.1,411.7 M526.7,449.5c0-0.1,0-0.2,0-0.2c-0.3-0.1-0.5-0.4-0.8-0.4
					c-0.2,0-0.4,0.3-0.7,0.5c0.2,0.2,0.4,0.5,0.6,0.5C526.2,449.9,526.5,449.7,526.7,449.5 M539.7,406.6c-0.3,0.4-0.6,0.7-0.5,0.7
					c0.1,0.3,0.4,0.5,0.6,0.6c0.1,0,0.5-0.3,0.5-0.3C540.2,407.4,540,407.1,539.7,406.6 M570.6,460.9c0.2-0.4,0.5-0.7,0.5-0.9
					c0-0.2-0.3-0.4-0.5-0.5c-0.2,0.2-0.5,0.4-0.5,0.7C570,460.3,570.3,460.6,570.6,460.9 M550,454.3c-0.3-0.5-0.7-0.9-1.3-0.6
					c-0.1,0-0.3,0.4-0.2,0.5C548.9,454.7,549.4,454.5,550,454.3 M587,434.5c-0.5-0.3-0.7-0.5-1-0.7c-0.1,0-0.3,0.3-0.4,0.5
					c0.3,0.2,0.5,0.4,0.8,0.6C586.5,434.9,586.7,434.7,587,434.5 M567.3,450.3c-0.3-0.3-0.5-0.5-0.8-0.7c-0.1,0.2-0.5,0.4-0.4,0.6
					c0.1,0.3,0.4,0.5,0.5,0.7C566.9,450.8,567,450.6,567.3,450.3 M533.8,436.4c-0.2-0.6-0.5-1-1.1-0.8c-0.1,0-0.3,0.4-0.2,0.5
					C532.8,436.8,533.3,436.6,533.8,436.4 M560.1,402.8c0.3-0.4,0.4-0.9,0.1-1.3c-0.1-0.1-0.3-0.3-0.3-0.2c-0.1,0-0.3,0.2-0.3,0.3
					C559.4,402.1,559.6,402.5,560.1,402.8 M574,404.1c-0.1,0-0.2,0-0.2,0c-0.1,0.2-0.4,0.5-0.3,0.6c0.1,0.3,0.3,0.5,0.5,0.7
					c0.1-0.2,0.4-0.4,0.4-0.6C574.3,404.6,574.1,404.3,574,404.1 M535.3,415c-0.3-0.2-0.5-0.5-0.7-0.5c-0.1,0-0.5,0.4-0.4,0.5
					c0.1,0.3,0.3,0.4,0.5,0.7C534.9,415.5,535,415.3,535.3,415 M581.2,416.8c-0.3-0.3-0.6-0.6-0.7-0.6c-0.2,0.1-0.5,0.3-0.5,0.6
					c0,0.1,0.3,0.5,0.5,0.5C580.7,417.3,580.9,417.1,581.2,416.8 M531.6,439.1c-0.2,0.4-0.5,0.6-0.4,0.8c0,0.2,0.3,0.4,0.5,0.5
					c0.2-0.2,0.4-0.4,0.5-0.6C532.1,439.6,531.9,439.4,531.6,439.1 M560.5,463.5c-0.2,0.4-0.4,0.6-0.4,0.8c0,0.2,0.3,0.3,0.4,0.5
					c0.2-0.2,0.4-0.4,0.5-0.6C561,464.1,560.7,463.8,560.5,463.5 M560.6,432.7c-0.2,0.4-0.5,0.6-0.4,0.8c0,0.2,0.3,0.4,0.5,0.4
					c0.1,0,0.4-0.3,0.4-0.5C561.1,433.3,560.8,433.1,560.6,432.7 M550.9,406.7c0.2-0.3,0.5-0.5,0.5-0.7c0-0.2-0.3-0.4-0.5-0.4
					c-0.2,0-0.5,0.3-0.5,0.5C550.3,406.1,550.6,406.3,550.9,406.7 M563.3,411.6c0.2-0.4,0.4-0.6,0.3-0.7c-0.1-0.2-0.3-0.4-0.5-0.6
					c-0.1,0.2-0.4,0.4-0.4,0.5C562.8,411.1,563,411.3,563.3,411.6 M584.1,447.6c-0.2,0.3-0.5,0.5-0.5,0.7c0,0.2,0.3,0.4,0.4,0.4
					c0.1,0,0.4-0.3,0.4-0.4C584.5,448.2,584.3,448,584.1,447.6 M571.7,422.1c0.2-0.5,0.2-0.9-0.2-1.1c-0.1,0-0.4,0.1-0.4,0.2
					C570.9,421.7,571.2,421.9,571.7,422.1 M576.9,453.5c0.2-0.3,0.4-0.5,0.4-0.6c-0.1-0.2-0.3-0.4-0.5-0.6c-0.1,0.1-0.4,0.3-0.4,0.4
					C576.4,453,576.6,453.2,576.9,453.5 M579.9,407c0.2-0.4,0.4-0.5,0.4-0.7c0-0.1-0.2-0.3-0.3-0.4c-0.1,0.2-0.3,0.3-0.4,0.5
					C579.6,406.5,579.8,406.7,579.9,407 M542.9,415.1c-0.4,0.1-0.6,0.4-0.5,0.8c0,0.1,0.4,0.2,0.4,0.1
					C543.2,415.8,543.1,415.5,542.9,415.1 M595.4,432.5c0-0.2,0-0.3,0-0.5c-0.2-0.1-0.4-0.2-0.6-0.2c-0.1,0-0.4,0.3-0.3,0.4
					c0,0.2,0.2,0.4,0.3,0.5C595,432.8,595.2,432.6,595.4,432.5 M572,444.4c-0.3-0.2-0.4-0.4-0.6-0.4c-0.1,0-0.3,0.2-0.4,0.3
					c0.1,0.1,0.2,0.4,0.4,0.4C571.5,444.8,571.7,444.6,572,444.4"/>
				<path class="st31" d="M549.5,389.1c0.5-0.8,1.1-1.3,1.9-1.5c2.2-0.6,4.4-0.6,6.5,0.2c0.9,0.3,1.6,1,1.9,2c0.2,0.6,0,0.7-0.6,0.7
					c-1.4,0-2.8,0.1-4.1,0.2c-0.5,0-0.9,0-1.4-0.1c-1.2-0.3-2.4-0.7-3.5-1.1C550,389.3,549.8,389.2,549.5,389.1"/>
				<path class="st29" d="M566.2,431.8c-0.2,0.1-0.4,0.4-0.7,0.5c-0.5,0.1-1.1-0.7-1-1.4c0-0.2,0.3-0.6,0.5-0.6
					C565.6,430.2,566.3,431,566.2,431.8"/>
				<path class="st29" d="M586.5,442.4c-0.4-0.4-0.7-0.7-1-1.1c-0.2-0.4-0.1-0.8,0.3-1c0.4-0.2,0.8,0,1,0.4
					C587.2,441.3,587,441.8,586.5,442.4"/>
				<path class="st29" d="M577.1,434.7c-0.8,0-1.2-0.5-1.2-1.1c0-0.4,0.2-0.5,0.5-0.5c0.5,0,1.1,0.5,1.1,1
					C577.5,434.4,577.2,434.6,577.1,434.7"/>
				<path class="st29" d="M582.5,413.7c-0.1,0.1-0.4,0.4-0.6,0.4c-0.5,0-0.8-0.4-0.8-0.9c0-0.2,0.3-0.6,0.5-0.6
					C582,412.5,582.5,413,582.5,413.7"/>
				<path class="st29" d="M559.2,425.1c-0.3,0.4-0.6,0.8-0.8,0.8c-0.5,0-0.7-0.5-0.7-0.9c0.1-0.3,0.4-0.5,0.6-0.8
					C558.6,424.5,558.9,424.8,559.2,425.1"/>
				<path class="st29" d="M577.9,411.3c-0.4,0.3-0.7,0.7-1,0.7c-0.4,0.1-0.6-0.3-0.6-0.7c0-0.4,0.2-0.8,0.7-0.8
					C577.3,410.6,577.5,411,577.9,411.3"/>
				<path class="st29" d="M577.6,444.7c0.4-0.3,0.7-0.7,0.7-0.6c0.3,0.2,0.6,0.4,0.7,0.7c0.1,0.1-0.4,0.6-0.5,0.6
					C578.2,445.3,578,445,577.6,444.7"/>
				<path class="st29" d="M562.7,438.6c-0.4,0.3-0.7,0.7-0.9,0.6c-0.2,0-0.6-0.4-0.6-0.6c0-0.2,0.3-0.6,0.6-0.6
					C562,437.9,562.3,438.3,562.7,438.6"/>
				<path class="st29" d="M587.5,420.6c-0.4,0.3-0.6,0.6-0.9,0.6c-0.1,0-0.5-0.4-0.5-0.6c0-0.3,0.3-0.5,0.5-0.7
					C586.9,420.1,587.1,420.3,587.5,420.6"/>
				<path class="st29" d="M570.6,460.9c-0.3-0.4-0.6-0.6-0.6-0.8c0-0.2,0.3-0.4,0.5-0.7c0.2,0.2,0.5,0.3,0.5,0.5
					C571.1,460.3,570.9,460.5,570.6,460.9"/>
				<path class="st29" d="M587,434.5c-0.4,0.2-0.6,0.4-0.7,0.4c-0.3-0.1-0.5-0.4-0.8-0.6c0.1-0.2,0.4-0.5,0.4-0.5
					C586.3,433.9,586.6,434.2,587,434.5"/>
				<path class="st29" d="M567.3,450.3c-0.3,0.3-0.5,0.5-0.6,0.6c-0.2-0.2-0.5-0.5-0.5-0.7c0-0.1,0.3-0.4,0.4-0.6
					C566.8,449.8,567,450,567.3,450.3"/>
				<path class="st29" d="M560.1,402.8c-0.5-0.3-0.7-0.7-0.6-1.2c0-0.1,0.2-0.3,0.3-0.3c0.1,0,0.3,0.1,0.3,0.2
					C560.5,401.9,560.4,402.3,560.1,402.8"/>
				<path class="st29" d="M574,404.1c0.1,0.2,0.4,0.4,0.4,0.7c0,0.2-0.2,0.4-0.4,0.6c-0.2-0.2-0.5-0.4-0.5-0.7
					c0-0.2,0.2-0.4,0.3-0.6C573.8,404.1,573.9,404.1,574,404.1"/>
				<path class="st29" d="M581.2,416.8c-0.3,0.2-0.5,0.5-0.7,0.5c-0.2,0-0.5-0.3-0.5-0.5c0-0.2,0.3-0.5,0.5-0.6
					C580.7,416.2,580.9,416.6,581.2,416.8"/>
				<path class="st29" d="M560.5,463.5c0.3,0.3,0.5,0.5,0.5,0.7c-0.1,0.2-0.3,0.4-0.5,0.6c-0.2-0.2-0.4-0.3-0.4-0.5
					C560.1,464.1,560.3,463.9,560.5,463.5"/>
				<path class="st29" d="M560.6,432.7c0.3,0.4,0.5,0.6,0.5,0.8c0,0.2-0.3,0.5-0.4,0.5c-0.2,0-0.5-0.2-0.5-0.4
					C560.1,433.3,560.4,433.1,560.6,432.7"/>
				<path class="st29" d="M563.3,411.6c-0.3-0.4-0.5-0.5-0.5-0.8c0-0.1,0.2-0.3,0.4-0.5c0.2,0.2,0.4,0.4,0.5,0.6
					C563.7,411.1,563.5,411.3,563.3,411.6"/>
				<path class="st29" d="M584.1,447.6c0.2,0.3,0.4,0.5,0.4,0.7c0,0.2-0.3,0.4-0.4,0.4c-0.2,0-0.4-0.3-0.4-0.4
					C583.6,448.2,583.8,448,584.1,447.6"/>
				<path class="st29" d="M571.7,422.1c-0.5-0.2-0.8-0.4-0.6-1c0-0.1,0.3-0.2,0.4-0.2C571.9,421.3,571.8,421.7,571.7,422.1"/>
				<path class="st29" d="M576.9,453.5c-0.2-0.3-0.4-0.5-0.5-0.7c0-0.1,0.3-0.3,0.4-0.4c0.2,0.2,0.4,0.4,0.5,0.6
					C577.3,453.1,577.1,453.2,576.9,453.5"/>
				<path class="st29" d="M579.9,407c-0.2-0.3-0.3-0.5-0.3-0.6c0.1-0.2,0.3-0.3,0.4-0.5c0.1,0.1,0.3,0.3,0.3,0.4
					C580.3,406.5,580.1,406.7,579.9,407"/>
				<path class="st29" d="M595.4,432.5c-0.2,0.1-0.4,0.2-0.6,0.2c-0.2,0-0.3-0.3-0.3-0.5c0-0.1,0.2-0.4,0.3-0.4
					c0.2,0,0.4,0.1,0.6,0.2C595.4,432.2,595.4,432.4,595.4,432.5"/>
				<path class="st29" d="M572,444.4c-0.3,0.2-0.5,0.4-0.6,0.3c-0.1,0-0.2-0.3-0.4-0.4c0.1-0.1,0.3-0.3,0.4-0.3
					C571.5,444.1,571.7,444.3,572,444.4"/>
			</g>
		</g>
	</g>
	<text transform="matrix(1 0 0 1 568 441.1721)" class="st4 st5 st15">u</text>
</g>
</svg>
