<?xml version="1.0" encoding="utf-8"?>
<!-- Generator: Adobe Illustrator 22.1.0, SVG Export Plug-In . SVG Version: 6.00 Build 0)  -->
<svg version="1.1" xmlns="http://www.w3.org/2000/svg" xmlns:xlink="http://www.w3.org/1999/xlink" x="0px" y="0px"
	 viewBox="0 0 690 500" style="enable-background:new 0 0 690 500;" xml:space="preserve">
<style type="text/css">
	.st0{fill:#FFFFFF;stroke:#000000;stroke-miterlimit:10;}
	.st1{fill:#DB394A;stroke:#000000;stroke-miterlimit:10;}
	.st2{fill:#C8102B;stroke:#000000;stroke-miterlimit:10;}
	.st3{clip-path:url(#SVGID_2_);}
	.st4{clip-path:url(#SVGID_4_);}
	.st5{clip-path:url(#SVGID_4_);fill:#FEAB41;}
	.st6{clip-path:url(#SVGID_4_);fill:#FABA62;}
	.st7{clip-path:url(#SVGID_4_);fill:#F88F10;}
	.st8{clip-path:url(#SVGID_4_);fill:#B4328A;}
	.st9{clip-path:url(#SVGID_4_);fill:#FAD9B6;}
	.st10{clip-path:url(#SVGID_4_);fill:#BABABA;}
	.st11{clip-path:url(#SVGID_4_);fill:#020003;}
	.st12{clip-path:url(#SVGID_6_);}
	.st13{clip-path:url(#SVGID_8_);}
	.st14{clip-path:url(#SVGID_8_);fill:#5D3535;}
	.st15{clip-path:url(#SVGID_8_);fill:#E4A16C;}
	.st16{clip-path:url(#SVGID_8_);fill:#965454;}
	.st17{clip-path:url(#SVGID_8_);fill:#04101B;}
	.st18{clip-path:url(#SVGID_8_);fill:#FFFFFF;}
	.st19{clip-path:url(#SVGID_8_);fill:#B7B7B7;}
	.st20{clip-path:url(#SVGID_8_);fill:#450B0B;}
	.st21{clip-path:url(#SVGID_8_);fill:#EFD0D0;}
	.st22{clip-path:url(#SVGID_8_);fill:#63180F;}
	.st23{clip-path:url(#SVGID_8_);fill:#BB4835;}
	* { transition: all .3s}
</style>
<g id="Слой_5">
	<g>
		<g>
			<defs>
				<rect id="SVGID_5_" x="7" y="70.8" width="294.1" height="409.2"/>
			</defs>
			<clipPath id="SVGID_6_">
				<use xlink:href="#SVGID_5_"  style="overflow:visible;"/>
			</clipPath>
			<g class="st12">
				<defs>
					<rect id="SVGID_7_" x="7" y="70.8" width="294.1" height="409.2"/>
				</defs>
				<clipPath id="SVGID_8_">
					<use xlink:href="#SVGID_7_"  style="overflow:visible;"/>
				</clipPath>
				<path class="st13" d="M175,444.7c-1.2-0.4-2.2-0.8-3.3-1.2c-0.8-0.3-1.6-0.6-2.4-1c-0.6-0.3-0.6-0.5-0.3-1.1
					c0.5-0.8,0.9-1.7,1.3-2.6c0.1-0.2,0.1-0.4,0.1-0.6c-0.1-2.8-0.2-5.7-0.3-8.5c-0.1-2.3-0.2-4.6-0.3-6.9c-0.2-3-0.5-6.1-0.7-9.1
					c-0.2-2.3-0.4-4.6-0.7-6.8c-0.3-3-0.7-6-1.1-9c-0.5-3.4-1-6.8-1.6-10.2c-0.6-3.4-1.3-6.7-2-10.1c-0.3-1.5-0.6-2.9-0.9-4.4
					c-0.1-0.4,0-0.9,0-1.4c0.1-0.7,0.1-0.8-0.6-1c-1-0.3-1.3-0.9-0.8-1.8c0.4-0.8,0.8-1.5,1.2-2.3c0.3-0.6,0.3-0.9-0.5-0.9
					c-0.2,0-0.4-0.1-0.6-0.1c-0.6-0.2-0.9-0.5-0.9-1.2c0-1.2,0.1-2.3,0.1-3.5c0-4.2,0-8.3-0.2-12.5c-0.1-4.6-0.4-9.1-0.6-13.7
					c-0.1-2.9-0.2-5.9-0.4-8.8c-0.2-3.7-0.4-7.4-0.6-11.1c-0.2-3.1-0.3-6.2-0.5-9.3c-0.2-3.5-0.4-7.1-0.6-10.6c0-0.8,0-1.5-0.1-2.3
					c0-0.2-0.2-0.4-0.3-0.5c-0.4-0.3-0.9-0.5-1.4-0.8c-0.1,0.5-0.1,0.9-0.2,1.3c-0.6,5.3-1.6,10.5-2.6,15.7c-1,4.8-2.1,9.6-3.1,14.5
					c-1,5-1.9,9.9-2.8,14.9c-0.2,1.3-0.5,2.7-0.7,4c-0.1,0.4,0,0.6,0.4,0.8c0.4,0.2,0.8,0.4,1.2,0.7c0.7,0.4,0.8,1,0.4,1.7
					c-0.3,0.5-0.7,1-1,1.5c-0.3,0.5-0.6,1-0.2,1.6c0.1,0.1,0.1,0.3,0.1,0.5c0.2,1.8,0.4,3.7,0.6,5.5c0.3,2.6,0.6,5.3,0.9,7.9
					c0.5,4.4,1,8.8,1.5,13.2c0.6,5.1,1.2,10.1,1.7,15.2c0.5,4.3,1,8.6,1.4,12.8c0.4,3.4,0.7,6.8,1,10.3c0.3,3.4,0.6,6.9,0.8,10.3
					c0.2,3.5,0.4,7,0.6,10.5c0,0.5,0.1,0.9,0.1,1.4c0,0.9-0.1,1.1-0.9,1.4c-2.3,1-4.7,2-7.2,2.5c-0.4,0.1-0.4,0.3-0.4,0.6
					c0.1,2.4,0.1,4.8,0.2,7.2c0,1.8-0.4,3.4-0.8,5.1c0,0.2-0.1,0.4-0.1,0.6c-0.1,1-0.6,1.7-1.5,2c-0.6,0.3-1.2,0.5-1.8,0.6
					c-1.1,0.2-2.3,0.4-3.4,0.4c-0.7,0-1.5-0.2-2.2-0.4c-0.5-0.1-0.8-0.6-0.9-1.1c0-0.2,0-0.5,0-0.7c-0.1-1.1-0.8-1.8-1.9-1.4
					c-1.7,0.6-3.4,1.2-5,1.9c-4.2,2-8.6,3.2-13.2,3.9c-1.8,0.3-3.7,0.6-5.5,0.8c-4.1,0.3-8-0.4-11.5-2.5c-0.4-0.2-0.8-0.5-1.1-0.9
					c-0.8-0.8-0.8-1.6-0.1-2.5c0.7-1,1.7-1.6,2.8-2c2.9-1.1,5.9-2.2,8.8-3.3c3.3-1.2,6.5-2.7,9.3-4.7c0.2-0.1,0.4-0.3,0.6-0.4
					c-1.4-1.8-1.4-2.1,0.5-3.1c-0.5-0.8-0.9-1.7-0.9-2.7c0-0.2-0.2-0.4-0.4-0.5c-1-0.5-1-0.6-0.7-1.7c0.6-2.1,1.1-4.1,1.6-6.2
					c0.1-0.3-0.1-0.8-0.3-1.1c-0.4-0.5-1-1-1.5-1.5c-0.7-0.7-0.7-1.3,0.1-1.8c0.5-0.3,1-0.6,1.5-0.9c0.7-0.4,1.1-1,1.1-1.8
					c0-1,0-2.1,0.1-3.1c0.2-4.5,0.5-8.9,0.6-13.4c0.1-4,0-8,0-12c0-2.9-0.1-5.7-0.3-8.6c-0.2-3.8-0.4-7.6-0.6-11.4
					c-0.2-3-0.4-6-0.7-9c-0.4-3.9-0.9-7.9-1.4-11.8c-0.3-2.2-0.8-4.4-1.2-6.5c-0.2-0.9-0.5-1.7-0.8-2.6c-0.1-0.3-0.1-0.6-0.1-0.9
					c0.4-3.6,0.9-7.2,1.3-10.8c0.4-3.4,0.7-6.8,1-10.2c0.4-4.8,0.7-9.7,1.1-14.5c0.3-4.1,0.6-8.1,1-12.2c0.1-1.2,0.2-2.3,0.3-3.6
					c-0.7,0.2-1.4,0.3-2,0.4c-0.8,0.1-1.6,0.3-2.4,0.4c-1,0.1-1.4-0.3-1.1-1.3c0.8-3.3,1.7-6.6,2.5-9.8c1.7-6.7,3.3-13.3,5-20
					c0.1-0.2,0-0.5-0.1-0.7c-1.5-2.4-3-4.8-4.5-7.1c-1.4-2.1-2.9-4.2-4.3-6.3c-1-1.5-2.1-3.1-3.1-4.6c-0.2-0.2-0.3-0.5-0.6-0.7
					c-0.7-0.7-0.8-1.5-0.7-2.4c0.6-4.1,1.3-8.2,1.8-12.3c0.5-3.8,1-7.6,1.4-11.3c0.3-3,0.5-6,0.8-9c0.3-3.3,0.6-6.6,0.8-10
					c0.2-2.3,0.3-4.6,0.5-6.9c0.1-2.1,0.2-4.2,0.5-6.3c0.5-4.2,1.1-8.4,1.6-12.6c0.1-1.1,0.3-2.2,0.7-3.2c0.5-1.3,1.5-2.4,3-2.6
					c1.1-0.2,2.2-0.3,3.3-0.4c0.7-0.1,1.4-0.2,2.1-0.3c0.1,0,0.2-0.1,0.3-0.1c1.4-1.5,3.2-2.3,5-3.1c2.3-1,4.7-1.5,7.1-1.9
					c1.1-0.2,2.1-0.5,3.2-0.7c0.1,0,0.3-0.1,0.4-0.2c1-1.1,2.1-2.3,3.1-3.4c0.1-0.1,0.2-0.3,0.4-0.5c-4.2-0.2-7.1-2.5-9.8-5.2
					c-3-3.1-3.3-8.2-0.9-11.5c0.3-0.5,0.7-0.9,1.1-1.4c0.3-0.3,0.3-0.5,0.2-0.9c-0.2-0.9-0.4-1.8-0.5-2.7c-0.1-0.6-0.7-0.6-1-0.9
					c-0.5-0.4-1.1-0.6-1.6-1c-1.5-1.1-2.6-2.5-3.1-4.3c-0.8-2.5-1.2-5-0.5-7.6c0.2-0.6,0.6-1.1,0.9-1.7c0.1-0.3,0.1-0.7,0.1-1
					c-0.1-0.5-0.3-1-0.3-1.6c0-3-0.1-6,0.1-9c0.4-5.9,2.2-11.4,6.6-15.7c2.2-2.1,4.8-3.5,7.6-4.7c2.2-0.9,4.5-1.7,6.9-2
					c1.2-0.1,2.4,0,3.6-0.1c2.7,0,5.4-0.1,8.1-0.1c2.6,0,5.1,0.6,7.5,1.7c3.5,1.7,6.6,3.9,9.4,6.6c2.8,2.8,4.6,6.2,5.4,10.1
					c0.6,2.9,1,5.8,1.1,8.7c0.1,1.6,0.1,3.3,0.2,4.9c0,0.1,0.1,0.3,0.2,0.4c1.3,0.8,1.8,2.1,1.9,3.5c0.1,2.1-0.4,4.1-1.4,5.9
					c-0.4,0.7-0.8,1.4-1.1,2.1c-0.7,1.6-1.6,2.9-2.8,4.1c-0.1,0.1-0.2,0.4-0.2,0.6c-0.3,1.1-0.5,2.3-0.8,3.4c0,0.2,0,0.4,0,0.5
					c0.9,1.2,1.4,2.6,1.6,4c0.4,2,0.4,4,0,6c-0.7,3.2-2.6,5.5-5.6,6.7c-1.3,0.5-2.7,0.8-4,1.2c-0.4,0.1-0.8,0.1-1.2,0.1
					c0.2,0.3,0.4,0.5,0.5,0.7c1,1.3,1.9,2.6,3.2,3.7c0.2,0.1,0.4,0.2,0.6,0.2c2.5,0.6,5.1,1.3,7.6,1.9c1.6,0.4,3.1,0.9,4.4,1.9
					c0.6,0.4,1.1,1,1.5,1.6c0.4,0.6,0.9,0.9,1.6,0.8c2.1-0.1,4,0.6,5.8,1.5c1,0.5,1.5,1.4,1.8,2.6c0.3,1.4,0.3,2.9,0.5,4.3
					c0.2,1.8,0,3.6,0.1,5.4c0.1,3.8,0.2,7.7,0.5,11.5c0.2,3.6,0.7,7.1,1.1,10.6c0.5,4.1,1,8.2,1.5,12.4c0.4,3.1,1,6.1,1.5,9.1
					c0.8,4.4,1.6,8.8,2.4,13.1c0.3,1.7,0.7,3.3,0.9,5c0.1,0.6-0.1,1.2-0.4,1.7c-0.6,1.1-1.4,2.1-2.2,3.1c-3.8,4.7-7.7,9.5-11.6,14.2
					c-0.4,0.5-0.6,0.9-0.5,1.6c0.6,5.6,1.1,11.2,1.9,16.8c0.5,3.5,1.3,7,1.9,10.6c0.2,0.9,0.4,1.7,0.6,2.5c0.2,0.8-0.1,1.2-0.9,1.1
					c-0.9-0.1-1.8-0.4-2.7-0.6c-0.3-0.1-0.6-0.1-1-0.2c0,0.2-0.1,0.4-0.1,0.5c-0.3,6.3-0.5,12.5-0.8,18.8c-0.2,4.8-0.4,9.7-0.6,14.5
					c-0.2,4.4-0.6,8.9-0.9,13.3c-0.3,3.8-0.6,7.6-0.9,11.5c-0.3,2.9,0.5,5.6,1,8.4c1,4.7,1.9,9.5,2.7,14.2c0.8,4.2,1.5,8.4,2.2,12.7
					c0.6,3.9,1.2,7.8,1.7,11.7c0.4,3.5,0.8,6.9,1.1,10.4c0.3,3,0.5,6,0.8,9c0.3,3.2,0.6,6.4,0.9,9.5c0.2,2.7,0.4,5.3,0.7,8
					c0.2,2.1,0.4,4.2,0.7,6.2c0.1,0.5,0.2,1,0.3,1.5c0.1,0.3,0,0.7-0.3,0.8c-1.4,0.5-2.9,1.1-4.3,1.5c-0.9,0.3-1.9,0.5-2.9,0.8
					c0.2,0.7,0.4,1.5,0.6,2.2c0.6,2.3,1.4,4.6,1.9,6.9c0.4,1.9,0.5,3.9,0.7,5.8c0.1,0.8,0,1.6,0,2.3c0,2.3-0.9,3.6-3.1,4.3
					c-3.1,1-6.2,1.7-9.4,2.2c-2.7,0.4-5.5,0.7-8.2,0.8c-1.9,0.1-3.8-0.2-5.6-0.3c-2-0.1-3.8-0.8-5.6-1.6c-1-0.5-1.7-1.2-2.2-2.1
					c-0.3-0.6-0.3-1.2,0-1.7c0.5-0.9,1.1-1.7,1.7-2.5c1.7-2.4,3.1-4.9,4.5-7.5c0.7-1.2,1.4-2.4,2-3.7
					C173.9,447.5,174.4,446.1,175,444.7 M193.7,290.1c-1.6-0.2-3.2-0.5-4.8-0.6c-3.1-0.3-6.1-0.6-9.2-0.9c-4.1-0.4-8.1-1.2-12-2.4
					c-0.6-0.2-1.1-0.3-1.6-0.5c-0.4,1.1-0.7,2.2-1,3.3c-0.3,0.9-0.8,1.6-1.9,1.4c0.2,0.9,0.1,1.8-0.7,2.2c-1,0.5-1.8-0.1-2.5-0.7
					c-0.3,0.2-0.6,0.4-0.7,0.5c0.3,5.1,0.6,10.1,0.8,15.1c0.2,2.9,0.3,5.9,0.5,8.8c0.2,4.3,0.4,8.5,0.6,12.8
					c0.1,2.8,0.2,5.5,0.3,8.3c0.2,3.9,0.3,7.8,0.5,11.8c0.1,1.9,0.1,3.8,0.1,5.8c0,2.7,0,5.5-0.1,8.2c0,0.4-0.2,0.8,0,1.1
					c0.2,0.2,0.7,0.3,1,0.4c0.9,0.3,1.3,0.9,1,1.8c-0.2,0.5-0.5,1.1-0.8,1.6c-0.2,0.5-0.5,1-0.8,1.5c0.2,0.1,0.3,0.1,0.4,0.1
					c1,0.3,1.4,0.8,1.3,1.9c0,0.4-0.1,0.9-0.1,1.3c0.1,1,0.3,2,0.5,3c1.1,3.9,1.8,7.8,2.4,11.7c0.6,3.4,1.1,6.8,1.6,10.2
					c0.4,3,0.8,6,1.1,9c0.3,2.3,0.5,4.6,0.7,6.9c0.3,3.1,0.5,6.2,0.7,9.3c0.1,2.1,0.2,4.1,0.3,6.2c0.1,2.8,0.2,5.5,0.3,8.3
					c0.1,1.2-0.2,2.2-0.8,3.1c-0.2,0.3-0.3,0.7-0.6,1.1c1.8,0.7,3.5,1.3,5.3,1.9c0.2-2.3,2.3-2.7,4.3-1c1.2-1.8,2.5-2.1,4.1-0.9
					c0.8-1,1.8-1.4,3-0.9c1.4,0.6,1.7,1.8,1.4,3.2c0.3,0,0.5,0,0.7-0.1c3.1-0.7,6.2-1.4,9.2-2.1c1.1-0.3,2.2-0.7,3.3-1.1
					c0.2-0.1,0.3-0.3,0.4-0.4c0-0.3,0-0.7,0-1c-0.2-2.1-0.5-4.1-0.6-6.2c-0.2-2.7-0.4-5.4-0.7-8.1c-0.4-4.2-0.8-8.5-1.2-12.7
					c-0.4-3.9-0.6-7.8-1.1-11.7c-0.5-4.4-1.1-8.9-1.8-13.3c-0.8-5-1.6-10.1-2.5-15.1c-1-5.6-2.1-11.2-3.3-16.7c-0.4-2-0.7-4-0.6-6
					c0.3-4,0.6-8.1,0.9-12.1c0.3-3.8,0.6-7.6,0.8-11.5c0.2-3.6,0.4-7.3,0.5-10.9c0.2-5,0.4-10,0.6-15.1c0.1-1.6,0.2-3.2,0.3-4.8
					C193.5,293.4,193.6,291.8,193.7,290.1 M128.1,437.5c0.2,0,0.4,0,0.6,0c1.3,0,1.8,0.4,2.3,1.6c0,0.1,0.2,0.2,0.3,0.2
					c1,0.1,2.1,0.3,3.1,0.4c4,0.4,8-0.1,12-0.8c2.8-0.6,5.5-1.5,8.1-2.7c0.5-0.2,0.6-0.5,0.6-1c-0.1-2.3-0.2-4.7-0.4-7
					c-0.1-2.4-0.3-4.8-0.4-7.2c-0.2-3.3-0.5-6.6-0.8-9.9c-0.2-2.6-0.5-5.2-0.8-7.8c-0.4-3.4-0.7-6.7-1.1-10
					c-0.4-3.3-0.7-6.5-1.1-9.8c-0.4-3.5-0.8-7.1-1.2-10.6c-0.3-3.1-0.7-6.2-1-9.3c-0.4-3.2-0.7-6.4-1.1-9.6c-0.3-2-0.4-4.1-0.9-6.1
					c0-0.2-0.1-0.4,0-0.5c0.2-0.6,0.4-1.2,0.7-1.7c0.3-0.5,0.6-0.9,1-1.4c-0.5-0.2-0.8-0.5-1.2-0.6c-1-0.5-1.2-0.9-1-2
					c0.3-1.5,0.5-3,0.8-4.4c0.9-4.9,1.8-9.9,2.8-14.8c0.9-4.3,1.9-8.5,2.8-12.8c0.9-4.6,1.7-9.3,2.5-13.9c0.3-1.4,0.5-2.9,0.8-4.3
					c-0.6,0.5-1.2,0.4-1.9,0.1c-3.3-1.4-6.4-3.1-9.1-5.4c-0.2-0.2-0.5-0.2-0.8-0.2c-1.5,0.4-1.2,0-1.2,1.4c0,0.7,0,1.4,0,2.1
					c0,0.7,0,1.4,0,2c0,0,0,0-0.1,0c-0.1-1.7-0.1-3.4-0.2-5.2c-0.2,0-0.3,0.1-0.5,0.1c-0.8,0.2-1.5,0.4-2.3,0.6
					c-3.5,0.8-7.1,1.7-10.6,2.5c-0.2,0.1-0.5,0.1-0.5,0.4c0,0.7-0.1,1.4-0.1,2.1c-0.2,3.3-0.4,6.6-0.6,9.9
					c-0.2,3.9-0.5,7.7-0.7,11.6c-0.2,2.9-0.4,5.9-0.6,8.8c-0.3,3.9-0.5,7.9-0.8,11.8c-0.2,3.2-0.5,6.3-0.7,9.5c-0.1,1.5-0.2,3,0,4.5
					c0.2,2.2,0.6,4.3,0.9,6.4c0.5,3.2,0.9,6.5,1.3,9.7c0.4,3,0.8,6.1,1.1,9.1c0.4,3.7,0.7,7.3,0.9,11c0.3,4.6,0.6,9.2,0.6,13.8
					c0.1,8.8-0.1,17.5-0.1,26.3c0,1.2-0.4,2-1.2,2.7c-0.4,0.3-0.8,0.7-1.2,1.1c0.4,0.3,0.7,0.5,1,0.7c0.6,0.4,0.8,1,0.7,1.7
					c-0.3,1.1-0.9,2-2,2.5c-0.1-0.8,0-1,0.4-1.5c0.2-0.3,0.4-0.5,0.6-0.8c0.3-0.5,0.2-0.9-0.3-1.2c-0.2-0.2-0.5-0.3-0.7-0.5
					c-0.8-0.5-0.9-1.1-0.2-1.8c0.4-0.5,0.9-0.9,1.4-1.3c0.4-0.3,0.5-0.7,0.5-1.3c0-2.8,0-5.5,0-8.3c0-5.7,0.2-11.4,0.1-17.1
					c-0.1-5.2-0.4-10.5-0.7-15.7c-0.2-2.9-0.4-5.8-0.7-8.7c-0.4-3.5-0.8-7.1-1.2-10.6c-0.6-4.3-1.2-8.6-1.8-12.9
					c-0.2-1.7-0.5-3.4-0.6-5.1c-0.1-1.5,0.1-2.9,0.2-4.4c0.2-3.1,0.4-6.1,0.7-9.2c0.3-4,0.5-8,0.8-12c0.2-3.4,0.4-6.8,0.7-10.1
					c0.3-3.9,0.5-7.7,0.8-11.6c0.2-2.4,0.5-4.8,0.7-7.2c0.1-0.8,0.2-1.5,0.3-2.4c-1.6,0.4-3.1,0.7-4.5,1.1c-0.1,0-0.3,0.3-0.3,0.4
					c-0.2,2.4-0.4,4.8-0.5,7.3c-0.4,4.9-0.7,9.7-1.1,14.6c-0.4,4.7-0.7,9.3-1.2,13.9c-0.5,4.7-1,9.4-1.6,14.1
					c-0.1,0.6-0.2,1.2-0.1,1.7c0.7,2.1,1.1,4.2,1.5,6.3c0.8,4.5,1.4,9,1.8,13.6c0.3,2.9,0.5,5.8,0.7,8.8c0.3,4.4,0.5,8.8,0.7,13.1
					c0.1,1.8,0.1,3.7,0.1,5.5c0,5.3,0.1,10.7,0.1,16c-0.1,5-0.4,10-0.6,15.1c-0.1,1.6-0.7,2.9-2.2,3.6c-0.3,0.2-0.6,0.4-1,0.6
					c0.3,0.3,0.6,0.6,0.9,0.9c1.1,0.9,1.4,2,1,3.4c-0.5,1.8-1,3.6-1.4,5.5c0,0.2,0,0.3,0.1,0.5c0.1,0,0.1,0,0.2,0
					c0.1-0.1,0.2-0.2,0.2-0.3c0.8-1.1,1.6-1.2,2.5-0.2c0.3,0.4,0.6,0.8,0.9,1.2c1-1.2,1.7-1.5,2.7-1.2
					C127.8,435.3,128.1,435.9,128.1,437.5 M167,144.8c0.3-0.1,0.6-0.2,0.9-0.3c2.7-0.8,5.3-1.6,8-2.5c1.1-0.4,2.2-1,3.1-1.8
					c1.2-1,1.9-2.4,2.5-3.9c0.7-1.9,1.3-3.8,1.6-5.8c0.6-3.4,0.5-6.8,0.4-10.2c0-0.7,0.1-1.3,0.2-2c0-0.3,0.1-0.7,0-1
					c-0.2-0.6-0.5-1.2-0.7-1.9c-0.4-1.3-0.6-2.6-1-3.8c-1.9-5.7-5.7-9.9-10.6-13.1c-2.9-1.9-6.1-3.3-9.2-4.8
					c-0.9-0.5-1.9-0.8-2.9-1.2c-0.2-0.1-0.4-0.1-0.5-0.1c-2.4,0.7-4.8,1.4-7.1,2.6c-4,2.3-7.6,5.1-10.5,8.7
					c-2.2,2.6-3.9,5.4-4.7,8.8c-0.2,1.1-0.6,2.2-0.9,3.3c-0.1,0.5-0.3,1.1-0.4,1.6c-0.1,0.4,0,0.7,0.4,0.9c0.1,0.1,0.3,0.3,0.3,0.5
					c0.2,1,0.3,2,0.4,3c0.2,1.9,0.4,3.8,0.7,5.8c0.4,2.5,0.9,4.9,1.4,7.4c0.2,1.1,0.4,2.1,1.2,2.9c0.8,0.9,1.6,1.9,2.5,2.7
					c0.6,0.6,1.4,1,2.1,1.4c1.2,0.5,2.4,0.9,3.6,1.4c0.5,0.2,0.9,0.3,1.4,0.4c0.1-1.7,0.2-3.2,0.4-4.8c0-0.2,0.2-0.3,0.3-0.5
					c0.1,0.2,0.2,0.3,0.3,0.5c0,0.1,0,0.3,0,0.4c0,1.2-0.1,2.3,0,3.5c0,0.6,0.1,1.3,0.5,1.8c0.6,0.9,1.5,1.6,2.6,1.9
					c2.7,0.8,5.5,1.4,8.3,0.9c1.7-0.3,3.3-0.8,4.3-2.2c0.2-0.2,0.3-0.5,0.2-0.8c-0.1-1.3-0.2-2.6-0.3-3.9c0-0.3,0-0.7,0.1-1
					c0-0.1,0.2-0.2,0.3-0.2c0.1,0,0.2,0.2,0.2,0.3C166.6,141.5,166.8,143.2,167,144.8 M137.6,281.4c0.2-0.8,0.3-1.5,0.5-2.1
					c0.8-3.8,1.9-7.5,3.6-11c1.7-3.4,3.5-6.7,5.8-9.7c0.2-0.3,0.2-0.4,0-0.6c-0.9-1-1.9-2-2.8-3c-2.3-2.4-4.5-4.9-6.7-7.3
					c-2.4-2.7-3.9-5.9-5.3-9.2c-1.2-2.8-2.2-5.6-3.3-8.4c-0.2-0.5-0.5-0.8-1-0.8c-1.7-0.3-3.5-0.5-5.2-0.8c-0.8-0.1-1.6-0.2-2.2-0.7
					c1.7-0.8,3.5-0.4,5.2-0.1l0.1-0.2c-1.2-1-2.5-2-3.7-3c0,0,0,0,0,0c1.9,1,3.7,2.1,5.6,3.1c-1.7-4.7-3.1-10.4-2.9-11.1
					c1.5,4,3.1,8.1,4.6,12.3c0.1-0.2,0.1-0.3,0.1-0.4c0.8-3.1,1.5-6.3,2.3-9.4c0.9-3.4,0.5-6.7-1-10c-0.8-1.7-1.5-3.5-2.3-5.2
					c-1.2-2.7-1.7-5.5-1.5-8.5c0.1-2.2,0.2-4.4,0.5-6.6c0.5-3.2,1.1-6.5,1.7-9.7c0.1-0.4,0-0.6-0.2-0.9c-1.8-2.1-3.2-4.4-4-7.1
					c-0.5-1.7-0.5-3.3,0.2-4.9c0.1-0.3,0.2-0.5,0.3-0.7c-1.2,0.1-2.4,0.2-3.6,0.4c-1.5,0.2-2.5,1-3,2.4c-0.2,0.5-0.2,1-0.3,1.6
					c-0.4,3.2-0.9,6.3-1.3,9.5c-0.4,3.5-0.7,7-0.9,10.4c-0.2,2.2-0.3,4.4-0.4,6.6c-0.3,3.3-0.5,6.5-0.8,9.8c-0.4,4-0.7,8-1.1,12
					c-0.4,3.8-0.9,7.5-1.5,11.2c-0.4,3.1-0.9,6.1-1.4,9.1c-0.2,1.1,0,1.8,0.7,2.7c1.2,1.5,2.2,3.2,3.4,4.9c1.4,2,2.9,3.9,4.2,6
					c2.5,4.1,5.2,8.2,8,12.1c2.8,3.9,5.2,8,7.3,12.3C136,278,136.8,279.7,137.6,281.4 M179.2,278.2c0.3-0.5,0.5-0.9,0.7-1.2
					c1.3-1.8,2.7-3.6,4.1-5.5c2-2.7,4-5.4,6.1-8.1c5.1-6.3,10.3-12.6,15.4-18.9c1-1.2,1.9-2.4,2.7-3.7c0.2-0.3,0.4-0.8,0.3-1.2
					c-0.6-3.4-1.3-6.7-1.9-10.1c-0.8-4.3-1.6-8.6-2.3-13c-0.5-2.9-0.9-5.9-1.3-8.8c-0.4-3-0.8-5.9-1.1-8.9c-0.3-3.1-0.7-6.3-0.9-9.4
					c-0.2-3.3-0.4-6.6-0.5-9.8c-0.1-2.3,0-4.7-0.1-7c-0.1-1.4-0.4-2.8-0.5-4.2c-0.1-0.9-0.5-1.6-1.3-1.9c-1.1-0.4-2.3-0.8-3.4-1.1
					c-0.7-0.2-1.5,0-2.2,0c0,0.2,0,0.2,0.1,0.3c0.4,1.6,0.5,3.3,0.2,5c-0.6,3.6-1.9,6.9-4.2,9.8c-0.2,0.2-0.3,0.6-0.2,0.8
					c0.2,1,0.4,2,0.7,3c0.6,2,1.3,4,1.8,5.9c0.8,3,1,6.1,0.1,9.1c-0.6,2.2-1.6,4.2-2.6,6.2c-1.1,2.2-2.3,4.4-3.3,6.7
					c-0.5,1.1-0.9,2.3-0.7,3.6c0.2,1.4,0.5,2.7,0.9,4c1,3.2,2,6.3,3.1,9.5c0.1,0.4,0.2,0.7,0.4,1.1c0.1,0.3,0.2,0.7,0.4,1.1
					c-0.2-4.6-0.4-9.2,0-13.7c0.7,1,0.9,2.2,0.9,3.4c0,1.2,0.1,2.3,0,3.5c0,1.1-0.1,2.3-0.2,3.4c1-3.4,1.5-7,2.7-10.4
					c0.2,0.3,0.3,0.7,0.3,1c-0.1,1.1-0.1,2.3-0.4,3.4c-0.8,3.8-1.7,7.6-2.6,11.3c0,0.2,0,0.4,0,0.7c0.2-0.1,0.3-0.2,0.4-0.3
					c1.3-1.4,2.6-2.8,3.9-4.1c0.2-0.2,0.5-0.4,0.8-0.6c0.4-0.2,0.8,0.1,0.6,0.6c-0.1,0.3-0.3,0.5-0.5,0.7c-2.7,2.6-5.1,5.4-7.4,8.2
					c-2.5,3.1-5,6.2-7.8,9c-2.8,2.8-5.6,5.6-8.4,8.4c-0.8,0.8-1.6,1.4-2.5,2.1c2.6,2.8,4.4,6,5.9,9.4
					C176.9,271,178.2,274.5,179.2,278.2 M143.8,191.3c-2.5-1.5-4.9-3.2-7.1-5.1c-2.2-1.9-3.9-4.3-5.8-6.6c-0.2,1-0.3,1.8-0.5,2.6
					c-0.7,4.2-1.4,8.4-1.5,12.7c0,1.5-0.1,3.1,0.2,4.6c0.6,3,1.9,5.8,3.2,8.5c0.9,1.9,1.5,3.8,1.7,5.9c0.2,2.3-0.2,4.4-0.7,6.6
					c-0.8,3.2-1.6,6.3-2.3,9.5c-0.1,0.2-0.1,0.6,0,0.8c1.1,2.8,2.1,5.6,3.3,8.4c1.2,2.8,2.6,5.5,4.6,7.8c3.1,3.4,6.3,6.8,9.4,10.2
					c0.1,0.1,0.3,0.3,0.5,0.4c0.5,0.3,0.6,0.6,0.3,1.1c-0.3,0.4-0.6,0.9-0.9,1.4c1.2,0.1,2.4,0.2,3.6,0.3c0.2,0,0.4-0.1,0.5,0
					c1,0.3,2,0.5,2.9,1c0.8,0.4,1.5,0.4,2.2-0.1c0.3-0.2,0.5-0.4,0.5-0.8c0-2.3-0.1-4.7-0.1-7c0.1-7.5,0.2-15.1,0.3-22.6
					c0.1-3.8,0.2-7.6,0.2-11.4c0-0.3-0.2-0.5-0.3-0.8c-0.2,0.1-0.5,0.2-0.7,0.4c-0.3,0.3-0.6,0.6-0.9,1c-0.6,0.7-1.4,0.8-2.2,0.5
					c-1.5-0.6-2.5-1.8-2.7-3.4c-0.1-0.8-0.1-1.7-0.1-2.6c0-0.5-0.2-0.7-0.7-0.6c-0.2,0-0.3,0-0.5,0.1c-1.4,0.4-2.8-0.9-2.8-2.1
					c0-1,0.1-2,0.2-3c0.1-0.9,0.3-1.7,0.4-2.6c0-1-0.5-1.5-1.4-1.7c-0.3-0.1-0.6-0.1-0.9-0.2c-1.3-0.3-1.6-0.8-1.2-2.1
					c0.3-1.1,0.7-2.2,1-3.2c0.2-0.7,0.3-1.4-0.1-2c-0.4-0.6-0.8-1.2-1.4-1.7c-0.6-0.6-0.9-1.2-0.8-2.1
					C143.5,192.4,143.6,191.9,143.8,191.3 M187.7,182c-0.2,0.2-0.4,0.4-0.6,0.6c-1.2,1.1-2.4,2.3-3.7,3.4c-2.1,1.7-4.2,3.2-6.3,4.9
					c-0.4,0.3-0.9,0.7-1.2,1.2c-0.7,1-0.8,1.9,0.1,2.8c0.2,0.2,0.4,0.5,0.6,0.7c0.5,0.7,0.6,1.4,0.2,2.2c-0.2,0.4-0.5,0.7-0.8,1
					c-0.4,0.4-0.9,0.8-1.2,1.2c-1.3,1.5-1.4,2.7-0.4,4.1c0.1,0.2,0.3,0.5,0.4,0.7c0.3,0.6,0.5,1.3,0.3,2c-0.2,1.2-0.8,2.2-1.9,2.8
					c-0.5,0.3-1,0.5-1.6,0.8c-1.2,0.6-1.2,0.8-0.7,2c0.9,1.9,0.3,3.3-1.6,4.2c-0.3,0.1-0.6,0.3-0.9,0.3c-0.9,0-1.7,0-2.6,0
					c-1.1,0-1.2,0.1-1.3,1.2c-0.1,1.8-0.9,2.9-2.5,3.2c-0.9,0.2-1.7,0-2.5-0.5c0,0.2,0,0.4,0,0.6c-0.1,4.4-0.2,8.8-0.2,13.2
					c0,2.7-0.1,5.3-0.1,8c-0.1,5.6-0.1,11.2-0.1,16.8c0,0.2,0,0.4,0.1,0.7c0.3-0.1,0.5-0.2,0.6-0.3c1.5-0.8,2.9-1.6,4.4-2.4
					c1.2-0.6,2.5-0.5,3.8-0.1c0.2,0.1,0.5,0,0.6-0.1c1.1-0.9,2.3-1.8,3.3-2.8c5.7-5.4,11.2-11.1,16-17.3c0.1-0.1,0.2-0.3,0.2-0.5
					c0.2-0.8,0.4-1.6,0.6-2.4c0.1-0.2,0.1-0.5,0-0.8c-0.6-1.8-1.2-3.6-1.7-5.4c-1.1-3.4-2.1-6.8-3.1-10.2c-0.5-1.7-0.6-3.5,0.1-5.2
					c0.6-1.5,1.3-3,2-4.4c1.2-2.5,2.5-5,3.6-7.6c1.2-2.7,1.6-5.7,0.8-8.6c-0.5-2.2-1.2-4.4-1.9-6.5C188.4,184.4,188,183.2,187.7,182
					 M187.4,446c0.2,0.3,0.5,0.5,0.7,0.8c0.6,0.8,0.5,1.5-0.3,2.1c-0.3,0.2-0.7,0.4-1.1,0.6c-1.7,0.6-3.4,0.7-5.2,0.5
					c-1.3-0.1-2.5-0.4-3.6-1.2c-1.1-0.8-1.2-1.4-0.5-2.5c-0.4-0.4-0.9-0.8-1.3-1.2c0,0.1-0.1,0.3-0.1,0.4c-0.5,1.3-0.9,2.6-1.5,3.8
					c-1.2,2.3-2.4,4.6-3.7,6.8c-1.2,2.1-2.6,4.1-4,6c-0.9,1.3-0.9,1.5,0.3,2.7c0.1,0.1,0.2,0.2,0.3,0.2c1,0.4,2.1,0.9,3.1,1.3
					c2,0.7,4.1,0.7,6.2,0.7c2.4,0.1,4.8-0.1,7.1-0.3c4-0.4,7.9-1.3,11.8-2.5c1.5-0.5,2.4-1.2,2.3-3.1c0-0.7,0.1-1.4,0-2.1
					c-0.2-2.1-0.3-4.2-0.8-6.2c-0.6-2.7-1.5-5.4-2.2-8.2c-0.1-0.5-0.3-0.5-0.7-0.4c-1.8,0.4-3.5,0.7-5.3,1
					C188.2,445.2,187.7,445.3,187.4,446 M168.3,272c-0.2-0.3-0.3-0.5-0.4-0.7c-0.8-1.2-2-2-3.2-2.8c-1.8-1.2-3.6-2.4-5.4-3.6
					c-2.1-1.4-4.2-2.8-6.6-3.5c-0.4-0.1-0.9-0.3-1.3-0.3c-1.2,0-2.4,0-3.6,0c-0.4,0-0.5,0.1-0.7,0.4c-0.9,1.6-1.9,3.1-2.8,4.7
					c-1.7,3-3.1,6.2-4,9.6c0,0.2-0.1,0.4-0.1,0.5c0.5,0.5,0.4,1.2,0.6,1.8c0.8,2.2,1.4,4.4,3.2,6.1c2.9,2.7,6.2,4.6,9.8,6.1
					c0.3,0.1,0.6,0.1,0.9,0.1c0,0,0-0.1,0-0.1c-0.1-0.1-0.2-0.2-0.3-0.3c-2.6-2.6-5.2-5.2-7.8-7.8c-0.3-0.3-0.7-0.8-0.3-1.2
					c0.4-0.4,0.8,0,1.1,0.3c0.9,0.9,1.8,1.8,2.7,2.7c1.9,1.8,3.7,3.7,5.7,5.5c0.6,0.6,1.4,1,2.1,1.4c0.3,0.2,0.7,0.4,1.1,0.1
					c-0.2-0.4-0.4-0.7-0.6-1c-1.4-2.3-2.8-4.6-4-7c-0.8-1.7-1.9-3.1-3.4-4.3c-0.5-0.4-0.9-0.9-1.2-1.5c-0.1-0.1,0-0.4,0-0.6
					c0.2,0,0.4,0,0.5,0.1c0.9,0.7,1.8,1.4,2.7,2.1c0.8,0.6,1.3,1.3,1.7,2.2c1.5,2.8,3.1,5.5,4.7,8.3c0.3,0.5,0.7,1,1.1,1.5
					c0.2,0.3,0.5,0.5,0.8,0.6c0.3,0.2,0.5,0,0.5-0.3c0-0.2,0-0.3,0-0.5c-0.2-1.4-0.5-2.7-0.7-4.1c-0.3-2.2-0.5-4.4-0.7-6.7
					c-0.1-0.6-0.3-1.1-0.8-1.5c-0.7-0.6-1.4-1.1-2.2-1.6c-1.2-0.8-2.5-1.5-3.8-2.2c-0.3-0.2-0.7-0.5-0.4-0.9
					c0.2-0.4,0.6-0.3,0.9-0.1c0.5,0.2,1,0.5,1.4,0.8c1.6,1,3.2,2.1,4.8,3.2c0.7,0.5,1.1,1.2,1.2,2.1c0.2,1.7,0.3,3.5,0.6,5.2
					c0.1,1.1,0.4,2.3,0.6,3.4c0.1,0.4,0.4,0.7,0.6,1.1c0.2-0.4,0.4-0.7,0.5-0.9c0.3-1.2,0.7-2.5,0.9-3.7c0.4-2.1,0.6-4.2,0.3-6.3
					c-0.2-1.3-0.5-2.5-1.5-3.4c-0.9-0.8-1.8-1.6-2.7-2.5c-0.8-0.9-1.6-1.8-2.4-2.7c-0.1-0.1,0-0.4-0.1-0.6c0.2,0,0.4,0,0.5,0.1
					c0.4,0.4,0.8,0.5,1.3,0.6c0.3,0.1,0.7,0.2,1,0.3c1.5,0.6,3,1.2,4.5,1.7C166.6,272.2,167.4,272.3,168.3,272 M128.9,442.4
					c0.3,0.3,0.6,0.5,0.8,0.8c0.6,0.7,0.4,1.5-0.4,1.8c-0.6,0.2-1.3,0.3-1.9,0.2c-1.9-0.4-3.8-0.9-5.7-1.5c-0.3-0.1-0.5-0.1-0.7,0.1
					c-3,2.2-6.3,3.9-9.9,5.2c-2.5,0.9-5,1.8-7.5,2.8c-1.1,0.4-2.2,0.9-3.1,1.6c-1.2,0.8-1.2,1.5,0.1,2.2c2.3,1.3,4.8,2.1,7.5,2.3
					c3.3,0.2,6.4-0.3,9.6-0.8c4.3-0.8,8.5-2,12.5-3.8c1.6-0.7,3.3-1.3,5-1.9c2-0.7,3.2,1.1,3.3,2.4c0.1,1,0.2,1.1,1.1,1.2
					c0.2,0,0.4,0,0.6,0c0.9-0.1,1.8-0.2,2.7-0.3c0.7-0.1,1.5-0.3,2.2-0.5c0.5-0.2,0.9-0.5,0.9-1.1c0-0.2,0.1-0.4,0.2-0.7
					c0.4-1.6,0.8-3.2,0.8-4.8c0-1.6,0.1-3.3,0-4.9c0-0.8-0.1-1.7-0.2-2.5c-5.3,0.8-10.5,1.5-15.8,0.2
					C130.5,441.3,129.8,442,128.9,442.4 M166.7,284.4c0,0,0,0.1,0.1,0.1c0.2,0.1,0.4,0.2,0.7,0.2c2,0.5,4,1.1,6.1,1.6
					c4.7,1,9.4,1.3,14.1,1.7c3,0.3,6,0.6,8.9,1.4c0.5,0.1,1,0.3,1.6,0.4c-2.4-9.6-3.3-19.3-4.3-29.1c-0.8,0.8-1.5,1.6-2.1,2.5
					c-2,2.6-4,5.2-5.9,7.9c-1.4,1.8-2.8,3.5-4.1,5.4c-0.7,1-1.2,2.2-1.9,3.3c-0.1,0.2-0.5,0.5-0.8,0.5c-0.2,0-0.5-0.4-0.6-0.6
					c-0.4-1.4-0.8-2.7-1.3-4.1c-0.2-0.6-0.4-1.2-0.6-1.8c0,0-0.1,0-0.1,0C175.6,279.5,172.1,282.8,166.7,284.4 M149.8,182.6
					c0,0-0.1,0.1-0.1,0.1c-0.9,2.3-2.2,4.3-4.1,6c-0.1,0.1-0.2,0.3-0.1,0.4c0.2,0.8-0.1,1.4-0.3,2.1c-0.1,0.2-0.1,0.4-0.2,0.5
					c1.5-1.1,2.9-2.2,4.3-3.4c1.2-1.1,2.3-2.3,3.4-3.4c0.1-0.1,0.3-0.2,0.4-0.2c0.1,0,0.2,0.3,0.2,0.4c0,0.7-0.1,1.3-0.2,2
					c-0.2,2.7-0.9,5.2-2.1,7.6c-0.9,1.9-2.2,3.5-4.1,4.5c-0.1,0.1-0.2,0.1-0.3,0.2c-0.4,1.1-0.7,2.1-1.1,3.2
					c0.7,0.2,1.3,0.3,1.9,0.5c0.4,0.2,0.7,0.1,0.9-0.3c1.7-2.3,3.4-4.6,5.1-6.9c0.1-0.2,0.4-0.3,0.5-0.3c0.2,0,0.4,0.3,0.5,0.4
					c0.1,0.3,0.1,0.7,0.2,1c0.1,2.5-0.1,5-0.6,7.4c-0.5,2.7-1.2,5.3-2.8,7.6c0,0,0,0.1,0,0.1c0.3,0.2,0.7,0.3,1,0.5
					c1-1.5,1.9-3,2.6-4.7c0.1-0.3,0.3-0.5,0.5-0.7c0.2,0.2,0.4,0.4,0.6,0.7c0.1,0.1,0.1,0.2,0.1,0.3c0.6,2.2,0.8,4.5,0.7,6.8
					c0,0.8-0.2,1.7-0.2,2.6c0.1-0.1,0.2-0.2,0.3-0.2c1-0.8,2.1-0.5,2.6,0.6c0.1,0.3,0.2,0.6,0.3,0.9c0.4,1,0.8,1.3,1.8,1.1
					c0.9-0.1,1.5-0.7,1.6-1.6c0-0.4,0-0.8,0.1-1.2c0.1-0.8,0.5-1.2,1.2-1.5c0.2-0.1,0.4-0.1,0.7-0.2c-0.1-0.3-0.1-0.5-0.2-0.7
					c-0.4-3,0.2-5.8,1.3-8.6c0-0.1,0.1-0.1,0.1-0.2c0.1-0.1,0.3-0.3,0.5-0.3c0.1,0,0.3,0.2,0.3,0.4c0.5,1.3,1.1,2.6,1.6,3.8
					c0.1,0.3,0.3,0.7,0.5,1.1c0.4-1.3,1.6-1.7,2.5-2.3c-1.1-1-1.8-2.2-2.4-3.4c-1.4-3-2.1-6.2-2.7-9.4c0-0.2,0.1-0.4,0.2-0.7
					c0.2,0.1,0.5,0.1,0.7,0.3c0.9,1.1,1.8,2.2,2.7,3.3c0.7,0.8,1.5,1.6,2.4,2.6c0.4-1.6,1.5-2.6,2.6-3.6c-1.4-0.6-2.3-1.6-3.1-2.7
					c-1-1.5-1.7-3.2-2-4.9c-0.4-1.8-0.6-3.7-0.9-5.6c0-0.2,0.2-0.5,0.3-0.7c0.2,0.1,0.5,0.2,0.6,0.4c1.1,1.6,2.6,2.9,4,4.2
					c0.6,0.5,1.2,1,1.9,1.6c0.3-0.4,0.6-0.7,0.9-1c0.6-0.8,0.5-1.7-0.3-2.3c-2.6-1.9-4.5-4.4-5.9-7.3c-0.2-0.5-0.5-1-0.7-1.5
					c0,0.1,0,0.2,0,0.3c0.3,1.1,0.4,2.2,0.2,3.4c-0.2,0.9-0.7,1.4-1.7,1.4c-0.4,0-0.7-0.1-1.1-0.1c-0.3-0.1-0.7-0.2-1-0.3
					c-0.1,1.2-0.1,2.4-0.2,3.6c-0.2,2.7-0.3,5.5-0.6,8.2c-0.2,2.2-0.6,4.3-1,6.5c-0.6,3.9-1.4,7.8-2.7,11.5
					c-0.2,0.5-0.5,0.9-0.8,1.2c-0.2,0.2-0.7,0.2-0.9,0c-0.2-0.1-0.5-0.4-0.5-0.7c-0.2-0.6-0.2-1.2-0.4-1.8c-1.2-3.5-2-7.2-2.3-10.9
					c-0.2-2.2-0.5-4.5-0.8-6.7c-0.3-2.8-0.7-5.7-1-8.5c-0.1-0.5-0.1-1.1-0.1-1.6C152.8,184.6,151.6,184.4,149.8,182.6 M134.4,117.4
					c0.1-0.8,0.2-1.7,0.4-2.5c0.7-3.7,1.8-7.1,4.2-10.1c5.1-6.4,11.2-11.2,19.2-13.2c0.4-0.1,0.5-0.3,0.4-0.7
					c-0.2-1.6-0.3-3.2-0.4-4.8c0-0.8,0.4-1.4,1.1-2.1h-0.7c-2,0-4,0-6,0c-0.4,0-0.7,0-1.1,0.1c-2.5,0.4-4.9,1.3-7.2,2.3
					c-2.2,1-4.2,2.2-5.9,3.8c-4.2,4.1-5.9,9.2-6.3,14.9c-0.2,2.7-0.1,5.4-0.1,8.1c0,1,0,1.9,0,2.7
					C133,116.5,133.7,116.9,134.4,117.4 M184.3,116.2c0.5-0.4,1.1-1,1.8-1.3c0.5-0.2,0.6-0.5,0.5-0.9c-0.2-1.4-0.4-2.8-0.5-4.3
					c-0.2-2.9-0.5-5.8-1.1-8.6c-0.8-3.7-2.5-6.9-5.1-9.4c-2.4-2.3-5-4.2-7.9-5.8c-2.5-1.3-5.1-2.1-7.9-2.1c-1.3,0-2.6,0.1-3.9,0.2
					c-0.6,0-0.9,0.2-0.9,0.8c0,0.5,0.1,1,0.1,1.5c0,1.7,0,3.4,0,5.1c0.4,0.2,0.9,0.3,1.3,0.5c1.7,0.8,3.4,1.6,5.1,2.4
					c4.1,2,8,4.2,11.3,7.5C181.1,105.8,183.4,110.7,184.3,116.2 M117.5,290.5c0.1,0,0.2,0,0.3,0c1.6-0.3,3.2-0.7,4.8-1
					c6.3-1.5,12.6-3,18.9-4.5c0.6-0.2,0.8-0.7,0.5-1.3c-0.5-0.8-0.9-1.6-1.3-2.4c-0.4-0.9-0.7-1.9-1.1-2.9c-0.4,1.6-0.7,3.1-1,4.5
					c0,0.1,0,0.3,0.1,0.4c0.1,0.3,0,0.7-0.3,0.7c-0.3,0-0.8-0.1-0.9-0.3c-0.6-1.2-1.2-2.4-1.8-3.6c-1.4-2.8-2.7-5.7-4.3-8.4
					c-2-3.4-4.2-6.5-6.4-9.8c0-0.1-0.1-0.1-0.3-0.2C122.3,271.3,119.9,280.9,117.5,290.5 M151.4,167.9c-0.2-0.1-0.3-0.3-0.5-0.4
					c-1.2-0.8-2.3-1.8-3.2-3c-1.3-1.7-2.6-3.4-3.9-5.1c-0.2-0.3-0.4-0.3-0.8-0.3c-1.8,0.4-3.7,0.8-5.5,1.1c-2.7,0.5-5.3,1.5-7.7,2.9
					c-0.3,0.2-0.4,0.4-0.4,0.7c0.1,0.7,0.2,1.5,0.3,2.2c0.2,1.7,1.2,3.2,2.1,4.5c2.9,4.1,6.6,7.3,10.7,10c0,0,0.1,0,0.1,0
					c-0.2-0.2-0.3-0.5-0.5-0.7c-0.7-0.8-0.7-1-0.1-1.9c0.1-0.2,0.3-0.4,0.5-0.6c1.2-1.2,2.4-2.3,3.6-3.4
					C148.2,172.2,149.8,170.1,151.4,167.9 M147.2,144.8c0.1,1.3,0.2,2.6,0.3,3.8c0.1,1.1,0.2,2.3,0.2,3.4c0,1,0.1,2,1,2.7
					c0.2,0.1,0.3,0.3,0.4,0.4c1.6,2.1,3.7,3.4,6.2,4c2.2,0.6,4.5,0.7,6.7,0.4c4.7-0.5,7.9-3,10.2-7c0.1-0.1,0.1-0.2,0.1-0.4
					c0-0.8-0.1-1.7-0.2-2.5c0-0.9,0-1.7,0.1-2.6c0-0.8,0.1-1.7,0.2-2.5c-0.2,0.1-0.4,0.1-0.5,0.1c-1.5,0.4-3,0.8-4.5,1.2
					c-0.1,0-0.2,0.1-0.2,0.2c-1.2,1.7-2.9,2.4-4.8,2.8c-2.5,0.5-4.9,0.1-7.3-0.4c-1.6-0.4-3.3-0.7-4.5-2c-0.8-0.9-1.8-1.4-3-1.6
					C147.4,144.8,147.2,144.8,147.2,144.8 M170.7,167.1c0.8,1.1,1.6,2.1,2.5,3.2c1.9,2.4,4.2,4.5,6.7,6.3c0.4,0.3,0.5,0.6,0.2,1
					c-0.5,0.7-0.5,1.5-0.3,2.3c0.1,0.7,0.4,1.4,0,2.2c0.2-0.1,0.4-0.1,0.5-0.2c1.9-1.4,3.7-2.9,5.1-4.9c2.3-3.1,3.6-6.5,2.8-10.4
					c-0.4-1.9-1-3.8-2.2-5.3c-0.2-0.2-0.5-0.5-0.9-0.5c-2.5-0.7-5-1.3-7.5-1.9c-0.2,0-0.5,0-0.6,0.2c-0.6,0.7-1.3,1.4-1.9,2.1
					C173.7,163.1,172.2,165.1,170.7,167.1 M157.5,262.3c0.2,0.2,0.3,0.2,0.3,0.2c2.8,1.9,5.6,3.7,8.4,5.6c1.1,0.8,2.1,1.7,2.9,2.9
					c0.8,1.2,0.3,2.3-1.2,2.4c-1,0-2-0.2-3-0.4c-0.7-0.1-1.4-0.4-2-0.6c0.3,0.4,0.7,0.7,1,1.1c1,0.9,1.9,2,2.3,3.4
					c0.4,1.7,0.5,3.5,0.3,5.2c0,0.5-0.1,1-0.1,1.5c1.3-0.6,2.4-1.2,3.6-1.8c2.1-1,3.3-2.8,4.3-4.8c0.4-0.8,0.5-1.8,0.8-2.7
					c0.2-0.7,0.3-1.4,0.6-2c0.1-0.3,0.2-0.5,0-0.8c-0.3-0.7-0.6-1.5-0.9-2.2c-1.2-3-2.7-5.8-4.6-8.4c-0.6-0.7-1.1-1.6-1.9-2.1
					c-1-0.6-2.2-1-3.4-0.4C162.4,259.7,160,260.9,157.5,262.3 M137.4,136.9c-0.1,0.1-0.1,0.2-0.2,0.2c-3,3.3-2.2,8.2,0.5,10.9
					c1.3,1.4,2.8,2.5,4.5,3.4c1.3,0.7,2.8,1.1,4.3,1.5c0-0.2,0-0.3,0-0.4c-0.1-2.6-0.3-5.3-0.4-7.9c0-0.4-0.2-0.5-0.5-0.6
					c-1.2-0.5-2.5-0.9-3.5-1.6C140.2,141.1,138.4,139.3,137.4,136.9 M173.4,144.2c0,0.9,0,1.7,0,2.6c0,1.5,0,3.1,0,4.6
					c0,0.8,0.2,0.9,0.9,0.7c1.4-0.4,2.8-0.7,4.2-1.2c2.9-1,4.7-3,5.4-6c0.4-1.9,0.4-3.8,0-5.7c-0.2-1-0.4-2-1.1-3
					C181.4,141.1,177.8,143.2,173.4,144.2 M163.8,181.5c0,0.9,0.1,1.6,0,2.3c-0.2,2.3-0.5,4.6-0.8,6.9c-0.4,3.2-0.7,6.3-1.5,9.4
					c-0.2,0.7-0.3,1.3-0.5,2c-0.1,0.2-0.4,0.5-0.6,0.5c-0.2,0-0.5-0.2-0.6-0.4c-0.2-0.3-0.4-0.7-0.4-1.1c-0.3-1.7-0.6-3.4-0.8-5
					c-0.6-4-1.1-8-1.7-12.1c-0.1-0.7-0.1-1.5-0.2-2.3c-0.3,0.4-0.6,0.7-0.9,1.1c-0.1,0.2-0.2,0.4-0.1,0.6c0.1,0.6,0.4,1.1,0.5,1.7
					c0.6,3.9,1.1,7.7,1.6,11.6c0.3,2,0.5,4.1,0.7,6.1c0.3,2.8,1.1,5.5,2,8.1c0.1,0.3,0.2,0.6,0.3,1.1c0.4-1.5,0.9-2.8,1.2-4.1
					c0.5-2.5,1-5,1.5-7.5c0.8-4.2,1.2-8.4,1.5-12.7c0.1-1.7,0.3-3.5,0.4-5.2c0-0.1-0.1-0.3-0.2-0.4
					C164.7,182,164.3,181.8,163.8,181.5 M159.4,172.6c0,0,0,0.1-0.1,0.2c-0.6,2.4-1.2,4.8-1.8,7.2c0,0.2-0.1,0.4,0,0.6
					c0.3,1.8,0.5,3.7,0.8,5.5c0.5,3.4,1,6.8,1.6,10.2c0.2,1.1,0.3,2.1,0.5,3.2c0.1-0.2,0.2-0.3,0.2-0.5c0.3-1.9,0.7-3.8,0.9-5.7
					c0.5-4,0.9-8.1,1.4-12.1c0-0.3,0-0.6-0.3-0.8c-1.1-1.2-2-2.6-2.4-4.3C159.9,175,159.6,173.8,159.4,172.6 M144.1,190.2
					c0.3-0.8,0.2-1.2-0.5-1.6c-0.5-0.3-1-0.6-1.4-0.9c-0.8-0.5-1-1.1-0.7-2c0.1-0.5,0.3-1,0.5-1.4c-0.7-0.4-1.4-0.8-2-1.3
					c-3.7-2.7-7-5.9-9.7-9.6c-1.6-2.3-2.9-4.7-2.9-7.6c0,0,0,0-0.1-0.1c-0.7,1.3-1,2.6-0.7,4c0.5,2.2,1.5,4.2,2.9,6
					c1.4,1.8,2.8,3.6,4.2,5.4c1.8,2.3,3.8,4.3,6.2,6C141.2,188.2,142.7,189.2,144.1,190.2 M144.3,158.1c0.2,0.3,0.5,0.6,0.7,1
					c1,1.3,1.9,2.6,3,3.8c0.8,1,1.7,2,2.6,2.9c0.4,0.4,1,0.7,1.6,1.2c1.4-2.2,2.7-4.2,4.2-6.5c-4-0.6-7-2.5-9.2-5.8
					C146.2,156,145.3,157,144.3,158.1 M160.2,166.7c0.1,1.3,0.1,2.5,0.2,3.8c0.2,1.9,0.3,3.7,0.9,5.5c1,3.1,3.1,5.1,6.3,5.8
					c1.1,0.2,1.3,0.1,1.4-1c0.1-2-0.6-3.9-1.6-5.6c-1.1-1.9-1.9-4-3.3-5.7c-1.2-1.5-2.2-3.2-3.3-4.8c-0.1,0-0.1,0.1-0.2,0.1
					c1,2.4,2,4.8,2.9,7.2c1,2.4,1.9,4.7,2.9,7.1C163.6,175.3,161.6,171.2,160.2,166.7 M176.3,157.8c-1.1-1.4-2.2-2.8-3.3-4.2
					c-2,3.2-4.5,5.6-8,6.6c0.3,0.4,0.7,0.9,1,1.3c0.4,0.5,0.8,1.1,1.2,1.7c0.8,1.1,1.7,2.1,2.6,3.3c1.1-1.6,2.1-3,3.2-4.4
					C174.1,160.5,175.2,159.2,176.3,157.8 M158.9,167.8c0,0-0.1,0-0.1,0c0,0.1-0.1,0.3-0.1,0.4c-0.4,1.6-0.8,3.2-1.3,4.8
					c-0.6,2-1.5,3.9-3,5.5c-0.1,0.1-0.2,0.2-0.3,0.3c1.3-3.8,2.8-7.5,3.5-11.4c-0.3,0.4-0.5,0.8-0.7,1.2c-1.9,3.3-3.8,6.6-5.7,9.9
					c-0.3,0.5-0.5,1.1-0.6,1.7c-0.3,1.7,0.9,3,2.6,2.8c0.8-0.1,1.5-0.5,1.9-1.1c0.5-0.8,1.1-1.6,1.4-2.6c0.7-2.3,1.2-4.7,1.7-7
					C158.5,170.8,158.7,169.3,158.9,167.8 M167.2,165.2c0,0.1,0,0.2,0,0.2c0.2,2,0.1,4-0.3,5.9c0,0.1,0,0.2,0.1,0.3
					c0.8,1.5,1.6,3,2.4,4.6c-0.2-0.8-0.4-1.5-0.5-2.2c-0.1-0.8-0.2-1.7-0.2-2.5c0-0.2,0.2-0.5,0.4-0.5c0.2,0,0.4,0.1,0.6,0.2
					c0.2,0.2,0.3,0.4,0.5,0.6c2.2,3.3,4.9,6.1,7.9,8.7c0.2,0.2,0.5,0.4,0.7,0.6c0.1-0.3,0-0.4,0-0.6c-0.2-0.9-0.3-1.8,0-2.7
					c0.1-0.4,0-0.6-0.3-0.8c-2.2-1.7-4.2-3.6-5.9-5.8c-0.8-1-1.5-2-2.3-2.9C169.2,167.3,168.2,166.3,167.2,165.2 M144.1,180.8
					c0,0,0.1,0,0.1-0.1c2.4-1.8,4.8-3.6,7.2-5.4c0.1-0.1,0.2-0.3,0.3-0.5c0.6-1.1,1.3-2.2,1.9-3.3c0.4-0.6,0.7-1.1,0.4-1.8
					c-0.1-0.1,0-0.2,0-0.4c0-0.9,0-1.7,0-2.7c-0.2,0.2-0.3,0.4-0.5,0.6c-2.6,3.4-5.2,6.8-8.6,9.5c-0.6,0.5-1.1,1.2-1.7,1.8
					c-0.1,0.1-0.2,0.4-0.1,0.6C143.4,179.7,143.8,180.2,144.1,180.8 M188.9,162c0.9,1.4,1.3,2.8,1.5,4.3c0.2,1.5,0.4,3,0.2,4.6
					c-0.4,3-1.7,5.5-3.5,7.9c-2.4,3.1-5.4,5.5-8.5,7.9c-0.1,0.1-0.3,0.2-0.4,0.3c0.2,0.4,0.3,0.8,0.4,1.2c2.5-2,5-3.8,7.2-6
					c2.9-3,5.1-6.4,5.9-10.6c0.5-2.5,0.5-4.9-0.5-7.3C190.9,163.3,190.1,162.6,188.9,162 M153.8,197.4c-1.7,2.2-3.4,4.3-5.1,6.5
					c0.7,1.2,0.8,2,0.5,3.7c-0.2,1.2-0.3,2.4-0.4,3.6c0,0.6,0.3,1,0.8,1.2C152,210,154,202.6,153.8,197.4 M147,198.2
					c3.7-3,4.6-7.3,5.3-11.6c-0.1,0-0.1,0.1-0.2,0.2c-2.1,2.3-4.5,4.3-7.2,5.8c-0.4,0.2-0.5,0.8-0.2,1.2c0.1,0.1,0.3,0.2,0.4,0.4
					C146.3,195.2,147.1,196.5,147,198.2 M145.1,188.1c1.5-1,3.1-3.3,4.1-5.5c0.2-0.4,0.3-0.8,0.2-1.3c-0.1-0.4-0.1-0.9,0-1.4
					c0.1-0.7,0.4-1.3,0.6-2c-1.9,1.4-3.8,2.9-5.8,4.4c-0.1,0.1-0.2,0.2-0.2,0.3c-0.4,1-0.8,2.1-1.2,3.1c-0.3,0.7-0.2,0.9,0.4,1.2
					C143.8,187.3,144.4,187.6,145.1,188.1 M135.2,124c-0.3,0.4-0.5,0.6-0.6,0.9c-0.1,0.7-0.1,1.3-0.2,2c0,0.2-0.1,0.3-0.1,0.5
					c-0.2-0.1-0.4-0.1-0.5-0.3c-0.9-1.2-0.9-2.8,0.3-3.7c0.9-0.7,1-1.4,0.9-2.3c0-0.2,0-0.3,0-0.5c-0.1-0.3-0.1-0.7-0.3-0.9
					c-0.6-0.7-1.3-1.4-2.1-2.1c-0.4-0.3-0.7-0.3-1,0.2c-0.2,0.5-0.4,1-0.5,1.5c-0.4,2.2,0,4.4,0.7,6.5c0.6,2,2,3.3,3.8,4.3
					c0.1,0.1,0.2,0.1,0.4,0.1C135.8,128.1,135.5,126.2,135.2,124 M169.6,172.8c-0.2,3.3,3.8,10.7,6.3,12.2c0.2-0.6,0.4-1.3,0.7-1.8
					c0.4-0.5,1-0.9,1.6-1.4C174.8,179.4,172,176.4,169.6,172.8 M172.5,208.7c0.3-0.3,0.7-0.5,0.9-0.9c0.6-0.9,0.8-1.8,0.1-2.8
					c-0.5-0.8-1-1.6-1-2.7c0-0.1-0.1-0.3-0.2-0.4c-1-1.1-2.1-2.2-3.1-3.4c-0.6-0.6-1.1-1.3-1.6-1.9
					C168.5,201,169.5,205.2,172.5,208.7 M142.4,183.6c0.1-0.4,0.2-0.5,0.3-0.7c0.1-0.2,0.1-0.3,0.1-0.5c0-0.2-0.1-0.4-0.2-0.5
					c-3.9-2.2-7.2-5.2-9.9-8.7c-1.7-2.1-3-4.4-3.5-7c-0.2-0.7-0.1-1.5-0.1-2.5c-0.3,0.4-0.7,0.7-0.7,1c-0.4,2.3-0.2,4.4,1.3,6.3
					c0.2,0.2,0.3,0.5,0.5,0.7c1.6,1.8,3.2,3.8,4.9,5.4C137.2,179.3,139.8,181.4,142.4,183.6 M184.7,121.5v7c0.3-0.4,0.5-0.8,0.7-1.1
					c0.7-1.3,1.3-2.6,2-3.9c0.8-1.5,1.1-3.2,1-4.9c0-0.6-0.3-1.3-0.6-1.8c-0.6-1-1.3-1-2.1-0.1c-1,1.1-1.2,2.4-1,3.8
					c0,0.1,0.2,0.3,0.3,0.3c1.2,0.2,1.9,1.3,1.7,2.4c0,0.2-0.2,0.4-0.3,0.6c-0.3,0.3-0.6,0.2-0.7-0.2c-0.1-0.3-0.1-0.6-0.2-0.9
					C185.4,122.2,185.2,121.8,184.7,121.5 M186.6,161.1c0.6,0.9,1.3,1.8,1.6,2.7c1,2.7,1.3,5.4,0.6,8.3c-0.7,3-2.4,5.5-4.6,7.7
					c-2,2-4.2,3.5-6.5,5c-0.2,0.1-0.4,0.3-0.4,0.5c0,0.3,0.2,0.6,0.3,1c2.6-2,5.1-4,7.3-6.3c1.6-1.8,3-3.7,4-5.9
					c1.9-4.1,1.3-8.1-0.5-12.1c-0.1-0.1-0.2-0.3-0.3-0.3C187.7,161.5,187.1,161.3,186.6,161.1 M169.9,185.6c0.2,1.1,0.4,2.3,0.7,3.4
					c0.5,2.2,1.2,4.4,2.6,6.2c0.7,0.9,1.4,1.6,2.4,2.2c0.4-0.5,0.4-0.8,0-1.3c-0.2-0.3-0.5-0.5-0.7-0.8c-0.9-1-1.1-2.1-0.5-3.3
					c0.3-0.5,0.6-1,0.9-1.4C173.5,189,171.7,187.3,169.9,185.6 M155.6,208.2c-0.8,1.4-1.5,2.7-2.3,4c-0.4,0.6-0.6,1.1-0.5,1.9
					c0.2,0.8,0,1.7,0.1,2.5c0.1,1.1,1,2.2,2,2.5c0.3,0.1,0.6,0.1,0.6-0.3c0.4-2.7,0.6-5.3,0.4-8C155.8,209.9,155.7,209,155.6,208.2
					 M121.9,435.5c-0.7,0.6-0.7,1.4-0.6,2.1c0.1,0.6,0.5,1.2,0.9,1.7c0.1,0.2,0.3,0.3,0.5,0.4c1.6,0.2,3,0.8,4.4,1.5
					c0.3,0.2,0.7,0.2,1.1,0.1c0.9-0.2,1.4-0.8,1.7-1.7c0.1-0.4,0-0.8-0.5-0.9c-0.4-0.1-0.9,0-1.4,0c-0.3,0-0.6,0.2-0.9,0.2
					c-0.3,0-0.6-0.1-0.7-0.3c-0.1-0.2,0-0.5,0-0.8c0.1-0.2,0.3-0.4,0.4-0.6c0.3-0.5,0.2-1-0.2-1.2c-0.5-0.3-0.9-0.1-1.2,0.4
					c-0.2,0.4-0.4,0.8-0.6,1.2c-0.2,0.5-0.8,0.7-1.2,0.3c-0.1-0.1-0.2-0.3-0.3-0.5C122.9,436.8,122.7,436,121.9,435.5 M167,206.9
					c0,0-0.1,0-0.1,0c-0.2,1.2-0.5,2.4-0.7,3.6c-0.2,1.6-0.3,3.2,0.1,4.8c0,0.2,0.2,0.5,0.4,0.5c1.1,0.3,2.1,0.1,3-0.6
					c0.5-0.4,0.7-0.9,0.5-1.6c-0.1-0.3-0.2-0.5-0.3-0.7c-0.7-1.5-1.4-3-2.1-4.4C167.4,208,167.2,207.4,167,206.9 M187.3,443.3
					c0-0.9-0.2-1.3-0.8-1.4c-0.6-0.2-1.1,0.1-1.5,0.6c-0.2,0.3-0.3,0.5-0.4,0.8c-0.2,0.4-0.5,0.6-0.9,0.4c-0.2-0.1-0.4-0.4-0.5-0.7
					c-0.3-0.8-0.8-1-1.5-0.7c-0.6,0.3-0.7,0.8-0.8,1.4c0,0.3-0.3,0.7-0.5,0.8c-0.2,0.1-0.6-0.1-0.8-0.3c-0.2-0.1-0.2-0.3-0.4-0.4
					c-0.4-0.3-0.8-0.7-1.3-0.9c-0.2-0.1-0.8-0.1-0.9,0.1c-0.2,0.2-0.2,0.7,0,1c0.4,0.6,0.9,1.1,1.4,1.6c0.1,0.1,0.3,0,0.4,0
					c2.3-0.7,4.6-0.7,7-0.2c0.2,0,0.5,0,0.6-0.2C187,444.6,187.3,443.9,187.3,443.3 M178.1,447.3c0.3,0.3,0.5,0.5,0.8,0.6
					c0.8,0.6,1.7,0.8,2.7,0.8c1.6,0.2,3.2,0.2,4.7-0.4c0.4-0.1,0.6-0.4,1-0.7c-0.3-0.3-0.6-0.7-1-0.9c-0.8-0.3-1.7-0.5-2.6-0.6
					c-0.9-0.1-1.8,0-2.7,0C180.1,446.3,179.1,446.6,178.1,447.3 M162.1,160.8c1.2,0.7,2,1.7,2.3,3.1c0.1,0.9,0.2,1.8,0.1,2.6
					c-0.2,1.3,0.6,2.2,1.3,3.2c0-0.2,0.1-0.2,0.1-0.3c0.1-1.7,0.3-3.3,0.4-5c0-0.1,0-0.3,0-0.4c-0.8-1.2-1.5-2.4-2.8-3.1
					C163.1,160.7,162.7,160.6,162.1,160.8 M128.5,444c0-0.1,0-0.1,0.1-0.2c-0.1-0.1-0.3-0.3-0.4-0.4c-0.4-0.3-0.8-0.5-1.2-0.8
					c-1.4-1.1-3-1.6-4.7-1.8c-0.5-0.1-1.1-0.1-1.6,0.3c0.9,1.1,1.1,1.7,2.6,1.8c0.2,0,0.4,0.1,0.6,0.1c1,0.3,2,0.5,3,0.8
					C127.4,444,128,444,128.5,444 M158.3,161c0-0.1,0-0.1,0-0.2c-0.3,0.1-0.7,0-0.8,0.2c-0.9,1.5-2,2.9-2.1,4.7c-0.1,1-0.2,2-0.3,3
					c0.1,0,0.1,0,0.2,0c0.4-0.6,0.8-1.2,1.1-1.9c0.2-0.4,0.3-0.8,0.3-1.2C156.8,164,156.9,162.3,158.3,161 M163.3,165.9
					c0-0.4,0-0.9,0-1.4c-0.1-1.4-0.9-2.4-2.2-2.9c-1.1-0.4-2.4,0.3-2.6,1.3c0.2-0.2,0.3-0.4,0.5-0.5c0.8-0.6,1.5-0.9,2.1,0
					c0.3,0.3,0.5,0.7,0.7,1C162.3,164.3,162.8,165.1,163.3,165.9"/>
				<path class="st14" d="M193.7,290.1c-0.1,1.7-0.2,3.3-0.3,5c-0.1,1.6-0.2,3.2-0.3,4.8c-0.2,5-0.4,10-0.6,15.1
					c-0.1,3.6-0.3,7.3-0.5,10.9c-0.2,3.8-0.5,7.6-0.8,11.5c-0.3,4-0.6,8.1-0.9,12.1c-0.1,2,0.2,4,0.6,6c1.2,5.6,2.3,11.2,3.3,16.7
					c0.9,5,1.8,10.1,2.5,15.1c0.7,4.4,1.2,8.8,1.8,13.3c0.4,3.9,0.7,7.8,1.1,11.7c0.4,4.2,0.8,8.5,1.2,12.7c0.3,2.7,0.4,5.4,0.7,8.1
					c0.2,2.1,0.4,4.1,0.6,6.2c0,0.3,0.1,0.7,0,1c0,0.2-0.2,0.4-0.4,0.4c-1.1,0.4-2.2,0.8-3.3,1.1c-3.1,0.7-6.1,1.4-9.2,2.1
					c-0.2,0-0.4,0.1-0.7,0.1c0.2-1.4,0-2.6-1.4-3.2c-1.2-0.5-2.2,0-3,0.9c-1.7-1.2-3-0.9-4.1,0.9c-2-1.7-4.1-1.3-4.3,1
					c-1.7-0.6-3.5-1.3-5.3-1.9c0.2-0.4,0.4-0.8,0.6-1.1c0.6-1,0.9-2,0.8-3.1c-0.2-2.8-0.2-5.5-0.3-8.3c-0.1-2.1-0.1-4.2-0.3-6.2
					c-0.2-3.1-0.5-6.2-0.7-9.3c-0.2-2.3-0.4-4.6-0.7-6.9c-0.3-3-0.7-6-1.1-9c-0.5-3.4-1-6.8-1.6-10.2c-0.6-3.9-1.4-7.9-2.4-11.7
					c-0.3-1-0.4-2-0.5-3c-0.1-0.4,0.1-0.8,0.1-1.3c0-1.1-0.3-1.6-1.3-1.9c-0.1,0-0.2-0.1-0.4-0.1c0.3-0.5,0.5-1,0.8-1.5
					c0.3-0.5,0.6-1,0.8-1.6c0.3-0.9-0.1-1.5-1-1.8c-0.4-0.1-0.9-0.1-1-0.4c-0.2-0.2,0-0.7,0-1.1c0-2.7,0.1-5.5,0.1-8.2
					c0-1.9-0.1-3.8-0.1-5.7c-0.2-3.9-0.3-7.8-0.5-11.8c-0.1-2.8-0.2-5.5-0.3-8.3c-0.2-4.3-0.4-8.5-0.6-12.8
					c-0.1-2.9-0.3-5.9-0.5-8.8c-0.3-5-0.6-10.1-0.8-15.1c0.2-0.1,0.4-0.3,0.7-0.5c0.7,0.6,1.6,1.2,2.5,0.7c0.8-0.4,0.9-1.3,0.7-2.2
					c1.1,0.2,1.6-0.5,1.9-1.4c0.4-1.1,0.7-2.2,1-3.3c0.5,0.2,1.1,0.3,1.6,0.5c3.9,1.2,7.9,2,12,2.4c3.1,0.3,6.1,0.6,9.2,0.9
					C190.5,289.6,192.1,289.9,193.7,290.1 M175.7,291.2c-0.1,0-0.1,0-0.2,0c0,0.2,0,0.4,0,0.6c0,1.3,0,2.6,0,3.8c0,11-0.1,22,0.3,33
					c0.2,3.7,0.3,7.4,0.5,11.2c0.1,2.6,0.3,5.2,0.4,7.8c0.1,4.2,0.2,8.4,0.3,12.6c0,1,0.2,2,0.3,3.1c0,0.2,0.2,0.5,0.4,0.5
					c0.6,0.2,0.5,0.5,0.2,0.8c-0.4,0.6-0.9,1.2-1.3,1.8c-0.4,0.5-0.3,0.9,0.3,1.2c0.5,0.2,0.8,0.6,0.9,1.1c0.2,0.7,0.5,1.4,0.3,2.2
					c0,0.1,0,0.3,0,0.5c0.2,2.1,0.5,4.2,0.7,6.2c0.2,2.4,0.4,4.8,0.6,7.2c0.3,3.9,0.6,7.8,0.9,11.7c0.2,2.8,0.4,5.5,0.6,8.3
					c0.3,3.7,0.5,7.4,0.8,11.1c0.2,3.3,0.5,6.6,0.7,9.9c0.3,4,0.5,8.1,0.8,12.1c0.1,0.7,0.1,1.4,0.3,2.1c0,0.2,0.3,0.4,0.5,0.6
					c0.2-0.2,0.4-0.4,0.5-0.7c0.1-0.2,0-0.5,0-0.7c-0.1-2.2-0.3-4.3-0.4-6.5c-0.2-2.7-0.4-5.5-0.6-8.2c-0.2-2.8-0.4-5.5-0.6-8.3
					c-0.2-2.8-0.4-5.7-0.6-8.6c-0.2-2.7-0.4-5.5-0.6-8.2c-0.2-3.1-0.4-6.3-0.7-9.4c-0.2-3.1-0.5-6.2-0.8-9.3
					c-0.2-2.5-0.5-5.1-0.8-7.6c-0.1-1.1-0.3-2.1-0.6-3.2c-0.3-1.2-0.4-2.5-1.7-3.2c0.3-0.4,0.5-0.7,0.7-1.1c0.3-0.4,0.5-0.9,0.7-1.4
					c0.2-0.4,0.1-0.8-0.3-0.9c-0.4-0.2-0.5-0.5-0.5-0.9c-0.1-1.5-0.1-3-0.2-4.6c-0.2-5.6-0.4-11.1-0.6-16.7
					c-0.1-3.4-0.3-6.8-0.4-10.2c-0.2-6.6-0.4-13.2-0.6-19.9c-0.2-5.6-0.3-11.3-0.4-16.9C175.7,293.2,175.7,292.2,175.7,291.2"/>
				<path class="st14" d="M128.1,437.5c0-1.6-0.3-2.2-1.3-2.6c-1-0.4-1.7-0.1-2.7,1.2c-0.3-0.4-0.6-0.8-0.9-1.2
					c-0.9-0.9-1.8-0.9-2.5,0.2c-0.1,0.1-0.2,0.2-0.2,0.3c-0.1,0-0.1,0-0.2,0c0-0.2-0.1-0.4-0.1-0.5c0.5-1.8,0.9-3.7,1.4-5.5
					c0.4-1.4,0-2.5-1-3.4c-0.3-0.3-0.6-0.6-0.9-0.9c0.4-0.2,0.7-0.4,1-0.6c1.5-0.7,2.1-1.9,2.2-3.6c0.2-5,0.5-10,0.6-15.1
					c0.1-5.3,0-10.7-0.1-16c0-1.8-0.1-3.7-0.1-5.5c-0.2-4.4-0.4-8.8-0.7-13.1c-0.2-2.9-0.4-5.8-0.7-8.8c-0.4-4.6-1-9.1-1.8-13.6
					c-0.4-2.1-0.8-4.2-1.5-6.3c-0.2-0.5,0-1.1,0.1-1.7c0.5-4.7,1.1-9.4,1.6-14.1c0.5-4.6,0.8-9.3,1.2-13.9c0.4-4.9,0.7-9.7,1.1-14.6
					c0.2-2.4,0.3-4.8,0.5-7.3c0-0.2,0.2-0.4,0.3-0.4c1.5-0.4,3-0.7,4.5-1.1c-0.1,0.8-0.2,1.6-0.3,2.4c-0.2,2.4-0.5,4.8-0.7,7.2
					c-0.3,3.9-0.6,7.7-0.8,11.6c-0.2,3.4-0.4,6.8-0.7,10.1c-0.3,4-0.5,8-0.8,12c-0.2,3.1-0.5,6.1-0.7,9.2c-0.1,1.5-0.2,2.9-0.2,4.4
					c0.1,1.7,0.3,3.4,0.6,5.1c0.6,4.3,1.2,8.6,1.8,12.9c0.5,3.5,0.9,7,1.2,10.6c0.3,2.9,0.5,5.8,0.7,8.7c0.3,5.2,0.6,10.5,0.7,15.7
					c0.1,5.7-0.1,11.4-0.1,17.1c0,2.8,0,5.5,0,8.3c0,0.5-0.2,0.9-0.5,1.3c-0.5,0.4-1,0.8-1.4,1.3c-0.6,0.7-0.5,1.3,0.2,1.8
					c0.2,0.2,0.5,0.3,0.7,0.5c0.5,0.3,0.6,0.7,0.3,1.2c-0.2,0.3-0.4,0.5-0.6,0.8c-0.4,0.6-0.5,0.7-0.4,1.5c1.1-0.5,1.8-1.4,2-2.5
					c0.2-0.7-0.1-1.3-0.7-1.7c-0.3-0.2-0.6-0.4-1-0.7c0.4-0.4,0.8-0.7,1.2-1.1c0.9-0.7,1.2-1.6,1.2-2.7c0-8.8,0.1-17.5,0.1-26.3
					c0-4.6-0.3-9.2-0.6-13.8c-0.2-3.7-0.5-7.3-0.9-11c-0.3-3.1-0.7-6.1-1.1-9.1c-0.4-3.2-0.9-6.5-1.3-9.7c-0.3-2.1-0.7-4.3-0.9-6.4
					c-0.1-1.5-0.1-3,0-4.5c0.2-3.2,0.5-6.3,0.7-9.5c0.3-3.9,0.6-7.9,0.8-11.8c0.2-2.9,0.4-5.9,0.6-8.8c0.2-3.9,0.5-7.7,0.7-11.6
					c0.2-3.3,0.4-6.6,0.6-9.9c0-0.7,0.1-1.4,0.1-2.1c0-0.4,0.2-0.4,0.5-0.4c3.5-0.8,7.1-1.7,10.6-2.5c0.8-0.2,1.5-0.4,2.3-0.6
					c0.2,0,0.3-0.1,0.5-0.1c0.1,1.8,0.1,3.5,0.2,5.2c0,0,0,0,0.1,0c0-0.7,0-1.4,0-2c0-0.7,0-1.4,0-2.1c0.1-1.5-0.2-1.1,1.2-1.4
					c0.2-0.1,0.6,0,0.8,0.2c2.7,2.3,5.8,4,9.1,5.4c0.6,0.3,1.3,0.4,1.9-0.1c-0.3,1.4-0.5,2.9-0.8,4.3c-0.8,4.6-1.6,9.3-2.5,13.9
					c-0.9,4.3-1.9,8.5-2.8,12.8c-1,4.9-1.9,9.9-2.8,14.8c-0.3,1.5-0.5,3-0.8,4.4c-0.2,1.1,0,1.5,1,2c0.4,0.2,0.8,0.4,1.2,0.6
					c-0.4,0.5-0.7,0.9-1,1.4c-0.3,0.5-0.5,1.1-0.7,1.7c-0.1,0.2,0,0.4,0,0.5c0.5,2,0.6,4.1,0.9,6.1c0.4,3.2,0.8,6.4,1.1,9.6
					c0.3,3.1,0.7,6.2,1,9.3c0.4,3.5,0.8,7.1,1.2,10.6c0.4,3.3,0.7,6.5,1.1,9.8c0.4,3.3,0.8,6.7,1.1,10c0.3,2.6,0.5,5.2,0.8,7.8
					c0.3,3.3,0.6,6.6,0.8,9.9c0.2,2.4,0.3,4.8,0.4,7.2c0.1,2.3,0.2,4.7,0.4,7c0,0.5-0.1,0.8-0.6,1c-2.6,1.2-5.3,2.1-8.1,2.7
					c-3.9,0.8-7.9,1.2-12,0.8c-1-0.1-2.1-0.3-3.1-0.4c-0.1,0-0.2-0.1-0.3-0.2c-0.5-1.2-1.1-1.6-2.3-1.6
					C128.5,437.5,128.3,437.5,128.1,437.5"/>
				<path class="st15" d="M167,144.8c-0.2-1.7-0.4-3.3-0.6-4.9c0-0.1-0.1-0.2-0.2-0.3c-0.1,0-0.3,0.1-0.3,0.2
					c-0.1,0.3-0.1,0.7-0.1,1c0.1,1.3,0.2,2.6,0.3,3.9c0,0.3-0.1,0.6-0.2,0.8c-1.1,1.4-2.6,2-4.3,2.2c-2.9,0.4-5.6-0.2-8.3-0.9
					c-1.1-0.3-2-1-2.6-1.9c-0.3-0.5-0.5-1.2-0.5-1.8c-0.1-1.1,0-2.3,0-3.5c0-0.1,0-0.3,0-0.4c-0.1-0.2-0.2-0.3-0.3-0.5
					c-0.1,0.2-0.3,0.3-0.3,0.5c-0.1,1.6-0.3,3.2-0.4,4.8c-0.5-0.1-1-0.2-1.4-0.4c-1.2-0.4-2.4-0.8-3.6-1.4c-0.8-0.3-1.5-0.8-2.1-1.4
					c-0.9-0.8-1.7-1.8-2.5-2.7c-0.7-0.8-1-1.9-1.2-2.9c-0.5-2.5-1-4.9-1.4-7.4c-0.3-1.9-0.5-3.8-0.7-5.8c-0.1-1-0.3-2-0.4-3
					c0-0.2-0.2-0.4-0.3-0.5c-0.3-0.2-0.5-0.5-0.4-0.9c0.1-0.5,0.3-1.1,0.4-1.6c0.3-1.1,0.7-2.2,0.9-3.3c0.7-3.4,2.5-6.2,4.7-8.8
					c3-3.6,6.5-6.4,10.5-8.7c2.2-1.2,4.6-2,7.1-2.6c0.2,0,0.4,0,0.5,0.1c1,0.4,2,0.8,2.9,1.2c3.1,1.6,6.3,2.9,9.2,4.8
					c4.9,3.3,8.7,7.5,10.6,13.1c0.4,1.2,0.7,2.5,1,3.8c0.2,0.6,0.5,1.2,0.7,1.9c0.1,0.3,0,0.7,0,1c-0.1,0.7-0.2,1.3-0.2,2
					c0.2,3.4,0.2,6.8-0.4,10.2c-0.3,2-0.9,3.9-1.6,5.8c-0.6,1.4-1.3,2.9-2.5,3.9c-0.9,0.7-2,1.4-3.1,1.8c-2.6,0.9-5.3,1.7-8,2.5
					C167.6,144.7,167.3,144.7,167,144.8 M163.6,120.2c0,0-0.1-0.1-0.1-0.1c0.1-0.4,0.2-0.9,0.3-1.3c0.3-1,0.9-1.6,1.9-1.7
					c0.7-0.1,1.4-0.1,2.1-0.2c0.2,0,0.3-0.1,0.5-0.2c-0.1-0.1-0.3-0.3-0.4-0.3c-0.9,0-1.8,0-2.6,0.1c-0.8,0.1-1.4,0.6-1.7,1.4
					c-0.6,1.5-0.8,3.1-0.5,4.7c0.3,2,1.4,3.6,2.8,5c0.2,0.2,0.4,0.4,0.7,0.5c0.2,0.1,0.4,0.1,0.6,0.1c0-0.2,0-0.4-0.1-0.6
					c-0.4-0.6-0.8-1.1-1.2-1.7c-0.7-1-1.3-2.1-2-3.1c-0.1-0.2-0.2-0.5-0.3-0.7l0.1-0.1c1.4,1.2,3.1,1.6,4.8,1.4
					c1.7-0.2,3.4-0.7,4.6-2.3c0.4,0.3,0.9,0.6,1.3,0.9c0.3,0.2,0.7,0.3,1.1,0.5c0.1,0,0.3,0,0.4-0.1c0.1,0,0-0.2,0-0.3
					c-0.3-0.4-0.5-0.9-0.9-1.2c-1.6-1.2-3.5-1.9-5.5-2.4c-0.7-0.2-1.4-0.2-2.1-0.3C165.6,118.3,164.4,118.9,163.6,120.2
					 M152.2,120.4c-1.4-1.6-2-1.8-4-1.8c-3.3,0-6,1.5-8.4,3.6c-0.1,0.1-0.1,0.4-0.2,0.6c0.2,0,0.5,0.2,0.7,0.1
					c0.6-0.3,1.1-0.6,1.6-0.9c0.5-0.3,1-0.6,1.5-0.9c0.9,1.6,2.2,2.3,3.9,2.4c1.6,0.2,3.1-0.3,4.5-1c-0.8,1.7-1.7,3.3-2.6,4.9
					c-0.1,0.1-0.1,0.3-0.1,0.5c0.2,0,0.4,0.1,0.5,0c0.3-0.3,0.7-0.6,0.9-0.9c0.6-1,1.2-1.9,1.7-2.9c0.9-1.9,0.9-3.9-0.1-5.8
					c-1.1-2-2.5-2.6-4.7-2c-0.4,0.1-0.8,0.3-1.1,0.5c-0.1,0-0.1,0.2-0.1,0.4c0.1,0,0.2,0.1,0.4,0.1c0.1,0,0.2-0.1,0.3-0.1
					c1.4-0.7,2.8-0.6,3.7,0.4c0.6,0.6,1,1.4,1.4,2.1C152,119.7,152.1,120,152.2,120.4 M164,132.4c0.3,1.1,0.6,2.1,0.9,3.1
					c0.1,0.2,0.2,0.3,0.4,0.4c0.1-0.2,0.2-0.4,0.1-0.6c-0.3-2-0.8-4-1.7-5.9c-0.8-1.8-1.6-3.6-2.5-5.4c-0.1-0.1-0.3-0.2-0.5-0.3
					c0,0.2-0.1,0.4,0,0.5c0.8,2,1.6,3.9,2.4,5.9c0.2,0.5,0.1,1-0.2,1.3c-0.3,0.3-0.7,0.7-1.1,0.8c-1.2,0.4-2.5,0.8-3.8,0.9
					c-1.5,0.2-3-0.1-4.3-0.8c-0.8-0.4-1.1-1.5-0.8-2.3c0.6-1.9,1.3-3.8,1.9-5.6c0-0.1,0.1-0.3,0.1-0.5c0-0.1-0.1-0.3-0.2-0.3
					c-0.1,0-0.2,0.1-0.3,0.1c-0.1,0.1-0.1,0.2-0.1,0.3c-0.5,1.2-0.9,2.5-1.4,3.7c-0.8,2-1.6,3.9-2,6c-0.2,0.9-0.3,1.9-0.5,2.8
					c0,0.1,0.1,0.3,0.2,0.4c0.1-0.1,0.3-0.2,0.3-0.4c0.1-0.3,0.1-0.7,0.2-1c0.3-1.2,0.7-2.4,1-3.6c0.5,1.1,1.4,1.6,2.4,1.9
					c1.7,0.6,3.5,0.6,5.3,0.2C161.3,133.9,162.8,133.6,164,132.4 M157,140.3C157,140.2,157,140.2,157,140.3c1-0.1,1.9-0.2,2.9-0.2
					c1.7-0.1,3.5-0.1,5.2-0.6c0.5-0.2,0.9-0.5,1.1-1c0.1-0.2,0-0.6-0.2-0.7c-0.2-0.2-0.5,0-0.7,0.2c-0.2,0.2-0.5,0.4-0.7,0.5
					c-0.8,0.2-1.7,0.3-2.6,0.4c-2.8,0.2-5.5,0.4-8.3,0c-0.9-0.1-1.9-0.1-2.6-0.8c-0.1-0.1-0.5,0-0.7,0.1c-0.3,0.2-0.2,0.8,0.2,1
					c0.5,0.3,1,0.5,1.5,0.6C153.6,139.9,155.3,140.1,157,140.3 M165.8,114.2c-1.1,0.1-2,0.1-2.9,0.2c-0.2,0-0.4,0.2-0.4,0.3
					c0,0.1,0.1,0.4,0.3,0.4c0.3,0.1,0.7,0.2,1,0.2c1.9,0.1,3.9,0.2,5.8,0.3c1.9,0.1,3.8,0.5,5.4,1.6c0.1,0.1,0.3,0.2,0.4,0.2
					c0.2,0,0.5-0.1,0.6-0.3c0.1-0.1,0-0.4-0.1-0.6c-0.1-0.1-0.2-0.2-0.4-0.3c-1.1-0.7-2.3-1.3-3.6-1.5
					C169.9,114.6,167.8,114.4,165.8,114.2 M150.9,114.4c-2,0.2-4,0.3-6.1,0.5c-1.7,0.2-3.3,0.6-4.3,2.1c-0.1,0.1-0.2,0.3-0.1,0.4
					c0,0.1,0.2,0.2,0.3,0.1c0.4-0.1,0.8-0.2,1.2-0.4c0.8-0.5,1.6-0.9,2.6-1c2.3-0.2,4.6-0.4,6.9-0.5c0.3,0,0.7,0,1-0.1
					c0.2-0.1,0.4-0.3,0.6-0.5c-0.2-0.2-0.3-0.4-0.5-0.5C152.1,114.4,151.5,114.4,150.9,114.4 M159.2,112.9c0-1.5-0.8-2.3-2.3-2.3
					c-0.8,0-1.5,0.6-1.5,1.4c0,0.5,0,1.1,0.2,1.6c0.4,1,1.3,1.6,2.1,1.5c0.9-0.1,1.4-1,1.5-2.1C159.2,112.9,159.2,112.9,159.2,112.9
					"/>
				<path class="st16" d="M137.6,281.4c-0.8-1.8-1.6-3.4-2.4-5.1c-2.1-4.3-4.5-8.4-7.3-12.3c-2.8-4-5.5-8-8-12.1
					c-1.3-2.1-2.8-4-4.2-6c-1.1-1.6-2.2-3.3-3.4-4.9c-0.7-0.9-0.9-1.6-0.7-2.7c0.5-3,1-6.1,1.4-9.1c0.5-3.7,1.1-7.5,1.5-11.2
					c0.4-4,0.8-8,1.1-12c0.3-3.3,0.6-6.5,0.8-9.8c0.2-2.2,0.3-4.4,0.4-6.6c0.3-3.5,0.6-7,0.9-10.4c0.4-3.2,0.8-6.3,1.3-9.5
					c0.1-0.5,0.2-1.1,0.3-1.6c0.5-1.4,1.5-2.3,3-2.4c1.2-0.1,2.4-0.2,3.6-0.4c-0.1,0.2-0.2,0.5-0.3,0.7c-0.7,1.6-0.7,3.3-0.2,4.9
					c0.8,2.7,2.3,5,4,7.1c0.2,0.3,0.3,0.5,0.2,0.9c-0.6,3.2-1.2,6.4-1.7,9.7c-0.3,2.2-0.4,4.4-0.5,6.6c-0.2,2.9,0.3,5.8,1.5,8.5
					c0.8,1.7,1.5,3.5,2.3,5.2c1.5,3.2,1.9,6.5,1,10c-0.8,3.1-1.6,6.3-2.3,9.4c0,0.1-0.1,0.2-0.1,0.4c-1.6-4.2-3.1-8.3-4.6-12.3
					c-0.3,0.8,1.2,6.5,2.9,11.1c-1.8-1-3.7-2.1-5.6-3.1c0,0,0,0,0,0c1.2,1,2.5,2,3.7,3l-0.1,0.2c-1.7-0.2-3.5-0.7-5.2,0.1
					c0.7,0.6,1.4,0.6,2.2,0.7c1.7,0.3,3.5,0.5,5.2,0.8c0.5,0.1,0.8,0.3,1,0.8c1.1,2.8,2.1,5.6,3.3,8.4c1.4,3.3,3,6.5,5.3,9.2
					c2.2,2.5,4.5,4.9,6.7,7.3c0.9,1,1.8,2,2.8,3c0.2,0.2,0.2,0.4,0,0.6c-2.3,3-4.1,6.3-5.8,9.7c-1.7,3.5-2.9,7.2-3.6,11
					C138,280,137.8,280.6,137.6,281.4"/>
				<path class="st16" d="M179.2,278.2c-1-3.7-2.3-7.2-3.8-10.6c-1.5-3.4-3.3-6.7-5.9-9.4c0.8-0.7,1.7-1.4,2.5-2.1
					c2.8-2.8,5.6-5.5,8.4-8.4c2.8-2.8,5.3-5.9,7.8-9c2.3-2.9,4.7-5.7,7.4-8.2c0.2-0.2,0.4-0.5,0.5-0.7c0.2-0.4-0.2-0.8-0.6-0.6
					c-0.3,0.1-0.6,0.3-0.8,0.6c-1.3,1.4-2.6,2.7-3.9,4.1c-0.1,0.1-0.2,0.2-0.4,0.3c0-0.2,0-0.5,0-0.7c0.9-3.8,1.8-7.6,2.6-11.3
					c0.2-1.1,0.3-2.3,0.4-3.4c0-0.3-0.1-0.7-0.3-1c-1.2,3.4-1.7,7-2.7,10.4c0.1-1.1,0.1-2.3,0.2-3.4c0-1.2,0-2.3,0-3.5
					c0-1.2-0.2-2.3-0.9-3.4c-0.4,4.5-0.2,9,0,13.7c-0.1-0.4-0.2-0.8-0.4-1.1c-0.1-0.4-0.3-0.7-0.4-1.1c-1-3.2-2.1-6.3-3.1-9.5
					c-0.4-1.3-0.7-2.7-0.9-4.1c-0.2-1.2,0.2-2.5,0.7-3.6c1-2.3,2.2-4.5,3.3-6.7c1-2,1.9-4,2.6-6.2c0.9-3.1,0.8-6.1-0.1-9.1
					c-0.6-2-1.2-4-1.8-5.9c-0.3-1-0.5-2-0.7-3c-0.1-0.3,0-0.6,0.2-0.8c2.3-2.9,3.6-6.2,4.2-9.8c0.3-1.7,0.2-3.3-0.2-5
					c0-0.1,0-0.2-0.1-0.3c0.8,0,1.5-0.1,2.2,0c1.2,0.3,2.3,0.7,3.4,1.1c0.8,0.3,1.2,0.9,1.3,1.9c0.1,1.4,0.5,2.8,0.5,4.2
					c0.1,2.3,0,4.7,0.1,7c0.1,3.3,0.2,6.6,0.5,9.8c0.2,3.1,0.5,6.3,0.9,9.4c0.3,3,0.7,5.9,1.1,8.9c0.4,2.9,0.8,5.9,1.3,8.8
					c0.7,4.3,1.5,8.7,2.3,13c0.6,3.4,1.3,6.7,1.9,10.1c0.1,0.4-0.1,0.9-0.3,1.2c-0.9,1.3-1.8,2.5-2.7,3.7
					c-5.1,6.3-10.3,12.6-15.4,18.9c-2.1,2.6-4.1,5.4-6.1,8.1c-1.4,1.8-2.7,3.6-4.1,5.5C179.6,277.3,179.5,277.7,179.2,278.2"/>
				<path class="st16" d="M143.8,191.3c-0.1,0.6-0.3,1.1-0.4,1.6c-0.2,0.8,0.2,1.5,0.8,2.1c0.5,0.5,1,1.1,1.4,1.7
					c0.4,0.6,0.4,1.3,0.1,2c-0.4,1.1-0.7,2.2-1,3.2c-0.4,1.3-0.1,1.8,1.2,2.1c0.3,0.1,0.6,0.1,0.9,0.2c1,0.2,1.5,0.7,1.4,1.7
					c0,0.9-0.3,1.7-0.4,2.6c-0.1,1-0.2,2-0.2,3c0,1.2,1.4,2.6,2.8,2.1c0.2,0,0.3,0,0.5-0.1c0.5-0.1,0.7,0.1,0.7,0.6
					c0,0.9,0,1.7,0.1,2.6c0.2,1.7,1.2,2.8,2.7,3.5c0.8,0.3,1.6,0.2,2.2-0.5c0.3-0.3,0.5-0.7,0.9-1c0.2-0.2,0.5-0.3,0.7-0.4
					c0.1,0.3,0.3,0.5,0.3,0.8c-0.1,3.8-0.1,7.6-0.2,11.4c-0.1,7.5-0.2,15.1-0.3,22.6c0,2.3,0,4.7,0.1,7c0,0.4-0.1,0.6-0.5,0.8
					c-0.8,0.5-1.4,0.5-2.2,0.1c-0.9-0.5-1.9-0.7-2.9-1c-0.2,0-0.4,0-0.5,0c-1.2-0.1-2.3-0.2-3.6-0.3c0.3-0.5,0.6-0.9,0.9-1.4
					c0.4-0.5,0.3-0.8-0.3-1.1c-0.2-0.1-0.3-0.2-0.5-0.4c-3.1-3.4-6.3-6.7-9.4-10.2c-2.1-2.3-3.4-5-4.6-7.8c-1.2-2.8-2.2-5.6-3.3-8.4
					c-0.1-0.2-0.1-0.5,0-0.8c0.8-3.2,1.5-6.3,2.3-9.5c0.5-2.2,1-4.4,0.7-6.6c-0.2-2.1-0.8-4-1.7-5.9c-1.3-2.7-2.6-5.5-3.2-8.5
					c-0.3-1.5-0.2-3-0.2-4.6c0-4.3,0.7-8.5,1.5-12.7c0.1-0.8,0.3-1.6,0.5-2.6c1.9,2.4,3.6,4.7,5.8,6.6
					C138.9,188.1,141.3,189.8,143.8,191.3"/>
				<path class="st16" d="M187.7,182c0.3,1.2,0.7,2.4,1,3.5c0.6,2.2,1.3,4.3,1.9,6.5c0.7,2.9,0.3,5.8-0.8,8.6
					c-1.1,2.6-2.4,5-3.6,7.6c-0.7,1.5-1.4,2.9-2,4.4c-0.7,1.7-0.6,3.5-0.1,5.2c1,3.4,2.1,6.8,3.1,10.2c0.6,1.8,1.2,3.6,1.7,5.4
					c0.1,0.2,0.1,0.5,0,0.8c-0.2,0.8-0.4,1.6-0.6,2.4c0,0.2-0.1,0.3-0.2,0.5c-4.8,6.3-10.3,11.9-16,17.3c-1,1-2.2,1.9-3.3,2.8
					c-0.1,0.1-0.5,0.2-0.6,0.1c-1.3-0.4-2.6-0.6-3.8,0.1c-1.5,0.8-2.9,1.6-4.4,2.4c-0.2,0.1-0.4,0.2-0.6,0.3c0-0.3-0.1-0.5-0.1-0.7
					c0-5.6,0.1-11.2,0.1-16.8c0-2.7,0.1-5.3,0.1-8c0.1-4.4,0.2-8.8,0.2-13.2c0-0.2,0-0.3,0-0.6c0.8,0.5,1.6,0.6,2.5,0.5
					c1.6-0.3,2.4-1.4,2.5-3.2c0-1,0.2-1.2,1.3-1.2c0.9,0,1.7,0,2.6,0c0.3,0,0.6-0.1,0.9-0.3c2-0.8,2.5-2.2,1.6-4.2
					c-0.5-1.2-0.5-1.4,0.7-2c0.5-0.3,1-0.5,1.6-0.8c1.1-0.6,1.7-1.6,1.9-2.8c0.1-0.7,0-1.3-0.3-2c-0.1-0.2-0.3-0.5-0.4-0.7
					c-1-1.5-0.8-2.6,0.4-4.1c0.4-0.4,0.8-0.8,1.2-1.2c0.3-0.3,0.6-0.7,0.8-1c0.4-0.8,0.3-1.5-0.2-2.2c-0.2-0.2-0.4-0.5-0.6-0.7
					c-0.9-0.9-0.8-1.8-0.1-2.8c0.3-0.4,0.8-0.8,1.2-1.2c2.1-1.6,4.3-3.2,6.3-4.9c1.3-1,2.5-2.3,3.7-3.4
					C187.3,182.4,187.5,182.2,187.7,182"/>
				<path class="st17" d="M187.4,446c0.3-0.7,0.8-0.8,1.5-0.9c1.8-0.2,3.6-0.6,5.3-1c0.4-0.1,0.6,0,0.7,0.4c0.7,2.7,1.6,5.4,2.2,8.2
					c0.4,2,0.5,4.1,0.8,6.2c0.1,0.7,0,1.4,0,2.1c0.1,1.9-0.9,2.7-2.3,3.1c-3.9,1.2-7.8,2.1-11.8,2.5c-2.4,0.3-4.7,0.4-7.1,0.3
					c-2.1,0-4.2-0.1-6.2-0.7c-1.1-0.4-2.1-0.9-3.1-1.3c-0.1-0.1-0.2-0.1-0.3-0.2c-1.3-1.2-1.2-1.4-0.3-2.7c1.4-2,2.7-4,4-6
					c1.3-2.2,2.6-4.5,3.7-6.8c0.6-1.2,1-2.5,1.5-3.8c0-0.1,0.1-0.3,0.1-0.4c0.5,0.4,0.9,0.8,1.3,1.2c-0.7,1.1-0.6,1.7,0.5,2.5
					c1.1,0.8,2.3,1.1,3.6,1.2c1.8,0.2,3.5,0.1,5.2-0.5c0.4-0.1,0.7-0.3,1.1-0.6c0.8-0.6,0.9-1.3,0.3-2.1
					C187.9,446.5,187.7,446.3,187.4,446"/>
				<path class="st15" d="M168.3,272c-0.9,0.2-1.6,0.1-2.4-0.1c-1.5-0.5-3-1.1-4.5-1.7c-0.3-0.1-0.7-0.3-1-0.3
					c-0.5-0.1-0.9-0.2-1.3-0.6c-0.1-0.1-0.3-0.1-0.5-0.1c0,0.2,0,0.4,0.1,0.6c0.8,0.9,1.6,1.8,2.4,2.7c0.8,0.9,1.8,1.6,2.7,2.5
					c1,0.9,1.3,2.1,1.5,3.4c0.3,2.1,0.1,4.2-0.3,6.3c-0.2,1.3-0.6,2.5-0.9,3.7c-0.1,0.3-0.3,0.5-0.5,0.9c-0.3-0.5-0.5-0.8-0.6-1.1
					c-0.3-1.1-0.5-2.2-0.6-3.4c-0.2-1.7-0.4-3.5-0.6-5.2c-0.1-0.9-0.5-1.6-1.2-2.1c-1.6-1.1-3.2-2.1-4.8-3.2
					c-0.4-0.3-0.9-0.5-1.4-0.8c-0.3-0.1-0.7-0.3-0.9,0.1c-0.2,0.4,0.1,0.7,0.4,0.9c1.3,0.7,2.5,1.4,3.8,2.2c0.8,0.5,1.5,1.1,2.2,1.6
					c0.5,0.4,0.7,0.9,0.8,1.5c0.2,2.2,0.4,4.4,0.7,6.7c0.2,1.4,0.5,2.7,0.7,4.1c0,0.2,0.1,0.3,0,0.5c0,0.3-0.2,0.5-0.5,0.3
					c-0.3-0.2-0.6-0.4-0.8-0.6c-0.4-0.5-0.8-1-1.1-1.5c-1.6-2.7-3.2-5.5-4.7-8.3c-0.5-0.9-1-1.6-1.7-2.2c-0.9-0.7-1.8-1.4-2.7-2.1
					c-0.1-0.1-0.3-0.1-0.5-0.1c0,0.2-0.1,0.4,0,0.6c0.4,0.5,0.7,1.1,1.2,1.5c1.5,1.1,2.5,2.6,3.4,4.3c1.2,2.4,2.7,4.7,4,7
					c0.2,0.3,0.4,0.6,0.6,1c-0.4,0.3-0.8,0.1-1.1-0.1c-0.7-0.4-1.5-0.8-2.1-1.4c-1.9-1.8-3.8-3.6-5.7-5.5c-0.9-0.9-1.8-1.8-2.7-2.7
					c-0.3-0.3-0.7-0.8-1.1-0.3c-0.4,0.4,0,0.8,0.3,1.2c2.6,2.6,5.2,5.2,7.8,7.8c0.1,0.1,0.2,0.2,0.3,0.3c0,0,0,0.1,0,0.1
					c-0.3,0-0.6,0-0.9-0.1c-3.6-1.5-6.9-3.5-9.8-6.1c-1.8-1.7-2.5-3.9-3.2-6.1c-0.2-0.6-0.1-1.3-0.6-1.8c-0.1-0.1,0-0.3,0.1-0.5
					c0.9-3.4,2.3-6.5,4-9.6c0.9-1.6,1.8-3.1,2.8-4.7c0.2-0.3,0.4-0.4,0.7-0.4c1.2,0,2.4,0,3.6,0c0.5,0,0.9,0.1,1.3,0.3
					c2.4,0.8,4.5,2.1,6.6,3.5c1.8,1.2,3.6,2.4,5.4,3.6c1.2,0.8,2.3,1.6,3.2,2.8C168,271.6,168.1,271.8,168.3,272"/>
				<path class="st17" d="M128.9,442.4c1-0.4,1.6-1.1,2-2.1c5.3,1.3,10.5,0.6,15.8-0.2c0.1,0.9,0.2,1.7,0.2,2.5c0,1.6,0,3.3,0,4.9
					c0,1.7-0.4,3.2-0.8,4.8c-0.1,0.2-0.2,0.4-0.2,0.7c0,0.6-0.3,1-0.9,1.1c-0.7,0.2-1.4,0.4-2.2,0.5c-0.9,0.1-1.8,0.2-2.7,0.3
					c-0.2,0-0.4,0-0.6,0c-1-0.1-1-0.2-1.1-1.2c-0.1-1.4-1.3-3.1-3.3-2.4c-1.7,0.6-3.4,1.1-5,1.9c-4,1.9-8.1,3.1-12.5,3.8
					c-3.2,0.6-6.4,1.1-9.6,0.8c-2.7-0.2-5.1-1-7.5-2.3c-1.3-0.7-1.4-1.4-0.1-2.2c1-0.7,2-1.2,3.1-1.6c2.5-1,5-1.8,7.5-2.8
					c3.5-1.3,6.8-2.9,9.9-5.2c0.2-0.2,0.4-0.2,0.7-0.1c1.9,0.5,3.8,1.1,5.7,1.5c0.6,0.1,1.3,0,1.9-0.2c0.9-0.3,1-1.1,0.4-1.8
					C129.4,443,129.2,442.7,128.9,442.4"/>
				<path class="st16" d="M166.7,284.4c5.4-1.6,8.9-5,9.8-10.7c0,0,0.1,0,0.1,0.1c0.2,0.6,0.4,1.2,0.6,1.8c0.4,1.4,0.8,2.8,1.3,4.1
					c0.1,0.3,0.4,0.6,0.6,0.6c0.3,0,0.6-0.3,0.8-0.5c0.6-1.1,1.1-2.3,1.9-3.3c1.3-1.8,2.8-3.6,4.1-5.4c2-2.6,3.9-5.2,5.9-7.9
					c0.7-0.9,1.4-1.7,2.1-2.5c0.9,9.7,1.9,19.5,4.3,29.1c-0.6-0.2-1.1-0.3-1.6-0.4c-2.9-0.8-5.9-1.1-8.9-1.4
					c-4.7-0.4-9.5-0.7-14.1-1.7c-2-0.4-4-1-6.1-1.6c-0.2-0.1-0.4-0.2-0.7-0.2C166.7,284.5,166.7,284.5,166.7,284.4"/>
				<path class="st18" d="M149.8,182.6c1.9,1.8,3,2,5.2,0.9c0,0.6,0.1,1.1,0.1,1.6c0.3,2.8,0.7,5.7,1,8.5c0.3,2.2,0.6,4.5,0.8,6.7
					c0.3,3.7,1.1,7.4,2.3,10.9c0.2,0.6,0.2,1.2,0.4,1.8c0.1,0.3,0.3,0.6,0.5,0.7c0.3,0.1,0.7,0.1,0.9,0c0.4-0.3,0.7-0.8,0.8-1.2
					c1.3-3.8,2.1-7.6,2.7-11.5c0.3-2.2,0.7-4.3,1-6.5c0.3-2.7,0.4-5.4,0.6-8.2c0.1-1.2,0.1-2.3,0.2-3.6c0.4,0.1,0.7,0.2,1,0.3
					c0.4,0.1,0.7,0.1,1.1,0.1c1,0,1.5-0.5,1.7-1.4c0.2-1.1,0.1-2.3-0.2-3.4c0-0.1,0-0.2,0-0.3c0.2,0.5,0.4,1,0.7,1.5
					c1.4,2.9,3.3,5.4,5.9,7.3c0.8,0.6,0.9,1.5,0.3,2.3c-0.3,0.3-0.6,0.6-0.9,1c-0.7-0.5-1.3-1.1-1.9-1.6c-1.4-1.3-2.9-2.6-4-4.2
					c-0.1-0.2-0.4-0.3-0.6-0.4c-0.1,0.2-0.3,0.5-0.3,0.7c0.3,1.9,0.5,3.7,0.9,5.6c0.3,1.8,1,3.4,2,4.9c0.8,1.2,1.7,2.1,3.1,2.7
					c-1.1,1-2.1,2-2.6,3.6c-0.9-0.9-1.6-1.7-2.4-2.6c-0.9-1.1-1.8-2.2-2.7-3.3c-0.1-0.2-0.4-0.2-0.7-0.3c-0.1,0.2-0.2,0.5-0.2,0.7
					c0.6,3.2,1.4,6.4,2.7,9.4c0.6,1.3,1.3,2.4,2.4,3.4c-1,0.6-2.1,1-2.5,2.3c-0.2-0.5-0.4-0.8-0.5-1.1c-0.5-1.3-1-2.6-1.6-3.8
					c-0.1-0.1-0.2-0.4-0.3-0.4c-0.2,0-0.3,0.2-0.5,0.3c-0.1,0-0.1,0.1-0.1,0.2c-1.1,2.8-1.7,5.6-1.3,8.6c0,0.2,0.1,0.5,0.2,0.7
					c-0.2,0.1-0.5,0.1-0.7,0.2c-0.7,0.2-1.1,0.7-1.2,1.5c0,0.4,0,0.8-0.1,1.2c-0.1,0.9-0.6,1.5-1.6,1.6c-1,0.1-1.5-0.2-1.8-1.1
					c-0.1-0.3-0.2-0.6-0.3-0.9c-0.6-1.2-1.6-1.4-2.6-0.6c-0.1,0.1-0.2,0.1-0.3,0.2c0.1-0.9,0.2-1.7,0.2-2.6c0.1-2.3-0.1-4.6-0.7-6.8
					c0-0.1-0.1-0.3-0.1-0.3c-0.2-0.2-0.4-0.5-0.6-0.7c-0.2,0.2-0.4,0.4-0.5,0.7c-0.7,1.7-1.6,3.2-2.6,4.7c-0.4-0.2-0.7-0.3-1-0.5
					c0,0,0-0.1,0-0.1c1.6-2.3,2.3-4.9,2.8-7.6c0.4-2.5,0.6-4.9,0.6-7.4c0-0.3,0-0.7-0.2-1c-0.1-0.2-0.3-0.4-0.5-0.4
					c-0.2,0-0.4,0.1-0.5,0.3c-1.7,2.3-3.4,4.6-5.1,6.9c-0.3,0.3-0.5,0.5-0.9,0.3c-0.6-0.2-1.2-0.3-1.9-0.5c0.4-1.1,0.7-2.1,1.1-3.2
					c0-0.1,0.2-0.2,0.3-0.2c1.9-1,3.2-2.6,4.1-4.5c1.2-2.4,1.8-5,2.1-7.6c0.1-0.7,0.2-1.3,0.2-2c0-0.1-0.1-0.4-0.2-0.4
					c-0.1,0-0.3,0.1-0.4,0.2c-1.1,1.1-2.2,2.3-3.4,3.4c-1.3,1.2-2.8,2.3-4.3,3.4c0.1-0.2,0.1-0.4,0.2-0.5c0.2-0.7,0.5-1.4,0.3-2.1
					c0-0.1,0.1-0.3,0.1-0.4c1.9-1.6,3.2-3.7,4.1-6C149.7,182.7,149.8,182.6,149.8,182.6"/>
				<path class="st19" d="M134.4,117.4c-0.7-0.5-1.4-0.9-2.3-1.5c0-0.7,0-1.7,0-2.7c0-2.7-0.1-5.4,0.1-8.1
					c0.4-5.6,2.1-10.8,6.3-14.9c1.7-1.7,3.8-2.8,5.9-3.8c2.3-1,4.6-1.9,7.2-2.3c0.4-0.1,0.7-0.1,1.1-0.1c2,0,4,0,6,0h0.7
					c-0.7,0.6-1.1,1.3-1.1,2.1c0.1,1.6,0.2,3.2,0.4,4.8c0,0.4,0,0.6-0.4,0.7c-8,2-14.2,6.8-19.2,13.2c-2.4,3-3.5,6.4-4.2,10.1
					C134.7,115.7,134.6,116.6,134.4,117.4"/>
				<path class="st19" d="M184.3,116.2c-0.9-5.5-3.2-10.4-7.3-14.4c-3.3-3.2-7.2-5.5-11.3-7.5c-1.7-0.8-3.4-1.6-5.1-2.4
					c-0.4-0.2-0.9-0.3-1.3-0.5c0-1.7,0-3.4,0-5.1c0-0.5-0.1-1-0.1-1.5c0-0.7,0.2-0.8,0.9-0.8c1.3-0.1,2.6-0.2,3.9-0.2
					c2.8,0,5.4,0.8,7.9,2.1c2.9,1.5,5.6,3.5,7.9,5.8c2.7,2.6,4.3,5.8,5.1,9.4c0.6,2.8,0.9,5.7,1.1,8.6c0.1,1.4,0.3,2.9,0.5,4.3
					c0.1,0.5,0,0.7-0.5,0.9C185.4,115.2,184.8,115.8,184.3,116.2"/>
				<path class="st16" d="M117.5,290.5c2.4-9.6,4.8-19.2,7.2-28.9c0.1,0.1,0.2,0.2,0.3,0.2c2.1,3.3,4.4,6.4,6.4,9.8
					c1.6,2.7,2.9,5.6,4.3,8.4c0.6,1.2,1.2,2.4,1.8,3.6c0.1,0.2,0.6,0.3,0.9,0.3c0.3,0,0.4-0.4,0.3-0.7c0-0.1-0.1-0.3-0.1-0.4
					c0.3-1.5,0.6-2.9,1-4.5c0.4,1.1,0.7,2,1.1,2.9c0.4,0.8,0.8,1.6,1.3,2.4c0.3,0.6,0.2,1.2-0.5,1.3c-6.3,1.5-12.6,3-18.9,4.5
					c-1.6,0.4-3.2,0.7-4.8,1C117.7,290.5,117.7,290.5,117.5,290.5"/>
				<path class="st20" d="M151.4,167.9c-1.6,2.2-3.2,4.3-5.2,6.1c-1.2,1.1-2.4,2.3-3.6,3.4c-0.2,0.2-0.3,0.4-0.5,0.6
					c-0.6,0.9-0.6,1.1,0.1,1.9c0.2,0.2,0.3,0.4,0.5,0.7c-0.1,0-0.1,0-0.1,0c-4.1-2.7-7.8-6-10.7-10c-1-1.4-1.9-2.8-2.1-4.5
					c-0.1-0.7-0.2-1.5-0.3-2.2c0-0.3,0.1-0.6,0.4-0.7c2.4-1.4,5-2.3,7.7-2.9c1.8-0.4,3.7-0.7,5.5-1.1c0.3-0.1,0.5,0,0.8,0.3
					c1.3,1.7,2.6,3.4,3.9,5.1c0.9,1.2,2,2.2,3.2,3C151.1,167.7,151.2,167.8,151.4,167.9"/>
				<path class="st15" d="M147.2,144.8c0.1,0,0.2,0.1,0.3,0.1c1.2,0.2,2.2,0.7,3,1.6c1.2,1.3,2.8,1.7,4.5,2c2.4,0.5,4.8,0.9,7.3,0.4
					c1.9-0.4,3.7-1.1,4.8-2.8c0.1-0.1,0.2-0.1,0.2-0.2c1.5-0.4,3-0.8,4.5-1.2c0.2,0,0.3-0.1,0.5-0.1c-0.1,0.9-0.1,1.7-0.2,2.5
					c0,0.9-0.1,1.7-0.1,2.6c0,0.8,0.1,1.7,0.2,2.5c0,0.1,0,0.3-0.1,0.4c-2.3,4-5.5,6.5-10.2,7c-2.3,0.3-4.5,0.2-6.7-0.4
					c-2.6-0.6-4.6-1.9-6.2-4c-0.1-0.2-0.2-0.3-0.4-0.4c-0.9-0.7-1-1.6-1-2.7c0-1.1-0.1-2.3-0.2-3.4
					C147.4,147.3,147.3,146.1,147.2,144.8"/>
				<path class="st20" d="M170.7,167.1c1.5-2,2.9-4.1,4.4-6.1c0.6-0.8,1.2-1.4,1.9-2.1c0.1-0.1,0.4-0.2,0.6-0.2
					c2.5,0.6,5,1.3,7.5,1.9c0.3,0.1,0.7,0.3,0.9,0.5c1.3,1.5,1.9,3.4,2.2,5.3c0.8,3.9-0.5,7.3-2.8,10.4c-1.4,1.9-3.2,3.4-5.1,4.8
					c-0.1,0.1-0.3,0.1-0.5,0.2c0.5-0.7,0.1-1.4,0-2.2c-0.1-0.8-0.2-1.5,0.3-2.3c0.3-0.4,0.1-0.7-0.2-1c-2.5-1.8-4.8-3.9-6.7-6.3
					C172.4,169.3,171.6,168.2,170.7,167.1"/>
				<path class="st15" d="M157.5,262.3c2.5-1.3,4.9-2.6,7.3-3.8c1.2-0.6,2.4-0.2,3.4,0.4c0.8,0.4,1.3,1.3,1.9,2.1
					c2,2.5,3.4,5.4,4.6,8.4c0.3,0.7,0.6,1.5,0.9,2.2c0.1,0.3,0.1,0.5,0,0.8c-0.3,0.7-0.4,1.4-0.6,2c-0.3,0.9-0.4,1.9-0.8,2.7
					c-1,1.9-2.3,3.7-4.3,4.8c-1.2,0.6-2.4,1.2-3.6,1.8c0-0.5,0.1-1,0.1-1.5c0.2-1.8,0.1-3.5-0.3-5.2c-0.3-1.4-1.2-2.5-2.3-3.4
					c-0.4-0.3-0.7-0.7-1-1.1c0.7,0.2,1.3,0.5,2,0.6c1,0.2,2,0.4,3,0.4c1.5,0,2-1.1,1.2-2.4c-0.7-1.2-1.7-2.1-2.9-2.9
					c-2.8-1.9-5.6-3.7-8.4-5.6C157.7,262.5,157.7,262.4,157.5,262.3"/>
				<path class="st19" d="M137.4,136.9c1.1,2.4,2.8,4.1,4.7,5.6c1,0.8,2.3,1.1,3.5,1.6c0.3,0.1,0.5,0.3,0.5,0.6
					c0.1,2.6,0.3,5.3,0.4,7.9c0,0.1,0,0.2,0,0.4c-1.5-0.4-2.9-0.8-4.3-1.5c-1.7-0.9-3.2-2.1-4.5-3.4c-2.7-2.8-3.5-7.6-0.5-10.9
					C137.3,137.1,137.3,137.1,137.4,136.9"/>
				<path class="st19" d="M173.4,144.2c4.5-1,8-3.1,9.4-7.9c0.7,1,0.9,2,1.1,3c0.4,1.9,0.4,3.8,0,5.7c-0.7,3.1-2.5,5-5.4,6
					c-1.4,0.5-2.8,0.8-4.2,1.2c-0.7,0.2-0.9,0-0.9-0.7c0-1.5,0-3.1,0-4.6C173.4,145.9,173.4,145.1,173.4,144.2"/>
				<path class="st20" d="M163.8,181.5c0.5,0.3,0.9,0.5,1.3,0.7c0.1,0.1,0.2,0.3,0.2,0.4c-0.1,1.7-0.3,3.5-0.4,5.2
					c-0.2,4.3-0.6,8.5-1.5,12.7c-0.5,2.5-0.9,5-1.5,7.5c-0.3,1.3-0.8,2.6-1.2,4.1c-0.1-0.5-0.2-0.8-0.3-1.1c-0.9-2.7-1.6-5.4-2-8.1
					c-0.2-2-0.4-4.1-0.7-6.1c-0.5-3.9-1-7.7-1.6-11.6c-0.1-0.6-0.3-1.2-0.5-1.7c0-0.2,0-0.4,0.1-0.6c0.2-0.4,0.6-0.7,0.9-1.1
					c0.1,0.8,0.1,1.6,0.2,2.3c0.6,4,1.1,8,1.7,12.1c0.2,1.7,0.5,3.4,0.8,5c0.1,0.4,0.2,0.8,0.4,1.1c0.1,0.2,0.4,0.4,0.6,0.4
					c0.2,0,0.5-0.3,0.6-0.5c0.2-0.6,0.4-1.3,0.5-2c0.8-3.1,1.1-6.3,1.5-9.4c0.3-2.3,0.6-4.6,0.8-6.9
					C163.9,183.1,163.8,182.4,163.8,181.5"/>
				<path class="st18" d="M159.4,172.6c0.3,1.2,0.5,2.4,0.8,3.6c0.4,1.6,1.3,3,2.4,4.3c0.2,0.2,0.3,0.4,0.3,0.8
					c-0.5,4-0.9,8.1-1.4,12.1c-0.2,1.9-0.6,3.8-0.9,5.7c0,0.2-0.1,0.3-0.2,0.5c-0.2-1.1-0.3-2.1-0.5-3.2c-0.5-3.4-1-6.8-1.6-10.2
					c-0.3-1.8-0.5-3.7-0.8-5.5c0-0.2,0-0.4,0-0.6c0.6-2.4,1.2-4.8,1.8-7.2C159.3,172.7,159.3,172.6,159.4,172.6"/>
				<path class="st20" d="M144.1,190.2c-1.5-1-2.9-2-4.3-3c-2.4-1.7-4.4-3.7-6.2-6c-1.4-1.8-2.8-3.6-4.2-5.4c-1.4-1.8-2.4-3.8-2.9-6
					c-0.3-1.4,0-2.8,0.7-4c0,0,0.1,0,0.1,0.1c0.1,2.9,1.3,5.3,2.9,7.6c2.7,3.8,6,6.9,9.7,9.6c0.6,0.5,1.3,0.9,2,1.3
					c-0.2,0.5-0.4,0.9-0.5,1.4c-0.3,0.9,0,1.5,0.7,2c0.5,0.3,1,0.6,1.4,0.9C144.3,189,144.4,189.4,144.1,190.2"/>
				<path class="st18" d="M144.3,158.1c1-1.1,1.9-2.1,3-3.3c2.1,3.3,5.1,5.2,9.2,5.8c-1.4,2.2-2.8,4.3-4.2,6.5
					c-0.6-0.5-1.2-0.8-1.6-1.2c-0.9-0.9-1.8-1.9-2.6-2.9c-1-1.2-2-2.5-3-3.8C144.8,158.8,144.5,158.4,144.3,158.1"/>
				<path class="st20" d="M160.2,166.7c1.4,4.5,3.4,8.7,6.2,12.4c-1-2.4-1.9-4.7-2.9-7.1c-1-2.4-1.9-4.8-2.9-7.2
					c0.1,0,0.1-0.1,0.2-0.1c1.1,1.6,2.1,3.3,3.3,4.8c1.4,1.8,2.2,3.8,3.3,5.7c1,1.7,1.7,3.6,1.6,5.6c0,1.1-0.3,1.3-1.4,1
					c-3.2-0.7-5.2-2.7-6.3-5.8c-0.6-1.8-0.8-3.7-0.9-5.5C160.4,169.2,160.3,168,160.2,166.7"/>
				<path class="st18" d="M176.3,157.8c-1.1,1.4-2.2,2.7-3.3,4.2c-1.1,1.4-2.1,2.9-3.2,4.4c-0.9-1.2-1.8-2.2-2.6-3.3
					c-0.4-0.5-0.8-1.1-1.2-1.7c-0.3-0.5-0.7-0.9-1-1.3c3.4-0.9,6-3.4,8-6.6C174.1,155,175.2,156.4,176.3,157.8"/>
				<path class="st20" d="M158.9,167.8c-0.2,1.5-0.4,2.9-0.7,4.4c-0.5,2.4-1.1,4.7-1.7,7c-0.3,0.9-0.8,1.8-1.4,2.6
					c-0.4,0.6-1.1,1.1-1.9,1.1c-1.7,0.2-2.9-1.1-2.6-2.8c0.1-0.6,0.3-1.2,0.6-1.7c1.9-3.3,3.8-6.6,5.7-9.9c0.2-0.4,0.5-0.8,0.7-1.2
					c-0.7,3.9-2.2,7.6-3.5,11.4c0.1-0.1,0.2-0.2,0.3-0.3c1.5-1.6,2.4-3.4,3-5.5c0.5-1.6,0.9-3.2,1.3-4.8c0-0.1,0.1-0.3,0.1-0.4
					C158.8,167.8,158.9,167.8,158.9,167.8"/>
				<path class="st18" d="M167.2,165.2c1,1.1,2,2.1,2.9,3.1c0.8,0.9,1.6,1.9,2.3,2.9c1.7,2.2,3.8,4,5.9,5.8c0.3,0.2,0.4,0.4,0.3,0.8
					c-0.3,0.9-0.2,1.8,0,2.7c0,0.2,0.1,0.4,0,0.6c-0.2-0.2-0.5-0.4-0.7-0.6c-3-2.5-5.7-5.4-7.9-8.7c-0.1-0.2-0.3-0.4-0.5-0.6
					c-0.2-0.1-0.4-0.3-0.6-0.2c-0.2,0-0.4,0.3-0.4,0.5c0,0.8,0.1,1.7,0.2,2.5c0.1,0.7,0.3,1.4,0.5,2.2c-0.8-1.6-1.6-3.1-2.4-4.6
					c-0.1-0.1-0.1-0.2-0.1-0.3c0.4-2,0.5-3.9,0.3-5.9C167.2,165.4,167.2,165.4,167.2,165.2"/>
				<path class="st18" d="M144.1,180.8c-0.3-0.6-0.7-1.1-1-1.7c-0.1-0.1,0-0.5,0.1-0.6c0.5-0.6,1-1.3,1.7-1.8c3.4-2.7,6-6.1,8.6-9.5
					c0.1-0.2,0.3-0.3,0.5-0.6c0,1,0,1.8,0,2.7c0,0.1,0,0.3,0,0.4c0.4,0.7,0,1.3-0.4,1.8c-0.7,1.1-1.3,2.2-1.9,3.3
					c-0.1,0.2-0.2,0.3-0.3,0.5c-2.4,1.8-4.8,3.6-7.2,5.4C144.2,180.8,144.1,180.8,144.1,180.8"/>
				<path class="st20" d="M188.9,162c1.2,0.5,1.9,1.3,2.4,2.3c1,2.4,1,4.8,0.5,7.3c-0.8,4.2-3,7.6-5.9,10.6c-2.2,2.2-4.7,4.1-7.2,6
					c-0.2-0.4-0.3-0.8-0.4-1.2c0.1-0.1,0.3-0.2,0.4-0.3c3.1-2.4,6.1-4.8,8.5-7.9c1.8-2.3,3.1-4.9,3.5-7.9c0.2-1.5,0-3-0.2-4.6
					C190.2,164.9,189.8,163.5,188.9,162"/>
				<path class="st21" d="M153.8,197.4c0.2,5.1-1.8,12.6-4.1,15c-0.5-0.2-0.9-0.6-0.8-1.2c0.1-1.2,0.2-2.4,0.4-3.6
					c0.3-1.7,0.2-2.4-0.5-3.7C150.4,201.8,152.1,199.6,153.8,197.4"/>
				<path class="st21" d="M147,198.2c0-1.7-0.7-3-1.9-4.1c-0.1-0.1-0.3-0.2-0.4-0.4c-0.3-0.4-0.2-1,0.2-1.2c2.7-1.5,5.1-3.5,7.2-5.8
					c0.1-0.1,0.1-0.1,0.2-0.2C151.7,191,150.8,195.2,147,198.2"/>
				<path class="st21" d="M145.1,188.1c-0.6-0.4-1.2-0.8-1.8-1.2c-0.6-0.4-0.7-0.5-0.4-1.2c0.4-1,0.8-2.1,1.2-3.1
					c0-0.1,0.1-0.2,0.2-0.3c1.9-1.5,3.9-2.9,5.8-4.4c-0.2,0.6-0.4,1.3-0.6,2c-0.1,0.4-0.1,0.9,0,1.4c0.1,0.5,0,0.9-0.2,1.3
					C148.2,184.8,146.5,187,145.1,188.1"/>
				<path class="st15" d="M135.2,124c0.3,2.2,0.6,4.1,0.8,6.2c-0.1,0-0.3-0.1-0.4-0.1c-1.8-1-3.1-2.3-3.8-4.3
					c-0.7-2.1-1.1-4.3-0.7-6.5c0.1-0.5,0.3-1,0.5-1.5c0.2-0.5,0.6-0.5,1-0.2c0.7,0.7,1.4,1.3,2.1,2.1c0.2,0.2,0.2,0.6,0.3,0.9
					c0,0.2,0,0.3,0,0.5c0.1,0.9,0,1.7-0.9,2.3c-1.2,0.9-1.2,2.5-0.3,3.7c0.1,0.1,0.3,0.2,0.5,0.3c0-0.2,0.1-0.3,0.1-0.5
					c0.1-0.7,0.1-1.3,0.2-2C134.7,124.6,135,124.4,135.2,124"/>
				<path class="st21" d="M169.6,172.8c2.4,3.6,5.2,6.6,8.6,9c-0.5,0.5-1.2,0.8-1.6,1.3c-0.4,0.5-0.5,1.2-0.7,1.8
					C173.4,183.5,169.5,176.1,169.6,172.8"/>
				<path class="st21" d="M172.5,208.7c-3.1-3.5-4-7.8-5-12c0.5,0.6,1,1.3,1.6,1.9c1,1.1,2.1,2.3,3.1,3.4c0.1,0.1,0.2,0.3,0.2,0.4
					c0,1,0.5,1.9,1,2.7c0.7,1,0.5,1.9-0.1,2.8C173.2,208.2,172.9,208.4,172.5,208.7"/>
				<path class="st18" d="M142.4,183.6c-2.6-2.2-5.2-4.3-7.5-6.6c-1.8-1.7-3.3-3.6-4.9-5.4c-0.2-0.2-0.3-0.4-0.5-0.7
					c-1.5-1.9-1.7-4.1-1.3-6.3c0.1-0.3,0.4-0.6,0.7-1c0.1,1,0,1.7,0.1,2.5c0.5,2.7,1.9,4.9,3.5,7c2.8,3.5,6,6.5,9.9,8.7
					c0.1,0.1,0.2,0.3,0.2,0.5c0,0.2-0.1,0.3-0.1,0.5C142.6,183.1,142.5,183.2,142.4,183.6"/>
				<path class="st15" d="M184.7,121.5c0.5,0.3,0.7,0.7,0.7,1.2c0,0.3,0.1,0.6,0.2,0.9c0.1,0.4,0.4,0.5,0.7,0.2
					c0.1-0.2,0.3-0.4,0.3-0.6c0.2-1.2-0.5-2.2-1.7-2.4c-0.1,0-0.3-0.2-0.3-0.3c-0.2-1.4,0.1-2.7,1-3.8c0.8-0.9,1.5-0.8,2.1,0.1
					c0.3,0.5,0.6,1.2,0.6,1.8c0.1,1.7-0.2,3.4-1,4.9c-0.7,1.3-1.3,2.6-2,3.9c-0.2,0.4-0.4,0.7-0.7,1.1V121.5z"/>
				<path class="st18" d="M186.6,161.1c0.6,0.2,1.1,0.4,1.7,0.6c0.1,0,0.2,0.2,0.3,0.3c1.8,4,2.3,8,0.5,12.1c-1,2.2-2.4,4.1-4,5.9
					c-2.2,2.3-4.7,4.3-7.3,6.3c-0.1-0.4-0.3-0.7-0.3-1c0-0.2,0.2-0.4,0.4-0.5c2.3-1.5,4.6-3,6.5-5c2.2-2.2,3.8-4.7,4.6-7.7
					c0.7-2.8,0.4-5.6-0.6-8.3C187.9,162.8,187.2,162,186.6,161.1"/>
				<path class="st21" d="M169.9,185.6c1.8,1.7,3.6,3.4,5.4,5.1c-0.3,0.4-0.6,0.9-0.9,1.4c-0.6,1.2-0.4,2.3,0.5,3.3
					c0.2,0.3,0.5,0.5,0.7,0.8c0.4,0.5,0.4,0.7,0,1.3c-0.9-0.6-1.7-1.4-2.4-2.2c-1.4-1.8-2.1-4-2.6-6.2
					C170.3,187.9,170.1,186.7,169.9,185.6"/>
				<path class="st21" d="M155.6,208.2c0.1,0.8,0.3,1.7,0.3,2.6c0.2,2.7,0,5.3-0.4,8c-0.1,0.4-0.3,0.4-0.6,0.3c-1-0.3-1.9-1.4-2-2.5
					c-0.1-0.8,0.1-1.7-0.1-2.5c-0.1-0.8,0.1-1.3,0.5-1.9C154.1,210.9,154.8,209.5,155.6,208.2"/>
				<path class="st19" d="M121.9,435.5c0.8,0.5,1,1.3,1.4,2c0.1,0.2,0.1,0.4,0.3,0.5c0.3,0.4,0.9,0.2,1.2-0.3
					c0.2-0.4,0.3-0.8,0.6-1.2c0.3-0.5,0.8-0.6,1.2-0.4c0.4,0.2,0.5,0.6,0.2,1.2c-0.1,0.2-0.3,0.4-0.4,0.6c-0.1,0.2-0.2,0.6,0,0.8
					c0.1,0.2,0.5,0.3,0.7,0.3c0.3,0,0.6-0.2,0.9-0.2c0.4,0,0.9-0.1,1.4,0c0.4,0.1,0.6,0.4,0.5,0.9c-0.2,0.9-0.8,1.5-1.7,1.7
					c-0.3,0.1-0.8,0-1.1-0.1c-1.4-0.7-2.8-1.3-4.4-1.5c-0.2,0-0.4-0.2-0.5-0.4c-0.3-0.6-0.8-1.1-0.9-1.7
					C121.2,436.9,121.3,436.1,121.9,435.5"/>
				<path class="st21" d="M167,206.9c0.2,0.5,0.4,1,0.7,1.5c0.7,1.5,1.4,3,2.1,4.4c0.1,0.2,0.2,0.5,0.3,0.7c0.2,0.6,0,1.2-0.5,1.6
					c-0.9,0.6-1.9,0.9-3,0.6c-0.2,0-0.3-0.3-0.4-0.5c-0.3-1.6-0.3-3.2-0.1-4.8c0.2-1.2,0.5-2.4,0.7-3.6
					C166.9,206.9,167,206.9,167,206.9"/>
				<path class="st19" d="M187.3,443.3c0,0.6-0.3,1.3-0.8,1.8c-0.1,0.1-0.4,0.2-0.6,0.2c-2.3-0.5-4.7-0.5-7,0.2
					c-0.1,0-0.3,0.1-0.4,0c-0.5-0.5-1-1-1.4-1.6c-0.2-0.2-0.2-0.7,0-1c0.1-0.2,0.6-0.2,0.9-0.1c0.5,0.2,0.9,0.6,1.3,0.9
					c0.1,0.1,0.2,0.4,0.4,0.4c0.3,0.1,0.6,0.3,0.8,0.3c0.2-0.1,0.5-0.5,0.5-0.8c0.1-0.6,0.2-1.1,0.8-1.4c0.7-0.4,1.2-0.1,1.5,0.7
					c0.1,0.3,0.3,0.6,0.5,0.7c0.4,0.2,0.7-0.1,0.9-0.4c0.1-0.3,0.3-0.5,0.4-0.8c0.3-0.5,0.9-0.8,1.5-0.6
					C187.1,442,187.3,442.4,187.3,443.3"/>
				<path class="st18" d="M178.1,447.3c1-0.7,1.9-0.9,2.9-1c0.9,0,1.8-0.1,2.7,0c0.9,0.1,1.7,0.3,2.6,0.6c0.4,0.1,0.6,0.6,1,0.9
					c-0.3,0.2-0.6,0.5-1,0.7c-1.5,0.5-3.1,0.5-4.7,0.4c-1-0.1-1.9-0.3-2.7-0.8C178.7,447.7,178.4,447.5,178.1,447.3"/>
				<path class="st18" d="M162.1,160.8c0.6-0.2,0.9-0.1,1.4,0.2c1.3,0.7,2,1.9,2.8,3.1c0.1,0.1,0.1,0.3,0,0.4
					c-0.1,1.7-0.3,3.3-0.4,5c0,0.1,0,0.2-0.1,0.3c-0.7-1-1.5-1.9-1.3-3.2c0.1-0.9,0-1.8-0.1-2.6
					C164.2,162.5,163.4,161.5,162.1,160.8"/>
				<path class="st18" d="M128.5,444c-0.6-0.1-1.1-0.1-1.6-0.2c-1-0.2-2-0.5-3-0.8c-0.2,0-0.4-0.1-0.6-0.1c-1.6-0.1-1.8-0.7-2.6-1.8
					c0.5-0.4,1.1-0.4,1.6-0.3c1.7,0.3,3.3,0.7,4.7,1.8c0.4,0.3,0.8,0.5,1.2,0.8c0.2,0.1,0.3,0.3,0.4,0.4
					C128.6,443.9,128.6,444,128.5,444"/>
				<path class="st18" d="M158.3,161c-1.4,1.2-1.5,2.9-1.6,4.6c0,0.4-0.1,0.9-0.3,1.2c-0.3,0.6-0.7,1.2-1.1,1.9c-0.1,0-0.1,0-0.2,0
					c0.1-1,0.2-2,0.3-3c0.2-1.8,1.3-3.2,2.1-4.7c0.1-0.2,0.5-0.1,0.8-0.2C158.3,160.9,158.3,161,158.3,161"/>
				<path class="st20" d="M163.3,165.9c-0.5-0.8-0.9-1.7-1.4-2.5c-0.2-0.4-0.5-0.7-0.7-1c-0.7-0.9-1.4-0.5-2.1,0
					c-0.2,0.1-0.3,0.3-0.5,0.5c0.2-1.1,1.5-1.7,2.6-1.3c1.4,0.5,2.1,1.5,2.2,2.9C163.3,165,163.3,165.5,163.3,165.9"/>
				<path class="st13" d="M175.7,291.2c0,1,0,2.1,0,3.1c0.1,5.6,0.2,11.3,0.4,16.9c0.2,6.6,0.4,13.2,0.6,19.9
					c0.1,3.4,0.3,6.8,0.4,10.2c0.2,5.6,0.4,11.1,0.6,16.7c0.1,1.5,0.1,3,0.2,4.6c0,0.4,0.1,0.7,0.5,0.9c0.4,0.2,0.4,0.6,0.3,0.9
					c-0.2,0.5-0.5,0.9-0.7,1.4c-0.2,0.4-0.5,0.7-0.7,1.1c1.4,0.6,1.4,2,1.7,3.2c0.2,1,0.4,2.1,0.6,3.2c0.3,2.5,0.6,5.1,0.8,7.6
					c0.3,3.1,0.6,6.2,0.8,9.3c0.3,3.1,0.5,6.3,0.7,9.4c0.2,2.7,0.4,5.5,0.6,8.2c0.2,2.8,0.4,5.7,0.6,8.6c0.2,2.8,0.4,5.5,0.6,8.3
					c0.2,2.7,0.4,5.5,0.6,8.2c0.1,2.2,0.3,4.3,0.4,6.5c0,0.2,0.1,0.5,0,0.7c-0.1,0.3-0.3,0.5-0.5,0.7c-0.2-0.2-0.5-0.4-0.5-0.6
					c-0.1-0.7-0.2-1.4-0.3-2.1c-0.3-4-0.6-8.1-0.8-12.1c-0.2-3.3-0.4-6.6-0.7-9.9c-0.3-3.7-0.5-7.4-0.8-11.1
					c-0.2-2.8-0.4-5.5-0.6-8.3c-0.3-3.9-0.6-7.8-0.9-11.7c-0.2-2.4-0.4-4.8-0.6-7.2c-0.2-2.1-0.5-4.2-0.7-6.2c0-0.2,0-0.3,0-0.5
					c0.2-0.8-0.1-1.5-0.3-2.2c-0.1-0.5-0.4-0.8-0.9-1.1c-0.6-0.3-0.7-0.6-0.3-1.2c0.4-0.6,0.9-1.2,1.3-1.8c0.3-0.4,0.3-0.6-0.2-0.8
					c-0.2-0.1-0.4-0.3-0.4-0.5c-0.1-1-0.3-2-0.3-3.1c-0.1-4.2-0.2-8.4-0.3-12.6c-0.1-2.6-0.3-5.2-0.4-7.8c-0.2-3.7-0.3-7.4-0.5-11.2
					c-0.5-11-0.3-22-0.3-33c0-1.3,0-2.6,0-3.8c0-0.2,0-0.4,0-0.6C175.6,291.2,175.7,291.2,175.7,291.2"/>
				<path class="st13" d="M163.6,120.2c0.8-1.3,2-1.9,3.5-1.9c0.7,0,1.4,0.1,2.1,0.3c2,0.4,3.9,1.1,5.5,2.4c0.4,0.3,0.6,0.8,0.9,1.2
					c0.1,0.1,0.1,0.3,0,0.3c-0.1,0.1-0.3,0.1-0.4,0.1c-0.4-0.1-0.7-0.3-1.1-0.5c-0.5-0.3-0.9-0.6-1.3-0.9c-1.1,1.6-2.8,2.1-4.6,2.3
					c-1.8,0.2-3.4-0.2-4.8-1.4l-0.1,0.1c0.1,0.2,0.1,0.5,0.3,0.7c0.6,1,1.3,2.1,2,3.1c0.4,0.6,0.8,1.1,1.2,1.7
					c0.1,0.2,0.1,0.4,0.1,0.6c-0.2,0-0.4,0-0.6-0.1c-0.2-0.1-0.5-0.3-0.7-0.5c-1.4-1.4-2.5-3.1-2.8-5c-0.2-1.6-0.1-3.2,0.5-4.7
					c0.3-0.8,0.9-1.3,1.7-1.4c0.9-0.1,1.8-0.1,2.6-0.1c0.1,0,0.3,0.2,0.4,0.3c-0.2,0.1-0.3,0.2-0.5,0.2c-0.7,0.1-1.4,0.1-2.1,0.2
					c-1,0.1-1.6,0.7-1.9,1.7c-0.1,0.4-0.2,0.9-0.3,1.3C163.5,120.1,163.6,120.2,163.6,120.2 M165.8,119.6c-0.9,0.3-1.2,1-1.7,1.7
					c2.4,1.8,6.5,1,7.6-0.6c-0.6-0.2-1.2-0.4-1.7-0.6c-0.2,1.6-1.2,2.4-2.6,2.1C166.2,121.9,165.6,121,165.8,119.6 M167.2,119.5
					c-0.4-0.1-0.6,0.2-0.6,0.6c0,0.5,0.6,1,1.2,0.9c0.6,0,1.1-0.5,1-1c0-0.1-0.1-0.3-0.2-0.3C168.1,119.6,167.7,119.6,167.2,119.5"
					/>
				<path class="st13" d="M152.2,120.4c-0.1-0.4-0.2-0.7-0.3-0.9c-0.5-0.7-0.9-1.5-1.4-2.1c-0.9-1-2.3-1.1-3.7-0.4
					c-0.1,0-0.2,0.1-0.3,0.1c-0.1,0-0.2,0-0.4-0.1c0-0.1,0-0.3,0.1-0.4c0.4-0.2,0.7-0.4,1.1-0.5c2.2-0.6,3.6,0,4.7,2
					c1.1,1.9,1,3.9,0.1,5.8c-0.5,1-1.1,2-1.7,2.9c-0.2,0.4-0.6,0.7-0.9,0.9c-0.1,0.1-0.3,0-0.5,0c0-0.2,0-0.3,0.1-0.5
					c0.9-1.6,1.8-3.2,2.6-4.9c-1.5,0.7-3,1.1-4.5,1c-1.6-0.2-3-0.8-3.9-2.4c-0.5,0.3-1,0.6-1.5,0.9c-0.5,0.3-1.1,0.7-1.6,0.9
					c-0.2,0.1-0.4,0-0.7-0.1c0.1-0.2,0.1-0.5,0.2-0.6c2.4-2.1,5.1-3.6,8.4-3.6C150.2,118.5,150.8,118.8,152.2,120.4 M148.6,122.3
					c-1.3-0.3-1.7-1.2-1.8-2.5c-1,0.3-2,0.6-3,1C145.2,122.2,146.8,122.5,148.6,122.3 M147.7,119.7c0.2,1,0.6,1.4,1.2,1.4
					c0.6,0,0.8-0.3,1-1.3C149.1,119.8,148.4,119.7,147.7,119.7 M150.1,122c0.4-0.2,0.9-0.4,1.4-0.6c-0.3-0.3-0.5-0.6-0.6-0.8
					C150.6,121.1,150.4,121.5,150.1,122"/>
				<path class="st13" d="M164,132.4c-1.2,1.2-2.7,1.5-4.1,1.9c-1.8,0.4-3.6,0.4-5.3-0.2c-1-0.3-1.8-0.8-2.4-1.9
					c-0.3,1.2-0.7,2.4-1,3.6c-0.1,0.3-0.1,0.7-0.2,1c0,0.1-0.2,0.2-0.3,0.4c-0.1-0.1-0.2-0.3-0.2-0.4c0.1-0.9,0.3-1.9,0.5-2.8
					c0.4-2.1,1.2-4,2-6c0.5-1.2,0.9-2.4,1.4-3.7c0-0.1,0.1-0.3,0.1-0.3c0.1-0.1,0.2-0.2,0.3-0.1c0.1,0,0.2,0.2,0.2,0.3
					c0,0.2,0,0.3-0.1,0.5c-0.6,1.9-1.2,3.8-1.9,5.6c-0.3,0.8,0.1,1.9,0.8,2.3c1.3,0.8,2.8,1,4.3,0.8c1.3-0.2,2.5-0.6,3.8-0.9
					c0.4-0.1,0.8-0.5,1.1-0.8c0.3-0.4,0.4-0.8,0.2-1.3c-0.8-2-1.6-3.9-2.4-5.9c-0.1-0.1,0-0.3,0-0.5c0.2,0.1,0.4,0.2,0.5,0.3
					c0.8,1.8,1.7,3.6,2.5,5.4c0.8,1.9,1.4,3.8,1.7,5.9c0,0.2-0.1,0.4-0.1,0.5c-0.1-0.1-0.3-0.3-0.4-0.4
					C164.6,134.4,164.4,133.4,164,132.4"/>
				<path class="st13" d="M157,140.3c-1.7-0.2-3.3-0.3-5-0.6c-0.5-0.1-1-0.3-1.5-0.6c-0.4-0.2-0.5-0.8-0.2-1
					c0.2-0.1,0.6-0.2,0.7-0.1c0.8,0.7,1.7,0.7,2.6,0.8c2.8,0.3,5.5,0.1,8.3,0c0.9-0.1,1.7-0.2,2.6-0.4c0.3-0.1,0.5-0.3,0.7-0.5
					c0.2-0.2,0.5-0.4,0.7-0.2c0.2,0.1,0.3,0.5,0.2,0.7c-0.2,0.5-0.6,0.8-1.1,1c-1.7,0.5-3.4,0.5-5.2,0.6
					C158.9,140.1,158,140.1,157,140.3C157,140.2,157,140.2,157,140.3"/>
				<path class="st13" d="M165.8,114.2c1.9,0.2,4,0.4,6.2,0.7c1.3,0.2,2.5,0.7,3.6,1.5c0.1,0.1,0.3,0.2,0.4,0.3
					c0.1,0.2,0.2,0.5,0.1,0.6c-0.1,0.2-0.4,0.2-0.6,0.3c-0.1,0-0.3-0.1-0.4-0.2c-1.6-1.1-3.5-1.5-5.4-1.6c-1.9-0.1-3.9-0.2-5.8-0.3
					c-0.3,0-0.7-0.1-1-0.2c-0.1-0.1-0.3-0.3-0.3-0.4c0-0.1,0.3-0.3,0.4-0.3C163.8,114.3,164.7,114.3,165.8,114.2"/>
				<path class="st13" d="M150.9,114.4c0.6,0,1.1,0,1.6,0.1c0.2,0,0.4,0.3,0.5,0.5c-0.2,0.2-0.3,0.4-0.6,0.5c-0.3,0.1-0.7,0.1-1,0.1
					c-2.3,0.2-4.6,0.3-6.9,0.5c-0.9,0.1-1.8,0.5-2.6,1c-0.3,0.2-0.8,0.3-1.2,0.4c-0.1,0-0.3-0.1-0.3-0.1c0-0.1,0-0.3,0.1-0.4
					c1-1.5,2.6-1.9,4.3-2.1C146.9,114.7,149,114.5,150.9,114.4"/>
				<path class="st13" d="M159.2,112.9c0,0,0,0.1,0,0.1c0,1.2-0.6,2-1.5,2.1c-0.8,0.1-1.8-0.5-2.1-1.5c-0.2-0.5-0.2-1-0.2-1.6
					c0-0.8,0.7-1.4,1.5-1.4C158.4,110.5,159.2,111.4,159.2,112.9 M158.3,112.7c0-0.3,0-0.8-0.5-1c-0.9-0.5-1.7,0-1.7,1.1
					c0,0.7,0.7,1.5,1.3,1.5c0.5,0,0.9-0.5,0.9-1.3C158.3,112.9,158.3,112.8,158.3,112.7"/>
				<path class="st18" d="M165.8,119.6c-0.3,1.4,0.3,2.3,1.5,2.5c1.4,0.3,2.4-0.5,2.6-2.1c0.6,0.2,1.2,0.4,1.7,0.6
					c-1,1.6-5.2,2.4-7.6,0.6C164.6,120.6,164.9,119.9,165.8,119.6"/>
				<path class="st22" d="M167.2,119.5c0.5,0.1,0.9,0.1,1.4,0.2c0.1,0,0.2,0.2,0.2,0.3c0,0.5-0.5,1-1,1c-0.6,0-1.1-0.4-1.2-0.9
					C166.6,119.7,166.7,119.4,167.2,119.5"/>
				<path class="st18" d="M148.6,122.3c-1.8,0.2-3.4-0.1-4.8-1.6c1.1-0.3,2-0.6,3-1C146.9,121,147.3,122,148.6,122.3"/>
				<path class="st22" d="M147.7,119.7c0.8,0,1.4,0.1,2.1,0.1c-0.1,0.9-0.4,1.3-1,1.3C148.3,121.1,147.9,120.7,147.7,119.7"/>
				<path class="st18" d="M150.1,122c0.3-0.5,0.5-0.9,0.8-1.4c0.2,0.2,0.4,0.5,0.6,0.8C151,121.6,150.5,121.8,150.1,122"/>
				<path class="st23" d="M158.3,112.7c0,0.1,0,0.2,0,0.2c0,0.8-0.3,1.4-0.9,1.3c-0.6,0-1.3-0.8-1.3-1.5c0-1.1,0.8-1.6,1.7-1.1
					C158.3,111.9,158.3,112.4,158.3,112.7"/>
			</g>
		</g>
	</g>
</g>
<g id="A1">
		<g>
		<g>
			<path class="st0" d="M528.8,179.6l-71.2,17.1c-3.8,0.9-7.5-1.4-8.4-5.2L422.1,78.9c-0.9-3.8,1.4-7.5,5.2-8.4l71.2-17.1
				c3.8-0.9,7.5,1.4,8.4,5.2L534,171.2C534.9,174.9,532.6,178.7,528.8,179.6z"/>
			<path class="st0" d="M525.5,180.4l-71.2,17.1c-3.8,0.9-7.5-1.4-8.4-5.2L418.7,79.7c-0.9-3.8,1.4-7.5,5.2-8.4l71.2-17.1
				c3.8-0.9,7.5,1.4,8.4,5.2L530.6,172C531.5,175.7,529.2,179.5,525.5,180.4z"/>
			<path class="st0" d="M521.7,181.3l-71.2,17.1c-3.8,0.9-7.5-1.4-8.4-5.2L415,80.6c-0.9-3.8,1.4-7.5,5.2-8.4l71.2-17.1
				c3.8-0.9,7.5,1.4,8.4,5.2l27.1,112.7C527.8,176.6,525.5,180.4,521.7,181.3z"/>
			<path class="st1" d="M518,182.2l-71.2,17.1c-3.8,0.9-7.5-1.4-8.4-5.2L411.3,81.5c-0.9-3.8,1.4-7.5,5.2-8.4L487.6,56
				c3.8-0.9,7.5,1.4,8.4,5.2l27.1,112.7C524.1,177.5,521.7,181.3,518,182.2z"/>

				<rect x="419" y="72.5" transform="matrix(0.9723 -0.2338 0.2338 0.9723 -20.3158 103.5439)" class="st2" width="15" height="129.8"/>
		</g>
	</g>

</g>
<g id="A2">
		<g>
		<g>
			<defs>

					<rect id="SVGID_1_" x="402.7" y="271" transform="matrix(0.573 -0.8196 0.8196 0.573 -91.8459 541.937)" width="143" height="176.3"/>
			</defs>
			<clipPath id="SVGID_2_">
				<use xlink:href="#SVGID_1_"  style="overflow:visible;"/>
			</clipPath>
			<g class="st3">
				<defs>

						<rect id="SVGID_3_" x="402.7" y="271" transform="matrix(0.573 -0.8196 0.8196 0.573 -91.8459 541.937)" width="143" height="176.3"/>
				</defs>
				<clipPath id="SVGID_4_">
					<use xlink:href="#SVGID_3_"  style="overflow:visible;"/>
				</clipPath>
				<path class="st4" d="M493.9,383.3c-3.2-2.2-50.8-35.5-54-37.7c-3.4-2.4-6.7-4.8-10.1-7.2c-1.4-1-2.9-2.1-4.3-3.2
					c-0.2-0.2-0.4-0.6-0.4-0.9c-0.1-3,0.8-5.7,2.6-8.1c1.6-2.1,3.6-3.7,6.2-4.5c0.9-0.3,1.7-0.3,2.6,0.4c3,2.3,6,4.6,9.1,6.8
					c2.9,2.1,5.8,4.3,8.7,6.4c2.9,2.2,50.3,35.5,53.2,37.6c1.7,1.3,3.4,2.5,5.1,3.8c0.8,0.6,1.4,1.2,1.8,2.1
					c1.9,3.9,3.9,7.7,5.8,11.5c0.5,1,0.4,1.9-0.4,2.3c-0.3,0.2-0.8,0.3-1.1,0.2c-2.7-0.4-5.4-0.9-8.1-1.3c-2-0.3-4-0.6-6-0.9
					c-0.3,0-0.5-0.1-0.7-0.3c-3.4-2.4-6.8-4.7-10.1-7.1L493.9,383.3z M434.6,336.1c5.1,3.6,54.6,38.4,59.6,42c3,2.2,6,4.3,9,6.4
					c1,0.7,1.9,1.8,3.4,1.6c0.9-0.1,1.8-0.1,2.5-0.8c0.9-0.8,1.5-1.6,1.1-2.9c-0.2-0.4-0.2-0.9-0.3-1.3c-0.1-0.3-0.3-0.7-0.6-0.9
					c-5.9-4.2-56.4-39.6-62.3-43.8c-2.6-1.8-5.1-3.7-7.7-5.5c-0.4-0.3-0.6-0.3-1,0.1C436.8,332.5,435.5,334.2,434.6,336.1
					 M439.5,329.9c0.2,0.2,0.4,0.3,0.5,0.4c3.7,2.7,7.5,5.4,11.2,8c4.7,3.3,53.9,37.8,58.6,41.1c1.1,0.8,2.5,0.7,3.7-0.1
					c-0.3-0.4-0.6-0.9-1-1.2c-1.1-0.9-2.3-1.7-3.5-2.6c-2.9-2.2-5.8-4.3-8.6-6.5c-1.8-1.4-48.1-33.8-50-35.2
					c-2.6-1.9-5.1-3.9-7.7-5.8c-0.2-0.1-0.5-0.1-0.7,0C441.3,328.6,440.5,329.2,439.5,329.9 M434.1,337.2c-0.2,0.6-0.4,1.3-0.7,1.9
					c-0.2,0.4,0,0.6,0.3,0.9c2.8,2,5.5,4,8.3,6c4.5,3.2,53.4,37.5,57.9,40.7c1.5,1,2.9,2.1,4.4,3.1c0.3,0.2,0.8,0.2,1.2,0.2
					c0-0.4,0.1-0.7,0-1.1c-0.1-0.5-0.3-1-0.5-1.5c-0.1-0.2-0.2-0.3-0.3-0.4c-2.8-2-5.6-4-8.4-6.1c-2.8-2-50.1-35.1-52.9-37.1
					C440.4,341.6,437.3,339.4,434.1,337.2 M429,336.4c1.5-5.2,4.7-9,9.3-11.6c-0.8-0.6-1.5-1.1-2.1-1.7c-0.7-0.7-1.5-0.6-2.3-0.3
					c-1.8,0.7-3.3,1.8-4.6,3.2c-2.1,2.3-3.1,5-3.1,8.2c0,0.2,0.1,0.4,0.2,0.5C427.2,335.2,428.1,335.8,429,336.4 M514,391.2
					c0.5-0.9,0.8-1.7,1.4-2.4c0.5-0.7,1.3-1.2,2-1.9c-1.1-2.1-2.2-4.3-3.2-6.3c-1.1,0.2-2.2,0.4-3.3,0.6c0.5,1.5,0.8,3-0.5,4.4
					c-1.2,1.2-2.5,1.9-4.2,1.5c0.2,1.1,0.5,2.1,0.7,3.1C509.3,390.5,511.7,390.8,514,391.2 M440.1,326.1c-0.4-0.3-0.6-0.8-1.2-0.5
					c-2,1.2-3.8,2.5-5.3,4.3c-1.8,2.1-3,4.5-3.8,7.2l0.9,0.6c0.8-2.5,1.9-4.7,3.5-6.7C435.8,329,437.8,327.4,440.1,326.1 M432.5,339
					c1.4-5.2,4.6-9,9.1-11.8c-0.3-0.2-0.7-0.4-0.9-0.2c-2.5,1.4-4.8,3.2-6.4,5.6c-1,1.5-1.7,3.2-2.5,4.9
					C431.5,338.3,431.5,338.3,432.5,339 M515.1,391.3c1.2,0.2,2.4,0.4,3.6,0.6c0.2,0,0.6,0,0.7-0.1c0.1-0.2,0.1-0.5,0-0.7
					c-0.5-1.1-1.1-2.1-1.6-3.1C516.5,388.7,515.5,389.7,515.1,391.3"/>
				<path class="st5" d="M434.6,336.1c0.9-2,2.1-3.7,3.7-5.1c0.4-0.4,0.6-0.4,1-0.1c2.5,1.8,5.1,3.7,7.7,5.5
					c5.9,4.2,56.4,39.5,62.3,43.8c0.3,0.2,0.5,0.6,0.6,0.9c0.2,0.4,0.2,0.9,0.3,1.3c0.5,1.3-0.2,2.1-1.1,2.9
					c-0.7,0.7-1.6,0.7-2.5,0.8c-1.5,0.2-2.4-0.9-3.4-1.6c-3-2.1-6-4.3-9-6.4C489.2,374.5,439.7,339.8,434.6,336.1"/>
				<path class="st6" d="M439.5,329.9c0.9-0.6,1.8-1.2,2.7-1.8c0.2-0.1,0.5-0.1,0.7,0c2.6,1.9,5.1,3.9,7.7,5.8
					c1.8,1.4,48.1,33.8,50,35.2c2.9,2.2,5.8,4.3,8.6,6.5c1.1,0.9,2.3,1.7,3.5,2.6c0.4,0.3,0.6,0.8,1,1.2c-1.2,0.8-2.7,0.9-3.7,0.1
					c-4.7-3.3-53.9-37.8-58.6-41.1c-3.7-2.7-7.5-5.3-11.2-8C439.9,330.2,439.8,330.1,439.5,329.9"/>
				<path class="st7" d="M434.1,337.2c3.2,2.2,6.3,4.4,9.4,6.6c2.8,2,50.1,35.1,52.9,37.1c2.8,2,5.6,4,8.4,6.1
					c0.1,0.1,0.3,0.2,0.3,0.4c0.2,0.5,0.4,1,0.5,1.5c0.1,0.3,0,0.7,0,1.1c-0.4-0.1-0.9,0-1.2-0.2c-1.5-1-3-2-4.4-3.1
					c-4.5-3.2-53.4-37.5-57.9-40.7c-2.8-2-5.5-4-8.3-6c-0.3-0.2-0.5-0.4-0.3-0.9C433.7,338.4,433.9,337.8,434.1,337.2"/>
				<path class="st8" d="M429,336.4c-0.9-0.7-1.8-1.3-2.7-1.9c-0.1-0.1-0.2-0.3-0.2-0.5c0-3.1,1-5.9,3.1-8.2
					c1.3-1.4,2.8-2.5,4.6-3.2c0.8-0.3,1.6-0.4,2.3,0.3c0.6,0.6,1.3,1.1,2.1,1.7C433.7,327.5,430.5,331.2,429,336.4"/>
				<path class="st9" d="M514,391.2c-2.3-0.3-4.7-0.7-7.1-1c-0.2-1-0.5-2.1-0.7-3.1c1.7,0.4,3-0.3,4.2-1.5c1.3-1.4,1-2.9,0.5-4.4
					c1.1-0.2,2.1-0.4,3.3-0.6c1,2,2.2,4.2,3.2,6.3c-0.7,0.6-1.4,1.2-2,1.9C514.8,389.4,514.5,390.3,514,391.2"/>
				<path class="st10" d="M440.1,326.1c-2.3,1.4-4.3,2.9-5.9,4.9c-1.6,2-2.7,4.2-3.5,6.7l-0.9-0.6c0.8-2.7,2-5.1,3.8-7.2
					c1.5-1.7,3.4-3.1,5.3-4.3C439.5,325.2,439.7,325.8,440.1,326.1"/>
				<path class="st10" d="M432.5,339c-1-0.6-1-0.6-0.6-1.5c0.8-1.7,1.5-3.4,2.5-4.9c1.6-2.4,3.9-4.2,6.4-5.6
					c0.2-0.1,0.6,0.1,0.9,0.2C437.1,329.9,434,333.8,432.5,339"/>
				<path class="st11" d="M515.1,391.3c0.4-1.6,1.4-2.6,2.7-3.4c0.5,1.1,1.1,2.1,1.6,3.1c0.1,0.2,0.1,0.6,0,0.7
					c-0.1,0.1-0.5,0.1-0.7,0.1C517.5,391.7,516.4,391.5,515.1,391.3"/>
			</g>
		</g>
	</g>
</g>
</svg>
