<?xml version="1.0" encoding="utf-8"?>
<!-- Generator: Adobe Illustrator 21.0.0, SVG Export Plug-In . SVG Version: 6.00 Build 0)  -->
<svg version="1.1" xmlns="http://www.w3.org/2000/svg" xmlns:xlink="http://www.w3.org/1999/xlink" x="0px" y="0px"
	 viewBox="0 0 690 500" style="enable-background:new 0 0 690 500;" xml:space="preserve">
<style type="text/css">
	.st0{display:none;}
	.st1{display:inline;opacity:0.5;}
	.st2{filter:url(#Adobe_OpacityMaskFilter);}
	.st3{clip-path:url(#SVGID_3_);}
	.st4{clip-path:url(#SVGID_5_);fill:#FFE8D0;}
	.st5{clip-path:url(#SVGID_5_);fill:#8CC0ED;}
	.st6{clip-path:url(#SVGID_5_);fill:#514234;}
	.st7{clip-path:url(#SVGID_5_);fill:#B2B2B2;}
	.st8{clip-path:url(#SVGID_5_);fill:#2F72C1;}
	.st9{clip-path:url(#SVGID_5_);}
	.st10{clip-path:url(#SVGID_5_);fill:#FFFFFF;}
	.st11{clip-path:url(#SVGID_5_);fill:#F8D3BA;}
	.st12{clip-path:url(#SVGID_5_);fill:#DDDDDD;}
	.st13{clip-path:url(#SVGID_7_);}
	.st14{clip-path:url(#SVGID_9_);fill:#b5b5b5;}
	.st15{clip-path:url(#SVGID_11_);}
	.st16{clip-path:url(#SVGID_13_);}
	.st17{clip-path:url(#SVGID_13_);fill:#b5b5b5;}
	.st18{clip-path:url(#SVGID_15_);}
	.st19{clip-path:url(#SVGID_17_);}
	.st20{clip-path:url(#SVGID_17_);fill:#b5b5b5;}
	.st21{clip-path:url(#SVGID_19_);}
	.st22{clip-path:url(#SVGID_21_);fill:#b5b5b5;}
	.st23{clip-path:url(#SVGID_23_);}
	.st24{clip-path:url(#SVGID_25_);fill:#b5b5b5;}
	.st25{clip-path:url(#SVGID_27_);}
	.st26{clip-path:url(#SVGID_29_);fill:#b5b5b5;}
	.st27{clip-path:url(#SVGID_31_);}
	.st28{clip-path:url(#SVGID_33_);fill:#b5b5b5;}
	.st29{clip-path:url(#SVGID_33_);}
	#FULL, #NECK, #CHEST, #STOMACH, #FINGER, #ELBOW, #CHIN, #TEETH  {transition: all .3s;}
</style>
<g id="Слой_1" class="st0">
	<g class="st1">
		<defs>
			<filter id="Adobe_OpacityMaskFilter" filterUnits="userSpaceOnUse" x="177.8" y="357.5" width="328" height="121">
				<feFlood  style="flood-color:white;flood-opacity:1" result="back"/>
				<feBlend  in="SourceGraphic" in2="back" mode="normal"/>
			</filter>
		</defs>
		<mask maskUnits="userSpaceOnUse" x="177.8" y="357.5" width="328" height="121" id="SVGID_1_">
			<g class="st2">
				
					<image style="overflow:visible;" width="332" height="125" xlink:href="ACC8045B.jpg"  transform="matrix(1 0 0 1 175.8315 355.5)">
				</image>
			</g>
		</mask>
		<g style="mask:url(#SVGID_1_);">
			
				<image style="overflow:visible;" width="328" height="121" xlink:href="ACC80459.png"  transform="matrix(1 0 0 1 177.8315 357.5)">
			</image>
		</g>
	</g>
</g>
<g id="FULL">
	<g>
		<g>
			<defs>
				<rect id="SVGID_2_" x="184.6" y="13.9" width="320.9" height="472.2"/>
			</defs>
			<clipPath id="SVGID_3_">
				<use xlink:href="#SVGID_2_"  style="overflow:visible;"/>
			</clipPath>
			<g class="st3">
				<defs>
					<rect id="SVGID_4_" x="184.6" y="13.9" width="320.9" height="472.2"/>
				</defs>
				<clipPath id="SVGID_5_">
					<use xlink:href="#SVGID_4_"  style="overflow:visible;"/>
				</clipPath>
				<path class="st4" d="M236.6,198.8c1.4,0.3,2.7,0.5,4.1,0.9c2.3,0.6,4.5,1.2,6.8,1.8c0.5,0.1,0.9,0.1,1.4,0.2
					c0-0.1,0.1-0.3,0.1-0.4c-0.5-0.3-1-0.7-1.5-0.9c-4.4-1.9-9-3.2-13.8-3.6c-4.1-0.4-8.2-0.5-12.3,0c-0.7,0.1-1.3,0-2,0
					c-0.3-0.9,0.1-1.5,0.6-2c0.9-0.8,1.8-1.6,2.8-2.2c4.2-2.3,8.7-2.9,13.4-2.2c1.5,0.2,3,0.6,4.5,0.7c2.6,0.3,5.2-0.2,7.7-0.7
					c1.6-0.4,3.2-0.6,4.7-0.9c1.4-0.2,2.8,0.1,4.1,0.7c2.5,1.4,4.4,3.3,5.5,5.9c0.4,0.9,0.8,1.8,1.2,2.7c0.3,0.7,0.9,1,1.7,1.1
					c2.7,0.3,5.5,0.6,8.2,1c10.4,1.5,20.9,2.9,31.4,2.9c1.8,0,3.1,0.8,4.2,2c1.1,1.3,2.3,2.5,3.6,3.7c-0.4-2.3-1.3-4.2-3-5.8
					c0-0.2,0-0.4,0.1-0.5c4.4-10.4,8.5-21,12.1-31.7c1.7-5.2,3.3-10.5,5.2-15.6c1-2.8,2.4-5.5,4.1-8c1.8-2.7,4-5.2,6.2-7.6
					c1.6-1.8,3.9-2.8,6.2-3.4c4-1,8.1-1.8,12.1-2.8c3.1-0.8,6.1-1.8,9.1-2.8c1.7-0.5,2.7-1.6,3.4-3.3c1-2.7,1.7-5.3,1.8-8.2
					c0.1-2.4,0-4.7,0-7.4c0.5,0.4,0.9,0.6,1.2,0.8c4.5,3.9,9.3,7.3,14.9,9.5c1.3,0.5,2.8,0.9,4.2,1.2c1.7,0.3,3.4,0.2,5.1-0.3
					c1-0.3,2-0.7,3.1-1.1c0.3,4.1,0.5,8,2.7,11.8c-0.2-2.2-0.3-4.2-0.5-6.4c1.5,0.9,2.7,1.9,4.1,2.6c4.1,2.2,8.3,4.3,12.5,6.3
					c3.5,1.7,7.1,3.4,10.7,5c4.8,2.2,8.6,5.6,11.7,9.8c3.7,5,7.1,10.1,9.2,16c0.9,2.6,1.7,5.4,2.5,8c0.1,0.3,0.1,0.7,0.2,1.1
					c0.4,3.4,1.4,6.6,3,9.6c0.9,1.6,2.1,3.1,3.3,4.5c1.7,2,3.6,3.9,5.4,5.9c-0.2,0.7-0.4,1.4-0.6,2.1c-0.4,1.8-0.9,3.5-1.2,5.3
					c-0.5,2.4,0,4.8,0.9,7c1.9,4.8,5.2,8.7,9.5,12.2c-0.2-0.6-0.3-0.9-0.5-1.2c-1.2-1.9-2.4-3.7-3.7-5.6c-0.8-1.3-1.7-2.5-2.5-3.8
					c-2-3.3-2.5-6.9-1.4-10.6c0.5-1.7,0.9-3.4,1.5-5.1c2.7-7.4,4.5-15,6.2-22.6c0.8-3.9,1.6-7.7,1.7-11.7c0.1-3.3-0.4-6.5-0.3-9.8
					c0-2.5-1.2-4.4-2.4-6.4c-1.6-2.5-3.5-4.8-5.8-6.7c-2-1.7-3.9-3.4-6-5c-0.6-0.5-0.9-1-1-1.8c-0.1-1.4-0.2-2.9-0.5-4.3
					c-0.5-2.4-0.9-4.8-1.7-7.1c-0.5-1.6-0.4-2.8,0.7-4c1.6-1.6,3.1-3.4,4.8-4.9c2.7-2.5,5.4-4.8,7.5-7.9c0.1-0.1,0.2-0.1,0.3-0.2
					c0.8,1.1,1.4,2.2,0.8,3.7c-0.5,1.3-0.7,2.7-1,4.1c-0.2,0.9-0.5,1.5-1.2,2.1c-1.2,1.1-2.4,2.3-3.6,3.5c-0.3,0.3-0.6,0.6-0.9,0.9
					c-1,1.1-0.8,1.9,0.5,2.3c1.2,0.4,2.2,1.1,3.1,2.1c-1.6,2.3-2.3,4.8-2.1,7.6c0,0.7,0.1,1.5,1.1,1.7c0.7-0.3,0.8-1,0.8-1.6
					c0.1-1.1,0.1-2.2,0.3-3.2c0.2-1,0.6-2,1.1-2.9c1-1.8,1.3-1.9,3.6-1.5c0.5,2.7,1.6,5,4.8,5.4c0.5,3.1,0.9,3.6,3.9,4.8
					c-0.6,0.4-1.1,0.8-1.6,1c-1.1,0.6-1.5,1.6-1.3,2.7c0.1,0.9,0.3,1.7,0.6,2.6c0.7,1.9,3.1,5.7,4.5,7.3c-0.9-2.5-1.8-4.9-2.7-7.4
					c-1.1-3.1-1.1-3.1,1.7-4.9c2.1-1.3,4.2-2.6,6.2-3.9c0.4-0.3,0.9-0.6,1.1-1c0.4-0.7,0.1-1.6-0.6-1.9c-1.4-0.5-2.8-1.4-4.6-1.4
					c0.2,0.6,0.4,1,0.7,1.6c-0.7,0.8-1.5,1.9-2.4,2.7c-1.5,1.3-3.4,0.4-3.6-1.6c-0.2-2,0.6-7.5,2.5-10.2c2.9,0.3,6,0.7,9,1
					c0.9,0.1,1.4,0.8,1.6,1.6c0.6,2,1.2,4.1,1.9,6.1c0.6,1.6,1.3,3.2,2.2,4.6c0.8,1.2,1,2.5,0.7,3.8c-0.3,1.3-0.7,2.6-1.3,3.8
					c-1,2-2.1,4-3.5,5.7c-2,2.6-2.8,5.6-3.1,8.8c-0.3,3.4-0.5,6.7-0.6,10.1c-0.2,11.9,0.4,23.9,1.1,35.8c0.2,3.8,0.6,7.6,0.6,11.4
					c0,3.8-0.6,7.6-1.2,11.4c-0.6,3.4-1.7,6.6-3.4,9.6c-1.8,3.2-4.3,5.7-7.2,8.1c-0.6-0.3-1.3-0.6-1.9-0.9
					c-11.4-5.2-20.7-13.2-29.3-22.1c-4.5-4.7-8.6-9.7-12.5-14.9c-0.6-0.8-0.8-1.5-0.7-2.4c0.4-9.7,1.6-19.2,3-28.8
					c0.4-3.1,0.7-6.3,1.1-9.4c0.1-0.7,0-1.4,0-2.2c-0.8,0-0.8,0.6-0.9,0.9c-0.5,1.8-1,3.6-1.2,5.5c-1.2,8.4-2.3,16.8-3.4,25.1
					c-0.1,0.8-0.2,1.7-0.1,2.5c0,0.9-0.4,1.4-1.1,1.9c-2.1,1.3-4.3,2.1-6.6,2.7c-4.8,1.2-9.5,2.4-14.3,3.6
					c5.2-0.1,10.4-0.5,15.4-2.1c2.2-0.7,4.2-1.6,6.3-3.2c0,0.7,0,1.2,0,1.6c-0.5,5-0.9,9.9-1.6,14.9c-0.3,2.1-1,4.1-1.5,6.2
					c-1.1,4.6-1.5,9.2-1.9,13.9c-0.6,7.2-0.8,14.4-0.3,21.6c0.4,5.5,0.9,11,1.3,16.4c0.3,4,0.5,8,0.7,12c0,0.4,0,0.8-0.1,1.2
					c-0.2,0.1-0.3,0.2-0.4,0.3c-6.2,1.9-12.4,3.9-18.7,5.3c-9.2,2-18.5,2.3-27.9,1.3c-6.5-0.7-12.9-1.6-19.2-3.2
					c-2.3-0.6-4.5-1.5-6.8-2.1c-1.2-0.3-1.7-1.1-1.9-2.3c-0.8-4.2-1.3-8.4-1.2-12.7c0.1-8.3,0.3-16.5,0.5-24.8
					c0.1-6.7,0.4-13.4,0.3-20.1c-0.1-5.5-0.5-11-0.8-16.5c-0.1-1.5,0-2.9-0.1-4.4c-0.1-2.2,0.1-4.4-0.3-6.5
					c-0.4-2.4-1.1-4.9-1.8-7.2c-2.1-6.9-4.3-13.7-5.6-20.7c-0.5-3-0.8-6-1.1-9c-0.2-2.3-0.8-4.5-2-6.5c-0.1,1.9-0.2,3.8,0.1,5.7
					c0.7,5,1,10.1,2.2,15.1c1,4.1,2.2,8.1,3.4,12.1c0.3,0.9,0.3,1.6-0.3,2.5c-0.7,1-1.3,2.1-1.9,3.2c-3.6,6.8-7.7,13.3-12.2,19.5
					c-3.7,5.2-7.3,10.5-11,15.7c-1.3,1.8-2.7,3.4-4.1,5.1c-1.1,1.2-1.1,1.2-2.7,0.6c-4.7-1.9-9.4-3.8-14.1-5.9
					c-6.4-2.9-12.6-6-19-8.9c-10.8-4.9-21.3-10.4-31.9-15.6c-3.7-1.8-7.5-3.5-11.3-5.2c-0.6-0.3-1.3-0.6-1.9-1
					C236.5,199.1,236.6,199,236.6,198.8 M391.1,203.4c-0.9-0.1-1.6-0.2-2.3-0.3c-2.9-0.4-5.9-0.7-8.8-1.1
					c-5.6-0.7-11.1-1.3-16.7-2.1c-3.1-0.5-6.2-1.3-9.3-1.9c-0.5-0.1-1.1-0.5-1.8,0.2c0.6,0.3,1,0.7,1.5,0.9c1.4,0.5,2.8,1,4.3,1.4
					c5.5,1.4,11.2,2.2,16.9,2.8C380.2,203.9,385.6,204.6,391.1,203.4 M394.8,163.5l-0.3,0.2c0.1,0.3,0.2,0.7,0.3,1
					c1.6,5.1,3.2,10.2,3.8,15.5c0.5,4.1,0.8,8.3,1.2,12.4c0.1,0.7,0,1.4,0.6,2.2c0.5-1.1,0.5-2.1,0.5-3.1c0-2.4-0.1-4.8-0.3-7.2
					c-0.4-4.8-1.1-9.6-2.5-14.2C397.5,167.8,396.3,165.6,394.8,163.5 M397.7,262c-1.1,0.2-1.3,0.8-1.3,1.4c-0.2,1.5-0.3,3.1-0.3,4.6
					c0,0.7,0.1,1.4,0.3,2c0.2,0.4,0.7,0.9,1.1,0.9c0.4,0,0.9-0.5,1-0.9c0.4-0.9,0.2-1.9-0.2-2.8c-0.2-0.5-0.4-1.1-0.5-1.7
					C397.6,264.2,397.7,263.2,397.7,262 M365.9,191.5c-1.1-2-2.9-2.1-4.6-2.7c-0.5-0.2-1.1-0.1-1.3,0.5c-0.3,0.7,0.2,1,0.7,1.3
					C362.3,191.5,364,191.6,365.9,191.5 M428.5,186.3c-1,0.7-1.9,1.3-2.8,2c-0.1,0.1-0.1,0.7,0.1,0.9c0.2,0.2,0.7,0.4,0.9,0.3
					c0.9-0.4,1.7-0.8,2.5-1.3c0.2-0.2,0.4-0.7,0.3-1C429.4,186.8,429,186.6,428.5,186.3"/>
				<path class="st5" d="M390.6,344.2c3-1.1,6.1-2.1,9.1-3.2c1.6-0.6,3.2-1.3,4.7-2c0.6-0.3,1.5-0.6,1.3-1.5
					c-0.2-0.9-1.1-0.9-1.8-0.9c-2.7,0-5.5,0.1-8.2,0.2c-7.1,0.3-14.2,0.8-21.3,0.2c-0.7,0-1.4,0-2,0c-0.2,0-0.6,0.4-0.6,0.6
					c0,0.3,0.2,0.8,0.4,0.9c1.2,0.4,2.3,0.8,3.6,0.5c0.4-0.1,0.8-0.2,1.2-0.2c6.8,0.2,13.5-0.2,20.2-0.6c1.6-0.1,3.2-0.2,4.9,0
					c-0.4,0.2-0.9,0.4-1.3,0.6c-3.4,1.2-6.9,2.4-10.3,3.4c-1.2,0.4-1.7,0.9-1.9,2.1c-0.6,4.1-1.3,8.1-1.8,12.2
					c-0.8,5.9-1.4,11.7-2.1,17.6c-0.1,1.1-0.1,2.2-0.2,3.5c-1.4,0.2-2.7,0.4-4.1,0.5c-7.2,0.4-14.4,0.2-21.6-0.1
					c-4.5-0.2-8.9-0.6-13.3-1.4c-1.5-0.3-3.1-0.6-4.6-1c-3.9-1.2-7.8-2.5-11.8-3.8c0.4-1.9,0.7-3.7,1.1-5.5c1.9-11,5-21.6,7.8-32.4
					c3-11.7,5.8-23.4,8.7-35c0.1-0.3,0.2-0.7,0.3-1.1c0.9,0.5,1.7,1.1,2.6,1.5c4.2,2.3,8.7,3.6,13.3,4.7c6.2,1.4,12.5,2.2,18.8,2.5
					c0.3,0,0.5,0.1,0.9,0.1c0.4,3.7,0.7,7.4,0.7,11.1c-1.5,1.2-1.6,1.5-0.7,3.7c0.4,0,0.8,0.1,1.2,0.1c0.7-0.1,1.1-0.5,1.1-1.2
					c0-1.4,0-2.8,0-4.2c-0.1-2.3-0.3-4.7-0.5-7c-0.1-0.8-0.1-1.5-0.2-2.3c6.1-0.2,12-0.4,18-0.6c0,0.5,0,1,0,1.4
					c-0.1,4.3-0.2,8.6-0.2,12.9c0,1.3,0.2,1.6,1.2,1.9c0.6,0.2,1.1,0.1,1.4-0.4c0.2-0.3,0.3-1,0.1-1.3c-0.9-1.3-1-2.8-0.9-4.3
					c0.1-3,0.1-6,0.1-9c0-0.5,0-1,0.1-1.6c9.3-1,18.3-2.6,27.2-5.2c0.1,1.4,0.2,2.7,0.3,3.9c0.6,5,1.1,10,1.7,15
					c0.5,4.1,1,8.2,1.5,12.4c1.2,8.7,1.6,17.5,2,26.2c0.2,5,0.3,10.1-0.5,15.1c0,0.3-0.1,0.6-0.2,1.1c-1.9,0.2-3.9,0.6-5.8,0.7
					c-3.9,0.1-7.9,0.2-11.8,0.1c-6.7-0.2-13.4,0.3-20,1.1c-2.9,0.4-5.8,0.8-8.8,1.2C388.3,366.3,388.1,355.2,390.6,344.2
					 M377.9,347.4c0,0.1-0.1,0.3-0.1,0.4c-0.5,0.2-1.1,0.3-1.6,0.4c-1.9,0.3-3.8,0.7-5.7,1c-3.5,0.5-7,1-10.5,1.6
					c-1,0.2-2,0.5-2.9,0.9c-1.1,0.5-1,1.6,0,2.2c0.6,0.3,1.3,0.6,1.9,0.6c2.3,0.2,4.6,0.3,6.8,0.3c2.6-0.1,5.2-0.4,7.8-0.6
					c-5.1-0.3-10.3-0.3-15.3-1.3c1.4-0.8,2.9-0.9,4.3-1.1c4.6-0.7,9.1-1.4,13.7-2.2c0.8-0.1,1.6-0.4,2.4-0.7
					c1.2-0.5,1.3-1.5,0.2-2.2c-0.7-0.5-1.6-0.8-2.4-1.1c-2.5-0.9-5-1.6-7.5-2.5c-4.6-1.5-9.2-3.3-13.4-5.8c-1.4-0.8-2.8-1.8-4.1-2.8
					c-0.5-0.3-1-0.8-0.8-1.7c0.5-0.1,1.1-0.3,1.7-0.3c1.2,0,2.4-0.1,3.6,0c6.8,0.4,13.6,1.4,20.3,2.7c2,0.4,3.9,0.7,5.9,1.1
					c0-0.1,0-0.2,0.1-0.3c-1.4-0.4-2.9-0.9-4.3-1.2c-6.6-1.7-13.4-2.7-20.2-3.4c-2-0.2-4-0.1-6.1-0.1c-1.1,0-2.1,0.3-2.5,1.5
					c-0.4,1.1,0.3,1.9,1.1,2.6c1,0.9,2,1.8,3.1,2.4c3,1.6,5.9,3.2,9,4.5c4.2,1.7,8.5,2.9,12.8,4.4C376.1,346.6,377,347,377.9,347.4
					 M420,350.9c0.3-1.1-0.3-1.8-1-2.4c-1.3-1.1-2.7-2.2-4-3.3c-0.5-0.4-0.9-0.9-1.4-1.5c0.7-0.5,1.1-0.9,1.6-1.2
					c0.8-0.4,1.6-0.8,2.4-1.2c3.1-1.5,6.2-2.9,9.3-4.4c0.6-0.3,1.3-0.7,1.8-1.2c0.7-0.6,0.6-1.4-0.3-1.8c-0.6-0.3-1.3-0.5-2-0.5
					c-3.1,0-6.1,0.1-9.2,0.2c-1.5,0.1-3,0.3-4.9,0.5c0.6-0.7,0.9-1.1,1.3-1.5c2.9-3.2,5.8-6.4,8.7-9.6c0.4-0.5,0.8-0.9,1.1-1.5
					c0.4-0.7-0.1-1.3-0.9-1.1c-0.6,0.1-1.2,0.4-1.7,0.6c-4.8,2.3-9.5,4.9-13.9,7.9c-1.4,0.9-2.7,2-4,3c-0.4,0.4-0.8,0.8-1.2,1.3
					c0.1,0.1,0.2,0.2,0.3,0.3c5.9-4.1,12-7.8,18.6-10.8c-0.3,0.5-0.6,1-1,1.4c-2.4,2.7-4.9,5.4-7.3,8.1c-0.4,0.5-0.8,0.9-1.2,1.5
					c-0.5,0.9-0.2,1.5,0.8,1.7c0.5,0.1,0.9,0.1,1.4,0c1.4-0.1,2.8-0.4,4.2-0.4c3-0.1,6-0.2,9-0.2c0.3,0,0.6,0.1,1.3,0.3
					c-0.9,0.5-1.6,0.9-2.2,1.2c-3.1,1.5-6.3,2.9-9.4,4.5c-0.9,0.4-1.8,0.9-2.6,1.5c-1.3,1-1.4,1.9-0.3,3.1c0.4,0.5,0.9,0.9,1.4,1.3
					C416.5,348,418.2,349.5,420,350.9 M384.3,339.9c1.7,0.8,1.5,2.8,2.8,4.1c-0.4-1.3-0.6-2.5-0.9-3.5
					C385.9,339.5,385.5,339.5,384.3,339.9 M376.2,353.7c0-0.1,0-0.1,0-0.2c-0.3,0-0.6,0-0.9,0.1c0,0,0,0.1,0,0.1H376.2z"/>
				<path class="st4" d="M335.9,376.3c3.2,0.8,6.2,1.6,9.2,2.2c5.8,1.1,11.6,1.5,17.5,1.6c4.6,0.1,9.2,0.1,13.9,0.2
					c0.3,0,0.5,0,0.9,0.1c-0.4,1.9-0.9,3.8-1.2,5.6c-1.6,8.9-3.2,17.9-4.6,26.8c-1.3,8.4-2.5,16.8-3.6,25.3
					c-0.9,6.2-1.7,12.4-2.4,18.7c-0.5,4,0,8.1,0.2,12.1c0.1,1.5,0.3,3.1,0.4,4.8c-12,0.2-23.8,0.1-35.8,0.2c-0.3-2-0.6-3.8-0.9-5.6
					c-1.2-9.1-1.4-18.2-0.8-27.4c0.6-8,1.2-15.9,2-23.9c0.8-8.1,1.9-16.2,2.9-24.3c0.6-5,1.3-10.1,1.9-15.1
					C335.7,377.2,335.8,376.7,335.9,376.3 M336.8,446.8c0.3-1.1,0.6-2.2,1.1-3.2c0.8-2.1,1.7-4.2,2.7-6.1c1.5-2.8,3.7-3.6,6.7-2.5
					c3.4,1.3,5.4,4.6,4.9,8.3c-0.6,4.3-2.4,8-5.3,11.2c-0.7,0.8-1.5,1.4-2.4,2c-1.7,1.1-3.2,0.8-4.6-0.6c-0.4-0.4-0.7-0.8-1.2-1.3
					c0.5,2.9,2.9,4.4,5.4,3.5c0.9-0.3,1.7-0.8,2.4-1.4c4.2-3.9,6.7-8.7,6.8-14.5c0.1-4.1-2.4-7.3-6.3-8.5c-3.3-1-6.1,0-7.6,3.1
					C337.6,439.8,337,443.3,336.8,446.8"/>
				<path class="st4" d="M395.9,473.2c1-31.7-0.1-63.1-3.4-94.6c1-0.1,1.9-0.3,2.9-0.4c8.8-1,17.6-1.6,26.4-1.3
					c3.6,0.1,7.2-0.2,10.7-0.3c0.4,0,0.8,0,1.3,0c0,0.3,0.1,0.6,0.1,0.9c-0.2,6.6-0.3,13.2-0.5,19.8c-0.2,5-0.4,10-0.8,14.9
					c-0.4,6.8-1,13.6-1.5,20.3c-0.5,6.7-1.1,13.3-1.7,20c-0.5,6.7-1.1,13.3-1.6,20c0,0.2-0.1,0.4-0.2,0.8
					C417.1,473.4,406.5,473.4,395.9,473.2 M409.5,455c-0.1-0.7-0.1-1.3-0.2-2c-0.1-2.7-0.3-5.5-0.2-8.2c0.2-3.8,2.5-6.3,6.2-7
					c2.7-0.5,5.1,0.5,6.4,3c0.5,0.9,0.9,2,1.1,3.1c0.8,4.9-0.1,9.5-2.1,13.9c-0.3,0.7-0.8,1.4-1.3,1.9c-0.6,0.7-1.5,1.1-2.5,0.8
					c-0.2,0-0.4,0-0.7,0c1.4,1.1,2.7,1.1,3.8-0.1c0.8-0.9,1.6-2,2.1-3.1c1.6-3.5,2.3-7.3,2.2-11.2c0-1.8-0.3-3.5-1-5.2
					c-1.5-3.5-4.8-5.2-8.5-4.4c-4.4,0.9-7.1,4.2-7.1,8.8C407.6,448.6,408.4,451.8,409.5,455"/>
				<path class="st4" d="M379.1,54.3c0.2,0.3,0.3,0.4,0.4,0.5c0.6,1.7,0.7,1.8,2.4,0.9c0.6-0.3,1.1-0.6,1.7-0.8
					c1.6-0.7,2.2-0.6,3.3,0.7c1.7,2.1,3,4.3,3.7,7c0.2,0.9,0.4,1.7,0.7,2.5c0.1,0.4,0.4,0.7,0.7,1.3c1.6-1.9,2.3-4.2,4.5-5.4
					c0.4,1.1-0.4,2-0.3,3.3c3.5-0.8,6.8-1.6,9-4.6c0.9,0.7,1.8,0.6,2.7,0.3c2.3-0.8,3.9-2.3,5.1-4.3c0.2-0.4,0.4-0.7,0.6-1.2
					c3.7,2.2,3.8,5.8,4.2,9.3c1.1,0.4,1.5-0.7,2.3-0.9c-0.1,0.5-0.2,0.9-0.3,1.4c1,0.8,1.8-0.1,2.7-0.3c0.3,2.1-0.2,3.9-0.6,5.8
					c-0.2,1.2-0.6,2.4-0.9,3.6c-0.1,0.5-0.1,1.1-0.2,1.6c0.9,0.2,1-0.5,1.2-0.9c0.7-1.6,1.7-3,2.9-4.2c0.9-0.9,2-1.5,3.3-1.7
					c1.4-0.3,2.4,0,3,1.3c0.5,1.1,1,2.3,1,3.5c0.1,2.3-0.1,4.6-0.4,6.8c-0.4,2.8-1.6,5.3-2.9,7.8c-1.2,2.4-2.6,4.7-3.9,7.1
					c-0.6,1.1-1.3,1.8-2.8,1.7c0-2.3,0.1-4.6,0-6.8c-0.2-4.6-0.4-5.3-1.3-6.5c0,0.4-0.1,0.7-0.1,1c0.1,3.3,0.4,6.5,0.4,9.8
					c0,5.6-1.7,10.7-5.8,14.6c-2.7,2.6-5.6,5-8.4,7.5c-2.6,2.3-5.7,4-8.8,5.6c-3.5,1.7-7,1.6-10.6,0.5c-3.9-1.3-7.3-3.4-10.5-5.9
					c-3.1-2.4-6.2-4.8-8.9-7.5c-3.4-3.3-6.2-7.2-8.2-11.5c-1.3-2.7-1.7-5.7-1.3-8.7c0.2-2,0.6-3.9,0.9-5.8c0-0.2,0-0.4,0-0.7
					c-0.8,0.1-0.8,0.8-1,1.3c-0.7,2.4-1.2,4.8-1.1,7.4c0,0.9-0.3,1.5-0.9,2c-0.9,0.8-1.6,0.8-2.4-0.1c-0.7-0.8-1.4-1.7-1.9-2.6
					c-2.6-4.8-3.9-10-4.4-15.4c-0.2-2,0.1-4,0.8-6c0.2-0.5,0.4-1.1,0.7-1.6c1.4-2.4,3.6-3,5.9-1.4c2.4,1.6,3.9,3.9,4.5,6.8
					c0.1,0.7,0.1,1.4,1,2.1c0.1-0.8,0.2-1.5,0.3-2.1c0.3-2.7,0.4-5.4,1-8c1-4.8,3.7-8.4,8.2-10.6c2.4-1.1,4-0.6,5.4,1.6
					c0.3,0.5,0.6,0.9,1,1.5C377.5,56,378.3,55.2,379.1,54.3 M379.4,73.3c-2.6,0.1-4.8,0.6-6.9,1.7c-3,1.5-3.4,2.8-1.8,5.8
					c2.5,4.6,8.6,5.8,13,3.6c1.8-0.9,2.7-2.5,2.7-4.6C386.5,75.7,383.7,73.2,379.4,73.3 M406.1,87.7c2.9,0,5.7-1.4,7.4-3.6
					c1.1-1.4,1.2-2.9,0.5-4.5c-0.5-1.1-1.3-1.9-2.3-2.5c-1.9-1.2-4-1.6-6.1-1.5c-2.8,0.2-5.2,1.4-6.8,3.9c-0.6,0.9-0.8,2-0.4,3
					C399.7,85.3,402.1,87.6,406.1,87.7 M392.4,110.2c3.2-0.1,6.3-0.9,9.1-2.9c0.9-0.6,1.9-1,2.8-1.6c0.7-0.5,1.4-1,2-1.6
					c0.1-0.1-0.1-0.6-0.1-1c-0.3,0.1-0.7,0-0.8,0.2c-1.1,1.3-2.6,1.8-4.1,1.9c-2.6,0.3-5.3,0.6-7.9,0.7c-4.5,0.3-8.9-0.5-13.2-1.7
					c-0.9-0.2-1.6-0.6-2.1-1.4c-0.2-0.4-0.6-0.7-1-1c-0.2-0.1-0.6-0.1-0.7,0c-0.1,0.2-0.2,0.6-0.1,0.8c0.3,0.5,0.8,1,1.2,1.4
					c1.8,1.7,4.1,2.8,6.3,4C386.4,109.4,389.3,110.2,392.4,110.2 M387.5,73.4c0.7-1.1,0.5-2.3,0.4-3.4c-0.1-2.5-1.5-3.8-4-4.2
					c-2.4-0.3-4.8-0.2-7.1,0.1c-2.7,0.4-5.3,1.1-7.6,2.5c-0.5,0.3-1.2,0.5-1.5,1.4c1.1,0.2,2,0.1,2.9,0c4-0.4,7.9,0,11.6,1.3
					C384,71.8,385.6,72.6,387.5,73.4 M416.8,73.8c-0.5-2.6-1.4-4.5-3.5-5.8c-2.2-1.3-4.5-1.5-6.9-0.9c-2.9,0.7-5.4,2.1-7.4,4.3
					c-0.5,0.6-1.1,1.1-0.6,1.9c0.4,0.8,1.2,0.4,1.8,0.3c2.5-0.4,4.9-0.9,7.4-1.2c2.7-0.3,5.4-0.2,7.9,1.1
					C415.7,73.6,416.1,73.6,416.8,73.8 M389.4,93.2c-0.6-0.5-1.2-0.3-1.7,0.1c-0.7,0.6-1.3,1.2-1.8,1.9c-0.6,0.7-0.6,1.5-0.2,2.3
					c1.8,3.9,8,5.4,11.2,2c1.6-1.7,1.9-3.4,0.5-5.2c-0.9-1.1-1.3-2.3-1.6-3.7c-0.8-3-0.6-6.1-0.2-9.1c0-0.3-0.1-0.6-0.1-0.9
					c-0.1,0-0.2,0-0.4-0.1c-0.2,0.4-0.5,0.9-0.6,1.3c-0.7,4.6-0.6,9,2,13c0.1,0.2,0.2,0.5,0.4,0.7c0.5,0.8,0.4,1.6-0.1,2.3
					c-0.8,1.1-1.8,2-3.2,2.3c-3,0.6-5.8-0.8-7.1-4C387.4,95.3,388.4,94.3,389.4,93.2 M356.9,80.7c-2.9,0.6-4.1,2-3.7,4.4
					c0.2,1.6,1.2,2.6,2.9,2.5c-1.6-1.2-2.3-2.7-1.5-4.5c0.6-1.3,1.9-1.2,3.3-1.1c0-0.5,0.1-1,0.1-1.4c-0.1-2.6-0.6-5.2-1.5-7.6
					c-0.4-1.1-0.9-2.1-1.6-3c-0.4-0.6-1-1-1.6-1.4c-0.7-0.4-1.6-0.4-2.2,0.4c2.2,0.3,2.7,0.5,3.6,2.1
					C356,74.1,356.5,77.3,356.9,80.7 M429.4,72.5c-0.7-0.7-1.1-0.8-2.1-0.4c-1.1,0.5-1.8,1.5-2.4,2.6c-1.3,2.6-1.8,5.4-2,8.2
					c0,0.4,0.2,0.9,0.2,1.3c0.4,0,0.6,0,0.8,0c0.9-0.1,1.5,0.2,2,0.9c0.5,0.8,0.3,1.5-0.2,2.2c-0.3,0.4-0.7,0.7-1.1,1.1
					c-0.2,0.2-0.3,0.5-0.5,0.8c1.3,0.2,2.5-0.9,2.8-2.5c0.1-0.6,0-1.3-0.2-1.8c-0.5-1.3-1.8-1.6-3-1.9c0.2-2.7,0.7-5.3,1.9-7.7
					c0.4-0.7,0.8-1.5,1.5-2C427.8,72.9,428.7,72.8,429.4,72.5"/>
				<path class="st6" d="M397.7,62.8c0-1,0-1.9,0-2.7c0-0.3-0.2-0.8-0.4-0.9c-0.2-0.1-0.7,0.1-0.9,0.3c-1.5,1.3-3.1,2.5-4.1,4.5
					c-0.2-0.6-0.4-0.9-0.5-1.3c-0.7-2.8-2.1-5.3-3.9-7.6c-1.5-1.9-2.6-2.2-4.9-1.2c-0.7,0.3-1.3,0.6-2.1,1c-0.2-0.4-0.4-0.8-0.6-1.2
					c-0.4-0.7-0.9-0.9-1.6-0.4c-0.7,0.5-1.4,1.1-2.1,1.7c-0.2-0.3-0.4-0.5-0.6-0.8c-1.5-2-3.5-2.6-5.9-1.6c-3.6,1.5-6.2,4.1-8,7.5
					c-1.1,2.3-1.7,4.8-2,7.3c-0.1,0.5-0.2,1.1-0.3,1.8c-0.8-1.1-1.4-2.1-2.2-2.9c-0.9-0.9-1.9-1.7-3-2.4c-1.2-0.7-2.6-0.8-3.9-0.1
					c-0.4,0.2-0.9,0.5-1.2-0.1c-0.1-0.3,0.2-0.7,0.4-1c0.1-0.2,0.4-0.4,0.6-0.6c-0.2-0.4-0.4-0.9-0.6-1.2c0.1-0.1,0.1-0.3,0.2-0.3
					c1.4-0.6,1.4-0.8,1-2.2c-0.5-1.5-1.1-3-1.5-4.6c-0.2-0.7-0.3-1.4-0.4-2.2c0.5-0.2,0.8-0.3,1.3-0.5c-0.1-0.5-0.2-1.1-0.3-1.6
					c-0.1-0.4-0.1-0.8-0.1-1.2c0.1-1,0.2-1.1,1.3-0.9c0.2,0,0.5,0.1,0.9,0.1c0.3-1.8-0.2-3.6,0.8-5.3c0.5,0.3,1,0.6,1.5,1
					c0.1-0.4,0.3-0.6,0.3-0.9c0.8-5.6,3.8-9.7,8.2-12.9c2.8-2,6.1-2.9,9.4-3.5c5.5-1,11-1,16.6-0.8c6.1,0.2,12,1.4,17.9,2.9
					c5.5,1.4,10.5,3.9,15,7.3c2.3,1.8,3.8,4.1,4.9,6.8c-0.3,0.1-0.6,0.3-0.9,0.4c0,0.2-0.1,0.4,0,0.5c2.5,3.9,2.9,8.1,2.3,12.6
					c-0.2,1.6-0.2,1.7,1.8,2.3c-0.2,0.8-0.5,1.6-0.8,2.5c0.3,0.3,0.7,0.5,1.2,0.9c-0.5,0.6-0.9,1.2-1.4,1.8c0.1,0.2,0.3,0.6,0.5,1.1
					c-0.3,0.4-0.6,0.8-1,1.2c-0.4,0.5-1.2,0.7-1.2,1.5c0,0.2-0.3,0.4-0.5,0.5c-1.3,0.8-2.6,1.6-4,2.5c0.1-0.8,0.3-1.7,0.4-2.5
					c0.1-1.3,0.2-2.6,0.2-3.9c0-1.3-0.4-1.5-1.5-0.8c-0.2,0.1-0.3,0.2-0.6,0.4c0-1.3,0.7-2.6-0.3-3.9c-0.7,1-1.3,1.9-2,2.9
					c-0.1,0-0.2-0.1-0.3-0.1c-0.4-2-0.7-3.9-1.7-5.7c-1.1-1.7-2.6-2.9-4.5-3.6c-0.7,3.6-2.9,5.9-5.8,6.2c-0.1-1-0.1-2-0.2-2.9
					c0-0.3-0.4-0.5-0.6-0.8c-0.2,0.2-0.6,0.5-0.6,0.7C404.4,60.4,401.5,62,397.7,62.8"/>
				<path class="st4" d="M233.1,187.3c-0.7-0.2-1.4-0.5-2.1-0.7c-0.6-0.2-1.3-0.3-2-0.3c-2.4,0.1-4.7-0.7-7-1.3
					c-5.1-1.4-10.2-1.5-15.5-1.2c-0.9,0.1-1.8,0.3-2.6,0.2c-0.5,0-1.1-0.2-1.5-0.6c-0.8-0.7-0.7-1.6,0.2-2c1.1-0.5,2.4-0.8,3.6-1
					c4.6-0.7,9.1,0.1,13.5,1.5c5.2,1.6,10.3,3.3,15.4,4.9c0.9,0.3,1.8,0.5,2.7,0.7c1.5,0.3,2.8-0.1,4-0.9c2.2-1.6,2.1-4.4-0.1-5.8
					c-2.9-1.8-5.8-3.4-8.6-5.3c-1.9-1.3-3.7-2.8-5.5-4.3c-1.3-1.1-1.2-1.9,0-2.9c1.4-1.2,3-1.8,4.8-2c0.9-0.1,1.8,0.2,2.3,1
					c0.6,0.8,1.2,1.7,1.6,2.6c0.9,1.9,2.2,3.2,4.1,4c3.2,1.4,6.4,2.6,10,2.8c0.4,0,0.8,0.2,1.2,0.2c3.2,0.4,5.2,2.3,6.5,5.1
					c1.2,2.5,1.8,5.2,2.4,8c-0.4-0.3-0.7-0.4-0.9-0.6c-2.4-1.8-5.1-2.3-8-1.7c-2.4,0.5-4.8,0.9-7.2,1.4c-2.4,0.5-4.8-0.1-7.1-0.5
					c-5.2-1-10.2-0.5-14.8,2c-2.4,1.3-4.8,2.5-7.5,3.2c-1.9,0.5-3.8,1.4-5.7,2.1c-1.5,0.6-3.1,0.8-4.7,0.6c-0.7-0.1-1.6-0.1-1.9-0.9
					c-0.3-0.8,0.3-1.5,0.9-2c1.1-0.8,2.3-1.6,3.6-2.2c4.7-2,9.6-3.2,14.6-3.6c3.1-0.3,6.3-0.2,9.5-0.2c0.5,0,1.1,0,1.6,0
					C233,187.7,233.1,187.5,233.1,187.3"/>
				<path class="st7" d="M479.6,74.1c-0.7,5.1-0.9,9.8-0.6,14.6c0.4,4.8,1.2,9.5,2.6,14.2c-1.9,0.2-3.7,0.4-5.7,0.6
					c-0.2-1-0.4-1.9-0.5-2.8c-0.6-3-1.4-6.1-1.8-9.1c-0.5-3.4-0.4-6.8,0.2-10.2C474.3,78.1,476.6,76,479.6,74.1"/>
				<path class="st4" d="M490.3,118.7c-1.8-0.2-3.4-0.4-5-0.5c-1.3-0.1-2.7-0.3-4-0.4c-1.5-0.1-1.9,0.2-2.6,1.5
					c-0.9,2-1.6,4.2-1.9,6.4c-0.1,0.4-0.2,1-0.6,1.2c-0.6,0.4-1.1-0.1-1.5-0.5c-0.9-0.9-1.4-2.1-1.2-3.4c0.4-3.8,1.5-7.5,3-11.1
					c0.6-1.4,1-1.7,2.5-1.4c2.7,0.4,5.4,0.9,8.1,1.4c0.4,0.1,0.9,0.4,1,0.8C489,114.5,489.6,116.5,490.3,118.7"/>
				<path class="st4" d="M220.2,186.2c-4,0.8-8.1,1.6-11.9,3.1c-1.7,0.7-3.3,1.6-5,2.5c-0.4,0.2-0.9,0.6-1.1,1
					c-0.7,1.3-1.8,1.5-3.1,1.6c-0.9,0-1.9,0.1-2.8,0.1c-2-0.1-2.4-0.8-1.5-2.5c0.8-1.5,1.9-2.7,3.3-3.7c1.9-1.3,4-2.1,6.2-2.4
					c5-0.7,10-0.5,15.1,0.1C219.6,186.1,219.9,186.2,220.2,186.2"/>
				<path class="st8" d="M396.8,304.5c0.4-3.4-0.1-6.5-0.8-9.7c3-0.4,6-0.7,9.1-1.1c0.9,3.2,0.8,6.5,1.4,9.9
					c-0.9,0.1-1.7,0.2-2.6,0.4c-0.2-0.6-0.4-1.1-0.5-1.6c-1.2,0.1-0.8,1.1-1.3,1.8C400.5,304.2,398.8,304.3,396.8,304.5"/>
				<path class="st4" d="M483.5,104.8c0.8,1.6,1.5,3.1,2.4,4.7c-0.6-0.1-1-0.1-1.4-0.2c-1.8-0.3-3.6-0.6-5.4-0.8
					c-2.3-0.2-3.4,0.3-4.2,2.6c-1.1,2.9-1.8,5.8-2.7,8.7c-0.2,0.5-0.3,1.1-0.4,1.6c-2.1,0.1-2.8-0.5-2.4-2.3
					c0.7-3.6,1.6-7.2,2.3-10.8c0.4-1.7,1.5-2.7,3.2-2.8c2.3-0.2,4.6-0.5,7-0.7C482.4,104.8,483,104.8,483.5,104.8"/>
				<path class="st8" d="M368.8,292.5c2.8,0.4,5.3,0.8,7.8,1.2c0.6,3.5,1.3,7,1.9,10.6c-2.8,0-5.6-0.5-8.6-0.9
					C369.5,299.7,369.1,296.2,368.8,292.5"/>
				<path class="st8" d="M377.6,293.9c3.1,0.3,6,0.5,8.9,0.8c0.3,3.3,0.6,6.6,1,9.9h-3.6c-0.3-1.7-0.6-3.3-1-5.2
					c-0.9,1-0.6,1.8-0.6,2.6c0,0.8,0,1.6,0,2.6c-1-0.1-1.9-0.1-3-0.2C378.7,300.9,378.2,297.6,377.6,293.9"/>
				<path class="st8" d="M422.1,289.4c0.4,3.9,0.8,7.5,1.1,11.3c-2.6,0.5-5.2,1.1-7.9,1.6c0.2-3.7,0.5-7.3-0.4-10.9
					C417.3,290.8,419.5,290.2,422.1,289.4"/>
				<path class="st8" d="M413.9,291.8c0.3,3.6,0.6,7,0.9,10.6c-2.5,0.4-4.9,0.7-7.5,1.1c-0.1-1.8,0-3.4-0.2-5
					c-0.2-1.6-0.6-3.3-0.9-5.1C408.7,292.9,411.2,292.4,413.9,291.8"/>
				<path class="st8" d="M387.6,294.7h7.5c0.3,3.2,0.6,6.3,0.9,9.5c-1.1,0.4-5.1,0.6-7.4,0.3c-0.1-1.6-0.2-3.2-0.4-4.9
					C388.1,298.1,387.8,296.5,387.6,294.7"/>
				<path class="st8" d="M361.9,291c2,0.4,3.8,0.8,5.6,1.2c0.4,3.6,0.8,7.2,1.3,10.9c-2.1-0.4-4.3-0.8-6.5-1.2
					C361.7,299.6,361.5,292.9,361.9,291"/>
				<path class="st8" d="M355.3,289c1.9,0.6,3.6,1.2,5.4,1.7c-0.3,3.6-0.3,7.2,0.9,10.9c-2.5-0.4-4.6-1.1-6.8-1.9
					C354.6,296.2,354.5,292.6,355.3,289"/>
				<path class="st8" d="M354.4,288.7c-1.2,3.4-1.1,6.9-0.4,10.7c-2.5-1-4.6-2-6.7-3.4c0.6-3.4,1.2-6.8,1.7-10.3
					C350.8,286.8,352.5,287.7,354.4,288.7"/>
				<path class="st8" d="M423,289.1c1.7-0.5,3.2-1,4.7-1.4c0.5,1.2,0.8,8,0.6,11.6c-0.7,0.2-1.4,0.4-2.1,0.7
					c-0.7,0.2-1.5,0.4-2.5,0.6C424,296.7,424.2,292.9,423,289.1"/>
				<path class="st8" d="M428.9,287.3c0.8-0.2,1.5-0.4,2.3-0.6c0.1,2.4,0.6,4.6,0.2,6.9c-0.3,1.6-0.4,3.3-0.6,5
					c-0.4,0.1-0.9,0.3-1.6,0.5C429.6,295.1,429.6,291.3,428.9,287.3"/>
				<path class="st4" d="M484.9,130.7c0.3-0.5,0.6-0.9,0.9-1.4c0.4,0.2,0.8,0.3,1.4,0.6c-0.8,0.4-1.5,0.7-2.1,1.1
					C485.1,130.9,485,130.8,484.9,130.7"/>
				<path class="st8" d="M349.7,284.2c0.3-0.5,0.6-0.9,1-1.4c0.2,0.8,0.3,1.4,0.5,2.2C350.7,284.7,350.3,284.5,349.7,284.2"/>
				<path class="st8" d="M430.2,283.5c0.3,0.5,0.6,0.7,0.8,1.1c-0.3,0.1-0.5,0.3-0.8,0.4V283.5z"/>
				<path class="st9" d="M391.1,203.4c-5.6,1.1-10.9,0.5-16.2-0.1c-5.7-0.6-11.3-1.4-16.9-2.8c-1.5-0.4-2.9-0.9-4.3-1.4
					c-0.5-0.2-0.9-0.5-1.5-0.9c0.7-0.7,1.3-0.3,1.8-0.2c3.1,0.6,6.2,1.4,9.3,1.9c5.5,0.8,11.1,1.4,16.7,2.1c2.9,0.4,5.9,0.7,8.8,1.1
					C389.5,203.2,390.2,203.3,391.1,203.4"/>
				<path class="st9" d="M394.8,163.5c1.5,2.1,2.7,4.3,3.5,6.8c1.4,4.6,2.1,9.4,2.5,14.2c0.2,2.4,0.2,4.8,0.3,7.2c0,1,0,1.9-0.5,3.1
					c-0.6-0.8-0.6-1.5-0.6-2.2c-0.4-4.1-0.7-8.3-1.2-12.4c-0.6-5.3-2.2-10.4-3.8-15.5c-0.1-0.3-0.2-0.7-0.3-1L394.8,163.5z"/>
				<path class="st9" d="M397.7,262c0,1.2-0.1,2.3,0,3.3c0,0.6,0.2,1.2,0.5,1.7c0.4,0.9,0.6,1.9,0.2,2.8c-0.2,0.4-0.7,0.9-1,0.9
					c-0.4,0-0.9-0.5-1.1-0.9c-0.2-0.6-0.3-1.3-0.3-2c0.1-1.5,0.2-3.1,0.3-4.6C396.4,262.7,396.6,262.1,397.7,262"/>
				<path class="st9" d="M365.9,191.5c-2,0.1-3.6,0-5.2-0.9c-0.6-0.3-1-0.7-0.7-1.3c0.2-0.6,0.8-0.7,1.3-0.5
					C363,189.3,364.9,189.5,365.9,191.5"/>
				<path class="st9" d="M428.5,186.3c0.4,0.4,0.9,0.6,1,0.9c0.1,0.3-0.1,0.9-0.3,1c-0.8,0.5-1.6,0.9-2.5,1.3
					c-0.3,0.1-0.8,0-0.9-0.3c-0.2-0.2-0.2-0.8-0.1-0.9C426.6,187.5,427.5,187,428.5,186.3"/>
				<path class="st9" d="M377.9,347.4c-0.9-0.3-1.8-0.7-2.7-1c-4.3-1.5-8.6-2.7-12.8-4.4c-3.1-1.2-6.1-2.9-9-4.5
					c-1.1-0.6-2.1-1.5-3.1-2.4c-0.7-0.7-1.4-1.5-1.1-2.6c0.4-1.2,1.5-1.5,2.5-1.5c2,0,4.1-0.1,6.1,0.1c6.8,0.7,13.6,1.6,20.2,3.4
					c1.4,0.4,2.9,0.8,4.3,1.2c0,0.1,0,0.2-0.1,0.3c-2-0.4-3.9-0.7-5.9-1.1c-6.7-1.3-13.5-2.2-20.3-2.7c-1.2-0.1-2.4-0.1-3.6,0
					c-0.6,0-1.2,0.2-1.7,0.3c-0.3,0.9,0.3,1.3,0.8,1.7c1.3,1,2.7,2,4.1,2.8c4.2,2.4,8.8,4.2,13.4,5.8c2.5,0.8,5,1.6,7.5,2.5
					c0.8,0.3,1.7,0.6,2.4,1.1c1.1,0.7,1,1.7-0.2,2.2c-0.7,0.3-1.6,0.6-2.4,0.7c-4.6,0.8-9.1,1.5-13.7,2.2c-1.5,0.2-3,0.4-4.3,1.1
					c5.1,1,10.2,1,15.3,1.3c-2.6,0.2-5.2,0.5-7.8,0.6c-2.3,0.1-4.6-0.1-6.8-0.3c-0.6,0-1.3-0.3-1.9-0.6c-1-0.6-1.1-1.6,0-2.2
					c0.9-0.5,1.9-0.8,2.9-0.9c3.5-0.6,7-1,10.5-1.6c1.9-0.3,3.8-0.6,5.7-1c0.5-0.1,1.1-0.3,1.6-0.4
					C377.9,347.6,377.9,347.5,377.9,347.4"/>
				<path class="st9" d="M420,350.9c-1.8-1.5-3.5-2.9-5.2-4.3c-0.5-0.4-1-0.8-1.4-1.3c-1.1-1.2-1-2.2,0.3-3.1
					c0.8-0.6,1.7-1.1,2.6-1.5c3.1-1.5,6.3-3,9.4-4.5c0.6-0.3,1.2-0.7,2.2-1.2c-0.7-0.2-1-0.3-1.3-0.3c-3,0-6,0.1-9,0.2
					c-1.4,0.1-2.8,0.3-4.2,0.4c-0.5,0-0.9,0.1-1.4,0c-1-0.2-1.3-0.8-0.8-1.7c0.3-0.5,0.7-1,1.2-1.5c2.4-2.7,4.9-5.4,7.3-8.1
					c0.4-0.4,0.7-0.8,1-1.4c-6.6,2.9-12.7,6.7-18.6,10.8c-0.1-0.1-0.2-0.2-0.3-0.3c0.4-0.4,0.7-0.9,1.2-1.3c1.3-1,2.6-2.1,4-3
					c4.4-3,9.1-5.6,13.9-7.9c0.6-0.3,1.1-0.5,1.7-0.6c0.8-0.1,1.2,0.4,0.9,1.1c-0.3,0.5-0.7,1-1.1,1.5c-2.9,3.2-5.8,6.4-8.7,9.6
					c-0.4,0.4-0.7,0.8-1.3,1.5c1.9-0.2,3.4-0.4,4.9-0.5c3.1-0.1,6.1-0.2,9.2-0.2c0.7,0,1.3,0.2,2,0.5c0.8,0.4,0.9,1.1,0.3,1.8
					c-0.5,0.5-1.2,0.9-1.8,1.2c-3.1,1.5-6.2,2.9-9.3,4.4c-0.8,0.4-1.6,0.8-2.4,1.2c-0.5,0.3-1,0.7-1.6,1.2c0.5,0.6,0.9,1.1,1.4,1.5
					c1.3,1.1,2.7,2.2,4,3.3C419.6,349.2,420.3,349.8,420,350.9"/>
				<path class="st9" d="M384.3,339.9c1.2-0.5,1.5-0.4,1.9,0.6c0.4,1,0.6,2.2,0.9,3.5C385.8,342.7,386,340.7,384.3,339.9"/>
				<path class="st9" d="M376.2,353.7h-0.9c0,0,0-0.1,0-0.1c0.3,0,0.6,0,0.9-0.1C376.2,353.6,376.2,353.7,376.2,353.7"/>
				<path class="st9" d="M336.8,446.8c0.3-3.5,0.9-7,2.5-10.1c1.6-3,4.4-4.1,7.6-3.1c3.9,1.2,6.3,4.4,6.3,8.5
					c-0.1,5.8-2.6,10.6-6.8,14.5c-0.7,0.6-1.5,1.1-2.4,1.4c-2.5,0.9-4.9-0.6-5.4-3.5c0.5,0.5,0.8,0.9,1.2,1.3
					c1.4,1.5,2.9,1.7,4.6,0.6c0.9-0.5,1.7-1.2,2.4-2c2.9-3.2,4.7-7,5.3-11.2c0.5-3.8-1.4-7-4.9-8.3c-3-1.1-5.2-0.3-6.7,2.5
					c-1,2-1.8,4.1-2.7,6.1C337.4,444.6,337.1,445.7,336.8,446.8"/>
				<path class="st9" d="M409.5,455c-1.1-3.2-1.9-6.4-1.9-9.6c0.1-4.6,2.8-7.8,7.1-8.8c3.7-0.8,7,0.9,8.5,4.4c0.7,1.6,1,3.4,1,5.2
					c0.1,3.9-0.6,7.7-2.2,11.2c-0.5,1.1-1.2,2.2-2.1,3.1c-1.1,1.2-2.4,1.2-3.8,0.1c0.3,0,0.6,0,0.7,0c1,0.3,1.9-0.1,2.5-0.8
					c0.5-0.6,1-1.2,1.3-1.9c2-4.4,2.9-9.1,2.1-13.9c-0.2-1.1-0.6-2.1-1.1-3.1c-1.3-2.4-3.7-3.5-6.4-3c-3.6,0.7-6,3.2-6.2,7
					c-0.1,2.7,0.1,5.5,0.2,8.2C409.4,453.7,409.5,454.3,409.5,455"/>
				<path class="st9" d="M387.5,73.4c-1.8-0.8-3.5-1.6-5.2-2.2c-3.8-1.3-7.7-1.7-11.6-1.3c-0.9,0.1-1.9,0.3-2.9,0
					c0.3-0.9,1-1.1,1.5-1.4c2.4-1.4,5-2.1,7.6-2.5c2.4-0.4,4.7-0.5,7.1-0.1c2.5,0.4,3.8,1.7,4,4.2C388,71.1,388.2,72.3,387.5,73.4
					 M386.7,71.9c0.7-3.8-1-5-3.4-5.1c-3.3-0.2-6.6,0-9.8,1c-0.7,0.2-1.3,0.5-2,0.7C376.8,68.5,381.9,69.3,386.7,71.9"/>
				<path class="st9" d="M416.8,73.8c-0.7-0.2-1.1-0.1-1.4-0.3c-2.5-1.4-5.2-1.5-7.9-1.1c-2.5,0.3-4.9,0.8-7.4,1.2
					c-0.6,0.1-1.4,0.5-1.8-0.3c-0.4-0.8,0.1-1.4,0.6-1.9c2-2.2,4.5-3.6,7.4-4.3c2.4-0.6,4.8-0.4,6.9,0.9
					C415.4,69.2,416.3,71.2,416.8,73.8 M399.7,72.7c1.7-0.3,3.4-0.7,5.2-1c3.4-0.6,6.9-0.9,10.2,0.4c0,0,0.1-0.1,0.2-0.2
					c-1.2-2.8-3.3-4.1-6.2-4.1C405.2,67.8,402.1,69.7,399.7,72.7"/>
				<path class="st9" d="M356.9,80.7c-0.4-3.4-0.8-6.7-2.5-9.6c-0.9-1.5-1.3-1.8-3.6-2.1c0.7-0.8,1.5-0.8,2.2-0.4
					c0.6,0.3,1.3,0.8,1.6,1.4c0.6,0.9,1.2,2,1.6,3c0.9,2.4,1.4,5,1.5,7.6c0,0.4,0,0.9-0.1,1.4c-1.4-0.1-2.7-0.2-3.3,1.1
					c-0.8,1.8-0.1,3.3,1.5,4.5c-1.6,0.1-2.6-0.8-2.9-2.5C352.8,82.8,354,81.3,356.9,80.7"/>
				<path class="st9" d="M429.4,72.5c-0.7,0.3-1.6,0.4-2.2,0.8c-0.6,0.5-1.1,1.2-1.5,2c-1.2,2.4-1.6,5-1.9,7.7
					c1.3,0.3,2.5,0.6,3,1.9c0.2,0.5,0.3,1.2,0.2,1.8c-0.3,1.6-1.5,2.6-2.8,2.5c0.2-0.3,0.3-0.5,0.5-0.8c0.3-0.4,0.8-0.7,1.1-1.1
					c0.5-0.7,0.7-1.4,0.2-2.2c-0.5-0.7-1.1-1.1-2-0.9c-0.2,0-0.4,0-0.8,0c-0.1-0.4-0.3-0.9-0.2-1.3c0.2-2.9,0.8-5.6,2-8.2
					c0.5-1.1,1.2-2,2.4-2.6C428.3,71.7,428.7,71.8,429.4,72.5"/>
				<path class="st10" d="M377.6,74.5c-2.1,4-1.8,6.2,0.6,7.5c2.5,1.3,5,0.2,6.9-3.1c0.6,2.2,0.1,3.6-2,4.5c-4,1.9-9.1,0.6-11.3-3
					c-1.5-2.5-1.3-3.3,1.3-4.5c0.8-0.4,1.7-0.7,2.6-1C376.2,74.7,376.7,74.7,377.6,74.5"/>
				<path class="st6" d="M380.1,81.4c-2.3-0.2-3.5-2-2.7-4.2c0.1-0.4,0.3-0.8,0.5-1.1c0.9-1.5,2.1-2,3.8-1.5
					c1.6,0.5,2.2,1.4,2.1,3.2C383.8,79.7,382,81.5,380.1,81.4"/>
				<path class="st10" d="M403.3,77.3c-0.9,2.4-1.2,4.5,0.8,6.1c1.3,1,3.4,1.1,4.9,0.2c1.7-1,2.3-2.8,1.9-5.5
					c2.3,0.6,3.3,3.4,1.8,5.2c-3.4,4.3-9.5,4.3-12.9-0.1c-0.8-1.1-0.9-2-0.1-3.1C400.6,78.9,401.5,77.9,403.3,77.3"/>
				<path class="st6" d="M409.9,79.7c0,2-1.3,3.4-3.2,3.4c-1.9,0-3-1-3-2.8c0-2.1,1.1-3.6,2.8-3.6C408.8,76.6,409.9,77.6,409.9,79.7
					"/>
				<path class="st7" d="M399.7,106.8c-4.8,3.2-12.4,2.5-17.2-0.9C388.1,107.3,393.8,107.3,399.7,106.8"/>
				<path class="st6" d="M386.7,71.9c-4.8-2.6-9.9-3.5-15.2-3.5c0.7-0.2,1.3-0.5,2-0.7c3.2-1,6.5-1.2,9.8-1
					C385.7,66.9,387.4,68.1,386.7,71.9"/>
				<path class="st6" d="M399.7,72.7c2.4-3,5.5-4.8,9.4-4.8c2.9,0,5,1.3,6.2,4.1c-0.1,0.1-0.2,0.2-0.2,0.2
					c-3.4-1.3-6.8-0.9-10.2-0.4C403.1,71.9,401.4,72.3,399.7,72.7"/>
				<path class="st11" d="M404.7,104c-0.6,0.3-1.2,0.6-1.8,0.9c-1.5-2-2.4-4.4-2.4-6.8c0-6.5,5.4-11.7,12-11.7
					c1.9,0,3.8,0.4,5.5,1.3c1.2,0.6,2.6,1.6,3.2,2.5c0.4,2.8,0.3,5.2-0.2,8c-0.6,3.8-2.2,7.2-4.9,10.1l-3.7,1
					c-1.6,0.5-3.2,0.3-4.6-0.4c-1.4-0.7-2.7-1.6-3.7-2.7c-0.1-0.1-0.2-0.2-0.2-0.3c0.2-0.1,0.4-0.2,0.6-0.3"/>
				<path class="st11" d="M382.6,105.2c0.2,0,0.5,0.1,0.7,0.1c1.8-2.3,2.9-5.3,2.9-8.2c0-5.1-2.9-9.6-7.1-11.8
					c-1.9,0.1-3.9-0.4-5.6-1.5c-0.1,0-0.3,0-0.4,0c-1.5,0-2.9,0.2-4.3,0.7c-3.2,1.1-5.8,3.4-7.4,6.4c-0.7,1.3-1.4,3.1-1.4,4.6
					c0,0.7-0.1,1.5-0.1,2.2c0.6,1.5,1.4,2.9,2.4,4.2c0.9,1.2,1.9,2.5,2.9,3.7c1.1,1.2,2.1,2.4,3.3,3.5c1.5,0.8,3.1,1.1,4.9,1.2
					c3.4,0.1,6.6-1.5,8.9-3.8c-0.1,0-0.2-0.1-0.2-0.1"/>
				<path class="st9" d="M192.6,193c0.2-0.2,0.4-0.3,0.5-0.5c1.3-3.6,3.9-5.8,7.4-7c0.5-0.2,0.9-0.4,1.5-0.6
					c-0.3-0.3-0.4-0.6-0.6-0.8c-1.3-1.4-1-3,0.8-3.8c0.8-0.3,1.6-0.6,2.4-0.7c4.3-0.8,8.5-0.6,12.6,0.5c4.1,1.1,8.1,2.5,12.2,3.7
					c2.8,0.8,5.6,1.7,8.4,2.4c1.4,0.4,2.7-0.1,3.6-1.2c1-1.1,0.9-2-0.3-2.9c-1-0.7-2-1.3-3.1-1.8c-4.1-2.3-7.9-4.9-11.5-8
					c-1.8-1.5-1.7-3.8,0.2-5.2c1.7-1.2,3.6-2,5.6-2.1c1.4-0.1,2.7,0.4,3.5,1.7c0.6,0.9,1.1,1.9,1.6,2.8c0.8,1.5,1.9,2.5,3.4,3.2
					c3.2,1.4,6.4,2.6,10,2.8c0.6,0,1.1,0.2,1.7,0.3c3.3,0.6,5.4,2.6,6.8,5.6c1.3,3,1.9,6.1,2.8,9.2c0.7,2.4,1.8,4.7,2.7,7.1
					c0.3,0.7,0.8,0.9,1.5,1c1.7,0.2,3.4,0.4,5.1,0.6c5.8,0.7,11.6,1.5,17.5,2c5,0.5,10,0.7,15.1,1c1.7,0.1,3.3,0,5,0.9
					c0.3-0.5,0.5-0.9,0.7-1.4c4.4-12.1,8.8-24.3,13.2-36.4c1.2-3.4,2.2-6.9,3.5-10.3c1.8-5,4.5-9.4,7.9-13.5
					c2.9-3.5,6.3-5.6,10.6-6.6c3.6-0.8,7.2-1.5,10.8-2.4c2.9-0.7,5.7-1.7,8.5-2.5c1.5-0.5,2.4-1.4,3-2.9c1.7-3.9,1.7-8.1,1.9-12.2
					c0.1-2.7-0.7-4.8-2.7-6.9c-3.5-3.5-6.3-7.6-8-12.3c-0.3-0.8-0.5-1.6-0.8-2.4c-0.2,0.1-0.4,0.1-0.6,0.2c-1.7,0.9-3,0.7-4.1-0.8
					c-1-1.4-2-2.9-2.8-4.5c-2.1-4.5-3.3-9.3-3.6-14.3c-0.2-3.3,0.5-6.4,2.6-9.2c-0.7-0.9-0.9-1.8-0.1-2.8c0.1-0.1,0.2-0.4,0.1-0.6
					c-0.5-1.2,0-2,1.2-2.4c-0.5-1.6-1.1-3.2-1.5-4.7c-0.2-0.7-0.3-1.4-0.4-2.1c-0.1-0.9,0-1.8,0.8-2.2c0-1,0-2,0.2-2.9
					c0.2-1,1.1-1.3,2-1.3c0.2-1.3,0.4-2.6,0.7-3.9c0.3-1.2,0.7-1.4,1.9-1.2c0.6-1.6,1.1-3.2,1.8-4.6c2.9-5.6,7.4-9.2,13.6-10.8
					c3.6-0.9,7.2-1.5,10.9-1.5c5.2-0.1,10.4-0.2,15.5,0.6c7.1,1.1,14.1,2.4,20.5,5.8c2.5,1.3,4.9,2.9,7.1,4.7
					c2.4,1.9,3.7,4.7,4.8,7.5c0.2,0.5-0.1,1.1-0.2,2c0.3,0.8,0.7,1.9,1.1,3c0.5,1.7,0.6,3.3,0.4,5.1c-0.1,1.2-0.2,2.5-0.2,3.7
					c2,0.8,2.1,1.2,1.3,3.5c0.9,0.9,1,1.9,0.1,2.9c-0.1,0.1-0.2,0.4-0.2,0.6c0.4,1.4-0.5,2.1-1.3,2.9c-0.1,0.1-0.3,0.3-0.6,0.5
					c3.3,0.6,4.2,3,4.5,5.6c0.3,3,0.3,6.2-0.7,9.1c-0.8,2.5-1.9,4.8-3,7.2c-1.1,2.2-2.3,4.3-3.5,6.4c-0.8,1.6-2,2.6-4,2.5
					c-0.3,1.1-0.6,2.1-0.9,3.1c-1.1,3.6-3.1,6.6-5.8,9.3c-4,4-8.5,7.4-13.3,10.5c-0.7,0.4-1.4,0.9-2.1,1.3c-0.1,0.2-0.1,0.3-0.1,0.4
					c0,3.9,0,3.9,3.3,5.8c5.4,3.2,11.2,5.7,16.8,8.4c4,1.9,8,3.8,11.9,5.8c4.3,2.3,7.5,5.9,10.2,9.9c3.1,4.4,6.1,8.9,7.9,14.1
					c0.9,2.5,1.6,5,2.2,7.6c0.9,3.6,1.5,7.3,3.1,10.7c0.6,1.3,1.5,2.6,2.4,3.8c1.8,2.3,3.8,4.5,5.7,6.8c0.1,0.1,0.3,0.2,0.7,0.5
					c0.3-0.6,0.5-1.1,0.7-1.6c1.9-5.3,3.3-10.8,4.5-16.3c0.7-3.3,1.5-6.7,2-10.1c0.9-5.4,0.8-10.8,0.3-16.1c-0.1-0.7-0.4-1.4-0.8-2
					c-0.8-1.3-1.7-2.5-2.6-3.7c-1.1-1.3-2.2-2.6-3.5-3.8c-2.4-2.2-4.9-4.3-7.5-6.4c-0.8-0.6-1-1.4-1.1-2.3c-0.2-1.7-0.2-3.3-0.5-5
					c-0.4-2.2-0.9-4.5-1.6-6.6c-0.6-1.9-0.3-3.4,0.9-4.9c2.2-2.9,5-5.1,7.5-7.6c1.5-1.5,2.9-3.1,4.3-4.7c0.2-0.2,0.4-0.5,0.6-0.7
					c1-1.1,2.1-1,2.9,0.3c0.3,0.4,0.5,0.9,0.8,1.3c1.2-0.5,2.3-1,3.4-1.5c-0.3-1.7-0.6-3.3-1-4.8c-0.9-3.6-1.6-7.2-1.7-10.9
					c0-2.4,0.1-4.8,0.4-7.1c0.5-3.6,2.9-6,5.9-7.8c0.2-0.1,0.4-0.2,0.6-0.3c0.6-0.1,1.4-0.4,1.9-0.2c0.7,0.3,0.2,1.1,0.1,1.7
					c-1.3,8.4-0.6,16.8,1,25.1c0.2,0.9,0.4,1.8,0.5,2.8c0.1,0.7,0.4,1.1,1,1.2c1,0.1,1.4,0.8,1.7,1.6c0.6,1.5,1.2,2.9,1.8,4.3
					c0.2,0.6,0.5,1,1.2,1.1c0.9,0.2,1.3,0.8,1.5,1.6c0.2,0.6,0.4,1.2,0.6,1.8c0.7,2.9,1.8,5.6,2.7,8.4c1.1,3.5,2.2,7,3.7,10.4
					c0.4,0.9,0.6,2,0.9,2.9v1.6c-0.9,4.3-3.3,7.8-5.7,11.3c-1.2,1.8-2,3.7-2.1,5.9c-0.3,6.3-0.7,12.5-0.4,18.8
					c0.3,6.8,0.4,13.6,0.7,20.4c0.3,6.1,0.7,12.1,1,18.2c0,0.9-0.1,1.7-0.2,2.6c-0.2,3.9-0.6,7.8-1.4,11.6
					c-1.5,6.7-5,12.1-10.4,16.4c-0.9,0.7-1.7,0.6-2.6,0.2c-7.8-3.7-15.2-8.1-21.7-13.9c-7.7-6.9-14.7-14.4-20.9-22.6
					c-0.3-0.4-0.6-0.7-0.9-1.1c-0.1-0.1-0.2-0.1-0.5-0.1c-0.1,0.5-0.2,1-0.3,1.5c-0.3,2.4-0.5,4.9-1,7.2c-0.5,2.5-1.3,4.9-1.7,7.4
					c-0.6,3.6-1.1,7.2-1.4,10.8c-0.6,6.4-1.1,12.8-0.7,19.3c0.4,6.4,0.9,12.8,1.4,19.3c0.2,2.8,0.5,5.6,0.7,8.4
					c0.1,0.9,0.3,1.6,0.9,2.2c1.5,1.6,2.3,3.6,2.3,5.8c0.1,1.5,0.3,3,0.4,4.5c0,0.4,0.1,0.9-0.1,1.2c-1,1.4-0.9,3-0.8,4.5
					c0.3,7.5,1.1,14.9,2.3,22.3c0.7,4.5,1.1,9.1,1.7,13.6c1.3,9.7,1.7,19.5,2.1,29.4c0.1,4-0.1,8-0.7,12c-0.2,0.9-0.4,1.6-1.5,1.6
					c-0.6,0-0.8,0.4-0.8,0.9c0,0.4,0,0.7,0,1.1c-0.2,9-0.3,18.1-0.6,27.1c-0.3,7.4-0.9,14.8-1.4,22.2c-0.5,6.9-1.1,13.9-1.7,20.8
					c-0.6,6.9-1.2,13.8-1.7,20.6c-0.2,2-0.3,4-0.4,6.1c-11.6,0.4-23.2,0-34.9-0.1c0.1-1.6,0.2-2.9,0.3-4.2
					c0.6-14.4,0.3-28.8-0.1-43.1c-0.2-5.8-0.4-11.6-0.7-17.4c-0.4-7.2-1-14.3-1.5-21.4c-0.2-2.8-0.5-5.7-0.7-8.5
					c-0.1-1.4-0.3-1.6-1.8-1.3c-0.2,0-0.4,0.1-0.6,0.2c-0.9,0.1-1.2-0.1-1.3-1c0-0.4,0-0.7,0-1.1c-0.1-1.9-0.2-3.8-0.3-5.8
					c0-0.5-0.2-0.9-0.3-1.4c-0.1,0-0.3,0-0.4,0c-0.1,0.3-0.3,0.7-0.3,1c-0.2,2-0.3,4-0.4,6.1c-0.1,0.8-0.1,1.5-0.2,2.4
					c-1.6,0.2-3.2,0.4-4.7,0.5c-3.5,0.3-3,0-3.5,3.1c-1.1,5.8-2.1,11.6-3,17.5c-1.3,8.5-2.5,17-3.7,25.6c-1.3,9.2-2.6,18.4-3.8,27.6
					c-0.7,5.6-0.5,11.2,0.1,16.8c0.1,1.3,0.2,2.6,0.4,3.9c0.1,0.8-0.2,1.1-0.9,1.3c-1.7,0.4-3.4,0.6-5.2,0.6
					c-10.2,0-20.4,0.1-30.5,0.2c-0.5,0-0.9,0-1.5,0c-0.2-0.6-0.4-1.1-0.5-1.7c-2-12-2.5-24.2-1.4-36.3c0.7-8.2,1.4-16.4,2.3-24.6
					c0.9-8.1,2.1-16.3,3.2-24.4c0.6-4.1,1.2-8.1,1.8-12.2c0.2-1.2,0-1.5-1.2-1.9c-2-0.7-3.9-1.3-6-2c0-0.3-0.1-0.7,0-0.9
					c1.4-6.9,2.7-13.8,4.3-20.7c1.5-6.5,3.4-12.8,5.1-19.3c2.6-10.3,5.2-20.6,7.7-30.9c1-4.3,1.8-8.7,2.7-13.1
					c0.5-2.6,1.1-5.1,3.1-7.1c0.3-0.3,0.4-1.1,0.4-1.6c-0.9-8.4-0.3-16.8-0.1-25.2c0.2-8,0.7-16,0.7-24c0-6.7-0.4-13.5-0.7-20.2
					c-0.1-2.7-0.3-5.4-0.4-8.1c-0.1-3-1.1-5.8-2-8.6c0-0.1-0.2-0.2-0.3-0.4c-0.7,0.2-0.9,0.8-1.2,1.3c-2.3,4-4.4,8-6.8,11.9
					c-4,6.2-8.3,12.2-12.5,18.2c-1.5,2.2-3,4.4-4.6,6.5c-1.5,2-3.2,4-4.8,5.9c-0.9,1.1-2,1.4-3.3,0.9c-1.3-0.5-2.5-1-3.7-1.6
					c-5-2.1-10.1-4.2-15.1-6.4c-3.6-1.6-7-3.3-10.5-5c-6.6-3.1-13.2-6.1-19.7-9.3c-5.9-2.9-11.7-6-17.6-9c-3.5-1.7-7.1-3.2-10.6-4.9
					c-1.4-0.7-2.6-1.7-4-2.4c-0.5-0.3-1.1-0.6-1.7-0.7c-3.2-0.4-6.4-0.4-9.6,0c-0.9,0.1-1.8,0.2-2.6,0.1c-1.4-0.1-1.8-0.6-1.7-2
					c0.1-1.4,0-1.6-1.4-1.1c-2.1,0.7-4.2,1.6-6.3,2.3c-2.2,0.8-4.5,1.2-6.9,0.6c-0.9-0.2-1.7-0.5-2-1.5c-0.3-0.7-0.8-0.9-1.5-0.8
					c-0.7,0.1-1.4,0.2-2.2,0.3c-2.1,0.2-4,0-5.2-2.2C192.6,193.5,192.6,193.2,192.6,193 M236.6,198.8c0,0.1-0.1,0.3-0.1,0.4
					c0.6,0.3,1.3,0.7,1.9,1c3.8,1.7,7.6,3.3,11.3,5.2c10.6,5.3,21.1,10.8,31.9,15.6c6.4,2.9,12.7,6,19,8.9c4.6,2.1,9.4,3.9,14.1,5.9
					c1.5,0.6,1.6,0.7,2.7-0.6c1.4-1.6,2.8-3.3,4.1-5.1c3.7-5.2,7.3-10.5,11-15.7c4.4-6.3,8.6-12.7,12.2-19.5
					c0.6-1.1,1.2-2.2,1.9-3.2c0.6-0.8,0.6-1.5,0.3-2.5c-1.2-4-2.3-8.1-3.3-12.1c-1.2-4.9-1.6-10-2.2-15.1c-0.3-1.9-0.1-3.8-0.1-5.7
					c1.2,2,1.8,4.2,2,6.5c0.3,3,0.6,6,1.1,9c1.3,7.1,3.5,13.9,5.6,20.7c0.7,2.4,1.4,4.8,1.8,7.2c0.3,2.1,0.2,4.3,0.3,6.5
					c0,1.5,0,2.9,0.1,4.4c0.3,5.5,0.7,11,0.8,16.5c0.1,6.7-0.2,13.4-0.3,20.1c-0.2,8.3-0.4,16.5-0.5,24.8c0,4.3,0.5,8.5,1.2,12.7
					c0.2,1.2,0.7,1.9,1.9,2.3c2.3,0.7,4.5,1.5,6.8,2.1c6.3,1.6,12.7,2.5,19.2,3.2c9.4,1,18.6,0.6,27.9-1.3
					c6.4-1.3,12.5-3.4,18.7-5.3c0.1,0,0.3-0.2,0.4-0.3c0-0.4,0.1-0.8,0.1-1.2c-0.2-4-0.4-8-0.7-12c-0.4-5.5-1-11-1.3-16.4
					c-0.5-7.2-0.3-14.4,0.3-21.6c0.4-4.7,0.8-9.3,1.9-13.9c0.5-2.1,1.3-4.1,1.5-6.2c0.6-4.9,1.1-9.9,1.6-14.9c0-0.4,0-0.9,0-1.6
					c-2.1,1.6-4.1,2.5-6.3,3.2c-5,1.6-10.2,2-15.4,2.1c4.7-1.3,9.5-2.4,14.3-3.6c2.3-0.6,4.5-1.4,6.6-2.7c0.7-0.5,1.1-1,1.1-1.9
					c0-0.8,0-1.7,0.1-2.5c1.1-8.4,2.2-16.8,3.4-25.1c0.3-1.8,0.8-3.7,1.2-5.5c0.1-0.4,0.1-1,0.9-0.9c0,0.8,0.1,1.5,0,2.2
					c-0.3,3.1-0.6,6.3-1.1,9.4c-1.4,9.6-2.6,19.1-3,28.8c0,0.9,0.1,1.7,0.7,2.4c3.9,5.2,8,10.2,12.5,14.9
					c8.6,8.9,17.9,16.9,29.3,22.1c0.6,0.3,1.3,0.6,1.9,0.9c2.9-2.4,5.4-4.9,7.2-8.1c1.7-3,2.8-6.2,3.4-9.6c0.7-3.8,1.3-7.6,1.2-11.4
					c0-3.8-0.4-7.6-0.6-11.4c-0.7-11.9-1.3-23.9-1.1-35.8c0.1-3.4,0.3-6.7,0.6-10.1c0.3-3.2,1.1-6.2,3.1-8.8
					c1.4-1.7,2.4-3.7,3.5-5.7c0.6-1.2,1-2.5,1.3-3.8c0.3-1.3,0.1-2.6-0.7-3.8c-0.9-1.4-1.6-3-2.2-4.6c-0.7-2-1.3-4-1.9-6.1
					c-0.3-0.9-0.7-1.5-1.6-1.6c-3-0.4-6.1-0.7-9-1c-1.9,2.7-2.7,8.2-2.5,10.2c0.2,2,2.1,2.8,3.6,1.6c0.9-0.8,1.7-1.8,2.4-2.7
					c-0.3-0.7-0.5-1.1-0.7-1.6c1.8,0,3.1,0.9,4.6,1.4c0.7,0.3,1,1.2,0.6,1.9c-0.2,0.4-0.7,0.8-1.1,1c-2.1,1.3-4.1,2.6-6.2,3.9
					c-2.8,1.8-2.8,1.8-1.7,4.9c0.9,2.5,1.8,4.9,2.7,7.4c-1.5-1.6-3.9-5.4-4.5-7.3c-0.3-0.8-0.5-1.7-0.6-2.6
					c-0.2-1.2,0.2-2.1,1.3-2.7c0.5-0.3,1-0.7,1.6-1c-3-1.2-3.4-1.7-3.9-4.8c-3.2-0.4-4.2-2.7-4.8-5.4c-2.3-0.4-2.6-0.4-3.6,1.5
					c-0.5,0.9-0.9,1.9-1.1,2.9c-0.2,1-0.3,2.2-0.3,3.2c0,0.7-0.1,1.3-0.8,1.6c-0.9-0.3-1-1-1.1-1.7c-0.2-2.8,0.5-5.3,2.1-7.6
					c-0.9-1-1.9-1.7-3.1-2.1c-1.4-0.5-1.5-1.3-0.5-2.3c0.3-0.3,0.6-0.6,0.9-0.9c1.2-1.2,2.4-2.3,3.6-3.5c0.6-0.6,1-1.3,1.2-2.1
					c0.2-1.4,0.5-2.8,1-4.1c0.5-1.5,0-2.6-0.8-3.7c-0.2,0.1-0.3,0.1-0.3,0.2c-2,3.1-4.8,5.4-7.5,7.9c-1.7,1.6-3.2,3.3-4.8,4.9
					c-1.1,1.2-1.2,2.4-0.7,4c0.7,2.3,1.2,4.7,1.7,7.1c0.3,1.4,0.4,2.9,0.5,4.3c0,0.8,0.4,1.3,1,1.8c2,1.6,4,3.4,6,5
					c2.3,1.9,4.2,4.1,5.8,6.7c1.2,2,2.5,3.9,2.4,6.4c0,3.3,0.4,6.5,0.3,9.8c-0.1,3.9-0.8,7.8-1.7,11.7c-1.6,7.7-3.5,15.3-6.2,22.6
					c-0.6,1.7-1,3.4-1.5,5.1c-1.1,3.7-0.6,7.3,1.4,10.6c0.8,1.3,1.6,2.5,2.5,3.8c1.2,1.9,2.5,3.7,3.7,5.6c0.2,0.3,0.2,0.6,0.5,1.2
					c-4.4-3.4-7.6-7.3-9.5-12.1c-0.9-2.3-1.4-4.6-0.9-7c0.4-1.8,0.8-3.5,1.2-5.3c0.2-0.7,0.4-1.4,0.6-2.1c-1.8-2-3.7-3.9-5.4-5.9
					c-1.2-1.4-2.5-2.9-3.3-4.5c-1.6-3-2.6-6.2-3-9.6c0-0.4-0.1-0.7-0.2-1.1c-0.8-2.7-1.6-5.4-2.5-8c-2-5.9-5.5-11-9.2-16
					c-3.1-4.2-7-7.5-11.7-9.8c-3.6-1.7-7.2-3.3-10.7-5c-4.2-2-8.4-4.2-12.5-6.3c-1.4-0.7-2.6-1.7-4.1-2.6c0.2,2.2,0.3,4.2,0.5,6.4
					c-2.2-3.8-2.5-7.7-2.7-11.8c-1.1,0.4-2.1,0.7-3.1,1.1c-1.7,0.6-3.4,0.7-5.1,0.3c-1.4-0.3-2.8-0.7-4.2-1.2
					c-5.6-2.2-10.4-5.6-14.9-9.5c-0.3-0.3-0.6-0.5-1.2-0.8c0,2.6,0.1,5,0,7.4c-0.1,2.8-0.8,5.5-1.8,8.2c-0.7,1.7-1.7,2.8-3.4,3.3
					c-3,0.9-6,2-9.1,2.8c-4,1-8.1,1.8-12.1,2.8c-2.3,0.6-4.6,1.6-6.2,3.4c-2.2,2.4-4.4,4.9-6.2,7.6c-1.6,2.5-3,5.2-4.1,8
					c-1.9,5.1-3.5,10.4-5.2,15.6c-3.5,10.8-7.6,21.3-12.1,31.7c-0.1,0.1,0,0.3-0.1,0.5c1.6,1.6,2.6,3.5,3,5.8
					c-1.3-1.2-2.4-2.4-3.6-3.7c-1.1-1.3-2.4-2-4.2-2c-10.6,0-21-1.4-31.4-2.9c-2.7-0.4-5.4-0.7-8.2-1c-0.8-0.1-1.4-0.4-1.7-1.1
					c-0.4-0.9-0.8-1.8-1.2-2.7c-1.1-2.7-3-4.6-5.5-5.9c-1.2-0.7-2.6-1-4.1-0.7c-1.6,0.3-3.2,0.5-4.7,0.9c-2.5,0.6-5.1,1.1-7.7,0.7
					c-1.5-0.2-3-0.5-4.5-0.7c-4.7-0.7-9.2-0.1-13.4,2.2c-1,0.6-1.9,1.4-2.8,2.2c-0.5,0.5-0.9,1.1-0.6,2c0.7,0,1.4,0.1,2,0
					c4.1-0.5,8.2-0.3,12.3,0c4.8,0.5,9.4,1.7,13.8,3.6c0.5,0.2,1,0.6,1.5,0.9c0,0.1-0.1,0.3-0.1,0.4c-0.5-0.1-1-0.1-1.4-0.2
					c-2.3-0.6-4.5-1.2-6.8-1.8C239.3,199.4,238,199.1,236.6,198.8 M390.6,344.2c-2.5,11-2.3,22.1-1.3,33.1c3-0.4,5.9-0.8,8.8-1.2
					c6.7-0.8,13.3-1.3,20-1.1c3.9,0.1,7.9,0.1,11.8-0.1c1.9-0.1,3.9-0.4,5.8-0.7c0.1-0.5,0.2-0.8,0.2-1.1c0.7-5,0.7-10,0.5-15.1
					c-0.4-8.8-0.9-17.5-2-26.2c-0.5-4.1-1-8.2-1.5-12.4c-0.6-5-1.1-10-1.7-15c-0.1-1.2-0.2-2.5-0.3-3.9c-8.9,2.6-17.9,4.3-27.2,5.2
					c0,0.6-0.1,1.1-0.1,1.6c0,3,0,6-0.1,9c0,1.5,0.1,3,0.9,4.3c0.2,0.3,0.1,0.9-0.1,1.3c-0.3,0.5-0.8,0.6-1.4,0.4
					c-0.9-0.3-1.2-0.6-1.2-1.9c0-4.3,0.1-8.6,0.2-12.9c0-0.5,0-0.9,0-1.4c-6,0.2-12,0.4-18,0.6c0.1,0.8,0.1,1.6,0.2,2.3
					c0.2,2.3,0.4,4.7,0.5,7c0.1,1.4,0,2.8,0,4.2c0,0.7-0.4,1.2-1.1,1.2c-0.4,0-0.8,0-1.2-0.1c-0.9-2.2-0.8-2.6,0.7-3.7
					c0-3.7-0.3-7.4-0.7-11.1c-0.4,0-0.6-0.1-0.9-0.1c-6.3-0.3-12.6-1.1-18.8-2.5c-4.6-1-9.1-2.4-13.3-4.7c-0.9-0.5-1.7-1-2.6-1.5
					c-0.1,0.4-0.3,0.7-0.3,1.1c-2.9,11.7-5.7,23.4-8.7,35c-2.8,10.7-5.9,21.4-7.8,32.4c-0.3,1.8-0.7,3.6-1.1,5.5
					c4,1.3,7.9,2.6,11.8,3.8c1.5,0.5,3,0.7,4.6,1c4.4,0.8,8.8,1.2,13.3,1.4c7.2,0.3,14.4,0.5,21.6,0.1c1.4-0.1,2.7-0.3,4.1-0.5
					c0.1-1.3,0.1-2.4,0.2-3.5c0.7-5.9,1.3-11.8,2.1-17.6c0.5-4.1,1.2-8.1,1.8-12.2c0.2-1.2,0.7-1.8,1.9-2.1
					c3.5-1.1,6.9-2.3,10.3-3.4c0.5-0.2,0.9-0.4,1.3-0.6c-1.7-0.1-3.3-0.1-4.9,0c-6.7,0.4-13.5,0.8-20.2,0.6c-0.4,0-0.8,0.1-1.2,0.2
					c-1.3,0.3-2.4-0.2-3.6-0.5c-0.2-0.1-0.4-0.6-0.4-0.9c0-0.2,0.4-0.5,0.6-0.6c0.7-0.1,1.3-0.1,2,0c7.1,0.5,14.2,0.1,21.3-0.2
					c2.7-0.1,5.5-0.2,8.2-0.2c0.7,0,1.6,0,1.8,0.9c0.2,0.9-0.7,1.2-1.3,1.5c-1.6,0.7-3.1,1.4-4.7,2
					C396.7,342.1,393.6,343.2,390.6,344.2 M335.9,376.3c-0.1,0.5-0.2,0.9-0.2,1.4c-0.7,5-1.3,10.1-1.9,15.1c-1,8.1-2.1,16.2-3,24.3
					c-0.8,7.9-1.5,15.9-2,23.9c-0.6,9.1-0.5,18.3,0.8,27.4c0.3,1.8,0.6,3.7,0.9,5.6c12-0.1,23.8,0,35.8-0.2
					c-0.2-1.8-0.3-3.3-0.4-4.8c-0.3-4-0.7-8.1-0.2-12.1c0.7-6.2,1.5-12.5,2.4-18.7c1.2-8.4,2.3-16.9,3.6-25.3c1.4-9,3-17.9,4.6-26.8
					c0.3-1.9,0.8-3.7,1.2-5.6c-0.4,0-0.6-0.1-0.9-0.1c-4.6-0.1-9.2-0.1-13.9-0.2c-5.9-0.1-11.7-0.5-17.5-1.6
					C342,377.8,339.1,377,335.9,376.3 M395.9,473.2c10.7,0.2,21.2,0.2,31.8,0.2c0.1-0.4,0.1-0.6,0.2-0.8c0.5-6.7,1.1-13.3,1.6-20
					c0.5-6.7,1.1-13.3,1.7-20c0.5-6.8,1.1-13.6,1.5-20.3c0.3-5,0.6-10,0.8-14.9c0.2-6.6,0.3-13.2,0.5-19.8c0-0.3,0-0.6-0.1-0.9
					c-0.5,0-0.9,0-1.3,0c-3.6,0.1-7.2,0.5-10.7,0.3c-8.8-0.3-17.6,0.2-26.4,1.3c-1,0.1-1.9,0.3-2.9,0.4
					C395.7,410.1,396.8,441.5,395.9,473.2 M379.1,54.3c-0.8,0.9-1.6,1.7-2.5,2.7c-0.4-0.6-0.7-1.1-1-1.5c-1.4-2.2-3.1-2.7-5.4-1.6
					c-4.5,2.2-7.2,5.8-8.2,10.6c-0.5,2.6-0.7,5.3-1,8c-0.1,0.6-0.2,1.3-0.3,2.1c-0.9-0.7-0.8-1.5-1-2.1c-0.6-2.9-2.1-5.2-4.5-6.8
					c-2.3-1.6-4.5-1-5.9,1.4c-0.3,0.5-0.5,1-0.7,1.6c-0.7,1.9-1,4-0.8,6c0.5,5.4,1.8,10.6,4.4,15.4c0.5,0.9,1.2,1.8,1.9,2.6
					c0.8,0.9,1.5,0.9,2.4,0.1c0.6-0.5,1-1.1,0.9-2c-0.1-2.5,0.4-5,1.1-7.4c0.1-0.5,0.2-1.1,1-1.3c0,0.3,0,0.5,0,0.7
					c-0.3,1.9-0.6,3.9-0.9,5.8c-0.4,3,0,5.9,1.3,8.7c2,4.3,4.8,8.2,8.2,11.5c2.8,2.7,5.8,5.1,8.9,7.5c3.2,2.5,6.6,4.6,10.5,5.9
					c3.6,1.2,7.1,1.3,10.6-0.5c3.1-1.6,6.2-3.2,8.8-5.6c2.8-2.5,5.7-4.9,8.4-7.5c4.1-4,5.8-9,5.8-14.6c0-3.3-0.3-6.5-0.4-9.8
					c0-0.3,0.1-0.5,0.1-0.9c0.9,1.2,1.1,1.9,1.3,6.5c0.1,2.3,0,4.5,0,6.8c1.5,0.1,2.2-0.6,2.8-1.7c1.3-2.4,2.7-4.7,3.9-7.1
					c1.3-2.5,2.5-5,2.9-7.8c0.3-2.3,0.4-4.5,0.4-6.8c0-1.2-0.5-2.4-1-3.5c-0.6-1.3-1.5-1.6-3-1.3c-1.2,0.3-2.3,0.9-3.3,1.7
					c-1.3,1.2-2.2,2.6-2.9,4.2c-0.2,0.4-0.2,1.1-1.2,0.9c0.1-0.6,0.1-1.1,0.2-1.6c0.3-1.2,0.7-2.4,0.9-3.6c0.4-1.9,0.9-3.8,0.6-5.8
					c-0.9,0.2-1.7,1.1-2.7,0.3c0.1-0.5,0.2-0.9,0.3-1.4c-0.9,0.2-1.2,1.3-2.3,0.9c-0.3-3.5-0.5-7.2-4.2-9.3
					c-0.3,0.5-0.4,0.9-0.6,1.2c-1.2,2.1-2.8,3.6-5.1,4.3c-1,0.3-1.9,0.4-2.7-0.3c-2.3,3-5.5,3.8-9,4.6c-0.1-1.3,0.8-2.2,0.3-3.3
					c-2.2,1.1-2.9,3.5-4.5,5.4c-0.3-0.6-0.5-0.9-0.7-1.3c-0.3-0.8-0.5-1.7-0.7-2.5c-0.7-2.6-2-4.9-3.7-7c-1.1-1.3-1.7-1.4-3.3-0.7
					c-0.6,0.2-1.1,0.5-1.7,0.8c-1.6,0.8-1.8,0.8-2.4-0.9C379.5,54.7,379.3,54.6,379.1,54.3 M397.7,62.8c3.8-0.8,6.8-2.5,7.6-6.6
					c0.1-0.3,0.4-0.5,0.6-0.7c0.2,0.2,0.5,0.5,0.6,0.8c0.1,1,0.1,1.9,0.2,2.9c3-0.4,5.1-2.6,5.8-6.2c1.9,0.7,3.5,1.8,4.5,3.6
					c1.1,1.7,1.4,3.7,1.7,5.7c0.1,0,0.2,0.1,0.3,0.1c0.6-0.9,1.3-1.8,2-2.9c1,1.3,0.3,2.6,0.3,3.9c0.3-0.2,0.5-0.3,0.6-0.4
					c1.1-0.6,1.5-0.5,1.5,0.8c0,1.3-0.1,2.6-0.2,3.9c-0.1,0.9-0.3,1.8-0.4,2.5c1.4-0.8,2.7-1.6,4-2.5c0.2-0.1,0.5-0.3,0.5-0.5
					c0-0.8,0.7-1.1,1.2-1.5c0.4-0.4,0.7-0.8,1-1.2c-0.2-0.5-0.4-0.8-0.5-1.1c0.5-0.7,0.9-1.2,1.4-1.8c-0.5-0.4-0.8-0.7-1.2-0.9
					c0.3-0.9,0.5-1.7,0.8-2.5c-1.9-0.7-2-0.7-1.8-2.3c0.6-4.5,0.2-8.7-2.3-12.6c-0.1-0.1,0-0.3,0-0.5c0.3-0.1,0.6-0.3,0.9-0.4
					c-1.1-2.7-2.6-5.1-4.9-6.8c-4.5-3.5-9.5-5.9-15-7.3c-5.9-1.5-11.8-2.7-17.9-2.9c-5.6-0.2-11.1-0.3-16.6,0.8
					c-3.3,0.6-6.6,1.5-9.4,3.5c-4.4,3.2-7.5,7.3-8.2,12.9c0,0.2-0.2,0.5-0.3,0.9c-0.6-0.4-1-0.7-1.5-1c-0.9,1.7-0.5,3.5-0.8,5.3
					c-0.4-0.1-0.7-0.1-0.9-0.1c-1-0.2-1.2,0-1.3,0.9c0,0.4,0,0.8,0.1,1.2c0.1,0.5,0.2,1.1,0.3,1.6c-0.5,0.2-0.8,0.3-1.3,0.5
					c0.1,0.8,0.2,1.5,0.4,2.2c0.5,1.5,1,3.1,1.5,4.6c0.5,1.4,0.4,1.6-1,2.2c-0.1,0-0.1,0.2-0.2,0.3c0.2,0.4,0.4,0.8,0.6,1.2
					c-0.2,0.2-0.5,0.4-0.6,0.6c-0.2,0.3-0.5,0.8-0.4,1c0.2,0.6,0.7,0.3,1.2,0.1c1.3-0.7,2.7-0.5,3.9,0.1c1.1,0.6,2.1,1.5,3,2.4
					c0.8,0.8,1.4,1.8,2.2,2.9c0.1-0.7,0.2-1.3,0.3-1.8c0.3-2.5,0.8-5,2-7.3c1.7-3.5,4.4-6,8-7.5c2.4-1,4.4-0.4,5.9,1.6
					c0.2,0.2,0.4,0.5,0.6,0.8c0.7-0.6,1.4-1.2,2.1-1.7c0.7-0.4,1.1-0.3,1.6,0.4c0.2,0.4,0.4,0.8,0.6,1.2c0.8-0.4,1.4-0.7,2.1-1
					c2.3-1,3.3-0.7,4.9,1.2c1.8,2.3,3.2,4.7,3.9,7.6c0.1,0.4,0.3,0.7,0.5,1.3c1-2,2.6-3.3,4.1-4.5c0.2-0.2,0.7-0.4,0.9-0.3
					c0.2,0.1,0.4,0.6,0.4,0.9C397.7,60.9,397.7,61.8,397.7,62.8 M233.1,187.3c0,0.2-0.1,0.4-0.1,0.6c-0.5,0-1.1,0-1.6,0
					c-3.2,0.1-6.3-0.1-9.5,0.2c-5,0.4-9.9,1.6-14.6,3.6c-1.3,0.5-2.4,1.4-3.6,2.2c-0.6,0.4-1.2,1.1-0.9,2c0.3,0.8,1.2,0.8,1.9,0.9
					c1.6,0.2,3.2,0,4.7-0.6c1.9-0.7,3.7-1.6,5.7-2.1c2.7-0.7,5.1-1.9,7.5-3.2c4.6-2.5,9.6-3,14.8-2c2.3,0.4,4.7,1,7.1,0.5
					c2.4-0.5,4.8-1,7.2-1.4c2.9-0.6,5.6-0.1,8,1.7c0.2,0.2,0.5,0.3,0.9,0.6c-0.6-2.9-1.3-5.5-2.4-8c-1.3-2.8-3.3-4.7-6.5-5.1
					c-0.4-0.1-0.8-0.2-1.2-0.2c-3.5-0.3-6.8-1.4-10-2.8c-1.9-0.8-3.2-2.2-4.1-4c-0.4-0.9-1-1.8-1.6-2.6c-0.5-0.8-1.4-1.1-2.3-1
					c-1.8,0.2-3.4,0.8-4.8,2c-1.2,1.1-1.3,1.9,0,2.9c1.8,1.5,3.6,3,5.5,4.3c2.8,1.9,5.7,3.5,8.6,5.3c2.3,1.4,2.3,4.2,0.1,5.8
					c-1.2,0.8-2.5,1.2-4,0.9c-0.9-0.2-1.8-0.4-2.7-0.7c-5.1-1.6-10.3-3.3-15.4-4.9c-4.4-1.3-8.9-2.2-13.5-1.5
					c-1.2,0.2-2.4,0.5-3.6,1c-1,0.4-1,1.3-0.2,2c0.4,0.3,1,0.5,1.5,0.6c0.9,0,1.8-0.2,2.6-0.2c5.2-0.3,10.4-0.2,15.5,1.2
					c2.3,0.6,4.6,1.3,7,1.3c0.7,0,1.3,0.1,2,0.3C231.7,186.7,232.4,187,233.1,187.3 M479.6,74.1c-3,1.9-5.3,4-5.9,7.3
					c-0.6,3.4-0.7,6.8-0.2,10.2c0.5,3.1,1.2,6.1,1.8,9.1c0.2,0.9,0.3,1.8,0.5,2.8c2-0.2,3.8-0.4,5.7-0.6c-1.4-4.8-2.2-9.5-2.6-14.2
					C478.7,83.9,478.8,79.2,479.6,74.1 M490.3,118.7c-0.7-2.2-1.4-4.2-2.1-6.2c-0.1-0.3-0.7-0.7-1-0.8c-2.7-0.5-5.4-1-8.1-1.4
					c-1.5-0.2-1.9,0-2.5,1.4c-1.5,3.6-2.6,7.2-3,11.1c-0.1,1.3,0.3,2.5,1.2,3.4c0.4,0.4,0.9,0.9,1.5,0.5c0.3-0.2,0.5-0.7,0.6-1.2
					c0.3-2.2,1-4.3,1.9-6.4c0.6-1.3,1.1-1.6,2.6-1.5c1.3,0.1,2.7,0.2,4,0.4C486.9,118.3,488.5,118.5,490.3,118.7 M220.2,186.2
					c-0.3-0.1-0.6-0.2-0.9-0.2c-5-0.6-10-0.7-15.1-0.1c-2.2,0.3-4.3,1-6.2,2.4c-1.4,1-2.5,2.2-3.3,3.7c-0.9,1.7-0.4,2.5,1.5,2.5
					c0.9,0,1.9-0.1,2.8-0.1c1.3,0,2.4-0.3,3.1-1.6c0.2-0.4,0.7-0.8,1.1-1c1.6-0.9,3.2-1.8,5-2.5
					C212.1,187.8,216.1,187.1,220.2,186.2 M396.8,304.5c2-0.1,3.7-0.3,5.3-0.4c0.5-0.7,0.1-1.7,1.3-1.8c0.2,0.5,0.3,1,0.5,1.6
					c0.8-0.1,1.6-0.2,2.6-0.4c-0.6-3.4-0.5-6.7-1.4-9.9c-3.1,0.4-6.1,0.7-9.1,1.1C396.7,298,397.2,301.1,396.8,304.5 M483.5,104.8
					c-0.5,0-1.1,0-1.7,0c-2.3,0.2-4.6,0.5-7,0.7c-1.8,0.2-2.8,1.1-3.2,2.8c-0.8,3.6-1.6,7.2-2.3,10.8c-0.4,1.8,0.4,2.5,2.4,2.3
					c0.1-0.5,0.2-1.1,0.4-1.6c0.9-2.9,1.6-5.9,2.7-8.7c0.8-2.2,1.9-2.8,4.2-2.6c1.8,0.2,3.6,0.5,5.4,0.8c0.4,0.1,0.9,0.1,1.4,0.2
					C485,107.9,484.3,106.4,483.5,104.8 M368.8,292.5c0.4,3.7,0.7,7.2,1.1,10.8c3,0.4,5.9,0.9,8.6,0.9c-0.7-3.6-1.3-7-1.9-10.6
					C374.1,293.3,371.5,292.9,368.8,292.5 M377.6,293.9c0.6,3.7,1.1,7.1,1.6,10.5c1.1,0.1,2,0.1,3,0.2c0-1,0-1.8,0-2.6
					c0-0.8-0.3-1.6,0.6-2.6c0.4,1.9,0.7,3.6,1,5.2h3.6c-0.3-3.3-0.6-6.6-1-9.9C383.7,294.4,380.8,294.2,377.6,293.9 M422.1,289.4
					c-2.5,0.8-4.8,1.4-7.1,2.1c0.9,3.6,0.6,7.1,0.4,10.9c2.8-0.6,5.3-1.1,7.9-1.6C422.8,296.9,422.5,293.3,422.1,289.4 M413.9,291.8
					c-2.7,0.6-5.2,1.2-7.6,1.7c0.3,1.8,0.7,3.4,0.9,5.1c0.2,1.6,0.1,3.3,0.2,5c2.5-0.4,4.9-0.7,7.5-1.1
					C414.5,298.8,414.2,295.3,413.9,291.8 M387.6,294.7c0.2,1.8,0.5,3.4,0.6,5c0.2,1.6,0.3,3.3,0.4,4.9c2.2,0.3,6.2,0.1,7.4-0.3
					c-0.3-3.1-0.6-6.3-0.9-9.5H387.6z M361.9,291c-0.4,1.9-0.2,8.6,0.4,10.9c2.1,0.4,4.3,0.8,6.5,1.2c-0.4-3.8-0.9-7.3-1.3-10.9
					C365.7,291.9,363.9,291.5,361.9,291 M355.3,289c-0.8,3.7-0.7,7.2-0.6,10.7c2.3,0.8,4.4,1.5,6.8,1.9c-1.2-3.7-1.2-7.3-0.9-10.9
					C358.9,290.2,357.2,289.6,355.3,289 M354.4,288.7c-1.9-1-3.5-2-5.4-3c-0.6,3.4-1.2,6.8-1.7,10.3c2,1.4,4.2,2.5,6.7,3.4
					C353.3,295.6,353.2,292.1,354.4,288.7 M423,289.1c1.2,3.9,1,7.6,0.8,11.5c1-0.2,1.7-0.4,2.5-0.6c0.7-0.2,1.4-0.4,2.1-0.7
					c0.2-3.6-0.1-10.4-0.6-11.6C426.3,288.1,424.8,288.6,423,289.1 M428.9,287.3c0.7,3.9,0.7,7.8,0.3,11.8c0.7-0.2,1.2-0.4,1.6-0.5
					c0.2-1.7,0.2-3.4,0.6-5c0.5-2.3-0.1-4.5-0.2-6.9C430.4,286.9,429.8,287.1,428.9,287.3 M465.2,119.7c0.7,0.5,1.4,0.9,2.1,1.3
					c0.1-1.3,0.2-2.5,0.4-3.8C466.8,118,466,118.8,465.2,119.7 M484.9,130.7c0.1,0.1,0.1,0.1,0.2,0.2c0.6-0.3,1.3-0.6,2.1-1.1
					c-0.6-0.3-0.9-0.4-1.4-0.6C485.5,129.8,485.2,130.3,484.9,130.7 M349.7,284.2c0.5,0.3,0.9,0.5,1.5,0.8c-0.2-0.8-0.3-1.4-0.5-2.2
					C350.4,283.3,350.1,283.7,349.7,284.2 M430.2,283.5v1.5c0.3-0.2,0.5-0.3,0.8-0.4C430.7,284.2,430.5,283.9,430.2,283.5"/>
				<path class="st9" d="M379.4,73.3c4.3-0.1,7.1,2.4,7.1,6.4c0,2-0.9,3.6-2.7,4.6c-4.4,2.3-10.5,1-13-3.6c-1.6-2.9-1.2-4.3,1.8-5.8
					C374.6,73.9,376.7,73.4,379.4,73.3 M377.6,74.5c-0.8,0.2-1.4,0.2-1.9,0.4c-0.9,0.3-1.8,0.6-2.6,1c-2.6,1.2-2.8,2.1-1.3,4.5
					c2.2,3.6,7.3,4.9,11.3,3c2-1,2.6-2.3,2-4.5c-1.8,3.3-4.4,4.5-6.9,3.1C375.7,80.7,375.5,78.5,377.6,74.5 M380.1,81.4
					c1.8,0.1,3.7-1.6,3.8-3.6c0.1-1.8-0.5-2.7-2.1-3.2c-1.7-0.5-2.9,0-3.8,1.5c-0.2,0.4-0.4,0.7-0.5,1.1
					C376.6,79.3,377.8,81.2,380.1,81.4"/>
				<path class="st9" d="M406.1,87.7c-3.9-0.1-6.3-2.4-7.6-5.3c-0.5-1-0.2-2,0.4-3c1.6-2.4,3.9-3.7,6.8-3.9c2.1-0.1,4.2,0.3,6.1,1.5
					c1,0.6,1.8,1.4,2.3,2.5c0.7,1.6,0.7,3.1-0.5,4.5C411.8,86.3,409,87.7,406.1,87.7 M403.3,77.3c-1.7,0.6-2.7,1.7-3.5,2.9
					c-0.8,1.1-0.7,2,0.1,3.1c3.3,4.3,9.5,4.3,12.9,0.1c1.4-1.8,0.4-4.6-1.8-5.2c0.4,2.7-0.2,4.4-1.9,5.5c-1.4,0.9-3.6,0.8-4.9-0.2
					C402.1,81.7,402.4,79.6,403.3,77.3 M409.9,79.7c0-2.1-1.1-3.1-3.4-3c-1.7,0-2.8,1.5-2.8,3.6c0,1.8,1.1,2.8,3,2.8
					C408.7,83,409.9,81.7,409.9,79.7"/>
				<path class="st9" d="M392.4,110.2c-3.1,0-6-0.8-8.6-2.2c-2.2-1.1-4.5-2.2-6.3-4c-0.4-0.4-0.9-0.9-1.2-1.4
					c-0.1-0.2,0-0.6,0.1-0.8c0.1-0.1,0.5-0.1,0.7,0c0.4,0.3,0.7,0.6,1,1c0.5,0.8,1.3,1.2,2.1,1.4c4.3,1.2,8.7,1.9,13.2,1.7
					c2.6-0.2,5.3-0.4,7.9-0.7c1.6-0.2,3.1-0.6,4.1-1.9c0.1-0.2,0.5-0.1,0.8-0.2c0.1,0.3,0.3,0.8,0.1,1c-0.6,0.6-1.3,1.2-2,1.6
					c-0.9,0.6-1.9,1-2.8,1.6C398.7,109.2,395.6,110.1,392.4,110.2 M399.7,106.8c-5.9,0.5-11.6,0.5-17.2-0.9
					C387.4,109.3,394.9,110,399.7,106.8"/>
				<path class="st9" d="M389.4,93.2c-1,1.1-2,2.1-3,3c1.4,3.1,4.1,4.6,7.1,4c1.4-0.3,2.4-1.1,3.2-2.3c0.5-0.7,0.6-1.5,0.1-2.3
					c-0.1-0.2-0.2-0.5-0.4-0.7c-2.6-4.1-2.7-8.5-2-13c0.1-0.5,0.4-0.9,0.6-1.3c0.1,0,0.2,0,0.4,0.1c0,0.3,0.1,0.6,0.1,0.9
					c-0.4,3-0.6,6.1,0.2,9.1c0.4,1.3,0.8,2.6,1.6,3.7c1.5,1.9,1.2,3.5-0.5,5.2c-3.2,3.4-9.4,1.9-11.2-2c-0.4-0.8-0.4-1.6,0.2-2.3
					c0.6-0.7,1.2-1.3,1.8-1.9C388.2,92.9,388.8,92.7,389.4,93.2"/>
				<path class="st7" d="M401.3,134.4c-2.2-3.8-2.5-7.7-2.7-11.8c-1.1,0.4-2.1,0.8-3.1,1.1c-1.7,0.6-3.4,0.7-5.1,0.3
					c-1.4-0.3-2.8-0.7-4.2-1.2c-5.6-2.2-10.4-5.6-14.9-9.5c-0.3-0.3-0.6-0.5-1.2-0.8c0,2.6,0.1,5,0,7.4c-0.1,2.8-0.8,5.5-1.8,8.2
					c-0.4,1.1-1,2-1.8,2.6l0,0C366.6,130.6,387.8,151.8,401.3,134.4"/>
				<path class="st12" d="M413.2,202.7c0,0-0.1,0-0.1,0L413.2,202.7L413.2,202.7z"/>
				<path class="st7" d="M341.1,156.3c1.2,2,1.8,4.2,2,6.5c0.3,3,0.6,6,1.1,9c1.3,7.1,3.5,13.9,5.6,20.7c0.6,1.9,1.1,3.8,1.5,5.7
					l1.8,0.6c-0.3-0.2-0.5-0.4-0.8-0.5c0.7-0.7,1.3-0.3,1.8-0.2c3.1,0.6,6.2,1.4,9.3,1.9c5.5,0.8,11.1,1.4,16.7,2.1
					c2.9,0.4,5.9,0.7,8.8,1.1c0.7,0.1,1.4,0.2,2.3,0.3l18.7-0.6c4.7-1.2,9.4-2.4,14.1-3.6c2.3-0.6,4.5-1.4,6.6-2.7
					c0.7-0.5,1.1-1,1.1-1.9c0-0.8,0-1.7,0.1-2.5c1.1-8.4,2.2-16.8,3.4-25.1c0.3-1.8,0.8-3.7,1.2-5.5c0.1-0.3,0.1-0.8,0.6-0.9
					C433.2,160.9,386.9,162.9,341.1,156.3 M360.8,190.6c-0.6-0.3-1-0.6-0.7-1.3c0.2-0.6,0.8-0.7,1.3-0.5c1.6,0.5,3.5,0.7,4.6,2.7
					C364,191.6,362.3,191.5,360.8,190.6 M400.5,194.8c-0.6-0.8-0.6-1.5-0.6-2.2c-0.4-4.1-0.7-8.3-1.2-12.4
					c-0.6-5.3-2.2-10.4-3.8-15.5c-0.1-0.3-0.2-0.7-0.3-1l0.3-0.2c1.5,2.1,2.7,4.3,3.5,6.8c1.4,4.6,2.1,9.4,2.5,14.2
					c0.2,2.4,0.2,4.8,0.3,7.2C401,192.7,401,193.6,400.5,194.8 M425.7,188.2c0.9-0.7,1.8-1.3,2.8-2c0.4,0.4,0.9,0.6,1,0.9
					c0.1,0.3-0.1,0.9-0.3,1c-0.8,0.5-1.6,0.9-2.5,1.3c-0.3,0.1-0.8,0-0.9-0.3C425.6,189,425.6,188.4,425.7,188.2"/>
				<path class="st7" d="M352.4,249.8c-0.2,7.4-0.4,14.8-0.5,22.2c0,4.3,0.5,8.5,1.2,12.7c0.2,1.2,0.7,1.9,1.9,2.3
					c2.3,0.7,4.5,1.5,6.8,2.1c6.3,1.6,12.7,2.5,19.2,3.2c9.4,1,18.6,0.6,27.9-1.3c6.4-1.3,12.5-3.4,18.7-5.3c0.1,0,0.3-0.2,0.4-0.3
					c0-0.4,0.1-0.8,0.1-1.2c-0.2-4-0.4-8-0.7-12c-0.4-5.5-1-11-1.3-16.4c-0.1-1.5-0.2-2.9-0.2-4.4
					C421,244.6,393.3,210.2,352.4,249.8 M398.4,269.9c-0.2,0.4-0.7,0.9-1,0.9c-0.4,0-0.9-0.5-1.1-0.9c-0.2-0.6-0.3-1.3-0.3-2
					c0.1-1.5,0.2-3.1,0.3-4.6c0.1-0.6,0.3-1.2,1.3-1.4c0,1.2-0.1,2.3,0,3.3c0,0.6,0.2,1.2,0.5,1.7
					C398.6,268,398.7,268.9,398.4,269.9"/>
				<path class="st7" d="M295.4,227.5c1.7,0.8,3.5,1.6,5.2,2.4c4.6,2.1,9.4,3.9,14.1,5.9c1.5,0.6,1.6,0.7,2.7-0.6
					c1.4-1.6,2.8-3.3,4.1-5.1c1.9-2.7,3.8-5.4,5.7-8.1C324.8,220.3,313.7,213.6,295.4,227.5"/>
				<path class="st7" d="M398.8,108.8c-2,0.9-4.2,1.3-6.4,1.4c-3.1,0-6-0.8-8.6-2.2c-0.2-0.1-0.3-0.2-0.5-0.2
					c-1.7,1.1-6.2,4.5-5.5,9.2c2.9,2.2,6.1,4.1,9.6,5.2c3.6,1.2,7.1,1.3,10.6-0.5c1.9-1,3.9-2,5.7-3.2
					C403.8,116.9,403.5,111.5,398.8,108.8"/>
			</g>
		</g>
	</g>
</g>
<g id="NECK">
	<g>
		<g>
			<defs>
				<rect id="SVGID_6_" x="354" y="102.4" width="60.4" height="49.5"/>
			</defs>
			<clipPath id="SVGID_7_">
				<use xlink:href="#SVGID_6_"  style="overflow:visible;"/>
			</clipPath>
			<g class="st13">
				<defs>
					<rect id="SVGID_8_" x="354" y="102.4" width="60.4" height="49.5"/>
				</defs>
				<clipPath id="SVGID_9_">
					<use xlink:href="#SVGID_8_"  style="overflow:visible;"/>
				</clipPath>
				<path class="st14" d="M401.6,134.7c-2.2-3.8-2.5-7.7-2.7-11.8c-1.1,0.4-2.1,0.8-3.1,1.1c-1.7,0.6-3.4,0.7-5.1,0.3
					c-1.4-0.3-2.8-0.7-4.2-1.2c-5.6-2.2-10.4-5.6-14.9-9.5c-0.3-0.3-0.6-0.5-1.2-0.8c0,2.6,0.1,5,0,7.4c-0.1,2.8-0.8,5.5-1.8,8.2
					c-0.4,1.1-1,2-1.8,2.6l0,0C366.8,130.9,388.1,152.1,401.6,134.7"/>
			</g>
		</g>
	</g>
</g>
<g id="CHEST">
	<g>
		<g>
			<defs>
				<rect id="SVGID_10_" x="328.6" y="134.7" width="120.9" height="88.1"/>
			</defs>
			<clipPath id="SVGID_11_">
				<use xlink:href="#SVGID_10_"  style="overflow:visible;"/>
			</clipPath>
			<g class="st15">
				<defs>
					<rect id="SVGID_12_" x="328.6" y="134.7" width="120.9" height="88.1"/>
				</defs>
				<clipPath id="SVGID_13_">
					<use xlink:href="#SVGID_12_"  style="overflow:visible;"/>
				</clipPath>
				<path class="st16" d="M361.3,187.7c-0.5-0.2-1.1-0.1-1.3,0.5c-0.3,0.7,0.2,1,0.7,1.3c1.6,0.9,3.2,1,5.2,0.9
					C364.8,188.4,362.9,188.2,361.3,187.7"/>
				<path class="st16" d="M400.7,183.5c-0.4-4.8-1.1-9.6-2.5-14.2c-0.8-2.5-2-4.8-3.5-6.8l-0.3,0.2c0.1,0.3,0.2,0.7,0.3,1
					c1.6,5.1,3.2,10.2,3.8,15.5c0.5,4.1,0.8,8.3,1.2,12.4c0.1,0.7,0,1.4,0.6,2.2c0.5-1.1,0.5-2.1,0.5-3.1
					C400.9,188.2,400.9,185.9,400.7,183.5"/>
				<path class="st16" d="M426.7,188.4c0.9-0.4,1.7-0.8,2.5-1.3c0.2-0.2,0.4-0.7,0.3-1c-0.1-0.3-0.6-0.5-1-0.9c-1,0.7-1.9,1.3-2.8,2
					c-0.2,0.1-0.1,0.7,0.1,0.9C425.9,188.3,426.5,188.5,426.7,188.4"/>
				<path class="st17" d="M391.1,202.4c-0.9-0.1-1.6-0.2-2.3-0.3c-2.9-0.4-5.9-0.7-8.8-1.1c-5.6-0.7-11.1-1.3-16.7-2.1
					c-3.1-0.5-6.2-1.3-9.3-1.9c-0.5-0.1-1.1-0.5-1.8,0.2c0.3,0.2,0.6,0.4,0.8,0.5c0.2,0.1,0.4,0.3,0.6,0.3c1.4,0.5,2.8,1,4.3,1.4"/>
				<path class="st17" d="M413.1,201.7c0,0-0.1,0-0.1,0L413.1,201.7L413.1,201.7z"/>
				<path class="st17" d="M341,155.2c1.2,2,1.8,4.2,2,6.5c0.3,3,0.6,6,1.1,9c1.3,7.1,3.5,13.9,5.6,20.7c0.6,1.9,1.1,3.8,1.5,5.7
					l1.8,0.6c-0.3-0.2-0.5-0.4-0.8-0.5c0.7-0.7,1.3-0.3,1.8-0.2c3.1,0.6,6.2,1.4,9.3,1.9c5.5,0.8,11.1,1.4,16.7,2.1
					c2.9,0.4,5.9,0.7,8.8,1.1c0.7,0.1,1.4,0.2,2.3,0.3l18.7-0.6c4.7-1.2,9.4-2.4,14.2-3.6c2.3-0.6,4.5-1.4,6.6-2.7
					c0.7-0.5,1.1-1,1.1-1.9c0-0.8,0-1.7,0.1-2.5c1.1-8.4,2.2-16.8,3.4-25.2c0.3-1.8,0.8-3.7,1.2-5.5c0.1-0.3,0.1-0.8,0.6-0.9
					C433.2,159.8,386.8,161.8,341,155.2 M360.7,189.5c-0.6-0.3-1-0.7-0.7-1.3c0.2-0.6,0.8-0.7,1.3-0.5c1.6,0.5,3.5,0.7,4.6,2.7
					C363.9,190.5,362.2,190.4,360.7,189.5 M400.4,193.7c-0.6-0.8-0.6-1.5-0.6-2.2c-0.4-4.1-0.7-8.3-1.2-12.4
					c-0.6-5.3-2.2-10.4-3.8-15.5c-0.1-0.3-0.2-0.7-0.3-1l0.3-0.2c1.5,2.1,2.7,4.3,3.5,6.8c1.4,4.6,2.1,9.4,2.5,14.2
					c0.2,2.4,0.2,4.8,0.3,7.2C401,191.6,400.9,192.6,400.4,193.7 M425.7,187.2c0.9-0.7,1.8-1.3,2.8-2c0.4,0.4,0.9,0.6,1,0.9
					c0.1,0.3-0.1,0.9-0.3,1c-0.8,0.5-1.6,0.9-2.5,1.3c-0.3,0.1-0.8,0-0.9-0.3C425.6,187.9,425.5,187.3,425.7,187.2"/>
			</g>
		</g>
	</g>
</g>
<g id="STOMACH">
	<g>
		<g>
			<defs>
				
					<rect id="SVGID_14_" x="346.1" y="201.3" transform="matrix(5.325398e-03 -1 1 5.325398e-03 126.3323 650.4749)" width="88.1" height="120.9"/>
			</defs>
			<clipPath id="SVGID_15_">
				<use xlink:href="#SVGID_14_"  style="overflow:visible;"/>
			</clipPath>
			<g class="st18">
				<defs>
					
						<rect id="SVGID_16_" x="346.1" y="201.3" transform="matrix(5.325398e-03 -1 1 5.325398e-03 126.3323 650.4749)" width="88.1" height="120.9"/>
				</defs>
				<clipPath id="SVGID_17_">
					<use xlink:href="#SVGID_16_"  style="overflow:visible;"/>
				</clipPath>
				<path class="st19" d="M397.8,265.2c-0.1-1.1,0-2.1,0-3.3c-1.1,0.1-1.3,0.8-1.3,1.4c-0.2,1.5-0.3,3.1-0.4,4.6
					c0,0.7,0.1,1.4,0.3,2c0.2,0.4,0.7,0.9,1.1,0.9c0.4,0,0.9-0.5,1-0.9c0.4-0.9,0.2-1.9-0.2-2.9C398,266.3,397.8,265.7,397.8,265.2"
					/>
				<path class="st20" d="M352.5,249.4c-0.2,7.4-0.4,14.8-0.6,22.2c-0.1,4.3,0.4,8.5,1.2,12.7c0.2,1.2,0.7,1.9,1.9,2.3
					c2.3,0.7,4.5,1.5,6.8,2.1c6.3,1.7,12.7,2.6,19.2,3.3c9.4,1.1,18.7,0.7,27.9-1.2c6.4-1.3,12.5-3.3,18.8-5.2
					c0.1,0,0.3-0.2,0.4-0.3c0-0.4,0.1-0.8,0.1-1.2c-0.2-4-0.4-8-0.7-12c-0.4-5.5-0.9-11-1.3-16.5c-0.1-1.5-0.2-2.9-0.2-4.4
					C421.2,244.5,393.7,210,352.5,249.4 M398.5,269.7c-0.2,0.4-0.7,0.9-1,0.9c-0.4,0-0.9-0.5-1.1-0.9c-0.2-0.6-0.3-1.3-0.3-2
					c0.1-1.5,0.2-3.1,0.4-4.6c0.1-0.6,0.3-1.2,1.3-1.4c0,1.2-0.1,2.3,0,3.3c0,0.6,0.2,1.2,0.5,1.7
					C398.7,267.8,398.8,268.8,398.5,269.7"/>
			</g>
		</g>
	</g>
</g>
<g id="FINGER">
	<g>
		<g>
			<defs>
				<rect id="SVGID_18_" x="447.6" y="64" width="60.4" height="49.5"/>
			</defs>
			<clipPath id="SVGID_19_">
				<use xlink:href="#SVGID_18_"  style="overflow:visible;"/>
			</clipPath>
			<g class="st21">
				<defs>
					<rect id="SVGID_20_" x="447.6" y="64" width="60.4" height="49.5"/>
				</defs>
				<clipPath id="SVGID_21_">
					<use xlink:href="#SVGID_20_"  style="overflow:visible;"/>
				</clipPath>
				<path class="st22" d="M480,74c-0.7,5.1-0.9,9.8-0.6,14.6c0.4,4.8,1.2,9.5,2.6,14.2c-1.9,0.2-3.7,0.4-5.7,0.6
					c-0.2-1-0.4-1.9-0.5-2.8c-0.6-3.1-1.4-6.1-1.8-9.2c-0.5-3.4-0.4-6.9,0.2-10.2C474.7,78,477,76,480,74"/>
			</g>
		</g>
	</g>
</g>
<g id="ELBOW">
	<g>
		<g>
			<defs>
				<rect id="SVGID_22_" x="281.2" y="201.8" width="60.4" height="49.5"/>
			</defs>
			<clipPath id="SVGID_23_">
				<use xlink:href="#SVGID_22_"  style="overflow:visible;"/>
			</clipPath>
			<g class="st23">
				<defs>
					<rect id="SVGID_24_" x="281.2" y="201.8" width="60.4" height="49.5"/>
				</defs>
				<clipPath id="SVGID_25_">
					<use xlink:href="#SVGID_24_"  style="overflow:visible;"/>
				</clipPath>
				<path class="st24" d="M295.6,226.5c1.7,0.8,3.5,1.6,5.2,2.4c4.6,2.1,9.4,4,14.1,5.9c1.5,0.6,1.6,0.7,2.7-0.6
					c1.4-1.6,2.8-3.3,4.1-5.1c1.9-2.7,3.8-5.4,5.7-8.1C325,219.4,313.8,212.6,295.6,226.5"/>
			</g>
		</g>
	</g>
</g>
<g id="CHIN">
	<g>
		<g>
			<defs>
				<rect id="SVGID_26_" x="360.6" y="90.2" width="60.4" height="49.5"/>
			</defs>
			<clipPath id="SVGID_27_">
				<use xlink:href="#SVGID_26_"  style="overflow:visible;"/>
			</clipPath>
			<g class="st25">
				<defs>
					<rect id="SVGID_28_" x="360.6" y="90.2" width="60.4" height="49.5"/>
				</defs>
				<clipPath id="SVGID_29_">
					<use xlink:href="#SVGID_28_"  style="overflow:visible;"/>
				</clipPath>
				<path class="st26" d="M398.8,108.4c-2,0.9-4.2,1.3-6.4,1.4c-3.1,0-6-0.8-8.6-2.2c-0.2-0.1-0.3-0.2-0.5-0.2
					c-1.7,1.1-6.2,4.5-5.5,9.2c2.9,2.2,6.1,4.1,9.6,5.2c3.6,1.2,7.1,1.3,10.6-0.5c1.9-1,3.9-2,5.7-3.2
					C403.8,116.5,403.6,111.1,398.8,108.4"/>
			</g>
		</g>
	</g>
</g>
<g id="TEETH">
	<g>
		<g>
			<defs>
				<rect id="SVGID_30_" x="361.6" y="81.5" width="60.4" height="49.5"/>
			</defs>
			<clipPath id="SVGID_31_">
				<use xlink:href="#SVGID_30_"  style="overflow:visible;"/>
			</clipPath>
			<g class="st27">
				<defs>
					<rect id="SVGID_32_" x="361.6" y="81.5" width="60.4" height="49.5"/>
				</defs>
				<clipPath id="SVGID_33_">
					<use xlink:href="#SVGID_32_"  style="overflow:visible;"/>
				</clipPath>
				<path class="st28" d="M400.4,105.7c-4.8,3.2-12.4,2.5-17.2-0.9C388.8,106.2,394.4,106.3,400.4,105.7"/>
				<path class="st29" d="M392.9,110.5c-3.1,0-6-0.8-8.6-2.2c-2.2-1.2-4.5-2.2-6.3-4c-0.4-0.4-0.9-0.9-1.2-1.4
					c-0.1-0.2,0-0.6,0.1-0.8c0.1-0.1,0.5-0.1,0.7,0c0.4,0.3,0.7,0.6,1,1c0.5,0.8,1.3,1.2,2.1,1.4c4.3,1.2,8.7,1.9,13.2,1.7
					c2.6-0.2,5.3-0.4,7.9-0.7c1.6-0.2,3.1-0.6,4.1-1.9c0.1-0.2,0.5-0.1,0.8-0.2c0.1,0.3,0.3,0.8,0.1,1c-0.6,0.6-1.3,1.2-2,1.6
					c-0.9,0.6-1.9,1-2.8,1.6C399.2,109.5,396.1,110.4,392.9,110.5 M400.2,107.1c-5.9,0.5-11.6,0.5-17.2-0.9
					C387.8,109.6,395.4,110.3,400.2,107.1"/>
			</g>
		</g>
	</g>
</g>
</svg>
