<?xml version="1.0" encoding="utf-8"?>
<!-- Generator: Adobe Illustrator 22.1.0, SVG Export Plug-In . SVG Version: 6.00 Build 0)  -->
<svg version="1.1" xmlns="http://www.w3.org/2000/svg" xmlns:xlink="http://www.w3.org/1999/xlink" x="0px" y="0px"
	 viewBox="0 0 690 500" style="enable-background:new 0 0 690 500;" xml:space="preserve">
<style type="text/css">
	#A1, #A2, #A3, #A4, #A5, #A6, #A7 {
		transform-origin: center;
		pointer-events: visible;
		transition: all .3s;
	}
	.st0{clip-path:url(#SVGID_2_);fill:#FFFEFD;}
	.st1{clip-path:url(#SVGID_2_);fill:#725A48;}
	.st2{clip-path:url(#SVGID_2_);fill:#EDE57E;}
	.st3{clip-path:url(#SVGID_2_);fill:#D6B78B;}
	
		.st4{clip-path:url(#SVGID_2_);fill:none;stroke:#000000;stroke-width:1.1741;stroke-linecap:round;stroke-linejoin:round;stroke-miterlimit:10;}
	
		.st5{clip-path:url(#SVGID_2_);fill:none;stroke:#000000;stroke-width:2.9352;stroke-linecap:round;stroke-linejoin:round;stroke-miterlimit:10;}
	.st6{clip-path:url(#SVGID_2_);}
	.st7{clip-path:url(#SVGID_4_);fill:#414141;}
	
		.st8{clip-path:url(#SVGID_4_);fill:none;stroke:#000000;stroke-width:1.1741;stroke-linecap:round;stroke-linejoin:round;stroke-miterlimit:10;}
	.st9{clip-path:url(#SVGID_4_);fill:#D6B78B;}
	
		.st10{clip-path:url(#SVGID_4_);fill:none;stroke:#000000;stroke-width:2.9352;stroke-linecap:round;stroke-linejoin:round;stroke-miterlimit:10;}
	.st11{clip-path:url(#SVGID_4_);fill:#755232;}
	.st12{clip-path:url(#SVGID_6_);}
	.st13{clip-path:url(#SVGID_8_);}
	.st14{clip-path:url(#SVGID_8_);fill:#2266AF;}
	.st15{clip-path:url(#SVGID_8_);fill:#FFFFFF;}
	.st16{clip-path:url(#SVGID_8_);fill:#C2C2C2;}
	.st17{clip-path:url(#SVGID_8_);fill:#EA580F;}
	.st18{clip-path:url(#SVGID_10_);}
	.st19{clip-path:url(#SVGID_12_);}
	.st20{clip-path:url(#SVGID_12_);fill:#BCBCBC;}
	
		.st21{clip-path:url(#SVGID_12_);fill:none;stroke:#000000;stroke-width:1.6764;stroke-linecap:round;stroke-linejoin:round;stroke-miterlimit:10;}
	.st22{clip-path:url(#SVGID_12_);fill:#969696;}
	.st23{clip-path:url(#SVGID_12_);fill:#414141;}
	.st24{clip-path:url(#SVGID_14_);fill:#756D65;}
	
		.st25{clip-path:url(#SVGID_14_);fill:none;stroke:#000000;stroke-width:1.6764;stroke-linecap:round;stroke-linejoin:round;stroke-miterlimit:10;}
	.st26{clip-path:url(#SVGID_14_);fill:#443F3B;}
	.st27{clip-path:url(#SVGID_16_);}
	.st28{clip-path:url(#SVGID_18_);fill:#60D65C;}
	
		.st29{clip-path:url(#SVGID_18_);fill:none;stroke:#000000;stroke-width:1.6764;stroke-linecap:round;stroke-linejoin:round;stroke-miterlimit:10;}
	.st30{clip-path:url(#SVGID_18_);}
	.st31{clip-path:url(#SVGID_18_);fill:#FFFFFF;}
	.st32{clip-path:url(#SVGID_20_);fill:#355A96;}
	
		.st33{clip-path:url(#SVGID_20_);fill:none;stroke:#000000;stroke-width:1.6764;stroke-linecap:round;stroke-linejoin:round;stroke-miterlimit:10;}
	.st34{clip-path:url(#SVGID_20_);fill:#77B5ED;}
	.st35{clip-path:url(#SVGID_20_);}
	.st36{clip-path:url(#SVGID_22_);fill:#FFFFFF;}
	.st37{clip-path:url(#SVGID_24_);fill:#442F1D;}
	
		.st38{clip-path:url(#SVGID_24_);fill:none;stroke:#000000;stroke-width:1.6764;stroke-linecap:round;stroke-linejoin:round;stroke-miterlimit:10;}
	.st39{clip-path:url(#SVGID_24_);fill:#755232;}
	.st40{clip-path:url(#SVGID_24_);fill:#913096;}
	.st41{clip-path:url(#SVGID_24_);fill:#4E7FC6;}
	.st42{clip-path:url(#SVGID_24_);fill:#DD7224;}
	.st43{clip-path:url(#SVGID_24_);fill:#B5A45D;}
	.st44{clip-path:url(#SVGID_24_);fill:#7A1A1A;}
	.st45{clip-path:url(#SVGID_24_);fill:#3CAA5B;}
	.st46{clip-path:url(#SVGID_26_);}
	.st47{clip-path:url(#SVGID_28_);}
	.st48{clip-path:url(#SVGID_28_);fill:#252825;}
	.st49{clip-path:url(#SVGID_28_);fill:#707A6F;}
	.st50{clip-path:url(#SVGID_28_);fill:#424741;}
	.st51{clip-path:url(#SVGID_28_);fill:#B1BCAF;}
	.st52{clip-path:url(#SVGID_28_);fill:#7395B1;}
	.st53{clip-path:url(#SVGID_28_);fill:#9AB8CC;}
	.st54{clip-path:url(#SVGID_28_);fill:#FFFFFF;}
</style>
<g id="Слой_3">
	<g>
		<g>
			<defs>
				<rect id="SVGID_1_" x="0" width="690" height="500"/>
			</defs>
			<clipPath id="SVGID_2_">
				<use xlink:href="#SVGID_1_"  style="overflow:visible;"/>
			</clipPath>
			<rect x="0" y="236.3" class="st0" width="690" height="24.5"/>
			<rect x="0" y="245.5" class="st1" width="690" height="254.5"/>
			<rect x="0" y="0" class="st2" width="690" height="239.9"/>
			<rect x="439.2" y="174.7" class="st3" width="55.9" height="44.5"/>
			<rect x="439.2" y="174.7" class="st4" width="55.9" height="44.5"/>
			<polyline class="st5" points="439.2,266 439.2,221.9 447.9,226 447.9,258.9 447.9,215.2 509.2,215.2 509.2,267.4 509.2,207 
				495.1,257.9 			"/>
			<line class="st5" x1="375.6" y1="228.6" x2="375.6" y2="291.8"/>
			<line class="st5" x1="549" y1="291.8" x2="549" y2="230.2"/>
			<g class="st6">
				<defs>
					<rect id="SVGID_3_" x="0" y="0" width="690" height="500"/>
				</defs>
				<clipPath id="SVGID_4_">
					<use xlink:href="#SVGID_3_"  style="overflow:visible;"/>
				</clipPath>
				<path class="st7" d="M558.8,227.8V297l11.9,8.6v4.9c0,0.8-0.9,1.5-2.1,1.5h-5.8l-23.1-16.7v-3.8c0-0.8,0.9-1.5,2.1-1.5h4.6
					l5.7,4.1v-63.9L558.8,227.8z"/>
				<path class="st8" d="M558.8,227.8V297l11.9,8.6v4.9c0,0.8-0.9,1.5-2.1,1.5h-5.8l-23.1-16.7v-3.8c0-0.8,0.9-1.5,2.1-1.5h4.6
					l5.7,4.1v-63.9L558.8,227.8z"/>
				<path class="st7" d="M366.1,227.8V297l-11.9,8.6v4.9c0,0.8,0.9,1.5,2.1,1.5h5.8l23.1-16.7v-3.8c0-0.8-0.9-1.5-2-1.5h-4.6
					l-5.7,4.1v-63.9L366.1,227.8z"/>
				<path class="st8" d="M366.1,227.8V297l-11.9,8.6v4.9c0,0.8,0.9,1.5,2.1,1.5h5.8l23.1-16.7v-3.8c0-0.8-0.9-1.5-2-1.5h-4.6
					l-5.7,4.1v-63.9L366.1,227.8z"/>
				<rect x="331.6" y="198" class="st9" width="260.8" height="33.8"/>
				<rect x="331.6" y="198" class="st8" width="260.8" height="33.8"/>
				<polygon class="st9" points="325,193.6 596.2,193.6 617.7,202.4 306.2,202.4 				"/>
				<polygon class="st8" points="325,193.6 596.2,193.6 617.7,202.4 306.2,202.4 				"/>
				<polygon class="st7" points="156.1,328.9 169.3,421.4 186.4,421.4 179.3,327.4 				"/>
				<polygon class="st8" points="156.1,328.9 169.3,421.4 186.4,421.4 179.3,327.4 				"/>
				<line class="st10" x1="203.6" y1="312.3" x2="228.6" y2="418.9"/>
				<polygon class="st7" points="296.2,327.6 309.3,420.1 326.4,420.1 319.3,326.2 				"/>
				<polygon class="st8" points="296.2,327.6 309.3,420.1 326.4,420.1 319.3,326.2 				"/>
				<line class="st10" x1="343.7" y1="311" x2="368.6" y2="417.6"/>
				<polygon class="st7" points="393.2,278.5 393.2,371.3 377.3,395.1 377.3,399.1 385.3,399.1 409.7,359.7 400.7,359.7 
					400.7,278.5 				"/>
				<polygon class="st8" points="393.2,278.5 393.2,371.3 377.3,395.1 377.3,399.1 385.3,399.1 409.7,359.7 400.7,359.7 
					400.7,278.5 				"/>
				<line class="st10" x1="386.8" y1="278.5" x2="386.8" y2="386.1"/>
				<polygon class="st7" points="319.5,309.1 319.5,472 291.5,513.8 291.5,520.8 305.5,520.8 348.3,451.7 332.6,451.7 332.6,309.1 
									"/>
				<polygon class="st8" points="319.5,309.1 319.5,472 291.5,513.8 291.5,520.8 305.5,520.8 348.3,451.7 332.6,451.7 332.6,309.1 
									"/>
				<line class="st10" x1="308.2" y1="309.1" x2="308.2" y2="498"/>
				<polygon class="st11" points="-26.3,280.1 408,280.1 427.7,265.9 427.7,259.9 -26.3,272.2 				"/>
				<polygon class="st8" points="-26.3,280.1 408,280.1 427.7,265.9 427.7,259.9 -26.3,272.2 				"/>
				<polygon class="st11" points="391,286.4 391,293.6 329.4,338.3 -30.2,338.3 -30.2,330.4 				"/>
				<polygon class="st8" points="391,286.4 391,293.6 329.4,338.3 -30.2,338.3 -30.2,330.4 				"/>
				<polygon class="st9" points="-30.8,330.4 329.9,330.4 391,286.4 -30.8,286.4 				"/>
				<polygon class="st8" points="-30.8,330.4 329.9,330.4 391,286.4 -30.8,286.4 				"/>
				<polygon class="st9" points="-30.8,259.9 -30.8,274.4 407.7,274.4 427.7,259.9 				"/>
				<polygon class="st8" points="-30.8,259.9 -30.8,274.4 407.7,274.4 427.7,259.9 				"/>
				<rect x="254.6" y="247.6" class="st9" width="70.9" height="38.8"/>
				<rect x="254.6" y="247.6" class="st8" width="70.9" height="38.8"/>
				<rect x="71.6" y="247.6" class="st9" width="70.9" height="38.8"/>
				<rect x="71.6" y="247.6" class="st8" width="70.9" height="38.8"/>
				<polygon class="st7" points="137.2,415 179.2,520.8 199,520.8 164.1,413.3 				"/>
				<polygon class="st8" points="137.2,415 179.2,520.8 199,520.8 164.1,413.3 				"/>
				<line class="st10" x1="192.3" y1="395.8" x2="248" y2="517.8"/>
				<polygon class="st9" points="23.4,418.6 155.6,418.6 200.4,390.8 46.7,391.6 19.2,396.3 				"/>
				<polygon class="st8" points="23.4,418.6 155.6,418.6 200.4,390.8 46.7,391.6 19.2,396.3 				"/>
				<rect x="-10.9" y="272.6" class="st9" width="128.8" height="143.3"/>
				<rect x="-10.9" y="272.6" class="st8" width="128.8" height="143.3"/>
				<polygon class="st7" points="676.1,327.9 662.9,420.4 645.8,420.4 652.9,326.5 				"/>
				<polygon class="st8" points="676.1,327.9 662.9,420.4 645.8,420.4 652.9,326.5 				"/>
				<line class="st10" x1="628.6" y1="311.4" x2="603.6" y2="417.9"/>
				<polygon class="st7" points="579,278.8 579,371.6 594.9,395.4 594.9,399.4 587,399.4 562.6,360 571.5,360 571.5,278.8 				"/>
				<polygon class="st8" points="579,278.8 579,371.6 594.9,395.4 594.9,399.4 587,399.4 562.6,360 571.5,360 571.5,278.8 				"/>
				<line class="st10" x1="585.4" y1="278.8" x2="585.4" y2="386.4"/>
				<polygon class="st7" points="652.8,309.4 652.8,472.3 680.7,514.1 680.7,521.1 666.7,521.1 623.9,452 639.6,452 639.6,309.4 
									"/>
				<polygon class="st8" points="652.8,309.4 652.8,472.3 680.7,514.1 680.7,521.1 666.7,521.1 623.9,452 639.6,452 639.6,309.4 
									"/>
				<line class="st10" x1="664" y1="309.4" x2="664" y2="498.3"/>
				<polygon class="st11" points="890.8,280.4 564.2,280.4 544.5,266.2 544.5,260.2 890.8,272.5 				"/>
				<polygon class="st8" points="890.8,280.4 564.2,280.4 544.5,266.2 544.5,260.2 890.8,272.5 				"/>
				<polygon class="st11" points="581.2,286.7 581.2,293.9 642.9,338.6 894.8,338.6 894.8,330.7 				"/>
				<polygon class="st8" points="581.2,286.7 581.2,293.9 642.9,338.6 894.8,338.6 894.8,330.7 				"/>
				<polygon class="st9" points="895.4,330.7 642.3,330.7 581.2,286.7 895.4,286.7 				"/>
				<polygon class="st8" points="895.4,330.7 642.3,330.7 581.2,286.7 895.4,286.7 				"/>
				<polygon class="st9" points="895.4,260.2 895.4,274.7 564.6,274.7 544.5,260.2 				"/>
				<polygon class="st8" points="895.4,260.2 895.4,274.7 564.6,274.7 544.5,260.2 				"/>
				<rect x="646.8" y="247.9" class="st9" width="70.9" height="38.8"/>
				<rect x="646.8" y="247.9" class="st8" width="70.9" height="38.8"/>
				<polygon class="st7" points="164.2,414.3 164.2,717.5 112.2,795.4 112.2,808.3 138.2,808.3 218,679.7 188.7,679.7 188.7,414.3 
									"/>
				<polygon class="st8" points="164.2,414.3 164.2,717.5 112.2,795.4 112.2,808.3 138.2,808.3 218,679.7 188.7,679.7 188.7,414.3 
									"/>
				<line class="st10" x1="143.3" y1="414.3" x2="143.3" y2="765.9"/>
				<polygon class="st11" points="297.4,372 297.4,385.4 182.7,468.5 -286.3,468.5 -286.3,453.9 				"/>
				<polygon class="st8" points="297.4,372 297.4,385.4 182.7,468.5 -286.3,468.5 -286.3,453.9 				"/>
				<polygon class="st9" points="-287.5,453.9 183.7,453.9 297.4,372 -287.5,372 				"/>
				<polygon class="st8" points="-287.5,453.9 183.7,453.9 297.4,372 -287.5,372 				"/>
			</g>
		</g>
	</g>
</g>
<g  class="" id="A7">
	<g>
		<g>
			<defs>
				<rect id="SVGID_5_" x="66.8" y="287.9" width="228.4" height="185.3"/>
			</defs>
			<clipPath id="SVGID_6_">
				<use xlink:href="#SVGID_5_"  style="overflow:visible;"/>
			</clipPath>
			<g class="st12">
				<defs>
					<rect id="SVGID_7_" x="66.8" y="287.9" width="228.4" height="185.3"/>
				</defs>
				<clipPath id="SVGID_8_">
					<use xlink:href="#SVGID_7_"  style="overflow:visible;"/>
				</clipPath>
				<path class="st13" d="M169.8,361.7c0-1.9,0-3.7,0-5.6c0-0.2,0-0.5,0-0.7c0.1-0.8,0.6-1.3,1.4-1.3c1.3,0,2.7,0,4,0
					c0.4,0,0.6-0.1,0.6-0.5c0.3-5.5,1.9-10.6,3.9-15.7c0.2-0.6,0.7-0.9,1.3-0.9c0.6,0,1.1,0.3,1.3,0.9c1.8,4.6,3.3,9.4,3.8,14.3
					c0.1,0.6,0.1,1.2,0.1,1.9c1.3,0,2.5,0.1,3.7,0c2-0.1,2.3,0.6,2.3,2.3c0,1.8,0,3.5,0,5.4c0.2,0,0.4,0,0.6,0c1.5,0,3.1,0,4.6,0
					c2.7,0,4.5,1.7,4.5,4.5c0,17.8,0,35.7,0,53.5c0,0.9,0,1.8,0,2.7c0,1-0.5,1.6-1.6,1.6c-11.6,0-23.1,0-34.7,0c-1.4,0-2.8,0-4.1,0
					c-1,0-1.5-0.5-1.5-1.5c0-5.5,0-11.1,0-16.6c0-4.7,0-9.4,0-14.2c0-7.4,0-14.8,0-22.1c0-1.2,0-2.4,0-3.6c0-2.4,1.8-4.2,4.3-4.2
					c1.6,0,3.2,0,4.8,0C169.3,361.7,169.5,361.7,169.8,361.7 M162.8,410.9h36.4v-35.4h-36.4V410.9z M199.2,372.7c0-0.3,0-0.5,0-0.7
					c0-1.9,0-3.8,0-5.7c0-1.4-0.5-1.9-1.8-1.9c-8.7,0-17.5,0-26.2,0c-2.2,0-4.5,0-6.7,0c-1.1,0-1.7,0.5-1.7,1.6c0,2,0,4,0,5.9
					c0,0.2,0,0.4,0,0.6H199.2z M199.1,421.2c0-0.1,0.1-0.2,0.1-0.2c0-2.3,0-4.6,0-6.9c0-0.3-0.2-0.3-0.4-0.3c-1,0-2.1,0-3.1,0
					c-10.3,0-20.5,0-30.8,0c-0.7,0-1.3,0-2,0v7.5H199.1z M172.6,361.7h16.8v-4.8h-16.8V361.7z M178.5,354.1h4.9
					c-0.1-4.1-1.2-7.9-2.5-11.8C179.7,346.2,178.6,350,178.5,354.1"/>
				<rect x="162.8" y="375.5" class="st14" width="36.4" height="35.4"/>
				<path class="st15" d="M199.2,372.7h-36.4c0-0.2,0-0.4,0-0.6c0-2,0-4,0-5.9c0-1.1,0.5-1.6,1.7-1.6c2.2,0,4.5,0,6.7,0
					c8.7,0,17.5,0,26.2,0c1.3,0,1.8,0.5,1.8,1.9c0,1.9,0,3.8,0,5.7C199.2,372.2,199.2,372.4,199.2,372.7"/>
				<path class="st15" d="M199.1,421.2h-36.3v-7.5c0.7,0,1.4,0,2,0c10.3,0,20.5,0,30.8,0c1,0,2.1,0,3.1,0c0.2,0,0.4,0,0.4,0.3
					c0,2.3,0,4.6,0,6.9C199.2,421,199.2,421.1,199.1,421.2"/>
				<rect x="172.6" y="356.9" class="st16" width="16.8" height="4.8"/>
				<path class="st17" d="M178.5,354.1c0.1-4.1,1.2-7.9,2.5-11.8c1.3,3.9,2.3,7.7,2.5,11.8H178.5z"/>
			</g>
		</g>
	</g>
</g>
<g  class="" id="A6">
	<g>
		<g>
			<defs>
				<rect id="SVGID_9_" x="-47" y="295.9" width="228.4" height="185.3"/>
			</defs>
			<clipPath id="SVGID_10_">
				<use xlink:href="#SVGID_9_"  style="overflow:visible;"/>
			</clipPath>
			<g class="st18">
				<defs>
					<rect id="SVGID_11_" x="-47" y="295.9" width="228.4" height="185.3"/>
				</defs>
				<clipPath id="SVGID_12_">
					<use xlink:href="#SVGID_11_"  style="overflow:visible;"/>
				</clipPath>
				<path class="st19" d="M4,377.7c0.1-0.9,0.2-1.9,0.4-2.8c0.5-2.7,1.4-5.3,3.2-7.5c1.9-2.4,4.4-4,7.4-4.8c5.5-1.7,10.9-1.3,16,1.4
					c3.6,2,6.4,4.8,7.8,8.8c1,2.8,1.2,5.7,0.7,8.6c0,0.2,0,0.4-0.1,0.5c0.1,0,0.2,0,0.3,0c4.3,0.2,8.6,0.3,12.9,0.5
					c0.6,0,0.9-0.1,1.3-0.6c3.9-5.7,8.4-11,13.3-16c4.6-4.8,9.6-9.3,15-13.2c2.9-2.1,5.9-4,9.2-5.5c2-0.9,4.2-1.4,6.3-1.9
					c2.7-0.5,5.4-1.1,8.1-1.6c0.4-0.1,0.9-0.1,1.3-0.2c0.9,0,1.7,0,2.6,0c0.7,0.1,1.3,0.1,1.9,0.3c1.2,0.3,2.4,0.6,3.6,0.9
					c0.7,0.2,1.2,0.7,1.7,1.4c-15.6,12.7-31.3,25.4-47.7,37.2c0.2,0,0.3,0,0.5,0c7.3-0.5,14.6-1,22-1.5c6.8-0.5,13.5-0.7,20.3-0.6
					c4.4,0,8.9-0.1,13.3-0.2c1.5,0,3.1-0.3,4.6-0.4c0.2,0,0.3,0,0.5,0c-0.4,1.2-0.9,2.4-1.6,3.4c-0.4,0.6-0.9,1.2-1.5,1.7
					c-4.3,4.3-9.3,7.4-15,9.5c-6.8,2.5-13.7,4.6-20.8,5.9c-4.8,0.9-9.7,1.3-14.6,0.9c-7.4-0.6-14.2-3-20.1-7.5
					c-0.4-0.3-0.7-0.3-1.1,0.1c-1.8,1.7-3.7,3.3-5.6,4.9c-0.7,0.6-0.8,1.2-0.5,2.1c1.8,4.8,2.8,9.8,2.6,15c-0.1,3.6-0.8,7-2.5,10.2
					c-1.6,2.9-4.2,4.6-7.2,5.6c-1.7,0.6-3.4,0.9-5.1,1.1c-0.2,0-0.3,0.1-0.5,0.1c-0.9,0-1.8,0-2.8,0c-0.5-0.1-1-0.1-1.5-0.2
					c-4-0.4-7.5-1.8-10.3-4.7c-1.8-1.9-3.3-4-4.5-6.3c-1.4-2.7-1.8-5.5-1.3-8.5c0.7-4.5,3.1-7.7,7-9.8c2.3-1.2,4.6-2.3,6.9-3.5
					c3.2-1.6,6.4-3.3,9.2-5.4c0.4-0.3,0.7-0.6,1.1-0.9c0-0.1,0-0.1,0-0.2c-0.5,0-1,0-1.6,0c-3.1,0.2-6.1,0.4-9.2,0.6
					c-3.4,0.2-6.8,0.3-10.1-0.1c-3.3-0.5-6.3-1.5-9.1-3.3c-3.3-2.2-5.6-5-6.3-9c-0.1-0.7-0.3-1.5-0.4-2.2
					C4.1,379.4,4.1,378.6,4,377.7 M111.4,345c0-0.1,0-0.1,0-0.2c-0.4,0-0.9,0-1.3,0c-6.1,0-11.9,1.4-17.4,3.9
					c-6,2.7-11.5,6.3-16.5,10.6c-5.5,4.7-10.4,10-14.9,15.6c-1.7,2.1-3.3,4.4-5,6.5c-0.8,1.1-1.6,2.3-2.6,3.3
					c-3.4,3.7-7.3,6.7-11.2,9.8c-1.4,1.2-2.9,2.2-4.4,3.3c-2,1.4-3.9,2.8-6.1,3.8c-1.5,0.7-3,1.4-4.5,2.2c-2.5,1.3-4.9,2.8-6.8,4.9
					c-1.1,1.2-2,2.6-2.6,4.2c-0.8,2.1-0.5,4.2,0.2,6.3c0.9,2.9,2.4,5.4,4.4,7.6c2.2,2.4,4.9,4,8.2,4.5c3.4,0.5,6.8,0.4,10.1-0.3
					c1.6-0.4,3.2-0.8,4.6-1.9c1.9-1.5,3.1-3.6,3.8-5.9c0.9-2.6,1-5.4,0.9-8.1c-0.1-2.5-0.2-5-0.5-7.4c-0.3-2.7-1-5.2-2.2-7.7
					c-0.2-0.4-0.1-0.7,0.2-1c1.2-1,2.4-2,3.6-3c2-1.9,4-3.8,6-5.7c0.2-0.2,0.3-0.4,0.5-0.6c-0.6,0.2-1.1,0.3-1.6,0.4
					c-1.2,0.2-2-0.4-2.2-1.6c-0.2-1.5,0.3-2.9,1.4-3.9c0.6-0.6,1.4-0.9,2.2-0.5c1.9,0.8,2.4,1.8,1.9,3.4c-0.1,0.4-0.3,0.9-0.4,1.4
					c1.1-0.8,2.2-1.5,3.3-2.3c1-0.8,2-1.5,2.9-2.4c0.8-0.8,1.4-1.7,1.5-2.9c0.1-0.8,0.5-1.5,1.1-2c1.3-1.1,2.6-2.3,3.9-3.4
					c7.9-6.2,15.9-12.3,23.8-18.4c5.1-3.9,10.1-7.9,15.2-11.9C111,345.4,111.2,345.2,111.4,345 M57.4,392.9c0.3,0.2,0.4,0.3,0.5,0.4
					c1.5,0.9,3,1.9,4.5,2.7c7.1,3.8,14.6,5.3,22.6,4.6c4.1-0.4,8.2-1.3,12.2-2.3c5.9-1.6,11.7-3.3,17.2-5.8
					c3.6-1.7,7.1-3.6,10.1-6.3c0.1-0.1,0.2-0.2,0.4-0.4c-0.3,0-0.5-0.1-0.7-0.1c-6.6,0-13.2-0.1-19.7,0.1
					c-8.2,0.2-16.4,0.8-24.6,1.2c-5.3,0.2-10.6,0.5-15.9,0.7c-0.2,0-0.5,0.1-0.6,0.2c-1.1,0.9-2.2,1.7-3.3,2.6
					C59.2,391.2,58.4,392,57.4,392.9 M51.5,384c-0.3,0-0.5,0-0.7,0c-0.9,0-1.8,0.1-2.8,0.1c-2,0-4,0-6,0c-0.7,0-1.3,0-2,0
					c-0.4,0-0.9,0-1.3-0.1c-0.5-0.1-0.8-0.4-0.8-0.9c0-0.5-0.1-1-0.1-1.4c0-1.6,0-3.1,0-4.7c0-0.7,0-1.4-0.2-2.1
					c-0.9-3-2.7-5.4-5.1-7.3c-3.3-2.7-7.1-4.2-11.4-4.4c-2.6-0.1-5.1,0.4-7.4,1.6c-2.4,1.3-4.3,3.2-5.7,5.5
					c-1.9,3.2-2.9,6.7-2.3,10.4c0.8,5,3.6,8.6,8.1,10.9c3.2,1.6,6.6,2,10.1,2.1c4.4,0.1,8.7-0.3,13.1-0.7c1.5-0.1,3-0.4,4.4-0.6
					c1.4-0.2,2.7-1,3.7-2C47.2,388.3,49.3,386.2,51.5,384 M114.9,346c0-0.1-0.1-0.1-0.1-0.2c-0.8,0.1-1.7-0.1-2.4,0.5
					c-2.7,2-5.4,3.9-8.1,5.9c-9.3,7.1-18.5,14.3-27.8,21.4c-2.8,2.1-5.5,4.3-8.3,6.5c-0.2,0.1-0.4,0.4-0.4,0.6c0,0.5,0.2,1,0.3,1.6
					c0.2-0.1,0.4-0.2,0.6-0.3c1.3-0.8,2.6-1.6,3.8-2.5c12.3-8.8,24.3-18.1,36-27.7c1.9-1.5,3.7-3.2,5.5-4.7
					C114.3,346.7,114.6,346.3,114.9,346 M65.7,385.9c0,0,0,0.1,0,0.1c0.3,0,0.5,0,0.8,0c7.7-0.3,15.3-0.6,23-0.9
					c3.9-0.2,7.8-0.4,11.7-0.6c2.9-0.1,5.8-0.3,8.6-0.3c3.6,0,7.2,0.2,10.9,0.2c1.9,0,3.7-0.1,5.6-0.3c0.9-0.1,1.5-0.9,1.5-1.8
					c-0.1,0-0.3,0-0.4,0c-4.2,0-8.3-0.1-12.5-0.1c-10.2,0.1-20.5,0.7-30.7,1.4c-5.3,0.3-10.5,0.7-15.8,1c-1.1,0.1-1.9,0.3-2.6,1.1
					C65.9,385.7,65.8,385.8,65.7,385.9 M56.3,388.6c1,0,2-0.8,2.1-1.6c0-0.1,0-0.2-0.1-0.3c-0.4-0.6-1.2-1-1.9-0.8
					c-0.9,0.2-1.4,0.8-1.8,1.5c0,0.1,0,0.3,0,0.4C55.2,388.2,55.8,388.6,56.3,388.6"/>
				<path class="st20" d="M111.4,345c-0.2,0.2-0.4,0.4-0.6,0.5c-5.1,4-10.1,7.9-15.2,11.9c-7.9,6.1-15.9,12.3-23.8,18.4
					c-1.4,1.1-2.6,2.2-3.9,3.4c-0.6,0.5-1,1.2-1.1,2c-0.1,1.2-0.6,2.2-1.5,2.9c-0.9,0.9-1.9,1.6-2.9,2.4c-1,0.8-2.1,1.5-3.3,2.3
					c0.1-0.5,0.3-0.9,0.4-1.4c0.5-1.6,0-2.6-1.9-3.4c-0.8-0.3-1.6-0.1-2.2,0.5c-1.1,1.1-1.6,2.4-1.4,3.9c0.2,1.2,1,1.8,2.2,1.6
					c0.5-0.1,1-0.3,1.6-0.4c-0.2,0.2-0.3,0.5-0.5,0.6c-2,1.9-4,3.8-6,5.7c-1.1,1.1-2.4,2-3.6,3c-0.3,0.3-0.4,0.5-0.2,1
					c1.2,2.4,1.9,5,2.2,7.7c0.3,2.5,0.5,4.9,0.5,7.4c0.1,2.7-0.1,5.5-0.9,8.1c-0.8,2.3-1.9,4.4-3.8,5.9c-1.3,1.1-2.9,1.5-4.6,1.9
					c-3.4,0.8-6.7,0.9-10.1,0.3c-3.3-0.5-6-2.1-8.2-4.5c-2-2.2-3.6-4.7-4.4-7.6c-0.6-2.1-1-4.2-0.2-6.3c0.6-1.6,1.5-2.9,2.6-4.2
					c1.9-2.1,4.3-3.7,6.8-4.9c1.5-0.8,3-1.5,4.5-2.2c2.2-1,4.2-2.5,6.1-3.8c1.5-1.1,3-2.1,4.4-3.3c3.9-3.1,7.8-6.1,11.2-9.8
					c0.9-1,1.7-2.2,2.6-3.3c1.7-2.2,3.3-4.4,5-6.5c4.5-5.6,9.4-10.9,14.9-15.6c5-4.3,10.4-7.9,16.5-10.6c5.5-2.4,11.3-3.8,17.4-3.9
					c0.4,0,0.9,0,1.3,0C111.4,344.9,111.4,345,111.4,345 M47.5,415.3c0-3.7-1.7-7.3-4.9-9.9c-2.2-1.8-4.7-2.1-7.3-1.4
					c-2.6,0.7-4.8,2-6.8,3.8c-1.7,1.5-3.1,3.3-3.7,5.5c-0.7,2.6-0.9,5.2-0.4,7.9c0.7,3.8,3.1,6,6.8,6.9c2.1,0.5,4.3,0.3,6.4-0.3
					C42.5,426.3,47.4,421.8,47.5,415.3"/>
				<path class="st21" d="M111.4,345c-0.2,0.2-0.4,0.4-0.6,0.5c-5.1,4-10.1,7.9-15.2,11.9c-7.9,6.1-15.9,12.3-23.8,18.4
					c-1.4,1.1-2.6,2.2-3.9,3.4c-0.6,0.5-1,1.2-1.1,2c-0.1,1.2-0.6,2.2-1.5,2.9c-0.9,0.9-1.9,1.6-2.9,2.4c-1,0.8-2.1,1.5-3.3,2.3
					c0.1-0.5,0.3-0.9,0.4-1.4c0.5-1.6,0-2.6-1.9-3.4c-0.8-0.3-1.6-0.1-2.2,0.5c-1.1,1.1-1.6,2.4-1.4,3.9c0.2,1.2,1,1.8,2.2,1.6
					c0.5-0.1,1-0.3,1.6-0.4c-0.2,0.2-0.3,0.5-0.5,0.6c-2,1.9-4,3.8-6,5.7c-1.1,1.1-2.4,2-3.6,3c-0.3,0.3-0.4,0.5-0.2,1
					c1.2,2.4,1.9,5,2.2,7.7c0.3,2.5,0.5,4.9,0.5,7.4c0.1,2.7-0.1,5.5-0.9,8.1c-0.8,2.3-1.9,4.4-3.8,5.9c-1.3,1.1-2.9,1.5-4.6,1.9
					c-3.4,0.8-6.7,0.9-10.1,0.3c-3.3-0.5-6-2.1-8.2-4.5c-2-2.2-3.6-4.7-4.4-7.6c-0.6-2.1-1-4.2-0.2-6.3c0.6-1.6,1.5-2.9,2.6-4.2
					c1.9-2.1,4.3-3.7,6.8-4.9c1.5-0.8,3-1.5,4.5-2.2c2.2-1,4.2-2.5,6.1-3.8c1.5-1.1,3-2.1,4.4-3.3c3.9-3.1,7.8-6.1,11.2-9.8
					c0.9-1,1.7-2.2,2.6-3.3c1.7-2.2,3.3-4.4,5-6.5c4.5-5.6,9.4-10.9,14.9-15.6c5-4.3,10.4-7.9,16.5-10.6c5.5-2.4,11.3-3.8,17.4-3.9
					c0.4,0,0.9,0,1.3,0C111.4,344.9,111.4,345,111.4,345z M47.5,415.3c0-3.7-1.7-7.3-4.9-9.9c-2.2-1.8-4.7-2.1-7.3-1.4
					c-2.6,0.7-4.8,2-6.8,3.8c-1.7,1.5-3.1,3.3-3.7,5.5c-0.7,2.6-0.9,5.2-0.4,7.9c0.7,3.8,3.1,6,6.8,6.9c2.1,0.5,4.3,0.3,6.4-0.3
					C42.5,426.3,47.4,421.8,47.5,415.3z"/>
				<path class="st22" d="M57.4,392.9c0.9-0.9,1.8-1.8,2.7-2.6c1.1-0.9,2.2-1.8,3.3-2.6c0.2-0.1,0.4-0.2,0.6-0.2
					c5.3-0.2,10.6-0.4,15.9-0.7c8.2-0.4,16.4-0.9,24.6-1.2c6.6-0.2,13.2-0.1,19.7-0.1c0.2,0,0.4,0,0.7,0.1c-0.2,0.2-0.3,0.3-0.4,0.4
					c-3,2.7-6.5,4.6-10.1,6.3c-5.5,2.5-11.3,4.3-17.2,5.8c-4,1.1-8.1,1.9-12.2,2.3c-8,0.7-15.5-0.7-22.6-4.6c-1.5-0.8-3-1.8-4.5-2.7
					C57.8,393.2,57.7,393.1,57.4,392.9"/>
				<path class="st21" d="M57.4,392.9c0.9-0.9,1.8-1.8,2.7-2.6c1.1-0.9,2.2-1.8,3.3-2.6c0.2-0.1,0.4-0.2,0.6-0.2
					c5.3-0.2,10.6-0.4,15.9-0.7c8.2-0.4,16.4-0.9,24.6-1.2c6.6-0.2,13.2-0.1,19.7-0.1c0.2,0,0.4,0,0.7,0.1c-0.2,0.2-0.3,0.3-0.4,0.4
					c-3,2.7-6.5,4.6-10.1,6.3c-5.5,2.5-11.3,4.3-17.2,5.8c-4,1.1-8.1,1.9-12.2,2.3c-8,0.7-15.5-0.7-22.6-4.6c-1.5-0.8-3-1.8-4.5-2.7
					C57.8,393.2,57.7,393.1,57.4,392.9z"/>
				<path class="st20" d="M51.5,384c-2.2,2.2-4.3,4.3-6.4,6.3c-1,1-2.2,1.8-3.7,2c-1.5,0.3-3,0.5-4.4,0.6c-4.3,0.4-8.7,0.8-13.1,0.7
					c-3.5-0.1-6.9-0.5-10.1-2.1c-4.5-2.3-7.3-5.9-8.1-10.9c-0.6-3.7,0.3-7.2,2.3-10.4c1.4-2.3,3.3-4.2,5.7-5.5
					c2.3-1.3,4.8-1.8,7.4-1.6c4.3,0.2,8.1,1.7,11.4,4.4c2.4,1.9,4.2,4.3,5.1,7.3c0.2,0.7,0.2,1.4,0.2,2.1c0,1.6,0,3.1,0,4.7
					c0,0.5,0.1,1,0.1,1.4c0,0.5,0.3,0.9,0.8,0.9c0.4,0.1,0.9,0.1,1.3,0.1c0.7,0,1.3,0,2,0c2,0,4,0,6,0c0.9,0,1.8-0.1,2.8-0.1
					C51,384,51.2,384,51.5,384 M22.8,368c-3.1,0.1-6.3,1.3-9.2,3.1c-1.7,1-2.6,2.6-2.8,4.5c-0.4,2.5,0.1,5,1,7.4
					c0.4,1.1,1.1,2,2,2.7c2.2,1.8,4.7,3,7.5,3.6c1.4,0.3,2.8,0.4,4.2-0.2c3.3-1.4,5.9-3.6,7.7-6.7c1.6-2.8,1.6-5.7-0.1-8.5
					c-1.1-1.8-2.8-3.1-4.5-4.3C26.9,368.4,25.1,368,22.8,368"/>
				<path class="st21" d="M51.5,384c-2.2,2.2-4.3,4.3-6.4,6.3c-1,1-2.2,1.8-3.7,2c-1.5,0.3-3,0.5-4.4,0.6c-4.3,0.4-8.7,0.8-13.1,0.7
					c-3.5-0.1-6.9-0.5-10.1-2.1c-4.5-2.3-7.3-5.9-8.1-10.9c-0.6-3.7,0.3-7.2,2.3-10.4c1.4-2.3,3.3-4.2,5.7-5.5
					c2.3-1.3,4.8-1.8,7.4-1.6c4.3,0.2,8.1,1.7,11.4,4.4c2.4,1.9,4.2,4.3,5.1,7.3c0.2,0.7,0.2,1.4,0.2,2.1c0,1.6,0,3.1,0,4.7
					c0,0.5,0.1,1,0.1,1.4c0,0.5,0.3,0.9,0.8,0.9c0.4,0.1,0.9,0.1,1.3,0.1c0.7,0,1.3,0,2,0c2,0,4,0,6,0c0.9,0,1.8-0.1,2.8-0.1
					C51,384,51.2,384,51.5,384z M22.8,368c-3.1,0.1-6.3,1.3-9.2,3.1c-1.7,1-2.6,2.6-2.8,4.5c-0.4,2.5,0.1,5,1,7.4
					c0.4,1.1,1.1,2,2,2.7c2.2,1.8,4.7,3,7.5,3.6c1.4,0.3,2.8,0.4,4.2-0.2c3.3-1.4,5.9-3.6,7.7-6.7c1.6-2.8,1.6-5.7-0.1-8.5
					c-1.1-1.8-2.8-3.1-4.5-4.3C26.9,368.4,25.1,368,22.8,368z"/>
				<path class="st22" d="M114.9,346c-0.3,0.3-0.6,0.7-0.9,0.9c-1.8,1.6-3.6,3.2-5.5,4.8c-11.7,9.6-23.7,18.9-36,27.7
					c-1.2,0.9-2.5,1.7-3.8,2.5c-0.2,0.1-0.4,0.2-0.6,0.3c-0.1-0.6-0.2-1.1-0.3-1.6c0-0.2,0.2-0.4,0.4-0.6c2.8-2.2,5.5-4.3,8.3-6.5
					c9.3-7.1,18.5-14.3,27.8-21.4c2.7-2,5.4-3.9,8.1-5.9c0.8-0.6,1.6-0.5,2.4-0.5C114.8,345.9,114.8,346,114.9,346"/>
				<path class="st21" d="M114.9,346c-0.3,0.3-0.6,0.7-0.9,0.9c-1.8,1.6-3.6,3.2-5.5,4.8c-11.7,9.6-23.7,18.9-36,27.7
					c-1.2,0.9-2.5,1.7-3.8,2.5c-0.2,0.1-0.4,0.2-0.6,0.3c-0.1-0.6-0.2-1.1-0.3-1.6c0-0.2,0.2-0.4,0.4-0.6c2.8-2.2,5.5-4.3,8.3-6.5
					c9.3-7.1,18.5-14.3,27.8-21.4c2.7-2,5.4-3.9,8.1-5.9c0.8-0.6,1.6-0.5,2.4-0.5C114.8,345.9,114.8,346,114.9,346z"/>
				<path class="st22" d="M65.7,385.9c0.1-0.1,0.1-0.1,0.2-0.2c0.7-0.8,1.5-1,2.6-1.1c5.3-0.3,10.5-0.7,15.8-1
					c10.2-0.7,20.4-1.3,30.7-1.4c4.2,0,8.3,0.1,12.5,0.1c0.1,0,0.3,0,0.4,0c-0.1,0.9-0.7,1.7-1.5,1.8c-1.9,0.2-3.7,0.3-5.6,0.3
					c-3.6,0-7.2-0.2-10.9-0.2c-2.9,0-5.8,0.2-8.6,0.3c-3.9,0.2-7.8,0.4-11.7,0.6c-7.7,0.3-15.3,0.6-23,0.9c-0.3,0-0.5,0-0.8,0
					C65.8,385.9,65.8,385.9,65.7,385.9"/>
				<path class="st21" d="M65.7,385.9c0.1-0.1,0.1-0.1,0.2-0.2c0.7-0.8,1.5-1,2.6-1.1c5.3-0.3,10.5-0.7,15.8-1
					c10.2-0.7,20.4-1.3,30.7-1.4c4.2,0,8.3,0.1,12.5,0.1c0.1,0,0.3,0,0.4,0c-0.1,0.9-0.7,1.7-1.5,1.8c-1.9,0.2-3.7,0.3-5.6,0.3
					c-3.6,0-7.2-0.2-10.9-0.2c-2.9,0-5.8,0.2-8.6,0.3c-3.9,0.2-7.8,0.4-11.7,0.6c-7.7,0.3-15.3,0.6-23,0.9c-0.3,0-0.5,0-0.8,0
					C65.8,385.9,65.8,385.9,65.7,385.9z"/>
				<path class="st23" d="M56.3,388.6c-0.5,0-1.1-0.3-1.5-0.9c-0.1-0.1-0.1-0.3,0-0.4c0.4-0.7,0.9-1.3,1.8-1.5
					c0.7-0.2,1.5,0.2,1.9,0.8c0.1,0.1,0.1,0.2,0.1,0.3C58.3,387.8,57.3,388.6,56.3,388.6"/>
				<path class="st21" d="M56.3,388.6c-0.5,0-1.1-0.3-1.5-0.9c-0.1-0.1-0.1-0.3,0-0.4c0.4-0.7,0.9-1.3,1.8-1.5
					c0.7-0.2,1.5,0.2,1.9,0.8c0.1,0.1,0.1,0.2,0.1,0.3C58.3,387.8,57.3,388.6,56.3,388.6z"/>
				<path class="st19" d="M47.5,415.3c-0.1,6.5-5,11-10,12.5c-2.1,0.6-4.2,0.8-6.4,0.3c-3.7-0.9-6-3.1-6.8-6.9
					c-0.5-2.7-0.3-5.3,0.4-7.9c0.6-2.2,2-4,3.7-5.5c2-1.8,4.2-3,6.8-3.8c2.7-0.7,5.1-0.4,7.3,1.4C45.9,407.9,47.6,411.5,47.5,415.3
					 M25.6,418.4c0,0.4,0.1,0.7,0.1,1c0.5,5.1,5.1,8.5,10,7.4c4-0.9,6.9-3.3,8.8-6.8c2.7-4.9,0.3-11.7-4.8-14.2
					c-1.1-0.5-2.2-0.7-3.4-0.5c-2.3,0.3-4.3,1.4-6,3C27.4,411,25.7,414.5,25.6,418.4"/>
				<path class="st19" d="M22.8,368c2.3,0,4.1,0.4,5.8,1.6c1.7,1.2,3.4,2.5,4.5,4.3c1.8,2.8,1.7,5.7,0.1,8.5
					c-1.8,3.1-4.4,5.3-7.7,6.7c-1.4,0.6-2.8,0.5-4.2,0.2c-2.8-0.6-5.3-1.8-7.5-3.6c-0.9-0.7-1.6-1.6-2-2.7c-0.9-2.4-1.4-4.8-1-7.4
					c0.3-1.9,1.2-3.6,2.8-4.5C16.5,369.3,19.6,368.1,22.8,368 M21.9,369.7c-0.9,0.1-1.8,0.2-2.7,0.4c-2.2,0.5-4.2,1.4-5.6,3.3
					c-2.4,3.3-1.7,8.7,1.5,11.4c5.4,4.6,12.1,3.3,16-1c2.7-3.1,3.4-9.5-2.2-12.4C26.6,370.2,24.3,369.7,21.9,369.7"/>
			</g>
		</g>
	</g>
</g>
<g class=""  id="A5">
	<g>
		<g>
			<defs>
				<rect id="SVGID_13_" x="362.6" y="240" width="228.4" height="185.3"/>
			</defs>
			<clipPath id="SVGID_14_">
				<use xlink:href="#SVGID_13_"  style="overflow:visible;"/>
			</clipPath>
			<path class="st24" d="M440,285.2l10.4,95.9h52.5l10.4-95.9H440z M474.3,301.7v43.8h-9.7l-1.6-43.8H474.3z M480.4,301.7h11.1
				l-2.3,43.8h-8.8V301.7z M446.4,301.7h8.9l3.7,43.8h-7L446.4,301.7z M501.9,345.5h-6.2l3.3-43.8h8.6L501.9,345.5z"/>
			<path class="st25" d="M440,285.2l10.4,95.9h52.5l10.4-95.9H440z M474.3,301.7v43.8h-9.7l-1.6-43.8H474.3z M480.4,301.7h11.1
				l-2.3,43.8h-8.8V301.7z M446.4,301.7h8.9l3.7,43.8h-7L446.4,301.7z M501.9,345.5h-6.2l3.3-43.8h8.6L501.9,345.5z"/>
			<polygon class="st26" points="438.2,284.1 440,298.6 513.2,298.6 515.5,284.1 			"/>
			<polygon class="st25" points="438.2,284.1 440,298.6 513.2,298.6 515.5,284.1 			"/>
		</g>
	</g>
</g>
<g  class="" id="A4">
	<g>
		<g>
			<defs>
				<rect id="SVGID_15_" x="445.2" y="-51.3" width="228.4" height="185.3"/>
			</defs>
			<clipPath id="SVGID_16_">
				<use xlink:href="#SVGID_15_"  style="overflow:visible;"/>
			</clipPath>
			<g class="st27">
				<defs>
					<rect id="SVGID_17_" x="445.2" y="-51.3" width="228.4" height="185.3"/>
				</defs>
				<clipPath id="SVGID_18_">
					<use xlink:href="#SVGID_17_"  style="overflow:visible;"/>
				</clipPath>
				<path class="st28" d="M591.5,41.4c0,17.7-14.4,32.1-32.1,32.1s-32.1-14.4-32.1-32.1s14.4-32.1,32.1-32.1S591.5,23.7,591.5,41.4"
					/>
				<circle class="st29" cx="559.4" cy="41.4" r="32.1"/>
				<path class="st30" d="M588.3,41.4c0,15.9-12.9,28.9-28.9,28.9s-28.9-12.9-28.9-28.9s12.9-28.9,28.9-28.9S588.3,25.4,588.3,41.4"
					/>
				<path class="st31" d="M540.8,61.4c0.2-0.4,0.5-0.7,0.7-1.1c-0.1-0.1-0.1-0.2-0.2-0.2c-0.4,0.3-0.8,0.5-1.2,0.9
					c-5.2-5.2-7.9-11.5-8.2-18.9c0.5-0.1,1-0.2,1.5-0.3c0-0.1,0-0.2,0-0.3c-0.5-0.1-0.9-0.2-1.5-0.4c0.2-7.6,3-14.1,8.5-19.5
					c0.5,0.4,0.9,0.7,1.4,1.1c0.1-0.1,0.2-0.2,0.3-0.2c-0.3-0.4-0.6-0.8-0.9-1.3c2.9-3.8,12.6-7.7,17.7-7.1c0.1,0.4,0.2,0.9,0.3,1.3
					c0.1,0,0.2,0,0.3,0c0.1-0.4,0.1-0.8,0.2-1.4c7.3,0.1,13.5,2.7,18.9,7.7c-0.2,0.3-0.4,0.5-0.6,0.7c-0.1,0.2-0.2,0.4-0.1,0.8
					c0.4-0.3,0.8-0.5,1.3-0.9c5,5.3,7.6,11.5,7.8,18.8c-0.6,0.1-1,0.2-1.5,0.3c0,0.1,0,0.2,0,0.3c0.4,0.1,0.9,0.2,1.5,0.3
					c-0.1,6.9-2.6,12.8-7.1,17.9c-0.4-0.2-0.8-0.4-1.1-0.7c-0.1,0.1-0.1,0.1-0.2,0.2c0.2,0.3,0.4,0.7,0.7,1.1
					c-5.3,5.4-11.8,8.1-19.5,8.4c-0.1-0.6-0.2-1.1-0.3-1.6c-0.1,0-0.2,0-0.3,0c-0.1,0.5-0.2,1-0.3,1.5
					C553.8,69.4,544.1,65.4,540.8,61.4 M559.7,35.2L559.7,35.2c0-1.5,0-3,0-4.5c0-0.3-0.3-0.7-0.4-1c-0.2,0.3-0.5,0.7-0.5,1
					c0,2.8,0,5.6,0,8.4c0,0.5-0.2,1-0.5,1.4c-0.7,1-0.4,2,0.8,2.4c0.5,0.2,1.1,0.4,1.6,0.8c3.8,3.1,7.5,6.2,11.2,9.3
					c0.3,0.3,0.6,0.5,1,0.7c0.2,0.1,0.4,0,0.6-0.1c0.1,0,0-0.4-0.1-0.5c-0.2-0.3-0.4-0.5-0.7-0.7c-2.8-2.3-5.6-4.5-8.3-7
					c-1.5-1.3-3.7-2-4-4.6c-0.1-0.7-0.5-1.6-0.6-2.4C559.7,37.4,559.7,36.3,559.7,35.2"/>
				<path class="st30" d="M559.7,35.2c0,1.1,0,2.2,0,3.3c0,0.9,0.5,1.7,0.6,2.4c0.4,2.5,2.5,3.2,4,4.6c2.7,2.4,5.5,4.6,8.3,7
					c0.2,0.2,0.5,0.4,0.7,0.7c0.1,0.1,0.1,0.5,0.1,0.5c-0.2,0.1-0.5,0.2-0.6,0.1c-0.4-0.2-0.7-0.4-1-0.7c-3.7-3.1-7.5-6.2-11.2-9.3
					c-0.4-0.4-1-0.6-1.6-0.8c-1.1-0.3-1.5-1.4-0.8-2.4c0.3-0.4,0.5-0.9,0.5-1.4c0-2.8,0-5.6,0-8.4c0-0.3,0.3-0.7,0.5-1
					c0.1,0.3,0.4,0.7,0.4,1C559.8,32.2,559.7,33.7,559.7,35.2L559.7,35.2z M560.4,41.5c-0.5-0.4-0.9-0.8-1.2-0.8
					c-0.3,0.1-0.6,0.6-0.9,0.9c0.3,0.3,0.6,0.7,1,0.8C559.6,42.4,559.9,41.9,560.4,41.5 M559.3,30.6c0,0-0.1,0-0.1,0v9.2
					c0,0,0.1,0,0.1,0V30.6z"/>
				<path class="st31" d="M560.4,41.5c-0.5,0.4-0.8,0.9-1.1,0.9c-0.4-0.1-0.6-0.5-1-0.8c0.3-0.3,0.5-0.8,0.9-0.9
					C559.5,40.7,559.9,41.1,560.4,41.5"/>
				<path class="st31" d="M559.3,30.6v9.2c0,0-0.1,0-0.1,0v-9.2C559.2,30.6,559.3,30.6,559.3,30.6"/>
			</g>
		</g>
	</g>
</g>
<g  class="" id="A3">
	<g>
		<g>
			<defs>
				<rect id="SVGID_19_" x="98.6" y="14" width="246.4" height="159.9"/>
			</defs>
			<clipPath id="SVGID_20_">
				<use xlink:href="#SVGID_19_"  style="overflow:visible;"/>
			</clipPath>
			<rect x="104" y="21" class="st32" width="235.6" height="145.9"/>
			<rect x="104" y="21" class="st33" width="235.6" height="145.9"/>
			<rect x="109" y="25.8" class="st34" width="225.5" height="136.3"/>
			<rect x="109" y="25.8" class="st33" width="225.5" height="136.3"/>
			<g class="st35">
				<defs>
					<rect id="SVGID_21_" x="98.6" y="14" width="246.4" height="159.9"/>
				</defs>
				<clipPath id="SVGID_22_">
					<use xlink:href="#SVGID_21_"  style="overflow:visible;"/>
				</clipPath>
				<path class="st36" d="M210.9,83.7c1.3-1.4,3.9-2,3.7-4.3h1.7c0.1-0.2,0.2-0.4,0.3-0.6c-1.1-0.4-2.2-0.8-3.6-1.3
					c-0.6-1.2-0.7-2.4,1.1-3.7c1.2-0.9,2.1-2.3,2.8-3.7c2-3.6,4.5-4.5,8.6-2.8c1.1,0.4,2.3,0.7,3.3,1.2c0.9,0.4,1.6,1.1,2.6,1.9
					c0.2-0.7,0.4-1.2,0.4-1.1c3.7-1.2,7-2.3,10.4-3.4v-4c3.2,1.3,5.6,0.1,6.6-3c0.4-1,1.2-2,2-2.9c0.9-1.1,2-2,3.3-3.2
					c6,1.3,6,1.3,5.8,4.6c2.6-0.5,5-1.4,7.4-1.4c1.5,0,3.1,1.1,5.4,2c0.7-0.7,1.6-2.2,3-2.9c1.2-0.6,3.1-0.6,4.6-0.4
					c4,0.5,8.8,2.1,11.8,0.2c3.6-2.3,6.4-0.7,9.5-0.7c3,0,3,0.1,3.7,2.7c-3.5,1.2-3.7,2.4-0.5,5.7c-1.8,1.6-3.7,3.1-5.3,4.9
					c-0.5,0.5-0.5,1.8,0,2.3c2.1,2.3,1.1,4.6,0.7,7c-0.3,0.1-0.7,0.2-1,0.3c-0.8-1.8-2.2-3.7-2.4-5.6c-0.2-1.9,0.6-3.9,0.2-6.1
					c-1.3,1.2-2.7,2.4-4.7,4.2c-3.4,0.2-4.6,1-5.6,4.3c-0.4,1.4-0.2,2.2,1.7,2.2c3.4,0,3.9,2.1,4.3,4.5c-0.5-0.5-1-1.1-1.7-1.8
					c0.2,3.1,0.5,5.9-3,7.8c-0.7,0.4-0.6,2.2-0.6,3.4c0,0.7,0.4,1.5,0.4,2.2c-4.8-3.9-5.2-4-6.7-1.9c0.7,0.2,1.4,0.4,1.9,0.5
					c0.4,2.3,1.6,4.9,0.9,6.9c-0.8,2-3.5,3.5-5.3,5.2c-0.7-0.3-1.3-0.6-1.9-0.8c0.1,0.7-0.1,1.6,0.3,2.1c2,2.6,2,2.7-0.8,4.4
					c-0.9-0.6-1.8-1.1-2.8-1.7c-0.3,0.1-0.6,0.2-0.9,0.3c1.5,3.1,2.9,6.2,4.4,9.4c-0.4,0.2-0.9,0.4-1.3,0.6
					c-1.7-1.9-3.4-3.9-5.7-6.5c1.5,0.5,2.2,0.8,3.1,1.1c-0.7-3.8-2.2-7.2-5.7-9.6c-0.6-0.4-2.5-0.5-3-0.1c-1.8,1.4-4.3,2.6-4.1,5.3
					c0,0.5-0.6,1.1-1.4,2.1c-1-1.7-2-2.9-2.5-4.2c-1.6-3.7-4.2-5.8-9.2-5.9c-2.4-0.1-4.7-1.2-7.2-1.9c1.1,1.3,1.4,3.2,4.4,2.3
					c0.5-0.2,1.9,0.7,2.2,1.3c0.2,0.6-0.2,1.8-0.8,2.1c-2.8,1.3-5.7,2.4-8.6,3.5c-1.5-2.7-3.1-5.5-4.6-8.2c-0.5,0.2-1,0.5-1.4,0.7
					c2,2.5,4.1,5,6.1,7.5c1.6,0.4,3.1,0.9,5.4,1.5c-1.4,1.5-2.7,3.3-4.4,4.7c-2.3,1.9-4.3,3.6-2.8,6.7c0.3,0.7,0.1,2.3-0.4,2.6
					c-3.2,1.6-3.1,4.9-5.1,7c-0.9,0.9-1.7,2-2.8,2.7c-2.7,1.8-5.4,1.1-6.6-1.6c-0.9-2.1-2.6-4.2-2.4-6.2c0.3-3.8,0.1-7.3-1.9-10.6
					c-0.2-0.3,0.1-0.9,0.2-2.1c-2.4-0.1-4.7-0.4-6.9-0.2c-4.1,0.4-7.1-0.9-9-4.1c-1-1.7,0.1-6.4,1.8-8c1-0.9,1.8-2,2.7-3
					c1.1-1.5,9.3-3.8,10.9-2.9c1.5,0.8,2.7,2.1,4.1,3c0.5,0.3,1.2,0.5,1.8,0.4c1.8,0,3.6-0.2,5.4-0.3c2-0.1,4.6,0.6,4.5-2
					c-2.5-1-4.7-1.9-7.1-2.9c0,0.1-0.2,0.7-0.6,1.7c-1.8-1.9-3.4-3.5-5-5.2c-0.2,0.2-0.5,0.3-0.7,0.5c0.8,1,1.6,1.9,2.5,2.9
					c-0.2,0.1-0.3,0.3-0.5,0.4c-0.9-0.6-1.8-1.1-2.7-1.7c-2.6-1.7-4.4-1.6-6.3,0.7c-0.5,0.6-0.7,1.6-1.3,1.8
					c-1.1,0.4-3.1,0.9-3.4,0.5c-0.9-1-1-2.4-1.5-3.7c5.3-1,5.3-1,3.5-3.6C209.1,84.8,210,84.3,210.9,83.7L210.9,83.7z M222.1,71.9
					c-0.3-0.1-0.7-0.3-1-0.4c-1.1,3.2-2.3,6.3-3.4,9.5c4.3,0.9,4-3.7,7.1-4.6C220.6,76.3,220.4,75.8,222.1,71.9 M234.7,89.8
					c-1.5-1.4-2.5-2.3-3.1-2.9c-1.2,0-2.1-0.2-2.8,0.1c-0.8,0.3-1.5,1-2,1.7c-0.1,0.1,0.7,1.2,1.1,1.2
					C229.9,89.8,231.8,89.8,234.7,89.8 M239.4,85.6c-0.6,0.8-1.7,1.9-1.6,2c1.6,1.4,0.6,4.4,4.4,4.9
					C241.2,90.1,240.4,88.1,239.4,85.6"/>
				<path class="st36" d="M161.1,99c-2.4-2.6-4.8-3.2-8.3-2.1c-2.1,0.7-3.4,4.7-1.5,5.6c1.2,0.6,3.3-0.2,5.1-0.4
					c-0.1,0.4-0.1,1.3-0.3,2.3c0.8,0.2,1.5,0.5,2.4,0.7c0.1,0.3,0.3,0.5,0.3,0.8c0.1,2.3,2.1,3.7,4,2.3c2.8-2,5.7-1.1,7.9-0.4
					c3.1,1,5.8,3.1,8.7,4.7c1.6,0.9,3.2,1.8,5,2.2c4.6,1.1,5,1.9,2.8,5.4c-0.4,0.7-0.6,1.6-0.7,2.4c-0.3,1.7-0.9,3.1-3.1,3.8
					c-1,0.3-1.6,1.5-2.4,2.4c-2.2,2.4-4.6,4.8-6.5,7.4c-1.2,1.6-2,3.6-2.3,5.5c-0.3,1.9,0.1,3.9,0.2,6.1c-2.6,0.3-5-1.7-5.1-5.3
					c-0.1-4.7-0.1-9.3,0.1-14c0.1-2.6,0-4.8-3.2-6.7c-3.8-2.3-4.1-6.1-2.2-9.9c0.6-1.3,1-2.3-1.7-2.8c-2.4-0.4-4.5-2.2-6.8-3.4
					c-0.7-0.4-1.5-0.6-2.3-0.8c-2.8-0.5-5.4-1.1-6.1-4.1c-0.2-1-1.4-1.8-2.5-3.1c-0.1,1-0.2,1.5-0.3,2.9c-0.4-0.8-0.5-1.1-0.6-1.3
					c-1.5-2.4-3.3-4.7-4.3-7.3c-0.7-1.8-0.9-4.1-0.2-5.9c1.4-3.6,0.5-6.9-0.9-10.1c-1-2.3-0.5-5.6-4.1-6.4c-1.8-0.4-4.1-0.1-5.9,0.4
					c-2,0.6-3.7,1.9-5.9,2.4c1-0.7,2.1-1.4,3.1-2c-3.3-4.4-3-5.2,1.8-7.2c-0.4-1-0.8-2-1.1-2.9c1-0.2,2-0.4,3.4-0.6
					c-1.4-3.4,2.2-3.8,5-4.7c1.8-0.6,3-0.2,4.6,0.9c2.8,1.9,5,4.5,9.7,4c1.9-0.2,4.2,2.1,6.3,3.3c0.9,0.5,1.7,1.2,2.8,1.4
					c-1.1-1.3-3.8-1.7-2-4.1c0.2-0.3-1.4-1.6-2.6-2.8c0.9-0.7,2-1.9,3.4-2.4c0.4-0.2,1.6,1.6,2.7,2.2c1.2,0.6,2.6,0.7,4.1,1
					c-0.6,1.7-1.4,3.9-2.3,6.5c0,0,1.4,0.5,1.6,0.2c1.2-1.5,4.5-2.7,1.6-5.2c1.5-2.7,4-0.7,6-1.4c-2.6,2.3-4.3,4.6-0.7,7.5
					c0-0.8,0.2-1.6,0-2.4c-0.7-1.9,0.1-3.4,1.9-3.9c1.7-0.4,4.1-0.4,5.1,1.6c1.2,2.4,2.7,4.8,3.8,7.2c0.2,0.4-0.8,1.2-1.8,1.4
					c-0.4,0.9-0.7,1.8-1.1,2.7c-1-0.4-2-0.8-3-1.3c-0.7-0.4-1.4-0.8-2.1-1.2c1.6-1.1,4.5-1.5,2.5-4.2c-1.1-1.4-1.9-1.6-3,0
					c-0.7,1-1.7,2-2.7,3.2c0.1,0.2,0.4,0.8,0.7,1.6c-0.6,0.1-1.2,0.3-1.6,0.2c-2.5-0.7-6.2,0.6-6.7,2.8c-0.2,0.9,0.6,2.2,1.4,3
					c1.4,1.5,3,2.8,4.8,4.3c0.8-1.9,1.7-4.1,2.8-6.3c0.4-0.8,1.3-1.4,1.9-2.1c0.8,0.8,1.7,1.5,2.4,2.3c0.2,0.2,0.2,0.7,0.3,1.3
					c0.9-0.2,1.6-0.5,2.5-0.7c1.4,3.2,2.8,6.4,4.2,9.6c-0.3,0.2-0.5,0.4-0.8,0.6c-0.8-0.7-1.7-1.3-2.5-2c0.2-0.2,0.4-0.4,0.7-0.6
					c-1.5,0.1-2.9,0.2-4.6,0.3c0.7,1.1,1.3,2.2,1.7,2.9c-2.1,1-4.5,1.7-6.4,3.1c-2.4,1.8-4.4,3.9-6.3,6.1
					C160.9,96.3,161.2,97.7,161.1,99"/>
				<path class="st36" d="M171.2,56.6c1,0.3,2.1,0.6,3.1,1c0,0.3-0.1,0.6-0.1,1c-1.4-0.1-3.2,0.1-4-0.5c-0.9-0.7-1-2.3-1.4-3.3
					c1.6-0.1,3-0.2,5-0.4c-2.5-2.4-2.5-4.7-0.2-5.8c2.9-1.4,6.3-2.2,9.6-2.6c1.3-0.2,3.2,1.1,4.4,2.2c1.7,1.5,4.2,1.7,6.2,0.5
					c3.3-2,5.8-2,8.4,1.2c-0.4,0.3-0.8,0.6-1.6,1.3c1.7,0.3,3,0.6,4.8,0.9c-4.6,4-3.8,9.4-6,13.9c-0.5,1.1-2.1,1.9-3.3,2.7
					c-1,0.6-2.4,0.9-3.3,1.6c-2.2,1.5-4.3,3.2-6.8,5.1c-1.9-0.6-4-3.8-2.8-6.1c1.4-2.6,0.5-5.1,1-7.7c0.3-1.7-0.2-3.3-2.9-3.6
					c-0.5-0.1-1.4-1.2-1.3-1.7c0.1-0.9,0.7-1.8,1.4-2.5c0.9-0.9,2.1-1.5,3.1-2.2c-0.3-0.3-0.5-0.6-0.8-0.9c-1.6,1.1-3.3,2.1-4.9,3.3
					c-2.2,1.7-4.2,3.7-7.9,1.9C171.1,56,171.2,56.3,171.2,56.6"/>
				<path class="st36" d="M280.5,134.4c-0.2-2.1-0.4-3.8-0.5-5.5c-0.1-1.8,0.7-3.1,3-3.7c1.2-0.3,2.3-1.3,3.4-1.9c2-1,4-2.2,6.2-3
					c0.5-0.2,1.7,0.6,2.4,1.1c0.8,0.6,1.3,1.4,2.3,2.6c0.7-1.6,1.1-2.6,1.7-3.9c1.9,3,3.9,5.7,5.3,8.6c1,2-2.5,8.1-5,9.1
					c-2,0.8-3.8,0.8-5-1.4c-2.1-3.8-4.1-4.4-8.7-3C284,133.9,282.3,134.1,280.5,134.4"/>
				<path class="st36" d="M292.8,114.2c2.1,0.3,4.3,0.4,6,1.1c1.8,0.7,3.2,2.1,4.6,3.4C294.3,116.3,294.2,116.2,292.8,114.2"/>
				<path class="st36" d="M288.6,93.8c3.4-2.6,6.8-5.3,4.2-10.1c1.7,0.5,2.3,0.7,2.3,0.7c0,2.4,0.2,4.5-0.1,6.6
					c-0.1,0.6-1.3,1.1-2.1,1.5c-1,0.6-2.1,1.1-3.2,1.7C289.4,94.1,289,93.9,288.6,93.8"/>
				<path class="st36" d="M284.2,110.3c-0.4,1.7-0.8,3.5-1.3,5.4c-1.4-0.3-2.7-0.2-3.2-0.6c-0.6-0.5-0.9-2-0.5-2.4
					c1.1-1.1,2.7-1.9,4.1-2.8C283.7,110.1,284,110.2,284.2,110.3"/>
				<path class="st36" d="M219.1,57.5c-0.8,0.5-1.6,0.9-2.7,1.5c-0.6-0.9-1.4-2-2.5-3.6c2.3-0.6,4.2-1.1,6.5-1.8
					C219.8,55.3,219.4,56.4,219.1,57.5"/>
				<path class="st36" d="M241,120.9c-0.5,2.4-0.6,4.9-3.3,6.7C236.1,124.5,236.8,123,241,120.9"/>
				<path class="st36" d="M156.7,51.9c1.3-0.4,2.3-0.8,3.4-1.2c0.5,1.4-0.6,3.7,2.6,2.9c0.1,0,0.6,0.8,0.6,1.2
					c-0.1,0.3-0.7,0.8-1.1,0.8c-1.8,0.1-4,0.7-4.2-2C157.9,53.1,157.2,52.7,156.7,51.9"/>
				<path class="st36" d="M239.3,57.2c-2.1,2.4-4.5,4.6-2.5,7.9c-0.3,0.1-0.5,0.2-0.8,0.4c-0.5-0.7-1.4-1.4-1.5-2.2
					C234.1,60,235.4,58.5,239.3,57.2"/>
				<path class="st36" d="M211,83.7c-1,0-2.1,0.1-3,0.1c-0.3-1.9-0.6-3.7-0.9-5.5c0.3-0.1,0.7-0.2,1-0.3C209,79.9,210,81.8,211,83.7
					L211,83.7"/>
				<path class="st36" d="M314.1,142.3c-1.7,1.3-3.4,2.6-5.1,4c-0.3-0.2-0.5-0.5-0.8-0.7c1.7-1.3,3.4-2.7,5-4
					C313.5,141.9,313.8,142.1,314.1,142.3"/>
				<path class="st36" d="M202.9,72.6c-1.1,0.2-2.3,0.7-3.4,0.6c-0.5,0-1-1.1-1.9-2.2c2.3,0.1,3.7,0.2,5.2,0.3
					C202.8,71.7,202.8,72.1,202.9,72.6"/>
				<path class="st36" d="M249.4,51.1c-2-0.2-4-0.4-3.9-3.6c1.8,1.1,3.2,2,4.5,2.9C249.8,50.7,249.6,50.9,249.4,51.1"/>
			</g>
		</g>
	</g>
</g>
<g  class="" id="A2">
	<g>
		<g>
			<defs>
				<rect id="SVGID_23_" x="345" y="17.9" width="228.4" height="185.3"/>
			</defs>
			<clipPath id="SVGID_24_">
				<use xlink:href="#SVGID_23_"  style="overflow:visible;"/>
			</clipPath>
			<rect x="490.6" y="128.7" class="st37" width="13.9" height="26.6"/>
			<rect x="490.6" y="128.7" class="st38" width="13.9" height="26.6"/>
			<rect x="413.9" y="128.7" class="st37" width="13.9" height="26.6"/>
			<rect x="413.9" y="128.7" class="st38" width="13.9" height="26.6"/>
			<rect x="385" y="123" class="st39" width="148.5" height="11.5"/>
			<rect x="385" y="123" class="st38" width="148.5" height="11.5"/>
			<rect x="392.4" y="96.4" class="st40" width="44.7" height="9.7"/>
			<rect x="392.4" y="96.4" class="st38" width="44.7" height="9.7"/>
			<rect x="393.5" y="106.1" class="st41" width="44.7" height="9.7"/>
			<rect x="393.5" y="106.1" class="st38" width="44.7" height="9.7"/>
			<rect x="390.6" y="115.7" class="st42" width="44.7" height="9.7"/>
			<rect x="390.6" y="115.7" class="st38" width="44.7" height="9.7"/>
			<rect x="391.8" y="67.4" class="st43" width="44.7" height="9.7"/>
			<rect x="391.8" y="67.4" class="st38" width="44.7" height="9.7"/>
			<rect x="392.9" y="77.1" class="st37" width="44.7" height="9.7"/>
			<rect x="392.9" y="77.1" class="st38" width="44.7" height="9.7"/>
			<rect x="386.1" y="86.7" class="st44" width="44.7" height="9.7"/>
			<rect x="386.1" y="86.7" class="st38" width="44.7" height="9.7"/>
			<rect x="445" y="65.7" transform="matrix(0.9488 -0.316 0.316 0.9488 -7.6814 147.0656)" class="st45" width="9.4" height="63"/>
			<rect x="445" y="65.7" transform="matrix(0.9488 -0.316 0.316 0.9488 -7.6814 147.0656)" class="st38" width="9.4" height="63"/>
		</g>
	</g>
</g>
<g  class="" id="A1">
	<g>
		<g>
			<defs>
				<rect id="SVGID_25_" x="131" y="155" width="218" height="199.4"/>
			</defs>
			<clipPath id="SVGID_26_">
				<use xlink:href="#SVGID_25_"  style="overflow:visible;"/>
			</clipPath>
			<g class="st46">
				<defs>
					<rect id="SVGID_27_" x="131" y="155" width="218" height="199.4"/>
				</defs>
				<clipPath id="SVGID_28_">
					<use xlink:href="#SVGID_27_"  style="overflow:visible;"/>
				</clipPath>
				<path class="st47" d="M334.9,293.7c-0.1,0.3-0.1,0.6-0.2,0.9c-0.5,1-1.1,1.8-2.2,2c-0.8,0.2-1.7,0.3-2.6,0.3
					c-6,0.1-12-0.2-17.9-1.3c-1.6-0.3-3.1-0.7-4.6-1.3c-0.9-0.4-1.8-0.9-2.5-1.6c-0.4-0.4-0.8-0.9-1.1-1.4c-0.4-0.7-0.4-1.5,0-2.3
					c0.6-1.5,1.6-2.8,2.9-3.8c0.4-0.3,0.8-0.7,1.2-1.1c-0.2-0.1-0.3-0.2-0.5-0.2c-1.8-0.5-3.6-0.8-5.4-0.8c-2.8-0.1-5.6,0.1-8.4,0.3
					c-3.5,0.3-6.9,0.5-10.4,0.9c-3.4,0.4-6.8,0.8-10.2,1.3c-6.7,1-13.4,1.9-20.1,2.5c-2.3,0.2-4.5,0.4-6.8,0.2
					c-2.3-0.2-4.3-1.1-5.7-3.1c-0.1-0.1-0.2-0.3-0.3-0.4c-1.9-2.6-4.5-3.9-7.6-4.3c-2.2-0.3-4.4-0.2-6.7-0.1c-2.5,0.2-5,0.4-7.5,0.6
					c-0.2,0-0.5,0.1-0.7,0.1c0,0.4,0.3,0.3,0.5,0.4c0.8,0.2,1.6,0.4,2.4,0.6c1.4,0.4,2.7,0.9,3.9,1.7c1.3,0.8,2,2,2.3,3.4
					c0.2,0.9,0.1,1.8,0,2.6c-0.1,1.1-0.3,2.3-0.4,3.4c0,0.2-0.1,0.3-0.1,0.5c0,0.7-0.1,1.3-0.4,2c-0.2,0.4-0.5,0.8-0.9,1.1
					c-4.2,2.9-9,4.4-14,5.2c-3.2,0.5-6.4,0.7-9.7,0.5c-4.4-0.2-8.7-1.3-12.8-3c-1.8-0.8-3.6-1.6-5.2-2.7c-0.1-0.1-0.2-0.2-0.3-0.2
					c-0.9-0.5-1.3-1.2-1.4-2.2c-0.1-0.9-0.2-1.9-0.3-2.8c0-0.2,0-0.4-0.1-0.7c-0.4-0.1-0.9-0.1-1.3-0.2c-1.5-0.3-3.1-0.6-4.6-1
					c-0.6-0.1-1.2-0.4-1.7-0.7c-0.4-0.2-0.8-0.5-1.2-0.8c-1-0.9-1.2-2.1-0.5-3.2c0.5-0.7,1.1-1.3,1.8-1.7c1.1-0.7,2.2-1.3,3.4-1.9
					c2.5-1.2,5.2-1.8,7.9-2.4c2.8-0.6,5.5-1.2,8.3-1.7c0.6-0.1,0.6-0.1,0.7-0.8c0-0.5,0.1-1,0.1-1.6c-0.5,0-0.8,0.1-1.2,0.1
					c-4.5,0.5-8.9,1-13.4,1.5c-0.3,0-0.6,0.1-0.9,0.2c-3.8,1.3-7.6,2.6-11.5,3.9c-3.5,1.2-6.9,2.5-10.1,4.3
					c-2.5,1.4-4.8,3.1-6.6,5.2c-0.6,0.7-1.1,1.4-1.6,2.2c-0.7,1.3-0.5,2.2,0.7,3.1c1.1,0.8,2.3,1.4,3.6,1.8c2.2,0.7,4.5,1.1,6.8,1.5
					c3.4,0.5,6.8,1,10.2,1.5c2.5,0.4,4.9,1,7.2,2.1c2.7,1.3,4.9,3,6.9,5.2c0.4,0.4,0.7,0.5,1.2,0.4c10.2-1.9,20.4-3.7,30.6-5.6
					c11.1-2,22.2-4,33.3-6.1c9.9-1.8,19.8-3.6,29.6-5.4c0.8-0.1,1.4-0.1,2.1,0.3c6.9,3.3,13.8,6.5,20.6,9.8c0.3,0.2,0.7,0.3,1,0.4
					c0.4,0.1,0.5,0.4,0.5,0.8c0,0.7,0,1.5-0.1,2.2c0,0.5-0.1,0.6-0.6,0.7c-2.2,0.5-4.4,1-6.6,1.5c-14.1,3.2-28.2,6.5-42.3,9.7
					c-13,3-26.1,6-39.1,9c-7.7,1.8-15.5,3.6-23.2,5.4c-0.1,0-0.1,0-0.2,0c-0.7,0.4-1.2,0.1-1.7-0.3c-6-4.7-12-9.4-18-14
					c-0.4-0.3-0.6-0.7-0.6-1.2c0-1.3-0.1-2.5-0.2-3.8c0-0.8,0-0.8,0.8-0.9c1.6-0.3,3.1-0.5,4.7-0.8c2.2-0.4,4.4-0.8,6.6-1.2
					c0.1,0,0.3-0.1,0.5-0.1c-0.2-0.2-0.4-0.4-0.6-0.6c-3.2-3.3-7-5.3-11.5-6.1c-3-0.5-6-0.9-8.9-1.4c-2.9-0.4-5.8-0.8-8.6-1.6
					c-1.3-0.4-2.6-0.8-3.7-1.5c-0.6-0.3-1.2-0.7-1.7-1.2c-1.1-1-1.4-2.2-0.8-3.6c0.2-0.6,0.5-1.1,0.9-1.6c1-1.4,2.1-2.5,3.4-3.6
					c2.7-2.3,5.7-4,9-5.4c3.4-1.5,7-2.6,10.6-3.8c0.6-0.2,1.1-0.4,1.7-0.6c0.1,0,0.3-0.1,0.4-0.3c-1.4,0.2-2.7,0.3-4.1,0.5
					c-4.1,0.4-8.1,0.9-12.2,1.3c-0.2,0-0.5,0-0.7-0.1c-0.7-0.3-1.4-0.6-2.1-0.9c-0.3-0.1-0.5-0.4-0.6-0.8c-0.3-3-0.6-5.9-0.9-8.9
					c-0.4-3.5-0.8-7-1.2-10.5c-0.4-3.5-0.8-7.1-1.2-10.6c-0.4-3.5-0.8-7-1.1-10.5c-0.4-3.5-0.8-7.1-1.2-10.6
					c-0.4-3.5-0.8-7-1.1-10.5c-0.4-3.5-0.8-7-1.2-10.5c-0.2-1.5-0.3-3-0.5-4.5c0-0.3-0.2-0.6-0.3-0.9v-0.3c0.4-0.6,0.8-1.2,1.2-1.8
					c0.1-0.2,0.3-0.4,0.4-0.6c0.2-0.2,0.4-0.3,0.8-0.3c14.7,0.2,29.5,0.3,44.2,0.5c5.4,0.1,10.8,0.1,16.3,0.2c0.2,0,0.4,0,0.7,0
					c0-0.2,0-0.5,0.1-0.7c0-1,0-2,0-3c0-0.6,0.1-0.7,0.6-0.8c5.9-1.9,11.8-3.7,17.6-5.6c8.8-2.8,17.7-5.6,26.5-8.4
					c0.7-0.2,1.3-0.3,2.1-0.2c1.9,0.3,3.8,0.5,5.7,0.7c3.9,0.5,7.8,1,11.7,1.4c3.9,0.5,7.7,0.9,11.6,1.4c1.3,0.2,2.6,0.3,3.9,0.5
					c0.8,0.1,0.9,0.2,0.9,1c0.1,3.3,0.3,6.6,0.4,9.9c0.3,7,0.6,13.9,0.8,20.9c0.3,6.7,0.5,13.5,0.8,20.2c0.3,6.9,0.6,13.8,0.8,20.7
					c0.3,6.7,0.5,13.4,0.8,20c0,0.5,0.1,1,0.1,1.5c0,0.5-0.1,0.7-0.6,0.8c-3.8,0.7-7.7,1.4-11.5,2.1c-6.7,1.2-13.5,2.5-20.2,3.7
					c-0.6,0.1-1.2,0.3-1.9,0.4c-0.2,0-0.5,0.1-0.7,0c-2-0.5-3.9-1.1-5.9-1.6c-11.2-2.8-22.4-5.6-33.6-8.4c-0.3-0.1-0.5-0.1-0.9-0.2
					c-0.1,2.1-0.2,4.2-0.3,6.4c0.2,0,0.5,0,0.7,0c2.4-0.2,4.8-0.4,7.2-0.6c2.4-0.2,4.7-0.3,7.1,0.1c3.4,0.5,6.2,1.9,8.3,4.7
					c0.1,0.2,0.3,0.3,0.4,0.5c1.2,1.7,2.9,2.5,4.9,2.6c2.2,0.2,4.5,0,6.7-0.2c7-0.6,14-1.5,20.9-2.6c4.6-0.7,9.2-1.2,13.8-1.5
					c3.3-0.3,6.7-0.5,10-0.7c2.8-0.2,5.5-0.2,8.3,0.3c0.9,0.2,1.8,0.5,2.7,0.8c0.3,0.1,0.6,0.1,0.9-0.1c1.8-1,3.8-1.5,5.9-1.5
					c5-0.1,9.5,1.2,13.7,3.9c2.1,1.4,3.8,3.1,5.1,5.3c0.3,0.5,0.4,1.1,0.6,1.6c0.1,0.2,0.1,0.4,0.1,0.7V293.7z M209.8,197.3
					c0.3,0,0.5,0,0.8,0c3.3,0,6.7,0.1,10,0.1c5.1,0.1,10.2,0.1,15.2,0.2c0.8,0,0.9,0.1,1,0.8c1.3,5.6,2.5,11.1,3.8,16.7
					c3,13,5.9,26,8.9,38.9c1,4.4,2,8.8,3,13.2c0.2,0.9,0.1,1.1-0.8,1.2c-4.1,0.5-8.2,0.9-12.3,1.4c-6.9,0.8-13.9,1.5-20.8,2.3
					c-0.2,0-0.5,0.1-0.7,0.1c-0.2,0.6,0.3,0.6,0.6,0.7c12.9,3.2,25.8,6.4,38.6,9.6c0.2,0.1,0.4,0.1,0.7,0.1
					c-1-34.4-2.1-68.7-3.1-103.1c-15.1,4.8-30,9.5-45,14.2V197.3z M147.5,197.6c0,0.8,9.6,79.6,9.9,80.2c0.1,0,0.2,0,0.3,0
					c31.2-3.5,62.4-6.9,93.6-10.4c0.1,0,0.1,0,0.2-0.1c0,0,0,0,0,0c0,0,0,0,0.1-0.1c-5.2-22.9-10.5-45.8-15.7-68.7
					C206.4,198.2,177,197.9,147.5,197.6 M258.8,282.8c11.1-2.1,22.2-4.1,33.3-6.2c-1.2-31-2.5-62-3.7-92.9
					c-10.9-1.3-21.8-2.7-32.7-4C256.8,214,257.8,248.3,258.8,282.8 M172.5,311.2c0.2,0.2,0.3,0.3,0.4,0.4
					c5.6,4.6,11.2,9.2,16.8,13.8c0.3,0.3,0.6,0.3,1,0.2c5.8-1.3,11.6-2.5,17.5-3.8c16.1-3.4,32.1-6.9,48.2-10.3
					c14.4-3.1,28.7-6.2,43.1-9.2c0.6-0.1,1.2-0.3,1.9-0.4c-0.3-0.2-0.5-0.3-0.7-0.3c-1-0.5-2-0.9-2.9-1.4
					c-5.8-2.7-11.5-5.4-17.3-8.2c-0.5-0.2-0.9-0.3-1.4-0.2c-0.8,0.2-1.6,0.3-2.5,0.5c-6.9,1.2-13.7,2.5-20.6,3.7
					c-6.9,1.2-13.7,2.5-20.6,3.7c-6.9,1.2-13.7,2.5-20.6,3.7c-6.9,1.3-13.8,2.5-20.7,3.8c-7,1.3-14,2.5-21.1,3.8
					C172.9,311.1,172.7,311.1,172.5,311.2 M216.9,272.2c-6.8,0.8-13.4,1.5-20.1,2.2c-0.1,0.9-0.1,1.7-0.2,2.6
					c-0.3,3.6-0.6,7.2-0.9,10.8c0,0.3,0.1,0.5,0.4,0.7c0.4,0.2,0.8,0.5,1.2,0.8c0.3,0.2,0.6,0.3,1,0.2c5.2-0.9,10.5-1.9,15.7-2.8
					c0.8-0.1,1.5-0.3,2.3-0.4C216.5,281.5,216.7,276.9,216.9,272.2 M193.3,284c-0.1,0-0.2,0-0.3,0c-2.1,0.5-4.1,1.1-6,2
					c-1.1,0.5-2.2,1.1-3.2,1.9c-0.6,0.5-1.1,1-1.4,1.6c-0.4,0.7-0.3,1.3,0.3,1.9c0.3,0.3,0.6,0.5,0.9,0.7c0.9,0.5,1.9,1,2.8,1.3
					c4.4,1.5,9,2.3,13.7,2.4c3.2,0.1,6.3-0.3,9.4-0.9c3.3-0.6,6.5-1.5,9.6-2.6c1.3-0.5,2.6-1.1,3.8-1.9c0.8-0.5,1.5-1.1,2-1.9
					c0.8-1.2,0.7-2.2-0.3-3.2c-0.4-0.4-1-0.8-1.5-1.1c-1.2-0.7-2.5-1.1-3.9-1.4c-0.6-0.1-1.1-0.3-1.8-0.4c0,0.4-0.1,0.7-0.1,1
					c0,1-0.1,1.9-0.1,2.9c0,0.6-0.1,0.7-0.7,0.8c-4.9,0.9-9.7,1.7-14.6,2.6c-1.4,0.2-2.8,0.5-4.2,0.7c-0.3,0-0.5,0.1-0.8-0.1
					c-0.4-0.3-0.9-0.6-1.3-1c-0.6-0.5-1.2-0.9-2.1-0.7c-0.4,0.1-0.6-0.2-0.7-0.6c0-0.2,0-0.3,0-0.5c0.1-1.1,0.2-2.2,0.2-3.3
					C193.4,284.2,193.3,284.1,193.3,284 M190.8,329.7c37.1-8.6,74.2-17.1,111.2-25.6v-1.4c-29.2,6.3-58.4,12.5-87.5,18.8
					c-8,1.7-15.9,3.4-23.9,5.2c0,0,0,0-0.1,0c0,0,0,0-0.1,0.1C190.6,327.7,190.7,328.6,190.8,329.7 M182.2,292.5
					c0.1,0.7,0.2,1.4,0.3,2.1c0,0.4,0.2,0.6,0.5,0.8c0.6,0.4,1.1,0.8,1.7,1.1c5.2,2.9,10.8,4.6,16.8,4.9c3.1,0.2,6.2,0,9.2-0.5
					c4.8-0.7,9.4-2.2,13.5-4.9c0.6-0.4,0.9-1,1-1.7c0.2-1,0.3-2,0.4-3c0.1-0.6,0.1-1.3,0.2-1.9c-0.1,0-0.1,0-0.1,0
					c-0.1,0.1-0.2,0.1-0.2,0.2c-0.7,0.8-1.5,1.5-2.5,2c-1.1,0.6-2.1,1.1-3.2,1.6c-2.9,1.2-6,1.9-9,2.6c-3.5,0.8-7.1,1.2-10.7,1.1
					c-3.6-0.1-7.2-0.6-10.7-1.5c-2.4-0.6-4.8-1.3-6.9-2.8C182.4,292.5,182.4,292.5,182.2,292.5 M322.8,287.3
					c0.3,0.8,0.3,1.5-0.1,2.1c-0.3,0.5-0.8,0.9-1.2,1.3c-0.8,0.6-1.7,0.8-2.6,1c-1.9,0.4-3.8,0.3-5.7,0.1c-2.3-0.2-4.5-0.5-6.8-0.7
					c-0.6-0.1-1.1-0.1-1.8-0.1c0.2,0.6,0.6,0.9,1,1.2c1,0.8,2.1,1.3,3.4,1.7c2.1,0.7,4.3,1.1,6.4,1.4c3,0.4,6,0.6,9.1,0.8
					c2.2,0.1,4.4,0.2,6.6-0.1c0.8-0.1,1.6-0.2,2.2-0.7c0.3-0.2,0.5-0.4,0.5-0.7c0.3-1.3,0.1-2.5-0.6-3.6c-1.4-2-3.2-3.7-5.3-5
					c-0.2-0.1-0.4-0.2-0.6-0.3C326.3,287.4,324.6,287.4,322.8,287.3 M181.3,289.7c0.4-1.2,1.2-2,2-2.6c0.5-0.4,1-0.7,1.5-1
					c2.2-1.3,4.7-2.2,7.2-2.8c0.5-0.1,1-0.2,1.5-0.4c0.1-1.6,0.3-3.1,0.3-4.7c-0.2,0-0.4,0-0.6,0.1c-1.7,0.3-3.4,0.7-5.1,1
					c-3,0.6-6,1.3-8.9,2.3c-1.7,0.6-3.3,1.3-4.8,2.3c-0.5,0.4-1,0.8-1.5,1.3c-0.8,0.9-0.7,1.6,0.3,2.3c0.4,0.3,0.9,0.6,1.4,0.7
					c1.2,0.4,2.4,0.7,3.6,1C179.3,289.5,180.3,289.6,181.3,289.7 M316.8,284.2c-0.2,0.7-0.7,1-1.3,1.3c-0.4,0.1-0.7,0.3-1.1,0.3
					c-1.8,0.3-3.6,0.1-5.3-0.7c-0.2-0.1-0.4-0.2-0.6-0.3c-0.9,0.7-1.8,1.4-2.4,2.3c-0.5,0.7-0.9,1.4-1.4,2.2
					c-0.1,0.2-0.1,0.5-0.2,0.8c1.3,0.1,2.6,0.3,3.8,0.4c2.3,0.2,4.6,0.5,7,0.7c1.4,0.1,2.8,0,4.1-0.3c0.9-0.2,1.7-0.6,2.3-1.2
					c0.9-0.9,0.9-1.7,0.1-2.6C320.4,285.7,318.7,284.9,316.8,284.2 M156.3,277.5l-9.6-78.5c-0.4,0.3-0.4,0.6-0.3,0.9
					c0.2,2.1,0.5,4.3,0.7,6.4c0.4,3.9,0.9,7.9,1.3,11.8c0.5,4.3,1,8.7,1.4,13c0.6,5.2,1.1,10.3,1.7,15.5c0.5,4.8,1.1,9.5,1.6,14.3
					c0.5,4.9,1.1,9.8,1.6,14.7c0.1,1,0.5,1.6,1.4,1.8C156.1,277.5,156.1,277.5,156.3,277.5 M171.7,311.8c0.1,1.1,0.1,1.9,0.1,2.8
					c0,0.4,0.1,0.7,0.5,1c5.6,4.4,11.2,8.7,16.8,13.1c0.2,0.1,0.4,0.3,0.6,0.5c-0.1-0.9-0.2-1.6-0.3-2.3c0-0.5-0.2-0.7-0.6-1
					c-5.6-4.5-11.1-9.1-16.6-13.6C172.1,312.2,172,312.1,171.7,311.8 M326.6,285.2c-2.1-1.5-8.5-3.1-10.4-2.6
					c0.3,0.6,0.7,0.9,1.4,1.2c1.6,0.5,3.1,1.3,4.3,2.4c0.1,0.1,0.3,0.3,0.5,0.3c0.9,0.2,1.8,0.2,2.7,0
					C325.8,286.3,326.3,286,326.6,285.2 M194.8,287.6c0.3-4.3,0.7-8.7,1-13.1c-0.3,0-0.5,0.1-0.8,0.1c-0.3,1.9-1.1,12.5-0.9,13.1
					c0.1,0,0.2,0,0.3,0C194.6,287.7,194.7,287.7,194.8,287.6 M309.4,284.3c0.2,0.1,0.3,0.2,0.4,0.2c1.5,0.5,2.9,0.7,4.5,0.4
					c0.3-0.1,0.7-0.2,1-0.3c0.7-0.3,0.7-0.8,0.1-1.2c-0.6-0.5-1.4-0.7-2.2-0.5c-1.1,0.2-2.2,0.6-3.3,1.1
					C309.8,284,309.6,284.1,309.4,284.3"/>
				<path class="st48" d="M209.8,197.3v-3.6c15-4.7,29.9-9.5,45-14.2c1,34.4,2.1,68.7,3.1,103.1c-0.3-0.1-0.5-0.1-0.7-0.1
					c-12.9-3.2-25.8-6.4-38.6-9.6c-0.3-0.1-0.7-0.1-0.6-0.7c0.2,0,0.5-0.1,0.7-0.1c6.9-0.8,13.9-1.5,20.8-2.3
					c4.1-0.5,8.2-0.9,12.3-1.4c1-0.1,1.1-0.2,0.8-1.2c-1-4.4-2-8.8-3-13.2c-3-13-5.9-26-8.9-38.9c-1.3-5.6-2.5-11.1-3.8-16.7
					c-0.2-0.7-0.2-0.7-1-0.8c-5.1-0.1-10.2-0.1-15.2-0.2c-3.3,0-6.7-0.1-10-0.1C210.3,197.3,210.1,197.3,209.8,197.3"/>
				<path class="st49" d="M147.5,197.6c29.4,0.3,58.9,0.6,88.3,0.9c5.3,23,10.5,45.9,15.7,68.7c0,0,0,0.1-0.1,0.1c0,0,0,0,0,0
					c-0.1,0-0.1,0.1-0.2,0.1c-31.2,3.5-62.4,6.9-93.6,10.4c-0.1,0-0.2,0-0.3,0C157.1,277.2,147.5,198.4,147.5,197.6 M193.4,201.7
					C193.4,201.7,193.4,201.7,193.4,201.7c-12.8,0-25.6,0.1-38.4,0.1c-0.3,0-0.6,0-1,0c-0.3,0-0.5,0.2-0.5,0.5c0,0.1,0,0.3,0,0.4
					c0.5,3.5,1,7.1,1.5,10.6c0.7,4.6,1.3,9.2,2,13.7c0.7,4.6,1.3,9.2,2,13.9c0.6,4.3,1.2,8.5,1.8,12.8c0.6,4.2,1.2,8.5,1.8,12.7
					c0.2,1.5,0.4,3.1,0.7,4.6c0.1,0.5,0.2,0.7,0.8,0.6c0.1,0,0.2,0,0.3,0c1.8-0.1,3.5-0.3,5.3-0.4c2.9-0.2,5.7-0.5,8.6-0.7
					c3.6-0.3,7.1-0.6,10.7-0.9c3.5-0.3,7-0.6,10.5-0.9c3.5-0.3,7.1-0.6,10.6-0.9c3.4-0.3,6.9-0.6,10.3-0.9c3.5-0.3,7.1-0.6,10.6-0.9
					c3.5-0.3,7.1-0.6,10.6-0.9c1.8-0.1,3.6-0.2,5.4-0.4c0.4,0,0.7-0.4,0.5-0.8c-0.1-0.3-0.2-0.6-0.3-0.9c-0.7-3-1.4-6-2.1-8.9
					c-2.9-12.5-5.8-24.9-8.8-37.4c-1.1-4.9-2.3-9.8-3.4-14.7c-0.1-0.5-0.2-0.6-0.8-0.6c-0.2,0-0.5,0-0.7,0
					C219,201.6,206.2,201.6,193.4,201.7"/>
				<path class="st50" d="M258.8,282.8c-1-34.4-2.1-68.8-3.1-103.1c10.9,1.3,21.8,2.7,32.7,4c1.2,31,2.5,61.9,3.7,92.9
					C281,278.6,270,280.7,258.8,282.8 M259.1,228.6c0.2,7.1,0.4,14.1,0.6,21.2c0.2,6.5,0.4,13.1,0.5,19.6c0,1.4,0.1,2.8,0.1,4.2
					c0,0.6,0.1,0.7,0.7,0.6c0,0,0.1,0,0.1,0c3.8-0.5,7.5-1,11.3-1.5c3.9-0.5,7.8-1.1,11.7-1.6c1.8-0.2,3.5-0.5,5.3-0.7
					c0.5-0.1,0.6-0.2,0.6-0.6c-0.1-3.1-0.2-6.2-0.3-9.3c-0.3-10.5-0.6-21.1-1-31.6c-0.2-7.1-0.4-14.2-0.6-21.3
					c-0.2-6.1-0.4-12.2-0.6-18.3c0-1-0.1-2.1-0.1-3.1c0-0.6-0.1-0.7-0.7-0.6c-0.2,0-0.4,0-0.5,0c-1.1-0.1-2.2-0.2-3.2-0.3
					c-3.6-0.3-7.2-0.7-10.8-1c-3.2-0.3-6.4-0.6-9.5-0.9c-1.4-0.1-2.8-0.3-4.3-0.4c-0.6-0.1-0.7,0.1-0.7,0.6c0,0.1,0,0.2,0,0.3
					c0.2,5.8,0.3,11.7,0.5,17.5C258.6,210.5,258.8,219.5,259.1,228.6"/>
				<path class="st51" d="M172.5,311.2c0.2-0.1,0.4-0.1,0.6-0.2c7-1.3,14-2.5,21.1-3.8c6.9-1.3,13.8-2.5,20.7-3.8
					c6.9-1.2,13.7-2.5,20.6-3.7c6.9-1.2,13.7-2.5,20.6-3.7c6.9-1.2,13.7-2.5,20.6-3.7c0.8-0.1,1.7-0.3,2.5-0.5
					c0.5-0.1,0.9-0.1,1.4,0.2c5.7,2.7,11.5,5.5,17.3,8.2c1,0.5,2,0.9,2.9,1.4c0.2,0.1,0.3,0.2,0.7,0.3c-0.7,0.2-1.3,0.3-1.9,0.4
					c-14.4,3.1-28.7,6.2-43.1,9.2c-16.1,3.4-32.1,6.9-48.2,10.3c-5.8,1.2-11.7,2.5-17.5,3.8c-0.4,0.1-0.7,0-1-0.2
					c-5.6-4.6-11.2-9.2-16.8-13.8C172.8,311.5,172.7,311.3,172.5,311.2 M190.6,323.1c0.2,0,0.3,0,0.5-0.1c3.3-0.7,6.7-1.3,10-2
					c10.2-2.1,20.4-4.1,30.6-6.2c10.4-2.1,20.8-4.2,31.2-6.3c11.4-2.3,22.8-4.6,34.2-6.9c0.2,0,0.4-0.1,0.6-0.1
					c0.4-0.2,0.4-0.6,0.1-0.8c-0.1-0.1-0.2-0.1-0.3-0.2c-5.5-2.5-11-5-16.6-7.6c-0.3-0.2-0.7-0.2-1.1-0.1c-1.1,0.2-2.1,0.4-3.2,0.6
					c-5.9,1.1-11.8,2.1-17.7,3.2c-5.9,1.1-11.8,2.1-17.7,3.2c-5.9,1.1-11.8,2.1-17.7,3.2c-5.9,1.1-11.8,2.1-17.7,3.2
					c-5.9,1.1-11.9,2.1-17.8,3.2c-3.3,0.6-6.6,1.2-9.8,1.8c-0.3,0-0.5,0.1-0.8,0.1c-0.2,0-0.4,0-0.5,0.2c-0.1,0.2,0.1,0.4,0.2,0.5
					c2.3,2,4.7,4,7,6c1.9,1.6,3.7,3.2,5.6,4.8C190.1,322.9,190.3,323.2,190.6,323.1"/>
				<path class="st50" d="M216.9,272.2c-0.2,4.7-0.4,9.3-0.6,14c-0.8,0.1-1.5,0.3-2.3,0.4c-5.2,0.9-10.5,1.9-15.7,2.8
					c-0.4,0.1-0.7,0-1-0.2c-0.4-0.3-0.8-0.5-1.2-0.8c-0.3-0.2-0.4-0.4-0.4-0.7c0.3-3.6,0.6-7.2,0.9-10.8c0.1-0.8,0.1-1.7,0.2-2.6
					C203.5,273.7,210.2,272.9,216.9,272.2"/>
				<path class="st49" d="M193.3,284c0,0.1,0,0.3,0,0.4c-0.1,1.1-0.2,2.2-0.2,3.3c0,0.2,0,0.3,0,0.5c0,0.4,0.2,0.7,0.7,0.6
					c0.9-0.2,1.5,0.2,2.1,0.7c0.4,0.3,0.9,0.6,1.3,1c0.2,0.2,0.5,0.2,0.8,0.1c1.4-0.2,2.8-0.5,4.2-0.7c4.9-0.9,9.7-1.7,14.6-2.6
					c0.5-0.1,0.6-0.2,0.7-0.8c0-1,0.1-1.9,0.1-2.9c0-0.3,0-0.6,0.1-1c0.6,0.1,1.2,0.3,1.8,0.4c1.4,0.3,2.7,0.7,3.9,1.4
					c0.5,0.3,1.1,0.7,1.5,1.1c1,1,1.1,2,0.3,3.2c-0.5,0.8-1.2,1.4-2,1.9c-1.2,0.8-2.5,1.4-3.8,1.9c-3.1,1.2-6.4,2-9.6,2.6
					c-3.1,0.6-6.2,1-9.4,0.9c-4.7-0.1-9.2-0.8-13.7-2.4c-1-0.3-1.9-0.8-2.8-1.3c-0.3-0.2-0.6-0.4-0.9-0.7c-0.6-0.6-0.7-1.2-0.3-1.9
					c0.3-0.7,0.9-1.2,1.4-1.6c1-0.8,2.1-1.4,3.2-1.9c1.9-0.9,3.9-1.5,6-2C193.1,284,193.2,284,193.3,284"/>
				<path class="st49" d="M190.8,329.7c-0.1-1.1-0.2-2-0.3-2.9c0-0.1,0-0.1,0.1-0.1c0,0,0,0,0.1,0c8-1.7,15.9-3.5,23.9-5.2
					c29.2-6.3,58.3-12.5,87.5-18.8v1.4C265,312.6,228,321.1,190.8,329.7"/>
				<path class="st50" d="M182.2,292.5c0.1,0,0.2,0,0.2,0c2.1,1.5,4.5,2.2,6.9,2.8c3.5,0.9,7.1,1.4,10.7,1.5
					c3.6,0.1,7.1-0.3,10.7-1.1c3.1-0.7,6.1-1.4,9-2.6c1.1-0.4,2.2-1,3.2-1.6c0.9-0.5,1.8-1.2,2.5-2c0.1-0.1,0.2-0.2,0.2-0.2
					c0,0,0,0,0.1,0c-0.1,0.6-0.1,1.3-0.2,1.9c-0.1,1-0.2,2-0.4,3c-0.1,0.7-0.4,1.3-1,1.7c-4.1,2.7-8.7,4.2-13.5,4.9
					c-3.1,0.5-6.1,0.7-9.2,0.5c-6-0.3-11.6-2-16.8-4.9c-0.6-0.3-1.1-0.7-1.7-1.1c-0.3-0.2-0.5-0.5-0.5-0.8
					C182.5,293.9,182.3,293.2,182.2,292.5"/>
				<path class="st49" d="M322.8,287.3c1.8,0.1,3.5,0.1,4.5-1.8c0.2,0.1,0.4,0.2,0.6,0.3c2.1,1.3,3.9,3,5.3,5c0.8,1.1,1,2.3,0.6,3.6
					c-0.1,0.3-0.3,0.6-0.5,0.7c-0.7,0.5-1.4,0.6-2.2,0.7c-2.2,0.2-4.4,0.1-6.6,0.1c-3-0.1-6.1-0.3-9.1-0.8c-2.2-0.3-4.3-0.7-6.4-1.4
					c-1.2-0.4-2.4-0.9-3.4-1.7c-0.4-0.3-0.7-0.6-1-1.2c0.7,0,1.2,0.1,1.8,0.1c2.3,0.2,4.5,0.5,6.8,0.7c1.9,0.2,3.8,0.3,5.7-0.1
					c0.9-0.2,1.9-0.4,2.6-1c0.5-0.4,0.9-0.8,1.2-1.3C323.1,288.8,323.1,288.1,322.8,287.3"/>
				<path class="st51" d="M316.8,284.2c1.9,0.6,3.6,1.4,5,2.8c0.9,0.9,0.8,1.7-0.1,2.6c-0.7,0.6-1.5,1-2.3,1.2
					c-1.4,0.3-2.7,0.4-4.1,0.3c-2.3-0.2-4.6-0.4-7-0.7c-1.2-0.1-2.5-0.3-3.8-0.4c0.1-0.3,0.1-0.6,0.2-0.8c0.4-0.7,0.9-1.5,1.4-2.2
					c0.7-0.9,1.5-1.6,2.4-2.3c0.2,0.1,0.4,0.2,0.6,0.3c1.7,0.7,3.5,1,5.3,0.7c0.4-0.1,0.7-0.2,1.1-0.3
					C316.1,285.3,316.5,284.9,316.8,284.2"/>
				<path class="st50" d="M156.3,277.5c-0.2,0-0.2,0-0.3,0c-0.9-0.2-1.3-0.7-1.4-1.8c-0.5-4.9-1-9.8-1.6-14.7
					c-0.5-4.8-1.1-9.5-1.6-14.3c-0.6-5.2-1.1-10.3-1.7-15.5c-0.5-4.3-1-8.7-1.4-13c-0.4-3.9-0.9-7.9-1.3-11.8
					c-0.2-2.1-0.5-4.3-0.7-6.4c0-0.3-0.1-0.6,0.3-0.9L156.3,277.5z"/>
				<path class="st49" d="M171.7,311.8c0.3,0.2,0.5,0.4,0.7,0.5c5.5,4.5,11.1,9.1,16.6,13.6c0.3,0.3,0.5,0.6,0.6,1
					c0,0.7,0.2,1.5,0.3,2.3c-0.3-0.2-0.5-0.3-0.6-0.5c-5.6-4.4-11.2-8.8-16.8-13.1c-0.4-0.3-0.5-0.6-0.5-1
					C171.8,313.8,171.7,312.9,171.7,311.8"/>
				<path class="st51" d="M326.6,285.2c-0.3,0.7-0.8,1.1-1.5,1.3c-0.9,0.3-1.8,0.2-2.7,0c-0.2,0-0.4-0.2-0.5-0.3
					c-1.3-1.1-2.7-1.9-4.3-2.4c-0.7-0.2-1.1-0.6-1.4-1.2C318,282.2,324.4,283.7,326.6,285.2"/>
				<path class="st48" d="M194.8,287.6c-0.1,0-0.2,0.1-0.3,0.1c-0.1,0-0.2,0-0.3,0c-0.1-0.6,0.6-11.2,0.9-13.1c0.2,0,0.4,0,0.8-0.1
					C195.5,279,195.2,283.3,194.8,287.6"/>
				<path class="st50" d="M309.4,284.3c0.2-0.1,0.4-0.3,0.6-0.3c1-0.6,2.1-0.9,3.3-1.1c0.8-0.2,1.5,0.1,2.2,0.5
					c0.6,0.4,0.5,0.9-0.1,1.2c-0.3,0.1-0.6,0.2-1,0.3c-1.5,0.3-3,0.1-4.5-0.4C309.7,284.4,309.6,284.4,309.4,284.3"/>
				<path class="st47" d="M193.4,201.7c12.8,0,25.5-0.1,38.3-0.1c0.2,0,0.5,0,0.7,0c0.6,0,0.7,0.1,0.8,0.6c1.1,4.9,2.3,9.8,3.4,14.7
					c2.9,12.5,5.8,24.9,8.8,37.4c0.7,3,1.4,6,2.1,8.9c0.1,0.3,0.2,0.6,0.3,0.9c0.1,0.4-0.1,0.8-0.5,0.8c-1.8,0.1-3.6,0.2-5.4,0.4
					c-3.5,0.3-7.1,0.6-10.6,0.9c-3.5,0.3-7.1,0.6-10.6,0.9c-3.4,0.3-6.9,0.6-10.3,0.9c-3.5,0.3-7.1,0.6-10.6,0.9
					c-3.5,0.3-7,0.6-10.5,0.9c-3.6,0.3-7.1,0.6-10.7,0.9c-2.9,0.2-5.7,0.5-8.6,0.7c-1.8,0.1-3.5,0.3-5.3,0.4c-0.1,0-0.2,0-0.3,0
					c-0.5,0-0.7-0.1-0.8-0.6c-0.2-1.5-0.5-3.1-0.7-4.6c-0.6-4.2-1.2-8.5-1.8-12.7c-0.6-4.3-1.2-8.5-1.8-12.8
					c-0.7-4.6-1.3-9.2-2-13.9c-0.7-4.6-1.3-9.2-2-13.7c-0.5-3.5-1-7.1-1.5-10.6c0-0.1-0.1-0.3,0-0.4c0-0.3,0.2-0.5,0.5-0.5
					c0.3,0,0.6,0,1,0C167.9,201.8,180.7,201.7,193.4,201.7C193.4,201.7,193.4,201.7,193.4,201.7 M221.3,212.6c0,0,0.1,0.1,0.1,0.1
					c-0.1,0.1-0.1,0.2-0.2,0.4c-1,1.9-2,3.7-3.1,5.6c-6.9,12-14.1,23.8-21.5,35.5c-3,4.7-6,9.3-9,13.9c-0.1,0.2-0.3,0.4-0.5,0.8
					c0.4,0,0.7,0,0.9-0.1c0.7-0.1,1.5-0.1,2.2-0.2c4.1-0.3,8.2-0.7,12.3-1c4.6-0.4,9.1-0.8,13.7-1.1c0.6,0,0.9-0.2,1.2-0.7
					c4.5-8,9.1-15.9,13.5-23.9c2.4-4.3,4.6-8.8,6.9-13.2c0.2-0.5,0.4-0.9,0.2-1.4c-1.9-8-3.8-16.1-5.7-24.1c0-0.2-0.1-0.3-0.2-0.5
					c-1.2-0.1-77.2,0.2-77.6,0.3c0.1,0.9,9.5,67.3,9.8,67.9c0.1,0,0.3,0,0.5,0c3.4-0.3,6.8-0.6,10.2-0.9c3.5-0.3,7-0.6,10.6-0.9
					c0.6,0,0.9-0.2,1.2-0.7c7.4-11.3,14.7-22.7,21.6-34.4c4.2-6.9,8.3-13.9,12.4-20.8C221.1,212.9,221.2,212.8,221.3,212.6
					 M238.5,228.9c-0.1,0-0.1,0-0.2,0c-0.3,0.7-0.7,1.4-1,2.1c-3.6,7.3-7.6,14.4-11.7,21.5c-2.5,4.3-5,8.7-7.5,13
					c-0.1,0.2-0.3,0.4-0.3,0.8c0.4,0,0.7,0,1-0.1c0.8-0.1,1.7-0.1,2.5-0.2c2.1-0.2,4.2-0.4,6.4-0.5c0.4,0,0.7-0.2,0.9-0.5
					c0.2-0.3,0.3-0.6,0.5-0.9c4.1-6.8,8.2-13.7,12.3-20.5c0.3-0.5,0.4-0.9,0.2-1.4c-1-4-1.9-8-2.8-12
					C238.7,229.7,238.6,229.3,238.5,228.9 M241.9,243.5c-4.4,7.3-8.8,14.5-13.1,21.7c0.1,0,0.1,0.1,0.2,0.1c0.8,0,1.5-0.1,2.3-0.2
					c0.2,0,0.3-0.2,0.5-0.3c0.1-0.2,0.2-0.4,0.4-0.6c3.1-5,6.1-9.9,9.2-14.9c0.2-0.3,0.4-0.5,0.6-0.8c0,0,0.1,0,0.1,0.1
					c-0.1,0.2-0.2,0.4-0.3,0.6c-0.5,0.9-1,1.8-1.5,2.7c-2.5,4.1-5,8.2-7.4,12.3c-0.1,0.2-0.3,0.4-0.4,0.8c4.9-0.4,9.6-0.8,14.4-1.2
					C245.1,257,243.5,250.3,241.9,243.5"/>
				<path class="st47" d="M259.1,228.6c-0.3-9.1-0.5-18.2-0.8-27.3c-0.2-5.8-0.3-11.7-0.5-17.5c0-0.1,0-0.2,0-0.3
					c0-0.6,0.1-0.7,0.7-0.6c1.4,0.1,2.8,0.3,4.3,0.4c3.2,0.3,6.4,0.6,9.5,0.9c3.6,0.3,7.2,0.7,10.8,1c1.1,0.1,2.2,0.2,3.2,0.3
					c0.2,0,0.4,0,0.5,0c0.6,0,0.6,0,0.7,0.6c0,1,0.1,2.1,0.1,3.1c0.2,6.1,0.4,12.2,0.6,18.3c0.2,7.1,0.4,14.2,0.6,21.3
					c0.3,10.5,0.6,21.1,1,31.6c0.1,3.1,0.2,6.2,0.3,9.3c0,0.5,0,0.6-0.6,0.6c-1.8,0.2-3.5,0.5-5.3,0.7c-3.9,0.5-7.8,1.1-11.7,1.6
					c-3.8,0.5-7.5,1-11.3,1.5c0,0-0.1,0-0.1,0c-0.6,0.1-0.7,0-0.7-0.6c0-1.4-0.1-2.8-0.1-4.2c-0.2-6.5-0.4-13.1-0.5-19.6
					C259.5,242.8,259.3,235.7,259.1,228.6 M261.1,273.5c9.5-1.3,18.9-2.6,28.3-3.8c-0.3-8.9-0.5-17.8-0.8-26.7c-9.5,1-18.8,2-28.3,3
					C260.6,255.2,260.8,264.3,261.1,273.5 M288,225.8c-9.5,0.2-18.8,0.5-28.3,0.7c0.2,6.3,0.3,12.5,0.5,18.8c9.5-1,18.8-2,28.3-3
					C288.4,236.8,288.2,231.4,288,225.8 M259.1,204.7c9.5,0.2,18.8,0.4,28.3,0.6c-0.1-3.5-0.2-6.8-0.3-10.3
					c-9.4-0.5-18.8-1.1-28.3-1.6C258.9,197.3,259,201,259.1,204.7 M287.4,206.1c-9.5-0.2-18.8-0.4-28.3-0.6c0.1,3.4,0.2,6.7,0.3,10
					c1.1,0.1,27.7-0.3,28.3-0.4C287.6,212.1,287.5,209.2,287.4,206.1 M259.7,225.7c0.9,0.1,27.8-0.6,28.3-0.7c-0.1-3-0.2-6-0.3-9.1
					c-9.5,0.1-18.8,0.3-28.3,0.4C259.6,219.5,259.6,222.6,259.7,225.7 M284.5,186.1c0,0.3-0.1,0.4-0.1,0.6c-0.2,1.2-0.3,2.3-0.4,3.5
					c-0.1,0.8-0.1,0.8-0.9,0.8c-1.7-0.1-3.4-0.3-5.1-0.4c-3.9-0.3-7.7-0.6-11.6-0.9c-1.4-0.1-2.7-0.2-4.1-0.2
					c-0.3,0-0.4-0.2-0.4-0.5c0-0.6-0.1-1.2-0.1-1.8c-0.1-1.1-0.2-2.2-0.3-3.3c-1-0.1-1.9-0.2-2.8-0.3c-0.1,0.8,0.1,8.6,0.3,9.2
					c9.4,0.5,18.7,1.1,28.2,1.6c-0.1-2.7-0.2-5.4-0.2-8.1c-0.6-0.1-1.1-0.1-1.6-0.2C285,186.2,284.8,186.1,284.5,186.1 M262.5,188.7
					c6.9,0.5,13.8,1.1,20.7,1.6c0.2-1.5,0.4-2.8,0.6-4.3c-7.2-0.7-14.4-1.4-21.6-2C262.3,185.6,262.4,187.1,262.5,188.7"/>
				<path class="st47" d="M190.6,323.1c-0.3,0.1-0.5-0.2-0.8-0.4c-1.9-1.6-3.7-3.2-5.6-4.8c-2.3-2-4.7-4-7-6
					c-0.2-0.1-0.3-0.3-0.2-0.5c0.1-0.2,0.3-0.2,0.5-0.2c0.3,0,0.5-0.1,0.8-0.1c3.3-0.6,6.6-1.2,9.8-1.8c5.9-1.1,11.9-2.1,17.8-3.2
					c5.9-1.1,11.8-2.1,17.7-3.2c5.9-1.1,11.8-2.1,17.7-3.2c5.9-1.1,11.8-2.1,17.7-3.2c5.9-1.1,11.8-2.1,17.7-3.2
					c1.1-0.2,2.1-0.4,3.2-0.6c0.4-0.1,0.7,0,1.1,0.1c5.5,2.5,11,5,16.6,7.6c0.1,0,0.2,0.1,0.3,0.2c0.3,0.2,0.3,0.6-0.1,0.8
					c-0.2,0.1-0.4,0.1-0.6,0.1c-11.4,2.3-22.8,4.6-34.2,6.9c-10.4,2.1-20.8,4.2-31.2,6.3c-10.2,2.1-20.4,4.1-30.6,6.2
					c-3.3,0.7-6.7,1.3-10,2C190.9,323.1,190.8,323.1,190.6,323.1 M260.2,308.3c2.1-0.4,4.1-0.8,6.3-1.3c-0.2-0.3-0.3-0.4-0.5-0.6
					c-0.3-0.3-0.5-0.6-0.8-0.9c-0.4-0.5-0.3-0.8,0.2-1.1c0.5-0.2,1.1-0.4,1.6-0.5c0.2-0.1,0.3-0.1,0.6-0.2c-0.2-0.4-0.4-0.7-0.6-1
					c-0.3-0.5-0.2-0.8,0.3-1.1c0.5-0.2,1-0.4,1.5-0.5c0.6-0.2,1.1,0,1.6,0.5c0.3,0.3,0.5,0.7,0.7,0.9c0.9-0.3,1.7-0.5,2.6-0.7
					c0.8-0.2,1.3,0.1,1.7,0.8c0.5,0.8,1,1.6,1.5,2.3c0.7,0,2.6-0.4,3.2-0.7c-0.2-0.2-0.4-0.3-0.6-0.5c-2.7-2.7-5.5-5.3-8.2-8
					c-0.4-0.3-0.7-0.4-1.1-0.4c-4.9,0.9-9.8,1.8-14.8,2.7c-0.7,0.1-1.4,0.3-2.2,0.4C256,301.4,258.3,304.7,260.2,308.3 M216.1,317.2
					c10.4-2.1,20.7-4.2,31.1-6.3c-0.5-0.7-1-1.3-1.4-2c-0.3-0.5-0.7-0.5-1.2-0.4c-3.4,0.9-7,1.5-10.5,2c-4.6,0.6-9.2,1.4-13.7,2.5
					c-1.6,0.4-3.2,0.8-4.7,1.3c-0.3,0.1-0.7,0.2-0.9,0.5C215.3,315.6,215.7,316.4,216.1,317.2 M277.9,296.8c-1.1-0.8-2-1.5-2.9-2.2
					c-0.1-0.1-0.3-0.1-0.5-0.1c-0.9,0.2-1.8,0.3-2.7,0.5c0,0,0,0.1-0.1,0.1c0.1,0.1,0.2,0.3,0.4,0.4c2.8,2.7,5.7,5.5,8.5,8.2
					c0.3,0.3,0.6,0.4,1,0.3c1.3-0.3,2.7-0.5,4-0.8c0.1,0,0.3-0.1,0.6-0.2c-0.2-0.2-0.4-0.3-0.5-0.4c-1.1-0.8-2.1-1.7-3.2-2.6
					c-0.3-0.3-0.6-0.3-1-0.1c-0.8,0.3-1.5,0.6-2.3,0.8c-0.2,0.1-0.4,0.2-0.6-0.2c0.2-0.1,0.4-0.3,0.6-0.4c0.6-0.3,1.2-0.5,1.7-0.8
					c0.1-0.1,0.3-0.2,0.4-0.3c-0.8-0.6-1.5-1.1-2.2-1.6c-0.3-0.3-0.6-0.3-1-0.2c-0.7,0.2-1.4,0.4-2.1,0.6c-0.1,0-0.3,0.1-0.4,0.1
					c-0.1,0-0.2-0.1-0.3-0.2c0-0.1,0-0.3,0.1-0.3c0.2-0.1,0.3-0.2,0.5-0.3C276.5,297.2,277.1,297,277.9,296.8 M285.6,297.9
					c0.3,0.3,0.5,0.6,0.7,0.8c1.2,1.1,2.5,2.1,3.7,3.2c0.3,0.3,0.6,0.3,1,0.3c1.7-0.4,3.4-0.7,5.1-1c0.1,0,0.3-0.1,0.5-0.2
					c-0.3-0.1-0.5-0.3-0.7-0.3c-1.9-0.9-3.8-1.7-5.7-2.6c-1.6-0.7-3.1-1.4-4.7-2.1c-0.3-0.1-0.6-0.3-0.9-0.2
					c-0.5,0.1-0.9,0.4-1.5,0.6C284,296.8,284.7,297.7,285.6,297.9 M258.5,306.6c-0.1-0.3-0.2-0.4-0.3-0.6c-0.8-1.1-1.5-2.3-2.3-3.4
					c-0.3-0.4-0.6-0.5-1.1-0.4c-1.3,0.3-2.6,0.5-3.9,0.7c-0.4,0.1-0.9,0.2-1.4,0.3c0.1,0.2,0.2,0.4,0.3,0.5c0.8,1.1,1.7,2.3,2.4,3.4
					c0.3,0.4,0.5,0.5,1,0.4c1.1-0.2,2.2-0.3,3.3-0.5C257.1,306.9,257.8,306.8,258.5,306.6 M265.7,305c0.5,0.5,0.8,0.9,1.1,1.3
					c0.3,0.4,0.6,0.5,1.1,0.4c2.5-0.5,5.1-1,7.6-1.5c0.2,0,0.4-0.1,0.7-0.2c-0.5-0.9-1-1.6-1.5-2.4c-0.2-0.2-0.4-0.3-0.6-0.3
					c-0.8,0.1-1.5,0.3-2.2,0.7c-0.7,0.4-0.8,0.3-1.4-0.3c-0.2-0.3-0.4-0.5-0.7-0.8c-0.1-0.1-0.3-0.3-0.5-0.3
					c-0.6,0.1-1.2,0.2-1.7,0.6c0.2,0.4,0.4,0.7,0.6,1.1c0.3,0.7,0.2,0.9-0.6,1.1C267,304.6,266.4,304.8,265.7,305 M195.2,317
					c-0.1-0.1-0.1-0.2-0.1-0.2c-1.2-1.2-2.3-2.4-3.5-3.6c-0.2-0.2-0.4-0.2-0.7-0.2c-1.4,0.3-2.9,0.5-4.4,0.7c-0.1,0-0.2,0.1-0.3,0.1
					c0.1,0.1,0.1,0.2,0.2,0.3c1.3,1.2,2.6,2.5,3.9,3.7c0.2,0.2,0.4,0.3,0.7,0.2c1.3-0.3,2.6-0.6,3.9-0.9
					C195,317.1,195.1,317.1,195.2,317 M202.2,311.1c0.1,0.2,0.1,0.2,0.2,0.3c1,1.1,2,2.2,3.1,3.3c0.2,0.2,0.4,0.3,0.7,0.2
					c1.6-0.3,3.2-0.6,4.9-0.9c0.1,0,0.2-0.1,0.4-0.2c-1.3-1.2-2.4-2.3-3.7-3.4c-0.1-0.1-0.4-0.1-0.6-0.1c-0.8,0.1-1.6,0.3-2.3,0.4
					C204,310.8,203.1,310.9,202.2,311.1 M217.5,312.8c-0.1-0.2-0.2-0.3-0.3-0.5c-0.9-1-1.8-1.9-2.6-2.9c-0.3-0.3-0.6-0.4-1-0.3
					c-1.5,0.3-3,0.5-4.6,0.8c-0.2,0-0.3,0.1-0.6,0.1c0.1,0.1,0.2,0.2,0.2,0.3c1.1,1,2.2,2,3.2,3.1c0.2,0.2,0.5,0.3,0.8,0.2
					c1.1-0.2,2.1-0.4,3.2-0.6C216.4,313,216.9,312.9,217.5,312.8 M226.3,307c0.1,0.2,0.2,0.4,0.3,0.5c0.7,0.9,1.4,1.8,2,2.7
					c0.3,0.4,0.5,0.5,1,0.4c1.6-0.3,3.2-0.5,4.8-0.7c0.2,0,0.4-0.1,0.6-0.2c-0.2-0.2-0.3-0.4-0.4-0.5c-0.7-0.8-1.5-1.5-2.1-2.4
					c-0.5-0.6-1-0.8-1.8-0.6C229.3,306.5,227.8,306.7,226.3,307 M251.8,307.6c0-0.1,0-0.1,0-0.2c-0.9-1.3-1.9-2.6-2.8-3.9
					c-0.2-0.3-0.4-0.3-0.7-0.2c-1.3,0.2-2.6,0.4-4,0.7c-0.1,0-0.3,0.1-0.4,0.1c0,0.1,0,0.1,0.1,0.2c0.9,1.2,1.9,2.5,2.8,3.7
					c0.2,0.2,0.4,0.3,0.6,0.2c1.3-0.2,2.7-0.4,4-0.6C251.6,307.7,251.7,307.6,251.8,307.6 M223.2,311.8c0-0.1,0-0.1,0.1-0.2
					c-0.9-1.1-1.8-2.1-2.8-3.2c-0.3-0.3-0.5-0.4-0.9-0.3c-1.4,0.3-2.9,0.5-4.3,0.7c-0.1,0-0.2,0.1-0.3,0.1c0,0.1,0,0.1,0.1,0.2
					c1,1.1,1.9,2.2,2.9,3.3c0.2,0.2,0.4,0.3,0.7,0.2c0.6-0.1,1.2-0.2,1.7-0.3C221.4,312.2,222.3,312,223.2,311.8 M232.7,306
					C232.7,306,232.7,306.1,232.7,306c1,1.2,2,2.3,3,3.4c0.2,0.2,0.4,0.2,0.6,0.2c1.3-0.2,2.7-0.5,4-0.7c0.1,0,0.3-0.1,0.4-0.1
					c0-0.1,0-0.1,0-0.2c-0.8-1.1-1.7-2.2-2.5-3.3c-0.2-0.2-0.3-0.3-0.6-0.2c-1.6,0.3-3.1,0.5-4.7,0.8
					C232.8,305.9,232.7,306,232.7,306 M214.9,317.5c-0.2-0.2-0.2-0.3-0.3-0.4c-0.7-0.7-1.5-1.5-2.2-2.2c-0.3-0.3-0.6-0.4-1-0.3
					c-1,0.2-2.1,0.4-3.1,0.6c-0.6,0.1-1.3,0.2-1.9,0.4c0,0.1,0.1,0.2,0.1,0.2c0.8,0.9,1.6,1.8,2.4,2.7c0.2,0.2,0.4,0.2,0.6,0.2
					C211.3,318.2,213,317.9,214.9,317.5 M255,301.5c-0.1-0.2-0.2-0.3-0.3-0.5c-0.6-0.7-1.3-1.5-1.9-2.2c-0.3-0.3-0.5-0.3-0.9-0.3
					c-1.6,0.3-3.2,0.6-4.7,0.9c-0.1,0-0.2,0.1-0.4,0.1c0.1,0.2,0.2,0.3,0.2,0.4c0.6,0.7,1.1,1.4,1.7,2.1c0.2,0.3,0.5,0.4,0.9,0.4
					c1.7-0.3,3.4-0.6,5.1-0.8C254.7,301.6,254.8,301.6,255,301.5 M204.9,315.1c-0.1-0.1-0.1-0.2-0.2-0.3c-1-1.1-2-2.2-3.1-3.3
					c-0.2-0.3-0.5-0.3-0.8-0.2c-1.2,0.2-2.4,0.4-3.5,0.6c-0.1,0-0.3,0.1-0.4,0.1c0,0.1,0,0.1,0.1,0.2c1.2,1.2,2.4,2.3,3.5,3.5
					c0.2,0.2,0.4,0.2,0.7,0.2c1-0.2,2-0.4,3-0.6C204.4,315.2,204.6,315.1,204.9,315.1 M181.6,314.5c0,0.1,0,0.2,0.1,0.2
					c1.6,1.4,3.2,2.7,4.7,4.1c0.1,0.1,0.3,0.2,0.4,0.1c0.9-0.2,1.9-0.4,2.9-0.7c-0.2-0.3-0.4-0.4-0.5-0.6c-1-1-2.1-1.9-3.1-3
					c-0.6-0.6-1.2-0.8-2.1-0.6C183.2,314.3,182.4,314.4,181.6,314.5 M221,307.9c0,0.1,0,0.2,0.1,0.2c0.9,1.1,1.8,2.1,2.7,3.2
					c0.2,0.3,0.4,0.3,0.7,0.2c1.1-0.2,2.2-0.4,3.3-0.6c0.1,0,0.3-0.1,0.5-0.2c-0.9-1.2-1.7-2.3-2.6-3.4c-0.2-0.2-0.4-0.2-0.7-0.2
					c-0.6,0.1-1.3,0.2-1.9,0.3C222.4,307.6,221.8,307.8,221,307.9 M192.2,312.8c0.1,0.2,0.1,0.2,0.2,0.3c1.1,1.2,2.3,2.3,3.4,3.5
					c0.2,0.2,0.4,0.2,0.7,0.2c1-0.2,2-0.4,3.1-0.6c0.1,0,0.2-0.1,0.4-0.2c-0.2-0.2-0.3-0.4-0.5-0.5c-0.8-0.8-1.6-1.6-2.4-2.3
					c-1.3-1.2-0.7-1-2.4-0.8C193.8,312.5,193,312.6,192.2,312.8 M191.1,318.6c0.1,0.1,0.1,0.2,0.1,0.3c0.8,0.9,1.6,1.7,2.3,2.6
					c0.2,0.2,0.4,0.3,0.7,0.2c1.1-0.2,2.2-0.5,3.3-0.7c0.3-0.1,0.6-0.1,1-0.2c-0.1-0.2-0.2-0.3-0.3-0.4c-0.7-0.8-1.4-1.5-2.1-2.3
					c-0.3-0.3-0.6-0.4-1-0.3c-1.2,0.3-2.4,0.5-3.6,0.8C191.4,318.5,191.3,318.6,191.1,318.6 M245.8,307.8c-0.8-1.2-1.7-2.3-2.6-3.4
					c-0.2-0.2-0.4-0.2-0.6-0.1c-0.8,0.1-1.6,0.3-2.4,0.4c-0.4,0.1-0.9,0.2-1.4,0.2c0.1,0.2,0.2,0.3,0.2,0.3c0.8,1,1.5,2,2.3,3
					c0.2,0.3,0.4,0.3,0.7,0.3c0.8-0.2,1.7-0.4,2.5-0.6C244.9,307.9,245.3,307.8,245.8,307.8 M248.2,302.7c0-0.1,0-0.2-0.1-0.3
					c-0.6-0.8-1.3-1.7-1.9-2.5c-0.2-0.3-0.5-0.2-0.7-0.2c-1.5,0.3-3,0.5-4.5,0.8c-0.1,0-0.3,0.1-0.3,0.1c0.7,0.8,1.5,1.6,2.2,2.4
					c0.3,0.3,0.6,0.4,1,0.3c1-0.2,2-0.3,3-0.5C247.3,302.8,247.7,302.7,248.2,302.7 M205.2,307c0,0.1,0,0.1,0,0.2
					c0.7,0.6,1.4,1.2,2.1,1.9c0.3,0.3,0.6,0.4,1.1,0.3c1.6-0.3,3.2-0.6,4.8-0.8c0.1,0,0.2-0.1,0.4-0.1c-0.1-0.2-0.2-0.3-0.3-0.4
					c-0.6-0.6-1.2-1.1-1.7-1.7c-0.3-0.3-0.5-0.3-0.9-0.3c-0.9,0.2-1.8,0.3-2.7,0.5C206.9,306.7,206.1,306.9,205.2,307 M237.4,304.4
					c-0.9-0.9-1.6-1.6-2.3-2.4c-0.3-0.3-0.6-0.4-1-0.3c-1,0.2-2.1,0.4-3.1,0.6c-0.5,0.1-1.1,0.2-1.7,0.3c0.1,0.1,0.1,0.2,0.1,0.2
					c0.7,0.7,1.5,1.5,2.2,2.2c0.2,0.2,0.4,0.2,0.7,0.2c0.6-0.1,1.1-0.2,1.7-0.3C235.1,304.8,236.2,304.6,237.4,304.4 M231.1,305.5
					c-0.2-0.2-0.2-0.3-0.4-0.5c-0.6-0.6-1.3-1.2-1.9-1.9c-0.3-0.3-0.6-0.4-1-0.3c-0.9,0.2-1.8,0.3-2.7,0.5c-0.5,0.1-1.1,0.2-1.7,0.3
					c0.8,0.9,1.5,1.7,2.2,2.5c0.1,0.1,0.3,0.1,0.4,0.1C227.7,306.1,229.3,305.8,231.1,305.5 M208.5,318.8c-1-1.1-1.9-2-2.8-2.9
					c-0.1-0.1-0.4-0.2-0.5-0.1c-0.7,0.1-1.3,0.2-2,0.4c-0.6,0.1-1.1,0.2-1.8,0.4c0.2,0.2,0.3,0.4,0.4,0.5c0.5,0.6,1.1,1.2,1.7,1.8
					c0.9,1,0.5,0.9,1.9,0.6C206.3,319.2,207.3,319,208.5,318.8 M219.5,307.4c-0.1-0.2-0.2-0.3-0.3-0.4c-0.6-0.6-1.3-1.2-1.9-1.8
					c-0.3-0.3-0.5-0.3-0.9-0.3c-1.4,0.3-2.7,0.5-4.1,0.7c-0.1,0-0.3,0.1-0.4,0.1c0,0.1,0,0.1,0,0.1c0.7,0.6,1.3,1.3,2,1.9
					c0.3,0.3,0.6,0.4,1,0.3c0.8-0.2,1.6-0.3,2.3-0.4C218,307.7,218.7,307.6,219.5,307.4 M203.3,319.8c0-0.1,0-0.2-0.1-0.2
					c-0.6-0.7-1.2-1.4-1.8-2c-1.2-1.2-0.6-1-2.2-0.7c-0.8,0.1-1.7,0.3-2.5,0.5c0,0.1,0,0.2,0,0.2c0.8,0.9,1.6,1.9,2.4,2.8
					c0.1,0.1,0.3,0.2,0.5,0.1C200.9,320.3,202.1,320.1,203.3,319.8 M199.2,308.1c0.7,0.7,1.4,1.3,2,2c0.3,0.3,0.6,0.4,1,0.3
					c1.3-0.2,2.7-0.5,4-0.7c0.2,0,0.4-0.1,0.7-0.2c-0.8-0.8-1.6-1.5-2.4-2.2c-0.1-0.1-0.4-0.1-0.6-0.1c-1.3,0.2-2.5,0.4-3.8,0.7
					C199.8,308,199.6,308,199.2,308.1 M182.9,311c0,0,0,0.1,0,0.1c0.7,0.6,1.4,1.1,2.1,1.7c0.3,0.3,0.6,0.4,1,0.3
					c1.4-0.3,2.8-0.5,4.3-0.7c0.1,0,0.2-0.1,0.5-0.2c-0.8-0.7-1.5-1.4-2.2-2.1c-0.1-0.1-0.3-0.1-0.4-0.1
					C186.3,310.4,184.6,310.7,182.9,311 M225.1,306.5c-0.7-0.8-1.4-1.5-1.9-2.2c-0.3-0.3-0.6-0.4-1-0.3c-1,0.2-2,0.4-3,0.5
					c-0.4,0.1-0.9,0.2-1.3,0.3c0,0.1,0,0.2,0.1,0.2c0.8,0.7,1.5,1.4,2.3,2.2c0.2,0.2,0.4,0.2,0.6,0.1c0.7-0.1,1.5-0.2,2.2-0.4
					C223.6,306.8,224.2,306.6,225.1,306.5 M235.6,301.5c0,0.1,0,0.2,0.1,0.2c0.8,0.8,1.5,1.6,2.3,2.3c0.1,0.1,0.4,0.2,0.5,0.1
					c0.5,0,1-0.1,1.5-0.2c0.8-0.1,1.5-0.3,2.3-0.4c0-0.1,0-0.2,0-0.2c-0.8-0.8-1.6-1.6-2.5-2.4c-0.1-0.1-0.3-0.2-0.4-0.1
					C238.1,301.1,236.9,301.3,235.6,301.5 M193.5,309.1c0.8,0.7,1.6,1.3,2.3,2c0.3,0.3,0.6,0.3,0.9,0.3c1.2-0.2,2.4-0.4,3.5-0.6
					c0.1,0,0.3-0.1,0.5-0.2c-0.6-0.6-1.1-1-1.5-1.6c-0.5-0.6-1.1-0.8-1.9-0.6C196.1,308.7,194.9,308.9,193.5,309.1 M289.6,302.4
					c0-0.1,0-0.1,0-0.2c-1.4-1.2-2.9-2.4-4.3-3.5c-0.1-0.1-0.3-0.1-0.4-0.1c-0.7,0.3-1.4,0.5-2.1,0.9c1.3,1.1,2.5,2.1,3.7,3.1
					c0.1,0.1,0.1,0.1,0.2,0.2c0.2,0.1,0.4,0.1,0.6,0.1C288,302.7,288.8,302.6,289.6,302.4 M193.1,321.9c0-0.1,0-0.2,0-0.2
					c-0.9-0.9-1.7-1.8-2.6-2.7c-0.1-0.1-0.3-0.2-0.4-0.1c-0.9,0.2-1.8,0.4-2.7,0.6c0,0.1,0,0.2,0.1,0.2c1,0.9,2,1.7,3,2.6
					c0.1,0.1,0.3,0.2,0.4,0.1C191.5,322.2,192.3,322,193.1,321.9 M189.1,309.9c0.8,0.8,1.5,1.5,2.3,2.1c0.1,0.1,0.4,0.2,0.6,0.1
					c0.7-0.1,1.5-0.2,2.2-0.4c0.3-0.1,0.7-0.1,1-0.2c-0.1-0.1-0.1-0.2-0.1-0.2c-0.7-0.6-1.4-1.3-2.1-1.9c-0.1-0.1-0.3-0.2-0.5-0.2
					C191.4,309.5,190.3,309.7,189.1,309.9 M184.6,313.4c-0.7-0.5-1.2-1-1.7-1.4c-0.9-0.8-0.9-0.8-2.1-0.5c-0.8,0.1-1.5,0.3-2.4,0.5
					c0.8,0.7,1.4,1.2,2.1,1.8c0.3,0.3,0.6,0.4,1,0.3c0.8-0.1,1.5-0.3,2.3-0.4C183.9,313.5,184.2,313.5,184.6,313.4 M281.6,295.8
					c-0.9-0.7-1.7-1.4-2.5-2c-0.1-0.1-0.3-0.1-0.5-0.1c-0.3,0-0.5,0.1-0.8,0.1c-0.7,0.1-1.4,0.3-2.1,0.4c0,0.1,0,0.2,0.1,0.2
					c0.9,0.6,1.8,1.3,2.8,1.9c0.1,0.1,0.3,0.1,0.4,0.1C279.8,296.3,280.6,296.1,281.6,295.8 M247.4,309c0.4,0.6,0.7,1.2,1,1.7
					c1.6-0.3,3.2-0.6,4.9-1c-0.3-0.4-0.5-0.7-0.7-1.1c-0.2-0.3-0.4-0.4-0.8-0.3c-0.8,0.1-1.6,0.2-2.3,0.3
					C248.8,308.8,248.2,308.8,247.4,309 M258.9,307.3c-2,0.3-3.8,0.6-5.9,0.9c0.2,0.4,0.4,0.6,0.6,0.9c0.2,0.4,0.5,0.5,0.9,0.4
					c1.5-0.3,3.1-0.6,4.6-0.9c0.1,0,0.2-0.1,0.4-0.2C259.3,308,259.1,307.7,258.9,307.3 M284.5,298.1c-0.8-0.6-1.4-1.1-2.1-1.6
					c-0.1-0.1-0.4-0.1-0.6,0c-0.6,0.2-1.3,0.3-1.9,0.5c-0.1,0-0.2,0.1-0.4,0.2c0.8,0.6,1.5,1.2,2.3,1.7c0.1,0.1,0.3,0.1,0.5,0.1
					C283,298.7,283.7,298.4,284.5,298.1 M279.9,293.5c0,0.1,0,0.1-0.1,0.2c0.8,0.6,1.6,1.2,2.4,1.8c0.1,0.1,0.2,0.1,0.3,0.1
					c0.5-0.1,1-0.1,1.5-0.3c-0.1-0.1-0.1-0.2-0.1-0.2c-1.1-0.5-2.3-1.1-3.5-1.6C280.3,293.5,280.1,293.5,279.9,293.5 M212.9,314.3
					c0.7,0.7,1.4,1.3,2,1.9c-0.2-0.3-0.4-0.6-0.6-1c-0.2-0.3-0.2-0.6,0-0.9c0.1-0.1,0.1-0.2,0.2-0.4
					C214,314.1,213.5,314.2,212.9,314.3"/>
				<path class="st52" d="M221.3,212.6c-0.1,0.2-0.2,0.3-0.3,0.5c-4.1,6.9-8.3,13.9-12.4,20.8c-7,11.6-14.2,23-21.6,34.4
					c-0.3,0.5-0.7,0.7-1.2,0.7c-3.5,0.3-7,0.6-10.6,0.9c-3.4,0.3-6.8,0.6-10.2,0.9c-0.2,0-0.3,0-0.5,0c-0.3-0.5-9.7-67-9.8-67.9
					c0.4-0.1,76.4-0.4,77.6-0.3c0,0.1,0.1,0.3,0.2,0.5c1.9,8,3.8,16.1,5.7,24.1c0.1,0.5,0,1-0.2,1.4c-2.3,4.4-4.5,8.8-6.9,13.2
					c-4.5,8-9,15.9-13.5,23.9c-0.3,0.5-0.6,0.7-1.2,0.7c-4.6,0.4-9.1,0.8-13.7,1.1c-4.1,0.3-8.2,0.7-12.3,1
					c-0.7,0.1-1.5,0.1-2.2,0.2c-0.3,0-0.5,0-0.9,0.1c0.2-0.3,0.3-0.6,0.5-0.8c3-4.6,6.1-9.2,9-13.9c7.4-11.7,14.6-23.5,21.5-35.5
					c1.1-1.8,2.1-3.7,3.1-5.6c0.1-0.1,0.1-0.2,0.2-0.4C221.4,212.6,221.3,212.6,221.3,212.6"/>
				<path class="st53" d="M238.5,228.9c0.1,0.4,0.2,0.8,0.3,1.2c0.9,4,1.9,8,2.8,12c0.1,0.5,0,0.9-0.2,1.4
					c-4.1,6.8-8.2,13.6-12.3,20.5c-0.2,0.3-0.3,0.6-0.5,0.9c-0.2,0.3-0.5,0.5-0.9,0.5c-2.1,0.2-4.2,0.4-6.4,0.5
					c-0.8,0.1-1.7,0.1-2.5,0.2c-0.3,0-0.7,0-1,0.1c-0.1-0.3,0.1-0.5,0.3-0.8c2.5-4.3,5-8.7,7.5-13c4.1-7.1,8-14.2,11.7-21.5
					c0.3-0.7,0.7-1.4,1-2.1C238.4,228.8,238.4,228.8,238.5,228.9"/>
				<path class="st52" d="M241.9,243.5c1.6,6.9,3.2,13.6,4.8,20.4c-4.8,0.4-9.5,0.8-14.4,1.2c0.2-0.3,0.3-0.6,0.4-0.8
					c2.5-4.1,5-8.2,7.4-12.3c0.5-0.9,1-1.8,1.5-2.7c0.1-0.2,0.2-0.4,0.3-0.6c0,0-0.1,0-0.1-0.1c-0.2,0.3-0.4,0.5-0.6,0.8
					c-3.1,5-6.1,9.9-9.2,14.9c-0.1,0.2-0.2,0.4-0.4,0.6c-0.1,0.1-0.3,0.3-0.5,0.3c-0.8,0.1-1.5,0.1-2.3,0.2c-0.1,0-0.1,0-0.2-0.1
					C233.2,258,237.5,250.8,241.9,243.5"/>
				<path class="st49" d="M261.1,273.5c-0.3-9.2-0.5-18.4-0.8-27.5c9.4-1,18.8-2,28.3-3c0.3,8.9,0.5,17.8,0.8,26.7
					C279.9,271,270.6,272.3,261.1,273.5 M281,264.8c0-2.1-1.6-3.7-3.7-3.8c-2.1,0-4,1.9-4,4c0,2,1.7,3.8,3.9,3.9
					C279.2,268.9,280.9,267.1,281,264.8"/>
				<path class="st50" d="M288,225.8c0.2,5.6,0.3,11,0.5,16.5c-9.4,1-18.8,2-28.3,3c-0.2-6.3-0.3-12.5-0.5-18.8
					C269.2,226.3,278.6,226,288,225.8"/>
				<path class="st49" d="M259.1,204.7c-0.1-3.8-0.2-7.4-0.3-11.2c9.5,0.5,18.8,1.1,28.3,1.6c0.1,3.4,0.2,6.8,0.3,10.3
					C278,205.2,268.6,205,259.1,204.7"/>
				<path class="st50" d="M287.4,206.1c0.1,3.1,0.2,6,0.3,9c-0.5,0.2-27.2,0.6-28.3,0.4c-0.1-3.3-0.2-6.6-0.3-10
					C268.6,205.7,278,205.9,287.4,206.1"/>
				<path class="st49" d="M259.7,225.7c-0.1-3.1-0.2-6.2-0.3-9.4c9.4-0.1,18.8-0.3,28.3-0.4c0.1,3.1,0.2,6.1,0.3,9.1
					C287.5,225.1,260.7,225.8,259.7,225.7"/>
				<path class="st50" d="M284.5,186.1c0.3,0,0.5,0,0.7,0c0.5,0.1,1,0.1,1.6,0.2c0.1,2.7,0.2,5.3,0.2,8.1c-9.4-0.5-18.8-1-28.2-1.6
					c-0.2-0.6-0.4-8.3-0.3-9.2c0.9,0.1,1.8,0.2,2.8,0.3c0.1,1.1,0.2,2.2,0.3,3.3c0,0.6,0.1,1.2,0.1,1.8c0,0.3,0.1,0.5,0.4,0.5
					c1.4,0.1,2.7,0.1,4.1,0.2c3.9,0.3,7.7,0.6,11.6,0.9c1.7,0.1,3.4,0.3,5.1,0.4c0.8,0.1,0.8,0,0.9-0.8c0.2-1.2,0.3-2.3,0.4-3.5
					C284.4,186.6,284.5,186.4,284.5,186.1"/>
				<path class="st51" d="M262.5,188.7c-0.1-1.6-0.2-3.1-0.4-4.7c7.2,0.7,14.4,1.4,21.6,2c-0.2,1.5-0.4,2.8-0.6,4.3
					C276.3,189.8,269.5,189.3,262.5,188.7"/>
				<path class="st54" d="M260.2,308.3c-1.9-3.6-4.2-6.9-7.1-10c0.8-0.2,1.5-0.3,2.2-0.4c4.9-0.9,9.8-1.8,14.8-2.7
					c0.5-0.1,0.8,0,1.1,0.4c2.7,2.7,5.5,5.4,8.2,8c0.2,0.2,0.4,0.3,0.6,0.5c-0.5,0.3-2.4,0.7-3.2,0.7c-0.5-0.8-1-1.5-1.5-2.3
					c-0.4-0.7-0.9-1-1.7-0.8c-0.8,0.2-1.6,0.5-2.6,0.7c-0.2-0.2-0.5-0.5-0.7-0.9c-0.4-0.5-0.9-0.7-1.6-0.5c-0.5,0.2-1,0.3-1.5,0.5
					c-0.5,0.3-0.6,0.6-0.3,1.1c0.2,0.3,0.4,0.7,0.6,1c-0.2,0.1-0.4,0.1-0.6,0.2c-0.5,0.2-1.1,0.3-1.6,0.5c-0.6,0.2-0.6,0.6-0.2,1.1
					c0.3,0.3,0.5,0.6,0.8,0.9c0.1,0.2,0.3,0.3,0.5,0.6C264.4,307.5,262.3,307.9,260.2,308.3 M272.6,298.9c-0.6,0.1-1.1,0.1-1.6,0.3
					c-0.3,0.1-0.5,0.4-0.7,0.6c-0.2,0.2-0.2,0.4-0.1,0.6c0.2,0.4,0.4,0.7,0.7,1.1c0.2,0.3,0.4,0.4,0.8,0.3c0.6-0.2,1.2-0.3,1.8-0.5
					c0.7-0.2,0.9-0.6,0.5-1.2c-0.2-0.3-0.3-0.6-0.6-0.7C273.1,299.1,272.8,299,272.6,298.9 M261.8,302.2c-0.2,0.8,0.3,1.7,0.9,1.7
					c0.6,0,1.3-0.1,1.9-0.2c0.5-0.1,0.6-0.4,0.4-0.9c-0.1-0.3-0.3-0.6-0.5-0.9c-0.6-1-1.6-1.1-2.5-0.4c-0.1,0.1-0.1,0.2-0.2,0.4
					c0.4,0.1,0.7-0.1,1-0.2c0.4-0.1,0.8,0,1,0.4c0.2,0.3,0.4,0.6,0.6,1c-0.6,0.2-1.2,0.3-1.7,0.4
					C262.5,303.1,262.2,302.7,261.8,302.2 M258.7,299.6c0.4-0.2,0.6-0.4,0.8-0.4c0.4-0.2,0.8,0.1,0.9,0.5c0,0.2,0,0.4-0.2,0.5
					c-0.1,0.1-0.3,0-0.4,0c-0.2-0.1-0.4-0.3-0.7-0.4c-0.1,0.5-0.1,0.5,0.1,0.7c0.3,0.3,0.6,0.5,1,0.5c0.2,0,0.4-0.1,0.5-0.2
					c0.4-0.4,0.4-0.8,0.2-1.3c-0.2-0.5-0.5-0.8-1.1-0.9c-0.5-0.1-0.9,0.2-1.2,0.6C258.7,299.1,258.7,299.3,258.7,299.6 M268.1,296.5
					c0.4,0.1,0.7,0.1,1,0.2c0.2,0.1,0.4,0.3,0.4,0.4c0,0.2-0.1,0.4-0.2,0.6c-0.2,0.2-0.5,0.2-0.7,0c-0.1-0.1-0.3-0.2-0.4-0.3
					c-0.1,0-0.1,0.1-0.2,0.1c0,0.2,0,0.3,0.1,0.5c0.2,0.5,0.8,0.7,1.3,0.5c0.5-0.2,0.9-0.7,0.8-1.3c0-0.6-0.4-1-1-1.1
					C268.8,296,268.4,295.9,268.1,296.5 M263.9,298c0,0,0.1,0,0.2,0c0.3,0,0.5,0.3,0.4,0.5c-0.1,0.3-0.2,0.4-0.5,0.4
					c-0.2,0-0.3-0.1-0.4-0.1c-0.1-0.1-0.2-0.1-0.4-0.2c-0.1,0-0.2,0-0.2,0c0,0.1-0.1,0.3,0,0.3c0.3,0.2,0.5,0.4,0.8,0.6
					c0.5,0.2,1-0.1,1.3-0.5c0.3-0.4,0.2-1-0.2-1.4c-0.4-0.3-1-0.4-1.4-0.1c-0.1,0.1-0.2,0.2-0.2,0.3c0,0.1,0.2,0.1,0.3,0.2
					C263.6,298,263.7,298,263.9,298"/>
				<path class="st54" d="M216.1,317.2c-0.4-0.8-0.8-1.6-1.2-2.4c0.2-0.4,0.6-0.4,0.9-0.5c1.6-0.4,3.1-0.9,4.7-1.3
					c4.5-1.1,9.1-1.8,13.7-2.5c3.5-0.5,7-1.1,10.5-2c0.5-0.1,0.9-0.1,1.2,0.4c0.4,0.6,0.9,1.2,1.4,2
					C236.8,313.1,226.5,315.1,216.1,317.2"/>
				<path class="st54" d="M277.9,296.8c-0.8,0.2-1.4,0.4-2.1,0.7c-0.2,0.1-0.4,0.2-0.5,0.3c-0.1,0-0.1,0.2-0.1,0.3
					c0,0.1,0.2,0.2,0.3,0.2c0.1,0,0.3-0.1,0.4-0.1c0.7-0.2,1.4-0.4,2.1-0.6c0.4-0.1,0.7-0.1,1,0.2c0.7,0.6,1.4,1.1,2.2,1.6
					c-0.2,0.1-0.3,0.2-0.4,0.3c-0.6,0.3-1.2,0.5-1.7,0.8c-0.2,0.1-0.4,0.3-0.6,0.4c0.2,0.4,0.4,0.2,0.6,0.2c0.8-0.3,1.5-0.5,2.3-0.8
					c0.4-0.2,0.7-0.2,1,0.1c1,0.9,2.1,1.7,3.2,2.6c0.1,0.1,0.3,0.2,0.5,0.4c-0.3,0.1-0.5,0.2-0.6,0.2c-1.3,0.3-2.7,0.5-4,0.8
					c-0.4,0.1-0.7,0-1-0.3c-2.8-2.7-5.7-5.5-8.5-8.2c-0.1-0.1-0.2-0.3-0.4-0.4c0-0.1,0.1-0.1,0.1-0.1c0.9-0.2,1.8-0.4,2.7-0.5
					c0.2,0,0.4,0,0.5,0.1C275.9,295.3,276.9,296,277.9,296.8"/>
				<path class="st54" d="M285.6,297.9c-1-0.2-1.6-1.1-2.5-1.7c0.6-0.2,1-0.5,1.5-0.6c0.3-0.1,0.6,0.1,0.9,0.2
					c1.6,0.7,3.1,1.4,4.7,2.1c1.9,0.9,3.8,1.7,5.7,2.6c0.2,0.1,0.4,0.2,0.7,0.3c-0.2,0.1-0.4,0.1-0.5,0.2c-1.7,0.3-3.4,0.7-5.1,1
					c-0.4,0.1-0.7,0-1-0.3c-1.2-1.1-2.5-2.1-3.7-3.2C286.1,298.5,285.9,298.2,285.6,297.9"/>
				<path class="st54" d="M258.5,306.6c-0.7,0.1-1.4,0.2-2,0.3c-1.1,0.2-2.2,0.3-3.3,0.5c-0.4,0.1-0.7,0-1-0.4
					c-0.8-1.2-1.6-2.3-2.4-3.4c-0.1-0.1-0.2-0.3-0.3-0.5c0.5-0.1,0.9-0.2,1.4-0.3c1.3-0.2,2.6-0.4,3.9-0.7c0.5-0.1,0.8,0,1.1,0.4
					c0.7,1.2,1.5,2.3,2.3,3.4C258.3,306.2,258.4,306.4,258.5,306.6"/>
				<path class="st54" d="M265.7,305c0.7-0.2,1.3-0.4,1.9-0.6c0.7-0.2,0.9-0.4,0.6-1.1c-0.2-0.4-0.4-0.7-0.6-1.1
					c0.5-0.4,1.1-0.5,1.7-0.6c0.2,0,0.4,0.1,0.5,0.3c0.2,0.2,0.4,0.5,0.7,0.8c0.5,0.7,0.6,0.7,1.4,0.3c0.7-0.4,1.4-0.6,2.2-0.7
					c0.3,0,0.5,0,0.6,0.3c0.5,0.8,1,1.6,1.5,2.4c-0.3,0.1-0.5,0.2-0.7,0.2c-2.5,0.5-5.1,1-7.6,1.5c-0.5,0.1-0.8,0-1.1-0.4
					C266.5,305.9,266.1,305.6,265.7,305"/>
				<path class="st54" d="M195.2,317c-0.1,0-0.2,0.1-0.4,0.1c-1.3,0.3-2.6,0.6-3.9,0.9c-0.3,0.1-0.5,0-0.7-0.2
					c-1.3-1.2-2.6-2.5-3.9-3.7c-0.1-0.1-0.1-0.1-0.2-0.3c0.1,0,0.2-0.1,0.3-0.1c1.5-0.2,2.9-0.5,4.4-0.7c0.3,0,0.5,0,0.7,0.2
					c1.2,1.2,2.3,2.4,3.5,3.6C195.1,316.8,195.1,316.9,195.2,317"/>
				<path class="st54" d="M202.2,311.1c0.9-0.2,1.7-0.3,2.5-0.4c0.8-0.1,1.6-0.3,2.3-0.4c0.2,0,0.5,0,0.6,0.1
					c1.2,1.1,2.4,2.2,3.7,3.4c-0.2,0.1-0.3,0.2-0.4,0.2c-1.6,0.3-3.2,0.6-4.9,0.9c-0.3,0.1-0.5,0-0.7-0.2c-1-1.1-2-2.2-3.1-3.3
					C202.4,311.3,202.3,311.2,202.2,311.1"/>
				<path class="st54" d="M217.5,312.8c-0.6,0.1-1.1,0.2-1.6,0.3c-1.1,0.2-2.1,0.4-3.2,0.6c-0.3,0.1-0.6,0-0.8-0.2
					c-1.1-1-2.2-2.1-3.2-3.1c-0.1-0.1-0.1-0.2-0.2-0.3c0.2-0.1,0.4-0.1,0.6-0.1c1.5-0.3,3-0.5,4.6-0.8c0.4-0.1,0.7,0,1,0.3
					c0.9,1,1.8,1.9,2.6,2.9C217.3,312.5,217.4,312.6,217.5,312.8"/>
				<path class="st54" d="M226.3,307c1.5-0.3,3-0.5,4.4-0.8c0.8-0.2,1.3,0,1.8,0.6c0.7,0.8,1.4,1.6,2.1,2.4c0.1,0.1,0.3,0.3,0.4,0.5
					c-0.2,0.1-0.4,0.1-0.6,0.2c-1.6,0.2-3.2,0.5-4.8,0.7c-0.4,0.1-0.7,0-1-0.4c-0.6-0.9-1.3-1.8-2-2.7
					C226.5,307.3,226.5,307.2,226.3,307"/>
				<path class="st54" d="M251.8,307.6c-0.1,0-0.2,0.1-0.3,0.1c-1.3,0.2-2.7,0.4-4,0.6c-0.3,0-0.5,0-0.6-0.2
					c-0.9-1.3-1.9-2.5-2.8-3.7c0,0,0-0.1-0.1-0.2c0.1,0,0.3-0.1,0.4-0.1c1.3-0.2,2.6-0.4,4-0.7c0.3,0,0.5,0,0.7,0.2
					c0.9,1.3,1.9,2.6,2.8,3.9C251.7,307.4,251.7,307.5,251.8,307.6"/>
				<path class="st54" d="M223.2,311.8c-0.9,0.2-1.8,0.4-2.8,0.6c-0.6,0.1-1.2,0.2-1.7,0.3c-0.3,0.1-0.5,0-0.7-0.2
					c-0.9-1.1-1.9-2.2-2.9-3.3c0,0,0-0.1-0.1-0.2c0.1,0,0.2-0.1,0.3-0.1c1.4-0.2,2.9-0.5,4.3-0.7c0.4-0.1,0.6,0,0.9,0.3
					c0.9,1.1,1.8,2.1,2.8,3.2C223.3,311.6,223.2,311.7,223.2,311.8"/>
				<path class="st54" d="M232.7,306c0.1,0,0.1-0.1,0.2-0.1c1.6-0.3,3.1-0.5,4.7-0.8c0.3,0,0.4,0,0.6,0.2c0.8,1.1,1.7,2.2,2.5,3.3
					c0,0,0,0.1,0,0.2c-0.1,0-0.3,0.1-0.4,0.1c-1.3,0.2-2.7,0.5-4,0.7c-0.2,0-0.4,0-0.6-0.2C234.7,308.3,233.7,307.2,232.7,306
					C232.7,306.1,232.7,306,232.7,306"/>
				<path class="st54" d="M214.9,317.5c-1.9,0.4-3.7,0.7-5.4,1.1c-0.2,0-0.4,0-0.6-0.2c-0.8-0.9-1.6-1.8-2.4-2.7c0,0,0-0.1-0.1-0.2
					c0.7-0.1,1.3-0.3,1.9-0.4c1-0.2,2.1-0.4,3.1-0.6c0.4-0.1,0.7,0,1,0.3c0.7,0.8,1.4,1.5,2.2,2.2
					C214.7,317.2,214.8,317.3,214.9,317.5"/>
				<path class="st54" d="M255,301.5c-0.2,0.1-0.3,0.1-0.3,0.1c-1.7,0.3-3.4,0.5-5.1,0.8c-0.4,0.1-0.7,0-0.9-0.4
					c-0.5-0.7-1.1-1.4-1.7-2.1c-0.1-0.1-0.1-0.2-0.2-0.4c0.2-0.1,0.3-0.1,0.4-0.1c1.6-0.3,3.2-0.6,4.7-0.9c0.4-0.1,0.6,0,0.9,0.3
					c0.6,0.7,1.3,1.5,1.9,2.2C254.8,301.2,254.9,301.3,255,301.5"/>
				<path class="st54" d="M204.9,315.1c-0.3,0.1-0.5,0.1-0.7,0.2c-1,0.2-2,0.4-3,0.6c-0.3,0.1-0.5,0.1-0.7-0.2
					c-1.2-1.2-2.4-2.3-3.5-3.5c0,0,0-0.1-0.1-0.2c0.1,0,0.3-0.1,0.4-0.1c1.2-0.2,2.4-0.4,3.5-0.6c0.3-0.1,0.6,0,0.8,0.2
					c1,1.1,2,2.2,3.1,3.3C204.8,314.8,204.8,314.9,204.9,315.1"/>
				<path class="st54" d="M181.6,314.5c0.8-0.1,1.7-0.2,2.4-0.4c0.9-0.2,1.5,0,2.1,0.6c1,1,2.1,2,3.1,3c0.2,0.1,0.3,0.3,0.5,0.6
					c-1.1,0.2-2,0.5-2.9,0.7c-0.1,0-0.3,0-0.4-0.1c-1.6-1.4-3.2-2.7-4.7-4.1C181.6,314.7,181.6,314.6,181.6,314.5"/>
				<path class="st54" d="M221,307.9c0.7-0.1,1.4-0.2,2.1-0.4c0.6-0.1,1.3-0.2,1.9-0.3c0.2,0,0.5-0.1,0.7,0.2
					c0.8,1.1,1.7,2.2,2.6,3.4c-0.2,0.1-0.4,0.1-0.5,0.2c-1.1,0.2-2.2,0.4-3.3,0.6c-0.3,0.1-0.5,0.1-0.7-0.2
					c-0.9-1.1-1.8-2.1-2.7-3.2C221.1,308.1,221.1,308,221,307.9"/>
				<path class="st54" d="M192.2,312.8c0.8-0.1,1.6-0.3,2.4-0.4c1.7-0.2,1.1-0.5,2.4,0.8c0.8,0.8,1.6,1.5,2.4,2.3
					c0.2,0.2,0.3,0.3,0.5,0.5c-0.2,0.1-0.3,0.1-0.4,0.2c-1,0.2-2,0.4-3.1,0.6c-0.3,0.1-0.5,0-0.7-0.2c-1.1-1.2-2.3-2.4-3.4-3.5
					C192.3,313,192.3,312.9,192.2,312.8"/>
				<path class="st54" d="M191.1,318.6c0.2-0.1,0.3-0.1,0.5-0.2c1.2-0.3,2.4-0.5,3.6-0.8c0.4-0.1,0.7,0,1,0.3
					c0.7,0.8,1.4,1.6,2.1,2.3c0.1,0.1,0.2,0.2,0.3,0.4c-0.4,0.1-0.7,0.2-1,0.2c-1.1,0.2-2.2,0.4-3.3,0.7c-0.3,0.1-0.5,0-0.7-0.2
					c-0.8-0.9-1.6-1.7-2.3-2.6C191.2,318.8,191.2,318.7,191.1,318.6"/>
				<path class="st54" d="M245.8,307.8c-0.5,0.1-0.9,0.1-1.4,0.2c-0.8,0.2-1.7,0.4-2.5,0.6c-0.3,0.1-0.5,0-0.7-0.3
					c-0.7-1-1.5-2-2.3-3c-0.1-0.1-0.1-0.2-0.2-0.3c0.5-0.1,0.9-0.2,1.4-0.2c0.8-0.1,1.6-0.3,2.4-0.4c0.2,0,0.4-0.1,0.6,0.1
					C244.1,305.4,245,306.6,245.8,307.8"/>
				<path class="st54" d="M248.1,302.7c-0.5,0.1-0.9,0.1-1.3,0.2c-1,0.2-2,0.3-3,0.5c-0.4,0.1-0.7,0-1-0.3c-0.7-0.8-1.5-1.6-2.2-2.4
					c0,0,0.1-0.1,0.3-0.1c1.5-0.3,3-0.6,4.5-0.8c0.3,0,0.5-0.1,0.7,0.2c0.6,0.8,1.3,1.7,1.9,2.5
					C248.1,302.5,248.1,302.5,248.1,302.7"/>
				<path class="st54" d="M205.2,307c0.9-0.2,1.7-0.3,2.6-0.5c0.9-0.2,1.8-0.3,2.7-0.5c0.4-0.1,0.6,0,0.9,0.3
					c0.6,0.6,1.2,1.1,1.7,1.7c0.1,0.1,0.2,0.2,0.3,0.4c-0.2,0.1-0.3,0.1-0.4,0.1c-1.6,0.3-3.2,0.5-4.8,0.8c-0.5,0.1-0.8,0-1.1-0.3
					c-0.7-0.6-1.4-1.2-2.1-1.9C205.2,307.1,205.2,307.1,205.2,307"/>
				<path class="st54" d="M237.4,304.4c-1.2,0.2-2.3,0.4-3.4,0.6c-0.6,0.1-1.1,0.2-1.7,0.3c-0.3,0-0.5,0-0.7-0.2
					c-0.7-0.7-1.5-1.5-2.2-2.2c0,0-0.1-0.1-0.1-0.2c0.6-0.1,1.1-0.2,1.7-0.3c1-0.2,2.1-0.4,3.1-0.6c0.4-0.1,0.7,0,1,0.3
					C235.8,302.8,236.6,303.6,237.4,304.4"/>
				<path class="st54" d="M231.1,305.5c-1.8,0.3-3.4,0.6-5,0.8c-0.1,0-0.3,0-0.4-0.1c-0.7-0.8-1.4-1.6-2.2-2.5
					c0.6-0.1,1.2-0.2,1.7-0.3c0.9-0.2,1.8-0.3,2.7-0.5c0.4-0.1,0.7,0,1,0.3c0.6,0.6,1.2,1.2,1.9,1.9
					C230.8,305.1,230.9,305.3,231.1,305.5"/>
				<path class="st54" d="M208.5,318.8c-1.2,0.2-2.1,0.5-3.1,0.6c-1.4,0.3-0.9,0.4-1.9-0.6c-0.6-0.6-1.1-1.2-1.7-1.8
					c-0.1-0.1-0.2-0.3-0.4-0.5c0.7-0.1,1.2-0.3,1.8-0.4c0.7-0.1,1.3-0.3,2-0.4c0.2,0,0.4,0,0.5,0.1
					C206.6,316.8,207.5,317.7,208.5,318.8"/>
				<path class="st54" d="M219.5,307.4c-0.8,0.1-1.5,0.3-2.2,0.4c-0.8,0.1-1.6,0.3-2.3,0.4c-0.4,0.1-0.7,0-1-0.3
					c-0.6-0.7-1.3-1.3-2-1.9c0,0,0,0,0-0.1c0.1,0,0.3-0.1,0.4-0.1c1.4-0.2,2.7-0.5,4.1-0.7c0.4-0.1,0.6,0,0.9,0.3
					c0.6,0.6,1.3,1.2,1.9,1.8C219.3,307.2,219.4,307.3,219.5,307.4"/>
				<path class="st54" d="M203.3,319.8c-1.3,0.3-2.5,0.5-3.7,0.7c-0.1,0-0.4,0-0.5-0.1c-0.8-0.9-1.6-1.9-2.4-2.8c0,0,0-0.1,0-0.2
					c0.8-0.2,1.7-0.4,2.5-0.5c1.6-0.3,1.1-0.5,2.2,0.7c0.6,0.7,1.2,1.3,1.8,2C203.3,319.6,203.3,319.7,203.3,319.8"/>
				<path class="st54" d="M199.2,308.1c0.4-0.1,0.6-0.1,0.9-0.2c1.3-0.2,2.5-0.5,3.8-0.7c0.2,0,0.5,0,0.6,0.1
					c0.8,0.7,1.5,1.4,2.4,2.2c-0.3,0.1-0.5,0.2-0.7,0.2c-1.3,0.2-2.7,0.5-4,0.7c-0.4,0.1-0.7,0-1-0.3
					C200.6,309.5,199.9,308.8,199.2,308.1"/>
				<path class="st54" d="M182.9,311c1.7-0.3,3.4-0.6,5.1-0.9c0.1,0,0.3,0,0.4,0.1c0.7,0.7,1.5,1.3,2.2,2.1
					c-0.2,0.1-0.3,0.1-0.5,0.2c-1.4,0.2-2.9,0.5-4.3,0.7c-0.4,0.1-0.7,0-1-0.3c-0.7-0.6-1.4-1.2-2.1-1.7
					C182.9,311.1,182.9,311.1,182.9,311"/>
				<path class="st54" d="M225.1,306.5c-0.8,0.1-1.4,0.3-2.1,0.4c-0.7,0.1-1.5,0.2-2.2,0.4c-0.2,0-0.4,0-0.6-0.1
					c-0.8-0.7-1.5-1.4-2.3-2.2c0,0,0-0.1-0.1-0.2c0.4-0.1,0.9-0.2,1.3-0.3c1-0.2,2-0.3,3-0.5c0.4-0.1,0.7,0,1,0.3
					C223.7,305,224.3,305.7,225.1,306.5"/>
				<path class="st54" d="M235.6,301.5c1.3-0.2,2.5-0.5,3.7-0.7c0.1,0,0.3,0,0.4,0.1c0.8,0.8,1.7,1.6,2.5,2.4c0,0,0,0.1,0,0.2
					c-0.8,0.1-1.5,0.3-2.3,0.4c-0.5,0.1-1,0.2-1.5,0.2c-0.2,0-0.4,0-0.5-0.1c-0.8-0.8-1.5-1.5-2.3-2.3
					C235.6,301.7,235.6,301.6,235.6,301.5"/>
				<path class="st54" d="M193.5,309.1c1.4-0.3,2.7-0.4,3.9-0.7c0.8-0.2,1.4,0,1.9,0.6c0.4,0.5,1,1,1.5,1.6
					c-0.3,0.1-0.4,0.1-0.5,0.2c-1.2,0.2-2.4,0.4-3.5,0.6c-0.4,0.1-0.6,0-0.9-0.3C195.1,310.5,194.3,309.9,193.5,309.1"/>
				<path class="st54" d="M289.6,302.4c-0.8,0.2-1.6,0.3-2.4,0.5c-0.2,0-0.4-0.1-0.6-0.1c-0.1,0-0.1-0.1-0.2-0.2
					c-1.2-1-2.4-2-3.7-3.1c0.7-0.3,1.4-0.6,2.1-0.9c0.1,0,0.3,0,0.4,0.1c1.4,1.2,2.9,2.3,4.3,3.5
					C289.6,302.2,289.6,302.3,289.6,302.4"/>
				<path class="st54" d="M193.1,321.9c-0.8,0.2-1.5,0.3-2.3,0.5c-0.1,0-0.3,0-0.4-0.1c-1-0.8-2-1.7-3-2.6c0,0,0-0.1-0.1-0.2
					c0.9-0.2,1.8-0.4,2.7-0.6c0.1,0,0.3,0,0.4,0.1c0.9,0.9,1.7,1.8,2.6,2.7C193.1,321.7,193.1,321.8,193.1,321.9"/>
				<path class="st54" d="M189.1,309.9c1.2-0.2,2.3-0.4,3.3-0.6c0.2,0,0.4,0,0.5,0.2c0.7,0.6,1.4,1.2,2.1,1.9c0,0,0,0.1,0.1,0.2
					c-0.4,0.1-0.7,0.1-1,0.2c-0.7,0.1-1.5,0.3-2.2,0.4c-0.2,0-0.5,0-0.6-0.1C190.6,311.4,189.9,310.7,189.1,309.9"/>
				<path class="st54" d="M184.6,313.4c-0.4,0.1-0.7,0.1-0.9,0.2c-0.8,0.1-1.5,0.2-2.3,0.4c-0.4,0.1-0.7,0-1-0.3
					c-0.6-0.6-1.3-1.1-2.1-1.8c0.9-0.2,1.7-0.3,2.4-0.5c1.2-0.2,1.2-0.2,2.1,0.5C183.4,312.4,183.9,312.9,184.6,313.4"/>
				<path class="st54" d="M281.6,295.8c-1,0.3-1.8,0.5-2.6,0.7c-0.1,0-0.3,0-0.4-0.1c-0.9-0.6-1.9-1.3-2.8-1.9c0,0,0-0.1-0.1-0.2
					c0.7-0.1,1.4-0.3,2.1-0.4c0.3-0.1,0.5-0.1,0.8-0.1c0.2,0,0.4,0,0.5,0.1C279.9,294.5,280.7,295.1,281.6,295.8"/>
				<path class="st54" d="M247.4,309c0.8-0.1,1.4-0.2,2.1-0.3c0.8-0.1,1.6-0.2,2.3-0.4c0.4-0.1,0.6,0,0.8,0.3
					c0.2,0.3,0.4,0.7,0.7,1.1c-1.7,0.3-3.3,0.7-4.9,1C248.1,310.1,247.8,309.6,247.4,309"/>
				<path class="st54" d="M258.9,307.3c0.2,0.4,0.4,0.7,0.6,1.1c-0.1,0.1-0.3,0.1-0.4,0.2c-1.5,0.3-3.1,0.6-4.6,0.9
					c-0.4,0.1-0.7,0-0.9-0.4c-0.1-0.3-0.3-0.6-0.6-0.9C255,307.9,256.9,307.6,258.9,307.3"/>
				<path class="st54" d="M284.5,298.1c-0.9,0.3-1.5,0.6-2.2,0.8c-0.1,0-0.4,0-0.5-0.1c-0.7-0.5-1.5-1.1-2.3-1.7
					c0.2-0.1,0.3-0.2,0.4-0.2c0.6-0.2,1.3-0.4,1.9-0.5c0.2,0,0.4-0.1,0.6,0C283.1,297,283.7,297.5,284.5,298.1"/>
				<path class="st54" d="M279.9,293.5c0.2,0,0.4,0,0.6,0.1c1.2,0.5,2.3,1,3.5,1.6c0,0,0,0.1,0.1,0.2c-0.5,0.2-1,0.3-1.5,0.3
					c-0.1,0-0.2-0.1-0.3-0.1c-0.8-0.6-1.6-1.2-2.4-1.8C279.9,293.6,279.9,293.6,279.9,293.5"/>
				<path class="st54" d="M212.9,314.3c0.6-0.1,1.1-0.2,1.7-0.3c-0.1,0.2-0.2,0.3-0.2,0.4c-0.2,0.3-0.2,0.6,0,0.9
					c0.2,0.3,0.4,0.6,0.6,1C214.2,315.6,213.6,315,212.9,314.3"/>
				<path class="st47" d="M281,264.8c0,2.3-1.8,4.1-3.9,4.1c-2.1,0-3.9-1.8-3.9-3.9c0-2.1,1.9-4,4-4C279.3,261,281,262.7,281,264.8
					 M277.1,267.9c0.3-0.1,0.7-0.1,1-0.2c1.2-0.5,2-1.8,1.9-3.2c-0.1-2-2.6-3.3-4.2-2c-0.3,0.2-0.6,0.4-0.8,0.6
					c-0.5,0.3-0.7,0.8-0.8,1.3C273.8,266.2,275.2,267.9,277.1,267.9"/>
				<path class="st47" d="M272.6,298.9c0.2,0.1,0.5,0.2,0.7,0.4c0.2,0.2,0.4,0.5,0.6,0.7c0.4,0.7,0.2,1-0.5,1.2
					c-0.6,0.2-1.2,0.3-1.8,0.5c-0.3,0.1-0.6,0-0.8-0.3c-0.2-0.4-0.5-0.7-0.7-1.1c-0.1-0.2-0.1-0.4,0.1-0.6c0.2-0.2,0.4-0.5,0.7-0.6
					C271.5,299.1,272,299,272.6,298.9 M273.5,300.6c-0.2-0.5-0.4-0.9-0.8-1c-0.4-0.1-0.8,0-1.2,0.2c-0.2,0.1-0.4,0.3-0.6,0.5
					c0.1,0.2,0.2,0.4,0.4,0.6c0.1,0.1,0.3,0.2,0.4,0.2C272.3,301,272.8,300.8,273.5,300.6"/>
				<path class="st47" d="M261.8,302.2c0.4,0.5,0.7,0.9,1,1.3c0.5-0.1,1.1-0.3,1.7-0.4c-0.2-0.4-0.4-0.7-0.6-1
					c-0.2-0.4-0.6-0.5-1-0.4c-0.3,0.1-0.6,0.3-1,0.2c0.1-0.2,0.1-0.3,0.2-0.4c0.9-0.7,1.9-0.5,2.5,0.4c0.2,0.3,0.4,0.6,0.5,0.9
					c0.2,0.5,0.1,0.8-0.4,0.9c-0.6,0.1-1.3,0.2-1.9,0.2C262.1,303.9,261.6,303,261.8,302.2"/>
				<path class="st47" d="M258.7,299.6c0-0.3,0-0.5,0-0.6c0.3-0.4,0.7-0.6,1.2-0.6c0.5,0.1,0.9,0.4,1.1,0.9c0.2,0.5,0.1,0.9-0.2,1.3
					c-0.1,0.1-0.3,0.2-0.5,0.2c-0.4,0-0.7-0.2-1-0.5c-0.2-0.2-0.2-0.2-0.1-0.7c0.2,0.2,0.5,0.3,0.7,0.4c0.1,0.1,0.4,0.1,0.4,0
					c0.1-0.1,0.2-0.3,0.2-0.5c-0.1-0.4-0.5-0.6-0.9-0.5C259.3,299.2,259.1,299.3,258.7,299.6"/>
				<path class="st47" d="M268.1,296.5c0.3-0.5,0.7-0.4,1.1-0.4c0.6,0.1,1,0.5,1,1.1c0,0.6-0.3,1.1-0.8,1.3c-0.5,0.2-1.1,0-1.3-0.5
					c-0.1-0.1,0-0.3-0.1-0.5c0.1,0,0.1-0.1,0.2-0.1c0.1,0.1,0.3,0.2,0.4,0.3c0.2,0.2,0.5,0.2,0.7,0c0.1-0.1,0.3-0.4,0.2-0.6
					c0-0.2-0.3-0.4-0.4-0.4C268.8,296.6,268.5,296.6,268.1,296.5"/>
				<path class="st47" d="M263.9,298c-0.2,0-0.3,0.1-0.3,0c-0.1,0-0.3-0.1-0.3-0.2c0-0.1,0.1-0.3,0.2-0.3c0.4-0.3,1-0.2,1.4,0.1
					c0.4,0.3,0.5,0.9,0.2,1.4c-0.3,0.4-0.8,0.7-1.3,0.5c-0.3-0.1-0.6-0.4-0.8-0.6c0,0,0-0.2,0-0.3c0,0,0.2-0.1,0.2,0
					c0.1,0,0.2,0.1,0.4,0.2c0.1,0.1,0.3,0.1,0.4,0.1c0.3,0,0.5-0.1,0.5-0.4c0-0.2-0.1-0.5-0.4-0.5C264,298,263.9,298,263.9,298"/>
				<path class="st52" d="M277.1,267.9c-1.9,0-3.3-1.8-2.9-3.6c0.1-0.5,0.4-1,0.8-1.3c0.3-0.2,0.6-0.4,0.8-0.6
					c1.6-1.3,4.1,0.1,4.2,2c0.1,1.4-0.7,2.8-1.9,3.2C277.8,267.8,277.4,267.9,277.1,267.9 M276.7,266.4c1,0,1.6-0.4,2-1.2
					c0.2-0.5,0.1-1.1-0.2-1.4c-0.1-0.1-0.3-0.2-0.5-0.1c-0.2,0.1-0.1,0.3,0,0.5c0.3,0.6,0.1,1.1-0.5,1.4c-0.4,0.2-0.9,0.2-1.3,0
					c-0.5-0.2-0.6-0.6-0.4-1.1c0.1-0.1,0.2-0.3,0.3-0.4c0-0.1,0-0.3,0-0.4c-0.1,0-0.3,0-0.4,0.1c-1,0.7-0.8,2,0.3,2.4
					C276.2,266.3,276.5,266.3,276.7,266.4 M277.1,263.7C277.1,263.7,277.1,263.7,277.1,263.7c0-0.1,0-0.3,0-0.4
					c-0.1-0.1-0.2-0.3-0.3-0.3c-0.1,0-0.3,0.1-0.3,0.2c0,0.3-0.1,0.5,0,0.8c0,0.1,0.2,0.3,0.3,0.3c0.1,0,0.2-0.2,0.3-0.3
					C277.1,263.9,277.1,263.8,277.1,263.7"/>
				<path class="st54" d="M273.5,300.6c-0.7,0.2-1.2,0.3-1.8,0.5c-0.1,0-0.3-0.1-0.4-0.2c-0.1-0.1-0.2-0.3-0.4-0.6
					c0.2-0.2,0.4-0.4,0.6-0.5c0.4-0.1,0.8-0.2,1.2-0.2C273.1,299.7,273.3,300.2,273.5,300.6"/>
				<path class="st47" d="M276.7,266.4c-0.2,0-0.5-0.1-0.7-0.2c-1.1-0.5-1.3-1.7-0.3-2.4c0.1-0.1,0.3-0.1,0.4-0.1c0,0.1,0,0.3,0,0.4
					c-0.1,0.1-0.2,0.3-0.3,0.4c-0.3,0.5-0.2,0.9,0.4,1.1c0.4,0.2,0.9,0.2,1.3,0c0.6-0.3,0.8-0.8,0.5-1.4c-0.1-0.2-0.2-0.4,0-0.5
					c0.1-0.1,0.4,0,0.5,0.1c0.4,0.3,0.5,0.9,0.2,1.4C278.4,265.9,277.7,266.3,276.7,266.4"/>
				<path class="st47" d="M277.1,263.7c0,0.1,0,0.2,0,0.3c-0.1,0.1-0.2,0.3-0.3,0.3c-0.1,0-0.3-0.1-0.3-0.3c0-0.3,0-0.5,0-0.8
					c0-0.1,0.2-0.2,0.3-0.2c0.1,0,0.2,0.2,0.3,0.3C277.1,263.4,277.1,263.6,277.1,263.7C277.1,263.7,277.1,263.7,277.1,263.7"/>
			</g>
		</g>
	</g>
</g>
</svg>
