<?xml version="1.0" encoding="utf-8"?>
<!-- Generator: Adobe Illustrator 22.1.0, SVG Export Plug-In . SVG Version: 6.00 Build 0)  -->
<svg version="1.1" xmlns="http://www.w3.org/2000/svg" xmlns:xlink="http://www.w3.org/1999/xlink" x="0px" y="0px"
	 viewBox="0 0 690 500" style="enable-background:new 0 0 690 500;" xml:space="preserve">
<style type="text/css">
	.st0{clip-path:url(#SVGID_2_);}
	.st1{clip-path:url(#SVGID_4_);}
	.st2{clip-path:url(#SVGID_4_);fill:#EE1C25;}
	.st3{clip-path:url(#SVGID_4_);fill:#814E21;}
	.st4{clip-path:url(#SVGID_4_);fill:#F26432;}
	.st5{fill:#FFFFFF;}
	.st6{font-family:'Roboto-Black', sans-serif;}
	.st7{font-size:43px;}
	.st8{clip-path:url(#SVGID_6_);}
	.st9{clip-path:url(#SVGID_8_);}
	.st10{clip-path:url(#SVGID_8_);fill:#EE1C25;}
	.st11{clip-path:url(#SVGID_8_);fill:#814E21;}
	.st12{clip-path:url(#SVGID_8_);fill:#F26432;}
	.st13{clip-path:url(#SVGID_10_);}
	.st14{clip-path:url(#SVGID_12_);}
	.st15{clip-path:url(#SVGID_12_);fill:#EE1C25;}
	.st16{clip-path:url(#SVGID_12_);fill:#814E21;}
	.st17{clip-path:url(#SVGID_12_);fill:#64BB46;}
	.st18{clip-path:url(#SVGID_12_);fill:#F26432;}
	.st19{clip-path:url(#SVGID_14_);}
	.st20{clip-path:url(#SVGID_16_);}
	.st21{clip-path:url(#SVGID_16_);fill:#EE1C25;}
	.st22{clip-path:url(#SVGID_16_);fill:#814E21;}
	.st23{clip-path:url(#SVGID_16_);fill:#64BB46;}
	.st24{clip-path:url(#SVGID_16_);fill:#F26432;}
	.st25{clip-path:url(#SVGID_18_);}
	.st26{clip-path:url(#SVGID_20_);}
	.st27{clip-path:url(#SVGID_20_);fill:#EE1C25;}
	.st28{clip-path:url(#SVGID_20_);fill:#814E21;}
	.st29{clip-path:url(#SVGID_20_);fill:#64BB46;}
	.st30{clip-path:url(#SVGID_20_);fill:#F26432;}
	.st31{clip-path:url(#SVGID_22_);}
	.st32{clip-path:url(#SVGID_24_);}
	.st33{clip-path:url(#SVGID_24_);fill:#EE1C25;}
	.st34{clip-path:url(#SVGID_24_);fill:#814E21;}
	.st35{clip-path:url(#SVGID_24_);fill:#64BB46;}
	.st36{clip-path:url(#SVGID_24_);fill:#F26432;}
	.st37{clip-path:url(#SVGID_26_);}
	.st38{clip-path:url(#SVGID_28_);}
	.st39{clip-path:url(#SVGID_28_);fill:#EE1C25;}
	.st40{clip-path:url(#SVGID_28_);fill:#814E21;}
	.st41{clip-path:url(#SVGID_28_);fill:#64BB46;}
	.st42{clip-path:url(#SVGID_28_);fill:#F26432;}
</style>
<g id="W">
	<g>
		<g>
			<defs>
				<rect id="SVGID_1_" x="1.7" y="-6" width="192.7" height="222"/>
			</defs>
			<clipPath id="SVGID_2_">
				<use xlink:href="#SVGID_1_"  style="overflow:visible;"/>
			</clipPath>
			<g class="st0">
				<defs>
					<rect id="SVGID_3_" x="14.4" y="25" width="83.6" height="168.1"/>
				</defs>
				<clipPath id="SVGID_4_">
					<use xlink:href="#SVGID_3_"  style="overflow:visible;"/>
				</clipPath>
				<path class="st1" d="M41.2,91c0.2-1.9,0.3-3.8,0.5-5.7c0.5-4.2,1.4-8.4,3.2-12.3c2.3-5.2,6-9,11.2-11.3
					c3.8-1.7,7.7-2.9,11.8-3.3c3.8-0.4,7.4,0.3,10.9,1.9c4.6,2.2,8.9,4.8,13,7.7c0.6,0.4,1.1,1,1.7,1.6c0.1-0.1,0.2-0.1,0.3-0.2
					c-0.8-2.8-1.4-5.7-2.3-8.5c-1.1-3.7-2.5-7.4-3.7-11c-0.5-1.6-0.9-3.2-1.3-4.9c-0.2-0.8,0.1-1.3,0.9-1.4c4-0.4,8-0.7,12-1.1
					c0.3,0,0.6,0,1,0c1.5,0.1,1.7,0.7,1.4,2.1c-0.4,2.3-0.7,4.6-1,6.9c0.1,0,0.2,0.1,0.2,0.1c0.1-0.1,0.2-0.3,0.3-0.4
					c3.1-5.2,7.7-8.6,13.1-11.1c0.2-0.1,0.4-0.1,0.6-0.2c1.5-0.5,2.5,0.1,2.7,1.8c0.3,2.3,0,4.6-0.4,6.8c-1.1,5.6-3.8,10.4-7.4,14.8
					c-0.2,0.3-0.5,0.6-0.6,1c1.4-0.8,2.8-1.6,4.2-2.4c3.3-1.8,6.7-3.4,10.5-3.6c3.4-0.3,6.7,0.4,9.9,1.3c4.1,1.2,7.9,2.7,11.2,5.6
					c4.1,3.6,6.3,8.3,7.7,13.5c1.5,6,1.9,12.1,1.7,18.2c-0.2,10.2-1.6,20.3-4.9,30.1c-2.7,8-6.2,15.7-10.8,22.8
					c-3.8,5.9-8.9,9.9-15.8,11.3c-1.8,0.4-3.7,0.8-5.5,1.2c-1.1,0.2-2.4,0.1-3.2,0.6c-0.8,0.5-1.2,1.8-1.8,2.7
					c-0.1,0.2-0.2,0.3-0.3,0.5c-1.7,2.3-3.1,2.5-5.3,0.7c-0.7,0.5-1.4,1.1-2.1,1.3c-1.4,0.4-2.7,1.1-4.1,1.6
					c-1.9,0.7-3.8,0.3-5.6-0.8c-0.5-0.3-1-0.5-1.7-0.4c-1.3,0.2-2.5-0.3-3.5-1c-0.4-0.3-0.7-0.5-1.1-0.8c-0.2,0.2-0.4,0.4-0.6,0.6
					c-1.2,1-2.6,1-3.6-0.1c-1-1-1.7-2.3-2.4-3.5c-0.4-0.6-0.7-0.9-1.4-1.1c-3-0.6-6.1-1.2-9.1-1.9c-6-1.4-10.6-4.8-14-9.8
					c-6.7-9.8-11.2-20.6-14-32.1c-1.5-6-2.2-12.1-2.5-18.3c0-0.7-0.1-1.3-0.2-2V91z M152.5,95c0-5.7-0.4-11.4-1.9-17
					c-1.8-6.4-5.2-11.5-11.5-14.2c-2.6-1.1-5.3-2-8.1-2.7c-4.9-1.3-9.6-0.8-14.2,1.4c-4.9,2.3-9.3,5.4-13.6,8.6
					c-0.9,0.7-1.8,1.5-2,2.8c-0.2,1.1-1.3,1.8-2.5,1.8c-1.7,0-2.9-0.8-3.6-2.3c-0.4-1-1-1.7-1.9-2.2c-0.2-0.1-0.3-0.2-0.4-0.3
					c-4.5-3.5-9.2-6.7-14.5-8.9c-3-1.3-6.2-1.9-9.5-1.6c-4.3,0.4-8.3,1.7-12.1,3.5c-4.2,2-7.3,5.1-9.3,9.3C45.5,77,44.5,81,44,85.2
					c-0.9,7.7-0.6,15.4,0.3,23.1c1.7,14.4,6.8,27.6,14.5,39.9c3.5,5.6,8.4,9.4,15,10.6c4.9,0.9,9.9,1.7,14.9,2.4
					c1.1,0.2,2.4,0.4,3.5,0.2c3-0.6,6.1-0.8,9.1-0.5c2.4,0.2,4.8,0.7,7.3,0.2c4.7-0.9,9.5-1.6,14.2-2.5c4.6-0.9,8.6-3,11.6-6.8
					c1.6-2,3.1-4.1,4.4-6.3C148,129.9,152.6,113.1,152.5,95 M88.2,45.1c1,2.8,1.8,5.5,2.8,8.1c2,5.7,3.8,11.4,4.5,17.4
					c0.1,0.8,0.6,1.7,1.1,2.4c0.4,0.5,1.1,0.8,1.8,0.9c0.7,0.1,1.7-0.8,1.4-1.3c-0.7-1.6-0.7-3.3-0.6-4.9c0.1-6,0.2-12,0.4-18
					c0.1-1.8,0.4-3.6,0.6-5.6C96.3,44.4,92.4,44.7,88.2,45.1 M115.8,41.3c-0.3,0.1-0.4,0.1-0.5,0.2c-3.2,1.6-6.2,3.5-8.8,6
					c-2.8,2.8-5.2,5.9-5.5,10c-0.2,3.3,0,6.6,0,9.8c1.7-5.9,4.8-11.2,8-16.4c-2.3,6.1-5.3,11.9-7.3,18.2c0.1,0.1,0.2,0.2,0.4,0.3
					c0.2-0.3,0.3-0.6,0.5-0.8c1.4-1.6,2.9-3.1,4.3-4.8c3.9-4.5,7-9.4,8.4-15.3C115.7,46.1,116.1,43.8,115.8,41.3 M94.5,166.6
					c0.4,0.3,0.6,0.5,0.9,0.6c2,0.8,4,1.4,6,0c0.3-0.2,0.8-0.2,1.1-0.3c0.7-0.1,1.4-0.1,2-0.4c0.6-0.3,1.2-0.8,1.8-1.3
					c0.6-0.5,1.2-0.5,1.8,0.1c0.2,0.3,0.5,0.5,0.8,0.7c0.5,0.4,1,0.4,1.4-0.1c0.7-0.8,1.4-1.7,2.1-2.5c-0.1-0.1-0.1-0.1-0.2-0.2
					c-0.3,0-0.7,0.1-1,0.1c-2.2,0.1-4.4,0.7-6.7,0.3c-3.7-0.7-7.5-1-11.3-0.3c-2.9,0.5-5.8,0.5-8.7,0c-0.2,0-0.3,0-0.6,0
					c0.2,0.3,0.3,0.6,0.4,0.8c0.3,0.4,0.6,0.9,0.9,1.3c1.1,1.3,1.5,1.3,2.7,0.1c0.7-0.7,1.2-0.8,2-0.1c0.3,0.2,0.6,0.5,0.9,0.7
					C92,167,93.3,167.4,94.5,166.6"/>
				<path class="st2" d="M152.5,95c0.1,18.1-4.5,34.9-13.7,50.5c-1.3,2.2-2.8,4.3-4.4,6.3c-3,3.7-7,5.9-11.6,6.8
					c-4.7,0.9-9.5,1.6-14.2,2.5c-2.5,0.5-4.8,0-7.3-0.2c-3.1-0.2-6.1,0-9.1,0.5c-1.1,0.2-2.3,0-3.5-0.2c-5-0.8-9.9-1.6-14.9-2.4
					c-6.6-1.2-11.5-4.9-15-10.6c-7.7-12.3-12.8-25.5-14.5-39.9c-0.9-7.7-1.3-15.4-0.3-23.1c0.5-4.1,1.4-8.2,3.2-11.9
					c2-4.2,5.1-7.3,9.3-9.3c3.9-1.8,7.9-3.1,12.1-3.5c3.3-0.3,6.4,0.3,9.5,1.6c5.3,2.3,10,5.5,14.5,9c0.1,0.1,0.3,0.2,0.4,0.3
					c0.9,0.5,1.5,1.2,1.9,2.2c0.7,1.5,1.9,2.3,3.6,2.3c1.2,0,2.3-0.7,2.5-1.8c0.3-1.3,1.1-2.2,2-2.8c4.3-3.2,8.7-6.2,13.6-8.6
					c4.6-2.2,9.3-2.8,14.2-1.4c2.7,0.7,5.5,1.6,8.1,2.7c6.3,2.7,9.7,7.9,11.5,14.2C152.1,83.6,152.5,89.3,152.5,95 M62.7,72.1
					c-1.3-0.6-1.8-0.4-2.4,0.8c-0.4,0.7-0.7,1.5-0.8,2.3C58,81,58.3,86.8,59,92.7c0.7,6.1,2.1,12.1,3.8,18.1
					c2.4,8.6,4.9,17.1,8.8,25.1c1.1,2.2,2.3,4.4,3.6,6.5c0.9,1.5,2.1,1.4,2.9-0.2c0.6-1.1,1.1-2.2,1.6-3.3c1.1-2.4,1.5-2.4,3.4-0.6
					c1.5,1.4,2.9,2.9,4.4,4.3c0.7,0.7,1.6,1.3,2.5,1.7c1.1,0.5,2,0.1,2.5-1c0.2-0.4,0.3-0.9,0.4-1.4c0.1-1.5,0.3-2.9,0.3-4.4
					c0.1-5.8,0.1-11.5,0.2-17.3c0.1-7.1,0.4-14.1,1.4-21.1c0.6-4,1.2-8,1.7-12c0.2-1.2,0.2-2.4,0-3.6c-0.2-1.6-1.4-2-2.6-0.9
					c-0.6,0.6-1.1,1.2-1.6,1.9c-1,1.5-2,3.1-3,4.7c-0.2,0.3-0.5,0.5-0.8,1c-0.3-0.6-0.5-1.1-0.6-1.6c-0.3-0.7-0.4-1.5-0.7-2.2
					c-0.6-1.7-1.7-1.9-2.9-0.5c-0.6,0.7-1.2,1.5-1.7,2.4c-0.6,1-1.2,2.1-1.8,3.1c-0.5,0.7-0.8,0.8-1.2,0c-0.5-1-1-2-1.4-3
					c-1.9-5.2-2.9-10.6-3.5-16.1c-0.2-1.8-0.3-3.6-0.6-5.4c-0.2-1.3-1-2-2.3-2c-0.8,0-1.5,0.1-2.2,0.4c-1.3,0.4-2.5,1-3.7,1.4
					c-1.5,0.6-2.4,1.7-2.8,3.3C62.9,70.8,62.8,71.4,62.7,72.1 M134,128c1.3,0.5,1.7,0.3,2.4-0.7c0.3-0.4,0.5-0.8,0.7-1.2
					c3.9-9.2,7.4-18.5,8.2-28.7c0.2-3.3,0.4-6.6-0.3-9.9c-0.6-2.7-1.8-5.1-4.1-6.8c-1.5-1.1-2.8-0.7-3.3,1.1
					c-0.3,1.2-0.5,2.5-0.7,3.7c-0.5,2.4-1,4.9-1.6,7.3c-0.1,0.4-0.4,0.8-0.7,1.4c-0.3-0.7-0.5-1.1-0.6-1.6c-0.3-1.5-0.6-2.9-0.9-4.4
					c-0.5-2.7-0.9-5.4-1.4-8.1c-0.3-1.6-1.1-3.1-2.4-4.2c-1.3-1.2-2.7-1-3.7,0.3c-0.9,1.2-1.5,2.5-1.7,4c-0.3,2.2-0.1,4.4,0.5,6.6
					c0.7,2.7,1.5,5.4,2.1,8.2c1.6,7.2,1.5,14.4,0.2,21.5c-1.1,6.2-2.5,12.3-3.6,18.4c-0.3,1.6-0.6,3.3-0.6,5
					c-0.1,1.7,1.2,2.3,2.6,1.5c0.8-0.5,1.5-1.1,2.1-1.8c1-1.1,1.8-2.4,2.6-3.7c1.1-1.9,2-3.8,3.1-5.8
					C133.1,129.4,133.6,128.8,134,128"/>
				<path class="st3" d="M88.2,45.1c4.1-0.3,8-0.6,12-1c-0.2,2-0.5,3.8-0.6,5.6c-0.2,6-0.3,12-0.4,18c0,1.7-0.1,3.3,0.6,4.9
					c0.2,0.5-0.8,1.5-1.4,1.3c-0.6-0.1-1.4-0.4-1.8-0.9c-0.5-0.7-1-1.6-1.1-2.4c-0.6-6-2.5-11.7-4.5-17.4
					C90.1,50.5,89.2,47.9,88.2,45.1"/>
				<path class="st3" d="M94.5,166.6c-1.3,0.9-2.6,0.4-3.8-0.6c-0.3-0.2-0.6-0.5-0.9-0.7c-0.8-0.7-1.2-0.7-2,0.1
					c-1.2,1.2-1.6,1.2-2.7-0.1c-0.3-0.4-0.6-0.8-0.9-1.3c-0.1-0.2-0.3-0.4-0.4-0.8c0.2,0,0.4,0,0.6,0c2.9,0.4,5.7,0.5,8.7,0
					c3.8-0.6,7.6-0.3,11.3,0.3c2.3,0.4,4.4-0.1,6.7-0.3c0.3,0,0.7-0.1,1-0.1c0.1,0.1,0.1,0.1,0.2,0.2c-0.7,0.9-1.4,1.7-2.1,2.5
					c-0.4,0.4-0.9,0.4-1.4,0.1c-0.3-0.2-0.5-0.5-0.8-0.7c-0.6-0.6-1.1-0.6-1.8-0.1c-0.6,0.5-1.1,1-1.8,1.3c-0.6,0.3-1.3,0.3-2,0.4
					c-0.4,0.1-0.8,0.1-1.1,0.3c-2,1.3-4,0.8-6,0C95.1,167.1,94.9,166.8,94.5,166.6"/>
				<path class="st4" d="M62.7,72.1c0.1-0.7,0.3-1.3,0.4-2c0.4-1.6,1.3-2.7,2.8-3.3c1.2-0.5,2.4-1,3.7-1.4c0.7-0.2,1.5-0.4,2.2-0.4
					c1.3,0,2.1,0.7,2.3,2c0.3,1.8,0.4,3.6,0.6,5.4c0.6,5.5,1.7,10.9,3.5,16.1c0.4,1,0.9,2.1,1.4,3c0.4,0.8,0.7,0.7,1.2,0
					c0.6-1,1.2-2.1,1.8-3.1c0.5-0.8,1-1.6,1.7-2.4c1.2-1.3,2.2-1.1,2.9,0.5c0.3,0.7,0.5,1.5,0.7,2.2c0.2,0.5,0.4,0.9,0.6,1.6
					c0.3-0.4,0.6-0.7,0.8-1c1-1.6,1.9-3.1,3-4.7c0.5-0.7,1-1.3,1.6-1.9c1.2-1.1,2.3-0.8,2.6,0.9c0.2,1.2,0.1,2.4,0,3.6
					c-0.5,4-1.1,8-1.7,12c-1,7-1.3,14-1.4,21.1c-0.1,5.8-0.1,11.5-0.2,17.3c0,1.5-0.2,2.9-0.3,4.4c0,0.5-0.2,0.9-0.4,1.4
					c-0.5,1.1-1.4,1.5-2.5,1c-0.9-0.5-1.8-1-2.5-1.7c-1.5-1.4-2.9-2.9-4.4-4.3c-1.9-1.8-2.3-1.8-3.4,0.6c-0.5,1.1-1,2.3-1.6,3.3
					c-0.9,1.6-2,1.7-2.9,0.2c-1.3-2.1-2.6-4.3-3.6-6.5c-3.9-8-6.4-16.5-8.8-25.1c-1.7-5.9-3.1-11.9-3.8-18.1
					c-0.7-5.8-1-11.7,0.5-17.4c0.2-0.8,0.5-1.6,0.8-2.3C60.9,71.7,61.4,71.5,62.7,72.1 M61.5,72.7c-0.1,0-0.1,0-0.2-0.1
					c-0.2,0.5-0.6,1-0.7,1.5c-0.5,2.4-1.1,4.8-1.2,7.2c-0.4,6,0.3,12,1.5,18c1.9,9.3,4.7,18.4,7.9,27.3c1.8,5,4,9.8,6.8,14.3
					c0.3,0.5,0.7,0.9,1.1,1.6c0.5-1,0.9-1.8,1.3-2.5c0.5-1,1-2.1,1.6-3.1c0.7-1.1,1.7-1.2,2.7-0.5c0.6,0.4,1.1,0.9,1.6,1.4
					c1.3,1.2,2.5,2.5,3.8,3.8c0.6,0.6,1.3,1.1,2,1.6c1.1,0.7,1.6,0.4,1.8-0.8c0.1-0.6,0.2-1.3,0.2-1.9c0.1-6,0.3-12,0.3-18.1
					c0-9.9,0.7-19.8,2.3-29.6c0.4-2.5,0.6-5.1,0.9-7.7c0-0.5-0.1-1-0.2-1.7c-0.5,0.5-0.8,0.7-1.1,1.1c-0.6,0.8-1.1,1.6-1.7,2.4
					c-0.9,1.3-1.6,2.7-2.5,3.9c-0.9,1.2-2,1.1-2.6-0.3c-0.4-1-0.7-2-1.1-3c-0.1-0.3-0.3-0.7-0.4-1c-0.1,0-0.2-0.1-0.3-0.1
					c-0.8,1.1-1.5,2.2-2.3,3.4c-0.6,0.9-1,1.9-1.6,2.8c-0.7,1.1-1.7,1.1-2.6,0.1c-0.5-0.7-1-1.4-1.3-2.2c-0.8-2.2-1.5-4.3-2.1-6.5
					c-1.3-5.2-2-10.4-2.3-15.8c-0.1-1.8-0.8-2.3-2.6-1.9c-1.2,0.3-2.4,1-3.6,1.3c-1.9,0.6-2.9,1.9-3.1,3.8c-0.1,0.8-0.3,1.6-0.5,2.4
					c-0.1,0.2-0.4,0.5-0.6,0.5c-0.2,0-0.4-0.2-0.6-0.4c-0.1-0.1-0.2-0.3-0.2-0.5c-0.2,0-0.4,0.1-0.6,0.1
					C61.4,73.2,61.4,72.9,61.5,72.7"/>
				<path class="st4" d="M61.5,72.7c0,0.3,0,0.6-0.1,0.9c0.2,0,0.4-0.1,0.6-0.1c0.1,0.2,0.1,0.3,0.2,0.5c0.2,0.2,0.4,0.4,0.6,0.4
					c0.2,0,0.5-0.3,0.6-0.5c0.2-0.8,0.4-1.6,0.5-2.4c0.3-1.9,1.2-3.3,3.1-3.8c1.2-0.4,2.4-1,3.6-1.3c1.8-0.5,2.5,0,2.6,1.9
					c0.4,5.3,1,10.6,2.3,15.8c0.6,2.2,1.3,4.4,2.1,6.5c0.3,0.8,0.8,1.5,1.3,2.2c0.8,1,1.8,1,2.6-0.1c0.6-0.9,1.1-1.9,1.6-2.8
					c0.7-1.1,1.5-2.3,2.3-3.4c0.1,0,0.2,0.1,0.3,0.1c0.1,0.3,0.3,0.6,0.4,1c0.4,1,0.6,2,1.1,3c0.6,1.4,1.7,1.5,2.6,0.3
					c0.9-1.3,1.7-2.6,2.5-3.9c0.5-0.8,1.1-1.6,1.7-2.4c0.3-0.3,0.6-0.6,1.1-1.1c0.1,0.7,0.2,1.2,0.2,1.7c-0.3,2.6-0.5,5.1-0.9,7.7
					c-1.6,9.8-2.3,19.7-2.3,29.6c0,6-0.2,12-0.3,18.1c0,0.6-0.1,1.3-0.2,1.9c-0.2,1.2-0.7,1.4-1.8,0.8c-0.7-0.5-1.4-1-2-1.6
					c-1.3-1.2-2.5-2.5-3.8-3.8c-0.5-0.5-1-1-1.6-1.4c-1.1-0.7-2-0.6-2.7,0.5c-0.6,1-1.1,2.1-1.6,3.1c-0.4,0.8-0.8,1.5-1.3,2.5
					c-0.5-0.7-0.8-1.1-1.1-1.6c-2.8-4.5-5-9.3-6.8-14.3c-3.3-8.9-6-18-7.9-27.3c-1.2-5.9-1.9-11.9-1.5-18c0.2-2.4,0.8-4.8,1.2-7.2
					c0.1-0.5,0.4-1,0.7-1.5C61.3,72.6,61.4,72.6,61.5,72.7"/>
			</g>
		</g>
	</g>
	<text transform="matrix(1 0 0 1 62 120)" class="st5 st6 st7">w</text>
</g>
<g id="H">
	<g>
		<g>
			<defs>
				<rect id="SVGID_5_" x="5" y="143" width="192.7" height="222"/>
			</defs>
			<clipPath id="SVGID_6_">
				<use xlink:href="#SVGID_5_"  style="overflow:visible;"/>
			</clipPath>
			<g class="st8">
				<defs>
					<rect id="SVGID_7_" x="17.7" y="174" width="83.6" height="168.1"/>
				</defs>
				<clipPath id="SVGID_8_">
					<use xlink:href="#SVGID_7_"  style="overflow:visible;"/>
				</clipPath>
				<path class="st9" d="M44.6,240c0.2-1.9,0.3-3.8,0.5-5.7c0.5-4.2,1.4-8.4,3.2-12.3c2.3-5.2,6-9,11.2-11.3
					c3.8-1.7,7.7-2.9,11.8-3.3c3.8-0.4,7.4,0.3,10.9,1.9c4.6,2.2,8.9,4.8,13,7.7c0.6,0.4,1.1,1,1.7,1.6c0.1-0.1,0.2-0.1,0.3-0.2
					c-0.8-2.8-1.4-5.7-2.3-8.5c-1.1-3.7-2.5-7.4-3.7-11c-0.5-1.6-0.9-3.2-1.3-4.9c-0.2-0.8,0.1-1.3,0.9-1.4c4-0.4,8-0.7,12-1.1
					c0.3,0,0.6,0,1,0c1.5,0.1,1.7,0.7,1.4,2.1c-0.4,2.3-0.7,4.6-1,6.9c0.1,0,0.2,0.1,0.2,0.1c0.1-0.1,0.2-0.3,0.3-0.4
					c3.1-5.2,7.7-8.6,13.1-11.1c0.2-0.1,0.4-0.1,0.6-0.2c1.5-0.5,2.5,0.1,2.7,1.8c0.3,2.3,0,4.6-0.4,6.8c-1.1,5.6-3.8,10.4-7.4,14.8
					c-0.2,0.3-0.5,0.6-0.6,1c1.4-0.8,2.8-1.6,4.2-2.4c3.3-1.8,6.7-3.4,10.5-3.6c3.4-0.3,6.7,0.4,9.9,1.3c4.1,1.2,7.9,2.7,11.2,5.6
					c4.1,3.6,6.3,8.3,7.7,13.5c1.5,6,1.9,12.1,1.7,18.2c-0.2,10.2-1.6,20.3-4.9,30.1c-2.7,8-6.2,15.7-10.8,22.8
					c-3.8,5.9-8.9,9.9-15.8,11.3c-1.8,0.4-3.7,0.8-5.5,1.2c-1.1,0.2-2.4,0.1-3.2,0.6c-0.8,0.5-1.2,1.8-1.8,2.7
					c-0.1,0.2-0.2,0.3-0.3,0.5c-1.7,2.3-3.1,2.5-5.3,0.7c-0.7,0.5-1.4,1.1-2.1,1.3c-1.4,0.4-2.7,1.1-4.1,1.6
					c-1.9,0.7-3.8,0.3-5.6-0.8c-0.5-0.3-1-0.5-1.7-0.4c-1.3,0.2-2.5-0.3-3.5-1c-0.4-0.3-0.7-0.5-1.1-0.8c-0.2,0.2-0.4,0.4-0.6,0.6
					c-1.2,1-2.6,1-3.6-0.1c-1-1-1.7-2.3-2.4-3.5c-0.4-0.6-0.7-0.9-1.4-1.1c-3-0.6-6.1-1.2-9.1-1.9c-6-1.4-10.6-4.8-14-9.8
					c-6.7-9.8-11.2-20.6-14-32.1c-1.5-6-2.2-12.1-2.5-18.3c0-0.7-0.1-1.3-0.2-2V240z M155.8,244c0-5.7-0.4-11.4-1.9-17
					c-1.8-6.4-5.2-11.5-11.5-14.2c-2.6-1.1-5.3-2-8.1-2.7c-4.9-1.3-9.6-0.8-14.2,1.4c-4.9,2.3-9.3,5.4-13.6,8.6
					c-0.9,0.7-1.8,1.5-2,2.8c-0.2,1.1-1.3,1.8-2.5,1.8c-1.7,0-2.9-0.8-3.6-2.3c-0.4-1-1-1.7-1.9-2.2c-0.2-0.1-0.3-0.2-0.4-0.3
					c-4.5-3.5-9.2-6.7-14.5-8.9c-3-1.3-6.2-1.9-9.5-1.6c-4.3,0.4-8.3,1.7-12.1,3.5c-4.2,2-7.3,5.1-9.3,9.3
					c-1.8,3.8-2.7,7.8-3.2,11.9c-0.9,7.7-0.6,15.4,0.3,23.1c1.7,14.4,6.8,27.6,14.5,39.9c3.5,5.6,8.4,9.4,15,10.6
					c4.9,0.9,9.9,1.7,14.9,2.4c1.1,0.2,2.4,0.4,3.5,0.2c3-0.6,6.1-0.8,9.1-0.5c2.4,0.2,4.8,0.7,7.3,0.2c4.7-0.9,9.5-1.6,14.2-2.5
					c4.6-0.9,8.6-3,11.6-6.8c1.6-2,3.1-4.1,4.4-6.3C151.3,278.9,156,262.1,155.8,244 M91.6,194.1c1,2.8,1.8,5.5,2.8,8.1
					c2,5.7,3.8,11.4,4.5,17.4c0.1,0.8,0.6,1.7,1.1,2.4c0.4,0.5,1.1,0.8,1.8,0.9c0.7,0.1,1.7-0.8,1.4-1.3c-0.7-1.6-0.7-3.3-0.6-4.9
					c0.1-6,0.2-12,0.4-18c0.1-1.8,0.4-3.6,0.6-5.6C99.6,193.4,95.7,193.7,91.6,194.1 M119.1,190.3c-0.3,0.1-0.4,0.1-0.5,0.2
					c-3.2,1.6-6.2,3.5-8.8,6c-2.8,2.8-5.2,5.9-5.5,10c-0.2,3.3,0,6.6,0,9.8c1.7-5.9,4.8-11.2,8-16.4c-2.3,6.1-5.3,11.9-7.3,18.2
					c0.1,0.1,0.2,0.2,0.4,0.3c0.2-0.3,0.3-0.6,0.5-0.8c1.4-1.6,2.9-3.1,4.3-4.8c3.9-4.5,7-9.4,8.4-15.3
					C119.1,195.1,119.4,192.8,119.1,190.3 M97.9,315.6c0.4,0.3,0.6,0.5,0.9,0.6c2,0.8,4,1.4,6,0c0.3-0.2,0.8-0.2,1.1-0.3
					c0.7-0.1,1.4-0.1,2-0.4c0.6-0.3,1.2-0.8,1.8-1.3c0.6-0.5,1.2-0.5,1.8,0.1c0.2,0.3,0.5,0.5,0.8,0.7c0.5,0.4,1,0.4,1.4-0.1
					c0.7-0.8,1.4-1.7,2.1-2.5c-0.1-0.1-0.1-0.1-0.2-0.2c-0.3,0-0.7,0.1-1,0.1c-2.2,0.1-4.4,0.7-6.7,0.3c-3.7-0.7-7.5-1-11.3-0.3
					c-2.9,0.5-5.8,0.5-8.7,0c-0.2,0-0.3,0-0.6,0c0.2,0.3,0.3,0.6,0.4,0.8c0.3,0.4,0.6,0.9,0.9,1.3c1.1,1.3,1.5,1.3,2.7,0.1
					c0.7-0.7,1.2-0.8,2-0.1c0.3,0.2,0.6,0.5,0.9,0.7C95.3,316,96.6,316.4,97.9,315.6"/>
				<path class="st10" d="M155.8,244c0.1,18.1-4.5,34.9-13.7,50.5c-1.3,2.2-2.8,4.3-4.4,6.3c-3,3.7-7,5.9-11.6,6.8
					c-4.7,0.9-9.5,1.6-14.2,2.5c-2.5,0.5-4.8,0-7.3-0.2c-3.1-0.2-6.1,0-9.1,0.5c-1.1,0.2-2.3,0-3.5-0.2c-5-0.8-9.9-1.6-14.9-2.4
					c-6.6-1.2-11.5-4.9-15-10.6c-7.7-12.3-12.8-25.5-14.5-39.9c-0.9-7.7-1.3-15.4-0.3-23.1c0.5-4.1,1.4-8.2,3.2-11.9
					c2-4.2,5.1-7.3,9.3-9.3c3.9-1.8,7.9-3.1,12.1-3.5c3.3-0.3,6.4,0.3,9.5,1.6c5.3,2.3,10,5.5,14.5,9c0.1,0.1,0.3,0.2,0.4,0.3
					c0.9,0.5,1.5,1.2,1.9,2.2c0.7,1.5,1.9,2.3,3.6,2.3c1.2,0,2.3-0.7,2.5-1.8c0.3-1.3,1.1-2.2,2-2.8c4.3-3.2,8.7-6.2,13.6-8.6
					c4.6-2.2,9.3-2.8,14.2-1.4c2.7,0.7,5.5,1.6,8.1,2.7c6.3,2.7,9.7,7.9,11.5,14.2C155.5,232.6,155.9,238.3,155.8,244 M66,221.1
					c-1.3-0.6-1.8-0.4-2.4,0.8c-0.4,0.7-0.7,1.5-0.8,2.3c-1.4,5.8-1.1,11.6-0.5,17.4c0.7,6.1,2.1,12.1,3.8,18.1
					c2.4,8.6,4.9,17.1,8.8,25.1c1.1,2.2,2.3,4.4,3.6,6.5c0.9,1.5,2.1,1.4,2.9-0.2c0.6-1.1,1.1-2.2,1.6-3.3c1.1-2.4,1.5-2.4,3.4-0.6
					c1.5,1.4,2.9,2.9,4.4,4.3c0.7,0.7,1.6,1.3,2.5,1.7c1.1,0.5,2,0.1,2.5-1c0.2-0.4,0.3-0.9,0.4-1.4c0.1-1.5,0.3-2.9,0.3-4.4
					c0.1-5.8,0.1-11.5,0.2-17.3c0.1-7.1,0.4-14.1,1.4-21.1c0.6-4,1.2-8,1.7-12c0.2-1.2,0.2-2.4,0-3.6c-0.2-1.6-1.4-2-2.6-0.9
					c-0.6,0.6-1.1,1.2-1.6,1.9c-1,1.5-2,3.1-3,4.7c-0.2,0.3-0.5,0.5-0.8,1c-0.3-0.6-0.5-1.1-0.6-1.6c-0.3-0.7-0.4-1.5-0.7-2.2
					c-0.6-1.7-1.7-1.9-2.9-0.5c-0.6,0.7-1.2,1.5-1.7,2.4c-0.6,1-1.2,2.1-1.8,3.1c-0.5,0.7-0.8,0.8-1.2,0c-0.5-1-1-2-1.4-3
					c-1.9-5.2-2.9-10.6-3.5-16.1c-0.2-1.8-0.3-3.6-0.6-5.4c-0.2-1.3-1-2-2.3-2c-0.8,0-1.5,0.1-2.2,0.4c-1.3,0.4-2.5,1-3.7,1.4
					c-1.5,0.6-2.4,1.7-2.8,3.3C66.3,219.8,66.1,220.4,66,221.1 M137.3,277c1.3,0.5,1.7,0.3,2.4-0.7c0.3-0.4,0.5-0.8,0.7-1.2
					c3.9-9.2,7.4-18.5,8.2-28.7c0.2-3.3,0.4-6.6-0.3-9.9c-0.6-2.7-1.8-5.1-4.1-6.8c-1.5-1.1-2.8-0.7-3.3,1.1
					c-0.3,1.2-0.5,2.5-0.7,3.7c-0.5,2.4-1,4.9-1.6,7.3c-0.1,0.4-0.4,0.8-0.7,1.4c-0.3-0.7-0.5-1.1-0.6-1.6c-0.3-1.5-0.6-2.9-0.9-4.4
					c-0.5-2.7-0.9-5.4-1.4-8.1c-0.3-1.6-1.1-3.1-2.4-4.2c-1.3-1.2-2.7-1-3.7,0.3c-0.9,1.2-1.5,2.5-1.7,4c-0.3,2.2-0.1,4.4,0.5,6.6
					c0.7,2.7,1.5,5.4,2.1,8.2c1.6,7.2,1.5,14.4,0.2,21.5c-1.1,6.2-2.5,12.3-3.6,18.4c-0.3,1.6-0.6,3.3-0.6,5
					c-0.1,1.7,1.2,2.3,2.6,1.5c0.8-0.5,1.5-1.1,2.1-1.8c1-1.1,1.8-2.4,2.6-3.7c1.1-1.9,2-3.8,3.1-5.8
					C136.5,278.4,136.9,277.8,137.3,277"/>
				<path class="st11" d="M91.6,194.1c4.1-0.3,8-0.6,12-1c-0.2,2-0.5,3.8-0.6,5.6c-0.2,6-0.3,12-0.4,18c0,1.7-0.1,3.3,0.6,4.9
					c0.2,0.5-0.8,1.5-1.4,1.3c-0.6-0.1-1.4-0.4-1.8-0.9c-0.5-0.7-1-1.6-1.1-2.4c-0.6-6-2.5-11.7-4.5-17.4
					C93.4,199.5,92.6,196.9,91.6,194.1"/>
				<path class="st11" d="M97.9,315.6c-1.3,0.9-2.6,0.4-3.8-0.6c-0.3-0.2-0.6-0.5-0.9-0.7c-0.8-0.7-1.2-0.7-2,0.1
					c-1.2,1.2-1.6,1.2-2.7-0.1c-0.3-0.4-0.6-0.8-0.9-1.3c-0.1-0.2-0.3-0.4-0.4-0.8c0.2,0,0.4,0,0.6,0c2.9,0.4,5.7,0.5,8.7,0
					c3.8-0.6,7.6-0.3,11.3,0.3c2.3,0.4,4.4-0.1,6.7-0.3c0.3,0,0.7-0.1,1-0.1c0.1,0.1,0.1,0.1,0.2,0.2c-0.7,0.9-1.4,1.7-2.1,2.5
					c-0.4,0.4-0.9,0.4-1.4,0.1c-0.3-0.2-0.5-0.5-0.8-0.7c-0.6-0.6-1.1-0.6-1.8-0.1c-0.6,0.5-1.1,1-1.8,1.3c-0.6,0.3-1.3,0.3-2,0.4
					c-0.4,0.1-0.8,0.1-1.1,0.3c-2,1.3-4,0.8-6,0C98.5,316.1,98.2,315.8,97.9,315.6"/>
				<path class="st12" d="M66,221.1c0.1-0.7,0.3-1.3,0.4-2c0.4-1.6,1.3-2.7,2.8-3.3c1.2-0.5,2.4-1,3.7-1.4c0.7-0.2,1.5-0.4,2.2-0.4
					c1.3,0,2.1,0.7,2.3,2c0.3,1.8,0.4,3.6,0.6,5.4c0.6,5.5,1.7,10.9,3.5,16.1c0.4,1,0.9,2.1,1.4,3c0.4,0.8,0.7,0.7,1.2,0
					c0.6-1,1.2-2.1,1.8-3.1c0.5-0.8,1-1.6,1.7-2.4c1.2-1.3,2.2-1.1,2.9,0.5c0.3,0.7,0.5,1.5,0.7,2.2c0.2,0.5,0.4,0.9,0.6,1.6
					c0.3-0.4,0.6-0.7,0.8-1c1-1.6,1.9-3.1,3-4.7c0.5-0.7,1-1.3,1.6-1.9c1.2-1.1,2.3-0.8,2.6,0.9c0.2,1.2,0.1,2.4,0,3.6
					c-0.5,4-1.1,8-1.7,12c-1,7-1.3,14-1.4,21.1c-0.1,5.8-0.1,11.5-0.2,17.3c0,1.5-0.2,2.9-0.3,4.4c0,0.5-0.2,0.9-0.4,1.4
					c-0.5,1.1-1.4,1.5-2.5,1c-0.9-0.5-1.8-1-2.5-1.7c-1.5-1.4-2.9-2.9-4.4-4.3c-1.9-1.8-2.3-1.8-3.4,0.6c-0.5,1.1-1,2.3-1.6,3.3
					c-0.9,1.6-2,1.7-2.9,0.2c-1.3-2.1-2.6-4.3-3.6-6.5c-3.9-8-6.4-16.5-8.8-25.1c-1.7-5.9-3.1-11.9-3.8-18.1
					c-0.7-5.8-1-11.7,0.5-17.4c0.2-0.8,0.5-1.6,0.8-2.3C64.2,220.7,64.7,220.5,66,221.1 M64.8,221.7c-0.1,0-0.1,0-0.2-0.1
					c-0.2,0.5-0.6,1-0.7,1.5c-0.5,2.4-1.1,4.8-1.2,7.2c-0.4,6,0.3,12,1.5,18c1.9,9.3,4.7,18.4,7.9,27.3c1.8,5,4,9.8,6.8,14.3
					c0.3,0.5,0.7,0.9,1.1,1.6c0.5-1,0.9-1.8,1.3-2.5c0.5-1,1-2.1,1.6-3.1c0.7-1.1,1.7-1.2,2.7-0.5c0.6,0.4,1.1,0.9,1.6,1.4
					c1.3,1.2,2.5,2.5,3.8,3.8c0.6,0.6,1.3,1.1,2,1.6c1.1,0.7,1.6,0.4,1.8-0.8c0.1-0.6,0.2-1.3,0.2-1.9c0.1-6,0.3-12,0.3-18.1
					c0-9.9,0.7-19.8,2.3-29.6c0.4-2.5,0.6-5.1,0.9-7.7c0-0.5-0.1-1-0.2-1.7c-0.5,0.5-0.8,0.7-1.1,1.1c-0.6,0.8-1.1,1.6-1.7,2.4
					c-0.9,1.3-1.6,2.7-2.5,3.9c-0.9,1.2-2,1.1-2.6-0.3c-0.4-1-0.7-2-1.1-3c-0.1-0.3-0.3-0.7-0.4-1c-0.1,0-0.2-0.1-0.3-0.1
					c-0.8,1.1-1.5,2.2-2.3,3.4c-0.6,0.9-1,1.9-1.6,2.8c-0.7,1.1-1.7,1.1-2.6,0.1c-0.5-0.7-1-1.4-1.3-2.2c-0.8-2.2-1.5-4.3-2.1-6.5
					c-1.3-5.2-2-10.4-2.3-15.8c-0.1-1.8-0.8-2.3-2.6-1.9c-1.2,0.3-2.4,1-3.6,1.3c-1.9,0.6-2.9,1.9-3.1,3.8c-0.1,0.8-0.3,1.6-0.5,2.4
					c-0.1,0.2-0.4,0.5-0.6,0.5c-0.2,0-0.4-0.2-0.6-0.4c-0.1-0.1-0.2-0.3-0.2-0.5c-0.2,0-0.4,0.1-0.6,0.1
					C64.8,222.2,64.8,221.9,64.8,221.7"/>
				<path class="st12" d="M64.8,221.7c0,0.3,0,0.6-0.1,0.9c0.2,0,0.4-0.1,0.6-0.1c0.1,0.2,0.1,0.3,0.2,0.5c0.2,0.2,0.4,0.4,0.6,0.4
					c0.2,0,0.5-0.3,0.6-0.5c0.2-0.8,0.4-1.6,0.5-2.4c0.3-1.9,1.2-3.3,3.1-3.8c1.2-0.4,2.4-1,3.6-1.3c1.8-0.5,2.5,0,2.6,1.9
					c0.4,5.3,1,10.6,2.3,15.8c0.6,2.2,1.3,4.4,2.1,6.5c0.3,0.8,0.8,1.5,1.3,2.2c0.8,1,1.8,1,2.6-0.1c0.6-0.9,1.1-1.9,1.6-2.8
					c0.7-1.1,1.5-2.3,2.3-3.4c0.1,0,0.2,0.1,0.3,0.1c0.1,0.3,0.3,0.6,0.4,1c0.4,1,0.6,2,1.1,3c0.6,1.4,1.7,1.5,2.6,0.3
					c0.9-1.3,1.7-2.6,2.5-3.9c0.5-0.8,1.1-1.6,1.7-2.4c0.3-0.3,0.6-0.6,1.1-1.1c0.1,0.7,0.2,1.2,0.2,1.7c-0.3,2.6-0.5,5.1-0.9,7.7
					c-1.6,9.8-2.3,19.7-2.3,29.6c0,6-0.2,12-0.3,18.1c0,0.6-0.1,1.3-0.2,1.9c-0.2,1.2-0.7,1.4-1.8,0.8c-0.7-0.5-1.4-1-2-1.6
					c-1.3-1.2-2.5-2.5-3.8-3.8c-0.5-0.5-1-1-1.6-1.4c-1.1-0.7-2-0.6-2.7,0.5c-0.6,1-1.1,2.1-1.6,3.1c-0.4,0.8-0.8,1.5-1.3,2.5
					c-0.5-0.7-0.8-1.1-1.1-1.6c-2.8-4.5-5-9.3-6.8-14.3c-3.3-8.9-6-18-7.9-27.3c-1.2-5.9-1.9-11.9-1.5-18c0.2-2.4,0.8-4.8,1.2-7.2
					c0.1-0.5,0.4-1,0.7-1.5C64.7,221.6,64.7,221.6,64.8,221.7"/>
			</g>
		</g>
	</g>
	<text transform="matrix(1 0 0 1 64 273)" class="st5 st6 st7">h</text>
</g>
<g id="U">
	<g>
		<g>
			<defs>
				<rect id="SVGID_9_" x="484.9" y="347" width="119.8" height="138"/>
			</defs>
			<clipPath id="SVGID_10_">
				<use xlink:href="#SVGID_9_"  style="overflow:visible;"/>
			</clipPath>
			<g class="st13">
				<defs>
					<rect id="SVGID_11_" x="544.8" y="366.3" width="52" height="104.5"/>
				</defs>
				<clipPath id="SVGID_12_">
					<use xlink:href="#SVGID_11_"  style="overflow:visible;"/>
				</clipPath>
				<path class="st14" d="M509.5,407.3c0.1-1.2,0.2-2.4,0.3-3.5c0.3-2.6,0.9-5.2,2-7.7c1.4-3.2,3.7-5.6,7-7c2.3-1,4.8-1.8,7.4-2.1
					c2.4-0.3,4.6,0.2,6.8,1.2c2.9,1.3,5.5,3,8.1,4.8c0.4,0.3,0.7,0.6,1,1c0.1,0,0.1-0.1,0.2-0.1c-0.5-1.8-0.9-3.5-1.4-5.3
					c-0.7-2.3-1.5-4.6-2.3-6.9c-0.3-1-0.5-2-0.8-3c-0.1-0.5,0.1-0.8,0.6-0.9c2.5-0.2,5-0.5,7.5-0.7c0.2,0,0.4,0,0.6,0
					c0.9,0.1,1.1,0.4,0.9,1.3c-0.3,1.4-0.4,2.9-0.6,4.3c0.1,0,0.1,0,0.2,0.1c0.1-0.1,0.1-0.2,0.2-0.2c1.9-3.2,4.8-5.3,8.2-6.9
					c0.1-0.1,0.2-0.1,0.4-0.1c1-0.3,1.6,0.1,1.7,1.1c0.2,1.4,0,2.8-0.3,4.2c-0.7,3.5-2.4,6.5-4.6,9.2c-0.1,0.2-0.3,0.4-0.4,0.6
					c0.9-0.5,1.8-1,2.6-1.5c2-1.1,4.1-2.1,6.5-2.3c2.1-0.2,4.1,0.2,6.2,0.8c2.5,0.7,4.9,1.7,7,3.5c2.6,2.2,3.9,5.2,4.8,8.4
					c1,3.7,1.2,7.5,1.1,11.3c-0.1,6.4-1,12.6-3,18.7c-1.7,5-3.9,9.7-6.7,14.2c-2.4,3.7-5.5,6.1-9.8,7c-1.1,0.2-2.3,0.5-3.4,0.7
					c-0.7,0.1-1.5,0-2,0.4c-0.5,0.3-0.7,1.1-1.1,1.7c-0.1,0.1-0.1,0.2-0.2,0.3c-1,1.4-1.9,1.5-3.3,0.4c-0.4,0.3-0.8,0.7-1.3,0.8
					c-0.9,0.3-1.7,0.7-2.6,1c-1.2,0.5-2.4,0.2-3.5-0.5c-0.3-0.2-0.6-0.3-1.1-0.3c-0.8,0.1-1.5-0.2-2.2-0.6c-0.2-0.2-0.4-0.3-0.7-0.5
					c-0.2,0.1-0.3,0.2-0.4,0.3c-0.7,0.6-1.6,0.6-2.2,0c-0.6-0.6-1.1-1.4-1.5-2.2c-0.2-0.4-0.4-0.6-0.9-0.7c-1.9-0.4-3.8-0.7-5.6-1.2
					c-3.7-0.9-6.6-3-8.7-6.1c-4.1-6.1-6.9-12.8-8.7-19.9c-0.9-3.7-1.3-7.5-1.5-11.4c0-0.4-0.1-0.8-0.1-1.2V407.3z M578.7,409.8
					c0-3.6-0.2-7.1-1.2-10.6c-1.1-4-3.3-7.2-7.1-8.9c-1.6-0.7-3.3-1.2-5-1.7c-3-0.8-6-0.5-8.9,0.9c-3,1.4-5.8,3.3-8.5,5.3
					c-0.6,0.4-1.1,0.9-1.3,1.8c-0.1,0.7-0.8,1.1-1.6,1.1c-1,0-1.8-0.5-2.2-1.4c-0.3-0.6-0.6-1-1.2-1.3c-0.1-0.1-0.2-0.1-0.3-0.2
					c-2.8-2.2-5.7-4.1-9-5.6c-1.9-0.8-3.8-1.2-5.9-1c-2.6,0.3-5.2,1-7.5,2.2c-2.6,1.2-4.5,3.2-5.8,5.8c-1.1,2.4-1.7,4.9-2,7.4
					c-0.6,4.8-0.4,9.6,0.2,14.4c1.1,9,4.2,17.2,9,24.8c2.2,3.5,5.2,5.8,9.4,6.6c3.1,0.5,6.2,1,9.2,1.5c0.7,0.1,1.5,0.2,2.2,0.1
					c1.9-0.4,3.8-0.5,5.7-0.3c1.5,0.1,3,0.4,4.5,0.1c2.9-0.6,5.9-1,8.8-1.6c2.9-0.6,5.3-1.9,7.2-4.2c1-1.2,1.9-2.5,2.7-3.9
					C575.9,431.5,578.8,421.1,578.7,409.8 M538.8,378.7c0.6,1.8,1.1,3.4,1.7,5c1.2,3.5,2.4,7.1,2.8,10.8c0.1,0.5,0.4,1.1,0.7,1.5
					c0.2,0.3,0.7,0.5,1.1,0.6c0.4,0.1,1-0.5,0.9-0.8c-0.4-1-0.4-2-0.4-3.1c0.1-3.7,0.1-7.4,0.3-11.2c0-1.1,0.2-2.2,0.4-3.5
					C543.8,378.3,541.3,378.5,538.8,378.7 M555.9,376.4c-0.2,0.1-0.3,0.1-0.3,0.1c-2,1-3.9,2.2-5.5,3.7c-1.8,1.7-3.2,3.7-3.4,6.2
					c-0.1,2,0,4.1,0,6.1c1.1-3.7,3-7,5-10.2c-1.5,3.8-3.3,7.4-4.5,11.3c0.1,0.1,0.2,0.1,0.2,0.2c0.1-0.2,0.2-0.4,0.3-0.5
					c0.9-1,1.8-1.9,2.7-3c2.4-2.8,4.4-5.9,5.2-9.5C555.8,379.4,556.1,378,555.9,376.4 M542.7,454.3c0.2,0.2,0.4,0.3,0.5,0.4
					c1.2,0.5,2.5,0.8,3.7,0c0.2-0.1,0.5-0.1,0.7-0.2c0.4-0.1,0.9-0.1,1.2-0.2c0.4-0.2,0.7-0.5,1.1-0.8c0.4-0.3,0.7-0.3,1.1,0
					c0.2,0.2,0.3,0.3,0.5,0.4c0.3,0.2,0.6,0.2,0.8,0c0.5-0.5,0.9-1.1,1.3-1.6c0,0-0.1-0.1-0.1-0.1c-0.2,0-0.4,0-0.6,0.1
					c-1.4,0.1-2.7,0.4-4.1,0.2c-2.3-0.4-4.7-0.6-7-0.2c-1.8,0.3-3.6,0.3-5.4,0c-0.1,0-0.2,0-0.3,0c0.1,0.2,0.2,0.3,0.3,0.5
					c0.2,0.3,0.4,0.5,0.6,0.8c0.7,0.8,0.9,0.8,1.7,0.1c0.5-0.5,0.7-0.5,1.2,0c0.2,0.2,0.4,0.3,0.5,0.5
					C541.1,454.6,541.9,454.8,542.7,454.3"/>
				<path class="st15" d="M578.7,409.8c0.1,11.3-2.8,21.7-8.5,31.4c-0.8,1.4-1.7,2.7-2.7,3.9c-1.8,2.3-4.3,3.6-7.2,4.2
					c-2.9,0.6-5.9,1-8.8,1.6c-1.5,0.3-3,0-4.5-0.1c-1.9-0.1-3.8,0-5.7,0.3c-0.7,0.1-1.5,0-2.2-0.1c-3.1-0.5-6.2-1-9.2-1.5
					c-4.1-0.7-7.2-3.1-9.4-6.6c-4.8-7.6-8-15.8-9-24.8c-0.6-4.8-0.8-9.6-0.2-14.4c0.3-2.6,0.9-5.1,2-7.4c1.3-2.6,3.2-4.6,5.8-5.8
					c2.4-1.1,4.9-1.9,7.5-2.2c2-0.2,4,0.2,5.9,1c3.3,1.4,6.2,3.4,9,5.6c0.1,0.1,0.2,0.2,0.3,0.2c0.6,0.3,0.9,0.8,1.2,1.3
					c0.4,0.9,1.2,1.4,2.2,1.4c0.7,0,1.4-0.4,1.6-1.1c0.2-0.8,0.7-1.3,1.3-1.8c2.7-2,5.4-3.9,8.5-5.3c2.9-1.4,5.8-1.7,8.9-0.9
					c1.7,0.5,3.4,1,5,1.7c3.9,1.7,6,4.9,7.1,8.9C578.5,402.7,578.7,406.2,578.7,409.8 M522.8,395.5c-0.8-0.3-1.1-0.2-1.5,0.5
					c-0.2,0.5-0.4,0.9-0.5,1.4c-0.9,3.6-0.7,7.2-0.3,10.8c0.4,3.8,1.3,7.6,2.4,11.2c1.5,5.3,3.1,10.6,5.5,15.6
					c0.7,1.4,1.4,2.7,2.3,4.1c0.6,0.9,1.3,0.9,1.8-0.1c0.4-0.7,0.7-1.4,1-2.1c0.7-1.5,0.9-1.5,2.1-0.4c0.9,0.9,1.8,1.8,2.7,2.7
					c0.5,0.4,1,0.8,1.6,1.1c0.7,0.3,1.2,0.1,1.5-0.6c0.1-0.3,0.2-0.6,0.2-0.8c0.1-0.9,0.2-1.8,0.2-2.7c0.1-3.6,0.1-7.2,0.1-10.7
					c0.1-4.4,0.2-8.8,0.9-13.1c0.4-2.5,0.7-5,1-7.4c0.1-0.7,0.1-1.5,0-2.2c-0.1-1-0.9-1.2-1.6-0.5c-0.4,0.3-0.7,0.7-1,1.2
					c-0.6,1-1.2,1.9-1.9,2.9c-0.1,0.2-0.3,0.3-0.5,0.6c-0.2-0.4-0.3-0.7-0.4-1c-0.2-0.4-0.3-0.9-0.4-1.4c-0.4-1-1.1-1.2-1.8-0.3
					c-0.4,0.4-0.7,1-1,1.5c-0.4,0.6-0.7,1.3-1.1,1.9c-0.3,0.5-0.5,0.5-0.7,0c-0.3-0.6-0.6-1.2-0.9-1.9c-1.2-3.2-1.8-6.6-2.2-10
					c-0.1-1.1-0.2-2.3-0.4-3.4c-0.1-0.8-0.6-1.2-1.5-1.2c-0.5,0-1,0.1-1.4,0.2c-0.8,0.3-1.5,0.6-2.3,0.9c-1,0.4-1.5,1-1.7,2
					C523,394.7,522.9,395.1,522.8,395.5 M567.2,430.4c0.8,0.3,1.1,0.2,1.5-0.4c0.2-0.2,0.3-0.5,0.4-0.8c2.4-5.7,4.6-11.5,5.1-17.8
					c0.2-2.1,0.3-4.1-0.2-6.2c-0.4-1.7-1.1-3.2-2.5-4.2c-0.9-0.7-1.7-0.5-2,0.7c-0.2,0.8-0.3,1.5-0.5,2.3c-0.3,1.5-0.6,3-1,4.5
					c-0.1,0.3-0.2,0.5-0.4,0.9c-0.2-0.4-0.3-0.7-0.4-1c-0.2-0.9-0.4-1.8-0.5-2.7c-0.3-1.7-0.5-3.4-0.9-5.1c-0.2-1-0.7-1.9-1.5-2.6
					c-0.8-0.7-1.7-0.6-2.3,0.2c-0.6,0.7-0.9,1.6-1,2.5c-0.2,1.4,0,2.7,0.3,4.1c0.4,1.7,0.9,3.4,1.3,5.1c1,4.5,0.9,8.9,0.1,13.4
					c-0.7,3.8-1.5,7.6-2.3,11.4c-0.2,1-0.3,2.1-0.4,3.1c0,1,0.7,1.5,1.6,0.9c0.5-0.3,1-0.7,1.3-1.1c0.6-0.7,1.1-1.5,1.6-2.3
					c0.7-1.2,1.3-2.4,1.9-3.6C566.7,431.2,566.9,430.8,567.2,430.4"/>
				<path class="st16" d="M538.8,378.7c2.6-0.2,5-0.4,7.4-0.6c-0.1,1.2-0.3,2.4-0.4,3.5c-0.1,3.7-0.2,7.4-0.3,11.2
					c0,1,0,2.1,0.4,3.1c0.1,0.3-0.5,0.9-0.9,0.8c-0.4-0.1-0.9-0.3-1.1-0.6c-0.3-0.4-0.6-1-0.7-1.5c-0.4-3.7-1.5-7.3-2.8-10.8
					C539.9,382.2,539.4,380.5,538.8,378.7"/>
				<path class="st17" d="M555.9,376.4c0.2,1.5,0,3-0.4,4.4c-0.8,3.7-2.8,6.7-5.2,9.5c-0.9,1-1.8,2-2.7,3c-0.1,0.1-0.2,0.3-0.3,0.5
					c-0.1-0.1-0.2-0.1-0.2-0.2c1.2-3.9,3.1-7.5,4.5-11.3c-2,3.3-3.9,6.5-5,10.2c0-2-0.1-4.1,0-6.1c0.2-2.5,1.6-4.5,3.4-6.2
					c1.6-1.6,3.5-2.7,5.5-3.7C555.6,376.5,555.7,376.5,555.9,376.4"/>
				<path class="st16" d="M542.7,454.3c-0.8,0.5-1.6,0.3-2.3-0.4c-0.2-0.1-0.4-0.3-0.5-0.5c-0.5-0.4-0.8-0.4-1.2,0
					c-0.7,0.7-1,0.7-1.7-0.1c-0.2-0.2-0.4-0.5-0.6-0.8c-0.1-0.1-0.2-0.3-0.3-0.5c0.2,0,0.3,0,0.3,0c1.8,0.3,3.6,0.3,5.4,0
					c2.3-0.4,4.7-0.2,7,0.2c1.4,0.3,2.8-0.1,4.1-0.2c0.2,0,0.4,0,0.6-0.1c0,0,0.1,0.1,0.1,0.1c-0.4,0.5-0.8,1.1-1.3,1.6
					c-0.2,0.3-0.6,0.3-0.8,0c-0.2-0.1-0.3-0.3-0.5-0.4c-0.4-0.4-0.7-0.4-1.1,0c-0.3,0.3-0.7,0.6-1.1,0.8c-0.4,0.2-0.8,0.2-1.2,0.2
					c-0.2,0-0.5,0.1-0.7,0.2c-1.3,0.8-2.5,0.5-3.7,0C543,454.6,542.9,454.5,542.7,454.3"/>
				<path class="st18" d="M567.2,430.4c-0.3,0.4-0.5,0.9-0.7,1.3c-0.6,1.2-1.2,2.4-1.9,3.6c-0.5,0.8-1,1.6-1.6,2.3
					c-0.4,0.4-0.8,0.8-1.3,1.1c-0.9,0.5-1.7,0.1-1.6-0.9c0-1,0.2-2.1,0.4-3.1c0.7-3.8,1.6-7.6,2.3-11.4c0.8-4.5,0.9-8.9-0.1-13.4
					c-0.4-1.7-0.9-3.4-1.3-5.1c-0.3-1.3-0.5-2.7-0.3-4.1c0.1-0.9,0.5-1.8,1-2.5c0.7-0.9,1.5-0.9,2.3-0.2c0.8,0.7,1.3,1.6,1.5,2.6
					c0.3,1.7,0.6,3.4,0.9,5.1c0.2,0.9,0.3,1.8,0.5,2.7c0.1,0.3,0.2,0.5,0.4,1c0.2-0.4,0.4-0.6,0.4-0.9c0.3-1.5,0.7-3,1-4.5
					c0.2-0.8,0.2-1.6,0.5-2.3c0.3-1.1,1.1-1.4,2-0.7c1.4,1.1,2.2,2.5,2.5,4.2c0.4,2,0.3,4.1,0.2,6.2c-0.5,6.3-2.6,12.1-5.1,17.8
					c-0.1,0.3-0.3,0.5-0.4,0.8C568.3,430.6,568,430.6,567.2,430.4 M560.8,438.1c0.4-0.2,0.7-0.4,0.9-0.6c0.5-0.5,1-1,1.4-1.6
					c0.9-1.4,1.7-2.9,2.5-4.3c0.3-0.6,0.6-1.1,1-1.7c0.2-0.2,0.6-0.5,0.8-0.4c0.5,0.2,0.7-0.1,0.8-0.4c0.1-0.2,0.2-0.5,0.3-0.7
					c2.1-4.9,3.9-9.9,4.7-15.3c0.3-2.5,0.5-5.1,0.2-7.6c-0.2-1.6-0.8-3-1.9-4.1c-0.9-0.8-1.4-0.7-1.6,0.5c-0.2,1.2-0.4,2.5-0.6,3.7
					c-0.2,1.3-0.4,2.6-1.1,3.7c-0.4,0.6-0.9,0.6-1.2,0c-0.1-0.3-0.2-0.5-0.3-0.8c-0.2-1.1-0.4-2.2-0.6-3.3c-0.3-1.7-0.6-3.4-1-5
					c-0.2-0.7-0.7-1.4-1.2-2c-0.4-0.5-0.9-0.4-1.3,0.1c-0.4,0.7-0.7,1.4-0.9,2.2c-0.3,1.2,0,2.5,0.3,3.7c0.4,2,1.3,3.8,1.5,5.9
					c0.1,1.8,0.5,3.6,0.7,5.4c0.2,3.4-0.3,6.7-0.9,10c-0.7,3.7-1.5,7.4-2.2,11.1C560.8,437.2,560.9,437.6,560.8,438.1"/>
				<path class="st18" d="M560.8,438.1c0-0.6,0-1,0.1-1.3c0.7-3.7,1.4-7.4,2.2-11.1c0.7-3.3,1.1-6.6,0.9-10
					c-0.1-1.8-0.5-3.6-0.7-5.4c-0.2-2.1-1.1-3.9-1.5-5.9c-0.3-1.2-0.5-2.5-0.3-3.7c0.2-0.8,0.5-1.5,0.9-2.2c0.3-0.6,0.8-0.6,1.3-0.1
					c0.5,0.6,1,1.3,1.2,2c0.4,1.6,0.7,3.3,1,5c0.2,1.1,0.4,2.2,0.6,3.3c0.1,0.3,0.2,0.6,0.3,0.8c0.3,0.7,0.9,0.7,1.2,0
					c0.7-1.1,0.9-2.4,1.1-3.7c0.2-1.2,0.3-2.5,0.6-3.7c0.2-1.2,0.7-1.3,1.6-0.5c1.2,1.1,1.8,2.5,1.9,4.1c0.3,2.5,0.2,5.1-0.2,7.6
					c-0.7,5.3-2.6,10.3-4.7,15.3c-0.1,0.2-0.2,0.5-0.3,0.7c-0.2,0.3-0.3,0.6-0.8,0.4c-0.2-0.1-0.7,0.2-0.8,0.4
					c-0.4,0.5-0.6,1.1-1,1.7c-0.8,1.4-1.6,2.9-2.5,4.3c-0.4,0.6-0.9,1.1-1.4,1.6C561.5,437.8,561.2,437.9,560.8,438.1"/>
			</g>
		</g>
	</g>
	<text transform="matrix(1 0 0 1 549 430)" class="st5 st6 st7">u</text>
</g>
<g id="A">
	<g>
		<g>
			<defs>
				<rect id="SVGID_13_" x="90.1" y="347" width="119.8" height="138"/>
			</defs>
			<clipPath id="SVGID_14_">
				<use xlink:href="#SVGID_13_"  style="overflow:visible;"/>
			</clipPath>
			<g class="st19">
				<defs>
					<rect id="SVGID_15_" x="150" y="366.3" width="52" height="104.5"/>
				</defs>
				<clipPath id="SVGID_16_">
					<use xlink:href="#SVGID_15_"  style="overflow:visible;"/>
				</clipPath>
				<path class="st20" d="M114.7,407.4c0.1-1.2,0.2-2.4,0.3-3.5c0.3-2.6,0.9-5.2,2-7.7c1.4-3.2,3.7-5.6,7-7c2.3-1,4.8-1.8,7.4-2.1
					c2.4-0.3,4.6,0.2,6.8,1.2c2.9,1.3,5.5,3,8.1,4.8c0.4,0.3,0.7,0.6,1,1c0.1,0,0.1-0.1,0.2-0.1c-0.5-1.8-0.9-3.5-1.4-5.3
					c-0.7-2.3-1.5-4.6-2.3-6.9c-0.3-1-0.5-2-0.8-3c-0.1-0.5,0.1-0.8,0.6-0.9c2.5-0.2,5-0.5,7.5-0.7c0.2,0,0.4,0,0.6,0
					c0.9,0.1,1.1,0.4,0.9,1.3c-0.3,1.4-0.4,2.9-0.6,4.3c0.1,0,0.1,0,0.2,0.1c0.1-0.1,0.1-0.2,0.2-0.2c1.9-3.2,4.8-5.3,8.2-6.9
					c0.1-0.1,0.2-0.1,0.4-0.1c1-0.3,1.6,0.1,1.7,1.1c0.2,1.4,0,2.8-0.3,4.2c-0.7,3.5-2.4,6.5-4.6,9.2c-0.1,0.2-0.3,0.4-0.4,0.6
					c0.9-0.5,1.8-1,2.6-1.5c2-1.1,4.1-2.1,6.5-2.3c2.1-0.2,4.1,0.2,6.2,0.8c2.5,0.7,4.9,1.7,7,3.5c2.6,2.2,3.9,5.2,4.8,8.4
					c1,3.7,1.2,7.5,1.1,11.3c-0.1,6.4-1,12.6-3,18.7c-1.7,5-3.9,9.7-6.7,14.2c-2.4,3.7-5.5,6.1-9.8,7c-1.1,0.2-2.3,0.5-3.4,0.7
					c-0.7,0.1-1.5,0-2,0.4c-0.5,0.3-0.7,1.1-1.1,1.7c-0.1,0.1-0.1,0.2-0.2,0.3c-1,1.4-1.9,1.5-3.3,0.4c-0.4,0.3-0.8,0.7-1.3,0.8
					c-0.9,0.3-1.7,0.7-2.6,1c-1.2,0.5-2.4,0.2-3.5-0.5c-0.3-0.2-0.6-0.3-1.1-0.3c-0.8,0.1-1.5-0.2-2.2-0.6c-0.2-0.2-0.4-0.3-0.7-0.5
					c-0.2,0.1-0.3,0.2-0.4,0.3c-0.7,0.6-1.6,0.6-2.2,0c-0.6-0.6-1.1-1.4-1.5-2.2c-0.2-0.4-0.4-0.6-0.9-0.7c-1.9-0.4-3.8-0.7-5.6-1.2
					c-3.7-0.9-6.6-3-8.7-6.1c-4.1-6.1-6.9-12.8-8.7-19.9c-0.9-3.7-1.3-7.5-1.5-11.4c0-0.4-0.1-0.8-0.1-1.2V407.4z M183.9,409.9
					c0-3.6-0.2-7.1-1.2-10.6c-1.1-4-3.3-7.2-7.1-8.9c-1.6-0.7-3.3-1.2-5-1.7c-3-0.8-6-0.5-8.9,0.9c-3,1.4-5.8,3.3-8.5,5.3
					c-0.6,0.4-1.1,0.9-1.3,1.8c-0.1,0.7-0.8,1.1-1.6,1.1c-1,0-1.8-0.5-2.2-1.4c-0.3-0.6-0.6-1-1.2-1.3c-0.1-0.1-0.2-0.1-0.3-0.2
					c-2.8-2.2-5.7-4.1-9-5.6c-1.9-0.8-3.8-1.2-5.9-1c-2.6,0.3-5.2,1-7.5,2.2c-2.6,1.2-4.5,3.2-5.8,5.8c-1.1,2.4-1.7,4.9-2,7.4
					c-0.6,4.8-0.4,9.6,0.2,14.4c1.1,9,4.2,17.2,9,24.8c2.2,3.5,5.2,5.8,9.4,6.6c3.1,0.5,6.2,1,9.2,1.5c0.7,0.1,1.5,0.2,2.2,0.1
					c1.9-0.4,3.8-0.5,5.7-0.3c1.5,0.1,3,0.4,4.5,0.1c2.9-0.6,5.9-1,8.8-1.6c2.9-0.6,5.3-1.9,7.2-4.2c1-1.2,1.9-2.5,2.7-3.9
					C181.1,431.6,184,421.1,183.9,409.9 M143.9,378.8c0.6,1.8,1.1,3.4,1.7,5c1.2,3.5,2.4,7.1,2.8,10.8c0.1,0.5,0.4,1.1,0.7,1.5
					c0.2,0.3,0.7,0.5,1.1,0.6c0.4,0.1,1-0.5,0.9-0.8c-0.4-1-0.4-2-0.4-3.1c0.1-3.7,0.1-7.4,0.3-11.2c0-1.1,0.2-2.2,0.4-3.5
					C148.9,378.4,146.5,378.6,143.9,378.8 M161,376.5c-0.2,0.1-0.3,0.1-0.3,0.1c-2,1-3.9,2.2-5.5,3.7c-1.8,1.7-3.2,3.7-3.4,6.2
					c-0.1,2,0,4.1,0,6.1c1.1-3.7,3-7,5-10.2c-1.5,3.8-3.3,7.4-4.5,11.3c0.1,0.1,0.2,0.1,0.2,0.2c0.1-0.2,0.2-0.4,0.3-0.5
					c0.9-1,1.8-1.9,2.7-3c2.4-2.8,4.4-5.9,5.2-9.5C161,379.4,161.2,378,161,376.5 M147.8,454.4c0.2,0.2,0.4,0.3,0.5,0.4
					c1.2,0.5,2.5,0.8,3.7,0c0.2-0.1,0.5-0.1,0.7-0.2c0.4-0.1,0.9-0.1,1.2-0.2c0.4-0.2,0.7-0.5,1.1-0.8c0.4-0.3,0.7-0.3,1.1,0
					c0.2,0.2,0.3,0.3,0.5,0.4c0.3,0.2,0.6,0.2,0.8,0c0.5-0.5,0.9-1.1,1.3-1.6c0,0-0.1-0.1-0.1-0.1c-0.2,0-0.4,0-0.6,0.1
					c-1.4,0.1-2.7,0.4-4.1,0.2c-2.3-0.4-4.7-0.6-7-0.2c-1.8,0.3-3.6,0.3-5.4,0c-0.1,0-0.2,0-0.3,0c0.1,0.2,0.2,0.3,0.3,0.5
					c0.2,0.3,0.4,0.5,0.6,0.8c0.7,0.8,0.9,0.8,1.7,0.1c0.5-0.5,0.7-0.5,1.2,0c0.2,0.2,0.4,0.3,0.5,0.5
					C146.3,454.6,147.1,454.9,147.8,454.4"/>
				<path class="st21" d="M183.9,409.9c0.1,11.3-2.8,21.7-8.5,31.4c-0.8,1.4-1.7,2.7-2.7,3.9c-1.8,2.3-4.3,3.6-7.2,4.2
					c-2.9,0.6-5.9,1-8.8,1.6c-1.5,0.3-3,0-4.5-0.1c-1.9-0.1-3.8,0-5.7,0.3c-0.7,0.1-1.5,0-2.2-0.1c-3.1-0.5-6.2-1-9.2-1.5
					c-4.1-0.7-7.2-3.1-9.3-6.6c-4.8-7.6-8-15.8-9-24.8c-0.6-4.8-0.8-9.6-0.2-14.4c0.3-2.6,0.9-5.1,2-7.4c1.3-2.6,3.2-4.6,5.8-5.8
					c2.4-1.1,4.9-1.9,7.5-2.2c2-0.2,4,0.2,5.9,1c3.3,1.4,6.2,3.4,9,5.6c0.1,0.1,0.2,0.2,0.3,0.2c0.6,0.3,0.9,0.8,1.2,1.3
					c0.4,0.9,1.2,1.4,2.2,1.4c0.7,0,1.4-0.4,1.6-1.1c0.2-0.8,0.7-1.3,1.3-1.8c2.7-2,5.4-3.9,8.5-5.3c2.9-1.4,5.8-1.7,8.9-0.9
					c1.7,0.5,3.4,1,5,1.7c3.9,1.7,6,4.9,7.1,8.9C183.7,402.7,183.9,406.3,183.9,409.9 M128,395.6c-0.8-0.3-1.1-0.2-1.5,0.5
					c-0.2,0.5-0.4,0.9-0.5,1.4c-0.9,3.6-0.7,7.2-0.3,10.8c0.4,3.8,1.3,7.6,2.4,11.2c1.5,5.3,3.1,10.6,5.5,15.6
					c0.7,1.4,1.4,2.7,2.3,4.1c0.6,0.9,1.3,0.9,1.8-0.1c0.4-0.7,0.7-1.4,1-2.1c0.7-1.5,0.9-1.5,2.1-0.4c0.9,0.9,1.8,1.8,2.7,2.7
					c0.5,0.4,1,0.8,1.6,1.1c0.7,0.3,1.2,0.1,1.5-0.6c0.1-0.3,0.2-0.6,0.2-0.8c0.1-0.9,0.2-1.8,0.2-2.7c0.1-3.6,0.1-7.2,0.1-10.7
					c0.1-4.4,0.2-8.8,0.9-13.1c0.4-2.5,0.7-5,1-7.4c0.1-0.7,0.1-1.5,0-2.2c-0.1-1-0.9-1.2-1.6-0.5c-0.4,0.3-0.7,0.7-1,1.2
					c-0.6,1-1.2,1.9-1.9,2.9c-0.1,0.2-0.3,0.3-0.5,0.6c-0.2-0.4-0.3-0.7-0.4-1c-0.2-0.4-0.3-0.9-0.4-1.4c-0.4-1-1.1-1.2-1.8-0.3
					c-0.4,0.4-0.7,1-1,1.5c-0.4,0.6-0.7,1.3-1.1,1.9c-0.3,0.5-0.5,0.5-0.7,0c-0.3-0.6-0.6-1.2-0.9-1.9c-1.2-3.2-1.8-6.6-2.2-10
					c-0.1-1.1-0.2-2.3-0.4-3.4c-0.1-0.8-0.6-1.2-1.5-1.2c-0.5,0-1,0.1-1.4,0.2c-0.8,0.3-1.5,0.6-2.3,0.9c-1,0.4-1.5,1-1.7,2
					C128.2,394.8,128.1,395.2,128,395.6 M172.4,430.4c0.8,0.3,1.1,0.2,1.5-0.4c0.2-0.2,0.3-0.5,0.4-0.8c2.4-5.7,4.6-11.5,5.1-17.8
					c0.2-2.1,0.3-4.1-0.2-6.2c-0.4-1.7-1.1-3.2-2.5-4.2c-0.9-0.7-1.7-0.5-2,0.7c-0.2,0.8-0.3,1.5-0.5,2.3c-0.3,1.5-0.6,3-1,4.5
					c-0.1,0.3-0.2,0.5-0.4,0.9c-0.2-0.4-0.3-0.7-0.4-1c-0.2-0.9-0.4-1.8-0.5-2.7c-0.3-1.7-0.5-3.4-0.9-5.1c-0.2-1-0.7-1.9-1.5-2.6
					c-0.8-0.7-1.7-0.6-2.3,0.2c-0.6,0.7-0.9,1.6-1,2.5c-0.2,1.4,0,2.7,0.3,4.1c0.4,1.7,0.9,3.4,1.3,5.1c1,4.5,0.9,8.9,0.1,13.4
					c-0.7,3.8-1.5,7.6-2.3,11.4c-0.2,1-0.3,2.1-0.4,3.1c0,1,0.7,1.5,1.6,0.9c0.5-0.3,1-0.7,1.3-1.1c0.6-0.7,1.1-1.5,1.6-2.3
					c0.7-1.2,1.3-2.4,1.9-3.6C171.9,431.3,172.1,430.8,172.4,430.4"/>
				<path class="st22" d="M143.9,378.8c2.6-0.2,5-0.4,7.4-0.6c-0.1,1.2-0.3,2.4-0.4,3.5c-0.1,3.7-0.2,7.4-0.3,11.2
					c0,1,0,2.1,0.4,3.1c0.1,0.3-0.5,0.9-0.9,0.8c-0.4-0.1-0.9-0.3-1.1-0.6c-0.3-0.4-0.6-1-0.7-1.5c-0.4-3.7-1.5-7.3-2.8-10.8
					C145.1,382.2,144.5,380.6,143.9,378.8"/>
				<path class="st23" d="M161,376.5c0.2,1.5,0,3-0.4,4.4c-0.8,3.7-2.8,6.7-5.2,9.5c-0.9,1-1.8,2-2.7,3c-0.1,0.1-0.2,0.3-0.3,0.5
					c-0.1-0.1-0.2-0.1-0.2-0.2c1.2-3.9,3.1-7.5,4.5-11.3c-2,3.3-3.9,6.5-5,10.2c0-2-0.1-4.1,0-6.1c0.2-2.5,1.6-4.5,3.4-6.2
					c1.6-1.6,3.5-2.7,5.5-3.7C160.8,376.5,160.9,376.5,161,376.5"/>
				<path class="st22" d="M147.8,454.4c-0.8,0.5-1.6,0.3-2.3-0.4c-0.2-0.1-0.4-0.3-0.5-0.5c-0.5-0.4-0.8-0.4-1.2,0
					c-0.7,0.7-1,0.7-1.7-0.1c-0.2-0.2-0.4-0.5-0.6-0.8c-0.1-0.1-0.2-0.3-0.3-0.5c0.2,0,0.3,0,0.3,0c1.8,0.3,3.6,0.3,5.4,0
					c2.3-0.4,4.7-0.2,7,0.2c1.4,0.3,2.8-0.1,4.1-0.2c0.2,0,0.4,0,0.6-0.1c0,0,0.1,0.1,0.1,0.1c-0.4,0.5-0.8,1.1-1.3,1.6
					c-0.2,0.3-0.6,0.3-0.8,0c-0.2-0.1-0.3-0.3-0.5-0.4c-0.4-0.4-0.7-0.4-1.1,0c-0.3,0.3-0.7,0.6-1.1,0.8c-0.4,0.2-0.8,0.2-1.2,0.2
					c-0.2,0-0.5,0.1-0.7,0.2c-1.3,0.8-2.5,0.5-3.7,0C148.2,454.7,148.1,454.5,147.8,454.4"/>
				<path class="st24" d="M172.4,430.4c-0.3,0.4-0.5,0.9-0.7,1.3c-0.6,1.2-1.2,2.4-1.9,3.6c-0.5,0.8-1,1.6-1.6,2.3
					c-0.4,0.4-0.8,0.8-1.3,1.1c-0.9,0.5-1.7,0.1-1.6-0.9c0-1,0.2-2.1,0.4-3.1c0.7-3.8,1.6-7.6,2.3-11.4c0.8-4.5,0.9-8.9-0.1-13.4
					c-0.4-1.7-0.9-3.4-1.3-5.1c-0.3-1.3-0.5-2.7-0.3-4.1c0.1-0.9,0.5-1.8,1-2.5c0.7-0.9,1.5-0.9,2.3-0.2c0.8,0.7,1.3,1.6,1.5,2.6
					c0.3,1.7,0.6,3.4,0.9,5.1c0.2,0.9,0.3,1.8,0.5,2.7c0.1,0.3,0.2,0.5,0.4,1c0.2-0.4,0.4-0.6,0.4-0.9c0.3-1.5,0.7-3,1-4.5
					c0.2-0.8,0.2-1.6,0.5-2.3c0.3-1.1,1.1-1.4,2-0.7c1.4,1.1,2.2,2.5,2.5,4.2c0.4,2,0.3,4.1,0.2,6.2c-0.5,6.3-2.6,12.1-5.1,17.8
					c-0.1,0.3-0.3,0.5-0.4,0.8C173.4,430.6,173.2,430.7,172.4,430.4 M166,438.2c0.4-0.2,0.7-0.4,0.9-0.6c0.5-0.5,1-1,1.4-1.6
					c0.9-1.4,1.7-2.9,2.5-4.3c0.3-0.6,0.6-1.1,1-1.7c0.2-0.2,0.6-0.5,0.8-0.4c0.5,0.2,0.7-0.1,0.8-0.4c0.1-0.2,0.2-0.5,0.3-0.7
					c2.1-4.9,3.9-9.9,4.7-15.3c0.3-2.5,0.5-5.1,0.2-7.6c-0.2-1.6-0.8-3-1.9-4.1c-0.9-0.8-1.4-0.7-1.6,0.5c-0.2,1.2-0.4,2.5-0.6,3.7
					c-0.2,1.3-0.4,2.6-1.1,3.7c-0.4,0.6-0.9,0.6-1.2,0c-0.1-0.3-0.2-0.5-0.3-0.8c-0.2-1.1-0.4-2.2-0.6-3.3c-0.3-1.7-0.6-3.4-1-5
					c-0.2-0.7-0.7-1.4-1.2-2c-0.4-0.5-0.9-0.4-1.3,0.1c-0.4,0.7-0.7,1.4-0.9,2.2c-0.3,1.2,0,2.5,0.3,3.7c0.4,2,1.3,3.8,1.5,5.9
					c0.1,1.8,0.5,3.6,0.7,5.4c0.2,3.4-0.3,6.7-0.9,10c-0.7,3.7-1.5,7.4-2.2,11.1C166,437.2,166,437.6,166,438.2"/>
				<path class="st24" d="M166,438.2c0-0.6,0-1,0.1-1.3c0.7-3.7,1.4-7.4,2.2-11.1c0.7-3.3,1.1-6.6,0.9-10c-0.1-1.8-0.5-3.6-0.7-5.4
					c-0.2-2.1-1.1-3.9-1.5-5.9c-0.3-1.2-0.5-2.5-0.3-3.7c0.2-0.8,0.5-1.5,0.9-2.2c0.3-0.6,0.8-0.6,1.3-0.1c0.5,0.6,1,1.3,1.2,2
					c0.4,1.6,0.7,3.3,1,5c0.2,1.1,0.4,2.2,0.6,3.3c0.1,0.3,0.2,0.6,0.3,0.8c0.3,0.7,0.9,0.7,1.2,0c0.7-1.1,0.9-2.4,1.1-3.7
					c0.2-1.2,0.3-2.5,0.6-3.7c0.2-1.2,0.7-1.3,1.6-0.5c1.2,1.1,1.8,2.5,1.9,4.1c0.3,2.5,0.2,5.1-0.2,7.6c-0.7,5.3-2.6,10.3-4.7,15.3
					c-0.1,0.2-0.2,0.5-0.3,0.7c-0.2,0.3-0.3,0.6-0.8,0.4c-0.2-0.1-0.7,0.2-0.8,0.4c-0.4,0.5-0.6,1.1-1,1.7c-0.8,1.4-1.6,2.9-2.5,4.3
					c-0.4,0.6-0.9,1.1-1.4,1.6C166.7,437.8,166.4,437.9,166,438.2"/>
			</g>
		</g>
	</g>
	<text transform="matrix(1 0 0 1 150 430)" class="st5 st6 st7">a</text>
</g>
<g id="O">
	<g>
		<g>
			<defs>
				<rect id="SVGID_17_" x="382.8" y="347" width="119.8" height="138"/>
			</defs>
			<clipPath id="SVGID_18_">
				<use xlink:href="#SVGID_17_"  style="overflow:visible;"/>
			</clipPath>
			<g class="st25">
				<defs>
					<rect id="SVGID_19_" x="442.7" y="366.3" width="52" height="104.5"/>
				</defs>
				<clipPath id="SVGID_20_">
					<use xlink:href="#SVGID_19_"  style="overflow:visible;"/>
				</clipPath>
				<path class="st26" d="M407.4,407.3c0.1-1.2,0.2-2.4,0.3-3.5c0.3-2.6,0.9-5.2,2-7.7c1.4-3.2,3.7-5.6,7-7c2.3-1,4.8-1.8,7.4-2.1
					c2.4-0.3,4.6,0.2,6.8,1.2c2.9,1.3,5.5,3,8.1,4.8c0.4,0.3,0.7,0.6,1,1c0.1,0,0.1-0.1,0.2-0.1c-0.5-1.8-0.9-3.5-1.4-5.3
					c-0.7-2.3-1.5-4.6-2.3-6.9c-0.3-1-0.5-2-0.8-3c-0.1-0.5,0.1-0.8,0.6-0.9c2.5-0.2,5-0.5,7.5-0.7c0.2,0,0.4,0,0.6,0
					c0.9,0.1,1.1,0.4,0.9,1.3c-0.3,1.4-0.4,2.9-0.6,4.3c0.1,0,0.1,0,0.2,0.1c0.1-0.1,0.1-0.2,0.2-0.2c1.9-3.2,4.8-5.3,8.2-6.9
					c0.1-0.1,0.2-0.1,0.4-0.1c1-0.3,1.6,0.1,1.7,1.1c0.2,1.4,0,2.8-0.3,4.2c-0.7,3.5-2.4,6.5-4.6,9.2c-0.1,0.2-0.3,0.4-0.4,0.6
					c0.9-0.5,1.8-1,2.6-1.5c2-1.1,4.1-2.1,6.5-2.3c2.1-0.2,4.1,0.2,6.2,0.8c2.5,0.7,4.9,1.7,7,3.5c2.6,2.2,3.9,5.2,4.8,8.4
					c1,3.7,1.2,7.5,1.1,11.3c-0.1,6.4-1,12.6-3,18.7c-1.7,5-3.9,9.7-6.7,14.2c-2.4,3.7-5.5,6.1-9.8,7c-1.1,0.2-2.3,0.5-3.4,0.7
					c-0.7,0.1-1.5,0-2,0.4c-0.5,0.3-0.7,1.1-1.1,1.7c-0.1,0.1-0.1,0.2-0.2,0.3c-1,1.4-1.9,1.5-3.3,0.4c-0.4,0.3-0.8,0.7-1.3,0.8
					c-0.9,0.3-1.7,0.7-2.6,1c-1.2,0.5-2.4,0.2-3.5-0.5c-0.3-0.2-0.6-0.3-1.1-0.3c-0.8,0.1-1.5-0.2-2.2-0.6c-0.2-0.2-0.4-0.3-0.7-0.5
					c-0.2,0.1-0.3,0.2-0.4,0.3c-0.7,0.6-1.6,0.6-2.2,0c-0.6-0.6-1.1-1.4-1.5-2.2c-0.2-0.4-0.4-0.6-0.9-0.7c-1.9-0.4-3.8-0.7-5.6-1.2
					c-3.7-0.9-6.6-3-8.7-6.1c-4.1-6.1-6.9-12.8-8.7-19.9c-0.9-3.7-1.3-7.5-1.5-11.4c0-0.4-0.1-0.8-0.1-1.2V407.3z M476.5,409.8
					c0-3.6-0.2-7.1-1.2-10.6c-1.1-4-3.3-7.2-7.1-8.9c-1.6-0.7-3.3-1.2-5-1.7c-3-0.8-6-0.5-8.9,0.9c-3,1.4-5.8,3.3-8.5,5.3
					c-0.6,0.4-1.1,0.9-1.3,1.8c-0.1,0.7-0.8,1.1-1.6,1.1c-1,0-1.8-0.5-2.2-1.4c-0.3-0.6-0.6-1-1.2-1.3c-0.1-0.1-0.2-0.1-0.3-0.2
					c-2.8-2.2-5.7-4.1-9-5.6c-1.9-0.8-3.8-1.2-5.9-1c-2.6,0.3-5.2,1-7.5,2.2c-2.6,1.2-4.5,3.2-5.8,5.8c-1.1,2.4-1.7,4.9-2,7.4
					c-0.6,4.8-0.4,9.6,0.2,14.4c1.1,9,4.2,17.2,9,24.8c2.2,3.5,5.2,5.8,9.4,6.6c3.1,0.5,6.2,1,9.2,1.5c0.7,0.1,1.5,0.2,2.2,0.1
					c1.9-0.4,3.8-0.5,5.7-0.3c1.5,0.1,3,0.4,4.5,0.1c2.9-0.6,5.9-1,8.8-1.6c2.9-0.6,5.3-1.9,7.2-4.2c1-1.2,1.9-2.5,2.7-3.9
					C473.7,431.5,476.6,421.1,476.5,409.8 M436.6,378.7c0.6,1.8,1.1,3.4,1.7,5c1.2,3.5,2.4,7.1,2.8,10.8c0.1,0.5,0.4,1.1,0.7,1.5
					c0.2,0.3,0.7,0.5,1.1,0.6c0.4,0.1,1-0.5,0.9-0.8c-0.4-1-0.4-2-0.4-3.1c0.1-3.7,0.1-7.4,0.3-11.2c0-1.1,0.2-2.2,0.4-3.5
					C441.6,378.3,439.2,378.5,436.6,378.7 M453.7,376.4c-0.2,0.1-0.3,0.1-0.3,0.1c-2,1-3.9,2.2-5.5,3.7c-1.8,1.7-3.2,3.7-3.4,6.2
					c-0.1,2,0,4.1,0,6.1c1.1-3.7,3-7,5-10.2c-1.5,3.8-3.3,7.4-4.5,11.3c0.1,0.1,0.2,0.1,0.2,0.2c0.1-0.2,0.2-0.4,0.3-0.5
					c0.9-1,1.8-1.9,2.7-3c2.4-2.8,4.4-5.9,5.2-9.5C453.7,379.4,453.9,378,453.7,376.4 M440.5,454.3c0.2,0.2,0.4,0.3,0.5,0.4
					c1.2,0.5,2.5,0.8,3.7,0c0.2-0.1,0.5-0.1,0.7-0.2c0.4-0.1,0.9-0.1,1.2-0.2c0.4-0.2,0.7-0.5,1.1-0.8c0.4-0.3,0.7-0.3,1.1,0
					c0.2,0.2,0.3,0.3,0.5,0.4c0.3,0.2,0.6,0.2,0.8,0c0.5-0.5,0.9-1.1,1.3-1.6c0,0-0.1-0.1-0.1-0.1c-0.2,0-0.4,0-0.6,0.1
					c-1.4,0.1-2.7,0.4-4.1,0.2c-2.3-0.4-4.7-0.6-7-0.2c-1.8,0.3-3.6,0.3-5.4,0c-0.1,0-0.2,0-0.3,0c0.1,0.2,0.2,0.3,0.3,0.5
					c0.2,0.3,0.4,0.5,0.6,0.8c0.7,0.8,0.9,0.8,1.7,0.1c0.5-0.5,0.7-0.5,1.2,0c0.2,0.2,0.4,0.3,0.5,0.5
					C438.9,454.6,439.7,454.8,440.5,454.3"/>
				<path class="st27" d="M476.5,409.8c0.1,11.3-2.8,21.7-8.5,31.4c-0.8,1.4-1.7,2.7-2.7,3.9c-1.8,2.3-4.3,3.6-7.2,4.2
					c-2.9,0.6-5.9,1-8.8,1.6c-1.5,0.3-3,0-4.5-0.1c-1.9-0.1-3.8,0-5.7,0.3c-0.7,0.1-1.5,0-2.2-0.1c-3.1-0.5-6.2-1-9.2-1.5
					c-4.1-0.7-7.2-3.1-9.4-6.6c-4.8-7.6-8-15.8-9-24.8c-0.6-4.8-0.8-9.6-0.2-14.4c0.3-2.6,0.9-5.1,2-7.4c1.3-2.6,3.2-4.6,5.8-5.8
					c2.4-1.1,4.9-1.9,7.5-2.2c2-0.2,4,0.2,5.9,1c3.3,1.4,6.2,3.4,9,5.6c0.1,0.1,0.2,0.2,0.3,0.2c0.6,0.3,0.9,0.8,1.2,1.3
					c0.4,0.9,1.2,1.4,2.2,1.4c0.7,0,1.4-0.4,1.6-1.1c0.2-0.8,0.7-1.3,1.3-1.8c2.7-2,5.4-3.9,8.5-5.3c2.9-1.4,5.8-1.7,8.9-0.9
					c1.7,0.5,3.4,1,5,1.7c3.9,1.7,6,4.9,7.1,8.9C476.3,402.7,476.6,406.2,476.5,409.8 M420.7,395.5c-0.8-0.3-1.1-0.2-1.5,0.5
					c-0.2,0.5-0.4,0.9-0.5,1.4c-0.9,3.6-0.7,7.2-0.3,10.8c0.4,3.8,1.3,7.6,2.4,11.2c1.5,5.3,3.1,10.6,5.5,15.6
					c0.7,1.4,1.4,2.7,2.3,4.1c0.6,0.9,1.3,0.9,1.8-0.1c0.4-0.7,0.7-1.4,1-2.1c0.7-1.5,0.9-1.5,2.1-0.4c0.9,0.9,1.8,1.8,2.7,2.7
					c0.5,0.4,1,0.8,1.6,1.1c0.7,0.3,1.2,0.1,1.5-0.6c0.1-0.3,0.2-0.6,0.2-0.8c0.1-0.9,0.2-1.8,0.2-2.7c0.1-3.6,0.1-7.2,0.1-10.7
					c0.1-4.4,0.2-8.8,0.9-13.1c0.4-2.5,0.7-5,1-7.4c0.1-0.7,0.1-1.5,0-2.2c-0.1-1-0.9-1.2-1.6-0.5c-0.4,0.3-0.7,0.7-1,1.2
					c-0.6,1-1.2,1.9-1.9,2.9c-0.1,0.2-0.3,0.3-0.5,0.6c-0.2-0.4-0.3-0.7-0.4-1c-0.2-0.4-0.3-0.9-0.4-1.4c-0.4-1-1.1-1.2-1.8-0.3
					c-0.4,0.4-0.7,1-1,1.5c-0.4,0.6-0.7,1.3-1.1,1.9c-0.3,0.5-0.5,0.5-0.7,0c-0.3-0.6-0.6-1.2-0.9-1.9c-1.2-3.2-1.8-6.6-2.2-10
					c-0.1-1.1-0.2-2.3-0.4-3.4c-0.1-0.8-0.6-1.2-1.5-1.2c-0.5,0-1,0.1-1.4,0.2c-0.8,0.3-1.5,0.6-2.3,0.9c-1,0.4-1.5,1-1.7,2
					C420.9,394.7,420.8,395.1,420.7,395.5 M465,430.4c0.8,0.3,1.1,0.2,1.5-0.4c0.2-0.2,0.3-0.5,0.4-0.8c2.4-5.7,4.6-11.5,5.1-17.8
					c0.2-2.1,0.3-4.1-0.2-6.2c-0.4-1.7-1.1-3.2-2.5-4.2c-0.9-0.7-1.7-0.5-2,0.7c-0.2,0.8-0.3,1.5-0.5,2.3c-0.3,1.5-0.6,3-1,4.5
					c-0.1,0.3-0.2,0.5-0.4,0.9c-0.2-0.4-0.3-0.7-0.4-1c-0.2-0.9-0.4-1.8-0.5-2.7c-0.3-1.7-0.5-3.4-0.9-5.1c-0.2-1-0.7-1.9-1.5-2.6
					c-0.8-0.7-1.7-0.6-2.3,0.2c-0.6,0.7-0.9,1.6-1,2.5c-0.2,1.4,0,2.7,0.3,4.1c0.4,1.7,0.9,3.4,1.3,5.1c1,4.5,0.9,8.9,0.1,13.4
					c-0.7,3.8-1.5,7.6-2.3,11.4c-0.2,1-0.3,2.1-0.4,3.1c0,1,0.7,1.5,1.6,0.9c0.5-0.3,1-0.7,1.3-1.1c0.6-0.7,1.1-1.5,1.6-2.3
					c0.7-1.2,1.3-2.4,1.9-3.6C464.5,431.2,464.8,430.8,465,430.4"/>
				<path class="st28" d="M436.6,378.7c2.6-0.2,5-0.4,7.4-0.6c-0.1,1.2-0.3,2.4-0.4,3.5c-0.1,3.7-0.2,7.4-0.3,11.2
					c0,1,0,2.1,0.4,3.1c0.1,0.3-0.5,0.9-0.9,0.8c-0.4-0.1-0.9-0.3-1.1-0.6c-0.3-0.4-0.6-1-0.7-1.5c-0.4-3.7-1.5-7.3-2.8-10.8
					C437.7,382.2,437.2,380.5,436.6,378.7"/>
				<path class="st29" d="M453.7,376.4c0.2,1.5,0,3-0.4,4.4c-0.8,3.7-2.8,6.7-5.2,9.5c-0.9,1-1.8,2-2.7,3c-0.1,0.1-0.2,0.3-0.3,0.5
					c-0.1-0.1-0.2-0.1-0.2-0.2c1.2-3.9,3.1-7.5,4.5-11.3c-2,3.3-3.9,6.5-5,10.2c0-2-0.1-4.1,0-6.1c0.2-2.5,1.6-4.5,3.4-6.2
					c1.6-1.6,3.5-2.7,5.5-3.7C453.5,376.5,453.5,376.5,453.7,376.4"/>
				<path class="st28" d="M440.5,454.3c-0.8,0.5-1.6,0.3-2.3-0.4c-0.2-0.1-0.4-0.3-0.5-0.5c-0.5-0.4-0.8-0.4-1.2,0
					c-0.7,0.7-1,0.7-1.7-0.1c-0.2-0.2-0.4-0.5-0.6-0.8c-0.1-0.1-0.2-0.3-0.3-0.5c0.2,0,0.3,0,0.3,0c1.8,0.3,3.6,0.3,5.4,0
					c2.3-0.4,4.7-0.2,7,0.2c1.4,0.3,2.8-0.1,4.1-0.2c0.2,0,0.4,0,0.6-0.1c0,0,0.1,0.1,0.1,0.1c-0.4,0.5-0.8,1.1-1.3,1.6
					c-0.2,0.3-0.6,0.3-0.8,0c-0.2-0.1-0.3-0.3-0.5-0.4c-0.4-0.4-0.7-0.4-1.1,0c-0.3,0.3-0.7,0.6-1.1,0.8c-0.4,0.2-0.8,0.2-1.2,0.2
					c-0.2,0-0.5,0.1-0.7,0.2c-1.3,0.8-2.5,0.5-3.7,0C440.9,454.6,440.7,454.5,440.5,454.3"/>
				<path class="st30" d="M465,430.4c-0.3,0.4-0.5,0.9-0.7,1.3c-0.6,1.2-1.2,2.4-1.9,3.6c-0.5,0.8-1,1.6-1.6,2.3
					c-0.4,0.4-0.8,0.8-1.3,1.1c-0.9,0.5-1.7,0.1-1.6-0.9c0-1,0.2-2.1,0.4-3.1c0.7-3.8,1.6-7.6,2.3-11.4c0.8-4.5,0.9-8.9-0.1-13.4
					c-0.4-1.7-0.9-3.4-1.3-5.1c-0.3-1.3-0.5-2.7-0.3-4.1c0.1-0.9,0.5-1.8,1-2.5c0.7-0.9,1.5-0.9,2.3-0.2c0.8,0.7,1.3,1.6,1.5,2.6
					c0.3,1.7,0.6,3.4,0.9,5.1c0.2,0.9,0.3,1.8,0.5,2.7c0.1,0.3,0.2,0.5,0.4,1c0.2-0.4,0.4-0.6,0.4-0.9c0.3-1.5,0.7-3,1-4.5
					c0.2-0.8,0.2-1.6,0.5-2.3c0.3-1.1,1.1-1.4,2-0.7c1.4,1.1,2.2,2.5,2.5,4.2c0.4,2,0.3,4.1,0.2,6.2c-0.5,6.3-2.6,12.1-5.1,17.8
					c-0.1,0.3-0.3,0.5-0.4,0.8C466.1,430.6,465.8,430.6,465,430.4 M458.7,438.1c0.4-0.2,0.7-0.4,0.9-0.6c0.5-0.5,1-1,1.4-1.6
					c0.9-1.4,1.7-2.9,2.5-4.3c0.3-0.6,0.6-1.1,1-1.7c0.2-0.2,0.6-0.5,0.8-0.4c0.5,0.2,0.7-0.1,0.8-0.4c0.1-0.2,0.2-0.5,0.3-0.7
					c2.1-4.9,3.9-9.9,4.7-15.3c0.3-2.5,0.5-5.1,0.2-7.6c-0.2-1.6-0.8-3-1.9-4.1c-0.9-0.8-1.4-0.7-1.6,0.5c-0.2,1.2-0.4,2.5-0.6,3.7
					c-0.2,1.3-0.4,2.6-1.1,3.7c-0.4,0.6-0.9,0.6-1.2,0c-0.1-0.3-0.2-0.5-0.3-0.8c-0.2-1.1-0.4-2.2-0.6-3.3c-0.3-1.7-0.6-3.4-1-5
					c-0.2-0.7-0.7-1.4-1.2-2c-0.4-0.5-0.9-0.4-1.3,0.1c-0.4,0.7-0.7,1.4-0.9,2.2c-0.3,1.2,0,2.5,0.3,3.7c0.4,2,1.3,3.8,1.5,5.9
					c0.1,1.8,0.5,3.6,0.7,5.4c0.2,3.4-0.3,6.7-0.9,10c-0.7,3.7-1.5,7.4-2.2,11.1C458.7,437.2,458.7,437.6,458.7,438.1"/>
				<path class="st30" d="M458.7,438.1c0-0.6,0-1,0.1-1.3c0.7-3.7,1.4-7.4,2.2-11.1c0.7-3.3,1.1-6.6,0.9-10
					c-0.1-1.8-0.5-3.6-0.7-5.4c-0.2-2.1-1.1-3.9-1.5-5.9c-0.3-1.2-0.5-2.5-0.3-3.7c0.2-0.8,0.5-1.5,0.9-2.2c0.3-0.6,0.8-0.6,1.3-0.1
					c0.5,0.6,1,1.3,1.2,2c0.4,1.6,0.7,3.3,1,5c0.2,1.1,0.4,2.2,0.6,3.3c0.1,0.3,0.2,0.6,0.3,0.8c0.3,0.7,0.9,0.7,1.2,0
					c0.7-1.1,0.9-2.4,1.1-3.7c0.2-1.2,0.3-2.5,0.6-3.7c0.2-1.2,0.7-1.3,1.6-0.5c1.2,1.1,1.8,2.5,1.9,4.1c0.3,2.5,0.2,5.1-0.2,7.6
					c-0.7,5.3-2.6,10.3-4.7,15.3c-0.1,0.2-0.2,0.5-0.3,0.7c-0.2,0.3-0.3,0.6-0.8,0.4c-0.2-0.1-0.7,0.2-0.8,0.4
					c-0.4,0.5-0.6,1.1-1,1.7c-0.8,1.4-1.6,2.9-2.5,4.3c-0.4,0.6-0.9,1.1-1.4,1.6C459.3,437.8,459.1,437.9,458.7,438.1"/>
			</g>
		</g>
	</g>
	<text transform="matrix(1 0 0 1 447 430)" class="st5 st6 st7">o</text>
</g>
<g id="I">
	<g>
		<g>
			<defs>
				<rect id="SVGID_21_" x="288.9" y="349" width="119.8" height="138"/>
			</defs>
			<clipPath id="SVGID_22_">
				<use xlink:href="#SVGID_21_"  style="overflow:visible;"/>
			</clipPath>
			<g class="st31">
				<defs>
					<rect id="SVGID_23_" x="348.8" y="368.3" width="52" height="104.5"/>
				</defs>
				<clipPath id="SVGID_24_">
					<use xlink:href="#SVGID_23_"  style="overflow:visible;"/>
				</clipPath>
				<path class="st32" d="M313.5,409.3c0.1-1.2,0.2-2.4,0.3-3.5c0.3-2.6,0.9-5.2,2-7.7c1.4-3.2,3.7-5.6,7-7c2.3-1,4.8-1.8,7.4-2.1
					c2.4-0.3,4.6,0.2,6.8,1.2c2.9,1.3,5.5,3,8.1,4.8c0.4,0.3,0.7,0.6,1,1c0.1,0,0.1-0.1,0.2-0.1c-0.5-1.8-0.9-3.5-1.4-5.3
					c-0.7-2.3-1.5-4.6-2.3-6.9c-0.3-1-0.5-2-0.8-3c-0.1-0.5,0.1-0.8,0.6-0.9c2.5-0.2,5-0.5,7.5-0.7c0.2,0,0.4,0,0.6,0
					c0.9,0.1,1.1,0.4,0.9,1.3c-0.3,1.4-0.4,2.9-0.6,4.3c0.1,0,0.1,0,0.2,0.1c0.1-0.1,0.1-0.2,0.2-0.2c1.9-3.2,4.8-5.3,8.2-6.9
					c0.1-0.1,0.2-0.1,0.4-0.1c1-0.3,1.6,0.1,1.7,1.1c0.2,1.4,0,2.8-0.3,4.2c-0.7,3.5-2.4,6.5-4.6,9.2c-0.1,0.2-0.3,0.4-0.4,0.6
					c0.9-0.5,1.8-1,2.6-1.5c2-1.1,4.1-2.1,6.5-2.3c2.1-0.2,4.1,0.2,6.2,0.8c2.5,0.7,4.9,1.7,7,3.5c2.6,2.2,3.9,5.2,4.8,8.4
					c1,3.7,1.2,7.5,1.1,11.3c-0.1,6.4-1,12.6-3,18.7c-1.7,5-3.9,9.7-6.7,14.2c-2.4,3.7-5.5,6.1-9.8,7c-1.1,0.2-2.3,0.5-3.4,0.7
					c-0.7,0.1-1.5,0-2,0.4c-0.5,0.3-0.7,1.1-1.1,1.7c-0.1,0.1-0.1,0.2-0.2,0.3c-1,1.4-1.9,1.5-3.3,0.4c-0.4,0.3-0.8,0.7-1.3,0.8
					c-0.9,0.3-1.7,0.7-2.6,1c-1.2,0.5-2.4,0.2-3.5-0.5c-0.3-0.2-0.6-0.3-1.1-0.3c-0.8,0.1-1.5-0.2-2.2-0.6c-0.2-0.2-0.4-0.3-0.7-0.5
					c-0.2,0.1-0.3,0.2-0.4,0.3c-0.7,0.6-1.6,0.6-2.2,0c-0.6-0.6-1.1-1.4-1.5-2.2c-0.2-0.4-0.4-0.6-0.9-0.7c-1.9-0.4-3.8-0.7-5.6-1.2
					c-3.7-0.9-6.6-3-8.7-6.1c-4.1-6.1-6.9-12.8-8.7-19.9c-0.9-3.7-1.3-7.5-1.5-11.4c0-0.4-0.1-0.8-0.1-1.2V409.3z M382.7,411.8
					c0-3.6-0.2-7.1-1.2-10.6c-1.1-4-3.3-7.2-7.1-8.9c-1.6-0.7-3.3-1.2-5-1.7c-3-0.8-6-0.5-8.9,0.9c-3,1.4-5.8,3.3-8.5,5.3
					c-0.6,0.4-1.1,0.9-1.3,1.8c-0.1,0.7-0.8,1.1-1.6,1.1c-1,0-1.8-0.5-2.2-1.4c-0.3-0.6-0.6-1-1.2-1.3c-0.1-0.1-0.2-0.1-0.3-0.2
					c-2.8-2.2-5.7-4.1-9-5.6c-1.9-0.8-3.8-1.2-5.9-1c-2.6,0.3-5.2,1-7.5,2.2c-2.6,1.2-4.5,3.2-5.8,5.8c-1.1,2.4-1.7,4.9-2,7.4
					c-0.6,4.8-0.4,9.6,0.2,14.4c1.1,9,4.2,17.2,9,24.8c2.2,3.5,5.2,5.8,9.4,6.6c3.1,0.5,6.2,1,9.2,1.5c0.7,0.1,1.5,0.2,2.2,0.1
					c1.9-0.4,3.8-0.5,5.7-0.3c1.5,0.1,3,0.4,4.5,0.1c2.9-0.6,5.9-1,8.8-1.6c2.9-0.6,5.3-1.9,7.2-4.2c1-1.2,1.9-2.5,2.7-3.9
					C379.9,433.5,382.8,423.1,382.7,411.8 M342.8,380.7c0.6,1.8,1.1,3.4,1.7,5c1.2,3.5,2.4,7.1,2.8,10.8c0.1,0.5,0.4,1.1,0.7,1.5
					c0.2,0.3,0.7,0.5,1.1,0.6c0.4,0.1,1-0.5,0.9-0.8c-0.4-1-0.4-2-0.4-3.1c0.1-3.7,0.1-7.4,0.3-11.2c0-1.1,0.2-2.2,0.4-3.5
					C347.8,380.3,345.4,380.5,342.8,380.7 M359.9,378.4c-0.2,0.1-0.3,0.1-0.3,0.1c-2,1-3.9,2.2-5.5,3.7c-1.8,1.7-3.2,3.7-3.4,6.2
					c-0.1,2,0,4.1,0,6.1c1.1-3.7,3-7,5-10.2c-1.5,3.8-3.3,7.4-4.5,11.3c0.1,0.1,0.2,0.1,0.2,0.2c0.1-0.2,0.2-0.4,0.3-0.5
					c0.9-1,1.8-1.9,2.7-3c2.4-2.8,4.4-5.9,5.2-9.5C359.9,381.4,360.1,380,359.9,378.4 M346.7,456.3c0.2,0.2,0.4,0.3,0.5,0.4
					c1.2,0.5,2.5,0.8,3.7,0c0.2-0.1,0.5-0.1,0.7-0.2c0.4-0.1,0.9-0.1,1.2-0.2c0.4-0.2,0.7-0.5,1.1-0.8c0.4-0.3,0.7-0.3,1.1,0
					c0.2,0.2,0.3,0.3,0.5,0.4c0.3,0.2,0.6,0.2,0.8,0c0.5-0.5,0.9-1.1,1.3-1.6c0,0-0.1-0.1-0.1-0.1c-0.2,0-0.4,0-0.6,0.1
					c-1.4,0.1-2.7,0.4-4.1,0.2c-2.3-0.4-4.7-0.6-7-0.2c-1.8,0.3-3.6,0.3-5.4,0c-0.1,0-0.2,0-0.3,0c0.1,0.2,0.2,0.3,0.3,0.5
					c0.2,0.3,0.4,0.5,0.6,0.8c0.7,0.8,0.9,0.8,1.7,0.1c0.5-0.5,0.7-0.5,1.2,0c0.2,0.2,0.4,0.3,0.5,0.5
					C345.1,456.6,345.9,456.8,346.7,456.3"/>
				<path class="st33" d="M382.7,411.8c0.1,11.3-2.8,21.7-8.5,31.4c-0.8,1.4-1.7,2.7-2.7,3.9c-1.8,2.3-4.3,3.6-7.2,4.2
					c-2.9,0.6-5.9,1-8.8,1.6c-1.5,0.3-3,0-4.5-0.1c-1.9-0.1-3.8,0-5.7,0.3c-0.7,0.1-1.5,0-2.2-0.1c-3.1-0.5-6.2-1-9.2-1.5
					c-4.1-0.7-7.2-3.1-9.4-6.6c-4.8-7.6-8-15.8-9-24.8c-0.6-4.8-0.8-9.6-0.2-14.4c0.3-2.6,0.9-5.1,2-7.4c1.3-2.6,3.2-4.6,5.8-5.8
					c2.4-1.1,4.9-1.9,7.5-2.2c2-0.2,4,0.2,5.9,1c3.3,1.4,6.2,3.4,9,5.6c0.1,0.1,0.2,0.2,0.3,0.2c0.6,0.3,0.9,0.8,1.2,1.3
					c0.4,0.9,1.2,1.4,2.2,1.4c0.7,0,1.4-0.4,1.6-1.1c0.2-0.8,0.7-1.3,1.3-1.8c2.7-2,5.4-3.9,8.5-5.3c2.9-1.4,5.8-1.7,8.9-0.9
					c1.7,0.5,3.4,1,5,1.7c3.9,1.7,6,4.9,7.1,8.9C382.5,404.7,382.8,408.2,382.7,411.8 M326.9,397.5c-0.8-0.3-1.1-0.2-1.5,0.5
					c-0.2,0.5-0.4,0.9-0.5,1.4c-0.9,3.6-0.7,7.2-0.3,10.8c0.4,3.8,1.3,7.6,2.4,11.2c1.5,5.3,3.1,10.6,5.5,15.6
					c0.7,1.4,1.4,2.7,2.3,4.1c0.6,0.9,1.3,0.9,1.8-0.1c0.4-0.7,0.7-1.4,1-2.1c0.7-1.5,0.9-1.5,2.1-0.4c0.9,0.9,1.8,1.8,2.7,2.7
					c0.5,0.4,1,0.8,1.6,1.1c0.7,0.3,1.2,0.1,1.5-0.6c0.1-0.3,0.2-0.6,0.2-0.8c0.1-0.9,0.2-1.8,0.2-2.7c0.1-3.6,0.1-7.2,0.1-10.7
					c0.1-4.4,0.2-8.8,0.9-13.1c0.4-2.5,0.7-5,1-7.4c0.1-0.7,0.1-1.5,0-2.2c-0.1-1-0.9-1.2-1.6-0.5c-0.4,0.3-0.7,0.7-1,1.2
					c-0.6,1-1.2,1.9-1.9,2.9c-0.1,0.2-0.3,0.3-0.5,0.6c-0.2-0.4-0.3-0.7-0.4-1c-0.2-0.4-0.3-0.9-0.4-1.4c-0.4-1-1.1-1.2-1.8-0.3
					c-0.4,0.4-0.7,1-1,1.5c-0.4,0.6-0.7,1.3-1.1,1.9c-0.3,0.5-0.5,0.5-0.7,0c-0.3-0.6-0.6-1.2-0.9-1.9c-1.2-3.2-1.8-6.6-2.2-10
					c-0.1-1.1-0.2-2.3-0.4-3.4c-0.1-0.8-0.6-1.2-1.5-1.2c-0.5,0-1,0.1-1.4,0.2c-0.8,0.3-1.5,0.6-2.3,0.9c-1,0.4-1.5,1-1.7,2
					C327.1,396.7,327,397.1,326.9,397.5 M371.2,432.4c0.8,0.3,1.1,0.2,1.5-0.4c0.2-0.2,0.3-0.5,0.4-0.8c2.4-5.7,4.6-11.5,5.1-17.8
					c0.2-2.1,0.3-4.1-0.2-6.2c-0.4-1.7-1.1-3.2-2.5-4.2c-0.9-0.7-1.7-0.5-2,0.7c-0.2,0.8-0.3,1.5-0.5,2.3c-0.3,1.5-0.6,3-1,4.5
					c-0.1,0.3-0.2,0.5-0.4,0.9c-0.2-0.4-0.3-0.7-0.4-1c-0.2-0.9-0.4-1.8-0.5-2.7c-0.3-1.7-0.5-3.4-0.9-5.1c-0.2-1-0.7-1.9-1.5-2.6
					c-0.8-0.7-1.7-0.6-2.3,0.2c-0.6,0.7-0.9,1.6-1,2.5c-0.2,1.4,0,2.7,0.3,4.1c0.4,1.7,0.9,3.4,1.3,5.1c1,4.5,0.9,8.9,0.1,13.4
					c-0.7,3.8-1.5,7.6-2.3,11.4c-0.2,1-0.3,2.1-0.4,3.1c0,1,0.7,1.5,1.6,0.9c0.5-0.3,1-0.7,1.3-1.1c0.6-0.7,1.1-1.5,1.6-2.3
					c0.7-1.2,1.3-2.4,1.9-3.6C370.7,433.2,371,432.8,371.2,432.4"/>
				<path class="st34" d="M342.8,380.7c2.6-0.2,5-0.4,7.4-0.6c-0.1,1.2-0.3,2.4-0.4,3.5c-0.1,3.7-0.2,7.4-0.3,11.2
					c0,1,0,2.1,0.4,3.1c0.1,0.3-0.5,0.9-0.9,0.8c-0.4-0.1-0.9-0.3-1.1-0.6c-0.3-0.4-0.6-1-0.7-1.5c-0.4-3.7-1.5-7.3-2.8-10.8
					C343.9,384.2,343.4,382.5,342.8,380.7"/>
				<path class="st35" d="M359.9,378.4c0.2,1.5,0,3-0.4,4.4c-0.8,3.7-2.8,6.7-5.2,9.5c-0.9,1-1.8,2-2.7,3c-0.1,0.1-0.2,0.3-0.3,0.5
					c-0.1-0.1-0.2-0.1-0.2-0.2c1.2-3.9,3.1-7.5,4.5-11.3c-2,3.3-3.9,6.5-5,10.2c0-2-0.1-4.1,0-6.1c0.2-2.5,1.6-4.5,3.4-6.2
					c1.6-1.6,3.5-2.7,5.5-3.7C359.6,378.5,359.7,378.5,359.9,378.4"/>
				<path class="st34" d="M346.7,456.3c-0.8,0.5-1.6,0.3-2.3-0.4c-0.2-0.1-0.4-0.3-0.5-0.5c-0.5-0.4-0.8-0.4-1.2,0
					c-0.7,0.7-1,0.7-1.7-0.1c-0.2-0.2-0.4-0.5-0.6-0.8c-0.1-0.1-0.2-0.3-0.3-0.5c0.2,0,0.3,0,0.3,0c1.8,0.3,3.6,0.3,5.4,0
					c2.3-0.4,4.7-0.2,7,0.2c1.4,0.3,2.8-0.1,4.1-0.2c0.2,0,0.4,0,0.6-0.1c0,0,0.1,0.1,0.1,0.1c-0.4,0.5-0.8,1.1-1.3,1.6
					c-0.2,0.3-0.6,0.3-0.8,0c-0.2-0.1-0.3-0.3-0.5-0.4c-0.4-0.4-0.7-0.4-1.1,0c-0.3,0.3-0.7,0.6-1.1,0.8c-0.4,0.2-0.8,0.2-1.2,0.2
					c-0.2,0-0.5,0.1-0.7,0.2c-1.3,0.8-2.5,0.5-3.7,0C347.1,456.6,346.9,456.5,346.7,456.3"/>
				<path class="st36" d="M371.2,432.4c-0.3,0.4-0.5,0.9-0.7,1.3c-0.6,1.2-1.2,2.4-1.9,3.6c-0.5,0.8-1,1.6-1.6,2.3
					c-0.4,0.4-0.8,0.8-1.3,1.1c-0.9,0.5-1.7,0.1-1.6-0.9c0-1,0.2-2.1,0.4-3.1c0.7-3.8,1.6-7.6,2.3-11.4c0.8-4.5,0.9-8.9-0.1-13.4
					c-0.4-1.7-0.9-3.4-1.3-5.1c-0.3-1.3-0.5-2.7-0.3-4.1c0.1-0.9,0.5-1.8,1-2.5c0.7-0.9,1.5-0.9,2.3-0.2c0.8,0.7,1.3,1.6,1.5,2.6
					c0.3,1.7,0.6,3.4,0.9,5.1c0.2,0.9,0.3,1.8,0.5,2.7c0.1,0.3,0.2,0.5,0.4,1c0.2-0.4,0.4-0.6,0.4-0.9c0.3-1.5,0.7-3,1-4.5
					c0.2-0.8,0.2-1.6,0.5-2.3c0.3-1.1,1.1-1.4,2-0.7c1.4,1.1,2.2,2.5,2.5,4.2c0.4,2,0.3,4.1,0.2,6.2c-0.5,6.3-2.6,12.1-5.1,17.8
					c-0.1,0.3-0.3,0.5-0.4,0.8C372.3,432.6,372,432.6,371.2,432.4 M364.9,440.1c0.4-0.2,0.7-0.4,0.9-0.6c0.5-0.5,1-1,1.4-1.6
					c0.9-1.4,1.7-2.9,2.5-4.3c0.3-0.6,0.6-1.1,1-1.7c0.2-0.2,0.6-0.5,0.8-0.4c0.5,0.2,0.7-0.1,0.8-0.4c0.1-0.2,0.2-0.5,0.3-0.7
					c2.1-4.9,3.9-9.9,4.7-15.3c0.3-2.5,0.5-5.1,0.2-7.6c-0.2-1.6-0.8-3-1.9-4.1c-0.9-0.8-1.4-0.7-1.6,0.5c-0.2,1.2-0.4,2.5-0.6,3.7
					c-0.2,1.3-0.4,2.6-1.1,3.7c-0.4,0.6-0.9,0.6-1.2,0c-0.1-0.3-0.2-0.5-0.3-0.8c-0.2-1.1-0.4-2.2-0.6-3.3c-0.3-1.7-0.6-3.4-1-5
					c-0.2-0.7-0.7-1.4-1.2-2c-0.4-0.5-0.9-0.4-1.3,0.1c-0.4,0.7-0.7,1.4-0.9,2.2c-0.3,1.2,0,2.5,0.3,3.7c0.4,2,1.3,3.8,1.5,5.9
					c0.1,1.8,0.5,3.6,0.7,5.4c0.2,3.4-0.3,6.7-0.9,10c-0.7,3.7-1.5,7.4-2.2,11.1C364.9,439.2,364.9,439.6,364.9,440.1"/>
				<path class="st36" d="M364.9,440.1c0-0.6,0-1,0.1-1.3c0.7-3.7,1.4-7.4,2.2-11.1c0.7-3.3,1.1-6.6,0.9-10
					c-0.1-1.8-0.5-3.6-0.7-5.4c-0.2-2.1-1.1-3.9-1.5-5.9c-0.3-1.2-0.5-2.5-0.3-3.7c0.2-0.8,0.5-1.5,0.9-2.2c0.3-0.6,0.8-0.6,1.3-0.1
					c0.5,0.6,1,1.3,1.2,2c0.4,1.6,0.7,3.3,1,5c0.2,1.1,0.4,2.2,0.6,3.3c0.1,0.3,0.2,0.6,0.3,0.8c0.3,0.7,0.9,0.7,1.2,0
					c0.7-1.1,0.9-2.4,1.1-3.7c0.2-1.2,0.3-2.5,0.6-3.7c0.2-1.2,0.7-1.3,1.6-0.5c1.2,1.1,1.8,2.5,1.9,4.1c0.3,2.5,0.2,5.1-0.2,7.6
					c-0.7,5.3-2.6,10.3-4.7,15.3c-0.1,0.2-0.2,0.5-0.3,0.7c-0.2,0.3-0.3,0.6-0.8,0.4c-0.2-0.1-0.7,0.2-0.8,0.4
					c-0.4,0.5-0.6,1.1-1,1.7c-0.8,1.4-1.6,2.9-2.5,4.3c-0.4,0.6-0.9,1.1-1.4,1.6C365.5,439.8,365.3,439.9,364.9,440.1"/>
			</g>
		</g>
	</g>
	<text transform="matrix(1 0 0 1 354 430)" class="st5 st6 st7">i</text>
</g>
<g id="E">
	<g>
		<g>
			<defs>
				<rect id="SVGID_25_" x="184.7" y="348" width="119.8" height="138"/>
			</defs>
			<clipPath id="SVGID_26_">
				<use xlink:href="#SVGID_25_"  style="overflow:visible;"/>
			</clipPath>
			<g class="st37">
				<defs>
					<rect id="SVGID_27_" x="244.6" y="367.3" width="52" height="104.5"/>
				</defs>
				<clipPath id="SVGID_28_">
					<use xlink:href="#SVGID_27_"  style="overflow:visible;"/>
				</clipPath>
				<path class="st38" d="M209.3,408.3c0.1-1.2,0.2-2.4,0.3-3.5c0.3-2.6,0.9-5.2,2-7.7c1.4-3.2,3.7-5.6,7-7c2.3-1,4.8-1.8,7.4-2.1
					c2.4-0.3,4.6,0.2,6.8,1.2c2.9,1.3,5.5,3,8.1,4.8c0.4,0.3,0.7,0.6,1,1c0.1,0,0.1-0.1,0.2-0.1c-0.5-1.8-0.9-3.5-1.4-5.3
					c-0.7-2.3-1.5-4.6-2.3-6.9c-0.3-1-0.5-2-0.8-3c-0.1-0.5,0.1-0.8,0.6-0.9c2.5-0.2,5-0.5,7.5-0.7c0.2,0,0.4,0,0.6,0
					c0.9,0.1,1.1,0.4,0.9,1.3c-0.3,1.4-0.4,2.9-0.6,4.3c0.1,0,0.1,0,0.2,0.1c0.1-0.1,0.1-0.2,0.2-0.2c1.9-3.2,4.8-5.3,8.2-6.9
					c0.1-0.1,0.2-0.1,0.4-0.1c1-0.3,1.6,0.1,1.7,1.1c0.2,1.4,0,2.8-0.3,4.2c-0.7,3.5-2.4,6.5-4.6,9.2c-0.1,0.2-0.3,0.4-0.4,0.6
					c0.9-0.5,1.8-1,2.6-1.5c2-1.1,4.1-2.1,6.5-2.3c2.1-0.2,4.1,0.2,6.2,0.8c2.5,0.7,4.9,1.7,7,3.5c2.6,2.2,3.9,5.2,4.8,8.4
					c1,3.7,1.2,7.5,1.1,11.3c-0.1,6.4-1,12.6-3,18.7c-1.7,5-3.9,9.7-6.7,14.2c-2.4,3.7-5.5,6.1-9.8,7c-1.1,0.2-2.3,0.5-3.4,0.7
					c-0.7,0.1-1.5,0-2,0.4c-0.5,0.3-0.7,1.1-1.1,1.7c-0.1,0.1-0.1,0.2-0.2,0.3c-1,1.4-1.9,1.5-3.3,0.4c-0.4,0.3-0.8,0.7-1.3,0.8
					c-0.9,0.3-1.7,0.7-2.6,1c-1.2,0.5-2.4,0.2-3.5-0.5c-0.3-0.2-0.6-0.3-1.1-0.3c-0.8,0.1-1.5-0.2-2.2-0.6c-0.2-0.2-0.4-0.3-0.7-0.5
					c-0.2,0.1-0.3,0.2-0.4,0.3c-0.7,0.6-1.6,0.6-2.2,0c-0.6-0.6-1.1-1.4-1.5-2.2c-0.2-0.4-0.4-0.6-0.9-0.7c-1.9-0.4-3.8-0.7-5.6-1.2
					c-3.7-0.9-6.6-3-8.7-6.1c-4.1-6.1-6.9-12.8-8.7-19.9c-0.9-3.7-1.3-7.5-1.5-11.4c0-0.4-0.1-0.8-0.1-1.2V408.3z M278.5,410.8
					c0-3.6-0.2-7.1-1.2-10.6c-1.1-4-3.3-7.2-7.1-8.9c-1.6-0.7-3.3-1.2-5-1.7c-3-0.8-6-0.5-8.9,0.9c-3,1.4-5.8,3.3-8.5,5.3
					c-0.6,0.4-1.1,0.9-1.3,1.8c-0.1,0.7-0.8,1.1-1.6,1.1c-1,0-1.8-0.5-2.2-1.4c-0.3-0.6-0.6-1-1.2-1.3c-0.1-0.1-0.2-0.1-0.3-0.2
					c-2.8-2.2-5.7-4.1-9-5.6c-1.9-0.8-3.8-1.2-5.9-1c-2.6,0.3-5.2,1-7.5,2.2c-2.6,1.2-4.5,3.2-5.8,5.8c-1.1,2.4-1.7,4.9-2,7.4
					c-0.6,4.8-0.4,9.6,0.2,14.4c1.1,9,4.2,17.2,9,24.8c2.2,3.5,5.2,5.8,9.3,6.6c3.1,0.5,6.2,1,9.2,1.5c0.7,0.1,1.5,0.2,2.2,0.1
					c1.9-0.4,3.8-0.5,5.7-0.3c1.5,0.1,3,0.4,4.5,0.1c2.9-0.6,5.9-1,8.8-1.6c2.9-0.6,5.3-1.9,7.2-4.2c1-1.2,1.9-2.5,2.7-3.9
					C275.7,432.5,278.6,422.1,278.5,410.8 M238.5,379.7c0.6,1.8,1.1,3.4,1.7,5c1.2,3.5,2.4,7.1,2.8,10.8c0.1,0.5,0.4,1.1,0.7,1.5
					c0.2,0.3,0.7,0.5,1.1,0.6c0.4,0.1,1-0.5,0.9-0.8c-0.4-1-0.4-2-0.4-3.1c0.1-3.7,0.1-7.4,0.3-11.2c0-1.1,0.2-2.2,0.4-3.5
					C243.5,379.3,241.1,379.5,238.5,379.7 M255.6,377.4c-0.2,0.1-0.3,0.1-0.3,0.1c-2,1-3.9,2.2-5.5,3.7c-1.8,1.7-3.2,3.7-3.4,6.2
					c-0.1,2,0,4.1,0,6.1c1.1-3.7,3-7,5-10.2c-1.5,3.8-3.3,7.4-4.5,11.3c0.1,0.1,0.2,0.1,0.2,0.2c0.1-0.2,0.2-0.4,0.3-0.5
					c0.9-1,1.8-1.9,2.7-3c2.4-2.8,4.4-5.9,5.2-9.5C255.6,380.4,255.8,379,255.6,377.4 M242.4,455.3c0.2,0.2,0.4,0.3,0.5,0.4
					c1.2,0.5,2.5,0.8,3.7,0c0.2-0.1,0.5-0.1,0.7-0.2c0.4-0.1,0.9-0.1,1.2-0.2c0.4-0.2,0.7-0.5,1.1-0.8c0.4-0.3,0.7-0.3,1.1,0
					c0.2,0.2,0.3,0.3,0.5,0.4c0.3,0.2,0.6,0.2,0.8,0c0.5-0.5,0.9-1.1,1.3-1.6c0,0-0.1-0.1-0.1-0.1c-0.2,0-0.4,0-0.6,0.1
					c-1.4,0.1-2.7,0.4-4.1,0.2c-2.3-0.4-4.7-0.6-7-0.2c-1.8,0.3-3.6,0.3-5.4,0c-0.1,0-0.2,0-0.3,0c0.1,0.2,0.2,0.3,0.3,0.5
					c0.2,0.3,0.4,0.5,0.6,0.8c0.7,0.8,0.9,0.8,1.7,0.1c0.5-0.5,0.7-0.5,1.2,0c0.2,0.2,0.4,0.3,0.5,0.5
					C240.8,455.6,241.6,455.8,242.4,455.3"/>
				<path class="st39" d="M278.5,410.8c0.1,11.3-2.8,21.7-8.5,31.4c-0.8,1.4-1.7,2.7-2.7,3.9c-1.8,2.3-4.3,3.6-7.2,4.2
					c-2.9,0.6-5.9,1-8.8,1.6c-1.5,0.3-3,0-4.5-0.1c-1.9-0.1-3.8,0-5.7,0.3c-0.7,0.1-1.5,0-2.2-0.1c-3.1-0.5-6.2-1-9.2-1.5
					c-4.1-0.7-7.2-3.1-9.3-6.6c-4.8-7.6-8-15.8-9-24.8c-0.6-4.8-0.8-9.6-0.2-14.4c0.3-2.6,0.9-5.1,2-7.4c1.3-2.6,3.2-4.6,5.8-5.8
					c2.4-1.1,4.9-1.9,7.5-2.2c2-0.2,4,0.2,5.9,1c3.3,1.4,6.2,3.4,9,5.6c0.1,0.1,0.2,0.2,0.3,0.2c0.6,0.3,0.9,0.8,1.2,1.3
					c0.4,0.9,1.2,1.4,2.2,1.4c0.7,0,1.4-0.4,1.6-1.1c0.2-0.8,0.7-1.3,1.3-1.8c2.7-2,5.4-3.9,8.5-5.3c2.9-1.4,5.8-1.7,8.9-0.9
					c1.7,0.5,3.4,1,5,1.7c3.9,1.7,6,4.9,7.1,8.9C278.2,403.7,278.5,407.2,278.5,410.8 M222.6,396.5c-0.8-0.3-1.1-0.2-1.5,0.5
					c-0.2,0.5-0.4,0.9-0.5,1.4c-0.9,3.6-0.7,7.2-0.3,10.8c0.4,3.8,1.3,7.6,2.4,11.2c1.5,5.3,3.1,10.6,5.5,15.6
					c0.7,1.4,1.4,2.7,2.3,4.1c0.6,0.9,1.3,0.9,1.8-0.1c0.4-0.7,0.7-1.4,1-2.1c0.7-1.5,0.9-1.5,2.1-0.4c0.9,0.9,1.8,1.8,2.7,2.7
					c0.5,0.4,1,0.8,1.6,1.1c0.7,0.3,1.2,0.1,1.5-0.6c0.1-0.3,0.2-0.6,0.2-0.8c0.1-0.9,0.2-1.8,0.2-2.7c0.1-3.6,0.1-7.2,0.1-10.7
					c0.1-4.4,0.2-8.8,0.9-13.1c0.4-2.5,0.7-5,1-7.4c0.1-0.7,0.1-1.5,0-2.2c-0.1-1-0.9-1.2-1.6-0.5c-0.4,0.3-0.7,0.7-1,1.2
					c-0.6,1-1.2,1.9-1.9,2.9c-0.1,0.2-0.3,0.3-0.5,0.6c-0.2-0.4-0.3-0.7-0.4-1c-0.2-0.4-0.3-0.9-0.4-1.4c-0.4-1-1.1-1.2-1.8-0.3
					c-0.4,0.4-0.7,1-1,1.5c-0.4,0.6-0.7,1.3-1.1,1.9c-0.3,0.5-0.5,0.5-0.7,0c-0.3-0.6-0.6-1.2-0.9-1.9c-1.2-3.2-1.8-6.6-2.2-10
					c-0.1-1.1-0.2-2.3-0.4-3.4c-0.1-0.8-0.6-1.2-1.5-1.2c-0.5,0-1,0.1-1.4,0.2c-0.8,0.3-1.5,0.6-2.3,0.9c-1,0.4-1.5,1-1.7,2
					C222.8,395.7,222.7,396.1,222.6,396.5 M266.9,431.4c0.8,0.3,1.1,0.2,1.5-0.4c0.2-0.2,0.3-0.5,0.4-0.8c2.4-5.7,4.6-11.5,5.1-17.8
					c0.2-2.1,0.3-4.1-0.2-6.2c-0.4-1.7-1.1-3.2-2.5-4.2c-0.9-0.7-1.7-0.5-2,0.7c-0.2,0.8-0.3,1.5-0.5,2.3c-0.3,1.5-0.6,3-1,4.5
					c-0.1,0.3-0.2,0.5-0.4,0.9c-0.2-0.4-0.3-0.7-0.4-1c-0.2-0.9-0.4-1.8-0.5-2.7c-0.3-1.7-0.5-3.4-0.9-5.1c-0.2-1-0.7-1.9-1.5-2.6
					c-0.8-0.7-1.7-0.6-2.3,0.2c-0.6,0.7-0.9,1.6-1,2.5c-0.2,1.4,0,2.7,0.3,4.1c0.4,1.7,0.9,3.4,1.3,5.1c1,4.5,0.9,8.9,0.1,13.4
					c-0.7,3.8-1.5,7.6-2.3,11.4c-0.2,1-0.3,2.1-0.4,3.1c0,1,0.7,1.5,1.6,0.9c0.5-0.3,1-0.7,1.3-1.1c0.6-0.7,1.1-1.5,1.6-2.3
					c0.7-1.2,1.3-2.4,1.9-3.6C266.4,432.2,266.7,431.8,266.9,431.4"/>
				<path class="st40" d="M238.5,379.7c2.6-0.2,5-0.4,7.4-0.6c-0.1,1.2-0.3,2.4-0.4,3.5c-0.1,3.7-0.2,7.4-0.3,11.2
					c0,1,0,2.1,0.4,3.1c0.1,0.3-0.5,0.9-0.9,0.8c-0.4-0.1-0.9-0.3-1.1-0.6c-0.3-0.4-0.6-1-0.7-1.5c-0.4-3.7-1.5-7.3-2.8-10.8
					C239.7,383.2,239.1,381.5,238.5,379.7"/>
				<path class="st41" d="M255.6,377.4c0.2,1.5,0,3-0.4,4.4c-0.8,3.7-2.8,6.7-5.2,9.5c-0.9,1-1.8,2-2.7,3c-0.1,0.1-0.2,0.3-0.3,0.5
					c-0.1-0.1-0.2-0.1-0.2-0.2c1.2-3.9,3.1-7.5,4.5-11.3c-2,3.3-3.9,6.5-5,10.2c0-2-0.1-4.1,0-6.1c0.2-2.5,1.6-4.5,3.4-6.2
					c1.6-1.6,3.5-2.7,5.5-3.7C255.4,377.5,255.5,377.5,255.6,377.4"/>
				<path class="st40" d="M242.4,455.3c-0.8,0.5-1.6,0.3-2.3-0.4c-0.2-0.1-0.4-0.3-0.5-0.5c-0.5-0.4-0.8-0.4-1.2,0
					c-0.7,0.7-1,0.7-1.7-0.1c-0.2-0.2-0.4-0.5-0.6-0.8c-0.1-0.1-0.2-0.3-0.3-0.5c0.2,0,0.3,0,0.3,0c1.8,0.3,3.6,0.3,5.4,0
					c2.3-0.4,4.7-0.2,7,0.2c1.4,0.3,2.8-0.1,4.1-0.2c0.2,0,0.4,0,0.6-0.1c0,0,0.1,0.1,0.1,0.1c-0.4,0.5-0.8,1.1-1.3,1.6
					c-0.2,0.3-0.6,0.3-0.8,0c-0.2-0.1-0.3-0.3-0.5-0.4c-0.4-0.4-0.7-0.4-1.1,0c-0.3,0.3-0.7,0.6-1.1,0.8c-0.4,0.2-0.8,0.2-1.2,0.2
					c-0.2,0-0.5,0.1-0.7,0.2c-1.3,0.8-2.5,0.5-3.7,0C242.8,455.6,242.7,455.5,242.4,455.3"/>
				<path class="st42" d="M266.9,431.4c-0.3,0.4-0.5,0.9-0.7,1.3c-0.6,1.2-1.2,2.4-1.9,3.6c-0.5,0.8-1,1.6-1.6,2.3
					c-0.4,0.4-0.8,0.8-1.3,1.1c-0.9,0.5-1.7,0.1-1.6-0.9c0-1,0.2-2.1,0.4-3.1c0.7-3.8,1.6-7.6,2.3-11.4c0.8-4.5,0.9-8.9-0.1-13.4
					c-0.4-1.7-0.9-3.4-1.3-5.1c-0.3-1.3-0.5-2.7-0.3-4.1c0.1-0.9,0.5-1.8,1-2.5c0.7-0.9,1.5-0.9,2.3-0.2c0.8,0.7,1.3,1.6,1.5,2.6
					c0.3,1.7,0.6,3.4,0.9,5.1c0.2,0.9,0.3,1.8,0.5,2.7c0.1,0.3,0.2,0.5,0.4,1c0.2-0.4,0.4-0.6,0.4-0.9c0.3-1.5,0.7-3,1-4.5
					c0.2-0.8,0.2-1.6,0.5-2.3c0.3-1.1,1.1-1.4,2-0.7c1.4,1.1,2.2,2.5,2.5,4.2c0.4,2,0.3,4.1,0.2,6.2c-0.5,6.3-2.6,12.1-5.1,17.8
					c-0.1,0.3-0.3,0.5-0.4,0.8C268,431.6,267.7,431.6,266.9,431.4 M260.6,439.1c0.4-0.2,0.7-0.4,0.9-0.6c0.5-0.5,1-1,1.4-1.6
					c0.9-1.4,1.7-2.9,2.5-4.3c0.3-0.6,0.6-1.1,1-1.7c0.2-0.2,0.6-0.5,0.8-0.4c0.5,0.2,0.7-0.1,0.8-0.4c0.1-0.2,0.2-0.5,0.3-0.7
					c2.1-4.9,3.9-9.9,4.7-15.3c0.3-2.5,0.5-5.1,0.2-7.6c-0.2-1.6-0.8-3-1.9-4.1c-0.9-0.8-1.4-0.7-1.6,0.5c-0.2,1.2-0.4,2.5-0.6,3.7
					c-0.2,1.3-0.4,2.6-1.1,3.7c-0.4,0.6-0.9,0.6-1.2,0c-0.1-0.3-0.2-0.5-0.3-0.8c-0.2-1.1-0.4-2.2-0.6-3.3c-0.3-1.7-0.6-3.4-1-5
					c-0.2-0.7-0.7-1.4-1.2-2c-0.4-0.5-0.9-0.4-1.3,0.1c-0.4,0.7-0.7,1.4-0.9,2.2c-0.3,1.2,0,2.5,0.3,3.7c0.4,2,1.3,3.8,1.5,5.9
					c0.1,1.8,0.5,3.6,0.7,5.4c0.2,3.4-0.3,6.7-0.9,10c-0.7,3.7-1.5,7.4-2.2,11.1C260.6,438.2,260.6,438.6,260.6,439.1"/>
				<path class="st42" d="M260.6,439.1c0-0.6,0-1,0.1-1.3c0.7-3.7,1.4-7.4,2.2-11.1c0.7-3.3,1.1-6.6,0.9-10
					c-0.1-1.8-0.5-3.6-0.7-5.4c-0.2-2.1-1.1-3.9-1.5-5.9c-0.3-1.2-0.5-2.5-0.3-3.7c0.2-0.8,0.5-1.5,0.9-2.2c0.3-0.6,0.8-0.6,1.3-0.1
					c0.5,0.6,1,1.3,1.2,2c0.4,1.6,0.7,3.3,1,5c0.2,1.1,0.4,2.2,0.6,3.3c0.1,0.3,0.2,0.6,0.3,0.8c0.3,0.7,0.9,0.7,1.2,0
					c0.7-1.1,0.9-2.4,1.1-3.7c0.2-1.2,0.3-2.5,0.6-3.7c0.2-1.2,0.7-1.3,1.6-0.5c1.2,1.1,1.8,2.5,1.9,4.1c0.3,2.5,0.2,5.1-0.2,7.6
					c-0.7,5.3-2.6,10.3-4.7,15.3c-0.1,0.2-0.2,0.5-0.3,0.7c-0.2,0.3-0.3,0.6-0.8,0.4c-0.2-0.1-0.7,0.2-0.8,0.4
					c-0.4,0.5-0.6,1.1-1,1.7c-0.8,1.4-1.6,2.9-2.5,4.3c-0.4,0.6-0.9,1.1-1.4,1.6C261.3,438.8,261,438.9,260.6,439.1"/>
			</g>
		</g>
	</g>
	<text transform="matrix(1 0 0 1 249 430)" class="st5 st6 st7">e</text>
</g>
</svg>
