<?xml version="1.0" encoding="utf-8"?>
<!-- Generator: Adobe Illustrator 22.1.0, SVG Export Plug-In . SVG Version: 6.00 Build 0)  -->
<svg version="1.1" xmlns="http://www.w3.org/2000/svg" xmlns:xlink="http://www.w3.org/1999/xlink" x="0px" y="0px"
	 viewBox="0 0 690 500" style="enable-background:new 0 0 690 500;" xml:space="preserve">
<style type="text/css">
	.st0{fill:#FFFFFF;stroke:#000000;stroke-miterlimit:10;}
	.st1{fill:#DB394A;stroke:#000000;stroke-miterlimit:10;}
	.st2{fill:#C8102B;stroke:#000000;stroke-miterlimit:10;}
	.st3{clip-path:url(#SVGID_2_);}
	.st4{clip-path:url(#SVGID_4_);}
	.st5{clip-path:url(#SVGID_4_);fill:#FEAB41;}
	.st6{clip-path:url(#SVGID_4_);fill:#FABA62;}
	.st7{clip-path:url(#SVGID_4_);fill:#F88F10;}
	.st8{clip-path:url(#SVGID_4_);fill:#B4328A;}
	.st9{clip-path:url(#SVGID_4_);fill:#FAD9B6;}
	.st10{clip-path:url(#SVGID_4_);fill:#BABABA;}
	.st11{clip-path:url(#SVGID_4_);fill:#020003;}
	.st12{clip-path:url(#SVGID_6_);}
	.st13{clip-path:url(#SVGID_8_);}
	.st14{clip-path:url(#SVGID_8_);fill:#5D3535;}
	.st15{clip-path:url(#SVGID_8_);fill:#E4A16C;}
	.st16{clip-path:url(#SVGID_8_);fill:#965454;}
	.st17{clip-path:url(#SVGID_8_);fill:#04101B;}
	.st18{clip-path:url(#SVGID_8_);fill:#FFFFFF;}
	.st19{clip-path:url(#SVGID_8_);fill:#B7B7B7;}
	.st20{clip-path:url(#SVGID_8_);fill:#450B0B;}
	.st21{clip-path:url(#SVGID_8_);fill:#EFD0D0;}
	.st22{clip-path:url(#SVGID_8_);fill:#63180F;}
	.st23{clip-path:url(#SVGID_8_);fill:#BB4835;}
</style>
<g id="Слой_5">
	<g>
		<g>
			<path class="st0" d="M380.4,157.6l-71.2,17.1c-3.8,0.9-7.5-1.4-8.4-5.2L273.7,56.9c-0.9-3.8,1.4-7.5,5.2-8.4L350,31.4
				c3.8-0.9,7.5,1.4,8.4,5.2l27.1,112.7C386.5,152.9,384.1,156.7,380.4,157.6z"/>
			<path class="st0" d="M377,158.4l-71.2,17.1c-3.8,0.9-7.5-1.4-8.4-5.2L270.3,57.7c-0.9-3.8,1.4-7.5,5.2-8.4l71.2-17.1
				c3.8-0.9,7.5,1.4,8.4,5.2L382.2,150C383.1,153.7,380.8,157.5,377,158.4z"/>
			<path class="st0" d="M373.3,159.3l-71.2,17.1c-3.8,0.9-7.5-1.4-8.4-5.2L266.6,58.6c-0.9-3.8,1.4-7.5,5.2-8.4l71.2-17.1
				c3.8-0.9,7.5,1.4,8.4,5.2l27.1,112.7C379.4,154.6,377.1,158.4,373.3,159.3z"/>
			<path class="st1" d="M369.6,160.2l-71.2,17.1c-3.8,0.9-7.5-1.4-8.4-5.2L262.8,59.5c-0.9-3.8,1.4-7.5,5.2-8.4L339.2,34
				c3.8-0.9,7.5,1.4,8.4,5.2l27.1,112.7C375.6,155.5,373.3,159.3,369.6,160.2z"/>
			
				<rect x="270.6" y="50.5" transform="matrix(0.9723 -0.2338 0.2338 0.9723 -19.2864 68.2257)" class="st2" width="15" height="129.8"/>
		</g>
	</g>
	<g>
		<g>
			<defs>
				
					<rect id="SVGID_1_" x="458.7" y="14.9" transform="matrix(0.573 -0.8196 0.8196 0.573 141.9238 478.4928)" width="143" height="176.3"/>
			</defs>
			<clipPath id="SVGID_2_">
				<use xlink:href="#SVGID_1_"  style="overflow:visible;"/>
			</clipPath>
			<g class="st3">
				<defs>
					
						<rect id="SVGID_3_" x="458.7" y="14.9" transform="matrix(0.573 -0.8196 0.8196 0.573 141.9238 478.4928)" width="143" height="176.3"/>
				</defs>
				<clipPath id="SVGID_4_">
					<use xlink:href="#SVGID_3_"  style="overflow:visible;"/>
				</clipPath>
				<path class="st4" d="M549.9,127.2c-3.2-2.2-50.8-35.5-54-37.7c-3.4-2.4-6.7-4.8-10.1-7.2c-1.4-1-2.9-2.1-4.3-3.2
					c-0.2-0.2-0.4-0.6-0.4-0.9c-0.1-3,0.8-5.7,2.6-8.1c1.6-2.1,3.6-3.7,6.2-4.5c0.9-0.3,1.7-0.3,2.6,0.4c3,2.3,6,4.6,9.1,6.8
					c2.9,2.1,5.8,4.3,8.7,6.4c2.9,2.2,50.3,35.5,53.2,37.6c1.7,1.3,3.4,2.5,5.1,3.8c0.8,0.6,1.4,1.2,1.8,2.1
					c1.9,3.9,3.9,7.7,5.8,11.5c0.5,1,0.4,1.9-0.4,2.3c-0.3,0.2-0.8,0.3-1.1,0.2c-2.7-0.4-5.4-0.9-8.1-1.3c-2-0.3-4-0.6-6-0.9
					c-0.3,0-0.5-0.1-0.7-0.3c-3.4-2.4-6.8-4.7-10.1-7.1L549.9,127.2z M490.6,80.1c5.1,3.6,54.6,38.4,59.6,42c3,2.2,6,4.3,9,6.4
					c1,0.7,1.9,1.8,3.4,1.6c0.9-0.1,1.8-0.1,2.5-0.8c0.9-0.8,1.5-1.6,1.1-2.9c-0.2-0.4-0.2-0.9-0.3-1.3c-0.1-0.3-0.3-0.7-0.6-0.9
					c-5.9-4.2-56.4-39.6-62.3-43.8c-2.6-1.8-5.1-3.7-7.7-5.5c-0.4-0.3-0.6-0.3-1,0.1C492.8,76.4,491.5,78.1,490.6,80.1 M495.5,73.8
					c0.2,0.2,0.4,0.3,0.5,0.4c3.7,2.7,7.5,5.4,11.2,8c4.7,3.3,53.9,37.8,58.6,41.1c1.1,0.8,2.5,0.7,3.7-0.1c-0.3-0.4-0.6-0.9-1-1.2
					c-1.1-0.9-2.3-1.7-3.5-2.6c-2.9-2.2-5.8-4.3-8.6-6.5c-1.8-1.4-48.1-33.8-50-35.2c-2.6-1.9-5.1-3.9-7.7-5.8
					c-0.2-0.1-0.5-0.1-0.7,0C497.3,72.6,496.5,73.2,495.5,73.8 M490.1,81.1c-0.2,0.6-0.4,1.3-0.7,1.9c-0.2,0.4,0,0.6,0.3,0.9
					c2.8,2,5.5,4,8.3,6c4.5,3.2,53.4,37.5,57.9,40.7c1.5,1,2.9,2.1,4.4,3.1c0.3,0.2,0.8,0.2,1.2,0.2c0-0.4,0.1-0.7,0-1.1
					c-0.1-0.5-0.3-1-0.5-1.5c-0.1-0.2-0.2-0.3-0.3-0.4c-2.8-2-5.6-4-8.4-6.1c-2.8-2-50.1-35.1-52.9-37.1
					C496.4,85.5,493.3,83.4,490.1,81.1 M485,80.4c1.5-5.2,4.7-9,9.3-11.6c-0.8-0.6-1.5-1.1-2.1-1.7c-0.7-0.7-1.5-0.6-2.3-0.3
					c-1.8,0.7-3.3,1.8-4.6,3.2c-2.1,2.3-3.1,5-3.1,8.2c0,0.2,0.1,0.4,0.2,0.5C483.2,79.1,484.1,79.7,485,80.4 M570,135.1
					c0.5-0.9,0.8-1.7,1.4-2.4c0.5-0.7,1.3-1.2,2-1.9c-1.1-2.1-2.2-4.3-3.2-6.3c-1.1,0.2-2.2,0.4-3.3,0.6c0.5,1.5,0.8,3-0.5,4.4
					c-1.2,1.2-2.5,1.9-4.2,1.5c0.2,1.1,0.5,2.1,0.7,3.1C565.3,134.4,567.7,134.8,570,135.1 M496.1,70c-0.4-0.3-0.6-0.8-1.2-0.5
					c-2,1.2-3.8,2.5-5.3,4.3c-1.8,2.1-3,4.5-3.8,7.2l0.9,0.6c0.8-2.5,1.9-4.7,3.5-6.7C491.8,72.9,493.8,71.4,496.1,70 M488.5,82.9
					c1.4-5.2,4.6-9,9.1-11.8c-0.3-0.2-0.7-0.4-0.9-0.2c-2.5,1.4-4.8,3.2-6.4,5.6c-1,1.5-1.7,3.2-2.5,4.9
					C487.5,82.2,487.5,82.3,488.5,82.9 M571.1,135.2c1.2,0.2,2.4,0.4,3.6,0.6c0.2,0,0.6,0,0.7-0.1c0.1-0.2,0.1-0.5,0-0.7
					c-0.5-1.1-1.1-2.1-1.6-3.1C572.5,132.6,571.5,133.6,571.1,135.2"/>
				<path class="st5" d="M490.6,80.1c0.9-2,2.1-3.7,3.7-5.1c0.4-0.4,0.6-0.4,1-0.1c2.5,1.8,5.1,3.7,7.7,5.5
					c5.9,4.2,56.4,39.5,62.3,43.8c0.3,0.2,0.5,0.6,0.6,0.9c0.2,0.4,0.2,0.9,0.3,1.3c0.5,1.3-0.2,2.1-1.1,2.9
					c-0.7,0.7-1.6,0.7-2.5,0.8c-1.5,0.2-2.4-0.9-3.4-1.6c-3-2.1-6-4.3-9-6.4C545.2,118.4,495.7,83.7,490.6,80.1"/>
				<path class="st6" d="M495.5,73.8c0.9-0.6,1.8-1.2,2.7-1.8c0.2-0.1,0.5-0.1,0.7,0c2.6,1.9,5.1,3.9,7.7,5.8
					c1.8,1.4,48.1,33.8,50,35.2c2.9,2.2,5.8,4.3,8.6,6.5c1.1,0.9,2.3,1.7,3.5,2.6c0.4,0.3,0.6,0.8,1,1.2c-1.2,0.8-2.7,0.9-3.7,0.1
					c-4.7-3.3-53.9-37.8-58.6-41.1c-3.7-2.7-7.5-5.3-11.2-8C495.9,74.1,495.8,74,495.5,73.8"/>
				<path class="st7" d="M490.1,81.1c3.2,2.2,6.3,4.4,9.4,6.6c2.8,2,50.1,35.1,52.9,37.1c2.8,2,5.6,4,8.4,6.1
					c0.1,0.1,0.3,0.2,0.3,0.4c0.2,0.5,0.4,1,0.5,1.5c0.1,0.3,0,0.7,0,1.1c-0.4-0.1-0.9,0-1.2-0.2c-1.5-1-3-2-4.4-3.1
					c-4.5-3.2-53.4-37.5-57.9-40.7c-2.8-2-5.5-4-8.3-6c-0.3-0.2-0.5-0.4-0.3-0.9C489.7,82.4,489.9,81.7,490.1,81.1"/>
				<path class="st8" d="M485,80.4c-0.9-0.7-1.8-1.3-2.7-1.9c-0.1-0.1-0.2-0.3-0.2-0.5c0-3.1,1-5.9,3.1-8.2c1.3-1.4,2.8-2.5,4.6-3.2
					c0.8-0.3,1.6-0.4,2.3,0.3c0.6,0.6,1.3,1.1,2.1,1.7C489.7,71.4,486.5,75.2,485,80.4"/>
				<path class="st9" d="M570,135.1c-2.3-0.3-4.7-0.7-7.1-1c-0.2-1-0.5-2.1-0.7-3.1c1.7,0.4,3-0.3,4.2-1.5c1.3-1.4,1-2.9,0.5-4.4
					c1.1-0.2,2.1-0.4,3.3-0.6c1,2,2.2,4.2,3.2,6.3c-0.7,0.6-1.4,1.2-2,1.9C570.8,133.4,570.5,134.2,570,135.1"/>
				<path class="st10" d="M496.1,70c-2.3,1.4-4.3,2.9-5.9,4.9c-1.6,2-2.7,4.2-3.5,6.7l-0.9-0.6c0.8-2.7,2-5.1,3.8-7.2
					c1.5-1.7,3.4-3.1,5.3-4.3C495.5,69.2,495.7,69.7,496.1,70"/>
				<path class="st10" d="M488.5,82.9c-1-0.6-1-0.6-0.6-1.5c0.8-1.7,1.5-3.4,2.5-4.9c1.6-2.4,3.9-4.2,6.4-5.6
					c0.2-0.1,0.6,0.1,0.9,0.2C493.1,73.9,490,77.7,488.5,82.9"/>
				<path class="st11" d="M571.1,135.2c0.4-1.6,1.4-2.6,2.7-3.4c0.5,1.1,1.1,2.1,1.6,3.1c0.1,0.2,0.1,0.6,0,0.7
					c-0.1,0.1-0.5,0.1-0.7,0.1C573.5,135.6,572.4,135.4,571.1,135.2"/>
			</g>
		</g>
	</g>
	<g>
		<g>
			<defs>
				<rect id="SVGID_5_" x="-25" y="22.8" width="294.1" height="409.2"/>
			</defs>
			<clipPath id="SVGID_6_">
				<use xlink:href="#SVGID_5_"  style="overflow:visible;"/>
			</clipPath>
			<g class="st12">
				<defs>
					<rect id="SVGID_7_" x="-25" y="22.8" width="294.1" height="409.2"/>
				</defs>
				<clipPath id="SVGID_8_">
					<use xlink:href="#SVGID_7_"  style="overflow:visible;"/>
				</clipPath>
				<path class="st13" d="M143,396.7c-1.2-0.4-2.2-0.8-3.3-1.2c-0.8-0.3-1.6-0.6-2.4-1c-0.6-0.3-0.6-0.5-0.3-1.1
					c0.5-0.8,0.9-1.7,1.3-2.6c0.1-0.2,0.1-0.4,0.1-0.6c-0.1-2.8-0.2-5.7-0.3-8.5c-0.1-2.3-0.2-4.6-0.3-6.9c-0.2-3-0.5-6.1-0.7-9.1
					c-0.2-2.3-0.4-4.6-0.7-6.8c-0.3-3-0.7-6-1.1-9c-0.5-3.4-1-6.8-1.6-10.2c-0.6-3.4-1.3-6.7-2-10.1c-0.3-1.5-0.6-2.9-0.9-4.4
					c-0.1-0.4,0-0.9,0-1.4c0.1-0.7,0.1-0.8-0.6-1c-1-0.3-1.3-0.9-0.8-1.8c0.4-0.8,0.8-1.5,1.2-2.3c0.3-0.6,0.3-0.9-0.5-0.9
					c-0.2,0-0.4-0.1-0.6-0.1c-0.6-0.2-0.9-0.5-0.9-1.2c0-1.2,0.1-2.3,0.1-3.5c0-4.2,0-8.3-0.2-12.5c-0.1-4.6-0.4-9.1-0.6-13.7
					c-0.1-2.9-0.2-5.9-0.4-8.8c-0.2-3.7-0.4-7.4-0.6-11.1c-0.2-3.1-0.3-6.2-0.5-9.3c-0.2-3.5-0.4-7.1-0.6-10.6c0-0.8,0-1.5-0.1-2.3
					c0-0.2-0.2-0.4-0.3-0.5c-0.4-0.3-0.9-0.5-1.4-0.8c-0.1,0.5-0.1,0.9-0.2,1.3c-0.6,5.3-1.6,10.5-2.6,15.7c-1,4.8-2.1,9.6-3.1,14.5
					c-1,5-1.9,9.9-2.8,14.9c-0.2,1.3-0.5,2.7-0.7,4c-0.1,0.4,0,0.6,0.4,0.8c0.4,0.2,0.8,0.4,1.2,0.7c0.7,0.4,0.8,1,0.4,1.7
					c-0.3,0.5-0.7,1-1,1.5c-0.3,0.5-0.6,1-0.2,1.6c0.1,0.1,0.1,0.3,0.1,0.5c0.2,1.8,0.4,3.7,0.6,5.5c0.3,2.6,0.6,5.3,0.9,7.9
					c0.5,4.4,1,8.8,1.5,13.2c0.6,5.1,1.2,10.1,1.7,15.2c0.5,4.3,1,8.6,1.4,12.8c0.4,3.4,0.7,6.8,1,10.3c0.3,3.4,0.6,6.9,0.8,10.3
					c0.2,3.5,0.4,7,0.6,10.5c0,0.5,0.1,0.9,0.1,1.4c0,0.9-0.1,1.1-0.9,1.4c-2.3,1-4.7,2-7.2,2.5c-0.4,0.1-0.4,0.3-0.4,0.6
					c0.1,2.4,0.1,4.8,0.2,7.2c0,1.8-0.4,3.4-0.8,5.1c0,0.2-0.1,0.4-0.1,0.6c-0.1,1-0.6,1.7-1.5,2c-0.6,0.3-1.2,0.5-1.8,0.6
					c-1.1,0.2-2.3,0.4-3.4,0.4c-0.7,0-1.5-0.2-2.2-0.4c-0.5-0.1-0.8-0.6-0.9-1.1c0-0.2,0-0.5,0-0.7c-0.1-1.1-0.8-1.8-1.9-1.4
					c-1.7,0.6-3.4,1.2-5,1.9c-4.2,2-8.6,3.2-13.2,3.9c-1.8,0.3-3.7,0.6-5.5,0.8c-4.1,0.3-8-0.4-11.5-2.5c-0.4-0.2-0.8-0.5-1.1-0.9
					c-0.8-0.8-0.8-1.6-0.1-2.5c0.7-1,1.7-1.6,2.8-2c2.9-1.1,5.9-2.2,8.8-3.3c3.3-1.2,6.5-2.7,9.3-4.7c0.2-0.1,0.4-0.3,0.6-0.4
					c-1.4-1.8-1.4-2.1,0.5-3.1c-0.5-0.8-0.9-1.7-0.9-2.7c0-0.2-0.2-0.4-0.4-0.5c-1-0.5-1-0.6-0.7-1.7c0.6-2.1,1.1-4.1,1.6-6.2
					c0.1-0.3-0.1-0.8-0.3-1.1c-0.4-0.5-1-1-1.5-1.5c-0.7-0.7-0.7-1.3,0.1-1.8c0.5-0.3,1-0.6,1.5-0.9c0.7-0.4,1.1-1,1.1-1.8
					c0-1,0-2.1,0.1-3.1c0.2-4.5,0.5-8.9,0.6-13.4c0.1-4,0-8,0-12c0-2.9-0.1-5.7-0.3-8.6c-0.2-3.8-0.4-7.6-0.6-11.4
					c-0.2-3-0.4-6-0.7-9c-0.4-3.9-0.9-7.9-1.4-11.8c-0.3-2.2-0.8-4.4-1.2-6.5c-0.2-0.9-0.5-1.7-0.8-2.6c-0.1-0.3-0.1-0.6-0.1-0.9
					c0.4-3.6,0.9-7.2,1.3-10.8c0.4-3.4,0.7-6.8,1-10.2c0.4-4.8,0.7-9.7,1.1-14.5c0.3-4.1,0.6-8.1,1-12.2c0.1-1.2,0.2-2.3,0.3-3.6
					c-0.7,0.2-1.4,0.3-2,0.4c-0.8,0.1-1.6,0.3-2.4,0.4c-1,0.1-1.4-0.3-1.1-1.3c0.8-3.3,1.7-6.6,2.5-9.8c1.7-6.7,3.3-13.3,5-20
					c0.1-0.2,0-0.5-0.1-0.7c-1.5-2.4-3-4.8-4.5-7.1c-1.4-2.1-2.9-4.2-4.3-6.3c-1-1.5-2.1-3.1-3.1-4.6c-0.2-0.2-0.3-0.5-0.6-0.7
					c-0.7-0.7-0.8-1.5-0.7-2.4c0.6-4.1,1.3-8.2,1.8-12.3c0.5-3.8,1-7.6,1.4-11.3c0.3-3,0.5-6,0.8-9c0.3-3.3,0.6-6.6,0.8-10
					c0.2-2.3,0.3-4.6,0.5-6.9c0.1-2.1,0.2-4.2,0.5-6.3c0.5-4.2,1.1-8.4,1.6-12.6c0.1-1.1,0.3-2.2,0.7-3.2c0.5-1.3,1.5-2.4,3-2.6
					c1.1-0.2,2.2-0.3,3.3-0.4c0.7-0.1,1.4-0.2,2.1-0.3c0.1,0,0.2-0.1,0.3-0.1c1.4-1.5,3.2-2.3,5-3.1c2.3-1,4.7-1.5,7.1-1.9
					c1.1-0.2,2.1-0.5,3.2-0.7c0.1,0,0.3-0.1,0.4-0.2c1-1.1,2.1-2.3,3.1-3.4c0.1-0.1,0.2-0.3,0.4-0.5c-4.2-0.2-7.1-2.5-9.8-5.2
					c-3-3.1-3.3-8.2-0.9-11.5c0.3-0.5,0.7-0.9,1.1-1.4c0.3-0.3,0.3-0.5,0.2-0.9c-0.2-0.9-0.4-1.8-0.5-2.7c-0.1-0.6-0.7-0.6-1-0.9
					c-0.5-0.4-1.1-0.6-1.6-1c-1.5-1.1-2.6-2.5-3.1-4.3c-0.8-2.5-1.2-5-0.5-7.6c0.2-0.6,0.6-1.1,0.9-1.7c0.1-0.3,0.1-0.7,0.1-1
					c-0.1-0.5-0.3-1-0.3-1.6c0-3-0.1-6,0.1-9c0.4-5.9,2.2-11.4,6.6-15.7c2.2-2.1,4.8-3.5,7.6-4.7c2.2-0.9,4.5-1.7,6.9-2
					c1.2-0.1,2.4,0,3.6-0.1c2.7,0,5.4-0.1,8.1-0.1c2.6,0,5.1,0.6,7.5,1.7c3.5,1.7,6.6,3.9,9.4,6.6c2.8,2.8,4.6,6.2,5.4,10.1
					c0.6,2.9,1,5.8,1.1,8.7c0.1,1.6,0.1,3.3,0.2,4.9c0,0.1,0.1,0.3,0.2,0.4c1.3,0.8,1.8,2.1,1.9,3.5c0.1,2.1-0.4,4.1-1.4,5.9
					c-0.4,0.7-0.8,1.4-1.1,2.1c-0.7,1.6-1.6,2.9-2.8,4.1c-0.1,0.1-0.2,0.4-0.2,0.6c-0.3,1.1-0.5,2.3-0.8,3.4c0,0.2,0,0.4,0,0.5
					c0.9,1.2,1.4,2.6,1.6,4c0.4,2,0.4,4,0,6c-0.7,3.2-2.6,5.5-5.6,6.7c-1.3,0.5-2.7,0.8-4,1.2c-0.4,0.1-0.8,0.1-1.2,0.1
					c0.2,0.3,0.4,0.5,0.5,0.7c1,1.3,1.9,2.6,3.2,3.7c0.2,0.1,0.4,0.2,0.6,0.2c2.5,0.6,5.1,1.3,7.6,1.9c1.6,0.4,3.1,0.9,4.4,1.9
					c0.6,0.4,1.1,1,1.5,1.6c0.4,0.6,0.9,0.9,1.6,0.8c2.1-0.1,4,0.6,5.8,1.5c1,0.5,1.5,1.4,1.8,2.6c0.3,1.4,0.3,2.9,0.5,4.3
					c0.2,1.8,0,3.6,0.1,5.4c0.1,3.8,0.2,7.7,0.5,11.5c0.2,3.6,0.7,7.1,1.1,10.6c0.5,4.1,1,8.2,1.5,12.4c0.4,3.1,1,6.1,1.5,9.1
					c0.8,4.4,1.6,8.8,2.4,13.1c0.3,1.7,0.7,3.3,0.9,5c0.1,0.6-0.1,1.2-0.4,1.7c-0.6,1.1-1.4,2.1-2.2,3.1c-3.8,4.7-7.7,9.5-11.6,14.2
					c-0.4,0.5-0.6,0.9-0.5,1.6c0.6,5.6,1.1,11.2,1.9,16.8c0.5,3.5,1.3,7,1.9,10.6c0.2,0.9,0.4,1.7,0.6,2.5c0.2,0.8-0.1,1.2-0.9,1.1
					c-0.9-0.1-1.8-0.4-2.7-0.6c-0.3-0.1-0.6-0.1-1-0.2c0,0.2-0.1,0.4-0.1,0.5c-0.3,6.3-0.5,12.5-0.8,18.8c-0.2,4.8-0.4,9.7-0.6,14.5
					c-0.2,4.4-0.6,8.9-0.9,13.3c-0.3,3.8-0.6,7.6-0.9,11.5c-0.3,2.9,0.5,5.6,1,8.4c1,4.7,1.9,9.5,2.7,14.2c0.8,4.2,1.5,8.4,2.2,12.7
					c0.6,3.9,1.2,7.8,1.7,11.7c0.4,3.5,0.8,6.9,1.1,10.4c0.3,3,0.5,6,0.8,9c0.3,3.2,0.6,6.4,0.9,9.5c0.2,2.7,0.4,5.3,0.7,8
					c0.2,2.1,0.4,4.2,0.7,6.2c0.1,0.5,0.2,1,0.3,1.5c0.1,0.3,0,0.7-0.3,0.8c-1.4,0.5-2.9,1.1-4.3,1.5c-0.9,0.3-1.9,0.5-2.9,0.8
					c0.2,0.7,0.4,1.5,0.6,2.2c0.6,2.3,1.4,4.6,1.9,6.9c0.4,1.9,0.5,3.9,0.7,5.8c0.1,0.8,0,1.6,0,2.3c0,2.3-0.9,3.6-3.1,4.3
					c-3.1,1-6.2,1.7-9.4,2.2c-2.7,0.4-5.5,0.7-8.2,0.8c-1.9,0.1-3.8-0.2-5.6-0.3c-2-0.1-3.8-0.8-5.6-1.6c-1-0.5-1.7-1.2-2.2-2.1
					c-0.3-0.6-0.3-1.2,0-1.7c0.5-0.9,1.1-1.7,1.7-2.5c1.7-2.4,3.1-4.9,4.5-7.5c0.7-1.2,1.4-2.4,2-3.7
					C141.9,399.5,142.4,398.1,143,396.7 M161.7,242.1c-1.6-0.2-3.2-0.5-4.8-0.6c-3.1-0.3-6.1-0.6-9.2-0.9c-4.1-0.4-8.1-1.2-12-2.4
					c-0.6-0.2-1.1-0.3-1.6-0.5c-0.4,1.1-0.7,2.2-1,3.3c-0.3,0.9-0.8,1.6-1.9,1.4c0.2,0.9,0.1,1.8-0.7,2.2c-1,0.5-1.8-0.1-2.5-0.7
					c-0.3,0.2-0.6,0.4-0.7,0.5c0.3,5.1,0.6,10.1,0.8,15.1c0.2,2.9,0.3,5.9,0.5,8.8c0.2,4.3,0.4,8.5,0.6,12.8
					c0.1,2.8,0.2,5.5,0.3,8.3c0.2,3.9,0.3,7.8,0.5,11.8c0.1,1.9,0.1,3.8,0.1,5.8c0,2.7,0,5.5-0.1,8.2c0,0.4-0.2,0.8,0,1.1
					c0.2,0.2,0.7,0.3,1,0.4c0.9,0.3,1.3,0.9,1,1.8c-0.2,0.5-0.5,1.1-0.8,1.6c-0.2,0.5-0.5,1-0.8,1.5c0.2,0.1,0.3,0.1,0.4,0.1
					c1,0.3,1.4,0.8,1.3,1.9c0,0.4-0.1,0.9-0.1,1.3c0.1,1,0.3,2,0.5,3c1.1,3.9,1.8,7.8,2.4,11.7c0.6,3.4,1.1,6.8,1.6,10.2
					c0.4,3,0.8,6,1.1,9c0.3,2.3,0.5,4.6,0.7,6.9c0.3,3.1,0.5,6.2,0.7,9.3c0.1,2.1,0.2,4.1,0.3,6.2c0.1,2.8,0.2,5.5,0.3,8.3
					c0.1,1.2-0.2,2.2-0.8,3.1c-0.2,0.3-0.3,0.7-0.6,1.1c1.8,0.7,3.5,1.3,5.3,1.9c0.2-2.3,2.3-2.7,4.3-1c1.2-1.8,2.5-2.1,4.1-0.9
					c0.8-1,1.8-1.4,3-0.9c1.4,0.6,1.7,1.8,1.4,3.2c0.3,0,0.5,0,0.7-0.1c3.1-0.7,6.2-1.4,9.2-2.1c1.1-0.3,2.2-0.7,3.3-1.1
					c0.2-0.1,0.3-0.3,0.4-0.4c0-0.3,0-0.7,0-1c-0.2-2.1-0.5-4.1-0.6-6.2c-0.2-2.7-0.4-5.4-0.7-8.1c-0.4-4.2-0.8-8.5-1.2-12.7
					c-0.4-3.9-0.6-7.8-1.1-11.7c-0.5-4.4-1.1-8.9-1.8-13.3c-0.8-5-1.6-10.1-2.5-15.1c-1-5.6-2.1-11.2-3.3-16.7c-0.4-2-0.7-4-0.6-6
					c0.3-4,0.6-8.1,0.9-12.1c0.3-3.8,0.6-7.6,0.8-11.5c0.2-3.6,0.4-7.3,0.5-10.9c0.2-5,0.4-10,0.6-15.1c0.1-1.6,0.2-3.2,0.3-4.8
					C161.5,245.4,161.6,243.8,161.7,242.1 M96.1,389.5c0.2,0,0.4,0,0.6,0c1.3,0,1.8,0.4,2.3,1.6c0,0.1,0.2,0.2,0.3,0.2
					c1,0.1,2.1,0.3,3.1,0.4c4,0.4,8-0.1,12-0.8c2.8-0.6,5.5-1.5,8.1-2.7c0.5-0.2,0.6-0.5,0.6-1c-0.1-2.3-0.2-4.7-0.4-7
					c-0.1-2.4-0.3-4.8-0.4-7.2c-0.2-3.3-0.5-6.6-0.8-9.9c-0.2-2.6-0.5-5.2-0.8-7.8c-0.4-3.4-0.7-6.7-1.1-10
					c-0.4-3.3-0.7-6.5-1.1-9.8c-0.4-3.5-0.8-7.1-1.2-10.6c-0.3-3.1-0.7-6.2-1-9.3c-0.4-3.2-0.7-6.4-1.1-9.6c-0.3-2-0.4-4.1-0.9-6.1
					c0-0.2-0.1-0.4,0-0.5c0.2-0.6,0.4-1.2,0.7-1.7c0.3-0.5,0.6-0.9,1-1.4c-0.5-0.2-0.8-0.5-1.2-0.6c-1-0.5-1.2-0.9-1-2
					c0.3-1.5,0.5-3,0.8-4.4c0.9-4.9,1.8-9.9,2.8-14.8c0.9-4.3,1.9-8.5,2.8-12.8c0.9-4.6,1.7-9.3,2.5-13.9c0.3-1.4,0.5-2.9,0.8-4.3
					c-0.6,0.5-1.2,0.4-1.9,0.1c-3.3-1.4-6.4-3.1-9.1-5.4c-0.2-0.2-0.5-0.2-0.8-0.2c-1.5,0.4-1.2,0-1.2,1.4c0,0.7,0,1.4,0,2.1
					c0,0.7,0,1.4,0,2c0,0,0,0-0.1,0c-0.1-1.7-0.1-3.4-0.2-5.2c-0.2,0-0.3,0.1-0.5,0.1c-0.8,0.2-1.5,0.4-2.3,0.6
					c-3.5,0.8-7.1,1.7-10.6,2.5c-0.2,0.1-0.5,0.1-0.5,0.4c0,0.7-0.1,1.4-0.1,2.1c-0.2,3.3-0.4,6.6-0.6,9.9
					c-0.2,3.9-0.5,7.7-0.7,11.6c-0.2,2.9-0.4,5.9-0.6,8.8c-0.3,3.9-0.5,7.9-0.8,11.8c-0.2,3.2-0.5,6.3-0.7,9.5c-0.1,1.5-0.2,3,0,4.5
					c0.2,2.2,0.6,4.3,0.9,6.4c0.5,3.2,0.9,6.5,1.3,9.7c0.4,3,0.8,6.1,1.1,9.1c0.4,3.7,0.7,7.3,0.9,11c0.3,4.6,0.6,9.2,0.6,13.8
					c0.1,8.8-0.1,17.5-0.1,26.3c0,1.2-0.4,2-1.2,2.7c-0.4,0.3-0.8,0.7-1.2,1.1c0.4,0.3,0.7,0.5,1,0.7c0.6,0.4,0.8,1,0.7,1.7
					c-0.3,1.1-0.9,2-2,2.5c-0.1-0.8,0-1,0.4-1.5c0.2-0.3,0.4-0.5,0.6-0.8c0.3-0.5,0.2-0.9-0.3-1.2c-0.2-0.2-0.5-0.3-0.7-0.5
					c-0.8-0.5-0.9-1.1-0.2-1.8c0.4-0.5,0.9-0.9,1.4-1.3c0.4-0.3,0.5-0.7,0.5-1.3c0-2.8,0-5.5,0-8.3c0-5.7,0.2-11.4,0.1-17.1
					c-0.1-5.2-0.4-10.5-0.7-15.7c-0.2-2.9-0.4-5.8-0.7-8.7c-0.4-3.5-0.8-7.1-1.2-10.6c-0.6-4.3-1.2-8.6-1.8-12.9
					c-0.2-1.7-0.5-3.4-0.6-5.1c-0.1-1.5,0.1-2.9,0.2-4.4c0.2-3.1,0.4-6.1,0.7-9.2c0.3-4,0.5-8,0.8-12c0.2-3.4,0.4-6.8,0.7-10.1
					c0.3-3.9,0.5-7.7,0.8-11.6c0.2-2.4,0.5-4.8,0.7-7.2c0.1-0.8,0.2-1.5,0.3-2.4c-1.6,0.4-3.1,0.7-4.5,1.1c-0.1,0-0.3,0.3-0.3,0.4
					c-0.2,2.4-0.4,4.8-0.5,7.3c-0.4,4.9-0.7,9.7-1.1,14.6c-0.4,4.7-0.7,9.3-1.2,13.9c-0.5,4.7-1,9.4-1.6,14.1
					c-0.1,0.6-0.2,1.2-0.1,1.7c0.7,2.1,1.1,4.2,1.5,6.3c0.8,4.5,1.4,9,1.8,13.6c0.3,2.9,0.5,5.8,0.7,8.8c0.3,4.4,0.5,8.8,0.7,13.1
					c0.1,1.8,0.1,3.7,0.1,5.5c0,5.3,0.1,10.7,0.1,16c-0.1,5-0.4,10-0.6,15.1c-0.1,1.6-0.7,2.9-2.2,3.6c-0.3,0.2-0.6,0.4-1,0.6
					c0.3,0.3,0.6,0.6,0.9,0.9c1.1,0.9,1.4,2,1,3.4c-0.5,1.8-1,3.6-1.4,5.5c0,0.2,0,0.3,0.1,0.5c0.1,0,0.1,0,0.2,0
					c0.1-0.1,0.2-0.2,0.2-0.3c0.8-1.1,1.6-1.2,2.5-0.2c0.3,0.4,0.6,0.8,0.9,1.2c1-1.2,1.7-1.5,2.7-1.2
					C95.8,387.3,96.1,387.9,96.1,389.5 M135,96.8c0.3-0.1,0.6-0.2,0.9-0.3c2.7-0.8,5.3-1.6,8-2.5c1.1-0.4,2.2-1,3.1-1.8
					c1.2-1,1.9-2.4,2.5-3.9c0.7-1.9,1.3-3.8,1.6-5.8c0.6-3.4,0.5-6.8,0.4-10.2c0-0.7,0.1-1.3,0.2-2c0-0.3,0.1-0.7,0-1
					c-0.2-0.6-0.5-1.2-0.7-1.9c-0.4-1.3-0.6-2.6-1-3.8c-1.9-5.7-5.7-9.9-10.6-13.1c-2.9-1.9-6.1-3.3-9.2-4.8
					c-0.9-0.5-1.9-0.8-2.9-1.2c-0.2-0.1-0.4-0.1-0.5-0.1c-2.4,0.7-4.8,1.4-7.1,2.6c-4,2.3-7.6,5.1-10.5,8.7
					c-2.2,2.6-3.9,5.4-4.7,8.8c-0.2,1.1-0.6,2.2-0.9,3.3c-0.1,0.5-0.3,1.1-0.4,1.6c-0.1,0.4,0,0.7,0.4,0.9c0.1,0.1,0.3,0.3,0.3,0.5
					c0.2,1,0.3,2,0.4,3c0.2,1.9,0.4,3.8,0.7,5.8c0.4,2.5,0.9,4.9,1.4,7.4c0.2,1.1,0.4,2.1,1.2,2.9c0.8,0.9,1.6,1.9,2.5,2.7
					c0.6,0.6,1.4,1,2.1,1.4c1.2,0.5,2.4,0.9,3.6,1.4c0.5,0.2,0.9,0.3,1.4,0.4c0.1-1.7,0.2-3.2,0.4-4.8c0-0.2,0.2-0.3,0.3-0.5
					c0.1,0.2,0.2,0.3,0.3,0.5c0,0.1,0,0.3,0,0.4c0,1.2-0.1,2.3,0,3.5c0,0.6,0.1,1.3,0.5,1.8c0.6,0.9,1.5,1.6,2.6,1.9
					c2.7,0.8,5.5,1.4,8.3,0.9c1.7-0.3,3.3-0.8,4.3-2.2c0.2-0.2,0.3-0.5,0.2-0.8c-0.1-1.3-0.2-2.6-0.3-3.9c0-0.3,0-0.7,0.1-1
					c0-0.1,0.2-0.2,0.3-0.2c0.1,0,0.2,0.2,0.2,0.3C134.6,93.5,134.8,95.2,135,96.8 M105.6,233.4c0.2-0.8,0.3-1.5,0.5-2.1
					c0.8-3.8,1.9-7.5,3.6-11c1.7-3.4,3.5-6.7,5.8-9.7c0.2-0.3,0.2-0.4,0-0.6c-0.9-1-1.9-2-2.8-3c-2.3-2.4-4.5-4.9-6.7-7.3
					c-2.4-2.7-3.9-5.9-5.3-9.2c-1.2-2.8-2.2-5.6-3.3-8.4c-0.2-0.5-0.5-0.8-1-0.8c-1.7-0.3-3.5-0.5-5.2-0.8c-0.8-0.1-1.6-0.2-2.2-0.7
					c1.7-0.8,3.5-0.4,5.2-0.1l0.1-0.2c-1.2-1-2.5-2-3.7-3c0,0,0,0,0,0c1.9,1,3.7,2.1,5.6,3.1c-1.7-4.7-3.1-10.4-2.9-11.1
					c1.5,4,3.1,8.1,4.6,12.3c0.1-0.2,0.1-0.3,0.1-0.4c0.8-3.1,1.5-6.3,2.3-9.4c0.9-3.4,0.5-6.7-1-10c-0.8-1.7-1.5-3.5-2.3-5.2
					c-1.2-2.7-1.7-5.5-1.5-8.5c0.1-2.2,0.2-4.4,0.5-6.6c0.5-3.2,1.1-6.5,1.7-9.7c0.1-0.4,0-0.6-0.2-0.9c-1.8-2.1-3.2-4.4-4-7.1
					c-0.5-1.7-0.5-3.3,0.2-4.9c0.1-0.3,0.2-0.5,0.3-0.7c-1.2,0.1-2.4,0.2-3.6,0.4c-1.5,0.2-2.5,1-3,2.4c-0.2,0.5-0.2,1-0.3,1.6
					c-0.4,3.2-0.9,6.3-1.3,9.5c-0.4,3.5-0.7,7-0.9,10.4c-0.2,2.2-0.3,4.4-0.4,6.6c-0.3,3.3-0.5,6.5-0.8,9.8c-0.4,4-0.7,8-1.1,12
					c-0.4,3.8-0.9,7.5-1.5,11.2c-0.4,3.1-0.9,6.1-1.4,9.1c-0.2,1.1,0,1.8,0.7,2.7c1.2,1.5,2.2,3.2,3.4,4.9c1.4,2,2.9,3.9,4.2,6
					c2.5,4.1,5.2,8.2,8,12.1c2.8,3.9,5.2,8,7.3,12.3C104,230,104.8,231.7,105.6,233.4 M147.2,230.2c0.3-0.5,0.5-0.9,0.7-1.2
					c1.3-1.8,2.7-3.6,4.1-5.5c2-2.7,4-5.4,6.1-8.1c5.1-6.3,10.3-12.6,15.4-18.9c1-1.2,1.9-2.4,2.7-3.7c0.2-0.3,0.4-0.8,0.3-1.2
					c-0.6-3.4-1.3-6.7-1.9-10.1c-0.8-4.3-1.6-8.6-2.3-13c-0.5-2.9-0.9-5.9-1.3-8.8c-0.4-3-0.8-5.9-1.1-8.9c-0.3-3.1-0.7-6.3-0.9-9.4
					c-0.2-3.3-0.4-6.6-0.5-9.8c-0.1-2.3,0-4.7-0.1-7c-0.1-1.4-0.4-2.8-0.5-4.2c-0.1-0.9-0.5-1.6-1.3-1.9c-1.1-0.4-2.3-0.8-3.4-1.1
					c-0.7-0.2-1.5,0-2.2,0c0,0.2,0,0.2,0.1,0.3c0.4,1.6,0.5,3.3,0.2,5c-0.6,3.6-1.9,6.9-4.2,9.8c-0.2,0.2-0.3,0.6-0.2,0.8
					c0.2,1,0.4,2,0.7,3c0.6,2,1.3,4,1.8,5.9c0.8,3,1,6.1,0.1,9.1c-0.6,2.2-1.6,4.2-2.6,6.2c-1.1,2.2-2.3,4.4-3.3,6.7
					c-0.5,1.1-0.9,2.3-0.7,3.6c0.2,1.4,0.5,2.7,0.9,4c1,3.2,2,6.3,3.1,9.5c0.1,0.4,0.2,0.7,0.4,1.1c0.1,0.3,0.2,0.7,0.4,1.1
					c-0.2-4.6-0.4-9.2,0-13.7c0.7,1,0.9,2.2,0.9,3.4c0,1.2,0.1,2.3,0,3.5c0,1.1-0.1,2.3-0.2,3.4c1-3.4,1.5-7,2.7-10.4
					c0.2,0.3,0.3,0.7,0.3,1c-0.1,1.1-0.1,2.3-0.4,3.4c-0.8,3.8-1.7,7.6-2.6,11.3c0,0.2,0,0.4,0,0.7c0.2-0.1,0.3-0.2,0.4-0.3
					c1.3-1.4,2.6-2.8,3.9-4.1c0.2-0.2,0.5-0.4,0.8-0.6c0.4-0.2,0.8,0.1,0.6,0.6c-0.1,0.3-0.3,0.5-0.5,0.7c-2.7,2.6-5.1,5.4-7.4,8.2
					c-2.5,3.1-5,6.2-7.8,9c-2.8,2.8-5.6,5.6-8.4,8.4c-0.8,0.8-1.6,1.4-2.5,2.1c2.6,2.8,4.4,6,5.9,9.4
					C144.9,223,146.2,226.5,147.2,230.2 M111.8,143.3c-2.5-1.5-4.9-3.2-7.1-5.1c-2.2-1.9-3.9-4.3-5.8-6.6c-0.2,1-0.3,1.8-0.5,2.6
					c-0.7,4.2-1.4,8.4-1.5,12.7c0,1.5-0.1,3.1,0.2,4.6c0.6,3,1.9,5.8,3.2,8.5c0.9,1.9,1.5,3.8,1.7,5.9c0.2,2.3-0.2,4.4-0.7,6.6
					c-0.8,3.2-1.6,6.3-2.3,9.5c-0.1,0.2-0.1,0.6,0,0.8c1.1,2.8,2.1,5.6,3.3,8.4c1.2,2.8,2.6,5.5,4.6,7.8c3.1,3.4,6.3,6.8,9.4,10.2
					c0.1,0.1,0.3,0.3,0.5,0.4c0.5,0.3,0.6,0.6,0.3,1.1c-0.3,0.4-0.6,0.9-0.9,1.4c1.2,0.1,2.4,0.2,3.6,0.3c0.2,0,0.4-0.1,0.5,0
					c1,0.3,2,0.5,2.9,1c0.8,0.4,1.5,0.4,2.2-0.1c0.3-0.2,0.5-0.4,0.5-0.8c0-2.3-0.1-4.7-0.1-7c0.1-7.5,0.2-15.1,0.3-22.6
					c0.1-3.8,0.2-7.6,0.2-11.4c0-0.3-0.2-0.5-0.3-0.8c-0.2,0.1-0.5,0.2-0.7,0.4c-0.3,0.3-0.6,0.6-0.9,1c-0.6,0.7-1.4,0.8-2.2,0.5
					c-1.5-0.6-2.5-1.8-2.7-3.4c-0.1-0.8-0.1-1.7-0.1-2.6c0-0.5-0.2-0.7-0.7-0.6c-0.2,0-0.3,0-0.5,0.1c-1.4,0.4-2.8-0.9-2.8-2.1
					c0-1,0.1-2,0.2-3c0.1-0.9,0.3-1.7,0.4-2.6c0-1-0.5-1.5-1.4-1.7c-0.3-0.1-0.6-0.1-0.9-0.2c-1.3-0.3-1.6-0.8-1.2-2.1
					c0.3-1.1,0.7-2.2,1-3.2c0.2-0.7,0.3-1.4-0.1-2c-0.4-0.6-0.8-1.2-1.4-1.7c-0.6-0.6-0.9-1.2-0.8-2.1
					C111.5,144.4,111.6,143.9,111.8,143.3 M155.7,134c-0.2,0.2-0.4,0.4-0.6,0.6c-1.2,1.1-2.4,2.3-3.7,3.4c-2.1,1.7-4.2,3.2-6.3,4.9
					c-0.4,0.3-0.9,0.7-1.2,1.2c-0.7,1-0.8,1.9,0.1,2.8c0.2,0.2,0.4,0.5,0.6,0.7c0.5,0.7,0.6,1.4,0.2,2.2c-0.2,0.4-0.5,0.7-0.8,1
					c-0.4,0.4-0.9,0.8-1.2,1.2c-1.3,1.5-1.4,2.7-0.4,4.1c0.1,0.2,0.3,0.5,0.4,0.7c0.3,0.6,0.5,1.3,0.3,2c-0.2,1.2-0.8,2.2-1.9,2.8
					c-0.5,0.3-1,0.5-1.6,0.8c-1.2,0.6-1.2,0.8-0.7,2c0.9,1.9,0.3,3.3-1.6,4.2c-0.3,0.1-0.6,0.3-0.9,0.3c-0.9,0-1.7,0-2.6,0
					c-1.1,0-1.2,0.1-1.3,1.2c-0.1,1.8-0.9,2.9-2.5,3.2c-0.9,0.2-1.7,0-2.5-0.5c0,0.2,0,0.4,0,0.6c-0.1,4.4-0.2,8.8-0.2,13.2
					c0,2.7-0.1,5.3-0.1,8c-0.1,5.6-0.1,11.2-0.1,16.8c0,0.2,0,0.4,0.1,0.7c0.3-0.1,0.5-0.2,0.6-0.3c1.5-0.8,2.9-1.6,4.4-2.4
					c1.2-0.6,2.5-0.5,3.8-0.1c0.2,0.1,0.5,0,0.6-0.1c1.1-0.9,2.3-1.8,3.3-2.8c5.7-5.4,11.2-11.1,16-17.3c0.1-0.1,0.2-0.3,0.2-0.5
					c0.2-0.8,0.4-1.6,0.6-2.4c0.1-0.2,0.1-0.5,0-0.8c-0.6-1.8-1.2-3.6-1.7-5.4c-1.1-3.4-2.1-6.8-3.1-10.2c-0.5-1.7-0.6-3.5,0.1-5.2
					c0.6-1.5,1.3-3,2-4.4c1.2-2.5,2.5-5,3.6-7.6c1.2-2.7,1.6-5.7,0.8-8.6c-0.5-2.2-1.2-4.4-1.9-6.5C156.4,136.4,156,135.2,155.7,134
					 M155.4,398c0.2,0.3,0.5,0.5,0.7,0.8c0.6,0.8,0.5,1.5-0.3,2.1c-0.3,0.2-0.7,0.4-1.1,0.6c-1.7,0.6-3.4,0.7-5.2,0.5
					c-1.3-0.1-2.5-0.4-3.6-1.2c-1.1-0.8-1.2-1.4-0.5-2.5c-0.4-0.4-0.9-0.8-1.3-1.2c0,0.1-0.1,0.3-0.1,0.4c-0.5,1.3-0.9,2.6-1.5,3.8
					c-1.2,2.3-2.4,4.6-3.7,6.8c-1.2,2.1-2.6,4.1-4,6c-0.9,1.3-0.9,1.5,0.3,2.7c0.1,0.1,0.2,0.2,0.3,0.2c1,0.4,2.1,0.9,3.1,1.3
					c2,0.7,4.1,0.7,6.2,0.7c2.4,0.1,4.8-0.1,7.1-0.3c4-0.4,7.9-1.3,11.8-2.5c1.5-0.5,2.4-1.2,2.3-3.1c0-0.7,0.1-1.4,0-2.1
					c-0.2-2.1-0.3-4.2-0.8-6.2c-0.6-2.7-1.5-5.4-2.2-8.2c-0.1-0.5-0.3-0.5-0.7-0.4c-1.8,0.4-3.5,0.7-5.3,1
					C156.2,397.2,155.7,397.3,155.4,398 M136.3,224c-0.2-0.3-0.3-0.5-0.4-0.7c-0.8-1.2-2-2-3.2-2.8c-1.8-1.2-3.6-2.4-5.4-3.6
					c-2.1-1.4-4.2-2.8-6.6-3.5c-0.4-0.1-0.9-0.3-1.3-0.3c-1.2,0-2.4,0-3.6,0c-0.4,0-0.5,0.1-0.7,0.4c-0.9,1.6-1.9,3.1-2.8,4.7
					c-1.7,3-3.1,6.2-4,9.6c0,0.2-0.1,0.4-0.1,0.5c0.5,0.5,0.4,1.2,0.6,1.8c0.8,2.2,1.4,4.4,3.2,6.1c2.9,2.7,6.2,4.6,9.8,6.1
					c0.3,0.1,0.6,0.1,0.9,0.1c0,0,0-0.1,0-0.1c-0.1-0.1-0.2-0.2-0.3-0.3c-2.6-2.6-5.2-5.2-7.8-7.8c-0.3-0.3-0.7-0.8-0.3-1.2
					c0.4-0.4,0.8,0,1.1,0.3c0.9,0.9,1.8,1.8,2.7,2.7c1.9,1.8,3.7,3.7,5.7,5.5c0.6,0.6,1.4,1,2.1,1.4c0.3,0.2,0.7,0.4,1.1,0.1
					c-0.2-0.4-0.4-0.7-0.6-1c-1.4-2.3-2.8-4.6-4-7c-0.8-1.7-1.9-3.1-3.4-4.3c-0.5-0.4-0.9-0.9-1.2-1.5c-0.1-0.1,0-0.4,0-0.6
					c0.2,0,0.4,0,0.5,0.1c0.9,0.7,1.8,1.4,2.7,2.1c0.8,0.6,1.3,1.3,1.7,2.2c1.5,2.8,3.1,5.5,4.7,8.3c0.3,0.5,0.7,1,1.1,1.5
					c0.2,0.3,0.5,0.5,0.8,0.6c0.3,0.2,0.5,0,0.5-0.3c0-0.2,0-0.3,0-0.5c-0.2-1.4-0.5-2.7-0.7-4.1c-0.3-2.2-0.5-4.4-0.7-6.7
					c-0.1-0.6-0.3-1.1-0.8-1.5c-0.7-0.6-1.4-1.1-2.2-1.6c-1.2-0.8-2.5-1.5-3.8-2.2c-0.3-0.2-0.7-0.5-0.4-0.9
					c0.2-0.4,0.6-0.3,0.9-0.1c0.5,0.2,1,0.5,1.4,0.8c1.6,1,3.2,2.1,4.8,3.2c0.7,0.5,1.1,1.2,1.2,2.1c0.2,1.7,0.3,3.5,0.6,5.2
					c0.1,1.1,0.4,2.3,0.6,3.4c0.1,0.4,0.4,0.7,0.6,1.1c0.2-0.4,0.4-0.7,0.5-0.9c0.3-1.2,0.7-2.5,0.9-3.7c0.4-2.1,0.6-4.2,0.3-6.3
					c-0.2-1.3-0.5-2.5-1.5-3.4c-0.9-0.8-1.8-1.6-2.7-2.5c-0.8-0.9-1.6-1.8-2.4-2.7c-0.1-0.1,0-0.4-0.1-0.6c0.2,0,0.4,0,0.5,0.1
					c0.4,0.4,0.8,0.5,1.3,0.6c0.3,0.1,0.7,0.2,1,0.3c1.5,0.6,3,1.2,4.5,1.7C134.6,224.2,135.4,224.3,136.3,224 M96.9,394.4
					c0.3,0.3,0.6,0.5,0.8,0.8c0.6,0.7,0.4,1.5-0.4,1.8c-0.6,0.2-1.3,0.3-1.9,0.2c-1.9-0.4-3.8-0.9-5.7-1.5c-0.3-0.1-0.5-0.1-0.7,0.1
					c-3,2.2-6.3,3.9-9.9,5.2c-2.5,0.9-5,1.8-7.5,2.8c-1.1,0.4-2.2,0.9-3.1,1.6c-1.2,0.8-1.2,1.5,0.1,2.2c2.3,1.3,4.8,2.1,7.5,2.3
					c3.3,0.2,6.4-0.3,9.6-0.8c4.3-0.8,8.5-2,12.5-3.8c1.6-0.7,3.3-1.3,5-1.9c2-0.7,3.2,1.1,3.3,2.4c0.1,1,0.2,1.1,1.1,1.2
					c0.2,0,0.4,0,0.6,0c0.9-0.1,1.8-0.2,2.7-0.3c0.7-0.1,1.5-0.3,2.2-0.5c0.5-0.2,0.9-0.5,0.9-1.1c0-0.2,0.1-0.4,0.2-0.7
					c0.4-1.6,0.8-3.2,0.8-4.8c0-1.6,0.1-3.3,0-4.9c0-0.8-0.1-1.7-0.2-2.5c-5.3,0.8-10.5,1.5-15.8,0.2
					C98.5,393.3,97.8,394,96.9,394.4 M134.7,236.4c0,0,0,0.1,0.1,0.1c0.2,0.1,0.4,0.2,0.7,0.2c2,0.5,4,1.1,6.1,1.6
					c4.7,1,9.4,1.3,14.1,1.7c3,0.3,6,0.6,8.9,1.4c0.5,0.1,1,0.3,1.6,0.4c-2.4-9.6-3.3-19.3-4.3-29.1c-0.8,0.8-1.5,1.6-2.1,2.5
					c-2,2.6-4,5.2-5.9,7.9c-1.4,1.8-2.8,3.5-4.1,5.4c-0.7,1-1.2,2.2-1.9,3.3c-0.1,0.2-0.5,0.5-0.8,0.5c-0.2,0-0.5-0.4-0.6-0.6
					c-0.4-1.4-0.8-2.7-1.3-4.1c-0.2-0.6-0.4-1.2-0.6-1.8c0,0-0.1,0-0.1,0C143.6,231.5,140.1,234.8,134.7,236.4 M117.8,134.6
					c0,0-0.1,0.1-0.1,0.1c-0.9,2.3-2.2,4.3-4.1,6c-0.1,0.1-0.2,0.3-0.1,0.4c0.2,0.8-0.1,1.4-0.3,2.1c-0.1,0.2-0.1,0.4-0.2,0.5
					c1.5-1.1,2.9-2.2,4.3-3.4c1.2-1.1,2.3-2.3,3.4-3.4c0.1-0.1,0.3-0.2,0.4-0.2c0.1,0,0.2,0.3,0.2,0.4c0,0.7-0.1,1.3-0.2,2
					c-0.2,2.7-0.9,5.2-2.1,7.6c-0.9,1.9-2.2,3.5-4.1,4.5c-0.1,0.1-0.2,0.1-0.3,0.2c-0.4,1.1-0.7,2.1-1.1,3.2
					c0.7,0.2,1.3,0.3,1.9,0.5c0.4,0.2,0.7,0.1,0.9-0.3c1.7-2.3,3.4-4.6,5.1-6.9c0.1-0.2,0.4-0.3,0.5-0.3c0.2,0,0.4,0.3,0.5,0.4
					c0.1,0.3,0.1,0.7,0.2,1c0.1,2.5-0.1,5-0.6,7.4c-0.5,2.7-1.2,5.3-2.8,7.6c0,0,0,0.1,0,0.1c0.3,0.2,0.7,0.3,1,0.5
					c1-1.5,1.9-3,2.6-4.7c0.1-0.3,0.3-0.5,0.5-0.7c0.2,0.2,0.4,0.4,0.6,0.7c0.1,0.1,0.1,0.2,0.1,0.3c0.6,2.2,0.8,4.5,0.7,6.8
					c0,0.8-0.2,1.7-0.2,2.6c0.1-0.1,0.2-0.2,0.3-0.2c1-0.8,2.1-0.5,2.6,0.6c0.1,0.3,0.2,0.6,0.3,0.9c0.4,1,0.8,1.3,1.8,1.1
					c0.9-0.1,1.5-0.7,1.6-1.6c0-0.4,0-0.8,0.1-1.2c0.1-0.8,0.5-1.2,1.2-1.5c0.2-0.1,0.4-0.1,0.7-0.2c-0.1-0.3-0.1-0.5-0.2-0.7
					c-0.4-3,0.2-5.8,1.3-8.6c0-0.1,0.1-0.1,0.1-0.2c0.1-0.1,0.3-0.3,0.5-0.3c0.1,0,0.3,0.2,0.3,0.4c0.5,1.3,1.1,2.6,1.6,3.8
					c0.1,0.3,0.3,0.7,0.5,1.1c0.4-1.3,1.6-1.7,2.5-2.3c-1.1-1-1.8-2.2-2.4-3.4c-1.4-3-2.1-6.2-2.7-9.4c0-0.2,0.1-0.4,0.2-0.7
					c0.2,0.1,0.5,0.1,0.7,0.3c0.9,1.1,1.8,2.2,2.7,3.3c0.7,0.8,1.5,1.6,2.4,2.6c0.4-1.6,1.5-2.6,2.6-3.6c-1.4-0.6-2.3-1.6-3.1-2.7
					c-1-1.5-1.7-3.2-2-4.9c-0.4-1.8-0.6-3.7-0.9-5.6c0-0.2,0.2-0.5,0.3-0.7c0.2,0.1,0.5,0.2,0.6,0.4c1.1,1.6,2.6,2.9,4,4.2
					c0.6,0.5,1.2,1,1.9,1.6c0.3-0.4,0.6-0.7,0.9-1c0.6-0.8,0.5-1.7-0.3-2.3c-2.6-1.9-4.5-4.4-5.9-7.3c-0.2-0.5-0.5-1-0.7-1.5
					c0,0.1,0,0.2,0,0.3c0.3,1.1,0.4,2.2,0.2,3.4c-0.2,0.9-0.7,1.4-1.7,1.4c-0.4,0-0.7-0.1-1.1-0.1c-0.3-0.1-0.7-0.2-1-0.3
					c-0.1,1.2-0.1,2.4-0.2,3.6c-0.2,2.7-0.3,5.5-0.6,8.2c-0.2,2.2-0.6,4.3-1,6.5c-0.6,3.9-1.4,7.8-2.7,11.5
					c-0.2,0.5-0.5,0.9-0.8,1.2c-0.2,0.2-0.7,0.2-0.9,0c-0.2-0.1-0.5-0.4-0.5-0.7c-0.2-0.6-0.2-1.2-0.4-1.8c-1.2-3.5-2-7.2-2.3-10.9
					c-0.2-2.2-0.5-4.5-0.8-6.7c-0.3-2.8-0.7-5.7-1-8.5c-0.1-0.5-0.1-1.1-0.1-1.6C120.8,136.6,119.6,136.4,117.8,134.6 M102.4,69.4
					c0.1-0.8,0.2-1.7,0.4-2.5c0.7-3.7,1.8-7.1,4.2-10.1c5.1-6.4,11.2-11.2,19.2-13.2c0.4-0.1,0.5-0.3,0.4-0.7
					c-0.2-1.6-0.3-3.2-0.4-4.8c0-0.8,0.4-1.4,1.1-2.1h-0.7c-2,0-4,0-6,0c-0.4,0-0.7,0-1.1,0.1c-2.5,0.4-4.9,1.3-7.2,2.3
					c-2.2,1-4.2,2.2-5.9,3.8c-4.2,4.1-5.9,9.2-6.3,14.9c-0.2,2.7-0.1,5.4-0.1,8.1c0,1,0,1.9,0,2.7C101,68.5,101.7,68.9,102.4,69.4
					 M152.3,68.2c0.5-0.4,1.1-1,1.8-1.3c0.5-0.2,0.6-0.5,0.5-0.9c-0.2-1.4-0.4-2.8-0.5-4.3c-0.2-2.9-0.5-5.8-1.1-8.6
					c-0.8-3.7-2.5-6.9-5.1-9.4c-2.4-2.3-5-4.2-7.9-5.8c-2.5-1.3-5.1-2.1-7.9-2.1c-1.3,0-2.6,0.1-3.9,0.2c-0.6,0-0.9,0.2-0.9,0.8
					c0,0.5,0.1,1,0.1,1.5c0,1.7,0,3.4,0,5.1c0.4,0.2,0.9,0.3,1.3,0.5c1.7,0.8,3.4,1.6,5.1,2.4c4.1,2,8,4.2,11.3,7.5
					C149.1,57.8,151.4,62.7,152.3,68.2 M85.5,242.5c0.1,0,0.2,0,0.3,0c1.6-0.3,3.2-0.7,4.8-1c6.3-1.5,12.6-3,18.9-4.5
					c0.6-0.2,0.8-0.7,0.5-1.3c-0.5-0.8-0.9-1.6-1.3-2.4c-0.4-0.9-0.7-1.9-1.1-2.9c-0.4,1.6-0.7,3.1-1,4.5c0,0.1,0,0.3,0.1,0.4
					c0.1,0.3,0,0.7-0.3,0.7c-0.3,0-0.8-0.1-0.9-0.3c-0.6-1.2-1.2-2.4-1.8-3.6c-1.4-2.8-2.7-5.7-4.3-8.4c-2-3.4-4.2-6.5-6.4-9.8
					c0-0.1-0.1-0.1-0.3-0.2C90.3,223.3,87.9,232.9,85.5,242.5 M119.4,119.9c-0.2-0.1-0.3-0.3-0.5-0.4c-1.2-0.8-2.3-1.8-3.2-3
					c-1.3-1.7-2.6-3.4-3.9-5.1c-0.2-0.3-0.4-0.3-0.8-0.3c-1.8,0.4-3.7,0.8-5.5,1.1c-2.7,0.5-5.3,1.5-7.7,2.9
					c-0.3,0.2-0.4,0.4-0.4,0.7c0.1,0.7,0.2,1.5,0.3,2.2c0.2,1.7,1.2,3.2,2.1,4.5c2.9,4.1,6.6,7.3,10.7,10c0,0,0.1,0,0.1,0
					c-0.2-0.2-0.3-0.5-0.5-0.7c-0.7-0.8-0.7-1-0.1-1.9c0.1-0.2,0.3-0.4,0.5-0.6c1.2-1.2,2.4-2.3,3.6-3.4
					C116.2,124.2,117.8,122.1,119.4,119.9 M115.2,96.8c0.1,1.3,0.2,2.6,0.3,3.8c0.1,1.1,0.2,2.3,0.2,3.4c0,1,0.1,2,1,2.7
					c0.2,0.1,0.3,0.3,0.4,0.4c1.6,2.1,3.7,3.4,6.2,4c2.2,0.6,4.5,0.7,6.7,0.4c4.7-0.5,7.9-3,10.2-7c0.1-0.1,0.1-0.2,0.1-0.4
					c0-0.8-0.1-1.7-0.2-2.5c0-0.9,0-1.7,0.1-2.6c0-0.8,0.1-1.7,0.2-2.5c-0.2,0.1-0.4,0.1-0.5,0.1c-1.5,0.4-3,0.8-4.5,1.2
					c-0.1,0-0.2,0.1-0.2,0.2c-1.2,1.7-2.9,2.4-4.8,2.8c-2.5,0.5-4.9,0.1-7.3-0.4c-1.6-0.4-3.3-0.7-4.5-2c-0.8-0.9-1.8-1.4-3-1.6
					C115.4,96.8,115.2,96.8,115.2,96.8 M138.7,119.1c0.8,1.1,1.6,2.1,2.5,3.2c1.9,2.4,4.2,4.5,6.7,6.3c0.4,0.3,0.5,0.6,0.2,1
					c-0.5,0.7-0.5,1.5-0.3,2.3c0.1,0.7,0.4,1.4,0,2.2c0.2-0.1,0.4-0.1,0.5-0.2c1.9-1.4,3.7-2.9,5.1-4.9c2.3-3.1,3.6-6.5,2.8-10.4
					c-0.4-1.9-1-3.8-2.2-5.3c-0.2-0.2-0.5-0.5-0.9-0.5c-2.5-0.7-5-1.3-7.5-1.9c-0.2,0-0.5,0-0.6,0.2c-0.6,0.7-1.3,1.4-1.9,2.1
					C141.7,115.1,140.2,117.1,138.7,119.1 M125.5,214.3c0.2,0.2,0.3,0.2,0.3,0.2c2.8,1.9,5.6,3.7,8.4,5.6c1.1,0.8,2.1,1.7,2.9,2.9
					c0.8,1.2,0.3,2.3-1.2,2.4c-1,0-2-0.2-3-0.4c-0.7-0.1-1.4-0.4-2-0.6c0.3,0.4,0.7,0.7,1,1.1c1,0.9,1.9,2,2.3,3.4
					c0.4,1.7,0.5,3.5,0.3,5.2c0,0.5-0.1,1-0.1,1.5c1.3-0.6,2.4-1.2,3.6-1.8c2.1-1,3.3-2.8,4.3-4.8c0.4-0.8,0.5-1.8,0.8-2.7
					c0.2-0.7,0.3-1.4,0.6-2c0.1-0.3,0.2-0.5,0-0.8c-0.3-0.7-0.6-1.5-0.9-2.2c-1.2-3-2.7-5.8-4.6-8.4c-0.6-0.7-1.1-1.6-1.9-2.1
					c-1-0.6-2.2-1-3.4-0.4C130.4,211.7,128,212.9,125.5,214.3 M105.4,88.9c-0.1,0.1-0.1,0.2-0.2,0.2c-3,3.3-2.2,8.2,0.5,10.9
					c1.3,1.4,2.8,2.5,4.5,3.4c1.3,0.7,2.8,1.1,4.3,1.5c0-0.2,0-0.3,0-0.4c-0.1-2.6-0.3-5.3-0.4-7.9c0-0.4-0.2-0.5-0.5-0.6
					c-1.2-0.5-2.5-0.9-3.5-1.6C108.2,93.1,106.4,91.3,105.4,88.9 M141.4,96.2c0,0.9,0,1.7,0,2.6c0,1.5,0,3.1,0,4.6
					c0,0.8,0.2,0.9,0.9,0.7c1.4-0.4,2.8-0.7,4.2-1.2c2.9-1,4.7-3,5.4-6c0.4-1.9,0.4-3.8,0-5.7c-0.2-1-0.4-2-1.1-3
					C149.4,93.1,145.8,95.2,141.4,96.2 M131.8,133.5c0,0.9,0.1,1.6,0,2.3c-0.2,2.3-0.5,4.6-0.8,6.9c-0.4,3.2-0.7,6.3-1.5,9.4
					c-0.2,0.7-0.3,1.3-0.5,2c-0.1,0.2-0.4,0.5-0.6,0.5c-0.2,0-0.5-0.2-0.6-0.4c-0.2-0.3-0.4-0.7-0.4-1.1c-0.3-1.7-0.6-3.4-0.8-5
					c-0.6-4-1.1-8-1.7-12.1c-0.1-0.7-0.1-1.5-0.2-2.3c-0.3,0.4-0.6,0.7-0.9,1.1c-0.1,0.2-0.2,0.4-0.1,0.6c0.1,0.6,0.4,1.1,0.5,1.7
					c0.6,3.9,1.1,7.7,1.6,11.6c0.3,2,0.5,4.1,0.7,6.1c0.3,2.8,1.1,5.5,2,8.1c0.1,0.3,0.2,0.6,0.3,1.1c0.4-1.5,0.9-2.8,1.2-4.1
					c0.5-2.5,1-5,1.5-7.5c0.8-4.2,1.2-8.4,1.5-12.7c0.1-1.7,0.3-3.5,0.4-5.2c0-0.1-0.1-0.3-0.2-0.4
					C132.7,134,132.3,133.8,131.8,133.5 M127.4,124.6c0,0,0,0.1-0.1,0.2c-0.6,2.4-1.2,4.8-1.8,7.2c0,0.2-0.1,0.4,0,0.6
					c0.3,1.8,0.5,3.7,0.8,5.5c0.5,3.4,1,6.8,1.6,10.2c0.2,1.1,0.3,2.1,0.5,3.2c0.1-0.2,0.2-0.3,0.2-0.5c0.3-1.9,0.7-3.8,0.9-5.7
					c0.5-4,0.9-8.1,1.4-12.1c0-0.3,0-0.6-0.3-0.8c-1.1-1.2-2-2.6-2.4-4.3C127.9,127,127.6,125.8,127.4,124.6 M112.1,142.2
					c0.3-0.8,0.2-1.2-0.5-1.6c-0.5-0.3-1-0.6-1.4-0.9c-0.8-0.5-1-1.1-0.7-2c0.1-0.5,0.3-1,0.5-1.4c-0.7-0.4-1.4-0.8-2-1.3
					c-3.7-2.7-7-5.9-9.7-9.6c-1.6-2.3-2.9-4.7-2.9-7.6c0,0,0,0-0.1-0.1c-0.7,1.3-1,2.6-0.7,4c0.5,2.2,1.5,4.2,2.9,6
					c1.4,1.8,2.8,3.6,4.2,5.4c1.8,2.3,3.8,4.3,6.2,6C109.2,140.2,110.7,141.2,112.1,142.2 M112.3,110.1c0.2,0.3,0.5,0.6,0.7,1
					c1,1.3,1.9,2.6,3,3.8c0.8,1,1.7,2,2.6,2.9c0.4,0.4,1,0.7,1.6,1.2c1.4-2.2,2.7-4.2,4.2-6.5c-4-0.6-7-2.5-9.2-5.8
					C114.2,108,113.3,109,112.3,110.1 M128.2,118.7c0.1,1.3,0.1,2.5,0.2,3.8c0.2,1.9,0.3,3.7,0.9,5.5c1,3.1,3.1,5.1,6.3,5.8
					c1.1,0.2,1.3,0.1,1.4-1c0.1-2-0.6-3.9-1.6-5.6c-1.1-1.9-1.9-4-3.3-5.7c-1.2-1.5-2.2-3.2-3.3-4.8c-0.1,0-0.1,0.1-0.2,0.1
					c1,2.4,2,4.8,2.9,7.2c1,2.4,1.9,4.7,2.9,7.1C131.6,127.3,129.6,123.2,128.2,118.7 M144.3,109.8c-1.1-1.4-2.2-2.8-3.3-4.2
					c-2,3.2-4.5,5.6-8,6.6c0.3,0.4,0.7,0.9,1,1.3c0.4,0.5,0.8,1.1,1.2,1.7c0.8,1.1,1.7,2.1,2.6,3.3c1.1-1.6,2.1-3,3.2-4.4
					C142.1,112.5,143.2,111.2,144.3,109.8 M126.9,119.8c0,0-0.1,0-0.1,0c0,0.1-0.1,0.3-0.1,0.4c-0.4,1.6-0.8,3.2-1.3,4.8
					c-0.6,2-1.5,3.9-3,5.5c-0.1,0.1-0.2,0.2-0.3,0.3c1.3-3.8,2.8-7.5,3.5-11.4c-0.3,0.4-0.5,0.8-0.7,1.2c-1.9,3.3-3.8,6.6-5.7,9.9
					c-0.3,0.5-0.5,1.1-0.6,1.7c-0.3,1.7,0.9,3,2.6,2.8c0.8-0.1,1.5-0.5,1.9-1.1c0.5-0.8,1.1-1.6,1.4-2.6c0.7-2.3,1.2-4.7,1.7-7
					C126.5,122.8,126.7,121.3,126.9,119.8 M135.2,117.2c0,0.1,0,0.2,0,0.2c0.2,2,0.1,4-0.3,5.9c0,0.1,0,0.2,0.1,0.3
					c0.8,1.5,1.6,3,2.4,4.6c-0.2-0.8-0.4-1.5-0.5-2.2c-0.1-0.8-0.2-1.7-0.2-2.5c0-0.2,0.2-0.5,0.4-0.5c0.2,0,0.4,0.1,0.6,0.2
					c0.2,0.2,0.3,0.4,0.5,0.6c2.2,3.3,4.9,6.1,7.9,8.7c0.2,0.2,0.5,0.4,0.7,0.6c0.1-0.3,0-0.4,0-0.6c-0.2-0.9-0.3-1.8,0-2.7
					c0.1-0.4,0-0.6-0.3-0.8c-2.2-1.7-4.2-3.6-5.9-5.8c-0.8-1-1.5-2-2.3-2.9C137.2,119.3,136.2,118.3,135.2,117.2 M112.1,132.8
					c0,0,0.1,0,0.1-0.1c2.4-1.8,4.8-3.6,7.2-5.4c0.1-0.1,0.2-0.3,0.3-0.5c0.6-1.1,1.3-2.2,1.9-3.3c0.4-0.6,0.7-1.1,0.4-1.8
					c-0.1-0.1,0-0.2,0-0.4c0-0.9,0-1.7,0-2.7c-0.2,0.2-0.3,0.4-0.5,0.6c-2.6,3.4-5.2,6.8-8.6,9.5c-0.6,0.5-1.1,1.2-1.7,1.8
					c-0.1,0.1-0.2,0.4-0.1,0.6C111.4,131.7,111.8,132.2,112.1,132.8 M156.9,114c0.9,1.4,1.3,2.8,1.5,4.3c0.2,1.5,0.4,3,0.2,4.6
					c-0.4,3-1.7,5.5-3.5,7.9c-2.4,3.1-5.4,5.5-8.5,7.9c-0.1,0.1-0.3,0.2-0.4,0.3c0.2,0.4,0.3,0.8,0.4,1.2c2.5-2,5-3.8,7.2-6
					c2.9-3,5.1-6.4,5.9-10.6c0.5-2.5,0.5-4.9-0.5-7.3C158.9,115.3,158.1,114.6,156.9,114 M121.8,149.4c-1.7,2.2-3.4,4.3-5.1,6.5
					c0.7,1.2,0.8,2,0.5,3.7c-0.2,1.2-0.3,2.4-0.4,3.6c0,0.6,0.3,1,0.8,1.2C120,162,122,154.6,121.8,149.4 M115,150.2
					c3.7-3,4.6-7.3,5.3-11.6c-0.1,0-0.1,0.1-0.2,0.2c-2.1,2.3-4.5,4.3-7.2,5.8c-0.4,0.2-0.5,0.8-0.2,1.2c0.1,0.1,0.3,0.2,0.4,0.4
					C114.3,147.2,115.1,148.5,115,150.2 M113.1,140.1c1.5-1,3.1-3.3,4.1-5.5c0.2-0.4,0.3-0.8,0.2-1.3c-0.1-0.4-0.1-0.9,0-1.4
					c0.1-0.7,0.4-1.3,0.6-2c-1.9,1.4-3.8,2.9-5.8,4.4c-0.1,0.1-0.2,0.2-0.2,0.3c-0.4,1-0.8,2.1-1.2,3.1c-0.3,0.7-0.2,0.9,0.4,1.2
					C111.8,139.3,112.4,139.6,113.1,140.1 M103.2,76c-0.3,0.4-0.5,0.6-0.6,0.9c-0.1,0.7-0.1,1.3-0.2,2c0,0.2-0.1,0.3-0.1,0.5
					c-0.2-0.1-0.4-0.1-0.5-0.3c-0.9-1.2-0.9-2.8,0.3-3.7c0.9-0.7,1-1.4,0.9-2.3c0-0.2,0-0.3,0-0.5c-0.1-0.3-0.1-0.7-0.3-0.9
					c-0.6-0.7-1.3-1.4-2.1-2.1c-0.4-0.3-0.7-0.3-1,0.2c-0.2,0.5-0.4,1-0.5,1.5c-0.4,2.2,0,4.4,0.7,6.5c0.6,2,2,3.3,3.8,4.3
					c0.1,0.1,0.2,0.1,0.4,0.1C103.8,80.1,103.5,78.2,103.2,76 M137.6,124.8c-0.2,3.3,3.8,10.7,6.3,12.2c0.2-0.6,0.4-1.3,0.7-1.8
					c0.4-0.5,1-0.9,1.6-1.4C142.8,131.4,140,128.4,137.6,124.8 M140.5,160.7c0.3-0.3,0.7-0.5,0.9-0.9c0.6-0.9,0.8-1.8,0.1-2.8
					c-0.5-0.8-1-1.6-1-2.7c0-0.1-0.1-0.3-0.2-0.4c-1-1.1-2.1-2.2-3.1-3.4c-0.6-0.6-1.1-1.3-1.6-1.9
					C136.5,153,137.5,157.2,140.5,160.7 M110.4,135.6c0.1-0.4,0.2-0.5,0.3-0.7c0.1-0.2,0.1-0.3,0.1-0.5c0-0.2-0.1-0.4-0.2-0.5
					c-3.9-2.2-7.2-5.2-9.9-8.7c-1.7-2.1-3-4.4-3.5-7c-0.2-0.7-0.1-1.5-0.1-2.5c-0.3,0.4-0.7,0.7-0.7,1c-0.4,2.3-0.2,4.4,1.3,6.3
					c0.2,0.2,0.3,0.5,0.5,0.7c1.6,1.8,3.2,3.8,4.9,5.4C105.2,131.3,107.8,133.4,110.4,135.6 M152.7,73.5v7c0.3-0.4,0.5-0.8,0.7-1.1
					c0.7-1.3,1.3-2.6,2-3.9c0.8-1.5,1.1-3.2,1-4.9c0-0.6-0.3-1.3-0.6-1.8c-0.6-1-1.3-1-2.1-0.1c-1,1.1-1.2,2.4-1,3.8
					c0,0.1,0.2,0.3,0.3,0.3c1.2,0.2,1.9,1.3,1.7,2.4c0,0.2-0.2,0.4-0.3,0.6c-0.3,0.3-0.6,0.2-0.7-0.2c-0.1-0.3-0.1-0.6-0.2-0.9
					C153.4,74.2,153.2,73.8,152.7,73.5 M154.6,113.1c0.6,0.9,1.3,1.8,1.6,2.7c1,2.7,1.3,5.4,0.6,8.3c-0.7,3-2.4,5.5-4.6,7.7
					c-2,2-4.2,3.5-6.5,5c-0.2,0.1-0.4,0.3-0.4,0.5c0,0.3,0.2,0.6,0.3,1c2.6-2,5.1-4,7.3-6.3c1.6-1.8,3-3.7,4-5.9
					c1.9-4.1,1.3-8.1-0.5-12.1c-0.1-0.1-0.2-0.3-0.3-0.3C155.7,113.5,155.1,113.3,154.6,113.1 M137.9,137.6c0.2,1.1,0.4,2.3,0.7,3.4
					c0.5,2.2,1.2,4.4,2.6,6.2c0.7,0.9,1.4,1.6,2.4,2.2c0.4-0.5,0.4-0.8,0-1.3c-0.2-0.3-0.5-0.5-0.7-0.8c-0.9-1-1.1-2.1-0.5-3.3
					c0.3-0.5,0.6-1,0.9-1.4C141.5,141,139.7,139.3,137.9,137.6 M123.6,160.2c-0.8,1.4-1.5,2.7-2.3,4c-0.4,0.6-0.6,1.1-0.5,1.9
					c0.2,0.8,0,1.7,0.1,2.5c0.1,1.1,1,2.2,2,2.5c0.3,0.1,0.6,0.1,0.6-0.3c0.4-2.7,0.6-5.3,0.4-8C123.8,161.9,123.7,161,123.6,160.2
					 M89.9,387.5c-0.7,0.6-0.7,1.4-0.6,2.1c0.1,0.6,0.5,1.2,0.9,1.7c0.1,0.2,0.3,0.3,0.5,0.4c1.6,0.2,3,0.8,4.4,1.5
					c0.3,0.2,0.7,0.2,1.1,0.1c0.9-0.2,1.4-0.8,1.7-1.7c0.1-0.4,0-0.8-0.5-0.9c-0.4-0.1-0.9,0-1.4,0c-0.3,0-0.6,0.2-0.9,0.2
					c-0.3,0-0.6-0.1-0.7-0.3c-0.1-0.2,0-0.5,0-0.8c0.1-0.2,0.3-0.4,0.4-0.6c0.3-0.5,0.2-1-0.2-1.2c-0.5-0.3-0.9-0.1-1.2,0.4
					c-0.2,0.4-0.4,0.8-0.6,1.2c-0.2,0.5-0.8,0.7-1.2,0.3c-0.1-0.1-0.2-0.3-0.3-0.5C90.9,388.8,90.7,388,89.9,387.5 M135,158.9
					c0,0-0.1,0-0.1,0c-0.2,1.2-0.5,2.4-0.7,3.6c-0.2,1.6-0.3,3.2,0.1,4.8c0,0.2,0.2,0.5,0.4,0.5c1.1,0.3,2.1,0.1,3-0.6
					c0.5-0.4,0.7-0.9,0.5-1.6c-0.1-0.3-0.2-0.5-0.3-0.7c-0.7-1.5-1.4-3-2.1-4.4C135.4,160,135.2,159.4,135,158.9 M155.3,395.3
					c0-0.9-0.2-1.3-0.8-1.4c-0.6-0.2-1.1,0.1-1.5,0.6c-0.2,0.3-0.3,0.5-0.4,0.8c-0.2,0.4-0.5,0.6-0.9,0.4c-0.2-0.1-0.4-0.4-0.5-0.7
					c-0.3-0.8-0.8-1-1.5-0.7c-0.6,0.3-0.7,0.8-0.8,1.4c0,0.3-0.3,0.7-0.5,0.8c-0.2,0.1-0.6-0.1-0.8-0.3c-0.2-0.1-0.2-0.3-0.4-0.4
					c-0.4-0.3-0.8-0.7-1.3-0.9c-0.2-0.1-0.8-0.1-0.9,0.1c-0.2,0.2-0.2,0.7,0,1c0.4,0.6,0.9,1.1,1.4,1.6c0.1,0.1,0.3,0,0.4,0
					c2.3-0.7,4.6-0.7,7-0.2c0.2,0,0.5,0,0.6-0.2C155,396.6,155.3,395.9,155.3,395.3 M146.1,399.3c0.3,0.3,0.5,0.5,0.8,0.6
					c0.8,0.6,1.7,0.8,2.7,0.8c1.6,0.2,3.2,0.2,4.7-0.4c0.4-0.1,0.6-0.4,1-0.7c-0.3-0.3-0.6-0.7-1-0.9c-0.8-0.3-1.7-0.5-2.6-0.6
					c-0.9-0.1-1.8,0-2.7,0C148.1,398.3,147.1,398.6,146.1,399.3 M130.1,112.8c1.2,0.7,2,1.7,2.3,3.1c0.1,0.9,0.2,1.8,0.1,2.6
					c-0.2,1.3,0.6,2.2,1.3,3.2c0-0.2,0.1-0.2,0.1-0.3c0.1-1.7,0.3-3.3,0.4-5c0-0.1,0-0.3,0-0.4c-0.8-1.2-1.5-2.4-2.8-3.1
					C131.1,112.7,130.7,112.6,130.1,112.8 M96.5,396c0-0.1,0-0.1,0.1-0.2c-0.1-0.1-0.3-0.3-0.4-0.4c-0.4-0.3-0.8-0.5-1.2-0.8
					c-1.4-1.1-3-1.6-4.7-1.8c-0.5-0.1-1.1-0.1-1.6,0.3c0.9,1.1,1.1,1.7,2.6,1.8c0.2,0,0.4,0.1,0.6,0.1c1,0.3,2,0.5,3,0.8
					C95.4,396,96,396,96.5,396 M126.3,113c0-0.1,0-0.1,0-0.2c-0.3,0.1-0.7,0-0.8,0.2c-0.9,1.5-2,2.9-2.1,4.7c-0.1,1-0.2,2-0.3,3
					c0.1,0,0.1,0,0.2,0c0.4-0.6,0.8-1.2,1.1-1.9c0.2-0.4,0.3-0.8,0.3-1.2C124.8,116,124.9,114.3,126.3,113 M131.3,117.9
					c0-0.4,0-0.9,0-1.4c-0.1-1.4-0.9-2.4-2.2-2.9c-1.1-0.4-2.4,0.3-2.6,1.3c0.2-0.2,0.3-0.4,0.5-0.5c0.8-0.6,1.5-0.9,2.1,0
					c0.3,0.3,0.5,0.7,0.7,1C130.3,116.3,130.8,117.1,131.3,117.9"/>
				<path class="st14" d="M161.7,242.1c-0.1,1.7-0.2,3.3-0.3,5c-0.1,1.6-0.2,3.2-0.3,4.8c-0.2,5-0.4,10-0.6,15.1
					c-0.1,3.6-0.3,7.3-0.5,10.9c-0.2,3.8-0.5,7.6-0.8,11.5c-0.3,4-0.6,8.1-0.9,12.1c-0.1,2,0.2,4,0.6,6c1.2,5.6,2.3,11.2,3.3,16.7
					c0.9,5,1.8,10.1,2.5,15.1c0.7,4.4,1.2,8.8,1.8,13.3c0.4,3.9,0.7,7.8,1.1,11.7c0.4,4.2,0.8,8.5,1.2,12.7c0.3,2.7,0.4,5.4,0.7,8.1
					c0.2,2.1,0.4,4.1,0.6,6.2c0,0.3,0.1,0.7,0,1c0,0.2-0.2,0.4-0.4,0.4c-1.1,0.4-2.2,0.8-3.3,1.1c-3.1,0.7-6.1,1.4-9.2,2.1
					c-0.2,0-0.4,0.1-0.7,0.1c0.2-1.4,0-2.6-1.4-3.2c-1.2-0.5-2.2,0-3,0.9c-1.7-1.2-3-0.9-4.1,0.9c-2-1.7-4.1-1.3-4.3,1
					c-1.7-0.6-3.5-1.3-5.3-1.9c0.2-0.4,0.4-0.8,0.6-1.1c0.6-1,0.9-2,0.8-3.1c-0.2-2.8-0.2-5.5-0.3-8.3c-0.1-2.1-0.1-4.2-0.3-6.2
					c-0.2-3.1-0.5-6.2-0.7-9.3c-0.2-2.3-0.4-4.6-0.7-6.9c-0.3-3-0.7-6-1.1-9c-0.5-3.4-1-6.8-1.6-10.2c-0.6-3.9-1.4-7.9-2.4-11.7
					c-0.3-1-0.4-2-0.5-3c-0.1-0.4,0.1-0.8,0.1-1.3c0-1.1-0.3-1.6-1.3-1.9c-0.1,0-0.2-0.1-0.4-0.1c0.3-0.5,0.5-1,0.8-1.5
					c0.3-0.5,0.6-1,0.8-1.6c0.3-0.9-0.1-1.5-1-1.8c-0.4-0.1-0.9-0.1-1-0.4c-0.2-0.2,0-0.7,0-1.1c0-2.7,0.1-5.5,0.1-8.2
					c0-1.9-0.1-3.8-0.1-5.7c-0.2-3.9-0.3-7.8-0.5-11.8c-0.1-2.8-0.2-5.5-0.3-8.3c-0.2-4.3-0.4-8.5-0.6-12.8
					c-0.1-2.9-0.3-5.9-0.5-8.8c-0.3-5-0.6-10.1-0.8-15.1c0.2-0.1,0.4-0.3,0.7-0.5c0.7,0.6,1.6,1.2,2.5,0.7c0.8-0.4,0.9-1.3,0.7-2.2
					c1.1,0.2,1.6-0.5,1.9-1.4c0.4-1.1,0.7-2.2,1-3.3c0.5,0.2,1.1,0.3,1.6,0.5c3.9,1.2,7.9,2,12,2.4c3.1,0.3,6.1,0.6,9.2,0.9
					C158.5,241.6,160.1,241.9,161.7,242.1 M143.7,243.2c-0.1,0-0.1,0-0.2,0c0,0.2,0,0.4,0,0.6c0,1.3,0,2.6,0,3.8c0,11-0.1,22,0.3,33
					c0.2,3.7,0.3,7.4,0.5,11.2c0.1,2.6,0.3,5.2,0.4,7.8c0.1,4.2,0.2,8.4,0.3,12.6c0,1,0.2,2,0.3,3.1c0,0.2,0.2,0.5,0.4,0.5
					c0.6,0.2,0.5,0.5,0.2,0.8c-0.4,0.6-0.9,1.2-1.3,1.8c-0.4,0.5-0.3,0.9,0.3,1.2c0.5,0.2,0.8,0.6,0.9,1.1c0.2,0.7,0.5,1.4,0.3,2.2
					c0,0.1,0,0.3,0,0.5c0.2,2.1,0.5,4.2,0.7,6.2c0.2,2.4,0.4,4.8,0.6,7.2c0.3,3.9,0.6,7.8,0.9,11.7c0.2,2.8,0.4,5.5,0.6,8.3
					c0.3,3.7,0.5,7.4,0.8,11.1c0.2,3.3,0.5,6.6,0.7,9.9c0.3,4,0.5,8.1,0.8,12.1c0.1,0.7,0.1,1.4,0.3,2.1c0,0.2,0.3,0.4,0.5,0.6
					c0.2-0.2,0.4-0.4,0.5-0.7c0.1-0.2,0-0.5,0-0.7c-0.1-2.2-0.3-4.3-0.4-6.5c-0.2-2.7-0.4-5.5-0.6-8.2c-0.2-2.8-0.4-5.5-0.6-8.3
					c-0.2-2.8-0.4-5.7-0.6-8.6c-0.2-2.7-0.4-5.5-0.6-8.2c-0.2-3.1-0.4-6.3-0.7-9.4c-0.2-3.1-0.5-6.2-0.8-9.3
					c-0.2-2.5-0.5-5.1-0.8-7.6c-0.1-1.1-0.3-2.1-0.6-3.2c-0.3-1.2-0.4-2.5-1.7-3.2c0.3-0.4,0.5-0.7,0.7-1.1c0.3-0.4,0.5-0.9,0.7-1.4
					c0.2-0.4,0.1-0.8-0.3-0.9c-0.4-0.2-0.5-0.5-0.5-0.9c-0.1-1.5-0.1-3-0.2-4.6c-0.2-5.6-0.4-11.1-0.6-16.7
					c-0.1-3.4-0.3-6.8-0.4-10.2c-0.2-6.6-0.4-13.2-0.6-19.9c-0.2-5.6-0.3-11.3-0.4-16.9C143.7,245.2,143.7,244.2,143.7,243.2"/>
				<path class="st14" d="M96.1,389.5c0-1.6-0.3-2.2-1.3-2.6c-1-0.4-1.7-0.1-2.7,1.2c-0.3-0.4-0.6-0.8-0.9-1.2
					c-0.9-0.9-1.8-0.9-2.5,0.2c-0.1,0.1-0.2,0.2-0.2,0.3c-0.1,0-0.1,0-0.2,0c0-0.2-0.1-0.4-0.1-0.5c0.5-1.8,0.9-3.7,1.4-5.5
					c0.4-1.4,0-2.5-1-3.4c-0.3-0.3-0.6-0.6-0.9-0.9c0.4-0.2,0.7-0.4,1-0.6c1.5-0.7,2.1-1.9,2.2-3.6c0.2-5,0.5-10,0.6-15.1
					c0.1-5.3,0-10.7-0.1-16c0-1.8-0.1-3.7-0.1-5.5c-0.2-4.4-0.4-8.8-0.7-13.1c-0.2-2.9-0.4-5.8-0.7-8.8c-0.4-4.6-1-9.1-1.8-13.6
					c-0.4-2.1-0.8-4.2-1.5-6.3c-0.2-0.5,0-1.1,0.1-1.7c0.5-4.7,1.1-9.4,1.6-14.1c0.5-4.6,0.8-9.3,1.2-13.9c0.4-4.9,0.7-9.7,1.1-14.6
					c0.2-2.4,0.3-4.8,0.5-7.3c0-0.2,0.2-0.4,0.3-0.4c1.5-0.4,3-0.7,4.5-1.1c-0.1,0.8-0.2,1.6-0.3,2.4c-0.2,2.4-0.5,4.8-0.7,7.2
					c-0.3,3.9-0.6,7.7-0.8,11.6c-0.2,3.4-0.4,6.8-0.7,10.1c-0.3,4-0.5,8-0.8,12c-0.2,3.1-0.5,6.1-0.7,9.2c-0.1,1.5-0.2,2.9-0.2,4.4
					c0.1,1.7,0.3,3.4,0.6,5.1c0.6,4.3,1.2,8.6,1.8,12.9c0.5,3.5,0.9,7,1.2,10.6c0.3,2.9,0.5,5.8,0.7,8.7c0.3,5.2,0.6,10.5,0.7,15.7
					c0.1,5.7-0.1,11.4-0.1,17.1c0,2.8,0,5.5,0,8.3c0,0.5-0.2,0.9-0.5,1.3c-0.5,0.4-1,0.8-1.4,1.3c-0.6,0.7-0.5,1.3,0.2,1.8
					c0.2,0.2,0.5,0.3,0.7,0.5c0.5,0.3,0.6,0.7,0.3,1.2c-0.2,0.3-0.4,0.5-0.6,0.8c-0.4,0.6-0.5,0.7-0.4,1.5c1.1-0.5,1.8-1.4,2-2.5
					c0.2-0.7-0.1-1.3-0.7-1.7c-0.3-0.2-0.6-0.4-1-0.7c0.4-0.4,0.8-0.7,1.2-1.1c0.9-0.7,1.2-1.6,1.2-2.7c0-8.8,0.1-17.5,0.1-26.3
					c0-4.6-0.3-9.2-0.6-13.8c-0.2-3.7-0.5-7.3-0.9-11c-0.3-3.1-0.7-6.1-1.1-9.1c-0.4-3.2-0.9-6.5-1.3-9.7c-0.3-2.1-0.7-4.3-0.9-6.4
					c-0.1-1.5-0.1-3,0-4.5c0.2-3.2,0.5-6.3,0.7-9.5c0.3-3.9,0.6-7.9,0.8-11.8c0.2-2.9,0.4-5.9,0.6-8.8c0.2-3.9,0.5-7.7,0.7-11.6
					c0.2-3.3,0.4-6.6,0.6-9.9c0-0.7,0.1-1.4,0.1-2.1c0-0.4,0.2-0.4,0.5-0.4c3.5-0.8,7.1-1.7,10.6-2.5c0.8-0.2,1.5-0.4,2.3-0.6
					c0.2,0,0.3-0.1,0.5-0.1c0.1,1.8,0.1,3.5,0.2,5.2c0,0,0,0,0.1,0c0-0.7,0-1.4,0-2c0-0.7,0-1.4,0-2.1c0.1-1.5-0.2-1.1,1.2-1.4
					c0.2-0.1,0.6,0,0.8,0.2c2.7,2.3,5.8,4,9.1,5.4c0.6,0.3,1.3,0.4,1.9-0.1c-0.3,1.4-0.5,2.9-0.8,4.3c-0.8,4.6-1.6,9.3-2.5,13.9
					c-0.9,4.3-1.9,8.5-2.8,12.8c-1,4.9-1.9,9.9-2.8,14.8c-0.3,1.5-0.5,3-0.8,4.4c-0.2,1.1,0,1.5,1,2c0.4,0.2,0.8,0.4,1.2,0.6
					c-0.4,0.5-0.7,0.9-1,1.4c-0.3,0.5-0.5,1.1-0.7,1.7c-0.1,0.2,0,0.4,0,0.5c0.5,2,0.6,4.1,0.9,6.1c0.4,3.2,0.8,6.4,1.1,9.6
					c0.3,3.1,0.7,6.2,1,9.3c0.4,3.5,0.8,7.1,1.2,10.6c0.4,3.3,0.7,6.5,1.1,9.8c0.4,3.3,0.8,6.7,1.1,10c0.3,2.6,0.5,5.2,0.8,7.8
					c0.3,3.3,0.6,6.6,0.8,9.9c0.2,2.4,0.3,4.8,0.4,7.2c0.1,2.3,0.2,4.7,0.4,7c0,0.5-0.1,0.8-0.6,1c-2.6,1.2-5.3,2.1-8.1,2.7
					c-3.9,0.8-7.9,1.2-12,0.8c-1-0.1-2.1-0.3-3.1-0.4c-0.1,0-0.2-0.1-0.3-0.2c-0.5-1.2-1.1-1.6-2.3-1.6
					C96.5,389.5,96.3,389.5,96.1,389.5"/>
				<path class="st15" d="M135,96.8c-0.2-1.7-0.4-3.3-0.6-4.9c0-0.1-0.1-0.2-0.2-0.3c-0.1,0-0.3,0.1-0.3,0.2c-0.1,0.3-0.1,0.7-0.1,1
					c0.1,1.3,0.2,2.6,0.3,3.9c0,0.3-0.1,0.6-0.2,0.8c-1.1,1.4-2.6,2-4.3,2.2c-2.9,0.4-5.6-0.2-8.3-0.9c-1.1-0.3-2-1-2.6-1.9
					c-0.3-0.5-0.5-1.2-0.5-1.8c-0.1-1.1,0-2.3,0-3.5c0-0.1,0-0.3,0-0.4c-0.1-0.2-0.2-0.3-0.3-0.5c-0.1,0.2-0.3,0.3-0.3,0.5
					c-0.1,1.6-0.3,3.2-0.4,4.8c-0.5-0.1-1-0.2-1.4-0.4c-1.2-0.4-2.4-0.8-3.6-1.4c-0.8-0.3-1.5-0.8-2.1-1.4c-0.9-0.8-1.7-1.8-2.5-2.7
					c-0.7-0.8-1-1.9-1.2-2.9c-0.5-2.5-1-4.9-1.4-7.4c-0.3-1.9-0.5-3.8-0.7-5.8c-0.1-1-0.3-2-0.4-3c0-0.2-0.2-0.4-0.3-0.5
					c-0.3-0.2-0.5-0.5-0.4-0.9c0.1-0.5,0.3-1.1,0.4-1.6c0.3-1.1,0.7-2.2,0.9-3.3c0.7-3.4,2.5-6.2,4.7-8.8c3-3.6,6.5-6.4,10.5-8.7
					c2.2-1.2,4.6-2,7.1-2.6c0.2,0,0.4,0,0.5,0.1c1,0.4,2,0.8,2.9,1.2c3.1,1.6,6.3,2.9,9.2,4.8c4.9,3.3,8.7,7.5,10.6,13.1
					c0.4,1.2,0.7,2.5,1,3.8c0.2,0.6,0.5,1.2,0.7,1.9c0.1,0.3,0,0.7,0,1c-0.1,0.7-0.2,1.3-0.2,2c0.2,3.4,0.2,6.8-0.4,10.2
					c-0.3,2-0.9,3.9-1.6,5.8c-0.6,1.4-1.3,2.9-2.5,3.9c-0.9,0.7-2,1.4-3.1,1.8c-2.6,0.9-5.3,1.7-8,2.5
					C135.6,96.7,135.3,96.7,135,96.8 M131.6,72.2c0,0-0.1-0.1-0.1-0.1c0.1-0.4,0.2-0.9,0.3-1.3c0.3-1,0.9-1.6,1.9-1.7
					c0.7-0.1,1.4-0.1,2.1-0.2c0.2,0,0.3-0.1,0.5-0.2c-0.1-0.1-0.3-0.3-0.4-0.3c-0.9,0-1.8,0-2.6,0.1c-0.8,0.1-1.4,0.6-1.7,1.4
					c-0.6,1.5-0.8,3.1-0.5,4.7c0.3,2,1.4,3.6,2.8,5c0.2,0.2,0.4,0.4,0.7,0.5c0.2,0.1,0.4,0.1,0.6,0.1c0-0.2,0-0.4-0.1-0.6
					c-0.4-0.6-0.8-1.1-1.2-1.7c-0.7-1-1.3-2.1-2-3.1c-0.1-0.2-0.2-0.5-0.3-0.7l0.1-0.1c1.4,1.2,3.1,1.6,4.8,1.4
					c1.7-0.2,3.4-0.7,4.6-2.3c0.4,0.3,0.9,0.6,1.3,0.9c0.3,0.2,0.7,0.3,1.1,0.5c0.1,0,0.3,0,0.4-0.1c0.1,0,0-0.2,0-0.3
					c-0.3-0.4-0.5-0.9-0.9-1.2c-1.6-1.2-3.5-1.9-5.5-2.4c-0.7-0.2-1.4-0.2-2.1-0.3C133.6,70.3,132.4,70.9,131.6,72.2 M120.2,72.4
					c-1.4-1.6-2-1.8-4-1.8c-3.3,0-6,1.5-8.4,3.6c-0.1,0.1-0.1,0.4-0.2,0.6c0.2,0,0.5,0.2,0.7,0.1c0.6-0.3,1.1-0.6,1.6-0.9
					c0.5-0.3,1-0.6,1.5-0.9c0.9,1.6,2.2,2.3,3.9,2.4c1.6,0.2,3.1-0.3,4.5-1c-0.8,1.7-1.7,3.3-2.6,4.9c-0.1,0.1-0.1,0.3-0.1,0.5
					c0.2,0,0.4,0.1,0.5,0c0.3-0.3,0.7-0.6,0.9-0.9c0.6-1,1.2-1.9,1.7-2.9c0.9-1.9,0.9-3.9-0.1-5.8c-1.1-2-2.5-2.6-4.7-2
					c-0.4,0.1-0.8,0.3-1.1,0.5c-0.1,0-0.1,0.2-0.1,0.4c0.1,0,0.2,0.1,0.4,0.1c0.1,0,0.2-0.1,0.3-0.1c1.4-0.7,2.8-0.6,3.7,0.4
					c0.6,0.6,1,1.4,1.4,2.1C120,71.7,120.1,72,120.2,72.4 M132,84.4c0.3,1.1,0.6,2.1,0.9,3.1c0.1,0.2,0.2,0.3,0.4,0.4
					c0.1-0.2,0.2-0.4,0.1-0.6c-0.3-2-0.8-4-1.7-5.9c-0.8-1.8-1.6-3.6-2.5-5.4c-0.1-0.1-0.3-0.2-0.5-0.3c0,0.2-0.1,0.4,0,0.5
					c0.8,2,1.6,3.9,2.4,5.9c0.2,0.5,0.1,1-0.2,1.3c-0.3,0.3-0.7,0.7-1.1,0.8c-1.2,0.4-2.5,0.8-3.8,0.9c-1.5,0.2-3-0.1-4.3-0.8
					c-0.8-0.4-1.1-1.5-0.8-2.3c0.6-1.9,1.3-3.8,1.9-5.6c0-0.1,0.1-0.3,0.1-0.5c0-0.1-0.1-0.3-0.2-0.3c-0.1,0-0.2,0.1-0.3,0.1
					c-0.1,0.1-0.1,0.2-0.1,0.3c-0.5,1.2-0.9,2.5-1.4,3.7c-0.8,2-1.6,3.9-2,6c-0.2,0.9-0.3,1.9-0.5,2.8c0,0.1,0.1,0.3,0.2,0.4
					c0.1-0.1,0.3-0.2,0.3-0.4c0.1-0.3,0.1-0.7,0.2-1c0.3-1.2,0.7-2.4,1-3.6c0.5,1.1,1.4,1.6,2.4,1.9c1.7,0.6,3.5,0.6,5.3,0.2
					C129.3,85.9,130.8,85.6,132,84.4 M125,92.3C125,92.2,125,92.2,125,92.3c1-0.1,1.9-0.2,2.9-0.2c1.7-0.1,3.5-0.1,5.2-0.6
					c0.5-0.2,0.9-0.5,1.1-1c0.1-0.2,0-0.6-0.2-0.7c-0.2-0.2-0.5,0-0.7,0.2c-0.2,0.2-0.5,0.4-0.7,0.5c-0.8,0.2-1.7,0.3-2.6,0.4
					c-2.8,0.2-5.5,0.4-8.3,0c-0.9-0.1-1.9-0.1-2.6-0.8c-0.1-0.1-0.5,0-0.7,0.1c-0.3,0.2-0.2,0.8,0.2,1c0.5,0.3,1,0.5,1.5,0.6
					C121.6,91.9,123.3,92.1,125,92.3 M133.8,66.2c-1.1,0.1-2,0.1-2.9,0.2c-0.2,0-0.4,0.2-0.4,0.3c0,0.1,0.1,0.4,0.3,0.4
					c0.3,0.1,0.7,0.2,1,0.2c1.9,0.1,3.9,0.2,5.8,0.3c1.9,0.1,3.8,0.5,5.4,1.6c0.1,0.1,0.3,0.2,0.4,0.2c0.2,0,0.5-0.1,0.6-0.3
					c0.1-0.1,0-0.4-0.1-0.6c-0.1-0.1-0.2-0.2-0.4-0.3c-1.1-0.7-2.3-1.3-3.6-1.5C137.9,66.6,135.8,66.4,133.8,66.2 M118.9,66.4
					c-2,0.2-4,0.3-6.1,0.5c-1.7,0.2-3.3,0.6-4.3,2.1c-0.1,0.1-0.2,0.3-0.1,0.4c0,0.1,0.2,0.2,0.3,0.1c0.4-0.1,0.8-0.2,1.2-0.4
					c0.8-0.5,1.6-0.9,2.6-1c2.3-0.2,4.6-0.4,6.9-0.5c0.3,0,0.7,0,1-0.1c0.2-0.1,0.4-0.3,0.6-0.5c-0.2-0.2-0.3-0.4-0.5-0.5
					C120.1,66.4,119.5,66.4,118.9,66.4 M127.2,64.9c0-1.5-0.8-2.3-2.3-2.3c-0.8,0-1.5,0.6-1.5,1.4c0,0.5,0,1.1,0.2,1.6
					c0.4,1,1.3,1.6,2.1,1.5c0.9-0.1,1.4-1,1.5-2.1C127.2,64.9,127.2,64.9,127.2,64.9"/>
				<path class="st16" d="M105.6,233.4c-0.8-1.8-1.6-3.4-2.4-5.1c-2.1-4.3-4.5-8.4-7.3-12.3c-2.8-4-5.5-8-8-12.1
					c-1.3-2.1-2.8-4-4.2-6c-1.1-1.6-2.2-3.3-3.4-4.9c-0.7-0.9-0.9-1.6-0.7-2.7c0.5-3,1-6.1,1.4-9.1c0.5-3.7,1.1-7.5,1.5-11.2
					c0.4-4,0.8-8,1.1-12c0.3-3.3,0.6-6.5,0.8-9.8c0.2-2.2,0.3-4.4,0.4-6.6c0.3-3.5,0.6-7,0.9-10.4c0.4-3.2,0.8-6.3,1.3-9.5
					c0.1-0.5,0.2-1.1,0.3-1.6c0.5-1.4,1.5-2.3,3-2.4c1.2-0.1,2.4-0.2,3.6-0.4c-0.1,0.2-0.2,0.5-0.3,0.7c-0.7,1.6-0.7,3.3-0.2,4.9
					c0.8,2.7,2.3,5,4,7.1c0.2,0.3,0.3,0.5,0.2,0.9c-0.6,3.2-1.2,6.4-1.7,9.7c-0.3,2.2-0.4,4.4-0.5,6.6c-0.2,2.9,0.3,5.8,1.5,8.5
					c0.8,1.7,1.5,3.5,2.3,5.2c1.5,3.2,1.9,6.5,1,10c-0.8,3.1-1.6,6.3-2.3,9.4c0,0.1-0.1,0.2-0.1,0.4c-1.6-4.2-3.1-8.3-4.6-12.3
					c-0.3,0.8,1.2,6.5,2.9,11.1c-1.8-1-3.7-2.1-5.6-3.1c0,0,0,0,0,0c1.2,1,2.5,2,3.7,3l-0.1,0.2c-1.7-0.2-3.5-0.7-5.2,0.1
					c0.7,0.6,1.4,0.6,2.2,0.7c1.7,0.3,3.5,0.5,5.2,0.8c0.5,0.1,0.8,0.3,1,0.8c1.1,2.8,2.1,5.6,3.3,8.4c1.4,3.3,3,6.5,5.3,9.2
					c2.2,2.5,4.5,4.9,6.7,7.3c0.9,1,1.8,2,2.8,3c0.2,0.2,0.2,0.4,0,0.6c-2.3,3-4.1,6.3-5.8,9.7c-1.7,3.5-2.9,7.2-3.6,11
					C106,232,105.8,232.6,105.6,233.4"/>
				<path class="st16" d="M147.2,230.2c-1-3.7-2.3-7.2-3.8-10.6c-1.5-3.4-3.3-6.7-5.9-9.4c0.8-0.7,1.7-1.4,2.5-2.1
					c2.8-2.8,5.6-5.5,8.4-8.4c2.8-2.8,5.3-5.9,7.8-9c2.3-2.9,4.7-5.7,7.4-8.2c0.2-0.2,0.4-0.5,0.5-0.7c0.2-0.4-0.2-0.8-0.6-0.6
					c-0.3,0.1-0.6,0.3-0.8,0.6c-1.3,1.4-2.6,2.7-3.9,4.1c-0.1,0.1-0.2,0.2-0.4,0.3c0-0.2,0-0.5,0-0.7c0.9-3.8,1.8-7.6,2.6-11.3
					c0.2-1.1,0.3-2.3,0.4-3.4c0-0.3-0.1-0.7-0.3-1c-1.2,3.4-1.7,7-2.7,10.4c0.1-1.1,0.1-2.3,0.2-3.4c0-1.2,0-2.3,0-3.5
					c0-1.2-0.2-2.3-0.9-3.4c-0.4,4.5-0.2,9,0,13.7c-0.1-0.4-0.2-0.8-0.4-1.1c-0.1-0.4-0.3-0.7-0.4-1.1c-1-3.2-2.1-6.3-3.1-9.5
					c-0.4-1.3-0.7-2.7-0.9-4.1c-0.2-1.2,0.2-2.5,0.7-3.6c1-2.3,2.2-4.5,3.3-6.7c1-2,1.9-4,2.6-6.2c0.9-3.1,0.8-6.1-0.1-9.1
					c-0.6-2-1.2-4-1.8-5.9c-0.3-1-0.5-2-0.7-3c-0.1-0.3,0-0.6,0.2-0.8c2.3-2.9,3.6-6.2,4.2-9.8c0.3-1.7,0.2-3.3-0.2-5
					c0-0.1,0-0.2-0.1-0.3c0.8,0,1.5-0.1,2.2,0c1.2,0.3,2.3,0.7,3.4,1.1c0.8,0.3,1.2,0.9,1.3,1.9c0.1,1.4,0.5,2.8,0.5,4.2
					c0.1,2.3,0,4.7,0.1,7c0.1,3.3,0.2,6.6,0.5,9.8c0.2,3.1,0.5,6.3,0.9,9.4c0.3,3,0.7,5.9,1.1,8.9c0.4,2.9,0.8,5.9,1.3,8.8
					c0.7,4.3,1.5,8.7,2.3,13c0.6,3.4,1.3,6.7,1.9,10.1c0.1,0.4-0.1,0.9-0.3,1.2c-0.9,1.3-1.8,2.5-2.7,3.7
					c-5.1,6.3-10.3,12.6-15.4,18.9c-2.1,2.6-4.1,5.4-6.1,8.1c-1.4,1.8-2.7,3.6-4.1,5.5C147.6,229.3,147.5,229.7,147.2,230.2"/>
				<path class="st16" d="M111.8,143.3c-0.1,0.6-0.3,1.1-0.4,1.6c-0.2,0.8,0.2,1.5,0.8,2.1c0.5,0.5,1,1.1,1.4,1.7
					c0.4,0.6,0.4,1.3,0.1,2c-0.4,1.1-0.7,2.2-1,3.2c-0.4,1.3-0.1,1.8,1.2,2.1c0.3,0.1,0.6,0.1,0.9,0.2c1,0.2,1.5,0.7,1.4,1.7
					c0,0.9-0.3,1.7-0.4,2.6c-0.1,1-0.2,2-0.2,3c0,1.2,1.4,2.6,2.8,2.1c0.2,0,0.3,0,0.5-0.1c0.5-0.1,0.7,0.1,0.7,0.6
					c0,0.9,0,1.7,0.1,2.6c0.2,1.7,1.2,2.8,2.7,3.5c0.8,0.3,1.6,0.2,2.2-0.5c0.3-0.3,0.5-0.7,0.9-1c0.2-0.2,0.5-0.3,0.7-0.4
					c0.1,0.3,0.3,0.5,0.3,0.8c-0.1,3.8-0.1,7.6-0.2,11.4c-0.1,7.5-0.2,15.1-0.3,22.6c0,2.3,0,4.7,0.1,7c0,0.4-0.1,0.6-0.5,0.8
					c-0.8,0.5-1.4,0.5-2.2,0.1c-0.9-0.5-1.9-0.7-2.9-1c-0.2,0-0.4,0-0.5,0c-1.2-0.1-2.3-0.2-3.6-0.3c0.3-0.5,0.6-0.9,0.9-1.4
					c0.4-0.5,0.3-0.8-0.3-1.1c-0.2-0.1-0.3-0.2-0.5-0.4c-3.1-3.4-6.3-6.7-9.4-10.2c-2.1-2.3-3.4-5-4.6-7.8c-1.2-2.8-2.2-5.6-3.3-8.4
					c-0.1-0.2-0.1-0.5,0-0.8c0.8-3.2,1.5-6.3,2.3-9.5c0.5-2.2,1-4.4,0.7-6.6c-0.2-2.1-0.8-4-1.7-5.9c-1.3-2.7-2.6-5.5-3.2-8.5
					c-0.3-1.5-0.2-3-0.2-4.6c0-4.3,0.7-8.5,1.5-12.7c0.1-0.8,0.3-1.6,0.5-2.6c1.9,2.4,3.6,4.7,5.8,6.6
					C106.9,140.1,109.3,141.8,111.8,143.3"/>
				<path class="st16" d="M155.7,134c0.3,1.2,0.7,2.4,1,3.5c0.6,2.2,1.3,4.3,1.9,6.5c0.7,2.9,0.3,5.8-0.8,8.6
					c-1.1,2.6-2.4,5-3.6,7.6c-0.7,1.5-1.4,2.9-2,4.4c-0.7,1.7-0.6,3.5-0.1,5.2c1,3.4,2.1,6.8,3.1,10.2c0.6,1.8,1.2,3.6,1.7,5.4
					c0.1,0.2,0.1,0.5,0,0.8c-0.2,0.8-0.4,1.6-0.6,2.4c0,0.2-0.1,0.3-0.2,0.5c-4.8,6.3-10.3,11.9-16,17.3c-1,1-2.2,1.9-3.3,2.8
					c-0.1,0.1-0.5,0.2-0.6,0.1c-1.3-0.4-2.6-0.6-3.8,0.1c-1.5,0.8-2.9,1.6-4.4,2.4c-0.2,0.1-0.4,0.2-0.6,0.3c0-0.3-0.1-0.5-0.1-0.7
					c0-5.6,0.1-11.2,0.1-16.8c0-2.7,0.1-5.3,0.1-8c0.1-4.4,0.2-8.8,0.2-13.2c0-0.2,0-0.3,0-0.6c0.8,0.5,1.6,0.6,2.5,0.5
					c1.6-0.3,2.4-1.4,2.5-3.2c0-1,0.2-1.2,1.3-1.2c0.9,0,1.7,0,2.6,0c0.3,0,0.6-0.1,0.9-0.3c2-0.8,2.5-2.2,1.6-4.2
					c-0.5-1.2-0.5-1.4,0.7-2c0.5-0.3,1-0.5,1.6-0.8c1.1-0.6,1.7-1.6,1.9-2.8c0.1-0.7,0-1.3-0.3-2c-0.1-0.2-0.3-0.5-0.4-0.7
					c-1-1.5-0.8-2.6,0.4-4.1c0.4-0.4,0.8-0.8,1.2-1.2c0.3-0.3,0.6-0.7,0.8-1c0.4-0.8,0.3-1.5-0.2-2.2c-0.2-0.2-0.4-0.5-0.6-0.7
					c-0.9-0.9-0.8-1.8-0.1-2.8c0.3-0.4,0.8-0.8,1.2-1.2c2.1-1.6,4.3-3.2,6.3-4.9c1.3-1,2.5-2.3,3.7-3.4
					C155.3,134.4,155.5,134.2,155.7,134"/>
				<path class="st17" d="M155.4,398c0.3-0.7,0.8-0.8,1.5-0.9c1.8-0.2,3.6-0.6,5.3-1c0.4-0.1,0.6,0,0.7,0.4c0.7,2.7,1.6,5.4,2.2,8.2
					c0.4,2,0.5,4.1,0.8,6.2c0.1,0.7,0,1.4,0,2.1c0.1,1.9-0.9,2.7-2.3,3.1c-3.9,1.2-7.8,2.1-11.8,2.5c-2.4,0.3-4.7,0.4-7.1,0.3
					c-2.1,0-4.2-0.1-6.2-0.7c-1.1-0.4-2.1-0.9-3.1-1.3c-0.1-0.1-0.2-0.1-0.3-0.2c-1.3-1.2-1.2-1.4-0.3-2.7c1.4-2,2.7-4,4-6
					c1.3-2.2,2.6-4.5,3.7-6.8c0.6-1.2,1-2.5,1.5-3.8c0-0.1,0.1-0.3,0.1-0.4c0.5,0.4,0.9,0.8,1.3,1.2c-0.7,1.1-0.6,1.7,0.5,2.5
					c1.1,0.8,2.3,1.1,3.6,1.2c1.8,0.2,3.5,0.1,5.2-0.5c0.4-0.1,0.7-0.3,1.1-0.6c0.8-0.6,0.9-1.3,0.3-2.1
					C155.9,398.5,155.7,398.3,155.4,398"/>
				<path class="st15" d="M136.3,224c-0.9,0.2-1.6,0.1-2.4-0.1c-1.5-0.5-3-1.1-4.5-1.7c-0.3-0.1-0.7-0.3-1-0.3
					c-0.5-0.1-0.9-0.2-1.3-0.6c-0.1-0.1-0.3-0.1-0.5-0.1c0,0.2,0,0.4,0.1,0.6c0.8,0.9,1.6,1.8,2.4,2.7c0.8,0.9,1.8,1.6,2.7,2.5
					c1,0.9,1.3,2.1,1.5,3.4c0.3,2.1,0.1,4.2-0.3,6.3c-0.2,1.3-0.6,2.5-0.9,3.7c-0.1,0.3-0.3,0.5-0.5,0.9c-0.3-0.5-0.5-0.8-0.6-1.1
					c-0.3-1.1-0.5-2.2-0.6-3.4c-0.2-1.7-0.4-3.5-0.6-5.2c-0.1-0.9-0.5-1.6-1.2-2.1c-1.6-1.1-3.2-2.1-4.8-3.2
					c-0.4-0.3-0.9-0.5-1.4-0.8c-0.3-0.1-0.7-0.3-0.9,0.1c-0.2,0.4,0.1,0.7,0.4,0.9c1.3,0.7,2.5,1.4,3.8,2.2c0.8,0.5,1.5,1.1,2.2,1.6
					c0.5,0.4,0.7,0.9,0.8,1.5c0.2,2.2,0.4,4.4,0.7,6.7c0.2,1.4,0.5,2.7,0.7,4.1c0,0.2,0.1,0.3,0,0.5c0,0.3-0.2,0.5-0.5,0.3
					c-0.3-0.2-0.6-0.4-0.8-0.6c-0.4-0.5-0.8-1-1.1-1.5c-1.6-2.7-3.2-5.5-4.7-8.3c-0.5-0.9-1-1.6-1.7-2.2c-0.9-0.7-1.8-1.4-2.7-2.1
					c-0.1-0.1-0.3-0.1-0.5-0.1c0,0.2-0.1,0.4,0,0.6c0.4,0.5,0.7,1.1,1.2,1.5c1.5,1.1,2.5,2.6,3.4,4.3c1.2,2.4,2.7,4.7,4,7
					c0.2,0.3,0.4,0.6,0.6,1c-0.4,0.3-0.8,0.1-1.1-0.1c-0.7-0.4-1.5-0.8-2.1-1.4c-1.9-1.8-3.8-3.6-5.7-5.5c-0.9-0.9-1.8-1.8-2.7-2.7
					c-0.3-0.3-0.7-0.8-1.1-0.3c-0.4,0.4,0,0.8,0.3,1.2c2.6,2.6,5.2,5.2,7.8,7.8c0.1,0.1,0.2,0.2,0.3,0.3c0,0,0,0.1,0,0.1
					c-0.3,0-0.6,0-0.9-0.1c-3.6-1.5-6.9-3.5-9.8-6.1c-1.8-1.7-2.5-3.9-3.2-6.1c-0.2-0.6-0.1-1.3-0.6-1.8c-0.1-0.1,0-0.3,0.1-0.5
					c0.9-3.4,2.3-6.5,4-9.6c0.9-1.6,1.8-3.1,2.8-4.7c0.2-0.3,0.4-0.4,0.7-0.4c1.2,0,2.4,0,3.6,0c0.5,0,0.9,0.1,1.3,0.3
					c2.4,0.8,4.5,2.1,6.6,3.5c1.8,1.2,3.6,2.4,5.4,3.6c1.2,0.8,2.3,1.6,3.2,2.8C136,223.6,136.1,223.8,136.3,224"/>
				<path class="st17" d="M96.9,394.4c1-0.4,1.6-1.1,2-2.1c5.3,1.3,10.5,0.6,15.8-0.2c0.1,0.9,0.2,1.7,0.2,2.5c0,1.6,0,3.3,0,4.9
					c0,1.7-0.4,3.2-0.8,4.8c-0.1,0.2-0.2,0.4-0.2,0.7c0,0.6-0.3,1-0.9,1.1c-0.7,0.2-1.4,0.4-2.2,0.5c-0.9,0.1-1.8,0.2-2.7,0.3
					c-0.2,0-0.4,0-0.6,0c-1-0.1-1-0.2-1.1-1.2c-0.1-1.4-1.3-3.1-3.3-2.4c-1.7,0.6-3.4,1.1-5,1.9c-4,1.9-8.1,3.1-12.5,3.8
					c-3.2,0.6-6.4,1.1-9.6,0.8c-2.7-0.2-5.1-1-7.5-2.3c-1.3-0.7-1.4-1.4-0.1-2.2c1-0.7,2-1.2,3.1-1.6c2.5-1,5-1.8,7.5-2.8
					c3.5-1.3,6.8-2.9,9.9-5.2c0.2-0.2,0.4-0.2,0.7-0.1c1.9,0.5,3.8,1.1,5.7,1.5c0.6,0.1,1.3,0,1.9-0.2c0.9-0.3,1-1.1,0.4-1.8
					C97.4,395,97.2,394.7,96.9,394.4"/>
				<path class="st16" d="M134.7,236.4c5.4-1.6,8.9-5,9.8-10.7c0,0,0.1,0,0.1,0.1c0.2,0.6,0.4,1.2,0.6,1.8c0.4,1.4,0.8,2.8,1.3,4.1
					c0.1,0.3,0.4,0.6,0.6,0.6c0.3,0,0.6-0.3,0.8-0.5c0.6-1.1,1.1-2.3,1.9-3.3c1.3-1.8,2.8-3.6,4.1-5.4c2-2.6,3.9-5.2,5.9-7.9
					c0.7-0.9,1.4-1.7,2.1-2.5c0.9,9.7,1.9,19.5,4.3,29.1c-0.6-0.2-1.1-0.3-1.6-0.4c-2.9-0.8-5.9-1.1-8.9-1.4
					c-4.7-0.4-9.5-0.7-14.1-1.7c-2-0.4-4-1-6.1-1.6c-0.2-0.1-0.4-0.2-0.7-0.2C134.7,236.5,134.7,236.5,134.7,236.4"/>
				<path class="st18" d="M117.8,134.6c1.9,1.8,3,2,5.2,0.9c0,0.6,0.1,1.1,0.1,1.6c0.3,2.8,0.7,5.7,1,8.5c0.3,2.2,0.6,4.5,0.8,6.7
					c0.3,3.7,1.1,7.4,2.3,10.9c0.2,0.6,0.2,1.2,0.4,1.8c0.1,0.3,0.3,0.6,0.5,0.7c0.3,0.1,0.7,0.1,0.9,0c0.4-0.3,0.7-0.8,0.8-1.2
					c1.3-3.8,2.1-7.6,2.7-11.5c0.3-2.2,0.7-4.3,1-6.5c0.3-2.7,0.4-5.4,0.6-8.2c0.1-1.2,0.1-2.3,0.2-3.6c0.4,0.1,0.7,0.2,1,0.3
					c0.4,0.1,0.7,0.1,1.1,0.1c1,0,1.5-0.5,1.7-1.4c0.2-1.1,0.1-2.3-0.2-3.4c0-0.1,0-0.2,0-0.3c0.2,0.5,0.4,1,0.7,1.5
					c1.4,2.9,3.3,5.4,5.9,7.3c0.8,0.6,0.9,1.5,0.3,2.3c-0.3,0.3-0.6,0.6-0.9,1c-0.7-0.5-1.3-1.1-1.9-1.6c-1.4-1.3-2.9-2.6-4-4.2
					c-0.1-0.2-0.4-0.3-0.6-0.4c-0.1,0.2-0.3,0.5-0.3,0.7c0.3,1.9,0.5,3.7,0.9,5.6c0.3,1.8,1,3.4,2,4.9c0.8,1.2,1.7,2.1,3.1,2.7
					c-1.1,1-2.1,2-2.6,3.6c-0.9-0.9-1.6-1.7-2.4-2.6c-0.9-1.1-1.8-2.2-2.7-3.3c-0.1-0.2-0.4-0.2-0.7-0.3c-0.1,0.2-0.2,0.5-0.2,0.7
					c0.6,3.2,1.4,6.4,2.7,9.4c0.6,1.3,1.3,2.4,2.4,3.4c-1,0.6-2.1,1-2.5,2.3c-0.2-0.5-0.4-0.8-0.5-1.1c-0.5-1.3-1-2.6-1.6-3.8
					c-0.1-0.1-0.2-0.4-0.3-0.4c-0.2,0-0.3,0.2-0.5,0.3c-0.1,0-0.1,0.1-0.1,0.2c-1.1,2.8-1.7,5.6-1.3,8.6c0,0.2,0.1,0.5,0.2,0.7
					c-0.2,0.1-0.5,0.1-0.7,0.2c-0.7,0.2-1.1,0.7-1.2,1.5c0,0.4,0,0.8-0.1,1.2c-0.1,0.9-0.6,1.5-1.6,1.6c-1,0.1-1.5-0.2-1.8-1.1
					c-0.1-0.3-0.2-0.6-0.3-0.9c-0.6-1.2-1.6-1.4-2.6-0.6c-0.1,0.1-0.2,0.1-0.3,0.2c0.1-0.9,0.2-1.7,0.2-2.6c0.1-2.3-0.1-4.6-0.7-6.8
					c0-0.1-0.1-0.3-0.1-0.3c-0.2-0.2-0.4-0.5-0.6-0.7c-0.2,0.2-0.4,0.4-0.5,0.7c-0.7,1.7-1.6,3.2-2.6,4.7c-0.4-0.2-0.7-0.3-1-0.5
					c0,0,0-0.1,0-0.1c1.6-2.3,2.3-4.9,2.8-7.6c0.4-2.5,0.6-4.9,0.6-7.4c0-0.3,0-0.7-0.2-1c-0.1-0.2-0.3-0.4-0.5-0.4
					c-0.2,0-0.4,0.1-0.5,0.3c-1.7,2.3-3.4,4.6-5.1,6.9c-0.3,0.3-0.5,0.5-0.9,0.3c-0.6-0.2-1.2-0.3-1.9-0.5c0.4-1.1,0.7-2.1,1.1-3.2
					c0-0.1,0.2-0.2,0.3-0.2c1.9-1,3.2-2.6,4.1-4.5c1.2-2.4,1.8-5,2.1-7.6c0.1-0.7,0.2-1.3,0.2-2c0-0.1-0.1-0.4-0.2-0.4
					c-0.1,0-0.3,0.1-0.4,0.2c-1.1,1.1-2.2,2.3-3.4,3.4c-1.3,1.2-2.8,2.3-4.3,3.4c0.1-0.2,0.1-0.4,0.2-0.5c0.2-0.7,0.5-1.4,0.3-2.1
					c0-0.1,0.1-0.3,0.1-0.4c1.9-1.6,3.2-3.7,4.1-6C117.7,134.7,117.8,134.6,117.8,134.6"/>
				<path class="st19" d="M102.4,69.4c-0.7-0.5-1.4-0.9-2.3-1.5c0-0.7,0-1.7,0-2.7c0-2.7-0.1-5.4,0.1-8.1c0.4-5.6,2.1-10.8,6.3-14.9
					c1.7-1.7,3.8-2.8,5.9-3.8c2.3-1,4.6-1.9,7.2-2.3c0.4-0.1,0.7-0.1,1.1-0.1c2,0,4,0,6,0h0.7c-0.7,0.6-1.1,1.3-1.1,2.1
					c0.1,1.6,0.2,3.2,0.4,4.8c0,0.4,0,0.6-0.4,0.7c-8,2-14.2,6.8-19.2,13.2c-2.4,3-3.5,6.4-4.2,10.1
					C102.7,67.7,102.6,68.6,102.4,69.4"/>
				<path class="st19" d="M152.3,68.2c-0.9-5.5-3.2-10.4-7.3-14.4c-3.3-3.2-7.2-5.5-11.3-7.5c-1.7-0.8-3.4-1.6-5.1-2.4
					c-0.4-0.2-0.9-0.3-1.3-0.5c0-1.7,0-3.4,0-5.1c0-0.5-0.1-1-0.1-1.5c0-0.7,0.2-0.8,0.9-0.8c1.3-0.1,2.6-0.2,3.9-0.2
					c2.8,0,5.4,0.8,7.9,2.1c2.9,1.5,5.6,3.5,7.9,5.8c2.7,2.6,4.3,5.8,5.1,9.4c0.6,2.8,0.9,5.7,1.1,8.6c0.1,1.4,0.3,2.9,0.5,4.3
					c0.1,0.5,0,0.7-0.5,0.9C153.4,67.2,152.8,67.8,152.3,68.2"/>
				<path class="st16" d="M85.5,242.5c2.4-9.6,4.8-19.2,7.2-28.9c0.1,0.1,0.2,0.2,0.3,0.2c2.1,3.3,4.4,6.4,6.4,9.8
					c1.6,2.7,2.9,5.6,4.3,8.4c0.6,1.2,1.2,2.4,1.8,3.6c0.1,0.2,0.6,0.3,0.9,0.3c0.3,0,0.4-0.4,0.3-0.7c0-0.1-0.1-0.3-0.1-0.4
					c0.3-1.5,0.6-2.9,1-4.5c0.4,1.1,0.7,2,1.1,2.9c0.4,0.8,0.8,1.6,1.3,2.4c0.3,0.6,0.2,1.2-0.5,1.3c-6.3,1.5-12.6,3-18.9,4.5
					c-1.6,0.4-3.2,0.7-4.8,1C85.7,242.5,85.7,242.5,85.5,242.5"/>
				<path class="st20" d="M119.4,119.9c-1.6,2.2-3.2,4.3-5.2,6.1c-1.2,1.1-2.4,2.3-3.6,3.4c-0.2,0.2-0.3,0.4-0.5,0.6
					c-0.6,0.9-0.6,1.1,0.1,1.9c0.2,0.2,0.3,0.4,0.5,0.7c-0.1,0-0.1,0-0.1,0c-4.1-2.7-7.8-6-10.7-10c-1-1.4-1.9-2.8-2.1-4.5
					c-0.1-0.7-0.2-1.5-0.3-2.2c0-0.3,0.1-0.6,0.4-0.7c2.4-1.4,5-2.3,7.7-2.9c1.8-0.4,3.7-0.7,5.5-1.1c0.3-0.1,0.5,0,0.8,0.3
					c1.3,1.7,2.6,3.4,3.9,5.1c0.9,1.2,2,2.2,3.2,3C119.1,119.7,119.2,119.8,119.4,119.9"/>
				<path class="st15" d="M115.2,96.8c0.1,0,0.2,0.1,0.3,0.1c1.2,0.2,2.2,0.7,3,1.6c1.2,1.3,2.8,1.7,4.5,2c2.4,0.5,4.8,0.9,7.3,0.4
					c1.9-0.4,3.7-1.1,4.8-2.8c0.1-0.1,0.2-0.1,0.2-0.2c1.5-0.4,3-0.8,4.5-1.2c0.2,0,0.3-0.1,0.5-0.1c-0.1,0.9-0.1,1.7-0.2,2.5
					c0,0.9-0.1,1.7-0.1,2.6c0,0.8,0.1,1.7,0.2,2.5c0,0.1,0,0.3-0.1,0.4c-2.3,4-5.5,6.5-10.2,7c-2.3,0.3-4.5,0.2-6.7-0.4
					c-2.6-0.6-4.6-1.9-6.2-4c-0.1-0.2-0.2-0.3-0.4-0.4c-0.9-0.7-1-1.6-1-2.7c0-1.1-0.1-2.3-0.2-3.4
					C115.4,99.3,115.3,98.1,115.2,96.8"/>
				<path class="st20" d="M138.7,119.1c1.5-2,2.9-4.1,4.4-6.1c0.6-0.8,1.2-1.4,1.9-2.1c0.1-0.1,0.4-0.2,0.6-0.2
					c2.5,0.6,5,1.3,7.5,1.9c0.3,0.1,0.7,0.3,0.9,0.5c1.3,1.5,1.9,3.4,2.2,5.3c0.8,3.9-0.5,7.3-2.8,10.4c-1.4,1.9-3.2,3.4-5.1,4.8
					c-0.1,0.1-0.3,0.1-0.5,0.2c0.5-0.7,0.1-1.4,0-2.2c-0.1-0.8-0.2-1.5,0.3-2.3c0.3-0.4,0.1-0.7-0.2-1c-2.5-1.8-4.8-3.9-6.7-6.3
					C140.4,121.3,139.6,120.2,138.7,119.1"/>
				<path class="st15" d="M125.5,214.3c2.5-1.3,4.9-2.6,7.3-3.8c1.2-0.6,2.4-0.2,3.4,0.4c0.8,0.4,1.3,1.3,1.9,2.1
					c2,2.5,3.4,5.4,4.6,8.4c0.3,0.7,0.6,1.5,0.9,2.2c0.1,0.3,0.1,0.5,0,0.8c-0.3,0.7-0.4,1.4-0.6,2c-0.3,0.9-0.4,1.9-0.8,2.7
					c-1,1.9-2.3,3.7-4.3,4.8c-1.2,0.6-2.4,1.2-3.6,1.8c0-0.5,0.1-1,0.1-1.5c0.2-1.8,0.1-3.5-0.3-5.2c-0.3-1.4-1.2-2.5-2.3-3.4
					c-0.4-0.3-0.7-0.7-1-1.1c0.7,0.2,1.3,0.5,2,0.6c1,0.2,2,0.4,3,0.4c1.5,0,2-1.1,1.2-2.4c-0.7-1.2-1.7-2.1-2.9-2.9
					c-2.8-1.9-5.6-3.7-8.4-5.6C125.7,214.5,125.7,214.4,125.5,214.3"/>
				<path class="st19" d="M105.4,88.9c1.1,2.4,2.8,4.1,4.7,5.6c1,0.8,2.3,1.1,3.5,1.6c0.3,0.1,0.5,0.3,0.5,0.6
					c0.1,2.6,0.3,5.3,0.4,7.9c0,0.1,0,0.2,0,0.4c-1.5-0.4-2.9-0.8-4.3-1.5c-1.7-0.9-3.2-2.1-4.5-3.4c-2.7-2.8-3.5-7.6-0.5-10.9
					C105.3,89.1,105.3,89.1,105.4,88.9"/>
				<path class="st19" d="M141.4,96.2c4.5-1,8-3.1,9.4-7.9c0.7,1,0.9,2,1.1,3c0.4,1.9,0.4,3.8,0,5.7c-0.7,3.1-2.5,5-5.4,6
					c-1.4,0.5-2.8,0.8-4.2,1.2c-0.7,0.2-0.9,0-0.9-0.7c0-1.5,0-3.1,0-4.6C141.4,97.9,141.4,97.1,141.4,96.2"/>
				<path class="st20" d="M131.8,133.5c0.5,0.3,0.9,0.5,1.3,0.7c0.1,0.1,0.2,0.3,0.2,0.4c-0.1,1.7-0.3,3.5-0.4,5.2
					c-0.2,4.3-0.6,8.5-1.5,12.7c-0.5,2.5-0.9,5-1.5,7.5c-0.3,1.3-0.8,2.6-1.2,4.1c-0.1-0.5-0.2-0.8-0.3-1.1c-0.9-2.7-1.6-5.4-2-8.1
					c-0.2-2-0.4-4.1-0.7-6.1c-0.5-3.9-1-7.7-1.6-11.6c-0.1-0.6-0.3-1.2-0.5-1.7c0-0.2,0-0.4,0.1-0.6c0.2-0.4,0.6-0.7,0.9-1.1
					c0.1,0.8,0.1,1.6,0.2,2.3c0.6,4,1.1,8,1.7,12.1c0.2,1.7,0.5,3.4,0.8,5c0.1,0.4,0.2,0.8,0.4,1.1c0.1,0.2,0.4,0.4,0.6,0.4
					c0.2,0,0.5-0.3,0.6-0.5c0.2-0.6,0.4-1.3,0.5-2c0.8-3.1,1.1-6.3,1.5-9.4c0.3-2.3,0.6-4.6,0.8-6.9
					C131.9,135.1,131.8,134.4,131.8,133.5"/>
				<path class="st18" d="M127.4,124.6c0.3,1.2,0.5,2.4,0.8,3.6c0.4,1.6,1.3,3,2.4,4.3c0.2,0.2,0.3,0.4,0.3,0.8
					c-0.5,4-0.9,8.1-1.4,12.1c-0.2,1.9-0.6,3.8-0.9,5.7c0,0.2-0.1,0.3-0.2,0.5c-0.2-1.1-0.3-2.1-0.5-3.2c-0.5-3.4-1-6.8-1.6-10.2
					c-0.3-1.8-0.5-3.7-0.8-5.5c0-0.2,0-0.4,0-0.6c0.6-2.4,1.2-4.8,1.8-7.2C127.3,124.7,127.3,124.6,127.4,124.6"/>
				<path class="st20" d="M112.1,142.2c-1.5-1-2.9-2-4.3-3c-2.4-1.7-4.4-3.7-6.2-6c-1.4-1.8-2.8-3.6-4.2-5.4c-1.4-1.8-2.4-3.8-2.9-6
					c-0.3-1.4,0-2.8,0.7-4c0,0,0.1,0,0.1,0.1c0.1,2.9,1.3,5.3,2.9,7.6c2.7,3.8,6,6.9,9.7,9.6c0.6,0.5,1.3,0.9,2,1.3
					c-0.2,0.5-0.4,0.9-0.5,1.4c-0.3,0.9,0,1.5,0.7,2c0.5,0.3,1,0.6,1.4,0.9C112.3,141,112.4,141.4,112.1,142.2"/>
				<path class="st18" d="M112.3,110.1c1-1.1,1.9-2.1,3-3.3c2.1,3.3,5.1,5.2,9.2,5.8c-1.4,2.2-2.8,4.3-4.2,6.5
					c-0.6-0.5-1.2-0.8-1.6-1.2c-0.9-0.9-1.8-1.9-2.6-2.9c-1-1.2-2-2.5-3-3.8C112.8,110.8,112.5,110.4,112.3,110.1"/>
				<path class="st20" d="M128.2,118.7c1.4,4.5,3.4,8.7,6.2,12.4c-1-2.4-1.9-4.7-2.9-7.1c-1-2.4-1.9-4.8-2.9-7.2
					c0.1,0,0.1-0.1,0.2-0.1c1.1,1.6,2.1,3.3,3.3,4.8c1.4,1.8,2.2,3.8,3.3,5.7c1,1.7,1.7,3.6,1.6,5.6c0,1.1-0.3,1.3-1.4,1
					c-3.2-0.7-5.2-2.7-6.3-5.8c-0.6-1.8-0.8-3.7-0.9-5.5C128.4,121.2,128.3,120,128.2,118.7"/>
				<path class="st18" d="M144.3,109.8c-1.1,1.4-2.2,2.7-3.3,4.2c-1.1,1.4-2.1,2.9-3.2,4.4c-0.9-1.2-1.8-2.2-2.6-3.3
					c-0.4-0.5-0.8-1.1-1.2-1.7c-0.3-0.5-0.7-0.9-1-1.3c3.4-0.9,6-3.4,8-6.6C142.1,107,143.2,108.4,144.3,109.8"/>
				<path class="st20" d="M126.9,119.8c-0.2,1.5-0.4,2.9-0.7,4.4c-0.5,2.4-1.1,4.7-1.7,7c-0.3,0.9-0.8,1.8-1.4,2.6
					c-0.4,0.6-1.1,1.1-1.9,1.1c-1.7,0.2-2.9-1.1-2.6-2.8c0.1-0.6,0.3-1.2,0.6-1.7c1.9-3.3,3.8-6.6,5.7-9.9c0.2-0.4,0.5-0.8,0.7-1.2
					c-0.7,3.9-2.2,7.6-3.5,11.4c0.1-0.1,0.2-0.2,0.3-0.3c1.5-1.6,2.4-3.4,3-5.5c0.5-1.6,0.9-3.2,1.3-4.8c0-0.1,0.1-0.3,0.1-0.4
					C126.8,119.8,126.9,119.8,126.9,119.8"/>
				<path class="st18" d="M135.2,117.2c1,1.1,2,2.1,2.9,3.1c0.8,0.9,1.6,1.9,2.3,2.9c1.7,2.2,3.8,4,5.9,5.8c0.3,0.2,0.4,0.4,0.3,0.8
					c-0.3,0.9-0.2,1.8,0,2.7c0,0.2,0.1,0.4,0,0.6c-0.2-0.2-0.5-0.4-0.7-0.6c-3-2.5-5.7-5.4-7.9-8.7c-0.1-0.2-0.3-0.4-0.5-0.6
					c-0.2-0.1-0.4-0.3-0.6-0.2c-0.2,0-0.4,0.3-0.4,0.5c0,0.8,0.1,1.7,0.2,2.5c0.1,0.7,0.3,1.4,0.5,2.2c-0.8-1.6-1.6-3.1-2.4-4.6
					c-0.1-0.1-0.1-0.2-0.1-0.3c0.4-2,0.5-3.9,0.3-5.9C135.2,117.4,135.2,117.4,135.2,117.2"/>
				<path class="st18" d="M112.1,132.8c-0.3-0.6-0.7-1.1-1-1.7c-0.1-0.1,0-0.5,0.1-0.6c0.5-0.6,1-1.3,1.7-1.8c3.4-2.7,6-6.1,8.6-9.5
					c0.1-0.2,0.3-0.3,0.5-0.6c0,1,0,1.8,0,2.7c0,0.1,0,0.3,0,0.4c0.4,0.7,0,1.3-0.4,1.8c-0.7,1.1-1.3,2.2-1.9,3.3
					c-0.1,0.2-0.2,0.3-0.3,0.5c-2.4,1.8-4.8,3.6-7.2,5.4C112.2,132.8,112.1,132.8,112.1,132.8"/>
				<path class="st20" d="M156.9,114c1.2,0.5,1.9,1.3,2.4,2.3c1,2.4,1,4.8,0.5,7.3c-0.8,4.2-3,7.6-5.9,10.6c-2.2,2.2-4.7,4.1-7.2,6
					c-0.2-0.4-0.3-0.8-0.4-1.2c0.1-0.1,0.3-0.2,0.4-0.3c3.1-2.4,6.1-4.8,8.5-7.9c1.8-2.3,3.1-4.9,3.5-7.9c0.2-1.5,0-3-0.2-4.6
					C158.2,116.9,157.8,115.5,156.9,114"/>
				<path class="st21" d="M121.8,149.4c0.2,5.1-1.8,12.6-4.1,15c-0.5-0.2-0.9-0.6-0.8-1.2c0.1-1.2,0.2-2.4,0.4-3.6
					c0.3-1.7,0.2-2.4-0.5-3.7C118.4,153.8,120.1,151.6,121.8,149.4"/>
				<path class="st21" d="M115,150.2c0-1.7-0.7-3-1.9-4.1c-0.1-0.1-0.3-0.2-0.4-0.4c-0.3-0.4-0.2-1,0.2-1.2c2.7-1.5,5.1-3.5,7.2-5.8
					c0.1-0.1,0.1-0.1,0.2-0.2C119.7,143,118.8,147.2,115,150.2"/>
				<path class="st21" d="M113.1,140.1c-0.6-0.4-1.2-0.8-1.8-1.2c-0.6-0.4-0.7-0.5-0.4-1.2c0.4-1,0.8-2.1,1.2-3.1
					c0-0.1,0.1-0.2,0.2-0.3c1.9-1.5,3.9-2.9,5.8-4.4c-0.2,0.6-0.4,1.3-0.6,2c-0.1,0.4-0.1,0.9,0,1.4c0.1,0.5,0,0.9-0.2,1.3
					C116.2,136.8,114.5,139,113.1,140.1"/>
				<path class="st15" d="M103.2,76c0.3,2.2,0.6,4.1,0.8,6.2c-0.1,0-0.3-0.1-0.4-0.1c-1.8-1-3.1-2.3-3.8-4.3
					c-0.7-2.1-1.1-4.3-0.7-6.5c0.1-0.5,0.3-1,0.5-1.5c0.2-0.5,0.6-0.5,1-0.2c0.7,0.7,1.4,1.3,2.1,2.1c0.2,0.2,0.2,0.6,0.3,0.9
					c0,0.2,0,0.3,0,0.5c0.1,0.9,0,1.7-0.9,2.3c-1.2,0.9-1.2,2.5-0.3,3.7c0.1,0.1,0.3,0.2,0.5,0.3c0-0.2,0.1-0.3,0.1-0.5
					c0.1-0.7,0.1-1.3,0.2-2C102.7,76.6,103,76.4,103.2,76"/>
				<path class="st21" d="M137.6,124.8c2.4,3.6,5.2,6.6,8.6,9c-0.5,0.5-1.2,0.8-1.6,1.3c-0.4,0.5-0.5,1.2-0.7,1.8
					C141.4,135.5,137.5,128.1,137.6,124.8"/>
				<path class="st21" d="M140.5,160.7c-3.1-3.5-4-7.8-5-12c0.5,0.6,1,1.3,1.6,1.9c1,1.1,2.1,2.3,3.1,3.4c0.1,0.1,0.2,0.3,0.2,0.4
					c0,1,0.5,1.9,1,2.7c0.7,1,0.5,1.9-0.1,2.8C141.2,160.2,140.9,160.4,140.5,160.7"/>
				<path class="st18" d="M110.4,135.6c-2.6-2.2-5.2-4.3-7.5-6.6c-1.8-1.7-3.3-3.6-4.9-5.4c-0.2-0.2-0.3-0.4-0.5-0.7
					c-1.5-1.9-1.7-4.1-1.3-6.3c0.1-0.3,0.4-0.6,0.7-1c0.1,1,0,1.7,0.1,2.5c0.5,2.7,1.9,4.9,3.5,7c2.8,3.5,6,6.5,9.9,8.7
					c0.1,0.1,0.2,0.3,0.2,0.5c0,0.2-0.1,0.3-0.1,0.5C110.6,135.1,110.5,135.2,110.4,135.6"/>
				<path class="st15" d="M152.7,73.5c0.5,0.3,0.7,0.7,0.7,1.2c0,0.3,0.1,0.6,0.2,0.9c0.1,0.4,0.4,0.5,0.7,0.2
					c0.1-0.2,0.3-0.4,0.3-0.6c0.2-1.2-0.5-2.2-1.7-2.4c-0.1,0-0.3-0.2-0.3-0.3c-0.2-1.4,0.1-2.7,1-3.8c0.8-0.9,1.5-0.8,2.1,0.1
					c0.3,0.5,0.6,1.2,0.6,1.8c0.1,1.7-0.2,3.4-1,4.9c-0.7,1.3-1.3,2.6-2,3.9c-0.2,0.4-0.4,0.7-0.7,1.1V73.5z"/>
				<path class="st18" d="M154.6,113.1c0.6,0.2,1.1,0.4,1.7,0.6c0.1,0,0.2,0.2,0.3,0.3c1.8,4,2.3,8,0.5,12.1c-1,2.2-2.4,4.1-4,5.9
					c-2.2,2.3-4.7,4.3-7.3,6.3c-0.1-0.4-0.3-0.7-0.3-1c0-0.2,0.2-0.4,0.4-0.5c2.3-1.5,4.6-3,6.5-5c2.2-2.2,3.8-4.7,4.6-7.7
					c0.7-2.8,0.4-5.6-0.6-8.3C155.9,114.8,155.2,114,154.6,113.1"/>
				<path class="st21" d="M137.9,137.6c1.8,1.7,3.6,3.4,5.4,5.1c-0.3,0.4-0.6,0.9-0.9,1.4c-0.6,1.2-0.4,2.3,0.5,3.3
					c0.2,0.3,0.5,0.5,0.7,0.8c0.4,0.5,0.4,0.7,0,1.3c-0.9-0.6-1.7-1.4-2.4-2.2c-1.4-1.8-2.1-4-2.6-6.2
					C138.3,139.9,138.1,138.7,137.9,137.6"/>
				<path class="st21" d="M123.6,160.2c0.1,0.8,0.3,1.7,0.3,2.6c0.2,2.7,0,5.3-0.4,8c-0.1,0.4-0.3,0.4-0.6,0.3c-1-0.3-1.9-1.4-2-2.5
					c-0.1-0.8,0.1-1.7-0.1-2.5c-0.1-0.8,0.1-1.3,0.5-1.9C122.1,162.9,122.8,161.5,123.6,160.2"/>
				<path class="st19" d="M89.9,387.5c0.8,0.5,1,1.3,1.4,2c0.1,0.2,0.1,0.4,0.3,0.5c0.3,0.4,0.9,0.2,1.2-0.3
					c0.2-0.4,0.3-0.8,0.6-1.2c0.3-0.5,0.8-0.6,1.2-0.4c0.4,0.2,0.5,0.6,0.2,1.2c-0.1,0.2-0.3,0.4-0.4,0.6c-0.1,0.2-0.2,0.6,0,0.8
					c0.1,0.2,0.5,0.3,0.7,0.3c0.3,0,0.6-0.2,0.9-0.2c0.4,0,0.9-0.1,1.4,0c0.4,0.1,0.6,0.4,0.5,0.9c-0.2,0.9-0.8,1.5-1.7,1.7
					c-0.3,0.1-0.8,0-1.1-0.1c-1.4-0.7-2.8-1.3-4.4-1.5c-0.2,0-0.4-0.2-0.5-0.4c-0.3-0.6-0.8-1.1-0.9-1.7
					C89.2,388.9,89.3,388.1,89.9,387.5"/>
				<path class="st21" d="M135,158.9c0.2,0.5,0.4,1,0.7,1.5c0.7,1.5,1.4,3,2.1,4.4c0.1,0.2,0.2,0.5,0.3,0.7c0.2,0.6,0,1.2-0.5,1.6
					c-0.9,0.6-1.9,0.9-3,0.6c-0.2,0-0.3-0.3-0.4-0.5c-0.3-1.6-0.3-3.2-0.1-4.8c0.2-1.2,0.5-2.4,0.7-3.6
					C134.9,158.9,135,158.9,135,158.9"/>
				<path class="st19" d="M155.3,395.3c0,0.6-0.3,1.3-0.8,1.8c-0.1,0.1-0.4,0.2-0.6,0.2c-2.3-0.5-4.7-0.5-7,0.2
					c-0.1,0-0.3,0.1-0.4,0c-0.5-0.5-1-1-1.4-1.6c-0.2-0.2-0.2-0.7,0-1c0.1-0.2,0.6-0.2,0.9-0.1c0.5,0.2,0.9,0.6,1.3,0.9
					c0.1,0.1,0.2,0.4,0.4,0.4c0.3,0.1,0.6,0.3,0.8,0.3c0.2-0.1,0.5-0.5,0.5-0.8c0.1-0.6,0.2-1.1,0.8-1.4c0.7-0.4,1.2-0.1,1.5,0.7
					c0.1,0.3,0.3,0.6,0.5,0.7c0.4,0.2,0.7-0.1,0.9-0.4c0.1-0.3,0.3-0.5,0.4-0.8c0.3-0.5,0.9-0.8,1.5-0.6
					C155.1,394,155.3,394.4,155.3,395.3"/>
				<path class="st18" d="M146.1,399.3c1-0.7,1.9-0.9,2.9-1c0.9,0,1.8-0.1,2.7,0c0.9,0.1,1.7,0.3,2.6,0.6c0.4,0.1,0.6,0.6,1,0.9
					c-0.3,0.2-0.6,0.5-1,0.7c-1.5,0.5-3.1,0.5-4.7,0.4c-1-0.1-1.9-0.3-2.7-0.8C146.7,399.7,146.4,399.5,146.1,399.3"/>
				<path class="st18" d="M130.1,112.8c0.6-0.2,0.9-0.1,1.4,0.2c1.3,0.7,2,1.9,2.8,3.1c0.1,0.1,0.1,0.3,0,0.4
					c-0.1,1.7-0.3,3.3-0.4,5c0,0.1,0,0.2-0.1,0.3c-0.7-1-1.5-1.9-1.3-3.2c0.1-0.9,0-1.8-0.1-2.6
					C132.2,114.5,131.4,113.5,130.1,112.8"/>
				<path class="st18" d="M96.5,396c-0.6-0.1-1.1-0.1-1.6-0.2c-1-0.2-2-0.5-3-0.8c-0.2,0-0.4-0.1-0.6-0.1c-1.6-0.1-1.8-0.7-2.6-1.8
					c0.5-0.4,1.1-0.4,1.6-0.3c1.7,0.3,3.3,0.7,4.7,1.8c0.4,0.3,0.8,0.5,1.2,0.8c0.2,0.1,0.3,0.3,0.4,0.4
					C96.6,395.9,96.6,396,96.5,396"/>
				<path class="st18" d="M126.3,113c-1.4,1.2-1.5,2.9-1.6,4.6c0,0.4-0.1,0.9-0.3,1.2c-0.3,0.6-0.7,1.2-1.1,1.9c-0.1,0-0.1,0-0.2,0
					c0.1-1,0.2-2,0.3-3c0.2-1.8,1.3-3.2,2.1-4.7c0.1-0.2,0.5-0.1,0.8-0.2C126.3,112.9,126.3,113,126.3,113"/>
				<path class="st20" d="M131.3,117.9c-0.5-0.8-0.9-1.7-1.4-2.5c-0.2-0.4-0.5-0.7-0.7-1c-0.7-0.9-1.4-0.5-2.1,0
					c-0.2,0.1-0.3,0.3-0.5,0.5c0.2-1.1,1.5-1.7,2.6-1.3c1.4,0.5,2.1,1.5,2.2,2.9C131.3,117,131.3,117.5,131.3,117.9"/>
				<path class="st13" d="M143.7,243.2c0,1,0,2.1,0,3.1c0.1,5.6,0.2,11.3,0.4,16.9c0.2,6.6,0.4,13.2,0.6,19.9
					c0.1,3.4,0.3,6.8,0.4,10.2c0.2,5.6,0.4,11.1,0.6,16.7c0.1,1.5,0.1,3,0.2,4.6c0,0.4,0.1,0.7,0.5,0.9c0.4,0.2,0.4,0.6,0.3,0.9
					c-0.2,0.5-0.5,0.9-0.7,1.4c-0.2,0.4-0.5,0.7-0.7,1.1c1.4,0.6,1.4,2,1.7,3.2c0.2,1,0.4,2.1,0.6,3.2c0.3,2.5,0.6,5.1,0.8,7.6
					c0.3,3.1,0.6,6.2,0.8,9.3c0.3,3.1,0.5,6.3,0.7,9.4c0.2,2.7,0.4,5.5,0.6,8.2c0.2,2.8,0.4,5.7,0.6,8.6c0.2,2.8,0.4,5.5,0.6,8.3
					c0.2,2.7,0.4,5.5,0.6,8.2c0.1,2.2,0.3,4.3,0.4,6.5c0,0.2,0.1,0.5,0,0.7c-0.1,0.3-0.3,0.5-0.5,0.7c-0.2-0.2-0.5-0.4-0.5-0.6
					c-0.1-0.7-0.2-1.4-0.3-2.1c-0.3-4-0.6-8.1-0.8-12.1c-0.2-3.3-0.4-6.6-0.7-9.9c-0.3-3.7-0.5-7.4-0.8-11.1
					c-0.2-2.8-0.4-5.5-0.6-8.3c-0.3-3.9-0.6-7.8-0.9-11.7c-0.2-2.4-0.4-4.8-0.6-7.2c-0.2-2.1-0.5-4.2-0.7-6.2c0-0.2,0-0.3,0-0.5
					c0.2-0.8-0.1-1.5-0.3-2.2c-0.1-0.5-0.4-0.8-0.9-1.1c-0.6-0.3-0.7-0.6-0.3-1.2c0.4-0.6,0.9-1.2,1.3-1.8c0.3-0.4,0.3-0.6-0.2-0.8
					c-0.2-0.1-0.4-0.3-0.4-0.5c-0.1-1-0.3-2-0.3-3.1c-0.1-4.2-0.2-8.4-0.3-12.6c-0.1-2.6-0.3-5.2-0.4-7.8c-0.2-3.7-0.3-7.4-0.5-11.2
					c-0.5-11-0.3-22-0.3-33c0-1.3,0-2.6,0-3.8c0-0.2,0-0.4,0-0.6C143.6,243.2,143.7,243.2,143.7,243.2"/>
				<path class="st13" d="M131.6,72.2c0.8-1.3,2-1.9,3.5-1.9c0.7,0,1.4,0.1,2.1,0.3c2,0.4,3.9,1.1,5.5,2.4c0.4,0.3,0.6,0.8,0.9,1.2
					c0.1,0.1,0.1,0.3,0,0.3c-0.1,0.1-0.3,0.1-0.4,0.1c-0.4-0.1-0.7-0.3-1.1-0.5c-0.5-0.3-0.9-0.6-1.3-0.9c-1.1,1.6-2.8,2.1-4.6,2.3
					c-1.8,0.2-3.4-0.2-4.8-1.4l-0.1,0.1c0.1,0.2,0.1,0.5,0.3,0.7c0.6,1,1.3,2.1,2,3.1c0.4,0.6,0.8,1.1,1.2,1.7
					c0.1,0.2,0.1,0.4,0.1,0.6c-0.2,0-0.4,0-0.6-0.1c-0.2-0.1-0.5-0.3-0.7-0.5c-1.4-1.4-2.5-3.1-2.8-5c-0.2-1.6-0.1-3.2,0.5-4.7
					c0.3-0.8,0.9-1.3,1.7-1.4c0.9-0.1,1.8-0.1,2.6-0.1c0.1,0,0.3,0.2,0.4,0.3c-0.2,0.1-0.3,0.2-0.5,0.2c-0.7,0.1-1.4,0.1-2.1,0.2
					c-1,0.1-1.6,0.7-1.9,1.7c-0.1,0.4-0.2,0.9-0.3,1.3C131.5,72.1,131.6,72.2,131.6,72.2 M133.8,71.6c-0.9,0.3-1.2,1-1.7,1.7
					c2.4,1.8,6.5,1,7.6-0.6c-0.6-0.2-1.2-0.4-1.7-0.6c-0.2,1.6-1.2,2.4-2.6,2.1C134.2,73.9,133.6,73,133.8,71.6 M135.2,71.5
					c-0.4-0.1-0.6,0.2-0.6,0.6c0,0.5,0.6,1,1.2,0.9c0.6,0,1.1-0.5,1-1c0-0.1-0.1-0.3-0.2-0.3C136.1,71.6,135.7,71.6,135.2,71.5"/>
				<path class="st13" d="M120.2,72.4c-0.1-0.4-0.2-0.7-0.3-0.9c-0.5-0.7-0.9-1.5-1.4-2.1c-0.9-1-2.3-1.1-3.7-0.4
					c-0.1,0-0.2,0.1-0.3,0.1c-0.1,0-0.2,0-0.4-0.1c0-0.1,0-0.3,0.1-0.4c0.4-0.2,0.7-0.4,1.1-0.5c2.2-0.6,3.6,0,4.7,2
					c1.1,1.9,1,3.9,0.1,5.8c-0.5,1-1.1,2-1.7,2.9c-0.2,0.4-0.6,0.7-0.9,0.9c-0.1,0.1-0.3,0-0.5,0c0-0.2,0-0.3,0.1-0.5
					c0.9-1.6,1.8-3.2,2.6-4.9c-1.5,0.7-3,1.1-4.5,1c-1.6-0.2-3-0.8-3.9-2.4c-0.5,0.3-1,0.6-1.5,0.9c-0.5,0.3-1.1,0.7-1.6,0.9
					c-0.2,0.1-0.4,0-0.7-0.1c0.1-0.2,0.1-0.5,0.2-0.6c2.4-2.1,5.1-3.6,8.4-3.6C118.2,70.5,118.8,70.8,120.2,72.4 M116.6,74.3
					c-1.3-0.3-1.7-1.2-1.8-2.5c-1,0.3-2,0.6-3,1C113.2,74.2,114.8,74.5,116.6,74.3 M115.7,71.7c0.2,1,0.6,1.4,1.2,1.4
					c0.6,0,0.8-0.3,1-1.3C117.1,71.8,116.4,71.7,115.7,71.7 M118.1,74c0.4-0.2,0.9-0.4,1.4-0.6c-0.3-0.3-0.5-0.6-0.6-0.8
					C118.6,73.1,118.4,73.5,118.1,74"/>
				<path class="st13" d="M132,84.4c-1.2,1.2-2.7,1.5-4.1,1.9c-1.8,0.4-3.6,0.4-5.3-0.2c-1-0.3-1.8-0.8-2.4-1.9
					c-0.3,1.2-0.7,2.4-1,3.6c-0.1,0.3-0.1,0.7-0.2,1c0,0.1-0.2,0.2-0.3,0.4c-0.1-0.1-0.2-0.3-0.2-0.4c0.1-0.9,0.3-1.9,0.5-2.8
					c0.4-2.1,1.2-4,2-6c0.5-1.2,0.9-2.4,1.4-3.7c0-0.1,0.1-0.3,0.1-0.3c0.1-0.1,0.2-0.2,0.3-0.1c0.1,0,0.2,0.2,0.2,0.3
					c0,0.2,0,0.3-0.1,0.5c-0.6,1.9-1.2,3.8-1.9,5.6c-0.3,0.8,0.1,1.9,0.8,2.3c1.3,0.8,2.8,1,4.3,0.8c1.3-0.2,2.5-0.6,3.8-0.9
					c0.4-0.1,0.8-0.5,1.1-0.8c0.3-0.4,0.4-0.8,0.2-1.3c-0.8-2-1.6-3.9-2.4-5.9c-0.1-0.1,0-0.3,0-0.5c0.2,0.1,0.4,0.2,0.5,0.3
					c0.8,1.8,1.7,3.6,2.5,5.4c0.8,1.9,1.4,3.8,1.7,5.9c0,0.2-0.1,0.4-0.1,0.5c-0.1-0.1-0.3-0.3-0.4-0.4
					C132.6,86.4,132.4,85.4,132,84.4"/>
				<path class="st13" d="M125,92.3c-1.7-0.2-3.3-0.3-5-0.6c-0.5-0.1-1-0.3-1.5-0.6c-0.4-0.2-0.5-0.8-0.2-1c0.2-0.1,0.6-0.2,0.7-0.1
					c0.8,0.7,1.7,0.7,2.6,0.8c2.8,0.3,5.5,0.1,8.3,0c0.9-0.1,1.7-0.2,2.6-0.4c0.3-0.1,0.5-0.3,0.7-0.5c0.2-0.2,0.5-0.4,0.7-0.2
					c0.2,0.1,0.3,0.5,0.2,0.7c-0.2,0.5-0.6,0.8-1.1,1c-1.7,0.5-3.4,0.5-5.2,0.6C126.9,92.1,126,92.1,125,92.3
					C125,92.2,125,92.2,125,92.3"/>
				<path class="st13" d="M133.8,66.2c1.9,0.2,4,0.4,6.2,0.7c1.3,0.2,2.5,0.7,3.6,1.5c0.1,0.1,0.3,0.2,0.4,0.3
					c0.1,0.2,0.2,0.5,0.1,0.6c-0.1,0.2-0.4,0.2-0.6,0.3c-0.1,0-0.3-0.1-0.4-0.2c-1.6-1.1-3.5-1.5-5.4-1.6c-1.9-0.1-3.9-0.2-5.8-0.3
					c-0.3,0-0.7-0.1-1-0.2c-0.1-0.1-0.3-0.3-0.3-0.4c0-0.1,0.3-0.3,0.4-0.3C131.8,66.3,132.7,66.3,133.8,66.2"/>
				<path class="st13" d="M118.9,66.4c0.6,0,1.1,0,1.6,0.1c0.2,0,0.4,0.3,0.5,0.5c-0.2,0.2-0.3,0.4-0.6,0.5c-0.3,0.1-0.7,0.1-1,0.1
					c-2.3,0.2-4.6,0.3-6.9,0.5c-0.9,0.1-1.8,0.5-2.6,1c-0.3,0.2-0.8,0.3-1.2,0.4c-0.1,0-0.3-0.1-0.3-0.1c0-0.1,0-0.3,0.1-0.4
					c1-1.5,2.6-1.9,4.3-2.1C114.9,66.7,117,66.5,118.9,66.4"/>
				<path class="st13" d="M127.2,64.9c0,0,0,0.1,0,0.1c0,1.2-0.6,2-1.5,2.1c-0.8,0.1-1.8-0.5-2.1-1.5c-0.2-0.5-0.2-1-0.2-1.6
					c0-0.8,0.7-1.4,1.5-1.4C126.4,62.5,127.2,63.4,127.2,64.9 M126.3,64.7c0-0.3,0-0.8-0.5-1c-0.9-0.5-1.7,0-1.7,1.1
					c0,0.7,0.7,1.5,1.3,1.5c0.5,0,0.9-0.5,0.9-1.3C126.3,64.9,126.3,64.8,126.3,64.7"/>
				<path class="st18" d="M133.8,71.6c-0.3,1.4,0.3,2.3,1.5,2.5c1.4,0.3,2.4-0.5,2.6-2.1c0.6,0.2,1.2,0.4,1.7,0.6
					c-1,1.6-5.2,2.4-7.6,0.6C132.6,72.6,132.9,71.9,133.8,71.6"/>
				<path class="st22" d="M135.2,71.5c0.5,0.1,0.9,0.1,1.4,0.2c0.1,0,0.2,0.2,0.2,0.3c0,0.5-0.5,1-1,1c-0.6,0-1.1-0.4-1.2-0.9
					C134.6,71.7,134.7,71.4,135.2,71.5"/>
				<path class="st18" d="M116.6,74.3c-1.8,0.2-3.4-0.1-4.8-1.6c1.1-0.3,2-0.6,3-1C114.9,73,115.3,74,116.6,74.3"/>
				<path class="st22" d="M115.7,71.7c0.8,0,1.4,0.1,2.1,0.1c-0.1,0.9-0.4,1.3-1,1.3C116.3,73.1,115.9,72.7,115.7,71.7"/>
				<path class="st18" d="M118.1,74c0.3-0.5,0.5-0.9,0.8-1.4c0.2,0.2,0.4,0.5,0.6,0.8C119,73.6,118.5,73.8,118.1,74"/>
				<path class="st23" d="M126.3,64.7c0,0.1,0,0.2,0,0.2c0,0.8-0.3,1.4-0.9,1.3c-0.6,0-1.3-0.8-1.3-1.5c0-1.1,0.8-1.6,1.7-1.1
					C126.3,63.9,126.3,64.4,126.3,64.7"/>
			</g>
		</g>
	</g>
</g>
<g id="A7">
</g>
<g id="A6">
</g>
<g id="A5">
</g>
<g id="A4">
</g>
<g id="A3">
</g>
<g id="A2">
</g>
<g id="A1">
</g>
</svg>
