<?xml version="1.0" encoding="utf-8"?>
<!-- Generator: Adobe Illustrator 21.0.0, SVG Export Plug-In . SVG Version: 6.00 Build 0)  -->
<svg version="1.1" id="Слой_1" xmlns="http://www.w3.org/2000/svg" xmlns:xlink="http://www.w3.org/1999/xlink" x="0px" y="0px"
	 viewBox="0 0 827.9 595.3" style="enable-background:new 0 0 827.9 595.3;" xml:space="preserve">
<style type="text/css">
	.st0{fill:url(#SVGID_1_);}
	.st1{fill:#E1E1E1;}
	.st2{fill:#868691;}
	.st3{fill:#F2F2F8;}
	.st4{fill:#9ED459;}
	.st5{fill:#FBFBBF;}
	.st6{fill:#E0524E;}
	.st7{fill:#D5F5B4;}
	.st8{fill:#310B0A;}
	.st9{fill:#80665E;}
	.st10{fill:#4A2D2D;}
</style>
<linearGradient id="SVGID_1_" gradientUnits="userSpaceOnUse" x1="414.7235" y1="213" x2="414.7235" y2="-1.2335">
	<stop  offset="0" style="stop-color:#F2F2FE"/>
	<stop  offset="1" style="stop-color:#ADB7F4"/>
</linearGradient>
<rect x="1.5" y="1.8" class="st0" width="826.4" height="434.8"/>
<path class="st1" d="M343.8,189.4c-0.3-0.9-0.6-1.5-0.8-2.1c-2.9-9.9-4.8-19.9-6.1-30.1c-1.9-14.6-2.3-29.2-1.5-43.9
	c0.4-7.4,1.6-14.7,3.6-21.9c1.1-4.1,3.3-6.7,7.3-7.9c6.2-1.9,12.3-4,18.5-5.6c16.3-4.2,32.9-5.6,49.7-4.6c11.5,0.7,22.9,2.9,34,5.9
	c4.8,1.3,9.6,2.8,14.2,4.8c1.8,0.8,2.7,1.8,3.3,3.6c2.4,7.9,4.1,15.8,5.2,24c1.8,12.5,2.3,25.1,1.5,37.7c-0.7,11.8-2.5,23.5-5.1,35
	c-0.4,1.9-0.6,2-2.7,2c-5.7,0.1-11.4,0-17,0.1c-13.3,0.4-26.5,0.9-39.8,1.4c-7.9,0.3-15.9,0.4-23.8,0.6c-12.3,0.4-24.6,0.7-37,1.1
	C346.3,189.4,345.1,189.4,343.8,189.4z"/>
<polygon class="st2" points="473.2,169.6 338.2,173.3 341.6,188.3 342.2,191.7 372.2,190.7 468.9,188.1 "/>
<path class="st3" d="M446.5,103.5c3.5-3.3,6.3-7.4,8.3-12.9c-9.2,7.5-21.1,11.6-32.9,11.2c-10.5-0.4-19-4.4-27.8-9.7
	c-9.1-5.4-10.5-10.9-14.1-21c-0.6,1-1.5,1.8-2.9,2.2c-10.3,3.1-20.8,2.7-29.9,9.3c-2.7,1.9-5.8,4.4-8.8,7.1c-1.3,2.2-2.4,4.5-3.4,7
	c-1.1,8.5,1.4,15,9.9,18.3c20.3,7.8,51.7,5,72.4,0.6C428.7,113.2,439.1,110.4,446.5,103.5z"/>
<g>
	<path d="M0.5,0.5c276.1,0,552.3,0,828.4,0c0,198.5,0,397.1,0,595.6c-276.1,0-552.3,0-828.4,0C0.5,397.6,0.5,199,0.5,0.5z
		 M474.3,213.8c17.4-9.8,34.3-19.3,51.2-28.8c0-0.2-0.1-0.4-0.1-0.6c-1.3,0-2.7-0.1-4-0.2c-2-0.1-2.5-0.6-2.5-2.5c0-2.7,0-5.3,0.1-8
		c0.1-2.4,0.8-3.1,3.2-3c4.9,0.3,9.8,0.7,14.7,1.1c8,0.6,16,1.3,24,1.9c5.5,0.4,11,0.8,16.5,1.2c8.1,0.6,16.1,1.3,24.2,1.9
		c5.5,0.4,11,0.8,16.5,1.2c7.9,0.6,15.8,1.3,23.7,1.9c5.6,0.4,11.2,0.8,16.8,1.2c8,0.6,16,1.3,24,1.9c5.5,0.4,11,0.8,16.5,1.2
		c8.1,0.6,16.1,1.3,24.2,1.9c5.5,0.4,11,0.8,16.5,1.2c7.9,0.6,15.8,1.3,23.7,1.9c5.6,0.4,11.2,0.8,16.8,1.2
		c7.9,0.6,15.8,1.2,23.7,1.9c6,0.5,12,1,18,1.4c2.1,0.1,4.2,0.6,6.6-0.2c0-1.5,0.1-2.9,0.1-4.4c0-61.1,0-122.3,0-183.4
		c0-0.9,0-1.7,0-2.6c-0.1-0.7-0.2-1.3-0.4-1.9c-0.6-0.1-1-0.2-1.5-0.2c-274.4,0-548.8,0-823.2,0C3,1.1,2.6,1.2,2.2,1.3
		C2.1,1.3,2,1.4,2,1.5C1.9,1.5,1.8,1.6,1.5,1.8c0,1.1-0.1,2.5-0.1,3.9c0,41.2,0,82.4,0,123.7c0,0.5,0,1,0,1.6
		c0.1,2.8,0.2,2.9,2.9,2.9c0.8,0,1.6,0,2.3,0c8.9,0.2,17.8,0.3,26.6,0.5c1.5,0,3.1,0.2,4.6,0.7c1.9,0.6,2.2,2.5,0.7,3.9
		c-0.9,0.8-2,1.4-3.1,1.9c-4.8,2.3-9.7,4.4-14.6,6.7c-0.6,0.3-1,0.6-1.7,1.1c3.9,0.9,7.5,1.9,11.1,2.6c0.9,0.2,1.9,0.2,2.8-0.1
		c9.3-3.2,18.4-6.9,26.2-13.1c2.2-1.8,3.6-0.7,4.3,1.6c0.4,1.3-0.2,2.1-1.5,1.9c-0.9-0.1-1.6,0-2.4,0.5c-6.2,4.3-13,7.5-19.9,10.3
		c-0.6,0.2-1.2,0.6-1.8,0.9c0.2,0.3,0.3,0.5,0.5,0.5c0.7,0.3,1.4,0.6,2.2,0.9c5.6,2.1,10.9,4.7,15.8,8.2c1.3,1,2.6,2,3.7,3.3
		c2.2,2.6,1.7,5.3-1.2,6.9c-1.7,0.9-3.7,1.5-5.5,2.2c-1,0.4-2,0.7-3.2,1.2c0.4,0.4,0.5,0.6,0.7,0.7c6.5,2.5,12.5,5.8,18.5,9.2
		c0.8,0.4,1.8,0.7,2.7,0.6c5.6-0.6,11.1-1.1,16.7-1.9c2.7-0.4,5.2-1.6,7.8-2.5c1.5-0.5,2.8,0,2.6,1.2c-0.1,0.6-0.7,1.5-1.3,1.7
		c-1.7,0.8-3.5,1.7-5.3,2c-4.6,0.9-9.2,1.5-13.8,2.2c-0.8,0.1-1.6,0.2-2.5,0.4c0.2,0.5,0.2,0.7,0.4,0.7c4.9,3.4,9.7,6.8,14.7,10.2
		c0.6,0.4,1.5,0.5,2.2,0.5c6.3-0.6,12.5-1.3,18.8-1.9c3.8-0.4,7.5-0.8,11.3-1.2c1-0.1,2,0.1,2.2,1.3c0.2,1.2-0.6,1.7-1.6,1.9
		c-0.9,0.2-1.9,0.3-2.8,0.4c-7.6,0.8-15.3,1.5-22.9,2.3c-0.5,0.1-1,0.3-1.9,0.6c0.9,0.8,1.6,1.3,2.2,1.8c4.7,3.8,9.4,7.6,14,11.5
		c15.9,13.5,29.8,28.7,40.8,46.5c3.4,5.6,6.6,11.3,9.9,17c1.3,2.2,1.3,2.3,3.6,1.7c10.2-2.4,20.6-4.3,31-5.6
		c11.6-1.4,23.2-2.2,34.8-2.3c10.3,0,20.5,0.3,30.8,0.9c11.7,0.6,23.4,1.6,35.1,2.5c12.5,1,25,2.8,37.4,5c0.6,0.1,1.3,0,2.1,0
		c0.1-1,0.1-1.8,0.2-2.7c0.5-26.9,1-53.8,1.5-80.7c0.1-2.8-0.2-5.7,0.2-8.5c0.2-1.8,0-3.4-0.5-5c-4.4-15.4-6.5-31.2-7.5-47.1
		c-0.5-9.1-0.3-18.3,0.2-27.4c0.5-8.7,1.9-17.3,5-25.5c0.6-1.7,1.6-3.1,3.2-3.9c2.7-1.4,5.4-2.8,8.2-3.8c8.3-3,16.8-5,25.5-6.7
		c0.8-0.2,1.6-0.4,2.5-0.6c-0.2-1.7-0.5-3.1-0.6-4.6c-0.2-1.7,0.4-2.5,2-3.1c0.6-0.2,1.2-0.4,1.8-0.4c5.5-0.5,11-1.3,16.5-1.4
		c7.8-0.2,15.7,0,23.5,0c1.1,0,2.2,0.1,3.4,0.2c1.7,0.2,2.2,0.8,2.5,2.5c0.2,1.4,0.4,2.9,0.4,4.4c0,1.4,0.7,1.8,2,2.1
		c8,1.6,16,3.4,24,5.1c5.3,1.2,10.3,3.5,15.3,5.6c1.1,0.4,1.9,1,2,2.4c0.1,1.3,0.3,2.5,0.6,3.8c3.7,12.7,5.7,25.7,6.4,38.9
		c0.7,11.3,0.3,22.6-1.1,33.8c-1.1,8.4-2.4,16.9-3.8,25.3c-0.3,1.8-0.3,3.6-0.1,5.4c0.3,2.1,0.6,4.3,0.9,6.4
		C472.8,203.1,473.5,208.1,474.3,213.8z M229,470.6c1.1,0.5,2,0.8,2.9,1.2c4.8,2.3,9.9,4.2,14.4,6.9c17.1,10.2,32.4,22.6,45.4,37.7
		c9.2,10.6,17.2,22,22.7,35c0.8,2,1.6,4,2.1,6.1c0.4,1.7,0.6,3.6,0.4,5.3c-0.3,2.4-2.3,3.8-4.7,3.2c-2-0.5-4-1.2-5.8-2.1
		c-2.8-1.3-5.5-2.9-8.2-4.4c-0.7-0.4-1.5-0.7-2.8-1.4c0.8,1.8,1.4,3,1.8,4.3c0.7,1.9,1.5,3.9,1.8,5.9c0.4,2.7-0.9,4.2-3.6,4.6
		c-0.4,0.1-0.8,0.2-1.2,0.3c0.9,3.8,1.9,7.5,1,11.1c-0.9,3.5-2.2,7-3.3,10.5c0,0,0.2,0.2,0.3,0.2c0.2,0.1,0.5,0.1,0.8,0.1
		c138.7,0,277.3,0,416,0c0.5,0,1-0.1,1.5-0.2c0.1,0,0.2-0.1,0.2-0.1c0.1-0.1,0.1-0.1,0.4-0.4c-0.1-0.6-0.1-1.5-0.2-2.3
		c-0.6-5.1,0.4-9.6,4.4-13.1c1.2-1.1,2.5-2.1,3.9-2.9c2.6-1.4,5.2-2.6,7.8-3.9c0.7-0.4,1.5-0.7,2.4-1.1c-1.8-4,0.4-6.9,2.3-10
		c-0.5-0.2-0.8-0.3-1-0.3c-2.2-0.4-2.6-0.6-2.3-2.8c0.3-2.1,0.7-4.3,1.5-6.2c2.3-5.7,5.8-10.6,10.2-14.8c4.4-4.3,9.3-8,14.7-10.9
		c5.4-2.9,10.9-5.6,16.3-8.4c0.6-0.3,1.1-0.7,1.7-1.1c-1.6-0.6-3-1-4.3-1.7c-2.8-1.5-3.4-4.3-1.5-6.8c1-1.3,2.2-2.5,3.6-3.3
		c2.6-1.4,5.4-2.5,8.2-3.8c0.5-0.2,1-0.5,1.6-0.8c-0.8-1-1.5-1.7-2.1-2.5c-3.2-4.2-2-8,2.9-9.7c0.6-0.2,1.3-0.3,2-0.5
		c0.4-0.1,0.7-0.3,1.4-0.6c-1.5-1.4-2.5-3.1-4.5-3.7c-1.2-0.4-1.6-1.4-1.4-2.5c0.1-0.7,0.6-1.5,1.1-1.8c1-0.6,1.8,0.2,2.5,0.9
		c0.2,0.2,0.5,0.5,0.7,0.7c1.7,1.7,3.4,3.4,5.1,5.1c0.9,0.9,1.9,1.3,3.2,1.3c2.7-0.1,5.3,0,8,0c0.8,0,1.6-0.1,2.7-0.1
		c-0.5-1-0.9-1.6-1.2-2.4c-0.7-2.1-1.6-4.2-1.9-6.4c-0.8-5.9,4.1-9.9,9.8-8.3c1,0.3,2,0.6,2.9,1c2.1,0.9,4.1,1.9,6.1,2.8
		c0.6,0.3,1.2,0.4,2,0.7c0.1-0.8,0.1-1.3,0.1-1.8c-0.3-5.2-0.5-10.3-0.8-15.5c-0.1-1.2,0-2.4,0.2-3.6c0.1-0.5,0.9-1.1,1.4-1.2
		c0.5,0,1.2,0.6,1.5,1.1c0.3,0.6,0.2,1.3,0.2,2c0.3,6.3,0.5,12.6,0.8,18.9c0,0.7,0.1,1.8,0.5,2.2c1.2,1,2.5,2.1,4.6,2.1
		c0-1.4,0-2.7,0-4c0-34.7,0-69.3,0-104c0-0.6,0-1.2,0-1.8c-0.1-2.5,0-2.6-2.4-3.1c-2.8-0.7-5.7-1.1-8.6-1.9
		c-11.9-3.2-23.9-5.3-36.2-5.6c-11.5-0.4-23.1,0.1-34.6,0.5c-9.8,0.3-19.6,0.9-29.4,1.4c-6.9,0.3-13.8,0.4-20.7,0.7
		c-13,0.4-26,1.2-39,1.3c-29.1,0.3-58.1,0.4-87.2,0.6c-15.3,0.1-30.7,0.1-46,0.2c-3.2,0-5.3,1.6-6.4,4.9c2.1,0.8,4.2,1.4,6.3,2.3
		c1.4,0.6,3.1,1.2,3,3.1c-0.1,2.1-1.9,2.5-3.4,3c-8.5,2.8-17.1,4.6-26,5.1c-6.5,0.4-12.9,0.4-19.4,0.6c-5.2,0.2-10.3,0.4-15.5,0.5
		c-2.7,0-4.9-0.9-6.2-3.5c-0.4-0.9-1.1-1.2-2.1-1.2c-2.5,0-5-0.2-7.5,0.1c-6.4,0.7-12.8,1.6-19.2,2.2c-4.1,0.4-8.2,0.6-12.4,0.8
		c-1.7,0.1-3.1-0.6-4.5-1.7c-2-1.5-2.9-3.6-3.2-6.2c-1,0-2-0.1-2.9,0c-5.8,0.4-11.5,0.8-17.3,1.1c-4.1,0.2-8.3,0.5-12.4,0.5
		c-6.7,0-13.5,0.3-20.1-0.3c-9.7-1-19.3-2.7-28.9-4.2c-9-1.4-18-2.9-27-4.5c-8-1.4-16-2.7-23.8-4.6c-9.5-2.3-18.9-5.2-28.4-7.7
		c-12.8-3.4-25.7-5.8-38.7-7.7c-7.8-1.1-15.7-1.9-23.6-2.8c-5.5-0.6-11-1-16.5-1.4c-0.4,0-0.8,0.1-1.6,0.2c1.1,0.8,1.8,1.2,2.5,1.7
		c4.1,2.8,8.2,5.4,12.2,8.3c10,7.2,18.9,15.5,26.3,25.4c1.4,1.8,2.7,2.7,5,2.1c0.8-0.2,1.7-0.1,2.6-0.1c7.7-0.4,15.3-0.9,23-1.3
		c0.5,0,1.1-0.2,1.5,0.1c0.5,0.3,1.2,0.9,1.3,1.4c0,0.5-0.5,1.2-1,1.5c-0.5,0.3-1.3,0.4-2,0.5c-3.6,0.2-7.2,0.4-10.8,0.6
		c-4.3,0.2-8.6,0.4-12.9,0.6c-0.6,0-1.2,0.3-1.8,0.4c0.1,0.5,0.1,0.7,0.1,0.8c2.5,4,5,8.1,7.5,12.1c0.6,1,1.5,1.3,2.6,1.3
		c2.8,0.1,5.5,0.3,8.2,0.6c1.1,0.1,2.2,0.4,3.2,0.9c1,0.5,1.3,1.8,0.7,2.7c-0.6,1-1.4,1-2.4,0.5c-2.9-1.4-6.1-1.2-9.2-1.2
		c0,0.6-0.1,0.7,0,0.9c0.4,0.8,0.7,1.6,1.1,2.3c4.7,9.1,8.4,18.5,10.4,28.6c0.2,1.2,0.4,2.4,0.4,3.6c-0.1,2.1-1.1,3-3.1,3
		c-0.9,0-1.9-0.2-2.8-0.4c-4.9-1-9.8-2.1-14.7-3.1c-0.7-0.1-1.4,0-2.1,0c2.7,2.4,5.5,4.4,8.3,6.4c4,2.8,4.1,2.9,1.4,7.1
		c-1,1.6-1.1,3.1,0.1,4.6c1.5,1.9,3,3.7,4.5,5.6c1.2,1.5,2.6,3,3.6,4.7C232.3,466.3,232,468,229,470.6z M1.8,449.9
		c0.9-0.5,1.7-0.9,2.3-1.4c2.8-2.1,5.6-4.3,8.4-6.5c0.7-0.6,1.5-1.2,2.4-1.5c0.5-0.2,1.5,0.1,1.8,0.6c0.3,0.4,0,1.2-0.2,1.8
		c-0.1,0.3-0.6,0.6-1,0.8c-4.2,3.2-8.3,6.4-12.6,9.5c-1,0.7-1.6,1.5-1.5,2.7c0,0.7,0,1.4,0,2.1c0,44.2,0,88.5,0,132.7
		c0,4.9,0.1,4.3,4.4,4.3c92.4,0,184.9,0,277.3,0c0.9,0,1.8,0.1,2.6-0.1c0.7-0.2,1.5-0.5,1.9-1c3.4-4.7,5.4-9.8,4.3-15.7
		c-0.5-2.5-1.5-4.9-2.2-7.4c-0.3-0.9-0.6-2,0.4-2.6c0.6-0.3,1.6-0.1,2.4,0c1,0.3,2,0.7,3.3,1.3c0-2.3-0.7-4-1.4-5.6
		c-1.1-2.5-2.4-5-3.6-7.4c-0.5-1-0.8-2,0-2.9c0.9-1,2-0.7,3.1-0.3c1,0.5,2,1,3,1.5c3.9,2.1,7.9,4.3,11.8,6.4
		c1.4,0.7,2.9,1.4,4.9,1.3c0-1,0.2-2,0-2.8c-0.6-2.2-1.2-4.5-2.1-6.6c-2.8-6.8-6.4-13.2-10.5-19.3c-14.3-21.1-32.7-37.7-54.2-51.1
		c-7.8-4.9-16.2-8.5-25.1-10.7c-0.5-0.1-1-0.2-1.5-0.4c-0.9-0.3-1.5-0.9-1.4-1.9c0-1,0.7-1.5,1.7-1.7c1.3-0.2,2.6-0.2,3.9-0.4
		c1.2-0.2,2.5-0.4,3.9-0.7c-0.3-0.9-0.4-1.5-0.7-2c-0.9-1.3-1.9-2.5-2.9-3.7c-1.7-2.1-3.6-4.2-5.2-6.4c-1.9-2.5-2-5.2-0.2-7.9
		c0.4-0.5,0.6-1.2,0.9-1.8c-0.8-0.6-1.5-1.1-2.2-1.6c-3.1-2.2-6.1-4.4-9.2-6.7c-0.9-0.7-1.7-1.5-2.3-2.4c-1-1.6-0.2-3.2,1.6-3.4
		c0.9-0.1,1.9-0.1,2.8,0.1c5.8,1.1,11.7,2.3,17.5,3.4c1,0.2,2,0.4,3,0.5c0.2-0.4,0.3-0.7,0.3-0.9c-0.1-0.7-0.1-1.4-0.3-2
		c-2.3-10.8-6.6-20.8-11.7-30.5c-0.7-1.4-1.7-1.9-3.3-1.9c-3.7,0.1-7.4,0-11.1,0c-0.6,0-1.3,0.1-1.8-0.1c-0.5-0.2-1.2-0.8-1.1-1.1
		c0-0.5,0.5-1.3,1-1.5c0.9-0.3,1.8-0.4,2.8-0.4c2.5-0.1,5-0.1,7.5-0.1c0.8,0,1.7-0.1,2.8-0.1c-0.4-0.8-0.5-1.4-0.8-1.9
		c-2.2-3.4-4.4-6.8-6.5-10.2c-0.8-1.2-1.7-1.7-3.2-1.6c-3.7,0.2-7.4,0.3-11.1,0.3c-1,0-2.1,0-3-0.3c-0.5-0.2-1.1-1-1-1.5
		c0-0.5,0.8-0.9,1.3-1.3c0.2-0.2,0.7-0.1,1-0.1c3.2-0.1,6.4-0.3,9.6-0.4c0.7,0,1.5-0.1,2.7-0.3c-0.8-1-1.3-1.8-1.9-2.5
		c-5.2-6.5-11.1-12.3-17.5-17.6c-9-7.3-18.8-13.4-28.7-19.4c-5.9-3.6-11.6-7.5-17.3-11.3c-0.9-0.6-1.7-1.2-2.3-2
		c-1.4-1.6-1-3.1,0.9-3.9c0.4-0.2,0.8-0.3,1.2-0.4c4.2-1.3,4.4-1.6,2.2-5.4c-1.4-2.5-0.9-3.6,1.8-4.2c2.5-0.5,5.1-0.9,7.6-1.5
		c1.1-0.2,2.2-0.5,2.9-2.1c-0.9-1.1-1.8-2.5-3-3.6c-4.4-3.9-8.9-7.7-13.3-11.5c-0.8-0.7-1.7-1.4-2.5-2.2c-0.7-0.7-1.1-1.6-0.6-2.6
		c0.5-1,1.5-1.2,2.4-0.9c1.8,0.4,3.5,0.9,5.3,1.4c7.1,2.1,14.2,4.2,21.3,6.2c0.9,0.3,2,0.2,3.4,0.4c-0.6-1.4-0.9-2.3-1.4-3.2
		c-2.4-4.5-4.9-8.9-7.3-13.4c-15.7-30-38.9-53.3-65.8-73.3c-0.9-0.6-1.7-1.1-2.8-0.9c-4.6,0.7-9.2,1.4-13.8,2
		c-0.7,0.1-1.4,0.3-2,0.4c-0.9,0-1.7-0.3-1.7-1.2c0-0.6,0.5-1.4,1-1.8c0.4-0.4,1.1-0.4,1.7-0.5c1.5-0.3,3.1-0.5,4.6-0.7
		c2.3-0.4,4.7-0.7,7.5-1.1c-0.9-0.7-1.3-1.1-1.8-1.5c-3.4-2.3-6.8-4.7-10.3-7c-5-3.3-5-3.2-11-3.1c-4.2,0.1-8.4,0-12.7,0
		c-0.5,0-1,0-1.5-0.1c-1-0.1-2-0.5-1.9-1.7c0-1.2,1-1.5,2-1.5c0.9,0,1.9,0.2,2.8,0.2c3,0,6,0,9,0c0.5,0,1-0.3,1.8-0.5
		c-0.6-0.4-0.8-0.7-1.1-0.8c-4.7-2.2-9.4-4.3-14.1-6.5c-0.8-0.4-1.6-0.6-2.4-0.9c-1.1-0.5-2-1.1-2-2.4c0-1.3,1-1.9,2.1-2.4
		c0.8-0.3,1.6-0.6,2.4-0.8c2.3-0.8,4.6-1.4,6.9-2.3c0.9-0.3,1.7-1,2.6-1.5c-0.7-2-2.2-3-3.6-4c-6-4.3-12.8-7.1-19.8-9.4
		c-1.9-0.6-3.6-0.7-5.5-0.2c-2.9,0.8-5.9,1.4-8.8,1.9c-1.4,0.2-2.3-0.5-2.3-1.5c0-1.2,0.9-1.5,1.9-1.7c1.5-0.3,3-0.6,4.5-0.9
		c0-0.2,0-0.3,0-0.5c-1.5-0.3-3-0.6-4.5-0.9c-1.8-0.3-3.6-0.5-5.4-0.8c-1-0.2-2-0.6-2.2-1.9c-0.2-1.2,0.6-1.9,1.5-2.5
		c0.9-0.5,1.9-0.9,2.8-1.3c5-2.2,9.9-4.4,14.9-6.7c0.6-0.3,1.1-0.6,1.7-1c-0.2-0.2-0.2-0.3-0.3-0.3c-9.9-0.2-19.8-0.4-29.7-0.6
		c-1.2,0-1.7,0.6-1.8,1.7c0,1.2-0.1,2.4-0.1,3.6c0,100.9,0,201.8,0,302.7c0,0.9,0,1.9,0,2.8C1.4,448.6,1.6,449,1.8,449.9z
		 M505.4,355.4c1-0.1,1.8-0.1,2.6-0.1c1.9-0.1,3.8-0.4,5.7-0.3c3.1,0.1,6.2,0.5,8.1,3.6c0.2,0.4,1,0.6,1.6,0.6
		c0.8,0.1,1.7,0.1,2.6,0c21.4-0.2,42.8-0.4,64.2-0.5c21.6-0.1,43.1-0.1,64.7-0.2c3.2,0,3.8,0.8,3.8-3.9c-0.3-33.1-0.5-66.2-0.8-99.3
		c0-5.3-0.1-10.5-0.1-15.8c0-1.4-0.4-2.3-1.8-2.7c-0.5-0.2-1-0.4-1.4-0.6c-13.8-5.8-27.7-11.6-41.5-17.3c-26-10.9-52-21.7-78-32.6
		c-1.7-0.7-3-1.1-4.8,0c-28.6,16.2-57.2,32.3-85.8,48.4c-1.7,1-2.5,2-2.3,4c0.7,13.8,1.2,27.6,1.9,41.3c0.4,10.1,0.9,20.2,1.3,30.2
		c0.3,6.4,0.6,12.7,0.9,19.1c0,0.8,0.1,1.6,0.4,2.2c1.1,1.7,2.3,3.4,3.6,5.1c1-0.4,2-0.8,2.9-1.2c2.2-0.8,4.5-1.3,6.8-0.8
		c2.9,0.6,4.1,2.3,3.7,5.2c-0.2,1.1-0.5,2.2-0.7,3.3c-0.3,1.8-0.5,3.5-0.8,5.4c2.2,0.8,4.1,1.5,6.1,2.3c1.6-2.1,3.8-2.7,6.2-2.4
		c1.6,0.3,2.8-0.2,4.1-1c4.1-2.8,8.4-5.4,13.2-7.1c1.7-0.6,3.5-0.9,5.3-1c2.7-0.1,4.6,1.3,5.6,3.8c0.7,1.7,1.2,3.6,1.6,5.4
		C504.6,350.6,504.9,352.9,505.4,355.4z M343.8,189.4c1.2,0,2.4,0,3.6,0c12.3-0.4,24.6-0.7,37-1.1c7.9-0.2,15.9-0.4,23.8-0.6
		c13.3-0.4,26.5-1,39.8-1.4c5.7-0.2,11.4-0.1,17-0.1c2.1,0,2.2-0.1,2.7-2c2.5-11.5,4.4-23.2,5.1-35c0.8-12.6,0.3-25.2-1.5-37.7
		c-1.2-8.1-2.9-16.1-5.2-24c-0.5-1.8-1.5-2.8-3.3-3.6c-4.6-2-9.3-3.5-14.2-4.8c-11.2-3-22.5-5.2-34-5.9c-16.8-1-33.4,0.4-49.7,4.6
		c-6.2,1.6-12.4,3.7-18.5,5.6c-4,1.2-6.2,3.9-7.3,7.9c-2,7.2-3.2,14.5-3.6,21.9c-0.8,14.7-0.4,29.3,1.5,43.9
		c1.3,10.2,3.3,20.2,6.1,30.1C343.3,187.9,343.5,188.5,343.8,189.4z M254.2,286.9c1.5,1.3,1.8,2.9,2.4,4.4
		c8.6,21.3,16.6,42.7,22.1,65.1c0.4,1.6,1.2,2.4,2.7,2.6c2.9,0.5,5.7,1.1,8.6,1.6c9.3,1.5,18.7,3.1,28,4.6c2.2,0.3,4.3,0.6,6.5,1
		c0.1-0.5,0.2-0.7,0.1-0.8c-0.2-0.8-0.4-1.7-0.6-2.5c-4.9-16.5-10.7-32.8-17.9-48.5c-2.7-6-5.5-11.9-8.3-17.8
		c-0.3-0.7-1-1.5-0.1-2.4c1.5,0.5,1.7,1.9,2.3,3c10.5,21.3,19.4,43.3,26,66.1c0.3,1.1,0.7,2.3,1.1,3.5c3.1,0.5,6.1,1,9.3,1.5
		c0.1-0.8,0.3-1.2,0.3-1.6c0.2-6.2,0.3-12.4,0.4-18.6c0-1.1-0.3-2.2-0.8-3.2c-4-9-7.8-18-12-26.9c-3.5-7.3-7.4-14.4-11-21.6
		c-0.2-0.4-0.1-0.9-0.2-2c1,0.7,1.6,1,1.9,1.4c0.7,0.9,1.2,1.9,1.7,2.9c7,13.1,13.1,26.6,19,40.2c0.3,0.8,0.7,1.5,1,2.2
		c0.2,0,0.3-0.1,0.5-0.1c0-1.9,0-3.9,0-5.8c0.3-15,0.6-30,0.8-45c0-2.3,0-2.4-2.4-2.8c-7.4-1.2-14.8-2.5-22.2-3.4
		c-7.2-0.9-14.4-1.6-21.6-2.2c-9.4-0.8-18.7-1.4-28.1-2c-5-0.3-10-0.3-15-0.7c-10.5-0.7-21-0.2-31.5,0.4c-8.2,0.4-16.5,1.3-24.7,2.5
		c-8.2,1.2-16.2,3-24.4,4.6c-0.6,0.1-1.2,0.5-1.9,0.8c0.6,1.2,1.2,2.2,1.7,3.2c0.7,1.5,1.5,2.9,2.1,4.5c0.9,2.7-0.3,4.4-3.1,4.5
		c-1.3,0-2.6-0.1-3.8-0.4c-6-1.6-11.9-3.4-17.9-5.1c-0.8-0.2-1.5-0.4-2.3-0.6c0.5,0.9,1.1,1.5,1.8,2c3,2.7,6.1,5.3,9,8.1
		c1.1,1.1,2.1,2.3,2.8,3.7c1.3,2.5,0.7,4.6-1.8,5.9c-1.1,0.6-2.4,1-3.6,1.3c-1.9,0.5-3.8,0.8-5.9,1.3c0.6,2,1.8,3.7,0.9,5.8
		c-0.9,2.1-3.1,2.5-4.7,3.7c2.7,2.8,13,9.4,15.4,9.9c-0.3-0.8-0.5-1.5-0.8-2.2c-1.1-2.8-2.3-5.6-3.4-8.4c-0.2-0.5-0.2-1.2-0.4-2.1
		c1.5,0.5,1.7,1.5,2.1,2.3c1.5,3.6,3,7.2,4.5,10.7c0.3,0.7,0.9,1.7,1.5,1.9c2,0.7,4.2,0.6,6.4,0.2c-0.1-0.9-0.2-1.6-0.3-2.2
		c-0.8-3.3-1.5-6.6-2.5-9.8c-2.1-6.8-4.3-13.5-6.5-20.2c-0.3-0.8-1-1.6,0-2.6c1.4,1.1,1.7,2.7,2.2,4.1c3.5,9.4,6.3,19,8.6,28.7
		c0.6,2.6,0.8,2.6,3.2,2.8c10.3,1,20.6,2,30.9,3c0.8,0.1,1.6,0,2.6,0c-0.2-1-0.3-1.7-0.5-2.4c-3.9-13.9-7.8-27.7-11.7-41.6
		c-0.3-1.2-0.8-2.3-1-3.5c-0.1-0.5,0.2-1,0.3-1.5c0.2,0,0.4-0.1,0.6-0.1c0.4,0.9,0.9,1.8,1.1,2.7c3,10.3,6,20.7,8.9,31.1
		c1.3,4.5,2.6,8.9,3.7,13.5c0.5,1.9,1.5,2.5,3.2,2.8c2.2,0.3,4.4,0.7,6.6,1c0.6,0.1,1.3,0,2.3,0c-0.3-1.4-0.5-2.4-0.8-3.5
		c-4.1-15.5-8.5-30.9-13.8-46c-0.3-0.8-0.8-1.6,0-2.5c1.1,0.2,1.3,1.3,1.6,2.1c1.3,3.7,2.7,7.4,3.9,11.2
		c3.6,12.2,7.1,24.5,10.6,36.8c0.4,1.5,0.7,2.7,2.6,3c12.4,2.1,24.6,5.1,36.7,8.6c0.6,0.2,1.3,0.2,2.2,0.3c-0.3-1.3-0.5-2.3-0.8-3.3
		c-2.8-9.4-5.5-18.9-8.5-28.2c-2.7-8.3-5.8-16.4-8.7-24.6c-0.7-1.8-1.7-3.6-2.6-5.3c-0.3-0.7-0.8-1.4,0.6-2.1
		c0.5,0.8,1.2,1.5,1.6,2.4c2.3,5.5,4.7,10.9,6.7,16.5c5,14.2,9.5,28.6,13.3,43.2c0.4,1.6,1.2,2.5,2.8,2.9c2.9,0.7,5.8,1.6,8.7,2.4
		c0.7,0.2,1.4,0.1,2.4,0.2c-0.3-1.2-0.5-2.2-0.7-3.1c-3.8-14.7-8.6-29.1-14-43.3c-2.7-7.1-5.5-14.2-8.2-21.2
		C254,289.1,253.2,288.2,254.2,286.9z M828.5,242c0-1.2,0-2.3,0-3.4c0-10.6,0-21.2,0-31.8c0-2.2,0-4.5,0-6.7
		c-0.1-2.2-0.4-2.5-2.6-2.7c-7.7-0.6-15.5-1.1-23.2-1.7c-5-0.4-10-0.7-14.9-1.1c-8.5-0.7-17-1.3-25.5-2c-5.1-0.4-10.1-0.7-15.2-1.1
		c-8.2-0.6-16.3-1.3-24.5-1.9c-5.3-0.4-10.7-0.8-16-1.2c-7.7-0.6-15.4-1.3-23.2-1.9c-5.8-0.4-11.5-0.8-17.3-1.2
		c-8.5-0.6-17-1.3-25.5-2c-5.1-0.4-10.1-0.7-15.2-1.1c-8.2-0.6-16.5-1.3-24.7-1.9c-5.2-0.4-10.5-0.8-15.7-1.2
		c-8.5-0.6-17-1.3-25.5-2c-5.1-0.4-10.1-0.8-15.2-1.1c-6.7-0.5-13.4-1-20.1-1.5c-0.6,0-1.3,0.1-1.9,0.2c0,2.2,0,4.2,0,6.3
		c1.6,0.1,3.1,0.2,4.5,0.2c3.3,0.1,6.4,0.7,9.5,2c40.3,16.9,80.7,33.8,121.1,50.7c2.1,0.9,4.3,1.3,6.5,1.4
		c8.2,0.4,16.4,0.7,24.5,1.1c7.6,0.3,15.1,0.7,22.7,1c13.3,0.6,26.7,1.1,40,1.7c12,0.5,23.9,1,35.9,1.6c5,0.2,10,0.4,15,0.6
		c5.1,0.2,10.1,0.6,15.2,0.8C820.9,242.1,824.5,242,828.5,242z M824,480.5c-0.1,1-0.1,1.7-0.1,2.3c0.1,2.6,0.3,5.2,0.4,7.7
		c0,1.4,0.1,2.8-0.1,4.1c-0.2,1.3-1.2,2-2.1,1.8c-1.2-0.3-1-1.3-1.1-2.3c-0.2-4.8-0.4-9.6-0.6-14.5c-0.1-1.2-0.7-1.8-1.8-2.3
		c-2.6-1.2-5.1-2.5-7.7-3.6c-1-0.5-2.1-0.9-3.2-1.2c-3.2-0.8-5.4,1.1-5.5,4.4c0,0.6,0.1,1.2,0.2,1.8c0.6,2.9,1.8,5.4,4,7.4
		c0.7,0.7,1.2,1.5,0.9,2.5c-0.4,1.2-1.5,1.4-2.5,1.4c-0.6,0-1.2,0-1.8,0c-2.2,0-4.3-0.1-6.5-0.1c-0.8,0-1.6,0.1-2.9,0.1
		c0.7,0.8,1,1.3,1.4,1.6c2.6,2.1,5.3,4.2,8,6.2c0.8,0.6,1.6,1.1,1.2,2.3c-0.3,0.9-1.4,1.1-2.7,0.4c-1.2-0.6-2.4-1.4-3.5-2.2
		c-2.8-2.3-5.5-4.7-8.3-7c-0.6-0.5-1.2-1.1-1.9-1.2c-2.3-0.2-4.5,0.2-6.5,1.2c-1.5,0.7-1.8,1.8-0.8,3.2c0.9,1.3,2.1,2.5,3.3,3.6
		c0.6,0.6,1.5,0.9,2.2,1.4c1.4,1,1.3,2.5-0.4,3.1c-0.6,0.3-1.3,0.3-2,0.4c-4.6,0.9-9,2.4-12.7,5.5c-0.7,0.5-1.4,1.7-1.2,2.3
		c0.1,0.7,1.3,1.1,2.1,1.6c0.4,0.2,0.8,0.2,1.3,0.3c1.5,0.2,3.1,0.4,4.6,0.5c1.1,0.1,2.2,0.2,2.5,1.4c0.3,1.2-0.5,1.9-1.4,2.5
		c-1.1,0.7-2.2,1.4-3.4,1.9c-4.9,2.5-9.9,4.9-14.8,7.4c-6.8,3.5-13,7.7-18.5,13.1c-4,3.9-7.1,8.5-9.2,13.6c-0.4,1.1-1.1,2.1-0.4,3.6
		c1.2-0.4,2.4-0.7,3.5-1c0.9-0.2,1.9-0.5,2.6,0.5c0.8,1.1,0.1,2-0.6,2.8c-0.4,0.5-0.9,0.8-1.2,1.3c-1.2,1.5-2.4,3-3.4,4.5
		c-0.8,1.1-1.8,2.5-0.8,3.8c0.9,1.3,2.5,0.9,3.8,0.6c1.3-0.3,2.7-0.5,4.1-0.6c1-0.1,1.8,0.4,1.8,1.4c0,0.6-0.6,1.4-1.2,1.8
		c-0.7,0.4-1.6,0.6-2.5,0.7c-6.6,0.7-12.4,3.4-18,6.7c-1,0.6-2,1.4-2.9,2.2c-3.4,2.9-4.7,7.6-2.5,13.5c6.8,0.6,110.5,0.5,113.1-0.2
		c0.1-1,0.2-2.1,0.2-3.2c0-35.2,0-70.4,0.1-105.6c0-2.5-0.9-3.9-3-4.7C825.2,481,824.8,480.8,824,480.5z M700.2,357
		c0.1-1.1,0.2-1.9,0.2-2.6c-0.1-3.9-0.3-7.8-0.4-11.6c-0.6-22.7-1.1-45.5-1.6-68.2c0-1.4,0.2-2.7,0.5-4.1c0.4-1.7,1-2.1,2.8-1.9
		c3,0.3,6,0.7,9,1c10.4,1.1,20.9,2.3,31.4,2.4c0.9,0,2-0.1,2.8,0.2c2.8,1,5.8,0.7,8.7,0.9c8.9,0.5,17.9,1,26.8,1.4
		c9.1,0.4,18.3,0.7,27.4,1.3c6,0.4,12,0.5,18-0.6c2.7-0.5,2.8-0.5,2.8-3.3c0-7.8,0-15.5,0-23.3c0-0.8-0.1-1.7-0.2-2.7
		c-1.3-0.2-2.5-0.4-3.7-0.5c-7.7-0.4-15.5-0.7-23.2-1c-11.9-0.5-23.8-1-35.6-1.6c-7.8-0.3-15.7-0.7-23.5-1
		c-11.8-0.5-23.6-1.1-35.4-1.5c-10.3-0.4-20.7-0.8-31-1.2c-0.9,0-1.9-0.2-2.8-0.2c-3.9,0-7.7,0-11.9,0c-0.1,1-0.2,2.1-0.2,3.2
		c0.1,18.8,0.3,37.6,0.4,56.4c0.1,18.8,0.3,37.6,0.5,56.4c0,1,0.1,2,0.2,3.3C674.9,357.8,687.3,357.4,700.2,357z M804.8,357.1
		c0.7-2.1,0.5-75.1-0.3-77.6c-18.8-1.1-37.6-2-56.7-2.9c0.1,1.3,0.1,2.1,0.2,2.9c1.5,10.4,2.1,20.9,2.4,31.4
		c0.4,13.2,0.4,26.4,0.6,39.6c0,0.7,0,1.4,0,2.1c0.1,2,0.3,2.1,2.4,2.2c0.5,0,1,0,1.6,0c7.3-0.2,14.6-0.4,22-0.4
		c8.3,0,16.5,1,24.7,2.4C802.6,356.9,803.7,357,804.8,357.1z M703.8,356.8c1.5,0,2.6,0,3.7,0c11.8-0.5,23.6-1,35.4-1.5
		c1.5-0.1,3-0.3,4.8-0.5c0-1.3,0-2.3,0-3.4c-0.1-7.3,0-14.7-0.2-22c-0.4-17-0.6-34-2.9-50.8c-0.1-1-0.4-2-0.5-2.8
		c-14.2-1.2-28.1-2.4-42.5-3.6C702.1,300.5,702.7,328.5,703.8,356.8z M343.2,208.1c0.8,0.3,1.5,0.6,2.3,0.8
		c21.4,5.7,42.7,11.4,64.1,17.1c1.5,0.4,2.8,0.3,4.2-0.4c8.6-3.9,17.3-7.7,26-11.5c9.1-4,18.1-8,27.2-12c2-0.9,2.1-0.9,1.8-3.1
		c-0.3-2.5-0.6-5-1-7.4c-0.3-2.2-0.4-2.3-2.6-2.2c-4.6,0.1-9.3,0.3-13.9,0.4c-11.6,0.3-23.2,0.7-34.9,1c-12.6,0.4-25.1,0.7-37.7,1.1
		c-9.6,0.3-19.1,0.4-28.7,0.7c-1.5,0-3.1,0.2-4.6,0.4c-1,0.1-2.1,0.5-2.1,1.8C343.2,199.3,343.2,203.6,343.2,208.1z M350.4,257.3
		c0.7,0.4,1,0.6,1.3,0.7c18.4,6.1,36.8,12.2,55.2,18.3c1.7,0.6,3.1,0.5,4.8,0c8.5-2.8,17-5.6,25.5-8.3c2.6-0.9,2.7-0.9,2.6-3.6
		c-0.3-8.4-0.7-16.7-1.1-25.1c-0.1-2-0.2-2.1-2.4-2.7c-7.2-1.9-14.3-3.8-21.5-5.7c-2-0.5-3.6-0.4-5.5,0.4
		c-18.9,8.4-37.8,16.7-56.7,25C352,256.5,351.4,256.8,350.4,257.3z M411.5,357.6c1.3,0.2,2.2,0.3,3.1,0.4c0.9,0.1,1.9,0,2.8,0.1
		c1.7,0.3,2.2,1.7,1.1,3.1c-0.3,0.4-0.8,0.7-1.2,1c-3.1,2.6-4.7,6.1-5.7,9.9c-0.6,2.5,1.2,4.8,3.8,5.1c0.8,0.1,1.6,0.1,2.3,0
		c5.4-0.4,10.8-0.8,16.2-1.4c7-0.8,14-2.1,21.1-1.8c0.4,0,0.9-0.2,1.7-0.3c-0.6-0.4-0.8-0.7-1.1-0.8c-2.9-1.6-3.6-3.1-3.1-6.3
		c0.4-2.7,1.7-4.9,3.6-6.7c2.2-1.9,4.6-3.6,6.9-5.4c0.5-0.4,1-0.8,1.9-1.4c-1.5-0.4-2.5-0.8-3.6-1c-2.5-0.6-3-1.2-2.7-3.8
		c0.3-2.6,0.9-5.3,1.3-7.9c0.3-2-0.3-2.9-2.3-2.6c-1.8,0.3-3.5,0.8-5.2,1.5c-4.1,1.8-4,1.8-6.3-2.1c-2.2-3.8-5.1-7-9.3-8.6
		c-4.1-1.5-8.4,0.9-9.3,5.2c-0.5,2.2-0.3,4.4,0.4,6.6c0.8,2.5,0.5,3.1-2,4c-1.8,0.7-3.7,1.4-5.5,2.2c-0.8,0.4-1.4,1-2.4,1.8
		c0.9,0.3,1.3,0.5,1.7,0.6c0.8,0.2,1.5,0.8,1.3,1.6c-0.2,0.6-0.8,1.3-1.4,1.6c-0.8,0.4-1.8,0.5-2.7,0.9C415,354,413,355,411.5,357.6
		z M343.1,211.8c-0.1,1.6-0.3,2.8-0.3,4c-0.1,7.5-0.2,15-0.3,22.5c-0.1,4.8-0.2,9.7-0.3,14.5c0,2,0.8,2.8,2.8,2.8
		c0.7,0,1.3-0.2,2-0.5c1.7-0.7,3.3-1.4,5-2.2c17.2-7.6,34.4-15.1,51.6-22.7c0.8-0.4,1.6-0.8,2.3-1.2c0-0.2-0.1-0.4-0.1-0.6
		C385,222.9,364.3,217.4,343.1,211.8z M522.4,372.6c-0.9-0.5-1.4-0.9-2-1c-2.2-0.4-4.4-0.8-6.6-1c-1.1-0.1-2.1-0.2-2.5-1.4
		c-0.4-1.1,0.5-1.7,1.2-2.4c1.6-1.5,3.2-2.9,4.6-4.5c2.1-2.4,1.6-3.5-1.5-4.1c-0.6-0.1-1.2-0.2-1.8-0.2c-2.1,0.1-4.3,0.2-6.4,0.5
		c-4.9,0.6-4.8,0.6-5.6-4.3c-0.5-3.1-1.1-6.1-1.9-9.1c-0.7-2.4-1.7-3-4.3-2.7c-1.3,0.2-2.7,0.5-3.9,1.2c-4,2.1-8,4.3-11.9,6.7
		c-1.7,1-3.2,1.8-5.3,1.2c-1.3-0.4-2.4-0.1-3.2,1.5c-0.4,0.8-1.4,1.5-2.2,1.9c-3.4,1.6-6.7,3.6-9.5,6.1c-1.5,1.3-2.8,2.8-3.4,4.8
		c-0.8,2.5-0.2,3.4,2.2,4.2c0.2,0.1,0.5,0.1,0.7,0.2c2.1,0.7,2.5,1.5,1.6,3.4c-0.1,0.3-0.3,0.6-0.5,0.9c-0.9,2.3-0.2,3.7,2.3,3.9
		c1.6,0.2,3.3,0.1,4.9,0.1c8.8-0.3,17.6-0.8,26.3-1c8.9-0.2,17.6-1.8,26.2-4.2C520.6,373.4,521.3,373,522.4,372.6z M377.9,312
		c1.7-0.4,2.2,0.4,2.7,1.1c0.7,1,1.3,2,1.9,3.1c0.8,1.5,2.1,2.4,3.7,2.9c8,2.6,16.1,5.2,24.1,7.9c1.7,0.6,3.3,0.6,5-0.1
		c4.6-1.8,9.2-3.5,13.7-5.3c3.8-1.5,7.5-3,11.3-4.4c1.3-0.5,1.8-1.2,1.6-2.5c-0.1-0.7-0.3-1.3-0.4-2c-1.3-0.2-2.4-0.3-3.5-0.5
		c-3.9-0.4-7.7-0.7-11.6-1.3c-10.5-1.5-20.8-4.1-30.9-7.4c-8.9-2.9-17.9-5.7-26.9-8.5c-1.1-0.3-2.4-0.5-3.5-0.2
		c-7.4,2.3-14.8,4.7-22.1,7.2c-0.6,0.2-1.5,0.8-1.6,1.3c-0.3,1.2,0.9,1.2,1.7,1.6c0.2,0.1,0.5,0.1,0.7,0.2
		c5.2,1.7,10.3,3.4,15.5,5.1c1.2,0.4,2.6,0.4,3.6,0.5c1.7,0.8,3.2,1.7,4.7,2.2c3.3,1.2,6.7,2.3,10.1,3.3c0.8,0.2,1.6,0.4,2.7,0.7
		C379.6,315.2,378.8,313.7,377.9,312z M342.5,354.3c2.6-0.2,34-12.4,35.5-13.7c-0.1-0.2-0.1-0.5-0.2-0.7c-4-7.6-8.1-15.2-12.1-22.8
		c-0.6-1.2-1.6-1.7-2.8-2.1c-6.4-2.1-12.8-4.2-19.1-6.3c-0.6-0.2-1.3-0.3-2.3-0.5c-0.1,1-0.3,1.8-0.3,2.6
		c-0.2,12.4-0.4,24.8-0.6,37.2C340.5,350.3,341.3,352.4,342.5,354.3z M372.7,292.5c0.9,0.4,1.4,0.6,1.9,0.8
		c3.5,1.1,7.1,2.2,10.6,3.4c16.2,5.4,32.4,10.5,49.6,11.9c2.3,0.2,4.5,0.6,6.9,0.2c-0.2-5.2-0.5-10.1-0.6-15c0-2.1-0.9-3-2.8-3.6
		c-8.9-2.9-17.8-5.8-26.7-8.9c-1.7-0.6-3.3-0.6-5,0c-10.5,3.5-21.1,6.9-31.6,10.4C374.3,291.9,373.7,292.2,372.7,292.5z
		 M402.8,279.1c0-0.2,0-0.3,0-0.5c-0.9-0.3-1.8-0.7-2.8-1c-14.2-4.7-28.4-9.4-42.6-14.1c-3.5-1.2-7-2.4-10.5-3.5
		c-2.8-0.9-4.7,0.5-4.8,3.3c-0.1,4.4-0.2,8.8-0.3,13.2c-0.1,2.2,0,4.5-0.1,6.7c0,1.1,0.4,1.8,1.6,1.9c0.4,0,0.8,0.2,1.3,0.3
		c6.6,1.6,13.2,3.2,19.8,4.9c1.7,0.4,3.2,0.4,4.8-0.1c8.6-2.8,17.2-5.6,25.8-8.4C397.5,280.9,400.1,279.9,402.8,279.1z M828,278.7
		c-0.4-0.1-0.8-0.2-1.2-0.2c-2,0.2-3.9,0.4-5.9,0.8c-3.2,0.5-3.3,0.6-3.2,3.8c0.2,21.2,0.4,42.4,0.6,63.6c0,3.7,0,7.4,0.1,11.1
		c0.1,2.1,0.2,2.2,2.3,2.8c1.8,0.5,3.7,0.9,5.5,1.3c0.6,0.1,1.3,0,2,0C828.8,359.1,828.6,280.8,828,278.7z M388.4,370.5
		c-1.8-9.4-5-17.9-8.7-26.4c-12.2,4.7-24,9.2-36,13.8c1.2,4.1,2.4,8,3.5,12C360.8,371.8,374.4,371.4,388.4,370.5z M469.6,204.7
		c-17.6,7.7-34.7,15.3-52.2,23c1,0.4,1.4,0.7,1.8,0.8c5.7,1.5,11.5,3.1,17.2,4.6c1,0.3,2,0.6,2.8-0.6c0.2-0.3,0.8-0.6,1.1-0.5
		c1.7,0.4,3-0.7,4.3-1.4c4.7-2.6,9.3-5.2,14-7.9c3.6-2,7.2-4.1,10.8-6.1c1.2-0.7,1.8-1.5,1.5-2.9C470.4,210.9,470,208.1,469.6,204.7
		z M424.6,341.4c-0.2-1.7-0.5-3-0.6-4.4c-0.1-1.5-0.7-2.3-2.2-2.8c-2.5-0.7-4.9-1.5-7.3-2.4c-1.2-0.4-2.3-0.3-3.5,0.2
		c-4.8,1.9-9.6,3.7-14.4,5.6c-0.6,0.2-1.2,0.6-2,1.1c4.5,9.9,7.7,20.1,10,30.8c1.3-0.1,2.2-0.1,3.1-0.4c0.6-0.2,1.3-0.6,1.6-1.1
		c1.2-2.1,2.3-4.2,3.5-6.5c-0.9-0.3-1.8-0.5-2.7-0.8c-2.2-0.8-3-2.5-1.8-4.5c0.8-1.4,2-2.6,3.2-3.6c1.2-1,2.3-1.8,2.4-3.6
		c0.1-1.1,1.1-2.4,2.1-3.1c1.8-1.3,3.8-2.3,5.8-3.3C422.7,342,423.6,341.8,424.6,341.4z M815,359c0-1.1,0-1.9,0-2.7
		c-0.2-24.2-0.4-48.5-0.6-72.7c0-0.8,0.1-1.6-0.1-2.3c-0.1-0.4-0.6-1-0.9-1.1c-1.6-0.1-3.2-0.8-5,0.1c0,1.1,0,2.2,0,3.3
		c0.1,23.4,0.2,46.7,0.3,70.1c0,5-0.6,4.2,4.8,5.3C813.8,359.1,814.2,359,815,359z M402.7,369.3c-2.1-10.7-5.4-20.5-9.8-30.3
		c-3.8,1.5-7.5,2.9-11.4,4.4c3.8,8.9,6.9,17.7,8.9,27.1C394.5,370,398.4,370.1,402.7,369.3z M391,336.1c-0.1-0.6,0-0.9-0.1-1.1
		c-2.1-4-4.2-8.1-6.4-12.1c-0.4-0.8-1.5-1.4-2.4-1.7c-4.2-1.5-8.5-2.8-12.7-4.2c-0.4-0.1-0.9-0.1-1.4-0.1
		c4.1,7.9,8.2,15.5,12.3,23.3C383.9,338.8,387.5,337.4,391,336.1z M415.1,278.6c3.7,2,23.7,8.4,25.7,8.2c-0.2-4.9-0.4-9.8-0.7-14.7
		c0-0.5-0.4-0.9-0.7-1.5C431.3,273.3,423.3,275.9,415.1,278.6z M379.6,66.9c-0.1,0.6-0.2,0.9-0.2,1.3c0,2.2,0.5,3.5,3.5,2.9
		c2.4-0.5,4.9-0.6,7.4-0.8c9.5-0.9,19.1-0.9,28.6,0c0.8,0.1,1.5,0.1,2.3,0.1c0.8,0,1.2-0.5,1.3-1.3c0.4-2.6-0.4-3.6-3.1-3.7
		c-4.9,0-9.8-0.2-14.7-0.1c-5.7,0.1-11.3,0.3-17,0.6C385,66,382.3,66.6,379.6,66.9z M406.8,330c0-0.3,0-0.5-0.1-0.8
		c-6.4-2.1-12.9-4.2-19.3-6.3c-0.1,0.2-0.2,0.3-0.3,0.5c2,3.9,4.1,7.8,6.2,11.8C397.9,333.5,402.3,331.7,406.8,330z M342,298.9
		c6-1.9,12-3.9,17.9-5.8c0-0.2,0-0.4-0.1-0.6c-5.9-1.7-11.8-3.2-17.8-4.1C341.4,291.2,341.4,296.8,342,298.9z M442.3,320
		c-8.2,3.1-16,6.1-23.7,9.1c0,0.2,0,0.3,0,0.5c2,0.6,4,1.3,5.8,1.9c1.1-1.5,1.9-2.9,3.1-3.9c3.7-3.1,7.8-3.6,12.3-1.6
		c0.8,0.4,1.5,1.2,2.6,0.8C442.3,324.8,442.3,322.7,442.3,320z M344.8,369.2c-0.4-4-2-8.8-3.4-10.3c-0.9,0.3-1,1.1-1,1.8
		c-0.1,1.9-0.2,3.8-0.2,5.7c0,2.2,0.2,2.5,2.4,2.8C343.3,369.3,344,369.2,344.8,369.2z"/>
	<path class="st4" d="M229,470.6c3-2.5,3.3-4.2,1.4-7.2c-1.1-1.7-2.4-3.1-3.6-4.7c-1.5-1.9-3.1-3.7-4.5-5.6c-1.1-1.5-1-3-0.1-4.6
		c2.6-4.2,2.5-4.3-1.4-7.1c-2.8-2-5.6-4-8.3-6.4c0.7,0,1.4-0.1,2.1,0c4.9,1,9.8,2,14.7,3.1c0.9,0.2,1.9,0.4,2.8,0.4c2,0,3-0.9,3.1-3
		c0-1.2-0.1-2.4-0.4-3.6c-2.1-10-5.8-19.5-10.4-28.6c-0.4-0.8-0.8-1.5-1.1-2.3c-0.1-0.1,0-0.3,0-0.9c3.1,0.1,6.2-0.2,9.2,1.2
		c1,0.5,1.8,0.5,2.4-0.5c0.5-0.9,0.3-2.2-0.7-2.7c-1-0.5-2.1-0.7-3.2-0.9c-2.7-0.3-5.5-0.4-8.2-0.6c-1.1-0.1-2-0.3-2.6-1.3
		c-2.5-4-5-8.1-7.5-12.1c-0.1-0.1-0.1-0.3-0.1-0.8c0.6-0.1,1.2-0.4,1.8-0.4c4.3-0.2,8.6-0.4,12.9-0.6c3.6-0.2,7.2-0.4,10.8-0.6
		c0.7,0,1.4-0.1,2-0.5c0.5-0.3,1.1-1.1,1-1.5c0-0.5-0.7-1.1-1.3-1.4c-0.4-0.2-1-0.1-1.5-0.1c-7.7,0.4-15.3,0.9-23,1.3
		c-0.9,0-1.8-0.1-2.6,0.1c-2.2,0.5-3.6-0.3-5-2.1c-7.4-9.9-16.3-18.2-26.3-25.4c-4-2.9-8.1-5.5-12.2-8.3c-0.7-0.5-1.4-0.9-2.5-1.7
		c0.9-0.1,1.2-0.2,1.6-0.2c5.5,0.4,11,0.8,16.5,1.4c7.9,0.8,15.8,1.6,23.6,2.8c13,1.9,26,4.3,38.7,7.7c9.5,2.5,18.9,5.4,28.4,7.7
		c7.9,1.9,15.9,3.2,23.8,4.6c9,1.6,18,3,27,4.5c9.6,1.5,19.2,3.2,28.9,4.2c6.7,0.7,13.4,0.4,20.1,0.3c4.1,0,8.3-0.3,12.4-0.5
		c5.8-0.3,11.5-0.8,17.3-1.1c0.9-0.1,1.8,0,2.9,0c0.3,2.6,1.2,4.7,3.2,6.2c1.3,1,2.7,1.8,4.5,1.7c4.1-0.3,8.3-0.4,12.4-0.8
		c6.4-0.7,12.8-1.6,19.2-2.2c2.5-0.3,5-0.1,7.5-0.1c1,0,1.6,0.3,2.1,1.2c1.3,2.5,3.5,3.5,6.2,3.5c5.2-0.1,10.3-0.4,15.5-0.5
		c6.5-0.2,12.9-0.3,19.4-0.6c8.9-0.5,17.6-2.3,26-5.1c1.5-0.5,3.4-0.9,3.4-3c0.1-1.9-1.6-2.5-3-3.1c-2-0.9-4.2-1.5-6.3-2.3
		c1.1-3.3,3.1-4.9,6.4-4.9c15.3-0.1,30.7-0.1,46-0.2c29.1-0.2,58.1-0.2,87.2-0.6c13-0.1,26-0.9,39-1.3c6.9-0.2,13.8-0.4,20.7-0.7
		c9.8-0.4,19.6-1.1,29.4-1.4c11.5-0.3,23.1-0.8,34.6-0.5c12.2,0.4,24.3,2.4,36.2,5.6c2.8,0.8,5.7,1.2,8.6,1.9
		c2.4,0.6,2.4,0.6,2.4,3.1c0,0.6,0,1.2,0,1.8c0,34.7,0,69.3,0,104c0,1.3,0,2.5,0,4c-2.1,0-3.4-1.1-4.6-2.1c-0.5-0.4-0.5-1.4-0.5-2.2
		c-0.3-6.3-0.5-12.6-0.8-18.9c0-0.7,0-1.5-0.2-2c-0.3-0.5-1-1.1-1.5-1.1c-0.5,0-1.3,0.7-1.4,1.2c-0.3,1.2-0.3,2.4-0.2,3.6
		c0.2,5.2,0.5,10.3,0.8,15.5c0,0.5-0.1,1-0.1,1.8c-0.8-0.3-1.4-0.4-2-0.7c-2-0.9-4.1-1.9-6.1-2.8c-0.9-0.4-1.9-0.8-2.9-1
		c-5.8-1.6-10.6,2.4-9.8,8.3c0.3,2.2,1.2,4.3,1.9,6.4c0.2,0.7,0.7,1.4,1.2,2.4c-1.1,0.1-1.9,0.1-2.7,0.1c-2.7,0-5.3-0.1-8,0
		c-1.3,0-2.3-0.4-3.2-1.3c-1.7-1.7-3.4-3.4-5.1-5.1c-0.2-0.2-0.5-0.5-0.7-0.7c-0.7-0.7-1.5-1.5-2.5-0.9c-0.6,0.3-1,1.2-1.1,1.8
		c-0.2,1.1,0.2,2.1,1.4,2.5c2,0.6,2.9,2.2,4.5,3.7c-0.7,0.3-1,0.5-1.4,0.6c-0.7,0.2-1.3,0.3-2,0.5c-4.9,1.7-6.1,5.5-2.9,9.7
		c0.6,0.8,1.3,1.6,2.1,2.5c-0.6,0.3-1.1,0.6-1.6,0.8c-2.7,1.2-5.6,2.3-8.2,3.8c-1.4,0.8-2.6,2-3.6,3.3c-1.9,2.5-1.3,5.3,1.5,6.8
		c1.3,0.7,2.7,1.1,4.3,1.7c-0.6,0.4-1.1,0.8-1.7,1.1c-5.4,2.8-10.9,5.5-16.3,8.4c-5.4,2.9-10.3,6.7-14.7,10.9
		c-4.4,4.2-7.9,9.1-10.2,14.8c-0.8,2-1.2,4.1-1.5,6.2c-0.3,2.2,0.1,2.4,2.3,2.8c0.2,0,0.5,0.2,1,0.3c-1.9,3-4.1,6-2.3,10
		c-0.9,0.4-1.6,0.8-2.4,1.1c-2.6,1.3-5.3,2.5-7.8,3.9c-1.4,0.8-2.7,1.8-3.9,2.9c-4,3.5-5,8.1-4.4,13.1c0.1,0.8,0.2,1.7,0.2,2.3
		c-0.3,0.3-0.3,0.3-0.4,0.4c-0.1,0.1-0.1,0.1-0.2,0.1c-0.5,0.1-1,0.2-1.5,0.2c-138.7,0-277.3,0-416,0c-0.3,0-0.5,0-0.8-0.1
		c-0.2,0-0.3-0.2-0.3-0.2c1.1-3.5,2.5-6.9,3.3-10.5c0.9-3.7-0.1-7.4-1-11.1c0.5-0.1,0.8-0.2,1.2-0.3c2.7-0.4,4.1-1.9,3.6-4.6
		c-0.3-2-1.1-4-1.8-5.9c-0.4-1.3-1-2.5-1.8-4.3c1.3,0.7,2,1,2.8,1.4c2.7,1.5,5.4,3.1,8.2,4.4c1.8,0.9,3.8,1.6,5.8,2.1
		c2.4,0.6,4.4-0.8,4.7-3.2c0.2-1.8,0-3.6-0.4-5.3c-0.5-2.1-1.3-4.1-2.1-6.1c-5.5-13-13.6-24.4-22.7-35c-13-15.1-28.3-27.5-45.4-37.7
		c-4.6-2.7-9.6-4.6-14.4-6.9C231,471.4,230.1,471,229,470.6z"/>
	<path class="st5" d="M1.8,449.9c-0.2-0.8-0.4-1.3-0.4-1.8c-0.1-0.9,0-1.9,0-2.8c0-100.9,0-201.8,0-302.7c0-1.2,0-2.4,0.1-3.6
		c0-1.1,0.6-1.8,1.8-1.7c9.9,0.2,19.8,0.4,29.7,0.6c0.1,0,0.1,0.1,0.3,0.3c-0.6,0.3-1.1,0.7-1.7,1c-4.9,2.2-9.9,4.4-14.9,6.7
		c-0.9,0.4-1.9,0.8-2.8,1.3c-1,0.5-1.7,1.2-1.5,2.5c0.2,1.2,1.2,1.7,2.2,1.9c1.8,0.3,3.6,0.5,5.4,0.8c1.5,0.3,3,0.6,4.5,0.9
		c0,0.2,0,0.3,0,0.5c-1.5,0.3-3,0.6-4.5,0.9c-1,0.2-1.9,0.5-1.9,1.7c0,1,0.9,1.7,2.3,1.5c3-0.5,5.9-1.1,8.8-1.9
		c1.9-0.5,3.7-0.5,5.5,0.2c7,2.3,13.7,5.1,19.8,9.4c1.4,1,2.9,1.9,3.6,4c-0.9,0.5-1.7,1.2-2.6,1.5c-2.3,0.8-4.6,1.5-6.9,2.3
		c-0.8,0.3-1.7,0.5-2.4,0.8c-1.1,0.5-2,1.1-2.1,2.4c0,1.3,0.9,2,2,2.4c0.8,0.3,1.6,0.6,2.4,0.9c4.7,2.1,9.4,4.3,14.1,6.5
		c0.3,0.1,0.6,0.4,1.1,0.8c-0.8,0.2-1.3,0.5-1.8,0.5c-3,0-6,0-9,0c-0.9,0-1.9-0.2-2.8-0.2c-1,0-2,0.3-2,1.5c0,1.2,0.9,1.5,1.9,1.7
		c0.5,0.1,1,0.1,1.5,0.1c4.2,0,8.4,0.1,12.7,0c6-0.1,6-0.2,11,3.1c3.5,2.3,6.9,4.6,10.3,7c0.5,0.3,0.9,0.7,1.8,1.5
		c-2.8,0.4-5.1,0.8-7.5,1.1c-1.5,0.2-3.1,0.4-4.6,0.7c-0.6,0.1-1.3,0.2-1.7,0.5c-0.5,0.5-1,1.2-1,1.8c0,0.9,0.8,1.3,1.7,1.2
		c0.7,0,1.4-0.2,2-0.4c4.6-0.7,9.2-1.4,13.8-2c1.1-0.2,2,0.3,2.8,0.9c26.9,20,50.1,43.3,65.8,73.3c2.4,4.5,4.9,8.9,7.3,13.4
		c0.5,0.9,0.8,1.8,1.4,3.2c-1.5-0.2-2.5-0.1-3.4-0.4c-7.1-2-14.2-4.1-21.3-6.2c-1.7-0.5-3.5-0.9-5.3-1.4c-1-0.2-1.9-0.1-2.4,0.9
		c-0.5,1-0.1,1.9,0.6,2.6c0.8,0.8,1.7,1.5,2.5,2.2c4.4,3.8,8.9,7.6,13.3,11.5c1.2,1.1,2.1,2.5,3,3.6c-0.6,1.6-1.8,1.9-2.9,2.1
		c-2.5,0.6-5.1,1-7.6,1.5c-2.8,0.6-3.2,1.7-1.8,4.2c2.2,3.8,2,4.1-2.2,5.4c-0.4,0.1-0.8,0.2-1.2,0.4c-1.9,0.8-2.3,2.3-0.9,3.9
		c0.7,0.8,1.5,1.4,2.3,2c5.7,3.8,11.4,7.7,17.3,11.3c9.8,6.1,19.7,12.1,28.7,19.4c6.4,5.2,12.3,11.1,17.5,17.6
		c0.6,0.7,1.1,1.5,1.9,2.5c-1.2,0.1-1.9,0.2-2.7,0.3c-3.2,0.1-6.4,0.3-9.6,0.4c-0.3,0-0.8-0.1-1,0.1c-0.5,0.4-1.3,0.8-1.3,1.3
		c0,0.5,0.6,1.3,1,1.5c1,0.3,2,0.3,3,0.3c3.7-0.1,7.4-0.1,11.1-0.3c1.5-0.1,2.4,0.4,3.2,1.6c2.1,3.4,4.4,6.8,6.5,10.2
		c0.3,0.5,0.5,1,0.8,1.9c-1.1,0.1-1.9,0.1-2.8,0.1c-2.5,0-5,0-7.5,0.1c-0.9,0-1.9,0.1-2.8,0.4c-0.5,0.2-0.9,1-1,1.5
		c0,0.4,0.6,1,1.1,1.1c0.5,0.2,1.2,0.1,1.8,0.1c3.7,0,7.4,0.1,11.1,0c1.6,0,2.6,0.5,3.3,1.9c5.2,9.7,9.5,19.7,11.7,30.5
		c0.1,0.7,0.2,1.4,0.3,2c0,0.2-0.2,0.5-0.3,0.9c-1-0.2-2-0.4-3-0.5c-5.8-1.1-11.7-2.3-17.5-3.4c-0.9-0.2-1.9-0.2-2.8-0.1
		c-1.9,0.2-2.7,1.8-1.6,3.4c0.6,0.9,1.5,1.7,2.3,2.4c3,2.3,6.1,4.5,9.2,6.7c0.7,0.5,1.4,1,2.2,1.6c-0.3,0.7-0.6,1.3-0.9,1.8
		c-1.8,2.7-1.7,5.4,0.2,7.9c1.6,2.2,3.5,4.3,5.2,6.4c1,1.2,2,2.4,2.9,3.7c0.3,0.4,0.4,1.1,0.7,2c-1.4,0.3-2.7,0.5-3.9,0.7
		c-1.3,0.2-2.6,0.2-3.9,0.4c-0.9,0.1-1.6,0.6-1.7,1.7c0,1,0.5,1.6,1.4,1.9c0.5,0.2,1,0.3,1.5,0.4c8.9,2.2,17.3,5.8,25.1,10.7
		c21.4,13.4,39.9,30.1,54.2,51.1c4.1,6.1,7.7,12.5,10.5,19.3c0.9,2.1,1.5,4.4,2.1,6.6c0.2,0.8,0,1.8,0,2.8c-2,0.1-3.5-0.5-4.9-1.3
		c-4-2.1-7.9-4.3-11.8-6.4c-1-0.5-2-1.1-3-1.5c-1.1-0.5-2.2-0.7-3.1,0.3c-0.8,0.9-0.5,1.9,0,2.9c1.2,2.5,2.5,4.9,3.6,7.4
		c0.7,1.6,1.4,3.3,1.4,5.6c-1.3-0.5-2.3-1-3.3-1.3c-0.8-0.2-1.8-0.4-2.4,0c-1,0.5-0.7,1.6-0.4,2.6c0.8,2.5,1.7,4.9,2.2,7.4
		c1.2,5.9-0.8,11-4.3,15.7c-0.4,0.5-1.2,0.9-1.9,1c-0.8,0.2-1.7,0.1-2.6,0.1c-92.4,0-184.9,0-277.3,0c-4.3,0-4.4,0.6-4.4-4.3
		c0-44.2,0-88.5,0-132.7c0-0.7,0-1.4,0-2.1c0-1.2,0.5-2,1.5-2.7c4.2-3.1,8.4-6.3,12.6-9.5c0.3-0.3,0.8-0.5,1-0.8
		c0.2-0.6,0.5-1.4,0.2-1.8c-0.3-0.4-1.3-0.7-1.8-0.6c-0.9,0.3-1.6,0.9-2.4,1.5c-2.8,2.1-5.6,4.3-8.4,6.5
		C3.5,449,2.7,449.3,1.8,449.9z M23.6,283.7c-0.6,0.4-1.5,0.7-1.9,1.3c-0.5,1,0.1,1.8,1.1,2.3c0.2,0.1,0.5,0.2,0.7,0.3
		c1.7,0.8,3.5,1.4,5.1,2.4c6.1,3.5,11.6,7.8,16.9,12.3c5.2,4.5,10.2,9.3,14.3,14.9c0.5,0.8,1.5,1.3,2.5,1.6c0.8,0.3,1.7-0.1,2.1-1.1
		c0.3-1-0.1-1.6-0.9-2.2c-0.7-0.5-1.4-1-1.9-1.6c-4.5-5.9-9.8-10.9-15.5-15.6c-5.9-4.9-12.1-9.5-18.9-13
		C26.1,284.8,25,284.4,23.6,283.7z M167.3,430.9c6-0.1,11.2-0.3,16.2-1.8c0.7-0.2,1.5-0.5,2.1-1c0.4-0.3,0.6-1.2,0.4-1.6
		c-0.3-0.5-0.9-0.9-1.5-1.1c-0.3-0.1-0.8,0.2-1.2,0.3c-3.6,1.1-7.4,1.8-11.2,1.7c-5.2-0.1-10.3-0.2-15.4-0.7
		c-6.6-0.7-13.1-1.7-19.3-4.2c-0.4-0.2-0.8-0.3-1.2-0.4c-0.8-0.1-1.7,0.1-1.8,1c-0.1,0.5,0.3,1.4,0.7,1.7c0.7,0.6,1.7,0.9,2.6,1.2
		C147.4,429.5,157.8,430.4,167.3,430.9z M86.7,296.6c1.5,0,2.4-0.2,2.6-1.4c0.1-1.1-0.7-1.5-1.6-1.7c-0.2,0-0.3-0.1-0.5-0.1
		c-5.2-1.5-10.4-3.1-15.5-4.6c-7.1-2.2-14.3-4.5-21.4-6.7c-1-0.3-2-0.5-3-0.4c-0.6,0.1-1.5,0.7-1.7,1.3c-0.2,0.6,0.3,1.5,0.7,2
		c0.4,0.4,1.3,0.8,1.8,0.7c1.9-0.4,3.6,0.4,5.3,0.9c3,0.9,6.1,1.9,9.1,2.9c6.9,2.2,13.7,4.4,20.6,6.6
		C84.5,296.2,85.8,296.4,86.7,296.6z M5,466.4c1-0.5,1.9-0.9,2.6-1.4c0.7-0.4,1.2-1,1.8-1.4c7.5-4.7,14-10.5,20.3-16.7
		c1.2-1.2,2.3-2.6,3.4-3.9c0.4-0.5,0.9-1.1,1-1.8c0.1-0.6,0-1.5-0.4-1.8c-0.4-0.3-1.2-0.1-1.8,0.1c-0.4,0.1-0.6,0.6-0.9,0.9
		c-2,2.1-3.9,4.4-6,6.4c-6.4,5.9-12.9,11.7-20.7,15.7c-0.9,0.4-1.8,1.1-1.3,2.2C3.4,465.5,4.3,465.8,5,466.4z M174.4,447.2
		c0.4,0,0.9,0,1.3,0c1.1,0,2.1-0.1,2.3-1.5c0.1-0.9-0.7-1.6-2.1-1.8c-1.2-0.1-2.4-0.1-3.6-0.2c-10.4-1.3-20.5-3.5-30.5-6.8
		c-0.3-0.1-0.7-0.4-1-0.3c-0.6,0.2-1.4,0.3-1.7,0.8c-0.5,0.7-0.1,1.5,0.6,2c0.8,0.5,1.7,0.9,2.6,1.1c4.1,1.2,8.1,2.3,12.2,3.3
		C161.1,445.5,167.7,446.7,174.4,447.2z M81.1,530.2c-0.7-2.7-1.4-5.5-2.1-8.2c-2.1-8-5.7-15.5-7.3-23.7c-0.3-1.6-1.6-2.6-2.6-2.4
		c-1.1,0.2-1.6,1.4-1,3.2c0.7,2.5,1.6,4.9,2.4,7.4c2.5,8,5.8,15.9,7.1,24.3c0.2,1,0.6,1.8,1.8,1.8C80.5,532.5,81,531.6,81.1,530.2z
		 M103.9,310c-1.2,0.1-1.8,1-1.5,1.9c0.2,0.5,0.5,0.9,0.9,1.2c7.1,8,13.8,16.3,18.8,25.9c0.9,1.7,2,2.2,3,1.6c0.9-0.6,0.9-1.4,0-3.1
		c-4.6-8.9-10.9-16.7-17.4-24.3c-0.7-0.8-1.5-1.6-2.4-2.4C104.8,310.4,104.2,310.2,103.9,310z M227.5,536.1c-0.4,0.3-1.1,0.6-1.2,1
		c-0.2,0.5,0,1.3,0.3,1.6c0.8,0.7,1.8,1.3,2.8,1.7c7.2,3.3,14.4,6.5,21.7,9.8c1.6,0.7,3.1,1.5,4.7,2.2c0.9,0.4,1.9,0.6,2.5-0.5
		c0.5-1,0-1.9-0.9-2.4c-0.9-0.5-1.8-1-2.8-1.4c-8.6-3.9-17.1-7.7-25.7-11.6C228.5,536.5,228.1,536.3,227.5,536.1z M233.3,520.4
		c-1.4,0-2.2,0.3-2.4,1.5c-0.1,1.1,0.5,1.7,1.6,2c1.4,0.4,3,0.9,4.2,1.7c4.1,2.9,8,5.9,12,8.9c1.7,1.3,3.4,2.6,4.3,4.7
		c0.3,0.6,0.9,1.1,1.3,1.5c0.7,0.7,1.6,1.1,2.6,0.4c1-0.7,0.8-1.7,0.3-2.5c-1.1-1.4-2.1-3-3.5-4.1c-4.8-3.8-9.6-7.5-14.5-11.1
		c-1.3-1-2.8-1.6-4.3-2.4C234.3,520.6,233.6,520.5,233.3,520.4z M72.2,543.4c-0.3-6-3.4-18.1-6.2-23.9c-0.4-0.8-0.8-1.6-1.4-2.1
		c-0.4-0.3-1.3-0.4-1.8-0.2c-0.4,0.2-0.6,1-0.6,1.5c0.1,0.7,0.5,1.3,0.8,1.9c3.2,8.2,5.9,16.5,6,25.5c0,0.4-0.1,1,0.1,1.3
		c0.4,0.6,0.9,1.4,1.5,1.5c1,0.2,1.6-0.6,1.6-1.6C72.2,546.1,72.2,545,72.2,543.4z M53.4,534.7c0-1-0.2-1.9-1.4-2.1
		c-1.2-0.2-1.7,0.7-1.9,1.7c-0.2,1.2-0.4,2.4-0.5,3.6c-0.3,2-0.4,4.1-0.8,6.1c-0.8,4.5-1.1,9.1-3.2,13.2c-0.4,0.8-0.3,1.8,0.7,2.2
		c1,0.4,1.9,0.2,2.5-0.7c0.2-0.3,0.4-0.8,0.5-1.2c0.6-2.4,1.4-4.8,1.9-7.2C51.9,545.2,52.6,540,53.4,534.7z M99.3,264.2
		c0-0.1,0-0.2,0-0.3c1.5,0,3.1,0.1,4.6,0c3.1-0.1,6.2-0.4,9.3-0.5c0.8,0,1.6-0.2,1.8-1.2c0.2-1-0.5-1.6-1.3-1.9
		c-0.5-0.2-1-0.2-1.5-0.2c-6.5,0.3-13.1,0.7-19.6,1c-0.3,0-0.8,0-1,0.2c-0.4,0.3-1.1,0.9-1,1.3c0.1,0.5,0.6,1.2,1.1,1.5
		c0.5,0.3,1.2,0.2,1.8,0.2C95.4,264.2,97.4,264.2,99.3,264.2z M148.4,474.1c-0.6-0.9-1-1.9-1.8-2.6c-3.7-3.2-7.5-6.3-11.3-9.5
		c-0.2-0.2-0.4-0.3-0.6-0.4c-0.9-0.5-1.8-0.7-2.6,0.2c-0.6,0.8-0.3,1.7,0.8,2.6c1.2,0.9,2.6,1.8,3.7,2.8c2.9,2.5,5.6,5.1,8.5,7.6
		c0.5,0.4,1.3,0.7,2,0.7C147.5,475.5,147.9,474.7,148.4,474.1z M98.6,323.4c-1.3,0-2,0.9-1.6,1.9c0.2,0.5,0.7,1,1.1,1.4
		c2.4,2.6,4.9,5.1,6.3,8.4c0.1,0.2,0.2,0.6,0.4,0.6c0.6,0.2,1.3,0.6,1.8,0.4c0.5-0.2,0.8-1,1-1.6c0.1-0.2-0.1-0.7-0.3-1
		c-1.8-3.8-4.5-6.9-7.6-9.7C99.4,323.6,98.9,323.5,98.6,323.4z"/>
	<path class="st6" d="M505.4,355.4c-0.5-2.5-0.8-4.7-1.3-6.9c-0.4-1.8-0.9-3.7-1.6-5.4c-1-2.5-2.9-3.9-5.6-3.8
		c-1.8,0.1-3.6,0.4-5.3,1c-4.7,1.7-9,4.3-13.2,7.1c-1.3,0.9-2.4,1.3-4.1,1c-2.4-0.4-4.6,0.3-6.2,2.4c-2-0.8-3.9-1.5-6.1-2.3
		c0.3-1.9,0.5-3.6,0.8-5.4c0.2-1.1,0.5-2.2,0.7-3.3c0.4-2.9-0.8-4.6-3.7-5.2c-2.4-0.5-4.6,0-6.8,0.8c-1,0.3-1.9,0.8-2.9,1.2
		c-1.3-1.8-2.5-3.4-3.6-5.1c-0.4-0.6-0.4-1.5-0.4-2.2c-0.3-6.4-0.7-12.7-0.9-19.1c-0.5-10.1-0.9-20.2-1.3-30.2
		c-0.6-13.8-1.2-27.6-1.9-41.3c-0.1-2.1,0.6-3.1,2.3-4c28.6-16.1,57.2-32.2,85.8-48.4c1.8-1,3.2-0.7,4.8,0c26,10.9,52,21.7,78,32.6
		c13.8,5.8,27.7,11.6,41.5,17.3c0.5,0.2,0.9,0.4,1.4,0.6c1.4,0.4,1.8,1.3,1.8,2.7c0,5.3,0.1,10.5,0.1,15.8
		c0.2,33.1,0.5,66.2,0.8,99.3c0,4.7-0.5,3.9-3.8,3.9c-21.6,0.1-43.1,0.1-64.7,0.2c-21.4,0.1-42.8,0.3-64.2,0.5c-0.9,0-1.7,0.1-2.6,0
		c-0.6-0.1-1.3-0.3-1.6-0.6c-1.9-3.1-5-3.5-8.1-3.6c-1.9-0.1-3.8,0.2-5.7,0.3C507.2,355.3,506.4,355.3,505.4,355.4z M516.2,214.2
		c-0.1,0-0.2,0-0.3,0c0,2.8,0,5.7,0,8.5c0,2.7,0.9,3.3,3.6,2.9c3.2-0.4,6.5-0.8,9.7-1c5.2-0.3,10.3-0.3,15.5-0.5
		c2.6-0.1,3.4-0.9,3.3-3.5c0-0.5-0.1-1-0.2-1.5c-0.7-5.4-1.4-10.7-2.1-16.1c-0.3-2.6-0.6-3.1-3.2-2.9c-5.9,0.3-11.8,0.7-17.8,1.1
		c-1.9,0.1-3.7,0.7-5.6,1c-2.4,0.3-2.9,0.6-3,3C516.1,208.2,516.2,211.2,516.2,214.2z M624.6,321.3c-0.1,0-0.2,0-0.2,0
		c0,2.2-0.1,4.5,0,6.7c0.1,1.7,0.8,2.5,2.5,2.7c0.8,0.1,1.5,0.1,2.3,0c4.1-0.2,8.3-0.5,12.4-0.5c4.7,0,4.9,0.2,5.6-4.9
		c0.5-3.1,0.9-6.1,1.1-9.2c0.2-2.6-0.6-3.5-3.1-3.8c-2.9-0.3-5.8-0.7-8.7-0.9c-2.7-0.1-5.5-0.1-8.3,0.1c-2.5,0.2-3,0.8-3.2,3.4
		C624.9,317.1,624.7,319.2,624.6,321.3z M560.6,328.4c0,0.1,0,0.2,0,0.2c2.8,0,5.7,0.1,8.5,0c2.4-0.1,3.2-1,3.1-3.1
		c-0.1-3.6-0.2-7.2-0.3-10.8c0-2-0.7-2.8-2.7-3.1c-1.2-0.2-2.4-0.3-3.6-0.3c-4.4,0-8.8-0.2-13.2,0.1c-2.8,0.1-3.7,1.5-3.6,4.3
		c0.2,3.2,0.4,6.4,0.6,9.5c0.2,2.7,0.8,3.3,3.5,3.3C555.6,328.4,558.1,328.4,560.6,328.4z M600.4,328.6c0,0.1,0,0.2,0,0.3
		c2.6,0,5.2,0,7.8,0c2.5-0.1,3-0.7,2.9-3.2c-0.1-3.7-0.2-7.4-0.2-11.1c0-3.2-0.2-3.7-3.4-3.7c-4.4,0-8.8,0-13.2,0
		c-0.7,0-1.4,0-2.1,0.2c-2.3,0.5-2.7,1-2.7,3.3c-0.1,3.6-0.2,7.2-0.3,10.9c-0.1,2.6,0.4,3.3,3,3.4
		C594.9,328.7,597.6,328.6,600.4,328.6z M511.7,319.6C511.7,319.6,511.7,319.6,511.7,319.6c0,2.2-0.1,4.3,0,6.5
		c0.2,3.3,1.1,4.3,4.4,4.3c3.6-0.1,7.2-0.3,10.8-0.6c2.8-0.2,3.5-0.9,3.4-3.7c-0.1-3.4-0.2-6.9-0.5-10.3c-0.2-3-0.9-3.8-3.9-4
		c-3.9-0.3-7.9-0.6-11.8-0.7c-1.9-0.1-2.4,0.5-2.5,2.4C511.6,315.4,511.7,317.5,511.7,319.6z M497.7,321.4
		C497.7,321.4,497.7,321.4,497.7,321.4c0-2,0.1-4,0-5.9c-0.1-1.9-0.9-2.8-2.6-3c-4.8-0.6-9.6-0.5-14.4,0.5c-1.8,0.4-2.3,1.5-1.8,3.3
		c0.4,1.6,0.9,3.2,1,4.8c0.2,2.5,0.1,5,0.2,7.5c0.1,2.2,0.9,2.9,3.1,2.8c0.4,0,0.9-0.1,1.3-0.2c3.5-0.4,7-0.9,10.5-1.3
		c2-0.2,2.6-0.6,2.7-2.7C497.8,325.2,497.7,323.3,497.7,321.4z M450,322.9C450,322.9,450.1,322.9,450,322.9c0.1,2.2,0,4.3,0.1,6.5
		c0.1,2.4,1.3,3.2,3.6,2.8c2.5-0.4,4.9-0.9,7.3-1.5c2.2-0.5,2.7-1.1,2.6-3.4c-0.1-3.5-0.3-7-0.6-10.6c-0.1-2-0.9-2.7-3-2.7
		c-2.6,0-5.1,0.3-7.7,0.5c-2,0.1-2.4,0.5-2.5,2.5C449.9,319,450,320.9,450,322.9z"/>
	<path class="st7" d="M254.2,286.9c-1.1,1.3-0.2,2.2,0.1,3.1c2.7,7.1,5.5,14.1,8.2,21.2c5.4,14.2,10.2,28.6,14,43.3
		c0.2,0.9,0.4,1.8,0.7,3.1c-0.9-0.1-1.7,0-2.4-0.2c-2.9-0.8-5.8-1.7-8.7-2.4c-1.6-0.4-2.4-1.3-2.8-2.9c-3.8-14.6-8.3-29-13.3-43.2
		c-2-5.6-4.4-11-6.7-16.5c-0.4-0.9-1.1-1.7-1.6-2.4c-1.4,0.6-0.9,1.4-0.6,2.1c0.8,1.8,1.9,3.5,2.6,5.3c3,8.2,6.1,16.3,8.7,24.6
		c3,9.3,5.7,18.8,8.5,28.2c0.3,1,0.5,2,0.8,3.3c-0.9-0.1-1.6-0.1-2.2-0.3c-12.1-3.5-24.3-6.4-36.7-8.6c-1.9-0.3-2.2-1.6-2.6-3
		c-3.5-12.3-7-24.5-10.6-36.8c-1.1-3.8-2.5-7.5-3.9-11.2c-0.3-0.8-0.5-1.9-1.6-2.1c-0.9,0.9-0.3,1.7,0,2.5
		c5.3,15.1,9.7,30.5,13.8,46c0.3,1.1,0.5,2.1,0.8,3.5c-1,0-1.7,0.1-2.3,0c-2.2-0.3-4.4-0.7-6.6-1c-1.7-0.2-2.7-0.9-3.2-2.8
		c-1.1-4.5-2.4-9-3.7-13.5c-3-10.4-5.9-20.7-8.9-31.1c-0.3-0.9-0.8-1.8-1.1-2.7c-0.2,0-0.4,0.1-0.6,0.1c-0.1,0.5-0.4,1-0.3,1.5
		c0.3,1.2,0.7,2.3,1,3.5c3.9,13.9,7.8,27.7,11.7,41.6c0.2,0.6,0.3,1.3,0.5,2.4c-1,0-1.8,0.1-2.6,0c-10.3-1-20.6-2-30.9-3
		c-2.5-0.2-2.6-0.2-3.2-2.8c-2.3-9.7-5.1-19.3-8.6-28.7c-0.5-1.4-0.8-3-2.2-4.1c-1,1-0.2,1.8,0,2.6c2.2,6.7,4.4,13.4,6.5,20.2
		c1,3.2,1.7,6.5,2.5,9.8c0.2,0.6,0.2,1.3,0.3,2.2c-2.3,0.5-4.4,0.5-6.4-0.2c-0.6-0.2-1.2-1.2-1.5-1.9c-1.6-3.6-3-7.2-4.5-10.7
		c-0.3-0.8-0.6-1.8-2.1-2.3c0.2,0.9,0.2,1.5,0.4,2.1c1.1,2.8,2.3,5.6,3.4,8.4c0.3,0.7,0.5,1.4,0.8,2.2c-2.4-0.5-12.8-7.2-15.4-9.9
		c1.6-1.3,3.8-1.6,4.7-3.7c0.9-2.1-0.4-3.8-0.9-5.8c2.1-0.4,4-0.8,5.9-1.3c1.2-0.3,2.5-0.7,3.6-1.3c2.5-1.3,3.1-3.4,1.8-5.9
		c-0.7-1.3-1.7-2.6-2.8-3.7c-2.9-2.8-6-5.4-9-8.1c-0.6-0.6-1.3-1.1-1.8-2c0.8,0.2,1.5,0.4,2.3,0.6c6,1.7,11.9,3.4,17.9,5.1
		c1.2,0.3,2.6,0.4,3.8,0.4c2.9,0,4.1-1.7,3.1-4.5c-0.5-1.5-1.3-3-2.1-4.5c-0.5-1-1-2-1.7-3.2c0.7-0.3,1.3-0.7,1.9-0.8
		c8.1-1.6,16.2-3.4,24.4-4.6c8.2-1.2,16.4-2,24.7-2.5c10.5-0.6,21-1.1,31.5-0.4c5,0.3,10,0.4,15,0.7c9.4,0.6,18.7,1.2,28.1,2
		c7.2,0.6,14.4,1.3,21.6,2.2c7.4,1,14.8,2.2,22.2,3.4c2.4,0.4,2.4,0.5,2.4,2.8c-0.3,15-0.6,30-0.8,45c0,1.9,0,3.9,0,5.8
		c-0.2,0-0.3,0.1-0.5,0.1c-0.4-0.7-0.7-1.5-1-2.2c-6-13.6-12.1-27.1-19-40.2c-0.5-1-1.1-2-1.7-2.9c-0.3-0.5-1-0.7-1.9-1.4
		c0.1,1.1,0,1.6,0.2,2c3.7,7.2,7.6,14.3,11,21.6c4.2,8.9,8.1,17.9,12,26.9c0.4,1,0.8,2.1,0.8,3.2c-0.1,6.2-0.2,12.4-0.4,18.6
		c0,0.4-0.1,0.8-0.3,1.6c-3.2-0.5-6.2-1-9.3-1.5c-0.4-1.3-0.8-2.4-1.1-3.5c-6.6-22.8-15.4-44.8-26-66.1c-0.5-1.1-0.8-2.5-2.3-3
		c-0.9,0.9-0.2,1.7,0.1,2.4c2.8,5.9,5.6,11.9,8.3,17.8c7.1,15.7,12.9,31.9,17.9,48.5c0.2,0.8,0.4,1.7,0.6,2.5c0,0.2,0,0.3-0.1,0.8
		c-2.1-0.3-4.3-0.6-6.5-1c-9.4-1.5-18.7-3-28-4.6c-2.9-0.5-5.7-1.1-8.6-1.6c-1.5-0.3-2.3-1-2.7-2.6c-5.5-22.3-13.6-43.8-22.1-65.1
		C256.1,289.8,255.8,288.1,254.2,286.9z"/>
	<path class="st5" d="M828.5,242c-4.1,0-7.6,0.1-11.1,0c-5.1-0.2-10.2-0.6-15.2-0.8c-5-0.2-10-0.4-15-0.6c-12-0.5-23.9-1.1-35.9-1.6
		c-13.3-0.6-26.7-1.1-40-1.7c-7.6-0.3-15.2-0.7-22.7-1c-8.2-0.4-16.4-0.7-24.5-1.1c-2.2-0.1-4.4-0.5-6.5-1.4
		c-40.4-16.9-80.7-33.8-121.1-50.7c-3.1-1.3-6.2-1.9-9.5-2c-1.4-0.1-2.9-0.1-4.5-0.2c0-2.1,0-4.1,0-6.3c0.6-0.1,1.3-0.2,1.9-0.2
		c6.7,0.5,13.4,1,20.1,1.5c5.1,0.4,10.1,0.8,15.2,1.1c8.5,0.7,17,1.3,25.5,2c5.2,0.4,10.5,0.8,15.7,1.2c8.2,0.6,16.5,1.3,24.7,1.9
		c5.1,0.4,10.1,0.8,15.2,1.1c8.5,0.7,17,1.3,25.5,2c5.8,0.4,11.5,0.8,17.3,1.2c7.7,0.6,15.4,1.3,23.2,1.9c5.3,0.4,10.7,0.8,16,1.2
		c8.2,0.6,16.3,1.3,24.5,1.9c5.1,0.4,10.1,0.8,15.2,1.1c8.5,0.7,17,1.3,25.5,2c5,0.4,10,0.8,14.9,1.1c7.7,0.6,15.5,1.1,23.2,1.7
		c2.2,0.2,2.5,0.5,2.6,2.7c0.1,2.2,0,4.5,0,6.7c0,10.6,0,21.2,0,31.8C828.5,239.7,828.5,240.8,828.5,242z"/>
	<path class="st5" d="M824,480.5c0.8,0.3,1.2,0.4,1.6,0.6c2.2,0.8,3,2.2,3,4.7c-0.1,35.2-0.1,70.4-0.1,105.6c0,1.1-0.1,2.2-0.2,3.2
		c-2.6,0.7-106.4,0.8-113.1,0.2c-2.2-5.8-0.9-10.6,2.5-13.5c0.9-0.8,1.9-1.6,2.9-2.2c5.6-3.3,11.4-6,18-6.7c0.8-0.1,1.8-0.2,2.5-0.7
		c0.6-0.3,1.1-1.1,1.2-1.8c0.1-1-0.8-1.5-1.8-1.4c-1.4,0.1-2.7,0.3-4.1,0.6c-1.4,0.3-2.9,0.7-3.8-0.6c-0.9-1.3,0.1-2.7,0.8-3.8
		c1.1-1.6,2.3-3,3.4-4.5c0.4-0.5,0.8-0.9,1.2-1.3c0.7-0.8,1.4-1.7,0.6-2.8c-0.7-1-1.7-0.7-2.6-0.5c-1.2,0.3-2.3,0.7-3.5,1
		c-0.7-1.4-0.1-2.5,0.4-3.6c2.2-5.1,5.3-9.7,9.2-13.6c5.4-5.4,11.7-9.7,18.5-13.1c4.9-2.5,9.9-4.9,14.8-7.4c1.2-0.6,2.3-1.2,3.4-1.9
		c0.9-0.6,1.7-1.3,1.4-2.5c-0.3-1.2-1.4-1.3-2.5-1.4c-1.5-0.1-3.1-0.3-4.6-0.5c-0.4,0-0.9-0.1-1.3-0.3c-0.8-0.5-2-0.9-2.1-1.6
		c-0.1-0.7,0.6-1.8,1.2-2.3c3.7-3.1,8.1-4.5,12.7-5.5c0.7-0.1,1.4-0.2,2-0.4c1.6-0.7,1.8-2.1,0.4-3.1c-0.7-0.5-1.6-0.8-2.2-1.4
		c-1.2-1.1-2.4-2.2-3.3-3.6c-1-1.4-0.7-2.5,0.8-3.2c2-1,4.3-1.4,6.5-1.2c0.7,0.1,1.3,0.7,1.9,1.2c2.8,2.3,5.5,4.7,8.3,7
		c1.1,0.9,2.3,1.6,3.5,2.2c1.3,0.7,2.4,0.5,2.7-0.4c0.5-1.2-0.4-1.7-1.2-2.3c-2.7-2-5.3-4.1-8-6.2c-0.4-0.3-0.8-0.8-1.4-1.6
		c1.3-0.1,2.1-0.1,2.9-0.1c2.2,0,4.3,0.1,6.5,0.1c0.6,0,1.2,0,1.8,0c1.1,0,2.1-0.2,2.5-1.4c0.4-1-0.1-1.8-0.9-2.5
		c-2.1-2-3.4-4.5-4-7.4c-0.1-0.6-0.2-1.2-0.2-1.8c0-3.3,2.3-5.1,5.5-4.4c1.1,0.3,2.1,0.7,3.2,1.2c2.6,1.2,5.1,2.4,7.7,3.6
		c1,0.5,1.7,1.1,1.8,2.3c0.2,4.8,0.5,9.6,0.6,14.5c0,1-0.2,2,1.1,2.3c1,0.2,1.9-0.5,2.1-1.8c0.2-1.4,0.2-2.7,0.1-4.1
		c-0.1-2.6-0.3-5.2-0.4-7.7C823.8,482.2,823.9,481.5,824,480.5z M772.1,557.2c0.7,0.8,1.1,1.6,1.7,1.9c0.8,0.4,1.2-0.5,1.7-1.2
		c0.7-1,1.5-2.2,2.5-2.8c2.2-1.4,4.5-2.9,7-3.8c5.5-2,11.1-3.6,16.7-5.3c0.7-0.2,1.4-0.2,2-0.6c0.4-0.3,0.8-1,0.8-1.4
		c-0.1-0.4-0.7-1-1.2-1.1c-0.6-0.2-1.4-0.1-2,0c-7.8,1.7-15.5,4-22.6,7.9c-1.6,0.9-3.2,2-4.6,3.3C773.3,554.8,772.8,556,772.1,557.2
		z M782.4,538c0-0.1,0-0.1,0-0.2c-4.7,0.7-9.4,1.2-14,2c-2.4,0.4-4.8,1.3-7.2,2.1c-1,0.3-1.9,1.1-1.4,2.4c0.4,1.2,1.5,1.3,2.6,1.2
		c0.4-0.1,0.9-0.1,1.2-0.4c1.9-1.6,4.2-1.8,6.5-2.2c5.1-0.9,10.2-1.7,15.4-1.6c0.9,0,1.8-0.1,2-1.2c0.2-1.2-0.7-1.7-1.7-1.9
		C784.6,538.1,783.5,538.1,782.4,538z"/>
	<path class="st6" d="M700.2,357c-12.8,0.4-25.3,0.7-38.1,1.1c-0.1-1.3-0.2-2.3-0.2-3.3c-0.2-18.8-0.3-37.6-0.5-56.4
		c-0.1-18.8-0.3-37.6-0.4-56.4c0-1.1,0.1-2.2,0.2-3.2c4.1,0,8,0,11.9,0c0.9,0,1.9,0.2,2.8,0.2c10.3,0.4,20.7,0.8,31,1.2
		c11.8,0.5,23.6,1,35.4,1.5c7.8,0.3,15.7,0.7,23.5,1c11.9,0.5,23.8,1,35.6,1.6c7.7,0.3,15.5,0.7,23.2,1c1.2,0.1,2.3,0.3,3.7,0.5
		c0.1,1,0.2,1.9,0.2,2.7c0,7.8,0,15.5,0,23.3c0,2.8-0.1,2.7-2.8,3.3c-6,1.1-11.9,1-18,0.6c-9.1-0.6-18.2-0.8-27.4-1.3
		c-8.9-0.4-17.9-1-26.8-1.4c-2.9-0.2-5.8,0.1-8.7-0.9c-0.9-0.3-1.9-0.2-2.8-0.2c-10.5-0.1-21-1.3-31.4-2.4c-3-0.3-6-0.7-9-1
		c-1.8-0.2-2.4,0.2-2.8,1.9c-0.3,1.3-0.5,2.7-0.5,4.1c0.5,22.8,1.1,45.5,1.6,68.2c0.1,3.9,0.3,7.8,0.4,11.6
		C700.3,355.1,700.2,355.9,700.2,357z"/>
	<path class="st8" d="M804.8,357.1c-1-0.1-2.1-0.2-3.2-0.4c-8.2-1.4-16.4-2.4-24.7-2.4c-7.3,0-14.6,0.3-22,0.4c-0.5,0-1,0-1.6,0
		c-2,0-2.2-0.2-2.4-2.2c0-0.7,0-1.4,0-2.1c-0.2-13.2-0.2-26.4-0.6-39.6c-0.3-10.5-0.8-21-2.4-31.4c-0.1-0.8-0.1-1.7-0.2-2.9
		c19.1,0.9,37.9,1.8,56.7,2.9C805.2,282,805.5,355,804.8,357.1z"/>
	<path class="st9" d="M703.8,356.8c-1.1-28.4-1.7-56.4-2.2-84.6c14.3,1.2,28.2,2.4,42.5,3.6c0.2,0.8,0.4,1.8,0.5,2.8
		c2.4,16.9,2.6,33.8,2.9,50.8c0.2,7.3,0.1,14.7,0.2,22c0,1,0,2,0,3.4c-1.7,0.2-3.2,0.4-4.8,0.5c-11.8,0.5-23.6,1-35.4,1.5
		C706.4,356.9,705.3,356.8,703.8,356.8z"/>
	<path class="st5" d="M411.5,357.6c1.5-2.6,3.5-3.6,5.6-4.4c0.9-0.4,1.9-0.4,2.7-0.9c0.6-0.3,1.3-1,1.4-1.6c0.2-0.8-0.5-1.4-1.3-1.6
		c-0.4-0.1-0.8-0.3-1.7-0.6c1-0.7,1.7-1.4,2.4-1.8c1.8-0.8,3.6-1.5,5.5-2.2c2.5-1,2.8-1.5,2-4c-0.7-2.2-0.9-4.4-0.4-6.6
		c0.9-4.2,5.2-6.7,9.3-5.2c4.3,1.5,7.1,4.7,9.3,8.6c2.3,3.9,2.2,3.9,6.3,2.1c1.6-0.7,3.4-1.2,5.2-1.5c2-0.3,2.6,0.6,2.3,2.6
		c-0.4,2.6-1,5.3-1.3,7.9c-0.3,2.6,0.2,3.2,2.7,3.8c1.1,0.3,2.1,0.6,3.6,1c-0.9,0.7-1.4,1-1.9,1.4c-2.3,1.8-4.7,3.4-6.9,5.4
		c-2,1.7-3.2,4-3.6,6.7c-0.5,3.2,0.2,4.7,3.1,6.3c0.3,0.2,0.5,0.4,1.1,0.8c-0.8,0.2-1.2,0.4-1.7,0.3c-7.1-0.4-14.1,1-21.1,1.8
		c-5.4,0.6-10.8,1-16.2,1.4c-0.8,0.1-1.6,0-2.3,0c-2.6-0.3-4.4-2.6-3.8-5.1c1-3.8,2.6-7.3,5.7-9.9c0.4-0.3,0.8-0.6,1.2-1
		c1.1-1.3,0.7-2.7-1.1-3.1c-0.9-0.2-1.9,0-2.8-0.1C413.7,357.9,412.8,357.7,411.5,357.6z"/>
	<path class="st5" d="M522.4,372.6c-1.1,0.4-1.8,0.7-2.5,0.9c-8.6,2.4-17.3,4-26.2,4.2c-8.8,0.2-17.6,0.7-26.3,1
		c-1.6,0.1-3.3,0.1-4.9-0.1c-2.5-0.2-3.3-1.7-2.3-3.9c0.1-0.3,0.3-0.6,0.5-0.9c0.9-2,0.5-2.7-1.6-3.4c-0.2-0.1-0.5-0.1-0.7-0.2
		c-2.5-0.7-3-1.7-2.2-4.2c0.6-2,1.9-3.5,3.4-4.8c2.9-2.5,6.1-4.5,9.5-6.1c0.9-0.4,1.8-1.1,2.2-1.9c0.7-1.5,1.9-1.8,3.2-1.5
		c2.1,0.6,3.6-0.1,5.3-1.2c3.9-2.4,7.9-4.6,11.9-6.7c1.2-0.6,2.6-1,3.9-1.2c2.5-0.3,3.6,0.2,4.3,2.7c0.8,3,1.5,6,1.9,9.1
		c0.8,4.9,0.7,4.9,5.6,4.3c2.1-0.3,4.3-0.4,6.4-0.5c0.6,0,1.2,0,1.8,0.2c3.1,0.6,3.6,1.7,1.5,4.1c-1.4,1.6-3,3-4.6,4.5
		c-0.7,0.7-1.6,1.2-1.2,2.4c0.4,1.2,1.5,1.2,2.5,1.4c2.2,0.3,4.4,0.6,6.6,1C521,371.8,521.5,372.2,522.4,372.6z"/>
	<path class="st7" d="M377.9,312c0.9,1.7,1.7,3.2,2.8,5c-1.2-0.3-2-0.5-2.7-0.7c-3.4-1.1-6.7-2.1-10.1-3.3c-1.6-0.6-3-1.4-4.7-2.2
		c-1-0.1-2.4-0.1-3.6-0.5c-5.2-1.6-10.3-3.4-15.5-5.1c-0.2-0.1-0.5-0.1-0.7-0.2c-0.7-0.3-1.9-0.4-1.7-1.6c0.1-0.6,1-1.1,1.6-1.3
		c7.4-2.5,14.7-4.9,22.1-7.2c1-0.3,2.4-0.2,3.5,0.2c9,2.8,17.9,5.6,26.9,8.5c10.1,3.3,20.3,5.9,30.9,7.4c3.8,0.5,7.7,0.8,11.6,1.3
		c1.1,0.1,2.2,0.3,3.5,0.5c0.1,0.7,0.3,1.4,0.4,2c0.2,1.3-0.4,2-1.6,2.5c-3.8,1.4-7.6,2.9-11.3,4.4c-4.6,1.8-9.2,3.5-13.7,5.3
		c-1.7,0.7-3.3,0.7-5,0.1c-8-2.7-16-5.3-24.1-7.9c-1.7-0.5-2.9-1.4-3.7-2.9c-0.6-1.1-1.2-2.1-1.9-3.1
		C380.1,312.4,379.6,311.6,377.9,312z"/>
	<path class="st7" d="M342.5,354.3c-1.1-1.9-1.9-3.9-1.9-6.3c0.2-12.4,0.4-24.8,0.6-37.2c0-0.8,0.2-1.6,0.3-2.6
		c1,0.2,1.6,0.3,2.3,0.5c6.4,2.1,12.8,4.2,19.1,6.3c1.2,0.4,2.2,0.9,2.8,2.1c4,7.6,8,15.2,12.1,22.8c0.1,0.2,0.2,0.5,0.2,0.7
		C376.5,341.9,345.1,354,342.5,354.3z"/>
	<path class="st9" d="M828,278.7c0.6,2.1,0.8,80.4,0.1,83.3c-0.6,0-1.3,0.1-2,0c-1.9-0.4-3.7-0.9-5.5-1.3c-2.1-0.5-2.2-0.6-2.3-2.8
		c-0.1-3.7-0.1-7.4-0.1-11.1c-0.2-21.2-0.4-42.4-0.6-63.6c0-3.3,0-3.3,3.2-3.8c2-0.3,3.9-0.5,5.9-0.8
		C827.2,278.5,827.6,278.6,828,278.7z"/>
	<path class="st7" d="M388.4,370.5c-14,0.9-27.5,1.3-41.1-0.7c-1.2-4-2.3-7.8-3.5-12c12-4.6,23.8-9.1,36-13.8
		C383.4,352.6,386.6,361.1,388.4,370.5z"/>
	<path class="st7" d="M424.6,341.4c-1,0.4-2,0.7-2.8,1.1c-2,1.1-4,2-5.8,3.3c-1,0.7-2,2-2.1,3.1c-0.2,1.8-1.2,2.6-2.4,3.6
		c-1.2,1-2.4,2.3-3.2,3.6c-1.2,2-0.4,3.7,1.8,4.5c0.9,0.3,1.8,0.5,2.7,0.8c-1.2,2.3-2.3,4.4-3.5,6.5c-0.3,0.5-1,0.9-1.6,1.1
		c-0.9,0.2-1.8,0.2-3.1,0.4c-2.3-10.6-5.5-20.8-10-30.8c0.8-0.5,1.4-0.8,2-1.1c4.8-1.9,9.6-3.7,14.4-5.6c1.2-0.5,2.3-0.6,3.5-0.2
		c2.4,0.9,4.9,1.7,7.3,2.4c1.5,0.4,2.1,1.2,2.2,2.8C424.1,338.3,424.4,339.7,424.6,341.4z"/>
	<path class="st10" d="M815,359c-0.8,0-1.2,0.1-1.5,0c-5.4-1.1-4.7-0.3-4.8-5.3c-0.1-23.4-0.2-46.7-0.3-70.1c0-1.1,0-2.2,0-3.3
		c1.8-0.8,3.4-0.2,5-0.1c0.3,0,0.8,0.7,0.9,1.1c0.2,0.7,0.1,1.5,0.1,2.3c0.2,24.2,0.4,48.5,0.6,72.7C815,357.1,815,357.9,815,359z"
		/>
	<path class="st7" d="M402.7,369.3c-4.3,0.8-8.2,0.6-12.3,1.2c-2.1-9.4-5.2-18.2-8.9-27.1c3.9-1.5,7.6-2.9,11.4-4.4
		C397.3,348.8,400.6,358.6,402.7,369.3z"/>
	<path class="st7" d="M391,336.1c-3.5,1.4-7.1,2.7-10.8,4.1c-4.1-7.8-8.2-15.5-12.3-23.3c0.5,0,1,0,1.4,0.1
		c4.3,1.4,8.5,2.7,12.7,4.2c0.9,0.3,2,0.9,2.4,1.7c2.2,4,4.3,8,6.4,12.1C391,335.2,391,335.5,391,336.1z"/>
	<path class="st2" d="M379.6,66.9c2.7-0.3,5.4-0.9,8.1-1c5.7-0.3,11.3-0.5,17-0.6c4.9-0.1,9.8,0,14.7,0.1c2.7,0,3.5,1.1,3.1,3.7
		c-0.1,0.8-0.5,1.3-1.3,1.3c-0.8,0-1.6,0-2.3-0.1c-9.5-0.8-19.1-0.8-28.6,0c-2.5,0.2-5,0.3-7.4,0.8c-3,0.7-3.4-0.7-3.5-2.9
		C379.4,67.8,379.5,67.5,379.6,66.9z"/>
	<path class="st7" d="M406.8,330c-4.4,1.7-8.9,3.4-13.6,5.2c-2.1-4-4.1-7.9-6.2-11.8c0.1-0.2,0.2-0.3,0.3-0.5
		c6.4,2.1,12.9,4.2,19.3,6.3C406.7,329.5,406.8,329.8,406.8,330z"/>
	<path class="st7" d="M342,298.9c-0.6-2.1-0.6-7.8,0-10.5c6,1,12,2.4,17.8,4.1c0,0.2,0,0.4,0.1,0.6C353.9,295,348,297,342,298.9z"/>
	<path class="st7" d="M442.3,320c0,2.7,0,4.7,0,6.8c-1.1,0.4-1.8-0.4-2.6-0.8c-4.4-2.1-8.6-1.5-12.3,1.6c-1.2,1-1.9,2.4-3.1,3.9
		c-1.8-0.6-3.8-1.2-5.8-1.9c0-0.2,0-0.3,0-0.5C426.3,326.2,434,323.2,442.3,320z"/>
	<path class="st7" d="M344.8,369.2c-0.9,0-1.5,0.1-2.2,0c-2.2-0.3-2.4-0.6-2.4-2.8c0-1.9,0.1-3.8,0.2-5.7c0-0.8,0.1-1.6,1-1.8
		C342.8,360.4,344.4,365.2,344.8,369.2z"/>
	<path d="M23.6,283.7c1.4,0.6,2.5,1.1,3.6,1.7c6.9,3.5,13,8.1,18.9,13c5.6,4.7,11,9.7,15.5,15.6c0.5,0.7,1.2,1.2,1.9,1.6
		c0.8,0.6,1.2,1.2,0.9,2.2c-0.4,1-1.2,1.4-2.1,1.1c-0.9-0.3-1.9-0.9-2.5-1.6c-4-5.7-9.1-10.4-14.3-14.9c-5.3-4.6-10.8-8.8-16.9-12.3
		c-1.6-0.9-3.4-1.6-5.1-2.4c-0.2-0.1-0.5-0.2-0.7-0.3c-0.9-0.5-1.6-1.3-1.1-2.3C22.1,284.4,23,284.1,23.6,283.7z"/>
	<path d="M167.3,430.9c-9.5-0.5-19.9-1.4-29.8-4.9c-0.9-0.3-1.8-0.6-2.6-1.2c-0.4-0.3-0.8-1.2-0.7-1.7c0.1-0.9,1-1.1,1.8-1
		c0.4,0.1,0.8,0.2,1.2,0.4c6.2,2.5,12.8,3.5,19.3,4.2c5.1,0.5,10.3,0.6,15.4,0.7c3.8,0.1,7.5-0.6,11.2-1.7c0.4-0.1,0.9-0.4,1.2-0.3
		c0.6,0.2,1.3,0.6,1.5,1.1c0.2,0.4-0.1,1.3-0.4,1.6c-0.5,0.5-1.3,0.8-2.1,1C178.5,430.5,173.4,430.8,167.3,430.9z"/>
	<path d="M86.7,296.6c-0.9-0.2-2.3-0.4-3.6-0.8c-6.9-2.2-13.7-4.4-20.6-6.6c-3-1-6.1-2-9.1-2.9c-1.7-0.5-3.4-1.3-5.3-0.9
		c-0.6,0.1-1.4-0.2-1.8-0.7c-0.5-0.5-0.9-1.4-0.7-2c0.2-0.6,1-1.2,1.7-1.3c1-0.1,2.1,0.1,3,0.4c7.1,2.2,14.3,4.5,21.4,6.7
		c5.2,1.6,10.4,3.1,15.5,4.6c0.2,0,0.3,0.1,0.5,0.1c0.9,0.3,1.7,0.7,1.6,1.7C89.2,296.4,88.2,296.7,86.7,296.6z"/>
	<path d="M5,466.4c-0.7-0.6-1.6-0.9-1.9-1.6c-0.5-1.1,0.5-1.7,1.3-2.2c7.8-4,14.3-9.8,20.7-15.7c2.1-2,4-4.2,6-6.4
		c0.3-0.3,0.5-0.8,0.9-0.9c0.6-0.2,1.5-0.4,1.8-0.1c0.4,0.3,0.5,1.2,0.4,1.8c-0.1,0.6-0.6,1.2-1,1.8c-1.1,1.3-2.2,2.7-3.4,3.9
		c-6.3,6.2-12.8,12-20.3,16.7c-0.7,0.4-1.2,1-1.8,1.4C6.9,465.5,6.1,465.9,5,466.4z"/>
	<path d="M174.4,447.2c-6.7-0.5-13.3-1.8-19.8-3.3c-4.1-1-8.2-2.2-12.2-3.3c-0.9-0.3-1.8-0.7-2.6-1.1c-0.8-0.4-1.1-1.2-0.6-2
		c0.3-0.4,1.1-0.6,1.7-0.8c0.3-0.1,0.6,0.2,1,0.3c9.9,3.2,20.1,5.5,30.5,6.8c1.2,0.2,2.4,0.1,3.6,0.2c1.5,0.2,2.3,0.8,2.1,1.8
		c-0.2,1.4-1.2,1.5-2.3,1.5C175.3,447.2,174.9,447.2,174.4,447.2z"/>
	<path d="M81.1,530.2c-0.1,1.5-0.7,2.3-1.7,2.3c-1.2,0.1-1.7-0.8-1.8-1.8c-1.4-8.4-4.6-16.2-7.1-24.3c-0.8-2.5-1.7-4.9-2.4-7.4
		c-0.6-1.8-0.1-3,1-3.2c1.1-0.2,2.3,0.7,2.6,2.4c1.6,8.2,5.1,15.7,7.3,23.7C79.7,524.7,80.4,527.4,81.1,530.2z"/>
	<path d="M103.9,310c0.3,0.2,0.9,0.3,1.4,0.7c0.8,0.7,1.7,1.5,2.4,2.4c6.5,7.6,12.8,15.4,17.4,24.3c0.9,1.8,1,2.6,0,3.1
		c-1,0.6-2.1,0.1-3-1.6c-5-9.5-11.7-17.9-18.8-25.9c-0.3-0.4-0.7-0.8-0.9-1.2C102.1,311,102.7,310.1,103.9,310z"/>
	<path d="M227.5,536.1c0.6,0.2,1,0.4,1.4,0.6c8.6,3.9,17.1,7.7,25.7,11.6c0.9,0.4,1.9,0.9,2.8,1.4c0.9,0.5,1.5,1.3,0.9,2.4
		c-0.6,1.1-1.5,0.9-2.5,0.5c-1.6-0.7-3.1-1.5-4.7-2.2c-7.2-3.3-14.4-6.5-21.7-9.8c-1-0.5-2-1-2.8-1.7c-0.3-0.3-0.5-1.1-0.3-1.6
		C226.5,536.7,227.1,536.4,227.5,536.1z"/>
	<path d="M233.3,520.4c0.4,0.1,1,0.3,1.6,0.6c1.5,0.7,3,1.4,4.3,2.4c4.9,3.6,9.8,7.3,14.5,11.1c1.4,1.1,2.4,2.6,3.5,4.1
		c0.6,0.8,0.7,1.8-0.3,2.5c-0.9,0.7-1.8,0.3-2.6-0.4c-0.5-0.5-1.1-0.9-1.3-1.5c-0.9-2-2.6-3.4-4.3-4.7c-4-3-7.9-6-12-8.9
		c-1.2-0.8-2.8-1.3-4.2-1.7c-1.1-0.3-1.7-0.9-1.6-2C231,520.7,231.9,520.4,233.3,520.4z"/>
	<path d="M72.2,543.4c0,1.6,0.1,2.7,0,3.8c-0.1,1-0.6,1.8-1.6,1.6c-0.6-0.1-1.1-0.9-1.5-1.5c-0.2-0.3-0.1-0.8-0.1-1.3
		c-0.1-8.9-2.8-17.2-6-25.5c-0.2-0.6-0.7-1.2-0.8-1.9c-0.1-0.5,0.2-1.4,0.6-1.5c0.5-0.2,1.4-0.2,1.8,0.2c0.6,0.5,1,1.4,1.4,2.1
		C68.8,525.4,71.8,537.4,72.2,543.4z"/>
	<path d="M53.4,534.7c-0.8,5.2-1.4,10.4-2.3,15.6c-0.4,2.4-1.2,4.8-1.9,7.2c-0.1,0.4-0.2,0.8-0.5,1.2c-0.6,0.9-1.5,1.1-2.5,0.7
		c-1-0.4-1.1-1.4-0.7-2.2c2.1-4.2,2.4-8.7,3.2-13.2c0.4-2,0.5-4.1,0.8-6.1c0.2-1.2,0.3-2.4,0.5-3.6c0.2-1,0.7-1.9,1.9-1.7
		C53.2,532.8,53.4,533.8,53.4,534.7z"/>
	<path d="M99.3,264.2c-2,0-4,0-5.9,0c-0.6,0-1.3,0.1-1.8-0.2c-0.5-0.3-1-0.9-1.1-1.5c-0.1-0.4,0.6-0.9,1-1.3c0.2-0.2,0.7-0.2,1-0.2
		c6.5-0.3,13.1-0.7,19.6-1c0.5,0,1.1,0,1.5,0.2c0.8,0.3,1.5,0.9,1.3,1.9c-0.2,0.9-0.9,1.1-1.8,1.2c-3.1,0.2-6.2,0.4-9.3,0.5
		c-1.5,0.1-3.1,0-4.6,0C99.3,264,99.3,264.1,99.3,264.2z"/>
	<path d="M148.4,474.1c-0.5,0.6-0.9,1.4-1.2,1.4c-0.7,0-1.5-0.3-2-0.7c-2.9-2.5-5.6-5.1-8.5-7.6c-1.2-1-2.5-1.8-3.7-2.8
		c-1.1-0.9-1.4-1.8-0.8-2.6c0.8-1,1.7-0.7,2.6-0.2c0.2,0.1,0.5,0.3,0.6,0.4c3.8,3.1,7.5,6.3,11.3,9.5
		C147.3,472.1,147.7,473.1,148.4,474.1z"/>
	<path d="M98.6,323.4c0.3,0.1,0.8,0.3,1.2,0.6c3.1,2.8,5.8,5.9,7.6,9.7c0.1,0.3,0.4,0.7,0.3,1c-0.2,0.6-0.5,1.4-1,1.6
		c-0.5,0.2-1.2-0.2-1.8-0.4c-0.2-0.1-0.3-0.4-0.4-0.6c-1.4-3.3-3.9-5.8-6.3-8.4c-0.4-0.4-0.9-0.9-1.1-1.4
		C96.6,324.3,97.3,323.3,98.6,323.4z"/>
	<path d="M516.2,214.2c0-3-0.1-6,0-9c0.1-2.4,0.6-2.7,3-3c1.9-0.2,3.7-0.8,5.6-1c5.9-0.5,11.8-0.9,17.8-1.1c2.6-0.1,2.9,0.3,3.2,2.9
		c0.7,5.4,1.4,10.8,2.1,16.1c0.1,0.5,0.1,1,0.2,1.5c0.1,2.6-0.6,3.4-3.3,3.5c-5.2,0.2-10.3,0.2-15.5,0.5c-3.3,0.2-6.5,0.6-9.7,1
		c-2.7,0.3-3.5-0.2-3.6-2.9c0-2.8,0-5.7,0-8.5C516,214.2,516.1,214.2,516.2,214.2z M519.2,222.7c0.7,0,1.1,0,1.5,0
		c3.7-0.3,7.4-0.6,11-0.9c3.8-0.2,7.6-0.3,11.3-0.5c1.9-0.1,2.3-0.5,2-2.4c-0.6-4.8-1.3-9.5-1.9-14.3c-0.2-1.2-0.7-1.9-1.9-2
		c-0.9-0.1-1.7-0.2-2.6-0.1c-1.7,0.1-3.4,0.2-5.1,0.4c-4.2,0.5-8.3,1-12.5,1.7c-2.2,0.4-2.5,0.9-2.5,3.1c0.1,3.9,0.1,7.7,0.2,11.6
		C518.8,220.5,519,221.6,519.2,222.7z"/>
	<path d="M624.6,321.3c0.1-2.1,0.2-4.1,0.4-6.2c0.2-2.6,0.7-3.2,3.2-3.4c2.7-0.2,5.5-0.2,8.3-0.1c2.9,0.1,5.8,0.6,8.7,0.9
		c2.5,0.3,3.3,1.1,3.1,3.8c-0.2,3.1-0.6,6.2-1.1,9.2c-0.8,5.1-0.9,4.9-5.6,4.9c-4.1,0-8.3,0.3-12.4,0.5c-0.8,0-1.6,0.1-2.3,0
		c-1.7-0.2-2.4-1-2.5-2.7c-0.1-2.2,0-4.5,0-6.7C624.5,321.3,624.5,321.3,624.6,321.3z M635.6,327.8
		C635.6,327.8,635.6,327.8,635.6,327.8c2.1-0.1,4.3-0.3,6.4-0.4c1.9-0.1,2.1-0.1,2.5-2.1c0.5-2.6,0.9-5.3,1.2-7.9
		c0.3-2.1,0-2.5-1.9-2.8c-3.7-0.4-7.4-0.7-11-0.9c-1-0.1-2.1,0.1-3.1,0.2c-1.9,0.3-2.3,0.8-2.5,2.7c-0.2,2.6-0.4,5.1-0.5,7.7
		c0,0.8,0,1.5,0.2,2.3c0.2,1.1,0.8,1.6,2,1.5C631.2,328,633.4,327.9,635.6,327.8z"/>
	<path d="M560.6,328.4c-2.5,0-5,0-7.5,0c-2.8,0-3.3-0.5-3.5-3.3c-0.2-3.2-0.5-6.4-0.6-9.5c-0.1-2.8,0.8-4.2,3.6-4.3
		c4.4-0.2,8.8-0.1,13.2-0.1c1.2,0,2.4,0.1,3.6,0.3c2,0.3,2.6,1.1,2.7,3.1c0.1,3.6,0.2,7.2,0.3,10.8c0.1,2.1-0.8,3.1-3.1,3.1
		c-2.8,0.1-5.7,0-8.5,0C560.6,328.5,560.6,328.4,560.6,328.4z M561.1,325.9C561.1,325.9,561.1,325.8,561.1,325.9c2.2,0,4.5,0,6.7,0
		c1.2,0,1.9-0.6,1.8-1.9c-0.1-2.6,0-5.1,0-7.7c0-2.1-0.3-2.5-2.4-2.5c-4.4-0.1-8.8-0.1-13.2,0c-2.4,0.1-3.1,1.1-2.9,3.5
		c0.3,2.1,0.6,4.3,0.9,6.4c0.3,1.9,0.6,2.2,2.5,2.3C556.7,325.9,558.9,325.9,561.1,325.9z"/>
	<path d="M600.4,328.6c-2.8,0-5.5,0.1-8.3,0c-2.6-0.1-3.1-0.8-3-3.4c0.1-3.6,0.2-7.2,0.3-10.9c0.1-2.3,0.5-2.8,2.7-3.3
		c0.7-0.1,1.4-0.2,2.1-0.2c4.4,0,8.8,0,13.2,0c3.2,0,3.4,0.4,3.4,3.7c0,3.7,0.1,7.4,0.2,11.1c0.1,2.5-0.4,3.1-2.9,3.2
		c-2.6,0.1-5.2,0-7.8,0C600.4,328.8,600.4,328.7,600.4,328.6z M600.4,326.5C600.4,326.4,600.4,326.4,600.4,326.5
		c2.1-0.1,4.1-0.1,6.2-0.1c1.2,0,2-0.6,1.9-1.9c-0.3-3.1-0.2-6.2,0.2-9.2c0.1-1.1-0.3-1.8-1.5-2c-4.6-0.6-9.1-0.4-13.6,0.1
		c-1.5,0.2-2.1,0.9-2.1,2.3c0,2.7,0,5.5,0.1,8.2c0.1,1.7,0.4,2,2.2,2.2C595.9,326.2,598.2,326.3,600.4,326.5z"/>
	<path d="M511.7,319.6c0-2.1-0.1-4.1,0-6.2c0.1-2,0.6-2.5,2.5-2.4c3.9,0.2,7.9,0.4,11.8,0.7c3,0.3,3.7,1,3.9,4
		c0.2,3.4,0.4,6.9,0.5,10.3c0.1,2.8-0.7,3.5-3.4,3.7c-3.6,0.2-7.2,0.5-10.8,0.6c-3.3,0.1-4.3-0.9-4.4-4.3
		C511.6,323.9,511.7,321.7,511.7,319.6C511.7,319.6,511.7,319.6,511.7,319.6z M513.8,319.1c0.2,2.5,0.2,4.5,0.5,6.6
		c0.2,1.8,0.8,2.3,2.5,2.2c3-0.1,6-0.4,9-0.6c1-0.1,1.8-0.5,1.8-1.8c0-3.2,0.1-6.4-0.1-9.5c-0.1-1.6-0.9-2.1-2.5-2.2
		c-0.8,0-1.5-0.1-2.3-0.2c-2.2-0.2-4.4-0.4-6.6-0.4c-1.9,0-2.4,0.6-2.4,2.5C513.8,317,513.8,318.3,513.8,319.1z"/>
	<path d="M497.7,321.4c0,1.9,0.1,3.8,0,5.7c-0.1,2.1-0.7,2.5-2.7,2.7c-3.5,0.4-7,0.9-10.5,1.3c-0.4,0.1-0.9,0.1-1.3,0.2
		c-2.2,0.1-3-0.6-3.1-2.8c-0.1-2.5,0-5-0.2-7.5c-0.1-1.6-0.6-3.2-1-4.8c-0.5-1.8,0-2.9,1.8-3.3c4.8-0.9,9.6-1.1,14.4-0.5
		c1.7,0.2,2.5,1.1,2.6,3C497.8,317.4,497.7,319.4,497.7,321.4C497.7,321.4,497.7,321.4,497.7,321.4z M489.2,314.2
		c-1.6,0.1-3.9,0.3-6.2,0.5c-2.1,0.2-2.6,1.3-1.8,3.2c0.3,0.7,0.6,1.4,0.7,2.2c0.2,2,0.4,3.9,0.5,5.9c0.2,2.6,0.4,2.7,3,2.4
		c2.6-0.3,5.3-0.7,7.9-1c1.3-0.1,1.8-0.8,1.8-2c0.1-1.8,0.3-3.6,0.4-5.4C495.9,315,494.9,314.1,489.2,314.2z"/>
	<path d="M450,322.9c0-2-0.1-4,0-5.9c0.1-2,0.5-2.4,2.5-2.5c2.6-0.2,5.1-0.4,7.7-0.5c2.1,0,2.8,0.7,3,2.7c0.2,3.5,0.5,7,0.6,10.6
		c0.1,2.3-0.5,2.9-2.6,3.4c-2.4,0.5-4.9,1-7.3,1.5c-2.3,0.4-3.5-0.4-3.6-2.8C450,327.2,450.1,325.1,450,322.9
		C450.1,322.9,450,322.9,450,322.9z M451.9,321.3c0.1,1,0.1,2,0.2,3.1c0.1,1.1,0.2,2.2,0.3,3.3c0.2,1.6,0.7,2,2.2,1.7
		c1.6-0.3,3.2-0.6,4.8-1c1.6-0.4,2-1.1,1.9-2.8c-0.1-2.2-0.3-4.5-0.4-6.7c-0.2-2.3-0.6-2.7-2.8-2.7c-0.4,0-0.9,0-1.3,0.1
		C452.5,316.7,451.3,317.3,451.9,321.3z"/>
	<path d="M772.1,557.2c0.7-1.2,1.2-2.4,2-3.1c1.4-1.2,3-2.4,4.6-3.3c7.1-3.9,14.7-6.2,22.6-7.9c0.7-0.1,1.4-0.2,2,0
		c0.5,0.1,1.1,0.7,1.2,1.1c0.1,0.4-0.3,1.1-0.8,1.4c-0.5,0.4-1.3,0.4-2,0.6c-5.6,1.8-11.2,3.4-16.7,5.3c-2.5,0.9-4.8,2.3-7,3.8
		c-1,0.6-1.8,1.8-2.5,2.8c-0.5,0.7-0.9,1.5-1.7,1.2C773.2,558.8,772.8,557.9,772.1,557.2z"/>
	<path d="M782.4,538c1.1,0.1,2.2,0.1,3.3,0.2c1,0.2,1.9,0.6,1.7,1.9c-0.2,1.1-1.1,1.2-2,1.2c-5.2-0.2-10.3,0.7-15.4,1.6
		c-2.3,0.4-4.6,0.6-6.5,2.2c-0.3,0.3-0.8,0.3-1.2,0.4c-1.1,0.1-2.2,0-2.6-1.2c-0.5-1.3,0.4-2,1.4-2.4c2.4-0.8,4.7-1.7,7.2-2.1
		c4.6-0.8,9.3-1.4,14-2C782.4,537.9,782.4,537.9,782.4,538z"/>
	<path class="st10" d="M519.2,222.7c-0.2-1.1-0.4-2.2-0.4-3.3c-0.1-3.9-0.2-7.7-0.2-11.6c0-2.2,0.3-2.8,2.5-3.1
		c4.1-0.7,8.3-1.2,12.5-1.7c1.7-0.2,3.4-0.3,5.1-0.4c0.8,0,1.7,0.1,2.6,0.1c1.2,0.1,1.8,0.7,1.9,2c0.6,4.8,1.3,9.5,1.9,14.3
		c0.2,1.8-0.1,2.3-2,2.4c-3.8,0.2-7.6,0.3-11.3,0.5c-3.7,0.2-7.4,0.6-11,0.9C520.3,222.8,519.9,222.7,519.2,222.7z"/>
	<path class="st10" d="M635.6,327.8c-2.2,0.1-4.5,0.2-6.7,0.4c-1.2,0.1-1.8-0.4-2-1.5c-0.1-0.8-0.2-1.5-0.2-2.3
		c0.1-2.6,0.3-5.1,0.5-7.7c0.1-1.9,0.6-2.4,2.5-2.7c1-0.2,2.1-0.3,3.1-0.2c3.7,0.3,7.4,0.5,11,0.9c2,0.2,2.2,0.7,1.9,2.8
		c-0.4,2.6-0.8,5.3-1.2,7.9c-0.3,2-0.5,2.1-2.5,2.1C639.9,327.5,637.8,327.7,635.6,327.8C635.6,327.8,635.6,327.8,635.6,327.8z"/>
	<path class="st10" d="M561.1,325.9c-2.2,0-4.3,0.1-6.5,0c-1.9-0.1-2.2-0.3-2.5-2.3c-0.3-2.1-0.7-4.3-0.9-6.4
		c-0.3-2.5,0.4-3.5,2.9-3.5c4.4-0.1,8.8-0.1,13.2,0c2,0,2.3,0.5,2.4,2.5c0,2.6,0,5.1,0,7.7c0,1.4-0.6,1.9-1.8,1.9
		C565.5,325.9,563.3,325.8,561.1,325.9C561.1,325.8,561.1,325.9,561.1,325.9z"/>
	<path class="st10" d="M600.4,326.5c-2.2-0.2-4.5-0.3-6.7-0.5c-1.8-0.2-2.2-0.4-2.2-2.2c-0.1-2.7-0.1-5.5-0.1-8.2
		c0-1.5,0.6-2.2,2.1-2.3c4.5-0.5,9.1-0.6,13.6-0.1c1.2,0.2,1.6,0.9,1.5,2c-0.4,3.1-0.5,6.2-0.2,9.2c0.1,1.3-0.7,1.9-1.9,1.9
		C604.5,326.4,602.5,326.4,600.4,326.5C600.4,326.4,600.4,326.4,600.4,326.5z"/>
	<path class="st10" d="M513.8,319.1c0-0.9,0-2.2,0-3.5c0-1.9,0.5-2.5,2.4-2.5c2.2,0,4.4,0.3,6.6,0.4c0.8,0.1,1.5,0.2,2.3,0.2
		c1.6,0.1,2.5,0.6,2.5,2.2c0.1,3.2,0.1,6.4,0.1,9.5c0,1.2-0.8,1.7-1.8,1.8c-3,0.3-6,0.5-9,0.6c-1.8,0.1-2.3-0.4-2.5-2.2
		C514,323.7,514,321.6,513.8,319.1z"/>
	<path class="st10" d="M489.2,314.2c5.8-0.1,6.7,0.8,6.4,5.8c-0.1,1.8-0.3,3.6-0.4,5.4c-0.1,1.2-0.5,1.9-1.8,2
		c-2.6,0.3-5.3,0.7-7.9,1c-2.6,0.3-2.8,0.2-3-2.4c-0.1-2-0.3-3.9-0.5-5.9c-0.1-0.7-0.4-1.5-0.7-2.2c-0.8-1.9-0.3-3,1.8-3.2
		C485.3,314.5,487.6,314.4,489.2,314.2z"/>
	<path class="st10" d="M451.9,321.3c-0.6-4,0.6-4.6,4.9-5c0.4,0,0.9-0.1,1.3-0.1c2.2,0,2.7,0.4,2.8,2.7c0.1,2.2,0.3,4.5,0.4,6.7
		c0.1,1.7-0.4,2.4-1.9,2.8c-1.6,0.4-3.2,0.7-4.8,1c-1.5,0.3-2-0.1-2.2-1.7c-0.2-1.1-0.2-2.2-0.3-3.3
		C452,323.3,451.9,322.3,451.9,321.3z"/>
</g>
</svg>
