<?xml version="1.0" encoding="utf-8"?>
<!-- Generator: Adobe Illustrator 21.0.0, SVG Export Plug-In . SVG Version: 6.00 Build 0)  -->
<svg version="1.1" id="Слой_1" xmlns="http://www.w3.org/2000/svg" xmlns:xlink="http://www.w3.org/1999/xlink" x="0px" y="0px"
	 viewBox="0 0 828.2 595.3" style="enable-background:new 0 0 828.2 595.3;" xml:space="preserve">
<style type="text/css">
	.st0{fill:#A1C1B3;}
	.st1{clip-path:url(#SVGID_2_);}
	.st2{fill:#D2E4E3;}
	.st3{fill:#E1DDCD;}
	.st4{fill:#BAD189;}
	.st5{fill:#ACA9BD;}
	.st6{fill:#B1D5D7;}
	.st7{fill:#97A7A2;}
	.st8{fill:#D2C08B;}
	.st9{fill:#7FA83D;}
	.st10{fill:#CC998D;}
	.st11{fill:#D2B539;}
	.st12{fill:#564680;}
	.st13{fill:#C7CACD;}
	.st14{fill:#9FC059;}
	.st15{fill:#BB77A8;}
</style>
<rect x="1.4" y="79.5" class="st0" width="334.3" height="463.5"/>
<g>
	<defs>
		<rect id="SVGID_1_" x="1.4" y="79.5" width="334.3" height="463.5"/>
	</defs>
	<clipPath id="SVGID_2_">
		<use xlink:href="#SVGID_1_"  style="overflow:visible;"/>
	</clipPath>
	<g class="st1">
		<path class="st2" d="M290.4,44.2c-12.5-4.8-26.2-5.7-39.6-6.1c-24.3-0.7-48.7,0.3-72.9,3c-20.7,2.3-42,6.1-59.6,17.3
			C105.7,66.4,95.6,78,82.9,85.9c-7.7,4.8-16.5,8.4-22.8,15c-7.3,7.6-10.4,18.2-12.1,28.6c-3.4,20.4-1.6,43.6,12.8,58.4l7.8,16.6
			c79.9,0.5,159.9,0.9,239.8,1.4c4,0,8.2,0,11.8-1.8c3.3-1.7,5.7-4.8,7.8-7.9c11.3-17.2,15.7-38.2,15.7-58.7
			C343.9,99.3,326,57.7,290.4,44.2z"/>
		<path class="st2" d="M261.8,222.6c-4.8-0.4-9.7,0.8-14.5,0.5c-7.2-0.4-14-4.4-17.9-10.4l-7.5,3.2c-52.3-2.8-104.8-1.4-156.9,4.1
			c-6.5,0.7-14.3,2.4-16.3,8.6c-2.8,8.5,7.8,15,16.6,16.9c14.1,3,28.6,3.5,43,3.9c50.6,1.5,101.3,3,151.9,4.4
			c-7.4,9-4,24.5-13.1,31.8c-4.7,3.7-11.2,4-17.2,4c-62.8,0.4-125.5,0.8-188.3,1.2c19.8,12.9,44.8,14,68.4,14.7
			c41.2,1.2,82.3,2.3,123.5,3.5c5.9,0.2,12.1,0.3,17.5-2.2c4.8-2.2,8.5-6.4,11.9-10.4c9.9-11.6,19.8-24.4,21.7-39.6
			S277,223.9,261.8,222.6z"/>
		<path class="st2" d="M17.6,392.5l-7.4-2.7c-27-11-57.4,1.4-83.9,13.6c-7,3.2-14.5,6.9-18.3,13.6c-5.1,9-1.6,20.8,5.3,28.5
			s16.6,12.2,25.8,16.7c31.9,15.5,63.2,33.6,98,40.9c25.3,5.3,51.3,4.6,77.1,3.8c13.8-0.4,28.3-1,40-8.3
			c19.6-12.2,24.3-38.4,25.2-61.5c-64-4-128.1-6.3-192.2-7c-2.5,0-5-0.1-7.2-1.3c-7.3-4-3.5-15.1,1.1-22
			c64.9,0.7,129.7,1.5,194.6,2.2c12.5,0.1,27.4-0.9,34-11.5c-10.8-4.8-22.9-4.9-34.7-4.9C122.5,392.6,70,392.5,17.6,392.5z"/>
	</g>
</g>
<g>
	<path class="st3" d="M828.7,397c0,47.4,0,94.9,0,142.3c-0.6,0.4-1.3,0.8-1.9,1.3c-21.1,16.7-44.2,29.7-69.4,38.9
		c-16,5.9-32.5,10.3-49.1,14.2c-2.7,0.6-5.3,1.4-7.9,2.1c-232.9,0-465.9,0-698.8,0c-0.1-1-0.4-2-0.4-3c0-21.1,0-42.3,0-63.4
		c0-0.9,0-1.8,0-2.8c1.1-0.3,1.8-0.5,2.5-0.7c7.6-1.6,15.1-3.4,22.7-4.9c15.4-2.9,31-5,46.6-6.4c9.6-0.9,19.2-1.7,28.9-2.2
		c12.8-0.8,25.7-1.6,38.5-1.8c17.1-0.3,34.2-0.3,51.2-0.1c23.5,0.3,47.1,1.2,70.6,1.3c33.5,0.2,66.9,0,100.4-0.3
		c14.2-0.1,28.5-0.6,42.7-1.3c14.6-0.7,29.3-1.8,43.9-2.9c11.2-0.9,22.3-2,33.5-3.3c15.3-1.8,30.6-4.1,45.7-7.1
		c18.6-3.7,37-8.4,54.7-15.1c12.6-4.8,24.8-10.4,36-18.1c7.4-5.1,14-11.2,19-18.8c6.3-9.5,8.1-19.8,5.5-30.9
		c-2.5-10.9-8.1-20.3-15.3-28.7c-5.7-6.7-12.5-12.4-19-18.3c-6-5.4-11.9-10.7-17.6-16.4c-4.6-4.5-8.2-9.7-11-15.6
		c-3.5-7.4-4.2-14.9-1.2-22.6c1.3-3.2,2.6-6.4,4.5-9.3c2.9-4.2,6-8.2,9.4-12c11.5-12.4,24.8-22.7,39-31.8c1.1-0.7,2.2-0.9,3.4-0.9
		c9.2,0,18.5-0.1,27.7-0.1c33-0.1,65.9-0.3,98.9-0.4c0.5,0,1.1,0.1,1.9,0.2c-0.7,0.9-1.1,1.5-1.6,2c-10,11.5-17.5,24.6-23.8,38.3
		c-1.5,3.3-2.7,6.7-3.7,10.2c-4.3,14.9-1.9,28.7,7.6,41c3.3,4.3,7.4,8,11.8,11.2c6.9,5.1,14.3,9.4,22,13
		c13.5,6.2,27.2,12.2,40.8,18.2C821.2,394.1,825,395.5,828.7,397z"/>
	<path d="M828.7,397c-3.7-1.5-7.5-3-11.2-4.6c-13.6-6-27.3-12-40.8-18.2c-7.8-3.6-15.1-7.9-22-13c-4.4-3.2-8.4-6.9-11.8-11.2
		c-9.5-12.4-11.9-26.1-7.6-41c1-3.5,2.2-6.9,3.7-10.2c6.3-13.8,13.8-26.9,23.8-38.3c0.5-0.6,1-1.2,1.6-2c-0.8-0.1-1.3-0.2-1.9-0.2
		c-33,0.1-65.9,0.2-98.9,0.4c-9.2,0-18.5,0.1-27.7,0.1c-1.2,0-2.3,0.2-3.4,0.9c-14.3,9.1-27.5,19.4-39,31.8c-3.5,3.7-6.6,7.8-9.4,12
		c-1.9,2.8-3.3,6.1-4.5,9.3c-3,7.7-2.3,15.2,1.2,22.6c2.8,5.8,6.4,11.1,11,15.6c5.7,5.6,11.7,11,17.6,16.4
		c6.5,5.9,13.3,11.5,19,18.3c7.2,8.5,12.7,17.8,15.3,28.7c2.6,11.1,0.8,21.4-5.5,30.9c-5,7.6-11.6,13.6-19,18.8
		c-11.1,7.7-23.3,13.3-36,18.1c-17.8,6.7-36.1,11.4-54.7,15.1c-15.1,3-30.4,5.3-45.7,7.1c-11.1,1.3-22.3,2.4-33.5,3.3
		c-14.6,1.1-29.2,2.2-43.9,2.9c-14.2,0.7-28.4,1.2-42.7,1.3c-33.5,0.3-66.9,0.5-100.4,0.3c-23.5-0.1-47.1-1-70.6-1.3
		c-17.1-0.2-34.2-0.2-51.2,0.1c-12.8,0.2-25.7,1.1-38.5,1.8c-9.6,0.6-19.3,1.3-28.9,2.2c-15.6,1.5-31.2,3.5-46.6,6.4
		c-7.6,1.5-15.2,3.2-22.7,4.9c-0.8,0.2-1.5,0.4-2.5,0.7c0,0.9,0,1.9,0,2.8c0,21.1,0,42.3,0,63.4c0,1,0.2,2,0.4,3c-0.3,0-0.7,0-1,0
		c0-198.4,0-396.8,0-595.3c1.4,0,2.9,0,4.3,0c273.9,0,547.7,0,821.6,0c0.8,0,1.8-0.6,2.3,0.5c-3.6,0-7.2,0-11,0
		c-2,84.7-3.6,169.1-7,253.6c6.2,0,12.1,0,18,0c0,1,0,2.1,0,3.1c-1.1,0-2.2,0.1-3.4,0.1c-18.2,0.1-36.4,0.2-54.6,0.3
		c-1.3,0-2.4,0.2-3.4,1.3c-8.5,9.8-15.7,20.5-21.8,32c-3.2,6-5.9,12.3-7.6,18.9c-1.6,6.2-2.2,12.4-1.1,18.7
		c1.8,10,6.8,18.1,14.2,24.9c5.1,4.6,10.8,8.3,16.7,11.7c11,6.2,22.5,11.3,34,16.3c8.9,3.9,17.9,7.6,26.9,11.4
		C828.7,394.6,828.7,395.8,828.7,397z M301.8,396.2c-1-0.1-1.5-0.2-2.1-0.2c-6.7-0.3-13.4-0.7-20.2-0.8c-18.4-0.3-36.7-0.6-55.1-0.6
		c-7.6,0-15.2,0.6-22.7,1c-2.3,0.1-4.2,0.6-5,3.1c-0.3,1-1.1,1.8-1.5,2.7c-4.4,9.2-10.5,17.2-16.7,25.2c-8.8,11.2-19.9,19.8-32,27.1
		c-5.6,3.4-11.6,6-17.5,8.9c-5.7,2.7-11.6,4.9-17.8,6.1c-4.2,0.8-8,0.5-9.9-4.3c-33.3,0-66.6,0-99.8,0c-0.6,4.1-0.3,58.2,0.3,60.2
		c0.8-0.2,1.6-0.4,2.4-0.6c15.5-4.1,31.3-7.2,47.2-9.2c13.5-1.8,27.1-3.3,40.6-4.3c17.1-1.3,34.2-2.4,51.4-2.9
		c20.1-0.5,40.2-0.3,60.3-0.1c27.3,0.3,54.7,1,82,1.2c30.5,0.3,61.1,0,91.6-0.9c10.5-0.3,21-0.7,31.5-1.2
		c11.7-0.6,23.4-1.4,35.1-2.3c11.8-0.9,23.5-2,35.3-3.3c14.8-1.6,29.6-3.8,44.2-6.6c19.2-3.6,38.1-8.2,56.4-15
		c12.7-4.7,25.1-10.2,36.4-17.8c7.6-5.1,14.3-11.1,19.3-18.9c5.4-8.2,7.1-17.1,5.1-26.7c-1.7-8.1-5.1-15.3-9.8-22.1
		c-5.1-7.4-11.6-13.7-18.3-19.7c-6.9-6.2-14-12.3-20.7-18.7c-5.6-5.3-10.3-11.4-13.7-18.4c-4.3-8.8-4.9-17.7-1.2-26.8
		c1.4-3.5,3.2-6.9,5.2-10.1c3.3-5.3,7.5-9.9,11.9-14.3c9.5-9.5,19.8-17.9,30.9-25.4c0.7-0.5,1.7-0.7,2-1.9
		c-102.4,0.5-204.6,0.9-307.2,1.4c0.4,41.2,0.8,82.2,1.1,123.6c1.2-0.6,2-1.2,2.8-1.5c7.7-3.1,6.1-2.7,10.7-9.4
		c2.9-4.3,6.7-7.6,11.7-9.4c1.5-0.6,3-1.3,4.5-2c2.4-1.1,4-2.9,5.1-5.3c0.4-0.8,0.7-1.6,1.1-2.4c2-4,4.9-6.6,9.5-7.6
		c3.2-0.7,6.2-2,9.2-3.3c7.2-3.2,14.4-6.6,21.6-9.8c2.7-1.2,5.6-1.9,8.6-1.7c6.1,0.5,12,2.3,17.8,4.1c0.3,0.1,0.6,0.3,0.9,0.5
		c2.1,0.9,4.1,2,6.2,2.5c5.1,1.2,8.7,4.1,11.6,8.4c2.9,4.5,6.6,8,11.5,10.4c4,2,7.5,4.8,11.2,7.3c3.8,2.6,7.4,5.4,11.3,7.7
		c3,1.8,5.9,3.5,8.1,6.3c1.2,1.5,2.7,2.3,4.6,2.5c1.1,0.1,2.2,0.3,3.3,0.5c3.6,0.4,7.1,1.1,10.5,2.7c1.6,0.7,3.1,1.4,4.7,2.1
		c3.6,1.5,6.8,3.7,9.4,6.7c2.3,2.5,4.8,4.6,8,6.1c2.9,1.3,5,3.5,6.7,6.2c1.2,2,2.8,3.7,4.1,5.6c0.8,1.1,1.7,2.3,2,3.5
		c0.6,2.8,2.4,4.1,4.9,4.8c1.1,0.3,2.2,0.5,3.3,0.7c2.6,0.6,4.2,2.2,4.7,4.9c0.1,0.6,0.3,1.1,0.5,1.8c1.6,0,3.1-0.1,4.5,0
		c1.5,0.1,2.1,1.2,1.3,2.6c-0.3,0.5-0.7,1-1.1,1.4c-2.5,3.1-4.9,6.2-7.4,9.3c-0.7,0.9-1.1,1.8-1.1,3c-0.1,3.7-0.3,7.4-0.5,11.1
		c-0.2,3.8-0.2,3.9-4,3.9c-16.1-0.1-32.3-0.1-48.4-0.2c-18.9-0.1-37.8-0.1-56.7-0.1c-29.4,0-58.8-0.1-88.2-0.1
		c-21.7,0-43.5,0-65.2-0.1c-3.1,0-3.3-0.3-3.5-3.4c-0.2-3.7-0.5-7.4-0.7-11.1c-0.1-1.2-0.3-2.3-1.3-3.3c-3.8-3.7-7.5-7.4-11.2-11.1
		c-0.6-0.6-1.1-1.4-1.8-2.4c3.4-1.7,6.6,0.1,9.8-1c1.4-5.8,5.6-9.1,11.1-11.2c1.4-0.6,2.8-1.3,4.2-1.9c4.4-2,7.8-5,10.6-8.8
		c0.4-0.5,0.6-1.2,0.7-1.9C302,399.8,301.9,398.1,301.8,396.2z M227.2,114.7c1.5,0,2.6,0,3.7,0c14.5,0,29-0.2,43.5,0
		c2.8,0,5.4-0.3,8-1.4c4.4-1.9,9-3.7,14.2-2.5c0-1.1,0-2,0-3c-0.3-17.3-0.7-34.7-0.9-52c0-3,0.3-6,0.9-9c0.5-2.7,2-5,4.9-5.8
		c4.7-1.5,13.3,0.7,15.5,7.5c0.8,2.4,1,4.9,1,7.4c0,8.4,0,16.9,0,25.3c0.1,19.2,0.3,38.3,0.5,57.5c0,1,0,2,0,3.2c1.3,0,2.2,0,3.2,0
		c12.2,0.4,21.2,5.8,26.5,17c0.2,0.5,0.5,1,0.8,1.4c5.7-4.4,11.2-2.2,16.9,0.2c-0.1-0.7-0.1-1.4-0.3-1.9c-1.1-2.7-2.3-5.4-3.5-8
		c-1.4-3-3.1-6-4.3-9.1c-2.1-5.5-1-10.7,2.7-15.2c4.1-5,9.5-8.3,15.6-10.1c7.9-2.4,16-2.5,24-0.8c8.4,1.8,15.4,6,19.7,13.8
		c0.1,0.2,0.5,0.3,0.7,0.5c0.6-3,1.2-5.9,1.8-8.8c1.2-5.6,4.6-9.3,9.8-11.5c9.6-3.9,19.6-4.9,29.6-2.5c8.9,2.2,14.8,7.9,17.2,16.8
		c0.3,1,0.4,2,0.6,3c3.7-1,7.3-2.2,11.1-1.8c3.9,0.4,7.2,2.1,10.2,4.6c0.5-4.7,0.2-126.5-0.3-128.3c-166.4,0-332.7,0-499.2,0
		c0,6.6,0,13,0,19.6c1.1,0,2.1,0,3,0c43.3-0.1,86.6-0.2,129.9-0.2c0.9,0,1.9-0.1,2.8,0.1c0.7,0.2,1.4,0.7,1.8,1.2
		c0.4,0.5,0.6,1.2,0.8,1.9c12.6,30.2,25.1,60.4,37.7,90.7c0.3,0.6,0.6,1.2,0.9,1.9c1.1-0.3,2.1-0.6,3.1-0.9c4.9-1.4,9.8-2.7,14.7-4
		c3-0.8,6.1-1.2,9.3,0.5c0-1.3,0-2.3,0-3.3c-0.3-17.6-0.7-35.2-0.9-52.8c0-3,0.3-6,0.9-9c0.5-2.6,2-4.8,4.7-5.7
		c4.8-1.6,13.4,0.6,15.6,7.3c0.8,2.5,1.1,5,1.1,7.6c0,7.4,0,14.8,0,22.2c0.1,11.4,0.2,22.8,0.3,34.2
		C227.2,113,227.2,113.6,227.2,114.7z M274.8,117.6c-1.2-0.1-1.9-0.1-2.6-0.1c-19.9,0.2-39.8,0.4-59.8,0.6
		c-9.3,0.1-18.2,1.8-26.6,5.8c-5.2,2.5-10.5,4.9-15.4,7.8c-9.3,5.6-18.2,11.9-26,19.6c-13.3,13.1-22.5,29-29.9,45.9
		c-2.5,5.7-4.3,11.6-6.1,17.6c-3.1,10.6-6.3,21.1-8.8,31.9c-2.2,9.4-3.4,19-5.1,28.5c-2.1,11.3-4.4,22.5-6.6,33.7
		c-1.9,9.6-3.8,19.3-6.7,28.7c-2.7,8.5-5.1,17.1-9.8,24.9c-7.3,12.2-17,22-28.2,30.3c-10.9,8.1-23.3,13.8-36.4,17.6
		c-1.8,0.5-3.7,0.9-5.4,1.4C0.9,415.2,1.1,459,1.7,461c0.9,0,2,0,3,0c31.5,0.1,63,0.2,94.4,0.4c1.6,0,2.6-0.4,3.7-1.7
		c0.9-1.1,2.4-2,3.8-2.6c1.6-0.7,3.4-1.1,5.2-1.5c3.5-0.8,7-1.8,10.2-3.5c9.4-4.9,18.4-10.5,26.2-17.9c9.6-9,18.2-18.8,24.6-30.5
		c3.3-6.1,6.3-12.2,8.5-18.8c5.3-16.7,9.5-33.7,12.9-50.8c2.6-13.3,5.3-26.5,7.8-39.8c3-15.6,5.4-31.2,9.3-46.6
		c3.1-12.2,6.1-24.4,9.6-36.5c4.1-14.6,10.3-28.5,16.6-42.3c8.7-19,20.6-35.6,36.2-49.6C273.9,118.8,274.2,118.4,274.8,117.6z
		 M686.9,145.4c-2.6-48.2-7-96.1-9.1-144.2c-58,0-115.8,0-173.6,0c0,62.2,0,124.1,0,186.3c1.2,0,2.1,0,3.1,0
		c28.7-0.1,57.5-0.3,86.2-0.4c4.2,0,4.3,0.1,4.3,4.4c0,20.4,0,40.9,0,61.3c0,1,0,2,0.1,2.9c5.7,0.4,20.8,0.2,22.7-0.3
		c0-0.5,0.1-1,0.1-1.5c0-9.6,0-19.2-0.1-28.7c-0.1-12.5-0.4-25,1.1-37.5c0.9-7.5,2.2-15,3.6-22.4c1.3-6.3,4.9-11.3,10.4-14.9
		c2.9-1.8,6-3,9.3-3.7c11.6-2.5,23.4-2.9,35.2-1.8C682.4,144.9,684.5,145.1,686.9,145.4z M702.3,1.1c0.5,62.8,1,125.3,1.5,187.7
		c2.3,0.6,51.4,0.5,53.2,0c0.6-4,1.1-8,1.9-12c1.1-6.1,3-12,6.4-17.3c3.3-5.2,7.9-8.6,13.8-10.2c2-0.5,4-1,6.1-1.2
		c7.1-0.8,14.2-1.4,21.4-2.1c1.5-0.1,3-0.3,4.8-0.5c1.1-48.2,2.3-96.2,3.4-144.3C777.2,1.1,740,1.1,702.3,1.1z M278.8,425.4
		c3.6,0.7,266.2,1.5,268.7,0.8c0.1-1.8-0.8-2.9-2.6-3.3c-1.4-0.3-2.9-0.6-4.3-1.1c-3-1.1-5.1-3-5.9-6.3c-0.2-0.9-0.9-1.8-1.4-2.7
		c-1.4-2-3.1-3.9-4.4-6c-1.4-2.2-3.1-4-5.4-5c-3.6-1.6-6.5-4.2-9.2-7c-1.4-1.5-3-3-4.8-3.9c-5.8-3-11.6-6.1-18.4-6.4
		c-4.2-0.2-7.8-1.7-10.5-5.3c-1-1.4-2.7-2.5-4.3-3.3c-4.7-2.2-8.8-5.5-12.9-8.6c-4.2-3.2-8.5-6.1-13.2-8.6c-2.1-1.1-4.1-2.6-5.8-4.2
		c-2.1-2.1-3.8-4.4-5.5-6.8c-2.1-3.1-4.8-5.2-8.5-6.2c-2.7-0.7-5.3-2.1-7.9-3.1c-1.3-0.5-2.6-1-3.9-1.4c-2.7-0.7-5.5-1.3-8.3-2
		c-4-1-7.9-1-11.7,0.6c-7,3-13.9,6.1-20.7,9.4c-3.7,1.8-7.5,3.6-11.6,4.3c-3.1,0.5-5.1,2.3-6.6,4.9c-0.6,1-1.1,2.2-1.6,3.3
		c-1.3,2.9-3.4,5.2-6.3,6.6c-1.6,0.7-3.1,1.4-4.7,2.1c-4.4,1.7-7.9,4.6-10.5,8.5c-0.8,1.2-1.7,2.4-2.4,3.7c-1.4,2.5-3.5,4.2-6.2,5.2
		c-1.4,0.6-2.8,1.2-4.2,2c-2.7,1.4-4.7,3.5-5.6,6.4c-0.3,1.1-0.9,2.1-1.3,3.1c-1.6,3.4-4,6-7.8,7.1c-3.1,0.9-5.5,2.7-7.4,5.3
		c-1.8,2.4-4,4.3-6.6,5.7c-2.3,1.3-4.8,2.4-7.1,3.6c-1.6,0.8-3.3,1.5-4.8,2.4C281.1,420.5,279.5,422.5,278.8,425.4z M364.4,193.8
		c0-1.2,0-2.1,0-2.9c0-1.9,0.6-2.5,2.4-2.7c0.4,0,0.9,0,1.3,0c10-0.1,20-0.2,30-0.2c33.5-0.2,66.9-0.3,100.4-0.5
		c0.8,0,1.7-0.1,2.5-0.1c0.1-0.6,0.1-0.9,0.1-1.2c0-12.9,0-25.7,0-38.6c0-0.8-0.5-1.5-0.7-2.3c-0.1-0.6-0.4-1.3-0.2-1.7
		c1.5-2,0.7-4.3,0.9-6.5c0.2-1.7-0.5-3-1.5-4.2c-3.5-4.1-8-5.7-13.2-4.7c-2.6,0.5-5.1,1.5-7.7,2.2c-2.3,0.6-3.2-0.1-2.6-2.4
		c0.4-1.8,0.2-3.4-0.4-5.1c-2.5-6.8-7.3-11.1-14.2-13.1c-4.8-1.4-9.7-1.3-14.6-1c-4.8,0.4-9.5,1.5-14,3.5c-3.9,1.8-6.4,4.6-7.4,8.8
		c-0.6,2.5-1.1,5.1-1.5,7.6c-0.5,2.8-0.9,5.6-1.3,8.4c-0.2,1-0.5,1.9-1.7,1.9c-1.1-0.1-1.4-0.9-1.5-1.8c-1.6-9.2-7.3-14.9-15.8-17.8
		c-9.8-3.3-19.7-3.1-29.4,0.6c-4.9,1.9-9.1,4.9-12.2,9.3c-2,2.9-2.9,6.1-1.8,9.6c1,2.9,2.3,5.7,3.6,8.5c1.2,2.6,2.6,5,3.8,7.6
		c1.1,2.4,1.6,4.9,1.4,7.6c-0.1,2-1,2.5-2.9,1.7c-0.5-0.3-1.1-0.6-1.6-0.9c-2.3-1.2-4.7-2.2-7.3-2.5c-4-0.4-5.3,0.4-6.8,4.1
		c-0.2,0.5-0.7,1.2-1.1,1.2c-0.6,0-1.4-0.3-1.7-0.8c-0.6-0.9-1-2-1.4-3.1c-1.5-4.3-4-8-7.3-11.1c-5.7-5.3-12.7-6.4-20.4-6.3
		c0.3,37.5,0.7,74.7,1,111.8c2.8,0.5,18.2,0.4,20-0.1c-0.4-5.7-0.8-11.3-1.1-17c-0.7-11.2-1.4-22.4-2-33.6c-0.1-1.8-0.1-3.6-0.2-5.4
		c-0.1-1.1,0.3-2,1.5-2.3c2-0.6,3.8-1.6,5.8-2c4.1-0.7,8.2-1.2,12.3-1.7C358.7,194.3,361.4,194.1,364.4,193.8z M19.5,217.3
		c0.7-2.7,0.2-5.1,0-7.5c-0.5-4.5-1.2-8.9-1.3-13.4c-0.3-13.9-0.6-27.8-0.6-41.7c0-17.4,0.3-34.9,0.4-52.3c0-1,0-2,0-3.2
		c-5.9,1.1-11,3-15.1,7c-1.3,1.2-1.8,2.5-1.8,4.3c0.1,8.9,0,17.8,0,26.7c0,39.2,0,78.3,0,117.5c0,1.2,0.1,2.3,0.2,3.7
		c26.9-0.3,53.5,0,80.1-0.4c0.2-0.7,0.3-1.1,0.4-1.6c1.4-6.9,2.5-13.9,4.3-20.7c2.8-10.7,6-21.4,9.2-32c2.7-9,7.2-17.2,11.6-25.4
		c4.6-8.7,9.9-17,16.4-24.5c0.4-0.5,0.8-1,1.1-1.5c-3.1-2.5-10.5-4.5-14.6-4c-1.9,0.2-3.8,0.5-5.6,0.8c-1,0.2-2.1,0.5-2.9-0.5
		c-0.8-1-0.1-2,0.3-2.9c0.7-1.6,1.6-3.1,2.3-4.6c1-2.3,2.1-4.5,3-6.9c1.3-3.7,1.3-7.5-0.2-11.1c-1-2.4-1.9-4.8-3.2-7
		c-7.1-12.5-17.8-17.5-32.2-15.3c-2.6,0.4-5.2,0.9-7.8,2c0,0.7,0,1.3,0,1.9c0.5,32-0.2,64,1.6,96c0.3,5.9,1,11.8,1.6,17.8
		c3.6,0.2,7.1,0.3,10.5,0.5c1,0.1,2.1,0.1,3,0.5c0.5,0.2,1.1,1,1,1.5c0,0.5-0.7,1.2-1.2,1.4c-0.5,0.2-1.2,0-1.8-0.1
		c-4.3-0.3-8.6-0.5-12.9-0.8c-0.7,1-1.4,1.9-2.3,2.1c-1.6,0.4-2-1.3-2.9-2.1c-12.2-0.3-24.4-0.7-35.9-1c-1.1,1.1-1.6,2.2-2.4,2.3
		c-1.6,0.3-1.9-1.4-2.7-2.6c-2.6-0.1-5.3-0.2-8-0.3c-2.1-0.1-3-0.6-2.9-1.7c0.1-1,0.9-1.4,2.9-1.4C14,217,16.6,217.1,19.5,217.3z
		 M1.3,398.1c0.7-0.2,1-0.2,1.3-0.3c10.4-4.1,20.4-8.9,29.3-15.7c6.9-5.3,13.2-11.1,18.7-17.8c5.1-6.3,9.3-13.1,12-20.7
		c3.4-9.5,6.3-19.2,8.3-29.1c3.2-16.2,6.3-32.5,9.4-48.7c0.3-1.4,0.4-2.8,0.6-4.2c-26.6,0-53,0-79.5,0
		C1.3,307.2,1.3,352.5,1.3,398.1z M165.4,122c-12.4-28.7-24.7-57.3-36.9-85.5c-22.2,0-44,0-66,0c-0.1,1.2-0.2,2.1-0.2,3
		c0.1,2.5,0.2,5,0.2,7.5c0.2,12.7,0.4,25.3,0.7,38c0.1,4,0.1,7.9,0.2,11.9c0,0.8,0.1,1.6,0.2,2.6c5.5-1.7,10.8-2.4,16.1-2.1
		c5.8,0.3,11.2,2,15.9,5.4c7.5,5.4,12,12.9,14.6,21.7c0.8,2.8,1,5.7,0.1,8.4c-1,3.1-2.2,6.1-3.4,9.2c-0.5,1.2-1.2,2.4-2,4
		c8.2-1.7,15.3,0.1,22,4C138.2,138.5,151.2,129.6,165.4,122z M283.8,454.2c86.7,0.2,173.1,0.4,259.6,0.6c0.2-3.6,0.5-6.9,0.5-10.1
		c-0.1-3.1,0.6-5.7,2.8-7.9c1.6-1.6,2.8-3.5,4.2-5.2c0.4-0.5,0.7-1.1,1.2-1.9c-92.5-0.2-184.7-0.4-276.8-0.6c-0.7,0-1.4,0-2.1,0.1
		c-0.1,0-0.1,0.1-0.2,0.2c0,0.1-0.1,0.2-0.2,0.3c2.8,2.9,5.6,5.8,8.5,8.7c1,1,1.5,2,1.5,3.4C283.1,445.7,283.5,449.8,283.8,454.2z
		 M293.2,113c-5.5,0.9-10.6,2.1-14.6,5.5c-7.9,6.8-15.3,14.2-21.6,22.6c-13.3,17.5-22.1,37.3-29.4,57.9c-3.4,9.6-5.9,19.6-8.6,29.5
		c-2.4,8.7-4.8,17.5-6.7,26.3c-2.8,13.3-5,26.8-7.5,40.1c-2.3,11.8-4.6,23.7-7.1,35.5c-2.8,13.6-5.4,27.2-9.3,40.5
		c-3.4,11.5-6.3,23.1-12.6,33.5c-3.2,5.2-6.1,10.6-10,15.3c-7.5,9.1-15.3,18-25.1,24.8c-2.1,1.5-4.2,3-6.4,4.4
		c-5.5,3.5-11,6.8-17.4,8.4c-2.3,0.6-4.7,1-7,1.7c-1.5,0.5-2.8,1.2-4.2,2c-1,0.6-1.4,1.6-1,2.7c0.4,1.1,1,2.1,2.4,2
		c1.4,0,2.8,0.1,4.1-0.3c4.1-1.2,8.4-2.2,12.3-4c7.9-3.6,15.6-7.6,23.4-11.5c1.1-0.5,2.1-1.2,3.1-1.9c2.2-1.6,4.4-3.4,6.6-5
		c4.7-3.3,9.2-6.8,13-11.1c5-5.7,9.7-11.7,14.3-17.7c6.3-8.2,11.1-17.3,14.5-27c4.6-13.4,8.3-27.2,11.2-41.1
		c4.4-20.9,8.8-41.8,12.4-62.9c1.3-7.8,2.7-15.6,4.4-23.4c1.7-7.9,3.7-15.8,5.8-23.6c2.9-11,5.5-22.1,9.1-32.9
		c6.1-18.1,13.7-35.7,23.4-52.3c5.1-8.7,11.6-15.8,20.2-20.9c3-1.8,5.9-3.5,8.9-5.2c1.6-1,3.3-1.8,4.9-2.9c3.1-2,2.9-6.2-0.4-7.7
		C296.5,113.8,294.7,113.5,293.2,113z M305.2,400.4c1.1-0.4,1.8-0.8,2.6-0.9c3.6-0.9,5.7-3.3,7.1-6.6c0.6-1.4,1.1-2.9,1.9-4.2
		c1-1.6,1.2-3.1,1.2-4.9c-0.3-31.2-0.7-62.4-1-93.7c-0.4-36.8-0.7-73.7-1-110.5c-0.3-30-0.5-60-0.7-90c-0.1-9.1,0-18.3,0-27.4
		c0-2.9-0.1-5.8-0.2-8.8c-0.3-5.6-3.3-8.9-8.6-9.7c-4.3-0.7-6.6,1-7.1,5.3c-0.3,2.2-0.3,4.5-0.4,6.7c-0.6,18.3,0.5,36.6,0.9,54.8
		c0,0.9,0.2,1.6,1,2.2c0.5,0.3,0.9,0.8,1.3,1.3c2.4,2.6,2.5,5.1,0.4,7.9c-0.4,0.5-0.7,1-1.1,1.4c-1.4,1.1-1.5,2.6-1.4,4.2
		c0.3,12,0.6,24,0.8,36c0.4,18.4,0.7,36.7,1,55.1c0.3,18.1,0.7,36.2,1,54.3c0.3,18.4,0.7,36.7,1,55.1c0.4,23.2,0.8,46.4,1.2,69.6
		C305,398.4,305.1,399.2,305.2,400.4z M60.6,104.4c-0.3-0.1-0.4-0.2-0.5-0.2c-7.6,3.5-14.9,7.2-18.1,15.8c-0.2,0.6-1,1.3-1.6,1.4
		c-1,0.1-1.5-0.7-1.6-1.7c-0.2-1.2-0.3-2.4-0.5-3.6c-0.6-4.2-1.2-8.4-3.1-12.2c-1.2-2.4-2.8-4.1-5.5-4.7c-2.8-0.7-5.6-1-8.7-0.2
		c0,0.9,0,1.9,0,2.8c-0.2,18.8-0.4,37.6-0.5,56.4c-0.1,15-0.2,30,1.2,45c0.4,4.7,1.2,9.4,1.8,14c3.5,0.6,37.8,1.5,40,0.9
		c0-1,0.1-2,0-3c-1.7-12.9-2.1-25.9-2.3-39c-0.4-23-0.4-46-0.6-69.1C60.6,106.1,60.6,105.2,60.6,104.4z M687.7,187.8
		c1-13.2,0-26.2-0.6-39.1c-0.6-0.2-0.9-0.3-1.3-0.3c-1.5-0.2-3.1-0.3-4.6-0.5c-11.4-1.3-22.7-0.8-34,1.3
		c-10.3,1.9-17.2,7.6-19.4,18.2c-2.5,11.8-4,23.8-4.2,35.9c-0.2,16.9,0,33.8,0,50.7c0,0.6,0.2,1.1,0.3,1.8c2.3,0,4.5,0.1,6.6,0
		c2.1-0.1,4.3,0.3,6.4-0.3c-0.1-0.8-0.1-1.5-0.2-2.2c-0.2-3.8-0.6-7.6-0.6-11.4c0-2.9,0.9-3.7,3.7-3.7c3.4,0,6.7,0,10.1,0
		c0.6,0,1.3-0.2,2-0.2c0-1.1,0-1.9,0-2.8c-0.2-6.8-0.5-13.6-0.7-20.4c-0.1-1.8,0.4-2.5,2.1-2.6c2.8-0.2,5.7-0.2,8.5-0.1
		c3.9,0.1,7.7,0.3,11.8,0.4c0-1.9,0-3.4,0-4.9c-0.1-5.3-0.2-10.5-0.2-15.8c0-2.2,0.4-2.8,2.5-3.2c2.4-0.4,4.8-0.5,7.2-0.6
		C684.6,187.8,686,187.8,687.7,187.8z M368.9,215.7c2.4,0.7,179.9,1,182.6,0.4c0.1-0.9,0.1-1.8,0.2-2.8c0.3-4.3,2.7-7.2,6.7-8.7
		c1.6-0.6,3.3-0.9,5-1.1c9.3-0.8,18.5-1.6,27.8-2.4c1.2-0.1,2.3-0.2,3.6-0.4c-0.1-0.9-0.1-1.4-0.2-2.2c-75.6,0.5-151,0.9-226.7,1.4
		C368.3,205.5,368.6,210.6,368.9,215.7z M1.2,408.2c0.5,0.1,0.7,0.2,0.8,0.2c0.6-0.1,1.2-0.2,1.8-0.4c14.3-3.9,27.5-10.1,39.4-18.9
		c7.1-5.3,13.5-11.3,19-18.2c5.8-7.3,10.4-15.2,13.2-24.1c3.6-11.1,6.7-22.3,8.8-33.7c2.6-14.2,5.3-28.5,8.1-42.7
		c2-10.4,3.7-20.9,6.3-31.2c2.7-11,6.1-21.8,9.4-32.5c2.6-8.6,7-16.5,11.1-24.5c9.3-17.9,21.4-33.4,38.2-44.8
		c5.5-3.8,11.1-7.6,17-10.9c9.3-5.2,19-9.4,29.7-10.7c0-1.3-0.7-1.9-1.7-2.1c-0.9-0.1-1.9-0.1-2.8,0c-7,1.3-13.8,3.4-20.6,5.9
		c-16.9,6.2-31.9,15.7-45.1,27.7c-14,12.8-23.4,28.9-31,46c-2.5,5.5-4.2,11.3-6,17.1c-2.9,9.5-6,18.9-8.2,28.6
		c-2.3,10.1-3.7,20.3-5.6,30.5c-2,10.8-4.3,21.6-6.3,32.5c-1.9,10.1-3.9,20.1-6.9,30c-2.9,9.6-6,19.1-11.8,27.7
		c-7.3,10.8-16.6,19.6-27,27.2c-8.2,5.9-17.3,10.3-26.8,13.8c-0.5,0.2-1,0.3-1.4,0.6c-0.4,0.3-1,0.8-1,1.3
		C1.1,404.4,1.2,406.3,1.2,408.2z M203.9,379.7c32.6-2.2,65-1.8,97.4-0.5c0.5-3.5-0.2-31.4-0.8-33.3c-29.4,0.3-58.9,0.7-88.2,1
		C209.5,357.9,206.7,368.7,203.9,379.7z M222,298.3c-2.2,11-4.4,21.8-6.6,32.9c1.1,0,2.1,0,3,0c18.9-0.2,37.8-0.5,56.7-0.6
		c6.8,0,13.6,0.4,20.4,0.7c1.7,0.1,3.4,0.3,5.2,0.4c-0.2-11.5-0.5-22.7-0.7-34.2C273.9,296.2,248,296.5,222,298.3z M21.3,36.6
		c-0.6,5.5-0.3,57.2,0.3,59.1c2.1,0,4.3-0.1,6.4,0c4.7,0.4,8.1,2.7,10.1,7c0.7,1.6,1.3,3.4,1.8,5.1c0.5,1.9,0.9,3.8,1.3,5.8
		c0.3-0.2,0.6-0.2,0.7-0.4c4.5-5.3,10.2-9,16.5-11.8c1.8-0.8,2.1-1.8,2.1-3.5c-0.2-6.6-0.3-13.3-0.4-19.9
		c-0.2-13.2-0.5-26.4-0.7-39.6c0-0.7-0.2-1.3-0.2-1.9C46.4,36.6,33.9,36.6,21.3,36.6z M680.9,1.1c0.3,6.2,0.5,12.2,0.8,18.1
		c0.4,7.3,0.8,14.6,1.3,21.9c0.6,8.4,1.2,16.8,1.8,25.3c0.6,9,1.2,18.1,1.8,27.1c0.6,8.5,1.2,17,1.8,25.5
		c0.7,10.2,1.3,20.5,1.9,30.7c0.7,11.5,1.2,23.1,0.8,34.6c0,1.2,0,2.4,0,3.8c2.3,0.2,4.4,0.4,6.5,0.6c1,0.1,2,0.1,3.1,0.2
		c-0.5-62.7-1-125.3-1.4-187.8C693.1,1.1,687.2,1.1,680.9,1.1z M654.9,214.8c-0.5,8,0,15.6,0.2,23.3c1.3,0,2.2,0,3.2,0
		c7.9-0.2,15.9-0.3,23.8-0.5c21-0.5,41.9,1.3,62.8,2.2c3.2,0.1,6.3,0,9.7,0c0.3-8.2,0.6-16.2,0.8-24.5
		C721.8,215.4,688.5,216.1,654.9,214.8z M175.4,117.4c-13.1-31.4-26-62.5-38.8-93.4c-45.3,0-90.2,0-135.2,0c0,3.4,0,6.4,0,9.7
		c1.1,0,2.1,0,3,0c41.1-0.2,82.1-0.3,123.2-0.6c2.1,0,3.5,0.4,4,2.6c0.1,0.3,0.3,0.6,0.4,0.9c11.7,27.2,23.5,54.4,35.2,81.6
		c0.3,0.8,0.7,1.5,1.1,2.4C170.7,119.5,172.9,118.5,175.4,117.4z M378.1,256.9c41.3-0.2,82-0.4,122.8-0.6c0-5.7,0-11.1,0-16.6
		c-1,0-1.7,0-2.5,0c-37,0.1-74,0.1-111,0.2c-0.3,0-0.5,0-0.8,0c-1.4-0.2-2,0.5-2.5,1.7c-0.9,2.1-1.9,4.1-2.7,6.1
		C380.4,250.6,379.4,253.5,378.1,256.9z M811.1,148.6c-4.3,0.4-8.3,0.6-12.2,1c-5.6,0.6-11.1,1.2-16.7,2.1
		c-7.1,1.2-12.3,5.1-15.6,11.5c-0.8,1.5-1.5,3.1-2.1,4.7c-1.9,4.9-2.9,10.1-3.6,15.3c-0.3,1.9-0.4,3.9-0.6,5.9
		c0.8,0.1,1.3,0.2,1.8,0.2c7.3,0,14.7,0,22-0.1c4-0.1,8,0.1,11.8-0.9c4.1-1.1,8.2-0.7,12.3-0.9c0.6,0,1.1-0.1,1.9-0.1
		C810.4,174.4,810.8,161.7,811.1,148.6z M369.6,227.3c60.5,0,121.1,0,182-0.1c0.2-3.2,0.2-6.1,0-9.2c-61,0-121.6,0-182.4,0
		C369.2,221.1,369.4,224.1,369.6,227.3z M299.4,260.6c-23.8,0-47.1,0-70.6,0c-1.4,7.4-2.8,14.6-4.1,21.7c4.4,0.6,72.9,1.3,75.1,0.6
		C299.7,275.5,299.5,268.1,299.4,260.6z M676.8,191.3c0,6.7,0,13.1,0,19.4c0,1.1,0.8,1.7,1.9,1.7c1.8,0,3.6,0.2,5.4,0.2
		c23.1-0.1,46.2-0.2,69.3-0.3c0.7,0,1.3-0.1,2.2-0.2c0.4-6.6,0.8-13.1,1.2-19.7c-0.7-0.1-1.2-0.2-1.7-0.2
		c-10.2,0.1-20.3,0.2-30.5,0.2c-5.9,0-11.9,0.1-17.8-0.1c-8.4-0.3-16.9-1-25.3-1.5C679.9,190.7,678.3,191.1,676.8,191.3z
		 M367.8,198.5c75.8-0.5,151.3-0.9,226.8-1.4c0-2.5,0-4.6,0-6.7c-25.4,0-50.6-0.1-75.9,0c-25.2,0.1-50.3,0.3-75.5,0.4
		c-25.2,0.1-50.4,0-75.9,0.3C367.6,193.8,367.7,196.1,367.8,198.5z M754.5,243.1c-1.2,0-2.2,0-3.1,0c-7.5-0.3-15-0.6-22.5-0.9
		c-11.3-0.5-22.6-1.3-33.8-1.4c-18.2-0.1-36.4,0.3-54.6,0.5c-0.3,0-0.6,0.1-0.9,0.1c-0.5,2.9,0.1,11.6,0.9,14.3
		c37.7-0.2,75.5-0.4,113.6-0.6C754.2,251.1,754.3,247.3,754.5,243.1z M342.4,250.6c0.1,0,0.3,0.1,0.4,0.1c0.3-0.5,0.6-0.9,0.9-1.4
		c2.1-3.7,4.2-7.3,6.3-11c1.1-1.8,1.2-1.8,3.3-1.5c1.1,0.2,2.2,0.2,3.3,0.2c42.2-0.1,84.4-0.2,126.5-0.3c21.6-0.1,43.1-0.1,64.7-0.1
		c1,0,2-0.1,3.1-0.1c0.1-1.2,0.2-2.1,0.3-3.1c0-0.9,0-1.8,0-2.9c-70.1,0-140,0-210.1,0C341.6,237.3,342,243.9,342.4,250.6z
		 M233.5,240.6c22,0,43.6,0,65.4,0c-0.1-7.5-0.3-14.6-0.4-22c-19.9,0.6-39.6-0.1-59.4,1.1C237.2,226.7,235.4,233.6,233.5,240.6z
		 M770.8,254.8c12.4,0,24.5,0,36.9,0c0.8-21.4,1.5-42.6,2.2-63.7c-2.3-0.9-7.2-1-9.6-0.3c0,0.1-0.1,0.2-0.1,0.2
		c0,6.7,0.1,13.5,0.1,20.2c0,2.2-0.4,2.8-2.6,2.9c-0.8,0-1.6,0-2.3,0c-2.2,0-4.4,0-6.7,0c-0.6,5.6-1.3,10.9-0.7,16.3
		c0.3,2.9,0.5,5.8,0.7,8.8c0.1,2.5-0.5,3.1-2.9,3.2c-1.5,0-2.9,0-4.4,0c-3.5,0.1-7,0.3-10.6,0.4
		C770.8,246.9,770.8,250.8,770.8,254.8z M278.9,175.1c0.5,3,0.9,5.6,1.3,8.2c0.2,1.5,0.5,3.1,0.5,4.6c0,2.4-0.9,2.9-3.1,2
		c-3.7-1.4-7.4-2.9-11.2-3.9c-4.5-1.3-9.1-2.1-13.8-1.3c-1.4,0.2-2.2,0.7-2.6,2c-1.9,5.2-3.9,10.3-5.8,15.5
		c-0.2,0.5-0.2,1.1-0.3,1.8c18.2,0.9,36.2,1.5,54.4,1.6c-0.2-10.2-0.4-19.9-0.5-30C291.4,175.4,285.3,175.2,278.9,175.1z
		 M224.2,114.7c0-1,0-1.7,0-2.4c-0.1-12.5-0.2-25-0.3-37.5c0-3.9,0.1-7.7,0.1-11.6c0-3.5,0-7.1-0.3-10.6c-0.4-4.8-2.8-7.7-7.1-8.8
		c-5.8-1.4-8.6,0.6-8.8,6.5c-0.1,3.2-0.3,6.4-0.3,9.5c0.3,17,0.7,34.1,1.1,51.1c0,1.3,0,2.7,0,4.2C214,115.2,218.9,115,224.2,114.7z
		 M17.9,95.9c0-19.7,0-39.3,0-59c-5.6,0-11.1,0-16.6,0c0,22.2,0,44.2,0,66.2c2.7-1.5,5.1-3.1,7.8-4.3C11.9,97.7,14.8,96.9,17.9,95.9
		z M202.7,382.8c-1.1,3.3-2.1,6.5-3.2,9.8c34.2-2.3,68.1-0.8,102.1,0.2c0-3.5,0-6.8,0-10.4C268.5,380.7,235.6,380.7,202.7,382.8z
		 M564.4,256c-0.2-0.5-0.2-0.8-0.3-1c-3.8-4.8-7.7-9.5-11.5-14.3c-0.8-1-1.6-1.1-2.7-1.1c-14.6,0-29.3,0-43.9,0.1
		c-0.6,0-1.1,0.2-1.7,0.2c0,5.5,0,10.8,0,16.1C524.4,256,544.3,256,564.4,256z M300.7,334.9c-2.9-0.3-5.7-0.7-8.5-0.8
		c-25.8-1.2-51.5-0.1-77.5,0.2c-0.6,3.1-1.2,6.1-1.8,9.2c5.5,0.8,85.1-0.3,87.9-1.1C300.7,339.9,300.7,337.5,300.7,334.9z
		 M366.6,227.2c-0.6-10.2-1.3-20.1-1.9-30c-5.9,0-17.5,1.1-22.5,2.7c-0.9,0.3-1.7,0.7-2.8,1.2c0.5,8.7,1,17.4,1.5,26.1
		C349.7,227.2,358.1,227.2,366.6,227.2z M758.7,212.1c1.3,0,2.1,0,3,0c5.9-0.1,11.7-0.3,17.6-0.4c5.6-0.2,11.2-0.4,16.8-0.6
		c0.3,0,0.7-0.1,1.1-0.2c0-6.5,0-12.9,0-19.1c-12.4,0.3-24.7,0.6-37.2,0.8C759.5,199,759.1,205.4,758.7,212.1z M757.7,240.1
		c9.6-0.3,18.6-0.5,28.1-0.8c-0.7-8.3-1.5-16.3,0-24.6c-9.3,0-18.2,0.1-27.2,0.6C758.2,223.7,758,231.6,757.7,240.1z M222.5,295.3
		c26.1-2,51.7-1.7,77.3-1.1c0-2.6,0-5,0-7.7c-25.3-0.3-50.4-0.6-75.7-0.9C223.5,288.8,223,291.9,222.5,295.3z M297,146.8
		c0.5-5.1,0.1-18-0.7-19.8c-7,4.5-14.7,7.9-20.6,14.1c-5.4,5.8-12.9,17.1-13.6,20.8c5.2,0,10.3,0,15.6,0
		C282.1,154.3,289.5,150.4,297,146.8z M298.3,208.8c-18.8-0.6-37.1-1.1-55.7-1.7c-0.9,3.1-1.7,6.1-2.5,9.2
		c19.5-0.3,38.9-0.5,58.2-0.8C298.3,213.1,298.3,211,298.3,208.8z M554.8,216.4c13.4,0,26.6,0,39.9,0c0-4.2,0-8.2,0-12.3
		c-0.8,0-1.5,0-2.2,0c-6.9,0.5-13.7,1-20.6,1.6c-3.6,0.3-7.2,0.7-10.7,1.4C556.2,207.9,554.2,211,554.8,216.4z M368.2,240
		c-4.4,0-8.7,0.1-13,0c-2.1-0.1-3.4,0.5-4,2.6c-0.2,0.7-0.8,1.3-1.2,2c-1.9,3.5-3.8,7.1-5.7,10.7c-0.2,0.5-0.3,1.1-0.4,1.6
		c10.6,0,20.9,0,31.5,0C372.9,251.1,370.6,245.6,368.2,240z M595,218.2c-13.6,0-26.8,0-40.2,0c0,3,0,5.8,0,8.8
		c0.8,0.1,1.5,0.1,2.2,0.1c11.6,0,23.3,0,34.9,0c0.3,0,0.7,0,1,0c1.2,0,2-0.6,2-1.8C595,223,595,220.7,595,218.2z M299,244
		c-22.3,0-44.2,0-66.2,0c-0.3,1.1-0.6,2-0.8,2.9c-0.2,0.9-0.4,1.8-0.6,2.8c22.8-0.2,45.2-0.5,67.6-0.7C299,247.1,299,245.6,299,244z
		 M299.1,252.2c-4.5-0.5-66.8,0.4-68.8,1c-0.2,1.3-0.4,2.7-0.6,4c23.3,0,46.3,0,69.4,0C299.1,255.4,299.1,253.9,299.1,252.2z
		 M569.6,255.7c4.1,0.6,21.8,0.2,23.4-0.5c-4.6-6.5-9.1-12.9-13.8-19.4c-2.5,0.8-4.8,1.6-7.1,2.2c-1.4,0.4-1.7,1.1-1.7,2.4
		c0,1.8-0.2,3.6-0.3,5.4C569.9,249.1,569.8,252.3,569.6,255.7z M256.7,171.6c13.9,0.3,27.4,0.8,41,0.8c0-1.9,0-3.4,0-4.9
		c0-0.4-0.1-0.8-0.2-1.5c-12.5-1-24.9-0.9-37.5-0.9C258.9,167.1,257.9,169.1,256.7,171.6z M554.6,230.4c-0.2,1.9-0.2,3.6-0.5,5.2
		c-0.2,1.3,0.1,2.3,1,3.3c3.4,4.1,6.7,8.3,10.1,12.5c0.3,0.4,0.8,0.7,1.5,1.4c0.1-1.4,0.2-2.3,0.2-3.2c0.2-3.7,0.4-7.4,0.6-11.1
		c0.1-2.2,0.4-2.3,2.5-2.9c4.6-1.4,9.2-2.9,13.8-4.3c0.4-0.1,0.7-0.4,1.5-0.8C574.8,230.4,564.8,230.4,554.6,230.4z M252.1,181.7
		c9.2-1.1,17.2,1.8,25.5,4.6c-0.7-4-1.3-7.6-1.9-11.3c-7-0.2-13.7-0.4-20.5-0.6C254.3,176.8,253.3,179.1,252.1,181.7z M594.2,251.5
		c0.2-0.1,0.3-0.2,0.5-0.3c0-6.7,0-13.3,0-20.3c-4.1,1.3-8,2.5-12.3,3.8C586.4,240.6,590.3,246.1,594.2,251.5z M767.5,255
		c0-4.2,0-8,0-11.8c-3.4,0-6.6,0-10,0c-0.1,4.1-0.4,7.9-0.2,11.8C760.9,255,764.1,255,767.5,255z M281.2,162
		c5.8,0.3,10.9,0.5,16,0.8c0-4.3,0-8.3,0-12.7C291,153.1,285.5,156.3,281.2,162z M376.5,251.8c1.8-4.1,3.4-7.8,5.1-11.7
		c-3.5,0-6.6,0-10,0C373.2,244.1,374.8,247.7,376.5,251.8z"/>
	<path class="st4" d="M828.7,393.4c-9-3.8-17.9-7.5-26.9-11.4c-11.5-5-23-10.1-34-16.3c-5.9-3.4-11.7-7-16.7-11.7
		c-7.4-6.8-12.5-14.9-14.2-24.9c-1.1-6.3-0.5-12.5,1.1-18.7c1.7-6.6,4.4-12.9,7.6-18.9c6.1-11.5,13.3-22.2,21.8-32
		c1-1.2,2.1-1.3,3.4-1.3c18.2-0.1,36.4-0.2,54.6-0.3c1.1,0,2.2-0.1,3.4-0.1C828.7,303,828.7,348.2,828.7,393.4z"/>
	<path class="st5" d="M828.7,254.7c-5.9,0-11.8,0-18,0c3.4-84.5,5-168.9,7-253.6c3.8,0,7.4,0,11,0
		C828.7,85.6,828.7,170.1,828.7,254.7z"/>
	<path class="st4" d="M828.7,543c0,17.6,0,35.2,0,52.8c-37.4,0-74.9,0-112.3,0c0.9-0.4,1.7-0.9,2.6-1.1c6.3-1.7,12.6-3.4,18.9-5.2
		c26.9-7.8,52.2-19,75.3-35.1C818.4,550.7,823.5,546.8,828.7,543z"/>
	<path d="M828.7,543c-5.2,3.8-10.3,7.7-15.6,11.4c-23,16.1-48.4,27.3-75.3,35.1c-6.3,1.8-12.6,3.4-18.9,5.2
		c-0.9,0.2-1.7,0.7-2.6,1.1c-5.3,0-10.7,0-16,0c2.6-0.7,5.3-1.4,7.9-2.1c16.6-3.9,33.1-8.3,49.1-14.2c25.2-9.2,48.3-22.3,69.4-38.9
		c0.6-0.5,1.3-0.8,1.9-1.3C828.7,540.6,828.7,541.8,828.7,543z"/>
	<path class="st4" d="M301.8,396.2c0.1,1.9,0.2,3.6,0.2,5.3c0,0.6-0.3,1.3-0.7,1.9c-2.8,3.8-6.3,6.9-10.6,8.8
		c-1.4,0.6-2.8,1.4-4.2,1.9c-5.4,2.1-9.6,5.4-11.1,11.2c-3.2,1.1-6.4-0.8-9.8,1c0.7,1,1.2,1.8,1.8,2.4c3.7,3.7,7.4,7.5,11.2,11.1
		c1,1,1.2,2.1,1.3,3.3c0.3,3.7,0.5,7.4,0.7,11.1c0.2,3.1,0.4,3.4,3.5,3.4c21.7,0,43.5,0,65.2,0.1c29.4,0,58.8,0.1,88.2,0.1
		c18.9,0,37.8,0,56.7,0.1c16.1,0,32.3,0.1,48.4,0.2c3.8,0,3.8-0.1,4-3.9c0.1-3.7,0.4-7.4,0.5-11.1c0-1.2,0.4-2.1,1.1-3
		c2.5-3.1,5-6.2,7.4-9.3c0.4-0.5,0.8-0.9,1.1-1.4c0.7-1.3,0.2-2.4-1.3-2.6c-1.5-0.1-2.9,0-4.5,0c-0.2-0.6-0.4-1.2-0.5-1.8
		c-0.5-2.7-2.1-4.2-4.7-4.9c-1.1-0.3-2.2-0.4-3.3-0.7c-2.4-0.7-4.3-2-4.9-4.8c-0.3-1.3-1.2-2.4-2-3.5c-1.3-1.9-2.9-3.6-4.1-5.6
		c-1.7-2.8-3.8-4.9-6.7-6.2c-3.1-1.4-5.7-3.5-8-6.1c-2.6-2.9-5.8-5.1-9.4-6.7c-1.6-0.7-3.2-1.4-4.7-2.1c-3.3-1.6-6.8-2.3-10.5-2.7
		c-1.1-0.1-2.2-0.3-3.3-0.5c-1.9-0.2-3.5-1-4.6-2.5c-2.2-2.8-5.1-4.5-8.1-6.3c-3.9-2.3-7.5-5.1-11.3-7.7c-3.7-2.5-7.2-5.4-11.2-7.3
		c-4.9-2.4-8.7-6-11.5-10.4c-2.8-4.4-6.4-7.2-11.6-8.4c-2.1-0.5-4.1-1.6-6.2-2.5c-0.3-0.1-0.6-0.4-0.9-0.5
		c-5.8-1.8-11.7-3.6-17.8-4.1c-3-0.2-5.9,0.5-8.6,1.7c-7.2,3.2-14.4,6.6-21.6,9.8c-3,1.3-6,2.7-9.2,3.3c-4.6,1-7.5,3.6-9.5,7.6
		c-0.4,0.8-0.7,1.6-1.1,2.4c-1.1,2.4-2.7,4.2-5.1,5.3c-1.5,0.7-3,1.4-4.5,2c-4.9,1.9-8.7,5.1-11.7,9.4c-4.5,6.8-3,6.3-10.7,9.4
		c-0.9,0.3-1.6,0.9-2.8,1.5c-0.4-41.4-0.8-82.4-1.1-123.6c102.6-0.5,204.8-0.9,307.2-1.4c-0.4,1.2-1.3,1.4-2,1.9
		c-11.1,7.5-21.4,16-30.9,25.4c-4.4,4.4-8.6,9-11.9,14.3c-2,3.2-3.8,6.6-5.2,10.1c-3.7,9.1-3.1,18,1.2,26.8
		c3.5,7,8.1,13.1,13.7,18.4c6.8,6.4,13.8,12.5,20.7,18.7c6.7,6,13.2,12.2,18.3,19.7c4.7,6.7,8.1,14,9.8,22.1
		c2,9.6,0.3,18.5-5.1,26.7c-5,7.7-11.7,13.7-19.3,18.9c-11.3,7.6-23.6,13.1-36.4,17.8c-18.3,6.7-37.2,11.4-56.4,15
		c-14.7,2.8-29.4,4.9-44.2,6.6c-11.7,1.3-23.5,2.4-35.3,3.3c-11.7,0.9-23.4,1.7-35.1,2.3c-10.5,0.6-21,0.9-31.5,1.2
		c-30.5,0.9-61.1,1.2-91.6,0.9c-27.3-0.3-54.7-1-82-1.2c-20.1-0.2-40.2-0.4-60.3,0.1c-17.1,0.4-34.3,1.6-51.4,2.9
		c-13.6,1-27.1,2.5-40.6,4.3c-15.9,2.1-31.6,5.1-47.2,9.2c-0.8,0.2-1.6,0.4-2.4,0.6c-0.6-2-0.8-56-0.3-60.2c33.2,0,66.5,0,99.8,0
		c1.9,4.9,5.7,5.1,9.9,4.3c6.2-1.2,12.1-3.4,17.8-6.1c5.9-2.8,11.9-5.5,17.5-8.9c12.1-7.3,23.2-15.9,32-27.1
		c6.2-7.9,12.3-16,16.7-25.2c0.4-0.9,1.2-1.7,1.5-2.7c0.8-2.5,2.7-3,5-3.1c7.6-0.3,15.2-1,22.7-1c18.4,0,36.7,0.3,55.1,0.6
		c6.7,0.1,13.4,0.5,20.2,0.8C300.3,396,300.9,396.1,301.8,396.2z"/>
	<path class="st6" d="M227.2,114.7c0-1,0-1.7,0-2.4c-0.1-11.4-0.2-22.8-0.3-34.2c0-7.4,0-14.8,0-22.2c0-2.6-0.3-5.1-1.1-7.6
		c-2.2-6.7-10.8-8.9-15.6-7.3c-2.7,0.9-4.2,3.1-4.7,5.7c-0.6,2.9-1,6-0.9,9c0.2,17.6,0.6,35.2,0.9,52.8c0,1,0,2,0,3.3
		c-3.2-1.7-6.2-1.3-9.3-0.5c-4.9,1.3-9.8,2.7-14.7,4c-1,0.3-2,0.6-3.1,0.9c-0.3-0.7-0.7-1.3-0.9-1.9c-12.6-30.2-25.1-60.4-37.7-90.7
		c-0.3-0.6-0.4-1.4-0.8-1.9c-0.5-0.5-1.2-1-1.8-1.2c-0.9-0.2-1.9-0.1-2.8-0.1C91,20.7,47.7,20.7,4.4,20.8c-0.9,0-1.9,0-3,0
		c0-6.6,0-13,0-19.6c166.4,0,332.8,0,499.2,0c0.5,1.8,0.8,123.6,0.3,128.3c-3-2.6-6.3-4.3-10.2-4.6c-3.8-0.3-7.3,0.9-11.1,1.8
		c-0.2-1.1-0.3-2-0.6-3c-2.4-9-8.3-14.7-17.2-16.8c-10.1-2.5-20-1.5-29.6,2.5c-5.2,2.1-8.6,5.9-9.8,11.5c-0.6,2.9-1.2,5.7-1.8,8.8
		c-0.2-0.2-0.6-0.3-0.7-0.5c-4.3-7.8-11.2-12-19.7-13.8c-8-1.7-16.1-1.6-24,0.8c-6.1,1.9-11.5,5.1-15.6,10.1
		c-3.8,4.6-4.8,9.7-2.7,15.2c1.2,3.1,2.9,6,4.3,9.1c1.2,2.6,2.4,5.3,3.5,8c0.2,0.5,0.2,1.1,0.3,1.9c-5.7-2.3-11.2-4.6-16.9-0.2
		c-0.2-0.4-0.6-0.9-0.8-1.4c-5.3-11.2-14.3-16.6-26.5-17c-0.9,0-1.9,0-3.2,0c0-1.2,0-2.2,0-3.2c-0.2-19.2-0.4-38.3-0.5-57.5
		c-0.1-8.4,0-16.9,0-25.3c0-2.5-0.3-4.9-1-7.4c-2.2-6.9-10.8-9-15.5-7.5c-2.9,0.9-4.4,3.1-4.9,5.8c-0.6,2.9-0.9,6-0.9,9
		c0.2,17.3,0.6,34.7,0.9,52c0,0.9,0,1.9,0,3c-5.2-1.3-9.8,0.6-14.2,2.5c-2.6,1.1-5.1,1.5-8,1.4c-14.5-0.1-29,0-43.5,0
		C229.8,114.7,228.7,114.7,227.2,114.7z"/>
	<path class="st5" d="M686.9,145.4c-2.4-0.2-4.5-0.4-6.6-0.6c-11.8-1.1-23.6-0.7-35.2,1.8c-3.3,0.7-6.4,1.9-9.3,3.7
		c-5.5,3.5-9.1,8.5-10.4,14.9c-1.5,7.4-2.7,14.9-3.6,22.4c-1.6,12.4-1.3,25-1.1,37.5c0.1,9.6,0.1,19.2,0.1,28.7c0,0.5,0,1-0.1,1.5
		c-1.9,0.5-17,0.8-22.7,0.3c0-1-0.1-1.9-0.1-2.9c0-20.4,0-40.9,0-61.3c0-4.3-0.1-4.4-4.3-4.4c-28.7,0.1-57.5,0.3-86.2,0.4
		c-0.9,0-1.9,0-3.1,0c0-62.1,0-124.1,0-186.3c57.8,0,115.6,0,173.6,0C679.9,49.3,684.3,97.2,686.9,145.4z"/>
	<path class="st7" d="M702.3,1.1c37.7,0,74.9,0,112.4,0c-1.1,48.1-2.3,96.1-3.4,144.3c-1.7,0.2-3.2,0.4-4.8,0.5
		c-7.1,0.7-14.2,1.4-21.4,2.1c-2,0.2-4.1,0.7-6.1,1.2c-5.9,1.6-10.5,5-13.8,10.2c-3.4,5.3-5.3,11.2-6.4,17.3c-0.7,4-1.2,8-1.9,12
		c-1.8,0.5-50.9,0.5-53.2,0C703.3,126.4,702.8,63.9,702.3,1.1z M803.7,85.6c-0.3-0.8-0.6-2.5-1.3-3.9c-1-1.8-3.1-2.2-4.4-0.8
		c-1.7,1.7-3.2,3.7-3.3,6.2c-0.1,1.6-0.1,3.3,0,4.9c0.1,1.2,0.3,2.4,0.6,3.6c0.8,2.5,2.8,3,4.7,1.1c0.4-0.4,0.8-0.9,1.1-1.4
		C802.8,92.5,803.5,89.5,803.7,85.6z"/>
	<path class="st8" d="M278.8,425.4c0.6-2.9,2.2-4.8,4.5-6.2c1.5-0.9,3.2-1.6,4.8-2.4c2.4-1.2,4.8-2.3,7.1-3.6
		c2.6-1.4,4.8-3.3,6.6-5.7c1.9-2.6,4.3-4.4,7.4-5.3c3.8-1.1,6.2-3.6,7.8-7.1c0.5-1,1-2,1.3-3.1c1-3,3-5,5.6-6.4
		c1.4-0.7,2.8-1.4,4.2-2c2.7-1,4.7-2.7,6.2-5.2c0.7-1.3,1.6-2.5,2.4-3.7c2.6-3.9,6.1-6.8,10.5-8.5c1.6-0.6,3.2-1.3,4.7-2.1
		c2.9-1.4,5-3.6,6.3-6.6c0.5-1.1,1-2.2,1.6-3.3c1.5-2.6,3.5-4.4,6.6-4.9c4.1-0.7,7.8-2.6,11.6-4.3c6.8-3.3,13.7-6.4,20.7-9.4
		c3.8-1.6,7.7-1.6,11.7-0.6c2.7,0.7,5.5,1.3,8.3,2c1.3,0.4,2.6,0.9,3.9,1.4c2.6,1,5.2,2.4,7.9,3.1c3.7,1,6.4,3.1,8.5,6.2
		c1.6,2.4,3.4,4.8,5.5,6.8c1.7,1.7,3.7,3.1,5.8,4.2c4.7,2.5,9,5.4,13.2,8.6c4.1,3.1,8.1,6.4,12.9,8.6c1.6,0.8,3.2,1.9,4.3,3.3
		c2.7,3.6,6.2,5.1,10.5,5.3c6.8,0.3,12.6,3.4,18.4,6.4c1.8,0.9,3.3,2.5,4.8,3.9c2.7,2.8,5.6,5.3,9.2,7c2.3,1.1,4,2.8,5.4,5
		c1.3,2.1,3,4,4.4,6c0.6,0.8,1.2,1.7,1.4,2.7c0.8,3.3,2.9,5.2,5.9,6.3c1.4,0.5,2.8,0.8,4.3,1.1c1.8,0.4,2.7,1.5,2.6,3.3
		C545,426.8,282.4,426.1,278.8,425.4z"/>
	<path class="st9" d="M364.4,193.8c-2.9,0.3-5.7,0.5-8.4,0.8c-4.1,0.5-8.2,1-12.3,1.7c-2,0.4-3.9,1.4-5.8,2
		c-1.3,0.4-1.6,1.2-1.5,2.3c0.1,1.8,0.1,3.6,0.2,5.4c0.7,11.2,1.3,22.4,2,33.6c0.4,5.7,0.7,11.3,1.1,17c-1.9,0.5-17.2,0.7-20,0.1
		c-0.3-37.1-0.7-74.4-1-111.8c7.7-0.1,14.7,1.1,20.4,6.3c3.3,3.1,5.8,6.8,7.3,11.1c0.4,1.1,0.7,2.1,1.4,3.1c0.3,0.5,1.1,0.8,1.7,0.8
		c0.4,0,0.9-0.7,1.1-1.2c1.5-3.8,2.8-4.6,6.8-4.1c2.6,0.3,5,1.2,7.3,2.5c0.5,0.3,1,0.6,1.6,0.9c1.9,0.9,2.8,0.3,2.9-1.7
		c0.2-2.6-0.3-5.2-1.4-7.6c-1.2-2.6-2.6-5-3.8-7.6c-1.3-2.8-2.6-5.6-3.6-8.5c-1.2-3.4-0.3-6.7,1.8-9.6c3.1-4.4,7.2-7.4,12.2-9.3
		c9.7-3.8,19.6-4,29.4-0.6c8.5,2.9,14.2,8.6,15.8,17.8c0.2,0.9,0.5,1.7,1.5,1.8c1.2,0.1,1.6-0.9,1.7-1.9c0.5-2.8,0.8-5.6,1.3-8.4
		c0.4-2.5,0.9-5.1,1.5-7.6c0.9-4.2,3.5-7,7.4-8.8c4.4-2.1,9.1-3.1,14-3.5c4.9-0.4,9.8-0.4,14.6,1c6.9,2,11.8,6.2,14.2,13.1
		c0.6,1.6,0.8,3.3,0.4,5.1c-0.6,2.2,0.4,3,2.6,2.4c2.6-0.7,5.1-1.7,7.7-2.2c5.2-1,9.7,0.6,13.2,4.7c1,1.2,1.7,2.6,1.5,4.2
		c-0.2,2.2,0.5,4.5-0.9,6.5c-0.2,0.3,0,1.1,0.2,1.7c0.2,0.8,0.7,1.6,0.7,2.3c0,12.9,0,25.7,0,38.6c0,0.3-0.1,0.7-0.1,1.2
		c-0.8,0-1.7,0.1-2.5,0.1c-33.5,0.2-66.9,0.3-100.4,0.5c-10,0.1-20,0.1-30,0.2c-0.4,0-0.9,0-1.3,0c-1.8,0.2-2.4,0.8-2.4,2.7
		C364.3,191.7,364.4,192.6,364.4,193.8z"/>
	<path class="st9" d="M19.5,217.3c-2.9-0.1-5.5-0.3-8.2-0.4c-2-0.1-2.8,0.4-2.9,1.4c-0.1,1.1,0.8,1.6,2.9,1.7c2.7,0.1,5.3,0.2,8,0.3
		c0.8,1.2,1.2,2.8,2.7,2.6c0.8-0.1,1.4-1.3,2.4-2.3c11.6,0.3,23.7,0.7,35.9,1c0.9,0.9,1.3,2.5,2.9,2.1c0.9-0.2,1.6-1.1,2.3-2.1
		c4.3,0.3,8.6,0.5,12.9,0.8c0.6,0,1.3,0.3,1.8,0.1c0.5-0.2,1.2-0.9,1.2-1.4c0-0.5-0.5-1.3-1-1.5c-0.9-0.3-2-0.4-3-0.5
		c-3.4-0.2-6.9-0.3-10.5-0.5c-0.5-6-1.2-11.9-1.6-17.8c-1.8-32-1.1-64-1.6-96c0-0.6,0-1.2,0-1.9c2.5-1.1,5.1-1.6,7.8-2
		c14.4-2.1,25.1,2.8,32.2,15.3c1.3,2.2,2.2,4.7,3.2,7c1.5,3.7,1.5,7.4,0.2,11.1c-0.8,2.3-1.9,4.6-3,6.9c-0.7,1.6-1.6,3.1-2.3,4.6
		c-0.4,0.9-1.1,1.9-0.3,2.9c0.8,1,1.8,0.7,2.9,0.5c1.9-0.3,3.7-0.6,5.6-0.8c4.1-0.5,11.5,1.5,14.6,4c-0.4,0.5-0.7,1.1-1.1,1.5
		c-6.4,7.5-11.7,15.8-16.4,24.5c-4.4,8.2-8.9,16.4-11.6,25.4c-3.2,10.6-6.4,21.3-9.2,32c-1.8,6.8-2.9,13.8-4.3,20.7
		c-0.1,0.4-0.2,0.8-0.4,1.6c-26.6,0.3-53.2,0.1-80.1,0.4c-0.1-1.4-0.2-2.5-0.2-3.7c0-39.2,0-78.3,0-117.5c0-8.9,0-17.8,0-26.7
		c0-1.8,0.5-3.1,1.8-4.3c4.2-3.9,9.2-5.8,15.1-7c0,1.2,0,2.2,0,3.2c-0.2,17.4-0.5,34.9-0.4,52.3c0,13.9,0.3,27.8,0.6,41.7
		c0.1,4.5,0.8,8.9,1.3,13.4C19.8,212.2,20.2,214.6,19.5,217.3z"/>
	<path class="st4" d="M1.3,398.1c0-45.6,0-90.9,0-136.6c26.5,0,52.8,0,79.5,0c-0.2,1.3-0.3,2.8-0.6,4.2c-3.1,16.3-6.1,32.5-9.4,48.7
		c-2,9.9-4.9,19.6-8.3,29.1c-2.7,7.6-6.9,14.5-12,20.7c-5.4,6.7-11.8,12.6-18.7,17.8C23,388.9,13,393.7,2.6,397.8
		C2.3,397.9,2,398,1.3,398.1z"/>
	<path class="st6" d="M165.4,122c-14.1,7.6-27.1,16.5-38.5,27.9c-6.7-3.8-13.8-5.6-22-4c0.8-1.6,1.5-2.8,2-4c1.2-3,2.5-6,3.4-9.2
		c0.9-2.8,0.7-5.6-0.1-8.4c-2.6-8.8-7-16.3-14.6-21.7c-4.8-3.4-10.1-5-15.9-5.4c-5.4-0.3-10.7,0.4-16.1,2.1c-0.1-1-0.2-1.8-0.2-2.6
		c-0.1-4-0.1-7.9-0.2-11.9c-0.2-12.7-0.4-25.4-0.7-38c0-2.5-0.2-5-0.2-7.5c0-0.9,0.1-1.8,0.2-3c22,0,43.8,0,66,0
		C140.7,64.7,153,93.3,165.4,122z"/>
	<path class="st10" d="M283.8,454.2c-0.3-4.5-0.7-8.5-0.9-12.6c-0.1-1.4-0.6-2.4-1.5-3.4c-2.9-2.9-5.7-5.8-8.5-8.7
		c0.1-0.2,0.1-0.3,0.2-0.3c0-0.1,0.1-0.2,0.2-0.2c0.7,0,1.4-0.1,2.1-0.1c92.2,0.2,184.3,0.4,276.8,0.6c-0.5,0.8-0.8,1.4-1.2,1.9
		c-1.4,1.8-2.6,3.7-4.2,5.2c-2.3,2.3-2.9,4.9-2.8,7.9c0.1,3.3-0.3,6.5-0.5,10.1C456.9,454.7,370.5,454.4,283.8,454.2z"/>
	<path class="st11" d="M293.2,113c1.5,0.4,3.3,0.7,4.9,1.5c3.3,1.5,3.5,5.7,0.4,7.7c-1.6,1-3.3,1.9-4.9,2.9c-3,1.7-5.9,3.5-8.9,5.2
		c-8.7,5.1-15.2,12.2-20.2,20.9c-9.7,16.6-17.3,34.2-23.4,52.3c-3.6,10.8-6.2,21.9-9.1,32.9c-2.1,7.8-4.1,15.7-5.8,23.6
		c-1.7,7.7-3.1,15.6-4.4,23.4c-3.6,21.1-8,42-12.4,62.9c-2.9,13.9-6.6,27.7-11.2,41.1c-3.3,9.7-8.2,18.8-14.5,27
		c-4.6,6-9.3,12-14.3,17.7c-3.7,4.3-8.3,7.8-13,11.1c-2.3,1.6-4.4,3.3-6.6,5c-1,0.7-2,1.4-3.1,1.9c-7.8,3.9-15.5,7.9-23.4,11.5
		c-3.9,1.8-8.1,2.8-12.3,4c-1.3,0.4-2.7,0.3-4.1,0.3c-1.3,0-2-0.9-2.4-2c-0.4-1.1,0-2.1,1-2.7c1.3-0.8,2.7-1.5,4.2-2
		c2.3-0.7,4.7-1.2,7-1.7c6.4-1.6,11.9-5,17.4-8.4c2.2-1.4,4.3-2.9,6.4-4.4c9.8-6.8,17.6-15.7,25.1-24.8c3.9-4.7,6.9-10.1,10-15.3
		c6.3-10.4,9.2-22.1,12.6-33.5c4-13.3,6.5-27,9.3-40.5c2.4-11.8,4.8-23.6,7.1-35.5c2.6-13.4,4.8-26.8,7.5-40.1
		c1.8-8.8,4.3-17.6,6.7-26.3c2.7-9.9,5.2-19.9,8.6-29.5c7.3-20.5,16.1-40.4,29.4-57.9c6.4-8.3,13.7-15.8,21.6-22.6
		C282.6,115.1,287.8,114,293.2,113z"/>
	<path class="st11" d="M305.2,400.4c-0.1-1.2-0.2-2-0.2-2.9c-0.4-23.2-0.8-46.4-1.2-69.6c-0.3-18.4-0.7-36.7-1-55.1
		c-0.3-18.1-0.7-36.2-1-54.3c-0.3-18.4-0.7-36.7-1-55.1c-0.2-12-0.5-24-0.8-36c0-1.6,0-3.1,1.4-4.2c0.5-0.4,0.8-0.9,1.1-1.4
		c2.1-2.8,1.9-5.3-0.4-7.9c-0.4-0.4-0.8-0.9-1.3-1.3c-0.8-0.5-1-1.3-1-2.2c-0.3-18.3-1.5-36.5-0.9-54.8c0.1-2.2,0.1-4.5,0.4-6.7
		c0.5-4.3,2.8-6,7.1-5.3c5.3,0.8,8.3,4.1,8.6,9.7c0.2,2.9,0.2,5.8,0.2,8.8c0,9.1-0.1,18.3,0,27.4c0.2,30,0.5,60,0.7,90
		c0.3,36.8,0.7,73.7,1,110.5c0.3,31.2,0.6,62.4,1,93.7c0,1.8-0.2,3.3-1.2,4.9c-0.8,1.3-1.3,2.8-1.9,4.2c-1.3,3.3-3.4,5.7-7.1,6.6
		C307,399.6,306.3,400,305.2,400.4z"/>
	<path class="st9" d="M60.6,104.4c0,0.8,0,1.8,0,2.7c0.2,23,0.2,46,0.6,69.1c0.2,13,0.6,26,2.3,39c0.1,1,0,2,0,3
		c-2.2,0.5-36.5-0.3-40-0.9c-0.6-4.6-1.3-9.3-1.8-14c-1.4-15-1.3-30-1.2-45c0.2-18.8,0.3-37.6,0.5-56.4c0-0.9,0-1.9,0-2.8
		c3.1-0.8,5.9-0.5,8.7,0.2c2.6,0.6,4.3,2.4,5.5,4.7c1.9,3.9,2.5,8,3.1,12.2c0.2,1.2,0.3,2.4,0.5,3.6c0.1,0.9,0.6,1.8,1.6,1.7
		c0.6-0.1,1.3-0.8,1.6-1.4c3.2-8.6,10.6-12.3,18.1-15.8C60.1,104.2,60.2,104.3,60.6,104.4z"/>
	<path class="st5" d="M687.7,187.8c-1.7,0-3.1-0.1-4.6,0c-2.4,0.1-4.8,0.2-7.2,0.6c-2.2,0.4-2.6,1-2.5,3.2c0,5.3,0.1,10.5,0.2,15.8
		c0,1.5,0,3.1,0,4.9c-4.1-0.2-7.9-0.4-11.8-0.4c-2.8-0.1-5.7,0-8.5,0.1c-1.6,0.1-2.1,0.9-2.1,2.6c0.2,6.8,0.5,13.6,0.7,20.4
		c0,0.9,0,1.7,0,2.8c-0.7,0.1-1.3,0.2-2,0.2c-3.4,0-6.7,0-10.1,0c-2.9,0-3.8,0.8-3.7,3.7c0.1,3.8,0.4,7.6,0.6,11.4
		c0,0.7,0.1,1.4,0.2,2.2c-2.2,0.6-4.3,0.2-6.4,0.3c-2.2,0.1-4.3,0-6.6,0c-0.1-0.6-0.3-1.2-0.3-1.8c0-16.9-0.2-33.8,0-50.7
		c0.1-12.1,1.7-24.1,4.2-35.9c2.2-10.6,9.1-16.2,19.4-18.2c11.3-2.1,22.6-2.6,34-1.3c1.5,0.2,3.1,0.3,4.6,0.5c0.3,0,0.7,0.2,1.3,0.3
		C687.7,161.7,688.7,174.6,687.7,187.8z"/>
	<path class="st8" d="M368.9,215.7c-0.3-5-0.6-10.2-1-15.7c75.6-0.5,151.1-0.9,226.7-1.4c0.1,0.8,0.1,1.3,0.2,2.2
		c-1.2,0.1-2.4,0.3-3.6,0.4c-9.3,0.8-18.6,1.5-27.8,2.4c-1.7,0.2-3.4,0.5-5,1.1c-4,1.4-6.3,4.3-6.7,8.7c-0.1,0.9-0.1,1.9-0.2,2.8
		C548.8,216.7,371.3,216.4,368.9,215.7z"/>
	<path class="st11" d="M1.2,408.2c0-1.9-0.1-3.8,0-5.8c0-0.4,0.6-0.9,1-1.3c0.4-0.3,1-0.4,1.4-0.6c9.5-3.5,18.7-7.9,26.8-13.8
		c10.4-7.6,19.7-16.3,27-27.2c5.8-8.5,8.8-18,11.8-27.7c3-9.8,5-19.9,6.9-30c2.1-10.8,4.3-21.6,6.3-32.5c1.9-10.2,3.3-20.4,5.6-30.5
		c2.2-9.6,5.3-19.1,8.2-28.6c1.8-5.8,3.5-11.6,6-17.1c7.7-17.1,17-33.2,31-46c13.2-12.1,28.2-21.5,45.1-27.7
		c6.7-2.5,13.5-4.6,20.6-5.9c0.9-0.2,1.9-0.2,2.8,0c1,0.1,1.7,0.8,1.7,2.1c-10.7,1.3-20.4,5.5-29.7,10.7c-5.9,3.3-11.4,7.1-17,10.9
		c-16.8,11.5-28.9,26.9-38.2,44.8c-4.1,8-8.4,15.9-11.1,24.5c-3.3,10.8-6.7,21.6-9.4,32.5c-2.5,10.3-4.3,20.8-6.3,31.2
		c-2.7,14.2-5.4,28.4-8.1,42.7c-2.1,11.5-5.2,22.7-8.8,33.7c-2.9,8.9-7.5,16.9-13.2,24.1c-5.5,6.9-11.9,13-19,18.2
		C31.2,398,18,404.1,3.8,408c-0.6,0.2-1.2,0.3-1.8,0.4C1.9,408.4,1.7,408.3,1.2,408.2z"/>
	<path class="st4" d="M203.9,379.7c2.8-11.1,5.6-21.9,8.4-32.8c29.4-0.3,58.8-0.7,88.2-1c0.6,1.9,1.3,29.7,0.8,33.3
		C268.9,378,236.5,377.6,203.9,379.7z"/>
	<path class="st4" d="M222,298.3c26-1.9,51.8-2.1,78-0.8c0.2,11.5,0.5,22.7,0.7,34.2c-1.9-0.2-3.6-0.4-5.2-0.4
		c-6.8-0.3-13.6-0.7-20.4-0.7c-18.9,0.1-37.8,0.4-56.7,0.6c-0.9,0-1.9,0-3,0C217.6,320.2,219.8,309.3,222,298.3z"/>
	<path class="st6" d="M21.3,36.6c12.6,0,25.1,0,37.8,0c0.1,0.6,0.2,1.2,0.2,1.9c0.2,13.2,0.5,26.4,0.7,39.6
		c0.1,6.6,0.2,13.3,0.4,19.9c0,1.7-0.3,2.7-2.1,3.5c-6.3,2.7-12,6.5-16.5,11.8c-0.1,0.2-0.4,0.2-0.7,0.4c-0.4-2-0.8-3.9-1.3-5.8
		c-0.5-1.7-1.1-3.5-1.8-5.1c-1.9-4.3-5.4-6.6-10.1-7c-2.1-0.2-4.3,0-6.4,0C21,93.8,20.7,42.2,21.3,36.6z"/>
	<path class="st12" d="M680.9,1.1c6.2,0,12.1,0,18.3,0c0.5,62.6,1,125.1,1.4,187.8c-1.1-0.1-2.1-0.1-3.1-0.2
		c-2.1-0.2-4.2-0.4-6.5-0.6c0-1.4,0-2.6,0-3.8c0.4-11.6-0.1-23.1-0.8-34.6c-0.6-10.2-1.2-20.5-1.9-30.7c-0.5-8.5-1.2-17-1.8-25.5
		c-0.6-9-1.2-18.1-1.8-27.1c-0.6-8.4-1.2-16.8-1.8-25.3c-0.5-7.3-0.9-14.6-1.3-21.9C681.4,13.3,681.2,7.3,680.9,1.1z"/>
	<path class="st13" d="M654.9,214.8c33.6,1.3,66.9,0.6,100.5,0.5c-0.3,8.3-0.6,16.4-0.8,24.5c-3.4,0-6.6,0.1-9.7,0
		c-20.9-0.9-41.8-2.7-62.8-2.2c-7.9,0.2-15.9,0.3-23.8,0.5c-0.9,0-1.9,0-3.2,0C655,230.4,654.4,222.8,654.9,214.8z"/>
	<path class="st14" d="M175.4,117.4c-2.5,1.1-4.7,2.2-7.2,3.3c-0.4-0.9-0.8-1.6-1.1-2.4c-11.7-27.2-23.5-54.4-35.2-81.6
		c-0.1-0.3-0.3-0.6-0.4-0.9c-0.5-2.2-1.9-2.6-4-2.6c-41.1,0.2-82.1,0.4-123.2,0.6c-0.9,0-1.9,0-3,0c0-3.3,0-6.3,0-9.7
		c45,0,89.9,0,135.2,0C149.4,54.8,162.3,86,175.4,117.4z"/>
	<path class="st9" d="M378.1,256.9c1.3-3.4,2.3-6.3,3.4-9.2c0.8-2.1,1.8-4.1,2.7-6.1c0.5-1.1,1.1-1.9,2.5-1.7c0.3,0,0.5,0,0.8,0
		c37-0.1,74-0.1,111-0.2c0.8,0,1.5,0,2.5,0c0,5.5,0,10.9,0,16.6C460.2,256.4,419.4,256.7,378.1,256.9z"/>
	<path class="st7" d="M811.1,148.6c-0.4,13.1-0.8,25.8-1.1,38.7c-0.7,0.1-1.3,0.1-1.9,0.1c-4.1,0.2-8.1-0.2-12.3,0.9
		c-3.8,1-7.9,0.8-11.8,0.9c-7.3,0.2-14.7,0.1-22,0.1c-0.5,0-1-0.1-1.8-0.2c0.2-2,0.4-4,0.6-5.9c0.7-5.2,1.6-10.4,3.6-15.3
		c0.6-1.6,1.4-3.2,2.1-4.7c3.3-6.4,8.5-10.3,15.6-11.5c5.5-0.9,11.1-1.5,16.7-2.1C802.9,149.2,806.8,148.9,811.1,148.6z"/>
	<path class="st10" d="M369.6,227.3c-0.2-3.2-0.3-6.2-0.5-9.3c60.8,0,121.5,0,182.4,0c0.2,3.1,0.2,6,0,9.2
		C490.7,227.2,430,227.3,369.6,227.3z"/>
	<path class="st4" d="M299.4,260.6c0.1,7.5,0.3,14.9,0.4,22.4c-2.1,0.6-70.7,0-75.1-0.6c1.4-7.2,2.7-14.3,4.1-21.7
		C252.3,260.6,275.6,260.6,299.4,260.6z"/>
	<path class="st13" d="M676.8,191.3c1.5-0.2,3.1-0.5,4.7-0.5c8.4,0.4,16.9,1.1,25.3,1.5c5.9,0.2,11.9,0.1,17.8,0.1
		c10.2,0,20.3-0.1,30.5-0.2c0.5,0,1,0.1,1.7,0.2c-0.4,6.6-0.8,13.1-1.2,19.7c-0.9,0.1-1.5,0.2-2.2,0.2c-23.1,0.1-46.2,0.2-69.3,0.3
		c-1.8,0-3.6-0.1-5.4-0.2c-1.1,0-1.9-0.5-1.9-1.7C676.7,204.3,676.8,198,676.8,191.3z"/>
	<path class="st10" d="M367.8,198.5c-0.1-2.4-0.3-4.6-0.4-7.3c25.4-0.3,50.7-0.2,75.9-0.3c25.2-0.1,50.3-0.3,75.5-0.4
		c25.2-0.1,50.5,0,75.9,0c0,2,0,4.2,0,6.7C519.1,197.6,443.6,198,367.8,198.5z"/>
	<path class="st13" d="M754.5,243.1c-0.1,4.3-0.3,8-0.4,12.1c-38,0.2-75.8,0.4-113.6,0.6c-0.9-2.7-1.4-11.4-0.9-14.3
		c0.3,0,0.6-0.1,0.9-0.1c18.2-0.2,36.4-0.6,54.6-0.5c11.3,0.1,22.6,0.9,33.8,1.4c7.5,0.3,15,0.6,22.5,0.9
		C752.3,243.1,753.2,243.1,754.5,243.1z"/>
	<path class="st10" d="M342.4,250.6c-0.4-6.6-0.8-13.3-1.2-20.1c70.2,0,140.1,0,210.1,0c0,1,0,1.9,0,2.9c0,0.9-0.2,1.9-0.3,3.1
		c-1.1,0-2.1,0.1-3.1,0.1c-21.6,0-43.1,0.1-64.7,0.1c-42.2,0.1-84.4,0.2-126.5,0.3c-1.1,0-2.2,0-3.3-0.2c-2.1-0.3-2.2-0.4-3.3,1.5
		c-2.1,3.7-4.2,7.3-6.3,11c-0.3,0.5-0.6,0.9-0.9,1.4C342.7,250.6,342.5,250.6,342.4,250.6z"/>
	<path class="st9" d="M233.5,240.6c1.9-7,3.7-13.9,5.6-20.9c19.9-1.2,39.5-0.5,59.4-1.1c0.1,7.4,0.3,14.6,0.4,22
		C277.1,240.6,255.5,240.6,233.5,240.6z"/>
	<path class="st12" d="M770.8,254.8c0-4,0-7.9,0-12c3.6-0.1,7.1-0.3,10.6-0.4c1.5,0,2.9,0,4.4,0c2.4-0.1,3.1-0.7,2.9-3.2
		c-0.1-2.9-0.3-5.9-0.7-8.8c-0.6-5.4,0.1-10.7,0.7-16.3c2.3,0,4.5,0,6.7,0c0.8,0,1.6,0,2.3,0c2.2-0.1,2.6-0.7,2.6-2.9
		c-0.1-6.7-0.1-13.5-0.1-20.2c0-0.1,0-0.2,0.1-0.2c2.4-0.7,7.2-0.6,9.6,0.3c-0.7,21.1-1.5,42.3-2.2,63.7
		C795.3,254.8,783.2,254.8,770.8,254.8z"/>
	<path class="st9" d="M278.9,175.1c6.4,0.2,12.4,0.3,18.8,0.4c0.2,10.1,0.4,19.9,0.5,30c-18.3-0.1-36.2-0.7-54.4-1.6
		c0.1-0.7,0.2-1.3,0.3-1.8c1.9-5.2,3.9-10.3,5.8-15.5c0.5-1.3,1.3-1.8,2.6-2c4.7-0.8,9.3,0,13.8,1.3c3.8,1.1,7.5,2.5,11.2,3.9
		c2.2,0.8,3.1,0.4,3.1-2c0-1.5-0.3-3.1-0.5-4.6C279.8,180.7,279.4,178,278.9,175.1z"/>
	<path class="st11" d="M224.2,114.7c-5.3,0.2-10.2,0.5-15.6,0.7c0-1.5,0-2.9,0-4.2c-0.4-17-0.7-34.1-1.1-51.1
		c-0.1-3.2,0.1-6.4,0.3-9.5c0.3-6,3-8,8.8-6.5c4.2,1,6.7,4,7.1,8.8c0.3,3.5,0.3,7,0.3,10.6c0,3.9-0.1,7.7-0.1,11.6
		c0.1,12.5,0.2,25,0.3,37.5C224.2,113,224.2,113.7,224.2,114.7z"/>
	<path class="st6" d="M17.9,95.9c-3.2,1-6.1,1.8-8.8,3c-2.6,1.1-5.1,2.8-7.8,4.3c0-22,0-44,0-66.2c5.5,0,11,0,16.6,0
		C17.9,56.6,17.9,76.3,17.9,95.9z"/>
	<path class="st11" d="M202.7,382.8c33-2.1,65.8-2.1,98.9-0.4c0,3.7,0,7,0,10.4c-34-1-67.9-2.6-102.1-0.2
		C200.6,389.3,201.6,386.2,202.7,382.8z"/>
	<path class="st5" d="M564.4,256c-20.1,0-40,0-60,0c0-5.3,0-10.6,0-16.1c0.5-0.1,1.1-0.2,1.7-0.2c14.6,0,29.3,0,43.9-0.1
		c1.1,0,1.9,0.1,2.7,1.1c3.8,4.8,7.6,9.5,11.5,14.3C564.2,255.2,564.2,255.4,564.4,256z"/>
	<path class="st11" d="M300.7,334.9c0,2.7,0,5,0,7.5c-2.8,0.9-82.4,1.9-87.9,1.1c0.6-3,1.2-6,1.8-9.2c26-0.3,51.8-1.4,77.5-0.2
		C295,334.2,297.8,334.6,300.7,334.9z"/>
	<path class="st9" d="M366.6,227.2c-8.5,0-16.9,0-25.6,0c-0.5-8.7-1-17.4-1.5-26.1c1.1-0.5,1.9-0.9,2.8-1.2
		c5.1-1.6,16.6-2.7,22.5-2.7C365.3,207.1,365.9,217,366.6,227.2z"/>
	<path class="st13" d="M758.7,212.1c0.4-6.8,0.8-13.1,1.2-19.5c12.4-0.3,24.7-0.6,37.2-0.8c0,6.2,0,12.6,0,19.1
		c-0.4,0.1-0.7,0.2-1.1,0.2c-5.6,0.2-11.2,0.4-16.8,0.6c-5.9,0.2-11.7,0.3-17.6,0.4C760.8,212.2,759.9,212.1,758.7,212.1z"/>
	<path class="st13" d="M757.7,240.1c0.3-8.4,0.6-16.4,0.8-24.7c9.1-0.5,18-0.6,27.2-0.6c-1.6,8.3-0.7,16.4,0,24.6
		C776.3,239.6,767.2,239.8,757.7,240.1z"/>
	<path class="st11" d="M222.5,295.3c0.6-3.4,1.1-6.5,1.6-9.7c25.3,0.3,50.3,0.6,75.7,0.9c0,2.7,0,5.1,0,7.7
		C274.2,293.6,248.5,293.3,222.5,295.3z"/>
	<path class="st6" d="M297,146.8c-7.5,3.6-14.9,7.5-19.2,15.1c-5.2,0-10.4,0-15.6,0c0.7-3.7,8.2-15,13.6-20.8
		c5.8-6.3,13.5-9.7,20.6-14.1C297.1,128.8,297.5,141.7,297,146.8z"/>
	<path class="st11" d="M298.3,208.8c0,2.2,0,4.3,0,6.8c-19.3,0.3-38.7,0.5-58.2,0.8c0.9-3.1,1.7-6.1,2.5-9.2
		C261.2,207.7,279.6,208.2,298.3,208.8z"/>
	<path class="st8" d="M554.8,216.4c-0.7-5.4,1.4-8.5,6.3-9.4c3.6-0.6,7.2-1,10.7-1.4c6.9-0.6,13.7-1.1,20.6-1.6c0.7,0,1.3,0,2.2,0
		c0,4.2,0,8.2,0,12.3C581.4,216.4,568.2,216.4,554.8,216.4z"/>
	<path class="st9" d="M368.2,240c2.4,5.7,4.7,11.1,7.1,16.8c-10.6,0-20.9,0-31.5,0c0.1-0.6,0.2-1.1,0.4-1.6
		c1.9-3.6,3.8-7.1,5.7-10.7c0.4-0.7,1-1.3,1.2-2c0.6-2.1,1.9-2.7,4-2.6C359.5,240.1,363.8,240,368.2,240z"/>
	<path class="st10" d="M595,218.2c0,2.5,0,4.8,0,7.1c0,1.2-0.8,1.8-2,1.8c-0.3,0-0.7,0-1,0c-11.6,0-23.3,0-34.9,0
		c-0.7,0-1.3-0.1-2.2-0.1c0-3,0-5.9,0-8.8C568.2,218.2,581.4,218.2,595,218.2z"/>
	<path class="st11" d="M299,244c0,1.6,0,3.1,0,5c-22.4,0.2-44.9,0.5-67.6,0.7c0.2-1,0.4-1.9,0.6-2.8c0.2-0.9,0.5-1.8,0.8-2.9
		C254.7,244,276.7,244,299,244z"/>
	<path class="st9" d="M299.1,252.2c0,1.7,0,3.2,0,5c-23.1,0-46.1,0-69.4,0c0.2-1.3,0.4-2.7,0.6-4
		C232.3,252.6,294.6,251.8,299.1,252.2z"/>
	<path class="st5" d="M569.6,255.7c0.2-3.4,0.3-6.6,0.5-9.9c0.1-1.8,0.3-3.6,0.3-5.4c0-1.3,0.4-2,1.7-2.4c2.3-0.6,4.6-1.4,7.1-2.2
		c4.6,6.5,9.2,13,13.8,19.4C591.4,255.9,573.7,256.3,569.6,255.7z"/>
	<path class="st11" d="M256.7,171.6c1.2-2.5,2.2-4.4,3.3-6.5c12.5-0.1,25-0.2,37.5,0.9c0.1,0.7,0.2,1.1,0.2,1.5c0,1.5,0,3.1,0,4.9
		C284,172.3,270.6,171.9,256.7,171.6z"/>
	<path class="st10" d="M554.6,230.4c10.2,0,20.2,0,30.6,0c-0.7,0.4-1.1,0.7-1.5,0.8c-4.6,1.5-9.2,2.9-13.8,4.3
		c-2.1,0.6-2.3,0.7-2.5,2.9c-0.2,3.7-0.4,7.4-0.6,11.1c-0.1,0.9-0.1,1.8-0.2,3.2c-0.7-0.6-1.1-1-1.5-1.4c-3.4-4.2-6.7-8.3-10.1-12.5
		c-0.8-1-1.2-2-1-3.3C554.4,233.9,554.4,232.3,554.6,230.4z"/>
	<path class="st6" d="M252.1,181.7c1.2-2.6,2.1-4.9,3.2-7.2c6.8,0.2,13.5,0.4,20.5,0.6c0.6,3.6,1.2,7.2,1.9,11.3
		C269.3,183.5,261.3,180.6,252.1,181.7z"/>
	<path class="st15" d="M594.2,251.5c-3.9-5.5-7.7-11-11.8-16.7c4.3-1.3,8.2-2.6,12.3-3.8c0,6.9,0,13.6,0,20.3
		C594.5,251.4,594.3,251.4,594.2,251.5z"/>
	<path class="st13" d="M767.5,255c-3.4,0-6.7,0-10.2,0c-0.3-3.8,0.1-7.6,0.2-11.8c3.4,0,6.6,0,10,0C767.5,247,767.5,250.8,767.5,255
		z"/>
	<path class="st9" d="M281.2,162c4.3-5.8,9.8-8.9,16-11.9c0,4.4,0,8.4,0,12.7C292.1,162.6,287,162.3,281.2,162z"/>
	<path class="st15" d="M376.5,251.8c-1.7-4.1-3.3-7.8-4.9-11.7c3.4,0,6.5,0,10,0C379.9,244,378.3,247.7,376.5,251.8z"/>
	<path d="M803.7,85.6c-0.2,3.9-0.9,6.9-2.6,9.6c-0.3,0.5-0.7,1-1.1,1.4c-1.9,1.9-3.9,1.5-4.7-1.1c-0.4-1.1-0.5-2.4-0.6-3.6
		c-0.1-1.6-0.2-3.3,0-4.9c0.2-2.5,1.7-4.5,3.3-6.2c1.3-1.3,3.4-1,4.4,0.8C803.2,83.1,803.5,84.7,803.7,85.6z M800,83.3
		c-2.7,3.2-3.1,7-1.2,10C800.3,90.1,801.4,87,800,83.3z"/>
	<path class="st12" d="M800,83.3c1.4,3.7,0.3,6.8-1.2,10C796.9,90.3,797.4,86.5,800,83.3z"/>
</g>
</svg>
