<?xml version="1.0" encoding="utf-8"?>
<!-- Generator: Adobe Illustrator 22.1.0, SVG Export Plug-In . SVG Version: 6.00 Build 0)  -->
<svg version="1.1" xmlns="http://www.w3.org/2000/svg" xmlns:xlink="http://www.w3.org/1999/xlink" x="0px" y="0px"
	 viewBox="0 0 690 500" style="enable-background:new 0 0 690 500;" xml:space="preserve">
<style type="text/css">
	.st0{clip-path:url(#SVGID_2_);}
	.st1{clip-path:url(#SVGID_4_);}
	.st2{clip-path:url(#SVGID_4_);fill:#FFF13E;}
	.st3{fill:#FFFFFF;stroke:#000000;stroke-miterlimit:10;}
	.st4{font-family:'Roboto-Regular', sans-serif;}
	.st5{font-size:34.6296px;}
	.st6{clip-path:url(#SVGID_6_);}
	.st7{clip-path:url(#SVGID_8_);}
	.st8{clip-path:url(#SVGID_8_);fill:#FFF13E;}
	.st9{clip-path:url(#SVGID_10_);}
	.st10{clip-path:url(#SVGID_12_);}
	.st11{clip-path:url(#SVGID_12_);fill:#FFF13E;}
	.st12{clip-path:url(#SVGID_14_);}
	.st13{clip-path:url(#SVGID_16_);}
	.st14{clip-path:url(#SVGID_16_);fill:#FFF13E;}
	.st15{clip-path:url(#SVGID_18_);}
	.st16{clip-path:url(#SVGID_20_);}
	.st17{clip-path:url(#SVGID_20_);fill:#FFF13E;}
	.st18{clip-path:url(#SVGID_22_);}
	.st19{clip-path:url(#SVGID_24_);}
	.st20{clip-path:url(#SVGID_24_);fill:#FFF13E;}
	.st21{font-size:43.238px;}
	.st22{clip-path:url(#SVGID_26_);}
	.st23{clip-path:url(#SVGID_28_);}
	.st24{clip-path:url(#SVGID_28_);fill:#FFF13E;}
</style>
<g id="U">
	<g>
		<g>
			<defs>
				<rect id="SVGID_1_" x="493" y="350" width="138" height="128"/>
			</defs>
			<clipPath id="SVGID_2_">
				<use xlink:href="#SVGID_1_"  style="overflow:visible;"/>
			</clipPath>
			<g class="st0">
				<defs>
					<rect id="SVGID_3_" x="562" y="350" width="69" height="118.8"/>
				</defs>
				<clipPath id="SVGID_4_">
					<use xlink:href="#SVGID_3_"  style="overflow:visible;"/>
				</clipPath>
				<path class="st1" d="M600.9,424.6c0,5.5-3,11.6-9.2,16.6c-3.2,2.6-7.1,4.3-11.2,5.7c-1.7,0.6-3.5,1.2-5.3,1.7
					c-2.5,0.7-4.1,2.1-5.2,3.9c-0.9,1.4-1.9,2.6-3.4,3.6c-3.5,2.4-8.1,1.7-10-0.4c-1-1.1-2-2.2-2.9-3.4c-1.3-1.6-2.6-3-5-3.7
					c-4-1.1-7.9-2.4-11.5-4.3c-9.3-4.9-14.1-11.9-14.2-20.8c0-8.3,2.3-16.4,6.3-24.1c2.3-4.4,6-7.8,10.6-10.8
					c2.8-1.8,5.6-3.6,8.4-5.4c2.2-1.4,3.4-3.1,3.7-5.4c0.2-1.2,0.6-2.4,1.1-3.6c0.7-1.8,2.3-3,4.6-3.4c2.8-0.6,5.7-0.6,8.5,0
					c2.2,0.5,3.8,1.5,4.5,3.3c0.6,1.5,1,3,1.3,4.5c0.3,1.4,1,2.7,2.4,3.7c2.5,1.7,5.1,3.4,7.8,5.1c5.3,3.3,9.7,7.1,12.4,12
					c1.7,3.1,3,6.4,3.9,9.7C599.7,413.7,600.9,418.3,600.9,424.6 M525.8,423c0,0.6-0.1,1.3,0,1.9c0.9,8.6,5.6,15.1,15.4,19
					c2.5,1,5,1.9,7.6,2.6c3.6,1,5.9,3,7.7,5.6c0.6,0.9,1.5,1.8,2.4,2.5c1.4,1.1,3,1.1,4.8,0.6c2-0.6,3.1-1.9,4-3.3
					c1.6-2.4,3.7-4.3,7.1-5.3c2.2-0.6,4.3-1.3,6.4-2.1c3.6-1.3,6.9-2.9,9.6-5.3c5.7-5.1,8-11.2,7.3-18c-0.5-5.4-1.8-10.6-3.6-15.7
					c-1.4-4-3.4-7.8-6.8-11c-2.6-2.6-5.9-4.7-9.2-6.7c-1.9-1.2-3.8-2.5-5.6-3.8c-1.9-1.4-2.9-3.2-3.3-5.2c-0.3-1.3-0.7-2.6-1.1-3.9
					c-0.4-1.2-1.3-1.9-2.9-2c-2.4-0.1-4.9-0.2-7.3-0.1c-1.5,0.1-2.7,0.7-3.1,2c-0.4,1.4-0.8,2.7-1.1,4.1c-0.4,2-1.3,3.7-3.2,5
					c-2.5,1.8-5.1,3.5-7.8,5.2c-4.2,2.6-7.8,5.6-10.3,9.3c-2.1,3.2-3.4,6.6-4.5,10.1C527,413.3,525.9,418.1,525.8,423"/>
				<path class="st2" d="M525.8,423c0.1-4.9,1.3-9.7,2.7-14.5c1-3.5,2.4-6.9,4.5-10.1c2.5-3.8,6.2-6.7,10.3-9.3
					c2.6-1.7,5.3-3.4,7.8-5.2c1.9-1.3,2.8-3.1,3.2-5c0.3-1.4,0.7-2.7,1.1-4.1c0.4-1.3,1.6-2,3.1-2c2.4-0.1,4.9,0,7.3,0.1
					c1.5,0.1,2.5,0.8,2.9,2c0.4,1.3,0.8,2.6,1.1,3.9c0.4,2,1.4,3.8,3.3,5.2c1.8,1.3,3.7,2.6,5.6,3.8c3.3,2,6.5,4.1,9.2,6.7
					c3.3,3.3,5.3,7,6.8,11c1.8,5.2,3.1,10.4,3.6,15.7c0.6,6.8-1.6,12.9-7.3,18c-2.6,2.4-6,4-9.6,5.3c-2.1,0.8-4.3,1.5-6.4,2.1
					c-3.4,0.9-5.5,2.8-7.1,5.3c-0.9,1.5-2,2.7-4,3.3c-1.8,0.5-3.4,0.5-4.8-0.6c-0.9-0.8-1.8-1.6-2.4-2.5c-1.8-2.6-4.1-4.6-7.7-5.6
					c-2.6-0.7-5.1-1.6-7.6-2.6c-9.7-3.9-14.5-10.4-15.4-19C525.7,424.3,525.8,423.7,525.8,423 M562.2,376.5c0.9-0.3,1.8-0.5,2.6-0.8
					c0.3-0.2,0.4-0.7,0.6-1.1c-0.4-0.1-1-0.4-1.3-0.3c-1.7,0.5-3.3,0.4-5,0c-0.3-0.1-0.7,0.1-1,0.2c0.2,0.3,0.2,0.6,0.5,0.8
					C559.5,376,560.7,376.3,562.2,376.5 M537.9,433.2c-0.6-0.4-1-0.7-1.4-0.9c-0.3,0.3-0.8,0.6-0.9,1c-0.1,0.4,0.3,0.9,0.9,0.8
					C537,434,537.3,433.6,537.9,433.2 M553,415.2c-0.1,0-0.3,0-0.4,0c-0.3,0.3-0.7,0.6-0.8,1c-0.1,0.5,0.3,0.8,0.9,0.8
					c0.7,0,1.1-0.3,1-0.8C553.6,415.8,553.2,415.5,553,415.2 M541,432.5c0,0.1,0,0.2,0,0.3c0.4,0.2,0.7,0.6,1.1,0.6
					c0.3,0,0.9-0.4,0.9-0.7c0.1-0.5-0.3-0.8-0.9-0.8C541.7,432,541.3,432.3,541,432.5 M545.2,417.7c-0.1,0-0.3,0-0.4,0
					c-0.2,0.3-0.7,0.6-0.7,0.8c0,0.3,0.5,0.5,0.8,0.8c0.3-0.2,0.8-0.5,0.9-0.7C545.9,418.3,545.4,417.9,545.2,417.7 M584.6,408.2
					c0.5-0.4,0.8-0.7,1.1-0.9c-0.3-0.2-0.6-0.6-1-0.7c-0.5-0.1-1,0.2-0.9,0.7C583.8,407.5,584.2,407.7,584.6,408.2 M571,419.3
					c-0.1,0-0.3,0-0.4,0c-0.2,0.3-0.6,0.6-0.6,0.9c0,0.2,0.5,0.6,0.9,0.6c0.6,0.1,0.9-0.3,0.8-0.8
					C571.7,419.8,571.3,419.5,571,419.3 M591.8,414.4c-0.5-0.3-0.8-0.6-1.1-0.6c-0.3,0-0.8,0.5-0.7,0.6c0.1,0.3,0.5,0.6,0.8,0.9
					C591,415,591.3,414.8,591.8,414.4 M576.2,434.5c0.5,0.3,0.9,0.6,1.2,0.6c0.3,0,0.6-0.4,0.9-0.6c-0.3-0.2-0.5-0.6-0.9-0.7
					C577.1,433.8,576.8,434.2,576.2,434.5 M538,401.3c-0.1,0-0.3,0-0.4,0c-0.2,0.2-0.6,0.6-0.5,0.7c0.2,0.3,0.6,0.5,1,0.7
					c0.1,0,0.6-0.4,0.5-0.5C538.5,401.9,538.2,401.6,538,401.3 M575.9,410.5c0.4-0.4,0.8-0.7,0.8-0.8c-0.1-0.3-0.5-0.5-0.8-0.7
					c-0.3,0.2-0.7,0.4-0.7,0.6C575.1,409.8,575.5,410.1,575.9,410.5 M557.4,385.3c-0.6-0.3-0.9-0.6-1.1-0.6c-0.3,0-0.5,0.4-0.8,0.6
					c0.3,0.2,0.5,0.5,0.8,0.6C556.5,385.8,556.8,385.5,557.4,385.3 M534.1,418.4c0.3-0.5,0.6-0.8,0.6-1c0-0.2-0.4-0.3-0.7-0.5
					c-0.2,0.2-0.6,0.5-0.7,0.7C533.3,417.8,533.7,418,534.1,418.4 M548.6,415.8c-0.5-0.3-0.8-0.6-1.1-0.6c-0.2,0-0.4,0.4-0.6,0.6
					c0.3,0.2,0.6,0.5,0.9,0.6C547.9,416.4,548.2,416.1,548.6,415.8 M541.5,399.3c-0.4-0.3-0.8-0.6-1-0.6c-0.3,0.1-0.7,0.4-0.7,0.6
					c0,0.2,0.4,0.6,0.6,0.6C540.8,399.9,541,399.6,541.5,399.3 M542.6,437.3c-0.6-0.2-0.9-0.4-1.3-0.4c-0.2,0-0.4,0.3-0.6,0.5
					c0.3,0.2,0.5,0.5,0.8,0.5C541.8,437.9,542.1,437.6,542.6,437.3 M581.2,401.8c-0.6-0.3-0.9-0.6-1.2-0.6c-0.2,0-0.5,0.3-0.7,0.5
					c0.3,0.2,0.5,0.5,0.8,0.5C580.4,402.3,580.7,402.1,581.2,401.8 M549.2,390.1c-0.3,0.4-0.6,0.6-0.6,0.9c0,0.2,0.4,0.4,0.6,0.5
					c0.2-0.2,0.6-0.4,0.7-0.7C549.9,390.7,549.6,390.5,549.2,390.1 M553.8,421.1c-0.4,0.4-0.7,0.6-0.7,0.7c0.1,0.2,0.4,0.4,0.7,0.6
					c0.2-0.2,0.6-0.3,0.6-0.5C554.4,421.7,554.1,421.5,553.8,421.1 M593.6,423.7c-0.5-0.2-0.8-0.4-1.1-0.4c-0.2,0-0.4,0.3-0.6,0.5
					c0.2,0.2,0.5,0.4,0.8,0.4C592.9,424.2,593.1,424,593.6,423.7 M582.8,432.4c-0.5-0.2-0.7-0.5-0.9-0.5c-0.2,0-0.4,0.3-0.7,0.5
					c0.2,0.2,0.4,0.5,0.7,0.5C582.1,432.9,582.3,432.6,582.8,432.4 M574.7,403.9c-0.4-0.2-0.6-0.5-0.8-0.5c-0.2,0-0.4,0.2-0.6,0.4
					c0.2,0.2,0.4,0.4,0.6,0.5C574,404.4,574.3,404.1,574.7,403.9 M576.7,439.6c-0.4-0.2-0.6-0.5-0.8-0.5c-0.2,0.1-0.4,0.3-0.6,0.5
					c0.2,0.1,0.4,0.4,0.6,0.4C576.2,440,576.4,439.8,576.7,439.6 M578.7,426.6c-0.4-0.2-0.7-0.4-0.8-0.4c-0.2,0.1-0.4,0.3-0.6,0.5
					c0.2,0.1,0.4,0.4,0.6,0.4C578.1,427,578.3,426.8,578.7,426.6 M567.3,445.1c-0.4-0.2-0.6-0.4-0.8-0.4c-0.2,0-0.4,0.3-0.7,0.4
					c0.2,0.1,0.4,0.4,0.6,0.4C566.7,445.6,566.9,445.3,567.3,445.1 M547.1,438c0.3-0.3,0.6-0.5,0.5-0.6c0-0.2-0.3-0.3-0.5-0.5
					c-0.2,0.1-0.5,0.3-0.5,0.4C546.6,437.5,546.8,437.7,547.1,438 M555.4,389.3c-0.3,0.3-0.5,0.5-0.5,0.6c0,0.2,0.3,0.3,0.5,0.5
					c0.2-0.2,0.4-0.3,0.5-0.5C555.9,389.8,555.7,389.6,555.4,389.3 M580.4,393.1c-0.3-0.2-0.5-0.4-0.7-0.4c-0.1,0-0.3,0.2-0.5,0.3
					c0.2,0.2,0.4,0.4,0.6,0.5C579.9,393.5,580.2,393.3,580.4,393.1 M536.6,426.4c-0.4-0.2-0.6-0.3-0.8-0.3c-0.1,0-0.4,0.3-0.4,0.4
					c0.1,0.2,0.3,0.3,0.5,0.4C536.1,426.8,536.3,426.6,536.6,426.4 M565.6,388.5c0.2-0.2,0.4-0.4,0.4-0.5c0-0.1-0.3-0.2-0.5-0.4
					c-0.1,0.1-0.3,0.3-0.4,0.4C565.1,388.2,565.3,388.3,565.6,388.5"/>
				<path class="st1" d="M562.2,376.5c-1.4-0.2-2.6-0.5-3.7-1.1c-0.3-0.2-0.3-0.5-0.5-0.8c0.3-0.1,0.7-0.3,1-0.2
					c1.7,0.3,3.3,0.5,5,0c0.3-0.1,0.9,0.2,1.3,0.3c-0.2,0.4-0.2,0.9-0.6,1.1C564,376.1,563,376.2,562.2,376.5"/>
				<path class="st1" d="M584.6,408.2c-0.4-0.4-0.8-0.7-0.8-1c-0.1-0.5,0.4-0.8,0.9-0.7c0.4,0.1,0.7,0.5,1,0.7
					C585.4,407.5,585.1,407.7,584.6,408.2"/>
				<path class="st1" d="M571,419.3c0.3,0.3,0.7,0.5,0.7,0.8c0.1,0.4-0.2,0.8-0.8,0.8c-0.3,0-0.8-0.4-0.9-0.6c0-0.3,0.4-0.6,0.6-0.9
					C570.7,419.3,570.9,419.3,571,419.3"/>
				<path class="st1" d="M591.8,414.4c-0.4,0.4-0.7,0.6-1,0.9c-0.3-0.3-0.7-0.5-0.8-0.9c0-0.2,0.5-0.6,0.7-0.6
					C591,413.7,591.3,414.1,591.8,414.4"/>
				<path class="st1" d="M576.2,434.5c0.5-0.3,0.9-0.7,1.1-0.6c0.3,0.1,0.6,0.4,0.9,0.7c-0.3,0.2-0.6,0.6-0.9,0.6
					C577.1,435.1,576.8,434.8,576.2,434.5"/>
				<path class="st1" d="M575.9,410.5c-0.4-0.4-0.8-0.6-0.8-0.9c0-0.2,0.5-0.4,0.7-0.6c0.3,0.2,0.7,0.4,0.8,0.7
					C576.7,409.8,576.3,410.1,575.9,410.5"/>
				<path class="st1" d="M581.2,401.8c-0.5,0.3-0.9,0.5-1.1,0.5c-0.3-0.1-0.5-0.3-0.8-0.5c0.2-0.2,0.5-0.5,0.7-0.5
					C580.4,401.3,580.7,401.5,581.2,401.8"/>
				<path class="st1" d="M593.6,423.7c-0.5,0.3-0.7,0.5-1,0.5c-0.3,0-0.5-0.3-0.8-0.4c0.2-0.2,0.4-0.5,0.6-0.5
					C592.8,423.3,593.1,423.5,593.6,423.7"/>
				<path class="st1" d="M582.8,432.4c-0.4,0.3-0.7,0.5-0.9,0.5c-0.3,0-0.5-0.3-0.7-0.5c0.2-0.2,0.4-0.4,0.7-0.5
					C582.1,431.9,582.3,432.1,582.8,432.4"/>
				<path class="st1" d="M574.7,403.9c-0.4,0.2-0.7,0.5-0.8,0.4c-0.2-0.1-0.4-0.3-0.6-0.5c0.2-0.1,0.4-0.4,0.6-0.4
					C574.1,403.4,574.3,403.7,574.7,403.9"/>
				<path class="st1" d="M576.7,439.6c-0.4,0.2-0.6,0.5-0.8,0.5c-0.2,0-0.4-0.3-0.6-0.4c0.2-0.2,0.4-0.4,0.6-0.5
					C576.1,439.1,576.4,439.3,576.7,439.6"/>
				<path class="st1" d="M578.7,426.6c-0.4,0.2-0.6,0.5-0.8,0.5c-0.2,0-0.4-0.2-0.6-0.4c0.2-0.2,0.3-0.5,0.6-0.5
					C578,426.1,578.3,426.4,578.7,426.6"/>
				<path class="st1" d="M567.3,445.1c-0.4,0.2-0.6,0.5-0.8,0.5c-0.2,0-0.4-0.3-0.6-0.4c0.2-0.1,0.4-0.4,0.7-0.4
					C566.7,444.7,566.9,444.9,567.3,445.1"/>
				<path class="st1" d="M580.4,393.1c-0.3,0.2-0.5,0.4-0.6,0.4c-0.2-0.1-0.4-0.3-0.6-0.5c0.2-0.1,0.3-0.4,0.5-0.3
					C579.9,392.7,580.1,392.9,580.4,393.1"/>
				<path class="st1" d="M565.6,388.5c-0.2-0.2-0.5-0.3-0.4-0.4c0-0.2,0.2-0.3,0.4-0.4c0.2,0.1,0.4,0.2,0.5,0.4
					C566,388.1,565.7,388.3,565.6,388.5"/>
			</g>
		</g>
	</g>
	<text transform="matrix(1 0 0 1 567.6582 427.3423)" class="st3 st4 st5">u</text>
</g>
<g id="O">
	<g>
		<g>
			<defs>
				<rect id="SVGID_5_" x="391" y="350" width="138" height="128"/>
			</defs>
			<clipPath id="SVGID_6_">
				<use xlink:href="#SVGID_5_"  style="overflow:visible;"/>
			</clipPath>
			<g class="st6">
				<defs>
					<rect id="SVGID_7_" x="460" y="350" width="69" height="118.8"/>
				</defs>
				<clipPath id="SVGID_8_">
					<use xlink:href="#SVGID_7_"  style="overflow:visible;"/>
				</clipPath>
				<path class="st7" d="M498.9,424.6c0,5.5-3,11.6-9.2,16.6c-3.2,2.6-7.1,4.3-11.2,5.7c-1.7,0.6-3.5,1.2-5.3,1.7
					c-2.5,0.7-4.1,2.1-5.2,3.9c-0.9,1.4-1.9,2.6-3.4,3.6c-3.5,2.4-8.1,1.7-10-0.4c-1-1.1-2-2.2-2.9-3.4c-1.3-1.6-2.6-3-5-3.7
					c-4-1.1-7.9-2.4-11.5-4.3c-9.3-4.9-14.1-11.9-14.2-20.8c0-8.3,2.3-16.4,6.3-24.1c2.3-4.4,6-7.8,10.6-10.8
					c2.8-1.8,5.6-3.6,8.4-5.4c2.2-1.4,3.4-3.1,3.7-5.4c0.2-1.2,0.6-2.4,1.1-3.6c0.7-1.8,2.3-3,4.6-3.4c2.8-0.6,5.7-0.6,8.5,0
					c2.2,0.5,3.8,1.5,4.5,3.3c0.6,1.5,1,3,1.3,4.5c0.3,1.4,1,2.7,2.4,3.7c2.5,1.7,5.1,3.4,7.8,5.1c5.3,3.3,9.7,7.1,12.4,12
					c1.7,3.1,3,6.4,3.9,9.7C497.7,413.7,498.9,418.3,498.9,424.6 M423.8,423c0,0.6-0.1,1.3,0,1.9c0.9,8.6,5.6,15.1,15.4,19
					c2.5,1,5,1.9,7.6,2.6c3.6,1,5.9,3,7.7,5.6c0.6,0.9,1.5,1.8,2.4,2.5c1.4,1.1,3,1.1,4.8,0.6c2-0.6,3.1-1.9,4-3.3
					c1.6-2.4,3.7-4.3,7.1-5.3c2.2-0.6,4.3-1.3,6.4-2.1c3.6-1.3,6.9-2.9,9.6-5.3c5.7-5.1,8-11.2,7.3-18c-0.5-5.4-1.8-10.6-3.6-15.7
					c-1.4-4-3.4-7.8-6.8-11c-2.6-2.6-5.9-4.7-9.2-6.7c-1.9-1.2-3.8-2.5-5.6-3.8c-1.9-1.4-2.9-3.2-3.3-5.2c-0.3-1.3-0.7-2.6-1.1-3.9
					c-0.4-1.2-1.3-1.9-2.9-2c-2.4-0.1-4.9-0.2-7.3-0.1c-1.5,0.1-2.7,0.7-3.1,2c-0.4,1.4-0.8,2.7-1.1,4.1c-0.4,2-1.3,3.7-3.2,5
					c-2.5,1.8-5.1,3.5-7.8,5.2c-4.2,2.6-7.8,5.6-10.3,9.3c-2.1,3.2-3.4,6.6-4.5,10.1C425,413.3,423.9,418.1,423.8,423"/>
				<path class="st8" d="M423.8,423c0.1-4.9,1.3-9.7,2.7-14.5c1-3.5,2.4-6.9,4.5-10.1c2.5-3.8,6.2-6.7,10.3-9.3
					c2.6-1.7,5.3-3.4,7.8-5.2c1.9-1.3,2.8-3.1,3.2-5c0.3-1.4,0.7-2.7,1.1-4.1c0.4-1.3,1.6-2,3.1-2c2.4-0.1,4.9,0,7.3,0.1
					c1.5,0.1,2.5,0.8,2.9,2c0.4,1.3,0.8,2.6,1.1,3.9c0.4,2,1.4,3.8,3.3,5.2c1.8,1.3,3.7,2.6,5.6,3.8c3.3,2,6.5,4.1,9.2,6.7
					c3.3,3.3,5.3,7,6.8,11c1.8,5.2,3.1,10.4,3.6,15.7c0.6,6.8-1.6,12.9-7.3,18c-2.6,2.4-6,4-9.6,5.3c-2.1,0.8-4.3,1.5-6.4,2.1
					c-3.4,0.9-5.5,2.8-7.1,5.3c-0.9,1.5-2,2.7-4,3.3c-1.8,0.5-3.4,0.5-4.8-0.6c-0.9-0.8-1.8-1.6-2.4-2.5c-1.8-2.6-4.1-4.6-7.7-5.6
					c-2.6-0.7-5.1-1.6-7.6-2.6c-9.7-3.9-14.5-10.4-15.4-19C423.7,424.3,423.8,423.7,423.8,423 M460.2,376.5c0.9-0.3,1.8-0.5,2.6-0.8
					c0.3-0.2,0.4-0.7,0.6-1.1c-0.4-0.1-1-0.4-1.3-0.3c-1.7,0.5-3.3,0.4-5,0c-0.3-0.1-0.7,0.1-1,0.2c0.2,0.3,0.2,0.6,0.5,0.8
					C457.5,376,458.7,376.3,460.2,376.5 M435.9,433.2c-0.6-0.4-1-0.7-1.4-0.9c-0.3,0.3-0.8,0.6-0.9,1c-0.1,0.4,0.3,0.9,0.9,0.8
					C435,434,435.3,433.6,435.9,433.2 M451,415.2c-0.1,0-0.3,0-0.4,0c-0.3,0.3-0.7,0.6-0.8,1c-0.1,0.5,0.3,0.8,0.9,0.8
					c0.7,0,1.1-0.3,1-0.8C451.6,415.8,451.2,415.5,451,415.2 M439,432.5c0,0.1,0,0.2,0,0.3c0.4,0.2,0.7,0.6,1.1,0.6
					c0.3,0,0.9-0.4,0.9-0.7c0.1-0.5-0.3-0.8-0.9-0.8C439.7,432,439.3,432.3,439,432.5 M443.2,417.7c-0.1,0-0.3,0-0.4,0
					c-0.2,0.3-0.7,0.6-0.7,0.8c0,0.3,0.5,0.5,0.8,0.8c0.3-0.2,0.8-0.5,0.9-0.7C443.9,418.3,443.4,417.9,443.2,417.7 M482.6,408.2
					c0.5-0.4,0.8-0.7,1.1-0.9c-0.3-0.2-0.6-0.6-1-0.7c-0.5-0.1-1,0.2-0.9,0.7C481.8,407.5,482.2,407.7,482.6,408.2 M469,419.3
					c-0.1,0-0.3,0-0.4,0c-0.2,0.3-0.6,0.6-0.6,0.9c0,0.2,0.5,0.6,0.9,0.6c0.6,0.1,0.9-0.3,0.8-0.8
					C469.7,419.8,469.3,419.5,469,419.3 M489.8,414.4c-0.5-0.3-0.8-0.6-1.1-0.6c-0.3,0-0.8,0.5-0.7,0.6c0.1,0.3,0.5,0.6,0.8,0.9
					C489,415,489.3,414.8,489.8,414.4 M474.2,434.5c0.5,0.3,0.9,0.6,1.2,0.6c0.3,0,0.6-0.4,0.9-0.6c-0.3-0.2-0.5-0.6-0.9-0.7
					C475.1,433.8,474.8,434.2,474.2,434.5 M436,401.3c-0.1,0-0.3,0-0.4,0c-0.2,0.2-0.6,0.6-0.5,0.7c0.2,0.3,0.6,0.5,1,0.7
					c0.1,0,0.6-0.4,0.5-0.5C436.5,401.9,436.2,401.6,436,401.3 M473.9,410.5c0.4-0.4,0.8-0.7,0.8-0.8c-0.1-0.3-0.5-0.5-0.8-0.7
					c-0.3,0.2-0.7,0.4-0.7,0.6C473.1,409.8,473.5,410.1,473.9,410.5 M455.4,385.3c-0.6-0.3-0.9-0.6-1.1-0.6c-0.3,0-0.5,0.4-0.8,0.6
					c0.3,0.2,0.5,0.5,0.8,0.6C454.5,385.8,454.8,385.5,455.4,385.3 M432.1,418.4c0.3-0.5,0.6-0.8,0.6-1c0-0.2-0.4-0.3-0.7-0.5
					c-0.2,0.2-0.6,0.5-0.7,0.7C431.3,417.8,431.7,418,432.1,418.4 M446.6,415.8c-0.5-0.3-0.8-0.6-1.1-0.6c-0.2,0-0.4,0.4-0.6,0.6
					c0.3,0.2,0.6,0.5,0.9,0.6C445.9,416.4,446.2,416.1,446.6,415.8 M439.5,399.3c-0.4-0.3-0.8-0.6-1-0.6c-0.3,0.1-0.7,0.4-0.7,0.6
					c0,0.2,0.4,0.6,0.6,0.6C438.8,399.9,439,399.6,439.5,399.3 M440.6,437.3c-0.6-0.2-0.9-0.4-1.3-0.4c-0.2,0-0.4,0.3-0.6,0.5
					c0.3,0.2,0.5,0.5,0.8,0.5C439.8,437.9,440.1,437.6,440.6,437.3 M479.2,401.8c-0.6-0.3-0.9-0.6-1.2-0.6c-0.2,0-0.5,0.3-0.7,0.5
					c0.3,0.2,0.5,0.5,0.8,0.5C478.4,402.3,478.7,402.1,479.2,401.8 M447.2,390.1c-0.3,0.4-0.6,0.6-0.6,0.9c0,0.2,0.4,0.4,0.6,0.5
					c0.2-0.2,0.6-0.4,0.7-0.7C447.9,390.7,447.6,390.5,447.2,390.1 M451.8,421.1c-0.4,0.4-0.7,0.6-0.7,0.7c0.1,0.2,0.4,0.4,0.7,0.6
					c0.2-0.2,0.6-0.3,0.6-0.5C452.4,421.7,452.1,421.5,451.8,421.1 M491.6,423.7c-0.5-0.2-0.8-0.4-1.1-0.4c-0.2,0-0.4,0.3-0.6,0.5
					c0.2,0.2,0.5,0.4,0.8,0.4C490.9,424.2,491.1,424,491.6,423.7 M480.8,432.4c-0.5-0.2-0.7-0.5-0.9-0.5c-0.2,0-0.4,0.3-0.7,0.5
					c0.2,0.2,0.4,0.5,0.7,0.5C480.1,432.9,480.3,432.6,480.8,432.4 M472.7,403.9c-0.4-0.2-0.6-0.5-0.8-0.5c-0.2,0-0.4,0.2-0.6,0.4
					c0.2,0.2,0.4,0.4,0.6,0.5C472,404.4,472.3,404.1,472.7,403.9 M474.7,439.6c-0.4-0.2-0.6-0.5-0.8-0.5c-0.2,0.1-0.4,0.3-0.6,0.5
					c0.2,0.1,0.4,0.4,0.6,0.4C474.2,440,474.4,439.8,474.7,439.6 M476.7,426.6c-0.4-0.2-0.7-0.4-0.8-0.4c-0.2,0.1-0.4,0.3-0.6,0.5
					c0.2,0.1,0.4,0.4,0.6,0.4C476.1,427,476.3,426.8,476.7,426.6 M465.3,445.1c-0.4-0.2-0.6-0.4-0.8-0.4c-0.2,0-0.4,0.3-0.7,0.4
					c0.2,0.1,0.4,0.4,0.6,0.4C464.7,445.6,464.9,445.3,465.3,445.1 M445.1,438c0.3-0.3,0.6-0.5,0.5-0.6c0-0.2-0.3-0.3-0.5-0.5
					c-0.2,0.1-0.5,0.3-0.5,0.4C444.6,437.5,444.8,437.7,445.1,438 M453.4,389.3c-0.3,0.3-0.5,0.5-0.5,0.6c0,0.2,0.3,0.3,0.5,0.5
					c0.2-0.2,0.4-0.3,0.5-0.5C453.9,389.8,453.7,389.6,453.4,389.3 M478.4,393.1c-0.3-0.2-0.5-0.4-0.7-0.4c-0.1,0-0.3,0.2-0.5,0.3
					c0.2,0.2,0.4,0.4,0.6,0.5C477.9,393.5,478.2,393.3,478.4,393.1 M434.6,426.4c-0.4-0.2-0.6-0.3-0.8-0.3c-0.1,0-0.4,0.3-0.4,0.4
					c0.1,0.2,0.3,0.3,0.5,0.4C434.1,426.8,434.3,426.6,434.6,426.4 M463.6,388.5c0.2-0.2,0.4-0.4,0.4-0.5c0-0.1-0.3-0.2-0.5-0.4
					c-0.1,0.1-0.3,0.3-0.4,0.4C463.1,388.2,463.3,388.3,463.6,388.5"/>
				<path class="st7" d="M460.2,376.5c-1.4-0.2-2.6-0.5-3.7-1.1c-0.3-0.2-0.3-0.5-0.5-0.8c0.3-0.1,0.7-0.3,1-0.2
					c1.7,0.3,3.3,0.5,5,0c0.3-0.1,0.9,0.2,1.3,0.3c-0.2,0.4-0.2,0.9-0.6,1.1C462,376.1,461,376.2,460.2,376.5"/>
				<path class="st7" d="M482.6,408.2c-0.4-0.4-0.8-0.7-0.8-1c-0.1-0.5,0.4-0.8,0.9-0.7c0.4,0.1,0.7,0.5,1,0.7
					C483.4,407.5,483.1,407.7,482.6,408.2"/>
				<path class="st7" d="M469,419.3c0.3,0.3,0.7,0.5,0.7,0.8c0.1,0.4-0.2,0.8-0.8,0.8c-0.3,0-0.8-0.4-0.9-0.6c0-0.3,0.4-0.6,0.6-0.9
					C468.7,419.3,468.9,419.3,469,419.3"/>
				<path class="st7" d="M489.8,414.4c-0.4,0.4-0.7,0.6-1,0.9c-0.3-0.3-0.7-0.5-0.8-0.9c0-0.2,0.5-0.6,0.7-0.6
					C489,413.7,489.3,414.1,489.8,414.4"/>
				<path class="st7" d="M474.2,434.5c0.5-0.3,0.9-0.7,1.1-0.6c0.3,0.1,0.6,0.4,0.9,0.7c-0.3,0.2-0.6,0.6-0.9,0.6
					C475.1,435.1,474.8,434.8,474.2,434.5"/>
				<path class="st7" d="M473.9,410.5c-0.4-0.4-0.8-0.6-0.8-0.9c0-0.2,0.5-0.4,0.7-0.6c0.3,0.2,0.7,0.4,0.8,0.7
					C474.7,409.8,474.3,410.1,473.9,410.5"/>
				<path class="st7" d="M479.2,401.8c-0.5,0.3-0.9,0.5-1.1,0.5c-0.3-0.1-0.5-0.3-0.8-0.5c0.2-0.2,0.5-0.5,0.7-0.5
					C478.4,401.3,478.7,401.5,479.2,401.8"/>
				<path class="st7" d="M491.6,423.7c-0.5,0.3-0.7,0.5-1,0.5c-0.3,0-0.5-0.3-0.8-0.4c0.2-0.2,0.4-0.5,0.6-0.5
					C490.8,423.3,491.1,423.5,491.6,423.7"/>
				<path class="st7" d="M480.8,432.4c-0.4,0.3-0.7,0.5-0.9,0.5c-0.3,0-0.5-0.3-0.7-0.5c0.2-0.2,0.4-0.4,0.7-0.5
					C480.1,431.9,480.3,432.1,480.8,432.4"/>
				<path class="st7" d="M472.7,403.9c-0.4,0.2-0.7,0.5-0.8,0.4c-0.2-0.1-0.4-0.3-0.6-0.5c0.2-0.1,0.4-0.4,0.6-0.4
					C472.1,403.4,472.3,403.7,472.7,403.9"/>
				<path class="st7" d="M474.7,439.6c-0.4,0.2-0.6,0.5-0.8,0.5c-0.2,0-0.4-0.3-0.6-0.4c0.2-0.2,0.4-0.4,0.6-0.5
					C474.1,439.1,474.4,439.3,474.7,439.6"/>
				<path class="st7" d="M476.7,426.6c-0.4,0.2-0.6,0.5-0.8,0.5c-0.2,0-0.4-0.2-0.6-0.4c0.2-0.2,0.3-0.5,0.6-0.5
					C476,426.1,476.3,426.4,476.7,426.6"/>
				<path class="st7" d="M465.3,445.1c-0.4,0.2-0.6,0.5-0.8,0.5c-0.2,0-0.4-0.3-0.6-0.4c0.2-0.1,0.4-0.4,0.7-0.4
					C464.7,444.7,464.9,444.9,465.3,445.1"/>
				<path class="st7" d="M478.4,393.1c-0.3,0.2-0.5,0.4-0.6,0.4c-0.2-0.1-0.4-0.3-0.6-0.5c0.2-0.1,0.3-0.4,0.5-0.3
					C477.9,392.7,478.1,392.9,478.4,393.1"/>
				<path class="st7" d="M463.6,388.5c-0.2-0.2-0.5-0.3-0.4-0.4c0-0.2,0.2-0.3,0.4-0.4c0.2,0.1,0.4,0.2,0.5,0.4
					C464,388.1,463.7,388.3,463.6,388.5"/>
			</g>
		</g>
	</g>
	<text transform="matrix(1 0 0 1 467.6582 427.3423)" class="st3 st4 st5">o</text>
</g>
<g id="I">
	<g>
		<g>
			<defs>
				<rect id="SVGID_9_" x="288" y="350" width="138" height="128"/>
			</defs>
			<clipPath id="SVGID_10_">
				<use xlink:href="#SVGID_9_"  style="overflow:visible;"/>
			</clipPath>
			<g class="st9">
				<defs>
					<rect id="SVGID_11_" x="357" y="350" width="69" height="118.8"/>
				</defs>
				<clipPath id="SVGID_12_">
					<use xlink:href="#SVGID_11_"  style="overflow:visible;"/>
				</clipPath>
				<path class="st10" d="M395.9,424.6c0,5.5-3,11.6-9.2,16.6c-3.2,2.6-7.1,4.3-11.2,5.7c-1.7,0.6-3.5,1.2-5.3,1.7
					c-2.5,0.7-4.1,2.1-5.2,3.9c-0.9,1.4-1.9,2.6-3.4,3.6c-3.5,2.4-8.1,1.7-10-0.4c-1-1.1-2-2.2-2.9-3.4c-1.3-1.6-2.6-3-5-3.7
					c-4-1.1-7.9-2.4-11.5-4.3c-9.3-4.9-14.1-11.9-14.2-20.8c0-8.3,2.3-16.4,6.3-24.1c2.3-4.4,6-7.8,10.6-10.8
					c2.8-1.8,5.6-3.6,8.4-5.4c2.2-1.4,3.4-3.1,3.7-5.4c0.2-1.2,0.6-2.4,1.1-3.6c0.7-1.8,2.3-3,4.6-3.4c2.8-0.6,5.7-0.6,8.5,0
					c2.2,0.5,3.8,1.5,4.5,3.3c0.6,1.5,1,3,1.3,4.5c0.3,1.4,1,2.7,2.4,3.7c2.5,1.7,5.1,3.4,7.8,5.1c5.3,3.3,9.7,7.1,12.4,12
					c1.7,3.1,3,6.4,3.9,9.7C394.7,413.7,395.9,418.3,395.9,424.6 M320.8,423c0,0.6-0.1,1.3,0,1.9c0.9,8.6,5.6,15.1,15.4,19
					c2.5,1,5,1.9,7.6,2.6c3.6,1,5.9,3,7.7,5.6c0.6,0.9,1.5,1.8,2.4,2.5c1.4,1.1,3,1.1,4.8,0.6c2-0.6,3.1-1.9,4-3.3
					c1.6-2.4,3.7-4.3,7.1-5.3c2.2-0.6,4.3-1.3,6.4-2.1c3.6-1.3,6.9-2.9,9.6-5.3c5.7-5.1,8-11.2,7.3-18c-0.5-5.4-1.8-10.6-3.6-15.7
					c-1.4-4-3.4-7.8-6.8-11c-2.6-2.6-5.9-4.7-9.2-6.7c-1.9-1.2-3.8-2.5-5.6-3.8c-1.9-1.4-2.9-3.2-3.3-5.2c-0.3-1.3-0.7-2.6-1.1-3.9
					c-0.4-1.2-1.3-1.9-2.9-2c-2.4-0.1-4.9-0.2-7.3-0.1c-1.5,0.1-2.7,0.7-3.1,2c-0.4,1.4-0.8,2.7-1.1,4.1c-0.4,2-1.3,3.7-3.2,5
					c-2.5,1.8-5.1,3.5-7.8,5.2c-4.2,2.6-7.8,5.6-10.3,9.3c-2.1,3.2-3.4,6.6-4.5,10.1C322,413.3,320.9,418.1,320.8,423"/>
				<path class="st11" d="M320.8,423c0.1-4.9,1.3-9.7,2.7-14.5c1-3.5,2.4-6.9,4.5-10.1c2.5-3.8,6.2-6.7,10.3-9.3
					c2.6-1.7,5.3-3.4,7.8-5.2c1.9-1.3,2.8-3.1,3.2-5c0.3-1.4,0.7-2.7,1.1-4.1c0.4-1.3,1.6-2,3.1-2c2.4-0.1,4.9,0,7.3,0.1
					c1.5,0.1,2.5,0.8,2.9,2c0.4,1.3,0.8,2.6,1.1,3.9c0.4,2,1.4,3.8,3.3,5.2c1.8,1.3,3.7,2.6,5.6,3.8c3.3,2,6.5,4.1,9.2,6.7
					c3.3,3.3,5.3,7,6.8,11c1.8,5.2,3.1,10.4,3.6,15.7c0.6,6.8-1.6,12.9-7.3,18c-2.6,2.4-6,4-9.6,5.3c-2.1,0.8-4.3,1.5-6.4,2.1
					c-3.4,0.9-5.5,2.8-7.1,5.3c-0.9,1.5-2,2.7-4,3.3c-1.8,0.5-3.4,0.5-4.8-0.6c-0.9-0.8-1.8-1.6-2.4-2.5c-1.8-2.6-4.1-4.6-7.7-5.6
					c-2.6-0.7-5.1-1.6-7.6-2.6c-9.7-3.9-14.5-10.4-15.4-19C320.7,424.3,320.8,423.7,320.8,423 M357.2,376.5c0.9-0.3,1.8-0.5,2.6-0.8
					c0.3-0.2,0.4-0.7,0.6-1.1c-0.4-0.1-1-0.4-1.3-0.3c-1.7,0.5-3.3,0.4-5,0c-0.3-0.1-0.7,0.1-1,0.2c0.2,0.3,0.2,0.6,0.5,0.8
					C354.5,376,355.7,376.3,357.2,376.5 M332.9,433.2c-0.6-0.4-1-0.7-1.4-0.9c-0.3,0.3-0.8,0.6-0.9,1c-0.1,0.4,0.3,0.9,0.9,0.8
					C332,434,332.3,433.6,332.9,433.2 M348,415.2c-0.1,0-0.3,0-0.4,0c-0.3,0.3-0.7,0.6-0.8,1c-0.1,0.5,0.3,0.8,0.9,0.8
					c0.7,0,1.1-0.3,1-0.8C348.6,415.8,348.2,415.5,348,415.2 M336,432.5c0,0.1,0,0.2,0,0.3c0.4,0.2,0.7,0.6,1.1,0.6
					c0.3,0,0.9-0.4,0.9-0.7c0.1-0.5-0.3-0.8-0.9-0.8C336.7,432,336.3,432.3,336,432.5 M340.2,417.7c-0.1,0-0.3,0-0.4,0
					c-0.2,0.3-0.7,0.6-0.7,0.8c0,0.3,0.5,0.5,0.8,0.8c0.3-0.2,0.8-0.5,0.9-0.7C340.9,418.3,340.4,417.9,340.2,417.7 M379.6,408.2
					c0.5-0.4,0.8-0.7,1.1-0.9c-0.3-0.2-0.6-0.6-1-0.7c-0.5-0.1-1,0.2-0.9,0.7C378.8,407.5,379.2,407.7,379.6,408.2 M366,419.3
					c-0.1,0-0.3,0-0.4,0c-0.2,0.3-0.6,0.6-0.6,0.9c0,0.2,0.5,0.6,0.9,0.6c0.6,0.1,0.9-0.3,0.8-0.8
					C366.7,419.8,366.3,419.5,366,419.3 M386.8,414.4c-0.5-0.3-0.8-0.6-1.1-0.6c-0.3,0-0.8,0.5-0.7,0.6c0.1,0.3,0.5,0.6,0.8,0.9
					C386,415,386.3,414.8,386.8,414.4 M371.2,434.5c0.5,0.3,0.9,0.6,1.2,0.6c0.3,0,0.6-0.4,0.9-0.6c-0.3-0.2-0.5-0.6-0.9-0.7
					C372.1,433.8,371.8,434.2,371.2,434.5 M333,401.3c-0.1,0-0.3,0-0.4,0c-0.2,0.2-0.6,0.6-0.5,0.7c0.2,0.3,0.6,0.5,1,0.7
					c0.1,0,0.6-0.4,0.5-0.5C333.5,401.9,333.2,401.6,333,401.3 M370.9,410.5c0.4-0.4,0.8-0.7,0.8-0.8c-0.1-0.3-0.5-0.5-0.8-0.7
					c-0.3,0.2-0.7,0.4-0.7,0.6C370.1,409.8,370.5,410.1,370.9,410.5 M352.4,385.3c-0.6-0.3-0.9-0.6-1.1-0.6c-0.3,0-0.5,0.4-0.8,0.6
					c0.3,0.2,0.5,0.5,0.8,0.6C351.5,385.8,351.8,385.5,352.4,385.3 M329.1,418.4c0.3-0.5,0.6-0.8,0.6-1c0-0.2-0.4-0.3-0.7-0.5
					c-0.2,0.2-0.6,0.5-0.7,0.7C328.3,417.8,328.7,418,329.1,418.4 M343.6,415.8c-0.5-0.3-0.8-0.6-1.1-0.6c-0.2,0-0.4,0.4-0.6,0.6
					c0.3,0.2,0.6,0.5,0.9,0.6C342.9,416.4,343.2,416.1,343.6,415.8 M336.5,399.3c-0.4-0.3-0.8-0.6-1-0.6c-0.3,0.1-0.7,0.4-0.7,0.6
					c0,0.2,0.4,0.6,0.6,0.6C335.8,399.9,336,399.6,336.5,399.3 M337.6,437.3c-0.6-0.2-0.9-0.4-1.3-0.4c-0.2,0-0.4,0.3-0.6,0.5
					c0.3,0.2,0.5,0.5,0.8,0.5C336.8,437.9,337.1,437.6,337.6,437.3 M376.2,401.8c-0.6-0.3-0.9-0.6-1.2-0.6c-0.2,0-0.5,0.3-0.7,0.5
					c0.3,0.2,0.5,0.5,0.8,0.5C375.4,402.3,375.7,402.1,376.2,401.8 M344.2,390.1c-0.3,0.4-0.6,0.6-0.6,0.9c0,0.2,0.4,0.4,0.6,0.5
					c0.2-0.2,0.6-0.4,0.7-0.7C344.9,390.7,344.6,390.5,344.2,390.1 M348.8,421.1c-0.4,0.4-0.7,0.6-0.7,0.7c0.1,0.2,0.4,0.4,0.7,0.6
					c0.2-0.2,0.6-0.3,0.6-0.5C349.4,421.7,349.1,421.5,348.8,421.1 M388.6,423.7c-0.5-0.2-0.8-0.4-1.1-0.4c-0.2,0-0.4,0.3-0.6,0.5
					c0.2,0.2,0.5,0.4,0.8,0.4C387.9,424.2,388.1,424,388.6,423.7 M377.8,432.4c-0.5-0.2-0.7-0.5-0.9-0.5c-0.2,0-0.4,0.3-0.7,0.5
					c0.2,0.2,0.4,0.5,0.7,0.5C377.1,432.9,377.3,432.6,377.8,432.4 M369.7,403.9c-0.4-0.2-0.6-0.5-0.8-0.5c-0.2,0-0.4,0.2-0.6,0.4
					c0.2,0.2,0.4,0.4,0.6,0.5C369,404.4,369.3,404.1,369.7,403.9 M371.7,439.6c-0.4-0.2-0.6-0.5-0.8-0.5c-0.2,0.1-0.4,0.3-0.6,0.5
					c0.2,0.1,0.4,0.4,0.6,0.4C371.2,440,371.4,439.8,371.7,439.6 M373.7,426.6c-0.4-0.2-0.7-0.4-0.8-0.4c-0.2,0.1-0.4,0.3-0.6,0.5
					c0.2,0.1,0.4,0.4,0.6,0.4C373.1,427,373.3,426.8,373.7,426.6 M362.3,445.1c-0.4-0.2-0.6-0.4-0.8-0.4c-0.2,0-0.4,0.3-0.7,0.4
					c0.2,0.1,0.4,0.4,0.6,0.4C361.7,445.6,361.9,445.3,362.3,445.1 M342.1,438c0.3-0.3,0.6-0.5,0.5-0.6c0-0.2-0.3-0.3-0.5-0.5
					c-0.2,0.1-0.5,0.3-0.5,0.4C341.6,437.5,341.8,437.7,342.1,438 M350.4,389.3c-0.3,0.3-0.5,0.5-0.5,0.6c0,0.2,0.3,0.3,0.5,0.5
					c0.2-0.2,0.4-0.3,0.5-0.5C350.9,389.8,350.7,389.6,350.4,389.3 M375.4,393.1c-0.3-0.2-0.5-0.4-0.7-0.4c-0.1,0-0.3,0.2-0.5,0.3
					c0.2,0.2,0.4,0.4,0.6,0.5C374.9,393.5,375.2,393.3,375.4,393.1 M331.6,426.4c-0.4-0.2-0.6-0.3-0.8-0.3c-0.1,0-0.4,0.3-0.4,0.4
					c0.1,0.2,0.3,0.3,0.5,0.4C331.1,426.8,331.3,426.6,331.6,426.4 M360.6,388.5c0.2-0.2,0.4-0.4,0.4-0.5c0-0.1-0.3-0.2-0.5-0.4
					c-0.1,0.1-0.3,0.3-0.4,0.4C360.1,388.2,360.3,388.3,360.6,388.5"/>
				<path class="st10" d="M357.2,376.5c-1.4-0.2-2.6-0.5-3.7-1.1c-0.3-0.2-0.3-0.5-0.5-0.8c0.3-0.1,0.7-0.3,1-0.2
					c1.7,0.3,3.3,0.5,5,0c0.3-0.1,0.9,0.2,1.3,0.3c-0.2,0.4-0.2,0.9-0.6,1.1C359,376.1,358,376.2,357.2,376.5"/>
				<path class="st10" d="M379.6,408.2c-0.4-0.4-0.8-0.7-0.8-1c-0.1-0.5,0.4-0.8,0.9-0.7c0.4,0.1,0.7,0.5,1,0.7
					C380.4,407.5,380.1,407.7,379.6,408.2"/>
				<path class="st10" d="M366,419.3c0.3,0.3,0.7,0.5,0.7,0.8c0.1,0.4-0.2,0.8-0.8,0.8c-0.3,0-0.8-0.4-0.9-0.6
					c0-0.3,0.4-0.6,0.6-0.9C365.7,419.3,365.9,419.3,366,419.3"/>
				<path class="st10" d="M386.8,414.4c-0.4,0.4-0.7,0.6-1,0.9c-0.3-0.3-0.7-0.5-0.8-0.9c0-0.2,0.5-0.6,0.7-0.6
					C386,413.7,386.3,414.1,386.8,414.4"/>
				<path class="st10" d="M371.2,434.5c0.5-0.3,0.9-0.7,1.1-0.6c0.3,0.1,0.6,0.4,0.9,0.7c-0.3,0.2-0.6,0.6-0.9,0.6
					C372.1,435.1,371.8,434.8,371.2,434.5"/>
				<path class="st10" d="M370.9,410.5c-0.4-0.4-0.8-0.6-0.8-0.9c0-0.2,0.5-0.4,0.7-0.6c0.3,0.2,0.7,0.4,0.8,0.7
					C371.7,409.8,371.3,410.1,370.9,410.5"/>
				<path class="st10" d="M376.2,401.8c-0.5,0.3-0.9,0.5-1.1,0.5c-0.3-0.1-0.5-0.3-0.8-0.5c0.2-0.2,0.5-0.5,0.7-0.5
					C375.4,401.3,375.7,401.5,376.2,401.8"/>
				<path class="st10" d="M388.6,423.7c-0.5,0.3-0.7,0.5-1,0.5c-0.3,0-0.5-0.3-0.8-0.4c0.2-0.2,0.4-0.5,0.6-0.5
					C387.8,423.3,388.1,423.5,388.6,423.7"/>
				<path class="st10" d="M377.8,432.4c-0.4,0.3-0.7,0.5-0.9,0.5c-0.3,0-0.5-0.3-0.7-0.5c0.2-0.2,0.4-0.4,0.7-0.5
					C377.1,431.9,377.3,432.1,377.8,432.4"/>
				<path class="st10" d="M369.7,403.9c-0.4,0.2-0.7,0.5-0.8,0.4c-0.2-0.1-0.4-0.3-0.6-0.5c0.2-0.1,0.4-0.4,0.6-0.4
					C369.1,403.4,369.3,403.7,369.7,403.9"/>
				<path class="st10" d="M371.7,439.6c-0.4,0.2-0.6,0.5-0.8,0.5c-0.2,0-0.4-0.3-0.6-0.4c0.2-0.2,0.4-0.4,0.6-0.5
					C371.1,439.1,371.4,439.3,371.7,439.6"/>
				<path class="st10" d="M373.7,426.6c-0.4,0.2-0.6,0.5-0.8,0.5c-0.2,0-0.4-0.2-0.6-0.4c0.2-0.2,0.3-0.5,0.6-0.5
					C373,426.1,373.3,426.4,373.7,426.6"/>
				<path class="st10" d="M362.3,445.1c-0.4,0.2-0.6,0.5-0.8,0.5c-0.2,0-0.4-0.3-0.6-0.4c0.2-0.1,0.4-0.4,0.7-0.4
					C361.7,444.7,361.9,444.9,362.3,445.1"/>
				<path class="st10" d="M375.4,393.1c-0.3,0.2-0.5,0.4-0.6,0.4c-0.2-0.1-0.4-0.3-0.6-0.5c0.2-0.1,0.3-0.4,0.5-0.3
					C374.9,392.7,375.1,392.9,375.4,393.1"/>
				<path class="st10" d="M360.6,388.5c-0.2-0.2-0.5-0.3-0.4-0.4c0-0.2,0.2-0.3,0.4-0.4c0.2,0.1,0.4,0.2,0.5,0.4
					C361,388.1,360.7,388.3,360.6,388.5"/>
			</g>
		</g>
	</g>
	<text transform="matrix(1 0 0 1 367.6582 427.3428)" class="st3 st4 st5">i</text>
</g>
<g id="E">
	<g>
		<g>
			<defs>
				<rect id="SVGID_13_" x="187" y="350" width="138" height="128"/>
			</defs>
			<clipPath id="SVGID_14_">
				<use xlink:href="#SVGID_13_"  style="overflow:visible;"/>
			</clipPath>
			<g class="st12">
				<defs>
					<rect id="SVGID_15_" x="256" y="350" width="69" height="118.8"/>
				</defs>
				<clipPath id="SVGID_16_">
					<use xlink:href="#SVGID_15_"  style="overflow:visible;"/>
				</clipPath>
				<path class="st13" d="M294.9,424.6c0,5.5-3,11.6-9.2,16.6c-3.2,2.6-7.1,4.3-11.2,5.7c-1.7,0.6-3.5,1.2-5.3,1.7
					c-2.5,0.7-4.1,2.1-5.2,3.9c-0.9,1.4-1.9,2.6-3.4,3.6c-3.5,2.4-8.1,1.7-10-0.4c-1-1.1-2-2.2-2.9-3.4c-1.3-1.6-2.6-3-5-3.7
					c-4-1.1-7.9-2.4-11.5-4.3c-9.3-4.9-14.1-11.9-14.2-20.8c0-8.3,2.3-16.4,6.3-24.1c2.3-4.4,6-7.8,10.6-10.8
					c2.8-1.8,5.6-3.6,8.4-5.4c2.2-1.4,3.4-3.1,3.7-5.4c0.2-1.2,0.6-2.4,1.1-3.6c0.7-1.8,2.3-3,4.6-3.4c2.8-0.6,5.7-0.6,8.5,0
					c2.2,0.5,3.8,1.5,4.5,3.3c0.6,1.5,1,3,1.3,4.5c0.3,1.4,1,2.7,2.4,3.7c2.5,1.7,5.1,3.4,7.8,5.1c5.3,3.3,9.7,7.1,12.4,12
					c1.7,3.1,3,6.4,3.9,9.7C293.7,413.7,294.9,418.3,294.9,424.6 M219.8,423c0,0.6-0.1,1.3,0,1.9c0.9,8.6,5.6,15.1,15.4,19
					c2.5,1,5,1.9,7.6,2.6c3.6,1,5.9,3,7.7,5.6c0.6,0.9,1.5,1.8,2.4,2.5c1.4,1.1,3,1.1,4.8,0.6c2-0.6,3.1-1.9,4-3.3
					c1.6-2.4,3.7-4.3,7.1-5.3c2.2-0.6,4.3-1.3,6.4-2.1c3.6-1.3,6.9-2.9,9.6-5.3c5.7-5.1,8-11.2,7.3-18c-0.5-5.4-1.8-10.6-3.6-15.7
					c-1.4-4-3.4-7.8-6.8-11c-2.6-2.6-5.9-4.7-9.2-6.7c-1.9-1.2-3.8-2.5-5.6-3.8c-1.9-1.4-2.9-3.2-3.3-5.2c-0.3-1.3-0.7-2.6-1.1-3.9
					c-0.4-1.2-1.3-1.9-2.9-2c-2.4-0.1-4.9-0.2-7.3-0.1c-1.5,0.1-2.7,0.7-3.1,2c-0.4,1.4-0.8,2.7-1.1,4.1c-0.4,2-1.3,3.7-3.2,5
					c-2.5,1.8-5.1,3.5-7.8,5.2c-4.2,2.6-7.8,5.6-10.3,9.3c-2.1,3.2-3.4,6.6-4.5,10.1C221,413.3,219.9,418.1,219.8,423"/>
				<path class="st14" d="M219.8,423c0.1-4.9,1.3-9.7,2.7-14.5c1-3.5,2.4-6.9,4.5-10.1c2.5-3.8,6.2-6.7,10.3-9.3
					c2.6-1.7,5.3-3.4,7.8-5.2c1.9-1.3,2.8-3.1,3.2-5c0.3-1.4,0.7-2.7,1.1-4.1c0.4-1.3,1.6-2,3.1-2c2.4-0.1,4.9,0,7.3,0.1
					c1.5,0.1,2.5,0.8,2.9,2c0.4,1.3,0.8,2.6,1.1,3.9c0.4,2,1.4,3.8,3.3,5.2c1.8,1.3,3.7,2.6,5.6,3.8c3.3,2,6.5,4.1,9.2,6.7
					c3.3,3.3,5.3,7,6.8,11c1.8,5.2,3.1,10.4,3.6,15.7c0.6,6.8-1.6,12.9-7.3,18c-2.6,2.4-6,4-9.6,5.3c-2.1,0.8-4.3,1.5-6.4,2.1
					c-3.4,0.9-5.5,2.8-7.1,5.3c-0.9,1.5-2,2.7-4,3.3c-1.8,0.5-3.4,0.5-4.8-0.6c-0.9-0.8-1.8-1.6-2.4-2.5c-1.8-2.6-4.1-4.6-7.7-5.6
					c-2.6-0.7-5.1-1.6-7.6-2.6c-9.7-3.9-14.5-10.4-15.4-19C219.7,424.3,219.8,423.7,219.8,423 M256.2,376.5c0.9-0.3,1.8-0.5,2.6-0.8
					c0.3-0.2,0.4-0.7,0.6-1.1c-0.4-0.1-1-0.4-1.3-0.3c-1.7,0.5-3.3,0.4-5,0c-0.3-0.1-0.7,0.1-1,0.2c0.2,0.3,0.2,0.6,0.5,0.8
					C253.5,376,254.7,376.3,256.2,376.5 M231.9,433.2c-0.6-0.4-1-0.7-1.4-0.9c-0.3,0.3-0.8,0.6-0.9,1c-0.1,0.4,0.3,0.9,0.9,0.8
					C231,434,231.3,433.6,231.9,433.2 M247,415.2c-0.1,0-0.3,0-0.4,0c-0.3,0.3-0.7,0.6-0.8,1c-0.1,0.5,0.3,0.8,0.9,0.8
					c0.7,0,1.1-0.3,1-0.8C247.6,415.8,247.2,415.5,247,415.2 M235,432.5c0,0.1,0,0.2,0,0.3c0.4,0.2,0.7,0.6,1.1,0.6
					c0.3,0,0.9-0.4,0.9-0.7c0.1-0.5-0.3-0.8-0.9-0.8C235.7,432,235.3,432.3,235,432.5 M239.2,417.7c-0.1,0-0.3,0-0.4,0
					c-0.2,0.3-0.7,0.6-0.7,0.8c0,0.3,0.5,0.5,0.8,0.8c0.3-0.2,0.8-0.5,0.9-0.7C239.9,418.3,239.4,417.9,239.2,417.7 M278.6,408.2
					c0.5-0.4,0.8-0.7,1.1-0.9c-0.3-0.2-0.6-0.6-1-0.7c-0.5-0.1-1,0.2-0.9,0.7C277.8,407.5,278.2,407.7,278.6,408.2 M265,419.3
					c-0.1,0-0.3,0-0.4,0c-0.2,0.3-0.6,0.6-0.6,0.9c0,0.2,0.5,0.6,0.9,0.6c0.6,0.1,0.9-0.3,0.8-0.8
					C265.7,419.8,265.3,419.5,265,419.3 M285.8,414.4c-0.5-0.3-0.8-0.6-1.1-0.6c-0.3,0-0.8,0.5-0.7,0.6c0.1,0.3,0.5,0.6,0.8,0.9
					C285,415,285.3,414.8,285.8,414.4 M270.2,434.5c0.5,0.3,0.9,0.6,1.2,0.6c0.3,0,0.6-0.4,0.9-0.6c-0.3-0.2-0.5-0.6-0.9-0.7
					C271.1,433.8,270.8,434.2,270.2,434.5 M232,401.3c-0.1,0-0.3,0-0.4,0c-0.2,0.2-0.6,0.6-0.5,0.7c0.2,0.3,0.6,0.5,1,0.7
					c0.1,0,0.6-0.4,0.5-0.5C232.5,401.9,232.2,401.6,232,401.3 M269.9,410.5c0.4-0.4,0.8-0.7,0.8-0.8c-0.1-0.3-0.5-0.5-0.8-0.7
					c-0.3,0.2-0.7,0.4-0.7,0.6C269.1,409.8,269.5,410.1,269.9,410.5 M251.4,385.3c-0.6-0.3-0.9-0.6-1.1-0.6c-0.3,0-0.5,0.4-0.8,0.6
					c0.3,0.2,0.5,0.5,0.8,0.6C250.5,385.8,250.8,385.5,251.4,385.3 M228.1,418.4c0.3-0.5,0.6-0.8,0.6-1c0-0.2-0.4-0.3-0.7-0.5
					c-0.2,0.2-0.6,0.5-0.7,0.7C227.3,417.8,227.7,418,228.1,418.4 M242.6,415.8c-0.5-0.3-0.8-0.6-1.1-0.6c-0.2,0-0.4,0.4-0.6,0.6
					c0.3,0.2,0.6,0.5,0.9,0.6C241.9,416.4,242.2,416.1,242.6,415.8 M235.5,399.3c-0.4-0.3-0.8-0.6-1-0.6c-0.3,0.1-0.7,0.4-0.7,0.6
					c0,0.2,0.4,0.6,0.6,0.6C234.8,399.9,235,399.6,235.5,399.3 M236.6,437.3c-0.6-0.2-0.9-0.4-1.3-0.4c-0.2,0-0.4,0.3-0.6,0.5
					c0.3,0.2,0.5,0.5,0.8,0.5C235.8,437.9,236.1,437.6,236.6,437.3 M275.2,401.8c-0.6-0.3-0.9-0.6-1.2-0.6c-0.2,0-0.5,0.3-0.7,0.5
					c0.3,0.2,0.5,0.5,0.8,0.5C274.4,402.3,274.7,402.1,275.2,401.8 M243.2,390.1c-0.3,0.4-0.6,0.6-0.6,0.9c0,0.2,0.4,0.4,0.6,0.5
					c0.2-0.2,0.6-0.4,0.7-0.7C243.9,390.7,243.6,390.5,243.2,390.1 M247.8,421.1c-0.4,0.4-0.7,0.6-0.7,0.7c0.1,0.2,0.4,0.4,0.7,0.6
					c0.2-0.2,0.6-0.3,0.6-0.5C248.4,421.7,248.1,421.5,247.8,421.1 M287.6,423.7c-0.5-0.2-0.8-0.4-1.1-0.4c-0.2,0-0.4,0.3-0.6,0.5
					c0.2,0.2,0.5,0.4,0.8,0.4C286.9,424.2,287.1,424,287.6,423.7 M276.8,432.4c-0.5-0.2-0.7-0.5-0.9-0.5c-0.2,0-0.4,0.3-0.7,0.5
					c0.2,0.2,0.4,0.5,0.7,0.5C276.1,432.9,276.3,432.6,276.8,432.4 M268.7,403.9c-0.4-0.2-0.6-0.5-0.8-0.5c-0.2,0-0.4,0.2-0.6,0.4
					c0.2,0.2,0.4,0.4,0.6,0.5C268,404.4,268.3,404.1,268.7,403.9 M270.7,439.6c-0.4-0.2-0.6-0.5-0.8-0.5c-0.2,0.1-0.4,0.3-0.6,0.5
					c0.2,0.1,0.4,0.4,0.6,0.4C270.2,440,270.4,439.8,270.7,439.6 M272.7,426.6c-0.4-0.2-0.7-0.4-0.8-0.4c-0.2,0.1-0.4,0.3-0.6,0.5
					c0.2,0.1,0.4,0.4,0.6,0.4C272.1,427,272.3,426.8,272.7,426.6 M261.3,445.1c-0.4-0.2-0.6-0.4-0.8-0.4c-0.2,0-0.4,0.3-0.7,0.4
					c0.2,0.1,0.4,0.4,0.6,0.4C260.7,445.6,260.9,445.3,261.3,445.1 M241.1,438c0.3-0.3,0.6-0.5,0.5-0.6c0-0.2-0.3-0.3-0.5-0.5
					c-0.2,0.1-0.5,0.3-0.5,0.4C240.6,437.5,240.8,437.7,241.1,438 M249.4,389.3c-0.3,0.3-0.5,0.5-0.5,0.6c0,0.2,0.3,0.3,0.5,0.5
					c0.2-0.2,0.4-0.3,0.5-0.5C249.9,389.8,249.7,389.6,249.4,389.3 M274.4,393.1c-0.3-0.2-0.5-0.4-0.7-0.4c-0.1,0-0.3,0.2-0.5,0.3
					c0.2,0.2,0.4,0.4,0.6,0.5C273.9,393.5,274.2,393.3,274.4,393.1 M230.6,426.4c-0.4-0.2-0.6-0.3-0.8-0.3c-0.1,0-0.4,0.3-0.4,0.4
					c0.1,0.2,0.3,0.3,0.5,0.4C230.1,426.8,230.3,426.6,230.6,426.4 M259.6,388.5c0.2-0.2,0.4-0.4,0.4-0.5c0-0.1-0.3-0.2-0.5-0.4
					c-0.1,0.1-0.3,0.3-0.4,0.4C259.1,388.2,259.3,388.3,259.6,388.5"/>
				<path class="st13" d="M256.2,376.5c-1.4-0.2-2.6-0.5-3.7-1.1c-0.3-0.2-0.3-0.5-0.5-0.8c0.3-0.1,0.7-0.3,1-0.2
					c1.7,0.3,3.3,0.5,5,0c0.3-0.1,0.9,0.2,1.3,0.3c-0.2,0.4-0.2,0.9-0.6,1.1C258,376.1,257,376.2,256.2,376.5"/>
				<path class="st13" d="M278.6,408.2c-0.4-0.4-0.8-0.7-0.8-1c-0.1-0.5,0.4-0.8,0.9-0.7c0.4,0.1,0.7,0.5,1,0.7
					C279.4,407.5,279.1,407.7,278.6,408.2"/>
				<path class="st13" d="M265,419.3c0.3,0.3,0.7,0.5,0.7,0.8c0.1,0.4-0.2,0.8-0.8,0.8c-0.3,0-0.8-0.4-0.9-0.6
					c0-0.3,0.4-0.6,0.6-0.9C264.7,419.3,264.9,419.3,265,419.3"/>
				<path class="st13" d="M285.8,414.4c-0.4,0.4-0.7,0.6-1,0.9c-0.3-0.3-0.7-0.5-0.8-0.9c0-0.2,0.5-0.6,0.7-0.6
					C285,413.7,285.3,414.1,285.8,414.4"/>
				<path class="st13" d="M270.2,434.5c0.5-0.3,0.9-0.7,1.1-0.6c0.3,0.1,0.6,0.4,0.9,0.7c-0.3,0.2-0.6,0.6-0.9,0.6
					C271.1,435.1,270.8,434.8,270.2,434.5"/>
				<path class="st13" d="M269.9,410.5c-0.4-0.4-0.8-0.6-0.8-0.9c0-0.2,0.5-0.4,0.7-0.6c0.3,0.2,0.7,0.4,0.8,0.7
					C270.7,409.8,270.3,410.1,269.9,410.5"/>
				<path class="st13" d="M275.2,401.8c-0.5,0.3-0.9,0.5-1.1,0.5c-0.3-0.1-0.5-0.3-0.8-0.5c0.2-0.2,0.5-0.5,0.7-0.5
					C274.4,401.3,274.7,401.5,275.2,401.8"/>
				<path class="st13" d="M287.6,423.7c-0.5,0.3-0.7,0.5-1,0.5c-0.3,0-0.5-0.3-0.8-0.4c0.2-0.2,0.4-0.5,0.6-0.5
					C286.8,423.3,287.1,423.5,287.6,423.7"/>
				<path class="st13" d="M276.8,432.4c-0.4,0.3-0.7,0.5-0.9,0.5c-0.3,0-0.5-0.3-0.7-0.5c0.2-0.2,0.4-0.4,0.7-0.5
					C276.1,431.9,276.3,432.1,276.8,432.4"/>
				<path class="st13" d="M268.7,403.9c-0.4,0.2-0.7,0.5-0.8,0.4c-0.2-0.1-0.4-0.3-0.6-0.5c0.2-0.1,0.4-0.4,0.6-0.4
					C268.1,403.4,268.3,403.7,268.7,403.9"/>
				<path class="st13" d="M270.7,439.6c-0.4,0.2-0.6,0.5-0.8,0.5c-0.2,0-0.4-0.3-0.6-0.4c0.2-0.2,0.4-0.4,0.6-0.5
					C270.1,439.1,270.4,439.3,270.7,439.6"/>
				<path class="st13" d="M272.7,426.6c-0.4,0.2-0.6,0.5-0.8,0.5c-0.2,0-0.4-0.2-0.6-0.4c0.2-0.2,0.3-0.5,0.6-0.5
					C272,426.1,272.3,426.4,272.7,426.6"/>
				<path class="st13" d="M261.3,445.1c-0.4,0.2-0.6,0.5-0.8,0.5c-0.2,0-0.4-0.3-0.6-0.4c0.2-0.1,0.4-0.4,0.7-0.4
					C260.7,444.7,260.9,444.9,261.3,445.1"/>
				<path class="st13" d="M274.4,393.1c-0.3,0.2-0.5,0.4-0.6,0.4c-0.2-0.1-0.4-0.3-0.6-0.5c0.2-0.1,0.3-0.4,0.5-0.3
					C273.9,392.7,274.1,392.9,274.4,393.1"/>
				<path class="st13" d="M259.6,388.5c-0.2-0.2-0.5-0.3-0.4-0.4c0-0.2,0.2-0.3,0.4-0.4c0.2,0.1,0.4,0.2,0.5,0.4
					C260,388.1,259.7,388.3,259.6,388.5"/>
			</g>
		</g>
	</g>
	<text transform="matrix(1 0 0 1 261.6582 427.3428)" class="st3 st4 st5">e</text>
</g>
<g id="A">
	<g>
		<g>
			<defs>
				<rect id="SVGID_17_" x="89" y="350" width="138" height="128"/>
			</defs>
			<clipPath id="SVGID_18_">
				<use xlink:href="#SVGID_17_"  style="overflow:visible;"/>
			</clipPath>
			<g class="st15">
				<defs>
					<rect id="SVGID_19_" x="158" y="350" width="69" height="118.8"/>
				</defs>
				<clipPath id="SVGID_20_">
					<use xlink:href="#SVGID_19_"  style="overflow:visible;"/>
				</clipPath>
				<path class="st16" d="M196.9,424.6c0,5.5-3,11.6-9.2,16.6c-3.2,2.6-7.1,4.3-11.2,5.7c-1.7,0.6-3.5,1.2-5.3,1.7
					c-2.5,0.7-4.1,2.1-5.2,3.9c-0.9,1.4-1.9,2.6-3.4,3.6c-3.5,2.4-8.1,1.7-10-0.4c-1-1.1-2-2.2-2.9-3.4c-1.3-1.6-2.6-3-5-3.7
					c-4-1.1-7.9-2.4-11.5-4.3c-9.3-4.9-14.1-11.9-14.2-20.8c0-8.3,2.3-16.4,6.3-24.1c2.3-4.4,6-7.8,10.6-10.8
					c2.8-1.8,5.6-3.6,8.4-5.4c2.2-1.4,3.4-3.1,3.7-5.4c0.2-1.2,0.6-2.4,1.1-3.6c0.7-1.8,2.3-3,4.6-3.4c2.8-0.6,5.7-0.6,8.5,0
					c2.2,0.5,3.8,1.5,4.5,3.3c0.6,1.5,1,3,1.3,4.5c0.3,1.4,1,2.7,2.4,3.7c2.5,1.7,5.1,3.4,7.8,5.1c5.3,3.3,9.7,7.1,12.4,12
					c1.7,3.1,3,6.4,3.9,9.7C195.7,413.7,196.9,418.3,196.9,424.6 M121.8,423c0,0.6-0.1,1.3,0,1.9c0.9,8.6,5.6,15.1,15.4,19
					c2.5,1,5,1.9,7.6,2.6c3.6,1,5.9,3,7.7,5.6c0.6,0.9,1.5,1.8,2.4,2.5c1.4,1.1,3,1.1,4.8,0.6c2-0.6,3.1-1.9,4-3.3
					c1.6-2.4,3.7-4.3,7.1-5.3c2.2-0.6,4.3-1.3,6.4-2.1c3.6-1.3,6.9-2.9,9.6-5.3c5.7-5.1,8-11.2,7.3-18c-0.5-5.4-1.8-10.6-3.6-15.7
					c-1.4-4-3.4-7.8-6.8-11c-2.6-2.6-5.9-4.7-9.2-6.7c-1.9-1.2-3.8-2.5-5.6-3.8c-1.9-1.4-2.9-3.2-3.3-5.2c-0.3-1.3-0.7-2.6-1.1-3.9
					c-0.4-1.2-1.3-1.9-2.9-2c-2.4-0.1-4.9-0.2-7.3-0.1c-1.5,0.1-2.7,0.7-3.1,2c-0.4,1.4-0.8,2.7-1.1,4.1c-0.4,2-1.3,3.7-3.2,5
					c-2.5,1.8-5.1,3.5-7.8,5.2c-4.2,2.6-7.8,5.6-10.3,9.3c-2.1,3.2-3.4,6.6-4.5,10.1C123,413.3,121.9,418.1,121.8,423"/>
				<path class="st17" d="M121.8,423c0.1-4.9,1.3-9.7,2.7-14.5c1-3.5,2.4-6.9,4.5-10.1c2.5-3.8,6.2-6.7,10.3-9.3
					c2.6-1.7,5.3-3.4,7.8-5.2c1.9-1.3,2.8-3.1,3.2-5c0.3-1.4,0.7-2.7,1.1-4.1c0.4-1.3,1.6-2,3.1-2c2.4-0.1,4.9,0,7.3,0.1
					c1.5,0.1,2.5,0.8,2.9,2c0.4,1.3,0.8,2.6,1.1,3.9c0.4,2,1.4,3.8,3.3,5.2c1.8,1.3,3.7,2.6,5.6,3.8c3.3,2,6.5,4.1,9.2,6.7
					c3.3,3.3,5.3,7,6.8,11c1.8,5.2,3.1,10.4,3.6,15.7c0.6,6.8-1.6,12.9-7.3,18c-2.6,2.4-6,4-9.6,5.3c-2.1,0.8-4.3,1.5-6.4,2.1
					c-3.4,0.9-5.5,2.8-7.1,5.3c-0.9,1.5-2,2.7-4,3.3c-1.8,0.5-3.4,0.5-4.8-0.6c-0.9-0.8-1.8-1.6-2.4-2.5c-1.8-2.6-4.1-4.6-7.7-5.6
					c-2.6-0.7-5.1-1.6-7.6-2.6c-9.7-3.9-14.5-10.4-15.4-19C121.7,424.3,121.8,423.7,121.8,423 M158.2,376.5c0.9-0.3,1.8-0.5,2.6-0.8
					c0.3-0.2,0.4-0.7,0.6-1.1c-0.4-0.1-1-0.4-1.3-0.3c-1.7,0.5-3.3,0.4-5,0c-0.3-0.1-0.7,0.1-1,0.2c0.2,0.3,0.2,0.6,0.5,0.8
					C155.5,376,156.7,376.3,158.2,376.5 M133.9,433.2c-0.6-0.4-1-0.7-1.4-0.9c-0.3,0.3-0.8,0.6-0.9,1c-0.1,0.4,0.3,0.9,0.9,0.8
					C133,434,133.3,433.6,133.9,433.2 M149,415.2c-0.1,0-0.3,0-0.4,0c-0.3,0.3-0.7,0.6-0.8,1c-0.1,0.5,0.3,0.8,0.9,0.8
					c0.7,0,1.1-0.3,1-0.8C149.6,415.8,149.2,415.5,149,415.2 M137,432.5c0,0.1,0,0.2,0,0.3c0.4,0.2,0.7,0.6,1.1,0.6
					c0.3,0,0.9-0.4,0.9-0.7c0.1-0.5-0.3-0.8-0.9-0.8C137.7,432,137.3,432.3,137,432.5 M141.2,417.7c-0.1,0-0.3,0-0.4,0
					c-0.2,0.3-0.7,0.6-0.7,0.8c0,0.3,0.5,0.5,0.8,0.8c0.3-0.2,0.8-0.5,0.9-0.7C141.9,418.3,141.4,417.9,141.2,417.7 M180.6,408.2
					c0.5-0.4,0.8-0.7,1.1-0.9c-0.3-0.2-0.6-0.6-1-0.7c-0.5-0.1-1,0.2-0.9,0.7C179.8,407.5,180.2,407.7,180.6,408.2 M167,419.3
					c-0.1,0-0.3,0-0.4,0c-0.2,0.3-0.6,0.6-0.6,0.9c0,0.2,0.5,0.6,0.9,0.6c0.6,0.1,0.9-0.3,0.8-0.8
					C167.7,419.8,167.3,419.5,167,419.3 M187.8,414.4c-0.5-0.3-0.8-0.6-1.1-0.6c-0.3,0-0.8,0.5-0.7,0.6c0.1,0.3,0.5,0.6,0.8,0.9
					C187,415,187.3,414.8,187.8,414.4 M172.2,434.5c0.5,0.3,0.9,0.6,1.2,0.6c0.3,0,0.6-0.4,0.9-0.6c-0.3-0.2-0.5-0.6-0.9-0.7
					C173.1,433.8,172.8,434.2,172.2,434.5 M134,401.3c-0.1,0-0.3,0-0.4,0c-0.2,0.2-0.6,0.6-0.5,0.7c0.2,0.3,0.6,0.5,1,0.7
					c0.1,0,0.6-0.4,0.5-0.5C134.5,401.9,134.2,401.6,134,401.3 M171.9,410.5c0.4-0.4,0.8-0.7,0.8-0.8c-0.1-0.3-0.5-0.5-0.8-0.7
					c-0.3,0.2-0.7,0.4-0.7,0.6C171.1,409.8,171.5,410.1,171.9,410.5 M153.4,385.3c-0.6-0.3-0.9-0.6-1.1-0.6c-0.3,0-0.5,0.4-0.8,0.6
					c0.3,0.2,0.5,0.5,0.8,0.6C152.5,385.8,152.8,385.5,153.4,385.3 M130.1,418.4c0.3-0.5,0.6-0.8,0.6-1c0-0.2-0.4-0.3-0.7-0.5
					c-0.2,0.2-0.6,0.5-0.7,0.7C129.3,417.8,129.7,418,130.1,418.4 M144.6,415.8c-0.5-0.3-0.8-0.6-1.1-0.6c-0.2,0-0.4,0.4-0.6,0.6
					c0.3,0.2,0.6,0.5,0.9,0.6C143.9,416.4,144.2,416.1,144.6,415.8 M137.5,399.3c-0.4-0.3-0.8-0.6-1-0.6c-0.3,0.1-0.7,0.4-0.7,0.6
					c0,0.2,0.4,0.6,0.6,0.6C136.8,399.9,137,399.6,137.5,399.3 M138.6,437.3c-0.6-0.2-0.9-0.4-1.3-0.4c-0.2,0-0.4,0.3-0.6,0.5
					c0.3,0.2,0.5,0.5,0.8,0.5C137.8,437.9,138.1,437.6,138.6,437.3 M177.2,401.8c-0.6-0.3-0.9-0.6-1.2-0.6c-0.2,0-0.5,0.3-0.7,0.5
					c0.3,0.2,0.5,0.5,0.8,0.5C176.4,402.3,176.7,402.1,177.2,401.8 M145.2,390.1c-0.3,0.4-0.6,0.6-0.6,0.9c0,0.2,0.4,0.4,0.6,0.5
					c0.2-0.2,0.6-0.4,0.7-0.7C145.9,390.7,145.6,390.5,145.2,390.1 M149.8,421.1c-0.4,0.4-0.7,0.6-0.7,0.7c0.1,0.2,0.4,0.4,0.7,0.6
					c0.2-0.2,0.6-0.3,0.6-0.5C150.4,421.7,150.1,421.5,149.8,421.1 M189.6,423.7c-0.5-0.2-0.8-0.4-1.1-0.4c-0.2,0-0.4,0.3-0.6,0.5
					c0.2,0.2,0.5,0.4,0.8,0.4C188.9,424.2,189.1,424,189.6,423.7 M178.8,432.4c-0.5-0.2-0.7-0.5-0.9-0.5c-0.2,0-0.4,0.3-0.7,0.5
					c0.2,0.2,0.4,0.5,0.7,0.5C178.1,432.9,178.3,432.6,178.8,432.4 M170.7,403.9c-0.4-0.2-0.6-0.5-0.8-0.5c-0.2,0-0.4,0.2-0.6,0.4
					c0.2,0.2,0.4,0.4,0.6,0.5C170,404.4,170.3,404.1,170.7,403.9 M172.7,439.6c-0.4-0.2-0.6-0.5-0.8-0.5c-0.2,0.1-0.4,0.3-0.6,0.5
					c0.2,0.1,0.4,0.4,0.6,0.4C172.2,440,172.4,439.8,172.7,439.6 M174.7,426.6c-0.4-0.2-0.7-0.4-0.8-0.4c-0.2,0.1-0.4,0.3-0.6,0.5
					c0.2,0.1,0.4,0.4,0.6,0.4C174.1,427,174.3,426.8,174.7,426.6 M163.3,445.1c-0.4-0.2-0.6-0.4-0.8-0.4c-0.2,0-0.4,0.3-0.7,0.4
					c0.2,0.1,0.4,0.4,0.6,0.4C162.7,445.6,162.9,445.3,163.3,445.1 M143.1,438c0.3-0.3,0.6-0.5,0.5-0.6c0-0.2-0.3-0.3-0.5-0.5
					c-0.2,0.1-0.5,0.3-0.5,0.4C142.6,437.5,142.8,437.7,143.1,438 M151.4,389.3c-0.3,0.3-0.5,0.5-0.5,0.6c0,0.2,0.3,0.3,0.5,0.5
					c0.2-0.2,0.4-0.3,0.5-0.5C151.9,389.8,151.7,389.6,151.4,389.3 M176.4,393.1c-0.3-0.2-0.5-0.4-0.7-0.4c-0.1,0-0.3,0.2-0.5,0.3
					c0.2,0.2,0.4,0.4,0.6,0.5C175.9,393.5,176.2,393.3,176.4,393.1 M132.6,426.4c-0.4-0.2-0.6-0.3-0.8-0.3c-0.1,0-0.4,0.3-0.4,0.4
					c0.1,0.2,0.3,0.3,0.5,0.4C132.1,426.8,132.3,426.6,132.6,426.4 M161.6,388.5c0.2-0.2,0.4-0.4,0.4-0.5c0-0.1-0.3-0.2-0.5-0.4
					c-0.1,0.1-0.3,0.3-0.4,0.4C161.1,388.2,161.3,388.3,161.6,388.5"/>
				<path class="st16" d="M158.2,376.5c-1.4-0.2-2.6-0.5-3.7-1.1c-0.3-0.2-0.3-0.5-0.5-0.8c0.3-0.1,0.7-0.3,1-0.2
					c1.7,0.3,3.3,0.5,5,0c0.3-0.1,0.9,0.2,1.3,0.3c-0.2,0.4-0.2,0.9-0.6,1.1C160,376.1,159,376.2,158.2,376.5"/>
				<path class="st16" d="M180.6,408.2c-0.4-0.4-0.8-0.7-0.8-1c-0.1-0.5,0.4-0.8,0.9-0.7c0.4,0.1,0.7,0.5,1,0.7
					C181.4,407.5,181.1,407.7,180.6,408.2"/>
				<path class="st16" d="M167,419.3c0.3,0.3,0.7,0.5,0.7,0.8c0.1,0.4-0.2,0.8-0.8,0.8c-0.3,0-0.8-0.4-0.9-0.6
					c0-0.3,0.4-0.6,0.6-0.9C166.7,419.3,166.9,419.3,167,419.3"/>
				<path class="st16" d="M187.8,414.4c-0.4,0.4-0.7,0.6-1,0.9c-0.3-0.3-0.7-0.5-0.8-0.9c0-0.2,0.5-0.6,0.7-0.6
					C187,413.7,187.3,414.1,187.8,414.4"/>
				<path class="st16" d="M172.2,434.5c0.5-0.3,0.9-0.7,1.1-0.6c0.3,0.1,0.6,0.4,0.9,0.7c-0.3,0.2-0.6,0.6-0.9,0.6
					C173.1,435.1,172.8,434.8,172.2,434.5"/>
				<path class="st16" d="M171.9,410.5c-0.4-0.4-0.8-0.6-0.8-0.9c0-0.2,0.5-0.4,0.7-0.6c0.3,0.2,0.7,0.4,0.8,0.7
					C172.7,409.8,172.3,410.1,171.9,410.5"/>
				<path class="st16" d="M177.2,401.8c-0.5,0.3-0.9,0.5-1.1,0.5c-0.3-0.1-0.5-0.3-0.8-0.5c0.2-0.2,0.5-0.5,0.7-0.5
					C176.4,401.3,176.7,401.5,177.2,401.8"/>
				<path class="st16" d="M189.6,423.7c-0.5,0.3-0.7,0.5-1,0.5c-0.3,0-0.5-0.3-0.8-0.4c0.2-0.2,0.4-0.5,0.6-0.5
					C188.8,423.3,189.1,423.5,189.6,423.7"/>
				<path class="st16" d="M178.8,432.4c-0.4,0.3-0.7,0.5-0.9,0.5c-0.3,0-0.5-0.3-0.7-0.5c0.2-0.2,0.4-0.4,0.7-0.5
					C178.1,431.9,178.3,432.1,178.8,432.4"/>
				<path class="st16" d="M170.7,403.9c-0.4,0.2-0.7,0.5-0.8,0.4c-0.2-0.1-0.4-0.3-0.6-0.5c0.2-0.1,0.4-0.4,0.6-0.4
					C170.1,403.4,170.3,403.7,170.7,403.9"/>
				<path class="st16" d="M172.7,439.6c-0.4,0.2-0.6,0.5-0.8,0.5c-0.2,0-0.4-0.3-0.6-0.4c0.2-0.2,0.4-0.4,0.6-0.5
					C172.1,439.1,172.4,439.3,172.7,439.6"/>
				<path class="st16" d="M174.7,426.6c-0.4,0.2-0.6,0.5-0.8,0.5c-0.2,0-0.4-0.2-0.6-0.4c0.2-0.2,0.3-0.5,0.6-0.5
					C174,426.1,174.3,426.4,174.7,426.6"/>
				<path class="st16" d="M163.3,445.1c-0.4,0.2-0.6,0.5-0.8,0.5c-0.2,0-0.4-0.3-0.6-0.4c0.2-0.1,0.4-0.4,0.7-0.4
					C162.7,444.7,162.9,444.9,163.3,445.1"/>
				<path class="st16" d="M176.4,393.1c-0.3,0.2-0.5,0.4-0.6,0.4c-0.2-0.1-0.4-0.3-0.6-0.5c0.2-0.1,0.3-0.4,0.5-0.3
					C175.9,392.7,176.1,392.9,176.4,393.1"/>
				<path class="st16" d="M161.6,388.5c-0.2-0.2-0.5-0.3-0.4-0.4c0-0.2,0.2-0.3,0.4-0.4c0.2,0.1,0.4,0.2,0.5,0.4
					C162,388.1,161.7,388.3,161.6,388.5"/>
			</g>
		</g>
	</g>
	<text transform="matrix(1 0 0 1 165.6582 427.3428)" class="st3 st4 st5">a</text>
</g>
<g id="P">
	<g>
		<g>
			<defs>
				<rect id="SVGID_21_" x="9" y="177" width="150.1" height="173"/>
			</defs>
			<clipPath id="SVGID_22_">
				<use xlink:href="#SVGID_21_"  style="overflow:visible;"/>
			</clipPath>
			<g class="st18">
				<defs>
					<rect id="SVGID_23_" x="9" y="177" width="75.1" height="160.6"/>
				</defs>
				<clipPath id="SVGID_24_">
					<use xlink:href="#SVGID_23_"  style="overflow:visible;"/>
				</clipPath>
				<path class="st19" d="M126.4,277.8c0,7.4-3.3,15.7-10,22.5c-3.5,3.5-7.7,5.8-12.2,7.7c-1.9,0.8-3.8,1.6-5.7,2.3
					c-2.7,0.9-4.4,2.9-5.6,5.3c-0.9,1.9-2.1,3.5-3.7,4.9c-3.8,3.2-8.8,2.2-10.9-0.5c-1.1-1.5-2.2-3-3.2-4.6c-1.4-2.2-2.9-4.1-5.4-5
					c-4.4-1.5-8.6-3.2-12.5-5.8c-10.2-6.6-15.4-16.1-15.4-28.1c-0.1-11.3,2.5-22.2,6.8-32.6c2.5-5.9,6.6-10.6,11.5-14.6
					c3-2.4,6.1-4.8,9.2-7.3c2.4-1.9,3.7-4.2,4.1-7.3c0.2-1.7,0.7-3.3,1.2-4.9c0.8-2.5,2.5-4,5-4.6c3.1-0.8,6.2-0.8,9.2,0
					c2.4,0.6,4.2,2.1,4.9,4.5c0.6,2,1,4,1.4,6.1c0.4,2,1.1,3.7,2.6,5c2.8,2.3,5.6,4.7,8.4,6.9c5.7,4.4,10.6,9.6,13.5,16.3
					c1.9,4.2,3.2,8.6,4.2,13.1C125.1,263.2,126.4,269.3,126.4,277.8 M44.7,275.7c0,0.9-0.1,1.8,0,2.6c0.9,11.6,6.1,20.4,16.7,25.6
					c2.7,1.3,5.4,2.5,8.3,3.5c3.9,1.3,6.4,4,8.4,7.6c0.7,1.2,1.6,2.4,2.6,3.4c1.5,1.5,3.3,1.6,5.2,0.8c2.2-0.8,3.4-2.5,4.4-4.5
					c1.7-3.3,4.1-5.9,7.7-7.1c2.4-0.8,4.7-1.8,7-2.8c3.9-1.7,7.5-3.9,10.4-7.1c6.2-6.9,8.7-15.1,8-24.3c-0.5-7.2-1.9-14.3-3.9-21.3
					c-1.6-5.4-3.7-10.5-7.3-14.9c-2.9-3.5-6.4-6.3-10-9.1c-2.1-1.6-4.1-3.3-6.1-5.1c-2.1-1.9-3.2-4.3-3.6-7
					c-0.3-1.8-0.7-3.5-1.2-5.3c-0.4-1.6-1.4-2.6-3.1-2.7c-2.6-0.1-5.3-0.3-7.9-0.1c-1.6,0.1-2.9,1-3.3,2.7c-0.4,1.8-0.9,3.7-1.2,5.5
					c-0.4,2.6-1.4,5-3.5,6.8c-2.8,2.4-5.6,4.7-8.5,7c-4.5,3.5-8.5,7.5-11.2,12.6c-2.3,4.3-3.8,8.9-4.9,13.6
					C46,262.6,44.8,269.1,44.7,275.7"/>
				<path class="st20" d="M44.7,275.7c0.1-6.7,1.4-13.2,2.9-19.6c1.1-4.7,2.6-9.3,4.9-13.6c2.8-5.1,6.7-9.1,11.2-12.6
					c2.9-2.3,5.7-4.6,8.5-7c2-1.8,3-4.1,3.5-6.8c0.3-1.9,0.8-3.7,1.2-5.5c0.4-1.7,1.7-2.7,3.3-2.7c2.6-0.1,5.3,0,7.9,0.1
					c1.7,0.1,2.7,1.1,3.1,2.7c0.4,1.8,0.9,3.5,1.2,5.3c0.4,2.8,1.5,5.2,3.6,7c2,1.8,4,3.5,6.1,5.1c3.6,2.8,7.1,5.6,10,9.1
					c3.6,4.4,5.8,9.5,7.3,14.9c2,7,3.4,14,3.9,21.3c0.7,9.2-1.8,17.4-8,24.3c-2.9,3.2-6.5,5.4-10.4,7.1c-2.3,1-4.6,2-7,2.8
					c-3.7,1.2-6,3.8-7.7,7.1c-1,2-2.2,3.7-4.4,4.5c-1.9,0.7-3.7,0.7-5.2-0.8c-1-1-1.9-2.2-2.6-3.4c-1.9-3.5-4.4-6.2-8.4-7.6
					c-2.8-1-5.6-2.1-8.3-3.5c-10.6-5.2-15.8-14.1-16.7-25.6C44.6,277.5,44.7,276.6,44.7,275.7 M84.2,212.8c1-0.4,2-0.6,2.8-1.1
					c0.4-0.2,0.4-0.9,0.6-1.4c-0.5-0.1-1.1-0.5-1.4-0.3c-1.8,0.7-3.6,0.5-5.4,0c-0.3-0.1-0.8,0.2-1.1,0.3c0.2,0.4,0.2,0.9,0.5,1.1
					C81.4,212.2,82.7,212.6,84.2,212.8 M57.8,289.5c-0.7-0.6-1.1-0.9-1.5-1.3c-0.3,0.4-0.9,0.8-1,1.3c-0.1,0.6,0.4,1.2,1,1.1
					C56.8,290.5,57.2,290,57.8,289.5 M74.2,265.1c-0.2,0-0.3,0-0.5,0c-0.3,0.4-0.8,0.8-0.9,1.3c-0.1,0.6,0.4,1.1,1,1.1
					c0.7,0,1.2-0.4,1.1-1.1C75,265.9,74.5,265.5,74.2,265.1 M61.2,288.5c0,0.2,0,0.3,0,0.5c0.4,0.3,0.8,0.8,1.1,0.8
					c0.4,0,0.9-0.5,1-0.9c0.2-0.6-0.3-1.1-1-1C61.9,287.8,61.6,288.2,61.2,288.5 M65.8,268.4c-0.2,0-0.3,0-0.5,0
					c-0.3,0.4-0.8,0.8-0.8,1.1c0,0.4,0.6,0.7,0.9,1.1c0.3-0.3,0.9-0.6,1-1C66.5,269.3,66,268.8,65.8,268.4 M108.7,255.6
					c0.5-0.6,0.9-0.9,1.2-1.3c-0.4-0.3-0.7-0.8-1.1-0.9c-0.6-0.2-1.1,0.3-1,0.9C107.8,254.7,108.3,255,108.7,255.6 M93.9,270.6
					c-0.1,0-0.3,0-0.4,0c-0.2,0.4-0.7,0.8-0.6,1.2c0,0.3,0.6,0.8,1,0.8c0.6,0.1,1-0.4,0.9-1C94.6,271.3,94.1,271,93.9,270.6
					 M116.4,264c-0.5-0.4-0.9-0.9-1.2-0.9c-0.3,0-0.9,0.6-0.8,0.8c0.1,0.4,0.6,0.8,0.9,1.2C115.7,264.9,116,264.5,116.4,264
					 M99.6,291.2c0.6,0.4,0.9,0.9,1.3,0.8c0.3,0,0.6-0.5,0.9-0.8c-0.3-0.3-0.6-0.8-0.9-0.9C100.5,290.3,100.2,290.8,99.6,291.2
					 M57.9,246.4c-0.1,0-0.3,0-0.4,0c-0.2,0.3-0.6,0.8-0.6,0.9c0.2,0.4,0.7,0.7,1.1,0.9c0.1,0,0.6-0.5,0.6-0.7
					C58.5,247.1,58.2,246.8,57.9,246.4 M99.2,258.7c0.4-0.5,0.9-0.9,0.8-1.1c-0.1-0.4-0.6-0.7-0.9-1c-0.3,0.3-0.8,0.6-0.8,0.8
					C98.4,257.8,98.8,258.2,99.2,258.7 M79,224.6c-0.6-0.4-1-0.8-1.2-0.8c-0.3,0-0.6,0.5-0.8,0.8c0.3,0.3,0.6,0.7,0.9,0.7
					C78.1,225.4,78.4,225,79,224.6 M53.7,269.5c0.3-0.7,0.7-1,0.7-1.4c0-0.2-0.5-0.5-0.7-0.7c-0.3,0.3-0.7,0.6-0.7,1
					C52.9,268.6,53.3,268.9,53.7,269.5 M69.5,266c-0.6-0.4-0.9-0.8-1.2-0.8c-0.2,0-0.5,0.5-0.7,0.8c0.3,0.3,0.6,0.6,1,0.8
					C68.7,266.8,69.1,266.3,69.5,266 M61.8,243.7c-0.5-0.4-0.8-0.8-1-0.8c-0.3,0.1-0.7,0.5-0.8,0.8c0,0.2,0.4,0.8,0.7,0.8
					C61,244.5,61.3,244.1,61.8,243.7 M63,294.9c-0.7-0.3-1-0.6-1.4-0.6c-0.2,0-0.4,0.4-0.7,0.7c0.3,0.3,0.6,0.7,0.9,0.7
					C62.1,295.8,62.4,295.4,63,294.9 M105,247c-0.6-0.4-0.9-0.8-1.3-0.8c-0.3,0-0.5,0.4-0.8,0.7c0.3,0.3,0.5,0.7,0.9,0.7
					C104.1,247.7,104.4,247.4,105,247 M70.2,231.2c-0.3,0.6-0.7,0.9-0.7,1.2c0,0.3,0.4,0.5,0.6,0.7c0.3-0.3,0.6-0.5,0.7-0.9
					C70.9,232.1,70.5,231.7,70.2,231.2 M75.1,273c-0.4,0.5-0.8,0.8-0.8,1c0.1,0.3,0.5,0.6,0.7,0.9c0.2-0.2,0.6-0.5,0.7-0.7
					C75.8,273.9,75.5,273.6,75.1,273 M118.5,276.6c-0.6-0.3-0.9-0.6-1.2-0.6c-0.2,0-0.4,0.4-0.7,0.7c0.3,0.2,0.5,0.6,0.8,0.6
					C117.7,277.3,117.9,277,118.5,276.6 M106.7,288.3c-0.5-0.3-0.8-0.7-1-0.6c-0.3,0-0.5,0.4-0.7,0.6c0.2,0.2,0.5,0.6,0.8,0.7
					C105.9,289.1,106.2,288.7,106.7,288.3 M97.9,249.9c-0.4-0.3-0.6-0.6-0.8-0.6c-0.2,0-0.5,0.3-0.7,0.5c0.2,0.2,0.4,0.6,0.7,0.7
					C97.1,250.5,97.4,250.1,97.9,249.9 M100.1,298.1c-0.4-0.3-0.7-0.7-0.9-0.6c-0.3,0.1-0.5,0.4-0.7,0.7c0.2,0.2,0.4,0.5,0.7,0.5
					C99.5,298.7,99.7,298.4,100.1,298.1 M102.2,280.5c-0.4-0.3-0.7-0.6-0.9-0.5c-0.3,0.1-0.4,0.5-0.6,0.7c0.2,0.2,0.5,0.5,0.7,0.5
					C101.6,281.1,101.8,280.8,102.2,280.5 M89.8,305.5c-0.4-0.3-0.7-0.5-0.8-0.5c-0.3,0.1-0.5,0.4-0.7,0.6c0.2,0.2,0.4,0.6,0.7,0.6
					C89.2,306.2,89.4,305.8,89.8,305.5 M67.8,295.9c0.3-0.4,0.6-0.6,0.6-0.8c0-0.3-0.4-0.5-0.5-0.7c-0.2,0.2-0.6,0.4-0.6,0.6
					C67.3,295.2,67.6,295.5,67.8,295.9 M76.9,230.1c-0.3,0.4-0.6,0.7-0.6,0.9c0,0.2,0.4,0.4,0.6,0.6c0.2-0.2,0.5-0.5,0.5-0.7
					C77.5,230.7,77.2,230.5,76.9,230.1 M104.1,235.2c-0.3-0.3-0.5-0.5-0.8-0.6c-0.1,0-0.3,0.3-0.5,0.5c0.2,0.2,0.4,0.5,0.6,0.6
					C103.6,235.8,103.8,235.5,104.1,235.2 M56.4,280.2c-0.4-0.2-0.6-0.5-0.8-0.5c-0.2,0-0.5,0.4-0.4,0.5c0.1,0.2,0.4,0.4,0.6,0.5
					C55.9,280.8,56.1,280.5,56.4,280.2 M87.9,229.1c0.2-0.3,0.5-0.5,0.5-0.7c0-0.2-0.3-0.3-0.5-0.5c-0.1,0.2-0.4,0.4-0.4,0.6
					C87.4,228.6,87.7,228.8,87.9,229.1"/>
				<path class="st19" d="M84.2,212.8c-1.5-0.2-2.9-0.6-4-1.5c-0.3-0.2-0.4-0.7-0.5-1.1c0.4-0.1,0.8-0.4,1.1-0.3
					c1.8,0.5,3.6,0.7,5.4,0c0.4-0.2,1,0.2,1.4,0.3c-0.2,0.5-0.3,1.2-0.6,1.4C86.2,212.2,85.2,212.5,84.2,212.8"/>
				<path class="st19" d="M57.8,289.5c-0.6,0.5-1,1-1.4,1.1c-0.7,0.1-1.1-0.4-1-1c0.1-0.5,0.6-0.9,1-1.3
					C56.7,288.6,57.2,288.9,57.8,289.5"/>
				<path class="st19" d="M74.2,265.1c0.3,0.4,0.7,0.8,0.8,1.3c0.1,0.7-0.4,1.1-1.1,1.1c-0.7,0-1.1-0.5-1-1.1
					c0.1-0.5,0.6-0.9,0.9-1.3C73.9,265.1,74.1,265.1,74.2,265.1"/>
				<path class="st19" d="M61.2,288.5c0.4-0.3,0.8-0.7,1.2-0.7c0.6-0.1,1.1,0.4,1,1c-0.1,0.4-0.6,0.9-1,0.9c-0.4,0-0.8-0.5-1.1-0.8
					C61.2,288.8,61.2,288.6,61.2,288.5"/>
				<path class="st19" d="M65.8,268.4c0.2,0.4,0.7,0.8,0.7,1.2c-0.1,0.4-0.6,0.7-1,1c-0.3-0.4-0.9-0.7-0.9-1.1
					c0-0.4,0.5-0.8,0.7-1.1C65.5,268.4,65.6,268.4,65.8,268.4"/>
				<path class="st19" d="M57.9,246.4c0.2,0.4,0.6,0.8,0.7,1.2c0,0.2-0.5,0.7-0.6,0.7c-0.4-0.2-0.8-0.5-1.1-0.9
					c-0.1-0.2,0.4-0.6,0.6-0.9C57.7,246.4,57.8,246.4,57.9,246.4"/>
				<path class="st19" d="M79,224.6c-0.6,0.4-0.9,0.8-1.2,0.8c-0.3,0-0.6-0.5-0.9-0.7c0.3-0.3,0.5-0.7,0.8-0.8
					C78.1,223.8,78.4,224.3,79,224.6"/>
				<path class="st19" d="M53.7,269.5c-0.4-0.6-0.8-0.9-0.8-1.1c0.1-0.4,0.5-0.7,0.7-1c0.3,0.2,0.7,0.5,0.7,0.7
					C54.4,268.5,54.1,268.8,53.7,269.5"/>
				<path class="st19" d="M69.5,266c-0.5,0.4-0.8,0.8-0.9,0.7c-0.4-0.2-0.7-0.5-1-0.8c0.2-0.3,0.5-0.8,0.7-0.8
					C68.6,265.2,69,265.6,69.5,266"/>
				<path class="st19" d="M61.8,243.7c-0.5,0.4-0.8,0.8-1.1,0.8c-0.2,0-0.7-0.5-0.7-0.8c0-0.3,0.4-0.7,0.8-0.8
					C61,242.9,61.3,243.3,61.8,243.7"/>
				<path class="st19" d="M63,294.9c-0.6,0.4-0.9,0.8-1.1,0.8c-0.3,0-0.6-0.5-0.9-0.7c0.2-0.2,0.4-0.7,0.7-0.7
					C62,294.4,62.3,294.6,63,294.9"/>
				<path class="st19" d="M70.2,231.2c0.4,0.5,0.8,0.8,0.7,1c-0.1,0.3-0.5,0.6-0.7,0.9c-0.2-0.2-0.6-0.5-0.6-0.7
					C69.5,232.1,69.8,231.8,70.2,231.2"/>
				<path class="st19" d="M75.1,273c0.3,0.5,0.6,0.8,0.6,1.1c0,0.2-0.4,0.5-0.7,0.7c-0.3-0.3-0.6-0.5-0.7-0.9
					C74.3,273.8,74.8,273.5,75.1,273"/>
				<path class="st19" d="M67.8,295.9c-0.3-0.4-0.5-0.7-0.5-0.9c0-0.2,0.4-0.4,0.6-0.6c0.2,0.2,0.5,0.4,0.5,0.7
					C68.5,295.3,68.1,295.5,67.8,295.9"/>
				<path class="st19" d="M76.9,230.1c0.3,0.4,0.6,0.6,0.5,0.8c-0.1,0.3-0.3,0.5-0.5,0.7c-0.2-0.2-0.6-0.4-0.6-0.6
					C76.3,230.8,76.6,230.5,76.9,230.1"/>
				<path class="st19" d="M56.4,280.2c-0.3,0.3-0.5,0.6-0.7,0.5c-0.2,0-0.5-0.3-0.6-0.5c0-0.1,0.3-0.5,0.4-0.5
					C55.8,279.8,56,280,56.4,280.2"/>
			</g>
		</g>
	</g>
	<text transform="matrix(1 0 0 1 54.6582 275.1904)" class="st3 st4 st21">p</text>
</g>
<g id="B">
	<g>
		<g>
			<defs>
				<rect id="SVGID_25_" x="10" y="30" width="150.1" height="173"/>
			</defs>
			<clipPath id="SVGID_26_">
				<use xlink:href="#SVGID_25_"  style="overflow:visible;"/>
			</clipPath>
			<g class="st22">
				<defs>
					<rect id="SVGID_27_" x="10" y="30" width="75.1" height="160.6"/>
				</defs>
				<clipPath id="SVGID_28_">
					<use xlink:href="#SVGID_27_"  style="overflow:visible;"/>
				</clipPath>
				<path class="st23" d="M127.4,130.8c0,7.4-3.3,15.7-10,22.5c-3.5,3.5-7.7,5.8-12.2,7.7c-1.9,0.8-3.8,1.6-5.7,2.3
					c-2.7,0.9-4.4,2.9-5.6,5.3c-0.9,1.9-2.1,3.5-3.7,4.9c-3.8,3.2-8.8,2.2-10.9-0.5c-1.1-1.5-2.2-3-3.2-4.6c-1.4-2.2-2.9-4.1-5.4-5
					c-4.4-1.5-8.6-3.2-12.5-5.8c-10.2-6.6-15.4-16.1-15.4-28.1c-0.1-11.3,2.5-22.2,6.8-32.6C52,91,56.1,86.3,61,82.3
					c3-2.4,6.1-4.8,9.2-7.3c2.4-1.9,3.7-4.2,4.1-7.3c0.2-1.7,0.7-3.3,1.2-4.9c0.8-2.5,2.5-4,5-4.6c3.1-0.8,6.2-0.8,9.2,0
					c2.4,0.6,4.2,2.1,4.9,4.5c0.6,2,1,4,1.4,6.1c0.4,2,1.1,3.7,2.6,5c2.8,2.3,5.6,4.7,8.4,6.9c5.7,4.4,10.6,9.6,13.5,16.3
					c1.9,4.2,3.2,8.6,4.2,13.1C126.1,116.2,127.4,122.3,127.4,130.8 M45.7,128.7c0,0.9-0.1,1.8,0,2.6c0.9,11.6,6.1,20.4,16.7,25.6
					c2.7,1.3,5.4,2.5,8.3,3.5c3.9,1.3,6.4,4,8.4,7.6c0.7,1.2,1.6,2.4,2.6,3.4c1.5,1.5,3.3,1.6,5.2,0.8c2.2-0.8,3.4-2.5,4.4-4.5
					c1.7-3.3,4.1-5.9,7.7-7.1c2.4-0.8,4.7-1.8,7-2.8c3.9-1.7,7.5-3.9,10.4-7.1c6.2-6.9,8.7-15.1,8-24.3c-0.5-7.2-1.9-14.3-3.9-21.3
					c-1.6-5.4-3.7-10.5-7.3-14.9c-2.9-3.5-6.4-6.3-10-9.1C101,79.5,99,77.8,97,76c-2.1-1.9-3.2-4.3-3.6-7c-0.3-1.8-0.7-3.5-1.2-5.3
					c-0.4-1.6-1.4-2.6-3.1-2.7c-2.6-0.1-5.3-0.3-7.9-0.1c-1.6,0.1-2.9,1-3.3,2.7c-0.4,1.8-0.9,3.7-1.2,5.5c-0.4,2.6-1.4,5-3.5,6.8
					c-2.8,2.4-5.6,4.7-8.5,7c-4.5,3.5-8.5,7.5-11.2,12.6c-2.3,4.3-3.8,8.9-4.9,13.6C47,115.6,45.8,122.1,45.7,128.7"/>
				<path class="st24" d="M45.7,128.7c0.1-6.7,1.4-13.2,2.9-19.6c1.1-4.7,2.6-9.3,4.9-13.6c2.8-5.1,6.7-9.1,11.2-12.6
					c2.9-2.3,5.7-4.6,8.5-7c2-1.8,3-4.1,3.5-6.8c0.3-1.9,0.8-3.7,1.2-5.5c0.4-1.7,1.7-2.7,3.3-2.7c2.6-0.1,5.3,0,7.9,0.1
					c1.7,0.1,2.7,1.1,3.1,2.7c0.4,1.8,0.9,3.5,1.2,5.3c0.4,2.8,1.5,5.2,3.6,7c2,1.8,4,3.5,6.1,5.1c3.6,2.8,7.1,5.6,10,9.1
					c3.6,4.4,5.8,9.5,7.3,14.9c2,7,3.4,14,3.9,21.3c0.7,9.2-1.8,17.4-8,24.3c-2.9,3.2-6.5,5.4-10.4,7.1c-2.3,1-4.6,2-7,2.8
					c-3.7,1.2-6,3.8-7.7,7.1c-1,2-2.2,3.7-4.4,4.5c-1.9,0.7-3.7,0.7-5.2-0.8c-1-1-1.9-2.2-2.6-3.4c-1.9-3.5-4.4-6.2-8.4-7.6
					c-2.8-1-5.6-2.1-8.3-3.5c-10.6-5.2-15.8-14.1-16.7-25.6C45.6,130.5,45.7,129.6,45.7,128.7 M85.2,65.8c1-0.4,2-0.6,2.8-1.1
					c0.4-0.2,0.4-0.9,0.6-1.4c-0.5-0.1-1.1-0.5-1.4-0.3c-1.8,0.7-3.6,0.5-5.4,0c-0.3-0.1-0.8,0.2-1.1,0.3c0.2,0.4,0.2,0.9,0.5,1.1
					C82.4,65.2,83.7,65.6,85.2,65.8 M58.8,142.5c-0.7-0.6-1.1-0.9-1.5-1.3c-0.3,0.4-0.9,0.8-1,1.3c-0.1,0.6,0.4,1.2,1,1.1
					C57.8,143.5,58.2,143,58.8,142.5 M75.2,118.1c-0.2,0-0.3,0-0.5,0c-0.3,0.4-0.8,0.8-0.9,1.3c-0.1,0.6,0.4,1.1,1,1.1
					c0.7,0,1.2-0.4,1.1-1.1C76,118.9,75.5,118.5,75.2,118.1 M62.2,141.5c0,0.2,0,0.3,0,0.5c0.4,0.3,0.8,0.8,1.1,0.8
					c0.4,0,0.9-0.5,1-0.9c0.2-0.6-0.3-1.1-1-1C62.9,140.8,62.6,141.2,62.2,141.5 M66.8,121.4c-0.2,0-0.3,0-0.5,0
					c-0.3,0.4-0.8,0.8-0.8,1.1c0,0.4,0.6,0.7,0.9,1.1c0.3-0.3,0.9-0.6,1-1C67.5,122.3,67,121.8,66.8,121.4 M109.7,108.6
					c0.5-0.6,0.9-0.9,1.2-1.3c-0.4-0.3-0.7-0.8-1.1-0.9c-0.6-0.2-1.1,0.3-1,0.9C108.8,107.7,109.3,108,109.7,108.6 M94.9,123.6
					c-0.1,0-0.3,0-0.4,0c-0.2,0.4-0.7,0.8-0.6,1.2c0,0.3,0.6,0.8,1,0.8c0.6,0.1,1-0.4,0.9-1C95.6,124.3,95.1,124,94.9,123.6
					 M117.4,117c-0.5-0.4-0.9-0.9-1.2-0.9c-0.3,0-0.9,0.6-0.8,0.8c0.1,0.4,0.6,0.8,0.9,1.2C116.7,117.9,117,117.5,117.4,117
					 M100.6,144.2c0.6,0.4,0.9,0.9,1.3,0.8c0.3,0,0.6-0.5,0.9-0.8c-0.3-0.3-0.6-0.8-0.9-0.9C101.5,143.3,101.2,143.8,100.6,144.2
					 M58.9,99.4c-0.1,0-0.3,0-0.4,0c-0.2,0.3-0.6,0.8-0.6,0.9c0.2,0.4,0.7,0.7,1.1,0.9c0.1,0,0.6-0.5,0.6-0.7
					C59.5,100.1,59.2,99.8,58.9,99.4 M100.2,111.7c0.4-0.5,0.9-0.9,0.8-1.1c-0.1-0.4-0.6-0.7-0.9-1c-0.3,0.3-0.8,0.6-0.8,0.8
					C99.4,110.8,99.8,111.2,100.2,111.7 M80,77.6c-0.6-0.4-1-0.8-1.2-0.8c-0.3,0-0.6,0.5-0.8,0.8c0.3,0.3,0.6,0.7,0.9,0.7
					C79.1,78.4,79.4,78,80,77.6 M54.7,122.5c0.3-0.7,0.7-1,0.7-1.4c0-0.2-0.5-0.5-0.7-0.7c-0.3,0.3-0.7,0.6-0.7,1
					C53.9,121.6,54.3,121.9,54.7,122.5 M70.5,119c-0.6-0.4-0.9-0.8-1.2-0.8c-0.2,0-0.5,0.5-0.7,0.8c0.3,0.3,0.6,0.6,1,0.8
					C69.7,119.8,70.1,119.3,70.5,119 M62.8,96.7c-0.5-0.4-0.8-0.8-1-0.8C61.4,96,61,96.4,61,96.7c0,0.2,0.4,0.8,0.7,0.8
					C62,97.5,62.3,97.1,62.8,96.7 M64,147.9c-0.7-0.3-1-0.6-1.4-0.6c-0.2,0-0.4,0.4-0.7,0.7c0.3,0.3,0.6,0.7,0.9,0.7
					C63.1,148.8,63.4,148.4,64,147.9 M106,100c-0.6-0.4-0.9-0.8-1.3-0.8c-0.3,0-0.5,0.4-0.8,0.7c0.3,0.3,0.5,0.7,0.9,0.7
					C105.1,100.7,105.4,100.4,106,100 M71.2,84.2c-0.3,0.6-0.7,0.9-0.7,1.2c0,0.3,0.4,0.5,0.6,0.7c0.3-0.3,0.6-0.5,0.7-0.9
					C71.9,85.1,71.5,84.7,71.2,84.2 M76.1,126c-0.4,0.5-0.8,0.8-0.8,1c0.1,0.3,0.5,0.6,0.7,0.9c0.2-0.2,0.6-0.5,0.7-0.7
					C76.8,126.9,76.5,126.6,76.1,126 M119.5,129.6c-0.6-0.3-0.9-0.6-1.2-0.6c-0.2,0-0.4,0.4-0.7,0.7c0.3,0.2,0.5,0.6,0.8,0.6
					C118.7,130.3,118.9,130,119.5,129.6 M107.7,141.3c-0.5-0.3-0.8-0.7-1-0.6c-0.3,0-0.5,0.4-0.7,0.6c0.2,0.2,0.5,0.6,0.8,0.7
					C106.9,142.1,107.2,141.7,107.7,141.3 M98.9,102.9c-0.4-0.3-0.6-0.6-0.8-0.6c-0.2,0-0.5,0.3-0.7,0.5c0.2,0.2,0.4,0.6,0.7,0.7
					C98.1,103.5,98.4,103.1,98.9,102.9 M101.1,151.1c-0.4-0.3-0.7-0.7-0.9-0.6c-0.3,0.1-0.5,0.4-0.7,0.7c0.2,0.2,0.4,0.5,0.7,0.5
					C100.5,151.7,100.7,151.4,101.1,151.1 M103.2,133.5c-0.4-0.3-0.7-0.6-0.9-0.5c-0.3,0.1-0.4,0.5-0.6,0.7c0.2,0.2,0.5,0.5,0.7,0.5
					C102.6,134.1,102.8,133.8,103.2,133.5 M90.8,158.5c-0.4-0.3-0.7-0.5-0.8-0.5c-0.3,0.1-0.5,0.4-0.7,0.6c0.2,0.2,0.4,0.6,0.7,0.6
					C90.2,159.2,90.4,158.8,90.8,158.5 M68.8,148.9c0.3-0.4,0.6-0.6,0.6-0.8c0-0.3-0.4-0.5-0.5-0.7c-0.2,0.2-0.6,0.4-0.6,0.6
					C68.3,148.2,68.6,148.5,68.8,148.9 M77.9,83.1c-0.3,0.4-0.6,0.7-0.6,0.9c0,0.2,0.4,0.4,0.6,0.6c0.2-0.2,0.5-0.5,0.5-0.7
					C78.5,83.7,78.2,83.5,77.9,83.1 M105.1,88.2c-0.3-0.3-0.5-0.5-0.8-0.6c-0.1,0-0.3,0.3-0.5,0.5c0.2,0.2,0.4,0.5,0.6,0.6
					C104.6,88.8,104.8,88.5,105.1,88.2 M57.4,133.2c-0.4-0.2-0.6-0.5-0.8-0.5c-0.2,0-0.5,0.4-0.4,0.5c0.1,0.2,0.4,0.4,0.6,0.5
					C56.9,133.8,57.1,133.5,57.4,133.2 M88.9,82.1c0.2-0.3,0.5-0.5,0.5-0.7c0-0.2-0.3-0.3-0.5-0.5c-0.1,0.2-0.4,0.4-0.4,0.6
					C88.4,81.6,88.7,81.8,88.9,82.1"/>
				<path class="st23" d="M85.2,65.8c-1.5-0.2-2.9-0.6-4-1.5c-0.3-0.2-0.4-0.7-0.5-1.1c0.4-0.1,0.8-0.4,1.1-0.3
					c1.8,0.5,3.6,0.7,5.4,0c0.4-0.2,1,0.2,1.4,0.3c-0.2,0.5-0.3,1.2-0.6,1.4C87.2,65.2,86.2,65.5,85.2,65.8"/>
				<path class="st23" d="M58.8,142.5c-0.6,0.5-1,1-1.4,1.1c-0.7,0.1-1.1-0.4-1-1c0.1-0.5,0.6-0.9,1-1.3
					C57.7,141.6,58.2,141.9,58.8,142.5"/>
				<path class="st23" d="M75.2,118.1c0.3,0.4,0.7,0.8,0.8,1.3c0.1,0.7-0.4,1.1-1.1,1.1c-0.7,0-1.1-0.5-1-1.1
					c0.1-0.5,0.6-0.9,0.9-1.3C74.9,118.1,75.1,118.1,75.2,118.1"/>
				<path class="st23" d="M62.2,141.5c0.4-0.3,0.8-0.7,1.2-0.7c0.6-0.1,1.1,0.4,1,1c-0.1,0.4-0.6,0.9-1,0.9c-0.4,0-0.8-0.5-1.1-0.8
					C62.2,141.8,62.2,141.6,62.2,141.5"/>
				<path class="st23" d="M66.8,121.4c0.2,0.4,0.7,0.8,0.7,1.2c-0.1,0.4-0.6,0.7-1,1c-0.3-0.4-0.9-0.7-0.9-1.1
					c0-0.4,0.5-0.8,0.7-1.1C66.5,121.4,66.6,121.4,66.8,121.4"/>
				<path class="st23" d="M58.9,99.4c0.2,0.4,0.6,0.8,0.7,1.2c0,0.2-0.5,0.7-0.6,0.7c-0.4-0.2-0.8-0.5-1.1-0.9
					c-0.1-0.2,0.4-0.6,0.6-0.9C58.7,99.4,58.8,99.4,58.9,99.4"/>
				<path class="st23" d="M80,77.6c-0.6,0.4-0.9,0.8-1.2,0.8c-0.3,0-0.6-0.5-0.9-0.7c0.3-0.3,0.5-0.7,0.8-0.8
					C79.1,76.8,79.4,77.3,80,77.6"/>
				<path class="st23" d="M54.7,122.5c-0.4-0.6-0.8-0.9-0.8-1.1c0.1-0.4,0.5-0.7,0.7-1c0.3,0.2,0.7,0.5,0.7,0.7
					C55.4,121.5,55.1,121.8,54.7,122.5"/>
				<path class="st23" d="M70.5,119c-0.5,0.4-0.8,0.8-0.9,0.7c-0.4-0.2-0.7-0.5-1-0.8c0.2-0.3,0.5-0.8,0.7-0.8
					C69.6,118.2,70,118.6,70.5,119"/>
				<path class="st23" d="M62.8,96.7c-0.5,0.4-0.8,0.8-1.1,0.8c-0.2,0-0.7-0.5-0.7-0.8c0-0.3,0.4-0.7,0.8-0.8
					C62,95.9,62.3,96.3,62.8,96.7"/>
				<path class="st23" d="M64,147.9c-0.6,0.4-0.9,0.8-1.1,0.8c-0.3,0-0.6-0.5-0.9-0.7c0.2-0.2,0.4-0.7,0.7-0.7
					C63,147.4,63.3,147.6,64,147.9"/>
				<path class="st23" d="M71.2,84.2c0.4,0.5,0.8,0.8,0.7,1c-0.1,0.3-0.5,0.6-0.7,0.9c-0.2-0.2-0.6-0.5-0.6-0.7
					C70.5,85.1,70.8,84.8,71.2,84.2"/>
				<path class="st23" d="M76.1,126c0.3,0.5,0.6,0.8,0.6,1.1c0,0.2-0.4,0.5-0.7,0.7c-0.3-0.3-0.6-0.5-0.7-0.9
					C75.3,126.8,75.8,126.5,76.1,126"/>
				<path class="st23" d="M68.8,148.9c-0.3-0.4-0.5-0.7-0.5-0.9c0-0.2,0.4-0.4,0.6-0.6c0.2,0.2,0.5,0.4,0.5,0.7
					C69.5,148.3,69.1,148.5,68.8,148.9"/>
				<path class="st23" d="M77.9,83.1c0.3,0.4,0.6,0.6,0.5,0.8c-0.1,0.3-0.3,0.5-0.5,0.7c-0.2-0.2-0.6-0.4-0.6-0.6
					C77.3,83.8,77.6,83.5,77.9,83.1"/>
				<path class="st23" d="M57.4,133.2c-0.3,0.3-0.5,0.6-0.7,0.5c-0.2,0-0.5-0.3-0.6-0.5c0-0.1,0.3-0.5,0.4-0.5
					C56.8,132.8,57,133,57.4,133.2"/>
			</g>
		</g>
	</g>
	<text transform="matrix(1 0 0 1 55.6582 133.1904)" class="st3 st4 st21">b</text>
</g>
</svg>
