<?xml version="1.0" encoding="utf-8"?>
<!-- Generator: Adobe Illustrator 22.1.0, SVG Export Plug-In . SVG Version: 6.00 Build 0)  -->
<svg version="1.1" id="TIGER" xmlns="http://www.w3.org/2000/svg" xmlns:xlink="http://www.w3.org/1999/xlink" x="0px" y="0px"
	 viewBox="0 0 690 500" style="enable-background:new 0 0 690 500;" xml:space="preserve">
<style type="text/css">
	.st0{clip-path:url(#SVGID_2_);}
	.st1{clip-path:url(#SVGID_4_);}
	.st2{clip-path:url(#SVGID_4_);fill:#2D2841;}
	.st3{clip-path:url(#SVGID_4_);fill:#C09640;}
	.st4{clip-path:url(#SVGID_4_);fill:#4C342E;}
	.st5{clip-path:url(#SVGID_4_);fill:#FE966F;}
	.st6{clip-path:url(#SVGID_4_);fill:#A93534;}
	.st7{clip-path:url(#SVGID_4_);fill:#5B1010;}
	.st8{clip-path:url(#SVGID_4_);fill:#FFFFFF;}
	.st9{clip-path:url(#SVGID_4_);fill:#7B824D;}
</style>
<g>
	<g>
		<defs>
			<rect id="SVGID_1_" x="199" y="77" width="297.6" height="414"/>
		</defs>
		<clipPath id="SVGID_2_">
			<use xlink:href="#SVGID_1_"  style="overflow:visible;"/>
		</clipPath>
		<g class="st0">
			<defs>
				<rect id="SVGID_3_" x="199" y="77" width="297.6" height="414"/>
			</defs>
			<clipPath id="SVGID_4_">
				<use xlink:href="#SVGID_3_"  style="overflow:visible;"/>
			</clipPath>
			<path class="st1" d="M387.7,446.1c0.7,0,1.4-0.1,2.1-0.1c1.7,0,3.5-0.1,5.2-0.1c4.9,0,8.5,2.3,11.1,6.3c2.3,3.4,3.4,7.3,4.2,11.3
				c0.3,1.7,0.6,3.4,0.8,5c0.1,1,0,2-0.5,2.9c-0.1,0.2,0,0.5,0,0.7c0.1,1.1,0.4,2.2,0.4,3.3c0,1.8-1,3-2.6,3.6
				c-1.5,0.6-3,0.8-4.6,0.7c-3.8-0.1-7.6-0.2-11.4-0.6c-4.6-0.4-9.2-1.1-13.7-1.6c-1.5-0.2-3.1-0.2-4.6-0.3
				c-4.5-0.2-8.9-0.3-13.4-0.4c-2.4,0-4.7,0-7.1,0.1c-1.7,0.1-3.2-0.5-4.6-1.4c-1.2-0.8-1.9-1.9-2.1-3.4c-0.3-1.8-0.2-3.6,0.5-5.3
				c0.2-0.4,0.1-0.8-0.1-1.2c-1.3-2.5-1.7-5.2-1.9-7.9c-0.2-1.7-0.3-3.4-0.5-5c0-0.3-0.2-0.6-0.4-0.7c-0.5-0.4-0.8-0.9-0.8-1.5
				c0-2.9,0.1-5.7,0-8.6c0-2.8-0.1-5.6-0.1-8.4c-0.1-5.6,0-11.1-0.5-16.7c-0.7-9-1.4-18-2.1-26.9c-0.6-8-1.3-16.1-2-24.1
				c0-0.2-0.1-0.5-0.2-0.7c-0.1,1.5-0.1,2.9-0.2,4.4c-0.4,4.2-0.8,8.4-1.1,12.6c-0.1,0.8,0,1.6,0,2.3c0.1,2.5,0.2,5,0.5,7.4
				c0.7,5.5,0.5,11,0.6,16.5c0.2,7.2,0.2,14.5,0.4,21.7c0.1,4.2,0.5,8.4,0.7,12.6c0.1,1.3,0,2.7,0.1,4c0.1,1.2,0.3,2.4,0.5,3.6
				c0.2,1.1,0.5,2.3,0.6,3.4c0.1,0.7-0.1,1.4-0.1,2.3c-1.2,0.1-2.4,0.2-3.7,0.3c0.1,0.2,0.3,0.4,0.4,0.6c1.8,2.8,3,5.8,3.5,9.1
				c0.1,0.4,0.1,0.8,0,1.2c-0.2,0.8,0.1,1.5,0.4,2.2c1.2,2.3,1.5,4.8,0.6,7.3c-0.7,1.8-1.8,2.9-3.8,3.1c-2,0.2-4,0.4-6,0.5
				c-7.2,0.4-14.3,0.9-21.5,1.3c-3.1,0.2-6.2,0.1-9.4,0.1c-0.4,0-0.8-0.1-1.2-0.2c-1.7-0.3-2.9-1.3-3.5-2.9
				c-0.6-1.7-0.7-3.4-0.6-5.2c0-0.2,0-0.5-0.1-0.7c-0.6-1.1-0.7-2.2-0.5-3.4c0-0.3,0.1-0.5,0.2-0.8c1.1-2.6,1.4-5.3,2.2-8
				c0.4-1.2,0.9-2.4,1.4-3.5c0.1-0.3,0.2-0.5-0.1-0.8c-1.3-1.1-1.5-2.4-0.7-4c0.9-1.9,1.1-3.9,1.2-5.9c0.2-6,1-11.9,1.5-17.8
				c0.3-3.7,0.6-7.4,0.7-11.1c0.4-8.3,0.6-16.7,1-25c0.3-6.5,0.8-13,1.2-19.6c0.3-5.4,0.7-10.7,1-16.1c0.4-7.3,0.8-14.6,1.1-21.8
				c0.3-7.8,0.6-15.5,0.8-23.3c0.2-4.4,0.3-8.8,0.5-13.3c0-0.5-0.1-0.7-0.6-0.9c-2.8-1-2.3-1-2.5-3.3c-0.1-1.3-0.2-2.7-0.3-4
				c-0.3-4.6,0.1-9.1,0.7-13.6c0.5-3.7,1.1-7.4,1.7-11.1c0-0.3,0.1-0.5,0.1-0.8c-0.1,0-0.1-0.1-0.2-0.1c-0.2,0.4-0.5,0.9-0.6,1.3
				c-0.3,1.1-0.6,2.2-1,3.3c-0.5,1.5-1,1.7-2.3,1c-0.2-0.1-0.4-0.2-0.6-0.3c-1,1.1-1.2,1.2-2.4,1c0,0.1-0.1,0.3-0.1,0.5
				c-0.1,0.5-0.2,0.9-0.4,1.4c-0.7,1.8-2.2,2-3.4,0.5c-0.9-1.1-1.2-2.3-1.3-3.7c0-0.6-0.3-0.7-0.8-0.7c-2.7-0.2-5.1-1.1-7.2-2.8
				c-1.9-1.6-2.3-3.2-1.5-5.5c2.1-5.8,3.6-11.7,5.3-17.6c3-10.3,5.5-20.7,8.3-31c0.4-1.3,0.8-2.6,1.2-4c-0.5-0.2-0.9-0.4-1.4-0.6
				c-1-0.5-1.2-0.9-0.7-2c2.7-6,6.2-11.5,10.4-16.6c2.9-3.6,6-7.1,9.4-10.2c1.1-1,2.3-1.7,3.6-2.2c1.7-0.6,3.4-0.3,5,0.4
				c2.4,1.1,4.3,2.8,6.2,4.6c0.6,0.6,1.2,1.1,1.8,1.8c0.1-0.9,0.2-1.6,0.2-2.3c0-2.5,0-5,0-7.4c0-0.2-0.1-0.6-0.3-0.7
				c-4.5-3.8-6.8-8.7-7.8-14.4c-0.3-1.5-0.5-3.1-0.8-4.7c-1.3,0.7-2.7,0.7-4.1,0.3c-2.5-0.7-4.3-2.3-5.6-4.4
				c-2.2-3.5-3.5-7.2-3-11.4c0.1-1.1,0.7-2.2,1-3.3c0.1-0.2,0.2-0.6,0.1-0.7c-3-5.1-3.2-10.5-1.3-16c0.6-1.6,1.4-3.2,2.2-4.8
				c-0.1,0-0.3,0.1-0.4,0.1c-1.4,0.4-2.8,0.9-4.2,1.2c-2.1,0.5-3-0.4-2.6-2.5c0.5-2.3,1.3-4.5,2.7-6.5c1.7-2.3,4.2-3.6,6.9-4.5
				c0.6-0.2,1.2-0.4,1.8-0.7c-0.7-0.1-1.5-0.2-2.2-0.3c-1-0.1-2-0.1-3-0.3c-0.6-0.1-1.1-0.3-1.3-0.9c-0.2-0.6,0-1.1,0.5-1.5
				c0.6-0.6,1.3-1.1,2-1.5c4.6-2.5,9.4-3.3,14.5-1.6c0.7,0.2,1.3,0.5,2,0.9c-0.1-0.3-0.1-0.5-0.2-0.7c-0.9-1.7-1.8-3.4-2.7-5.1
				c-0.2-0.5-0.5-0.9-0.7-1.4c-0.3-1,0.2-1.8,1.3-1.8c0.7,0,1.3,0.1,2,0.3c4.4,1.3,8.1,3.8,10.9,7.6c0.1,0.1,0.1,0.2,0.1,0.2
				c0.5-0.5,1-0.9,1.5-1.4c2-1.8,4.4-3.2,6.9-4c2.2-0.7,4.4-1.2,6.7-1.8c0.5-0.1,1-0.1,1.5,0c0.9,0.2,1.3,0.8,1.1,1.7
				c-0.1,0.5-0.3,0.9-0.6,1.4c-0.7,1.2-1.5,2.3-2.3,3.4c-0.1,0.2-0.2,0.3-0.4,0.6c0.6-0.2,1.1-0.3,1.5-0.4c4.4-1.2,8.9-1.6,13.4-1
				c4.8,0.6,8.5,2.9,11.1,7c1.2,2,2.3,4,3.5,6c1.5,2.5,2.9,5.2,4.5,7.6c2.8,4.2,6.8,6.8,11.3,8.8c0.6,0.3,1.3,0.5,1.2,1.3
				c-0.1,0.9-0.8,1.1-1.5,1.2c-1.9,0.3-3.8,0.5-5.6,0.7c-0.1,0-0.3,0-0.6,0c0.2,0.2,0.4,0.4,0.5,0.6c0.9,1.3,2,2.5,2.8,3.8
				c1,1.7,1.5,3.6,0.7,5.5c0.1,0,0.1,0.1,0.1,0.1c0.5,0,1-0.1,1.2,0.5c0.3,0.6,0,1.1-0.3,1.6c-2.3,3.3-5.4,5.6-9.2,6.7
				c-2,0.6-4.1,0.9-6.1,1.3c-0.3,0.1-0.5,0.1-0.8,0.1c1.9,4.5,0.3,8.2-2.4,11.6c-2.3,2.9-5.3,4.5-8.9,4.8c-1,0.1-1.3,0.5-1.6,1.2
				c-1.7,3.5-3.7,6.9-6.6,9.6c-2.6,2.4-5.5,4.2-8.9,5.3c-0.5,0.1-0.6,0.4-0.7,0.8c-0.3,2-0.6,4-0.9,5.9c0,0.2-0.1,0.4-0.1,0.7
				c0.2-0.1,0.4-0.1,0.6-0.2c6.9-2.5,14.5-0.4,19.1,6.6c2.1,3.2,3.7,6.6,5.3,10.1c1.1,2.4,2.3,4.9,3.5,7.3c0.3,0.5,0.6,1,0.9,1.5
				c0.5,0.9,0.5,1.5-0.4,2c-0.9,0.6-1.9,1.1-2.9,1.6c-1.4,0.8-1.4,0.8-1.2,2.4c0.5,5,1.1,10,1.6,15.1c0.5,5.2,0.9,10.5,1.4,15.7
				c0.4,4,0.8,7.9,1.2,11.9c0.1,0.7,0.2,1.4,0.3,2.1c0.3,1.1,0,2-0.7,2.8c-1.4,1.7-3.2,2.9-5.2,3.8c-2.5,1.1-5.2,1.4-8,1.3
				c-0.3,0-0.6,0-1,0c0.1,0.9,0.1,1.7,0.2,2.5c0.5,6,1,11.9,1.5,17.9c0.1,0.9,0,1.8,0.1,2.7c0,0.8-0.3,1.3-1,1.5
				c-0.9,0.3-1.8,0.6-2.7,0.8c-0.5,0.1-0.7,0.4-0.7,0.9c0.2,4.9,0.2,9.9,0.5,14.8c0.5,8.2,1.1,16.4,1.9,24.6
				c1.1,11.4,2.7,22.8,4.9,34c0.7,3.4,0.7,6.8,0.7,10.2c0,2.5,0.3,5.1,0.8,7.6c1.7,9.1,3.5,18.2,5.3,27.2c1.2,6,2.4,12.1,3.6,18.1
				c0.3,1.5,1,2.9,1.6,4.3c0.9,1.9,1.7,3.8,2.5,5.8C387.9,444.2,387.9,444.6,387.7,446.1 M364.8,382.9c0.2,0.1,0.4,0.3,0.7,0.4
				c0.7,0.4,1.4,0.8,2.1,1.3c0.2,0.1,0.2,0.4,0.4,0.5c-0.2,0-0.5,0.2-0.6,0.1c-1.2-0.5-2.3-1.1-3.4-1.7c-0.5-0.2-0.8-0.7-0.7-1.3
				c0.2-0.6,0.7-0.7,1.2-0.8c0.9-0.1,1.8-0.1,2.7-0.2c1.5-0.2,3-0.4,4.4-1.3c0.4-0.2,0.5-0.5,0.5-0.9c0.1-3-0.1-5.9-0.6-8.8
				c-0.9-5.4-2-10.7-2.7-16.1c-1.9-13.4-3.2-26.9-3.8-40.5c-0.1-1.5-0.4-2.8-1-4.1c-1.9-3.9-3.8-7.8-5.6-11.8
				c-0.3-0.5-0.6-0.7-1.1-0.5c-0.5,0.1-0.9,0.2-1.4,0.2c-10.8,1.5-21.8,2-32.7,2c-1,0-1.6,0.3-2.1,1.2c-3.6,5.6-7.6,10.9-11.8,16
				c-0.4,0.4-0.5,0.9-0.5,1.5c-0.5,12-0.9,23.9-1.5,35.9c-0.3,7.3-0.8,14.5-1.3,21.8c0,0.5,0.1,0.8,0.5,1.2c2.4,2.2,4.8,4.4,7.2,6.7
				c1.2,1.1,2.3,2.3,3.5,3.3c1.8,1.5,3.8,2.1,6.1,1.5c4.5-1.2,8.2-3.6,11.4-6.8c1.3-1.3,1.8-2.8,1.9-4.6c0.2-4,0.6-8.1,0.8-12.1
				c0.4-6.2,0.4-12.5,0.1-18.7c-0.1-1.2-0.1-2.5-0.1-3.7c0-1.5,0-2.9,0-4.4c0-2.1,0-4.2,0-6.3c0-1.9,0.1-3.7,0.1-5.6
				c0-2.7,0-5.4,0-8.1c0-1.4,0.6-2.6,1.7-3.5c0.4-0.3,0.8-0.7,1.2-1c3.8-3,7.5-6,11.3-9c0.2-0.2,0.7-0.2,0.8-0.1
				c0.2,0.1,0.2,0.6,0.2,0.8c0,0.2-0.2,0.4-0.4,0.6c-1,0.9-1.9,1.8-2.9,2.7c-2.9,2.3-5.8,4.6-8.7,6.8c-1.1,0.8-1.7,1.9-1.7,3.3
				c0,2.9,0,5.8,0,8.7c0,8.8-0.1,17.6,0.8,26.4c0.8,7.5,1.4,15.1,2.1,22.6c0.1,0.8,0.2,1.5,0.2,2.4c0.3-0.1,0.5-0.2,0.7-0.3
				c3.7-2,7.6-3.5,11.7-4.6c0.7-0.2,1.4-0.3,2.2-0.3c0.9,0,1.3,0.8,0.7,1.5c-0.3,0.4-0.7,0.8-1.1,1.1c-2,1.4-4,2.7-6,4
				c-1.8,1.1-3.6,2-5.4,3.1c-0.7,0.4-0.7,0.7,0.1,1c1.1,0.5,2.3,0.9,3.5,1.3c0.3,0.1,0.6,0.2,0.8,0.4c0.1,0.1,0.3,0.4,0.2,0.6
				c-0.1,0.2-0.3,0.3-0.5,0.3c-0.3,0-0.5-0.1-0.8-0.2c-0.9-0.3-1.7-0.7-2.6-1c-0.5-0.2-1-0.4-1.5-0.7c-1-0.6-1.1-1.5-0.2-2.2
				c0.6-0.5,1.3-0.9,2-1.3c3.3-1.8,6.6-3.7,9.5-6c0.2-0.2,0.4-0.3,0.6-0.5c0,0-0.1-0.1-0.1-0.1c-0.5,0.1-1,0.2-1.5,0.4
				c-3.8,1.1-7.5,2.5-11.1,4.2c-1,0.5-1,0.5-0.9,1.6c0.3,4.3,0.7,8.6,1,12.9c0.1,0.8,0.3,1.6,0.9,2.1c0.3,0.3,0.6,0.6,0.8,0.9
				c2.9,3.6,5.8,7.2,8.6,10.9c3.3,4.5,6.5,9.2,9.7,13.8c0.2,0.3,0.3,0.6,0.5,0.8c-0.1,0-0.2,0.1-0.2,0.1c-6.8-8.6-13-17.7-20-26.2
				c-0.1,0.3-0.1,0.5-0.1,0.7c0.4,5.2,0.7,10.5,1.1,15.7c0.5,6.7,1,13.4,0.9,20.1c0,3.8-0.2,7.7-0.2,11.5c0,1.8,0.1,3.6,0.2,5.4
				c0,0.6,0.2,0.9,0.6,1.1c0.6,0.3,1.3,0.4,1.9,0.7c1.2,0.5,2.4,0.9,3.6,0.8c3.2-0.1,6.3-0.2,9.5-0.3c2.3-0.1,4.6-0.3,6.8-0.6
				c1.9-0.3,3.7-0.8,5.6-1.1c4-0.7,7.8-2.2,11.3-4.3c1.3-0.8,1.4-1.1,0.9-2.5c-0.6-1.7-1.2-3.5-2-5.1c-1.6-3.1-2.5-6.4-3.2-9.8
				c-1.5-7.5-3-15.1-4.4-22.6c-1.4-7.1-2.6-14.2-3.9-21.4c-0.2-1.2-0.3-2.4-0.4-3.7C369.6,382.5,367.2,382.5,364.8,382.9
				 M317.3,196.5c0.1,0,0.2,0,0.2,0c0,0.2,0.1,0.4,0.1,0.7c-0.1,2.5,0,5-0.2,7.5c-0.3,3.4-0.7,6.7-1.1,10.1
				c-1.4,11.9-3.2,23.7-5.2,35.4c-1.2,7.2-2.6,14.5-3.8,21.7c-0.8,4.6-1.4,9.1-1.5,13.7c0,3.1,0.2,6.2,0.4,9.4
				c0,0.2,0.2,0.5,0.4,0.6c0.7,0.3,1.3,0.5,2,0.7c4.5,1,9.1,1.5,13.7,1.5c4.1,0,8.2-0.1,12.3-0.3c6.4-0.3,12.7-0.6,19-1.5
				c4.7-0.7,9.4-1.7,14-3c0.6-0.2,0.8-0.4,0.8-1c-0.3-4.3-0.6-8.6-0.9-12.9c-0.4-5.7-1-11.3-1.2-17c-0.2-6-0.1-11.9-0.1-17.9
				c0-7.4-0.1-14.9,0-22.3c0-1.7,0.1-3.5,0.6-5.1c1.1-3.9,2.6-7.7,3.9-11.5c0.1-0.2,0.1-0.4,0.2-0.5c0.1-0.1,0.3-0.2,0.4-0.3
				c0.1,0.2,0.3,0.3,0.3,0.5c0,0.3,0,0.7-0.1,1c-0.5,3.7-1.7,7.3-2.9,10.8c-0.2,0.7-0.3,1.4-0.5,2.2c4.8-2.1,9.1-4.8,13.5-7.2
				c-0.1-0.2-0.1-0.2-0.1-0.3c-1.3-2.6-2.7-5.2-3.9-7.8c-1.7-3.5-3.3-7.1-5.4-10.4c-1.6-2.4-3.6-4.5-6.3-5.7
				c-3.9-1.8-7.9-1.7-11.9-0.1c-0.2,0.1-0.4,0.5-0.5,0.7c-0.3,1.2-0.4,2.5-0.7,3.7c-0.3,1.4-1.1,2.5-2.2,3.4
				c-3.2,2.3-9.1,4-14.1,0.7c-2.5-1.6-3.7-3.8-3.3-6.7c0.1-1.2,0.3-2.4,0.5-3.7c0-0.2,0-0.6-0.2-0.8c-2.2-2.3-4.5-4.5-7.2-6.1
				c-2.5-1.5-4.9-1.4-7.1,0.5c-1.8,1.5-3.4,3.2-5,4.9c-5.6,6.1-10.6,12.6-14.2,20.1c-0.3,0.6-0.5,1.1-0.8,1.7
				c1.7,1.1,14.7,5.1,16.3,5c-1.3-6.4-2.5-12.8-3.8-19.1c0.1,0,0.2-0.1,0.3-0.1c1.4,2.4,1.9,5.1,2.4,7.7c0.5,2.7,1,5.3,1.5,8
				C316.2,203.8,316.7,200.1,317.3,196.5 M385.5,130.5c-0.1,0.5-0.2,1.2-0.5,1.9c-0.4,1-1.1,1.4-2.1,1c-0.6-0.2-1.3-0.6-1.9-0.9
				c-0.4-0.2-0.7-0.4-1-0.5c-0.9,4.4-1.7,8.7-2.5,13.1c0.1,0,0.2-0.1,0.3-0.1c1.2-0.8,2.5-1.2,4-0.9c0.1,0,0.3,0,0.4,0
				c1.9-0.3,3.8-0.5,5.7-0.9c3.8-0.7,7.1-2.4,9.7-5.3c0.1-0.2,0.3-0.3,0.5-0.6c-0.4,0-0.6,0-0.8,0c-0.6,0-1-0.2-1.2-0.8
				c-0.1-0.6,0.2-0.9,0.7-1.1c0.7-0.4,0.9-0.9,1-1.6c0-1.1-0.3-2.1-0.8-3c-0.8-1.5-1.8-2.8-3-4c-0.3-0.3-0.7-0.7-1-1
				c-0.3-0.4-0.5-0.9-0.3-1.4c0.2-0.5,0.7-0.6,1.2-0.7c0.3,0,0.6,0,0.9,0c1.5-0.1,3-0.2,4.5-0.3l0-0.2c-0.2-0.1-0.5-0.3-0.7-0.4
				c-3.6-1.8-6.8-4.3-9.2-7.6c-1.5-2.1-2.8-4.3-4.1-6.5c-1.5-2.6-2.9-5.2-4.4-7.8c-1.9-3.2-4.7-5.3-8.4-6.1
				c-1.5-0.3-3.1-0.5-4.6-0.6c-4.6-0.2-9,0.7-13.3,2.4c-0.4,0.2-0.9,0.4-1.3,0.4c-0.3,0-0.8-0.2-1-0.5c-0.1-0.2,0.1-0.7,0.2-1
				c0.1-0.2,0.3-0.3,0.5-0.5c1.9-1.6,3.3-3.6,4.6-5.7c0.1-0.1,0.1-0.3,0.2-0.5c-0.1,0-0.1-0.1-0.2-0.1c-0.1,0-0.3,0-0.4,0
				c-2.6,0.4-5.1,1.1-7.5,2.2c-2.8,1.2-5.3,2.8-7,5.5c-0.4,0.7-1.1,0.6-1.6-0.1c-0.4-0.7-0.8-1.5-1.3-2.1c-2.5-3-5.7-5.1-9.5-6.2
				c-0.3-0.1-0.6-0.1-1.1-0.2c0.2,0.4,0.4,0.7,0.6,1c0.9,1.7,1.9,3.4,2.7,5.2c0.4,0.9,0.6,2,0.8,3c0.1,0.5,0,1-0.5,1.2
				c-0.5,0.3-0.9,0-1.2-0.4c-0.8-1-1.9-1.6-3.1-2c-4.9-1.5-9.4-0.6-13.7,2c-0.2,0.1-0.4,0.3-0.7,0.6c0.9,0.1,1.7,0.1,2.5,0.2
				c2,0.2,4,0.4,5.9,1.2c0.6,0.2,1,0.6,0.9,1.3c-0.1,0.7-0.7,0.7-1.2,0.7c-2.1,0.2-4.2,0.7-6.1,1.5c-3.3,1.4-5.5,3.7-6.5,7.1
				c-0.2,0.6-0.4,1.2-0.5,1.9c-0.1,0.3-0.1,0.6-0.1,1c0.3,0,0.6,0,0.8-0.1c2-0.5,4.1-1.1,6.1-1.6c0.3-0.1,0.5-0.3,0.7-0.5
				c1.2-1.1,2.3-2.3,3.5-3.4c0.2-0.2,0.5-0.4,0.7-0.5c0.3,0,0.7,0,0.9,0.2c0.2,0.2,0.1,0.6,0,0.9c-0.2,0.3-0.5,0.6-0.7,0.8
				c-2.7,2.5-5.1,5.2-6.6,8.7c-2,4.9-2.1,9.8,0,14.7c0.1,0.3,0.3,0.5,0.4,0.8c0.1,0,0.2,0,0.2-0.1c3.4-2.4,7-1.6,9,2
				c0.3,0.5,0.6,0.5,0.9,0.2c0.7-0.7,1.4-1.4,1.9-2.3c0.9-1.4,1.3-2.9,1.6-4.6c0.1-0.7,0.6-1.2,1.1-0.9c0.3,0.1,0.6,0.5,0.8,0.8
				c0.3,0.4,0.4,0.9,0.6,1.5c0.4-0.3,0.7-0.5,0.9-0.7c3-2.8,3.8-7.8,1.8-11.4c-0.7-1.3-0.1-2.5,1.3-2.8c0.1,0,0.2,0,0.2-0.1
				c1.6-0.7,3.3-0.7,5-0.4c2.8,0.5,5.4,1.7,7.7,3.3c2.5,1.8,5,3.6,7.4,5.6c4.4,3.5,9.2,6,14.7,7.1c1.2,0.2,2.5,0.4,3.9,0.6
				c0-0.9,0-1.6,0-2.4c-0.1-2.9-0.9-5.5-3.3-7.4c-0.8-0.7-1.7-1.3-2.5-2c-0.2-0.1-0.3-0.3-0.5-0.4c0-0.1,0-0.1,0.1-0.2
				c0.3,0,0.6,0,0.9,0c1.3,0.2,2.5,0.7,3.5,1.6c1.4,1.2,2.2,2.7,3.1,4.2c1.8,3,4.3,5.2,7.4,6.8c0.2,0.1,0.5,0.2,0.8,0.3
				c0.5-2.1,0.4-4-0.8-5.7c-0.8-1.1-1.7-2.3-2.5-3.4c-0.1-0.2-0.2-0.4-0.4-0.6c0,0,0.1-0.1,0.1-0.1c0.2,0.1,0.5,0.2,0.7,0.4
				c0.7,0.5,1.4,1,2.1,1.6c1.5,1.1,2.3,2.6,2.6,4.5c0,0.3,0.3,0.6,0.5,0.7c0.6,0.4,1.3,0.8,1.9,1.3c0.5,0.4,0.9,0.9,1.4,1.4
				c0,0.1-0.1,0.1-0.1,0.2c-0.3,0-0.6,0.1-0.8,0C387.3,131.4,386.4,130.9,385.5,130.5 M302.4,434.7c0.9-0.1,1.6-0.2,2.4-0.4
				c3.8-0.8,7.3-2.2,10.9-3.7c4-1.7,8-3.4,12-5.1c0.7-0.3,1.4-0.5,2.1-0.6c0.8-0.1,1.4,0.3,1.7,1c0.4,1.2,0.4,2.3-0.1,3.5
				c-0.1,0.2-0.3,0.4-0.5,0.5c-1.2,0.5-2.3,1-3.5,1.5c-8.1,3.5-16.3,6.7-24.8,9.4c-0.6,0.2-0.9,0.5-0.9,1.1c0,1.1-0.1,2.3-0.2,3.4
				c-0.1,2.8-0.4,5.6-1.6,8.1c-0.3,0.6-0.1,1.1,0.7,1.5c0.1-0.1,0.2-0.2,0.3-0.3c1.2-1.5,2.7-2.7,4.5-3.7c4.4-2.4,9.2-3.1,14.1-2.9
				c5.9,0.2,11.2,2.2,15.8,6c0.2,0.1,0.4,0.3,0.6,0.3c1,0,1.9,0,2.9,0c0.4,0,0.6-0.2,0.5-0.6c-0.2-0.9-0.2-1.8-0.5-2.7
				c-0.5-1.6-0.7-3.2-0.7-4.9c0-1.4,0-2.8-0.1-4.3c-0.3-6.1-0.7-12.1-0.8-18.2c-0.2-8.9-0.2-17.8-0.3-26.7c0-0.3,0-0.7,0-1
				c-0.8-3.4-0.8-6.8-1-10.2c-0.1-1.2-0.1-2.5-0.2-3.8c-0.4,0.4-0.7,0.9-1.1,1.2c-2.2,2.2-4.9,3.8-7.6,5.1c-1.1,0.5-2.3,0.9-3.5,1.2
				c-2.5,0.6-4.8,0.1-6.7-1.6c-0.9-0.8-1.7-1.6-2.5-2.4c-2.4-2.3-4.9-4.6-7.3-6.9c-0.1-0.1-0.3-0.2-0.4-0.3c0,0.3,0.2,0.4,0.3,0.6
				c1,1.1,1.9,2.1,2.9,3.2c1.7,2,3.4,4.1,5.1,6.1c0.7,0.8,1.1,1.8,1.3,2.9c0.1,0.6,0.3,1.2,0.6,1.7c1.9,2.8,4.3,3.7,7.3,2.6
				c1.1-0.4,2.3-0.8,3.4-1.3c0.3-0.1,0.5-0.1,0.8-0.2c0,0.1,0.1,0.1,0.1,0.2c-0.2,0.2-0.3,0.4-0.5,0.5c-1.5,1-3,1.7-4.7,2
				c-3.3,0.7-7.1-1.7-7.9-5c-0.3-1.3-0.8-2.3-1.7-3.3c-2.5-2.9-4.9-5.7-7.4-8.6c-0.2-0.2-0.4-0.4-0.7-0.7c-1.3,16-1.3,31.8-2.2,47.8
				c1.4-0.5,2.8-0.8,4-1.3c3.8-1.8,7.6-3.6,11.4-5.5c2.1-1,4.1-2.1,6.2-3.1c0.2-0.1,0.4-0.1,0.6-0.2c0,0.1,0.1,0.1,0.1,0.2
				c-0.2,0.2-0.5,0.4-0.7,0.5c-2.8,1.6-5.6,3.3-8.4,4.8c-4.1,2.2-8.2,4.5-12.9,5.5c-0.2,0-0.4,0.4-0.5,0.6c-0.2,1.5-0.3,3-0.5,4.5
				C302.5,433.5,302.5,434,302.4,434.7 M325,136.8c0,0.9-0.1,1.8,0,2.6c0.9,5.9,1.8,11.8,2.7,17.8c0.9,5.5,3,10.3,7.2,14.2
				c1.9,1.7,3.9,3.2,6.3,4.2c2.3,0.9,4.6,2,7.3,1.6c1.6-0.2,3.2,0,4.8-0.3c5-1,8.9-3.8,12.1-7.6c2.3-2.8,4-6,5.3-9.4
				c2.4-6.2,4.4-12.5,5.9-18.9c0.7-2.9,1-5.8,1.5-8.7c0.2-1.1,0.1-1.9-0.9-2.5c-0.2-0.1-0.4-0.4-0.6-0.6c-0.3-0.3-0.6-0.6-0.9-1
				c0,1.1,0.1,2.1,0,3.1c-0.1,1.5-0.6,1.9-2,1.7c-4.2-0.4-8.1-1.5-11.9-3.3c-3.4-1.6-6.4-3.9-9.3-6.3c-2.5-2-4.9-4-7.7-5.5
				c-2.7-1.5-5.5-2.4-8.7-2c-0.9,0.1-1.1,0.6-0.7,1.4c0.3,0.6,0.7,1.3,0.8,2c0.1,1.6,0.3,3.2,0.1,4.8c-0.3,2.6-1.5,4.8-3.5,6.6
				c-1.2,1-1.9,1.1-3.1,0.3C328.6,133.3,327.6,135.7,325,136.8 M346.8,453.1c0.1,0.7,0.1,1.3,0.2,1.9c0.3,2.5,0.5,5,1,7.4
				c1.1,4.7,4.7,7.3,9.5,7.1c1.4,0,2.8-0.2,4.3-0.3c3.3-0.2,6.5-0.5,9.7,0.4c4.8,1.2,9.7,2,14.6,2.6c4.4,0.6,8.8,1.1,13.3,1
				c2.9,0,5.7-0.5,8.4-1.6c1.3-0.6,1.9-1.5,1.7-2.9c-0.4-2.4-0.8-4.8-1.3-7.2c-0.6-2.9-1.7-5.6-3.3-8.2c-2.1-3.2-4.8-5.3-8.8-5.6
				c-3.7-0.2-7.5,0-11.2,0.3c-0.3,0-0.5,0.2-0.8,0.3c-1.4,0.7-2.9,1.4-4.3,2c-2.7,1.1-5.5,1.5-8.3,2.1c-6.1,1.4-12.3,1.6-18.5,1.8
				C350.8,454.4,348.8,454.1,346.8,453.1 M315.2,472.5c1.2-0.1,2.4-0.1,3.6-0.2c4.5-0.3,9-0.5,13.5-0.9c1.5-0.1,3-0.4,4.3-1
				c1.9-0.8,3.3-2.5,2.6-5c-0.3-1.1-0.5-2.1-0.9-3.2c-1.4-3.8-3.6-7-7.2-9c-7.7-4.3-15.5-4.6-23.6-1.3c-4,1.6-6.7,4.6-7.9,8.7
				c-0.9,3.2-1.6,6.4-2.4,9.6c-0.3,1.1,0.2,1.7,1.3,1.9c0.9,0.2,1.9,0.3,2.9,0.4C306,473,310.6,472.7,315.2,472.5 M300.6,208.3
				c-0.1,0.3-0.1,0.5-0.2,0.7c-1.5,6.4-2.9,12.7-4.6,19c-3,11.2-5.7,22.5-9.6,33.5c-0.1,0.4-0.2,1-0.1,1.4c0.5,1.6,2,2.3,3.4,3.1
				c-0.2-2.5-0.2-2.5,0.8-4.9c1-2.4,2.4-4.6,4-6.7c2.3-3,4.8-5.9,7.8-8.2c0.6-0.5,1.4-0.8,2.2-1.1c0.4-0.1,0.6-0.3,0.7-0.7
				c0.8-2.4,1.6-4.7,2.5-7.1c2.1-5.7,4.2-11.3,6.2-17c0.3-0.8,0.6-1.6,0.7-2.4c0.3-1.6,0.4-3.2,0.7-4.7c0.1-0.4,0-0.6-0.5-0.7
				c-4.5-1-8.9-2.4-13.2-4C301.1,208.5,300.8,208.4,300.6,208.3 M368,248.8c0,0.4,0,0.7,0,0.9c0,2.6,0,5.2,0,7.8
				c0.1,3.2,0.2,6.5,0.3,9.7c0,0.4,0,0.7,0.5,0.7c2.1,0.1,4.2,0.1,6.3-0.5c2.4-0.7,4.4-1.9,6-3.8c0.3-0.3,0.5-0.8,0.4-1.2
				c-0.2-2-0.6-4-0.7-6c-0.7-6.9-1.3-13.8-1.9-20.7c-0.5-5.6-0.9-11.2-1.3-16.8c-0.1-0.9-0.2-1.8-0.3-2.7c-0.3,0.1-0.4,0.2-0.6,0.3
				c-2.8,1.4-5.7,2.8-8.5,4.3c-0.2,0.1-0.3,0.4-0.3,0.5c-0.1,0.8-0.1,1.6-0.1,2.4c0,7.8,0.1,15.6,0.1,23.3c0,0.4,0.1,0.6,0.6,0.6
				c1.9,0.1,3.5,0.7,5.1,1.7c2.6,1.8,4.6,4.1,6,6.9c0.1,0.2,0.1,0.4,0.2,0.6c0,0-0.1,0.1-0.1,0.1c-0.2-0.1-0.4-0.3-0.6-0.4
				c-1.1-1.2-2.3-2.3-3.4-3.5c-1.4-1.4-2.9-2.8-4.8-3.5C370,249.2,369,249.1,368,248.8 M335.6,174.2c0,0.3,0,0.4,0,0.5
				c0.3,2.3,0.4,4.7,0.1,7c-0.3,2.3-0.6,4.6-0.8,6.9c-0.4,3.3,0.6,5.1,3.6,6.5c3,1.4,6,1,9-0.2c2.2-0.9,3.6-2.4,3.9-4.8
				c0.4-3.1,0.9-6.2,1.4-9.3c0.1-0.7,0.2-1.3,0.3-2.1c-3.2,0.4-6.2,0.1-9.1-0.6C341,177.3,338.2,176.1,335.6,174.2 M298,473.8
				c-0.3,0.9,0,2.8,0.5,4.1c0.4,1,1.1,1.6,2.2,1.8c0.3,0,0.6,0.1,0.9,0.1c3.2,0,6.4,0.1,9.6-0.1c6.3-0.3,12.6-0.7,18.9-1.1
				c2.6-0.2,5.1-0.4,7.7-0.5c1.8-0.1,2.6-1.1,3-2.7c0.1-0.3,0.1-0.5,0.2-0.8c0.2-1.6-0.2-3.1-1-4.6c-1.7,2.3-4.1,2.8-6.6,3.1
				c-2,0.3-4,0.4-6,0.6c-4.5,0.3-9,0.5-13.5,0.7c-4,0.2-8.1,0.4-12.1-0.1C300.4,474.1,299.2,474,298,473.8 M348.9,468
				c-0.4,1-0.4,2-0.3,3c0.2,2.3,1,3.4,3.2,4c0.6,0.2,1.2,0.2,1.8,0.2c2.8,0,5.6-0.1,8.3,0c2.5,0,5.1,0.2,7.6,0.3
				c3,0.1,6,0.1,8.9,0.4c4.6,0.4,9.1,1.1,13.7,1.6c4.2,0.5,8.4,0.8,12.6,0.6c1-0.1,2.1-0.3,3.1-0.6c0.5-0.2,1.1-0.7,1.3-1.2
				c0.5-1,0.3-2.2,0-3.3c-0.5,0.2-1,0.5-1.5,0.6c-3.2,1.2-6.5,1.6-9.9,1.5c-8.5-0.3-16.8-1.4-25.1-3.3c-3.3-0.8-6.5-1-9.9-0.8
				c-2.2,0.1-4.3,0.3-6.5,0.3c-1.9,0-3.7-0.6-5.4-1.6C350.3,469.1,349.7,468.5,348.9,468 M291.7,266.7c0.6-0.5,1-0.9,1.5-1.3
				c0.4-0.3,0.5-0.5,0.4-1c-0.2-1.4-0.3-2.7,0.4-4c1.2-2.1,2.4-4.2,3.6-6.3c0.2-0.3,0.5-0.5,0.8-0.7c0,0.4,0,0.7-0.1,1.1
				c-1,2.1-2,4.2-3,6.2c-0.5,1-0.6,2-0.4,3c0.3,1.9,0.5,3.7,0.8,5.6c0.1,1.1,0.4,2.2,1.1,3.1c0.5,0.6,0.8,0.6,1-0.1
				c0.4-1.2,0.9-2.4,0.3-3.7c-0.2-0.3-0.2-0.7-0.3-1.1c-0.5-2.6-0.7-5.3-0.3-7.9c0.1-0.8,0.4-1.7,0.9-2.5c1.1-1.7,2.7-3,4.3-4.2
				c0.2-0.1,0.5-0.1,0.8-0.2c-0.1,0.3-0.1,0.6-0.3,0.8c-0.9,1.1-1.9,2.1-2.8,3.1c-0.9,1-1.6,2.1-1.6,3.5c0,2.1,0.1,4.2,0.3,6.3
				c0.1,1,0.6,1.9,0.9,2.8c0.1,0.2,0.5,0.4,0.6,0.3c0.3-0.2,0.7-0.3,0.5-0.8c-0.1-0.5-0.2-1-0.1-1.5c0.1-0.9,0.3-1.9,0.6-2.8
				c0.2-0.7,0.3-1.3,0.1-2c-0.2-1.1-0.2-2.1,0.8-2.9c0.9-0.6,1.5-1.4,2-2.3c0.3-0.5,0.7-0.8,1.4-0.6c0.4,0.1,0.9,0.3,1.3,0.5
				c0.2,0.1,0.3,0.4,0.5,0.7c-0.3,0.1-0.5,0.3-0.8,0.3c-1.3,0-1.3-0.1-1.8,1.1c-0.2,0.3-0.3,0.7-0.5,1c-1,2.3-1.9,4.7-2.2,7.2
				c-0.1,1,0.2,1.5,1.3,1.7c0.3-0.9,0.6-1.9,0.8-2.8c0.3-1.5,1.1-2.5,2.3-3.3c0.2-0.1,0.4-0.4,0.4-0.6c0.7-4,1.5-8,2.2-12
				c0-0.2,0-0.6-0.2-0.7c-1.2-1-2.4-1.9-3.6-2.8c-0.5-0.4-1.2-0.3-1.7,0c-0.6,0.4-1.2,0.8-1.7,1.3c-1.9,1.9-3.7,3.8-5.5,5.8
				c-2.5,2.9-4.4,6-5.6,9.7C290.6,264.8,291,265.7,291.7,266.7 M324.1,144.3c-1.5,0.9-2.4,2-2.7,3.6c0,0.2,0,0.5-0.1,0.7
				c-0.2,0.3-0.5,0.6-0.8,0.6c-0.3,0-0.6-0.4-0.7-0.7c-0.1-0.2,0-0.5,0-0.8c0.4-2.2,1.6-3.8,3.6-4.6c0.4-0.2,0.6-0.4,0.5-0.9
				c-0.1-1.2-0.2-2.3-0.3-3.5c-0.1-1.9-1.1-3.3-2.3-4.6c-0.2-0.2-0.5-0.4-0.8-0.5c-2.4-0.9-4.5,0-5.6,2.3c-0.3,0.6-0.5,1.3-0.6,1.9
				c-0.3,1.8-0.1,3.6,0.4,5.4c0.8,2.8,2,5.4,4.2,7.3c1.2,1,2.5,1.6,4.1,1.6c1.4,0,2-0.6,1.8-2c0,0,0,0,0-0.1
				C324.6,148.4,324.4,146.4,324.1,144.3 M301.9,439.9c0.4-0.1,0.7-0.2,0.9-0.3c5.5-2,11.1-4,16.6-6.1c3.7-1.4,7.2-3.1,10.8-4.7
				c0.2-0.1,0.5-0.4,0.5-0.6c0.1-0.5,0.1-1,0-1.5c-0.1-0.8-0.5-1-1.3-0.8c-0.8,0.2-1.6,0.5-2.3,0.8c-4.4,1.8-8.8,3.7-13.2,5.5
				c-3.3,1.4-6.6,2.6-10.2,3.2c-1.6,0.3-1.6,0.2-1.7,1.8C302,438.1,302,439,301.9,439.9 M308.5,314.6c0.1,0,0.1,0,0.2,0.1
				c3.9-4.9,7.7-9.9,11.3-15c-3.8-0.5-7.4-0.9-11.1-1.4C308.7,303.7,308.6,309.1,308.5,314.6 M372.5,160.3c0.1,0,0.2,0,0.2,0
				c0.5-0.1,0.9-0.2,1.4-0.3c4.8-1.4,7.6-4.6,8.8-9.4c0.3-1.2,0.2-2.5-0.3-3.7c-0.5-1.2-1.4-1.7-2.6-1.3c-0.8,0.2-1.5,0.7-2.2,1.2
				c-0.8,0.7-1.4,1.5-1.7,2.6c-0.3,1.3-0.8,2.5-1.2,3.8c1.2,0.3,2,0.9,2.4,2c0.3,0.7,0.2,1.3-0.3,1.5c-0.5,0.2-0.8-0.1-1.1-0.9
				c-0.3-0.6-0.6-1.2-1.3-1.5C373.8,156.5,373.2,158.4,372.5,160.3 M309.8,248.2c1.2-7.8,2.4-15.5,3.6-23.2c-0.1,0-0.1,0-0.2,0
				c-0.1,0.2-0.1,0.3-0.2,0.5c-2.1,6.2-4.2,12.4-6.3,18.6c-0.5,1.4-0.5,1.4,0.7,2.3C308.2,246.9,308.9,247.5,309.8,248.2
				 M359.1,296.9c1.8,3.6,3.5,7.1,5.3,10.7v-11.9C362.6,296.2,360.9,296.6,359.1,296.9 M293.9,266.6l-0.1,0
				c-0.2,0.3-0.4,0.6-0.6,0.9c0.3,0.1,0.6,0.2,0.9,0.3C294,267.3,293.9,266.9,293.9,266.6"/>
			<path class="st2" d="M364.8,382.9c2.4-0.4,4.9-0.4,7.1-1.8c0.2,1.3,0.2,2.5,0.4,3.7c1.3,7.1,2.6,14.3,3.9,21.4
				c1.4,7.5,2.9,15.1,4.4,22.6c0.7,3.4,1.5,6.7,3.2,9.8c0.9,1.6,1.4,3.4,2,5.1c0.5,1.5,0.4,1.7-0.9,2.5c-3.5,2.1-7.3,3.6-11.3,4.3
				c-1.9,0.3-3.7,0.9-5.6,1.1c-2.3,0.3-4.5,0.5-6.8,0.6c-3.2,0.2-6.3,0.3-9.5,0.3c-1.3,0-2.5-0.3-3.6-0.8c-0.6-0.3-1.3-0.4-1.9-0.7
				c-0.5-0.2-0.6-0.6-0.6-1.1c0-1.8-0.2-3.6-0.2-5.4c0-3.8,0.2-7.7,0.2-11.5c0-6.7-0.4-13.4-0.9-20.1c-0.4-5.2-0.7-10.5-1.1-15.7
				c0-0.2,0-0.5,0.1-0.7c7,8.5,13.1,17.6,20,26.2c0.1,0,0.2-0.1,0.2-0.1c-0.2-0.3-0.3-0.6-0.5-0.8c-3.2-4.6-6.4-9.3-9.7-13.8
				c-2.7-3.7-5.7-7.3-8.6-10.9c-0.3-0.3-0.5-0.6-0.8-0.9c-0.7-0.5-0.9-1.3-0.9-2.1c-0.3-4.3-0.7-8.6-1-12.9
				c-0.1-1.1-0.1-1.1,0.9-1.6c3.6-1.7,7.3-3.1,11.1-4.2c0.5-0.1,1-0.2,1.5-0.4c0,0,0.1,0.1,0.1,0.1c-0.2,0.2-0.4,0.4-0.6,0.5
				c-2.9,2.3-6.2,4.2-9.5,6c-0.7,0.4-1.4,0.8-2,1.3c-0.9,0.7-0.8,1.6,0.2,2.2c0.5,0.3,1,0.5,1.5,0.7c0.9,0.4,1.7,0.7,2.6,1
				c0.3,0.1,0.5,0.2,0.8,0.2c0.2,0,0.5-0.2,0.5-0.3c0.1-0.2-0.1-0.5-0.2-0.6c-0.2-0.2-0.5-0.3-0.8-0.4c-1.2-0.4-2.4-0.8-3.5-1.3
				c-0.7-0.3-0.7-0.6-0.1-1c1.8-1,3.6-2,5.4-3.1c2-1.3,4-2.7,6-4c0.4-0.3,0.8-0.7,1.1-1.1c0.5-0.7,0.2-1.5-0.7-1.5
				c-0.7,0-1.5,0.1-2.2,0.3c-4,1.1-7.9,2.6-11.7,4.6c-0.2,0.1-0.4,0.2-0.7,0.3c-0.1-0.8-0.2-1.6-0.2-2.4c-0.7-7.5-1.4-15.1-2.1-22.6
				c-0.9-8.8-0.8-17.6-0.8-26.4c0-2.9,0-5.8,0-8.7c0-1.4,0.6-2.4,1.7-3.3c2.9-2.3,5.8-4.5,8.7-6.8c1-0.8,2-1.8,2.9-2.7
				c0.2-0.2,0.4-0.4,0.4-0.6c0-0.3,0-0.7-0.2-0.8c-0.2-0.1-0.6-0.1-0.8,0.1c-3.8,3-7.5,6-11.3,9c-0.4,0.3-0.8,0.7-1.2,1
				c-1.1,0.9-1.7,2.1-1.7,3.5c0,2.7,0,5.4,0,8.1c0,1.9-0.1,3.7-0.1,5.6c0,2.1,0,4.2,0,6.3c0,1.5,0,2.9,0,4.4c0,1.2,0.1,2.5,0.1,3.7
				c0.3,6.2,0.3,12.5-0.1,18.7c-0.2,4-0.6,8.1-0.8,12.1c-0.1,1.8-0.7,3.3-1.9,4.6c-3.2,3.3-7,5.7-11.4,6.8c-2.3,0.6-4.3,0-6.1-1.5
				c-1.2-1.1-2.4-2.2-3.5-3.3c-2.4-2.2-4.8-4.5-7.2-6.7c-0.4-0.3-0.5-0.7-0.5-1.2c0.4-7.3,0.9-14.5,1.3-21.8c0.5-12,1-23.9,1.5-35.9
				c0-0.6,0.2-1,0.5-1.5c4.2-5.2,8.2-10.4,11.8-16c0.6-0.9,1.1-1.2,2.1-1.2c10.9,0,21.9-0.5,32.7-2c0.5-0.1,0.9-0.1,1.4-0.2
				c0.5-0.1,0.9,0,1.1,0.5c1.9,3.9,3.7,7.9,5.6,11.8c0.7,1.3,1,2.7,1,4.1c0.7,13.6,1.9,27.1,3.8,40.5c0.8,5.4,1.8,10.8,2.7,16.1
				c0.5,2.9,0.7,5.9,0.6,8.8c0,0.4-0.2,0.7-0.5,0.9c-1.3,0.8-2.8,1.1-4.4,1.3c-0.9,0.1-1.8,0.1-2.7,0.2c-0.5,0-1,0.2-1.2,0.8
				c-0.2,0.6,0.2,1,0.7,1.3c1.1,0.6,2.3,1.1,3.4,1.7c0.2,0.1,0.4-0.1,0.6-0.1c-0.1-0.2-0.2-0.4-0.4-0.5c-0.7-0.5-1.4-0.9-2.1-1.3
				C365.2,383.2,365,383.1,364.8,382.9"/>
			<path class="st3" d="M317.3,196.5c-0.6,3.6-1.1,7.2-1.5,10.9c-0.5-2.7-0.9-5.4-1.5-8c-0.5-2.7-1-5.4-2.4-7.7
				c-0.1,0-0.2,0.1-0.3,0.1c1.3,6.4,2.5,12.7,3.8,19.1c-1.6,0.1-14.7-3.9-16.3-5c0.3-0.6,0.5-1.1,0.8-1.7c3.6-7.5,8.6-14,14.2-20.1
				c1.6-1.7,3.3-3.3,5-4.9c2.2-1.9,4.6-2,7.1-0.5c2.7,1.6,5.1,3.8,7.2,6.1c0.2,0.2,0.2,0.5,0.2,0.8c-0.1,1.2-0.3,2.4-0.5,3.7
				c-0.3,2.9,0.9,5.1,3.3,6.7c5,3.2,10.9,1.6,14.1-0.7c1.2-0.8,1.9-2,2.2-3.4c0.3-1.2,0.4-2.5,0.7-3.7c0.1-0.3,0.2-0.6,0.5-0.7
				c4-1.5,7.9-1.7,11.9,0.1c2.7,1.2,4.7,3.3,6.3,5.7c2.1,3.3,3.7,6.8,5.4,10.4c1.2,2.6,2.6,5.2,3.9,7.8c0,0.1,0.1,0.2,0.1,0.3
				c-4.5,2.4-8.7,5.1-13.5,7.2c0.2-0.8,0.3-1.6,0.5-2.2c1.2-3.5,2.4-7.1,2.9-10.8c0.1-0.3,0.1-0.7,0.1-1c0-0.2-0.2-0.3-0.3-0.5
				c-0.2,0.1-0.3,0.2-0.4,0.3c-0.1,0.1-0.2,0.3-0.2,0.5c-1.3,3.8-2.7,7.6-3.9,11.5c-0.5,1.6-0.6,3.4-0.6,5.1c0,7.4,0,14.9,0,22.3
				c0,6-0.1,12,0.1,17.9c0.2,5.7,0.8,11.4,1.2,17c0.3,4.3,0.6,8.6,0.9,12.9c0,0.6-0.2,0.9-0.8,1c-4.6,1.3-9.2,2.3-14,3
				c-6.3,0.9-12.7,1.2-19,1.5c-4.1,0.2-8.2,0.3-12.3,0.3c-4.6,0-9.2-0.5-13.7-1.5c-0.7-0.2-1.4-0.4-2-0.7c-0.2-0.1-0.4-0.4-0.4-0.6
				c-0.2-3.1-0.4-6.2-0.4-9.4c0-4.6,0.7-9.2,1.5-13.7c1.2-7.3,2.5-14.5,3.8-21.7c2-11.8,3.8-23.6,5.2-35.4c0.4-3.4,0.8-6.7,1.1-10.1
				c0.2-2.5,0.2-5,0.2-7.5c0-0.2-0.1-0.4-0.1-0.7C317.4,196.5,317.4,196.5,317.3,196.5"/>
			<path class="st4" d="M385.5,130.5c0.9,0.4,1.8,0.9,2.7,1.3c0.2,0.1,0.5,0,0.8,0c0-0.1,0.1-0.1,0.1-0.2c-0.5-0.5-0.9-1-1.4-1.4
				c-0.6-0.5-1.3-0.8-1.9-1.3c-0.2-0.2-0.5-0.5-0.5-0.7c-0.3-1.8-1.2-3.3-2.6-4.5c-0.7-0.5-1.4-1.1-2.1-1.6
				c-0.2-0.2-0.5-0.2-0.7-0.4c0,0-0.1,0.1-0.1,0.1c0.1,0.2,0.2,0.4,0.4,0.6c0.8,1.1,1.7,2.2,2.5,3.4c1.2,1.7,1.3,3.6,0.8,5.7
				c-0.3-0.1-0.6-0.2-0.8-0.3c-3.1-1.6-5.6-3.8-7.4-6.8c-0.9-1.5-1.7-3-3.1-4.2c-1-0.9-2.2-1.4-3.5-1.6c-0.3,0-0.6,0-0.9,0
				c0,0.1,0,0.1-0.1,0.2c0.2,0.1,0.3,0.3,0.5,0.4c0.8,0.7,1.7,1.3,2.5,2c2.3,1.9,3.1,4.5,3.3,7.4c0,0.7,0,1.5,0,2.4
				c-1.4-0.2-2.6-0.4-3.9-0.6c-5.5-1.1-10.3-3.6-14.7-7.1c-2.4-1.9-4.9-3.8-7.4-5.6c-2.3-1.6-4.9-2.8-7.7-3.3
				c-1.7-0.3-3.3-0.3-5,0.4c-0.1,0-0.2,0.1-0.2,0.1c-1.4,0.3-2,1.5-1.3,2.8c2,3.6,1.2,8.6-1.8,11.4c-0.3,0.2-0.6,0.4-0.9,0.7
				c-0.2-0.6-0.4-1.1-0.6-1.5c-0.2-0.3-0.5-0.7-0.8-0.8c-0.5-0.2-1,0.2-1.1,0.9c-0.2,1.6-0.7,3.2-1.6,4.6c-0.5,0.8-1.2,1.5-1.9,2.3
				c-0.3,0.3-0.6,0.3-0.9-0.2c-2.1-3.7-5.6-4.4-9-2c0,0-0.1,0-0.2,0.1c-0.1-0.2-0.3-0.5-0.4-0.8c-2.1-4.9-2-9.8,0-14.7
				c1.4-3.5,3.8-6.2,6.6-8.7c0.3-0.2,0.6-0.5,0.7-0.8c0.1-0.2,0.1-0.7,0-0.9c-0.2-0.2-0.6-0.3-0.9-0.2c-0.3,0-0.5,0.3-0.7,0.5
				c-1.2,1.1-2.3,2.3-3.5,3.4c-0.2,0.2-0.4,0.4-0.7,0.5c-2,0.6-4.1,1.1-6.1,1.6c-0.2,0.1-0.5,0-0.8,0.1c0-0.4,0-0.7,0.1-1
				c0.2-0.6,0.3-1.3,0.5-1.9c1-3.4,3.2-5.8,6.5-7.1c2-0.8,4-1.3,6.1-1.5c0.5,0,1.1-0.1,1.2-0.7c0.1-0.7-0.3-1-0.9-1.3
				c-1.9-0.8-3.9-1-5.9-1.2c-0.8-0.1-1.5-0.1-2.5-0.2c0.3-0.3,0.5-0.4,0.7-0.6c4.3-2.6,8.8-3.5,13.7-2c1.2,0.4,2.3,1,3.1,2
				c0.3,0.4,0.7,0.7,1.2,0.4c0.5-0.2,0.6-0.7,0.5-1.2c-0.2-1-0.4-2.1-0.8-3c-0.8-1.8-1.8-3.5-2.7-5.2c-0.2-0.3-0.3-0.6-0.6-1
				c0.5,0.1,0.8,0.1,1.1,0.2c3.8,1.1,7,3.2,9.5,6.2c0.5,0.6,0.9,1.4,1.3,2.1c0.4,0.7,1.1,0.8,1.6,0.1c1.7-2.7,4.2-4.2,7-5.5
				c2.4-1.1,4.9-1.8,7.5-2.2c0.1,0,0.3,0,0.4,0c0,0,0.1,0,0.2,0.1c-0.1,0.2-0.1,0.3-0.2,0.5c-1.3,2.1-2.6,4.1-4.6,5.7
				c-0.2,0.1-0.4,0.3-0.5,0.5c-0.1,0.3-0.3,0.8-0.2,1c0.2,0.3,0.6,0.5,1,0.5c0.5,0,0.9-0.2,1.3-0.4c4.3-1.7,8.7-2.5,13.3-2.4
				c1.5,0.1,3.1,0.3,4.6,0.6c3.7,0.7,6.5,2.9,8.4,6.1c1.5,2.5,2.9,5.2,4.4,7.8c1.3,2.2,2.6,4.4,4.1,6.5c2.4,3.3,5.5,5.8,9.2,7.6
				c0.2,0.1,0.5,0.3,0.7,0.4l0,0.2c-1.5,0.1-3,0.2-4.5,0.3c-0.3,0-0.6,0-0.9,0c-0.5,0-1,0.1-1.2,0.7c-0.2,0.5,0,1,0.3,1.4
				c0.3,0.4,0.6,0.7,1,1c1.2,1.2,2.3,2.5,3,4c0.5,1,0.8,1.9,0.8,3c0,0.7-0.3,1.3-1,1.6c-0.4,0.2-0.8,0.6-0.7,1.1
				c0.2,0.6,0.6,0.8,1.2,0.8c0.2,0,0.5,0,0.8,0c-0.2,0.3-0.3,0.5-0.5,0.6c-2.6,2.9-5.9,4.5-9.7,5.3c-1.9,0.4-3.8,0.6-5.7,0.9
				c-0.1,0-0.3,0-0.4,0c-1.5-0.3-2.8,0.1-4,0.9c-0.1,0.1-0.2,0.1-0.3,0.1c0.8-4.4,1.7-8.7,2.5-13.1c0.3,0.1,0.6,0.4,1,0.5
				c0.6,0.3,1.2,0.6,1.9,0.9c1,0.3,1.8,0,2.1-1C385.2,131.7,385.3,131,385.5,130.5"/>
			<path class="st2" d="M302.4,434.7c0.1-0.7,0.1-1.2,0.2-1.7c0.2-1.5,0.3-3,0.5-4.5c0-0.2,0.3-0.6,0.5-0.6c4.6-1,8.7-3.3,12.9-5.5
				c2.8-1.5,5.6-3.2,8.4-4.8c0.3-0.2,0.5-0.4,0.7-0.5c0-0.1-0.1-0.1-0.1-0.2c-0.2,0.1-0.4,0.1-0.6,0.2c-2.1,1-4.1,2.1-6.2,3.1
				c-3.8,1.9-7.6,3.7-11.4,5.5c-1.2,0.6-2.6,0.9-4,1.3c0.9-16,0.9-31.8,2.2-47.8c0.3,0.3,0.5,0.5,0.7,0.7c2.5,2.9,4.9,5.7,7.4,8.6
				c0.8,1,1.4,2,1.7,3.3c0.8,3.3,4.6,5.7,7.9,5c1.7-0.4,3.3-1.1,4.7-2c0.2-0.1,0.3-0.3,0.5-0.5c0-0.1-0.1-0.1-0.1-0.2
				c-0.3,0.1-0.6,0.1-0.8,0.2c-1.1,0.4-2.3,0.9-3.4,1.3c-2.9,1-5.3,0.1-7.3-2.6c-0.3-0.5-0.5-1.1-0.6-1.7c-0.2-1.1-0.6-2.1-1.3-2.9
				c-1.7-2.1-3.4-4.1-5.1-6.1c-0.9-1.1-1.9-2.2-2.9-3.2c-0.1-0.2-0.3-0.3-0.3-0.6c0.1,0.1,0.3,0.2,0.4,0.3c2.4,2.3,4.9,4.6,7.3,6.9
				c0.8,0.8,1.6,1.7,2.5,2.4c2,1.7,4.3,2.2,6.7,1.6c1.2-0.3,2.4-0.7,3.5-1.2c2.8-1.3,5.4-2.9,7.6-5.1c0.4-0.4,0.7-0.8,1.1-1.2
				c0.1,1.3,0.2,2.6,0.2,3.8c0.2,3.4,0.3,6.9,1,10.2c0.1,0.3,0,0.6,0,1c0.1,8.9,0.1,17.8,0.3,26.7c0.1,6.1,0.5,12.1,0.8,18.2
				c0.1,1.4,0.1,2.8,0.1,4.3c0,1.7,0.2,3.3,0.7,4.9c0.3,0.9,0.3,1.8,0.5,2.7c0.1,0.4-0.1,0.6-0.5,0.6c-1,0-1.9,0-2.9,0
				c-0.2,0-0.5-0.1-0.6-0.3c-4.5-3.9-9.8-5.8-15.8-6c-4.9-0.2-9.7,0.6-14.1,2.9c-1.7,0.9-3.2,2.1-4.5,3.7c-0.1,0.1-0.2,0.2-0.3,0.3
				c-0.7-0.5-0.9-0.9-0.7-1.5c1.2-2.6,1.4-5.4,1.6-8.1c0.1-1.1,0.1-2.3,0.2-3.4c0-0.6,0.2-0.9,0.9-1.1c8.4-2.7,16.7-5.9,24.8-9.4
				c1.2-0.5,2.3-1,3.5-1.5c0.2-0.1,0.4-0.3,0.5-0.5c0.5-1.1,0.6-2.3,0.1-3.5c-0.3-0.8-0.9-1.2-1.7-1c-0.7,0.1-1.4,0.3-2.1,0.6
				c-4,1.7-8,3.4-12,5.1c-3.5,1.5-7.1,2.9-10.9,3.7C304,434.4,303.3,434.5,302.4,434.7"/>
			<path class="st5" d="M325,136.8c2.6-1.1,3.6-3.5,4.5-6c1.2,0.8,1.9,0.8,3.1-0.3c2-1.7,3.3-3.9,3.5-6.6c0.2-1.6,0-3.2-0.1-4.8
				c-0.1-0.7-0.5-1.4-0.8-2c-0.4-0.7-0.2-1.3,0.7-1.4c3.1-0.4,6,0.5,8.7,2c2.8,1.5,5.2,3.5,7.7,5.5c2.9,2.4,5.9,4.7,9.3,6.3
				c3.8,1.8,7.8,2.9,11.9,3.3c1.5,0.1,1.9-0.2,2-1.7c0.1-1,0-1.9,0-3.1c0.4,0.4,0.6,0.7,0.9,1c0.2,0.2,0.4,0.5,0.6,0.6
				c1,0.6,1.1,1.5,0.9,2.5c-0.5,2.9-0.8,5.9-1.5,8.7c-1.5,6.5-3.5,12.8-5.9,18.9c-1.3,3.4-3,6.6-5.3,9.4c-3.2,3.9-7.1,6.6-12.1,7.6
				c-1.5,0.3-3.2,0.1-4.8,0.3c-2.6,0.3-4.9-0.7-7.3-1.6c-2.4-0.9-4.4-2.5-6.3-4.2c-4.2-3.8-6.4-8.7-7.2-14.2
				c-0.9-5.9-1.8-11.8-2.7-17.8C324.9,138.6,325,137.7,325,136.8 M335,134.5c-1.1,0.1-1.9,0.2-2.7,0.3c-1.1,0.2-1.7,0.9-1.9,2
				c-0.1,0.6-0.1,1.1-0.2,1.7c-0.3,4.5,2.7,8.7,7,9.8c3.4,0.9,6.3-0.2,8.1-2.9c0.7-1.1,0.8-2.2,0.4-3.3c-0.3-0.8-0.7-1.6-1.1-2.4
				c-1.1-2.1-2.7-3.6-5.1-4.2C338,135,336.4,134.8,335,134.5 M365.1,140.8c-2,0-4,0.3-5.7,1.4c-1.4,0.9-2.5,2-2.7,3.7
				c-0.3,2.7,0.6,5.1,3.6,6.3c4.5,1.9,10-0.3,11.8-4.7c1.1-2.7,0.1-5-2.6-6.1C368.1,141,366.6,140.8,365.1,140.8 M349.9,167.1
				c1.5-0.2,2.9-0.3,4.4-0.6c1.9-0.3,3.7-0.8,5.3-2c0.8-0.6,1.3-1.4,1.5-2.3c0.1-0.5,0-0.9-0.5-1.1c-0.5-0.1-0.8,0.2-1,0.7
				c-0.1,0.4-0.3,0.8-0.6,1.1c-0.6,0.5-1.2,0.9-1.9,1.1c-3.5,1.3-7,1.7-10.7,1c-4.4-0.8-7.4-3.5-9.5-7.4c-0.2-0.3-0.3-0.7-0.5-1
				c-0.1-0.1-0.3-0.2-0.4-0.2c-0.1,0-0.3,0.2-0.3,0.3c0,0.4,0,0.7,0.1,1.1c0.9,2.7,2.5,4.9,4.8,6.5
				C343.4,166.4,346.5,167,349.9,167.1 M337.4,133.4c3.4,0,6.6,0.8,9.6,2.4c0.6,0.3,1.2,0.3,1.8-0.1c0.6-0.4,0.6-0.9,0.5-1.5
				c-0.1-1-0.6-1.6-1.4-2.1c-2.1-1.3-4.3-2.2-6.7-2.5c-1.5-0.2-3.1-0.1-4.5,0.6c-0.7,0.4-1.3,0.9-1.6,1.6c-0.3,0.9,0.1,1.6,1.1,1.6
				C336.6,133.4,337,133.4,337.4,133.4 M369.1,138.5C369.1,138.5,369.1,138.5,369.1,138.5c0.1,0,0.3,0,0.4,0c0.5-0.1,1-0.2,1.3-0.8
				c0.2-0.5-0.1-1-0.4-1.3c-0.3-0.3-0.6-0.6-0.9-0.8c-2.3-1.6-4.9-2.1-7.7-2.1c-1.2,0-2.4,0.2-3.5,0.9c-0.5,0.3-0.9,0.8-1.2,1.4
				c-0.3,0.8,0.1,1.4,0.9,1.5c0.8,0.1,1.7,0.2,2.5,0.3c1.4,0.1,2.9,0.2,4.3,0.4C366.3,138.1,367.7,138.3,369.1,138.5 M353.2,153.6
				c-0.1,0-0.2,0.1-0.2,0.1c0.1,0.6,0.1,1.1,0.2,1.7c0.2,1,0,1.3-1,1.5c-1.9,0.4-3.6,0.1-5.3-0.9c-0.6-0.4-0.9-0.9-1-1.6
				c0-0.3-0.2-0.5-0.3-0.8c-0.2,0.2-0.6,0.4-0.7,0.6c-0.1,0.4-0.2,0.9-0.1,1.2c0.3,0.6,0.7,1.3,1.2,1.8c1.2,1.1,2.8,1.4,4.4,1.5
				c1.1,0.1,2.2,0,3.1-0.6c0.8-0.4,1.5-1.1,1.4-2.1C354.8,154.9,354.1,154.2,353.2,153.6"/>
			<path class="st6" d="M346.8,453.1c2,1.1,4,1.4,6,1.3c6.2-0.2,12.4-0.4,18.5-1.8c2.8-0.6,5.7-1,8.3-2.1c1.5-0.6,2.9-1.4,4.3-2
				c0.3-0.1,0.5-0.3,0.8-0.3c3.7-0.3,7.4-0.6,11.2-0.3c3.9,0.2,6.7,2.4,8.8,5.6c1.6,2.5,2.7,5.3,3.3,8.2c0.5,2.4,0.9,4.8,1.3,7.2
				c0.2,1.4-0.3,2.3-1.7,2.9c-2.7,1.1-5.5,1.6-8.4,1.6c-4.5,0.1-8.9-0.5-13.3-1c-4.9-0.6-9.8-1.4-14.6-2.6c-3.2-0.8-6.5-0.6-9.7-0.4
				c-1.4,0.1-2.8,0.2-4.3,0.3c-4.8,0.1-8.4-2.4-9.5-7.1c-0.6-2.4-0.7-4.9-1-7.4C346.9,454.4,346.9,453.8,346.8,453.1"/>
			<path class="st6" d="M315.2,472.5c-4.6,0.2-9.2,0.5-13.8,0c-1-0.1-1.9-0.2-2.9-0.4c-1.1-0.2-1.5-0.8-1.3-1.9
				c0.8-3.2,1.5-6.4,2.4-9.6c1.2-4.2,3.9-7.1,7.9-8.7c8-3.2,15.9-3,23.6,1.3c3.6,2,5.8,5.2,7.2,9c0.4,1,0.6,2.1,0.9,3.2
				c0.7,2.5-0.8,4.2-2.6,5c-1.3,0.6-2.8,0.9-4.3,1c-4.5,0.4-9,0.6-13.5,0.9C317.6,472.4,316.4,472.4,315.2,472.5"/>
			<path class="st5" d="M300.6,208.3c0.3,0.1,0.5,0.1,0.7,0.2c4.3,1.6,8.7,2.9,13.2,4c0.4,0.1,0.5,0.3,0.5,0.7
				c-0.2,1.6-0.4,3.2-0.7,4.7c-0.1,0.8-0.4,1.6-0.7,2.4c-2.1,5.7-4.2,11.3-6.2,17c-0.9,2.3-1.7,4.7-2.5,7.1
				c-0.1,0.4-0.3,0.5-0.7,0.7c-0.8,0.3-1.5,0.6-2.2,1.1c-3,2.4-5.5,5.2-7.8,8.2c-1.6,2.1-3,4.3-4,6.7c-1,2.4-1,2.4-0.8,4.9
				c-1.5-0.8-2.9-1.5-3.4-3.1c-0.1-0.4,0-1,0.1-1.4c3.8-11,6.6-22.3,9.6-33.5c1.7-6.3,3.1-12.7,4.6-19
				C300.4,208.8,300.5,208.6,300.6,208.3"/>
			<path class="st5" d="M368,248.8c1.1,0.2,2,0.4,2.9,0.7c1.9,0.7,3.4,2.1,4.8,3.5c1.1,1.2,2.3,2.3,3.4,3.5c0.2,0.2,0.4,0.3,0.6,0.4
				c0,0,0.1-0.1,0.1-0.1c-0.1-0.2-0.1-0.4-0.2-0.6c-1.4-2.8-3.4-5.1-6-6.9c-1.5-1-3.2-1.7-5.1-1.7c-0.5,0-0.6-0.2-0.6-0.6
				c0-7.8-0.1-15.6-0.1-23.3c0-0.8,0-1.6,0.1-2.4c0-0.2,0.1-0.5,0.3-0.5c2.8-1.4,5.6-2.9,8.5-4.3c0.2-0.1,0.3-0.2,0.6-0.3
				c0.1,1,0.3,1.9,0.3,2.7c0.5,5.6,0.9,11.2,1.3,16.8c0.6,6.9,1.2,13.8,1.9,20.7c0.2,2,0.5,4,0.7,6c0,0.4-0.2,0.9-0.4,1.2
				c-1.6,1.9-3.7,3.1-6,3.8c-2.1,0.6-4.2,0.7-6.3,0.5c-0.5,0-0.5-0.3-0.5-0.7c-0.1-3.2-0.2-6.5-0.3-9.7c0-2.6,0-5.2,0-7.8
				C368,249.5,368,249.3,368,248.8"/>
			<path class="st5" d="M335.6,174.2c2.6,1.9,5.4,3.1,8.4,3.9c3,0.8,6,1,9.1,0.6c-0.1,0.7-0.2,1.4-0.3,2.1c-0.5,3.1-1,6.2-1.4,9.3
				c-0.3,2.5-1.7,4-3.9,4.8c-3,1.2-5.9,1.5-9,0.2c-3-1.4-4.1-3.2-3.6-6.5c0.3-2.3,0.6-4.6,0.8-6.9c0.3-2.3,0.2-4.7-0.1-7
				C335.6,174.6,335.6,174.5,335.6,174.2"/>
			<path class="st7" d="M298,473.8c1.2,0.2,2.4,0.3,3.6,0.5c4,0.5,8.1,0.3,12.1,0.1c4.5-0.2,9-0.5,13.5-0.7c2-0.1,4-0.3,6-0.6
				c2.5-0.3,4.9-0.8,6.6-3.1c0.8,1.5,1.2,3,1,4.6c0,0.3-0.1,0.5-0.2,0.8c-0.4,1.6-1.2,2.6-3,2.7c-2.6,0.1-5.1,0.4-7.7,0.5
				c-6.3,0.4-12.6,0.8-18.8,1.1c-3.2,0.2-6.4,0.1-9.6,0.1c-0.3,0-0.6-0.1-0.9-0.1c-1.1-0.2-1.8-0.7-2.2-1.8
				C298,476.6,297.7,474.7,298,473.8"/>
			<path class="st7" d="M348.9,468c0.7,0.5,1.4,1.1,2.1,1.5c1.6,1.1,3.4,1.7,5.4,1.6c2.2,0,4.3-0.2,6.5-0.3c3.3-0.2,6.6,0,9.9,0.8
				c8.2,2,16.6,3,25.1,3.3c3.4,0.1,6.7-0.3,9.9-1.5c0.5-0.2,0.9-0.4,1.5-0.6c0.2,1.1,0.5,2.3,0,3.3c-0.2,0.5-0.8,1-1.3,1.2
				c-1,0.3-2,0.6-3.1,0.6c-4.2,0.3-8.4-0.1-12.6-0.6c-4.6-0.5-9.1-1.2-13.7-1.6c-3-0.3-5.9-0.3-8.9-0.4c-2.5-0.1-5.1-0.2-7.6-0.3
				c-2.8,0-5.6,0-8.3,0c-0.6,0-1.2,0-1.8-0.2c-2.2-0.6-3-1.7-3.2-4C348.5,470,348.6,469,348.9,468"/>
			<path class="st5" d="M291.7,266.7c-0.6-1-1.1-2-0.7-3.2c1.2-3.6,3.2-6.8,5.6-9.7c1.7-2,3.6-3.9,5.5-5.8c0.5-0.5,1.1-0.9,1.7-1.3
				c0.5-0.4,1.2-0.4,1.7,0c1.2,0.9,2.4,1.9,3.6,2.8c0.1,0.1,0.2,0.5,0.2,0.7c-0.7,4-1.4,8-2.2,12c0,0.2-0.2,0.5-0.4,0.6
				c-1.2,0.8-2,1.9-2.3,3.3c-0.2,1-0.5,1.9-0.8,2.8c-1.1-0.2-1.5-0.7-1.3-1.7c0.3-2.5,1.3-4.9,2.2-7.2c0.1-0.3,0.3-0.7,0.5-1
				c0.5-1.1,0.5-1.1,1.8-1.1c0.3,0,0.5-0.2,0.8-0.3c-0.2-0.2-0.3-0.6-0.5-0.7c-0.4-0.2-0.8-0.4-1.3-0.5c-0.6-0.2-1.1,0.1-1.4,0.6
				c-0.5,0.9-1.2,1.7-2,2.3c-1,0.7-1.1,1.8-0.8,2.9c0.2,0.7,0.1,1.3-0.1,2c-0.3,0.9-0.5,1.8-0.6,2.8c-0.1,0.5,0,1,0.1,1.5
				c0.2,0.5-0.3,0.6-0.5,0.8c-0.1,0.1-0.5-0.1-0.6-0.3c-0.3-0.9-0.8-1.8-0.9-2.8c-0.2-2.1-0.2-4.2-0.3-6.3c0-1.4,0.7-2.5,1.6-3.5
				c0.9-1,1.9-2.1,2.8-3.1c0.2-0.2,0.2-0.5,0.3-0.8c-0.3,0.1-0.6,0-0.8,0.2c-1.7,1.2-3.2,2.5-4.3,4.2c-0.5,0.7-0.8,1.6-0.9,2.5
				c-0.3,2.6-0.1,5.3,0.3,7.9c0.1,0.4,0.1,0.7,0.3,1.1c0.6,1.3,0.2,2.5-0.3,3.7c-0.2,0.7-0.5,0.7-1,0.1c-0.7-0.9-0.9-2-1.1-3.1
				c-0.3-1.9-0.5-3.7-0.8-5.6c-0.2-1.1,0-2,0.4-3c1-2.1,2-4.1,3-6.2c0.1-0.3,0.1-0.7,0.1-1.1c-0.3,0.2-0.7,0.4-0.8,0.7
				c-1.2,2.1-2.4,4.2-3.6,6.3c-0.7,1.3-0.6,2.6-0.4,4c0.1,0.5,0,0.7-0.4,1C292.7,265.8,292.2,266.3,291.7,266.7"/>
			<path class="st5" d="M324.1,144.3c0.3,2.1,0.5,4.1,0.7,6c0,0,0,0,0,0.1c0.2,1.4-0.4,2-1.8,2c-1.6,0-2.9-0.6-4.1-1.6
				c-2.3-2-3.5-4.5-4.2-7.3c-0.5-1.8-0.7-3.6-0.4-5.4c0.1-0.7,0.3-1.3,0.6-1.9c1.1-2.3,3.2-3.2,5.6-2.3c0.3,0.1,0.6,0.2,0.8,0.5
				c1.2,1.3,2.2,2.7,2.3,4.6c0.1,1.2,0.1,2.3,0.3,3.5c0,0.5-0.1,0.7-0.5,0.9c-2,0.9-3.2,2.4-3.6,4.6c0,0.3-0.1,0.6,0,0.8
				c0.2,0.3,0.5,0.7,0.7,0.7c0.3,0,0.6-0.3,0.8-0.6c0.1-0.2,0.1-0.5,0.1-0.7C321.7,146.3,322.6,145.2,324.1,144.3"/>
			<path class="st2" d="M301.9,439.9c0.1-1,0.2-1.9,0.2-2.7c0.2-1.6,0.2-1.6,1.7-1.8c3.5-0.6,6.9-1.8,10.2-3.2
				c4.4-1.8,8.8-3.7,13.2-5.5c0.8-0.3,1.5-0.6,2.3-0.8c0.8-0.2,1.2,0,1.3,0.8c0.1,0.5,0,1,0,1.5c0,0.2-0.3,0.5-0.5,0.6
				c-3.6,1.6-7.2,3.3-10.8,4.7c-5.5,2.1-11.1,4.1-16.6,6.1C302.6,439.8,302.3,439.8,301.9,439.9"/>
			<path class="st2" d="M308.5,314.6c0.1-5.4,0.2-10.9,0.3-16.3c3.7,0.5,7.4,0.9,11.1,1.4c-3.5,5.1-7.3,10.1-11.3,15
				C308.6,314.6,308.6,314.6,308.5,314.6"/>
			<path class="st5" d="M372.5,160.3c0.7-2,1.3-3.9,2-5.8c0.7,0.3,1,0.8,1.3,1.5c0.3,0.8,0.7,1,1.1,0.9c0.5-0.2,0.6-0.8,0.3-1.5
				c-0.4-1-1.2-1.7-2.4-2c0.4-1.3,0.9-2.5,1.2-3.8c0.3-1.1,0.9-1.9,1.7-2.6c0.6-0.5,1.4-0.9,2.2-1.2c1.2-0.4,2.1,0.1,2.6,1.3
				c0.5,1.2,0.6,2.4,0.3,3.7c-1.2,4.8-4,8-8.8,9.4c-0.5,0.1-0.9,0.2-1.4,0.3C372.6,160.4,372.6,160.4,372.5,160.3"/>
			<path class="st2" d="M359.1,296.9c1.7-0.4,3.5-0.8,5.3-1.2v11.9C362.7,304.1,360.9,300.5,359.1,296.9"/>
			<path class="st5" d="M293.9,266.6c0.1,0.4,0.1,0.7,0.2,1.2c-0.3-0.1-0.6-0.2-0.9-0.3c0.2-0.3,0.4-0.6,0.6-0.9L293.9,266.6z"/>
			<path class="st1" d="M335,134.5c1.3,0.3,3,0.5,4.5,0.9c2.3,0.6,3.9,2.2,5.1,4.2c0.4,0.8,0.8,1.6,1.1,2.4c0.5,1.2,0.3,2.3-0.4,3.3
				c-1.7,2.7-4.7,3.8-8.1,2.9c-4.3-1.1-7.3-5.3-7-9.8c0-0.6,0.1-1.1,0.2-1.7c0.1-1.1,0.8-1.8,1.9-2
				C333.1,134.6,333.9,134.6,335,134.5 M344.2,143.6c-0.2,0.2-0.4,0.4-0.6,0.6c-2.2,1.9-5.1,1.7-6.8-0.5c-0.8-1.1-1.2-2.3-1.3-3.7
				c-0.1-1.3,0.2-2.5,1-3.7c-1.3,0-2.5,0-3.7,0c-0.2,0-0.6,0.4-0.6,0.6c-0.9,4,1,7.3,3.8,8.9c1.9,1.1,3.9,1.2,5.9,0.5
				C343.1,146,343.9,145,344.2,143.6 M337,139.5c0.1,1.1,0.4,2.1,0.9,2.9c0.8,1.2,2,1.6,3.3,1.2c1.1-0.4,1.9-1.2,2.3-2.3
				c0.1-0.2,0.1-0.5-0.1-0.7c-1-1.7-2.3-3-4.2-3.6c-0.7-0.2-1.2-0.2-1.6,0.5C337.3,138.2,337.2,138.9,337,139.5"/>
			<path class="st1" d="M365.1,140.8c1.5,0,3,0.2,4.4,0.7c2.7,1.1,3.7,3.3,2.6,6.1c-1.8,4.4-7.3,6.6-11.8,4.7
				c-3-1.2-3.9-3.6-3.6-6.3c0.2-1.7,1.3-2.8,2.7-3.7C361.1,141.1,363.1,140.8,365.1,140.8 M367.5,142.7c0.1,0.9,0.3,1.8,0.2,2.7
				c-0.1,2.7-2,4.7-4.5,4.7c-2.6,0-4.5-1.9-4.6-4.6c0-0.1,0-0.2-0.1-0.4c-0.4,0.4-0.7,0.8-0.5,1.3c0.2,0.5,0.1,1.1,0.3,1.5
				c0.3,0.7,0.6,1.4,1.2,1.9c3.5,2.8,9.1,1.4,10.9-2.7C371.5,144.8,370,142.6,367.5,142.7 M366.3,144.9c-0.3-0.7-0.5-1.4-0.8-2.1
				c-0.1-0.2-0.4-0.4-0.6-0.3c-1.3,0.2-2.5,0.4-3.8,0.7c-0.2,0-0.5,0.2-0.6,0.5c-1.1,2.2,0.3,4.7,2.6,4.8
				C364.8,148.5,366.1,147,366.3,144.9"/>
			<path class="st1" d="M349.9,167.1c-3.3-0.1-6.5-0.8-9.2-2.7c-2.3-1.7-4-3.8-4.8-6.5c-0.1-0.3-0.1-0.7-0.1-1.1
				c0-0.1,0.2-0.3,0.3-0.3c0.1,0,0.3,0.1,0.4,0.2c0.2,0.3,0.4,0.6,0.5,1c2,3.9,5,6.6,9.5,7.4c3.6,0.7,7.2,0.3,10.7-1
				c0.7-0.2,1.3-0.7,1.9-1.1c0.3-0.2,0.5-0.7,0.6-1.1c0.2-0.5,0.5-0.8,1-0.7c0.6,0.1,0.7,0.6,0.5,1.1c-0.2,1-0.8,1.7-1.5,2.3
				c-1.6,1.2-3.4,1.7-5.3,2C352.8,166.8,351.3,166.9,349.9,167.1"/>
			<path class="st1" d="M337.4,133.4c-0.4,0-0.8,0-1.2,0c-0.9,0-1.4-0.7-1.1-1.6c0.3-0.8,0.9-1.3,1.6-1.6c1.4-0.7,2.9-0.8,4.5-0.6
				c2.4,0.3,4.6,1.2,6.7,2.5c0.8,0.5,1.3,1.2,1.4,2.1c0.1,0.6,0,1.2-0.5,1.5c-0.6,0.4-1.1,0.4-1.8,0.1
				C344,134.2,340.8,133.4,337.4,133.4 M336.8,131.8c1.6,0.2,3.1,0.3,4.5,0.5c2.1,0.4,4,1.1,5.8,2.2c0.2,0.1,0.5,0.1,0.7,0.1
				c0-0.2,0.1-0.5,0.1-0.6c-0.1-0.3-0.3-0.7-0.6-0.8c-1.4-0.7-2.8-1.4-4.2-1.9c-1.3-0.5-2.7-0.7-4.1-0.5
				C338.1,131,337.4,131.2,336.8,131.8"/>
			<path class="st1" d="M369.1,138.5c-1.4-0.2-2.9-0.4-4.3-0.6c-1.4-0.2-2.9-0.2-4.3-0.4c-0.8-0.1-1.7-0.1-2.5-0.3
				c-0.8-0.1-1.3-0.7-0.9-1.5c0.2-0.5,0.7-1,1.2-1.4c1-0.7,2.2-0.9,3.5-0.9c2.8-0.1,5.3,0.5,7.7,2.1c0.3,0.2,0.6,0.5,0.9,0.8
				c0.4,0.4,0.6,0.8,0.4,1.3c-0.2,0.6-0.7,0.7-1.3,0.8C369.4,138.5,369.3,138.5,369.1,138.5C369.1,138.5,369.1,138.5,369.1,138.5
				 M368.7,137c0-0.1,0-0.1,0-0.2c-2.9-1.7-5.9-2.3-9.2-1.3c-0.3,0.1-0.5,0.3-1,0.5c0.8,0.2,1.4,0.4,1.9,0.5
				c1.8,0.1,3.7,0.1,5.5,0.3C366.9,136.8,367.8,136.9,368.7,137"/>
			<path class="st1" d="M353.2,153.6c0.9,0.6,1.6,1.4,1.7,2.5c0.1,1-0.6,1.6-1.4,2.1c-1,0.5-2.1,0.6-3.1,0.6
				c-1.6-0.1-3.1-0.4-4.4-1.5c-0.5-0.4-0.9-1.1-1.2-1.8c-0.2-0.3,0-0.9,0.1-1.2c0.1-0.3,0.5-0.4,0.7-0.6c0.1,0.3,0.3,0.5,0.3,0.8
				c0.1,0.7,0.4,1.3,1,1.6c1.6,1,3.4,1.3,5.3,0.9c1-0.2,1.1-0.5,1-1.5c-0.1-0.6-0.1-1.1-0.2-1.7C353,153.6,353.1,153.6,353.2,153.6"
				/>
			<path class="st8" d="M344.2,143.6c-0.3,1.3-1.1,2.3-2.4,2.8c-2,0.7-4,0.6-5.9-0.5c-2.8-1.6-4.7-4.9-3.8-8.9
				c0.1-0.2,0.4-0.6,0.6-0.6c1.2-0.1,2.4,0,3.7,0c-0.8,1.1-1.1,2.4-1,3.7c0.1,1.3,0.5,2.6,1.3,3.7c1.7,2.2,4.6,2.4,6.8,0.5
				C343.8,144,344,143.8,344.2,143.6"/>
			<path class="st9" d="M337,139.5c0.2-0.7,0.4-1.4,0.7-2c0.4-0.7,0.8-0.8,1.6-0.5c1.9,0.6,3.2,1.9,4.2,3.6c0.1,0.2,0.1,0.5,0.1,0.7
				c-0.4,1.1-1.2,1.9-2.3,2.3c-1.3,0.5-2.5,0-3.3-1.2C337.3,141.6,337.1,140.6,337,139.5"/>
			<path class="st8" d="M367.5,142.7c2.5-0.1,4,2,2.9,4.3c-1.9,4.1-7.4,5.5-10.9,2.7c-0.5-0.4-0.9-1.2-1.2-1.9
				c-0.2-0.5-0.2-1-0.3-1.5c-0.2-0.6,0.1-0.9,0.5-1.3c0,0.2,0,0.3,0.1,0.4c0.1,2.7,2.1,4.6,4.6,4.6c2.5,0,4.5-2,4.5-4.7
				C367.8,144.5,367.6,143.6,367.5,142.7"/>
			<path class="st9" d="M366.3,144.9c-0.2,2.1-1.4,3.6-3.2,3.5c-2.3-0.1-3.7-2.6-2.6-4.8c0.1-0.2,0.4-0.4,0.6-0.5
				c1.3-0.3,2.5-0.5,3.8-0.7c0.2,0,0.5,0.2,0.6,0.3C365.8,143.5,366,144.2,366.3,144.9"/>
			<path class="st4" d="M336.8,131.8c0.6-0.6,1.4-0.8,2.2-0.9c1.4-0.2,2.8,0,4.1,0.5c1.4,0.5,2.8,1.2,4.2,1.9
				c0.3,0.1,0.5,0.5,0.6,0.8c0.1,0.2,0,0.4-0.1,0.6c-0.2,0-0.5,0-0.7-0.1c-1.8-1.1-3.7-1.9-5.8-2.2
				C339.8,132.1,338.3,132,336.8,131.8"/>
			<path class="st4" d="M368.7,137c-0.9-0.1-1.8-0.3-2.7-0.3c-1.8-0.1-3.7-0.1-5.5-0.3c-0.6,0-1.2-0.3-1.9-0.5
				c0.4-0.2,0.7-0.4,1-0.5c3.3-1,6.3-0.3,9.2,1.3C368.7,136.9,368.7,136.9,368.7,137"/>
		</g>
	</g>
</g>
</svg>
