<?xml version="1.0" encoding="utf-8"?>
<!-- Generator: Adobe Illustrator 22.1.0, SVG Export Plug-In . SVG Version: 6.00 Build 0)  -->
<svg version="1.1" xmlns="http://www.w3.org/2000/svg" xmlns:xlink="http://www.w3.org/1999/xlink" x="0px" y="0px"
	 viewBox="0 0 552 768" style="enable-background:new 0 0 552 768;" xml:space="preserve">
<style type="text/css">
	.st0{fill:#350744;}
	.st1{fill:#E5E5E5;}
	.st2{fill:#FEE6E6;}
	.st3{fill:#A8715D;}
	.st4{fill:#EFB5A1;}
	.st5{fill:#9E9E9E;}
	.st6{fill:#565656;}
	.st7{fill:#A64686;}
	.st8{fill:#FFFFFF;}
	.st9{fill:#5397C6;}
</style>
<g id="Слой2_xA0_Изображение_1_">
</g>
<g id="Слой3_xA0_Изображение_1_">
	<g>
		<path d="M248.9,11.9c3.2,0.3,6.4,0.6,9.5,1c17,2.3,32.1,8.6,44.4,20.7c2.8,2.8,5.3,6,7.7,9.2c3,4,6,7.9,10,10.9
			c2.1,1.5,1.9,3-0.4,4.1c-0.7,0.4-1.4,0.7-2,1c0,0.3-0.1,0.5-0.1,0.6c3.7,6.6,3.8,13.7,2.6,21c-1,5.9-2.8,11.5-5.1,16.9
			c-2.3,5.4-5.4,10.1-9.7,14.1c-2.2,2-4.3,4-6.6,6c-1.7,1.5-2.4,3.4-2.8,5.4c-0.3,1.7-0.3,3.5-0.4,5.2c-0.1,1,0,2.2-1.1,2.7
			c-1.2,0.6-2.1-0.3-3-0.9c-0.7-0.5-1.3-1.2-2-1.8c-0.6,1.6-0.4,8.1,0.4,12.7c0.9-0.3,1.8-0.6,2.7-0.8c1.7-0.3,2.3,0.3,2.7,1.9
			c0.7,3.7,1.5,7.4,2.2,11c0.7,3.2,1.1,6.5-0.1,9.7c-0.1,0.3-0.1,0.8,0,1.1c0.8,2.4,1.5,4.9,2.6,7.2c2.8,5.7,4.8,11.5,5,17.9
			c0,0.8,0.4,1.7,0.9,2.4c8.5,10.2,15.6,21.3,22,32.9c0.9,1.6,1.9,3.2,3.4,5.2c0.1-0.3,0.1-0.7,0.2-0.9c3.6-6,7.2-12.1,10.9-18.1
			c1.1-1.8,2.2-3.5,3.4-5.2c2.3-3.2,3.1-6.8,3.1-10.6c0-2.4-0.1-4.8,0-7.2c0.1-2.9,0.2-5.8,0.5-8.6c0.3-2.7,1.7-3.8,4.4-3.4
			c1.2,0.2,2.3,0.7,3.8,1.1c-0.1-1-0.1-1.9-0.3-2.8c-0.9-4.4,0-8.4,3-11.8c0.1-0.1,0.2-0.3,0.3-0.4c4.7-5,4.1-10.5,1.8-16.3
			c-0.7-1.8-1.3-3.6-2-5.8c-0.3,0-1.2,0-2,0c-13.5-0.1-27-0.1-40.6-0.3c-2.1,0-4.3-0.3-6.4-0.6c-3.2-0.5-4.3-2.9-2.7-5.7
			c1.5-2.5,3.8-3.9,6.7-4c2.8-0.2,5.6-0.1,8.4-0.2c0.9,0,1.7,0,2.6,0c0.3-0.8,0.5-1.4,0.7-2c3.2-12.5,10.3-22.4,20.4-30.2
			c10.3-7.9,22-12.7,34.5-15.6c4.2-0.9,8.5-1.4,12.8-2.1c0.5-0.1,0.9-0.2,1.3-0.3c1.2-5.3,3.6-8,7-7.9c3.2,0.1,4.8,2.3,5.9,7.8
			c32.7,4.1,56.4,20.4,69.8,51.2c0.4,0,1,0.1,1.6,0.2c2.6,0,5.3,0.2,7.9,0c2.7-0.1,5.1,0.6,7.4,1.6c1.5,0.6,2.6,1.5,2.8,3.3
			c0.1,1.9-0.6,3.2-2.2,4.2c-1.8,1.2-3.9,1.2-6,1.3c-4.3,0-8.6-0.1-13-0.1c-13.3-0.1-26.6-0.1-39.8-0.3c-1.8,0-3.1,0.5-4.1,1.9
			c-1.4,2.1-2.8,4.3-4,6.5c-0.8,1.5-1.3,3.1-1.9,4.7c-0.8,2-2.3,3.4-4.2,4.4c-2.4,1.2-4.8,2.6-7.1,3.9c-0.5,0.3-1.1,0.7-1.5,1.1
			c-4.3,4.1-9.3,6.6-15.1,8c-5.3,1.2-10.6,2.4-15.6,4.7c-4.6,2.1-7.7,5.5-10.1,10.1c0.9,0.2,1.8,0.4,2.6,0.6
			c1.8,0.5,2.4,1.4,1.7,3.2c-0.7,1.9-1.6,3.8-2.5,5.7c-1.5,3.1-3,6.2-4.5,9.3c-1.3,2.7-1.7,5.4-1.6,8.4c0.1,2.9,0.2,5.8,0.1,8.6
			c-0.4,7.8-2.6,15.3-4.2,22.8c-2.4,10.7-6.9,20.6-12,30.2c-2,3.7-6,5.1-9.8,3.6c-1.4-0.6-2.7-1.4-3.9-2.3c-3-2.2-5.7-4.6-8.2-7.3
			c-2.4-2.6-5.2-5.1-8.2-6.9c-10.6-6.1-19.7-14.3-29.6-21.2c-1.6-1.1-3.2-2.3-5.2-3.7c-0.4,0.9-0.8,1.6-1.1,2.4
			c-3.6,8.2-5.9,16.7-8,25.4c-3.4,14.4-5.6,29.1-7.1,43.8c-0.7,6.5-0.1,12.9,1.9,19.2c1.6,5,3.2,10.1,4.9,15
			c0.7,2.1,0.4,3.8-1.2,5.2c-1.3,1.2-2.7,2.2-4.2,3.2c-2.7,1.8-5.5,3.5-8.5,5.3c0.5,0.6,1,1.3,1.4,1.8c8.6,10,14.9,21.2,17.8,34.1
			c2.2,9.7,3,19.6,2.4,29.6c-0.7,12.9-2.7,25.6-4.3,38.4c-1.1,9.1-2,18.3-3.2,27.4c-1.7,12.7-1.9,25.5-2.8,38.3
			c-0.4,5.3-1.1,10.5-1.3,15.8c-0.4,10.8-0.7,21.6-1,32.4c0,1.1,0,2.2,0,3.2c0.3,0.3,0.5,0.5,0.7,0.6c10.4,3.9,19.4,10.1,27.8,17.2
			c8.2,7,15.4,14.8,21.7,23.6c2.3,3.3,2.7,6.3,0.7,9.7c-2.2,3.7-4.5,7.4-6.8,11c-0.5,0.8-1.1,1.6-1.7,2.5c0.8,0.9,1.6,1.8,2.3,2.7
			c4.4,5.3,4.9,10.5,1.2,16.3c-1.6,2.6-3.5,5-5.6,7.1c-7.5,7.9-15.3,15.4-23.6,22.5c-1.2,1.1-1.8,2-1.2,3.7
			c1.2,3.7,2.2,7.5,3.4,11.2c1,3.2,0.5,5-2.5,6.7c-2.5,1.4-5.2,2.4-7.8,3.7c-0.8,0.4-1.6,1-2.3,1.6c-1.6,1.3-3.1,2.8-4.7,4.1
			c-3.5,2.8-7,5.5-10.5,8.3c-11.2,9-23.4,16.5-36.7,22c-9.1,3.7-18.4,5.9-28.3,5.1c-2.7-0.2-5.3-0.9-8-1.4c-0.8-0.2-1.5-0.5-2.2-0.8
			c-4.8-2.2-6.1-5.3-3.8-10.1c2.9-5.9,6.6-11.3,11.3-16c4-4,8.9-5.7,14.3-6.7c5.2-0.9,10.4-1.9,15.5-2.9c1.6-0.3,3.2-0.9,4.9-1.8
			c-0.5-0.2-1-0.4-1.6-0.5c-1.8-0.4-3.6-0.7-5.4-1.2c-2-0.5-2.3-1-1.9-3.1c0.7-3.8,1.5-7.7,2.2-11.5c2.6-14.7,4.5-29.4,5.8-44.2
			c1.7-18,2.4-36.1,2.9-54.1c0.1-4.6-2-7.1-5.4-9.2c-8.2-5-16.3-10.1-23.6-16.4c-5.8-5-11.4-10.3-16.4-16.2
			c-1.8-2.1-3.3-4.3-4.8-6.6c-1.7-2.5-1.9-5.2-0.7-8c1.8-3.9,3.4-7.9,5.5-11.7c6.4-11.6,13.1-23.1,19.5-34.7
			c6.3-11.4,11.9-23.2,16.5-35.4c0.8-2.3,1.2-4.6,1.1-7c-0.8-26.8-6.2-52.8-14.7-78.2c-2.1-6.4-4.5-12.8-6.7-19.2
			c-0.3-0.7-0.2-1.9-1.8-1.7c0,0.5-0.1,1-0.1,1.5c0.7,15.4,3.4,30.5,7.1,45.4c1,4.1,1.9,8.3,1.8,12.6c-0.1,5-1.6,9.5-4.7,13.3
			c-1.3,1.6-3,2.9-4.7,4c-2.3,1.5-4.8,1.6-7.4,0.7c-0.8-0.3-1.7-0.6-2.5-0.9c-1.6-0.6-3.2-0.5-4.6,0.2c-1.6,0.8-3,1.9-4.6,2.6
			c-2,1-4,2-6.1,2.7c-2.9,0.9-5.5-0.1-7.7-2.2c-2.1-2-3.2-4.6-3.7-7.4c-0.4-2.4-0.7-4.7-1-7.1c-0.6-4.9-2.6-6.4-7.5-5.5
			c-2.7,0.5-5.1,1.8-7.4,3.3c-1.1,0.7-2.1,1.5-3.2,2c-1.7,0.8-3,0.3-3.5-1.6c-0.3-1.1-0.4-2.2-0.4-3.3c-0.1-6.4-0.4-12.8-0.3-19.2
			c0.2-10.4,0.7-20.8,1.1-31.2c0.4-11.3,1-22.7,1.4-34c0-0.1-0.1-0.3-0.2-0.8c-2,1.4-4.3,1.9-5.4,4.4c-0.8,1.9-2.4,3-4.7,3.3
			c-5.2,0.6-10.2,0.3-15.2-1.1c-3.3-0.9-4-2.2-3.4-5.5c0.5-2.7,1.1-5.4,1.8-8.5c-0.6,0.4-0.9,0.6-1.1,0.8c-2.1,2.6-4.9,3.2-8,2.3
			c-3.2-1-6,0.1-8.7,1.3c-1,0.5-2,1.4-2.7,2.3c-2.1,2.6-4.6,4.4-8,4.8c-1.9,0.2-2.3,1.8-2.7,3.2c-0.3,1.2-0.3,2.5-0.6,3.8
			c-0.3,1.6-0.5,3.2-1.1,4.7c-0.9,2.5-2.3,4.5-5.4,3.9c-1.2,2.3-2.3,4.7-5.2,4.3c-2.7-0.3-2.9-2.8-3.4-5.1c-0.5,0.6-0.9,1-1.4,1.5
			c-0.5,0.5-1,1.1-1.5,1.5c-1.8,1.5-3.5,1.8-5.1,1c-1.8-1-2.5-2.8-2.2-4.7c0.2-1.6,0.9-3.1,1.3-4.6c0.2-0.5,0.4-1,0.7-1.6
			c-1.7,0-3.3,0.2-4.9-0.1c-1-0.2-2.2-0.7-3-1.4c-2.5-2.2-2.7-3.8-0.7-6.1c1.2-1.4,2.5-2.7,3.8-4c3.3-3.3,6-7,8.3-11.1
			c1.1-2,2.2-3.9,3.4-5.8c1.5-2.3,3.5-3.4,6.4-3.4c6.3,0.1,12.3-1.6,18.3-3.6c3-1,6.1-2,9-3.2c4.8-2,9.7-2.5,14.8-2.4
			c1.1,0,2.2,0,3.2-0.7c0.5-0.3,1.2-0.4,1.8-0.4c4.6,0.3,9.3,0.7,13.7,2.1c2.3,0.7,4.6,1.4,5.8,3.8c0.2,0.3,0.8,0.5,1.2,0.5
			c0.9,0.1,1.7,0.2,2.9,0.3c0.1-0.9,0.2-1.8,0.3-2.6c0.1-1.4,0.8-2.2,2.2-2.4c2.5-0.5,5-0.6,7.4,0.2c4.7,1.6,8.6,0.2,12-3.2
			c1.5-1.5,3.1-3.1,4.7-4.4c1.7-1.4,3.7-1.9,5.8-1c4.5,2,9,1.7,13.9,0.1c0-0.7,0-1.4,0-2.2c-1-16.6-0.8-33.3-0.5-49.9
			c0.1-2.4,0-4.9,0.6-7.1c1.2-4,2.6-7.9,4.4-11.6c3.3-7.1,8-13.2,12.9-19.3c6.1-7.4,12.5-14.6,19.5-21.1c0.9-0.8,1.8-1.5,3-2.4
			c-0.1-3.5,0.8-7,2.7-10.3c0.7-1.2,1.5-2.3,2.3-3.3c0.4-0.6,1.1-1.3,1.6-1.3c3.2-0.2,4.7-2.9,7-4.4c2.8-1.8,5.3-4.1,8-6.2
			c2.9-2.3,5.8-4.5,8.9-6.9c-0.2-1.3-0.4-2.9-0.6-4.9c-0.8,0.4-1.5,0.8-2.1,1.1c-3.6,2.2-7.4,4.3-11.5,5.4c-2.5,0.7-5.2,1.1-7.8,1.3
			c-2.6,0.2-5-0.8-7-2.6c-0.5-0.4-1-0.8-1.4-1.3c-5.3-5.8-9.6-12.3-12.4-19.8c-2.9-7.7-2.6-15.5-1.1-23.4c1.1-5.6,2.3-11.3,3.2-17
			c0.9-5.8,0.2-11.5-1.7-17c-1.3-4-3.4-7.7-3.6-12.3c-6.4,0.7-11.3,3.5-14.7,8.7c-0.3,0.5-0.5,1.1-0.9,1.4c-0.5,0.5-1.1,0.7-1.7,1.1
			c-0.3-0.6-0.7-1.2-0.9-1.8c-0.1-0.3-0.1-0.6-0.1-1c-0.6-8.3,1.8-15.8,6.7-22.5c0.9-1.2,1.4-2.2,1.1-3.9c-0.3-1.6,0.1-3.5,0.5-5.2
			c2.3-8.3,7.6-14.3,15.1-18.3c5.8-3.1,12.2-4.4,18.7-4.9c1.6-0.1,3.2-0.3,4.8-0.5C247.3,11.9,248.1,11.9,248.9,11.9z M224.8,72.2
			L224.8,72.2c0.4,2.4,0.8,4.8,1.2,7.5c2.3-2.7,4.1-2.8,6.4-0.6c0.8,0.8,1.5,1.6,2.1,2.6c2.8,4.2,4.5,8.8,5,13.9
			c0.1,1.2,0,2.4-0.3,3.6c-0.7,2.8-3,4.1-5.7,2.9c-1.2-0.5-2.3-1.4-3.3-2.4c-1.9-1.8-3-4.1-3.9-6.6c-0.2-0.6-0.5-1.3-0.9-2.4
			c-1.1,5.3-2.1,10-3,14.8c-1.2,6.1-1.7,12.2-0.1,18.3c2.2,8.3,6.8,15.3,12.3,21.7c2.9,3.5,6.5,4.5,10.7,3.5
			c2.8-0.7,5.7-1.6,8.3-2.9c11.3-5.6,20.7-13.5,29.1-22.7c1.8-2,2.8-3.8,2-6.6c-0.7-2.5-0.2-3,2.4-3.6c2.2-0.5,4.3-1.4,6-2.9
			c6.8-5.6,10.1-12.8,9.3-21.7c-0.3-2.8-1.3-5.3-3.1-7.4c-1.7-2.1-3.9-3.5-6.7-2.9c-2.7,0.6-4.1,2.8-4.7,5.3
			c-0.4,1.5-0.4,3.2-0.5,4.7c-0.2,2.4-1.3,3.6-3.7,3.9c-2.1,0.2-4.1-0.1-6.1-0.9c-0.8-0.3-1.6-0.6-2.5-1c-0.2,1.1-0.4,2-0.6,3
			c-2.1,8.5-10.7,14-18.8,11.9c-4.7-1.2-6.9-4.9-5.5-9.5c0.8-2.7,1.8-5.5,2.9-8.1c0.9-2,2-4,3-5.8c-0.6-1.8-1.1-3.5-1.8-5.6
			c-1.9,1.7-3.5,3.2-5.2,4.8c-0.9-1.1-0.5-2.1,0.1-2.8c1.3-1.5,2.7-2.9,4.1-4.2c0.7-0.6,1.2-1.1,1.4-2c0.8-3,1.8-6,2.8-8.9
			c0.5-1.5,1.3-2.9,1.8-4.4c0.7-2,0.3-3.9-1.3-5.2c-1.2-1-2.6-1.7-3.7-2.4c-1.4,1.8-2.5,3.5-4,4.8c-2.8,2.6-6.4,3.7-10.1,3.7
			c-3.7,0-7.5-0.4-11.2-0.6c-2.9-0.2-5.7-0.4-8.8-0.2C220.7,63.6,223.1,67.8,224.8,72.2z M227.1,711.4c5,1.2,9.7,2.1,14.4,3.3
			c4.1,1,8.2,1.2,12.4,0.7c7.9-0.9,15.9-1.8,23.8-2.8c4.2-0.5,7.9-2.3,11.6-4.4c1.2-0.7,1.4-1.6,0.9-2.8c-0.4-1.1-0.8-2.3-1.1-3.4
			c-5.7-19.3-9.1-39.1-11.3-59c-1.5-13.2-3-26.4-4.6-39.6c-1.4-11.7-2.3-23.4-1.9-35.2c0.3-10.6,0.9-21.3,1.4-31.9
			c0.3-5.2,1.1-10.3,1.2-15.5c0.3-11.6,1-23.2,2.4-34.7c1.1-9.2,2.1-18.4,3.2-27.6c1.4-12.4,3.1-24.8,4.2-37.2
			c1.1-12.1-0.2-24.1-3.9-35.8c-3.1-9.7-8.3-18.1-14.5-26.1c-0.7-0.9-1.4-1.9-2.1-2.7c-0.4,0.1-0.6,0.1-0.7,0.2
			c-12.7,5.1-25.8,6.9-39.2,3.5c-4.6-1.2-9.2-2.8-13.7-4.2c-0.9-0.3-1.8-1-3-0.5c0.3,0.8,0.6,1.6,0.9,2.3
			c4.3,10.8,8.3,21.6,11.5,32.8c4.3,14.6,7.5,29.4,9.3,44.6c1.4,12,1.6,24.1,2,36.2c0.4,9.7,0.9,19.5,1.4,29.2
			c0.5,10.9,1.1,21.9,1.7,32.8c0.1,2.3,0.2,4.6,0.6,6.9c2.4,14.7,3.7,29.5,4,44.4c0.5,25.2-0.7,50.4-3.2,75.5
			c-1.5,14.9-3.5,29.7-6.2,44.4C227.9,707,227.5,709.1,227.1,711.4z M294.2,164.6c-1.5,0.9-3,1.7-4.4,2.6c-7.6,5-15.2,10-22.9,15
			c-1.2,0.8-1.9,1.8-2.3,3.2c-1,3.6-2.3,7.2-4.5,10.3c-2.5,3.5-6.3,3.3-8.6-0.4c-0.4-0.7-0.8-1.5-1.3-2.4c-0.4,0.3-0.6,0.5-0.8,0.7
			c-7.1,7.8-14.9,14.8-23,21.4c-8.3,6.8-16.5,13.7-25.9,19c-3.5,1.9-4.6,4.2-4.6,7.9c0.1,12.5-0.1,24.9-0.1,37.4
			c0.1,14.4,1.7,28.7,4.2,42.9c1.4,8.3,2.8,16.5,4.2,24.8c0.3,1.7,0.5,3.4,0.7,4.8c2.1,0.5,3.9,0.9,5.6,1.4c2.2,0.7,4.4,1.5,6.6,2.2
			c10.4,3.5,21.1,4.6,31.9,2c4.2-1,8.5-1.9,12.3-3.7c4.6-2.3,8.8-5.4,13.1-8.4c1.9-1.3,1.8-1.6,1.1-3.8c-2.1-6.6-4.2-13.3-6.1-19.9
			c-0.8-2.8-1.3-5.6-1-8.5c0.5-4,0.8-8,1.3-11.9c1.5-13.8,3.7-27.4,7.1-40.8c0.2-0.7,0.3-1.3,0.5-2.3c-1,0.3-1.7,0.4-2.3,0.6
			c-4,1.2-8,1.5-12.1,1.3c-3.9-0.2-6.8-1.9-8.9-5.2c-2.9-4.4-4.4-9.2-4.8-14.4c-1-12,1.1-23.6,5.7-34.7c1.8-4.3,4.4-7.9,7.6-11.2
			c6.1-6.1,13.4-10.1,21.5-12.6c2.1-0.7,4.4-1,6.6-0.9c3.8,0.1,7.3,1,9.7,4.3c0.2,0.3,0.6,0.4,1.2,0.8c-0.2-1.1-0.1-1.9-0.4-2.7
			c-0.9-2.7-1.6-5.5-2.7-8.2c-1.4-3.2-3.1-6.3-3.9-9.8C294.7,165.2,294.5,165,294.2,164.6z M163.1,344c0.2,0,0.3,0,0.5-0.1
			c0,0.6,0.1,1.2,0.1,1.8c0.2,11,0.4,21.9,0.7,32.9c0.3,11.7,0.7,23.3,1,35c0,1.3,0.3,2.5,1,3.6c0.7,1.3,1.1,2.8,1.4,4.3
			c0.4,2.3,0.5,4.6,1,6.9c0.3,1.5,0.8,3.1,1.5,4.5c1.8,3.4,4.5,4.3,8.1,2.9c1.5-0.6,2.9-1.4,4.3-2.2c1.3-0.7,2.5-1.5,3.7-2.2
			c2.4-1.3,4.9-1.4,7.4-0.4c0.6,0.2,1.2,0.5,1.8,0.7c2.4,1,4.6,0.7,6.6-0.8c1.4-1.1,2.8-2.4,3.9-3.9c2.8-3.9,3.9-8.4,3.3-13.2
			c-0.3-2.9-0.8-5.9-1.5-8.7c-4.6-17.7-7-35.7-8-54c-0.4-7.4-1.1-14.8-2-22.2c-1.2-9.7-2.6-19.3-4-29c-0.1-0.5-0.2-1-0.4-1.6
			c-0.9,0.2-1.7,0.4-2.5,0.6c-4,1-8,1-11.8-0.7c-1.9-0.8-3.2-0.4-4.6,0.9c-1.4,1.3-2.7,2.7-4.1,4c-2.2,2.1-4.6,3.6-7.7,4.1
			c-2.2,0.4-4.3,0.1-6.4-0.5c-2-0.6-4-1-6-0.2c-0.5,3.3-1.1,6.4-1.6,9.6c-0.3,1.7-0.6,3.5-0.7,5.2c-0.2,3.8-0.4,7.7-0.5,11.5
			c-0.6,16.5-1.2,33.1-1.6,49.6c-0.3,10.5-0.3,20.9-0.4,31.4c0,1.6,0.2,3.2,0.3,4.8c3.1-1.5,5.8-2.9,8.7-4.1c2.9-1.2,6-1.2,9.3,0
			C162.4,390.8,162.8,367.4,163.1,344z M264,235.7c-0.2-0.1-0.3-0.3-0.5-0.4c1.9-4.1,4.4-7.7,8.6-9.9c2.5-1.3,4.7-1.4,7.2,0.2
			c10.5,6.7,20.3,14.2,30.2,21.6c4.1,3.1,8.3,6,12.6,8.8c3.8,2.5,7.2,5.3,10.5,8.4c3.3,3.1,6.7,5.9,10.2,8.7
			c0.8,0.6,1.8,1.1,2.8,1.4c2.1,0.7,4.4-0.1,5.3-2.1c2.9-5.9,6-11.7,8.3-17.8c3.5-9.2,5.5-18.9,7.3-28.5c1.1-5.9,0.5-11.8,0.5-17.7
			c-6.6,0.3-12.2-1.2-15.8-6.9c-1.7,2.9-3.3,5.6-5,8.3c-3.1,5.1-6.3,10.2-9.5,15.3c-0.9,1.5-1.7,3.1-2.4,4.7c-0.5,1.2-1,2.3-0.5,3.7
			c0.2,0.4-0.2,1-0.2,1.6c-0.1,0.8-0.4,1.6-0.3,2.3c0.3,4.6,1.6,9,3.7,13c1.3,2.5,2.9,4.9,4.4,7.4c0.5,0.9,1,1.9,1.6,3.1
			c-1.5,0-2.1-0.8-2.7-1.5c-5.9-6.1-9.2-13.5-10.3-22c-2.1,4.1-3,8.8-5.5,12.6c-0.1-6.3,1.1-12.2,5.2-17.3c-2.3,0.2-4.2,1.9-6.9,1.5
			c1.6-1.8,3.4-2.8,5.5-3.4c-0.4-0.8-0.7-1.4-1.1-2c-1.7-2.9-3.3-5.8-5-8.8c-5.4-9.4-11.2-18.4-18.1-26.8c-2.2-2.7-4.7-5.2-7.2-7.6
			c-0.7-0.7-1.9-1.3-2.9-1.5c-3.4-0.6-6.7-0.4-9.9,0.9c-2.4,1-4.8,1.8-7.1,3c-7.3,3.7-13.7,8.6-17.5,15.9c-6.1,12-8.4,24.7-6.8,38.2
			c0.5,4.3,2.2,8.2,4.7,11.7c1,1.3,2.2,2.4,3.9,2.6c5.2,0.6,10.2,0.3,15.1-1.8c1.6-0.7,2.6-1.9,3.1-3.6c1.7-5.2,3.7-10.4,5.6-15.6
			c0.2-0.6,0.4-1.2,0.7-1.9c-3-1.9-5.9-3.7-8.8-5.6c-1-0.7-2-0.6-2.9-0.1c-1.4,0.9-2.8,1.8-4.1,2.8C268,232.4,266,234.1,264,235.7z
			 M201.6,64.3c0.7-0.6,0.9-0.8,1.1-1c3.8-4.3,8.5-6.6,14.2-7.3c5.1-0.7,10.2-0.1,15.3,0.4c3.7,0.4,7.3,0.9,11,0.3
			c3.8-0.6,6.9-2.4,9.3-5.4c0.3-0.4,0.4-1,0.5-1.5c0.1-1.8,0.6-2.2,2.2-1.4c1.3,0.6,2.5,1.4,3.7,2.1c3,1.9,4.2,5.1,3.2,8.5
			c-0.5,1.5-1.2,3-1.7,4.5c-0.9,2.6-1.9,5.1-2.6,7.7c-0.7,2.7-0.6,5.4,0.4,8c1.3,3.1,3.5,5.2,6.6,6.3c1.4-2.1-1.4-3.6-0.4-5.4
			c1.2-0.4,1.8,0.3,2.4,1.1c3.9,4.5,8.7,7.5,14.6,8.3c3.2,0.5,3.8,0,4.2-3.1c0.3-2,0.7-4.1,1.4-6c1.4-3.9,5-5.7,9-4.8
			c2.2,0.5,3.9,1.7,5.4,3.4c2.1,2.3,3.3,5.1,3.9,8.1c1.8,9.8-3,21.1-11.4,26.5c-1.8,1.1-3.8,1.9-5.8,2.9c-0.1,3.8,2.2,8.4,4.7,9.4
			c0.1-5.1,2.3-8.9,6.2-12.1c4.5-3.7,8.7-7.8,11.5-13c3.9-7.2,6.5-14.8,7.6-22.8c0.8-6,0.7-12-2.6-17.4c-0.1-0.2-0.2-0.4-0.3-0.7
			c-0.5-1.5-0.3-2.2,1-3c0.7-0.4,1.4-0.7,2-1.1c-2.1-2.2-4.2-4.1-6.1-6.3c-1.9-2.3-3.6-4.7-5.3-7.1c-6.7-9.4-15.7-16-26.1-20.6
			c-12.7-5.6-26.1-8-40-6.8c-6,0.5-11.9,1.7-17.2,4.7c-6.5,3.6-11.1,8.8-13.4,15.9c-0.5,1.5-0.6,3.1-1,4.9c0.8-0.3,1.2-0.5,1.5-0.5
			c0.5,0,1,0.2,1.5,0.3c-0.1,0.6-0.2,1.1-0.4,1.7c-0.1,0.2-0.3,0.3-0.5,0.5c-5.1,4.9-8.2,11-9.4,18
			C201.8,61.4,201.8,62.6,201.6,64.3z M462.9,108.8c-3.4,3.4-7.1,5.7-11.4,6.9c-3.7,1-7.5,1.8-11.3,2.2c-9.2,0.9-18.4-0.2-27.3-2.5
			c-7.1-1.8-13.9-4.4-20.2-8.1c-3.4-2-6.5-4.4-8.9-7.5c-3.2-4.2-4-8.8-2.1-13.8c0.2-0.5,0.3-1,0.5-1.5c-0.3-0.1-0.4-0.2-0.6-0.2
			c-0.3,0-0.6,0.1-0.9,0.2c-10.9,2.8-21.2,7.1-30.3,13.9c-9.5,7.1-16.3,16.1-19.7,27.6c-0.2,0.7-0.3,1.5-0.6,2.4
			c48.5,0.4,96.6,0.8,145.1,1.2C472.3,121.9,468.2,115.2,462.9,108.8z M226.7,469.6c-0.1,0-0.3-0.1-0.4-0.1c-0.2,0.3-0.4,0.7-0.5,1
			c-4.2,10.5-9.1,20.6-14.5,30.5c-6.2,11.4-12.8,22.5-19,33.9c-2,3.7-3.6,7.6-5.4,11.5c-0.8,1.7-0.6,3.5,0.4,5
			c1.1,1.7,2.2,3.4,3.4,4.9c11.8,13.9,25.7,25.3,42,33.8c0.5,0.3,1.1,0.4,1.9,0.7c0-0.9,0-1.6,0-2.2c-0.4-8.7-0.6-17.4-1.2-26.1
			c-0.4-6.5-1.2-13-2.5-19.5c-0.8-4.1-1-8.4-1.3-12.6c-0.4-6-0.4-12-0.7-18c-0.5-9.3-1.1-18.5-1.6-27.8
			C226.9,479.6,226.8,474.6,226.7,469.6z M275,579.5c-1,5.6,7.9,84.1,10.1,90c0.9-0.8,1.7-1.5,2.5-2.2c1.1-1,2.1-2,3.2-2.9
			c2.6-2.3,5.3-4.4,7.7-6.8c6.7-6.9,12.8-14.3,18.2-22.2c2.3-3.4,4.1-7,6.2-10.5c0.9-1.6,0.6-2.9-0.4-4.4
			c-4.5-6.7-9.8-12.8-15.6-18.5c-8.8-8.5-18.3-15.9-29.4-21.3C276.8,580.2,275.9,579.9,275,579.5z M462,107.5
			c-2.3-2.2-4.4-4.4-6.7-6.4c-19.4-16.4-41.8-22.4-66.8-18.4c-4.5,0.7-5.5,1.9-6.2,6.4c-0.7,4.3,0.9,7.9,3.7,11
			c2.8,3.1,6.3,5.4,10,7.3c14.2,7.2,29.2,10.2,45,9c5-0.4,9.8-1.5,14.3-3.8C457.7,111.5,459.9,110,462,107.5z M425.4,140.6
			c0-0.2-0.1-0.5-0.1-0.7c-0.7-0.1-1.5-0.4-2.2-0.4c-1.5-0.1-3.1,0.1-4.6-0.1c-2.2-0.3-3.5,0.8-4.5,2.5c-0.8,1.3-1.4,2.7-1.9,4.1
			c-0.6,1.5-1,3-1.6,4.5c-1.9,4.9-3.4,5.9-8.7,5.6c-0.4,0-0.8,0-1.2-0.1c-3.1-0.2-6.2,0-9.2,1.1c-2.3,0.8-4.5,1.5-6.8,2.3
			c-0.9,0.3-1.6,0.1-2-0.8c-0.4-1,0.3-1.5,1.1-1.8c0.8-0.3,1.6-0.6,2.9-1.1c-2.8-1.4-4.9-2.8-7.3-3.6c-1.7-0.6-2.9-1.4-3.7-2.8
			c-0.9-1.7-1.8-3.4-2.6-5.1c-0.5-1-0.7-2.2-1.3-3.1c-0.5-0.8-1.4-1.7-2.3-1.9c-1.4-0.3-2.9-0.1-4.3,0.2c-1.3,0.2-1.6,0.8-1.1,2.1
			c0.4,1.1,1,2,1.3,3.1c2,5.8,2.7,11.5-1.5,16.8c-4.1,5.1-4.8,5.1-3.8,13.9c0.1,0.5,0,1,0.2,1.4c0.2,0.6,0.4,1.3,0.9,1.6
			c3.2,2.3,6.8,4,10.4,5.8c0.1-0.6,0.1-0.9,0.3-1.2c2.7-4.8,6.2-8.6,11.3-11c5.3-2.4,10.9-3.7,16.5-4.9c4-0.9,7.7-2.6,11-5
			c2.4-1.7,4.1-3.8,5.1-6.5c0.8-2.2,1.8-4.3,2.4-6.5c0.7-2.8,2.3-4.8,4.7-6.3C423.8,142.1,424.6,141.3,425.4,140.6z M276,716.4
			c-0.3-0.1-0.5-0.2-0.7-0.1c-4.3,0.5-8.6,1.1-12.9,1.4c-2,0.2-3.5,1.1-5,2.4c-7.6,6.2-15.6,11.8-24.6,15.7
			c-9.5,4.1-18.8,3.6-27.9-1.2c-1.5-0.8-2.9-1.6-4.4-2.4c-1.8-0.9-2.3-0.9-3.4,0.8c-2.6,3.7-5,7.6-7.5,11.4
			c-0.4,0.7-0.6,1.5-0.9,2.2c-0.4,1.3,0,2.4,1.1,3.2c0.8,0.6,1.6,1,2.5,1.4c2.9,1.2,6,1.6,9.1,1.9c7.4,0.5,14.5-0.8,21.4-3.1
			c12.1-4.1,23.1-10.2,33.3-17.7c6.6-4.8,13-10,19.5-15.1C275.8,717,275.9,716.7,276,716.4z M55.5,339.8c0.7,0.4,1.2,0.7,1.8,1.1
			c2.1,1.2,4.2,1.1,6-0.4c1.7-1.4,3.2-3.1,4.6-4.9c2.2-2.8,4.2-5.8,6.4-8.7c1.1-1.5,2.5-2.9,4.3-3.3c3.1-0.7,6.3-1.3,9.4-1.5
			c1.3-0.1,2.2-0.3,3.1-1.2c1-0.9,1.9-1.9,3-2.8c0.3-0.3,1.1-0.3,1.5-0.1c0.6,0.3,0.7,1,0.2,1.7c-0.4,0.5-0.7,1.1-1.2,1.5
			c-1.3,1.3-2.7,2.5-4.1,3.7c-2,1.6-4.1,3.1-6.1,4.7c-1.4,1.1-1.4,2,0.2,2.9c1,0.5,2.1,0.9,3.1,1c2.8,0.3,5.1-0.9,7-2.9
			c1.1-1.2,2.3-2.6,3.7-3.3c3.1-1.6,6.4-3,10.1-1.9c0.5,0.2,1.1,0.1,1.7,0.2c2.4,0.4,4-0.7,5.2-2.6c2.2-3.4,4-6.9,3.5-11.2
			c-0.1-0.8,0-1.6,0-2.4c0-1,0-2,0-3.3c-3.6,0.4-7.1,0-10.4,1.1c-3.4,1.2-6.8,2.3-10.2,3.5c-7.4,2.4-14.9,4.4-22.7,4.5
			c-1.3,0-2.3,0.6-3.1,1.6c-0.7,1-1.4,1.9-2,3c-3.2,6.5-7.5,12.3-12.8,17.3C57.1,337.7,56.5,338.5,55.5,339.8z M266.3,179.1
			c0.9-0.5,1.6-1,2.3-1.4c7.8-5,15.5-10.1,23.4-15c3.7-2.4,3.9-2.3,3.4-6.8c-0.1-0.6-0.2-1.1-0.3-1.6c-0.8-3.8-1.7-7.6-2.6-11.5
			c-0.5,0.2-1.3,0.4-2,0.8c-3.4,1.6-6.8,3.2-10.1,4.9c-7.3,3.8-14.4,8-21,13c-0.6,0.4-1.3,1.1-1.4,1.8c-0.2,2.6-0.3,5.2-0.4,7.9
			c1.5-0.4,3-0.9,4.4-1.1c2.4-0.4,3.1,0.1,3.5,2.4C266,174.4,266.1,176.6,266.3,179.1z M311.5,135.2c1.5,0.1,2.8,0.2,4,0.2
			c2.7,0.1,5.4,0.1,8.1,0.1c8.2,0.1,16.3,0.2,24.5,0.2c46.7,0.3,93.4,0.5,140.1,0.8c1.8,0,3.7,0.1,5.5,0.1c1.4,0,2.3-0.7,2.3-1.6
			c-0.1-1.3-1.2-1.3-2.1-1.6c-0.2-0.1-0.5-0.1-0.7-0.1c-1.7-0.1-3.3-0.3-5-0.3c-14.1-0.1-28.2-0.2-42.2-0.3
			c-40.2-0.3-80.5-0.6-120.7-1c-2.6,0-5.3-0.2-7.9-0.3C314.4,131.4,312.6,132.4,311.5,135.2z M142.1,309.4c-6.4-3.2-12.7-5.4-20-4.2
			c-0.2,10.3-1.3,20.3-3.3,29.9c0.4,0.4,0.5,0.5,0.6,0.6c5.3,1.6,10.7,2.1,16.1,1.1c1.6-0.3,3-1.4,3.3-3.4c1-5.9,2-11.8,2.9-17.7
			C142,313.6,142,311.4,142.1,309.4z M288.6,687.7c0.7-0.5,1.1-0.8,1.5-1.1c7.8-7.5,15.7-14.8,23.3-22.4c2.2-2.2,4-4.8,5.4-7.5
			c2.4-4.7,0.8-10.3-3.4-13.5c-4.6,5.3-9,10.8-13.9,15.8c-5,5-10.5,9.6-15.9,14.5C286.5,678,287.5,682.7,288.6,687.7z M200.5,729.3
			c1,0.5,1.7,0.8,2.4,1.2c0.7,0.4,1.4,0.7,2.1,1.1c9.9,5.3,19.7,5.2,29.6,0.1c6.3-3.3,12.2-7.3,17.9-11.5c0.3-0.3,0.6-0.6,1-1
			c-0.4-0.2-0.5-0.3-0.6-0.3c-4.7,0.3-9.3-0.1-13.8-1.3c-0.8-0.2-1.8,0-2.5,0.3c-4.7,2.3-9.8,3.5-14.9,4.4c-4.3,0.8-8.7,1.5-13,2.4
			C205.7,725.4,203,726.9,200.5,729.3z M375.7,188.4c-2.3-0.8-4.4-1.2-6.2-2.1c-3.3-1.6-6.4-3.6-9.6-5.4c-1.5-0.9-3-1.9-4.5-2.6
			c-0.8-0.4-1.7-0.5-2.7-0.7c-0.2,0.8-0.4,1.3-0.5,1.9c-0.1,2-0.2,4-0.3,6c-0.1,4.2-0.2,8.4-0.3,12.7c0,0.8,0.2,1.8,0.6,2.4
			c2.6,4.2,9.2,7,14,6.1c1-0.2,1.3-0.7,1.6-1.5c1.6-3.6,3.3-7.2,5-10.8C373.8,192.3,374.7,190.4,375.7,188.4z M233.3,183.7
			c-4.7,5.7-10.2,10.5-13.3,17.1c-3,6.5-5.7,13-7,20.4c6.9-4,33.4-27.3,35-30.7c-1.7-0.3-3.4-0.5-5.2-0.8c-0.2,0.3-0.3,0.6-0.5,0.9
			c-1.3,2.1-3.7,2.5-5.4,0.7c-0.8-0.8-1.4-1.8-1.8-2.8C234.4,187.1,234,185.5,233.3,183.7z M286,124.1c-6.2,7.1-12.9,13.1-20.4,18.4
			c0.6,3.2,1.1,6.4,1.7,9.5c6.9-3.5,13.7-6.9,20.3-10.3C287,136,286.6,130.3,286,124.1z M389.4,154.4c1.2-2,2.2-3.7,3.2-5.3
			c1-1.6,2-3.3,3.1-4.9c1-1.6,2.1-3.1,3.3-4.6c-3.5-0.5-23-0.6-25,0c1,2.4,2,4.8,3.1,7.2c0.7,1.5,1.8,2.5,3.5,3.1
			c1.6,0.5,3,1.5,4.5,2.3C386.5,152.9,388,153.7,389.4,154.4z M263,172.5c-2.2,0.1-4,0.7-5.6,1.8c-2.3,1.6-4,3.6-4,6.7
			c0,1.6-0.2,3.2-0.8,4.7c-1.3,3.1-0.1,5.8,1.4,8.4c1,1.8,2.6,1.7,3.9,0.1c0.5-0.6,0.9-1.3,1.3-2c2-3.8,3.4-7.9,4-12.2
			C263.6,177.5,263.8,175.1,263,172.5z M85.2,325.4c-4.1,0-7.4,0.7-9.6,4.2c-2.4,3.6-4.6,7.4-7.7,10.4c-2.6,2.6-3.6,5.6-4.4,8.9
			c-0.2,0.7-0.3,1.4-0.2,2.1c0.2,2.1,1.8,2.8,3.3,1.3c1.3-1.3,2.4-2.8,3.3-4.4c1.1-2,1.9-4.2,2.9-6.3c1.3-2.8,3.2-4.9,5.9-6.4
			c1-0.5,2-1,3-1.5c-1-1.5-1.6-3.2-0.4-4.7C82.2,327.8,83.6,326.8,85.2,325.4z M258.2,84.2c-3.2,4.2-4.7,8.8-5.2,13.7
			c-0.2,2.2,0.9,3.6,3.1,4.2c3.8,1.1,7.3,0.2,10.5-1.9c0.5-0.3,0.9-0.8,1.5-1.4c-3.5-0.4-5.5-2.1-6.4-5.1c-0.4-1.4-0.6-2.9-0.5-4.2
			c0.3-2-0.1-3.4-1.9-4.4C259,84.9,258.7,84.6,258.2,84.2z M263.9,152.4c-0.8,0.6-1.6,1.1-2.3,1.7c-4.2,3.4-8.3,7-12.7,10.2
			c-4.7,3.5-5,3.4-2.7,9.4c0.1,0.1,0.2,0.2,0.3,0.3c0-0.1,0.1-0.1,0.1-0.2c1.8,0.7,3.7,1.4,5.8,2.1c0.5-1,1.4-2,1.6-3.2
			c0.5-3.1,0.9-6.3,0.9-9.5c0-1.9,0.6-3.2,2.2-4.2c2-1.3,3.9-2.8,5.9-4.1C263.9,154.4,264.6,153.8,263.9,152.4z M198.3,230.8
			c0.2,0.2,0.4,0.4,0.6,0.6c3.3-2.3,6.7-4.5,10-6.9c0.6-0.4,0.9-1.3,1-2c0.9-5.4,2.5-10.6,4.4-15.6c0.2-0.5,0.4-1.1,0.6-1.7
			C208.2,213.1,201.9,221.1,198.3,230.8z M239.5,189.9c1-1,1.6-1.9,0.8-3.2c-1.1-2-0.8-4-0.1-6c0.9-2.4,2.5-4.3,4.4-5.8
			c-0.9-2.9-2.1-4.9-3.5-6.1C234.4,174,234.4,186,239.5,189.9z M248.7,187.9c2.4-2.9,2.5-6.3,2.5-9.7c-3.4-2.2-5.2-2.4-7.9,2.3
			c-0.4,0.7-0.7,1.6-0.9,2.5c-0.5,2.4,0.9,4.3,3.3,4.6C246.6,187.8,247.6,187.8,248.7,187.9z M392.5,153.8c2.2-0.2,3.8-0.3,5.5-0.4
			c0.9,0,1.5-0.3,1.9-1.1c0.4-0.8,0.8-1.6,1.2-2.3c1.3-2.8,2.7-5.6,4-8.4c0.2-0.5,0.4-0.9,0.7-1.5c-2.8-0.6-4.6,0.7-5.9,2.5
			c-1.9,2.7-3.6,5.4-5.4,8.2C393.8,151.7,393.3,152.6,392.5,153.8z M431.7,139.7c-1.2,0-2.1,0-3.1,0c-0.3,2.5-1.9,4-3.9,5.1
			c-2.1,1.2-3.3,2.9-3.9,5.2c-0.4,1.6-1.1,3.2-1.6,4.8c-0.2,0.5-0.2,1-0.3,1.5c4.2-1.1,6.7-3.5,8-7.6c0.8-2.7,2.6-5.1,4-7.6
			C431,140.7,431.3,140.3,431.7,139.7z M80.9,337c-2.3,0.9-4.2,2.3-5.4,4.4c-0.8,1.5-1.4,3.3-2.3,4.7c-1.3,2.2-0.8,4.3,0.1,6.4
			c0.7,1.9,2,2,3.1,0.3c0.5-0.7,0.8-1.6,1-2.4c0.3-1.1,0.4-2.2,0.5-3.3C78.5,343.7,78.6,340,80.9,337z M237,97.3
			c-2.7,0.4-4.3-0.9-5.2-3.1c-0.4-0.9-0.6-1.8-0.7-2.8c-0.4-2.8,0.3-5.4,2-7.7c-1.1-1.8-2-3.5-4.1-4.1c-0.2,0.2-0.5,0.4-0.6,0.6
			c-0.1,0.3-0.3,0.6-0.3,0.9c-0.9,5.6-0.2,11,3.3,15.7c0.7,0.9,1.6,1.8,2.6,2.4C235.6,100.4,236.4,99.9,237,97.3z M141.5,330.4
			c0.7-0.4,1.2-0.8,1.8-1c1.5-0.6,2.1-1.6,2.1-3.3c0-2.5,0.4-5.1,0.6-7.6c0.2-2.3,0.5-4.5,0.7-6.9c-1.2-0.3-2.2-0.5-3.1-0.7
			C142.9,317.5,142.2,323.8,141.5,330.4z M263.5,87.9c-0.4,2.4-0.1,4.7,1.5,6.7c1.6,1.9,4.1,1.8,5.1-0.4c0.7-1.5,1-3.4,1-5.1
			c0.1-1.5-1.6-1.8-2.5-2.7c-0.2-0.2-0.6-0.3-0.8-0.4C266.5,87.9,266.5,87.9,263.5,87.9z M411.7,139.6c-1.2-0.4-2.2-0.2-3,1
			c-2.6,3.9-4.5,8.2-6.1,12.7c3,0.3,3.8,0,4.8-2.5C408.8,147.1,410.2,143.4,411.7,139.6z M406.6,78.1c-0.2-1-0.2-2-0.5-2.8
			c-0.9-2.5-3-3-5.1-1.3c-1.3,1.1-2.1,2.3-1.9,4.2C401.6,78.1,403.9,78.1,406.6,78.1z M80.1,349.8c1.9-0.8,2.3-0.9,2.7-2.7
			c0.7-3.2,1.2-6.4,1.9-10C80.1,340.5,80.8,345.2,80.1,349.8z M234.2,86.1c-1.8,4.5-0.5,8.6,2.7,9.2
			C236.7,92.1,235.8,89.2,234.2,86.1z"/>
		<path d="M227.1,711.4c0.4-2.2,0.8-4.4,1.2-6.5c2.7-14.7,4.7-29.5,6.2-44.4c2.5-25.1,3.7-50.2,3.2-75.5c-0.3-14.9-1.5-29.7-4-44.4
			c-0.4-2.3-0.5-4.6-0.6-6.9c-0.6-10.9-1.1-21.9-1.7-32.8c-0.5-9.7-1-19.5-1.4-29.2c-0.4-12.1-0.6-24.1-2-36.2
			c-1.8-15.1-5-30-9.3-44.6c-3.3-11.1-7.2-22-11.5-32.8c-0.3-0.7-0.6-1.5-0.9-2.3c1.2-0.5,2.1,0.2,3,0.5c4.6,1.4,9.1,3,13.7,4.2
			c13.4,3.4,26.5,1.6,39.2-3.5c0.1-0.1,0.3-0.1,0.7-0.2c0.7,0.8,1.4,1.8,2.1,2.7c6.2,7.9,11.4,16.4,14.5,26.1
			c3.7,11.7,5,23.7,3.9,35.8c-1.1,12.4-2.8,24.8-4.2,37.2c-1.1,9.2-2.1,18.4-3.2,27.6c-1.4,11.5-2.1,23.1-2.4,34.7
			c-0.1,5.2-0.9,10.3-1.2,15.5c-0.6,10.6-1.1,21.2-1.4,31.9c-0.3,11.8,0.6,23.5,1.9,35.2c1.6,13.2,3.1,26.4,4.6,39.6
			c2.2,20,5.6,39.7,11.3,59c0.3,1.1,0.7,2.3,1.1,3.4c0.5,1.2,0.3,2.2-0.9,2.8c-3.7,2-7.4,3.9-11.6,4.4c-7.9,1-15.9,1.9-23.8,2.8
			c-4.2,0.5-8.3,0.3-12.4-0.7C236.8,713.5,232.2,712.5,227.1,711.4z"/>
		<path class="st0" d="M294.2,164.6c0.2,0.4,0.5,0.6,0.6,0.9c0.8,3.5,2.5,6.6,3.9,9.8c1.1,2.6,1.9,5.4,2.7,8.2
			c0.2,0.7,0.2,1.5,0.4,2.7c-0.6-0.4-1-0.5-1.2-0.8c-2.4-3.3-6-4.2-9.7-4.3c-2.2-0.1-4.5,0.3-6.6,0.9c-8.1,2.5-15.4,6.5-21.5,12.6
			c-3.3,3.3-5.9,7-7.6,11.2c-4.7,11.1-6.8,22.6-5.7,34.7c0.4,5.2,2,10,4.8,14.4c2.1,3.3,5,5,8.9,5.2c4.1,0.2,8.1-0.2,12.1-1.3
			c0.7-0.2,1.3-0.4,2.3-0.6c-0.2,0.9-0.3,1.6-0.5,2.3c-3.3,13.4-5.5,27.1-7.1,40.8c-0.4,4-0.8,8-1.3,11.9c-0.4,2.9,0.1,5.8,1,8.5
			c2,6.7,4.1,13.3,6.1,19.9c0.7,2.2,0.8,2.5-1.1,3.8c-4.3,2.9-8.5,6.1-13.1,8.4c-3.8,1.9-8.2,2.8-12.3,3.7
			c-10.8,2.5-21.4,1.5-31.9-2c-2.2-0.7-4.4-1.6-6.6-2.2c-1.7-0.5-3.5-0.9-5.6-1.4c-0.2-1.4-0.4-3.1-0.7-4.8
			c-1.4-8.3-2.8-16.6-4.2-24.8c-2.4-14.2-4.1-28.5-4.2-42.9c-0.1-12.5,0.2-24.9,0.1-37.4c0-3.7,1.1-6,4.6-7.9
			c9.4-5.3,17.6-12.1,25.9-19c8.1-6.7,15.9-13.7,23-21.4c0.2-0.2,0.5-0.4,0.8-0.7c0.5,0.9,0.8,1.6,1.3,2.4c2.3,3.7,6.1,3.9,8.6,0.4
			c2.2-3.1,3.5-6.6,4.5-10.3c0.4-1.4,1-2.4,2.3-3.2c7.7-4.9,15.3-10,22.9-15C291.3,166.3,292.7,165.5,294.2,164.6z"/>
		<path class="st1" d="M163.1,344c-0.3,23.4-0.7,46.8,0.9,70.6c-3.3-1.2-6.4-1.2-9.3,0c-2.9,1.2-5.6,2.6-8.7,4.1
			c-0.1-1.6-0.3-3.2-0.3-4.8c0.1-10.5,0.1-21,0.4-31.4c0.4-16.5,1-33.1,1.6-49.6c0.1-3.8,0.3-7.7,0.5-11.5c0.1-1.7,0.4-3.5,0.7-5.2
			c0.5-3.1,1-6.3,1.6-9.6c1.9-0.8,4-0.4,6,0.2c2.1,0.6,4.2,0.9,6.4,0.5c3-0.5,5.5-2,7.7-4.1c1.4-1.3,2.7-2.7,4.1-4
			c1.3-1.3,2.7-1.7,4.6-0.9c3.8,1.6,7.8,1.6,11.8,0.7c0.8-0.2,1.5-0.4,2.5-0.6c0.1,0.6,0.3,1.1,0.4,1.6c1.3,9.7,2.8,19.3,4,29
			c0.9,7.4,1.6,14.8,2,22.2c1,18.2,3.3,36.3,8,54c0.7,2.8,1.2,5.8,1.5,8.7c0.5,4.8-0.5,9.3-3.3,13.2c-1,1.5-2.4,2.8-3.9,3.9
			c-2,1.5-4.2,1.8-6.6,0.8c-0.6-0.2-1.2-0.5-1.8-0.7c-2.5-1-5-0.8-7.4,0.4c-1.3,0.7-2.5,1.5-3.7,2.2c-1.4,0.8-2.8,1.6-4.3,2.2
			c-3.6,1.4-6.3,0.5-8.1-2.9c-0.7-1.4-1.2-3-1.5-4.5c-0.5-2.3-0.5-4.6-1-6.9c-0.3-1.5-0.7-3-1.4-4.3c-0.6-1.2-0.9-2.3-1-3.6
			c-0.3-11.7-0.7-23.3-1-35c-0.3-11-0.5-21.9-0.7-32.9c0-0.6-0.1-1.2-0.1-1.8C163.5,344,163.3,344,163.1,344z M180.5,369.2
			c-0.2,0-0.3,0-0.5-0.1c0-0.5-0.1-0.9-0.1-1.4c-0.6-10.9-1.7-21.7-3.5-32.4c-1-5.9-2.2-11.8-3.4-17.7c-0.2-0.9-0.6-1.8-0.9-2.7
			c-0.2,0.1-0.3,0.1-0.5,0.2c0.4,2.5,0.8,5,1.3,7.5c2.2,13.3,4,26.6,5.1,40c0.4,4.2,0.7,8.4,1.1,12.7c0.1,0.8-0.1,1.7,1.1,2.5
			c0.2-0.7,0.5-1.3,0.6-1.9c2.1-14.9,4.2-29.8,6.3-44.6c0.2-1.2,0.3-2.3,0.5-3.5c2.3,29.3,2.4,58.5-0.4,87.8
			c0.5-2.1,0.9-4.2,1.2-6.3c1.8-14.3,2.5-28.7,2.2-43.1c-0.3-13.3-1-26.7-1.5-40c-0.2-5.4-0.3-10.7-0.4-16.1c0-0.8,0.3-1.7-1-2.3
			c0.2,10.4-1.4,20.5-2.8,30.7C183.3,348.6,181.9,358.9,180.5,369.2z"/>
		<path class="st2" d="M264,235.7c2-1.7,4-3.4,6.1-5c1.3-1,2.7-2,4.1-2.8c0.9-0.6,1.9-0.6,2.9,0.1c2.9,1.9,5.8,3.7,8.8,5.6
			c-0.3,0.8-0.5,1.3-0.7,1.9c-1.9,5.2-3.8,10.3-5.6,15.6c-0.6,1.8-1.5,3-3.1,3.6c-4.9,2-9.9,2.4-15.1,1.8c-1.7-0.2-2.9-1.3-3.9-2.6
			c-2.5-3.5-4.2-7.4-4.7-11.7c-1.6-13.4,0.6-26.2,6.8-38.2c3.8-7.3,10.2-12.2,17.5-15.9c2.3-1.2,4.7-2,7.1-3
			c3.2-1.3,6.5-1.5,9.9-0.9c1,0.2,2.2,0.7,2.9,1.5c2.5,2.5,5,4.9,7.2,7.6c6.9,8.4,12.8,17.4,18.1,26.8c1.7,2.9,3.3,5.8,5,8.8
			c0.3,0.6,0.7,1.2,1.1,2c-2.2,0.6-3.9,1.6-5.5,3.4c2.7,0.4,4.6-1.3,6.9-1.5c-4.1,5.1-5.3,11-5.2,17.3c2.5-3.9,3.4-8.5,5.5-12.6
			c1.1,8.5,4.5,15.8,10.3,22c0.6,0.6,1.2,1.5,2.7,1.5c-0.6-1.2-1.1-2.1-1.6-3.1c-1.5-2.5-3.1-4.9-4.4-7.4c-2.1-4.1-3.5-8.4-3.7-13
			c0-0.8,0.2-1.5,0.3-2.3c0.1-0.5,0.4-1.1,0.2-1.6c-0.5-1.4,0-2.5,0.5-3.7c0.7-1.6,1.5-3.2,2.4-4.7c3.1-5.1,6.3-10.2,9.5-15.3
			c1.7-2.7,3.3-5.5,5-8.3c3.6,5.7,9.2,7.2,15.8,6.9c0,5.9,0.5,11.8-0.5,17.7c-1.8,9.7-3.7,19.3-7.3,28.5c-2.3,6.1-5.5,11.9-8.3,17.8
			c-1,2-3.2,2.7-5.3,2.1c-1-0.3-2-0.8-2.8-1.4c-3.5-2.8-7-5.6-10.2-8.7c-3.3-3.1-6.7-5.9-10.5-8.4c-4.3-2.8-8.5-5.7-12.6-8.8
			c-9.9-7.5-19.7-15-30.2-21.6c-2.5-1.6-4.8-1.5-7.2-0.2c-4.2,2.2-6.7,5.8-8.6,9.9C263.7,235.5,263.8,235.6,264,235.7z"/>
		<path class="st3" d="M201.6,64.3c0.1-1.7,0.1-2.9,0.3-4c1.2-7,4.3-13,9.4-18c0.2-0.2,0.4-0.3,0.5-0.5c0.2-0.6,0.3-1.1,0.4-1.7
			c-0.5-0.1-1-0.3-1.5-0.3c-0.4,0-0.7,0.2-1.5,0.5c0.4-1.8,0.5-3.4,1-4.9c2.3-7.1,7-12.3,13.4-15.9c5.3-2.9,11.2-4.2,17.2-4.7
			c13.9-1.2,27.3,1.2,40,6.8c10.4,4.6,19.3,11.2,26.1,20.6c1.7,2.4,3.4,4.9,5.3,7.1c1.8,2.2,4,4.1,6.1,6.3c-0.6,0.3-1.3,0.7-2,1.1
			c-1.3,0.8-1.5,1.6-1,3c0.1,0.2,0.2,0.5,0.3,0.7c3.3,5.4,3.5,11.4,2.6,17.4c-1.1,8.1-3.7,15.7-7.6,22.8c-2.8,5.2-7,9.4-11.5,13
			c-3.9,3.2-6.1,7.1-6.2,12.1c-2.5-1-4.7-5.5-4.7-9.4c2-1,4-1.7,5.8-2.9c8.4-5.4,13.3-16.6,11.4-26.5c-0.6-3-1.8-5.8-3.9-8.1
			c-1.5-1.6-3.2-2.9-5.4-3.4c-4-1-7.7,0.9-9,4.8c-0.7,1.9-1.1,4-1.4,6c-0.4,3.1-1,3.5-4.2,3.1c-6-0.9-10.8-3.8-14.6-8.3
			c-0.6-0.8-1.2-1.5-2.4-1.1c-1,1.8,1.7,3.3,0.4,5.4c-3.2-1.1-5.4-3.2-6.6-6.3c-1-2.6-1.1-5.4-0.4-8c0.7-2.6,1.7-5.2,2.6-7.7
			c0.5-1.5,1.3-2.9,1.7-4.5c1-3.4-0.2-6.6-3.2-8.5c-1.2-0.8-2.4-1.5-3.7-2.1c-1.6-0.8-2.1-0.4-2.2,1.4c0,0.5-0.1,1.1-0.5,1.5
			c-2.4,2.9-5.5,4.8-9.3,5.4c-3.7,0.5-7.3,0.1-11-0.3c-5.1-0.5-10.2-1.1-15.3-0.4c-5.6,0.8-10.4,3-14.2,7.3
			C202.6,63.5,202.3,63.6,201.6,64.3z"/>
		<path class="st4" d="M224.8,72.2c-1.6-4.4-4-8.6-4.3-13.7c3.1-0.2,6,0,8.8,0.2c3.7,0.3,7.5,0.6,11.2,0.6c3.8,0,7.3-1.1,10.1-3.7
			c1.4-1.3,2.5-3,4-4.8c1.1,0.7,2.5,1.4,3.7,2.4c1.7,1.4,2,3.2,1.3,5.2c-0.5,1.5-1.3,2.9-1.8,4.4c-1,2.9-1.9,5.9-2.8,8.9
			c-0.3,0.9-0.8,1.4-1.4,2c-1.5,1.3-2.9,2.7-4.1,4.2c-0.6,0.7-1,1.7-0.1,2.8c1.7-1.6,3.3-3.1,5.2-4.8c0.7,2.1,1.2,3.9,1.8,5.6
			c-1,1.9-2.2,3.8-3,5.8c-1.1,2.6-2.1,5.4-2.9,8.1c-1.4,4.6,0.8,8.3,5.5,9.5c8.1,2,16.7-3.4,18.8-11.9c0.2-0.9,0.4-1.9,0.6-3
			c0.9,0.3,1.7,0.6,2.5,1c2,0.8,4,1.1,6.1,0.9c2.4-0.3,3.5-1.5,3.7-3.9c0.1-1.6,0.1-3.2,0.5-4.7c0.6-2.5,1.9-4.7,4.7-5.3
			c2.8-0.6,5,0.8,6.7,2.9c1.8,2.1,2.8,4.7,3.1,7.4c0.9,8.9-2.4,16.1-9.3,21.7c-1.8,1.4-3.8,2.3-6,2.9c-2.6,0.6-3.1,1.1-2.4,3.6
			c0.8,2.8-0.2,4.6-2,6.6c-8.5,9.2-17.9,17.2-29.1,22.7c-2.6,1.3-5.5,2.2-8.3,2.9c-4.2,1.1-7.8,0-10.7-3.5
			c-5.5-6.5-10.1-13.4-12.3-21.7c-1.6-6.1-1.1-12.2,0.1-18.3c0.9-4.8,1.9-9.5,3-14.8c0.4,1.1,0.7,1.7,0.9,2.4c0.9,2.4,2,4.7,3.9,6.6
			c1,0.9,2.1,1.8,3.3,2.4c2.7,1.2,5,0,5.7-2.9c0.3-1.1,0.4-2.4,0.3-3.6c-0.5-5-2.2-9.6-5-13.9c-0.6-0.9-1.3-1.8-2.1-2.6
			c-2.3-2.2-4.2-2.1-6.4,0.6C225.6,77,225.1,74.6,224.8,72.2c0.5,0.7,1.2,1.3,2.2,0.7c2.2-1.3,4.1-0.5,5.6,1.1
			c1.4,1.5,2.5,3.3,3.8,4.9c0.4,0.6,0.5,1.6,1.9,1.6c0-0.7,0.1-1.5-0.2-2.2c-0.4-1.1-0.9-2.2-1.6-3.2c-1.3-2-2.8-3.7-5-4.7
			C228.7,69,226.3,69.6,224.8,72.2z M242.6,131c3.3-0.4,6.3-1,9.3-1.2c3.5-0.3,5.3-2.5,6.8-5.3c0.4-0.7,0.5-1.4-0.2-1.9
			c-0.8-0.5-1.3,0-1.7,0.7c-0.2,0.4-0.5,0.8-0.7,1.3c-0.8,1.6-2.1,2.4-3.9,2.8c-4.3,0.9-8.7,1.3-13.1,1.1c-2.1-0.1-4.3-0.1-5.9-2.1
			c-0.1-0.1-0.3-0.2-0.4-0.2c-0.5,0-1.3-0.3-1.5,0c-0.4,0.4-0.6,1.2-0.5,1.6c0.4,1.3,1.3,2.2,2.8,2.3
			C236.6,130.4,239.7,130.7,242.6,131z M241.1,99.2c-0.6,1.6-0.9,2.7-1.3,3.8c-0.7,1.8-1.9,3.1-3.8,3.7c-0.7,0.2-1.4,0.5-2,0.8
			c-2.1,1-3.3,2.8-3.5,5.1c-0.4,3.7,2.8,6.7,6.5,5.9c-1-1-2-2-2.8-3c-1.8-2-1.3-4.5,1.2-5.7c0.9-0.4,1.8-0.7,2.6-1.1
			C241.1,106.9,242.5,103.2,241.1,99.2z M291.7,90.3c-0.2-0.1-0.4-0.2-0.6-0.2c-0.4,0.5-0.9,1-1.1,1.6c-0.8,2.9-1.8,5.8-2.3,8.7
			c-0.4,2.4,0.1,2.8,2.6,2.6c2.1-0.2,2.5,0.2,3.2,2.3c0.2,0.6,0.5,1.2,0.8,1.8c1.3-0.4,1.5-1.1,1.4-2c-0.1-2.1-1.8-3.9-3.9-4.3
			c-0.7-0.1-1.4-0.1-2.3-0.2c0.4-1.9,0.8-3.6,1.2-5.3C291.1,93.7,292.3,92.1,291.7,90.3z"/>
		<path class="st5" d="M462.9,108.8c5.3,6.3,9.4,13,12.5,20.7c-48.5-0.4-96.7-0.8-145.1-1.2c0.2-1,0.3-1.7,0.6-2.4
			c3.3-11.5,10.1-20.5,19.7-27.6c9.1-6.8,19.4-11.1,30.3-13.9c0.3-0.1,0.6-0.1,0.9-0.2c0.1,0,0.3,0.1,0.6,0.2
			c-0.2,0.5-0.3,1-0.5,1.5c-1.9,5-1.1,9.6,2.1,13.8c2.4,3.2,5.5,5.5,8.9,7.5c6.3,3.8,13.1,6.3,20.2,8.1c9,2.3,18.1,3.4,27.3,2.5
			c3.8-0.4,7.6-1.2,11.3-2.2C455.8,114.5,459.5,112.2,462.9,108.8z"/>
		<path d="M226.7,469.6c0.2,5,0.3,10,0.5,15.1c0.5,9.3,1.1,18.5,1.6,27.8c0.3,6,0.4,12,0.7,18c0.3,4.2,0.5,8.5,1.3,12.6
			c1.3,6.4,2,13,2.5,19.5c0.6,8.7,0.8,17.4,1.2,26.1c0,0.6,0,1.3,0,2.2c-0.8-0.3-1.3-0.5-1.9-0.7c-16.2-8.4-30.1-19.8-42-33.8
			c-1.3-1.5-2.3-3.2-3.4-4.9c-1-1.6-1.2-3.3-0.4-5c1.8-3.8,3.3-7.8,5.4-11.5c6.3-11.3,12.8-22.5,19-33.9c5.4-9.9,10.3-20,14.5-30.5
			c0.1-0.4,0.3-0.7,0.5-1C226.4,469.5,226.5,469.6,226.7,469.6z"/>
		<path d="M275,579.5c0.9,0.4,1.8,0.7,2.6,1.1c11.1,5.3,20.6,12.7,29.4,21.3c5.8,5.6,11.1,11.7,15.6,18.5c1,1.5,1.3,2.9,0.4,4.4
			c-2,3.5-3.9,7.2-6.2,10.5c-5.4,7.9-11.5,15.3-18.2,22.2c-2.4,2.4-5.1,4.6-7.7,6.8c-1.1,1-2.1,1.9-3.2,2.9
			c-0.8,0.7-1.7,1.4-2.5,2.2C282.9,663.6,274,585.1,275,579.5z"/>
		<path class="st1" d="M462,107.5c-2,2.5-4.3,3.9-6.8,5.2c-4.5,2.3-9.3,3.4-14.3,3.8c-15.8,1.2-30.9-1.8-45-9
			c-3.7-1.9-7.2-4.2-10-7.3c-2.8-3.1-4.4-6.7-3.7-11c0.7-4.5,1.7-5.6,6.2-6.4c25.1-4,47.4,2,66.8,18.4
			C457.6,103.1,459.7,105.3,462,107.5z"/>
		<path class="st4" d="M425.4,140.6c-0.9,0.7-1.6,1.4-2.6,2c-2.4,1.5-4,3.5-4.7,6.3c-0.6,2.2-1.5,4.4-2.4,6.5
			c-1,2.7-2.8,4.8-5.1,6.5c-3.4,2.4-7,4.1-11,5c-5.6,1.3-11.2,2.5-16.5,4.9c-5.1,2.3-8.7,6.2-11.3,11c-0.1,0.3-0.2,0.6-0.3,1.2
			c-3.6-1.7-7.1-3.5-10.4-5.8c-0.4-0.3-0.7-1-0.9-1.6c-0.2-0.4-0.1-0.9-0.2-1.4c-1-8.8-0.2-8.7,3.8-13.9c4.2-5.3,3.5-11,1.5-16.8
			c-0.4-1.1-1-2-1.3-3.1c-0.5-1.3-0.2-1.8,1.1-2.1c1.4-0.3,2.9-0.4,4.3-0.2c0.9,0.2,1.7,1.1,2.3,1.9c0.6,0.9,0.8,2.1,1.3,3.1
			c0.8,1.7,1.6,3.5,2.6,5.1c0.8,1.4,2,2.3,3.7,2.8c2.4,0.8,4.5,2.2,7.3,3.6c-1.3,0.5-2.1,0.7-2.9,1.1c-0.8,0.3-1.4,0.9-1.1,1.8
			c0.3,0.9,1.1,1.1,2,0.8c2.3-0.8,4.6-1.5,6.8-2.3c3-1.1,6.1-1.3,9.2-1.1c0.4,0,0.8,0,1.2,0.1c5.2,0.3,6.7-0.7,8.7-5.6
			c0.6-1.5,1-3,1.6-4.5c0.6-1.4,1.2-2.8,1.9-4.1c1-1.7,2.3-2.8,4.5-2.5c1.5,0.2,3,0,4.6,0.1c0.7,0,1.5,0.2,2.2,0.4
			C425.4,140.2,425.4,140.4,425.4,140.6z"/>
		<path class="st0" d="M276,716.4c-0.2,0.3-0.2,0.5-0.4,0.6c-6.5,5.1-12.9,10.3-19.5,15.1c-10.3,7.5-21.3,13.6-33.3,17.7
			c-6.9,2.4-14.1,3.6-21.4,3.1c-3.1-0.2-6.2-0.7-9.1-1.9c-0.9-0.4-1.7-0.8-2.5-1.4c-1.1-0.8-1.5-1.9-1.1-3.2
			c0.3-0.8,0.4-1.6,0.9-2.2c2.5-3.8,4.9-7.7,7.5-11.4c1.2-1.7,1.6-1.7,3.4-0.8c1.5,0.7,3,1.6,4.4,2.4c9.1,4.8,18.5,5.3,27.9,1.2
			c9-3.9,17-9.5,24.6-15.7c1.5-1.3,3-2.2,5-2.4c4.3-0.4,8.6-0.9,12.9-1.4C275.5,716.3,275.7,716.4,276,716.4z"/>
		<path class="st4" d="M55.5,339.8c1.1-1.3,1.6-2.2,2.4-2.9c5.3-5,9.5-10.7,12.8-17.3c0.5-1.1,1.3-2,2-3c0.7-1,1.7-1.6,3.1-1.6
			c7.9-0.1,15.3-2.1,22.7-4.5c3.4-1.1,6.8-2.3,10.2-3.5c3.3-1.1,6.8-0.7,10.4-1.1c0,1.3,0,2.3,0,3.3c0,0.8-0.2,1.6,0,2.4
			c0.6,4.3-1.3,7.8-3.5,11.2c-1.2,1.9-2.8,3-5.2,2.6c-0.6-0.1-1.1,0-1.7-0.2c-3.7-1.1-7,0.3-10.1,1.9c-1.4,0.8-2.6,2.1-3.7,3.3
			c-1.9,2-4.2,3.3-7,2.9c-1.1-0.1-2.2-0.5-3.1-1c-1.6-0.9-1.6-1.8-0.2-2.9c2-1.6,4.1-3.1,6.1-4.7c1.4-1.2,2.8-2.4,4.1-3.7
			c0.5-0.4,0.8-1,1.2-1.5c0.4-0.6,0.4-1.3-0.2-1.7c-0.4-0.2-1.2-0.1-1.5,0.1c-1.1,0.8-2,1.8-3,2.8c-0.9,0.9-1.8,1.1-3.1,1.2
			c-3.2,0.2-6.3,0.8-9.4,1.5c-1.9,0.4-3.2,1.7-4.3,3.3c-2.1,2.9-4.1,5.9-6.4,8.7c-1.4,1.7-2.9,3.4-4.6,4.9c-1.8,1.5-3.9,1.6-6,0.4
			C56.7,340.6,56.2,340.2,55.5,339.8z"/>
		<path class="st2" d="M266.3,179.1c-0.2-2.5-0.3-4.7-0.6-6.8c-0.4-2.3-1.1-2.8-3.5-2.4c-1.5,0.3-2.9,0.7-4.4,1.1
			c0.1-2.7,0.1-5.3,0.4-7.9c0.1-0.6,0.8-1.3,1.4-1.8c6.6-5,13.7-9.2,21-13c3.3-1.7,6.7-3.3,10.1-4.9c0.7-0.3,1.4-0.6,2-0.8
			c0.9,3.9,1.7,7.7,2.6,11.5c0.1,0.5,0.2,1.1,0.3,1.6c0.5,4.4,0.3,4.4-3.4,6.8c-7.8,4.9-15.6,10-23.4,15
			C267.9,178.1,267.2,178.6,266.3,179.1z"/>
		<path class="st6" d="M311.5,135.2c1.1-2.7,2.9-3.7,5.9-3.6c2.6,0.1,5.3,0.3,7.9,0.3c40.2,0.3,80.5,0.7,120.7,1
			c14.1,0.1,28.2,0.2,42.2,0.3c1.7,0,3.4,0.2,5,0.3c0.2,0,0.5,0,0.7,0.1c0.9,0.3,2,0.3,2.1,1.6c0,0.9-0.9,1.6-2.3,1.6
			c-1.8,0-3.7-0.1-5.5-0.1c-46.7-0.3-93.4-0.5-140.1-0.8c-8.2,0-16.3-0.1-24.5-0.2c-2.7,0-5.4,0-8.1-0.1
			C314.3,135.4,313.1,135.2,311.5,135.2z"/>
		<path class="st2" d="M142.1,309.4c-0.1,2-0.1,4.2-0.4,6.3c-0.9,5.9-1.9,11.8-2.9,17.7c-0.3,1.9-1.7,3.1-3.3,3.4
			c-5.4,1-10.8,0.5-16.1-1.1c-0.1,0-0.2-0.2-0.6-0.6c2-9.6,3.1-19.6,3.3-29.9C129.4,304,135.7,306.2,142.1,309.4z"/>
		<path class="st0" d="M288.6,687.7c-1.1-5-2.1-9.7-3.1-14.2c5.5-4.9,11-9.4,15.9-14.5c4.9-5,9.3-10.5,13.9-15.8
			c4.2,3.2,5.9,8.8,3.4,13.5c-1.4,2.7-3.3,5.4-5.4,7.5c-7.6,7.6-15.5,15-23.3,22.4C289.7,687,289.3,687.2,288.6,687.7z"/>
		<path class="st2" d="M200.5,729.3c2.5-2.4,5.2-3.9,8.3-4.6c4.3-0.9,8.6-1.7,13-2.4c5.1-0.9,10.2-2.2,14.9-4.4
			c0.7-0.3,1.7-0.5,2.5-0.3c4.5,1.2,9.1,1.7,13.8,1.3c0.1,0,0.3,0.1,0.6,0.3c-0.4,0.4-0.6,0.7-1,1c-5.7,4.3-11.6,8.3-17.9,11.5
			c-9.9,5.1-19.7,5.3-29.6-0.1c-0.7-0.4-1.4-0.7-2.1-1.1C202.2,730.2,201.5,729.8,200.5,729.3z"/>
		<path class="st2" d="M375.7,188.4c-1,2-2,4-2.9,5.9c-1.7,3.6-3.4,7.2-5,10.8c-0.3,0.8-0.7,1.3-1.6,1.5c-4.8,0.9-11.4-2-14-6.1
			c-0.4-0.7-0.6-1.6-0.6-2.4c0-4.2,0.2-8.4,0.3-12.7c0.1-2,0.2-4,0.3-6c0-0.5,0.3-1.1,0.5-1.9c1,0.3,1.9,0.3,2.7,0.7
			c1.6,0.8,3,1.8,4.5,2.6c3.2,1.8,6.3,3.7,9.6,5.4C371.3,187.2,373.4,187.6,375.7,188.4z"/>
		<path class="st2" d="M233.3,183.7c0.7,1.9,1.1,3.4,1.8,4.8c0.5,1,1.1,2,1.8,2.8c1.7,1.8,4.1,1.4,5.4-0.7c0.2-0.3,0.3-0.5,0.5-0.9
			c1.7,0.3,3.4,0.5,5.2,0.8c-1.6,3.4-28,26.7-35,30.7c1.3-7.3,3.9-13.9,7-20.4C223.1,194.1,228.5,189.4,233.3,183.7z"/>
		<path class="st4" d="M286,124.1c0.5,6.3,1,12,1.5,17.7c-6.6,3.4-13.4,6.8-20.3,10.3c-0.5-3.1-1.1-6.3-1.7-9.5
			C273.1,137.2,279.8,131.1,286,124.1z"/>
		<path class="st7" d="M263,172.5c0.7,2.6,0.5,5.1,0.2,7.5c-0.6,4.3-2,8.4-4,12.2c-0.4,0.7-0.8,1.4-1.3,2c-1.3,1.6-2.9,1.6-3.9-0.1
			c-1.5-2.6-2.6-5.2-1.4-8.4c0.6-1.4,0.8-3.1,0.8-4.7c0-3.1,1.7-5.1,4-6.7C259,173.2,260.8,172.6,263,172.5z"/>
		<path class="st4" d="M85.2,325.4c-1.6,1.4-3,2.4-4,3.7c-1.2,1.5-0.6,3.2,0.4,4.7c-1,0.5-2,1-3,1.5c-2.7,1.4-4.6,3.6-5.9,6.4
			c-0.9,2.1-1.8,4.3-2.9,6.3c-0.9,1.6-2,3.1-3.3,4.4c-1.5,1.5-3.1,0.8-3.3-1.3c-0.1-0.7,0-1.4,0.2-2.1c0.8-3.3,1.8-6.3,4.4-8.9
			c3-3,5.3-6.8,7.7-10.4C77.8,326.1,81.1,325.4,85.2,325.4z"/>
		<path class="st8" d="M258.2,84.2c0.5,0.4,0.8,0.7,1.1,0.9c1.8,1,2.2,2.4,1.9,4.4c-0.2,1.4,0.1,2.9,0.5,4.2c0.8,3,2.9,4.7,6.4,5.1
			c-0.6,0.6-1,1-1.5,1.4c-3.2,2.1-6.7,3-10.5,1.9c-2.2-0.6-3.3-2-3.1-4.2C253.5,92.9,255,88.4,258.2,84.2z"/>
		<path class="st2" d="M263.9,152.4c0.7,1.4,0,2-0.9,2.6c-2,1.3-3.9,2.8-5.9,4.1c-1.5,1-2.1,2.3-2.2,4.2c-0.1,3.2-0.4,6.4-0.9,9.5
			c-0.2,1.2-1.1,2.2-1.6,3.2c-2.1-0.8-4-1.5-5.8-2.1c0,0.1-0.1,0.1-0.1,0.2c-0.1-0.1-0.3-0.2-0.3-0.3c-2.4-6-2-5.9,2.7-9.4
			c4.4-3.2,8.5-6.8,12.7-10.2C262.3,153.5,263.1,153,263.9,152.4z"/>
		<path class="st0" d="M198.3,230.8c3.6-9.7,9.9-17.8,16.6-25.7c-0.2,0.6-0.3,1.1-0.6,1.7c-2,5.1-3.5,10.3-4.4,15.6
			c-0.1,0.7-0.5,1.6-1,2c-3.3,2.4-6.7,4.6-10,6.9C198.7,231.2,198.5,231,198.3,230.8z"/>
		<path class="st7" d="M239.5,189.9c-5.1-3.9-5.1-15.9,1.6-21.2c1.4,1.2,2.6,3.2,3.5,6.1c-1.9,1.6-3.5,3.4-4.4,5.8
			c-0.8,2-1,4.1,0.1,6C241.1,188.1,240.5,189,239.5,189.9z"/>
		<path class="st7" d="M248.7,187.9c-1-0.1-2.1-0.1-3.1-0.3c-2.4-0.4-3.8-2.3-3.3-4.6c0.2-0.8,0.5-1.7,0.9-2.5
			c2.7-4.7,4.5-4.5,7.9-2.3C251.2,181.6,251.1,185,248.7,187.9z"/>
		<path class="st4" d="M392.5,153.8c0.7-1.2,1.3-2.1,1.9-3c1.8-2.7,3.5-5.5,5.4-8.2c1.4-1.9,3.2-3.1,5.9-2.5c-0.2,0.6-0.4,1-0.7,1.5
			c-1.3,2.8-2.7,5.6-4,8.4c-0.4,0.8-0.8,1.6-1.2,2.3c-0.4,0.8-1,1.1-1.9,1.1C396.4,153.5,394.7,153.6,392.5,153.8z"/>
		<path class="st4" d="M431.7,139.7c-0.4,0.6-0.7,1-0.9,1.4c-1.4,2.5-3.1,4.9-4,7.6c-1.3,4.1-3.8,6.5-8,7.6c0.1-0.5,0.1-1,0.3-1.5
			c0.5-1.6,1.2-3.1,1.6-4.8c0.6-2.3,1.8-4,3.9-5.2c2-1.1,3.6-2.6,3.9-5.1C429.6,139.7,430.5,139.7,431.7,139.7z"/>
		<path class="st4" d="M80.9,337c-2.3,3.1-2.4,6.7-2.9,10.2c-0.2,1.1-0.3,2.2-0.5,3.3c-0.2,0.8-0.5,1.7-1,2.4
			c-1.1,1.7-2.4,1.5-3.1-0.3c-0.8-2.1-1.4-4.2-0.1-6.4c0.9-1.5,1.4-3.2,2.3-4.7C76.7,339.2,78.6,337.9,80.9,337z"/>
		<path class="st8" d="M237,97.3c-0.5,2.6-1.3,3.1-3.1,2c-1-0.6-1.9-1.5-2.6-2.4c-3.5-4.7-4.2-10-3.3-15.7c0.1-0.3,0.2-0.6,0.3-0.9
			c0.1-0.2,0.3-0.3,0.6-0.6c2.1,0.6,3.1,2.3,4.1,4.1c-1.7,2.3-2.3,4.9-2,7.7c0.1,0.9,0.3,1.9,0.7,2.8
			C232.7,96.4,234.2,97.7,237,97.3z"/>
		<path class="st2" d="M141.5,330.4c0.7-6.6,1.5-12.9,2.2-19.5c0.9,0.2,1.9,0.4,3.1,0.7c-0.3,2.4-0.5,4.6-0.7,6.9
			c-0.2,2.5-0.6,5.1-0.6,7.6c0,1.7-0.7,2.7-2.1,3.3C142.7,329.6,142.2,330,141.5,330.4z"/>
		<path class="st9" d="M263.5,87.9c2.9,0,2.9,0,4.3-1.8c0.3,0.1,0.6,0.2,0.8,0.4c0.9,0.8,2.6,1.2,2.5,2.7c-0.1,1.7-0.3,3.5-1,5.1
			c-1,2.2-3.5,2.4-5.1,0.4C263.4,92.7,263.2,90.3,263.5,87.9z"/>
		<path class="st4" d="M411.7,139.6c-1.4,3.7-2.8,7.4-4.3,11.1c-1.1,2.6-1.8,2.9-4.8,2.5c1.6-4.5,3.5-8.7,6.1-12.7
			C409.4,139.5,410.5,139.2,411.7,139.6z"/>
		<path class="st5" d="M406.6,78.1c-2.6,0-5,0-7.4,0c-0.2-1.8,0.6-3.1,1.9-4.2c2-1.7,4.1-1.2,5.1,1.3
			C406.4,76.1,406.4,77.1,406.6,78.1z"/>
		<path class="st4" d="M80.1,349.8c0.7-4.5,0.1-9.3,4.6-12.8c-0.7,3.6-1.2,6.8-1.9,10C82.3,348.8,82,349,80.1,349.8z"/>
		<path class="st9" d="M234.2,86.1c1.5,3.1,2.5,6,2.7,9.2C233.7,94.7,232.4,90.6,234.2,86.1z"/>
		<path d="M180.5,369.2c1.4-10.3,2.8-20.5,4.2-30.8c1.4-10.2,3.1-20.3,2.8-30.7c1.2,0.5,0.9,1.5,1,2.3c0.2,5.4,0.2,10.7,0.4,16.1
			c0.5,13.3,1.2,26.7,1.5,40c0.3,14.4-0.4,28.8-2.2,43.1c-0.3,2.1-0.7,4.2-1.2,6.3c2.8-29.2,2.7-58.5,0.4-87.8
			c-0.2,1.2-0.3,2.3-0.5,3.5c-2.1,14.9-4.2,29.8-6.3,44.6c-0.1,0.6-0.4,1.1-0.6,1.9c-1.1-0.8-1-1.7-1.1-2.5
			c-0.4-4.2-0.7-8.4-1.1-12.7c-1.1-13.4-2.9-26.7-5.1-40c-0.4-2.5-0.8-5-1.3-7.5c0.2-0.1,0.3-0.1,0.5-0.2c0.3,0.9,0.7,1.8,0.9,2.7
			c1.2,5.9,2.4,11.7,3.4,17.7c1.8,10.7,2.8,21.6,3.5,32.4c0,0.5,0.1,0.9,0.1,1.4C180.1,369.1,180.3,369.1,180.5,369.2z"/>
		<path d="M242.6,131c-2.8-0.3-5.9-0.6-9-0.9c-1.4-0.1-2.4-1-2.8-2.3c-0.1-0.5,0.1-1.3,0.5-1.6c0.3-0.3,1,0,1.5,0
			c0.1,0,0.3,0.1,0.4,0.2c1.5,1.9,3.7,1.9,5.9,2.1c4.4,0.2,8.8-0.2,13.1-1.1c1.8-0.4,3.1-1.2,3.9-2.8c0.2-0.4,0.4-0.8,0.7-1.3
			c0.4-0.7,0.9-1.2,1.7-0.7c0.8,0.5,0.6,1.2,0.2,1.9c-1.5,2.8-3.3,5-6.8,5.3C248.9,130,245.9,130.5,242.6,131z"/>
		<path d="M241.1,99.2c1.4,4,0,7.8-3.2,9.4c-0.9,0.4-1.8,0.7-2.6,1.1c-2.4,1.2-2.9,3.7-1.2,5.7c0.9,1,1.8,1.9,2.8,3
			c-3.7,0.9-6.9-2.2-6.5-5.9c0.2-2.3,1.4-4.1,3.5-5.1c0.6-0.3,1.3-0.6,2-0.8c1.9-0.5,3.1-1.8,3.8-3.7
			C240.1,101.8,240.5,100.7,241.1,99.2z"/>
		<path d="M291.7,90.3c0.6,1.8-0.6,3.4-1,5c-0.3,1.7-0.7,3.4-1.2,5.3c0.9,0.1,1.6,0.1,2.3,0.2c2.1,0.3,3.8,2.2,3.9,4.3
			c0,0.8-0.1,1.6-1.4,2c-0.3-0.6-0.6-1.1-0.8-1.8c-0.7-2.1-1.1-2.4-3.2-2.3c-2.5,0.2-3-0.2-2.6-2.6c0.6-3,1.5-5.8,2.3-8.7
			c0.2-0.6,0.7-1.1,1.1-1.6C291.3,90.2,291.5,90.3,291.7,90.3z"/>
		<path d="M224.8,72.2c1.6-2.6,3.9-3.2,6.8-1.8c2.2,1,3.7,2.8,5,4.7c0.6,1,1.2,2.1,1.6,3.2c0.2,0.7,0.1,1.4,0.2,2.2
			c-1.4,0-1.5-1-1.9-1.6c-1.3-1.6-2.4-3.4-3.8-4.9c-1.5-1.6-3.4-2.5-5.6-1.1C226,73.5,225.3,72.9,224.8,72.2
			C224.7,72.1,224.8,72.2,224.8,72.2z"/>
	</g>
</g>
</svg>
