<?xml version="1.0" encoding="utf-8"?>
<!-- Generator: Adobe Illustrator 22.1.0, SVG Export Plug-In . SVG Version: 6.00 Build 0)  -->
<svg version="1.1" id="Слой3_xA0_Изображение_1_"
	 xmlns="http://www.w3.org/2000/svg" xmlns:xlink="http://www.w3.org/1999/xlink" x="0px" y="0px" viewBox="0 0 552 768"
	 style="enable-background:new 0 0 552 768;" xml:space="preserve">
<style type="text/css">
	.st0{fill:#FAB1BC;}
	.st1{fill:#FFE3E5;}
	.st2{fill:#FFD7C6;}
	.st3{fill:#BD7A83;}
	.st4{fill:#FFF5D3;}
</style>
<g>
	<path d="M336.5,24.1c2.9,0.9,3.8,2.6,2.4,5.3c-1.1,2.1-1.2,4.1-1.2,6.4c0,3.1-1.4,5.7-3.7,7.8c-1.8,1.7-3.7,3.3-5.6,4.9
		c-1.7,1.4-2.5,3.1-2.5,5.2c0,1.6,0,3.2,0,4.8c0.1,7.6-3.1,13.6-9,18.2c-0.2,0.1-0.3,0.3-0.6,0.6c2.7,8,5.2,16.1,9.8,23.3
		c4.6,7.1,9.5,14.1,14.3,21c7.8,11.2,15.2,22.7,21.3,35c1.4,2.9,2.5,6,3.6,9.1c0.9,2.6,0.1,4.7-2.2,6.2c-0.4,0.3-0.8,0.5-1.1,0.9
		c-1.5,1.8-3,3.7-4.6,5.7c0,0,0.1,0.3,0.3,0.5c5.2,6.2,9.6,13,13.7,20c5.3,9.1,11.7,17.4,18.2,25.6c1.7,2.2,3.2,4.6,4.6,7
		c1.7,2.7,1.8,5.9,2.5,9c0.1,0.4-0.1,0.9-0.2,1.4c-2.2,9.6-7.2,17.4-15.8,22.5c-4.6,2.7-9.5,5-14.2,7.4c-5,2.6-10,5-14.9,7.8
		c-5.2,3-9.4,7.4-14.1,11.3c0.9,3.9,0.8,7.8,0.2,11.7c-0.7,4.6-2.4,8.8-4.7,12.8c-1.4,2.4-1.5,3-1,5.7c0.8-0.5,1.5-0.9,2.2-1.4
		c5.5-3.8,11-7.8,16.5-11.5c9.2-6.1,19.3-9.4,30.4-9.8c11.8-0.4,23.3,1.3,34.5,5c4.4,1.4,8.8,3,13.1,4.7c8,3.2,13.9,9,18.4,16.2
		c1.6,2.6,2.8,5.5,4.3,8.3c0.6,1,1.2,2,2.1,2.8c3.5,3.2,6.3,6.6,7.9,11.2c1.4,4.2,3.7,8.2,4.2,12.7c0.4,3.7,0.7,7.6,0.1,11.2
		c-0.9,6.3-4.7,10.6-10.8,12.6c-5.1,1.7-4.3,1-6.4,6.1c-2.3,5.8-5.4,11.1-10,15.3c-4.3,3.9-9.3,6.4-15.2,7c-2.7,0.3-5.4,0.5-8.1,0.8
		c-3.1,0.3-5.7,1.7-7.6,4.2c-1.7,2.1-3.2,4.4-4.7,6.7c-1.3,1.9-2.5,3.9-3.9,5.8c-4.5,5.8-10.4,7.7-17.5,6.3
		c-2.7-0.5-5.5-1.2-8.2-1.7c-8-1.5-15.6-0.3-22.8,3.4c-2.9,1.4-5.7,2.9-8.5,4.4c-0.5,0.3-1,0.6-1.5,0.7c-3.2,0.6-4.3,2.8-5.2,5.7
		c-3.4,11-8.1,21.5-13.1,31.9c-4.3,8.9-8.8,17.8-13.3,26.6c-0.7,1.3-0.8,2.5-0.5,3.9c3.3,15.2,6.9,30.4,9.8,45.7
		c2.9,15.5,5.2,31.1,7.6,46.6c1.5,10,2.9,20.1,4,30.2c1,9.5,1.5,19,2.2,28.5c0.7,9.5,1.4,19,2.1,28.5c0.7,9.1,1.5,18.2,2.3,27.3
		c0.6,6.7,1.2,13.4,3.1,19.9c0.5,1.9,0.4,4,0.4,5.9c0,2.1-1.2,3.4-3.1,4.2c-2.2,1-4.5,0.8-6.8,0.4c-5.7-1.2-10-4.6-13.2-9.3
		c-2.5-3.7-4.4-7.6-5.6-11.9c-2.3-8.1-3.7-16.2-3.2-24.6c0.4-6.8-0.6-13.1-3.5-19.3c-2-4.3-3.2-9-4.6-13.6c-0.5-1.7-0.4-3.5-0.6-5.2
		c-0.4-3.4,0.7-6.3,2.8-8.9c1.1-1.4,2.2-2.9,3.3-4.4c1.3-1.8,1.8-3.9,1.9-6.1c0.3-7.1-1.1-14-3.4-20.7c-2.9-8.7-6.9-16.8-12.5-24.2
		c-1.6-2.1-3.2-4.3-5.1-6.8c-0.3,1.1-0.5,1.6-0.6,2.2c-3.3,15-6.6,30-8.1,45.3c-0.9,8.7-1.5,17.6-1.5,26.3
		c-0.1,19.2,0.1,38.4,0.2,57.6c0,1.5,0.1,3.1-0.3,4.5c-0.3,1.3-0.9,2.8-1.9,3.8c-5.1,5.7-13,5.2-17.6-1c-1.9-2.6-3.1-5.4-3.7-8.5
		c-1.1-5.6-2.1-11.3-2.7-17c-0.9-8.3-1.8-16.5-3.4-24.7c-0.6-2.7-1.4-5.4-2.2-8.1c-1.4-4.2-2.5-8.5-2.1-12.9c0.2-2,0.6-3.9,1.2-5.8
		c0.6-2,1.5-3.9,2.4-5.8c0.6-1.3,1.5-2.4,2.4-3.6c1.1-1.5,2.4-2.8,3.4-4.3c1.9-2.8,3-5.8,3-9.2c-0.1-7.4,0.3-14.7-0.1-22.1
		c-0.3-6.5-1.3-13-2.1-19.6c-1.4-11.9-2-23.8-0.7-35.7c1.2-10.6,4.5-20.6,9.9-29.9c0.8-1.4,1.3-2.9,1.7-4.4c0.6-2.6,0.9-5.2,1.4-7.8
		c1.1-6,0.5-11.8-1.3-17.5c-5.2-16.5-9.1-33.3-13.6-50c-0.3-1.2-0.7-2.2-1.9-2.9c-6.9-3.9-14.2-6.3-22.2-5.7c-3.3,0.2-6.5,1-9.7,1.6
		c-3.8,0.7-7.6,1.7-11.5,2.3c-7.2,1.1-13.3-1.2-18.1-6.6c-2.1-2.3-3.9-4.9-5.8-7.3c-1.2-1.5-2.4-3-3.8-4.3c-2.5-2.4-5.6-3.5-9-2.8
		c-3,0.6-6,1.6-9,2.4c-2.4,0.7-4.8,1.4-7.2,1.9c-5.1,1.1-9.3-0.4-12.7-4.3c-3.6-4.2-6.2-9.1-8.8-14c-1.2-2.3-2.4-4.7-3.7-7
		c-1.6-2.9-4-4-7.4-3.6c-3.1,0.4-6.4,0.5-9.6,0.3c-7.1-0.4-12.8-3.7-16.6-9.6c-6.8-10.6-9-22.1-5.3-34.4c1.7-5.8,5-10.8,8.7-15.6
		c0.8-1,1.6-2.3,1.9-3.5c2.3-12.1,8.6-21.7,18.1-29.4c8.7-7.1,18.4-12.5,29.6-14.6c6.6-1.3,13.2-1.5,19.8-1.4
		c11.2,0.3,22.1,2.2,32.8,5.5c13.5,4.3,26.9,8.7,40.3,13.3c4.6,1.6,9,3.6,13.6,5.5c0.9,0.4,1.7,0.7,2.8,1.2c2-3.2,4.1-6.2,5.1-9.8
		c0.7-2.4,0.1-4.8-1-7c-2.7-5.4-5.4-10.9-8.2-16.3c-5.3-10.2-10.4-20.4-14.1-31.2c-0.2-0.6-0.5-1.2-0.6-1.8c-1-5-3.4-9.4-5.8-13.8
		c-4-7.3-7.6-14.8-9.8-22.9c-2-7.4-2.5-14.8-1.3-22.3c0.3-1.6,0.1-3.2,0.4-4.7c1.8-6.9,6-11.9,12.5-14.9c2.2-1,4.7-1.6,7-2.4
		c1.2-0.4,2.4-0.9,3.4-1.6c5-3.6,8-8.4,8.6-14.6c0.3-3.4-0.9-6.3-2.3-9.2c-0.2-0.3-0.5-0.6-0.9-0.8c-1.4-0.8-2.8-1.5-4.4-2.3
		c-0.5,0.8-0.9,1.6-1.3,2.3c-5.6,9.4-19.1,10.6-26,2.2c-3.2-4-4.2-8.5-3-13.5c0.6-2.3,1.9-4.2,3.8-5.8c-0.6-0.7-1.1-1.2-1.6-1.8
		c-2.4-2.8-4.5-5.7-4.9-9.4c-0.1-1.1-0.9-1.4-1.5-2c-7.6-7.2-13.5-15.4-15.5-25.9c-1-5.4-0.6-10.8,0.4-16.2c0.4-2.4,1-4.9,1.7-7.2
		c1.4-4.9,3.8-9.4,7.3-13.1c2.4-2.5,4.8-4.9,7.3-7.2c2.4-2.3,5.3-3.8,8.6-4.5c1.2-0.3,2.3-0.6,3.5-0.9c1.1-0.3,1.7-0.9,2.3-1.9
		c0.6-1.1,1.7-2.1,2.7-2.9c2.6-1.8,5.6-2.2,8.7-2.2c6-0.1,12,0.4,17.8,2c9,2.4,16,7.8,21.4,15.3c3.7,5.2,6.4,10.9,8.3,17
		c0.1,0.4,0.2,0.9,0.5,1c3.3,1.8,4.1,5.1,5.1,8.3c0.6,1.7,1.2,3.5,1.7,5.2c1.7,0.2,3.2,0.4,4.7,0.5c0.2-0.3,0.4-0.6,0.5-0.9
		c2-6.2,3.9-12.5,5.9-18.8c1.5-4.9,2.8-9.8,3.5-14.9c0.5-3.7,1.6-7.3,2.5-11c0.4-1.8,1.4-3.3,2.9-4.2c2.6-1.5,5.3-2.9,8.1-4.1
		c2.2-0.9,3.5,0.4,3.1,2.8c-0.3,2-1.4,3.6-2.6,5.1c-0.9,1.1-1.7,2.1-2.6,3.1c-1.3,1.5-1.7,3.2-1.6,5.5c0.6-0.6,0.9-0.9,1.2-1.3
		c2.3-2.9,4.5-6,7-8.8c2.3-2.7,5.3-4.6,8.4-6.3c2.6-1.5,3.8-0.8,4,2.2C336.6,23.4,336.5,23.7,336.5,24.1z M253.4,313.9
		c-2.4-1-4.4-1.9-6.4-2.7c-14.5-6.1-29.5-10.5-44.4-15.3c-9.9-3.2-20-5.7-30.4-6.5c-8.6-0.7-17.1-0.7-25.6,1
		c-11.8,2.3-21.7,8.2-30.6,16.2c-7.5,6.7-12.2,14.9-14.2,24.7c-1.8,8.9-1.5,17.5,2.8,25.7c2.1,4,4.7,7.6,7.7,11
		c11.1,12.3,24.6,21.3,39.8,27.9c13.1,5.7,26.9,8.8,40.8,11.4c22,4.1,44.2,5.9,66.5,7.1c12.3,0.7,24.6,1.1,36.9,1.4
		c15.4,0.3,30.9,0.4,46.3-0.7c19.7-1.3,38.8-5.3,57.3-12.1c7.5-2.7,14.6-6,21.4-10.2c9.1-5.6,15.9-13.5,22.3-21.9
		c8.9-11.7,8.6-29.5,3.5-39.7c-5-9.9-12-17.5-22.6-21.3c-6.6-2.4-13.3-4.5-20.2-6.1c-9.4-2.2-19-2.6-28.6-1.6
		c-9,0.9-17.1,4.6-24.5,9.7c-5.9,4.1-11.8,8.2-17.8,12.3c-0.9,0.6-1.1,1.3-1.1,2.4c0.1,1.7,0.3,3.7-0.4,5.2
		c-1.4,3.4-1.6,7.2-3.1,10.5c-4.7,10.2-13.2,15.3-23.9,16.9c-5.5,0.8-11-0.2-16.5-1c-11.4-1.6-22.1-5-31.7-11.6
		c-5.2-3.5-9.9-7.6-13.6-12.7c-1.5-2.1-2.4-4.5-2.4-7.2c0-0.9,0.2-1.7,1.2-2.2c3.4-1.7,6-4.5,8.6-7.2
		C251.4,316.4,252.2,315.3,253.4,313.9z M335.9,188.9c-5.1,1.8-9.9,3.5-14.8,5.1c-1.1,0.4-1.4,1.1-1.5,2.1c-1.3,7.7-3.7,15-6.5,22.3
		c-0.1,0.4-0.2,0.8-0.5,1.1c-0.5,0.5-1.2,1.3-1.8,1.3c-0.6,0-1.4-0.7-1.7-1.3c-1.6-3.4-4-6.2-6.8-8.5c-3.2-2.7-6.5-5.2-9.6-8
		c-1.1-0.9-2.1-1.2-3.5-0.9c-6.6,1.2-13.3,2.2-19.9,3.2c-2.1,0.3-4.2,0.6-6.3,0.8c-0.2,1.5-0.4,2.8-0.6,4.1
		c-1.1,7.3-3,14.3-6.8,20.6c-2.1,3.6-4.5,7-6.9,10.4c-0.9,1.4-2.3,2.6-2.9,4.1c-0.9,2.2-2.1,3.5-4.7,3.1c0.2,0.7,0.4,1.3,0.6,1.8
		c2.5,5.5,4.9,11,7.5,16.3c4.3,8.8,8.8,17.6,13.3,26.3c2.2,4.2,2.2,8.4,0.1,12.7c-2.4,4.9-5.3,9.6-9,13.6c-3,3.2-6.3,6.1-9.7,9.3
		c0.4,1.6,1.6,3.2,2.8,4.8c7.2,8.9,16.6,14.7,27.3,18.4c7.4,2.5,15.1,3.5,22.8,4.4c8.7,1,16.3-1.3,23-6.8c3.7-3,6.2-6.8,7.4-11.1
		c-1-0.9-2-1.5-2.5-2.4c-0.6-0.9-0.9-2.1-1.3-3.1c-0.4,2.1-0.4,4-0.4,6c0,2-0.5,3.8-1.7,5.4c-1.1,1.4-2.6,2.1-4.2,2.1
		c-0.4,1-0.5,1.8-0.9,2.5c-0.7,1.4-2.2,2.1-3.6,1.9c-1.5-0.2-2.1-1.3-2.5-2.6c-0.2-0.8-0.3-1.6-0.5-2.3c-1-4.4-2-8.8-3.1-13.5
		c-1.1,2.2-2.1,4.4-3.1,6.5c-0.5,1-1,2-1.7,2.9c-1.1,1.4-2.8,1.9-4.3,1.3c-1.4-0.6-2-1.7-1.9-3.5c0.1-1.4,0.3-2.7,0.5-4
		c0.5-3.1,1-6.1,1.6-9.2c0.1-0.7,0.6-1.3,0.9-1.9c4-6.9,8.1-13.8,12-20.8c1.2-2.2,2.2-4.6,2.9-7.1c1.1-3.4,1.8-6.8,2.7-10.2
		c1-3.5,2.9-6.3,6-8.3c5.4-3.6,10.6-7.4,15.9-11.1c1.7-1.2,2.7-2.8,3-4.7c0.6-4.5,1.4-9,0.7-13.6c-1-6.2-2.1-12.3-3.1-18.4
		c-0.1-0.3-0.1-0.7-0.3-0.9c-1.3-1.5-0.5-2.8,0.5-4.1c3.1-4.2,5.3-8.9,6.4-14.1c0.9-4.4,0.5-8.6-1.8-12.5
		C341.3,194.5,338.7,191.7,335.9,188.9z M253.7,444.6c0.3,1.1,0.4,1.8,0.6,2.5c1.8,7.2,3.6,14.4,5.6,21.6c2.4,8.6,4.8,17.2,7.3,25.8
		c1.9,6.7,2.2,13.4,0.7,20.2c-1.8,8.3-2.3,16.6-2,25c0.2,4.3,0.8,8.4,2.5,12.4c6.3,14.5,13.4,28.5,23,41.1
		c5.9,7.8,11.1,16,14.5,25.3c2.9,7.9,5,15.9,4.9,24.3c0,3.2-0.6,6.2-2.4,8.9c-0.7,1-0.5,1.8-0.2,2.9c1.8,5.9,3.7,11.8,5.3,17.7
		c2.7,10,5.4,20.1,9.7,29.6c2.2,5,4.7,10,8.4,14.2c0.3,0.4,0.8,0.6,1.3,1c0-0.7,0-1.1,0-1.5c-1.5-18.7-2.9-37.3-4.4-56
		c-0.8-10-1.4-20.1-2.5-30.1c-1.2-11-2.8-21.9-4.5-32.8c-2-13.2-3.9-26.4-6.5-39.5c-4.3-21.5-9.2-42.8-13.9-64.2
		c-3.9-17.7-7.9-35.4-9.9-53.5c0-0.3-0.2-0.5-0.4-1c-2.1,1-4.1,2-6.1,3c-4.3,2.1-8.5,4.4-13.2,5.7c-5.1,1.4-9.9,1.3-14.7-1.2
		C255.8,445.6,255,445.2,253.7,444.6z M241.9,244.9c9.1-11.8,16.7-23.6,17.5-38.5c-2.8,0-5.6-0.7-8.2,1c-0.7,0.5-1.7,0.5-2.5,0.8
		c1-1.5,1.8-2.9,3.5-3.2c2.5-0.5,5-1.2,7.5-1.6c7.3-1.2,14.7-2.2,22-3.4c19.1-3.2,37.7-8.1,55.6-15.3c6.2-2.5,12.3-5.3,18-9
		c2-1.3,3.5-3.1,5.1-5c2.2-2.5,1.8-4.9,0.6-7.4c-2.8-5.7-5.5-11.4-8.6-16.9c-6.3-11.2-13.6-21.7-21.1-32
		c-7.5-10.3-13.5-21.4-16.6-33.8c-0.4-1.7-1-3.2-2.9-3.6c-0.1,0-0.2-0.4-0.4-0.7c0.8-0.4,1.6-0.7,2.4-1.2c1.4-0.9,3-1.7,4.1-2.9
		c3.4-3.7,5.5-8,5.5-13.2c0-2,0.1-4,0.2-6c0.1-2.3,1-4.2,2.7-5.7c1.4-1.3,2.9-2.5,4.3-3.8c1.2-1.2,2.4-2.3,3.4-3.7
		c1.1-1.6,1.6-3.4,1-5.6c-0.8,0.6-1.5,1-2.1,1.6c-3.2,3.1-6.4,6.2-9.7,9.3c-0.4,0.4-0.7,0.9-1.2,1.2c-0.3,0.2-0.9,0.2-1.3,0.1
		c-0.2-0.1-0.3-0.8-0.1-1.1c0.3-0.7,0.7-1.5,1.2-2c2.5-2.7,4.9-5.5,7.6-8c1.7-1.6,3.8-2.9,5.7-4.3c1.1-0.8,1.7-1.8,1.6-3.4
		c-0.6,0.3-1,0.5-1.4,0.8c-5.7,3.8-11.1,8.1-15.2,13.8c-0.4,0.6-0.8,1.4-1.9,1.1c-0.2-1.6,0.6-2.8,1.4-4c3.3-4.9,7.7-8.5,12.5-11.8
		c1.3-0.9,2-1.9,1.7-3.7c-3.5,1.8-6.4,4-8.9,7c-3.3,3.9-6.4,8-9.7,11.9c-0.3,0.4-0.8,0.7-1.3,1c-1.2-1.1-0.6-2.4-0.7-3.5
		c-0.4-5.2,1.3-9.5,5.1-13.2c0.8-0.8,1.2-1.9,1.8-2.9c-0.1-0.1-0.3-0.2-0.4-0.3c-2.7,1-5.3,2.1-7.4,4.1c-0.5,0.5-1,1.3-1.1,2.1
		c-1.1,4.5-2.1,9-3.1,13.5c-0.9,4.2-1.6,8.5-2.7,12.6c-1.8,6.6-3.8,13-5.8,19.5c-0.4,1.4-0.5,2.7,0.2,3.9c1.2,2.3,2.2,4.8,3.6,7
		c4.4,6.5,8.1,13.4,11.3,20.6c2.8,6.5,5.8,13,8.2,19.7c2.9,7.9,4.1,16.3,4.8,24.7c0.2,2.4,1,4.3,2.7,5.9c0.6,0.6,1.2,1.1,1.7,1.7
		c0.5,0.7,0.8,1.6,1.4,2.8c-1.2,0-1.9,0-2.6,0c-0.6,0-1.3-0.1-1.9,0c-2.4,0.4-4.9,0.8-7.3,1.3c-11.1,2.3-22.2,4.6-33.6,5.3
		c-8.1,0.5-16.1,0.8-24.2-0.1c-5.6-0.7-11.3-0.9-17-1.2c-4-0.2-8,0.5-11.8,1.8c-4.9,1.7-8.5,4.9-10.4,9.7c-2.5,6.1-3,12.6-2.3,19.1
		c0.7,6.7,2.4,13.3,5.4,19.3C232.2,226.4,237,235.4,241.9,244.9z M454.2,340c-0.2,0.1-0.4,0.2-0.5,0.3c0.2,1.7,0.4,3.3,0.4,5
		c0.3,7.9-0.5,15.6-4.5,22.5c-4.7,8.1-10.5,15.3-17.5,21.4c-8.4,7.3-18.2,12.2-28.4,16.1c-23.8,9.2-48.5,13.4-73.9,13.9
		c-19,0.4-38.1,0.1-57.1-0.7c-18-0.8-35.9-1.9-53.8-3.9c-15.8-1.8-31.3-4.4-46.7-8.3c-15.5-3.9-30-10.1-43.1-19.3
		c-8.8-6.2-16.9-13.1-23.3-21.9c-5.3-7.3-8.4-15.2-8.3-24.3c0-0.4-0.1-0.9-0.1-1.3c-0.2,0-0.3-0.1-0.5-0.1c-1.1,1.7-2.2,3.4-3.2,5.2
		c-6.8,12.8-5.4,25.3,1.6,37.5c3.2,5.5,8.2,8.7,14.7,9.1c3.3,0.2,6.7,0,10-0.3c4.1-0.4,7,1.2,9.1,4.5c0.5,0.8,1,1.6,1.4,2.5
		c1.6,3,2.9,6.1,4.7,8.9c2.1,3.5,4.4,6.9,6.8,10.1c1.9,2.5,4.7,3.6,7.9,3c2.4-0.4,4.8-1.1,7.2-1.7c2.8-0.8,5.5-1.8,8.3-2.4
		c6.1-1.5,11.4,0,15.5,4.9c0.8,1,1.6,2,2.4,3c1.7,2.1,3.3,4.3,5,6.4c4.4,5.5,10.2,7.5,17.1,6.2c3.6-0.7,7.2-1.4,10.8-2.3
		c11.3-2.9,22-1.6,32.2,4.1c2.9,1.6,5.9,3.1,8.9,4.8c4.5,2.6,9.3,2.9,14.1,1.1c3.2-1.2,6.3-2.6,9.5-4c2.8-1.3,5.6-2.7,8.4-4.1
		c8-3.9,16.1-3.8,24.2-0.7c3.9,1.5,7.7,3.2,11.5,4.9c4,1.8,8,1.9,12.1,0.2c0.8-0.3,1.6-0.7,2.4-1.1c2.8-1.5,5.7-2.9,8.5-4.4
		c9-4.7,18.4-6.1,28.4-3.6c2.3,0.6,4.7,1.1,7.1,1.4c5.1,0.8,9.4-0.8,12.6-4.8c1.7-2,3-4.3,4.6-6.5c1.6-2.3,3.1-4.6,4.9-6.8
		c2.3-2.7,5.3-4.4,8.8-4.9c1.8-0.2,3.7-0.5,5.5-0.5c9.7-0.4,17.1-4.9,22.1-13.1c1.5-2.4,2.8-5,3.9-7.7c2-4.8,1.5-5.7,8.1-7.8
		c5.5-1.7,8.2-5.8,9.1-11.3c0.7-4.4,0.2-8.8-1.2-13c-1.3-4-2.9-8-4.6-11.8C456.6,342.8,455.2,341.4,454.2,340z M232.8,47.5
		c-0.1,2.1-0.2,4.1-0.4,6.1c-1,9.9-4,19.2-7.6,28.4c-2.4,6-5.1,11.9-7.7,17.8c-0.5,1.2-0.6,2,0.2,3.1c0.9,1.2,1.6,2.6,2.5,3.8
		c7.3,11.1,16.5,20.2,28.2,26.5c2.1,1.1,4.4,2,6.7,2.4c7,1.3,13.9,0.2,20.5-2.3c2-0.7,3.7-2.2,5.3-3.6c3.3-3,5.1-7,5.9-11.3
		c0.6-2.8,0.8-5.7,1.2-8.5c1-7.3,0.8-14.5-0.4-21.7c-1.7-10-6.7-18.6-11.5-27.3c-0.3-0.6-1.2-1.1-1.9-1.2c-2.4-0.4-4.7-0.6-7.1-0.9
		c-4.4-0.5-8.9-0.7-13.3-1.5c-7.5-1.3-14.5-4-19.9-9.8C233.4,47.5,233.2,47.5,232.8,47.5z M327.3,334.1c0.2,0,0.4,0.1,0.6,0.1
		c0.4-0.9,1.1-1.8,1.2-2.7c0.2-2.1,0.4-4.3,0.1-6.4c-0.6-4.6-0.3-8.9,2.1-13.2c3.7-6.7,4.8-14,2.8-21.6c-0.1-0.2-0.1-0.5-0.1-0.7
		c-0.1-1.2,0.3-1.8,1.6-1.7c1,0.1,1.3-0.5,1.7-1c4.7-4.9,9.9-9.4,16-12.5c5.1-2.6,10.3-5.1,15.5-7.7c3-1.5,6-3,8.9-4.6
		c5.6-3.2,10.1-7.5,12.8-13.6c0.3-0.7,0.7-1.3,1-1.9c2-3.3,2.7-6.8,1.3-10.5c-1.2-3.4-3.1-6.5-5.5-9.3c-7.7-9.1-14.7-18.8-20.7-29.1
		c-3.3-5.7-7-11.1-11.2-16.2c-0.4-0.5-0.8-1.2-1-1.6c-5.4,2.7-10.3,5.1-15.4,7.6c1.3,1.4,2.5,2.7,3.7,4c4.9,5.3,7.3,11.4,5.9,18.7
		c-0.3,1.6-0.7,3.1-1.1,4.7c5.3,5.7,10.6,11.4,15.9,17.2c4-3.2,4-3.2,5.6-2.3c-0.1,0.3-0.2,0.8-0.5,1c-3.9,4.1-6.3,9.2-8.9,14.2
		c-5.9,11-13.8,20.1-24,27.3c-3.9,2.8-7.9,5.5-11.9,8.1c-1.9,1.3-3.4,2.9-4.1,5.2c-0.5,1.7-0.9,3.4-1.4,5.1c-1.2,4.5-2.1,9-4.4,13.1
		c-3.4,6.1-6.7,12.4-10.5,18.3c-1.9,3-3.2,6.1-3.8,9.4c-0.5,2.3-0.5,4.6-0.8,6.9c0.2,0,0.3,0.1,0.5,0.1c1.2-2.6,2.7-5.1,3.6-7.8
		c1.2-3.6,3.3-6.5,5.7-9.3c1.2-1.4,2.6-2.7,3.9-3.9c1.3,0.6,1.5,1.3,1,2.3c-0.3,0.6-0.6,1.1-0.9,1.7c-3.2,5-3.7,10.3-2.1,15.9
		c0.8,2.7,1.3,5.4,2,8.1c0.1,0.5,0.3,1,0.5,1.7c1-0.7,0.9-1.5,0.9-2.3c0-2.7,0.1-5.4,0-8.1c0-1.3,0-2.7-0.3-4
		c-0.6-2.8-0.3-5.4,1.7-7.7c1.3-1.6,2.1-3.4,2.5-5.3c0.2-0.9,0.7-1.6,1.1-2.6c1.8,1.1,1.5,2.5,1.2,3.8c-0.5,2.6-1.1,5.2-1.9,7.7
		c-1.2,3.6-1.4,7.4-1.3,11.1c0,0.9,0.3,1.8,0.6,2.8c1.7-0.9,2.1-2.2,2.2-3.5c0.2-1.4,0.2-2.9,0.1-4.3c-0.1-3.1,0.5-6,2.2-8.5
		c1.4-2.1,1.6-4.3,1.7-6.6c0-0.8,0-1.6,0.2-2.4c0.1-0.6,0.5-1.2,0.8-1.8c1.5,0.6,1.5,1.7,1.5,2.7c0,3.2,0,6.4,0,9.6
		C326.2,330,326.3,332.1,327.3,334.1z M262.4,531.7c-0.2,0-0.3-0.1-0.5-0.1c-0.2,0.4-0.5,0.8-0.7,1.2c-2.9,7-5.2,14.3-6,21.9
		c-1,9.9-0.7,19.8,0.3,29.7c0.8,7.3,1.8,14.6,2.5,21.9c0.8,8.2,0.4,16.5,0.2,24.7c-0.1,3-0.6,5.9-2,8.5c-0.5,1-0.5,1.9-0.3,3
		c0.8,3.8,1.6,7.7,2.2,11.5c1.1,7.5,1.8,15.1,3.9,22.4c2.1,7.4,4.9,14.4,9.2,20.7c0.3,0.4,0.7,0.7,1.3,1.3c0-1.1,0-1.7,0-2.3
		c0-9.3-0.1-18.6-0.1-27.8c0-14.7,1.1-29.4,3.8-43.9c2.2-11.2,4.7-22.4,7.2-33.5c0.3-1.3,0.3-2.4-0.5-3.6
		c-6.2-9.3-11.1-19.4-16-29.5c-3.1-6.5-4.9-13.2-4.7-20.4C262.4,535.5,262.4,533.6,262.4,531.7z M280.6,59.1
		c0.1-0.5,0.2-0.7,0.1-0.8c-2.4-5.2-4.8-10.5-8.5-15c-4.6-5.6-10.1-10-17.2-12.1c-6.5-1.9-13.2-2.5-19.9-2.1c-1.7,0.1-3.4,0.7-5,1.4
		c-0.8,0.3-1.5,1.2-1.8,2c-0.6,1.5-1.6,2.4-3.1,2.8c-1.6,0.5-3.3,0.8-4.8,1.4c-2,0.8-4.2,1.4-5.8,2.7c-4.1,3.1-7.9,6.8-10.9,11.1
		c-3.8,5.5-5.2,11.8-6.1,18.2c-0.8,6-0.7,12,1.6,17.7c2.6,6.7,6.8,12.3,11.8,17.3c0.3,0.3,0.6,0.4,1.1,0.8c0.2-0.6,0.3-1,0.5-1.5
		c0.9-2.3,1.6-4.7,2.8-6.9c5.2-10.2,8.9-20.9,11.8-31.9c2.2-8.4,3.1-17,1.1-25.6c-0.1-0.6,0-1.2,0-2c1.8,0.7,2.3,2.2,3.1,3.4
		c0.8,1.2,1.6,2.6,2.6,3.7c3.4,3.9,7.7,6.5,12.5,8.1c5.9,2,12,2.9,18.1,3.1c4.4,0.1,8.6,0.8,12.5,2.8
		C278.1,58.4,279.3,58.6,280.6,59.1z M307,502.3c0.4-0.8,0.9-1.5,1.3-2.3c4.7-9.5,9.6-19,14.1-28.6c3.6-7.9,6.8-16.1,10.1-24.1
		c0.3-0.8,0.5-1.7,0.8-2.8c-4.1,0.4-7.5-0.8-10.8-2.3c-2.4-1.1-4.8-2.2-7.2-3.2c-5.1-2.1-10.3-3.6-15.8-3c-1.9,0.2-3.8,0.4-5.6,1.5
		C296.4,459.4,301.7,480.8,307,502.3z M276.4,137.1c-7.7,2.4-15.2,3.6-22.9,2.3c0.4,2.3,1.2,4.4,1.2,6.5c0.2,5.9-1.9,11-5.9,15.2
		c-0.6,0.7-1.2,1.3-2.1,2.2c1.5,0.2,2.5,0.4,3.5,0.5c2.7,0.2,5.4,0.3,8.1,0.5c3.2,0.3,6.4,0.7,9.5,1c10,0.9,20,0,29.9-1.3
		c7.4-0.9,14.7-2.5,22-3.8c2.3-0.4,4.7-0.7,7.4-1.2c-3-3.4-3-7.4-3.4-11.3c0-0.2-0.1-0.5-0.1-0.7c0-0.9-0.5-1.4-1.3-1.8
		c-2.1-1-4.3-1.7-6.7-1.7c-3,0.1-5.8,0.9-8.6,2c-4.2,1.7-8.5,3.3-12.8,4.9c-3,1.1-6.1,1-9.2,0.2c-4.4-1.1-7.1-3.8-8-8.3
		C276.9,140.8,276.7,139.1,276.4,137.1z M291.6,106.7c-0.1,0.8-0.3,1.5-0.3,2.1c-0.2,1.7-0.3,3.3-0.5,5c-0.8,8.4-3.7,15.8-10.6,21.2
		c-0.4,0.3-0.7,1.1-0.7,1.6c0.3,2.2,0.7,4.4,1.2,6.6c0.5,1.8,1.7,3.1,3.4,3.7c2.6,1,5.4,1.6,8.2,0.8c2.1-0.6,4.1-1.2,6.2-2
		c3.2-1.2,6.3-2.7,9.5-3.9c4.3-1.7,8.7-2,13.1-0.6c0.5,0.2,1,0.2,1.7,0.3c-2.1-15.3-9.3-28.3-15.6-42.2
		C303.7,105.7,299,108.9,291.6,106.7z M253.7,644.6c-0.2,0-0.4-0.1-0.6-0.1c-1.8,2-3.8,3.8-4.7,6.5c-0.3,1.1-0.8,2.1-1.3,3.1
		c-1.2,2.4-1.8,5-1.5,7.7c0.3,2.8,0.6,5.6,1.5,8.2c2.9,8.4,4.2,17.1,5.2,25.8c0.7,5.6,1.2,11.3,1.9,16.9c0.5,4.3,1.3,8.5,2.9,12.6
		c0.8,2.1,1.9,4.1,3.6,5.5c2.4,1.9,5,2.4,7.8,1.1c2.7-1.2,4.2-3.2,4.2-6.3c-0.1-6.5-0.1-12.9-0.2-19.4c0-0.9-0.4-1.9-0.9-2.6
		c-6.5-8.1-10.5-17.4-13.1-27.5c-1.8-6.8-2.5-13.8-3.3-20.8C254.8,651.6,254.2,648.1,253.7,644.6z M306.1,655.3
		c-2.8,2.9-3.6,4.5-3.3,7.8c0.2,2.5,0.5,5.1,1.3,7.5c1.8,5.4,3.9,10.7,5.9,16c0.8,2,1.4,4.1,1.4,6.3c0,4.2,0,8.5,0,12.7
		c0,8,1.8,15.7,4.4,23.2c0.9,2.5,2.3,4.8,3.7,7c2.7,4.2,6.3,7.2,11.4,8.1c1.3,0.2,2.7,0.2,4,0c1-0.1,1.7-0.8,1.6-2
		c-0.1-1.4-0.1-2.9-0.3-4.3c-0.8-4.6-1.8-9.3-2.6-13.9c-0.2-1.1-0.5-1.9-1.4-2.6c-3-2.5-5.3-5.6-7.2-8.9c-3.2-5.4-5.6-11.1-7.8-17
		c-3.1-8.3-5.1-17-7.2-25.6C308.8,665,307.4,660.3,306.1,655.3z M346.6,218.5c-1.5,2.5-3,5.1-4.7,7.6c-0.8,1.1-0.9,2.1-0.5,3.4
		c0.7,2.7,1.3,5.4,1.9,8.2c1.5,7.1,2.8,14.3,1.5,21.6c0,0.1,0.2,0.2,0.4,0.3c7.4-7.3,12-16.4,16.9-25.3
		C356.8,228.9,351.7,223.7,346.6,218.5z M240.8,133.4c-2.1-1.6-4.2-3.1-6.2-4.6c-0.3-0.2-0.5-0.3-1-0.6c-1.3,1.3-2.8,0.7-4.1,0
		c-2.2-1.1-4.4-2.3-6.5-3.6c-1-0.6-2-1.3-2.9-1.9c-3.3,2.6-4.2,7.2-2.6,11.7c1.8,4.8,6.8,8.1,11.8,7.8
		C234.8,141.8,239.5,138.3,240.8,133.4z M291.6,103.7c5,1.7,9.3-0.1,11.9-4.6c1.3-2.2,1.7-4.2-0.1-6.6c-2.8-3.8-5.4-7.9-7-12.5
		c-0.8-2.2-1-2.2-3.7-1.9c0.1,0.6,0.2,1.2,0.3,1.8c0.8,4.3,0.8,8.6-1.1,12.7c-0.2,0.4-0.3,0.9-0.3,1.4
		C291.6,97.3,291.6,100.5,291.6,103.7z M316.3,195.6c-7.3,1.9-14.2,3.6-21.4,5.4c5.7,4.6,11.6,8.3,15.8,14.3
		C313.1,208.8,315.2,202.5,316.3,195.6z M228.5,123.9c-4.4-5.6-8.8-11.3-13.3-17c-1.2,1.1-1.4,1.2-1,2.4c0.7,1.8,1.4,3.8,2.5,5.4
		c2.9,4.1,6.9,6.8,11.2,9.2C228.1,123.9,228.4,123.9,228.5,123.9z M290.1,86.8c0.2,0,0.5,0,0.7-0.1c-0.3-1.8-0.5-3.6-0.9-5.3
		c-1.1-4.2-2.4-8.4-3.6-12.6c-0.3-0.9-0.7-1.8-1.3-2.5c-0.7-1-1.8-1.4-3.1-0.8C285.9,72.2,289.5,78.9,290.1,86.8z"/>
	<path class="st0" d="M253.4,313.9c-1.1,1.4-2,2.5-3,3.5c-2.6,2.7-5.1,5.5-8.6,7.2c-0.9,0.5-1.1,1.2-1.2,2.2c0,2.7,0.8,5,2.4,7.2
		c3.7,5.1,8.4,9.2,13.6,12.7c9.6,6.6,20.3,10,31.7,11.6c5.5,0.8,11,1.8,16.5,1c10.8-1.6,19.2-6.7,23.9-16.9
		c1.5-3.3,1.8-7.1,3.1-10.5c0.6-1.5,0.4-3.5,0.4-5.2c0-1.1,0.2-1.8,1.1-2.4c5.9-4.1,11.8-8.2,17.8-12.3c7.4-5.1,15.5-8.7,24.5-9.7
		c9.6-1,19.2-0.6,28.6,1.6c6.9,1.6,13.6,3.7,20.2,6.1c10.7,3.8,17.6,11.4,22.6,21.3c5.2,10.2,5.4,28-3.5,39.7
		c-6.4,8.4-13.2,16.3-22.3,21.9c-6.8,4.2-13.9,7.5-21.4,10.2c-18.5,6.8-37.6,10.8-57.3,12.1c-15.4,1-30.9,1-46.3,0.7
		c-12.3-0.3-24.6-0.7-36.9-1.4c-22.3-1.2-44.5-3-66.5-7.1c-13.9-2.6-27.7-5.7-40.8-11.4c-15.1-6.6-28.6-15.6-39.8-27.9
		c-3-3.3-5.6-7-7.7-11c-4.3-8.2-4.6-16.8-2.8-25.7c2-9.9,6.7-18,14.2-24.7c8.8-7.9,18.8-13.9,30.6-16.2c8.5-1.6,17-1.6,25.6-1
		c10.4,0.8,20.5,3.3,30.4,6.5c14.9,4.8,30,9.2,44.4,15.3C248.9,312.1,250.9,312.9,253.4,313.9z"/>
	<path class="st1" d="M335.9,188.9c2.8,2.8,5.5,5.7,7.5,9.1c2.4,3.9,2.7,8.1,1.8,12.5c-1.1,5.2-3.2,9.9-6.4,14.1
		c-1,1.3-1.7,2.5-0.5,4.1c0.2,0.2,0.2,0.6,0.3,0.9c1,6.1,2.1,12.3,3.1,18.4c0.7,4.6,0,9.1-0.7,13.6c-0.3,2-1.3,3.6-3,4.7
		c-5.3,3.7-10.5,7.5-15.9,11.1c-3.1,2.1-5.1,4.8-6,8.3c-0.9,3.4-1.7,6.8-2.7,10.2c-0.8,2.4-1.7,4.9-2.9,7.1c-3.9,7-8,13.8-12,20.8
		c-0.4,0.6-0.8,1.3-0.9,1.9c-0.6,3-1.1,6.1-1.6,9.2c-0.2,1.3-0.4,2.7-0.5,4c-0.1,1.8,0.5,3,1.9,3.5c1.5,0.6,3.2,0.2,4.3-1.3
		c0.7-0.9,1.2-1.9,1.7-2.9c1.1-2.1,2.1-4.2,3.1-6.5c1.1,4.6,2.1,9.1,3.1,13.5c0.2,0.8,0.3,1.6,0.5,2.3c0.4,1.3,1,2.4,2.5,2.6
		c1.4,0.2,2.8-0.5,3.6-1.9c0.4-0.7,0.6-1.5,0.9-2.5c1.6,0,3.1-0.7,4.2-2.1c1.3-1.6,1.7-3.4,1.7-5.4c0-2,0-3.9,0.4-6
		c0.4,1.1,0.7,2.2,1.3,3.1c0.6,0.9,1.5,1.5,2.5,2.4c-1.2,4.3-3.7,8.1-7.4,11.1c-6.7,5.6-14.3,7.8-23,6.8c-7.7-0.9-15.4-1.9-22.8-4.4
		c-10.7-3.7-20.1-9.5-27.3-18.4c-1.3-1.5-2.4-3.2-2.8-4.8c3.4-3.2,6.7-6.1,9.7-9.3c3.7-4,6.5-8.7,9-13.6c2.1-4.2,2.1-8.4-0.1-12.7
		c-4.5-8.8-8.9-17.5-13.3-26.3c-2.6-5.4-5-10.9-7.5-16.3c-0.2-0.5-0.3-1-0.6-1.8c2.6,0.4,3.8-0.9,4.7-3.1c0.6-1.5,1.9-2.7,2.9-4.1
		c2.3-3.4,4.7-6.9,6.9-10.4c3.8-6.3,5.7-13.3,6.8-20.6c0.2-1.3,0.4-2.5,0.6-4.1c2-0.3,4.2-0.5,6.3-0.8c6.6-1,13.3-2.1,19.9-3.2
		c1.4-0.2,2.4,0,3.5,0.9c3.1,2.7,6.4,5.3,9.6,8c2.8,2.4,5.3,5.1,6.8,8.5c0.3,0.6,1.1,1.3,1.7,1.3c0.6,0,1.3-0.8,1.8-1.3
		c0.3-0.3,0.4-0.7,0.5-1.1c2.7-7.3,5.2-14.6,6.5-22.3c0.2-1,0.4-1.7,1.5-2.1C326,192.4,330.8,190.6,335.9,188.9z M259.3,236.6
		c0,2,0.1,2.3,1.3,3.1c1.7,1,3.4,2.1,5.3,2.7c10.1,3.2,20.2,2.8,30-1.2c2.1-0.9,4-2.2,5.9-3.6c1.3-1,1.6-2.2,0.9-2.8
		c-1-1-1.9-0.2-2.7,0.4c-2.7,2.1-5.7,3.5-9,4.4c-6.5,1.9-13.1,2.3-19.7,1.2c-2.8-0.5-5.6-1.4-8.3-2.2
		C261.8,238.2,260.7,237.3,259.3,236.6z"/>
	<path class="st1" d="M253.7,444.6c1.2,0.6,2.1,1,3,1.4c4.7,2.5,9.6,2.6,14.7,1.2c4.7-1.3,8.9-3.6,13.2-5.7c2-1,4-2,6.1-3
		c0.2,0.5,0.4,0.7,0.4,1c2,18.1,6,35.8,9.9,53.5c4.7,21.4,9.6,42.8,13.9,64.2c2.6,13.1,4.5,26.3,6.5,39.5
		c1.7,10.9,3.3,21.8,4.5,32.8c1.1,10,1.7,20.1,2.5,30.1c1.5,18.7,2.9,37.3,4.4,56c0,0.4,0,0.8,0,1.5c-0.5-0.4-1-0.7-1.3-1
		c-3.7-4.2-6.2-9.1-8.4-14.2c-4.2-9.5-7-19.5-9.7-29.6c-1.6-5.9-3.5-11.8-5.3-17.7c-0.3-1-0.5-1.9,0.2-2.9c1.8-2.7,2.4-5.7,2.4-8.9
		c0-8.4-2-16.4-4.9-24.3c-3.4-9.3-8.6-17.5-14.5-25.3c-9.6-12.6-16.7-26.6-23-41.1c-1.7-4-2.3-8.1-2.5-12.4c-0.3-8.4,0.2-16.8,2-25
		c1.5-6.7,1.3-13.5-0.7-20.2c-2.5-8.6-5-17.2-7.3-25.8c-2-7.2-3.7-14.4-5.6-21.6C254.1,446.5,254,445.8,253.7,444.6z"/>
	<path class="st2" d="M241.9,244.9c-4.9-9.5-9.7-18.5-14.1-27.7c-2.9-6.1-4.7-12.6-5.4-19.3c-0.7-6.5-0.1-13,2.3-19.1
		c1.9-4.7,5.5-7.9,10.4-9.7c3.8-1.3,7.8-2,11.8-1.8c5.7,0.3,11.3,0.5,17,1.2c8.1,0.9,16.1,0.6,24.2,0.1c11.4-0.7,22.5-3,33.6-5.3
		c2.4-0.5,4.9-0.9,7.3-1.3c0.6-0.1,1.2,0,1.9,0c0.7,0,1.4,0,2.6,0c-0.6-1.2-0.9-2.1-1.4-2.8c-0.4-0.6-1.1-1.2-1.7-1.7
		c-1.7-1.6-2.6-3.6-2.7-5.9c-0.7-8.4-1.9-16.7-4.8-24.7c-2.4-6.7-5.4-13.2-8.2-19.7c-3.1-7.2-6.9-14.1-11.3-20.6
		c-1.5-2.2-2.4-4.7-3.6-7c-0.7-1.3-0.6-2.6-0.2-3.9c2-6.5,4-13,5.8-19.5c1.1-4.2,1.8-8.4,2.7-12.6c1-4.5,2-9,3.1-13.5
		c0.2-0.7,0.6-1.5,1.1-2.1c2.1-2,4.7-3.2,7.4-4.1c0.1,0.1,0.3,0.2,0.4,0.3c-0.6,1-1,2.1-1.8,2.9c-3.7,3.6-5.4,8-5.1,13.2
		c0.1,1.1-0.6,2.4,0.7,3.5c0.5-0.4,0.9-0.6,1.3-1c3.2-4,6.4-8,9.7-11.9c2.4-2.9,5.4-5.2,8.9-7c0.3,1.8-0.4,2.8-1.7,3.7
		c-4.8,3.3-9.2,7-12.5,11.8c-0.8,1.2-1.7,2.3-1.4,4c1.1,0.3,1.5-0.6,1.9-1.1c4.1-5.6,9.5-9.9,15.2-13.8c0.4-0.3,0.8-0.5,1.4-0.8
		c0.1,1.6-0.6,2.6-1.6,3.4c-1.9,1.4-4,2.6-5.7,4.3c-2.7,2.5-5.1,5.3-7.6,8c-0.5,0.6-0.9,1.3-1.2,2c-0.1,0.3,0,1,0.1,1.1
		c0.4,0.1,0.9,0.1,1.3-0.1c0.5-0.3,0.8-0.8,1.2-1.2c3.2-3.1,6.4-6.2,9.7-9.3c0.6-0.5,1.2-0.9,2.1-1.6c0.7,2.2,0.1,4-1,5.6
		c-1,1.4-2.2,2.5-3.4,3.7c-1.4,1.3-2.9,2.5-4.3,3.8c-1.7,1.5-2.6,3.4-2.7,5.7c-0.1,2-0.2,4-0.2,6c0,5.2-2.1,9.5-5.5,13.2
		c-1.1,1.2-2.7,2-4.1,2.9c-0.7,0.5-1.5,0.8-2.4,1.2c0.2,0.4,0.2,0.7,0.4,0.7c1.9,0.5,2.5,1.9,2.9,3.6c3.2,12.4,9.1,23.5,16.6,33.8
		c7.5,10.4,14.9,20.8,21.1,32c3.1,5.5,5.8,11.2,8.6,16.9c1.3,2.5,1.6,4.9-0.6,7.4c-1.6,1.8-3.1,3.6-5.1,5c-5.7,3.7-11.8,6.5-18,9
		c-17.9,7.3-36.5,12.2-55.6,15.3c-7.3,1.2-14.7,2.2-22,3.4c-2.5,0.4-5,1.1-7.5,1.6c-1.7,0.3-2.5,1.8-3.5,3.2
		c0.9-0.2,1.8-0.3,2.5-0.8c2.6-1.7,5.4-1,8.2-1C258.5,221.3,251,233.1,241.9,244.9z"/>
	<path class="st3" d="M454.2,340c1,1.5,2.4,2.8,3.1,4.5c1.7,3.9,3.3,7.8,4.6,11.8c1.4,4.2,1.9,8.6,1.2,13c-0.9,5.5-3.6,9.6-9.1,11.3
		c-6.5,2-6.1,2.9-8.1,7.8c-1.1,2.6-2.4,5.2-3.9,7.7c-5.1,8.2-12.4,12.7-22.1,13.1c-1.8,0.1-3.7,0.3-5.5,0.5
		c-3.6,0.5-6.6,2.1-8.8,4.9c-1.8,2.1-3.3,4.5-4.9,6.8c-1.5,2.2-2.9,4.4-4.6,6.5c-3.3,4-7.6,5.5-12.6,4.8c-2.4-0.4-4.7-0.8-7.1-1.4
		c-9.9-2.5-19.4-1-28.4,3.6c-2.8,1.5-5.7,3-8.5,4.4c-0.8,0.4-1.6,0.7-2.4,1.1c-4.1,1.6-8.1,1.6-12.1-0.2c-3.8-1.7-7.6-3.4-11.5-4.9
		c-8.1-3.1-16.2-3.2-24.2,0.7c-2.8,1.4-5.6,2.8-8.4,4.1c-3.1,1.4-6.3,2.8-9.5,4c-4.8,1.8-9.6,1.5-14.1-1.1c-2.9-1.7-5.9-3.2-8.9-4.8
		c-10.2-5.7-20.9-7-32.2-4.1c-3.6,0.9-7.2,1.7-10.8,2.3c-6.9,1.3-12.7-0.7-17.1-6.2c-1.7-2.1-3.3-4.3-5-6.4c-0.8-1-1.6-2-2.4-3
		c-4.1-4.9-9.4-6.4-15.5-4.9c-2.8,0.7-5.5,1.7-8.3,2.4c-2.4,0.7-4.8,1.3-7.2,1.7c-3.2,0.6-6-0.5-7.9-3c-2.4-3.2-4.7-6.6-6.8-10.1
		c-1.7-2.9-3.1-5.9-4.7-8.9c-0.4-0.8-0.9-1.7-1.4-2.5c-2.1-3.4-5-4.9-9.1-4.5c-3.3,0.3-6.7,0.5-10,0.3c-6.5-0.4-11.5-3.5-14.7-9.1
		c-7-12.1-8.4-24.7-1.6-37.5c1-1.8,2.1-3.5,3.2-5.2c0.2,0,0.3,0.1,0.5,0.1c0,0.4,0.1,0.9,0.1,1.3c-0.1,9.1,3,17.1,8.3,24.3
		c6.4,8.8,14.5,15.7,23.3,21.9c13.1,9.2,27.6,15.3,43.1,19.3c15.4,3.9,31,6.6,46.7,8.3c17.9,2,35.8,3.1,53.8,3.9
		c19,0.9,38.1,1.1,57.1,0.7c25.4-0.5,50.1-4.7,73.9-13.9c10.3-4,20-8.9,28.4-16.1c7.1-6.1,12.8-13.4,17.5-21.4
		c4-6.9,4.9-14.6,4.5-22.5c-0.1-1.7-0.3-3.3-0.4-5C453.9,340.1,454,340,454.2,340z"/>
	<path class="st2" d="M232.8,47.5c0.4,0.1,0.6,0.1,0.6,0.2c5.4,5.7,12.3,8.5,19.9,9.8c4.4,0.7,8.9,1,13.3,1.5
		c2.4,0.3,4.8,0.5,7.1,0.9c0.7,0.1,1.6,0.6,1.9,1.2c4.8,8.7,9.8,17.3,11.5,27.3c1.2,7.2,1.4,14.5,0.4,21.7c-0.4,2.9-0.6,5.7-1.2,8.5
		c-0.9,4.3-2.6,8.3-5.9,11.3c-1.6,1.4-3.4,2.8-5.3,3.6c-6.6,2.5-13.5,3.6-20.5,2.3c-2.3-0.4-4.6-1.3-6.7-2.4
		c-11.7-6.3-20.9-15.4-28.2-26.5c-0.8-1.3-1.6-2.6-2.5-3.8c-0.7-1-0.7-1.9-0.2-3.1c2.6-5.9,5.3-11.8,7.7-17.8
		c3.6-9.2,6.6-18.5,7.6-28.4C232.6,51.6,232.7,49.6,232.8,47.5z M257.9,88.9c1.7,1.2,2.4,1.5,3.8,1.4c6.6-0.2,13.4-7.3,13.4-12.6
		c0-0.6,0.1-1.2-0.1-1.6c-0.2-0.4-0.8-0.8-1.2-0.9c-0.3,0-0.9,0.4-1.1,0.7c-0.3,0.6-0.2,1.3-0.4,1.8c-0.6,1.5-1,3.1-1.9,4.3
		c-2.4,3.4-5.7,5.5-9.9,6C259.8,88.2,259.1,88.5,257.9,88.9z M226.7,100.5c-0.1,0.3-0.2,0.5-0.3,0.8c0.6,0.5,1.1,1.1,1.7,1.4
		c2.9,1.3,5.9,1.9,9.1,1.5c3.3-0.5,6-2,8.1-4.7c0.4-0.6,0.8-1.2,1-1.9c0.1-0.4-0.1-1-0.4-1.2c-0.3-0.2-1-0.2-1.3,0
		c-0.6,0.4-1.1,0.9-1.5,1.5c-2.5,3-5.8,4.2-9.6,3.7c-1.5-0.2-3-0.5-4.5-0.8C228.2,100.7,227.4,100.6,226.7,100.5z M257.7,97.5
		c-0.2,0.1-0.3,0.3-0.5,0.4c0.5,0.7,0.9,1.6,1.5,2.2c1.6,1.6,3.3,3.2,5,4.7c1,0.9,1.5,2,1.2,3.4c-0.1,0.7,0,1.5,0,2.2
		c0.2,0.1,0.3,0.1,0.5,0.2c0.4-0.4,0.9-0.8,1.2-1.3c1-1.8,0.6-3.9-1.1-5.4c-2.3-2.1-4.8-4.1-7.3-6.2
		C258.1,97.5,257.9,97.5,257.7,97.5z M252.4,78.7c2,0.1,3.1-1.4,4.7-2.2c1.6-0.8,3.2-1.7,4.8-2.7c1.5-0.9,3.5-0.7,4.9-2.3
		c-1.6-0.9-1.6-1-2.8-0.6C259.4,72.4,255.4,74.8,252.4,78.7z M273.4,116.5c-0.7,1-1.2,2.1-2,2.9c-2.7,2.8-5.8,4.3-9.9,3.4
		c-0.4-0.1-1.2,0.2-1.4,0.5c-0.3,0.8,0.4,1.1,1,1.2c1.3,0.1,2.7,0.2,4,0c3.7-0.4,6.5-2.4,8.6-5.4
		C274.5,118.2,274.9,117.3,273.4,116.5z M229,91.4c0.1,0.2,0.2,0.3,0.3,0.5c1.9-1.1,3.7-2.3,5.7-3.2c2-0.9,4.1-1.4,6.3-2.2
		c-0.9-1.5-2.2-1.3-3.4-1.1C233.9,86.2,230.9,88,229,91.4z"/>
	<path class="st2" d="M327.3,334.1c-1-2-1.1-4.1-1.1-6.3c0-3.2,0.1-6.4,0-9.6c0-1,0-2.1-1.5-2.7c-0.3,0.6-0.7,1.2-0.8,1.8
		c-0.2,0.8-0.1,1.6-0.2,2.4c-0.1,2.3-0.3,4.5-1.7,6.6c-1.6,2.5-2.3,5.4-2.2,8.5c0.1,1.4,0,2.9-0.1,4.3c-0.1,1.3-0.5,2.7-2.2,3.5
		c-0.2-1.1-0.6-2-0.6-2.8c-0.1-3.8,0.2-7.5,1.3-11.1c0.8-2.5,1.4-5.1,1.9-7.7c0.3-1.3,0.6-2.7-1.2-3.8c-0.4,0.9-0.9,1.7-1.1,2.6
		c-0.5,2-1.2,3.8-2.5,5.3c-1.9,2.3-2.3,4.8-1.7,7.7c0.3,1.3,0.3,2.7,0.3,4c0,2.7-0.1,5.4,0,8.1c0,0.8,0.1,1.6-0.9,2.3
		c-0.2-0.7-0.3-1.2-0.5-1.7c-0.7-2.7-1.2-5.5-2-8.1c-1.6-5.6-1.1-10.9,2.1-15.9c0.3-0.5,0.6-1.1,0.9-1.7c0.6-1,0.3-1.7-1-2.3
		c-1.2,1.3-2.7,2.5-3.9,3.9c-2.4,2.8-4.5,5.7-5.7,9.3c-0.9,2.7-2.4,5.2-3.6,7.8c-0.2,0-0.3-0.1-0.5-0.1c0.2-2.3,0.3-4.6,0.8-6.9
		c0.7-3.4,2-6.4,3.8-9.4c3.7-6,7-12.2,10.5-18.3c2.3-4.1,3.3-8.7,4.4-13.1c0.4-1.7,0.9-3.4,1.4-5.1c0.7-2.2,2.1-3.9,4.1-5.2
		c4-2.7,8-5.4,11.9-8.1c10.2-7.2,18.1-16.3,24-27.3c2.6-4.9,5-10,8.9-14.2c0.2-0.3,0.3-0.7,0.5-1c-1.6-0.8-1.6-0.8-5.6,2.3
		c-5.3-5.7-10.6-11.4-15.9-17.2c0.4-1.6,0.8-3.1,1.1-4.7c1.3-7.3-1-13.4-5.9-18.7c-1.2-1.3-2.4-2.6-3.7-4c5-2.5,9.9-4.9,15.4-7.6
		c0.2,0.4,0.6,1,1,1.6c4.2,5.1,7.9,10.5,11.2,16.2c6,10.4,13,20,20.7,29.1c2.3,2.8,4.2,5.8,5.5,9.3c1.3,3.8,0.7,7.2-1.3,10.5
		c-0.4,0.6-0.7,1.2-1,1.9c-2.6,6-7.1,10.4-12.8,13.6c-2.9,1.7-5.9,3.1-8.9,4.6c-5.1,2.6-10.3,5.1-15.5,7.7
		c-6.1,3.2-11.2,7.6-16,12.5c-0.5,0.5-0.8,1.1-1.7,1c-1.3-0.1-1.7,0.4-1.6,1.7c0,0.2,0.1,0.5,0.1,0.7c2,7.6,0.9,14.9-2.8,21.6
		c-2.4,4.3-2.7,8.5-2.1,13.2c0.3,2.1,0.1,4.3-0.1,6.4c-0.1,0.9-0.8,1.8-1.2,2.7C327.7,334.2,327.5,334.1,327.3,334.1z"/>
	<path class="st1" d="M262.4,531.7c0,1.9,0,3.8,0,5.7c-0.2,7.2,1.6,13.9,4.7,20.4c4.8,10.1,9.7,20.2,16,29.5
		c0.8,1.2,0.8,2.3,0.5,3.6c-2.4,11.2-5,22.3-7.2,33.5c-2.8,14.5-3.8,29.2-3.8,43.9c0,9.3,0,18.6,0.1,27.8c0,0.6,0,1.3,0,2.3
		c-0.6-0.6-1-0.9-1.3-1.3c-4.3-6.3-7.1-13.4-9.2-20.7c-2.1-7.3-2.8-14.9-3.9-22.4c-0.6-3.9-1.4-7.7-2.2-11.5c-0.2-1.1-0.3-2,0.3-3
		c1.4-2.7,2-5.5,2-8.5c0.2-8.2,0.6-16.5-0.2-24.7c-0.7-7.3-1.8-14.6-2.5-21.9c-1-9.9-1.3-19.8-0.3-29.7c0.8-7.6,3-14.9,6-21.9
		c0.2-0.4,0.4-0.8,0.7-1.2C262,531.6,262.2,531.6,262.4,531.7z"/>
	<path class="st4" d="M280.6,59.1c-1.3-0.5-2.5-0.7-3.5-1.3c-3.9-2-8.2-2.7-12.5-2.8c-6.2-0.2-12.3-1-18.1-3.1
		c-4.9-1.7-9.1-4.3-12.5-8.1c-1-1.1-1.7-2.5-2.6-3.7c-0.8-1.2-1.3-2.7-3.1-3.4c0,0.8-0.1,1.5,0,2c2,8.6,1.1,17.2-1.1,25.6
		c-2.9,11-6.6,21.7-11.8,31.9c-1.1,2.2-1.9,4.6-2.8,6.9c-0.2,0.4-0.3,0.9-0.5,1.5c-0.5-0.3-0.8-0.5-1.1-0.8
		c-5.1-5-9.2-10.6-11.8-17.3c-2.3-5.7-2.4-11.7-1.6-17.7c0.9-6.5,2.2-12.8,6.1-18.2c3-4.3,6.7-7.9,10.9-11.1
		c1.7-1.3,3.8-1.9,5.8-2.7c1.6-0.6,3.2-0.9,4.8-1.4c1.4-0.5,2.4-1.4,3.1-2.8c0.3-0.8,1.1-1.7,1.8-2c1.6-0.7,3.3-1.3,5-1.4
		c6.7-0.5,13.4,0.1,19.9,2.1c7.1,2.1,12.6,6.5,17.2,12.1c3.7,4.5,6.1,9.7,8.5,15C280.8,58.4,280.7,58.6,280.6,59.1z"/>
	<path class="st1" d="M307,502.3c-5.3-21.5-10.6-42.9-13.3-64.7c1.8-1.1,3.7-1.3,5.6-1.5c5.6-0.5,10.8,0.9,15.8,3
		c2.4,1,4.8,2.1,7.2,3.2c3.3,1.5,6.7,2.6,10.8,2.3c-0.3,1.1-0.5,2-0.8,2.8c-3.3,8-6.4,16.2-10.1,24.1c-4.4,9.6-9.4,19.1-14.1,28.6
		C307.9,500.8,307.4,501.5,307,502.3z"/>
	<path class="st2" d="M276.4,137.1c0.3,2,0.5,3.8,0.8,5.5c0.8,4.5,3.6,7.1,8,8.3c3.1,0.8,6.2,0.9,9.2-0.2c4.3-1.6,8.5-3.1,12.8-4.9
		c2.8-1.1,5.6-2,8.6-2c2.4-0.1,4.6,0.7,6.7,1.7c0.8,0.4,1.3,0.9,1.3,1.8c0,0.2,0,0.5,0.1,0.7c0.4,3.9,0.4,7.8,3.4,11.3
		c-2.7,0.4-5.1,0.8-7.4,1.2c-7.3,1.3-14.6,2.8-22,3.8c-9.9,1.2-19.9,2.2-29.9,1.3c-3.2-0.3-6.4-0.7-9.5-1c-2.7-0.2-5.4-0.3-8.1-0.5
		c-1-0.1-2.1-0.3-3.5-0.5c0.9-0.9,1.5-1.5,2.1-2.2c4-4.3,6.1-9.4,5.9-15.2c-0.1-2.1-0.8-4.2-1.2-6.5
		C261.1,140.7,268.7,139.5,276.4,137.1z"/>
	<path class="st3" d="M253.7,644.6c0.5,3.5,1,7.1,1.5,10.6c0.9,7,1.6,14,3.3,20.8c2.6,10,6.6,19.3,13.1,27.5
		c0.5,0.7,0.9,1.7,0.9,2.6c0.1,6.5,0.1,12.9,0.2,19.4c0.1,3.2-1.4,5.1-4.2,6.3c-2.8,1.3-5.5,0.8-7.8-1.1c-1.8-1.4-2.8-3.4-3.6-5.5
		c-1.5-4.1-2.4-8.3-2.9-12.6c-0.7-5.6-1.2-11.3-1.9-16.9c-1.1-8.7-2.3-17.4-5.2-25.8c-0.9-2.6-1.2-5.4-1.5-8.2
		c-0.3-2.7,0.3-5.2,1.5-7.7c0.5-1,0.9-2,1.3-3.1c0.9-2.7,2.9-4.5,4.7-6.5C253.4,644.5,253.6,644.5,253.7,644.6z"/>
	<path class="st3" d="M306.1,655.3c1.3,5,2.7,9.7,3.9,14.4c2.1,8.6,4.2,17.3,7.2,25.6c2.2,5.9,4.5,11.6,7.8,17
		c2,3.3,4.2,6.4,7.2,8.9c0.9,0.7,1.2,1.5,1.4,2.6c0.8,4.6,1.8,9.3,2.6,13.9c0.2,1.4,0.2,2.9,0.3,4.3c0.1,1.2-0.6,1.9-1.6,2
		c-1.3,0.1-2.7,0.2-4,0c-5.1-0.9-8.7-3.9-11.4-8.1c-1.4-2.2-2.8-4.5-3.7-7c-2.7-7.5-4.5-15.2-4.4-23.2c0-4.2,0-8.5,0-12.7
		c0-2.2-0.6-4.2-1.4-6.3c-2.1-5.3-4.1-10.6-5.9-16c-0.8-2.4-1-5-1.3-7.5C302.5,659.8,303.2,658.2,306.1,655.3z"/>
	<path class="st4" d="M240.8,133.4c-1.2,4.9-6,8.4-11.5,8.8c-5.1,0.3-10-3-11.8-7.8c-1.7-4.5-0.7-9.1,2.6-11.7
		c0.9,0.6,1.9,1.4,2.9,1.9c2.1,1.2,4.3,2.4,6.5,3.6c1.4,0.7,2.8,1.3,4.1,0c0.5,0.3,0.8,0.4,1,0.6
		C236.6,130.3,238.6,131.8,240.8,133.4z"/>
	<path class="st4" d="M291.6,103.7c0-3.3,0-6.4,0-9.6c0-0.5,0.1-1,0.3-1.4c1.8-4.1,1.9-8.4,1.1-12.7c-0.1-0.6-0.2-1.2-0.3-1.8
		c2.7-0.3,2.9-0.3,3.7,1.9c1.6,4.6,4.2,8.7,7,12.5c1.8,2.4,1.4,4.3,0.1,6.6C300.9,103.7,296.6,105.5,291.6,103.7z"/>
	<path class="st2" d="M316.3,195.6c-1.2,6.9-3.3,13.1-5.6,19.8c-4.2-6-10.1-9.8-15.8-14.3C302.1,199.2,309,197.5,316.3,195.6z"/>
	<path class="st2" d="M228.5,123.9c-0.1,0-0.4,0-0.5-0.1c-4.3-2.3-8.3-5.1-11.2-9.2c-1.1-1.6-1.9-3.5-2.5-5.4
		c-0.4-1.2-0.2-1.2,1-2.4C219.7,112.6,224.1,118.2,228.5,123.9z"/>
	<path class="st2" d="M290.1,86.8c-0.6-7.9-4.2-14.6-8.1-21.3c1.3-0.7,2.3-0.3,3.1,0.8c0.5,0.8,1,1.6,1.3,2.5
		c1.3,4.2,2.5,8.4,3.6,12.6c0.5,1.7,0.6,3.6,0.9,5.3C290.6,86.8,290.3,86.8,290.1,86.8z"/>
	<path d="M259.3,236.6c1.4,0.8,2.5,1.6,3.8,2c2.7,0.9,5.5,1.8,8.3,2.2c6.6,1.1,13.2,0.7,19.7-1.2c3.2-1,6.3-2.4,9-4.4
		c0.8-0.6,1.7-1.4,2.7-0.4c0.7,0.7,0.4,1.9-0.9,2.8c-1.9,1.3-3.8,2.7-5.9,3.6c-9.8,4-19.9,4.5-30,1.2c-1.9-0.6-3.6-1.6-5.3-2.7
		C259.3,238.9,259.3,238.5,259.3,236.6z"/>
	<path d="M257.9,88.9c1.2-0.4,1.9-0.7,2.6-0.8c4.2-0.5,7.5-2.7,9.9-6c0.9-1.2,1.3-2.9,1.9-4.3c0.2-0.6,0.2-1.3,0.4-1.8
		c0.2-0.4,0.7-0.8,1.1-0.7c0.5,0.1,1,0.5,1.2,0.9c0.2,0.5,0.1,1.1,0.1,1.6c-0.1,5.3-6.8,12.4-13.4,12.6
		C260.2,90.3,259.5,90.1,257.9,88.9z"/>
	<path d="M226.7,100.5c0.7,0.1,1.5,0.2,2.2,0.3c1.5,0.3,3,0.6,4.5,0.8c3.8,0.5,7.1-0.7,9.6-3.7c0.5-0.5,0.9-1.1,1.5-1.5
		c0.3-0.2,1-0.2,1.3,0c0.3,0.2,0.5,0.9,0.4,1.2c-0.2,0.7-0.5,1.3-1,1.9c-2.1,2.7-4.8,4.2-8.1,4.7c-3.2,0.4-6.2-0.2-9.1-1.5
		c-0.6-0.3-1.2-0.9-1.7-1.4C226.5,101.1,226.6,100.8,226.7,100.5z"/>
	<path d="M257.7,97.5c0.2,0.1,0.5,0.1,0.6,0.2c2.4,2,4.9,4,7.3,6.2c1.7,1.6,2,3.6,1.1,5.4c-0.3,0.5-0.8,0.9-1.2,1.3
		c-0.2-0.1-0.3-0.1-0.5-0.2c0-0.7-0.2-1.5,0-2.2c0.3-1.4-0.2-2.5-1.2-3.4c-1.7-1.5-3.4-3.1-5-4.7c-0.6-0.6-1-1.5-1.5-2.2
		C257.3,97.7,257.5,97.6,257.7,97.5z"/>
	<path d="M252.4,78.7c3-3.9,6.9-6.3,11.5-7.7c1.2-0.4,1.3-0.3,2.8,0.6c-1.3,1.5-3.4,1.4-4.9,2.3c-1.6,0.9-3.2,1.8-4.8,2.7
		C255.6,77.3,254.4,78.9,252.4,78.7z"/>
	<path d="M273.4,116.5c1.5,0.8,1.1,1.7,0.5,2.6c-2.1,3-4.9,5-8.6,5.4c-1.3,0.1-2.7,0.1-4,0c-0.6,0-1.4-0.4-1-1.2
		c0.1-0.3,0.9-0.6,1.4-0.5c4,0.9,7.2-0.6,9.9-3.4C272.2,118.6,272.7,117.5,273.4,116.5z"/>
	<path d="M229,91.4c1.9-3.4,5-5.3,8.8-6c1.2-0.2,2.5-0.4,3.4,1.1c-2.2,0.7-4.3,1.3-6.3,2.2c-2,0.9-3.8,2.1-5.7,3.2
		C229.2,91.7,229.1,91.6,229,91.4z"/>
</g>
</svg>
