<?xml version="1.0" encoding="utf-8"?>
<!-- Generator: Adobe Illustrator 24.1.2, SVG Export Plug-In . SVG Version: 6.00 Build 0)  -->
<svg version="1.1" xmlns="http://www.w3.org/2000/svg" xmlns:xlink="http://www.w3.org/1999/xlink" x="0px" y="0px"
	 viewBox="0 0 690 500" style="enable-background:new 0 0 690 500;" xml:space="preserve">
<style type="text/css">
	* { transition: all .3s}
	.st0{clip-path:url(#SVGID_2_);}
	.st1{clip-path:url(#SVGID_4_);}
	.st2{clip-path:url(#SVGID_4_);fill:#FF6927;}
	.st3{clip-path:url(#SVGID_4_);fill:#275615;}
	.st4{clip-path:url(#SVGID_6_);}
	.st5{clip-path:url(#SVGID_8_);}
	.st6{clip-path:url(#SVGID_8_);fill:#2D2D2D;}
	.st7{clip-path:url(#SVGID_8_);fill:#1BDBFF;}
	.st8{clip-path:url(#SVGID_8_);fill:#FF39AE;}
	.st9{clip-path:url(#SVGID_8_);fill:#BABABA;}
	.st10{clip-path:url(#SVGID_10_);}
	.st11{clip-path:url(#SVGID_12_);}
	.st12{clip-path:url(#SVGID_12_);fill:#2D2D2D;}
	.st13{clip-path:url(#SVGID_12_);fill:#1BDBFF;}
	.st14{clip-path:url(#SVGID_12_);fill:#FF39AE;}
	.st15{clip-path:url(#SVGID_12_);fill:#BABABA;}
	.st16{fill:#FFFC4A;stroke:#C9B500;stroke-width:3;stroke-miterlimit:10;}
	#Q1, #Q2 { transition: all .3s}
	.hide { opacity: 0 }
</style>
<g id="P1">
	<g>
		<g>
			<defs>
				<rect id="SVGID_1_" x="65" y="187.9" width="177.5" height="204.5"/>
			</defs>
			<clipPath id="SVGID_2_">
				<use xlink:href="#SVGID_1_"  style="overflow:visible;"/>
			</clipPath>
			<g class="st0">
				<defs>
					<rect id="SVGID_3_" x="65" y="187.9" width="177.5" height="204.5"/>
				</defs>
				<clipPath id="SVGID_4_">
					<use xlink:href="#SVGID_3_"  style="overflow:visible;"/>
				</clipPath>
				<path class="st1" d="M142.8,242.5c-0.7-1.4-0.6-2.2,0.5-3.4c0.9-1,2.1-1.6,3.3-1.9c3-0.7,5.9-0.6,8.8,0.7c2.4,1.1,3.5,3,3.3,5.7
					c1.7,0.5,3.4,1.1,5.1,1.6c2.1,0.7,4.2,1.2,6.3,2c7.7,3,14.7,7.2,20.3,13.3c4.8,5.1,8.8,10.8,11.9,17c5.1,10.3,5.4,20.6,1,31.2
					c-2.9,7.2-6.9,13.7-12.1,19.5c-5.9,6.6-13.3,11-21.8,13.2c-9.4,2.4-18.8,2.7-28.3,0.9c-8.9-1.7-17-5.3-24.1-10.9
					c-10.9-8.6-16-20-15.7-33.8c0.2-9.3,2.8-17.9,6.8-26.2c3.1-6.5,7.1-12.3,12.5-17.2c5.9-5.5,12.7-9.5,20.6-11.4
					c0.3-0.1,0.6-0.1,0.9-0.2C142.2,242.6,142.5,242.6,142.8,242.5 M152.2,341.2c6.4,0,11.8-0.6,17.1-2.1c6.4-1.8,12.2-4.7,17.1-9.3
					c7-6.6,11.9-14.5,15.3-23.5c3.2-8.5,3.2-16.9-0.4-25.3c-2.8-6.5-6.7-12.2-11.4-17.6c-6-6.9-13.6-11.4-22-14.6
					c-3.1-1.2-6.4-1.8-9.7-2.4c-5.1-1-10.3-1.4-15.5-0.7c-7.7,1-14.3,4.4-20.2,9.3c-1.1,0.9-2.2,2-3.2,3.1
					c-4.7,5.1-8.2,11-10.9,17.3c-3.6,8.4-5.6,17-5,26.2c0.4,5.9,1.9,11.6,4.9,16.8c3.6,6.2,8.8,10.9,14.8,14.6
					C132.4,338.6,142.4,341.1,152.2,341.2 M144.3,241.2c0.3,0.2,0.5,0.3,0.8,0.4c1.4,0.5,2.8,0.9,4.2,1.4c0.5,0.2,1.1,0.2,1.6,0.2
					c1.6,0,3.3-0.2,4.9-0.2c0.8,0,0.9-0.1,0.7-0.9c-0.3-1.2-1.2-1.9-2.3-2.4c-2.5-0.9-5.1-1-7.7-0.3
					C145.6,239.7,144.8,240.2,144.3,241.2"/>
				<path class="st2" d="M152.2,341.2c-9.8-0.1-19.8-2.6-29-8.2c-6.1-3.7-11.2-8.4-14.8-14.6c-3-5.2-4.5-10.8-4.9-16.8
					c-0.6-9.1,1.4-17.8,5-26.2c2.7-6.3,6.1-12.2,10.9-17.3c1-1.1,2-2.2,3.2-3.1c5.9-4.9,12.5-8.3,20.2-9.3
					c5.2-0.7,10.4-0.3,15.5,0.7c3.3,0.6,6.6,1.2,9.7,2.4c8.4,3.2,16,7.6,22,14.6c4.6,5.3,8.6,11.1,11.4,17.6
					c3.6,8.4,3.6,16.8,0.4,25.3c-3.4,8.9-8.3,16.9-15.3,23.5c-4.9,4.6-10.7,7.5-17.1,9.3C164,340.6,158.6,341.2,152.2,341.2
					 M135.5,257.8c0.1,0.8,0.2,1.3,0.4,1.8c0.1,0.3,0.5,0.5,0.8,0.7c0.2-0.3,0.5-0.6,0.6-0.9c0-0.5-0.1-1-0.2-1.5
					c-0.2-0.5-0.2-1.4-0.9-1.3C135.8,256.7,135.6,257.5,135.5,257.8 M164.2,292.1c0-1-0.8-1.9-1.4-1.8c-0.3,0-0.6,0.4-0.6,0.7
					c-0.1,0.8,0.6,1.7,1.2,1.6C163.7,292.6,164,292.3,164.2,292.1 M188.3,304.8c0.6-0.7,0.8-1.3,0.4-2c-0.2-0.5-0.7-0.7-1.1-0.4
					c-0.5,0.2-0.7,0.7-0.4,1.1C187.5,303.9,187.9,304.3,188.3,304.8 M153.2,294.1c-0.5-0.6-0.9-1.1-1.3-1.6
					c-0.2,0.4-0.6,0.8-0.7,1.2c-0.1,0.7,0.5,1.3,1.1,1.2C152.5,294.9,152.8,294.5,153.2,294.1 M130.3,312.5c-0.6-0.9-1.3-1.1-2-0.6
					c-0.6,0.4-0.6,0.9,0,1.2C129,313.5,129.7,313.3,130.3,312.5 M118.2,303.7c0-0.9-0.6-1.6-1.1-1.7c-0.5,0-0.7,0.4-0.7,0.8
					c0,0.7,0.5,1.4,1.1,1.3C117.8,304.1,118.1,303.8,118.2,303.7 M177.1,295.6c0.1-0.1,0.4-0.4,0.4-0.7c0.1-0.6-0.6-1.2-1.3-1.2
					c-0.4,0-0.6,0.2-0.6,0.6C175.7,295,176.2,295.6,177.1,295.6 M128.4,259.7c0.1-0.2,0.5-0.4,0.5-0.7c0.1-0.5-0.6-1.2-1-1.1
					c-0.3,0.1-0.7,0.5-0.7,0.7C127,259.3,127.5,259.5,128.4,259.7 M183.5,270.6c0-0.8-0.5-1.4-1.1-1.3c-0.3,0.1-0.6,0.5-0.6,0.7
					c0,0.6,0.3,1.1,0.9,1.1C183.1,271.1,183.4,270.7,183.5,270.6 M115.3,293c0.3-0.8,0.5-1.4-0.1-2c-0.2-0.2-0.6-0.3-0.8-0.2
					c-0.2,0-0.3,0.4-0.3,0.7C114.1,292.2,114.6,292.6,115.3,293 M155.8,284.2c-0.4-0.4-0.7-0.8-1-1.1c-0.2,0.3-0.6,0.6-0.7,0.9
					c-0.1,0.5,0.2,1.1,0.8,1.1C155.2,285.2,155.4,284.6,155.8,284.2 M178,267.8c-0.5-0.4-0.7-0.9-1-0.9c-0.6-0.1-0.8,0.4-0.8,0.9
					c0,0.5,0.2,0.9,0.7,0.9C177.2,268.6,177.5,268.2,178,267.8 M136.8,285.4c-0.4-0.5-0.8-0.8-1.1-1.2c-0.2,0.3-0.5,0.5-0.6,0.8
					c-0.1,0.6,0.4,1.2,0.9,1.1C136.3,286.1,136.4,285.7,136.8,285.4 M135.4,305.7c0.1-0.1,0.3-0.2,0.4-0.2c-0.1-0.5-0.1-1-0.3-1.5
					c-0.1-0.2-0.5-0.2-0.8-0.3c-0.1,0.3-0.4,0.7-0.3,0.9C134.6,305,135,305.3,135.4,305.7 M135.1,318.5c0-0.1,0-0.2,0-0.3
					c-0.3-0.2-0.7-0.5-1.1-0.5c-0.5-0.1-0.9,0.2-0.8,0.8c0.1,0.3,0.5,0.7,0.8,0.7C134.5,319,134.8,318.7,135.1,318.5 M119.2,298.8
					c0.1-0.1,0.4-0.3,0.4-0.5c0-0.6-0.2-1-0.8-1.1c-0.2,0-0.7,0.3-0.7,0.5C118,298.3,118.5,298.6,119.2,298.8 M121,292.7
					c-0.5-0.4-0.8-0.8-1.1-0.8c-0.2,0-0.7,0.5-0.7,0.8c0,0.3,0.4,0.7,0.7,0.8C120.1,293.5,120.5,293.1,121,292.7 M177.6,307.6
					c0.5,0.4,0.8,0.7,1.2,0.8c0.1,0,0.6-0.6,0.6-0.7c-0.2-0.3-0.5-0.6-0.9-0.8C178.4,306.8,178.1,307.2,177.6,307.6 M160,300.2
					c-0.5-0.4-0.8-0.7-1.1-0.7c-0.3,0-0.7,0.5-0.7,0.7c0,0.3,0.4,0.7,0.7,0.7C159.2,301,159.5,300.6,160,300.2 M130.7,321.3
					c-0.4,0.5-0.7,0.7-0.7,0.9c0,0.5,0.4,0.9,0.9,0.9c0.2,0,0.6-0.4,0.6-0.5C131.4,322.2,131.1,321.9,130.7,321.3 M152.2,311.2
					c-0.4-0.3-0.6-0.7-0.9-0.8c-0.1,0-0.6,0.5-0.6,0.6c0.2,0.4,0.5,0.6,0.8,0.9C151.6,311.8,151.8,311.5,152.2,311.2 M143.8,328.8
					c-0.5-0.4-0.8-0.7-1.1-1c-0.2,0.2-0.5,0.5-0.6,0.7c-0.1,0.5,0.2,0.9,0.8,0.9C143.2,329.5,143.4,329.2,143.8,328.8 M117.8,277.7
					c0.4-0.4,0.6-0.6,0.7-0.8c0-0.5-0.2-0.9-0.8-0.9c-0.2,0-0.6,0.4-0.6,0.5C117.2,276.9,117.5,277.2,117.8,277.7 M189.5,278.8
					c-0.5-0.4-0.7-0.6-1-0.8c-0.2,0.3-0.6,0.5-0.6,0.9c0,0.2,0.4,0.7,0.6,0.7C188.7,279.5,189,279.2,189.5,278.8 M141.4,268.2
					c-0.4,0.5-0.8,0.8-0.7,0.9c0.1,0.3,0.4,0.6,0.7,0.7c0.1,0.1,0.6-0.4,0.6-0.6C142,269,141.7,268.7,141.4,268.2 M117.1,313.3
					c0-0.1,0-0.2,0-0.3c-0.3-0.2-0.6-0.5-0.9-0.5c-0.3,0-0.5,0.4-0.8,0.6c0.2,0.2,0.5,0.6,0.7,0.6
					C116.4,313.7,116.8,313.4,117.1,313.3 M132.5,262.2c-0.3,0.5-0.7,0.8-0.7,0.9c0.1,0.3,0.4,0.6,0.7,0.7c0.1,0.1,0.6-0.3,0.6-0.4
					C133.1,263.1,132.9,262.7,132.5,262.2 M169.4,326.9c0.3-0.5,0.6-0.8,0.6-1.1c0-0.2-0.4-0.4-0.6-0.6c-0.2,0.3-0.6,0.5-0.6,0.8
					C168.7,326.1,169,326.4,169.4,326.9 M144.9,318.9c-0.4-0.6-0.8-1.1-1.5-0.8c-0.1,0.1-0.3,0.5-0.2,0.6
					C143.6,319.4,144.1,319.2,144.9,318.9 M188.9,295.3c-0.5-0.4-0.9-0.6-1.2-0.8c-0.1,0-0.3,0.4-0.5,0.6c0.3,0.2,0.6,0.5,0.9,0.7
					C188.2,295.8,188.5,295.6,188.9,295.3 M165.4,314.2c-0.4-0.3-0.6-0.6-0.9-0.8c-0.2,0.2-0.5,0.5-0.5,0.7c0.1,0.3,0.4,0.6,0.6,0.9
					C164.9,314.7,165.1,314.5,165.4,314.2 M125.5,297.7c-0.2-0.7-0.5-1.1-1.3-0.9c-0.2,0.1-0.3,0.5-0.3,0.6
					C124.3,298,124.9,297.9,125.5,297.7 M156.9,257.6c0.4-0.5,0.5-1,0.2-1.6c-0.1-0.1-0.3-0.3-0.4-0.3c-0.2,0.1-0.4,0.2-0.4,0.4
					C156.1,256.7,156.3,257.2,156.9,257.6 M173.4,259.2c-0.1,0-0.2,0-0.3,0c-0.1,0.3-0.4,0.5-0.4,0.7c0.1,0.3,0.4,0.5,0.6,0.8
					c0.2-0.3,0.5-0.5,0.5-0.8C173.8,259.7,173.5,259.4,173.4,259.2 M127.3,272.2c-0.4-0.3-0.6-0.6-0.8-0.6c-0.2,0-0.6,0.4-0.5,0.6
					c0.1,0.3,0.4,0.5,0.6,0.8C126.8,272.7,127,272.5,127.3,272.2 M182,274.3c-0.4-0.3-0.7-0.7-0.8-0.7c-0.3,0.1-0.5,0.4-0.6,0.7
					c0,0.2,0.3,0.5,0.6,0.6C181.4,274.9,181.6,274.6,182,274.3 M122.9,300.8c-0.3,0.5-0.6,0.7-0.5,1c0,0.2,0.4,0.4,0.6,0.6
					c0.2-0.2,0.5-0.4,0.6-0.7C123.5,301.5,123.2,301.2,122.9,300.8 M157.3,329.9c-0.3,0.4-0.5,0.7-0.5,0.9c0,0.2,0.3,0.4,0.5,0.6
					c0.2-0.2,0.5-0.4,0.6-0.7C157.9,330.6,157.6,330.3,157.3,329.9 M157.4,293.2c-0.3,0.5-0.6,0.7-0.5,0.9c0,0.2,0.4,0.5,0.6,0.5
					c0.2,0,0.5-0.4,0.5-0.5C158,293.9,157.7,293.7,157.4,293.2 M145.9,262.2c0.3-0.4,0.6-0.6,0.6-0.8c-0.1-0.2-0.4-0.5-0.6-0.5
					c-0.2,0-0.6,0.3-0.6,0.5C145.2,261.6,145.6,261.8,145.9,262.2 M160.7,268.1c0.2-0.4,0.5-0.7,0.4-0.8c-0.1-0.3-0.4-0.5-0.6-0.7
					c-0.2,0.2-0.5,0.4-0.4,0.6C160.1,267.5,160.3,267.7,160.7,268.1 M185.4,311c-0.3,0.4-0.6,0.6-0.6,0.8c0,0.2,0.3,0.5,0.5,0.5
					c0.2,0,0.5-0.3,0.5-0.5C185.9,311.7,185.7,311.4,185.4,311 M170.6,280.6c0.2-0.5,0.3-1-0.3-1.3c-0.1-0.1-0.5,0.1-0.5,0.2
					C169.7,280.1,170.1,280.4,170.6,280.6 M176.8,318c0.2-0.3,0.5-0.6,0.5-0.7c-0.1-0.3-0.4-0.5-0.5-0.7c-0.2,0.2-0.5,0.4-0.5,0.5
					C176.3,317.4,176.5,317.7,176.8,318 M180.5,262.7c0.2-0.4,0.5-0.6,0.5-0.9c0-0.1-0.2-0.3-0.4-0.5c-0.2,0.2-0.4,0.4-0.5,0.6
					C180.1,262.1,180.3,262.3,180.5,262.7 M136.3,272.3c-0.5,0.1-0.8,0.5-0.6,1c0,0.1,0.4,0.2,0.5,0.2
					C136.7,273.1,136.6,272.7,136.3,272.3 M198.9,293c0-0.2,0-0.4,0-0.6c-0.2-0.1-0.5-0.2-0.7-0.2c-0.2,0-0.4,0.3-0.4,0.4
					c0,0.2,0.2,0.5,0.4,0.6C198.4,293.3,198.6,293.1,198.9,293 M171,307.2c-0.3-0.2-0.5-0.4-0.7-0.4c-0.2,0-0.3,0.2-0.5,0.4
					c0.1,0.2,0.3,0.4,0.4,0.5C170.4,307.6,170.6,307.4,171,307.2"/>
				<path class="st3" d="M144.3,241.2c0.6-1,1.4-1.5,2.3-1.8c2.6-0.8,5.2-0.7,7.7,0.3c1.1,0.4,1.9,1.2,2.3,2.4
					c0.2,0.7,0,0.9-0.7,0.9c-1.6,0-3.3,0.1-4.9,0.2c-0.5,0-1.1,0-1.6-0.2c-1.4-0.4-2.8-0.9-4.2-1.4
					C144.8,241.6,144.5,241.4,144.3,241.2"/>
				<path class="st1" d="M135.5,257.8c0.2-0.3,0.4-1.2,0.6-1.2c0.7-0.1,0.7,0.8,0.9,1.3c0.1,0.5,0.3,1,0.2,1.5
					c0,0.3-0.4,0.6-0.6,0.9c-0.3-0.2-0.7-0.4-0.8-0.7C135.6,259.2,135.6,258.6,135.5,257.8"/>
				<path class="st1" d="M164.2,292.1c-0.2,0.1-0.5,0.5-0.9,0.6c-0.6,0.1-1.3-0.8-1.2-1.6c0-0.3,0.4-0.7,0.6-0.7
					C163.4,290.3,164.2,291.2,164.2,292.1"/>
				<path class="st1" d="M188.3,304.8c-0.4-0.5-0.9-0.9-1.1-1.3c-0.3-0.4-0.1-0.9,0.4-1.1c0.5-0.2,0.9,0,1.1,0.4
					C189.1,303.4,188.9,304,188.3,304.8"/>
				<path class="st1" d="M153.2,294.1c-0.4,0.4-0.7,0.7-1,0.8c-0.6,0.1-1.2-0.5-1.1-1.2c0.1-0.4,0.5-0.8,0.7-1.2
					C152.3,293,152.7,293.5,153.2,294.1"/>
				<path class="st1" d="M130.3,312.5c-0.6,0.8-1.3,1-2,0.6c-0.6-0.3-0.6-0.8,0-1.2C128.9,311.4,129.7,311.7,130.3,312.5"/>
				<path class="st1" d="M118.2,303.7c-0.1,0.1-0.4,0.4-0.7,0.5c-0.6,0.1-1.1-0.6-1.1-1.3c0-0.4,0.1-0.8,0.7-0.8
					C117.6,302.1,118.2,302.8,118.2,303.7"/>
				<path class="st1" d="M177.1,295.6c-0.9,0-1.5-0.6-1.5-1.3c0-0.4,0.2-0.6,0.6-0.6c0.6,0,1.3,0.6,1.3,1.2
					C177.6,295.2,177.2,295.5,177.1,295.6"/>
				<path class="st1" d="M128.4,259.7c-0.8-0.1-1.3-0.4-1.3-1c0-0.3,0.4-0.7,0.7-0.7c0.5-0.1,1.1,0.6,1,1.1
					C128.8,259.3,128.5,259.5,128.4,259.7"/>
				<path class="st1" d="M183.5,270.6c-0.2,0.1-0.4,0.5-0.7,0.5c-0.6,0-1-0.5-0.9-1.1c0-0.3,0.4-0.7,0.6-0.7
					C183,269.2,183.5,269.8,183.5,270.6"/>
				<path class="st1" d="M115.3,293c-0.7-0.4-1.2-0.8-1.2-1.6c0-0.2,0.2-0.6,0.3-0.7c0.2-0.1,0.6,0,0.8,0.2
					C115.8,291.6,115.6,292.3,115.3,293"/>
				<path class="st1" d="M155.8,284.2c-0.4,0.4-0.7,1-0.9,1c-0.6,0-0.9-0.6-0.8-1.1c0.1-0.3,0.4-0.6,0.7-0.9
					C155.1,283.4,155.4,283.8,155.8,284.2"/>
				<path class="st1" d="M178,267.8c-0.5,0.4-0.8,0.8-1.2,0.9c-0.5,0.1-0.7-0.4-0.7-0.9c0-0.5,0.3-1,0.8-0.9
					C177.3,266.9,177.6,267.3,178,267.8"/>
				<path class="st1" d="M136.8,285.4c-0.4,0.4-0.5,0.7-0.8,0.7c-0.5,0.1-1-0.5-0.9-1.1c0.1-0.3,0.4-0.6,0.6-0.8
					C136,284.6,136.4,284.9,136.8,285.4"/>
				<path class="st1" d="M135.4,305.7c-0.3-0.4-0.8-0.7-1-1.1c-0.1-0.2,0.2-0.6,0.3-0.9c0.3,0.1,0.7,0.1,0.8,0.3
					c0.2,0.4,0.2,1,0.3,1.5C135.7,305.5,135.5,305.6,135.4,305.7"/>
				<path class="st1" d="M135.1,318.5c-0.3,0.2-0.7,0.5-1,0.5c-0.3,0-0.7-0.4-0.8-0.7c-0.1-0.5,0.3-0.8,0.8-0.8
					c0.4,0.1,0.7,0.3,1.1,0.5C135.1,318.3,135.1,318.4,135.1,318.5"/>
				<path class="st1" d="M119.2,298.8c-0.8-0.1-1.2-0.4-1.2-1c0-0.2,0.5-0.5,0.7-0.5c0.6,0,0.9,0.5,0.8,1.1
					C119.6,298.5,119.3,298.7,119.2,298.8"/>
				<path class="st1" d="M121,292.7c-0.5,0.4-0.9,0.8-1.1,0.7c-0.3-0.1-0.7-0.5-0.7-0.8c0-0.3,0.4-0.8,0.7-0.8
					C120.2,291.9,120.5,292.3,121,292.7"/>
				<path class="st1" d="M177.6,307.6c0.4-0.4,0.8-0.8,0.9-0.7c0.3,0.2,0.7,0.5,0.9,0.8c0.1,0.1-0.4,0.7-0.6,0.7
					C178.5,308.2,178.2,307.9,177.6,307.6"/>
				<path class="st1" d="M160,300.2c-0.5,0.4-0.8,0.8-1.1,0.8c-0.3,0-0.7-0.5-0.7-0.7c0-0.3,0.4-0.7,0.7-0.7
					C159.2,299.4,159.5,299.8,160,300.2"/>
				<path class="st1" d="M130.7,321.3c0.4,0.6,0.7,0.9,0.9,1.3c0,0.1-0.4,0.5-0.6,0.5c-0.6,0-0.9-0.4-0.9-0.9
					C130,322,130.3,321.8,130.7,321.3"/>
				<path class="st1" d="M152.2,311.2c-0.3,0.4-0.5,0.6-0.7,0.8c-0.3-0.3-0.6-0.6-0.8-0.9c0-0.1,0.5-0.7,0.6-0.6
					C151.5,310.5,151.8,310.8,152.2,311.2"/>
				<path class="st1" d="M143.8,328.8c-0.4,0.3-0.6,0.7-0.9,0.7c-0.5,0-0.8-0.4-0.8-0.9c0-0.3,0.4-0.5,0.6-0.7
					C143.1,328.1,143.4,328.4,143.8,328.8"/>
				<path class="st1" d="M117.8,277.7c-0.3-0.5-0.6-0.8-0.7-1.1c0-0.1,0.4-0.5,0.6-0.5c0.5,0,0.8,0.4,0.8,0.9
					C118.5,277.1,118.2,277.3,117.8,277.7"/>
				<path class="st1" d="M189.5,278.8c-0.5,0.4-0.7,0.7-1,0.7c-0.2,0-0.6-0.5-0.6-0.7c0.1-0.3,0.4-0.6,0.6-0.9
					C188.8,278.2,189,278.4,189.5,278.8"/>
				<path class="st1" d="M141.4,268.2c0.3,0.5,0.6,0.8,0.7,1.1c0,0.2-0.5,0.6-0.6,0.6c-0.3-0.1-0.6-0.4-0.7-0.7
					C140.6,269,141,268.7,141.4,268.2"/>
				<path class="st1" d="M117.1,313.3c-0.3,0.2-0.7,0.4-1,0.4c-0.2,0-0.4-0.4-0.7-0.6c0.3-0.2,0.5-0.6,0.8-0.6
					c0.3,0,0.6,0.3,0.9,0.5C117.1,313.1,117.1,313.2,117.1,313.3"/>
				<path class="st1" d="M132.5,262.2c0.3,0.6,0.6,0.9,0.7,1.2c0,0.1-0.5,0.4-0.6,0.4c-0.3-0.2-0.6-0.4-0.7-0.7
					C131.8,263,132.2,262.6,132.5,262.2"/>
				<path class="st1" d="M169.4,326.9c-0.4-0.5-0.7-0.7-0.7-0.9c0-0.3,0.4-0.5,0.6-0.8c0.2,0.2,0.6,0.4,0.6,0.6
					C170,326,169.7,326.3,169.4,326.9"/>
				<path class="st1" d="M144.9,318.9c-0.7,0.3-1.3,0.5-1.8-0.1c-0.1-0.1,0.1-0.6,0.2-0.6C144,317.8,144.4,318.3,144.9,318.9"/>
				<path class="st1" d="M188.9,295.3c-0.4,0.3-0.7,0.5-0.8,0.5c-0.3-0.2-0.6-0.5-0.9-0.7c0.2-0.2,0.4-0.6,0.5-0.6
					C188.1,294.7,188.4,295,188.9,295.3"/>
				<path class="st1" d="M165.4,314.2c-0.4,0.3-0.6,0.5-0.8,0.7c-0.2-0.3-0.6-0.6-0.6-0.9c0-0.2,0.3-0.5,0.5-0.7
					C164.8,313.6,165.1,313.9,165.4,314.2"/>
				<path class="st1" d="M125.5,297.7c-0.6,0.2-1.2,0.4-1.5-0.3c-0.1-0.1,0.1-0.6,0.3-0.6C125,296.5,125.3,297,125.5,297.7"/>
				<path class="st1" d="M156.9,257.6c-0.6-0.4-0.8-0.9-0.7-1.5c0-0.2,0.2-0.4,0.4-0.4c0.1,0,0.3,0.2,0.4,0.3
					C157.3,256.5,157.2,257.1,156.9,257.6"/>
				<path class="st1" d="M173.4,259.2c0.2,0.3,0.4,0.5,0.4,0.8c0,0.3-0.3,0.5-0.5,0.8c-0.2-0.3-0.6-0.5-0.6-0.8
					c-0.1-0.2,0.2-0.5,0.4-0.7C173.2,259.2,173.3,259.2,173.4,259.2"/>
				<path class="st1" d="M127.3,272.2c-0.3,0.3-0.5,0.6-0.7,0.8c-0.2-0.3-0.5-0.5-0.6-0.8c0-0.1,0.4-0.6,0.5-0.6
					C126.7,271.6,127,271.9,127.3,272.2"/>
				<path class="st1" d="M182,274.3c-0.4,0.3-0.6,0.6-0.8,0.6c-0.2,0-0.6-0.4-0.6-0.6c0-0.3,0.3-0.6,0.6-0.7
					C181.3,273.6,181.6,274,182,274.3"/>
				<path class="st1" d="M122.9,300.8c0.3,0.4,0.6,0.7,0.6,0.9c0,0.3-0.4,0.5-0.6,0.7c-0.2-0.2-0.5-0.4-0.6-0.6
					C122.3,301.5,122.6,301.3,122.9,300.8"/>
				<path class="st1" d="M157.3,329.9c0.3,0.4,0.6,0.6,0.6,0.8c-0.1,0.3-0.4,0.5-0.6,0.7c-0.2-0.2-0.5-0.4-0.5-0.6
					C156.8,330.6,157.1,330.4,157.3,329.9"/>
				<path class="st1" d="M157.4,293.2c0.3,0.4,0.6,0.7,0.6,0.9c0,0.2-0.3,0.6-0.5,0.5c-0.2,0-0.6-0.3-0.6-0.5
					C156.9,293.9,157.1,293.7,157.4,293.2"/>
				<path class="st1" d="M145.9,262.2c-0.3-0.4-0.7-0.6-0.6-0.8c0-0.2,0.4-0.5,0.6-0.5c0.2,0,0.6,0.3,0.6,0.5
					C146.5,261.5,146.2,261.8,145.9,262.2"/>
				<path class="st1" d="M160.7,268.1c-0.3-0.4-0.6-0.7-0.7-0.9c0-0.2,0.3-0.4,0.4-0.6c0.2,0.2,0.5,0.4,0.6,0.7
					C161.1,267.5,160.9,267.7,160.7,268.1"/>
				<path class="st1" d="M185.4,311c0.3,0.4,0.5,0.6,0.5,0.8c0,0.2-0.3,0.5-0.5,0.5c-0.2,0-0.5-0.3-0.5-0.5
					C184.8,311.6,185.1,311.4,185.4,311"/>
				<path class="st1" d="M170.6,280.6c-0.6-0.2-1-0.5-0.8-1.1c0-0.1,0.4-0.3,0.5-0.2C170.9,279.6,170.8,280.1,170.6,280.6"/>
				<path class="st1" d="M176.8,318c-0.3-0.4-0.5-0.6-0.6-0.9c0-0.1,0.3-0.3,0.5-0.5c0.2,0.2,0.4,0.4,0.5,0.7
					C177.3,317.5,177.1,317.7,176.8,318"/>
				<path class="st1" d="M180.5,262.7c-0.2-0.4-0.4-0.6-0.3-0.8c0.1-0.2,0.3-0.4,0.5-0.6c0.1,0.2,0.4,0.3,0.4,0.5
					C180.9,262,180.7,262.2,180.5,262.7"/>
				<path class="st1" d="M136.3,272.3c0.3,0.4,0.4,0.8,0,1.1c-0.1,0.1-0.5,0-0.5-0.2C135.5,272.8,135.8,272.5,136.3,272.3"/>
				<path class="st1" d="M198.9,293c-0.2,0.1-0.5,0.3-0.7,0.2c-0.2-0.1-0.4-0.4-0.4-0.6c0-0.1,0.2-0.4,0.4-0.4
					c0.2,0,0.5,0.1,0.7,0.2C198.9,292.6,198.9,292.8,198.9,293"/>
				<path class="st1" d="M171,307.2c-0.4,0.2-0.6,0.4-0.7,0.4c-0.2,0-0.3-0.3-0.4-0.5c0.2-0.1,0.3-0.4,0.5-0.4
					C170.5,306.8,170.7,307,171,307.2"/>
			</g>
		</g>
	</g>
</g>
<g id="P2">
	<g>
		<g>
			<defs>
				<rect id="SVGID_5_" x="364.1" y="164.5" width="181.8" height="235.3"/>
			</defs>
			<clipPath id="SVGID_6_">
				<use xlink:href="#SVGID_5_"  style="overflow:visible;"/>
			</clipPath>
			<g class="st4">
				<defs>
					<rect id="SVGID_7_" x="364.1" y="164.5" width="181.8" height="235.3"/>
				</defs>
				<clipPath id="SVGID_8_">
					<use xlink:href="#SVGID_7_"  style="overflow:visible;"/>
				</clipPath>
				<path class="st5" d="M385.7,389.7c-0.7-0.1-1.3-0.2-2-0.3c-2.1-0.5-3.5-1.8-4.6-3.6c-1.3-2.4-2-4.9-2.3-7.6
					c-0.6-4.8,0.2-9.4,1.7-14c1.6-5.1,3.4-10.2,6-14.9c1.1-2,2.5-3.9,3.8-5.9c0.1-0.1,0.2-0.2,0.2-0.3c-0.3-1.4,0-2.8,0.2-4.1
					c0.1-0.6,0.4-1.2,0.7-1.6c0.9-1.1,2-1.9,3.4-2.4c0.2-1,0.4-2,0.6-3c0.6-3.3,1.1-6.5,1.7-9.8c0.5-3.1,1-6.1,1.6-9.2
					c0.1-0.5,0-0.8-0.4-1.2c-1.7-1.3-1.8-3.5-0.3-4.9c0.5-0.5,1.1-0.6,1.8-0.6c0.2-1.1,0.3-2.1,0.5-3.2c0.5-3,0.9-5.9,1.4-8.9
					c0.4-2.7,0.8-5.5,1.2-8.2c0.5-3,0.9-5.9,1.4-8.9c0.4-2.7,0.8-5.5,1.2-8.2c0.5-3,0.9-5.9,1.4-8.9c0.4-2.7,0.8-5.5,1.2-8.2
					c0.5-3,0.9-5.9,1.4-8.9c0.5-2.9,0.9-5.9,1.3-8.8c0.1-0.8,0.2-1.5,0.4-2.3c0.1-0.4,0-0.7-0.4-0.9c-0.8-0.4-1.5-1-2.1-1.8
					c-0.9-1.3-1-3.4,0.6-4.7c-0.8-0.2-1.6-0.4-2.3-0.6c-0.8-0.2-1.2-0.7-1.2-1.3c0.1-0.8,0.6-1.3,1-1.9c0.5-0.7,1.3-0.6,2-0.4
					c1.6,0.5,3.3,0.9,5,1.4c0.1-0.7,0.3-1.5,0.4-2.3c0.5-3.3,1.1-6.7,1.6-10c0.6-3.5,1.1-7,1.6-10.5c0.4-2.7,0.8-5.3,1.3-8
					c0.1-0.4,0-0.6-0.4-0.7c-1.2-0.3-2.4-0.6-3.6-0.9c-0.3-0.1-0.4,0-0.6,0.2c-0.4,0.5-0.9,1-1.3,1.5c-0.1,0.1-0.3,0.1-0.5,0.1
					c-3.7-0.9-7.4-1.8-11.1-2.6c-5.8-1.4-11.7-2.8-17.5-4.2c-0.5-0.1-0.9-0.3-0.9-0.9c0,0,0-0.1-0.1-0.1c-1-1.6-1-3.3-0.4-5
					c0.3-1,0.8-1.9,1.3-2.7c0.6-1,1.2-1.1,2.3-0.9c4.7,1.1,9.4,2.1,14.1,3.2c4.6,1.1,9.2,2.1,13.9,3.1c0.5,0.1,0.8,0.3,1.1,0.8
					c0.1,0.2,0.3,0.3,0.5,0.4c5.3,1.3,10.7,2.5,16.1,3.7c0.2,0,0.4,0,0.6-0.1c0.5-0.4,1.1-0.4,1.7-0.3c9.1,2.1,18.2,4.1,27.4,6.2
					c0.4,0.1,0.7,0.2,1.1,0.3c0.5,0.1,0.9,0.2,1.4,0c0.9-0.3,2,0.3,2.3,1.3c0.2,0.5,0.3,1,0.3,1.5c0.1,2.8-0.7,5.4-2.4,7.6
					c-0.3,0.3-0.7,0.6-1,0.8c-0.5,0.3-1,0.2-1.4-0.2c-0.2-0.1-0.4-0.2-0.6-0.3c-9.2-2.2-18.4-4.4-27.6-6.6c-0.6-0.1-1.4-0.1-1.8-0.5
					c-0.6-0.6-0.8-1.4-1.2-2.1c-0.1-0.3-0.3-0.5-0.6-0.5c-1.4-0.3-2.9-0.7-4.4-1.1c-1.7,10.7-3.3,21.3-5,31.9
					c1.5,0.4,2.9,0.7,4.3,1.1c1,0.3,2,0.7,3,1.1c0.7,0.3,0.8,0.7,0.7,1.4c-0.3,1.1-1.6,2.2-2.6,2.1c-0.4,0-0.7-0.2-1-0.3
					c-0.4-0.2-0.8-0.4-1.2-0.6c0,0.2,0,0.4-0.1,0.6c-0.3,1.7-1.4,2.4-2.9,2.8c-0.6,0.1-0.7,0.4-0.8,0.9c-0.4,3.1-0.9,6.1-1.4,9.2
					c-0.5,3.1-0.9,6.1-1.3,9.2c-0.5,3.1-0.9,6.1-1.4,9.2c-0.5,3.3-1,6.5-1.4,9.8c-0.5,3.1-0.9,6.1-1.4,9.2c-0.4,2.8-0.8,5.7-1.2,8.5
					c-0.4,2.8-0.8,5.7-1.3,8.5c-0.4,2.8-0.8,5.7-1.2,8.5c-0.1,0.9-0.3,1.7-0.4,2.6c1.3,0.6,1.6,1.1,1.3,2.6c-0.2,1-0.7,1.9-1.5,2.5
					c-0.1,0.1-0.3,0.3-0.3,0.5c-0.2,1.6-0.5,3.1-0.7,4.7c0,0.2,0.1,0.5,0.2,0.7c7,8.2,14,16.5,21,24.7c0.1,0.1,0.1,0.1,0.1,0.1
					c0-0.6-0.1-1.2,0-1.8c0.3-1.8,2.3-3.4,4.1-3.3c0.9,0.1,1.4,0.9,1.3,1.9c-0.1,0.6-0.3,1.2-0.4,1.8c-0.2,0.9-0.4,1.8-0.6,2.7
					c0,0.1,0,0.2,0,0.3c0.6-0.1,1.2-0.2,1.7-0.2c1.8-0.1,3.5,0,5.2,0.6c0.7,0.3,1.4,0.8,2.1,1.3c0.3,0.2,0.5,0.3,0.9,0.2
					c4.8-1.6,9.6-3.1,14.4-4.7c13.4-4.3,26.7-8.6,40.1-12.8c0.7-0.2,0.8-0.6,0.9-1.2c0.7-3.8,1.7-7.5,3.2-11.1
					c1.6-3.6,3.7-6.9,6.7-9.5c2.2-1.9,4.7-3.2,7.2-4.4c2-0.9,4.1-1.7,6.4-1.9c0.6-0.1,1.3-0.1,1.9,0c0.7,0,1.2,0.5,1.2,1.2
					c0,0.3,0,0.6,0,0.9c0.4,0,0.9,0,1.4,0c1.7,0.1,3,0.9,4.2,2.1c1.8,1.7,3,3.9,3.7,6.3c1,3.2,1.4,6.5,1,9.9
					c-0.5,4.5-2.1,8.7-4.7,12.5c-2.4,3.6-5.4,6.5-9.4,8.3c-2.9,1.3-5.7,1.4-8.5-0.3c-0.4-0.2-0.7-0.5-1.1-0.8
					c-0.1,0-0.1,0.1-0.2,0.2c-0.6,0.9-1.5,1.3-2.5,1.7c-18.9,6.2-37.7,12.5-56.6,18.8c-0.4,0.1-0.5,0.3-0.4,0.7
					c0.3,3.9,2.2,7.2,3.8,10.6c0.3,0.5,0.5,1.1,0.8,1.6c0.3,0.6,0.3,1.3-0.2,1.8c-0.5,0.5-1.1,0.6-1.8,0.4c-1.1-0.3-2.1-0.9-2.7-1.9
					c-0.7-1.2-1.4-2.5-1.9-3.9c-1-2.5-2-5-3-7.5c-0.6,0.2-1.2,0.4-1.8,0.6c-2.9,1-5.8,1.9-8.7,2.9c-0.1,0-0.3,0.1-0.4,0.2
					c-0.5,0.3-1.1,0.3-1.6,0.1c-1.9-0.7-3.5-1.7-5-3.1c-0.4-0.4-0.8-0.9-1.3-1.3c-0.9-0.7-1.1-1.6-0.9-2.7c0.1-0.7,0.1-1.4,0.1-2.2
					c0-0.3-0.1-0.7-0.3-0.9c-0.4-0.7-1-1.4-1.4-2.1c-0.1-0.2-0.3-0.4-0.3-0.6c0-0.5-0.3-0.7-0.5-1c-6.3-6.9-12.5-13.8-18.8-20.7
					c-0.1-0.1-0.2-0.2-0.3-0.3c-0.2,1.1-0.5,2.2-0.7,3.3c0.6,0.4,1.2,0.8,1.7,1.3c1,0.9,1.1,2.2,0.9,3.4c-0.1,0.9-0.4,1.7-0.6,2.5
					c0,0.2-0.1,0.4,0,0.6c1.1,2.8,1.3,5.7,1.2,8.6c-0.1,6.3-1.4,12.3-3.6,18.1c-1.1,2.9-2.3,5.7-3.6,8.5c-1.6,3.4-4,6.2-6.8,8.6
					c-1.5,1.3-3.3,2-5.3,2.1c-0.1,0-0.2,0-0.3,0.1H385.7z M394.9,382.4c-0.9,0.5-1.7,1-2.5,1.4c-0.7,0.4-1.6,0.5-2.4,0.3
					c-1.6-0.4-2.4-1.6-2.8-3.1c-0.5-1.8-0.4-3.7-0.2-5.5c0.3-3.2,0.9-6.5,1.7-9.6c1-4.1,2.5-8,4.8-11.6c0.9-1.4,1.8-2.7,3.2-3.7
					c0.5-0.4,0.8-0.7,0.9-1.4c0.1-1.8,0.3-3.6,0.1-5.4c-0.1-0.9-0.4-1.4-1.3-1.7c-0.8-0.2-1.5-0.4-2.3-0.6c-0.2,0-0.4-0.1-0.6,0
					c-1.6,0.7-3.1,1.4-4.1,2.9c-1.2,1.7-2.4,3.4-3.4,5.3c-2.7,4.8-4.5,9.9-6.1,15.1c-1.4,4.4-2.1,8.9-1.5,13.6
					c0.3,2.4,1,4.7,2.2,6.9c0.8,1.4,2.1,2.4,3.7,2.8c1.9,0.5,3.7,0.2,5.4-0.7C391.8,386.2,393.3,384.3,394.9,382.4 M510.5,340
					c1.3,1.1,2.7,1.6,4.3,1.7c1.5,0.1,2.9-0.4,4.2-1c3.8-1.9,6.7-4.7,8.8-8.3c3.5-5.9,5.1-12.1,3.4-18.9c-0.6-2.5-1.7-4.9-3.5-6.8
					c-1.2-1.3-2.6-2.1-4.5-1.8c-0.6,0.1-1.3,0-1.7,0.6c-0.8,1.1-1.9,1.9-2.9,2.7c-5.6,4.2-10.1,9.2-12.2,16
					c-0.6,1.9-1.5,3.8-1.1,5.9c0.1,0.6,0.1,1.2,0.2,1.7c0.2,1,0.4,1.9,0.7,3c0.9-0.7,1.6-1.3,2.4-1.8c0.4-0.3,0.4-0.6,0.4-1
					c-0.3-1.9-0.3-3.9,0.1-5.8c1.1-5,3.5-9.2,7.4-12.6c1.7-1.5,3.6-2.6,6-2.7c2.9-0.1,5.5,1.4,6.6,4.1c1,2.4,1.1,4.9,0.7,7.5
					c-0.5,2.6-1.6,5-2.8,7.4c-1.5,2.8-3.6,4.9-6.4,6.3c-2.3,1.2-4.7,1.7-7.2,1.4c-0.1,0-0.3,0-0.4,0.1
					C512,338.2,511.2,339.1,510.5,340 M459.5,193.3c-0.2-0.1-0.4-0.1-0.5-0.1c-2.4-0.6-4.8-1.1-7.3-1.7c-6.8-1.5-13.5-3.1-20.3-4.6
					c-0.5-0.1-0.8,0-1.1,0.4c-1.5,1.9-1.7,4.7-0.6,6.7c0.2,0.3,0.4,0.5,0.7,0.6c8.3,2,16.6,3.9,24.9,5.9c1,0.2,1.9,0.4,2.9,0.7
					C457.8,198.5,458.2,195.8,459.5,193.3 M514.1,335.8c0.1,0,0.1,0.1,0.2,0.1c0.1,0,0.1,0,0.2,0c3.8-0.1,6.8-1.8,9.3-4.5
					c1.5-1.7,2.4-3.7,3.2-5.8c1.1-2.8,1.7-5.7,1-8.7c-0.4-2-1.4-3.6-3.3-4.3c-2.2-0.8-4.2-0.4-6.1,1c-4.7,3.6-7.5,8.3-8.3,14.2
					c-0.2,1.1,0,2.3,0,3.4c0.4-0.2,0.7-0.5,1-0.8c2.8-2.8,5.5-5.6,8.3-8.3c0.7-0.7,1.5-1,2.6-0.8c2,0.4,2.6,1.8,1.6,3.5
					c-0.1,0.2-0.2,0.4-0.4,0.5c-1.9,2.1-3.7,4.3-5.6,6.4C516.5,333,515.3,334.4,514.1,335.8 M423.1,352c0.1-0.5,0.2-0.8,0.3-1.2
					c0-0.1,0-0.4-0.1-0.5c-2.5-2.5-5.1-4.9-7.6-7.4c-2.9-2.9-5.5-6-7.9-9.3c-0.7-1-1-2-0.8-3.2c0.4-2,0.7-4.1,1-6.1
					c0.1-0.4,0-0.7-0.3-1c-1.2-1.4-2.5-2.8-3.6-4.3c-0.2-0.3-0.4-0.7-0.4-1c0-0.8,0.1-1.7,0.2-2.5c0.1-0.7,0.2-1.4,0.4-2.2
					c-2.1,0.3-4.1,0.1-6-0.5c0,0.2-0.1,0.3-0.1,0.5c-0.4,2.3-0.8,4.5-1.1,6.8c-0.6,3.7-1.2,7.4-1.9,11.1c-0.2,1.2-0.5,2.3-0.7,3.5
					c0,0.1,0.1,0.4,0.2,0.5c0.3,0.2,0.6,0.4,0.9,0.6c1.1,0.5,2.3,0.7,3.5,0.6c1.4,0,2.3-0.7,2.5-2.1c0.2-1.2,0.3-2.3,0.5-3.5
					c0.1-0.7,0.7-0.9,1.2-0.5c0.1,0.1,0.3,0.3,0.4,0.4c6.1,6.7,12.1,13.4,18.2,20.1C422.2,351.1,422.6,351.5,423.1,352 M397.4,352.1
					c-0.1,0-0.2-0.1-0.2-0.1c-0.4,0.4-0.8,0.8-1.1,1.2c-2.4,3-3.9,6.3-5.1,9.9c-1,3.2-1.7,6.5-2.2,9.8c-0.3,2.1-0.6,4.1-0.4,6.2
					c0.1,0.9,0.2,1.9,0.8,2.6c0.4,0.5,0.9,0.8,1.6,0.8c0.9-0.1,1.7-0.5,2.5-1c1.3-1,2.5-2,3.8-3c0.3-0.2,0.6-0.6,0.7-0.9
					c2.9-6.2,5.2-12.6,6.3-19.5c0.3-1.9,0.1-3.6-0.9-5.3c-0.1-0.2-0.3-0.4-0.5-0.7c-0.1,0.9-0.3,1.7-0.4,2.5c-0.5,3-1.1,6-1.7,9
					c-0.4,2.2-1.1,4.2-2.6,6c-0.4,0.5-0.9,0.9-1.4,1.1c-1.3,0.6-2.5-0.3-2.3-1.8c0.4-2.4,0.9-4.8,1.3-7.1
					C396.2,358.7,396.8,355.4,397.4,352.1 M521.4,302.5c-1,0.1-1.9,0.2-2.7,0.4c-3.6,0.8-6.8,2.5-9.8,4.4c-1.5,0.9-2.7,2.1-3.8,3.4
					c-2.2,2.6-3.8,5.5-4.9,8.6c-1.7,4.7-2.6,9.6-3.3,14.5c-0.1,0.6,0.2,1,0.7,1.3c0.5,0.3,1,0.5,1.4,0.8c0.9,0.6,1.8,0.9,2.8,0.7
					c0.3-0.1,0.5-0.1,0.6-0.5c0-0.5,0.1-1,0.1-1.5c0.2-1.6,0.3-3.3,0.6-4.9c0.4-1.7,1-3.4,1.5-5.1c1-3.4,2.5-6.7,4.7-9.5
					c2.6-3.2,5.3-6.2,8.8-8.5c0.6-0.4,1.1-0.8,1.6-1.3C520.3,304.4,521,303.6,521.4,302.5 M409.5,187.3c0.8,0.2,1.6,0.4,2.4,0.6
					c1.6,0.3,3.3,0.7,4.9,1c0.6,0.1,1,0.4,1,0.9c0,0.8,0.1,1.7,0,2.5c-0.2,1.8-0.5,3.5-0.8,5.3c-0.5,3.1-1,6.2-1.5,9.3
					c-0.5,2.9-0.9,5.7-1.4,8.6c-0.4,2.7-0.8,5.3-1.3,8c-0.1,0.5,0.1,0.8,0.5,1.1c1,0.6,2,0.6,3,0.1c0.2-0.1,0.4-0.4,0.4-0.7
					c0.4-2.4,0.8-4.9,1.1-7.3c0.5-3.2,1-6.3,1.5-9.5c0.5-2.9,0.9-5.8,1.4-8.7c0.3-2.2,0.6-4.4,1-6.6c0.1-0.4,0.2-0.9,0.4-1.3
					c0.1-0.3,0.5-0.5,0.8-0.3c0.5,0.4,1,0.5,1.6,0.6c1.1,0.3,2.2,0.5,3.2,0.8c0.4-1.5,0.7-3,1-4.5c-0.1,0-0.3-0.1-0.4-0.1
					c-2.4-0.6-4.8-1.1-7.2-1.7c-3.4-0.8-6.9-1.6-10.3-2.4c-0.1,0-0.4,0-0.5,0.1C409.6,184.4,409.3,185.8,409.5,187.3 M402.7,302.1
					c1-0.2,1.9-0.3,2.7-0.5c0.3,0,0.4-0.2,0.5-0.5c0.3-2.3,0.7-4.7,1-7c0.5-3.1,0.9-6.1,1.4-9.2c0.5-3.1,0.9-6.1,1.3-9.2
					c0.5-3.3,1-6.5,1.5-9.8c0.5-3.5,1-7,1.5-10.5c0.6-3.7,1.1-7.5,1.7-11.2c0.5-3.4,1-6.7,1.5-10.1c0.1-0.6,0.2-1.2,0.3-1.9h-2.9
					C409.7,255.4,406.2,278.7,402.7,302.1 M409.5,182c-0.2-0.1-0.3-0.1-0.4-0.1c-5.1-1.2-10.2-2.3-15.3-3.5
					c-3.6-0.8-7.1-1.6-10.7-2.4c-0.2,0-0.5,0.1-0.6,0.2c-0.9,1.4-1.6,3-1.5,4.7c0.1,1.4,0.7,2.1,2.1,2.5c7.2,1.7,14.5,3.5,21.7,5.2
					c1.3,0.3,2.6,0.6,3.9,0.9c-0.6-1.3-0.7-2.6-0.5-3.9C408.3,184.3,408.7,183.1,409.5,182 M427.1,346.2
					c-6.1-7.1-12.1-14.2-18.2-21.4c0,0.1-0.1,0.2-0.1,0.2c-0.2,1.8-0.4,3.7-0.7,5.5c-0.2,1,0,1.8,0.6,2.6c1.5,1.8,2.8,3.8,4.4,5.5
					c3.4,3.6,6.9,7,10.4,10.5c0.1,0.1,0.2,0.2,0.4,0.3C424.7,348,425.8,347,427.1,346.2 M446.1,346.6c0.2,0.1,0.3,0.1,0.4,0.2
					c1.7,0.6,3.4,0.8,5.2,0.9c2.5,0.1,5.1-0.1,7.6-0.5c3.7-0.6,7.3-0.8,11.1-0.8c3.2,0.1,6,0.9,8.2,3.4c0.6,0.7,1.2,0.9,2,0.4
					c0,0,0,0,0.1-0.1c-0.2-0.2-0.3-0.5-0.5-0.7c-1.3-1.7-3-3-5-3.7c-0.3-0.1-0.6-0.2-0.5-0.6c0.1-0.4,0.4-0.5,0.7-0.5
					c0.6,0,1.2,0,1.8,0c1.7,0,3.5,0.1,5.2-0.3c1.4-0.3,2.8-0.7,4.1-1c0.9-0.2,1.1,0,0.9,0.9c-0.3,1.3-0.5,2.6-0.7,4
					c0.4-0.1,0.6-0.2,0.9-0.3c0.5-0.1,0.9-0.4,1.1-0.9c0.3-0.6,0.7-1.2,1.1-1.8c0.8-1.4,2-2.3,3.5-2.9c1.3-0.5,2.7-1,4-1.5
					c1.3-0.5,2.6-1.1,3.8-1.7c0.5-0.2,0.9-0.7,1.4-1.1c-0.7,0-1.3,0.1-1.9,0c-0.8-0.2-1.6-0.6-2.3-1c-0.4-0.2-0.7-0.3-1,0.1
					c-1.8,2.2-4.1,3.5-6.8,4.2c-2.6,0.7-5.3,0.8-8,0.9c-2.2,0.1-4.5,0.3-6.7,0.5c-4.5,0.6-8.9,1.4-13.3,2.4
					c-3.2,0.8-6.4,0.6-9.4-0.6c-0.1-0.1-0.3-0.1-0.4,0C450.3,345.2,448.3,345.9,446.1,346.6 M390,340.1c0.7-0.1,1.4-0.3,2-0.3
					c1.8,0,3.6,0.5,5.3,1.2c1,0.4,1.5,1.2,1.7,2.2c0.1,0.4,0.1,0.8,0.1,1.1c0,1.7-0.1,3.4-0.2,5.1c-0.2,2.3-0.5,4.7-0.8,7
					c-0.6,3.7-1.3,7.3-2,11c-0.1,0.7-0.2,1.4-0.4,2.2c0.6-0.1,0.9-0.5,1.2-0.8c0.8-1,1.4-2.2,1.7-3.5c0.6-2.7,1.1-5.4,1.6-8
					c0.7-3.8,1.3-7.7,2.3-11.5c0.4-1.7,0.9-3.5,1.3-5.3c0.3-1.6-0.2-2.7-1.9-3.2c-0.4-0.1-0.7-0.1-1,0.1c-0.5,0.2-1.1,0.4-1.7,0.4
					c-2.2,0.1-4.3-0.2-6.1-1.8c-0.7,0.5-1.4,1-2,1.5C390.3,338.2,390,339.1,390,340.1 M440.2,351.1c0-0.1,0-0.2,0-0.2
					c-0.2-2.9-1.7-4.3-4.2-4.5c-1.6-0.2-3.2,0-4.8,0.1c-1.5,0.1-2.9,0.7-4.1,1.6c-1.1,0.9-2.1,1.8-2.4,3.3c-0.1,0.8,0,1.6-0.1,2.3
					c-0.1,0.9,0.2,1.6,0.8,2.2c0.8,0.9,1.2,2,1.1,3.2c-0.1,0.7-0.1,1.3-0.1,2c0,0.2,0.1,0.5,0.2,0.6c0.6,0.6,1.2,1.2,1.8,1.8
					c0.5,0.5,1.1,0.9,1.7,1.4c0-0.1,0-0.2,0-0.2c0-0.1,0-0.2-0.1-0.3c-0.4-2-0.4-4,0.1-6C431.4,353.3,435.7,350.8,440.2,351.1
					 M437.1,361.7c1.4,0.2,2.7,0.5,3.9,1.2c0.3,0.2,0.5,0.2,0.8,0.1c3.8-1.3,7.5-2.5,11.3-3.7c0.3-0.1,0.4-0.2,0.5-0.6
					c0.1-1.7-0.1-3.4-0.9-5c-0.2-0.4-0.1-0.8,0.4-1c0.3-0.1,0.7-0.2,1.1-0.2c2.7-0.3,5.3-0.7,8-0.9c3.3-0.2,6.5-0.1,9.7,0.9
					c1.1,0.3,1.9-0.1,2.8-0.4c-0.4-1.1-1.2-1.8-2.3-2c-1.1-0.3-2.2-0.4-3.3-0.5c-3-0.2-5.9,0.2-8.8,0.6c-3.2,0.4-6.5,0.9-9.7,1.3
					c-2,0.2-4.1,0.2-6.1-0.2c-0.9-0.2-1.8-0.5-2.6-0.8v1.3c0.2,0,0.3,0,0.4,0c1.9-0.1,3.7,0.3,5.4,1c1.1,0.5,2.2,1.1,3.1,1.8
					c1.1,0.8,1.2,1.8,0.5,3c-0.6,1-1.5,1.6-2.6,2c-2.5,1-5.2,1.3-7.8,1.1c-0.2,0-0.5-0.1-0.7,0C439,361,438.1,361.3,437.1,361.7
					 M454,344.1c2.3,0.8,4.7,1,7.1,0.5c3-0.6,5.9-1.3,8.9-1.8c2.7-0.5,5.4-0.9,8.1-1.1c2.5-0.3,5.1-0.3,7.7-0.4
					c2.4-0.2,4.6-0.6,6.8-1.6c1.6-0.7,2.8-1.8,3.8-2.9c-0.3-0.4-0.6-0.7-0.8-0.9c-0.7,0.5-1.4,1.2-2.2,1.7c-2.8,1.7-5.8,2.1-9,2
					c-2.9-0.1-5.9-0.1-8.8-0.1c-1.6,0-3.2,0.3-4.7,0.9c-1.1,0.4-2.1,0.9-3.2,1.2c-2.1,0.7-4.3,1-6.5,0.3c-0.1,0-0.3,0-0.4,0.1
					c-1.3,0.4-2.6,0.8-4,1.3C455.8,343.5,454.9,343.8,454,344.1 M478.4,350.8c-1.8-2.1-3.9-3.3-6.6-3.5c-3.9-0.3-7.7-0.1-11.6,0.5
					c-3.1,0.5-6.3,0.9-9.5,0.6c-1.9-0.2-3.7-0.5-5.4-1.3c-0.1-0.1-0.3-0.1-0.5-0.1c-1.2,0.4-2.4,0.8-3.6,1.1
					c0.1,0.8,0.5,1.2,1.2,1.4c0.4,0.1,0.8,0.3,1.2,0.4c2.7,0.8,5.4,0.7,8.2,0.4c3.8-0.5,7.6-1.1,11.4-1.5c2.7-0.3,5.4-0.5,8.1,0
					c1.9,0.3,3.5,1,4.2,3C476.3,351.5,477.3,351.2,478.4,350.8 M431.8,365.7c0,0,0.1-0.1,0.1-0.1c-0.1-0.8-0.1-1.5-0.2-2.3
					c-0.1-0.9,0.3-1.5,1.1-1.8c0.8-0.3,1.6-0.6,2.4-0.9c1.3-0.4,2.6-0.8,4-1.2c0.4-0.1,0.5-0.4,0.5-0.7c0.1-1.2,0.3-2.4,0.4-3.6
					c0.1-0.9,0-1.8,0-2.8c-0.5,0-1.1,0-1.6,0.1c-3.6,0.4-6.2,2.6-7.1,6.1c-0.6,2.2-0.4,4.5-0.1,6.7
					C431.4,365.4,431.7,365.5,431.8,365.7 M485.2,334.1C485.1,334.1,485.1,334.1,485.2,334.1c-7.5,2.3-15,4.7-22.5,7.1
					c2.2,0.3,4.3-0.3,6.2-1.1c2.7-1.3,5.6-1.7,8.6-1.7c2.4,0,4.9,0.1,7.3,0.1c1.7,0,3.4-0.1,5-0.5c1.9-0.6,3.7-1.4,5-3
					c0.2-0.2,0.3-0.5,0.3-0.7c0.2-0.7,0.3-1.4,0.4-2.2c0.1-0.5,0.2-1,0.3-1.5c-0.5,0.2-0.9,0.2-1.2,0.4c-0.2,0.1-0.5,0.3-0.7,0.5
					c-0.5,0.6-1,1.4-1.6,1.9c-2.1,2-4.6,3.3-7.4,4.1c-0.5,0.1-1,0.2-1.4,0.1c-0.6,0-0.8-0.5-0.5-1c0.2-0.3,0.5-0.6,0.7-0.9
					C484.2,335.3,484.7,334.7,485.2,334.1 M489.3,347.2c3-1,6-2,8.9-3c0.6-0.2,1.4-0.3,1.9-0.7c1.5-1,3-2.1,4.5-3.2
					c1.5-1.1,2.2-2.7,2.5-4.5c-1.1,0.5-2.2,1.1-3.4,1.6c-0.1,0.1-0.2,0.2-0.3,0.3c-0.9,1.2-2,2.1-3.4,2.7c-1.9,0.8-3.8,1.6-5.8,2.2
					C491.9,343.4,490.4,345,489.3,347.2 M471.2,353.2c-5.9-1.5-11.8-0.6-17.8,0.2c0.9,1.8,1,3.6,0.8,5.5c1-0.3,1.9-0.6,2.8-0.9
					c0.1,0,0.3-0.3,0.2-0.4c-0.2-0.6-0.4-1.2-0.6-1.7c-0.2-0.5-0.1-0.9,0.5-0.9c2,0,4-0.2,6,0c2.5,0.2,2.5,0.3,4.9-0.5
					C469,354,470.1,353.6,471.2,353.2 M399.7,301.8c-0.3,1.8-0.5,3.6-0.8,5.4c-0.1,0.4,0.1,0.7,0.5,0.8c0.8,0.5,1.7,0.7,2.6,0.7
					c0.8,0.1,1.7,0.2,2.4-0.3c0.2-0.1,0.4-0.4,0.5-0.6c0.2-1.3,0.4-2.7,0.6-4.1c0.1-0.5,0.1-1,0.2-1.5
					C402.8,303,401.8,302.9,399.7,301.8 M511.3,336.5c0,0,0.1,0,0.1,0c0.1-0.1,0.2-0.2,0.3-0.3c3.3-3.8,6.6-7.7,10-11.5
					c0.1-0.2,0.3-0.3,0.5-0.4c0.4-0.2,0.5-0.6,0.4-0.9c0-0.2-0.4-0.4-0.6-0.5c-0.6-0.3-1.1-0.1-1.5,0.4c-2.4,2.4-4.7,4.8-7.2,7.2
					c-0.8,0.8-1.2,1.7-1.5,2.7c-0.2,0.6-0.3,1.1-0.4,1.7C511.3,335.3,511.3,335.9,511.3,336.5 M441.8,352.6v2.3c0.6,0,1.1,0,1.7,0
					c1,0.1,2.1,0.2,3,0.8c0.9,0.5,1,1.4,0.2,2.1c-0.7,0.6-1.5,0.9-2.4,0.9c-1,0.1-1.9,0-2.9,0c-0.1,0.3-0.2,0.7-0.3,1.2
					c2.7,0,5.3-0.3,7.8-1.5c0.5-0.2,1-0.6,1.3-1.1c0.8-0.9,0.8-1.6-0.2-2.4C447.5,353.3,444.8,352.5,441.8,352.6 M404.9,222.6
					c0.6,0.2,1.2,0.3,1.7,0.5c1.1,0.3,2.1,0.6,3.2,1c0.7,0.2,0.8,0.6,0.8,1.2c-0.1,1.1,0,1.4,1,1.9c0.3,0.1,0.6,0.3,0.9,0.3
					c1.1,0.1,2.1,0.2,3.2,0.2c0.7,0,1.4-0.2,1.9-0.7c0.3-0.3,0.8-0.6,1.2-0.4c1.2,0.4,2.4,0.8,3.7,1.2c0.3,0.1,0.6,0.3,0.9,0.4
					c0.2,0,0.4,0,0.5,0c0.3-0.3,0.6-0.6,0.9-0.9c0-0.1,0-0.1,0-0.2c-2.3-0.7-4.5-1.5-6.8-2.2c0,0.1,0,0.2,0,0.2
					c-0.3,0.2-0.6,0.3-0.9,0.5c-1,0.7-2.1,0.7-3.3,0.5c-1.3-0.2-2.6-1.2-2.6-2.3c0-1-0.5-1.2-1.3-1.3c-0.1,0-0.1,0-0.2-0.1
					c-1.2-0.3-2.4-0.7-3.7-1c-0.2,0-0.4,0-0.5,0.1C405.4,221.8,405.2,222.2,404.9,222.6 M409.2,225.1c-1.1,0-1.8,0.5-1.9,1.5
					c-0.1,0.8,0.1,1.5,0.6,2.1c0.6,0.8,1.5,1.3,2.4,1.6c2,0.6,4,0.7,6.1,0.6c0.8-0.1,1.7-0.4,2.4-0.6c0.6-0.2,0.9-0.7,1-1.3
					c0.1-0.3,0.1-0.6-0.2-0.8c-0.4-0.3-1-0.3-1.3,0c-0.5,0.5-1.1,0.8-1.9,0.9c-1,0-2,0.1-3,0.1c-1.1-0.1-2.2-0.4-3.1-1.1
					c-0.6-0.4-1-1-1-1.8C409.3,225.7,409.3,225.4,409.2,225.1 M445.9,363.2c0,0.1,0.1,0.2,0.1,0.2c0.9,2.1,1.8,4.2,2.8,6.2
					c0.6,1.4,1.2,2.8,1.9,4.1c0.4,0.7,1,1.3,1.7,1.5c0.2,0.1,0.4,0.1,0.7,0.1c-0.2-0.4-0.3-0.7-0.4-1c-0.6-1.3-1.3-2.6-1.9-3.9
					c-1-2.1-1.9-4.1-2.2-6.4c-0.1-0.6-0.2-1.1-0.2-1.8C447.5,362.7,446.7,363,445.9,363.2 M460.2,202c0.2-0.2,0.4-0.4,0.5-0.6
					c1.3-1.7,1.9-3.6,2-5.7c0-0.6,0-1.3-0.2-1.9c-0.2-0.7-0.6-0.8-1.2-0.4c-0.7,0.4-1.1,1.1-1.3,1.8c-0.6,1.6-0.7,3.2-0.6,4.8
					C459.5,200.7,459.5,201.4,460.2,202 M484.5,348.8c0.3-0.1,0.7-0.2,1-0.3c0.1-0.1,0.3-0.3,0.3-0.4c0.1-0.6,0.2-1.3,0.3-1.9
					c0.1-0.7,0.3-1.4,0.4-2.1c-3.1,0.9-6.2,1.7-9.5,1.4c1.9,1.1,3.4,2.5,4.4,4.4c0.4-0.1,0.7-0.2,1.1-0.4c-0.3-0.6-0.6-1.2-0.9-1.8
					c-0.3-0.5-0.2-0.9,0.3-1.2c0.4-0.2,0.9-0.4,1.3-0.5c0.8-0.2,1.1,0,1.1,0.8C484.4,347.5,484.4,348.1,484.5,348.8 M510.9,332.8
					c-0.9,0.8-1.8,1.5-2.7,2.2c-0.1,0.1-0.1,0.3-0.1,0.5c-0.3,2.4-1.3,4.5-3.3,5.9c-0.5,0.3-0.9,0.7-1.4,1c0.1,0,0.2,0,0.2,0
					c1.2-0.4,2.5-0.8,3.7-1.2c0.1-0.1,0.3-0.2,0.4-0.3c0.9-1.1,1.9-2.1,2.8-3.2c0.1-0.2,0.2-0.4,0.2-0.7c0-0.8,0-1.6,0-2.4
					C510.6,334.1,510.8,333.5,510.9,332.8 M397.5,307.4c-1.1,0.5-1.5,1.9-0.7,2.7c0.4,0.4,1,0.8,1.5,1.1c1.6,0.7,3.4,0.9,5.2,0.7
					c0.7-0.1,1.3-0.4,1.9-0.8c0.7-0.5,1.1-1.7,0.9-2.1c-0.4,0.3-0.8,0.8-1.3,1c-2.3,0.9-4.6,0.5-6.6-0.9
					C397.8,308.7,397.5,308.1,397.5,307.4 M405.5,277.7c0.1-0.2,0.1-0.2,0.1-0.3c0.3-1.9,0.5-3.8,0.9-5.6c0.2-0.8,0-1.5-0.4-2.2
					c-0.4-0.6-0.7-1.2-1.1-1.8c-0.1,0.2-0.1,0.3-0.1,0.4c-0.3,1.8-0.6,3.7-0.8,5.5c-0.1,0.4-0.2,0.9-0.1,1.2
					C404.4,275.8,404.9,276.7,405.5,277.7 M407.2,253.6c-0.1,0.2-0.1,0.2-0.1,0.3c-0.3,1.8-0.5,3.5-0.8,5.3c-0.1,0.5-0.3,1-0.1,1.4
					c0.4,0.9,1,1.7,1.6,2.6c0.1-0.2,0.1-0.3,0.1-0.5c0.3-1.9,0.6-3.8,0.8-5.7c0-0.3,0.1-0.7,0-1
					C408.2,255.2,407.7,254.4,407.2,253.6 M492.8,331.7c-0.1,0-0.2-0.1-0.2,0c-2,0.6-4.1,1.3-6.1,2c-0.1,0-0.3,0.2-0.4,0.3
					c-0.6,0.9-1.3,1.8-1.9,2.7c-0.1,0.1-0.1,0.2-0.2,0.3c0,0,0.1,0.1,0.1,0.1C487.5,336,490.5,334.4,492.8,331.7 M403.8,275.8
					c-0.1,0.2-0.1,0.2-0.1,0.3c-0.2,1.3-0.3,2.7-0.6,4c-0.3,1.3-0.1,2.4,0.7,3.4c0.3,0.4,0.5,0.8,0.8,1.3c0.3-2,0.6-3.8,0.8-5.6
					c0-0.2,0.1-0.5,0-0.6C404.8,277.7,404.3,276.8,403.8,275.8 M402.6,282.8c-0.3,1.6-0.5,3.1-0.7,4.7c0,0.3-0.2,0.7-0.1,1
					c0.5,1,1,2,1.6,3.1c0.3-1.8,0.5-3.4,0.7-5c0-0.4,0.2-0.8,0-1.1C403.8,284.6,403.2,283.8,402.6,282.8 M410.2,233.9
					c-0.1,0.1-0.1,0.1-0.1,0.2c-0.3,1.8-0.6,3.7-0.8,5.5c0,0.1,0,0.3,0,0.4c0.5,0.8,1,1.6,1.6,2.5c0.3-2,0.6-3.9,0.8-5.8
					c0-0.1,0-0.3-0.1-0.4C411.2,235.5,410.7,234.7,410.2,233.9 M408.9,255.3c0.3-1.9,0.6-3.6,0.8-5.4c0-0.2,0-0.4,0-0.5
					c-0.5-0.8-1-1.6-1.5-2.5c0,0.1-0.1,0.1-0.1,0.1c-0.3,1.8-0.6,3.6-0.9,5.4c0,0.1,0,0.2,0.1,0.2
					C407.8,253.6,408.3,254.4,408.9,255.3 M405.9,261.5c-0.1,0.1-0.1,0.2-0.1,0.2c-0.2,1.1-0.3,2.2-0.5,3.3
					c-0.3,1.2-0.1,2.3,0.7,3.3c0.3,0.4,0.5,0.8,0.7,1.2c0.4-1.8,0.6-3.6,0.9-5.3c0-0.1,0-0.2-0.1-0.3
					C407,263.1,406.5,262.3,405.9,261.5 M402.6,297.3c0.1-0.2,0.1-0.3,0.1-0.4c0.2-1.2,0.4-2.4,0.5-3.6c0-0.3,0.2-0.6,0.1-0.9
					c-0.5-1-1-2.1-1.6-3.2c-0.3,1.7-0.5,3.2-0.7,4.8c0,0.1,0,0.3,0,0.4C401.5,295.4,402,296.3,402.6,297.3 M400.7,295.2
					c-0.3,2-0.6,3.8-0.8,5.6c0,0.1,0,0.3,0.1,0.3c0.6,0.3,1.3,0.5,2,0.8c0.2-1.3,0.4-2.4,0.5-3.5c0-0.1,0-0.2-0.1-0.3
					C401.8,297.2,401.3,296.2,400.7,295.2 M409.9,248.6c0.2-1.5,0.4-2.8,0.6-4.1c0.1-0.4,0.2-0.9,0.1-1.2c-0.4-0.8-1-1.6-1.5-2.4
					c0,0.2-0.1,0.3-0.1,0.4c-0.2,1.2-0.4,2.4-0.5,3.6c-0.1,0.4-0.2,0.9,0,1.2C408.8,246.9,409.4,247.7,409.9,248.6 M440.2,363.5
					c-1.4-0.8-3.3-1.2-4.7-1c-0.2,0-0.4,0.1-0.5,0.1c-0.6-0.3-1,0.1-1.5,0.3c-0.4,0.2-0.2,0.6-0.2,0.9c0,0.3,0.3,0.3,0.5,0.3
					c1,0.1,2,0.3,3,0.4c0.1,0,0.3,0.1,0.4,0C438.2,364.2,439.2,363.9,440.2,363.5 M430.5,339.5c-1.7,0-2.9,1.5-2.6,3
					c0.1,0.7,0.3,1.4,0.4,2.1c0.2,1,0.2,1,1.2,0.6C429.4,343.2,430.3,341.4,430.5,339.5 M441.4,358c0.9,0,1.8,0.1,2.6,0
					c0.6-0.1,1.3-0.4,1.9-0.6c0.2-0.1,0.5-0.4,0.4-0.5c0-0.2-0.3-0.4-0.5-0.5c-0.5-0.2-1.1-0.4-1.6-0.4c-0.8-0.1-1.7-0.2-2.6-0.3
					C441.6,356.4,441.5,357.2,441.4,358 M457.6,355.7c0.2,0.6,0.3,1.2,0.5,1.9c1.7-0.6,3.5-1.2,5.3-1.7c0,0,0-0.1,0-0.1H457.6z
					 M404.5,352.5c0-2,0-4-0.5-5.9c-0.4,1.3-0.7,2.6-1,3.9c0,0.1,0.1,0.4,0.2,0.5C403.6,351.4,404.1,351.9,404.5,352.5 M411.9,235.6
					c0.2-1.3,0.4-2.4,0.5-3.5c-0.7-0.1-1.3-0.2-2-0.4c0,0.5-0.2,1.1,0,1.5C410.7,234,411.3,234.7,411.9,235.6 M482.2,347.2
					c0.3,0.8,0.6,1.4,1,2.2c0.2-0.2,0.5-0.4,0.5-0.6c0-0.7-0.1-1.4-0.1-2.1C483.1,346.9,482.6,347,482.2,347.2 M433.5,365.8
					c0.7-0.2,1.4-0.5,2.1-0.7c0,0,0-0.1,0-0.1c-0.7-0.1-1.4-0.2-2.2-0.3C433.4,365,433.5,365.3,433.5,365.8 M410.9,189
					c-0.4-0.1-0.7-0.2-1-0.2c0,0,0,0.1-0.1,0.1c0.2,0.2,0.4,0.5,0.6,0.8C410.6,189.4,410.7,189.2,410.9,189"/>
				<path class="st6" d="M394.9,382.4c-1.6,2-3.1,3.8-5.2,5c-1.7,0.9-3.5,1.1-5.4,0.7c-1.6-0.4-2.8-1.3-3.7-2.8
					c-1.2-2.1-1.9-4.4-2.2-6.9c-0.6-4.6,0.1-9.1,1.5-13.6c1.6-5.2,3.4-10.4,6.1-15.1c1-1.8,2.3-3.5,3.4-5.3c1-1.5,2.6-2.2,4.1-2.9
					c0.2-0.1,0.4,0,0.6,0c0.8,0.2,1.5,0.4,2.3,0.6c0.9,0.2,1.2,0.8,1.3,1.7c0.2,1.8,0,3.6-0.1,5.4c-0.1,0.7-0.3,1-0.9,1.4
					c-1.4,0.9-2.3,2.3-3.2,3.7c-2.3,3.6-3.8,7.5-4.8,11.6c-0.8,3.2-1.4,6.4-1.7,9.6c-0.2,1.8-0.3,3.7,0.2,5.5
					c0.4,1.5,1.2,2.7,2.8,3.1c0.8,0.2,1.6,0.1,2.4-0.3C393.2,383.3,394,382.9,394.9,382.4"/>
				<path class="st6" d="M510.5,340c0.8-0.9,1.5-1.8,2.3-2.6c0.1-0.1,0.3-0.1,0.4-0.1c2.6,0.4,4.9-0.2,7.2-1.4
					c2.8-1.4,4.9-3.5,6.4-6.3c1.2-2.3,2.3-4.8,2.8-7.4c0.5-2.6,0.4-5.1-0.7-7.5c-1.1-2.6-3.7-4.2-6.6-4.1c-2.4,0.1-4.3,1.2-6,2.7
					c-3.9,3.4-6.3,7.6-7.4,12.6c-0.4,1.9-0.3,3.9-0.1,5.8c0.1,0.5,0,0.8-0.4,1c-0.8,0.6-1.5,1.2-2.4,1.8c-0.2-1.1-0.5-2-0.7-3
					c-0.1-0.6-0.1-1.2-0.2-1.7c-0.4-2.1,0.5-4,1.1-5.9c2.1-6.8,6.6-11.9,12.2-16c1.1-0.8,2.1-1.6,2.9-2.7c0.4-0.6,1.1-0.5,1.7-0.6
					c1.9-0.3,3.3,0.6,4.5,1.8c1.8,1.9,2.9,4.3,3.5,6.8c1.7,6.8,0.1,13-3.4,18.9c-2.1,3.6-5.1,6.4-8.8,8.3c-1.3,0.7-2.7,1.1-4.2,1
					C513.1,341.6,511.7,341.1,510.5,340"/>
				<path class="st6" d="M459.5,193.3c-1.4,2.5-1.7,5.1-1.2,8c-1-0.2-2-0.5-2.9-0.7c-8.3-2-16.6-4-24.9-5.9
					c-0.4-0.1-0.6-0.3-0.7-0.6c-1.1-2.1-0.9-4.9,0.6-6.7c0.3-0.4,0.6-0.5,1.1-0.4c6.7,1.5,13.5,3.1,20.3,4.6
					c2.4,0.6,4.8,1.1,7.3,1.7C459.2,193.2,459.3,193.3,459.5,193.3"/>
				<path class="st7" d="M514.1,335.8c1.2-1.4,2.4-2.8,3.5-4.1c1.9-2.1,3.7-4.3,5.6-6.4c0.1-0.2,0.3-0.3,0.4-0.5
					c1.1-1.7,0.4-3.1-1.6-3.5c-1-0.2-1.8,0.1-2.6,0.8c-2.8,2.8-5.5,5.6-8.3,8.3c-0.3,0.3-0.6,0.5-1,0.8c0-1.1-0.1-2.3,0-3.4
					c0.8-5.9,3.6-10.6,8.3-14.2c1.8-1.4,3.9-1.8,6.1-1c2,0.7,2.9,2.4,3.3,4.3c0.7,3,0.1,5.9-1,8.7c-0.8,2.1-1.7,4.1-3.2,5.8
					c-2.5,2.8-5.5,4.4-9.3,4.5c-0.1,0-0.1,0-0.2,0C514.2,335.9,514.2,335.8,514.1,335.8"/>
				<path class="st8" d="M423.1,352c-0.4-0.5-0.8-0.9-1.2-1.4c-6.1-6.7-12.1-13.4-18.2-20.1c-0.1-0.1-0.2-0.3-0.4-0.4
					c-0.5-0.4-1.1-0.1-1.2,0.5c-0.2,1.2-0.3,2.3-0.5,3.5c-0.3,1.4-1.1,2.1-2.5,2.1c-1.2,0-2.4-0.1-3.5-0.6c-0.3-0.1-0.6-0.4-0.9-0.6
					c-0.1-0.1-0.2-0.3-0.2-0.5c0.2-1.2,0.5-2.3,0.7-3.5c0.6-3.7,1.3-7.4,1.9-11.1c0.4-2.3,0.8-4.5,1.1-6.8c0-0.2,0.1-0.3,0.1-0.5
					c2,0.6,4,0.8,6,0.5c-0.1,0.7-0.3,1.4-0.4,2.2c-0.1,0.8-0.2,1.7-0.2,2.5c0,0.3,0.1,0.7,0.4,1c1.2,1.4,2.4,2.9,3.6,4.3
					c0.3,0.3,0.4,0.6,0.3,1c-0.3,2-0.6,4.1-1,6.1c-0.2,1.2,0,2.3,0.8,3.2c2.4,3.3,5,6.4,7.9,9.3c2.5,2.5,5.1,4.9,7.6,7.4
					c0.1,0.1,0.2,0.3,0.1,0.5C423.3,351.2,423.2,351.6,423.1,352"/>
				<path class="st7" d="M397.4,352.1c-0.6,3.3-1.2,6.6-1.7,9.9c-0.4,2.4-0.9,4.8-1.3,7.1c-0.2,1.4,1,2.4,2.3,1.8
					c0.5-0.2,1-0.7,1.4-1.1c1.4-1.7,2.1-3.8,2.6-6c0.6-3,1.1-6,1.7-9c0.1-0.8,0.3-1.6,0.4-2.5c0.2,0.3,0.4,0.4,0.5,0.7
					c1,1.6,1.2,3.4,0.9,5.3c-1.1,6.8-3.4,13.2-6.3,19.5c-0.2,0.3-0.4,0.7-0.7,0.9c-1.2,1-2.5,2-3.8,3c-0.7,0.5-1.5,1-2.5,1
					c-0.7,0-1.2-0.3-1.6-0.8c-0.6-0.8-0.8-1.7-0.8-2.6c-0.1-2.1,0.1-4.2,0.4-6.2c0.5-3.3,1.2-6.6,2.2-9.8c1.2-3.6,2.7-6.9,5.1-9.9
					c0.3-0.4,0.7-0.8,1.1-1.2C397.2,352.1,397.3,352.1,397.4,352.1"/>
				<path class="st9" d="M521.4,302.5c-0.5,1.1-1.1,1.9-1.8,2.7c-0.5,0.5-1,1-1.6,1.3c-3.5,2.3-6.2,5.3-8.8,8.5
					c-2.3,2.8-3.7,6-4.7,9.5c-0.5,1.7-1.1,3.4-1.5,5.1c-0.3,1.6-0.4,3.2-0.6,4.9c-0.1,0.5-0.1,1-0.1,1.5c0,0.4-0.2,0.4-0.6,0.5
					c-1.1,0.2-2-0.1-2.8-0.7c-0.4-0.3-0.9-0.5-1.4-0.8c-0.5-0.3-0.8-0.7-0.7-1.3c0.7-4.9,1.6-9.8,3.3-14.5c1.2-3.2,2.8-6,4.9-8.6
					c1.1-1.3,2.4-2.5,3.8-3.4c3.1-1.9,6.3-3.6,9.8-4.4C519.6,302.7,520.4,302.6,521.4,302.5"/>
				<path class="st9" d="M409.5,187.3c-0.1-1.4,0.1-2.8,0.8-4.1c0-0.1,0.3-0.2,0.5-0.1c3.4,0.8,6.9,1.6,10.3,2.4
					c2.4,0.6,4.8,1.1,7.2,1.7c0.2,0,0.3,0.1,0.4,0.1c-0.3,1.5-0.7,2.9-1,4.5c-1-0.2-2.1-0.5-3.2-0.8c-0.5-0.1-1.1-0.2-1.6-0.6
					c-0.3-0.2-0.6,0-0.8,0.3c-0.2,0.4-0.3,0.8-0.4,1.3c-0.3,2.2-0.6,4.4-1,6.6c-0.4,2.9-0.9,5.8-1.4,8.7c-0.5,3.2-1,6.3-1.5,9.5
					c-0.4,2.4-0.7,4.9-1.1,7.3c0,0.2-0.2,0.6-0.4,0.7c-1,0.4-2,0.4-3-0.1c-0.4-0.2-0.6-0.6-0.5-1.1c0.4-2.7,0.8-5.3,1.3-8
					c0.5-2.9,0.9-5.7,1.4-8.6c0.5-3.1,1-6.2,1.5-9.3c0.3-1.8,0.6-3.5,0.8-5.3c0.1-0.8,0-1.7,0-2.5c0-0.5-0.4-0.8-1-0.9
					c-1.6-0.3-3.3-0.7-4.9-1C411,187.6,410.3,187.4,409.5,187.3 M425.5,188.3c0-0.8-0.8-1.6-1.6-1.6c-0.9,0-1.6,0.6-1.6,1.4
					c0,0.9,0.8,1.7,1.7,1.7C424.8,189.8,425.5,189.1,425.5,188.3 M417.4,186.4c0-0.7-0.6-1.3-1.4-1.3c-0.6,0-1.4,0.9-1.4,1.6
					c0,0.7,0.6,1.3,1.3,1.3C416.6,188.1,417.4,187.3,417.4,186.4"/>
				<path class="st6" d="M402.7,302.1c3.5-23.4,7-46.6,10.5-69.9h2.9c-0.1,0.7-0.2,1.3-0.3,1.9c-0.5,3.4-1,6.7-1.5,10.1
					c-0.6,3.7-1.1,7.5-1.7,11.2c-0.5,3.5-1,7-1.5,10.5c-0.5,3.3-1,6.5-1.5,9.8c-0.5,3.1-0.9,6.1-1.3,9.2c-0.5,3.1-0.9,6.1-1.4,9.2
					c-0.3,2.3-0.7,4.7-1,7c0,0.3-0.1,0.5-0.5,0.5C404.6,301.7,403.7,301.9,402.7,302.1"/>
				<path class="st6" d="M409.5,182c-0.8,1.1-1.2,2.4-1.3,3.6c-0.2,1.3-0.1,2.6,0.5,3.9c-1.4-0.3-2.7-0.6-3.9-0.9
					c-7.2-1.7-14.5-3.5-21.7-5.2c-1.4-0.3-2-1.1-2.1-2.5c-0.1-1.8,0.6-3.3,1.5-4.7c0.1-0.1,0.4-0.2,0.6-0.2
					c3.6,0.8,7.1,1.6,10.7,2.4c5.1,1.2,10.2,2.3,15.3,3.5C409.2,181.9,409.3,181.9,409.5,182"/>
				<path class="st7" d="M427.1,346.2c-1.3,0.8-2.4,1.8-3.2,3.2c-0.1-0.1-0.3-0.2-0.4-0.3c-3.5-3.5-7-6.9-10.4-10.5
					c-1.6-1.7-2.9-3.7-4.4-5.5c-0.6-0.8-0.8-1.6-0.6-2.6c0.3-1.8,0.5-3.6,0.7-5.5c0,0,0-0.1,0.1-0.2
					C415,331.9,421.1,339,427.1,346.2"/>
				<path class="st7" d="M446.1,346.6c2.1-0.7,4.2-1.3,6.2-2c0.1,0,0.3,0,0.4,0c3.1,1.3,6.2,1.4,9.4,0.6c4.4-1,8.8-1.9,13.3-2.4
					c2.2-0.3,4.5-0.4,6.7-0.5c2.7-0.1,5.4-0.2,8-0.9c2.7-0.7,5.1-2,6.8-4.2c0.3-0.4,0.6-0.3,1-0.1c0.8,0.4,1.5,0.7,2.3,1
					c0.5,0.1,1.2,0,1.9,0c-0.5,0.4-0.9,0.8-1.4,1.1c-1.2,0.6-2.5,1.2-3.8,1.7c-1.3,0.5-2.7,1-4,1.5c-1.5,0.6-2.7,1.5-3.5,2.9
					c-0.4,0.6-0.8,1.2-1.1,1.8c-0.3,0.5-0.6,0.8-1.1,0.9c-0.3,0-0.5,0.2-0.9,0.3c0.3-1.4,0.5-2.7,0.7-4c0.2-0.9-0.1-1.1-0.9-0.9
					c-1.4,0.3-2.8,0.7-4.1,1c-1.7,0.4-3.5,0.4-5.2,0.3c-0.6,0-1.2,0-1.8,0c-0.3,0-0.6,0.1-0.7,0.5c-0.1,0.4,0.2,0.5,0.5,0.6
					c2.1,0.7,3.7,2,5,3.7c0.2,0.2,0.3,0.5,0.5,0.7c0,0.1-0.1,0.1-0.1,0.1c-0.8,0.4-1.3,0.3-2-0.4c-2.2-2.4-5-3.3-8.2-3.4
					c-3.7-0.1-7.4,0.1-11.1,0.8c-2.5,0.4-5,0.7-7.6,0.5c-1.8-0.1-3.5-0.3-5.2-0.9C446.5,346.7,446.4,346.7,446.1,346.6"/>
				<path class="st9" d="M390,340.1c-0.1-1,0.2-1.9,1.1-2.6c0.7-0.5,1.3-1,2-1.5c1.7,1.6,3.9,1.9,6.1,1.8c0.6,0,1.1-0.2,1.7-0.4
					c0.3-0.1,0.7-0.2,1-0.1c1.7,0.5,2.2,1.6,1.9,3.2c-0.4,1.8-0.8,3.5-1.3,5.3c-1,3.8-1.6,7.6-2.3,11.5c-0.5,2.7-1,5.4-1.6,8
					c-0.3,1.3-0.9,2.4-1.7,3.5c-0.3,0.4-0.6,0.8-1.2,0.8c0.1-0.8,0.2-1.5,0.4-2.2c0.7-3.7,1.4-7.3,2-11c0.4-2.3,0.6-4.7,0.8-7
					c0.2-1.7,0.2-3.4,0.2-5.1c0-0.4-0.1-0.8-0.1-1.1c-0.2-1-0.7-1.8-1.7-2.2c-1.7-0.7-3.5-1.2-5.3-1.2
					C391.4,339.8,390.8,340,390,340.1"/>
				<path class="st9" d="M440.2,351.1c-4.5-0.4-8.8,2.2-9.9,7.2c-0.5,2-0.4,4-0.1,6c0,0.1,0,0.2,0.1,0.3c0,0,0,0.1,0,0.2
					c-0.6-0.5-1.2-0.9-1.7-1.4c-0.6-0.6-1.2-1.2-1.8-1.8c-0.1-0.1-0.2-0.4-0.2-0.6c0-0.7,0.1-1.3,0.1-2c0.1-1.2-0.3-2.3-1.1-3.2
					c-0.6-0.6-0.9-1.3-0.8-2.2c0.1-0.8,0-1.6,0.1-2.3c0.3-1.4,1.3-2.4,2.4-3.3c1.2-0.9,2.6-1.5,4.1-1.6c1.6-0.1,3.2-0.2,4.8-0.1
					c2.5,0.3,4,1.6,4.2,4.5C440.2,350.9,440.2,351,440.2,351.1 M430.4,351.5c0-1.1-0.7-1.9-1.8-2c-0.9-0.1-1.7,0.6-1.9,1.6
					c-0.1,0.6,0.1,1.1,0.3,1.6c0.5,1.1,1.8,1.4,2.7,0.5C430.1,352.7,430.4,352.1,430.4,351.5"/>
				<path class="st7" d="M437.1,361.7c1-0.3,1.9-0.7,2.9-0.9c0.2-0.1,0.5,0,0.7,0c2.7,0.1,5.3-0.2,7.8-1.1c1.1-0.4,2-1,2.6-2
					c0.7-1.2,0.6-2.2-0.5-3c-1-0.7-2-1.3-3.1-1.8c-1.7-0.8-3.5-1.1-5.4-1c-0.1,0-0.2,0-0.4,0v-1.3c0.9,0.3,1.7,0.6,2.6,0.8
					c2,0.5,4.1,0.5,6.1,0.2c3.2-0.4,6.5-0.9,9.7-1.3c2.9-0.4,5.9-0.8,8.8-0.6c1.1,0.1,2.2,0.2,3.3,0.5c1,0.3,1.8,0.9,2.3,2
					c-0.9,0.3-1.7,0.7-2.8,0.4c-3.2-1-6.4-1.1-9.7-0.9c-2.7,0.2-5.4,0.6-8,0.9c-0.4,0-0.7,0.1-1.1,0.2c-0.5,0.2-0.7,0.5-0.4,1
					c0.8,1.6,1,3.3,0.9,5c0,0.4-0.1,0.5-0.5,0.6c-3.8,1.2-7.5,2.5-11.3,3.7c-0.3,0.1-0.5,0.1-0.8-0.1
					C439.8,362.1,438.5,361.8,437.1,361.7"/>
				<path class="st6" d="M454,344.1c0.9-0.3,1.9-0.6,2.8-0.9c1.3-0.4,2.6-0.9,4-1.3c0.1,0,0.3-0.1,0.4-0.1c2.2,0.7,4.4,0.4,6.5-0.3
					c1.1-0.4,2.1-0.8,3.2-1.2c1.5-0.6,3.1-0.9,4.7-0.9c2.9,0,5.9,0,8.8,0.1c3.2,0.1,6.2-0.3,9-2c0.8-0.5,1.5-1.2,2.2-1.7
					c0.2,0.3,0.5,0.6,0.8,0.9c-0.9,1.1-2.2,2.2-3.8,2.9c-2.2,1-4.4,1.4-6.8,1.6c-2.6,0.2-5.1,0.2-7.7,0.4c-2.7,0.3-5.4,0.7-8.1,1.1
					c-3,0.5-5.9,1.2-8.9,1.8C458.7,345,456.3,344.9,454,344.1"/>
				<path class="st6" d="M478.4,350.8c-1,0.3-2,0.7-3,1c-0.7-2-2.3-2.7-4.2-3c-2.7-0.4-5.4-0.3-8.1,0c-3.8,0.5-7.6,1.1-11.4,1.5
					c-2.7,0.3-5.5,0.4-8.2-0.4c-0.4-0.1-0.8-0.3-1.2-0.4c-0.7-0.2-1.1-0.7-1.2-1.4c1.2-0.4,2.4-0.8,3.6-1.1c0.1,0,0.3,0,0.5,0.1
					c1.7,0.8,3.6,1.1,5.4,1.3c3.2,0.3,6.3-0.1,9.5-0.6c3.8-0.6,7.7-0.8,11.6-0.5C474.4,347.5,476.6,348.8,478.4,350.8"/>
				<path class="st6" d="M431.8,365.7c-0.2-0.2-0.4-0.3-0.4-0.5c-0.4-2.2-0.5-4.5,0.1-6.7c0.9-3.5,3.5-5.8,7.1-6.1
					c0.5-0.1,1.1-0.1,1.6-0.1c0,1,0,1.9,0,2.8c-0.1,1.2-0.3,2.4-0.4,3.6c0,0.4-0.2,0.6-0.5,0.7c-1.3,0.4-2.6,0.8-4,1.2
					c-0.8,0.3-1.6,0.6-2.4,0.9c-0.8,0.3-1.3,0.9-1.1,1.8c0.1,0.8,0.1,1.5,0.2,2.3C431.9,365.7,431.9,365.7,431.8,365.7"/>
				<path class="st7" d="M485.2,334.1c-0.5,0.6-0.9,1.2-1.4,1.8c-0.2,0.3-0.5,0.6-0.7,0.9c-0.3,0.5-0.1,1,0.5,1c0.5,0,1,0,1.4-0.1
					c2.8-0.8,5.3-2.1,7.4-4.1c0.6-0.6,1-1.3,1.6-1.9c0.2-0.2,0.4-0.4,0.7-0.5c0.3-0.2,0.7-0.2,1.2-0.4c-0.1,0.6-0.2,1-0.3,1.5
					c-0.1,0.7-0.3,1.4-0.4,2.2c-0.1,0.2-0.2,0.5-0.3,0.7c-1.3,1.6-3.1,2.4-5,3c-1.6,0.5-3.3,0.6-5,0.5c-2.4-0.1-4.9-0.1-7.3-0.1
					c-3,0-5.9,0.5-8.6,1.7c-1.9,0.9-4,1.4-6.2,1.1C470.2,338.9,477.6,336.5,485.2,334.1C485.1,334.1,485.1,334.1,485.2,334.1"/>
				<path class="st6" d="M489.3,347.2c1.1-2.2,2.6-3.8,5-4.5c2-0.6,3.9-1.4,5.8-2.2c1.4-0.6,2.5-1.5,3.4-2.7
					c0.1-0.1,0.2-0.2,0.3-0.3c1.1-0.6,2.2-1.1,3.4-1.6c-0.3,1.8-1,3.4-2.5,4.5c-1.5,1.1-3,2.2-4.5,3.2c-0.6,0.4-1.3,0.5-1.9,0.7
					C495.3,345.2,492.3,346.2,489.3,347.2"/>
				<path class="st6" d="M471.2,353.2c-1.1,0.4-2.2,0.7-3.3,1.1c-2.4,0.8-2.4,0.7-4.9,0.5c-2-0.1-4,0-6,0c-0.5,0-0.7,0.4-0.5,0.9
					c0.2,0.6,0.4,1.1,0.6,1.7c0,0.1-0.1,0.4-0.2,0.4c-0.9,0.3-1.8,0.6-2.8,0.9c0.3-1.9,0.1-3.7-0.8-5.5
					C459.3,352.6,465.2,351.7,471.2,353.2"/>
				<path class="st7" d="M399.7,301.8c2.1,1.1,3.1,1.1,6,0.6c-0.1,0.5-0.1,1-0.2,1.5c-0.2,1.4-0.4,2.7-0.6,4.1
					c0,0.2-0.3,0.5-0.5,0.6c-0.8,0.4-1.6,0.3-2.4,0.3c-0.9-0.1-1.8-0.3-2.6-0.7c-0.3-0.2-0.5-0.4-0.5-0.8
					C399.2,305.4,399.4,303.6,399.7,301.8"/>
				<path class="st6" d="M511.3,336.5c0-0.6,0-1.1,0.1-1.7c0.1-0.6,0.2-1.1,0.4-1.7c0.3-1,0.7-1.9,1.5-2.7c2.4-2.4,4.8-4.8,7.2-7.2
					c0.5-0.5,0.9-0.6,1.5-0.4c0.2,0.1,0.6,0.3,0.6,0.5c0.1,0.3,0,0.7-0.4,0.9c-0.2,0.1-0.3,0.3-0.5,0.4c-3.3,3.8-6.6,7.7-10,11.5
					c-0.1,0.1-0.2,0.2-0.3,0.3C511.4,336.5,511.3,336.5,511.3,336.5"/>
				<path class="st6" d="M441.8,352.6c3-0.1,5.7,0.7,8.1,2.4c1,0.7,1.1,1.4,0.2,2.4c-0.4,0.4-0.8,0.8-1.3,1.1
					c-2.4,1.2-5,1.5-7.8,1.5c0.1-0.5,0.2-0.9,0.3-1.2c1,0,2,0,2.9,0c0.9-0.1,1.7-0.4,2.4-0.9c0.8-0.7,0.8-1.5-0.2-2.1
					c-0.9-0.5-2-0.7-3-0.8c-0.5-0.1-1.1,0-1.7,0V352.6z"/>
				<path class="st6" d="M404.9,222.6c0.3-0.4,0.5-0.8,0.8-1.1c0.1-0.1,0.3-0.1,0.5-0.1c1.2,0.3,2.5,0.6,3.7,1
					c0.1,0,0.1,0.1,0.2,0.1c0.8,0.1,1.3,0.3,1.3,1.3c0,1.1,1.3,2.1,2.6,2.3c1.2,0.2,2.3,0.1,3.3-0.5c0.3-0.2,0.6-0.4,0.9-0.5
					c0-0.1,0-0.2,0-0.2c2.3,0.7,4.5,1.5,6.8,2.2c0,0.1,0,0.1,0,0.2c-0.3,0.3-0.6,0.6-0.9,0.9c-0.1,0.1-0.4,0.1-0.5,0
					c-0.3-0.1-0.6-0.3-0.9-0.4c-1.2-0.4-2.4-0.8-3.7-1.2c-0.5-0.1-0.9,0.1-1.2,0.4c-0.5,0.5-1.2,0.8-1.9,0.7
					c-1.1-0.1-2.1-0.1-3.2-0.2c-0.3,0-0.6-0.2-0.9-0.3c-1-0.5-1.1-0.8-1-1.9c0.1-0.6-0.1-0.9-0.8-1.2c-1.1-0.4-2.1-0.7-3.2-1
					C406.1,222.9,405.5,222.8,404.9,222.6"/>
				<path class="st7" d="M409.2,225.1c0,0.3,0.1,0.6,0.1,0.9c0,0.8,0.4,1.3,1,1.8c0.9,0.7,2,1.1,3.1,1.1c1,0.1,2,0,3-0.1
					c0.7,0,1.3-0.4,1.9-0.9c0.3-0.3,0.9-0.3,1.3,0c0.3,0.2,0.3,0.5,0.2,0.8c-0.1,0.6-0.4,1.1-1,1.3c-0.8,0.3-1.6,0.6-2.4,0.6
					c-2,0.1-4.1,0.1-6.1-0.6c-0.9-0.3-1.8-0.8-2.4-1.6c-0.5-0.6-0.7-1.3-0.6-2.1C407.5,225.6,408.1,225.1,409.2,225.1"/>
				<path class="st6" d="M445.9,363.2c0.8-0.3,1.6-0.5,2.5-0.8c0.1,0.6,0.2,1.2,0.2,1.8c0.3,2.3,1.2,4.4,2.2,6.4
					c0.6,1.3,1.3,2.6,1.9,3.9c0.1,0.3,0.3,0.6,0.4,1c-0.3-0.1-0.5-0.1-0.7-0.1c-0.8-0.3-1.4-0.8-1.7-1.5c-0.7-1.4-1.3-2.7-1.9-4.1
					c-0.9-2.1-1.8-4.2-2.8-6.2C446,363.4,446,363.4,445.9,363.2"/>
				<path class="st8" d="M460.2,202c-0.6-0.6-0.6-1.3-0.7-2c-0.2-1.6,0-3.2,0.6-4.8c0.3-0.7,0.6-1.4,1.3-1.8
					c0.6-0.3,1.1-0.2,1.2,0.4c0.1,0.6,0.2,1.3,0.2,1.9c-0.1,2.1-0.8,4-2,5.7C460.6,201.6,460.4,201.8,460.2,202"/>
				<path class="st6" d="M484.5,348.8c-0.1-0.7-0.1-1.3-0.1-1.9c-0.1-0.8-0.4-1-1.1-0.8c-0.4,0.1-0.9,0.3-1.3,0.5
					c-0.5,0.3-0.6,0.6-0.3,1.2c0.3,0.6,0.6,1.2,0.9,1.8c-0.4,0.1-0.7,0.2-1.1,0.4c-1.1-1.9-2.6-3.3-4.4-4.4c3.3,0.3,6.3-0.5,9.5-1.4
					c-0.1,0.8-0.3,1.4-0.4,2.1c-0.1,0.6-0.2,1.3-0.3,1.9c0,0.2-0.2,0.4-0.3,0.4C485.2,348.6,484.8,348.7,484.5,348.8"/>
				<path class="st7" d="M510.9,332.8c-0.1,0.6-0.3,1.2-0.3,1.8c0,0.8,0,1.6,0,2.4c0,0.2-0.1,0.5-0.2,0.7c-0.9,1.1-1.8,2.2-2.8,3.2
					c-0.1,0.1-0.2,0.2-0.4,0.3c-1.2,0.4-2.5,0.8-3.7,1.2c0,0-0.1,0-0.2,0c0.5-0.4,1-0.7,1.4-1c2.1-1.4,3.1-3.5,3.3-5.9
					c0-0.2,0-0.4,0.1-0.5C509.1,334.3,510,333.6,510.9,332.8"/>
				<path class="st6" d="M397.5,307.4c0,0.7,0.4,1.3,0.9,1.6c2,1.4,4.3,1.7,6.6,0.9c0.5-0.2,0.9-0.6,1.3-1c0.2,0.5-0.1,1.7-0.9,2.1
					c-0.6,0.4-1.2,0.7-1.9,0.8c-1.8,0.2-3.5,0.1-5.2-0.7c-0.6-0.3-1.1-0.6-1.5-1.1C396,309.3,396.4,307.9,397.5,307.4"/>
				<path class="st8" d="M405.5,277.7c-0.6-1-1.1-1.9-1.6-2.8c-0.1-0.3,0-0.8,0.1-1.2c0.3-1.8,0.6-3.7,0.8-5.5
					c0-0.1,0.1-0.2,0.1-0.4c0.4,0.6,0.7,1.3,1.1,1.8c0.5,0.7,0.6,1.4,0.4,2.2c-0.3,1.9-0.6,3.8-0.9,5.6
					C405.6,277.5,405.6,277.6,405.5,277.7"/>
				<path class="st8" d="M407.2,253.6c0.5,0.9,1.1,1.7,1.5,2.5c0.1,0.3,0,0.6,0,1c-0.3,1.9-0.6,3.8-0.8,5.7c0,0.1-0.1,0.3-0.1,0.5
					c-0.6-0.9-1.2-1.7-1.6-2.6c-0.2-0.4,0-0.9,0.1-1.4c0.3-1.8,0.5-3.5,0.8-5.3C407.1,253.8,407.1,253.7,407.2,253.6"/>
				<path class="st6" d="M492.8,331.7c-2.3,2.8-5.3,4.3-8.6,5.3c0,0-0.1-0.1-0.1-0.1c0.1-0.1,0.1-0.2,0.2-0.3
					c0.6-0.9,1.2-1.8,1.9-2.7c0.1-0.1,0.2-0.3,0.4-0.3c2-0.7,4.1-1.3,6.1-2C492.6,331.6,492.7,331.7,492.8,331.7"/>
				<path class="st7" d="M403.8,275.8c0.6,1,1.1,1.9,1.6,2.8c0.1,0.2,0,0.4,0,0.6c-0.3,1.8-0.5,3.6-0.8,5.6c-0.3-0.5-0.5-1-0.8-1.3
					c-0.8-1-1-2.1-0.7-3.4c0.3-1.3,0.4-2.6,0.6-4C403.7,276,403.7,276,403.8,275.8"/>
				<path class="st8" d="M402.6,282.8c0.6,1,1.2,1.8,1.6,2.7c0.1,0.3,0,0.7,0,1.1c-0.2,1.6-0.5,3.2-0.7,5c-0.6-1.1-1.2-2.1-1.6-3.1
					c-0.1-0.3,0-0.7,0.1-1C402.1,285.9,402.4,284.4,402.6,282.8"/>
				<path class="st7" d="M410.2,233.9c0.5,0.8,1,1.6,1.4,2.4c0.1,0.1,0.1,0.3,0.1,0.4c-0.3,1.9-0.5,3.8-0.8,5.8
					c-0.6-0.9-1.1-1.7-1.6-2.5c-0.1-0.1-0.1-0.3,0-0.4c0.3-1.8,0.6-3.7,0.8-5.5C410.1,234,410.1,234,410.2,233.9"/>
				<path class="st7" d="M408.9,255.3c-0.6-0.9-1.1-1.7-1.6-2.5c0-0.1-0.1-0.2-0.1-0.2c0.3-1.8,0.6-3.6,0.9-5.4c0,0,0-0.1,0.1-0.1
					c0.5,0.8,1,1.6,1.5,2.5c0.1,0.1,0.1,0.3,0,0.5C409.5,251.6,409.2,253.4,408.9,255.3"/>
				<path class="st7" d="M405.9,261.5c0.5,0.8,1.1,1.6,1.6,2.4c0,0.1,0.1,0.2,0.1,0.3c-0.3,1.8-0.5,3.5-0.9,5.3
					c-0.2-0.4-0.4-0.8-0.7-1.2c-0.8-1-1-2.1-0.7-3.3c0.3-1.1,0.4-2.2,0.5-3.3C405.9,261.7,405.9,261.6,405.9,261.5"/>
				<path class="st7" d="M402.6,297.3c-0.6-1-1.1-1.9-1.6-2.9c-0.1-0.1-0.1-0.3,0-0.4c0.2-1.5,0.5-3.1,0.7-4.8
					c0.6,1.2,1.1,2.2,1.6,3.2c0.1,0.2,0,0.6-0.1,0.9c-0.2,1.2-0.3,2.4-0.5,3.6C402.7,297.1,402.6,297.2,402.6,297.3"/>
				<path class="st8" d="M400.7,295.2c0.6,1,1.1,1.9,1.7,2.9c0.1,0.1,0.1,0.2,0.1,0.3c-0.2,1.1-0.3,2.2-0.5,3.5
					c-0.7-0.3-1.3-0.5-2-0.8c-0.1,0-0.1-0.2-0.1-0.3C400.1,299,400.4,297.2,400.7,295.2"/>
				<path class="st8" d="M409.9,248.6c-0.6-0.9-1.1-1.7-1.5-2.5c-0.2-0.3,0-0.8,0-1.2c0.2-1.2,0.4-2.4,0.5-3.6
					c0-0.1,0.1-0.3,0.1-0.4c0.5,0.8,1.1,1.6,1.5,2.4c0.2,0.3,0,0.8-0.1,1.2C410.3,245.8,410.1,247.1,409.9,248.6"/>
				<path class="st6" d="M440.2,363.5c-1.1,0.4-2,0.7-3,1c-0.1,0-0.3,0-0.4,0c-1-0.1-2-0.3-3-0.4c-0.2,0-0.5,0-0.5-0.3
					c0-0.3-0.2-0.7,0.2-0.9c0.5-0.2,0.9-0.6,1.5-0.3c0.1,0.1,0.3,0,0.5-0.1C436.9,362.3,438.8,362.7,440.2,363.5"/>
				<path class="st6" d="M430.5,339.5c-0.3,1.9-1.2,3.7-1.1,5.6c-1,0.4-1,0.4-1.2-0.6c-0.1-0.7-0.3-1.4-0.4-2.1
					C427.6,341,428.8,339.5,430.5,339.5"/>
				<path class="st7" d="M441.4,358c0.1-0.9,0.2-1.6,0.2-2.4c0.9,0.1,1.7,0.2,2.6,0.3c0.6,0.1,1.1,0.3,1.6,0.4
					c0.2,0.1,0.5,0.3,0.5,0.5c0,0.2-0.2,0.5-0.4,0.5c-0.6,0.3-1.2,0.6-1.9,0.6C443.2,358.1,442.3,358,441.4,358"/>
				<path class="st7" d="M457.6,355.7h5.7c0,0,0,0.1,0,0.1c-1.8,0.6-3.5,1.2-5.3,1.7C457.9,356.9,457.8,356.3,457.6,355.7"/>
				<path class="st6" d="M404.5,352.5c-0.5-0.5-0.9-1-1.3-1.6c-0.1-0.1-0.2-0.3-0.2-0.5c0.3-1.3,0.6-2.6,1-3.9
					C404.5,348.5,404.6,350.5,404.5,352.5"/>
				<path class="st8" d="M411.9,235.6c-0.6-0.9-1.1-1.6-1.5-2.3c-0.2-0.4,0-1,0-1.5c0.7,0.1,1.3,0.2,2,0.4
					C412.2,233.2,412.1,234.3,411.9,235.6"/>
				<path class="st7" d="M482.2,347.2c0.5-0.2,0.9-0.3,1.4-0.5c0,0.8,0.1,1.4,0.1,2.1c0,0.2-0.3,0.3-0.5,0.6
					C482.8,348.6,482.5,347.9,482.2,347.2"/>
				<path class="st7" d="M433.5,365.8c0-0.4-0.1-0.7-0.1-1.1c0.8,0.1,1.5,0.2,2.2,0.3c0,0,0,0.1,0,0.1
					C434.9,365.3,434.2,365.5,433.5,365.8"/>
				<path class="st6" d="M410.9,189c-0.2,0.2-0.3,0.4-0.5,0.7c-0.2-0.3-0.4-0.5-0.6-0.8c0,0,0-0.1,0.1-0.1
					C410.2,188.8,410.5,188.9,410.9,189"/>
				<path class="st5" d="M425.5,188.3c0,0.8-0.7,1.5-1.5,1.5c-0.9,0-1.7-0.8-1.7-1.7c0-0.8,0.7-1.4,1.6-1.4
					C424.7,186.7,425.5,187.5,425.5,188.3 M424.6,188.3c0-0.3-0.4-0.8-0.7-0.7c-0.3,0.1-0.7,0.2-0.8,0.5c-0.2,0.3,0.4,0.9,0.9,0.8
					C424.3,188.9,424.5,188.7,424.6,188.3"/>
				<path class="st5" d="M417.4,186.4c0,0.9-0.7,1.7-1.5,1.7c-0.7,0-1.3-0.6-1.3-1.3c0-0.7,0.7-1.6,1.4-1.6
					C416.7,185.1,417.3,185.7,417.4,186.4 M416.5,186.4c-0.1-0.1-0.3-0.3-0.4-0.3c-0.3,0.1-0.6,0.2-0.7,0.4
					c-0.1,0.3,0.1,0.6,0.5,0.7C416.1,187.3,416.4,186.9,416.5,186.4"/>
				<path class="st5" d="M430.4,351.5c0,0.7-0.2,1.2-0.7,1.7c-0.9,0.9-2.2,0.6-2.7-0.5c-0.2-0.5-0.4-1-0.3-1.6
					c0.2-0.9,1.1-1.6,1.9-1.6C429.7,349.6,430.4,350.4,430.4,351.5 M429.4,351.5c0-0.6-0.4-1.1-0.9-1c-0.5,0-0.9,0.5-0.9,1.1
					c0,0.7,0.4,1.2,0.9,1.2C428.9,352.8,429.4,352.2,429.4,351.5"/>
				<path class="st6" d="M424.6,188.3c0,0.4-0.3,0.6-0.7,0.6c-0.4,0-1-0.5-0.9-0.8c0.1-0.2,0.5-0.4,0.8-0.5
					C424.2,187.5,424.6,188,424.6,188.3"/>
				<path class="st6" d="M416.5,186.4c-0.1,0.6-0.4,0.9-0.7,0.8c-0.4-0.1-0.6-0.4-0.5-0.7c0.1-0.2,0.5-0.4,0.7-0.4
					C416.2,186,416.4,186.3,416.5,186.4"/>
				<path class="st6" d="M429.4,351.5c0,0.7-0.5,1.3-1,1.3c-0.5,0-0.9-0.5-0.9-1.2c0-0.6,0.4-1.1,0.9-1.1
					C429,350.4,429.4,350.9,429.4,351.5"/>
			</g>
		</g>
	</g>
	<g>
		<g>
			<defs>
				<rect id="SVGID_9_" x="412.1" y="180.5" width="181.8" height="235.3"/>
			</defs>
			<clipPath id="SVGID_10_">
				<use xlink:href="#SVGID_9_"  style="overflow:visible;"/>
			</clipPath>
			<g class="st10">
				<defs>
					<rect id="SVGID_11_" x="412.1" y="180.5" width="181.8" height="235.3"/>
				</defs>
				<clipPath id="SVGID_12_">
					<use xlink:href="#SVGID_11_"  style="overflow:visible;"/>
				</clipPath>
				<path class="st11" d="M433.7,405.7c-0.7-0.1-1.3-0.2-2-0.3c-2.1-0.5-3.5-1.8-4.6-3.6c-1.3-2.4-2-4.9-2.3-7.6
					c-0.6-4.8,0.2-9.4,1.7-14c1.6-5.1,3.4-10.2,6-14.9c1.1-2,2.5-3.9,3.8-5.9c0.1-0.1,0.2-0.2,0.2-0.3c-0.3-1.4,0-2.8,0.2-4.1
					c0.1-0.6,0.4-1.2,0.7-1.6c0.9-1.1,2-1.9,3.4-2.4c0.2-1,0.4-2,0.6-3c0.6-3.3,1.1-6.5,1.7-9.8c0.5-3.1,1-6.1,1.6-9.2
					c0.1-0.5,0-0.8-0.4-1.2c-1.7-1.3-1.8-3.5-0.3-4.9c0.5-0.5,1.1-0.6,1.8-0.6c0.2-1.1,0.3-2.1,0.5-3.2c0.5-3,0.9-5.9,1.4-8.9
					c0.4-2.7,0.8-5.5,1.2-8.2c0.5-3,0.9-5.9,1.4-8.9c0.4-2.7,0.8-5.5,1.2-8.2c0.5-3,0.9-5.9,1.4-8.9c0.4-2.7,0.8-5.5,1.2-8.2
					c0.5-3,0.9-5.9,1.4-8.9c0.5-2.9,0.9-5.9,1.3-8.8c0.1-0.8,0.2-1.5,0.4-2.3c0.1-0.4,0-0.7-0.4-0.9c-0.8-0.4-1.5-1-2.1-1.8
					c-0.9-1.3-1-3.4,0.6-4.7c-0.8-0.2-1.6-0.4-2.3-0.6c-0.8-0.2-1.2-0.7-1.2-1.3c0.1-0.8,0.6-1.3,1-1.9c0.5-0.7,1.3-0.6,2-0.4
					c1.6,0.5,3.3,0.9,5,1.4c0.1-0.7,0.3-1.5,0.4-2.3c0.5-3.3,1.1-6.7,1.6-10c0.6-3.5,1.1-7,1.6-10.5c0.4-2.7,0.8-5.3,1.3-8
					c0.1-0.4,0-0.6-0.4-0.7c-1.2-0.3-2.4-0.6-3.6-0.9c-0.3-0.1-0.4,0-0.6,0.2c-0.4,0.5-0.9,1-1.3,1.5c-0.1,0.1-0.3,0.1-0.5,0.1
					c-3.7-0.9-7.4-1.8-11.1-2.6c-5.8-1.4-11.7-2.8-17.5-4.2c-0.5-0.1-0.9-0.3-0.9-0.9c0,0,0-0.1-0.1-0.1c-1-1.6-1-3.3-0.4-5
					c0.3-1,0.8-1.9,1.3-2.7c0.6-1,1.2-1.1,2.3-0.9c4.7,1.1,9.4,2.1,14.1,3.2c4.6,1.1,9.2,2.1,13.9,3.1c0.5,0.1,0.8,0.3,1.1,0.8
					c0.1,0.2,0.3,0.3,0.5,0.4c5.3,1.3,10.7,2.5,16.1,3.7c0.2,0,0.4,0,0.6-0.1c0.5-0.4,1.1-0.4,1.7-0.3c9.1,2.1,18.2,4.1,27.4,6.2
					c0.4,0.1,0.7,0.2,1.1,0.3c0.5,0.1,0.9,0.2,1.4,0c0.9-0.3,2,0.3,2.3,1.3c0.2,0.5,0.3,1,0.3,1.5c0.1,2.8-0.7,5.4-2.4,7.6
					c-0.3,0.3-0.7,0.6-1,0.8c-0.5,0.3-1,0.2-1.4-0.2c-0.2-0.1-0.4-0.2-0.6-0.3c-9.2-2.2-18.4-4.4-27.6-6.6c-0.6-0.1-1.4-0.1-1.8-0.5
					c-0.6-0.6-0.8-1.4-1.2-2.1c-0.1-0.3-0.3-0.5-0.6-0.5c-1.4-0.3-2.9-0.7-4.4-1.1c-1.7,10.7-3.3,21.3-5,31.9
					c1.5,0.4,2.9,0.7,4.3,1.1c1,0.3,2,0.7,3,1.1c0.7,0.3,0.8,0.7,0.7,1.4c-0.3,1.1-1.6,2.2-2.6,2.1c-0.4,0-0.7-0.2-1-0.3
					c-0.4-0.2-0.8-0.4-1.2-0.6c0,0.2,0,0.4-0.1,0.6c-0.3,1.7-1.4,2.4-2.9,2.8c-0.6,0.1-0.7,0.4-0.8,0.9c-0.4,3.1-0.9,6.1-1.4,9.2
					c-0.5,3.1-0.9,6.1-1.3,9.2c-0.5,3.1-0.9,6.1-1.4,9.2c-0.5,3.3-1,6.5-1.4,9.8c-0.5,3.1-0.9,6.1-1.4,9.2c-0.4,2.8-0.8,5.7-1.2,8.5
					c-0.4,2.8-0.8,5.7-1.3,8.5c-0.4,2.8-0.8,5.7-1.2,8.5c-0.1,0.9-0.3,1.7-0.4,2.6c1.3,0.6,1.6,1.1,1.3,2.6c-0.2,1-0.7,1.9-1.5,2.5
					c-0.1,0.1-0.3,0.3-0.3,0.5c-0.2,1.6-0.5,3.1-0.7,4.7c0,0.2,0.1,0.5,0.2,0.7c7,8.2,14,16.5,21,24.7c0.1,0.1,0.1,0.1,0.1,0.1
					c0-0.6-0.1-1.2,0-1.8c0.3-1.8,2.3-3.4,4.1-3.3c0.9,0.1,1.4,0.9,1.3,1.9c-0.1,0.6-0.3,1.2-0.4,1.8c-0.2,0.9-0.4,1.8-0.6,2.7
					c0,0.1,0,0.2,0,0.3c0.6-0.1,1.2-0.2,1.7-0.2c1.8-0.1,3.5,0,5.2,0.6c0.7,0.3,1.4,0.8,2.1,1.3c0.3,0.2,0.5,0.3,0.9,0.2
					c4.8-1.6,9.6-3.1,14.4-4.7c13.4-4.3,26.7-8.6,40.1-12.8c0.7-0.2,0.8-0.6,0.9-1.2c0.7-3.8,1.7-7.5,3.2-11.1
					c1.6-3.6,3.7-6.9,6.7-9.5c2.2-1.9,4.7-3.2,7.2-4.4c2-0.9,4.1-1.7,6.4-1.9c0.6-0.1,1.3-0.1,1.9,0c0.7,0,1.2,0.5,1.2,1.2
					c0,0.3,0,0.6,0,0.9c0.4,0,0.9,0,1.4,0c1.7,0.1,3,0.9,4.2,2.1c1.8,1.7,3,3.9,3.7,6.3c1,3.2,1.4,6.5,1,9.9
					c-0.5,4.5-2.1,8.7-4.7,12.5c-2.4,3.6-5.4,6.5-9.4,8.3c-2.9,1.3-5.7,1.4-8.5-0.3c-0.4-0.2-0.7-0.5-1.1-0.8
					c-0.1,0-0.1,0.1-0.2,0.2c-0.6,0.9-1.5,1.3-2.5,1.7c-18.9,6.2-37.7,12.5-56.6,18.8c-0.4,0.1-0.5,0.3-0.4,0.7
					c0.3,3.9,2.2,7.2,3.8,10.6c0.3,0.5,0.5,1.1,0.8,1.6c0.3,0.6,0.3,1.3-0.2,1.8c-0.5,0.5-1.1,0.6-1.8,0.4c-1.1-0.3-2.1-0.9-2.7-1.9
					c-0.7-1.2-1.4-2.5-1.9-3.9c-1-2.5-2-5-3-7.5c-0.6,0.2-1.2,0.4-1.8,0.6c-2.9,1-5.8,1.9-8.7,2.9c-0.1,0-0.3,0.1-0.4,0.2
					c-0.5,0.3-1.1,0.3-1.6,0.1c-1.9-0.7-3.5-1.7-5-3.1c-0.4-0.4-0.8-0.9-1.3-1.3c-0.9-0.7-1.1-1.6-0.9-2.7c0.1-0.7,0.1-1.4,0.1-2.2
					c0-0.3-0.1-0.7-0.3-0.9c-0.4-0.7-1-1.4-1.4-2.1c-0.1-0.2-0.3-0.4-0.3-0.6c0-0.5-0.3-0.7-0.5-1c-6.3-6.9-12.5-13.8-18.8-20.7
					c-0.1-0.1-0.2-0.2-0.3-0.3c-0.2,1.1-0.5,2.2-0.7,3.3c0.6,0.4,1.2,0.8,1.7,1.3c1,0.9,1.1,2.2,0.9,3.4c-0.1,0.9-0.4,1.7-0.6,2.5
					c0,0.2-0.1,0.4,0,0.6c1.1,2.8,1.3,5.7,1.2,8.6c-0.1,6.3-1.4,12.3-3.6,18.1c-1.1,2.9-2.3,5.7-3.6,8.5c-1.6,3.4-4,6.2-6.8,8.6
					c-1.5,1.3-3.3,2-5.3,2.1c-0.1,0-0.2,0-0.3,0.1H433.7z M442.9,398.4c-0.9,0.5-1.7,1-2.5,1.4c-0.7,0.4-1.6,0.5-2.4,0.3
					c-1.6-0.4-2.4-1.6-2.8-3.1c-0.5-1.8-0.4-3.7-0.2-5.5c0.3-3.2,0.9-6.5,1.7-9.6c1-4.1,2.5-8,4.8-11.6c0.9-1.4,1.8-2.7,3.2-3.7
					c0.5-0.4,0.8-0.7,0.9-1.4c0.1-1.8,0.3-3.6,0.1-5.4c-0.1-0.9-0.4-1.4-1.3-1.7c-0.8-0.2-1.5-0.4-2.3-0.6c-0.2,0-0.4-0.1-0.6,0
					c-1.6,0.7-3.1,1.4-4.1,2.9c-1.2,1.7-2.4,3.4-3.4,5.3c-2.7,4.8-4.5,9.9-6.1,15.1c-1.4,4.4-2.1,8.9-1.5,13.6
					c0.3,2.4,1,4.7,2.2,6.9c0.8,1.4,2.1,2.4,3.7,2.8c1.9,0.5,3.7,0.2,5.4-0.7C439.8,402.2,441.3,400.3,442.9,398.4 M558.5,356
					c1.3,1.1,2.7,1.6,4.3,1.7c1.5,0.1,2.9-0.4,4.2-1c3.8-1.9,6.7-4.7,8.8-8.3c3.5-5.9,5.1-12.1,3.4-18.9c-0.6-2.5-1.7-4.9-3.5-6.8
					c-1.2-1.3-2.6-2.1-4.5-1.8c-0.6,0.1-1.3,0-1.7,0.6c-0.8,1.1-1.9,1.9-2.9,2.7c-5.6,4.2-10.1,9.2-12.2,16
					c-0.6,1.9-1.5,3.8-1.1,5.9c0.1,0.6,0.1,1.2,0.2,1.7c0.2,1,0.4,1.9,0.7,3c0.9-0.7,1.6-1.3,2.4-1.8c0.4-0.3,0.4-0.6,0.4-1
					c-0.3-1.9-0.3-3.9,0.1-5.8c1.1-5,3.5-9.2,7.4-12.6c1.7-1.5,3.6-2.6,6-2.7c2.9-0.1,5.5,1.4,6.6,4.1c1,2.4,1.1,4.9,0.7,7.5
					c-0.5,2.6-1.6,5-2.8,7.4c-1.5,2.8-3.6,4.9-6.4,6.3c-2.3,1.2-4.7,1.7-7.2,1.4c-0.1,0-0.3,0-0.4,0.1
					C560,354.2,559.2,355.1,558.5,356 M507.5,209.3c-0.2-0.1-0.4-0.1-0.5-0.1c-2.4-0.6-4.8-1.1-7.3-1.7c-6.8-1.5-13.5-3.1-20.3-4.6
					c-0.5-0.1-0.8,0-1.1,0.4c-1.5,1.9-1.7,4.7-0.6,6.7c0.2,0.3,0.4,0.5,0.7,0.6c8.3,2,16.6,3.9,24.9,5.9c1,0.2,1.9,0.4,2.9,0.7
					C505.8,214.5,506.2,211.8,507.5,209.3 M562.1,351.8c0.1,0,0.1,0.1,0.2,0.1c0.1,0,0.1,0,0.2,0c3.8-0.1,6.8-1.8,9.3-4.5
					c1.5-1.7,2.4-3.7,3.2-5.8c1.1-2.8,1.7-5.7,1-8.7c-0.4-2-1.4-3.6-3.3-4.3c-2.2-0.8-4.2-0.4-6.1,1c-4.7,3.6-7.5,8.3-8.3,14.2
					c-0.2,1.1,0,2.3,0,3.4c0.4-0.2,0.7-0.5,1-0.8c2.8-2.8,5.5-5.6,8.3-8.3c0.7-0.7,1.5-1,2.6-0.8c2,0.4,2.6,1.8,1.6,3.5
					c-0.1,0.2-0.2,0.4-0.4,0.5c-1.9,2.1-3.7,4.3-5.6,6.4C564.5,349,563.3,350.4,562.1,351.8 M471.1,368c0.1-0.5,0.2-0.8,0.3-1.2
					c0-0.1,0-0.4-0.1-0.5c-2.5-2.5-5.1-4.9-7.6-7.4c-2.9-2.9-5.5-6-7.9-9.3c-0.7-1-1-2-0.8-3.2c0.4-2,0.7-4.1,1-6.1
					c0.1-0.4,0-0.7-0.3-1c-1.2-1.4-2.5-2.8-3.6-4.3c-0.2-0.3-0.4-0.7-0.4-1c0-0.8,0.1-1.7,0.2-2.5c0.1-0.7,0.2-1.4,0.4-2.2
					c-2.1,0.3-4.1,0.1-6-0.5c0,0.2-0.1,0.3-0.1,0.5c-0.4,2.3-0.8,4.5-1.1,6.8c-0.6,3.7-1.2,7.4-1.9,11.1c-0.2,1.2-0.5,2.3-0.7,3.5
					c0,0.1,0.1,0.4,0.2,0.5c0.3,0.2,0.6,0.4,0.9,0.6c1.1,0.5,2.3,0.7,3.5,0.6c1.4,0,2.3-0.7,2.5-2.1c0.2-1.2,0.3-2.3,0.5-3.5
					c0.1-0.7,0.7-0.9,1.2-0.5c0.1,0.1,0.3,0.3,0.4,0.4c6.1,6.7,12.1,13.4,18.2,20.1C470.2,367.1,470.6,367.5,471.1,368 M445.4,368.1
					c-0.1,0-0.2-0.1-0.2-0.1c-0.4,0.4-0.8,0.8-1.1,1.2c-2.4,3-3.9,6.3-5.1,9.9c-1,3.2-1.7,6.5-2.2,9.8c-0.3,2.1-0.6,4.1-0.4,6.2
					c0.1,0.9,0.2,1.9,0.8,2.6c0.4,0.5,0.9,0.8,1.6,0.8c0.9-0.1,1.7-0.5,2.5-1c1.3-1,2.5-2,3.8-3c0.3-0.2,0.6-0.6,0.7-0.9
					c2.9-6.2,5.2-12.6,6.3-19.5c0.3-1.9,0.1-3.6-0.9-5.3c-0.1-0.2-0.3-0.4-0.5-0.7c-0.1,0.9-0.3,1.7-0.4,2.5c-0.5,3-1.1,6-1.7,9
					c-0.4,2.2-1.1,4.2-2.6,6c-0.4,0.5-0.9,0.9-1.4,1.1c-1.3,0.6-2.5-0.3-2.3-1.8c0.4-2.4,0.9-4.8,1.3-7.1
					C444.2,374.7,444.8,371.4,445.4,368.1 M569.4,318.5c-1,0.1-1.9,0.2-2.7,0.4c-3.6,0.8-6.8,2.5-9.8,4.4c-1.5,0.9-2.7,2.1-3.8,3.4
					c-2.2,2.6-3.8,5.5-4.9,8.6c-1.7,4.7-2.6,9.6-3.3,14.5c-0.1,0.6,0.2,1,0.7,1.3c0.5,0.3,1,0.5,1.4,0.8c0.9,0.6,1.8,0.9,2.8,0.7
					c0.3-0.1,0.5-0.1,0.6-0.5c0-0.5,0.1-1,0.1-1.5c0.2-1.6,0.3-3.3,0.6-4.9c0.4-1.7,1-3.4,1.5-5.1c1-3.4,2.5-6.7,4.7-9.5
					c2.6-3.2,5.3-6.2,8.8-8.5c0.6-0.4,1.1-0.8,1.6-1.3C568.3,320.4,569,319.6,569.4,318.5 M457.5,203.3c0.8,0.2,1.6,0.4,2.4,0.6
					c1.6,0.3,3.3,0.7,4.9,1c0.6,0.1,1,0.4,1,0.9c0,0.8,0.1,1.7,0,2.5c-0.2,1.8-0.5,3.5-0.8,5.3c-0.5,3.1-1,6.2-1.5,9.3
					c-0.5,2.9-0.9,5.7-1.4,8.6c-0.4,2.7-0.8,5.3-1.3,8c-0.1,0.5,0.1,0.8,0.5,1.1c1,0.6,2,0.6,3,0.1c0.2-0.1,0.4-0.4,0.4-0.7
					c0.4-2.4,0.8-4.9,1.1-7.3c0.5-3.2,1-6.3,1.5-9.5c0.5-2.9,0.9-5.8,1.4-8.7c0.3-2.2,0.6-4.4,1-6.6c0.1-0.4,0.2-0.9,0.4-1.3
					c0.1-0.3,0.5-0.5,0.8-0.3c0.5,0.4,1,0.5,1.6,0.6c1.1,0.3,2.2,0.5,3.2,0.8c0.4-1.5,0.7-3,1-4.5c-0.1,0-0.3-0.1-0.4-0.1
					c-2.4-0.6-4.8-1.1-7.2-1.7c-3.4-0.8-6.9-1.6-10.3-2.4c-0.1,0-0.4,0-0.5,0.1C457.6,200.4,457.3,201.8,457.5,203.3 M450.7,318.1
					c1-0.2,1.9-0.3,2.7-0.5c0.3,0,0.4-0.2,0.5-0.5c0.3-2.3,0.7-4.7,1-7c0.5-3.1,0.9-6.1,1.4-9.2c0.5-3.1,0.9-6.1,1.3-9.2
					c0.5-3.3,1-6.5,1.5-9.8c0.5-3.5,1-7,1.5-10.5c0.6-3.7,1.1-7.5,1.7-11.2c0.5-3.4,1-6.7,1.5-10.1c0.1-0.6,0.2-1.2,0.3-1.9h-2.9
					C457.7,271.4,454.2,294.7,450.7,318.1 M457.5,198c-0.2-0.1-0.3-0.1-0.4-0.1c-5.1-1.2-10.2-2.3-15.3-3.5
					c-3.6-0.8-7.1-1.6-10.7-2.4c-0.2,0-0.5,0.1-0.6,0.2c-0.9,1.4-1.6,3-1.5,4.7c0.1,1.4,0.7,2.1,2.1,2.5c7.2,1.7,14.5,3.5,21.7,5.2
					c1.3,0.3,2.6,0.6,3.9,0.9c-0.6-1.3-0.7-2.6-0.5-3.9C456.3,200.3,456.7,199.1,457.5,198 M475.1,362.2
					c-6.1-7.1-12.1-14.2-18.2-21.4c0,0.1-0.1,0.2-0.1,0.2c-0.2,1.8-0.4,3.7-0.7,5.5c-0.2,1,0,1.8,0.6,2.6c1.5,1.8,2.8,3.8,4.4,5.5
					c3.4,3.6,6.9,7,10.4,10.5c0.1,0.1,0.2,0.2,0.4,0.3C472.7,364,473.8,363,475.1,362.2 M494.1,362.6c0.2,0.1,0.3,0.1,0.4,0.2
					c1.7,0.6,3.4,0.8,5.2,0.9c2.5,0.1,5.1-0.1,7.6-0.5c3.7-0.6,7.3-0.8,11.1-0.8c3.2,0.1,6,0.9,8.2,3.4c0.6,0.7,1.2,0.9,2,0.4
					c0,0,0,0,0.1-0.1c-0.2-0.2-0.3-0.5-0.5-0.7c-1.3-1.7-3-3-5-3.7c-0.3-0.1-0.6-0.2-0.5-0.6c0.1-0.4,0.4-0.5,0.7-0.5
					c0.6,0,1.2,0,1.8,0c1.7,0,3.5,0.1,5.2-0.3c1.4-0.3,2.8-0.7,4.1-1c0.9-0.2,1.1,0,0.9,0.9c-0.3,1.3-0.5,2.6-0.7,4
					c0.4-0.1,0.6-0.2,0.9-0.3c0.5-0.1,0.9-0.4,1.1-0.9c0.3-0.6,0.7-1.2,1.1-1.8c0.8-1.4,2-2.3,3.5-2.9c1.3-0.5,2.7-1,4-1.5
					c1.3-0.5,2.6-1.1,3.8-1.7c0.5-0.2,0.9-0.7,1.4-1.1c-0.7,0-1.3,0.1-1.9,0c-0.8-0.2-1.6-0.6-2.3-1c-0.4-0.2-0.7-0.3-1,0.1
					c-1.8,2.2-4.1,3.5-6.8,4.2c-2.6,0.7-5.3,0.8-8,0.9c-2.2,0.1-4.5,0.3-6.7,0.5c-4.5,0.6-8.9,1.4-13.3,2.4
					c-3.2,0.8-6.4,0.6-9.4-0.6c-0.1-0.1-0.3-0.1-0.4,0C498.3,361.2,496.3,361.9,494.1,362.6 M438,356.1c0.7-0.1,1.4-0.3,2-0.3
					c1.8,0,3.6,0.5,5.3,1.2c1,0.4,1.5,1.2,1.7,2.2c0.1,0.4,0.1,0.8,0.1,1.1c0,1.7-0.1,3.4-0.2,5.1c-0.2,2.3-0.5,4.7-0.8,7
					c-0.6,3.7-1.3,7.3-2,11c-0.1,0.7-0.2,1.4-0.4,2.2c0.6-0.1,0.9-0.5,1.2-0.8c0.8-1,1.4-2.2,1.7-3.5c0.6-2.7,1.1-5.4,1.6-8
					c0.7-3.8,1.3-7.7,2.3-11.5c0.4-1.7,0.9-3.5,1.3-5.3c0.3-1.6-0.2-2.7-1.9-3.2c-0.4-0.1-0.7-0.1-1,0.1c-0.5,0.2-1.1,0.4-1.7,0.4
					c-2.2,0.1-4.3-0.2-6.1-1.8c-0.7,0.5-1.4,1-2,1.5C438.3,354.2,438,355.1,438,356.1 M488.2,367.1c0-0.1,0-0.2,0-0.2
					c-0.2-2.9-1.7-4.3-4.2-4.5c-1.6-0.2-3.2,0-4.8,0.1c-1.5,0.1-2.9,0.7-4.1,1.6c-1.1,0.9-2.1,1.8-2.4,3.3c-0.1,0.8,0,1.6-0.1,2.3
					c-0.1,0.9,0.2,1.6,0.8,2.2c0.8,0.9,1.2,2,1.1,3.2c-0.1,0.7-0.1,1.3-0.1,2c0,0.2,0.1,0.5,0.2,0.6c0.6,0.6,1.2,1.2,1.8,1.8
					c0.5,0.5,1.1,0.9,1.7,1.4c0-0.1,0-0.2,0-0.2c0-0.1,0-0.2-0.1-0.3c-0.4-2-0.4-4,0.1-6C479.4,369.3,483.7,366.8,488.2,367.1
					 M485.1,377.7c1.4,0.2,2.7,0.5,3.9,1.2c0.3,0.2,0.5,0.2,0.8,0.1c3.8-1.3,7.5-2.5,11.3-3.7c0.3-0.1,0.4-0.2,0.5-0.6
					c0.1-1.7-0.1-3.4-0.9-5c-0.2-0.4-0.1-0.8,0.4-1c0.3-0.1,0.7-0.2,1.1-0.2c2.7-0.3,5.3-0.7,8-0.9c3.3-0.2,6.5-0.1,9.7,0.9
					c1.1,0.3,1.9-0.1,2.8-0.4c-0.4-1.1-1.2-1.8-2.3-2c-1.1-0.3-2.2-0.4-3.3-0.5c-3-0.2-5.9,0.2-8.8,0.6c-3.2,0.4-6.5,0.9-9.7,1.3
					c-2,0.2-4.1,0.2-6.1-0.2c-0.9-0.2-1.8-0.5-2.6-0.8v1.3c0.2,0,0.3,0,0.4,0c1.9-0.1,3.7,0.3,5.4,1c1.1,0.5,2.2,1.1,3.1,1.8
					c1.1,0.8,1.2,1.8,0.5,3c-0.6,1-1.5,1.6-2.6,2c-2.5,1-5.2,1.3-7.8,1.1c-0.2,0-0.5-0.1-0.7,0C487,377,486.1,377.3,485.1,377.7
					 M502,360.1c2.3,0.8,4.7,1,7.1,0.5c3-0.6,5.9-1.3,8.9-1.8c2.7-0.5,5.4-0.9,8.1-1.1c2.5-0.3,5.1-0.3,7.7-0.4
					c2.4-0.2,4.6-0.6,6.8-1.6c1.6-0.7,2.8-1.8,3.8-2.9c-0.3-0.4-0.6-0.7-0.8-0.9c-0.7,0.5-1.4,1.2-2.2,1.7c-2.8,1.7-5.8,2.1-9,2
					c-2.9-0.1-5.9-0.1-8.8-0.1c-1.6,0-3.2,0.3-4.7,0.9c-1.1,0.4-2.1,0.9-3.2,1.2c-2.1,0.7-4.3,1-6.5,0.3c-0.1,0-0.3,0-0.4,0.1
					c-1.3,0.4-2.6,0.8-4,1.3C503.8,359.5,502.9,359.8,502,360.1 M526.4,366.8c-1.8-2.1-3.9-3.3-6.6-3.5c-3.9-0.3-7.7-0.1-11.6,0.5
					c-3.1,0.5-6.3,0.9-9.5,0.6c-1.9-0.2-3.7-0.5-5.4-1.3c-0.1-0.1-0.3-0.1-0.5-0.1c-1.2,0.4-2.4,0.8-3.6,1.1
					c0.1,0.8,0.5,1.2,1.2,1.4c0.4,0.1,0.8,0.3,1.2,0.4c2.7,0.8,5.4,0.7,8.2,0.4c3.8-0.5,7.6-1.1,11.4-1.5c2.7-0.3,5.4-0.5,8.1,0
					c1.9,0.3,3.5,1,4.2,3C524.3,367.5,525.3,367.2,526.4,366.8 M479.8,381.7c0,0,0.1-0.1,0.1-0.1c-0.1-0.8-0.1-1.5-0.2-2.3
					c-0.1-0.9,0.3-1.5,1.1-1.8c0.8-0.3,1.6-0.6,2.4-0.9c1.3-0.4,2.6-0.8,4-1.2c0.4-0.1,0.5-0.4,0.5-0.7c0.1-1.2,0.3-2.4,0.4-3.6
					c0.1-0.9,0-1.8,0-2.8c-0.5,0-1.1,0-1.6,0.1c-3.6,0.4-6.2,2.6-7.1,6.1c-0.6,2.2-0.4,4.5-0.1,6.7
					C479.4,381.4,479.7,381.5,479.8,381.7 M533.2,350.1C533.1,350.1,533.1,350.1,533.2,350.1c-7.5,2.3-15,4.7-22.5,7.1
					c2.2,0.3,4.3-0.3,6.2-1.1c2.7-1.3,5.6-1.7,8.6-1.7c2.4,0,4.9,0.1,7.3,0.1c1.7,0,3.4-0.1,5-0.5c1.9-0.6,3.7-1.4,5-3
					c0.2-0.2,0.3-0.5,0.3-0.7c0.2-0.7,0.3-1.4,0.4-2.2c0.1-0.5,0.2-1,0.3-1.5c-0.5,0.2-0.9,0.2-1.2,0.4c-0.2,0.1-0.5,0.3-0.7,0.5
					c-0.5,0.6-1,1.4-1.6,1.9c-2.1,2-4.6,3.3-7.4,4.1c-0.5,0.1-1,0.2-1.4,0.1c-0.6,0-0.8-0.5-0.5-1c0.2-0.3,0.5-0.6,0.7-0.9
					C532.2,351.3,532.7,350.7,533.2,350.1 M537.3,363.2c3-1,6-2,8.9-3c0.6-0.2,1.4-0.3,1.9-0.7c1.5-1,3-2.1,4.5-3.2
					c1.5-1.1,2.2-2.7,2.5-4.5c-1.1,0.5-2.2,1.1-3.4,1.6c-0.1,0.1-0.2,0.2-0.3,0.3c-0.9,1.2-2,2.1-3.4,2.7c-1.9,0.8-3.8,1.6-5.8,2.2
					C539.9,359.4,538.4,361,537.3,363.2 M519.2,369.2c-5.9-1.5-11.8-0.6-17.8,0.2c0.9,1.8,1,3.6,0.8,5.5c1-0.3,1.9-0.6,2.8-0.9
					c0.1,0,0.3-0.3,0.2-0.4c-0.2-0.6-0.4-1.2-0.6-1.7c-0.2-0.5-0.1-0.9,0.5-0.9c2,0,4-0.2,6,0c2.5,0.2,2.5,0.3,4.9-0.5
					C517,370,518.1,369.6,519.2,369.2 M447.7,317.8c-0.3,1.8-0.5,3.6-0.8,5.4c-0.1,0.4,0.1,0.7,0.5,0.8c0.8,0.5,1.7,0.7,2.6,0.7
					c0.8,0.1,1.7,0.2,2.4-0.3c0.2-0.1,0.4-0.4,0.5-0.6c0.2-1.3,0.4-2.7,0.6-4.1c0.1-0.5,0.1-1,0.2-1.5
					C450.8,319,449.8,318.9,447.7,317.8 M559.3,352.5c0,0,0.1,0,0.1,0c0.1-0.1,0.2-0.2,0.3-0.3c3.3-3.8,6.6-7.7,10-11.5
					c0.1-0.2,0.3-0.3,0.5-0.4c0.4-0.2,0.5-0.6,0.4-0.9c0-0.2-0.4-0.4-0.6-0.5c-0.6-0.3-1.1-0.1-1.5,0.4c-2.4,2.4-4.7,4.8-7.2,7.2
					c-0.8,0.8-1.2,1.7-1.5,2.7c-0.2,0.6-0.3,1.1-0.4,1.7C559.3,351.3,559.3,351.9,559.3,352.5 M489.8,368.6v2.3c0.6,0,1.1,0,1.7,0
					c1,0.1,2.1,0.2,3,0.8c0.9,0.5,1,1.4,0.2,2.1c-0.7,0.6-1.5,0.9-2.4,0.9c-1,0.1-1.9,0-2.9,0c-0.1,0.3-0.2,0.7-0.3,1.2
					c2.7,0,5.3-0.3,7.8-1.5c0.5-0.2,1-0.6,1.3-1.1c0.8-0.9,0.8-1.6-0.2-2.4C495.5,369.3,492.8,368.5,489.8,368.6 M452.9,238.6
					c0.6,0.2,1.2,0.3,1.7,0.5c1.1,0.3,2.1,0.6,3.2,1c0.7,0.2,0.8,0.6,0.8,1.2c-0.1,1.1,0,1.4,1,1.9c0.3,0.1,0.6,0.3,0.9,0.3
					c1.1,0.1,2.1,0.2,3.2,0.2c0.7,0,1.4-0.2,1.9-0.7c0.3-0.3,0.8-0.6,1.2-0.4c1.2,0.4,2.4,0.8,3.7,1.2c0.3,0.1,0.6,0.3,0.9,0.4
					c0.2,0,0.4,0,0.5,0c0.3-0.3,0.6-0.6,0.9-0.9c0-0.1,0-0.1,0-0.2c-2.3-0.7-4.5-1.5-6.8-2.2c0,0.1,0,0.2,0,0.2
					c-0.3,0.2-0.6,0.3-0.9,0.5c-1,0.7-2.1,0.7-3.3,0.5c-1.3-0.2-2.6-1.2-2.6-2.3c0-1-0.5-1.2-1.3-1.3c-0.1,0-0.1,0-0.2-0.1
					c-1.2-0.3-2.4-0.7-3.7-1c-0.2,0-0.4,0-0.5,0.1C453.4,237.8,453.2,238.2,452.9,238.6 M457.2,241.1c-1.1,0-1.8,0.5-1.9,1.5
					c-0.1,0.8,0.1,1.5,0.6,2.1c0.6,0.8,1.5,1.3,2.4,1.6c2,0.6,4,0.7,6.1,0.6c0.8-0.1,1.7-0.4,2.4-0.6c0.6-0.2,0.9-0.7,1-1.3
					c0.1-0.3,0.1-0.6-0.2-0.8c-0.4-0.3-1-0.3-1.3,0c-0.5,0.5-1.1,0.8-1.9,0.9c-1,0-2,0.1-3,0.1c-1.1-0.1-2.2-0.4-3.1-1.1
					c-0.6-0.4-1-1-1-1.8C457.3,241.7,457.3,241.4,457.2,241.1 M493.9,379.2c0,0.1,0.1,0.2,0.1,0.2c0.9,2.1,1.8,4.2,2.8,6.2
					c0.6,1.4,1.2,2.8,1.9,4.1c0.4,0.7,1,1.3,1.7,1.5c0.2,0.1,0.4,0.1,0.7,0.1c-0.2-0.4-0.3-0.7-0.4-1c-0.6-1.3-1.3-2.6-1.9-3.9
					c-1-2.1-1.9-4.1-2.2-6.4c-0.1-0.6-0.2-1.1-0.2-1.8C495.5,378.7,494.7,379,493.9,379.2 M508.2,218c0.2-0.2,0.4-0.4,0.5-0.6
					c1.3-1.7,1.9-3.6,2-5.7c0-0.6,0-1.3-0.2-1.9c-0.2-0.7-0.6-0.8-1.2-0.4c-0.7,0.4-1.1,1.1-1.3,1.8c-0.6,1.6-0.7,3.2-0.6,4.8
					C507.5,216.7,507.5,217.4,508.2,218 M532.5,364.8c0.3-0.1,0.7-0.2,1-0.3c0.1-0.1,0.3-0.3,0.3-0.4c0.1-0.6,0.2-1.3,0.3-1.9
					c0.1-0.7,0.3-1.4,0.4-2.1c-3.1,0.9-6.2,1.7-9.5,1.4c1.9,1.1,3.4,2.5,4.4,4.4c0.4-0.1,0.7-0.2,1.1-0.4c-0.3-0.6-0.6-1.2-0.9-1.8
					c-0.3-0.5-0.2-0.9,0.3-1.2c0.4-0.2,0.9-0.4,1.3-0.5c0.8-0.2,1.1,0,1.1,0.8C532.4,363.5,532.4,364.1,532.5,364.8 M558.9,348.8
					c-0.9,0.8-1.8,1.5-2.7,2.2c-0.1,0.1-0.1,0.3-0.1,0.5c-0.3,2.4-1.3,4.5-3.3,5.9c-0.5,0.3-0.9,0.7-1.4,1c0.1,0,0.2,0,0.2,0
					c1.2-0.4,2.5-0.8,3.7-1.2c0.1-0.1,0.3-0.2,0.4-0.3c0.9-1.1,1.9-2.1,2.8-3.2c0.1-0.2,0.2-0.4,0.2-0.7c0-0.8,0-1.6,0-2.4
					C558.6,350.1,558.8,349.5,558.9,348.8 M445.5,323.4c-1.1,0.5-1.5,1.9-0.7,2.7c0.4,0.4,1,0.8,1.5,1.1c1.6,0.7,3.4,0.9,5.2,0.7
					c0.7-0.1,1.3-0.4,1.9-0.8c0.7-0.5,1.1-1.7,0.9-2.1c-0.4,0.3-0.8,0.8-1.3,1c-2.3,0.9-4.6,0.5-6.6-0.9
					C445.8,324.7,445.5,324.1,445.5,323.4 M453.5,293.7c0.1-0.2,0.1-0.2,0.1-0.3c0.3-1.9,0.5-3.8,0.9-5.6c0.2-0.8,0-1.5-0.4-2.2
					c-0.4-0.6-0.7-1.2-1.1-1.8c-0.1,0.2-0.1,0.3-0.1,0.4c-0.3,1.8-0.6,3.7-0.8,5.5c-0.1,0.4-0.2,0.9-0.1,1.2
					C452.4,291.8,452.9,292.7,453.5,293.7 M455.2,269.6c-0.1,0.2-0.1,0.2-0.1,0.3c-0.3,1.8-0.5,3.5-0.8,5.3c-0.1,0.5-0.3,1-0.1,1.4
					c0.4,0.9,1,1.7,1.6,2.6c0.1-0.2,0.1-0.3,0.1-0.5c0.3-1.9,0.6-3.8,0.8-5.7c0-0.3,0.1-0.7,0-1
					C456.2,271.2,455.7,270.4,455.2,269.6 M540.8,347.7c-0.1,0-0.2-0.1-0.2,0c-2,0.6-4.1,1.3-6.1,2c-0.1,0-0.3,0.2-0.4,0.3
					c-0.6,0.9-1.3,1.8-1.9,2.7c-0.1,0.1-0.1,0.2-0.2,0.3c0,0,0.1,0.1,0.1,0.1C535.5,352,538.5,350.4,540.8,347.7 M451.8,291.8
					c-0.1,0.2-0.1,0.2-0.1,0.3c-0.2,1.3-0.3,2.7-0.6,4c-0.3,1.3-0.1,2.4,0.7,3.4c0.3,0.4,0.5,0.8,0.8,1.3c0.3-2,0.6-3.8,0.8-5.6
					c0-0.2,0.1-0.5,0-0.6C452.8,293.7,452.3,292.8,451.8,291.8 M450.6,298.8c-0.3,1.6-0.5,3.1-0.7,4.7c0,0.3-0.2,0.7-0.1,1
					c0.5,1,1,2,1.6,3.1c0.3-1.8,0.5-3.4,0.7-5c0-0.4,0.2-0.8,0-1.1C451.8,300.6,451.2,299.8,450.6,298.8 M458.2,249.9
					c-0.1,0.1-0.1,0.1-0.1,0.2c-0.3,1.8-0.6,3.7-0.8,5.5c0,0.1,0,0.3,0,0.4c0.5,0.8,1,1.6,1.6,2.5c0.3-2,0.6-3.9,0.8-5.8
					c0-0.1,0-0.3-0.1-0.4C459.2,251.5,458.7,250.7,458.2,249.9 M456.9,271.3c0.3-1.9,0.6-3.6,0.8-5.4c0-0.2,0-0.4,0-0.5
					c-0.5-0.8-1-1.6-1.5-2.5c0,0.1-0.1,0.1-0.1,0.1c-0.3,1.8-0.6,3.6-0.9,5.4c0,0.1,0,0.2,0.1,0.2
					C455.8,269.6,456.3,270.4,456.9,271.3 M453.9,277.5c-0.1,0.1-0.1,0.2-0.1,0.2c-0.2,1.1-0.3,2.2-0.5,3.3
					c-0.3,1.2-0.1,2.3,0.7,3.3c0.3,0.4,0.5,0.8,0.7,1.2c0.4-1.8,0.6-3.6,0.9-5.3c0-0.1,0-0.2-0.1-0.3
					C455,279.1,454.5,278.3,453.9,277.5 M450.6,313.3c0.1-0.2,0.1-0.3,0.1-0.4c0.2-1.2,0.4-2.4,0.5-3.6c0-0.3,0.2-0.6,0.1-0.9
					c-0.5-1-1-2.1-1.6-3.2c-0.3,1.7-0.5,3.2-0.7,4.8c0,0.1,0,0.3,0,0.4C449.5,311.4,450,312.3,450.6,313.3 M448.7,311.2
					c-0.3,2-0.6,3.8-0.8,5.6c0,0.1,0,0.3,0.1,0.3c0.6,0.3,1.3,0.5,2,0.8c0.2-1.3,0.4-2.4,0.5-3.5c0-0.1,0-0.2-0.1-0.3
					C449.8,313.2,449.3,312.2,448.7,311.2 M457.9,264.6c0.2-1.5,0.4-2.8,0.6-4.1c0.1-0.4,0.2-0.9,0.1-1.2c-0.4-0.8-1-1.6-1.5-2.4
					c0,0.2-0.1,0.3-0.1,0.4c-0.2,1.2-0.4,2.4-0.5,3.6c-0.1,0.4-0.2,0.9,0,1.2C456.8,262.9,457.4,263.7,457.9,264.6 M488.2,379.5
					c-1.4-0.8-3.3-1.2-4.7-1c-0.2,0-0.4,0.1-0.5,0.1c-0.6-0.3-1,0.1-1.5,0.3c-0.4,0.2-0.2,0.6-0.2,0.9c0,0.3,0.3,0.3,0.5,0.3
					c1,0.1,2,0.3,3,0.4c0.1,0,0.3,0.1,0.4,0C486.2,380.2,487.2,379.9,488.2,379.5 M478.5,355.5c-1.7,0-2.9,1.5-2.6,3
					c0.1,0.7,0.3,1.4,0.4,2.1c0.2,1,0.2,1,1.2,0.6C477.4,359.2,478.3,357.4,478.5,355.5 M489.4,374c0.9,0,1.8,0.1,2.6,0
					c0.6-0.1,1.3-0.4,1.9-0.6c0.2-0.1,0.5-0.4,0.4-0.5c0-0.2-0.3-0.4-0.5-0.5c-0.5-0.2-1.1-0.4-1.6-0.4c-0.8-0.1-1.7-0.2-2.6-0.3
					C489.6,372.4,489.5,373.2,489.4,374 M505.6,371.7c0.2,0.6,0.3,1.2,0.5,1.9c1.7-0.6,3.5-1.2,5.3-1.7c0,0,0-0.1,0-0.1H505.6z
					 M452.5,368.5c0-2,0-4-0.5-5.9c-0.4,1.3-0.7,2.6-1,3.9c0,0.1,0.1,0.4,0.2,0.5C451.6,367.4,452.1,367.9,452.5,368.5 M459.9,251.6
					c0.2-1.3,0.4-2.4,0.5-3.5c-0.7-0.1-1.3-0.2-2-0.4c0,0.5-0.2,1.1,0,1.5C458.7,250,459.3,250.7,459.9,251.6 M530.2,363.2
					c0.3,0.8,0.6,1.4,1,2.2c0.2-0.2,0.5-0.4,0.5-0.6c0-0.7-0.1-1.4-0.1-2.1C531.1,362.9,530.6,363,530.2,363.2 M481.5,381.8
					c0.7-0.2,1.4-0.5,2.1-0.7c0,0,0-0.1,0-0.1c-0.7-0.1-1.4-0.2-2.2-0.3C481.4,381,481.5,381.3,481.5,381.8 M458.9,205
					c-0.4-0.1-0.7-0.2-1-0.2c0,0,0,0.1-0.1,0.1c0.2,0.2,0.4,0.5,0.6,0.8C458.6,205.4,458.7,205.2,458.9,205"/>
				<path class="st12" d="M442.9,398.4c-1.6,2-3.1,3.8-5.2,5c-1.7,0.9-3.5,1.1-5.4,0.7c-1.6-0.4-2.8-1.3-3.7-2.8
					c-1.2-2.1-1.9-4.4-2.2-6.9c-0.6-4.6,0.1-9.1,1.5-13.6c1.6-5.2,3.4-10.4,6.1-15.1c1-1.8,2.3-3.5,3.4-5.3c1-1.5,2.6-2.2,4.1-2.9
					c0.2-0.1,0.4,0,0.6,0c0.8,0.2,1.5,0.4,2.3,0.6c0.9,0.2,1.2,0.8,1.3,1.7c0.2,1.8,0,3.6-0.1,5.4c-0.1,0.7-0.3,1-0.9,1.4
					c-1.4,0.9-2.3,2.3-3.2,3.7c-2.3,3.6-3.8,7.5-4.8,11.6c-0.8,3.2-1.4,6.4-1.7,9.6c-0.2,1.8-0.3,3.7,0.2,5.5
					c0.4,1.5,1.2,2.7,2.8,3.1c0.8,0.2,1.6,0.1,2.4-0.3C441.2,399.3,442,398.9,442.9,398.4"/>
				<path class="st12" d="M558.5,356c0.8-0.9,1.5-1.8,2.3-2.6c0.1-0.1,0.3-0.1,0.4-0.1c2.6,0.4,4.9-0.2,7.2-1.4
					c2.8-1.4,4.9-3.5,6.4-6.3c1.2-2.3,2.3-4.8,2.8-7.4c0.5-2.6,0.4-5.1-0.7-7.5c-1.1-2.6-3.7-4.2-6.6-4.1c-2.4,0.1-4.3,1.2-6,2.7
					c-3.9,3.4-6.3,7.6-7.4,12.6c-0.4,1.9-0.3,3.9-0.1,5.8c0.1,0.5,0,0.8-0.4,1c-0.8,0.6-1.5,1.2-2.4,1.8c-0.2-1.1-0.5-2-0.7-3
					c-0.1-0.6-0.1-1.2-0.2-1.7c-0.4-2.1,0.5-4,1.1-5.9c2.1-6.8,6.6-11.9,12.2-16c1.1-0.8,2.1-1.6,2.9-2.7c0.4-0.6,1.1-0.5,1.7-0.6
					c1.9-0.3,3.3,0.6,4.5,1.8c1.8,1.9,2.9,4.3,3.5,6.8c1.7,6.8,0.1,13-3.4,18.9c-2.1,3.6-5.1,6.4-8.8,8.3c-1.3,0.7-2.7,1.1-4.2,1
					C561.1,357.6,559.7,357.1,558.5,356"/>
				<path class="st12" d="M507.5,209.3c-1.4,2.5-1.7,5.1-1.2,8c-1-0.2-2-0.5-2.9-0.7c-8.3-2-16.6-4-24.9-5.9
					c-0.4-0.1-0.6-0.3-0.7-0.6c-1.1-2.1-0.9-4.9,0.6-6.7c0.3-0.4,0.6-0.5,1.1-0.4c6.7,1.5,13.5,3.1,20.3,4.6
					c2.4,0.6,4.8,1.1,7.3,1.7C507.2,209.2,507.3,209.3,507.5,209.3"/>
				<path class="st13" d="M562.1,351.8c1.2-1.4,2.4-2.8,3.5-4.1c1.9-2.1,3.7-4.3,5.6-6.4c0.1-0.2,0.3-0.3,0.4-0.5
					c1.1-1.7,0.4-3.1-1.6-3.5c-1-0.2-1.8,0.1-2.6,0.8c-2.8,2.8-5.5,5.6-8.3,8.3c-0.3,0.3-0.6,0.5-1,0.8c0-1.1-0.1-2.3,0-3.4
					c0.8-5.9,3.6-10.6,8.3-14.2c1.8-1.4,3.9-1.8,6.1-1c2,0.7,2.9,2.4,3.3,4.3c0.7,3,0.1,5.9-1,8.7c-0.8,2.1-1.7,4.1-3.2,5.8
					c-2.5,2.8-5.5,4.4-9.3,4.5c-0.1,0-0.1,0-0.2,0C562.2,351.9,562.2,351.8,562.1,351.8"/>
				<path class="st14" d="M471.1,368c-0.4-0.5-0.8-0.9-1.2-1.4c-6.1-6.7-12.1-13.4-18.2-20.1c-0.1-0.1-0.2-0.3-0.4-0.4
					c-0.5-0.4-1.1-0.1-1.2,0.5c-0.2,1.2-0.3,2.3-0.5,3.5c-0.3,1.4-1.1,2.1-2.5,2.1c-1.2,0-2.4-0.1-3.5-0.6c-0.3-0.1-0.6-0.4-0.9-0.6
					c-0.1-0.1-0.2-0.3-0.2-0.5c0.2-1.2,0.5-2.3,0.7-3.5c0.6-3.7,1.3-7.4,1.9-11.1c0.4-2.3,0.8-4.5,1.1-6.8c0-0.2,0.1-0.3,0.1-0.5
					c2,0.6,4,0.8,6,0.5c-0.1,0.7-0.3,1.4-0.4,2.2c-0.1,0.8-0.2,1.7-0.2,2.5c0,0.3,0.1,0.7,0.4,1c1.2,1.4,2.4,2.9,3.6,4.3
					c0.3,0.3,0.4,0.6,0.3,1c-0.3,2-0.6,4.1-1,6.1c-0.2,1.2,0,2.3,0.8,3.2c2.4,3.3,5,6.4,7.9,9.3c2.5,2.5,5.1,4.9,7.6,7.4
					c0.1,0.1,0.2,0.3,0.1,0.5C471.3,367.2,471.2,367.6,471.1,368"/>
				<path class="st13" d="M445.4,368.1c-0.6,3.3-1.2,6.6-1.7,9.9c-0.4,2.4-0.9,4.8-1.3,7.1c-0.2,1.4,1,2.4,2.3,1.8
					c0.5-0.2,1-0.7,1.4-1.1c1.4-1.7,2.1-3.8,2.6-6c0.6-3,1.1-6,1.7-9c0.1-0.8,0.3-1.6,0.4-2.5c0.2,0.3,0.4,0.4,0.5,0.7
					c1,1.6,1.2,3.4,0.9,5.3c-1.1,6.8-3.4,13.2-6.3,19.5c-0.2,0.3-0.4,0.7-0.7,0.9c-1.2,1-2.5,2-3.8,3c-0.7,0.5-1.5,1-2.5,1
					c-0.7,0-1.2-0.3-1.6-0.8c-0.6-0.8-0.8-1.7-0.8-2.6c-0.1-2.1,0.1-4.2,0.4-6.2c0.5-3.3,1.2-6.6,2.2-9.8c1.2-3.6,2.7-6.9,5.1-9.9
					c0.3-0.4,0.7-0.8,1.1-1.2C445.2,368.1,445.3,368.1,445.4,368.1"/>
				<path class="st15" d="M569.4,318.5c-0.5,1.1-1.1,1.9-1.8,2.7c-0.5,0.5-1,1-1.6,1.3c-3.5,2.3-6.2,5.3-8.8,8.5
					c-2.3,2.8-3.7,6-4.7,9.5c-0.5,1.7-1.1,3.4-1.5,5.1c-0.3,1.6-0.4,3.2-0.6,4.9c-0.1,0.5-0.1,1-0.1,1.5c0,0.4-0.2,0.4-0.6,0.5
					c-1.1,0.2-2-0.1-2.8-0.7c-0.4-0.3-0.9-0.5-1.4-0.8c-0.5-0.3-0.8-0.7-0.7-1.3c0.7-4.9,1.6-9.8,3.3-14.5c1.2-3.2,2.8-6,4.9-8.6
					c1.1-1.3,2.4-2.5,3.8-3.4c3.1-1.9,6.3-3.6,9.8-4.4C567.6,318.7,568.4,318.6,569.4,318.5"/>
				<path class="st15" d="M457.5,203.3c-0.1-1.4,0.1-2.8,0.8-4.1c0-0.1,0.3-0.2,0.5-0.1c3.4,0.8,6.9,1.6,10.3,2.4
					c2.4,0.6,4.8,1.1,7.2,1.7c0.2,0,0.3,0.1,0.4,0.1c-0.3,1.5-0.7,2.9-1,4.5c-1-0.2-2.1-0.5-3.2-0.8c-0.5-0.1-1.1-0.2-1.6-0.6
					c-0.3-0.2-0.6,0-0.8,0.3c-0.2,0.4-0.3,0.8-0.4,1.3c-0.3,2.2-0.6,4.4-1,6.6c-0.4,2.9-0.9,5.8-1.4,8.7c-0.5,3.2-1,6.3-1.5,9.5
					c-0.4,2.4-0.7,4.9-1.1,7.3c0,0.2-0.2,0.6-0.4,0.7c-1,0.4-2,0.4-3-0.1c-0.4-0.2-0.6-0.6-0.5-1.1c0.4-2.7,0.8-5.3,1.3-8
					c0.5-2.9,0.9-5.7,1.4-8.6c0.5-3.1,1-6.2,1.5-9.3c0.3-1.8,0.6-3.5,0.8-5.3c0.1-0.8,0-1.7,0-2.5c0-0.5-0.4-0.8-1-0.9
					c-1.6-0.3-3.3-0.7-4.9-1C459,203.6,458.3,203.4,457.5,203.3 M473.5,204.3c0-0.8-0.8-1.6-1.6-1.6c-0.9,0-1.6,0.6-1.6,1.4
					c0,0.9,0.8,1.7,1.7,1.7C472.8,205.8,473.5,205.1,473.5,204.3 M465.4,202.4c0-0.7-0.6-1.3-1.4-1.3c-0.6,0-1.4,0.9-1.4,1.6
					c0,0.7,0.6,1.3,1.3,1.3C464.6,204.1,465.4,203.3,465.4,202.4"/>
				<path class="st12" d="M450.7,318.1c3.5-23.4,7-46.6,10.5-69.9h2.9c-0.1,0.7-0.2,1.3-0.3,1.9c-0.5,3.4-1,6.7-1.5,10.1
					c-0.6,3.7-1.1,7.5-1.7,11.2c-0.5,3.5-1,7-1.5,10.5c-0.5,3.3-1,6.5-1.5,9.8c-0.5,3.1-0.9,6.1-1.3,9.2c-0.5,3.1-0.9,6.1-1.4,9.2
					c-0.3,2.3-0.7,4.7-1,7c0,0.3-0.1,0.5-0.5,0.5C452.6,317.7,451.7,317.9,450.7,318.1"/>
				<path class="st12" d="M457.5,198c-0.8,1.1-1.2,2.4-1.3,3.6c-0.2,1.3-0.1,2.6,0.5,3.9c-1.4-0.3-2.7-0.6-3.9-0.9
					c-7.2-1.7-14.5-3.5-21.7-5.2c-1.4-0.3-2-1.1-2.1-2.5c-0.1-1.8,0.6-3.3,1.5-4.7c0.1-0.1,0.4-0.2,0.6-0.2
					c3.6,0.8,7.1,1.6,10.7,2.4c5.1,1.2,10.2,2.3,15.3,3.5C457.2,197.9,457.3,197.9,457.5,198"/>
				<path class="st13" d="M475.1,362.2c-1.3,0.8-2.4,1.8-3.2,3.2c-0.1-0.1-0.3-0.2-0.4-0.3c-3.5-3.5-7-6.9-10.4-10.5
					c-1.6-1.7-2.9-3.7-4.4-5.5c-0.6-0.8-0.8-1.6-0.6-2.6c0.3-1.8,0.5-3.6,0.7-5.5c0,0,0-0.1,0.1-0.2
					C463,347.9,469.1,355,475.1,362.2"/>
				<path class="st13" d="M494.1,362.6c2.1-0.7,4.2-1.3,6.2-2c0.1,0,0.3,0,0.4,0c3.1,1.3,6.2,1.4,9.4,0.6c4.4-1,8.8-1.9,13.3-2.4
					c2.2-0.3,4.5-0.4,6.7-0.5c2.7-0.1,5.4-0.2,8-0.9c2.7-0.7,5.1-2,6.8-4.2c0.3-0.4,0.6-0.3,1-0.1c0.8,0.4,1.5,0.7,2.3,1
					c0.5,0.1,1.2,0,1.9,0c-0.5,0.4-0.9,0.8-1.4,1.1c-1.2,0.6-2.5,1.2-3.8,1.7c-1.3,0.5-2.7,1-4,1.5c-1.5,0.6-2.7,1.5-3.5,2.9
					c-0.4,0.6-0.8,1.2-1.1,1.8c-0.3,0.5-0.6,0.8-1.1,0.9c-0.3,0-0.5,0.2-0.9,0.3c0.3-1.4,0.5-2.7,0.7-4c0.2-0.9-0.1-1.1-0.9-0.9
					c-1.4,0.3-2.8,0.7-4.1,1c-1.7,0.4-3.5,0.4-5.2,0.3c-0.6,0-1.2,0-1.8,0c-0.3,0-0.6,0.1-0.7,0.5c-0.1,0.4,0.2,0.5,0.5,0.6
					c2.1,0.7,3.7,2,5,3.7c0.2,0.2,0.3,0.5,0.5,0.7c0,0.1-0.1,0.1-0.1,0.1c-0.8,0.4-1.3,0.3-2-0.4c-2.2-2.4-5-3.3-8.2-3.4
					c-3.7-0.1-7.4,0.1-11.1,0.8c-2.5,0.4-5,0.7-7.6,0.5c-1.8-0.1-3.5-0.3-5.2-0.9C494.5,362.7,494.4,362.7,494.1,362.6"/>
				<path class="st15" d="M438,356.1c-0.1-1,0.2-1.9,1.1-2.6c0.7-0.5,1.3-1,2-1.5c1.7,1.6,3.9,1.9,6.1,1.8c0.6,0,1.1-0.2,1.7-0.4
					c0.3-0.1,0.7-0.2,1-0.1c1.7,0.5,2.2,1.6,1.9,3.2c-0.4,1.8-0.8,3.5-1.3,5.3c-1,3.8-1.6,7.6-2.3,11.5c-0.5,2.7-1,5.4-1.6,8
					c-0.3,1.3-0.9,2.4-1.7,3.5c-0.3,0.4-0.6,0.8-1.2,0.8c0.1-0.8,0.2-1.5,0.4-2.2c0.7-3.7,1.4-7.3,2-11c0.4-2.3,0.6-4.7,0.8-7
					c0.2-1.7,0.2-3.4,0.2-5.1c0-0.4-0.1-0.8-0.1-1.1c-0.2-1-0.7-1.8-1.7-2.2c-1.7-0.7-3.5-1.2-5.3-1.2
					C439.4,355.8,438.8,356,438,356.1"/>
				<path class="st15" d="M488.2,367.1c-4.5-0.4-8.8,2.2-9.9,7.2c-0.5,2-0.4,4-0.1,6c0,0.1,0,0.2,0.1,0.3c0,0,0,0.1,0,0.2
					c-0.6-0.5-1.2-0.9-1.7-1.4c-0.6-0.6-1.2-1.2-1.8-1.8c-0.1-0.1-0.2-0.4-0.2-0.6c0-0.7,0.1-1.3,0.1-2c0.1-1.2-0.3-2.3-1.1-3.2
					c-0.6-0.6-0.9-1.3-0.8-2.2c0.1-0.8,0-1.6,0.1-2.3c0.3-1.4,1.3-2.4,2.4-3.3c1.2-0.9,2.6-1.5,4.1-1.6c1.6-0.1,3.2-0.2,4.8-0.1
					c2.5,0.3,4,1.6,4.2,4.5C488.2,366.9,488.2,367,488.2,367.1 M478.4,367.5c0-1.1-0.7-1.9-1.8-2c-0.9-0.1-1.7,0.6-1.9,1.6
					c-0.1,0.6,0.1,1.1,0.3,1.6c0.5,1.1,1.8,1.4,2.7,0.5C478.1,368.7,478.4,368.1,478.4,367.5"/>
				<path class="st13" d="M485.1,377.7c1-0.3,1.9-0.7,2.9-0.9c0.2-0.1,0.5,0,0.7,0c2.7,0.1,5.3-0.2,7.8-1.1c1.1-0.4,2-1,2.6-2
					c0.7-1.2,0.6-2.2-0.5-3c-1-0.7-2-1.3-3.1-1.8c-1.7-0.8-3.5-1.1-5.4-1c-0.1,0-0.2,0-0.4,0v-1.3c0.9,0.3,1.7,0.6,2.6,0.8
					c2,0.5,4.1,0.5,6.1,0.2c3.2-0.4,6.5-0.9,9.7-1.3c2.9-0.4,5.9-0.8,8.8-0.6c1.1,0.1,2.2,0.2,3.3,0.5c1,0.3,1.8,0.9,2.3,2
					c-0.9,0.3-1.7,0.7-2.8,0.4c-3.2-1-6.4-1.1-9.7-0.9c-2.7,0.2-5.4,0.6-8,0.9c-0.4,0-0.7,0.1-1.1,0.2c-0.5,0.2-0.7,0.5-0.4,1
					c0.8,1.6,1,3.3,0.9,5c0,0.4-0.1,0.5-0.5,0.6c-3.8,1.2-7.5,2.5-11.3,3.7c-0.3,0.1-0.5,0.1-0.8-0.1
					C487.8,378.1,486.5,377.8,485.1,377.7"/>
				<path class="st12" d="M502,360.1c0.9-0.3,1.9-0.6,2.8-0.9c1.3-0.4,2.6-0.9,4-1.3c0.1,0,0.3-0.1,0.4-0.1c2.2,0.7,4.4,0.4,6.5-0.3
					c1.1-0.4,2.1-0.8,3.2-1.2c1.5-0.6,3.1-0.9,4.7-0.9c2.9,0,5.9,0,8.8,0.1c3.2,0.1,6.2-0.3,9-2c0.8-0.5,1.5-1.2,2.2-1.7
					c0.2,0.3,0.5,0.6,0.8,0.9c-0.9,1.1-2.2,2.2-3.8,2.9c-2.2,1-4.4,1.4-6.8,1.6c-2.6,0.2-5.1,0.2-7.7,0.4c-2.7,0.3-5.4,0.7-8.1,1.1
					c-3,0.5-5.9,1.2-8.9,1.8C506.7,361,504.3,360.9,502,360.1"/>
				<path class="st12" d="M526.4,366.8c-1,0.3-2,0.7-3,1c-0.7-2-2.3-2.7-4.2-3c-2.7-0.4-5.4-0.3-8.1,0c-3.8,0.5-7.6,1.1-11.4,1.5
					c-2.7,0.3-5.5,0.4-8.2-0.4c-0.4-0.1-0.8-0.3-1.2-0.4c-0.7-0.2-1.1-0.7-1.2-1.4c1.2-0.4,2.4-0.8,3.6-1.1c0.1,0,0.3,0,0.5,0.1
					c1.7,0.8,3.6,1.1,5.4,1.3c3.2,0.3,6.3-0.1,9.5-0.6c3.8-0.6,7.7-0.8,11.6-0.5C522.4,363.5,524.6,364.8,526.4,366.8"/>
				<path class="st12" d="M479.8,381.7c-0.2-0.2-0.4-0.3-0.4-0.5c-0.4-2.2-0.5-4.5,0.1-6.7c0.9-3.5,3.5-5.8,7.1-6.1
					c0.5-0.1,1.1-0.1,1.6-0.1c0,1,0,1.9,0,2.8c-0.1,1.2-0.3,2.4-0.4,3.6c0,0.4-0.2,0.6-0.5,0.7c-1.3,0.4-2.6,0.8-4,1.2
					c-0.8,0.3-1.6,0.6-2.4,0.9c-0.8,0.3-1.3,0.9-1.1,1.8c0.1,0.8,0.1,1.5,0.2,2.3C479.9,381.7,479.9,381.7,479.8,381.7"/>
				<path class="st13" d="M533.2,350.1c-0.5,0.6-0.9,1.2-1.4,1.8c-0.2,0.3-0.5,0.6-0.7,0.9c-0.3,0.5-0.1,1,0.5,1c0.5,0,1,0,1.4-0.1
					c2.8-0.8,5.3-2.1,7.4-4.1c0.6-0.6,1-1.3,1.6-1.9c0.2-0.2,0.4-0.4,0.7-0.5c0.3-0.2,0.7-0.2,1.2-0.4c-0.1,0.6-0.2,1-0.3,1.5
					c-0.1,0.7-0.3,1.4-0.4,2.2c-0.1,0.2-0.2,0.5-0.3,0.7c-1.3,1.6-3.1,2.4-5,3c-1.6,0.5-3.3,0.6-5,0.5c-2.4-0.1-4.9-0.1-7.3-0.1
					c-3,0-5.9,0.5-8.6,1.7c-1.9,0.9-4,1.4-6.2,1.1C518.2,354.9,525.6,352.5,533.2,350.1C533.1,350.1,533.1,350.1,533.2,350.1"/>
				<path class="st12" d="M537.3,363.2c1.1-2.2,2.6-3.8,5-4.5c2-0.6,3.9-1.4,5.8-2.2c1.4-0.6,2.5-1.5,3.4-2.7
					c0.1-0.1,0.2-0.2,0.3-0.3c1.1-0.6,2.2-1.1,3.4-1.6c-0.3,1.8-1,3.4-2.5,4.5c-1.5,1.1-3,2.2-4.5,3.2c-0.6,0.4-1.3,0.5-1.9,0.7
					C543.3,361.2,540.3,362.2,537.3,363.2"/>
				<path class="st12" d="M519.2,369.2c-1.1,0.4-2.2,0.7-3.3,1.1c-2.4,0.8-2.4,0.7-4.9,0.5c-2-0.1-4,0-6,0c-0.5,0-0.7,0.4-0.5,0.9
					c0.2,0.6,0.4,1.1,0.6,1.7c0,0.1-0.1,0.4-0.2,0.4c-0.9,0.3-1.8,0.6-2.8,0.9c0.3-1.9,0.1-3.7-0.8-5.5
					C507.3,368.6,513.2,367.7,519.2,369.2"/>
				<path class="st13" d="M447.7,317.8c2.1,1.1,3.1,1.1,6,0.6c-0.1,0.5-0.1,1-0.2,1.5c-0.2,1.4-0.4,2.7-0.6,4.1
					c0,0.2-0.3,0.5-0.5,0.6c-0.8,0.4-1.6,0.3-2.4,0.3c-0.9-0.1-1.8-0.3-2.6-0.7c-0.3-0.2-0.5-0.4-0.5-0.8
					C447.2,321.4,447.4,319.6,447.7,317.8"/>
				<path class="st12" d="M559.3,352.5c0-0.6,0-1.1,0.1-1.7c0.1-0.6,0.2-1.1,0.4-1.7c0.3-1,0.7-1.9,1.5-2.7c2.4-2.4,4.8-4.8,7.2-7.2
					c0.5-0.5,0.9-0.6,1.5-0.4c0.2,0.1,0.6,0.3,0.6,0.5c0.1,0.3,0,0.7-0.4,0.9c-0.2,0.1-0.3,0.3-0.5,0.4c-3.3,3.8-6.6,7.7-10,11.5
					c-0.1,0.1-0.2,0.2-0.3,0.3C559.4,352.5,559.3,352.5,559.3,352.5"/>
				<path class="st12" d="M489.8,368.6c3-0.1,5.7,0.7,8.1,2.4c1,0.7,1.1,1.4,0.2,2.4c-0.4,0.4-0.8,0.8-1.3,1.1
					c-2.4,1.2-5,1.5-7.8,1.5c0.1-0.5,0.2-0.9,0.3-1.2c1,0,2,0,2.9,0c0.9-0.1,1.7-0.4,2.4-0.9c0.8-0.7,0.8-1.5-0.2-2.1
					c-0.9-0.5-2-0.7-3-0.8c-0.5-0.1-1.1,0-1.7,0V368.6z"/>
				<path class="st12" d="M452.9,238.6c0.3-0.4,0.5-0.8,0.8-1.1c0.1-0.1,0.3-0.1,0.5-0.1c1.2,0.3,2.5,0.6,3.7,1
					c0.1,0,0.1,0.1,0.2,0.1c0.8,0.1,1.3,0.3,1.3,1.3c0,1.1,1.3,2.1,2.6,2.3c1.2,0.2,2.3,0.1,3.3-0.5c0.3-0.2,0.6-0.4,0.9-0.5
					c0-0.1,0-0.2,0-0.2c2.3,0.7,4.5,1.5,6.8,2.2c0,0.1,0,0.1,0,0.2c-0.3,0.3-0.6,0.6-0.9,0.9c-0.1,0.1-0.4,0.1-0.5,0
					c-0.3-0.1-0.6-0.3-0.9-0.4c-1.2-0.4-2.4-0.8-3.7-1.2c-0.5-0.1-0.9,0.1-1.2,0.4c-0.5,0.5-1.2,0.8-1.9,0.7
					c-1.1-0.1-2.1-0.1-3.2-0.2c-0.3,0-0.6-0.2-0.9-0.3c-1-0.5-1.1-0.8-1-1.9c0.1-0.6-0.1-0.9-0.8-1.2c-1.1-0.4-2.1-0.7-3.2-1
					C454.1,238.9,453.5,238.8,452.9,238.6"/>
				<path class="st13" d="M457.2,241.1c0,0.3,0.1,0.6,0.1,0.9c0,0.8,0.4,1.3,1,1.8c0.9,0.7,2,1.1,3.1,1.1c1,0.1,2,0,3-0.1
					c0.7,0,1.3-0.4,1.9-0.9c0.3-0.3,0.9-0.3,1.3,0c0.3,0.2,0.3,0.5,0.2,0.8c-0.1,0.6-0.4,1.1-1,1.3c-0.8,0.3-1.6,0.6-2.4,0.6
					c-2,0.1-4.1,0.1-6.1-0.6c-0.9-0.3-1.8-0.8-2.4-1.6c-0.5-0.6-0.7-1.3-0.6-2.1C455.5,241.6,456.1,241.1,457.2,241.1"/>
				<path class="st12" d="M493.9,379.2c0.8-0.3,1.6-0.5,2.5-0.8c0.1,0.6,0.2,1.2,0.2,1.8c0.3,2.3,1.2,4.4,2.2,6.4
					c0.6,1.3,1.3,2.6,1.9,3.9c0.1,0.3,0.3,0.6,0.4,1c-0.3-0.1-0.5-0.1-0.7-0.1c-0.8-0.3-1.4-0.8-1.7-1.5c-0.7-1.4-1.3-2.7-1.9-4.1
					c-0.9-2.1-1.8-4.2-2.8-6.2C494,379.4,494,379.4,493.9,379.2"/>
				<path class="st14" d="M508.2,218c-0.6-0.6-0.6-1.3-0.7-2c-0.2-1.6,0-3.2,0.6-4.8c0.3-0.7,0.6-1.4,1.3-1.8
					c0.6-0.3,1.1-0.2,1.2,0.4c0.1,0.6,0.2,1.3,0.2,1.9c-0.1,2.1-0.8,4-2,5.7C508.6,217.6,508.4,217.8,508.2,218"/>
				<path class="st12" d="M532.5,364.8c-0.1-0.7-0.1-1.3-0.1-1.9c-0.1-0.8-0.4-1-1.1-0.8c-0.4,0.1-0.9,0.3-1.3,0.5
					c-0.5,0.3-0.6,0.6-0.3,1.2c0.3,0.6,0.6,1.2,0.9,1.8c-0.4,0.1-0.7,0.2-1.1,0.4c-1.1-1.9-2.6-3.3-4.4-4.4c3.3,0.3,6.3-0.5,9.5-1.4
					c-0.1,0.8-0.3,1.4-0.4,2.1c-0.1,0.6-0.2,1.3-0.3,1.9c0,0.2-0.2,0.4-0.3,0.4C533.2,364.6,532.8,364.7,532.5,364.8"/>
				<path class="st13" d="M558.9,348.8c-0.1,0.6-0.3,1.2-0.3,1.8c0,0.8,0,1.6,0,2.4c0,0.2-0.1,0.5-0.2,0.7c-0.9,1.1-1.8,2.2-2.8,3.2
					c-0.1,0.1-0.2,0.2-0.4,0.3c-1.2,0.4-2.5,0.8-3.7,1.2c0,0-0.1,0-0.2,0c0.5-0.4,1-0.7,1.4-1c2.1-1.4,3.1-3.5,3.3-5.9
					c0-0.2,0-0.4,0.1-0.5C557.1,350.3,558,349.6,558.9,348.8"/>
				<path class="st12" d="M445.5,323.4c0,0.7,0.4,1.3,0.9,1.6c2,1.4,4.3,1.7,6.6,0.9c0.5-0.2,0.9-0.6,1.3-1c0.2,0.5-0.1,1.7-0.9,2.1
					c-0.6,0.4-1.2,0.7-1.9,0.8c-1.8,0.2-3.5,0.1-5.2-0.7c-0.6-0.3-1.1-0.6-1.5-1.1C444,325.3,444.4,323.9,445.5,323.4"/>
				<path class="st14" d="M453.5,293.7c-0.6-1-1.1-1.9-1.6-2.8c-0.1-0.3,0-0.8,0.1-1.2c0.3-1.8,0.6-3.7,0.8-5.5
					c0-0.1,0.1-0.2,0.1-0.4c0.4,0.6,0.7,1.3,1.1,1.8c0.5,0.7,0.6,1.4,0.4,2.2c-0.3,1.9-0.6,3.8-0.9,5.6
					C453.6,293.5,453.6,293.6,453.5,293.7"/>
				<path class="st14" d="M455.2,269.6c0.5,0.9,1.1,1.7,1.5,2.5c0.1,0.3,0,0.6,0,1c-0.3,1.9-0.6,3.8-0.8,5.7c0,0.1-0.1,0.3-0.1,0.5
					c-0.6-0.9-1.2-1.7-1.6-2.6c-0.2-0.4,0-0.9,0.1-1.4c0.3-1.8,0.5-3.5,0.8-5.3C455.1,269.8,455.1,269.7,455.2,269.6"/>
				<path class="st12" d="M540.8,347.7c-2.3,2.8-5.3,4.3-8.6,5.3c0,0-0.1-0.1-0.1-0.1c0.1-0.1,0.1-0.2,0.2-0.3
					c0.6-0.9,1.2-1.8,1.9-2.7c0.1-0.1,0.2-0.3,0.4-0.3c2-0.7,4.1-1.3,6.1-2C540.6,347.6,540.7,347.7,540.8,347.7"/>
				<path class="st13" d="M451.8,291.8c0.6,1,1.1,1.9,1.6,2.8c0.1,0.2,0,0.4,0,0.6c-0.3,1.8-0.5,3.6-0.8,5.6c-0.3-0.5-0.5-1-0.8-1.3
					c-0.8-1-1-2.1-0.7-3.4c0.3-1.3,0.4-2.6,0.6-4C451.7,292,451.7,292,451.8,291.8"/>
				<path class="st14" d="M450.6,298.8c0.6,1,1.2,1.8,1.6,2.7c0.1,0.3,0,0.7,0,1.1c-0.2,1.6-0.5,3.2-0.7,5c-0.6-1.1-1.2-2.1-1.6-3.1
					c-0.1-0.3,0-0.7,0.1-1C450.1,301.9,450.4,300.4,450.6,298.8"/>
				<path class="st13" d="M458.2,249.9c0.5,0.8,1,1.6,1.4,2.4c0.1,0.1,0.1,0.3,0.1,0.4c-0.3,1.9-0.5,3.8-0.8,5.8
					c-0.6-0.9-1.1-1.7-1.6-2.5c-0.1-0.1-0.1-0.3,0-0.4c0.3-1.8,0.6-3.7,0.8-5.5C458.1,250,458.1,250,458.2,249.9"/>
				<path class="st13" d="M456.9,271.3c-0.6-0.9-1.1-1.7-1.6-2.5c0-0.1-0.1-0.2-0.1-0.2c0.3-1.8,0.6-3.6,0.9-5.4c0,0,0-0.1,0.1-0.1
					c0.5,0.8,1,1.6,1.5,2.5c0.1,0.1,0.1,0.3,0,0.5C457.5,267.6,457.2,269.4,456.9,271.3"/>
				<path class="st13" d="M453.9,277.5c0.5,0.8,1.1,1.6,1.6,2.4c0,0.1,0.1,0.2,0.1,0.3c-0.3,1.8-0.5,3.5-0.9,5.3
					c-0.2-0.4-0.4-0.8-0.7-1.2c-0.8-1-1-2.1-0.7-3.3c0.3-1.1,0.4-2.2,0.5-3.3C453.9,277.7,453.9,277.6,453.9,277.5"/>
				<path class="st13" d="M450.6,313.3c-0.6-1-1.1-1.9-1.6-2.9c-0.1-0.1-0.1-0.3,0-0.4c0.2-1.5,0.5-3.1,0.7-4.8
					c0.6,1.2,1.1,2.2,1.6,3.2c0.1,0.2,0,0.6-0.1,0.9c-0.2,1.2-0.3,2.4-0.5,3.6C450.7,313.1,450.6,313.2,450.6,313.3"/>
				<path class="st14" d="M448.7,311.2c0.6,1,1.1,1.9,1.7,2.9c0.1,0.1,0.1,0.2,0.1,0.3c-0.2,1.1-0.3,2.2-0.5,3.5
					c-0.7-0.3-1.3-0.5-2-0.8c-0.1,0-0.1-0.2-0.1-0.3C448.1,315,448.4,313.2,448.7,311.2"/>
				<path class="st14" d="M457.9,264.6c-0.6-0.9-1.1-1.7-1.5-2.5c-0.2-0.3,0-0.8,0-1.2c0.2-1.2,0.4-2.4,0.5-3.6
					c0-0.1,0.1-0.3,0.1-0.4c0.5,0.8,1.1,1.6,1.5,2.4c0.2,0.3,0,0.8-0.1,1.2C458.3,261.8,458.1,263.1,457.9,264.6"/>
				<path class="st12" d="M488.2,379.5c-1.1,0.4-2,0.7-3,1c-0.1,0-0.3,0-0.4,0c-1-0.1-2-0.3-3-0.4c-0.2,0-0.5,0-0.5-0.3
					c0-0.3-0.2-0.7,0.2-0.9c0.5-0.2,0.9-0.6,1.5-0.3c0.1,0.1,0.3,0,0.5-0.1C484.9,378.3,486.8,378.7,488.2,379.5"/>
				<path class="st12" d="M478.5,355.5c-0.3,1.9-1.2,3.7-1.1,5.6c-1,0.4-1,0.4-1.2-0.6c-0.1-0.7-0.3-1.4-0.4-2.1
					C475.6,357,476.8,355.5,478.5,355.5"/>
				<path class="st13" d="M489.4,374c0.1-0.9,0.2-1.6,0.2-2.4c0.9,0.1,1.7,0.2,2.6,0.3c0.6,0.1,1.1,0.3,1.6,0.4
					c0.2,0.1,0.5,0.3,0.5,0.5c0,0.2-0.2,0.5-0.4,0.5c-0.6,0.3-1.2,0.6-1.9,0.6C491.2,374.1,490.3,374,489.4,374"/>
				<path class="st13" d="M505.6,371.7h5.7c0,0,0,0.1,0,0.1c-1.8,0.6-3.5,1.2-5.3,1.7C505.9,372.9,505.8,372.3,505.6,371.7"/>
				<path class="st12" d="M452.5,368.5c-0.5-0.5-0.9-1-1.3-1.6c-0.1-0.1-0.2-0.3-0.2-0.5c0.3-1.3,0.6-2.6,1-3.9
					C452.5,364.5,452.6,366.5,452.5,368.5"/>
				<path class="st14" d="M459.9,251.6c-0.6-0.9-1.1-1.6-1.5-2.3c-0.2-0.4,0-1,0-1.5c0.7,0.1,1.3,0.2,2,0.4
					C460.2,249.2,460.1,250.3,459.9,251.6"/>
				<path class="st13" d="M530.2,363.2c0.5-0.2,0.9-0.3,1.4-0.5c0,0.8,0.1,1.4,0.1,2.1c0,0.2-0.3,0.3-0.5,0.6
					C530.8,364.6,530.5,363.9,530.2,363.2"/>
				<path class="st13" d="M481.5,381.8c0-0.4-0.1-0.7-0.1-1.1c0.8,0.1,1.5,0.2,2.2,0.3c0,0,0,0.1,0,0.1
					C482.9,381.3,482.2,381.5,481.5,381.8"/>
				<path class="st12" d="M458.9,205c-0.2,0.2-0.3,0.4-0.5,0.7c-0.2-0.3-0.4-0.5-0.6-0.8c0,0,0-0.1,0.1-0.1
					C458.2,204.8,458.5,204.9,458.9,205"/>
				<path class="st11" d="M473.5,204.3c0,0.8-0.7,1.5-1.5,1.5c-0.9,0-1.7-0.8-1.7-1.7c0-0.8,0.7-1.4,1.6-1.4
					C472.7,202.7,473.5,203.5,473.5,204.3 M472.6,204.3c0-0.3-0.4-0.8-0.7-0.7c-0.3,0.1-0.7,0.2-0.8,0.5c-0.2,0.3,0.4,0.9,0.9,0.8
					C472.3,204.9,472.5,204.7,472.6,204.3"/>
				<path class="st11" d="M465.4,202.4c0,0.9-0.7,1.7-1.5,1.7c-0.7,0-1.3-0.6-1.3-1.3c0-0.7,0.7-1.6,1.4-1.6
					C464.7,201.1,465.3,201.7,465.4,202.4 M464.5,202.4c-0.1-0.1-0.3-0.3-0.4-0.3c-0.3,0.1-0.6,0.2-0.7,0.4
					c-0.1,0.3,0.1,0.6,0.5,0.7C464.1,203.3,464.4,202.9,464.5,202.4"/>
				<path class="st11" d="M478.4,367.5c0,0.7-0.2,1.2-0.7,1.7c-0.9,0.9-2.2,0.6-2.7-0.5c-0.2-0.5-0.4-1-0.3-1.6
					c0.2-0.9,1.1-1.6,1.9-1.6C477.7,365.6,478.4,366.4,478.4,367.5 M477.4,367.5c0-0.6-0.4-1.1-0.9-1c-0.5,0-0.9,0.5-0.9,1.1
					c0,0.7,0.4,1.2,0.9,1.2C476.9,368.8,477.4,368.2,477.4,367.5"/>
				<path class="st12" d="M472.6,204.3c0,0.4-0.3,0.6-0.7,0.6c-0.4,0-1-0.5-0.9-0.8c0.1-0.2,0.5-0.4,0.8-0.5
					C472.2,203.5,472.6,204,472.6,204.3"/>
				<path class="st12" d="M464.5,202.4c-0.1,0.6-0.4,0.9-0.7,0.8c-0.4-0.1-0.6-0.4-0.5-0.7c0.1-0.2,0.5-0.4,0.7-0.4
					C464.2,202,464.4,202.3,464.5,202.4"/>
				<path class="st12" d="M477.4,367.5c0,0.7-0.5,1.3-1,1.3c-0.5,0-0.9-0.5-0.9-1.2c0-0.6,0.4-1.1,0.9-1.1
					C477,366.4,477.4,366.9,477.4,367.5"/>
			</g>
		</g>
	</g>
</g>
<g id="Q2">
	<g>
		<path class="st16" d="M464.4,100.1c1.1-2.6,2.5-4.7,4.2-6.5c1.6-1.8,3.8-3.9,6.5-6.3c3.4-2.9,5.8-5.5,7.4-7.6
			c1.6-2.1,2.4-4.7,2.4-7.8c0-4.1-1.6-7.4-4.8-9.9c-3.2-2.5-7.6-3.7-13.3-3.7c-9.8,0-17.4,3.3-22.6,10l-9.2-6.6
			c3.5-4.5,8.1-8,13.6-10.5c5.5-2.4,11.9-3.7,19.1-3.7c9.2,0,16.5,2,21.8,6c5.4,4,8.1,9.5,8.1,16.5c0,3.5-0.6,6.5-1.7,9.2
			c-1.1,2.7-2.5,4.9-4.1,6.6c-1.6,1.8-3.7,3.9-6.4,6.3c-3.5,3.1-6,5.9-7.6,8.2c-1.6,2.4-2.5,5.3-2.5,8.7h-12.6
			C462.7,105.6,463.3,102.6,464.4,100.1z M463.3,135.3c-1.6-1.6-2.3-3.5-2.3-5.7c0-2.3,0.8-4.2,2.3-5.7c1.6-1.6,3.5-2.3,5.9-2.3
			c2.4,0,4.3,0.8,5.8,2.3c1.5,1.6,2.3,3.5,2.3,5.7c0,2.3-0.8,4.2-2.3,5.7c-1.6,1.6-3.5,2.3-5.7,2.3
			C466.8,137.6,464.8,136.9,463.3,135.3z"/>
	</g>
</g>
<g id="Q1">
	<g>
		<path class="st16" d="M136.1,108.2c1.1-2.6,2.5-4.7,4.2-6.5c1.6-1.8,3.8-3.9,6.5-6.3c3.4-2.9,5.8-5.5,7.4-7.6
			c1.6-2.1,2.4-4.7,2.4-7.8c0-4.1-1.6-7.4-4.8-9.9c-3.2-2.5-7.6-3.7-13.3-3.7c-9.8,0-17.4,3.3-22.6,10l-9.2-6.6
			c3.5-4.5,8.1-8,13.6-10.5c5.5-2.4,11.9-3.7,19.1-3.7c9.2,0,16.5,2,21.8,6c5.4,4,8.1,9.5,8.1,16.5c0,3.5-0.6,6.5-1.7,9.2
			c-1.1,2.7-2.5,4.9-4.1,6.6c-1.6,1.8-3.7,3.9-6.4,6.3c-3.5,3.1-6,5.9-7.6,8.2c-1.6,2.4-2.5,5.3-2.5,8.7h-12.6
			C134.4,113.7,134.9,110.7,136.1,108.2z M134.9,143.4c-1.6-1.6-2.3-3.5-2.3-5.7c0-2.3,0.8-4.2,2.3-5.7c1.6-1.6,3.5-2.3,5.9-2.3
			c2.4,0,4.3,0.8,5.8,2.3c1.5,1.6,2.3,3.5,2.3,5.7c0,2.3-0.8,4.2-2.3,5.7c-1.6,1.6-3.5,2.3-5.7,2.3
			C138.4,145.7,136.5,144.9,134.9,143.4z"/>
	</g>
</g>
</svg>
