<?xml version="1.0" encoding="utf-8"?>
<!-- Generator: Adobe Illustrator 22.1.0, SVG Export Plug-In . SVG Version: 6.00 Build 0)  -->
<svg version="1.1" id="Слой_3" xmlns="http://www.w3.org/2000/svg" xmlns:xlink="http://www.w3.org/1999/xlink" x="0px" y="0px"
	 viewBox="0 0 690 500" style="enable-background:new 0 0 690 500;" xml:space="preserve">
<style type="text/css">
	.st0{clip-path:url(#SVGID_2_);}
	.st1{clip-path:url(#SVGID_4_);}
	.st2{clip-path:url(#SVGID_4_);fill:#84004F;}
	.st3{clip-path:url(#SVGID_4_);fill:#435A2C;}
	.st4{clip-path:url(#SVGID_4_);fill:#420000;}
	.st5{clip-path:url(#SVGID_4_);fill:#8B3216;}
	.st6{clip-path:url(#SVGID_4_);fill:#F3A000;}
	.st7{clip-path:url(#SVGID_4_);fill:#FFFFFF;}
	.st8{clip-path:url(#SVGID_4_);fill:#1E4411;}
	.st9{fill:#CCCCCC;stroke:#FFFFFF;stroke-width:0.5;}
	.st10{fill:#FF0000;stroke:#FFFFFF;stroke-width:0.5;}
</style>
<g>
	<g>
		<defs>
			<rect id="SVGID_1_" x="22" y="33" width="296.1" height="412"/>
		</defs>
		<clipPath id="SVGID_2_">
			<use xlink:href="#SVGID_1_"  style="overflow:visible;"/>
		</clipPath>
		<g class="st0">
			<defs>
				<rect id="SVGID_3_" x="22" y="33" width="296.1" height="412"/>
			</defs>
			<clipPath id="SVGID_4_">
				<use xlink:href="#SVGID_3_"  style="overflow:visible;"/>
			</clipPath>
			<path class="st1" d="M203.9,247.8c0.1,1.6,0.2,3.1,0.4,4.6c0.6,4,1.2,8,1.8,12c0.6,4.1,1.2,8.2,1.9,12.2c1.4,8.4,3.4,16.8,5.7,25
				c0.6,2.2,1.2,4.4,1.8,6.6c0.3,1,0.3,2,0.1,3c-0.2,0.7-0.1,1.5-0.1,2.2c0,0.9-0.2,1.3-1.1,1.6c-0.6,0.2-0.8,0.5-0.9,1.1
				c-0.5,3.5-1.2,7.1-1.7,10.6c-0.5,3.7-0.9,7.4-1.3,11.1c-0.8,6.9-1.6,13.9-2.4,20.8c-1.1,10.5-1.8,21.1-1.6,31.7
				c0,0.9,0.1,1.7,0.1,2.6c0,0.2,0.2,0.5,0.4,0.6c1,0.4,1.6,1.1,1.9,2.1c0.3,1.1,0.6,2.2,0.7,3.3c0.2,1.4,0.9,2.3,2.2,3
				c2.4,1.3,5,2,7.6,2.6c3.6,0.8,7.3,1.6,10.9,2.5c1.6,0.4,3.1,1,4.6,1.7c1.5,0.7,2.1,2,1.7,3.6c-0.6,2.5-2.1,4.3-4.5,5.3
				c-2.1,0.9-4.3,1.1-6.5,1.4c-5.6,0.7-11.2,0.5-16.8,0.2c-3.9-0.2-7.7-0.4-11.6-0.5c-1.8,0-2.8-0.9-3.5-2.4c-1-2.2-1.2-4.5-0.6-6.9
				c0.3-1,0.5-2,0.8-3.1c0.1-0.4,0.1-0.8,0.6-1c0.2-0.1,0.3-0.8,0.3-1.2c-0.6-2.8-1.4-5.6-2-8.4c-2.4-10.8-4.3-21.7-5.6-32.6
				c-0.5-4.2-0.9-8.3-1.1-12.5c-0.1-2,0.2-4.1,0.5-6.1c0.4-3.8,0.9-7.6,1.4-11.4c0.3-2.2,0.7-4.5,1.7-6.5c0.1-0.1,0.1-0.3,0.1-0.4
				c-0.1-1.7-0.2-3.4-0.2-5.1c0-0.5-0.2-0.7-0.7-0.6c-0.3,0.1-0.6,0.1-1,0.1c-1,0-1.5-0.4-1.6-1.4c-0.2-3.4-0.9-6.7-1.9-9.9
				c-1.2-3.8-2.5-7.6-3.2-11.5c-0.7-3.4-1.3-6.7-2.1-10.1c-0.4-2-1.1-4-1.5-6c-0.3-1.6-0.5-3.3-0.7-5c-0.1-1.1-0.2-2.3-0.4-3.4
				c0-0.3-0.2-0.7-0.4-1c-0.1,0-0.1,0-0.2,0c-0.4,1.6-0.8,3.2-1.1,4.7c-1.5,8.3-2.9,16.6-4.5,24.9c-1.3,6.6-2.8,13.2-4.2,19.8
				c-0.1,0.4-0.1,0.8-0.2,1.1c-0.2,0.9-0.5,1.2-1.5,1.2c-0.7,0-1.4,0-2.2,0c0,0.2,0,0.4,0,0.7c0.6,10.8,0.7,21.6,0.6,32.4
				c0,7-0.6,14-1.1,20.9c-0.4,5-1,10.1-0.7,15.2c0.1,1.5,0.4,2.9,0.6,4.4c0.2,1.2,0.4,2.5,0.6,3.7c0.4,1.7,0.8,3.3,1.3,5
				c1.3,4.3,2.2,8.6,2.2,13.1c0,1.5-0.3,1.8-1.7,2.3c-2.8,0.9-5.8,1.2-8.8,1.3c-4.4,0.2-8.7,0.1-13-0.6c-1.3-0.2-2.7-0.6-3.8-1.4
				c-0.5-0.4-0.9-0.9-1.3-1.4c-0.5-0.7-0.5-1.5,0-2.3c4.6-6.9,7.8-14.4,9.7-22.4c0.3-1.2,0.8-2.3,1.2-3.5c0.1-0.3,0.1-0.6,0-0.8
				c-0.6-3.1-1-6.2-1.7-9.3c-1.3-6.2-2.9-12.3-4.1-18.5c-2.5-12.7-3.3-25.5-2.2-38.4c0-0.1,0-0.2,0-0.4c-1.4-0.2-2.9-0.4-4.3-0.6
				c-0.1,0-0.3,0-0.4-0.1c-1-0.2-1.3-0.7-0.9-1.6c0.8-1.7,1.4-3.5,1.9-5.4c0.9-3.6,1.2-7.2,1.2-10.9c0-9.7-0.3-19.4-0.3-29.1
				c0-7.3,0.2-14.5,0.4-21.7c0.1-2.3,0.4-4.6,0.7-6.9c0.1-0.6,0-1.1-0.3-1.6c-1.2-1.7-2.3-3.4-3.5-5.1c-5.3-7-10.6-13.8-15.9-20.8
				c-3.2-4.3-6.4-8.7-9.5-13.2c-1.8-2.6-3.2-5.4-4.8-8.2c-0.1-0.1-0.1-0.3-0.2-0.4c-1.2-1.2-1-2.7-0.6-4.1c0.2-0.9,0.7-1.7,1.2-2.5
				c1.4-2.1,2.6-4.2,3.7-6.5c1.3-2.7,2.9-5.2,4.5-7.6c6.1-9.1,11.4-18.6,16-28.5c1.4-3.1,2.7-6.3,4.2-9.5c0.8-1.8,1.8-3.5,2.8-5.2
				c1.5-2.5,3.9-3.5,6.7-3.9c2.8-0.3,5.5,0.1,8,1.2c2,0.9,4,1.1,6.1,0.7c2.6-0.4,4.2-2,5.2-4.4c0.8-1.9,0.8-4,0.9-6
				c-0.1,0-0.2,0-0.2,0c-1.8,1.8-3.9,1.9-6.2,1.5c-2.4-0.4-4.1-1.6-5.1-3.9c-0.5-1.2-0.8-1.3-2.1-0.8c-1.4,0.5-2.8,1.2-4.2,1.6
				c-3.8,1-6.8-0.9-7.6-5c-0.3-1.4-0.2-2.8-0.4-4.3c-0.5,0-1.1,0-1.7,0.1c-2.4,0.2-3.3-0.8-3.1-3.2c0-0.4,0.1-0.7,0.1-1.1
				c-0.3,0-0.5-0.1-0.7-0.1c-1.6-0.2-2.5-1.1-2.8-2.7c-0.3-1.9,0.2-3.5,1.5-4.9c0.7-0.7,1.5-1.4,2.4-2.3c-0.2-0.1-0.5-0.2-0.7-0.4
				c-0.6-0.7-1.3-1.5-1.7-2.3c-0.6-1.1-0.6-2.2,0-3.4c0.1-0.2,0.1-0.6,0-0.8c-0.8-1.9-1.4-3.9-1.5-6c-0.2-4,2.1-6.6,6.1-6.9
				c1-0.1,1-0.1,1-1.1c-0.1-2.2,0.3-4.3,1.6-6.2c1-1.4,2.3-2.2,3.9-2.4c0.2,0,0.4,0,0.6-0.1c0,0,0,0,0.1-0.1c0.4-3.9,2.7-6.5,6-8.2
				c3.4-1.8,6.8-1.7,10,0.6c0.1-0.2,0.2-0.3,0.2-0.5c0.5-1.8,1.7-3.1,3.4-3.7c1-0.4,2.1-0.7,3.2-0.9c1.4-0.3,2.6,0.4,3.7,1.2
				c0.2,0.1,0.6,0.3,0.8,0.2c1.8-1.3,3.8-1.4,5.9-1.1c3.4,0.5,6.3,1.9,8.2,4.9c0.4,0.7,0.7,1.4,1.1,2.2c0.3-0.1,0.6-0.1,0.9-0.2
				c2-0.5,3.1,0,3.7,1.9c0.5,1.4,0.7,2.9,1.1,4.3c0.4,0,0.8-0.1,1.3-0.1c2.7-0.1,5,0.9,6.9,2.7c1.4,1.3,1.8,2.8,1.3,4.7
				c0,0.2-0.1,0.3-0.1,0.6c0.4,0.1,0.8,0.2,1.2,0.2c3.9,0.8,5.6,4.5,3.8,8c-0.5,1-1.3,2-2,3c1.8,1.4,2.3,3.3,1.9,5.6
				c-0.5,2.2-1.6,3.9-3.8,4.8c0.3,0.6,0.7,1.1,0.9,1.7c1.3,2.7,1.5,5.3-0.1,8c-1.1,1.8-2.7,2.9-4.9,3.1c-0.2,0-0.4,0.1-0.7,0.1
				c0.1,3-0.9,5.1-4.1,5.7c-0.3,1.4-1.1,2.5-2.3,3.3c-1.4,1-2.9,1.2-4.5,0.3c-0.2-0.1-0.5,0-0.7,0.1c-0.4,0.3-0.8,0.7-1.2,0.9
				c-0.8,0.4-1.7,0.6-2.5,0.8c0-0.1-0.1-0.1-0.1-0.2c0,0.1-0.1,0.2,0,0.3c0.4,2.4,1.2,4.7,2.8,6.6c1.3,1.6,2.9,2.4,5,2.2
				c1.6-0.1,3.2-0.3,4.7-0.5c1.9-0.3,3.5,0.3,4.9,1.5c0.4,0.3,0.7,0.7,0.6,1.3c0,0.1,0.1,0.3,0.2,0.5c3.3,4.9,5.8,10.3,8.6,15.5
				c3.5,6.5,6.9,13.1,10.4,19.6c1.7,3.1,3.6,6,5.3,9c1,1.8,2.1,3.6,3,5.5c0.8,1.7,1.1,3.6,1.9,5.2c1.6,3.2,1.2,6.3,0.3,9.5
				c-2.2,7.8-5.1,15.3-8.9,22.5c-4.1,7.6-8.2,15.1-12.3,22.7c-0.6,1.1-1.3,2.1-1.9,3.1c-0.2,0.3-0.4,0.5-0.4,0.8
				C205,247.5,204.6,247.8,203.9,247.8 M190.3,132.3c-0.9-0.1-0.9-0.1-0.9,0.8c0,0.8,0,1.7-0.1,2.5c-0.6,3.5-1.2,6.9-1.9,10.4
				c-0.7,3.3-2.1,6.1-4.4,8.6c-3.9,4.1-12.4,5.6-16.8-1.1c-1.4-2.1-2.8-4.2-4.1-6.4c-2.3-3.8-4-7.8-5.3-12c-0.1-0.2-0.3-0.5-0.5-0.5
				c-0.6,0-1.2,0-1.8,0.1c0,0.2,0.1,0.4,0.1,0.6c0.2,1.5,0.5,3,0.7,4.4c0.8,7.7,0.8,15.5,0.4,23.3c-0.2,3.5-0.8,6.9-2.2,10.1
				c-1.3,2.9-3,5.6-5.4,7.6c-1.6,1.3-3.4,2.1-5.4,2.5c0,0.2,0,0.4,0,0.6c1.5,8.6,2.9,17.3,4.4,25.9c0.8,4.7,1.7,9.4,2.6,14.2
				c0.5,3.2,0.5,6.3-1.9,8.8c0,0,0,0,0,0.1c-0.5,0.8-0.6,1.6,0,2.3c0.3,0.5,0.6,0.9,1,1.4c1.5,1.8,3.5,2.8,5.7,3.6
				c9.6,3.3,19.5,5,29.7,4.7c3-0.1,5.8-0.7,8.6-1.7c1.3-0.5,2.7-0.9,4-1.5c1.2-0.5,2.4-1.3,3.5-1.9c0.4-0.2,0.5-0.7,0.5-1.2
				c-0.2-1.8-0.4-3.7-1.6-5.2c-0.2-0.3-0.3-0.6-0.5-0.9c-0.9-1.9-1-3.8-0.1-5.7c0.4-0.7,0.7-1.5,1.1-2.2c0.4-0.7,0.3-1.3-0.1-2
				c-1.1-1.7-1.7-3.5-1.9-5.5c-0.1-2-0.3-3.9-0.4-5.9c-0.2-3.7-0.5-7.4-0.7-11c-0.2-3.4-0.5-6.8-0.7-10.2c-0.3-4.1-0.6-8.2-0.8-12.3
				c-0.3-3.9-0.6-7.7-0.7-11.6c-0.1-3.3,0.1-6.5,0.1-9.8c0-0.8-0.1-1.6-0.2-2.4c-1-5.7-2.1-11.4-3.1-17.1
				C190.6,135.2,190.5,133.8,190.3,132.3 M193.8,244.4c-1.5,0.5-2.9,0.9-4.3,1.4c-0.2,0.1-0.3,0.4-0.4,0.6c-0.1,2.6-0.2,5.3-0.3,7.9
				c-0.1,1.5-0.1,3-0.3,4.4c-0.1,1.2-0.5,1.5-1.6,1.8c-2.1,0.5-4.3,0.9-6.4,1.4c-1,0.2-2,0.4-3,0.5c-0.9,0.1-1.4-0.4-1.6-1.3
				c0-0.3,0-0.5,0-0.8c0.3-3.2,0.5-6.5,0.8-9.7c0.1-1.4,0.2-2.8,0.3-4.2c-0.3,0-0.5-0.1-0.6-0.1c-5.5-0.5-11-1.4-16.4-2.8
				c-0.6-0.1-0.8,0-1.1,0.4c-3.8,5.8-7.5,11.5-11.3,17.3c-1.2,1.8-2.4,3.5-3.7,5.2c-0.8,1.1-1.5,1.2-2.8,0.7
				c-0.7-0.2-1.3-0.5-2.1-0.8c0,1.9,0,3.8,0,5.6c0.2,8.4,0.4,16.8,0.5,25.2c0,4.8-0.2,9.6-0.4,14.4c0,1-0.1,1,0.8,1.3
				c2.9,1.1,5.9,1.6,8.9,1.9c5.5,0.4,10.9,0.1,16.4-0.3c0.4,0,0.6-0.2,0.7-0.6c0.7-3.3,1.5-6.5,2.1-9.8c1.6-8.7,3.1-17.5,4.8-26.2
				c0.6-3.2,1.6-6.2,2.4-9.3c0.2-0.7,0.7-1.1,1.4-1.3c0.5-0.1,1.1-0.3,1.6-0.4c3.8-1.2,7.6-2.3,11.4-3.5c0.3-0.1,0.7-0.1,1.1-0.2
				c0,0.1,0,0.1,0.1,0.2c-0.3,0.2-0.7,0.4-1,0.6c-4,2.1-8.1,3.8-12.5,5c-0.2,0.1-0.6,0.4-0.6,0.6c0.1,0.7,0.3,1.4,0.5,2
				c0.2,0.8,0.7,1.5,0.8,2.3c0.2,1,0.2,2,0.4,3c0.2,1.6,0.4,3.2,0.7,4.8c0.3,1.7,0.9,3.3,1.3,4.9c0.9,4.2,1.7,8.4,2.7,12.6
				c1,3.9,2.2,7.8,3.4,11.7c0.1,0.4,0.4,0.4,0.7,0.4c3.1-0.2,6.3-0.2,9.4-0.5c5.4-0.6,10.7-1.9,15.8-3.8c0.8-0.3,0.8-0.3,0.6-1.2
				c-0.4-1.3-0.7-2.7-1.1-4c-2.7-9.8-4.8-19.7-6-29.8c-0.3-2.7-0.5-5.4-1.5-7.9c-0.1-0.4-0.3-0.8-0.4-1.1c-2.5-4.5-5.1-9-7.6-13.5
				C195.5,247.6,194.7,246,193.8,244.4 M181.1,119.9c0,0.1,0,0.1,0,0.2c0.3,0,0.6,0.1,0.9-0.1c1-0.5,2-1.1,2.9-1.7
				c0.4-0.3,0.8-0.4,1.2,0.1c0.5,0.6,1.2,0.7,1.9,0.6c1.5-0.3,2.8-1.7,3-3.2c0.1-0.8,0.4-1.1,0.9-1c1.6,0.1,2.8-0.9,3-2.5
				c0.1-0.6,0-1.2,0-1.7c0-1.1,0.2-1.5,1.4-1.4c3.6,0.1,5.7-3.3,5.3-6.3c-0.2-1.8-1.1-3.4-2.2-4.8c-0.6-0.8-0.4-1.4,0.6-1.6
				c0.5-0.1,0.9-0.2,1.3-0.5c2.3-1.4,3.5-6.4,0.1-7.9c-0.7-0.3-0.7-1-0.1-1.4c1.3-0.9,2.2-2.1,2.7-3.6c0.7-2.4,0-4.5-2.7-5.1
				c-0.6-0.2-1.3-0.2-1.9-0.3c-0.8-0.2-1.1-0.7-0.9-1.5c0.1-0.2,0.1-0.4,0.2-0.7c0.5-1.5,0.2-2.7-1-3.7c-2-1.6-4.1-2.4-6.7-2.1
				c-1.4,0.2-1.7-0.1-1.9-1.5c-0.2-1.4-0.5-2.7-0.9-4.1c-0.3-1-0.7-1.1-1.7-0.9c-0.6,0.1-1.1,0.3-1.7,0.4c-0.7,0.1-1-0.1-1.2-0.8
				c-0.2-0.6-0.4-1.2-0.6-1.8c-1.2-2.4-3.4-3.7-5.9-4.4c-2.3-0.6-4.6-0.8-6.7,0.8c-0.5,0.4-1.1,0.3-1.6,0c-0.4-0.3-0.7-0.6-1.2-0.8
				c-0.6-0.2-1.2-0.6-1.7-0.5c-3.3,0.4-5.3,1.6-5.9,4.4c-0.3,1.2-0.9,1.4-1.9,0.7c-1.1-0.8-2.2-1.5-3.5-1.6
				c-3.5-0.5-6.3,1.1-8.6,3.6c-1.2,1.2-1.8,2.8-1.9,4.5c-0.1,1.1-0.4,1.4-1.5,1.4c-1.6,0.1-2.7,0.7-3.6,2.1c-1,1.5-1.3,3.2-1.2,4.9
				c0,2.3-0.3,2.5-2.5,2.8c-0.9,0.1-1.7,0.4-2.5,0.8c-1.4,0.8-2,2.1-2.1,3.7c-0.1,2.4,0.5,4.6,1.5,6.7c0.2,0.5,0.4,1,0,1.5
				c-0.7,1-0.6,2,0,2.9c0.5,0.7,1.2,1.4,1.8,2.1c0.8,0.8,0.8,1.2-0.1,2c-0.7,0.7-1.5,1.3-2.2,2c-0.9,0.9-1.4,2.1-1.3,3.4
				c0.1,1.3,0.6,1.8,1.9,2c0.2,0,0.5,0,0.7,0.1c0.9,0.1,1.2,0.6,1,1.5c-0.1,0.6-0.2,1.2-0.2,1.8c0,0.8,0.3,1,1.1,1
				c0.7,0,1.5-0.1,2.2-0.1c1.4,0,1.8,0.4,1.7,1.8c-0.1,1.9,0,3.7,0.8,5.4c0.8,1.6,2.2,2.5,4,2.3c1.2-0.1,2.3-0.5,3.4-0.9
				c1-0.3,1.9-0.8,2.9-1.1c1.1-0.3,2,0.2,2.6,1.2c0.3,0.6,0.6,1.1,0.9,1.7c0.4,0.7,1.1,1.3,1.9,1.6c1.3,0.5,2.6,0.7,4,0.6
				c1.6-0.1,2.7-1,3.5-2.3c0.4-0.7,0.2-1.1-0.5-1.3c-2.3-0.8-4.6-1.8-6.7-3.1c-2.6-1.6-4.8-3.6-6.2-6.4c-0.1-0.1-0.1-0.2-0.2-0.3
				c-1.9,1.1-3.7,1.2-5.6,0.2c-0.8-0.4-1.6-0.9-2.3-1.5c-2.4-2.2-3.7-4.9-3-8.2c0.5-2.8,2.4-4.7,4.7-6.1c0.6-0.3,1.4-0.3,2.1-0.4
				c0.6-0.1,1.2,0,1.7-0.2c1.5-0.5,2.9-1.1,4.3-1.8c1.6-0.8,2.7-2.2,3.1-4.1c0.1-0.5,0.2-0.9,0.4-1.4c0.5-1.5,1.2-2,2.7-1.9
				c2.2,0.1,4.1-0.6,5.8-1.9c0.9-0.7,1.4-1.5,1.3-2.6c0-0.4,0-0.7,0-1.1c0-0.6,0.3-0.9,0.8-1c2.7-0.7,5.2-0.6,7.4,1.4
				c0.2,0.2,0.4,0.3,0.7,0.5c1,0.8,2.2,1.1,3.5,1.1c2,0,3.8-0.7,5.5-1.6c0.5-0.3,1.3-0.4,1.9-0.4c0.9,0,1.6,0.4,2.2,1
				c2,1.7,4.3,2.7,7,2.4c0.4,0,0.7,0.1,0.8,0.5c0.1,0.4-0.2,0.7-0.6,0.8c-0.4,0.1-0.9,0.1-1.3,0.2c0,0.2,0,0.3,0,0.5
				c0.2,1.5,0.4,3,0.7,4.5c1.2,6.2,1.1,12.3-0.6,18.4c-1.5,5.2-4.3,9.3-9,12.2C182.7,119.2,181.9,119.5,181.1,119.9 M140.8,173.7
				c0.2,1,0.4,1.6,0.5,2.3c0.2,1,0.3,1.1,1.2,0.9c1.2-0.2,2.1-0.9,2.9-1.8c2-2.4,3.1-5.3,3.6-8.3c0.6-3.9,0.8-7.8,0.8-11.7
				c0-7-0.1-13.9-0.1-20.9c0-0.5-0.2-0.7-0.7-0.9c-2-0.7-4.1-0.9-6.2-0.7c-2.7,0.3-4.7,1.5-5.9,3.9c-0.6,1.2-1.3,2.3-1.8,3.5
				c-1.1,2.4-2,4.9-3.1,7.4c-1.9,4.3-4.1,8.6-6.4,12.7c-3.5,6.5-7.3,12.8-11.3,19c-1.6,2.6-3.2,5.2-4.5,7.9c-0.9,1.7-1.7,3.4-2.9,5
				c-0.3,0.4-0.6,0.8-0.9,1.3c-1.1,1.8-1.2,3.7-0.1,5.5c1.1,1.8,2.1,3.7,3.4,5.4c3.3,4.7,6.7,9.4,10.2,14.1
				c4.7,6.3,9.4,12.5,14.2,18.7c1.5,1.9,3.1,3.7,4.4,5.7c1.2,1.8,2.2,3.7,3.3,5.6c0.5,0.8,1.1,1.4,1.7,2.2c1.1-1.7,2.2-3.3,3.2-4.9
				c0.3-0.4,0.5-0.9,0.8-1.4c0.4-0.7,0.3-1.5-0.1-2.2c-0.8-1.3-1.5-2.6-2.3-3.9c-1.2-1.8-2.3-3.7-3.7-5.3c-4.3-5.2-7.7-11-9.7-17.5
				c-0.9-3-1.9-5.9-2.7-8.9c-1.3-4.8-3.9-8.7-8.2-11.4c-0.4-0.2-0.8-0.5-1.1-0.9c-0.2-0.2-0.2-0.5-0.2-0.8c0.3,0,0.6-0.1,0.8,0
				c0.9,0.5,1.9,1.1,2.8,1.6c0.2,0.1,0.3,0.2,0.4,0.2c0.4-0.7,0.7-1.3,1.2-1.9c2.8-3.7,5.6-7.3,8.5-10.9c2.9-3.6,5.9-7.1,8.4-11
				c1.1-1.8,2.3-3.5,3.4-5.3c0.1-0.2,0.4-0.4,0.5-0.5c0.1,0,0.1,0.1,0.2,0.1c0,0.3-0.1,0.6-0.1,1c0.2-0.1,0.4-0.3,0.6-0.4
				c0.8-0.4,1.6-0.8,2.4-1.2c0.4-0.2,0.8-0.1,1,0.3c0.2,0.5-0.1,0.8-0.5,1c-0.2,0.1-0.3,0.1-0.5,0.2c-1.5,0.6-2.9,1.4-3.9,2.7
				C142.8,170.6,141.7,172.3,140.8,173.7 M196.5,405.6c0,0.1,0.1,0.1,0.1,0.2c0.5-0.2,1-0.3,1.4-0.5c0.6-0.4,1-0.9,1.6-1.3
				c0.7-0.6,1.2-1.2,0.5-2.1c-0.1-0.1-0.1-0.2-0.1-0.2c-1.3-3.5,1.6-7.2,4.3-8.1c0.4-0.1,0.5-0.4,0.5-0.8c-0.1-1.8-0.2-3.7-0.2-5.5
				c0-13.3,1.3-26.6,3.1-39.8c0.8-6.1,1.5-12.1,2.3-18.2c0.5-3.5,1-7,1.5-10.6c0.1-0.9,0.2-1.7,0.4-2.7c-6.8,2.8-13.8,3.4-20.8,4.5
				c0.3,2.6,0.2,5.1-0.4,7.5c-0.4,1.7-0.7,3.4-1,5.2c-0.5,3.7-0.9,7.3-1.4,11c-0.6,4.2-0.7,8.3-0.2,12.5c0.9,6.8,1.7,13.5,2.8,20.3
				c1.2,8,2.8,16,4.8,23.8C196.1,402.4,196.8,403.9,196.5,405.6 M204,245.1c0.8-1.4,1.7-2.9,2.6-4.4c2.8-5.1,5.5-10.2,8.3-15.2
				c3.6-6.4,6.9-12.9,9.3-19.8c1.2-3.5,2.5-7.1,3.2-10.8c0.3-1.7,0.3-3.3-0.5-4.9c-0.5-1-0.8-2-1.1-3c-0.4-1-0.6-2.1-1.1-3
				c-0.9-1.8-1.9-3.7-3-5.4c-4-6.5-7.8-13.1-11.3-19.9c-4.4-8.6-8.4-17.3-13.3-25.6c-0.5-0.9-1.6-1.4-2.6-1.2c0.2,1,0.4,1.9,0.5,2.9
				c0.2,2.5,0.3,5.1,0.4,7.6c0.1,4.9,0.3,9.7,0.4,14.6c0,2.6-0.1,5.1-0.1,7.7c0,0.5,0.1,1.1,0.3,1.6c3.2,8.1,8.3,14.9,15.1,20.4
				c1.4,1.1,2.8,2.3,4.1,3.6c0.4,0.4,0.8,1,1,1.6c0.2,0.4,0,0.9-0.5,1.1c-0.5,0.2-0.9-0.1-1.1-0.5c-0.1-0.2-0.2-0.4-0.4-0.7
				c-0.5,1.3-1,2.6-1.5,3.9c-1.9,4.4-2.8,8.9-2.3,13.7c0.1,1.6,0.2,3.3-0.1,4.9c-0.3,2.2-1,4.4-1.5,6.6c-1.1,4.6-3.5,8.5-7,11.6
				c-0.3,0.3-0.8,0.6-0.9,0.9c-0.1,0.4,0.2,0.8,0.4,1.2c0.6,1.6,0.5,3.2,0.4,4.9c0,0.3,0,0.6,0.1,0.8
				C202.6,241.8,203.3,243.4,204,245.1 M146.7,94.6c1,3.5,2,7.1,2.9,10.7c0.9,3.7,2.9,6.6,6,8.6c6.4,4.1,13.4,6.2,21,5.4
				c3-0.3,5.7-1.4,8.1-3.4c3.8-3.2,5.7-7.3,6.7-12c1-5,1-10,0.2-15c-0.3-1.9-0.4-3.8-0.7-5.8c-2.1-0.4-4.1-1.5-5.8-3
				c-0.4-0.3-1.2-0.5-1.7-0.4c-0.9,0.3-1.8,0.9-2.7,1.4c1.6-0.1,3.1,0.4,4.4,1.2c0.1,0.1,0.3,0.1,0.4,0.2c0.4,0.2,0.8,0.4,0.7,1
				c-0.1,0.5-0.6,0.6-1,0.6c-0.5,0-0.9,0-1.4,0c-2.9,0.2-5.4,1.1-7.9,2.6c-0.5,0.3-1,0.6-1.5,0.8c-0.6,0.3-1.8-0.1-2.2-0.7
				c-0.3-0.5-0.2-1,0.5-1.7c1.4-1.3,3-2.3,4.7-3c0.2-0.1,0.4-0.2,0.6-0.3c0,0-0.1-0.1-0.1-0.1c-0.1,0-0.2,0-0.3,0
				c-2.2,0.2-4.1-0.4-5.8-1.8c-0.4-0.3-0.8-0.7-1.3-1c-1.6-1.1-3.3-0.9-5.1-0.7c0,0.4,0,0.8,0.1,1.2c0.2,1.4-0.3,2.6-1.4,3.5
				c-2,1.6-4.3,2.5-6.9,2.5c-1.1,0-1.2,0.1-1.5,1.1c-0.1,0.3-0.2,0.6-0.2,1c0.2-0.1,0.3-0.1,0.4-0.1c1.8-0.7,3.6-1,5.5-0.9
				c1.1,0.1,2.2,0.3,3.3,0.6c1,0.3,1.2,0.9,0.9,1.9c-0.1,0.2-0.1,0.3-0.2,0.5c-0.1,0.4-0.4,0.5-0.8,0.5c-3.6-0.4-7,0.4-10.1,2.3
				c-0.4,0.2-0.7,0.4-1.1,0.7c-0.6,0.3-1.2,0.4-1.9,0.1c-0.2-0.1-0.4-0.1-0.6-0.1C149.6,93.4,148.1,94,146.7,94.6 M159.3,394.7
				c0-0.9-0.1-1.7-0.1-2.4c-0.2-5.7,0.6-11.3,0.9-16.9c0.3-6,0.9-12.1,0.9-18.1c0.1-10.4-0.1-20.8-0.1-31.2c0-0.6,0.1-1.5-0.2-1.8
				c-0.4-0.3-1.2-0.1-1.9-0.1c-4.6,0.1-9.1,0.1-13.7,0.2c-1.2,0-2.4-0.1-3.6-0.2c0,0.4-0.1,0.7-0.1,1.1c-0.7,13.9,0.4,27.6,3.4,41.2
				c1.3,5.7,2.6,11.4,3.8,17.1c0.6,2.6,1,5.3,1.4,7.9C153.6,390.9,156.8,391.6,159.3,394.7 M145.7,236.3c0-0.5-0.1-0.9-0.1-1.2
				c0-0.6-0.2-1.2-0.1-1.7c0.2-0.7,0.5-1.5,1-2.1c1.1-1.4,1.6-3,1.4-4.8c-0.1-1.3-0.2-2.6-0.4-3.8c-1.3-7.2-2.6-14.3-3.8-21.5
				c-1.2-7-2.1-14.1-3.2-21.2c-0.2-1.6-0.4-3.1-0.6-4.8c-5.4,6.9-10.7,13.8-16,20.7c0.1,0.1,0.2,0.2,0.2,0.3
				c2.5,2.2,4.2,4.9,5.2,8.1c0.9,2.8,1.7,5.7,2.6,8.5c1.6,5.1,3.6,10,6.7,14.3c1.5,2.1,3.2,4.2,4.7,6.2
				C144.2,234.2,144.9,235.2,145.7,236.3 M200,231.8c3.1-2.6,5.5-5.6,6.7-9.4c0.6-1.9,1.1-3.8,1.6-5.7c0.7-2.3,0.8-4.7,0.6-7.1
				c-0.3-4,0-7.9,1.4-11.6c0.9-2.3,1.9-4.5,2.9-6.7c0.2-0.5,0.1-0.7-0.2-1c-0.9-0.7-1.8-1.5-2.7-2.2c-6-4.8-10.9-10.5-14-17.6
				c0-0.1-0.1-0.1-0.2-0.3c0,0.5,0,0.9,0.1,1.3c0.2,2.7,0.4,5.3,0.6,8c0.3,4.7,0.6,9.4,0.9,14.1c0.5,7.4,1,14.9,1.5,22.3
				c0.1,2,0.5,3.9,1.6,5.6c0.8,1.3,0.8,2.6,0.1,3.9c-0.4,0.8-0.8,1.6-1.2,2.4C199,229.2,199.2,230.5,200,231.8 M164.6,119.7
				c-0.1,1.8-0.1,3.5-0.2,5.2c-0.1,2.4-0.6,4.8-2.3,6.7c-0.1,0.2-0.1,0.5-0.1,0.8c1.4,5.8,3.9,11.1,7.3,15.9c0.8,1.1,1.8,2,3,2.7
				c2.6,1.5,6.7,1.4,8.7-2.5c0.8-1.5,1.3-3.1,1.3-4.8c0.2-4.6,0.3-9.1,0.4-13.7c0-0.3-0.1-0.6-0.3-0.8c-1.4-2-2.2-4.2-2.6-6.6
				c-0.1-0.8-0.2-1.5-0.3-2.3C174.4,121.4,169.4,121.2,164.6,119.7 M223.2,407.5c-0.5-0.1-1.1-0.3-1.6-0.4c-1.2-0.3-1.1-0.3-1.8,0.8
				c-0.7,1.1-1.4,2.2-2.3,3.2c-1.3,1.4-2,1.6-3.8,0.8c-4.3-2-8.4-4.4-12.1-7.4c-0.6,0.6-1.2,1.2-1.9,1.8c-1.2,1-2.5,1.6-4.1,0.8
				c-0.3,1.2-0.5,2.3-0.8,3.4c-0.4,1.8-0.2,3.6,0.6,5.3c0.4,0.8,0.9,1.3,1.9,1.3c1.9,0,3.7,0.1,5.6,0.2c5.2,0.2,10.5,0.3,15.7,0.5
				c0.5,0,0.8-0.1,0.9-0.7c0.6-3.4,1.6-6.6,3.8-9.4C223.2,407.6,223.2,407.6,223.2,407.5 M151.8,421.6l0-0.2c1.1,0,2.3,0,3.4,0
				c2.8-0.1,5.6-0.4,8.3-1.2c0.5-0.1,0.6-0.4,0.6-0.9c0-1.3-0.6-2.5-1-3.6c-0.4-1-1.1-1.8-2.1-2.3c-1.6-1-3.4-1.5-5.3-1.7
				c-4.8-0.5-9.3,0.6-13.4,3.2c-1.2,0.7-2.1,1.7-2.8,3c-0.1,0.1-0.2,0.3-0.4,0.3c-0.5,0.2-0.5,0.6-0.2,1c0.2,0.3,0.5,0.5,0.8,0.7
				c0.9,0.4,1.8,0.9,2.8,1C145.6,421.1,148.7,421.4,151.8,421.6 M146.9,236.8c-0.4,0.9-0.3,1.6,0.4,2.2c0.1,0.1,0.2,0.3,0.2,0.4
				c0.3,0.6,0.4,1.2,0.8,1.7c0.7,1.1,0.8,2.3,0.2,3.4c-0.5,1.1-1.2,2.1-1.8,3.1c-1.1,1.8-2.4,3.5-3.4,5.4c-1.4,2.4-2.6,5-3.9,7.5
				c-0.2,0.3-0.3,0.6-0.3,1c-0.1,0.9,0,1.8-0.1,2.6c0,0.4,0.1,0.5,0.5,0.7c0.7,0.3,1.5,0.5,2.2,0.8c0.4,0.2,0.7,0.1,1-0.3
				c0.6-0.8,1.2-1.6,1.8-2.4c4.1-6.2,8.1-12.4,12.2-18.5c0.3-0.5,0.6-0.9,1-1.5C153.7,241.6,149.5,240.5,146.9,236.8 M136.8,321.7
				c0,0,0.1,0.1,0.3,0.1c3.2,0.3,6.4,0.8,9.5,0.9c5.7,0.1,11.4-0.1,17.2-0.2c0.1,0,0.4-0.2,0.4-0.4c0.2-0.5,0.2-1.1,0.3-1.6
				c0.3-1.4,0.6-2.8,0.9-4.3c-0.3,0-0.5,0-0.7,0c-5.4,0.3-10.8,0.6-16.2,0.1c-3.2-0.3-6.4-0.9-9.3-2.2c-0.1,0-0.2-0.1-0.2-0.1
				C138.3,316.5,137.6,319.1,136.8,321.7 M184.3,131.4c0,0.2,0,0.4,0,0.6c-0.1,3.5-0.1,7.1-0.3,10.6c-0.1,2.6-0.6,5.1-2,7.3
				c-1.6,2.6-4,3.8-7.1,3.6c-2.6-0.2-4.7-1.5-6.3-3.5c-3.7-4.7-6.1-10.1-7.6-15.9c-0.1-0.4-0.2-0.8-0.2-1.1c-1.1,0.5-2.1,1-3.2,1.5
				c0.3,0.8,0.6,1.6,0.9,2.4c2.3,5.8,5.3,11.3,9.1,16.3c1,1.3,2.1,2.5,3.7,2.9c3.2,0.9,6.3,0.7,9-1.3c2.5-1.8,4.3-4.2,5.1-7.1
				c1.4-4.8,2.3-9.6,2.6-14.6c0-0.2,0-0.5,0-0.5C186.7,132.2,185.5,131.8,184.3,131.4 M188,319c0.2,0,0.4,0,0.6,0
				c2.5-0.3,5-0.6,7.5-0.9c5.9-0.8,11.7-2,17.2-4.3c0.4-0.2,0.5-0.4,0.5-0.7c0-0.7,0-1.5,0.2-2.2c0.2-1,0-1.9-0.3-2.8
				c-8.6,3.3-17.4,4.8-26.6,4.4C187.3,314.6,187.7,316.7,188,319 M151.5,134c0,0.9,0,1.8,0,2.6c0.2,8.9,0.3,17.9-0.4,26.8
				c-0.2,3-0.7,6-2,8.7c-0.3,0.5-0.5,1.1-0.8,1.6c-1.5,2.4-3.2,4.6-6.5,4.5c0.2,1.3,0.4,2.5,0.6,3.9c1-0.4,2-0.7,2.8-1.2
				c2.5-1.3,4.1-3.4,5.5-5.7c2.4-4,3.4-8.3,3.5-12.9c0.2-5.1,0.2-10.2,0.1-15.3c0-4.1-0.4-8.2-1.3-12.2c0-0.2-0.2-0.5-0.4-0.6
				C152.3,134.2,151.9,134.1,151.5,134 M188,246.3c-3.2,0.1-6.4,0.2-9.6,0.3c-0.3,4.7-0.6,9.6-0.8,14.4c0.4,0,0.7-0.1,1-0.1
				c2.7-0.6,5.3-1.2,8-1.7c0.7-0.1,0.9-0.4,1-1.1c0.1-1.6,0.2-3.3,0.3-4.9C187.8,250.9,187.9,248.6,188,246.3 M157.5,408.3
				c0.1-0.6,0.1-1.2,0.2-1.8c0.4-2.9,0.9-5.9,1.3-8.8c0-0.3,0-0.6-0.1-0.8c-2-3.2-4-4.1-7.8-4c-1.1,0-1.8,1-1.7,2.1
				c0.2,4,0.2,8-0.2,12c0,0.4-0.1,0.9-0.2,1.4C151.9,407.4,154.7,407.6,157.5,408.3 M219,406.4c-0.4-0.1-0.5-0.2-0.7-0.2
				c-2.3-0.5-4.7-1.2-6.8-2.3c-2.1-1.1-3.4-2.6-3.7-5c-0.1-0.7-0.1-1.5-0.3-2.2c-0.3-1.6-1.8-2.2-3.2-1.5c-1.3,0.7-2.3,1.8-2.8,3.2
				c-0.7,2.1,0.9,5.2,3,6.2c0.7,0.3,1.4,0.8,2,1.2c2.6,1.6,5.2,3.2,8,4.4c0.6,0.2,1,0.2,1.4-0.2C217,408.9,218,407.7,219,406.4
				 M220.8,417.7c1.2-0.1,2.3-0.1,3.3-0.2c2.4-0.2,4.7-0.5,7-1.3c1.9-0.7,3.2-2,3.7-3.9c0.3-1.1,0.1-1.6-0.9-2
				c-1.1-0.5-2.1-1-3.2-1.2c-1.8-0.4-3.6-0.7-5.4-1.1c-0.4-0.1-0.7,0-0.9,0.4c-1.3,1.9-2.2,4-2.8,6.2
				C221.2,415.5,221,416.5,220.8,417.7 M146.8,101.4c-0.3-1.3-0.5-2.6-0.8-3.8c-0.1-0.5-0.3-1-0.5-1.5c-0.6-1.2-1.5-1.5-2.6-0.8
				c-2.3,1.4-3.5,3.6-3.3,6.3c0.3,3.3,2.3,5.4,5.2,6.6c1.1,0.4,2.2,0.2,3.2-0.2c0.4-0.2,0.5-0.4,0.4-0.8c-0.2-0.6-0.3-1.2-0.5-1.8
				c-0.3-1-0.6-2-0.8-3c-0.9,0.3-1.2,0.9-1.4,1.7c-0.1,0.4-0.2,0.9-0.7,0.9c-0.5-0.1-0.6-0.6-0.5-1.1c0.1-0.4,0.2-0.8,0.4-1.1
				C145.3,102,145.9,101.6,146.8,101.4 M142,413.1c1.7-0.7,3.3-1.6,5-2.1c4.6-1.4,9.2-1.6,13.6,0.5c1,0.5,1.9,1.2,2.9,1.8
				c-1.2-4.6-2.4-9.2-3.6-13.8c-0.3,1.9-0.5,3.8-0.8,5.7c-0.2,1.3-0.2,2.5-0.4,3.8c-0.1,0.8-0.6,1.2-1.4,1c-3-0.8-6-1-8.9,0.3
				c-0.9,0.4-1.6-0.2-1.4-1.2c0.1-0.6,0.3-1.2,0.4-1.8c0.2-3.4,0.4-6.8,0.6-10.2c0-0.2,0-0.3,0-0.5
				C146.9,402.3,144.9,407.9,142,413.1 M203.1,258.2c0,0,0.1,0,0.1-0.1c0-0.3-0.1-0.6-0.1-0.9c-0.3-3.5-0.8-7.1-0.9-10.6
				c-0.1-2-1-3.6-1.5-5.6c-1.5,2-3.7,2.1-5.7,3C197.8,248.7,200.5,253.4,203.1,258.2 M193.9,147.2c0.1,0,0.1,0,0.2,0
				c-0.5-5.1,0-10.2-0.9-15.3c-0.7,0.1-1.3,0.1-2.1,0.2C192.1,137.2,193,142.2,193.9,147.2 M139.6,248.9c-0.2,2.9-0.3,5.7-0.5,8.5
				c0.1,0,0.1,0,0.2,0c0.9-1.7,1.8-3.3,2.7-5c0.1-0.2,0-0.5-0.2-0.7C141.3,250.8,140.5,249.9,139.6,248.9 M153.8,90.9
				c3.4-2.1,7-2.8,10.8-2.2c-0.1-0.5,0-0.5-0.6-0.6c-1.9-0.5-3.9-0.5-5.8,0C156.6,88.5,154.9,89.1,153.8,90.9 M181.9,82.5
				c-3.2-0.1-5.8,1.5-8.1,3.5c0.3,0,0.5-0.1,0.7-0.2c1.5-0.8,3-1.7,4.5-2.4C179.9,83,180.9,82.8,181.9,82.5"/>
			<path class="st2" d="M190.3,132.3c0.2,1.5,0.3,2.9,0.6,4.4c1,5.7,2.1,11.4,3.1,17.1c0.1,0.8,0.2,1.6,0.2,2.4
				c0,3.3-0.2,6.5-0.1,9.8c0.1,3.9,0.4,7.8,0.7,11.6c0.3,4.1,0.6,8.2,0.8,12.3c0.2,3.4,0.5,6.8,0.7,10.2c0.2,3.7,0.5,7.4,0.7,11
				c0.1,2,0.3,3.9,0.4,5.9c0.1,2,0.8,3.8,1.9,5.5c0.4,0.7,0.5,1.3,0.1,2c-0.4,0.7-0.7,1.5-1.1,2.2c-1,1.9-0.9,3.8,0.1,5.7
				c0.2,0.3,0.3,0.6,0.5,0.9c1.2,1.5,1.4,3.4,1.6,5.2c0,0.5-0.1,0.9-0.5,1.2c-1.2,0.7-2.3,1.4-3.5,1.9c-1.3,0.6-2.7,1-4,1.5
				c-2.8,1-5.6,1.6-8.6,1.7c-10.2,0.2-20.1-1.4-29.7-4.7c-2.1-0.7-4.1-1.8-5.7-3.6c-0.4-0.4-0.6-0.9-1-1.4c-0.6-0.8-0.4-1.6,0-2.3
				c0,0,0,0,0-0.1c2.4-2.6,2.4-5.7,1.9-8.8c-0.8-4.7-1.7-9.4-2.6-14.2c-1.5-8.6-3-17.3-4.4-25.9c0-0.2,0-0.4,0-0.6
				c2-0.3,3.8-1.1,5.4-2.5c2.5-2.1,4.2-4.7,5.4-7.6c1.4-3.2,2.1-6.6,2.2-10.1c0.4-7.8,0.4-15.5-0.4-23.3c-0.2-1.5-0.5-3-0.7-4.4
				c0-0.2-0.1-0.4-0.1-0.6c0.7,0,1.3-0.1,1.8-0.1c0.2,0,0.4,0.3,0.5,0.5c1.3,4.2,3.1,8.2,5.3,12c1.3,2.2,2.7,4.3,4.1,6.4
				c4.4,6.6,12.9,5.2,16.8,1.1c2.3-2.5,3.8-5.3,4.4-8.6c0.7-3.4,1.3-6.9,1.9-10.4c0.1-0.8,0.1-1.7,0.1-2.5
				C189.3,132.2,189.3,132.2,190.3,132.3 M183.2,172.5c0.5,0,1.2,0.1,1.9,0.1c0.8,0,1.2-0.3,1.2-1.1c-0.1-1.4-0.2-2.9-0.5-4.3
				c-0.1-0.4-0.5-0.9-0.8-1c-0.6-0.2-1.4-0.3-1.9-0.1c-1.5,0.7-3.1,0.7-4.6,1.2c-2.8,0.9-5.5,1.7-8.1,3c-1.5,0.8-3,1.7-4.4,2.7
				c-1.3,1-2.2,2.3-2.7,3.9c-0.7,2.2,0,4.2,2,5.4c0.8,0.5,1.7,0.9,2.6,1.2c2.1,0.8,4.2,1.4,6.3,2.2c2.1,0.8,4.1,1.8,5.8,3.2
				c1.3,1,1.5,2,0.9,3.5c-0.8,2-2.2,3.3-4.2,4c-3.7,1.3-7.3,2.9-11.3,2.9c-0.7,0-1,0.4-1,1.1c0,2.5,2.1,4.4,4.5,3.8
				c2.9-0.7,5.8-1.4,8.7-2.4c3.2-1.1,6.3-2.5,9.1-4.4c2-1.3,3.8-2.9,5-5c1.6-2.9,1.6-6.4-1.6-9c-2.1-1.7-4.5-2.8-7.1-3.4
				c-2.7-0.7-5.5-1.3-8.2-2c-0.7-0.2-1.5-0.4-2.1-0.7c-1-0.4-1.1-1.3-0.2-2c0.3-0.3,0.7-0.5,1.1-0.7
				C176.6,173.3,179.7,172.5,183.2,172.5"/>
			<path class="st3" d="M193.8,244.4c0.8,1.6,1.6,3.2,2.5,4.7c2.5,4.5,5.1,9,7.6,13.5c0.2,0.4,0.3,0.8,0.4,1.1
				c1,2.6,1.2,5.2,1.5,7.9c1.2,10.1,3.4,20,6,29.8c0.4,1.3,0.7,2.7,1.1,4c0.2,0.9,0.2,0.9-0.6,1.2c-5.1,1.9-10.4,3.3-15.8,3.8
				c-3.1,0.3-6.3,0.4-9.4,0.5c-0.3,0-0.6,0.1-0.7-0.4c-1.1-3.9-2.4-7.8-3.4-11.7c-1-4.2-1.8-8.4-2.7-12.6c-0.4-1.7-0.9-3.3-1.3-4.9
				c-0.3-1.6-0.5-3.2-0.7-4.8c-0.1-1-0.2-2-0.4-3c-0.2-0.8-0.6-1.5-0.8-2.3c-0.2-0.7-0.4-1.3-0.5-2c0-0.2,0.3-0.5,0.6-0.6
				c4.4-1.1,8.5-2.9,12.5-5c0.4-0.2,0.7-0.4,1-0.6c0-0.1,0-0.1-0.1-0.2c-0.4,0.1-0.7,0.1-1.1,0.2c-3.8,1.2-7.6,2.3-11.4,3.5
				c-0.5,0.2-1.1,0.3-1.6,0.4c-0.7,0.1-1.2,0.5-1.4,1.3c-0.8,3.1-1.8,6.2-2.4,9.3c-1.7,8.7-3.2,17.5-4.8,26.2
				c-0.6,3.3-1.4,6.5-2.1,9.8c-0.1,0.4-0.3,0.6-0.7,0.6c-5.5,0.4-10.9,0.7-16.4,0.3c-3-0.2-6-0.7-8.9-1.9c-0.9-0.4-0.8-0.4-0.8-1.3
				c0.2-4.8,0.4-9.6,0.4-14.4c-0.1-8.4-0.3-16.8-0.5-25.2c0-1.8,0-3.7,0-5.6c0.7,0.3,1.4,0.5,2.1,0.8c1.3,0.5,1.9,0.4,2.8-0.7
				c1.3-1.7,2.5-3.4,3.7-5.2c3.8-5.7,7.6-11.5,11.3-17.3c0.3-0.5,0.6-0.6,1.1-0.4c5.4,1.4,10.9,2.3,16.4,2.8c0.2,0,0.4,0,0.6,0.1
				c-0.1,1.4-0.2,2.8-0.3,4.2c-0.3,3.2-0.5,6.5-0.8,9.7c0,0.3,0,0.5,0,0.8c0.1,0.9,0.6,1.4,1.6,1.3c1-0.1,2-0.3,3-0.5
				c2.1-0.4,4.3-0.9,6.4-1.4c1.1-0.2,1.5-0.6,1.6-1.8c0.1-1.5,0.2-3,0.3-4.4c0.1-2.6,0.2-5.3,0.3-7.9c0-0.2,0.2-0.6,0.4-0.6
				C191,245.3,192.4,244.9,193.8,244.4"/>
			<path class="st4" d="M181.1,119.9c0.8-0.4,1.6-0.8,2.3-1.2c4.6-2.9,7.5-7,9-12.2c1.7-6.1,1.8-12.2,0.6-18.4
				c-0.3-1.5-0.4-3-0.7-4.5c0-0.1,0-0.3,0-0.5c0.5-0.1,0.9-0.1,1.3-0.2c0.4-0.1,0.6-0.4,0.6-0.8c-0.1-0.4-0.4-0.6-0.8-0.5
				c-2.7,0.2-5-0.7-7-2.4c-0.7-0.6-1.4-1-2.2-1c-0.6,0-1.3,0.1-1.9,0.4c-1.7,0.9-3.5,1.6-5.5,1.6c-1.3,0-2.5-0.4-3.5-1.1
				c-0.2-0.2-0.5-0.3-0.7-0.5c-2.2-2-4.7-2.1-7.4-1.4c-0.6,0.1-0.8,0.5-0.8,1c0,0.4-0.1,0.7,0,1.1c0.1,1.1-0.4,2-1.3,2.6
				c-1.7,1.3-3.7,2-5.8,1.9c-1.5-0.1-2.2,0.4-2.7,1.9c-0.2,0.4-0.3,0.9-0.4,1.4c-0.4,1.9-1.4,3.2-3.1,4.1c-1.4,0.7-2.9,1.3-4.3,1.8
				c-0.5,0.2-1.1,0.1-1.7,0.2c-0.7,0.1-1.5,0.1-2.1,0.4c-2.4,1.4-4.2,3.3-4.7,6.1c-0.6,3.3,0.6,6,3,8.2c0.7,0.6,1.5,1.1,2.3,1.5
				c1.9,1,3.8,0.9,5.6-0.2c0.1,0.1,0.2,0.2,0.2,0.3c1.4,2.7,3.6,4.8,6.2,6.4c2.1,1.3,4.3,2.3,6.7,3.1c0.8,0.3,0.9,0.6,0.5,1.3
				c-0.7,1.4-1.9,2.2-3.5,2.3c-1.4,0.1-2.7-0.1-4-0.6c-0.8-0.3-1.5-0.8-1.9-1.6c-0.3-0.6-0.6-1.1-0.9-1.7c-0.6-1-1.5-1.5-2.6-1.2
				c-1,0.3-1.9,0.8-2.9,1.1c-1.1,0.4-2.2,0.8-3.4,0.9c-1.8,0.2-3.1-0.6-4-2.3c-0.9-1.7-1-3.5-0.8-5.4c0.1-1.4-0.3-1.8-1.7-1.8
				c-0.7,0-1.5,0.1-2.2,0.1c-0.8,0-1.1-0.2-1.1-1c0-0.6,0.1-1.2,0.2-1.8c0.2-0.9-0.2-1.3-1-1.5c-0.2,0-0.5-0.1-0.7-0.1
				c-1.3-0.2-1.8-0.7-1.9-2c-0.1-1.3,0.3-2.5,1.3-3.4c0.7-0.7,1.5-1.3,2.2-2c0.8-0.7,0.9-1.1,0.1-2c-0.6-0.7-1.3-1.3-1.8-2.1
				c-0.7-0.9-0.8-1.9,0-2.9c0.4-0.5,0.2-1,0-1.5c-1-2.1-1.7-4.3-1.5-6.7c0.1-1.6,0.7-2.9,2.1-3.7c0.8-0.4,1.6-0.7,2.5-0.8
				c2.3-0.3,2.6-0.5,2.5-2.8c0-1.8,0.3-3.4,1.2-4.9c0.8-1.3,2-2,3.6-2.1c1.1,0,1.4-0.3,1.5-1.4c0.1-1.7,0.8-3.2,1.9-4.5
				c2.3-2.5,5.1-4,8.6-3.6c1.3,0.2,2.5,0.8,3.5,1.6c1,0.7,1.6,0.6,1.9-0.7c0.6-2.8,2.7-4,5.9-4.4c0.6-0.1,1.2,0.3,1.7,0.5
				c0.4,0.2,0.8,0.5,1.2,0.8c0.5,0.4,1.1,0.4,1.6,0c2.1-1.6,4.4-1.4,6.7-0.8c2.5,0.7,4.7,1.9,5.9,4.4c0.3,0.6,0.5,1.2,0.6,1.8
				c0.2,0.6,0.5,0.9,1.2,0.8c0.6-0.1,1.1-0.3,1.7-0.4c1-0.2,1.4-0.1,1.7,0.9c0.4,1.3,0.7,2.7,0.9,4.1c0.2,1.4,0.5,1.7,1.9,1.5
				c2.6-0.4,4.8,0.4,6.7,2.1c1.2,1,1.5,2.2,1,3.7c-0.1,0.2-0.2,0.4-0.2,0.7c-0.2,0.8,0.1,1.3,0.9,1.5c0.6,0.1,1.3,0.2,1.9,0.3
				c2.7,0.7,3.4,2.8,2.7,5.1c-0.4,1.5-1.4,2.7-2.7,3.6c-0.6,0.4-0.6,1.1,0.1,1.4c3.5,1.5,2.3,6.5-0.1,7.9c-0.4,0.2-0.9,0.4-1.3,0.5
				c-1,0.2-1.3,0.8-0.6,1.6c1.1,1.4,2,3,2.2,4.8c0.4,3-1.7,6.4-5.3,6.3c-1.1,0-1.4,0.3-1.4,1.4c0,0.6,0.1,1.2,0,1.7
				c-0.2,1.6-1.5,2.6-3,2.5c-0.6,0-0.9,0.3-0.9,1c-0.2,1.5-1.5,2.9-3,3.2c-0.7,0.1-1.4,0-1.9-0.6c-0.4-0.5-0.7-0.4-1.2-0.1
				c-1,0.6-1.9,1.2-2.9,1.7c-0.2,0.1-0.6,0.1-0.8,0.1C181.1,120.1,181.1,120,181.1,119.9"/>
			<path class="st5" d="M140.8,173.7c1-1.4,2.1-3.1,3.3-4.7c1-1.3,2.3-2.1,3.9-2.7c0.2-0.1,0.3-0.1,0.5-0.2c0.4-0.2,0.7-0.5,0.5-1
				c-0.2-0.4-0.6-0.5-1-0.3c-0.8,0.4-1.6,0.8-2.4,1.2c-0.2,0.1-0.4,0.2-0.6,0.4c0-0.4,0.1-0.7,0.1-1c-0.1,0-0.1-0.1-0.2-0.1
				c-0.2,0.2-0.4,0.3-0.5,0.5c-1.1,1.8-2.3,3.5-3.4,5.3c-2.5,3.9-5.5,7.4-8.4,11c-2.9,3.6-5.7,7.3-8.5,10.9
				c-0.4,0.6-0.8,1.2-1.2,1.9c-0.1-0.1-0.3-0.1-0.4-0.2c-0.9-0.5-1.8-1.1-2.8-1.6c-0.2-0.1-0.5,0-0.8,0c0.1,0.3,0.1,0.6,0.2,0.8
				c0.3,0.3,0.7,0.6,1.1,0.9c4.3,2.6,6.9,6.5,8.2,11.4c0.8,3,1.8,6,2.7,8.9c2.1,6.5,5.4,12.3,9.7,17.5c1.4,1.7,2.5,3.5,3.7,5.3
				c0.8,1.3,1.6,2.6,2.3,3.9c0.4,0.7,0.5,1.4,0.1,2.2c-0.2,0.5-0.5,1-0.7,1.4c-1,1.6-2.1,3.2-3.2,4.9c-0.6-0.7-1.2-1.4-1.7-2.2
				c-1.1-1.8-2.1-3.8-3.3-5.6c-1.4-2-3-3.8-4.4-5.7c-4.7-6.2-9.5-12.4-14.2-18.7c-3.5-4.6-6.8-9.4-10.2-14.1
				c-1.2-1.7-2.3-3.6-3.4-5.4c-1.1-1.9-1-3.7,0.1-5.5c0.3-0.4,0.6-0.9,0.9-1.3c1.1-1.6,2-3.3,2.9-5c1.4-2.7,2.9-5.4,4.5-7.9
				c4-6.2,7.8-12.5,11.3-19c2.3-4.2,4.5-8.4,6.4-12.7c1.1-2.4,2-4.9,3.1-7.4c0.5-1.2,1.2-2.4,1.8-3.5c1.3-2.3,3.3-3.6,5.9-3.9
				c2.1-0.2,4.1-0.1,6.2,0.7c0.5,0.2,0.7,0.4,0.7,0.9c0,7,0.1,13.9,0.1,20.9c0,3.9-0.2,7.9-0.8,11.7c-0.5,3.1-1.6,5.9-3.6,8.3
				c-0.8,0.9-1.6,1.6-2.9,1.8c-1,0.2-1.1,0.1-1.2-0.9C141.2,175.3,141,174.6,140.8,173.7"/>
			<path class="st5" d="M196.5,405.6c0.3-1.7-0.3-3.3-0.7-4.9c-2-7.9-3.6-15.8-4.8-23.8c-1-6.7-1.9-13.5-2.8-20.3
				c-0.5-4.2-0.5-8.3,0.2-12.5c0.5-3.6,0.9-7.3,1.4-11c0.2-1.7,0.6-3.5,1-5.2c0.6-2.5,0.7-4.9,0.4-7.5c7-1,14.1-1.7,20.8-4.5
				c-0.1,1-0.2,1.9-0.4,2.7c-0.5,3.5-1.1,7-1.5,10.6c-0.8,6.1-1.6,12.1-2.3,18.2c-1.7,13.2-3,26.4-3.1,39.8c0,1.8,0.1,3.7,0.2,5.5
				c0,0.4-0.1,0.6-0.5,0.8c-2.7,0.9-5.5,4.5-4.3,8.1c0,0.1,0,0.2,0.1,0.2c0.7,0.9,0.2,1.5-0.5,2.1c-0.5,0.4-1,1-1.6,1.3
				c-0.4,0.3-0.9,0.4-1.4,0.5C196.6,405.8,196.5,405.7,196.5,405.6"/>
			<path class="st5" d="M204,245.1c-0.7-1.6-1.4-3.2-2.1-4.9c-0.1-0.2-0.1-0.5-0.1-0.8c0.1-1.7,0.1-3.3-0.4-4.9
				c-0.1-0.4-0.5-0.8-0.4-1.2c0.1-0.4,0.6-0.6,0.9-0.9c3.5-3.1,5.9-7,7-11.6c0.5-2.2,1.2-4.4,1.5-6.6c0.2-1.6,0.2-3.3,0.1-4.9
				c-0.4-4.8,0.4-9.3,2.3-13.7c0.5-1.2,1-2.5,1.5-3.9c0.1,0.2,0.2,0.4,0.4,0.7c0.2,0.4,0.6,0.7,1.1,0.5c0.5-0.2,0.7-0.7,0.5-1.1
				c-0.2-0.6-0.5-1.2-1-1.6c-1.3-1.2-2.7-2.4-4.1-3.6c-6.8-5.5-11.9-12.2-15.1-20.4c-0.2-0.5-0.3-1.1-0.3-1.6c0-2.6,0.1-5.1,0.1-7.7
				c-0.1-4.9-0.2-9.7-0.4-14.6c-0.1-2.6-0.2-5.1-0.4-7.6c-0.1-1-0.3-1.9-0.5-2.9c1-0.2,2.1,0.3,2.6,1.2c4.9,8.3,9,17,13.3,25.6
				c3.5,6.8,7.3,13.4,11.3,19.9c1.1,1.8,2,3.6,3,5.4c0.5,1,0.7,2,1.1,3c0.4,1,0.7,2,1.1,3c0.8,1.6,0.8,3.2,0.5,4.9
				c-0.7,3.7-2,7.2-3.2,10.8c-2.4,6.9-5.8,13.4-9.3,19.8c-2.8,5.1-5.5,10.2-8.3,15.2C205.8,242.1,204.9,243.6,204,245.1"/>
			<path class="st5" d="M146.7,94.6c1.4-0.6,2.9-1.2,4.3-1.7c0.2-0.1,0.4,0,0.6,0.1c0.6,0.3,1.3,0.2,1.9-0.1
				c0.4-0.2,0.7-0.4,1.1-0.7c3.1-1.9,6.5-2.7,10.1-2.3c0.4,0,0.7-0.1,0.8-0.5c0-0.2,0.1-0.3,0.2-0.5c0.3-0.9,0.1-1.6-0.9-1.9
				c-1.1-0.3-2.2-0.5-3.3-0.6c-1.9-0.1-3.7,0.2-5.5,0.9c-0.1,0-0.2,0.1-0.4,0.1c0.1-0.4,0.2-0.7,0.2-1c0.3-1,0.5-1.1,1.5-1.1
				c2.6,0,4.9-0.9,6.9-2.5c1.1-0.9,1.6-2,1.4-3.5c0-0.4,0-0.7-0.1-1.2c1.8-0.2,3.5-0.4,5.1,0.7c0.4,0.3,0.9,0.6,1.3,1
				c1.7,1.4,3.6,2,5.8,1.8c0.1,0,0.2,0,0.3,0c0,0,0,0,0.1,0.1c-0.2,0.1-0.4,0.2-0.6,0.3c-1.7,0.7-3.3,1.7-4.7,3
				c-0.7,0.6-0.9,1.1-0.5,1.7c0.4,0.6,1.6,1,2.2,0.7c0.5-0.2,1-0.5,1.5-0.8c2.4-1.4,5-2.4,7.9-2.6c0.5,0,0.9,0,1.4,0
				c0.5,0,0.9,0,1-0.6c0.1-0.5-0.2-0.8-0.7-1c-0.1-0.1-0.3-0.1-0.4-0.2c-1.4-0.8-2.8-1.3-4.4-1.2c0.9-0.5,1.7-1.1,2.7-1.4
				c0.5-0.2,1.3,0,1.7,0.4c1.7,1.5,3.7,2.6,5.8,3c0.2,2,0.4,3.9,0.7,5.8c0.8,5,0.8,10-0.2,15c-1,4.7-2.9,8.9-6.7,12
				c-2.3,2-5,3-8.1,3.4c-7.7,0.8-14.6-1.3-21-5.4c-3.2-2-5.1-4.9-6-8.6C148.7,101.6,147.7,98.1,146.7,94.6 M178.6,95.1
				C178.6,95.1,178.6,95.1,178.6,95.1c0.5,0,1,0,1.5-0.1c1.9-0.2,3.6-0.9,4.9-2.4c1.5-1.7,1.6-2.4,0.3-4.2c-1.4-2-3.7-2.7-5.9-1.7
				c-2.6,1.1-3.8,3.2-4,6c-0.1,1.3,0.8,2.3,2.1,2.4C177.9,95.1,178.3,95.1,178.6,95.1 M158.7,100.2c2-0.1,4.3-0.8,5.9-1.8
				c0.6-0.4,1.1-0.9,1.5-1.4c0.6-0.7,0.6-1.5,0.2-2.3c-1.8-3.5-6.6-4.2-9.3-1.5c-1.3,1.3-2,2.9-2,4.7c0,1.2,0.1,1.4,1.2,1.7
				C157,99.9,157.9,100,158.7,100.2 M170.1,111.4c0.4-0.1,1.1-0.4,1.8-0.6c2-0.6,3.9-1.2,5.9-1.6c1.1-0.2,2.3-0.2,3.4-0.3
				c1-0.1,1.7-0.8,1.9-1.7c0.1-0.4-0.1-0.7-0.5-0.7c-0.2,0-0.5,0.2-0.6,0.4c-0.4,1.1-0.3,1.1-1.4,1.1c-3.3,0.1-6.4,0.8-9.5,2
				c-0.8,0.3-1.6,0.3-2.4,0c-0.3-0.1-0.7-0.3-1-0.3c-0.2,0-0.6,0.1-0.7,0.3c-0.1,0.2,0,0.6,0.1,0.8c0.1,0.2,0.4,0.3,0.6,0.4
				C168.4,111.2,169.1,111.3,170.1,111.4 M174.5,96.6c0.1,0.2,0.3,0.4,0.4,0.6c0.8,0.8,1.7,1.1,2.8,1.3c1,0.1,1.5,0.6,1.7,1.4
				c0.3,1.3-0.6,2.7-1.9,3.1c-0.2,0.1-0.4,0.3-0.4,0.4c0,0.2,0.3,0.5,0.4,0.5c0.5,0,1.1,0,1.5-0.3c1.2-0.8,1.7-2.1,1.7-3.5
				c-0.1-1.1-0.6-2.2-1.7-2.5c-1.4-0.5-2.8-0.7-4.3-1C174.7,96.4,174.7,96.5,174.5,96.6 M172,105.4c0.5-0.2,1.1-0.3,1.6-0.5
				c0.6-0.2,1.2-0.4,1.9-0.7c0.2-0.1,0.4-0.3,0.4-0.4c0-0.2-0.2-0.4-0.4-0.4c-0.4-0.1-0.8-0.1-1.2,0c-0.6,0.1-1.1,0.4-1.7,0.6
				c-0.5,0.2-1,0.2-1.4-0.3c-0.1-0.2-0.5-0.1-0.7-0.2c-0.1,0.3-0.2,0.6-0.2,0.8C170.6,104.9,171.2,105.3,172,105.4"/>
			<path class="st5" d="M159.3,394.7c-2.5-3.1-5.7-3.8-9.2-3.4c-0.5-2.6-0.9-5.3-1.4-7.9c-1.2-5.7-2.6-11.4-3.8-17.1
				c-3-13.6-4.1-27.3-3.4-41.2c0-0.3,0.1-0.7,0.1-1.1c1.2,0.1,2.4,0.2,3.6,0.2c4.6,0,9.1-0.1,13.7-0.2c0.6,0,1.5-0.2,1.9,0.1
				c0.3,0.3,0.2,1.2,0.2,1.8c0.1,10.4,0.2,20.8,0.1,31.2c-0.1,6-0.6,12.1-0.9,18.1c-0.3,5.6-1.1,11.2-0.9,16.9
				C159.2,393,159.3,393.8,159.3,394.7"/>
			<path class="st5" d="M164.6,119.7c4.9,1.5,9.8,1.7,14.9,0.7c0.1,0.8,0.2,1.6,0.3,2.3c0.4,2.4,1.2,4.6,2.6,6.6
				c0.2,0.2,0.3,0.5,0.3,0.8c-0.1,4.6-0.2,9.1-0.4,13.7c-0.1,1.7-0.6,3.3-1.3,4.8c-1.9,3.9-6.1,4-8.7,2.5c-1.2-0.7-2.2-1.6-3-2.7
				c-3.4-4.9-5.9-10.1-7.3-15.9c-0.1-0.2-0.1-0.6,0.1-0.8c1.7-1.9,2.1-4.3,2.3-6.7C164.4,123.2,164.5,121.5,164.6,119.7"/>
			<path class="st6" d="M223.2,407.5c0,0.1,0,0.2,0,0.2c-2.2,2.8-3.2,6-3.8,9.4c-0.1,0.6-0.3,0.7-0.9,0.7
				c-5.2-0.2-10.5-0.3-15.7-0.5c-1.9-0.1-3.7-0.2-5.6-0.2c-1,0-1.5-0.5-1.9-1.3c-0.7-1.7-1-3.5-0.6-5.3c0.2-1.1,0.5-2.3,0.8-3.4
				c1.6,0.8,2.9,0.2,4.1-0.8c0.7-0.6,1.3-1.2,1.9-1.8c3.7,3,7.8,5.4,12.1,7.4c1.7,0.8,2.5,0.7,3.8-0.8c0.9-1,1.6-2.1,2.3-3.2
				c0.7-1.1,0.7-1.1,1.8-0.8C222.1,407.2,222.6,407.4,223.2,407.5"/>
			<path class="st7" d="M151.8,421.6c-3.1-0.3-6.2-0.5-9.3-0.9c-0.9-0.1-1.9-0.6-2.8-1c-0.3-0.1-0.5-0.4-0.8-0.7
				c-0.4-0.4-0.3-0.7,0.2-1c0.1-0.1,0.3-0.2,0.4-0.3c0.6-1.3,1.6-2.2,2.8-3c4.1-2.6,8.5-3.7,13.4-3.2c1.9,0.2,3.7,0.8,5.3,1.7
				c0.9,0.6,1.6,1.3,2.1,2.3c0.5,1.2,1.1,2.3,1,3.6c0,0.5-0.2,0.7-0.6,0.9c-2.7,0.8-5.5,1.1-8.3,1.2c-1.1,0-2.3,0-3.4,0L151.8,421.6
				z"/>
			<path class="st8" d="M146.9,236.8c2.6,3.8,6.7,4.8,10.8,6.2c-0.4,0.5-0.7,1-1,1.5c-4.1,6.2-8.1,12.4-12.2,18.5
				c-0.6,0.8-1.2,1.6-1.8,2.4c-0.3,0.4-0.6,0.4-1,0.3c-0.7-0.3-1.4-0.6-2.2-0.8c-0.3-0.1-0.5-0.3-0.5-0.7c0-0.9,0-1.8,0.1-2.6
				c0-0.3,0.1-0.7,0.3-1c1.3-2.5,2.6-5,3.9-7.5c1-1.8,2.3-3.6,3.4-5.4c0.6-1,1.3-2.1,1.8-3.1c0.6-1.2,0.5-2.3-0.2-3.4
				c-0.3-0.5-0.5-1.2-0.8-1.7c-0.1-0.2-0.1-0.3-0.2-0.4C146.7,238.4,146.5,237.7,146.9,236.8"/>
			<path class="st8" d="M136.8,321.7c0.7-2.6,1.5-5.1,2.2-7.7c0,0,0.1,0,0.2,0.1c3,1.4,6.1,1.9,9.3,2.2c5.4,0.5,10.8,0.2,16.2-0.1
				c0.2,0,0.4,0,0.7,0c-0.3,1.5-0.6,2.9-0.9,4.3c-0.1,0.5-0.2,1.1-0.3,1.6c0,0.2-0.3,0.4-0.4,0.4c-5.7,0.1-11.4,0.3-17.2,0.2
				c-3.2-0.1-6.4-0.6-9.5-0.9C137,321.7,136.8,321.7,136.8,321.7"/>
			<path class="st7" d="M184.3,131.4c1.3,0.4,2.5,0.8,3.8,1.2c0,0.1,0,0.3,0,0.5c-0.4,5-1.3,9.8-2.6,14.6c-0.9,3-2.6,5.3-5.1,7.1
				c-2.8,2-5.8,2.2-9,1.3c-1.6-0.5-2.7-1.7-3.7-2.9c-3.8-5-6.8-10.5-9.1-16.3c-0.3-0.8-0.6-1.7-0.9-2.4c1.1-0.5,2.1-1,3.2-1.5
				c0.1,0.4,0.1,0.8,0.2,1.1c1.6,5.8,3.9,11.2,7.6,15.9c1.6,2,3.7,3.3,6.3,3.5c3,0.2,5.4-0.9,7.1-3.6c1.4-2.2,1.9-4.7,2-7.3
				c0.2-3.5,0.2-7.1,0.3-10.6C184.3,131.8,184.3,131.6,184.3,131.4"/>
			<path class="st8" d="M188,319c-0.3-2.2-0.7-4.3-1-6.5c9.2,0.4,18-1.1,26.6-4.4c0.3,0.9,0.6,1.8,0.3,2.8c-0.2,0.7-0.2,1.4-0.2,2.2
				c0,0.4-0.1,0.6-0.5,0.7c-5.5,2.3-11.3,3.6-17.2,4.3c-2.5,0.3-5,0.6-7.5,0.9C188.4,319,188.2,318.9,188,319"/>
			<path class="st7" d="M151.5,134c0.4,0.1,0.8,0.1,1.2,0.3c0.2,0.1,0.3,0.4,0.4,0.6c0.8,4,1.2,8.1,1.3,12.2c0,5.1,0,10.2-0.1,15.3
				c-0.1,4.6-1.2,8.9-3.5,12.9c-1.4,2.3-3.1,4.4-5.5,5.7c-0.9,0.5-1.8,0.8-2.8,1.2c-0.2-1.4-0.4-2.6-0.6-3.9c3.3,0.1,5-2,6.5-4.5
				c0.3-0.5,0.6-1.1,0.8-1.6c1.3-2.8,1.8-5.7,2-8.7c0.7-8.9,0.6-17.9,0.4-26.8C151.4,135.8,151.5,134.9,151.5,134"/>
			<path class="st8" d="M188,246.3c-0.1,2.3-0.2,4.6-0.3,7c-0.1,1.6-0.2,3.3-0.3,4.9c0,0.7-0.3,0.9-1,1.1c-2.7,0.5-5.3,1.1-8,1.7
				c-0.3,0.1-0.6,0.1-1,0.1c0.3-4.9,0.6-9.7,0.8-14.4C181.6,246.5,184.7,246.4,188,246.3"/>
			<path class="st7" d="M157.5,408.3c-2.9-0.7-5.7-0.9-8.5,0.1c0.1-0.5,0.1-1,0.2-1.4c0.4-4,0.4-8,0.2-12c-0.1-1.1,0.7-2.1,1.7-2.1
				c3.8-0.1,5.8,0.9,7.8,4c0.1,0.2,0.1,0.5,0.1,0.8c-0.4,2.9-0.8,5.9-1.3,8.8C157.6,407.1,157.6,407.7,157.5,408.3"/>
			<path class="st7" d="M219,406.4c-1.1,1.3-2,2.5-3,3.7c-0.4,0.4-0.8,0.5-1.4,0.2c-2.8-1.2-5.4-2.7-8-4.4c-0.7-0.4-1.3-0.9-2-1.2
				c-2.2-1-3.7-4.2-3-6.2c0.5-1.4,1.4-2.5,2.8-3.2c1.4-0.8,2.9-0.1,3.2,1.5c0.2,0.7,0.2,1.4,0.3,2.2c0.3,2.4,1.6,3.9,3.7,5
				c2.2,1.1,4.5,1.7,6.8,2.3C218.5,406.2,218.6,406.3,219,406.4"/>
			<path class="st7" d="M220.8,417.7c0.3-1.2,0.5-2.2,0.7-3.3c0.6-2.2,1.5-4.3,2.8-6.2c0.2-0.3,0.5-0.5,0.9-0.4
				c1.8,0.4,3.6,0.6,5.4,1.1c1.1,0.3,2.2,0.8,3.2,1.2c1,0.5,1.2,1,0.9,2c-0.5,2-1.8,3.3-3.7,3.9c-2.3,0.8-4.6,1-7,1.3
				C223,417.6,222,417.6,220.8,417.7"/>
			<path class="st5" d="M146.8,101.4c-0.9,0.2-1.6,0.6-2,1.4c-0.2,0.4-0.3,0.8-0.4,1.1c-0.1,0.5,0,1,0.5,1.1
				c0.5,0.1,0.6-0.5,0.7-0.9c0.2-0.8,0.5-1.4,1.4-1.7c0.3,1,0.6,2,0.8,3c0.2,0.6,0.3,1.2,0.5,1.8c0.2,0.4,0,0.6-0.4,0.8
				c-1.1,0.5-2.2,0.7-3.2,0.2c-3-1.2-5-3.4-5.2-6.6c-0.2-2.7,1-4.8,3.3-6.3c1.2-0.7,2-0.5,2.6,0.8c0.2,0.5,0.4,1,0.5,1.5
				C146.4,98.9,146.6,100.1,146.8,101.4"/>
			<path class="st6" d="M142,413.1c2.8-5.2,4.9-10.8,6.2-16.6c0,0.2,0,0.3,0,0.5c-0.2,3.4-0.4,6.8-0.6,10.2c0,0.6-0.2,1.2-0.4,1.8
				c-0.2,1,0.4,1.6,1.4,1.2c3-1.3,5.9-1.1,8.9-0.3c0.8,0.2,1.3-0.2,1.4-1c0.2-1.3,0.2-2.5,0.4-3.8c0.2-1.9,0.5-3.8,0.8-5.7
				c1.2,4.6,2.4,9.2,3.6,13.8c-1-0.6-1.9-1.3-2.9-1.8c-4.5-2-9.1-1.9-13.6-0.5C145.3,411.5,143.7,412.4,142,413.1"/>
			<path class="st8" d="M203.1,258.2c-2.7-4.7-5.3-9.5-8-14.3c2-0.9,4.2-1,5.7-3c0.5,2.1,1.4,3.7,1.5,5.6c0.1,3.5,0.6,7.1,0.9,10.6
				c0,0.3,0.1,0.6,0.1,0.9C203.2,258.1,203.2,258.1,203.1,258.2"/>
			<path class="st7" d="M193.9,147.2c-0.9-5-1.8-10-2.8-15.1c0.8-0.1,1.4-0.2,2.1-0.2c0.9,5.1,0.4,10.2,0.9,15.3
				C194,147.2,194,147.2,193.9,147.2"/>
			<path class="st3" d="M139.6,248.9c0.9,1,1.6,1.9,2.3,2.8c0.1,0.2,0.3,0.6,0.2,0.7c-0.9,1.7-1.8,3.3-2.7,5c-0.1,0-0.1,0-0.2,0
				C139.3,254.6,139.5,251.8,139.6,248.9"/>
			<path class="st4" d="M153.8,90.9c1-1.9,2.7-2.4,4.5-2.9c1.9-0.5,3.9-0.5,5.8,0c0.5,0.1,0.5,0.1,0.6,0.6
				C160.8,88.1,157.3,88.9,153.8,90.9"/>
			<path class="st4" d="M181.9,82.5c-1,0.3-2,0.5-2.9,0.9c-1.5,0.7-3,1.6-4.5,2.4c-0.2,0.1-0.4,0.2-0.7,0.2
				C176.1,84,178.7,82.4,181.9,82.5"/>
			<path class="st1" d="M183.2,172.5c-3.5,0-6.6,0.8-9.6,2.2c-0.4,0.2-0.8,0.4-1.1,0.7c-0.8,0.6-0.7,1.6,0.2,2
				c0.7,0.3,1.4,0.5,2.1,0.7c2.7,0.7,5.5,1.3,8.2,2c2.6,0.7,5,1.7,7.1,3.4c3.2,2.6,3.2,6.1,1.6,9c-1.2,2.1-3,3.7-5,5
				c-2.8,1.9-5.9,3.4-9.1,4.4c-2.8,0.9-5.8,1.7-8.7,2.4c-2.4,0.6-4.5-1.3-4.5-3.8c0-0.7,0.3-1.1,1-1.1c4,0,7.6-1.7,11.3-2.9
				c1.9-0.7,3.4-2,4.2-4c0.6-1.5,0.4-2.5-0.9-3.5c-1.7-1.4-3.7-2.4-5.8-3.2c-2.1-0.8-4.2-1.4-6.3-2.2c-0.9-0.3-1.8-0.7-2.6-1.2
				c-2-1.2-2.7-3.1-2-5.4c0.5-1.6,1.4-2.9,2.7-3.9c1.4-1,2.9-1.9,4.4-2.7c2.6-1.3,5.4-2.1,8.1-3c1.5-0.5,3.1-0.5,4.6-1.2
				c0.5-0.3,1.3-0.1,1.9,0.1c0.3,0.1,0.7,0.6,0.8,1c0.2,1.4,0.4,2.8,0.5,4.3c0,0.8-0.4,1.1-1.2,1.1
				C184.4,172.6,183.7,172.5,183.2,172.5 M166,200.8c0.3,1.7,1.1,2.3,2.7,2c3.2-0.6,6.3-1.5,9.4-2.7c3.2-1.3,6.4-2.7,9.1-4.9
				c1.7-1.4,3.2-2.9,3.8-5.1c0.5-1.8,0.1-3.5-1.2-4.9c-1.2-1.2-2.5-2.1-4.1-2.6c-2.4-0.8-4.9-1.4-7.4-2.1c-2-0.6-4.1-1.1-6.1-1.7
				c-1-0.3-1.6-1.1-1.7-2.2c-0.1-1.1,0.3-1.9,1.2-2.5c0.6-0.4,1.1-0.7,1.7-1c3.4-1.5,6.9-2.3,10.6-2.1c0.2,0,0.5,0,0.8,0
				c-0.1-0.9-0.2-1.8-0.3-2.7c-0.1-0.9-0.3-1.1-1.2-0.7c-0.2,0.1-0.4,0.1-0.6,0.1c-3.1,0.4-6.1,1.2-9,2.5c-2.4,1-4.8,2.1-6.9,3.7
				c-1.1,0.9-1.9,1.9-2.3,3.2c-0.6,1.8-0.1,3.2,1.6,4.1c0.8,0.4,1.7,0.8,2.6,1.1c2.6,1,5.2,1.8,7.7,2.9c1.7,0.7,3.2,1.8,4.7,2.9
				c1.3,1,1.6,2.4,1.2,4c-0.7,2.7-2.5,4.5-5,5.5C173.8,199,170.1,200.4,166,200.8"/>
			<path class="st1" d="M178.6,95.1c-0.4,0-0.7,0-1.1,0c-1.3-0.1-2.2-1-2.1-2.4c0.2-2.7,1.4-4.8,4-6c2.2-1,4.5-0.3,5.9,1.7
				c1.3,1.8,1.3,2.5-0.3,4.2c-1.3,1.4-3,2.1-4.9,2.4C179.6,95.1,179.1,95.1,178.6,95.1C178.6,95.1,178.6,95.1,178.6,95.1 M180,89.8
				C180,89.8,180,89.8,180,89.8c0.1,0.7,0.2,1.3,0.5,1.9c0.2,0.6,0.8,1,1.4,0.9c1.2-0.1,2.2-0.7,2.8-1.7c0.1-0.2,0.2-0.4,0.1-0.6
				c-0.4-1.3-1.8-2.5-3.2-2.5c-1.2-0.1-1.3,0-1.5,1.2C180.1,89.2,180.1,89.5,180,89.8 M180.1,93.8c-1.4-1.6-1.6-3.3-1-5.4
				c-0.4,0.3-0.6,0.5-0.8,0.7c-1,1-1.5,2.3-1.7,3.6c-0.1,0.6,0.1,1,0.7,1.1C178.2,93.8,179.2,93.8,180.1,93.8"/>
			<path class="st1" d="M158.7,100.2c-0.8-0.2-1.7-0.3-2.5-0.5c-1.1-0.3-1.2-0.5-1.2-1.7c0-1.9,0.7-3.4,2-4.7c2.7-2.8,7.5-2,9.3,1.5
				c0.4,0.8,0.4,1.6-0.2,2.3c-0.4,0.5-0.9,1-1.5,1.4C163,99.4,160.7,100,158.7,100.2 M159.5,93.2c-0.1,0-0.1,0-0.2,0
				c-1.7,0.7-3.2,2.5-3.1,4.9c0,0.1,0.2,0.3,0.3,0.4c1.6,0.6,3.3,0.4,4.9-0.1C159.2,95.9,159.1,95.7,159.5,93.2 M160.5,94.2
				c0,1.1,0.6,2.1,1.6,2.7c1.2,0.7,2.3,0.5,3-0.8c0.1-0.2,0.1-0.6,0-0.9c-0.6-1.3-1.7-2-3-2.3c-1.2-0.3-1.5-0.1-1.5,1.1
				C160.5,94.2,160.5,94.2,160.5,94.2"/>
			<path class="st1" d="M170.1,111.4c-1-0.1-1.8-0.2-2.5-0.3c-0.2,0-0.5-0.2-0.6-0.4c-0.1-0.2-0.2-0.6-0.1-0.8
				c0.1-0.2,0.5-0.3,0.7-0.3c0.4,0,0.7,0.2,1,0.3c0.8,0.3,1.6,0.4,2.4,0c3.1-1.2,6.2-1.9,9.5-2c1.1,0,1.1-0.1,1.4-1.1
				c0.1-0.2,0.4-0.4,0.6-0.4c0.4,0,0.6,0.3,0.5,0.7c-0.2,0.9-0.9,1.6-1.9,1.7c-1.1,0.1-2.3,0.1-3.4,0.3c-2,0.4-3.9,1-5.9,1.6
				C171.2,111.1,170.6,111.3,170.1,111.4"/>
			<path class="st1" d="M174.5,96.6c0.1-0.1,0.2-0.1,0.2-0.1c1.4,0.3,2.9,0.6,4.3,1c1.1,0.4,1.6,1.4,1.7,2.5
				c0.1,1.4-0.5,2.7-1.7,3.5c-0.4,0.3-1,0.2-1.5,0.3c-0.1,0-0.4-0.3-0.4-0.5c0-0.1,0.2-0.3,0.4-0.4c1.3-0.4,2.1-1.8,1.9-3.1
				c-0.2-0.9-0.7-1.3-1.7-1.4c-1-0.1-2-0.5-2.8-1.3C174.8,97,174.7,96.8,174.5,96.6"/>
			<path class="st1" d="M172,105.4c-0.8-0.1-1.4-0.5-1.6-1.2c-0.1-0.2,0.1-0.5,0.2-0.8c0.2,0.1,0.6,0.1,0.7,0.2
				c0.4,0.5,0.9,0.5,1.4,0.3c0.6-0.2,1.1-0.4,1.7-0.6c0.4-0.1,0.8-0.1,1.2,0c0.1,0,0.3,0.3,0.4,0.4c0,0.1-0.2,0.3-0.4,0.4
				c-0.6,0.3-1.2,0.5-1.9,0.7C173.1,105.1,172.5,105.2,172,105.4"/>
			<path class="st6" d="M166,200.8c4-0.4,7.8-1.7,11.5-3.1c2.5-1,4.3-2.8,5-5.5c0.4-1.6,0.1-3-1.2-4c-1.5-1.1-3.1-2.2-4.7-2.9
				c-2.5-1.1-5.1-1.9-7.7-2.9c-0.9-0.3-1.8-0.6-2.6-1.1c-1.7-0.9-2.2-2.3-1.6-4.1c0.4-1.3,1.3-2.4,2.3-3.2c2.1-1.7,4.5-2.7,6.9-3.7
				c2.9-1.2,5.9-2.1,9-2.5c0.2,0,0.4-0.1,0.6-0.1c0.9-0.4,1.1-0.3,1.2,0.7c0.1,0.9,0.2,1.7,0.3,2.7c-0.3,0-0.6,0-0.8,0
				c-3.7-0.2-7.2,0.6-10.6,2.1c-0.6,0.3-1.2,0.6-1.7,1c-0.9,0.6-1.3,1.4-1.2,2.5c0.1,1.1,0.7,1.9,1.7,2.2c2,0.6,4.1,1.1,6.1,1.7
				c2.5,0.7,5,1.3,7.4,2.1c1.6,0.5,2.9,1.4,4.1,2.6c1.4,1.4,1.7,3,1.2,4.9c-0.6,2.2-2.1,3.7-3.8,5.1c-2.7,2.2-5.9,3.6-9.1,4.9
				c-3,1.2-6.2,2.1-9.4,2.7C167.2,203.1,166.3,202.4,166,200.8"/>
			<path class="st4" d="M180,89.8c0-0.3,0.1-0.6,0.1-0.9c0.2-1.2,0.3-1.3,1.5-1.2c1.4,0.1,2.8,1.2,3.2,2.5c0.1,0.2,0,0.4-0.1,0.6
				c-0.6,1.1-1.6,1.6-2.8,1.7c-0.7,0.1-1.2-0.3-1.4-0.9C180.2,91.1,180.1,90.4,180,89.8C180,89.8,180,89.8,180,89.8"/>
			<path class="st7" d="M180.1,93.8c-0.9,0-1.9,0-2.8,0c-0.6,0-0.9-0.5-0.7-1.1c0.3-1.3,0.7-2.6,1.7-3.6c0.2-0.2,0.4-0.4,0.8-0.7
				C178.5,90.4,178.7,92.2,180.1,93.8"/>
			<path class="st7" d="M159.5,93.2c-0.4,2.5-0.3,2.8,1.9,5.2c-1.7,0.5-3.3,0.7-4.9,0.1c-0.1,0-0.3-0.2-0.3-0.4
				c-0.1-2.3,1.4-4.2,3.1-4.9C159.3,93.1,159.4,93.1,159.5,93.2"/>
			<path class="st4" d="M160.5,94.2c0,0,0-0.1,0-0.1c0.1-1.3,0.3-1.5,1.5-1.1c1.4,0.3,2.4,1.1,3,2.3c0.1,0.2,0.1,0.6,0,0.9
				c-0.7,1.3-1.8,1.5-3,0.8C161.1,96.3,160.5,95.3,160.5,94.2"/>
		</g>
	</g>
</g>
<path id="BF" class="st9" d="M589.3,135.3l-0.3,0.9l0,1.7l-0.3,2.6l-0.4,3.1l1.7,2l2,2.2l0.5,0.8l-0.5,2.1l0.4,1.3l1.1,2.1l1.8,2.7
	l1.9,2.7l1.3,0.4l1.2,0.2l0.8,0.5l1.1,0.5l1.1,0.3l1,0.6l0.6,0.6l0.8,1.7l2.1,1.1l1.5,1.1l-0.6,0.6l-1.8-0.2l-1.7-0.5l-0.2,0.8
	l-0.1,3.1l0.3,2.6l0.4,0.3l1.7,0.5l4.2,3.3l3.8,3.2l1.3,0.8l2.1,0.3l2.3,0.1l1-0.3l2.3-1.6l1.2-0.2l1.1,0l0.6,0.3l1.1,1.3l1,2
	l0.3,1.4l-0.1,0.8l-0.3,0.3l-1.9,0.4l-0.8,0.3l-0.2,0.4l0.3,1l0.4,0.6l2,2.8l2.9,3.8l0.9,1l-0.5,1.1l-1.5,3l-1.1,1.2l-4.9,4.2
	l-2.4-0.5l-5.1,0.8l-0.8-1l-1.2-0.1l-1.5,0.2l-0.5,0.4l-0.2,0.4l-0.5,0.6l-0.9,1.7l-0.7,0.4l-0.9,0.3l-1.1,0l-0.6,0.2v0.8l-0.2,0.7
	l-0.7,0.4l-0.3,0.8l0.1,0.8l-0.4,0.4l-1-0.2l-0.6-0.2l-0.5,1l-0.7,0.7l-0.5,0l-5.1,0.2l-1.8,0.5l-1.1,0l0-0.5l-0.1-0.3l-6.4-1.5
	l-4.5-0.9l-4.5-1l-0.3,1l-0.6,0.6l-1,0l-0.7-0.1l-0.5,0.7l-0.8,1l-1,0.5l-1,0.6l-0.6,0.5l-0.4,0l-1-1.2l-1.4-0.1l-2.6,0.2l-1.2-0.3
	l-1.6-0.2l-3.7,0.3l-6-0.5l-1,0.3l-0.3,0.2l-5.9,0.1l-6.5,0.1l-5.4,0.1l-4.8,0l0-0.2l-1.5,0l-0.2,0.4l-1.3,4.9l-0.1,2.7l0.7,1.7
	l0.8,1.1l0.9,0.4l0.1,0.6l-0.7,0.8l0.1,0.8l0.9,0.8l0.2,0.9l-0.4,0.9l0.1,2.2l0.6,3.4l0,2.2l-0.6,1l0.3,1.7l1.2,2.5l0.2,1l-0.4,0.5
	l-1,0.6l-1,0l-1.1-1.5l-0.5-0.7l-0.9-1.5l-0.8-1.5l-1.1-0.7l-1-0.6l-1.3-1.9l-1.2-0.9l-1.3,0.3l-1.9-0.4l-3.8-0.5l-4.1,0.1l-1.7,0.4
	l-1.7,0.7l-4.3,1.5l-1.7,0.8l-1.3,1.9l-1.5,0l-1.4-0.6l-0.9-0.9l-1.9,0.2l-1.9-0.8l-1.8-1.7l-1.3-0.6l-1.7-1.2l-0.5-2.3l-1.1-1.6
	l-1-2.3l-1.5-1l-1.7-0.5l-2.4,0.1l-1.5-0.9l-1.2-1.3l0.3-1.1l0.6-1.6l0.1-1.6l0.4-2.5l-0.2-3.2l-0.4-2.2l1.3-0.9l1.5-0.8l0.9-1.5
	l1-3.4l0.4-2.9l-0.3-1.1l-0.5-0.9l-0.4-1.3l-0.2-1.5l0.3-1.3l1.1-1.2l1.4-1l1-0.5l2.7-0.5l3.4-0.8l1.9-0.9l1.4-0.9l0.8-0.7l0.8-1.4
	l1.3-1.1l1-1.1l0.1-3.1l0-1.8l-0.7-1l-0.4-0.8l5-2.4l0-1.7l-0.7-1.9l-1-1.5l-0.4-1.3l1.4-1.6l1.2-1.2l0.9-1l2-1.5l2-0.4l1.8,0.6
	l5.4,3.6l0.9,0.2l1.1-0.3l1.4-1l1.9-0.7l0.7-2.4l-0.1-3.5l0.4-1.6l1-0.3l3.1,0.7l0.8,0l0.9-0.2l0.7-0.6l0-1.1l-0.1-1l1-3.3l1.9-2.5
	l3.8-3.1l1.2-0.6l1.4-0.3l6.8,2.1l1.1-0.5l1.6-5.3l1.8-0.5l2.2-0.1l1.4-0.5l0.7-0.4l3.2-2l5.7-2.7l3-1.2l0.6-0.4l2.2-1.9l2.9-2.2
	l1.8-0.4l2.6-0.2l1.6,0.4l0.4,0.6l0.5,0.3l3.3-0.9l4.8,1.5L589.3,135.3z"/>
<path id="BJ" class="st9" d="M655.5,199.7l-0.8,1.3l-1.2,2.6l-0.1,2.1l3,4.3l0.3,0.4l0.8,0.7l0.4,0.8l0.4,2.1l0.2,2.4l0.2,1.6
	l1.4,2.3l0.1,0.9l-1,3.4l-0.2,0.4l-0.3,0.1l-1.5-0.3l-0.7,0.4l-0.8,1.2l-0.5,1.2l0,0.5l1.4,2.1l-0.9,3.1l-0.9,1.9l-1.6,1.1l-1.4,0.3
	l-1,0.5l-0.6,0.7l0.1,2.2l-2.1,2l-1.2,1.4l-0.6,0.8l0.2,2.6l-0.7,2.6l-1.3,2.1l-2.9,0.4l-2.4,0.3l-0.8,5.2l0,3.3l-0.2,3.4l-0.4,1.4
	l0.2,1.9l-0.2,4.4l-0.3,3.5l0.4,0.9l0.2,2l0,2.1l0.6,1.5l0.7,1.3l0,0.7l-0.4,0.4l-0.3,0.5v4.9l0.1,1.5l-0.2,0.9l-0.5,0.8l0.2,2.5
	l0.4,1.6l0.4,1.2l-0.4,1l-0.4,1.3l-0.5,3.3l0,1.1l-8.2,0.8l-9.2,1.3l-3.8,0.9l-0.2-0.7l3.3-0.9l-0.7-2.6l-2-3l-0.8-0.6l-0.4-1.5
	l0.5-1l-0.2-0.7l-0.2-2.1l-1-2.3l1.8-0.1v-7.3v-7v-6v-4.7l-0.4-5.7l0-4.2l-0.1-5.5l-0.7-1.7l-2.8-2.9l-0.8-1.5l-0.1-2l-0.6-2.1
	l0-3.6l0-4.2l-0.3-0.7l-3-2l-4.3-2.8l-3.3-2.2l-0.2-0.2l-0.3-0.5l0.5-6.4l0.7-0.8l1-2.6l0.5-2.1l0.5,0l0.7-0.7l0.5-1l0.6,0.2l1,0.2
	l0.4-0.4l-0.1-0.8l0.3-0.8l0.7-0.4l0.2-0.7v-0.8l0.6-0.2l1.1,0l0.9-0.3l0.7-0.4l0.9-1.7l0.5-0.6l0.2-0.4l0.5-0.4l1.5-0.2l1.2,0.1
	l0.8,1l5.1-0.8l2.4,0.5l4.9-4.2l1.1-1.2l1.5-3l0.5-1.1l0.5-2l-1-3.8l0.1-0.7l2-0.8l2.5-0.6l1,0l0.7-0.3l0.9-0.8l1.5-0.6l0.9,0.2
	l0.5,0.1l5.3,5l2.3,2.5l0.6,1.3l1.2,0.9l1.8,0.6l1.6,1.3L655.5,199.7z"/>
<path id="CI" class="st9" d="M476.7,224.9l1.2,1.3l1.6,0.9l2.4-0.1l1.7,0.5l1.5,1l1,2.2l1.1,1.6l0.5,2.3l1.7,1.2l1.3,0.6l1.8,1.7
	l1.9,0.9l1.9-0.2l0.9,0.9l1.5,0.6l1.5,0l1.3-1.9l1.7-0.8l4.3-1.5l1.7-0.7l1.7-0.4l4.1-0.1l3.8,0.5l1.9,0.4l1.3-0.3l1.2,0.9l1.3,1.9
	l1,0.6l1.1,0.7l0.8,1.5l0.9,1.5l0.5,0.7l1.1,1.5l1,0l1-0.6l0.4-0.5l0.2,1l-0.4,1.6l0.1,1l0.5,0.4l-0.3,1.3l-1.1,2.2l0,1.3l1.1,0.4
	l0.8,1.3l0.5,2.3l0.5,0.8l0,0.5l0.8,5.6l1,5.6l-0.6,0.7l-0.9,0.2l-0.6,0.3l-0.2,0.5l0.4,0.8l-0.2,0.7l-1.1,0.5l-2.4,1.8l-0.2,0.7
	l-0.6,1.5l-0.5,0.9l-0.8,1.7l-1.2,4.5l-0.5,3.8l-0.1,1.2l-0.5,0.8l-0.5,1.2l-2.6,3.2l-1.3,2.6l0.2,1.1l0.1,1.1l-0.4,0.8l0.1,2.2
	l0.3,1.9l0.5,1.8l1.9,5.1l1,3.1l0.6,2.5l0.5,1.7l0.5,0.7l0.2,0.6l2.8,0.5l0.5,0.4l0.8,3.3l-0.1,1.5l-0.5,0.6l0,1.3l-0.1,1.6
	l-0.4,0.6l-1.6,0.1l-1.1,0.6l-1.4-0.2l-0.1-0.4l-0.7-0.1l-2.1-0.9l0.3-2.8l-1-0.1l-0.7,0.4l-1.5,3.4l-0.7,0.6l-10.3-1.8l-2.2-1.4
	l-2.7-0.3l-4.7,0.2l-3.8,0.4l-1.1,0.9l9.7-0.5l1,0.1l0.5,0.5l-12.2,1.1l-4.7,0.7l-1.4-0.2l-1-1.1l-5.1-0.1l-1,0.4l-0.6,0.8l2-0.2
	l3.2,0l0.8,0.6l-9.9,0.8l-6.8,1.5l-2.9,1.1l-9.5,3.7l-5.8,1.8l-1.5,0.6l-2.6,1.8l-3.4,1.2l-3.8,2.2l-2.3,0.5l-0.5-0.7l-0.1-3.6
	l-0.3-4.9l0.1-1.9l0.3-1.8l0-1.5l1.2-0.5l0.3-0.6l0.2-1.9l1.1-1.7l0-3l0.3-0.6l0.2-0.8l-0.5-2l-0.6-3.7l-0.3-0.2l-0.3,0.2l-0.6,0.1
	l-2.4-1.3l-1.9-0.2l-1.3-1.1l-0.1-1.3l-0.6-0.7l-0.4-1.4l-0.6-1.7l-1.8-1l-1.7-0.2l-1.2,0.2l-1.4-0.1l-1.6-0.6l-1.1-0.6l-1.1-1.2
	l-1-1l-0.8,0.1l-1-0.2l-1-0.4l-0.3-0.3l4-3.9l1.3-1.9l0.1-1.2l0-1.2l0.4-1.2l0.1-1.8l-2.2-6.6l-0.6-2.1l-0.6-0.6l-0.4-0.2l1.1-0.9
	l1.5,0.2l2.3,0.7l0.5-0.7l1.8-3.4l0-1.2l-0.2-0.9l1-2.3l0.8-0.9l0.4-1l-0.1-1.3l-0.6-0.5l-0.8,0.1l-1-0.3l-1.5-0.8l-0.8-0.7l0.2-3
	l0.1-0.9l0.5-0.5l0.8-0.1l2.3-0.1l1.9,0.3l1.7,0.2h0.9l0.7,0.9l1,0.9l0.8,0l0.3-0.7l-0.2-3l-0.6-1.6l-1.3-1.5l-3.3-1.3l-0.1-1.8
	l0.3-2l0.7-0.7l2.4-1.3l-0.4-0.7l-0.8-0.7l-1.5-0.7l0.4-2.4l0.1-2.1l-1.3,0.2l-1.3,0.1l-1.1-0.6l-1-1.3l-0.2-3.5v-4.1l-0.2-1.8
	l0.4-1l1.2-0.9l1.3-1.2l0.4-0.7l0.6,0l1.5-0.4l1.4-1l1.3-2.1l1.7-1.7l1.9,0.1l0.6-0.3l0.7-0.1l0.8,1.1l0.8,0.8l0.6,0l0.4,1.6
	l3.5,0.7l1.5,0.4l1.3,1.2l0.4,0l0.5-0.2l0.4-0.4l0.1-0.4l-0.6-1l0.2-0.9l0.6-0.8l0.9-0.1l1.4-0.2h1.6l1.2,0.2l0.5-0.8l-0.4-2.4
	l0.1-1.3l0.2-1.1l0.4-0.4l1.8,1.4l1.6,0.5l1.2,0l0.3-0.3l-0.5-1.5l0.1-0.5l0.4-0.3l0.8-0.2l2-0.6l0.2,0.1l0.4,2.4l-0.2,0.8l0.4,1.6
	l0.5,1.5l0,0.6l-0.4,0.9l-0.5,0.9l0.1,0.3l0.8,0.6l1.6,0.6l1.6,0.1l0.9-0.9l0.9-0.7l0.6-0.6l0.2-0.9l1-0.7l2.9-0.9l2.7-0.1
	L476.7,224.9z M524.5,329.1l-0.5,0.8l-2.6-0.5l0.6-0.6L524.5,329.1z"/>
<path id="CM_1_" class="st9" d="M791,386.9h-3.8h-6.4l-2.2-0.9l-0.6-0.6l-0.1-0.6l-0.1-0.4l-0.5-0.1l0.4-4.6l0.9-3.8l0.3-3.5
	l1.2-3.2l-0.7-3.1l-0.8-1.4l-4-4.4l1.8-1.7l-2.4,0.2l-0.5-1.7l-1.2-2l0.7-0.3l0.7-1.1l2.2,0.3l-0.1-0.5l-1.9-1.7l0.2-0.8l0.8-0.9
	l-0.4-0.4l-1.4,1l-1,0l-0.8-0.6l-0.6-0.1l0.3,1.3l-0.8,1.1l-0.7,0.4l-1.2-0.1l-1-0.3l-0.3-0.6l-0.9-0.5l-2.7-0.8l-2.2-1l-0.4-2.7
	l-0.9-1.2l-0.4-1.3l-0.2-1.5l0.3-2.3l-0.6-0.4l-0.6-0.1l-1,0.1l-0.9-0.1l-1.1-1.3l-0.9-0.5l0.6,2.4l-0.7,0.7l-1.6-0.2l-0.7-0.9
	l-0.1-0.7l0.7-2.9l-0.3-0.1l0.6-1.5l1.1-1.8l1.5-2.3l1.7-2.9l1.1-5.2l0.8-3.2l0.7-3l1.2-2.7l1.2-1.8l3.5-3.5l2.6-2.6l1.3-1.1
	l0.9-0.9l1.6-1l1.7-1.2l1.3-2.3l1.1-2.2l0.8-0.5l1.1-0.4l3.2-2.3l2-1.5l0.5,0.7l0.3,0.9l0.4,0.4l1.7,0.3l2.4,0l1.4-0.3l0.7-0.8
	l0.7-2.1l0.4-0.4l0.6-0.1"/>
<path id="CV" class="st9" d="M91.4,94.1l-1.9,0.4l-0.8-0.2l-0.3-1.6L88,91.6l0.1-0.5l4.4-2.1l1.5,0.3l1.1,1.7L94.4,92L91.4,94.1z
	 M96.9,96.7l-1.6,0.5l-1-0.1l-1.4-0.7l0.4-0.8l1.6-0.9l1.1-0.2l0.9,1.5L96.9,96.7z M136.1,99.9l-0.6,1l-0.8-1.5l-0.4-0.4l-0.2-2.2
	l1.1-0.7l0.6-0.1l0,2.3L136.1,99.9z M112.6,100.7l0.8,0.6l0.3,0.4l-1.2,0.2l-2.9-0.8l-0.8,0.5l-0.8,1.7l-1.5-2.6l0.1-0.9l0.3-0.3
	l2.1,0.7L112.6,100.7z M135.5,108.5l1.6,0.4l0.6-0.1l1,0.1l1.1,1.1l0.2,1.1l-0.6,1.4l-2.2,1.2l-1.3-0.1l-1.5-1.1l0.8-2.1
	L135.5,108.5z M125.2,133.4l-1.2,1.9l-2.6-0.1l-1.3-0.8l-1.6-2.3l0-1.8l0.6-1.6l-0.1-1.4l0.2-0.4l0.8,0.2l0.1,0.9l2.4,2.2l0.9,0.4
	L125.2,133.4z M130.3,130.8l-0.5,0.1l-0.8-0.9l0.2-1.3l-0.1-0.3l0.7-1.3l1.4,0.1l0.4,1l0.1,2.1L130.3,130.8z M108.3,136.4l-1.5,0.8
	l-1.1-0.3l-1-0.8l-0.5-1.2l0.4-1l2.1-1.2l1.2,0.4l0.7,1.8L108.3,136.4z"/>
<path id="DZ_2_" class="st9" d="M789.2-23.2l-10.2,6.4l-10.2,6.4l-10.2,6.4l-10.2,6.4l-10.2,6.4l-6.7,4.2l-4.3,3.7l-5.4,4.7
	l-5.1,4.6l-4,3.6l-5.2,4.7l-2.6,2.4l-5.8,5.2l-1.7,0.9l-7.6,1.5l-7,1.4l-6.5,1.3l-4.4,0.9l-4.3,0.9l-6.2,1.2l-4.4,0.9l-4.8,0.9
	l-0.7,0.2l-0.9,0l-0.6,0l-1.3-0.5l-1.6-1.2l-1.1-0.6l-0.3-1l0.6-1.3l0.8-1.2l0.3-0.9l0.5-0.7l0.7-0.6l0-0.8l-0.6-1.3l-0.5-1.8l0-3.3
	l0-1.1v-0.4l-1.4-1.3l-2.7-1.4l-2.5-0.8l-1.1-0.3l-2.7-0.5l-3.8-0.9l-1.3-0.6l-2.5-3l-1.2-0.8l-5.7-0.5l-1.9-0.5l-1.6-0.7l-1.3-1
	l-0.7-1.7l-0.2-1.4l-0.5-0.7l-6.3-3.3l-1.6-1.1l-0.8-1l0-1.5l0.2-1.9l-0.3-1.7l-0.3-0.8l-2.9-2l-6.4-4.5l-6.4-4.5l-6.4-4.5l-6.4-4.5
	l-6.4-4.5l-6.4-4.5l-6.4-4.5l-6.4-4.5l-6.4-4.5l-6.4-4.5l-6.4-4.6l-6.4-4.6l-6.4-4.6l-6.4-4.6l-6.4-4.6l-6.4-4.6l-5.4-3.9l-6-4.1"/>
<path id="DZ_1_" class="st9" d="M781.7-75.4l1.8,5.6l1.9,2.4l0.7,1.8l1.4,1.3l1.4,1l0.9,0.1"/>
<path id="EH" class="st9" d="M349.3-72.6v2.9v2.9v2.9v2.9v2.9v2.9v2.9v2.9v2.9v2.6l-0.1,2.3l-1.2,0.7l-2.8,1.2l-2.9,1.3l-3.7,0.6
	l-1.2,0.4l-2.3,1.7l-3.1,2.2l-2.7,1.9l-1.8,2.5l-0.6,1.3l-0.3,1.4L327-25l1,2.7l0.3,1.4l0.1,2.4l0.2,2.6l0.2,2.8l0.2,2.8l0.2,3
	l0.2,3l0.2,3l0.1,2.2l0.2,2.8l-3,0h-4.5l-4.5,0l-4.5,0l-4.5,0l-4.5,0l-4.5,0h-4.5l-4.5,0l-4.5,0l-4.5,0l-4.5,0l-4.5,0l-4.5,0h-4.5
	l-4.5,0l-4.5,0l-2.5,0l-0.8,3.9l-0.7,2.8l-0.4,2.3l0.3,1.9l-1-1.1l1.7-10.9l0.1-0.9L253-8.4l2.7-5.5l2.1-2.4l3.3-1.3l3.1-5.5
	l1.1-5.1l2-2.3l0.6-1.8l-0.8-1.4l1.9-2.7l2.3-4.2l1.1-2.7l2.7-4.2l0.3-0.9l-0.2-1l-1.1,0.9l-1.1,1.6l-1.3,1.2l0.5-1.5l1-2.2l2.4-2.3
	l3.8-2.6l7.8-8.7l2.9-1.5l2.6-3.7l0.9-3.3l0.3-7.5"/>
<path id="GA_1_" class="st9" d="M771.2,466.9l-0.2-0.8l-2.8-1.3l-1.5-0.1l-0.3-0.9l0.2-1l-2-3.9l-2.1-2.9l-0.3-1.4l5.5,6.3l0.7,0.1
	l1-0.1l2.3-0.7l-0.4-0.8l-1-0.9l-1,0.4l-1.3,0.1l-0.7-0.4L767,458l1.3-3.1l-0.6,0.2l-0.4,0.5l-0.7,0.3l-1.1,0.2l-2.7-1.6l-2.4-4.4
	l-0.6-0.9l-0.6-1.5l-0.6-0.6l-2.8-6.3l1.1,0.5l1.3,1.8l2.5-0.4l1-1l0.8,0l0.9-0.2l1.1-1l3.1-4.3l0.8-5.7l-0.3-3.4l-0.5-3.4l1-1.1
	l0.4,0.7l0.2,1.2l0.5,0.9l1.1,0.8l2.1,0.2l3.2,1.3l1.1,0.8l0.3-1.6l3.7-1.3l-1.1-0.5l-3.3,0.5l-4.5-2l-1.5-1.3l-1.4-2.4l-1.4-1.3
	l0.1-1.1l3.2-1.1l0.9,0.1l0.3,1.3l0.9,0.5l0.3-0.2l0.1-1.1l0-2.9l-1-4.1l0.3-0.8l0.9-0.3l0.8-0.5l0.6-0.1l1.1,0.1l0.6,1l0.3,0.5
	l1.1,0.2l0.9,0.5l0.8-0.1l0.7-0.6l1-0.1l3,0l2.7,0l5.3,0"/>
<path id="GA_2_" class="st9" d="M768.8,467.7l-1.4-1.4l0.9-0.2l2.8,1.3"/>
<path id="GH" class="st10" d="M583.7,211.2l1.3,1.2l0.3,0.7l-0.5,2.6l-0.9,1.8l-0.6,1.7l0.1,0.8l0.6,0.8l1.9,1.3l1,0.9l1.2,1.3
	l1.3,1.3l2.3,1.7l1,0.3l0,0.5l-0.3,0.6l-0.2,6.2l-0.2,1.6l-0.2,0.8l-0.2,2.3l-0.2,0.3l-0.4,0l-0.4,0.1l-0.1,0.5l0.2,0.5l1.4,0.3
	l-0.3,0.3l-1,0.3l-0.5,0.7l0.2,0.8l-0.6,0.6l0.2,0.4l0.4,0.3l0.6-0.1l1.6-1.1l0.7-0.1l0.8,0.2l1.5,1.6l0.1,0.8l-0.6,2.7l-0.6,2.1
	l-0.1,2.8l0.6,1.6l-0.1,0.9l-0.7,0.7l-1.6,1.1l0.1,0.7l0.7,1.4l1.3,1.5l2.6,1.9l1.4,2.5l0,1l-0.8,1l-0.9,0.9l-0.3,1.3l0.4,8.2
	l-2.1,3.6l0,1l0.2,1.2l0.5,0.7l1,0.2l0.9,0.7l-0.3,2.5l-0.5,2.5l-0.1,1.2l-0.3,0.6l-0.8,0.5l-0.3,0.8l0.2,1l-0.2,0.7l0.4,1l0.9,1.2
	l1.5,2.9l0.6,0.2l0.3,0.6l-0.2,0.6l0.6,1.3l1.7,1.3l1.8,1.1l1.4,0.2l0.3,1l0.9,1.3l0.7,0.6l1.1,0.4l0.9,0.2l0,1.1l-1.6,0.7l-1.1,1.1
	l-0.8,1.7l-1.1,1.9l-3.9,1l-1.5,0l-8.1,0l-7.6,3.7l-4.4,1.3l-2.7,2.1l-3.6,1.5l-2.5,1.8l-5.2,0.9l-8.6,2.8l-2.7,1.1l-2.7,2l-4.4,2.3
	l-1.7,0l-3.5-2.2L538,333l-6.4-1.6l-4.7-0.6l-2.3-0.7l-0.6-0.1l0.5-0.8l1.3,0l1.4,0.2l1.1-0.6l1.5-0.1l0.4-0.6l0.1-1.6l0-1.3
	l0.5-0.6l0.1-1.5l-0.8-3.3l-0.5-0.4l-2.8-0.5l-0.2-0.7l-0.5-0.7l-0.5-1.7l-0.6-2.5l-1-3.1l-1.9-5.1l-0.5-1.8l-0.3-1.9l-0.1-2.2
	l0.4-0.8l-0.1-1.1l-0.2-1.1l1.3-2.6l2.6-3.2l0.5-1.2l0.5-0.8l0.1-1.2l0.5-3.7l1.2-4.5l0.8-1.7l0.5-0.9l0.6-1.5l0.2-0.7l2.4-1.8
	l1.1-0.5l0.2-0.7l-0.4-0.8l0.2-0.5l0.6-0.3l0.9-0.2l0.6-0.7l-1-5.6l-0.8-5.6l0-0.5l-0.5-0.8L533,254l-0.8-1.4l-1.1-0.4l0-1.3
	l1.1-2.2l0.3-1.3l-0.5-0.4l-0.1-1l0.4-1.6l-0.2-1l-0.2-1l-1.2-2.5l-0.3-1.7l0.6-1l0-2.2l-0.6-3.4l-0.1-2.2l0.4-0.9l-0.2-0.9
	l-0.9-0.8l-0.1-0.8l0.7-0.8l-0.1-0.6l-0.9-0.4l-0.8-1.1l-0.7-1.7l0.1-2.7l1.3-4.9l0.2-0.4l1.5,0l0,0.2l4.8,0l5.4-0.1l6.5-0.1
	l5.9-0.1l0.3-0.2l1-0.3l6,0.5l3.7-0.3l1.6,0.2l1.2,0.3l2.6-0.2l1.4,0.1l1,1.2l0.4,0l0.6-0.5l1-0.6l1-0.5l0.8-1l0.5-0.7l0.7,0.1l1,0
	l0.6-0.6l0.3-1L583.7,211.2z"/>
<path id="GM" class="st9" d="M256.2,172.4l-0.1-1.7l-1.1-3.9l1.5-1.7l1.6-1l1.1,0.8l0.3,1.6l0.8,1.1l2.8,0.7l2.8-0.5l1.7,0.2l0-0.9
	l0.6-1.2l3.4-0.5l3.6-0.3l3.7-0.7l2.9,0l0.9-0.2l-0.2-0.3l-2.6-0.3l-5.5,0.8l-5.6,0.2l-4.2,2.1l-1.7-0.2l-1.8-2.1l-0.6-2.6l5-0.2
	l6,0.1l6.6,0.1l3.1,0l1.6-2.8l3.1-1.2l3.2-0.5l1.6,0.1l1.7,0.4l3.3,2.3l2.1,0.5l1.8,0.5l1.3,1.1l2,1.1l1.6,0.3l0.9-0.2l1.6-0.4
	l1-0.3l3.3-0.1l2.4,1.3l0.5,1.4l-0.4,1.5l-3.3,0.8l-4.5,1.2l-3.8-0.7l-4.6-1.7l-2.7-1.2l-1.1-0.5l-1.7-0.8l-1.5-0.8l-1.4-0.5
	l-1.1-0.3l-0.8,0.4l-0.4,1l-0.6,1.1l-0.8,0.7l-3.8,0.4l-3.4,0.4l-1.8,0.3l-1.2,0.3l-0.4,3.4l-3.9,0l-3.8,0l-4,0.1l-4.3,0.1l-1.1,0.7
	L256.2,172.4z"/>
<path id="GN" class="st9" d="M361.6,185.6l-0.6,0.5l-0.6,1.2l-0.5,1.4l-0.5,1l0.2,0.6l1.5,1.3l2.1,1.8l0.9,0.2l1-0.4l1.6-1.4
	l1.3-1.5l1.2-0.7l1.4,0l1.1,1.1l1.4,2.3l1.2,2.1l0.2,0.2l0.5,0.3l0.6,0l0.7-0.5l0.5-0.3l0.6-1l2.4-3l1.8-0.8l0.6-0.2l1.3-0.4
	l2.1,0.7l3.1,1.2l3.7,1.5l1.3,0.3l0.8-0.3l1.1-2l1.4-0.8l2-0.9l1.6-0.5l0.9-0.1l0.3-0.5l0.2-0.8l-0.2-0.8l-1-1.5l0-0.4l0.6-0.3
	l1.3-0.2l1.7,0.2l1.9,0.7l1.5,0.9l0.9,1.1l0.9,2.4l0.7,2.3l1.9,3.7l0,2.3l0,2.7l0.8,0.5l0.9,0.2l0.4,0.4l0.9,2l0.9,0.6l1,0.1
	l1.9,1.3l1.2,0.5l0.2,0.4l0,0.5l-0.5,0.7L419,208l-1.1,0.9L417,210l-1.9,2.8l-0.1,0.5l0.4,0.4l0.8,0.1l0.8-0.2l1.7-1l1.4,0.4
	l1.3,0.8l0.5,0.8l0.1,1.1l-0.3,1.4l0,1.5l0.4,2.6l0.7,2.6l0.7,1l4.4,2.3l0.4,0.9l0.2,1l-0.3,1.3l-0.5,0.7l-1.3,1.2l-1.2,0.9l-0.4,1
	l0.2,1.8v4.1l0.2,3.5l1,1.3l1.1,0.7l1.3-0.1l1.3-0.2l-0.1,2.1l-0.3,2.4l1.5,0.7l0.8,0.7l0.4,0.7l-2.4,1.3l-0.7,0.7l-0.3,2l0.1,1.8
	l3.3,1.3l1.3,1.5l0.6,1.6l0.2,3l-0.3,0.7l-0.8,0l-1-0.9l-0.7-0.9h-0.9l-1.7-0.2l-1.9-0.3l-2.3,0.1l-0.8,0.1l-0.5,0.5l-0.1,0.9
	l-0.2,3l0.8,0.7l1.5,0.8l1,0.3l0.8-0.1l0.6,0.5l0.1,1.3l-0.4,1l-0.8,0.9l-1,2.3l0.2,0.9l0,1.2l-1.8,3.4l-0.5,0.7l-2.4-0.7l-1.5-0.2
	l-1.1,0.8l-0.7-0.5l-0.8-0.8l-0.3-1l-0.6-0.2l-1,0l-1,0.6l-0.4,1.1l-0.1,1.2l-0.1,0.9l-0.6,0.6l-1.2,1.5l-0.5,1.4l-0.7,1.2l-1-0.1
	l-0.4-0.2l-0.3,0.3l-1.5,0.7l-1.3,0.2l-0.3-0.7l-0.7-0.5l-0.8-1.1l-0.9-0.9l-1.8-0.6l-0.7,0.3l-0.9-0.1l-0.6-0.3l0.1-0.5l0.9-1.3
	l0.5-1.2l0.3-1.3l0-1.3l-0.5-1.8l-0.8-1.4l-0.2-0.8l0.1-1.2l-0.2-1.1l-0.3-0.6l-0.1-1.1l-0.3-1l-0.5-0.4l-0.3-1.6l0.1-1.7l-0.7-0.6
	l-1.1-0.5l-0.7-0.7l-0.4-0.7l-0.4-0.2l-0.3,0l-0.3,0.5l-0.4,0.1l-0.6-1.6l-0.3-0.1l-0.4,0.4l-5.1,1.8l-0.2-0.7l-0.4-0.8l-1-0.3
	l-1.7,0.6l-1,0.1l-1.5-0.2l-0.7,0.3l-2,2.3l-1.2,0.9l-0.9-0.1l-1-0.2l-0.7,0.2l-0.5-0.3l0.2-0.6l0.5-0.7l1-2.6l2.5-2.6l0-0.5l-1-1.5
	l-1.1-2v-2.2l-0.2-1.6l-2.2-0.4l-0.4-0.3l-0.1-0.5l0.6-1.4l0.7-1.3l0.1-0.6l-0.2-0.5l-1.3-1.4l-2.1-2.6L370,240l-1.7-2.5l-1.3-1.1
	l-1.3-1.6l-0.5-1l-1.3-0.4l-3.9,0l-4.7,0l-3.9,0l-0.2,1.4l-4.3,0.9l-2.7-1.1l-2.9,0.6l-1.4,0.7l-0.4,1.5l-0.7,1.6l-0.6,0.7l-0.3,0.7
	l-0.4,0.7l-0.6,0.8l-0.6,1.5l-1.4,2.2l-1.5,1.4l-2.5,0.8l-0.8,2.3l-0.6,0.9l-1,0.7l-1,0.4l-1-0.3l-1.1-0.2l-1.1,0.4l-0.2-0.6
	l0.7-1.8l-0.5-0.9l-2-1.9l-0.2-0.9l-0.6-1.2l-2.6-2.4l-2.4,0.2l0.7-2l0-2.7l-0.8-1.5l0.2-1.5l-0.4,0.1l-0.8,1l-1.3-0.3l-2.6-1.6
	l-1.3-1.6l-0.2-1.3l-0.3-0.5l-0.8,0.3l-1.6,0l-5-2.4l-3.6-6l-0.1-1.3l0.5-2.3l-0.1-0.6l-1.6,1.5l-0.3-1l-1.3-2.4l-0.4-1.4l-1.2-0.6
	l-1-0.1l-0.7,0.5l-1,2.8l-0.7,0l-0.8-0.6l0.2-2.1l0.9-1l1.1-1.6l3.2-6.6l1.2-1.5l0.7-0.5l1.5-0.1l3-0.9l2.4-1.5l1.2-0.6l2.8,0.2
	l3.3-0.3l4.3-1.4l0.1-2l0-2.5l-0.1-1l-1.5-0.9l-0.9-0.8l-0.8-1l-0.9-0.7l0-0.7l1.2-0.6l0.7-0.3l1.8,0l0.6-0.4l0.4-0.6l0.5-1.6
	l0.2-1.7l-1.2-2.3l0.1-1.6l6.4,0.2l0.6,0.2l2.8,0.3h1.8l1.1,0.1l0.5,0.4l-0.1,0.7l-0.3,0.9l0.4,0.9l1,0.2l0.5-0.3l0.5-0.4l0.6-0.4
	l0.8,0.2l1.8,1.4l1.7,0.4l1.8,0.7l1.7,0.4l1.5-0.1l1.1,0.8l2.1,0.2l2.7-1l2.2-0.4l3-0.1l1.6,0.3l4.6-0.8l2.3,0.2L361.6,185.6z"/>
<path id="GQ" class="st9" d="M756.3,355.9l0.5,0.1l2.9-0.1l0.8,1l-0.1,1.5l-3,4.4l-0.6,1.9l-1.2,1.6l-1,0.1l-3.5-0.9l-0.6-0.6
	l-0.2-0.8l0.3-1.8l0.3-0.5l1.7-0.3l0.5-0.3l0.9-1.9l0.3-1.7l0.7-1.3L756.3,355.9z M792.6,409.7l-5.3,0l-2.7,0l-2.9,0l-1,0.1
	l-0.6,0.6l-0.8,0.1l-0.9-0.5l-1.1-0.2l-0.3-0.5l-0.6-1l-1.1-0.1l-0.6,0.1l-0.8,0.5l-0.9,0.3l0.2-0.4l-1.8-1.2l-1.3-0.1l-1.2-0.4
	l0.9-3.1l1.2-2.7l1.8-2l0.9-0.5l0.3-1l1.4-3.3l1.7-2.7l-0.5-2.7l0.4-4.6l0.5,0.1l0.1,0.4l0.1,0.6l0.6,0.6l2.2,0.9h6.4h3.8"/>
<path id="GW" class="st9" d="M315.7,180.2l-0.1,1.6l1.2,2.3l-0.2,1.7l-0.5,1.6l-0.4,0.6l-0.6,0.4l-1.8,0l-0.7,0.3l-1.2,0.6l0,0.7
	l0.9,0.7l0.8,1l0.9,0.8l1.5,0.9l0.1,1l0,2.5l-0.1,2l-4.3,1.4l-3.3,0.3l-2.8-0.2L304,201l-2.4,1.5l-3,0.9l-1.5,0.1l-0.7,0.5l-1.2,1.5
	l-3.2,6.6l-1.1,1.6l-0.9,1l-1-1.4l0.8-2.6l-0.8,0l-1.6,2.1l-0.8,0.1l0.1-2.5l-0.9-0.1l-1.1,0.2l-1.5-1.3l-0.1-1l0.1-1.4l0.9-0.9
	l-0.1-0.4l-0.9-0.1l-1,0.2l-0.6-0.4l1-1.8l3.5-1.5l1.7-0.2l1.8-0.3l-1-1.3l-2.1-0.5l-1.7,0.3l-0.8,0.9l-1,0.2l-1.7-2.2l0-1.1
	l0.6-1.3l1-0.6l4,0l1.5-0.7l0.6-0.1l0.6-0.7l-0.1-0.4l-0.7,0l-1.5,0.9l-4.8-0.3l-1.5,0.5l-2.7,2l-3.3,1.1l-2.4-0.5l0.8-2.6l-0.3-0.4
	l-0.8-0.4l-3.5,0.8l-2.7-1.2l-1.1-1.5l0.2-1.8l1.3-1.2l0.2-0.6l-1.3-0.1l-2.4,0.8l-5.4-3l1.1-0.2l2.7,0.3l2.1-0.4l1.5-0.6l2-0.9
	l1.9-0.3l6,0.4l5.2-1l3.9-2l3.6-1.8l4.6,0l4.9,0l7,0l5.6,0L315.7,180.2z M271.5,196l-1,2.4l-1.3-0.3l-0.9-1.5l-0.1-0.6l2.6-0.2
	L271.5,196z M280,202.9l-0.2,0.5l-1.1-0.4l1.6-1.7l1.1-0.3l0,1.3l-0.8,0.3L280,202.9z M273.1,204.3l-0.9,0.6l-1-0.3l-0.5-0.6l0.1-1
	l1.1-1.4l1,0.2L273.1,204.3z M276.6,209.3v0.8l-0.8-0.2l-0.2-0.2l0.5-1.5l0.7-0.7l0.9,0.1l0.3,0.2l-0.2,0.6l-0.4,0.5L276.6,209.3z
	 M269,212.4l-1.6,0.3l-0.7-1l-0.1-0.4l0.8-0.3l0.4,0l0.6-0.7l0.8-0.5l0.3-0.2l0.4,0l0.3,1.6l-0.4,0.7L269,212.4z M273.2,211.9
	l-0.2,0.6l-1.2-0.1l0.3-0.6l-0.3-0.2l0.3-1.7l0.2-0.3l0.6,0.6l0.1,0.3L273.2,211.9z"/>
<path id="LR" class="st9" d="M418.6,281.5l0.4,0.2l0.6,0.6l0.6,2.1l2.2,6.6l-0.1,1.8l-0.4,1.2l0,1.2l-0.1,1.2l-1.3,1.9l-4,3.9
	l0.3,0.3l0.9,0.4l1,0.2l0.8-0.1l1,1l1.1,1.2l1.1,0.6l1.6,0.6l1.4,0.1l1.2-0.2l1.7,0.2l1.8,1l0.7,1.7l0.4,1.4l0.6,0.7l0.1,1.3
	l1.3,1.1l1.9,0.2l2.4,1.3l0.6-0.1l0.3-0.2l0.3,0.2l0.6,3.7l0.5,2l-0.3,0.8l-0.3,0.6l0,3l-1.1,1.7l-0.2,1.9l-0.3,0.6l-1.2,0.5l0,1.5
	l-0.3,1.8l-0.1,1.9l0.3,4.9l0.1,3.6l0.5,0.7l-2.3-0.3l-6.6-2.8l-5.1-1.6l-17.1-9.1l-4.8-3.6l-5.5-5.4l-12.2-11l-2.8-1.8l-3.5-0.9
	L375,307l-1.5-1l-1.2-3l-3.1-1.8l-5.6-2.6l-4.2-4.3l1-0.9l1.5-2.8l2.1-2.7l2-1.6l1.6-1.7l1.7-1.3l2.4-1.5l3.7-3.9l0.9-0.5l0.6-2.7
	l0.9-3.4l1.1-1.1l2.5-0.6l0.6-0.6l0.9-2.4l0.6-2.8l0-0.6l1-0.1l1.7-0.6l1,0.3l0.4,0.8l0.2,0.7l5.1-1.8l0.4-0.4l0.3,0.1l0.6,1.6
	l0.4-0.1l0.3-0.5l0.3,0l0.4,0.2l0.4,0.7l0.7,0.7l1.1,0.5l0.7,0.6l-0.1,1.7l0.3,1.6l0.5,0.4l0.3,1l0.1,1.1l0.3,0.6l0.2,1.1l-0.1,1.2
	l0.2,0.8l0.8,1.4l0.5,1.8l0,1.3l-0.3,1.3l-0.5,1.2l-0.9,1.3l-0.1,0.5l0.6,0.3l0.9,0.1l0.7-0.3l1.8,0.6l0.9,0.9l0.8,1.1l0.7,0.5
	l0.3,0.7l1.3-0.2l1.5-0.7l0.3-0.3l0.4,0.2l1,0.1l0.7-1.2l0.5-1.4l1.2-1.5l0.6-0.6l0.1-0.9l0.1-1.2l0.4-1.1l1-0.6l1,0l0.6,0.2l0.3,1
	l0.8,0.8L418.6,281.5z"/>
<path id="LY_1_" class="st9" d="M789.7-63.1l-0.9-0.1l-1.4-1l-1.4-1.3l-0.7-1.8l-1.9-2.4l-1.8-5.6"/>
<path id="ML" class="st9" d="M490.4-74.2l6,4.1l5.4,3.9l6.4,4.6l6.4,4.6l6.4,4.6l6.4,4.6l6.4,4.6l6.4,4.6l6.4,4.5l6.4,4.5l6.4,4.5
	l6.4,4.5l6.4,4.5l6.4,4.5l6.4,4.5l6.4,4.5l6.4,4.5l6.4,4.5l2.9,2l0.3,0.8l0.3,1.7l-0.2,1.9l0,1.5l0.8,1l1.6,1.1l6.3,3.3l0.5,0.7
	l0.2,1.4l0.7,1.7l1.3,1l1.6,0.7l1.9,0.5l5.7,0.5l1.2,0.8l2.5,3l1.3,0.6l3.8,0.9l2.7,0.5l1.1,0.3l2.5,0.8l2.7,1.4l1.4,1.3V36l0,1.1
	l0,3.3l0.5,1.8l0.6,1.3l0,0.8l-0.7,0.6l-0.5,0.7l-0.3,0.9l-0.8,1.2l-0.6,1.3l0.3,1l1.1,0.6l1.6,1.2l1.3,0.5l0.6,0l0.9,0l0.7-0.2
	l4.8-0.9l4.4-0.9l6.2-1.2l0,3.6l0,5.4l0,6l0,5.6l0,6.3l0,5.1l0,6l0,6l-0.6,0.7l-0.2,3.3l-0.2,4.4l-1.2,4.6l-2.1,3.4l-0.8,3.2
	l-0.6,1.8l-0.8,1l-0.2,1.2l-0.4,1.7l-0.7,1.1l-0.5,0.6l-2.1,0.7l-3.7,3.2l-0.3,2.6l-4.2-0.7l-4.5-0.7l-0.6,0l-0.4,0.3l-0.2,1.4
	l-6.1,0.2l-5.3,0.2l-6.5,0.2l-4.5,0.2l-5.7,0.3l-5.3,0.3L607,131l-3.2,2.8l-0.3,0.1l-4.5,0.6l-5.6-0.5l-2.9,0l-1.1,0.3l-0.2,1.1
	l-4.1-1.5l-4.8-1.5l-3.3,0.9l-0.5-0.3l-0.4-0.6l-1.6-0.4l-2.6,0.2l-1.8,0.4l-2.9,2.2l-2.2,1.9l-0.6,0.4l-3,1.2l-5.7,2.7l-3.2,2
	l-0.7,0.4l-1.4,0.5l-2.2,0.1l-1.8,0.5l-1.6,5.3l-1.1,0.5l-6.8-2.1l-1.4,0.3l-1.2,0.6l-3.8,3.1l-1.9,2.5l-1,3.3l0.1,1l0,1.1l-0.7,0.6
	l-0.9,0.2l-0.8,0l-3.1-0.7l-1,0.3l-0.4,1.6l0.1,3.5l-0.7,2.4l-1.9,0.7l-1.4,1l-1.1,0.3l-0.9-0.2l-5.4-3.6l-1.8-0.6l-2,0.4l-2,1.5
	l-0.9,1l-1.2,1.2l-1.4,1.6l0.4,1.3l1,1.5l0.7,1.9l0,1.7l-5,2.4l0.4,0.8l0.7,1l0,1.8l-0.1,3.1l-1,1.1l-1.3,1.1l-0.8,1.4l-0.8,0.7
	l-1.4,0.9l-1.9,0.9l-3.4,0.8l-2.7,0.5l-1,0.5l-1.4,1l-1.1,1.2l-0.3,1.3l0.2,1.5l0.4,1.3l0.5,0.9l0.3,1.1l-0.4,2.9l-1,3.4l-0.9,1.5
	l-1.5,0.8l-1.3,0.9l0.4,2.2l0.2,3.2l-0.4,2.5l-0.1,1.6l-0.6,1.6l-0.3,1.1l-0.6-0.3l-2.7,0.1l-2.9,0.9l-1,0.7l-0.2,0.9l-0.6,0.6
	l-0.9,0.7l-0.9,0.9l-1.6-0.1l-1.6-0.6l-0.8-0.6l0-0.3l0.5-0.9l0.4-0.9l0-0.6l-0.5-1.5l-0.4-1.6l0.2-0.8l-0.4-2.4l-0.2-0.1l-2.1,0.6
	l-0.7,0.2l-0.4,0.3l-0.1,0.5l0.5,1.5l-0.3,0.3l-1.2,0l-1.6-0.5l-1.8-1.4l-0.4,0.5l-0.2,1.1l-0.1,1.3l0.4,2.4l-0.5,0.8l-1.2-0.2
	l-1.6,0l-1.4,0.2l-0.9,0.1l-0.6,0.8l-0.2,1l0.6,1l-0.1,0.4l-0.4,0.4l-0.5,0.2l-0.4,0l-1.3-1.2l-1.5-0.4l-3.5-0.7l-0.4-1.6l-0.6,0
	l-0.8-0.8l-0.8-1.1l-0.7,0.1l-0.6,0.3l-1.9-0.1l-1.7,1.7l-1.3,2.1l-1.4,1l-1.5,0.4l-0.6,0l0.3-1.3l-0.2-1L428,227l-4.4-2.3l-0.7-1
	l-0.7-2.6l-0.4-2.6l0-1.5l0.3-1.4l-0.1-1.1l-0.5-0.8l-1.3-0.8l-1.4-0.4l-1.7,1l-0.8,0.2l-0.8-0.1l-0.4-0.4l0.1-0.5l1.9-2.8l0.9-1.2
	l1.1-0.9l0.7-0.5l0.5-0.7l0-0.5l-0.2-0.4l-1.2-0.5l-1.9-1.3l-1-0.1l-0.9-0.6l-0.9-2l-0.4-0.4l-0.9-0.2l-0.8-0.5l0-2.7l0-2.3
	l-1.9-3.7l-0.7-2.3l-0.9-2.4l-0.9-1.1l-1.5-0.9l-1.9-0.7l-1.7-0.2l-1.3,0.2l-0.6,0.3l0,0.4l1,1.5l0.2,0.8l-0.2,0.8l-0.3,0.5
	l-0.9,0.1l-1.6,0.5l-2,0.9l-1.4,0.8l-1.1,2l-0.8,0.3l-1.3-0.3l-3.7-1.5l-3.1-1.2l-2.1-0.7l-1.3,0.4l-0.6,0.2l-1.8,0.8l-2.4,3l-0.6,1
	l-0.5,0.3l-0.7,0.5l-0.6,0l-0.5-0.3l-0.2-0.2l-1.2-2.1l-1.4-2.3l-1.1-1.1l-1.4,0l-1.2,0.7l-1.3,1.5l-1.6,1.4l-1,0.4l-0.9-0.2
	l-2.1-1.8l-1.5-1.3l-0.2-0.6l0.5-1l0.5-1.4l0.6-1.2l0.6-0.5l0.1-1.5l-1.3-1.1l0-0.5l0.1-1.4l0.6-3l-0.1-1.1l0.5-2.2l-0.9-1l-0.2-0.7
	l-1-1.2l-1.1-1.7l-0.3-1.3l-0.4-1.1l-1.1-1.6L356,166l-1.6-0.2l-0.3,0.6l-0.6,0.8l-0.6,0.2l-0.9-1l-0.3-0.8l0-0.8l-1.2-1.3l-1.9-2.4
	l0.2-2l1.2-1.1l0.3-0.8l0.1-0.9l-0.5-1.1l-0.6-0.9l0.2-1.9l-0.2-2.7l-1-1.4l-0.9-1l-1.2-1.1l-1-1.6l0.4-2.3l0.4-1.6l-1.8-3.2
	l3.5,1.3l0.5-0.4l1.2-0.8l1.6-1.6l1.3-2.2l0.6-2.7l0.3-2.3l0.6-2l0.8-1.7l1.6-1.7l1.6-1.2l1.8-1.3l0.9,0.2l1.8,1.8l3.9,3.6l3.2,2.7
	l1.2,1.5l1,0l1.6-2.7l1.6-2.3l0.7-0.6l2.2-0.3l1.8-0.1l1.6,0l2.9,0.4l1.3,0.4l1.3,0.2l3.7,0.2l3.7-0.6l3.5-0.7l2.6-0.4l0.1-1.1
	l-0.1-1.3l0.4-1l0.8-0.9l0.7-0.2l0.3,3.1l0.8,0.5l2.3,0.1h3.7h4h4h4h4h4h4h4h4h4h4h4h4h4h4h4h4h4.1l1.1-5.9l1-5.4l0.9-4.6l-2.9-3.2
	l-2.3-2.6l-0.5-4.9l-0.6-5.1l-0.6-5.1l-0.6-5.1l-0.6-5.1l-0.6-5.1l-0.6-5.1l-0.6-5.1l-0.6-5.1L469,51l-0.6-5.1l-0.6-5.1l-0.6-5.2
	l-0.6-5.2l-0.6-5.2l-0.6-5.2l-0.6-5.2l-0.6-5.2L464,4.5l-0.6-5.2l-0.6-5.2l-0.6-5.2l-0.6-5.2l-0.6-5.2l-0.6-5.3l-0.6-5.3l-0.6-5.3
	l-0.6-5.3l-0.6-5.3l-0.6-5.3l-0.6-5.3l-0.6-5.3l-0.6-5.3l-0.5-4.9"/>
<polyline class="st9" points="455.7,-74.2 456.2,-69.3 456.8,-63.9 457.3,-58.6 457.9,-53.3 458.4,-48 459,-42.7 459.6,-37.4 
	460.1,-32.2 460.7,-26.9 461.2,-21.6 461.8,-16.4 462.4,-11.2 462.9,-5.9 463.5,-0.7 464,4.5 464.6,9.7 465.2,14.9 465.7,20.1 
	466.3,25.2 466.8,30.4 467.4,35.6 467.9,40.7 468.5,45.9 469.1,51 469.6,56.1 470.2,61.2 470.7,66.3 471.3,71.4 471.9,76.5 
	472.4,81.6 473,86.7 473.5,91.8 474.1,96.8 474.6,101.7 477,104.3 479.9,107.5 479,112.1 478,117.6 476.9,123.5 472.8,123.5 
	468.8,123.5 464.8,123.5 460.8,123.5 456.8,123.5 452.8,123.5 448.8,123.5 444.8,123.5 440.8,123.5 436.8,123.5 432.8,123.5 
	428.8,123.5 424.8,123.5 420.8,123.5 416.8,123.5 412.8,123.5 408.8,123.5 405.1,123.5 402.8,123.3 401.9,122.9 401.7,119.8 
	401,120 400.2,120.9 399.7,121.9 399.9,123.2 399.8,124.3 397.2,124.7 393.7,125.4 390.1,126 386.4,125.8 385.1,125.5 383.8,125.1 
	380.8,124.7 379.2,124.6 377.4,124.7 375.2,125 374.6,125.5 372.9,127.8 371.3,130.5 370.3,130.5 369.2,129 366,126.3 362.1,122.7 
	360.4,120.9 359.4,120.6 357.6,121.9 356.1,123.2 354.4,124.9 353.7,126.6 353.1,128.6 352.8,130.9 352.2,133.6 350.9,135.8 
	349.3,137.4 348.1,138.2 347.7,138.6 344.2,137.4 343.8,137.2 341.7,135.7 340.7,134 339,132.7 336.8,131.8 335.3,130.9 
	334.6,129.7 333.7,129 332.9,128.6 332.8,128.2 333,127.7 332.8,126.6 331.4,124.4 330.2,123.3 329.1,123.5 328.5,123.2 
	328.2,122.7 328,122 327.3,121.3 326,121 325,119.4 324.3,116.2 323.3,113.8 322.1,112.1 321.2,111.4 320.5,111.3 320.3,111 
	320.1,110.5 319.2,110.4 317.9,110.9 316.7,110.7 316.1,109.9 315.3,109.8 314.2,110.5 313.1,110.3 311.8,109.2 311.1,108.1 
	311,107 308.8,104.8 304.6,101.5 300,100 295,100.2 292.3,100 291.7,99.5 291,99.5 290.4,100.1 289.8,100.3 289.1,99.9 288.7,100.2 
	288.5,101 286.7,101.4 283.4,101.5 280.7,102 278.7,103 275.8,103.4 272.1,103.3 269.8,102.9 269,102.3 268,102.2 266.6,102.5 
	265.3,104.1 264.2,107 263.3,108.7 262.6,109.1 261.8,111.3 261.4,115 260.8,116.6 260.8,107.5 261.8,104.1 262.2,101.1 264.5,94.4 
	267.2,89 269.7,81.8 270.7,74.8 270.3,67.9 269.6,61.8 268.3,57.8 267.1,51.9 265.3,48.8 261.9,46.1 261.2,44.5 261.9,43.9 
	264,43.5 265.3,41.4 262.5,42.2 265.7,35.7 266.7,31.3 266.5,28.3 267.1,26.5 264.7,22.6 262.8,17.7 261.9,16.9 260.9,16.5 
	260.8,17.7 260.2,18.7 259,18.1 257,14.5 254.1,8.7 253.1,8.1 252.2,8.9 251.7,9.6 250.7,14.5 250.4,12.6 250.8,10.3 251.5,7.5 
	252.3,3.6 254.9,3.6 259.4,3.6 263.9,3.6 268.4,3.6 272.9,3.6 277.4,3.6 281.8,3.5 286.3,3.5 290.9,3.5 295.4,3.5 299.9,3.5 
	304.4,3.5 308.9,3.5 313.3,3.5 317.8,3.5 322.3,3.5 326.8,3.5 329.8,3.5 329.6,0.7 329.5,-1.5 329.3,-4.5 329.1,-7.4 328.9,-10.4 
	328.8,-13.2 328.6,-15.9 328.4,-18.5 328.3,-20.9 328,-22.3 327.1,-25 326.9,-26.3 327.1,-27.8 327.8,-29.1 329.5,-31.6 
	332.2,-33.5 335.2,-35.7 337.6,-37.3 338.8,-37.7 342.4,-38.3 345.3,-39.6 348.1,-40.8 349.3,-41.5 349.4,-43.8 349.4,-46.4 
	349.4,-49.3 349.4,-52.2 349.4,-55.1 349.4,-58 349.4,-60.9 349.4,-63.9 349.4,-66.8 349.4,-69.7 349.4,-72.6 "/>
<polygon class="st9" points="263.9,37.4 262.6,39.4 262.1,38.6 261.9,37.3 263,35.4 263.5,34.4 264.5,34.1 "/>
<path id="NE_1_" class="st9" d="M790.5,167.1l-4.8,1l-0.9,0.2l-2.7,1.3l-2.3,1.4l-6.1,6.5l-8.1-0.2l-4.8-0.7l-4.1-1l-5.8-3l-7.1-4.6
	l-2.7-0.6l-2.5-0.4l-0.8,0.1l-8.5,4.6l-1.6-0.1l-2,0.5l-1.3,1.1l-1,0.6l-1,0.1l-1.3-0.3l-1.3-0.7l-1.3-1.3l-3.5-5.1l-0.7-0.9
	l-1.5-1.5l-2.5-2.4l-1.7-1.1l-1-0.3l-1.2,0.2l-6.8-2l-6.8-2.2l-1.5,0.3l-1.1,0.4l-2.3,1.6l-2.8,0.3l-3.5-0.1l-1.9-0.2l-3.1,0.5
	l-2.1,0.6l-2.7,1.1l-3.5,2.9l-1,0.4l-0.9,0.5l-1.2,8.1l-1,2.4l-1.8,3.2l-3.5,3l-2.4,1.8l-0.1,2.5l-0.2,4.1l0,2.8l0.2,1.8l-0.4,0.9
	l-0.2,0.8l0.1,1.2l0.6,0.6l0.3,0.7l-0.2,0.6l-1.1,0.7l-1.3-1.8l-1.6-1.3l-1.8-0.6l-1.2-0.9l-0.6-1.3l-2.3-2.5l-5.3-5l-0.5-0.1
	L640,186l-1.5,0.6l-0.9,0.8l-0.7,0.3l-1,0l-2.5,0.6l-2,0.8l-0.1,0.7l1,3.8l-0.5,2l-0.9-1l-2.9-3.8l-2-2.8l-0.4-0.6l-0.3-1l0.2-0.4
	l0.8-0.3l1.9-0.4l0.3-0.3l0.1-0.8l-0.3-1.4l-1-2l-1.1-1.3l-0.6-0.3l-1.1,0l-1.2,0.2l-2.3,1.6l-1,0.3l-2.3-0.1l-2.1-0.3l-1.3-0.8
	l-3.8-3.2l-4.2-3.3l-1.7-0.5l-0.4-0.3l-0.3-2.6l0.1-3.1l0.2-0.8l1.7,0.5l1.8,0.2l0.6-0.6l-1.5-1.1l-2.1-1.1l-0.8-1.7l-0.6-0.6
	l-1-0.6l-1.1-0.3l-1.1-0.5l-0.8-0.5l-1.2-0.2l-1.3-0.4l-1.9-2.7l-1.8-2.7l-1.1-2.1l-0.4-1.3l0.5-2.1l-0.5-0.8l-2-2.2l-1.7-2l0.4-3.1
	l0.3-2.6l0-1.7l0.3-0.9l0.2-1.1l1.1-0.3l2.9,0l5.6,0.5l4.5-0.6l0.3-0.1l3.2-2.8l3.5-2.9l5.3-0.3l5.7-0.3l4.5-0.2l6.5-0.2l5.3-0.2
	l6.1-0.2l0.2-1.4l0.4-0.3l0.6,0l4.5,0.7l4.2,0.7l0.3-2.6l3.7-3.2l2.1-0.7l0.5-0.6l0.7-1.1l0.4-1.7l0.2-1.2l0.8-1l0.6-1.8l0.8-3.2
	l2.1-3.4l1.2-4.6l0.2-4.4l0.2-3.3l0.6-0.7l0-6l0-6l0-5.1l0-6.3l0-5.6l0-6l0-5.4l0-3.6l4.3-0.9l4.4-0.9l6.5-1.3l7-1.4l7.6-1.5
	l1.7-0.9l5.8-5.2l2.6-2.4l5.2-4.7l4-3.6l5.1-4.6l5.4-4.7l4.3-3.7l6.7-4.2l10.2-6.4l10.2-6.4l10.2-6.4l10.2-6.4l10.2-6.4"/>
<path id="NG" class="st9" d="M793,291.2l-0.6,0.1l-0.4,0.4l-0.7,2.1l-0.7,0.8l-1.4,0.3l-2.4,0l-1.7-0.3l-0.4-0.4l-0.3-0.9l-0.5-0.7
	l-2.1,1.5l-3.2,2.3l-1,0.4l-0.8,0.5l-1.1,2.2l-1.3,2.3l-1.7,1.2l-1.6,1l-0.9,0.9l-1.3,1l-2.6,2.6l-3.5,3.5l-1.2,1.8l-1.2,2.7l-0.7,3
	l-0.8,3.2l-1.1,5.2l-1.7,2.9l-1.5,2.3l-1.1,1.8l-0.6,1.5l-0.2,0L752,337l-1.6-0.4l-0.7-1.3l-1-0.2l-1.7-1.9l-0.4,0.3l1.8,4.9
	l-0.7,1.9l-5.2,0L738,341l-3.1-0.1l-1.5-0.7l-0.7-1.8l-0.3,0.2l-0.2,1l-1,0.8l-3.4,0.1l-1.5-1.3l-1.2-1.4l-1.3-0.6l0.2,0.6l1.5,1.4
	l-0.2,2l-2.8,2.3l-1.8,0.1l-1.1-1l-0.6-1.6l-0.3-2.4l-0.7-1.6h-0.4l0.4,1.4l0.1,1.2l0,2.4l1.3,1.9l-2,0.6l-0.8,0l-1.6,0l-0.3-0.7
	l-0.3-1.6l-0.4-0.4l-0.5,2.6l-1.1,0.2l-0.7,0l-3.2,0.6l-0.7-0.1l-0.1-0.5l0.4-0.7l-0.1-1.2l-1.1,0.9l-0.2,1.8l-0.6,0.3l-1.9-0.3
	l-2.1-0.9l-1.3-1l-2.1-1.3l-4.1-3.7l-0.7-1.7l-1.2-2.1l-0.9-2.1l-1.3-3.6l0.4-0.3l1,0.3l0.5-0.5l-1.7-0.4l-0.4-0.4l-0.1-1.3l0.1-1.5
	l1.4-0.5l1.2-0.3l0.6-0.9l0.3-0.9l-3.2,1.4l-3-1.6l-0.6-1l0.3-0.7l1.4-0.1l2.1,0.1l1.2-0.7l-0.8-0.3l-1.3,0l-0.5-0.5l0-1.2l-0.4,0.3
	l-0.6,1l-2,0.8l-1.2-0.8l-0.1-1.7l-0.3-0.8l-1-0.6l-3.5-4.5l-4.5-3.7l-4-2.6l-6-1.2l-12.5,0l-0.7-0.4l0.8-0.6l1.1-0.4l4-2.1
	l-0.7-0.3l-4.2,1.3l-1.4,0.1l-1.9,2.5l-11,0.4l-1.3,0.1l0-1.1l0.5-3.3l0.4-1.3l0.4-1l-0.4-1.2l-0.4-1.6l-0.2-2.5l0.5-0.8l0.2-0.9
	l-0.1-1.5v-4.9l0.3-0.5l0.4-0.4l0-0.7l-0.7-1.3l-0.6-1.5l0-2.1l-0.3-2l-0.4-0.9l0.3-3.5l0.2-4.4l-0.2-1.9l0.4-1.4l0.2-3.4l0-3.3
	l0.8-5.2l2.4-0.3l2.9-0.4l1.3-2.1l0.7-2.6l-0.2-2.6l0.6-0.9l1.2-1.4l2.1-2l-0.1-2.2l0.6-0.7l1-0.5l1.4-0.3l1.6-1.1l0.9-1.9l0.9-3.1
	l-1.4-2.1l0-0.5l0.5-1.2l0.8-1.2l0.7-0.4l1.5,0.3l0.3-0.1l0.2-0.4l1-3.4l-0.1-0.9l-1.4-2.3l-0.2-1.6l-0.2-2.4l-0.3-2.1l-0.4-0.8
	l-0.8-0.7l-0.3-0.4l-3-4.3l0-2.1l1.2-2.6l0.8-1.3l1.1-0.7l0.2-0.6l-0.3-0.7l-0.6-0.6l-0.1-1.2l0.2-0.8l0.4-0.9l-0.2-1.8l0-2.8
	l0.2-4.1l0.1-2.5l2.4-1.8l3.5-3.1l1.8-3.2l1-2.4l1.2-8.1l0.9-0.5l1-0.4l3.5-2.9l2.7-1.1l2.1-0.6l3.1-0.5l1.9,0.2l3.5,0.1l2.8-0.3
	l2.3-1.6l1.1-0.4l1.5-0.3l6.8,2.2l6.8,2l1.2-0.2l1,0.3l1.7,1.1l2.5,2.4l1.5,1.5l0.7,0.9l3.5,5.1l1.3,1.3l1.3,0.7l1.3,0.3l1-0.1
	l1-0.6l1.3-1.1l2-0.5l1.6,0.1l8.4-4.6l0.8-0.1l2.5,0.4l2.7,0.6l7.1,4.6l5.8,3l4.1,1l4.8,0.7l8.1,0.2l6.1-6.5l2.3-1.4l2.7-1.3
	l0.9-0.2l4.8-1 M728.2,343l-1.9,0.6l-1.2-0.1l1.7-2.6l0.9,0.6l1.1,0.2L728.2,343z"/>
<path id="SL" class="st9" d="M383.3,263.3l0,0.6l-0.6,2.8l-0.9,2.4l-0.6,0.6l-2.5,0.6l-1.1,1.1l-0.9,3.4l-0.6,2.7l-0.9,0.5l-3.7,3.9
	l-2.4,1.5l-1.7,1.3l-1.6,1.6l-2,1.6l-2.1,2.7l-1.5,2.8l-1,0.9l-0.8-0.8l-3.6-2.8l-3.8-1.9l-8.2-3.1l-2.7-0.9l0.1-1.1l0.9-2l-1.5-2.4
	l0.6-1.7h-0.6l-1.2,1l-2.5-0.3l-1.7-1.5l-1.3-0.5l-0.6-0.7l-0.9-3.9l-0.6-1.8l-1.3-1.1l-2.5-0.3l-1-2.4l-1.4-1.9l0.2-1.1l1.1,0.1
	l0.9,0.8l1.4,0.3l1.8-2l1.6-1.1l0.4-1l-0.2-0.5l-1,0.8l-2.6-0.2l-0.7,0.7l-1.2,0.2l-0.9-2.3l0-1.4l0.4-1.5l2.7-0.3l0.2-0.5l-1.9-0.3
	l-2.3-1.8l-0.4-1.2l1.1-0.4l1.1,0.2l1,0.3l1-0.4l1-0.7l0.6-0.9l0.8-2.3l2.5-0.8l1.5-1.4l1.4-2.2l0.6-1.5l0.6-0.8l0.4-0.7l0.3-0.7
	l0.6-0.7l0.7-1.6l0.4-1.5l1.4-0.7l2.9-0.6l2.7,1.1l4.3-0.9l0.2-1.4l3.9,0l4.7,0l3.9,0l1.3,0.4l0.5,1l1.3,1.6l1.3,1.1l1.7,2.5
	l1.9,2.9l2.1,2.6l1.3,1.4l0.2,0.5l-0.1,0.6l-0.7,1.3l-0.6,1.4l0.1,0.5l0.4,0.3l2.2,0.4l0.2,1.6v2.2l1.1,2l1,1.5l0,0.5l-2.5,2.6
	l-1,2.6l-0.5,0.7l-0.2,0.6l0.5,0.3l0.7-0.2l1,0.2l0.9,0.1l1.2-0.9l2-2.3l0.7-0.3L383.3,263.3z M339.3,283.9l-0.3,0.5l-1.3-1.3
	l-6.8-1.9l1.9-1l4.7-0.3l1.4,0.6l0.6,0.5l0.2,0.9L339.3,283.9z"/>
<path id="SN" class="st9" d="M344.2,137.4l1.8,3.2l-0.4,1.6l-0.4,2.3l1,1.6l1.2,1.1l0.9,1l1,1.4l0.2,2.7l-0.2,1.9l0.6,0.9l0.5,1.1
	l-0.1,0.9l-0.3,0.8l-1.2,1.1l-0.2,2l1.9,2.4l1.2,1.3l0,0.8l0.3,0.8l0.9,1l0.6-0.2l0.6-0.8l0.3-0.6l1.6,0.2l0.8,0.3l1.1,1.6l0.4,1.1
	l0.3,1.3l1.1,1.7l1,1.2l0.2,0.7l0.9,1l-0.5,2.2l0.1,1.1l-0.6,3l-0.1,1.4l0,0.5l1.3,1.1l-0.1,1.5l-1.3-0.3l-2.3-0.2l-4.6,0.8
	l-1.6-0.3l-3,0.1l-2.2,0.4l-2.7,1l-2.1-0.2l-1.1-0.8l-1.5,0.1l-1.7-0.4l-1.8-0.7l-1.7-0.4l-1.8-1.4l-0.8-0.2l-0.6,0.4l-0.5,0.4
	l-0.5,0.3l-1-0.2l-0.4-0.9l0.3-0.9l0.1-0.7l-0.5-0.4l-1.1-0.1h-1.8l-2.8-0.3l-0.6-0.2l-6.4-0.2l-6.6,0l-5.6,0l-7,0l-4.9,0l-4.6,0
	l-3.6,1.8l-3.9,2l-5.2,1l-6-0.4l-1.9,0.3l-2,0.9l-1.5,0.6l-2.1,0.4l-2.7-0.3l-1.1,0.2l-0.7-0.9l-0.8-1.5l0.5-1.1l1.6-0.7l2.4-0.9
	l1.3,0.5l0.7,0l0.1-0.6l-0.2-0.3l-1.8-0.8l-1-1l-0.8,0.6l-0.7,1.3l-0.6,0.4l-0.8,0.3l-0.5-0.9l-0.2-0.8l0.4-0.6l-0.2-3.6l0.2-1.9
	l-0.1-1.7l1.2-1.1l1.1-0.7l4.3-0.1l4-0.1l3.8,0l3.9,0l0.4-3.4l1.2-0.3l1.8-0.3l3.4-0.4l3.8-0.4l0.8-0.7l0.6-1.1l0.4-1l0.8-0.4
	l1.1,0.3l1.4,0.5l1.5,0.8l1.7,0.8l1.1,0.5l2.7,1.2l4.6,1.7l3.8,0.7l4.5-1.2l3.3-0.8l0.4-1.5l-0.5-1.4l-2.4-1.3l-3.3,0.1l-1,0.3
	l-1.6,0.4l-0.9,0.2l-1.6-0.3l-2-1.1l-1.3-1.1l-1.8-0.5l-2.1-0.5l-3.3-2.3l-1.7-0.4l-1.6-0.1l-3.2,0.5l-3.1,1.2l-1.6,2.8l-3.1,0
	l-6.6-0.1l-6-0.1l-5,0.2l-0.5-2l-1.2-1.6l-1.9-1.4l-0.4-1.3l0.6-1.1l1.9-0.9l0.4-0.7l-1,0.1l-1.5,0.6l-1,0l-0.1-1.8l-1.6-2.3
	l-1.8-3.9l-2.1-1.6l-1.7-3.2l-1.8-1.2l-1.7-0.6l-1.4,0.1l-0.5,1.5l-1.8-2.1l2.4-0.7l5.2-2.6l6-7.5l5.3-8.9l0.7-2.1l0.7-1.6l0.4-3.6
	l0.8-2.2l0.7-0.4l0.9-1.7l1.1-2.9l1.2-1.6l1.4-0.3l1.1,0.1l0.8,0.6l2.3,0.4l3.7,0.1l2.9-0.4l2-1l2.7-0.5l3.3,0l1.8-0.4l0.2-0.8
	l0.4-0.3l0.7,0.3l0.7-0.1l0.6-0.6l0.6,0l0.6,0.5l2.8,0.2l5-0.2l4.6,1.5l4.2,3.3l2.2,2.2l0.1,1.1l0.7,1.1l1.3,1.1l1.1,0.2l1-0.7
	l0.8,0.1l0.6,0.9l1.2,0.2l1.3-0.5l1,0.2l0.2,0.5l0.2,0.3l0.6,0.1l0.9,0.6l1.2,1.7l1,2.4l0.8,3.1l1,1.7l1.3,0.3l0.7,0.6l0.1,0.7
	l0.4,0.5l0.6,0.3l1.1-0.2l1.2,1l1.3,2.3l0.2,1l-0.2,0.6l0.1,0.4l0.9,0.4l0.8,0.7l0.7,1.1l1.5,1l2.3,0.9l1.6,1.3l1,1.7l2.1,1.5
	L344.2,137.4z"/>
<path id="ST" class="st9" d="M730.6,398.6l-0.7,0.5l-0.9-0.4l-0.2-0.8l1.1-1.5l0.5-0.4l0.4,0.3l0.3,0.4l0,0.6L730.6,398.6z
	 M715.6,426.8l-2,1.4l-0.7-0.4l-0.4-1l-0.6-2.1l0.2-1l0.9-1.2l2-1.2l1.2-0.1l1.2,1.5l0,1.6L715.6,426.8z"/>
<path id="TG" class="st9" d="M602.7,213.7l-0.5,2.1l-1,2.6l-0.7,0.8l-0.5,6.4l0.3,0.5l0.2,0.2l3.3,2.2l4.3,2.8l3,2l0.3,0.7l0,4.2
	l0,3.6l0.6,2.1l0.1,2l0.8,1.5l2.8,2.9l0.7,1.7l0.1,5.5l0,4.2l0.4,5.7v4.7v6v7v7.3l-1.8,0.1l1,2.3l0.2,2.1l0.2,0.7l-0.5,1l0.4,1.5
	l0.8,0.6l2,3l0.7,2.6l-3.3,0.9l0.2,0.7l-6.1,1.4l-2.4,1.1l0-1.1l-0.9-0.2l-1.1-0.4l-0.7-0.6l-0.9-1.3l-0.3-1l-1.4-0.2l-1.8-1.1
	l-1.7-1.3l-0.6-1.3l0.2-0.6l-0.3-0.6l-0.6-0.2l-1.5-2.9l-0.9-1.2l-0.4-1l0.2-0.7l-0.2-1l0.3-0.8l0.8-0.5l0.3-0.6l0.1-1.2l0.5-2.5
	l0.3-2.5l-0.9-0.7l-1-0.2l-0.5-0.7l-0.2-1.2l0-1l2.1-3.6l-0.4-8.2l0.3-1.3l0.9-0.9l0.8-1l0-1l-1.4-2.5l-2.6-1.9l-1.3-1.5l-0.7-1.4
	l-0.1-0.7l1.6-1.1l0.7-0.7l0.1-0.9l-0.6-1.6l0.1-2.8l0.6-2.1l0.6-2.7l-0.1-0.8l-1.5-1.6l-0.8-0.2l-0.7,0.1l-1.6,1.1l-0.6,0.1
	l-0.4-0.3l-0.2-0.4l0.6-0.6l-0.2-0.8l0.5-0.7l1-0.3l0.3-0.3l-1.4-0.3l-0.2-0.5l0.1-0.5l0.4-0.1l0.4,0l0.2-0.3l0.2-2.3l0.2-0.8
	l0.2-1.6l0.2-6.2l0.3-0.6l0-0.5l-1-0.3l-2.3-1.7l-1.3-1.3l-1.2-1.3l-1-0.9l-1.9-1.3l-0.6-0.8l-0.1-0.8l0.6-1.7l0.9-1.8l0.5-2.6
	l-0.3-0.7l-1.3-1.2l4.5,0.9l6.4,1.5l0.1,0.3l0,0.5l1.1,0l1.8-0.5L602.7,213.7z"/>
</svg>
