<?xml version="1.0" encoding="utf-8"?>
<!-- Generator: Adobe Illustrator 21.0.0, SVG Export Plug-In . SVG Version: 6.00 Build 0)  -->
<svg version="1.1" id="Слой_1" xmlns="http://www.w3.org/2000/svg" xmlns:xlink="http://www.w3.org/1999/xlink" x="0px" y="0px"
	 viewBox="0 0 827.9 595.3" style="enable-background:new 0 0 827.9 595.3;" xml:space="preserve">
<style type="text/css">
	.st0{fill:#FFFFFF;}
	.st1{clip-path:url(#SVGID_2_);}
	.st2{fill:#DEF0FF;}
	.st3{fill:none;}
	.st4{fill:#83937F;}
	.st5{fill:#80CF6D;}
	.st6{fill:#1D7B36;}
	.st7{fill:#A5D7FF;}
	.st8{fill:#E4BFAE;}
	.st9{fill:#A26B52;}
	.st10{fill:#FFFF67;}
	.st11{fill:#FF685A;}
</style>
<rect x="39.8" class="st0" width="206.7" height="322.4"/>
<g>
	<defs>
		<rect id="SVGID_1_" x="39.8" width="206.7" height="322.4"/>
	</defs>
	<clipPath id="SVGID_2_">
		<use xlink:href="#SVGID_1_"  style="overflow:visible;"/>
	</clipPath>
	<g class="st1">
		<path class="st2" d="M187.7,133.9c19.1-30.5,38.6-62.3,42.8-98l2.3-6.9c-13.8-9.7-32.8-2.7-47.5,5.6
			c-10.5,5.9-20.7,12.5-30.1,20.1c7.1-8.7,14-17.5,20.8-26.4c11.7-15,23.8-31.3,25.2-50.3l-32.6-6.3c3.5-7.5-2.7-16.8-10.7-19.3
			c-8-2.5-16.6,0-24.3,3.1C83.8-24.2,50.5,22.7,22.6,68.8c-10,16.6-20.1,36.1-13.8,54.5c2.1,6.1,6.2,11.8,12.1,14.3
			c5.5,2.3,11.7,1.6,17.5,0.5c29.5-5.7,56.1-22,78.5-42.1c2.6-2.4,5.2-4.8,7.7-7.3c-1.5,2.1-3,4.2-4.6,6.3
			c-15.7,21.7-31.4,43.4-47.2,65.2c-10.8,14.9-21.7,30-28.6,47c-8.2,20.2-10.5,42.7-6.5,64.1c1.2,6.6,3.7,13.9,9.9,16.5
			c3,1.3,6.4,1.2,9.7,0.8c19.9-2.5,37-15.4,50.1-30.5c9.7-11.3,17.7-24,25.6-36.7C151.3,192.2,169.5,163,187.7,133.9z"/>
		<path class="st2" d="M231.2,167.9c-8.3-0.4-16.1,3.8-22.6,8.9c-11.6,9.2-20,21.8-27.7,34.5c-20.7,33.8-38,69.8-51.5,107
			c29.1-14.2,56-33.2,79.1-55.8c7.1-7,14-14.5,18.6-23.4c5.6-11.1,7.7-24.3,16.6-33.1l4.8-23.4C247.8,174.4,239.4,168.3,231.2,167.9
			z"/>
	</g>
</g>
<g>
	<g>
		<path class="st3" d="M333.8,311.3c-0.6-0.6-1.3-1.4-2-2.1c-2.2-2.2-4.3-4.5-6.5-6.7c-0.5-0.5-1-1.3-1.9-0.6c0,0.2,0,0.4,0.1,0.5
			c3.1,3.2,6.2,6.4,9.3,9.7c0.8,0.8,1.6,0.8,2.6,0.4c2.1-0.9,4.3-1.7,6.4-2.5c0.4-0.2,0.7-0.5,1.1-0.9c-0.5-0.2-0.8-0.4-0.9-0.4
			C339.3,309.4,336.7,310.2,333.8,311.3z"/>
		<path class="st3" d="M659.5,33.9c6.2,3.2,12.4,6.4,18.6,9.6c1,0.5,1.7,0.4,2.6-0.1c7.1-3.8,14.4-6.9,22-9.4
			c0.4-0.1,0.8-0.4,1.2-0.7c-0.1-0.3-0.1-0.5-0.2-0.8c-0.9,0.2-2,0.2-2.8,0.6c-6.4,2.7-12.9,5.3-19.2,8.2c-1.8,0.8-3.2,1-5,0
			c-5.1-2.8-10.4-5.4-15.6-8.1c-0.7-0.4-1.5-1.2-2.7-0.3C659,33.4,659.2,33.8,659.5,33.9z"/>
		<path class="st3" d="M356.4,116.2c-2.9-1.6-5.9-3.3-8.8-4.8c-1.8-0.9-2-0.9-3.3,0.7c-3.1,3.6-6.2,7.2-9.2,10.8
			c-0.4,0.5-0.6,1.1-0.9,1.6c1.2,0.7,1.4-0.2,1.8-0.7c2.9-3.4,5.8-6.8,8.7-10.2c0.4-0.5,1-0.9,1.4-1.3c4,1.5,7.1,4.2,11.1,5.2
			C357,116.8,356.8,116.4,356.4,116.2z"/>
		<path class="st3" d="M699.1,99.3c-4.3,3.3-7.6,7.5-10.1,12.3c-0.4,0.8-0.8,1.5-1.2,2.4c-0.6-0.6-1.1-1-1.7-1.4
			c-3.3-2.7-6.4-5.5-9.8-8c-2.8-2-5.8-3.7-8.8-5.4c-0.7-0.4-1.5-1-2.5,0.2c8.9,4.2,16.1,10.2,23.3,17c0.8-1.7,1.4-3.1,2.2-4.4
			c0.8-1.4,1.6-2.9,2.5-4.2c0.9-1.3,1.9-2.5,2.9-3.6c1.1-1.2,2.4-2.2,3.5-3.4c1-1.1,2.8-1.1,3.6-2.8
			C701.2,97.5,700.2,98.5,699.1,99.3z"/>
		<path class="st3" d="M384.3,96.4c-1.2-1-2-0.7-2.8-0.4c-4,1.3-8,2.6-11.9,4.2c-1.3,0.5-2.2,0.6-3.3-0.1c-3.7-2.2-7.4-4.4-11.1-6.6
			c-0.4-0.3-1-0.3-1.4-0.5c0,0.8,0.2,1.3,0.6,1.5c4,2.4,8,4.7,12,7.1c1.2,0.7,2.2,0.5,3.4,0c4.2-1.6,8.4-2.9,12.6-4.4
			C382.9,97,383.4,96.8,384.3,96.4z"/>
		<path class="st3" d="M438.1,124.9c1-1,2-1.9,3-2.9c0.3-0.3,0.4-0.8,0.6-1.2c-0.1-0.1-0.3-0.2-0.4-0.4c-5.5,4.4-10.5,9.4-15.3,14.8
			c-5.2-6.6-10.3-13-15.6-19.8c-0.1,0.9-0.3,1.2-0.2,1.3c0.8,1.3,1.6,2.7,2.6,3.9c4.3,5.5,8.6,10.9,13.1,16.5c0.9-0.9,1.4-1.5,2-2.1
			C431.2,131.7,434.6,128.3,438.1,124.9z"/>
		<path class="st3" d="M574.8,296c-1.3-0.3-2.6-0.5-4.3-0.8c1.3-0.7,2.2-1.2,3-1.8c2-1.4,2.4-3.1,1.3-5.2c-0.5-1-1.2-1.9-2-2.6
			c-1.4-1.1-2.9-2.2-4.5-3c-4.8-2.4-9.8-4.2-15.1-5.3c-2.6-0.5-5.2-0.9-8-1.4c2.8-4.7,1.2-9-1-13.1c-1.6-3-3.8-5.6-6.4-7.7
			c-10.7-8.8-22.8-10.7-36-7.3c-6.2,1.6-10,5.7-12.1,11.7c-0.5,1.4-0.8,2.8-1.2,4.2c-0.3,1.2-0.6,2.5-1,3.8c-0.7,0-1.3,0-1.9-0.1
			c-3-0.6-6-0.3-9,0.2c-10.2,1.6-17.2,8.7-18.6,19c-0.2,1.3-0.4,2.5-0.6,3.9c-1.1,0.1-2,0.1-2.9,0.2c-3.4,0.4-6.9,0.6-10.3,1.2
			c-4.4,0.7-8.5,2.1-12.2,4.6c-4.2,2.8-5.2,6.9-5.1,11.8c1.9,0,3.5,0,5,0c11.4-0.2,22.7-0.8,34.1-0.7c12.8,0.2,25.7,0.9,38.5,1.5
			c13.7,0.7,27.4-0.2,41.1-0.9c5.8-0.3,11.7-0.8,17.5-1.1c4.2-0.3,8.4-0.5,12.4-2.2c1.1-0.5,2.2-1.1,3.1-1.8c1.7-1.5,1.7-3,0.2-4.7
			C577.8,297.1,576.4,296.4,574.8,296z"/>
		<path class="st3" d="M410.3,162.6c-6.6,2.9-12.2,7.3-17.7,12.1c-3.8-3.1-7.4-6.1-11.1-9c-3.7-2.8-7.2-5.9-11.7-7.7
			c0.1,0.6,0.2,1,0.6,1.3c1.2,0.9,2.5,1.6,3.6,2.5c5.6,4.4,11.2,8.9,16.8,13.3c1.8,1.4,1.7,1.4,3.4,0c5-4.4,10.2-8.5,16.4-11.1
			c0.4-0.2,0.7-0.7,1.4-1.4C411.1,162.5,410.6,162.4,410.3,162.6z"/>
		<path class="st3" d="M685,397.1c-5.4-3.1-13.9-3.1-19,1.8c-0.4,0.4-0.9,0.8-1.4,1.2c-4.1,3.4-6.1,7.8-6.3,12.1
			c-0.1,7,3.2,10.1,9.2,9.6c0.9-0.1,1.7-0.2,2.5-0.4c6.8-1.8,12.3-5.7,16.4-11.4c0.8-1.1,1.5-2.3,2-3.6
			C689.9,402.4,688.7,399.2,685,397.1z"/>
		<path class="st3" d="M747.6,75.2c0.7-1.4,0.7-1.4-0.1-2.3c-3.7-4.4-7.3-8.9-11-13.4c-0.3-0.4-0.5-0.9-0.7-1.1
			c-4.3,1.5-21.7,14.2-22.8,16.7c7.3-5.1,14.3-10.5,21.9-15.1C739.2,65.1,743.3,70.1,747.6,75.2z"/>
		<path class="st3" d="M601,415.3c-0.6-0.6-1.3-1.1-2-1.6c-5.5-3.6-11.5-5-18-4.1c-3.1,0.4-6.1,0.9-9.2,1.5
			c-7.8,1.5-13.6,6.1-18,12.5c-2.6,3.8-1.7,7.3,2.2,9.7c1.2,0.8,2.6,1.4,4,1.9c4.6,1.7,9.3,2.4,14.1,2.5c6.4-0.2,12.5-1.4,18.2-4
			c4-1.8,7.4-4.4,10-8C604.8,421.9,604.4,418.4,601,415.3z"/>
		<path class="st3" d="M642.2,432.3c-0.9-0.5-1.9-0.9-2.8-1.2c-14.2-5-30.6,3.6-35.9,15.2c-0.8,1.6-1.4,3.4-1.7,5.1
			c-2,10,5.9,17.7,13.6,17.4c2.9-0.7,5.9-1.3,8.7-2.1c5.8-1.6,11.2-3.9,15.9-7.7c4.6-3.8,7.7-8.6,8.5-14.6
			C649.1,439.1,646.8,434.7,642.2,432.3z"/>
		<path class="st3" d="M816.8,365c-3.3-1.7-6.8-2.5-10.5-2.5c-8.4,0-16.1,4.9-18.8,12.2c-2.2,5.9-0.7,11.8,4.2,15.8
			c3.1,2.5,6.8,4.2,10.7,4.8c5.6,0.9,10.4-0.6,13.8-5.5c0.6-0.8,1.4-1.5,2.2-2.1C826.7,381.6,825.8,369.6,816.8,365z"/>
		<path class="st3" d="M779.3,395.9c-1-0.6-2.1-1.2-3.2-1.6c-4-1.5-8.1-2.3-12.4-2.5c-2.3-0.1-4.6,0.1-7,0.3
			c-4.5,0.3-7.4,3.4-10.3,6.2c-1.5,1.4-1.7,3.5-1.2,5.6c0.8,3.6,3.1,6.1,6.2,7.9c3.4,2,7.2,2.8,11.1,2.8c5.1,0,9.4-1.1,13.3-3.5
			c2.2-1.4,4.1-3.1,5.6-5.3C784,401.9,783.2,398.3,779.3,395.9z"/>
		<path class="st3" d="M750,437.8c-3.8-1.4-7.7-2-11.6-2c-0.5,0-1,0-1.6,0c-3.5,0.3-6.9,0.8-9.9,2.5c-3.9,2.2-5.5,5.9-3.9,10.1
			c0.8,2.2,2.1,4.4,3.7,6.1c3.8,4.3,8.8,6.9,14.5,7.8c4.1,0.7,8.1,0,11.8-1.9c3.2-1.6,5.6-4.1,6.6-7.6c1-3.4,0.8-6.7-1.6-9.5
			C755.8,440.9,753.1,438.9,750,437.8z"/>
		<path class="st3" d="M316.4,320.4c-2,1.5-4,3.1-6.2,4.8c-1.2-0.8-2.5-1.8-3.9-2.6c-1.4-0.8-2.3-2.5-4.4-2.4c0.1,0.4,0,0.8,0.2,0.9
			c2.4,1.8,4.9,3.5,7.3,5.2c0.9,0.7,1.7,0.4,2.5-0.4c1.5-1.5,3.2-2.8,4.8-4.2c0.3-0.2,0.4-0.6,0.6-1.1
			C316.9,320.5,316.6,320.3,316.4,320.4z"/>
		<path class="st3" d="M208.9,61.6c-0.2-20.4-0.7-40.5-1.1-60.6c-0.9-0.1-1.5-0.1-2.1-0.1c-41,0-82.1,0.1-123.1,0.1
			c-0.1,0-0.1,0.1-0.2,0.1c-0.1,0.1-0.1,0.1-0.3,0.4c0.2,12.8,0.3,25.8,0.5,39.1C124.8,47.7,166.6,54.6,208.9,61.6z"/>
		<path class="st3" d="M79.3,1.1c-10.6,0-20.7,0-30.8,0c0,11.3,0,22.3,0,33.7c10.4,1.8,20.6,3.5,30.8,5.3
			C79.3,26.9,79.3,14.1,79.3,1.1z"/>
		<path class="st3" d="M48.7,40.7c0.2,15.6,0.4,31.2,0.6,46.8c0.3,27.2,0.7,54.3,1,81.5c0.4,31.2,0.7,62.4,1.1,93.6
			c0,0.9,0,1.8,0,2.9c10.5,1.1,20.6,2.2,30.7,3.3c0-3.7,0-7.1,0-10.4c-0.1-13.1-0.3-26.2-0.5-39.3c-0.4-32-0.7-64-1.1-95.9
			c-0.2-18.4-0.4-36.7-0.6-55.1c-0.1-7-0.1-14-0.2-20.9c0-1.3-0.1-2.7-0.2-4.1c-10.3-1.8-20.4-3.5-30.8-5.3
			C48.7,38.9,48.7,39.8,48.7,40.7z"/>
		<path class="st3" d="M44.4,451.9c17.7,2,35.4,4.5,53.1,6.7c12,1.5,24,2.9,35.9,4.4c12.7,1.6,25.3,3.3,37.9,4.9
			c12.9,1.7,25.8,3.5,38.7,4.9c12.5,1.3,25.1,2.4,37.6,3.3c13.2,0.9,26.5,1.3,39.8,1.9c0.7,0,1.3-0.1,2.1-0.1c0-1.1,0-2.1,0-3
			c-0.1-9.6-0.3-19.1-0.4-28.7c-0.4-26.1-0.7-52.3-1.1-78.4c-0.3-23.3-0.7-46.6-1-69.8c-0.4-26.2-0.7-52.4-1.1-78.6
			c-0.3-23.2-0.7-46.4-1-69.6c-0.4-26.5-0.7-52.9-1.1-79.4c-0.3-20.8-0.5-41.6-0.8-62.3c0-2.3-0.2-4.6-0.3-6.8
			c-4-0.6-36.1-0.4-38,0.2c0,1,0,2,0,3.1c0.3,21,0.7,41.9,1,62.9c0.3,19.9,0.7,39.8,1,59.8c0.4,22.4,0.7,44.8,1.1,67.3
			c0.2,13.4,0.4,26.7,0.6,40.1c0.1,4.9,0.1,9.8,0.2,14.7c0.2,12.5,0.5,25,0.7,37.5c0,2.7-0.7,3.3-3.5,3.1c-2.3-0.2-4.6-0.5-6.9-0.8
			c-10.2-1.1-20.4-2.2-30.5-3.4c-10.3-1.1-20.6-2.2-30.8-3.4c-10.1-1.1-20.2-2.2-30.3-3.3c-10.3-1.1-20.6-2.2-30.8-3.4
			c-10.1-1.1-20.2-2.2-30.3-3.4c-11.5-1.3-23-2.5-34.4-3.7c-1.6-0.2-2.6-0.8-2.9-2.4c-0.2-0.8-0.4-1.7-0.4-2.5
			c-0.2-14.4-0.4-28.8-0.5-43.2c-0.3-25.1-0.6-50.2-0.9-75.3c-0.4-32-0.8-64-1.1-96c-0.2-15.3-0.4-30.7-0.5-46
			c0-0.6-0.1-1.2-0.1-1.9C41,0.6,2.1,0.8,0.4,1.4c0,149.6,0,299.2,0,448.9c0.6,0,1,0.1,1.4,0.1C16,449.6,30.2,450.3,44.4,451.9z"/>
		<path class="st3" d="M638.2,76.2c2.3-4.5,4.3-9,5.5-13.9c1.7-6.7,2.2-13.5-0.2-20.1c-1.4-3.9-2.7-7.8-4.6-11.5
			c-3.5-6.7-8.3-12.4-14.9-16.1c-8-4.5-16.7-6.9-24.7-6.9c-10.5,0-19.1,2.6-27.2,6.9c-10.5,5.5-17.4,13.9-20.7,25.3
			c-2.6,9-2.8,18,0.7,26.9c9.2,23.2,35.1,32.7,53.5,28.9c7.9-1.6,15.1-4.7,22-8.6C632.2,84.3,635.8,80.9,638.2,76.2z"/>
		<path class="st3" d="M810.8,167.7c-0.8-5.1-2.7-8.5-6.6-11.6c-5.8-4.6-12.4-6.1-19.7-5.3c-2,0.2-4,0.7-6,1.1
			c-0.1-0.2-0.2-0.2-0.2-0.3c0.1-0.8,0.2-1.5,0.3-2.3c1-7.5-1.3-13.7-7.8-17.9c-2.3-1.5-4.8-2.7-7.4-3.6c-5.6-2-11.5-2-17.4-1.3
			c-3.7,0.5-7.2,1.6-10.4,3.7c-5.2,3.5-7.7,8.2-6.6,14.6c0.3,1.5,0.4,2.9,0.5,4.5c-3.4-1-6.4-2-9.5-2.7c-9.2-2.2-17.8-0.8-25.6,4.8
			c-5.6,4.1-7.5,9.7-6.3,16.4c0.3,1.8,0.8,3.5,1.2,5.6c-2.3-0.5-4.1-1-6-1.4c-6.5-1.4-12.7-0.7-18.2,3.3c-1.2,0.8-2.5,1-3.9,1
			c-5.2,0-10.3-0.1-15.5,0.2c-4.7,0.3-9.3,1.5-13.7,3.6c-1.9,0.9-3.5,2.2-4.6,4c-1.4,2.2-0.7,3.5,1.8,3.6c0.9,0,1.9-0.1,2.8-0.1
			c5-0.1,10-0.5,15-0.3c9.8,0.4,19.6,1.2,29.4,1.9c9.4,0.6,18.7,1.2,28.1,1.9c11,0.7,22,1.4,33,2.2c11.6,0.9,23.2,1.9,34.8,2.9
			c11.3,1,22.7,1.9,34,2.9c6.7,0.6,13.4,1.2,20.1,1.7c0.3,0,0.6-0.1,1-0.2c-0.1-0.8-0.1-1.6-0.2-2.4c-0.7-0.1-1.3-0.3-1.9-0.4
			c-12-1-24-2.1-36.1-3.1c-13.4-1.1-26.8-2.3-40.2-3.3c-13.1-1-26.3-2-39.5-2.9c-14.1-1-28.2-1.8-42.3-2.8
			c-11.6-0.8-23.2-1.9-34.9-0.9c-0.5,0-1-0.1-1.6-0.2c0.9-1,1.9-1.8,3-2.2c3.4-1,6.7-2.4,10.2-2.7c5.7-0.5,11.5-0.5,17.3-0.5
			c1.9,0,3.6-0.3,5.1-1.5c4.7-3.4,10-4,15.5-3c2.6,0.5,5.2,1.3,7.8,1.8c2.4,0.4,3.2-0.5,2.6-2.9c-0.5-1.8-1.1-3.6-1.5-5.5
			c-1.4-6.3,0.6-11.4,6-15c5.8-3.8,12.1-5.3,19-4.3c4.5,0.7,8.7,2,12.9,3.5c2.8,1,3.9,0,3.5-2.9c-0.2-1.9-0.5-3.8-0.8-5.6
			c-0.6-5,1.5-8.7,5.7-11.3c1.5-0.9,3.2-1.7,4.9-2.2c5.6-1.8,11.4-1.7,17.1-0.6c3.4,0.6,6.6,1.9,9.5,3.9c3.3,2.3,5.9,5.1,6.5,9.2
			c0.6,4.1,0.9,8.1-2.2,11.5c-0.3,0.3-0.4,1.3-0.1,1.6c0.4,0.4,1.2,0.6,1.8,0.5c0.6,0,1.1-0.5,1.7-0.7c6.7-2.7,13.5-3.3,20.4-0.5
			c4.2,1.7,7.6,4.4,9.7,8.5c1,1.9,1.2,3.9,0.2,6c-0.1,0.2-0.3,0.5-0.3,0.7c0,0.6-0.1,1.4,0.2,1.6c0.5,0.3,1.2,0.2,1.9,0.2
			c0.3,0,0.6-0.4,0.9-0.5c5-3,10.4-4.1,16.1-3.3c0.6,0.1,1.3,0.1,2.1,0.1c-0.1-1.1-0.2-1.9-0.2-2.7
			C821.7,164.8,816.1,165.4,810.8,167.7z"/>
		<path class="st3" d="M82.6,43.6c0.9,75.3,1.7,150.3,2.6,225.4c3.7,0.9,125.9,14.1,127.9,13.8c0-0.9,0-1.8,0-2.8
			c-0.4-19.7-0.7-39.3-1.1-59c-0.3-16.2-0.6-32.4-0.9-48.6c-0.4-20.6-0.8-41.2-1.1-61.8c-0.3-14.2-0.5-28.4-0.7-42.7
			c0-1.2-0.2-2.3-0.3-3.4C166.7,57.5,124.8,50.6,82.6,43.6z"/>
		<path class="st3" d="M746.5,210.3c-4.8,1.3-9.2,3.4-13,6.6c-1,0.8-1.8,0.9-3,0.5c-3.3-1-6.6-1.7-10-2.5c-1.1-0.2-2.3-0.2-3.4-0.2
			c0,0.3-0.1,0.5-0.1,0.8c0.5,0.1,1.1,0.3,1.6,0.4c3.3,0.7,6.7,1.1,9.8,2.3c2.9,1.1,4.9,0.9,7.3-1.2c3.2-2.8,7.2-4.3,11.3-5.4
			c0.8-0.2,1.9-0.1,2.3-1.3C747.7,210,747.7,210,746.5,210.3z"/>
		<path class="st3" d="M213.9,183.2c0.4,24,0.8,48.1,1.3,72.1c0.1,7.4,0.3,14.8,0.5,22.2c0.1,2,0.2,4.1,0.4,6.3
			c10.3,1.1,20.3,2.2,30.6,3.4c0.2-2.6,0.5-4.8,0.4-7c-0.2-12.7-0.7-25.3-0.9-38c-0.7-42.8-1.4-85.7-2.1-128.5
			c-0.4-27.8-0.8-55.7-1.3-83.5c-0.1-8.1-0.3-16.2-0.5-24.3c0-1.6-0.2-3.2-0.3-4.9c-10.6,0-20.9,0-31.6,0c-0.1,0.9-0.2,1.5-0.1,2.2
			c0.5,23.3,1,46.5,1.5,69.8C212.5,109.7,213.2,146.4,213.9,183.2z"/>
		<path d="M828.4,492c-0.1,0-0.1-0.1-0.2-0.1c0,1.1,0,2.2,0,3.3c0.1,0,0.2,0.1,0.2,0.1C828.4,494.1,828.4,492.8,828.4,492z"/>
		<g>
			<path class="st3" d="M82.6,43.6c0.9,75.3,1.7,150.3,2.6,225.4c3.7,0.9,125.9,14.1,127.9,13.8c0-0.9,0-1.8,0-2.8
				c-0.4-19.7-0.7-39.3-1.1-59c-0.3-16.2-0.6-32.4-0.9-48.6c-0.4-20.6-0.8-41.2-1.1-61.8c-0.3-14.2-0.5-28.4-0.7-42.7
				c0-1.2-0.2-2.3-0.3-3.4C166.7,57.5,124.8,50.6,82.6,43.6z"/>
			<path class="st3" d="M208.9,61.6c-0.2-20.4-0.7-40.5-1.1-60.6c-0.9-0.1-1.5-0.1-2.1-0.1c-41,0-82.1,0.1-123.1,0.1
				c-0.1,0-0.1,0.1-0.2,0.1c-0.1,0.1-0.1,0.1-0.3,0.4c0.2,12.8,0.3,25.8,0.5,39.1C124.8,47.7,166.6,54.6,208.9,61.6z"/>
			<path class="st3" d="M48.7,40.7c0.2,15.6,0.4,31.2,0.6,46.8c0.3,27.2,0.7,54.3,1,81.5c0.4,31.2,0.7,62.4,1.1,93.6
				c0,0.9,0,1.8,0,2.9c10.5,1.1,20.6,2.2,30.7,3.3c0-3.7,0-7.1,0-10.4c-0.1-13.1-0.3-26.2-0.5-39.3c-0.4-32-0.7-64-1.1-95.9
				c-0.2-18.4-0.4-36.7-0.6-55.1c-0.1-7-0.1-14-0.2-20.9c0-1.3-0.1-2.7-0.2-4.1c-10.3-1.8-20.4-3.5-30.8-5.3
				C48.7,38.9,48.7,39.8,48.7,40.7z"/>
			<path class="st3" d="M509.4,594.5c0.4,0.1,0.9,0.4,1.4,0.7C510.4,594.8,509.9,594.6,509.4,594.5z"/>
			<path class="st3" d="M213.9,183.2c0.4,24,0.8,48.1,1.3,72.1c0.1,7.4,0.3,14.8,0.5,22.2c0.1,2,0.2,4.1,0.4,6.3
				c10.3,1.1,20.3,2.2,30.6,3.4c0.2-2.6,0.5-4.8,0.4-7c-0.2-12.7-0.7-25.3-0.9-38c-0.7-42.8-1.4-85.7-2.1-128.5
				c-0.4-27.8-0.8-55.7-1.3-83.5c-0.1-8.1-0.3-16.2-0.5-24.3c0-1.6-0.2-3.2-0.3-4.9c-10.6,0-20.9,0-31.6,0c-0.1,0.9-0.2,1.5-0.1,2.2
				c0.5,23.3,1,46.5,1.5,69.8C212.5,109.7,213.2,146.4,213.9,183.2z"/>
			<path class="st3" d="M79.3,1.1c-10.6,0-20.7,0-30.8,0c0,11.3,0,22.3,0,33.7c10.4,1.8,20.6,3.5,30.8,5.3
				C79.3,26.9,79.3,14.1,79.3,1.1z"/>
			<path class="st3" d="M44.4,451.9c17.7,2,35.4,4.5,53.1,6.7c12,1.5,24,2.9,35.9,4.4c12.7,1.6,25.3,3.3,37.9,4.9
				c12.9,1.7,25.8,3.5,38.7,4.9c12.5,1.3,25.1,2.4,37.6,3.3c13.2,0.9,26.5,1.3,39.8,1.9c0.7,0,1.3-0.1,2.1-0.1c0-1.1,0-2.1,0-3
				c-0.1-9.6-0.3-19.1-0.4-28.7c-0.4-26.1-0.7-52.3-1.1-78.4c-0.3-23.3-0.7-46.6-1-69.8c-0.4-26.2-0.7-52.4-1.1-78.6
				c-0.3-23.2-0.7-46.4-1-69.6c-0.4-26.5-0.7-52.9-1.1-79.4c-0.3-20.8-0.5-41.6-0.8-62.3c0-2.3-0.2-4.6-0.3-6.8
				c-4-0.6-36.1-0.4-38,0.2c0,1,0,2,0,3.1c0.3,21,0.7,41.9,1,62.9c0.3,19.9,0.7,39.8,1,59.8c0.4,22.4,0.7,44.8,1.1,67.3
				c0.2,13.4,0.4,26.7,0.6,40.1c0.1,4.9,0.1,9.8,0.2,14.7c0.2,12.5,0.5,25,0.7,37.5c0,2.7-0.7,3.3-3.5,3.1c-2.3-0.2-4.6-0.5-6.9-0.8
				c-10.2-1.1-20.4-2.2-30.5-3.4c-10.3-1.1-20.6-2.2-30.8-3.4c-10.1-1.1-20.2-2.2-30.3-3.3c-10.3-1.1-20.6-2.2-30.8-3.4
				c-10.1-1.1-20.2-2.2-30.3-3.4c-11.5-1.3-23-2.5-34.4-3.7c-1.6-0.2-2.6-0.8-2.9-2.4c-0.2-0.8-0.4-1.7-0.4-2.5
				c-0.2-14.4-0.4-28.8-0.5-43.2c-0.3-25.1-0.6-50.2-0.9-75.3c-0.4-32-0.8-64-1.1-96c-0.2-15.3-0.4-30.7-0.5-46
				c0-0.6-0.1-1.2-0.1-1.9C41,0.6,2.1,0.8,0.4,1.4c0,149.6,0,299.2,0,448.9c0.6,0,1,0.1,1.4,0.1C16,449.6,30.2,450.3,44.4,451.9z"/>
			<path class="st4" d="M443.7,580.7c-31.7-6.5-63.5-13-95.3-19c-19.9-3.8-39.9-6.8-59.9-10.1c-23.6-3.9-47.2-7.5-70.7-11.5
				c-15.2-2.6-30.3-5.9-45.4-8.8c-16.4-3.1-32.9-6.1-49.3-9.1c-17.4-3.2-34.8-6-52-10.3c-24.3-6.2-47.4-15.3-68.6-28.8
				c-0.6-0.4-1.3-0.7-2.3-1.2c-0.1,1.1-0.2,2-0.2,2.8c0,36.1,0,72.3-0.1,108.4c0,0.8,0.9,2-0.4,2.7c0.6,1.1,1.6,0.5,2.3,0.5
				c166.9,0,333.8,0,500.6,0c-1.4-0.4-3.3-1.7-4.5-2C480.2,588.7,462.1,584.4,443.7,580.7z"/>
			<path class="st5" d="M828.2,495.2c-1.2-0.5-2.9-1.4-3.9-1.8c-8.7-3.5-17.5-6.8-26.6-9.3c-11.8-3.1-23.7-5.3-35.9-6
				c-17.6-0.9-35.3-1.5-53-2.1c-17.1-0.6-34.1-0.6-51.2,0c-12.4,0.4-24.8,1-37.2,1.3c-22.8,0.7-45.7,1.5-68.5,1.9
				c-28.5,0.5-56.9,0.5-85.4,1.1c-54.3,1-108.7,1.6-163,0.8c-17.1-0.3-34.1-1.1-51.2-1.9c-17.9-0.8-35.8-2.7-53.6-4.9
				c-13.5-1.7-27-3.6-40.5-5.4c-11.5-1.5-23.1-2.9-34.6-4.3c-11.7-1.5-23.4-2.9-35.2-4.4c-17.2-2.1-34.4-4.4-51.6-6.3
				c-10.2-1.1-20.5-1.5-30.7-1.1c-1.9,0.1-3.7,0.3-5.9,0.4c0,1.2,0,2.1,0,3c0,6.3,0.1,12.6,0,18.9c0,2.2,0.7,3.4,2.5,4.6
				C18.9,490,36.2,498.1,54.5,504c15.4,5,31.3,8.4,47.2,11.4c32.9,6.1,65.7,12.4,98.6,18.4c18,3.3,35.9,6.5,54,9.5
				c22.3,3.7,44.6,6.8,66.9,10.5c20.5,3.5,40.9,7.4,61.2,11.4c20.1,3.9,40.2,8.1,60.3,12.3c22.5,4.7,44.9,10,66.8,17
				c0.5,0.2,1,0.3,1.4,0.7c0.5,0.3,1,0.6,1.3,1c105.4,0,210.7,0,316.1,0C828.2,562.5,828.2,528.8,828.2,495.2z"/>
			<path d="M503.4,596.2c2.9,0.2,5.8-0.1,8.7-0.1c0,0,0,0,0,0c-3.1,0-6.3,0-9.4,0C502.9,596.2,503.2,596.2,503.4,596.2z"/>
			<g>
				<path class="st3" d="M574.8,296c-1.3-0.3-2.6-0.5-4.3-0.8c1.3-0.7,2.2-1.2,3-1.8c2-1.4,2.4-3.1,1.3-5.2c-0.5-1-1.2-1.9-2-2.6
					c-1.4-1.1-2.9-2.2-4.5-3c-4.8-2.4-9.8-4.2-15.1-5.3c-2.6-0.5-5.2-0.9-8-1.4c2.8-4.7,1.2-9-1-13.1c-1.6-3-3.8-5.6-6.4-7.7
					c-10.7-8.8-22.8-10.7-36-7.3c-6.2,1.6-10,5.7-12.1,11.7c-0.5,1.4-0.8,2.8-1.2,4.2c-0.3,1.2-0.6,2.5-1,3.8c-0.7,0-1.3,0-1.9-0.1
					c-3-0.6-6-0.3-9,0.2c-10.2,1.6-17.2,8.7-18.6,19c-0.2,1.3-0.4,2.5-0.6,3.9c-1.1,0.1-2,0.1-2.9,0.2c-3.4,0.4-6.9,0.6-10.3,1.2
					c-4.4,0.7-8.5,2.1-12.2,4.6c-4.2,2.8-5.2,6.9-5.1,11.8c1.9,0,3.5,0,5,0c11.4-0.2,22.7-0.8,34.1-0.7c12.8,0.2,25.7,0.9,38.5,1.5
					c13.7,0.7,27.4-0.2,41.1-0.9c5.8-0.3,11.7-0.8,17.5-1.1c4.2-0.3,8.4-0.5,12.4-2.2c1.1-0.5,2.2-1.1,3.1-1.8
					c1.7-1.5,1.7-3,0.2-4.7C577.8,297.1,576.4,296.4,574.8,296z"/>
				<path class="st3" d="M438.1,124.9c1-1,2-1.9,3-2.9c0.3-0.3,0.4-0.8,0.6-1.2c-0.1-0.1-0.3-0.2-0.4-0.4
					c-5.5,4.4-10.5,9.4-15.3,14.8c-5.2-6.6-10.3-13-15.6-19.8c-0.1,0.9-0.3,1.2-0.2,1.3c0.8,1.3,1.6,2.7,2.6,3.9
					c4.3,5.5,8.6,10.9,13.1,16.5c0.9-0.9,1.4-1.5,2-2.1C431.2,131.7,434.6,128.3,438.1,124.9z"/>
				<path class="st3" d="M82.6,43.6c0.9,75.3,1.7,150.3,2.6,225.4c3.7,0.9,125.9,14.1,127.9,13.8c0-0.9,0-1.8,0-2.8
					c-0.4-19.7-0.7-39.3-1.1-59c-0.3-16.2-0.6-32.4-0.9-48.6c-0.4-20.6-0.8-41.2-1.1-61.8c-0.3-14.2-0.5-28.4-0.7-42.7
					c0-1.2-0.2-2.3-0.3-3.4C166.7,57.5,124.8,50.6,82.6,43.6z"/>
				<path class="st3" d="M747.6,75.2c0.7-1.4,0.7-1.4-0.1-2.3c-3.7-4.4-7.3-8.9-11-13.4c-0.3-0.4-0.5-0.9-0.7-1.1
					c-4.3,1.5-21.7,14.2-22.8,16.7c7.3-5.1,14.3-10.5,21.9-15.1C739.2,65.1,743.3,70.1,747.6,75.2z"/>
				<path class="st3" d="M746.5,210.3c-4.8,1.3-9.2,3.4-13,6.6c-1,0.8-1.8,0.9-3,0.5c-3.3-1-6.6-1.7-10-2.5
					c-1.1-0.2-2.3-0.2-3.4-0.2c0,0.3-0.1,0.5-0.1,0.8c0.5,0.1,1.1,0.3,1.6,0.4c3.3,0.7,6.7,1.1,9.8,2.3c2.9,1.1,4.9,0.9,7.3-1.2
					c3.2-2.8,7.2-4.3,11.3-5.4c0.8-0.2,1.9-0.1,2.3-1.3C747.7,210,747.7,210,746.5,210.3z"/>
				<path class="st3" d="M410.3,162.6c-6.6,2.9-12.2,7.3-17.7,12.1c-3.8-3.1-7.4-6.1-11.1-9c-3.7-2.8-7.2-5.9-11.7-7.7
					c0.1,0.6,0.2,1,0.6,1.3c1.2,0.9,2.5,1.6,3.6,2.5c5.6,4.4,11.2,8.9,16.8,13.3c1.8,1.4,1.7,1.4,3.4,0c5-4.4,10.2-8.5,16.4-11.1
					c0.4-0.2,0.7-0.7,1.4-1.4C411.1,162.5,410.6,162.4,410.3,162.6z"/>
				<path class="st3" d="M810.8,167.7c-0.8-5.1-2.7-8.5-6.6-11.6c-5.8-4.6-12.4-6.1-19.7-5.3c-2,0.2-4,0.7-6,1.1
					c-0.1-0.2-0.2-0.2-0.2-0.3c0.1-0.8,0.2-1.5,0.3-2.3c1-7.5-1.3-13.7-7.8-17.9c-2.3-1.5-4.8-2.7-7.4-3.6c-5.6-2-11.5-2-17.4-1.3
					c-3.7,0.5-7.2,1.6-10.4,3.7c-5.2,3.5-7.7,8.2-6.6,14.6c0.3,1.5,0.4,2.9,0.5,4.5c-3.4-1-6.4-2-9.5-2.7
					c-9.2-2.2-17.8-0.8-25.6,4.8c-5.6,4.1-7.5,9.7-6.3,16.4c0.3,1.8,0.8,3.5,1.2,5.6c-2.3-0.5-4.1-1-6-1.4
					c-6.5-1.4-12.7-0.7-18.2,3.3c-1.2,0.8-2.5,1-3.9,1c-5.2,0-10.3-0.1-15.5,0.2c-4.7,0.3-9.3,1.5-13.7,3.6c-1.9,0.9-3.5,2.2-4.6,4
					c-1.4,2.2-0.7,3.5,1.8,3.6c0.9,0,1.9-0.1,2.8-0.1c5-0.1,10-0.5,15-0.3c9.8,0.4,19.6,1.2,29.4,1.9c9.4,0.6,18.7,1.2,28.1,1.9
					c11,0.7,22,1.4,33,2.2c11.6,0.9,23.2,1.9,34.8,2.9c11.3,1,22.7,1.9,34,2.9c6.7,0.6,13.4,1.2,20.1,1.7c0.3,0,0.6-0.1,1-0.2
					c-0.1-0.8-0.1-1.6-0.2-2.4c-0.7-0.1-1.3-0.3-1.9-0.4c-12-1-24-2.1-36.1-3.1c-13.4-1.1-26.8-2.3-40.2-3.3
					c-13.1-1-26.3-2-39.5-2.9c-14.1-1-28.2-1.8-42.3-2.8c-11.6-0.8-23.2-1.9-34.9-0.9c-0.5,0-1-0.1-1.6-0.2c0.9-1,1.9-1.8,3-2.2
					c3.4-1,6.7-2.4,10.2-2.7c5.7-0.5,11.5-0.5,17.3-0.5c1.9,0,3.6-0.3,5.1-1.5c4.7-3.4,10-4,15.5-3c2.6,0.5,5.2,1.3,7.8,1.8
					c2.4,0.4,3.2-0.5,2.6-2.9c-0.5-1.8-1.1-3.6-1.5-5.5c-1.4-6.3,0.6-11.4,6-15c5.8-3.8,12.1-5.3,19-4.3c4.5,0.7,8.7,2,12.9,3.5
					c2.8,1,3.9,0,3.5-2.9c-0.2-1.9-0.5-3.8-0.8-5.6c-0.6-5,1.5-8.7,5.7-11.3c1.5-0.9,3.2-1.7,4.9-2.2c5.6-1.8,11.4-1.7,17.1-0.6
					c3.4,0.6,6.6,1.9,9.5,3.9c3.3,2.3,5.9,5.1,6.5,9.2c0.6,4.1,0.9,8.1-2.2,11.5c-0.3,0.3-0.4,1.3-0.1,1.6c0.4,0.4,1.2,0.6,1.8,0.5
					c0.6,0,1.1-0.5,1.7-0.7c6.7-2.7,13.5-3.3,20.4-0.5c4.2,1.7,7.6,4.4,9.7,8.5c1,1.9,1.2,3.9,0.2,6c-0.1,0.2-0.3,0.5-0.3,0.7
					c0,0.6-0.1,1.4,0.2,1.6c0.5,0.3,1.2,0.2,1.9,0.2c0.3,0,0.6-0.4,0.9-0.5c5-3,10.4-4.1,16.1-3.3c0.6,0.1,1.3,0.1,2.1,0.1
					c-0.1-1.1-0.2-1.9-0.2-2.7C821.7,164.8,816.1,165.4,810.8,167.7z"/>
				<path class="st3" d="M213.9,183.2c0.4,24,0.8,48.1,1.3,72.1c0.1,7.4,0.3,14.8,0.5,22.2c0.1,2,0.2,4.1,0.4,6.3
					c10.3,1.1,20.3,2.2,30.6,3.4c0.2-2.6,0.5-4.8,0.4-7c-0.2-12.7-0.7-25.3-0.9-38c-0.7-42.8-1.4-85.7-2.1-128.5
					c-0.4-27.8-0.8-55.7-1.3-83.5c-0.1-8.1-0.3-16.2-0.5-24.3c0-1.6-0.2-3.2-0.3-4.9c-10.6,0-20.9,0-31.6,0
					c-0.1,0.9-0.2,1.5-0.1,2.2c0.5,23.3,1,46.5,1.5,69.8C212.5,109.7,213.2,146.4,213.9,183.2z"/>
				<path class="st3" d="M699.1,99.3c-4.3,3.3-7.6,7.5-10.1,12.3c-0.4,0.8-0.8,1.5-1.2,2.4c-0.6-0.6-1.1-1-1.7-1.4
					c-3.3-2.7-6.4-5.5-9.8-8c-2.8-2-5.8-3.7-8.8-5.4c-0.7-0.4-1.5-1-2.5,0.2c8.9,4.2,16.1,10.2,23.3,17c0.8-1.7,1.4-3.1,2.2-4.4
					c0.8-1.4,1.6-2.9,2.5-4.2c0.9-1.3,1.9-2.5,2.9-3.6c1.1-1.2,2.4-2.2,3.5-3.4c1-1.1,2.8-1.1,3.6-2.8
					C701.2,97.5,700.2,98.5,699.1,99.3z"/>
				<path class="st3" d="M659.5,33.9c6.2,3.2,12.4,6.4,18.6,9.6c1,0.5,1.7,0.4,2.6-0.1c7.1-3.8,14.4-6.9,22-9.4
					c0.4-0.1,0.8-0.4,1.2-0.7c-0.1-0.3-0.1-0.5-0.2-0.8c-0.9,0.2-2,0.2-2.8,0.6c-6.4,2.7-12.9,5.3-19.2,8.2c-1.8,0.8-3.2,1-5,0
					c-5.1-2.8-10.4-5.4-15.6-8.1c-0.7-0.4-1.5-1.2-2.7-0.3C659,33.4,659.2,33.8,659.5,33.9z"/>
				<path class="st3" d="M384.3,96.4c-1.2-1-2-0.7-2.8-0.4c-4,1.3-8,2.6-11.9,4.2c-1.3,0.5-2.2,0.6-3.3-0.1
					c-3.7-2.2-7.4-4.4-11.1-6.6c-0.4-0.3-1-0.3-1.4-0.5c0,0.8,0.2,1.3,0.6,1.5c4,2.4,8,4.7,12,7.1c1.2,0.7,2.2,0.5,3.4,0
					c4.2-1.6,8.4-2.9,12.6-4.4C382.9,97,383.4,96.8,384.3,96.4z"/>
				<path class="st3" d="M316.4,320.4c-2,1.5-4,3.1-6.2,4.8c-1.2-0.8-2.5-1.8-3.9-2.6c-1.4-0.8-2.3-2.5-4.4-2.4
					c0.1,0.4,0,0.8,0.2,0.9c2.4,1.8,4.9,3.5,7.3,5.2c0.9,0.7,1.7,0.4,2.5-0.4c1.5-1.5,3.2-2.8,4.8-4.2c0.3-0.2,0.4-0.6,0.6-1.1
					C316.9,320.5,316.6,320.3,316.4,320.4z"/>
				<path class="st3" d="M356.4,116.2c-2.9-1.6-5.9-3.3-8.8-4.8c-1.8-0.9-2-0.9-3.3,0.7c-3.1,3.6-6.2,7.2-9.2,10.8
					c-0.4,0.5-0.6,1.1-0.9,1.6c1.2,0.7,1.4-0.2,1.8-0.7c2.9-3.4,5.8-6.8,8.7-10.2c0.4-0.5,1-0.9,1.4-1.3c4,1.5,7.1,4.2,11.1,5.2
					C357,116.8,356.8,116.4,356.4,116.2z"/>
				<path class="st3" d="M333.8,311.3c-0.6-0.6-1.3-1.4-2-2.1c-2.2-2.2-4.3-4.5-6.5-6.7c-0.5-0.5-1-1.3-1.9-0.6c0,0.2,0,0.4,0.1,0.5
					c3.1,3.2,6.2,6.4,9.3,9.7c0.8,0.8,1.6,0.8,2.6,0.4c2.1-0.9,4.3-1.7,6.4-2.5c0.4-0.2,0.7-0.5,1.1-0.9c-0.5-0.2-0.8-0.4-0.9-0.4
					C339.3,309.4,336.7,310.2,333.8,311.3z"/>
				<path class="st3" d="M638.2,76.2c2.3-4.5,4.3-9,5.5-13.9c1.7-6.7,2.2-13.5-0.2-20.1c-1.4-3.9-2.7-7.8-4.6-11.5
					c-3.5-6.7-8.3-12.4-14.9-16.1c-8-4.5-16.7-6.9-24.7-6.9c-10.5,0-19.1,2.6-27.2,6.9c-10.5,5.5-17.4,13.9-20.7,25.3
					c-2.6,9-2.8,18,0.7,26.9c9.2,23.2,35.1,32.7,53.5,28.9c7.9-1.6,15.1-4.7,22-8.6C632.2,84.3,635.8,80.9,638.2,76.2z"/>
				<path class="st3" d="M750,437.8c-3.8-1.4-7.7-2-11.6-2c-0.5,0-1,0-1.6,0c-3.5,0.3-6.9,0.8-9.9,2.5c-3.9,2.2-5.5,5.9-3.9,10.1
					c0.8,2.2,2.1,4.4,3.7,6.1c3.8,4.3,8.8,6.9,14.5,7.8c4.1,0.7,8.1,0,11.8-1.9c3.2-1.6,5.6-4.1,6.6-7.6c1-3.4,0.8-6.7-1.6-9.5
					C755.8,440.9,753.1,438.9,750,437.8z"/>
				<path class="st3" d="M685,397.1c-5.4-3.1-13.9-3.1-19,1.8c-0.4,0.4-0.9,0.8-1.4,1.2c-4.1,3.4-6.1,7.8-6.3,12.1
					c-0.1,7,3.2,10.1,9.2,9.6c0.9-0.1,1.7-0.2,2.5-0.4c6.8-1.8,12.3-5.7,16.4-11.4c0.8-1.1,1.5-2.3,2-3.6
					C689.9,402.4,688.7,399.2,685,397.1z"/>
				<path class="st3" d="M779.3,395.9c-1-0.6-2.1-1.2-3.2-1.6c-4-1.5-8.1-2.3-12.4-2.5c-2.3-0.1-4.6,0.1-7,0.3
					c-4.5,0.3-7.4,3.4-10.3,6.2c-1.5,1.4-1.7,3.5-1.2,5.6c0.8,3.6,3.1,6.1,6.2,7.9c3.4,2,7.2,2.8,11.1,2.8c5.1,0,9.4-1.1,13.3-3.5
					c2.2-1.4,4.1-3.1,5.6-5.3C784,401.9,783.2,398.3,779.3,395.9z"/>
				<path class="st3" d="M642.2,432.3c-0.9-0.5-1.9-0.9-2.8-1.2c-14.2-5-30.6,3.6-35.9,15.2c-0.8,1.6-1.4,3.4-1.7,5.1
					c-2,10,5.9,17.7,13.6,17.4c2.9-0.7,5.9-1.3,8.7-2.1c5.8-1.6,11.2-3.9,15.9-7.7c4.6-3.8,7.7-8.6,8.5-14.6
					C649.1,439.1,646.8,434.7,642.2,432.3z"/>
				<path class="st3" d="M816.8,365c-3.3-1.7-6.8-2.5-10.5-2.5c-8.4,0-16.1,4.9-18.8,12.2c-2.2,5.9-0.7,11.8,4.2,15.8
					c3.1,2.5,6.8,4.2,10.7,4.8c5.6,0.9,10.4-0.6,13.8-5.5c0.6-0.8,1.4-1.5,2.2-2.1C826.7,381.6,825.8,369.6,816.8,365z"/>
				<path class="st3" d="M601,415.3c-0.6-0.6-1.3-1.1-2-1.6c-5.5-3.6-11.5-5-18-4.1c-3.1,0.4-6.1,0.9-9.2,1.5
					c-7.8,1.5-13.6,6.1-18,12.5c-2.6,3.8-1.7,7.3,2.2,9.7c1.2,0.8,2.6,1.4,4,1.9c4.6,1.7,9.3,2.4,14.1,2.5c6.4-0.2,12.5-1.4,18.2-4
					c4-1.8,7.4-4.4,10-8C604.8,421.9,604.4,418.4,601,415.3z"/>
				<path class="st3" d="M208.9,61.6c-0.2-20.4-0.7-40.5-1.1-60.6c-0.9-0.1-1.5-0.1-2.1-0.1c-41,0-82.1,0.1-123.1,0.1
					c-0.1,0-0.1,0.1-0.2,0.1c-0.1,0.1-0.1,0.1-0.3,0.4c0.2,12.8,0.3,25.8,0.5,39.1C124.8,47.7,166.6,54.6,208.9,61.6z"/>
				<path class="st3" d="M79.3,1.1c-10.6,0-20.7,0-30.8,0c0,11.3,0,22.3,0,33.7c10.4,1.8,20.6,3.5,30.8,5.3
					C79.3,26.9,79.3,14.1,79.3,1.1z"/>
				<path class="st3" d="M48.7,40.7c0.2,15.6,0.4,31.2,0.6,46.8c0.3,27.2,0.7,54.3,1,81.5c0.4,31.2,0.7,62.4,1.1,93.6
					c0,0.9,0,1.8,0,2.9c10.5,1.1,20.6,2.2,30.7,3.3c0-3.7,0-7.1,0-10.4c-0.1-13.1-0.3-26.2-0.5-39.3c-0.4-32-0.7-64-1.1-95.9
					c-0.2-18.4-0.4-36.7-0.6-55.1c-0.1-7-0.1-14-0.2-20.9c0-1.3-0.1-2.7-0.2-4.1c-10.3-1.8-20.4-3.5-30.8-5.3
					C48.7,38.9,48.7,39.8,48.7,40.7z"/>
				<path class="st3" d="M289.1,446.2c-0.4-26.1-0.7-52.3-1.1-78.4c-0.3-23.3-0.7-46.6-1-69.8c-0.4-26.2-0.7-52.4-1.1-78.6
					c-0.3-23.2-0.7-46.4-1-69.6c-0.4-26.5-0.7-52.9-1.1-79.4c-0.3-20.8-0.5-41.6-0.8-62.3c0-2.3-0.2-4.6-0.3-6.8
					c-4-0.6-36.1-0.4-38,0.2c0,1,0,2,0,3.1c0.3,21,0.7,41.9,1,62.9c0.3,19.9,0.7,39.8,1,59.8c0.4,22.4,0.7,44.8,1.1,67.3
					c0.2,13.4,0.4,26.7,0.6,40.1c0.1,4.9,0.1,9.8,0.2,14.7c0.2,12.5,0.5,25,0.7,37.5c0,2.7-0.7,3.3-3.5,3.1
					c-2.3-0.2-4.6-0.5-6.9-0.8c-10.2-1.1-20.4-2.2-30.5-3.4c-10.3-1.1-20.6-2.2-30.8-3.4c-10.1-1.1-20.2-2.2-30.3-3.3
					c-10.3-1.1-20.6-2.2-30.8-3.4c-10.1-1.1-20.2-2.2-30.3-3.4c-11.5-1.3-23-2.5-34.4-3.7c-1.6-0.2-2.6-0.8-2.9-2.4
					c-0.2-0.8-0.4-1.7-0.4-2.5c-0.2-14.4-0.4-28.8-0.5-43.2c-0.3-25.1-0.6-50.2-0.9-75.3c-0.4-32-0.8-64-1.1-96
					c-0.2-15.3-0.4-30.7-0.5-46c0-0.6-0.1-1.2-0.1-1.9C41,0.6,2.1,0.8,0.4,1.4c0,149.6,0,299.2,0,448.9c0.6,0,1,0.1,1.4,0.1
					c14.2-0.8,28.5-0.1,42.6,1.5c17.7,2,35.4,4.5,53.1,6.7c12,1.5,24,2.9,35.9,4.4c12.7,1.6,25.3,3.3,37.9,4.9
					c12.9,1.7,25.8,3.5,38.7,4.9c12.5,1.3,25.1,2.4,37.6,3.3c13.2,0.9,26.5,1.3,39.8,1.9c0.7,0,1.3-0.1,2.1-0.1c0-1.1,0-2.1,0-3
					C289.4,465.4,289.3,455.8,289.1,446.2z"/>
				<path class="st6" d="M818.9,355.8c-5.7-5.3-12.6-8.4-19.8-10.9c-2.3-0.8-4.9-1.2-7.3-1.5c-3.9-0.4-7.5,0.8-10.6,3.2
					c-3.1,2.4-5.7,5.3-7.6,8.7c-3.3,5.8-6.4,11.8-9.6,17.7c-0.4,0.8-0.7,1.6-1.2,2.3c-0.4,0.4-1.2,0.8-1.7,0.7c-0.4,0-1-0.8-1-1.3
					c-0.2-2.7-1.9-4.5-3.6-6.1c-6.4-5.8-13.8-9.7-22.5-10.8c-4.5-0.6-8.9,0.4-13.1,2.2c-0.2,0.1-0.3,0.2-0.5,0.2
					c-2.2,1-3.1,0.4-3.2-1.9c-0.1-1.5,0.1-2.9-0.1-4.4c-0.3-2.8-0.7-5.6-1.3-8.4c-0.3-1.2-0.9-2.4-1.7-3.5c-4.7-6.7-12.4-7.1-17.7-1
					c-4.5,5.2-5.9,11.3-5.6,18c0,0.8,0.2,1.5,0.2,2.3c0,0.8-0.2,1.6-1.2,1.7c-0.9,0.2-1.4-0.4-1.7-1.2c-0.1-0.3-0.1-0.7-0.2-1
					c-1.7-4.6-4.5-8.4-8.7-10.9c-2.2-1.3-4.4-1.7-6.9-0.9c-6.8,2.1-12.8,10.1-12.9,17.2c0,2.3,0.6,4.4,1.5,6.5
					c1.3,3.3,2.7,6.5,4,9.8c0.3,0.8,0.6,1.6,0.8,2.5c0.9,3.5,0.4,4.4-3.1,5.5c-2.5,0.8-5.1,1.6-7.6,2.6c-1.2,0.5-2.3,1.2-3.3,1.9
					c-1.9,1.4-2.6,3.4-2.3,5.7c0.2,1.2,0.4,2.4,0.7,3.6c0.4,2.3-0.1,3.1-2.4,3.1c-2.7,0.1-5.4-0.1-8,0.1c-2.3,0.2-4.6,0.5-6.9,1.1
					c-3.7,0.9-5.9,3.4-6.3,7.3c-0.2,2-0.3,3.9-0.4,5.9c0,0.8,0.1,1.6-0.1,2.3c-0.2,0.6-0.6,1.4-1.1,1.6c-0.5,0.2-1.3-0.2-1.8-0.5
					c-0.4-0.2-0.7-0.7-1-1.2c-7.6-11.9-19.1-18.1-32.4-21.5c-9.7-2.4-19.5-3.7-29.5-3.4c-4.8,0.1-9.4,1.2-13.8,2.9
					c-4.4,1.7-7.1,4.8-8.1,9.3c-0.6,2.9-1.1,5.9-1.3,8.9c-0.3,3.6-0.4,7.2-0.5,10.9c-0.1,3.6-0.3,3.7-3.9,3.8
					c-1.9,0-3.8,0.2-5.7,0.4c-3.3,0.4-5.4,2.2-6.1,5.4c-0.4,2-0.6,4.1-0.8,6.1c-0.1,0.9,0,1.9,0,2.8c-0.1,1.7-0.4,2.1-2.2,2.3
					c-2.9,0.3-5.8,0.6-8.7,0.9c-0.5,0.1-1,0.1-1.5,0.2c-8.3,1.8-12.6,7.8-11.7,16.2c0.2,2,0.6,3.9,0.9,5.9c0.1,0.5,0.3,0.9,0.6,1.6
					c1,0,1.9,0,2.8,0c28.6-0.4,57.3-0.7,85.9-1.3c20.2-0.5,40.3-1.5,60.5-2.2c22.2-0.8,44.5-1,66.7-0.2c13.1,0.5,26.2,0.7,39.3,1.2
					c23.9,1,47,5.4,69.2,14.7c1.8,0.8,3.7,1.5,5.5,2.2c0.1,0,0.7,0.2,1,0.3c0-46.4,0-92.8,0-139.3c-2,1.2-4.7,2.4-6.5,3.5
					C820.6,356.8,819.8,356.6,818.9,355.8z M592.2,433.7c-5.7,2.6-11.8,3.9-18.2,4c-4.7-0.1-9.5-0.8-14.1-2.5
					c-1.4-0.5-2.7-1.1-4-1.9c-3.8-2.4-4.7-6-2.2-9.7c4.4-6.4,10.1-11,18-12.5c3-0.6,6.1-1.1,9.2-1.5c6.5-0.9,12.5,0.5,18,4.1
					c0.7,0.5,1.4,1,2,1.6c3.4,3.1,3.8,6.6,1.2,10.4C599.6,429.3,596.2,431.8,592.2,433.7z M648.4,444.3c-0.8,6-3.8,10.8-8.5,14.6
					c-4.7,3.9-10.1,6.1-15.9,7.7c-2.9,0.8-5.8,1.4-8.7,2.1c-7.7,0.4-15.6-7.4-13.6-17.4c0.4-1.8,1-3.5,1.7-5.1
					c5.3-11.5,21.7-20.1,35.9-15.2c1,0.3,1.9,0.7,2.8,1.2C646.8,434.7,649.1,439.1,648.4,444.3z M688.4,406.3
					c-0.5,1.3-1.2,2.5-2,3.6c-4.1,5.7-9.6,9.6-16.4,11.4c-0.8,0.2-1.7,0.4-2.5,0.4c-6,0.5-9.3-2.6-9.2-9.6c0.2-4.3,2.2-8.7,6.3-12.1
					c0.5-0.4,0.9-0.7,1.4-1.2c5.1-5,13.6-4.9,19-1.8C688.7,399.2,689.9,402.4,688.4,406.3z M759.5,452.9c-1,3.5-3.4,6-6.6,7.6
					c-3.7,1.9-7.7,2.5-11.8,1.9c-5.7-0.9-10.7-3.5-14.5-7.8c-1.6-1.8-2.9-3.9-3.7-6.1c-1.6-4.2,0-7.8,3.9-10.1
					c3.1-1.7,6.5-2.3,9.9-2.5c0.5,0,1,0,1.6,0c4,0.1,7.9,0.6,11.6,2c3.2,1.2,5.8,3.1,7.9,5.6C760.3,446.2,760.5,449.5,759.5,452.9z
					 M781.4,405.8c-1.5,2.2-3.4,3.9-5.6,5.3c-3.9,2.4-8.2,3.5-13.3,3.5c-4,0.1-7.7-0.7-11.1-2.8c-3.1-1.8-5.4-4.3-6.2-7.9
					c-0.5-2.1-0.2-4.1,1.2-5.6c2.9-2.9,5.8-5.9,10.3-6.2c2.3-0.2,4.6-0.3,7-0.3c4.2,0.2,8.4,1,12.4,2.5c1.1,0.4,2.2,0.9,3.2,1.6
					C783.2,398.3,784,401.9,781.4,405.8z M818.5,387.6c-0.8,0.6-1.6,1.3-2.2,2.1c-3.4,4.9-8.1,6.4-13.8,5.5c-4-0.6-7.6-2.3-10.7-4.8
					c-4.9-4-6.5-9.9-4.2-15.8c2.7-7.2,10.4-12.2,18.8-12.2c3.7,0,7.2,0.8,10.5,2.5C825.8,369.6,826.7,381.6,818.5,387.6z"/>
				<path d="M828.4,349.5c-0.1,0-0.2,0.1-0.3,0.1c0,1,0,2,0,3c0.1,0,0.2-0.1,0.3-0.1C828.4,351.9,828.4,350.8,828.4,349.5z"/>
				<path d="M752.5,474.6c-13.1-0.6-26.2-0.8-39.3-1.2c-22.2-0.8-44.5-0.6-66.7,0.2c-20.2,0.7-40.3,1.8-60.5,2.2
					c-28.6,0.7-57.3,0.9-85.9,1.3c-0.9,0-1.9,0-2.8,0c-0.2-0.6-0.5-1.1-0.6-1.6c-0.3-2-0.7-3.9-0.9-5.9c-0.9-8.4,3.4-14.4,11.7-16.2
					c0.5-0.1,1-0.2,1.5-0.2c2.9-0.3,5.8-0.6,8.7-0.9c1.7-0.2,2.1-0.5,2.2-2.3c0.1-0.9-0.1-1.9,0-2.8c0.2-2,0.4-4.1,0.8-6.1
					c0.7-3.2,2.8-5.1,6.1-5.4c1.9-0.2,3.8-0.4,5.7-0.4c3.7-0.1,3.8-0.2,3.9-3.8c0.1-3.6,0.2-7.2,0.5-10.9c0.3-3,0.7-6,1.3-8.9
					c1-4.5,3.7-7.7,8.1-9.3c4.5-1.7,9-2.8,13.8-2.9c10-0.3,19.8,1,29.5,3.4c13.3,3.3,24.7,9.6,32.4,21.5c0.3,0.4,0.6,0.9,1,1.2
					c0.5,0.3,1.3,0.7,1.8,0.5c0.5-0.2,0.9-1,1.1-1.6c0.2-0.7,0-1.5,0.1-2.3c0.1-2,0.2-4,0.4-5.9c0.4-3.9,2.6-6.4,6.3-7.3
					c2.2-0.6,4.6-0.9,6.9-1.1c2.7-0.2,5.3-0.1,8-0.1c2.3-0.1,2.9-0.8,2.4-3.1c-0.2-1.2-0.5-2.4-0.7-3.6c-0.3-2.3,0.4-4.3,2.3-5.7
					c1-0.8,2.1-1.5,3.3-1.9c2.5-1,5-1.8,7.6-2.6c3.4-1.1,4-2,3.1-5.5c-0.2-0.8-0.5-1.7-0.8-2.5c-1.3-3.3-2.6-6.5-4-9.8
					c-0.9-2.1-1.5-4.2-1.5-6.5c0.1-7.1,6.1-15.1,12.9-17.2c2.5-0.8,4.8-0.3,6.9,0.9c4.3,2.5,7,6.3,8.7,10.9c0.1,0.3,0.1,0.7,0.2,1
					c0.2,0.8,0.8,1.4,1.7,1.2c0.9-0.2,1.2-0.9,1.2-1.7c0-0.8-0.1-1.5-0.2-2.3c-0.3-6.7,1.1-12.8,5.6-18c5.4-6.2,13.1-5.8,17.7,1
					c0.7,1,1.4,2.2,1.7,3.5c0.6,2.8,0.9,5.6,1.3,8.4c0.2,1.4,0,2.9,0.1,4.4c0.1,2.3,1.1,2.8,3.2,1.9c0.2-0.1,0.3-0.2,0.5-0.2
					c4.2-1.8,8.6-2.7,13.1-2.2c8.7,1.1,16.1,5,22.5,10.8c1.8,1.6,3.4,3.4,3.6,6.1c0,0.5,0.6,1.2,1,1.3c0.6,0.1,1.3-0.3,1.7-0.7
					c0.6-0.6,0.8-1.5,1.2-2.3c3.2-5.9,6.3-11.9,9.6-17.7c1.9-3.4,4.5-6.3,7.6-8.7c3.1-2.4,6.7-3.6,10.6-3.2c2.5,0.3,5,0.7,7.3,1.5
					c7.2,2.4,14.1,5.6,19.8,10.9c0.9,0.8,1.7,1,2.8,0.3c1.9-1.2,3.8-2.2,5.9-3.4c0-0.5,0-1.4,0-2.7c-2.6,1-4.9,1.9-7.3,2.9
					c-0.2-0.1-0.4-0.3-0.7-0.5c-6.8-5.3-14.5-9-22.8-11.1c-8-2.1-14.9-0.1-20.4,6c-2.2,2.5-4.3,5.2-6.1,8c-2.6,4.3-4.9,8.9-7.3,13.4
					c-0.3,0.6-0.7,1.2-1.2,2c-3.1-4.7-7.3-7.7-11.9-10.2c-4.5-2.5-9.3-4.5-14.5-5.3c-5.2-0.8-10.2,0.4-15.3,1.9c0-1.6,0-2.8,0-4
					c-0.1-3.6-0.7-7-2.2-10.3c-4.7-10.1-16.5-11.8-23.7-3.3c-3.1,3.6-5.2,7.7-5.8,12.5c-0.1,0.7-0.3,1.4-0.4,2.1
					c-2-1.9-3.7-3.8-5.8-5.3c-4.4-3.4-9.2-3.6-14-0.8c-4.2,2.4-7.5,5.8-9.6,10.2c-2.4,5-2.9,10-0.6,15.2c1.4,3.2,2.7,6.5,4,9.8
					c0.5,1.3,0.8,2.7,1.3,4.2c-1.4,0.4-2.6,0.7-3.7,1.2c-2.9,1.2-5.8,2.2-8.5,3.6c-3.3,1.8-4.8,4.8-4.5,8.6c0.1,1.2,0.3,2.4,0.4,3.9
					c-1.1,0-2.2,0-3.2,0c-4.2,0.2-8.5,0.1-12.5,1.5c-4.2,1.4-6.9,4.2-7.6,8.6c-0.3,1.7-0.5,3.5-0.8,5.5c-0.5-0.5-0.8-0.8-1.1-1.1
					c-5.7-7.8-13.4-12.8-22.2-16.3c-12.4-4.8-25.3-6.5-38.5-6.5c-5.1,0-10.1,1.1-14.9,2.8c-6.1,2.1-9.7,6.3-11,12.6
					c-1.1,5.5-1.5,11.1-1.5,16.7c0,1.2-0.1,2.4-0.1,3.7c-2.2,0.1-4.2,0.1-6.1,0.3c-5.4,0.5-8.4,3.1-9.6,8.2
					c-0.4,1.8-0.5,3.7-0.7,5.6c-0.1,0.9-0.1,1.9-0.1,2.9c-0.8,0.1-1.5,0.2-2.2,0.3c-2.7,0.3-5.5,0.5-8.2,1.1
					c-7.7,1.5-12.5,6.3-13.5,13.7c-0.4,2.6,0,5.3,0.1,8c0.1,1.5,0.5,3,0.7,4.6c-67.2,1.4-134.2,2.3-201.1,1.2
					c-0.4-3.8-7.2-475-6.5-477.3c1.1,0,2.3,0,3.5,0c133.2,0,266.3,0,399.5,0c45.1,0,90.2,0,135.3,0c1,0,2-0.2,3-0.4
					c-276,0-551.9,0-827.9,0c0,198.4,0,396.7,0,595.1c1.3-0.7,0.4-1.8,0.4-2.7c0.1-36.1,0.1-72.3,0.1-108.4c0-0.8,0.1-1.6,0.2-2.8
					c0.9,0.5,1.6,0.8,2.3,1.2c21.2,13.5,44.3,22.6,68.6,28.8c17.1,4.4,34.6,7.2,52,10.3c16.4,3,32.9,6,49.3,9.1
					c15.2,2.9,30.2,6.2,45.4,8.8c23.5,4.1,47.1,7.7,70.7,11.5c20,3.3,40,6.3,59.9,10.1c31.8,6,63.6,12.5,95.3,19
					c18.3,3.7,36.5,8.1,54.4,13.4c1.5,0.4,2.9,1.4,4.3,1.5c2.9,0.2,5.9,0.1,8.9,0.1c-0.2-0.2-0.4-0.4-0.6-0.5
					c-0.5-0.3-1.1-0.5-1.4-0.7c-21.9-7-44.3-12.3-66.8-17c-20.1-4.2-40.1-8.3-60.3-12.3c-20.4-4-40.8-7.9-61.2-11.4
					c-22.3-3.8-44.6-6.9-66.9-10.5c-18-3-36-6.2-54-9.5c-32.9-6.1-65.7-12.3-98.6-18.4c-15.9-3-31.7-6.4-47.2-11.4
					c-18.3-5.9-35.6-14-51.8-24.3c-1.8-1.2-2.5-2.4-2.5-4.6c0.1-6.3,0-12.6,0-18.9c0-0.9,0-1.8,0-3c2.2-0.2,4.1-0.3,5.9-0.4
					c10.3-0.3,20.5,0,30.7,1.1c17.2,1.9,34.4,4.2,51.6,6.3c11.7,1.5,23.4,2.9,35.2,4.4c11.5,1.4,23.1,2.8,34.6,4.3
					c13.5,1.8,27,3.7,40.5,5.4c17.8,2.2,35.6,4,53.6,4.9c17.1,0.8,34.1,1.7,51.2,1.9c54.3,0.8,108.7,0.2,163-0.8
					c28.5-0.5,56.9-0.6,85.4-1.1c22.8-0.4,45.7-1.2,68.5-1.9c12.4-0.4,24.8-0.9,37.2-1.3c17.1-0.6,34.1-0.6,51.2,0
					c17.7,0.6,35.3,1.1,53,2.1c12.2,0.6,24.1,2.8,35.9,6c9.1,2.4,17.9,5.8,26.6,9.3c1.1,0.4,2.2,0.8,3.4,1.3c0-1.2,0-2,0-2.8
					c-0.2-0.2-0.4-0.3-0.5-0.4c-1.8-0.7-3.7-1.5-5.5-2.2C799.5,480,776.3,475.6,752.5,474.6z M210.4,1c10.7,0,21,0,31.6,0
					c0.1,1.7,0.3,3.3,0.3,4.9c0.2,8.1,0.3,16.2,0.5,24.3c0.4,27.8,0.8,55.7,1.3,83.5c0.7,42.8,1.4,85.7,2.1,128.5
					c0.2,12.7,0.6,25.3,0.9,38c0,2.2-0.3,4.4-0.4,7c-10.3-1.1-20.4-2.2-30.6-3.4c-0.1-2.3-0.3-4.3-0.4-6.3
					c-0.2-7.4-0.3-14.8-0.5-22.2c-0.4-24-0.8-48.1-1.3-72.1c-0.7-36.7-1.4-73.4-2.1-110.1c-0.5-23.3-1-46.5-1.5-69.8
					C210.3,2.5,210.4,1.9,210.4,1z M209.9,110.6c0.4,20.6,0.7,41.2,1.1,61.8c0.3,16.2,0.6,32.4,0.9,48.6c0.4,19.7,0.7,39.3,1.1,59
					c0,0.9,0,1.9,0,2.8c-2,0.3-124.1-12.8-127.9-13.8c-0.9-75-1.7-150-2.6-225.4c42.2,7,84.1,13.9,126.3,20.9c0.1,1,0.3,2.2,0.3,3.4
					C209.4,82.1,209.6,96.4,209.9,110.6z M82.4,1.2c0.1-0.1,0.1-0.1,0.2-0.1c41-0.1,82.1-0.1,123.1-0.1c0.6,0,1.2,0.1,2.1,0.1
					c0.4,20.1,0.9,40.1,1.1,60.6c-42.3-7-84.1-13.9-126.3-20.9c-0.2-13.3-0.4-26.3-0.5-39.1C82.3,1.3,82.3,1.2,82.4,1.2z M79.8,47.1
					c0.1,7,0.1,14,0.2,20.9c0.2,18.4,0.4,36.7,0.6,55.1c0.4,32,0.7,64,1.1,95.9c0.2,13.1,0.3,26.2,0.5,39.3c0,3.4,0,6.7,0,10.4
					c-10.1-1.1-20.2-2.2-30.7-3.3c0-1.1,0-2,0-2.9c-0.4-31.2-0.7-62.4-1.1-93.6c-0.3-27.2-0.7-54.3-1-81.5
					c-0.2-15.6-0.4-31.2-0.6-46.8c0-0.9,0-1.8,0-3c10.4,1.8,20.5,3.5,30.8,5.3C79.6,44.4,79.8,45.8,79.8,47.1z M48.5,1.1
					c10.1,0,20.2,0,30.8,0c0,13,0,25.8,0,39c-10.2-1.8-20.4-3.5-30.8-5.3C48.5,23.4,48.5,12.3,48.5,1.1z M289.6,477.9
					c-0.8,0.1-1.5,0.2-2.1,0.1c-13.3-0.6-26.5-1.1-39.8-1.9c-12.6-0.8-25.1-1.9-37.6-3.3c-12.9-1.4-25.8-3.2-38.7-4.9
					c-12.7-1.6-25.3-3.3-37.9-4.9c-12-1.5-24-2.9-35.9-4.4c-17.7-2.2-35.4-4.7-53.1-6.7c-14.1-1.6-28.4-2.3-42.6-1.5
					c-0.4,0-0.8-0.1-1.4-0.1c0-149.7,0-299.3,0-448.9C2.1,0.8,41,0.6,45.2,1.2c0,0.7,0.1,1.3,0.1,1.9c0.2,15.3,0.4,30.7,0.5,46
					c0.4,32,0.7,64,1.1,96c0.3,25.1,0.6,50.2,0.9,75.3c0.2,14.4,0.3,28.8,0.5,43.2c0,0.8,0.2,1.7,0.4,2.5c0.3,1.6,1.4,2.2,2.9,2.4
					c11.5,1.2,23,2.5,34.4,3.7c10.1,1.1,20.2,2.2,30.3,3.4c10.3,1.1,20.6,2.2,30.8,3.4c10.1,1.1,20.2,2.2,30.3,3.3
					c10.3,1.1,20.6,2.2,30.8,3.4c10.2,1.1,20.4,2.2,30.5,3.4c2.3,0.3,4.6,0.6,6.9,0.8c2.8,0.2,3.5-0.4,3.5-3.1
					c-0.2-12.5-0.5-25-0.7-37.5c-0.1-4.9-0.1-9.8-0.2-14.7c-0.2-13.4-0.4-26.7-0.6-40.1c-0.4-22.4-0.7-44.8-1.1-67.3
					c-0.3-19.9-0.7-39.8-1-59.8c-0.3-21-0.7-41.9-1-62.9c0-1,0-2.1,0-3.1c1.9-0.6,34-0.8,38-0.2c0.1,2.2,0.2,4.5,0.3,6.8
					c0.3,20.8,0.5,41.6,0.8,62.3c0.3,26.5,0.7,52.9,1.1,79.4c0.3,23.2,0.7,46.4,1,69.6c0.4,26.2,0.7,52.4,1.1,78.6
					c0.3,23.3,0.7,46.6,1,69.8c0.4,26.1,0.7,52.3,1.1,78.4c0.1,9.6,0.3,19.1,0.4,28.7C289.6,475.9,289.6,476.8,289.6,477.9z"/>
				<path d="M820.3,352.9c2.4-0.9,4.7-1.8,7.3-2.9c0,1.3,0,2.1,0,2.7c-2.1,1.2-4,2.3-5.9,3.4c1.8-1.1,4.4-2.4,6.5-3.5c0-1,0-2,0-3
					C825.6,350.6,822.6,352,820.3,352.9z"/>
			</g>
			<path d="M511.4,595.7c-3,0-6,0.2-8.9-0.1c-1.5-0.1-2.9-1.1-4.3-1.5c1.3,0.4,3.1,1.6,4.5,2c3.1,0,6.3,0,9.4,0
				c-0.3-0.3-0.8-0.7-1.3-1C511,595.3,511.2,595.4,511.4,595.7z"/>
		</g>
		<path d="M827.1,491.5c0.2,0.1,0.3,0.2,0.5,0.4c0,0.8,0,1.6,0,2.8c-1.3-0.5-2.3-0.9-3.4-1.3c1,0.4,2.7,1.3,3.9,1.8
			c0-1.1,0-2.2,0-3.3C827.8,491.7,827.3,491.6,827.1,491.5z"/>
	</g>
	<g>
		<path class="st3" d="M333.8,311.3c-0.6-0.6-1.3-1.4-2-2.1c-2.2-2.2-4.3-4.5-6.5-6.7c-0.5-0.5-1-1.3-1.9-0.6c0,0.2,0,0.4,0.1,0.5
			c3.1,3.2,6.2,6.4,9.3,9.7c0.8,0.8,1.6,0.8,2.6,0.4c2.1-0.9,4.3-1.7,6.4-2.5c0.4-0.2,0.7-0.5,1.1-0.9c-0.5-0.2-0.8-0.4-0.9-0.4
			C339.3,309.4,336.7,310.2,333.8,311.3z"/>
		<path class="st3" d="M316.4,320.4c-2,1.5-4,3.1-6.2,4.8c-1.2-0.8-2.5-1.8-3.9-2.6c-1.4-0.8-2.3-2.5-4.4-2.4c0.1,0.4,0,0.8,0.2,0.9
			c2.4,1.8,4.9,3.5,7.3,5.2c0.9,0.7,1.7,0.4,2.5-0.4c1.5-1.5,3.2-2.8,4.8-4.2c0.3-0.2,0.4-0.6,0.6-1.1
			C316.9,320.5,316.6,320.3,316.4,320.4z"/>
		<path class="st3" d="M410.3,162.6c-6.6,2.9-12.2,7.3-17.7,12.1c-3.8-3.1-7.4-6.1-11.1-9c-3.7-2.8-7.2-5.9-11.7-7.7
			c0.1,0.6,0.2,1,0.6,1.3c1.2,0.9,2.5,1.6,3.6,2.5c5.6,4.4,11.2,8.9,16.8,13.3c1.8,1.4,1.7,1.4,3.4,0c5-4.4,10.2-8.5,16.4-11.1
			c0.4-0.2,0.7-0.7,1.4-1.4C411.1,162.5,410.6,162.4,410.3,162.6z"/>
		<path class="st3" d="M384.3,96.4c-1.2-1-2-0.7-2.8-0.4c-4,1.3-8,2.6-11.9,4.2c-1.3,0.5-2.2,0.6-3.3-0.1c-3.7-2.2-7.4-4.4-11.1-6.6
			c-0.4-0.3-1-0.3-1.4-0.5c0,0.8,0.2,1.3,0.6,1.5c4,2.4,8,4.7,12,7.1c1.2,0.7,2.2,0.5,3.4,0c4.2-1.6,8.4-2.9,12.6-4.4
			C382.9,97,383.4,96.8,384.3,96.4z"/>
		<path class="st3" d="M356.4,116.2c-2.9-1.6-5.9-3.3-8.8-4.8c-1.8-0.9-2-0.9-3.3,0.7c-3.1,3.6-6.2,7.2-9.2,10.8
			c-0.4,0.5-0.6,1.1-0.9,1.6c1.2,0.7,1.4-0.2,1.8-0.7c2.9-3.4,5.8-6.8,8.7-10.2c0.4-0.5,1-0.9,1.4-1.3c4,1.5,7.1,4.2,11.1,5.2
			C357,116.8,356.8,116.4,356.4,116.2z"/>
		<path class="st3" d="M747.6,75.2c0.7-1.4,0.7-1.4-0.1-2.3c-3.7-4.4-7.3-8.9-11-13.4c-0.3-0.4-0.5-0.9-0.7-1.1
			c-4.3,1.5-21.7,14.2-22.8,16.7c7.3-5.1,14.3-10.5,21.9-15.1C739.2,65.1,743.3,70.1,747.6,75.2z"/>
		<path class="st3" d="M659.5,33.9c6.2,3.2,12.4,6.4,18.6,9.6c1,0.5,1.7,0.4,2.6-0.1c7.1-3.8,14.4-6.9,22-9.4
			c0.4-0.1,0.8-0.4,1.2-0.7c-0.1-0.3-0.1-0.5-0.2-0.8c-0.9,0.2-2,0.2-2.8,0.6c-6.4,2.7-12.9,5.3-19.2,8.2c-1.8,0.8-3.2,1-5,0
			c-5.1-2.8-10.4-5.4-15.6-8.1c-0.7-0.4-1.5-1.2-2.7-0.3C659,33.4,659.2,33.8,659.5,33.9z"/>
		<path class="st3" d="M699.1,99.3c-4.3,3.3-7.6,7.5-10.1,12.3c-0.4,0.8-0.8,1.5-1.2,2.4c-0.6-0.6-1.1-1-1.7-1.4
			c-3.3-2.7-6.4-5.5-9.8-8c-2.8-2-5.8-3.7-8.8-5.4c-0.7-0.4-1.5-1-2.5,0.2c8.9,4.2,16.1,10.2,23.3,17c0.8-1.7,1.4-3.1,2.2-4.4
			c0.8-1.4,1.6-2.9,2.5-4.2c0.9-1.3,1.9-2.5,2.9-3.6c1.1-1.2,2.4-2.2,3.5-3.4c1-1.1,2.8-1.1,3.6-2.8
			C701.2,97.5,700.2,98.5,699.1,99.3z"/>
		<path class="st3" d="M823.6,165.4c-4.4-0.2-8.7,0.5-12.8,2.3C814.6,166,819.1,165.3,823.6,165.4z"/>
		<path class="st3" d="M438.1,124.9c1-1,2-1.9,3-2.9c0.3-0.3,0.4-0.8,0.6-1.2c-0.1-0.1-0.3-0.2-0.4-0.4c-5.5,4.4-10.5,9.4-15.3,14.8
			c-5.2-6.6-10.3-13-15.6-19.8c-0.1,0.9-0.3,1.2-0.2,1.3c0.8,1.3,1.6,2.7,2.6,3.9c4.3,5.5,8.6,10.9,13.1,16.5c0.9-0.9,1.4-1.5,2-2.1
			C431.2,131.7,434.6,128.3,438.1,124.9z"/>
		<path class="st3" d="M746.5,210.3c-4.8,1.3-9.2,3.4-13,6.6c-1,0.8-1.8,0.9-3,0.5c-3.3-1-6.6-1.7-10-2.5c-1.1-0.2-2.3-0.2-3.4-0.2
			c0,0.3-0.1,0.5-0.1,0.8c0.5,0.1,1.1,0.3,1.6,0.4c3.3,0.7,6.7,1.1,9.8,2.3c2.9,1.1,4.9,0.9,7.3-1.2c3.2-2.8,7.2-4.3,11.3-5.4
			c0.8-0.2,1.9-0.1,2.3-1.3C747.7,210,747.7,210,746.5,210.3z"/>
		<path class="st3" d="M638.2,76.2c2.3-4.5,4.3-9,5.5-13.9c1.7-6.7,2.2-13.5-0.2-20.1c-1.4-3.9-2.7-7.8-4.6-11.5
			c-3.5-6.7-8.3-12.4-14.9-16.1c-8-4.5-16.7-6.9-24.7-6.9c-10.5,0-19.1,2.6-27.2,6.9c-10.5,5.5-17.4,13.9-20.7,25.3
			c-2.6,9-2.8,18,0.7,26.9c9.2,23.2,35.1,32.7,53.5,28.9c7.9-1.6,15.1-4.7,22-8.6C632.2,84.3,635.8,80.9,638.2,76.2z"/>
		<path class="st3" d="M574.8,296c-1.3-0.3-2.6-0.5-4.3-0.8c1.3-0.7,2.2-1.2,3-1.8c2-1.4,2.4-3.1,1.3-5.2c-0.5-1-1.2-1.9-2-2.6
			c-1.4-1.1-2.9-2.2-4.5-3c-4.8-2.4-9.8-4.2-15.1-5.3c-2.6-0.5-5.2-0.9-8-1.4c2.8-4.7,1.2-9-1-13.1c-1.6-3-3.8-5.6-6.4-7.7
			c-10.7-8.8-22.8-10.7-36-7.3c-6.2,1.6-10,5.7-12.1,11.7c-0.5,1.4-0.8,2.8-1.2,4.2c-0.3,1.2-0.6,2.5-1,3.8c-0.7,0-1.3,0-1.9-0.1
			c-3-0.6-6-0.3-9,0.2c-10.2,1.6-17.2,8.7-18.6,19c-0.2,1.3-0.4,2.5-0.6,3.9c-1.1,0.1-2,0.1-2.9,0.2c-3.4,0.4-6.9,0.6-10.3,1.2
			c-4.4,0.7-8.5,2.1-12.2,4.6c-4.2,2.8-5.2,6.9-5.1,11.8c1.9,0,3.5,0,5,0c11.4-0.2,22.7-0.8,34.1-0.7c12.8,0.2,25.7,0.9,38.5,1.5
			c13.7,0.7,27.4-0.2,41.1-0.9c5.8-0.3,11.7-0.8,17.5-1.1c4.2-0.3,8.4-0.5,12.4-2.2c1.1-0.5,2.2-1.1,3.1-1.8c1.7-1.5,1.7-3,0.2-4.7
			C577.8,297.1,576.4,296.4,574.8,296z"/>
		<path class="st7" d="M826.7,200.7c-6.7-0.6-13.4-1.1-20.1-1.7c-11.3-1-22.7-1.9-34-2.9c-11.6-1-23.2-2-34.8-2.9
			c-11-0.8-22-1.5-33-2.2c-9.4-0.6-18.7-1.3-28.1-1.9c-9.8-0.6-19.6-1.4-29.4-1.9c-5-0.2-10,0.2-15,0.3c-0.9,0-1.9,0.1-2.8,0.1
			c-2.5-0.1-3.2-1.4-1.8-3.6c1.1-1.8,2.7-3.1,4.6-4c4.3-2,8.9-3.3,13.7-3.6c5.2-0.3,10.3-0.2,15.5-0.2c1.4,0,2.7-0.2,3.9-1
			c5.6-3.9,11.7-4.6,18.2-3.3c1.9,0.4,3.7,0.9,6,1.4c-0.5-2.1-0.9-3.8-1.2-5.6c-1.2-6.7,0.7-12.3,6.3-16.4c7.8-5.6,16.4-7,25.6-4.8
			c3.1,0.7,6.1,1.7,9.5,2.7c-0.2-1.6-0.3-3.1-0.5-4.5c-1.1-6.4,1.4-11.1,6.6-14.6c3.1-2.1,6.6-3.3,10.4-3.7
			c5.9-0.8,11.7-0.7,17.4,1.3c2.6,0.9,5.1,2.1,7.4,3.6c6.4,4.2,8.7,10.4,7.8,17.9c-0.1,0.8-0.2,1.5-0.3,2.3c0,0.1,0.1,0.1,0.2,0.3
			c2-0.4,3.9-0.9,6-1.1c7.2-0.8,13.9,0.7,19.7,5.3c3.9,3.1,5.9,6.5,6.6,11.6c4.1-1.8,8.4-2.6,12.8-2.3c1.6,0,3.1,0.2,4.6,0.4
			c0-54.3,0-108.6,0-163c0-0.7,0-1.4,0-2.1c0-0.1-0.3-0.2-0.5-0.3c-1,0.1-2,0.4-3,0.4c-45.1,0-90.2,0-135.3,0
			c-133.2,0-266.3,0-399.5,0c-1.2,0-2.4,0-3.5,0c-0.7,2.3,6.1,473.6,6.5,477.3c66.9,1.1,133.9,0.2,201.1-1.2
			c-0.3-1.6-0.7-3.1-0.7-4.6c-0.2-2.7-0.5-5.4-0.1-8c1-7.4,5.8-12.2,13.5-13.7c2.7-0.5,5.5-0.7,8.2-1.1c0.7-0.1,1.3-0.2,2.2-0.3
			c0-1,0-2,0.1-2.9c0.2-1.9,0.3-3.8,0.7-5.6c1.2-5.2,4.2-7.7,9.6-8.2c2-0.2,3.9-0.2,6.1-0.3c0-1.3,0.1-2.5,0.1-3.7
			c0-5.6,0.4-11.2,1.5-16.7c1.3-6.3,4.9-10.5,11-12.6c4.8-1.7,9.8-2.8,14.9-2.8c13.2,0,26.1,1.8,38.5,6.5
			c8.9,3.4,16.6,8.5,22.2,16.3c0.2,0.3,0.5,0.6,1.1,1.1c0.3-2,0.5-3.8,0.8-5.5c0.7-4.5,3.4-7.2,7.6-8.6c4.1-1.4,8.3-1.3,12.5-1.5
			c1,0,2,0,3.2,0c-0.2-1.5-0.3-2.7-0.4-3.9c-0.4-3.8,1.2-6.8,4.5-8.6c2.7-1.5,5.7-2.5,8.5-3.6c1.1-0.4,2.3-0.7,3.7-1.2
			c-0.4-1.5-0.8-2.9-1.3-4.2c-1.3-3.3-2.6-6.6-4-9.8c-2.2-5.2-1.8-10.3,0.6-15.2c2.2-4.4,5.4-7.7,9.6-10.2c4.8-2.8,9.6-2.6,14,0.8
			c2,1.6,3.8,3.5,5.8,5.3c0.1-0.7,0.3-1.4,0.4-2.1c0.6-4.8,2.7-8.9,5.8-12.5c7.2-8.5,19-6.8,23.7,3.3c1.5,3.3,2,6.8,2.2,10.3
			c0.1,1.2,0,2.4,0,4c5.2-1.5,10.2-2.7,15.3-1.9c5.2,0.8,9.9,2.7,14.5,5.3c4.6,2.5,8.8,5.5,11.9,10.2c0.5-0.8,0.9-1.4,1.2-2
			c2.4-4.5,4.7-9,7.3-13.4c1.7-2.9,3.8-5.5,6.1-8c5.5-6.1,12.4-8.1,20.4-6c8.4,2.1,16,5.9,22.8,11.1c0.3,0.2,0.5,0.4,0.7,0.5
			c2.3-0.9,5.4-2.3,7.9-3.3c0-49.6,0-99.3,0-148.9C827.6,200.8,826.9,200.7,826.7,200.7z M735.8,58.3c0.1,0.2,0.3,0.7,0.7,1.1
			c3.6,4.5,7.3,8.9,11,13.4c0.8,1,0.8,1,0.1,2.3c-4.2-5.1-8.4-10.1-12.6-15.2c-7.6,4.7-14.6,10-21.9,15.1
			C714.1,72.5,731.5,59.9,735.8,58.3z M699.4,100.7c-1.1,1.2-2.4,2.2-3.5,3.4c-1.1,1.1-2.1,2.3-2.9,3.6c-0.9,1.3-1.7,2.8-2.5,4.2
			c-0.7,1.3-1.3,2.7-2.2,4.4c-7.1-6.7-14.4-12.8-23.3-17c1.1-1.2,1.9-0.6,2.5-0.2c3,1.8,6,3.4,8.8,5.4c3.4,2.5,6.6,5.3,9.8,8
			c0.5,0.4,1,0.9,1.7,1.4c0.5-0.9,0.8-1.6,1.2-2.4c2.5-4.8,5.8-9,10.1-12.3c1.1-0.8,2.1-1.7,3.9-1.5
			C702.2,99.6,700.4,99.6,699.4,100.7z M661.3,33.4c5.2,2.7,10.5,5.3,15.6,8.1c1.8,1,3.1,0.8,5,0c6.3-2.9,12.8-5.5,19.2-8.2
			c0.9-0.4,1.9-0.4,2.8-0.6c0.1,0.3,0.1,0.5,0.2,0.8c-0.4,0.2-0.8,0.5-1.2,0.7c-7.6,2.5-15,5.6-22,9.4c-0.9,0.5-1.7,0.6-2.6,0.1
			c-6.2-3.2-12.4-6.4-18.6-9.6c-0.3-0.2-0.6-0.5-1-0.9C659.7,32.2,660.5,33,661.3,33.4z M316.8,321.6c-1.6,1.4-3.3,2.7-4.8,4.2
			c-0.8,0.8-1.5,1.1-2.5,0.4c-2.5-1.7-4.9-3.5-7.3-5.2c-0.1-0.1-0.1-0.5-0.2-0.9c2-0.1,3,1.6,4.4,2.4c1.4,0.8,2.7,1.8,3.9,2.6
			c2.2-1.7,4.2-3.3,6.2-4.8c0.1-0.1,0.5,0.1,0.9,0.2C317.1,321,317,321.4,316.8,321.6z M341.7,309.9c-2.1,0.9-4.3,1.7-6.4,2.5
			c-1,0.4-1.8,0.5-2.6-0.4c-3.1-3.2-6.2-6.4-9.3-9.7c-0.1-0.1-0.1-0.3-0.1-0.5c0.9-0.7,1.4,0.1,1.9,0.6c2.2,2.2,4.3,4.4,6.5,6.7
			c0.7,0.7,1.4,1.5,2,2.1c3-1,5.6-1.9,8.2-2.7c0.2-0.1,0.4,0.2,0.9,0.4C342.4,309.3,342.1,309.7,341.7,309.9z M346.1,112.2
			c-0.4,0.4-1,0.8-1.4,1.3c-2.9,3.4-5.8,6.8-8.7,10.2c-0.4,0.5-0.6,1.3-1.8,0.7c0.3-0.6,0.5-1.2,0.9-1.6c3.1-3.6,6.1-7.2,9.2-10.8
			c1.3-1.5,1.5-1.6,3.3-0.7c3,1.6,5.9,3.2,8.8,4.8c0.4,0.2,0.6,0.7,0.8,1.2C353.2,116.4,350,113.7,346.1,112.2z M366.3,101.6
			c-4-2.4-8-4.7-12-7.1c-0.4-0.2-0.6-0.7-0.6-1.5c0.5,0.2,1,0.3,1.4,0.5c3.7,2.2,7.4,4.4,11.1,6.6c1.1,0.7,2.1,0.6,3.3,0.1
			c3.9-1.5,7.9-2.8,11.9-4.2c0.8-0.3,1.6-0.6,2.8,0.4c-0.9,0.3-1.4,0.6-2,0.8c-4.2,1.5-8.5,2.8-12.6,4.4
			C368.5,102.1,367.5,102.3,366.3,101.6z M410.6,163.9c-6.2,2.7-11.4,6.7-16.4,11.1c-1.7,1.5-1.6,1.5-3.4,0
			c-5.6-4.5-11.2-8.9-16.8-13.3c-1.1-0.9-2.4-1.6-3.6-2.5c-0.3-0.2-0.5-0.7-0.6-1.3c4.4,1.7,8,4.8,11.7,7.7c3.7,2.8,7.2,5.8,11.1,9
			c5.5-4.8,11.1-9.2,17.7-12.1c0.3-0.1,0.8,0,1.8,0C411.4,163.2,411,163.7,410.6,163.9z M412.6,120.6c-1-1.2-1.7-2.6-2.6-3.9
			c-0.1-0.2,0.1-0.5,0.2-1.3c5.4,6.8,10.4,13.2,15.6,19.8c4.9-5.4,9.9-10.3,15.3-14.8c0.1,0.1,0.3,0.2,0.4,0.4
			c-0.2,0.4-0.3,0.9-0.6,1.2c-0.9,1-2,1.9-3,2.9c-3.4,3.4-6.9,6.8-10.3,10.2c-0.6,0.6-1.2,1.2-2,2.1
			C421.2,131.5,416.9,126.1,412.6,120.6z M578.7,303.1c-0.9,0.8-2,1.4-3.1,1.8c-4,1.7-8.2,2-12.4,2.2c-5.8,0.4-11.7,0.9-17.5,1.1
			c-13.7,0.6-27.4,1.6-41.1,0.9c-12.8-0.7-25.7-1.4-38.5-1.5c-11.4-0.1-22.7,0.4-34.1,0.7c-1.5,0-3.1,0-5,0c-0.1-4.9,1-9,5.1-11.8
			c3.7-2.5,7.9-3.9,12.2-4.6c3.4-0.6,6.8-0.8,10.3-1.2c0.9-0.1,1.9-0.1,2.9-0.2c0.2-1.4,0.4-2.7,0.6-3.9c1.4-10.3,8.4-17.4,18.6-19
			c3-0.5,6-0.7,9-0.2c0.6,0.1,1.2,0.1,1.9,0.1c0.3-1.3,0.6-2.6,1-3.8c0.4-1.4,0.7-2.8,1.2-4.2c2-5.9,5.9-10.1,12.1-11.7
			c13.1-3.4,25.3-1.5,36,7.3c2.6,2.2,4.8,4.7,6.4,7.7c2.2,4.2,3.8,8.4,1,13.1c2.8,0.5,5.4,0.9,8,1.4c5.3,1.1,10.3,2.9,15.1,5.3
			c1.6,0.8,3.1,1.9,4.5,3c0.8,0.7,1.5,1.6,2,2.6c1.1,2.1,0.6,3.8-1.3,5.2c-0.8,0.6-1.7,1-3,1.8c1.7,0.3,3,0.5,4.3,0.8
			c1.6,0.4,3.1,1.1,4.2,2.4C580.4,300.1,580.4,301.6,578.7,303.1z M605.7,95.5c-18.3,3.8-44.2-5.7-53.5-28.9
			c-3.5-8.9-3.3-17.8-0.7-26.9c3.3-11.4,10.2-19.8,20.7-25.3c8.1-4.3,16.7-6.8,27.2-6.9c8,0.1,16.7,2.4,24.7,6.9
			c6.6,3.7,11.4,9.4,14.9,16.1c1.9,3.7,3.2,7.6,4.6,11.5c2.3,6.7,1.9,13.4,0.2,20.1c-1.2,4.9-3.2,9.4-5.5,13.9
			c-2.4,4.7-6.1,8.2-10.5,10.7C620.8,90.8,613.5,93.9,605.7,95.5z M746.9,211.6c-4.1,1.1-8.1,2.6-11.3,5.4c-2.4,2.2-4.5,2.3-7.3,1.2
			c-3.1-1.1-6.5-1.5-9.8-2.3c-0.5-0.1-1.1-0.3-1.6-0.4c0-0.3,0.1-0.5,0.1-0.8c1.1,0.1,2.3,0,3.4,0.2c3.4,0.7,6.7,1.5,10,2.5
			c1.2,0.4,2,0.3,3-0.5c3.8-3.2,8.2-5.3,13-6.6c1.2-0.3,1.2-0.3,2.8,0C748.9,211.5,747.7,211.3,746.9,211.6z"/>
		<path class="st0" d="M809.6,171.7c-0.3,0.2-0.6,0.5-0.9,0.5c-0.6,0-1.4,0.1-1.9-0.2c-0.3-0.2-0.2-1.1-0.2-1.6
			c0-0.2,0.2-0.5,0.3-0.7c0.9-2,0.8-4-0.2-6c-2.1-4.1-5.5-6.8-9.7-8.5c-6.9-2.8-13.7-2.1-20.4,0.5c-0.6,0.2-1.1,0.7-1.7,0.7
			c-0.6,0-1.4-0.2-1.8-0.5c-0.3-0.3-0.2-1.3,0.1-1.6c3.1-3.4,2.9-7.4,2.2-11.5c-0.6-4.1-3.2-7-6.5-9.2c-2.9-2-6-3.3-9.5-3.9
			c-5.8-1.1-11.5-1.2-17.1,0.6c-1.7,0.5-3.4,1.3-4.9,2.2c-4.2,2.6-6.3,6.2-5.7,11.3c0.2,1.9,0.5,3.8,0.8,5.6c0.4,3-0.8,3.9-3.5,2.9
			c-4.2-1.5-8.5-2.9-12.9-3.5c-6.9-1-13.2,0.5-19,4.3c-5.4,3.5-7.4,8.6-6,15c0.4,1.8,1,3.6,1.5,5.5c0.7,2.4-0.1,3.3-2.6,2.9
			c-2.6-0.5-5.2-1.3-7.8-1.8c-5.5-1-10.8-0.5-15.5,3c-1.5,1.1-3.2,1.4-5.1,1.5c-5.8,0.1-11.6,0-17.3,0.5c-3.5,0.3-6.8,1.7-10.2,2.7
			c-1.1,0.3-2.1,1.1-3,2.2c0.5,0.1,1,0.2,1.6,0.2c11.7-1,23.3,0.1,34.9,0.9c14.1,1,28.2,1.9,42.3,2.8c13.2,0.9,26.3,1.9,39.5,2.9
			c13.4,1,26.8,2.2,40.2,3.3c12,1,24,2.1,36.1,3.1c0.4,0,1.6,0.1,2.4,0.2c0-9.7,0-19.4,0-29.1c-0.9-0.1-2-0.3-2.5-0.4
			C819.9,167.6,814.6,168.7,809.6,171.7z"/>
		<path d="M828.8,168.8c-0.1-1.1,0.1-2.1,0-2.9c-0.2,0-0.4-0.1-0.7-0.1c0,1,0,2,0,3C828.4,168.8,828.7,168.8,828.8,168.8z"/>
		<path d="M749.5,191.3c-13.1-1-26.3-2-39.5-2.9c-14.1-1-28.2-1.8-42.3-2.8c-11.6-0.8-23.2-1.9-34.9-0.9c-0.5,0-1-0.1-1.6-0.2
			c0.9-1,1.9-1.8,3-2.2c3.4-1,6.7-2.4,10.2-2.7c5.7-0.5,11.5-0.5,17.3-0.5c1.9,0,3.6-0.3,5.1-1.5c4.7-3.4,10-4,15.5-3
			c2.6,0.5,5.2,1.3,7.8,1.8c2.4,0.4,3.2-0.5,2.6-2.9c-0.5-1.8-1.1-3.6-1.5-5.5c-1.4-6.3,0.6-11.4,6-15c5.8-3.8,12.1-5.3,19-4.3
			c4.5,0.7,8.7,2,12.9,3.5c2.8,1,3.9,0,3.5-2.9c-0.2-1.9-0.5-3.8-0.8-5.6c-0.6-5,1.5-8.7,5.7-11.3c1.5-0.9,3.2-1.7,4.9-2.2
			c5.6-1.8,11.4-1.7,17.1-0.6c3.4,0.6,6.6,1.9,9.5,3.9c3.3,2.3,5.9,5.1,6.5,9.2c0.6,4.1,0.9,8.1-2.2,11.5c-0.3,0.3-0.4,1.3-0.1,1.6
			c0.4,0.4,1.2,0.6,1.8,0.5c0.6,0,1.1-0.5,1.7-0.7c6.7-2.7,13.5-3.3,20.4-0.5c4.2,1.7,7.6,4.4,9.7,8.5c1,1.9,1.2,3.9,0.2,6
			c-0.1,0.2-0.3,0.5-0.3,0.7c0,0.6-0.1,1.4,0.2,1.6c0.5,0.3,1.2,0.2,1.9,0.2c0.3,0,0.6-0.4,0.9-0.5c5-3,10.4-4.1,16.1-3.3
			c0.6,0.1,1.3,0.1,2.1,0.1c-0.1-1.1-0.2-1.9-0.2-2.7c-1.4-0.3-2.7-0.4-4-0.5c-4.4-0.1-9,0.7-12.8,2.3c-0.8-5.1-2.7-8.5-6.6-11.6
			c-5.8-4.6-12.4-6.1-19.7-5.3c-2,0.2-4,0.7-6,1.1c-0.1-0.2-0.2-0.2-0.2-0.3c0.1-0.8,0.2-1.5,0.3-2.3c1-7.5-1.3-13.7-7.8-17.9
			c-2.3-1.5-4.8-2.7-7.4-3.6c-5.6-2-11.5-2-17.4-1.3c-3.7,0.5-7.2,1.6-10.4,3.7c-5.2,3.5-7.7,8.2-6.6,14.6c0.3,1.5,0.4,2.9,0.5,4.5
			c-3.4-1-6.4-2-9.5-2.7c-9.2-2.2-17.8-0.8-25.6,4.8c-5.6,4.1-7.5,9.7-6.3,16.4c0.3,1.8,0.8,3.5,1.2,5.6c-2.3-0.5-4.1-1-6-1.4
			c-6.5-1.4-12.7-0.7-18.2,3.3c-1.2,0.8-2.5,1-3.9,1c-5.2,0-10.3-0.1-15.5,0.2c-4.7,0.3-9.3,1.5-13.7,3.6c-1.9,0.9-3.5,2.2-4.6,4
			c-1.4,2.2-0.7,3.5,1.8,3.6c0.9,0,1.9-0.1,2.8-0.1c5-0.1,10-0.5,15-0.3c9.8,0.4,19.6,1.2,29.4,1.9c9.4,0.6,18.7,1.2,28.1,1.9
			c11,0.7,22,1.4,33,2.2c11.6,0.9,23.2,1.9,34.8,2.9c11.3,1,22.7,1.9,34,2.9c6.7,0.6,13.4,1.2,20.1,1.7c0.3,0,0.6-0.1,1-0.2
			c-0.1-0.8-0.1-1.6-0.2-2.4c-0.7-0.1-1.3-0.3-1.9-0.4c-12-1-24-2.1-36.1-3.1C776.3,193.5,762.9,192.3,749.5,191.3z"/>
		<path d="M828.9,198c-0.2,0-0.4-0.1-0.7-0.1c0,1,0,1.9,0,2.9c0.3,0,0.5,0,0.7,0C828.8,199.9,828.9,198.8,828.9,198z"/>
		<path d="M827.6,165.9c0.1,0.8,0.1,1.6,0.2,2.7c-0.8,0-1.5,0-2.1-0.1c0.5,0.1,1.6,0.3,2.5,0.4c0-1,0-2,0-3c-1.5-0.2-3-0.4-4.6-0.4
			C824.9,165.5,826.2,165.6,827.6,165.9z"/>
		<path d="M825.7,197.7c0.6,0.1,1.2,0.2,1.9,0.4c0.1,0.8,0.1,1.5,0.2,2.4c-0.4,0.1-0.7,0.3-1,0.2c0.2,0,0.9,0.1,1.4,0
			c0-1,0-1.9,0-2.9C827.3,197.8,826.2,197.8,825.7,197.7z"/>
	</g>
	<path d="M599.4,7.6c8,0.1,16.7,2.4,24.7,6.9c6.6,3.7,11.4,9.4,14.9,16.1c1.9,3.7,3.2,7.6,4.6,11.5c2.3,6.7,1.9,13.4,0.2,20.1
		c-1.2,4.9-3.2,9.4-5.5,13.9c-2.4,4.7-6.1,8.2-10.5,10.7c-6.9,3.9-14.2,7-22,8.6c-18.3,3.8-44.2-5.7-53.5-28.9
		c-3.5-8.9-3.3-17.8-0.7-26.9c3.3-11.4,10.2-19.8,20.7-25.3C580.3,10.2,588.9,7.6,599.4,7.6z M600,10.4c-10.8,0-20.9,3.1-29.1,8.1
		c-7.5,4.6-12.7,11-15.7,19.2c-5,13.8-3.4,26.6,5.7,38.2c5.1,6.5,11.6,11.3,19.4,14.1c6.6,2.4,13.3,4,20.5,3.3
		c8.8-0.9,16.8-4.1,24.5-8.4c4.2-2.3,7.5-5.5,9.9-9.6c3.1-5.2,5.5-10.8,6.5-16.8c0.8-5,1.2-9.9-0.4-14.8c-2.3-7-5.7-13.5-10.3-19.3
		c-2.2-2.8-4.7-5.6-7.9-7.4C615.3,12.8,606.9,10.5,600,10.4z"/>
	<path d="M427,308.3c-0.1-4.9,1-9,5.1-11.8c3.7-2.5,7.9-3.9,12.2-4.6c3.4-0.6,6.8-0.8,10.3-1.2c0.9-0.1,1.9-0.1,2.9-0.2
		c0.2-1.4,0.4-2.7,0.6-3.9c1.4-10.3,8.4-17.4,18.6-19c3-0.5,6-0.7,9-0.2c0.6,0.1,1.2,0.1,1.9,0.1c0.3-1.3,0.6-2.6,1-3.8
		c0.4-1.4,0.7-2.8,1.2-4.2c2-5.9,5.9-10.1,12.1-11.7c13.1-3.4,25.3-1.5,36,7.3c2.6,2.2,4.8,4.7,6.4,7.7c2.2,4.2,3.8,8.4,1,13.1
		c2.8,0.5,5.4,0.9,8,1.4c5.3,1.1,10.3,2.9,15.1,5.3c1.6,0.8,3.1,1.9,4.5,3c0.8,0.7,1.5,1.6,2,2.6c1.1,2.1,0.6,3.8-1.3,5.2
		c-0.8,0.6-1.7,1-3,1.8c1.7,0.3,3,0.5,4.3,0.8c1.6,0.4,3.1,1.1,4.2,2.4c1.5,1.7,1.5,3.2-0.2,4.7c-0.9,0.8-2,1.4-3.1,1.8
		c-4,1.7-8.2,2-12.4,2.2c-5.8,0.4-11.7,0.9-17.5,1.1c-13.7,0.6-27.4,1.6-41.1,0.9c-12.8-0.7-25.7-1.4-38.5-1.5
		c-11.4-0.1-22.7,0.4-34.1,0.7C430.5,308.3,428.9,308.3,427,308.3z M543.1,277.1c0.5-0.8,0.7-1.4,1-1.9c1.5-2.4,1.8-5,0.9-7.7
		c-1.4-4-3.5-7.5-6.6-10.3c-10.7-9.7-23-11.7-36.6-8c-5.2,1.4-8.6,5-10.4,10c-0.9,2.5-1.4,5.1-2.1,7.7c-0.2,0.7-0.5,1.4-0.6,1.9
		c-3.3-0.1-6.2-0.4-9.1-0.2c-8.4,0.6-14.9,4.2-18.3,12.2c-1.1,2.5-1.5,5.3-2,8c-0.5,2.8-0.5,2.9-3.3,3.2c-4.2,0.4-8.4,0.8-12.6,1.5
		c-3.8,0.6-7.5,2-10.7,4.3c-3.2,2.2-4.3,5.4-4.3,9.2c0.6,0,1,0.1,1.4,0.1c3.4-0.1,6.9-0.4,10.3-0.5c11.5-0.1,22.9-0.3,34.4-0.1
		c13.6,0.3,27.2,1.3,40.8,1.5c9.8,0.1,19.6-0.5,29.5-0.9c6.6-0.3,13.2-0.7,19.9-1.3c3.1-0.3,6.1-0.9,9.1-1.6
		c1.1-0.2,2.1-0.8,3.1-1.3c2.3-1.4,2.4-3,0-4.5c-1.1-0.7-2.4-1.1-3.6-1.3c-1.7-0.3-3.4-0.4-5.1-0.6c-0.6-0.1-1.1-0.4-2.3-0.8
		c1.2-0.6,1.7-0.9,2.3-1.2c1.2-0.5,2.4-1,3.5-1.6c2.7-1.4,3.1-3.2,1-5.3c-1.5-1.5-3.3-2.8-5.2-3.8c-5.1-2.6-10.4-4.5-16.1-5.5
		C548.9,277.9,546.1,277.6,543.1,277.1z"/>
	<path d="M806.3,362.5c3.7,0,7.2,0.8,10.5,2.5c9,4.7,9.9,16.6,1.7,22.7c-0.8,0.6-1.6,1.3-2.2,2.1c-3.4,4.9-8.1,6.4-13.8,5.5
		c-4-0.6-7.6-2.3-10.7-4.8c-4.9-4-6.5-9.9-4.2-15.8C790.3,367.4,797.9,362.5,806.3,362.5z M804.6,378.3c1.9,0.5,3.4-0.2,4.7-1.5
		c1.2-1.2,1-2.3-0.6-3c-1.8-0.8-3.7-0.8-5.5,0.1c-1.8,0.8-2.8,2.3-2.6,3.8c0.2,1.5,1.4,2.5,3.5,2.8c0.4,0.1,0.9,0.1,1.3,0.1
		c2.9-0.2,5.6-1.2,7.8-3.1c2.9-2.6,2.8-5.8-0.3-8.1c-2.9-2.2-6.2-3-9.8-2.5c-7.1,0.9-10.3,7-7.1,13.3c0.8,1.5,1.9,2.9,3.1,4.1
		c3.7,3.4,8.1,4.8,13.1,4.3c3-0.3,5.7-1.6,7.6-3.9c5.4-6.4,3.4-15.2-4.2-18.8c-3.4-1.6-7-2.4-10.8-2c-6.8,0.7-12.4,3.7-15.5,10.1
		c-3,6-1.4,12.1,4,16c3.2,2.3,6.8,3.8,10.7,4.2c3.5,0.4,6.7-0.5,9.3-3c0.4-0.3,0.6-0.9,0.8-1.2c-2.4-0.1-4.7,0.1-6.8-0.4
		c-6.5-1.3-11.4-4.7-13.4-11.4c-1.3-4.5,0.3-8.4,4.3-10.9c4.9-3,11.9-2.3,16.1,1.6c2.8,2.6,3,6.2,0.4,8.9c-2.8,2.9-6.3,4.2-10.3,4
		c-0.9,0-1.9-0.4-2.7-0.8c-2.6-1.3-3.2-4.2-1.4-6.5c2.1-2.6,6.8-3.4,9.7-1.5c1.6,1.1,1.9,2.5,0.8,4c-1.3,1.8-3.2,2.6-5.4,2.7
		c-0.6,0-1.6-0.5-1.9-1c-0.9-1.5,0.5-3.9,2.4-4.3C805.4,375.7,804.1,376.6,804.6,378.3z"/>
	<path d="M615.3,468.7c-7.7,0.4-15.6-7.4-13.6-17.4c0.4-1.8,1-3.5,1.7-5.1c5.3-11.5,21.7-20.1,35.9-15.2c1,0.3,1.9,0.7,2.8,1.2
		c4.6,2.4,6.8,6.9,6.2,12c-0.8,6-3.8,10.8-8.5,14.6c-4.7,3.9-10.1,6.1-15.9,7.7C621.2,467.5,618.2,468,615.3,468.7z M621.6,456.8
		c-0.7-1.7-0.3-2.7,0.8-3.4c1.1-0.7,2.3-0.7,3.1,0.1c0.9,0.9,0.9,2,0.4,3.1c-0.9,2.2-2.6,3.4-4.8,3.9c-4.1,0.9-7-2.1-6-6.2
		c0.5-2,1.6-3.6,3.1-5c2.7-2.4,6-3.8,9.5-4.2c5-0.7,7.8,2.5,6.7,7.4c-0.8,3.5-2.5,6.6-4.9,9.2c-0.6,0.6-1.1,1.3-1.7,1.9
		c8.2-2.7,15-6.9,18.2-15.3c0.4-1,0.7-2,0.8-3c1.1-6-1.3-10.6-7.1-12.7c-2.4-0.9-5-1.4-7.5-1.6c-8.5-0.6-15.7,2.6-21.9,8.1
		c-3.3,3-5.8,6.6-7,11c-1.7,6.1,0.2,11.8,5.1,15.1c1.6,1.1,3.3,1.8,5.3,1.7c2-0.2,4-0.3,5.9-0.6c1.3-0.2,2.6-0.5,3.7-1.1
		c5.2-3.1,8.7-7.5,10-13.5c0.7-3.3-0.9-5.2-4.3-5.2c-4.3,0.1-8,1.8-10.9,5.1c-1.2,1.3-1.8,2.9-1.7,4.7c0.2,2.1,1.8,3.5,3.9,3.1
		c1.6-0.3,3-0.9,3.9-2.3c0.5-0.8,1-1.6,0.4-2.6C622.8,453.8,622.4,455.5,621.6,456.8z"/>
	<path d="M574,437.7c-4.7-0.1-9.5-0.8-14.1-2.5c-1.4-0.5-2.7-1.1-4-1.9c-3.8-2.4-4.7-6-2.2-9.7c4.4-6.4,10.1-11,18-12.5
		c3-0.6,6.1-1.1,9.2-1.5c6.5-0.9,12.5,0.5,18,4.1c0.7,0.5,1.4,1,2,1.6c3.4,3.1,3.8,6.6,1.2,10.4c-2.5,3.6-6,6.2-10,8
		C586.5,436.3,580.4,437.5,574,437.7z M564.2,415.8c-4.3,2.4-7.9,5.5-10,9.9c-1,2.1-0.4,4.4,1.5,5.8c1.5,1.1,3.2,2,5,2.6
		c10.6,3.5,21,2.9,31.2-1.7c3.5-1.6,6.5-3.9,8.9-6.9c2.8-3.7,2.5-6.8-1.1-9.6c-3.6-2.8-7.7-4.6-12.3-5c-4-0.4-7.9,0.2-11.8,1
		c-3.1,0.7-6,1.7-8.5,3.5c-1,0.7-2,1.7-2.7,2.7c-1.2,1.9-0.8,3.6,1.3,4.5c1.4,0.6,3,1,4.5,1c6.1,0.1,12-1.2,17.5-3.7
		c0.9-0.4,1.7-1.2,2.6-1.9c-3.7-2.9-13.6-2-16.7,1.3c0.7,0.6,1.4,1.3,2.1,1.9c-0.8,0.1-1.5-0.1-2.1-0.4c-1.6-0.9-1.8-2.1-0.4-3.2
		c0.7-0.5,1.5-0.9,2.3-1.2c3.9-1.4,7.9-1.7,12-1.2c0.8,0.1,1.5,0.3,2.2,0.6c2,0.9,2.2,2.6,0.5,4c-0.8,0.7-1.7,1.2-2.7,1.6
		c-5.9,2.5-12,3.9-18.4,3.5c-1.6-0.1-3.2-0.6-4.6-1.4c-2.1-1.1-2.7-3.1-1.7-5.3C563.2,417.3,563.7,416.6,564.2,415.8z"/>
	<path d="M762.5,414.5c-4,0.1-7.7-0.7-11.1-2.8c-3.1-1.8-5.4-4.3-6.2-7.9c-0.5-2.1-0.2-4.1,1.2-5.6c2.9-2.9,5.8-5.9,10.3-6.2
		c2.3-0.2,4.6-0.3,7-0.3c4.2,0.2,8.4,1,12.4,2.5c1.1,0.4,2.2,0.9,3.2,1.6c4,2.5,4.7,6.1,2.1,9.9c-1.5,2.2-3.4,3.9-5.6,5.3
		C771.9,413.4,767.6,414.6,762.5,414.5z M762.3,402c-1.9,0.9-2.1,1.1-1.9,2.1c0.2,1.2,1.1,2.2,2.7,2.4c1.1,0.1,2.3,0,3.2-0.4
		c1.4-0.6,1.5-1.7,0.5-2.9c-2.2-2.6-8.9-3.3-11.5-1.1c-1.3,1-1.5,2.3-0.5,3.6c0.4,0.5,0.9,1,1.5,1.4c4.5,3.2,13.8,3,18.2-0.3
		c0.2-0.2,0.4-0.3,0.6-0.5c1.8-1.6,2-3.7,0.3-5.5c-1-1.1-2.3-2.1-3.7-2.7c-4.3-2.2-8.9-3.1-13.7-3.1c-2.9,0-5.7,0.6-8.2,2
		c-3.5,2-4.4,5.2-2.6,8.8c1.4,2.6,3.5,4.5,6.2,5.6c8.3,3.4,16.2,2.5,23.5-2.8c1.7-1.2,3-3.1,4.1-4.9c1.2-2,0.8-4-1-5.6
		c-1.1-0.9-2.4-1.7-3.7-2.3c-6.3-2.6-12.9-3.2-19.9-2.3c2.8,0.3,5.4,0.4,7.9,0.9c3.9,0.7,7.7,1.9,10.9,4.4c3.6,2.9,3.4,6.9-0.5,9.4
		c-0.4,0.3-0.9,0.5-1.4,0.7c-5.1,2.1-10.2,2.3-15.4,0.4c-1-0.4-2-1-2.9-1.6c-1.4-1-2.4-2.3-2.1-4.2c0.3-1.8,1.6-2.8,3.2-3.4
		c3.4-1.2,6.8-0.9,10,0.9c0.7,0.4,1.3,0.9,1.8,1.5c1.4,1.6,1,3.6-0.8,4.6c-1.9,1.1-4,1.1-5.9,0c-0.9-0.5-1.6-1.6-1.9-2.6
		C758.6,402.4,759.9,401.4,762.3,402z"/>
	<path d="M738.3,435.8c4,0.1,7.9,0.6,11.6,2c3.2,1.2,5.8,3.1,7.9,5.6c2.4,2.8,2.6,6.1,1.6,9.5c-1,3.5-3.4,6-6.6,7.6
		c-3.7,1.9-7.7,2.5-11.8,1.9c-5.7-0.9-10.7-3.5-14.5-7.8c-1.6-1.8-2.9-3.9-3.7-6.1c-1.6-4.2,0-7.8,3.9-10.1c3.1-1.7,6.5-2.3,9.9-2.5
		C737.3,435.7,737.8,435.8,738.3,435.8z M743.9,461.3c0-0.2,0.1-0.4,0.1-0.6c-0.7-0.3-1.4-0.5-2.1-0.8c-4.4-1.8-7.6-6.6-7.3-10.9
		c0.1-2.6,1.6-4.5,4.1-4.9c3.7-0.5,7,0.5,9.8,3c1.7,1.5,1.6,3.9,0,5.5c-1.4,1.3-3.1,1.8-5,1.2c-1.6-0.6-3.2-2.8-3.2-4.6
		c0-0.2,0.3-0.5,0.4-0.6c0.8,1.2,1.4,2.5,2.3,3.4c1.3,1.4,3.8,1,5-0.6c1.1-1.4,0.7-2.9-1.1-4.1c-2-1.3-4.2-2-6.6-2
		c-3.2-0.1-5,2-4.5,5.1c0.7,4.5,5,10.1,11.8,9.1c3.2-0.5,5.8-2,7.9-4.6c4-5,2.9-11.1-2.6-14.3c-6.2-3.7-13-4.1-20-3
		c-1.5,0.2-3,0.7-4.4,1.4c-4.5,2.1-5.9,5.7-3.8,10.2c0.9,1.8,2.1,3.6,3.5,5.1c3,3.2,6.8,5.3,11,6.4
		C740.7,460.9,742.3,461.1,743.9,461.3z"/>
	<path d="M658.3,412.2c0.2-4.3,2.2-8.7,6.3-12.1c0.5-0.4,0.9-0.7,1.4-1.2c5.1-5,13.6-4.9,19-1.8c3.6,2.1,4.9,5.3,3.4,9.2
		c-0.5,1.3-1.2,2.5-2,3.6c-4.1,5.7-9.6,9.6-16.4,11.4c-0.8,0.2-1.7,0.4-2.5,0.4C661.5,422.2,658.2,419.2,658.3,412.2z M671.4,408.3
		c2.5-0.4,3.8-2.2,4.8-4.3c1-2,0.3-3.5-1.7-4.4c-2.5-1.1-6.9-0.5-8.7,1.6c-3.5,3.9-5.8,8.4-5.9,13.7c-0.1,2.5,1.3,4.6,3.7,5.3
		c1.4,0.4,3.1,0.6,4.6,0.3c7.8-1.5,13.7-5.8,18-12.4c0.4-0.6,0.7-1.2,0.9-1.8c1.4-3.5,0.4-6.3-3-8c-3.6-1.9-7.4-2.2-11.3-1.3
		c-0.6,0.1-1.2,0.4-1.7,0.6c1.7,0.5,3.3,0.8,4.7,1.5c2,1,2.5,2.7,1.9,4.8c-1.1,3.9-6.4,7.5-10.4,7.1c-3-0.3-4.2-2.5-2.8-5.2
		c1.3-2.6,3.5-4,6.3-4.4c1.4-0.2,2.6,0.1,3.4,1.4c0.8,1.3,0.2,2.5-0.6,3.6C672.9,406.9,672.1,407.6,671.4,408.3c-0.6,0-1.3,0.1-2,0
		c-1.5-0.3-1.8-1.5-0.8-3c0.3,0.6,0.6,1.2,0.9,1.8c1.6-0.2,2.6-1,3.2-2.2c0.8-1.3,0.2-2.4-1.4-2.5c-2.4-0.2-5.5,2-6.1,4.3
		c-0.4,1.4,0.1,2.4,1.6,2.6C668.5,409.6,670.1,409.6,671.4,408.3z"/>
	<path d="M392.5,174.6c5.5-4.8,11.1-9.2,17.7-12.1c0.3-0.1,0.8,0,1.8,0c-0.7,0.7-1,1.2-1.4,1.4c-6.2,2.7-11.4,6.7-16.4,11.1
		c-1.7,1.5-1.6,1.5-3.4,0c-5.6-4.5-11.2-8.9-16.8-13.3c-1.1-0.9-2.4-1.6-3.6-2.5c-0.3-0.2-0.5-0.7-0.6-1.3c4.4,1.7,8,4.8,11.7,7.7
		C385.2,168.5,388.7,171.5,392.5,174.6z"/>
	<path d="M688.3,116.3c-7.1-6.7-14.4-12.8-23.3-17c1.1-1.2,1.9-0.6,2.5-0.2c3,1.8,6,3.4,8.8,5.4c3.4,2.5,6.6,5.3,9.8,8
		c0.5,0.4,1,0.9,1.7,1.4c0.5-0.9,0.8-1.6,1.2-2.4c2.5-4.8,5.8-9,10.1-12.3c1.1-0.8,2.1-1.7,3.9-1.5c-0.7,1.7-2.6,1.8-3.6,2.8
		c-1.1,1.2-2.4,2.2-3.5,3.4c-1.1,1.1-2.1,2.3-2.9,3.6c-0.9,1.3-1.7,2.8-2.5,4.2C689.7,113.2,689.1,114.6,688.3,116.3z"/>
	<path d="M704.1,33.4c-0.4,0.2-0.8,0.5-1.2,0.7c-7.6,2.5-15,5.6-22,9.4c-0.9,0.5-1.7,0.6-2.6,0.1c-6.2-3.2-12.4-6.4-18.6-9.6
		c-0.3-0.2-0.6-0.5-1-0.9c1.2-0.9,2-0.1,2.7,0.3c5.2,2.7,10.5,5.3,15.6,8.1c1.8,1,3.1,0.8,5,0c6.3-2.9,12.8-5.5,19.2-8.2
		c0.9-0.4,1.9-0.4,2.8-0.6C703.9,32.8,704,33.1,704.1,33.4z"/>
	<path d="M713,75.1c1-2.6,18.4-15.2,22.8-16.7c0.1,0.2,0.3,0.7,0.7,1.1c3.6,4.5,7.3,8.9,11,13.4c0.8,1,0.8,1,0.1,2.3
		c-4.2-5.1-8.4-10.1-12.6-15.2C727.4,64.6,720.3,70,713,75.1z"/>
	<path d="M410.2,115.4c5.4,6.8,10.4,13.2,15.6,19.8c4.9-5.4,9.9-10.3,15.3-14.8c0.1,0.1,0.3,0.2,0.4,0.4c-0.2,0.4-0.3,0.9-0.6,1.2
		c-0.9,1-2,1.9-3,2.9c-3.4,3.4-6.9,6.8-10.3,10.2c-0.6,0.6-1.2,1.2-2,2.1c-4.5-5.7-8.8-11.1-13.1-16.5c-1-1.2-1.7-2.6-2.6-3.9
		C409.9,116.6,410.1,116.3,410.2,115.4z"/>
	<path d="M717,214.7c1.1,0.1,2.3,0,3.4,0.2c3.4,0.7,6.7,1.5,10,2.5c1.2,0.4,2,0.3,3-0.5c3.8-3.2,8.2-5.3,13-6.6
		c1.2-0.3,1.2-0.3,2.8,0c-0.4,1.2-1.5,1.1-2.3,1.3c-4.1,1.1-8.1,2.6-11.3,5.4c-2.4,2.2-4.5,2.3-7.3,1.2c-3.1-1.1-6.5-1.5-9.8-2.3
		c-0.5-0.1-1.1-0.3-1.6-0.4C717,215.2,717,215,717,214.7z"/>
	<path d="M384.3,96.4c-0.9,0.3-1.4,0.6-2,0.8c-4.2,1.5-8.5,2.8-12.6,4.4c-1.2,0.5-2.2,0.7-3.4,0c-4-2.4-8-4.7-12-7.1
		c-0.4-0.2-0.6-0.7-0.6-1.5c0.5,0.2,1,0.3,1.4,0.5c3.7,2.2,7.4,4.4,11.1,6.6c1.1,0.7,2.1,0.6,3.3,0.1c3.9-1.5,7.9-2.8,11.9-4.2
		C382.3,95.7,383.1,95.4,384.3,96.4z"/>
	<path d="M334.1,124.4c0.3-0.6,0.5-1.2,0.9-1.6c3.1-3.6,6.1-7.2,9.2-10.8c1.3-1.5,1.5-1.6,3.3-0.7c3,1.6,5.9,3.2,8.8,4.8
		c0.4,0.2,0.6,0.7,0.8,1.2c-4-1-7.2-3.7-11.1-5.2c-0.4,0.4-1,0.8-1.4,1.3c-2.9,3.4-5.8,6.8-8.7,10.2
		C335.5,124.2,335.3,125.1,334.1,124.4z"/>
	<path d="M333.8,311.3c3-1,5.6-1.9,8.2-2.7c0.2-0.1,0.4,0.2,0.9,0.4c-0.5,0.4-0.8,0.8-1.1,0.9c-2.1,0.9-4.3,1.7-6.4,2.5
		c-1,0.4-1.8,0.5-2.6-0.4c-3.1-3.2-6.2-6.4-9.3-9.7c-0.1-0.1-0.1-0.3-0.1-0.5c0.9-0.7,1.4,0.1,1.9,0.6c2.2,2.2,4.3,4.4,6.5,6.7
		C332.4,309.9,333.1,310.6,333.8,311.3z"/>
	<path d="M310.2,325.2c2.2-1.7,4.2-3.3,6.2-4.8c0.1-0.1,0.5,0.1,0.9,0.2c-0.2,0.4-0.3,0.8-0.6,1.1c-1.6,1.4-3.3,2.7-4.8,4.2
		c-0.8,0.8-1.5,1.1-2.5,0.4c-2.5-1.7-4.9-3.5-7.3-5.2c-0.1-0.1-0.1-0.5-0.2-0.9c2-0.1,3,1.6,4.4,2.4
		C307.7,323.4,309,324.4,310.2,325.2z"/>
	<path class="st8" d="M45.2,1.2c0,0.7,0.1,1.3,0.1,1.9c0.2,15.3,0.4,30.7,0.5,46c0.4,32,0.7,64,1.1,96c0.3,25.1,0.6,50.2,0.9,75.3
		c0.2,14.4,0.3,28.8,0.5,43.2c0,0.8,0.2,1.7,0.4,2.5c0.3,1.6,1.4,2.2,2.9,2.4c11.5,1.2,23,2.5,34.4,3.7c10.1,1.1,20.2,2.2,30.3,3.4
		c10.3,1.1,20.6,2.2,30.8,3.4c10.1,1.1,20.2,2.2,30.3,3.3c10.3,1.1,20.6,2.2,30.8,3.4c10.2,1.1,20.4,2.2,30.5,3.4
		c2.3,0.3,4.6,0.6,6.9,0.8c2.8,0.2,3.5-0.4,3.5-3.1c-0.2-12.5-0.5-25-0.7-37.5c-0.1-4.9-0.1-9.8-0.2-14.7
		c-0.2-13.4-0.4-26.7-0.6-40.1c-0.4-22.4-0.7-44.8-1.1-67.3c-0.3-19.9-0.7-39.8-1-59.8c-0.3-21-0.7-41.9-1-62.9c0-1,0-2.1,0-3.1
		c1.9-0.6,34-0.8,38-0.2c0.1,2.2,0.2,4.5,0.3,6.8c0.3,20.8,0.5,41.6,0.8,62.3c0.3,26.5,0.7,52.9,1.1,79.4c0.3,23.2,0.7,46.4,1,69.6
		c0.4,26.2,0.7,52.4,1.1,78.6c0.3,23.3,0.7,46.6,1,69.8c0.4,26.1,0.7,52.3,1.1,78.4c0.1,9.6,0.3,19.1,0.4,28.7c0,0.9,0,1.9,0,3
		c-0.8,0.1-1.5,0.2-2.1,0.1c-13.3-0.6-26.5-1.1-39.8-1.9c-12.6-0.8-25.1-1.9-37.6-3.3c-12.9-1.4-25.8-3.2-38.7-4.9
		c-12.7-1.6-25.3-3.3-37.9-4.9c-12-1.5-24-2.9-35.9-4.4c-17.7-2.2-35.4-4.7-53.1-6.7c-14.1-1.6-28.4-2.3-42.6-1.5
		c-0.4,0-0.8-0.1-1.4-0.1c0-149.7,0-299.3,0-448.9C2.1,0.8,41,0.6,45.2,1.2z"/>
	<path class="st9" d="M210.4,1c10.7,0,21,0,31.6,0c0.1,1.7,0.3,3.3,0.3,4.9c0.2,8.1,0.3,16.2,0.5,24.3c0.4,27.8,0.8,55.7,1.3,83.5
		c0.7,42.8,1.4,85.7,2.1,128.5c0.2,12.7,0.6,25.3,0.9,38c0,2.2-0.3,4.4-0.4,7c-10.3-1.1-20.4-2.2-30.6-3.4c-0.1-2.3-0.3-4.3-0.4-6.3
		c-0.2-7.4-0.3-14.8-0.5-22.2c-0.4-24-0.8-48.1-1.3-72.1c-0.7-36.7-1.4-73.4-2.1-110.1c-0.5-23.3-1-46.5-1.5-69.8
		C210.3,2.5,210.4,1.9,210.4,1z"/>
	<path class="st10" d="M600,10.4c6.9,0.2,15.2,2.5,23,6.7c3.2,1.8,5.7,4.5,7.9,7.4c4.6,5.8,8,12.2,10.3,19.3
		c1.6,4.9,1.3,9.9,0.4,14.8c-1,6-3.3,11.6-6.5,16.8c-2.5,4.1-5.7,7.3-9.9,9.6c-7.7,4.3-15.6,7.5-24.5,8.4
		c-7.1,0.7-13.9-0.8-20.5-3.3c-7.8-2.9-14.3-7.6-19.4-14.1c-9.1-11.7-10.7-24.4-5.7-38.2c3-8.3,8.2-14.6,15.7-19.2
		C579.1,13.4,589.2,10.4,600,10.4z"/>
	<path class="st0" d="M543.1,277.1c3.1,0.4,5.8,0.8,8.5,1.2c5.7,1,11,2.9,16.1,5.5c1.9,0.9,3.7,2.3,5.2,3.8c2.1,2.2,1.6,3.9-1,5.3
		c-1.1,0.6-2.4,1-3.5,1.6c-0.6,0.3-1.2,0.6-2.3,1.2c1.1,0.4,1.7,0.7,2.3,0.8c1.7,0.2,3.4,0.3,5.1,0.6c1.2,0.2,2.5,0.6,3.6,1.3
		c2.4,1.5,2.3,3.1,0,4.5c-0.9,0.6-2,1.1-3.1,1.3c-3,0.6-6.1,1.3-9.1,1.6c-6.6,0.6-13.2,1-19.9,1.3c-9.8,0.4-19.6,1.1-29.5,0.9
		c-13.6-0.2-27.2-1.2-40.8-1.5c-11.5-0.3-22.9,0-34.4,0.1c-3.4,0-6.9,0.3-10.3,0.5c-0.4,0-0.8,0-1.4-0.1c0.1-3.8,1.1-7,4.3-9.2
		c3.2-2.3,6.9-3.6,10.7-4.3c4.2-0.7,8.4-1.1,12.6-1.5c2.8-0.3,2.8-0.3,3.3-3.2c0.5-2.7,0.9-5.5,2-8c3.4-8,9.9-11.6,18.3-12.2
		c2.9-0.2,5.8,0.1,9.1,0.2c0.2-0.5,0.4-1.2,0.6-1.9c0.7-2.6,1.2-5.2,2.1-7.7c1.8-5,5.1-8.6,10.4-10c13.6-3.7,26-1.6,36.6,8
		c3.1,2.8,5.2,6.4,6.6,10.3c0.9,2.7,0.7,5.2-0.9,7.7C543.7,275.7,543.5,276.3,543.1,277.1z"/>
	<path class="st11" d="M804.6,378.3c-0.5-1.6,0.7-2.6,1.2-3.8c-1.9,0.4-3.3,2.8-2.4,4.3c0.3,0.5,1.3,1,1.9,1c2.2,0,4-0.9,5.4-2.7
		c1.1-1.5,0.8-2.9-0.8-4c-2.8-1.9-7.6-1.2-9.7,1.5c-1.8,2.3-1.3,5.2,1.4,6.5c0.8,0.4,1.8,0.7,2.7,0.8c4,0.2,7.5-1.2,10.3-4
		c2.6-2.7,2.4-6.4-0.4-8.9c-4.2-3.9-11.3-4.5-16.1-1.6c-4,2.5-5.6,6.4-4.3,10.9c2,6.7,6.9,10.1,13.4,11.4c2.2,0.4,4.4,0.3,6.8,0.4
		c-0.2,0.4-0.4,0.9-0.8,1.2c-2.6,2.5-5.8,3.3-9.3,3c-3.9-0.4-7.5-1.9-10.7-4.2c-5.4-3.9-7-10-4-16c3.2-6.4,8.7-9.4,15.5-10.1
		c3.8-0.4,7.4,0.4,10.8,2c7.6,3.6,9.6,12.4,4.2,18.8c-1.9,2.3-4.6,3.6-7.6,3.9c-5,0.5-9.4-1-13.1-4.3c-1.2-1.1-2.3-2.6-3.1-4.1
		c-3.3-6.3,0-12.4,7.1-13.3c3.6-0.5,6.9,0.3,9.8,2.5c3.1,2.3,3.2,5.5,0.3,8.1c-2.2,2-4.8,2.9-7.8,3.1c-0.4,0-0.9,0-1.3-0.1
		c-2.1-0.3-3.4-1.3-3.5-2.8c-0.2-1.5,0.8-2.9,2.6-3.8c1.8-0.8,3.7-0.8,5.5-0.1c1.6,0.7,1.9,1.8,0.6,3
		C808,378,806.5,378.8,804.6,378.3z"/>
	<path class="st11" d="M621.6,456.8c0.8-1.3,1.1-3,2.9-2.4c0.7,1,0.2,1.8-0.4,2.6c-0.9,1.4-2.3,2-3.9,2.3c-2.1,0.3-3.7-1-3.9-3.1
		c-0.2-1.8,0.5-3.4,1.7-4.7c2.9-3.3,6.6-5,10.9-5.1c3.3-0.1,4.9,1.9,4.3,5.2c-1.2,6-4.8,10.4-10,13.5c-1.1,0.6-2.4,0.9-3.7,1.1
		c-1.9,0.3-3.9,0.5-5.9,0.6c-2,0.2-3.7-0.6-5.3-1.7c-4.9-3.3-6.8-9-5.1-15.1c1.2-4.4,3.6-8,7-11c6.2-5.5,13.5-8.7,21.9-8.1
		c2.5,0.2,5.1,0.7,7.5,1.6c5.8,2.1,8.2,6.6,7.1,12.7c-0.2,1-0.5,2-0.8,3c-3.3,8.4-10.1,12.6-18.2,15.3c0.6-0.6,1.1-1.3,1.7-1.9
		c2.4-2.7,4.1-5.7,4.9-9.2c1.1-4.9-1.7-8-6.7-7.4c-3.6,0.5-6.8,1.8-9.5,4.2c-1.5,1.4-2.6,3-3.1,5c-1,4.1,1.9,7.1,6,6.2
		c2.2-0.5,3.9-1.8,4.8-3.9c0.5-1.1,0.5-2.2-0.4-3.1c-0.8-0.8-2-0.8-3.1-0.1C621.4,454.2,620.9,455.1,621.6,456.8z"/>
	<path class="st11" d="M564.2,415.8c-0.5,0.8-1,1.5-1.3,2.4c-1,2.2-0.4,4.2,1.7,5.3c1.4,0.7,3.1,1.3,4.6,1.4
		c6.4,0.4,12.5-0.9,18.4-3.5c0.9-0.4,1.9-0.9,2.7-1.6c1.7-1.4,1.5-3.1-0.5-4c-0.7-0.3-1.5-0.5-2.2-0.6c-4.1-0.5-8.1-0.1-12,1.2
		c-0.8,0.3-1.6,0.7-2.3,1.2c-1.4,1.1-1.3,2.3,0.4,3.2c0.6,0.3,1.2,0.4,2.1,0.4c-0.7-0.6-1.4-1.3-2.1-1.9c3.1-3.4,13-4.2,16.7-1.3
		c-0.9,0.7-1.7,1.5-2.6,1.9c-5.5,2.6-11.4,3.9-17.5,3.7c-1.5,0-3.1-0.4-4.5-1c-2-0.9-2.5-2.6-1.3-4.5c0.7-1,1.6-2,2.7-2.7
		c2.6-1.8,5.5-2.8,8.5-3.5c3.9-0.9,7.8-1.4,11.8-1c4.6,0.4,8.7,2.1,12.3,5c3.6,2.9,3.9,5.9,1.1,9.6c-2.3,3.1-5.4,5.4-8.9,6.9
		c-10.2,4.6-20.6,5.3-31.2,1.7c-1.8-0.6-3.5-1.5-5-2.6c-1.9-1.4-2.5-3.7-1.5-5.8C556.3,421.2,559.9,418.2,564.2,415.8z"/>
	<path class="st11" d="M762.3,402c-2.4-0.6-3.7,0.3-3,2.5c0.3,1,1,2.1,1.9,2.6c1.9,1.1,4,1.1,5.9,0c1.9-1,2.2-2.9,0.8-4.6
		c-0.5-0.6-1.1-1.1-1.8-1.5c-3.2-1.8-6.5-2.1-10-0.9c-1.6,0.5-3,1.5-3.2,3.4c-0.3,1.8,0.7,3.2,2.1,4.2c0.9,0.7,1.9,1.2,2.9,1.6
		c5.2,1.9,10.3,1.7,15.4-0.4c0.5-0.2,0.9-0.4,1.4-0.7c3.9-2.5,4.2-6.4,0.5-9.4c-3.2-2.6-7-3.7-10.9-4.4c-2.5-0.4-5.1-0.6-7.9-0.9
		c7-0.9,13.6-0.2,19.9,2.3c1.3,0.5,2.6,1.3,3.7,2.3c1.8,1.6,2.2,3.6,1,5.6c-1.1,1.8-2.4,3.7-4.1,4.9c-7.2,5.3-15.2,6.1-23.5,2.8
		c-2.7-1.1-4.9-3-6.2-5.6c-1.9-3.6-0.9-6.8,2.6-8.8c2.5-1.5,5.3-2,8.2-2c4.8,0,9.4,0.9,13.7,3.1c1.4,0.7,2.7,1.6,3.7,2.7
		c1.7,1.8,1.4,3.8-0.3,5.5c-0.2,0.2-0.4,0.3-0.6,0.5c-4.5,3.3-13.7,3.4-18.2,0.3c-0.6-0.4-1.1-0.9-1.5-1.4c-1-1.3-0.8-2.6,0.5-3.6
		c2.7-2.1,9.4-1.5,11.5,1.1c1,1.2,0.9,2.4-0.5,2.9c-1,0.4-2.2,0.5-3.2,0.4c-1.6-0.1-2.5-1.2-2.7-2.4
		C760.2,403.1,760.4,402.9,762.3,402z"/>
	<path class="st11" d="M743.9,461.3c-1.6-0.2-3.2-0.4-4.8-0.8c-4.3-1-8-3.2-11-6.4c-1.4-1.5-2.6-3.2-3.5-5.1
		c-2.1-4.5-0.7-8.1,3.8-10.2c1.4-0.6,2.9-1.1,4.4-1.4c7-1.1,13.8-0.6,20,3c5.5,3.2,6.6,9.4,2.6,14.3c-2,2.5-4.7,4.1-7.9,4.6
		c-6.8,1-11.2-4.6-11.8-9.1c-0.5-3.2,1.3-5.2,4.5-5.1c2.4,0.1,4.6,0.8,6.6,2c1.8,1.2,2.2,2.7,1.1,4.1c-1.2,1.6-3.7,2-5,0.6
		c-0.9-0.9-1.5-2.2-2.3-3.4c-0.1,0.1-0.4,0.4-0.4,0.6c0,1.8,1.5,4.1,3.2,4.6c1.9,0.6,3.6,0.2,5-1.2c1.7-1.6,1.8-4,0-5.5
		c-2.8-2.4-6.2-3.4-9.8-3c-2.6,0.3-4,2.2-4.1,4.9c-0.2,4.3,3,9.1,7.3,10.9c0.7,0.3,1.4,0.5,2.1,0.8
		C743.9,461,743.9,461.1,743.9,461.3z"/>
	<path class="st11" d="M671.4,408.3c0.7-0.7,1.4-1.4,2-2.2c0.8-1.1,1.4-2.3,0.6-3.6c-0.7-1.3-2-1.6-3.4-1.4c-2.8,0.4-5,1.9-6.3,4.4
		c-1.4,2.7-0.1,4.9,2.8,5.2c4,0.4,9.3-3.1,10.4-7.1c0.6-2.1,0.1-3.8-1.9-4.8c-1.4-0.7-3.1-1-4.7-1.5c0.6-0.2,1.1-0.5,1.7-0.6
		c3.9-0.9,7.7-0.5,11.3,1.3c3.4,1.8,4.4,4.5,3,8c-0.3,0.6-0.5,1.3-0.9,1.8c-4.3,6.6-10.2,10.9-18,12.4c-1.5,0.3-3.1,0.1-4.6-0.3
		c-2.4-0.7-3.8-2.8-3.7-5.3c0.1-5.3,2.4-9.8,5.9-13.7c1.9-2,6.2-2.7,8.7-1.6c2,0.9,2.7,2.4,1.7,4.4
		C675.2,406,673.9,407.8,671.4,408.3L671.4,408.3z"/>
	<path class="st11" d="M671.4,408.3c-1.3,1.3-2.9,1.3-4.5,1.1c-1.5-0.2-2-1.2-1.6-2.6c0.6-2.3,3.8-4.5,6.1-4.3
		c1.5,0.1,2.1,1.2,1.4,2.5c-0.7,1.1-1.6,2-3.2,2.2c-0.3-0.6-0.6-1.2-0.9-1.8c-1.1,1.5-0.8,2.7,0.8,3
		C670,408.4,670.7,408.3,671.4,408.3C671.4,408.3,671.4,408.3,671.4,408.3z"/>
</g>
</svg>
