<svg id="Слой_2" data-name="Слой 2" xmlns="http://www.w3.org/2000/svg" xmlns:xlink="http://www.w3.org/1999/xlink" viewBox="0 0 690 500"><defs><style>.cls-1,.cls-5,.cls-7{fill:none;}.cls-2{clip-path:url(#clip-path);}.cls-3{fill:#52712e;}.cls-4{fill:#386482;}.cls-5,.cls-7{stroke:#1d1d1b;stroke-miterlimit:10;}.cls-5{stroke-width:1.15px;}.cls-6{fill:#7d3a1b;}.cls-7{stroke-width:0.96px;}.cls-8{fill:#ebd988;}.cls-9{fill:#c71e3f;}.cls-10{clip-path:url(#clip-path-3);}.cls-11{fill:#ea5a3e;}.cls-12{fill:#f0d8c7;}.cls-13{fill:#fff;}.cls-14{fill:#69130a;}.cls-15{fill:#30120f;}.cls-16{fill:#b7a65e;}.cls-17{fill:#fffae3;}.cls-18{fill:#7d391b;}</style><clipPath id="clip-path"><rect class="cls-1" x="40" y="100" width="580.84" height="411.36"/></clipPath><clipPath id="clip-path-3"><path class="cls-1" d="M283.21,299a89.13,89.13,0,0,0-26.46,4.92c-7.1,2.38-13.22,6.51-18.93,11.25-9.14,7.6-18.28,15.21-27.33,22.92a61.48,61.48,0,0,1-30,14.11l-3.2.59c0,.11-.05.21-.07.32l4.07,2.27A94.67,94.67,0,0,0,210,365.6,206.38,206.38,0,0,0,255.85,369l.82-.06c-.37-.3-.58-.49-.8-.64-1.54-1.05-3.08-2.07-4.61-3.12a7.35,7.35,0,0,1-1.25-1c-.56-.62-.33-1.28.5-1.37a6.37,6.37,0,0,1,2.09.08c2.73.67,5.47,1.29,8.14,2.14,4.11,1.31,8.15,2.8,12.24,4.18a9.07,9.07,0,0,0,1.82.24,6.39,6.39,0,0,0-.07-1.86c-.78-2.36-1.66-4.69-2.49-7a22.58,22.58,0,0,1-.83-2.65c-.24-1.06.46-1.62,1.46-1.17A13.87,13.87,0,0,1,275,358c3.37,2.33,6.71,4.68,10.07,7,.4.28.86.48,1.44.8.06-.55.12-.92.14-1.29.14-3,.13-6.07.45-9.09a62,62,0,0,1,6.56-20.91,9.6,9.6,0,0,1,.86-1.49c.61-.83,1.33-.78,1.75.16a11.17,11.17,0,0,1,.64,1.9,102.88,102.88,0,0,0,5,15.19c.12.3.27.59.41.88a.71.71,0,0,0,.13-.53,72.69,72.69,0,0,1,0-18.17,63.82,63.82,0,0,1,3.78-16.18,36,36,0,0,1,5.27-9.25c-.06-.1-.08-.17-.13-.21l-.4-.25A50.65,50.65,0,0,0,284.28,299h-1.07"/></clipPath></defs><title>S6</title><g class="cls-2"><g class="cls-2"><path class="cls-3" d="M579.16,386.68c.43-.84.86-1.68,1.28-2.52-.77.21-1.54.4-2.32.58-.51-6.55,1.8-13.21,5.38-18.79,4-6.31,9.62-11.46,15.12-16.54A43.6,43.6,0,0,0,580.7,360.7a29.87,29.87,0,0,1,6.78-13l-10.57,11.5c.52-7.45.15-15.08-2.37-22.11s-7.39-13.43-14.13-16.65l-2.67,24.87a44.47,44.47,0,0,0-8.29-15q.94,4.9,1.9,9.81a21,21,0,0,1-7.29-19.73,125.74,125.74,0,0,0-10.81,18.22,16,16,0,0,1,1.47-15.13c-5.81,1.53-11.7,3.25-16.63,6.69s-8.8,8.92-8.83,14.93q-2.94-.64-5.91-1.2c-16.76-4.2-33.69-7.93-50.93-8.33-23.65-.56-47.43,5.17-70.82,1.64-20.09-3-39-12.8-59.31-13.42-22.92-.71-44.44,10.24-66.93,14.7-14.76,2.93-35.61,6.23-50.71,3.52-15.48-2.78-25.27-22.21-26.36-36.45a71.85,71.85,0,0,0-.95,39.07c-10.13-.3-18.18-11.91-14.91-21.5a85.92,85.92,0,0,1-17.18,26.54,55.8,55.8,0,0,0-8.32-19.94c-.47,2.57-1,5.14-1.42,7.71a95.9,95.9,0,0,0-36.65-8.84,81.29,81.29,0,0,1,23,35.32,122.56,122.56,0,0,0-40.31-6.62l17.13,13.07c-8.76.31-19.39,3.32-21.26,11.88-1.74,8,5.63,15.06,12.77,19.15,20.41,11.69,44.47,14.94,67.9,17.09,54.83,5,110,5.18,165.05,5.34L521,424.4c21.3.06,43.49-4.68,59.25-20,8.84-8.58,15.48-19.17,21.45-30a62.49,62.49,0,0,0-22.5,12.22"/><path class="cls-4" d="M444.12,353.14c31.45-3,63.55,0,94.26-8.37a175,175,0,0,0-37.7-14.88c1.32-2.4,3.8-3.45,5.93-4.86s4.22-3.89,3.76-6.72c-.41-2.54-2.66-4-4.74-4.86a25.53,25.53,0,0,0-10.91-1.87c-4.34.22-8.59,1.56-12.93,1.81-6.46.37-12.83-1.72-19.27-2.56-9.07-1.2-18.21.06-27.23,1.48q-23.54,3.72-46.87,8.89c-6.23,1.38-12.91,3.15-17.06,8.76-4.53,6.13-4.31,16.67,1,21.92,7.74,7.62,20.27,0,29.62,1.73,14.24,2.59,27.88.89,42.13-.47"/><path class="cls-5" d="M444.12,353.14c31.45-3,63.55,0,94.26-8.37a175,175,0,0,0-37.7-14.88c1.32-2.4,3.8-3.45,5.93-4.86s4.22-3.89,3.76-6.72c-.41-2.54-2.66-4-4.74-4.86a25.53,25.53,0,0,0-10.91-1.87c-4.34.22-8.59,1.56-12.93,1.81-6.46.37-12.83-1.72-19.27-2.56-9.07-1.2-18.21.06-27.23,1.48q-23.54,3.72-46.87,8.89c-6.23,1.38-12.91,3.15-17.06,8.76-4.53,6.13-4.31,16.67,1,21.92,7.74,7.62,20.27,0,29.62,1.73C416.23,356.2,429.87,354.5,444.12,353.14Z"/><path class="cls-6" d="M427,324.35a13.54,13.54,0,0,0-7.13,1.21c-1.87.74-4.18.47-6,1.35a4.13,4.13,0,0,0-2.11,3.46,8,8,0,0,0,1,4.06c3.07,6,12.1,7.44,17.77,4.78a10.7,10.7,0,0,0,5.06-4.54,6.79,6.79,0,0,0-.06-6.61c-1.73-2.73-5.35-3.43-8.57-3.71"/><path class="cls-7" d="M427,324.35a13.54,13.54,0,0,0-7.13,1.21c-1.87.74-4.18.47-6,1.35a4.13,4.13,0,0,0-2.11,3.46,8,8,0,0,0,1,4.06c3.07,6,12.1,7.44,17.77,4.78a10.7,10.7,0,0,0,5.06-4.54,6.79,6.79,0,0,0-.06-6.61C433.81,325.33,430.19,324.63,427,324.35Z"/><path class="cls-7" d="M400.94,347.63a131.25,131.25,0,0,0,40.49-2.88c3.46-.79,7-1.77,9.85-3.85"/><path class="cls-7" d="M454.31,323.86A47.16,47.16,0,0,1,488.88,326a.63.63,0,0,1-.61.66"/><path class="cls-8" d="M483,346a2.26,2.26,0,0,1-.23,1.44c-.93,1.83-5.53,1.3-5.53-.79A2.92,2.92,0,0,1,483,346"/><path class="cls-5" d="M483,346a2.26,2.26,0,0,1-.23,1.44c-.93,1.83-5.53,1.3-5.53-.79A2.92,2.92,0,0,1,483,346Z"/><path class="cls-8" d="M522.66,342.5c.09,1.07-.56,2.14-2.32,2.32-1.27.13-2.8-.28-3.2-1.49a2.34,2.34,0,0,1,1-2.51c2.41-1.79,4.43,0,4.56,1.68"/><path class="cls-5" d="M522.66,342.5c.09,1.07-.56,2.14-2.32,2.32-1.27.13-2.8-.28-3.2-1.49a2.34,2.34,0,0,1,1-2.51C520.51,339,522.53,340.78,522.66,342.5Z"/><path d="M426.46,198.29c.6.07,1.19.15,1.79.21,15.28,1.57,31.29,13.38,36.55,28.3a60.27,60.27,0,0,1,2.94,16.84A78.73,78.73,0,0,1,466.16,262c-.07.37-.13.74-.2,1.18,5.16-3,10.63-3.56,16.3-2.82a8,8,0,0,1,2.37.73,1.67,1.67,0,0,1,.74,2.64,9.27,9.27,0,0,1-2.35,2.48c-2.21,1.45-4.54,2.72-6.83,4-.52.3-1.08.53-1.82.88a9.4,9.4,0,0,1,1.35.74,20.22,20.22,0,0,1,3.07,2.67,2.23,2.23,0,0,1-1,3.75,27,27,0,0,1-4.14,1.05,11.42,11.42,0,0,1-1.19.09l.54.85a2.92,2.92,0,0,1-.88,4.4,9.78,9.78,0,0,1-6.83,1.26,25.3,25.3,0,0,1-3.9-.9c-.49-.14-.86-.19-1.15.28a.27.27,0,0,1-.07.08c-3.24,2.63-3.84,6.21-3.94,10.13-.26,10.93,2.11,21.29,6.16,31.36,2.54,6.34,5,12.73,7.32,19.14a32.34,32.34,0,0,1,2.05,9.33,20.59,20.59,0,0,1-2.21,10.28l-.47,1c.33-.15.5-.21.65-.3a71.53,71.53,0,0,1,13.85-5.79,7.32,7.32,0,0,1,1.82-.06,8,8,0,0,1-.34,1.86,31.3,31.3,0,0,1-1.59,2.82l.9-.34c2.48-1,5-2,7.45-3a2.53,2.53,0,0,1,1,.07c-.23.25-.4.6-.68.72q-4.48,2-9,3.83a2.81,2.81,0,0,1-1,0,2.7,2.7,0,0,1,.11-1c.76-1.36,1.57-2.7,2.5-4.29-.61.17-1,.26-1.3.37-6.37,2.09-12.54,4.59-17.94,8.68-1.16.88-1.88.57-1.94-.89-.08-2.23,0-4.47,0-6.71,0-.46,0-.93,0-1.41-.13,0-.22,0-.23.06-1.64,3.17-3.29,6.34-4.9,9.52a11.07,11.07,0,0,0-.3,1.2,2.17,2.17,0,0,1-.42.55c-.16-.21-.45-.42-.45-.62a3.11,3.11,0,0,1,.24-1.21c.61-1.48,1.25-2.94,1.9-4.4.23-.52.52-1,.82-1.57-.48-.39-.95-.72-1.36-1.12a105.55,105.55,0,0,1-7.83-7.86,52.29,52.29,0,0,1-4.9-7.86,220,220,0,0,1-12.46-25.14c-.23-.59-.52-.81-1.12-.68a2.58,2.58,0,0,1-.48,0c-1.68.11-1.83,0-2-1.73a2,2,0,0,0-.11-.33c-.2.18-.37.31-.52.45q-10.06,9.59-20.11,19.2a3.4,3.4,0,0,0-.89,1.59c-1.49,6.5-2.93,13-4.39,19.52-.06.28-.13.56-.2.89.93.25.61.67.24,1.23-1.2,1.82-2.35,3.68-3.51,5.53l.22.19,1.1-.47a40.18,40.18,0,0,1,10.7-2.88,4,4,0,0,1,1.24.22,4.27,4.27,0,0,1-.48,1.24,24,24,0,0,0-5.54,11.69l4.81-2.09a7.52,7.52,0,0,1,1.33-.53,3.06,3.06,0,0,1,1,.08c-.21.24-.37.58-.64.7-1.65.76-3.33,1.47-5,2.2a15.08,15.08,0,0,1-1.48.68,1.24,1.24,0,0,1-1-.05c-.17-.11-.2-.58-.13-.86,1.08-4.37,2.45-8.61,5.58-12a2.71,2.71,0,0,0,.1-.35,38.1,38.1,0,0,0-3.94.8c-2.46.76-4.88,1.67-7.31,2.52a3,3,0,0,1-.62.26c-.29,0-.76.11-.87,0a1.13,1.13,0,0,1-.1-.95c.43-1,.95-1.89,1.43-2.82.1-.2.21-.39.36-.67-.16,0-.24,0-.29.06a26.52,26.52,0,0,0-7.49,8.62,1.46,1.46,0,0,1-.28.49,6.47,6.47,0,0,1-.77.45c-.13-.26-.41-.53-.38-.77a43.91,43.91,0,0,1,.56-4.85c.79-4.06,1.69-8.1,2.51-11.93a35.68,35.68,0,0,0-4.48,6c-2.25,3.73-3.35,7.85-4.32,12a6.56,6.56,0,0,1-.43,1.47c-.15.3-.5.5-.76.75-.22-.28-.59-.53-.66-.85-.29-1.24-.42-2.52-.73-3.76-.45-1.82-1-3.61-1.5-5.41l-.34,0c-.34,1.46-.68,2.92-1,4.38-.51,2.14-1,4.3-1.59,6.41-.19.67-.84,1.77-1.17,1.73-1-.11-.67-1.18-.76-1.89a56.49,56.49,0,0,1-.45-12.05c.13-1.48.38-3,.58-4.5-3.91,2.32-7.59,4.83-10,8.75-.33.54-.51,1.16-.81,1.72a3.17,3.17,0,0,1-.58.64,2.61,2.61,0,0,1-.41-.77c-.38-3.11-.64-6.23-1.12-9.33a43.3,43.3,0,0,0-4.79-14.87,23,23,0,0,0-1.46-2.13,1.45,1.45,0,0,0-.83-.54c.19,1.22.36,2.45.56,3.67.77,4.77,1.16,9.55-.39,14.23a40.28,40.28,0,0,1-2.12,4.7,4.17,4.17,0,0,1-.75,1c-.87.87-1.66.66-1.92-.55s-.46-2.64-.73-3.95a18,18,0,0,0-.53-1.74c-1.36.91-1.93.75-2.36-.73-.77-2.67-1.41-5.37-2.15-8-.29-1.06-.71-2.08-1.08-3.13l-.29,0c-.15,1.3-.32,2.6-.46,3.9a70.05,70.05,0,0,1-2.74,13.2c0,.15,0,.35-.13.45a3.43,3.43,0,0,1-.61.45c-.09-.21-.28-.45-.25-.64a14.36,14.36,0,0,1,.38-1.39c.49-1.84,1-3.69,1.46-5.6a5,5,0,0,0-.76-.13,2.89,2.89,0,0,1-2.93-1.56,1.22,1.22,0,0,0-1.45-.63c-1.31.27-2.63.5-4,.66-.69.09-.83.38-.76,1,.32,2.6.61,5.2.9,7.8,0,.16.12.34.07.47a5,5,0,0,1-.36.69c-.17-.19-.45-.37-.49-.58-.24-1.35-.48-2.71-.63-4.07a77.33,77.33,0,0,1,1.59-27.41c.06-.28.1-.56.16-.84l-.26-.24a6.87,6.87,0,0,1-.59.89,42.35,42.35,0,0,0-8.83,16.3,17.71,17.71,0,0,1-.65,1.9c-.41.95-.91,1.18-1.82.75a1.27,1.27,0,0,0-1.94.7,3,3,0,0,1-.3.48c-.71,1-1.39,1.12-2.3.31-.26-.23-.5-.5-.75-.74-1-1-1.53-.9-1.94.46a24.07,24.07,0,0,0-1,4.56c-.28,2.6-.32,5.23-.52,7.84a8,8,0,0,1-.56,1.71,7,7,0,0,1-1.41-1.14,100,100,0,0,1-15.78-34.45,9,9,0,0,0-.87-2.29c-.29.5-.59,1-.84,1.5A60.12,60.12,0,0,0,287.57,364a6.17,6.17,0,0,1-.17,1.71,1,1,0,0,1-1.45.74,7,7,0,0,1-1.35-.73l-10.38-7.23c-.57-.39-1.18-.72-1.77-1.08l-.22.15c.19.62.36,1.24.58,1.85.92,2.62,1.9,5.22,2.78,7.85.3.91.66,2-.18,2.81s-1.82.23-2.71-.06c-5.58-1.83-11.14-3.72-16.73-5.5-1.59-.51-3.28-.73-4.92-1.08,0,.1-.08.2-.13.3l1.08.84c3,2.18,6,4.33,9,6.55a14.89,14.89,0,0,1,2,2c.17.19.11.59.15.89a2.52,2.52,0,0,1-.79-.32c-1.23-1.07-2.38-2.23-3.65-3.24a3,3,0,0,0-1.81-.59A206.3,206.3,0,0,1,207.46,366a97.93,97.93,0,0,1-29.26-11.35,8.16,8.16,0,0,1-1.55-1.12c-.81-.77-.62-1.44.48-1.68,3-.64,6-1.1,8.89-1.91s6-2,9-3.07a2.29,2.29,0,0,0,1.11-.95c7.58-14.31,16.31-27.9,25.26-41.38A291.86,291.86,0,0,1,239.83,279c4.34-5.21,8.9-10.22,13.4-15.29a1.3,1.3,0,0,0,.21-1.74c-3.75-7.11-8.51-13.28-15.56-17.44-4.24-2.52-8.94-3.67-13.68-4.77-4.25-1-8.47-2.15-12.66-3.37a10.8,10.8,0,0,1-3.27-1.76,3.59,3.59,0,0,1-1-5,13,13,0,0,1,3.14-3.54,24.73,24.73,0,0,1,16-4.89,31.65,31.65,0,0,1,19.67,7,21.24,21.24,0,0,1,5.85,6.89,9.78,9.78,0,0,1,1.11,5.47,11.31,11.31,0,0,0,2.72,8.61c1.48,1.88,2.87,3.83,4.38,5.85a20.73,20.73,0,0,0,3.77-7.77c1.51-7.6-.19-14.59-4.18-21.1-1.41-2.31-3-4.52-4.4-6.85a20.55,20.55,0,0,1-1.92-4.15,4,4,0,0,1,2-5,13.11,13.11,0,0,1,6.64-1.55A13.86,13.86,0,0,1,273.37,214a39.15,39.15,0,0,1,5.78,10.55c1.51,3.8,3.08,7.59,3.54,11.7.78,6.94-1.36,12.73-7,17a52.26,52.26,0,0,0-9.77,9.14,1.23,1.23,0,0,0-.09,1.67c3.51,5.9,7.1,11.76,10.38,17.78A45.14,45.14,0,0,1,281.35,298l.93,0a53.55,53.55,0,0,1,29.07,7.63c7.08,4.17,14.52,4,22,1.06a1.9,1.9,0,0,0,.76-.88c.74-1.38,1.37-2.82,2.16-4.16a3.47,3.47,0,0,1,3.59-1.65,20.22,20.22,0,0,0,12-2.7,1.74,1.74,0,0,0,.76-1.18c.39-5.26.71-10.52,1.06-15.78.09-1.37.15-2.75.33-4.1a8.22,8.22,0,0,1,5.11-6.79,5.59,5.59,0,0,0,1.74-1.37c1-1.12,2-2.31,3-3.47l-.91-.31a19.51,19.51,0,0,1-6.66-3.3c-.8-.65-1.85-1.3-1.6-2.52s1.5-1.3,2.46-1.51a36.24,36.24,0,0,1,26.61,4.19c1.15.67,2.3,1.37,3.69,2.2-.26-.46-.38-.69-.51-.91-4.16-6.58-6.48-13.75-5.86-21.55s3.59-14.94,9.82-20.24c3.36-2.86,6.77-5.7,11.13-7a2.19,2.19,0,0,0,1.77-2c1.07-5.35,4.05-9.22,9.26-11.21a33.05,33.05,0,0,1,8.67-2,7.52,7.52,0,0,0,.92-.19l3.84-.08M311.47,307c-.06-.1-.08-.17-.13-.21l-.4-.25A50.58,50.58,0,0,0,283.21,299a89.13,89.13,0,0,0-26.46,4.92c-7.1,2.38-13.22,6.51-18.93,11.25-9.15,7.6-18.28,15.21-27.33,22.92a61.48,61.48,0,0,1-30,14.11l-3.2.59c0,.11-.05.21-.07.32l4.07,2.27A94.67,94.67,0,0,0,210,365.6,206.38,206.38,0,0,0,255.85,369l.82-.06c-.37-.3-.58-.49-.8-.64-1.54-1.05-3.08-2.07-4.61-3.12a7.35,7.35,0,0,1-1.25-1c-.56-.62-.33-1.28.5-1.37a6.37,6.37,0,0,1,2.09.08c2.73.67,5.47,1.29,8.14,2.14,4.11,1.31,8.15,2.8,12.24,4.18a9.07,9.07,0,0,0,1.82.24,6.39,6.39,0,0,0-.07-1.86c-.78-2.36-1.66-4.69-2.49-7a23.19,23.19,0,0,1-.83-2.65c-.24-1.06.46-1.62,1.46-1.17A13.87,13.87,0,0,1,275,358c3.37,2.33,6.71,4.68,10.07,7,.4.28.86.48,1.44.8.06-.55.12-.92.14-1.29.14-3,.13-6.07.45-9.09a62,62,0,0,1,6.56-20.91,9.6,9.6,0,0,1,.86-1.49c.61-.83,1.33-.78,1.75.16a11.17,11.17,0,0,1,.64,1.9,102.88,102.88,0,0,0,5,15.19c.12.3.27.59.41.88a.71.71,0,0,0,.13-.53,72.69,72.69,0,0,1,0-18.17,63.82,63.82,0,0,1,3.78-16.18,36,36,0,0,1,5.27-9.25M465,262.74c.07-.26.14-.46.18-.68A75.35,75.35,0,0,0,466.48,239a46,46,0,0,0-3.25-13.65c-5.54-12.36-15.12-20.2-27.79-24.41a32.17,32.17,0,0,0-22.7.72,12.52,12.52,0,0,0-7.95,10c-.34,1.93-1.08,2.54-2.78,3.13-5.68,2-10.11,5.78-14,10.26a20.21,20.21,0,0,0-2.86,4.52c-2.8,5.83-4.09,11.93-2.9,18.42a36,36,0,0,0,6.51,15.59c.76,1,1.67,1.89,2.42,2.74a19,19,0,0,1,1.49-2.56,6.6,6.6,0,0,1,3.82-2.23,7.29,7.29,0,0,0,3.85-2.36,27.9,27.9,0,0,0,2.24-2.62,84.43,84.43,0,0,0,10.48-19.32,50.75,50.75,0,0,0,3.57-13.36,18.54,18.54,0,0,1,1.36-4.75c.53-1.3,1.52-1.44,2.64-.56a12.07,12.07,0,0,1,1.78,1.72,69.41,69.41,0,0,0,9.32,8.82,222.59,222.59,0,0,0,19.93,14.63,43.54,43.54,0,0,1,8.75,7.28,14.92,14.92,0,0,1,3.92,7.33c.26,1.45.43,2.91.66,4.45m-63.34-.94a14.49,14.49,0,0,0-6.81,1.46,4.28,4.28,0,0,0-2.41,4.94c.05.38.12.76.2,1.13a97.22,97.22,0,0,0,11.69,29.43,8.07,8.07,0,0,1,1.1,5.9c-.41,1.89-1.11,3.72-1.66,5.58a118.14,118.14,0,0,1-8.35,22c-2.7,5.15-5.75,10.11-8.69,15.12-1.94,3.33-3.71,6.72-4.23,10.6-.16,1.2-.13,2.43-.23,3.63a3.66,3.66,0,0,1-.37,1,3.48,3.48,0,0,1-.51-1,7.82,7.82,0,0,1,0-1.53,24.7,24.7,0,0,1,3.27-10.91,2.49,2.49,0,0,0,.31-1.35q-1.49-13.81-3.05-27.62c-.22-1.88-.6-3.74-.91-5.69-6.78,4-14.09,4.19-21.46,3.83,4.5,15.11,9,30.13,13.46,45.2,1.57-1,3.09-2,4.64-2.94a2.93,2.93,0,0,1,1-.18,2.38,2.38,0,0,1,.14,1,33,33,0,0,0-1,9.89c0,1.66.09,1.71,1.87,2.28.06-.2.14-.41.19-.62.44-1.86.84-3.73,1.33-5.59a4.22,4.22,0,0,1,.71-1.12c.36.31.9.55,1,.94.63,1.66,1.17,3.37,1.68,5.08.29,1,.44,2,.65,3h.24c.14-.51.31-1,.4-1.52,1.41-7.83,5.69-14.06,11-19.71.16-.16.48-.18.72-.27a2.25,2.25,0,0,1,0,.85c-.19.57-.51,1.1-.73,1.66a57.82,57.82,0,0,0-3.37,13.44c-.13.88-.23,1.76-.37,2.84,1.08-1.4,1.92-2.64,2.92-3.75a17.46,17.46,0,0,1,3.32-3.17c2.54-1.66,3.53-4,4.24-6.87A187.11,187.11,0,0,0,409,328.11a58.68,58.68,0,0,1,3.26-15.41c1.68-4.63,3.37-9.29,3.79-14.28a59.15,59.15,0,0,0,.24-11.29,5.66,5.66,0,0,0-3.2-4.76c-1.44-.76-2.78-1.71-4.15-2.59-2-1.3-2.16-2.58-.49-4.35a11.88,11.88,0,0,0,1.67-2,1.9,1.9,0,0,0,.13-1.66c-.22-.32-1.1-.4-1.61-.26a12.09,12.09,0,0,0-6,4.07,2.25,2.25,0,0,0-.38,2.52c.63,1.32,1.36,2.6,2.09,3.86.38.66.89,1.25,1.27,1.91.11.18,0,.5-.05.76-.22-.08-.54-.1-.63-.26-1.18-1.89-2.41-3.75-3.45-5.72a3.36,3.36,0,0,1,.77-4.05,17.71,17.71,0,0,1,5.18-3.72,8.54,8.54,0,0,0,4.18-3.93,1.72,1.72,0,0,0,.07-1.33c-.14-.22-.83-.25-1.23-.17a19.93,19.93,0,0,0-9.77,5,4,4,0,0,0-1.25,4.09,12.12,12.12,0,0,1,.15,1.35l-.39.1a15.2,15.2,0,0,1-.81-2.32c-.38-2,.69-3.36,2.06-4.57a21.23,21.23,0,0,1,8.18-4.45,4.26,4.26,0,0,0,.88-.49c-.22-.3-.37-.69-.66-.88a6,6,0,0,0-4.76-.9,16.51,16.51,0,0,0-7.48,4.47,3.77,3.77,0,0,0-1,4.54c.18.43.29.9.49,1.55a4.17,4.17,0,0,1-1.35-5.3,8.46,8.46,0,0,1,2-2.4c1.57-1.24,3.27-2.32,4.92-3.47m-42.33,8.72a6.62,6.62,0,0,0-4.27,4.91,37.23,37.23,0,0,0-.48,4.47c-.27,4.37-.31,8.76-.78,13.11-.78,7.23-1.82,14.44-2.8,21.65-.11.86.11,1.16.93,1.38a47.57,47.57,0,0,0,18.44,1.07,22,22,0,0,0,10.46-3.7c1.91-1.39,3.65-3,5.51-4.46a1.46,1.46,0,0,0,.59-1.79c-1.42-4.94-2.79-9.89-4.17-14.84a3.23,3.23,0,0,1-.2-.83.6.6,0,0,1,.31-.49c.14,0,.38.14.5.28a1.4,1.4,0,0,1,.2.54c1.48,5.35,3,10.71,4.47,16.05a.92.92,0,0,1-.36,1.13c-1.77,1.47-3.52,3-5.3,4.43a1,1,0,0,0-.45,1.11c.29,1.44.55,2.89.72,4.35,1,8.56,2,17.13,2.93,25.7.09.73.17,1.46.27,2.28a3.24,3.24,0,0,0,.25-.24c.54-.87,1.06-1.75,1.61-2.61A114.06,114.06,0,0,0,399.32,321a97.84,97.84,0,0,0,4.95-17.08,5.77,5.77,0,0,0-.37-3.32c-2-4-4.16-8-6.29-11.95a9.7,9.7,0,0,0-1-1.4l-6.87-8.49-.47-.6c-.55.47-1,.89-1.51,1.3a24.18,24.18,0,0,1-7.37,4.58,10.43,10.43,0,0,1-3.35.65c-1.83,0-2.7-1.2-2.16-2.95a29.88,29.88,0,0,1,1.64-3.66c.2-.41.44-.8.79-1.42l-1.23.43c-2.16.68-4.29,1.47-6.48,2A13.32,13.32,0,0,1,362,279a4.76,4.76,0,0,1-3.32-3.86,8.13,8.13,0,0,1,.7-4.59m50.7-.09c1.55.92,1.84,2.24.73,3.79a22.37,22.37,0,0,1-1.73,1.92c-1.16,1.26-1.09,1.91.33,2.82s3.1,1.91,4.62,2.92a6.79,6.79,0,0,1,1.9,1.57c1.45,2.12,3.58,3.35,5.69,4.59a7.69,7.69,0,0,0,6,1,40.66,40.66,0,0,0,14.11-7.11,1.07,1.07,0,0,0,.38-.52c.51-2.57,2.28-4.07,4.43-5.21,1-.51,2-.87,3.07-1.29-.75-4.1-.75-4.1,3.52-5.87.28-1.15.52-2.19.8-3.22a13.27,13.27,0,0,0,.61-1.95c.52-4.94.69-9.94,3.06-14.6l-5.28-4.15c0,.78.08,1.51-.77,1.3-2.73-.69-5.32-.1-7.91.7a3,3,0,0,1-1,.11c-.65,0-1-.47-.71-1a7.29,7.29,0,0,1,1.7-2.2,5.94,5.94,0,0,1,5.26-1.05c-.3-.27-.37-.36-.47-.43a206.3,206.3,0,0,1-17.91-13.33,3.38,3.38,0,0,0-1.25-.67c-3.89-1-7.79-1.46-11.71-.14a1.19,1.19,0,0,0-.9.94,85.22,85.22,0,0,1-11.66,25.5c-1.37,2.09-3.06,4-4.53,5.83a8.12,8.12,0,0,1,2.45.31,3,3,0,0,0,1.57.25c2.51-.22,5.57.52,6.24,3.05,1.74.18,2.34.66,2.17,1.88a4.23,4.23,0,0,1-.66,1.76c-.62.89-1.38,1.67-2.12,2.54m-78.32,67.32c1-.93,2-1.81,2.93-2.63a1,1,0,0,1,.84-.2c.21.1.33.5.37.78a2.5,2.5,0,0,1-.12.85c-.44,2.19-.81,4.4-1.36,6.56a9.49,9.49,0,0,0,1.06,7.71c1.63,2.59,3.36,5.12,4.91,7.75.81,1.37,1.9,1.48,3.26,1.33.08-.44.18-.84.24-1.24.34-2.66.65-5.33,1.05-8,.08-.48.54-.91.83-1.36.4.35,1,.63,1.17,1.08a37.74,37.74,0,0,1,1.45,4.15c.5,1.73.91,3.49,1.38,5.35,2.33-.28,4.58-.59,6.83-.78.93-.08,1.33-.41,1.27-1.33-.17-2.64-.28-5.29-.5-7.92-.12-1.59-.44-3.16-.59-4.75a.89.89,0,0,1,1.58-.74,14.61,14.61,0,0,1,1.88,2.28,35,35,0,0,1,3.94,9.42c.14.51.3,1,.47,1.59l5.28-1.38c-.31-1.06-.56-2-.84-2.9q-5.16-17.08-10.3-34.18a1.51,1.51,0,0,0-1.44-1.2c-2-.34-4-.77-6-1.23-1.17-.26-1.39-.66-1.22-1.85.6-4.27,1.22-8.53,1.82-12.8.17-1.27.29-2.55.44-3.91-.26.09-.35.11-.43.15a21.7,21.7,0,0,1-12.2,2.58,2.75,2.75,0,0,0-2.81,1.39,17,17,0,0,0-.88,1.48,42.48,42.48,0,0,0-3.34,9.76c-1,5.07-1.05,10.22-1.14,15.36-.05,3,.11,6,.17,8.81m128.88,26.17c.77-1.24,1.43-2.41,2.19-3.5.21-.31.7-.44,1.06-.65.2.38.54.74.55,1.12.07,1.4,0,2.81,0,4.22s0,1.54,1.42,2a1.76,1.76,0,0,0,2.25-.75,15.67,15.67,0,0,0,1-1.85,20.65,20.65,0,0,0,1-14.13,131.42,131.42,0,0,0-5.35-15.06c-3.76-9.66-7.78-19.23-8.95-29.7a72.14,72.14,0,0,1-.51-13.38,9.3,9.3,0,0,1,2.69-6.18c.93-.92,1.77-1.92,2.67-2.88a5.74,5.74,0,0,0,1.76-3.75c.07-2.7,0-5.41-.23-8.11-.09-1.3-.73-1.73-2.07-1.8a12.61,12.61,0,0,0-2.68.08q-3,.54-6,1.27a1.61,1.61,0,0,0-1.35,1.65c0,.75.1,1.5.16,2.24,2.29-.19,4.5-.88,6.59.46a3.48,3.48,0,0,1-1.71.4,15.05,15.05,0,0,0-9,2.27c-2,1.32-3.22,3.15-2.72,5.67.46,2.28.95,4.56,1.59,6.8,1.4,4.92,2.72,9.85,2.64,15-.1,7.48-.25,14.95-.26,22.43,0,5.68,0,11.37.31,17a16.06,16.06,0,0,0,2.63,8.52,50.36,50.36,0,0,0,10.38,10.55M333.25,307.84a3.15,3.15,0,0,0-.36.09,26.6,26.6,0,0,1-11.95,1.67,19.35,19.35,0,0,1-7.22-1.68c-1.3-.66-1.3-.71-2.18.46a32.65,32.65,0,0,0-4.66,8.66,74,74,0,0,0-3.34,35.14,11,11,0,0,0,.68,3.15,84.58,84.58,0,0,0,8.22,14c.13.18.3.33.59.65,0-.77,0-1.31,0-1.85a38.44,38.44,0,0,1,1.47-10.88c.81-2.5,2-2.76,3.82-.93,1,1,1,1,1.76-.23s1.42-1.56,2.59-1.06c.77.33,1.05.07,1.23-.61.09-.34.23-.67.33-1a44.47,44.47,0,0,1,6.55-13.78,1.66,1.66,0,0,0,.27-1.05c-.65-10.32-.83-20.61,2.24-30.78m75.49,30.81.27.12,4.3-3.92a250,250,0,0,0,21.36-21.46c2.52-2.94,4.95-5.94,6.4-9.6.09-.25.46-.39.71-.58,0,.31.2.7.07.92a55.57,55.57,0,0,1-3.69,6.35c-1.94,2.61-4.16,5-6.32,7.45a3.25,3.25,0,0,0-.89,2.31c0,.87.25,1.1,1.11,1a80,80,0,0,0,13.93-3,.86.86,0,0,0,.76-1c-.07-4.63-.06-9.27-.17-13.9a20.19,20.19,0,0,0-.59-4.45c-1-4-2.19-8-3.26-12-.34-1.27-.53-2.59-.76-3.71-2.66,1.47-5.32,2.92-7.94,4.42a3.15,3.15,0,0,0-1.16,1.16c-1.71,3.15-3.47,6.27-6.13,8.74-2.81,2.61-5.9,4.23-9.83,2.46-1,5.67-3.11,10.91-4.83,16.28A26.39,26.39,0,0,0,411,320.6c-.57,3.92-1,7.86-1.47,11.78-.26,2.09-.49,4.18-.74,6.27M265.26,239.51c0,.81,0,1.38,0,2a20.15,20.15,0,0,1-4,13.41c-3.36,4.35-6.72,8.72-10.4,12.77a267.05,267.05,0,0,0-25.64,32.72l-.61,1,.92.49c6.25,3.09,13,4.37,19.82,5.19a1,1,0,0,0,.8-.53c.49-1.18.92-2.39,1.3-3.61,2-6.48,3.86-13,6.06-19.46,3.85-11.25,9.77-21.2,19-29a1.62,1.62,0,0,0,.44-1.15,17.28,17.28,0,0,0-1.69-7.13,16.24,16.24,0,0,0-6-6.66m-38.1-17.41c-6.6.06-10.72,1.26-14.54,3.52a11.75,11.75,0,0,0-4.47,4.1,3,3,0,0,0,.95,4.43,12.29,12.29,0,0,0,3.33,1.64c3.84,1.09,7.69,2.14,11.57,3,4.91,1.12,9.8,2.22,14.15,4.87a20.37,20.37,0,0,0,6,2.28c3.19.77,5.61-.49,7.64-2.82a1.24,1.24,0,0,0,.3-.67,29.47,29.47,0,0,0,0-3.64,12.45,12.45,0,0,0-3.77-7.27,29.28,29.28,0,0,0-21.12-9.46M274,253.21c.05,0,.08,0,.11,0a1.49,1.49,0,0,0,.25-.13c6.06-4.19,8.32-10,7.38-17.2a45.07,45.07,0,0,0-3.22-10.5A40.9,40.9,0,0,0,273,215a13.78,13.78,0,0,0-16.81-4.21,3.3,3.3,0,0,0-1.84,4.46,17.23,17.23,0,0,0,1.43,3.12c.9,1.54,1.89,3,2.9,4.51a35.81,35.81,0,0,1,6.43,15.1,1.49,1.49,0,0,0,.69.81,16.85,16.85,0,0,1,7.6,10.63c.29,1.26.42,2.56.63,3.84M363.17,257c-1.33.21-3.76.56-6.17,1a5.62,5.62,0,0,0-1.48.76,8.51,8.51,0,0,0,1,1.33,16.94,16.94,0,0,0,5.79,3.12c.66.22,1.34.4,2,.66,1,.39,1.07.94.37,1.67-.4.41-.86.76-1.28,1.16a11.59,11.59,0,0,0-3.89,6.44,4.12,4.12,0,0,0,3.21,5.09,14.84,14.84,0,0,0,4.26.29,31.57,31.57,0,0,0,9.22-2.47c.6-.23,1.59-.49,1.92-.2.68.61-.11,1.32-.41,1.95-.6,1.24-1.33,2.42-1.81,3.69-.64,1.65,0,2.43,1.82,2.28a1.84,1.84,0,0,0,.57-.09,23,23,0,0,0,4.55-1.92c2.52-1.72,4.86-3.72,7.22-5.67,1-.81,2.28-1.68,2.55-2.75s-.51-2.57-.7-3.89c-.29-2.11-1.81-3.25-3.33-4.3-1.74-1.19-3.63-2.14-5.44-3.23-5.8-3.49-12.15-4.88-20-4.92M197.23,345.51l.35.35a78.75,78.75,0,0,0,6.91-4.43c7.18-5.69,14.27-11.5,21.34-17.33,6.31-5.2,12.2-10.91,19.12-15.34a3,3,0,0,0,.55-.62c-3.74-.73-7.38-1.35-11-2.15a41.83,41.83,0,0,1-10.41-3.88c-9.62,14.11-18.61,28.53-26.87,43.4m83.15-47.58c0-.36-.07-.8-.14-1.24a50.22,50.22,0,0,0-4.55-13.86c-3.1-6.46-7-12.43-10.81-18.51,0-.07-.12-.11-.32-.27-1.84,2.94-3.65,5.82-5.42,8.74a1.45,1.45,0,0,0,0,1.08,149.32,149.32,0,0,1,5.6,21.95c.29,1.52.61,3,.89,4.43l14.71-2.32M258.3,274.19c-.63,1.35-1.16,2.4-1.62,3.49-4.12,9.61-6.54,19.79-9.73,29.86,5.49-3.5,11.53-5.44,17.82-6.9-1.63-8.92-3.36-17.7-6.47-26.45m203.28,10c3,1,6.08,1.51,9.18.22,2.2-.92,2.52-2.35,1-4.2-.1-.12-.21-.24-.3-.37-.47-.68-.29-1.13.55-1.25s1.42-.06,2.1-.21a20.51,20.51,0,0,0,3.46-1,1.27,1.27,0,0,0,.59-2.06,6.76,6.76,0,0,0-1.51-1.69c-.73-.57-1.6-.94-2.36-1.46-.36-.25-.85-.67-.84-1s.5-.77.88-1c.68-.41,1.43-.69,2.15-1a25.53,25.53,0,0,0,7-4.55,9.3,9.3,0,0,0,1.21-2.06c-.73-.39-1.44-1.06-2.2-1.12a57.19,57.19,0,0,0-7.63-.18,16.42,16.42,0,0,0-7.55,2.26c-.63.38-1.2.87-1.92,1.4a4.18,4.18,0,0,1,1.7,4.19,23.36,23.36,0,0,1-2.25,8.56c-1.05,2.19-2.2,4.34-3.34,6.57m-14.66,63.52c-1.34-9.52-.37-19-.33-28.54L434.52,322c3.53,8.84,8,17.24,12.4,25.7M252.15,244a8.62,8.62,0,0,1-9.36,2.67,50.24,50.24,0,0,1,11.79,15.5c1.63-2.06,3.18-4,4.67-6a1,1,0,0,0-.14-.89c-1.28-1.79-2.59-3.55-3.9-5.32a14.85,14.85,0,0,1-3.06-6m179.56,44.67c-5.52,2.86-10.21,1.19-14.64-2.7a21.23,21.23,0,0,1,.24,2.51c-.06,3.15-.14,6.31-.31,9.46a1.18,1.18,0,0,0,.94,1.44,6.48,6.48,0,0,0,5.77-.71c3.82-2.36,6-6.08,8-10m32.23-24.49c.28-5.66-1.31-10.47-5.77-14.17-2.16,4.56-2.26,9.46-2.82,14.39a15.34,15.34,0,0,1,8.59-.22m-99,94.31c.57,3.9,1.12,7.71,1.7,11.64a24.06,24.06,0,0,1,5.32-5.82.69.69,0,0,0,.14-.58c-.62-2.17-1.27-4.33-1.93-6.58l-5.23,1.34m99-81.56a22.05,22.05,0,0,0,2.1-8.55c0-1.77-.61-2.55-2.33-3a14.31,14.31,0,0,0-6.82-.23c-1.86.39-2.73,1.58-2.65,3.65l.64-.09c1.68-.14,3.36-.39,5.05-.39,2.21,0,3.21.92,3.49,3.12.24,1.83.35,3.67.52,5.51m-36-49.87c-.29-.33-.42-.49-.57-.64-1.92-2-3.83-3.92-5.76-5.87-.47-.48-.95-1-1.46-1.38s-1-.39-1.3.28a17.57,17.57,0,0,0-.94,2.6,18,18,0,0,0-.54,5.44,16.48,16.48,0,0,1,10.57-.43m-77.46,135c1.31-.9,1.84-.73,2.33.67a11.94,11.94,0,0,1,.44,1.66c.25,1.24.46,2.48.69,3.76,1.57-1.08,3.81-6.51,3.5-8.31l-7.43.87.47,1.35m-12-4.44-4.85-8.24c0,3.09-.09,6.06-.13,9.09l5-.85m57.48-72.48.15-.17c-1-3.46-2-6.93-3.09-10.48l-3,2.95,6,7.7m46.91-38.86c2.72-.77,5.29-1.52,8.14-1-2.45-2.55-7.05-2-8.14,1M378.36,378.1l.26,0c.3-1.17.6-2.35.92-3.57l-1.62-.77c.16,1.59.3,3,.44,4.32m86.09-10.5c0,.71,0,1.37.05,2.23l2.16-1.55-2.21-.68"/><path d="M540,393.72l4.77-7.44c.07-.11.09-.26.18-.33.31-.25.65-.47,1-.7a3.72,3.72,0,0,1-.09,1.12c-.46,1.15-1.09,2.25-1.48,3.42-.61,1.81-1.06,3.68-1.6,5.51a1.62,1.62,0,0,0,.51,1.88c.69.6,1.3,1.32,2,1.94.32.28.79.39,1.09.67a4.66,4.66,0,0,1,.65,1,5.64,5.64,0,0,1-1,.15c-.31,0-.62-.17-.91-.14-.92.11-1.84.27-2.85.42a28.31,28.31,0,0,0,1.28,8c.89-.87,1.64-1.64,2.42-2.38,1.08-1,1.64-.88,2.07.55a6,6,0,0,1,.31,1.3c0,.25-.2.52-.31.78-.18-.19-.45-.35-.53-.57-.2-.53-.31-1.08-.51-1.8-1,.95-1.78,1.78-2.62,2.59-1,1-1.38.87-1.78-.47a28.89,28.89,0,0,1,.12-17.36c0-.12.06-.25.08-.37s0-.13-.25-.3c-.91,1.77-1.93,3.5-2.73,5.31a22.29,22.29,0,0,0-2.25,11.24c.05.54.25,1.05.33,1.59a2.23,2.23,0,0,1-.11.66c-.24-.1-.62-.15-.67-.32a6,6,0,0,1-.46-1.93c0-1.91.1-3.81.17-5.78l-6.57.9c0,1.3,0,2.57.09,3.83,0,1,.17,2,.2,3,0,.25-.23.51-.36.76-.17-.23-.47-.45-.48-.69-.13-3.35-.41-6.71-.26-10.05a31.17,31.17,0,0,1,3.18-12.54c.68-1.35,1.51-2.63,2.34-4.07a5.79,5.79,0,0,0-.59.28c-5.58,3.42-10.09,7.82-12.79,13.89-.14.32-.54.52-.82.78a3.63,3.63,0,0,1-.34-1.06c0-1.15.07-2.3.12-3.44l-.24-.22a3.82,3.82,0,0,1-.32.64c-2.16,2.87-3.92,5.92-4.06,9.64a13,13,0,0,0,1.82,7.33,2.77,2.77,0,0,1,.14.89c-.29-.12-.71-.16-.85-.38A12.7,12.7,0,0,1,515.1,406c0-.28-.07-.56-.13-1l-53.06,7.39c1,1.67,2,3.28,2.91,4.89a4,4,0,0,1,.49.93,3.13,3.13,0,0,1,0,.92c-.27-.17-.63-.28-.78-.52-1.36-2.12-2.56-4.36-4-6.4a37.17,37.17,0,0,0-14-11.66l.36.57c2.16,3.27,4.43,6.48,6.44,9.85a25.41,25.41,0,0,1,1.82,5,2.45,2.45,0,0,1-.1.95,2.88,2.88,0,0,1-1-.23c-1-.61-1.86-1.28-2.79-1.93l-.32.24c.25.75.55,1.49.74,2.26a14.67,14.67,0,0,1,.27,1.88c-.58-.12-1.18-.21-1.76-.38-1.19-.33-2.38-.68-3.55-1.08-.27-.09-.45-.41-.68-.62.28-.08.58-.3.83-.24,1.36.32,2.7.7,4.09,1.07-.12-1.24-1.38-2.42-.45-3.93-3.53.5-7,1-10.41,1.5a7.19,7.19,0,0,0-2,.83,2.12,2.12,0,0,1-2,0,93.22,93.22,0,0,1-13.57-7.9q-10.53-7-21-14.08c-1-.68-1-.9-.3-1.89,3.88-5.53,9.6-8.24,15.72-10.38A75.59,75.59,0,0,1,434,378.35c5.49-.58,11-1,16.53-1.11a81.43,81.43,0,0,1,10.19.86,6.62,6.62,0,0,1,3.69,1.7c.74.65,1.55,1.22,2.39,1.88.54-.5,1.08-.95,1.56-1.45,5.63-5.89,12.69-8.83,20.6-10.1a111.64,111.64,0,0,1,28.29-.57,2.77,2.77,0,0,1,1.63.82c4.1,4.31,8.15,8.66,12.22,13,.17.18.34.38.53.6l5.75-3.42a2,2,0,0,1,.57-.34,2.16,2.16,0,0,1,.7.08c-.08.24-.09.55-.25.72-.86.94-1.81,1.8-2.63,2.77a15.77,15.77,0,0,0-1.53,2.32.91.91,0,0,0,0,.83c1.91,2.26,3.86,4.49,5.84,6.78m-47.83,9.19c-1.82-1.61-3.41-3.18-5.16-4.54q-12-9.33-24.17-18.55a3,3,0,0,0-1.39-.58,78.31,78.31,0,0,0-9.11-1.09,116.22,116.22,0,0,0-29.38,3.1,50.53,50.53,0,0,0-15.24,6.06,43.85,43.85,0,0,0-3.72,2.94c2.49,1.68,4.79,3.18,7,4.76,7.62,5.38,15.1,11,23.24,15.58a5.53,5.53,0,0,0,2.78.79c4.5-.23,9-.61,13.48-.95.42,0,.85-.1,1.45-.17-.91-1.39-1.75-2.63-2.53-3.9-.36-.59-.72-.89-1.46-.62-.23.09-.58-.14-.88-.23.22-.21.44-.45.68-.64a2.06,2.06,0,0,1,.53-.15c-.56-.78-1.1-1.45-1.56-2.17a.89.89,0,0,0-1.28-.38c-1.13.45-2.27.85-3.42,1.22a2.25,2.25,0,0,1-.85-.05,1.7,1.7,0,0,1,1.39-1.14l3-1.06a10.12,10.12,0,0,1-.91-1.23.94.94,0,0,1,0-.77c.07-.13.48-.2.68-.13a11,11,0,0,1,1.93.83,3.23,3.23,0,0,0,2.44.27c6-1.17,12.11-2.26,18.18-3.34.35-.06.76.2,1.14.31a3.61,3.61,0,0,1-1.05.57c-4.62.81-9.25,1.57-13.88,2.38-1.44.26-2.87.63-4.49,1,1.09.75,2,1.31,2.85,2a2.23,2.23,0,0,0,2.11.44c4.28-.89,8.57-1.74,12.87-2.58.27-.05.6.15.9.23-.25.21-.48.55-.77.62-2.77.59-5.56,1.14-8.35,1.7l-4.49.92a31.56,31.56,0,0,1,3.25,3.5c1.17,1.7,2.6,1.69,4.37,1.39,4.41-.74,8.85-1.32,13.27-2q5.36-.78,10.71-1.59c.4-.06.94-.09,1.17-.35,1.19-1.34,2.81-1.81,4.69-2.42m38.67-18.29a3.88,3.88,0,0,0-.2-.34q-6.25-6.69-12.53-13.36a1.87,1.87,0,0,0-1.09-.48q-3-.27-6.11-.43a95.82,95.82,0,0,0-23.49,1.34c-5.13,1-10,2.57-14.21,5.86-2,1.55-3.79,3.27-5.75,5l1.2.85a247.69,247.69,0,0,1,24.11,19.25,1.73,1.73,0,0,0,1.18.29c2-.16,4-.47,6-.56a5.38,5.38,0,0,1,4.41,1.45.89.89,0,0,0,.68.2c3.13-.42,6.26-.86,9.39-1.34a1.07,1.07,0,0,0,.71-.66c.7-3.57,2.66-6.48,4.87-9.23.22-.28.68-.37,1-.54a3.23,3.23,0,0,1,.41,1.06,19.69,19.69,0,0,1-.09,2.17,34.76,34.76,0,0,1,9.48-10.5m-129.31,8.75c.27.2.44.33.62.45l18.64,12.48a115.52,115.52,0,0,0,15.11,9.06,2.27,2.27,0,0,0,2.31-.17,6.37,6.37,0,0,1,1.78-.71c.91-.18,1.84-.2,2.76-.32L453,412.73c-.41-1.52-.41-1.52-1.84-1.43-.48,0-.95.08-1.43.12-4,.31-8,.64-12,.94a7.09,7.09,0,0,1-4.17-1.11c-7.32-4.29-14.2-9.23-21.09-14.16-2.9-2.07-5.89-4-8.89-6.09l-2,2.37m131.85-5.83A34.82,34.82,0,0,0,530.32,400c2.48-.35,4.82-.66,7.15-1a1,1,0,0,0,.56-.53c.5-1.11,1-2.23,1.39-3.36a.85.85,0,0,0,0-.75c-1.93-2.25-3.9-4.46-6-6.8m-45.52,20.32,2.08-.29,13.55-1.87c.84-.11,1-.46.56-1.14a2.88,2.88,0,0,0-2.35-1.47,39.93,39.93,0,0,0-6.29.22,33.53,33.53,0,0,0-5.87,1.59,2.59,2.59,0,0,0-1.68,3m-27.45,2.55a1.43,1.43,0,0,0,1.74,1.06c6.82-1,13.66-1.91,20.49-2.86l4.21-.62c0-.56.08-1,.11-1.45l-26.55,3.87m44.92-5.85-.21.32c.27.16.55.48.79.45,2.81-.36,5.61-.78,8.42-1.15.69-.09.75-.4.55-1l-9.55,1.36m24.72-2.88.27.27c2.14-.29,4.29-.55,6.43-.91.31-.05.55-.55.82-.84l-.21-.27c-2.23.32-4.47.61-6.7,1-.24,0-.41.51-.61.77M544.64,400c-.7-1-1.41-1.25-2.1-.78-.23.16-.25.64-.42,1.12l2.52-.34M453.42,413.6l-2,.3,2.59,1.53c-.22-.69-.38-1.22-.57-1.83"/><path d="M432.6,372c.31-.34.64-.67.92-1a22.9,22.9,0,0,0,4.39-10.29,4.38,4.38,0,0,1,.28-1.2,6.41,6.41,0,0,1,.82-1.08c.36.31.91.55,1.06.94a16.08,16.08,0,0,1,1.12,3.74c.5,3.89.86,7.8,1.23,11.71,0,.29-.28.61-.43.91-.16-.31-.44-.6-.47-.93-.37-3.58-.63-7.18-1.07-10.76a35.78,35.78,0,0,0-1.09-4.4l-.29,0c-.24,1.08-.44,2.17-.71,3.25a21.84,21.84,0,0,1-4.58,9.16c-.46.54-.94,1.36-1.78,1s-.48-1.22-.44-1.9a16.51,16.51,0,0,0,0-3.14c-.14.29-.28.57-.43.85q-1.75,3.18-3.52,6.36a1.52,1.52,0,0,1-.4.53c-.32.24-.68.42-1,.63a4.58,4.58,0,0,1,.3-1.13c1.25-2.26,2.53-4.5,3.79-6.75a11.55,11.55,0,0,1,.69-1.36,4.1,4.1,0,0,1,.92-.71c.22.35.61.69.64,1.05.06,1.15,0,2.3,0,3.45,0,.33,0,.67-.07,1l.19.08"/><path class="cls-9" d="M311.47,307a36,36,0,0,0-5.27,9.25,63.82,63.82,0,0,0-3.78,16.18,72.69,72.69,0,0,0,0,18.17.71.71,0,0,1-.13.53c-.14-.29-.29-.58-.41-.88a102.88,102.88,0,0,1-5-15.19,11.17,11.17,0,0,0-.64-1.9c-.42-.93-1.14-1-1.75-.16a9.6,9.6,0,0,0-.86,1.49,62,62,0,0,0-6.56,20.91c-.32,3-.31,6.06-.45,9.09,0,.37-.08.74-.14,1.29-.58-.32-1-.52-1.44-.8-3.36-2.34-6.7-4.69-10.07-7a13.87,13.87,0,0,0-2.13-1.26c-1-.45-1.7.11-1.46,1.17a22.58,22.58,0,0,0,.83,2.65c.83,2.34,1.71,4.67,2.49,7a6.75,6.75,0,0,1,.08,1.86,9.85,9.85,0,0,1-1.83-.24c-4.09-1.38-8.13-2.87-12.24-4.18-2.67-.85-5.41-1.47-8.14-2.14a6.37,6.37,0,0,0-2.09-.08c-.83.09-1.06.75-.5,1.37a7.35,7.35,0,0,0,1.25,1c1.53,1.05,3.07,2.07,4.61,3.12.22.15.43.34.8.64l-.82.06A206.38,206.38,0,0,1,210,365.6a94.67,94.67,0,0,1-28.64-10.26l-4.07-2.27a2.82,2.82,0,0,1,.07-.31c1.06-.2,2.13-.41,3.2-.6a61.48,61.48,0,0,0,30-14.11c9-7.71,18.18-15.32,27.33-22.92,5.71-4.74,11.83-8.87,18.93-11.25A89.13,89.13,0,0,1,283.21,299a50.58,50.58,0,0,1,27.73,7.57l.4.25c.05,0,.07.11.13.21"/></g><g class="cls-10"><rect class="cls-3" x="218.66" y="369.17" width="138.86" height="1.04" transform="translate(-177.56 316.41) rotate(-45.54)"/><rect class="cls-3" x="223.14" y="370.98" width="138.86" height="6.24" transform="translate(-179.36 320.94) rotate(-45.55)"/><rect class="cls-3" x="210.78" y="358.85" width="138.86" height="6.24" transform="translate(-174.41 308.48) rotate(-45.55)"/><rect class="cls-3" x="198.79" y="347.08" width="138.86" height="6.24" transform="translate(-169.6 296.4) rotate(-45.55)"/><rect class="cls-3" x="187.42" y="335.93" width="138.86" height="6.24" transform="translate(-165.05 284.94) rotate(-45.55)"/><rect class="cls-3" x="175.06" y="323.8" width="138.86" height="6.24" transform="translate(-160.09 272.49) rotate(-45.55)"/><rect class="cls-3" x="163.07" y="312.03" width="138.86" height="6.24" transform="translate(-155.29 260.4) rotate(-45.55)"/><rect class="cls-3" x="151.57" y="300.76" width="138.86" height="6.24" transform="translate(-150.68 248.81) rotate(-45.55)"/><rect class="cls-3" x="139.58" y="288.99" width="138.86" height="6.24" transform="translate(-145.88 236.73) rotate(-45.55)"/><rect class="cls-3" x="207.02" y="357.75" width="138.86" height="1.04" transform="translate(-172.9 304.67) rotate(-45.54)"/><rect class="cls-3" x="195.44" y="346.39" width="138.86" height="1.04" transform="translate(-168.26 293.01) rotate(-45.54)"/><rect class="cls-3" x="183.8" y="334.97" width="138.86" height="1.04" transform="translate(-163.59 281.27) rotate(-45.54)"/><rect class="cls-3" x="171.27" y="322.67" width="138.86" height="1.04" transform="translate(-158.57 268.65) rotate(-45.54)"/><rect class="cls-3" x="159.62" y="311.25" width="138.86" height="1.04" transform="translate(-153.91 256.91) rotate(-45.54)"/><rect class="cls-3" x="148.05" y="299.89" width="138.86" height="1.04" transform="translate(-149.27 245.24) rotate(-45.54)"/><rect class="cls-3" x="136.4" y="288.47" width="138.86" height="1.04" transform="translate(-144.6 233.51) rotate(-45.54)"/><rect class="cls-11" x="208.62" y="359.94" width="138.86" height="1.04" transform="translate(-173.98 306.47) rotate(-45.54)"/><rect class="cls-11" x="212.79" y="364.04" width="138.86" height="1.04" transform="translate(-175.65 310.68) rotate(-45.54)"/><rect class="cls-11" x="208.29" y="303.35" width="1.04" height="138.86" transform="translate(-203.52 260.74) rotate(-45.54)"/><rect class="cls-11" x="218.3" y="293.14" width="1.04" height="138.86" transform="translate(-193.23 264.83) rotate(-45.54)"/><rect class="cls-11" x="228.32" y="282.93" width="1.04" height="138.86" transform="translate(-182.94 268.92) rotate(-45.54)"/><rect class="cls-11" x="238.33" y="272.73" width="1.04" height="138.86" transform="translate(-172.66 273.01) rotate(-45.54)"/><rect class="cls-11" x="248.35" y="262.52" width="1.04" height="138.86" transform="translate(-162.37 277.1) rotate(-45.54)"/><rect class="cls-11" x="258.36" y="252.31" width="1.04" height="138.86" transform="translate(-152.08 281.19) rotate(-45.54)"/><rect class="cls-11" x="268.38" y="242.1" width="1.04" height="138.86" transform="translate(-141.8 285.28) rotate(-45.54)"/><rect class="cls-11" x="278.39" y="231.9" width="1.04" height="138.86" transform="translate(-131.51 289.37) rotate(-45.54)"/><rect class="cls-11" x="288.41" y="221.69" width="1.04" height="138.86" transform="translate(-121.22 293.46) rotate(-45.54)"/><rect class="cls-11" x="220.55" y="371.64" width="138.86" height="1.04" transform="translate(-178.76 318.5) rotate(-45.54)"/><rect class="cls-11" x="224.72" y="375.74" width="138.86" height="1.04" transform="translate(-180.43 322.71) rotate(-45.54)"/><rect class="cls-11" x="184.76" y="336.53" width="138.86" height="1.04" transform="translate(-164.42 282.43) rotate(-45.54)"/><rect class="cls-11" x="188.94" y="340.63" width="138.86" height="1.04" transform="translate(-166.09 286.64) rotate(-45.54)"/><rect class="cls-11" x="196.69" y="348.24" width="138.86" height="1.04" transform="translate(-169.2 294.45) rotate(-45.54)"/><rect class="cls-11" x="200.87" y="352.33" width="138.86" height="1.04" transform="translate(-170.87 298.66) rotate(-45.54)"/><rect class="cls-11" x="160.9" y="313.13" width="138.86" height="1.04" transform="translate(-154.86 258.39) rotate(-45.54)"/><rect class="cls-11" x="165.08" y="317.22" width="138.86" height="1.04" transform="translate(-156.54 262.6) rotate(-45.54)"/><rect class="cls-11" x="172.83" y="324.83" width="138.86" height="1.04" transform="translate(-159.64 270.41) rotate(-45.54)"/><rect class="cls-11" x="177.01" y="328.93" width="138.86" height="1.04" transform="translate(-161.31 274.62) rotate(-45.54)"/><rect class="cls-11" x="137.05" y="289.72" width="138.86" height="1.04" transform="translate(-145.3 234.35) rotate(-45.54)"/><rect class="cls-11" x="141.22" y="293.82" width="138.86" height="1.04" transform="translate(-146.98 238.55) rotate(-45.54)"/><rect class="cls-11" x="148.98" y="301.42" width="138.86" height="1.04" transform="translate(-150.08 246.37) rotate(-45.54)"/><rect class="cls-11" x="153.15" y="305.52" width="138.86" height="1.04" transform="translate(-151.76 250.57) rotate(-45.54)"/><rect class="cls-3" x="281.48" y="228.75" width="1.04" height="138.86" transform="translate(-128.34 290.63) rotate(-45.54)"/><rect class="cls-3" x="291.9" y="218.13" width="1.04" height="138.86" transform="translate(-117.64 294.88) rotate(-45.54)"/><rect class="cls-3" x="260.63" y="250" width="1.04" height="138.86" transform="translate(-149.75 282.12) rotate(-45.54)"/><rect class="cls-3" x="271.05" y="239.38" width="1.04" height="138.86" transform="translate(-139.05 286.37) rotate(-45.54)"/><rect class="cls-3" x="239.79" y="271.24" width="1.04" height="138.86" transform="translate(-171.16 273.6) rotate(-45.54)"/><rect class="cls-3" x="250.21" y="260.62" width="1.04" height="138.86" transform="translate(-160.46 277.86) rotate(-45.54)"/><rect class="cls-3" x="220.17" y="291.24" width="1.04" height="138.86" transform="translate(-191.31 265.59) rotate(-45.54)"/><rect class="cls-3" x="230.59" y="280.62" width="1.04" height="138.86" transform="translate(-180.61 269.85) rotate(-45.54)"/><rect class="cls-3" x="210.97" y="300.61" width="1.04" height="138.86" transform="translate(-200.76 261.84) rotate(-45.54)"/></g><g class="cls-2"><path class="cls-8" d="M465,262.74c-.23-1.54-.4-3-.66-4.44a14.91,14.91,0,0,0-3.92-7.34,43.54,43.54,0,0,0-8.75-7.28,222.59,222.59,0,0,1-19.93-14.63,69.41,69.41,0,0,1-9.32-8.82,12.07,12.07,0,0,0-1.78-1.72c-1.12-.88-2.11-.74-2.64.56a18.54,18.54,0,0,0-1.36,4.75,50.75,50.75,0,0,1-3.57,13.36,84,84,0,0,1-10.48,19.32,27.9,27.9,0,0,1-2.24,2.62,7.29,7.29,0,0,1-3.85,2.36,6.6,6.6,0,0,0-3.82,2.23,19,19,0,0,0-1.49,2.56c-.75-.85-1.66-1.74-2.42-2.74a36,36,0,0,1-6.51-15.59c-1.19-6.49.1-12.59,2.9-18.42A20.21,20.21,0,0,1,388,225c3.86-4.48,8.29-8.29,14-10.26,1.7-.59,2.44-1.2,2.78-3.13a12.52,12.52,0,0,1,7.95-10,32.17,32.17,0,0,1,22.7-.72c12.67,4.21,22.25,12.05,27.79,24.41A46,46,0,0,1,466.48,239a75.35,75.35,0,0,1-1.28,23.06c0,.22-.11.42-.18.68"/><path class="cls-12" d="M401.68,261.8c-1.65,1.15-3.35,2.23-4.92,3.47a8.46,8.46,0,0,0-2,2.4A4.15,4.15,0,0,0,396.1,273c-.2-.64-.31-1.11-.49-1.54a3.77,3.77,0,0,1,1-4.54,16.51,16.51,0,0,1,7.48-4.47,6,6,0,0,1,4.76.9c.29.19.44.58.66.88a4.26,4.26,0,0,1-.88.49,21.23,21.23,0,0,0-8.18,4.45c-1.37,1.21-2.44,2.6-2.06,4.57a15.2,15.2,0,0,0,.81,2.32l.39-.1a12.12,12.12,0,0,0-.15-1.35,4,4,0,0,1,1.25-4.09,19.93,19.93,0,0,1,9.77-5c.4-.08,1.09-.05,1.23.17a1.72,1.72,0,0,1-.07,1.33,8.54,8.54,0,0,1-4.18,3.93,17.71,17.71,0,0,0-5.18,3.72,3.36,3.36,0,0,0-.77,4.05c1,2,2.27,3.83,3.45,5.72.09.16.41.18.63.26,0-.26.16-.58.05-.76-.38-.66-.89-1.25-1.27-1.91-.73-1.26-1.46-2.54-2.09-3.86a2.25,2.25,0,0,1,.38-2.52,12.09,12.09,0,0,1,6-4.07c.51-.14,1.39-.06,1.61.26a1.9,1.9,0,0,1-.13,1.66,11.88,11.88,0,0,1-1.67,2c-1.67,1.77-1.53,3.05.49,4.35,1.37.88,2.71,1.83,4.15,2.59a5.66,5.66,0,0,1,3.2,4.76,59.15,59.15,0,0,1-.24,11.29c-.42,5-2.11,9.65-3.79,14.28A58.68,58.68,0,0,0,409,328.11a187.11,187.11,0,0,1-5.31,30.63c-.71,2.85-1.7,5.21-4.24,6.87a17.46,17.46,0,0,0-3.32,3.17c-1,1.11-1.85,2.35-2.92,3.75.14-1.08.24-2,.37-2.84A57.82,57.82,0,0,1,397,356.25c.22-.56.54-1.09.73-1.66a2.25,2.25,0,0,0,0-.85c-.24.09-.56.11-.72.27-5.32,5.65-9.6,11.88-11,19.71-.09.52-.26,1-.4,1.52h-.24c-.21-1-.36-2-.65-3-.51-1.71-1.05-3.42-1.68-5.08-.15-.39-.69-.63-1-.94a4.53,4.53,0,0,0-.72,1.12c-.48,1.86-.88,3.73-1.32,5.59-.05.21-.13.42-.19.62-1.78-.57-1.84-.62-1.87-2.28a33,33,0,0,1,1-9.89,2.38,2.38,0,0,0-.14-1,2.93,2.93,0,0,0-1,.18c-1.55.95-3.07,1.94-4.64,2.94-4.48-15.07-9-30.09-13.46-45.2,7.37.36,14.68.16,21.46-3.83.31,1.95.69,3.81.91,5.69Q383.5,334,385,347.78a2.49,2.49,0,0,1-.31,1.35A24.7,24.7,0,0,0,381.41,360a7.82,7.82,0,0,0,0,1.53,3.48,3.48,0,0,0,.51,1,3.66,3.66,0,0,0,.37-1c.1-1.2.07-2.43.23-3.63.52-3.88,2.29-7.27,4.23-10.6,2.94-5,6-10,8.69-15.12a118.14,118.14,0,0,0,8.35-22c.55-1.86,1.25-3.69,1.66-5.58a8.07,8.07,0,0,0-1.1-5.9,97.22,97.22,0,0,1-11.69-29.43c-.08-.37-.15-.75-.2-1.13a4.28,4.28,0,0,1,2.41-4.94,14.49,14.49,0,0,1,6.81-1.46"/><path class="cls-13" d="M359.35,270.52a8.13,8.13,0,0,0-.7,4.59A4.76,4.76,0,0,0,362,279a13.32,13.32,0,0,0,7.66.07c2.19-.53,4.32-1.32,6.48-2l1.23-.43c-.35.62-.59,1-.79,1.42a29.88,29.88,0,0,0-1.64,3.66c-.54,1.75.33,3,2.16,2.95a10.43,10.43,0,0,0,3.35-.65,24.18,24.18,0,0,0,7.37-4.58c.49-.41,1-.83,1.51-1.3l.47.6,6.87,8.49a9.7,9.7,0,0,1,1,1.4c2.13,4,4.3,7.91,6.29,11.95a5.77,5.77,0,0,1,.37,3.32A97.84,97.84,0,0,1,399.32,321,114.06,114.06,0,0,1,387.73,344c-.55.86-1.07,1.74-1.61,2.61a3.24,3.24,0,0,1-.25.24c-.1-.82-.18-1.55-.27-2.28-1-8.57-1.93-17.14-2.93-25.7-.17-1.46-.43-2.91-.72-4.35a1,1,0,0,1,.45-1.11c1.78-1.46,3.53-3,5.3-4.43a.92.92,0,0,0,.36-1.13c-1.52-5.35-3-10.7-4.47-16.05a1.4,1.4,0,0,0-.2-.54c-.12-.14-.36-.32-.5-.28a.6.6,0,0,0-.31.49,3.23,3.23,0,0,0,.2.83c1.38,4.95,2.75,9.9,4.17,14.84a1.46,1.46,0,0,1-.59,1.79c-1.86,1.46-3.6,3.07-5.51,4.46a22.09,22.09,0,0,1-10.46,3.7A47.57,47.57,0,0,1,352,316c-.82-.22-1-.52-.93-1.38,1-7.21,2-14.42,2.8-21.65.47-4.35.51-8.74.78-13.11a37.23,37.23,0,0,1,.48-4.47,6.62,6.62,0,0,1,4.27-4.91"/><path class="cls-12" d="M410.05,270.43c.74-.87,1.5-1.65,2.12-2.54a4.23,4.23,0,0,0,.66-1.76c.17-1.22-.43-1.7-2.17-1.88-.67-2.53-3.73-3.27-6.24-3.05a3,3,0,0,1-1.57-.25,8.12,8.12,0,0,0-2.45-.31c1.47-1.86,3.16-3.74,4.53-5.83a85.22,85.22,0,0,0,11.66-25.5,1.19,1.19,0,0,1,.9-.94c3.92-1.32,7.82-.86,11.71.14a3.38,3.38,0,0,1,1.25.67,206.3,206.3,0,0,0,17.91,13.33c.1.07.17.16.47.43a5.94,5.94,0,0,0-5.26,1.05,7.29,7.29,0,0,0-1.7,2.2c-.32.56.06,1,.71,1a3,3,0,0,0,1-.11c2.59-.8,5.18-1.39,7.91-.7.85.21.76-.52.77-1.3l5.28,4.15c-2.37,4.66-2.54,9.66-3.06,14.6a13.27,13.27,0,0,1-.61,1.95c-.28,1-.52,2.07-.8,3.22-4.27,1.77-4.27,1.77-3.52,5.87-1,.42-2.09.78-3.07,1.29-2.15,1.14-3.92,2.64-4.43,5.21a1.07,1.07,0,0,1-.38.52A40.66,40.66,0,0,1,427.59,289a7.69,7.69,0,0,1-6-1c-2.11-1.24-4.24-2.47-5.69-4.59a6.79,6.79,0,0,0-1.9-1.57c-1.52-1-3.09-1.94-4.62-2.92s-1.49-1.56-.33-2.82a22.37,22.37,0,0,0,1.73-1.92c1.11-1.55.82-2.87-.73-3.79m29.25-14.75c.88-1.28,1.65-2.39,2.4-3.52a3.45,3.45,0,0,0,.27-.72c-.28,0-.67-.09-.83.06a6.73,6.73,0,0,0-1.18,1.37,13.09,13.09,0,0,0-1.21,11.85c.26.75.55,1.5.78,2.26a1.45,1.45,0,0,1-.72,1.8,5.45,5.45,0,0,1-1.59.63c-.94.19-1.9.24-2.84.4-.22,0-.4.29-.6.45.21.14.45.42.64.39a25.37,25.37,0,0,0,4.46-.91c1.53-.56,1.94-1.81,1.44-3.38-.25-.76-.57-1.49-.82-2.25a11.78,11.78,0,0,1-.5-6.24c.18.11.29.16.39.23a8.79,8.79,0,0,0,11.21-.43c.7-.6,1.34-1.28,2-2,.21-.23.5-.66.42-.83a1.26,1.26,0,0,0-.85-.61,29.59,29.59,0,0,0-5.15-.09c-2.46.3-4.87.92-7.7,1.49m-15.93-1.61c-3,.48-5.88.93-8.73,1.42a4.21,4.21,0,0,0-1.1.59,4.74,4.74,0,0,0,.76,1,14,14,0,0,0,10.87,2.95c2.55-.35,4.83-1.24,6.29-3.55a1,1,0,0,1,.25-.28l.74-.53a3.06,3.06,0,0,0-.94-.53c-2.73-.4-5.48-.75-8.14-1.1m3.22-12.34a14.57,14.57,0,0,0-8.73,3c-.25.19-.31.62-.45.94.42.18.91.6,1.26.5a21.14,21.14,0,0,1,7.87-.66c1.21.12,2.39.42,3.6.51a1.38,1.38,0,0,0,1.41-2,2.74,2.74,0,0,0-2-1.73,29.51,29.51,0,0,0-2.93-.47m3.29,37a22.3,22.3,0,0,0,10.46-3.26c.2-.11.26-.47.38-.71a2.11,2.11,0,0,0-.86,0c-1.21.54-2.38,1.19-3.6,1.69-5.27,2.15-10.33,2-15.1-1.39-1-.73-2.09-1.47-3.16-2.16-.19-.12-.52,0-.79,0,.09.27.09.67.27.8,1.58,1.08,3.17,2.15,4.81,3.14a13.81,13.81,0,0,0,7.59,2m-3.52-29.63c-1,.36-2,.68-2.91,1.1-.23.1-.34.51-.5.78.3,0,.69.11.91,0a4.78,4.78,0,0,1,7.15,2.44c.09.25.46.4.69.6a2.4,2.4,0,0,0,.13-.93,5.83,5.83,0,0,0-5.47-4"/><path class="cls-13" d="M331.73,337.75c-.06-2.83-.22-5.82-.17-8.81.09-5.14.11-10.29,1.14-15.36a42.48,42.48,0,0,1,3.34-9.76,17,17,0,0,1,.88-1.48,2.75,2.75,0,0,1,2.81-1.39,21.7,21.7,0,0,0,12.2-2.58c.08,0,.17-.06.43-.15-.15,1.36-.27,2.64-.44,3.91-.6,4.27-1.22,8.53-1.82,12.8-.17,1.19,0,1.59,1.22,1.85,2,.46,4,.89,6,1.23a1.51,1.51,0,0,1,1.44,1.2q5.12,17.1,10.3,34.18c.28.92.53,1.84.84,2.9l-5.28,1.38c-.17-.58-.33-1.08-.47-1.59a34.65,34.65,0,0,0-3.94-9.42,14.61,14.61,0,0,0-1.88-2.28.89.89,0,0,0-1.58.74c.15,1.59.47,3.16.59,4.75.22,2.63.33,5.28.5,7.92.06.92-.34,1.25-1.27,1.33-2.25.19-4.5.5-6.83.78-.47-1.86-.88-3.62-1.38-5.35a37.74,37.74,0,0,0-1.45-4.15c-.19-.45-.77-.73-1.17-1.08-.29.45-.75.88-.83,1.36-.4,2.65-.71,5.32-1.05,8-.06.4-.16.8-.24,1.24-1.36.15-2.45,0-3.26-1.33-1.55-2.63-3.28-5.16-4.91-7.75a9.49,9.49,0,0,1-1.06-7.71c.55-2.16.92-4.37,1.36-6.56a2.5,2.5,0,0,0,.12-.85c0-.28-.16-.68-.37-.78a1,1,0,0,0-.84.2c-1,.82-1.9,1.7-2.93,2.63"/><path class="cls-12" d="M460.61,363.92a50.36,50.36,0,0,1-10.38-10.55,16.06,16.06,0,0,1-2.63-8.52c-.28-5.67-.32-11.36-.31-17,0-7.48.16-14.95.26-22.43.08-5.18-1.24-10.11-2.64-15-.64-2.24-1.13-4.52-1.59-6.8-.5-2.52.68-4.35,2.72-5.67a15.05,15.05,0,0,1,9-2.27,3.48,3.48,0,0,0,1.71-.4c-2.09-1.34-4.3-.65-6.59-.46-.06-.74-.15-1.49-.16-2.24a1.61,1.61,0,0,1,1.35-1.65q3-.74,6-1.27a12.61,12.61,0,0,1,2.68-.08c1.34.07,2,.5,2.07,1.8.2,2.7.3,5.41.23,8.11a5.74,5.74,0,0,1-1.76,3.75c-.9,1-1.74,2-2.67,2.88a9.3,9.3,0,0,0-2.69,6.18,72.14,72.14,0,0,0,.51,13.38c1.17,10.47,5.19,20,8.95,29.7A131.42,131.42,0,0,1,470,350.37a20.65,20.65,0,0,1-1,14.13,15.67,15.67,0,0,1-1,1.85,1.76,1.76,0,0,1-2.25.75c-1.43-.45-1.45-.5-1.42-2s.06-2.82,0-4.22c0-.38-.35-.74-.55-1.12-.36.21-.85.34-1.06.65-.76,1.09-1.42,2.26-2.19,3.5"/><path class="cls-14" d="M333.25,307.84c-3.07,10.17-2.89,20.46-2.24,30.78a1.66,1.66,0,0,1-.27,1.05,44.47,44.47,0,0,0-6.55,13.78c-.1.33-.24.66-.33,1-.18.68-.46.94-1.23.61-1.17-.5-1.8-.19-2.59,1.06s-.76,1.22-1.76.23c-1.85-1.83-3-1.57-3.82.93A38.44,38.44,0,0,0,313,368.16c0,.54,0,1.08,0,1.85-.29-.32-.46-.47-.59-.65a84.58,84.58,0,0,1-8.22-14,11,11,0,0,1-.68-3.15A74,74,0,0,1,306.88,317a32.65,32.65,0,0,1,4.66-8.66c.88-1.17.88-1.12,2.18-.46a19.35,19.35,0,0,0,7.22,1.68,26.6,26.6,0,0,0,11.95-1.67,3.15,3.15,0,0,1,.36-.09"/><path class="cls-13" d="M408.74,338.65c.25-2.09.48-4.18.74-6.27.47-3.92.9-7.86,1.47-11.78a26.39,26.39,0,0,1,1.13-4.34c1.72-5.37,3.88-10.61,4.83-16.28,3.93,1.77,7,.15,9.83-2.46,2.66-2.47,4.42-5.59,6.13-8.74a3.15,3.15,0,0,1,1.16-1.16c2.62-1.5,5.28-2.95,7.94-4.42.23,1.12.42,2.44.76,3.71,1.07,4,2.24,8,3.26,12a20.19,20.19,0,0,1,.59,4.45c.11,4.63.1,9.27.17,13.9a.86.86,0,0,1-.76,1,80,80,0,0,1-13.93,3c-.86.1-1.12-.13-1.11-1a3.25,3.25,0,0,1,.89-2.31c2.16-2.43,4.38-4.84,6.32-7.45a55.57,55.57,0,0,0,3.69-6.35c.13-.22,0-.61-.07-.92-.25.19-.62.33-.71.58-1.45,3.66-3.88,6.66-6.4,9.6a250,250,0,0,1-21.36,21.46l-4.3,3.92-.27-.12"/><path class="cls-13" d="M265.26,239.51a16.24,16.24,0,0,1,6,6.66A17.28,17.28,0,0,1,273,253.3a1.62,1.62,0,0,1-.44,1.15c-9.22,7.76-15.14,17.71-19,29-2.2,6.43-4,13-6.07,19.46-.37,1.22-.8,2.43-1.29,3.61a1,1,0,0,1-.8.53c-6.84-.82-13.57-2.1-19.82-5.19l-.92-.49.61-1a267.05,267.05,0,0,1,25.64-32.72c3.68-4.05,7-8.42,10.4-12.77a20.15,20.15,0,0,0,4-13.41c0-.57,0-1.14,0-2"/><path class="cls-15" d="M227.16,222.1a29.28,29.28,0,0,1,21.12,9.46,12.45,12.45,0,0,1,3.77,7.27,29.47,29.47,0,0,1,0,3.64,1.24,1.24,0,0,1-.3.67c-2,2.33-4.45,3.59-7.64,2.82a20.37,20.37,0,0,1-6-2.28c-4.35-2.65-9.24-3.75-14.15-4.87-3.88-.88-7.73-1.93-11.57-3a12.29,12.29,0,0,1-3.33-1.64,3,3,0,0,1-.95-4.43,11.75,11.75,0,0,1,4.47-4.1c3.82-2.26,7.94-3.46,14.54-3.52"/><path class="cls-15" d="M274,253.21c-.21-1.28-.34-2.58-.63-3.84a16.85,16.85,0,0,0-7.6-10.63,1.49,1.49,0,0,1-.69-.81,35.76,35.76,0,0,0-6.43-15.1c-1-1.47-2-3-2.9-4.51a17.23,17.23,0,0,1-1.43-3.12,3.3,3.3,0,0,1,1.84-4.46A13.78,13.78,0,0,1,273,215a40.9,40.9,0,0,1,5.55,10.44,45.07,45.07,0,0,1,3.22,10.5c.94,7.17-1.32,13-7.38,17.2a1.49,1.49,0,0,1-.25.13s-.06,0-.11,0"/><path class="cls-8" d="M363.17,257c7.83,0,14.18,1.43,20,4.92,1.81,1.09,3.7,2,5.44,3.23,1.52,1.05,3,2.19,3.33,4.3.19,1.32,1,2.73.7,3.89s-1.58,1.94-2.55,2.75c-2.36,2-4.7,4-7.22,5.67a23,23,0,0,1-4.55,1.92,1.84,1.84,0,0,1-.57.09c-1.77.16-2.46-.63-1.82-2.28.48-1.27,1.21-2.45,1.81-3.69.3-.63,1.09-1.34.41-1.95-.33-.29-1.32,0-1.92.2a31.57,31.57,0,0,1-9.22,2.47,14.84,14.84,0,0,1-4.26-.29,4.12,4.12,0,0,1-3.21-5.09,11.59,11.59,0,0,1,3.89-6.44c.42-.4.88-.75,1.28-1.16.7-.73.59-1.28-.37-1.67-.65-.26-1.33-.44-2-.66a16.94,16.94,0,0,1-5.79-3.12,8.51,8.51,0,0,1-1-1.33A5.62,5.62,0,0,1,357,258c2.41-.44,4.84-.79,6.17-1"/><path class="cls-12" d="M197.23,345.51c8.26-14.87,17.25-29.29,26.87-43.4A41.83,41.83,0,0,0,234.51,306c3.61.8,7.25,1.42,11,2.15a3,3,0,0,1-.55.62c-6.92,4.43-12.81,10.14-19.12,15.34-7.07,5.83-14.16,11.64-21.34,17.33a78.75,78.75,0,0,1-6.91,4.43l-.35-.35"/><path class="cls-13" d="M280.38,297.93l-14.71,2.32c-.28-1.4-.6-2.91-.88-4.43a150.62,150.62,0,0,0-5.61-21.95,1.45,1.45,0,0,1,0-1.08c1.77-2.92,3.58-5.8,5.42-8.74.2.16.28.2.32.27,3.77,6.08,7.71,12.05,10.81,18.51a50.22,50.22,0,0,1,4.55,13.86c.07.44.1.88.14,1.24"/><path class="cls-8" d="M461.58,284.19c1.14-2.23,2.29-4.38,3.34-6.57a23.36,23.36,0,0,0,2.25-8.56,4.18,4.18,0,0,0-1.7-4.19c.72-.53,1.29-1,1.92-1.4a16.42,16.42,0,0,1,7.55-2.26,57.19,57.19,0,0,1,7.63.18c.76.06,1.47.73,2.2,1.12a9.3,9.3,0,0,1-1.21,2.06,25.53,25.53,0,0,1-7,4.55c-.72.35-1.47.63-2.15,1-.38.23-.87.65-.88,1s.48.75.84,1c.76.52,1.63.89,2.36,1.46a6.76,6.76,0,0,1,1.51,1.69,1.27,1.27,0,0,1-.59,2.06,20.51,20.51,0,0,1-3.46,1c-.68.15-1.4.12-2.1.21s-1,.57-.55,1.25c.09.13.2.25.3.37,1.48,1.85,1.16,3.28-1,4.2-3.1,1.29-6.17.79-9.18-.22"/><path class="cls-12" d="M446.92,347.71c-4.39-8.46-8.87-16.86-12.4-25.7l12.07-2.84c0,9.5-1,19,.33,28.54"/><path class="cls-13" d="M252.15,244a14.85,14.85,0,0,0,3.06,6c1.31,1.77,2.62,3.53,3.9,5.32a1,1,0,0,1,.14.89c-1.49,2-3,3.93-4.67,6a50.24,50.24,0,0,0-11.79-15.5,8.62,8.62,0,0,0,9.36-2.67"/><path class="cls-12" d="M431.71,288.71c-2,3.92-4.18,7.64-8,10a6.48,6.48,0,0,1-5.77.71A1.18,1.18,0,0,1,417,298c.17-3.15.25-6.31.31-9.46a21.23,21.23,0,0,0-.24-2.51c4.43,3.89,9.12,5.56,14.64,2.7"/><path class="cls-16" d="M463.94,264.22a15.34,15.34,0,0,0-8.59.22c.56-4.93.66-9.83,2.82-14.39,4.46,3.7,6.05,8.51,5.77,14.17"/><path class="cls-12" d="M463.89,277c-.17-1.84-.28-3.68-.52-5.51-.28-2.2-1.28-3.12-3.49-3.12-1.69,0-3.37.25-5.05.39l-.64.09c-.08-2.07.79-3.26,2.65-3.65a14.31,14.31,0,0,1,6.82.23c1.72.47,2.34,1.25,2.33,3a22.05,22.05,0,0,1-2.1,8.55"/><path class="cls-16" d="M427.89,227.1a16.48,16.48,0,0,0-10.57.43,16.65,16.65,0,0,1,1.48-8c.28-.67.78-.73,1.3-.28s1,.9,1.46,1.38c1.93,1.95,3.84,3.91,5.76,5.87.15.15.28.31.57.64"/><path class="cls-14" d="M338.42,357.71l-5,.85c0-3,.09-6,.13-9.09l4.85,8.24"/><path class="cls-12" d="M395.9,285.23l-6-7.7,3-2.95c1.05,3.55,2.07,7,3.09,10.48l-.15.17"/><path class="cls-16" d="M442.81,246.37c1.09-3,5.69-3.59,8.14-1-2.85-.48-5.42.27-8.14,1"/><path class="cls-17" d="M492.2,402.92c-1.88.6-3.5,1.07-4.69,2.41-.23.26-.77.29-1.17.35q-5.35.81-10.71,1.59c-4.42.66-8.86,1.24-13.27,2-1.77.3-3.2.31-4.37-1.39a31.56,31.56,0,0,0-3.25-3.5l4.49-.92c2.79-.56,5.58-1.11,8.35-1.7.29-.07.52-.41.77-.62-.3-.08-.63-.28-.9-.23-4.3.84-8.59,1.69-12.87,2.58a2.23,2.23,0,0,1-2.11-.44c-.82-.69-1.76-1.25-2.85-2,1.62-.37,3.05-.74,4.5-1,4.62-.81,9.25-1.57,13.87-2.38a3.61,3.61,0,0,0,1.05-.57c-.38-.11-.79-.37-1.14-.31-6.07,1.08-12.13,2.17-18.18,3.34a3.23,3.23,0,0,1-2.44-.27,11,11,0,0,0-1.93-.83c-.2-.07-.61,0-.68.13a.94.94,0,0,0,0,.77,10.12,10.12,0,0,0,.91,1.23l-3,1.06a1.7,1.7,0,0,0-1.39,1.14,2.25,2.25,0,0,0,.85.05c1.15-.37,2.29-.77,3.42-1.22a.89.89,0,0,1,1.28.38c.47.72,1,1.39,1.56,2.17a2.06,2.06,0,0,0-.53.15c-.24.19-.46.43-.68.64.29.09.65.32.88.23.74-.27,1.1,0,1.46.62.78,1.27,1.62,2.51,2.53,3.9-.6.07-1,.14-1.46.17-4.49.34-9,.72-13.47.95a5.53,5.53,0,0,1-2.78-.79c-8.14-4.61-15.62-10.2-23.24-15.58-2.24-1.58-4.54-3.08-7-4.76a43.85,43.85,0,0,1,3.72-2.94A50.53,50.53,0,0,1,423,381.25a116.22,116.22,0,0,1,29.38-3.1,78.31,78.31,0,0,1,9.11,1.09,3,3,0,0,1,1.39.58Q475,389.06,487,398.37c1.75,1.36,3.34,2.93,5.16,4.55m-55.85-6.77a17.31,17.31,0,0,1,1.67-.49q10.73-2.18,21.47-4.31c1.44-.28,2.9-.44,4.35-.71.26-.05.47-.38.71-.58-.3-.1-.59-.23-.89-.31-.11,0-.25.05-.37.07-2.05.33-4.11.61-6.14,1-6.38,1.26-12.75,2.57-19.12,3.88a10.71,10.71,0,0,0-1.81.61.62.62,0,0,0-.28.52c0,.14.3.24.41.31m-3.77-3.73.62-.15q10.88-2.64,21.74-5.29a3.8,3.8,0,0,0,1-.65,3.13,3.13,0,0,0-1.16-.22q-8.86,2-17.7,4.11c-1.49.35-2.95.83-4.41,1.28-.21.07-.36.37-.53.56l.44.36m19.07-9.9c-3.09.47-6.06.87-9,1.39-2.41.42-4.81,1-7.2,1.51-.34.08-.61.49-.91.75a3.71,3.71,0,0,0,1.09.11c1.59-.31,3.16-.76,4.76-1,3.71-.63,7.43-1.17,11.14-1.78.26-.05.47-.36.71-.55l-.58-.4"/><path class="cls-17" d="M530.87,384.62a34.76,34.76,0,0,0-9.48,10.5,19.69,19.69,0,0,0,.09-2.17,3.23,3.23,0,0,0-.41-1.06c-.34.17-.8.26-1,.54-2.21,2.75-4.17,5.66-4.87,9.23a1.07,1.07,0,0,1-.71.66c-3.13.48-6.26.92-9.39,1.34a.89.89,0,0,1-.68-.2A5.38,5.38,0,0,0,500,402c-2,.09-4,.4-6,.56a1.73,1.73,0,0,1-1.18-.29A247.69,247.69,0,0,0,468.69,383l-1.2-.85c2-1.7,3.79-3.42,5.75-5,4.17-3.29,9.08-4.87,14.21-5.86A95.82,95.82,0,0,1,510.94,370q3.06.17,6.11.43a1.87,1.87,0,0,1,1.09.48q6.29,6.66,12.53,13.36a2.75,2.75,0,0,1,.2.34m-24-2.26c-3.7.39-8.38.79-13,1.39-2.33.3-4.62.92-6.92,1.44-.26.06-.44.44-.66.67a2.37,2.37,0,0,0,.88.17c2.22-.43,4.42-1,6.65-1.36a101.71,101.71,0,0,1,22.05-1.16c.29,0,.59-.28.89-.44-.28-.15-.55-.43-.83-.44-2.68-.1-5.36-.17-9-.27m12.26,9.12c0-.13,0-.26,0-.38a3.55,3.55,0,0,0-1-.11c-4.9.83-9.81,1.66-14.7,2.56-2.73.51-5.43,1.15-8.13,1.77-.26.06-.44.42-.66.64a2.72,2.72,0,0,0,.9.18c5.16-1,10.32-2.05,15.48-3.05,2.44-.47,4.91-.84,7.36-1.27a3.55,3.55,0,0,0,.78-.34m-3.23-5,0-.19c-5.46.78-10.93,1.51-16.38,2.36-2.05.32-4.05.88-6.06,1.37-.23.06-.39.4-.58.61.26.08.55.28.78.22a134.69,134.69,0,0,1,19.44-3.19c1.27-.13,2.54-.23,3.81-.4.26,0,.5-.33.75-.51a4.94,4.94,0,0,0-.88-.33,3.07,3.07,0,0,0-.85.06m-5.44-9.18,0-.38a4.26,4.26,0,0,0-1.05-.11c-5.87.93-11.73,1.84-17.58,2.84-1.73.29-3.42.8-5.11,1.26-.23.07-.37.48-.55.72a2.3,2.3,0,0,0,.75.14c5.16-1,10.32-2.07,15.49-3,2.41-.45,4.86-.72,7.29-1.09a3.92,3.92,0,0,0,.79-.34"/><path class="cls-9" d="M401.56,393.37l2-2.37c3,2.05,6,4,8.89,6.09,6.89,4.93,13.77,9.87,21.09,14.16a7.09,7.09,0,0,0,4.17,1.11c4-.3,8-.63,12-.94.48,0,.95-.09,1.43-.12,1.43-.09,1.43-.09,1.84,1.43l-10.23,1.43c-.92.12-1.85.14-2.76.32a6.37,6.37,0,0,0-1.78.71,2.27,2.27,0,0,1-2.31.17,115.52,115.52,0,0,1-15.11-9.06l-18.64-12.48c-.18-.12-.35-.25-.62-.45"/><path class="cls-17" d="M533.41,387.54c2.07,2.34,4,4.55,6,6.8a.85.85,0,0,1,0,.75c-.43,1.13-.89,2.25-1.39,3.36a1,1,0,0,1-.56.53c-2.33.36-4.67.67-7.15,1a34.82,34.82,0,0,1,3.09-12.46"/><path class="cls-8" d="M487.89,407.86a2.59,2.59,0,0,1,1.68-3,33.53,33.53,0,0,1,5.87-1.59,39.93,39.93,0,0,1,6.29-.22,2.88,2.88,0,0,1,2.35,1.47c.44.68.28,1-.56,1.14L490,407.57l-2.08.29"/><path class="cls-9" d="M460.44,410.41,487,406.54c0,.45-.07.89-.11,1.45l-4.21.62c-6.83.95-13.67,1.87-20.49,2.86a1.43,1.43,0,0,1-1.74-1.06"/><path class="cls-9" d="M505.36,404.56l9.55-1.36c.2.58.14.89-.55,1-2.81.37-5.61.79-8.42,1.15-.24,0-.52-.29-.79-.45l.21-.32"/><path class="cls-9" d="M530.08,401.68c.2-.26.37-.73.61-.77,2.23-.37,4.47-.66,6.7-1l.21.27c-.27.29-.51.79-.82.84-2.14.36-4.29.62-6.43.91l-.27-.27"/><path class="cls-9" d="M544.64,400l-2.52.35c.17-.49.19-1,.42-1.13.69-.47,1.4-.19,2.1.78"/><path d="M439.3,255.68c2.83-.57,5.24-1.19,7.7-1.49a29.59,29.59,0,0,1,5.15.09,1.26,1.26,0,0,1,.85.61c.08.17-.21.6-.42.83-.64.67-1.28,1.35-2,2a8.79,8.79,0,0,1-11.21.43c-.1-.07-.21-.12-.39-.23a11.78,11.78,0,0,0,.5,6.24c.25.76.57,1.49.82,2.25.5,1.57.09,2.82-1.44,3.38a25.37,25.37,0,0,1-4.46.91c-.19,0-.43-.25-.64-.39.2-.16.38-.41.6-.45.94-.16,1.9-.21,2.84-.4a5.45,5.45,0,0,0,1.59-.63,1.45,1.45,0,0,0,.72-1.8c-.23-.76-.52-1.51-.78-2.26A13.09,13.09,0,0,1,440,252.87a6.73,6.73,0,0,1,1.18-1.37c.16-.15.55-.05.83-.06a3.45,3.45,0,0,1-.27.72c-.75,1.13-1.52,2.24-2.4,3.52m8.81,2.57a3.65,3.65,0,0,0-3.88-2.16c-1.57.25-2.55,1-2.77,2.24a8.16,8.16,0,0,0,6.65-.08m1.09-.58,2.6-2.36c0-.09-.08-.18-.11-.27l-5.34.12,2.85,2.51m-8.77.09c.34-.5.64-.95.95-1.39l-.12-.14-1.83.7,1,.83"/><path d="M423.37,254.07c2.66.35,5.41.7,8.14,1.1a3.06,3.06,0,0,1,.94.53l-.74.53a1,1,0,0,0-.25.28c-1.46,2.31-3.74,3.2-6.29,3.55a14,14,0,0,1-10.87-2.95,4.74,4.74,0,0,1-.76-1,4.21,4.21,0,0,1,1.1-.59c2.85-.49,5.72-.94,8.73-1.42m4.22,4.43a25.08,25.08,0,0,0-2.4-2.55,4.75,4.75,0,0,0-6.65,1.45c-.34.63-.2,1,.48,1.24a13,13,0,0,0,8.57-.14m3.15-2.39-.14-.33-4.57-.57,2.42,3.08,2.29-2.18m-15.72.18,0,.26,2.23,1.37,1.44-2.32-3.62.69"/><path d="M426.59,241.73a29.51,29.51,0,0,1,2.93.47,2.74,2.74,0,0,1,2,1.73,1.38,1.38,0,0,1-1.41,2c-1.21-.09-2.39-.39-3.6-.51a21.14,21.14,0,0,0-7.87.66c-.35.1-.84-.32-1.26-.5.14-.32.2-.75.45-.94a14.57,14.57,0,0,1,8.73-3m-7.33,3c2.31-.08,4.82-.23,7.32-.22a31.62,31.62,0,0,1,3.3.48c.26,0,.72-.07.8-.25a.9.9,0,0,0-.18-.85,3.47,3.47,0,0,0-1.59-.94,24.53,24.53,0,0,0-4.92-.05,10.3,10.3,0,0,0-4.73,1.83"/><path d="M429.88,278.72a13.72,13.72,0,0,1-7.59-2c-1.64-1-3.23-2.06-4.81-3.14-.18-.13-.18-.53-.27-.8.27,0,.6-.09.79,0,1.07.69,2.12,1.43,3.16,2.16,4.77,3.37,9.83,3.54,15.1,1.39,1.22-.5,2.39-1.15,3.6-1.69a2.11,2.11,0,0,1,.86,0c-.12.24-.18.6-.38.71a22.3,22.3,0,0,1-10.46,3.26"/><path d="M426.36,249.09a5.83,5.83,0,0,1,5.47,4,2.4,2.4,0,0,1-.13.93c-.23-.2-.6-.35-.69-.6a4.78,4.78,0,0,0-7.15-2.44c-.22.14-.61,0-.91,0,.16-.27.27-.68.5-.78.95-.42,1.94-.74,2.91-1.1"/><path d="M436.35,396.16c-.11-.08-.38-.18-.41-.32a.62.62,0,0,1,.28-.52,10.71,10.71,0,0,1,1.81-.61c6.37-1.31,12.74-2.62,19.12-3.88,2-.4,4.09-.68,6.14-1,.12,0,.26-.1.37-.07.3.08.59.21.89.31-.24.2-.45.53-.71.58-1.45.27-2.91.43-4.35.71q-10.74,2.13-21.47,4.31a15.06,15.06,0,0,0-1.67.5"/><path d="M432.58,392.42l-.44-.36c.17-.19.32-.49.53-.56,1.46-.45,2.92-.93,4.41-1.28q8.84-2.1,17.7-4.11a3.13,3.13,0,0,1,1.16.22,3.8,3.8,0,0,1-1,.65q-10.86,2.67-21.74,5.29l-.62.15"/><path d="M451.65,382.52l.58.4c-.24.19-.45.5-.71.55-3.71.61-7.43,1.15-11.14,1.78-1.6.27-3.17.72-4.76,1a3.71,3.71,0,0,1-1.09-.11c.3-.26.57-.67.91-.75,2.39-.55,4.79-1.09,7.2-1.51,2.95-.52,5.92-.92,9-1.39"/><path d="M506.85,382.36c3.67.1,6.35.17,9,.27.28,0,.55.29.83.44-.3.16-.6.46-.89.44a101.71,101.71,0,0,0-22.05,1.16c-2.23.34-4.43.93-6.65,1.36a2.37,2.37,0,0,1-.88-.17c.22-.23.4-.61.66-.67,2.3-.52,4.59-1.14,6.92-1.44,4.65-.6,9.33-1,13-1.39"/><path d="M519.11,391.48a3.55,3.55,0,0,1-.78.34c-2.45.43-4.92.8-7.36,1.27-5.16,1-10.32,2-15.48,3.05a2.72,2.72,0,0,1-.9-.18c.22-.22.4-.58.66-.64,2.7-.62,5.4-1.26,8.13-1.77,4.89-.9,9.8-1.73,14.7-2.56a3.55,3.55,0,0,1,1,.11l0,.38"/><path d="M515.88,386.45a3.07,3.07,0,0,1,.85-.06,4.94,4.94,0,0,1,.88.33c-.25.18-.49.47-.75.51-1.27.17-2.54.27-3.81.4a134.69,134.69,0,0,0-19.44,3.19c-.23.06-.52-.14-.78-.22.19-.21.35-.55.58-.61,2-.49,4-1.05,6.06-1.37,5.45-.85,10.92-1.58,16.38-2.36l0,.19"/><path d="M510.44,377.27a3.92,3.92,0,0,1-.79.34c-2.43.37-4.88.64-7.29,1.09-5.17,1-10.33,2-15.49,3a2.3,2.3,0,0,1-.75-.14c.18-.24.32-.65.55-.72,1.69-.46,3.38-1,5.11-1.26,5.85-1,11.71-1.91,17.58-2.84a4.26,4.26,0,0,1,1.05.11Z"/><path class="cls-18" d="M448.11,258.25a8.16,8.16,0,0,1-6.65.08c.22-1.21,1.2-2,2.77-2.24a3.65,3.65,0,0,1,3.88,2.16"/><path class="cls-13" d="M449.2,257.67l-2.85-2.51,5.34-.12c0,.09.07.18.11.27l-2.6,2.36"/><path class="cls-13" d="M440.43,257.76l-1-.83,1.83-.7.12.14c-.31.44-.61.89-.95,1.39"/><path class="cls-18" d="M427.59,258.5a13,13,0,0,1-8.57.14c-.68-.22-.82-.61-.48-1.24a4.75,4.75,0,0,1,6.65-1.45,25.08,25.08,0,0,1,2.4,2.55"/><path class="cls-13" d="M430.74,256.11l-2.29,2.18L426,255.21l4.57.57.14.33"/><path class="cls-13" d="M415,256.29l3.62-.69-1.44,2.32L415,256.55Z"/><path class="cls-16" d="M419.26,244.77a10.3,10.3,0,0,1,4.73-1.83,24.53,24.53,0,0,1,4.92.05,3.47,3.47,0,0,1,1.59.94.9.9,0,0,1,.18.85c-.08.18-.54.29-.8.25a31.62,31.62,0,0,0-3.3-.48c-2.5,0-5,.14-7.32.22"/></g></g></svg>