<?xml version="1.0" encoding="utf-8"?>
<!-- Generator: Adobe Illustrator 22.1.0, SVG Export Plug-In . SVG Version: 6.00 Build 0)  -->
<svg version="1.1" id="Слой2_xA0_Изображение_1_"
	 xmlns="http://www.w3.org/2000/svg" xmlns:xlink="http://www.w3.org/1999/xlink" x="0px" y="0px" viewBox="0 0 662.4 921.6"
	 style="enable-background:new 0 0 662.4 921.6;" xml:space="preserve">
<style type="text/css">
	.st0{fill:#E5E5E5;}
	.st1{fill:#A8A8A8;}
	.st2{fill:#F57325;}
	.st3{fill:#593829;}
	.st4{fill:#FDD0A7;}
	.st5{fill:#C4C4C4;}
	.st6{fill:#69C6EF;}
	.st7{fill:#5E5E5E;}
	.st8{fill:#FFFFFF;}
	.st9{fill:#386733;}
</style>
<g>
	<path d="M260.6,457c-3.4-0.2-6.6-0.3-9.8-0.5c-8.7-0.5-17.3-1.1-26-1.7c-5.6-0.4-11-1.5-16.1-3.9c-0.8-0.4-1.6-0.9-2.3-1.5
		c-0.4-0.3-0.7-0.7-0.8-1.1c-0.3-1.9-0.8-3.8-0.8-5.6c-0.1-8.8-0.3-17.7-0.2-26.5c0.1-10.4,1.2-20.7,3-30.9
		c3-17.9,7.3-35.5,11.7-53.1c2.5-9.8,4.3-19.7,5.7-29.8c0.8-6.1,1.8-12.3,2.4-18.4c0.6-6,0.7-12.1-0.8-18c-0.3-1.2-0.7-2.3-0.9-3.5
		c-0.4-2.1-0.1-3,1.9-3.8c3.3-1.3,6.7-2.5,10.1-3.8c0.3-0.1,0.6-0.2,1-0.3c-0.3-0.2-0.5-0.4-0.6-0.5c-1.9-1.4-2-2.7-0.2-4.3
		c1.3-1.1,2.7-2.2,4-3.2c8-6,15.9-12.2,24.1-17.9c6.3-4.4,13-8.1,19.5-12.2c1.3-0.8,2.5-1.6,3.7-2.5c0.4-0.3,0.6-1,0.6-1.4
		c-0.1-6.8-1.1-13.4-3.1-19.9c-0.6-1.9-0.7-4-2.2-5.4c-5.6,3.1-10.9,2.3-16.2-1c-0.5-0.3-1.2-0.5-1.8-0.6c-1.2-0.3-2.5-0.3-3.6-0.8
		c-3.4-1.7-6.6-3.6-9-6.6c-0.1-0.1-0.2-0.2-0.5-0.5c-0.3,1.6-0.6,3-0.9,4.4c-0.2,0.9-0.3,1.8-1.4,2c-1.1,0.2-1.6-0.6-2.1-1.3
		c-3-4.5-4.6-9.5-4.7-14.9c0-0.8,0-1.5,0-2.5c-0.5,0.3-0.8,0.5-1.1,0.8c-1.6,1.4-3.2,2.8-4.8,4.2c-0.7,0.6-1.5,1.2-2.5,0.8
		c-1-0.5-1-1.4-1-2.4c0.3-4.4,1.1-8.6,2.8-12.7c1.5-3.8,2.7-7.7,2.4-11.9c-0.3-3.9-0.9-7.7-1.5-11.5c-1.6-10.9-0.9-21.5,3.8-31.6
		c4.9-10.4,12.4-18.5,22.5-24.1c3.5-2,7.3-3.3,11.5-3.6c0.3,0,0.7-0.2,0.9-0.5c4.1-5.7,10.1-8.4,16.5-10.4
		c5.8-1.8,11.5-3.6,17.5-4.5c5-0.8,9.9-0.4,14.8,0.4c6.9,1.1,13.6,3,19.9,6c3.4,1.6,6.3,4,9,6.6c3.9,3.8,7.3,8.1,10.4,12.6
		c6.2,8.8,10.8,18.4,15.3,28c2.4,5.1,3.9,10.4,3.8,16.1c-0.2,6.4-3,11.6-7.1,16.2c-0.8,0.9-1.3,1-2.5,0.7c-2.3,3.8-4.7,7.6-7,11.4
		c-0.2,0.3-0.2,0.7-0.1,1c2.5,9.5,1,18.7-2.6,27.7c-1.4,3.6-3,7.1-4.5,10.7c-3,6.9-8.7,10.5-15.6,12.6c-1.9,0.6-4,0.9-6.1,1.3
		c0.1,1.7,0.3,3.4,0.4,5.2c0.1,1,0.9,1.1,1.5,1c2.4-0.2,4.6,0.5,6.8,1.2c7.3,2.3,14.7,4.5,21.7,7.4c5.7,2.3,11.1,5.5,16.5,8.4
		c3.7,2,7.4,4.2,10.9,6.4c2,1.2,2,2,0.5,3.7c-0.6,0.7-1.2,1.5-2,2.4c1.8,0,3.3,0,4.8,0c1.7,0,2,0.4,2.3,2c1.1,5.7,1.6,11.6,3.5,17.2
		c1.5,4.3,3.2,8.6,4.6,13c0.8,2.5,1.3,5,1.9,7.5c1,3.9,2,7.9,2.9,11.8c0.3,1.2,0.3,2.4,0.4,3.6c0.1,4.6,1.7,9,2.6,13.6
		c3.7-0.9,7.2-1.8,10.7-2.7c7.6-1.9,15.2-3.8,22.8-5.7c1.3-0.3,2.5-0.7,3.8-1.1c1.4-0.4,2.5,0.6,2.1,2c-3.5,12.7-6.3,25.7-11.1,38
		c-0.3,0.7-0.5,1.5-0.8,2.3c1,0.7,2,1.4,2.9,2.1c2.9,2.2,3.4,3.8,2.3,7.3c-0.5,1.7-1.2,3.3-1.5,5.1c-0.8,5.3-2.7,10.3-4.6,15.2
		c-1.7,4.6-2.1,9.4-3,14.1c-1.1,5.8-2.2,11.6-3.2,17.4c-1,5.5-5,6.8-9.6,6.1c-1.5-0.3-3.1-0.4-4.6-0.7c-0.7-0.2-1.4-0.6-2.3-0.9
		c-0.7,2.1-1.5,4.3-2.3,6.5c-2.1,5.6-4.3,11.1-6.5,16.6c-0.4,0.9-0.7,2.2-1.4,2.5c-1.3,0.6-2.9,0.8-4.4,1c-1,0.2-2.1,0.2-3.3,0.3
		c0.7,2.3,1.4,4.3,1.9,6.4c2.8,11.1,5.6,22.2,8.5,33.3c3.7,14.5,6.3,29.3,8.6,44.1c1.5,9.7,3,19.5,4.2,29.3
		c1.4,11.2,2.3,22.5,1.7,33.7c-0.4,6.6-1.4,13.2-2.2,19.8c-0.1,1-0.2,2-0.4,3c-0.2,1.4-0.9,2.4-2.2,2.9c-4.4,1.8-8.7,3.9-13.2,5.4
		c-6.1,2-12.3,3.7-18.5,5.2c-4.9,1.2-9.9,2-14.9,3c-0.8,0.1-1.2,0.5-1.6,1.2c-3.3,7.2-6.7,14.4-10.1,21.6c-0.7,1.5-1.3,3.1-2,4.6
		c-0.1,0.3-0.2,0.6-0.2,0.9c0.2,6.3-1.3,12.5-1.8,18.7c-0.5,5.6-1.2,11.1-1.5,16.7c-0.4,6.1-0.8,12.3-0.7,18.5
		c0.1,8.2,0.5,16.4,1.1,24.6c0.4,7.3,1,14.6,1.8,21.9c0.6,5.3,1.6,10.6,2.5,16c0.1,0.9,0.5,1.8,0.6,2.7c0,0.6-0.1,1.6-0.6,1.9
		c-1.5,1.2-3.1,2.5-4.8,3.3c-3.6,1.5-7.3,2.6-11,3.9c-0.4,0.1-0.8,0.2-1.3,0.4c1.9,2.7,4,5,6.5,7.1c5,4.3,11,6,17.5,6.2
		c3.4,0.1,6.8,0.1,10.2,0.4c5,0.5,8.6,3.6,11.5,7.5c8,11,0.4,25.3-12,27.1c-6.1,0.9-12.3,0.9-18.4,0.3c-4.8-0.5-9.5-1.2-14.3-1.7
		c-0.2,0-0.5,0-0.9,0c4.5,3.2,7.2,7.5,9.4,12.2c1.5,3.3,2.7,6.8,1.6,10.4c-1.7,5.6-5.7,8.9-11.1,10.4c-6.7,1.8-13.5,1.5-20.3-0.4
		c-7.2-2-14.4-4.1-21.7-6c-7.5-2-15.2-3-22.9-3.6c-3.3-0.3-6.6-0.9-9.9-1.5c-3.8-0.8-6.6-3.2-9-6.2c-5.5-6.7-7.1-14.6-6.3-23
		c0.4-4.6,1.4-9.1,2.1-13.7c0.1-0.3,0.1-0.7,0.2-1.1c-0.5,0-0.9,0-1.3,0c-3.6,0.1-7.3,0.3-10.9,0.2c-1.5,0-3-0.5-4.5-0.8
		c-0.8-0.2-1-0.9-1-1.7c0.1-5,0-10.1,0.2-15.1c0.4-9.2,0.9-18.4,1.6-27.7c0.5-7.3,1.2-14.6,2-21.8c1.4-13,4.6-25.6,7.6-38.3
		c2.1-9.1,4.2-18.2,5.1-27.5c1-10.7,1.7-21.4,1.5-32.1c0-0.9-0.3-1.6-1.1-2.1c-2-1.4-2.3-2.6-0.9-4.7c0.9-1.3,1.9-2.4,3-3.7
		c-3.1-0.2-6.2-0.4-9.2-0.7c-7.6-0.7-15.2-1.6-22.8-2.3c-4.5-0.4-8.9-0.8-13.4-1.2c-1.1-0.1-2.2-0.2-3.2-0.5c-1.6-0.4-2-1.2-1.4-2.7
		c1.9-5.2,3.7-10.4,5.9-15.4c9.4-21.6,16.8-43.9,23.2-66.6c4.8-17.1,9.9-34.2,13.7-51.6c2-9.3,3.4-18.7,5-28.1
		C260.1,460.7,260.3,458.9,260.6,457z M214.4,624.7c2.5,0.2,4.6,0.2,6.8,0.4c5.8,0.6,11.7,1.4,17.5,2c6,0.6,12.1,1.2,18.2,1.5
		c9.3,0.5,18.6,1.2,27.9,1.2c12.3,0,24.5-0.4,36.8-1.1c9.9-0.5,19.8-1.6,29.6-2.3c0.7-0.1,0.9-0.3,1-1c0.3-2.5,0.7-4.9,1-7.4
		c1.1-8.4,2.3-16.8,3.2-25.2c1.1-9.5,2.2-19.1,2.9-28.6c0.9-10.8,1.8-21.5,2-32.3c0.3-14.9,0-29.8-0.3-44.6
		c-0.2-12.6,0-25.1,0.8-37.7c0.1-1.6,0-3.2,0-4.9c-3.3,0.4-6.5,0.8-9.6,1.1c-4.6,0.5-9.2,1-13.8,1.6c-2.2,0.3-3.1-0.5-2.4-2.6
		c1.3-4.1,2.8-8.3,4.1-12.4c0.1-0.3,0.2-0.7,0.3-1.1c-1.3,0-2.5-0.1-3.6,0c-2.1,0.1-3.9-0.4-5.6-1.7c-0.2-0.2-0.7-0.3-1-0.3
		c-2,0.2-4,0.4-6,0.8c-2.6,0.5-5.2,1.2-7.8,1.8c0.2,1.9,0.3,3.7,0.5,5.5c0.8,7.3,1.3,14.7,1.2,22c0,2-0.5,2.4-2.5,2.4
		c-5.7,0-11.4,0-17.2,0c-0.6,0-1.3,0-1.9,0.2c-1.9,0.5-2.6,0-2.6-2c0-1.3,0-2.6,0-4c-10.4,0.1-20.6-0.3-30.8,0.8
		c-0.2,1.3-0.3,2.6-0.6,3.8c-1.6,9.6-3,19.3-5,28.8c-3.6,17.1-8.4,33.8-13.3,50.6c-4.7,16.3-9.4,32.7-15.6,48.6
		c-4,10.1-8.2,20.2-12.3,30.3C215.8,620.8,215.2,622.6,214.4,624.7z M299,314c-0.3-0.1-0.7-0.1-1.2-0.2c-2.6-0.5-5.1-0.9-7.7-1.4
		c-2.9-0.6-3.5-1.4-3.2-4.3c0.3-2.9,0.7-5.9,1.1-8.8c0.8-4.7,1.6-9.4,2.4-14.2c0.1-0.7,0.1-1.7-0.2-2.3c-1-1.8-2.3-3.6-3.5-5.3
		c-0.5-0.7-1-1.4-1.7-1.8c-4-2.1-8-4.3-12.2-6.1c-4.5-2-9.2-3.5-13.7-5.4c-5.3-2.3-10.6-4.9-15.9-7.3c-0.5-0.2-1.1-0.4-1.6-0.2
		c-3.8,1.2-7.7,2.4-11.5,3.8c-2.6,1-2.3,0.7-1.6,3.1c2.2,7.3,2,14.8,1.3,22.2c-0.5,5.6-1.5,11.1-2.3,16.6c-1.4,10.1-3.2,20.1-5.7,30
		c-4.4,17.5-8.7,35-11.7,52.8c-1.4,8-2.4,16-2.7,24c-0.3,7.7-0.4,15.4-0.2,23.1c0.1,4.6-0.6,9.3,0.6,14c0.3,1.2,0.9,1.8,1.8,2.2
		c4.9,2.3,10.2,3.3,15.5,3.7c5.9,0.4,11.9,0.8,17.8,1.1c5.9,0.3,11.8,0.8,17.7,0.9c4,0.1,8-0.5,12-0.6c6.2-0.1,12.3-0.1,18.5-0.1
		c0.9,0,1.7-0.1,2.7-0.1c0-1.2,0-2.3,0-3.4c0.3-6.8,0.4-13.6,0.9-20.4c0.5-6.6,1.3-13.1,1.9-19.7c0.2-1.6,0-3.2,0-4.7
		c-7.3-0.4-14.3-0.6-21.4-1.1c-7.3-0.5-14.5-1-21.7-1.7c-2.3-0.2-4.7-0.1-6.8-1.5c-1.5,3.5-3.7,6.5-4.2,10.3
		c-0.1,0.4-0.7,1.1-1.1,1.1c-0.4,0-1.2-0.5-1.3-0.9c-0.1-0.8-0.1-1.8,0.2-2.6c1.2-2.9,2.3-5.8,3.8-8.5c3.5-6.3,7.4-12.5,11-18.9
		c4.3-7.7,8.5-15.5,11.7-23.7c4.2-10.9,7.1-22.1,9.1-33.6c0.6-3.7,1.1-7.4-0.2-11c-1.5-4-3-8.1-4.6-12.1c-1.4-3.4-2.9-6.8-4.3-10.3
		c-0.3-0.8-0.3-1.6,0.7-2c0.9-0.3,1.4,0.3,1.7,1c0.4,0.8,0.7,1.7,1,2.6c2.3,5.5,4.6,11,6.8,16.5c1.4,3.5,2.6,7,2.1,10.8
		c-0.4,3-0.7,5.9-1.3,8.9c-3,15.3-7.5,30.1-14.9,44c-0.2,0.4-0.3,1-0.3,1.5c0.8,8.7,1.7,17.3,2.5,26c0.1,0.8,0.3,1.1,1,1.1
		c1.8,0.1,3.6,0.2,5.4,0.2c8.2,0.3,16.4,0.7,24.6,1c0.3,0,0.8,0,1-0.1c1.4-1.1,3-1.2,4.6-1.3c3.4-0.1,6.9,0,10.2,0.7
		c1.3,0.3,2.3,1.2,2.3,2.4c0.1,1.6,0,3.2,0,4.9c0.5-0.1,0.8-0.1,1.1-0.1c11.9-2.7,22-8.8,30.8-17.2c2.7-2.5,5.4-4.9,8.2-7.4
		c0.5-0.4,0.7-0.7,0.5-1.4c-1.3-4.1-3-8.1-5.2-11.8c-1.2-2-2.4-4-3.5-6c-1.3,1-2.5,2-3.8,2.8c-8.2,5.2-17.2,7.9-26.9,8.7
		c-4.7,0.4-9.3-0.3-13.5-2.6c-1.6-0.9-3.1-2.1-4.5-3.3c-0.5-0.5-0.6-1.3,0.1-1.8c0.6-0.6,1.2-0.4,1.8,0.1c3.5,3.4,7.7,4.9,12.5,5.1
		c6.2,0.3,12.1-1,18-3c4.7-1.6,9.1-3.7,13.1-6.7c2-1.5,2-1.6,1-3.8c-0.2-0.4-0.3-0.7-0.5-1.1c-4.5-9.2-10.4-17.5-16.2-25.9
		c-2.2-3.2-5.1-5.8-7.7-8.8c-2.8,5.7-6.1,8.7-11.3,10.2c-4.3,1.3-7.7,0-9.7-4c-1.5-2.8-1.8-5.9-1.4-9
		C297.7,319.2,298.4,316.7,299,314z M260.7,637.3c0.1,0.2,0.1,0.3,0.2,0.4c0.2,0.1,0.3,0.3,0.5,0.4c1.5,0.9,2.1,2.2,2.1,3.9
		c0,1.5,0,3,0,4.6c0.3,9.8-0.6,19.6-1.6,29.3c-0.9,8.8-3,17.4-4.9,26c-2.4,10.4-5.2,20.8-6.6,31.4c-1.1,8.1-2,16.3-2.7,24.4
		c-0.6,6.2-0.8,12.4-1.1,18.7c-0.4,8.3-0.7,16.6-1,24.9c-0.1,3.4,0,3.5,3.5,3.4c4.9-0.1,9.7-0.4,14.6-0.6c6.1-0.2,12.2-0.3,18.2-0.5
		c7.4-0.3,14.7-1.2,21.6-4.3c2.9-1.3,5.8-2.5,8.6-3.7c-0.8-2.4-2.8-4-2.4-6.5c-2.1-7.2-2.5-14.6-2.3-22.1
		c0.4-10.7,1.9-21.3,3.6-31.9c2.6-15.6,5.4-31.2,8.1-46.7c1.5-8.5,3.1-16.9,4.5-25.4c0.8-5,1.4-10,2.2-15c0.1-0.8,0.4-1.6,0.7-2.4
		c1.6-4,3.2-8,4.7-12c0.3-0.8,0.6-1.7,0.9-2.4c-10.8,0.5-21.6,1.1-32.3,1.3c-10.8,0.2-21.6,0-32.5,0c3.4,6.6,7.9,12.6,12.6,18.5
		c4.8,5.9,10.2,11.1,16.1,15.8c-9.5-3.5-18.5-8.1-27.1-13.4c2.5,7.9,4.9,15.7,7.5,23.9c-0.2-0.4-0.4-0.5-0.4-0.7
		c-2.2-5.1-4.5-10.2-6.7-15.4c-1.3-3.2-2.5-6.5-3.8-9.7c-0.3-0.8-0.4-1.6,0.5-2.1c0.9-0.5,1.4,0.1,1.9,0.6c0.8,0.7,1.5,1.5,2.3,2.1
		c5.1,3.1,10.2,6.2,15.4,9.2c1.8,1,3.7,1.9,5.5,2.8c-0.2-0.3-0.4-0.5-0.7-0.7c-5.9-4-11-8.9-15.4-14.5c-3.9-5.1-7.4-10.4-8.9-17.1
		C263.8,633.1,262.3,635.3,260.7,637.3z M354.8,626.1c3.7-0.4,7.3-0.8,10.8-1.2c10.6-1.3,21-3.1,31.3-5.7c5.6-1.4,11.2-2.8,16.5-5.2
		c3.1-1.4,6.3-2.7,9.5-4c0.9-0.4,1.3-0.8,1.4-1.8c0.2-1.8,0.5-3.6,0.7-5.3c0.6-5.4,1.5-10.8,1.7-16.2c0.7-14-0.8-27.9-2.7-41.8
		c-1-7.3-2.1-14.6-3.3-21.8c-1.5-8.7-2.8-17.5-4.7-26.2c-2.9-13.1-6-26.1-9.2-39.2c-1.4-5.5-3.1-11-4.6-16.5c-0.1-0.5-0.2-1.1-1-1
		c-2,0.3-4,0.5-6.1,0.7c-7.3,0.9-14.6,1.7-21.9,2.6c-2.8,0.3-5.6,0.6-8.5,1c-0.1,2.9-0.2,5.8-0.4,8.6c-0.7,11.8-0.8,23.7-0.6,35.5
		c0.4,17.4,1,34.9-0.1,52.3c-0.7,10.6-1.5,21.2-2.5,31.8c-0.9,9.2-2,18.4-3,27.6c-0.7,5.9-1.5,11.8-2.3,17.7
		C355.5,620.7,355.2,623.3,354.8,626.1z M377.3,140c2.4-3.1,4-6.6,4.4-10.5c0.5-5-0.5-9.9-2.6-14.4c-4.5-9.9-9-19.8-15.4-28.7
		c-2.8-3.9-5.4-8-8.9-11.4c-3.7-3.7-7.6-7.1-12.5-9c-5.4-2.2-10.9-3.8-16.7-4.7c-4.2-0.7-8.4-1.1-12.7-0.6
		c-7.3,0.8-14.3,3.2-21.3,5.5c-5.1,1.7-9.4,4.4-12.6,8.7c-0.9,1.2-1.8,1.8-3.3,1.4c-0.4-0.1-0.8,0-1.2,0.1
		c-3.5,0.9-7.1,1.9-10.1,3.9c-15.1,9.9-23.8,23.5-24.2,42c-0.1,5.2,0.7,10.4,1.6,15.5c0.7,4.4,1.2,8.9,0.1,13.3
		c-0.7,2.8-1.9,5.5-2.7,8.3c-0.7,2.6-1.3,5.2-1.9,7.8c0.1,0.1,0.3,0.1,0.4,0.2c0.3-0.2,0.6-0.5,0.9-0.7c2-1.5,4.1-3.1,6.1-4.6
		c0.4-0.3,1.4-0.4,1.7-0.1c0.4,0.3,0.7,1.2,0.6,1.8c-0.8,4.1-0.3,8.1,1,12c0.5,1.4,1.1,2.7,1.7,4.1c0.3-0.5,0.4-0.9,0.5-1.3
		c0.5-1.7,0.9-3.3,1.4-4.9c0.2-0.7,0.5-1.4,1.4-1.3c1,0,1.2,0.8,1.4,1.6c0,0.2,0.1,0.4,0.1,0.6c0.3,1.6,1.2,3,2.5,4
		c1.7,1.3,3.6,2.5,5.4,3.6c0.4,0.3,1,0.4,1.7,0.8c-0.3-0.4-0.3-0.6-0.4-0.7c-5.1-6.3-6.5-13.5-5.3-21.4c0.2-1.1,0.5-2.3,0.8-3.4
		c2-6.2,7.7-8.6,13.6-5.7c1.8,0.9,3.7,1.3,5.7,0.5c1.9-0.8,3.9-1.5,5.6-2.6c6.1-3.7,11.7-7.9,17-12.7c6.7-6.1,12.6-12.8,16.6-20.9
		c2.2-4.4,4.1-9,6.2-13.5c0.1-0.2,0.2-0.5,0.1-0.7c-1.1-2-2.2-3.9-3.4-6.1c-1.5,8.3-2.7,11.9-6,17.5c-4.7,8.2-10.9,15.1-18.1,21.2
		c-5.3,4.5-10.9,8.6-17.2,11.8c-2.7,1.4-5.6,2.1-8.9,2.5c0.9-0.5,1.6-0.7,2.3-1.1c3.3-2,6.5-4.1,9.7-6.1c10.9-6.9,20.4-15.2,27.7-26
		c4.3-6.3,6.9-13.4,9.4-20.5c0.1-0.2,0.1-0.5,0-0.7c-1.1-1.6-2.1-3.1-3.3-4.8c-0.3,2-0.5,3.8-0.9,5.5c-0.4,1.7-0.9,3.5-1.6,5.1
		c-5.4,13.8-14.6,24.7-26.4,33.5c-9.3,7-19.6,12.2-30.2,16.8c-1.9,0.8-4.1,1-6.1,1.5c0-0.1-0.1-0.2-0.1-0.3c0.8-0.6,1.6-1.3,2.5-1.7
		c3.5-1.9,7.1-3.7,10.6-5.5c8.9-4.5,17.6-9.2,25.3-15.7c12.4-10.3,21-23.1,25.9-38.5c0.2-0.7,0.4-1.3-0.2-2c-3.8-3.8-8.1-6.8-12.9-9
		c-2.5-1.1-5.2-1.5-7.6-2.2c0.2,0,0.7,0,1.1,0.1c2,0.3,3.9,0.8,5.9,1.1c6.8,1,12.3,4.2,16.5,9.5c2,2.5,3.7,5.3,5.5,8
		c0.9,1.4,1.5,3.2,2.7,4.4c1.9,2,4,4,6.2,5.6c7.6,5.8,15.3,11.4,23.7,16c3.1,1.7,6,3.8,8.3,6.6c0.9,1,0.9,1.6,0.1,2.6
		c-0.2,0.3-0.4,0.8-0.4,1.2c-0.2,5-0.5,10,0.7,14.9c0.5,2,1,4,1.5,5.9c0.1,0,0.3,0,0.4,0c2.1-3.7,4.3-7.3,6.2-11.1
		c1.3-2.7,1.9-5.6,1.6-8.6c-0.2-3.1-0.4-6.3-0.6-9.4c0-0.4-0.1-0.8-0.2-1.2c0-0.3-0.1-0.7-0.1-0.9
		C376.6,127.6,378.2,133.5,377.3,140z M454.5,307.8c-1.5,0.4-2.8,0.7-4.2,1c-10.6,2.7-21.2,5.5-31.7,8.2c-3.3,0.8-6.6,1.6-9.9,2.5
		c-7.5,2-15,4.1-22.5,6.2c-0.5,0.2-1.2,0.6-1.4,1.1c-1.7,4.1-3.5,8.2-5.1,12.3c-3,7.8-5.9,15.6-8.8,23.4c-2,5.4-4,10.8-6,16.1
		c-0.2,0.6-0.4,1.1-0.5,1.6c1.7,0.1,3.3,0.1,5,0.4c2.4,0.4,3.3,2,2.2,4.2c-0.7,1.3-1.5,2.6-2.5,3.7c-1.1,1.3-2.5,2.4-4,3.8
		c3.8-2,7.3-3.9,10.5-6.4c2.4-1.9,4.8-3.9,7.3-5.7c1.4-1.1,2.9-2.1,4.6-2.8c3-1.3,5.6,0.6,5.7,3.8c0.1,2.1-0.8,4-1.5,6
		c-0.8,2.1-1.7,4.3-2,6.5c-0.6,4.7-1,9.4-1.1,14.1c-0.1,3-1.3,5.1-4,6.4c-1.1,0.5-2.2,0.9-3.3,1.3c-0.3,0.1-0.7,0.2-0.9,0.5
		c-0.8,1.4-1.6,2.8-2.2,4.3c-1,2.7-3.1,3.8-5.8,4.2c-0.6,0.1-1.2,0.6-1.6,1c-1.7,2-3.4,3.9-6.1,4.7c-2.4,0.7-4.8,1.2-7.3,1.1
		c-3.4-0.1-6.8,0-10.2,0c-1.2,0-2.6-0.4-3.4,0.2c-0.8,0.6-1,2.1-1.4,3.2c-1.1,3.3-2.2,6.6-3.4,9.9c0.3,0,0.5,0.1,0.7,0
		c4.1-0.4,8.1-0.9,12.2-1.3c5.8-0.7,11.7-1.4,17.5-2c8-0.9,16-1.8,23.9-2.8c2.7-0.3,5.4-0.9,8.2-1.3c2.6-0.3,5.3-0.5,7.9-0.8
		c0.9-0.1,1.6-0.4,1.9-1.5c0.3-1.1,0.9-2.1,1.3-3.2c4.9-13.2,9.8-26.4,14.6-39.7c0.1-0.3,0-0.8-0.1-1.1c-1-1.5-1.2-3.1-0.6-4.8
		c0.7-2,2.1-3.4,4-4.4c-1.3-1.6-1.4-3.2-0.6-4.9c0.8-1.7,1.8-3.3,2.7-5.1c-1.3-1.1-1.6-2.6-1.1-4.2c0.6-1.8,1.2-3.6,2.1-5.3
		c1.3-2.5,2.3-2.8,5-2c0.1,0,0.1,0,0.2,0c0-4.3,0.8-8.5,2-12.6c0.5-1.8,1.3-2.3,3.1-2.2C446.2,340,452.8,317.5,454.5,307.8z
		 M373.9,626.6c-0.2-0.1-0.3-0.1-0.3-0.1c-12.6,1.3-25.2,2.7-37.8,4.1c-0.4,0-0.9,0.5-1.1,0.9c-0.8,1.8-1.5,3.6-2.1,5.5
		c-1.6,4.9-4.2,9.4-4.6,14.9c-0.5,6.5-2.1,12.9-3.2,19.4c-2.2,12.3-4.4,24.5-6.5,36.8c-2.7,15.8-5.8,31.6-7.5,47.6
		c-0.7,6.7-1.1,13.4-0.8,20.1c0.1,1.6,0.2,3.3,0.5,4.9c0.1,0.4,0.5,1.1,0.9,1.2c2.9,0.5,5.8,1,8.7,1.2c8.7,0.7,17.2-0.4,25.7-2.4
		c5.3-1.2,10.5-2.7,15.2-5.2c3-1.6,2.3-1.2,2.1-4c-0.1-0.6-0.2-1.3-0.3-1.9c-0.8-5-1.7-10.1-2.3-15.2c-0.8-7.5-1.4-15-1.8-22.5
		c-0.5-7.5-0.9-15-1-22.5c-0.1-9.8,0.6-19.7,1.6-29.4c0.6-5.9,1.5-11.8,2.1-17.7c0.3-3.1,0.4-6.2,0.6-9.2c-0.1,0-0.2-0.1-0.3-0.1
		c-4.1,3.6-8.2,7.1-12.5,10.8c0.9-0.3,1.5-0.6,2.2-0.8c-1.3,0.8-2.6,1.4-4,2c-0.3,0.1-0.8,0.1-1.2,0.1c0.1-0.4,0.1-1,0.3-1.3
		c1-1,2.1-2,3.2-2.9c3.9-2.8,7.8-5.6,11.7-8.4c0.5-0.4,1.1-0.9,1.3-1.5c2.2-4.8,4.4-9.6,6.6-14.3
		C370.8,633.2,372.3,629.9,373.9,626.6z M326.2,104c-0.4,0.9-0.8,1.9-1.2,2.9c-3.1,7.2-6.5,14.4-11.4,20.6
		c-7.6,9.6-16.9,17.2-27.1,23.8c-2.5,1.6-5.2,3.1-8.1,3.7c-1.5,0.3-3,0.4-4.5-0.2c-1.2-0.5-2.5-1.1-3.8-1.4c-4-1-7,0.6-8.2,4.6
		c-2.7,9.3-1.1,17.6,5.7,24.6c3.3,3.4,7.4,4.7,12.1,3.9c0.8-0.1,1.5-0.5,2.2-0.9c0.7-0.4,0.9-0.9,0.4-1.7c-0.5-0.7-0.9-1.5-1.2-2.3
		c-0.3-0.7-0.2-1.5,0.6-1.8c0.8-0.3,1.3,0.1,1.7,0.7c0.1,0.2,0.2,0.4,0.3,0.6c2.2,3.5,4.2,7.2,6.7,10.5c4.5,5.9,10.2,10.5,17.3,13.1
		c5.3,1.9,10.8,2.5,16.4,2.7c6.6,0.2,13.2,0.3,19.7-1.4c6.5-1.7,11.7-5.2,14.5-11.6c1.4-3.2,2.7-6.3,4-9.5c4-9.6,5.3-19.5,2-29.6
		c-2.8-8.3-3.4-16.7-2.5-25.3c0-0.4-0.3-0.9-0.6-1.2c-2.1-1.6-4.1-3.4-6.4-4.7C344.8,118.3,335.3,111.6,326.2,104z M261.1,819.1
		c0,0.1-0.1,0.4-0.1,0.6c-0.6,4.9-0.5,9.7,0.9,14.5c1.3,4.7,3.8,8.5,7.4,11.7c2.7,2.5,6.2,3,9.6,3.5c7.4,1,15,1.1,22.3,2.9
		c6.7,1.7,13.5,3.2,20.2,5.2c7.1,2.1,14.1,4.3,21.7,3.5c4.4-0.5,8.4-1.7,11.5-5.1c2.4-2.7,3.2-5.6,2.3-9.1
		c-1.3-4.6-3.6-8.7-6.8-12.3c-2.1-2.4-4.8-3.9-7.9-4.6c-2.3-0.5-4.6-1-6.9-1.3c-8.7-1.3-16.2-4.8-22.1-11.3
		c-1.2-1.4-2.7-1.9-4.2-1.7c-1.8,0.2-3.8,0.5-5.4,1.5c-3,1.8-5.9,3.8-8.7,6c-3.7,2.8-7.6,4.9-12.4,4.7c-5.8-0.2-11.3-1.8-16.3-4.5
		C264.3,822.1,262.8,820.5,261.1,819.1z M284.5,241.7c-0.1,0.9-0.3,1.4-0.2,1.9c0.1,2.3,0.4,4.6,0.5,6.9c0.2,3.5,1.4,6.8,2.9,9.8
		c1.8,3.6,4.1,6.9,6.2,10.3c2.4,3.8,5.1,7.5,7.2,11.4c2.3,4.3,4.3,8.7,6.3,13.2c1.5,3.5,2.8,7.1,4.2,10.7c0.3,0.7,0.5,1.1,1.3,1.3
		c2,0.6,3.7,1.9,4.8,3.7c1.9,3.1,2.7,6.5,2.7,10.1c0,0.5,0.1,1.1,0.4,1.4c2.4,2.5,5.1,4.8,7.2,7.5c2.7,3.5,5.1,7.3,7.6,10.9
		c3.5,5.2,7.1,10.4,9.9,16.1c1.8,3.7,3.8,7.4,5.7,11.1c1.5,2.9,3.1,5.8,4.5,8.7c0.9,1.8,1.5,3.7,2.1,5.4c1.1-0.4,2.2-0.7,3.3-1.1
		c0.3-0.1,0.6-0.6,0.8-0.9c0.6-1.5,1-3,1.6-4.5c0.3-0.7,0.2-1.3-0.1-2c-1.9-4.3-4-8.6-5.5-13c-3.5-10.8-4.9-22-5.1-33.3
		c0-0.6,0-1.2-0.3-1.7c-3.2-7.2-6.7-14.3-11-21c-6.2-9.5-13.1-18.3-20.5-26.8c-9.5-10.9-19.3-21.4-30.3-30.9
		C288.7,245.1,286.7,243.6,284.5,241.7z M305.8,801.2c0.3,0.7,0.7,1.3,1,2c3,5.9,6.5,11.5,11.8,15.7c2.5,2,5.2,3.8,8.5,4
		c1.5,0.1,2.9,0.4,4.4,0.7c11.6,2.3,23.2,4.8,35.1,5.3c5.2,0.3,10.3,0.3,15.4-0.6c10.1-1.7,16.6-13.6,9.9-22.8
		c-2.8-3.8-6.3-6.6-11.3-6.7c-2.5-0.1-5-0.1-7.6-0.2c-5.9-0.2-11.7-1.2-16.8-4.5c-2.8-1.9-5.4-4.1-7.5-6.7c-0.7-0.9-1.5-1.1-2.4-0.6
		c-1.8,1.1-3.6,2.1-5.1,3.5c-1.7,1.7-2.9,3.8-4.3,5.8c-2.4,3.4-5.7,5.1-9.9,5.1c-5,0.1-9.8-1-14.6-2.3c-0.5-0.1-1.1-0.2-1.6,0
		C309.3,799.5,307.7,800.3,305.8,801.2z M327.4,423.8c2.2,0.4,3.7,2,5.2,3.5c1.1,1.1,2.4,1.6,4,1.6c5.8,0,11.5,0,17.3,0
		c0.6,0,1.1-0.1,1.7-0.1c1.4-0.1,2.8-0.4,4.3-0.4c3,0,5.7-0.5,7.6-3.1c-1.3-0.4-2.6-0.8-3.8-1.3c0-0.1,0-0.3,0-0.4
		c2.5-0.4,5-0.8,7.5-1.3c1.2-0.3,2.7-0.5,3.5-1.3c1.1-1.2,1.7-2.8,2.5-4.3c-3.1-0.5-6.4,0.6-8.8-1.8c1.3-1.5,3-1.2,4.7-1
		c3.6,0.3,7.2-0.2,10.5-1.9c1.5-0.8,2.2-1.9,2.3-3.6c0.2-4.7,0.5-9.5,0.8-14.2c-1.6,1.2-3.1,2.6-4.8,3.8c-1.6,1.1-2.6,2.2-2.1,4.3
		c0.1,0.3,0,0.6,0,1c-0.2,2.8-1.4,4.2-4.2,4.6c-2,0.3-4.1,0.1-6.1,0.1c-0.5,0-1.3-0.4-1.4-0.8c-0.1-0.4,0.3-1.1,0.6-1.5
		c1-1.1,2.1-2,3.2-3c0.7-0.6,1.4-1.3,2.2-1.9c2.6-2,5.3-4,7.9-6c3.6-2.7,6.7-5.9,8-10.3c0.3-1,0.4-2.1,0.4-3.2c0-1-0.8-1.5-1.8-1.2
		c-0.5,0.1-1,0.4-1.4,0.7c-2.2,1.6-4.5,3.1-6.6,4.8c-5.9,5-12.4,8.7-19.4,11.7c-1.2,0.5-2.7,0.6-4.1,0.7c-0.4,0-1.2-0.4-1.3-0.7
		c-0.2-0.5,0.1-1.1,0.4-1.6c0.2-0.4,0.7-0.8,1.1-1.1c1.8-1.2,3.5-2.5,5.3-3.7c2.2-1.4,4.2-3,5.7-5.1c0.5-0.7,0.8-1.4,1.3-2.3
		c-4.7-0.7-9-0.2-12.6,2.6c-3,2.3-5.7,4.8-8.4,7.5c-7.6,7.5-16.4,13-26.5,16.5c-2.3,0.8-4.7,1.3-7.3,2c0.5,5.8,1,11.6,1.4,17.4
		c4.3-0.9,8.3-1.8,12.3-2.7C328,425.8,327.7,424.8,327.4,423.8z M415.9,314.9c-0.1-0.5-0.2-0.9-0.3-1.3c-0.9-4-1.9-7.9-2.6-11.9
		c-1.2-7.4-2.6-14.8-4.6-22c-0.9-3.4-2.2-6.7-3.5-10c-2.3-5.4-3.4-11.2-4.2-17c-0.1-1-0.2-2.1-0.4-3.1c-0.2-1.2-0.8-1.8-2.1-1.6
		c-0.8,0.1-1.7,0.2-2.5,0c-1.8-0.4-2.9,0.5-3.8,1.7c-2.7,3.5-5.5,7-8,10.6c-3.6,5.1-6.1,10.9-8.7,16.6c-0.5,1.1-0.4,1.9,0.4,2.8
		c2.6,2.8,5,5.7,7.7,8.4c2.2,2.3,2.3,4.8,0.9,7.6c-0.9,1.7-1.8,3.5-2.7,5.3c6.2,5.2,9.4,12.3,11.5,20c3.3-0.9,6.6-1.8,9.9-2.7
		c-0.3-0.8-0.5-1.5-0.8-2.2c-3.6-8.1-7.3-16.2-10.9-24.2c-0.1-0.2-0.2-0.3-0.3-0.5c-0.6-1.4-1.5-2.7-1.7-4.1
		c-0.4-3.2-0.4-6.5-0.5-9.7c-0.1-2.5,0-5,0-6.9c0.2,1.3,0.5,3.2,1,5.1c0.9,4,1.2,8.1,3,11.9c3.9,8.5,7.5,17.1,11.2,25.7
		c0.6,1.3,1.1,2.7,1.7,4.2C409,316.7,412.4,315.8,415.9,314.9z M348,220.1c0,0,0,0.1,0.1,0.2c4.5,4.4,7.9,9.6,9.8,15.6
		c1.7,5.5,3.6,11,4.9,16.7c1,4.1,1.2,8.4,1.8,12.5c1.1,6.8,2.2,13.6,3.3,20.3c0.5,3.1,0.7,6.2,1.1,9.4c0.1,0.8,0.3,1.5,0.5,2.4
		c3.6-0.5,6.8,0.6,9.9,2.4c0.9-1.7,1.6-3.3,2.5-4.8c1-1.8,0.9-3.3-0.6-4.9c-2.7-2.8-5.2-5.7-7.8-8.5c-1.3-1.5-1.6-3.1-0.9-5
		c4.4-11,10.7-20.8,18.4-29.7c1.5-1.7,2.8-3.4,4.3-5.3C380.3,232.3,365.2,223.8,348,220.1z M291,225.4c0.4,0.2,0.6,0.3,0.9,0.4
		c6.5,2.4,13.2,4.1,20,5.4c5.6,1,11.2,1.8,16.9,1.6c0.4,0,0.9-0.1,1.2-0.4c2.5-2,5-3.9,7.5-6c0.3-0.2,0.4-0.8,0.3-1.1
		c-0.3-3.3-0.7-6.6-1-9.9c-0.2-1.9-0.4-3.7-0.5-5.6c-0.3,0-0.5,0-0.7,0c-5.6,0.4-11.1,0.2-16.7-0.2c-9.3-0.8-17.7-3.8-24.6-10.3
		c-1.4-1.3-2.7-2.7-4-4.1C292.4,205.3,293.1,215.2,291,225.4z M296.7,459.3c6,0,12,0,17.9,0c0.8,0,1-0.3,1-1.1
		c-0.2-4.5-0.1-9-0.5-13.5c-0.7-7.8-1.7-15.5-2.4-23.2c-0.4-4.8-1-9.6-0.4-14.4c0.1-0.7,0.1-1.5,0-2.3c-0.1-1.3-1.1-1.8-2.3-1.2
		c-0.3,0.1-0.7,0.2-1.1,0.2c-2.8,0-5.6-0.1-8.4-0.1c-0.8,0-1.2,0.4-1.1,1.3c0.1,1.8,0.1,3.6,0,5.4c-0.7,7.9-1.7,15.7-2.2,23.6
		c-0.4,6.1-0.4,12.3-0.6,18.4c0,0.6,0.1,1.2,0.1,1.8C296.7,455.9,296.7,457.6,296.7,459.3z M328.8,238.5c-0.1,0-0.3,0-0.4-0.1
		c-1.6,4.5-3.2,9.1-4.8,13.6c-0.6,1.9-1.2,2.3-3.2,1.7c-1.9-0.6-3.8-1.3-5.7-1.7c-4.3-0.9-8.6-1.6-12.9-2.4c-1.9-0.4-3.8-1-6-1.6
		c9.3,8.2,17.4,17.1,25.4,26.1c8,9,15.3,18.5,22.1,28.5C341.8,280.4,335,259.5,328.8,238.5z M280.5,222.5
		c-14.7,8.3-27.4,19.4-41.3,29.4c1.5,0.8,2.7,1.4,4,2c6.3,2.9,12.5,5.8,18.8,8.6c5.6,2.5,11.2,4.8,16.9,7.1c1,0.4,2,1,3.1,1.5
		C272.2,255.1,272,239,280.5,222.5z M302.5,802.3c-5.6,2.5-11.6,3.3-17.7,3.6c-6.2,0.4-12.4,0.4-18.6,0.6c-0.7,0-1.5,0-2.1,0.2
		c-0.4,0.1-0.8,0.5-0.9,0.8c-0.5,2.2-0.9,4.4-1.3,6.6c0,0.3-0.1,0.6,0,0.8c1.1,1.5,2,3.2,3.4,4.4c1.5,1.3,3.4,2.2,5.2,3
		c3.2,1.4,6.5,2.3,10,2.7c4.9,0.6,9.1-1,12.8-4.1c1.8-1.5,3.8-3,5.7-4.3c3-2.1,6.3-3.7,10.1-3.7c0-0.2,0-0.3,0-0.3
		c-0.1-0.2-0.2-0.4-0.4-0.6C306.6,808.8,305.6,805,302.5,802.3z M326.9,235.3c-6.3,0.2-12.4-1.1-18.5-2.2c-6.2-1.2-12.2-2.9-18-5
		c-0.5,0.4-1,0.6-1.5,0.9c-0.4,0.2-0.8,0.5-1,0.9c-1.6,2.6-2,5.5-2.7,8.4c-0.2,0.8,0,1.2,0.7,1.6c1.1,0.7,2.2,1.4,3.3,2.2
		c0.5,0.3,0.8,0.4,1.5,0.3c0.6-0.1,1.3,0.2,1.9,0.5c0.7,0.4,1.1,1.1,1.8,1.4c2.2,0.9,4.4,1.8,6.6,2.4c4.2,1,8.5,1.5,12.7,2.4
		c2.5,0.5,4.9,1.3,7.4,1.9C323,245.9,324.9,240.7,326.9,235.3z M350.8,246.8c0,0.6-0.1,0.9-0.1,1.2c-0.2,5.2-0.4,10.5-0.6,15.7
		c-0.4,6.7-1,13.5-1.2,20.2c-0.3,7.3-0.2,14.6-0.5,21.9c-0.1,3.6,0.3,6.9,2.3,10c0.7,1.1,1.2,2.4,1.8,3.5c0.1,0.3,0.3,0.6,0.6,1
		c0.3-1.5,0.5-2.9,0.8-4.2c0.9-4.2,2.1-8.4,4.8-11.9c0.9-1.2,1.3-2.4,1.3-3.7c0-1.4,0-2.8-0.2-4.1c-0.3-1.9-0.8-3.7-1.1-5.5
		c-0.7-4.3-1.3-8.7-1.9-13c-0.9-5.6-1.9-11.3-2.6-16.9c-0.6-4.5-1.5-9-2.9-13.3C351.2,247.5,351,247.3,350.8,246.8z M345.6,298.7
		c1-19.5,2-39,3-58.7c-1.7,1-3.3,1.9-4.8,2.8c-1,0.6-2,0.6-2.9,0c-2-1.2-4-2.4-6-3.7c-1.2-0.8-2.4-1.6-3.8-2.6
		C337,257.2,343.8,277.4,345.6,298.7z M375,313.4c-0.8,2-1.6,3.8-2.3,5.6c-1.8,4.3-3.8,8.5-5.4,12.8c-0.8,2-1.8,4-1.4,6.2
		c0.7,3.7,1.4,7.4,2.1,11c0.5,2.5,1.2,5.1,1.9,7.6c1.1-2.4,2-4.9,3-7.3c3.1-7.6,6.2-15.1,9.2-22.7c0.3-0.6,0.6-1.5,0.4-2
		C381,320.3,378.6,316.6,375,313.4z M299.7,323.4c0.1,2.7,0.5,4.6,1.4,6.3c1.4,2.8,3.4,3.7,6.3,2.8c6.1-1.8,12.2-6.8,9.7-16
		c-0.6-2.2-1.3-4.3-3.2-5.7c-3.7-2.7-9.2-1.4-11.4,2.7c-0.9,1.8-1.6,3.7-2.2,5.6C300,320.4,299.9,321.9,299.7,323.4z M346.1,784
		c0-0.1,0-0.3,0.1-0.4c-0.4-0.1-0.8-0.3-1.2-0.3c-3.1,0.5-6.2,1.1-9.3,1.6c-6.2,0.9-12.5,1-18.8,0.2c-1.8-0.2-3.7-0.5-5.6-0.7
		c0.5,3.7,1.7,7,4.1,9.8c0.8,0.9,0.6,1.4-0.2,2.1c-0.1,0.1-0.3,0.3-0.5,0.5c4.3,1,8.4,2,12.8,1.8c3.2-0.1,5.7-1.4,7.5-4
		c0.5-0.7,1-1.4,1.4-2.1C338.7,788.7,341.8,785.7,346.1,784z M364.8,371.1c1.1-3.1,2.2-5.9,3.1-8.7c0.2-0.7,0.3-1.5,0.1-2.2
		c-1.6-7.3-3.2-14.7-4.7-22c-0.3-1.3-0.4-2.6-0.6-4c-2.1,0.3-4,0.7-5.9,0.9c-0.9,0.1-1.2,0.4-1.1,1.4c0.7,6.6,1.7,13.1,3.4,19.6
		C360.4,361.2,362.4,366,364.8,371.1z M439.6,389.1c-2.8,2.7-5.9,3.2-9.3,3.1c-0.3,0-0.8,0.5-1,0.9c-1.9,5.2-3.8,10.3-5.6,15.5
		c-0.4,1.1,0.3,2.2,1.4,2.4c1.7,0.3,3.4,0.6,5.1,0.8c3.4,0.6,5.3-0.7,6-4c0.8-3.7,1.5-7.4,2.1-11
		C438.8,394.4,439.2,391.9,439.6,389.1z M292.8,287.2c-0.2,0.5-0.2,0.7-0.3,0.9c-1,6.7-2.1,13.5-3.1,20.2c-0.2,1,0.3,1.4,1.2,1.5
		c3,0.5,5.9,1,8.8,1.5c1.2,0.2,2.9-1.6,2.6-2.8c-0.5-1.6-1-3.2-1.6-4.7c-1.2-3-2.6-5.9-3.9-8.9C295.3,292.5,294.1,290,292.8,287.2z
		 M262.9,401c-0.8-7.9-1.5-15.6-2.2-23.3c-0.1,0-0.3,0-0.4,0c-3.2,7.4-8.7,13.6-10.8,21.7C253.8,399.9,258.2,400.4,262.9,401z
		 M332.4,234.3c2.3,1.5,4.8,2.9,7,4.6c2.2,1.7,4,1.5,6.1-0.1c2.4-1.8,2.5-1.6,1.1-4.3c-1.4-2.7-3.1-5.2-5.5-7.3c0,0.5,0,0.8,0,1
		c-0.9,0.3-1.8,0.4-2.5,0.9C336.5,230.8,334.5,232.5,332.4,234.3z M446.4,364.8c-0.8,0-1.4,0.1-1.9,0c-1.4-0.4-2.7-1-4.1-1.4
		c-1.3-0.4-2.6-0.6-4-0.8c-0.2,0-0.5,0.3-0.6,0.5c-0.8,1.8-1.6,3.6-2.2,5.4c-0.1,0.4,0.2,1.4,0.6,1.6c2.8,1.7,5.8,2.7,9.1,3.3
		C444.4,370.6,445.4,367.9,446.4,364.8z M442.9,348.2c-1,3.9-1.8,7.4-1.8,11c0,0.7,0.5,1.6,1.1,2.1c1.1,1,2.7,0.9,4.1,0.8
		c0.2,0,0.4-0.3,0.5-0.6c0.7-2.4,1.4-4.9,2.1-7.4c0.3-1,0-1.7-0.8-2.3C446.4,350.8,444.8,349.6,442.9,348.2z M434.5,373.4
		c-0.9,1.6-1.8,3-2.5,4.6c-0.7,1.4-0.5,2.1,0.8,2.9c1.6,1,3.4,1.8,5.2,2.4c0.6,0.2,1.8-0.2,2-0.6c1-2.1,1.7-4.4,2.5-6.5
		c-1.4-0.4-2.7-0.7-3.9-1.2C437.3,374.5,436,373.9,434.5,373.4z M372.9,312c-2.3-1.5-3.5-1.2-4.6,1.1c-0.1,0.2-0.2,0.4-0.3,0.7
		c-1.3,3.6-2.4,7.2-2.7,11c-0.2,1.6-0.2,3.2-0.3,4.8c0.1,0,0.2,0,0.4,0C367.8,323.7,370.3,317.8,372.9,312z M438.3,386.2
		c-2.2-0.8-4.3-1.7-6.4-2.5c-0.4,0.3-0.9,0.5-1.2,0.9c-0.8,0.9-1.6,1.8-2.1,2.8c-0.5,1,0.4,2.2,1.6,2.1c1.4,0,2.8-0.1,4.1-0.3
		C436.1,388.9,437.5,387.9,438.3,386.2z M376.9,401.5c-1.5,1.4-3.8,1.9-4.8,4.2c1-0.2,1.8-0.4,2.6-0.6
		C376.7,404.8,377.3,403.8,376.9,401.5z"/>
	<path class="st0" d="M214.4,624.7c0.8-2.1,1.4-3.9,2.1-5.7c4.1-10.1,8.3-20.2,12.3-30.3c6.2-15.9,10.8-32.2,15.6-48.6
		c4.9-16.8,9.7-33.5,13.3-50.6c2-9.5,3.4-19.2,5-28.8c0.2-1.3,0.4-2.5,0.6-3.8c10.2-1.1,20.4-0.7,30.8-0.8c0,1.4,0,2.7,0,4
		c0,2,0.7,2.5,2.6,2c0.6-0.2,1.3-0.2,1.9-0.2c5.7,0,11.4,0,17.2,0c2,0,2.5-0.5,2.5-2.4c0.1-7.4-0.3-14.7-1.2-22
		c-0.2-1.8-0.3-3.6-0.5-5.5c2.6-0.6,5.2-1.3,7.8-1.8c2-0.4,4-0.5,6-0.8c0.3,0,0.7,0.1,1,0.3c1.7,1.3,3.5,1.8,5.6,1.7
		c1.2-0.1,2.3,0,3.6,0c-0.1,0.5-0.2,0.8-0.3,1.1c-1.4,4.1-2.8,8.2-4.1,12.4c-0.7,2.1,0.2,2.9,2.4,2.6c4.6-0.6,9.2-1,13.8-1.6
		c3.2-0.4,6.3-0.7,9.6-1.1c0,1.6,0.1,3.3,0,4.9c-0.8,12.5-1,25.1-0.8,37.7c0.3,14.9,0.5,29.8,0.3,44.6c-0.2,10.8-1.2,21.6-2,32.3
		c-0.8,9.6-1.8,19.1-2.9,28.6c-1,8.4-2.1,16.8-3.2,25.2c-0.3,2.5-0.7,4.9-1,7.4c-0.1,0.7-0.3,0.9-1,1c-9.9,0.8-19.7,1.8-29.6,2.3
		c-12.3,0.6-24.5,1.1-36.8,1.1c-9.3,0-18.6-0.7-27.9-1.2c-6.1-0.4-12.1-0.9-18.2-1.5c-5.8-0.6-11.7-1.4-17.5-2
		C219.1,624.9,216.9,624.9,214.4,624.7z M263.7,492.3c0.1,0,0.1,0,0.2,0c0,7,0,13.9,0,20.9c0,5.2,1.9,9.4,7.1,11.3
		c3,1.2,6.1,2.2,9.2,2.8c8.5,1.7,17.1,2,25.8,1.8c2.3-0.1,4.7-0.8,6.9-1.7c2.7-1.2,3.8-4,4.7-6.7c2.9-7.9,3.9-16.1,4.1-24.3
		c0.2-7,0.1-14.1,0.1-21.1c0-1.5,0-3,0-4.4c0-1.4-0.6-1.8-1.9-2.1c-4-0.8-7.9-0.8-11.9-0.7c-1.5,0-2.7-0.1-3.2-1.9
		c-0.3-1.2-1.8-1.8-2.9-1.6c-1.5,0.3-3.1,1.4-3,2.3c0.1,1.4-0.7,1.4-1.6,1.4c-5.2,0.2-10.5,0.3-15.7,0.5c-1.5,0-3,0.1-4.4,0.2
		c-3.7,0.5-7.5,0.6-11.2,0.3c-1.6-0.1-2.1,0.3-2.1,2C263.7,478.2,263.7,485.2,263.7,492.3z"/>
	<path class="st0" d="M299,314c-0.6,2.7-1.3,5.3-1.6,7.9c-0.4,3.1,0,6.1,1.4,9c2.1,4,5.4,5.4,9.7,4c5.1-1.6,8.5-4.6,11.3-10.2
		c2.6,3,5.6,5.6,7.7,8.8c5.7,8.4,11.7,16.7,16.2,25.9c0.2,0.4,0.4,0.7,0.5,1.1c1,2.3,1.1,2.3-1,3.8c-3.9,3-8.4,5.1-13.1,6.7
		c-5.8,2-11.8,3.3-18,3c-4.7-0.2-9-1.7-12.5-5.1c-0.6-0.6-1.2-0.7-1.8-0.1c-0.6,0.6-0.6,1.4-0.1,1.8c1.4,1.2,2.9,2.4,4.5,3.3
		c4.2,2.3,8.7,3,13.5,2.6c9.6-0.8,18.7-3.5,26.9-8.7c1.3-0.8,2.4-1.8,3.8-2.8c1.2,2,2.3,4,3.5,6c2.2,3.7,3.9,7.7,5.2,11.8
		c0.2,0.7,0,1-0.5,1.4c-2.8,2.4-5.5,4.8-8.2,7.4c-8.8,8.4-18.8,14.5-30.8,17.2c-0.3,0.1-0.6,0.1-1.1,0.1c0-1.7,0-3.3,0-4.9
		c0-1.3-1-2.2-2.3-2.4c-3.4-0.7-6.8-0.9-10.2-0.7c-1.6,0.1-3.3,0.2-4.6,1.3c-0.2,0.2-0.7,0.2-1,0.1c-8.2-0.3-16.4-0.7-24.6-1
		c-1.8-0.1-3.6-0.2-5.4-0.2c-0.7,0-1-0.3-1-1.1c-0.8-8.7-1.7-17.3-2.5-26c0-0.5,0-1.1,0.3-1.5c7.4-13.8,11.8-28.7,14.9-44
		c0.6-2.9,1-5.9,1.3-8.9c0.5-3.8-0.7-7.4-2.1-10.8c-2.2-5.5-4.6-11-6.8-16.5c-0.4-0.8-0.7-1.7-1-2.6c-0.3-0.8-0.8-1.4-1.7-1
		c-1,0.4-1,1.2-0.7,2c1.4,3.4,2.9,6.8,4.3,10.3c1.6,4,3.1,8,4.6,12.1c1.4,3.6,0.9,7.3,0.2,11c-2,11.5-4.9,22.7-9.1,33.6
		c-3.2,8.3-7.4,16-11.7,23.7c-3.5,6.4-7.4,12.5-11,18.9c-1.5,2.7-2.6,5.6-3.8,8.5c-0.3,0.8-0.3,1.7-0.2,2.6c0.1,0.4,0.8,0.9,1.3,0.9
		c0.4,0,1-0.7,1.1-1.1c0.5-3.8,2.7-6.9,4.2-10.3c2.2,1.5,4.6,1.3,6.8,1.5c7.2,0.7,14.5,1.2,21.7,1.7c7.1,0.4,14.1,0.7,21.4,1.1
		c0,1.5,0.1,3.1,0,4.7c-0.6,6.6-1.5,13.1-1.9,19.7c-0.5,6.8-0.6,13.6-0.9,20.4c0,1.1,0,2.2,0,3.4c-1,0.1-1.9,0.1-2.7,0.1
		c-6.2,0-12.3,0-18.5,0.1c-4,0.1-8,0.6-12,0.6c-5.9-0.1-11.8-0.5-17.7-0.9c-5.9-0.3-11.9-0.7-17.8-1.1c-5.4-0.4-10.6-1.4-15.5-3.7
		c-0.9-0.4-1.5-1-1.8-2.2c-1.2-4.6-0.5-9.3-0.6-14c-0.2-7.7-0.1-15.4,0.2-23.1c0.3-8.1,1.3-16.1,2.7-24c3.1-17.8,7.4-35.3,11.7-52.8
		c2.5-9.9,4.3-19.9,5.7-30c0.8-5.5,1.7-11.1,2.3-16.6c0.7-7.5,0.9-14.9-1.3-22.2c-0.7-2.3-1.1-2.1,1.6-3.1c3.8-1.4,7.6-2.6,11.5-3.8
		c0.5-0.1,1.1,0,1.6,0.2c5.3,2.4,10.5,5,15.9,7.3c4.5,2,9.2,3.5,13.7,5.4c4.2,1.8,8.2,4,12.2,6.1c0.7,0.4,1.2,1.1,1.7,1.8
		c1.2,1.7,2.4,3.5,3.5,5.3c0.3,0.6,0.3,1.5,0.2,2.3c-0.8,4.7-1.7,9.4-2.4,14.2c-0.5,2.9-0.8,5.9-1.1,8.8c-0.3,2.9,0.3,3.7,3.2,4.3
		c2.5,0.5,5.1,0.9,7.7,1.4C298.2,313.8,298.7,313.9,299,314z"/>
	<path class="st1" d="M260.7,637.3c1.6-2,3-4.2,5.5-5.6c1.5,6.7,5,12,8.9,17.1c4.3,5.7,9.4,10.5,15.4,14.5c0.3,0.2,0.5,0.4,0.7,0.7
		c-1.8-0.9-3.7-1.8-5.5-2.8c-5.2-3-10.3-6.1-15.4-9.2c-0.9-0.5-1.6-1.3-2.3-2.1c-0.6-0.5-1.1-1.2-1.9-0.6c-0.8,0.5-0.8,1.3-0.5,2.1
		c1.2,3.2,2.4,6.5,3.8,9.7c2.2,5.1,4.5,10.2,6.7,15.4c0.1,0.1,0.2,0.3,0.4,0.7c-2.6-8.1-5-16-7.5-23.9c8.6,5.3,17.6,9.8,27.1,13.4
		c-6-4.7-11.4-10-16.1-15.8c-4.8-5.9-9.3-11.9-12.6-18.5c10.9,0,21.7,0.2,32.5,0c10.7-0.2,21.5-0.8,32.3-1.3
		c-0.3,0.7-0.5,1.6-0.9,2.4c-1.6,4-3.2,8-4.7,12c-0.3,0.8-0.6,1.6-0.7,2.4c-0.7,5-1.3,10-2.2,15c-1.4,8.5-3,16.9-4.5,25.4
		c-2.7,15.6-5.5,31.2-8.1,46.7c-1.8,10.6-3.2,21.2-3.6,31.9c-0.3,7.5,0.2,14.9,2.3,22.1c-0.4,2.5,1.7,4.1,2.4,6.5
		c-2.8,1.2-5.7,2.5-8.6,3.7c-6.9,3.1-14.2,4-21.6,4.3c-6.1,0.3-12.1,0.3-18.2,0.5c-4.9,0.2-9.7,0.5-14.6,0.6c-3.5,0.1-3.6,0-3.5-3.4
		c0.3-8.3,0.6-16.6,1-24.9c0.3-6.2,0.5-12.5,1.1-18.7c0.7-8.2,1.7-16.3,2.7-24.4c1.4-10.6,4.3-21,6.6-31.4c1.9-8.6,4-17.2,4.9-26
		c1-9.7,1.9-19.5,1.6-29.3c0-1.5,0-3,0-4.6c0-1.7-0.5-3-2.1-3.9c-0.2-0.1-0.3-0.2-0.5-0.4C260.9,637.6,260.9,637.5,260.7,637.3z
		 M314.4,668.9c3-4.9,6-9.8,7.3-15.5c-0.1,0-0.2-0.1-0.3-0.1C319.1,658.5,316.8,663.7,314.4,668.9z"/>
	<path class="st0" d="M354.8,626.1c0.4-2.8,0.7-5.4,1.1-8c0.8-5.9,1.6-11.8,2.3-17.7c1.1-9.2,2.2-18.4,3-27.6
		c1-10.6,1.8-21.2,2.5-31.8c1.1-17.4,0.5-34.9,0.1-52.3c-0.3-11.8-0.1-23.7,0.6-35.5c0.2-2.8,0.3-5.7,0.4-8.6c2.8-0.3,5.6-0.6,8.5-1
		c7.3-0.9,14.6-1.7,21.9-2.6c2-0.2,4.1-0.4,6.1-0.7c0.9-0.1,0.9,0.5,1,1c1.6,5.5,3.3,10.9,4.6,16.5c3.2,13,6.4,26.1,9.2,39.2
		c1.9,8.7,3.3,17.4,4.7,26.2c1.2,7.2,2.3,14.5,3.3,21.8c1.9,13.9,3.4,27.8,2.7,41.8c-0.3,5.4-1.1,10.8-1.7,16.2
		c-0.2,1.8-0.5,3.6-0.7,5.3c-0.1,0.9-0.5,1.4-1.4,1.8c-3.2,1.3-6.4,2.6-9.5,4c-5.3,2.4-10.9,3.8-16.5,5.2
		c-10.3,2.6-20.8,4.4-31.3,5.7C362.1,625.4,358.5,625.7,354.8,626.1z"/>
	<path class="st2" d="M377.3,140c0.9-6.5-0.7-12.4-3.5-18.1c0,0.3,0,0.6,0.1,0.9c0,0.4,0.1,0.8,0.2,1.2c0.2,3.1,0.4,6.3,0.6,9.4
		c0.2,3-0.3,6-1.6,8.6c-1.9,3.8-4.1,7.4-6.2,11.1c-0.1,0-0.3,0-0.4,0c-0.5-2-1.1-3.9-1.5-5.9c-1.1-4.9-0.8-9.9-0.7-14.9
		c0-0.4,0.2-0.9,0.4-1.2c0.8-1,0.8-1.6-0.1-2.6c-2.3-2.8-5.2-4.8-8.3-6.6c-8.4-4.6-16.1-10.2-23.7-16c-2.2-1.7-4.3-3.6-6.2-5.6
		c-1.1-1.2-1.7-3-2.7-4.4c-1.8-2.7-3.5-5.5-5.5-8c-4.2-5.3-9.7-8.5-16.5-9.5c-2-0.3-3.9-0.7-5.9-1.1c-0.5-0.1-0.9-0.1-1.1-0.1
		c2.4,0.7,5.2,1.1,7.6,2.2c4.9,2.1,9.2,5.2,12.9,9c0.7,0.7,0.5,1.3,0.2,2c-4.9,15.3-13.5,28.1-25.9,38.5
		c-7.7,6.4-16.4,11.2-25.3,15.7c-3.6,1.8-7.1,3.6-10.6,5.5c-0.9,0.5-1.7,1.2-2.5,1.7c0,0.1,0.1,0.2,0.1,0.3c2.1-0.5,4.2-0.7,6.1-1.5
		c10.6-4.6,20.9-9.8,30.2-16.8c11.8-8.8,21-19.6,26.4-33.5c0.6-1.7,1.2-3.4,1.6-5.1c0.4-1.7,0.6-3.4,0.9-5.5
		c1.2,1.7,2.3,3.3,3.3,4.8c0.1,0.2,0.1,0.5,0,0.7c-2.5,7.1-5.1,14.2-9.4,20.5c-7.3,10.8-16.8,19.1-27.7,26c-3.2,2.1-6.5,4.1-9.7,6.1
		c-0.6,0.4-1.3,0.7-2.3,1.1c3.3-0.4,6.2-1.1,8.9-2.5c6.2-3.2,11.8-7.3,17.2-11.8c7.2-6.1,13.3-13,18.1-21.2c3.3-5.6,4.5-9.2,6-17.5
		c1.2,2.1,2.3,4.1,3.4,6.1c0.1,0.2,0,0.5-0.1,0.7c-2,4.5-4,9.1-6.2,13.5c-4,8.1-9.9,14.9-16.6,20.9c-5.3,4.8-10.9,9-17,12.7
		c-1.8,1.1-3.7,1.8-5.6,2.6c-1.9,0.8-3.8,0.4-5.7-0.5c-5.8-3-11.6-0.5-13.6,5.7c-0.3,1.1-0.7,2.2-0.8,3.4
		c-1.3,7.9,0.2,15.1,5.3,21.4c0.1,0.1,0.2,0.3,0.4,0.7c-0.8-0.3-1.3-0.5-1.7-0.8c-1.8-1.2-3.6-2.4-5.4-3.6c-1.3-1-2.1-2.4-2.5-4
		c0-0.2-0.1-0.4-0.1-0.6c-0.2-0.8-0.4-1.5-1.4-1.6c-0.9,0-1.2,0.6-1.4,1.3c-0.5,1.6-0.9,3.3-1.4,4.9c-0.1,0.4-0.2,0.8-0.5,1.3
		c-0.6-1.4-1.3-2.7-1.7-4.1c-1.3-3.9-1.8-7.9-1-12c0.1-0.6-0.2-1.4-0.6-1.8c-0.3-0.3-1.3-0.2-1.7,0.1c-2.1,1.5-4.1,3-6.1,4.6
		c-0.3,0.2-0.6,0.5-0.9,0.7c-0.1-0.1-0.3-0.1-0.4-0.2c0.6-2.6,1.1-5.3,1.9-7.8c0.8-2.8,1.9-5.5,2.7-8.3c1.2-4.4,0.7-8.9-0.1-13.3
		c-0.8-5.1-1.7-10.3-1.6-15.5c0.3-18.4,9-32.1,24.2-42c3.1-2,6.6-3,10.1-3.9c0.4-0.1,0.8-0.2,1.2-0.1c1.5,0.4,2.4-0.3,3.3-1.4
		c3.2-4.3,7.5-7,12.6-8.7c7-2.3,13.9-4.7,21.3-5.5c4.2-0.5,8.5-0.1,12.7,0.6c5.7,0.9,11.3,2.5,16.7,4.7c5,2,8.8,5.3,12.5,9
		c3.5,3.5,6.1,7.5,8.9,11.4c6.4,8.9,10.9,18.8,15.4,28.7c2,4.5,3.1,9.3,2.6,14.4C381.3,133.4,379.7,136.8,377.3,140z"/>
	<path class="st3" d="M454.5,307.8c-1.8,9.6-8.4,32.1-11,37.7c-1.9-0.1-2.6,0.3-3.1,2.2c-1.2,4.1-2,8.3-2,12.6c0,0-0.1,0.1-0.2,0
		c-2.6-0.8-3.7-0.5-5,2c-0.9,1.7-1.5,3.5-2.1,5.3c-0.5,1.6-0.2,3.2,1.1,4.2c-0.9,1.7-1.9,3.4-2.7,5.1c-0.8,1.7-0.8,3.3,0.6,4.9
		c-1.9,1-3.3,2.4-4,4.4c-0.6,1.7-0.4,3.3,0.6,4.8c0.2,0.3,0.3,0.8,0.1,1.1c-4.8,13.2-9.7,26.4-14.6,39.7c-0.4,1.1-1,2.1-1.3,3.2
		c-0.3,1.1-0.9,1.4-1.9,1.5c-2.6,0.3-5.3,0.5-7.9,0.8c-2.7,0.4-5.4,0.9-8.2,1.3c-8,1-16,1.9-23.9,2.8c-5.8,0.7-11.7,1.4-17.5,2
		c-4,0.5-8.1,0.9-12.2,1.3c-0.2,0-0.4,0-0.7,0c1.1-3.4,2.2-6.7,3.4-9.9c0.4-1.1,0.6-2.6,1.4-3.2c0.8-0.6,2.2-0.2,3.4-0.2
		c3.4,0,6.8-0.1,10.2,0c2.5,0.1,4.9-0.4,7.3-1.1c2.6-0.8,4.4-2.6,6.1-4.7c0.4-0.5,1-0.9,1.6-1c2.7-0.4,4.7-1.6,5.8-4.2
		c0.6-1.5,1.4-2.9,2.2-4.3c0.1-0.3,0.6-0.4,0.9-0.5c1.1-0.4,2.3-0.8,3.3-1.3c2.7-1.3,3.9-3.4,4-6.4c0.2-4.7,0.5-9.4,1.1-14.1
		c0.3-2.2,1.2-4.4,2-6.5c0.8-1.9,1.6-3.8,1.5-6c-0.1-3.3-2.7-5.1-5.7-3.8c-1.6,0.7-3.1,1.7-4.6,2.8c-2.5,1.8-4.8,3.8-7.3,5.7
		c-3.2,2.4-6.6,4.4-10.5,6.4c1.5-1.4,2.9-2.5,4-3.8c1-1.1,1.9-2.4,2.5-3.7c1.1-2.2,0.2-3.8-2.2-4.2c-1.6-0.3-3.3-0.3-5-0.4
		c0.2-0.5,0.3-1.1,0.5-1.6c2-5.4,4-10.8,6-16.1c2.9-7.8,5.8-15.6,8.8-23.4c1.6-4.1,3.3-8.2,5.1-12.3c0.2-0.5,0.9-0.9,1.4-1.1
		c7.5-2.1,15-4.2,22.5-6.2c3.3-0.9,6.6-1.6,9.9-2.5c10.6-2.7,21.2-5.4,31.7-8.2C451.7,308.5,453.1,308.2,454.5,307.8z"/>
	<path class="st1" d="M373.9,626.6c-1.5,3.3-3,6.6-4.6,9.9c-2.2,4.8-4.4,9.6-6.6,14.3c-0.3,0.6-0.8,1.1-1.3,1.5
		c-3.9,2.8-7.8,5.5-11.7,8.4c-1.2,0.8-2.2,1.9-3.2,2.9c-0.3,0.3-0.2,0.8-0.3,1.3c0.4,0,0.8,0,1.2-0.1c1.4-0.6,2.7-1.2,4-2
		c-0.7,0.2-1.3,0.5-2.2,0.8c4.3-3.7,8.4-7.2,12.5-10.8c0.1,0,0.2,0.1,0.3,0.1c-0.2,3.1-0.3,6.2-0.6,9.2c-0.6,5.9-1.5,11.8-2.1,17.7
		c-1,9.8-1.7,19.6-1.6,29.4c0.1,7.5,0.6,15,1,22.5c0.5,7.5,1.1,15,1.8,22.5c0.5,5.1,1.5,10.1,2.3,15.2c0.1,0.6,0.3,1.3,0.3,1.9
		c0.3,2.9,1,2.4-2.1,4c-4.8,2.6-10,4-15.2,5.2c-8.4,2-17,3.1-25.7,2.4c-2.9-0.2-5.8-0.7-8.7-1.2c-0.3-0.1-0.8-0.7-0.9-1.2
		c-0.2-1.6-0.4-3.3-0.5-4.9c-0.3-6.7,0.1-13.4,0.8-20.1c1.7-16,4.8-31.7,7.5-47.6c2.1-12.3,4.3-24.5,6.5-36.8
		c1.1-6.4,2.7-12.9,3.2-19.4c0.4-5.4,3-9.9,4.6-14.9c0.6-1.9,1.3-3.7,2.1-5.5c0.2-0.4,0.7-0.8,1.1-0.9c12.6-1.4,25.2-2.7,37.8-4.1
		C373.6,626.5,373.6,626.5,373.9,626.6z M361.2,659.8c-0.1-0.2-0.2-0.3-0.3-0.5c-2.9,2.5-6.1,4.7-9.1,7.1c0.1,0.1,0.1,0.2,0.2,0.3
		C355,664.3,358.1,662.1,361.2,659.8z"/>
	<path class="st4" d="M326.2,104c9,7.6,18.5,14.3,28.7,20.1c2.3,1.3,4.3,3.1,6.4,4.7c0.3,0.2,0.6,0.8,0.6,1.2
		c-0.9,8.6-0.2,17,2.5,25.3c3.4,10.1,2,19.9-2,29.6c-1.3,3.2-2.7,6.3-4,9.5c-2.8,6.4-8,9.9-14.5,11.6c-6.4,1.7-13.1,1.6-19.7,1.4
		c-5.6-0.2-11.1-0.8-16.4-2.7c-7.1-2.5-12.7-7.2-17.3-13.1c-2.5-3.3-4.5-7-6.7-10.5c-0.1-0.2-0.2-0.4-0.3-0.6
		c-0.4-0.6-0.9-1.1-1.7-0.7c-0.8,0.4-0.9,1.1-0.6,1.8c0.3,0.8,0.7,1.6,1.2,2.3c0.5,0.8,0.3,1.3-0.4,1.7c-0.7,0.4-1.4,0.7-2.2,0.9
		c-4.7,0.8-8.8-0.5-12.1-3.9c-6.8-7-8.5-15.3-5.7-24.6c1.2-3.9,4.2-5.6,8.2-4.6c1.3,0.3,2.5,0.9,3.8,1.4c1.5,0.6,3,0.5,4.5,0.2
		c3-0.6,5.6-2,8.1-3.7c10.2-6.6,19.5-14.2,27.1-23.8c4.9-6.2,8.3-13.3,11.4-20.6C325.5,105.9,325.9,104.9,326.2,104z M345.4,154.6
		c0.1-0.1,0.1-0.2,0.2-0.3c2,0.2,3.9,0.2,5.5-1.1c4.1-3.5,6-8,5.6-13.4c-0.2-2.2-1.1-4.1-3.4-4.9c-2.2-0.8-4.2,0-5.7,1.6
		c-1.6,1.7-3.2,3.4-4.3,5.4c-2.6,4.7-2.8,9.6,0.2,14.2c1.4,2.2,3.3,4.1,5,6.1c1.8,2.1,1.5,5.1-0.8,6.7c-1.5,1.1-3.2,1.8-5.1,1.8
		c-0.8,0-1.4,0.4-1.5,1.3c0,0.9,0.6,1.2,1.4,1.3c0.4,0,0.9,0.1,1.3-0.1c1.6-0.6,3.3-1.2,4.9-1.9c3.8-1.8,4.8-8.3,1.5-11.1
		c-0.5-0.4-0.9-0.9-1.3-1.4C347.7,157.4,346.6,156,345.4,154.6z M314.3,163.5c0,0.1,0.1,0.2,0.1,0.3c1.7-0.5,3.6-0.9,5.2-1.7
		c3.8-1.8,6.2-5,8.3-8.6c0.2-0.3,0.2-0.6,0.3-0.9c0.5-3-1.5-7.4-4.1-9c-1.3-0.8-2.7-1.2-4.2-1c-6.5,0.7-13,6.7-14.2,13.1
		c-0.3,1.8,0,3.6,1.4,4.9C309.1,162.7,311.5,163.5,314.3,163.5z M277.6,167.7c-1.6,0.9-3.3,1.5-4.8,2.6c-2.5,1.8-3.3,4.1-2.5,6.4
		c0.8,2.5,4.3,5.6,6.5,5.6c0.5,0,1.2-0.4,1.4-0.8c0.1-0.4-0.3-1-0.6-1.5c-0.2-0.2-0.6-0.2-0.8-0.4c-1.1-0.8-2.3-1.6-3.3-2.6
		c-1.2-1.4-1.1-2.9,0.3-4.1c0.9-0.8,2.1-1.5,3.2-2c0.8-0.4,1.8-0.5,2.6-0.7c1.1-0.3,1.3-1,0.6-1.9c-0.2-0.3-0.4-0.7-0.5-1.1
		c-0.2-0.7-0.2-1.5-0.6-2.1c-1.8-3.3-4.4-5.9-7.6-7.8c-1.1-0.7-2.3-0.6-3.4,0.1c-3.3,2-5.2,7.8-3.8,11.3c0.2,0.5,1,1.1,1.5,1.1
		c0.8,0,1-0.8,0.9-1.5c0-0.4-0.1-0.8-0.2-1.2c-0.4-2.8,0.5-5.1,2.4-7.1c0.5-0.5,1.1-0.6,1.7-0.2C273.7,162,276.2,164.5,277.6,167.7z
		 M330.1,190C330.1,190,330.1,189.9,330.1,190c0.6-0.1,1.1-0.1,1.7-0.2c7.6-0.9,14.4-3.6,20.7-7.9c1-0.7,1.6-2,2.1-3.2
		c0.2-0.4-0.2-1.3-0.6-1.5c-0.4-0.2-1.2,0.1-1.6,0.4c-0.3,0.2-0.4,0.8-0.7,1.2c-0.2,0.4-0.4,0.9-0.8,1.1c-5.8,3.8-12.1,6.5-19.1,7.3
		c-1.1,0.1-2.3-0.1-3.4-0.2c-0.6,0-1.2-0.2-1.8,0c-0.3,0.1-0.6,0.9-0.5,1.2c0.2,0.6,0.7,1.2,1.2,1.4
		C328.2,189.9,329.2,189.9,330.1,190z M318.6,134.1c-3.1,0-5.8,1.2-8.2,3.1c-3.1,2.4-5.4,5.4-7.5,8.7c-0.2,0.3-0.4,0.7-0.4,1
		c0,0.4,0.2,1,0.5,1.2c0.3,0.2,0.9,0.2,1.2,0c0.4-0.2,0.7-0.7,1-1.1c1.1-1.5,2.2-3.1,3.3-4.5c1.7-2.1,3.8-3.9,6.4-5
		c2.1-0.9,4.4-1.1,6.5-0.1c0.9,0.4,1.6,1.3,2.5,1.8c0.5,0.3,1.3,0.5,1.7,0.2c0.8-0.4,0.5-1.2,0.2-1.8c-0.2-0.4-0.5-0.7-0.8-1
		C323.3,134.9,321.1,134.2,318.6,134.1z M357,129.1c-0.7-1.3-1.2-2.7-2.1-3.8c-1.3-1.7-3.2-1.9-4.9-0.6c-3.8,3-6.5,6.9-8.4,11.3
		c-0.4,0.9-0.4,1.7,0.6,2.1c1.1,0.4,1.4-0.4,1.8-1.3c1.6-3.8,4-7,7-9.8c1.1-1,1.6-0.8,2.3,0.4c0.5,0.8,0.8,1.6,1.4,2.4
		c0.3,0.3,0.9,0.7,1.3,0.6C356.4,130.4,356.6,129.8,357,129.1z"/>
	<path class="st5" d="M261.1,819.1c1.7,1.4,3.2,3,5.1,4c5.1,2.8,10.5,4.4,16.3,4.5c4.8,0.1,8.7-1.9,12.4-4.7c2.8-2.1,5.6-4.2,8.7-6
		c1.6-0.9,3.5-1.3,5.4-1.5c1.5-0.2,3,0.3,4.2,1.7c5.9,6.6,13.5,10,22.1,11.3c2.3,0.4,4.6,0.8,6.9,1.3c3.1,0.7,5.8,2.2,7.9,4.6
		c3.1,3.6,5.5,7.6,6.8,12.3c0.9,3.5,0.1,6.4-2.3,9.1c-3.1,3.5-7.1,4.6-11.5,5.1c-7.6,0.8-14.6-1.3-21.7-3.5
		c-6.6-2-13.4-3.5-20.2-5.2c-7.3-1.8-14.9-1.9-22.3-2.9c-3.4-0.5-6.9-1-9.6-3.5c-3.5-3.2-6-7-7.4-11.7c-1.3-4.8-1.5-9.6-0.9-14.5
		C261,819.5,261.1,819.3,261.1,819.1z"/>
	<path class="st5" d="M284.5,241.7c2.2,1.8,4.2,3.4,6.1,5.1c10.9,9.5,20.8,20,30.3,30.9c7.4,8.5,14.3,17.4,20.5,26.8
		c4.3,6.6,7.8,13.8,11,21c0.2,0.5,0.2,1.2,0.3,1.7c0.2,11.3,1.6,22.5,5.1,33.3c1.4,4.5,3.6,8.7,5.5,13c0.3,0.7,0.4,1.3,0.1,2
		c-0.6,1.5-1,3-1.6,4.5c-0.1,0.4-0.4,0.8-0.8,0.9c-1.1,0.4-2.2,0.7-3.3,1.1c-0.7-1.7-1.3-3.6-2.1-5.4c-1.4-2.9-3-5.8-4.5-8.7
		c-1.9-3.7-3.9-7.3-5.7-11.1c-2.8-5.7-6.3-10.9-9.9-16.1c-2.5-3.7-4.8-7.5-7.6-10.9c-2.1-2.7-4.8-5-7.2-7.5
		c-0.3-0.3-0.4-0.9-0.4-1.4c0-3.6-0.8-7-2.7-10.1c-1.1-1.9-2.8-3.1-4.8-3.7c-0.7-0.2-1-0.6-1.3-1.3c-1.3-3.6-2.6-7.2-4.2-10.7
		c-2-4.5-3.9-8.9-6.3-13.2c-2.2-3.9-4.8-7.6-7.2-11.4c-2.1-3.4-4.5-6.7-6.2-10.3c-1.5-3-2.7-6.3-2.9-9.8c-0.1-2.3-0.3-4.6-0.5-6.9
		C284.2,243.1,284.4,242.6,284.5,241.7z"/>
	<path class="st5" d="M305.8,801.2c1.8-0.8,3.5-1.6,5.2-2.3c0.5-0.2,1.1-0.1,1.6,0c4.8,1.3,9.6,2.4,14.6,2.3c4.2,0,7.5-1.7,9.9-5.1
		c1.4-1.9,2.6-4.1,4.3-5.8c1.4-1.4,3.3-2.5,5.1-3.5c0.8-0.5,1.6-0.3,2.4,0.6c2.1,2.6,4.7,4.8,7.5,6.7c5.1,3.3,10.8,4.3,16.8,4.5
		c2.5,0.1,5,0.1,7.6,0.2c5,0.1,8.5,2.9,11.3,6.7c6.7,9.2,0.2,21.2-9.9,22.8c-5.1,0.9-10.3,0.9-15.4,0.6c-11.9-0.6-23.5-3.1-35.1-5.3
		c-1.4-0.3-2.9-0.6-4.4-0.7c-3.4-0.2-6-2-8.5-4c-5.3-4.2-8.8-9.8-11.8-15.7C306.5,802.5,306.2,801.9,305.8,801.2z"/>
	<path class="st4" d="M327.4,423.8c0.3,1,0.6,2,0.9,2.9c-4,0.9-8,1.7-12.3,2.7c-0.5-5.8-1-11.6-1.4-17.4c2.6-0.7,5-1.2,7.3-2
		c10.1-3.5,18.9-9,26.5-16.5c2.7-2.6,5.5-5.2,8.4-7.5c3.6-2.8,7.9-3.4,12.6-2.6c-0.5,0.9-0.8,1.6-1.3,2.3c-1.5,2.1-3.5,3.7-5.7,5.1
		c-1.8,1.2-3.6,2.4-5.3,3.7c-0.4,0.3-0.9,0.6-1.1,1.1c-0.3,0.5-0.5,1.2-0.4,1.6c0.1,0.4,0.9,0.8,1.3,0.7c1.4-0.1,2.8-0.2,4.1-0.7
		c7-3,13.6-6.7,19.4-11.7c2.1-1.8,4.3-3.3,6.6-4.8c0.4-0.3,0.9-0.5,1.4-0.7c1-0.3,1.7,0.2,1.8,1.2c0,1.1-0.1,2.2-0.4,3.2
		c-1.4,4.4-4.5,7.6-8,10.3c-2.6,2-5.3,4-7.9,6c-0.8,0.6-1.5,1.2-2.2,1.9c-1.1,1-2.2,2-3.2,3c-0.4,0.4-0.8,1.1-0.6,1.5
		c0.1,0.4,0.9,0.7,1.4,0.8c2,0.1,4.1,0.2,6.1-0.1c2.8-0.4,3.9-1.8,4.2-4.6c0-0.3,0.1-0.7,0-1c-0.5-2,0.5-3.2,2.1-4.3
		c1.7-1.2,3.2-2.5,4.8-3.8c-0.3,4.7-0.6,9.5-0.8,14.2c-0.1,1.7-0.9,2.8-2.3,3.6c-3.3,1.8-6.8,2.2-10.5,1.9c-1.7-0.1-3.4-0.4-4.7,1
		c2.4,2.4,5.7,1.3,8.8,1.8c-0.8,1.5-1.4,3.2-2.5,4.3c-0.8,0.8-2.3,1-3.5,1.3c-2.5,0.5-5,0.9-7.5,1.3c0,0.1,0,0.3,0,0.4
		c1.3,0.4,2.5,0.8,3.8,1.3c-1.9,2.6-4.7,3.1-7.6,3.1c-1.4,0-2.8,0.2-4.3,0.4c-0.6,0.1-1.1,0.1-1.7,0.1c-5.8,0-11.5,0-17.3,0
		c-1.6,0-2.9-0.5-4-1.6C331.1,425.8,329.6,424.3,327.4,423.8z"/>
	<path class="st0" d="M415.9,314.9c-3.6,0.9-7,1.9-10.4,2.8c-0.6-1.5-1.1-2.9-1.7-4.2c-3.7-8.6-7.3-17.2-11.2-25.7
		c-1.8-3.8-2.1-7.9-3-11.9c-0.4-1.9-0.7-3.8-1-5.1c0,1.9-0.1,4.4,0,6.9c0.1,3.2,0.1,6.5,0.5,9.7c0.2,1.4,1.1,2.7,1.7,4.1
		c0.1,0.2,0.2,0.3,0.3,0.5c3.6,8.1,7.3,16.1,10.9,24.2c0.3,0.6,0.5,1.3,0.8,2.2c-3.3,0.9-6.6,1.8-9.9,2.7c-2.2-7.7-5.3-14.7-11.5-20
		c0.9-1.8,1.8-3.5,2.7-5.3c1.4-2.7,1.3-5.2-0.9-7.6c-2.6-2.7-5.1-5.6-7.7-8.4c-0.8-0.9-0.9-1.7-0.4-2.8c2.6-5.7,5.1-11.5,8.7-16.6
		c2.6-3.6,5.3-7.1,8-10.6c0.9-1.2,2-2.1,3.8-1.7c0.8,0.2,1.7,0.1,2.5,0c1.3-0.2,1.9,0.4,2.1,1.6c0.1,1,0.2,2.1,0.4,3.1
		c0.8,5.8,2,11.6,4.2,17c1.4,3.3,2.6,6.6,3.5,10c2,7.2,3.4,14.6,4.6,22c0.6,4,1.7,7.9,2.6,11.9C415.7,314,415.8,314.4,415.9,314.9z"
		/>
	<path class="st5" d="M348,220.1c17.2,3.7,32.3,12.2,47.4,21.3c-1.5,1.8-2.8,3.6-4.3,5.3c-7.7,8.9-14,18.7-18.4,29.7
		c-0.7,1.9-0.5,3.5,0.9,5c2.6,2.8,5.1,5.7,7.8,8.5c1.5,1.6,1.6,3.1,0.6,4.9c-0.8,1.5-1.6,3.1-2.5,4.8c-3.1-1.8-6.3-2.9-9.9-2.4
		c-0.2-0.8-0.4-1.6-0.5-2.4c-0.4-3.1-0.6-6.3-1.1-9.4c-1-6.8-2.2-13.6-3.3-20.3c-0.7-4.2-0.9-8.4-1.8-12.5
		c-1.4-5.6-3.2-11.1-4.9-16.7c-1.9-6-5.3-11.2-9.8-15.6C348,220.2,348,220.1,348,220.1z"/>
	<path class="st4" d="M291,225.4c2.1-10.2,1.4-20.1-0.8-30.1c1.3,1.4,2.7,2.8,4,4.1c6.9,6.5,15.3,9.4,24.6,10.3
		c5.5,0.5,11.1,0.7,16.7,0.2c0.2,0,0.4,0,0.7,0c0.2,1.9,0.3,3.8,0.5,5.6c0.3,3.3,0.7,6.6,1,9.9c0,0.4-0.1,0.9-0.3,1.1
		c-2.5,2-5,4-7.5,6c-0.3,0.2-0.8,0.3-1.2,0.4c-5.7,0.2-11.3-0.6-16.9-1.6c-6.8-1.2-13.5-2.9-20-5.4
		C291.6,225.7,291.4,225.5,291,225.4z"/>
	<path class="st5" d="M296.7,459.3c0-1.8,0-3.4,0-5.1c0-0.6-0.1-1.2-0.1-1.8c0.2-6.2,0.1-12.3,0.6-18.4c0.6-7.9,1.5-15.7,2.2-23.6
		c0.2-1.8,0.1-3.6,0-5.4c0-0.9,0.3-1.3,1.1-1.3c2.8,0,5.6,0.1,8.4,0.1c0.4,0,0.8,0,1.1-0.2c1.2-0.6,2.2-0.1,2.3,1.2
		c0.1,0.7,0.1,1.5,0,2.3c-0.6,4.8-0.1,9.6,0.4,14.4c0.7,7.8,1.7,15.5,2.4,23.2c0.4,4.5,0.3,9,0.5,13.5c0,0.8-0.2,1.1-1,1.1
		C308.7,459.3,302.7,459.3,296.7,459.3z"/>
	<path class="st6" d="M328.8,238.5c6.2,21,13,41.9,14.5,64.1c-6.8-10-14.1-19.5-22.1-28.5c-8-9-16.1-17.9-25.4-26.1
		c2.2,0.6,4.1,1.3,6,1.6c4.3,0.9,8.6,1.5,12.9,2.4c1.9,0.4,3.8,1.1,5.7,1.7c1.9,0.6,2.5,0.2,3.2-1.7c1.5-4.6,3.2-9.1,4.8-13.6
		C328.5,238.4,328.7,238.5,328.8,238.5z"/>
	<path class="st5" d="M280.5,222.5c-8.5,16.5-8.3,32.7,1.5,48.6c-1-0.5-2-1-3.1-1.5c-5.6-2.4-11.3-4.7-16.9-7.1
		c-6.3-2.8-12.6-5.7-18.8-8.6c-1.3-0.6-2.5-1.2-4-2C253.1,241.9,265.7,230.8,280.5,222.5z"/>
	<path class="st4" d="M302.5,802.3c3.1,2.7,4.1,6.5,6.3,9.5c0.1,0.2,0.3,0.4,0.4,0.6c0,0.1,0,0.1,0,0.3c-3.8,0-7.1,1.6-10.1,3.7
		c-2,1.4-3.9,2.8-5.7,4.3c-3.7,3.1-7.9,4.7-12.8,4.1c-3.5-0.4-6.8-1.3-10-2.7c-1.8-0.8-3.7-1.8-5.2-3c-1.4-1.2-2.3-2.9-3.4-4.4
		c-0.1-0.2,0-0.5,0-0.8c0.4-2.2,0.8-4.4,1.3-6.6c0.1-0.3,0.6-0.7,0.9-0.8c0.7-0.2,1.4-0.1,2.1-0.2c6.2-0.2,12.4-0.2,18.6-0.6
		C290.9,805.6,296.9,804.8,302.5,802.3z"/>
	<path class="st6" d="M326.9,235.3c-2,5.4-4,10.5-5.9,15.7c-2.4-0.6-4.9-1.4-7.4-1.9c-4.2-0.9-8.5-1.5-12.7-2.4
		c-2.3-0.5-4.5-1.5-6.6-2.4c-0.7-0.3-1.2-1-1.8-1.4c-0.6-0.3-1.3-0.6-1.9-0.5c-0.6,0.1-1,0-1.5-0.3c-1.1-0.8-2.2-1.5-3.3-2.2
		c-0.7-0.4-0.9-0.8-0.7-1.6c0.7-2.9,1.2-5.8,2.7-8.4c0.2-0.4,0.6-0.6,1-0.9c0.5-0.3,1-0.5,1.5-0.9c5.8,2,11.8,3.8,18,5
		C314.5,234.3,320.6,235.5,326.9,235.3z"/>
	<path class="st5" d="M350.8,246.8c0.2,0.5,0.3,0.7,0.4,0.9c1.4,4.3,2.3,8.8,2.9,13.3c0.7,5.7,1.8,11.3,2.6,16.9
		c0.7,4.3,1.3,8.7,1.9,13c0.3,1.9,0.8,3.7,1.1,5.5c0.2,1.4,0.3,2.8,0.2,4.1c0,1.4-0.5,2.6-1.3,3.7c-2.6,3.5-3.9,7.7-4.8,11.9
		c-0.3,1.3-0.5,2.7-0.8,4.2c-0.3-0.4-0.4-0.7-0.6-1c-0.6-1.2-1-2.5-1.8-3.5c-2-3.1-2.5-6.4-2.3-10c0.3-7.3,0.2-14.6,0.5-21.9
		c0.3-6.7,0.9-13.5,1.2-20.2c0.3-5.2,0.4-10.5,0.6-15.7C350.8,247.8,350.8,247.4,350.8,246.8z"/>
	<path class="st6" d="M345.6,298.7c-1.8-21.3-8.7-41.4-14.6-62.1c1.5,1,2.6,1.8,3.8,2.6c2,1.2,4,2.5,6,3.7c1,0.6,2,0.6,2.9,0
		c1.5-0.9,3.1-1.8,4.8-2.8C347.6,259.6,346.6,279.2,345.6,298.7z"/>
	<path class="st0" d="M375,313.4c3.6,3.2,5.9,6.9,7.5,11.2c0.2,0.6-0.2,1.4-0.4,2c-3.1,7.6-6.2,15.1-9.2,22.7c-1,2.4-1.8,4.8-3,7.3
		c-0.6-2.5-1.3-5-1.9-7.6c-0.8-3.7-1.4-7.4-2.1-11c-0.4-2.3,0.6-4.3,1.4-6.2c1.7-4.3,3.6-8.5,5.4-12.8
		C373.5,317.2,374.2,315.4,375,313.4z"/>
	<path class="st7" d="M299.7,323.4c0.2-1.5,0.2-3,0.7-4.4c0.6-1.9,1.2-3.8,2.2-5.6c2.2-4.1,7.7-5.4,11.4-2.7
		c1.9,1.4,2.6,3.6,3.2,5.7c2.5,9.2-3.7,14.2-9.7,16c-3,0.9-4.9-0.1-6.3-2.8C300.2,328,299.9,326,299.7,323.4z"/>
	<path class="st4" d="M346.1,784c-4.3,1.6-7.4,4.6-9.8,8.5c-0.4,0.7-0.9,1.4-1.4,2.1c-1.8,2.6-4.3,3.9-7.5,4
		c-4.3,0.1-8.5-0.9-12.8-1.8c0.2-0.2,0.3-0.3,0.5-0.5c0.8-0.6,1-1.2,0.2-2.1c-2.5-2.8-3.6-6.1-4.1-9.8c1.9,0.3,3.7,0.5,5.6,0.7
		c6.3,0.8,12.5,0.7,18.8-0.2c3.1-0.4,6.2-1.1,9.3-1.6c0.4-0.1,0.8,0.2,1.2,0.3C346.1,783.8,346.1,783.9,346.1,784z"/>
	<path class="st7" d="M364.8,371.1c-2.4-5-4.4-9.9-5.8-14.9c-1.7-6.4-2.7-13-3.4-19.6c-0.1-1,0.2-1.3,1.1-1.4
		c1.9-0.3,3.9-0.6,5.9-0.9c0.2,1.4,0.3,2.7,0.6,4c1.6,7.3,3.2,14.7,4.7,22c0.1,0.7,0.1,1.5-0.1,2.2C367,365.2,366,368,364.8,371.1z"
		/>
	<path class="st5" d="M439.6,389.1c-0.5,2.8-0.9,5.3-1.3,7.7c-0.7,3.7-1.4,7.4-2.1,11c-0.7,3.4-2.6,4.6-6,4
		c-1.7-0.3-3.4-0.6-5.1-0.8c-1.1-0.2-1.8-1.3-1.4-2.4c1.9-5.2,3.7-10.4,5.6-15.5c0.1-0.4,0.6-0.9,1-0.9
		C433.7,392.3,436.9,391.8,439.6,389.1z"/>
	<path class="st5" d="M292.8,287.2c1.3,2.8,2.5,5.2,3.7,7.7c1.3,2.9,2.7,5.9,3.9,8.9c0.6,1.5,1.2,3.1,1.6,4.7c0.4,1.2-1.4,3-2.6,2.8
		c-2.9-0.5-5.9-1-8.8-1.5c-0.9-0.1-1.3-0.5-1.2-1.5c1.1-6.7,2.1-13.5,3.1-20.2C292.6,287.9,292.6,287.8,292.8,287.2z"/>
	<path class="st6" d="M332.4,234.3c2.1-1.8,4.1-3.5,6.2-5.1c0.6-0.5,1.6-0.6,2.5-0.9c0-0.2,0-0.5,0-1c2.4,2.2,4.1,4.7,5.5,7.3
		c1.4,2.6,1.3,2.5-1.1,4.3c-2.1,1.6-3.9,1.8-6.1,0.1C337.1,237.3,334.7,235.9,332.4,234.3z"/>
	<path class="st4" d="M446.4,364.8c-1,3-2,5.8-3,8.6c-3.3-0.6-6.4-1.7-9.1-3.3c-0.4-0.2-0.8-1.2-0.6-1.6c0.6-1.8,1.4-3.6,2.2-5.4
		c0.1-0.2,0.4-0.6,0.6-0.5c1.3,0.2,2.7,0.5,4,0.8c1.4,0.4,2.7,1,4.1,1.4C445,365,445.6,364.8,446.4,364.8z"/>
	<path class="st4" d="M442.9,348.2c1.9,1.4,3.5,2.5,5.2,3.7c0.8,0.6,1.1,1.4,0.8,2.3c-0.7,2.5-1.4,4.9-2.1,7.4
		c-0.1,0.2-0.3,0.6-0.5,0.6c-1.4,0.1-3,0.2-4.1-0.8c-0.6-0.5-1.1-1.4-1.1-2.1C441.1,355.6,441.9,352.1,442.9,348.2z"/>
	<path class="st4" d="M434.5,373.4c1.5,0.6,2.8,1.1,4,1.5c1.2,0.4,2.5,0.8,3.9,1.2c-0.8,2.2-1.5,4.4-2.5,6.5c-0.2,0.4-1.5,0.8-2,0.6
		c-1.8-0.6-3.5-1.4-5.2-2.4c-1.3-0.8-1.4-1.5-0.8-2.9C432.7,376.4,433.6,374.9,434.5,373.4z"/>
	<path class="st5" d="M372.9,312c-2.5,5.9-5,11.7-7.5,17.6c-0.1,0-0.2,0-0.4,0c0.1-1.6,0.1-3.2,0.3-4.8c0.4-3.8,1.4-7.4,2.7-11
		c0.1-0.2,0.2-0.4,0.3-0.7C369.4,310.8,370.5,310.4,372.9,312z"/>
	<path class="st4" d="M438.3,386.2c-0.8,1.7-2.2,2.7-4,3c-1.4,0.3-2.8,0.3-4.1,0.3c-1.2,0-2.1-1.1-1.6-2.1c0.5-1,1.3-1.9,2.1-2.8
		c0.4-0.4,0.9-0.7,1.2-0.9C434.1,384.6,436.2,385.4,438.3,386.2z"/>
	<path class="st3" d="M376.9,401.5c0.4,2.3-0.2,3.3-2.2,3.6c-0.8,0.1-1.6,0.3-2.6,0.6C373.1,403.5,375.3,403,376.9,401.5z"/>
	<path d="M263.7,492.3c0-7,0-14.1,0-21.1c0-1.7,0.5-2.1,2.1-2c3.8,0.3,7.5,0.2,11.2-0.3c1.5-0.2,2.9-0.2,4.4-0.2
		c5.2-0.2,10.5-0.3,15.7-0.5c0.9,0,1.7-0.1,1.6-1.4c-0.1-1,1.6-2.1,3-2.3c1.1-0.2,2.6,0.4,2.9,1.6c0.5,1.8,1.6,1.9,3.2,1.9
		c4-0.1,8-0.2,11.9,0.7c1.4,0.3,1.9,0.7,1.9,2.1c0,1.5,0,3,0,4.4c0,7,0.1,14.1-0.1,21.1c-0.2,8.3-1.2,16.5-4.1,24.3
		c-1,2.6-2,5.5-4.7,6.7c-2.1,1-4.6,1.7-6.9,1.7c-8.6,0.2-17.3-0.1-25.8-1.8c-3.1-0.6-6.2-1.7-9.2-2.8c-5.1-2-7-6.1-7.1-11.3
		c-0.1-7,0-13.9,0-20.9C263.8,492.3,263.8,492.3,263.7,492.3z M289.3,516.2c1.3,0,2.2,0,3.1,0c3.6,0.2,7.3,0.5,10.9,0.6
		c2.9,0.1,5.8,0,8.6-0.1c1.6-0.1,1.6-0.3,1.5-2c-0.2-3.8-0.3-7.6-0.3-11.4c-0.1-4.6-0.1-9.3-0.2-13.9c0-1-0.3-2.1-0.3-3.1
		c0.1-2.6,0.2-5.2,0.3-8c-7.4-1.1-14.7-2.5-22.2-2C290.2,489.7,289.7,503,289.3,516.2z M266.4,488.9c0-0.1,0,0,0,0.1
		c0.1,8.4,0.1,16.7,0.2,25.1c0.1,3.9,1.9,6.8,5.6,8.1c3,1.1,6,2.2,9.2,2.6c6.2,0.8,12.5,1.3,18.7,1.7c3.3,0.2,6.6,0.3,9.7-0.7
		c1-0.3,2-0.7,2.7-1.4c1.7-1.6,2.4-3.8,3-5.7c-2.1,0.3-4.1,0.8-6.2,0.7c-4.9,0-9.8-0.3-14.7-0.5c-1.6,0-3.3-0.1-4.9,0.1
		c-2.3,0.3-3-0.1-2.9-2.4c0.1-6.3,0.3-12.5,0.4-18.8c0.1-2.6,0-5.2,0-7.7C280.4,489.8,273.4,489.3,266.4,488.9z M298.4,470.9
		c-5.6,0.1-11,0.2-16.4,0.3c-1.1,0-2.2,0.1-3.4,0.1c-3.8,0.2-7.6,0.4-11.4,0.6c-0.2,0-0.5,0-0.8,0.1c0,0.5-0.1,1-0.1,1.4
		c0,3.4,0,6.9,0,10.3c0,2,0.2,2.4,2.3,2.5c6.1,0.4,12.1,0.8,18.2,1.1c0.3,0,0.5-0.1,1.1-0.2c0-2.5,0-4.9,0-7.3c0-0.9,0-1.8,0-2.7
		c0.1-1,0.1-2,0.4-2.9c0.5-1.3,1-1.4,2.3-0.8c0.2,0.1,0.5,0.2,0.8,0.2c2.3,0,4.6,0,7.2,0C298.5,472.7,298.4,471.8,298.4,470.9z
		 M315.3,485.5c0.8-0.1,1.5-0.2,2.1-0.2c1.4-0.1,1.8-0.5,1.8-1.9c0-3.5,0-6.9,0-10.4c0-1.7,0-1.9-1.7-2c-3.8-0.2-7.6-0.3-11.5-0.4
		c-0.7,0-0.8,0.4-0.8,1c0,1-0.1,2-0.1,3.1c0,0,0.3,0.1,0.5,0.1c2.5,0.4,5,0.7,7.5,1.1c2,0.3,2.3,0.6,2.3,2.7
		C315.3,480.8,315.3,483.2,315.3,485.5z M319.2,487.8c-0.7,0-1.2,0-1.6,0c-1.6,0.1-2.1,0.7-2.1,2.2c0,5,0,10,0,15
		c0.1,3.8,0.3,7.5,0.4,11.3c0.1,0,0.2,0,0.4,0C318.9,507,319.3,497.5,319.2,487.8z"/>
	<path d="M314.4,668.9c2.3-5.2,4.7-10.4,7-15.6c0.1,0,0.2,0.1,0.3,0.1C320.4,659.1,317.5,664,314.4,668.9z"/>
	<path d="M361.2,659.8c-3.1,2.3-6.1,4.6-9.2,6.9c-0.1-0.1-0.1-0.2-0.2-0.3c3.1-2.3,6.2-4.6,9.1-7.1
		C361,659.4,361.1,659.6,361.2,659.8z"/>
	<path d="M345.4,154.6c1.2,1.4,2.3,2.8,3.5,4.2c0.4,0.5,0.8,1,1.3,1.4c3.4,2.8,2.4,9.2-1.5,11.1c-1.6,0.7-3.2,1.3-4.9,1.9
		c-0.4,0.1-0.9,0.1-1.3,0.1c-0.8-0.1-1.4-0.4-1.4-1.3c0-0.9,0.6-1.3,1.5-1.3c1.9,0,3.6-0.8,5.1-1.8c2.3-1.6,2.6-4.6,0.8-6.7
		c-1.7-2-3.6-3.9-5-6.1c-3-4.6-2.8-9.5-0.2-14.2c1.1-2,2.7-3.8,4.3-5.4c1.5-1.6,3.4-2.4,5.7-1.6c2.3,0.8,3.2,2.8,3.4,4.9
		c0.5,5.4-1.5,9.9-5.6,13.4c-1.6,1.3-3.5,1.4-5.5,1.1C345.6,154.4,345.5,154.5,345.4,154.6z M349.3,151.3c0.6-0.5,1.2-1,1.7-1.6
		c1.8-2.2,2.9-4.7,3.1-7.5c0.1-1.2-0.2-2.5-0.5-3.7c-0.4-1.2-1.7-1.8-2.8-1.1c-1.1,0.7-2.1,1.6-3.1,2.5
		C351.1,143.5,350,147.3,349.3,151.3z M347.1,141c-2.5,2.7-3.3,5.8-2.9,9.3c0,0.4,0.8,0.9,1.4,1c0.3,0.1,0.9-0.3,1.1-0.6
		c0.4-1,0.8-2.1,1-3.2C347.9,145.4,348.2,143.3,347.1,141z"/>
	<path d="M314.3,163.5c-2.8,0-5.1-0.9-7.2-2.8c-1.5-1.4-1.8-3.1-1.4-4.9c1.2-6.4,7.7-12.4,14.2-13.1c1.5-0.2,2.9,0.2,4.2,1
		c2.5,1.6,4.5,6,4.1,9c-0.1,0.3-0.1,0.6-0.3,0.9c-2,3.5-4.5,6.7-8.3,8.6c-1.6,0.8-3.4,1.1-5.2,1.7
		C314.4,163.7,314.3,163.6,314.3,163.5z M315.9,160.7c0.2,0,0.3,0,0.4,0c3.7-1,6-3.5,8.2-6.4c1.3-1.8,1.4-3.4,0.5-5.4
		c-1.5-3.6-4.6-4.9-9-2C319.5,149.6,320.2,156.2,315.9,160.7z M314.1,147.8c-2.5,1.9-4.3,4.2-5.4,7.1c-1.1,2.8-0.4,4.2,2.3,5.5
		c0.8,0.4,1.5,0.3,2.2-0.3C316.8,156.7,317.3,151.9,314.1,147.8z"/>
	<path d="M277.6,167.7c-1.5-3.2-3.9-5.8-6.9-7.9c-0.6-0.5-1.2-0.3-1.7,0.2c-2,2-2.8,4.3-2.4,7.1c0.1,0.4,0.1,0.8,0.2,1.2
		c0.1,0.7-0.2,1.5-0.9,1.5c-0.5,0-1.3-0.6-1.5-1.1c-1.5-3.5,0.5-9.3,3.8-11.3c1.1-0.7,2.3-0.8,3.4-0.1c3.2,2,5.8,4.5,7.6,7.8
		c0.3,0.6,0.4,1.4,0.6,2.1c0.1,0.4,0.2,0.8,0.5,1.1c0.7,0.9,0.5,1.5-0.6,1.9c-0.9,0.3-1.8,0.3-2.6,0.7c-1.1,0.5-2.3,1.2-3.2,2
		c-1.4,1.2-1.5,2.8-0.3,4.1c0.9,1,2.1,1.7,3.3,2.6c0.2,0.2,0.7,0.2,0.8,0.4c0.3,0.4,0.8,1.1,0.6,1.5c-0.1,0.4-0.9,0.8-1.4,0.8
		c-2.2,0-5.7-3.2-6.5-5.6c-0.7-2.3,0.1-4.7,2.5-6.4C274.3,169.2,276,168.6,277.6,167.7z"/>
	<path d="M330.1,190c-0.9-0.1-1.9-0.1-2.7-0.4c-0.5-0.2-1-0.9-1.2-1.4c-0.1-0.3,0.2-1.1,0.5-1.2c0.5-0.2,1.2,0,1.8,0
		c1.1,0.1,2.3,0.3,3.4,0.2c7-0.8,13.2-3.4,19.1-7.3c0.4-0.2,0.6-0.7,0.8-1.1c0.2-0.4,0.3-1,0.7-1.2c0.5-0.3,1.3-0.6,1.6-0.4
		c0.4,0.2,0.8,1.2,0.6,1.5c-0.5,1.2-1.1,2.5-2.1,3.2c-6.3,4.3-13.1,7-20.7,7.9C331.2,189.9,330.7,189.9,330.1,190
		C330.1,189.9,330.1,190,330.1,190z"/>
	<path d="M318.6,134.1c2.4,0,4.6,0.8,6.5,2.5c0.3,0.3,0.6,0.6,0.8,1c0.4,0.6,0.6,1.4-0.2,1.8c-0.4,0.2-1.2,0-1.7-0.2
		c-0.9-0.5-1.6-1.4-2.5-1.8c-2.1-1.1-4.3-0.9-6.5,0.1c-2.6,1.1-4.6,2.8-6.4,5c-1.2,1.4-2.2,3-3.3,4.5c-0.3,0.4-0.6,0.9-1,1.1
		c-0.3,0.2-0.9,0.2-1.2,0c-0.3-0.2-0.5-0.8-0.5-1.2c0-0.3,0.2-0.7,0.4-1c2.1-3.3,4.3-6.3,7.5-8.7
		C312.9,135.4,315.5,134.1,318.6,134.1z"/>
	<path d="M357,129.1c-0.4,0.6-0.6,1.3-0.9,1.4c-0.4,0.1-1-0.2-1.3-0.6c-0.6-0.7-0.9-1.6-1.4-2.4c-0.8-1.3-1.3-1.4-2.3-0.4
		c-3,2.8-5.4,6-7,9.8c-0.4,0.8-0.7,1.6-1.8,1.3c-1-0.4-1-1.3-0.6-2.1c1.9-4.4,4.6-8.3,8.4-11.3c1.7-1.4,3.5-1.2,4.9,0.6
		C355.8,126.4,356.3,127.8,357,129.1z"/>
	<path class="st8" d="M289.3,516.2c0.4-13.2,0.9-26.5,1.3-39.9c7.6-0.4,14.8,0.9,22.2,2c-0.1,2.7-0.3,5.4-0.3,8c0,1,0.3,2.1,0.3,3.1
		c0.1,4.6,0.1,9.3,0.2,13.9c0.1,3.8,0.2,7.6,0.3,11.4c0.1,1.7,0.1,1.9-1.5,2c-2.9,0.2-5.7,0.2-8.6,0.1c-3.6-0.1-7.3-0.4-10.9-0.6
		C291.4,516.2,290.5,516.2,289.3,516.2z"/>
	<path class="st0" d="M266.4,488.9c7,0.4,14,0.9,20.9,1.3c0,2.5,0,5.1,0,7.7c-0.1,6.3-0.3,12.5-0.4,18.8c0,2.4,0.6,2.8,2.9,2.4
		c1.6-0.2,3.3-0.2,4.9-0.1c4.9,0.1,9.8,0.4,14.7,0.5c2,0,4.1-0.5,6.2-0.7c-0.7,2-1.4,4.1-3,5.7c-0.7,0.7-1.8,1.1-2.7,1.4
		c-3.2,1.1-6.5,0.9-9.7,0.7c-6.3-0.4-12.5-0.9-18.7-1.7c-3.1-0.4-6.2-1.6-9.2-2.6c-3.7-1.3-5.5-4.2-5.6-8.1
		c-0.1-8.4-0.1-16.7-0.2-25.1C266.4,488.9,266.4,488.8,266.4,488.9z"/>
	<path class="st5" d="M298.4,470.9c0.1,0.8,0.1,1.8,0.2,2.8c-2.6,0-4.9,0-7.2,0c-0.3,0-0.6-0.1-0.8-0.2c-1.3-0.7-1.8-0.6-2.3,0.8
		c-0.3,0.9-0.3,1.9-0.4,2.9c-0.1,0.9,0,1.8,0,2.7c0,2.4,0,4.9,0,7.3c-0.6,0.1-0.8,0.2-1.1,0.2c-6.1-0.4-12.1-0.7-18.2-1.1
		c-2.1-0.1-2.3-0.5-2.3-2.5c0-3.4,0-6.9,0-10.3c0-0.5,0.1-0.9,0.1-1.4c0.3,0,0.6,0,0.8-0.1c3.8-0.2,7.6-0.4,11.4-0.6
		c1.1-0.1,2.2-0.1,3.4-0.1C287.3,471.1,292.7,471.1,298.4,470.9z"/>
	<path class="st5" d="M315.3,485.5c0-2.3,0-4.6,0-6.9c0-2.1-0.2-2.4-2.3-2.7c-2.5-0.4-5-0.7-7.5-1.1c-0.2,0-0.5-0.1-0.5-0.1
		c0.1-1.1,0.1-2.1,0.1-3.1c0-0.6,0.1-1,0.8-1c3.8,0.2,7.7,0.2,11.5,0.4c1.7,0.1,1.7,0.2,1.7,2c0,3.5,0,6.9,0,10.4
		c0,1.4-0.4,1.8-1.8,1.9C316.8,485.3,316.2,485.4,315.3,485.5z"/>
	<path class="st0" d="M319.2,487.8c0.1,9.7-0.3,19.2-2.9,28.5c-0.1,0-0.2,0-0.4,0c-0.2-3.8-0.4-7.5-0.4-11.3c-0.1-5,0-10,0-15
		c0-1.6,0.5-2.2,2.1-2.2C318,487.8,318.5,487.8,319.2,487.8z"/>
	<path class="st8" d="M349.3,151.3c0.7-4,1.8-7.9-1.6-11.5c1-0.8,1.9-1.8,3.1-2.5c1.1-0.7,2.4-0.1,2.8,1.1c0.4,1.2,0.6,2.5,0.5,3.7
		c-0.2,2.8-1.4,5.3-3.1,7.5C350.5,150.3,349.9,150.8,349.3,151.3z"/>
	<path class="st9" d="M347.1,141c1.1,2.2,0.8,4.4,0.4,6.5c-0.2,1.1-0.5,2.2-1,3.2c-0.1,0.3-0.8,0.7-1.1,0.6c-0.5-0.2-1.3-0.6-1.4-1
		C343.7,146.9,344.6,143.7,347.1,141z"/>
	<path class="st8" d="M315.9,160.7c4.3-4.6,3.6-11.1,0.1-13.9c4.4-2.9,7.4-1.6,9,2c0.8,2,0.8,3.7-0.5,5.4c-2.2,2.9-4.5,5.5-8.2,6.4
		C316.1,160.7,316.1,160.7,315.9,160.7z"/>
	<path class="st9" d="M314.1,147.8c3.1,4.2,2.7,8.9-1,12.2c-0.7,0.6-1.3,0.7-2.2,0.3c-2.7-1.3-3.3-2.6-2.3-5.5
		C309.8,152,311.6,149.7,314.1,147.8z"/>
</g>
</svg>
