<?xml version="1.0" encoding="utf-8"?>
<!-- Generator: Adobe Illustrator 22.1.0, SVG Export Plug-In . SVG Version: 6.00 Build 0)  -->
<svg version="1.1" xmlns="http://www.w3.org/2000/svg" xmlns:xlink="http://www.w3.org/1999/xlink" x="0px" y="0px"
	 viewBox="0 0 662.4 921.6" style="enable-background:new 0 0 662.4 921.6;" xml:space="preserve">
<style type="text/css">
	.st0{fill:#5D3535;}
	.st1{fill:#E4A16C;}
	.st2{fill:#965454;}
	.st3{fill:#04101B;}
	.st4{fill:#FFFFFF;}
	.st5{fill:#B7B7B7;}
	.st6{fill:#450B0B;}
	.st7{fill:#EFD0D0;}
	.st8{fill:#63180F;}
	.st9{fill:#BB4835;}
</style>
<g id="Слой3_xA0_Изображение_1_">
</g>
<g id="Слой2_xA0_Изображение_1_">
	<g>
		<path d="M378.4,842.1c-2.7-1-5-1.8-7.4-2.7c-1.8-0.7-3.6-1.4-5.3-2.2c-1.4-0.6-1.4-1.2-0.7-2.5c1-1.9,2-3.8,2.9-5.8
			c0.2-0.4,0.2-0.9,0.2-1.4c-0.2-6.4-0.4-12.8-0.6-19.2c-0.2-5.2-0.3-10.4-0.7-15.6c-0.4-6.8-1-13.6-1.6-20.4
			c-0.4-5.1-0.9-10.3-1.5-15.4c-0.8-6.7-1.5-13.5-2.5-20.2c-1.1-7.7-2.2-15.4-3.6-23.1c-1.3-7.6-3-15.2-4.5-22.8
			c-0.7-3.3-1.4-6.6-2-9.8c-0.2-1-0.1-2.1,0-3.1c0.2-1.7,0.1-1.8-1.4-2.3c-2.2-0.7-2.9-2-1.9-4.1c0.8-1.8,1.8-3.5,2.7-5.2
			c0.7-1.3,0.8-2-1-2.1c-0.5,0-0.9-0.2-1.4-0.3c-1.4-0.4-2-1.2-2-2.6c0.1-2.6,0.3-5.3,0.3-7.9c-0.1-9.4-0.1-18.8-0.4-28.2
			c-0.3-10.3-0.9-20.5-1.3-30.8c-0.3-6.6-0.5-13.3-0.8-19.9c-0.4-8.3-0.9-16.7-1.3-25c-0.4-6.9-0.7-13.9-1-20.8
			c-0.4-7.9-0.9-15.9-1.3-23.8c-0.1-1.7-0.1-3.4-0.3-5.2c0-0.4-0.4-0.9-0.7-1.1c-0.9-0.6-1.9-1.1-3.1-1.8c-0.1,1-0.3,2-0.4,3
			c-1.4,11.9-3.5,23.6-6,35.3c-2.3,10.9-4.8,21.7-7,32.6c-2.2,11.2-4.2,22.4-6.3,33.6c-0.6,3-1.1,6-1.6,9c-0.2,0.9,0,1.4,0.9,1.8
			c1,0.4,1.9,0.9,2.7,1.5c1.6,1,1.9,2.3,1,3.9c-0.7,1.2-1.6,2.2-2.3,3.4c-0.8,1.1-1.4,2.2-0.5,3.6c0.2,0.3,0.2,0.7,0.2,1.1
			c0.5,4.2,0.9,8.3,1.4,12.5c0.7,6,1.4,11.9,2.1,17.8c1.1,9.9,2.2,19.9,3.3,29.8c1.3,11.4,2.6,22.9,3.9,34.3
			c1.1,9.6,2.2,19.3,3.3,28.9c0.8,7.7,1.6,15.4,2.2,23.1c0.7,7.8,1.3,15.5,1.8,23.3c0.5,7.9,0.9,15.8,1.3,23.7
			c0.1,1,0.1,2.1,0.1,3.1c0.1,2.1-0.2,2.5-2.1,3.3c-5.3,2.2-10.5,4.4-16.1,5.7c-0.8,0.2-0.9,0.6-0.9,1.3c0.2,5.4,0.3,10.8,0.4,16.2
			c0.1,4-1,7.7-1.8,11.6c-0.1,0.5-0.3,0.9-0.3,1.4c-0.1,2.3-1.4,3.7-3.4,4.6c-1.3,0.6-2.7,1-4.1,1.3c-2.6,0.4-5.1,0.9-7.7,1
			c-1.6,0.1-3.3-0.4-4.9-0.9c-1.2-0.3-1.9-1.3-2.1-2.6c-0.1-0.6-0.1-1.1-0.1-1.7c-0.1-2.5-1.9-4-4.3-3.2c-3.8,1.3-7.6,2.6-11.3,4.3
			c-9.5,4.4-19.5,7.2-29.8,8.8c-4.1,0.6-8.3,1.4-12.5,1.7c-9.2,0.7-17.9-0.9-26-5.6c-0.9-0.5-1.7-1.2-2.4-1.9
			c-1.8-1.8-1.8-3.6-0.3-5.6c1.6-2.2,3.8-3.7,6.3-4.6c6.6-2.5,13.2-5,19.9-7.4c7.4-2.8,14.5-6,21-10.7c0.4-0.3,0.9-0.6,1.3-1
			c-3.2-4-3.1-4.7,1.2-6.9c-1.2-1.9-2-3.9-1.9-6.2c0-0.3-0.5-0.8-0.9-1c-2.2-1.1-2.2-1.4-1.5-3.7c1.3-4.6,2.5-9.3,3.6-14
			c0.2-0.7-0.2-1.8-0.7-2.4c-1-1.2-2.2-2.2-3.3-3.3c-1.5-1.5-1.5-2.8,0.3-4.1c1.1-0.8,2.3-1.5,3.5-2.1c1.6-0.9,2.4-2.3,2.5-4.1
			c0.1-2.4,0.1-4.7,0.2-7.1c0.5-10.1,1.1-20.1,1.4-30.2c0.2-9,0.1-18.1-0.1-27.1c-0.1-6.4-0.3-12.9-0.6-19.3
			c-0.4-8.5-0.9-17.1-1.4-25.6c-0.4-6.8-0.8-13.6-1.5-20.3c-0.9-8.9-2-17.7-3.2-26.5c-0.7-4.9-1.7-9.8-2.7-14.7
			c-0.4-2-1.2-3.9-1.8-5.8c-0.2-0.6-0.3-1.3-0.2-2c0.9-8.1,2-16.2,2.9-24.3c0.8-7.7,1.6-15.3,2.2-23c0.9-10.9,1.6-21.8,2.4-32.6
			c0.7-9.1,1.4-18.2,2.2-27.4c0.2-2.6,0.5-5.2,0.8-8.1c-1.7,0.4-3.1,0.7-4.6,1c-1.8,0.3-3.5,0.7-5.3,0.9c-2.3,0.3-3.1-0.6-2.5-3
			c1.9-7.4,3.8-14.8,5.7-22.2c3.8-15,7.5-30,11.2-45c0.1-0.5,0-1.2-0.2-1.6c-3.3-5.4-6.7-10.7-10.2-16c-3.2-4.8-6.5-9.4-9.8-14.1
			c-2.4-3.4-4.7-6.9-7-10.3c-0.4-0.6-0.8-1.1-1.3-1.6c-1.7-1.5-1.8-3.4-1.5-5.5c1.4-9.2,2.8-18.5,4.1-27.7c1.2-8.5,2.3-17,3.3-25.6
			c0.8-6.7,1.2-13.5,1.8-20.3c0.6-7.5,1.3-15,1.9-22.5c0.4-5.2,0.7-10.4,1-15.6c0.3-4.7,0.6-9.5,1.1-14.2c1.1-9.4,2.4-18.9,3.7-28.3
			c0.3-2.4,0.6-5,1.5-7.2c1.2-3,3.3-5.3,6.7-5.9c2.4-0.4,4.9-0.6,7.4-0.9c1.6-0.2,3.1-0.5,4.7-0.8c0.2,0,0.5-0.2,0.6-0.3
			c3.1-3.4,7.2-5.2,11.2-7c5.1-2.3,10.6-3.3,16.1-4.2c2.4-0.4,4.8-1.1,7.2-1.6c0.3-0.1,0.7-0.2,0.9-0.4c2.3-2.6,4.7-5.2,7-7.7
			c0.3-0.3,0.5-0.7,0.8-1.1c-9.3-0.4-16-5.7-22-11.8c-6.9-7.1-7.5-18.4-2-26c0.8-1.1,1.6-2.1,2.5-3c0.6-0.6,0.7-1.2,0.6-1.9
			c-0.4-2-0.8-4.1-1.2-6.1c-0.3-1.2-1.5-1.4-2.3-2c-1.2-0.8-2.5-1.5-3.7-2.3c-3.5-2.4-5.8-5.7-7-9.7c-1.8-5.7-2.8-11.4-1.1-17.2
			c0.4-1.4,1.5-2.5,2-3.9c0.3-0.7,0.2-1.6,0.2-2.3c-0.1-1.2-0.6-2.3-0.6-3.5c0-6.8-0.3-13.5,0.2-20.3c0.9-13.4,5.1-25.7,14.9-35.3
			c4.8-4.8,10.8-8,17.1-10.5c5-2.1,10.2-3.9,15.6-4.4c2.7-0.2,5.4-0.1,8.2-0.1c6.1-0.1,12.2-0.3,18.3-0.3c5.9,0,11.5,1.3,16.9,3.8
			c7.9,3.7,14.9,8.8,21.1,14.8c6.4,6.2,10.3,13.9,12.2,22.7c1.4,6.5,2.2,13,2.4,19.6c0.2,3.7,0.3,7.4,0.5,11.1
			c0,0.3,0.2,0.8,0.5,0.9c2.8,1.9,4.1,4.6,4.2,7.9c0.2,4.7-0.8,9.1-3.1,13.3c-0.8,1.5-1.7,3.1-2.4,4.7c-1.5,3.5-3.6,6.6-6.2,9.3
			c-0.3,0.3-0.4,0.8-0.6,1.3c-0.6,2.6-1.2,5.1-1.7,7.7c-0.1,0.4-0.1,0.9,0.1,1.2c2.1,2.7,3,5.8,3.7,9c0.9,4.5,1,9,0,13.5
			c-1.6,7.3-5.8,12.4-12.7,15.2c-2.9,1.2-6,1.9-9.1,2.7c-0.8,0.2-1.7,0.1-2.8,0.2c0.4,0.6,0.8,1.1,1.2,1.6c2.1,3,4.3,5.9,7.2,8.3
			c0.3,0.3,0.8,0.4,1.3,0.6c5.7,1.5,11.4,2.9,17.1,4.3c3.5,0.9,7,2,10,4.2c1.3,1,2.5,2.2,3.4,3.6c0.9,1.4,2,1.9,3.5,1.9
			c4.7-0.2,9,1.3,13.1,3.4c2.3,1.2,3.4,3.2,3.9,5.9c0.6,3.2,0.8,6.5,1.1,9.7c0.4,4,0.1,8.1,0.2,12.1c0.3,8.6,0.4,17.3,1,25.9
			c0.5,8,1.5,16,2.4,24c1.1,9.3,2.1,18.6,3.4,27.8c1,6.9,2.2,13.7,3.5,20.6c1.8,9.9,3.7,19.7,5.5,29.6c0.7,3.8,1.6,7.5,2.1,11.3
			c0.2,1.2-0.2,2.8-0.8,3.9c-1.5,2.5-3.1,4.8-4.9,7.1c-8.7,10.7-17.4,21.3-26.1,31.9c-0.9,1.1-1.4,2.1-1.2,3.6
			c1.5,12.6,2.6,25.3,4.2,37.9c1.1,8,2.8,15.9,4.3,23.8c0.4,1.9,0.8,3.8,1.3,5.7c0.4,1.7-0.3,2.7-2,2.4c-2-0.3-4-0.9-6.1-1.4
			c-0.7-0.2-1.4-0.3-2.2-0.5c-0.1,0.5-0.2,0.8-0.2,1.1c-0.6,14.1-1.2,28.2-1.8,42.3c-0.5,10.9-0.8,21.8-1.5,32.7
			c-0.6,10-1.3,19.9-2,29.9c-0.6,8.6-1.2,17.2-2,25.8c-0.6,6.5,1,12.7,2.3,18.9c2.2,10.6,4.2,21.3,6.2,32c1.7,9.5,3.4,19,4.9,28.6
			c1.4,8.8,2.6,17.5,3.8,26.3c1,7.8,1.8,15.6,2.6,23.5c0.7,6.7,1.1,13.5,1.7,20.2c0.7,7.2,1.4,14.3,2.1,21.5c0.5,6,1,12,1.5,18
			c0.4,4.7,1,9.4,1.5,14c0.1,1.1,0.4,2.2,0.7,3.4c0.2,0.8,0,1.5-0.8,1.8c-3.3,1.2-6.5,2.4-9.8,3.5c-2.1,0.7-4.2,1.2-6.5,1.9
			c0.4,1.7,0.8,3.3,1.3,5c1.4,5.2,3.1,10.3,4.2,15.5c0.9,4.3,1.2,8.8,1.6,13.2c0.2,1.7,0,3.5,0,5.3c0,5.2-2.1,8.2-7,9.7
			c-6.9,2.2-14,3.9-21.2,4.9c-6.1,0.8-12.3,1.5-18.5,1.8c-4.2,0.2-8.5-0.4-12.7-0.7c-4.4-0.3-8.6-1.7-12.6-3.7
			c-2.1-1.1-3.7-2.7-4.9-4.7c-0.8-1.3-0.7-2.6,0-3.9c1.2-1.9,2.6-3.8,3.9-5.6c3.8-5.3,7-11.1,10.1-16.9c1.5-2.8,3.2-5.5,4.5-8.3
			C375.9,848.4,377.1,845.3,378.4,842.1z M420.5,493.8c-3.6-0.5-7.2-1-10.8-1.4c-6.9-0.7-13.8-1.3-20.8-1.9
			c-9.2-0.9-18.2-2.7-27-5.4c-1.2-0.4-2.5-0.8-3.6-1.1c-0.8,2.5-1.5,5-2.4,7.4c-0.7,1.9-1.8,3.5-4.3,3.1c0.5,2.1,0.3,4-1.5,5
			c-2.2,1.1-4.1-0.1-5.7-1.6c-0.7,0.4-1.3,0.8-1.7,1.1c0.6,11.4,1.3,22.8,1.9,34.1c0.4,6.6,0.7,13.3,1,19.9c0.5,9.6,1,19.2,1.4,28.9
			c0.3,6.2,0.5,12.5,0.8,18.7c0.4,8.8,0.8,17.7,1.1,26.5c0.2,4.3,0.3,8.6,0.3,13c0,6.2-0.1,12.3-0.1,18.5c0,0.8-0.4,1.9-0.1,2.4
			c0.4,0.6,1.5,0.6,2.3,0.8c2.1,0.6,3,2,2.3,4.1c-0.4,1.2-1.1,2.4-1.7,3.5c-0.6,1.1-1.1,2.2-1.7,3.4c0.4,0.2,0.6,0.2,0.8,0.3
			c2.4,0.7,3.1,1.7,3,4.2c0,1-0.3,1.9-0.2,2.9c0.3,2.3,0.6,4.6,1.2,6.8c2.4,8.7,4,17.5,5.4,26.4c1.3,7.6,2.5,15.3,3.5,23
			c0.9,6.7,1.7,13.5,2.5,20.2c0.6,5.2,1,10.3,1.5,15.5c0.6,7,1.2,14,1.6,21c0.3,4.7,0.4,9.3,0.6,14c0.3,6.2,0.4,12.5,0.8,18.7
			c0.1,2.6-0.6,4.9-1.9,7c-0.4,0.7-0.8,1.5-1.2,2.5c4,1.5,7.9,2.9,11.8,4.4c0.5-5.2,5.3-6.1,9.7-2.2c2.6-4.2,5.5-4.8,9.3-2.1
			c1.8-2.2,4.1-3.1,6.8-2.1c3.3,1.2,3.7,4,3.2,7.1c0.6-0.1,1.1-0.1,1.6-0.2c6.9-1.6,13.9-3.1,20.8-4.8c2.5-0.6,5-1.6,7.5-2.5
			c0.4-0.1,0.8-0.6,0.8-1c0.1-0.7,0-1.5-0.1-2.3c-0.5-4.6-1-9.3-1.5-13.9c-0.6-6.1-0.9-12.2-1.5-18.3c-0.9-9.5-1.9-19.1-2.8-28.6
			c-0.8-8.8-1.4-17.5-2.4-26.3c-1.1-10-2.4-20-3.9-29.9c-1.7-11.4-3.6-22.7-5.7-34c-2.3-12.6-4.8-25.2-7.4-37.7
			c-1-4.5-1.6-9-1.3-13.5c0.6-9.1,1.4-18.2,2.1-27.3c0.6-8.6,1.3-17.2,1.8-25.8c0.5-8.2,0.9-16.4,1.2-24.6
			c0.5-11.3,0.8-22.6,1.3-33.9c0.1-3.6,0.4-7.3,0.6-10.9C420.1,501.3,420.3,497.7,420.5,493.8z M272.7,825.9c0.5,0,0.9,0,1.4,0
			c2.9,0,4.2,0.9,5.3,3.6c0.1,0.2,0.4,0.5,0.7,0.5c2.3,0.3,4.7,0.7,7,0.9c9.1,0.8,18-0.1,26.9-1.9c6.3-1.3,12.4-3.4,18.3-6.1
			c1.2-0.5,1.5-1.1,1.4-2.3c-0.3-5.3-0.5-10.5-0.8-15.8c-0.3-5.4-0.6-10.9-1-16.3c-0.6-7.5-1.2-14.9-1.9-22.3
			c-0.5-5.9-1.1-11.8-1.8-17.7c-0.8-7.5-1.7-15.1-2.5-22.6c-0.8-7.3-1.6-14.7-2.5-22c-0.9-8-1.9-15.9-2.8-23.9
			c-0.8-6.9-1.5-13.9-2.3-20.8c-0.8-7.2-1.6-14.5-2.6-21.7c-0.6-4.6-0.8-9.2-1.9-13.7c-0.1-0.4-0.1-0.8,0-1.2c0.5-1.3,1-2.6,1.6-3.8
			c0.6-1.1,1.4-2,2.2-3.2c-1-0.5-1.9-1-2.8-1.4c-2.3-1.1-2.8-1.9-2.3-4.4c0.6-3.3,1.2-6.7,1.8-10c2.1-11.1,4-22.2,6.2-33.3
			c1.9-9.6,4.3-19.2,6.2-28.8c2.1-10.4,3.8-20.9,5.7-31.3c0.6-3.2,1.1-6.5,1.7-9.7c-1.3,1-2.8,0.8-4.3,0.2
			c-7.4-3.2-14.4-7-20.5-12.3c-0.4-0.3-1.2-0.6-1.7-0.4c-3.3,0.8-2.6,0-2.8,3.3c-0.1,1.6,0,3.1,0,4.7c0,1.5,0,3.1,0,4.6
			c-0.1,0-0.1,0-0.2,0c-0.1-3.9-0.3-7.7-0.4-11.7c-0.4,0.1-0.8,0.1-1.1,0.2c-1.7,0.4-3.5,0.9-5.2,1.3c-8,1.9-15.9,3.8-23.9,5.7
			c-0.6,0.1-1.1,0.2-1.1,1c0,1.6-0.2,3.2-0.3,4.8c-0.4,7.5-0.8,14.9-1.3,22.4c-0.5,8.7-1.1,17.4-1.6,26.1
			c-0.4,6.6-0.8,13.2-1.3,19.9c-0.6,8.9-1.2,17.8-1.8,26.7c-0.5,7.1-1.1,14.2-1.6,21.3c-0.2,3.3-0.3,6.7,0,10.1
			c0.5,4.8,1.4,9.6,2.1,14.5c1,7.3,2.1,14.5,3,21.8c0.9,6.9,1.8,13.7,2.4,20.6c0.8,8.2,1.5,16.5,2,24.7c0.6,10.3,1.3,20.7,1.4,31
			c0.1,19.7-0.2,39.4-0.1,59.2c0,2.6-0.8,4.5-2.8,6.1c-0.9,0.7-1.7,1.5-2.6,2.4c0.8,0.6,1.5,1.1,2.2,1.6c1.3,1,1.9,2.4,1.5,3.9
			c-0.6,2.6-2.1,4.4-4.6,5.7c-0.2-1.8-0.1-2.2,0.9-3.5c0.4-0.6,0.9-1.1,1.3-1.7c0.7-1.2,0.5-2-0.6-2.8c-0.5-0.4-1.1-0.7-1.6-1
			c-1.7-1.2-2-2.6-0.5-4.1c1-1,2.1-2,3.2-2.9c0.9-0.8,1.2-1.6,1.2-2.8c0-6.2,0-12.4,0-18.6c0.1-12.8,0.4-25.7,0.2-38.5
			c-0.2-11.8-0.9-23.6-1.5-35.3c-0.3-6.5-0.9-13.1-1.5-19.6c-0.8-7.9-1.8-15.9-2.8-23.8c-1.2-9.7-2.7-19.3-4-29
			c-0.5-3.8-1.1-7.6-1.2-11.4c-0.1-3.3,0.2-6.6,0.4-9.9c0.5-6.9,1-13.8,1.5-20.7c0.6-9,1.2-18,1.8-27c0.5-7.6,1-15.2,1.5-22.9
			c0.6-8.7,1.2-17.4,1.9-26.1c0.4-5.4,1-10.8,1.6-16.2c0.2-1.7,0.4-3.4,0.6-5.3c-3.6,0.9-6.9,1.6-10.2,2.5c-0.3,0.1-0.7,0.6-0.7,1
			c-0.4,5.5-0.8,10.9-1.2,16.4c-0.8,11-1.6,21.9-2.4,32.9c-0.8,10.5-1.6,21-2.7,31.4c-1,10.6-2.4,21.2-3.5,31.8
			c-0.1,1.3-0.6,2.7-0.2,3.8c1.6,4.6,2.5,9.4,3.4,14.2c1.9,10.1,3.2,20.4,4.1,30.6c0.6,6.6,1.1,13.1,1.5,19.7
			c0.6,9.9,1.1,19.7,1.6,29.6c0.2,4.1,0.3,8.2,0.3,12.4c0.1,12,0.3,24.1,0.1,36.1c-0.2,11.3-0.9,22.6-1.2,33.9
			c-0.1,3.7-1.5,6.5-4.9,8.1c-0.7,0.3-1.4,0.8-2.2,1.3c0.8,0.7,1.4,1.4,2.1,2c2.4,2.1,3.3,4.5,2.3,7.7c-1.2,4.1-2.2,8.2-3.2,12.3
			c-0.1,0.4,0.1,0.8,0.1,1.2c0.1,0,0.3,0,0.4,0c0.2-0.3,0.4-0.5,0.5-0.8c1.7-2.4,3.6-2.6,5.7-0.5c0.8,0.8,1.4,1.8,2.1,2.7
			c2.3-2.8,3.8-3.4,6.1-2.6C272.1,821,272.7,822.2,272.7,825.9z M360.3,166.7c0.7-0.2,1.3-0.4,2-0.6c6-1.8,12-3.5,17.9-5.6
			c2.5-0.9,5-2.3,7-4c2.7-2.2,4.3-5.4,5.6-8.7c1.7-4.2,2.9-8.5,3.7-13c1.3-7.6,1.2-15.3,0.9-22.9c-0.1-1.5,0.3-3,0.4-4.5
			c0.1-0.7,0.2-1.5,0-2.2c-0.4-1.4-1.1-2.8-1.5-4.3c-0.8-2.8-1.4-5.8-2.3-8.6c-4.3-12.8-12.8-22.2-23.9-29.6
			c-6.5-4.3-13.7-7.4-20.7-10.9c-2.1-1.1-4.3-1.9-6.5-2.8c-0.3-0.1-0.8-0.2-1.1-0.1c-5.5,1.5-10.9,3.1-15.9,6
			c-9.1,5.1-17,11.6-23.7,19.6c-4.9,5.9-8.9,12.2-10.5,19.8c-0.5,2.5-1.4,5-2,7.5c-0.3,1.2-0.7,2.4-1,3.7c-0.2,0.9,0.1,1.5,0.8,2.1
			c0.3,0.2,0.6,0.7,0.6,1c0.4,2.3,0.7,4.6,1,6.9c0.5,4.3,0.9,8.7,1.6,13c0.9,5.6,2.1,11.1,3.1,16.7c0.4,2.4,1,4.7,2.6,6.6
			c1.8,2,3.6,4.2,5.7,6c1.4,1.3,3.1,2.3,4.8,3.1c2.6,1.2,5.3,2.1,8.1,3.1c1,0.4,2.1,0.6,3.2,0.9c0.3-3.7,0.5-7.3,0.9-10.9
			c0-0.4,0.4-0.7,0.6-1.1c0.2,0.4,0.5,0.7,0.7,1.1c0.1,0.3,0,0.6,0,1c0,2.6-0.1,5.2,0.1,7.8c0.1,1.4,0.3,3,1.1,4.1
			c1.5,2,3.5,3.6,6,4.2c6.1,1.7,12.3,3.1,18.8,2.1c3.8-0.6,7.3-1.8,9.8-5c0.4-0.5,0.6-1.2,0.6-1.8c-0.2-2.9-0.5-5.8-0.7-8.7
			c-0.1-0.8,0.1-1.6,0.2-2.4c0-0.2,0.4-0.4,0.6-0.4c0.2,0,0.4,0.3,0.5,0.6C359.5,159.2,359.9,162.9,360.3,166.7z M294.3,474.4
			c0.4-1.8,0.8-3.3,1.1-4.8c1.8-8.6,4.3-16.9,8.2-24.7c3.8-7.6,8-15.1,13-21.9c0.4-0.6,0.4-0.9-0.1-1.4c-2.1-2.2-4.2-4.4-6.2-6.6
			c-5.1-5.5-10.2-10.9-15.2-16.5c-5.3-6.1-8.9-13.3-12-20.7c-2.7-6.2-5-12.6-7.5-18.9c-0.4-1.1-1.1-1.7-2.2-1.9
			c-3.9-0.6-7.8-1.2-11.7-1.8c-1.7-0.3-3.5-0.4-5-1.7c3.9-1.8,7.8-0.8,11.7-0.3c0.1-0.1,0.1-0.3,0.2-0.4c-2.8-2.3-5.5-4.5-8.3-6.8
			c0,0,0,0,0-0.1c4.2,2.3,8.4,4.7,12.6,7c-3.8-10.5-7-23.4-6.4-25.1c3.4,9.1,6.9,18.3,10.4,27.7c0.2-0.5,0.3-0.8,0.3-1
			c1.7-7.1,3.5-14.1,5.2-21.2c1.9-7.7,1.1-15.2-2.3-22.4c-1.8-3.9-3.4-7.9-5.1-11.8c-2.7-6.1-3.8-12.4-3.4-19
			c0.3-4.9,0.5-9.9,1.2-14.8c1-7.3,2.4-14.6,3.7-21.8c0.1-0.8,0.1-1.4-0.5-2c-3.9-4.8-7.3-9.9-9.1-15.9c-1.1-3.8-1.1-7.5,0.5-11.1
			c0.2-0.6,0.5-1.2,0.7-1.7c-2.7,0.3-5.4,0.5-8.1,0.8c-3.4,0.4-5.7,2.2-6.7,5.5c-0.4,1.1-0.5,2.3-0.7,3.5c-1,7.1-2.1,14.2-2.9,21.4
			c-0.9,7.8-1.5,15.7-2.1,23.5c-0.4,5-0.6,10-1,15c-0.6,7.4-1.2,14.7-1.9,22.1c-0.8,9-1.5,18-2.5,27c-0.9,8.5-2.1,16.9-3.3,25.3
			c-1,6.9-1.9,13.8-3.1,20.6c-0.4,2.4,0,4.1,1.5,6c2.7,3.5,5,7.3,7.6,10.9c3.1,4.5,6.6,8.9,9.4,13.6c5.7,9.3,11.8,18.4,18.1,27.3
			c6.2,8.8,11.8,18,16.4,27.7C290.6,466.6,292.4,470.4,294.3,474.4z M387.8,467.1c0.6-1.1,1-2,1.6-2.8c3-4.1,6.1-8.2,9.2-12.3
			c4.6-6.1,9-12.3,13.8-18.2c11.5-14.2,23.2-28.3,34.8-42.5c2.2-2.7,4.2-5.5,6.1-8.3c0.5-0.7,0.8-1.8,0.7-2.7
			c-1.4-7.6-3-15.2-4.4-22.8c-1.8-9.7-3.6-19.5-5.2-29.2c-1.1-6.6-2-13.2-2.9-19.8c-0.9-6.7-1.8-13.4-2.6-20.1
			c-0.8-7.1-1.5-14.1-2-21.2c-0.5-7.4-0.8-14.8-1-22.2c-0.2-5.3,0.1-10.6-0.2-15.8c-0.1-3.2-1-6.4-1.2-9.6c-0.2-2.1-1.2-3.5-3-4.2
			c-2.5-1-5.1-1.9-7.7-2.5c-1.6-0.4-3.3-0.1-5-0.1c0.1,0.4,0.1,0.6,0.1,0.8c0.8,3.7,1,7.5,0.4,11.2c-1.3,8.2-4.2,15.6-9.4,22.2
			c-0.4,0.5-0.6,1.3-0.5,1.8c0.5,2.3,1,4.5,1.7,6.7c1.3,4.5,2.8,8.9,4.1,13.4c1.9,6.8,2.2,13.7,0.1,20.6c-1.4,4.8-3.6,9.4-5.8,13.9
			c-2.5,5-5.1,10-7.4,15c-1.2,2.5-1.9,5.2-1.5,8c0.5,3.1,1,6.2,1.9,9.1c2.2,7.2,4.6,14.3,6.9,21.4c0.3,0.8,0.6,1.6,0.8,2.4
			c0.3,0.7,0.5,1.5,0.8,2.5c-0.4-10.5-0.8-20.6,0.1-30.8c1.6,2.3,1.9,4.9,2,7.6c0.1,2.6,0.1,5.2,0.1,7.8c0,2.6-0.2,5.2-0.3,7.8
			c2.2-7.8,3.3-15.8,6.1-23.4c0.4,0.8,0.7,1.6,0.6,2.3c-0.2,2.6-0.3,5.2-0.8,7.7c-1.9,8.5-3.9,17-5.9,25.6c-0.1,0.5-0.1,1-0.1,1.5
			c0.5-0.2,0.7-0.4,0.9-0.6c2.9-3.1,5.9-6.2,8.9-9.3c0.5-0.5,1.2-1,1.9-1.3c1-0.4,1.7,0.3,1.4,1.3c-0.2,0.6-0.6,1.2-1.1,1.7
			c-6,5.8-11.4,12.1-16.7,18.5c-5.6,7-11.3,13.9-17.7,20.2c-6.3,6.3-12.6,12.6-19,18.8c-1.7,1.7-3.7,3.2-5.6,4.8
			c5.9,6.2,9.9,13.5,13.4,21.2C382.7,450.9,385.7,458.7,387.8,467.1z M308,271.4c-5.6-3.4-11-7.2-16-11.5c-5-4.3-8.8-9.6-13.1-14.9
			c-0.4,2.1-0.8,4-1.1,5.8c-1.7,9.4-3.2,18.9-3.3,28.5c0,3.4-0.1,6.9,0.5,10.3c1.3,6.7,4.2,13,7.2,19.1c2,4.2,3.4,8.6,3.9,13.3
			c0.6,5.1-0.4,10-1.6,14.9c-1.8,7.1-3.5,14.3-5.3,21.4c-0.1,0.6-0.2,1.2,0,1.8c2.4,6.3,4.8,12.7,7.5,18.9
			c2.7,6.3,5.8,12.4,10.5,17.5c7,7.7,14.1,15.3,21.1,22.9c0.3,0.3,0.6,0.6,1,0.8c1.2,0.6,1.4,1.3,0.6,2.5c-0.7,1-1.3,2-2,3.1
			c2.8,0.2,5.4,0.5,8,0.7c0.4,0,0.8-0.2,1.2-0.1c2.2,0.7,4.6,1.1,6.6,2.2c1.9,1,3.3,1,5-0.2c0.8-0.5,1-1,1-1.9
			c-0.1-5.3-0.2-10.6-0.1-15.8c0.2-17,0.5-34,0.8-51c0.1-8.6,0.3-17.2,0.5-25.8c0-0.6-0.4-1.2-0.6-1.8c-0.5,0.3-1.1,0.6-1.6,1
			c-0.7,0.7-1.3,1.4-1.9,2.1c-1.4,1.5-3.1,1.9-4.9,1.1c-3.5-1.4-5.7-4-6.1-7.8c-0.2-1.9-0.1-3.8-0.2-5.7c0-1-0.5-1.5-1.5-1.3
			c-0.4,0-0.7,0-1.1,0.1c-3.2,1-6.3-2.1-6.3-4.8c-0.1-2.2,0.1-4.5,0.3-6.7c0.2-1.9,0.7-3.9,0.8-5.8c0.1-2.2-1.1-3.5-3.2-3.9
			c-0.7-0.1-1.3-0.3-2-0.4c-3-0.7-3.7-1.8-2.8-4.7c0.8-2.4,1.6-4.9,2.4-7.3c0.5-1.6,0.7-3.2-0.3-4.6c-0.9-1.3-1.9-2.7-3.1-3.8
			c-1.4-1.3-2.1-2.8-1.8-4.7C307.4,273.8,307.7,272.6,308,271.4z M407,250.4c-0.5,0.5-0.9,1-1.3,1.4c-2.7,2.6-5.4,5.3-8.3,7.7
			c-4.7,3.8-9.5,7.3-14.3,11c-1,0.8-2,1.6-2.8,2.7c-1.6,2.2-1.9,4.2,0.2,6.3c0.5,0.5,1,1.1,1.4,1.6c1.2,1.5,1.4,3.2,0.5,4.9
			c-0.4,0.8-1.1,1.6-1.7,2.3c-0.9,1-2,1.8-2.8,2.8c-2.9,3.5-3.2,6-1,9.3c0.3,0.5,0.6,1,0.9,1.6c0.8,1.4,1,2.9,0.7,4.4
			c-0.6,2.7-1.8,5-4.4,6.4c-1.2,0.6-2.3,1.2-3.5,1.8c-2.6,1.5-2.8,1.9-1.6,4.6c1.9,4.4,0.7,7.5-3.7,9.4c-0.6,0.3-1.3,0.6-1.9,0.6
			c-1.9,0.1-3.9,0-5.8,0c-2.4-0.1-2.8,0.3-2.9,2.6c-0.2,4.1-2,6.5-5.5,7.2c-1.9,0.4-3.8,0.1-5.6-1c0,0.5-0.1,0.9-0.1,1.3
			c-0.2,9.9-0.3,19.8-0.5,29.6c-0.1,6-0.2,12-0.3,18c-0.1,12.6-0.2,25.3-0.3,37.9c0,0.5,0.1,1,0.2,1.6c0.6-0.3,1-0.5,1.4-0.7
			c3.3-1.8,6.6-3.7,10-5.5c2.8-1.5,5.7-1.1,8.6-0.1c0.4,0.1,1.1,0.1,1.5-0.2c2.5-2.1,5.1-4.1,7.5-6.4c12.8-12.3,25.2-24.9,36-39
			c0.2-0.3,0.5-0.7,0.6-1c0.5-1.8,1-3.6,1.4-5.4c0.1-0.6,0.2-1.2,0-1.7c-1.3-4.1-2.7-8.1-3.9-12.2c-2.4-7.6-4.8-15.2-7-22.9
			c-1.1-3.9-1.3-7.8,0.2-11.7c1.3-3.4,2.9-6.7,4.4-10c2.7-5.7,5.7-11.3,8.2-17.1c2.7-6.2,3.5-12.7,1.9-19.4c-1.2-5-2.8-9.8-4.2-14.7
			C408.5,255.8,407.8,253.2,407,250.4z M406.4,845c0.6,0.6,1.1,1.2,1.6,1.8c1.3,1.8,1.1,3.4-0.7,4.7c-0.7,0.5-1.6,1-2.4,1.3
			c-3.8,1.4-7.7,1.5-11.7,1.1c-2.9-0.3-5.7-1-8.2-2.8c-2.4-1.8-2.7-3.2-1.1-5.7c-1-0.9-2-1.8-3-2.8c-0.1,0.3-0.2,0.6-0.3,0.8
			c-1.1,2.9-2,5.8-3.4,8.5c-2.7,5.2-5.4,10.4-8.4,15.4c-2.8,4.7-5.9,9.1-9,13.6c-2.1,3-2.1,3.3,0.7,6.1c0.2,0.2,0.5,0.4,0.8,0.6
			c2.3,1,4.6,2.1,7.1,2.9c4.5,1.5,9.2,1.5,13.9,1.6c5.3,0.1,10.7-0.1,16-0.7c9-1,17.9-2.9,26.6-5.6c3.3-1,5.5-2.8,5.3-7.1
			c-0.1-1.6,0.1-3.2,0-4.8c-0.5-4.7-0.7-9.4-1.7-14c-1.3-6.2-3.3-12.2-5-18.4c-0.3-1-0.6-1.2-1.7-1c-4,0.8-8,1.7-12,2.2
			C408.1,843.1,407,843.5,406.4,845z M363.2,453.2c-0.4-0.6-0.6-1.1-0.9-1.5c-1.9-2.7-4.5-4.6-7.1-6.3c-4.1-2.7-8.2-5.5-12.3-8.2
			c-4.7-3.2-9.4-6.2-14.9-7.9c-1-0.3-2-0.6-3-0.6c-2.7-0.1-5.3,0-8,0c-0.8,0-1.2,0.2-1.6,0.9c-2.1,3.5-4.2,7-6.2,10.5
			c-3.8,6.9-7,14-9.1,21.6c-0.1,0.4-0.3,1-0.1,1.1c1.1,1.1,1,2.7,1.4,4c1.7,5,3.2,10,7.3,13.8c6.5,6,14,10.4,22.1,13.8
			c0.6,0.3,1.4,0.2,2.1,0.3c0-0.1,0-0.2,0.1-0.3c-0.2-0.2-0.5-0.4-0.7-0.6c-5.9-5.9-11.8-11.7-17.6-17.6c-0.7-0.7-1.5-1.7-0.6-2.6
			c1-1,1.8,0.1,2.5,0.8c2.1,2,4,4.1,6.1,6.1c4.2,4.1,8.4,8.3,12.8,12.3c1.4,1.3,3.1,2.2,4.7,3.2c0.7,0.5,1.6,0.8,2.5,0.1
			c-0.5-0.8-0.9-1.5-1.3-2.2c-3.1-5.2-6.4-10.4-9.1-15.8c-1.9-3.8-4.2-7.1-7.6-9.6c-1.1-0.8-1.9-2.1-2.8-3.3
			c-0.2-0.3-0.1-0.9-0.1-1.3c0.4,0.1,0.9,0,1.2,0.2c2.1,1.5,4.1,3.2,6.2,4.7c1.7,1.3,2.8,2.9,3.9,4.9c3.4,6.3,7,12.5,10.6,18.7
			c0.7,1.2,1.5,2.3,2.4,3.4c0.5,0.6,1.2,1,1.9,1.4c0.7,0.3,1.1,0,1.1-0.7c0-0.4,0-0.7-0.1-1.1c-0.5-3.1-1.2-6.1-1.6-9.2
			c-0.6-5-1.1-10-1.6-15c-0.1-1.3-0.6-2.5-1.7-3.3c-1.6-1.3-3.3-2.6-5-3.7c-2.8-1.7-5.7-3.3-8.5-5c-0.7-0.4-1.5-1.1-0.9-2
			c0.5-0.9,1.4-0.7,2.1-0.3c1.1,0.5,2.2,1,3.2,1.7c3.7,2.4,7.3,4.7,10.9,7.2c1.6,1.1,2.4,2.8,2.6,4.7c0.4,3.9,0.7,7.8,1.3,11.7
			c0.3,2.6,0.9,5.1,1.4,7.6c0.2,0.8,0.8,1.5,1.4,2.5c0.5-0.9,0.9-1.5,1-2.1c0.7-2.8,1.5-5.5,2-8.4c0.8-4.7,1.2-9.4,0.6-14.2
			c-0.4-2.9-1.1-5.6-3.3-7.6c-2-1.8-4.1-3.6-6-5.5c-1.9-1.9-3.7-4-5.4-6c-0.2-0.3-0.1-0.8-0.1-1.3c0.4,0.1,0.9,0,1.2,0.3
			c0.8,0.9,1.8,1.2,3,1.4c0.8,0.1,1.5,0.5,2.3,0.7c3.4,1.3,6.7,2.6,10.1,3.7C359.5,453.5,361.2,453.7,363.2,453.2z M274.5,837
			c0.7,0.7,1.3,1.2,1.8,1.8c1.3,1.5,1,3.4-1,4c-1.3,0.4-2.9,0.7-4.2,0.4c-4.3-0.9-8.5-2.1-12.7-3.3c-0.7-0.2-1.1-0.2-1.6,0.2
			c-6.8,5-14.3,8.7-22.2,11.6c-5.7,2.1-11.4,4-17,6.2c-2.4,0.9-4.9,2.1-7,3.6c-2.8,1.9-2.6,3.3,0.3,5c5.2,3,10.8,4.8,16.8,5.2
			c7.3,0.5,14.5-0.6,21.7-1.9c9.7-1.7,19.1-4.4,28.1-8.6c3.6-1.7,7.4-3,11.2-4.2c4.5-1.5,7.2,2.4,7.5,5.5c0.2,2.2,0.4,2.4,2.5,2.7
			c0.4,0.1,0.9,0.1,1.3,0.1c2-0.2,4-0.4,6.1-0.7c1.6-0.3,3.3-0.6,4.9-1.1c1.2-0.4,1.9-1.2,1.9-2.6c0-0.5,0.2-1,0.4-1.5
			c0.8-3.6,1.8-7.1,1.8-10.8c0-3.7,0.1-7.4,0.1-11c0-1.9-0.3-3.8-0.5-5.7c-11.9,1.9-23.7,3.4-35.6,0.5
			C278.2,834.5,276.7,836,274.5,837z M359.7,481.1c0.1,0.1,0.1,0.2,0.2,0.3c0.5,0.2,1,0.4,1.5,0.5c4.6,1.2,9.1,2.5,13.7,3.6
			c10.5,2.3,21.2,2.9,31.8,3.9c6.7,0.6,13.4,1.4,20,3.1c1.1,0.3,2.3,0.6,3.7,0.9c-5.4-21.7-7.5-43.6-9.6-65.5
			c-1.7,1.8-3.4,3.7-4.8,5.6c-4.5,5.9-8.9,11.8-13.4,17.7c-3.1,4-6.3,7.9-9.3,12.1c-1.7,2.3-2.8,5-4.2,7.5c-0.3,0.6-1.1,1.1-1.7,1.1
			c-0.4,0-1.1-0.8-1.3-1.4c-1-3.1-1.9-6.2-2.8-9.3c-0.4-1.4-0.9-2.7-1.4-4.1c-0.1,0-0.2-0.1-0.3-0.1
			C379.7,470,371.9,477.5,359.7,481.1z M321.6,251.8c-0.1,0.1-0.2,0.2-0.2,0.3c-2.1,5.1-5,9.7-9.2,13.4c-0.2,0.2-0.4,0.6-0.3,0.8
			c0.4,1.7-0.2,3.2-0.7,4.8c-0.1,0.4-0.3,0.8-0.4,1.2c3.4-2.4,6.6-4.9,9.6-7.6c2.7-2.4,5.1-5.1,7.7-7.7c0.2-0.2,0.7-0.5,1-0.4
			c0.3,0.1,0.5,0.6,0.5,0.9c-0.1,1.5-0.3,3-0.4,4.5c-0.5,6-2,11.7-4.6,17.1c-2.1,4.2-4.9,7.9-9.2,10.1c-0.2,0.1-0.5,0.3-0.6,0.5
			c-0.8,2.4-1.6,4.7-2.4,7.2c1.6,0.4,3,0.6,4.3,1.1c1,0.4,1.5,0.1,2-0.6c3.8-5.2,7.6-10.4,11.5-15.5c0.3-0.4,0.9-0.7,1.2-0.7
			c0.4,0.1,0.9,0.6,1,1c0.2,0.7,0.3,1.5,0.4,2.2c0.2,5.6-0.3,11.2-1.3,16.7c-1.1,6-2.6,12-6.2,17.1c-0.1,0.1,0,0.2,0,0.3
			c0.8,0.3,1.5,0.7,2.3,1c2.3-3.3,4.3-6.8,5.8-10.6c0.2-0.6,0.8-1,1.1-1.5c0.4,0.5,0.9,1,1.3,1.5c0.2,0.2,0.2,0.5,0.3,0.8
			c1.4,5,1.8,10.1,1.5,15.3c-0.1,1.9-0.3,3.8-0.5,5.8c0.3-0.2,0.5-0.4,0.7-0.5c2.3-1.8,4.7-1.2,5.9,1.4c0.3,0.6,0.5,1.3,0.8,2
			c0.9,2.2,1.9,2.8,4.1,2.5c2.1-0.3,3.3-1.5,3.5-3.6c0.1-0.9,0.1-1.8,0.2-2.6c0.2-1.7,1.2-2.7,2.7-3.3c0.5-0.2,1-0.3,1.5-0.4
			c-0.1-0.6-0.3-1.1-0.3-1.7c-0.9-6.7,0.4-13.1,2.9-19.3c0.1-0.1,0.1-0.3,0.2-0.4c0.3-0.2,0.7-0.6,1-0.6c0.2,0,0.6,0.5,0.7,0.8
			c1.2,2.9,2.4,5.8,3.6,8.6c0.3,0.8,0.7,1.5,1.2,2.5c0.9-3,3.5-3.7,5.6-5.1c-2.4-2.3-4.1-4.9-5.4-7.7c-3.1-6.8-4.8-13.9-6.2-21.2
			c-0.1-0.5,0.2-1,0.4-1.5c0.5,0.2,1.2,0.3,1.5,0.7c2.1,2.4,4.1,4.9,6.2,7.3c1.6,1.9,3.4,3.7,5.3,5.8c0.9-3.6,3.3-5.8,5.8-8
			c-3.1-1.5-5.3-3.6-7-6.2c-2.3-3.4-3.7-7.2-4.5-11.1c-0.8-4.1-1.4-8.3-2-12.5c-0.1-0.5,0.4-1.1,0.7-1.6c0.5,0.3,1.1,0.5,1.4,1
			c2.5,3.6,5.8,6.5,9,9.4c1.4,1.2,2.8,2.4,4.3,3.6c0.7-0.8,1.4-1.5,2-2.2c1.4-1.8,1.1-3.8-0.7-5.2c-5.9-4.3-10.1-9.9-13.3-16.4
			c-0.6-1.1-1-2.3-1.6-3.5c-0.1,0.2-0.1,0.4,0,0.6c0.6,2.5,0.9,5,0.4,7.6c-0.5,2.1-1.6,3.1-3.7,3.2c-0.8,0-1.7-0.2-2.5-0.3
			c-0.8-0.1-1.5-0.4-2.3-0.6c-0.1,2.8-0.2,5.4-0.4,8c-0.4,6.1-0.8,12.3-1.4,18.4c-0.5,4.9-1.5,9.7-2.1,14.6c-1.3,8.8-3.2,17.5-6,26
			c-0.4,1-1.1,2.1-1.9,2.8c-0.4,0.4-1.5,0.4-2.1,0.1c-0.5-0.2-1.1-1-1.2-1.6c-0.4-1.3-0.4-2.7-0.8-4c-2.7-8-4.4-16.2-5.2-24.6
			c-0.5-5.1-1.1-10.1-1.7-15.1c-0.8-6.4-1.6-12.8-2.3-19.1c-0.1-1.2-0.2-2.4-0.3-3.7C328.4,256.2,325.8,255.8,321.6,251.8z
			 M287.1,104.9c0.3-1.9,0.5-3.8,0.9-5.7c1.6-8.2,4.1-16,9.5-22.7c11.4-14.5,25.2-25.2,43.3-29.8c0.9-0.2,1-0.7,0.9-1.5
			c-0.4-3.6-0.7-7.2-0.8-10.8c-0.1-1.8,0.8-3.3,2.4-4.7c-0.8,0-1.2,0-1.6,0c-4.5,0-9,0-13.4,0c-0.8,0-1.7,0.1-2.5,0.2
			c-5.7,0.8-11,2.9-16.1,5.2c-4.9,2.2-9.5,4.9-13.3,8.6c-9.4,9.2-13.3,20.8-14.2,33.6c-0.4,6.1-0.1,12.2-0.1,18.3c0,2.2,0,4.3,0,6
			C283.9,102.8,285.5,103.8,287.1,104.9z M399.3,102.2c1.2-0.9,2.5-2.2,4-2.9c1.2-0.5,1.3-1,1.2-2.1c-0.4-3.2-0.8-6.4-1-9.6
			c-0.4-6.5-1-13-2.4-19.4c-1.8-8.2-5.5-15.4-11.6-21.3c-5.3-5.2-11.2-9.6-17.9-13c-5.6-2.9-11.4-4.8-17.8-4.7
			c-2.9,0-5.8,0.3-8.7,0.4c-1.4,0.1-1.9,0.4-2,1.9c0,1.1,0.1,2.2,0.1,3.4c0,3.8,0,7.7,0,11.5c1,0.3,2,0.6,2.9,1.1
			c3.8,1.8,7.6,3.6,11.5,5.5c9.2,4.4,18,9.5,25.3,16.8C392.1,78.8,397.2,89.8,399.3,102.2z M249,494.9c0.2,0,0.4,0,0.6-0.1
			c3.6-0.8,7.3-1.5,10.9-2.3c14.2-3.4,28.3-6.8,42.5-10.2c1.5-0.3,1.8-1.6,1-3c-1-1.7-2-3.5-2.8-5.4c-0.9-2.1-1.6-4.2-2.5-6.6
			c-0.8,3.6-1.6,6.9-2.3,10.2c-0.1,0.3,0.1,0.6,0.2,0.9c0.2,0.8,0,1.6-0.7,1.6c-0.7,0.1-1.8-0.2-2-0.7c-1.5-2.7-2.7-5.4-4.1-8.1
			c-3.2-6.4-6.1-12.9-9.7-19c-4.5-7.6-9.6-14.7-14.4-22.1c-0.1-0.1-0.3-0.2-0.6-0.5C259.7,451.5,254.4,473.2,249,494.9z
			 M325.2,218.7c-0.4-0.3-0.8-0.6-1.1-0.8c-2.7-1.9-5.2-4.2-7.2-6.8c-2.9-3.8-5.9-7.7-8.8-11.5c-0.5-0.7-1-0.8-1.7-0.6
			c-4.1,0.9-8.3,1.8-12.4,2.6c-6.1,1.2-11.9,3.3-17.3,6.4c-0.7,0.4-0.9,0.9-0.8,1.6c0.2,1.7,0.4,3.3,0.6,5c0.5,3.9,2.6,7.1,4.8,10.2
			c6.5,9.1,14.8,16.4,24.1,22.6c0,0,0.1,0,0.3-0.1c-0.4-0.5-0.7-1-1-1.5c-1.5-1.9-1.6-2.3-0.3-4.3c0.3-0.5,0.6-0.9,1-1.3
			c2.7-2.6,5.4-5.3,8.2-7.8C317.9,228.4,321.5,223.6,325.2,218.7z M315.7,166.6c0.2,2.9,0.4,5.8,0.6,8.6c0.2,2.5,0.4,5.1,0.4,7.6
			c0,2.3,0.3,4.4,2.3,6c0.3,0.3,0.6,0.7,0.8,1c3.6,4.7,8.3,7.6,14,9c5,1.3,10,1.5,15.2,0.9c10.5-1.2,17.8-6.8,22.9-15.7
			c0.1-0.2,0.1-0.5,0.1-0.8c-0.1-1.9-0.3-3.7-0.3-5.6c0-1.9,0.1-3.9,0.2-5.8c0.1-1.9,0.3-3.7,0.4-5.7c-0.5,0.1-0.9,0.2-1.2,0.3
			c-3.3,0.9-6.7,1.8-10,2.7c-0.2,0.1-0.4,0.2-0.6,0.4c-2.6,3.9-6.5,5.5-10.9,6.4c-5.5,1.1-11,0.3-16.4-0.9
			c-3.7-0.8-7.5-1.6-10.1-4.5c-1.9-2.1-4.1-3.2-6.7-3.7C316.2,166.7,315.9,166.6,315.7,166.6z M368.8,216.9c1.9,2.4,3.7,4.8,5.5,7.1
			c4.3,5.5,9.4,10.1,15,14.2c0.9,0.6,1.1,1.5,0.5,2.3c-1.1,1.6-1,3.3-0.7,5.1c0.3,1.6,1,3.2,0,4.9c0.5-0.1,0.8-0.2,1.1-0.4
			c4.2-3.2,8.3-6.6,11.5-10.9c5.2-7,8.1-14.6,6.4-23.4c-0.8-4.3-2.1-8.5-5-12c-0.5-0.6-1.2-1-1.9-1.2c-5.6-1.5-11.3-2.9-16.9-4.4
			c-0.4-0.1-1,0.1-1.3,0.4c-1.4,1.5-2.9,3.1-4.2,4.8C375.4,207.8,372.1,212.4,368.8,216.9z M338.9,431.2c0.5,0.4,0.6,0.5,0.7,0.6
			c6.3,4.2,12.6,8.4,18.8,12.6c2.6,1.7,4.8,3.8,6.5,6.5c1.8,2.8,0.6,5.3-2.7,5.3c-2.2,0-4.5-0.4-6.7-0.9c-1.6-0.3-3.1-0.9-4.6-1.4
			c0.7,0.9,1.5,1.7,2.3,2.4c2.3,2.1,4.3,4.4,5.1,7.7c0.9,3.9,1.1,7.8,0.7,11.8c-0.1,1.1-0.2,2.2-0.3,3.4c2.8-1.4,5.5-2.7,8.2-4
			c4.7-2.3,7.4-6.4,9.8-10.7c1-1.9,1.2-4.1,1.8-6.2c0.4-1.5,0.7-3.1,1.3-4.6c0.3-0.7,0.4-1.1,0.1-1.8c-0.7-1.6-1.4-3.3-2.1-5
			c-2.8-6.7-6-13.1-10.4-18.8c-1.3-1.7-2.5-3.7-4.2-4.7c-2.3-1.3-5-2.2-7.8-0.8C350,425.4,344.6,428.2,338.9,431.2z M293.7,148.9
			c-0.2,0.2-0.3,0.4-0.4,0.6c-6.7,7.4-5,18.4,1.1,24.6c3,3.1,6.4,5.7,10.2,7.8c3,1.7,6.3,2.5,9.6,3.5c0-0.4,0.1-0.6,0-0.9
			c-0.3-5.9-0.6-11.9-0.9-17.8c0-0.8-0.4-1.1-1.1-1.4c-2.7-1.1-5.6-2-7.9-3.7C299.9,158.2,296.1,154.3,293.7,148.9z M374.7,165.2
			c0,2.1,0,3.9,0,5.7c0,3.5-0.1,6.9,0,10.4c0,1.8,0.4,2.1,2.1,1.7c3.2-0.8,6.4-1.5,9.5-2.6c6.5-2.3,10.7-6.7,12.2-13.6
			c1-4.3,0.8-8.5,0-12.8c-0.4-2.3-1-4.5-2.5-6.7C392.8,158.2,384.8,163,374.7,165.2z M353.2,249.4c0,1.9,0.1,3.6,0,5.2
			c-0.5,5.2-1.2,10.3-1.8,15.5c-0.9,7.1-1.5,14.3-3.3,21.3c-0.4,1.5-0.7,3-1.2,4.5c-0.2,0.5-0.8,1-1.3,1.1c-0.4,0.1-1.1-0.4-1.3-0.9
			c-0.5-0.8-0.8-1.7-1-2.5c-0.6-3.8-1.2-7.6-1.8-11.4c-1.3-9-2.6-18.1-3.8-27.2c-0.2-1.6-0.3-3.3-0.4-5.1c-0.8,0.9-1.5,1.6-2,2.4
			c-0.2,0.3-0.3,0.9-0.2,1.3c0.3,1.3,0.9,2.6,1.1,3.9c1.3,8.7,2.5,17.4,3.6,26.1c0.6,4.6,1,9.1,1.6,13.7c0.8,6.3,2.5,12.4,4.5,18.4
			c0.2,0.7,0.4,1.5,0.7,2.5c1-3.3,2.1-6.2,2.7-9.2c1.2-5.6,2.2-11.3,3.3-16.9c1.8-9.4,2.7-19,3.3-28.5c0.2-3.9,0.6-7.8,0.9-11.7
			c0-0.3-0.2-0.7-0.4-0.8C355.3,250.5,354.4,250,353.2,249.4z M343.2,229.2c0,0.1-0.1,0.3-0.1,0.5c-1.4,5.4-2.7,10.8-4.1,16.3
			c-0.1,0.5-0.1,1-0.1,1.4c0.6,4.2,1.2,8.3,1.8,12.5c1.1,7.7,2.3,15.3,3.5,23c0.4,2.4,0.7,4.8,1.1,7.2c0.3-0.3,0.4-0.7,0.4-1
			c0.7-4.3,1.6-8.6,2.1-12.9c1.2-9.1,2.1-18.2,3.2-27.4c0.1-0.8-0.1-1.2-0.6-1.8c-2.6-2.8-4.5-5.9-5.5-9.6
			C344.3,234.6,343.8,231.9,343.2,229.2z M308.9,268.9c0.6-1.8,0.4-2.7-1-3.7c-1-0.7-2.2-1.3-3.3-2c-1.7-1.1-2.2-2.5-1.6-4.5
			c0.3-1.1,0.8-2.2,1.2-3.2c-1.6-1-3.2-1.8-4.6-2.9c-8.4-6.1-15.8-13.3-21.9-21.7c-3.7-5.1-6.5-10.5-6.6-17c0,0-0.1-0.1-0.2-0.1
			c-1.7,2.8-2.3,5.9-1.6,9.1c1.1,5,3.4,9.5,6.5,13.6c3.1,4.1,6.4,8.1,9.6,12.2c4,5.2,8.6,9.7,13.9,13.5
			C302.4,264.4,305.6,266.6,308.9,268.9z M309.3,196.6c0.5,0.7,1.1,1.4,1.7,2.2c2.2,2.9,4.4,5.8,6.7,8.6c1.9,2.3,3.8,4.5,5.9,6.6
			c1,1,2.3,1.7,3.7,2.7c3.1-4.9,6.1-9.5,9.4-14.5c-9.1-1.3-15.8-5.6-20.6-13C313.6,191.8,311.5,194.2,309.3,196.6z M345.1,215.9
			c0.2,2.9,0.3,5.7,0.5,8.6c0.3,4.2,0.7,8.4,2.1,12.5c2.4,6.9,6.9,11.5,14.2,13.1c2.4,0.5,3,0.2,3-2.3c0.1-4.6-1.4-8.7-3.7-12.6
			c-2.5-4.3-4.3-8.9-7.5-12.9c-2.7-3.4-4.9-7.1-7.4-10.7c-0.1,0.1-0.3,0.1-0.4,0.2c2.2,5.4,4.4,10.8,6.6,16.2
			c2.2,5.3,4.3,10.7,6.5,16C352.8,235.4,348.2,226.1,345.1,215.9z M381.3,195.9c-2.4-3.1-4.9-6.3-7.4-9.5
			c-4.5,7.2-10.2,12.6-18,14.8c0.7,0.9,1.5,1.9,2.3,3c0.9,1.2,1.7,2.5,2.6,3.7c1.9,2.4,3.8,4.8,5.9,7.4c2.5-3.6,4.8-6.8,7.2-10
			C376.3,202.1,378.8,199,381.3,195.9z M342.1,218.5c-0.1,0-0.2,0-0.3-0.1c-0.1,0.3-0.2,0.6-0.3,0.9c-1,3.6-1.9,7.2-2.9,10.7
			c-1.3,4.6-3.4,8.8-6.7,12.3c-0.2,0.3-0.5,0.5-0.7,0.7c2.9-8.5,6.3-16.8,7.9-25.6c-0.6,0.9-1.1,1.7-1.6,2.6
			c-4.3,7.4-8.5,14.8-12.8,22.3c-0.7,1.2-1.1,2.5-1.4,3.8c-0.8,3.9,1.9,6.8,5.8,6.4c1.8-0.2,3.3-1.1,4.3-2.5
			c1.2-1.8,2.5-3.7,3.1-5.8c1.5-5.2,2.7-10.5,3.9-15.8C341.2,225.1,341.6,221.8,342.1,218.5z M360.8,212.7c0,0.2-0.1,0.3-0.1,0.4
			c0.5,4.5,0.2,8.9-0.7,13.3c0,0.2,0,0.6,0.1,0.8c1.8,3.4,3.6,6.8,5.5,10.4c-0.4-1.8-0.8-3.4-1.1-5c-0.2-1.9-0.3-3.7-0.4-5.6
			c0-0.4,0.4-1,0.8-1.1c0.4-0.1,0.9,0.2,1.3,0.5c0.4,0.4,0.7,0.9,1,1.3c5,7.4,11,13.8,17.8,19.6c0.5,0.4,1,0.8,1.5,1.2
			c0.1-0.6,0.1-1,0-1.4c-0.5-2-0.7-4,0-6c0.3-0.9,0-1.3-0.6-1.8c-4.8-3.9-9.5-8-13.4-13c-1.7-2.2-3.4-4.5-5.2-6.6
			C365.3,217.3,363.1,215.1,360.8,212.7z M308.8,247.7c0,0,0.2-0.1,0.2-0.1c5.4-4.1,10.8-8.2,16.1-12.3c0.3-0.3,0.6-0.7,0.8-1
			c1.4-2.5,2.8-5,4.3-7.5c0.8-1.3,1.7-2.5,0.8-4.1c-0.1-0.2-0.1-0.6-0.1-0.8c0-1.9,0-3.9,0-6.1c-0.4,0.6-0.8,0.9-1.1,1.3
			c-5.8,7.8-11.8,15.3-19.4,21.5c-1.4,1.1-2.6,2.6-3.8,4c-0.3,0.3-0.4,1-0.2,1.3C307.3,245.2,308,246.4,308.8,247.7z M409.8,205.5
			c1.9,3.2,2.9,6.4,3.4,9.8c0.5,3.4,0.9,6.8,0.4,10.3c-0.8,6.7-3.8,12.5-7.9,17.7c-5.4,7-12.2,12.5-19.2,17.8
			c-0.3,0.3-0.7,0.5-1,0.7c0.3,0.9,0.6,1.7,1,2.7c5.6-4.4,11.3-8.5,16.3-13.6c6.6-6.7,11.5-14.4,13.3-23.8c1.1-5.6,1.1-11-1-16.4
			C414.2,208.3,412.4,206.7,409.8,205.5z M330.6,285.2c-3.8,4.9-7.6,9.7-11.4,14.6c1.7,2.8,1.9,4.5,1.2,8.3
			c-0.5,2.7-0.7,5.4-0.9,8.1c-0.1,1.3,0.7,2.2,1.9,2.8C326.5,313.6,331.1,296.8,330.6,285.2z M315.4,287
			c8.4-6.8,10.4-16.3,11.9-26.1c-0.2,0.1-0.3,0.2-0.5,0.4c-4.7,5.3-10.1,9.7-16.3,13.1c-0.9,0.5-1.1,1.8-0.4,2.7
			c0.3,0.3,0.6,0.6,0.9,0.8C313.7,280.2,315.5,283.1,315.4,287z M311,264c3.3-2.3,7.1-7.4,9.3-12.4c0.4-1,0.6-1.9,0.4-3
			c-0.2-1-0.2-2.1,0-3.1c0.3-1.5,0.9-3,1.3-4.4c-4.3,3.2-8.7,6.5-13,9.8c-0.2,0.2-0.4,0.4-0.5,0.7c-0.9,2.3-1.8,4.7-2.7,7
			c-0.6,1.6-0.5,1.9,1,2.8C308.2,262.3,309.5,263.1,311,264z M288.8,119.8c-0.6,0.8-1.2,1.4-1.3,2.1c-0.3,1.5-0.3,3-0.4,4.5
			c0,0.3-0.1,0.7-0.2,1c-0.4-0.2-0.8-0.3-1-0.6c-2-2.7-2-6.3,0.8-8.3c2-1.5,2.3-3.1,2.1-5.2c0-0.4,0.1-0.7,0-1.1
			c-0.2-0.7-0.3-1.6-0.7-2.1c-1.5-1.6-3-3.2-4.6-4.7c-0.9-0.8-1.6-0.7-2.1,0.4c-0.5,1.1-1,2.2-1.2,3.3c-0.9,5,0,9.8,1.5,14.6
			c1.5,4.5,4.5,7.5,8.5,9.6c0.2,0.1,0.5,0.2,0.8,0.3C290.1,129.1,289.4,124.6,288.8,119.8z M366.3,229.7
			c-0.4,7.5,8.5,24.2,14.1,27.4c0.5-1.3,0.8-2.9,1.7-4c0.9-1.2,2.3-2,3.5-3C377.9,244.6,371.6,237.8,366.3,229.7z M372.8,310.6
			c0.7-0.7,1.5-1.2,2-1.9c1.4-2,1.8-4.1,0.3-6.4c-1.2-1.8-2.3-3.7-2.3-6c0-0.3-0.3-0.6-0.5-0.9c-2.4-2.6-4.8-5.1-7.1-7.6
			c-1.3-1.4-2.4-2.9-3.6-4.4C363.9,293.1,365.9,302.7,372.8,310.6z M304.9,254c0.3-0.8,0.4-1.2,0.6-1.6c0.1-0.4,0.3-0.8,0.3-1.2
			c0-0.4-0.2-0.9-0.5-1.1c-8.8-5-16.1-11.8-22.4-19.7c-3.7-4.7-6.8-9.8-8-15.8c-0.3-1.7-0.2-3.5-0.3-5.6c-0.7,0.9-1.5,1.5-1.6,2.2
			c-0.8,5.1-0.4,10,2.9,14.2c0.4,0.5,0.6,1,1,1.5c3.7,4.1,7.1,8.5,11.1,12.3C293.3,244.3,299.1,249,304.9,254z M400.3,114.1
			c0,5.4,0,10.4,0,15.7c0.6-0.9,1.1-1.7,1.6-2.6c1.5-2.9,2.9-5.9,4.4-8.8c1.8-3.5,2.5-7.2,2.3-11c-0.1-1.4-0.6-2.9-1.4-4.1
			c-1.3-2.2-3-2.3-4.7-0.3c-2.2,2.5-2.7,5.5-2.3,8.6c0,0.3,0.5,0.6,0.8,0.7c2.6,0.5,4.3,2.8,3.7,5.5c-0.1,0.5-0.4,1-0.7,1.3
			c-0.6,0.7-1.3,0.5-1.6-0.4c-0.2-0.6-0.3-1.3-0.4-2C401.8,115.7,401.4,114.9,400.3,114.1z M404.5,203.3c1.3,2.1,2.9,4,3.7,6.1
			c2.2,6,2.9,12.3,1.3,18.6c-1.7,6.8-5.4,12.4-10.3,17.3c-4.4,4.4-9.5,8-14.8,11.3c-0.4,0.2-0.8,0.8-0.8,1.1
			c0.1,0.7,0.5,1.5,0.8,2.4c5.8-4.6,11.5-8.9,16.4-14.2c3.7-4,6.8-8.3,9.1-13.2c4.2-9.2,3-18.3-1-27.2c-0.1-0.3-0.4-0.6-0.6-0.7
			C407,204.2,405.7,203.7,404.5,203.3z M367,258.5c0.5,2.4,0.9,5.1,1.5,7.7c1.1,5,2.7,9.9,5.9,14c1.5,2,3.2,3.7,5.4,5
			c0.9-1.2,0.9-1.8,0-2.8c-0.5-0.6-1-1.1-1.5-1.7c-2-2.3-2.4-4.8-1-7.5c0.6-1.2,1.4-2.3,2-3.2C375.1,266.2,371,262.3,367,258.5z
			 M334.6,309.3c-1.8,3.1-3.3,6.2-5.2,9c-0.9,1.4-1.4,2.5-1.1,4.2c0.3,1.8,0.1,3.7,0.2,5.6c0.2,2.4,2.2,4.9,4.5,5.6
			c0.7,0.2,1.2,0.3,1.4-0.7c1-6,1.4-12,0.9-18C335.2,313.2,334.9,311.2,334.6,309.3z M258.9,821.4c-1.5,1.3-1.7,3.1-1.4,4.7
			c0.2,1.4,1.2,2.6,1.9,3.9c0.2,0.4,0.7,0.8,1.2,0.8c3.5,0.5,6.8,1.8,9.9,3.5c0.7,0.4,1.7,0.5,2.4,0.3c2-0.5,3.2-1.9,3.7-3.8
			c0.3-1-0.1-1.8-1.1-1.9c-1-0.2-2-0.1-3.1,0c-0.7,0.1-1.4,0.5-2.1,0.5c-0.6,0-1.4-0.3-1.6-0.7c-0.3-0.4-0.1-1.2,0.1-1.7
			c0.2-0.5,0.6-0.9,0.8-1.4c0.6-1.2,0.4-2.1-0.4-2.6c-1-0.6-2.1-0.3-2.8,0.8c-0.5,0.8-0.9,1.8-1.3,2.7c-0.6,1.2-1.9,1.5-2.6,0.7
			c-0.3-0.3-0.4-0.8-0.6-1.2C261.2,824.3,260.7,822.5,258.9,821.4z M360.4,306.6c-0.1,0-0.2,0-0.3,0c-0.5,2.7-1.2,5.3-1.6,8
			c-0.6,3.6-0.6,7.2,0.2,10.7c0.1,0.4,0.5,1,0.8,1.1c2.4,0.6,4.7,0.1,6.7-1.3c1.2-0.9,1.5-2.1,1.1-3.5c-0.2-0.6-0.4-1.1-0.7-1.7
			c-1.6-3.3-3.1-6.6-4.7-10C361.4,308.9,360.9,307.7,360.4,306.6z M406.1,838.9c0-2-0.5-2.8-1.9-3.2c-1.3-0.4-2.6,0.1-3.3,1.4
			c-0.3,0.6-0.6,1.2-0.9,1.8c-0.4,0.8-1.1,1.3-2,0.9c-0.5-0.2-0.9-0.9-1.1-1.5c-0.6-1.8-1.7-2.3-3.4-1.5c-1.3,0.7-1.6,1.8-1.8,3.2
			c-0.1,0.6-0.6,1.5-1.2,1.7c-0.5,0.2-1.3-0.3-1.9-0.6c-0.4-0.2-0.5-0.7-0.8-1c-0.9-0.7-1.8-1.6-2.9-2.1c-0.5-0.3-1.7-0.2-2,0.2
			c-0.3,0.5-0.3,1.6,0,2.2c0.9,1.3,2.1,2.4,3.2,3.5c0.1,0.1,0.6,0.1,0.9,0c5.2-1.6,10.4-1.6,15.7-0.5c0.4,0.1,1.1-0.1,1.4-0.4
			C405.4,841.8,406,840.3,406.1,838.9z M385.4,847.9c0.7,0.6,1.2,1,1.7,1.4c1.8,1.2,3.9,1.7,6.1,1.9c3.6,0.3,7.1,0.4,10.5-0.9
			c0.8-0.3,1.5-1,2.2-1.5c-0.7-0.7-1.3-1.7-2.1-1.9c-1.9-0.6-3.8-1.1-5.8-1.3c-2-0.2-4-0.1-6,0C389.8,845.8,387.6,846.4,385.4,847.9
			z M349.4,202.6c2.8,1.6,4.6,3.9,5.1,7c0.3,2,0.6,4,0.3,5.9c-0.4,3,1.5,5,3,7.3c0.1-0.4,0.2-0.5,0.2-0.7c0.3-3.7,0.7-7.5,1-11.2
			c0-0.3,0.1-0.7-0.1-0.9c-1.8-2.6-3.3-5.4-6.3-7C351.5,202.4,350.7,202.1,349.4,202.6z M273.7,840.6c0-0.1,0.1-0.3,0.1-0.4
			c-0.3-0.3-0.6-0.7-1-0.9c-0.9-0.6-1.9-1-2.7-1.7c-3.1-2.4-6.7-3.5-10.6-4.1c-1.2-0.2-2.5-0.2-3.6,0.7c1.9,2.5,2.4,3.7,5.9,4
			c0.4,0,0.8,0.2,1.3,0.3c2.3,0.6,4.5,1.2,6.8,1.7C271.2,840.5,272.5,840.5,273.7,840.6z M340.8,203.1c0-0.1-0.1-0.3-0.1-0.4
			c-0.6,0.1-1.5,0.1-1.7,0.4c-1.9,3.4-4.4,6.5-4.8,10.6c-0.2,2.2-0.4,4.5-0.6,6.7c0.1,0,0.3,0.1,0.4,0.1c0.8-1.4,1.7-2.8,2.4-4.2
			c0.4-0.9,0.6-1.9,0.7-2.8C337.4,209.8,337.7,205.9,340.8,203.1z M352,214.2c0-1,0.1-2.1,0-3.1c-0.3-3.2-2-5.4-5-6.5
			c-2.5-0.9-5.4,0.6-5.8,3c0.4-0.5,0.6-0.9,1.1-1.2c1.7-1.2,3.4-2,4.8,0c0.6,0.8,1.2,1.5,1.7,2.3C349.9,210.5,350.9,212.4,352,214.2
			z"/>
		<path class="st0" d="M420.5,493.8c-0.2,3.8-0.4,7.5-0.6,11.2c-0.2,3.6-0.5,7.3-0.6,10.9c-0.4,11.3-0.8,22.6-1.3,33.9
			c-0.3,8.2-0.7,16.4-1.2,24.6c-0.5,8.6-1.2,17.2-1.8,25.8c-0.7,9.1-1.4,18.2-2.1,27.3c-0.3,4.6,0.4,9,1.3,13.5
			c2.7,12.5,5.1,25.1,7.4,37.7c2.1,11.3,4,22.7,5.7,34c1.5,9.9,2.8,19.9,3.9,29.9c1,8.7,1.6,17.5,2.4,26.3
			c0.9,9.5,1.9,19.1,2.8,28.6c0.6,6.1,1,12.2,1.5,18.3c0.4,4.6,1,9.3,1.5,13.9c0.1,0.8,0.2,1.5,0.1,2.3c-0.1,0.4-0.5,0.8-0.8,1
			c-2.5,0.9-4.9,1.9-7.5,2.5c-6.9,1.7-13.8,3.2-20.8,4.8c-0.5,0.1-1,0.1-1.6,0.2c0.5-3.2,0-5.9-3.2-7.1c-2.7-1-5-0.1-6.8,2.1
			c-3.8-2.7-6.7-2.1-9.3,2.1c-4.4-3.9-9.2-3-9.7,2.2c-3.9-1.4-7.8-2.9-11.8-4.4c0.5-0.9,0.8-1.7,1.2-2.5c1.3-2.2,2-4.4,1.9-7
			c-0.3-6.2-0.5-12.5-0.8-18.7c-0.2-4.7-0.3-9.4-0.6-14c-0.5-7-1-14-1.6-21c-0.4-5.2-0.9-10.4-1.5-15.5c-0.8-6.7-1.5-13.5-2.5-20.2
			c-1.1-7.7-2.3-15.3-3.5-23c-1.5-8.9-3-17.7-5.4-26.4c-0.6-2.2-0.9-4.5-1.2-6.8c-0.1-0.9,0.1-1.9,0.2-2.9c0.1-2.5-0.6-3.5-3-4.2
			c-0.2-0.1-0.4-0.1-0.8-0.3c0.6-1.2,1.2-2.3,1.7-3.4c0.6-1.2,1.3-2.3,1.7-3.5c0.7-2.1-0.2-3.5-2.3-4.1c-0.8-0.2-1.9-0.3-2.3-0.8
			c-0.4-0.5,0.1-1.6,0.1-2.4c0.1-6.2,0.2-12.3,0.1-18.5c0-4.3-0.2-8.6-0.3-13c-0.3-8.8-0.8-17.7-1.1-26.5
			c-0.3-6.2-0.5-12.5-0.8-18.7c-0.4-9.6-0.9-19.2-1.4-28.9c-0.3-6.6-0.7-13.3-1-19.9c-0.6-11.3-1.3-22.7-1.9-34.1
			c0.4-0.3,1-0.7,1.7-1.1c1.6,1.4,3.5,2.7,5.7,1.6c1.8-1,2.1-2.9,1.5-5c2.5,0.4,3.6-1.2,4.3-3.1c0.9-2.4,1.6-4.8,2.4-7.4
			c1.1,0.4,2.4,0.7,3.6,1.1c8.8,2.7,17.8,4.5,27,5.4c6.9,0.7,13.8,1.2,20.8,1.9C413.3,492.8,416.9,493.3,420.5,493.8z M380.1,496.3
			c-0.1,0-0.3,0-0.4,0c0,0.4-0.1,0.9-0.1,1.3c0,2.9,0,5.8,0,8.6c0,24.8-0.3,49.6,0.7,74.4c0.4,8.4,0.7,16.8,1.1,25.2
			c0.3,5.8,0.8,11.7,1,17.5c0.3,9.4,0.5,18.9,0.7,28.3c0.1,2.3,0.4,4.6,0.8,6.9c0.1,0.5,0.5,1.1,0.9,1.2c1.3,0.4,1.1,1.1,0.5,1.9
			c-1,1.3-2,2.6-2.9,3.9c-0.9,1.2-0.6,2,0.8,2.6c1.1,0.5,1.7,1.3,2,2.4c0.4,1.6,1.1,3.2,0.6,4.9c-0.1,0.3,0,0.7,0,1.1
			c0.5,4.7,1.1,9.3,1.6,14c0.5,5.4,0.9,10.8,1.3,16.3c0.7,8.8,1.4,17.6,2.1,26.4c0.5,6.2,0.8,12.4,1.3,18.7
			c0.6,8.4,1.2,16.7,1.8,25.1c0.5,7.5,1,14.9,1.5,22.4c0.6,9.1,1.2,18.2,1.9,27.3c0.1,1.6,0.3,3.2,0.6,4.8c0.1,0.5,0.8,0.9,1.2,1.4
			c0.4-0.5,0.9-1,1.1-1.5c0.2-0.5,0.1-1.1,0-1.7c-0.3-4.9-0.6-9.7-0.9-14.6c-0.4-6.1-0.8-12.3-1.2-18.4c-0.4-6.2-0.9-12.4-1.3-18.7
			c-0.5-6.4-0.9-12.8-1.3-19.3c-0.4-6.2-0.9-12.4-1.3-18.5c-0.5-7.1-1-14.1-1.5-21.2c-0.6-7-1.2-13.9-1.9-20.9
			c-0.6-5.7-1.2-11.4-1.8-17.2c-0.3-2.4-0.7-4.8-1.2-7.2c-0.6-2.7-0.8-5.7-3.9-7.2c0.6-0.9,1.2-1.7,1.7-2.5c0.6-1,1.2-2,1.6-3.1
			c0.3-0.8,0.2-1.7-0.6-2.1c-1-0.5-1.2-1.2-1.2-2.1c-0.2-3.4-0.3-6.9-0.4-10.3c-0.5-12.5-1-25-1.5-37.5c-0.3-7.6-0.7-15.3-1-22.9
			c-0.5-14.9-1-29.8-1.4-44.7c-0.3-12.7-0.6-25.3-0.8-38C380,501,380.1,498.6,380.1,496.3z"/>
		<path class="st0" d="M272.7,825.9c0-3.7-0.6-4.9-2.9-5.7c-2.3-0.8-3.8-0.2-6.1,2.6c-0.7-0.9-1.3-1.9-2.1-2.7c-2-2.1-4-1.9-5.7,0.5
			c-0.2,0.3-0.4,0.5-0.5,0.8c-0.1,0-0.3,0-0.4,0c0-0.4-0.2-0.8-0.1-1.2c1-4.1,2-8.2,3.2-12.3c1-3.2,0.1-5.6-2.3-7.7
			c-0.7-0.6-1.3-1.3-2.1-2c0.8-0.5,1.5-0.9,2.2-1.3c3.4-1.6,4.8-4.4,4.9-8.1c0.4-11.3,1.1-22.6,1.2-33.9c0.2-12,0-24.1-0.1-36.1
			c0-4.1-0.1-8.2-0.3-12.4c-0.5-9.9-1-19.7-1.6-29.6c-0.4-6.6-1-13.2-1.5-19.7c-0.9-10.3-2.2-20.5-4.1-30.6
			c-0.9-4.8-1.8-9.6-3.4-14.2c-0.4-1.1,0-2.5,0.2-3.8c1.2-10.6,2.5-21.2,3.5-31.8c1-10.5,1.8-20.9,2.7-31.4
			c0.9-11,1.6-21.9,2.4-32.9c0.4-5.5,0.8-10.9,1.2-16.4c0-0.4,0.4-0.9,0.7-1c3.3-0.9,6.7-1.6,10.2-2.5c-0.2,1.9-0.4,3.6-0.6,5.3
			c-0.5,5.4-1.2,10.8-1.6,16.2c-0.7,8.7-1.3,17.4-1.9,26.1c-0.5,7.6-1,15.2-1.5,22.9c-0.6,9-1.2,18-1.8,27c-0.5,6.9-1,13.8-1.5,20.7
			c-0.2,3.3-0.6,6.6-0.4,9.9c0.2,3.8,0.7,7.6,1.2,11.4c1.3,9.7,2.7,19.3,4,29c1,7.9,2,15.9,2.8,23.8c0.7,6.5,1.2,13.1,1.5,19.6
			c0.6,11.8,1.3,23.6,1.5,35.3c0.2,12.8-0.1,25.7-0.2,38.5c0,6.2-0.1,12.4,0,18.6c0,1.2-0.4,2.1-1.2,2.8c-1.1,1-2.2,1.9-3.2,2.9
			c-1.4,1.5-1.2,2.9,0.5,4.1c0.5,0.4,1.1,0.6,1.6,1c1.1,0.8,1.3,1.6,0.6,2.8c-0.4,0.6-0.8,1.2-1.3,1.7c-1,1.3-1.1,1.7-0.9,3.5
			c2.4-1.2,4-3.1,4.6-5.7c0.4-1.6-0.2-2.9-1.5-3.9c-0.7-0.5-1.3-1-2.2-1.6c0.9-0.8,1.7-1.6,2.6-2.4c1.9-1.6,2.8-3.5,2.8-6.1
			c0-19.7,0.3-39.4,0.1-59.2c-0.1-10.3-0.7-20.7-1.4-31c-0.5-8.3-1.2-16.5-2-24.7c-0.7-6.9-1.5-13.7-2.4-20.6
			c-0.9-7.3-2-14.6-3-21.8c-0.7-4.8-1.6-9.6-2.1-14.5c-0.3-3.3-0.2-6.7,0-10.1c0.4-7.1,1.1-14.2,1.6-21.3c0.6-8.9,1.2-17.8,1.8-26.7
			c0.4-6.6,0.9-13.2,1.3-19.9c0.5-8.7,1.1-17.4,1.6-26.1c0.4-7.5,0.8-14.9,1.3-22.4c0.1-1.6,0.2-3.2,0.3-4.8c0-0.8,0.5-0.9,1.1-1
			c8-1.9,15.9-3.8,23.9-5.7c1.7-0.4,3.5-0.9,5.2-1.3c0.3-0.1,0.7-0.1,1.1-0.2c0.1,4,0.3,7.8,0.4,11.7c0.1,0,0.1,0,0.2,0
			c0-1.5,0-3.1,0-4.6c0-1.6-0.1-3.1,0-4.7c0.1-3.3-0.5-2.4,2.8-3.3c0.5-0.1,1.3,0.1,1.7,0.4c6.1,5.3,13.1,9.1,20.5,12.3
			c1.5,0.6,2.9,0.8,4.3-0.2c-0.6,3.2-1.1,6.5-1.7,9.7c-1.9,10.5-3.6,20.9-5.7,31.3c-1.9,9.6-4.3,19.2-6.2,28.8
			c-2.2,11.1-4.2,22.2-6.2,33.3c-0.6,3.3-1.2,6.7-1.8,10c-0.4,2.5,0,3.4,2.3,4.4c0.9,0.4,1.8,0.9,2.8,1.4c-0.8,1.1-1.6,2.1-2.2,3.2
			c-0.7,1.2-1.1,2.5-1.6,3.8c-0.1,0.3-0.1,0.8,0,1.2c1.1,4.5,1.3,9.1,1.9,13.7c1,7.2,1.8,14.4,2.6,21.7c0.8,6.9,1.5,13.9,2.3,20.8
			c0.9,8,1.9,15.9,2.8,23.9c0.8,7.3,1.7,14.7,2.5,22c0.8,7.5,1.7,15.1,2.5,22.6c0.6,5.9,1.2,11.8,1.8,17.7
			c0.7,7.4,1.3,14.9,1.9,22.3c0.4,5.4,0.7,10.8,1,16.3c0.3,5.3,0.5,10.5,0.8,15.8c0.1,1.2-0.2,1.8-1.4,2.3
			c-5.9,2.7-11.9,4.8-18.3,6.1c-8.9,1.8-17.9,2.7-26.9,1.9c-2.3-0.2-4.7-0.6-7-0.9c-0.2,0-0.6-0.3-0.7-0.5c-1.1-2.7-2.4-3.6-5.3-3.6
			C273.6,825.9,273.2,825.9,272.7,825.9z"/>
		<path class="st1" d="M360.3,166.7c-0.4-3.8-0.8-7.5-1.3-11.1c0-0.2-0.3-0.6-0.5-0.6c-0.2,0-0.6,0.2-0.6,0.4
			c-0.1,0.8-0.3,1.6-0.2,2.4c0.2,2.9,0.5,5.8,0.7,8.7c0,0.6-0.2,1.3-0.6,1.8c-2.4,3.2-6,4.4-9.8,5c-6.4,1-12.6-0.4-18.8-2.1
			c-2.5-0.7-4.5-2.2-6-4.2c-0.8-1.1-1-2.7-1.1-4.1c-0.2-2.6-0.1-5.2-0.1-7.8c0-0.3,0.1-0.7,0-1c-0.1-0.4-0.4-0.7-0.7-1.1
			c-0.2,0.4-0.6,0.7-0.6,1.1c-0.3,3.6-0.6,7.2-0.9,10.9c-1.1-0.3-2.2-0.5-3.2-0.9c-2.7-1-5.4-1.9-8.1-3.1c-1.7-0.8-3.4-1.8-4.8-3.1
			c-2-1.9-3.8-4-5.7-6c-1.7-1.9-2.2-4.2-2.6-6.6c-1-5.6-2.2-11.1-3.1-16.7c-0.7-4.3-1.1-8.6-1.6-13c-0.3-2.3-0.6-4.6-1-6.9
			c-0.1-0.4-0.3-0.8-0.6-1c-0.7-0.5-1.1-1.2-0.8-2.1c0.3-1.2,0.7-2.4,1-3.7c0.7-2.5,1.5-5,2-7.5c1.7-7.6,5.6-13.9,10.5-19.8
			c6.7-8,14.7-14.5,23.7-19.6c5-2.8,10.4-4.4,15.9-6c0.3-0.1,0.8,0,1.1,0.1c2.2,0.9,4.4,1.7,6.5,2.8c7,3.5,14.1,6.6,20.7,10.9
			c11.1,7.3,19.5,16.8,23.9,29.6c0.9,2.8,1.5,5.7,2.3,8.6c0.4,1.4,1.1,2.8,1.5,4.3c0.2,0.7,0.1,1.5,0,2.2c-0.1,1.5-0.5,3-0.4,4.5
			c0.3,7.7,0.4,15.3-0.9,22.9c-0.8,4.5-2,8.8-3.7,13c-1.3,3.2-2.9,6.5-5.6,8.7c-2.1,1.7-4.5,3.1-7,4c-5.9,2.1-12,3.7-17.9,5.6
			C361.7,166.3,361,166.5,360.3,166.7z M352.7,111.2c-0.1-0.1-0.2-0.1-0.3-0.2c0.2-1,0.4-1.9,0.7-2.9c0.6-2.2,1.9-3.6,4.2-3.9
			c1.5-0.2,3.1-0.3,4.6-0.4c0.4,0,0.7-0.3,1.1-0.4c-0.3-0.3-0.7-0.8-1-0.8c-2,0-4,0-5.9,0.3c-1.8,0.3-3.2,1.5-3.9,3.2
			c-1.4,3.4-1.7,7-1.2,10.5c0.7,4.4,3.2,8.1,6.3,11.4c0.4,0.5,1,0.9,1.5,1.2c0.4,0.2,0.9,0.2,1.4,0.2c-0.1-0.4,0-1-0.2-1.3
			c-0.8-1.3-1.8-2.5-2.6-3.8c-1.5-2.3-3-4.6-4.5-7c-0.3-0.5-0.4-1-0.6-1.6c0.1-0.1,0.2-0.2,0.2-0.2c3.2,2.7,6.9,3.6,10.8,3.1
			c3.9-0.4,7.7-1.5,10.3-5.1c1,0.6,2,1.3,3,2c0.7,0.4,1.6,0.8,2.4,1.1c0.2,0.1,0.6,0,0.8-0.2c0.1-0.1,0.1-0.6,0-0.7
			c-0.7-0.9-1.2-2-2.1-2.7c-3.7-2.8-8-4.3-12.5-5.3c-1.6-0.3-3.2-0.5-4.7-0.6C357.2,106.9,354.5,108.2,352.7,111.2z M327,111.6
			c-3.1-3.5-4.5-4.2-9-4.1c-7.4,0.1-13.5,3.4-19,8.1c-0.3,0.3-0.3,0.9-0.4,1.4c0.5,0.1,1.1,0.3,1.5,0.2c1.3-0.6,2.4-1.4,3.6-2.1
			c1.1-0.6,2.2-1.3,3.3-2c2,3.6,5,5.1,8.7,5.5c3.6,0.4,6.9-0.6,10.2-2.2c-1.9,3.7-3.9,7.4-5.9,11c-0.2,0.3-0.2,0.7-0.3,1
			c0.4,0,0.9,0.2,1.2,0c0.8-0.6,1.6-1.3,2.1-2.1c1.4-2.1,2.8-4.3,3.9-6.6c2-4.4,2.1-8.7-0.3-13.1c-2.5-4.5-5.6-5.9-10.6-4.5
			c-0.9,0.3-1.7,0.7-2.5,1.1c-0.2,0.1-0.2,0.5-0.3,0.8c0.3,0.1,0.6,0.2,0.8,0.2c0.2,0,0.4-0.2,0.6-0.3c3.1-1.5,6.3-1.3,8.4,1
			c1.3,1.4,2.2,3.1,3.3,4.7C326.7,110.2,326.7,110.8,327,111.6z M353.7,138.6c0.7,2.4,1.4,4.7,2.1,6.9c0.1,0.4,0.5,0.6,0.8,0.9
			c0.1-0.4,0.4-0.8,0.3-1.2c-0.6-4.6-1.9-9-3.7-13.2c-1.8-4-3.7-8.1-5.6-12.1c-0.2-0.3-0.7-0.5-1-0.7c0,0.4-0.2,0.8-0.1,1.1
			c1.8,4.4,3.6,8.9,5.5,13.3c0.5,1.1,0.3,2.2-0.5,3c-0.7,0.7-1.5,1.5-2.5,1.8c-2.8,0.8-5.6,1.7-8.5,2.1c-3.4,0.5-6.7-0.1-9.7-1.9
			c-1.7-1-2.5-3.3-1.9-5.2c1.4-4.2,2.8-8.5,4.2-12.7c0.1-0.3,0.2-0.7,0.2-1c0-0.2-0.2-0.6-0.4-0.6c-0.2-0.1-0.5,0.1-0.7,0.3
			c-0.2,0.2-0.2,0.5-0.3,0.8c-1.1,2.8-2,5.5-3.2,8.3c-1.8,4.4-3.7,8.8-4.5,13.5c-0.4,2.1-0.8,4.2-1.1,6.4c0,0.3,0.3,0.6,0.4,1
			c0.2-0.3,0.6-0.5,0.7-0.8c0.2-0.7,0.3-1.5,0.5-2.2c0.8-2.7,1.5-5.5,2.3-8.2c1.2,2.4,3.1,3.6,5.3,4.3c3.9,1.3,7.9,1.3,11.9,0.4
			C347.6,142,351,141.4,353.7,138.6z M337.8,156.4c0-0.1,0-0.1,0-0.2c2.2-0.1,4.3-0.2,6.5-0.3c3.9-0.2,7.8-0.3,11.6-1.4
			c1.2-0.4,2.1-1.1,2.5-2.2c0.2-0.5-0.1-1.3-0.4-1.6c-0.5-0.5-1.1-0.1-1.6,0.5c-0.5,0.5-1.1,1-1.7,1.1c-1.9,0.4-3.8,0.7-5.8,0.8
			c-6.2,0.4-12.4,0.9-18.7,0.1c-2.1-0.2-4.2-0.2-5.9-1.8c-0.2-0.2-1.2-0.1-1.6,0.2c-0.7,0.5-0.5,1.7,0.4,2.2
			c1.1,0.6,2.2,1.2,3.4,1.4C330.3,155.7,334.1,156,337.8,156.4z M357.8,97.7c-2.5,0.2-4.5,0.3-6.5,0.5c-0.3,0-0.9,0.4-0.9,0.7
			c0,0.3,0.3,0.9,0.6,1c0.7,0.3,1.5,0.5,2.3,0.5c4.3,0.3,8.7,0.4,13,0.7c4.3,0.3,8.5,1.1,12.1,3.6c0.3,0.2,0.7,0.4,1,0.4
			c0.5-0.1,1.1-0.3,1.4-0.6c0.2-0.3,0-1-0.2-1.4c-0.1-0.3-0.5-0.5-0.8-0.7c-2.5-1.7-5.2-2.9-8.1-3.3
			C366.9,98.6,362.1,98.1,357.8,97.7z M324.2,98.1c-4.4,0.4-9,0.6-13.6,1.2c-3.7,0.4-7.3,1.4-9.6,4.8c-0.2,0.2-0.4,0.6-0.3,0.8
			c0.1,0.2,0.5,0.4,0.8,0.3c0.9-0.2,1.9-0.4,2.7-0.9c1.8-1.1,3.7-2,5.8-2.2c5.2-0.5,10.4-0.8,15.6-1.2c0.8-0.1,1.6,0,2.2-0.2
			c0.5-0.2,0.9-0.8,1.3-1.2c-0.4-0.4-0.7-1-1.2-1.1C326.7,98.2,325.6,98.2,324.2,98.1z M342.8,94.7c0-3.3-1.9-5.2-5.1-5.1
			c-1.9,0.1-3.4,1.4-3.4,3.3c0,1.2,0.1,2.4,0.5,3.5c0.8,2.4,2.9,3.7,4.8,3.4c1.9-0.3,3.2-2.2,3.3-4.8
			C342.8,94.8,342.8,94.7,342.8,94.7z"/>
		<path class="st2" d="M294.3,474.4c-1.9-4-3.6-7.7-5.4-11.5c-4.6-9.7-10.2-18.9-16.4-27.7c-6.3-8.9-12.4-18-18.1-27.3
			c-2.9-4.7-6.3-9.1-9.4-13.6c-2.5-3.6-4.8-7.5-7.6-10.9c-1.5-1.9-1.9-3.6-1.5-6c1.2-6.8,2.2-13.7,3.1-20.6
			c1.2-8.4,2.4-16.9,3.3-25.3c1-9,1.7-18,2.5-27c0.7-7.4,1.3-14.7,1.9-22.1c0.4-5,0.6-10,1-15c0.6-7.8,1.3-15.7,2.1-23.5
			c0.8-7.1,1.9-14.3,2.9-21.4c0.2-1.2,0.3-2.4,0.7-3.5c1-3.3,3.3-5.1,6.7-5.5c2.7-0.3,5.4-0.5,8.1-0.8c-0.2,0.5-0.4,1.1-0.7,1.7
			c-1.6,3.6-1.6,7.4-0.5,11.1c1.8,6,5.1,11.2,9.1,15.9c0.5,0.7,0.6,1.2,0.5,2c-1.3,7.3-2.7,14.5-3.7,21.8c-0.7,4.9-0.9,9.9-1.2,14.8
			c-0.4,6.6,0.8,13,3.4,19c1.7,3.9,3.3,7.9,5.1,11.8c3.4,7.2,4.2,14.7,2.3,22.4c-1.8,7.1-3.5,14.1-5.2,21.2c-0.1,0.3-0.2,0.5-0.3,1
			c-3.6-9.5-7-18.7-10.4-27.7c-0.6,1.7,2.7,14.6,6.4,25.1c-4.2-2.3-8.4-4.6-12.6-7c0,0,0,0,0,0.1c2.8,2.3,5.5,4.5,8.3,6.8
			c-0.1,0.1-0.1,0.3-0.2,0.4c-3.9-0.5-7.8-1.5-11.7,0.3c1.5,1.3,3.3,1.4,5,1.7c3.9,0.6,7.8,1.2,11.7,1.8c1.1,0.2,1.8,0.8,2.2,1.9
			c2.4,6.3,4.8,12.7,7.5,18.9c3.1,7.4,6.7,14.6,12,20.7c4.9,5.6,10.1,11,15.2,16.5c2.1,2.2,4.1,4.5,6.2,6.6c0.5,0.5,0.5,0.9,0.1,1.4
			c-5.1,6.9-9.2,14.3-13,21.9c-3.9,7.8-6.4,16.2-8.2,24.7C295,471.1,294.7,472.5,294.3,474.4z"/>
		<path class="st2" d="M387.8,467.1c-2.1-8.4-5.1-16.2-8.5-23.8c-3.5-7.7-7.5-15-13.4-21.2c1.9-1.6,3.8-3.1,5.6-4.8
			c6.4-6.2,12.7-12.5,19-18.8c6.3-6.4,12-13.3,17.7-20.2c5.2-6.5,10.6-12.8,16.7-18.5c0.5-0.5,0.9-1,1.1-1.7c0.3-1-0.4-1.7-1.4-1.3
			c-0.7,0.3-1.3,0.7-1.9,1.3c-3,3.1-5.9,6.2-8.9,9.3c-0.2,0.2-0.4,0.5-0.9,0.6c0-0.5,0-1,0.1-1.5c2-8.5,4-17,5.9-25.6
			c0.6-2.5,0.6-5.1,0.8-7.7c0.1-0.8-0.2-1.6-0.6-2.3c-2.8,7.7-3.8,15.7-6.1,23.4c0.1-2.6,0.3-5.2,0.3-7.8c0-2.6,0-5.2-0.1-7.8
			c-0.1-2.6-0.4-5.2-2-7.6c-0.9,10.2-0.5,20.4-0.1,30.8c-0.3-1-0.6-1.7-0.8-2.5c-0.3-0.8-0.6-1.6-0.8-2.4
			c-2.3-7.1-4.7-14.2-6.9-21.4c-0.9-3-1.5-6.1-1.9-9.1c-0.4-2.8,0.4-5.5,1.5-8c2.4-5.1,4.9-10.1,7.4-15c2.3-4.5,4.4-9.1,5.8-13.9
			c2.1-6.9,1.8-13.7-0.1-20.6c-1.3-4.5-2.8-8.9-4.1-13.4c-0.7-2.2-1.2-4.5-1.7-6.7c-0.1-0.6,0.1-1.4,0.5-1.8
			c5.2-6.5,8.1-14,9.4-22.2c0.6-3.7,0.4-7.5-0.4-11.2c0-0.2-0.1-0.4-0.1-0.8c1.7,0,3.4-0.3,5,0.1c2.6,0.6,5.2,1.5,7.7,2.5
			c1.8,0.7,2.8,2.1,3,4.2c0.2,3.2,1.1,6.4,1.2,9.6c0.2,5.3,0,10.6,0.2,15.8c0.2,7.4,0.5,14.8,1,22.2c0.5,7.1,1.2,14.2,2,21.2
			c0.7,6.7,1.6,13.4,2.6,20.1c0.9,6.6,1.8,13.2,2.9,19.8c1.6,9.8,3.4,19.5,5.2,29.2c1.4,7.6,3,15.2,4.4,22.8c0.2,0.8-0.2,2-0.7,2.7
			c-1.9,2.8-3.9,5.6-6.1,8.3c-11.6,14.2-23.3,28.3-34.8,42.5c-4.8,5.9-9.2,12.1-13.8,18.2c-3.1,4.1-6.1,8.2-9.2,12.3
			C388.8,465.1,388.4,466,387.8,467.1z"/>
		<path class="st2" d="M308,271.4c-0.3,1.2-0.7,2.4-0.9,3.6c-0.4,1.9,0.3,3.4,1.8,4.7c1.2,1.1,2.2,2.4,3.1,3.8c1,1.4,0.8,3,0.3,4.6
			c-0.8,2.4-1.6,4.9-2.4,7.3c-0.9,2.9-0.2,4,2.8,4.7c0.7,0.1,1.3,0.3,2,0.4c2.2,0.5,3.3,1.7,3.2,3.9c-0.1,1.9-0.6,3.9-0.8,5.8
			c-0.2,2.2-0.4,4.4-0.3,6.7c0.1,2.7,3.1,5.7,6.3,4.8c0.3-0.1,0.7-0.1,1.1-0.1c1-0.1,1.5,0.3,1.5,1.3c0,1.9,0,3.9,0.2,5.7
			c0.4,3.8,2.7,6.3,6.1,7.8c1.8,0.8,3.5,0.4,4.9-1.1c0.7-0.7,1.2-1.5,1.9-2.1c0.4-0.4,1-0.6,1.6-1c0.2,0.6,0.6,1.2,0.6,1.8
			c-0.1,8.6-0.3,17.2-0.5,25.8c-0.3,17-0.5,34-0.8,51c-0.1,5.3,0,10.6,0.1,15.8c0,0.9-0.3,1.4-1,1.9c-1.7,1.2-3.1,1.2-5,0.2
			c-2-1.1-4.4-1.5-6.6-2.2c-0.4-0.1-0.8,0.1-1.2,0.1c-2.6-0.2-5.2-0.4-8-0.7c0.7-1.1,1.3-2.1,2-3.1c0.8-1.2,0.6-1.8-0.6-2.5
			c-0.4-0.2-0.7-0.5-1-0.8c-7.1-7.6-14.2-15.2-21.1-22.9c-4.6-5.1-7.7-11.3-10.5-17.5c-2.7-6.2-5-12.6-7.5-18.9
			c-0.2-0.5-0.1-1.2,0-1.8c1.7-7.1,3.5-14.3,5.3-21.4c1.2-4.9,2.1-9.8,1.6-14.9c-0.5-4.7-1.9-9-3.9-13.3c-2.9-6.2-5.9-12.4-7.2-19.1
			c-0.6-3.3-0.6-6.8-0.5-10.3c0.1-9.6,1.6-19.1,3.3-28.5c0.3-1.8,0.7-3.7,1.1-5.8c4.3,5.3,8.2,10.6,13.1,14.9
			C297,264.2,302.4,268,308,271.4z"/>
		<path class="st2" d="M407,250.4c0.8,2.7,1.5,5.3,2.2,7.9c1.4,4.9,3,9.8,4.2,14.7c1.6,6.6,0.8,13.2-1.9,19.4
			c-2.5,5.8-5.5,11.4-8.2,17.1c-1.6,3.3-3.1,6.6-4.4,10c-1.5,3.8-1.4,7.8-0.2,11.7c2.3,7.7,4.6,15.3,7,22.9
			c1.3,4.1,2.6,8.1,3.9,12.2c0.2,0.5,0.1,1.2,0,1.7c-0.4,1.8-0.9,3.6-1.4,5.4c-0.1,0.4-0.3,0.7-0.6,1c-10.8,14.1-23.2,26.7-36,39
			c-2.4,2.3-4.9,4.3-7.5,6.4c-0.3,0.3-1,0.4-1.5,0.2c-2.9-1-5.8-1.3-8.6,0.1c-3.4,1.7-6.6,3.6-10,5.5c-0.4,0.2-0.8,0.4-1.4,0.7
			c-0.1-0.6-0.2-1.1-0.2-1.6c0.1-12.6,0.2-25.3,0.3-37.9c0.1-6,0.2-12,0.3-18c0.2-9.9,0.3-19.8,0.5-29.6c0-0.4,0-0.8,0.1-1.3
			c1.8,1.1,3.6,1.5,5.6,1c3.6-0.8,5.4-3.1,5.5-7.2c0.1-2.3,0.5-2.7,2.9-2.6c1.9,0.1,3.9,0.1,5.8,0c0.7,0,1.3-0.3,1.9-0.6
			c4.4-1.9,5.6-5,3.7-9.4c-1.2-2.7-1.1-3.1,1.6-4.6c1.2-0.6,2.3-1.2,3.5-1.8c2.5-1.4,3.8-3.7,4.4-6.4c0.3-1.5,0.1-3-0.7-4.4
			c-0.3-0.5-0.6-1.1-0.9-1.6c-2.2-3.3-1.9-5.9,1-9.3c0.8-1,1.9-1.8,2.8-2.8c0.6-0.7,1.3-1.5,1.7-2.3c0.9-1.7,0.7-3.4-0.5-4.9
			c-0.5-0.6-0.9-1.1-1.4-1.6c-2.1-2.1-1.9-4.1-0.2-6.3c0.7-1,1.7-1.9,2.8-2.7c4.7-3.7,9.6-7.2,14.3-11c2.9-2.4,5.5-5.1,8.3-7.7
			C406.1,251.4,406.5,251,407,250.4z"/>
		<path class="st3" d="M406.4,845c0.6-1.6,1.7-1.9,3.3-2.1c4-0.5,8-1.4,12-2.2c1-0.2,1.4-0.1,1.7,1c1.6,6.1,3.6,12.2,5,18.4
			c1,4.6,1.2,9.3,1.7,14c0.2,1.6,0,3.2,0,4.8c0.2,4.3-2,6-5.3,7.1c-8.7,2.7-17.5,4.6-26.6,5.6c-5.3,0.6-10.7,0.9-16,0.7
			c-4.6-0.1-9.4-0.1-13.9-1.6c-2.4-0.8-4.7-1.9-7.1-2.9c-0.3-0.1-0.5-0.3-0.8-0.6c-2.9-2.8-2.8-3.1-0.7-6.1c3.1-4.5,6.2-8.9,9-13.6
			c3-5,5.8-10.2,8.4-15.4c1.4-2.7,2.3-5.7,3.4-8.5c0.1-0.3,0.2-0.6,0.3-0.8c1,0.9,2,1.9,3,2.8c-1.6,2.4-1.3,3.9,1.1,5.7
			c2.4,1.8,5.2,2.5,8.2,2.8c4,0.4,7.9,0.3,11.7-1.1c0.8-0.3,1.7-0.8,2.4-1.3c1.7-1.3,2-2.9,0.7-4.7C407.5,846.2,407,845.6,406.4,845
			z"/>
		<path class="st1" d="M363.2,453.2c-2,0.5-3.7,0.3-5.3-0.2c-3.4-1.1-6.7-2.5-10.1-3.7c-0.7-0.3-1.5-0.6-2.3-0.7
			c-1.1-0.2-2.1-0.5-3-1.4c-0.2-0.2-0.8-0.2-1.2-0.3c0,0.4-0.1,1,0.1,1.3c1.8,2.1,3.5,4.1,5.4,6c1.9,1.9,4,3.7,6,5.5
			c2.2,2.1,2.9,4.8,3.3,7.6c0.6,4.8,0.2,9.5-0.6,14.2c-0.5,2.8-1.3,5.6-2,8.4c-0.2,0.6-0.6,1.2-1,2.1c-0.6-1.1-1.2-1.8-1.4-2.5
			c-0.6-2.5-1.1-5.1-1.4-7.6c-0.5-3.9-0.8-7.8-1.3-11.7c-0.2-1.9-1.1-3.6-2.6-4.7c-3.6-2.5-7.2-4.8-10.9-7.2c-1-0.6-2.1-1.2-3.2-1.7
			c-0.7-0.3-1.6-0.6-2.1,0.3c-0.5,1,0.2,1.6,0.9,2c2.8,1.7,5.7,3.2,8.5,5c1.8,1.1,3.4,2.4,5,3.7c1.1,0.8,1.6,2,1.7,3.3
			c0.5,5,1,10,1.6,15c0.4,3.1,1,6.1,1.6,9.2c0.1,0.4,0.1,0.7,0.1,1.1c0,0.7-0.5,1.1-1.1,0.7c-0.7-0.4-1.4-0.8-1.9-1.4
			c-0.9-1.1-1.7-2.2-2.4-3.4c-3.6-6.2-7.2-12.4-10.6-18.7c-1-1.9-2.1-3.6-3.9-4.9c-2.1-1.6-4.1-3.2-6.2-4.7
			c-0.3-0.2-0.8-0.1-1.2-0.2c0,0.4-0.1,1,0.1,1.3c0.8,1.2,1.6,2.4,2.8,3.3c3.4,2.5,5.7,5.8,7.6,9.6c2.7,5.4,6,10.5,9.1,15.8
			c0.4,0.7,0.8,1.4,1.3,2.2c-0.8,0.7-1.7,0.3-2.5-0.1c-1.6-1-3.3-1.9-4.7-3.2c-4.3-4-8.5-8.2-12.8-12.3c-2.1-2-4-4.1-6.1-6.1
			c-0.7-0.7-1.6-1.7-2.5-0.8c-0.9,0.9-0.1,1.9,0.6,2.6c5.9,5.9,11.8,11.8,17.6,17.6c0.2,0.2,0.5,0.4,0.7,0.6c0,0.1,0,0.2-0.1,0.3
			c-0.7-0.1-1.5,0-2.1-0.3c-8.1-3.4-15.6-7.8-22.1-13.8c-4.1-3.8-5.6-8.8-7.3-13.8c-0.5-1.3-0.3-2.9-1.4-4c-0.2-0.2,0-0.8,0.1-1.1
			c2-7.6,5.2-14.7,9.1-21.6c2-3.6,4.2-7,6.2-10.5c0.4-0.7,0.8-0.9,1.6-0.9c2.7,0.1,5.3,0,8,0c1,0,2,0.3,3,0.6
			c5.5,1.7,10.2,4.8,14.9,7.9c4.1,2.8,8.2,5.5,12.3,8.2c2.7,1.8,5.2,3.7,7.1,6.3C362.6,452.1,362.8,452.6,363.2,453.2z"/>
		<path class="st3" d="M274.5,837c2.2-1,3.6-2.5,4.4-4.7c11.9,2.9,23.7,1.4,35.6-0.5c0.2,1.9,0.4,3.8,0.5,5.7c0,3.7-0.1,7.4-0.1,11
			c0,3.7-0.9,7.3-1.8,10.8c-0.1,0.5-0.4,1-0.4,1.5c0,1.4-0.8,2.2-1.9,2.6c-1.6,0.5-3.2,0.9-4.9,1.1c-2,0.3-4,0.5-6.1,0.7
			c-0.4,0-0.9,0-1.3-0.1c-2.2-0.3-2.3-0.6-2.5-2.7c-0.3-3.1-3-7-7.5-5.5c-3.8,1.2-7.6,2.5-11.2,4.2c-9,4.2-18.3,6.9-28.1,8.6
			c-7.2,1.2-14.3,2.4-21.7,1.9c-6-0.4-11.6-2.2-16.8-5.2c-2.9-1.7-3.1-3.1-0.3-5c2.2-1.5,4.6-2.6,7-3.6c5.6-2.2,11.3-4.2,17-6.2
			c7.9-2.9,15.4-6.6,22.2-11.6c0.5-0.4,0.9-0.4,1.6-0.2c4.2,1.2,8.4,2.4,12.7,3.3c1.3,0.3,2.9,0,4.2-0.4c2-0.6,2.3-2.5,1-4
			C275.8,838.2,275.2,837.7,274.5,837z"/>
		<path class="st2" d="M359.7,481.1c12.2-3.6,20.1-11.2,22-24.1c0.1,0,0.2,0.1,0.3,0.1c0.5,1.4,1,2.7,1.4,4.1c1,3.1,1.8,6.2,2.8,9.3
			c0.2,0.6,0.8,1.4,1.3,1.4c0.6,0,1.4-0.6,1.7-1.1c1.5-2.5,2.6-5.2,4.2-7.5c2.9-4.1,6.2-8,9.3-12.1c4.5-5.9,8.9-11.8,13.4-17.7
			c1.5-1.9,3.1-3.7,4.8-5.6c2.1,21.9,4.3,43.8,9.6,65.5c-1.4-0.3-2.5-0.6-3.7-0.9c-6.6-1.7-13.3-2.5-20-3.1
			c-10.7-1-21.4-1.6-31.8-3.9c-4.6-1-9.1-2.4-13.7-3.6c-0.5-0.1-1-0.4-1.5-0.5C359.8,481.3,359.7,481.2,359.7,481.1z"/>
		<path class="st4" d="M321.6,251.8c4.2,4,6.7,4.5,11.8,2.1c0.1,1.2,0.2,2.5,0.3,3.7c0.8,6.4,1.6,12.8,2.3,19.1
			c0.6,5,1.2,10.1,1.7,15.1c0.8,8.4,2.5,16.6,5.2,24.6c0.4,1.3,0.4,2.7,0.8,4c0.2,0.6,0.7,1.4,1.2,1.6c0.6,0.3,1.7,0.3,2.1-0.1
			c0.8-0.8,1.6-1.8,1.9-2.8c2.9-8.5,4.8-17.1,6-26c0.7-4.9,1.6-9.7,2.1-14.6c0.6-6.1,1-12.3,1.4-18.4c0.2-2.6,0.3-5.3,0.4-8
			c0.8,0.2,1.6,0.4,2.3,0.6c0.8,0.2,1.7,0.3,2.5,0.3c2.1-0.1,3.3-1.1,3.7-3.2c0.6-2.6,0.2-5.1-0.4-7.6c0-0.2-0.1-0.4,0-0.6
			c0.5,1.2,1,2.3,1.6,3.5c3.1,6.5,7.4,12.1,13.3,16.4c1.9,1.4,2.1,3.4,0.7,5.2c-0.6,0.8-1.3,1.4-2,2.2c-1.5-1.2-2.9-2.4-4.3-3.6
			c-3.2-2.9-6.5-5.8-9-9.4c-0.3-0.4-0.9-0.6-1.4-1c-0.2,0.5-0.7,1.1-0.7,1.6c0.6,4.2,1.2,8.4,2,12.5c0.8,4,2.2,7.7,4.5,11.1
			c1.7,2.6,3.9,4.7,7,6.2c-2.5,2.3-4.8,4.4-5.8,8c-1.9-2.1-3.7-3.9-5.3-5.8c-2.1-2.4-4.1-4.9-6.2-7.3c-0.3-0.4-1-0.5-1.5-0.7
			c-0.1,0.5-0.5,1-0.4,1.5c1.4,7.3,3.1,14.4,6.2,21.2c1.3,2.9,3,5.5,5.4,7.7c-2.1,1.4-4.7,2.2-5.6,5.1c-0.5-1-0.8-1.8-1.2-2.5
			c-1.2-2.9-2.4-5.8-3.6-8.6c-0.1-0.3-0.5-0.8-0.7-0.8c-0.4,0-0.7,0.4-1,0.6c-0.1,0.1-0.2,0.3-0.2,0.4c-2.5,6.2-3.8,12.6-2.9,19.3
			c0.1,0.5,0.2,1.1,0.3,1.7c-0.5,0.1-1.1,0.2-1.5,0.4c-1.6,0.6-2.6,1.6-2.7,3.3c-0.1,0.9-0.1,1.8-0.2,2.6c-0.2,2.1-1.4,3.4-3.5,3.6
			c-2.2,0.3-3.3-0.3-4.1-2.5c-0.3-0.7-0.5-1.4-0.8-2c-1.2-2.6-3.7-3.2-5.9-1.4c-0.2,0.1-0.4,0.3-0.7,0.5c0.2-2,0.4-3.9,0.5-5.8
			c0.3-5.2-0.2-10.3-1.5-15.3c-0.1-0.3-0.1-0.6-0.3-0.8c-0.4-0.5-0.9-1-1.3-1.5c-0.4,0.5-0.9,1-1.1,1.5c-1.5,3.8-3.5,7.3-5.8,10.6
			c-0.8-0.4-1.5-0.7-2.3-1c0,0,0-0.2,0-0.3c3.6-5.1,5.1-11,6.2-17.1c1-5.5,1.4-11.1,1.3-16.7c0-0.8-0.1-1.5-0.4-2.2
			c-0.1-0.4-0.6-0.9-1-1c-0.4-0.1-1,0.3-1.2,0.7c-3.9,5.2-7.7,10.3-11.5,15.5c-0.6,0.8-1,1-2,0.6c-1.3-0.5-2.8-0.7-4.3-1.1
			c0.8-2.5,1.6-4.8,2.4-7.2c0.1-0.2,0.4-0.4,0.6-0.5c4.4-2.2,7.2-5.8,9.2-10.1c2.6-5.4,4.1-11.1,4.6-17.1c0.1-1.5,0.3-3,0.4-4.5
			c0-0.3-0.2-0.8-0.5-0.9c-0.2-0.1-0.7,0.2-1,0.4c-2.6,2.6-5,5.3-7.7,7.7c-3,2.7-6.2,5.1-9.6,7.6c0.1-0.4,0.3-0.8,0.4-1.2
			c0.5-1.6,1.1-3.1,0.7-4.8c-0.1-0.2,0.1-0.6,0.3-0.8c4.2-3.7,7.1-8.3,9.2-13.4C321.4,251.9,321.5,251.9,321.6,251.8z"/>
		<path class="st5" d="M287.1,104.9c-1.6-1.1-3.2-2.1-5.1-3.4c0-1.7,0-3.8,0-6c0-6.1-0.3-12.3,0.1-18.3c0.9-12.7,4.8-24.4,14.2-33.6
			c3.8-3.7,8.5-6.4,13.3-8.6c5.2-2.3,10.5-4.4,16.1-5.2c0.8-0.1,1.7-0.2,2.5-0.2c4.5,0,9,0,13.4,0c0.4,0,0.8,0,1.6,0
			c-1.6,1.4-2.5,2.9-2.4,4.7c0.2,3.6,0.5,7.2,0.8,10.8c0.1,0.9,0,1.3-0.9,1.5c-18.1,4.6-31.9,15.3-43.3,29.8
			c-5.3,6.8-7.9,14.5-9.5,22.7C287.6,101.1,287.3,103,287.1,104.9z"/>
		<path class="st5" d="M399.3,102.2c-2-12.3-7.2-23.3-16.4-32.4c-7.4-7.3-16.1-12.4-25.3-16.8c-3.8-1.8-7.6-3.7-11.5-5.5
			c-0.9-0.4-1.9-0.7-2.9-1.1c0-3.9,0-7.7,0-11.5c0-1.1-0.2-2.2-0.1-3.4c0-1.5,0.5-1.8,2-1.9c2.9-0.1,5.8-0.4,8.7-0.4
			c6.3,0,12.1,1.8,17.8,4.7c6.6,3.4,12.6,7.9,17.9,13c6,5.8,9.8,13.1,11.6,21.3c1.4,6.4,2.1,12.8,2.4,19.4c0.2,3.2,0.6,6.4,1,9.6
			c0.1,1.1,0,1.6-1.2,2.1C401.7,99.9,400.5,101.2,399.3,102.2z"/>
		<path class="st2" d="M249,494.9c5.4-21.7,10.7-43.4,16.1-65.2c0.3,0.3,0.5,0.4,0.6,0.5c4.8,7.3,9.9,14.5,14.4,22.1
			c3.6,6.1,6.5,12.6,9.7,19c1.4,2.7,2.6,5.5,4.1,8.1c0.3,0.5,1.4,0.7,2,0.7c0.8-0.1,0.9-0.9,0.7-1.6c-0.1-0.3-0.2-0.6-0.2-0.9
			c0.7-3.3,1.5-6.6,2.3-10.2c0.9,2.4,1.6,4.6,2.5,6.6c0.8,1.8,1.8,3.6,2.8,5.4c0.8,1.3,0.4,2.6-1,3c-14.2,3.4-28.3,6.8-42.5,10.2
			c-3.6,0.9-7.3,1.6-10.9,2.3C249.4,494.9,249.2,494.9,249,494.9z"/>
		<path class="st6" d="M325.2,218.7c-3.7,4.9-7.3,9.6-11.8,13.6c-2.8,2.5-5.5,5.2-8.2,7.8c-0.4,0.4-0.7,0.9-1,1.3
			c-1.3,2-1.2,2.5,0.3,4.3c0.4,0.5,0.7,1,1,1.5c-0.2,0.1-0.3,0.1-0.3,0.1c-9.3-6.2-17.6-13.5-24.1-22.6c-2.2-3.1-4.3-6.3-4.8-10.2
			c-0.2-1.7-0.4-3.3-0.6-5c-0.1-0.8,0.2-1.2,0.8-1.6c5.4-3.1,11.2-5.2,17.3-6.4c4.2-0.8,8.3-1.7,12.4-2.6c0.8-0.2,1.2,0,1.7,0.6
			c2.9,3.9,5.9,7.7,8.8,11.5c2,2.7,4.4,4.9,7.2,6.8C324.5,218.1,324.8,218.4,325.2,218.7z"/>
		<path class="st1" d="M315.7,166.6c0.1,0,0.4,0.1,0.7,0.2c2.6,0.5,4.9,1.6,6.7,3.7c2.6,2.9,6.4,3.7,10.1,4.5
			c5.4,1.2,10.9,2,16.4,0.9c4.3-0.9,8.3-2.5,10.9-6.4c0.1-0.2,0.3-0.3,0.6-0.4c3.3-0.9,6.7-1.8,10-2.7c0.4-0.1,0.8-0.2,1.2-0.3
			c-0.1,2-0.3,3.8-0.4,5.7c-0.1,1.9-0.2,3.9-0.2,5.8c0,1.9,0.2,3.7,0.3,5.6c0,0.3,0,0.6-0.1,0.8c-5.1,9-12.4,14.5-22.9,15.7
			c-5.2,0.6-10.1,0.4-15.2-0.9c-5.7-1.5-10.4-4.3-14-9c-0.3-0.3-0.5-0.7-0.8-1c-2-1.5-2.3-3.6-2.3-6c0-2.5-0.3-5.1-0.4-7.6
			C316.2,172.4,316,169.5,315.7,166.6z"/>
		<path class="st6" d="M368.8,216.9c3.3-4.5,6.6-9.1,9.9-13.6c1.3-1.7,2.7-3.2,4.2-4.8c0.3-0.3,0.9-0.5,1.3-0.4
			c5.7,1.4,11.3,2.8,16.9,4.4c0.7,0.2,1.5,0.7,1.9,1.2c2.9,3.5,4.2,7.7,5,12c1.7,8.8-1.2,16.4-6.4,23.4c-3.2,4.3-7.3,7.7-11.5,10.9
			c-0.3,0.2-0.6,0.3-1.1,0.4c1-1.7,0.3-3.3,0-4.9c-0.3-1.7-0.4-3.5,0.7-5.1c0.6-0.8,0.3-1.7-0.5-2.3c-5.6-4.1-10.7-8.7-15-14.2
			C372.5,221.7,370.6,219.3,368.8,216.9z"/>
		<path class="st1" d="M338.9,431.2c5.7-3,11.1-5.8,16.5-8.6c2.7-1.4,5.5-0.5,7.8,0.8c1.7,1,2.9,3,4.2,4.7
			c4.4,5.7,7.6,12.2,10.4,18.8c0.7,1.7,1.4,3.3,2.1,5c0.3,0.6,0.2,1.1-0.1,1.8c-0.6,1.5-0.9,3.1-1.3,4.6c-0.6,2.1-0.8,4.3-1.8,6.2
			c-2.3,4.3-5.1,8.4-9.8,10.7c-2.7,1.3-5.4,2.6-8.2,4c0.1-1.2,0.2-2.3,0.3-3.4c0.4-4,0.2-7.9-0.7-11.8c-0.7-3.2-2.7-5.5-5.1-7.7
			c-0.8-0.7-1.6-1.5-2.3-2.4c1.5,0.5,3,1.1,4.6,1.4c2.2,0.4,4.5,0.9,6.7,0.9c3.3-0.1,4.4-2.6,2.7-5.3c-1.7-2.6-3.9-4.7-6.5-6.5
			c-6.3-4.2-12.6-8.4-18.8-12.6C339.5,431.7,339.4,431.6,338.9,431.2z"/>
		<path class="st5" d="M293.7,148.9c2.4,5.3,6.2,9.3,10.6,12.6c2.3,1.7,5.2,2.5,7.9,3.7c0.7,0.3,1.1,0.6,1.1,1.4
			c0.3,5.9,0.6,11.9,0.9,17.8c0,0.2,0,0.5,0,0.9c-3.3-1-6.6-1.8-9.6-3.5c-3.8-2.1-7.2-4.7-10.2-7.8c-6.1-6.2-7.8-17.1-1.1-24.6
			C293.4,149.3,293.5,149.2,293.7,148.9z"/>
		<path class="st5" d="M374.7,165.2c10.1-2.2,18.1-7,21.2-17.9c1.6,2.2,2.1,4.5,2.5,6.7c0.8,4.3,1,8.5,0,12.8
			c-1.6,6.9-5.7,11.3-12.2,13.6c-3.1,1.1-6.3,1.8-9.5,2.6c-1.6,0.4-2.1,0.1-2.1-1.7c0-3.5,0-6.9,0-10.4
			C374.7,169.2,374.7,167.3,374.7,165.2z"/>
		<path class="st6" d="M353.2,249.4c1.2,0.7,2.1,1.1,2.9,1.7c0.2,0.1,0.4,0.6,0.4,0.8c-0.3,3.9-0.6,7.8-0.9,11.7
			c-0.5,9.6-1.4,19.1-3.3,28.5c-1.1,5.6-2.1,11.3-3.3,16.9c-0.7,3-1.7,5.9-2.7,9.2c-0.3-1.1-0.5-1.8-0.7-2.5c-2-6-3.7-12.1-4.5-18.4
			c-0.5-4.6-1-9.1-1.6-13.7c-1.1-8.7-2.4-17.4-3.6-26.1c-0.2-1.3-0.8-2.6-1.1-3.9c-0.1-0.4,0-1,0.2-1.3c0.6-0.8,1.2-1.5,2-2.4
			c0.1,1.8,0.2,3.5,0.4,5.1c1.2,9.1,2.5,18.1,3.8,27.2c0.5,3.8,1.1,7.6,1.8,11.4c0.2,0.9,0.5,1.8,1,2.5c0.3,0.4,0.9,0.9,1.3,0.9
			c0.5-0.1,1.1-0.6,1.3-1.1c0.5-1.5,0.8-3,1.2-4.5c1.8-7,2.5-14.1,3.3-21.3c0.6-5.2,1.2-10.3,1.8-15.5
			C353.3,252.9,353.2,251.3,353.2,249.4z"/>
		<path class="st4" d="M343.2,229.2c0.6,2.7,1.1,5.4,1.8,8.1c1,3.7,2.9,6.8,5.5,9.6c0.5,0.5,0.7,1,0.6,1.8
			c-1.1,9.1-2.1,18.2-3.2,27.4c-0.5,4.3-1.4,8.6-2.1,12.9c-0.1,0.3-0.2,0.7-0.4,1c-0.4-2.4-0.8-4.8-1.1-7.2
			c-1.2-7.7-2.3-15.3-3.5-23c-0.6-4.1-1.2-8.3-1.8-12.5c-0.1-0.5-0.1-1,0.1-1.4c1.3-5.4,2.7-10.8,4.1-16.3
			C343.1,229.5,343.1,229.3,343.2,229.2z"/>
		<path class="st6" d="M308.9,268.9c-3.3-2.3-6.6-4.5-9.7-6.8c-5.3-3.8-9.9-8.3-13.9-13.5c-3.2-4.1-6.4-8.1-9.6-12.2
			c-3.1-4.1-5.5-8.6-6.5-13.6c-0.7-3.2,0-6.3,1.6-9.1c0.1,0.1,0.2,0.1,0.2,0.1c0.2,6.5,3,11.9,6.6,17c6.1,8.4,13.5,15.6,21.9,21.7
			c1.4,1.1,3,1.9,4.6,2.9c-0.4,1-0.8,2.1-1.2,3.2c-0.6,2-0.1,3.3,1.6,4.5c1.1,0.7,2.2,1.3,3.3,2
			C309.3,266.3,309.5,267.1,308.9,268.9z"/>
		<path class="st4" d="M309.3,196.6c2.2-2.4,4.4-4.8,6.7-7.4c4.8,7.4,11.5,11.7,20.6,13c-3.3,5-6.2,9.7-9.4,14.5
			c-1.4-1-2.7-1.7-3.7-2.7c-2.1-2.1-4-4.3-5.9-6.6c-2.3-2.8-4.5-5.7-6.7-8.6C310.4,198,309.8,197.3,309.3,196.6z"/>
		<path class="st6" d="M345.1,215.9c3.1,10.1,7.7,19.5,14.1,28c-2.2-5.3-4.3-10.7-6.5-16c-2.2-5.4-4.4-10.8-6.6-16.2
			c0.1-0.1,0.3-0.1,0.4-0.2c2.4,3.6,4.7,7.3,7.4,10.7c3.1,4,5,8.6,7.5,12.9c2.2,3.9,3.8,8,3.7,12.6c-0.1,2.5-0.6,2.8-3,2.3
			c-7.3-1.6-11.8-6.2-14.2-13.1c-1.4-4-1.8-8.3-2.1-12.5C345.4,221.7,345.3,218.8,345.1,215.9z"/>
		<path class="st4" d="M381.3,195.9c-2.5,3.1-5,6.2-7.4,9.4c-2.4,3.2-4.6,6.5-7.2,10c-2.1-2.6-4-5-5.9-7.4c-0.9-1.2-1.7-2.5-2.6-3.7
			c-0.8-1.1-1.6-2.1-2.3-3c7.7-2.1,13.5-7.6,18-14.8C376.3,189.6,378.8,192.8,381.3,195.9z"/>
		<path class="st6" d="M342.1,218.5c-0.5,3.3-1,6.6-1.7,9.9c-1.2,5.3-2.4,10.6-3.9,15.8c-0.6,2.1-1.9,4-3.1,5.8
			c-1,1.4-2.5,2.4-4.3,2.5c-3.9,0.4-6.5-2.5-5.8-6.4c0.3-1.3,0.7-2.6,1.4-3.8c4.2-7.4,8.5-14.8,12.8-22.3c0.5-0.9,1-1.8,1.6-2.6
			c-1.7,8.8-5,17.2-7.9,25.6c0.2-0.2,0.5-0.4,0.7-0.7c3.3-3.5,5.4-7.7,6.7-12.3c1-3.6,2-7.2,2.9-10.7c0.1-0.3,0.2-0.6,0.3-0.9
			C341.9,218.5,342,218.5,342.1,218.5z"/>
		<path class="st4" d="M360.8,212.7c2.2,2.4,4.5,4.7,6.5,7.1c1.8,2.1,3.5,4.4,5.2,6.6c3.9,5,8.5,9.1,13.4,13
			c0.6,0.5,0.9,0.9,0.6,1.8c-0.7,2-0.5,4,0,6c0.1,0.4,0.2,0.8,0,1.4c-0.5-0.4-1-0.8-1.5-1.2c-6.8-5.7-12.8-12.2-17.8-19.6
			c-0.3-0.5-0.6-1-1-1.3c-0.4-0.3-0.9-0.6-1.3-0.5c-0.4,0.1-0.8,0.7-0.8,1.1c0,1.9,0.1,3.7,0.4,5.6c0.2,1.6,0.7,3.2,1.1,5
			c-1.9-3.6-3.7-7-5.5-10.4c-0.1-0.2-0.2-0.5-0.1-0.8c0.9-4.4,1.1-8.9,0.7-13.3C360.8,213,360.8,212.9,360.8,212.7z"/>
		<path class="st4" d="M308.8,247.7c-0.8-1.3-1.6-2.5-2.2-3.8c-0.2-0.3,0-1,0.2-1.3c1.2-1.4,2.3-2.9,3.8-4
			c7.6-6.1,13.6-13.7,19.4-21.5c0.3-0.4,0.6-0.8,1.1-1.3c0,2.2,0,4.1,0,6.1c0,0.3,0,0.6,0.1,0.8c0.8,1.6,0,2.8-0.8,4.1
			c-1.5,2.4-2.9,5-4.3,7.5c-0.2,0.4-0.4,0.8-0.8,1c-5.4,4.1-10.7,8.2-16.1,12.3C309,247.6,308.9,247.7,308.8,247.7z"/>
		<path class="st6" d="M409.8,205.5c2.6,1.2,4.4,2.8,5.4,5.3c2.2,5.3,2.2,10.8,1,16.4c-1.9,9.4-6.7,17-13.3,23.8
			c-5,5.1-10.6,9.2-16.3,13.6c-0.3-0.9-0.6-1.7-1-2.7c0.3-0.2,0.6-0.5,1-0.7c6.9-5.3,13.8-10.8,19.2-17.8c4.1-5.3,7.1-11,7.9-17.7
			c0.4-3.4,0.1-6.8-0.4-10.3C412.7,211.8,411.7,208.7,409.8,205.5z"/>
		<path class="st7" d="M330.6,285.2c0.5,11.6-4.1,28.4-9.2,33.7c-1.2-0.5-2-1.5-1.9-2.8c0.2-2.7,0.4-5.4,0.9-8.1
			c0.7-3.8,0.5-5.5-1.2-8.3C323,294.9,326.8,290.1,330.6,285.2z"/>
		<path class="st7" d="M315.4,287c0-3.9-1.7-6.8-4.4-9.1c-0.3-0.3-0.6-0.5-0.9-0.8c-0.7-0.8-0.5-2.2,0.4-2.7
			c6.1-3.5,11.6-7.9,16.3-13.1c0.1-0.1,0.2-0.3,0.5-0.4C325.8,270.6,323.8,280.1,315.4,287z"/>
		<path class="st7" d="M311,264c-1.5-0.9-2.8-1.8-4.1-2.6c-1.5-0.9-1.6-1.2-1-2.8c0.9-2.3,1.8-4.7,2.7-7c0.1-0.2,0.3-0.5,0.5-0.7
			c4.4-3.3,8.7-6.6,13-9.8c-0.4,1.4-1,2.9-1.3,4.4c-0.2,1-0.2,2.1,0,3.1c0.2,1.1,0,2-0.4,3C318.1,256.7,314.3,261.7,311,264z"/>
		<path class="st1" d="M288.8,119.8c0.7,4.9,1.3,9.3,1.9,13.9c-0.3-0.1-0.6-0.2-0.8-0.3c-4-2.2-7-5.2-8.5-9.6
			c-1.6-4.8-2.4-9.6-1.5-14.6c0.2-1.2,0.7-2.3,1.2-3.3c0.5-1,1.3-1.2,2.1-0.4c1.6,1.5,3.2,3,4.6,4.7c0.5,0.5,0.5,1.4,0.7,2.1
			c0.1,0.3,0,0.7,0,1.1c0.2,2.1,0,3.7-2.1,5.2c-2.7,2-2.8,5.6-0.8,8.3c0.2,0.3,0.7,0.4,1,0.6c0.1-0.3,0.1-0.7,0.2-1
			c0.1-1.5,0.1-3,0.4-4.5C287.6,121.2,288.2,120.6,288.8,119.8z"/>
		<path class="st7" d="M366.3,229.7c5.3,8.1,11.6,14.9,19.3,20.4c-1.2,1-2.6,1.8-3.5,3c-0.9,1.1-1.2,2.7-1.7,4
			C374.8,253.9,366,237.2,366.3,229.7z"/>
		<path class="st7" d="M372.8,310.6c-6.9-7.9-9-17.5-11.2-27.1c1.2,1.5,2.3,3,3.6,4.4c2.3,2.6,4.7,5.1,7.1,7.6
			c0.2,0.2,0.5,0.6,0.5,0.9c0,2.3,1,4.2,2.3,6c1.5,2.2,1.1,4.3-0.3,6.4C374.3,309.4,373.6,309.9,372.8,310.6z"/>
		<path class="st4" d="M304.9,254c-5.8-5-11.6-9.7-17-14.8c-4-3.8-7.4-8.1-11.1-12.3c-0.4-0.4-0.7-1-1-1.5
			c-3.3-4.3-3.7-9.1-2.9-14.2c0.1-0.7,0.9-1.3,1.6-2.2c0.1,2.1,0,3.9,0.3,5.6c1.2,6,4.3,11.1,8,15.8c6.3,7.9,13.5,14.7,22.4,19.7
			c0.3,0.2,0.5,0.7,0.5,1.1c0,0.4-0.1,0.8-0.3,1.2C305.4,252.8,305.2,253.2,304.9,254z"/>
		<path class="st1" d="M400.3,114.1c1.1,0.8,1.5,1.6,1.7,2.7c0.1,0.7,0.2,1.4,0.4,2c0.3,0.9,1,1.1,1.6,0.4c0.3-0.4,0.6-0.9,0.7-1.3
			c0.5-2.6-1.1-5-3.7-5.5c-0.3-0.1-0.7-0.4-0.8-0.7c-0.4-3.2,0.1-6.1,2.3-8.6c1.7-1.9,3.5-1.9,4.7,0.3c0.7,1.2,1.3,2.7,1.4,4.1
			c0.2,3.8-0.5,7.5-2.3,11c-1.5,2.9-2.9,5.9-4.4,8.8c-0.4,0.8-1,1.6-1.6,2.6C400.3,124.6,400.3,119.5,400.3,114.1z"/>
		<path class="st4" d="M404.5,203.3c1.2,0.5,2.5,0.9,3.8,1.4c0.3,0.1,0.5,0.4,0.6,0.7c4.1,8.9,5.2,18,1,27.2
			c-2.2,4.9-5.4,9.2-9.1,13.2c-4.9,5.3-10.5,9.6-16.4,14.2c-0.3-0.9-0.7-1.6-0.8-2.4c0-0.3,0.4-0.9,0.8-1.1
			c5.3-3.3,10.4-6.8,14.8-11.3c4.9-4.9,8.6-10.5,10.3-17.3c1.6-6.3,0.8-12.6-1.3-18.6C407.4,207.2,405.8,205.4,404.5,203.3z"/>
		<path class="st7" d="M367,258.5c4,3.8,8.1,7.6,12.2,11.5c-0.6,1-1.4,2-2,3.2c-1.3,2.7-1,5.3,1,7.5c0.5,0.6,1,1.1,1.5,1.7
			c0.9,1.1,0.9,1.6,0,2.8c-2.1-1.3-3.8-3.1-5.4-5c-3.2-4.1-4.8-9-5.9-14C367.9,263.6,367.4,260.9,367,258.5z"/>
		<path class="st7" d="M334.6,309.3c0.3,1.9,0.6,3.8,0.8,5.8c0.5,6,0.1,12-0.9,18c-0.2,1-0.7,0.9-1.4,0.7c-2.3-0.6-4.3-3.1-4.5-5.6
			c-0.1-1.9,0.1-3.8-0.2-5.6c-0.3-1.7,0.2-2.9,1.1-4.2C331.3,315.5,332.8,312.4,334.6,309.3z"/>
		<path class="st5" d="M258.9,821.4c1.8,1.1,2.3,2.9,3.1,4.6c0.2,0.4,0.3,0.8,0.6,1.2c0.8,0.8,2.1,0.5,2.6-0.7
			c0.4-0.9,0.8-1.8,1.3-2.7c0.7-1.1,1.7-1.4,2.8-0.8c0.9,0.5,1,1.4,0.4,2.6c-0.2,0.5-0.7,0.9-0.8,1.4c-0.2,0.6-0.4,1.3-0.1,1.7
			c0.3,0.4,1.1,0.7,1.6,0.7c0.7,0,1.4-0.4,2.1-0.5c1-0.1,2.1-0.2,3.1,0c1,0.2,1.3,0.9,1.1,1.9c-0.5,2-1.8,3.3-3.7,3.8
			c-0.7,0.2-1.7,0.1-2.4-0.3c-3.1-1.7-6.4-2.9-9.9-3.5c-0.4-0.1-0.9-0.5-1.2-0.8c-0.7-1.3-1.7-2.5-1.9-3.9
			C257.2,824.5,257.4,822.7,258.9,821.4z"/>
		<path class="st7" d="M360.4,306.6c0.5,1.1,1,2.3,1.5,3.4c1.5,3.3,3.1,6.6,4.7,10c0.3,0.5,0.5,1.1,0.7,1.7c0.4,1.4,0.1,2.6-1.1,3.5
			c-2,1.5-4.3,1.9-6.7,1.3c-0.3-0.1-0.7-0.7-0.8-1.1c-0.8-3.6-0.7-7.1-0.2-10.7c0.4-2.7,1.1-5.4,1.6-8
			C360.2,306.6,360.3,306.6,360.4,306.6z"/>
		<path class="st5" d="M406.1,838.9c-0.1,1.3-0.6,2.9-1.9,4.2c-0.3,0.3-1,0.5-1.4,0.4c-5.3-1.1-10.5-1.2-15.7,0.5
			c-0.3,0.1-0.7,0.2-0.9,0c-1.1-1.1-2.3-2.3-3.2-3.5c-0.4-0.5-0.4-1.6,0-2.2c0.3-0.4,1.5-0.5,2-0.2c1,0.5,1.9,1.3,2.9,2.1
			c0.3,0.3,0.5,0.8,0.8,1c0.6,0.3,1.4,0.8,1.9,0.6c0.5-0.2,1.1-1.1,1.2-1.7c0.2-1.3,0.4-2.5,1.8-3.2c1.7-0.8,2.8-0.3,3.4,1.5
			c0.2,0.6,0.6,1.3,1.1,1.5c0.8,0.4,1.5-0.1,2-0.9c0.3-0.6,0.6-1.2,0.9-1.8c0.7-1.2,2-1.7,3.3-1.4
			C405.5,836.1,406.1,837,406.1,838.9z"/>
		<path class="st4" d="M385.4,847.9c2.2-1.5,4.3-2.1,6.6-2.2c2-0.1,4-0.2,6,0c2,0.2,3.9,0.7,5.8,1.3c0.8,0.3,1.4,1.3,2.1,1.9
			c-0.7,0.5-1.4,1.2-2.2,1.5c-3.4,1.2-7,1.2-10.5,0.9c-2.2-0.2-4.3-0.7-6.1-1.9C386.6,848.9,386.1,848.5,385.4,847.9z"/>
		<path class="st4" d="M349.4,202.6c1.3-0.5,2.1-0.2,3.2,0.4c3,1.6,4.6,4.4,6.3,7c0.2,0.2,0.1,0.6,0.1,0.9c-0.3,3.7-0.6,7.5-1,11.2
			c0,0.2-0.1,0.4-0.2,0.7c-1.5-2.3-3.4-4.3-3-7.3c0.2-1.9,0-4-0.3-5.9C354,206.5,352.2,204.2,349.4,202.6z"/>
		<path class="st4" d="M273.7,840.6c-1.2-0.1-2.5-0.1-3.7-0.4c-2.3-0.5-4.6-1.2-6.8-1.7c-0.4-0.1-0.8-0.3-1.3-0.3
			c-3.5-0.3-4-1.5-5.9-4c1.1-0.9,2.4-0.8,3.6-0.7c3.8,0.6,7.4,1.7,10.6,4.1c0.8,0.7,1.8,1.1,2.7,1.7c0.4,0.2,0.7,0.6,1,0.9
			C273.8,840.4,273.8,840.5,273.7,840.6z"/>
		<path class="st4" d="M340.8,203.1c-3.1,2.8-3.4,6.6-3.7,10.4c-0.1,1-0.3,2-0.7,2.8c-0.7,1.5-1.6,2.8-2.4,4.2
			c-0.1,0-0.3-0.1-0.4-0.1c0.2-2.2,0.4-4.5,0.6-6.7c0.4-4.1,2.9-7.2,4.8-10.6c0.2-0.4,1.1-0.3,1.7-0.4
			C340.7,202.9,340.8,203,340.8,203.1z"/>
		<path class="st6" d="M352,214.2c-1.1-1.9-2.1-3.8-3.3-5.6c-0.5-0.8-1.1-1.6-1.7-2.3c-1.5-2-3.1-1.2-4.8,0
			c-0.4,0.3-0.7,0.8-1.1,1.2c0.4-2.4,3.4-3.9,5.8-3c3,1.1,4.7,3.4,5,6.5C352.1,212.2,352,213.2,352,214.2z"/>
		<path d="M380.1,496.3c0,2.3,0,4.7,0,7c0.3,12.7,0.5,25.3,0.8,38c0.4,14.9,0.9,29.8,1.4,44.7c0.3,7.6,0.7,15.3,1,22.9
			c0.5,12.5,1,25,1.5,37.5c0.1,3.4,0.3,6.9,0.4,10.3c0,0.9,0.3,1.7,1.2,2.1c0.8,0.4,1,1.3,0.6,2.1c-0.5,1.1-1,2.1-1.6,3.1
			c-0.5,0.8-1.1,1.6-1.7,2.5c3.1,1.5,3.3,4.5,3.9,7.2c0.6,2.4,1,4.8,1.2,7.2c0.7,5.7,1.3,11.4,1.8,17.2c0.7,7,1.3,13.9,1.9,20.9
			c0.6,7.1,1,14.1,1.5,21.2c0.4,6.2,0.9,12.4,1.3,18.5c0.4,6.4,0.9,12.8,1.3,19.3c0.4,6.2,0.9,12.4,1.3,18.7
			c0.4,6.1,0.8,12.3,1.2,18.4c0.3,4.9,0.6,9.7,0.9,14.6c0,0.6,0.2,1.2,0,1.7c-0.2,0.6-0.7,1-1.1,1.5c-0.4-0.5-1.1-0.9-1.2-1.4
			c-0.3-1.6-0.5-3.2-0.6-4.8c-0.6-9.1-1.3-18.2-1.9-27.3c-0.5-7.5-1-14.9-1.5-22.4c-0.6-8.4-1.2-16.7-1.8-25.1
			c-0.4-6.2-0.8-12.4-1.3-18.7c-0.7-8.8-1.4-17.6-2.1-26.4c-0.4-5.4-0.8-10.8-1.3-16.3c-0.4-4.7-1.1-9.4-1.6-14c0-0.4-0.1-0.7,0-1.1
			c0.5-1.7-0.3-3.3-0.6-4.9c-0.3-1.1-0.9-1.9-2-2.4c-1.4-0.6-1.6-1.4-0.8-2.6c0.9-1.3,2-2.6,2.9-3.9c0.6-0.8,0.7-1.5-0.5-1.9
			c-0.4-0.1-0.9-0.8-0.9-1.2c-0.3-2.3-0.7-4.6-0.8-6.9c-0.3-9.4-0.4-18.9-0.7-28.3c-0.2-5.8-0.7-11.7-1-17.5
			c-0.4-8.4-0.8-16.8-1.1-25.2c-1-24.8-0.7-49.6-0.7-74.4c0-2.9,0-5.8,0-8.6c0-0.4,0-0.9,0.1-1.3
			C379.8,496.3,379.9,496.3,380.1,496.3z"/>
		<path d="M352.7,111.2c1.8-3,4.4-4.4,7.8-4.2c1.6,0.1,3.2,0.3,4.7,0.6c4.5,1,8.8,2.5,12.5,5.3c0.9,0.7,1.4,1.7,2.1,2.7
			c0.1,0.2,0.2,0.7,0,0.7c-0.2,0.2-0.6,0.2-0.8,0.2c-0.8-0.3-1.6-0.6-2.4-1.1c-1.1-0.6-2.1-1.3-3-2c-2.6,3.6-6.3,4.7-10.3,5.1
			c-4,0.4-7.7-0.4-10.8-3.1c-0.1,0.1-0.2,0.2-0.2,0.2c0.2,0.5,0.3,1.1,0.6,1.6c1.5,2.3,2.9,4.7,4.5,7c0.9,1.3,1.8,2.5,2.6,3.8
			c0.2,0.3,0.2,0.9,0.2,1.3c-0.5-0.1-1,0-1.4-0.2c-0.6-0.3-1.1-0.7-1.5-1.2c-3.1-3.2-5.6-6.9-6.3-11.4c-0.5-3.5-0.2-7.2,1.2-10.5
			c0.7-1.7,2.1-2.9,3.9-3.2c1.9-0.3,4-0.3,5.9-0.3c0.3,0,0.7,0.5,1,0.8c-0.4,0.1-0.7,0.4-1.1,0.4c-1.5,0.2-3.1,0.2-4.6,0.4
			c-2.3,0.3-3.6,1.7-4.2,3.9c-0.2,1-0.4,1.9-0.7,2.9C352.6,111.1,352.7,111.2,352.7,111.2z M357.8,109.9c-2.1,0.6-2.8,2.3-3.8,3.7
			c5.5,4.1,14.7,2.2,17.1-1.4c-1.3-0.5-2.6-0.9-3.9-1.4c-0.5,3.6-2.8,5.3-5.9,4.7C358.5,115.1,357.2,113,357.8,109.9z M360.8,109.6
			c-1-0.1-1.3,0.5-1.2,1.3c0.1,1.2,1.3,2.2,2.6,2.1c1.3,0,2.4-1,2.3-2.2c0-0.2-0.3-0.6-0.5-0.7C362.9,109.9,361.9,109.8,360.8,109.6
			z"/>
		<path d="M327,111.6c-0.3-0.9-0.3-1.5-0.6-2c-1-1.6-2-3.3-3.3-4.7c-2.1-2.3-5.3-2.5-8.4-1c-0.2,0.1-0.4,0.3-0.6,0.3
			c-0.3,0-0.6-0.1-0.8-0.2c0.1-0.3,0.1-0.7,0.3-0.8c0.8-0.4,1.6-0.9,2.5-1.1c5-1.4,8.1,0,10.6,4.5c2.4,4.4,2.3,8.7,0.3,13.1
			c-1.1,2.3-2.5,4.5-3.9,6.6c-0.5,0.8-1.3,1.5-2.1,2.1c-0.2,0.2-0.8,0-1.2,0c0.1-0.3,0.1-0.7,0.3-1c2-3.6,4-7.3,5.9-11
			c-3.3,1.6-6.6,2.5-10.2,2.2c-3.7-0.4-6.7-1.9-8.7-5.5c-1.1,0.7-2.2,1.3-3.3,2c-1.2,0.7-2.4,1.5-3.6,2.1c-0.4,0.2-1-0.1-1.5-0.2
			c0.1-0.5,0.1-1.2,0.4-1.4c5.5-4.7,11.5-8.1,19-8.1C322.5,107.5,323.8,108.1,327,111.6z M318.9,115.9c-2.9-0.6-3.8-2.8-4-5.7
			c-2.3,0.7-4.4,1.4-6.8,2.1C311.4,115.7,314.9,116.3,318.9,115.9z M316.8,110.1c0.5,2.3,1.4,3.3,2.6,3.2c1.3-0.1,1.9-0.8,2.1-2.9
			C320,110.3,318.5,110.2,316.8,110.1z M322.3,115.2c1-0.4,2-0.8,3.3-1.3c-0.6-0.8-1-1.4-1.4-1.9
			C323.5,113.1,322.9,114.2,322.3,115.2z"/>
		<path d="M353.7,138.6c-2.7,2.8-6,3.4-9.3,4.2c-4,0.9-8,0.9-11.9-0.4c-2.2-0.7-4.1-1.9-5.3-4.3c-0.8,2.7-1.6,5.5-2.3,8.2
			c-0.2,0.7-0.3,1.5-0.5,2.2c-0.1,0.3-0.4,0.5-0.7,0.8c-0.2-0.3-0.5-0.7-0.4-1c0.3-2.1,0.7-4.2,1.1-6.4c0.8-4.7,2.7-9.1,4.5-13.5
			c1.1-2.7,2.1-5.5,3.2-8.3c0.1-0.3,0.1-0.6,0.3-0.8c0.2-0.2,0.5-0.4,0.7-0.3c0.2,0.1,0.4,0.4,0.4,0.6c0,0.3-0.1,0.7-0.2,1
			c-1.4,4.2-2.8,8.5-4.2,12.7c-0.6,1.9,0.2,4.2,1.9,5.2c3,1.7,6.4,2.3,9.7,1.9c2.9-0.4,5.7-1.2,8.5-2.1c0.9-0.3,1.8-1.1,2.5-1.8
			c0.8-0.8,0.9-1.9,0.5-3c-1.8-4.4-3.7-8.8-5.5-13.3c-0.1-0.3,0.1-0.8,0.1-1.1c0.4,0.2,0.9,0.4,1,0.7c1.9,4,3.8,8,5.6,12.1
			c1.9,4.2,3.2,8.6,3.7,13.2c0,0.4-0.2,0.8-0.3,1.2c-0.3-0.3-0.7-0.6-0.8-0.9C355.1,143.3,354.4,141,353.7,138.6z"/>
		<path d="M337.8,156.4c-3.8-0.4-7.5-0.7-11.3-1.3c-1.2-0.2-2.3-0.8-3.4-1.4c-0.9-0.5-1.1-1.8-0.4-2.2c0.4-0.3,1.3-0.5,1.6-0.2
			c1.7,1.6,3.9,1.6,5.9,1.8c6.2,0.7,12.4,0.3,18.7-0.1c1.9-0.1,3.9-0.5,5.8-0.8c0.6-0.1,1.2-0.6,1.7-1.1c0.5-0.5,1.1-1,1.6-0.5
			c0.4,0.3,0.6,1.2,0.4,1.6c-0.4,1.1-1.3,1.8-2.5,2.2c-3.8,1.1-7.7,1.2-11.6,1.4c-2.2,0.1-4.3,0.2-6.5,0.3
			C337.9,156.3,337.8,156.3,337.8,156.4z"/>
		<path d="M357.8,97.7c4.3,0.5,9.1,0.9,13.9,1.5c3,0.4,5.7,1.7,8.1,3.3c0.3,0.2,0.7,0.4,0.8,0.7c0.2,0.4,0.4,1.1,0.2,1.4
			c-0.2,0.4-0.9,0.5-1.4,0.6c-0.3,0-0.7-0.2-1-0.4c-3.6-2.6-7.8-3.3-12.1-3.6c-4.3-0.3-8.7-0.5-13-0.7c-0.8,0-1.6-0.2-2.3-0.5
			c-0.3-0.1-0.7-0.7-0.6-1c0-0.3,0.6-0.7,0.9-0.7C353.3,98,355.3,97.9,357.8,97.7z"/>
		<path d="M324.2,98.1c1.4,0.1,2.5,0.1,3.7,0.3c0.5,0.1,0.8,0.7,1.2,1.1c-0.4,0.4-0.8,1-1.3,1.2c-0.7,0.2-1.5,0.2-2.2,0.2
			c-5.2,0.4-10.4,0.7-15.6,1.2c-2.1,0.2-4,1.1-5.8,2.2c-0.8,0.5-1.8,0.6-2.7,0.9c-0.2,0.1-0.7-0.1-0.8-0.3c-0.1-0.2,0.1-0.6,0.3-0.8
			c2.3-3.4,5.9-4.3,9.6-4.8C315.1,98.7,319.8,98.5,324.2,98.1z"/>
		<path d="M342.8,94.7c0,0.1,0,0.2,0,0.2c-0.1,2.6-1.3,4.5-3.3,4.8c-1.9,0.3-3.9-1-4.8-3.4c-0.4-1.1-0.5-2.3-0.5-3.5
			c0-1.9,1.5-3.2,3.4-3.3C340.9,89.5,342.8,91.3,342.8,94.7z M340.7,94.3c0-0.7-0.1-1.7-1.1-2.3c-2-1.2-3.8-0.1-3.9,2.4
			c0,1.5,1.5,3.3,3,3.3c1.2,0,2-1.1,2-3C340.7,94.7,340.7,94.6,340.7,94.3z"/>
		<path class="st4" d="M357.8,109.9c-0.6,3.1,0.7,5.2,3.4,5.7c3.1,0.6,5.4-1.2,5.9-4.7c1.3,0.5,2.6,0.9,3.9,1.4
			c-2.3,3.6-11.6,5.5-17.1,1.4C355,112.2,355.7,110.5,357.8,109.9z"/>
		<path class="st8" d="M360.8,109.6c1.1,0.2,2.1,0.3,3.2,0.5c0.2,0,0.5,0.4,0.5,0.7c0,1.2-1,2.2-2.3,2.2c-1.3,0-2.6-1-2.6-2.1
			C359.5,110,359.8,109.5,360.8,109.6z"/>
		<path class="st4" d="M318.9,115.9c-4,0.5-7.6-0.2-10.8-3.5c2.4-0.8,4.5-1.4,6.8-2.1C315.2,113.1,316,115.2,318.9,115.9z"/>
		<path class="st8" d="M316.8,110.1c1.7,0.1,3.2,0.2,4.8,0.3c-0.3,2.1-0.8,2.8-2.1,2.9C318.2,113.3,317.3,112.3,316.8,110.1z"/>
		<path class="st4" d="M322.3,115.2c0.6-1,1.2-2.1,1.9-3.2c0.4,0.5,0.8,1.1,1.4,1.9C324.3,114.4,323.3,114.8,322.3,115.2z"/>
		<path class="st9" d="M340.7,94.3c0,0.3,0,0.4,0,0.4c0,1.9-0.8,3-2,3c-1.4,0-3-1.8-3-3.3c0.1-2.5,1.9-3.6,3.9-2.4
			C340.7,92.6,340.8,93.6,340.7,94.3z"/>
	</g>
</g>
</svg>
