<?xml version="1.0" encoding="utf-8"?>
<!-- Generator: Adobe Illustrator 21.0.0, SVG Export Plug-In . SVG Version: 6.00 Build 0)  -->
<svg version="1.1" id="Слой12_xA0_Изображение_1_"
	 xmlns="http://www.w3.org/2000/svg" xmlns:xlink="http://www.w3.org/1999/xlink" x="0px" y="0px" viewBox="0 0 368.2 756"
	 style="enable-background:new 0 0 368.2 756;" xml:space="preserve">
<style type="text/css">
	.st0{fill:#75B9E9;}
	.st1{fill:#464B90;}
	.st2{fill:#232222;}
	.st3{fill:#D5AA91;}
	.st4{fill:#A15B52;}
	.st5{fill:#2F3486;}
	.st6{fill:#3A1E16;}
	.st7{fill:#391B0E;}
	.st8{fill:#FFFFFF;}
	.st9{fill:#CCB79B;}
</style>
<g>
	<path d="M247,200.9c0.3-0.7,0.7-1.4,1-2c1.8-3.3,3.6-6.6,5.4-9.9c0.8-1.4,1.8-2.8,3.7-2.6c2,0.3,2.7,1.9,3.1,3.6
		c0.4,1.9,0.5,3.9,0.7,6.5c0.4-0.7,0.7-1.2,1-1.6c0.5-0.6,1-1.3,1.6-1.8c2.4-2.1,3.8-1.7,4.9,1.3c0.9,2.6,1.1,5.1,0.4,7.8
		c-0.3,1.3-0.6,2.7-1.1,3.9c-0.5,1.3-0.5,2.4,0.2,3.8c1.2,2.1,1,4.5,0.2,6.8c-1.6,4.7-4.5,8.6-7.8,12.3c-1,1.1-2.1,2.2-3.1,3.2
		c0.7,3.6,1.5,7,2,10.4c1.6,12.7,2.1,25.3,0.3,38c-0.3,1.7-0.8,3.4-1.4,5.1c-1.7,4.6-3.4,9.1-5.2,13.7c-2.6,6.6-5.6,13.1-9.4,19.1
		c-0.5,0.8-0.9,1.9-0.8,2.9c0.3,8.7,0.6,17.4,1.1,26.1c0.2,2.8,1.1,5.6,1.7,8.4c0.1,0.6,0.6,1.1,1,1.5c2.1,2,2.4,4.5,1.5,7
		c-0.4,1.1-0.4,1.8,0.3,2.8c1.1,1.8,0.9,4,1.1,6c0.1,0.9-0.1,1.9,0,2.8c0.8,7.8,3.2,15.3,5.6,22.8c3,9.4,6.3,18.6,9.4,27.9
		c0.8,2.3,1.3,4.8,2.1,7.1c2,6,4,12,6.1,17.9c3.2,9.4,5.5,19,7.6,28.7c2.1,9.6,3.8,19.3,4.5,29.1c0.2,3.3,0.3,6.7,0.4,10.1
		c0.1,3.5,0,7,0,10.6c0,5.3-2.5,9-7.3,11.1c-2.2,1-4.7,1.4-7.1,2.1c-0.7,0.2-1.4,0.3-2.6,0.5c1,0.8,1.6,1.4,2.3,1.8
		c2.4,1.6,4.8,3.1,7.3,4.6c1.4,0.9,2.6,1.8,3,3.6c0.6,3.1-0.5,5.2-3.5,6.2c-1.7,0.6-3.6,0.9-5.4,1c-6.3,0.4-12.4-0.8-18.4-2.6
		c-2.5-0.7-4.9-1.4-7.4-2c-0.9-0.2-1.9-0.3-2.9-0.2c-0.5,0-1.3,0.4-1.5,0.8c-0.2,0.5,0.1,1.3,0.5,1.7c0.6,0.6,1.4,1.1,2.1,1.5
		c1.2,0.7,2.6,1.3,3.7,2.1c1.2,1,2.5,2.1,3.3,3.4c1.5,2.4,0.5,4.7-2.3,5.3c-1.5,0.3-3,0.3-4.5,0.2c-4.7-0.4-9.4-1-14.1-1.5
		c-1-0.1-2-0.1-3.3-0.2c-0.9,3.8-1.8,7.4-2.6,11.1c-3.3,15.2-6.3,30.5-8.1,46c-1,8.8-0.9,17.6-0.1,26.4c0.3,2.8,1.6,5,3.6,6.9
		c5.1,4.7,10.5,8.9,16.6,12.1c1.3,0.7,2.7,1.1,3.9,1.9c2.2,1.5,4.4,1.7,6.8,0.9c3-1,5.6-0.4,8,1.7c1.1,1,2.2,1.8,3.4,2.7
		c1.8,1.4,2.8,3.1,2.3,5.5c1.3,0.9,2.6,1.8,3.9,2.8c0.9,0.7,1.7,1.4,2.4,2.3c1.4,1.8,1,3.7-1.1,4.5c-1.6,0.7-3.4,1.1-5.1,1.2
		c-4.9,0.2-9.9,0.6-14.9,0.3c-15.7-0.9-31.3-2-46.9-3c-2.3-0.1-4.6-0.3-7.3-0.5c1.7,3.2,0.7,6.6,2.3,9.6c1.4,2.5-0.4,5.7-3.5,6.5
		c-2.4,0.6-4.9,0.9-7.3,1c-5.2,0.1-10.4,0.2-15.6,0c-9.6-0.4-19.2-0.7-28.7-1.4c-4.3-0.3-8.5-1.4-12.7-2.4c-1.5-0.3-3-1-4.4-1.8
		c-2.6-1.5-3-3.3-1.5-5.8c0.5-0.9,1.2-1.7,1.9-2.5c1.5-1.6,3.1-3.2,4.8-4.7c0.7-0.6,1.6-1.3,2.4-1.4c1.3-0.1,2.2-0.8,3.1-1.7
		c8.7-8.3,16.6-17.3,24.1-26.7c0.6-0.7,1-1.4,1.6-2.1c1.5-1.8,2-3.8,2.2-6.2c0.5-6.8-0.2-13.6-0.7-20.4c-0.7-9.7-1.6-19.4-2.7-29.1
		c-1.2-10.1-2.6-20.1-4.3-30.2c-0.7-4.3-2.3-8.5-3.5-12.8c-3.2-0.4-6.4-0.8-9.6-1.1c-14.9-1.8-29.1-5.9-42.4-13
		c-2.9-1.6-5.8-3.4-8.4-5.5c-3.4-2.7-5.6-6.2-5.9-10.6c-0.1-1.8,0.1-3.7,0.4-5.5c1.4-8.8,4.2-17.2,6.6-25.8
		c4.1-14.7,8.1-29.5,12.4-44.1c2.5-8.4,4.2-17.1,6.7-25.5c1.7-5.8,2.6-11.7,3.9-17.5c1.3-5.8,3.2-11.4,4.8-17.1
		c3.4-12.3,7.1-24.6,10.1-37c1.9-8.1,3.1-16.3,4.1-24.6c0.9-6.9,1.2-13.9,1.8-20.8c0.1-1.4-0.3-2.4-1.2-3.4c-5-5.2-9.3-11-13.2-17.1
		c-2.1-3.3-4.2-6.6-6.5-9.8c-2.6-3.6-4.4-7.6-5.7-11.8c-2.1-6.5-3.3-13.2-4-19.9c-0.5-5.4-0.9-10.8-0.3-16.3c0-0.5,0-1-0.1-1.4
		c-0.9-2.8-0.2-5.4,0.9-7.9c2.6-6.2,6.8-11.4,11.7-15.9c1.1-1,2.1-1.9,3.3-2.8c1.4-1.1,2.6-2.2,2.9-4.2c0.3-1.9,1.1-2.1,3.6-1.2
		c4.3-3.5,8.9-6.8,13.1-10.6c3.2-2.9,6.9-4.6,11.1-5.1c3.6-0.5,7.3-1,10.9-1.6c0.7-0.1,1.4-0.3,2.3-0.5c0.8-8.2-0.2-16.2-1-24.7
		c-0.6,0.6-0.8,0.9-1.1,1.2c-4,5.4-9.3,6.7-15.5,5.1c-3.9-0.9-7.2-3-10.3-5.5c-1.7-1.4-3.1-3.2-4.9-4.2c-1.8-0.9-4-1-6-1.5
		c-11.9-3.4-18.4-15.3-14.9-27.4c0.9-3,2.5-5.9,3.9-8.7c1.3-2.5,2.8-4.8,4.4-7.5c-2.8,0.2-4.8-0.8-6.6-2.7c-0.3,0.7-0.6,1.2-0.9,1.7
		c-0.6,1-1.2,2.1-2,2.9c-1.8,1.9-4.5,2-6.5,0.3c-1-0.8-1.9-2-2.5-3.1c-3.5-7.1-4.6-14.4-1.2-21.9c0.2-0.5,0.4-1,0.7-1.9
		c-1.8,0.9-3,1.7-4.4,2.3c-1.4,0.6-2.8,1.2-4.3,1.5c-2.1,0.4-3.3-0.8-2.9-2.9c1.8-11.2,6.7-20.6,15.4-27.9c0.4-0.4,0.9-0.7,1.4-1
		c3.6-2.5,7.4-2.8,11.3-0.7c3.6,1.9,6.7,4.4,9.4,7.4c0.4,0.5,0.8,0.9,1.2,1.4c0.3,0,0.5,0,0.6-0.1c4.4-4.2,10-5.9,15.9-6.6
		c1.1-0.1,2.1-0.6,3.1-1c1.5-0.6,3-1.6,4.6-2c4.5-1.4,8.6-3.5,12.4-6.1c2.8-1.9,5.5-3.9,8.4-5.5c3.1-1.8,6.4-3.3,9.7-4.8
		c3.5-1.6,7.1-1.5,10.5,0.1c3,1.4,5.9,3.2,8.8,4.9c2.5,1.5,5.1,3,7.6,4.6c2,1.2,4.1,1.6,6.4,1.6c6.9-0.1,13.5,0.9,20,3.3
		c4.3,1.6,8.2,3.9,11.8,6.7c7.5,6,10.4,13.9,9.3,23.4c-0.3,2.2-0.7,4.4-1.2,6.6c-0.7,3.4-0.6,6.8,0.7,10.1c1.2,3,1.8,6.1,1.7,9.4
		c-0.1,4.5-2.1,7.8-6.1,9.8c-2.9,1.5-6,2.1-9.4,2.3c-0.1,1.6-0.2,3.2-0.2,4.8c-0.1,4.5-1.5,8.5-3.9,12.4c-2.7,4.2-4.6,8.9-6.7,13.5
		c-1.7,3.9-3.2,8-4.6,12.1c-3.3,9.2-11,12.5-19.6,11.1c-0.5-0.1-0.9-0.1-1.5-0.1c0,1.9-0.2,3.7,0.1,5.5c0.1,0.7,0.9,1.4,1.6,1.8
		c4.7,2.8,9.4,5.5,14.1,8.2c6,3.5,12.1,6.9,18.1,10.4c0.3,0.2,0.6,0.3,1,0.5c0.4-0.9,0.7-1.8,1.2-2.6c0.8-1.5,1.5-3,2.6-4.3
		c1.4-1.7,3-1.3,3.8,0.9c0.3,0.9,0.4,1.9,0.5,2.8c0.1,0.7,0.1,1.4,0.1,2C246.7,200.9,246.8,200.9,247,200.9z M245.8,375.1
		c-1.5,1.7-3.1,2.2-5,1.8c-0.3-0.1-0.8,0.1-1.1,0.3c-1.5,1-3.1,1.1-4.8,0.9c-0.5-0.1-1.2-0.1-1.6,0.1c-1.7,0.7-3.4,0.3-5.1,0.3
		c-2.5,0.1-4.7-0.3-7.1-0.9c-1.7-0.4-3.4-0.7-4.8-1.8c-0.7-0.5-1.3-0.7-2.2-0.6c-1.9,0.3-3.8,0.1-5.5-1.1c-0.3-0.2-0.6-0.4-0.9-0.4
		c-2.3,0.1-3.9-1.1-5.3-2.7c-1.3,0.2-2.5,0.3-3.4,0.5c-5,6.6-11.6,5.3-18.3,4.2c1.2,2.8,1,5.2-0.8,7.4c2,2.7,1.8,5.4,0.5,8
		c0.7,1.6,1.5,2.9,1.7,4.4c0.2,1.5-0.2,3.1-0.4,4.9c2.5,2.9,2.9,3.8,3,6.8c1,1.7,1.7,2.9,2.5,4c0.3,0.5,0.9,0.8,1.5,1
		c8.8,3.1,12.1,11.4,10.3,20c-0.2,0.8-0.1,1.7-0.2,2.5c-0.2,1.4-0.5,2.9-0.8,4.8c-0.9-1.1-1.4-1.7-1.8-2.3c-0.9,0.3-1.7,0.6-2.6,0.9
		c0.2-1.3,0.4-2.2,0.5-3.1c0.2-1.4,1.6-1.1,2.3-1.7c1.5-7.3-0.3-14.5-5.6-17.2c0.7,1.7,1.6,3.4,2,5.2c1.1,4.4,0.9,8.9-0.4,13.3
		c-0.2,0.6-0.6,1.3-0.5,1.8c0.4,1.5,1.1,3,1.7,4.5c0.3,0.7,0.7,1.5-0.4,2.2c-0.8-0.6-1.6-1.2-2.4-1.7c-0.6,0.3-1.3,0.7-2,1.1
		c-0.2-1.6-0.5-2.9-0.6-4.2c0-0.5,0.3-1.3,0.8-1.6c0.9-0.5,1.1-1.3,1.3-2.2c0.8-3.5,1.1-7.1,0.6-10.7c-0.4-3.1-1.4-5.9-4.1-8
		c-0.8,2-2.6,2.4-4.4,2.7c2.1,5.9,4.1,11.7,4.5,17.8c0.5,6.6-0.2,13-2.8,19c-0.9,1.9-1.5,3.4-0.2,5.4c1,1.6,0.5,2.7-1.1,3.7
		c-0.4-1-0.8-2-1.2-3.2c-0.8,0.7-1.3,1.4-2,1.9c-0.4,0.3-1,0.2-1.5,0.3c0-0.5-0.2-1.1,0-1.5c0.4-1,0.9-1.8,0.4-2.9
		c-0.4-1,0.3-1.9,1.4-2.2c0.6-0.2,1.2-0.2,1.9-0.3c1.9-4.7,2.5-9.6,2.8-14.6c0.5-8.2-2.1-15.9-4-23.8c0-0.2-0.3-0.2-0.6-0.4
		c-1.2,2.7-0.3,5.3,0.3,7.8c2.3,9.6,0.4,18.7-3.5,27.5c-0.3,0.7-0.5,1.5-0.5,2.2c0,0.9-0.2,1.7-1,2.3c-0.6,0.5-1,1.2-1.5,1.8
		c-0.3,0.4-0.6,0.8-1.3,1.6c-0.1-1.5-0.2-2.5-0.3-3.4c-1.1-0.3-2,1-3.1,0.2c0.1-0.2,0.1-0.4,0.2-0.5c1.1-0.9,2.3-1.7,2.2-3.4
		c0-0.4,0.8-0.9,1.3-1.2c0.5-0.2,1.1-0.1,1.9-0.1c2.5-8.7,4.9-17.3,2.5-26.4c-0.9-3.3-1.2-6.6,0.9-9.5c-1.1-2.5-2.2-4.7-3.2-7
		c-0.3-0.7,0-1.7,0-2.6c0-0.6,0.1-1.2,0-1.8c-0.7-2.9-1.4-5.8-2.1-8.7c-0.1-0.3-0.1-0.6,0-1c0.1-2.4,0.6-4.8-0.1-7.3
		c-0.4-1.6,0.4-3.6,0.7-5.6c-1.6-2.8-2.1-5.9-0.2-9c-0.8-0.9-1.6-1.7-2.1-2.6c-0.9-1.7-2.3-2.6-4-3.5c-2.2-1.1-4.6-2.2-5-5.3
		c-0.1-1-1.5-2.1-2.5-2.6c-1.5-0.8-3.2-1.2-5-1.8c0.2,3.8,0.4,7.7,0.5,11.5c0.2,10.6,0.1,21.3,0.3,31.9c0.6,27.5,0.7,55-2.1,82.5
		c-0.1,1,0,2,0,3.1c1.1,0.2,2.1,0.4,3,0.5c10.8,1.2,21.7,1.9,32.6,2c11.9,0.1,23.8-0.4,35.6-2.8c7.7-1.6,15.1-4.1,21.7-8.5
		c1.9-1.3,3.5-3,5.3-4.5c0.8-0.7,1.1-1.7,1.1-2.8c0.2-5.8,0.6-11.5,0.8-17.3c0.4-16.7-0.7-33.3-2.4-49.8
		C249.8,394,248.2,384.7,245.8,375.1z M136.8,314c-0.2,3.5-0.4,6.4-0.7,9.3c-0.8,10.4-2,20.7-4.4,30.8c-1.1,4.7-2.7,9.2-3.7,13.9
		c-2.7,12.4-6.2,24.5-10,36.5c-0.8,2.7-1.6,5.5-2.2,8.3c-0.6,2.6-1,5.2-1.6,7.7c-2.2,9.1-4.5,18.1-6.7,27.2c-1.1,4.3-1.9,8.8-3.2,13
		c-1.8,6.1-3.9,12-5.6,18.1c-2.6,9-4.7,18.1-7.4,27.1c-2,7-3.9,14-4.9,21.2c-0.4,2.7,0.2,5.1,1.6,7.3c1.4,2.3,3.3,4.2,5.6,5.5
		c4.5,2.5,9.1,5.1,13.8,7.2c12.7,5.7,26.2,8,39.9,9.7c0.4,0,0.8-0.1,1.2-0.1c-0.5-2.4-0.9-4.7-1.3-6.9c-0.4-1.8-0.4-1.9-2.3-2.1
		c-3.1-0.4-6.2-0.6-9.3-1c-2-0.3-4-0.5-5.9-1.1c-3-1-4.4-3.3-4.2-6.5c0.1-1.8,0.1-3.5,0.2-5.3c0.2-4.2,0.5-8.4,2.2-13
		c0.9,4.2,0.4,8,0.6,12.3c3.3-2.9,7.1-4,10.7-5.3c0.3-0.1,0.6-0.3,0.9-0.4c2.4-1.4,2.5-2.8,0.1-4.2c-1.5-0.8-3.3-1.3-4.9-1.9
		c-1.6-0.6-3.3-1.1-4.9-1.9c-1.8-0.9-2.9-2.5-2.7-4.7c0.1-1.8,0.2-3.5,0.3-5.3c0.5-8.3,1-16.6,1.5-24.9c0.4-6.6,0.7-13.3,1.1-19.9
		c0.8-14.4,1.6-28.7,2.4-43.1c0.1-1.7,0.3-3.5,0.4-5.2c0.8,15.7,0.8,31.4,0.1,47c-0.7,15.7-1.8,31.4-3.6,46.9c3.1-1.3,6-2.8,9.1-3.8
		c3.2-1,6.5-1.5,9.9-2.3c0-0.5,0.1-1.2,0.1-2c0.3-5.2,0.5-10.4,0.9-15.6c0.5-8.1,1.2-16.3,1.5-24.4c0.5-13.5,0.8-27,0.9-40.5
		c0.2-19.4-0.1-38.9-0.9-58.3c-0.1-3.4,0-6.7-0.1-10.1c-0.2-6.4-0.8-12.8-0.6-19.2c0.1-4.4-1.1-7.6-4.3-10.4
		C143.2,321.1,140.3,317.6,136.8,314z M204.1,50.5c-3.5-2.2-6.7-4.4-10-6.4c-1.4-0.8-2.8-1.6-4.3-2.2c-3-1.3-6.1-1.5-9.1-0.1
		c-3,1.4-5.9,2.8-8.8,4.4c-3,1.7-5.8,3.7-8.6,5.6c-4,2.7-8.2,4.9-12.9,6.3c-3.2,0.9-6,2.4-8.3,5c-6.6,7.3-11.6,15.4-13.9,25.1
		c-0.9,3.8-1.7,7.7-1.4,11.6c0.5,6.4,3.5,11.7,7.3,16.7c0.5,0.7,1.1,1,2,0.9c3.8-0.4,7.6-1.1,11.2-2.5c2.9-1.2,5-3.1,6.2-6
		c0.7-1.7,1.3-3.4,1.9-5.2c0.6-1.7,1.3-3.4,1.9-5c0.7,4.2-0.2,8-1.5,12.3c5.1-4.2,8.1-9.4,11.3-15c-0.6,5-1.1,9.4-1.6,13.8
		c0.7-0.5,1.1-1,1.5-1.6c1.9-2.7,3.8-5.4,5.5-8.1c0.9-1.4,1.7-2.9,2.3-4.4c1.4-3.7,2.5-7.4,3.8-11.1c0.2-0.4,0.5-0.8,1-1.7
		c0.3,6.3,0.6,12.1,0.8,17.8c1.7-7.2,2.3-14.7,4.5-21.8c0.4,10.5-0.7,20.8-1.6,31.3c0.6-0.6,1-1.2,1.3-1.9c0.8-2.3,1.6-4.7,2.4-7
		c2.2-7.1,4.4-14.2,6.7-21.3c0.6-1.9,1.6-3.8,2.4-5.7c0.2,0.1,0.3,0.1,0.5,0.2c-2.3,11.2-4.7,22.3-7.6,33.4c1.7-1.1,3.2-2.2,4.6-3.5
		c5.1-4.4,8.7-9.7,10.3-16.4c0.5-2.1,1-4.2,1.4-6.3c0.3-1.6,0.6-3.2,1-4.8c1.4,8.2,0.4,15.9-4.2,23.5c2.8-1,4.9-1.9,6.9-3.2
		c1.7-1.1,3.2-2.5,4.1-4.3c2.4-4.7,3.4-9.8,3-15.1c-0.2-2.5-0.4-5-0.5-7.4c4.4,6.8,4.3,14.1,2.9,21.8c0.9-0.3,1.6-0.4,2.3-0.7
		c4.6-1.8,7.3-6.3,6.6-11.1c-0.3-2.3-0.7-4.7-1.1-7c2.5,2.3,3.5,5.1,4.2,8.2c0.6,3.1-0.1,6.1-1.5,9.3c4-1.4,6.6-3.3,7.1-7.3
		c0.3-2.8,0.5-5.5,0.7-8.3c1.9,3.8,2.4,7.7,0.9,11.9c-1.2,3.3-2,6.6-3.1,10.4c3.1-1.6,5.5-3.3,6.7-6.1c1.1-2.6,1.8-5.4,2.6-8
		c1.3,3.4,0.7,7.6-1,10.3c-2.4,3.8-4.7,7.7-7.2,11.9c1.7-0.7,3.3-1.3,4.8-2.1c2.5-1.3,4.3-3.3,5.1-6.1c0.7-2.5,1.2-5.1,1.8-7.7
		c0.1-0.4,0.3-0.8,0.5-1.4c2.5,6.9,0.2,13.6-5.8,17.3c-0.6,0.4-1.4,0.9-1.7,1.6c-0.8,2-1.4,4-2.1,6c0.1,0.1,0.3,0.2,0.4,0.3
		c1.8-1.6,3.6-3.1,5.7-4.9c-0.5,4.8-3.5,7.2-7.5,8.8c3.8,2.4,11.8-0.1,13.8-3.1c0.7-1.1,1.3-2.4,1.4-3.7c0.2-2,0-4.2-0.3-6.2
		c-0.6-3.8-1.6-7.5-1.2-11.4c0.3-2.9,0.9-5.8,1.2-8.8c1-8.4-1.1-15.7-7.8-21.3c-5.5-4.6-11.8-7.5-18.9-8.9
		c-7.5-1.5-15.1-1.1-22.7-0.2c-4.8,0.5-9.6,0.8-14.3-0.8C193.5,52.2,198.7,51.3,204.1,50.5z M148.3,508c0.2,10.7,0.1,21.2,0.5,31.8
		c0.2,4.9,1.1,9.9,2.1,14.7c1.3,6.6,3.3,13,4.6,19.6c1.5,7.4,2.6,15,3.7,22.5c0.2,1.5,0.8,2.5,2,3.3c3.4,2.4,6.7,4.9,10.1,7.3
		c0.5,0.4,1.1,0.7,1.7,1c4.1-3.3,8.1-6.7,12.1-9.9c1.4-1.1,2.1-2.4,2.3-4.2c0.9-7.5,1.9-15.1,2.7-22.6c0.8-7,1.8-14,2.2-21
		c0.4-7.1,0.5-14.2,0.4-21.3c0-4-0.5-8-0.9-12c-0.6-6.2-1.2-12.4-1.8-18.6c-0.2-2,0-4.1,0-6.4c-12.6,0-25-1.1-37.5-2.8
		c-0.3,5.9-0.6,11.6-0.8,17.4C150.7,507.2,149.6,507.6,148.3,508z M216.1,607.5c0.6-3.3,1.1-6.1,1.7-8.9c0.6-2.9,1.2-5.8,1.8-8.7
		c0.6-2.8,1.1-5.6,1.8-8.4c0.6-2.9,1.3-5.8,2-8.6c0.7-2.8,1.4-5.6,2.1-8.4c0.8-2.9,1.5-5.7,2.4-8.5c0.8-2.8,1.6-5.5,2.5-8.3
		c0.9-2.8,1.9-5.6,2.9-8.4c0.9-2.6,2.2-5.2,2.9-8.1c-4.8,1.4-6.4,1.5-9.3,0c2.2-0.5,4-0.9,5.9-1.3c2.5-0.7,4.8-1.8,5.9-4.4
		c5.9-13.9,10.4-28.3,12.7-43.4c0.2-1.6,0.3-3.2,0.5-4.9c-0.5,0.1-0.7,0.1-0.8,0.2c-5.7,5-12.4,8.1-19.6,10.2
		c-8.8,2.6-17.8,3.7-26.9,4.3c-0.9,0.1-1.8,0.1-2.9,0.2c0.2,1.2,0.3,2.1,0.5,2.9c1.5,6,1.3,11.8-1.1,17.6c-1.7,4.1-3,8.4-4.4,12.7
		c-0.5,1.6-0.7,3.3-0.7,4.9c-0.1,3.7,0.2,7.4,0,11c-0.4,6.7-0.9,13.4-1.6,20.1c-0.8,8.7-1.7,17.3-2.6,26c-0.2,1.7,0.2,2.8,1.7,3.8
		c6.8,4.9,13.6,9.9,20.4,14.8C214.5,606.4,215.1,606.8,216.1,607.5z M172.6,256.9c2,1.7,4.2,3,5.8,4.8c2.6,3,5,6.2,7.2,9.6
		c3,4.6,5.8,9.4,8.6,14.1c8.7,14.6,20.2,26.8,33.1,37.6c1.4,1.2,3.2,2.2,4.9,2.9c1.8,0.7,2.7,0.3,3.8-1.4c2.6-4.2,5.4-8.3,7.8-12.6
		c4.2-7.5,7.3-15.6,10-23.8c0.2-0.6,0.1-1.4-0.1-2c-3.9-7.7-9.4-14-17-18.4c-0.7-0.4-1.5-0.7-2.4-1.2c-1.2,4.4-2.3,8.4-3.4,12.4
		c4.3,3.6,7.2,7.8,8.6,13c0.4,1.4,0.4,2.8,0.4,4.3c0,0.4-0.6,1-1,1c-0.4,0-1-0.4-1.2-0.9c-0.3-0.6-0.3-1.4-0.6-2.1
		c-0.7-2-1.4-4.1-2.4-6c-2.2-4.5-6-7.4-10.2-9.8c-6.3-3.5-12.3-7.5-17.9-12c-7.9-6.4-16-12.5-22.9-20.1c-1.9-2.1-3.6-4.3-5.7-6.2
		c-3.9-3.4-7.9-6.8-12-9.9c-7-5.4-13.9-10.8-20-17.2c-1.8-1.9-4.1-3.2-6.4-5c0,2.3,0.2,3.3,2,5.6c3.1,3.8,6.4,7.3,9.7,10.9
		c2,2.2,4.2,4.2,6.1,6.4c2,2.2,3.5,4.8,4,7.8c0.4,2,1.6,3,3.5,3.4c0.9,0.2,1.9,0.3,2.8,0.7c1.1,0.4,2.1,1,2.3,2.5
		c-1.8-0.2-3.4-0.3-4.9-0.5c-3.5-0.5-5.7-2.3-6.3-5.9c-0.7-4-3.4-6.7-5.8-9.7c-1.2,1-2.2,1.8-3.3,2.6c-2.2,1.5-4.5,3-6.8,4.5
		c-0.6,0.4-1.1,0.8-1.7,1.3c1.6,1.9,3.2,3.2,5.2,4.1c3,1.4,5.9,2.8,8.9,4.2c0.9,0.4,2,0.8,1.8,2.4c-1.2,0-2.4,0-3.6,0
		c-4.6-0.1-9-1-13.5-2.2c-1.7-0.4-3.4-0.8-5.1,0.8c0.6,0.6,1,1.3,1.6,1.7c2.3,1.5,4.8,2.7,7.5,2.9c2.7,0.2,5.4,0.3,8.1,0.2
		c3.2,0,6.2,0.7,8.9,2.5c1.5,1.1,3.2,1.4,5,1.2c1.3-0.1,2.5-0.4,3.8-0.5c1-0.1,2,0,3.2,0C172.8,256.2,172.7,256.7,172.6,256.9z
		 M249,568.6c-0.4-1.7-1.5-2.6-2.6-3.3c-1.4-0.8-2.8-1.5-4.2-2.4c-1.1-0.7-2.1-1.5-2.9-2.5c-1.1-1.4-1.1-3.1-0.3-4.8
		c0.7-1.6,2.1-2.1,3.7-2c2.4,0.2,4.8,0.5,7.1,0.9c1.9,0.4,3.8,1.2,5.7,1.7c5.3,1.5,10.6,2.5,16.1,2.1c1.7-0.1,3.3-0.4,4.9-1
		c1.6-0.6,1.8-2.5,0.5-3.7c-0.3-0.3-0.7-0.4-1-0.7c-2.2-1.4-4.4-2.9-6.7-4.2c-3.6-2.1-5.1-5.1-5.1-9.3c0.1-15.6,0-31.2,0-46.7
		c0.5,0.7,0.8,1.5,0.9,2.3c2.5,13.8,3.1,27.6,2.2,41.6c-0.1,1.4,0,2.8,0,4.3c3.5-0.1,6.7-0.8,9.7-2.2c2.7-1.3,4.5-3.4,5-6.3
		c0.4-2.2,0.6-4.5,0.4-6.7c-0.5-6.1-1.1-12.1-1.9-18.1c-2.1-17.2-5.6-34.1-10.7-50.6c-4.5-14.7-9.5-29.2-14.3-43.7
		c-0.1-0.3-0.3-0.7-0.5-1c-0.3,1-0.2,1.9-0.1,2.9c0.4,5.3,0.9,10.7,1.2,16c0.8,16.9,0.1,33.7-2.2,50.5c-2.3,17.5-7.4,34-14.8,49.9
		c-1.8,3.9-3.5,7.9-4.7,12.1c-1.9,6.4-3.7,12.9-5.6,19.4c-0.3,1.2-0.6,2.4-0.8,3.7c0.4,0.2,0.6,0.3,0.8,0.4
		c5.6,0.6,11.3,1.2,16.9,1.8C246.8,568.9,247.8,568.7,249,568.6z M181.4,122.3c-1.9,2.1-3.8,4-5.5,6c-3,3.6-6.5,6.6-10.6,8.8
		c-2,1-3.8,2.3-5.9,3.5c2,4,4.3,7.7,6.9,11.2c2.6,3.5,5.8,6.4,9.5,8.7c5.4,3.3,11,6.1,17,8.2c3.6,1.3,7.3,2.4,10.9,3.8
		c2.1,0.8,4.2,1,6.3,0.8c3.5-0.4,6.6-1.8,9.3-4.1c1.1-1,1.9-2.1,2.4-3.5c0.8-2.4,1.6-4.7,2.5-7c1.6-4.1,3.1-8.2,4.9-12.2
		c1.5-3.3,3.1-6.7,5.2-9.7c3.5-4.9,3.1-10.3,3.4-15.6c-1.5-0.9-2.6-1.5-3.9-2.3c-2,5.1-5,9-11.5,7.8c0.2,0.9,0.4,1.8,0.6,2.6
		c0.8,3.4,1.4,6.9,1.1,10.4c-0.2,2.2-1.3,3.6-3.3,4.3c-1,0.4-2.2,0.6-3.3,0.5c-3.7-0.3-7.2-1.4-10.2-3.7c-1-0.8-1.8-1.8-2.5-2.9
		c-0.5-0.8-0.9-1.9,0-3.1c0.8,0.6,1.6,1.1,2.3,1.7c2.8,2.5,6,3.9,9.6,4.5c1.1,0.2,2.2,0,3.3-0.3c1.2-0.3,1.7-1,1.5-2.3
		c-0.6-3.2-0.8-6.5-1.7-9.7c-1.9-6.7-3.2-13.5-3-20.5c0.1-3.2,1.2-5.6,3.8-7.3c2.4-1.6,5.1-2.6,8.1-2.5c1,0,1.9,0,2.9,0
		c1.2-2.2,2.1-4.5,2.6-7.2c-1.8,0.7-3.2,1.4-4.6,1.8c-0.8,0.3-1.8,0.5-2.5,0.2c-0.7-0.3-1-1.3-1.6-2.1c-2.8,2.5-6.2,3.5-9.9,3
		c-2.5,4.7-6.8,6.8-11.4,8.6c1.1,0.8,2.1,1.3,2.8,2.1c0.4,0.4,0.5,1.4,0.2,1.9c-0.2,0.4-1,0.8-1.5,0.8c-0.9,0-1.9-0.3-2.8-0.7
		c-1.7-0.6-3.4-1.1-5.1-0.8c-1.1,0.2-2.3,0.3-2.9,1.6c7.3,2.5,9.4,4.2,10,7.9c-0.4-0.2-0.8-0.4-1.4-0.6c0.2,0.7,0.3,1.3,0.5,1.9
		c0.9,4-0.6,7.2-4.4,8.7c-5.8,2.3-11.3,1.4-16.3-2.2C182.6,123.3,182.1,122.9,181.4,122.3z M146.9,209.4c2.7,2.7,5,5.3,7.6,7.5
		c4.5,3.9,9.3,7.5,13.9,11.3c4.1,3.4,8.3,6.8,12.2,10.4c3.6,3.4,6.8,7.2,10.4,10.6c4.6,4.3,9.5,8.2,14.5,12.5
		c4.2-4.6,8.1-9.1,12.1-13.4c3.1-3.3,3.9-7.2,3.2-11.5c-0.3-2.1-0.7-4.1-0.8-6.2c-0.2-4.2-0.4-8.5,1.7-12.4c0.3-0.6,0.1-1.6-0.2-2.2
		c-1.9-3.8-4-7.5-6-11.2c-0.3-0.5-0.7-1-1-1.3c-3,1.5-5.7,3-8.6,4.2c-7.4,3-15.1,4.6-23.2,3.3c-10.7-1.7-20.3-6.1-28.9-12.6
		c-0.5-0.4-1-0.7-1.8-1.3C150.3,201.4,148.6,205.3,146.9,209.4z M200.2,300.4c-4.9-7.6-9.5-14.8-14.2-22c-0.3,0.2-0.5,0.3-0.8,0.5
		c-4.4,3.5-8.7,7-13.2,10.4c-5.1,3.8-10.1,7.9-13.8,13.2c-0.6,0.8-1.2,1.5-2.3,1.2c-1-1.1-0.8-2.3-0.1-3.3c0.8-1.2,1.7-2.3,2.6-3.4
		c0.9-1.2,2-2.3,2.9-3.4c-2.2-5.5-4.4-10.9-7.2-15.9c-11.6,1.5-20.4,8.5-27.3,19.7c1.2,1.5,2.3,3.2,3.6,4.7c5,5.5,10,11,15.1,16.4
		c2.6,2.7,5.2,5.5,7.9,8c4.9,4.5,7.9,4.8,13.5,1.3c7.8-4.8,15-10.4,21.8-16.4C192.8,307.9,196.4,304,200.2,300.4z M256.8,188.6
		c-0.8,1.1-1.4,1.9-1.8,2.7c-2,3.8-4,7.6-5.9,11.5c-2.6,5.5-5.2,11-9.2,15.7c-0.3,0.4-0.5,0.9-0.9,1.1c-0.4,0.2-1.3,0.4-1.4,0.3
		c-0.3-0.4-0.5-1.2-0.3-1.6c0.3-0.8,1-1.4,1.5-2.2c1.3-1.9,2.7-3.8,3.8-5.8c0.6-1,1-2.2,1.2-3.4c0.3-2.7,0.4-5.4,0.5-8.1
		c0-0.5-0.2-1-0.3-1.8c-1.7,1.8-2.2,3.8-2.9,5.8c-1.8,5.6-3.6,11.3-5.3,16.9c-1.3,4.2-3.8,7.9-6,11.7c-0.9,1.5-1.9,1.9-2.6,1.2
		c-1-1-0.1-1.8,0.4-2.5c1.1-1.5,1.5-3.1,1.1-4.9c-0.4-1.9-0.7-3.8-1.1-5.6c-0.2-0.8-0.6-1.5-1.1-2.5c-2,1.7-2.9,3.7-3.3,6
		c-1,5.6,0.4,11,1,16.4c0,0.1,0.2,0.2,0.3,0.2c0.3-0.2,0.6-0.5,0.9-0.7c0,0.1,0.1,0.1,0.2,0.3c-0.8,3.7-2.6,7.1-5.1,10.1
		c-3,3.6-6.2,6.9-9.3,10.3c-1.1,1.2-2.2,2.3-3.5,3.5c4.5,3.6,8.9,7.1,14.2,10c2-2.6,4-5.2,6-7.8c1-1.3,1.9-2.6,2.9-3.9
		c1.1-1.4,2.5-2.1,4.3-2.3c1.6-0.1,3.2-0.5,4.7-0.8c1.6-0.3,2.8-1.2,3.4-2.7c1.5-3.6,3.2-7.1,4.5-10.8c1.8-4.9,3.9-9.6,7.2-13.7
		c1.2-1.5,2.6-2.8,3.9-4.2c2.8-3,5.1-6.3,6.7-10.2c0.6-1.4,1-3,0.3-4.7c-0.7,0.6-1.2,1-1.7,1.4c-3.2,2.9-6.3,5.9-9.5,8.8
		c-1.4,1.3-2.9,2.5-4.4,3.7c-0.6,0.5-1.4,0.8-2.2,1c-0.3,0.1-0.8-0.2-1-0.4c-0.2-0.2-0.1-0.8,0.1-1.1c0.2-0.3,0.5-0.6,0.8-0.9
		c5-4.6,10-9.2,15-13.9c0.8-0.7,1.5-1.7,1.9-2.7c0.8-2.3,1.5-4.6,2-6.9c0.4-2.1,0.3-4.3-1.1-6.5c-0.9,1.1-1.8,2-2.5,3
		c-3.4,4.5-6.7,9.1-10.3,13.6c-3,3.7-6.3,7.3-9.5,10.8c-0.6,0.6-1.3,1.2-2.1,1.6c-0.3,0.2-1,0-1.2-0.3c-0.2-0.3-0.2-0.9-0.1-1.3
		c0.3-0.5,0.8-1,1.2-1.4c3.9-4.5,7.8-9.1,11.8-13.6c2.8-3.1,4.1-6.8,5.1-10.7C258.5,193.7,258.4,191.3,256.8,188.6z M247.3,688.7
		c-0.6-3-1.1-5.8-3.1-8.1c-2.5-2.8-5.5-5-8.9-6.4c-6.7-2.8-12.2-7.2-17.3-12.3c-2.9-2.9-4.5-6.5-4.6-10.8c-0.1-3-0.1-5.9-0.2-8.9
		c0-0.6,0-1.3-0.4-1.8c-1-1.4-3.4-2-5.1-1.4c-5.7,2.1-11.4,4.1-17.1,6.2c-0.4,0.2-0.8,0.4-1.4,0.7c0.1,5.8-0.9,11.3-2.6,16.8
		c-0.2,0.7-0.1,1.6,0,2.4c0.9,5.1,1.8,10.2,2.8,15.3c0.3,1.5,0.8,2.9,1.2,4.5c4.5-0.6,8.8-0.1,13-1.5c0.9-0.3,1.9-0.4,2.8-0.2
		c1.9,0.3,3.8,0.8,5.6,1.4c4,1.3,8,2.9,12,4.2c4.1,1.3,8.3,2.4,12.7,1.8C240.2,690.1,243.6,689.4,247.3,688.7z M201.9,302.4
		c-10,11.9-22,21.1-34.9,29.5c0.9,0.6,1.8,1.3,2.8,2c1.1-0.9,2.4-1.3,3.8-0.6c1.2,0.7,2.4,1.5,3.5,2.2c3.4-1.9,5.5,0.5,7.9,2.2
		c2.5-1,4.8-0.5,7,1c0.5,0.3,1.3,0.4,2,0.3c2.5-0.1,4.7,0.4,6.6,2.2c0.4,0.3,0.9,0.8,1.3,0.7c3.2-0.2,6,0.8,8.2,3
		c2.5-0.8,3.5-0.6,6,0.9c0.6,0.4,1.3,1,1.9,0.9c2.4-0.6,4,0.8,5.7,1.9c0.7,0.5,1.3,1.1,1.9,1.7c3.1-1,3.9-0.7,6.2,2.3
		c1.9,0.4,3.7,0.7,5.4,1.3c0.9,0.3,2,0.9,2.5,1.7c0.7,1.1,1.5,1.3,2.8,0.9c-1.9-9-3.8-17.9-6.3-26.7c-0.9-0.2-1.7-0.5-2.5-0.5
		c-3.1,0-5.5-1.4-7.8-3.2c-0.9-0.7-1.9-1.5-2.8-2.3c-7.1-6.5-14.4-12.9-20.4-20.5C202.5,302.9,202.3,302.8,201.9,302.4z
		 M154.7,195.7c0.3,0.4,0.4,0.6,0.6,0.8c0.6,0.4,1.1,0.9,1.7,1.3c4.7,3.2,9.8,5.8,15.1,7.7c4.7,1.7,9.5,3,14.5,3.1
		c9.2,0.3,17.6-2.4,25.5-7.1c0.3-0.2,0.5-0.4,0.7-0.6c-0.8-1.7-0.9-1.6-2.2-2.4c-2.2-1.5-4.5-3.1-6.6-4.8c-1.7-1.4-2.6-3.2-2.7-5.4
		c-0.2-3.9-0.4-7.8-0.6-11.7c0-0.6-0.1-1.2-0.1-2.1c-13.8-3.8-26.6-9.5-36.6-20.9c0,1,0,1.4,0,1.8c0.4,3,0.7,6,1.1,9
		c0.7,5.7,1,11.5,0.7,17.2c-0.3,6.7-3.5,11.3-9.9,13.6C155.6,195.3,155.3,195.5,154.7,195.7z M152.7,274.8c-0.6-1.2-1.2-2.1-1.7-3.1
		c-3-5.4-6-10.7-9.1-16.1c-0.4-0.6-1-1.1-1.7-1.5c-1.8-1-3.7-1.9-5.5-3c-0.8-0.5-1.7-1.5-1.9-2.4c-0.2-1.5-1.1-2-2.2-2.5
		c-7.4-3.8-14.7-7.7-22.1-11.5c-0.6-0.3-1.2-0.5-2.1-0.8c-0.1,1.1-0.3,1.9-0.3,2.7c0.1,4.5,0.2,9.1,0.5,13.6
		c0.5,7.9,2.2,15.5,4.8,22.9c0.5,1.3,1,2.7,1.8,3.9c3.5,5.4,7,10.7,10.6,16c0.3,0.5,0.8,0.9,1.2,1.5
		C131.8,284.2,140.1,276.7,152.7,274.8z M130.6,117c-1.9-3.6-3.9-7.2-5.8-10.8c-1.5,0.4-3,0.8-4.4,1.2c-0.6,2.1-1.1,4.1-1.8,6
		c-0.7,1.9-1.7,3.8-2.6,5.6c-1.7,3.3-3,6.7-3.6,10.4c-1.5,9.2,4.1,17.8,13.1,20.2c4.2,1.1,8.4,0.8,12.5-0.6c2.4-0.8,4.9-1.6,7.3-2.4
		c-0.7,1.4-1.5,2.6-2.5,3.6c-2.4,2.5-5.7,3.4-9.3,4.3c2.1,1.3,3.7,2.6,5.4,3.4c2.3,1.2,4.7,2.4,7.3,3c5.3,1.4,9.2-0.4,12-5.1
		c1-1.7,1.7-3.6,2.4-5.5c0.2-0.5,0.2-1.3,0-1.8c-1.2-2.4-2.5-4.8-3.8-7.2c-0.7,0-1.5,0-2.2,0.1c-3.8,0.5-7.1-0.7-10.1-3
		c-3.2-2.5-5.9-5.5-8.5-8.8c11.1,1.8,12.9,1.7,15.9-0.6c-3.7,0.7-7,0.3-10.3-0.9c-6-2.2-11.2-5.8-15.8-10.2
		c-0.9-0.8-1.6-1.8-2.1-3.3C126.3,115.2,127.9,117.8,130.6,117z M173.3,644.2c-2.9,2.4-5.5,4.7-8.3,6.9c-1.3,1-2.1,2.2-1.9,3.9
		c0.3,2.5-0.8,4.5-2.3,6.3c-0.6,0.7-1.1,1.6-1.7,2.3c-4.4,5-8.9,10.1-13.3,15.1c-0.6,0.6-1.1,1.2-1.8,2c3.8,0.8,7.2,1.5,10.6,2.3
		c5.5,1.3,9.7,4.4,12.5,9.3c0.1,0.3,0.4,0.5,0.7,1c4.5-6.9,10.8-11.1,18.9-12.7c-0.4-2.1-0.7-3.9-1.1-5.7
		c-1.3-7.2-2.4-14.3-2.7-21.6c0-1,0-2-1.1-2.8C179.1,648.4,176.4,646.4,173.3,644.2z M90.6,85.6c5.2-2,9.1-6.2,14.7-6.9
		c-0.3,0.7-0.9,1.3-1.3,1.9c-0.5,0.7-1.1,1.4-1.4,2.2c-1,2.9-2,5.7-2.8,8.7c-1.5,5.8,0.1,11.2,2.7,16.4c0.1,0.1,0.2,0.3,0.3,0.4
		c1.2,1.6,2.4,1.6,3.3-0.1c0.6-1.1,1-2.4,1.2-3.6c0.4-2.3,0.6-4.6,1-6.9c0.3-1.8,0.7-3.6,1.9-5.2c0.5,2.8,1,5.7,1.1,8.5
		c0.1,2.3,1.3,3.9,3.1,5.1c0.5,0.3,1.5,0.3,2,0.1c0.8-0.4,0.7-1.2,0.4-2.1c-0.5-1.4-1.1-2.8-1.3-4.3c-1.1-6.5-0.5-12.9,1.3-19.2
		c1.2-4.5,3.3-8.6,6.3-12.5c-3.3-3.6-6.8-6.8-11.3-8.8c-1.8-0.8-3.7-0.7-5.3,0.4c-2,1.5-4,3-5.7,4.8c-5.3,5.7-8.5,12.5-10.3,20.1
		C90.6,84.8,90.6,85.1,90.6,85.6z M186.1,346.2c-3.1,1.1-5.8,1.2-8.1-1.2c-0.3-0.3-1.2-0.2-1.7-0.2c-2.5,0.4-4.8-0.1-6.7-1.8
		c-0.8-0.7-1.6-0.9-2.6-0.8c-1.5,0.1-3,0.1-4.4-0.9c-0.4-0.2-0.9-0.3-1.3-0.3c-2.4,0-4.9,0-7.3,0c-0.2,2.3-0.2,2.3,2.2,4.9
		c2.1-0.7,3.4,0.5,4.6,2c0.7,0.9,1.4,1.7,2.1,2.7c1.9-1.4,3.3-0.4,4.7,0.8c0.6,0.5,1.1,1.3,1.8,1.4c2.6,0.5,4.4,2.1,6,4
		c0.3,0.3,0.6,0.8,1,0.9c2.1,0.5,4.2,0.3,6.1-0.5c6.6-2.7,13.9-0.3,17.3,5.9c0.9,1.6,1.9,1.9,3.4,0.9c1-0.7,2-0.9,3.2-0.8
		c2,0.2,3.8,0.7,5.2,2.1c0.7,0.7,1.3,0.8,2.3,0.7c1.2-0.1,2.8-0.1,3.6,0.6c1.3,1.1,2.6,1.3,4.1,1.4c0.8,0.1,1.5,0.4,2.3,0.6
		c0.5,0.1,1.1,0.3,1.6,0.3c1.7,0.1,3.4,0.2,5.7,0.4c1.1-0.7,2.9-1.2,4.9-0.4c1.9,0.7,3.8,0.9,5.5-0.6c0.5-0.5,1.5-0.5,2.2-0.7
		c0.3-0.1,0.6-0.2,1.1-0.4c-0.4-0.3-0.6-0.5-0.8-0.5c-1.9,0.1-3.6-0.3-4.9-2c-0.2-0.2-0.5-0.4-0.8-0.4c-2.3,0.2-3.7-1.2-4.6-2.3
		c-2-0.4-3.9-0.3-4.8-1.1c-2.2-1.9-4.7-2-7.2-2.3c-0.5-0.1-1-0.1-1.4-0.3c-1.4-0.9-2.7-1.9-4.2-2.7c-1.5-0.7-3.1-1.1-4.7-1.6
		c-0.1,0-0.2-0.2-0.4-0.3c-0.5-0.1-1.1-0.4-1.5-0.3c-2.4,0.4-4.4-0.2-6.3-1.5c-0.5-0.4-1.3-0.7-1.9-0.6c-2.7,0.3-4.9-0.5-6.8-2.3
		c-0.3-0.3-0.9-0.6-1.2-0.5C190.4,349.2,188.1,348.1,186.1,346.2z M184.6,275.5c-1.8-2.9-3.5-5.8-5.2-8.7c-1.3-2.3-3.2-4-5.4-5.4
		c-1.2-0.8-2.5-1.4-3.7-2.2c-1-0.6-2-0.8-3.2-0.5c-2.5,0.5-5,0.3-7.1-1.3c-4.5-3.2-9.5-2.1-15-2.2c3.6,6.1,7.2,11.7,10.3,17.6
		c3.2,5.9,5.9,12,8.9,18.2C170.9,285.9,177.7,280.7,184.6,275.5z M213.5,634.2c0.1-0.9,0.1-1.6,0.2-2.4c0.4-5.2,0.8-10.4,1.2-15.5
		c0.1-1.4,0.4-2.8,0.5-4.3c0.1-1.4-0.2-1.7-1.6-1.8c-0.3,0-0.6,0-1,0c-7.4,0-14.9,0.1-22.3,0.1c-0.4,0-0.8,0.1-1.1,0.1
		c-0.1,0.3-0.3,0.5-0.3,0.8c-0.9,4.1-0.3,8.3-0.2,12.4c0,0.9,0.6,1.2,1.3,1.5c6.2,3.2,12.3,6.5,18.5,9.7c0.8,0.4,1.6,0.6,2.5,0.2
		C211.9,634.7,212.7,634.5,213.5,634.2z M173.2,640.6c2.1-1.6,4.1-3.2,6.2-4.5c3-1.8,4.9-3.9,4.5-7.6c0-0.2,0.1-0.5,0.1-0.7
		c0.2-2.5,0.5-5.1,0.7-7.5c-4-2.8-7.8-5.6-11.7-8.3c-3.5,2.7-6.9,5.4-10.2,8.1c-0.4,0.3-0.7,1.1-0.7,1.6c0.2,3.6,0.4,7.2,0.7,10.7
		c0.1,0.6,0.5,1.4,1,1.7C166.9,636.4,170,638.4,173.2,640.6z M105.6,230.2c1.9,0.8,3.3,1.3,4.6,2c7.5,3.8,15,7.6,22.5,11.3
		c0.9,0.4,1.7,0.4,2.7,0.3c2.1-0.2,4.3,0,6.4,0.1c1,0.1,1.9,0.4,2.8,0.6c-1.8-1.6-3.8-2.8-5.1-4.8c-1.2-1.9-3.1-3.1-5.2-4
		c-2.3-1-4.5-2.2-6.7-3.3c-3.3-1.7-6.2-4-8.6-6.8c-0.9-1.1-1.6-2.4-2.1-3.7c-0.4-1.1-0.3-2.4,0.8-3.3c1-0.8,2-0.4,2.9,0
		c1.7,0.7,3.3,1.5,5,2.3c0.5,0.2,0.9,0.5,1.5,0.7c-1.9-4.5-3.7-8.9-5.6-13.5c-1.1,0.9-2.3,1.8-3.4,2.8c-4.6,4.2-8.6,8.8-11.1,14.6
		C106.6,227.1,106.2,228.6,105.6,230.2z M233.4,262.1c0,0.2,0,0.4-0.1,0.6c4.9,1.6,9,4.4,12.8,7.8c3.7,3.5,6.8,7.5,9.4,12.1
		c3.1-6.7,2.4-38.8-0.8-46.4c-0.3,0.3-0.6,0.6-0.7,0.9c-1.2,2.8-2.4,5.5-3.6,8.3c-1.3,3.2-2.7,6.5-3.9,9.8c-1.7,4.7-5.4,6.2-9.8,6.6
		c-0.7,0.1-1.4,0-2.2,0C234.1,262,233.7,262.1,233.4,262.1z M147.5,692.6c-1.5,1.2-3,2.3-4.4,3.6c-0.9,0.8-1.4,1.7-0.8,2.9
		c0.7,1.3,1.3,2.5,3.1,2.5c2.7,0,5.4,0,8.1,0c0.1-3.9,1.9-7.8,4.6-9.2c-0.3,1.2-0.5,2.2-0.8,3.1c-0.4,1.2-0.9,2.4-1.2,3.6
		c-0.4,1.5,0.2,2.7,1.5,3.4c2.6,1.4,5.4,1.5,8,0.1c0.5-0.2,0.9-0.9,0.9-1.4c-0.1-4.7-1.5-8.7-5.3-11.8c-1.8-1.5-3.9-2.6-6.1-3.2
		c-3.4-0.8-6.9-1.3-10.3-2.2c-2.7-0.7-4.9-0.3-6.8,2c-1.3,1.6-3.1,2.9-4.8,4.4c1,0.8,1.8,1.3,2.4,1.8c-1,1.7-2,3.2-2.8,4.9
		c-0.8,1.8-0.4,2.4,1.5,2.5c1.6,0.1,3.1,0,4.7,0C139.3,694.7,144.1,690.7,147.5,692.6z M144.6,133.8c-0.1,0.2-0.2,0.4-0.2,0.5
		c1.5,1.1,2.8,2.3,4.4,3.2c4,2,7.9,2.3,11.7-0.7c1-0.8,2.1-1.5,3.1-2.2c4.2-3.1,7.9-6.7,10.9-11.1c2.6-3.8,4.1-8,4.1-12.6
		c0-5.9,0-11.8,0-17.7c0-0.5-0.1-1-0.2-2c-1,3.5-1.8,6.5-2.8,9.5c-2.7,8.4-6.7,16.1-12.7,22.6c-2.4,2.6-5,5-7.7,7.2
		C152.1,132.9,148.4,133.7,144.6,133.8z M208.2,193.1c1.4-1,1.6-1.2,2.6-0.1c2.1,2.3,4.2,4.6,5.8,7.3c2.9,4.7,5.4,9.6,8,14.4
		c2.6-0.5,3.7,0,4.7,2.4c0.4,0.9,0.7,1.8,0.9,2.7c0.3,1,0.4,2,0.7,3.1c1.7-1.7,5.4-11.6,6.5-17.3c-10.5-7-22.1-12.5-32.9-19.6
		C203.9,189.5,205.7,191.5,208.2,193.1z M145.6,508.3c-4.4,0.9-8.5,2.3-12.3,4.6c-1,0.6-2.2,1.3-2,2.7c0.2,1.3,1.5,1.6,2.5,2
		c1.1,0.4,2.3,0.6,3.4,1.1c1.6,0.6,3.2,1.1,4.6,1.9c4.7,2.8,4.6,7.2-0.2,9.8c-1.4,0.8-2.9,1.2-4.4,1.8c-2.5,0.9-4.9,2-6.7,4
		c-0.7,0.7-1.3,1.7-1.6,2.6c-0.6,1.8,0.1,3.4,1.9,4.1c1.1,0.4,2.3,0.7,3.5,0.8c3.4,0.4,6.8,0.7,10.2,1c0.5,0.1,1,0.1,1.8,0.1
		C146,532.6,145.8,520.6,145.6,508.3z M132,120.1c4.7,3.4,9.3,6.3,14.8,7.1c5.2,0.7,9.9-0.2,13.5-4.7c4-4.9,7.6-10,10.3-15.8
		c0.4-0.8,0.7-1.6,1-2.4c-3.1,4.5-5.9,9.1-9.7,13.1c2-5.1,3-10.4,3.4-15.8c-3,5.6-8,9.4-12.7,13.3c-1.2,1-2.6,1.9-4.1,2.4
		c-2.4,0.9-4.9,1.6-7.4,2C138.2,119.8,135.3,119.9,132,120.1z M186.1,695c-1.3-0.1-2.4-0.2-3.5-0.3c-2.5-0.1-5.1-0.3-7.6-0.3
		c-1.9,0-3.3,1-4.2,2.7c-0.3,0.6-0.6,1.3-0.9,1.9c-1.1,2.7-0.3,4.5,2.9,4.6c2.9,0.1,5.9,0.1,8.9,0.1c2.3,0,4.6-0.4,6.7-1.6
		c1.5-0.8,2.5-1.9,2.3-3.8c-0.2-1.8-0.5-3.6-0.8-5.4c-0.2-1-0.5-2-0.8-3c-0.5-2-1.1-4.1-1.6-6.1c-5.8,0.9-11,3.8-13.6,7.5
		c0.7,0,1.3,0,1.9,0c2.2,0,4.3-0.1,6.5,0.2C183.9,691.8,185.7,692.2,186.1,695z M124.3,102.9c-1.2-7.5,0.6-14.3,2.9-21.1
		c2.3-6.9,6.2-12.9,10.9-18.5c-2.6,0-5.4,1.2-7.7,3.1c-3.8,3.1-6.6,6.9-8.5,11.4c-2.6,6.4-3.4,13.1-2.8,20c0.1,1.5,0.6,3,1,4.4
		c0.3,1.1,1.2,1.6,2.4,1.4C123,103.3,123.5,103.1,124.3,102.9z M155.9,192c2.3-1.2,4.3-2.6,5.7-5.1c-0.7,0-1,0-1.3,0
		c-4.4,0.7-8.8,1.2-13.2,2.1c-1.6,0.3-3.2,1.1-4.5,2.1c-3.9,3-7.6,6.1-11.3,9.2c-0.1,0.1-0.1,0.3-0.1,0.3c1.8,1.7,3.6,3.4,5.5,5.2
		c2.8-2.8,4.7,0.5,7.1,1.2c0.2-0.6,0.4-1.2,0.6-1.8c1.5-3.4,2.9-6.9,4.6-10.2c0.7-1.4,1.7-2.7,2.9-3.8
		C153.5,189.4,154.5,189.7,155.9,192z M210.9,607.6c-2.6-2.8-17.8-14.1-19.5-14.6c-0.6,5-1.1,9.9-1.7,15.1
		C196.9,608.3,203.8,608.1,210.9,607.6z M206.8,636.6c-6.1-3.4-11.6-6.8-17.5-9.6c0,5.5,0,10.6,0,16.1
		C195.2,641,200.8,638.9,206.8,636.6z M192.5,492.4c-0.3,3.5,1.7,22,3,26.8c0.3-0.7,0.5-1.2,0.7-1.7c0.9-2.4,1.5-4.9,2.6-7.2
		c2.6-6.1,1.2-12-0.3-18.1c-1.5,0-2.9,0-4.3,0C193.6,492.3,193,492.4,192.5,492.4z M130.6,204.1c1.9,10.9,7.7,19.4,16.2,26.4
		c1.2-0.8,2.5-1.6,3.8-2.5c-0.4-0.6-0.5-0.9-0.8-1.2c-2.2-2.3-4.4-4.6-6.7-6.9c-2.5-2.5-4.9-5.2-6-8.6
		C136,208,133,206.3,130.6,204.1z M125.5,205.2c-1.4,1.1-1.4,1.1-1,2.6c1.7,6.3,4.4,12.2,8.5,17.3c1,1.2,2.2,2.3,3.4,3.3
		c1.5,1.2,3,2.3,4.6,3.5c1.6,1.2,1.7,1.2,3.6-0.6c-0.4-0.3-0.8-0.5-1.2-0.8c-6.7-5.2-11.1-12.1-14-19.9
		C128.6,208.5,127.2,206.8,125.5,205.2z M181.8,370.2c0.4,0.2,0.7,0.5,1.1,0.6c3.3,0.8,6.6,0.8,9.9-0.2c0.8-0.2,1.5-0.6,2.2-1
		c1.3-0.8,1.5-3.1,0.4-4.1c-3.3-3-7.1-4.5-11.6-3.2c-0.8,1.2-0.7,2.4-0.2,3.7c0.8,2.1,0.4,2.7-1.5,3.8
		C182,369.7,182,369.9,181.8,370.2z M233.8,115.6c1.6-1.3,3.5-5.2,3.9-7.8c-1.6,0.3-3.1,0.7-4.7,0.9c-0.5,0.1-1.4-0.3-1.6-0.7
		c-0.2-0.4,0-1.2,0.3-1.7c0.6-0.9,1.5-1.8,2.4-2.9c-1.2-0.4-2.1-0.8-3-0.9c-2.1,0-4.3,0.1-6.4,0.3c-3.1,0.2-4.6,2.4-5.7,4.8
		c-0.5,1-0.4,2.1,0.1,3.2C224,105.9,231.7,106.6,233.8,115.6z M221.1,691.4c-0.2-0.2-0.2-0.4-0.3-0.4c-4.1-1.5-8.2-3-12.4-4.5
		c-0.9-0.3-1.9-0.2-2.8-0.2c-2.4,0.2-4.8,0.6-7.1,0.9c-2.3,0.3-4.6,0.5-6.9,0.7c0.1,2,0.1,2,2.1,2.1c8.1,0.5,16.3,1,24.4,1.4
		C219,691.5,220,691.4,221.1,691.4z M185,616.9c0.6-5.5,1.2-10.5,1.6-16.1c-4.1,3.3-7.6,6.2-11.4,9.2
		C178.5,612.4,181.6,614.5,185,616.9z M194.2,114.5c-0.2-0.7-0.5-1.9-0.8-3c-0.4-1.1-1.2-1.7-2.4-1.4c-1.9,0.4-4,0.7-4.4,3.2
		c-0.1,0.7-0.6,1.3-0.9,2c-1,2.3-0.4,4.6,1.8,6c1.8,1.2,3.5,1,4.9-0.7C193.5,118.9,194,117,194.2,114.5z M159.7,706.6
		c0-0.1,0-0.2,0.1-0.4c-1.3-0.7-2.6-1.3-4-1.9c-0.6-0.2-1.2-0.3-1.8-0.3c-2.7,0-5.4,0.2-8.1,0.1c-1.2,0-2.8-0.2-3.6-0.9
		c-1.2-1.1-2.4-1.3-3.9-1.1c-0.9,0.1-1.9,0.2-2.9,0.1c-1.6-0.1-3.1-0.1-4.7,0.3c-2.6,0.6-4.9-0.2-6.7-2.2c-0.3-0.4-0.6-0.7-1-1.1
		c-1,1.1-0.8,2,0.4,2.6c1.3,0.7,2.7,1.4,4.2,1.7c4.4,0.9,8.8,1.8,13.2,2.2C147.1,706.2,153.4,706.3,159.7,706.6z M160.7,602.5
		c-0.2,0.1-0.3,0.1-0.5,0.2c0.5,4.8,1.1,9.5,1.7,14.8c3.1-2.6,5.9-4.9,8.9-7.3C167.2,607.5,163.9,605,160.7,602.5z M250,688.7
		c2.2-0.6,4.2-0.9,6-1.6c2.6-1,2.9-2.8,0.9-4.8c-1-0.9-2.1-1.7-3.1-2.6c-2.1-2-4.5-2.2-7.2-0.9C248.6,681.6,249.4,684.8,250,688.7z
		 M195.4,110.7c1.7,5.2,1,9.5-2.9,13.1c4.6,0.7,8.5-1.2,8.9-4.2c0.3-2.6-0.6-4.9-1.9-7C198.6,111.2,197.1,111.2,195.4,110.7z
		 M120.1,221.5c-0.1,0.1-0.2,0.3-0.4,0.4c0.6,0.8,1.1,1.7,1.8,2.4c2.2,2.3,4.7,4.4,7.5,5.9c3.2,1.7,6.4,3.3,9.6,5
		c1,0.6,1.4,0.2,1.7-0.9C133.5,230,127.9,224,120.1,221.5z M223.9,110.6c-1.8,0.7-3,1.9-4.2,3.2c-0.3,0.3-0.5,0.9-0.4,1.3
		c0.4,2.3,0.9,4.7,1.5,7c0.2,0.6,1,1.4,1.6,1.5c0.4,0.1,1.2-0.6,1.6-1.2C226,119.8,226,113.7,223.9,110.6z M265,692.1
		c-1.5-2.1-3.3-3.3-5.2-4.4c-2.1,2.1-4.8,2.8-7.6,3.3c-2.7,0.4-5.4,0.7-8.1,1c-0.7,0.1-1.5,0.3-2.2,0.4c0,0.2,0.1,0.3,0.1,0.5
		C249.6,693,257.2,693.7,265,692.1z M163,636.8c0.2,4.2,0.3,7.8,0.5,11.9c2.6-2.2,4.9-4.2,7.3-6.2
		C168.3,640.6,165.9,638.9,163,636.8z M183,637.1c-2.6,1.9-4.8,3.5-7.3,5.3c2.3,1.6,4.3,3.3,6.8,4.7
		C182.7,643.7,182.8,640.7,183,637.1z M133.3,692.7c-3.4-1.1-3.7-1-5.7,1.5c-0.4,0.6-0.8,1.2-1.2,1.8c-1.3,2.1-0.6,3.6,1.8,4.1
		c0.7,0.1,1.4,0,2.2,0C130.3,697.3,131.4,695,133.3,692.7z M223.9,124.6c4.4-2,6.9-5.1,6.5-8.2c-0.3-2.3-0.7-4.6-3.6-5.6
		C227.7,115.8,228.1,120.5,223.9,124.6z M197.8,364.6c-2.1-5.3-7.9-7.5-14.7-6c0.1,0.4,0.2,0.8,0.3,1.1c0.1,0.3,0.3,0.7,0.5,1.1
		C189.4,358.8,193.7,361.3,197.8,364.6z M231.4,265.7c-0.1,0-0.2-0.1-0.3-0.1c-2.2,3-4.4,6.1-6.6,9.3c1.3,0.8,2.4,1.4,3.7,2.2
		C229.2,273,230.3,269.3,231.4,265.7z M164.6,351.3c-1.3,1-1.1,2-0.5,3.1c0.8,1.4,1.7,2.9,2.6,4.3c0.2,0.3,0.4,0.8,0.7,0.9
		c0.5,0.2,1.2,0.3,1.7,0.2c0.2,0,0.4-1,0.2-1.4c-1-2-2-3.9-3.2-5.8C165.9,352,165.1,351.7,164.6,351.3z M194.9,347.8
		c4.2,2.7,6.8,2.6,10.3-0.2c-0.3-0.3-0.6-0.7-1-1c-0.5-0.4-1.1-0.8-1.7-1.3c-0.8,2.2-1.3,2.8-2.6,2.5c-1.3-0.3-2.4-1-3.8-1.7
		c0,0.1-0.2,0.3-0.3,0.5C195.5,346.9,195.2,347.3,194.9,347.8z M195.5,372.1c-0.3,0-0.5,0-0.7,0.1c-4.4,1.6-8.7,1.8-13-0.2
		c-1.1-0.5-1.7,0.2-2.4,0.9C184.2,375.4,192,375,195.5,372.1z M178.7,344c2.7,2.5,6.1,2.1,8.7-1.2c-0.4-0.5-0.8-1.1-1.4-1.8
		c-1.5,2.1-3.3,2.7-5.5,1.4C179.9,343,179.3,343.5,178.7,344z M174,368.9c-0.6-1-1.1-1.8-1.6-2.5c-0.9-1.2-1.7-2.5-2.7-3.6
		c-0.3-0.3-0.9-0.4-1.3-0.5C167.7,366.1,169.9,368.7,174,368.9z M170.2,335.3c1.2,2.4,3.1,3.7,5.2,5c0.7-1.6,0.8-2.9-0.5-3.9
		C173.7,335.3,172.4,334.1,170.2,335.3z M184.1,340.2c-0.8-2.1-2.6-3.1-4.6-3.8c-0.8-0.3-1.4,0.1-1.5,1.2c1,1,2.1,2.1,3.2,3
		C182.4,341.6,182.7,341.5,184.1,340.2z M174.1,364.9c0.3,1,0.8,1.5,1.8,1.3c2.1-0.3,4.2-0.2,6.2,1.2
		C181.6,363.9,177.9,362.8,174.1,364.9z M209.2,371.4c-1.4-1.6-2.7-3.1-4-4.6c-0.5,1.5-1,2.7-1.4,4
		C205.3,372.2,207,372.7,209.2,371.4z M204,350.5c3.2,2.1,5.7,1.9,8.2-0.7c-0.2-0.2-0.3-0.5-0.5-0.7c-0.2-0.2-0.5-0.4-0.7-0.5
		c-1.7,2-1.7,2-4.5,0.1C205.6,349.3,204.8,349.9,204,350.5z M162.8,333.8c1.3,1.2,2.4,2.3,3.7,3.3c0.6,0.5,1.5,0.7,2.1-0.1
		c0.5-0.7,0.3-1.6-0.4-2.2c-0.7-0.6-1.6-1.1-2.4-1.6C164.8,332.6,164,332.8,162.8,333.8z M157.3,346.6c-0.4,1.5,0,2.2,0.4,3
		c0.6,1,1.1,2.1,1.6,3.2c0.6,1.5,0.5,1.5,2.9,1.5C161.5,351.2,159.7,349.1,157.3,346.6z M179,401.3c0.2,3.7,0.6,4.8,2.3,6.9
		c1.3-0.3,1.6-1.2,1.3-2.3C182.1,403.9,181.3,402.1,179,401.3z M177.7,339.1c-0.2,0.8-0.3,1.2-0.5,1.5c-0.8,1.7-1.5,1.9-3.1,0.9
		c-0.6-0.4-1.2-0.8-1.8-1.2c-0.4,0.3-0.8,0.5-1.2,0.7c-0.4,0.2-0.7,0.5-1.1,0.8c3.7,2.1,6.7,1.7,9.2-0.9
		C178.8,340.4,178.4,339.9,177.7,339.1z M170.4,355.4c1.1,2.4,0.9,5.4,3.1,7.4C175.6,360.6,174.4,357.7,170.4,355.4z M186.3,339.1
		c1.3,1.4,2.4,2.8,3.7,4.1c0.4,0.3,1.1,0.3,1.7,0.4c0.1-0.6,0.4-1.2,0.3-1.7C191.5,339.7,189.2,338.6,186.3,339.1z M193.6,341
		c2.4,2.3,5,4.1,6.5,4.5C200.2,342,197.7,340.2,193.6,341z M163.8,356.1c-1.2,0-2,0.1-2.8,0c-0.8-0.1-1.9-0.2-2.4-0.8
		c-1.2-1.2-2.2-0.5-3.5-0.2C157.4,357.8,161.7,358.4,163.8,356.1z M226.2,354.6c-2.7,1.5-3.3,1.4-5.7-0.5c-0.7,0.3-1.3,0.7-2.3,1.2
		c3.1,1.5,5.9,2.2,9.3,0.8C227,355.5,226.6,355,226.2,354.6z M218.3,347.6c0.2,0.8,0.2,1.2,0.4,1.4c1.4,1.5,2.9,2.9,4.4,4.3
		c0.2,0.2,0.9,0.1,1,0c0.2-0.3,0.4-1,0.2-1.3C223.1,349.8,221.2,348.4,218.3,347.6z M202.9,368.2c-0.6-2.3-2.2-2.6-5.3-1.1
		C198.4,369.6,199.2,369.8,202.9,368.2z M161.6,335.1c-1.2-1.6-3.1-2.3-5.9-2.4c1.3,1.5,2.5,2.8,3.7,4.3
		C160.2,336.3,160.9,335.8,161.6,335.1z M188.3,344.5c-0.3,0.3-0.7,0.6-1,0.9c-0.1,0.1,0,0.3,0,0.4c3.4,1.9,5.5,1.6,7.9-1
		c-0.4-0.4-0.7-0.8-1.1-1.2C192.5,345.7,191.5,346.4,188.3,344.5z M168.3,704.2c-1.6,0.8-2.9,1.4-4.1,2.1c0,0.1,0,0.2,0.1,0.3
		c3.2,0,6.3,0,9.5,0c-1-0.1-2-0.2-2.9-0.7C169.8,705.5,169.1,704.7,168.3,704.2z M219,369.7c1.5,1.8,3.4,2.8,5.1,4.1
		C225,370.4,223.3,369,219,369.7z M209,348c0.6-1.4-0.1-2.3-1.1-3.1c-1.7-1.3-4-1.8-5.5-1.2C204.5,345,206.7,346.5,209,348z
		 M180.7,368.5c-1.7-0.4-3.2-0.7-4.7-1c0.1,2.8,0.3,3.1,1.3,3.4C178.7,371.1,179.4,370.7,180.7,368.5z M178,392.2
		c-0.3,4.8-0.3,4.9,1.2,6.9C180.8,396.8,180.6,395,178,392.2z M211.8,352.3c3,1.6,6.6,1.6,7.6,0c-0.3-0.3-0.5-0.7-0.7-0.9
		c-1.1,0.3-2,0.8-2.8,0.7c-0.9-0.1-1.7-0.7-2.6-1.1C212.8,351.4,212.4,351.8,211.8,352.3z M176.6,407.5c-0.5,1.4,0.1,2.2,0.9,3
		c1.5,1.5,4.1,2.6,5.6,2.5C181,411.2,178.8,409.4,176.6,407.5z M216.7,374.1c2.3,1.9,3.8,2.1,5.3,0.7c-0.8-0.9-1.6-1.8-2.3-2.6
		C218.6,372.9,217.6,373.5,216.7,374.1z M210.7,346.9c2.1,1.3,3.9,2.4,5.7,3.5c0.5-1.8,0.4-2.1-1.3-3.1c-0.9-0.5-2-0.9-3.1-1.1
		C211.7,346.1,211.2,346.5,210.7,346.9z M175,389c0.2-0.2,0.4-0.4,0.5-0.7c0.6-2.1,1.2-4.1,1.6-6.2c0.1-0.5-0.3-1-0.4-1.6
		C175.2,383.2,174.3,385.9,175,389z M213.4,370c-1.2,1.1-2.3,2-3.5,3c2.2,0.8,3.9,0.8,5.7-0.6C214.8,371.7,214.2,371,213.4,370z
		 M217.5,371.6c0.4-1.7,0.2-2.9-0.9-3.7c-1-0.7-2.2-0.6-3.7,0.2C214.5,369.3,215.9,370.4,217.5,371.6z M157.4,337.3
		c-0.8,0.6-1.3,1.1-2.1,1.8c3.4,0.5,6.2,0.4,8.8-1.7c-0.4-0.4-0.6-0.7-0.9-1C161.3,337.3,159.8,340,157.4,337.3z M230.8,355.8
		c-0.3-2.1-0.9-3.6-2.5-4.4c-0.9-0.4-1.5,0-2,0.9C227.4,353.8,228.8,354.8,230.8,355.8z M227.9,358.3c2.4,1.3,4.5,1.7,7.1,0.1
		c-0.8-0.7-1.4-1.3-2.1-1.9c-0.6,1.1-1.3,1.5-2.3,1.3C229.7,357.6,228.8,357.1,227.9,358.3z M174.2,380.4c0.9-2.2,1.6-4,2.3-5.9
		c-1.9-0.3-2.5,0-2.8,1.6C173.5,377.4,173.4,378.7,174.2,380.4z M174.8,398c1.1-2,1.4-4.3,1-7C174.1,392.2,173.7,395.2,174.8,398z
		 M163.2,340.5c3.1,0.6,5.6,0.2,7.9-1.3c-0.3-0.4-0.4-0.6-0.6-0.7c-0.1-0.1-0.4-0.1-0.4-0.1c-1.5,1.3-3.2,1-4.9,0.3
		C164.6,339.2,164.1,339.6,163.2,340.5z M235,361c1.1,1.4,2.5,1.8,4.1,1.3c0.3-0.1,0.7-0.7,0.7-1c0-0.3-0.5-0.7-0.9-0.9
		c-0.4-0.2-1,0-1.4-0.2C236.4,359.4,235.7,360.2,235,361z M229.2,376.8c0.1,0.2,0.3,0.4,0.4,0.6c2-0.1,3.7-0.8,5.1-2.5
		c-0.7-0.4-1.2-0.7-1.7-1C231.6,374.9,230.4,375.8,229.2,376.8z M226.1,371c0.4,2,1.8,2.7,4.4,2.3C229.9,371,228.7,370.4,226.1,371z
		 M186.6,641.4c-1,3.9-1.2,7.8-0.9,11.8c0.2,0,0.3,0,0.5,0C186.3,649.3,186.4,645.3,186.6,641.4z M222.9,376.8
		c2.4,0.7,3.9,0,5.4-1.5c-0.8-0.4-1.5-0.8-2.2-1.2C225.1,374.9,224.1,375.7,222.9,376.8z M235.9,373.5c0-3.2-1-3.7-3.8-2.5
		C232.2,373.6,234.6,372.4,235.9,373.5z M177.8,405.5c-0.2-2.2-0.3-4.3-0.5-6.6C175.2,401.4,175.3,403.7,177.8,405.5z M204.7,365.4
		c2.8-0.1,3.9,2.7,6.3,3.8C210.4,365.9,208.3,364.7,204.7,365.4z M185.6,706.3c4.5,0.1,5.8-0.6,5.8-3.1
		C189.6,704.2,187.7,705.2,185.6,706.3z M166.9,365.8c-0.1-1.4-0.1-2.4-0.2-3.5c-1.2,0-2.1,0-3.2,0
		C164.1,364.1,165.4,364.7,166.9,365.8z M178.7,389.5c1.2-2.1,1-3.7-0.5-5.2C177.3,386.1,177.1,387.9,178.7,389.5z M243.1,363
		c0.2-2.3-0.3-3.9-2.1-5.2c-0.2,0.5-0.6,0.9-0.5,1.1C240.9,360.4,241.7,361.7,243.1,363z M233.8,355.1c1.4,1,2.7,2,4.3,3.1
		C238.3,355.6,237.9,355.3,233.8,355.1z M157,351.2c-2.9-0.1-2.9-0.1-2.5,1.9c1,0,1.9,0,3.1,0C157.3,352.3,157.2,351.8,157,351.2z
		 M179.1,380.3c0.5-1.9,0.3-3.3-0.9-4.5C176.7,377.7,177.7,378.9,179.1,380.3z M245.3,362.9c0.7-2.5,0.4-3.1-1.6-3.4
		C243.4,361,244.1,362,245.3,362.9z M181.1,362.9c1.1-2.6,0.6-3.8-1.7-4C180,360.2,180.5,361.5,181.1,362.9z M241.1,372.8
		c0-1.7-0.7-2-3-1.4C238.5,372.9,238.5,372.9,241.1,372.8z M178.8,362c-0.7-1.5-1.1-2.6-2.4-3.5c0.1,1.3,0.3,2.3,0.4,3.4
		C177.4,362,177.8,362,178.8,362z M235.3,376.5c2.6-0.2,2.6-0.2,3.9-1.8c-0.4-0.2-0.9-0.5-1.1-0.4
		C237.3,374.9,236.5,375.6,235.3,376.5z M153.5,336.2c0.1,0.2,0.2,0.4,0.3,0.6c0.9-0.3,1.7-0.7,2.8-1c-0.5-0.7-0.9-1.2-1.3-1.8
		C154.6,334.7,154,335.4,153.5,336.2z M178.7,413.8c2.2,2,3,2.2,4.6,1.6C182,414.9,180.6,414.5,178.7,413.8z M162,359.3
		c0,0.2-0.1,0.4-0.1,0.6c1,0.2,2,0.3,3.4,0.6c-0.5-0.9-0.7-1.5-1-2C163.4,358.8,162.7,359.1,162,359.3z M243.7,372.9
		c-0.8,0.8-1.5,1.6-2.5,2.7C243.8,375,243.8,375,243.7,372.9z M241.9,370c0.8,0.7,1.3,1.2,1.5,1.1c0.6-0.3,1.2-0.8,1.8-1.2
		c-0.1-0.2-0.2-0.4-0.3-0.5C244.1,369.6,243.3,369.7,241.9,370z M155.6,349.3c-0.1-1.1-0.4-2.1-1.6-2.6c0,1,0.1,1.7,0.1,2.6
		C154.6,349.3,155,349.3,155.6,349.3z M245.6,372.8c2.2-0.6,2.2-0.8,0.6-2.1C246,371.5,245.8,372.1,245.6,372.8z M175.3,372.6
		c-0.5-2-0.5-2-2.6-1.8C173.7,371.4,174.4,371.9,175.3,372.6z M235.1,100.2c1.5,1,1.6,0.9,2.1-1.2C236.6,99.4,236,99.7,235.1,100.2z
		 M239.2,328.3c0-0.9,0-1.8,0-3C237.9,326.5,238.6,327.4,239.2,328.3z M240.7,363.4c-0.2,0.2-0.3,0.5-0.5,0.7c0.6,0.3,1.3,0.7,1.9,1
		c0.1-0.1,0.1-0.2,0.2-0.4C241.8,364.3,241.2,363.9,240.7,363.4z"/>
	<path class="st0" d="M245.8,375.1c2.5,9.6,4,18.8,5,28.1c1.7,16.6,2.8,33.2,2.4,49.8c-0.2,5.8-0.6,11.5-0.8,17.3
		c0,1.1-0.3,2.1-1.1,2.8c-1.7,1.5-3.4,3.2-5.3,4.5c-6.6,4.4-14,6.9-21.7,8.5c-11.7,2.4-23.6,2.9-35.6,2.8c-10.9-0.1-21.7-0.8-32.6-2
		c-1-0.1-1.9-0.3-3-0.5c0-1-0.1-2.1,0-3.1c2.8-27.4,2.7-54.9,2.1-82.5c-0.2-10.6-0.2-21.3-0.3-31.9c-0.1-3.8-0.3-7.7-0.5-11.5
		c1.8,0.6,3.5,1,5,1.8c1,0.6,2.4,1.6,2.5,2.6c0.4,3.1,2.8,4.2,5,5.3c1.7,0.8,3.1,1.7,4,3.5c0.5,1,1.4,1.7,2.1,2.6
		c-1.9,3.2-1.3,6.2,0.2,9c-0.3,2-1.2,4-0.7,5.6c0.7,2.5,0.2,4.9,0.1,7.3c0,0.3,0,0.7,0,1c0.7,2.9,1.4,5.8,2.1,8.7
		c0.1,0.6,0,1.2,0,1.8c0,0.9-0.3,1.8,0,2.6c0.9,2.3,2,4.6,3.2,7c-2.1,2.9-1.8,6.2-0.9,9.5c2.4,9.1,0,17.7-2.5,26.4
		c-0.8,0-1.4-0.1-1.9,0.1c-0.5,0.2-1.3,0.8-1.3,1.2c0.1,1.7-1.1,2.5-2.2,3.4c-0.1,0.1-0.1,0.3-0.2,0.5c1.1,0.9,2-0.4,3.1-0.2
		c0.1,1,0.2,2,0.3,3.4c0.6-0.8,1-1.2,1.3-1.6c0.5-0.6,0.9-1.3,1.5-1.8c0.8-0.6,1-1.4,1-2.3c0-0.7,0.2-1.5,0.5-2.2
		c3.9-8.8,5.8-17.9,3.5-27.5c-0.6-2.5-1.5-5.1-0.3-7.8c0.2,0.2,0.5,0.3,0.6,0.4c1.9,7.8,4.5,15.5,4,23.8c-0.3,5-0.9,9.8-2.8,14.6
		c-0.7,0.1-1.3,0.1-1.9,0.3c-1.1,0.3-1.8,1.1-1.4,2.2c0.5,1.2,0,2-0.4,2.9c-0.2,0.4,0,1,0,1.5c0.5-0.1,1.1,0,1.5-0.3
		c0.7-0.5,1.3-1.2,2-1.9c0.5,1.2,0.8,2.2,1.2,3.2c1.6-1,2.2-2.1,1.1-3.7c-1.3-2-0.6-3.5,0.2-5.4c2.7-6,3.3-12.5,2.8-19
		c-0.5-6.1-2.5-11.9-4.5-17.8c1.8-0.3,3.6-0.7,4.4-2.7c2.7,2.1,3.7,4.9,4.1,8c0.5,3.6,0.2,7.2-0.6,10.7c-0.2,0.8-0.4,1.7-1.3,2.2
		c-0.4,0.2-0.8,1-0.8,1.6c0.1,1.3,0.4,2.6,0.6,4.2c0.7-0.4,1.3-0.7,2-1.1c0.8,0.6,1.6,1.2,2.4,1.7c1.2-0.7,0.7-1.4,0.4-2.2
		c-0.6-1.5-1.2-3-1.7-4.5c-0.1-0.5,0.3-1.2,0.5-1.8c1.3-4.4,1.5-8.8,0.4-13.3c-0.4-1.8-1.4-3.5-2-5.2c5.3,2.8,7.1,9.9,5.6,17.2
		c-0.7,0.6-2.1,0.3-2.3,1.7c-0.1,0.9-0.3,1.8-0.5,3.1c0.9-0.3,1.7-0.6,2.6-0.9c0.4,0.5,0.9,1.2,1.8,2.3c0.3-1.9,0.6-3.4,0.8-4.8
		c0.1-0.8,0-1.7,0.2-2.5c1.8-8.5-1.4-16.8-10.3-20c-0.5-0.2-1.1-0.6-1.5-1c-0.8-1.1-1.5-2.3-2.5-4c-0.1-3-0.5-3.9-3-6.8
		c0.2-1.8,0.6-3.4,0.4-4.9c-0.2-1.4-1.1-2.8-1.7-4.4c1.3-2.6,1.5-5.3-0.5-8c1.8-2.2,2-4.6,0.8-7.4c6.7,1.1,13.3,2.4,18.3-4.2
		c0.9-0.1,2.1-0.3,3.4-0.5c1.4,1.6,3,2.8,5.3,2.7c0.3,0,0.6,0.2,0.9,0.4c1.7,1.1,3.6,1.4,5.5,1.1c0.9-0.2,1.5,0,2.2,0.6
		c1.4,1.1,3.1,1.4,4.8,1.8c2.4,0.6,4.6,1,7.1,0.9c1.7-0.1,3.4,0.4,5.1-0.3c0.5-0.2,1.1-0.1,1.6-0.1c1.7,0.2,3.3,0.1,4.8-0.9
		c0.3-0.2,0.8-0.3,1.1-0.3C242.7,377.4,244.2,376.8,245.8,375.1z"/>
	<path class="st1" d="M136.8,314c3.5,3.6,6.4,7.1,9.7,10c3.3,2.9,4.5,6.1,4.3,10.4c-0.2,6.4,0.4,12.8,0.6,19.2
		c0.1,3.4-0.1,6.7,0.1,10.1c0.7,19.4,1.1,38.9,0.9,58.3c-0.2,13.5-0.5,27-0.9,40.5c-0.3,8.1-1,16.3-1.5,24.4
		c-0.3,5.2-0.6,10.4-0.9,15.6c0,0.7-0.1,1.4-0.1,2c-3.4,0.8-6.7,1.3-9.9,2.3c-3.1,1-6,2.5-9.1,3.8c1.8-15.6,2.9-31.2,3.6-46.9
		c0.7-15.7,0.6-31.3-0.1-47c-0.1,1.7-0.3,3.5-0.4,5.2c-0.8,14.4-1.6,28.7-2.4,43.1c-0.4,6.6-0.7,13.3-1.1,19.9
		c-0.5,8.3-1,16.6-1.5,24.9c-0.1,1.8-0.2,3.5-0.3,5.3c-0.1,2.2,0.9,3.7,2.7,4.7c1.5,0.8,3.3,1.3,4.9,1.9c1.6,0.6,3.4,1.1,4.9,1.9
		c2.4,1.3,2.3,2.8-0.1,4.2c-0.3,0.2-0.6,0.3-0.9,0.4c-3.6,1.3-7.4,2.4-10.7,5.3c-0.2-4.2,0.3-8-0.6-12.3c-1.6,4.5-1.9,8.8-2.2,13
		c-0.1,1.8-0.1,3.5-0.2,5.3c-0.1,3.2,1.2,5.5,4.2,6.5c1.9,0.6,3.9,0.9,5.9,1.1c3.1,0.4,6.2,0.6,9.3,1c1.9,0.2,1.9,0.3,2.3,2.1
		c0.4,2.3,0.9,4.5,1.3,6.9c-0.5,0.1-0.9,0.2-1.2,0.1c-13.7-1.7-27.2-4-39.9-9.7c-4.7-2.1-9.3-4.7-13.8-7.2c-2.3-1.3-4.2-3.2-5.6-5.5
		c-1.4-2.3-1.9-4.7-1.6-7.3c1-7.2,2.9-14.2,4.9-21.2c2.6-9,4.8-18.1,7.4-27.1c1.7-6.1,3.9-12,5.6-18.1c1.2-4.3,2.1-8.7,3.2-13
		c2.2-9.1,4.5-18.1,6.7-27.2c0.6-2.6,1-5.2,1.6-7.7c0.7-2.8,1.4-5.6,2.2-8.3c3.7-12.1,7.3-24.2,10-36.5c1-4.7,2.6-9.2,3.7-13.9
		c2.4-10.1,3.5-20.5,4.4-30.8C136.4,320.4,136.6,317.4,136.8,314z M111.1,546.7c0.5-22.9,5.1-45.5,6.6-68.3
		c-0.5,1.9-0.9,3.7-1.2,5.6c-1.4,8.9-2.9,17.8-4.2,26.7c-1.3,8.9-2.3,17.7-2.2,26.7C110.1,540.5,110,543.6,111.1,546.7z
		 M106.1,488.6c3.1-10,4.6-20.3,6.3-30.5C109.5,468.1,107.5,478.3,106.1,488.6z"/>
	<path class="st2" d="M204.1,50.5c-5.4,0.9-10.5,1.7-15.7,2.6c4.8,1.6,9.5,1.3,14.3,0.8c7.6-0.9,15.1-1.3,22.7,0.2
		c7,1.4,13.3,4.3,18.9,8.9c6.7,5.6,8.8,12.9,7.8,21.3c-0.3,2.9-0.9,5.8-1.2,8.8c-0.4,3.9,0.5,7.6,1.2,11.4c0.3,2,0.5,4.1,0.3,6.2
		c-0.1,1.3-0.7,2.6-1.4,3.7c-2,3-10,5.6-13.8,3.1c4-1.6,7-4,7.5-8.8c-2,1.8-3.9,3.3-5.7,4.9c-0.1-0.1-0.3-0.2-0.4-0.3
		c0.7-2,1.3-4.1,2.1-6c0.3-0.6,1-1.2,1.7-1.6c6-3.7,8.3-10.4,5.8-17.3c-0.2,0.6-0.4,1-0.5,1.4c-0.6,2.6-1.2,5.1-1.8,7.7
		c-0.7,2.8-2.6,4.8-5.1,6.1c-1.5,0.8-3.1,1.4-4.8,2.1c2.5-4.1,4.8-8.1,7.2-11.9c1.7-2.7,2.3-6.9,1-10.3c-0.8,2.6-1.5,5.4-2.6,8
		c-1.2,2.8-3.7,4.5-6.7,6.1c1.1-3.7,1.9-7.1,3.1-10.4c1.5-4.2,1.1-8-0.9-11.9c-0.2,2.8-0.4,5.5-0.7,8.3c-0.5,3.9-3.1,5.9-7.1,7.3
		c1.4-3.3,2.1-6.2,1.5-9.3c-0.6-3.1-1.7-5.9-4.2-8.2c0.4,2.3,0.7,4.7,1.1,7c0.7,4.8-2,9.4-6.6,11.1c-0.7,0.3-1.4,0.4-2.3,0.7
		c1.4-7.7,1.4-15.1-2.9-21.8c0.2,2.5,0.4,5,0.5,7.4c0.4,5.3-0.7,10.3-3,15.1c-0.9,1.8-2.4,3.2-4.1,4.3c-2,1.3-4.2,2.2-6.9,3.2
		c4.6-7.6,5.7-15.3,4.2-23.5c-0.3,1.6-0.6,3.2-1,4.8c-0.5,2.1-0.9,4.2-1.4,6.3c-1.6,6.6-5.2,12-10.3,16.4c-1.4,1.2-2.9,2.4-4.6,3.5
		c2.9-11.1,5.3-22.2,7.6-33.4c-0.2-0.1-0.3-0.1-0.5-0.2c-0.8,1.9-1.7,3.7-2.4,5.7c-2.3,7.1-4.5,14.2-6.7,21.3
		c-0.7,2.4-1.5,4.7-2.4,7c-0.2,0.7-0.7,1.3-1.3,1.9c1-10.5,2.1-20.8,1.6-31.3c-2.3,7.1-2.9,14.5-4.5,21.8
		c-0.3-5.7-0.5-11.5-0.8-17.8c-0.5,0.9-0.8,1.3-1,1.7c-1.3,3.7-2.4,7.4-3.8,11.1c-0.6,1.6-1.4,3-2.3,4.4c-1.8,2.8-3.7,5.4-5.5,8.1
		c-0.4,0.6-0.8,1.1-1.5,1.6c0.5-4.4,1-8.9,1.6-13.8c-3.2,5.7-6.2,10.8-11.3,15c1.3-4.3,2.2-8.2,1.5-12.3c-0.6,1.7-1.3,3.4-1.9,5
		c-0.6,1.7-1.2,3.5-1.9,5.2c-1.2,2.9-3.3,4.9-6.2,6c-3.6,1.4-7.4,2.1-11.2,2.5c-0.9,0.1-1.5-0.2-2-0.9c-3.8-5-6.7-10.3-7.3-16.7
		c-0.3-4,0.5-7.8,1.4-11.6c2.3-9.7,7.4-17.8,13.9-25.1c2.3-2.6,5.2-4,8.3-5c4.7-1.4,8.9-3.6,12.9-6.3c2.9-1.9,5.7-3.9,8.6-5.6
		c2.8-1.6,5.8-3,8.8-4.4c3-1.4,6.1-1.2,9.1,0.1c1.5,0.6,2.9,1.3,4.3,2.2C197.4,46.1,200.6,48.2,204.1,50.5z"/>
	<path class="st3" d="M148.3,508c1.3-0.5,2.3-0.8,3.5-1.2c0.3-5.8,0.6-11.5,0.8-17.4c12.5,1.7,24.9,2.8,37.5,2.8
		c0,2.3-0.1,4.4,0,6.4c0.5,6.2,1.2,12.4,1.8,18.6c0.4,4,0.8,8,0.9,12c0,7.1,0,14.2-0.4,21.3c-0.4,7-1.4,14-2.2,21
		c-0.9,7.5-1.9,15.1-2.7,22.6c-0.2,1.8-0.9,3.1-2.3,4.2c-4.1,3.2-8.1,6.5-12.1,9.9c-0.6-0.4-1.2-0.7-1.7-1
		c-3.4-2.4-6.7-4.9-10.1-7.3c-1.2-0.9-1.8-1.9-2-3.3c-1.2-7.5-2.3-15-3.7-22.5c-1.3-6.6-3.2-13-4.6-19.6c-1-4.8-1.9-9.8-2.1-14.7
		C148.4,529.3,148.5,518.7,148.3,508z M159.8,526.5c0.6,2.6,2.1,4.6,3.9,6.4c3.1,3.3,6.5,5.1,11.3,3.7c4.9-1.4,7.7-4.7,7.4-10.1
		c-0.3,0.6-0.5,1-0.7,1.4c-0.8,1.6-1.4,3.2-2.3,4.7c-2,3.3-5.4,4.4-8.9,2.8c-2-0.9-3.9-2.2-5.6-3.6
		C163.1,530.3,161.5,528.3,159.8,526.5z M183.6,515.2c-0.1-3-0.9-5.2-2.6-6.9c-3.3-3.2-7.4-4.5-11.9-5c-1.1-0.1-2.2,0.1-2.8,1.1
		c3.4,1.1,6.7,2.1,10,3.3c2.8,1,4.8,2.7,6,5.4C182.6,513.7,183,514.2,183.6,515.2z"/>
	<path class="st3" d="M216.1,607.5c-1-0.7-1.7-1.1-2.3-1.6c-6.8-4.9-13.5-9.9-20.4-14.8c-1.4-1-1.9-2.1-1.7-3.8
		c0.9-8.7,1.8-17.3,2.6-26c0.6-6.7,1.2-13.4,1.6-20.1c0.2-3.7-0.1-7.4,0-11c0-1.6,0.2-3.4,0.7-4.9c1.3-4.3,2.7-8.6,4.4-12.7
		c2.4-5.8,2.6-11.6,1.1-17.6c-0.2-0.8-0.3-1.7-0.5-2.9c1-0.1,1.9-0.2,2.9-0.2c9.1-0.5,18.1-1.6,26.9-4.3c7.2-2.2,13.9-5.2,19.6-10.2
		c0.1-0.1,0.3-0.1,0.8-0.2c-0.2,1.7-0.3,3.3-0.5,4.9c-2.3,15-6.7,29.4-12.7,43.4c-1.1,2.6-3.4,3.7-5.9,4.4c-1.8,0.5-3.7,0.8-5.9,1.3
		c2.9,1.4,4.5,1.4,9.3,0c-0.7,3-1.9,5.5-2.9,8.1c-1,2.8-2,5.6-2.9,8.4c-0.9,2.7-1.7,5.5-2.5,8.3c-0.8,2.8-1.6,5.7-2.4,8.5
		c-0.7,2.8-1.4,5.6-2.1,8.4c-0.7,2.9-1.4,5.7-2,8.6c-0.6,2.8-1.2,5.6-1.8,8.4c-0.6,2.9-1.2,5.8-1.8,8.7
		C217.3,601.4,216.8,604.2,216.1,607.5z M223.3,532.4c0-3.8,0-7.2,0-10.8C221,524.8,220.9,529.8,223.3,532.4z"/>
	<path class="st3" d="M172.6,256.9c0.1-0.2,0.2-0.7,0.5-1.6c-1.2,0-2.2-0.1-3.2,0c-1.3,0.1-2.5,0.4-3.8,0.5c-1.8,0.2-3.5-0.2-5-1.2
		c-2.7-1.8-5.6-2.5-8.9-2.5c-2.7,0-5.4,0-8.1-0.2c-2.8-0.2-5.2-1.4-7.5-2.9c-0.6-0.4-1-1.1-1.6-1.7c1.7-1.6,3.5-1.3,5.1-0.8
		c4.4,1.2,8.9,2,13.5,2.2c1.2,0,2.4,0,3.6,0c0.2-1.7-0.9-2-1.8-2.4c-2.9-1.4-5.9-2.8-8.9-4.2c-2-0.9-3.6-2.3-5.2-4.1
		c0.6-0.5,1.1-1,1.7-1.3c2.3-1.5,4.6-3,6.8-4.5c1.1-0.8,2.1-1.6,3.3-2.6c2.4,2.9,5.1,5.7,5.8,9.7c0.6,3.6,2.9,5.4,6.3,5.9
		c1.6,0.2,3.1,0.3,4.9,0.5c-0.2-1.5-1.2-2.1-2.3-2.5c-0.9-0.3-1.9-0.5-2.8-0.7c-1.9-0.4-3.2-1.4-3.5-3.4c-0.5-3-2-5.6-4-7.8
		c-2-2.2-4.1-4.2-6.1-6.4c-3.3-3.6-6.6-7.1-9.7-10.9c-1.8-2.2-2-3.3-2-5.6c2.3,1.7,4.6,3.1,6.4,5c6.1,6.4,13,11.8,20,17.2
		c4.1,3.2,8.1,6.5,12,9.9c2.1,1.8,3.8,4.1,5.7,6.2c6.8,7.6,15,13.7,22.9,20.1c5.6,4.5,11.6,8.5,17.9,12c4.2,2.4,8,5.3,10.2,9.8
		c0.9,1.9,1.6,4,2.4,6c0.2,0.7,0.2,1.5,0.6,2.1c0.2,0.4,0.8,0.9,1.2,0.9c0.4,0,1-0.7,1-1c0-1.4,0-2.9-0.4-4.3
		c-1.4-5.2-4.3-9.4-8.6-13c1.1-4,2.2-8,3.4-12.4c0.9,0.4,1.7,0.7,2.4,1.2c7.6,4.3,13.1,10.6,17,18.4c0.3,0.6,0.3,1.4,0.1,2
		c-2.8,8.2-5.8,16.3-10,23.8c-2.4,4.3-5.2,8.4-7.8,12.6c-1.1,1.7-2,2.1-3.8,1.4c-1.7-0.7-3.5-1.6-4.9-2.9
		c-12.9-10.9-24.4-23-33.1-37.6c-2.8-4.7-5.6-9.5-8.6-14.1c-2.2-3.3-4.6-6.6-7.2-9.6C176.8,259.9,174.6,258.5,172.6,256.9z"/>
	<path class="st1" d="M249,568.6c-1.2,0.1-2.2,0.3-3.2,0.3c-5.6-0.5-11.3-1.2-16.9-1.8c-0.2,0-0.4-0.2-0.8-0.4
		c0.3-1.2,0.5-2.5,0.8-3.7c1.8-6.5,3.7-12.9,5.6-19.4c1.2-4.1,2.8-8.1,4.7-12.1c7.4-15.9,12.5-32.5,14.8-49.9
		c2.2-16.8,2.9-33.6,2.2-50.5c-0.2-5.3-0.8-10.7-1.2-16c-0.1-0.9-0.1-1.9,0.1-2.9c0.2,0.3,0.4,0.7,0.5,1
		c4.8,14.6,9.8,29.1,14.3,43.7c5.1,16.5,8.6,33.4,10.7,50.6c0.8,6,1.4,12.1,1.9,18.1c0.2,2.2,0,4.5-0.4,6.7c-0.5,2.9-2.3,5.1-5,6.3
		c-3,1.4-6.2,2.1-9.7,2.2c0-1.5-0.1-2.9,0-4.3c0.9-13.9,0.3-27.8-2.2-41.6c-0.1-0.8-0.4-1.5-0.9-2.3c0,15.6,0.1,31.2,0,46.7
		c0,4.2,1.4,7.2,5.1,9.3c2.3,1.3,4.5,2.8,6.7,4.2c0.3,0.2,0.7,0.4,1,0.7c1.3,1.2,1.1,3.1-0.5,3.7c-1.5,0.6-3.2,0.9-4.9,1
		c-5.5,0.4-10.8-0.6-16.1-2.1c-1.9-0.5-3.8-1.3-5.7-1.7c-2.3-0.5-4.7-0.7-7.1-0.9c-1.6-0.2-3,0.4-3.7,2c-0.7,1.6-0.8,3.3,0.3,4.8
		c0.8,1,1.8,1.8,2.9,2.5c1.3,0.9,2.8,1.5,4.2,2.4C247.5,566,248.6,566.9,249,568.6z M254.8,508.1c1.7,6.7,3.4,13.5,4,20.4
		c0.6,6.9,1.1,13.9,1.6,20.5C263.4,539.6,260.3,514.9,254.8,508.1z M241,552c3.4-9.3,6.6-18.9,8.7-28.7
		C245.9,532.5,243.1,542.1,241,552z"/>
	<path class="st3" d="M181.4,122.3c0.7,0.6,1.2,1,1.8,1.4c5,3.7,10.5,4.5,16.3,2.2c3.9-1.5,5.4-4.7,4.4-8.7
		c-0.1-0.6-0.3-1.2-0.5-1.9c0.5,0.2,0.9,0.4,1.4,0.6c-0.6-3.7-2.8-5.5-10-7.9c0.6-1.3,1.8-1.4,2.9-1.6c1.8-0.3,3.5,0.2,5.1,0.8
		c0.9,0.3,1.8,0.6,2.8,0.7c0.5,0,1.4-0.4,1.5-0.8c0.2-0.6,0.1-1.5-0.2-1.9c-0.7-0.8-1.7-1.3-2.8-2.1c4.6-1.9,8.9-3.9,11.4-8.6
		c3.7,0.5,7.1-0.5,9.9-3c0.6,0.8,0.9,1.8,1.6,2.1c0.7,0.3,1.7,0,2.5-0.2c1.4-0.5,2.8-1.1,4.6-1.8c-0.5,2.7-1.4,4.9-2.6,7.2
		c-1,0-1.9,0-2.9,0c-3,0-5.7,1-8.1,2.5c-2.6,1.7-3.7,4-3.8,7.3c-0.3,7.1,1,13.8,3,20.5c0.9,3.1,1.1,6.4,1.7,9.7
		c0.2,1.3-0.3,2.1-1.5,2.3c-1.1,0.2-2.2,0.4-3.3,0.3c-3.6-0.6-6.9-2-9.6-4.5c-0.7-0.6-1.5-1.1-2.3-1.7c-0.9,1.2-0.6,2.2,0,3.1
		c0.7,1.1,1.5,2.1,2.5,2.9c3,2.3,6.5,3.5,10.2,3.7c1.1,0.1,2.2-0.2,3.3-0.5c2-0.7,3.1-2.1,3.3-4.3c0.4-3.6-0.3-7-1.1-10.4
		c-0.2-0.8-0.4-1.7-0.6-2.6c6.5,1.2,9.4-2.7,11.5-7.8c1.2,0.7,2.4,1.4,3.9,2.3c-0.2,5.3,0.2,10.7-3.4,15.6c-2.1,2.9-3.7,6.3-5.2,9.7
		c-1.8,4-3.3,8.1-4.9,12.2c-0.9,2.3-1.7,4.6-2.5,7c-0.5,1.4-1.2,2.5-2.4,3.5c-2.7,2.3-5.8,3.7-9.3,4.1c-2.2,0.3-4.3,0-6.3-0.8
		c-3.6-1.4-7.2-2.5-10.9-3.8c-6-2.1-11.6-4.9-17-8.2c-3.7-2.3-6.9-5.1-9.5-8.7c-2.6-3.6-4.9-7.2-6.9-11.2c2.1-1.2,3.9-2.5,5.9-3.5
		c4.2-2.2,7.6-5.3,10.6-8.8C177.6,126.3,179.5,124.4,181.4,122.3z M198.1,154.8c0.8,1.5,1.8,1.3,2.8,1.2c6.5-0.5,13-1.9,19.6-0.6
		c0.9,0.2,1.6-0.2,1.8-1.2c0.1-0.9-0.4-1.5-1.3-1.7c-1.1-0.2-2.2-0.4-3.3-0.5c-6-0.3-11.9,0.7-17.8,1.9
		C199.2,154.1,198.7,154.5,198.1,154.8z M184.5,131.2c-0.3-0.7-0.5-1.7-1-2.4c-0.4-0.5-1.3-0.8-1.8-0.7c-0.5,0.1-1.2,1-1.1,1.5
		c0.1,1.2,0.4,2.4,0.9,3.4c0.6,1.2,2.1,1,2.6-0.2C184.3,132.4,184.3,131.9,184.5,131.2z"/>
	<path class="st4" d="M221.9,154.2c0-2.6-1.8-3.7-7.8-3.7c-5.9,0-7.9,2.6-12.5,3.7c-2.5,0.6,4.2,5.8,10.1,5.8
		C217.6,159.9,221.9,156.8,221.9,154.2z"/>
	<path class="st0" d="M146.9,209.4c1.7-4,3.4-8,5.2-12.2c0.8,0.6,1.3,0.9,1.8,1.3c8.6,6.5,18.2,10.9,28.9,12.6
		c8.1,1.3,15.8-0.3,23.2-3.3c2.9-1.2,5.6-2.7,8.6-4.2c0.2,0.3,0.7,0.7,1,1.3c2,3.7,4.1,7.4,6,11.2c0.3,0.6,0.5,1.6,0.2,2.2
		c-2.1,4-1.9,8.2-1.7,12.4c0.1,2.1,0.5,4.1,0.8,6.2c0.6,4.3-0.1,8.2-3.2,11.5c-4,4.3-7.9,8.7-12.1,13.4c-5-4.3-9.9-8.3-14.5-12.5
		c-3.6-3.4-6.8-7.2-10.4-10.6c-3.9-3.6-8.1-7-12.2-10.4c-4.6-3.8-9.4-7.4-13.9-11.3C151.9,214.7,149.6,212.1,146.9,209.4z"/>
	<path class="st3" d="M200.2,300.4c-3.7,3.6-7.4,7.5-11.3,10.9c-6.8,6-14,11.6-21.8,16.4c-5.6,3.5-8.6,3.2-13.5-1.3
		c-2.8-2.5-5.3-5.3-7.9-8c-5.1-5.4-10.1-10.9-15.1-16.4c-1.3-1.5-2.4-3.2-3.6-4.7c6.9-11.2,15.7-18.2,27.3-19.7
		c2.8,5,5,10.4,7.2,15.9c-1,1.1-2,2.2-2.9,3.4c-0.9,1.1-1.8,2.2-2.6,3.4c-0.7,1.1-0.9,2.2,0.1,3.3c1.1,0.3,1.8-0.4,2.3-1.2
		c3.7-5.3,8.6-9.4,13.8-13.2c4.5-3.3,8.8-6.9,13.2-10.4c0.2-0.2,0.5-0.3,0.8-0.5C190.6,285.6,195.3,292.8,200.2,300.4z"/>
	<path class="st3" d="M256.8,188.6c1.7,2.7,1.7,5.2,1.1,7.6c-1,3.9-2.3,7.6-5.1,10.7c-4,4.5-7.9,9.1-11.8,13.6
		c-0.4,0.5-0.9,0.9-1.2,1.4c-0.2,0.3-0.2,1,0.1,1.3c0.2,0.3,0.9,0.5,1.2,0.3c0.8-0.4,1.5-0.9,2.1-1.6c3.2-3.6,6.5-7.1,9.5-10.8
		c3.6-4.4,6.9-9,10.3-13.6c0.8-1,1.6-1.9,2.5-3c1.4,2.2,1.5,4.4,1.1,6.5c-0.5,2.3-1.2,4.7-2,6.9c-0.4,1-1.1,2-1.9,2.7
		c-5,4.7-10,9.2-15,13.9c-0.3,0.3-0.6,0.5-0.8,0.9c-0.2,0.3-0.3,0.8-0.1,1.1c0.2,0.3,0.7,0.5,1,0.4c0.8-0.2,1.5-0.5,2.2-1
		c1.5-1.2,3-2.4,4.4-3.7c3.2-2.9,6.4-5.8,9.5-8.8c0.5-0.4,1-0.8,1.7-1.4c0.6,1.8,0.3,3.3-0.3,4.7c-1.6,3.8-3.9,7.1-6.7,10.2
		c-1.3,1.4-2.7,2.7-3.9,4.2c-3.3,4.1-5.4,8.8-7.2,13.7c-1.3,3.7-3,7.2-4.5,10.8c-0.6,1.5-1.8,2.4-3.4,2.7c-1.6,0.3-3.1,0.7-4.7,0.8
		c-1.8,0.1-3.2,0.9-4.3,2.3c-1,1.2-1.9,2.6-2.9,3.9c-2,2.6-4,5.2-6,7.8c-5.3-2.9-9.7-6.4-14.2-10c1.2-1.2,2.4-2.3,3.5-3.5
		c3.1-3.4,6.4-6.8,9.3-10.3c2.5-3,4.2-6.4,5.1-10.1c-0.1-0.2-0.2-0.2-0.2-0.3c-0.3,0.2-0.6,0.5-0.9,0.7c-0.1-0.1-0.3-0.1-0.3-0.2
		c-0.6-5.5-1.9-10.9-1-16.4c0.4-2.3,1.3-4.2,3.3-6c0.4,1,0.9,1.7,1.1,2.5c0.4,1.9,0.6,3.8,1.1,5.6c0.4,1.9,0.1,3.4-1.1,4.9
		c-0.5,0.7-1.4,1.5-0.4,2.5c0.7,0.7,1.8,0.3,2.6-1.2c2.2-3.8,4.6-7.5,6-11.7c1.8-5.6,3.5-11.3,5.3-16.9c0.6-1.9,1.2-4,2.9-5.8
		c0.2,0.8,0.4,1.3,0.3,1.8c-0.1,2.7-0.2,5.4-0.5,8.1c-0.1,1.2-0.6,2.4-1.2,3.4c-1.2,2-2.5,3.9-3.8,5.8c-0.5,0.7-1.2,1.4-1.5,2.2
		c-0.2,0.4,0.1,1.2,0.3,1.6c0.1,0.2,1,0,1.4-0.3c0.4-0.2,0.6-0.7,0.9-1.1c4-4.7,6.6-10.2,9.2-15.7c1.8-3.9,3.9-7.7,5.9-11.5
		C255.4,190.4,256,189.7,256.8,188.6z"/>
	<path class="st3" d="M247.3,688.7c-3.7,0.7-7.1,1.4-10.5,1.9c-4.4,0.6-8.6-0.4-12.7-1.8c-4-1.3-8-2.8-12-4.2
		c-1.8-0.6-3.7-1-5.6-1.4c-0.9-0.2-1.9-0.1-2.8,0.2c-4.2,1.3-8.5,0.8-13,1.5c-0.4-1.6-0.9-3-1.2-4.5c-1-5.1-1.9-10.2-2.8-15.3
		c-0.1-0.8-0.2-1.6,0-2.4c1.7-5.5,2.7-11,2.6-16.8c0.5-0.3,0.9-0.5,1.4-0.7c5.7-2.1,11.4-4.1,17.1-6.2c1.8-0.6,4.1,0,5.1,1.4
		c0.3,0.5,0.3,1.2,0.4,1.8c0.1,3,0.1,5.9,0.2,8.9c0.1,4.2,1.7,7.9,4.6,10.8c5,5,10.5,9.5,17.3,12.3c3.4,1.4,6.4,3.6,8.9,6.4
		C246.3,682.9,246.7,685.7,247.3,688.7z"/>
	<path class="st0" d="M201.9,302.4c0.4,0.4,0.6,0.5,0.8,0.7c6,7.6,13.3,14,20.4,20.5c0.9,0.8,1.8,1.6,2.8,2.3
		c2.3,1.8,4.8,3.2,7.8,3.2c0.8,0,1.5,0.3,2.5,0.5c2.4,8.8,4.4,17.7,6.3,26.7c-1.3,0.3-2.1,0.2-2.8-0.9c-0.5-0.8-1.6-1.4-2.5-1.7
		c-1.7-0.6-3.6-0.9-5.4-1.3c-2.3-3-3.2-3.3-6.2-2.3c-0.6-0.5-1.2-1.2-1.9-1.7c-1.7-1.1-3.3-2.5-5.7-1.9c-0.5,0.1-1.3-0.5-1.9-0.9
		c-2.4-1.5-3.4-1.6-6-0.9c-2.3-2.1-5-3.2-8.2-3c-0.4,0-1-0.4-1.3-0.7c-1.9-1.8-4.1-2.3-6.6-2.2c-0.7,0-1.5,0-2-0.3
		c-2.2-1.5-4.5-2-7-1c-2.4-1.7-4.6-4.1-7.9-2.2c-1.1-0.7-2.3-1.6-3.5-2.2c-1.3-0.7-2.6-0.3-3.8,0.6c-1-0.7-1.9-1.3-2.8-2
		C179.9,323.5,191.9,314.3,201.9,302.4z"/>
	<path class="st3" d="M154.7,195.7c0.6-0.3,0.9-0.5,1.3-0.6c6.4-2.3,9.6-6.9,9.9-13.6c0.3-5.8,0-11.5-0.7-17.2c-0.4-3-0.7-6-1.1-9
		c0-0.4,0-0.8,0-1.8c10,11.4,22.8,17.1,36.6,20.9c0,0.8,0.1,1.5,0.1,2.1c0.2,3.9,0.4,7.8,0.6,11.7c0.1,2.2,1,4.1,2.7,5.4
		c2.1,1.7,4.3,3.3,6.6,4.8c1.3,0.9,1.4,0.8,2.2,2.4c-0.2,0.2-0.4,0.4-0.7,0.6c-7.9,4.7-16.3,7.4-25.5,7.1c-5-0.1-9.8-1.4-14.5-3.1
		c-5.4-1.9-10.4-4.5-15.1-7.7c-0.6-0.4-1.2-0.8-1.7-1.3C155.1,196.4,155,196.1,154.7,195.7z"/>
	<path class="st0" d="M152.7,274.8c-12.6,1.9-21,9.4-27.4,19.8c-0.5-0.6-0.9-1-1.2-1.5c-3.5-5.3-7.1-10.6-10.6-16
		c-0.8-1.2-1.3-2.5-1.8-3.9c-2.6-7.4-4.3-15.1-4.8-22.9c-0.3-4.5-0.4-9.1-0.5-13.6c0-0.8,0.1-1.6,0.3-2.7c0.8,0.3,1.5,0.5,2.1,0.8
		c7.4,3.8,14.7,7.7,22.1,11.5c1.1,0.6,2,1.1,2.2,2.5c0.1,0.9,1,1.8,1.9,2.4c1.7,1.1,3.7,1.9,5.5,3c0.6,0.4,1.3,0.9,1.7,1.5
		c3.1,5.3,6,10.7,9.1,16.1C151.5,272.6,152.1,273.6,152.7,274.8z"/>
	<path class="st2" d="M130.6,117c-2.7,0.9-4.3-1.7-6.9-2.4c0.5,1.5,1.2,2.5,2.1,3.3c4.7,4.3,9.8,7.9,15.8,10.2
		c3.3,1.2,6.6,1.6,10.3,0.9c-3,2.3-4.8,2.4-15.9,0.6c2.7,3.3,5.3,6.3,8.5,8.8c3,2.3,6.3,3.5,10.1,3c0.7-0.1,1.4-0.1,2.2-0.1
		c1.3,2.5,2.6,4.8,3.8,7.2c0.2,0.5,0.2,1.3,0,1.8c-0.7,1.9-1.5,3.7-2.4,5.5c-2.7,4.7-6.6,6.5-12,5.1c-2.5-0.6-4.9-1.8-7.3-3
		c-1.8-0.9-3.4-2.1-5.4-3.4c3.7-0.9,6.9-1.8,9.3-4.3c1-1,1.8-2.2,2.5-3.6c-2.4,0.8-4.9,1.6-7.3,2.4c-4.1,1.4-8.3,1.8-12.5,0.6
		c-9-2.4-14.5-11-13.1-20.2c0.6-3.7,1.9-7.1,3.6-10.4c0.9-1.9,1.9-3.7,2.6-5.6c0.7-1.9,1.2-4,1.8-6c1.4-0.4,2.9-0.8,4.4-1.2
		C126.7,109.7,128.7,113.3,130.6,117z"/>
	<path class="st3" d="M173.3,644.2c3,2.2,5.8,4.3,8.6,6.2c1,0.7,1,1.7,1.1,2.8c0.3,7.3,1.4,14.5,2.7,21.6c0.3,1.8,0.7,3.6,1.1,5.7
		c-8,1.5-14.3,5.7-18.9,12.7c-0.4-0.5-0.6-0.7-0.7-1c-2.8-4.9-7-8-12.5-9.3c-3.4-0.8-6.8-1.5-10.6-2.3c0.7-0.7,1.2-1.3,1.8-2
		c4.5-5,8.9-10,13.3-15.1c0.6-0.7,1.2-1.5,1.7-2.3c1.5-1.9,2.5-3.8,2.3-6.3c-0.2-1.6,0.6-2.9,1.9-3.9
		C167.8,648.9,170.4,646.6,173.3,644.2z"/>
	<path class="st2" d="M90.6,85.6c0-0.5-0.1-0.8,0-1.1c1.8-7.5,5-14.4,10.3-20.1c1.7-1.8,3.7-3.3,5.7-4.8c1.6-1.1,3.4-1.3,5.3-0.4
		c4.5,2,8,5.2,11.3,8.8c-3,3.9-5.1,8-6.3,12.5c-1.7,6.3-2.4,12.7-1.3,19.2c0.2,1.5,0.8,2.9,1.3,4.3c0.3,0.9,0.4,1.7-0.4,2.1
		c-0.5,0.3-1.5,0.3-2-0.1c-1.8-1.2-3-2.8-3.1-5.1c-0.2-2.8-0.6-5.7-1.1-8.5c-1.3,1.6-1.6,3.4-1.9,5.2c-0.4,2.3-0.5,4.6-1,6.9
		c-0.2,1.2-0.6,2.5-1.2,3.6c-0.9,1.7-2.1,1.7-3.3,0.1c-0.1-0.1-0.2-0.3-0.3-0.4c-2.6-5.2-4.2-10.6-2.7-16.4c0.8-2.9,1.8-5.8,2.8-8.7
		c0.3-0.8,0.9-1.5,1.4-2.2c0.4-0.6,1-1.2,1.3-1.9C99.8,79.4,95.8,83.6,90.6,85.6z"/>
	<path class="st0" d="M186.1,346.2c2.1,2,4.3,3,7.1,2.3c0.4-0.1,0.9,0.2,1.2,0.5c1.9,1.8,4.2,2.6,6.8,2.3c0.6-0.1,1.4,0.2,1.9,0.6
		c1.9,1.3,4,1.9,6.3,1.5c0.5-0.1,1,0.2,1.5,0.3c0.1,0,0.2,0.2,0.4,0.3c1.6,0.5,3.2,0.9,4.7,1.6c1.5,0.7,2.8,1.8,4.2,2.7
		c0.4,0.2,0.9,0.3,1.4,0.3c2.6,0.3,5.1,0.4,7.2,2.3c1,0.9,2.8,0.7,4.8,1.1c0.9,1.1,2.4,2.4,4.6,2.3c0.3,0,0.6,0.2,0.8,0.4
		c1.2,1.7,2.9,2.1,4.9,2c0.2,0,0.4,0.2,0.8,0.5c-0.5,0.2-0.8,0.3-1.1,0.4c-0.8,0.2-1.7,0.2-2.2,0.7c-1.7,1.5-3.6,1.4-5.5,0.6
		c-2-0.8-3.7-0.2-4.9,0.4c-2.3-0.1-4-0.2-5.7-0.4c-0.5,0-1.1-0.2-1.6-0.3c-0.8-0.2-1.5-0.6-2.3-0.6c-1.5-0.1-2.8-0.4-4.1-1.4
		c-0.8-0.7-2.4-0.6-3.6-0.6c-1,0.1-1.6-0.1-2.3-0.7c-1.5-1.3-3.3-1.9-5.2-2.1c-1.1-0.1-2.2,0.1-3.2,0.8c-1.5,1.1-2.5,0.7-3.4-0.9
		c-3.4-6.2-10.8-8.6-17.3-5.9c-1.9,0.8-4,1.1-6.1,0.5c-0.4-0.1-0.7-0.5-1-0.9c-1.6-1.9-3.4-3.5-6-4c-0.7-0.1-1.2-0.9-1.8-1.4
		c-1.4-1.2-2.8-2.2-4.7-0.8c-0.7-0.9-1.5-1.8-2.1-2.7c-1.2-1.5-2.5-2.7-4.6-2c-2.4-2.6-2.4-2.6-2.2-4.9c2.4,0,4.9,0,7.3,0
		c0.5,0,1,0,1.3,0.3c1.4,0.9,2.9,1,4.4,0.9c1-0.1,1.8,0.1,2.6,0.8c1.9,1.6,4.2,2.1,6.7,1.8c0.6-0.1,1.4-0.2,1.7,0.2
		C180.3,347.4,183,347.3,186.1,346.2z"/>
	<path class="st0" d="M184.6,275.5c-6.9,5.2-13.7,10.4-20.4,15.5c-3-6.2-5.8-12.3-8.9-18.2c-3.1-5.8-6.7-11.4-10.3-17.6
		c5.5,0.1,10.5-1,15,2.2c2.1,1.5,4.6,1.8,7.1,1.3c1.2-0.2,2.2-0.1,3.2,0.5c1.2,0.8,2.5,1.4,3.7,2.2c2.2,1.4,4,3.1,5.4,5.4
		C181,269.8,182.8,272.6,184.6,275.5z"/>
	<path class="st3" d="M213.5,634.2c-0.8,0.3-1.6,0.6-2.3,0.9c-0.9,0.4-1.6,0.3-2.5-0.2c-6.1-3.3-12.3-6.5-18.5-9.7
		c-0.7-0.3-1.3-0.7-1.3-1.5c-0.1-4.1-0.7-8.3,0.2-12.4c0-0.2,0.2-0.4,0.3-0.8c0.3,0,0.7-0.1,1.1-0.1c7.4-0.1,14.9-0.1,22.3-0.1
		c0.3,0,0.6-0.1,1,0c1.4,0.1,1.7,0.4,1.6,1.8c-0.1,1.4-0.4,2.8-0.5,4.3c-0.4,5.2-0.8,10.4-1.2,15.5
		C213.6,632.5,213.5,633.3,213.5,634.2z"/>
	<path class="st3" d="M173.2,640.6c-3.2-2.2-6.3-4.3-9.3-6.5c-0.5-0.4-1-1.1-1-1.7c-0.3-3.6-0.5-7.2-0.7-10.7c0-0.5,0.2-1.3,0.7-1.6
		c3.3-2.7,6.7-5.4,10.2-8.1c3.9,2.8,7.7,5.5,11.7,8.3c-0.2,2.5-0.4,5-0.7,7.5c0,0.2-0.1,0.5-0.1,0.7c0.4,3.7-1.5,5.8-4.5,7.6
		C177.2,637.4,175.3,639.1,173.2,640.6z"/>
	<path class="st1" d="M105.6,230.2c0.5-1.6,0.9-3.1,1.5-4.5c2.5-5.7,6.5-10.4,11.1-14.6c1.1-1,2.3-1.9,3.4-2.8
		c1.9,4.6,3.7,8.9,5.6,13.5c-0.6-0.3-1-0.5-1.5-0.7c-1.7-0.8-3.3-1.6-5-2.3c-1-0.4-2-0.8-2.9,0c-1.1,0.9-1.2,2.2-0.8,3.3
		c0.5,1.3,1.2,2.6,2.1,3.7c2.4,2.8,5.3,5.1,8.6,6.8c2.2,1.1,4.4,2.3,6.7,3.3c2.1,0.9,4,2.1,5.2,4c1.3,2,3.2,3.2,5.1,4.8
		c-0.9-0.2-1.9-0.6-2.8-0.6c-2.1-0.1-4.3-0.3-6.4-0.1c-1,0.1-1.8,0.1-2.7-0.3c-7.5-3.8-15-7.6-22.5-11.3
		C108.9,231.5,107.5,231,105.6,230.2z"/>
	<path class="st0" d="M233.4,262.1c0.3-0.1,0.7-0.2,1-0.2c0.7,0,1.4,0,2.2,0c4.5-0.4,8.2-1.9,9.8-6.6c1.2-3.3,2.5-6.5,3.9-9.8
		c1.2-2.8,2.4-5.6,3.6-8.3c0.1-0.3,0.4-0.6,0.7-0.9c3.3,7.7,3.9,39.8,0.8,46.4c-2.6-4.6-5.6-8.7-9.4-12.1c-3.7-3.4-7.9-6.2-12.8-7.8
		C233.3,262.5,233.3,262.3,233.4,262.1z"/>
	<path class="st3" d="M147.5,692.6c-3.4-1.8-8.2,2.1-8.2,7.2c-1.6,0-3.1,0.1-4.7,0c-1.9-0.1-2.3-0.7-1.5-2.5
		c0.7-1.7,1.8-3.2,2.8-4.9c-0.6-0.5-1.4-1-2.4-1.8c1.7-1.5,3.4-2.8,4.8-4.4c1.9-2.3,4-2.7,6.8-2c3.4,0.8,6.9,1.3,10.3,2.2
		c2.3,0.5,4.3,1.7,6.1,3.2c3.8,3.1,5.2,7.1,5.3,11.8c0,0.5-0.5,1.2-0.9,1.4c-2.7,1.3-5.4,1.3-8-0.1c-1.3-0.7-1.9-1.9-1.5-3.4
		c0.3-1.2,0.8-2.4,1.2-3.6c0.3-0.9,0.5-1.9,0.8-3.1c-2.7,1.4-4.5,5.3-4.6,9.2c-2.7,0-5.4,0-8.1,0c-1.8,0-2.4-1.2-3.1-2.5
		c-0.7-1.3-0.1-2.2,0.8-2.9C144.6,694.9,146.1,693.7,147.5,692.6z"/>
	<path class="st5" d="M144.6,133.8c3.8-0.1,7.5-0.9,10.5-3.3c2.7-2.2,5.3-4.6,7.7-7.2c6-6.5,9.9-14.3,12.7-22.6
		c1-2.9,1.8-5.9,2.8-9.5c0.1,1,0.2,1.5,0.2,2c0,5.9,0,11.8,0,17.7c0,4.6-1.5,8.8-4.1,12.6c-2.9,4.4-6.7,7.9-10.9,11.1
		c-1,0.8-2.1,1.4-3.1,2.2c-3.7,3-7.7,2.7-11.7,0.7c-1.6-0.8-2.9-2.1-4.4-3.2C144.4,134.1,144.5,134,144.6,133.8z"/>
	<path class="st1" d="M208.2,193.1c-2.5-1.6-4.3-3.6-3.8-7.2c10.8,7,22.4,12.5,32.9,19.6c-1.1,5.8-4.7,15.6-6.5,17.3
		c-0.2-1.1-0.4-2.1-0.7-3.1c-0.3-0.9-0.5-1.8-0.9-2.7c-1.1-2.3-2.1-2.8-4.7-2.4c-2.7-4.8-5.2-9.7-8-14.4c-1.6-2.6-3.7-5-5.8-7.3
		C209.7,191.9,209.6,192,208.2,193.1z"/>
	<path class="st1" d="M145.6,508.3c0.2,12.3,0.4,24.3,0.6,36.5c-0.7,0-1.3-0.1-1.8-0.1c-3.4-0.3-6.8-0.6-10.2-1
		c-1.2-0.1-2.4-0.4-3.5-0.8c-1.8-0.7-2.5-2.2-1.9-4.1c0.3-0.9,0.9-1.9,1.6-2.6c1.8-2,4.2-3.1,6.7-4c1.5-0.5,3-1,4.4-1.8
		c4.8-2.6,4.9-7,0.2-9.8c-1.4-0.8-3.1-1.3-4.6-1.9c-1.1-0.4-2.3-0.6-3.4-1.1c-1-0.4-2.3-0.7-2.5-2c-0.2-1.4,1-2.1,2-2.7
		C137.1,510.7,141.2,509.2,145.6,508.3z"/>
	<path class="st5" d="M132,120.1c3.3-0.3,6.3-0.3,9.2-0.8c2.5-0.4,5-1.2,7.4-2c1.5-0.5,2.9-1.4,4.1-2.4c4.7-4,9.6-7.7,12.7-13.3
		c-0.4,5.5-1.4,10.7-3.4,15.8c3.8-3.9,6.7-8.6,9.7-13.1c-0.3,0.8-0.7,1.6-1,2.4c-2.6,5.8-6.3,10.9-10.3,15.8
		c-3.6,4.5-8.3,5.4-13.5,4.7C141.2,126.5,136.7,123.5,132,120.1z"/>
	<path class="st3" d="M186.1,695c-0.4-2.8-2.2-3.2-3.9-3.4c-2.1-0.2-4.3-0.1-6.5-0.2c-0.6,0-1.2,0-1.9,0c2.6-3.7,7.8-6.6,13.6-7.5
		c0.5,2,1.1,4,1.6,6.1c0.3,1,0.6,2,0.8,3c0.3,1.8,0.6,3.6,0.8,5.4c0.2,1.9-0.7,2.9-2.3,3.8c-2.1,1.1-4.4,1.6-6.7,1.6
		c-3,0-5.9,0-8.9-0.1c-3.3-0.1-4-2-2.9-4.6c0.3-0.7,0.6-1.3,0.9-1.9c0.9-1.7,2.3-2.7,4.2-2.7c2.5,0,5.1,0.2,7.6,0.3
		C183.7,694.7,184.8,694.8,186.1,695z"/>
	<path d="M124.3,102.9c-0.8,0.2-1.3,0.5-1.8,0.6c-1.2,0.3-2.1-0.2-2.4-1.4c-0.4-1.4-0.9-2.9-1-4.4c-0.6-6.9,0.2-13.5,2.8-20
		c1.9-4.5,4.7-8.3,8.5-11.4c2.3-1.9,5.1-3,7.7-3.1c-4.7,5.6-8.6,11.6-10.9,18.5C124.9,88.6,123.1,95.4,124.3,102.9z"/>
	<path class="st1" d="M155.9,192c-1.4-2.4-2.4-2.6-4.1-0.8c-1.1,1.1-2.2,2.4-2.9,3.8c-1.7,3.4-3.1,6.8-4.6,10.2
		c-0.3,0.6-0.4,1.2-0.6,1.8c-2.4-0.7-4.2-4-7.1-1.2c-1.9-1.8-3.7-3.4-5.5-5.2c0,0,0-0.2,0.1-0.3c3.8-3.1,7.5-6.3,11.3-9.2
		c1.3-1,2.9-1.8,4.5-2.1c4.4-0.9,8.8-1.4,13.2-2.1c0.3,0,0.6,0,1.3,0C160.2,189.5,158.2,190.8,155.9,192z"/>
	<path class="st3" d="M210.9,607.6c-7.1,0.5-14,0.7-21.2,0.5c0.6-5.2,1.1-10.1,1.7-15.1C193.1,593.5,208.3,604.8,210.9,607.6z"/>
	<path class="st3" d="M206.8,636.6c-6.1,2.3-11.6,4.4-17.5,6.6c0-5.5,0-10.7,0-16.1C195.3,629.8,200.8,633.2,206.8,636.6z"/>
	<path class="st1" d="M192.5,492.4c0.5-0.1,1-0.2,1.6-0.2c1.4,0,2.8,0,4.3,0c1.6,6.1,3,12.1,0.3,18.1c-1,2.3-1.7,4.8-2.6,7.2
		c-0.2,0.5-0.4,1-0.7,1.7C194.2,514.4,192.2,495.9,192.5,492.4z"/>
	<path class="st3" d="M130.6,204.1c2.5,2.2,5.4,3.9,6.5,7.3c1.1,3.4,3.5,6.1,6,8.6c2.3,2.3,4.5,4.6,6.7,6.9c0.3,0.3,0.4,0.6,0.8,1.2
		c-1.3,0.9-2.6,1.7-3.8,2.5C138.3,223.4,132.5,215,130.6,204.1z"/>
	<path class="st3" d="M125.5,205.2c1.7,1.6,3,3.3,3.8,5.4c2.9,7.9,7.3,14.7,14,19.9c0.4,0.3,0.8,0.5,1.2,0.8c-1.9,1.8-2,1.8-3.6,0.6
		c-1.5-1.2-3.1-2.3-4.6-3.5c-1.2-1-2.4-2.1-3.4-3.3c-4.1-5.1-6.8-11-8.5-17.3C124.1,206.3,124.1,206.3,125.5,205.2z"/>
	<path class="st0" d="M181.8,370.2c0.1-0.3,0.2-0.5,0.3-0.6c1.9-1.1,2.3-1.7,1.5-3.8c-0.5-1.3-0.5-2.4,0.2-3.7
		c4.5-1.3,8.3,0.3,11.6,3.2c1.1,1,0.9,3.3-0.4,4.1c-0.7,0.4-1.4,0.8-2.2,1c-3.3,1-6.6,1.1-9.9,0.2
		C182.6,370.7,182.2,370.4,181.8,370.2z"/>
	<path class="st3" d="M233.8,115.6c-2.1-9-9.8-9.7-14.7-4.7c-0.6-1.1-0.6-2.3-0.1-3.2c1.2-2.4,2.7-4.6,5.7-4.8
		c2.1-0.1,4.3-0.3,6.4-0.3c0.9,0,1.8,0.5,3,0.9c-1,1.1-1.8,1.9-2.4,2.9c-0.3,0.5-0.5,1.3-0.3,1.7c0.2,0.4,1.1,0.7,1.6,0.7
		c1.6-0.2,3.1-0.6,4.7-0.9C237.3,110.4,235.4,114.3,233.8,115.6z"/>
	<path class="st6" d="M221.1,691.4c-1.1,0-2.1,0-3.1,0c-8.1-0.5-16.3-1-24.4-1.4c-2-0.1-2-0.1-2.1-2.1c2.3-0.2,4.6-0.4,6.9-0.7
		c2.4-0.3,4.8-0.6,7.1-0.9c0.9-0.1,2-0.1,2.8,0.2c4.2,1.4,8.3,3,12.4,4.5C220.9,691,221,691.2,221.1,691.4z"/>
	<path class="st3" d="M185,616.9c-3.4-2.4-6.5-4.5-9.8-6.9c3.8-3.1,7.3-6,11.4-9.2C186.2,606.4,185.6,611.4,185,616.9z"/>
	<path class="st7" d="M194.2,114.5c-0.2,2.5-0.7,4.4-1.9,6c-1.3,1.7-3.1,1.9-4.9,0.7c-2.1-1.4-2.8-3.7-1.8-6c0.3-0.7,0.7-1.3,0.9-2
		c0.5-2.5,2.5-2.8,4.4-3.2c1.2-0.2,2,0.3,2.4,1.4C193.7,112.6,194,113.8,194.2,114.5z"/>
	<path class="st6" d="M159.7,706.6c-6.3-0.3-12.6-0.5-18.9-1c-4.4-0.4-8.8-1.3-13.2-2.2c-1.5-0.3-2.8-1-4.2-1.7
		c-1.1-0.6-1.3-1.5-0.4-2.6c0.4,0.4,0.7,0.8,1,1.1c1.8,2.1,4.1,2.9,6.7,2.2c1.6-0.4,3.1-0.4,4.7-0.3c0.9,0.1,1.9,0,2.9-0.1
		c1.5-0.2,2.7-0.1,3.9,1.1c0.8,0.7,2.3,0.9,3.6,0.9c2.7,0.1,5.4-0.1,8.1-0.1c0.6,0,1.3,0.1,1.8,0.3c1.4,0.6,2.7,1.3,4,1.9
		C159.7,706.4,159.7,706.5,159.7,706.6z"/>
	<path class="st3" d="M160.7,602.5c3.3,2.5,6.6,5,10.1,7.7c-2.9,2.4-5.7,4.7-8.9,7.3c-0.6-5.3-1.1-10-1.7-14.8
		C160.3,602.6,160.5,602.6,160.7,602.5z"/>
	<path class="st3" d="M250,688.7c-0.6-3.9-1.4-7.1-3.5-9.8c2.7-1.4,5.1-1.1,7.2,0.9c1,0.9,2.1,1.7,3.1,2.6c2,1.9,1.8,3.7-0.9,4.8
		C254.2,687.8,252.2,688.1,250,688.7z"/>
	<path class="st8" d="M195.4,110.7c1.7,0.5,3.3,0.5,4.1,1.9c1.3,2.1,2.3,4.5,1.9,7c-0.4,3-4.3,4.9-8.9,4.2
		C196.4,120.2,197.1,115.9,195.4,110.7z"/>
	<path class="st3" d="M120.1,221.5c7.8,2.5,13.4,8.5,20.2,12.7c-0.3,1.1-0.6,1.4-1.7,0.9c-3.2-1.7-6.4-3.3-9.6-5
		c-2.9-1.5-5.3-3.5-7.5-5.9c-0.7-0.7-1.2-1.6-1.8-2.4C119.9,221.7,120,221.6,120.1,221.5z"/>
	<path class="st7" d="M223.9,110.6c2,3.2,2,9.2,0.1,11.8c-0.4,0.5-1.2,1.3-1.6,1.2c-0.6-0.1-1.4-0.9-1.6-1.5c-0.6-2.3-1.1-4.6-1.5-7
		c-0.1-0.4,0.1-1,0.4-1.3C220.9,112.5,222.1,111.3,223.9,110.6z"/>
	<path class="st6" d="M265,692.1c-7.8,1.6-15.4,0.9-23,0.8c0-0.2-0.1-0.3-0.1-0.5c0.7-0.1,1.4-0.3,2.2-0.4c2.7-0.4,5.4-0.6,8.1-1
		c2.8-0.4,5.5-1.2,7.6-3.3C261.7,688.9,263.5,690,265,692.1z"/>
	<path class="st3" d="M163,636.8c2.9,2.1,5.3,3.8,7.9,5.7c-2.4,2.1-4.7,4-7.3,6.2C163.4,644.6,163.2,641,163,636.8z"/>
	<path class="st3" d="M183,637.1c-0.2,3.6-0.3,6.5-0.4,10c-2.5-1.4-4.5-3-6.8-4.7C178.2,640.6,180.4,639,183,637.1z"/>
	<path class="st3" d="M133.3,692.7c-1.9,2.2-3,4.5-2.9,7.4c-0.8,0-1.5,0.1-2.2,0c-2.4-0.5-3-2-1.8-4.1c0.4-0.6,0.8-1.2,1.2-1.8
		C129.6,691.7,129.9,691.6,133.3,692.7z"/>
	<path class="st8" d="M223.9,124.6c4.1-4.2,3.7-8.8,2.9-13.7c2.9,1,3.4,3.3,3.6,5.6C230.8,119.6,228.4,122.7,223.9,124.6z"/>
	<path class="st9" d="M197.8,364.6c-4.1-3.3-8.3-5.8-13.9-3.7c-0.2-0.4-0.4-0.8-0.5-1.1c-0.1-0.4-0.2-0.8-0.3-1.1
		C189.8,357,195.7,359.3,197.8,364.6z"/>
	<path class="st0" d="M231.4,265.7c-1.1,3.7-2.1,7.4-3.2,11.3c-1.2-0.7-2.4-1.4-3.7-2.2c2.3-3.2,4.4-6.2,6.6-9.3
		C231.2,265.6,231.3,265.6,231.4,265.7z"/>
	<path class="st9" d="M164.6,351.3c0.5,0.4,1.3,0.7,1.6,1.2c1.1,1.9,2.2,3.9,3.2,5.8c0.2,0.4,0,1.4-0.2,1.4c-0.5,0.1-1.2,0-1.7-0.2
		c-0.3-0.1-0.5-0.6-0.7-0.9c-0.9-1.4-1.8-2.8-2.6-4.3C163.5,353.4,163.3,352.4,164.6,351.3z"/>
	<path class="st9" d="M194.9,347.8c0.4-0.5,0.6-0.9,0.9-1.2c0.1-0.2,0.3-0.4,0.3-0.5c1.4,0.6,2.5,1.4,3.8,1.7
		c1.3,0.3,1.8-0.3,2.6-2.5c0.6,0.4,1.2,0.8,1.7,1.3c0.4,0.3,0.6,0.7,1,1C201.7,350.4,199.1,350.5,194.9,347.8z"/>
	<path class="st9" d="M195.5,372.1c-3.4,2.9-11.2,3.3-16.1,0.7c0.7-0.7,1.3-1.4,2.4-0.9c4.3,2,8.6,1.8,13,0.2
		C194.9,372.1,195.2,372.1,195.5,372.1z"/>
	<path class="st9" d="M178.7,344c0.6-0.5,1.2-1,1.8-1.5c2.2,1.2,4,0.6,5.5-1.4c0.5,0.7,1,1.3,1.4,1.8
		C184.9,346,181.5,346.5,178.7,344z"/>
	<path class="st9" d="M174,368.9c-4.2-0.2-6.3-2.7-5.6-6.7c0.5,0.2,1.1,0.2,1.3,0.5c1,1.2,1.8,2.4,2.7,3.6
		C173,367.1,173.4,367.9,174,368.9z"/>
	<path class="st9" d="M170.2,335.3c2.2-1.2,3.5,0,4.8,1c1.2,1,1.2,2.3,0.5,3.9C173.3,339,171.4,337.7,170.2,335.3z"/>
	<path class="st9" d="M184.1,340.2c-1.4,1.3-1.7,1.4-2.8,0.4c-1.2-1-2.2-2.1-3.2-3c0.1-1.1,0.6-1.5,1.5-1.2
		C181.5,337.1,183.3,338.1,184.1,340.2z"/>
	<path class="st9" d="M174.1,364.9c3.8-2.1,7.4-1,8,2.5c-2-1.4-4-1.6-6.2-1.2C174.9,366.4,174.5,365.9,174.1,364.9z"/>
	<path class="st9" d="M209.2,371.4c-2.2,1.3-3.9,0.8-5.5-0.6c0.5-1.3,0.9-2.5,1.4-4C206.5,368.3,207.8,369.8,209.2,371.4z"/>
	<path class="st9" d="M204,350.5c0.8-0.6,1.6-1.2,2.4-1.8c2.8,1.9,2.8,1.9,4.5-0.1c0.2,0.2,0.5,0.3,0.7,0.5c0.2,0.2,0.4,0.5,0.5,0.7
		C209.6,352.4,207.2,352.6,204,350.5z"/>
	<path class="st9" d="M162.8,333.8c1.2-1,2.1-1.2,3-0.6c0.8,0.5,1.7,1,2.4,1.6c0.7,0.6,0.9,1.4,0.4,2.2c-0.6,0.9-1.5,0.6-2.1,0.1
		C165.2,336.1,164.1,335,162.8,333.8z"/>
	<path class="st9" d="M157.3,346.6c2.4,2.5,4.2,4.6,4.9,7.6c-2.4,0.1-2.3,0.1-2.9-1.5c-0.4-1.1-1-2.1-1.6-3.2
		C157.3,348.9,156.9,348.2,157.3,346.6z"/>
	<path class="st9" d="M179,401.3c2.4,0.9,3.1,2.6,3.6,4.5c0.3,1.1,0,2-1.3,2.3C179.5,406,179.2,405,179,401.3z"/>
	<path class="st9" d="M177.7,339.1c0.6,0.8,1.1,1.3,1.5,1.8c-2.5,2.7-5.6,3-9.2,0.9c0.4-0.3,0.7-0.6,1.1-0.8
		c0.4-0.3,0.8-0.5,1.2-0.7c0.6,0.4,1.2,0.9,1.8,1.2c1.7,1,2.4,0.8,3.1-0.9C177.4,340.3,177.5,339.9,177.7,339.1z"/>
	<path class="st9" d="M170.4,355.4c4.1,2.3,5.3,5.2,3.1,7.4C171.3,360.8,171.5,357.8,170.4,355.4z"/>
	<path class="st9" d="M186.3,339.1c2.8-0.5,5.1,0.6,5.7,2.8c0.1,0.5-0.2,1.1-0.3,1.7c-0.6-0.1-1.3-0.1-1.7-0.4
		C188.8,341.9,187.6,340.5,186.3,339.1z"/>
	<path class="st9" d="M193.6,341c4-0.8,6.6,1.1,6.5,4.5C198.7,345.1,196,343.3,193.6,341z"/>
	<path class="st9" d="M163.8,356.1c-2.2,2.3-6.4,1.6-8.6-1c1.2-0.3,2.2-1,3.5,0.2c0.5,0.5,1.6,0.6,2.4,0.8
		C161.8,356.2,162.6,356.1,163.8,356.1z"/>
	<path class="st9" d="M226.2,354.6c0.4,0.4,0.7,0.9,1.2,1.5c-3.3,1.4-6.1,0.7-9.3-0.8c1-0.5,1.7-0.8,2.3-1.2
		C222.9,356,223.5,356.1,226.2,354.6z"/>
	<path class="st9" d="M218.3,347.6c2.9,0.8,4.7,2.2,6,4.4c0.2,0.3,0,0.9-0.2,1.3c-0.1,0.2-0.8,0.2-1,0c-1.5-1.4-2.9-2.8-4.4-4.3
		C218.5,348.8,218.5,348.4,218.3,347.6z"/>
	<path class="st9" d="M202.9,368.2c-3.7,1.6-4.5,1.4-5.3-1.1C200.7,365.6,202.3,365.8,202.9,368.2z"/>
	<path class="st9" d="M161.6,335.1c-0.7,0.6-1.4,1.2-2.2,1.8c-1.3-1.4-2.4-2.8-3.7-4.3C158.5,332.8,160.4,333.6,161.6,335.1z"/>
	<path class="st9" d="M188.3,344.5c3.2,1.9,4.2,1.2,5.8-0.8c0.4,0.4,0.7,0.8,1.1,1.2c-2.4,2.6-4.5,2.8-7.9,1c0-0.1-0.1-0.3,0-0.4
		C187.6,345,188,344.8,188.3,344.5z"/>
	<path class="st6" d="M168.3,704.2c0.8,0.6,1.6,1.3,2.5,1.7c0.9,0.4,1.9,0.6,2.9,0.7c-3.2,0-6.3,0-9.5,0c0-0.1,0-0.2-0.1-0.3
		C165.4,705.6,166.7,705,168.3,704.2z"/>
	<path class="st9" d="M219,369.7c4.3-0.7,5.9,0.7,5.1,4.1C222.4,372.5,220.5,371.6,219,369.7z"/>
	<path class="st9" d="M209,348c-2.3-1.5-4.5-3-6.6-4.3c1.5-0.6,3.8-0.1,5.5,1.2C208.9,345.7,209.6,346.6,209,348z"/>
	<path class="st9" d="M180.7,368.5c-1.3,2.2-2.1,2.7-3.4,2.4c-1.1-0.2-1.2-0.6-1.3-3.4C177.6,367.8,179,368.1,180.7,368.5z"/>
	<path class="st9" d="M178,392.2c2.6,2.8,2.9,4.6,1.2,6.9C177.7,397.1,177.7,397,178,392.2z"/>
	<path class="st9" d="M211.8,352.3c0.6-0.5,1-0.9,1.4-1.3c0.9,0.4,1.7,1,2.6,1.1c0.9,0.1,1.8-0.4,2.8-0.7c0.2,0.2,0.5,0.6,0.7,0.9
		C218.5,353.9,214.8,354,211.8,352.3z"/>
	<path class="st9" d="M176.6,407.5c2.2,1.9,4.4,3.7,6.5,5.5c-1.5,0.2-4.1-1-5.6-2.5C176.7,409.7,176.1,408.9,176.6,407.5z"/>
	<path class="st9" d="M216.7,374.1c1-0.6,1.9-1.2,3-1.9c0.7,0.8,1.5,1.7,2.3,2.6C220.4,376.2,219,376,216.7,374.1z"/>
	<path class="st9" d="M210.7,346.9c0.6-0.3,1-0.8,1.3-0.7c1.1,0.3,2.1,0.6,3.1,1.1c1.7,0.9,1.8,1.3,1.3,3.1
		C214.5,349.2,212.8,348.1,210.7,346.9z"/>
	<path class="st9" d="M175,389c-0.7-3.1,0.1-5.8,1.7-8.5c0.2,0.5,0.5,1.1,0.4,1.6c-0.5,2.1-1,4.2-1.6,6.2
		C175.5,388.5,175.2,388.7,175,389z"/>
	<path class="st9" d="M213.4,370c0.9,1,1.5,1.7,2.2,2.4c-1.8,1.4-3.5,1.3-5.7,0.6C211.1,372,212.1,371.1,213.4,370z"/>
	<path class="st9" d="M217.5,371.6c-1.6-1.2-3-2.3-4.6-3.5c1.5-0.8,2.7-0.9,3.7-0.2C217.7,368.7,217.9,369.9,217.5,371.6z"/>
	<path class="st9" d="M157.4,337.3c2.4,2.7,3.8,0.1,5.7-1c0.3,0.3,0.6,0.6,0.9,1c-2.6,2.1-5.4,2.3-8.8,1.7
		C156.2,338.3,156.7,337.9,157.4,337.3z"/>
	<path class="st9" d="M230.8,355.8c-2-1-3.4-2-4.5-3.5c0.5-0.9,1.1-1.3,2-0.9C229.9,352.3,230.5,353.8,230.8,355.8z"/>
	<path class="st9" d="M227.9,358.3c0.9-1.2,1.8-0.7,2.7-0.5c1,0.2,1.7-0.2,2.3-1.3c0.7,0.6,1.3,1.1,2.1,1.9
		C232.5,360,230.3,359.6,227.9,358.3z"/>
	<path class="st9" d="M174.2,380.4c-0.8-1.7-0.8-3-0.5-4.3c0.3-1.5,0.9-1.8,2.8-1.6C175.8,376.3,175.1,378.2,174.2,380.4z"/>
	<path class="st9" d="M174.8,398c-1.1-2.8-0.7-5.7,1-7C176.2,393.6,175.9,396,174.8,398z"/>
	<path class="st9" d="M163.2,340.5c0.9-0.8,1.4-1.3,2-1.8c1.7,0.7,3.4,1,4.9-0.3c0.1-0.1,0.3,0,0.4,0.1c0.2,0.1,0.3,0.4,0.6,0.7
		C168.8,340.7,166.4,341,163.2,340.5z"/>
	<path class="st9" d="M235,361c0.7-0.8,1.3-1.6,2.6-0.8c0.3,0.2,1,0,1.4,0.2c0.4,0.2,0.8,0.5,0.9,0.9c0,0.3-0.4,0.9-0.7,1
		C237.5,362.8,236.2,362.4,235,361z"/>
	<path class="st9" d="M229.2,376.8c1.2-1,2.5-1.9,3.8-3c0.5,0.3,1,0.6,1.7,1c-1.4,1.7-3.1,2.4-5.1,2.5
		C229.4,377.2,229.3,377,229.2,376.8z"/>
	<path class="st9" d="M226.1,371c2.6-0.5,3.8,0.1,4.4,2.3C228,373.7,226.6,372.9,226.1,371z"/>
	<path class="st9" d="M222.9,376.8c1.3-1.1,2.2-1.8,3.2-2.7c0.7,0.4,1.4,0.7,2.2,1.2C226.8,376.7,225.3,377.4,222.9,376.8z"/>
	<path class="st9" d="M235.9,373.5c-1.3-1.1-3.7,0.1-3.8-2.5C234.9,369.8,235.9,370.3,235.9,373.5z"/>
	<path class="st9" d="M177.8,405.5c-2.5-1.8-2.7-4.1-0.5-6.6C177.5,401.2,177.7,403.3,177.8,405.5z"/>
	<path class="st9" d="M204.7,365.4c3.6-0.7,5.7,0.5,6.3,3.8C208.6,368.1,207.5,365.3,204.7,365.4z"/>
	<path class="st6" d="M185.6,706.3c2.1-1.1,3.9-2.1,5.8-3.1C191.4,705.7,190.2,706.4,185.6,706.3z"/>
	<path class="st9" d="M166.9,365.8c-1.5-1.1-2.8-1.8-3.4-3.5c1.1,0,2,0,3.2,0C166.8,363.4,166.9,364.4,166.9,365.8z"/>
	<path class="st9" d="M178.7,389.5c-1.6-1.6-1.4-3.3-0.5-5.2C179.7,385.8,179.8,387.4,178.7,389.5z"/>
	<path class="st9" d="M243.1,363c-1.4-1.3-2.2-2.6-2.7-4.1c-0.1-0.2,0.3-0.7,0.5-1.1C242.8,359,243.3,360.7,243.1,363z"/>
	<path class="st9" d="M233.8,355.1c4.1,0.3,4.4,0.5,4.3,3.1C236.6,357,235.2,356.1,233.8,355.1z"/>
	<path class="st9" d="M157,351.2c0.2,0.5,0.3,1.1,0.5,1.9c-1.1,0-2.1,0-3.1,0C154.1,351.2,154.1,351.2,157,351.2z"/>
	<path class="st9" d="M179.1,380.3c-1.5-1.5-2.4-2.7-0.9-4.5C179.5,377.1,179.6,378.4,179.1,380.3z"/>
	<path class="st9" d="M245.3,362.9c-1.2-0.9-1.9-1.9-1.6-3.4C245.7,359.8,246,360.5,245.3,362.9z"/>
	<path class="st9" d="M181.1,362.9c-0.6-1.4-1.1-2.7-1.7-4C181.7,359.1,182.2,360.3,181.1,362.9z"/>
	<path class="st9" d="M241.1,372.8c-2.6,0-2.6,0-3-1.4C240.3,370.8,241,371.1,241.1,372.8z"/>
	<path class="st9" d="M178.8,362c-1-0.1-1.4-0.1-2.1-0.1c-0.1-1-0.2-2-0.4-3.4C177.7,359.5,178.1,360.6,178.8,362z"/>
	<path class="st9" d="M235.3,376.5c1.2-0.9,2-1.6,2.8-2.2c0.2-0.1,0.7,0.2,1.1,0.4C238,376.3,238,376.3,235.3,376.5z"/>
	<path class="st9" d="M153.5,336.2c0.5-0.7,1.1-1.4,1.7-2.2c0.4,0.6,0.8,1.1,1.3,1.8c-1,0.4-1.9,0.7-2.8,1
		C153.7,336.6,153.6,336.4,153.5,336.2z"/>
	<path class="st9" d="M178.7,413.8c1.8,0.6,3.2,1.1,4.6,1.6C181.8,416,180.9,415.8,178.7,413.8z"/>
	<path class="st9" d="M162,359.3c0.7-0.3,1.4-0.5,2.3-0.9c0.3,0.5,0.5,1.1,1,2c-1.4-0.2-2.4-0.4-3.4-0.6
		C161.9,359.7,162,359.5,162,359.3z"/>
	<path class="st9" d="M243.7,372.9c0.1,2.1,0.1,2.1-2.5,2.7C242.2,374.5,242.9,373.7,243.7,372.9z"/>
	<path class="st9" d="M241.9,370c1.4-0.3,2.2-0.4,3-0.6c0.1,0.2,0.2,0.4,0.3,0.5c-0.6,0.4-1.1,0.9-1.8,1.2
		C243.2,371.2,242.7,370.7,241.9,370z"/>
	<path class="st9" d="M155.6,349.3c-0.5,0-1,0-1.5,0c0-0.8-0.1-1.6-0.1-2.6C155.2,347.2,155.4,348.1,155.6,349.3z"/>
	<path class="st9" d="M245.6,372.8c0.2-0.7,0.4-1.3,0.6-2.1C247.8,372,247.8,372.2,245.6,372.8z"/>
	<path class="st9" d="M175.3,372.6c-0.9-0.7-1.7-1.2-2.6-1.8C174.8,370.5,174.8,370.5,175.3,372.6z"/>
	<path class="st3" d="M235.1,100.2c0.9-0.5,1.4-0.8,2.1-1.2C236.7,101.1,236.6,101.2,235.1,100.2z"/>
	<path class="st1" d="M239.2,328.3c-0.6-0.9-1.2-1.8,0-3C239.2,326.6,239.2,327.4,239.2,328.3z"/>
	<path class="st9" d="M240.7,363.4c0.5,0.4,1.1,0.9,1.6,1.3c-0.1,0.1-0.1,0.2-0.2,0.4c-0.6-0.3-1.3-0.7-1.9-1
		C240.4,363.9,240.5,363.7,240.7,363.4z"/>
	<path d="M111.1,546.7c-1.1-3-1-6.2-1-9.3c-0.1-9,0.9-17.9,2.2-26.7c1.3-8.9,2.8-17.8,4.2-26.7c0.3-1.9,0.7-3.7,1.2-5.6
		C116.2,501.2,111.6,523.8,111.1,546.7z"/>
	<path d="M106.1,488.6c1.4-10.3,3.4-20.5,6.3-30.5C110.7,468.3,109.2,478.6,106.1,488.6z"/>
	<path d="M159.8,526.5c1.7,1.8,3.3,3.7,5.1,5.3c1.7,1.4,3.6,2.7,5.6,3.6c3.5,1.6,6.9,0.4,8.9-2.8c0.9-1.5,1.5-3.2,2.3-4.7
		c0.2-0.4,0.4-0.8,0.7-1.4c0.3,5.4-2.5,8.7-7.4,10.1c-4.8,1.4-8.2-0.4-11.3-3.7C162,531.1,160.4,529.1,159.8,526.5z"/>
	<path d="M183.6,515.2c-0.6-1-0.9-1.5-1.2-2c-1.2-2.7-3.3-4.5-6-5.4c-3.3-1.1-6.6-2.2-10-3.3c0.6-1,1.7-1.2,2.8-1.1
		c4.5,0.4,8.6,1.8,11.9,5C182.7,510,183.5,512.2,183.6,515.2z"/>
	<path d="M223.3,532.4c-2.4-2.7-2.3-7.7,0-10.8C223.3,525.2,223.3,528.6,223.3,532.4z"/>
	<path d="M254.8,508.1c5.5,6.8,8.6,31.6,5.6,40.9c-0.5-6.6-1-13.6-1.6-20.5C258.2,521.5,256.5,514.8,254.8,508.1z"/>
	<path d="M241,552c2.1-9.9,4.9-19.4,8.7-28.7C247.6,533.1,244.4,542.6,241,552z"/>
	<path d="M198.1,154.8c0.6-0.3,1.1-0.7,1.7-0.9c5.9-1.2,11.8-2.3,17.8-1.9c1.1,0.1,2.2,0.3,3.3,0.5c0.9,0.2,1.4,0.8,1.3,1.7
		c-0.1,1-0.9,1.3-1.8,1.2c-6.6-1.2-13.1,0.2-19.6,0.6C199.9,156.1,198.9,156.3,198.1,154.8z"/>
	<path d="M184.5,131.2c-0.2,0.7-0.2,1.2-0.4,1.6c-0.6,1.2-2,1.4-2.6,0.2c-0.5-1-0.8-2.2-0.9-3.4c0-0.5,0.6-1.4,1.1-1.5
		c0.5-0.1,1.5,0.2,1.8,0.7C184.1,129.5,184.3,130.5,184.5,131.2z"/>
</g>
</svg>
