<?xml version="1.0" encoding="utf-8"?>
<!-- Generator: Adobe Illustrator 22.1.0, SVG Export Plug-In . SVG Version: 6.00 Build 0)  -->
<svg version="1.1" id="A" xmlns="http://www.w3.org/2000/svg" xmlns:xlink="http://www.w3.org/1999/xlink" x="0px" y="0px"
	 viewBox="0 0 690 500" style="enable-background:new 0 0 690 500;" xml:space="preserve">
<style type="text/css">
	.st0{clip-path:url(#SVGID_2_);}
	.st1{clip-path:url(#SVGID_4_);}
	.st2{clip-path:url(#SVGID_4_);fill:#A6C4E2;}
	.st3{clip-path:url(#SVGID_4_);fill:#CCA6E2;}
	.st4{clip-path:url(#SVGID_4_);fill:#E2B0A6;}
	.st5{clip-path:url(#SVGID_4_);fill:#E27BBC;}
	.st6{clip-path:url(#SVGID_4_);fill:#003D87;}
	.st7{clip-path:url(#SVGID_4_);fill:#6F3F8E;}
	.st8{clip-path:url(#SVGID_4_);fill:#FFFFFF;}
</style>
<g>
	<g>
		<defs>
			<rect id="SVGID_1_" x="181" y="73.5" width="286.4" height="398.5"/>
		</defs>
		<clipPath id="SVGID_2_">
			<use xlink:href="#SVGID_1_"  style="overflow:visible;"/>
		</clipPath>
		<g class="st0">
			<defs>
				<rect id="SVGID_3_" x="181" y="73.5" width="286.4" height="398.5"/>
			</defs>
			<clipPath id="SVGID_4_">
				<use xlink:href="#SVGID_3_"  style="overflow:visible;"/>
			</clipPath>
			<path class="st1" d="M289.2,196.4c0.4-0.8,0.8-1.6,1.2-2.3c1.7-3.2,3.4-6.5,5.1-9.7c0.1-0.3,0.3-0.6,0.2-0.9
				c-0.3-3.8,1-7.2,3-10.3c0.9-1.5,2-2.8,3-4.2c1.4-1.9,1.8-3.9,0.7-6c-0.6-1.3-1.3-2.5-2-3.8c-0.4-0.8-0.9-1.7-1.3-2.6
				c-0.8-1.9-0.4-3.8,0.7-5.4c1.6-2.3,3.3-4.7,3.8-7.5c0.5-2.3,0.9-4.7,1.1-7c0.2-1.9,0.1-3.8,0.2-5.7c0.1-2.4,0.2-4.8,0.5-7.2
				c0.3-3.1,0.7-6.1,1.2-9.1c0.9-5.5,3.4-10.1,7.4-13.9c3.9-3.7,8.4-6.7,13.3-8.9c2.6-1.1,5.4-1.7,8.3-1.5c5.9,0.4,11.5,2,16.3,5.5
				c3,2.2,5.3,5.2,7.3,8.4c4.1,6.6,6.4,13.7,6.7,21.5c0.1,3.6,0,7.2-0.1,10.8c0,1.9-0.2,3.8-0.3,5.7c-0.4,4.1-0.4,8.2,0.2,12.2
				c0.2,1.5,0.8,2.8,2.1,3.7c1.3,0.9,2.4,2,3.2,3.4c1.2,2.2,1.1,4.3-0.2,6.3c-0.5,0.7-1,1.4-1.4,2.1c-1.1,1.6-0.9,3.3,0.4,4.7
				c0.8,1,1.6,2,2.3,3.1c1,1.5,1.3,3.2,0.7,4.9c-0.1,0.2,0,0.5,0.1,0.8c4,10.6,6.3,21.7,7.7,33c1.2,10.3,2.3,20.7,3.3,31.1
				c0.1,1.4,0.2,2.7,0.3,4.1c0,0.1,0,0.3,0,0.4c-0.4,1.3,0.3,2.4,1,3.4c1,1.4,2,2.7,3,4.1c2.9,4.5,4.1,9.5,4.2,14.8
				c0,1.5,0,3.1-0.1,4.6c-0.1,2.3-0.9,4.3-2.6,6c0.5,1,1.1,2,1.6,3c0.5,0.9,0.9,1.8,1.3,2.7c0.4,1,0.4,2,0,3
				c-0.3,0.9-0.8,1.7-1.9,1.9c0.1,0.8,0.1,1.5,0.2,2.2c0,0.8,0.1,1.7-0.7,2.2c-0.9,0.5-1.7,0.2-2.5-0.3c-0.1,0-0.1,0-0.2-0.1
				c-1.3,1.3-2.8,1.3-4.5-0.3c-0.5-0.5-0.9-1.2-1.5-1.7c-0.2-0.2-0.5-0.4-0.7-0.4c-2.1,0.1-3.5-0.8-4.3-2.7
				c-0.4-0.9-0.8-1.7-1.2-2.7c-1.8,1.4-3.8,2-6,2.5c-0.7,0.2-1.4,0.4-2.1,0.6c-0.4,0.1-0.5,0.4-0.3,0.8c0.1,0.2,0.1,0.3,0.2,0.5
				c0.6,1.6,0.3,2.4-1.3,2.9c-0.5,0.1-0.6,0.4-0.7,0.8c-1.4,10.8-2.8,21.6-4.2,32.3c-0.6,4.2-1,8.4-1.9,12.5
				c-0.6,2.6-0.5,5.2-0.3,7.8c0.4,5.1,0.8,10.2,1.1,15.3c0.3,4.9-0.3,9.7-1.1,14.6c-1,6-2,12-3.1,18c-0.3,1.6-0.9,3.2-1.3,4.8
				c-0.6,2.4-0.6,4.8-0.1,7.2c0.7,3.5,1.5,7,2.3,10.5c0.4,1.6,1.1,3.2,1.6,4.8c1.3,4.1,2,8.3,2.8,12.5c0.5,2.9,0.4,5.9,0.2,8.8
				c-0.2,2.4-1.4,4-3.7,4.8c-1,0.3-2.1,0.7-3.1,0.8c-3.3,0.4-6.5,0.5-9.8-0.4c-2-0.5-3.8-1.4-5.3-2.9c-1.1-1-1.5-2.2-1.1-3.7
				c1.2-4.8,2.4-9.5,3.4-14.3c1.1-5.3,1.9-10.6,2.9-15.9c0.3-1.6,0.1-3.3,0-4.9c-0.2-6.9-0.3-13.9-0.6-20.8
				c-0.2-5.3-0.5-10.5-0.8-15.8c-0.4-9-0.9-18-0.6-26.9c0-1.2-0.1-2.4-0.3-3.6c-0.8-5.1-1.6-10.2-2.3-15.4
				c-0.7-6.1-1.2-12.1-1.7-18.2c-0.2-2.6-0.2-5.1-0.2-7.7c0-0.5-0.2-0.7-0.6-0.8c-1.2-0.1-2.3-0.2-3.6-0.4c0.1,0.4,0.2,0.7,0.3,0.9
				c0.4,1,0.2,1.6-0.6,2.3c-0.3,0.2-0.4,0.5-0.5,0.9c-0.1,3.4-0.2,6.9-0.4,10.3c-0.4,5.8-0.8,11.5-1.3,17.3c0,0.7,0.1,1.4,0,2
				c-0.1,1.4-0.2,2.8-0.5,4.2c-1.2,5.1-1.3,10.1-0.3,15.2c0.9,4.6,1.4,9.2,2,13.8c0.4,3-0.2,5.9-0.7,8.8c-1.4,7.2-1.8,14.4-1.5,21.7
				c0.1,2.5,0.1,4.9,0.2,7.4c0.1,2.7,0.5,5.4,1.4,7.9c0.4,1.2,1.1,2.3,1.5,3.5c0.8,1.9,1,4,0.7,6c0,0.2,0,0.3-0.1,0.5
				c-1.1,2.6-1.3,5.4-1.7,8.1c-0.6,4-1.1,7.9-1.8,11.9c-0.2,1.4-0.9,2.7-1.5,4c-0.6,1.2-1.6,1.9-2.9,2c-3.9,0.5-7.9,1-11.8,0.8
				c-1.8-0.1-3.6-0.3-5.3-0.9c-0.8-0.3-1.6-0.7-2.3-1.3c-1-0.8-1.6-1.9-1.6-3.2c-0.1-1.7,0.2-3.4,0.8-4.9c0.2-0.4,0.6-0.7,0.9-1
				c0.1-0.1,0.2-0.2,0.3-0.3c0.6-0.9,1.1-1.8,1.7-2.8c0.2-0.3,0.4-0.5,0.5-0.8c0.7-2,2.2-3.5,3.5-5c4.9-5.7,7.2-12.3,6.9-19.8
				c-0.2-4.2-0.6-8.4-0.9-12.7c-0.1-1.2-0.1-2.4-0.3-3.7c-0.2-1.4-0.5-2.7-0.7-4.1c-0.2-1.7-0.4-3.5-0.6-5.2
				c-0.6-5.6-1.2-11.2-1.7-16.8c-0.6-6.7-1.2-13.4-1.7-20.1c-0.2-2.9-0.2-5.8-0.4-8.6c-0.1-1-0.5-2-0.6-3
				c-0.9-6.3-1.8-12.5-2.6-18.8c-0.6-4.6-1.1-9.2-1.6-13.8c0-0.2-0.3-0.5-0.5-0.6c-0.6-0.3-1.3-0.5-1.9-0.8
				c-1.4-0.7-2.1-1.9-2.2-3.4c0-0.2,0-0.5,0-0.7c0-1.2-0.5-1.9-1.7-2.2c-0.9-0.2-1.8-0.3-2.6-0.4c-1.5-0.2-2.9-0.6-3.9-2
				c-0.8-1.1-1-2.3-0.2-3.5c0.4-0.7,0.3-1.2-0.4-1.7c-1.1-0.9-2.3-1.6-3.5-2.4c-0.7-0.4-1.4-0.8-2.1-1.3c-0.9-0.7-0.9-1.6,0-2.3
				c0.4-0.3,0.9-0.6,1.4-0.8c0.7-0.4,0.8-0.6,0.4-1.3c-0.3-0.5-0.7-1-1.1-1.5c-0.5-0.6-1-1.2-1.5-1.9c-0.5-0.7-0.2-1.2,0.5-1.6
				c1.2-0.7,2.6-1.4,3.6-2.4c2-1.8,3.7-3.8,5.6-5.6c0.4-0.4,0.4-0.7,0.1-1.3c-0.5-1-0.9-2.1-1.4-3.2c-0.1-0.2-0.2-0.4-0.3-0.5
				c-0.8-0.3-1.2-0.9-1.4-1.6c-0.3-0.7-0.4-1.5-0.6-2.3c-0.6-3.1-1-6.2-1.1-9.4c-0.1-4.3,0.8-8.4,2.3-12.5c0.4-1.1,0.7-2.2,1-3.1
				c-1,0.1-1.9,0.3-2.8,0.2c-1.4-0.1-2.7-0.5-4-0.8c-7.7-1.9-13.6-6.4-17.9-13.1c-3.9-6.1-6.3-12.7-8.3-19.5
				c-1.6-5.8-3.3-11.6-5-17.4c-0.1-0.5-0.3-0.9-0.5-1.4c-0.3-0.9-0.7-1.7-1.4-2.4c-1.4-1.5-1.8-3.5-1.7-5.5c0-0.4,0-0.7-0.1-1.1
				c-0.2-0.8-0.2-1.5,0.2-2.2c0.1-0.2,0.1-0.5,0.2-0.8c0.1-0.9,0.1-1.9,0.3-2.8c0.5-2.2,1.7-3.9,3.7-4.9c2.9-1.6,6-2,9.3-1.4
				c0.8,0.2,1.7,0.4,2.5,0.3c1.4-0.1,2.2,0.6,2.7,2c0.1,0.3,0.3,0.7,0.6,0.9c1.2,1.4,2.4,2.7,3.6,4.1c1,1.1,1.2,2.4,0.6,3.8
				c-0.2,0.5-0.2,1,0.1,1.5c2.7,6.9,6.1,13.6,9.5,20.2C288.8,195.8,289,196.1,289.2,196.4 M279.2,178.6c-0.4,2.8-0.8,5.8-1.4,8.7
				c-0.6,2.9-1.5,5.7-2.7,8.4c0.8-6.1,2.2-12.1,2.6-18.2c-0.6,0.8-1.1,1.7-1.8,2.4c-0.6,0.7-1.3,1.4-2.4,1.8
				c0.1-0.3,0.2-0.5,0.3-0.7c0.5-1,1.1-1.9,1.7-2.9c0.8-1.6,1.7-3.2,2.4-4.9c0.2-0.4,0.3-1.1,0.1-1.5c-0.9-1.4-1.9-2.7-2.9-4.2
				c-0.3,1.4-1.2,2.2-2.3,2.7c0,0.4,0.1,0.8,0.1,1.3c-0.1,1.7-0.2,3.4-2.1,4.1c-0.1,0.8-0.1,1.7-0.2,2.4c-0.1,1-0.8,1.5-1.8,1.3
				c-0.6-0.1-1.2-0.4-1.8-0.6c-0.2-0.1-0.5-0.1-0.7-0.1c-0.8,0.3-1.7,0.3-2.4,0c-1-0.4-1.9-0.6-3-0.5c-1.3,0.1-2.6-0.5-3.8-1.2
				c0.3,1.6,0.7,3,2,4c0.5,0.4,1,0.8,1.5,1.2c0.2,0.2,0.5,0.4,0.6,0.7c0.3,0.5,0,1-0.6,1c-0.1,0-0.3,0-0.5,0
				c0.3,0.9,0.7,1.7,0.9,2.5c1.6,5.4,3.3,10.8,4.9,16.3c1.9,6.4,4.2,12.6,7.8,18.3c4.6,7.4,11.2,11.8,19.8,13.2
				c0.3,0,0.6,0.1,0.8,0.2c0.7,0.4,1.3,0.2,1.8-0.1c1.1-0.7,1.9-1.6,2.2-2.9c0.9-4.2,1.5-8.5,2-12.8c0.4-3.7,0.9-7.4,1.3-11.1
				c0.1-0.4,0.2-0.9,0.3-1.3c0.1-0.2,0.3-0.3,0.4-0.4c0.1,0.1,0.2,0.3,0.2,0.5c0,0.4,0,0.8,0,1.2c-0.2,3.4-0.4,6.8-0.7,10.2
				c-0.6,7.9-1.8,15.7-4.6,23.1c-2.6,7.1-2,14.2-0.4,21.3c0.2,1.1,0.5,1.3,1.5,0.7c1-0.5,2-1.2,2.9-1.9c2.6-2.1,5.2-4.1,8.2-5.7
				c4.6-2.5,9.4-4.3,14.6-4.7c5.9-0.5,11.9-0.6,17.9-0.5c3.4,0.1,6.8,0.3,10.1,1c3.1,0.7,6,1.9,8.8,3.4c2.8,1.5,5.9,2.3,8.9,3
				c0.1,0,0.2,0,0.3-0.1c1.8-0.9,2.4-2,2-4c-0.2-1.4-0.6-2.9-1-4.2c-2.7-8.8-4.1-17.8-4.1-27c0-9.4,0.4-18.7,1.1-28.1
				c0.1-1.2,0.3-2.3,0.5-3.5c0.1-1,0.3-1.9,0.4-2.9c-1.5,0.8-3,1.6-4.5,2.4c-0.8,0.4-0.9,0.4-0.6,1.3c0.7,1.9,0.4,3.7-0.9,5.2
				c-2.6,3-5.9,4.3-9.9,3.9c-1.7-0.2-3.4-0.5-5.2-0.8c-2.7-0.5-5.5-0.8-8-1.9c-0.1,0-0.2-0.1-0.2-0.1c-0.6,0.2-1-0.2-1.3-0.5
				c-1.6-2.2-1.6-3.8-0.3-5.6c0.6-0.8,1.4-1.6,2-2.5c0.6-0.8,1.3-1.5,1.7-2.3c0.9-1.7,0.8-3.4-0.5-5c-0.8-0.9-1.6-1.9-2.3-2.9
				c-1.8-2.5-1.8-4.7,0-7.3c0.7-1,1.5-1.9,2.2-2.8c0.7-0.8,1.4-1.7,2-2.5c0.3-0.4,0.4-1,0.6-1.5c-0.1,0-0.1-0.1-0.2-0.1
				c-3,1.4-6.1,1.8-9.3,1.3c-3.2-0.5-6.1-1.5-8.9-3.3c-0.4,0.6-0.7,1.1-1,1.7c-0.9,1.3-1.8,2.6-2.5,4c-0.8,1.4-0.6,2.2,0.6,3.3
				c0.6,0.6,1.4,1.1,2,1.6c0.9,0.8,1.8,1.5,2.6,2.3c1.4,1.6,1.7,3.4,0.9,5.4c-0.3,0.7-0.7,1.5-1.1,2.2c-1.1,2-1,2.7,0.6,4.3
				c0.3,0.3,0.7,0.6,1,1c0.3,0.3,0.6,0.6,0.9,0.9c1.1,1.2,1.2,2.3,0.3,3.6c-0.3,0.5-0.8,1-1.2,1.5c-0.3,0.3-0.3,0.6-0.3,1.1
				c0.1,0.7,0.2,1.5,0.1,2.3c0,0.8-0.6,1.2-1.3,1.3c-2.6,0.3-5.3,0.6-7.9,1c-3.8,0.6-7.7,0.8-11.5,0c-2.3-0.5-4.5-1.2-6.2-3
				c-1.4-1.4-1.8-3.1-1.1-5c0.3-0.7,0.5-1.3,0.8-2c0.2-0.5,0.1-0.8-0.4-1c-1.8-0.6-3.3-1.5-4.4-3.2c-0.6,1.1-1.1,2.1-1.7,3.1
				c-1.6,2.8-2.9,5.8-5.1,8.4c2.1,4.1,4.7,7.9,6.4,12.2c-0.2,0-0.4-0.1-0.5-0.2c-0.8-0.9-1.8-1.7-2.5-2.8c-1.7-2.7-3.2-5.4-4.8-8.2
				c-0.1-0.2-0.2-0.4-0.3-0.6c-0.1,0.2,0,0.4,0,0.6c1.8,6.7,3.1,13.5,3.2,20.4c0,1.2,0.1,2.4,0.3,3.6c0.1,1.1,0.6,1.4,1.6,1.2
				c0.4-0.1,0.7-0.3,1-0.5c0.8-0.7,1.5-1.4,2.3-2.1c0.3-0.2,0.5-0.4,0.9-0.7c-0.3,1.2-2.5,3.7-3.5,4.1c-2,0.7-3.3,0.1-3.6-1.9
				c0-0.2-0.1-0.4-0.1-0.6c-0.1-1.9-0.3-3.9-0.4-5.8c-0.5-6-1.5-11.9-2.9-17.7c-0.7-2.8-1.3-5.5-2.5-8.1c-1.7-3.8-3.3-7.7-5-11.5
				C279.2,178.6,279.2,178.5,279.2,178.6 M339,195.8c0.5,0.2,1,0.3,1.5,0.5c0.9,0.3,1.8,0.7,2.8,0.9c3.2,0.6,6.5,1.2,9.8,1.6
				c3,0.4,5.6-0.5,7.8-2.4c1.5-1.3,2.2-2.9,1.3-4.9c0-0.1-0.1-0.2-0.1-0.2c-0.4-1.2-0.1-1.9,1-2.5c0.9-0.5,1.8-0.8,2.6-1.3
				c1.7-0.9,3.2-2,4.4-3.5c1.4-1.8,1.6-3.4,0.4-5.4c-0.3-0.6-0.8-1.1-1.1-1.6c-0.7-1-1.4-2-2.1-3c-0.8-1.3-0.7-2.7,0.1-4.1
				c0.3-0.4,0.6-0.9,0.8-1.3c0.4-0.7,0.9-1.3,1.3-2c1.1-2,0.2-5-1.8-6.2c-0.1-0.1-0.2-0.1-0.3-0.1c-0.5-0.3-1-0.6-1.4-1
				c-1.1-1.1-1.6-2.4-1.9-3.9c-0.6-2.9-0.6-5.8-0.6-8.7c0.1-5.2,0.2-10.4,0.3-15.6c0-2.5,0.1-5-0.2-7.5c-0.8-7.4-3.4-14.2-7.7-20.3
				c-2.8-3.9-6.1-7.2-10.7-8.9c-2.6-1-5.3-1.7-7.9-2.6c-0.1,0-0.2,0-0.4,0c-3.1,0-6,0.5-8.8,1.8c-4.7,2.2-8.9,5.1-12.7,8.7
				c-3.5,3.4-5.7,7.5-6.7,12.3c-1.1,5.5-1.6,11.1-2.1,16.7c-0.3,3-0.3,6-0.6,9c-0.4,3.5-1.3,6.8-3.4,9.8c-0.8,1.1-1.5,2.3-2.2,3.4
				c-0.6,0.9-0.6,1.7-0.1,2.6c0.9,1.5,1.7,2.9,2.5,4.4c0.5,0.9,0.9,1.9,1.3,2.8c0.8,2,0.6,4-0.6,5.8c-0.7,1.1-1.5,2.2-2.3,3.2
				c-2.1,2.7-3.5,5.7-3.9,9.1c-0.3,2.9,0.8,4.8,3.5,5.9c0.2,0.1,0.4,0.2,0.6,0.2c1.5,0.6,1.9,1.5,1.4,3.1c-0.2,0.6-0.5,1.2-0.7,1.8
				c-0.6,1.5-0.4,2.7,0.9,3.8c0.9,0.7,1.8,1.2,2.8,1.6c2.5,1,5.2,1.3,7.8,1.1c3-0.2,6-0.7,9-1.1c1.4-0.2,2.7-0.3,4.1-0.4
				c0-0.1,0-0.3-0.1-0.4c-0.4-1.2-0.3-2.4,0.5-3.4c0.2-0.3,0.5-0.6,0.8-1c0.8-1,0.8-1.5-0.1-2.4c-0.7-0.7-1.4-1.3-2-2
				c-1.6-1.8-1.8-3.3-0.7-5.5c0.4-0.7,0.7-1.4,1.1-2.1c0.7-1.6,0.5-3-0.7-4.2c-0.7-0.7-1.4-1.2-2.1-1.8c-0.8-0.7-1.7-1.3-2.5-2.1
				c-1.3-1.3-1.6-2.8-0.8-4.5c0.4-0.9,1-1.8,1.5-2.6c0.8-1.4,1.7-2.8,2.6-4.2c0.1-0.2,0.3-0.2,0.4-0.3c-0.1-0.2-0.2-0.4-0.2-0.6
				c0.2-0.8,0-1.6-0.4-2.4c-0.4-0.8-0.8-1.6-1.3-2.4c-1.7-2.8-3.2-5.6-4.4-8.6c-2-5.2-2.8-10.4-1.8-15.9c0.7-3.7,2-7.1,3.5-10.5
				c2-4.4,4.3-8.7,7-12.7c2-2.9,4.7-4.2,8.3-3.6c0.2,0,0.5,0.1,0.7,0.1c-0.6-3.3-0.2-6.5,0.4-9.6c0.3,1.6,0.5,3.2,0.6,4.9
				c0.1,1.6,0,3.3,0,5c0.3,0,0.6,0.1,0.8-0.1c0.8-0.7,1-0.7,1.7,0c7.2,7,12,15.3,14.1,25.1c0.6,2.8,1,5.6,0.8,8.4
				c-0.3,3.5-1.6,6.6-3.8,9.2c-1.7,2-3.5,4-5.4,5.8c-2.1,2-2.6,4.1-1.3,6.7c0.5,1.1,0.9,2.2,1.2,3.3c0.5,1.5,0.3,2.9-0.6,4.2
				c-0.7,1-1.6,2-2.4,3c-0.8,1-1.6,2.1-2.3,3.2c-0.7,1.2-0.7,2.5,0,3.7c0.3,0.5,0.6,1,0.9,1.4c0.6,0.8,1.3,1.6,2,2.4
				c0.7,0.8,1.1,1.8,1.2,2.9c0.2,1.9-0.5,3.6-1.7,5.1c-0.8,1-1.7,2.1-2.6,3.1C338.8,193.3,338.5,194.5,339,195.8 M311.7,265.9
				c0.1,0,0.2,0,0.3,0c0,0.9,0,1.8,0,2.7c-0.4,7.2-1.4,14.4-2.9,21.5c-0.9,4.1-1.9,8.1-2.9,12.1c-0.1,0.5,0,0.8,0.4,1
				c0.2,0.1,0.4,0.3,0.7,0.3c1.7,0.5,3.4,1.1,5.1,1.6c1,0.3,2.1,0.3,3.1,0c0.2-0.1,0.4-0.3,0.5-0.5c0.1-1,0.2-2.1,0.3-3.1
				c0.3-4.5,0.5-9,1-13.5c0.6-5.4,1.4-10.7,2.1-16.1c0.1-1,0.4-2.1,0.5-3.1c0.1,0,0.1,0,0.2,0c-0.9,11-2.1,21.9-2.8,32.7
				c1.4,0.2,2.7,0.3,3.9,0.7c1.3,0.4,1.6,1.8,2.5,2.7c-0.9-13.1-1.7-26.2-2.1-39.3c0.2,0.8,0.4,1.7,0.5,2.6
				c0.4,4.4,0.8,8.8,1.1,13.3c0.5,7.7,1,15.4,1.5,23.2c0,0.4,0.2,0.6,0.6,0.6c1.5,0.1,3,0.4,4.5,0.5c0.7,0,1.5-0.1,2.2-0.2
				c0.4,0,0.5-0.3,0.5-0.7c0-1.9-0.1-3.8,0.1-5.7c0.3-5.8,0.7-11.6,1.1-17.3c0.4-5,1-9.9,1.5-14.9c0.1-1,0.3-1.9,0.4-2.8
				c0.1,0,0.1,0,0.2,0c-0.8,12.6-1.8,25.1-2.3,37.7c2.6-0.1,5.1,0.1,7.3,1.4c-0.6-5.1-1.3-10.3-1.8-15.4c-0.5-5.1-0.6-10.3-0.1-15.5
				c0.1,11.3,1.5,22.4,3.6,33.4c0.2,0,0.4-0.1,0.6-0.1c2.2-0.3,4.4-0.7,6.7-0.9c2.2-0.2,4.4-0.2,6.7-0.3c0.5,0,1.1-0.2,1.6-0.3
				c-0.1-0.3-0.2-0.4-0.3-0.4c-0.6,0.1-0.8-0.3-0.9-0.7c-0.2-0.7-0.4-1.4-0.5-2.1c-0.4-2.2-0.8-4.4-1.1-6.6
				c-1.2-10.3-2.4-20.6-3.6-30.9c0-0.4-0.1-0.7-0.6-0.7c-5.2-0.5-10.3-1.1-15.5-1.4c-6.5-0.4-12.9-0.2-19.3,0.7
				c-3.4,0.5-6.7,1.4-9.7,3.2c-0.7,0.4-1.2,0.8-0.9,1.7c0,0.1,0,0.2,0,0.2c-0.4,2.2-0.7,4.3-1.2,6.5c-1.6,6.9-4.1,13.5-7.1,19.9
				c-0.3,0.7-0.2,1.3,0.3,1.8c0.7,0.8,1.6,1,2.6,1.1c1,0.1,2.1,0.2,3.1,0.5c1.7,0.5,2.6,1.8,2.6,3.5c0,0.4,0,0.7,0.1,1.1
				C308.1,289.7,310.8,277.9,311.7,265.9 M376.2,244.3c-0.1,0-0.1,0-0.2,0.1c-2.8-7.1-5.1-14.4-7.1-21.9c0,1.4,0,2.7,0,3.9
				c0.2,4.5,0.6,9,1.7,13.4c0.9,3.8,2,7.5,2.9,11.3c0.3,1.1,0.4,2.3,0.4,3.4c0,1.2-0.4,2.3-1.5,3.1c-0.7,0.5-1.1,1-1.2,1.9
				c-0.1,1.1-0.5,2.3-0.7,3.4c-0.1,0.4-0.1,0.8,0.1,1.1c2,3.4,4,6.8,5.9,10.3c1.6,2.9,3.2,5.7,5.6,8c0.8,0.8,0.6,1.4-0.4,2
				c-0.9,0.5-1.7,1-2.5,1.5c0.3,0.2,0.5,0.2,0.7,0.2c2.6,0.1,5-0.8,7.3-1.8c2.1-0.9,3.1-2.6,3.3-4.8c0.2-1.9,0.2-3.9,0.1-5.8
				c-0.1-5.5-1.8-10.5-5.1-14.9c-1-1.3-1.9-2.7-2.8-4c-0.3-0.5-0.4-1.2-0.5-1.8c-0.1-1.4,0-2.9-0.1-4.3c-1.1-12.3-2.3-24.6-4-36.9
				c-1.3-8.9-3.2-17.7-6.2-26.2c-0.1-0.2-0.2-0.4-0.2-0.6c0,0.1,0.1,0.1,0.1,0.2c-0.6,0.5-1.1,0.9-1.7,1.4c-0.1,0.1-0.2,0.2-0.2,0.4
				c-0.3,2.8-0.7,5.6-0.9,8.4c-0.2,4-0.1,8.1-0.3,12.1c-0.1,1.8,0.2,3.5,1.1,5c1.5,2.7,3.1,5.3,4.7,8c0.2,0.3,0.4,0.6,0.5,0.9
				c-0.1,0-0.1,0.1-0.2,0.1c-2.7-2.4-4.7-5.4-6.2-8.7c-0.1,1.7-0.1,3.4-0.1,5.1c0,0.3,0.1,0.5,0.2,0.8c2,6.7,3.9,13.4,5.9,20.1
				C375.4,240.7,375.8,242.5,376.2,244.3 M314.6,344.4c0,0.2,0,0.4,0,0.6c0.2,2.6,0.5,5.1,0.7,7.7c0.3,3.6,0.7,7.1,1,10.7
				c0,0.4,0,0.8,0.5,1.1c4,2.5,8.2,3,12.6,1.1c0.6-0.3,0.8-0.6,0.7-1.2c-0.6-3.6-1.1-7.3-1.7-10.9c-0.3-2-0.4-4.1-0.2-6.1
				c0-0.6,0.2-1.2,0.1-1.8c-0.2-0.8,0-1.5,0.1-2.3c0.2-0.8,0.4-1.5,0.5-2.3c0.6-5.7,1.2-11.3,1.7-17c0.4-5.2,0.7-10.4,1-15.7
				c0-0.4,0-0.7,0-0.9c-2.3-0.2-4.6-0.5-6.8-0.7c-1.4-0.1-2.5-0.6-3.2-2c-0.7-1.4-2.4-1.9-4-1.4c0,0.5,0,1,0,1.5
				c0,0.7-0.4,1.3-1.1,1.5c-0.3,0.1-0.7,0.3-1.1,0.3c-1.7,0.4-3.3,0-4.9-0.4c-0.2-0.1-0.4-0.1-0.7-0.1c0.3,2.5,0.7,5,1,7.4
				c1.1,7.8,2.1,15.5,3.2,23.3c0.3,2.1,0.7,4.1,1.8,6c0.5,0.9,0.7,1.9,1,2.9c0,0.2,0,0.3,0,0.5c-0.1,0-0.1,0.1-0.2,0.1
				C316,345.7,315.3,345,314.6,344.4 M344,347.9c0,0.1-0.1,0.2-0.1,0.3c0,3.2,0.1,6.3,0.2,9.5c0,0.2,0.2,0.5,0.4,0.7
				c1.3,0.9,2.7,1.4,4.3,1.4c3.2,0.2,5.9-1.1,8.4-2.8c0.2-0.1,0.2-0.5,0.2-0.7c-0.1-1.7-0.3-3.4-0.4-5.1c-0.2-2.1-0.4-4.1,0.4-6.1
				c0.1-0.3,0.2-0.7,0.2-1.1c1-7,2-14.1,3-21.1c1-7.1,2.1-14.2,3.1-21.2c0.1-0.7,0.2-1.4,0.3-2.2c-2,0.3-3.8,0.6-5.5,1.4
				c-0.3,0.2-0.6,0.4-0.9,0.7c0.6,0.6,1.1,1.1,1.6,1.6c0.5,0.6,0.5,1.3-0.1,1.8c-0.5,0.4-1.1,0.7-1.7,0.9c-1,0.2-2,0.2-3,0.3
				c-2.2,0.1-4.4,0.1-6.5,0.3c-1.7,0.1-3.4,0.4-5.1,0.6c-1.2,0.1-2.5-0.4-2.5-1.9c0-0.6-0.4-0.7-0.9-0.8c0,0.2,0,0.3,0,0.5
				c0.2,3.8,0.4,7.5,0.7,11.3c0.8,9.4,2.2,18.7,3.7,27.9c0.2,1.4,0.6,2.6,1.8,3.4c0.2,0.2,0.4,0.5,0.6,0.7c0,0.1-0.1,0.1-0.1,0.2
				C345.4,348.2,344.7,348.1,344,347.9 M320.5,125c-0.3,0.7-0.5,1.5-0.8,2.1c-1,2.3-1,4.7-0.2,7.1c1.1,3.3,2.7,6.3,4.5,9.2
				c2.2,3.5,5.3,6.1,9.1,7.8c1.3,0.6,2.6,0.7,3.9,0.3c2.7-0.8,5-2.2,7-4.2c3.7-3.8,6.3-8.3,8.2-13.2c0.1-0.3,0.1-0.6,0.1-0.8
				c-0.5-2.4-1.1-4.8-1.6-7.2c-0.1-0.2-0.2-0.5-0.2-0.7c-0.8,0.2-1.4,0.3-1.9-0.5c0-0.1-0.2-0.1-0.3-0.1c-1.4,0-2.9-0.5-4.2,0.6
				c-0.1,0.1-0.2,0.1-0.3,0.1c-1.4,0.4-2.9,0.4-4.3,0.2c-0.3,0-0.4-0.3-0.2-0.5c0.6-0.4,1.3-1,2-1.2c1.9-0.4,3.8-0.7,5.7-0.9
				c1.1-0.1,2.5-0.2,3,1.3c-0.3-1-0.8-2-1.1-3c-0.3-1-1-1.4-2-1.6c-0.6-0.1-1.2-0.2-1.7-0.1c-1.3,0.1-2.5,0.4-3.8,0.6
				c-0.2,0-0.4-0.1-0.6-0.1c0.1-0.2,0.1-0.4,0.3-0.5c0.8-0.4,1.7-0.9,2.6-1c1.2-0.3,2.4-0.3,3.6-0.4c0,0,0-0.1,0-0.1
				c-2.2-4.2-5-8-8.2-11.5c-0.1-0.2-0.4-0.3-0.6-0.3c-1.1-0.1-2.3-0.2-3.4-0.3c-2.5-0.3-4.5,0.5-6,2.6c-0.2,0.3-0.4,0.5-0.6,0.8
				c-1.7,2.9-3.3,5.8-5,8.6c-0.1,0.2-0.2,0.4-0.3,0.6c0.1,0,0.1,0,0.1,0c0.2-0.1,0.3-0.1,0.5-0.2c1.8-0.7,3.7-0.8,5.5-0.2
				c0.3,0.1,0.7,0.3,1,0.5c0.2,0.2,0.3,0.6,0.2,0.8c-0.1,0.2-0.4,0.4-0.7,0.5c-0.2,0.1-0.4,0-0.6-0.1c-2.3-0.9-4.6-0.3-6.8,0.5
				c-0.1,0-0.2,0.1-0.3,0.2c-0.4,0.9-0.8,1.7-1.3,2.6c0.7-0.1,1.3-0.3,1.9-0.4c0.6-0.1,1.2,0,1.8,0c0.3,0,0.6,0,0.9,0.1
				c2,0.3,4.1,0.4,5.7,1.9c0.1,0.1,0.2,0.3,0.4,0.5c-0.2,0.1-0.3,0.2-0.5,0.2c-0.5,0.1-0.9,0.1-1.4,0.1c-1.2-0.1-2.5,0.1-3.5-1
				c-0.1-0.1-0.2-0.1-0.3-0.1c-1-0.1-2-0.1-3-0.2c-0.2,0-0.5,0.1-0.7,0.2C321.7,125.4,321.4,125.5,320.5,125 M351.7,262.7
				c1.8,12.5,3.6,24.9,5.4,37.3c0.8-0.3,1.6-0.7,2.5-1c1.9-0.6,3.8-1,5.7-1c0.6,0,0.9-0.4,0.7-0.9c-0.5-1.6-1.1-3.1-1.4-4.8
				c-1.2-5.1-1.8-10.3-2.4-15.4c0-0.4-0.1-0.8-0.1-1.2c0.1,0,0.1,0,0.2,0c1.1,6.2,2.3,12.4,3.4,18.6c0.7-0.3,1.3-0.7,1.9-0.9
				c1.3-0.4,2.6-0.7,3.8-1.1c0.9-0.3,1.8-0.8,2.6-1.1c-0.7-1-1.4-1.9-1.9-2.9c-2.9-5.5-5.4-11.1-7.5-16.9c0-0.1-0.1-0.2-0.1-0.3
				c0-0.1,0-0.2,0-0.3c2.9,5.8,5.7,11.6,8.8,17.1c0.8-0.6,1.5-1.2,2.3-1.7c0.9-0.5,1.8-0.9,2.7-1.4c0.8-0.5,1.6-0.9,2.3-1.4
				c-1.1-1.5-2.3-2.8-3.3-4.3c-1-1.5-1.8-3.2-2.7-4.8c-1.6-2.8-3.2-5.7-4.8-8.5c-0.2-0.4-0.5-0.5-0.9-0.6c-0.9-0.1-1.7-0.2-2.6-0.4
				c-1-0.2-1.9-0.5-2.9-0.6c-2.4-0.3-4.9-0.6-7.4-0.9C354.7,263,353.2,262.9,351.7,262.7 M357.6,358.3c-4.3,2.7-8.7,3.9-13.4,1.3
				c0,0.2,0,0.3,0,0.4c0.3,6.6,0.6,13.2,0.9,19.8c0.3,5.5,0.6,10.9,0.8,16.4c0.2,6.1,0.3,12.1,0.5,18.2c0.1,1.6,0,3.1-0.3,4.6
				c-0.1,0.5-0.1,1.1-0.2,1.6c0,0,0.1,0.1,0.1,0.1c2.4-2.5,5-3.3,8.1-1.1c-0.1-0.4-0.1-0.6-0.1-0.8c-0.4-1.8-0.7-3.6-1.1-5.4
				c-0.7-3.4-0.7-6.7,0.7-9.9c0.1-0.2,0.2-0.5,0.2-0.7c1-5.9,2.1-11.9,3.1-17.8c1.2-6.9,1.9-13.9,1.3-20.9
				C357.9,362.2,357.8,360.3,357.6,358.3 M330.8,417.5c0-0.1-0.1-0.3-0.1-0.4c-1-2.7-1.7-5.6-1.8-8.5c-0.1-3.1-0.1-6.2-0.3-9.3
				c-0.3-6.5,0.2-13,1.3-19.5c0.6-3.2,1.3-6.3,0.9-9.6c-0.1-1.3-0.3-2.6-0.4-4c-4.8,2.4-9.3,2-13.8-0.9c1.9,17,3.6,33.8,4.8,50.6
				c0.7,0,1.5-0.1,2.1,0.2c0.7,0.3,1.3,0.8,2,1.2c0.5,0.3,0.9,0.7,1.4,1c1,0.5,2,0.7,2.9-0.2C330,417.8,330.4,417.7,330.8,417.5
				 M300.4,268.5c0.7-0.8,1.2-1.6,1.8-2.2c0.6-0.7,1.4-1.3,2.1-1.8c2.9-2.1,6.1-3.2,9.6-3.8c7.6-1.5,15.4-1.6,23.1-1
				c6.6,0.5,13.3,1.2,19.9,2c3.6,0.4,7.3,0.6,10.8,1.7c0.3,0.1,0.7,0.1,1,0.1c0.4-1.3,0.7-2.6,1.1-3.8c-0.5-0.2-0.8-0.5-1.3-0.6
				c-3.1-0.7-6.1-1.6-8.9-3.2c-4.2-2.4-8.8-3.5-13.6-3.8c-6.2-0.4-12.4-0.2-18.7,0c-7.9,0.3-14.9,3-21.2,7.4
				c-2.5,1.8-4.6,4.1-7.6,5.3C299.2,265.9,299.8,267.2,300.4,268.5 M350.6,446.9c3.3-0.1,6.1-0.4,8.6-2c0.4-0.2,0.5-0.5,0.5-0.9
				c-0.4-2.4-0.6-4.9-1.1-7.3c-0.6-3.1-1.2-6.3-2.3-9.3c-0.6-1.5-1-3-1.4-4.6c-0.1-0.3-0.2-0.6-0.4-0.8c-0.7-0.6-1.5-1.2-2.3-1.7
				c-1.3-0.8-2.6-0.7-3.8,0.2c-0.8,0.6-1.6,1.1-2.4,1.7c-0.2,0.2-0.4,0.5-0.5,0.7c-1.2,6.2-2.3,12.5-3.9,18.6
				c-0.1,0.2,0,0.6,0.1,0.7c1.4,2.1,3.2,3.6,5.8,4.1C348.7,446.7,349.9,446.8,350.6,446.9 M331.2,418.4c-0.2,0.2-0.3,0.3-0.3,0.4
				c-0.8,1.1-1.9,1.6-3.2,1.3c-0.8-0.2-1.6-0.6-2.3-1c-0.7-0.4-1.3-1-2-1.5c-1.2-0.7-2.2-0.2-2.4,1.1c-0.1,0.6-0.2,1.2-0.3,1.8
				c-1.2,5-3.2,9.6-6.7,13.4c-0.9,1-1.8,2.2-2.6,3.3c-0.6,0.9-1.1,1.9-1.6,2.9c-0.3,0.6-0.7,1.1-1,1.6c-0.2,0.3-0.1,0.6,0.2,0.7
				c0.6,0.3,1.1,0.6,1.7,0.7c2.4,0.5,4.8,0.5,7.2,0.4c4.8-0.2,8.4-2.9,10-7.5c0.5-1.3,0.9-2.7,1.5-4c0.8-2,1.7-4,2.7-6
				c0.5-1.1,0.7-2.3,0.5-3.4C332.1,421.3,331.7,419.9,331.2,418.4 M327.2,150c0,0.1,0,0.2,0,0.4c0.2,1.4,0.3,2.8,0.5,4.3
				c0.2,1.9,0.1,3.8-1.3,5.3c-0.7,0.8-0.4,1.7,0.5,2.1c2.6,1.3,5.3,2.2,8.2,2.5c2.7,0.3,5.3,0,7.8-1.2c0.4-0.2,0.5-0.4,0.3-0.9
				c-0.5-1.1-0.9-2.3-1.4-3.5c-0.7-2,0.4-3.7,1-5.5c1-0.8,0.6-1.8,0.8-2.9c-0.3,0.2-0.4,0.3-0.6,0.4c-2,1.5-4.2,2.3-6.6,2.7
				c-1.5,0.2-2.8-0.1-4.1-0.8C330.5,151.9,328.9,150.9,327.2,150 M307.2,443.3c-0.1,0-0.1,0-0.2,0c-0.1,1.1-0.3,2.3-0.3,3.4
				c-0.1,1.7,0.7,2.8,2.2,3.4c1.5,0.6,3.1,0.9,4.7,1c4.2,0.3,8.3-0.3,12.4-0.8c0.7-0.1,1.2-0.5,1.5-1c0.5-1,1-2,1.2-3
				c0.4-1.5,0.6-3.1,0.8-4.7c0.4-2.6,0.8-5.2,1.2-7.9c-0.2,0.2-0.3,0.4-0.4,0.6c-0.4,1.1-0.7,2.3-1.2,3.4c-1.7,4-4.8,6.6-9,7.4
				c-3,0.6-6,0.4-9,0C309.6,444.9,308.2,444.4,307.2,443.3 M304.8,266.5c-0.1,0-0.1-0.1-0.2-0.1c-0.1,0.1-0.2,0.1-0.2,0.2
				c-0.8,1-1.7,1.9-2.5,2.9c-0.4,0.5-0.8,1-1.5,0.9c-0.1,0-0.3,0.1-0.4,0.2c-1.6,2.1-3.5,3.9-5.5,5.6c-1.2,1-2.5,1.7-3.7,2.5
				c-0.1,0-0.1,0.1-0.2,0.2c0.2,0.2,0.4,0.5,0.6,0.7c0.6,0.7,1.2,1.4,1.6,2.2c0.9,1.6,0.5,2.7-1.1,3.5c-0.3,0.2-0.6,0.3-1,0.6
				c2.4,1.4,4.9,2.5,6.6,4.9c2.5-6.6,5-13.1,6.5-20c-3.1,5.3-6.9,10-10.8,14.7c0-0.3,0.2-0.5,0.3-0.7c1.2-1.8,2.5-3.7,3.7-5.5
				c2.3-3.5,4.7-7.1,7-10.7C304.4,268,304.6,267.2,304.8,266.5 M341,444.1c-0.3,1.4-0.7,2.9-1.1,4.4c-0.2,0.7,0,1.3,0.5,1.7
				c0.8,0.7,1.7,1.4,2.6,1.8c4.3,1.9,8.7,1.8,13.1,0.7c2.6-0.6,3.2-1.7,3.4-4.3c0-0.5,0.1-1.1,0.1-1.7c-3.2,1.7-6.4,2-9.7,1.9
				c-2.4-0.1-4.8-0.6-6.7-2.2C342.4,445.7,341.8,444.8,341,444.1 M325.8,157.6c0.1,0,0.1,0,0.2,0c0-0.8,0.2-1.5,0.1-2.3
				c-0.1-2.2-0.3-4.3-0.5-6.5c0-0.3-0.2-0.6-0.4-0.8c-3-3.4-5.1-7.3-6.9-11.4c-0.1-0.1-0.1-0.3-0.2-0.4c-0.1,0.2-0.2,0.4-0.1,0.6
				c0.2,1.9,0.4,3.8,0.7,5.6C320,148,323,152.8,325.8,157.6 M382.7,297.2c0.3,0.3,0.6,0.5,0.9,0.7c0.3,0.3,0.7,0.6,1,0.8
				c1.1,0.7,1.9,0.4,2.2-0.9c0.1-0.2,0.1-0.5,0.1-0.7c0-1.3-0.3-2.5-0.8-3.6c-0.9-1.9-1.8-3.8-2.8-5.6c-0.1-0.1-0.2-0.3-0.3-0.2
				c-0.9,0.1-1.8,0.2-2.9,0.3c0.8,1.5,1.5,2.8,2.2,4.2c0.5,0.9,1.1,1.8,1.5,2.8C384.3,296.1,384,296.6,382.7,297.2 M269.2,177.9
				c0-0.9,0-1.7,0-2.5c0-0.2-0.1-0.5-0.2-0.7c-1.8-2.1-3-4.6-3.7-7.3c0-0.1-0.2-0.3-0.4-0.4c-1.2-0.1-1.9,0.5-1.9,1.7
				c0,0.4,0,0.7,0,1.1c0.3,2.1,1.2,4.1,2.5,5.7c0.8,0.9,1.7,1.6,2.8,2.1C268.6,177.7,268.8,177.8,269.2,177.9 M382.8,295.8
				c0-0.1,0.1-0.2,0.1-0.3c-0.3-0.7-0.6-1.4-1-2c-1.1-1.7-2-3.5-2.7-5.4c-0.1-0.2-0.3-0.4-0.4-0.4c-0.7-0.1-1.3-0.2-2-0.3
				c-0.8-0.1-1.2,0.4-1,1.1c0.3,1,0.7,2.1,1.1,3c0.4,1,0.9,2,1.5,2.9c0.3,0.5,0.8,1,1.3,1C380.6,295.9,381.7,295.8,382.8,295.8
				 M266.7,167.7c-0.2,0.8,0.3,1.5,0.7,2.3c0.4,0.7,0.7,1.4,1.2,2c0.4,0.6,0.8,1.2,1.3,1.7c0.5,0.6,0.8,0.5,1.2-0.2
				c0.5-1.2,0.5-2.5,0.1-3.7c-0.1-0.2-0.2-0.3-0.3-0.4c-0.3-0.4-0.6-0.8-0.8-1.2c-0.3-1-1-1.5-1.9-1.9c-1.1-0.6-1.5-0.3-1.5,1
				C266.7,167.3,266.7,167.4,266.7,167.7 M388.1,298.6c0.2,0.1,0.3,0.1,0.4,0.2c1,0.3,1.2,0.2,1.1-0.9c-0.2-1.6-0.3-3.3-0.7-4.9
				c-0.5-2.2-1.3-4.4-1.9-6.6c-0.8,0.3-1.6,0.6-2.4,0.9c0.1,0.3,0.2,0.5,0.3,0.7c0.7,1.3,1.4,2.6,2,3.9
				C387.9,293.9,388.7,296.1,388.1,298.6 M269.5,164.2c-0.2-0.1-0.3-0.1-0.4-0.1c-2.8-0.4-5.4-0.1-7.9,1.2c-2.5,1.2-3.8,3.6-3.5,6.2
				c0.3-1.9,1.6-2.6,3.2-2.9c0.4-0.1,0.6-0.2,0.7-0.7c0.3-1.4,1.2-2.1,2.6-2.3c0.4,0,0.8,0,1.2,0c0.2,0,0.4-0.1,0.5-0.2
				c0.5-0.6,1.1-0.8,1.8-0.7c0.6,0.1,1.1,0.3,1.7,0.5C269.4,165,269.4,164.6,269.5,164.2 M344.9,151.1c0.2-0.2,0.4-0.3,0.5-0.4
				c1.3-1.5,2.7-2.9,3.9-4.4c1.1-1.3,2-2.8,2.6-4.4c0.4-1.1,0.5-2.2,0.6-3.5c-0.2,0.2-0.2,0.3-0.3,0.3c-1.8,3.5-3.9,6.7-6.6,9.6
				C344.8,149.2,344.9,150.1,344.9,151.1 M261.4,169.7c-0.4,0.1-0.7,0.2-1,0.4c-1.2,0.5-1.5,1.2-1.2,2.4c0.5,2.1,3.5,4.6,5.6,4.8
				c0,0,0,0,0.1,0C262.9,175.1,261.8,172.6,261.4,169.7 M388,285.8c0.9,2.9,1.8,5.8,2.7,8.6c0.8-1,1.2-2.1,0.7-3.4
				c-0.8-1.8-1.7-3.6-2.5-5.5c0,0-0.1,0-0.1-0.1C388.5,285.6,388.2,285.7,388,285.8 M270.6,165.5c0.3,0.6,0.5,1.3,0.8,1.9
				c0.2,0.3,0.4,0.6,0.6,1c0.4,0.7,0.5,0.8,1.1,0.2c0.2-0.2,0.4-0.5,0.6-0.8c0.1-0.1,0.2-0.3,0.1-0.4c-0.3-0.8-0.5-1.6-0.9-2.4
				c-0.2-0.5-1.1-0.7-1.8-0.5C270.6,164.5,270.8,165,270.6,165.5 M260,176.5c-0.1-0.2-0.1-0.2-0.2-0.3c-0.9-0.9-1.6-1.9-2-3.2
				c-0.1-0.5-0.4-0.3-0.7-0.1c-0.4,0.3-0.5,0.9-0.2,1.5C257.6,175.6,258.7,176.1,260,176.5"/>
			<path class="st2" d="M279.2,178.6c0,0,0,0,0.1,0.1c1.7,3.8,3.2,7.7,5,11.5c1.2,2.6,1.8,5.4,2.5,8.1c1.5,5.8,2.5,11.7,2.9,17.7
				c0.1,1.9,0.3,3.9,0.4,5.8c0,0.2,0.1,0.4,0.1,0.6c0.4,2,1.6,2.6,3.6,1.9c1-0.4,3.2-2.9,3.5-4.1c-0.3,0.3-0.6,0.5-0.9,0.7
				c-0.8,0.7-1.5,1.4-2.3,2.1c-0.3,0.2-0.7,0.5-1,0.5c-1.1,0.2-1.5-0.1-1.6-1.2c-0.2-1.2-0.2-2.4-0.3-3.6c-0.1-7-1.4-13.7-3.2-20.4
				c0-0.2-0.1-0.4,0-0.6c0.1,0.2,0.2,0.4,0.3,0.6c1.6,2.7,3.1,5.5,4.8,8.2c0.6,1,1.6,1.9,2.5,2.8c0.1,0.1,0.3,0.2,0.5,0.2
				c-1.7-4.3-4.3-8.1-6.4-12.2c2.1-2.5,3.4-5.5,5.1-8.4c0.6-1,1.1-2,1.7-3.1c1,1.8,2.6,2.6,4.4,3.2c0.6,0.2,0.6,0.5,0.4,1
				c-0.3,0.7-0.6,1.3-0.8,2c-0.8,1.9-0.3,3.6,1.1,5c1.7,1.7,3.9,2.5,6.2,3c3.8,0.8,7.7,0.5,11.5,0c2.6-0.4,5.3-0.7,7.9-1
				c0.7-0.1,1.3-0.5,1.3-1.3c0-0.8,0-1.5-0.1-2.3c-0.1-0.4,0-0.7,0.3-1.1c0.4-0.5,0.8-1,1.2-1.5c0.9-1.3,0.8-2.4-0.3-3.6
				c-0.3-0.3-0.6-0.6-0.9-0.9c-0.3-0.3-0.7-0.6-1-1c-1.6-1.6-1.6-2.3-0.6-4.3c0.4-0.7,0.8-1.4,1.1-2.2c0.8-2,0.5-3.8-0.9-5.4
				c-0.8-0.9-1.7-1.6-2.6-2.3c-0.7-0.6-1.4-1.1-2-1.6c-1.2-1.1-1.3-1.9-0.6-3.3c0.8-1.4,1.7-2.7,2.5-4c0.3-0.5,0.7-1.1,1-1.7
				c2.7,1.8,5.7,2.8,8.9,3.3c3.2,0.5,6.3,0.1,9.3-1.3c0.1,0,0.1,0.1,0.2,0.1c-0.2,0.5-0.3,1.1-0.6,1.5c-0.6,0.9-1.3,1.7-2,2.5
				c-0.7,0.9-1.5,1.9-2.2,2.8c-1.8,2.5-1.8,4.7,0,7.3c0.7,1,1.5,1.9,2.3,2.9c1.3,1.6,1.4,3.2,0.5,5c-0.5,0.8-1.1,1.6-1.7,2.3
				c-0.7,0.8-1.4,1.6-2,2.5c-1.3,1.8-1.3,3.4,0.3,5.6c0.3,0.4,0.7,0.7,1.3,0.5c0.1,0,0.2,0,0.2,0.1c2.6,1.1,5.3,1.4,8,1.9
				c1.7,0.3,3.4,0.6,5.2,0.8c4,0.4,7.3-1,9.9-3.9c1.4-1.5,1.6-3.3,0.9-5.2c-0.3-0.9-0.3-0.9,0.6-1.3c1.5-0.8,3-1.6,4.5-2.4
				c-0.1,0.9-0.2,1.9-0.4,2.9c-0.2,1.2-0.4,2.3-0.5,3.5c-0.7,9.3-1.1,18.7-1.1,28.1c0,9.2,1.4,18.2,4.1,27c0.4,1.4,0.7,2.8,1,4.2
				c0.3,2-0.2,3.1-2,4c-0.1,0.1-0.2,0.1-0.3,0.1c-3.1-0.7-6.1-1.4-8.9-3c-2.8-1.5-5.7-2.7-8.8-3.4c-3.3-0.7-6.7-1-10.1-1
				c-6-0.2-11.9-0.1-17.9,0.5c-5.2,0.5-10.1,2.3-14.6,4.7c-2.9,1.6-5.6,3.6-8.2,5.7c-0.9,0.7-1.9,1.4-2.9,1.9
				c-1,0.5-1.3,0.4-1.5-0.7c-1.5-7.1-2.2-14.2,0.4-21.3c2.8-7.5,3.9-15.2,4.6-23.1c0.3-3.4,0.5-6.8,0.7-10.2c0-0.4,0-0.8,0-1.2
				c0-0.2-0.2-0.3-0.2-0.5c-0.1,0.1-0.4,0.2-0.4,0.4c-0.1,0.4-0.3,0.8-0.3,1.3c-0.5,3.7-0.9,7.4-1.3,11.1c-0.5,4.3-1,8.6-2,12.8
				c-0.3,1.3-1.1,2.2-2.2,2.9c-0.6,0.3-1.2,0.5-1.8,0.1c-0.2-0.1-0.5-0.2-0.8-0.2c-8.6-1.4-15.2-5.8-19.8-13.2
				c-3.6-5.7-5.9-11.9-7.8-18.3c-1.6-5.4-3.2-10.9-4.9-16.3c-0.3-0.8-0.6-1.6-0.9-2.5c0.2,0,0.3,0,0.5,0c0.6-0.1,0.9-0.5,0.6-1
				c-0.1-0.3-0.4-0.5-0.6-0.7c-0.5-0.4-1-0.8-1.5-1.2c-1.3-1-1.8-2.4-2-4c1.2,0.8,2.4,1.3,3.8,1.2c1.1-0.1,2,0.1,3,0.5
				c0.8,0.3,1.6,0.3,2.4,0c0.2-0.1,0.5,0,0.7,0.1c0.6,0.2,1.2,0.5,1.8,0.6c0.9,0.2,1.6-0.3,1.8-1.3c0.1-0.8,0.1-1.6,0.2-2.4
				c1.9-0.7,2-2.4,2.1-4.1c0-0.4-0.1-0.8-0.1-1.3c1.1-0.5,2-1.3,2.3-2.7c1,1.5,2,2.8,2.9,4.2c0.2,0.4,0.1,1.1-0.1,1.5
				c-0.8,1.7-1.6,3.3-2.4,4.9c-0.5,1-1.1,1.9-1.7,2.9c-0.1,0.2-0.1,0.3-0.3,0.7c1.1-0.4,1.8-1.1,2.4-1.8c0.6-0.8,1.1-1.6,1.8-2.4
				c-0.4,6.1-1.8,12.1-2.6,18.2c1.2-2.7,2.1-5.5,2.7-8.4C278.4,184.4,278.7,181.4,279.2,178.6 M350.6,236.7c0.1,0,0.1,0,0.2,0
				c0.2-2.9,0.4-5.8,0.6-8.7c0.2-3.5,0.5-7,1.5-10.5c0.3-0.9,0.6-1.8,1-2.6c0.1-0.2,0.3-0.3,0.5-0.5c0.1,0.2,0.3,0.3,0.4,0.5
				c0.3,0.9,0.6,1.8,0.9,2.7c2.2,7.8,4.7,15.4,8,22.8c1,2.2,2.3,4.4,3.4,6.6c0.2,0.4,0.5,0.6,0.8,1c0.1,0,0.2-0.1,0.2-0.1
				c-0.2-0.4-0.4-0.8-0.6-1.2c-3.2-6-5.6-12.3-7.8-18.7c-1.4-4-2.6-8-3.9-12c-0.2-0.6-0.4-1.1-0.7-1.6c-0.4-0.7-1-0.7-1.5-0.1
				c-0.3,0.4-0.6,0.8-0.7,1.3c-0.5,1.4-0.9,2.9-1.2,4.4c-0.9,4.1-0.9,8.3-1,12.5C350.6,233.9,350.6,235.3,350.6,236.7 M303.2,247.7
				c0,0,0.1,0.1,0.1,0.1c1.4-2.4,2.7-4.8,4.1-7.3c4.9-8.9,9.1-18.1,12-27.9c0.5-1.6,1-3.3,1.4-4.9c0-0.1-0.1-0.3-0.1-0.5
				c-0.1,0.1-0.3,0.2-0.4,0.3c-0.1,0.2-0.2,0.5-0.3,0.8c-1.9,5.3-3.6,10.7-5.7,15.9c-2.9,7.1-6.4,14-9.9,20.9
				C304.1,245.9,303.7,246.8,303.2,247.7 M323.9,235.5c0.1,0,0.1,0,0.2,0c1.2-8.1,2-20.3,1.4-22C325,220.9,324.5,228.2,323.9,235.5
				 M296.7,218.9c0.1,0,0.2,0,0.3-0.1c-0.1-0.8-0.3-1.5-0.4-2.3c-0.6-2.6-1.5-5.1-3-7.4c-0.2-0.3-0.5-0.6-0.8-0.9
				c0,0-0.1,0.1-0.1,0.1C294,211.9,295.4,215.4,296.7,218.9"/>
			<path class="st1" d="M339,195.8c-0.4-1.4-0.1-2.6,0.8-3.6c0.9-1,1.8-2,2.6-3.1c1.2-1.5,1.8-3.2,1.7-5.1c-0.1-1.1-0.6-2-1.2-2.9
				c-0.6-0.8-1.3-1.6-2-2.4c-0.3-0.4-0.6-0.9-0.9-1.4c-0.7-1.2-0.7-2.5,0-3.7c0.7-1.1,1.5-2.1,2.3-3.2c0.8-1,1.6-1.9,2.4-3
				c0.9-1.3,1.1-2.7,0.6-4.2c-0.4-1.1-0.7-2.3-1.2-3.3c-1.2-2.6-0.8-4.7,1.3-6.7c1.9-1.8,3.7-3.8,5.4-5.8c2.2-2.6,3.5-5.7,3.8-9.2
				c0.2-2.9-0.2-5.7-0.8-8.4c-2.1-9.8-6.9-18.2-14.1-25.1c-0.7-0.7-0.9-0.7-1.7,0c-0.2,0.1-0.5,0.1-0.8,0.1c0-1.7,0.1-3.4,0-5
				c-0.1-1.6-0.3-3.2-0.6-4.9c-0.6,3.2-1,6.4-0.4,9.6c-0.2,0-0.5,0-0.7-0.1c-3.5-0.6-6.3,0.7-8.3,3.6c-2.7,4-5,8.3-7,12.7
				c-1.5,3.4-2.8,6.8-3.5,10.5c-1,5.5-0.2,10.8,1.8,15.9c1.2,3,2.7,5.8,4.4,8.6c0.5,0.8,0.9,1.6,1.3,2.4c0.4,0.7,0.5,1.5,0.4,2.4
				c0,0.2,0.1,0.4,0.2,0.6c0,0-0.3,0.1-0.4,0.3c-0.9,1.4-1.7,2.8-2.6,4.2c-0.5,0.9-1.1,1.7-1.5,2.6c-0.8,1.7-0.5,3.2,0.8,4.5
				c0.8,0.8,1.7,1.4,2.5,2.1c0.7,0.6,1.5,1.2,2.1,1.8c1.2,1.2,1.5,2.7,0.7,4.2c-0.3,0.7-0.7,1.4-1.1,2.1c-1.1,2.2-0.9,3.6,0.7,5.5
				c0.6,0.7,1.3,1.3,2,2c0.9,0.9,0.9,1.3,0.1,2.4c-0.3,0.3-0.5,0.6-0.8,1c-0.8,1-0.9,2.2-0.5,3.4c0,0.1,0.1,0.3,0.1,0.4
				c-1.4,0.2-2.8,0.3-4.1,0.4c-3,0.4-6,0.8-9,1.1c-2.7,0.2-5.3-0.1-7.8-1.1c-1-0.4-2-0.9-2.8-1.6c-1.3-1-1.5-2.2-0.9-3.8
				c0.2-0.6,0.5-1.2,0.7-1.8c0.6-1.6,0.2-2.5-1.4-3.1c-0.2-0.1-0.4-0.2-0.6-0.2c-2.7-1.1-3.8-3-3.5-5.9c0.4-3.4,1.9-6.4,3.9-9.1
				c0.8-1.1,1.6-2.1,2.3-3.2c1.2-1.8,1.4-3.8,0.6-5.8c-0.4-1-0.8-1.9-1.3-2.8c-0.8-1.5-1.7-3-2.5-4.4c-0.5-0.9-0.5-1.8,0.1-2.6
				c0.7-1.1,1.5-2.3,2.2-3.4c2-3,3-6.3,3.4-9.8c0.3-3,0.4-6,0.6-9c0.5-5.6,1-11.2,2.1-16.7c1-4.8,3.2-8.9,6.7-12.3
				c3.7-3.6,8-6.5,12.7-8.7c2.8-1.3,5.8-1.7,8.8-1.8c0.1,0,0.3,0,0.4,0c2.6,0.9,5.3,1.6,7.9,2.6c4.6,1.7,7.9,5,10.7,8.9
				c4.3,6.1,6.9,12.9,7.7,20.3c0.3,2.5,0.2,5,0.2,7.5c-0.1,5.2-0.2,10.4-0.3,15.6c-0.1,2.9,0,5.8,0.6,8.7c0.3,1.5,0.9,2.8,1.9,3.9
				c0.4,0.4,0.9,0.6,1.4,1c0.1,0.1,0.2,0.1,0.3,0.1c2,1.1,2.9,4.1,1.8,6.2c-0.4,0.7-0.9,1.4-1.3,2c-0.3,0.4-0.6,0.9-0.8,1.3
				c-0.8,1.3-0.9,2.7-0.1,4.1c0.6,1.1,1.4,2,2.1,3c0.4,0.5,0.8,1.1,1.1,1.6c1.2,2,1,3.6-0.4,5.4c-1.2,1.5-2.8,2.6-4.4,3.5
				c-0.9,0.5-1.8,0.9-2.6,1.3c-1.2,0.6-1.4,1.3-1,2.5c0,0.1,0,0.2,0.1,0.2c0.9,2,0.2,3.6-1.3,4.9c-2.3,1.9-4.9,2.9-7.8,2.4
				c-3.3-0.5-6.5-1.1-9.8-1.6c-1-0.2-1.9-0.6-2.8-0.9C340,196.1,339.5,196,339,195.8"/>
			<path class="st3" d="M311.7,265.9c-1,12-3.6,23.8-6.1,35.6c0-0.4,0-0.7-0.1-1.1c0-1.7-0.9-3-2.6-3.5c-1-0.3-2.1-0.4-3.1-0.5
				c-1-0.1-1.9-0.3-2.6-1.1c-0.5-0.5-0.6-1.1-0.3-1.8c3-6.4,5.5-13,7.1-19.9c0.5-2.1,0.8-4.3,1.2-6.5c0-0.1,0-0.2,0-0.2
				c-0.3-0.9,0.3-1.3,0.9-1.7c3-1.8,6.3-2.7,9.7-3.2c6.4-1,12.9-1.2,19.3-0.7c5.2,0.3,10.3,0.9,15.5,1.4c0.5,0,0.6,0.3,0.6,0.7
				c1.2,10.3,2.4,20.6,3.6,30.9c0.3,2.2,0.7,4.4,1.1,6.6c0.1,0.7,0.3,1.4,0.5,2.1c0.1,0.4,0.3,0.8,0.9,0.7c0.1,0,0.2,0.2,0.3,0.4
				c-0.5,0.1-1.1,0.3-1.6,0.3c-2.2,0.1-4.4,0.1-6.7,0.3c-2.2,0.2-4.4,0.6-6.7,0.9c-0.2,0-0.3,0.1-0.6,0.1
				c-2.1-11.1-3.5-22.2-3.6-33.4c-0.5,5.2-0.4,10.3,0.1,15.5c0.5,5.1,1.2,10.2,1.8,15.4c-2.1-1.2-4.6-1.5-7.3-1.4
				c0.5-12.6,1.5-25.2,2.3-37.7c-0.1,0-0.1,0-0.2,0c-0.1,0.9-0.3,1.9-0.4,2.8c-0.5,5-1.1,9.9-1.5,14.9c-0.5,5.8-0.8,11.5-1.1,17.3
				c-0.1,1.9-0.1,3.8-0.1,5.7c0,0.4-0.1,0.6-0.5,0.7c-0.7,0.1-1.5,0.2-2.2,0.2c-1.5-0.1-3-0.3-4.5-0.5c-0.4,0-0.6-0.2-0.6-0.6
				c-0.5-7.7-0.9-15.5-1.5-23.2c-0.3-4.4-0.7-8.9-1.1-13.3c-0.1-0.9-0.3-1.7-0.5-2.6c0.4,13.1,1.2,26.2,2.1,39.3
				c-0.9-0.9-1.2-2.3-2.5-2.7c-1.2-0.4-2.5-0.4-3.9-0.7c0.7-10.8,1.9-21.8,2.8-32.7c-0.1,0-0.1,0-0.2,0c-0.2,1-0.4,2.1-0.5,3.1
				c-0.7,5.4-1.5,10.7-2.1,16.1c-0.5,4.5-0.7,9-1,13.5c-0.1,1.1-0.2,2.1-0.3,3.1c0,0.2-0.3,0.4-0.5,0.5c-1,0.4-2.1,0.3-3.1,0
				c-1.7-0.5-3.4-1-5.1-1.6c-0.2-0.1-0.4-0.2-0.7-0.3c-0.4-0.2-0.5-0.5-0.4-1c1-4,2.1-8,2.9-12.1c1.5-7.1,2.5-14.3,2.9-21.5
				c0-0.9,0-1.8,0-2.7C312,265.9,311.8,265.9,311.7,265.9"/>
			<path class="st2" d="M376.2,244.3c-0.5-1.8-0.9-3.6-1.4-5.4c-1.9-6.7-3.9-13.4-5.9-20.1c-0.1-0.3-0.2-0.5-0.2-0.8
				c0-1.7,0-3.4,0.1-5.1c1.5,3.3,3.6,6.2,6.2,8.7c0.1,0,0.1-0.1,0.2-0.1c-0.2-0.3-0.4-0.6-0.5-0.9c-1.6-2.7-3.1-5.3-4.7-8
				c-0.9-1.5-1.2-3.2-1.1-5c0.2-4,0.1-8.1,0.3-12.1c0.1-2.8,0.6-5.6,0.9-8.4c0-0.1,0.1-0.3,0.2-0.4c0.6-0.5,1.1-0.9,1.7-1.4
				c0-0.1-0.1-0.1-0.1-0.2c0.1,0.2,0.2,0.4,0.2,0.6c3,8.5,4.9,17.3,6.2,26.2c1.8,12.2,2.9,24.6,4,36.9c0.1,1.4,0,2.9,0.1,4.3
				c0,0.6,0.2,1.3,0.5,1.8c0.9,1.4,1.8,2.7,2.8,4c3.3,4.4,4.9,9.4,5.1,14.9c0,1.9,0.1,3.9-0.1,5.8c-0.2,2.1-1.1,3.8-3.3,4.8
				c-2.3,1-4.7,1.9-7.3,1.8c-0.2,0-0.4,0-0.7-0.2c0.8-0.5,1.7-1,2.5-1.5c1-0.5,1.1-1.2,0.4-2c-2.4-2.3-4-5.1-5.6-8
				c-1.9-3.5-4-6.9-5.9-10.3c-0.2-0.3-0.2-0.8-0.1-1.1c0.2-1.1,0.6-2.3,0.7-3.4c0.1-0.9,0.5-1.5,1.2-1.9c1.1-0.7,1.5-1.8,1.5-3.1
				c0-1.2-0.2-2.3-0.4-3.4c-0.9-3.8-2-7.5-2.9-11.3c-1.1-4.4-1.5-8.9-1.7-13.4c-0.1-1.3,0-2.5,0-3.9c2,7.5,4.3,14.8,7.1,21.9
				C376.1,244.4,376.2,244.3,376.2,244.3"/>
			<path class="st4" d="M314.6,344.4c0.7,0.7,1.4,1.3,2.1,1.9c0.1,0,0.1-0.1,0.2-0.1c0-0.2,0-0.3,0-0.5c-0.3-1-0.5-2-1-2.9
				c-1-1.9-1.5-3.9-1.8-6c-1.1-7.8-2.2-15.5-3.2-23.3c-0.3-2.4-0.7-4.8-1-7.4c0.3,0.1,0.5,0.1,0.7,0.1c1.6,0.4,3.2,0.8,4.9,0.4
				c0.4-0.1,0.7-0.2,1.1-0.3c0.7-0.3,1.1-0.8,1.1-1.5c0-0.5,0-1,0-1.5c1.6-0.5,3.3,0,4,1.4c0.7,1.4,1.8,1.9,3.2,2
				c2.2,0.2,4.5,0.4,6.8,0.7c0,0.2,0,0.5,0,0.9c-0.3,5.2-0.6,10.4-1,15.7c-0.5,5.7-1.1,11.4-1.7,17c-0.1,0.8-0.3,1.5-0.5,2.3
				c-0.2,0.7-0.3,1.5-0.1,2.3c0.1,0.6,0,1.2-0.1,1.8c-0.1,2.1-0.1,4.1,0.2,6.1c0.6,3.6,1.1,7.3,1.7,10.9c0.1,0.7-0.1,1-0.7,1.2
				c-4.4,1.9-8.6,1.4-12.6-1.1c-0.4-0.3-0.4-0.7-0.5-1.1c-0.3-3.6-0.7-7.1-1-10.7c-0.2-2.6-0.5-5.1-0.7-7.7
				C314.7,344.8,314.6,344.6,314.6,344.4 M321.4,351.8c0.1,0,0.2,0,0.3,0.1c0.6-0.3,0.9-0.8,1.2-1.4c0.8-2,1.5-4.1,2.3-6.1
				c0.1-0.2,0-0.4,0-0.6c-0.2,0.1-0.4,0.2-0.5,0.4c-1,2-2,4.1-3,6.1C321.4,350.7,321.4,351.3,321.4,351.8"/>
			<path class="st4" d="M344,347.9c0.7,0.1,1.4,0.3,2,0.4c0-0.1,0.1-0.1,0.1-0.2c-0.2-0.2-0.4-0.5-0.6-0.7c-1.2-0.8-1.6-2-1.8-3.4
				c-1.5-9.3-2.9-18.6-3.7-27.9c-0.3-3.8-0.5-7.5-0.7-11.3c0-0.1,0-0.3,0-0.5c0.5,0.1,1,0.2,0.9,0.8c-0.1,1.5,1.2,2.1,2.5,1.9
				c1.7-0.2,3.4-0.5,5.1-0.6c2.2-0.2,4.4-0.2,6.5-0.3c1,0,2-0.1,3-0.3c0.6-0.1,1.2-0.5,1.7-0.9c0.6-0.5,0.6-1.1,0.1-1.8
				c-0.5-0.6-1-1-1.6-1.6c0.3-0.2,0.6-0.5,0.9-0.7c1.7-0.8,3.5-1.2,5.5-1.4c-0.1,0.8-0.2,1.5-0.3,2.2c-1,7.1-2.1,14.2-3.1,21.2
				c-1,7-2,14-3,21.1c-0.1,0.4-0.1,0.7-0.2,1.1c-0.7,2-0.6,4-0.4,6.1c0.2,1.7,0.3,3.4,0.4,5.1c0,0.2-0.1,0.6-0.2,0.7
				c-2.5,1.8-5.2,3-8.4,2.8c-1.6-0.1-3-0.6-4.3-1.4c-0.2-0.1-0.4-0.4-0.4-0.7c-0.1-3.2-0.1-6.3-0.2-9.5
				C343.9,348.1,344,348.1,344,347.9 M356.5,341.5c0,0-0.1-0.1-0.1-0.1c-0.5,0.6-1,1.3-1.5,1.9c-1.7,2.1-3.6,4.1-6.4,4.8
				c-0.1,0-0.2,0.2-0.3,0.3c0.1,0.1,0.3,0.3,0.4,0.2c0.8-0.1,1.5-0.1,2.3-0.3c3.2-1.1,4.6-3.7,5.7-6.6
				C356.5,341.6,356.5,341.5,356.5,341.5"/>
			<path class="st4" d="M320.5,125c1,0.4,1.3,0.3,1.9-0.3c0.2-0.2,0.4-0.2,0.7-0.2c1,0,2,0.1,3,0.2c0.1,0,0.3,0,0.3,0.1
				c0.9,1.1,2.2,0.9,3.5,1c0.4,0,0.9,0,1.4-0.1c0.2,0,0.3-0.2,0.5-0.2c-0.1-0.2-0.2-0.3-0.4-0.5c-1.6-1.4-3.7-1.5-5.7-1.9
				c-0.3,0-0.6-0.1-0.9-0.1c-0.6,0-1.2-0.1-1.8,0c-0.6,0.1-1.2,0.2-1.9,0.4c0.4-0.9,0.8-1.8,1.3-2.6c0-0.1,0.2-0.1,0.3-0.2
				c2.2-0.9,4.4-1.4,6.8-0.5c0.2,0.1,0.4,0.1,0.6,0.1c0.3-0.1,0.6-0.2,0.7-0.5c0.1-0.2,0-0.6-0.2-0.8c-0.3-0.2-0.6-0.4-1-0.5
				c-1.9-0.6-3.7-0.5-5.5,0.2c-0.2,0.1-0.3,0.1-0.5,0.2c0,0,0,0-0.1,0c0.1-0.2,0.2-0.4,0.3-0.6c1.7-2.9,3.3-5.8,5-8.6
				c0.2-0.3,0.4-0.5,0.6-0.8c1.5-2.1,3.5-2.9,6-2.6c1.1,0.1,2.3,0.2,3.4,0.3c0.2,0,0.5,0.1,0.6,0.3c3.2,3.5,6,7.3,8.2,11.5
				c0,0.1,0,0.2,0,0.1c-1.2,0.1-2.4,0.1-3.6,0.4c-0.9,0.2-1.7,0.7-2.6,1c-0.1,0.1-0.2,0.3-0.3,0.5c0.2,0,0.4,0.1,0.6,0.1
				c1.3-0.2,2.5-0.5,3.8-0.6c0.6-0.1,1.2,0,1.7,0.1c0.9,0.2,1.6,0.7,2,1.6c0.3,1,0.8,2,1.1,3c-0.5-1.6-1.9-1.4-3-1.3
				c-1.9,0.2-3.8,0.5-5.7,0.9c-0.7,0.2-1.4,0.7-2,1.2c-0.3,0.2-0.2,0.5,0.2,0.5c1.4,0.2,2.9,0.2,4.3-0.2c0.1,0,0.2-0.1,0.3-0.1
				c1.3-1.1,2.8-0.6,4.2-0.6c0.1,0,0.2,0.1,0.3,0.1c0.4,0.7,1.1,0.7,1.9,0.5c0.1,0.2,0.2,0.5,0.2,0.7c0.6,2.4,1.1,4.8,1.6,7.2
				c0.1,0.3,0,0.6-0.1,0.8c-1.9,4.9-4.5,9.4-8.2,13.2c-1.9,2-4.3,3.4-7,4.2c-1.4,0.4-2.6,0.3-3.9-0.3c-3.8-1.7-6.9-4.2-9.1-7.8
				c-1.8-2.9-3.5-5.9-4.5-9.2c-0.8-2.4-0.8-4.7,0.2-7.1C320,126.5,320.2,125.8,320.5,125 M336,145.1c0.1,0,0.4,0,0.6,0
				c3.1-0.6,5.5-2.4,7.2-5c0.1-0.2,0.1-0.5,0-0.7c-0.1-0.1-0.4-0.1-0.6-0.1c-0.2,0-0.3,0.1-0.4,0.2c-0.4,0.4-0.9,0.3-1.4,0.3
				c-1.4-0.2-2.9-0.4-4.3-0.4c-2-0.1-4.1,0-6.1,0c-0.6,0-1.2-0.1-1.5-0.7c-0.2-0.4-0.7-0.5-1.1-0.2c-0.4,0.3-0.4,0.7-0.1,1.1
				c0.9,1.1,1.7,2.3,2.8,3.3C332.3,144.2,333.8,145.1,336,145.1 M335.8,135.6c1.7,0,2.6-0.4,3.2-1.4c0.2-0.2,0.1-0.6,0.1-0.9
				c-0.3,0-0.7,0-0.9,0.2c-0.8,0.6-1.7,0.8-2.8,0.6c-0.9-0.2-1.9-0.5-2.8-0.7c-0.4-0.1-0.9,0-1,0.5c-0.1,0.5,0.2,0.8,0.6,0.9
				C333.6,135,334.9,135.3,335.8,135.6"/>
			<path class="st3" d="M351.7,262.7c1.5,0.2,3,0.3,4.4,0.5c2.5,0.3,4.9,0.5,7.4,0.9c1,0.1,1.9,0.4,2.9,0.6c0.9,0.2,1.7,0.3,2.6,0.4
				c0.5,0,0.7,0.2,0.9,0.6c1.6,2.8,3.2,5.7,4.8,8.5c0.9,1.6,1.7,3.2,2.7,4.8c1,1.5,2.2,2.9,3.3,4.3c-0.7,0.4-1.5,0.9-2.3,1.4
				c-0.9,0.5-1.8,0.9-2.7,1.4c-0.8,0.5-1.5,1.1-2.3,1.7c-3.1-5.5-5.9-11.3-8.8-17.1c0,0.1,0,0.2,0,0.3c0,0.1,0.1,0.2,0.1,0.3
				c2.1,5.8,4.7,11.4,7.5,16.9c0.5,1,1.2,1.8,1.9,2.9c-0.9,0.4-1.7,0.8-2.6,1.1c-1.3,0.4-2.6,0.7-3.8,1.1c-0.6,0.2-1.2,0.5-1.9,0.9
				c-1.1-6.2-2.3-12.4-3.4-18.6c-0.1,0-0.1,0-0.2,0c0,0.4,0.1,0.8,0.1,1.2c0.6,5.2,1.2,10.3,2.4,15.4c0.4,1.6,0.9,3.2,1.4,4.8
				c0.2,0.5-0.1,0.9-0.7,0.9c-2,0.1-3.9,0.4-5.7,1c-0.8,0.3-1.6,0.7-2.5,1C355.3,287.6,353.5,275.2,351.7,262.7"/>
			<path class="st5" d="M357.6,358.3c0.2,2,0.3,3.9,0.5,5.8c0.7,7,0,14-1.3,20.9c-1.1,5.9-2.1,11.9-3.1,17.8c0,0.2-0.1,0.5-0.2,0.7
				c-1.4,3.2-1.4,6.5-0.7,9.9c0.4,1.8,0.7,3.6,1.1,5.4c0,0.2,0.1,0.4,0.1,0.8c-3.1-2.2-5.7-1.5-8.1,1.1c0,0-0.1-0.1-0.1-0.1
				c0.1-0.5,0.1-1.1,0.2-1.6c0.3-1.5,0.4-3.1,0.3-4.6c-0.2-6.1-0.3-12.1-0.5-18.2c-0.2-5.5-0.6-10.9-0.8-16.4
				c-0.3-6.6-0.6-13.2-0.9-19.8c0-0.1,0-0.2,0-0.4C348.9,362.2,353.3,361,357.6,358.3"/>
			<path class="st5" d="M330.8,417.5c-0.4,0.2-0.8,0.3-1,0.6c-1,0.9-2,0.7-2.9,0.2c-0.5-0.3-0.9-0.7-1.4-1c-0.7-0.4-1.3-1-2-1.2
				c-0.6-0.2-1.4-0.1-2.1-0.2c-1.2-16.7-2.9-33.6-4.8-50.6c4.5,2.9,9,3.3,13.8,0.9c0.2,1.4,0.3,2.7,0.4,4c0.3,3.3-0.3,6.4-0.9,9.6
				c-1.2,6.4-1.6,12.9-1.3,19.5c0.1,3.1,0.2,6.2,0.3,9.3c0.1,2.9,0.8,5.7,1.8,8.5C330.7,417.2,330.7,417.3,330.8,417.5"/>
			<path class="st6" d="M300.4,268.5c-0.6-1.3-1.3-2.6-1.9-3.9c3-1.2,5.1-3.5,7.6-5.3c6.4-4.5,13.4-7.1,21.2-7.4
				c6.2-0.2,12.4-0.4,18.7,0c4.8,0.3,9.3,1.4,13.6,3.8c2.8,1.6,5.8,2.5,8.9,3.2c0.4,0.1,0.8,0.4,1.3,0.6c-0.3,1.2-0.7,2.5-1.1,3.8
				c-0.3,0-0.7,0-1-0.1c-3.5-1.1-7.2-1.3-10.8-1.7c-6.6-0.7-13.2-1.5-19.9-2c-7.7-0.6-15.4-0.5-23.1,1c-3.4,0.7-6.7,1.7-9.6,3.8
				c-0.7,0.6-1.5,1.2-2.1,1.8C301.7,267,301.1,267.7,300.4,268.5"/>
			<path class="st3" d="M350.6,446.9c-0.7-0.1-1.9-0.2-3.1-0.4c-2.5-0.5-4.4-2-5.8-4.1c-0.1-0.2-0.2-0.5-0.1-0.7
				c1.6-6.1,2.7-12.4,3.9-18.6c0-0.3,0.3-0.6,0.5-0.7c0.8-0.6,1.6-1.2,2.4-1.7c1.2-0.9,2.5-0.9,3.8-0.2c0.8,0.5,1.6,1.1,2.3,1.7
				c0.2,0.2,0.3,0.5,0.4,0.8c0.5,1.5,0.9,3.1,1.4,4.6c1.1,3,1.7,6.1,2.3,9.3c0.4,2.4,0.7,4.9,1.1,7.3c0.1,0.4-0.1,0.6-0.5,0.9
				C356.7,446.5,353.9,446.7,350.6,446.9"/>
			<path class="st3" d="M331.2,418.4c0.4,1.5,0.9,2.9,1.2,4.3c0.2,1.1,0,2.3-0.5,3.4c-0.9,2-1.8,4-2.7,6c-0.6,1.3-1,2.7-1.5,4
				c-1.6,4.5-5.2,7.2-10,7.5c-2.4,0.1-4.8,0.1-7.2-0.4c-0.6-0.1-1.2-0.4-1.7-0.7c-0.3-0.1-0.4-0.4-0.2-0.7c0.3-0.5,0.7-1.1,1-1.6
				c0.5-1,1-2,1.6-2.9c0.8-1.2,1.7-2.3,2.6-3.3c3.5-3.9,5.5-8.4,6.7-13.4c0.1-0.6,0.2-1.2,0.3-1.8c0.2-1.4,1.2-1.9,2.4-1.1
				c0.7,0.4,1.3,1.1,2,1.5c0.7,0.4,1.5,0.8,2.3,1c1.3,0.3,2.4-0.2,3.2-1.3C331,418.7,331,418.6,331.2,418.4"/>
			<path class="st4" d="M327.2,150c1.7,1,3.4,1.9,5,2.9c1.3,0.7,2.6,1,4.1,0.8c2.4-0.3,4.6-1.2,6.6-2.7c0.2-0.1,0.3-0.2,0.6-0.4
				c-0.1,1.1,0.2,2.2-0.8,2.9c-0.6,1.8-1.7,3.5-1,5.5c0.4,1.2,0.9,2.3,1.4,3.5c0.2,0.5,0.1,0.7-0.3,0.9c-2.5,1.2-5.1,1.5-7.8,1.2
				c-2.9-0.3-5.6-1.1-8.2-2.5c-0.9-0.5-1.2-1.3-0.5-2.1c1.4-1.6,1.5-3.4,1.3-5.3c-0.1-1.4-0.3-2.8-0.5-4.3
				C327.2,150.2,327.2,150.1,327.2,150"/>
			<path class="st7" d="M307.2,443.3c1.1,1.1,2.5,1.5,3.9,1.7c3,0.4,6,0.6,9,0c4.3-0.9,7.3-3.4,9-7.4c0.5-1.1,0.8-2.3,1.2-3.4
				c0.1-0.2,0.2-0.4,0.4-0.6c-0.4,2.6-0.8,5.2-1.2,7.9c-0.2,1.6-0.4,3.2-0.8,4.7c-0.3,1.1-0.8,2-1.2,3c-0.3,0.6-0.8,1-1.5,1
				c-4.1,0.5-8.2,1.1-12.4,0.8c-1.6-0.1-3.2-0.3-4.7-1c-1.5-0.6-2.4-1.7-2.2-3.4c0.1-1.1,0.2-2.3,0.3-3.4
				C307,443.4,307.1,443.4,307.2,443.3"/>
			<path class="st3" d="M304.8,266.5c-0.3,0.7-0.4,1.5-0.9,2.2c-2.3,3.6-4.6,7.1-7,10.7c-1.2,1.9-2.5,3.7-3.7,5.5
				c-0.1,0.2-0.2,0.4-0.3,0.7c3.9-4.7,7.7-9.4,10.8-14.7c-1.5,6.9-4.1,13.4-6.5,20c-1.7-2.3-4.2-3.4-6.6-4.9c0.4-0.2,0.7-0.4,1-0.6
				c1.6-0.9,2-1.9,1.1-3.5c-0.4-0.8-1.1-1.5-1.6-2.2c-0.2-0.2-0.4-0.4-0.6-0.7c0.1-0.1,0.1-0.1,0.2-0.2c1.3-0.8,2.6-1.6,3.7-2.5
				c2-1.7,3.9-3.5,5.5-5.6c0.1-0.1,0.3-0.3,0.4-0.2c0.8,0.1,1.1-0.4,1.5-0.9c0.8-1,1.6-2,2.5-2.9c0.1-0.1,0.2-0.1,0.2-0.2
				C304.7,266.4,304.8,266.5,304.8,266.5"/>
			<path class="st7" d="M341,444.1c0.7,0.8,1.4,1.6,2.2,2.3c1.9,1.6,4.2,2.1,6.7,2.2c3.3,0.2,6.6-0.2,9.7-1.9c0,0.6-0.1,1.2-0.1,1.7
				c-0.2,2.7-0.8,3.7-3.4,4.3c-4.4,1.1-8.9,1.1-13.1-0.7c-1-0.4-1.8-1.2-2.6-1.8c-0.5-0.4-0.7-1-0.5-1.7
				C340.3,447,340.7,445.5,341,444.1"/>
			<path class="st1" d="M325.8,157.6c-2.8-4.9-5.8-9.6-7-15.2c-0.4-1.8-0.5-3.7-0.7-5.6c0-0.2,0-0.4,0.1-0.6
				c0.1,0.1,0.1,0.3,0.2,0.4c1.7,4.1,3.9,8,6.9,11.4c0.2,0.2,0.3,0.5,0.4,0.8c0.2,2.2,0.4,4.3,0.5,6.5c0,0.8-0.1,1.5-0.1,2.3
				C326,157.7,325.9,157.6,325.8,157.6"/>
			<path class="st4" d="M382.7,297.2c1.3-0.6,1.6-1.1,1.1-2.3c-0.4-1-1-1.9-1.5-2.8c-0.7-1.4-1.4-2.7-2.2-4.2c1.1-0.1,2-0.2,2.9-0.3
				c0.1,0,0.2,0.1,0.3,0.2c0.9,1.9,1.9,3.7,2.8,5.6c0.5,1.1,0.8,2.3,0.8,3.6c0,0.2,0,0.5-0.1,0.7c-0.3,1.3-1.1,1.6-2.2,0.9
				c-0.4-0.2-0.7-0.5-1-0.8C383.3,297.7,383,297.5,382.7,297.2"/>
			<path class="st4" d="M269.2,177.9c-0.4-0.1-0.7-0.2-0.9-0.3c-1.1-0.5-2.1-1.2-2.8-2.1c-1.4-1.7-2.2-3.6-2.5-5.7
				c-0.1-0.3-0.1-0.7,0-1.1c0-1.2,0.7-1.8,1.9-1.7c0.1,0,0.3,0.2,0.4,0.4c0.7,2.7,1.9,5.2,3.7,7.3c0.1,0.2,0.2,0.4,0.2,0.7
				C269.2,176.2,269.2,177,269.2,177.9"/>
			<path class="st4" d="M382.8,295.8c-1.1,0-2.1,0-3.2-0.2c-0.5-0.1-1-0.6-1.3-1c-0.6-0.9-1-1.9-1.5-2.9c-0.4-1-0.7-2-1.1-3
				c-0.2-0.7,0.2-1.2,1-1.1c0.7,0.1,1.4,0.2,2,0.3c0.2,0,0.4,0.2,0.4,0.4c0.7,1.9,1.6,3.7,2.7,5.4c0.4,0.6,0.7,1.4,1,2
				C382.9,295.7,382.8,295.8,382.8,295.8"/>
			<path class="st4" d="M266.7,167.7c0-0.3,0-0.4,0-0.5c-0.1-1.2,0.4-1.5,1.5-1c0.9,0.4,1.6,1,1.9,1.9c0.2,0.4,0.5,0.8,0.8,1.2
				c0.1,0.2,0.3,0.3,0.3,0.4c0.4,1.2,0.4,2.5-0.1,3.7c-0.3,0.7-0.6,0.8-1.2,0.2c-0.5-0.5-0.9-1.1-1.3-1.7c-0.4-0.7-0.8-1.4-1.2-2
				C267,169.2,266.5,168.5,266.7,167.7"/>
			<path class="st4" d="M388.1,298.6c0.6-2.5-0.2-4.7-1.2-6.9c-0.6-1.3-1.3-2.6-2-3.9c-0.1-0.2-0.2-0.4-0.3-0.7
				c0.8-0.3,1.6-0.6,2.4-0.9c0.7,2.2,1.4,4.4,1.9,6.6c0.4,1.6,0.5,3.3,0.7,4.9c0.1,1.1-0.1,1.2-1.1,0.9
				C388.4,298.7,388.3,298.6,388.1,298.6"/>
			<path class="st6" d="M269.5,164.2c0,0.4-0.1,0.7-0.1,1.1c-0.6-0.2-1.2-0.4-1.7-0.5c-0.7-0.1-1.4,0-1.8,0.7
				c-0.1,0.1-0.3,0.2-0.5,0.2c-0.4,0-0.8,0-1.2,0c-1.4,0.1-2.3,0.9-2.6,2.3c-0.1,0.5-0.3,0.6-0.7,0.7c-1.6,0.3-2.8,1-3.2,2.9
				c-0.3-2.6,1-5,3.5-6.2c2.5-1.2,5.2-1.5,7.9-1.2C269.2,164.1,269.3,164.2,269.5,164.2"/>
			<path class="st1" d="M344.9,151.1c0.1-1.1,0-2,0.7-2.8c2.7-2.9,4.8-6.1,6.6-9.6c0-0.1,0.1-0.1,0.3-0.3c-0.1,1.3-0.2,2.4-0.6,3.5
				c-0.6,1.6-1.5,3.1-2.6,4.4c-1.3,1.5-2.6,2.9-3.9,4.4C345.2,150.8,345.1,150.9,344.9,151.1"/>
			<path class="st4" d="M261.4,169.7c0.4,2.9,1.5,5.4,3.5,7.5c-0.1,0-0.1,0.1-0.1,0c-2.1-0.2-5.1-2.7-5.6-4.8
				c-0.3-1.2,0-1.9,1.2-2.4C260.7,169.9,261,169.8,261.4,169.7"/>
			<path class="st4" d="M388,285.8c0.2-0.1,0.5-0.2,0.7-0.4c0.1,0,0.1,0.1,0.1,0.1c0.9,1.8,1.7,3.6,2.5,5.5c0.6,1.3,0.1,2.4-0.7,3.4
				C389.9,291.6,389,288.8,388,285.8"/>
			<path class="st4" d="M270.6,165.5c0.2-0.4,0-0.9,0.6-1.1c0.8-0.2,1.6,0,1.8,0.5c0.3,0.8,0.6,1.6,0.9,2.4c0,0.1-0.1,0.3-0.1,0.4
				c-0.2,0.3-0.4,0.5-0.6,0.8c-0.6,0.6-0.7,0.6-1.1-0.2c-0.2-0.3-0.4-0.6-0.6-1C271.1,166.8,270.9,166.1,270.6,165.5"/>
			<path class="st4" d="M260,176.5c-1.3-0.3-2.4-0.9-3-2c-0.3-0.6-0.2-1.2,0.2-1.5c0.2-0.2,0.5-0.4,0.7,0.1c0.4,1.2,1.1,2.3,2,3.2
				C259.9,176.2,259.9,176.3,260,176.5"/>
			<path class="st1" d="M350.6,236.7c0-1.4,0-2.9,0-4.3c0.1-4.2,0.1-8.4,1-12.5c0.3-1.5,0.8-2.9,1.2-4.4c0.1-0.5,0.4-0.9,0.7-1.3
				c0.5-0.6,1.1-0.6,1.5,0.1c0.3,0.5,0.5,1.1,0.7,1.6c1.3,4,2.5,8,3.9,12c2.2,6.4,4.7,12.7,7.8,18.7c0.2,0.4,0.4,0.8,0.6,1.2
				c-0.1,0-0.2,0.1-0.2,0.1c-0.3-0.3-0.6-0.6-0.8-1c-1.2-2.2-2.4-4.3-3.4-6.6c-3.3-7.4-5.8-15.1-8-22.8c-0.3-0.9-0.6-1.8-0.9-2.7
				c-0.1-0.2-0.3-0.3-0.4-0.5c-0.2,0.2-0.4,0.3-0.5,0.5c-0.4,0.9-0.7,1.7-1,2.6c-1,3.4-1.3,6.9-1.5,10.5c-0.2,2.9-0.4,5.8-0.6,8.7
				C350.7,236.7,350.7,236.7,350.6,236.7"/>
			<path class="st1" d="M303.2,247.7c0.4-0.9,0.8-1.7,1.3-2.6c3.5-6.9,7-13.7,9.9-20.9c2.1-5.2,3.8-10.6,5.7-15.9
				c0.1-0.3,0.1-0.5,0.3-0.8c0.1-0.1,0.3-0.2,0.4-0.3c0,0.2,0.1,0.3,0.1,0.5c-0.5,1.6-0.9,3.3-1.4,4.9c-2.9,9.8-7.1,19-12,27.9
				c-1.3,2.4-2.7,4.8-4.1,7.3C303.3,247.7,303.3,247.7,303.2,247.7"/>
			<path class="st1" d="M323.9,235.5c0.5-7.3,1-14.5,1.5-22c0.6,1.7-0.2,13.9-1.4,22C324.1,235.5,324,235.5,323.9,235.5"/>
			<path class="st1" d="M296.7,218.9c-1.4-3.5-2.8-7-4.2-10.5c0,0,0.1-0.1,0.1-0.1c0.3,0.3,0.6,0.6,0.8,0.9c1.5,2.2,2.4,4.7,3,7.4
				c0.2,0.8,0.3,1.5,0.4,2.3C296.9,218.9,296.8,218.9,296.7,218.9"/>
			<path class="st1" d="M321.4,351.8c0.1-0.5,0-1.1,0.2-1.5c1-2.1,2-4.1,3-6.1c0.1-0.2,0.3-0.2,0.5-0.4c0,0.2,0.1,0.4,0,0.6
				c-0.8,2-1.5,4.1-2.3,6.1c-0.2,0.6-0.5,1.1-1.2,1.4C321.6,351.8,321.5,351.8,321.4,351.8"/>
			<path class="st1" d="M356.5,341.5c0,0.1,0,0.1,0,0.2c-1.1,2.9-2.5,5.5-5.7,6.6c-0.7,0.2-1.5,0.2-2.3,0.3c-0.1,0-0.2-0.2-0.4-0.2
				c0.1-0.1,0.2-0.3,0.3-0.3c2.8-0.7,4.7-2.6,6.4-4.8c0.5-0.6,1-1.3,1.5-1.9C356.4,341.4,356.4,341.4,356.5,341.5"/>
			<path class="st1" d="M336,145.1c-2.1,0-3.7-0.9-5-2.3c-1-1-1.9-2.2-2.8-3.3c-0.3-0.4-0.3-0.8,0.1-1.1c0.4-0.3,0.8-0.2,1.1,0.2
				c0.4,0.6,0.9,0.7,1.5,0.7c2,0,4.1-0.1,6.1,0c1.4,0,2.9,0.3,4.3,0.4c0.5,0.1,1,0.1,1.4-0.3c0.1-0.1,0.3-0.2,0.4-0.2
				c0.2,0,0.5,0,0.6,0.1c0.1,0.2,0.1,0.5,0,0.7c-1.7,2.6-4.1,4.4-7.2,5C336.3,145.1,336.1,145.1,336,145.1 M330.7,140.8
				c1.4,1.4,2.8,2.9,5,2.9c2.3,0,4-1.4,5.9-2.7C337.9,140.3,334.3,140.6,330.7,140.8"/>
			<path class="st1" d="M335.8,135.6c-0.8-0.2-2.2-0.6-3.5-0.9c-0.4-0.1-0.7-0.4-0.6-0.9c0.1-0.5,0.6-0.6,1-0.5
				c0.9,0.2,1.9,0.5,2.8,0.7c1,0.3,1.9,0.1,2.8-0.6c0.2-0.2,0.6-0.1,0.9-0.2c0,0.3,0,0.7-0.1,0.9
				C338.4,135.1,337.4,135.5,335.8,135.6"/>
			<path class="st8" d="M330.7,140.8c3.6-0.2,7.2-0.5,10.9,0.2c-1.9,1.4-3.6,2.8-5.9,2.7C333.5,143.6,332.1,142.2,330.7,140.8"/>
		</g>
	</g>
</g>
</svg>
