<?xml version="1.0" encoding="utf-8"?>
<!-- Generator: Adobe Illustrator 22.1.0, SVG Export Plug-In . SVG Version: 6.00 Build 0)  -->
<svg version="1.1" id="Слой_2" xmlns="http://www.w3.org/2000/svg" xmlns:xlink="http://www.w3.org/1999/xlink" x="0px" y="0px"
	 viewBox="0 0 690 500" style="enable-background:new 0 0 690 500;" xml:space="preserve">
<style type="text/css">
	.st0{clip-path:url(#SVGID_2_);}
	.st1{clip-path:url(#SVGID_4_);}
	.st2{clip-path:url(#SVGID_4_);fill:#A6C4E2;}
	.st3{clip-path:url(#SVGID_4_);fill:#CCA6E2;}
	.st4{clip-path:url(#SVGID_4_);fill:#E2B0A6;}
	.st5{clip-path:url(#SVGID_4_);fill:#E27BBC;}
	.st6{clip-path:url(#SVGID_4_);fill:#003D87;}
	.st7{clip-path:url(#SVGID_4_);fill:#6F3F8E;}
	.st8{clip-path:url(#SVGID_4_);fill:#FFFFFF;}
	.st9{clip-path:url(#SVGID_6_);}
	.st10{clip-path:url(#SVGID_8_);fill:#F4ABE0;}
	.st11{clip-path:url(#SVGID_8_);}
	.st12{fill:none;stroke:#FFFFFF;stroke-width:0.5;}
	.st13{fill:none;stroke:#D41D00;stroke-width:11;}
	.st14{clip-path:url(#SVGID_10_);}
	.st15{clip-path:url(#SVGID_12_);fill:#F4ABE0;}
	.st16{clip-path:url(#SVGID_12_);}
	.st17{clip-path:url(#SVGID_14_);}
	.st18{clip-path:url(#SVGID_16_);fill:#F4ABE0;}
	.st19{clip-path:url(#SVGID_16_);}
</style>
<g>
	<g>
		<defs>
			<rect id="SVGID_1_" x="-20" y="79.8" width="286.4" height="398.5"/>
		</defs>
		<clipPath id="SVGID_2_">
			<use xlink:href="#SVGID_1_"  style="overflow:visible;"/>
		</clipPath>
		<g class="st0">
			<defs>
				<rect id="SVGID_3_" x="-20" y="79.8" width="286.4" height="398.5"/>
			</defs>
			<clipPath id="SVGID_4_">
				<use xlink:href="#SVGID_3_"  style="overflow:visible;"/>
			</clipPath>
			<path class="st1" d="M88.2,202.8c0.4-0.8,0.8-1.6,1.2-2.3c1.7-3.2,3.4-6.5,5.1-9.7c0.1-0.3,0.3-0.6,0.2-0.9
				c-0.3-3.8,1-7.2,3-10.3c0.9-1.5,2-2.8,3-4.2c1.4-1.9,1.8-3.9,0.7-6c-0.6-1.3-1.3-2.5-2-3.8c-0.4-0.8-0.9-1.7-1.3-2.6
				c-0.8-1.9-0.4-3.8,0.7-5.4c1.6-2.3,3.3-4.7,3.8-7.5c0.5-2.3,0.9-4.7,1.1-7c0.2-1.9,0.1-3.8,0.2-5.7c0.1-2.4,0.2-4.8,0.5-7.2
				c0.3-3.1,0.7-6.1,1.2-9.1c0.9-5.5,3.4-10.1,7.4-13.9c3.9-3.7,8.4-6.7,13.3-8.9c2.6-1.1,5.4-1.7,8.3-1.5c5.9,0.4,11.5,2,16.3,5.5
				c3,2.2,5.3,5.2,7.3,8.4c4.1,6.6,6.4,13.7,6.7,21.5c0.1,3.6,0,7.2-0.1,10.8c0,1.9-0.2,3.8-0.3,5.7c-0.4,4.1-0.4,8.2,0.2,12.2
				c0.2,1.5,0.8,2.8,2.1,3.7c1.3,0.9,2.4,2,3.2,3.4c1.2,2.2,1.1,4.3-0.2,6.3c-0.5,0.7-1,1.4-1.4,2.1c-1.1,1.6-0.9,3.3,0.4,4.7
				c0.8,1,1.6,2,2.3,3.1c1,1.5,1.3,3.2,0.7,4.9c-0.1,0.2,0,0.5,0.1,0.8c4,10.6,6.3,21.7,7.7,33c1.2,10.3,2.3,20.7,3.3,31.1
				c0.1,1.4,0.2,2.7,0.3,4.1c0,0.1,0,0.3,0,0.4c-0.4,1.3,0.3,2.4,1,3.4c1,1.4,2,2.7,3,4.1c2.9,4.5,4.1,9.5,4.2,14.8
				c0,1.5,0,3.1-0.1,4.6c-0.1,2.3-0.9,4.3-2.6,6c0.5,1,1.1,2,1.6,3c0.5,0.9,0.9,1.8,1.3,2.7c0.4,1,0.4,2,0,3
				c-0.3,0.9-0.8,1.7-1.9,1.9c0.1,0.8,0.1,1.5,0.2,2.2c0,0.8,0.1,1.7-0.7,2.2c-0.9,0.5-1.7,0.2-2.5-0.3c-0.1,0-0.1,0-0.2-0.1
				c-1.3,1.3-2.8,1.3-4.5-0.3c-0.5-0.5-0.9-1.2-1.5-1.7c-0.2-0.2-0.5-0.4-0.7-0.4c-2.1,0.1-3.5-0.8-4.3-2.7
				c-0.4-0.9-0.8-1.7-1.2-2.7c-1.8,1.4-3.8,2-6,2.5c-0.7,0.2-1.4,0.4-2.1,0.6c-0.4,0.1-0.5,0.4-0.3,0.8c0.1,0.2,0.1,0.3,0.2,0.5
				c0.6,1.6,0.3,2.4-1.3,2.9c-0.5,0.1-0.6,0.4-0.7,0.8c-1.4,10.8-2.8,21.6-4.2,32.3c-0.6,4.2-1,8.4-1.9,12.5
				c-0.6,2.6-0.5,5.2-0.3,7.8c0.4,5.1,0.8,10.2,1.1,15.3c0.3,4.9-0.3,9.7-1.1,14.6c-1,6-2,12-3.1,18c-0.3,1.6-0.9,3.2-1.3,4.8
				c-0.6,2.4-0.6,4.8-0.1,7.2c0.7,3.5,1.5,7,2.3,10.5c0.4,1.6,1.1,3.2,1.6,4.8c1.3,4.1,2,8.3,2.8,12.5c0.5,2.9,0.4,5.9,0.2,8.8
				c-0.2,2.4-1.4,4-3.7,4.8c-1,0.3-2.1,0.7-3.1,0.8c-3.3,0.4-6.5,0.5-9.8-0.4c-2-0.5-3.8-1.4-5.3-2.9c-1.1-1-1.5-2.2-1.1-3.7
				c1.2-4.8,2.4-9.5,3.4-14.3c1.1-5.3,1.9-10.6,2.9-15.9c0.3-1.6,0.1-3.3,0-4.9c-0.2-6.9-0.3-13.9-0.6-20.8
				c-0.2-5.3-0.5-10.5-0.8-15.8c-0.4-9-0.9-18-0.6-26.9c0-1.2-0.1-2.4-0.3-3.6c-0.8-5.1-1.6-10.2-2.3-15.4
				c-0.7-6.1-1.2-12.1-1.7-18.2c-0.2-2.6-0.2-5.1-0.2-7.7c0-0.5-0.2-0.7-0.6-0.8c-1.2-0.1-2.3-0.2-3.6-0.4c0.1,0.4,0.2,0.7,0.3,0.9
				c0.4,1,0.2,1.6-0.6,2.3c-0.3,0.2-0.4,0.5-0.5,0.9c-0.1,3.4-0.2,6.9-0.4,10.3c-0.4,5.8-0.8,11.5-1.3,17.3c0,0.7,0.1,1.4,0,2
				c-0.1,1.4-0.2,2.8-0.5,4.2c-1.2,5.1-1.3,10.1-0.3,15.2c0.9,4.6,1.4,9.2,2,13.8c0.4,3-0.2,5.9-0.7,8.8c-1.4,7.2-1.8,14.4-1.5,21.7
				c0.1,2.5,0.1,4.9,0.2,7.4c0.1,2.7,0.5,5.4,1.4,7.9c0.4,1.2,1.1,2.3,1.5,3.5c0.8,1.9,1,4,0.7,6c0,0.2,0,0.3-0.1,0.5
				c-1.1,2.6-1.3,5.4-1.7,8.1c-0.6,4-1.1,7.9-1.8,11.9c-0.2,1.4-0.9,2.7-1.5,4c-0.6,1.2-1.6,1.9-2.9,2c-3.9,0.5-7.9,1-11.8,0.8
				c-1.8-0.1-3.6-0.3-5.3-0.9c-0.8-0.3-1.6-0.7-2.3-1.3c-1-0.8-1.6-1.9-1.6-3.2c-0.1-1.7,0.2-3.4,0.8-4.9c0.2-0.4,0.6-0.7,0.9-1
				c0.1-0.1,0.2-0.2,0.3-0.3c0.6-0.9,1.1-1.8,1.7-2.8c0.2-0.3,0.4-0.5,0.5-0.8c0.7-2,2.2-3.5,3.5-5c4.9-5.7,7.2-12.3,6.9-19.8
				c-0.2-4.2-0.6-8.4-0.9-12.7c-0.1-1.2-0.1-2.4-0.3-3.7c-0.2-1.4-0.5-2.7-0.7-4.1c-0.2-1.7-0.4-3.5-0.6-5.2
				c-0.6-5.6-1.2-11.2-1.7-16.8c-0.6-6.7-1.2-13.4-1.7-20.1c-0.2-2.9-0.2-5.8-0.4-8.6c-0.1-1-0.5-2-0.6-3
				c-0.9-6.3-1.8-12.5-2.6-18.8c-0.6-4.6-1.1-9.2-1.6-13.8c0-0.2-0.3-0.5-0.5-0.6c-0.6-0.3-1.3-0.5-1.9-0.8
				c-1.4-0.7-2.1-1.9-2.2-3.4c0-0.2,0-0.5,0-0.7c0-1.2-0.5-1.9-1.7-2.2c-0.9-0.2-1.8-0.3-2.6-0.4c-1.5-0.2-2.9-0.6-3.9-2
				c-0.8-1.1-1-2.3-0.2-3.5c0.4-0.7,0.3-1.2-0.4-1.7c-1.1-0.9-2.3-1.6-3.5-2.4c-0.7-0.4-1.4-0.8-2.1-1.3c-0.9-0.7-0.9-1.6,0-2.3
				c0.4-0.3,0.9-0.6,1.4-0.8c0.7-0.4,0.8-0.6,0.4-1.3c-0.3-0.5-0.7-1-1.1-1.5c-0.5-0.6-1-1.2-1.5-1.9c-0.5-0.7-0.2-1.2,0.5-1.6
				c1.2-0.7,2.6-1.4,3.6-2.4c2-1.8,3.7-3.8,5.6-5.6c0.4-0.4,0.4-0.7,0.1-1.3c-0.5-1-0.9-2.1-1.4-3.2c-0.1-0.2-0.2-0.4-0.3-0.5
				c-0.8-0.3-1.2-0.9-1.4-1.6c-0.3-0.7-0.4-1.5-0.6-2.3c-0.6-3.1-1-6.2-1.1-9.4c-0.1-4.3,0.8-8.4,2.3-12.5c0.4-1.1,0.7-2.2,1-3.1
				c-1,0.1-1.9,0.3-2.8,0.2c-1.4-0.1-2.7-0.5-4-0.8c-7.7-1.9-13.6-6.4-17.9-13.1c-3.9-6.1-6.3-12.7-8.3-19.5
				c-1.6-5.8-3.3-11.6-5-17.4c-0.1-0.5-0.3-0.9-0.5-1.4c-0.3-0.9-0.7-1.7-1.4-2.4c-1.4-1.5-1.8-3.5-1.7-5.5c0-0.4,0-0.7-0.1-1.1
				c-0.2-0.8-0.2-1.5,0.2-2.2c0.1-0.2,0.1-0.5,0.2-0.8c0.1-0.9,0.1-1.9,0.3-2.8c0.5-2.2,1.7-3.9,3.7-4.9c2.9-1.6,6-2,9.3-1.4
				c0.8,0.2,1.7,0.4,2.5,0.3c1.4-0.1,2.2,0.6,2.7,2c0.1,0.3,0.3,0.7,0.6,0.9c1.2,1.4,2.4,2.7,3.6,4.1c1,1.1,1.2,2.4,0.6,3.8
				c-0.2,0.5-0.2,1,0.1,1.5c2.7,6.9,6.1,13.6,9.5,20.2C87.8,202.2,88,202.4,88.2,202.8 M78.2,184.9c-0.4,2.8-0.8,5.8-1.4,8.7
				c-0.6,2.9-1.5,5.7-2.7,8.4c0.8-6.1,2.2-12.1,2.6-18.2c-0.6,0.8-1.1,1.7-1.8,2.4c-0.6,0.7-1.3,1.4-2.4,1.8
				c0.1-0.3,0.2-0.5,0.3-0.7c0.5-1,1.1-1.9,1.7-2.9c0.8-1.6,1.7-3.2,2.4-4.9c0.2-0.4,0.3-1.1,0.1-1.5c-0.9-1.4-1.9-2.7-2.9-4.2
				c-0.3,1.4-1.2,2.2-2.3,2.7c0,0.4,0.1,0.8,0.1,1.3c-0.1,1.7-0.2,3.4-2.1,4.1c-0.1,0.8-0.1,1.7-0.2,2.4c-0.1,1-0.8,1.5-1.8,1.3
				c-0.6-0.1-1.2-0.4-1.8-0.6c-0.2-0.1-0.5-0.1-0.7-0.1c-0.8,0.3-1.7,0.3-2.4,0c-1-0.4-1.9-0.6-3-0.5c-1.3,0.1-2.6-0.5-3.8-1.2
				c0.3,1.6,0.7,3,2,4c0.5,0.4,1,0.8,1.5,1.2c0.2,0.2,0.5,0.4,0.6,0.7c0.3,0.5,0,1-0.6,1c-0.1,0-0.3,0-0.5,0
				c0.3,0.9,0.7,1.7,0.9,2.5c1.6,5.4,3.3,10.8,4.9,16.3c1.9,6.4,4.2,12.6,7.8,18.3c4.6,7.4,11.2,11.8,19.8,13.2
				c0.3,0,0.6,0.1,0.8,0.2c0.7,0.4,1.3,0.2,1.8-0.1c1.1-0.7,1.9-1.6,2.2-2.9c0.9-4.2,1.5-8.5,2-12.8c0.4-3.7,0.9-7.4,1.3-11.1
				c0.1-0.4,0.2-0.9,0.3-1.3c0.1-0.2,0.3-0.3,0.4-0.4c0.1,0.1,0.2,0.3,0.2,0.5c0,0.4,0,0.8,0,1.2c-0.2,3.4-0.4,6.8-0.7,10.2
				c-0.6,7.9-1.8,15.7-4.6,23.1c-2.6,7.1-2,14.2-0.4,21.3c0.2,1.1,0.5,1.3,1.5,0.7c1-0.5,2-1.2,2.9-1.9c2.6-2.1,5.2-4.1,8.2-5.7
				c4.6-2.5,9.4-4.3,14.6-4.7c5.9-0.5,11.9-0.6,17.9-0.5c3.4,0.1,6.8,0.3,10.1,1c3.1,0.7,6,1.9,8.8,3.4c2.8,1.5,5.9,2.3,8.9,3
				c0.1,0,0.2,0,0.3-0.1c1.8-0.9,2.4-2,2-4c-0.2-1.4-0.6-2.9-1-4.2c-2.7-8.8-4.1-17.8-4.1-27c0-9.4,0.4-18.7,1.1-28.1
				c0.1-1.2,0.3-2.3,0.5-3.5c0.1-1,0.3-1.9,0.4-2.9c-1.5,0.8-3,1.6-4.5,2.4c-0.8,0.4-0.9,0.4-0.6,1.3c0.7,1.9,0.4,3.7-0.9,5.2
				c-2.6,3-5.9,4.3-9.9,3.9c-1.7-0.2-3.4-0.5-5.2-0.8c-2.7-0.5-5.5-0.8-8-1.9c-0.1,0-0.2-0.1-0.2-0.1c-0.6,0.2-1-0.2-1.3-0.5
				c-1.6-2.2-1.6-3.8-0.3-5.6c0.6-0.8,1.4-1.6,2-2.5c0.6-0.8,1.3-1.5,1.7-2.3c0.9-1.7,0.8-3.4-0.5-5c-0.8-0.9-1.6-1.9-2.3-2.9
				c-1.8-2.5-1.8-4.7,0-7.3c0.7-1,1.5-1.9,2.2-2.8c0.7-0.8,1.4-1.7,2-2.5c0.3-0.4,0.4-1,0.6-1.5c-0.1,0-0.1-0.1-0.2-0.1
				c-3,1.4-6.1,1.8-9.3,1.3c-3.2-0.5-6.1-1.5-8.9-3.3c-0.4,0.6-0.7,1.1-1,1.7c-0.9,1.3-1.8,2.6-2.5,4c-0.8,1.4-0.6,2.2,0.6,3.3
				c0.6,0.6,1.4,1.1,2,1.6c0.9,0.8,1.8,1.5,2.6,2.3c1.4,1.6,1.7,3.4,0.9,5.4c-0.3,0.7-0.7,1.5-1.1,2.2c-1.1,2-1,2.7,0.6,4.3
				c0.3,0.3,0.7,0.6,1,1c0.3,0.3,0.6,0.6,0.9,0.9c1.1,1.2,1.2,2.3,0.3,3.6c-0.3,0.5-0.8,1-1.2,1.5c-0.3,0.3-0.3,0.6-0.3,1.1
				c0.1,0.7,0.2,1.5,0.1,2.3c0,0.8-0.6,1.2-1.3,1.3c-2.6,0.3-5.3,0.6-7.9,1c-3.8,0.6-7.7,0.8-11.5,0c-2.3-0.5-4.5-1.2-6.2-3
				c-1.4-1.4-1.8-3.1-1.1-5c0.3-0.7,0.5-1.3,0.8-2c0.2-0.5,0.1-0.8-0.4-1c-1.8-0.6-3.3-1.5-4.4-3.2c-0.6,1.1-1.1,2.1-1.7,3.1
				c-1.6,2.8-2.9,5.8-5.1,8.4c2.1,4.1,4.7,7.9,6.4,12.2c-0.2,0-0.4-0.1-0.5-0.2c-0.8-0.9-1.8-1.7-2.5-2.8c-1.7-2.7-3.2-5.4-4.8-8.2
				c-0.1-0.2-0.2-0.4-0.3-0.6c-0.1,0.2,0,0.4,0,0.6c1.8,6.7,3.1,13.5,3.2,20.4c0,1.2,0.1,2.4,0.3,3.6c0.1,1.1,0.6,1.4,1.6,1.2
				c0.4-0.1,0.7-0.3,1-0.5c0.8-0.7,1.5-1.4,2.3-2.1c0.3-0.2,0.5-0.4,0.9-0.7c-0.3,1.2-2.5,3.7-3.5,4.1c-2,0.7-3.3,0.1-3.6-1.9
				c0-0.2-0.1-0.4-0.1-0.6c-0.1-1.9-0.3-3.9-0.4-5.8c-0.5-6-1.5-11.9-2.9-17.7c-0.7-2.8-1.3-5.5-2.5-8.1c-1.7-3.8-3.3-7.7-5-11.5
				C78.2,185,78.2,184.9,78.2,184.9 M138,202.2c0.5,0.2,1,0.3,1.5,0.5c0.9,0.3,1.8,0.7,2.8,0.9c3.2,0.6,6.5,1.2,9.8,1.6
				c3,0.4,5.6-0.5,7.8-2.4c1.5-1.3,2.2-2.9,1.3-4.9c0-0.1-0.1-0.2-0.1-0.2c-0.4-1.2-0.1-1.9,1-2.5c0.9-0.5,1.8-0.8,2.6-1.3
				c1.7-0.9,3.2-2,4.4-3.5c1.4-1.8,1.6-3.4,0.4-5.4c-0.3-0.6-0.8-1.1-1.1-1.6c-0.7-1-1.4-2-2.1-3c-0.8-1.3-0.7-2.7,0.1-4.1
				c0.3-0.4,0.6-0.9,0.8-1.3c0.4-0.7,0.9-1.3,1.3-2c1.1-2,0.2-5-1.8-6.2c-0.1-0.1-0.2-0.1-0.3-0.1c-0.5-0.3-1-0.6-1.4-1
				c-1.1-1.1-1.6-2.4-1.9-3.9c-0.6-2.9-0.6-5.8-0.6-8.7c0.1-5.2,0.2-10.4,0.3-15.6c0-2.5,0.1-5-0.2-7.5c-0.8-7.4-3.4-14.2-7.7-20.3
				c-2.8-3.9-6.1-7.2-10.7-8.9c-2.6-1-5.3-1.7-7.9-2.6c-0.1,0-0.2,0-0.4,0c-3.1,0-6,0.5-8.8,1.8c-4.7,2.2-8.9,5.1-12.7,8.7
				c-3.5,3.4-5.7,7.5-6.7,12.3c-1.1,5.5-1.6,11.1-2.1,16.7c-0.3,3-0.3,6-0.6,9c-0.4,3.5-1.3,6.8-3.4,9.8c-0.8,1.1-1.5,2.3-2.2,3.4
				c-0.6,0.9-0.6,1.7-0.1,2.6c0.9,1.5,1.7,2.9,2.5,4.4c0.5,0.9,0.9,1.9,1.3,2.8c0.8,2,0.6,4-0.6,5.8c-0.7,1.1-1.5,2.2-2.3,3.2
				c-2.1,2.7-3.5,5.7-3.9,9.1c-0.3,2.9,0.8,4.8,3.5,5.9c0.2,0.1,0.4,0.2,0.6,0.2c1.5,0.6,1.9,1.5,1.4,3.1c-0.2,0.6-0.5,1.2-0.7,1.8
				c-0.6,1.5-0.4,2.7,0.9,3.8c0.9,0.7,1.8,1.2,2.8,1.6c2.5,1,5.2,1.3,7.8,1.1c3-0.2,6-0.7,9-1.1c1.4-0.2,2.7-0.3,4.1-0.4
				c0-0.1,0-0.3-0.1-0.4c-0.4-1.2-0.3-2.4,0.5-3.4c0.2-0.3,0.5-0.6,0.8-1c0.8-1,0.8-1.5-0.1-2.4c-0.7-0.7-1.4-1.3-2-2
				c-1.6-1.8-1.8-3.3-0.7-5.5c0.4-0.7,0.7-1.4,1.1-2.1c0.7-1.6,0.5-3-0.7-4.2c-0.7-0.7-1.4-1.2-2.1-1.8c-0.8-0.7-1.7-1.3-2.5-2.1
				c-1.3-1.3-1.6-2.8-0.8-4.5c0.4-0.9,1-1.8,1.5-2.6c0.8-1.4,1.7-2.8,2.6-4.2c0.1-0.2,0.3-0.2,0.4-0.3c-0.1-0.2-0.2-0.4-0.2-0.6
				c0.2-0.8,0-1.6-0.4-2.4c-0.4-0.8-0.8-1.6-1.3-2.4c-1.7-2.8-3.2-5.6-4.4-8.6c-2-5.2-2.8-10.4-1.8-15.9c0.7-3.7,2-7.1,3.5-10.5
				c2-4.4,4.3-8.7,7-12.7c2-2.9,4.7-4.2,8.3-3.6c0.2,0,0.5,0.1,0.7,0.1c-0.6-3.3-0.2-6.5,0.4-9.6c0.3,1.6,0.5,3.2,0.6,4.9
				c0.1,1.6,0,3.3,0,5c0.3,0,0.6,0.1,0.8-0.1c0.8-0.7,1-0.7,1.7,0c7.2,7,12,15.3,14.1,25.1c0.6,2.8,1,5.6,0.8,8.4
				c-0.3,3.5-1.6,6.6-3.8,9.2c-1.7,2-3.5,4-5.4,5.8c-2.1,2-2.6,4.1-1.3,6.7c0.5,1.1,0.9,2.2,1.2,3.3c0.5,1.5,0.3,2.9-0.6,4.2
				c-0.7,1-1.6,2-2.4,3c-0.8,1-1.6,2.1-2.3,3.2c-0.7,1.2-0.7,2.5,0,3.7c0.3,0.5,0.6,1,0.9,1.4c0.6,0.8,1.3,1.6,2,2.4
				c0.7,0.8,1.1,1.8,1.2,2.9c0.2,1.9-0.5,3.6-1.7,5.1c-0.8,1-1.7,2.1-2.6,3.1C137.8,199.6,137.5,200.8,138,202.2 M110.7,272.2
				c0.1,0,0.2,0,0.3,0c0,0.9,0,1.8,0,2.7c-0.4,7.2-1.4,14.4-2.9,21.5c-0.9,4.1-1.9,8.1-2.9,12.1c-0.1,0.5,0,0.8,0.4,1
				c0.2,0.1,0.4,0.3,0.7,0.3c1.7,0.5,3.4,1.1,5.1,1.6c1,0.3,2.1,0.3,3.1,0c0.2-0.1,0.4-0.3,0.5-0.5c0.1-1,0.2-2.1,0.3-3.1
				c0.3-4.5,0.5-9,1-13.5c0.6-5.4,1.4-10.7,2.1-16.1c0.1-1,0.4-2.1,0.5-3.1c0.1,0,0.1,0,0.2,0c-0.9,11-2.1,21.9-2.8,32.7
				c1.4,0.2,2.7,0.3,3.9,0.7c1.3,0.4,1.6,1.8,2.5,2.7c-0.9-13.1-1.7-26.2-2.1-39.3c0.2,0.8,0.4,1.7,0.5,2.6
				c0.4,4.4,0.8,8.8,1.1,13.3c0.5,7.7,1,15.4,1.5,23.2c0,0.4,0.2,0.6,0.6,0.6c1.5,0.1,3,0.4,4.5,0.5c0.7,0,1.5-0.1,2.2-0.2
				c0.4,0,0.5-0.3,0.5-0.7c0-1.9-0.1-3.8,0.1-5.7c0.3-5.8,0.7-11.6,1.1-17.3c0.4-5,1-9.9,1.5-14.9c0.1-1,0.3-1.9,0.4-2.8
				c0.1,0,0.1,0,0.2,0c-0.8,12.6-1.8,25.1-2.3,37.7c2.6-0.1,5.1,0.1,7.3,1.4c-0.6-5.1-1.3-10.3-1.8-15.4c-0.5-5.1-0.6-10.3-0.1-15.5
				c0.1,11.3,1.5,22.4,3.6,33.4c0.2,0,0.4-0.1,0.6-0.1c2.2-0.3,4.4-0.7,6.7-0.9c2.2-0.2,4.4-0.2,6.7-0.3c0.5,0,1.1-0.2,1.6-0.3
				c-0.1-0.3-0.2-0.4-0.3-0.4c-0.6,0.1-0.8-0.3-0.9-0.7c-0.2-0.7-0.4-1.4-0.5-2.1c-0.4-2.2-0.8-4.4-1.1-6.6
				c-1.2-10.3-2.4-20.6-3.6-30.9c0-0.4-0.1-0.7-0.6-0.7c-5.2-0.5-10.3-1.1-15.5-1.4c-6.5-0.4-12.9-0.2-19.3,0.7
				c-3.4,0.5-6.7,1.4-9.7,3.2c-0.7,0.4-1.2,0.8-0.9,1.7c0,0.1,0,0.2,0,0.2c-0.4,2.2-0.7,4.3-1.2,6.5c-1.6,6.9-4.1,13.5-7.1,19.9
				c-0.3,0.7-0.2,1.3,0.3,1.8c0.7,0.8,1.6,1,2.6,1.1c1,0.1,2.1,0.2,3.1,0.5c1.7,0.5,2.6,1.8,2.6,3.5c0,0.4,0,0.7,0.1,1.1
				C107.1,296,109.8,284.3,110.7,272.2 M175.2,250.7c-0.1,0-0.1,0-0.2,0.1c-2.8-7.1-5.1-14.4-7.1-21.9c0,1.4,0,2.7,0,3.9
				c0.2,4.5,0.6,9,1.7,13.4c0.9,3.8,2,7.5,2.9,11.3c0.3,1.1,0.4,2.3,0.4,3.4c0,1.2-0.4,2.3-1.5,3.1c-0.7,0.5-1.1,1-1.2,1.9
				c-0.1,1.1-0.5,2.3-0.7,3.4c-0.1,0.4-0.1,0.8,0.1,1.1c2,3.4,4,6.8,5.9,10.3c1.6,2.9,3.2,5.7,5.6,8c0.8,0.8,0.6,1.4-0.4,2
				c-0.9,0.5-1.7,1-2.5,1.5c0.3,0.2,0.5,0.2,0.7,0.2c2.6,0.1,5-0.8,7.3-1.8c2.1-0.9,3.1-2.6,3.3-4.8c0.2-1.9,0.2-3.9,0.1-5.8
				c-0.1-5.5-1.8-10.5-5.1-14.9c-1-1.3-1.9-2.7-2.8-4c-0.3-0.5-0.4-1.2-0.5-1.8c-0.1-1.4,0-2.9-0.1-4.3c-1.1-12.3-2.3-24.6-4-36.9
				c-1.3-8.9-3.2-17.7-6.2-26.2c-0.1-0.2-0.2-0.4-0.2-0.6c0,0.1,0.1,0.1,0.1,0.2c-0.6,0.5-1.1,0.9-1.7,1.4c-0.1,0.1-0.2,0.2-0.2,0.4
				c-0.3,2.8-0.7,5.6-0.9,8.4c-0.2,4-0.1,8.1-0.3,12.1c-0.1,1.8,0.2,3.5,1.1,5c1.5,2.7,3.1,5.3,4.7,8c0.2,0.3,0.4,0.6,0.5,0.9
				c-0.1,0-0.1,0.1-0.2,0.1c-2.7-2.4-4.7-5.4-6.2-8.7c-0.1,1.7-0.1,3.4-0.1,5.1c0,0.3,0.1,0.5,0.2,0.8c2,6.7,3.9,13.4,5.9,20.1
				C174.4,247,174.8,248.9,175.2,250.7 M113.6,350.7c0,0.2,0,0.4,0,0.6c0.2,2.6,0.5,5.1,0.7,7.7c0.3,3.6,0.7,7.1,1,10.7
				c0,0.4,0,0.8,0.5,1.1c4,2.5,8.2,3,12.6,1.1c0.6-0.3,0.8-0.6,0.7-1.2c-0.6-3.6-1.1-7.3-1.7-10.9c-0.3-2-0.4-4.1-0.2-6.1
				c0-0.6,0.2-1.2,0.1-1.8c-0.2-0.8,0-1.5,0.1-2.3c0.2-0.8,0.4-1.5,0.5-2.3c0.6-5.7,1.2-11.3,1.7-17c0.4-5.2,0.7-10.4,1-15.7
				c0-0.4,0-0.7,0-0.9c-2.3-0.2-4.6-0.5-6.8-0.7c-1.4-0.1-2.5-0.6-3.2-2c-0.7-1.4-2.4-1.9-4-1.4c0,0.5,0,1,0,1.5
				c0,0.7-0.4,1.3-1.1,1.5c-0.3,0.1-0.7,0.3-1.1,0.3c-1.7,0.4-3.3,0-4.9-0.4c-0.2-0.1-0.4-0.1-0.7-0.1c0.3,2.5,0.7,5,1,7.4
				c1.1,7.8,2.1,15.5,3.2,23.3c0.3,2.1,0.7,4.1,1.8,6c0.5,0.9,0.7,1.9,1,2.9c0,0.2,0,0.3,0,0.5c-0.1,0-0.1,0.1-0.2,0.1
				C115,352,114.3,351.4,113.6,350.7 M143,354.3c0,0.1-0.1,0.2-0.1,0.3c0,3.2,0.1,6.3,0.2,9.5c0,0.2,0.2,0.5,0.4,0.7
				c1.3,0.9,2.7,1.4,4.3,1.4c3.2,0.2,5.9-1.1,8.4-2.8c0.2-0.1,0.2-0.5,0.2-0.7c-0.1-1.7-0.3-3.4-0.4-5.1c-0.2-2.1-0.4-4.1,0.4-6.1
				c0.1-0.3,0.2-0.7,0.2-1.1c1-7,2-14.1,3-21.1c1-7.1,2.1-14.2,3.1-21.2c0.1-0.7,0.2-1.4,0.3-2.2c-2,0.3-3.8,0.6-5.5,1.4
				c-0.3,0.2-0.6,0.4-0.9,0.7c0.6,0.6,1.1,1.1,1.6,1.6c0.5,0.6,0.5,1.3-0.1,1.8c-0.5,0.4-1.1,0.7-1.7,0.9c-1,0.2-2,0.2-3,0.3
				c-2.2,0.1-4.4,0.1-6.5,0.3c-1.7,0.1-3.4,0.4-5.1,0.6c-1.2,0.1-2.5-0.4-2.5-1.9c0-0.6-0.4-0.7-0.9-0.8c0,0.2,0,0.3,0,0.5
				c0.2,3.8,0.4,7.5,0.7,11.3c0.8,9.4,2.2,18.7,3.7,27.9c0.2,1.4,0.6,2.6,1.8,3.4c0.2,0.2,0.4,0.5,0.6,0.7c0,0.1-0.1,0.1-0.1,0.2
				C144.4,354.6,143.7,354.4,143,354.3 M119.5,131.4c-0.3,0.7-0.5,1.5-0.8,2.1c-1,2.3-1,4.7-0.2,7.1c1.1,3.3,2.7,6.3,4.5,9.2
				c2.2,3.5,5.3,6.1,9.1,7.8c1.3,0.6,2.6,0.7,3.9,0.3c2.7-0.8,5-2.2,7-4.2c3.7-3.8,6.3-8.3,8.2-13.2c0.1-0.3,0.1-0.6,0.1-0.8
				c-0.5-2.4-1.1-4.8-1.6-7.2c-0.1-0.2-0.2-0.5-0.2-0.7c-0.8,0.2-1.4,0.3-1.9-0.5c0-0.1-0.2-0.1-0.3-0.1c-1.4,0-2.9-0.5-4.2,0.6
				c-0.1,0.1-0.2,0.1-0.3,0.1c-1.4,0.4-2.9,0.4-4.3,0.2c-0.3,0-0.4-0.3-0.2-0.5c0.6-0.4,1.3-1,2-1.2c1.9-0.4,3.8-0.7,5.7-0.9
				c1.1-0.1,2.5-0.2,3,1.3c-0.3-1-0.8-2-1.1-3c-0.3-1-1-1.4-2-1.6c-0.6-0.1-1.2-0.2-1.7-0.1c-1.3,0.1-2.5,0.4-3.8,0.6
				c-0.2,0-0.4-0.1-0.6-0.1c0.1-0.2,0.1-0.4,0.3-0.5c0.8-0.4,1.7-0.9,2.6-1c1.2-0.3,2.4-0.3,3.6-0.4c0,0,0-0.1,0-0.1
				c-2.2-4.2-5-8-8.2-11.5c-0.1-0.2-0.4-0.3-0.6-0.3c-1.1-0.1-2.3-0.2-3.4-0.3c-2.5-0.3-4.5,0.5-6,2.6c-0.2,0.3-0.4,0.5-0.6,0.8
				c-1.7,2.9-3.3,5.8-5,8.6c-0.1,0.2-0.2,0.4-0.3,0.6c0.1,0,0.1,0,0.1,0c0.2-0.1,0.3-0.1,0.5-0.2c1.8-0.7,3.7-0.8,5.5-0.2
				c0.3,0.1,0.7,0.3,1,0.5c0.2,0.2,0.3,0.6,0.2,0.8c-0.1,0.2-0.4,0.4-0.7,0.5c-0.2,0.1-0.4,0-0.6-0.1c-2.3-0.9-4.6-0.3-6.8,0.5
				c-0.1,0-0.2,0.1-0.3,0.2c-0.4,0.9-0.8,1.7-1.3,2.6c0.7-0.1,1.3-0.3,1.9-0.4c0.6-0.1,1.2,0,1.8,0c0.3,0,0.6,0,0.9,0.1
				c2,0.3,4.1,0.4,5.7,1.9c0.1,0.1,0.2,0.3,0.4,0.5c-0.2,0.1-0.3,0.2-0.5,0.2c-0.5,0.1-0.9,0.1-1.4,0.1c-1.2-0.1-2.5,0.1-3.5-1
				c-0.1-0.1-0.2-0.1-0.3-0.1c-1-0.1-2-0.1-3-0.2c-0.2,0-0.5,0.1-0.7,0.2C120.7,131.7,120.4,131.8,119.5,131.4 M150.7,269.1
				c1.8,12.5,3.6,24.9,5.4,37.3c0.8-0.3,1.6-0.7,2.5-1c1.9-0.6,3.8-1,5.7-1c0.6,0,0.9-0.4,0.7-0.9c-0.5-1.6-1.1-3.1-1.4-4.8
				c-1.2-5.1-1.8-10.3-2.4-15.4c0-0.4-0.1-0.8-0.1-1.2c0.1,0,0.1,0,0.2,0c1.1,6.2,2.3,12.4,3.4,18.6c0.7-0.3,1.3-0.7,1.9-0.9
				c1.3-0.4,2.6-0.7,3.8-1.1c0.9-0.3,1.8-0.8,2.6-1.1c-0.7-1-1.4-1.9-1.9-2.9c-2.9-5.5-5.4-11.1-7.5-16.9c0-0.1-0.1-0.2-0.1-0.3
				c0-0.1,0-0.2,0-0.3c2.9,5.8,5.7,11.6,8.8,17.1c0.8-0.6,1.5-1.2,2.3-1.7c0.9-0.5,1.8-0.9,2.7-1.4c0.8-0.5,1.6-0.9,2.3-1.4
				c-1.1-1.5-2.3-2.8-3.3-4.3c-1-1.5-1.8-3.2-2.7-4.8c-1.6-2.8-3.2-5.7-4.8-8.5c-0.2-0.4-0.5-0.5-0.9-0.6c-0.9-0.1-1.7-0.2-2.6-0.4
				c-1-0.2-1.9-0.5-2.9-0.6c-2.4-0.3-4.9-0.6-7.4-0.9C153.7,269.4,152.2,269.2,150.7,269.1 M156.6,364.6c-4.3,2.7-8.7,3.9-13.4,1.3
				c0,0.2,0,0.3,0,0.4c0.3,6.6,0.6,13.2,0.9,19.8c0.3,5.5,0.6,10.9,0.8,16.4c0.2,6.1,0.3,12.1,0.5,18.2c0.1,1.6,0,3.1-0.3,4.6
				c-0.1,0.5-0.1,1.1-0.2,1.6c0,0,0.1,0.1,0.1,0.1c2.4-2.5,5-3.3,8.1-1.1c-0.1-0.4-0.1-0.6-0.1-0.8c-0.4-1.8-0.7-3.6-1.1-5.4
				c-0.7-3.4-0.7-6.7,0.7-9.9c0.1-0.2,0.2-0.5,0.2-0.7c1-5.9,2.1-11.9,3.1-17.8c1.2-6.9,1.9-13.9,1.3-20.9
				C156.9,368.5,156.8,366.6,156.6,364.6 M129.8,423.8c0-0.1-0.1-0.3-0.1-0.4c-1-2.7-1.7-5.6-1.8-8.5c-0.1-3.1-0.1-6.2-0.3-9.3
				c-0.3-6.5,0.2-13,1.3-19.5c0.6-3.2,1.3-6.3,0.9-9.6c-0.1-1.3-0.3-2.6-0.4-4c-4.8,2.4-9.3,2-13.8-0.9c1.9,17,3.6,33.8,4.8,50.6
				c0.7,0,1.5-0.1,2.1,0.2c0.7,0.3,1.3,0.8,2,1.2c0.5,0.3,0.9,0.7,1.4,1c1,0.5,2,0.7,2.9-0.2C129,424.1,129.4,424,129.8,423.8
				 M99.4,274.9c0.7-0.8,1.2-1.6,1.8-2.2c0.6-0.7,1.4-1.3,2.1-1.8c2.9-2.1,6.1-3.2,9.6-3.8c7.6-1.5,15.4-1.6,23.1-1
				c6.6,0.5,13.3,1.2,19.9,2c3.6,0.4,7.3,0.6,10.8,1.7c0.3,0.1,0.7,0.1,1,0.1c0.4-1.3,0.7-2.6,1.1-3.8c-0.5-0.2-0.8-0.5-1.3-0.6
				c-3.1-0.7-6.1-1.6-8.9-3.2c-4.2-2.4-8.8-3.5-13.6-3.8c-6.2-0.4-12.4-0.2-18.7,0c-7.9,0.3-14.9,3-21.2,7.4
				c-2.5,1.8-4.6,4.1-7.6,5.3C98.2,272.3,98.8,273.6,99.4,274.9 M149.6,453.2c3.3-0.1,6.1-0.4,8.6-2c0.4-0.2,0.5-0.5,0.5-0.9
				c-0.4-2.4-0.6-4.9-1.1-7.3c-0.6-3.1-1.2-6.3-2.3-9.3c-0.6-1.5-1-3-1.4-4.6c-0.1-0.3-0.2-0.6-0.4-0.8c-0.7-0.6-1.5-1.2-2.3-1.7
				c-1.3-0.8-2.6-0.7-3.8,0.2c-0.8,0.6-1.6,1.1-2.4,1.7c-0.2,0.2-0.4,0.5-0.5,0.7c-1.2,6.2-2.3,12.5-3.9,18.6
				c-0.1,0.2,0,0.6,0.1,0.7c1.4,2.1,3.2,3.6,5.8,4.1C147.7,453,148.9,453.1,149.6,453.2 M130.2,424.7c-0.2,0.2-0.3,0.3-0.3,0.4
				c-0.8,1.1-1.9,1.6-3.2,1.3c-0.8-0.2-1.6-0.6-2.3-1c-0.7-0.4-1.3-1-2-1.5c-1.2-0.7-2.2-0.2-2.4,1.1c-0.1,0.6-0.2,1.2-0.3,1.8
				c-1.2,5-3.2,9.6-6.7,13.4c-0.9,1-1.8,2.2-2.6,3.3c-0.6,0.9-1.1,1.9-1.6,2.9c-0.3,0.6-0.7,1.1-1,1.6c-0.2,0.3-0.1,0.6,0.2,0.7
				c0.6,0.3,1.1,0.6,1.7,0.7c2.4,0.5,4.8,0.5,7.2,0.4c4.8-0.2,8.4-2.9,10-7.5c0.5-1.3,0.9-2.7,1.5-4c0.8-2,1.7-4,2.7-6
				c0.5-1.1,0.7-2.3,0.5-3.4C131.1,427.6,130.7,426.3,130.2,424.7 M126.2,156.3c0,0.1,0,0.2,0,0.4c0.2,1.4,0.3,2.8,0.5,4.3
				c0.2,1.9,0.1,3.8-1.3,5.3c-0.7,0.8-0.4,1.7,0.5,2.1c2.6,1.3,5.3,2.2,8.2,2.5c2.7,0.3,5.3,0,7.8-1.2c0.4-0.2,0.5-0.4,0.3-0.9
				c-0.5-1.1-0.9-2.3-1.4-3.5c-0.7-2,0.4-3.7,1-5.5c1-0.8,0.6-1.8,0.8-2.9c-0.3,0.2-0.4,0.3-0.6,0.4c-2,1.5-4.2,2.3-6.6,2.7
				c-1.5,0.2-2.8-0.1-4.1-0.8C129.5,158.3,127.9,157.3,126.2,156.3 M106.2,449.7c-0.1,0-0.1,0-0.2,0c-0.1,1.1-0.3,2.3-0.3,3.4
				c-0.1,1.7,0.7,2.8,2.2,3.4c1.5,0.6,3.1,0.9,4.7,1c4.2,0.3,8.3-0.3,12.4-0.8c0.7-0.1,1.2-0.5,1.5-1c0.5-1,1-2,1.2-3
				c0.4-1.5,0.6-3.1,0.8-4.7c0.4-2.6,0.8-5.2,1.2-7.9c-0.2,0.2-0.3,0.4-0.4,0.6c-0.4,1.1-0.7,2.3-1.2,3.4c-1.7,4-4.8,6.6-9,7.4
				c-3,0.6-6,0.4-9,0C108.6,451.2,107.2,450.8,106.2,449.7 M103.8,272.8c-0.1,0-0.1-0.1-0.2-0.1c-0.1,0.1-0.2,0.1-0.2,0.2
				c-0.8,1-1.7,1.9-2.5,2.9c-0.4,0.5-0.8,1-1.5,0.9c-0.1,0-0.3,0.1-0.4,0.2c-1.6,2.1-3.5,3.9-5.5,5.6c-1.2,1-2.5,1.7-3.7,2.5
				c-0.1,0-0.1,0.1-0.2,0.2c0.2,0.2,0.4,0.5,0.6,0.7c0.6,0.7,1.2,1.4,1.6,2.2c0.9,1.6,0.5,2.7-1.1,3.5c-0.3,0.2-0.6,0.3-1,0.6
				c2.4,1.4,4.9,2.5,6.6,4.9c2.5-6.6,5-13.1,6.5-20c-3.1,5.3-6.9,10-10.8,14.7c0-0.3,0.2-0.5,0.3-0.7c1.2-1.8,2.5-3.7,3.7-5.5
				c2.3-3.5,4.7-7.1,7-10.7C103.4,274.4,103.6,273.6,103.8,272.8 M140,450.4c-0.3,1.4-0.7,2.9-1.1,4.4c-0.2,0.7,0,1.3,0.5,1.7
				c0.8,0.7,1.7,1.4,2.6,1.8c4.3,1.9,8.7,1.8,13.1,0.7c2.6-0.6,3.2-1.7,3.4-4.3c0-0.5,0.1-1.1,0.1-1.7c-3.2,1.7-6.4,2-9.7,1.9
				c-2.4-0.1-4.8-0.6-6.7-2.2C141.4,452,140.8,451.2,140,450.4 M124.8,164c0.1,0,0.1,0,0.2,0c0-0.8,0.2-1.5,0.1-2.3
				c-0.1-2.2-0.3-4.3-0.5-6.5c0-0.3-0.2-0.6-0.4-0.8c-3-3.4-5.1-7.3-6.9-11.4c-0.1-0.1-0.1-0.3-0.2-0.4c-0.1,0.2-0.2,0.4-0.1,0.6
				c0.2,1.9,0.4,3.8,0.7,5.6C119,154.4,122,159.1,124.8,164 M181.7,303.6c0.3,0.3,0.6,0.5,0.9,0.7c0.3,0.3,0.7,0.6,1,0.8
				c1.1,0.7,1.9,0.4,2.2-0.9c0.1-0.2,0.1-0.5,0.1-0.7c0-1.3-0.3-2.5-0.8-3.6c-0.9-1.9-1.8-3.8-2.8-5.6c-0.1-0.1-0.2-0.3-0.3-0.2
				c-0.9,0.1-1.8,0.2-2.9,0.3c0.8,1.5,1.5,2.8,2.2,4.2c0.5,0.9,1.1,1.8,1.5,2.8C183.3,302.4,183,303,181.7,303.6 M68.2,184.2
				c0-0.9,0-1.7,0-2.5c0-0.2-0.1-0.5-0.2-0.7c-1.8-2.1-3-4.6-3.7-7.3c0-0.1-0.2-0.3-0.4-0.4c-1.2-0.1-1.9,0.5-1.9,1.7
				c0,0.4,0,0.7,0,1.1c0.3,2.1,1.2,4.1,2.5,5.7c0.8,0.9,1.7,1.6,2.8,2.1C67.6,184.1,67.8,184.1,68.2,184.2 M181.8,302.2
				c0-0.1,0.1-0.2,0.1-0.3c-0.3-0.7-0.6-1.4-1-2c-1.1-1.7-2-3.5-2.7-5.4c-0.1-0.2-0.3-0.4-0.4-0.4c-0.7-0.1-1.3-0.2-2-0.3
				c-0.8-0.1-1.2,0.4-1,1.1c0.3,1,0.7,2.1,1.1,3c0.4,1,0.9,2,1.5,2.9c0.3,0.5,0.8,1,1.3,1C179.6,302.2,180.7,302.2,181.8,302.2
				 M65.7,174c-0.2,0.8,0.3,1.5,0.7,2.3c0.4,0.7,0.7,1.4,1.2,2c0.4,0.6,0.8,1.2,1.3,1.7c0.5,0.6,0.8,0.5,1.2-0.2
				c0.5-1.2,0.5-2.5,0.1-3.7c-0.1-0.2-0.2-0.3-0.3-0.4c-0.3-0.4-0.6-0.8-0.8-1.2c-0.3-1-1-1.5-1.9-1.9c-1.1-0.6-1.5-0.3-1.5,1
				C65.7,173.6,65.7,173.7,65.7,174 M187.1,304.9c0.2,0.1,0.3,0.1,0.4,0.2c1,0.3,1.2,0.2,1.1-0.9c-0.2-1.6-0.3-3.3-0.7-4.9
				c-0.5-2.2-1.3-4.4-1.9-6.6c-0.8,0.3-1.6,0.6-2.4,0.9c0.1,0.3,0.2,0.5,0.3,0.7c0.7,1.3,1.4,2.6,2,3.9
				C186.9,300.2,187.7,302.4,187.1,304.9 M68.5,170.6c-0.2-0.1-0.3-0.1-0.4-0.1c-2.8-0.4-5.4-0.1-7.9,1.2c-2.5,1.2-3.8,3.6-3.5,6.2
				c0.3-1.9,1.6-2.6,3.2-2.9c0.4-0.1,0.6-0.2,0.7-0.7c0.3-1.4,1.2-2.1,2.6-2.3c0.4,0,0.8,0,1.2,0c0.2,0,0.4-0.1,0.5-0.2
				c0.5-0.6,1.1-0.8,1.8-0.7c0.6,0.1,1.1,0.3,1.7,0.5C68.4,171.3,68.4,171,68.5,170.6 M143.9,157.5c0.2-0.2,0.4-0.3,0.5-0.4
				c1.3-1.5,2.7-2.9,3.9-4.4c1.1-1.3,2-2.8,2.6-4.4c0.4-1.1,0.5-2.2,0.6-3.5c-0.2,0.2-0.2,0.3-0.3,0.3c-1.8,3.5-3.9,6.7-6.6,9.6
				C143.8,155.5,143.9,156.4,143.9,157.5 M60.4,176c-0.4,0.1-0.7,0.2-1,0.4c-1.2,0.5-1.5,1.2-1.2,2.4c0.5,2.1,3.5,4.6,5.6,4.8
				c0,0,0,0,0.1,0C61.9,181.5,60.8,179,60.4,176 M187,292.2c0.9,2.9,1.8,5.8,2.7,8.6c0.8-1,1.2-2.1,0.7-3.4
				c-0.8-1.8-1.7-3.6-2.5-5.5c0,0-0.1,0-0.1-0.1C187.5,291.9,187.2,292.1,187,292.2 M69.6,171.8c0.3,0.6,0.5,1.3,0.8,1.9
				c0.2,0.3,0.4,0.6,0.6,1c0.4,0.7,0.5,0.8,1.1,0.2c0.2-0.2,0.4-0.5,0.6-0.8c0.1-0.1,0.2-0.3,0.1-0.4c-0.3-0.8-0.5-1.6-0.9-2.4
				c-0.2-0.5-1.1-0.7-1.8-0.5C69.6,170.9,69.8,171.4,69.6,171.8 M59,182.8c-0.1-0.2-0.1-0.2-0.2-0.3c-0.9-0.9-1.6-1.9-2-3.2
				c-0.1-0.5-0.4-0.3-0.7-0.1c-0.4,0.3-0.5,0.9-0.2,1.5C56.6,182,57.7,182.5,59,182.8"/>
			<path class="st2" d="M78.2,184.9c0,0,0,0,0.1,0.1c1.7,3.8,3.2,7.7,5,11.5c1.2,2.6,1.8,5.4,2.5,8.1c1.5,5.8,2.5,11.7,2.9,17.7
				c0.1,1.9,0.3,3.9,0.4,5.8c0,0.2,0.1,0.4,0.1,0.6c0.4,2,1.6,2.6,3.6,1.9c1-0.4,3.2-2.9,3.5-4.1c-0.3,0.3-0.6,0.5-0.9,0.7
				c-0.8,0.7-1.5,1.4-2.3,2.1c-0.3,0.2-0.7,0.5-1,0.5c-1.1,0.2-1.5-0.1-1.6-1.2c-0.2-1.2-0.2-2.4-0.3-3.6c-0.1-7-1.4-13.7-3.2-20.4
				c0-0.2-0.1-0.4,0-0.6c0.1,0.2,0.2,0.4,0.3,0.6c1.6,2.7,3.1,5.5,4.8,8.2c0.6,1,1.6,1.9,2.5,2.8c0.1,0.1,0.3,0.2,0.5,0.2
				c-1.7-4.3-4.3-8.1-6.4-12.2c2.1-2.5,3.4-5.5,5.1-8.4c0.6-1,1.1-2,1.7-3.1c1,1.8,2.6,2.6,4.4,3.2c0.6,0.2,0.6,0.5,0.4,1
				c-0.3,0.7-0.6,1.3-0.8,2c-0.8,1.9-0.3,3.6,1.1,5c1.7,1.7,3.9,2.5,6.2,3c3.8,0.8,7.7,0.5,11.5,0c2.6-0.4,5.3-0.7,7.9-1
				c0.7-0.1,1.3-0.5,1.3-1.3c0-0.8,0-1.5-0.1-2.3c-0.1-0.4,0-0.7,0.3-1.1c0.4-0.5,0.8-1,1.2-1.5c0.9-1.3,0.8-2.4-0.3-3.6
				c-0.3-0.3-0.6-0.6-0.9-0.9c-0.3-0.3-0.7-0.6-1-1c-1.6-1.6-1.6-2.3-0.6-4.3c0.4-0.7,0.8-1.4,1.1-2.2c0.8-2,0.5-3.8-0.9-5.4
				c-0.8-0.9-1.7-1.6-2.6-2.3c-0.7-0.6-1.4-1.1-2-1.6c-1.2-1.1-1.3-1.9-0.6-3.3c0.8-1.4,1.7-2.7,2.5-4c0.3-0.5,0.7-1.1,1-1.7
				c2.7,1.8,5.7,2.8,8.9,3.3c3.2,0.5,6.3,0.1,9.3-1.3c0.1,0,0.1,0.1,0.2,0.1c-0.2,0.5-0.3,1.1-0.6,1.5c-0.6,0.9-1.3,1.7-2,2.5
				c-0.7,0.9-1.5,1.9-2.2,2.8c-1.8,2.5-1.8,4.7,0,7.3c0.7,1,1.5,1.9,2.3,2.9c1.3,1.6,1.4,3.2,0.5,5c-0.5,0.8-1.1,1.6-1.7,2.3
				c-0.7,0.8-1.4,1.6-2,2.5c-1.3,1.8-1.3,3.4,0.3,5.6c0.3,0.4,0.7,0.7,1.3,0.5c0.1,0,0.2,0,0.2,0.1c2.6,1.1,5.3,1.4,8,1.9
				c1.7,0.3,3.4,0.6,5.2,0.8c4,0.4,7.3-1,9.9-3.9c1.4-1.5,1.6-3.3,0.9-5.2c-0.3-0.9-0.3-0.9,0.6-1.3c1.5-0.8,3-1.6,4.5-2.4
				c-0.1,0.9-0.2,1.9-0.4,2.9c-0.2,1.2-0.4,2.3-0.5,3.5c-0.7,9.3-1.1,18.7-1.1,28.1c0,9.2,1.4,18.2,4.1,27c0.4,1.4,0.7,2.8,1,4.2
				c0.3,2-0.2,3.1-2,4c-0.1,0.1-0.2,0.1-0.3,0.1c-3.1-0.7-6.1-1.4-8.9-3c-2.8-1.5-5.7-2.7-8.8-3.4c-3.3-0.7-6.7-1-10.1-1
				c-6-0.2-11.9-0.1-17.9,0.5c-5.2,0.5-10.1,2.3-14.6,4.7c-2.9,1.6-5.6,3.6-8.2,5.7c-0.9,0.7-1.9,1.4-2.9,1.9
				c-1,0.5-1.3,0.4-1.5-0.7c-1.5-7.1-2.2-14.2,0.4-21.3c2.8-7.5,3.9-15.2,4.6-23.1c0.3-3.4,0.5-6.8,0.7-10.2c0-0.4,0-0.8,0-1.2
				c0-0.2-0.2-0.3-0.2-0.5c-0.1,0.1-0.4,0.2-0.4,0.4c-0.1,0.4-0.3,0.8-0.3,1.3c-0.5,3.7-0.9,7.4-1.3,11.1c-0.5,4.3-1,8.6-2,12.8
				c-0.3,1.3-1.1,2.2-2.2,2.9c-0.6,0.3-1.2,0.5-1.8,0.1c-0.2-0.1-0.5-0.2-0.8-0.2c-8.6-1.4-15.2-5.8-19.8-13.2
				c-3.6-5.7-5.9-11.9-7.8-18.3c-1.6-5.4-3.2-10.9-4.9-16.3c-0.3-0.8-0.6-1.6-0.9-2.5c0.2,0,0.3,0,0.5,0c0.6-0.1,0.9-0.5,0.6-1
				c-0.1-0.3-0.4-0.5-0.6-0.7c-0.5-0.4-1-0.8-1.5-1.2c-1.3-1-1.8-2.4-2-4c1.2,0.8,2.4,1.3,3.8,1.2c1.1-0.1,2,0.1,3,0.5
				c0.8,0.3,1.6,0.3,2.4,0c0.2-0.1,0.5,0,0.7,0.1c0.6,0.2,1.2,0.5,1.8,0.6c0.9,0.2,1.6-0.3,1.8-1.3c0.1-0.8,0.1-1.6,0.2-2.4
				c1.9-0.7,2-2.4,2.1-4.1c0-0.4-0.1-0.8-0.1-1.3c1.1-0.5,2-1.3,2.3-2.7c1,1.5,2,2.8,2.9,4.2c0.2,0.4,0.1,1.1-0.1,1.5
				c-0.8,1.7-1.6,3.3-2.4,4.9c-0.5,1-1.1,1.9-1.7,2.9c-0.1,0.2-0.1,0.3-0.3,0.7c1.1-0.4,1.8-1.1,2.4-1.8c0.6-0.8,1.1-1.6,1.8-2.4
				c-0.4,6.1-1.8,12.1-2.6,18.2c1.2-2.7,2.1-5.5,2.7-8.4C77.4,190.7,77.7,187.8,78.2,184.9 M149.6,243.1c0.1,0,0.1,0,0.2,0
				c0.2-2.9,0.4-5.8,0.6-8.7c0.2-3.5,0.5-7,1.5-10.5c0.3-0.9,0.6-1.8,1-2.6c0.1-0.2,0.3-0.3,0.5-0.5c0.1,0.2,0.3,0.3,0.4,0.5
				c0.3,0.9,0.6,1.8,0.9,2.7c2.2,7.8,4.7,15.4,8,22.8c1,2.2,2.3,4.4,3.4,6.6c0.2,0.4,0.5,0.6,0.8,1c0.1,0,0.2-0.1,0.2-0.1
				c-0.2-0.4-0.4-0.8-0.6-1.2c-3.2-6-5.6-12.3-7.8-18.7c-1.4-4-2.6-8-3.9-12c-0.2-0.6-0.4-1.1-0.7-1.6c-0.4-0.7-1-0.7-1.5-0.1
				c-0.3,0.4-0.6,0.8-0.7,1.3c-0.5,1.4-0.9,2.9-1.2,4.4c-0.9,4.1-0.9,8.3-1,12.5C149.6,240.2,149.6,241.6,149.6,243.1 M102.2,254
				c0,0,0.1,0.1,0.1,0.1c1.4-2.4,2.7-4.8,4.1-7.3c4.9-8.9,9.1-18.1,12-27.9c0.5-1.6,1-3.3,1.4-4.9c0-0.1-0.1-0.3-0.1-0.5
				c-0.1,0.1-0.3,0.2-0.4,0.3c-0.1,0.2-0.2,0.5-0.3,0.8c-1.9,5.3-3.6,10.7-5.7,15.9c-2.9,7.1-6.4,14-9.9,20.9
				C103.1,252.3,102.7,253.2,102.2,254 M122.9,241.8c0.1,0,0.1,0,0.2,0c1.2-8.1,2-20.3,1.4-22C124,227.3,123.5,234.5,122.9,241.8
				 M95.7,225.3c0.1,0,0.2,0,0.3-0.1c-0.1-0.8-0.3-1.5-0.4-2.3c-0.6-2.6-1.5-5.1-3-7.4c-0.2-0.3-0.5-0.6-0.8-0.9
				c0,0-0.1,0.1-0.1,0.1C93,218.3,94.4,221.8,95.7,225.3"/>
			<path class="st1" d="M138,202.2c-0.4-1.4-0.1-2.6,0.8-3.6c0.9-1,1.8-2,2.6-3.1c1.2-1.5,1.8-3.2,1.7-5.1c-0.1-1.1-0.6-2-1.2-2.9
				c-0.6-0.8-1.3-1.6-2-2.4c-0.3-0.4-0.6-0.9-0.9-1.4c-0.7-1.2-0.7-2.5,0-3.7c0.7-1.1,1.5-2.1,2.3-3.2c0.8-1,1.6-1.9,2.4-3
				c0.9-1.3,1.1-2.7,0.6-4.2c-0.4-1.1-0.7-2.3-1.2-3.3c-1.2-2.6-0.8-4.7,1.3-6.7c1.9-1.8,3.7-3.8,5.4-5.8c2.2-2.6,3.5-5.7,3.8-9.2
				c0.2-2.9-0.2-5.7-0.8-8.4c-2.1-9.8-6.9-18.2-14.1-25.1c-0.7-0.7-0.9-0.7-1.7,0c-0.2,0.1-0.5,0.1-0.8,0.1c0-1.7,0.1-3.4,0-5
				c-0.1-1.6-0.3-3.2-0.6-4.9c-0.6,3.2-1,6.4-0.4,9.6c-0.2,0-0.5,0-0.7-0.1c-3.5-0.6-6.3,0.7-8.3,3.6c-2.7,4-5,8.3-7,12.7
				c-1.5,3.4-2.8,6.8-3.5,10.5c-1,5.5-0.2,10.8,1.8,15.9c1.2,3,2.7,5.8,4.4,8.6c0.5,0.8,0.9,1.6,1.3,2.4c0.4,0.7,0.5,1.5,0.4,2.4
				c0,0.2,0.1,0.4,0.2,0.6c0,0-0.3,0.1-0.4,0.3c-0.9,1.4-1.7,2.8-2.6,4.2c-0.5,0.9-1.1,1.7-1.5,2.6c-0.8,1.7-0.5,3.2,0.8,4.5
				c0.8,0.8,1.7,1.4,2.5,2.1c0.7,0.6,1.5,1.2,2.1,1.8c1.2,1.2,1.5,2.7,0.7,4.2c-0.3,0.7-0.7,1.4-1.1,2.1c-1.1,2.2-0.9,3.6,0.7,5.5
				c0.6,0.7,1.3,1.3,2,2c0.9,0.9,0.9,1.3,0.1,2.4c-0.3,0.3-0.5,0.6-0.8,1c-0.8,1-0.9,2.2-0.5,3.4c0,0.1,0.1,0.3,0.1,0.4
				c-1.4,0.2-2.8,0.3-4.1,0.4c-3,0.4-6,0.8-9,1.1c-2.7,0.2-5.3-0.1-7.8-1.1c-1-0.4-2-0.9-2.8-1.6c-1.3-1-1.5-2.2-0.9-3.8
				c0.2-0.6,0.5-1.2,0.7-1.8c0.6-1.6,0.2-2.5-1.4-3.1c-0.2-0.1-0.4-0.2-0.6-0.2c-2.7-1.1-3.8-3-3.5-5.9c0.4-3.4,1.9-6.4,3.9-9.1
				c0.8-1.1,1.6-2.1,2.3-3.2c1.2-1.8,1.4-3.8,0.6-5.8c-0.4-1-0.8-1.9-1.3-2.8c-0.8-1.5-1.7-3-2.5-4.4c-0.5-0.9-0.5-1.8,0.1-2.6
				c0.7-1.1,1.5-2.3,2.2-3.4c2-3,3-6.3,3.4-9.8c0.3-3,0.4-6,0.6-9c0.5-5.6,1-11.2,2.1-16.7c1-4.8,3.2-8.9,6.7-12.3
				c3.7-3.6,8-6.5,12.7-8.7c2.8-1.3,5.8-1.7,8.8-1.8c0.1,0,0.3,0,0.4,0c2.6,0.9,5.3,1.6,7.9,2.6c4.6,1.7,7.9,5,10.7,8.9
				c4.3,6.1,6.9,12.9,7.7,20.3c0.3,2.5,0.2,5,0.2,7.5c-0.1,5.2-0.2,10.4-0.3,15.6c-0.1,2.9,0,5.8,0.6,8.7c0.3,1.5,0.9,2.8,1.9,3.9
				c0.4,0.4,0.9,0.6,1.4,1c0.1,0.1,0.2,0.1,0.3,0.1c2,1.1,2.9,4.1,1.8,6.2c-0.4,0.7-0.9,1.4-1.3,2c-0.3,0.4-0.6,0.9-0.8,1.3
				c-0.8,1.3-0.9,2.7-0.1,4.1c0.6,1.1,1.4,2,2.1,3c0.4,0.5,0.8,1.1,1.1,1.6c1.2,2,1,3.6-0.4,5.4c-1.2,1.5-2.8,2.6-4.4,3.5
				c-0.9,0.5-1.8,0.9-2.6,1.3c-1.2,0.6-1.4,1.3-1,2.5c0,0.1,0,0.2,0.1,0.2c0.9,2,0.2,3.6-1.3,4.9c-2.3,1.9-4.9,2.9-7.8,2.4
				c-3.3-0.5-6.5-1.1-9.8-1.6c-1-0.2-1.9-0.6-2.8-0.9C139,202.5,138.5,202.3,138,202.2"/>
			<path class="st3" d="M110.7,272.2c-1,12-3.6,23.8-6.1,35.6c0-0.4,0-0.7-0.1-1.1c0-1.7-0.9-3-2.6-3.5c-1-0.3-2.1-0.4-3.1-0.5
				c-1-0.1-1.9-0.3-2.6-1.1c-0.5-0.5-0.6-1.1-0.3-1.8c3-6.4,5.5-13,7.1-19.9c0.5-2.1,0.8-4.3,1.2-6.5c0-0.1,0-0.2,0-0.2
				c-0.3-0.9,0.3-1.3,0.9-1.7c3-1.8,6.3-2.7,9.7-3.2c6.4-1,12.9-1.2,19.3-0.7c5.2,0.3,10.3,0.9,15.5,1.4c0.5,0,0.6,0.3,0.6,0.7
				c1.2,10.3,2.4,20.6,3.6,30.9c0.3,2.2,0.7,4.4,1.1,6.6c0.1,0.7,0.3,1.4,0.5,2.1c0.1,0.4,0.3,0.8,0.9,0.7c0.1,0,0.2,0.2,0.3,0.4
				c-0.5,0.1-1.1,0.3-1.6,0.3c-2.2,0.1-4.4,0.1-6.7,0.3c-2.2,0.2-4.4,0.6-6.7,0.9c-0.2,0-0.3,0.1-0.6,0.1
				c-2.1-11.1-3.5-22.2-3.6-33.4c-0.5,5.2-0.4,10.3,0.1,15.5c0.5,5.1,1.2,10.2,1.8,15.4c-2.1-1.2-4.6-1.5-7.3-1.4
				c0.5-12.6,1.5-25.2,2.3-37.7c-0.1,0-0.1,0-0.2,0c-0.1,0.9-0.3,1.9-0.4,2.8c-0.5,5-1.1,9.9-1.5,14.9c-0.5,5.8-0.8,11.5-1.1,17.3
				c-0.1,1.9-0.1,3.8-0.1,5.7c0,0.4-0.1,0.6-0.5,0.7c-0.7,0.1-1.5,0.2-2.2,0.2c-1.5-0.1-3-0.3-4.5-0.5c-0.4,0-0.6-0.2-0.6-0.6
				c-0.5-7.7-0.9-15.5-1.5-23.2c-0.3-4.4-0.7-8.9-1.1-13.3c-0.1-0.9-0.3-1.7-0.5-2.6c0.4,13.1,1.2,26.2,2.1,39.3
				c-0.9-0.9-1.2-2.3-2.5-2.7c-1.2-0.4-2.5-0.4-3.9-0.7c0.7-10.8,1.9-21.8,2.8-32.7c-0.1,0-0.1,0-0.2,0c-0.2,1-0.4,2.1-0.5,3.1
				c-0.7,5.4-1.5,10.7-2.1,16.1c-0.5,4.5-0.7,9-1,13.5c-0.1,1.1-0.2,2.1-0.3,3.1c0,0.2-0.3,0.4-0.5,0.5c-1,0.4-2.1,0.3-3.1,0
				c-1.7-0.5-3.4-1-5.1-1.6c-0.2-0.1-0.4-0.2-0.7-0.3c-0.4-0.2-0.5-0.5-0.4-1c1-4,2.1-8,2.9-12.1c1.5-7.1,2.5-14.3,2.9-21.5
				c0-0.9,0-1.8,0-2.7C111,272.2,110.8,272.2,110.7,272.2"/>
			<path class="st2" d="M175.2,250.7c-0.5-1.8-0.9-3.6-1.4-5.4c-1.9-6.7-3.9-13.4-5.9-20.1c-0.1-0.3-0.2-0.5-0.2-0.8
				c0-1.7,0-3.4,0.1-5.1c1.5,3.3,3.6,6.2,6.2,8.7c0.1,0,0.1-0.1,0.2-0.1c-0.2-0.3-0.4-0.6-0.5-0.9c-1.6-2.7-3.1-5.3-4.7-8
				c-0.9-1.5-1.2-3.2-1.1-5c0.2-4,0.1-8.1,0.3-12.1c0.1-2.8,0.6-5.6,0.9-8.4c0-0.1,0.1-0.3,0.2-0.4c0.6-0.5,1.1-0.9,1.7-1.4
				c0-0.1-0.1-0.1-0.1-0.2c0.1,0.2,0.2,0.4,0.2,0.6c3,8.5,4.9,17.3,6.2,26.2c1.8,12.2,2.9,24.6,4,36.9c0.1,1.4,0,2.9,0.1,4.3
				c0,0.6,0.2,1.3,0.5,1.8c0.9,1.4,1.8,2.7,2.8,4c3.3,4.4,4.9,9.4,5.1,14.9c0,1.9,0.1,3.9-0.1,5.8c-0.2,2.1-1.1,3.8-3.3,4.8
				c-2.3,1-4.7,1.9-7.3,1.8c-0.2,0-0.4,0-0.7-0.2c0.8-0.5,1.7-1,2.5-1.5c1-0.5,1.1-1.2,0.4-2c-2.4-2.3-4-5.1-5.6-8
				c-1.9-3.5-4-6.9-5.9-10.3c-0.2-0.3-0.2-0.8-0.1-1.1c0.2-1.1,0.6-2.3,0.7-3.4c0.1-0.9,0.5-1.5,1.2-1.9c1.1-0.7,1.5-1.8,1.5-3.1
				c0-1.2-0.2-2.3-0.4-3.4c-0.9-3.8-2-7.5-2.9-11.3c-1.1-4.4-1.5-8.9-1.7-13.4c-0.1-1.3,0-2.5,0-3.9c2,7.5,4.3,14.8,7.1,21.9
				C175.1,250.7,175.2,250.7,175.2,250.7"/>
			<path class="st4" d="M113.6,350.7c0.7,0.7,1.4,1.3,2.1,1.9c0.1,0,0.1-0.1,0.2-0.1c0-0.2,0-0.3,0-0.5c-0.3-1-0.5-2-1-2.9
				c-1-1.9-1.5-3.9-1.8-6c-1.1-7.8-2.2-15.5-3.2-23.3c-0.3-2.4-0.7-4.8-1-7.4c0.3,0.1,0.5,0.1,0.7,0.1c1.6,0.4,3.2,0.8,4.9,0.4
				c0.4-0.1,0.7-0.2,1.1-0.3c0.7-0.3,1.1-0.8,1.1-1.5c0-0.5,0-1,0-1.5c1.6-0.5,3.3,0,4,1.4c0.7,1.4,1.8,1.9,3.2,2
				c2.2,0.2,4.5,0.4,6.8,0.7c0,0.2,0,0.5,0,0.9c-0.3,5.2-0.6,10.4-1,15.7c-0.5,5.7-1.1,11.4-1.7,17c-0.1,0.8-0.3,1.5-0.5,2.3
				c-0.2,0.7-0.3,1.5-0.1,2.3c0.1,0.6,0,1.2-0.1,1.8c-0.1,2.1-0.1,4.1,0.2,6.1c0.6,3.6,1.1,7.3,1.7,10.9c0.1,0.7-0.1,1-0.7,1.2
				c-4.4,1.9-8.6,1.4-12.6-1.1c-0.4-0.3-0.4-0.7-0.5-1.1c-0.3-3.6-0.7-7.1-1-10.7c-0.2-2.6-0.5-5.1-0.7-7.7
				C113.7,351.1,113.6,350.9,113.6,350.7 M120.4,358.1c0.1,0,0.2,0,0.3,0.1c0.6-0.3,0.9-0.8,1.2-1.4c0.8-2,1.5-4.1,2.3-6.1
				c0.1-0.2,0-0.4,0-0.6c-0.2,0.1-0.4,0.2-0.5,0.4c-1,2-2,4.1-3,6.1C120.4,357,120.4,357.6,120.4,358.1"/>
			<path class="st4" d="M143,354.3c0.7,0.1,1.4,0.3,2,0.4c0-0.1,0.1-0.1,0.1-0.2c-0.2-0.2-0.4-0.5-0.6-0.7c-1.2-0.8-1.6-2-1.8-3.4
				c-1.5-9.3-2.9-18.6-3.7-27.9c-0.3-3.8-0.5-7.5-0.7-11.3c0-0.1,0-0.3,0-0.5c0.5,0.1,1,0.2,0.9,0.8c-0.1,1.5,1.2,2.1,2.5,1.9
				c1.7-0.2,3.4-0.5,5.1-0.6c2.2-0.2,4.4-0.2,6.5-0.3c1,0,2-0.1,3-0.3c0.6-0.1,1.2-0.5,1.7-0.9c0.6-0.5,0.6-1.1,0.1-1.8
				c-0.5-0.6-1-1-1.6-1.6c0.3-0.2,0.6-0.5,0.9-0.7c1.7-0.8,3.5-1.2,5.5-1.4c-0.1,0.8-0.2,1.5-0.3,2.2c-1,7.1-2.1,14.2-3.1,21.2
				c-1,7-2,14-3,21.1c-0.1,0.4-0.1,0.7-0.2,1.1c-0.7,2-0.6,4-0.4,6.1c0.2,1.7,0.3,3.4,0.4,5.1c0,0.2-0.1,0.6-0.2,0.7
				c-2.5,1.8-5.2,3-8.4,2.8c-1.6-0.1-3-0.6-4.3-1.4c-0.2-0.1-0.4-0.4-0.4-0.7c-0.1-3.2-0.1-6.3-0.2-9.5
				C142.9,354.5,143,354.4,143,354.3 M155.5,347.8c0,0-0.1-0.1-0.1-0.1c-0.5,0.6-1,1.3-1.5,1.9c-1.7,2.1-3.6,4.1-6.4,4.8
				c-0.1,0-0.2,0.2-0.3,0.3c0.1,0.1,0.3,0.3,0.4,0.2c0.8-0.1,1.5-0.1,2.3-0.3c3.2-1.1,4.6-3.7,5.7-6.6
				C155.5,347.9,155.5,347.9,155.5,347.8"/>
			<path class="st4" d="M119.5,131.4c1,0.4,1.3,0.3,1.9-0.3c0.2-0.2,0.4-0.2,0.7-0.2c1,0,2,0.1,3,0.2c0.1,0,0.3,0,0.3,0.1
				c0.9,1.1,2.2,0.9,3.5,1c0.4,0,0.9,0,1.4-0.1c0.2,0,0.3-0.2,0.5-0.2c-0.1-0.2-0.2-0.3-0.4-0.5c-1.6-1.4-3.7-1.5-5.7-1.9
				c-0.3,0-0.6-0.1-0.9-0.1c-0.6,0-1.2-0.1-1.8,0c-0.6,0.1-1.2,0.2-1.9,0.4c0.4-0.9,0.8-1.8,1.3-2.6c0-0.1,0.2-0.1,0.3-0.2
				c2.2-0.9,4.4-1.4,6.8-0.5c0.2,0.1,0.4,0.1,0.6,0.1c0.3-0.1,0.6-0.2,0.7-0.5c0.1-0.2,0-0.6-0.2-0.8c-0.3-0.2-0.6-0.4-1-0.5
				c-1.9-0.6-3.7-0.5-5.5,0.2c-0.2,0.1-0.3,0.1-0.5,0.2c0,0,0,0-0.1,0c0.1-0.2,0.2-0.4,0.3-0.6c1.7-2.9,3.3-5.8,5-8.6
				c0.2-0.3,0.4-0.5,0.6-0.8c1.5-2.1,3.5-2.9,6-2.6c1.1,0.1,2.3,0.2,3.4,0.3c0.2,0,0.5,0.1,0.6,0.3c3.2,3.5,6,7.3,8.2,11.5
				c0,0.1,0,0.2,0,0.1c-1.2,0.1-2.4,0.1-3.6,0.4c-0.9,0.2-1.7,0.7-2.6,1c-0.1,0.1-0.2,0.3-0.3,0.5c0.2,0,0.4,0.1,0.6,0.1
				c1.3-0.2,2.5-0.5,3.8-0.6c0.6-0.1,1.2,0,1.7,0.1c0.9,0.2,1.6,0.7,2,1.6c0.3,1,0.8,2,1.1,3c-0.5-1.6-1.9-1.4-3-1.3
				c-1.9,0.2-3.8,0.5-5.7,0.9c-0.7,0.2-1.4,0.7-2,1.2c-0.3,0.2-0.2,0.5,0.2,0.5c1.4,0.2,2.9,0.2,4.3-0.2c0.1,0,0.2-0.1,0.3-0.1
				c1.3-1.1,2.8-0.6,4.2-0.6c0.1,0,0.2,0.1,0.3,0.1c0.4,0.7,1.1,0.7,1.9,0.5c0.1,0.2,0.2,0.5,0.2,0.7c0.6,2.4,1.1,4.8,1.6,7.2
				c0.1,0.3,0,0.6-0.1,0.8c-1.9,4.9-4.5,9.4-8.2,13.2c-1.9,2-4.3,3.4-7,4.2c-1.4,0.4-2.6,0.3-3.9-0.3c-3.8-1.7-6.9-4.2-9.1-7.8
				c-1.8-2.9-3.5-5.9-4.5-9.2c-0.8-2.4-0.8-4.7,0.2-7.1C119,132.8,119.2,132.1,119.5,131.4 M135,151.4c0.1,0,0.4,0,0.6,0
				c3.1-0.6,5.5-2.4,7.2-5c0.1-0.2,0.1-0.5,0-0.7c-0.1-0.1-0.4-0.1-0.6-0.1c-0.2,0-0.3,0.1-0.4,0.2c-0.4,0.4-0.9,0.3-1.4,0.3
				c-1.4-0.2-2.9-0.4-4.3-0.4c-2-0.1-4.1,0-6.1,0c-0.6,0-1.2-0.1-1.5-0.7c-0.2-0.4-0.7-0.5-1.1-0.2c-0.4,0.3-0.4,0.7-0.1,1.1
				c0.9,1.1,1.7,2.3,2.8,3.3C131.3,150.5,132.8,151.5,135,151.4 M134.8,141.9c1.7,0,2.6-0.4,3.2-1.4c0.2-0.2,0.1-0.6,0.1-0.9
				c-0.3,0-0.7,0-0.9,0.2c-0.8,0.6-1.7,0.8-2.8,0.6c-0.9-0.2-1.9-0.5-2.8-0.7c-0.4-0.1-0.9,0-1,0.5c-0.1,0.5,0.2,0.8,0.6,0.9
				C132.6,141.4,133.9,141.7,134.8,141.9"/>
			<path class="st3" d="M150.7,269.1c1.5,0.2,3,0.3,4.4,0.5c2.5,0.3,4.9,0.5,7.4,0.9c1,0.1,1.9,0.4,2.9,0.6c0.9,0.2,1.7,0.3,2.6,0.4
				c0.5,0,0.7,0.2,0.9,0.6c1.6,2.8,3.2,5.7,4.8,8.5c0.9,1.6,1.7,3.2,2.7,4.8c1,1.5,2.2,2.9,3.3,4.3c-0.7,0.4-1.5,0.9-2.3,1.4
				c-0.9,0.5-1.8,0.9-2.7,1.4c-0.8,0.5-1.5,1.1-2.3,1.7c-3.1-5.5-5.9-11.3-8.8-17.1c0,0.1,0,0.2,0,0.3c0,0.1,0.1,0.2,0.1,0.3
				c2.1,5.8,4.7,11.4,7.5,16.9c0.5,1,1.2,1.8,1.9,2.9c-0.9,0.4-1.7,0.8-2.6,1.1c-1.3,0.4-2.6,0.7-3.8,1.1c-0.6,0.2-1.2,0.5-1.9,0.9
				c-1.1-6.2-2.3-12.4-3.4-18.6c-0.1,0-0.1,0-0.2,0c0,0.4,0.1,0.8,0.1,1.2c0.6,5.2,1.2,10.3,2.4,15.4c0.4,1.6,0.9,3.2,1.4,4.8
				c0.2,0.5-0.1,0.9-0.7,0.9c-2,0.1-3.9,0.4-5.7,1c-0.8,0.3-1.6,0.7-2.5,1C154.3,294,152.5,281.6,150.7,269.1"/>
			<path class="st5" d="M156.6,364.6c0.2,2,0.3,3.9,0.5,5.8c0.7,7,0,14-1.3,20.9c-1.1,5.9-2.1,11.9-3.1,17.8c0,0.2-0.1,0.5-0.2,0.7
				c-1.4,3.2-1.4,6.5-0.7,9.9c0.4,1.8,0.7,3.6,1.1,5.4c0,0.2,0.1,0.4,0.1,0.8c-3.1-2.2-5.7-1.5-8.1,1.1c0,0-0.1-0.1-0.1-0.1
				c0.1-0.5,0.1-1.1,0.2-1.6c0.3-1.5,0.4-3.1,0.3-4.6c-0.2-6.1-0.3-12.1-0.5-18.2c-0.2-5.5-0.6-10.9-0.8-16.4
				c-0.3-6.6-0.6-13.2-0.9-19.8c0-0.1,0-0.2,0-0.4C147.9,368.5,152.3,367.4,156.6,364.6"/>
			<path class="st5" d="M129.8,423.8c-0.4,0.2-0.8,0.3-1,0.6c-1,0.9-2,0.7-2.9,0.2c-0.5-0.3-0.9-0.7-1.4-1c-0.7-0.4-1.3-1-2-1.2
				c-0.6-0.2-1.4-0.1-2.1-0.2c-1.2-16.7-2.9-33.6-4.8-50.6c4.5,2.9,9,3.3,13.8,0.9c0.2,1.4,0.3,2.7,0.4,4c0.3,3.3-0.3,6.4-0.9,9.6
				c-1.2,6.4-1.6,12.9-1.3,19.5c0.1,3.1,0.2,6.2,0.3,9.3c0.1,2.9,0.8,5.7,1.8,8.5C129.7,423.5,129.7,423.7,129.8,423.8"/>
			<path class="st6" d="M99.4,274.9c-0.6-1.3-1.3-2.6-1.9-3.9c3-1.2,5.1-3.5,7.6-5.3c6.4-4.5,13.4-7.1,21.2-7.4
				c6.2-0.2,12.4-0.4,18.7,0c4.8,0.3,9.3,1.4,13.6,3.8c2.8,1.6,5.8,2.5,8.9,3.2c0.4,0.1,0.8,0.4,1.3,0.6c-0.3,1.2-0.7,2.5-1.1,3.8
				c-0.3,0-0.7,0-1-0.1c-3.5-1.1-7.2-1.3-10.8-1.7c-6.6-0.7-13.2-1.5-19.9-2c-7.7-0.6-15.4-0.5-23.1,1c-3.4,0.7-6.7,1.7-9.6,3.8
				c-0.7,0.6-1.5,1.2-2.1,1.8C100.7,273.3,100.1,274.1,99.4,274.9"/>
			<path class="st3" d="M149.6,453.2c-0.7-0.1-1.9-0.2-3.1-0.4c-2.5-0.5-4.4-2-5.8-4.1c-0.1-0.2-0.2-0.5-0.1-0.7
				c1.6-6.1,2.7-12.4,3.9-18.6c0-0.3,0.3-0.6,0.5-0.7c0.8-0.6,1.6-1.2,2.4-1.7c1.2-0.9,2.5-0.9,3.8-0.2c0.8,0.5,1.6,1.1,2.3,1.7
				c0.2,0.2,0.3,0.5,0.4,0.8c0.5,1.5,0.9,3.1,1.4,4.6c1.1,3,1.7,6.1,2.3,9.3c0.4,2.4,0.7,4.9,1.1,7.3c0.1,0.4-0.1,0.6-0.5,0.9
				C155.7,452.8,152.9,453.1,149.6,453.2"/>
			<path class="st3" d="M130.2,424.7c0.4,1.5,0.9,2.9,1.2,4.3c0.2,1.1,0,2.3-0.5,3.4c-0.9,2-1.8,4-2.7,6c-0.6,1.3-1,2.7-1.5,4
				c-1.6,4.5-5.2,7.2-10,7.5c-2.4,0.1-4.8,0.1-7.2-0.4c-0.6-0.1-1.2-0.4-1.7-0.7c-0.3-0.1-0.4-0.4-0.2-0.7c0.3-0.5,0.7-1.1,1-1.6
				c0.5-1,1-2,1.6-2.9c0.8-1.2,1.7-2.3,2.6-3.3c3.5-3.9,5.5-8.4,6.7-13.4c0.1-0.6,0.2-1.2,0.3-1.8c0.2-1.4,1.2-1.9,2.4-1.1
				c0.7,0.4,1.3,1.1,2,1.5c0.7,0.4,1.5,0.8,2.3,1c1.3,0.3,2.4-0.2,3.2-1.3C130,425,130,425,130.2,424.7"/>
			<path class="st4" d="M126.2,156.3c1.7,1,3.4,1.9,5,2.9c1.3,0.7,2.6,1,4.1,0.8c2.4-0.3,4.6-1.2,6.6-2.7c0.2-0.1,0.3-0.2,0.6-0.4
				c-0.1,1.1,0.2,2.2-0.8,2.9c-0.6,1.8-1.7,3.5-1,5.5c0.4,1.2,0.9,2.3,1.4,3.5c0.2,0.5,0.1,0.7-0.3,0.9c-2.5,1.2-5.1,1.5-7.8,1.2
				c-2.9-0.3-5.6-1.1-8.2-2.5c-0.9-0.5-1.2-1.3-0.5-2.1c1.4-1.6,1.5-3.4,1.3-5.3c-0.1-1.4-0.3-2.8-0.5-4.3
				C126.2,156.6,126.2,156.4,126.2,156.3"/>
			<path class="st7" d="M106.2,449.7c1.1,1.1,2.5,1.5,3.9,1.7c3,0.4,6,0.6,9,0c4.3-0.9,7.3-3.4,9-7.4c0.5-1.1,0.8-2.3,1.2-3.4
				c0.1-0.2,0.2-0.4,0.4-0.6c-0.4,2.6-0.8,5.2-1.2,7.9c-0.2,1.6-0.4,3.2-0.8,4.7c-0.3,1.1-0.8,2-1.2,3c-0.3,0.6-0.8,1-1.5,1
				c-4.1,0.5-8.2,1.1-12.4,0.8c-1.6-0.1-3.2-0.3-4.7-1c-1.5-0.6-2.4-1.7-2.2-3.4c0.1-1.1,0.2-2.3,0.3-3.4
				C106,449.7,106.1,449.7,106.2,449.7"/>
			<path class="st3" d="M103.8,272.8c-0.3,0.7-0.4,1.5-0.9,2.2c-2.3,3.6-4.6,7.1-7,10.7c-1.2,1.9-2.5,3.7-3.7,5.5
				c-0.1,0.2-0.2,0.4-0.3,0.7c3.9-4.7,7.7-9.4,10.8-14.7c-1.5,6.9-4.1,13.4-6.5,20c-1.7-2.3-4.2-3.4-6.6-4.9c0.4-0.2,0.7-0.4,1-0.6
				c1.6-0.9,2-1.9,1.1-3.5c-0.4-0.8-1.1-1.5-1.6-2.2c-0.2-0.2-0.4-0.4-0.6-0.7c0.1-0.1,0.1-0.1,0.2-0.2c1.3-0.8,2.6-1.6,3.7-2.5
				c2-1.7,3.9-3.5,5.5-5.6c0.1-0.1,0.3-0.3,0.4-0.2c0.8,0.1,1.1-0.4,1.5-0.9c0.8-1,1.6-2,2.5-2.9c0.1-0.1,0.2-0.1,0.2-0.2
				C103.7,272.8,103.8,272.8,103.8,272.8"/>
			<path class="st7" d="M140,450.4c0.7,0.8,1.4,1.6,2.2,2.3c1.9,1.6,4.2,2.1,6.7,2.2c3.3,0.2,6.6-0.2,9.7-1.9c0,0.6-0.1,1.2-0.1,1.7
				c-0.2,2.7-0.8,3.7-3.4,4.3c-4.4,1.1-8.9,1.1-13.1-0.7c-1-0.4-1.8-1.2-2.6-1.8c-0.5-0.4-0.7-1-0.5-1.7
				C139.3,453.4,139.7,451.9,140,450.4"/>
			<path class="st1" d="M124.8,164c-2.8-4.9-5.8-9.6-7-15.2c-0.4-1.8-0.5-3.7-0.7-5.6c0-0.2,0-0.4,0.1-0.6c0.1,0.1,0.1,0.3,0.2,0.4
				c1.7,4.1,3.9,8,6.9,11.4c0.2,0.2,0.3,0.5,0.4,0.8c0.2,2.2,0.4,4.3,0.5,6.5c0,0.8-0.1,1.5-0.1,2.3C125,164,124.9,164,124.8,164"/>
			<path class="st4" d="M181.7,303.6c1.3-0.6,1.6-1.1,1.1-2.3c-0.4-1-1-1.9-1.5-2.8c-0.7-1.4-1.4-2.7-2.2-4.2c1.1-0.1,2-0.2,2.9-0.3
				c0.1,0,0.2,0.1,0.3,0.2c0.9,1.9,1.9,3.7,2.8,5.6c0.5,1.1,0.8,2.3,0.8,3.6c0,0.2,0,0.5-0.1,0.7c-0.3,1.3-1.1,1.6-2.2,0.9
				c-0.4-0.2-0.7-0.5-1-0.8C182.3,304.1,182,303.9,181.7,303.6"/>
			<path class="st4" d="M68.2,184.2c-0.4-0.1-0.7-0.2-0.9-0.3c-1.1-0.5-2.1-1.2-2.8-2.1c-1.4-1.7-2.2-3.6-2.5-5.7
				c-0.1-0.3-0.1-0.7,0-1.1c0-1.2,0.7-1.8,1.9-1.7c0.1,0,0.3,0.2,0.4,0.4c0.7,2.7,1.9,5.2,3.7,7.3c0.1,0.2,0.2,0.4,0.2,0.7
				C68.2,182.5,68.2,183.3,68.2,184.2"/>
			<path class="st4" d="M181.8,302.2c-1.1,0-2.1,0-3.2-0.2c-0.5-0.1-1-0.6-1.3-1c-0.6-0.9-1-1.9-1.5-2.9c-0.4-1-0.7-2-1.1-3
				c-0.2-0.7,0.2-1.2,1-1.1c0.7,0.1,1.4,0.2,2,0.3c0.2,0,0.4,0.2,0.4,0.4c0.7,1.9,1.6,3.7,2.7,5.4c0.4,0.6,0.7,1.4,1,2
				C181.9,302,181.8,302.1,181.8,302.2"/>
			<path class="st4" d="M65.7,174c0-0.3,0-0.4,0-0.5c-0.1-1.2,0.4-1.5,1.5-1c0.9,0.4,1.6,1,1.9,1.9c0.2,0.4,0.5,0.8,0.8,1.2
				c0.1,0.2,0.3,0.3,0.3,0.4c0.4,1.2,0.4,2.5-0.1,3.7c-0.3,0.7-0.6,0.8-1.2,0.2c-0.5-0.5-0.9-1.1-1.3-1.7c-0.4-0.7-0.8-1.4-1.2-2
				C66,175.6,65.5,174.8,65.7,174"/>
			<path class="st4" d="M187.1,304.9c0.6-2.5-0.2-4.7-1.2-6.9c-0.6-1.3-1.3-2.6-2-3.9c-0.1-0.2-0.2-0.4-0.3-0.7
				c0.8-0.3,1.6-0.6,2.4-0.9c0.7,2.2,1.4,4.4,1.9,6.6c0.4,1.6,0.5,3.3,0.7,4.9c0.1,1.1-0.1,1.2-1.1,0.9
				C187.4,305,187.3,305,187.1,304.9"/>
			<path class="st6" d="M68.5,170.6c0,0.4-0.1,0.7-0.1,1.1c-0.6-0.2-1.2-0.4-1.7-0.5c-0.7-0.1-1.4,0-1.8,0.7
				c-0.1,0.1-0.3,0.2-0.5,0.2c-0.4,0-0.8,0-1.2,0c-1.4,0.1-2.3,0.9-2.6,2.3c-0.1,0.5-0.3,0.6-0.7,0.7c-1.6,0.3-2.8,1-3.2,2.9
				c-0.3-2.6,1-5,3.5-6.2c2.5-1.2,5.2-1.5,7.9-1.2C68.2,170.5,68.3,170.5,68.5,170.6"/>
			<path class="st1" d="M143.9,157.5c0.1-1.1,0-2,0.7-2.8c2.7-2.9,4.8-6.1,6.6-9.6c0-0.1,0.1-0.1,0.3-0.3c-0.1,1.3-0.2,2.4-0.6,3.5
				c-0.6,1.6-1.5,3.1-2.6,4.4c-1.3,1.5-2.6,2.9-3.9,4.4C144.2,157.2,144.1,157.3,143.9,157.5"/>
			<path class="st4" d="M60.4,176c0.4,2.9,1.5,5.4,3.5,7.5c-0.1,0-0.1,0.1-0.1,0c-2.1-0.2-5.1-2.7-5.6-4.8c-0.3-1.2,0-1.9,1.2-2.4
				C59.7,176.3,60,176.2,60.4,176"/>
			<path class="st4" d="M187,292.2c0.2-0.1,0.5-0.2,0.7-0.4c0.1,0,0.1,0.1,0.1,0.1c0.9,1.8,1.7,3.6,2.5,5.5c0.6,1.3,0.1,2.4-0.7,3.4
				C188.9,298,188,295.1,187,292.2"/>
			<path class="st4" d="M69.6,171.8c0.2-0.4,0-0.9,0.6-1.1c0.8-0.2,1.6,0,1.8,0.5c0.3,0.8,0.6,1.6,0.9,2.4c0,0.1-0.1,0.3-0.1,0.4
				c-0.2,0.3-0.4,0.5-0.6,0.8c-0.6,0.6-0.7,0.6-1.1-0.2c-0.2-0.3-0.4-0.6-0.6-1C70.1,173.1,69.9,172.5,69.6,171.8"/>
			<path class="st4" d="M59,182.8c-1.3-0.3-2.4-0.9-3-2c-0.3-0.6-0.2-1.2,0.2-1.5c0.2-0.2,0.5-0.4,0.7,0.1c0.4,1.2,1.1,2.3,2,3.2
				C58.9,182.6,58.9,182.7,59,182.8"/>
			<path class="st1" d="M149.6,243.1c0-1.4,0-2.9,0-4.3c0.1-4.2,0.1-8.4,1-12.5c0.3-1.5,0.8-2.9,1.2-4.4c0.1-0.5,0.4-0.9,0.7-1.3
				c0.5-0.6,1.1-0.6,1.5,0.1c0.3,0.5,0.5,1.1,0.7,1.6c1.3,4,2.5,8,3.9,12c2.2,6.4,4.7,12.7,7.8,18.7c0.2,0.4,0.4,0.8,0.6,1.2
				c-0.1,0-0.2,0.1-0.2,0.1c-0.3-0.3-0.6-0.6-0.8-1c-1.2-2.2-2.4-4.3-3.4-6.6c-3.3-7.4-5.8-15.1-8-22.8c-0.3-0.9-0.6-1.8-0.9-2.7
				c-0.1-0.2-0.3-0.3-0.4-0.5c-0.2,0.2-0.4,0.3-0.5,0.5c-0.4,0.9-0.7,1.7-1,2.6c-1,3.4-1.3,6.9-1.5,10.5c-0.2,2.9-0.4,5.8-0.6,8.7
				C149.7,243.1,149.7,243.1,149.6,243.1"/>
			<path class="st1" d="M102.2,254c0.4-0.9,0.8-1.7,1.3-2.6c3.5-6.9,7-13.7,9.9-20.9c2.1-5.2,3.8-10.6,5.7-15.9
				c0.1-0.3,0.1-0.5,0.3-0.8c0.1-0.1,0.3-0.2,0.4-0.3c0,0.2,0.1,0.3,0.1,0.5c-0.5,1.6-0.9,3.3-1.4,4.9c-2.9,9.8-7.1,19-12,27.9
				c-1.3,2.4-2.7,4.8-4.1,7.3C102.3,254.1,102.3,254.1,102.2,254"/>
			<path class="st1" d="M122.9,241.8c0.5-7.3,1-14.5,1.5-22c0.6,1.7-0.2,13.9-1.4,22C123.1,241.8,123,241.8,122.9,241.8"/>
			<path class="st1" d="M95.7,225.3c-1.4-3.5-2.8-7-4.2-10.5c0,0,0.1-0.1,0.1-0.1c0.3,0.3,0.6,0.6,0.8,0.9c1.5,2.2,2.4,4.7,3,7.4
				c0.2,0.8,0.3,1.5,0.4,2.3C95.9,225.3,95.8,225.3,95.7,225.3"/>
			<path class="st1" d="M120.4,358.1c0.1-0.5,0-1.1,0.2-1.5c1-2.1,2-4.1,3-6.1c0.1-0.2,0.3-0.2,0.5-0.4c0,0.2,0.1,0.4,0,0.6
				c-0.8,2-1.5,4.1-2.3,6.1c-0.2,0.6-0.5,1.1-1.2,1.4C120.6,358.2,120.5,358.1,120.4,358.1"/>
			<path class="st1" d="M155.5,347.8c0,0.1,0,0.1,0,0.2c-1.1,2.9-2.5,5.5-5.7,6.6c-0.7,0.2-1.5,0.2-2.3,0.3c-0.1,0-0.2-0.2-0.4-0.2
				c0.1-0.1,0.2-0.3,0.3-0.3c2.8-0.7,4.7-2.6,6.4-4.8c0.5-0.6,1-1.3,1.5-1.9C155.4,347.8,155.4,347.8,155.5,347.8"/>
			<path class="st1" d="M135,151.4c-2.1,0-3.7-0.9-5-2.3c-1-1-1.9-2.2-2.8-3.3c-0.3-0.4-0.3-0.8,0.1-1.1c0.4-0.3,0.8-0.2,1.1,0.2
				c0.4,0.6,0.9,0.7,1.5,0.7c2,0,4.1-0.1,6.1,0c1.4,0,2.9,0.3,4.3,0.4c0.5,0.1,1,0.1,1.4-0.3c0.1-0.1,0.3-0.2,0.4-0.2
				c0.2,0,0.5,0,0.6,0.1c0.1,0.2,0.1,0.5,0,0.7c-1.7,2.6-4.1,4.4-7.2,5C135.3,151.4,135.1,151.4,135,151.4 M129.7,147.1
				c1.4,1.4,2.8,2.9,5,2.9c2.3,0,4-1.4,5.9-2.7C136.9,146.6,133.3,147,129.7,147.1"/>
			<path class="st1" d="M134.8,141.9c-0.8-0.2-2.2-0.6-3.5-0.9c-0.4-0.1-0.7-0.4-0.6-0.9c0.1-0.5,0.6-0.6,1-0.5
				c0.9,0.2,1.9,0.5,2.8,0.7c1,0.3,1.9,0.1,2.8-0.6c0.2-0.2,0.6-0.1,0.9-0.2c0,0.3,0,0.7-0.1,0.9
				C137.4,141.5,136.4,141.9,134.8,141.9"/>
			<path class="st8" d="M129.7,147.1c3.6-0.2,7.2-0.5,10.9,0.2c-1.9,1.4-3.6,2.8-5.9,2.7C132.5,150,131.1,148.6,129.7,147.1"/>
		</g>
	</g>
</g>
<g>
	<g>
		<defs>
			<rect id="SVGID_5_" x="268.5" y="144.5" width="171.9" height="138"/>
		</defs>
		<clipPath id="SVGID_6_">
			<use xlink:href="#SVGID_5_"  style="overflow:visible;"/>
		</clipPath>
		<g class="st9">
			<defs>
				<rect id="SVGID_7_" x="268.5" y="144.5" width="171.9" height="138"/>
			</defs>
			<clipPath id="SVGID_8_">
				<use xlink:href="#SVGID_7_"  style="overflow:visible;"/>
			</clipPath>
			<path class="st10" d="M360,255.7c-0.3-0.2-0.5-0.3-0.6-0.5c-2.3-4.5-6.2-7.7-10-10.9c-5.2-4.3-11.1-7.5-17.1-10.3
				c-5.8-2.8-11.7-5.5-16.7-9.8c-4.8-4.2-7.9-9.3-8.8-15.7c-0.9-6.4-0.5-12.6,1.9-18.6c2.7-6.8,7.4-11.8,14.4-14.2
				c4.4-1.5,8.9-1.5,13.4-0.1c6.9,2.1,11.8,6.7,15.7,12.6c0.2,0.3,0.5,0.7,0.7,1c0,0.1,0.1,0.1,0.3,0.2c0.2-0.4,0.4-0.7,0.5-1
				c1.6-4.4,4.1-8.4,7.6-11.6c5.9-5.3,12.8-7.9,20.8-6.1c8,1.7,13.4,6.8,16.9,14.1c2.6,5.6,3.9,11.5,3.3,17.7
				c-0.4,4.7-2.2,8.8-5,12.6c-3.5,4.7-8,8.3-12.6,11.8c-6,4.5-11.6,9.4-16.4,15.3c-2.7,3.4-5.4,6.9-7.2,10.8
				C360.7,253.9,360.4,254.8,360,255.7"/>
			<path class="st11" d="M360.8,258.6l-1.9-1.4c-0.1,0-0.1-0.1-0.2-0.1c-0.3-0.2-0.7-0.4-1-1c-2.1-4.1-5.6-7-9.3-10.1l-0.2-0.2
				c-5.3-4.4-11.4-7.6-16.7-10.1l-0.3-0.1c-5.8-2.7-11.8-5.5-16.8-10c-5.3-4.7-8.5-10.3-9.4-16.8c-1-7.3-0.3-13.7,2-19.6
				c3-7.6,8.2-12.7,15.5-15.2c4.7-1.6,9.6-1.6,14.5-0.1c6.2,1.9,11.4,5.9,15.8,12c1.8-4.2,4.3-7.7,7.3-10.4
				c6.8-6.1,14.3-8.3,22.4-6.5c8.1,1.8,14.2,6.8,18.1,15.1c2.9,6.1,4,12.4,3.5,18.7c-0.4,4.8-2.2,9.3-5.4,13.5
				c-3.8,5.1-8.7,9-13,12.2c-6.9,5.2-12,10-16,15c-2.6,3.1-5.2,6.6-7,10.4c-0.2,0.5-0.5,1.1-0.7,1.7c-0.1,0.3-0.2,0.6-0.4,0.9
				L360.8,258.6z M329.9,176.4c-2.1,0-4.1,0.3-6.2,1c-6.3,2.2-10.7,6.4-13.3,13.1c-2.1,5.3-2.7,11.1-1.8,17.7
				c0.8,5.6,3.4,10.4,8.2,14.6c4.6,4.1,10.4,6.8,15.9,9.4l0.3,0.1c5.5,2.6,11.9,5.9,17.5,10.6l0.2,0.2c3.1,2.6,6.4,5.3,8.8,8.9
				c2-4.1,4.7-7.7,7.3-11c4.3-5.3,9.6-10.2,16.7-15.6c4.1-3.1,8.7-6.8,12.3-11.5c2.8-3.7,4.3-7.5,4.7-11.7
				c0.5-5.7-0.6-11.3-3.2-16.8c-3.4-7.3-8.5-11.6-15.6-13.1c-7-1.5-13.3,0.4-19.2,5.7c-3,2.7-5.4,6.4-7.1,10.9
				c-0.1,0.4-0.3,0.7-0.5,1c-0.1,0.1-0.1,0.2-0.2,0.3L354,192l-1.7-1c-0.2-0.1-0.5-0.3-0.8-0.7c-0.2-0.3-0.4-0.6-0.6-0.9l-0.1-0.2
				c-4-6.2-8.9-10-14.7-11.8C334,176.7,331.9,176.4,329.9,176.4"/>
		</g>
	</g>
</g>
<path class="st12" d="M360.4,312"/>
<path class="st13" d="M286.4,323"/>
<path class="st13" d="M421.9,314.3"/>
<g>
	<g>
		<defs>
			<rect id="SVGID_9_" x="520.7" y="185.8" width="119.8" height="96.1"/>
		</defs>
		<clipPath id="SVGID_10_">
			<use xlink:href="#SVGID_9_"  style="overflow:visible;"/>
		</clipPath>
		<g class="st14">
			<defs>
				<rect id="SVGID_11_" x="520.7" y="185.8" width="119.8" height="96.1"/>
			</defs>
			<clipPath id="SVGID_12_">
				<use xlink:href="#SVGID_11_"  style="overflow:visible;"/>
			</clipPath>
			<path class="st15" d="M584.5,263.4c-0.2-0.2-0.4-0.2-0.4-0.3c-1.6-3.2-4.3-5.4-6.9-7.6c-3.6-3-7.7-5.2-11.9-7.2
				c-4.1-1.9-8.2-3.8-11.6-6.8c-3.3-2.9-5.5-6.5-6.1-10.9c-0.6-4.4-0.4-8.8,1.3-13c1.9-4.8,5.1-8.2,10-9.9c3.1-1,6.2-1,9.3-0.1
				c4.8,1.5,8.2,4.7,10.9,8.8c0.2,0.2,0.3,0.5,0.5,0.7c0,0,0.1,0.1,0.2,0.1c0.1-0.2,0.3-0.5,0.4-0.7c1.1-3.1,2.8-5.9,5.3-8.1
				c4.1-3.7,8.9-5.5,14.5-4.3c5.6,1.2,9.4,4.8,11.7,9.8c1.8,3.9,2.7,8,2.3,12.4c-0.3,3.3-1.5,6.2-3.5,8.8c-2.5,3.3-5.6,5.8-8.8,8.3
				c-4.2,3.2-8.1,6.6-11.4,10.6c-1.9,2.4-3.7,4.8-5,7.5C585,262.1,584.8,262.7,584.5,263.4"/>
			<path class="st16" d="M585.1,265.3l-1.3-1c0,0-0.1-0.1-0.1-0.1c-0.2-0.1-0.5-0.3-0.7-0.7c-1.5-2.9-3.9-4.9-6.5-7l-0.2-0.1
				c-3.7-3.1-8-5.3-11.7-7l-0.2-0.1c-4-1.9-8.2-3.9-11.7-6.9c-3.7-3.3-5.9-7.2-6.5-11.7c-0.7-5.1-0.2-9.5,1.4-13.6
				c2.1-5.3,5.7-8.9,10.8-10.6c3.3-1.1,6.7-1.1,10.1-0.1c4.4,1.3,8,4.1,11,8.4c1.3-2.9,3-5.4,5.1-7.3c4.7-4.2,10-5.8,15.6-4.6
				c5.7,1.2,9.9,4.8,12.6,10.5c2,4.2,2.8,8.6,2.4,13c-0.3,3.3-1.5,6.5-3.7,9.4c-2.7,3.5-6.1,6.2-9,8.5c-4.8,3.6-8.3,6.9-11.2,10.4
				c-1.8,2.2-3.6,4.6-4.9,7.3c-0.2,0.4-0.3,0.7-0.5,1.2c-0.1,0.2-0.2,0.4-0.3,0.6L585.1,265.3z M563.5,208.1c-1.5,0-2.9,0.2-4.3,0.7
				c-4.4,1.5-7.4,4.5-9.3,9.1c-1.5,3.7-1.9,7.7-1.2,12.4c0.5,3.9,2.4,7.3,5.7,10.2c3.2,2.8,7.2,4.7,11.1,6.6l0.2,0.1
				c3.8,1.8,8.3,4.1,12.2,7.4l0.2,0.1c2.2,1.8,4.4,3.7,6.1,6.2c1.4-2.9,3.3-5.4,5.1-7.6c3-3.7,6.7-7.1,11.6-10.9
				c2.8-2.2,6.1-4.7,8.5-8c1.9-2.6,3-5.2,3.2-8.1c0.3-3.9-0.4-7.9-2.2-11.7c-2.4-5.1-5.9-8.1-10.9-9.1c-4.9-1-9.3,0.2-13.4,4
				c-2.1,1.9-3.8,4.4-4.9,7.6c-0.1,0.3-0.2,0.5-0.3,0.7c0,0.1-0.1,0.1-0.1,0.2l-0.6,1.2l-1.2-0.7c-0.1-0.1-0.4-0.2-0.6-0.5
				c-0.1-0.2-0.3-0.4-0.4-0.6L578,217c-2.8-4.3-6.2-7-10.2-8.3C566.3,208.3,564.9,208.1,563.5,208.1"/>
		</g>
	</g>
</g>
<g>
	<g>
		<defs>
			<rect id="SVGID_13_" x="471.9" y="123.5" width="119.8" height="96.1"/>
		</defs>
		<clipPath id="SVGID_14_">
			<use xlink:href="#SVGID_13_"  style="overflow:visible;"/>
		</clipPath>
		<g class="st17">
			<defs>
				<rect id="SVGID_15_" x="471.9" y="123.5" width="119.8" height="96.1"/>
			</defs>
			<clipPath id="SVGID_16_">
				<use xlink:href="#SVGID_15_"  style="overflow:visible;"/>
			</clipPath>
			<path class="st18" d="M535.6,201c-0.2-0.2-0.4-0.2-0.4-0.3c-1.6-3.2-4.3-5.4-6.9-7.6c-3.6-3-7.7-5.2-11.9-7.2
				c-4.1-1.9-8.2-3.8-11.6-6.8c-3.3-2.9-5.5-6.5-6.1-10.9c-0.6-4.4-0.4-8.8,1.3-13c1.9-4.8,5.1-8.2,10-9.9c3.1-1,6.2-1,9.3-0.1
				c4.8,1.5,8.2,4.7,10.9,8.8c0.2,0.2,0.3,0.5,0.5,0.7c0,0,0.1,0.1,0.2,0.1c0.1-0.2,0.3-0.5,0.4-0.7c1.1-3.1,2.8-5.9,5.3-8.1
				c4.1-3.7,8.9-5.5,14.5-4.3c5.6,1.2,9.4,4.8,11.7,9.8c1.8,3.9,2.7,8,2.3,12.4c-0.3,3.3-1.5,6.2-3.5,8.8c-2.5,3.3-5.6,5.8-8.8,8.3
				c-4.2,3.2-8.1,6.6-11.4,10.6c-1.9,2.4-3.7,4.8-5,7.5C536.1,199.7,535.9,200.3,535.6,201"/>
			<path class="st19" d="M536.2,203l-1.3-1c0,0-0.1-0.1-0.1-0.1c-0.2-0.1-0.5-0.3-0.7-0.7c-1.5-2.9-3.9-4.9-6.5-7l-0.2-0.1
				c-3.7-3.1-8-5.3-11.7-7l-0.2-0.1c-4-1.9-8.2-3.9-11.7-6.9c-3.7-3.3-5.9-7.2-6.5-11.7c-0.7-5.1-0.2-9.5,1.4-13.6
				c2.1-5.3,5.7-8.9,10.8-10.6c3.3-1.1,6.7-1.1,10.1-0.1c4.4,1.3,8,4.1,11,8.4c1.3-2.9,3-5.4,5.1-7.3c4.7-4.2,10-5.8,15.6-4.6
				c5.7,1.2,9.9,4.8,12.6,10.5c2,4.2,2.8,8.6,2.4,13c-0.3,3.3-1.5,6.5-3.7,9.4c-2.7,3.5-6.1,6.2-9,8.5c-4.8,3.6-8.3,6.9-11.2,10.4
				c-1.8,2.2-3.6,4.6-4.9,7.3c-0.2,0.4-0.3,0.7-0.5,1.2c-0.1,0.2-0.2,0.4-0.3,0.6L536.2,203z M514.6,145.7c-1.5,0-2.9,0.2-4.3,0.7
				c-4.4,1.5-7.4,4.5-9.3,9.1c-1.5,3.7-1.9,7.7-1.2,12.4c0.5,3.9,2.4,7.3,5.7,10.2c3.2,2.8,7.2,4.7,11.1,6.6l0.2,0.1
				c3.8,1.8,8.3,4.1,12.2,7.4l0.2,0.1c2.2,1.8,4.4,3.7,6.1,6.2c1.4-2.9,3.3-5.4,5.1-7.6c3-3.7,6.7-7.1,11.6-10.9
				c2.8-2.2,6.1-4.7,8.5-8c1.9-2.6,3-5.2,3.2-8.1c0.3-3.9-0.4-7.9-2.2-11.7c-2.4-5.1-5.9-8.1-10.9-9.1c-4.9-1-9.3,0.2-13.4,4
				c-2.1,1.9-3.8,4.4-4.9,7.6c-0.1,0.3-0.2,0.5-0.3,0.7c0,0.1-0.1,0.1-0.1,0.2l-0.6,1.2l-1.2-0.7c-0.1-0.1-0.4-0.2-0.6-0.5
				c-0.1-0.2-0.3-0.4-0.4-0.6l-0.1-0.1c-2.8-4.3-6.2-7-10.2-8.3C517.5,145.9,516,145.7,514.6,145.7"/>
		</g>
	</g>
</g>
</svg>
