<?xml version="1.0" encoding="utf-8"?>
<!-- Generator: Adobe Illustrator 22.1.0, SVG Export Plug-In . SVG Version: 6.00 Build 0)  -->
<svg version="1.1" xmlns="http://www.w3.org/2000/svg" xmlns:xlink="http://www.w3.org/1999/xlink" x="0px" y="0px"
	 viewBox="0 0 690 500" style="enable-background:new 0 0 690 500;" xml:space="preserve">
<style type="text/css">
	.st0{clip-path:url(#SVGID_2_);}
	.st1{clip-path:url(#SVGID_4_);}
	.st2{clip-path:url(#SVGID_4_);fill:#232122;}
	.st3{clip-path:url(#SVGID_4_);fill:#383433;}
	.st4{clip-path:url(#SVGID_4_);fill:#515151;}
	.st5{clip-path:url(#SVGID_4_);fill:#3D3D3D;}
	.st6{clip-path:url(#SVGID_4_);fill:#4C342E;}
	.st7{clip-path:url(#SVGID_4_);fill:#D28F65;}
	.st8{clip-path:url(#SVGID_4_);fill:#EAEAEA;}
	.st9{clip-path:url(#SVGID_4_);fill:#FE966F;}
	.st10{clip-path:url(#SVGID_4_);fill:#A93534;}
	.st11{clip-path:url(#SVGID_4_);fill:#FFFFFF;}
	.st12{clip-path:url(#SVGID_4_);fill:#5B1010;}
	.st13{clip-path:url(#SVGID_4_);fill:#7B824D;}
</style>
<g id="TIGER">
</g>
<g id="Слой_2">
	<g>
		<g>
			<defs>
				<rect id="SVGID_1_" x="76.5" y="30.3" width="537" height="439.5"/>
			</defs>
			<clipPath id="SVGID_2_">
				<use xlink:href="#SVGID_1_"  style="overflow:visible;"/>
			</clipPath>
			<g class="st0">
				<defs>
					<rect id="SVGID_3_" x="76.5" y="30.3" width="537" height="439.5"/>
				</defs>
				<clipPath id="SVGID_4_">
					<use xlink:href="#SVGID_3_"  style="overflow:visible;"/>
				</clipPath>
				<path class="st1" d="M170.2,366.9c-2.2,0.1-4.2,0.2-6.2,0.3c-0.9,0.1-1.8,0.3-2.2-0.8c0-0.1-0.1-0.2-0.2-0.2
					c-1.1,0.2-1.7-0.8-2.5-1.2c-7-4.2-13.9-8.7-20.6-13.4c-0.3-0.2-0.6-0.4-1-0.6c-0.2,0.6-0.5,1.1-0.7,1.5
					c-2.5,6.3-4.1,12.8-5.2,19.5c-1.4,8-2,16.2-2.5,24.3c-0.3,3.8-0.7,7.7-1,11.5c0,0.3-0.1,0.5-0.4,0.9c-0.4-0.6-0.8-1.3-1.2-1.9
					c-0.9-1.6-1.8-3.2-2.7-4.7c-0.4-0.6-0.6-1.2-0.5-1.9c0.6-8.8,1-17.6,2.3-26.3c1.3-9,3-18,6.2-26.6c0-0.1,0-0.2,0.1-0.4
					c-1.1-0.9-2.1-1.8-3.3-2.6c-0.8-0.6-1.2-1.4-1.3-2.4c-0.5-5.3-0.6-10.6-0.5-15.9c0-1.6,0.7-3,2.1-4c2.6-1.8,5.5-2.8,8.6-3.5
					c4.5-0.9,9.1-1.1,13.7-1.3c1.7-0.1,1.7,0,2.1-1.7c0-0.2,0.1-0.4,0.2-0.5c1.9-4,2.5-8.4,3.3-12.7c3.8-20,7.4-39.9,11.3-59.9
					c2.4-12.6,5.1-25.1,8.4-37.5c1.5-5.5,3.1-10.9,5.3-16.2c0.8-2,1.8-4,2.9-5.9c0.4-0.8,1.2-1.3,1.8-2c0.1-0.1,0.2-0.2,0.3-0.3
					c2-3.6,3.4-7.4,3.8-11.5c0.3-2.5,0.3-4.9-0.4-7.3c-0.5-1.7-0.7-3.5-1-5.3c-0.1-0.4-0.2-0.9-0.3-1.3c-3.3,1.1-6,0.1-8.3-2.1
					c-2.6-2.5-4.1-5.6-4.9-9.1c-0.4-1.8-0.7-3.7-0.3-5.6c0.3-1.3,0.7-2.5,1.2-4c-4.2-7.3-3.3-14.7,1-22.1c-0.5,0.1-0.8,0.1-1,0.2
					c-1.2,0.3-2.4,0.7-3.6,1c-0.5,0.1-1.1,0.2-1.6,0.2c-1,0-1.6-0.6-1.6-1.7c0-0.3,0-0.6,0.1-1c0.3-1,0.5-2,0.8-3
					c1.2-3.7,3.6-6.3,7.2-7.9c1.3-0.5,2.5-1,4.1-1.6c-0.8-0.1-1.4-0.2-2-0.3c-1.1-0.1-2.3-0.2-3.4-0.3c-0.6-0.1-1.2-0.3-1.4-0.9
					c-0.3-0.6,0.1-1.2,0.5-1.6c0.3-0.3,0.6-0.7,1-0.9c5-3.2,10.4-4.3,16.3-2.5c0.7,0.2,1.4,0.6,2.4,1c-0.2-0.6-0.3-1.1-0.6-1.5
					c-0.8-1.5-1.6-3-2.5-4.4c-0.3-0.5-0.6-0.9-0.7-1.5c-0.4-1.2,0.2-2,1.5-2c0.7,0,1.4,0.2,2,0.4c4.4,1.4,8.2,3.8,11.1,7.5
					c0.2,0.2,0.4,0.5,0.6,0.7c4.3-4.6,9.8-6.6,15.7-7.7c0.6-0.1,1.2-0.1,1.8-0.1c1,0.2,1.5,0.9,1.2,1.9c-0.2,0.6-0.5,1.2-0.8,1.7
					c-0.8,1.2-1.6,2.3-2.5,3.8c0.7-0.2,1.2-0.3,1.7-0.4c4.6-1.3,9.3-1.7,14-1c4.7,0.6,8.6,2.7,11.2,6.6c1.5,2.2,2.8,4.5,4.1,6.8
					c1,1.8,1.9,3.6,3,5.4c2.9,5,6.8,8.9,12.1,11.4c0.7,0.4,1.5,0.7,2.2,1.1c0.6,0.3,1.1,0.6,1,1.3c-0.1,0.7-0.6,1-1.3,1.1
					c-1.1,0.2-2.2,0.4-3.2,0.5c-1.1,0.2-2.2,0.2-3.6,0.4c2.6,3.1,5.2,6,4.2,10.3c0,0.1,0.1,0.2,0.1,0.2c1.5,0.4,1.7,1,0.8,2.3
					c-2.2,3.2-5.3,5.4-8.9,6.8c-2.3,0.9-4.7,1.3-7.1,1.6c-0.3,0-0.6,0.1-0.9,0.2c0,0.2-0.1,0.3,0,0.4c1.2,2.7,0.9,5.3-0.2,7.9
					c-2.3,5.6-6.8,8.8-13,9.3c-0.2,0.4-0.5,1-0.8,1.5c-1.7,3.3-3.6,6.5-6.2,9.2c-3.8,3.8-8.4,6-13.6,7c-1.4,0.2-2.8,0.1-4.2,0.1
					c-3.4-0.1-6,2.1-6.5,5.4c-0.1,0.5,0,0.9,0.4,1.2c0,0,0.1,0.1,0.1,0.1c6.9,5.6,10.9,13.1,13.7,21.3c1.7,4.8,3.1,9.8,4.7,14.6
					c2.3,6.8,5.4,13.3,9.2,19.4c0.6,0.9,1.2,1.7,1.8,2.6c0.4,0.5,0.8,0.7,1.4,0.5c0.3-0.1,0.6-0.2,0.9-0.2c1.5-0.2,2.6,0.3,3.3,1.6
					c0.5,1,0.8,2,1.2,3.1c0.2,0.5,0.3,1,0.5,1.6c1-0.1,1.8-0.3,2.9-0.4c0-0.4,0-0.9,0-1.4c-0.5-9.1-1-18.2-1.4-27.3
					c0-0.8,0-1.6,0-2.6c-0.3-0.3-0.7-0.8-1.1-1.3c-1-1.4-0.8-2.4,0.8-3c2.8-1.2,5.7-1.8,8.6-2.1c1.8-0.2,3.6-0.3,5.3-0.3
					c8.9-0.1,17.8-0.1,26.6-0.2c0.8,0,1.2-0.2,1.7-0.9c1.9-3.1,3.9-6.1,5.8-9.1c0.2-0.3,0.4-0.7,0.7-1c0.6-0.8,1.3-1.2,2.4-1
					c3,0.6,5.9,1.1,9,1.6c0.1-0.2,0.3-0.4,0.5-0.6c3.5-5.7,6.8-11.4,9.7-17.4c0.7-1.4,1.2-3,1.8-4.4c0.4-1.1,0.9-1.3,1.8-0.6
					c1.9,1.5,4.2,2.2,6.5,2.8c1,0.3,1.6,0,2.2-0.8c7.8-9.5,15.6-19,23.5-28.3c23.4-27.5,47.4-54.5,71.9-81.1
					c10.2-11.1,20.5-22.2,30.7-33.3c0.6-0.6,1.2-1.2,1.7-1.8c0.6-0.7,1.3-0.9,2.2-0.8c0.8,0.1,1.6,0.2,2.4,0.3
					c9,0.1,17.9,0.2,26.9,0.4c12.1,0.3,24.2,0.7,36.2,1c6.7,0.2,13.5,0.4,20.2,0.6c0.7,0,1.5-0.2,1.8,0.7c0.3,0.8-0.2,1.3-0.6,1.8
					c-4,4.6-7.9,9.3-11.9,13.9c-6.9,8-14,16-20.9,24.1c-3.6,4.2-6.7,8.8-9.5,13.6c-0.2,0.3-0.3,0.6-0.5,0.9c0.3,0.2,0.6,0.5,0.9,0.6
					c0.8,0.3,1.7,0.7,2.6,0.9c7.6,1.9,14.9,4.8,21.9,8.3c6.8,3.3,13.6,6.8,20.1,10.8c3.1,1.9,6,4,8.8,6.4c5.9,5,8.5,11.4,8.2,19.1
					c-0.3,8.6-3.6,16-9,22.5c-4.8,5.8-10.6,10.5-16.8,14.6c-7.1,4.6-14.7,8.3-22.6,11.5c-8.9,3.6-17.9,6.6-27,9.6
					c-5.9,2-11.9,4-17.8,6c-0.4,0.1-0.8,0.3-1.4,0.5c0.4,1.3,0.9,2.5,1.3,3.9c0.5,0,0.9,0.1,1.4,0.1c10.9,0.3,21.8,0.7,32.7,1
					c6.3,0.2,12.5,0.3,18.8,0.6c5.3,0.2,10.6,0.6,15.9,1c4,0.3,8,0.7,12,1.2c2.4,0.3,4.9,0.8,7.3,1.3c1.8,0.4,3.3,1.2,4.7,2.4
					c1.2,1,1.8,2.4,2.3,3.8c0.6,1.9,0.7,3.9,0.6,6c-0.2,2.1-0.1,4.2-0.1,6.3c-0.1,8.2-0.5,16.4-1,24.6c-0.3,4.2-0.3,8.4-0.4,12.6
					c0,1.1-0.1,2.3-0.2,3.4c-0.1,1.5-0.4,1.8-2,1.8c-5.1,0.2-10.2,1.2-15.3,2.3c-0.2,0.7-0.5,1.3-0.7,2c-2.1,6.4-3.4,13-4.5,19.6
					c-1.5,9.2-2.6,18.5-3.2,27.8c-0.5,8.4-0.7,16.7-1,25.1c-0.2,6.6-0.3,13.3-0.5,19.9c0,1.5-0.2,2.9-0.3,4.4
					c-0.1,1-0.4,1.3-1.3,1.4c-0.7,0.1-1.5,0.1-2.2,0.1c-5.5,0-11.1,0-16.6,0.1c-0.2,0-0.5,0-0.7,0c-0.7-0.1-1-0.5-0.9-1.1
					c0.8-3.6,0.7-7.2,0.9-10.8c0.4-9.1,0.4-18.1,0-27.2c-0.4-10-1.2-20-2.8-29.9c-0.1-0.4-0.2-0.7-0.3-1.1
					c-4.2,1.4-8.5,0.8-12.9,1.3c0.1,0.9,0.1,1.7,0.2,2.5c0.2,4.1,0.4,8.2,0.5,12.3c0.1,2.4-0.9,3.7-3.2,4.1
					c-5.9,1.2-11.9,2-17.9,2.7c-1.8,0.2-3.6,0.4-5.5,0.6c-0.4,0.1-0.9,0.2-1.3,0.4c-6.4,4.1-12.5,8.6-17.4,14.6
					c-4.6,5.7-7.9,12.1-10.4,18.9c-2.6,7.2-4.4,14.6-5.8,22.2c-2.4,13.2-3.9,26.5-4.4,39.9c-0.3,7-0.5,14-0.8,21
					c-0.2,3.9-0.5,7.8-0.8,11.6c-0.1,1.5-0.4,1.8-1.9,1.8c-2.1,0.1-4.3,0.1-6.5,0.1c-5,0-10-0.1-15-0.1c-0.4,0-0.8,0-1.2-0.1
					c-0.6-0.1-0.9-0.5-0.7-1.1c0.8-2.7,0.8-5.6,1-8.4c0.7-9.6,0.8-19.2,0.5-28.8c-0.3-11.1-1.1-22.1-3.2-33
					c-2.3-12.3-5.6-24.3-10.4-35.8c-2.3-5.4-5.2-10.5-9.2-14.9c-0.9-1-1.7-1.4-3.1-1.3c-6.1,0.4-12.3,0.6-18.4,0.9
					c-0.3,0-0.5,0-0.8,0c-1.4,0-2.7-0.2-4-1c-2.3-1.4-4.8-2.4-7.3-3.5c-11.6-5.1-23.6-9.6-35.5-13.9c-8.6-3.1-17.2-6.1-25.9-9.2
					c-0.4-0.1-0.8-0.3-1.2-0.4c-0.7,1-2,5-2.2,7c0.1,0.1,0.1,0.2,0.2,0.2c2,0.8,3.4,2.4,4.6,4.2c2.4,3.9,4.2,8,5.5,12.4
					c1.4,4.8,2.6,9.7,3.8,14.6c2.4,9.3,5.3,18.4,9.3,27.1c3.6,8,8.6,14.9,15.2,20.6c0.2,0.2,0.4,0.3,0.5,0.5c0.7,0.8,0.8,1.4,0,2.1
					c-1.3,1.3-2.6,2.5-3.9,3.7c-0.8,0.8-1.6,1.5-2.4,2.3c1.9,1.4,3.9,1.8,6.1,1.7c1.1-0.1,2.2-0.3,3.2-0.5c1.5-0.3,3-0.6,4.4-0.8
					c2.1-0.3,4.2-0.2,6.1,0.7c7.4,3.5,12.2,9.1,13.5,17.3c0.1,0.5,0.2,1,0,1.5c-0.3,1-0.2,1.9,0.2,2.9c0.3,0.9,0.4,1.9,0.5,2.8
					c0.3,2.3-0.7,3.9-2.7,5c-2,1.1-4.2,1.7-6.4,2c-3.7,0.4-7.4,0.8-11.1,1.1c-4.9,0.4-9.8,0.7-14.7,1c-4.1,0.3-8.2-0.1-12.3-0.5
					c-3.2-0.3-6.4-0.7-9.6-1c-0.1,0-0.2,0-0.3,0c-3.1-0.3-4.5-0.9-4.7-5.1c-0.1-1.1-0.3-2.1-0.8-3.1c-1.3-2.6-1.9-5.4-2.3-8.3
					c-0.4-2.9-0.6-5.9-0.5-8.9c0-0.3,0-0.5,0-1c-0.9,0-1.7,0-2.5,0c-2.3,0.1-2.3,0-3.1-2.2c-2-6-4-12-6-17.9
					c-0.2-0.6-0.4-1.2-0.7-1.8c-0.2,0-0.4-0.1-0.6-0.1c-3.5-0.1-7-0.2-10.6-0.3c-0.2,0-0.4,0-0.5,0c-1.4-0.1-1.7-0.4-1.7-1.8
					c0.1-3.3,0.3-6.6,0.4-9.9c0.4-7.8,0.5-15.6,0.3-23.5c0-0.9,0-1.7-0.1-2.6c0-0.4-0.2-0.9-0.5-1c-1.7-1-3.5-2-5.5-2.7
					c-0.1,0.5-0.1,0.8-0.1,1.1c0.1,11.8,0.1,23.6,0.3,35.4c0.1,5,0.7,9.9,1.2,14.9c0.1,0.9-0.2,1.6-0.9,2c-0.9,0.6-1.9,1-2.9,1.5
					c-0.4,0.2-0.7,0.3-1.1,0.7c0.4,0,0.9,0.2,1.3,0.1c1.6-0.2,3.2-0.3,4.7-0.7c4.1-1,7.7-0.2,10.9,2.4c4.4,3.7,6.9,8.5,7.7,14.1
					c0.1,0.5,0,1.1-0.2,1.6c-0.3,0.7-0.3,1.4-0.3,2.1c0.1,1.5,0.1,3,0.1,4.5c-0.1,2-0.8,3.2-2.9,3.7c-2.2,0.5-4.4,0.9-6.6,1
					c-6.5,0.2-13,0.3-19.5,0.3c-5.9,0-11.7-1.1-17.5-2.6c-1-0.3-1.9-0.6-2.8-1c-1.4-0.6-2.1-1.6-2-3.1c0.1-1.3-0.3-2.4-0.9-3.5
					c-1.3-2.4-1.8-5.1-2.1-7.8c-0.3-2.9-0.4-5.8,0.2-8.6c0.1-0.3-0.1-0.7-0.3-1c-0.6-0.7-0.9-1.5-1-2.4c-0.2-1.5-0.4-3-0.5-4.5
					c-0.8-12.7-1.2-25.4-0.5-38.2c0-0.2,0-0.4,0-0.8c-9.9,0-19.5,1.7-29.2,2.9c-0.3,2-0.6,3.9-0.9,5.8c-1.2,10.2-2.5,20.4-3.5,30.7
					c-0.7,7.4-1.1,14.8-1.5,22.2c-0.3,5.3-0.3,10.7-0.6,16.1c-0.2,4,1.5,6.9,5,8.7c2.6,1.4,5.2,2.6,7.9,3.9c2,1,4,1.9,6.1,2.9
					c0.2,0.1,0.4,0.2,0.6,0.3c0.5,0.3,0.9,0.6,0.7,1.2c-0.2,0.4-0.6,0.8-1,0.9c-1,0.2-2,0.4-3,0.4c-7.5,0.1-14.9,0.2-22.4,0.1
					c-5.5,0-11-0.2-16.5-0.4c-3.8-0.1-7.6-0.3-11.4-0.5c-0.3,0-0.7,0-0.9-0.1c-1-0.3-1.3-1.5-0.5-2.2c0.3-0.3,0.7-0.6,1.1-0.8
					c4-2.3,7.5-5,11.1-7.8c1.4-1.1,2.5-2.5,3.2-4.2c1.5-3.8,2.3-7.8,2.6-11.9c0.9-10.4,1-20.9,0.8-31.3c-0.2-9.1-0.7-18.2-1-27.3
					C170.4,369.4,170.3,368.2,170.2,366.9 M469,203.7c0.7-0.2,1.2-0.4,1.7-0.6c5.4-1.8,10.8-3.6,16.1-5.4c9.4-3.1,18.9-6.2,28.1-9.9
					c8.3-3.4,16.4-7.3,23.9-12.3c6.2-4.1,11.8-8.9,16.3-14.8c5-6.5,7.7-13.7,7.5-21.9c-0.2-5.7-2.2-10.6-6.4-14.5
					c-2.6-2.4-5.4-4.5-8.4-6.4c-5.9-3.8-12.1-7-18.4-10.2c-7.8-3.9-15.6-7.4-24.1-9.4c-1.1-0.3-2.3-0.7-3.3-1.2
					c-1.9-0.9-2.3-2.2-1.2-4c2.8-5,6-9.7,9.7-14.1c5.9-7,11.9-13.8,17.8-20.7c4.4-5.1,8.8-10.1,13.3-15.2c0.3-0.4,0.6-0.8,1-1.3
					c-0.5-0.1-0.8-0.1-1.1-0.1c-12.2-0.4-24.3-0.9-36.5-1.2c-15.6-0.4-31.2-0.6-46.8-1c-1.4,0-2.3,0.4-3.2,1.4
					c-6.8,7.6-13.6,15.2-20.5,22.7c-23.7,25.8-47.1,51.8-70,78.3c-11.6,13.5-23.1,27.1-34.3,40.9c-0.3,0.4-0.6,0.8-1.1,1.5
					c3.6,0.4,6.8,0.8,10.1,1.1c5.6,0.6,11.3,1,16.9,1.7c11,1.4,22,3.4,32.8,6c3.7,0.9,7.3,2.1,11.2,1.8c0,0,0.1,0,0.1,0
					c0.9,0.1,1.4,0.7,1.2,1.6c-0.1,0.6-0.4,1.2-0.6,1.8c-1.1,3-2.3,5.9-3.4,8.8c-0.1,0.4-0.2,0.8-0.4,1.3c0.6,0,1,0.1,1.5,0.1
					c17.8,0.1,35.6,0.2,53.4,0.4c1.4,0,2.8-0.2,4.1-0.7c1.8-0.7,3.6-1.3,5.5-2c-0.1-0.5-0.2-1-0.3-1.4
					c-5.3-18.8-10.5-37.6-15.9-56.4c-6.2-21.3-12.6-42.4-19-63.7c-0.2-0.7-0.2-1.2,0.5-1.8c1.4-1.2,2.7-2.6,4-3.9
					c0.3-0.3,0.8-0.5,1.3-0.9c0.2,0.5,0.3,0.9,0.4,1.2c0.4,2.1,0.8,4.2,1.3,6.3c3.3,13.2,7,26.3,10.8,39.3
					c7.5,25.7,15.2,51.4,23.9,76.8C468.6,202.4,468.8,203,469,203.7 M360.9,318.9c0.6,0,1,0,1.4,0c5.5-0.4,11-0.9,16.6-1.3
					c6.7-0.5,13.4-1,20.1-1.5c7.9-0.6,15.9-1.2,23.8-1.8c6.8-0.5,13.6-1,20.4-1.5c9-0.7,18-1.4,27-2.1c9-0.7,18.1-1.5,27.1-2.3
					c0.5,0,1.2,0,1.6-0.3c0.8-0.5,1.7-0.5,2.6-0.5c1.2-0.1,2.4,0,3.6-0.1c2.1-0.2,4.3-0.3,6.4-0.6c1.3-0.1,1.4-0.4,1.5-1.7
					c0-0.9,0-1.7,0.1-2.6c0.2-6.1,0.5-12.2,0.7-18.2c0.3-7.3,0.5-14.5,0.7-21.8c0.2-6.3,0.2-12.6-0.4-18.9c-0.2-1.6-0.6-2-2.2-1.9
					c-1.6,0.1-3.2,0.2-4.8,0.4c-6.3,0.7-12.6,1.8-18.9,2.2c-8.7,0.6-17.3,1.5-26,2.3c-6.2,0.6-12.4,1.2-18.6,1.8
					c-6.9,0.6-13.8,1.4-20.7,1.8c-8.8,0.5-17.7,0.7-26.5,1c-0.5,0-1,0.1-1.6,0.1c0,0.6,0,1.1,0,1.6c0,4.8,0,9.6,0,14.4
					c0,1.5,0,2.9-0.2,4.4c-0.4,5.2-1.9,10.1-3.6,14.9c-1.2,3.4-3.2,6.3-6.1,8.5c-2.3,1.7-4.6,3.3-7.1,4.7c-5,3-10.5,4.9-16.1,6.6
					c-0.5,0.2-1,0.3-1.7,0.5C360.4,310.8,360.6,314.8,360.9,318.9 M240,261.6c0.1,0,0.2,0,0.4,0.1c0,0.3,0,0.7-0.1,1
					c-0.2,1-0.4,2-0.7,2.9c-1,3.3-2,6.7-3,10c-0.2,0.6-0.5,1.2-0.9,1.7c-0.2,0.2-0.6,0.4-0.9,0.3c-0.2,0-0.5-0.4-0.5-0.7
					c-0.1-0.3-0.1-0.7,0-1.1c0.1-0.8,0.2-1.6,0.4-2.4c0.8-4.6,1.7-9.2,2.5-13.8c0.1-0.7,0.2-1.4,0-2.4c-0.5,0.5-0.9,0.8-1.2,1.2
					c-1.1,1.1-2.1,2.3-3.1,3.5c-2,2.2-4.2,4.2-6.7,5.9c-0.8,0.6-1.7,1.1-2.6,1.5c-0.7,0.3-1.4,0.5-2-0.1c-0.5-0.6-0.3-1.3,0-1.9
					c0.3-0.6,0.6-1.1,1-1.7c0.8-1.1,1.5-2.2,2.4-3.2c3.4-4.2,6.8-8.4,10.2-12.6c0.3-0.4,0.6-0.9,0.9-1.2c-0.9-1.3-1.7-2.3-2.4-3.5
					c-3-4.9-5.6-10-7.8-15.3c-2.2-5.4-3.8-10.9-5.5-16.4c-1.5-4.9-3.4-9.6-6-14c-2.9-4.9-6.8-8.7-11.2-12.1
					c-0.6-0.4-1.2-0.8-1.9-1.2c-0.3-0.2-0.6-0.3-0.9-0.4c-2.6,3.1-5.1,6.2-7.6,9.2c-1.6,1.9-3.2,3.8-4.8,5.6c-0.3,0.4-0.8,0.7-1.2,1
					c-0.1-0.1-0.2-0.2-0.3-0.2c0.2-0.4,0.3-0.8,0.5-1.2c0.7-1.1,1.4-2.1,2.2-3.1c3-3.6,6.1-7.1,9.1-10.7c0.3-0.4,0.6-0.8,1-1.2
					c-0.7-0.3-1.2-0.5-1.7-0.7c-2.8-1-5.6-1.5-8.5-2c-2-0.3-2-0.8-3.3,1.7c-2.1,4-3.5,8.3-4.9,12.7c-3.2,10.1-5.5,20.5-7.7,30.9
					c-2.7,13-5.2,26-7.8,39c-1.7,8.8-3.3,17.7-5,26.6c-1.1,5.6-2,11.3-3.3,16.8c-0.8,3.4-1.5,6-4.2,9.5c-1,1.3-1.9,2.6-2.9,3.9
					c-3,3.8-6,7.6-8.9,11.5c-4.1,5.5-7.4,11.3-9.2,18c-0.8,3.1-1.6,6.2-2.3,9.3c-1.6,7.7-2.7,15.4-3.2,23.2
					c-0.3,4.3-0.6,8.6-0.9,12.9c-0.1,1.5,0.7,2.6,1.3,3.8c0.2-0.6,0.3-1.1,0.3-1.6c0.3-4.1,0.6-8.2,0.9-12.3c0.6-7.5,1.5-15,3-22.4
					c1.4-6.6,3.4-13.1,6.5-19.2c2.9-5.7,6.8-10.5,12.3-13.9c1.9-1.2,3.7-2.5,5.4-3.9c2.7-2.2,4.7-5,6.1-8.2c0.1-0.3,0.4-0.8,0.3-1
					c-0.6-0.8-0.1-1.3,0.2-2.1c0.4,0,0.8,0.1,1.2,0.1c3.5,0.4,7,1,10.5,1.2c8.1,0.6,16.1,0.5,24.1-0.5c3.4-0.4,6.8-1.2,10.3-1.8
					c0.8-0.1,1-0.5,1.2-1.2c0.3-2.3,0.7-4.5,1.2-6.8c1.5-7.1,3.1-14.2,4.7-21.3c0.5-2.4,1-4.7,2.1-6.9c0.5-1,0.8-2.2,1.2-3.2
					c-1.3-1.2-2.5-2.3-3.6-3.4c-0.3-0.3-0.5-0.7-0.7-1.1c-0.2-0.4-0.3-0.8-0.5-1.1c-0.9-1.6-1.8-3.1-2.7-4.6
					c-5.3-9.4-10.3-19-15.1-28.7c-0.6-1.3-1.4-2.4-2.4-3.3c-2.2-1.8-4.3-3.7-6.5-5.5c-1.9-1.6-3.8-3.2-5.7-4.8
					c-0.3-0.3-0.7-0.5-0.7-1.2c4.4,2.6,8.3,5.7,12.2,8.8c0-0.4-0.1-0.7-0.3-0.9c-2.8-5.8-5.6-11.5-8.4-17.3
					c-0.1-0.2-0.3-0.5-0.4-0.7c-0.2-0.5-0.2-1,0.4-1.3c0.5-0.3,0.9,0,1.1,0.5c0.3,0.6,0.6,1.1,0.9,1.7c4.4,9,8.7,18.1,13.3,27
					c5.1,10,10.5,19.9,15.8,29.9c0.3,0.5,0.7,1,1.1,1.4c1.9,2.1,4.1,3.8,6.5,5.3c4,2.4,7.9,4.7,12,6.9c6.6,3.5,13.4,6.6,20.5,9
					c3.4,1.1,6.8,2,10.3,2.1c2,0.1,2.1,0.1,2.9-1.8c2.3-5.4,4.3-11,5.5-16.8c0.3-1.3,0.3-2.7,0.5-4.1c-1.1-0.5-2-0.9-2.9-1.2
					c-8.4-3.3-15.6-8.3-21.6-15c-0.5-0.5-0.9-1-1.4-1.5c-0.8-0.8-1.8-1-2.9-0.7c-0.2,0.1-0.4,0.2-0.7,0.2c-1.1,0.2-1.9-0.1-2.4-1.1
					c-0.3-0.5-0.4-1.1-0.6-1.7c-0.3-0.8-0.5-1.7-0.8-2.5c-0.4-0.9-0.8-1.1-1.9-0.9c-0.6,0.1-1.2,0.4-1.9,0.4c-0.7,0-1,0.3-1.3,0.8
					c-1,1.5-2,3.1-3.1,4.5c-2.5,3.2-5,6.4-7.5,9.6c-0.8,1-1.5,2.1-2.2,3.1c-0.2,0.3-0.2,0.6-0.4,0.9c0.7-0.1,1.2-0.2,1.6-0.5
					c1.3-1,2.8-1.8,3.9-3c2.3-2.1,4.4-4.4,6.6-6.6c0.5-0.5,0.9-1,1.5-1.5c1.1-0.9,2-0.5,2.2,0.9c0.1,0.4,0,0.9,0,1.4
					c-0.6,3.8-1.3,7.7-1.9,11.5c-0.1,0.8-0.3,1.6-0.4,2.4c0.1,0,0.2,0,0.3,0.1C237.5,269,238.7,265.3,240,261.6 M247.3,224
					c0,0.7,0,1.3,0,1.9c0.3,4.5,0.5,9,0.8,13.6c0.2,4.3,0.4,8.6,0.6,12.9c0,0.5,0.2,1.2,0.5,1.5c2.5,2.6,5.1,5.1,7.8,7.6
					c0.6,0.6,1.4,1,2.2,1.2c8.6,2.7,17.3,5.4,25.9,8.1c0.7,0.2,1.4,0.4,2.1,0.4c3.6-0.1,7.2-0.1,10.8-0.4c3.1-0.2,6.1-0.7,9.1-1.1
					c0.6-0.1,1.2-0.1,1.6,0.5c0.4,0.6,0.4,1.3,0,1.8c-0.4,0.6-0.9,1.2-1.5,1.6c-1.4,1-3,1.3-4.6,1.5c-0.7,0.1-1.3,0.1-2.3,0.2
					c2,0.8,3.6,1.7,5.3,2.2c13.9,4.6,27.7,9.1,41.6,13.6c8.8,2.8,17.6,5.5,26.6,7.7c1,0.2,1.9,0.2,2.7-0.4c1.9-1.3,3.8-2.5,5.7-3.8
					c3.7-2.4,6.1-5.9,7.4-10.1c0.8-2.7,1.6-5.4,2.2-8.1c0.4-2,0.7-4,0.8-6c0.1-4.4,0.1-8.8,0.1-13.2c0-0.3-0.1-0.6-0.1-0.9
					c-0.4-0.1-0.8-0.2-1.1-0.3c-17-3.6-34.1-7-51.1-10.8c-24.2-5.4-48.4-11.1-72.6-16.6C261.1,227.1,254.3,225.6,247.3,224
					 M195.3,320.9c0,0.1,0,0.1,0,0.2c0.3,0.1,0.7,0.2,1,0.3c3.1,0.8,6.2,1.6,9.3,2.3c7.1,1.6,14.3,3,21.6,3.8c5,0.5,9.9,1,14.9,1.4
					c9.5,0.8,19.1,1.4,28.6,2.2c2.5,0.2,5,0.6,7.5,1.1c1.6,0.3,1.7,0.7,1.8,2.3c0,0.5,0,1.1,0.1,1.6c0.1,2.3,0.7,4.4,2.2,6.2
					c0.9,1.2,1.3,2.5,1.3,4c0,0.9-0.1,1.8-0.1,2.7c0.1,1,0.2,2.1,0.6,3.1c1.2,3.1,2.4,6.2,3.7,9.3c6.3,15.3,10.9,31.1,16.3,46.6
					c0.1,0.3,0.2,0.7,0.2,1.1c0,0.2-0.2,0.6-0.4,0.6c-0.2,0.1-0.6-0.1-0.7-0.3c-0.2-0.3-0.4-0.7-0.5-1.1c-1.5-4.2-3-8.4-4.3-12.6
					c-3.2-9.8-6.4-19.7-10.1-29.3c-1.8-4.6-3.7-9.3-5.4-13.9c-0.4-1-0.5-2.2-0.6-3.3c-0.1-1.1,0-2.2,0-3.3c0-0.9-0.2-1.7-0.8-2.4
					c-2.1-2.4-2.7-5.3-2.8-8.4c0-1.5,0-1.6-1.4-1.8c-2-0.4-4-0.7-6-0.8c-3.5-0.3-7-0.4-10.6-0.7c-7.3-0.6-14.5-1.2-21.8-1.8
					c-6.7-0.5-13.3-1.1-19.9-2.2c-7.9-1.4-15.8-2.9-23.4-5.2c-2.8-0.9-5.5-1.3-8.5-1.2c-6.4,0.3-12.7,0-19.1-0.7
					c-0.5-0.1-1-0.1-1.7-0.1c0.1,1.3,0.3,2.3,0.3,3.3c0.3,4,2.4,6.8,5.6,9c0.5,0.4,1.1,0.7,1.7,1c2.4,1.2,4.8,2.5,7.2,3.6
					c3.4,1.6,7,2.7,10.8,3c3.9,0.4,7.8,0,11.7-0.2c3.9-0.3,7.8-0.6,11.6-0.7c3.7-0.1,7.5,0,11.2,0.3c4,0.3,8,0.8,12,1.5
					c5.4,0.9,10.6,2.7,15.9,4.3c4.2,1.3,8.4,2.9,12.2,5.2c0.2,0.1,0.4,0.2,0.6,0.2c0.1-0.2,0.2-0.3,0.2-0.4
					c1.6-5.3,4.1-10.2,6.9-14.9c0.2-0.4,0.4-0.7,0.7-1c0.2-0.1,0.5-0.2,0.7-0.1c0.2,0.1,0.4,0.4,0.4,0.7c0,0.4-0.2,0.9-0.3,1.3
					c-1.3,3.7-2.6,7.4-3.9,11.1c-0.3,0.8-0.4,1.6-0.7,2.6c0.7-0.2,1.1-0.3,1.6-0.4c1.3-0.4,2.6-0.8,3.9-1.2c0.3-0.1,0.7-0.1,1.3-0.2
					c-0.2,0.3-0.3,0.5-0.4,0.5c-1.9,0.8-3.7,1.7-5.7,2.3c-1.3,0.4-2-0.3-1.7-1.6c0.2-1.1,0.6-2.2,0.9-3.3c0.4-1.4,0.9-2.8,1.4-4.2
					c-0.1,0-0.2,0-0.2,0.1c-1.4,2.8-2.7,5.7-4.1,8.5c-0.3,0.5-0.1,0.9,0.3,1.4c0.5,0.7,0.9,1.4,1.2,2.1c0.4,1.2,0.7,2.5,1,3.7
					c2,8.8,4.1,17.6,7.1,26.2c3,8.7,6,17.5,9,26.2c0.1,0.3,0.3,0.6,0.4,0.8c0.2,0,0.3,0.1,0.4,0.1c6.7-0.4,13.3-0.7,20-1.2
					c2.5-0.2,5-0.8,7.3-1.7c4.7-1.9,7.9-5.7,11.7-9.2c-0.4-0.2-0.6-0.3-0.8-0.5c-6.2-5.6-11.1-12.2-14.6-19.7
					c-4-8.5-6.9-17.4-9.3-26.5c-1.4-5.3-2.7-10.7-4.1-15.9c-1.2-4.4-3-8.5-5.4-12.4c-1.3-2.1-2.9-3.5-5.3-4
					c-0.9-0.2-1.8-0.5-2.8-0.7c-7.9-1.8-15.9-3.5-23.8-5.3c-8.9-2-17.8-4.1-26.7-6.3c-6.6-1.6-13.1-3.5-19.3-6.2
					c-0.2-0.1-0.3-0.1-0.6-0.1c-0.1,0.3-0.2,0.6-0.2,0.8c-0.9,4.6-1.8,9.2-2.7,13.9c-0.3,1.6-0.4,1.8-2,2.2
					c-2.4,0.5-4.8,1.1-7.3,1.5C199.4,320.4,197.4,320.6,195.3,320.9 M388.6,338.7c0.3,0.4,0.4,0.6,0.5,0.7c3.7,4.2,6.5,9,8.7,14.1
					c6.8,16.1,10.9,32.9,12.8,50.2c1,8.4,1.3,16.9,1.4,25.4c0.1,8.9-0.2,17.8-1.1,26.7c-0.2,1.5-0.4,3-0.7,4.6
					c7.2,0,14.4,0.2,21.6,0.1c0.1-1,0.2-1.8,0.3-2.6c0.3-5.3,0.5-10.7,0.8-16c0.4-7.8,0.6-15.6,1.1-23.3c0.8-11.7,2.3-23.4,4.7-34.9
					c1.6-7.7,3.6-15.2,6.6-22.5c3.3-7.8,7.7-14.8,13.9-20.6c2.8-2.6,5.8-4.9,8.9-7.1c0.4-0.3,0.8-0.6,1.1-0.8
					C442.5,334.9,415.7,336.9,388.6,338.7 M267,122.8c0-0.1,0-0.2,0-0.4c-0.3-0.2-0.7-0.4-1-0.6c-4.7-2.4-8.3-5.9-11.1-10.4
					c-1.2-2-2.3-4.1-3.4-6.1c-1.2-2.2-2.5-4.4-3.8-6.5c-2.7-4.4-6.8-6.4-11.9-6.8c-5.4-0.4-10.7,0.4-15.7,2.4
					c-0.5,0.2-1,0.4-1.6,0.5c-0.3,0-0.9-0.2-1-0.5c-0.1-0.3,0-0.8,0.2-1.1c0.1-0.3,0.4-0.5,0.7-0.7c1.9-1.6,3.2-3.6,4.5-5.6
					c0.1-0.2,0.2-0.4,0.3-0.7c-0.5,0-0.9,0-1.3,0.1c-3.2,0.7-6.3,1.6-9.2,3.2c-2.1,1.2-4,2.6-5.4,4.6c-0.7,1-1.3,0.9-2-0.2
					c-2.5-4.4-6.5-6.9-11.1-8.4c-0.3-0.1-0.7-0.1-1.3-0.2c0.4,0.7,0.7,1.1,0.9,1.5c0.8,1.5,1.7,3,2.4,4.6c0.5,1,0.7,2.2,1,3.3
					c0.1,0.6,0.1,1.2-0.6,1.5c-0.6,0.2-0.9-0.2-1.3-0.6c-0.9-1.1-2.1-1.7-3.5-2.1c-5.1-1.4-9.8-0.5-14.2,2.2
					c-0.2,0.1-0.3,0.3-0.6,0.6c1.3,0.1,2.4,0.1,3.4,0.3c1.7,0.3,3.4,0.7,5.1,1.1c0.6,0.1,1.1,0.5,1,1.3c-0.1,0.8-0.7,0.8-1.3,0.9
					c-0.2,0-0.4,0-0.5,0c-2.5,0.3-4.9,1-7.2,2.2c-3.9,2-5.6,5.5-6.2,9.6c0,0.1,0.1,0.1,0.2,0.4c1.1-0.2,2.2-0.5,3.4-0.7
					c2.5-0.5,4.7-1.4,6.3-3.5c0.4-0.6,1.1-1.1,1.7-1.6c0.2-0.2,0.5-0.5,0.8-0.6c0.4-0.1,0.8-0.2,1.1,0c0.5,0.3,0.3,0.8,0,1.2
					c-0.4,0.5-0.9,0.9-1.4,1.3c-3.1,2.8-5.5,6.1-6.8,10.1c-1.5,4.5-1.4,9,0.4,13.4c0.2,0.5,0.4,0.9,0.7,1.4c1.2-0.9,2.4-1.5,3.7-1.5
					c1.4,0,2.8,0,3.9,1c1,0.8,1.7,1.9,2.6,2.9c1-0.5,1.3-0.8,2-1.9c1.1-1.7,1.7-3.5,2.1-5.5c0.1-0.5,0.3-1,0.9-1.1
					c0.6,0,0.9,0.3,1.1,0.8c0.2,0.5,0.4,1,0.7,1.6c0.4-0.4,0.8-0.6,1.1-0.9c1.2-1.2,2.2-2.6,2.5-4.3c0.5-2.6,0.8-5.2-0.7-7.7
					c-0.6-1-0.2-2.4,0.8-2.7c1.9-0.6,3.8-1,5.8-0.7c1.8,0.3,3.5,0.9,5.2,1.7c2.5,1.2,4.8,2.8,7,4.5c2.1,1.6,4.2,3.3,6.3,4.9
					c3.9,3,8.4,4.9,13.2,5.9c1.4,0.3,2.8,0.6,4.5,0.6c0-0.7,0-1.4,0-2c-0.1-3.8-1.4-7-4.6-9.2c-0.5-0.3-0.9-0.7-1.3-1
					c-0.2-0.2-0.3-0.4-0.5-0.7c1.5-0.1,2.7,0.2,3.6,1c1,0.8,1.9,1.8,2.6,2.8c0.7,0.9,1.3,2,1.9,3c1.8,2.9,4.4,5,7.4,6.5
					c0.3,0.1,0.6,0.1,0.9,0.2c0.6-2.2,0.3-4.2-0.9-6c-0.8-1.1-1.6-2.1-2.3-3.2c-0.2-0.2-0.3-0.5-0.5-1c1.6,0.8,2.7,1.6,3.7,2.6
					c0.9,0.8,1.6,1.8,1.8,3c0.2,1.3,0.9,2.1,2,2.7c0.5,0.3,1,0.7,1.4,1.1c0.3,0.3,0.5,0.6,0.8,1c-1.7,0.5-2.6-0.8-3.7-1.3
					c-0.2,0.8-0.3,1.4-0.5,2.1c-0.4,1-1.1,1.4-2.2,1.1c-0.5-0.1-0.9-0.4-1.4-0.6c-0.6-0.3-1.1-0.6-1.8-0.9c-0.4,2.4-0.8,4.7-1.2,7
					c-0.4,2.3-1.1,4.4-1.4,6.6c1.2-0.3,2.3-0.9,3.4-0.8c2.6,0,5.1-0.4,7.6-0.9c3.7-0.8,7-2.3,9.7-5.1c0.3-0.3,0.6-0.7,0.9-1.1
					c-0.3-0.1-0.4-0.2-0.5-0.2c-0.6,0-1.2-0.1-1.5-0.8c-0.3-0.7,0.3-1.1,0.8-1.4c0.6-0.4,0.8-1,0.8-1.6c0.1-1.1-0.3-2.1-0.7-3
					c-0.8-1.8-2.1-3.2-3.4-4.6c-0.4-0.4-0.8-0.8-1.1-1.3c-0.5-0.9-0.1-1.7,0.9-1.8c0.4-0.1,0.8,0,1.2,0
					C263.9,123,265.5,122.9,267,122.8 M471.1,243.9c-2.8-10.9-5.5-21.8-8.3-32.7c-22.2-0.8-44.4-0.7-66.6-0.9
					c-0.9,2.6-1.8,5.1-2.8,7.7c1.1,0.4,2.1,0.8,3.1,1.2c2.3,1,3,2.2,2.5,4.6c-0.4,1.8-1,3.6-1.6,5.4c-2.7,7.7-5.5,15.3-8.2,23
					c-0.2,0.5-0.3,0.9-0.5,1.5c1.5,0.3,2.8,0.6,4.3,0.9c0-1,0-1.8,0-2.6c0.1-2.4,0.1-2.4,2.5-2.5c5.6-0.2,11.2-0.4,16.7-0.6
					c6.6-0.3,13.2-0.8,19.9-1.3c5.2-0.4,10.3-1,15.4-1.4c6.3-0.6,12.6-1.2,18.9-1.8C467.9,244.2,469.5,244.1,471.1,243.9
					 M362.8,338.2c0.5,0,0.8,0,1.2,0c6.9-0.4,13.9-0.7,20.8-1.1c12-0.8,24-1.6,36-2.5c10.9-0.8,21.8-1.7,32.7-2.6
					c10.5-0.9,20.9-2,31.4-3.1c1.8-0.2,3.6-0.3,5.3-0.8c1.4-0.4,2.9-0.6,4.3-0.8c1.1-0.2,2.3-0.3,3.4-0.5c1-0.2,1.1-0.4,1.2-1.4
					c0-0.4,0-0.8,0-1.2c0-3.1-0.1-6.1-0.1-9.2c0-1.3,0-2.7,0-4c0-0.3-0.1-0.7-0.1-1.2c-3,0.3-5.9,0.6-8.8,0.8
					c-6.8,0.6-13.6,1.2-20.4,1.8c-6.4,0.5-12.8,1-19.2,1.5c-7,0.5-14,1-21,1.5c-7.2,0.5-14.4,1-21.6,1.5c-7.5,0.5-15,1-22.5,1.5
					c-7.7,0.5-15.3,1-23,1.4c-0.5,0-1,0.1-1.6,0.2C361.3,326.1,361.6,332.1,362.8,338.2 M379.8,252c0.3-0.7,0.5-1.2,0.7-1.8
					c6.1-17.5,11.7-35.1,18.6-52.4c0.1-0.3,0.1-0.6,0.2-0.9c-0.3,0-0.6-0.1-0.8-0.1c-1.4-0.1-2.8-0.1-4.1-0.4
					c-3.2-0.7-6.4-1.5-9.6-2.2c-8.8-2.1-17.7-3.6-26.6-4.9c-1.7-0.3-3.4-0.4-5.1-0.6c-6.2,17.8-12.1,35.6-17.9,53.6
					C350.2,245.5,365,248.7,379.8,252 M515.7,286.1c15.2-6.5,30.9-10.6,47.3-12.4c0.1-0.7,0.2-1.5,0.2-2.2
					c0.3-7.1,0.7-14.2,0.9-21.3c0.3-8.4,0.5-16.7,0.7-25.1c0-0.3,0-0.5-0.1-0.9c-0.3,0.1-0.4,0.1-0.6,0.2c-1.9,1.2-3.9,2-6.1,2.4
					c-3.8,0.8-7.6,1.6-11.5,2.1c-8,1.1-16.1,2-24.1,3.1c-4.7,0.6-9.3,1.6-13.7,3.3c-2.6,1-5.1,2.3-7.3,4.1c-0.4,0.3-0.7,0.7-1,1
					c0,0.1,0.1,0.2,0.1,0.3c0.7,0,1.3-0.1,2-0.1c3.3-0.3,6.7-0.6,10-0.9c0.9-0.1,1.5,0.1,2,0.8c0.7,0.9,1.1,1.9,1.2,3
					c0.6,5.8,0.7,11.6,0.5,17.4c-0.2,7.9-0.5,15.7-0.7,23.6C515.6,285,515.7,285.5,515.7,286.1 M535.7,376.5
					c0.1-1.5,0.3-2.8,0.3-4.2c0.2-8.3,0.3-16.7,0.6-25c0.2-6.6,0.5-13.3,0.9-19.9c0.5-8.1,1.4-16.1,2.6-24.2
					c1.2-8,2.7-15.9,5.1-23.6c0.1-0.3,0.2-0.7,0.3-1.2c-1.7,0.4-3.2,0.8-4.7,1.1c-8,2-15.8,4.4-23.2,7.8c-2.4,1.1-1.9,0.4-2.1,3.1
					c-0.3,4.3-0.4,8.6-0.7,12.9c-0.1,1.2,0,2.5,0.2,3.7c1.3,7.4,2.1,14.9,2.6,22.5c0.3,5.5,0.5,11.1,0.7,16.6
					c0.2,6.9,0.1,13.8-0.3,20.7c-0.2,3.2-0.5,6.4-0.7,9.6H535.7z M351.8,188.5c-2.1-0.2-4.1-0.4-6.2-0.6c-5.8-0.6-11.7-1.2-17.5-2
					c-2.2-0.3-4.5-1-6.6-1.6c-1-0.3-1.9-0.9-2.9-1.4c-0.4,0.9-0.8,1.8-1.2,2.7c-3.9,8.3-8.5,16.2-13.5,23.9
					c-4.6,7-9.5,13.9-14.2,20.9c-0.3,0.4-0.5,0.8-0.8,1.3c15,3.5,29.8,6.9,44.6,10.2C339.4,223.9,345,206.1,351.8,188.5
					 M188.3,137.2c0,1,0,2,0.1,3c0.9,6.9,1.7,13.8,3.3,20.6c2.4,10.4,9,16.7,19.3,19.1c0.3,0.1,0.6,0.1,0.9,0.1
					c1.2,0,2.4-0.1,3.6-0.1c1.7,0,3.4-0.3,5-0.8c4.7-1.6,8.5-4.4,11.3-8.3c1.5-2.1,2.8-4.3,3.9-6.6c2.8-5.9,4.5-12.2,6.4-18.4
					c0.3-1.1,0.4-2.2,0.7-3.2c1.1-3.7,1.6-7.4,2-11.2c0-0.3,0.1-0.7-0.1-0.9c-0.7-0.8-1.5-1.5-2.5-2.4c0,0.9,0,1.5,0,2.2
					c-0.1,2.6-0.6,2.9-3.1,2.6c-7.1-0.9-13.5-3.5-19.1-8c-2.1-1.7-4.1-3.3-6.3-4.9c-1.9-1.5-3.9-2.8-6.2-3.8c-2.3-1-4.8-1.6-7.3-1.3
					c-1.1,0.1-1.3,0.6-0.9,1.6c0.3,0.7,0.7,1.3,0.8,2c0.5,2.3,0.4,4.6-0.2,6.8c-0.6,2-1.7,3.8-3.2,5.2c-1,0.9-2.1,1.5-3.5,0.5
					C192.2,133.5,191.1,136.1,188.3,137.2 M241.1,344c0,0.5,0,0.9,0,1.3c0,1.8,0,3.7,0,5.5c-0.1,14.3-0.3,28.6-0.4,42.8
					c0,2.2-0.3,4.4,0.2,6.6c0,0,0,0.1,0,0.1c-0.1,0.2-0.2,0.5-0.4,0.6c-0.1,0.1-0.4-0.1-0.5-0.3c-0.2-0.2-0.3-0.5-0.3-0.8
					c-0.1-0.9-0.3-1.8-0.3-2.7c-0.2-17.3,0.4-34.6,0.8-51.9c0-0.5,0-1.1,0-1.7c-3-0.7-5.8-1.1-8.8-1.4c0.4,1.3,0.3,1.2,0,2.3
					c-0.2,0.7-0.3,1.5-0.3,2.3c0,1.8,0.2,3.7,0,5.5c-0.2,2.2-0.7,4.3-1.2,6.5c-0.4,1.8-0.9,2.1-2.8,2.2c-0.4,0-0.9,0.1-1.3,0.1
					c-0.1,0.2-0.1,0.4-0.1,0.5c-0.1,2-0.2,4-0.3,6c-0.2,11.2,0.1,22.3,0.9,33.5c0.1,1.2,0.3,2.4,0.5,3.5c0.1,0.7,0.5,1,1.1,1
					c0.3,0,0.6,0,1,0c5.8-0.2,11.6-0.2,17.4-0.6c3.6-0.2,7.2-1,10.5-2.4c0.8-0.3,1.6-0.8,2.3-1.2c-1.8-17.6-1.4-35.1-1-52.5
					C255.4,347.8,243.3,344.2,241.1,344 M471.7,211.6c3.7,10.5,7.3,20.9,11.2,31.3c1.2-0.1,2.3-0.2,3.4-0.3c2.5-0.2,5-0.4,7.5-0.6
					c1.9-0.1,3.6-0.4,4.6-2.3c0.1-0.2,0.3-0.3,0.5-0.5c3.1-3.1,6.9-4.9,11-6.3c5.2-1.7,10.6-2.6,16-3.3c7.4-1,14.9-1.8,22.3-2.8
					c3.9-0.5,7.7-1.1,11.4-2.4c1.2-0.4,2.4-1,3.5-1.6c1.4-0.8,1.4-1.2,0.6-2.6c-0.8-1.4-2-2.4-3.5-3c-1.2-0.5-2.5-0.8-3.8-1.1
					c-5.5-1.1-11-1.6-16.6-2c-9.7-0.8-19.4-1.2-29.1-1.5c-11.3-0.4-22.6-0.7-33.9-1.1C475.2,211.5,473.6,211.6,471.7,211.6
					 M172.2,366.7c0,0.5,0,0.8,0,1.1c0.4,9.2,0.9,18.4,1.1,27.6c0.2,8.1,0,16.3-0.2,24.4c-0.1,4-0.4,7.9-0.8,11.9
					c-0.3,3.4-1.1,6.7-2.4,9.8c-0.8,1.9-1.8,3.6-3.4,4.9c-3.2,2.4-6.5,4.8-9.7,7.1c-0.3,0.2-0.5,0.4-1,0.8c0.6,0.1,0.9,0.1,1.3,0.1
					c7.5,0.3,15.1,0.5,22.6,0.8c7.7,0.2,15.4,0.3,23.1,0c0.4,0,0.9,0.1,1.3-0.3c-0.8-0.4-1.6-0.7-2.3-1.1c-2.5-1.2-5.1-2.3-7.6-3.6
					c-1.5-0.7-2.9-1.6-4.2-2.6c-2.4-1.8-3.6-4.2-3.7-7.2c0-1.4-0.1-2.8,0-4.3c0.3-7.8,0.6-15.6,1.1-23.4c0.4-6.8,1-13.7,1.8-20.5
					c1-8.8,2.3-17.6,3.4-26.4c0.1-0.4,0.1-0.9,0.1-1.4C185.8,365.2,179.1,365.9,172.2,366.7 M217.5,283.7c0.7,0.3,1.2,0.5,1.7,0.7
					c16.9,6,33.7,12.2,50.7,18.1c20.9,7.3,41.9,14.4,62.6,22.3c9.4,3.6,18.9,7.3,27.9,11.9c0.1,0.1,0.3,0.1,0.4,0.1
					c-0.6-5.7-1.1-11.4-1.7-17.1c-1-0.3-1.9-0.5-2.8-0.8c-9.1-2.8-18.1-6.2-27-9.6c-18.4-7-36.8-13.9-55.2-20.8
					c-0.5-0.2-0.9-0.3-1.4-0.5c-0.2,0.4-0.3,0.8-0.5,1.1c-0.9,2.2-1.8,4.5-2.7,6.7c-0.6,1.5-1.6,2.1-3.3,2.1c-3.3,0-6.5-0.6-9.6-1.5
					c-5.6-1.6-11-3.9-16.3-6.5c-6.9-3.3-13.7-6.7-20.1-11c-0.1-0.1-0.3-0.1-0.5-0.2C218.9,280.2,218.3,281.9,217.5,283.7
					 M292.4,413.3c0,0.7-0.1,1.2-0.1,1.7c-0.1,3.2,0.1,6.3,0.8,9.4c0.4,2,1,4,1.7,5.9c0.6,1.7,1.7,2.6,3.6,2.4c3-0.3,6,0.3,8.9,1.3
					c1,0.4,2.1,0.7,3.2,0.8c8.8,0.9,17.6,0.9,26.4-0.5c3.1-0.5,6.1-1,9.1-2.2c2.3-0.9,4.4-2,6.2-3.8c1-1,1.4-2.1,1.1-3.5
					c-1.3-6.7-5.2-11.5-11-14.8c-2.3-1.3-4.7-1.6-7.3-1.2c-1.4,0.2-2.8,0.6-4.2,0.9c-3.7,0.8-7.1,0.4-10.2-1.9c-0.1,0-0.2,0-0.3-0.1
					c-3.2,2.4-6.8,3.8-10.8,4.2c-3.4,0.4-6.7,0.6-10.1,0.9C297,413,294.8,413.1,292.4,413.3 M228.1,407.5c-0.1,0.6-0.3,1-0.3,1.4
					c-0.5,4.1-0.2,8.1,0.9,12.1c0.3,1,0.7,1.9,1.1,2.8c0.4,0.9,1,1.3,2.1,1.2c1.4,0,2.9,0,4.2,0.2c5.7,1,11.5,1.6,17.3,1.7
					c6,0.1,11.9,0,17.8-1c2.2-0.3,4.3-1,6.1-2.2c1.2-0.8,1.7-1.8,1.4-3.3c-0.7-3.2-1.9-6.1-3.8-8.7c-1.2-1.6-2.6-3-4.3-4.1
					c-2.3-1.5-4.8-2-7.5-1.3c-0.5,0.1-1,0.3-1.5,0.3c-1.7,0.2-3.5,0.4-5.2,0.4c-0.8,0-1.7-0.3-2.4-0.7c-0.7-0.4-1.2-0.4-1.9-0.3
					c-2.3,0.4-4.6,0.9-6.9,1c-5.2,0.3-10.3,0.3-15.5,0.5C229.2,407.5,228.7,407.5,228.1,407.5 M229.2,346.5
					c-1.9,0.2-3.8,0.4-5.6,0.6c-4.6,0.5-9.2,1-13.8,1.5c-5.1,0.5-10.2,1.1-15.3,1.5c-5.8,0.5-11.6,0.9-17.4,1.2
					c-4,0.2-8,0.2-12.1,0.3c-0.6,0-1.2,0.1-1.7,0.1c-0.3,1.9,0.1,12.6,0.4,13.6c3.3-0.3,6.7-0.4,10.1-0.8c7.4-0.8,14.7-1.6,22.1-2.6
					c10.1-1.3,20.2-2.8,30.5-2.6c1.5,0,1.5,0,1.9-1.4c1.1-3.5,1.3-7.1,1.1-10.7C229.4,347,229.3,346.8,229.2,346.5 M163,320.1
					c-0.7,2.3-1.7,4.3-3.1,6.2c-1.8,2.5-4.1,4.6-6.6,6.4c-1.7,1.2-3.5,2.4-5.2,3.6c-1,0.7-1.8,1.5-2.8,2.3c0.3,0.3,0.4,0.4,0.6,0.5
					c5.3,3.7,10.7,7.3,16.5,10.3c0.5,0.3,1.2,0.4,1.8,0.4c7.4,0.1,14.8-0.2,22.2-0.8c6.7-0.6,13.3-1.2,20-1.8
					c5.9-0.6,11.7-1.2,17.6-1.8c1.8-0.2,3.6-0.4,5.6-0.6c0-0.5,0.2-1,0-1.2c-0.7-0.9-1.5-1.8-2.9-1.8c-2.2,0-4.4-0.2-6.6-0.3
					c-6.7-0.3-13.3,0.4-20,0.9c-6.2,0.5-12.4,0-18.2-2.5c-3.3-1.5-6.6-3.2-9.8-4.8c-1.7-0.9-3.1-2.2-4.4-3.7
					c-1.3-1.5-2.3-3.2-2.6-5.2c-0.3-1.6-0.4-3.3-0.6-4.9C164.4,320.1,164.5,320.1,163,320.1 M480.9,243.1
					c-19.6-53.1-36-107-50.1-161.8c-1,1.4-1.9,2.8-2.8,4.2c0.1,0.4,0.2,0.9,0.4,1.3c7.9,26.3,15.9,52.5,23.6,78.9
					c5.7,19.3,11,38.7,16,58.2c1.5,6.1,3.2,12.2,4.8,18.3c0.1,0.5,0.3,0.9,0.5,1.5C475.8,243.5,478.3,243.3,480.9,243.1
					 M308.9,290.2c5.6-1.4,11-2.7,16.4-4.1c0-0.1,0-0.2,0-0.3c-0.5-0.1-1.1-0.2-1.5-0.5c-0.9-0.6-1.8-0.4-2.8-0.2
					c-5,1.2-10,2.4-14.9,3.6c-0.9,0.2-1.8,0.2-2.7-0.2c-0.1,0-0.1-0.2-0.2-0.3c0.3-0.2,0.7-0.3,1-0.5c0-0.1-0.1-0.2-0.1-0.3
					c-0.7,0.2-1.5,0.3-2.2,0.6c-3.1,1-6,0.5-8.8-1.2c-1.1-0.7-2.3-1.3-3.7-1.5c-0.9-0.1-3.3,0-4,0.3c0.3,0.2,0.5,0.4,0.7,0.4
					c1.5,0.6,3,1.1,4.5,1.7c2.2,0.8,4.5,1.5,6.7,2.4c2.5,0.9,5,2,7.5,2.9c1.5,0.6,3.1,1,4.6,1.5c2.8,1,5.6,2,8.4,3
					c0.4,0.1,0.9,0.2,1.3,0.4c1.1,0.5,2.1,1.1,3.1,1.5c4.2,1.6,8.4,3.1,12.6,4.7c6.9,2.5,13.7,5.1,20.6,7.6c1.1,0.4,2.4,0.7,3.1,1.8
					c0.7-0.8-0.2-1.4,0.1-2.2c0.2-0.7,0-1.6-0.1-2.4c-0.1-0.8-0.2-1.6-0.2-2.4c-1,0-1.9,0-2.7-0.8c5.3-2.1,10.5-4.1,15.9-6.2
					c-0.9-0.5-1.4-0.1-2,0.1c-4.7,1.8-9.3,3.5-14,5.3c-1.2,0.5-2.2,0.5-3.2-0.4c5.2-2,10.4-3.9,15.8-5.9c-1-0.3-1.6-0.4-2.3-0.7
					c-0.9-0.3-1.8-0.3-2.8,0.1c-4.5,1.7-9.1,3.3-13.7,5c-1.1,0.4-2,0.3-2.9-0.5c5.1-1.8,10.1-3.6,15.1-5.4c0-0.1-0.1-0.2-0.1-0.3
					c-0.4,0.1-0.8,0.2-1.2,0.3c-1.3,0.4-2.6,0.9-3.9,1.4c-3.4,1.2-6.7,2.3-10.1,3.5c-1,0.4-1.9,0.3-2.9-0.5
					c5.2-1.8,10.1-3.5,15.1-5.2c0-0.1,0-0.2,0-0.3c-0.8-0.3-1.6-0.5-2.4-0.8c-0.8-0.3-1.6-0.3-2.4,0c-4.5,1.5-9.1,3-13.7,4.6
					c-1.1,0.4-2,0.3-3-0.5c5.1-1.7,10.1-3.3,15.2-4.9c-0.6-0.7-1-0.3-1.5-0.2c-4.7,1.5-9.4,3-14.1,4.5c-1.1,0.4-1.9,0.2-2.9-0.5
					c1.8-0.6,3.5-1.1,5.2-1.6c1.7-0.5,3.4-1,5.1-1.6c1.6-0.5,3.3-0.9,4.8-1.8c-0.6-0.1-1.1,0-1.6,0.1c-4.6,1.4-9.3,2.9-13.9,4.3
					c-1.4,0.4-1.7,0.3-2.8-0.6c5.1-1.6,10.1-3.1,15.1-4.6c-0.8-0.5-1.6-0.7-2.3-1c-0.6-0.2-1.1-0.1-1.7,0c-4.7,1.4-9.5,2.8-14.2,4.2
					c-1.1,0.3-2,0.2-3.1-0.5c5.2-1.5,10.4-3,15.6-4.5c0-0.1-0.1-0.2-0.1-0.4c-0.5,0.1-0.9,0.2-1.4,0.3c-4.7,1.3-9.5,2.7-14.2,4.1
					c-1,0.3-2,0.3-2.8-0.6c5.2-1.5,10.4-2.9,15.6-4.6c-0.5-0.3-1-0.3-1.4-0.6c-1-0.5-2-0.4-3-0.1c-4.7,1.3-9.4,2.5-14.2,3.9
					c-1.1,0.3-1.9,0.1-2.9-0.5c5.4-1.5,10.7-2.8,16-4.5c-0.5-0.1-0.9-0.1-1.3,0c-0.8,0.2-1.7,0.4-2.5,0.7c-4.2,1.1-8.3,2.2-12.5,3.3
					c-1,0.3-1.9,0.2-2.9-0.6c5.3-1.4,10.6-2.7,15.8-4.1c0.1,0,0.2-0.1,0.2-0.1c0,0,0-0.1,0.1-0.1c0,0,0-0.1,0-0.3
					c-0.5,0.1-1,0.1-1.4,0.3c-5,1.2-9.9,2.5-14.9,3.8C310.9,291,310,291.1,308.9,290.2 M245.6,218.6c0.2,0.3,0.2,0.5,0.4,0.6
					c2,1.9,4,3.9,7,4.1c0.2,0,0.4,0.1,0.7,0.1c7.4,1.7,14.9,3.4,22.3,5.1c1.2,0.3,1.2,0.3,1.9-0.7c2.4-3.6,4.8-7.2,7.2-10.9
					c0.2-0.2,0.3-0.5,0.5-1c-0.6,0-1.1-0.1-1.6-0.1c-5.1,0.1-10.2,0.1-15.2,0.2c-2.9,0-5.9,0.1-8.8,0.1c-4,0.1-8,0.4-11.9,1.5
					C247.2,218.1,246.4,218.4,245.6,218.6 M289.3,311.2c-12.7-4.4-25.4-8.8-38-13.2c0.2,0.4,0.5,0.7,0.8,1c2.5,2,4.7,4.3,6.4,7.1
					c1.1,1.8,2,3.7,3,5.6c0.4,0.8,0.8,1.2,1.7,1.4c5,1.1,10.1,2.3,15.1,3.4c2.9,0.7,5.9,1.2,8.9,1.9
					C287.8,316,288.6,313.7,289.3,311.2 M359,318.4c0-0.7,0-1.2,0-1.8c0-0.5-0.3-0.8-0.7-1.1c-2.1-1-4.1-2.1-6.2-2.9
					c-8.2-3.1-16.4-6-24.6-9c-15.3-5.7-30.5-11.4-45.8-17c-1-0.4-2-0.6-3.1-0.6c-1.5,0-2.9-0.2-4.4-0.3c-0.2,0-0.5-0.1-0.7-0.1
					c-0.2,0-0.4,0.2-0.5,0.4c0,0.2,0.1,0.4,0.2,0.5c0.3,0.2,0.6,0.3,0.9,0.4c17.4,6.6,34.8,13.1,52.1,19.7
					c10.3,3.9,20.5,7.9,31,11.2C357.9,318.1,358.4,318.2,359,318.4 M161.5,364.5c0-4.4,0-8.6,0-12.8c0-0.7-0.4-0.9-0.9-1.2
					c-5.4-2.9-10.5-6.3-15.6-9.8c-0.3-0.2-0.7-0.4-1-0.6c-2,2-4.9,6.7-5.6,9.1C145.9,354.5,153.6,359.6,161.5,364.5 M274,283.8
					c0.4,0.1,0.9,0.2,1.3,0.2c2.8,0.3,5.6,0.3,8.3-0.2c4-0.6,7.7-0.5,11.2,1.9c1.3,0.9,3,1.2,4.6,1.1c0.5,0,1.1-0.2,1.7-0.4
					c-2.8-1.8-5.3-3.5-7.9-5.1c-0.4-0.3-0.9-0.3-1.4-0.4c-1.5-0.2-3-0.3-4.5-0.5c-0.9-0.1-1.9-0.5-2.8-0.8c-0.4-0.2-0.8-0.5-0.7-1
					c0.2-0.6,0.7-0.5,1.1-0.4c2.3,0.3,4.5,0.5,6.8,0.9c0.9,0.1,1.9,0.4,2.7,0.9c2.9,1.8,5.8,3.7,8.7,5.4c1.4,0.8,3,1.3,4.7,0.8
					c0.3-1.2-0.3-1.8-1.1-2.3c-1.4-0.9-2.9-1.7-4.2-2.6c-3.1-2.1-6.3-3.6-10.1-3.9c-0.5,0-1-0.2-1.4-0.4c-0.2-0.1-0.4-0.4-0.3-0.6
					c0-0.2,0.3-0.5,0.5-0.5c0.3-0.1,0.7-0.1,1.1,0c3.3,0.4,6.6,0.8,9.4,3c0.5,0.4,1,0.6,1.5,0.9c0.3,0.1,0.5,0.2,0.9,0.4
					c-0.2-1.2-0.7-2-1.8-2.4c-0.6-0.2-1.2-0.4-1.8-0.6c-2.7-0.9-5.5-1.6-8.1-2.9c-2.5-1.3-5.2-1.6-8-1.2c-2.5,0.4-5.1,0.6-7.6,0.9
					c-0.3,0-0.6,0.1-0.8,0.2C275.4,277.4,274.7,280.5,274,283.8 M287.3,231.3c0.7-1.2,1.3-2.1,1.9-3.1c4.6-6.9,9.2-13.8,13.8-20.6
					c0.4-0.6,0.8-1.3,1.3-2.1c-0.6-0.1-1.1-0.3-1.5-0.4c-2-0.3-4-0.7-5.9-1c-1.3-0.2-1.3-0.2-2.1,1c-5,7.7-9.9,15.4-14.9,23.1
					c-0.2,0.3-0.4,0.7-0.7,1.2C282,230,284.7,230.7,287.3,231.3 M252.4,310.6c0-0.2,0.1-0.3,0.1-0.3c0-0.1-0.1-0.3-0.1-0.4
					c-2.1-3.3-4.8-6-8.3-7.8c-2.8-1.4-5.8-2.4-8.9-3.2c-6.3-1.6-12.8-2.4-19.2-3.3c-0.3,0-0.6,0-0.9,0.1c-0.2,0.7-0.3,1.4-0.5,2.1
					c-0.2,0.7-0.3,1.4-0.5,2.2C226.5,304.9,239.5,307.6,252.4,310.6 M215.4,294c0.4,0.1,0.7,0.2,1.1,0.2c4.3,0.6,8.7,1,13,1.7
					c4.7,0.7,9.3,1.9,13.7,3.8c3.9,1.7,7.2,4.2,9.6,7.7c0.7,1,1.4,2,2.1,3.1c0.2,0.3,0.4,0.7,0.7,0.8c1.3,0.4,2.5,0.6,3.9,1
					c-0.1-0.4-0.1-0.6-0.2-0.7c-2.2-4.8-5.3-9-9.7-12c-1.6-1.1-3.3-2.1-5-3.1c-0.4-0.2-0.9-0.4-1.1-0.7c-0.5-0.6-1.2-0.9-1.8-1.1
					c-7.8-2.8-15.6-5.7-23.4-8.5c-0.3-0.1-0.7-0.2-1.1-0.3C216.5,288.5,215.9,291.2,215.4,294 M392.9,219.6
					c-3.8,11-7.4,21.8-11.2,32.8c1.8,0.4,3.5,0.7,5.1,1.1c0.2-0.6,0.4-1,0.5-1.4c1.3-3.7,2.7-7.5,4-11.2c1.8-5,3.6-10.1,5.4-15.1
					c0.3-0.9,0.5-1.8,0.6-2.7c0.1-0.8-0.1-1.5-0.9-1.8C395.4,220.6,394.2,220.1,392.9,219.6 M230.9,427c-0.2,1.6,0,1.8,1.2,2.4
					c0.5,0.2,1.1,0.4,1.7,0.6c5.2,1.5,10.4,2.6,15.8,2.6c7.4,0.1,14.7-0.1,22.1-0.3c1.8,0,3.5-0.5,5.3-0.8c0.6-0.1,1.2-0.4,1.4-1.1
					c0.3-0.9,0.3-3.8-0.1-4.8c-4.4,2-4.6,2.1-9.7,2.7c-2.8,0.3-5.6,0.5-8.3,0.6c-8.1,0.3-16.2-0.3-24.2-1.7
					C234.3,426.9,232.6,427,230.9,427 M277.4,389.5c-0.2-0.6-0.2-0.9-0.4-1.3c-2.9-8-5.2-16.1-7.1-24.4c-0.6-2.6-1.2-5.2-1.8-7.7
					c-0.1-0.5-0.1-1.1-0.8-1.5c0.3,11.6,0,23-0.8,34.5C270.2,389.3,273.7,389.4,277.4,389.5 M151.2,319.1c-3-0.2-9.7,0.4-12.8,1
					c-2.6,0.5-5.2,1.2-7.5,2.6c-0.5,0.3-0.9,0.7-1.5,1.1c1.5,2.1,2.6,4.2,4.2,5.9c1.6,1.7,3.7,3,5.6,4.5
					C143.3,329.1,147.2,324.2,151.2,319.1 M187.5,145.1c-1.6,0.9-2.4,2.2-2.8,3.7c-0.1,0.3,0,0.7-0.2,0.9c-0.2,0.3-0.6,0.5-0.8,0.5
					c-0.2,0-0.6-0.4-0.6-0.6c-0.1-0.5,0-1.1,0.1-1.6c0.5-1.7,1.6-3.1,3.2-3.9c0.4-0.2,0.7-0.4,1.1-0.6c-0.1-1.4-0.2-2.7-0.3-4
					c-0.1-2-1-3.5-2.2-4.9c-0.3-0.3-0.7-0.6-1.1-0.7c-2.5-0.9-4.7,0-5.9,2.3c-0.3,0.6-0.6,1.4-0.7,2.1c-0.6,5.3,1.1,9.9,4.9,13.6
					c0.7,0.7,1.7,1.1,2.6,1.4c0.8,0.3,1.7,0.2,2.6,0.1c0.8-0.1,1.2-0.7,1.1-1.3C188.1,150,187.8,147.7,187.5,145.1 M295.9,434.5
					c0,2.6,0.6,3.2,3,3.4c0.1,0,0.2,0,0.3,0c3.2,0.3,6.4,0.7,9.6,1c4.1,0.4,8.3,0.8,12.5,0.5c6.1-0.5,12.1-0.8,18.2-1.3
					c2.9-0.2,5.7-0.6,8.6-1.1c1.4-0.2,2.7-0.8,4-1.3c0.9-0.3,1.6-1,1.8-1.9c0.3-1.3,0.1-2.7-0.3-4c-0.3,0.2-0.4,0.2-0.5,0.3
					c-2.8,2.5-6,4-9.6,4.8c-4.3,1.1-8.6,1.7-13,2.1c-5.9,0.5-11.8,0.4-17.7,0c-2.3-0.2-4.5-0.5-6.7-1.3c-1.2-0.4-2.5-0.8-3.7-0.9
					C300.2,434.6,298.1,434.6,295.9,434.5 M128.6,325.8c-0.1,0.4-0.2,0.5-0.2,0.6c0.1,3.9,0.2,7.9,0.3,11.8c0,1,0.2,2.1,0.3,3.1
					c0,0.4,0.1,0.9,0.4,1.1c1,0.9,2.1,1.7,3.1,2.5c1.9-3.2,3.7-6.2,5.6-9.4c-1.8-1.4-3.6-2.8-5.4-4.2
					C130.9,330,130.1,327.8,128.6,325.8 M241.4,154.6c0.5,0.3,0.9,0.4,1.2,0.6c0.7,0.5,1.3,1.2,1.4,2.1c0,0.3-0.2,0.8-0.5,1
					c-0.4,0.3-0.8-0.1-1-0.5c-0.1-0.2-0.2-0.5-0.4-0.7c-0.3-0.4-0.7-0.8-1.2-1.4c-0.8,2.2-1.5,4.2-2.2,6.3c0.3,0,0.5,0,0.6,0
					c5.2-0.8,9.7-5.4,10.5-10.6c0.2-1.3,0.1-2.6-0.5-3.7c-0.6-1-1.3-1.4-2.5-1.2c-1.8,0.4-3.2,1.5-3.9,3.2
					C242.4,151.3,242,152.9,241.4,154.6 M208.9,181.2c-3.7-0.7-6.7-2.8-9.6-4.7c-3-2-5.2-4.9-7-8.3c-0.5,2.4-0.9,4.6-1.3,6.6
					c5.5,2.6,10.1,6.4,14.4,10.8C206.1,183.6,207.1,182.1,208.9,181.2 M188.3,180.8c4.9,0.5,9.4,1.5,13.7,3.6
					c-3.4-3.3-7.2-6.1-11.4-8.2C189.8,177.7,189.1,179.2,188.3,180.8 M293.8,272.7c0,0.1-0.1,0.2-0.1,0.2c0.9,0.3,1.8,0.9,2.8,0.9
					c1.6,0.1,3.2,0,4.8-0.2c1.4-0.2,2.9-0.5,4.3-0.8c0.7-0.2,1.4-0.6,1.8-1.4C302.7,271.8,298.3,272.2,293.8,272.7 M317,283.4
					c0-0.1,0-0.2,0-0.3c-1-0.3-1.9-0.7-2.9-1c-0.1,0-0.3-0.1-0.4,0c-1.5,0.3-3.1,0.7-4.7,1.1c0.3,0.7,0.6,1.2,0.9,1.8
					C312.3,284.5,314.7,284,317,283.4 M319.9,284.3c0-0.1-0.1-0.3-0.1-0.4c-3.3,0.7-6.6,1.5-9.8,2.3c0,0.1,0.1,0.2,0.1,0.4
					C313.3,285.9,316.6,285.1,319.9,284.3 M274,270.9c1.3,0.6,2.6,0.2,4.2-0.1C276.6,269.9,275.3,270.3,274,270.9 M263.3,265.7
					c0,0.1-0.1,0.2-0.1,0.3c0.6,0.3,1.2,0.7,1.8,1c0.6,0.2,1.2,0.8,1.8-0.1C265.7,266.4,264.5,266,263.3,265.7 M311.3,281.3
					c-1.3,0-2.6,0.3-4,0.7C308.3,282.3,310,282,311.3,281.3 M276.3,272c0,0.1,0,0.2,0,0.3c1.5-0.2,3-0.4,4.5-0.6l0-0.3
					C279.3,271.6,277.8,271.8,276.3,272 M462,208.5c-0.7,0-1.3,0.2-2,0.8h2.1C462.1,208.9,462,208.7,462,208.5 M270.6,269.5
					c0.9-0.1,1.8-0.3,2.8-0.4C272.3,268.2,271.5,269,270.6,269.5 M306.2,280.6c0,0.1,0.1,0.3,0.1,0.4c0.7-0.1,1.4,0,2-0.8
					C307.6,280.3,306.9,280.4,306.2,280.6"/>
				<path class="st2" d="M469,203.7c-0.3-0.7-0.5-1.3-0.6-1.8c-8.6-25.4-16.4-51.1-23.9-76.8c-3.8-13-7.6-26.1-10.8-39.3
					c-0.5-2.1-0.9-4.2-1.3-6.3c-0.1-0.3-0.2-0.7-0.4-1.2c-0.5,0.4-1,0.6-1.3,0.9c-1.3,1.3-2.6,2.7-4,3.9c-0.6,0.6-0.7,1.1-0.5,1.8
					c6.3,21.2,12.8,42.4,19,63.7c5.5,18.8,10.6,37.6,15.9,56.4c0.1,0.4,0.2,0.9,0.3,1.4c-1.9,0.7-3.7,1.3-5.5,2
					c-1.3,0.5-2.7,0.7-4.1,0.7c-17.8-0.2-35.6-0.3-53.4-0.4c-0.4,0-0.9,0-1.5-0.1c0.1-0.5,0.2-0.9,0.4-1.3c1.1-3,2.3-5.9,3.4-8.8
					c0.2-0.6,0.5-1.2,0.6-1.8c0.2-0.9-0.2-1.5-1.2-1.6c0,0-0.1,0-0.1,0c-3.9,0.3-7.5-0.9-11.2-1.8c-10.8-2.6-21.8-4.6-32.8-6
					c-5.6-0.7-11.3-1.2-16.9-1.7c-3.3-0.3-6.5-0.7-10.1-1.1c0.5-0.6,0.8-1.1,1.1-1.5c11.2-13.8,22.7-27.4,34.3-40.9
					c22.9-26.5,46.3-52.6,70-78.3c6.9-7.5,13.7-15.1,20.5-22.7c0.9-1,1.8-1.4,3.2-1.4c15.6,0.4,31.2,0.6,46.8,1
					c12.2,0.3,24.3,0.8,36.5,1.2c0.3,0,0.6,0.1,1.1,0.1c-0.4,0.5-0.6,0.9-1,1.3c-4.4,5.1-8.8,10.1-13.3,15.2
					c-6,6.9-12,13.7-17.8,20.7c-3.7,4.4-6.9,9.1-9.7,14.1c-1,1.9-0.7,3.1,1.2,4c1.1,0.5,2.2,0.9,3.3,1.2c8.5,2.1,16.4,5.6,24.1,9.4
					c6.3,3.1,12.5,6.4,18.4,10.2c3,1.9,5.8,4,8.4,6.4c4.2,4,6.3,8.9,6.4,14.5c0.2,8.2-2.5,15.4-7.5,21.9
					c-4.6,5.9-10.1,10.7-16.3,14.8c-7.5,5-15.5,8.9-23.9,12.3c-9.2,3.7-18.7,6.8-28.1,9.9c-5.4,1.8-10.8,3.6-16.1,5.4
					C470.2,203.3,469.7,203.5,469,203.7"/>
				<path class="st3" d="M360.9,318.9c-0.3-4.1-0.5-8-0.7-12.1c0.6-0.2,1.1-0.4,1.7-0.5c5.6-1.7,11-3.6,16.1-6.6
					c2.4-1.5,4.8-3,7.1-4.7c2.9-2.2,4.9-5.1,6.1-8.5c1.7-4.8,3.2-9.7,3.6-14.9c0.1-1.5,0.1-2.9,0.2-4.4c0-4.8,0-9.6,0-14.4
					c0-0.5,0-1,0-1.6c0.7,0,1.1-0.1,1.6-0.1c8.8-0.3,17.7-0.5,26.5-1c6.9-0.4,13.8-1.1,20.7-1.8c6.2-0.6,12.4-1.2,18.6-1.8
					c8.7-0.8,17.3-1.7,26-2.3c6.4-0.4,12.6-1.5,18.9-2.2c1.6-0.2,3.2-0.3,4.8-0.4c1.6-0.1,2,0.3,2.2,1.9c0.7,6.3,0.6,12.6,0.4,18.9
					c-0.2,7.3-0.4,14.5-0.7,21.8c-0.2,6.1-0.5,12.2-0.7,18.2c0,0.9,0,1.7-0.1,2.6c-0.1,1.3-0.2,1.5-1.5,1.7
					c-2.1,0.2-4.3,0.4-6.4,0.6c-1.2,0.1-2.4,0.1-3.6,0.1c-0.9,0-1.8,0-2.6,0.5c-0.4,0.3-1.1,0.2-1.6,0.3c-9,0.8-18.1,1.6-27.1,2.3
					c-9,0.7-18,1.4-27,2.1c-6.8,0.5-13.6,1-20.4,1.5c-7.9,0.6-15.9,1.2-23.8,1.8c-6.7,0.5-13.4,1-20.1,1.5c-5.5,0.4-11,0.8-16.6,1.3
					C361.9,318.9,361.5,318.9,360.9,318.9"/>
				<path class="st4" d="M240,261.6c-1.2,3.7-2.5,7.4-3.7,11.1c-0.1,0-0.2,0-0.3-0.1c0.1-0.8,0.3-1.6,0.4-2.4
					c0.6-3.8,1.3-7.7,1.9-11.5c0.1-0.4,0.1-0.9,0-1.4c-0.2-1.4-1.1-1.8-2.2-0.9c-0.5,0.4-1,1-1.5,1.5c-2.2,2.2-4.3,4.5-6.6,6.6
					c-1.2,1.1-2.6,2-3.9,3c-0.4,0.3-0.9,0.5-1.6,0.5c0.1-0.3,0.2-0.7,0.4-0.9c0.7-1.1,1.4-2.1,2.2-3.1c2.5-3.2,5-6.4,7.5-9.6
					c1.1-1.4,2.1-3,3.1-4.5c0.3-0.5,0.6-0.8,1.3-0.8c0.6,0,1.2-0.3,1.9-0.4c1-0.2,1.5,0,1.9,0.9c0.3,0.8,0.6,1.6,0.8,2.5
					c0.2,0.6,0.3,1.1,0.6,1.7c0.5,1,1.2,1.4,2.4,1.1c0.2,0,0.4-0.1,0.7-0.2c1.1-0.3,2.1-0.1,2.9,0.7c0.5,0.5,1,1,1.4,1.5
					c6,6.7,13.2,11.7,21.6,15c0.9,0.4,1.8,0.8,2.9,1.2c-0.2,1.4-0.2,2.8-0.5,4.1c-1.2,5.8-3.2,11.4-5.5,16.8
					c-0.8,1.9-0.8,1.9-2.9,1.8c-3.6-0.1-7-1-10.3-2.1c-7.1-2.3-13.9-5.5-20.5-9c-4.1-2.1-8.1-4.5-12-6.9c-2.4-1.4-4.6-3.2-6.5-5.3
					c-0.4-0.4-0.8-0.9-1.1-1.4c-5.3-9.9-10.6-19.8-15.8-29.9c-4.6-8.9-8.8-18-13.3-27c-0.3-0.6-0.6-1.2-0.9-1.7
					c-0.2-0.4-0.6-0.7-1.1-0.5c-0.6,0.3-0.6,0.8-0.4,1.3c0.1,0.3,0.2,0.5,0.4,0.7c2.8,5.8,5.6,11.5,8.4,17.3
					c0.1,0.3,0.2,0.6,0.3,0.9c-3.9-3.1-7.7-6.2-12.2-8.8c-0.1,0.7,0.4,0.9,0.7,1.2c1.9,1.6,3.8,3.2,5.7,4.8c2.2,1.8,4.3,3.7,6.5,5.5
					c1.1,0.9,1.8,2,2.4,3.3c4.8,9.7,9.8,19.3,15.1,28.7c0.9,1.6,1.8,3.1,2.7,4.6c0.2,0.4,0.3,0.8,0.5,1.1c0.2,0.4,0.4,0.8,0.7,1.1
					c1.1,1.1,2.3,2.2,3.6,3.4c-0.4,1-0.7,2.2-1.2,3.2c-1.1,2.2-1.6,4.6-2.1,6.9c-1.6,7.1-3.2,14.2-4.7,21.3
					c-0.5,2.2-0.9,4.5-1.2,6.8c-0.1,0.8-0.4,1.1-1.2,1.2c-3.4,0.6-6.8,1.4-10.3,1.8c-8,1-16.1,1.1-24.1,0.5c-3.5-0.3-7-0.8-10.5-1.2
					c-0.4,0-0.8-0.1-1.2-0.1c-0.2,0.7-0.8,1.3-0.2,2.1c0.1,0.2-0.2,0.7-0.3,1c-1.4,3.2-3.5,5.9-6.1,8.2c-1.7,1.4-3.5,2.8-5.4,3.9
					c-5.5,3.4-9.4,8.2-12.3,13.9c-3,6.1-5,12.6-6.5,19.2c-1.6,7.4-2.5,14.9-3,22.4c-0.3,4.1-0.6,8.2-0.9,12.3c0,0.5-0.1,1.1-0.3,1.6
					c-0.7-1.2-1.5-2.3-1.3-3.8c0.4-4.3,0.6-8.6,0.9-12.9c0.6-7.8,1.6-15.6,3.2-23.2c0.7-3.1,1.5-6.2,2.3-9.3
					c1.7-6.7,5.1-12.5,9.2-18c2.9-3.9,5.9-7.7,8.9-11.5c1-1.3,1.9-2.6,2.9-3.9c2.7-3.6,3.4-6.2,4.2-9.5c1.2-5.6,2.2-11.2,3.3-16.8
					c1.7-8.9,3.2-17.7,5-26.6c2.5-13,5.1-26,7.8-39c2.1-10.4,4.5-20.8,7.7-30.9c1.4-4.3,2.8-8.6,4.9-12.7c1.3-2.6,1.3-2,3.3-1.7
					c2.9,0.4,5.8,1,8.5,2c0.5,0.2,1,0.4,1.7,0.7c-0.4,0.5-0.7,0.9-1,1.2c-3,3.6-6.1,7.1-9.1,10.7c-0.8,1-1.5,2.1-2.2,3.1
					c-0.2,0.3-0.3,0.8-0.5,1.2c0.1,0.1,0.2,0.2,0.3,0.2c0.4-0.3,0.9-0.6,1.2-1c1.6-1.9,3.3-3.7,4.8-5.6c2.5-3,5-6.1,7.6-9.2
					c0.2,0.1,0.6,0.2,0.9,0.4c0.6,0.4,1.3,0.7,1.9,1.2c4.5,3.3,8.4,7.2,11.2,12.1c2.6,4.4,4.5,9.1,6,14c1.7,5.5,3.3,11,5.5,16.4
					c2.1,5.3,4.7,10.4,7.8,15.3c0.7,1.2,1.6,2.3,2.4,3.5c-0.3,0.4-0.5,0.8-0.9,1.2c-3.4,4.2-6.8,8.4-10.2,12.6
					c-0.8,1-1.6,2.1-2.4,3.2c-0.4,0.5-0.7,1.1-1,1.7c-0.3,0.6-0.5,1.3,0,1.9c0.6,0.7,1.4,0.5,2,0.1c0.9-0.4,1.8-0.9,2.6-1.5
					c2.5-1.7,4.6-3.8,6.7-5.9c1.1-1.1,2.1-2.3,3.1-3.5c0.3-0.4,0.7-0.7,1.2-1.2c0.3,1,0.1,1.7,0,2.4c-0.8,4.6-1.7,9.2-2.5,13.8
					c-0.1,0.8-0.3,1.6-0.4,2.4c0,0.4-0.1,0.7,0,1.1c0.1,0.3,0.3,0.7,0.5,0.7c0.3,0.1,0.8-0.1,0.9-0.3c0.4-0.5,0.7-1.1,0.9-1.7
					c1-3.3,2-6.6,3-10c0.3-1,0.5-2,0.7-2.9c0.1-0.3,0.1-0.7,0.1-1C240.2,261.6,240.1,261.6,240,261.6 M205.9,288.6
					c-0.1-1.4-0.5-1.7-1.7-1.2c-0.5,0.2-1.1,0.4-1.7,0.5c-1.7,0.2-3.4,0.4-5.1,0.4c-2.4,0-4.9-0.2-7.2-1.1c-1.8-0.7-2.1-0.5-2.2,1.5
					c0,0.5,0,0.9,0,1.4c0,3.5,0,7.1,0,10.6c0,1.8,0,3.7,0.1,5.5c0,1.3,0.3,1.7,1.6,2.1c0.3,0.1,0.6,0.2,0.9,0.3
					c2.8,0.7,5.6,1.3,8.4,2c1.6,0.4,2,0.3,2.4-1.3c1-4,2.1-8.1,3-12.1C205.1,294.3,205.4,291.4,205.9,288.6"/>
				<path class="st2" d="M247.3,224c7,1.6,13.8,3.1,20.6,4.7c24.2,5.5,48.4,11.2,72.6,16.6c17,3.8,34.1,7.2,51.1,10.8
					c0.4,0.1,0.7,0.2,1.1,0.3c0,0.3,0.1,0.6,0.1,0.9c0,4.4,0,8.8-0.1,13.2c-0.1,2-0.4,4-0.8,6c-0.6,2.7-1.4,5.4-2.2,8.1
					c-1.3,4.2-3.7,7.7-7.4,10.1c-1.9,1.3-3.8,2.5-5.7,3.8c-0.9,0.6-1.7,0.6-2.7,0.4c-9-2.1-17.8-4.8-26.6-7.7
					c-13.9-4.5-27.7-9-41.6-13.6c-1.7-0.6-3.3-1.4-5.3-2.2c0.9-0.1,1.6-0.2,2.3-0.2c1.7-0.2,3.3-0.5,4.6-1.5c0.6-0.4,1.1-1,1.5-1.6
					c0.4-0.5,0.4-1.2,0-1.8c-0.4-0.6-1-0.5-1.6-0.5c-3,0.4-6.1,0.9-9.1,1.1c-3.6,0.3-7.2,0.3-10.8,0.4c-0.7,0-1.5-0.2-2.1-0.4
					c-8.6-2.7-17.3-5.4-25.9-8.1c-0.8-0.3-1.6-0.7-2.2-1.2c-2.6-2.5-5.2-5-7.8-7.6c-0.3-0.3-0.5-1-0.5-1.5
					c-0.2-4.3-0.4-8.6-0.6-12.9c-0.2-4.5-0.5-9-0.8-13.6C247.3,225.3,247.3,224.7,247.3,224"/>
				<path class="st5" d="M195.3,320.9c2.1-0.3,4.2-0.5,6.2-0.8c2.4-0.4,4.8-0.9,7.3-1.5c1.6-0.4,1.6-0.6,2-2.2
					c0.9-4.6,1.8-9.3,2.7-13.9c0.1-0.3,0.1-0.5,0.2-0.8c0.2,0,0.4,0,0.6,0.1c6.2,2.7,12.7,4.6,19.3,6.2c8.9,2.2,17.8,4.3,26.7,6.3
					c7.9,1.8,15.9,3.5,23.8,5.3c0.9,0.2,1.8,0.5,2.8,0.7c2.4,0.6,4,2,5.3,4c2.4,3.9,4.1,8.1,5.4,12.4c1.5,5.3,2.8,10.6,4.1,15.9
					c2.4,9.1,5.4,18,9.3,26.5c3.5,7.6,8.4,14.2,14.6,19.7c0.2,0.2,0.5,0.3,0.8,0.5c-3.8,3.5-6.9,7.3-11.7,9.2
					c-2.4,0.9-4.8,1.5-7.3,1.7c-6.7,0.5-13.3,0.8-20,1.2c-0.1,0-0.2,0-0.4-0.1c-0.1-0.2-0.3-0.5-0.4-0.8c-3-8.7-6-17.5-9-26.2
					c-3-8.6-5.1-17.4-7.1-26.2c-0.3-1.2-0.6-2.5-1-3.7c-0.3-0.8-0.7-1.5-1.2-2.1c-0.3-0.5-0.5-0.8-0.3-1.4c1.4-2.8,2.7-5.7,4.1-8.5
					c0,0,0.1,0,0.2-0.1c-0.5,1.4-1,2.8-1.4,4.2c-0.3,1.1-0.7,2.2-0.9,3.3c-0.2,1.3,0.4,2,1.7,1.6c1.9-0.6,3.8-1.5,5.7-2.3
					c0.1,0,0.1-0.2,0.4-0.5c-0.6,0.1-0.9,0.1-1.3,0.2c-1.3,0.4-2.6,0.8-3.9,1.2c-0.4,0.1-0.8,0.2-1.6,0.4c0.3-1,0.4-1.8,0.7-2.6
					c1.3-3.7,2.6-7.4,3.9-11.1c0.1-0.4,0.3-0.9,0.3-1.3c0-0.2-0.2-0.6-0.4-0.7c-0.2-0.1-0.6,0-0.7,0.1c-0.3,0.3-0.5,0.6-0.7,1
					c-2.8,4.7-5.2,9.7-6.9,14.9c0,0.1-0.1,0.2-0.2,0.4c-0.2-0.1-0.4-0.1-0.6-0.2c-3.8-2.3-8-3.9-12.2-5.2
					c-5.2-1.6-10.4-3.4-15.9-4.3c-4-0.7-8-1.2-12-1.5c-3.7-0.3-7.5-0.4-11.2-0.3c-3.9,0.1-7.8,0.4-11.6,0.7
					c-3.9,0.3-7.8,0.6-11.7,0.2c-3.8-0.4-7.4-1.4-10.8-3c-2.4-1.1-4.8-2.4-7.2-3.6c-0.6-0.3-1.1-0.6-1.7-1c-3.2-2.2-5.3-5-5.6-9
					c-0.1-1-0.2-2.1-0.3-3.3c0.7,0,1.2,0,1.7,0.1c6.3,0.7,12.7,1,19.1,0.7c3-0.2,5.7,0.3,8.5,1.2c7.7,2.4,15.5,3.9,23.4,5.2
					c6.6,1.1,13.3,1.7,19.9,2.2c7.3,0.6,14.5,1.2,21.8,1.8c3.5,0.3,7,0.4,10.6,0.7c2,0.2,4,0.5,6,0.8c1.4,0.3,1.4,0.4,1.4,1.8
					c0,3.1,0.7,6,2.8,8.4c0.6,0.7,0.8,1.5,0.8,2.4c0,1.1-0.1,2.2,0,3.3c0.1,1.1,0.2,2.3,0.6,3.3c1.8,4.7,3.6,9.3,5.4,13.9
					c3.8,9.6,7,19.5,10.1,29.3c1.4,4.2,2.9,8.4,4.3,12.6c0.1,0.4,0.3,0.8,0.5,1.1c0.1,0.2,0.5,0.3,0.7,0.3c0.2-0.1,0.4-0.4,0.4-0.6
					c0-0.4-0.1-0.7-0.2-1.1c-5.4-15.5-10.1-31.4-16.3-46.6c-1.3-3.1-2.5-6.2-3.7-9.3c-0.4-1-0.5-2-0.6-3.1c-0.1-0.9,0-1.8,0.1-2.7
					c0.1-1.5-0.3-2.8-1.3-4c-1.5-1.8-2.1-3.9-2.2-6.2c0-0.5,0-1.1-0.1-1.6c-0.1-1.6-0.2-2-1.8-2.3c-2.5-0.5-5-0.9-7.5-1.1
					c-9.5-0.8-19.1-1.4-28.6-2.2c-5-0.4-9.9-0.9-14.9-1.4c-7.3-0.8-14.5-2.2-21.6-3.8c-3.1-0.7-6.2-1.5-9.3-2.3
					c-0.3-0.1-0.7-0.2-1-0.3C195.2,321,195.3,320.9,195.3,320.9"/>
				<path class="st2" d="M388.6,338.7c27-1.8,53.8-3.8,80.7-6.1c-0.4,0.3-0.8,0.6-1.1,0.8c-3.1,2.2-6.1,4.5-8.9,7.1
					c-6.2,5.8-10.6,12.8-13.9,20.6c-3.1,7.2-5.1,14.8-6.6,22.5c-2.4,11.5-3.9,23.2-4.7,34.9c-0.5,7.8-0.8,15.5-1.1,23.3
					c-0.3,5.3-0.5,10.7-0.8,16c0,0.8-0.2,1.6-0.3,2.6c-7.2,0.2-14.4-0.1-21.6-0.1c0.2-1.6,0.5-3.1,0.7-4.6
					c0.9-8.9,1.2-17.8,1.1-26.7c-0.1-8.5-0.4-16.9-1.4-25.4c-2-17.3-6-34.1-12.8-50.2c-2.2-5.1-4.9-9.9-8.7-14.1
					C389,339.3,388.9,339.1,388.6,338.7"/>
				<path class="st6" d="M267,122.8c-1.5,0.1-3.1,0.2-4.6,0.3c-0.4,0-0.8,0-1.2,0c-1,0.2-1.4,1-0.9,1.8c0.3,0.5,0.7,0.9,1.1,1.3
					c1.3,1.4,2.6,2.8,3.4,4.6c0.5,1,0.8,2,0.7,3c0,0.7-0.2,1.3-0.8,1.6c-0.5,0.3-1.1,0.7-0.8,1.4c0.2,0.7,0.9,0.8,1.5,0.8
					c0.1,0,0.2,0.1,0.5,0.2c-0.3,0.4-0.6,0.8-0.9,1.1c-2.7,2.8-6,4.3-9.7,5.1c-2.5,0.5-5,0.9-7.6,0.9c-1.1,0-2.2,0.5-3.4,0.8
					c0.2-2.2,1-4.4,1.4-6.6c0.4-2.3,0.8-4.6,1.2-7c0.7,0.3,1.2,0.6,1.8,0.9c0.5,0.2,0.9,0.4,1.4,0.6c1.1,0.3,1.8,0,2.2-1.1
					c0.2-0.6,0.4-1.3,0.5-2.1c1.2,0.5,2.1,1.7,3.7,1.3c-0.3-0.4-0.5-0.7-0.8-1c-0.4-0.4-0.9-0.8-1.4-1.1c-1.1-0.6-1.8-1.3-2-2.7
					c-0.2-1.2-0.9-2.2-1.8-3c-1-1-2.1-1.8-3.7-2.6c0.3,0.5,0.4,0.8,0.5,1c0.8,1.1,1.6,2.1,2.3,3.2c1.3,1.8,1.5,3.8,0.9,6
					c-0.4-0.1-0.7-0.1-0.9-0.2c-3-1.5-5.6-3.6-7.4-6.5c-0.6-1-1.2-2.1-1.9-3c-0.8-1-1.7-2-2.6-2.8c-1-0.8-2.2-1.1-3.6-1
					c0.2,0.3,0.4,0.5,0.5,0.7c0.4,0.4,0.8,0.7,1.3,1c3.3,2.2,4.5,5.4,4.6,9.2c0,0.6,0,1.3,0,2c-1.6,0-3.1-0.3-4.5-0.6
					c-4.8-1-9.2-2.9-13.2-5.9c-2.1-1.6-4.2-3.3-6.3-4.9c-2.2-1.7-4.5-3.3-7-4.5c-1.7-0.8-3.4-1.3-5.2-1.7c-2-0.4-3.9,0.1-5.8,0.7
					c-0.9,0.3-1.4,1.7-0.8,2.7c1.5,2.5,1.3,5.1,0.7,7.7c-0.3,1.7-1.3,3.1-2.5,4.3c-0.3,0.3-0.7,0.6-1.1,0.9
					c-0.3-0.6-0.5-1.1-0.7-1.6c-0.2-0.5-0.5-0.9-1.1-0.8c-0.6,0.1-0.8,0.5-0.9,1.1c-0.3,2-1,3.8-2.1,5.5c-0.7,1-1.1,1.4-2,1.9
					c-0.9-1-1.6-2.1-2.6-2.9c-1.1-0.9-2.5-1-3.9-1c-1.4,0-2.5,0.6-3.7,1.5c-0.3-0.5-0.5-1-0.7-1.4c-1.8-4.4-1.8-8.9-0.4-13.4
					c1.3-4,3.7-7.3,6.8-10.1c0.5-0.4,1-0.9,1.4-1.3c0.3-0.4,0.5-0.9,0-1.2c-0.3-0.2-0.8-0.1-1.1,0c-0.3,0.1-0.5,0.4-0.8,0.6
					c-0.6,0.5-1.2,1-1.7,1.6c-1.6,2.2-3.8,3-6.3,3.5c-1.2,0.2-2.3,0.5-3.4,0.7c-0.1-0.2-0.2-0.3-0.2-0.4c0.6-4.1,2.3-7.6,6.2-9.6
					c2.3-1.2,4.7-1.9,7.2-2.2c0.2,0,0.4,0,0.5,0c0.6,0,1.3-0.1,1.3-0.9c0.1-0.7-0.5-1.1-1.1-1.3c-1.7-0.4-3.4-0.8-5.1-1.1
					c-1.1-0.2-2.2-0.2-3.4-0.3c0.3-0.3,0.4-0.5,0.6-0.6c4.4-2.7,9.1-3.6,14.2-2.2c1.3,0.4,2.5,1,3.5,2.1c0.3,0.4,0.7,0.8,1.3,0.6
					c0.7-0.3,0.8-0.9,0.6-1.5c-0.3-1.1-0.5-2.2-1-3.3c-0.7-1.6-1.6-3.1-2.4-4.6c-0.2-0.4-0.5-0.8-0.9-1.5c0.6,0.1,1,0.1,1.3,0.2
					c4.6,1.6,8.6,4.1,11.1,8.4c0.6,1.1,1.3,1.2,2,0.2c1.4-2,3.2-3.5,5.4-4.6c2.9-1.6,6-2.5,9.2-3.2c0.4-0.1,0.8-0.1,1.3-0.1
					c-0.1,0.3-0.2,0.6-0.3,0.7c-1.3,2-2.6,4.1-4.5,5.6c-0.2,0.2-0.6,0.4-0.7,0.7c-0.2,0.3-0.3,0.8-0.2,1.1c0.2,0.3,0.7,0.5,1,0.5
					c0.5,0,1.1-0.3,1.6-0.5c5.1-2,10.3-2.8,15.7-2.4c5,0.4,9.2,2.4,11.9,6.8c1.3,2.1,2.5,4.3,3.8,6.5c1.2,2,2.2,4.1,3.4,6.1
					c2.8,4.4,6.4,8,11.1,10.4c0.4,0.2,0.7,0.4,1,0.6C267,122.6,267,122.7,267,122.8"/>
				<path class="st7" d="M471.1,243.9c-1.6,0.2-3.2,0.3-4.8,0.5c-6.3,0.6-12.6,1.2-18.9,1.8c-5.1,0.5-10.3,1-15.4,1.4
					c-6.6,0.5-13.2,0.9-19.9,1.3c-5.6,0.3-11.2,0.4-16.7,0.6c-2.4,0.1-2.4,0.1-2.5,2.5c0,0.8,0,1.6,0,2.6c-1.5-0.3-2.9-0.6-4.3-0.9
					c0.2-0.6,0.3-1,0.5-1.5c2.7-7.7,5.5-15.3,8.2-23c0.6-1.8,1.2-3.6,1.6-5.4c0.6-2.4-0.2-3.7-2.5-4.6c-1-0.4-1.9-0.7-3.1-1.2
					c0.9-2.6,1.8-5.1,2.8-7.7c22.2,0.2,44.4,0.1,66.6,0.9C465.6,222.2,468.3,233,471.1,243.9"/>
				<path class="st3" d="M362.8,338.2c-1.2-6-1.5-12-1.9-18.2c0.6-0.1,1.1-0.2,1.6-0.2c7.7-0.5,15.3-0.9,23-1.4
					c7.5-0.5,15-1,22.5-1.5c7.2-0.5,14.4-1,21.6-1.5c7-0.5,14-1,21-1.5c6.4-0.5,12.8-1,19.2-1.5c6.8-0.6,13.6-1.2,20.4-1.8
					c2.9-0.3,5.8-0.5,8.8-0.8c0,0.5,0.1,0.8,0.1,1.2c0,1.3-0.1,2.7,0,4c0,3.1,0.1,6.1,0.1,9.2c0,0.4,0,0.8,0,1.2
					c-0.1,1-0.2,1.2-1.2,1.4c-1.1,0.2-2.3,0.4-3.4,0.5c-1.4,0.2-2.9,0.4-4.3,0.8c-1.7,0.5-3.5,0.7-5.3,0.8
					c-10.5,1.1-20.9,2.2-31.4,3.1c-10.9,1-21.8,1.8-32.7,2.6c-12,0.9-24,1.7-36,2.5c-6.9,0.5-13.9,0.8-20.8,1.1
					C363.7,338.2,363.4,338.2,362.8,338.2"/>
				<path class="st8" d="M379.8,252c-14.9-3.2-29.6-6.4-44.6-9.7c5.7-18,11.6-35.8,17.9-53.6c1.7,0.2,3.4,0.4,5.1,0.6
					c8.9,1.3,17.8,2.8,26.6,4.9c3.2,0.8,6.4,1.6,9.6,2.2c1.3,0.3,2.7,0.3,4.1,0.4c0.2,0,0.4,0,0.8,0.1c-0.1,0.3-0.1,0.7-0.2,0.9
					c-6.9,17.2-12.5,34.9-18.6,52.4C380.3,250.7,380.1,251.3,379.8,252 M353,200.2c0,0.1,0,0.3,0,0.4c0.6,0.1,1.3,0.4,1.9,0.4
					c3.3,0.3,6.6,0.5,9.8,0.9c4.5,0.5,8.9,1.2,13.1,2.6c1.6,0.5,3.2,1.1,4.8,1.7c0.3,0.1,0.7,0.4,1.3-0.1c-0.5-0.4-0.9-0.8-1.4-1.1
					c-2.5-1.5-5.3-2.5-8.2-3.1c-6.7-1.5-13.6-1.9-20.4-1.9C353.5,200,353.2,200.1,353,200.2 M381.8,215.4c0.1-0.1,0.1-0.2,0.2-0.3
					c-0.4-0.3-0.7-0.6-1.1-0.8c-1.5-0.7-3-1.5-4.6-2.1c-4-1.5-8.2-2.3-12.4-2.8c-2.5-0.3-5-0.3-7.5-0.3c-0.4,0-1.2-0.1-1.2,0.5
					c0,0.8,0.8,0.5,1.3,0.5c4.2,0.2,8.4,0.6,12.5,1.6c3.8,0.9,7.4,2.2,11.2,3.2C380.6,215.1,381.2,215.2,381.8,215.4 M377.4,222.5
					c0-0.1,0.1-0.2,0.1-0.3c-0.3-0.2-0.6-0.5-1-0.6c-1-0.4-1.9-0.8-2.9-1.2c-4.7-1.8-9.5-2.5-14.4-3c-2.1-0.2-4.2-0.3-6.3-0.5
					c-0.6,0-1.2-0.1-1.6,0.5c0.3,0.6,0.8,0.4,1.2,0.5c4.5,0.6,9.1,1.1,13.6,2c3.3,0.6,6.6,1.6,9.8,2.4
					C376.4,222.3,376.9,222.4,377.4,222.5 M371.4,231.5c0.1-0.1,0.1-0.2,0.2-0.3c-0.3-0.3-0.5-0.7-0.9-0.9c-1-0.6-1.9-1.3-2.9-1.7
					c-4.8-2.2-9.9-3-15.1-3c-0.9,0-1.7,0.1-2.6,0.3c-0.4,0.1-0.9,0.1-1,0.7c0.7,0.3,0.7,0.3,1.4,0.3c2.6,0.1,5.2,0.2,7.8,0.5
					c4.1,0.5,8,1.9,11.7,3.6C370.5,231.2,371,231.3,371.4,231.5"/>
				<path class="st2" d="M515.7,286.1c0-0.6,0-1.1,0-1.6c0.2-7.9,0.5-15.7,0.7-23.6c0.2-5.8,0.1-11.6-0.5-17.4
					c-0.1-1.1-0.5-2.1-1.2-3c-0.6-0.7-1.2-0.9-2-0.8c-3.3,0.3-6.6,0.6-10,0.9c-0.7,0.1-1.3,0.1-2,0.1c0-0.1-0.1-0.2-0.1-0.3
					c0.3-0.3,0.7-0.7,1-1c2.2-1.8,4.6-3.1,7.3-4.1c4.4-1.7,9-2.6,13.7-3.3c8-1.1,16.1-2,24.1-3.1c3.8-0.5,7.7-1.3,11.5-2.1
					c2.2-0.4,4.2-1.3,6.1-2.4c0.1-0.1,0.3-0.1,0.6-0.2c0,0.4,0.1,0.6,0.1,0.9c-0.2,8.4-0.4,16.7-0.7,25.1
					c-0.3,7.1-0.6,14.2-0.9,21.3c0,0.8-0.1,1.5-0.2,2.2C546.5,275.5,530.9,279.6,515.7,286.1"/>
				<path class="st2" d="M535.7,376.5h-18.5c0.2-3.2,0.5-6.4,0.7-9.6c0.4-6.9,0.5-13.8,0.3-20.7c-0.2-5.5-0.4-11.1-0.7-16.6
					c-0.4-7.5-1.3-15-2.6-22.5c-0.2-1.2-0.3-2.4-0.2-3.7c0.3-4.3,0.4-8.6,0.7-12.9c0.2-2.7-0.3-2,2.1-3.1c7.5-3.4,15.3-5.8,23.2-7.8
					c1.5-0.4,3-0.7,4.7-1.1c-0.1,0.5-0.2,0.9-0.3,1.2c-2.4,7.7-3.9,15.6-5.1,23.6c-1.2,8-2.1,16.1-2.6,24.2
					c-0.4,6.6-0.7,13.3-0.9,19.9c-0.3,8.3-0.4,16.7-0.6,25C535.9,373.6,535.8,375,535.7,376.5"/>
				<path class="st8" d="M351.8,188.5c-6.8,17.6-12.4,35.4-18.3,53.3c-14.9-3.3-29.6-6.6-44.6-10.2c0.3-0.5,0.6-0.9,0.8-1.3
					c4.7-7,9.6-13.9,14.2-20.9c5-7.6,9.7-15.5,13.5-23.9c0.4-0.9,0.8-1.7,1.2-2.7c1,0.5,1.9,1.1,2.9,1.4c2.2,0.6,4.4,1.3,6.6,1.6
					c5.8,0.8,11.6,1.3,17.5,2C347.6,188.1,349.7,188.3,351.8,188.5 M305.5,221c0.4,0.5,1,0.6,1.5,0.7c6.2,1.2,12.4,2.4,18.6,3.6
					c1.8,0.3,3.6,0.7,5.4,1c0.5,0.1,1.2,0.3,1.7-0.3c-0.4-0.2-0.6-0.5-0.9-0.6c-1-0.3-1.9-0.7-2.9-0.9c-5.2-1-10.5-2-15.8-3
					c-1.8-0.3-3.5-0.5-5.3-0.7C307.1,220.6,306.3,220.4,305.5,221 M335.7,217c0.1-0.1,0.1-0.2,0.2-0.2c-0.4-0.2-0.7-0.5-1.1-0.7
					c-1.3-0.5-2.5-1.1-3.8-1.5c-6.2-1.8-12.5-2.3-18.9-2c-0.7,0-1.4,0.2-2,0.4c-0.2,0.1-0.3,0.4-0.7,0.8c4.7-0.1,9.1-0.1,13.4,0.7
					C327.1,215.2,331.4,216.2,335.7,217 M337.6,207.6c0-0.1,0.1-0.3,0.1-0.4c-0.4-0.2-0.7-0.4-1.1-0.5c-5.5-1.9-11.2-3-17-3.5
					c-0.3,0-0.6,0-0.9,0.1c-0.2,0-0.3,0.3-0.4,0.5c0,0.1,0.2,0.3,0.3,0.4c0.3,0.1,0.6,0.2,0.9,0.2c0.9,0.2,1.9,0.3,2.8,0.5
					c4.6,0.9,9.2,1.8,13.9,2.7C336.6,207.5,337.1,207.5,337.6,207.6 M323.1,194.2c0.5,0.1,0.8,0.2,1.1,0.2c2.6,0.3,5.3,0.4,7.9,0.9
					c2.6,0.4,5.1,1.1,7.6,1.7c0.5,0.1,0.9,0.4,1.6-0.1c-0.6-0.4-1.1-0.7-1.6-0.9c-2.8-1.3-5.7-1.9-8.7-2.2c-2.1-0.2-4.2-0.2-6.3-0.3
					C324.2,193.4,323.6,193.4,323.1,194.2"/>
				<path class="st9" d="M188.3,137.2c2.8-1.2,3.9-3.7,4.9-6.4c1.4,1,2.5,0.4,3.5-0.5c1.6-1.4,2.7-3.1,3.2-5.2
					c0.6-2.2,0.7-4.5,0.2-6.8c-0.1-0.7-0.5-1.4-0.8-2c-0.5-1-0.2-1.4,0.9-1.6c2.6-0.3,5,0.3,7.3,1.3c2.2,1,4.3,2.3,6.2,3.8
					c2.1,1.6,4.2,3.3,6.3,4.9c5.6,4.5,12,7.1,19.1,8c2.5,0.3,3,0,3.1-2.6c0-0.6,0-1.3,0-2.2c0.9,0.9,1.7,1.6,2.5,2.4
					c0.2,0.2,0.1,0.6,0.1,0.9c-0.4,3.8-0.9,7.5-2,11.2c-0.3,1.1-0.4,2.2-0.7,3.2c-1.8,6.2-3.5,12.5-6.4,18.4
					c-1.1,2.3-2.4,4.6-3.9,6.6c-2.9,4-6.7,6.7-11.3,8.3c-1.6,0.5-3.3,0.8-5,0.8c-1.2,0-2.4,0.1-3.6,0.1c-0.3,0-0.6-0.1-0.9-0.1
					c-10.3-2.4-16.9-8.7-19.3-19.1c-1.5-6.8-2.4-13.7-3.3-20.6C188.4,139.3,188.4,138.3,188.3,137.2 M198.7,134.6c0,0,0,0.1,0,0.1
					c-0.8,0.1-1.6,0.1-2.4,0.3c-1.1,0.2-1.9,0.9-2,2.2c-0.1,0.9-0.2,1.7-0.2,2.6c0,5,4,9.4,9,9.8c2.9,0.2,5.4-0.5,7-3.3
					c0.7-1.1,0.9-2.3,0.4-3.5c-0.5-1.1-1-2.3-1.6-3.3c-1.1-1.9-2.8-3.2-4.9-3.7C202.2,135.3,200.4,135,198.7,134.6 M231.2,141.2
					c0,0.1,0,0.1,0,0.2c-0.6,0-1.2,0-1.8,0.1c-2.5,0.3-4.8,1.2-6.4,3.3c-1.8,2.3-0.8,6.1,1,7.6c4.6,3.7,12.1,1.7,14.4-3.7
					c1.3-3,0.2-5.6-2.8-6.6C234.2,141.7,232.6,141.5,231.2,141.2 M200.3,158c-0.1,0.1-0.2,0.1-0.3,0.2c-0.3,0.9,0.1,1.8,0.5,2.6
					c1.7,3.8,4.6,6.4,8.5,7.6c4.9,1.5,9.7,1.1,14.4-0.7c0.8-0.3,1.6-0.8,2.2-1.4c0.5-0.5,0.9-1.3,1.2-2c0.2-0.4,0.1-1-0.4-1.2
					c-0.6-0.2-1,0.1-1.1,0.7c-0.3,1-1,1.5-1.8,1.9c-0.6,0.3-1.2,0.6-1.8,0.7c-3.1,0.9-6.3,1.3-9.5,0.8c-3.3-0.5-6.2-1.8-8.4-4.3
					c-1-1.2-1.8-2.5-2.7-3.8C200.7,158.8,200.5,158.4,200.3,158 M205,129.4c-2.5,0-4.2,0.5-5.1,1.5c-0.5,0.5-1,1.2-0.7,2
					c0.3,0.8,1.1,0.7,1.8,0.7c3.7-0.1,7.1,0.7,10.4,2.4c0.3,0.1,0.6,0.3,0.9,0.4c1.1,0.3,2-0.5,2-1.6c-0.1-1-0.4-1.8-1.2-2.3
					C210.4,130.6,207.6,129.6,205,129.4 M228.9,133.7c-2.4,0-3.8,0.2-4.9,0.8c-0.5,0.3-1.1,0.8-1.3,1.3c-0.5,0.9-0.1,1.6,0.9,1.8
					c0.4,0.1,0.9,0.2,1.4,0.2c3.2,0.3,6.4,0.7,9.6,1c0.5,0,0.9,0.1,1.4,0c1.2-0.2,1.6-1.1,0.8-2.1c-0.4-0.4-0.9-0.8-1.4-1.1
					C233.2,134.4,230.8,133.8,228.9,133.7 M218.3,155c0,0.4-0.1,0.7-0.1,0.9c0,0.3,0.1,0.6,0.1,1c0.2,1.1,0,1.4-1.1,1.6
					c-1.9,0.4-3.6,0.1-5.3-0.8c-0.7-0.4-1.2-1-1.3-1.8c0-0.3-0.2-0.6-0.3-0.9c-0.9,0.6-1.1,1.2-0.9,2.1c0.3,1,1,1.7,1.9,2.2
					c1.6,0.9,3.3,1.2,5,1.1c1,0,2-0.3,2.8-0.9c0.9-0.7,1.2-1.6,0.8-2.6C219.7,156.2,219.2,155.5,218.3,155"/>
				<path class="st5" d="M241.1,344c2.3,0.2,14.3,3.9,16.9,5.1c-0.4,17.4-0.8,34.9,1,52.5c-0.7,0.4-1.5,0.8-2.3,1.2
					c-3.4,1.4-6.9,2.2-10.5,2.4c-5.8,0.3-11.6,0.4-17.4,0.6c-0.3,0-0.6,0-1,0c-0.6,0-1-0.3-1.1-1c-0.2-1.2-0.4-2.4-0.5-3.5
					c-0.7-11.1-1.1-22.3-0.9-33.5c0-2,0.2-4,0.3-6c0-0.1,0.1-0.3,0.1-0.5c0.4,0,0.9-0.1,1.3-0.1c1.9-0.1,2.3-0.4,2.8-2.2
					c0.5-2.1,0.9-4.3,1.2-6.5c0.2-1.8,0-3.7,0-5.5c0-0.8,0.1-1.5,0.3-2.3c0.4-1.1,0.5-1.1,0-2.3c3,0.2,5.8,0.7,8.8,1.4
					c0,0.6,0,1.1,0,1.6c-0.5,17.3-1,34.6-0.8,51.9c0,0.9,0.2,1.8,0.3,2.7c0,0.3,0.2,0.5,0.3,0.8c0.1,0.2,0.4,0.3,0.5,0.3
					c0.2-0.1,0.3-0.4,0.4-0.6c0,0,0-0.1,0-0.1c-0.5-2.2-0.2-4.4-0.2-6.6c0.1-14.3,0.3-28.6,0.5-42.8c0-1.8,0-3.7,0-5.5
					C241.1,344.9,241.1,344.5,241.1,344"/>
				<path class="st7" d="M471.7,211.6c1.9,0,3.5,0,5.2,0c11.3,0.3,22.6,0.7,33.9,1.1c9.7,0.3,19.4,0.7,29.1,1.5
					c5.6,0.4,11.1,0.9,16.6,2c1.3,0.3,2.6,0.6,3.8,1.1c1.5,0.6,2.7,1.6,3.5,3c0.8,1.3,0.7,1.8-0.6,2.6c-1.1,0.6-2.3,1.2-3.5,1.6
					c-3.7,1.3-7.5,1.9-11.4,2.4c-7.4,1-14.9,1.8-22.3,2.8c-5.4,0.7-10.8,1.6-16,3.3c-4.1,1.4-7.9,3.2-11,6.3
					c-0.2,0.2-0.4,0.3-0.5,0.5c-1,1.8-2.8,2.2-4.6,2.3c-2.5,0.2-5,0.4-7.5,0.6c-1.1,0.1-2.2,0.2-3.4,0.3
					C479,232.5,475.4,222.1,471.7,211.6"/>
				<path class="st2" d="M172.2,366.7c6.8-0.8,13.6-1.5,20.5-2.3c0,0.5,0,0.9-0.1,1.4c-1.1,8.8-2.4,17.6-3.4,26.4
					c-0.8,6.8-1.3,13.7-1.8,20.5c-0.5,7.8-0.8,15.6-1.1,23.4c-0.1,1.4,0,2.8,0,4.3c0.1,3,1.3,5.4,3.7,7.2c1.3,1,2.7,1.9,4.2,2.6
					c2.5,1.3,5,2.4,7.6,3.6c0.7,0.3,1.5,0.7,2.3,1.1c-0.5,0.5-0.9,0.3-1.3,0.3c-7.7,0.4-15.4,0.3-23.1,0c-7.5-0.2-15.1-0.5-22.6-0.8
					c-0.3,0-0.7-0.1-1.3-0.1c0.5-0.3,0.7-0.6,1-0.8c3.2-2.4,6.5-4.7,9.7-7.1c1.7-1.2,2.7-3,3.4-4.9c1.3-3.2,2-6.5,2.4-9.8
					c0.4-4,0.7-7.9,0.8-11.9c0.2-8.1,0.4-16.3,0.2-24.4c-0.2-9.2-0.7-18.4-1.1-27.6C172.2,367.5,172.2,367.2,172.2,366.7"/>
				<path class="st3" d="M217.5,283.7c0.7-1.8,1.4-3.4,2.1-5.1c0.2,0.1,0.3,0.1,0.5,0.2c6.3,4.3,13.2,7.8,20.1,11
					c5.3,2.5,10.7,4.8,16.3,6.5c3.1,0.9,6.3,1.5,9.6,1.5c1.6,0,2.7-0.6,3.3-2.1c0.9-2.3,1.8-4.5,2.7-6.7c0.1-0.3,0.3-0.7,0.5-1.1
					c0.5,0.2,1,0.3,1.4,0.5c18.4,6.9,36.8,13.9,55.2,20.8c8.9,3.4,17.9,6.8,27,9.6c0.9,0.3,1.8,0.5,2.8,0.8
					c0.6,5.7,1.1,11.4,1.7,17.1c-0.1,0-0.3,0-0.4-0.1c-9-4.5-18.5-8.2-27.9-11.9c-20.7-7.9-41.7-15-62.6-22.3
					c-16.9-5.9-33.8-12.1-50.7-18.1C218.7,284.2,218.2,283.9,217.5,283.7"/>
				<path class="st10" d="M292.4,413.3c2.4-0.1,4.6-0.2,6.9-0.4c3.4-0.3,6.8-0.5,10.1-0.9c4-0.5,7.6-1.9,10.8-4.2
					c0.2,0,0.3,0,0.3,0.1c3.1,2.3,6.5,2.7,10.2,1.9c1.4-0.3,2.8-0.6,4.2-0.9c2.6-0.4,5-0.1,7.3,1.2c5.8,3.3,9.7,8.1,11,14.8
					c0.3,1.4-0.1,2.5-1.1,3.5c-1.8,1.7-3.9,2.9-6.2,3.8c-2.9,1.2-6,1.6-9.1,2.2c-8.8,1.5-17.6,1.4-26.4,0.5
					c-1.1-0.1-2.2-0.4-3.2-0.8c-2.9-1-5.8-1.6-8.9-1.3c-2,0.2-3.1-0.8-3.6-2.4c-0.6-1.9-1.2-3.9-1.7-5.9c-0.7-3.1-0.8-6.3-0.8-9.4
					C292.3,414.4,292.4,413.9,292.4,413.3"/>
				<path class="st10" d="M228.1,407.5c0.5,0,1,0,1.5,0c5.2-0.1,10.3-0.2,15.5-0.5c2.3-0.1,4.6-0.6,6.9-1c0.7-0.1,1.3-0.1,1.9,0.3
					c0.7,0.4,1.6,0.7,2.4,0.7c1.7,0,3.5-0.2,5.2-0.4c0.5,0,1-0.2,1.5-0.3c2.7-0.6,5.2-0.1,7.5,1.3c1.7,1.1,3.1,2.5,4.3,4.1
					c1.9,2.6,3.1,5.6,3.8,8.7c0.3,1.5-0.2,2.5-1.4,3.3c-1.9,1.2-4,1.9-6.1,2.2c-5.9,0.9-11.8,1.1-17.8,1c-5.8-0.1-11.6-0.7-17.3-1.7
					c-1.4-0.2-2.8-0.2-4.2-0.2c-1,0-1.7-0.4-2.1-1.2c-0.4-0.9-0.9-1.8-1.1-2.8c-1.1-4-1.4-8-0.9-12.1
					C227.8,408.5,228,408.1,228.1,407.5"/>
				<path class="st3" d="M229.2,346.5c0.1,0.3,0.2,0.5,0.2,0.7c0.2,3.6,0,7.2-1.1,10.7c-0.4,1.4-0.4,1.4-1.9,1.4
					c-10.2-0.2-20.3,1.4-30.5,2.6c-7.3,0.9-14.7,1.8-22.1,2.6c-3.4,0.4-6.7,0.5-10.1,0.8c-0.4-1-0.7-11.7-0.4-13.6
					c0.5,0,1.1-0.1,1.7-0.1c4-0.1,8.1-0.1,12.1-0.3c5.8-0.3,11.6-0.8,17.4-1.2c5.1-0.4,10.2-1,15.3-1.5c4.6-0.5,9.2-1,13.8-1.5
					C225.5,346.9,227.3,346.7,229.2,346.5"/>
				<path class="st7" d="M163,320.1c1.5,0,1.4,0,1.6,1.2c0.2,1.6,0.3,3.3,0.6,4.9c0.3,2,1.3,3.7,2.6,5.2c1.3,1.5,2.7,2.8,4.4,3.7
					c3.2,1.7,6.5,3.4,9.8,4.8c5.8,2.6,11.9,3,18.2,2.5c6.7-0.5,13.3-1.2,20-0.9c2.2,0.1,4.4,0.3,6.6,0.3c1.4,0,2.1,0.9,2.9,1.8
					c0.2,0.2,0,0.7,0,1.2c-1.9,0.2-3.7,0.4-5.6,0.6c-5.9,0.6-11.7,1.2-17.6,1.8c-6.6,0.6-13.3,1.2-20,1.8
					c-7.4,0.6-14.8,0.9-22.2,0.8c-0.6,0-1.3-0.1-1.8-0.4c-5.8-3-11.2-6.5-16.5-10.3c-0.2-0.1-0.3-0.3-0.6-0.5c1-0.8,1.8-1.6,2.8-2.3
					c1.7-1.2,3.5-2.4,5.2-3.6c2.5-1.8,4.8-3.9,6.6-6.4C161.3,324.4,162.3,322.4,163,320.1"/>
				<path class="st3" d="M480.9,243.1c-2.7,0.2-5.1,0.4-7.7,0.7c-0.2-0.6-0.4-1-0.5-1.5c-1.6-6.1-3.2-12.2-4.8-18.3
					c-4.9-19.5-10.3-38.9-16-58.2c-7.8-26.3-15.7-52.6-23.6-78.9c-0.1-0.4-0.3-0.9-0.4-1.3c0.9-1.4,1.9-2.8,2.8-4.2
					C445,136.1,461.3,190,480.9,243.1"/>
				<path class="st11" d="M308.9,290.2c1,0.8,2,0.8,3,0.5c5-1.3,9.9-2.5,14.9-3.8c0.5-0.1,1-0.2,1.4-0.3c0,0.2,0,0.2,0,0.3
					c0,0,0,0.1-0.1,0.1c-0.1,0.1-0.1,0.1-0.2,0.1c-5.2,1.3-10.4,2.7-15.8,4.1c0.9,0.8,1.8,0.8,2.9,0.6c4.2-1.1,8.3-2.2,12.5-3.3
					c0.8-0.2,1.7-0.5,2.5-0.7c0.4-0.1,0.9-0.1,1.3,0c-5.2,1.7-10.6,3-16,4.5c1,0.6,1.9,0.8,2.9,0.5c4.7-1.3,9.4-2.5,14.2-3.9
					c1.1-0.3,2-0.4,3,0.1c0.4,0.2,0.9,0.3,1.4,0.6c-5.1,1.7-10.3,3-15.6,4.6c0.9,0.9,1.8,0.8,2.8,0.6c4.7-1.4,9.5-2.7,14.2-4.1
					c0.4-0.1,0.9-0.2,1.4-0.3c0,0.1,0.1,0.2,0.1,0.4c-5.2,1.5-10.3,3-15.6,4.5c1,0.7,2,0.8,3.1,0.5c4.7-1.4,9.5-2.8,14.2-4.2
					c0.6-0.2,1.1-0.3,1.7,0c0.7,0.3,1.5,0.5,2.3,1c-5,1.5-10.1,3.1-15.1,4.6c1.1,0.9,1.4,1,2.8,0.6c4.6-1.4,9.3-2.9,13.9-4.3
					c0.5-0.2,1-0.2,1.6-0.1c-1.5,0.9-3.2,1.3-4.8,1.8c-1.7,0.6-3.4,1.1-5.1,1.6c-1.7,0.5-3.4,1.1-5.2,1.6c1,0.7,1.9,0.9,2.9,0.5
					c4.7-1.5,9.4-3,14.1-4.5c0.4-0.1,0.9-0.5,1.5,0.2c-5.1,1.7-10.1,3.3-15.2,4.9c1,0.8,1.9,0.9,3,0.5c4.5-1.5,9.1-3,13.7-4.6
					c0.8-0.3,1.6-0.3,2.4,0c0.8,0.3,1.6,0.5,2.4,0.8c0,0.1,0,0.2,0,0.3c-5,1.7-9.9,3.4-15.1,5.2c1,0.8,1.9,0.8,2.9,0.5
					c3.4-1.2,6.7-2.4,10.1-3.5c1.3-0.5,2.6-0.9,3.9-1.4c0.4-0.1,0.8-0.2,1.2-0.3c0,0.1,0.1,0.2,0.1,0.3c-5,1.8-10,3.6-15.1,5.4
					c0.9,0.9,1.8,0.9,2.9,0.5c4.5-1.7,9.1-3.3,13.7-5c1-0.4,1.8-0.4,2.8-0.1c0.6,0.2,1.3,0.4,2.3,0.7c-5.4,2-10.6,4-15.8,5.9
					c1.1,0.9,2.1,0.9,3.2,0.4c4.6-1.8,9.3-3.6,14-5.4c0.6-0.2,1.1-0.6,2-0.1c-5.4,2.1-10.6,4.1-15.9,6.2c0.8,0.7,1.7,0.8,2.7,0.8
					c0.1,0.8,0.2,1.6,0.2,2.4c0.1,0.8,0.3,1.7,0.1,2.4c-0.2,0.8,0.6,1.4-0.1,2.2c-0.7-1.1-2-1.4-3.1-1.8c-6.9-2.6-13.7-5.1-20.6-7.6
					c-4.2-1.6-8.4-3.1-12.6-4.7c-1.1-0.4-2.1-1-3.1-1.5c-0.4-0.2-0.8-0.3-1.3-0.4c-2.8-1-5.6-2-8.4-3c-1.5-0.5-3.1-1-4.6-1.5
					c-2.5-0.9-5-2-7.5-2.9c-2.2-0.8-4.5-1.6-6.7-2.4c-1.5-0.5-3-1.1-4.5-1.7c-0.2-0.1-0.4-0.3-0.7-0.4c0.7-0.3,3.1-0.4,4-0.3
					c1.4,0.2,2.5,0.8,3.7,1.5c2.8,1.6,5.6,2.2,8.8,1.2c0.7-0.2,1.5-0.4,2.2-0.6c0,0.1,0.1,0.2,0.1,0.3c-0.3,0.2-0.6,0.3-1,0.5
					c0.1,0.1,0.1,0.3,0.2,0.3c0.9,0.3,1.7,0.4,2.7,0.2c5-1.2,10-2.4,14.9-3.6c1-0.2,1.8-0.4,2.8,0.2c0.4,0.3,1,0.3,1.5,0.5
					c0,0.1,0,0.2,0,0.3C319.9,287.5,314.5,288.8,308.9,290.2 M337.9,304.8c0-0.1,0-0.1,0.1-0.2c-0.2-0.1-0.5-0.1-0.7-0.2
					c0,0,0,0.1,0,0.1C337.5,304.6,337.7,304.7,337.9,304.8 M328.5,301.5c0-0.1,0.1-0.2,0.1-0.2c-0.2,0-0.4-0.1-0.7-0.1
					C328.1,301.3,328.3,301.4,328.5,301.5"/>
				<path class="st7" d="M245.6,218.6c0.8-0.3,1.6-0.6,2.4-0.8c3.9-1.2,7.9-1.5,11.9-1.5c2.9-0.1,5.9-0.1,8.8-0.1
					c5.1-0.1,10.2-0.2,15.2-0.2c0.5,0,1,0.1,1.6,0.1c-0.2,0.4-0.3,0.7-0.5,1c-2.4,3.6-4.8,7.3-7.2,10.9c-0.7,1-0.7,1-1.9,0.7
					c-7.4-1.7-14.9-3.4-22.3-5.1c-0.2-0.1-0.4-0.1-0.7-0.1c-3-0.2-5-2.2-7-4.1C245.9,219.1,245.8,218.9,245.6,218.6"/>
				<path class="st2" d="M289.3,311.2c-0.8,2.5-1.5,4.8-2.2,7.1c-3-0.6-6-1.2-8.9-1.9c-5-1.1-10.1-2.3-15.1-3.4
					c-0.9-0.2-1.3-0.6-1.7-1.4c-0.9-1.9-1.9-3.8-3-5.6c-1.7-2.8-3.8-5.1-6.4-7.1c-0.3-0.2-0.6-0.5-0.8-1
					C263.9,302.4,276.6,306.8,289.3,311.2"/>
				<path class="st2" d="M359,318.4c-0.6-0.2-1.2-0.3-1.7-0.5c-10.5-3.3-20.7-7.3-31-11.2c-17.4-6.6-34.7-13.1-52.1-19.7
					c-0.3-0.1-0.6-0.2-0.9-0.4c-0.1-0.1-0.3-0.4-0.2-0.5c0-0.2,0.3-0.3,0.5-0.4c0.2-0.1,0.4,0,0.7,0.1c1.5,0.1,2.9,0.3,4.4,0.3
					c1.1,0,2.1,0.2,3.1,0.6c15.3,5.7,30.5,11.4,45.8,17c8.2,3,16.4,5.9,24.6,9c2.1,0.8,4.1,2,6.2,2.9c0.5,0.2,0.7,0.5,0.7,1.1
					C359,317.2,359,317.7,359,318.4"/>
				<path class="st3" d="M161.5,364.5c-7.9-4.9-15.6-10-23.1-15.3c0.7-2.4,3.6-7.1,5.6-9.1c0.3,0.2,0.7,0.4,1,0.6
					c5,3.5,10.1,6.9,15.6,9.8c0.5,0.3,0.9,0.6,0.9,1.2C161.5,355.9,161.5,360.1,161.5,364.5"/>
				<path class="st9" d="M274,283.8c0.7-3.3,1.4-6.4,2.1-9.7c0.2,0,0.5-0.1,0.8-0.2c2.5-0.3,5.1-0.5,7.6-0.9c2.8-0.4,5.5-0.1,8,1.2
					c2.6,1.3,5.4,2,8.1,2.9c0.6,0.2,1.2,0.4,1.8,0.6c1.1,0.3,1.6,1.1,1.8,2.4c-0.4-0.2-0.7-0.3-0.9-0.4c-0.5-0.3-1.1-0.6-1.5-0.9
					c-2.8-2.2-6.1-2.6-9.4-3c-0.4,0-0.7-0.1-1.1,0c-0.2,0.1-0.5,0.3-0.5,0.5c0,0.2,0.2,0.6,0.3,0.6c0.5,0.2,1,0.4,1.4,0.4
					c3.8,0.3,7,1.8,10.1,3.9c1.4,0.9,2.8,1.7,4.2,2.6c0.8,0.5,1.3,1.1,1.1,2.3c-1.7,0.5-3.2,0.1-4.7-0.8c-3-1.7-5.8-3.7-8.7-5.4
					c-0.8-0.5-1.8-0.7-2.7-0.9c-2.3-0.4-4.5-0.6-6.8-0.9c-0.5-0.1-1-0.2-1.1,0.4c-0.2,0.5,0.2,0.9,0.7,1c0.9,0.3,1.8,0.6,2.8,0.8
					c1.5,0.2,3,0.3,4.5,0.5c0.5,0.1,1,0.1,1.4,0.4c2.6,1.6,5.1,3.3,7.9,5.1c-0.7,0.2-1.2,0.3-1.7,0.4c-1.6,0.1-3.3-0.2-4.6-1.1
					c-3.5-2.3-7.2-2.5-11.2-1.9c-2.8,0.4-5.6,0.5-8.3,0.2C274.8,284,274.4,283.9,274,283.8"/>
				<path class="st2" d="M287.3,231.3c-2.6-0.6-5.3-1.3-8.1-1.9c0.3-0.5,0.5-0.8,0.7-1.2c5-7.7,9.9-15.4,14.9-23.1
					c0.8-1.2,0.8-1.2,2.1-1c2,0.3,4,0.7,5.9,1c0.4,0.1,0.9,0.2,1.5,0.4c-0.5,0.8-0.9,1.4-1.3,2.1c-4.6,6.9-9.2,13.8-13.8,20.6
					C288.6,229.2,288,230.2,287.3,231.3"/>
				<path class="st5" d="M252.4,310.6c-12.9-2.9-25.9-5.7-38.4-10.6c0.2-0.8,0.3-1.5,0.5-2.2c0.1-0.7,0.3-1.3,0.5-2.1
					c0.3,0,0.6-0.1,0.9-0.1c6.4,0.9,12.9,1.6,19.2,3.3c3.1,0.8,6,1.8,8.9,3.2c3.6,1.8,6.2,4.5,8.3,7.8c0.1,0.1,0.1,0.2,0.1,0.4
					C252.4,310.3,252.4,310.3,252.4,310.6"/>
				<path class="st2" d="M392.9,219.6c1.3,0.6,2.5,1,3.7,1.6c0.8,0.3,1,1,0.9,1.8c-0.2,0.9-0.3,1.8-0.6,2.7
					c-1.8,5-3.6,10.1-5.4,15.1c-1.3,3.7-2.7,7.5-4,11.2c-0.2,0.4-0.3,0.8-0.5,1.4c-1.7-0.3-3.3-0.7-5.1-1.1
					C385.4,241.4,389.1,230.6,392.9,219.6"/>
				<path class="st12" d="M230.9,427c1.7,0,3.4-0.1,5.1,0.2c8,1.4,16.1,2,24.2,1.7c2.8-0.1,5.6-0.3,8.3-0.6c5.1-0.6,5.3-0.7,9.7-2.7
					c0.4,1,0.4,3.9,0.1,4.8c-0.2,0.7-0.8,1-1.4,1.1c-1.8,0.3-3.5,0.7-5.3,0.8c-7.4,0.2-14.7,0.3-22.1,0.3c-5.4,0-10.6-1.2-15.8-2.6
					c-0.6-0.2-1.1-0.4-1.7-0.6C230.8,428.8,230.7,428.6,230.9,427"/>
				<path class="st2" d="M277.4,389.5c-3.7-0.1-7.2-0.3-10.8-0.4c0.7-11.5,1-22.9,0.8-34.5c0.7,0.4,0.7,1,0.8,1.5
					c0.6,2.6,1.2,5.2,1.8,7.7c1.9,8.3,4.2,16.4,7.1,24.4C277.2,388.6,277.2,388.9,277.4,389.5"/>
				<path class="st7" d="M151.2,319.1c-4,5.1-7.9,10-11.9,15c-1.9-1.5-4-2.8-5.6-4.5c-1.6-1.7-2.8-3.8-4.2-5.9
					c0.6-0.4,1-0.8,1.5-1.1c2.3-1.4,4.8-2.1,7.5-2.6C141.6,319.5,148.2,318.9,151.2,319.1"/>
				<path class="st9" d="M187.5,145.1c0.3,2.6,0.6,4.8,0.9,7.1c0.1,0.6-0.3,1.2-1.1,1.3c-0.8,0.1-1.8,0.1-2.6-0.1
					c-0.9-0.3-1.9-0.8-2.6-1.4c-3.9-3.7-5.5-8.3-4.9-13.6c0.1-0.7,0.4-1.4,0.7-2.1c1.2-2.3,3.4-3.2,5.9-2.3c0.4,0.2,0.9,0.4,1.1,0.7
					c1.2,1.4,2.2,2.9,2.2,4.9c0,1.3,0.2,2.6,0.3,4c-0.4,0.2-0.7,0.4-1.1,0.6c-1.6,0.9-2.7,2.2-3.2,3.9c-0.1,0.5-0.2,1.1-0.1,1.6
					c0,0.2,0.4,0.6,0.6,0.6c0.3,0,0.7-0.2,0.8-0.5c0.2-0.2,0.1-0.6,0.2-0.9C185.1,147.3,185.9,146.1,187.5,145.1"/>
				<path class="st12" d="M295.9,434.5c2.2,0.1,4.3,0.1,6.4,0.3c1.3,0.1,2.5,0.5,3.7,0.9c2.2,0.8,4.4,1.1,6.7,1.3
					c5.9,0.4,11.8,0.6,17.7,0c4.4-0.4,8.7-1.1,13-2.1c3.6-0.9,6.8-2.4,9.6-4.8c0.1-0.1,0.2-0.1,0.5-0.3c0.4,1.4,0.6,2.7,0.3,4
					c-0.2,1-0.9,1.6-1.8,1.9c-1.3,0.5-2.6,1.1-4,1.3c-2.8,0.5-5.7,0.9-8.6,1.1c-6.1,0.5-12.1,0.8-18.2,1.3
					c-4.2,0.3-8.3-0.1-12.5-0.5c-3.2-0.3-6.4-0.7-9.6-1c-0.1,0-0.2,0-0.3,0C296.5,437.7,295.9,437.1,295.9,434.5"/>
				<path class="st3" d="M128.6,325.8c1.5,2,2.3,4.2,4.2,5.7c1.8,1.4,3.6,2.8,5.4,4.2c-1.9,3.1-3.7,6.2-5.6,9.4
					c-1-0.8-2.1-1.6-3.1-2.5c-0.3-0.2-0.4-0.7-0.4-1.1c-0.1-1-0.2-2.1-0.3-3.1c-0.1-3.9-0.2-7.9-0.3-11.8
					C128.4,326.3,128.5,326.2,128.6,325.8"/>
				<path class="st9" d="M241.4,154.6c0.6-1.7,1-3.4,1.6-4.9c0.7-1.6,2.1-2.8,3.9-3.2c1.2-0.2,2,0.1,2.5,1.2
					c0.6,1.2,0.7,2.4,0.5,3.7c-0.8,5.2-5.3,9.8-10.5,10.6c-0.1,0-0.3,0-0.6,0c0.7-2.1,1.4-4,2.2-6.3c0.5,0.6,0.9,1,1.2,1.4
					c0.2,0.2,0.2,0.5,0.4,0.7c0.2,0.4,0.6,0.7,1,0.5c0.3-0.2,0.5-0.7,0.5-1c-0.1-0.9-0.7-1.6-1.4-2.1
					C242.3,155,241.9,154.9,241.4,154.6"/>
				<path class="st9" d="M208.9,181.2c-1.8,0.9-2.8,2.4-3.5,4.4c-4.3-4.4-8.8-8.2-14.4-10.8c0.4-2.1,0.8-4.2,1.3-6.6
					c1.8,3.4,4,6.3,7,8.3C202.2,178.4,205.1,180.5,208.9,181.2"/>
				<path class="st11" d="M188.3,180.8c0.8-1.7,1.5-3.1,2.3-4.6c4.2,2.1,8,4.9,11.4,8.2C197.7,182.4,193.1,181.4,188.3,180.8"/>
				<path class="st9" d="M293.8,272.7c4.5-0.4,8.9-0.9,13.5-1.3c-0.4,0.8-1.1,1.2-1.8,1.4c-1.4,0.4-2.8,0.7-4.3,0.8
					c-1.6,0.2-3.2,0.3-4.8,0.2c-0.9-0.1-1.8-0.6-2.8-0.9C293.7,272.8,293.8,272.7,293.8,272.7"/>
				<path class="st11" d="M317,283.4c-2.4,0.5-4.7,1.1-7.1,1.6c-0.3-0.6-0.6-1.2-0.9-1.8c1.6-0.4,3.2-0.7,4.7-1.1c0.1,0,0.3,0,0.4,0
					c1,0.3,1.9,0.7,2.9,1C317,283.2,317,283.3,317,283.4"/>
				<path class="st11" d="M319.9,284.3c-3.3,0.8-6.6,1.5-9.9,2.3c0-0.1-0.1-0.2-0.1-0.4c3.3-0.9,6.6-1.6,9.8-2.3
					C319.8,284.1,319.8,284.2,319.9,284.3"/>
				<path class="st11" d="M274,270.9c1.3-0.5,2.6-0.9,4.2-0.1C276.6,271,275.3,271.5,274,270.9"/>
				<path class="st11" d="M263.3,265.7c1.2,0.4,2.3,0.7,3.5,1.1c-0.6,0.9-1.3,0.3-1.8,0.1c-0.6-0.3-1.2-0.6-1.8-1
					C263.3,265.8,263.3,265.7,263.3,265.7"/>
				<path class="st11" d="M311.3,281.3c-1.2,0.7-3,1-4,0.7C308.7,281.6,309.9,281.2,311.3,281.3"/>
				<path class="st11" d="M276.3,272c1.5-0.2,3-0.4,4.5-0.7l0,0.3c-1.5,0.2-3,0.4-4.5,0.6C276.3,272.2,276.3,272.1,276.3,272"/>
				<path class="st11" d="M270.6,269.5c0.9-0.4,1.7-1.3,2.8-0.4C272.4,269.2,271.5,269.3,270.6,269.5"/>
				<path class="st11" d="M306.2,280.6c0.7-0.2,1.4-0.3,2.1-0.5c-0.5,0.8-1.3,0.7-2,0.8C306.2,280.8,306.2,280.7,306.2,280.6"/>
				<path class="st1" d="M205.9,288.6c-0.5,2.8-0.9,5.6-1.5,8.4c-0.9,4.1-2,8.1-3,12.1c-0.4,1.6-0.8,1.7-2.4,1.3
					c-2.8-0.7-5.6-1.3-8.4-2c-0.3-0.1-0.6-0.2-0.9-0.3c-1.3-0.4-1.5-0.7-1.6-2.1c-0.1-1.8-0.1-3.7-0.1-5.5c0-3.5,0-7.1,0-10.6
					c0-0.5,0-0.9,0-1.4c0.1-2,0.4-2.2,2.2-1.5c2.3,0.9,4.7,1.1,7.2,1.1c1.7,0,3.4-0.2,5.1-0.4c0.6-0.1,1.2-0.3,1.7-0.5
					C205.5,287,205.9,287.2,205.9,288.6 M189.8,306.6c3.4,0.8,6.6,1.6,9.9,2.3c1.4-2.7,4.7-17.9,4.4-19.7c-4.8,0.8-9.5,0.9-14.2-0.4
					V306.6z"/>
				<path class="st1" d="M353,200.2c0.3-0.1,0.6-0.2,0.9-0.2c6.9,0,13.7,0.4,20.4,1.9c2.9,0.6,5.6,1.6,8.2,3.1
					c0.5,0.3,0.9,0.7,1.4,1.1c-0.5,0.5-0.9,0.2-1.3,0.1c-1.6-0.5-3.2-1.1-4.8-1.7c-4.3-1.4-8.7-2.2-13.1-2.6
					c-3.3-0.3-6.6-0.6-9.8-0.9c-0.6-0.1-1.3-0.3-1.9-0.4C352.9,200.5,352.9,200.3,353,200.2"/>
				<path class="st1" d="M381.8,215.4c-0.6-0.2-1.2-0.3-1.8-0.5c-3.7-1.1-7.4-2.3-11.2-3.2c-4.1-1-8.3-1.4-12.5-1.6
					c-0.5,0-1.3,0.3-1.3-0.5c0-0.7,0.8-0.5,1.2-0.5c2.5,0.1,5,0.1,7.5,0.3c4.2,0.4,8.4,1.3,12.4,2.8c1.6,0.6,3.1,1.4,4.6,2.1
					c0.4,0.2,0.8,0.5,1.1,0.8C381.9,215.2,381.8,215.3,381.8,215.4"/>
				<path class="st1" d="M377.4,222.5c-0.5-0.1-1-0.2-1.5-0.3c-3.3-0.8-6.5-1.8-9.8-2.4c-4.5-0.8-9-1.3-13.6-2
					c-0.4-0.1-0.9,0.1-1.2-0.5c0.4-0.6,1.1-0.5,1.6-0.5c2.1,0.1,4.2,0.3,6.3,0.5c4.9,0.5,9.8,1.3,14.4,3c1,0.4,2,0.8,2.9,1.2
					c0.3,0.2,0.6,0.4,1,0.6C377.5,222.3,377.5,222.4,377.4,222.5"/>
				<path class="st1" d="M371.4,231.5c-0.5-0.2-1-0.3-1.4-0.5c-3.7-1.8-7.6-3.2-11.7-3.6c-2.6-0.3-5.2-0.3-7.8-0.5
					c-0.7,0-0.7,0-1.4-0.3c0.1-0.6,0.6-0.6,1-0.7c0.9-0.1,1.7-0.3,2.6-0.3c5.2,0,10.3,0.8,15.1,3c1,0.5,2,1.1,2.9,1.7
					c0.3,0.2,0.6,0.6,0.9,0.9C371.6,231.3,371.5,231.4,371.4,231.5"/>
				<path class="st1" d="M305.5,221c0.8-0.6,1.6-0.3,2.3-0.2c1.8,0.2,3.5,0.4,5.3,0.7c5.3,1,10.5,2,15.8,3c1,0.2,1.9,0.5,2.9,0.9
					c0.3,0.1,0.6,0.3,0.9,0.6c-0.6,0.7-1.2,0.4-1.7,0.3c-1.8-0.3-3.6-0.6-5.4-1c-6.2-1.2-12.4-2.4-18.6-3.6
					C306.5,221.5,305.9,221.5,305.5,221"/>
				<path class="st1" d="M335.7,217c-4.3-0.8-8.6-1.8-12.9-2.5c-4.3-0.7-8.7-0.8-13.4-0.7c0.3-0.4,0.5-0.8,0.7-0.8
					c0.7-0.2,1.3-0.3,2-0.4c6.4-0.3,12.7,0.2,18.9,2c1.3,0.4,2.6,0.9,3.8,1.5c0.4,0.2,0.7,0.5,1.1,0.7
					C335.8,216.9,335.7,216.9,335.7,217"/>
				<path class="st1" d="M337.6,207.6c-0.5,0-1-0.1-1.4-0.1c-4.6-0.9-9.2-1.8-13.9-2.7c-0.9-0.2-1.9-0.3-2.8-0.5
					c-0.3-0.1-0.6-0.1-0.9-0.2c-0.1-0.1-0.3-0.3-0.3-0.4c0.1-0.2,0.2-0.4,0.4-0.5c0.3-0.1,0.6-0.1,0.9-0.1c5.8,0.5,11.5,1.6,17,3.5
					c0.4,0.1,0.7,0.3,1.1,0.5C337.7,207.3,337.6,207.5,337.6,207.6"/>
				<path class="st1" d="M323.1,194.2c0.5-0.8,1.1-0.8,1.6-0.8c2.1,0.1,4.2,0.1,6.3,0.3c3,0.3,6,0.9,8.7,2.2c0.5,0.2,1,0.6,1.6,0.9
					c-0.7,0.5-1.1,0.2-1.6,0.1c-2.5-0.6-5-1.3-7.6-1.7c-2.6-0.4-5.2-0.6-7.9-0.9C323.9,194.4,323.6,194.3,323.1,194.2"/>
				<path class="st1" d="M198.7,134.6c1.7,0.3,3.5,0.6,5.2,1.1c2.1,0.6,3.8,1.9,4.9,3.7c0.6,1.1,1.1,2.2,1.6,3.3
					c0.5,1.2,0.3,2.4-0.4,3.5c-1.6,2.7-4.1,3.5-7,3.3c-5-0.4-9-4.7-9-9.8c0-0.9,0.1-1.7,0.2-2.6c0.1-1.2,0.8-1.9,2-2.2
					c0.8-0.2,1.6-0.2,2.4-0.3C198.7,134.7,198.7,134.7,198.7,134.6 M200.5,136.9c-1.3-0.3-2.8-0.4-3.7-0.1c-0.5,0.1-0.8,0.4-0.9,0.9
					c-0.9,3.8,1.3,8.2,5,9.7c1.7,0.7,3.4,0.7,5.1,0.2c1.4-0.4,2.4-1.3,2.8-3c-0.3,0.3-0.5,0.4-0.6,0.5c-3.3,2.7-7.2,1.5-8.3-2.6
					C199.3,140.5,199.5,138.6,200.5,136.9 M204.6,144.6c1.6,0,3.2-1.2,3.5-2.6c0.1-0.3,0-0.6-0.1-0.9c-1-1.6-2.2-2.9-4-3.6
					c-1.3-0.5-2.1-0.2-2.5,1.2c-0.4,1.6-0.2,3.2,0.8,4.6C202.9,144.2,203.7,144.6,204.6,144.6"/>
				<path class="st1" d="M231.2,141.2c1.5,0.3,3,0.4,4.4,0.9c3.1,1,4.1,3.6,2.8,6.6c-2.3,5.4-9.9,7.3-14.4,3.7
					c-1.8-1.5-2.8-5.3-1-7.6c1.6-2.1,3.8-3,6.4-3.3c0.6-0.1,1.2-0.1,1.8-0.1C231.1,141.4,231.2,141.3,231.2,141.2 M233.6,143.4
					c0,0.3,0.1,0.5,0.1,0.7c0.1,0.9,0.2,1.7,0.2,2.6c-0.2,2.5-2.1,4.4-4.5,4.5c-2.4,0.1-4.6-1.6-5.1-4.1c-0.1-0.3-0.1-0.6-0.1-0.9
					c-0.4,0.2-0.6,0.5-0.6,0.7c0.1,0.8,0.2,1.7,0.5,2.4c0.3,0.6,0.7,1.3,1.3,1.7c3.7,2.6,9,1.4,11.1-2.6c0.3-0.5,0.5-1.1,0.6-1.7
					c0.2-1-0.1-1.8-0.9-2.4C235.4,143.9,234.6,143.5,233.6,143.4 M230.2,143c-1,0.2-2,0.4-3.1,0.7c-0.8,0.2-1.2,0.8-1.3,1.6
					c0,0.5-0.1,0.9,0,1.4c0.2,1.6,1.5,2.8,3.1,2.8c1.6,0.1,2.7-0.9,3.1-2.5c0.3-1,0.1-1.9-0.2-2.8C231.5,143.4,231,142.9,230.2,143"
					/>
				<path class="st1" d="M200.3,158c0.3,0.4,0.5,0.8,0.8,1.2c0.9,1.3,1.6,2.7,2.7,3.8c2.2,2.5,5.1,3.8,8.4,4.3
					c3.2,0.4,6.4,0.1,9.5-0.8c0.6-0.2,1.2-0.4,1.8-0.7c0.8-0.4,1.6-1,1.8-1.9c0.1-0.5,0.5-0.9,1.1-0.7c0.5,0.2,0.6,0.7,0.4,1.2
					c-0.3,0.7-0.6,1.4-1.2,2c-0.6,0.6-1.4,1.1-2.2,1.4c-4.7,1.8-9.5,2.2-14.4,0.7c-4-1.2-6.8-3.9-8.5-7.6c-0.4-0.8-0.8-1.6-0.5-2.6
					C200,158.1,200.1,158,200.3,158"/>
				<path class="st1" d="M205,129.4c2.6,0.2,5.4,1.2,8,2.9c0.8,0.5,1.2,1.4,1.2,2.3c0.1,1.1-0.8,1.9-2,1.6c-0.3-0.1-0.6-0.3-0.9-0.4
					c-3.3-1.6-6.7-2.5-10.4-2.4c-0.7,0-1.4,0.2-1.8-0.7c-0.3-0.8,0.1-1.4,0.7-2C200.9,129.9,202.5,129.4,205,129.4 M201,131.9
					c0.3,0.1,0.5,0.2,0.6,0.2c3.7,0,7.2,0.8,10.3,2.7c0.2,0.1,0.6,0.1,0.9,0.1c0.1-0.7-0.1-1.2-0.6-1.5c-2.5-1.6-5.2-2.6-8.3-2.6
					C202.9,130.8,201.9,131,201,131.9"/>
				<path class="st1" d="M228.9,133.7c1.9,0,4.3,0.6,6.4,2c0.5,0.3,1,0.7,1.4,1.1c0.8,0.9,0.4,1.9-0.8,2.1c-0.4,0.1-0.9,0-1.4,0
					c-3.2-0.3-6.4-0.7-9.6-1c-0.5,0-0.9-0.1-1.4-0.2c-1-0.2-1.4-0.9-0.9-1.8c0.3-0.5,0.8-1,1.3-1.3
					C225.1,133.9,226.5,133.7,228.9,133.7 M234.8,137.4c-2.7-2.3-8.3-2.9-10.4-1.2c0.7,0.5,1.4,0.6,2.2,0.6c1.5,0,3.1,0.1,4.6,0.2
					C232.4,137.1,233.4,137.2,234.8,137.4"/>
				<path class="st1" d="M218.3,155c1,0.5,1.5,1.2,1.7,1.9c0.4,1,0.1,1.9-0.8,2.6c-0.8,0.6-1.8,0.9-2.8,0.9c-1.8,0.1-3.5-0.2-5-1.1
					c-0.9-0.5-1.6-1.2-1.9-2.2c-0.2-0.9,0-1.5,0.9-2.1c0.1,0.3,0.3,0.6,0.3,0.9c0.1,0.9,0.6,1.4,1.3,1.8c1.7,0.9,3.5,1.2,5.3,0.8
					c1.1-0.2,1.2-0.6,1.1-1.6c0-0.3-0.1-0.6-0.1-1C218.2,155.7,218.2,155.5,218.3,155"/>
				<path class="st1" d="M337.9,304.8c-0.2-0.1-0.4-0.2-0.6-0.3c0,0,0-0.1,0-0.1c0.2,0.1,0.5,0.1,0.7,0.2
					C338,304.7,337.9,304.7,337.9,304.8"/>
				<path class="st1" d="M328.5,301.5c-0.2-0.1-0.4-0.2-0.5-0.3c0.2,0,0.4,0.1,0.7,0.1C328.5,301.4,328.5,301.4,328.5,301.5"/>
				<path class="st5" d="M189.8,306.6v-17.8c4.7,1.3,9.5,1.2,14.2,0.4c0.3,1.9-3,17.1-4.4,19.7C196.4,308.2,193.2,307.4,189.8,306.6
					"/>
				<path class="st11" d="M200.5,136.9c-1,1.8-1.2,3.6-0.6,5.5c1.2,4.1,5,5.3,8.3,2.6c0.1-0.1,0.3-0.2,0.6-0.5
					c-0.4,1.7-1.4,2.6-2.8,3c-1.7,0.5-3.4,0.5-5.1-0.2c-3.7-1.5-5.9-5.8-5-9.7c0.1-0.5,0.4-0.8,0.9-0.9
					C197.7,136.5,199.2,136.5,200.5,136.9"/>
				<path class="st13" d="M204.6,144.6c-0.9,0-1.7-0.5-2.3-1.3c-1-1.4-1.2-3-0.8-4.6c0.4-1.4,1.1-1.7,2.5-1.2c1.8,0.7,3.1,2,4,3.6
					c0.1,0.2,0.2,0.6,0.1,0.9C207.7,143.4,206.2,144.6,204.6,144.6"/>
				<path class="st11" d="M233.6,143.4c1,0.1,1.9,0.5,2.6,1c0.8,0.6,1.1,1.4,0.9,2.4c-0.1,0.6-0.3,1.1-0.6,1.7
					c-2.2,3.9-7.5,5.2-11.1,2.6c-0.6-0.4-1-1.1-1.3-1.7c-0.3-0.7-0.4-1.6-0.5-2.4c0-0.2,0.2-0.5,0.6-0.7c0,0.3,0.1,0.6,0.1,0.9
					c0.5,2.5,2.6,4.2,5.1,4.1c2.4-0.1,4.3-2,4.5-4.5c0.1-0.9-0.1-1.7-0.2-2.6C233.6,143.9,233.6,143.7,233.6,143.4"/>
				<path class="st13" d="M230.2,143c0.9-0.1,1.3,0.4,1.6,1.1c0.4,0.9,0.5,1.8,0.2,2.8c-0.4,1.7-1.6,2.6-3.1,2.5
					c-1.5-0.1-2.8-1.2-3.1-2.8c-0.1-0.4,0-0.9,0-1.4c0.1-0.8,0.5-1.4,1.3-1.6C228.1,143.5,229.2,143.3,230.2,143"/>
				<path class="st6" d="M201,131.9c0.9-0.9,1.9-1.1,2.9-1.1c3,0,5.7,1,8.3,2.6c0.5,0.3,0.7,0.8,0.6,1.5c-0.3,0-0.6,0-0.9-0.1
					c-3.2-1.9-6.6-2.8-10.3-2.7C201.4,132.1,201.3,132,201,131.9"/>
				<path class="st6" d="M234.8,137.4c-1.4-0.2-2.4-0.3-3.5-0.4c-1.5-0.1-3.1-0.2-4.6-0.2c-0.8,0-1.5-0.1-2.2-0.6
					C226.5,134.5,232.1,135.1,234.8,137.4"/>
			</g>
		</g>
	</g>
</g>
</svg>
