<?xml version="1.0" encoding="utf-8"?>
<!-- Generator: Adobe Illustrator 24.1.2, SVG Export Plug-In . SVG Version: 6.00 Build 0)  -->
<svg version="1.1" xmlns="http://www.w3.org/2000/svg" xmlns:xlink="http://www.w3.org/1999/xlink" x="0px" y="0px"
	 viewBox="0 0 690 500" style="enable-background:new 0 0 690 500;" xml:space="preserve">
<style type="text/css">
	.st0{fill:#E9E200;stroke:#F59F04;stroke-miterlimit:10;}
	.st1{clip-path:url(#SVGID_2_);}
	.st2{clip-path:url(#SVGID_4_);fill:#755B4C;}
	.st3{clip-path:url(#SVGID_4_);fill:#1D1D1B;}
	.st4{clip-path:url(#SVGID_4_);fill:#AF9784;}
	.st5{clip-path:url(#SVGID_6_);}
	.st6{clip-path:url(#SVGID_8_);fill:#D6B78B;}
	
		.st7{clip-path:url(#SVGID_8_);fill:none;stroke:#000000;stroke-width:1.8213;stroke-linecap:round;stroke-linejoin:round;stroke-miterlimit:10;}
	.st8{clip-path:url(#SVGID_8_);fill:#60D65C;}
	.st9{clip-path:url(#SVGID_8_);fill:#C97979;}
	.st10{clip-path:url(#SVGID_8_);fill:#4B75BF;}
	.st11{clip-path:url(#SVGID_10_);}
	.st12{clip-path:url(#SVGID_12_);fill:#755B4C;}
	.st13{clip-path:url(#SVGID_12_);fill:#1D1D1B;}
	.st14{clip-path:url(#SVGID_12_);fill:#AF9784;}
	.hide { opacity: 0 }
	#QUEST { transition: all .3s}
</style>
<g id="QUEST">
	<g>
		<path class="st0" d="M390.2,119.2c0,4.8-1,8.8-2.9,12c-1.9,3.2-4.1,5.9-6.4,8.3c-1.5,1.5-3,3-4.5,4.5c-1.4,1.4-2.7,3-3.9,4.6
			c-1.2,1.6-2.2,3.4-3,5.3c-0.8,1.9-1.4,4.1-1.7,6.5h-23c0.1-5.9,1-10.7,2.8-14.2c1.8-3.5,4-6.7,6.7-9.6c1.2-1.3,2.5-2.6,3.8-3.9
			c1.3-1.3,2.6-2.6,3.7-3.9c1.1-1.3,2-2.7,2.8-4.2c0.7-1.5,1.1-3,1.1-4.7c0-1.8-0.9-3.7-2.6-5.7c-1.7-1.9-4.1-2.9-7.2-2.9
			c-2,0-3.8,0.5-5.2,1.4c-1.4,0.9-2.6,2.1-3.6,3.5c-1,1.4-1.7,3.1-2.1,5c-0.5,1.9-0.7,3.8-0.8,5.6h-23.8c0.1-5.9,1.2-11.2,3.1-15.7
			c2-4.5,4.7-8.3,8.1-11.3c3.4-3,7.2-5.3,11.6-6.8c4.3-1.5,8.9-2.3,13.7-2.3c5.1,0,9.7,0.7,13.8,2.1c4.1,1.4,7.6,3.4,10.5,6
			c2.9,2.6,5.2,5.6,6.8,9.1C389.4,111.3,390.2,115.1,390.2,119.2z M343.1,180.6c0-2.5,0.4-4.5,1.3-6.2c0.9-1.7,2-3.1,3.3-4.1
			c1.3-1.1,2.8-1.9,4.4-2.4c1.6-0.5,3.1-0.8,4.5-0.8c3.9,0,7,1.3,9.3,4c2.3,2.7,3.5,5.8,3.5,9.4c0,3.8-1.3,6.9-3.8,9.4
			c-2.5,2.5-5.6,3.8-9.3,3.8c-3.7,0-6.8-1.2-9.4-3.7C344.3,187.5,343.1,184.3,343.1,180.6z"/>
	</g>
</g>
<g id="P1">
	<g>
		<g>
			<defs>
				<rect id="SVGID_1_" x="83.8" y="234.7" width="178.7" height="195.5"/>
			</defs>
			<clipPath id="SVGID_2_">
				<use xlink:href="#SVGID_1_"  style="overflow:visible;"/>
			</clipPath>
			<g class="st1">
				<defs>
					<rect id="SVGID_3_" x="83.8" y="234.7" width="178.7" height="195.5"/>
				</defs>
				<clipPath id="SVGID_4_">
					<use xlink:href="#SVGID_3_"  style="overflow:visible;"/>
				</clipPath>
				<path class="st2" d="M224.5,335.8c-0.7,4.8-0.8,9.7-0.4,14.5c0.2,2.2,0.5,4.5-0.1,6.7c-0.4,1.7-1.4,3.2-2.2,4.7
					c-6.2,10.2-11.7,21-14.3,32.6c-3.1-13.6-6.2-27.4-6.3-41.4c0-4.3,0.3-8.9,2.6-12.6c2.5-4,7-6.4,11.5-8c2-0.8,4.2-1.4,6.3-0.9
					c2.1,0.6,3.8,3,2.8,4.9"/>
				<path class="st3" d="M207.5,397.1l-0.6-2.7c-3-13.5-6.2-27.4-6.3-41.5c0-4.2,0.2-9,2.6-12.9c2.8-4.4,7.8-6.8,11.8-8.3
					c2.2-0.8,4.5-1.5,6.7-0.9c1.4,0.4,2.6,1.4,3.2,2.8c0.4,0.8,0.5,1.7,0.2,2.5c-0.7,4.7-0.8,9.4-0.4,14.2c0,0.3,0,0.5,0.1,0.8
					c0.2,2,0.4,4.1-0.1,6.1c-0.4,1.7-1.4,3.3-2.3,4.7l-0.1,0.1c-5.5,9.1-11.5,20.1-14.2,32.4L207.5,397.1z M219.8,331.9
					c-1.5,0-3,0.5-4.4,1c-3.9,1.5-8.6,3.7-11.2,7.8c-2.2,3.6-2.5,8-2.5,12.2c0.1,13.1,2.9,26.1,5.7,38.7c3-11.4,8.6-21.6,13.8-30.2
					l0.1-0.1c0.8-1.4,1.7-2.8,2.1-4.4c0.5-1.8,0.3-3.8,0.1-5.7c0-0.3,0-0.5-0.1-0.8c-0.4-4.7-0.3-9.5,0.4-14.2l-0.1,0
					c0-0.1,0.1-0.2,0.1-0.3c0-0.1,0-0.1,0-0.2l0,0c0.1-0.6,0-1.2-0.2-1.6c-0.4-1-1.4-1.8-2.4-2.1C220.8,332,220.3,331.9,219.8,331.9
					"/>
				<path class="st2" d="M137.6,335.9c2.1,4.6,6.9,7.4,9.5,11.8c2.5,4.2,2.7,9.4,2.9,14.3c0.2,7.5,0.4,15.1,0.6,22.6
					c0.1,3.6,0.3,7.2,0.3,10.8c0,2.4-1,5.4-0.4,7.7c9.2-1.1,18.1-1.7,27.4-0.7c9.7,1,19.2,2.3,28.9,2.7c0.7,0,1.5,0,2.1-0.4
					c0.7-0.6,0.8-1.6,0.8-2.6c0.2-7.7-0.2-15.6-0.4-23.4c-0.2-8.9-0.3-18,2.4-26.5c2.8-8.5,9.1-16.3,17.7-18.5
					c-24.7-6.5-50.9-2.5-76.2,0.9c-5.1,0.7-10.3,1.3-15.2,0c0.4,0.6,0.7,1.1,1.1,1.7"/>
				<path class="st3" d="M207.1,405.7c-0.2,0-0.4,0-0.5,0c-7.6-0.3-15.2-1.2-22.5-2c-2.1-0.2-4.3-0.5-6.4-0.7
					c-9.4-1-18.7-0.2-27.2,0.7l-0.5,0.1l-0.1-0.5c-0.4-1.5-0.2-3.3,0.1-5c0.1-1,0.3-1.9,0.3-2.8c0-2.4-0.1-4.8-0.2-7.2
					c0-1.2-0.1-2.4-0.1-3.6l-0.6-22.6c-0.1-4.6-0.3-9.8-2.8-14c-1.1-1.9-2.8-3.6-4.3-5.2c-2-2-4-4.1-5.2-6.7l0.9-0.4l-1.4-2.2
					l1.5,0.4c4.9,1.4,10.3,0.7,15,0c1.1-0.1,2.2-0.3,3.3-0.4c24.3-3.3,49.4-6.7,73.2-0.4l2.3,0.6l-2.3,0.6
					c-9.1,2.3-14.9,10.9-17.3,18.1c-2.8,8.5-2.6,17.5-2.4,26.3c0,2.4,0.1,4.8,0.2,7.1c0.2,5.4,0.3,10.9,0.2,16.3
					c0,0.8-0.1,2.2-1.1,3C208.5,405.6,207.7,405.7,207.1,405.7 M168.3,401.2c3.1,0,6.3,0.1,9.4,0.5c2.2,0.2,4.3,0.5,6.4,0.7
					c7.3,0.8,14.9,1.7,22.4,2c0.7,0,1.3,0,1.7-0.3c0.5-0.4,0.6-1.3,0.6-2.1c0.1-5.4,0-10.9-0.2-16.2c-0.1-2.3-0.1-4.7-0.2-7.1
					c-0.2-8.9-0.4-18,2.5-26.7c2.9-8.8,8.9-15.6,16-18.3c-22.9-5.5-47.2-2.2-70.6,1c-1.1,0.1-2.2,0.3-3.3,0.4
					c-4.4,0.6-9.2,1.2-14,0.3l0.3,0.4l-1,0.6c1.1,2,2.8,3.7,4.5,5.5c1.6,1.7,3.3,3.4,4.5,5.4c2.7,4.5,2.8,10.1,2.9,14.6l0.6,22.6
					c0,1.2,0.1,2.4,0.1,3.6c0.1,2.4,0.2,4.8,0.2,7.3c0,0.9-0.1,2-0.3,3c-0.2,1.4-0.4,2.8-0.2,4C156.4,401.8,162.3,401.2,168.3,401.2
					"/>
				<polygon class="st4" points="152.2,268.1 99.4,339.2 239.7,339.2 247.5,269.5 				"/>
				<path class="st3" d="M240.3,339.8H98.2l53.7-72.4l0.3,0l96,1.5L240.3,339.8z M100.6,338.6h138.5l7.7-68.5l-94.3-1.4L100.6,338.6
					z"/>
			</g>
		</g>
	</g>
	<g>
		<g>
			<defs>
				<rect id="SVGID_5_" x="59.7" y="205.2" width="248.2" height="201.3"/>
			</defs>
			<clipPath id="SVGID_6_">
				<use xlink:href="#SVGID_5_"  style="overflow:visible;"/>
			</clipPath>
			<g class="st5">
				<defs>
					<rect id="SVGID_7_" x="59.7" y="205.2" width="248.2" height="201.3"/>
				</defs>
				<clipPath id="SVGID_8_">
					<use xlink:href="#SVGID_7_"  style="overflow:visible;"/>
				</clipPath>
				<path class="st6" d="M220.7,284.7c-3-1.8-6-1.4-8,0.3l-26.5,20.1l11.2,7.7l25.8-19.4c0,0,0,0,0,0l0,0l0,0c0.4-0.3,0.7-0.6,0.9-1
					C225.5,290,224,286.6,220.7,284.7"/>
				<path class="st7" d="M220.7,284.7c-3-1.8-6-1.4-8,0.3l-26.5,20.1l11.2,7.7l25.8-19.4c0,0,0,0,0,0l0,0l0,0c0.4-0.3,0.7-0.6,0.9-1
					C225.5,290,224,286.6,220.7,284.7z"/>
				<path class="st6" d="M197.4,312.8c-1.3,2.3-5.1,2.6-8.3,0.7c-3.3-1.9-4.8-5.3-3.5-7.6c1.3-2.3,5.1-2.6,8.3-0.7
					C197.2,307.1,198.7,310.5,197.4,312.8"/>
				<path class="st7" d="M197.4,312.8c-1.3,2.3-5.1,2.6-8.3,0.7c-3.3-1.9-4.8-5.3-3.5-7.6c1.3-2.3,5.1-2.6,8.3-0.7
					C197.2,307.1,198.7,310.5,197.4,312.8z"/>
				<path class="st8" d="M190.7,286.3c-3-1.8-6-1.4-8,0.3L143.4,315l11.1,7.7l38.6-27.7c0,0,0,0,0,0l0,0l0,0c0.4-0.3,0.7-0.6,0.9-1
					C195.5,291.7,193.9,288.3,190.7,286.3"/>
				<path class="st7" d="M190.7,286.3c-3-1.8-6-1.4-8,0.3L143.4,315l11.1,7.7l38.6-27.7c0,0,0,0,0,0l0,0l0,0c0.4-0.3,0.7-0.6,0.9-1
					C195.5,291.7,193.9,288.3,190.7,286.3z"/>
				<path class="st8" d="M154.5,322.7c-1.3,2.3-5.1,2.6-8.3,0.7c-3.3-1.9-4.8-5.3-3.5-7.6c1.3-2.3,5.1-2.6,8.3-0.7
					C154.3,317,155.9,320.4,154.5,322.7"/>
				<path class="st7" d="M154.5,322.7c-1.3,2.3-5.1,2.6-8.3,0.7c-3.3-1.9-4.8-5.3-3.5-7.6c1.3-2.3,5.1-2.6,8.3-0.7
					C154.3,317,155.9,320.4,154.5,322.7z"/>
				<path class="st9" d="M221.3,309.4c-3-1.8-6-1.4-8,0.3l-22.9,16.6l11.2,7.7l22.2-15.9c0,0,0,0,0,0l0,0l0,0c0.4-0.3,0.7-0.6,0.9-1
					C226.1,314.7,224.6,311.3,221.3,309.4"/>
				<path class="st7" d="M221.3,309.4c-3-1.8-6-1.4-8,0.3l-22.9,16.6l11.2,7.7l22.2-15.9c0,0,0,0,0,0l0,0l0,0c0.4-0.3,0.7-0.6,0.9-1
					C226.1,314.7,224.6,311.3,221.3,309.4z"/>
				<path class="st9" d="M201.6,333.9c-1.3,2.3-5.1,2.6-8.3,0.7c-3.3-1.9-4.8-5.3-3.5-7.6c1.3-2.3,5.1-2.6,8.3-0.7
					C201.3,328.2,202.9,331.6,201.6,333.9"/>
				<path class="st7" d="M201.6,333.9c-1.3,2.3-5.1,2.6-8.3,0.7c-3.3-1.9-4.8-5.3-3.5-7.6c1.3-2.3,5.1-2.6,8.3-0.7
					C201.3,328.2,202.9,331.6,201.6,333.9z"/>
				<path class="st10" d="M211,276.9c-3-1.8-6-1.4-8,0.3l-21.1,15.1L193,300c0,0,21.2-15.1,21.5-15.5
					C215.8,282.2,214.3,278.8,211,276.9"/>
				<path class="st7" d="M211,276.9c-3-1.8-6-1.4-8,0.3l-21.1,15.1L193,300c0,0,21.2-15.1,21.5-15.5
					C215.8,282.2,214.3,278.8,211,276.9z"/>
				<path class="st10" d="M193,300c-1.3,2.3-5.1,2.6-8.3,0.7c-3.3-1.9-4.8-5.3-3.5-7.6c1.3-2.3,5.1-2.6,8.3-0.7
					C192.8,294.3,194.4,297.7,193,300"/>
				<path class="st7" d="M193,300c-1.3,2.3-5.1,2.6-8.3,0.7c-3.3-1.9-4.8-5.3-3.5-7.6c1.3-2.3,5.1-2.6,8.3-0.7
					C192.8,294.3,194.4,297.7,193,300z"/>
			</g>
		</g>
	</g>
</g>
<g id="P2">
	<g>
		<g>
			<defs>
				<rect id="SVGID_9_" x="401.8" y="239.4" width="178.7" height="195.5"/>
			</defs>
			<clipPath id="SVGID_10_">
				<use xlink:href="#SVGID_9_"  style="overflow:visible;"/>
			</clipPath>
			<g class="st11">
				<defs>
					<rect id="SVGID_11_" x="401.8" y="239.4" width="178.7" height="195.5"/>
				</defs>
				<clipPath id="SVGID_12_">
					<use xlink:href="#SVGID_11_"  style="overflow:visible;"/>
				</clipPath>
				<path class="st12" d="M542.5,340.6c-0.7,4.8-0.8,9.7-0.4,14.5c0.2,2.2,0.5,4.5-0.1,6.7c-0.4,1.7-1.4,3.2-2.2,4.7
					c-6.2,10.2-11.7,21-14.3,32.6c-3.1-13.6-6.2-27.4-6.3-41.4c0-4.3,0.3-8.9,2.6-12.6c2.5-4,7-6.4,11.5-8c2-0.8,4.2-1.4,6.3-0.9
					c2.1,0.6,3.8,3,2.8,4.9"/>
				<path class="st13" d="M525.5,401.9l-0.6-2.7c-3-13.5-6.2-27.4-6.3-41.5c0-4.2,0.2-9,2.6-12.9c2.8-4.4,7.8-6.8,11.8-8.3
					c2.2-0.8,4.5-1.5,6.7-0.9c1.4,0.4,2.6,1.4,3.2,2.8c0.4,0.8,0.5,1.7,0.2,2.5c-0.7,4.7-0.8,9.4-0.4,14.2c0,0.3,0,0.5,0.1,0.8
					c0.2,2,0.4,4.1-0.1,6.1c-0.4,1.7-1.4,3.3-2.3,4.7l-0.1,0.1c-5.5,9.1-11.5,20.1-14.2,32.4L525.5,401.9z M537.8,336.6
					c-1.5,0-3,0.5-4.4,1c-3.9,1.5-8.6,3.7-11.2,7.8c-2.2,3.6-2.5,8-2.5,12.2c0.1,13.1,2.9,26.1,5.7,38.7c3-11.4,8.6-21.6,13.8-30.2
					l0.1-0.1c0.8-1.4,1.7-2.8,2.1-4.4c0.5-1.8,0.3-3.8,0.1-5.7c0-0.3,0-0.5-0.1-0.8c-0.4-4.7-0.3-9.5,0.4-14.2l-0.1,0
					c0-0.1,0.1-0.2,0.1-0.3c0-0.1,0-0.1,0-0.2l0,0c0.1-0.6,0-1.2-0.2-1.6c-0.4-1-1.4-1.8-2.4-2.1
					C538.8,336.7,538.3,336.6,537.8,336.6"/>
				<path class="st12" d="M455.6,340.6c2.1,4.6,6.9,7.4,9.5,11.8c2.5,4.2,2.7,9.4,2.9,14.3c0.2,7.5,0.4,15.1,0.6,22.6
					c0.1,3.6,0.3,7.2,0.3,10.8c0,2.4-1,5.4-0.4,7.7c9.2-1.1,18.1-1.7,27.4-0.7c9.7,1,19.2,2.3,28.9,2.7c0.7,0,1.5,0,2.1-0.4
					c0.7-0.6,0.8-1.6,0.8-2.6c0.2-7.7-0.2-15.6-0.4-23.4c-0.2-8.9-0.3-18,2.4-26.5c2.8-8.5,9.1-16.3,17.7-18.5
					c-24.7-6.5-50.9-2.5-76.2,0.9c-5.1,0.7-10.3,1.3-15.2,0c0.4,0.6,0.7,1.1,1.1,1.7"/>
				<path class="st13" d="M525.1,410.4c-0.2,0-0.4,0-0.5,0c-7.6-0.3-15.2-1.2-22.5-2c-2.1-0.2-4.3-0.5-6.4-0.7
					c-9.4-1-18.7-0.2-27.2,0.7l-0.5,0.1l-0.1-0.5c-0.4-1.5-0.2-3.3,0.1-5c0.1-1,0.3-1.9,0.3-2.8c0-2.4-0.1-4.8-0.2-7.2
					c0-1.2-0.1-2.4-0.1-3.6l-0.6-22.6c-0.1-4.6-0.3-9.8-2.8-14c-1.1-1.9-2.8-3.6-4.3-5.2c-2-2-4-4.1-5.2-6.7l0.9-0.4l-1.4-2.2
					l1.5,0.4c4.9,1.4,10.3,0.7,15,0c1.1-0.1,2.2-0.3,3.3-0.4c24.3-3.3,49.4-6.7,73.2-0.4l2.3,0.6l-2.3,0.6
					c-9.1,2.3-14.9,10.9-17.3,18.1c-2.8,8.5-2.6,17.5-2.4,26.3c0,2.4,0.1,4.8,0.2,7.1c0.2,5.4,0.3,10.9,0.2,16.3
					c0,0.8-0.1,2.2-1.1,3C526.5,410.3,525.7,410.4,525.1,410.4 M486.3,406c3.1,0,6.3,0.1,9.4,0.5c2.2,0.2,4.3,0.5,6.4,0.7
					c7.3,0.8,14.9,1.7,22.4,2c0.7,0,1.3,0,1.7-0.3c0.5-0.4,0.6-1.3,0.6-2.1c0.1-5.4,0-10.9-0.2-16.2c-0.1-2.3-0.1-4.7-0.2-7.1
					c-0.2-8.9-0.4-18,2.5-26.7c2.9-8.8,8.9-15.6,16-18.3c-22.9-5.5-47.2-2.2-70.6,1c-1.1,0.1-2.2,0.3-3.3,0.4
					c-4.4,0.6-9.2,1.2-14,0.3l0.3,0.4l-1,0.6c1.1,2,2.8,3.7,4.5,5.5c1.6,1.7,3.3,3.4,4.5,5.4c2.7,4.5,2.8,10.1,2.9,14.6l0.6,22.6
					c0,1.2,0.1,2.4,0.1,3.6c0.1,2.4,0.2,4.8,0.2,7.3c0,0.9-0.1,2-0.3,3c-0.2,1.4-0.4,2.8-0.2,4C474.4,406.5,480.3,406,486.3,406"/>
				<polygon class="st14" points="470.2,272.8 417.4,343.9 557.7,343.9 565.5,274.3 				"/>
				<path class="st13" d="M558.3,344.6H416.2l53.7-72.4l0.3,0l96,1.5L558.3,344.6z M418.6,343.3h138.5l7.7-68.5l-94.3-1.4
					L418.6,343.3z"/>
			</g>
		</g>
	</g>
</g>
</svg>
