<?xml version="1.0" encoding="utf-8"?>
<!-- Generator: Adobe Illustrator 21.0.0, SVG Export Plug-In . SVG Version: 6.00 Build 0)  -->
<svg version="1.1" xmlns="http://www.w3.org/2000/svg" xmlns:xlink="http://www.w3.org/1999/xlink" x="0px" y="0px"
	 viewBox="0 0 768 552" style="enable-background:new 0 0 768 552;" xml:space="preserve">
<style type="text/css">
	.st0{display:none;}
	.st1{fill:#20846D;}
	.st2{fill:#004A7B;}
	.st3{fill:#8DFFCA;}
	.st4{fill:#70C387;}
	.st5{fill:#5AD5AA;}
	.st6{fill:#659955;}
	.st7{fill:#FFFFFF;}
</style>
<g id="Слой1_xA0_Изображение_1_" class="st0">
</g>
<g id="Слой2_xA0_Изображение_1_">
	<g>
		<path class="st1" d="M283.1,223.9c-3.1-3.8-6.8-6.9-10.6-9.9c-10.6-8.5-22.6-14.2-35.4-18.4c-0.9-0.3-1.8-0.6-2.7-0.8
			c-1.3-0.4-2.6-0.8-3.9-1.1c-1.3-0.3-2.6-0.7-4-0.9c-0.2,0-0.3-0.1-0.5-0.1c-0.7-0.1-1.4-0.3-2.1-0.4c-0.3-0.1-0.6-0.1-0.9-0.2
			c-0.3-0.1-0.5-0.3-0.7-0.4c-0.2-0.1-0.3-0.2-0.5-0.2c-1-0.3-2.1-0.2-3.1-0.3c-0.9,0-1.8-0.2-2.8-0.2c-0.3,0-0.7,0-1,0
			c-0.3,0-0.7,0.1-1,0.1c-0.7,0-1.4,0.1-2.1,0.1c-0.3,0-0.6,0-0.9,0c-0.3-0.1-0.6-0.2-1-0.2c-0.4,0-0.8,0-1.1,0.1
			c-0.3,0.1-0.6,0.1-0.9,0.2c-0.3,0.1-0.6,0.1-0.8,0.2c-0.5,0.2-1,0.3-1.4,0.4c-0.6,0.1-1.2,0.2-1.8,0.2c-0.4,0-0.8,0-1.2,0
			c-0.4,0-0.8-0.1-1.1,0c-0.2,0.1-0.4,0.2-0.5,0.4c-0.1,0.2-0.3,0.2-0.4,0.4c-0.5,0.6-0.9,1.2-1.3,1.8c-0.2,0.2-0.3,0.5-0.4,0.8
			c-0.6,0.6-1.2,1.2-1.8,1.8c-1.4,1.5-2.7,3.1-4.2,4.8c4,1.2,7.8,1.6,11.6,0.7c3.3-0.8,6.5-1.9,9.8-2.8c2.5-0.7,4.9-0.5,7,1.1
			c2.3,1.8,3.9,4.2,4.7,7.1c0.5,1.7-0.1,3.1-1.8,3.6c-1.3,0.4-2.7,0.5-4,0.6c-3.9,0.1-7.8-0.3-11.7,0.1c-4,0.4-7.9,1.4-11.7,2.3
			c-2.6,0.6-5.2,1.5-7.7,2.6c-2.7,1.3-4.3,3.6-4.8,6.6c2.2,1,4.1,2.1,6.7,1.3c1.8-0.5,3.6-0.5,4.9-2.2c0.4-0.6,1.2-0.9,1.9-1.3
			c3.8-2.1,7.9-3.3,12.2-3.4c6.3-0.2,12.6-0.2,19-0.3c1.2,0,2.4-0.1,3.6-0.3c3-0.4,4.4-2.2,4.4-5.1c0-1.1-0.1-2.2-0.2-3.2
			c-0.2-2.7,1.1-4.2,3.8-4.3c5.4-0.3,9.8,2,13.7,5.5c0.1,0.1,0.2,0.2,0.3,0.4c1.7,2.2,1.4,5.1-0.6,6.9c-0.6,0.5-1.3,1.1-1.9,1.6
			c-1.7,1.5-1.5,3.6,0.4,4.8c1.4,0.8,3,0.9,4.5,0.7c4.7-0.5,9.5-0.9,14.2,0.1c3.3,0.7,6.7,1,9.5,3.3c1.2-0.9,2.4-1.9,3.6-2.8
			C284,225,283.5,224.5,283.1,223.9z"/>
		<path class="st2" d="M259.4,188.6c-13.9-6.4-38.9-11.4-44.1-8.9c0.3,0.1,0.6,0.1,0.8,0.2c-0.9,0.1-1.9,0.2-2.5,0.7
			c-0.8,0.8-1.6,1.6-2.5,2.5c-0.4,0.4-0.8,0.8-1.3,1.3c-0.4,0.4-0.7,0.8-1.2,1c-0.3,0.1-0.5,0.1-0.8,0.2c-0.6,0.2-1.1,0.5-1.6,0.9
			c-0.4,0.3-0.7,0.6-1.1,0.9c-0.7,0.6-1.3,1.3-1.8,2c-0.3,0.4-0.5,0.7-0.7,1.1c-0.1,0.2-0.2,0.4-0.3,0.6c-0.1,0.2-0.2,0.4-0.2,0.6
			c0,0,0,0.1,0,0.1c0,0,0.1,0,0.1,0c0.1,0,0.1,0,0.1,0c-0.1,0.1-0.1,0.2-0.1,0.3c0,0,0,0,0,0.1c0,0,0,0,0.1,0
			c0.3,0.1,0.7,0.2,1.1,0.2c0.1,0,0.2,0,0.3,0c0.1,0,0.1,0.1,0.2,0.1c0.1,0,0.3,0,0.4,0c0.4-0.1,0.8-0.4,1.2-0.6
			c0.3-0.1,0.6-0.2,0.9-0.2c0.6-0.1,1.2-0.2,1.8-0.4c0.3-0.1,0.6-0.1,0.8-0.2c0.7-0.1,1.5-0.2,2.2-0.2c0.8,0,1.6-0.1,2.4-0.2
			c2.1,0,4.2,0,6.2,0.3c2.1,0.2,4.1,0.5,6.2,1c12.8,2.7,25,7.1,36.3,13.9c8.1,4.8,15.4,10.6,21.4,17.9c0.5,0.6,0.9,1.1,1.4,1.8
			c3.4-3,6.8-5.9,10.3-9C285.6,203.9,273.4,195.1,259.4,188.6z"/>
		<g>
			<path class="st3" d="M225.3,305.8c0.6-0.4,1.2-0.9,1.9-1.3c1.2-0.8,2.6-1.5,3.7-2.5c3.8-3.3,8.4-4.7,13.1-6.2
				c3.5-1.1,7-2.3,10.2-4c3.3-1.8,5.9-4.6,8-7.8c3.9-5.7,5.1-12.1,4.9-18.9c-0.1-4.3-0.9-8.3-3.5-11.9c0-0.1,0-0.2,0-0.2
				c2.3-0.8,4.6-1.4,6.8-2.3c8.2-3.3,15.5-8.1,22.3-13.6c7.2-5.9,14.1-12,21.2-18c11.8-10,25.5-16,40.9-18.1c8.1-1.1,16.1-1,24,1.1
				c1.1,0.3,2.2,0.7,3.3,1.2c2.5,1.1,4.3,3,5.4,5.5c1.9,4.3,2.3,8.8,2.3,13.5c0,2.3,0.1,4.7,0.5,7c0.7,3.6,1.8,4.5,5.5,4.2
				c2.1-0.2,4.3-0.7,6.2-1.5c8.5-3.7,16.8-7.6,25.2-11.4c13.5-6.1,27.4-10.6,41.9-13.2c6.6-1.2,13.2-2,19.9-1.3
				c7,0.7,13.6,2.6,19.3,6.8c3.9,2.8,6.6,6.7,8.9,10.9c1.5,2.6,2.6,5.5,4.3,7.9c1.8,2.5,4.1,4.8,6.5,6.8c2,1.7,4.6,1.2,6.9,0.9
				c4.7-0.7,9-2.7,13.3-4.6c7.7-3.5,15.4-7,23.6-9.3c7.2-2,14.5-3.2,22-2.8c8.1,0.4,15.6,3,22.4,7.3c2,1.2,3.9,2.6,5.7,4
				c0.7,0.5,1.3,1.3,1.5,2.2c2.3,7.8,4.4,15.6,6.6,23.4c0.4,1.3,0.7,2.5,1.1,4c-2.6,0.8-5.1,1.6-7.7,2.3c-6,1.6-12,1.4-18.1,0.4
				c-3.1-0.5-5.5-2.4-7.9-4.2c-1.5-1.1-2.9-2.4-4.5-3.4c-4.5-3.1-9.5-4.2-14.8-3.4c-5.2,0.8-8.1,4.4-9.8,9c-2,5.3-1.3,10.4,0.8,15.5
				c1.3,3.1,3,5.8,5.2,8.3c0.3,0.3,0.6,0.7,0.6,1.1c0,3.4,0,6.9,0,10.4c-9.9,1.2-19.5,2.3-29.2,3.5c0.4-2.1,0.9-3.9,1.1-5.9
				c0.6-4.6,0.2-9.1-0.6-13.6c-0.9-4.7-1.8-9.4-2.7-14.1c-0.1-0.7-0.1-1.9-1.1-1.7c-1.1,0.2-0.5,1.3-0.4,2c1,5.2,2.2,10.4,3.1,15.6
				c0.9,5.4,0.9,10.7-0.5,16.1c-0.4,1.3-0.9,1.8-2.3,2c-11,1.2-22,2.6-33,3.9c-0.2,0-0.4,0-0.4,0c0.8-2.2,1.8-4.3,2.5-6.5
				c1.2-4.1,1-8.4,0.6-12.6c-0.8-9.6-3.1-19-5.2-28.4c-1-4.4-1.6-9-2.4-13.4c-0.1-0.4-0.5-0.7-0.8-1.1c-0.2,0.4-0.7,0.8-0.7,1.2
				c0.3,2.2,0.5,4.4,1,6.5c2.5,11.1,5.1,22.3,6.5,33.7c0.5,4.6,0.8,9.3-0.4,13.8c-0.6,2.1-1.7,4-2.6,6c-0.4,0.8-1,1.2-1.9,1.3
				c-4.9,0.5-9.8,1.2-14.6,1.7c-5.6,0.6-11.1,1.2-16.7,1.8c-0.2,0-0.4,0-0.5,0c0.8-2.4,1.7-4.7,2.4-7.1c1.6-6.3,1.7-12.7,1.4-19.1
				c-0.5-9-1.6-18-3.8-26.8c-1.2-4.9-2.8-9.8-5.1-14.3c-0.3-0.7-0.7-1.4-1.2-1.9c-0.2-0.3-0.7-0.3-1.1-0.4c0,0.4-0.1,0.7-0.1,1.1
				c0,0.1,0.1,0.3,0.2,0.4c4.3,7.3,6.2,15.4,7.4,23.7c0.9,6.6,1.6,13.3,2,19.9c0.4,6.4,0,12.8-1.8,19c-0.5,1.7-1.3,3.4-2.1,5
				c-0.2,0.5-0.9,0.9-1.4,1c-11.5,1-23,1.9-34.5,2.8c-1.3,0.1-2.6,0-3.9,0c0,0,0-0.2,0-0.3c2.7-5,3.4-10.4,3.5-15.9
				c0.1-9.8-0.8-19.5-2.3-29.1c-1-6.7-2.1-13.3-3.6-19.9c-0.9-3.9-2.5-7.7-3.8-11.6c-0.2-0.5-0.3-1.5-1.2-1.1
				c-0.8,0.4-0.4,1.2-0.1,1.8c1,2.8,2.2,5.5,3,8.3c2.8,10.2,4.5,20.6,5.5,31.1c0.7,7.2,1,14.4,1.2,21.7c0.1,4.4-0.7,8.7-2.5,12.9
				c-0.7,1.7-1.6,2.6-3.7,2.6c-5.5,0.1-10.9,0.5-16.4,0.7c-4.7,0.2-9.4,0.3-14.1,0.5c-0.6,0-1.2,0-2,0c0.1-0.3,0.2-0.4,0.3-0.5
				c4-4.9,5.6-10.6,6-16.7c0.6-8.7-0.6-17.2-2.3-25.6c-1.4-7.1-2.9-14.2-4.5-21.4c-0.3-1.4-0.8-2.8-1.3-4.2c-0.1-0.4-0.6-0.6-1-1
				c-0.1,0.5-0.5,1-0.4,1.4c0.4,1.7,1,3.3,1.4,5c2.5,11.6,5.3,23.1,6.3,34.9c0.6,6.6,0.6,13.3-1.6,19.7c-1,2.9-2.4,5.5-4.5,7.7
				c-0.4,0.4-1,0.7-1.5,0.7c-10.4,0-20.8,0-31.2-0.1c-0.4,0-0.8-0.1-1.2-0.1c0-0.2,0-0.3,0-0.4c2.7-5.2,3.8-10.9,4.1-16.6
				c0.5-11.7-0.5-23.3-3-34.8c-0.2-0.8-0.4-1.6-0.8-2.4c-0.2-0.3-0.7-0.5-1-0.7c-0.1,0.4-0.3,0.8-0.3,1.2c0.8,4.3,1.7,8.5,2.4,12.8
				c1.2,7.3,2,14.7,1.6,22.1c-0.2,4.8-0.8,9.6-2.4,14.1c-0.1,0.4-0.3,0.8-0.7,1.2c0-1.5,0.2-3,0-4.4c-0.6-4.3-2.7-7.9-4.9-11.5
				c-2.3-3.6-4.5-7.3-6.7-11c-0.2-0.3-0.1-1,0.1-1.2c3-2.7,3.9-6.2,3-9.9c-1.5-6.4-4.5-12.1-9.1-16.8c-3.5-3.5-7.9-5-12.7-5
				c-5.7,0-11.3,0.9-16.5,3.4c-5,2.4-8.9,5.8-10.9,11.1c-1,2.8-1.4,5.6-0.9,8.6c0.1,0.5-0.1,1.2-0.4,1.6c-2.5,3.1-5.6,5.6-8.8,7.9
				c-10.9,7.8-23.2,12.4-36.3,14.6c-6.3,1.1-12.6,1.8-18.8,2.9c-3.7,0.7-7.4,2-11.1,3c-0.4,0.1-0.7,0.2-1.1,0.3
				C225.3,305.9,225.3,305.9,225.3,305.8z"/>
			<path class="st4" d="M115.1,331.8c2.7-0.6,5.4-1.2,8.1-1.9c7.2-1.8,14-4.4,20.6-7.8c3.5-1.8,7.1-3.6,10.5-5.5
				c5-2.9,9.7-6.3,13.3-10.9c0.8-1,1.4-2.1,1.9-3.3c0.2-0.5-0.1-1.1-0.2-1.7c-0.5,0.2-1.3,0.3-1.6,0.7c-2.5,3.2-5.4,6-8.5,8.6
				c-4.8,3.9-10.4,6.4-15.8,9.1c-8.7,4.4-17.8,7.7-27.5,9.4c-3.6,0.6-7.2,0.7-10.9,0.9c-0.4,0-0.9-0.2-1.3-0.3
				c-5.9-2.2-11.4-4.9-16.2-9.1c-5.5-4.8-10.2-10.1-13.7-16.5c-2.4-4.4-3.3-9.3-4.2-14.2c-1-5.4-1.3-11-1-16.5
				c0.1-1.1,0.3-2.3,0.7-3.4c2-5.1,5.4-9.2,8.8-13.3c10.5-12.4,23.7-21,38.3-27.5c7.6-3.4,15.2-6.5,23.3-8.3
				c5.2-1.1,10.3-1.4,15.6-0.7c16.8,2.4,32.4,7.8,46,18.1c5.6,4.2,10.6,9,14.6,14.8c2.6,3.7,4.3,7.9,5.4,12.3c0.1,0.5,0.2,1,0.4,1.5
				c0.2,0.3,0.6,0.6,0.9,0.8c0.3-0.3,0.7-0.6,0.8-1c0.1-1,0.2-2.1,0-3.1c-0.4-1.9-0.9-3.7-1.8-5.4c-4-8.4-9.7-15.6-17-21.4
				c-0.3-0.2-0.6-0.5-1-0.9c3.4,0,6.6-0.2,9.8,0c7.8,0.6,15.3,2.4,22.2,6.2c8.4,4.6,15.1,10.8,19.7,19.3c2,3.7,2.5,7.7,2.3,11.8
				c0,0.3-0.2,0.7-0.4,1c-1.4,1.7-2.7,3.5-4.3,5.1c-8.1,8.3-16.5,16.2-26,22.9c-9.8,7-20.3,13-31.2,18.1c-7.1,3.3-14.3,6.2-21.4,9.3
				c-4.5,1.9-9.4,2.3-14.1,3c-11.6,1.7-23.3,2-34.9,1.2c-3.5-0.3-6.9-0.7-10.4-1.1C115.1,331.9,115.1,331.8,115.1,331.8z M147,296.4
				c2.1-0.3,4.1-0.5,6.2-0.8c6.2-0.8,11.5-3.2,15.7-8.1c3.7-4.4,6.4-9.2,7.2-14.9c0.5-3.6-0.6-8.1-5.1-10.3
				c-4.4-2.1-8.9-3.3-13.8-3.6c-4.4-0.3-8.6,0.4-12.5,2.2c-5,2.2-9.9,4.8-14.7,7.3c-3.6,1.9-6.4,4.6-8,8.3c-0.6,1.3-0.8,3-0.7,4.4
				c0.3,3.5,2.4,6.2,5.1,8.4c4.6,3.8,9.6,7,15.3,8.9c3.8,1.2,7.6,2.2,11.6,1.5c2.6-0.4,4.9-1.3,6.8-3.9
				C155.6,297.7,151.3,297.3,147,296.4z"/>
			<path class="st4" d="M264.9,387.2c-1.2,0.6-2.4,1.1-3.4,1.8c-1.3,0.8-1.3,1.6,0.1,2.4c2.1,1.2,4.4,1.7,6.8,1.2
				c1.5-0.3,2.9-1,4.2-1.7c1.1-0.5,1.1-1.1,0-1.7c-0.5-0.3-1-0.5-1.6-0.5c0.5,0.4,1.1,0.8,1.7,1.2c-3.3,3.1-10,2.9-11.8,0.4
				c1-1.7,3.5-2.7,6.6-2.5c-0.5-0.2-0.8-0.4-1-0.4c-1.4,0.2-1.6-0.8-1.6-1.8c-0.4-3.9,0.9-6.5,3.8-7.9c2.4-1.2,4.9-1.1,7.1,0.2
				c4.6,2.5,8.1,6.2,10.5,10.9c1.1,2.3,0.7,4.6-1.3,6.3c-1.2,1-2.6,2-4.1,2.3c-1.3,0.3-2.8,0-4.2-0.3c-13.4-2.9-26.3-7.1-38.6-13.3
				c-0.2-0.1-0.3-0.2-0.7-0.5c1.1-0.1,1.9-0.2,2.7-0.2c4.4,0,8.9,0,13.3,0c1.3,0,2.7,0.2,4,0.5c2,0.4,3.6,1.4,4.7,3.2
				c-0.4-1.4-1.1-2.7-2.5-3.3c-1.8-0.7-3.7-1.5-5.6-1.5c-4.6-0.1-9.3,0.2-13.9,0.3c-0.5,0-1,0.1-1.4,0.3c-1.5,0.6-2.7,0.2-4-0.6
				c-5-3.5-9.5-7.6-13.9-11.8c0,0,0-0.1-0.1-0.3c1.5,0,2.9,0.1,4.3,0c1.1-0.1,2.2-0.2,3.3-0.5c1.9-0.6,2.4-2.3,1-3.8
				c-0.5-0.6-1.1-1-1.7-1.5c-4.2-2.8-9-3.7-14-3.1c-0.4,0-1.1-0.1-1.4-0.4c-3.8-4.7-6.8-9.8-7.9-15.7c-2.3-12.9,1.8-25,14.7-32.2
				c6.3-3.5,13.1-5.6,20.2-6.8c6.3-1.1,12.7-1.8,19-2.9c14.4-2.7,27.6-8,39.2-17.3c3.7-3,7-6.4,9-10.9c0.2-0.5,0.6-1.1,1-1.5
				c7.1-6.9,15.5-9.5,25.3-7.8c3.4,0.6,5.8,2.7,7.9,5.3c0.4,0.5,0.8,1,1.2,1.5c0.9,1.2,1.5,2.4,1.3,4.1c-0.2,1.8,0.2,3.7,0.8,5.5
				c1.1,3.6,2.9,6.9,5,10c2.5,3.7,4.7,7.6,6.9,11.5c1.4,2.5,2.1,5.3,1.8,8.2c-0.1,1.1-0.4,2.2-1.1,3.1c-6.6,8.4-14.4,15.4-23.5,21.2
				c-9.9,6.3-20.4,10.6-31.7,13.4c-0.1,0-0.2,0-0.2,0c-3.8,1.9-7.6,1.3-11.4,0.3c-2.2-0.6-4.4-1.2-6.5-2.1c-1.1-0.4-2.4-1.2-2.3-2.6
				c0.1-1.5,1.3-2.1,2.5-2.6c4.3-1.8,8.8-2.1,13.4-1.8c1.4,0.1,2.8,0.4,4.1,0.8c3.2,1.1,3.9,3,2.2,5.8c1.9-1.5,1.9-4-0.2-5.3
				c-1.5-0.9-3.2-1.5-4.9-1.8c-4.6-0.9-9.2-0.5-13.7,1c-1,0.3-2,0.9-2.8,1.5c-1.7,1.4-1.8,3.2,0,4.5c1.1,0.9,2.4,1.6,3.8,2
				c2.7,0.7,5.5,1.2,8.3,1.7c0.5,0.1,1.1,0.2,1.8,0.3c-1.6,1.1-2,2.7-2.2,4.3c-0.5,4.5,1,8.6,3.1,12.5c1.4,2.8,3.5,5,5.7,7.2
				c4.2,4.3,8.4,8.6,12.4,13c1.2,1.3,2.1,3,2.9,4.7c2,4.6-0.2,8.4-5.2,8.7c-3.4,0.2-6.8-0.2-10.1-0.5c-3.2-0.3-6.3-0.8-9.5-1.1
				c-1.1-0.1-1.4-0.7-1.5-1.6c-0.2-1.5,0.3-2.8,1-4c2.6-4,6.4-6.1,11-6.9c3.4-0.6,6.5,0.3,9.5,1.6c0.3,0.1,0.6,0.3,1,0.5
				c0,0,0.1,0,0.2-0.1c-1.9-1.4-4-2.1-6.2-2.6c-6.2-1.4-13.7,2.2-16.5,7.8c-0.8,1.6-1,3.2-0.5,5.1c-2.8-0.6-5.5-1.1-8.4-1.7
				c0.9-0.5,1.6-0.9,2.3-1.3c3.5-2.3,4.3-5.5,2.4-9.2c-2.2-4.1-5.5-7.4-9.4-9.9c-2.3-1.5-4.9-2-7.6-1.2
				C264.2,377.8,263.1,383.6,264.9,387.2z M279.4,364.1c-0.2,0.1-0.5,0-0.6,0.2c-1.1,1.2-0.6,3.9,0.9,4.8c2,1.3,6.3,0.8,8-0.9
				c1-1,1.1-2.4,0.2-3.4c-1.4-1.6-6.3-2-8-0.7c0,0,0,0.1,0,0.1C279.7,364.2,279.5,364.1,279.4,364.1z M263.4,364.3
				c-0.3-0.8-0.4-1.5-0.7-1.9c-1.7-2.1-3.8-3.6-6.6-4.1c-5-0.8-9.4,0.5-13.4,3.5c-2.2,1.6-3.9,3.6-4.7,6.2c-0.7,2.3-0.1,4,1.9,5.2
				c0.6,0.4,1.2,0.7,1.8,0.9c1.9,0.6,3.8,1.4,5.7,1.7c4,0.7,7.9,1.4,11.9,1.8c4,0.4,7-1.5,8.7-5.1c1.1-2.2,0.3-4.8-1.8-6.5
				c0.5,0.8,0.8,1.5,1.2,2.1c1.1,1.8,0.8,3.6-0.3,5.3c-1.7,2.6-4.1,3.9-7.2,3.8c-6-0.2-11.9-1.2-17.6-3.3c-4.5-1.7-5.3-4.3-2.4-8.2
				c2.9-3.9,6.9-6,11.6-6.7c3.6-0.6,6.9,0.1,9.7,2.6C262.1,362.3,262.6,363.2,263.4,364.3z M285.7,360.9c1.5-0.6,2-1.6,1.6-3
				c-1-3.3-3.4-5.1-6.7-5.7c-3.5-0.7-7-1.4-10.5-1.8c-2.2-0.3-4.4-0.4-6.5-0.1c-2.6,0.3-3.4,2-2.7,4.5c1,3.6,3.6,5.7,6.8,7.3
				c0.2,0.1,0.5,0.2,0.8,0.2c-2.4-1.1-4.1-2.9-5.4-5c-0.7-1.1-1-2.5-1.4-3.9c-0.2-1,0.4-1.8,1.4-2.1c1.2-0.3,2.4-0.6,3.5-0.4
				c4.8,0.5,9.6,1.1,14.4,1.8c2.1,0.3,3.9,1.4,5,3.3C287.3,358.2,287.3,358.9,285.7,360.9z M289.6,333c0,0.2,0,0.4,0,0.6
				c-5.8,3.1-11.9,2.8-18.1,1.1c0.1,0.1,0.1,0.2,0.1,0.3c0.2,0.1,0.4,0.2,0.6,0.3c4.6,1.7,9.3,2.1,14.1,0.6c1.2-0.4,2.3-1,3.3-1.6
				c0.9-0.6,0.8-1.3-0.1-1.9c-0.3-0.2-0.6-0.4-0.9-0.5c-5.7-2.1-11.6-2.6-17.5-0.7c-1,0.3-1.1,0.8-0.4,1.9c-0.2-1,0.2-1.3,1-1.5
				c5.3-1.5,10.6-0.9,15.8,0.6C288.3,332.4,289,332.8,289.6,333z M289.8,387c-1.4-1.2-2.7-2.2-3.9-3.4c-1-1-1-2.3,0.1-3.3
				c0.7-0.6,1.5-1.1,2.4-1.3c1.2-0.3,2.4-0.3,3.6-0.3c2.5,0.1,5,0.6,7.2,1.9c1.5,0.9,1.6,1.9,0.2,2.9c-0.8,0.6-1.7,1.1-2.6,1.3
				c-1.3,0.4-2.7,0.5-4.4,0.7c1.3,0,2.3,0.1,3.2,0c1.6-0.2,3.2-0.7,4.4-1.9c1.1-1.2,1.1-2.4-0.2-3.4c-0.4-0.3-0.9-0.7-1.4-0.9
				c-2.7-1.3-5.6-1.9-8.6-1.6c-1.3,0.1-2.7,0.6-3.8,1.3c-1.5,0.9-1.9,2.7-1.1,4C286,384.9,287.7,386.1,289.8,387z M245.9,347
				C246.1,347.1,246,347,245.9,347c-3.7,0.5-7.3,0.9-10.9,1.6c-1.1,0.2-2.2,1.3-3,2.3c-1.3,1.6-0.7,3.3,1.1,4.2
				c0.5,0.2,1,0.5,1.6,0.5c5.4,0.5,9.9-1.6,14.1-4.7c0.8-0.6,0.6-1.4-0.2-1.8c-0.8-0.4-1.8-0.6-2.7-1c0.5,0.5,1.2,0.6,1.7,0.9
				c0.4,0.2,1,0.6,1.1,1c0.1,0.3-0.4,0.9-0.8,1.2c-2.7,1.8-5.6,3.4-8.8,3.8c-1.7,0.2-3.5,0.3-5.2-0.1c-2.2-0.5-2.7-2.4-1.1-4.1
				c0.8-0.8,1.8-1.5,2.9-1.8C239.2,348.2,242.7,347.6,245.9,347z M258.3,338.1c1.8-2.1,6.5-2.3,8.3-0.4c-2,0.4-3.9,0.7-5.7,1
				c0,0.1,0,0.3,0.1,0.4c1.7-0.2,3.5-0.4,5.2-0.7c0.3-0.1,0.8-0.5,0.8-0.8c0-0.3-0.4-0.8-0.7-1c-2.5-1.2-5-1.3-7.5,0
				c-0.5,0.3-0.8,0.9-1.1,1.4c0,0.1,0.4,0.6,0.5,0.5c0.6-0.2,1.2-0.5,1.7-0.8c0,0,0-0.1,0-0.1C259.5,337.7,259.1,337.8,258.3,338.1z
				 M238.8,376c-0.2,0.4-0.3,0.6-0.4,0.7c-1.9,2-6.7,1.6-8.1-0.8c-0.2-0.3,0-0.9,0-1.3c-0.8,0.3-0.9,0.9-0.2,1.8
				c1.8,2.4,6.2,2.8,8.4,0.9c0.8-0.7,0.8-1.5-0.2-1.8c-1.6-0.5-3.2-0.8-4.9-1.2c-0.4-0.1-0.8,0.1-1.2,0.2
				C234.5,374.6,236.7,375,238.8,376z M250.4,333c0,0,0.1,0.1,0.1,0.1c0.4-0.2,0.8-0.3,1.2-0.5c0.7-0.4,0.6-0.8,0.1-1.3
				c-1.5-1.5-5-1.7-6.6-0.4c-0.7,0.6-0.8,1.5-0.1,2c0.5,0.4,1.1,0.5,1.6,0.7c-0.1-0.4-0.3-0.4-0.5-0.6c-0.3-0.3-0.8-0.6-0.8-0.9
				c0-0.3,0.4-0.7,0.8-0.9c1.6-0.8,3.9-0.5,5.2,0.8C251,332.4,250.7,332.7,250.4,333z M267.9,364.6c0.2,0.4,0.4,0.8,0.7,1
				c2.3,1.5,6.5,1.7,8.1,0.4C273.8,366.1,270.9,365.9,267.9,364.6z M219.7,348c0,0.1,0,0.2,0,0.3c0.9,0,1.8,0.1,2.8,0
				c0.3,0,0.8-0.5,0.9-0.8c0.1-0.2-0.3-0.8-0.6-0.9c-1.3-0.3-2.5-0.5-3.8-0.6c-0.2,0-0.5,0.3-0.8,0.5c1.7-0.4,3.2,0.1,4.5,0.9
				c0,0.1,0,0.2,0,0.4C221.7,347.8,220.7,347.9,219.7,348z"/>
			<path class="st5" d="M621.9,231.2c-4.7-3.4-9.4-6.1-14.6-7.9c-7.1-2.5-14.4-3.1-21.9-2.4c-12.2,1.2-23.3,5.6-34.3,10.5
				c-4.5,2-9.1,3.9-13.8,5.5c-2,0.7-4.3,0.7-6.5,0.7c-0.8,0-1.8-0.5-2.5-1c-2.7-2.1-5-4.5-6.4-7.6c-2-4.2-4.2-8.3-7-12.1
				c-4.9-6.5-11.7-9.8-19.4-11.7c-6.6-1.6-13.3-1.5-20-0.6c-20.1,2.6-38.9,9.4-57.1,18c-5.7,2.7-11.5,5.3-17.2,7.9
				c-2.2,1-4.5,1.4-6.9,1.4c-0.9,0-1.5-0.3-1.7-1.1c-0.4-1.8-1-3.6-1.1-5.5c-0.2-2.9-0.1-5.9-0.3-8.9c-0.2-3.6-1.4-6.9-3.1-10
				c-1.3-2.3-3.2-3.7-5.5-4.8c-3.6-1.6-7.5-2.3-11.4-2.6c-19.6-1.6-37.5,3.4-53.4,14.9c-6.2,4.5-11.8,9.7-17.6,14.7
				c-7.4,6.4-15,12.5-23.6,17.3c-4.2,2.3-8.5,4.2-13.1,5.5c-0.8,0.2-1.2,0.1-1.7-0.5c-1.8-2.2-3.8-4.3-5.7-6.6c0,0,0.1-0.2,0.3-0.2
				c8.1-1.6,15.1-5.5,21.9-10c7.4-5,14-11,20.7-16.9c8.5-7.6,16.8-15.3,25.9-22.1c7.7-5.8,15.9-10.9,25.1-14.1
				c8.3-2.8,16.9-3.4,25.6-3.1c4.1,0.2,8.1,0.8,11.8,2.6c3.7,1.8,6.3,4.4,6.8,8.7c0.2,1.4,0.6,2.7,1,4.1c1.3,4.4,4.1,6.5,8.7,6.8
				c3.4,0.3,6.6-0.5,9.7-1.8c4.5-2,8.9-4.2,13.4-6.1c17.6-7.3,35.8-12.7,54.6-16c11.7-2,23.4-3.1,35.3-3.2c5.2,0,10.3-0.1,15.5,0
				c2.5,0.1,5,0.3,7.5,0.8c7,1.4,10.5,6.9,8.9,13.9c-0.8,3.6-2,7.1-2.8,10.8c-0.8,3.5-1.2,7.1-0.9,10.7c0.2,2.6,1.5,3.8,4.1,3.9
				c6.6,0.5,13.2-0.4,19.7-1.3c7.5-1.1,15-2.4,22.6-2.2c7.5,0.2,14.7,1.6,21.5,5c1.1,0.6,2,1.3,2.5,2.4c2,4.3,4,8.6,6,12.9
				C621.6,230.3,621.7,230.6,621.9,231.2z"/>
			<path class="st4" d="M724.3,304.9c-1-0.2-2-0.5-3-0.5c-4.1-0.2-8.1,0.1-11.7,2.3c-1.2,0.7-2.3,1.7-3.3,2.8
				c-1.5,1.6-1,2.9,1.1,3.3c3.5,0.7,7.2,0.6,12.4-0.3c-0.6,0.4-0.9,0.6-1.2,0.8c-7.8,4.9-15.9,9.3-24.3,13.3
				c-0.8,0.4-1.4,0.4-2.1-0.2c-2.9-2.2-6.3-3.2-9.9-3.8c-3-0.5-6-0.6-9-0.8c-1,0-2.1,0.3-3,0.7c-2.3,1-4.6,2.1-6.7,3.3
				c-1,0.6-1.6,1.7-2.7,2.8c-2-0.5-4.5-1.1-6.9-1.7c-8.4-2.2-16.1-6.2-23.7-10.3c-14.1-7.7-28.3-15.2-42.4-22.9
				c-2.8-1.5-5.5-3.2-8-5.1c-5.7-4.4-9-10.3-9.6-17.5c-0.3-3.9,0.9-7.5,3.5-10.5c2.2-2.6,5.3-3.1,8.4-2.9c3.8,0.2,7.4,1.3,10.5,3.7
				c2,1.6,4.1,3.1,6.1,4.7c2.7,2.1,5.8,2.8,9,3.3c8.6,1.2,16.9-0.4,24.9-3.5c8.2-3.1,16.7-5,25.4-5.8c3.1-0.3,6.2,0,9.3,0.7
				c2.8,0.6,4.3,2.4,4.8,5.1c0.8,4,1.6,7.9,2.4,11.9c0.6,2.7,1.2,5.4,1.9,8c1.2,4.3,4.2,7.3,7.9,9.3c2.9,1.6,6.2,1.6,9.4,1.4
				c4.3-0.2,8.4-1.4,12.5-2.7c4.2-1.3,8.4-2.7,12.6-4.1c0.3-0.1,0.5-0.2,0.9-0.3c-1,1.1-1.9,2.1-2.7,3.2c-2,2.8-1.3,5.6,1.8,7.1
				c3.2,1.6,6.7,1.7,10.2,1.5c2.1-0.1,4.2-0.5,6.5-0.7c-0.4,0.4-0.7,0.7-1.1,1c-3.3,2.5-6.7,5-9.8,7.7c-2.6,2.1-5.5,3.1-8.7,3.2
				c-2.7,0-5.5-0.2-8.2-0.5c-1.6-0.2-1.8-0.8-0.7-2c2.3-2.6,5.2-3.9,8.5-4.4c2.8-0.5,5.7-1,8.5-0.2
				C724.2,305.2,724.3,305.1,724.3,304.9z M706.4,302.1c-1-0.4-2.1-0.8-3.1-1.1c-4.2-1.2-8.5-1.3-12.8-0.9c-1.4,0.1-2.9,0.5-4.3,1.1
				c-2.1,0.9-2.5,3-0.9,5c-0.1-0.4-0.2-0.7-0.3-0.9c-0.6-2-0.1-3.1,1.8-3.9c0.4-0.2,0.9-0.4,1.4-0.4c2.7-0.2,5.5-0.6,8.2-0.6
				c3.6,0.1,7.3,0.4,10.4,2.6c0.1-0.1,0.1-0.2,0.2-0.3c1.5,0.6,2.7-0.1,3.7-1.2c0.3-0.4,0.4-1,0.6-1.5c-0.1-0.1-0.3-0.2-0.4-0.2
				c-0.7,0.4-1.4,0.7-2.1,1.1c0,0.1,0,0.1,0.1,0.2c0.6-0.2,1.2-0.4,1.9-0.6c-1.3,2.3-3.2,2.6-4.5,0.7c-0.2-0.3-0.4-0.8-0.3-1.2
				c0.1-0.3,0.5-0.5,0.7-0.8c-1.1,0-1.6,0.8-1.1,1.8C705.7,301.3,706.1,301.7,706.4,302.1z M666.3,309.2c0,0,0,0.1-0.1,0.1
				c0.8,0,1.7,0,2.5,0c3,0.1,6.1,0.2,9.1,0.2c1.4,0,2.9-0.1,4-1.2c0.3-0.3,0.7-0.9,0.6-1.3c-0.1-0.3-0.7-0.7-1.2-0.8
				c-1.3-0.1-2.6-0.2-3.8-0.1c-3.5,0.3-7,0.6-10.1,2.6C667.1,309.1,666.7,309.1,666.3,309.2z M668.6,319c0.3,0,0.7,0,1,0.1
				c2.3,1,4.8,1.2,7.2,1.3c2,0.1,3.4-0.7,4.6-2.1c0.4-0.4,0.8-1.2,0.7-1.6c-0.1-0.4-1-0.9-1.5-0.9c-2.2,0-4.4,0.1-6.7,0.2
				c-1.9,0.2-3.7,0.7-5.1,2.2c-0.4-0.2-0.7-0.3-1.3-0.5C668,318.3,668.3,318.7,668.6,319z M679.8,295.2c0-0.1,0-0.3,0-0.4
				c-2.4-0.1-4.8-0.4-7.2-0.3c-1.4,0.1-2.8,0.7-4,1.4c-0.6,0.4-1.3,1.4-1.2,2.1c0.1,0.7,0.9,1.6,1.6,1.9c2.8,1,5.7,1.3,8.7,0.9
				c-0.7-0.1-1.3-0.1-2-0.2c-1.9-0.3-3.9-0.5-5.8-0.9c-1-0.2-1.9-0.6-2-1.7c-0.1-1.1,0.8-1.7,1.7-1.9c1.6-0.5,3.3-0.9,5-1
				C676.2,294.9,678,295.1,679.8,295.2z M700.7,311.6c-3.2,2.4-6.8,3.5-10.8,3.2c-2-0.1-4-0.6-5.8-1.2c-1.8-0.6-2.1-2-1.5-3.8
				c0.6-1.5,1.5-2.3,3.2-1.9c-1.1-0.6-2.1-0.7-2.8,0.2c-1.9,2.6-2,4.9,1.5,6.2c1.4,0.5,2.9,0.8,4.4,0.9
				C693.3,315.6,697.3,314.6,700.7,311.6z M653.4,300.3c-0.5,0.3-0.5,0.8,0.2,1.5c2.5,2.5,7.8,2.7,10.5,0.5c0.9-0.8,0.9-1.7,0-2.4
				c-1.2-0.9-4.2-1.4-5.8-1c0.5,0,0.9,0,1.3,0.1c1.3,0.4,2.7,0.7,4,1.2c0.8,0.3,0.8,1,0.1,1.6c-2.5,2-7.5,1.9-9.8-0.3
				C653.6,301.3,653.5,300.8,653.4,300.3z M646.1,318.4c0.3,0.2,0.6,0.4,1,0.6c3.2,1.4,6.6,1.8,10,1.4c0.9-0.1,1.8-0.9,2.4-1.6
				c0.7-0.7,0.4-1.6-0.5-2.1c-1.7-0.9-6.4-0.7-8,0.2c1.1-0.1,2.3-0.4,3.6-0.4c1.3,0,2.6,0.1,3.9,0.4c1.1,0.3,1.3,1.2,0.4,1.9
				c-0.7,0.5-1.7,1-2.5,1.1C652.8,320.3,649.4,319.8,646.1,318.4z M633.7,309.9c-0.1,0.1-0.1,0.2-0.2,0.3c1.1,0.2,2.1,0.5,3.2,0.7
				c2.4,0.3,4.9,0.4,7.2-0.5c0.4-0.2,0.8-0.6,1.1-0.9c-0.4-0.3-0.8-0.7-1.2-0.8c-1-0.2-2-0.2-3-0.3c0,0,0,0,0,0.1
				c1.3,0.2,2.5,0.5,3.8,0.7c0,0.2,0,0.4-0.1,0.5C641,311.2,637.4,310.7,633.7,309.9z M694.3,319.4c-1,1-0.7,1.8-0.1,2.7
				c1.2,2.1,4.8,1.4,6.8,0.1c-1.2,0.2-2.5,0.5-3.8,0.7C695,323.2,693.6,321.6,694.3,319.4z M659.7,309.6c0-0.2,0-0.3,0-0.5
				c-0.9-0.9-2.3-1.3-3.3-0.8c0.9,0.2,1.8,0.5,2.6,0.7c0,0.1,0,0.2-0.1,0.3c-0.9,0-1.7,0-2.6,0c0,0.1,0,0.3,0,0.4
				C657.5,309.7,658.6,309.7,659.7,309.6z"/>
			<path class="st1" d="M414.9,134.6c1.7-0.5,3.4-1.1,5.1-1.5c0.3-0.1,0.7,0,1,0.1c1.6,0.7,3.2,1.3,4.7,2.1
				c9.1,5.1,18.3,9.8,28.4,12.6c6.7,1.9,13.5,2.4,20.4,2.3c8.5-0.1,16.8-0.9,24.9-3.6c10.4-3.4,19.6-8.7,27.4-16.4
				c2.8-2.8,5.6-5.7,8.3-8.6c0.4-0.4,0.7-0.9,1.1-1.4c2.3,1.8,4.4,3.5,6.5,5c2,1.4,3.4,2.7,2.5,5.6c-0.8,2.4,0,5,0.6,7.4
				c0.9,3.6,2.1,7,4.1,10.2c4.4,7,10.1,9.1,18,6.8c1.1-0.3,2.1-0.7,3.1-1.2c0.6-0.3,0.9-0.2,1.3,0.3c2.3,2.9,4.7,5.8,7.1,8.8
				c-0.4,0.3-0.8,0.6-1.2,0.9c-4.7,3.4-10.2,4.9-15.7,6.3c-5.2,1.3-10.5,2.2-15.9,2.3c-0.5,0-1.1,0-1.5-0.2c-3.1-1.7-6.5-2.2-10-2.4
				c-0.7,0-1.3-0.1-2.2-0.2c1.1-0.8,2-1.5,2.9-2.2c5.2-4,8-9.4,8.6-15.9c0.4-4.2-1.4-7.7-3.9-10.8c-1.1-1.4-2.5-2.6-4-3.6
				c-1.6-1.1-3.4-1.1-5,0c-1.3,0.9-2.6,1.9-3.8,2.9c-0.7,0.6-1.4,1.2-2,1.9c-6.6,7.4-15.1,11.1-24.7,12.6c-6.7,1-13.4,1.8-20.1,2.7
				c-3.3,0.4-6.6,1.1-9.5,2.7c-2.4,1.3-4.4,3.2-4.2,6.2c0.1,2.6,0.9,5,2.2,7.3c0.3,0.4,0.5,0.9,0.9,1.5c-1.8,0.4-3.5,0.8-5.3,1.2
				c-2.4-4.3-4.6-8.5-7-12.6c-1.3-2.2-2.6-4.5-4.3-6.5c-4.3-5-11.1-6.8-16.8-4.6c-3.5,1.3-4.8,3.3-4.8,7c0.1,5.1,1,10.1,2.2,15
				c0.9,3.5,1.1,7.1-0.3,10.6c-0.2,0.4-0.6,0.9-1.1,1.1c-5.4,2.5-10.9,5-16.4,7.3c-3.2,1.3-6.5,2.3-9.8,3.2c-2,0.5-4.2,0.2-6.1-0.9
				c-0.8-0.5-1.5-1.3-2.4-2.1c2.7-0.7,5.1-1.2,7.4-2c2.5-0.9,5-2,7.3-3.3c4.7-2.6,7.8-6.6,9.3-11.7c1.9-6.7,2.4-13.4,0.4-20.1
				c-0.4-1.5-1.2-2.9-2.1-4.1c-1.6-2.3-3.3-2.6-5.8-1.2c-4,2.2-7.9,4.4-11.9,6.5c-5.6,2.9-11.2,5.7-16.9,8.6
				c-4.5,2.3-9.2,4.1-14.3,4c-3.2-0.1-6.4-0.8-9.6-1.3c-3.4-0.5-6.8-1.2-10.2-1.6c-1.9-0.3-3.7,0.1-5.5,1c-1.3,0.7-1.5,1.1-0.9,2.4
				c0.9,1.9,1.9,3.8,2.9,5.7c0.2,0.4,0.4,0.8,0.7,1.2c-2.6,1-5.1,2-7.8,3.1c-0.5-1-1-1.9-1.3-2.8c-2.6-6.7-6.7-12.3-11.9-17.1
				c-3.2-3-6.5-6-9.9-8.7c-2.8-2.2-6-3.8-9.7-4.1c-0.8-0.1-1.7,0.1-2.5,0.3c-1.1,0.3-1.4,1.1-1,2c0.5,1.1,1,2.3,1.7,3.3
				c1.3,2.1,2.8,4.2,4.2,6.3c3.1,4.6,3.7,8.3-0.7,14.2c-1.9,2.5-4.5,4.3-7.1,6.1c-1.4,1-2.8,1.9-4.2,3c-3.5,2.9-4.5,6.5-3.3,10.9
				c1.3,4.6,3.6,8.5,6.9,11.9c0.5,0.5,1,1.1,1.6,1.7c-3,2.7-6,5.4-8.8,7.9c-21-25-47.6-37.2-80.3-37.3c0.3-0.1,0.6-0.3,0.8-0.5
				c4.6-3.7,9.2-7.4,13.8-11.2c0.6-0.5,1.2-0.6,2-0.4c4.4,1.1,8.2,3.3,11.8,6c2.9,2.2,5.8,4.5,8.8,6.6c4.4,3.1,9.1,5.4,14.6,6
				c4.5,0.5,8.9-0.2,13.1-1.8c7.2-2.7,13.1-7.3,17.6-13.5c1.6-2.2,2.9-4.6,3-7.5c0.2-3.2-0.9-6.2-3-8.5c-2.4-2.7-5-5.3-7.7-7.7
				c-2.9-2.6-6-4.9-9-7.4c-0.4-0.3-0.7-0.6-1.2-1c0.3-0.2,0.6-0.4,0.8-0.5c6.3-2.6,12.6-5.3,18.9-7.9c0.7-0.3,1.1-0.2,1.6,0.4
				c14.5,15.2,32.1,25.1,52.6,29.7c6,1.4,12,2.1,18.2,1.4c7.4-0.8,14.1-3.5,20.2-7.5c6.5-4.2,12.5-9,17.7-14.6
				c0.3-0.3,0.5-0.7,0.8-1C412.4,136.7,413.6,135.6,414.9,134.6z"/>
			<path class="st1" d="M308.5,126c9.1-3,17.7-5.8,26.4-8.7c0.3,0.6,0.5,1,0.7,1.4c1.5,3.7,4.3,5.8,8.2,6c3.8,0.2,7.7,0.2,11.5,0
				c5.3-0.4,10.7-1,16-1.6c4.1-0.5,8.2-1.4,11.9-3.3c1.5-0.8,3-1.9,4.2-3.1c1.8-1.8,1.8-3.6,0.3-5.6c-1.2-1.7-2.7-3-4.6-3.9
				c-1-0.5-2-1-3.2-1.7c2.8-0.6,5.3-1.2,7.8-1.7c4.3-0.9,8.6-1.7,12.9-2.6c0.4-0.1,0.9-0.1,1.3,0c7.1,1.5,14,3.6,19.8,8.3
				c2.4,2,4.7,4.2,7,6.4c3,2.9,6,5.8,9.7,8c4.9,2.9,10.1,4.2,15.7,3.7c6.7-0.6,9.1-5.8,8.3-10.9c-0.4-2.8-1.4-5.6-2.7-8.1
				c-1.9-3.9-4.3-7.5-6.4-11.2c-0.2-0.4-0.5-0.7-0.8-1.2c0.5,0,0.8-0.1,1.1-0.1c5,0.2,10.1,0.4,15.1,0.6c0.4,0,1,0.5,1.2,0.9
				c1.6,3.4,2.3,7,2.5,10.8c0.2,4.9,0.2,9.8,0.6,14.6c0.2,2.8,0.9,5.7,1.7,8.4c1.1,3.6,3.5,4.9,7.1,4c2.6-0.6,5.3-1.4,7.7-2.5
				c6.2-2.6,12.3-5.6,17.9-9.3c5.1-3.4,8.5-7.9,10.1-13.8c0.1-0.3,0.2-0.5,0.3-0.9c2.9,1.7,5.8,3.3,9,5.1c-2,2.4-3.8,4.8-5.8,6.9
				c-6.6,6.8-14,12.7-23.1,16c-8.2,3-16.7,3.9-25.4,3.4c-8.2-0.5-16.3-1.6-24.3-3.5c-7.9-1.8-15-5.4-21.7-9.9c-2.4-1.7-5-3.2-7.3-5
				c-4.4-3.3-9.2-3.6-14.3-2.5c-5.4,1.2-10.4,3.1-14.9,6.5c-11.1,8.2-23.8,12.8-37.3,15.1c-5.1,0.9-10.2,1.4-15.4,1.2
				c-9.5-0.5-18.2-3.3-24.9-10.4C311.1,129.9,310,128,308.5,126z"/>
			<path class="st4" d="M69.8,362.6c0-1.4,0.9-2.1,1.9-2.3c1.6-0.4,3.3-0.8,4.9-0.9c2.9-0.2,5.8-0.2,8.6-0.1
				c1.2,0.1,2.4,0.6,3.7,0.8c-0.8-0.4-1.5-0.9-2.4-1.1c-4.6-1.1-9.2-0.9-13.8,0c-0.6,0.1-1.2,0.4-1.8,0.6c-1.3,0.6-2.1,1.6-1.9,3.3
				c-2-0.1-4-0.2-5.9-0.4c-3.1-0.3-6.1-0.6-9.2-0.9c-0.7-0.1-0.9-0.3-1.2-0.9c-0.3-0.9-0.7-1.9-1.2-2.7c-1.1-2-0.7-3.7,1.4-4.7
				c1-0.5,2.2-0.9,3.3-1.1c3.5-0.6,6.9-0.1,9.9,1.9c0.8,0.5,1.5,1.3,1.8,2.1c0.5,1.1-0.3,2.5-1.7,2.9c-1.7,0.4-3.5,0.6-5.2,0.6
				c-2.7-0.1-5.4-0.4-8.1-0.7c0,0.1,0,0.2-0.1,0.3c0.7,0.1,1.4,0.3,2.1,0.4c3.3,0.6,6.7,1.2,10.1,0.6c0.6-0.1,1.2-0.3,1.8-0.6
				c2.4-1.3,2.6-3.9,0.5-5.6c-2.8-2.3-6.1-3-9.7-2.8c-0.7,0-1.3,0.2-2,0.3c-2.6,0.6-4.8,1.6-5.5,4.7c-2.6-3.3-6.2-4-10-4.5
				c0.4-0.4,0.6-0.7,0.9-1c3.9-3.7,8.4-6.6,12.9-9.5c2-1.3,4.1-2.5,6.1-3.7c0.4-0.2,1.1-0.3,1.5-0.1c3,1,5.9,1.2,8.9,0.2
				c1.4-0.5,2.6-1.2,3.4-2.5c1.1-1.7,0.6-2.8-1.5-3.1c0,0.1,0.1,0.1,0.1,0.2c2,1.1,2.2,1.8,0.5,3.3c-0.9,0.9-2.2,1.5-3.4,1.9
				c-2.7,0.7-5.3,0.3-8.3-0.6c0.6-0.4,0.9-0.6,1.3-0.8c7.9-4,15.8-7.9,23.6-11.9c0.7-0.4,1.2-0.4,1.9,0.2c6.3,4.9,13.5,8,21.4,9.4
				c5.1,0.9,10.2,1.8,15.4,2.4c6.5,0.8,13,0.6,19.5,0.1c4.8-0.4,9.6-0.7,14.3-1.4c7.8-1.1,15.6-2.7,23-5.8c0.1,0,0.2-0.1,0.4-0.1
				c0,0.2,0.1,0.3,0.1,0.5c-1.7,5.3-3.8,10.4-7.5,14.6c-4.6,5.3-10.6,8.4-17.3,10.2c-9.3,2.6-18.7,4.5-28.3,5.6
				c-9.9,1.1-19.8,2.2-29.7,2.7c-9.5,0.5-18.9,0.4-28.4,0.6C70.9,363.1,70.3,362.8,69.8,362.6z M99.9,359c2.1,1.5,4.6,1.6,7,1.3
				c0.6-0.1,1.1-0.7,1.6-1.1c-0.4-0.5-0.8-1.1-1.3-1.6c-0.2-0.2-0.5-0.3-0.8-0.3C104.1,357.3,101.8,357.1,99.9,359L99.9,359z
				 M98.1,344.4c-0.4,0.1-0.8,0.3-1.2,0.4c-2.4,0.2-4.4,1.2-6.1,2.8c-2,1.9-2,3.4-0.1,5.3c2.2,2.2,5,3.2,8,3.3
				c4.1,0.2,8-0.7,11.9-1.9c0.7-0.2,1.3-0.6,2-0.9c-0.2-0.1-0.2-0.2-0.2-0.2c-0.2,0.1-0.4,0.2-0.7,0.3c-4.7,1.7-9.5,2.4-14.5,1.8
				c-2.6-0.3-4.9-1.4-6.6-3.5c-0.8-1-0.8-1.9,0-2.9c0.3-0.4,0.7-0.8,1.1-1.1c2.2-1.8,4.7-2.6,7.6-2.4
				C98.8,344.8,98.4,344.6,98.1,344.4c0.9-0.4,1.9-0.9,2.9-1c3.5-0.3,7-0.5,10.4,0.9c0.7,0.3,1.4,0.7,2.3,1.2
				c-0.2-0.3-0.2-0.4-0.3-0.5c-0.1-0.1-0.2-0.2-0.4-0.3c-3.8-2.5-7.9-3.1-12.2-1.9C99.8,343,99,343.8,98.1,344.4z M71.6,350.2
				c1.1-0.5,2.1-1,3.1-1.2c2.1-0.3,4.2-0.7,6.3-0.6c2.3,0.1,4.5,0.8,6.1,2.6c1.4,1.6,1,3.5-0.9,4.4c-0.9,0.4-2.1,0.7-3.1,0.7
				c-2.8-0.1-5.5-0.4-8.5-0.6c0.6,0.3,1,0.6,1.5,0.7c1.9,0.3,3.8,0.6,5.7,0.7c1.4,0.1,2.9,0,4.2-0.5c2.9-1,3.6-4,1.4-6.2
				c-0.7-0.7-1.6-1.3-2.5-1.7c-4.2-1.8-8.3-0.8-12.3,0.7C72.3,349.4,72,349.8,71.6,350.2z M55.6,348.2c0-0.1,0-0.1,0-0.2
				c0.7,0,1.4,0.1,2,0c1.3-0.2,2.7-0.4,4-0.6c1.6-0.3,2.7-1.2,2.6-2c-0.1-1.4-1.3-1.7-2.4-2c-3.9-1.1-7.5-0.2-10.8,2
				c-0.4,0.3-0.8,1-0.7,1.4c0.1,0.4,0.7,0.9,1.2,1C53,347.8,54.3,348,55.6,348.2z M67.1,345.8c2.8-2.4,10.6-2.8,13.2-0.8
				c-0.2,0.2-0.4,0.5-0.5,0.7c0.1,0.1,0.2,0.1,0.3,0.2c0.3-0.4,0.8-0.8,0.8-1.2c0-0.4-0.6-0.8-0.9-1.1c-0.2-0.2-0.6-0.3-0.9-0.4
				c-3.4-0.9-6.7-0.8-10,0.2c-0.7,0.2-1.5,0.7-2.1,1.2c-0.6,0.5-0.8,1.3,0.1,1.6c1.5,0.5,3.1,0.8,4.6,1.2c0-0.1,0-0.2,0.1-0.3
				C70.3,346.8,68.8,346.3,67.1,345.8z M116.5,349.1c-1.7,1.5-3.4,1.8-5.2,1.5c-0.6-0.1-1.1-0.5-1.9-0.9c0.3,0.4,0.5,0.9,0.8,1.1
				c1.6,1,4.8,0.8,6.3-0.5c0.3-0.3,0.6-0.8,0.5-1.2c0-0.3-0.6-0.7-1-0.7c-1.4,0.1-2.8,0.2-4.2,0.4c0,0.1,0,0.2,0,0.4
				C113.3,349.1,114.8,349.1,116.5,349.1z M86.1,342.8c0,0.1,0,0.2,0.1,0.3c1.4-0.2,2.8-0.3,4.2-0.7c1.2-0.3,1.5-1.3,0.8-2.4
				c-1.4-2.3-5.8-2.9-7.8-1c-0.3,0.3-0.3,0.7-0.5,1c0.5-0.3,0.7-0.6,1-0.8c1.8-1.2,4.5-1.1,6.2,0.3c0.4,0.4,0.9,1.1,0.8,1.5
				c-0.1,0.4-0.9,0.9-1.4,1C88.4,342.5,87.3,342.6,86.1,342.8z M119.1,349.2c0-0.1,0-0.1,0-0.2c-0.4,0.4-1.1,0.9-1.1,1.3
				c0,0.6,0.5,1.5,1,1.7c0.9,0.3,2,0.4,3,0.3c1.4-0.2,2.2-1.1,2-1.9c-0.3-0.9-1.6-1.2-2.9-0.7c-0.1,0-0.1,0.1-0.1,0.1
				c0.6,0,1.2-0.1,1.9,0c0.3,0,0.8,0.4,0.8,0.6c0,0.3-0.3,0.9-0.5,0.9c-1.1,0.3-2.2,0.5-3.2,0.5c-0.5,0-1.2-0.6-1.4-1.1
				C118.3,350.3,118.8,349.7,119.1,349.2z M85.5,331.6c-1.8,1.3-4.4,1.3-5.7,0.2c0.8-0.4,1.5-0.8,2.2-1.1c-0.8,0-1.6,0.2-2.3,0.6
				c-0.6,0.4-0.7,0.9-0.1,1.5C80.8,333.7,84.4,333.1,85.5,331.6z"/>
			<path class="st2" d="M414.9,134.6c-1.2,1.1-2.5,2.1-3.7,3.2c-4.1,3.6-8.2,7.4-12.5,10.8c-6.4,5-13.3,9-21.3,10.9
				c-6.4,1.5-12.9,1.3-19.3,0.1c-14.5-2.7-27.9-8.2-40-16.5c-5.8-4-11.1-8.6-16.1-13.6c-0.2-0.2-0.3-0.4-0.6-0.7
				c2.4-0.9,4.7-1.7,6.9-2.6c0.9,1.4,1.7,2.9,2.7,4.2c5,6,11.4,9.7,19.1,11.2c7.1,1.4,14.2,1.1,21.2,0c10.9-1.7,21.3-5,31-10.2
				c3.6-1.9,7-4.3,10.3-6.6c5.4-3.7,11.4-5.1,17.7-5.5c2.5-0.2,4.9,0.7,7,2.1c3.1,2,6.1,4.1,9.1,6.2c8.9,6.3,18.9,10,29.6,11.5
				c5.8,0.8,11.6,1.6,17.4,2c16.1,1.1,30.4-3.5,42.6-14.2c2.1-1.9,4.2-3.8,6.2-5.9c1.9-2,3.6-4.3,5.5-6.6c2.5,1.7,5.2,3.5,7.9,5.3
				c-1.5,1.6-2.8,3-4.2,4.4c-3.9,4.1-7.8,8.4-12.5,11.7c-10.1,7.2-21.2,11.6-33.5,13c-7.6,0.9-15.2,1-22.9,0.2
				c-7.1-0.8-13.8-2.8-20.3-5.9c-5.8-2.8-11.4-5.8-17.1-8.6c-0.6-0.3-1.2-0.6-1.8-0.9c-2.7-1.5-5.3-0.8-7.9,0.3
				C415.3,134,415.1,134.3,414.9,134.6z"/>
			<path class="st2" d="M231.8,165.7c0.4-0.3,0.7-0.6,1.1-0.8c14.3-10.1,29.4-18.8,45.2-26.3c0.8-0.4,1.2-0.3,1.9,0.2
				c4.3,3.6,8.6,7.1,12.8,10.8c1.8,1.6,3.4,3.4,4.8,5.3c3,4.1,3.4,8.5,0.6,12.9c-5.9,9.1-14.1,14.9-25,16.5
				c-6.6,1-12.6-1.1-18.1-4.5c-2.3-1.4-4.5-3.1-6.6-4.7C240.7,169.1,240.7,169.1,231.8,165.7z"/>
			<path class="st2" d="M471.1,174.9c-1.9-2.8-2.8-5.9-2.8-9.2c0-1.7,1.1-2.9,2.4-3.9c2.6-2,5.6-2.7,8.7-3.2
				c5.3-0.7,10.6-1.1,15.9-2c4.7-0.8,9.4-1.7,14-2.9c6.4-1.7,11.7-5.3,16.3-9.9c2-2,4.2-3.8,6.4-5.6c1.3-1,2.9-1.2,4.3-0.2
				c4.5,3,7.5,7.2,7.6,12.8c0,5-1.8,9.6-5.3,13.3c-1.9,2-4.3,3.6-6.5,5.3c-0.4,0.3-1,0.4-1.5,0.4c-7,0.1-13.9,0-20.9,0.3
				c-9.9,0.3-19.8,1.5-29.6,3.2C477.1,173.7,474.1,174.3,471.1,174.9z"/>
			<path class="st2" d="M398.4,193c-0.4-1.6-0.9-3.2-1.2-4.8c-0.7-4.1-2.9-7.1-6.4-9.3c-3.9-2.4-8.1-3.6-12.6-3.9
				c-8.8-0.6-17.5-0.2-26,2.1c-2.4,0.6-2.4,0.7-3.6-1.6c-0.8-1.5-1.5-3-2.3-4.5c-0.5-1-0.2-1.6,0.8-2.1c2.3-1,4.6-1,6.9-0.6
				c3.3,0.5,6.7,1.2,10,2c6.8,1.7,13.2,1,19.5-1.8c1.3-0.6,2.5-1.2,3.8-1.8c7.6-3.8,15.2-7.7,22.7-11.6c1.8-0.9,3.5-2.1,5.3-3.1
				c2-1.1,3.2-0.9,4.6,0.9c1.8,2.1,2.4,4.8,2.8,7.4c0.8,5.6,0.3,11.1-1.3,16.5c-1.3,4.5-4,8-7.9,10.5C409,190.4,403.9,192,398.4,193
				z"/>
			<path class="st2" d="M341,181.3c-13.5,6.6-24.7,16.3-36.1,26.2c-1.5-1.8-3.1-3.4-4.4-5.3c-2.1-3.1-3.7-6.4-4.3-10.2
				c-0.4-2.4,0.1-4.7,1.8-6.5c1.5-1.6,3.3-2.8,5.1-4.2c2.2-1.8,4.6-3.3,6.7-5.3c1.5-1.4,2.6-3.2,3.5-5.1c1.7-3.3,1.5-6.7-0.6-9.9
				c-1.6-2.5-3.3-4.9-5-7.4c-0.7-1.1-1.3-2.3-1.9-3.5c-0.4-0.7-0.1-1.3,0.6-1.3c1.4-0.1,3-0.2,4.4,0.1c3.1,0.7,5.7,2.3,8.1,4.2
				c5.2,4.1,9.9,8.6,14.1,13.7c1.8,2.2,3.2,4.7,4.6,7.2C339,176.6,339.9,179,341,181.3z"/>
			<path class="st2" d="M470.9,96.6c2,0.2,4,0.3,6,0.6c8.8,1,17.5,2.5,25.8,5.4c4.6,1.6,9.1,3.6,13.6,5.5c0.8,0.3,0.9,0.7,0.7,1.6
				c-1.8,5.8-5.2,10.3-10.3,13.4c-7.5,4.6-15.3,8.6-23.9,11c-4.7,1.3-6.7,0.2-7.9-4.6c-1.2-4.7-1.4-9.5-1.4-14.3
				c0-4.4,0.1-8.9-1-13.2C472.1,100.2,471.5,98.5,470.9,96.6z"/>
			<path class="st2" d="M404.4,100.2c8.6-1.1,17.1-2.3,25.6-3.1c6.8-0.7,13.7-0.8,20.6-1.2c0.9-0.1,1.4,0.3,1.8,1
				c3.1,4.8,6,9.6,8.1,14.9c1,2.7,1.7,5.4,1.1,8.3c-0.9,4.2-3.9,6.7-8.2,6.9c-7.2,0.3-13.5-2.1-18.9-6.8c-2.6-2.2-5-4.6-7.4-7
				c-6-6.2-13.2-10.3-21.6-12.2c-0.3-0.1-0.7-0.2-1-0.3C404.5,100.7,404.5,100.6,404.4,100.2z"/>
			<path class="st2" d="M280.4,229c-2.6,1.7-5.2,3.5-7.9,5.2c-0.3,0.2-0.8,0-1.2-0.2c-3-1.4-6-3-9.3-3.2c-1.3-0.1-2.6,0.1-3.8,0.5
				c-1,0.3-2,0.8-2.9,1.3c-2,1.1-4.1,1-6.1,0.1c-1.1-0.5-2.1-1.2-3.2-1.6c-2.5-1.1-5-2.2-7.5-3.1c-2.7-0.9-5.3-0.4-7.8,0.8
				c-0.4,0.2-1,0.3-1.4,0.1c-10.6-3.9-21.5-5.2-32.8-4.4c-0.3,0-0.6,0-1.3,0c0.9-0.7,1.5-1.3,2.2-1.7c3.7-2.3,7.8-3.6,12.2-3.8
				c6.3-0.2,12.5-0.2,18.8-0.3c1.7,0,3.4-0.1,5-0.4c2.9-0.5,4.3-2.4,4.3-5.3c0-1.3-0.1-2.6-0.2-3.9c-0.1-1.6,0.6-2.8,2.2-3.2
				c2.2-0.5,4.3-0.2,6.4,0.4c2.8,0.9,5.3,2.4,7.5,4.3c1.5,1.3,1.8,3,1.7,4.8c0,0.5-0.4,1-0.7,1.3c-0.9,0.9-1.9,1.6-2.8,2.5
				c-1.9,1.7-1.6,4.3,0.6,5.6c1.8,1.1,3.9,1,5.8,0.7c6.2-0.8,12.4-0.4,18.4,1.3c1.3,0.4,2.5,1.1,3.7,1.7
				C280.4,228.7,280.4,228.8,280.4,229z"/>
			<path class="st1" d="M589,206.2c-0.2-1.9-1.3-2.9-3-3.4c-4-1.2-8-0.7-11.9,0.4c-3.2,0.9-6.4,0.9-9.5-0.1
				c-3.4-1.1-4.6-3.3-3.6-6.7c0.6-1.9,1.7-3.7,2.6-5.5c0.2-0.4,0.5-0.7,0.7-1.1c1.8-2.7,1.4-3.9-1.8-4.8c-2.9-0.9-5.9-1.2-9-0.7
				c-0.3,0.1-0.6,0.1-0.9,0.1c-0.4-1.9-0.8-3.8-1.1-5.7c1.7-0.1,3.4-0.1,5.2-0.3c4.6-0.5,9.1-1,13.7-1.8c4.8-0.9,9.2-3.2,13.4-5.7
				c0.3-0.2,0.7-0.4,1.1-0.7c1.8,2.5,3.7,5,5.4,7.5c0.2,0.2,0,0.9-0.3,1.2c-2.4,3.5-5.5,6.1-9.1,8.2c-2.1,1.2-4.1,2.5-6.1,3.7
				c-2.1,1.3-3.5,3.3-4.5,5.5c-1,2.1-0.2,3.3,2.1,2.9c2.2-0.3,4.4-0.8,6.5-1.5c6.8-2.2,12.4,0,17.4,4.5c1,0.9,1.8,2,1.8,3.5
				c0,0.6-0.1,1.1-0.9,1C594.5,206.5,591.8,206.4,589,206.2z"/>
			<path class="st2" d="M434.6,185.5c1.9-4.3,1.2-8.6,0.1-12.9c-1.1-4.4-1.8-8.9-1.8-13.5c0-2.7,1.2-4.5,3.6-5.6
				c5.2-2.3,10.2-1.4,14.5,2c1.9,1.5,3.5,3.5,4.8,5.6c2.9,4.7,5.5,9.6,8.3,14.4c0.1,0.2,0.2,0.5,0.3,0.7
				C454.5,179.3,444.6,182.4,434.6,185.5z"/>
			<path class="st2" d="M335.8,117.2c3.1-0.9,6.2-1.9,9.4-2.8c10.8-2.9,21.7-5.7,32.5-8.5c0.7-0.2,1.6,0,2.2,0.3
				c2.4,1.2,4.8,2.4,6.6,4.7c1.8,2.4,1.8,4-0.5,6c-2.8,2.5-6.2,3.8-9.8,4.5c-4.5,0.8-9,1.4-13.5,1.9c-3.8,0.4-7.7,0.8-11.6,0.9
				c-2.9,0.1-5.8,0-8.6-0.5C339,123.2,336.9,120.9,335.8,117.2z"/>
			<path class="st4" d="M667.8,257c2-6.4,0.6-11.9-2.6-17.1c-3.5-5.7-8.7-9.1-15.1-10.9c-1.1-0.3-2.2-0.5-3.6-0.9
				c1.8-1.5,3.5-3.1,5.2-4.4c2-1.5,4.2-2.9,6.4-4.3c0.5-0.3,1.3-0.4,1.9-0.3c7.3,1.3,12.5,5.6,16,12c2,3.6,3.2,7.5,3.1,11.7
				c0,0.4,0,0.9-0.2,1.3C676.6,249.3,672.8,253.5,667.8,257z"/>
			<path class="st4" d="M637.5,235.3c2.3-1.8,4.6-3.6,7-5.3c0.3-0.2,0.8-0.3,1.1-0.3c6.2,1.5,12,3.9,16,9.1
				c3.7,4.7,5.6,10.1,5.6,16.1c0,0.9-0.3,1.7-0.4,2.7c-5.4-1.1-10.6-0.4-15.8,0.4C650.3,248.1,645.4,240.8,637.5,235.3z"/>
			<path class="st2" d="M590.9,178.5c7.4,10.4,14.6,20.7,20.8,31.6c-4.4-1.2-8.8-2.3-13.3-3.5c0.5-2.2-0.7-3.9-2.5-5.3
				c-2.8-2.2-5.8-4.2-9.5-4.8c-2.6-0.4-5.1,0.1-7.6,0.7c-1.9,0.5-3.9,1-5.8,1.4c-0.2,0.1-0.5,0.2-0.7,0.1c-0.7-0.1-1.6-0.1-1.9-0.6
				c-0.3-0.3,0-1.3,0.2-1.9c1-2.3,2.7-4,4.9-5.3c1.9-1.1,3.7-2.2,5.6-3.3c3.7-2.2,6.8-5,9.2-8.6
				C590.5,178.9,590.7,178.8,590.9,178.5z"/>
			<path class="st2" d="M183.8,223.7c-2-0.7-3.7-1.4-5.7-2.1c0.9-1.3,1.7-2.6,2.6-3.8c3.7-4.8,7.4-9.5,11-14.3
				c0.5-0.6,0.9-0.8,1.7-0.6c5.3,1.6,10.5,1.3,15.6-0.6c2.1-0.8,4.2-1.4,6.3-1.9c2.6-0.6,5,0,6.8,2c1.3,1.5,2.4,3.3,3.3,5.1
				c1,2.1,0.2,3.5-2.1,3.9c-1.3,0.2-2.7,0.4-4,0.2c-6.4-0.9-12.7,0.2-18.9,1.6c-2.8,0.6-5.6,1.2-8.4,2
				C187.8,216.6,184.7,219,183.8,223.7z"/>
			<path class="st2" d="M588.5,206c-9.2,1.3-18.2,2.5-27.2,3.7c-4.3,0.6-8.7,0.9-13.1-0.3c0-1.2-0.1-2.5,0-3.8
				c0.2-4.6,1.4-9,2.7-13.3c0.6-2,0.9-4,1.3-6.1c0.1-0.7,0.4-1,1-1.1c3.4-0.7,6.7-0.3,9.9,1c1.5,0.6,1.6,1.1,0.8,2.6
				c-1,1.7-2,3.3-2.9,5c-0.6,1.2-1,2.4-1.3,3.7c-0.5,2.5,0.6,4.8,3,5.9c3.4,1.6,7,1.9,10.6,0.9c3.8-1,7.6-1.8,11.5-0.8
				c1,0.2,2.1,0.8,3,1.4C588.3,204.9,588.4,205.6,588.5,206z"/>
			<path class="st4" d="M634.2,261.9c-1.9-7.5-3.8-15.1-5.7-22.7c2.2-0.9,4.3-1.9,6.5-2.7c0.4-0.1,1,0.1,1.4,0.4
				c5.9,4.1,9.6,9.7,11.7,16.5c0.5,1.6,0.8,3.2,1.1,4.7C644,259.5,639.1,260.7,634.2,261.9z"/>
			<path class="st6" d="M193.3,228.1c1.6-0.1,3-0.3,4.3-0.4c19-1.1,36,4.4,51.5,15.1c4.1,2.8,7.5,6.4,10.6,10.2
				c2.9,3.6,3.9,7.9,4.2,12.4c0.5,6.3-0.8,12.1-4.5,17.2c-0.1,0.2-0.2,0.3-0.4,0.5c0,0.1-0.1,0.1-0.3,0.2c0.5-1.9,1-3.7,1.4-5.5
				c2.2-10-0.6-18.7-7.1-26.4c-8.7-10.3-19.8-16.4-33-18.7c-6.4-1.1-12.9-1.4-19.3-0.3c-0.3,0.1-0.7,0-1-0.2
				C197.7,231,195.6,229.7,193.3,228.1z"/>
			<path class="st4" d="M727.3,300.5c-1.5-0.2-3.9-0.5-6.2-1c-0.9-0.2-1.8-0.7-2.6-1.2c-1.4-1-1.9-2.6-1-4.1
				c1.6-2.8,3.8-5.1,6.8-6.3c3.8-1.6,7.7-2.6,11.8-2.8c3.3-0.2,6.5,0.3,9.4,1.8c1.8,0.9,2.2,1.8,1.3,3.6c-0.5,1-1.2,1.9-2,2.6
				c-2.3,2.1-4.7,4.1-7.2,5.9c-1,0.7-2.4,0.8-3.6,1C732,300.2,730,300.3,727.3,300.5z M738.2,291.4c-0.2,0-0.3,0-0.5,0.1
				c-0.5,0.1-0.9,0.3-1.4,0.4c0.3,0.4,0.6,1.1,1,1.3c1.6,0.9,4.2,0,5.1-1.6c0.5-0.8,0.1-1.7-0.8-1.6c-0.9,0.1-1.8,0.6-2.7,0.9
				C738.7,291.1,738.5,291.2,738.2,291.4z"/>
			<path class="st2" d="M571.3,153c-3.2,1.5-6.4,2.3-9.7,2.2c-4-0.1-6.9-2.2-9.3-5.2c-3.4-4.2-4.9-9.3-6-14.5
				c-0.5-2.4-0.3-4.7,0.3-7.2C555.5,135.9,563.9,143.9,571.3,153z"/>
			<path class="st4" d="M661.5,217.5c2.6-0.8,5-1.7,7.4-2.3c4.2-1.1,8.5-1.5,12.8-0.9c0.2,0,0.4,0.1,0.6,0.1c2.9,0.6,3.2,1,3.3,3.9
				c0.3,6-1.4,11.5-3.2,17.1c-0.6,1.9-1.4,3.8-2.1,5.7C680.1,228.6,673.7,221.1,661.5,217.5z"/>
			<path class="st6" d="M348.6,278.1c-1-3.3-2.7-6.1-4.7-8.8c-3.9-5.1-8.9-7.6-15.4-7.6c-8.2,0-15.5,2.5-21.6,8.1
				c-0.3,0.3-0.6,0.6-1,0.9c-0.3,0.3-0.6,0.6-1,1.1c0.3-3,1.3-5.4,3.1-7.5c3.5-4.2,8.2-6.3,13.4-7.4c3.9-0.8,7.8-1.2,11.8-0.6
				c3.6,0.6,6.4,2.4,8.7,5.1c3.2,4,5.5,8.5,6.7,13.5c0.3,1,0.2,2.1,0.3,3.2C348.8,278.1,348.7,278.1,348.6,278.1z"/>
			<path class="st1" d="M231.1,229.6c2.5-1.4,5-1.6,7.5-0.7c2.5,0.9,4.9,2.1,7.4,3.1c1.7,0.7,3.4,1.6,5.2,2c1.2,0.2,2.6-0.2,3.8-0.5
				c0.7-0.2,1.4-0.5,1.9-0.9c2.8-1.9,5.8-1.5,8.7-0.4c2,0.7,4,1.6,6.1,2.4c-0.3,0.3-0.4,0.4-0.6,0.5c-5.4,3.2-11.1,5.5-17.2,6.7
				c-0.4,0.1-1.1,0-1.4-0.2c-6.3-4.9-13.3-8.4-20.6-11.4C231.7,230,231.5,229.8,231.1,229.6z"/>
			<path class="st2" d="M580.2,164.1c1.3,1.7,2.6,3.4,4,5.3c-1.4,0.8-2.8,1.6-4.1,2.4c-5.5,3.1-11.5,4.5-17.7,5.1
				c-3.5,0.4-7.1,0.6-10.6,1c-0.7,0.1-1.1-0.2-1.6-0.8c-1-1.3-2.1-2.5-3.1-3.7C558.7,172.6,570.1,170.9,580.2,164.1z"/>
			<path class="st4" d="M661.7,328.4c0.7-0.7,1.4-1.6,2.2-2.1c4-2.3,8.1-4.2,12.9-3.7c4.2,0.4,8.3,1,12.2,2.7
				c1.2,0.5,2.4,1.2,3.6,1.8c0,0.1,0,0.3,0,0.4c-2.2,0.8-4.5,1.6-6.7,2.3c-4.4,1.3-9,1.3-13.5,0.7c-3.5-0.5-6.9-1-10.4-1.5
				C661.9,328.8,661.8,328.6,661.7,328.4z"/>
			<path class="st7" d="M68.1,262.7c-0.2,0.2-0.3,0.4-0.4,0.5c-5,5.2-7.3,11.5-7.1,18.6c0.1,6.2,2.5,11.5,7.3,15.7
				c1.2,1,1.6,2.9,2.3,4.5c-2.1-0.9-3.7-2.3-5.1-3.9c-4.2-4.8-6.6-10.4-7.9-16.5c-0.9-4.1-1.1-8.2,0-12.3c0.5-2,1.4-3.9,2.9-5.4
				C62.3,261.5,65.2,261.1,68.1,262.7z"/>
			<path class="st4" d="M213.2,361.4c4.6-0.4,9,0.2,13,2.5c0.9,0.5,1.7,1,2.5,1.7c1.5,1.3,1.2,2.8-0.7,3.1c-2.5,0.4-5,0.5-7.5,0.7
				c-0.2,0-0.5-0.2-0.7-0.4c-2.1-2.4-4.3-4.8-6.4-7.1C213.3,361.8,213.3,361.6,213.2,361.4z"/>
			<path class="st4" d="M51.7,361.6c-4.5-1-9.1-2-13.6-3.1c-1.6-0.4-1.8-0.9-0.9-2.3c2.7-4.6,1.9-4.1,6.7-2.9c4.3,1,6.6,4,8.1,7.8
				C51.8,361.3,51.7,361.5,51.7,361.6z"/>
			<path class="st6" d="M256.8,278.9c0,0.2-0.1,0.5-0.2,0.8c-0.9,2.7-1.9,5.4-2.9,8.1c-0.2,0.4-0.5,0.9-0.8,1.1
				c-3.6,2.4-7.6,3.6-11.5,5C246.6,289,251.7,283.9,256.8,278.9z"/>
			<path class="st3" d="M588.3,297.6c-3.9,0.5-7.6,1-11.4,1.5c0-3,0-5.9,0-8.9C580.6,292.7,584.3,295.1,588.3,297.6z"/>
			<path class="st7" d="M66.8,291c-3.5-5-3.7-12.9-1.1-18.3C65.3,278.7,65.5,284.7,66.8,291z"/>
			<path d="M147,296.4c4.3,0.9,8.6,1.3,13-0.5c-1.8,2.5-4.2,3.4-6.8,3.9c-4,0.7-7.9-0.3-11.6-1.5c-5.7-1.9-10.7-5.1-15.3-8.9
				c-2.6-2.2-4.8-4.8-5.1-8.4c-0.1-1.4,0.1-3.1,0.7-4.4c1.6-3.8,4.4-6.5,8-8.3c4.8-2.5,9.7-5.1,14.7-7.3c3.9-1.7,8.1-2.4,12.5-2.2
				c4.9,0.3,9.4,1.5,13.8,3.6c4.6,2.2,5.6,6.7,5.1,10.3c-0.8,5.7-3.5,10.5-7.2,14.9c-4.1,4.9-9.4,7.3-15.7,8.1
				C151.1,295.9,149,296.2,147,296.4z M144.6,293.5c3.6-0.4,6.7-0.9,9.9-1.1c4.9-0.3,8.6-2.7,11.8-6.2c3.5-3.8,6.1-8.1,6.9-13.3
				c0.6-3.6-0.7-7.4-5-8.7c-1.8-0.6-3.6-1.4-5.4-1.8c-9.7-2.2-18.1,0.4-25.4,7.1c-4.3,4-6.4,8.8-6.1,14.8c0.3,4,2.1,6.8,6,7.9
				C139.8,292.9,142.4,293.1,144.6,293.5z M128.8,287.2c-1.2-6.2,0-11.7,3.7-16.8c-3.4,1.4-6.7,4.5-7.8,7.6
				c-0.4,1.1-0.4,2.5-0.1,3.6C125.2,283.9,126.8,285.5,128.8,287.2z"/>
			<path d="M263.4,364.3c-0.8-1.1-1.4-2.1-2.1-2.7c-2.8-2.4-6.1-3.2-9.7-2.6c-4.7,0.8-8.7,2.8-11.6,6.7c-2.9,3.9-2.1,6.5,2.4,8.2
				c5.6,2.1,11.5,3.2,17.6,3.3c3.1,0.1,5.5-1.3,7.2-3.8c1.1-1.7,1.4-3.5,0.3-5.3c-0.4-0.6-0.7-1.3-1.2-2.1c2.2,1.7,2.9,4.3,1.8,6.5
				c-1.8,3.6-4.8,5.4-8.7,5.1c-4-0.4-8-1-11.9-1.8c-1.9-0.4-3.8-1.1-5.7-1.7c-0.6-0.2-1.2-0.6-1.8-0.9c-2-1.3-2.7-2.9-1.9-5.2
				c0.8-2.6,2.6-4.6,4.7-6.2c4-2.9,8.4-4.3,13.4-3.5c2.7,0.5,4.8,2,6.6,4.1C263,362.9,263.1,363.5,263.4,364.3z"/>
			<path class="st4" d="M279.4,364.1c0.2,0,0.3,0.1,0.5,0.1c2.1-0.6,4.1-0.4,6.1,0.2c0.9,0.3,1.7,0.7,1.8,1.8
				c0.1,1.1-0.6,1.8-1.5,2.2c-1.9,0.9-3.9,1-5.8,0.3C278.6,368.2,278,365.5,279.4,364.1z"/>
			<path d="M285.7,360.9c1.5-2,1.5-2.7,0.2-4.9c-1.2-1.9-2.9-3-5-3.3c-4.8-0.7-9.6-1.3-14.4-1.8c-1.2-0.1-2.4,0.2-3.5,0.4
				c-1,0.2-1.6,1-1.4,2.1c0.3,1.3,0.6,2.8,1.4,3.9c1.4,2.1,3.1,3.9,5.4,5c-0.3-0.1-0.6-0.1-0.8-0.2c-3.2-1.6-5.8-3.7-6.8-7.3
				c-0.7-2.5,0.2-4.1,2.7-4.5c2.1-0.3,4.4-0.2,6.5,0.1c3.5,0.5,7,1.2,10.5,1.8c3.3,0.6,5.7,2.4,6.7,5.7
				C287.8,359.3,287.2,360.2,285.7,360.9z"/>
			<path d="M289.6,333c-0.7-0.3-1.3-0.7-2-0.9c-5.2-1.4-10.5-2.1-15.8-0.6c-0.8,0.2-1.2,0.5-1,1.5c-0.7-1.1-0.6-1.6,0.4-1.9
				c5.9-1.9,11.7-1.5,17.5,0.7c0.3,0.1,0.7,0.3,0.9,0.5c0.9,0.6,1,1.3,0.1,1.9c-1,0.7-2.1,1.3-3.3,1.6c-4.7,1.5-9.4,1.1-14.1-0.6
				c-0.2-0.1-0.4-0.2-0.6-0.3c-0.1,0-0.1-0.1-0.1-0.3c6.2,1.6,12.3,1.9,18.1-1.1C289.6,333.4,289.6,333.2,289.6,333z"/>
			<path d="M289.8,387c-2.1-0.8-3.7-2.1-4.9-3.9c-0.8-1.3-0.4-3.1,1.1-4c1.1-0.7,2.5-1.1,3.8-1.3c3-0.3,5.9,0.2,8.6,1.6
				c0.5,0.2,1,0.5,1.4,0.9c1.3,1,1.3,2.2,0.2,3.4c-1.2,1.2-2.8,1.7-4.4,1.9c-1,0.1-2,0-3.2,0c1.6-0.3,3-0.4,4.4-0.7
				c0.9-0.3,1.9-0.8,2.6-1.3c1.3-1,1.2-2-0.2-2.9c-2.2-1.3-4.7-1.8-7.2-1.9c-1.2-0.1-2.4,0-3.6,0.3c-0.9,0.2-1.7,0.7-2.4,1.3
				c-1.1,1-1.1,2.3-0.1,3.3C287,384.7,288.4,385.8,289.8,387z"/>
			<path d="M245.9,347c-3.2,0.6-6.7,1.2-10.1,2c-1.1,0.2-2.1,1-2.9,1.8c-1.6,1.6-1.2,3.5,1.1,4.1c1.6,0.4,3.5,0.3,5.2,0.1
				c3.3-0.5,6.1-2,8.8-3.8c0.4-0.3,0.9-0.8,0.8-1.2c-0.1-0.4-0.7-0.7-1.1-1c-0.6-0.3-1.2-0.4-1.7-0.9c0.9,0.3,1.9,0.5,2.7,1
				c0.8,0.4,1,1.2,0.2,1.8c-4.2,3.1-8.7,5.1-14.1,4.7c-0.5,0-1.1-0.3-1.6-0.5c-1.9-0.9-2.4-2.6-1.1-4.2c0.8-1,1.9-2,3-2.3
				C238.6,347.9,242.2,347.5,245.9,347C246,347,246.1,347.1,245.9,347z"/>
			<path d="M279.4,364.1c-1.4,1.5-0.8,4.1,1.1,4.7c2,0.7,3.9,0.6,5.8-0.3c0.9-0.4,1.6-1.1,1.5-2.2c-0.1-1.1-0.9-1.5-1.8-1.8
				c-2-0.6-4.1-0.9-6.1-0.2c0,0,0-0.1,0-0.1c1.7-1.3,6.6-0.9,8,0.7c0.8,1,0.7,2.3-0.2,3.4c-1.6,1.7-6,2.2-8,0.9
				c-1.4-0.9-1.9-3.6-0.9-4.8C278.9,364.1,279.2,364.1,279.4,364.1z"/>
			<path d="M258.3,338.1c0.7-0.2,1.2-0.4,1.6-0.5c0,0,0,0.1,0,0.1c-0.6,0.3-1.1,0.6-1.7,0.8c-0.1,0-0.5-0.5-0.5-0.5
				c0.3-0.5,0.6-1.2,1.1-1.4c2.5-1.3,5-1.1,7.5,0c0.3,0.2,0.7,0.7,0.7,1c0,0.3-0.5,0.8-0.8,0.8c-1.7,0.3-3.5,0.5-5.2,0.7
				c0-0.1,0-0.3-0.1-0.4c1.9-0.3,3.7-0.7,5.7-1C264.8,335.7,260.2,335.9,258.3,338.1z"/>
			<path d="M238.8,376c-2.2-0.9-4.3-1.4-6.6-1.5c0.4-0.1,0.8-0.3,1.2-0.2c1.6,0.3,3.3,0.6,4.9,1.2c1,0.3,1.1,1.1,0.2,1.8
				c-2.3,2-6.6,1.5-8.4-0.9c-0.7-0.9-0.5-1.5,0.2-1.8c0,0.4-0.2,1,0,1.3c1.4,2.3,6.2,2.8,8.1,0.8C238.6,376.6,238.6,376.4,238.8,376
				z"/>
			<path d="M250.4,333c0.3-0.3,0.7-0.6,1-0.9c-1.3-1.3-3.6-1.7-5.2-0.8c-0.3,0.2-0.8,0.6-0.8,0.9c0,0.3,0.5,0.6,0.8,0.9
				c0.2,0.2,0.4,0.2,0.5,0.6c-0.5-0.2-1.1-0.4-1.6-0.7c-0.7-0.6-0.6-1.5,0.1-2c1.6-1.3,5.1-1,6.6,0.4c0.5,0.5,0.6,1-0.1,1.3
				c-0.4,0.2-0.8,0.3-1.2,0.5C250.4,333.1,250.4,333,250.4,333z"/>
			<path d="M267.9,364.6c3,1.3,5.9,1.5,8.8,1.4c-1.7,1.3-5.9,1.1-8.1-0.4C268.3,365.4,268.1,365,267.9,364.6z"/>
			<path d="M219.7,348c1-0.1,2-0.2,3-0.3c0-0.1,0-0.2,0-0.4c-1.3-0.8-2.8-1.3-4.5-0.9c0.3-0.2,0.5-0.5,0.8-0.5
				c1.3,0.2,2.6,0.3,3.8,0.6c0.3,0.1,0.7,0.7,0.6,0.9c-0.1,0.3-0.5,0.8-0.9,0.8c-0.9,0.1-1.8,0-2.8,0
				C219.7,348.2,219.7,348.1,219.7,348z"/>
			<path d="M666.3,309.2c0.4-0.1,0.8-0.2,1.1-0.4c3.1-2,6.6-2.3,10.1-2.6c1.3-0.1,2.6-0.1,3.8,0.1c0.4,0,1.1,0.4,1.2,0.8
				c0.1,0.4-0.2,1-0.6,1.3c-1.1,1.1-2.6,1.2-4,1.2c-3,0-6.1-0.1-9.1-0.2c-0.8,0-1.7,0-2.5,0C666.3,309.3,666.3,309.3,666.3,309.2z
				 M668.3,308.6c0,0.1,0.1,0.3,0.1,0.4c3.6,0,7.3,0,10.9,0c0.7,0,1.4-0.3,2-0.7c0.4-0.2,0.5-0.7,0.8-1.1c-0.4-0.2-0.8-0.6-1.2-0.6
				c-2.9,0.2-5.7,0.3-8.6,0.7C671,307.6,669.7,308.2,668.3,308.6z"/>
			<path d="M668.6,319c-0.3-0.4-0.6-0.7-1.1-1.3c0.5,0.2,0.9,0.3,1.3,0.5c1.4-1.4,3.2-2,5.1-2.2c2.2-0.2,4.4-0.3,6.7-0.2
				c0.5,0,1.4,0.4,1.5,0.9c0.1,0.4-0.3,1.2-0.7,1.6c-1.2,1.4-2.6,2.2-4.6,2.1c-2.5-0.1-4.9-0.3-7.2-1.3
				C669.3,319,668.9,319.1,668.6,319z M669.2,318.1c0,0.1,0.1,0.3,0.1,0.4c2.4,1.2,5,1.3,7.7,1.4c1.8,0.1,3.1-0.7,4.2-1.9
				c0.3-0.4,0.4-0.9,0.7-1.3c-0.5-0.2-0.9-0.6-1.4-0.5c-2.7,0.2-5.3,0.3-8,0.7C671.3,317,670.3,317.7,669.2,318.1z"/>
			<path d="M679.8,295.2c-1.8-0.1-3.5-0.3-5.2-0.2c-1.7,0.1-3.4,0.5-5,1c-0.9,0.2-1.8,0.9-1.7,1.9c0.1,1.1,1.1,1.6,2,1.7
				c1.9,0.4,3.9,0.6,5.8,0.9c0.7,0.1,1.3,0.1,2,0.2c-3,0.4-5.9,0.1-8.7-0.9c-0.7-0.2-1.5-1.2-1.6-1.9c-0.1-0.7,0.6-1.7,1.2-2.1
				c1.2-0.7,2.6-1.3,4-1.4c2.4-0.1,4.8,0.2,7.2,0.3C679.8,295,679.8,295.1,679.8,295.2z"/>
			<path d="M700.7,311.6c-3.3,3-7.3,4-11.7,3.6c-1.5-0.1-3-0.4-4.4-0.9c-3.5-1.3-3.4-3.6-1.5-6.2c0.7-0.9,1.7-0.8,2.8-0.2
				c-1.8-0.4-2.7,0.4-3.2,1.9c-0.6,1.8-0.3,3.2,1.5,3.8c1.8,0.7,3.8,1.1,5.8,1.2C693.8,315.1,697.4,314,700.7,311.6z"/>
			<path d="M707,302.6c-0.1,0.1-0.1,0.2-0.2,0.3c-3.2-2.1-6.8-2.5-10.4-2.6c-2.7-0.1-5.5,0.3-8.2,0.6c-0.5,0-0.9,0.3-1.4,0.4
				c-2,0.8-2.4,1.9-1.8,3.9c0.1,0.3,0.1,0.5,0.3,0.9c-1.6-2-1.2-4.1,0.9-5c1.3-0.6,2.8-1,4.3-1.1c4.3-0.4,8.6-0.3,12.8,0.9
				c1.1,0.3,2.1,0.7,3.1,1.1C706.6,302.3,706.8,302.4,707,302.6z"/>
			<path d="M653.4,300.3c0.2,0.4,0.2,0.9,0.5,1.2c2.2,2.2,7.3,2.4,9.8,0.3c0.7-0.6,0.7-1.3-0.1-1.6c-1.3-0.5-2.6-0.9-4-1.2
				c-0.4-0.1-0.8-0.1-1.3-0.1c1.6-0.4,4.6,0.1,5.8,1c1,0.7,1,1.6,0,2.4c-2.7,2.3-8,2-10.5-0.5C652.9,301.1,652.9,300.7,653.4,300.3z
				"/>
			<path d="M646.1,318.4c3.3,1.4,6.7,1.9,10.1,1.6c0.9-0.1,1.8-0.6,2.5-1.1c0.9-0.7,0.7-1.7-0.4-1.9c-1.3-0.3-2.6-0.4-3.9-0.4
				c-1.2,0-2.4,0.2-3.6,0.4c1.6-1,6.3-1.1,8-0.2c0.9,0.5,1.2,1.3,0.5,2.1c-0.7,0.7-1.6,1.5-2.4,1.6c-3.4,0.4-6.8,0.1-10-1.4
				C646.7,318.8,646.4,318.6,646.1,318.4z"/>
			<path d="M633.7,309.9c3.7,0.7,7.3,1.3,10.9-0.2c0-0.2,0-0.4,0.1-0.5c-1.3-0.2-2.5-0.5-3.8-0.7c0,0,0,0,0-0.1c1,0.1,2,0.1,3,0.3
				c0.4,0.1,0.8,0.5,1.2,0.8c-0.4,0.3-0.7,0.8-1.1,0.9c-2.3,0.9-4.8,0.8-7.2,0.5c-1.1-0.1-2.1-0.4-3.2-0.7
				C633.6,310.1,633.6,310,633.7,309.9z"/>
			<path d="M707,302.6c-0.2-0.2-0.4-0.3-0.6-0.5c-0.3-0.4-0.7-0.8-0.9-1.2c-0.5-1,0-1.8,1.1-1.8c-0.3,0.2-0.7,0.5-0.7,0.8
				c-0.1,0.4,0.1,0.9,0.3,1.2c1.4,1.9,3.3,1.6,4.5-0.7c-0.7,0.2-1.3,0.4-1.9,0.6c0-0.1,0-0.1-0.1-0.2c0.7-0.4,1.4-0.7,2.1-1.1
				c0.1,0.1,0.3,0.2,0.4,0.2c-0.2,0.5-0.2,1.2-0.6,1.5C709.7,302.6,708.5,303.3,707,302.6z"/>
			<path d="M694.3,319.4c-0.7,2.1,0.7,3.8,2.8,3.5c1.3-0.2,2.6-0.5,3.8-0.7c-2,1.3-5.6,2-6.8-0.1
				C693.7,321.3,693.3,320.4,694.3,319.4z"/>
			<path d="M659.7,309.6c-1.1,0.1-2.2,0.1-3.3,0.2c0-0.1,0-0.3,0-0.4c0.9,0,1.7,0,2.6,0c0-0.1,0-0.2,0.1-0.3
				c-0.9-0.2-1.7-0.4-2.6-0.7c1-0.5,2.4-0.1,3.3,0.8C659.7,309.3,659.7,309.5,659.7,309.6z"/>
			<path d="M71.6,350.2c0.4-0.4,0.7-0.8,1.1-1c4-1.5,8.1-2.6,12.3-0.7c0.9,0.4,1.8,1,2.5,1.7c2.2,2.2,1.5,5.2-1.4,6.2
				c-1.3,0.4-2.8,0.5-4.2,0.5c-1.9-0.1-3.8-0.4-5.7-0.7c-0.5-0.1-0.9-0.4-1.5-0.7c3,0.2,5.7,0.5,8.5,0.6c1,0,2.2-0.2,3.1-0.7
				c1.9-0.9,2.2-2.8,0.9-4.4c-1.6-1.8-3.8-2.6-6.1-2.6c-2.1-0.1-4.2,0.3-6.3,0.6C73.6,349.2,72.7,349.7,71.6,350.2z"/>
			<path d="M98.1,344.3c0.4,0.2,0.7,0.5,1.2,0.8c-3-0.2-5.5,0.6-7.6,2.4c-0.4,0.3-0.8,0.7-1.1,1.1c-0.8,1.1-0.8,1.9,0,2.9
				c1.7,2.1,4,3.2,6.6,3.5c4.9,0.6,9.8-0.1,14.5-1.8c0.2-0.1,0.4-0.2,0.7-0.3c0,0,0.1,0,0.2,0.2c-0.7,0.3-1.3,0.7-2,0.9
				c-3.9,1.2-7.8,2.1-11.9,1.9c-3-0.1-5.8-1.1-8-3.3c-1.9-1.9-1.9-3.5,0.1-5.3c1.7-1.6,3.7-2.6,6.1-2.8
				C97.3,344.7,97.7,344.5,98.1,344.3L98.1,344.3z"/>
			<path d="M55.6,348.2c-1.3-0.2-2.7-0.3-4-0.6c-0.5-0.1-1.1-0.6-1.2-1c-0.1-0.4,0.3-1.1,0.7-1.4c3.3-2.2,6.9-3.1,10.8-2
				c1,0.3,2.2,0.7,2.4,2c0.1,0.9-1,1.7-2.6,2c-1.3,0.3-2.7,0.5-4,0.6c-0.7,0.1-1.4,0-2,0C55.6,348,55.6,348.1,55.6,348.2z
				 M51.3,346.3c1.1,1,2.2,1.3,3.5,1.2c2.5-0.3,5-0.4,7.5-0.8c0.6-0.1,1.1-0.9,1.6-1.4c-0.5-0.5-0.9-1.2-1.5-1.3
				c-1.5-0.3-3.1-0.4-4.6-0.3C55.5,344,53.3,344.7,51.3,346.3z"/>
			<path d="M67.1,345.8c1.7,0.5,3.1,1,4.6,1.4c0,0.1,0,0.2-0.1,0.3c-1.6-0.4-3.1-0.7-4.6-1.2c-0.9-0.3-0.7-1.1-0.1-1.6
				c0.6-0.5,1.3-0.9,2.1-1.2c3.3-1,6.7-1.1,10-0.2c0.3,0.1,0.7,0.2,0.9,0.4c0.4,0.3,0.9,0.7,0.9,1.1c0,0.4-0.5,0.8-0.8,1.2
				c-0.1-0.1-0.2-0.1-0.3-0.2c0.2-0.2,0.3-0.5,0.5-0.7C77.8,343,69.9,343.3,67.1,345.8z"/>
			<path d="M98.1,344.4c0.9-0.5,1.7-1.3,2.6-1.6c4.3-1.2,8.5-0.7,12.2,1.9c0.1,0.1,0.3,0.2,0.4,0.3c0.1,0.1,0.1,0.2,0.3,0.5
				c-0.9-0.5-1.6-0.9-2.3-1.2c-3.4-1.4-6.9-1.2-10.4-0.9C100,343.4,99,344,98.1,344.4C98.1,344.3,98.1,344.4,98.1,344.4z"/>
			<path d="M99.9,359c1.9-1.8,4.3-1.7,6.6-1.7c0.3,0,0.6,0.1,0.8,0.3c0.5,0.5,0.9,1,1.3,1.6c-0.5,0.4-1,1-1.6,1.1
				C104.5,360.6,102,360.5,99.9,359c2.1,0.3,4.2,0.7,6.3,0.9c0.6,0.1,1.2-0.5,1.8-0.8c-0.7-0.5-1.3-1-2-1.4c-0.1-0.1-0.4,0-0.6,0
				C103.5,357.7,101.6,358.1,99.9,359z"/>
			<path d="M116.5,349.1c-1.8,0-3.2,0-4.6,0c0-0.1,0-0.2,0-0.4c1.4-0.1,2.8-0.3,4.2-0.4c0.3,0,0.9,0.4,1,0.7
				c0.1,0.4-0.2,0.9-0.5,1.2c-1.5,1.3-4.7,1.6-6.3,0.5c-0.3-0.2-0.5-0.6-0.8-1.1c0.8,0.4,1.3,0.8,1.9,0.9
				C113.1,350.9,114.8,350.7,116.5,349.1z"/>
			<path d="M86.1,342.8c1.2-0.2,2.4-0.3,3.5-0.6c0.5-0.1,1.3-0.6,1.4-1c0.1-0.4-0.4-1.2-0.8-1.5c-1.7-1.4-4.3-1.5-6.2-0.3
				c-0.3,0.2-0.6,0.6-1,0.8c0.2-0.4,0.2-0.8,0.5-1c1.9-1.9,6.3-1.4,7.8,1c0.6,1,0.4,2-0.8,2.4c-1.4,0.4-2.8,0.5-4.2,0.7
				C86.1,343,86.1,342.9,86.1,342.8z"/>
			<path d="M119.1,349.2c-0.2,0.5-0.8,1.1-0.6,1.4c0.2,0.5,0.9,1.1,1.4,1.1c1.1,0,2.2-0.2,3.2-0.5c0.2-0.1,0.5-0.6,0.5-0.9
				c0-0.2-0.5-0.6-0.8-0.6c-0.6-0.1-1.3,0-1.9,0c0,0,0,0,0.1-0.1c1.3-0.5,2.6-0.2,2.9,0.7c0.2,0.8-0.6,1.7-2,1.9
				c-1,0.1-2.1,0.1-3-0.3c-0.5-0.2-0.9-1.1-1-1.7c0-0.4,0.7-0.9,1.1-1.3C119,349.1,119.1,349.2,119.1,349.2z"/>
			<path d="M85.5,331.6c-1.1,1.5-4.6,2.1-5.8,1.1c-0.6-0.5-0.5-1.1,0.1-1.5c0.7-0.4,1.4-0.6,2.3-0.6c-0.7,0.4-1.4,0.7-2.2,1.1
				C81,332.9,83.6,332.9,85.5,331.6z"/>
			<path class="st4" d="M738.2,291.4c0.2-0.2,0.5-0.3,0.7-0.5c1-0.2,2-0.4,3.1-0.6c-0.3,1.5-1.8,2.6-3.2,2.5c-0.8,0-1.7,0-2.2-1.1
				C737.3,291.6,737.8,291.5,738.2,291.4z"/>
			<path d="M738.2,291.4c-0.5,0.1-0.9,0.2-1.5,0.3c0.4,1.1,1.4,1.1,2.2,1.1c1.4,0,2.9-1.1,3.2-2.5c-1.1,0.2-2.1,0.4-3.1,0.6
				c0.9-0.3,1.8-0.8,2.7-0.9c0.9-0.1,1.3,0.8,0.8,1.6c-0.9,1.6-3.5,2.5-5.1,1.6c-0.4-0.2-0.7-0.9-1-1.3c0.5-0.1,0.9-0.3,1.4-0.4
				C737.9,291.4,738.1,291.4,738.2,291.4z"/>
			<path class="st7" d="M144.6,293.5c-2.2-0.4-4.8-0.7-7.3-1.4c-3.9-1.1-5.8-3.9-6-7.9c-0.4-5.9,1.8-10.7,6.1-14.8
				c7.2-6.8,15.6-9.4,25.4-7.1c1.9,0.4,3.6,1.3,5.4,1.8c4.4,1.3,5.6,5.1,5,8.7c-0.9,5.2-3.5,9.5-6.9,13.3c-3.2,3.5-6.9,5.9-11.8,6.2
				C151.3,292.6,148.2,293.1,144.6,293.5z"/>
			<path class="st7" d="M128.8,287.2c-1.9-1.7-3.6-3.3-4.2-5.7c-0.3-1.1-0.3-2.5,0.1-3.6c1.1-3.1,4.3-6.2,7.8-7.6
				C128.8,275.5,127.6,281,128.8,287.2z"/>
			<path class="st4" d="M668.3,308.6c1.4-0.4,2.7-1,4.1-1.2c2.8-0.4,5.7-0.5,8.6-0.7c0.4,0,0.8,0.4,1.2,0.6
				c-0.3,0.4-0.5,0.9-0.8,1.1c-0.6,0.3-1.3,0.7-2,0.7c-3.6,0.1-7.3,0-10.9,0C668.3,308.9,668.3,308.8,668.3,308.6z"/>
			<path class="st4" d="M669.2,318.1c1.1-0.4,2.1-1.1,3.3-1.2c2.6-0.4,5.3-0.5,8-0.7c0.5,0,0.9,0.4,1.4,0.5c-0.2,0.4-0.3,1-0.7,1.3
				c-1.1,1.2-2.3,2-4.2,1.9c-2.6-0.1-5.2-0.2-7.7-1.4C669.3,318.4,669.2,318.2,669.2,318.1z"/>
			<path class="st4" d="M51.3,346.3c1.9-1.6,4.1-2.4,6.4-2.6c1.5-0.1,3.1,0,4.6,0.3c0.6,0.1,1,0.9,1.5,1.3c-0.5,0.5-1,1.3-1.6,1.4
				c-2.5,0.4-5,0.5-7.5,0.8C53.5,347.6,52.4,347.3,51.3,346.3z"/>
			<path class="st4" d="M99.9,359c1.7-0.8,3.6-1.3,5.5-1.2c0.2,0,0.5-0.1,0.6,0c0.7,0.4,1.4,0.9,2,1.4c-0.6,0.3-1.2,0.8-1.8,0.8
				C104.1,359.7,102,359.3,99.9,359L99.9,359z"/>
		</g>
		<path d="M746.5,284c-0.4-0.2-0.8-0.4-1.2-0.5c-5-2.1-10.2-2-15.3-0.5c-5.4,1.6-10.8,3.6-16.1,5.5c-6.9,2.5-13.9,4.8-21.3,5.5
			c-4,0.4-7.4-0.7-10.1-3.8c-1.6-1.8-2.8-3.8-3.3-6.1c-1.2-5.1-2.3-10.2-3.4-15.3c-0.8-3.7-1.1-7.7-5-9.8c1.2-1.1,2.4-2,3.5-3
			c4.8-4.4,7.9-10,10.1-16.1c2.6-7.3,4.9-14.7,4.5-22.6c-0.1-2.7-1.3-4.2-3.6-5.1c-0.6-0.2-1.2-0.4-1.8-0.6
			c-4.2-0.9-8.4-0.6-12.5,0.1c-8.7,1.5-16.1,5.5-22.8,11.1c-3.3,2.8-6.6,5.7-10,8.4c-3.1,2.4-6.7,4.1-10.6,5.3
			c-0.1-0.3-0.2-0.6-0.3-0.8c-3.7-10.9-8.8-21.3-14.8-31.1c-10.9-18-23.3-35.1-36.6-51.5c-12.9-15.9-27.9-29.5-45-40.8
			c-13.4-8.9-28.1-14.6-44-17.2c-7.9-1.3-15.8-2.1-23.7-2.4c-2.4-0.1-4.7-0.2-7.1-0.4c-2.8,0-5.6,0-8.4,0c-0.5,0.1-1,0.2-1.5,0.2
			c-10.6,0.4-21.2,1.4-31.7,2.9c-11,1.6-22,3.7-32.9,6.2c-20.2,4.5-40.2,10.1-59.9,16.5c-23.5,7.6-46.2,16.9-67.6,29.4
			c-16.5,9.6-32.1,20.5-45.9,33.7c-12.2,11.7-23.1,24.6-32.7,38.6c-0.5,0.7-0.9,0.9-1.7,0.6c-2.6-0.8-5.1-1.5-7.7-2.1
			c-9.9-2.6-19.9-2.8-29.8-0.2c-7.6,2-14.8,5.1-21.9,8.2c-16,7-29.5,17.3-40.6,30.8c-0.9,1.1-1.8,2.3-2.7,3.4
			c-0.3-0.2-0.5-0.3-0.7-0.4c-5-2.9-10.3-1.9-13.8,2.8c-2.8,3.8-3.6,8.2-3.5,12.8c0.3,8.4,2.9,16.1,7.9,22.9c2.9,3.9,6.3,7,11.2,8.2
			c0.3,0.1,0.7,0.4,0.9,0.7c3,5.1,6.8,9.5,11.3,13.3c0.3,0.2,0.6,0.3,1.1,0.6c-4.5,2.2-8.6,4.1-12.6,6.1
			c-10.3,5.2-20.3,10.8-29.5,17.8c-4.2,3.2-7.9,6.7-9.6,11.9c0,0.3,0,0.6,0,1c0.6,2,2.1,3,4,3.6c0.6,0.2,1.1,0.4,1.7,0.5
			c10.2,2.6,20.7,3.4,31.2,4c12.7,0.7,25.4,0,38-1c9.8-0.8,19.5-2,29.2-3.3c7.9-1.1,15.6-2.8,23.2-5.2c7.6-2.4,14.1-6.5,18.8-13
			c2.9-4.1,4.8-8.7,6.2-13.4c0.7-2.3,1.8-3.5,4-4.5c6.2-2.9,12.2-6.2,18.3-9.3c0.4-0.2,0.7-0.4,1.1-0.6c-0.2,0.5-0.5,0.8-0.8,1.2
			c-5.2,5.9-7.6,12.9-7.5,20.7c0.2,8.5,2.8,16.3,7.9,23.1c9.8,13.2,21.9,23.6,37.1,30c12.9,5.5,26.3,9.3,40.2,11.2
			c5.5,0.7,11,1.4,16.5,2.1c3.6,0.4,7.2,0.9,10.9,0.3c3.7-0.6,6.4-2.4,7.4-6.2c0.6-2.1,0.3-4.2-0.5-6.2c-1.4-3.5-3.7-6.3-6.3-9
			c-4-4.2-8.1-8.3-12.1-12.5c-4-4.2-5.6-9.5-6-15.2c-0.1-0.8,0.2-1.2,0.9-1.4c2.1-0.6,4.2-1.3,6.3-1.9c7.6-1.9,15.1-4.2,22.2-7.9
			c12.2-6.4,22.5-15.2,32.4-24.6c0.4-0.4,1.1-0.7,1.7-0.7c4.6,0.1,9.1,0.3,13.7,0.3c20.6,0.3,41.2-0.3,61.7-1.6
			c11.1-0.7,22.2-1.5,33.2-2.5c10.7-1,21.3-2.3,31.9-3.5c9.7-1.1,19.4-2.3,29.2-3.4c11-1.3,22.1-2.6,33.1-4c10-1.3,20-2.6,30.1-3.9
			c0.4-0.1,1,0,1.4,0.2c11.7,6.2,23.5,12.1,35,18.7c13.8,7.8,28.2,13.1,44.1,14.2c6.8,0.5,13.5,0,19.9-2.7c9.9-4.2,19.2-9.4,28.2-15
			c9.3-5.9,17.6-13.2,25.9-20.3c0.8-0.7,1.6-1.5,2.1-2.5C751,289.1,750.7,285.9,746.5,284z M669,215.2c4.2-1.1,8.5-1.5,12.8-0.9
			c0.2,0,0.4,0.1,0.6,0.1c2.9,0.6,3.2,1,3.3,3.9c0.3,6-1.4,11.5-3.2,17.1c-0.6,1.9-1.4,3.8-2.1,5.7c-0.2-12.5-6.7-20.1-18.8-23.7
			C664.1,216.7,666.5,215.8,669,215.2z M651.8,223.7c2-1.5,4.2-2.9,6.4-4.3c0.5-0.3,1.3-0.4,1.9-0.3c7.3,1.3,12.5,5.6,16,12
			c2,3.6,3.2,7.5,3.1,11.7c0,0.4,0,0.9-0.2,1.3c-2.5,5.3-6.2,9.4-11.2,12.9c2-6.4,0.6-11.9-2.6-17.1c-3.5-5.7-8.7-9.1-15.1-10.9
			c-1.1-0.3-2.2-0.5-3.6-0.9C648.4,226.6,650,225.1,651.8,223.7z M644.5,230c0.3-0.2,0.8-0.3,1.1-0.3c6.2,1.5,12,3.9,16,9.1
			c3.7,4.7,5.6,10.1,5.6,16.1c0,0.9-0.3,1.7-0.4,2.7c-5.4-1.1-10.6-0.4-15.8,0.4c-0.7-10-5.6-17.2-13.5-22.8
			C639.9,233.5,642.2,231.7,644.5,230z M635,236.6c0.4-0.1,1,0.1,1.4,0.4c5.9,4.1,9.6,9.7,11.7,16.5c0.5,1.6,0.8,3.2,1.1,4.7
			c-5.1,1.3-10,2.5-14.9,3.8c-1.9-7.5-3.8-15.1-5.7-22.7C630.6,238.4,632.8,237.4,635,236.6z M613,214.6c1.1,0.6,2,1.3,2.5,2.4
			c2,4.3,4,8.6,6,12.9c0.1,0.3,0.3,0.7,0.5,1.3c-4.7-3.4-9.4-6.1-14.6-7.9c-7.1-2.5-14.4-3.1-21.9-2.4c-12.2,1.2-23.3,5.6-34.3,10.5
			c-4.5,2-9.1,3.9-13.8,5.5c-2,0.7-4.3,0.7-6.5,0.7c-0.8,0-1.8-0.5-2.5-1c-2.7-2.1-5-4.5-6.4-7.6c-2-4.2-4.2-8.3-7-12.1
			c-4.9-6.5-11.7-9.8-19.4-11.7c-6.6-1.6-13.3-1.5-20-0.6c-20.1,2.6-38.9,9.4-57.1,18c-5.7,2.7-11.5,5.3-17.2,7.9
			c-2.2,1-4.5,1.4-6.9,1.4c-0.9,0-1.5-0.3-1.7-1.1c-0.4-1.8-1-3.6-1.1-5.5c-0.2-2.9-0.1-5.9-0.3-8.9c-0.2-3.6-1.4-6.9-3.1-10
			c-1.3-2.3-3.2-3.7-5.5-4.8c-3.6-1.6-7.5-2.3-11.4-2.6c-19.6-1.6-37.5,3.4-53.4,14.9c-6.2,4.5-11.8,9.7-17.6,14.7
			c-7.4,6.4-15,12.5-23.6,17.3c-4.2,2.3-8.5,4.2-13.1,5.5c-0.8,0.2-1.2,0.1-1.7-0.5c-1.8-2.2-3.8-4.3-5.7-6.6c0,0,0.1-0.2,0.3-0.2
			c8.1-1.6,15.1-5.5,21.9-10c7.4-5,14-11,20.7-16.9c8.5-7.6,16.8-15.3,25.9-22.1c7.7-5.8,15.9-10.9,25.1-14.1
			c8.3-2.8,16.9-3.4,25.6-3.1c4.1,0.2,8.1,0.8,11.8,2.6c3.7,1.8,6.3,4.4,6.8,8.7c0.2,1.4,0.6,2.7,1,4.1c1.3,4.4,4.1,6.5,8.7,6.8
			c3.4,0.3,6.6-0.5,9.7-1.8c4.5-2,8.9-4.2,13.4-6.1c17.6-7.3,35.8-12.7,54.6-16c11.7-2,23.4-3.1,35.3-3.2c5.2,0,10.3-0.1,15.5,0
			c2.5,0.1,5,0.3,7.5,0.8c7,1.4,10.5,6.9,8.9,13.9c-0.8,3.6-2,7.1-2.8,10.8c-0.8,3.5-1.2,7.1-0.9,10.7c0.2,2.6,1.5,3.8,4.1,3.9
			c6.6,0.5,13.2-0.4,19.7-1.3c7.5-1.1,15-2.4,22.6-2.2C599,209.7,606.2,211.2,613,214.6z M253,251.5c-8.7-10.3-19.8-16.4-33-18.7
			c-6.4-1.1-12.9-1.4-19.3-0.3c-0.3,0.1-0.7,0-1-0.2c-2.1-1.3-4.1-2.6-6.5-4.1c1.6-0.1,3-0.3,4.3-0.4c19-1.1,36,4.4,51.5,15.1
			c4.1,2.8,7.5,6.4,10.6,10.2c2.9,3.6,3.9,7.9,4.2,12.4c0.5,6.3-0.8,12.1-4.5,17.2c-0.1,0.2-0.2,0.3-0.4,0.5c0,0.1-0.1,0.1-0.3,0.2
			c0.5-1.9,1-3.7,1.4-5.5C262.3,267.8,259.6,259.2,253,251.5z M237.4,209.1c-0.1-1.6,0.6-2.8,2.2-3.2c2.2-0.5,4.3-0.2,6.4,0.4
			c2.8,0.9,5.3,2.4,7.5,4.3c1.5,1.3,1.8,3,1.7,4.8c0,0.5-0.4,1-0.7,1.3c-0.9,0.9-1.9,1.6-2.8,2.5c-1.9,1.7-1.6,4.3,0.6,5.6
			c1.8,1.1,3.9,1,5.8,0.7c6.2-0.8,12.4-0.4,18.4,1.3c1.3,0.4,2.5,1.1,3.7,1.7c0,0.2,0,0.3,0,0.5c-2.6,1.7-5.2,3.5-7.9,5.2
			c-0.3,0.2-0.8,0-1.2-0.2c-3-1.4-6-3-9.3-3.2c-1.3-0.1-2.6,0.1-3.8,0.5c-1,0.3-2,0.8-2.9,1.3c-2,1.1-4.1,1-6.1,0.1
			c-1.1-0.5-2.1-1.2-3.2-1.6c-2.5-1.1-5-2.2-7.5-3.1c-2.7-0.9-5.3-0.4-7.8,0.8c-0.4,0.2-1,0.3-1.4,0.1c-10.6-3.9-21.5-5.2-32.8-4.4
			c-0.3,0-0.6,0-1.3,0c0.9-0.7,1.5-1.3,2.2-1.7c3.7-2.3,7.8-3.6,12.2-3.8c6.3-0.2,12.5-0.2,18.8-0.3c1.7,0,3.4-0.1,5-0.4
			c2.9-0.5,4.3-2.4,4.3-5.3C237.7,211.7,237.5,210.4,237.4,209.1z M271.8,234.5c-0.3,0.3-0.4,0.4-0.6,0.5
			c-5.4,3.2-11.1,5.5-17.2,6.7c-0.4,0.1-1.1,0-1.4-0.2c-6.3-4.9-13.3-8.4-20.6-11.4c-0.2-0.1-0.5-0.2-0.9-0.4c2.5-1.4,5-1.6,7.5-0.7
			c2.5,0.9,4.9,2.1,7.4,3.1c1.7,0.7,3.4,1.6,5.2,2c1.2,0.2,2.6-0.2,3.8-0.5c0.7-0.2,1.4-0.5,1.9-0.9c2.8-1.9,5.8-1.5,8.7-0.4
			C267.6,232.8,269.6,233.6,271.8,234.5z M305,207.6c-1.5-1.8-3.1-3.4-4.4-5.3c-2.1-3.1-3.7-6.4-4.3-10.2c-0.4-2.4,0.1-4.7,1.8-6.5
			c1.5-1.6,3.3-2.8,5.1-4.2c2.2-1.8,4.6-3.3,6.7-5.3c1.5-1.4,2.6-3.2,3.5-5.1c1.7-3.3,1.5-6.7-0.6-9.9c-1.6-2.5-3.3-4.9-5-7.4
			c-0.7-1.1-1.3-2.3-1.9-3.5c-0.4-0.7-0.1-1.3,0.6-1.3c1.4-0.1,3-0.2,4.4,0.1c3.1,0.7,5.7,2.3,8.1,4.2c5.2,4.1,9.9,8.6,14.1,13.7
			c1.8,2.2,3.2,4.7,4.6,7.2c1.2,2.2,2.2,4.6,3.3,7C327.6,188,316.3,197.6,305,207.6z M348.6,175.5c-0.8-1.5-1.5-3-2.3-4.5
			c-0.5-1-0.2-1.6,0.8-2.1c2.3-1,4.6-1,6.9-0.6c3.3,0.5,6.7,1.2,10,2c6.8,1.7,13.2,1,19.5-1.8c1.3-0.6,2.5-1.2,3.8-1.8
			c7.6-3.8,15.2-7.7,22.7-11.6c1.8-0.9,3.5-2.1,5.3-3.1c2-1.1,3.2-0.9,4.6,0.9c1.8,2.1,2.4,4.8,2.8,7.4c0.8,5.6,0.3,11.1-1.3,16.5
			c-1.3,4.5-4,8-7.9,10.5c-4.6,3-9.7,4.5-15.2,5.6c-0.4-1.6-0.9-3.2-1.2-4.8c-0.7-4.1-2.9-7.1-6.4-9.3c-3.9-2.4-8.1-3.6-12.6-3.9
			c-8.8-0.6-17.5-0.2-26,2.1C349.8,177.8,349.8,177.8,348.6,175.5z M434.6,185.5c1.9-4.3,1.2-8.6,0.1-12.9
			c-1.1-4.4-1.8-8.9-1.8-13.5c0-2.7,1.2-4.5,3.6-5.6c5.2-2.3,10.2-1.4,14.5,2c1.9,1.5,3.5,3.5,4.8,5.6c2.9,4.7,5.5,9.6,8.3,14.4
			c0.1,0.2,0.2,0.5,0.3,0.7C454.5,179.3,444.6,182.4,434.6,185.5z M471.1,174.9c-1.9-2.8-2.8-5.9-2.8-9.2c0-1.7,1.1-2.9,2.4-3.9
			c2.6-2,5.6-2.7,8.7-3.2c5.3-0.7,10.6-1.1,15.9-2c4.7-0.8,9.4-1.7,14-2.9c6.4-1.7,11.7-5.3,16.3-9.9c2-2,4.2-3.8,6.4-5.6
			c1.3-1,2.9-1.2,4.3-0.2c4.5,3,7.5,7.2,7.6,12.8c0,5-1.8,9.6-5.3,13.3c-1.9,2-4.3,3.6-6.5,5.3c-0.4,0.3-1,0.4-1.5,0.4
			c-7,0.1-13.9,0-20.9,0.3c-9.9,0.3-19.8,1.5-29.6,3.2C477.1,173.7,474.1,174.3,471.1,174.9z M562.8,203.3c3.4,1.6,7,1.9,10.6,0.9
			c3.8-1,7.6-1.8,11.5-0.8c1,0.2,2.1,0.8,3,1.4c0.4,0.3,0.5,1,0.7,1.3c-9.2,1.3-18.2,2.5-27.2,3.7c-4.3,0.6-8.7,0.9-13.1-0.3
			c0-1.2-0.1-2.5,0-3.8c0.2-4.6,1.4-9,2.7-13.3c0.6-2,0.9-4,1.3-6.1c0.1-0.7,0.4-1,1-1.1c3.4-0.7,6.7-0.3,9.9,1
			c1.5,0.6,1.6,1.1,0.8,2.6c-1,1.7-2,3.3-2.9,5c-0.6,1.2-1,2.4-1.3,3.7C559.3,199.9,560.4,202.2,562.8,203.3z M590.9,178.5
			c7.4,10.4,14.6,20.7,20.8,31.6c-4.4-1.2-8.8-2.3-13.3-3.5c0.5-2.2-0.7-3.9-2.5-5.3c-2.8-2.2-5.8-4.2-9.5-4.8
			c-2.6-0.4-5.1,0.1-7.6,0.7c-1.9,0.5-3.9,1-5.8,1.4c-0.2,0.1-0.5,0.2-0.7,0.1c-0.7-0.1-1.6-0.1-1.9-0.6c-0.3-0.3,0-1.3,0.2-1.9
			c1-2.3,2.7-4,4.9-5.3c1.9-1.1,3.7-2.2,5.6-3.3c3.7-2.2,6.8-5,9.2-8.6C590.5,178.9,590.7,178.8,590.9,178.5z M590.2,177.5
			c0.2,0.2,0,0.9-0.3,1.2c-2.4,3.5-5.5,6.1-9.1,8.2c-2.1,1.2-4.1,2.5-6.1,3.7c-2.1,1.3-3.5,3.3-4.5,5.5c-1,2.1-0.2,3.3,2.1,2.9
			c2.2-0.3,4.4-0.8,6.5-1.5c6.8-2.2,12.4,0,17.4,4.5c1,0.9,1.8,2,1.8,3.5c0,0.6-0.1,1.1-0.9,1c-2.7-0.2-5.3-0.3-8.1-0.5
			c-0.2-1.9-1.3-2.9-3-3.4c-4-1.2-8-0.7-11.9,0.4c-3.2,0.9-6.4,0.9-9.5-0.1c-3.4-1.1-4.6-3.3-3.6-6.7c0.6-1.9,1.7-3.7,2.6-5.5
			c0.2-0.4,0.5-0.7,0.7-1.1c1.8-2.7,1.4-3.9-1.8-4.8c-2.9-0.9-5.9-1.2-9-0.7c-0.3,0.1-0.6,0.1-0.9,0.1c-0.4-1.9-0.8-3.8-1.1-5.7
			c1.7-0.1,3.4-0.1,5.2-0.3c4.6-0.5,9.1-1,13.7-1.8c4.8-0.9,9.2-3.2,13.4-5.7c0.3-0.2,0.7-0.4,1.1-0.7
			C586.6,172.6,588.4,175,590.2,177.5z M584.3,169.4c-1.4,0.8-2.8,1.6-4.1,2.4c-5.5,3.1-11.5,4.5-17.7,5.1c-3.5,0.4-7.1,0.6-10.6,1
			c-0.7,0.1-1.1-0.2-1.6-0.8c-1-1.3-2.1-2.5-3.1-3.7c11.6-0.8,23-2.5,33.1-9.2C581.6,165.8,582.9,167.6,584.3,169.4z M546.5,128.3
			c9,7.6,17.3,15.6,24.8,24.7c-3.2,1.5-6.4,2.3-9.7,2.2c-4-0.1-6.9-2.2-9.3-5.2c-3.4-4.2-4.9-9.3-6-14.5
			C545.7,133.2,545.9,130.8,546.5,128.3z M476.9,97.2c8.8,1,17.5,2.5,25.8,5.4c4.6,1.6,9.1,3.6,13.6,5.5c0.8,0.3,0.9,0.7,0.7,1.6
			c-1.8,5.8-5.2,10.3-10.3,13.4c-7.5,4.6-15.3,8.6-23.9,11c-4.7,1.3-6.7,0.2-7.9-4.6c-1.2-4.7-1.4-9.5-1.4-14.3
			c0-4.4,0.1-8.9-1-13.2c-0.5-1.7-1.1-3.4-1.7-5.3C472.9,96.8,474.9,97,476.9,97.2z M430,97c6.8-0.7,13.7-0.8,20.6-1.2
			c0.9-0.1,1.4,0.3,1.8,1c3.1,4.8,6,9.6,8.1,14.9c1,2.7,1.7,5.4,1.1,8.3c-0.9,4.2-3.9,6.7-8.2,6.9c-7.2,0.3-13.5-2.1-18.9-6.8
			c-2.6-2.2-5-4.6-7.4-7c-6-6.2-13.2-10.3-21.6-12.2c-0.3-0.1-0.7-0.2-1-0.3c0,0,0-0.1-0.2-0.5C413,99.1,421.5,97.9,430,97z
			 M345.3,114.4c10.8-2.9,21.7-5.7,32.5-8.5c0.7-0.2,1.6,0,2.2,0.3c2.4,1.2,4.8,2.4,6.6,4.7c1.8,2.4,1.8,4-0.5,6
			c-2.8,2.5-6.2,3.8-9.8,4.5c-4.5,0.8-9,1.4-13.5,1.9c-3.8,0.4-7.7,0.8-11.6,0.9c-2.9,0.1-5.8,0-8.6-0.5c-3.6-0.5-5.7-2.8-6.8-6.6
			C339,116.2,342.1,115.2,345.3,114.4z M334.9,117.3c0.3,0.6,0.5,1,0.7,1.4c1.5,3.7,4.3,5.8,8.2,6c3.8,0.2,7.7,0.2,11.5,0
			c5.3-0.4,10.7-1,16-1.6c4.1-0.5,8.2-1.4,11.9-3.3c1.5-0.8,3-1.9,4.2-3.1c1.8-1.8,1.8-3.6,0.3-5.6c-1.2-1.7-2.7-3-4.6-3.9
			c-1-0.5-2-1-3.2-1.7c2.8-0.6,5.3-1.2,7.8-1.7c4.3-0.9,8.6-1.7,12.9-2.6c0.4-0.1,0.9-0.1,1.3,0c7.1,1.5,14,3.6,19.8,8.3
			c2.4,2,4.7,4.2,7,6.4c3,2.9,6,5.8,9.7,8c4.9,2.9,10.1,4.2,15.7,3.7c6.7-0.6,9.1-5.8,8.3-10.9c-0.4-2.8-1.4-5.6-2.7-8.1
			c-1.9-3.9-4.3-7.5-6.4-11.2c-0.2-0.4-0.5-0.7-0.8-1.2c0.5,0,0.8-0.1,1.1-0.1c5,0.2,10.1,0.4,15.1,0.6c0.4,0,1,0.5,1.2,0.9
			c1.6,3.4,2.3,7,2.5,10.8c0.2,4.9,0.2,9.8,0.6,14.6c0.2,2.8,0.9,5.7,1.7,8.4c1.1,3.6,3.5,4.9,7.1,4c2.6-0.6,5.3-1.4,7.7-2.5
			c6.2-2.6,12.3-5.6,17.9-9.3c5.1-3.4,8.5-7.9,10.1-13.8c0.1-0.3,0.2-0.5,0.3-0.9c2.9,1.7,5.8,3.3,9,5.1c-2,2.4-3.8,4.8-5.8,6.9
			c-6.6,6.8-14,12.7-23.1,16c-8.2,3-16.7,3.9-25.4,3.4c-8.2-0.5-16.3-1.6-24.3-3.5c-7.9-1.8-15-5.4-21.7-9.9c-2.4-1.7-5-3.2-7.3-5
			c-4.4-3.3-9.2-3.6-14.3-2.5c-5.4,1.2-10.4,3.1-14.9,6.5c-11.1,8.2-23.8,12.8-37.3,15.1c-5.1,0.9-10.2,1.4-15.4,1.2
			c-9.5-0.5-18.2-3.3-24.9-10.4c-1.5-1.5-2.6-3.4-4.1-5.4C317.5,123.1,326.2,120.2,334.9,117.3z M232.9,164.9
			c14.3-10.1,29.4-18.8,45.2-26.3c0.8-0.4,1.2-0.3,1.9,0.2c4.3,3.6,8.6,7.1,12.8,10.8c1.8,1.6,3.4,3.4,4.8,5.3
			c3,4.1,3.4,8.5,0.6,12.9c-5.9,9.1-14.1,14.9-25,16.5c-6.6,1-12.6-1.1-18.1-4.5c-2.3-1.4-4.5-3.1-6.6-4.7c-7.8-5.9-7.7-6-16.6-9.4
			C232.2,165.4,232.6,165.1,232.9,164.9z M216.3,178c4.6-3.7,9.2-7.4,13.8-11.2c0.6-0.5,1.2-0.6,2-0.4c4.4,1.1,8.2,3.3,11.8,6
			c2.9,2.2,5.8,4.5,8.8,6.6c4.4,3.1,9.1,5.4,14.6,6c4.5,0.5,8.9-0.2,13.1-1.8c7.2-2.7,13.1-7.3,17.6-13.5c1.6-2.2,2.9-4.6,3-7.5
			c0.2-3.2-0.9-6.2-3-8.5c-2.4-2.7-5-5.3-7.7-7.7c-2.9-2.6-6-4.9-9-7.4c-0.4-0.3-0.7-0.6-1.2-1c0.3-0.2,0.6-0.4,0.8-0.5
			c6.3-2.6,12.6-5.3,18.9-7.9c0.7-0.3,1.1-0.2,1.6,0.4c14.5,15.2,32.1,25.1,52.6,29.7c6,1.4,12,2.1,18.2,1.4
			c7.4-0.8,14.1-3.5,20.2-7.5c6.5-4.2,12.5-9,17.7-14.6c0.3-0.3,0.5-0.7,0.8-1c-4.1,3.6-8.2,7.4-12.5,10.8c-6.4,5-13.3,9-21.3,10.9
			c-6.4,1.5-12.9,1.3-19.3,0.1c-14.5-2.7-27.9-8.2-40-16.5c-5.8-4-11.1-8.6-16.1-13.6c-0.2-0.2-0.3-0.4-0.6-0.7
			c2.4-0.9,4.7-1.7,6.9-2.6c0.9,1.4,1.7,2.9,2.7,4.2c5,6,11.4,9.7,19.1,11.2c7.1,1.4,14.2,1.1,21.2,0c10.9-1.7,21.3-5,31-10.2
			c3.6-1.9,7-4.3,10.3-6.6c5.4-3.7,11.4-5.1,17.7-5.5c2.5-0.2,4.9,0.7,7,2.1c3.1,2,6.1,4.1,9.1,6.2c8.9,6.3,18.9,10,29.6,11.5
			c5.8,0.8,11.6,1.6,17.4,2c16.1,1.1,30.4-3.5,42.6-14.2c2.1-1.9,4.2-3.8,6.2-5.9c1.9-2,3.6-4.3,5.5-6.6c2.5,1.7,5.2,3.5,7.9,5.3
			c-1.5,1.6-2.8,3-4.2,4.4c-3.9,4.1-7.8,8.4-12.5,11.7c-10.1,7.2-21.2,11.6-33.5,13c-7.6,0.9-15.2,1-22.9,0.2
			c-7.1-0.8-13.8-2.8-20.3-5.9c-5.8-2.8-11.4-5.8-17.1-8.6c-0.6-0.3-1.2-0.6-1.8-0.9c-2.7-1.5-5.3-0.8-7.9,0.3
			c-0.3,0.1-0.5,0.5-0.7,0.7c1.7-0.5,3.4-1.1,5.1-1.5c0.3-0.1,0.7,0,1,0.1c1.6,0.7,3.2,1.3,4.7,2.1c9.1,5.1,18.3,9.8,28.4,12.6
			c6.7,1.9,13.5,2.4,20.4,2.3c8.5-0.1,16.8-0.9,24.9-3.6c10.4-3.4,19.6-8.7,27.4-16.4c2.8-2.8,5.6-5.7,8.3-8.6
			c0.4-0.4,0.7-0.9,1.1-1.4c2.3,1.8,4.4,3.5,6.5,5c2,1.4,3.4,2.7,2.5,5.6c-0.8,2.4,0,5,0.6,7.4c0.9,3.6,2.1,7,4.1,10.2
			c4.4,7,10.1,9.1,18,6.8c1.1-0.3,2.1-0.7,3.1-1.2c0.6-0.3,0.9-0.2,1.3,0.3c2.3,2.9,4.7,5.8,7.1,8.8c-0.4,0.3-0.8,0.6-1.2,0.9
			c-4.7,3.4-10.2,4.9-15.7,6.3c-5.2,1.3-10.5,2.2-15.9,2.3c-0.5,0-1.1,0-1.5-0.2c-3.1-1.7-6.5-2.2-10-2.4c-0.7,0-1.3-0.1-2.2-0.2
			c1.1-0.8,2-1.5,2.9-2.2c5.2-4,8-9.4,8.6-15.9c0.4-4.2-1.4-7.7-3.9-10.8c-1.1-1.4-2.5-2.6-4-3.6c-1.6-1.1-3.4-1.1-5,0
			c-1.3,0.9-2.6,1.9-3.8,2.9c-0.7,0.6-1.4,1.2-2,1.9c-6.6,7.4-15.1,11.1-24.7,12.6c-6.7,1-13.4,1.8-20.1,2.7
			c-3.3,0.4-6.6,1.1-9.5,2.7c-2.4,1.3-4.4,3.2-4.2,6.2c0.1,2.6,0.9,5,2.2,7.3c0.3,0.4,0.5,0.9,0.9,1.5c-1.8,0.4-3.5,0.8-5.3,1.2
			c-2.4-4.3-4.6-8.5-7-12.6c-1.3-2.2-2.6-4.5-4.3-6.5c-4.3-5-11.1-6.8-16.8-4.6c-3.5,1.3-4.8,3.3-4.8,7c0.1,5.1,1,10.1,2.2,15
			c0.9,3.5,1.1,7.1-0.3,10.6c-0.2,0.4-0.6,0.9-1.1,1.1c-5.4,2.5-10.9,5-16.4,7.3c-3.2,1.3-6.5,2.3-9.8,3.2c-2,0.5-4.2,0.2-6.1-0.9
			c-0.8-0.5-1.5-1.3-2.4-2.1c2.7-0.7,5.1-1.2,7.4-2c2.5-0.9,5-2,7.3-3.3c4.7-2.6,7.8-6.6,9.3-11.7c1.9-6.7,2.4-13.4,0.4-20.1
			c-0.4-1.5-1.2-2.9-2.1-4.1c-1.6-2.3-3.3-2.6-5.8-1.2c-4,2.2-7.9,4.4-11.9,6.5c-5.6,2.9-11.2,5.7-16.9,8.6c-4.5,2.3-9.2,4.1-14.3,4
			c-3.2-0.1-6.4-0.8-9.6-1.3c-3.4-0.5-6.8-1.2-10.2-1.6c-1.9-0.3-3.7,0.1-5.5,1c-1.3,0.7-1.5,1.1-0.9,2.4c0.9,1.9,1.9,3.8,2.9,5.7
			c0.2,0.4,0.4,0.8,0.7,1.2c-2.6,1-5.1,2-7.8,3.1c-0.5-1-1-1.9-1.3-2.8c-2.6-6.7-6.7-12.3-11.9-17.1c-3.2-3-6.5-6-9.9-8.7
			c-2.8-2.2-6-3.8-9.7-4.1c-0.8-0.1-1.7,0.1-2.5,0.3c-1.1,0.3-1.4,1.1-1,2c0.5,1.1,1,2.3,1.7,3.3c1.3,2.1,2.8,4.2,4.2,6.3
			c3.1,4.6,3.7,8.3-0.7,14.2c-1.9,2.5-4.5,4.3-7.1,6.1c-1.4,1-2.8,1.9-4.2,3c-3.5,2.9-4.5,6.5-3.3,10.9c1.3,4.6,3.6,8.5,6.9,11.9
			c0.5,0.5,1,1.1,1.6,1.7c-3,2.7-6,5.4-8.8,7.9c-21-25-47.6-37.2-80.3-37.3C215.8,178.3,216.1,178.2,216.3,178z M213.6,180.6
			c0.6-0.6,1.6-0.6,2.5-0.7c-0.3-0.1-0.5-0.1-0.8-0.2c5.3-2.5,30.3,2.5,44.1,8.9c14,6.5,26.3,15.3,36,27.7c-3.5,3.1-6.9,6-10.3,9
			c-0.5-0.7-1-1.2-1.4-1.8c-6-7.3-13.3-13.1-21.4-17.9c-11.3-6.7-23.5-11.2-36.3-13.9c-6.2-1.3-12.5-1.6-18.8-0.6
			c-0.7,0.1-1.3,0.3-2,0.5c-0.1,0-0.1,0-0.2,0c-0.6,0.1-1.1,0.2-1.7,0.2c-0.2,0-0.4,0-0.6-0.1C206.2,188,209.9,184.3,213.6,180.6z
			 M197.2,197.2c1.5-1.5,3-3,4.5-4.6c0.7,0.2,1.4,0.2,2.2,0.1c0.3,0,0.6-0.1,0.9-0.3c0.1-0.1,0.2-0.1,0.2-0.2c0,0,0,0,0,0
			c2.4-1.3,5.1-1.1,7.7-1.1c8.4,0.1,16.5,1.8,24.4,4.4c12.8,4.2,24.8,9.9,35.4,18.4c3.8,3,7.5,6.1,10.6,9.9c0.4,0.5,0.9,1.1,1.4,1.7
			c-1.2,1-2.4,1.9-3.6,2.8c-2.8-2.4-6.2-2.7-9.5-3.3c-4.7-1-9.5-0.6-14.2-0.1c-1.6,0.2-3.1,0.1-4.5-0.7c-1.9-1.1-2.1-3.3-0.4-4.8
			c0.6-0.5,1.3-1.1,1.9-1.6c2.1-1.8,2.3-4.7,0.6-6.9c-0.1-0.1-0.2-0.3-0.3-0.4c-3.9-3.5-8.3-5.8-13.7-5.5c-2.7,0.2-4,1.6-3.8,4.3
			c0.1,1.1,0.2,2.2,0.2,3.2c0.1,3-1.4,4.7-4.4,5.1c-1.2,0.2-2.4,0.2-3.6,0.3c-6.3,0.1-12.6,0.1-19,0.3c-4.3,0.1-8.4,1.3-12.2,3.4
			c-0.7,0.4-1.4,0.7-1.9,1.3c-1.3,1.6-3.2,1.7-4.9,2.2c-2.6,0.8-4.6-0.3-6.7-1.3c0.6-3,2.1-5.4,4.8-6.6c2.4-1.1,5-2,7.7-2.6
			c3.9-1,7.8-1.9,11.7-2.3c3.9-0.4,7.8,0,11.7-0.1c1.3,0,2.7-0.2,4-0.6c1.7-0.5,2.3-1.9,1.8-3.6c-0.9-2.8-2.4-5.2-4.7-7.1
			c-2.1-1.6-4.5-1.8-7-1.1c-3.3,0.9-6.5,2-9.8,2.8c-3.8,0.9-7.7,0.5-11.6-0.7C194.5,200.3,195.8,198.6,197.2,197.2z M180.7,217.8
			c3.7-4.8,7.4-9.5,11-14.3c0.5-0.6,0.9-0.8,1.7-0.6c5.3,1.6,10.5,1.3,15.6-0.6c2.1-0.8,4.2-1.4,6.3-1.9c2.6-0.6,5,0,6.8,2
			c1.3,1.5,2.4,3.3,3.3,5.1c1,2.1,0.2,3.5-2.1,3.9c-1.3,0.2-2.7,0.4-4,0.2c-6.4-0.9-12.7,0.2-18.9,1.6c-2.8,0.6-5.6,1.2-8.4,2
			c-4.2,1.3-7.3,3.7-8.2,8.4c-2-0.7-3.7-1.4-5.7-2.1C179,220.3,179.8,219,180.7,217.8z M65.1,298.1c-4.2-4.8-6.6-10.4-7.9-16.5
			c-0.9-4.1-1.1-8.2,0-12.3c0.5-2,1.4-3.9,2.9-5.4c2.2-2.3,5.2-2.7,8-1.1c-0.2,0.2-0.3,0.4-0.4,0.5c-5,5.2-7.3,11.5-7.1,18.6
			c0.1,6.2,2.5,11.5,7.3,15.7c1.2,1,1.6,2.9,2.3,4.5C68,301.1,66.5,299.7,65.1,298.1z M66.8,291c-3.5-5-3.7-12.9-1.1-18.3
			C65.3,278.7,65.5,284.7,66.8,291z M51.7,361.6c-4.5-1-9.1-2-13.6-3.1c-1.6-0.4-1.8-0.9-0.9-2.3c2.7-4.6,1.9-4.1,6.7-2.9
			c4.3,1,6.6,4,8.1,7.8C51.8,361.3,51.7,361.5,51.7,361.6z M175.1,343.9c-4.6,5.3-10.6,8.4-17.3,10.2c-9.3,2.6-18.7,4.5-28.3,5.6
			c-9.9,1.1-19.8,2.2-29.7,2.7c-9.5,0.5-18.9,0.4-28.4,0.6c-0.5,0-1.1-0.3-1.6-0.4c0-1.4,0.9-2.1,1.9-2.3c1.6-0.4,3.3-0.8,4.9-0.9
			c2.9-0.2,5.8-0.2,8.6-0.1c1.2,0.1,2.4,0.6,3.7,0.8c-0.8-0.4-1.5-0.9-2.4-1.1c-4.6-1.1-9.2-0.9-13.8,0c-0.6,0.1-1.2,0.4-1.8,0.6
			c-1.3,0.6-2.1,1.6-1.9,3.3c-2-0.1-4-0.2-5.9-0.4c-3.1-0.3-6.1-0.6-9.2-0.9c-0.7-0.1-0.9-0.3-1.2-0.9c-0.3-0.9-0.7-1.9-1.2-2.7
			c-1.1-2-0.7-3.7,1.4-4.7c1-0.5,2.2-0.9,3.3-1.1c3.5-0.6,6.9-0.1,9.9,1.9c0.8,0.5,1.5,1.3,1.8,2.1c0.5,1.1-0.3,2.5-1.7,2.9
			c-1.7,0.4-3.5,0.6-5.2,0.6c-2.7-0.1-5.4-0.4-8.1-0.7c0,0.1,0,0.2-0.1,0.3c0.7,0.1,1.4,0.3,2.1,0.4c3.3,0.6,6.7,1.2,10.1,0.6
			c0.6-0.1,1.2-0.3,1.8-0.6c2.4-1.3,2.6-3.9,0.5-5.6c-2.8-2.3-6.1-3-9.7-2.8c-0.7,0-1.3,0.2-2,0.3c-2.6,0.6-4.8,1.6-5.5,4.7
			c-2.6-3.3-6.2-4-10-4.5c0.4-0.4,0.6-0.7,0.9-1c3.9-3.7,8.4-6.6,12.9-9.5c2-1.3,4.1-2.5,6.1-3.7c0.4-0.2,1.1-0.3,1.5-0.1
			c3,1,5.9,1.2,8.9,0.2c1.4-0.5,2.6-1.2,3.4-2.5c1.1-1.7,0.6-2.8-1.5-3.1c0,0.1,0.1,0.1,0.1,0.2c2,1.1,2.2,1.8,0.5,3.3
			c-0.9,0.9-2.2,1.5-3.4,1.9c-2.7,0.7-5.3,0.3-8.3-0.6c0.6-0.4,0.9-0.6,1.3-0.8c7.9-4,15.8-7.9,23.6-11.9c0.7-0.4,1.2-0.4,1.9,0.2
			c6.3,4.9,13.5,8,21.4,9.4c5.1,0.9,10.2,1.8,15.4,2.4c6.5,0.8,13,0.6,19.5,0.1c4.8-0.4,9.6-0.7,14.3-1.4c7.8-1.1,15.6-2.7,23-5.8
			c0.1,0,0.2-0.1,0.4-0.1c0,0.2,0.1,0.3,0.1,0.5C180.9,334.6,178.8,339.7,175.1,343.9z M195.9,319.6c-7.1,3.3-14.3,6.2-21.4,9.3
			c-4.5,1.9-9.4,2.3-14.1,3c-11.6,1.7-23.3,2-34.9,1.2c-3.5-0.3-6.9-0.7-10.4-1.1c0-0.1,0-0.1,0-0.2c2.7-0.6,5.4-1.2,8.1-1.9
			c7.2-1.8,14-4.4,20.6-7.8c3.5-1.8,7.1-3.6,10.5-5.5c5-2.9,9.7-6.3,13.3-10.9c0.8-1,1.4-2.1,1.9-3.3c0.2-0.5-0.1-1.1-0.2-1.7
			c-0.5,0.2-1.3,0.3-1.6,0.7c-2.5,3.2-5.4,6-8.5,8.6c-4.8,3.9-10.4,6.4-15.8,9.1c-8.7,4.4-17.8,7.7-27.5,9.4
			c-3.6,0.6-7.2,0.7-10.9,0.9c-0.4,0-0.9-0.2-1.3-0.3c-5.9-2.2-11.4-4.9-16.2-9.1c-5.5-4.8-10.2-10.1-13.7-16.5
			c-2.4-4.4-3.3-9.3-4.2-14.2c-1-5.4-1.3-11-1-16.5c0.1-1.1,0.3-2.3,0.7-3.4c2-5.1,5.4-9.2,8.8-13.3c10.5-12.4,23.7-21,38.3-27.5
			c7.6-3.4,15.2-6.5,23.3-8.3c5.2-1.1,10.3-1.4,15.6-0.7c16.8,2.4,32.4,7.8,46,18.1c5.6,4.2,10.6,9,14.6,14.8
			c2.6,3.7,4.3,7.9,5.4,12.3c0.1,0.5,0.2,1,0.4,1.5c0.2,0.3,0.6,0.6,0.9,0.8c0.3-0.3,0.7-0.6,0.8-1c0.1-1,0.2-2.1,0-3.1
			c-0.4-1.9-0.9-3.7-1.8-5.4c-4-8.4-9.7-15.6-17-21.4c-0.3-0.2-0.6-0.5-1-0.9c3.4,0,6.6-0.2,9.8,0c7.8,0.6,15.3,2.4,22.2,6.2
			c8.4,4.6,15.1,10.8,19.7,19.3c2,3.7,2.5,7.7,2.3,11.8c0,0.3-0.2,0.7-0.4,1c-1.4,1.7-2.7,3.5-4.3,5.1c-8.1,8.3-16.5,16.2-26,22.9
			C217.3,308.5,206.9,314.6,195.9,319.6z M256.8,278.9c0,0.2-0.1,0.5-0.2,0.8c-0.9,2.7-1.9,5.4-2.9,8.1c-0.2,0.4-0.5,0.9-0.8,1.1
			c-3.6,2.4-7.6,3.6-11.5,5C246.6,289,251.7,283.9,256.8,278.9z M219.8,369c-2.1-2.4-4.3-4.8-6.4-7.1c-0.1-0.1-0.1-0.2-0.2-0.4
			c4.6-0.4,9,0.2,13,2.5c0.9,0.5,1.7,1,2.5,1.7c1.5,1.3,1.2,2.8-0.7,3.1c-2.5,0.4-5,0.5-7.5,0.7C220.3,369.4,220,369.2,219.8,369z
			 M357.8,311.6c-0.1,1.1-0.4,2.2-1.1,3.1c-6.6,8.4-14.4,15.4-23.5,21.2c-9.9,6.3-20.4,10.6-31.7,13.4c-0.1,0-0.2,0-0.2,0
			c-3.8,1.9-7.6,1.3-11.4,0.3c-2.2-0.6-4.4-1.2-6.5-2.1c-1.1-0.4-2.4-1.2-2.3-2.6c0.1-1.5,1.3-2.1,2.5-2.6c4.3-1.8,8.8-2.1,13.4-1.8
			c1.4,0.1,2.8,0.4,4.1,0.8c3.2,1.1,3.9,3,2.2,5.8c1.9-1.5,1.9-4-0.2-5.3c-1.5-0.9-3.2-1.5-4.9-1.8c-4.6-0.9-9.2-0.5-13.7,1
			c-1,0.3-2,0.9-2.8,1.5c-1.7,1.4-1.8,3.2,0,4.5c1.1,0.9,2.4,1.6,3.8,2c2.7,0.7,5.5,1.2,8.3,1.7c0.5,0.1,1.1,0.2,1.8,0.3
			c-1.6,1.1-2,2.7-2.2,4.3c-0.5,4.5,1,8.6,3.1,12.5c1.4,2.8,3.5,5,5.7,7.2c4.2,4.3,8.4,8.6,12.4,13c1.2,1.3,2.1,3,2.9,4.7
			c2,4.6-0.2,8.4-5.2,8.7c-3.4,0.2-6.8-0.2-10.1-0.5c-3.2-0.3-6.3-0.8-9.5-1.1c-1.1-0.1-1.4-0.7-1.5-1.6c-0.2-1.5,0.3-2.8,1-4
			c2.6-4,6.4-6.1,11-6.9c3.4-0.6,6.5,0.3,9.5,1.6c0.3,0.1,0.6,0.3,1,0.5c0,0,0.1,0,0.2-0.1c-1.9-1.4-4-2.1-6.2-2.6
			c-6.2-1.4-13.7,2.2-16.5,7.8c-0.8,1.6-1,3.2-0.5,5.1c-2.8-0.6-5.5-1.1-8.4-1.7c0.9-0.5,1.6-0.9,2.3-1.3c3.5-2.3,4.3-5.5,2.4-9.2
			c-2.2-4.1-5.5-7.4-9.4-9.9c-2.3-1.5-4.9-2-7.6-1.2c-5.5,1.6-6.6,7.3-4.8,10.9c-1.2,0.6-2.4,1.1-3.4,1.8c-1.3,0.8-1.3,1.6,0.1,2.4
			c2.1,1.2,4.4,1.7,6.8,1.2c1.5-0.3,2.9-1,4.2-1.7c1.1-0.5,1.1-1.1,0-1.7c-0.5-0.3-1-0.5-1.6-0.5c0.5,0.4,1.1,0.8,1.7,1.2
			c-3.3,3.1-10,2.9-11.8,0.4c1-1.7,3.5-2.7,6.6-2.5c-0.5-0.2-0.8-0.4-1-0.4c-1.4,0.2-1.6-0.8-1.6-1.8c-0.4-3.9,0.9-6.5,3.8-7.9
			c2.4-1.2,4.9-1.1,7.1,0.2c4.6,2.5,8.1,6.2,10.5,10.9c1.1,2.3,0.7,4.6-1.3,6.3c-1.2,1-2.6,2-4.1,2.3c-1.3,0.3-2.8,0-4.2-0.3
			c-13.4-2.9-26.3-7.1-38.6-13.3c-0.2-0.1-0.3-0.2-0.7-0.5c1.1-0.1,1.9-0.2,2.7-0.2c4.4,0,8.9,0,13.3,0c1.3,0,2.7,0.2,4,0.5
			c2,0.4,3.6,1.4,4.7,3.2c-0.4-1.4-1.1-2.7-2.5-3.3c-1.8-0.7-3.7-1.5-5.6-1.5c-4.6-0.1-9.3,0.2-13.9,0.3c-0.5,0-1,0.1-1.4,0.3
			c-1.5,0.6-2.7,0.2-4-0.6c-5-3.5-9.5-7.6-13.9-11.8c0,0,0-0.1-0.1-0.3c1.5,0,2.9,0.1,4.3,0c1.1-0.1,2.2-0.2,3.3-0.5
			c1.9-0.6,2.4-2.3,1-3.8c-0.5-0.6-1.1-1-1.7-1.5c-4.2-2.8-9-3.7-14-3.1c-0.4,0-1.1-0.1-1.4-0.4c-3.8-4.7-6.8-9.8-7.9-15.7
			c-2.3-12.9,1.8-25,14.7-32.2c6.3-3.5,13.1-5.6,20.2-6.8c6.3-1.1,12.7-1.8,19-2.9c14.4-2.7,27.6-8,39.2-17.3c3.7-3,7-6.4,9-10.9
			c0.2-0.5,0.6-1.1,1-1.5c7.1-6.9,15.5-9.5,25.3-7.8c3.4,0.6,5.8,2.7,7.9,5.3c0.4,0.5,0.8,1,1.2,1.5c0.9,1.2,1.5,2.4,1.3,4.1
			c-0.2,1.8,0.2,3.7,0.8,5.5c1.1,3.6,2.9,6.9,5,10c2.5,3.7,4.7,7.6,6.9,11.5C357.4,305.9,358.1,308.7,357.8,311.6z M304.9,271.8
			c0.3-3,1.3-5.4,3.1-7.5c3.5-4.2,8.2-6.3,13.4-7.4c3.9-0.8,7.8-1.2,11.8-0.6c3.6,0.6,6.4,2.4,8.7,5.1c3.2,4,5.5,8.5,6.7,13.5
			c0.3,1,0.2,2.1,0.3,3.2c-0.1,0-0.2,0.1-0.3,0.1c-1-3.3-2.7-6.1-4.7-8.8c-3.9-5.1-8.9-7.6-15.4-7.6c-8.2,0-15.5,2.5-21.6,8.1
			c-0.3,0.3-0.6,0.6-1,0.9C305.7,271,305.4,271.3,304.9,271.8z M575.3,299.3c-9.9,1.2-19.5,2.3-29.2,3.5c0.4-2.1,0.9-3.9,1.1-5.9
			c0.6-4.6,0.2-9.1-0.6-13.6c-0.9-4.7-1.8-9.4-2.7-14.1c-0.1-0.7-0.1-1.9-1.1-1.7c-1.1,0.2-0.5,1.3-0.4,2c1,5.2,2.2,10.4,3.1,15.6
			c0.9,5.4,0.9,10.7-0.5,16.1c-0.4,1.3-0.9,1.8-2.3,2c-11,1.2-22,2.6-33,3.9c-0.2,0-0.4,0-0.4,0c0.8-2.2,1.8-4.3,2.5-6.5
			c1.2-4.1,1-8.4,0.6-12.6c-0.8-9.6-3.1-19-5.2-28.4c-1-4.4-1.6-9-2.4-13.4c-0.1-0.4-0.5-0.7-0.8-1.1c-0.2,0.4-0.7,0.8-0.7,1.2
			c0.3,2.2,0.5,4.4,1,6.5c2.5,11.1,5.1,22.3,6.5,33.7c0.5,4.6,0.8,9.3-0.4,13.8c-0.6,2.1-1.7,4-2.6,6c-0.4,0.8-1,1.2-1.9,1.3
			c-4.9,0.5-9.8,1.2-14.6,1.7c-5.6,0.6-11.1,1.2-16.7,1.8c-0.2,0-0.4,0-0.5,0c0.8-2.4,1.7-4.7,2.4-7.1c1.6-6.3,1.7-12.7,1.4-19.1
			c-0.5-9-1.6-18-3.8-26.8c-1.2-4.9-2.8-9.8-5.1-14.3c-0.3-0.7-0.7-1.4-1.2-1.9c-0.2-0.3-0.7-0.3-1.1-0.4c0,0.4-0.1,0.7-0.1,1.1
			c0,0.1,0.1,0.3,0.2,0.4c4.3,7.3,6.2,15.4,7.4,23.7c0.9,6.6,1.6,13.3,2,19.9c0.4,6.4,0,12.8-1.8,19c-0.5,1.7-1.3,3.4-2.1,5
			c-0.2,0.5-0.9,0.9-1.4,1c-11.5,1-23,1.9-34.5,2.8c-1.3,0.1-2.6,0-3.9,0c0,0,0-0.2,0-0.3c2.7-5,3.4-10.4,3.5-15.9
			c0.1-9.8-0.8-19.5-2.3-29.1c-1-6.7-2.1-13.3-3.6-19.9c-0.9-3.9-2.5-7.7-3.8-11.6c-0.2-0.5-0.3-1.5-1.2-1.1
			c-0.8,0.4-0.4,1.2-0.1,1.8c1,2.8,2.2,5.5,3,8.3c2.8,10.2,4.5,20.6,5.5,31.1c0.7,7.2,1,14.4,1.2,21.7c0.1,4.4-0.7,8.7-2.5,12.9
			c-0.7,1.7-1.6,2.6-3.7,2.6c-5.5,0.1-10.9,0.5-16.4,0.7c-4.7,0.2-9.4,0.3-14.1,0.5c-0.6,0-1.2,0-2,0c0.1-0.3,0.2-0.4,0.3-0.5
			c4-4.9,5.6-10.6,6-16.7c0.6-8.7-0.6-17.2-2.3-25.6c-1.4-7.1-2.9-14.2-4.5-21.3c-0.3-1.4-0.8-2.8-1.3-4.2c-0.1-0.4-0.6-0.6-1-1
			c-0.1,0.5-0.5,1-0.4,1.4c0.4,1.7,1,3.3,1.4,5c2.5,11.6,5.3,23.1,6.3,34.9c0.6,6.6,0.6,13.3-1.6,19.7c-1,2.9-2.4,5.5-4.5,7.7
			c-0.4,0.4-1,0.7-1.5,0.7c-10.4,0-20.8,0-31.2-0.1c-0.4,0-0.8-0.1-1.2-0.1c0-0.2,0-0.3,0-0.4c2.7-5.2,3.8-10.9,4.1-16.6
			c0.5-11.7-0.5-23.3-3-34.8c-0.2-0.8-0.4-1.6-0.8-2.4c-0.2-0.3-0.7-0.5-1-0.7c-0.1,0.4-0.3,0.8-0.3,1.2c0.8,4.3,1.7,8.5,2.4,12.8
			c1.2,7.3,2,14.7,1.6,22.1c-0.2,4.8-0.8,9.6-2.4,14.1c-0.1,0.4-0.3,0.8-0.7,1.2c0-1.5,0.2-3,0-4.4c-0.6-4.3-2.7-7.9-4.9-11.5
			c-2.3-3.6-4.5-7.3-6.7-11c-0.2-0.3-0.1-1,0.1-1.2c3-2.7,3.9-6.2,3-9.9c-1.5-6.4-4.5-12.1-9.1-16.8c-3.5-3.5-7.9-5-12.7-5
			c-5.7,0-11.3,0.9-16.5,3.4c-5,2.4-8.9,5.8-10.9,11.1c-1,2.8-1.4,5.6-0.9,8.6c0.1,0.5-0.1,1.2-0.4,1.6c-2.5,3.1-5.6,5.6-8.8,7.9
			c-10.9,7.8-23.2,12.4-36.3,14.6c-6.3,1.1-12.6,1.8-18.8,2.9c-3.7,0.7-7.4,2-11.1,3c-0.4,0.1-0.7,0.2-1.1,0.3
			c0-0.1-0.1-0.1-0.1-0.2c0.6-0.4,1.2-0.9,1.9-1.3c1.2-0.8,2.6-1.5,3.7-2.5c3.8-3.3,8.4-4.7,13.1-6.2c3.5-1.1,7-2.3,10.2-4
			c3.3-1.8,5.9-4.6,8-7.8c3.9-5.7,5.1-12.1,4.9-18.9c-0.1-4.3-0.9-8.3-3.5-11.9c0-0.1,0-0.2,0-0.2c2.3-0.8,4.6-1.4,6.8-2.3
			c8.2-3.3,15.5-8.1,22.3-13.6c7.2-5.9,14.1-12,21.2-18c11.8-10,25.5-16,40.9-18.1c8.1-1.1,16.1-1,24,1.1c1.1,0.3,2.2,0.7,3.3,1.2
			c2.5,1.1,4.3,3,5.4,5.5c1.9,4.3,2.3,8.8,2.3,13.5c0,2.3,0.1,4.7,0.5,7c0.7,3.6,1.8,4.5,5.5,4.2c2.1-0.2,4.3-0.7,6.2-1.5
			c8.5-3.7,16.8-7.6,25.2-11.4c13.5-6.1,27.4-10.6,41.9-13.2c6.6-1.2,13.2-2,19.9-1.3c7,0.7,13.6,2.6,19.3,6.8
			c3.9,2.8,6.6,6.7,8.9,10.9c1.5,2.6,2.6,5.5,4.3,7.9c1.8,2.5,4.1,4.8,6.5,6.8c2,1.7,4.6,1.2,6.9,0.9c4.7-0.7,9-2.7,13.3-4.6
			c7.7-3.5,15.4-7,23.6-9.3c7.2-2,14.5-3.2,22-2.8c8.1,0.4,15.6,3,22.4,7.3c2,1.2,3.9,2.6,5.7,4c0.7,0.5,1.3,1.3,1.5,2.2
			c2.3,7.8,4.4,15.6,6.6,23.4c0.4,1.3,0.7,2.5,1.1,4c-2.6,0.8-5.1,1.6-7.7,2.3c-6,1.6-12,1.4-18.1,0.4c-3.1-0.5-5.5-2.4-7.9-4.2
			c-1.5-1.1-2.9-2.4-4.5-3.4c-4.5-3.1-9.5-4.2-14.8-3.4c-5.2,0.8-8.1,4.4-9.8,9c-2,5.3-1.3,10.4,0.8,15.5c1.3,3.1,3,5.8,5.2,8.3
			c0.3,0.3,0.6,0.7,0.6,1.1C575.3,292.3,575.3,295.7,575.3,299.3z M576.8,299.1c0-3,0-5.9,0-8.9c3.8,2.4,7.5,4.8,11.4,7.3
			C584.4,298.1,580.7,298.6,576.8,299.1z M686,329.8c-4.4,1.3-9,1.3-13.5,0.7c-3.5-0.5-6.9-1-10.4-1.5c-0.1-0.2-0.2-0.4-0.3-0.6
			c0.7-0.7,1.4-1.6,2.2-2.1c4-2.3,8.1-4.2,12.9-3.7c4.2,0.4,8.3,1,12.2,2.7c1.2,0.5,2.4,1.2,3.6,1.8c0,0.1,0,0.3,0,0.4
			C690.4,328.2,688.2,329.1,686,329.8z M734.6,301.6c-3.3,2.5-6.7,5-9.8,7.7c-2.6,2.1-5.5,3.1-8.7,3.2c-2.7,0-5.5-0.2-8.2-0.5
			c-1.6-0.2-1.8-0.8-0.7-2c2.3-2.6,5.2-3.9,8.5-4.4c2.8-0.5,5.7-1,8.5-0.2c0-0.1,0.1-0.3,0.1-0.4c-1-0.2-2-0.5-3-0.5
			c-4.1-0.2-8.1,0.1-11.7,2.3c-1.2,0.7-2.3,1.7-3.3,2.8c-1.5,1.6-1,2.9,1.1,3.3c3.5,0.7,7.2,0.6,12.4-0.3c-0.6,0.4-0.9,0.6-1.2,0.8
			c-7.8,4.9-15.9,9.3-24.3,13.3c-0.8,0.4-1.4,0.4-2.1-0.2c-2.9-2.2-6.3-3.2-9.9-3.8c-3-0.5-6-0.6-9-0.8c-1,0-2.1,0.3-3,0.7
			c-2.3,1-4.6,2.1-6.7,3.3c-1,0.6-1.6,1.7-2.7,2.8c-2-0.5-4.5-1.1-6.9-1.7c-8.4-2.2-16.1-6.2-23.7-10.3
			c-14.1-7.7-28.3-15.2-42.4-22.9c-2.8-1.5-5.5-3.2-8-5.1c-5.7-4.4-9-10.3-9.6-17.5c-0.3-3.9,0.9-7.5,3.5-10.5
			c2.2-2.6,5.3-3.1,8.4-2.9c3.8,0.2,7.4,1.3,10.5,3.7c2,1.6,4.1,3.1,6.1,4.7c2.7,2.1,5.8,2.8,9,3.3c8.6,1.2,16.9-0.4,24.9-3.5
			c8.2-3.1,16.7-5,25.4-5.8c3.1-0.3,6.2,0,9.3,0.7c2.8,0.6,4.3,2.4,4.8,5.1c0.8,4,1.6,7.9,2.4,11.9c0.6,2.7,1.2,5.4,1.9,8
			c1.2,4.3,4.2,7.3,7.9,9.3c2.9,1.6,6.2,1.6,9.4,1.4c4.3-0.2,8.4-1.4,12.5-2.7c4.2-1.3,8.4-2.7,12.6-4.1c0.3-0.1,0.5-0.2,0.9-0.3
			c-1,1.1-1.9,2.1-2.7,3.2c-2,2.8-1.3,5.6,1.8,7.1c3.2,1.6,6.7,1.7,10.2,1.5c2.1-0.1,4.2-0.5,6.5-0.7
			C735.3,301,734.9,301.3,734.6,301.6z M746.8,290.4c-0.5,1-1.2,1.9-2,2.6c-2.3,2.1-4.7,4.1-7.2,5.9c-1,0.7-2.4,0.8-3.6,1
			c-1.9,0.2-3.9,0.3-6.7,0.5c-1.5-0.2-3.9-0.5-6.2-1c-0.9-0.2-1.8-0.7-2.6-1.2c-1.4-1-1.9-2.6-1-4.1c1.6-2.8,3.8-5.1,6.8-6.3
			c3.8-1.6,7.7-2.6,11.8-2.8c3.3-0.2,6.5,0.3,9.4,1.8C747.3,287.7,747.7,288.6,746.8,290.4z"/>
	</g>
</g>
</svg>
