<?xml version="1.0" encoding="utf-8"?>
<!-- Generator: Adobe Illustrator 21.0.0, SVG Export Plug-In . SVG Version: 6.00 Build 0)  -->
<svg version="1.1" id="Слой12_xA0_Изображение_1_"
	 xmlns="http://www.w3.org/2000/svg" xmlns:xlink="http://www.w3.org/1999/xlink" x="0px" y="0px" viewBox="0 0 368.2 756"
	 style="enable-background:new 0 0 368.2 756;" xml:space="preserve">
<style type="text/css">
	.st0{fill:#75B9E9;}
	.st1{fill:#464B90;}
	.st2{fill:#232222;}
	.st3{fill:#D5AA91;}
	.st4{fill:#2F3486;}
	.st5{fill:#3A1E16;}
	.st6{fill:#391B0E;}
	.st7{fill:#FFFFFF;}
	.st8{fill:#CCB79B;}
	.st9{fill:#A15B52;}
</style>
<g>
	<path d="M277.5,424.8c0.7,2.1,1.4,4.3,2.1,6.4c1.2,4,2.4,8,3.6,12c0.1,0.5,0.2,0.9,0.3,1.4c0.2,1.5-0.5,2.6-2,2.8
		c-1.3,0.2-2.7,0-4.1,0c-0.1,1-0.2,2.2-0.2,3.4c-0.1,1.7-0.8,3.1-2.2,4c-0.7,0.4-0.7,0.8-0.5,1.6c3.3,11.3,6.1,22.8,8.2,34.4
		c1.9,10.5,3.2,21,3,31.7c-0.1,2.8,0,5.5,0,8.3c-0.1,5.1-2.5,8.7-7.1,10.9c-3,1.4-6.3,2.2-10,2.5c0.7,0.7,1.2,1.2,1.7,1.5
		c2.7,1.7,5.4,3.5,8.1,5.1c1.9,1.1,3,2.6,3,4.8c0,2.2-0.9,3.9-3,4.6c-1.9,0.7-3.9,1.1-5.9,1.3c-6.3,0.5-12.3-0.8-18.3-2.5
		c-2.9-0.8-5.8-1.5-8.7-2.1c-0.7-0.1-1.4-0.1-2-0.1c-0.4,0-1.1,0.2-1.2,0.5c-0.2,0.5-0.1,1.3,0.1,1.7c0.5,0.6,1.1,1.1,1.8,1.5
		c1.3,0.8,2.8,1.4,4.1,2.3c1.4,1.1,2.7,2.3,3.7,3.7c1.5,2.3,0.5,4.7-2.2,5.1c-2.4,0.3-4.8,0.1-7.3-0.1c-4.7-0.4-9.4-1-14.1-1.5
		c-0.2,0-0.3,0-0.6,0c-0.6,2.5-1.2,5-1.8,7.5c-3,13.3-5.6,26.7-7.7,40.3c-1.7,11-2.1,21.9-1.5,33c0.2,4.5,1.8,8.1,5.3,10.9
		c5.6,4.6,11.3,8.9,17.9,12.1c3.2,1.5,6,2.1,9.3,1c1.8-0.6,3.6-0.2,5.1,1c1.9,1.5,3.8,3,5.7,4.5c1.2,1,1.8,2.4,1.6,3.9
		c-0.1,0.7,0.2,1,0.7,1.4c1.7,1.2,3.4,2.4,4.9,3.8c2.2,2.1,1.7,4.6-1.3,5.5c-2.2,0.6-4.6,1.1-6.8,1.1c-7,0-13.9,0-20.9-0.3
		c-8-0.3-16-1-23.9-1.5c-6.8-0.5-13.6-1-20.5-1.5c-0.4,0-0.8,0-1.3,0c0.2,0.6,0.4,1.1,0.6,1.6c0.2,0.9,0.7,1.9,0.5,2.8
		c-0.2,1.6,0.2,2.9,0.9,4.2c1.7,3,0.1,7.2-3.9,7.8c-3.9,0.6-7.8,0.9-11.7,0.9c-12.4-0.3-24.7-0.8-37-1.3c-5-0.2-10-1.1-14.9-2.6
		c-1.8-0.6-3.5-1.3-5.1-2.3c-1.9-1.2-2.3-2.9-1.2-4.9c0.4-0.8,1-1.7,1.6-2.4c1.8-1.9,3.6-3.8,5.6-5.6c0.7-0.7,1.9-0.8,2.9-1.3
		c0.8-0.4,1.7-0.9,2.3-1.5c5.2-5.4,10.5-10.8,15.5-16.4c4-4.5,7.6-9.3,11.3-14c0.8-1,0.9-2.1,1-3.2c0.8-7.2-0.1-14.4-0.6-21.5
		c-0.6-8.6-1.3-17.2-2.3-25.8c-1.2-10.2-2.6-20.3-4.2-30.4c-0.9-5.2-2.5-10.3-3.8-15.4c-0.1-0.3-0.7-0.7-1.1-0.7
		c-5.9-0.8-11.8-1.4-17.7-2.5c-13.7-2.5-26.6-7.1-38.4-14.6c-2.2-1.4-4.3-3.3-6-5.3c-3.6-4.2-3.6-9.1-2.6-14.4
		c1.9-10.1,5.2-19.8,7.8-29.7c3.3-12.4,6.7-24.7,10.4-36.9c1.9-6.3,3.5-12.6,4.9-19c0.1-0.4,0.2-0.9,0.3-1.4c-3.1-0.8-4-3.3-4.8-6
		c-0.2-0.8-0.7-1.5-1.1-2.2c-0.1,0-0.3-0.1-0.4-0.1c-0.3,0.7-0.8,1.4-0.9,2.2c-0.8,3.4-1.3,6.9-2.3,10.3c-1.7,5.8-5.1,10.6-8.9,15.2
		c-0.5,0.6-1.1,1.3-1.6,2c-2.1,2.7-5.9,2.9-8,0.6c-0.7,0.6-1.3,1.3-2.1,1.9c-1.7,1.4-3.6,2.1-5.9,1.6c-2.4-0.6-3.5-2.4-2.5-4.6
		c0.7-1.5,1.6-2.9,2.5-4.3c1.5-2.3,3.2-4.5,4.8-6.7c-0.1-0.1-0.2-0.2-0.3-0.2c-0.6,0.6-1.2,1.1-1.9,1.7c-2.6,2.2-5.4,4-9,4.1
		c-1.5,0.1-3.2,0.1-3.9-1.6c-0.8-1.7,0.3-3,1.4-4.1c1-1,2.1-2,3.2-2.9c2.9-2.6,4.9-5.8,6.4-9.3c0.1-0.1,0.1-0.3,0-0.2
		c-2.4,0.9-4.8,2-7.3,2.8c-2,0.6-4,0.5-6-0.4c-2.7-1.3-3.1-3.8-0.7-5.5c3.9-2.8,7.9-5.4,12.1-7.8c3.3-2,6.7-3.8,9.5-6.7
		c1-1,2.1-2,3.3-2.8c3.7-2.5,5.2-6.1,5.8-10.4c1-7.6,1.5-15.2,1.2-23c-0.5-12-0.6-24-1-36c-0.3-7.8-0.6-15.5-1.2-23.2
		c-0.2-3.3,0.3-6.5,0.8-9.8c1.9-15,4.5-29.8,7.9-44.5c2.3-10.1,5.2-20.1,7.9-30.1c0.3-1,0.3-1.7-0.5-2.5c-1.7-1.7-1.5-3.8-1.1-5.9
		c1-4.7,3.6-8.6,6.4-12.4c4-5.3,9.2-9.4,14.3-13.7c2.4-2,5-3.9,7.5-5.8c2.5-2,5.1-3.9,7.4-6.1c3-2.9,6.5-4.5,10.6-5.1
		c4-0.5,8.1-1.2,12.1-1.8c1.7-0.2,1.8-0.3,1.8-2c-0.1-5.6-0.3-11.1-0.6-16.7c-0.1-2.2-0.4-4.3-0.6-6.6c-0.2,0.2-0.4,0.3-0.5,0.4
		c-4.3,6.7-11,7.8-17.9,5.5c-4.5-1.5-8.1-4.3-11.4-7.5c-1.5-1.4-3-2.3-5.1-2.6c-9.9-1.6-16.8-8.5-18.5-18.4
		c-0.8-4.7,0.1-9.3,2.2-13.5c1.9-3.9,4.2-7.5,6.3-11.3c0.2-0.4,0.4-0.8,0.7-1.3c-2.9,0.7-5-0.6-6.7-2.6c-0.5,1.1-0.9,2.1-1.4,3.1
		c-1.4,2.5-3.4,3.6-5.8,3.1c-1.9-0.4-3.3-1.6-4.1-3.2c-3.8-7.2-5.3-14.6-1.9-22.4c0.3-0.7,0.6-1.5,0.9-2.2c0,0,0-0.1-0.1-0.2
		c-1.4,0.7-2.7,1.6-4.1,2.1c-1.6,0.7-3.2,1.4-4.9,1.7c-1.8,0.3-2.7-0.7-2.5-2.6c1-7.7,3.8-14.6,8.5-20.9c2.3-3,4.8-5.8,7.8-8.1
		c3.9-2.9,7.9-3.2,12.2-0.8c3.9,2.3,7.4,5.1,10.3,8.8c0.2-0.1,0.3-0.2,0.5-0.3c4-4,9-5.8,14.5-6.4c1.8-0.2,3.5-0.6,5.1-1.6
		c1.3-0.9,2.8-1.4,4.3-1.8c3.8-1.2,7.4-2.9,10.7-5.1c3.4-2.2,6.7-4.6,10.2-6.6c3-1.7,6.1-3.1,9.2-4.5c3.6-1.6,7.2-1.4,10.7,0.2
		c2.9,1.4,5.6,3.1,8.3,4.7c2.8,1.7,5.6,3.4,8.4,5c1.6,1,3.3,1.2,5.2,1.2c5.9-0.1,11.8,0.5,17.5,2.3c7.2,2.2,13.7,5.8,18.8,11.5
		c3.7,4.2,5.4,9.2,5.7,14.7c0.2,4.3-0.8,8.5-1.5,12.7c-0.4,2.6-0.5,5.2,0.5,7.8c1.4,3.6,2.3,7.4,2,11.3c-0.2,3.5-1.6,6.2-4.5,8.2
		c-3.1,2-6.5,3-10.2,3.1c-0.2,0-0.4,0-0.6,0c0,0-0.1,0-0.1,0.1c-0.1,2.3-0.3,4.7-0.4,7c-0.3,3.5-1.3,6.6-3.4,9.5
		c-3.1,4.3-4.9,9.1-6.9,13.9c-1.7,4.1-3.2,8.2-4.7,12.3c-3.4,9.5-11.4,12.6-20,11.2c-0.4-0.1-0.7-0.1-1.4-0.2
		c0.1,2.2,0.2,4.2,0.4,6.2c0,0.3,0.5,0.7,0.9,0.9c6.6,3.8,13.2,7.4,19.7,11.3c5.9,3.5,11.8,7,17.6,10.7c5.7,3.7,9.1,9.2,10.7,15.7
		c1.3,5.5,2.1,11.1,3,16.6c0.6,3.3,0.1,6.5-1.1,9.7c-0.3,0.8-0.4,1.7-0.3,2.6c0.6,4.9,0.2,9.8-0.2,14.7c-1.2,14.5-1.8,29-0.8,43.5
		c0.5,6.8,2.5,13,4.9,19.2c3.2,8.1,4.3,16.5,4.4,25.1c0.1,7.7,0.1,15.4,0.4,23c0.3,5.6,1.9,11,4.6,15.9c1.8,3.2,4.5,5.9,6.8,8.8
		c1.6,2,3.2,4,4.8,6c2.3,2.9,3.7,6.3,4.7,9.9c1.2,4,3,7.6,5.6,10.9c2.2,2.9,2.7,6.3,1.6,9.8c-0.6,2-2.1,2.8-4.2,2.4
		c-2.6-0.5-4.7-1.8-5.7-4.4c-0.9-2.3-1.8-4.7-2.7-7c-0.3-0.8-0.6-1.6-1-2.4C277.7,424.8,277.6,424.8,277.5,424.8z M152.7,197.4
		c-0.5,1-1.1,1.9-1.5,2.9c-1.3,3.1-2.6,6.3-3.9,9.4c-0.5,1.3-1,2.6-1.2,4c-0.3,2.3-0.3,4.5-0.3,6.8c-0.1,11.9,1.1,23.8,2.7,35.6
		c1.3,9.8,2.8,19.6,3.7,29.5c1.3,14.5,2.1,29,2,43.6c0,0.4,0.2,0.8,0.2,1.3c3.4-2.2,5.4,0.2,7.6,1.8c1.1-1.4,2.4-1.7,4.2-0.8
		c1.4,0.7,2.7,1.6,4,2.5c1-1,2.3-1.3,3.8-0.5c1.2,0.7,2.3,1.6,3.5,2.4c1.4-2,3.8-1.3,7.7,2c2.6-1.4,4.9-0.6,7.1,1
		c0.3,0.2,0.7,0.4,1,0.4c3.3-0.6,6.1,0.3,8.1,2.9c3.5-0.4,6.5,0.6,9,3.1c1.3-1,2.6-0.8,3.9-0.3c1.3,0.5,2.4,1.3,3.4,1.9
		c3.7-0.7,5.8,1.6,8.1,3.7c1.2-1.1,2.5-1.1,3.8-0.3c0.7,0.5,1.2,1.2,1.9,1.8c0.4,0.3,0.8,0.6,1.3,0.8c1.5,0.4,3.1,0.6,4.6,1
		c1.5,0.4,2.7,1.1,3,2.7c0.9,0.1,1.6,0.3,2.3,0.4c0,0,0-0.1,0-0.2c-2.3-9.5-4.3-19.1-6.9-28.5c-4.5-16-6.4-32.3-6.9-48.8
		c-0.2-8.7,0.1-17.5,0.5-26.3c0.4-8.3,1-16.7,1.8-25c0.4-4.7-1-8.5-4.3-11.8c-2.9-2.9-5.6-5.9-8.3-9c-1.2-1.4-2.3-2.8-3.5-4.3
		c-3.3,2.5-6.9,4.2-10.7,5.6c-7,2.4-14.1,3.8-21.4,2.6c-10.2-1.6-19.3-5.7-27.6-11.6C154.6,199.1,153.7,198.3,152.7,197.4z
		 M110.2,437.9c-0.1,0.3-0.1,0.5-0.2,0.8c-2.6,12.2-5.4,24.2-9.4,36c-2.6,7.7-4.5,15.6-6.5,23.4c-2.1,8.4-5.3,16.5-6.5,25.2
		c-0.3,2.5-0.9,5-0.6,7.5c0.4,4,3.1,6.8,6.3,9.1c6.5,4.5,13.7,7.6,21,10.3c8.6,3.2,17.6,4.9,26.7,6.2c2.6,0.4,5.3,0.7,8.1,1.1
		c-0.6-3-1.1-5.8-1.7-8.6c-0.1-0.3-0.6-0.5-0.9-0.6c-1.4-0.2-2.8-0.4-4.2-0.6c-3.3-0.3-6.5-0.5-9.8-1c-4.4-0.6-6.8-3.3-6.6-7.2
		c0.2-3,0.2-6.1,0.5-9.1c0.4-3.5,1.2-6.9,1.8-10.3c0.2,0,0.3,0,0.5,0.1c0,4.5,0,8.9,0,13.7c2.7-2.6,5.7-3.8,8.8-4.9
		c1.2-0.4,2.5-0.9,3.6-1.6c1.7-1.1,1.8-2.3,0.1-3.3c-1.4-0.9-3-1.4-4.6-2c-1.7-0.6-3.5-1-5.1-1.7c-2.2-1-4-2.8-3.3-5.9
		c0.1-0.3,0-0.7,0-1.1c0.2-3.6,0.4-7.3,0.6-10.9c0.4-7.5,0.9-15,1.3-22.5c0.4-6.5,0.7-12.9,1-19.4c0.5-9.3,1.1-18.5,1.6-27.8
		c0.4-7.9,0.6-15.9,0.9-21.7c1.8,32.1,0.4,66.2-3.5,100.5c2.8-2.2,5.9-3.4,9.1-4.5c3.2-1.1,6.5-1.9,10-1.8c0.3-4.3,0.6-8.5,0.8-12.7
		c0.2-2.8,0.1-5.7,0.3-8.5c1.1-15.8,2.1-31.5,2.2-47.3c0.2-22.3,0.3-44.6-0.6-66.9c-0.2-5-0.1-10.1-0.2-15.1
		c-0.1-3.7-0.4-7.3-0.5-11c-0.3-13.2-0.5-26.3-0.8-39.5c-0.1-4.6-0.1-9.1-0.6-13.7c-1.6-14.7-3.5-29.3-5.2-43.9
		c-0.5-4.2-1.2-8.3-1.5-12.5c-0.6-6.7-0.3-13.5,0.1-20.2c0.4-7.1,2.9-13.4,6.4-19.4c0.6-1.1,1.5-2.1,2.3-3c0.7-0.8,1.5-1.5,2.6-1.1
		c0.7,0.3,1.1,1.1,1.7,1.8c2.2-1.1,4.4-2.5,5.7-5.2c-0.4,0-0.7,0-1,0c-4,0.6-7.9,1.2-11.9,1.8c-3,0.4-5.5,1.7-7.8,3.8
		c-2.6,2.4-5.6,4.6-8.3,6.9c-5.7,4.7-11.5,9.4-16.9,14.3c-4.1,3.8-7.3,8.4-9.3,13.7c-0.9,2.3-1,4.4,1.1,6.1c0.5,0.4,0.8,0.9,1.2,1.3
		c6.3,6,11.3,13.1,16.6,20c9.6,12.6,13.5,26.9,12.6,42.6c-0.5,8.5-1.1,17-1.8,25.5c-0.7,9.6-1.8,19.1-3.8,28.5
		c-1.1,5.2-2.7,10.4-4.1,15.5c-2.4,9-4.6,18.1-7,27.2c-2.7,10.1-6.6,19.8-8.5,30.1c-0.2,1.1,0,1.9,0.5,2.8c1.1,1.9,2.2,3.8,2.9,5.9
		c0.9,2.5-1.1,5-3.8,5C112,438.1,111.1,438,110.2,437.9z M182.6,418.4c0.6,1.7,1.2,3.3,1.7,5c2.8,8.1,3.9,16.3,2.2,24.7
		c-0.6,3.1-1.3,6.2-3,8.9c-0.6,0.9-0.6,1.6,0,2.4c0.9,1.2,1.3,2.7,0.7,4.2c-0.1,0.4-0.7,0.7-1.1,1c-0.2-0.3-0.5-0.7-0.7-1
		c-0.3-0.7-0.4-1.5-0.7-2.5c-0.4,0.5-0.6,0.8-0.9,1c-0.5,0.5-0.9,1-1.5,1.4c-0.3,0.2-1,0.3-1.3,0c-0.2-0.2-0.3-0.9-0.1-1.3
		c0.2-0.7,0.7-1.3,1-1.9c-1-2-0.4-3.5,1.5-3.5c1.1,0,1.4-0.4,1.7-1.2c1.5-4.2,2.1-8.6,2.4-13c0.6-8.4-2.1-16.2-3.9-24.2
		c-0.1-0.3-0.3-0.5-0.6-0.9c-0.7,2-0.8,3.7-0.4,5.5c0.6,2.6,1.2,5.2,1.6,7.9c0.5,4.1-0.2,8.2-1.1,12.2c-0.8,3.8-1.7,7.6-3.9,11
		c-0.2,0.3,0.1,0.7,0,1.1c-0.1,0.7-0.1,1.9-0.5,2.2c-1.2,0.7-1.6,1.8-2.2,2.8c-0.2,0.3-0.4,0.5-0.7,0.8c-0.1,0-0.2-0.1-0.3-0.1
		c0-1.2,0-2.3,0-3.6c-3,0.9-3,0.9-3.8,0.5c0.8-0.6,1.5-1.2,2.2-1.8c0.3-0.2,0.6-0.6,0.6-0.9c0-2.3,0.7-2.9,3.2-2.4
		c0.6-2,1.2-4.1,1.8-6.1c1.8-7.3,2.8-14.7,0.5-22.1c-0.8-2.8-0.5-5.5,1.2-7.6c-0.5-1.4-1-2.6-1.5-3.8c-0.2-0.5-0.3-1.1-0.6-1.5
		c-1.2-1.6-1.8-3.2-0.7-5.1c0.1-0.2,0-0.7-0.1-0.9c-0.7-1.3-1.1-2.7-0.8-4.3c0.1-0.3,0-0.7-0.2-1c-1.2-2-1.5-4.2-1.1-6.5
		c0.2-1.5,0.7-3-0.3-4.4c-0.1-0.2-0.2-0.6-0.1-0.8c0.3-1.6,0.6-3.3,0.8-4.9c0.1-0.4,0.1-0.9-0.1-1.3c-1.5-2.9-1.9-5.8-0.1-8.5
		c-1-1.4-1.8-2.8-2.8-4c-0.7-0.8-1.7-1.2-2.5-1.8c-1.7-1.2-3.5-2.3-5.1-3.6c-0.4-0.3-0.4-1.2-0.6-1.9c-0.1-0.3-0.2-0.7-0.4-0.9
		c-1.1-1.1-2.2-2.4-4-2.4c-0.4,0-0.8-0.2-1.1-0.4c-0.7-0.4-1.3-0.9-2.1-1.4c0,0.3,0,0.5,0,0.7c0.3,9,0.6,17.9,0.8,26.9
		c0.2,9.6,0,19.1,0.2,28.7c0.5,23.9-0.1,47.7-2.4,71.4c-0.1,0.6,0,1.2,0,2c6.5,0.5,12.9,1.2,19.3,1.6c15.1,0.9,30.1,1.1,45.1-1
		c7.3-1,14.5-2.6,21.2-5.7c4.8-2.2,9.4-4.6,12.9-8.8c0.4-0.5,0.8-1.2,0.8-1.9c0.3-5.7,0.8-11.5,0.9-17.3c0.4-24.1-1.1-48.1-5.7-71.8
		c-0.4-2.2-1.1-4.4-1.7-6.9c-1.3,1.9-2.8,2.5-4.8,2c-0.3-0.1-0.8,0-1.1,0.2c-1.6,1-3.2,1.3-5,1c-0.7-0.1-1.4,0-2,0.2
		c-1.5,0.5-3,0.7-4.6,0c-0.4-0.2-0.9-0.1-1.3,0c-1.7,0.6-3.2,0.4-4.6-0.6c-0.3-0.2-0.7-0.4-0.9-0.4c-2.2,0.4-3.9-0.6-5.5-1.9
		c-0.4-0.3-1-0.4-1.5-0.4c-2.2,0.4-4.2,0.1-6-1.2c-0.2-0.2-0.6-0.3-0.8-0.3c-1.9,0.1-3.4-0.7-4.6-2.1c-0.5-0.6-4.1-0.3-4.4,0.4
		c-1,1.9-2.5,3.2-4.6,3.7c-4.6,1.3-9.1,1.4-13.7-0.6c1.9,2.9,1.9,5.5-0.3,8c2.1,2.7,2.1,5.4,0.4,8.2c2,2.6,2.9,5.3,1.4,8.4
		c-0.1,0.2,0.2,0.8,0.5,1c1.8,1.8,2.8,3.9,2.6,6.6c0,0.3,0.2,0.8,0.5,1c1.1,0.7,1.8,1.6,2.1,2.9c0.1,0.3,0.5,0.7,0.8,0.8
		c10.1,3.1,13,12.8,10.6,21.1c-0.1,0.3-0.2,0.7-0.1,0.9c0.7,1.6-0.4,3.1-0.4,4.7c0,0.6-0.6,0.6-0.9,0.1c-0.4-0.6-0.6-1.2-0.9-1.8
		c-0.7,0.3-1.3,0.7-1.9,1c-0.5,0.2-0.9,0.1-0.8-0.6c0.2-0.9,0.3-1.9,0.7-2.8c0.2-0.4,0.7-0.7,1.1-0.9c0.3-0.2,0.8-0.1,1.1-0.2
		c1.9-7.5-1.3-16.3-6.2-18.1c0.7,1.5,1.9,3.1,2.4,5c1.4,5,1.2,10-0.5,14.8c-0.3,0.8-0.5,1.4,0.3,1.9c0.3,0.2,0.5,0.8,0.4,1.1
		c-0.5,1.1,0.1,1.7,0.7,2.4c0.2,0.3,0.4,0.6,0.4,1c0,0.4-0.1,0.9-0.3,1.1c-0.2,0.2-0.8,0-1.1-0.2c-0.7-0.5-1.3-1.1-1.9-1.6
		c-0.3,0.3-0.4,0.5-0.6,0.7c-0.4,0.2-0.8,0.4-1.2,0.5c-0.1-0.4-0.2-0.9-0.2-1.3c-0.1-0.7-0.1-1.4-0.2-2c-0.4-1.4-0.2-1.9,1-2.7
		c0.3-0.2,0.6-0.5,0.6-0.8c1.1-4.5,1.6-9.1,0.5-13.6c-0.6-2.5-1.7-4.7-4-6.3C186.3,418,184.5,418.3,182.6,418.4z M248.5,88.4
		c2.9,5.6,0.4,13.9-5.5,17.3c-1.4,0.8-2.1,1.8-2.6,3.2c-0.5,1.7-1.1,3.3-1.6,5c0.1,0.1,0.2,0.1,0.3,0.2c2-1.8,4-3.6,6-5.4
		c-0.4,4.8-3.4,7.6-8,9.1c0.7,0.3,1.2,0.5,1.7,0.6c4.6,1,8.7-0.3,12.2-3.4c0.8-0.7,1.3-1.9,1.6-3c0.7-2.9,0.3-5.7-0.4-8.5
		c-1-4.4-1.4-8.7-0.8-13.2c0.4-2.8,1-5.6,1.2-8.4c0.4-7.7-2.3-14.1-8.4-19c-7.5-6-16.1-8.8-25.5-9.5c-6.7-0.5-13.3,0.5-20,1.1
		c-2.8,0.2-9.1-0.3-11.3-1c5.8-0.9,11.6-1.8,17.4-2.8c-0.1-0.1-0.2-0.2-0.4-0.3c-2.3-1.4-4.5-2.7-6.8-4.1c-2.3-1.4-4.6-2.8-7-4
		c-3.2-1.6-6.4-1.8-9.7-0.3c-1.5,0.7-3.2,1.2-4.6,2.1c-3.9,2.3-7.8,4.7-11.6,7.2c-4.5,3-9.1,5.6-14.3,7.1c-3,0.8-5.6,2.3-7.7,4.6
		c-6.3,6.9-11.4,14.5-13.7,23.7c-1.1,4.1-2.1,8.2-1.9,12.4c0.3,7,3.6,12.7,7.7,18c0.2,0.3,0.7,0.5,1,0.4c3.4-0.6,6.8-1.1,10.1-1.9
		c4.4-1.1,7.2-4,8.6-8.2c1.1-3.2,2.3-6.4,3.5-9.7c0.2,4.7-0.1,9.2-1.9,13.5c2.5-2.1,4.8-4.4,6.5-7.1c1.8-2.7,3.4-5.5,4.9-8
		c-0.6,4.7-1.2,9.7-1.9,14.9c0.4-0.5,0.6-0.9,0.8-1.2c2-3,3.9-6,6-8.8c1.5-2.1,2.6-4.3,3.4-6.7c1.3-4.1,2.7-8.1,4-12.1
		c0.1,0,0.1,0,0.2,0c0.3,6.7,0.6,13.5,0.9,20.4c1.5-8.3,2.2-16.6,4.6-24.5c0.2,11-0.7,21.8-2.1,32.8c0.6-0.5,1.1-1.1,1.3-1.7
		c1.3-3.7,2.4-7.4,3.6-11.1c2.3-7,4.6-14.1,7-21.1c0.4-1.3,1.1-2.4,1.7-3.7c0.1,0,0.2,0.1,0.4,0.1c-2.7,11.6-5.4,23.2-8.2,35
		c1-0.8,2-1.6,3-2.3c7.8-5.8,11.8-13.7,13.3-23.2c0.4-2.3,0.8-4.6,1.2-6.8c1.4,8.7,0.6,17-4.3,24.7c1.9-0.7,3.7-1.5,5.4-2.4
		c2.8-1.4,4.9-3.4,6.2-6.3c1.8-4.2,2.7-8.6,2.5-13.2c-0.2-3.1-0.5-6.2-0.8-9.4c4.3,7.3,4.9,14.9,3,23c0.3,0,0.6,0,0.8-0.1
		c5.5-1.1,9.2-6.7,8.2-12.1c-0.5-2.6-0.9-5.2-1.4-7.9c4.3,5.9,6.5,11.9,3,18.8c3.4-0.3,6.7-3.4,7.2-7c0.4-3,0.5-6.1,0.7-9.1
		c1.8,3.9,2.6,7.9,1,12.2c-0.6,1.6-1,3.2-1.5,4.8c-0.5,1.6-1,3.3-1.5,4.9c-0.1,0.3-0.2,0.7-0.3,1.1c5.1-2.4,8.8-6.3,9-16
		c1.6,4.9,1.8,9.5-1.7,13.6c-0.2,0.2-0.3,0.4-0.4,0.6c-1.4,3.5-3.6,6.6-6,9.5c-0.1,0.1-0.1,0.2-0.1,0.5c1.6-0.7,3.1-1.2,4.6-1.9
		c3-1.4,5.1-3.6,5.9-6.9C247.1,94.2,247.8,91.2,248.5,88.4z M148.8,508.2c0,0.1-0.1,0.4-0.1,0.6c0,6.4,0.1,12.8,0.1,19.2
		c0,10.3,0.7,20.4,3.2,30.5c1.7,6.6,3.3,13.2,4.6,19.9c1.2,6.3,2.1,12.7,3.1,19c0.1,0.8,0.2,1.6,1,2.2c3.9,2.8,7.8,5.7,11.7,8.6
		c0.6,0.4,1,0.5,1.5,0c4.2-3.5,8.5-7,12.8-10.5c0.4-0.3,0.7-0.9,0.8-1.4c1-7.3,1.9-14.7,2.8-22c0.8-6.5,1.7-13.1,2.3-19.6
		c0.4-5.1,0.4-10.2,0.6-15.3c0.3-7.8,0.1-15.5-1-23.2c-1-6.9-1.8-13.8-1.7-20.8c0-0.8,0-1.7,0-2.7c-12.5,0.1-25-1-37.5-2.8
		c-0.3,5.8-0.6,11.6-0.8,17.4C151.2,507.5,150,507.8,148.8,508.2z M202,492.3c0.2,1,0.3,1.9,0.6,2.8c1.6,6.1,1.2,12.1-1.2,18
		c-1.8,4.3-3.1,8.8-4.6,13.3c-0.3,1-0.5,2.2-0.5,3.3c0,3.8,0.3,7.5,0,11.3c-0.5,8.5-1.3,17.1-2,25.6c-0.7,7.3-1.5,14.6-2.3,21.9
		c-0.1,1,0.1,1.7,1,2.3c7.4,5.4,14.8,10.8,22.2,16.2c0.3,0.2,0.7,0.4,1.2,0.8c4.8-26.2,10.3-52,20.4-76.9c-3.5,1.9-6.7,2.1-10,0.7
		c1.4-0.5,2.8-0.9,4.2-1.1c4.2-0.7,7.1-2.7,8.7-6.9c5.4-13.6,9.7-27.5,11.8-42c0.2-1.5,0.3-3,0.5-4.8c-3.2,3.2-6.7,5.3-10.3,7.1
		c-9.7,4.8-20.1,6.7-30.7,7.7C208.2,491.9,205.2,492.1,202,492.3z M76.7,428.2c-0.2,1.2-0.4,2.4-0.7,3.5c-1.8,6.2-5,11.5-10.4,15.4
		c-0.7,0.5-1.3,1.1-1.9,1.8c-0.5,0.6-0.4,1.2,0.5,1.2c0.8,0,1.7,0,2.5-0.2c3.5-0.8,6.3-2.9,9-5c2-1.5,3.3-3.4,3.9-5.8
		c0.5-2.1,1.2-4.2,1.8-6.3c0.1,0,0.3,0,0.4,0c0,1.2,0.1,2.4,0,3.6c-0.5,6.1-2.9,11.4-6.6,16.2c-1.2,1.7-2.5,3.4-3.6,5.1
		c-0.3,0.5-0.6,1.7-0.3,1.9c0.6,0.4,1.5,0.7,2.3,0.6c2.5-0.4,4-2.2,5.4-4c1.1-1.4,1.7-3.2,2.5-4.7c2.8-5.2,5.7-10.3,7.2-16.1
		c0.3-1.1,0.7-2.3,1-3.4c0.3,0.5,0.4,1,0.5,1.5c0.2,4-0.6,7.9-2.3,11.5c-1.8,3.7-3.8,7.2-5.6,10.9c-0.2,0.4-0.4,1.2-0.2,1.5
		c0.3,0.3,1,0.5,1.5,0.4c0.5-0.1,1.1-0.4,1.5-0.8c0.5-0.4,0.9-1,1.4-1.5c4.1-4.8,7.7-9.9,9.4-16.1c0.8-3,1.3-6.2,2-9.2
		c0.6-2.5,1.7-3.5,4.1-3.7c0-0.4,0.1-0.8,0.1-1.2c0.1,0,0.2-0.1,0.3-0.1c0.7,1.2,1.4,2.3,2,3.5c0.5,1.2,0.7,2.5,1.3,3.6
		c0.4,0.8,0.9,1.8,1.6,2.1c1.5,0.7,3.1,1.2,4.8,1.4c1.8,0.3,2.6-0.8,1.7-2.5c-0.8-1.5-1.7-2.9-2.6-4.3c-1.3-2-2.3-4.1-2.8-6.5
		c-1.2-5.6-2.4-11.2-3.7-16.8c-2.1-9.1-1.8-18.1,1.2-27.1c1.9-5.7,3.7-11.4,5.2-17.2c2.1-7.7,3.2-15.6,1.8-23.6
		c-0.9-4.8-1-9.6,0.1-14.4c0.6-2.8,1.8-5.5,2.8-8.2c2.6-6.9,5.4-13.9,8-20.8c0.1-0.4,0.3-0.7,0.4-1.1c-9.9-4.1-18.8-9.3-26.4-17
		c-0.1,0.4-0.2,0.7-0.3,1c-1.7,10.2-3.5,20.3-5.2,30.5c-0.6,3.3-1.2,6.7-1.4,10.1c-0.2,3.9-0.1,7.8,0.2,11.7
		c1.3,20.7,1.9,41.4,1.5,62.1c-0.1,4.3-0.6,8.7-1.1,13c-0.4,3.4-1.3,6.7-4.1,9c-4.7,3.9-9.4,7.7-14.3,11.3c-3.9,2.9-8.2,5.3-12.3,8
		c-0.4,0.2-0.7,0.5-1.1,0.8c1.1,0.8,2.2,0.9,3.4,0.8c2.9-0.3,5.3-1.8,8-2.7C73.6,431.1,75.4,430.1,76.7,428.2z M228.3,567.2
		c2.6,0.3,5,0.5,7.4,0.8c3.2,0.4,6.4,0.8,9.5,1c1.3,0.1,2.7,0,4.1,0c0.1-0.2,0.1-0.3,0.2-0.5c-0.5-0.7-0.9-1.5-1.6-2
		c-1.2-0.9-2.6-1.6-3.9-2.5c-1.3-0.8-2.7-1.6-3.8-2.6c-1.9-1.9-1.7-4.8,0.1-6.7c0.3-0.3,0.5-0.8,0.6-1.2c2-9.3,4.8-18.5,8-27.5
		c0.6-1.7,1.3-3.5,2-5.2c0.1,0,0.3,0.1,0.4,0.1c-3.4,11.1-6.7,22.1-10,33c1,0,2.1,0,3.1,0c3.3,0,6.4,1.1,9.6,2.1
		c5.6,1.8,11.4,3,17.3,2.7c1.9-0.1,3.8-0.5,5.6-1c1.7-0.5,1.8-2.7,0.4-3.8c-0.4-0.3-0.8-0.5-1.2-0.8c-2.7-1.7-5.3-3.4-8-5.1
		c-1.7-1.1-2.8-2.7-3.2-4.7c-0.3-1.4-0.3-2.9-0.3-4.3c0.1-13.1,0.2-26.2,0.3-39.3c0-3.1,0-6.2,0-7.9c3.2,15.5,4,32.4,2.5,49.6
		c3.6-0.2,6.9-0.8,9.9-2.3c3.2-1.5,5-4.1,5.2-7.6c0.2-2.4,0.2-4.8-0.1-7.2c-0.6-6.8-1.3-13.7-2.2-20.5c-2.3-17.2-6.1-34-11.4-50.5
		c-4.4-13.8-9-27.5-13.6-41.2c-0.1-0.2-0.2-0.4-0.3-0.6c-0.1,0.6-0.1,1.1-0.1,1.7c0.5,7.6,1.3,15.1,1.5,22.7
		c0.6,15.3-0.3,30.5-2.3,45.7c-2.3,17.6-7.3,34.3-14.8,50.3c-2,4.2-3.6,8.5-4.9,12.9c-1.2,3.9-2.4,7.9-3.5,11.8
		C230.1,560,229.2,563.5,228.3,567.2z M204.8,135.2c0.8,0.5,1.6,1,2.3,1.6c2.6,2.5,5.8,3.8,9.2,4.6c1.5,0.3,3,0.4,4.4-0.3
		c0.8-0.4,1.2-0.9,1-1.9c-0.2-1.3-0.2-2.6-0.5-3.9c-0.9-4.1-1.9-8.1-2.9-12.1c-1.2-4.6-1.4-9.3-1.3-14c0.1-4.1,1.6-6.8,5.3-8.5
		c2.7-1.3,5.6-1.9,8.6-1.6c0.4,0,1-0.1,1.1-0.4c1-2.3,1.9-4.6,2.8-6.9c-0.1-0.1-0.2-0.1-0.3-0.2c-0.3,0.2-0.7,0.5-1,0.6
		c-1.7,0.6-3.3,1.4-5,1.8c-1.5,0.4-2.3-0.5-2.2-2c0-0.2,0-0.4,0-0.4c-1.6,0.9-3.1,2-4.9,2.6c-1.7,0.6-3.6,0.6-5.7,0.8
		c-1,1.9-2.7,3.8-4.8,5.1c-2.1,1.3-4.4,2.3-6.5,3.4c0.8,0.5,1.7,1,2.6,1.6c0.7,0.5,1.1,1.3,0.7,2.2c-0.5,0.9-1.3,1.1-2.2,0.9
		c-0.5-0.1-1-0.3-1.5-0.5c-1-0.3-2-0.7-3-1c-2.3-0.5-4.4-0.2-6.2,1.3c2,0.8,4.1,1.6,6.1,2.5c2,1,3.5,2.5,4.3,4.6
		c0.2,0.4,0.2,0.9,0.3,1.4c-0.1,0-0.2,0.1-0.3,0.1c-0.5-0.6-1.1-1.2-1.6-1.8c0,0.6,0.2,1,0.4,1.5c1.7,4.4,0.1,8.2-4.3,10
		c-3.3,1.4-6.7,1.4-10.1,0.6c-3-0.7-5.5-2.2-7.7-4.4c-1.7,1.8-3.5,3.5-5,5.4c-3.3,4-7,7.4-11.7,9.8c-1.8,0.9-3.5,2.1-5.5,3.3
		c1.4,2.4,2.8,5,4.4,7.5c3.6,5.9,8.4,10.5,14.4,13.9c5.3,3,10.8,5.5,16.6,7.4c2.8,1,5.7,1.9,8.5,2.8c1.3,0.4,2.6,0.9,3.9,1
		c4.4,0.3,8.3-1,11.8-3.9c1.3-1.1,2.4-2.3,2.8-4.1c0.3-1.2,0.8-2.4,1.2-3.6c1.6-3.9,3.3-7.8,4.8-11.8c1.8-5.1,4.1-10,7.2-14.4
		c0.9-1.3,1.6-3,1.9-4.6c0.5-3,0.6-6.1,0.8-9.2c0-0.3-0.2-0.8-0.5-0.9c-1.1-0.7-2.3-1.3-3.6-2c0.1-0.1,0,0,0,0
		c-0.1,0.3-0.2,0.7-0.3,1c-1.5,3.8-3.8,6.6-8.2,7.2c-1,0.1-2-0.3-3-0.4c0.2,0.6,0.3,1.1,0.5,1.7c0.9,3.9,1.8,7.7,1.3,11.7
		c-0.2,1.6-0.9,3-2.4,3.6c-1.4,0.5-2.9,1-4.4,0.9c-3.1-0.1-6-1.1-8.6-2.8c-1.5-1-2.7-2.3-3.9-3.7
		C204.3,137.7,204.2,136.5,204.8,135.2z M239.5,329.7c0.2-5.1,0.4-9.9,0.6-14.7c0.1-2.1,0.3-4.1,0.4-6.2c0.1-2.5,0-5.1,0.3-7.5
		c1.2-8.3,2.4-16.6,3.9-24.9c1.9-10.7,3.8-21.3,7.5-31.6c0.8-2.3,1-4.7,0.6-7.1c-1-5.7-1.9-11.5-3.4-17.2c-1.4-5.3-4.3-9.9-9.1-13
		c-2.9-1.9-5.8-3.9-8.8-5.7c-8.9-5.3-17.8-10.4-26.7-15.6c-0.1,0-0.2,0-0.3,0c-0.3,3.4,1.4,5.7,4.2,7.3c0.6-1.5,1.1-1.6,2.2-0.4
		c3.7,4.2,7.4,8.4,11.1,12.6c2.2,2.5,4.6,4.9,6.7,7.5c2.4,3,4.8,6,5.4,9.9c0.3,2.2,0.2,4.5,0.1,6.7c-0.4,5.3-1.3,10.6-1.5,16
		c-0.5,9.1-0.7,18.1-0.9,27.2c-0.1,3.2-0.1,6.5,0.2,9.7c0.8,8.2,1.7,16.5,2.7,24.7C235.5,314.9,237.5,322.2,239.5,329.7z
		 M111.3,420.1c0.1-0.5,0.3-0.9,0.4-1.3c1.6-5.6,3.1-11.2,4.7-16.7c4-14.5,8.3-28.9,12-43.4c3.1-12.3,4.5-24.8,5.6-37.4
		c0.5-6.1,0.7-12.3,1-18.4c0.2-5.1,0.5-10.1,0.4-15.2c-0.1-2.8-0.9-5.6-1.4-8.4c-0.1,0-0.3,0-0.4,0c-0.2,0.5-0.4,0.9-0.6,1.4
		c-5.5,13.2-11,26.3-16.5,39.5c-0.5,1.2-1,2.6-1.1,3.9c-0.1,4.2-0.1,8.5,0.2,12.7c0.6,6.8,0.7,13.6-0.6,20.3
		c-1.6,8.3-4.4,16.3-6.9,24.3c-2.7,8.6-3,17.3-0.6,26.1C108.8,411.5,110.1,415.7,111.3,420.1z M247.6,689c-0.5-4.8-2.4-8.6-6.5-11.3
		c-2.5-1.7-5.2-3-7.9-4.3c-5.5-2.8-10.3-6.6-14.6-11c-2.3-2.4-4.2-5.1-4.4-8.6c-0.2-3.4-0.6-6.8-0.4-10.2c0.1-2.1-0.4-3.3-2.4-4.2
		c-0.9-0.4-1.6-0.6-2.6-0.2c-6,2.2-12.1,4.4-18.2,6.6c-0.7,0.3-1,0.6-1,1.4c0,4.3-0.3,8.6-1.7,12.7c-0.9,2.7-1.1,5.3-0.5,8.1
		c1.1,5.3,2.1,10.7,3.2,16.1c0.2,0.9,0.6,1.3,1.5,1.2c2.6-0.3,5.2-0.4,7.8-0.6c1.1-0.1,2.1-0.3,3.2-0.5c1.1-0.2,2.2-0.6,3.2-0.5
		c1.7,0.1,3.3,0.5,4.9,1c4.6,1.5,9.2,3.3,13.8,4.8c3.7,1.2,7.5,2.2,11.4,1.7C240.2,690.4,243.9,689.6,247.6,689z M249.9,292.7
		c-1.6,0.6-3,1.2-4.5,1.7c-0.7,0.2-1,0.5-1,1.3c-0.4,5.7-0.9,11.3-1.1,17c-0.2,6.7-0.2,13.4,0,20c0.3,7.8,0.4,15.7,2.6,23.3
		c0.2,0.6,0.6,1.3,1.1,1.7c1.9,1.8,2.7,5.4,1.3,7.5c-0.6,0.9-0.2,1.4,0.2,2.1c0.4,0.8,0.8,1.6,0.9,2.5c0.2,1.7,0,3.5,0.2,5.2
		c0.4,3.1,0.8,6.2,1.6,9.2c3.3,12.7,7.4,25.2,11.7,37.6c0.5,1.5,1.1,3.1,1.7,4.8c0.9-0.6,1.7-1.1,2.3-1.7c1.6-1.5,1.7-2.3,0.7-4.3
		c-2.3-4.3-3.5-9-3.7-13.9c-0.1-1,0.4-2,0.7-3c0.1,0,0.3,0.1,0.4,0.1c0.7,2.5,1.5,5.1,2.3,7.6c0.2,0.5,0.5,1,0.9,1.3
		c3.1,2.6,6.2,5.1,9.4,7.6c1.7,1.3,2.9,2.9,3.6,5c0.9,2.5,1.9,5,2.9,7.5c0.7,1.8,2,2.7,3.8,3.1c0.7,0.2,1.2,0,1.5-0.8
		c0.8-2.5,0.5-4.9-1.1-6.9c-3-3.6-5.2-7.5-6.4-12c-0.2-0.9-0.5-1.8-1-2.5c-1.8-2.6-3.6-5.2-5.6-7.6c-4.2-4.9-8.5-9.7-10.4-16.1
		c-1-3.5-2.5-6.8-3.4-10.3c-1.5-5.8-2.1-11.7-1.6-17.8c1.1-12,0.1-23.8-4.5-35.1c-2.1-5.2-3.6-10.6-3.9-16.2
		c-0.2-5.7-0.8-11.3-1.2-17C250,293.3,250,293.1,249.9,292.7z M154.7,196c1,0.7,1.7,1.3,2.4,1.8c4.7,3.2,9.8,5.9,15.2,7.8
		c4.9,1.8,10,3.2,15.3,3.2c8.4,0.1,16.2-2.3,23.6-6.4c0.8-0.4,1.6-0.9,2.6-1.6c-0.9-0.7-1.5-1.4-2.3-1.9c-2.4-1.8-5-3.5-7.3-5.4
		c-1.4-1.1-2.3-2.8-2.4-4.7c-0.2-4.3-0.5-8.6-0.6-12.9c0-0.9-0.2-1.3-1.1-1.6c-1.4-0.4-2.8-0.9-4.2-1.4c-11.9-3.7-22.8-9.3-31.1-19
		c-0.1-0.1-0.3-0.2-0.5-0.3c0.4,3.7,0.9,7.1,1.3,10.6c0.7,6,1.1,12,0.6,18.1c-0.5,6.5-3.8,10.8-9.9,12.9
		C155.9,195.5,155.5,195.7,154.7,196z M135.5,129.4c6,1.3,11.8,3.2,17.5-0.3c-2.8,0.6-5.6,0.7-8.4-0.1c-7.5-2-13.6-6.3-19-11.6
		c-0.8-0.8-1.3-1.9-1.9-2.9c2.6,0.9,4.5,3.4,7.4,2.8c-2-3.7-3.9-7.4-5.9-11c-1.4,0.4-2.9,0.8-4.6,1.2c-0.2,1-0.3,2.2-0.7,3.3
		c-1.4,3.5-2.9,6.9-4.5,10.3c-1.7,3.7-2.8,7.4-2.9,11.5c-0.1,10.4,8.9,18.8,20.2,17.6c4.7-0.5,9.1-2.2,13.4-4.1
		c-2.6,5-6.9,7.5-12.6,8.2c2.2,1.4,4,2.7,6,3.8c2,1.1,4.2,2.1,6.4,2.7c5.8,1.6,10-0.2,12.8-5.5c0.9-1.6,1.6-3.4,2.2-5.2
		c0.2-0.5,0-1.2-0.2-1.7c-0.9-1.9-1.9-3.7-2.9-5.5c-0.8-1.7-0.8-1.8-2.7-1.5c-4.1,0.7-7.7-0.5-10.7-3.2
		C141.5,135.6,138.6,132.5,135.5,129.4z M187.1,680.8c0-0.2,0-0.4,0-0.5c-1.9-9.3-3.4-18.6-3.8-28.1c0-0.4-0.2-0.8-0.5-1
		c-3-2.2-6-4.4-9.1-6.7c-3,2.5-5.9,5-8.9,7.4c-0.8,0.6-1.3,1.3-1.2,2.3c0.4,3.6-1.3,6.3-3.5,8.8c-4.5,5.1-9,10.2-13.4,15.3
		c-0.8,0.9-1.6,1.7-2.5,2.7c0.6,0.1,1.1,0.2,1.6,0.3c3.2,0.6,6.4,1.2,9.5,1.9c5.6,1.4,9.8,4.6,12.5,9.8c0.1,0.2,0.2,0.3,0.4,0.5
		C172.7,686.5,178.9,682.2,187.1,680.8z M106.9,237.6c0,0.1-0.1,0.2-0.1,0.4c-2.6,11-5.1,22.1-7.7,33.1c-0.2,1,0,1.6,0.7,2.3
		c7.5,7.4,16.4,12.6,26.1,16.5c0.1,0,0.1,0,0.2-0.1c2.2-4.6,4.3-9.3,6.5-13.9c0.4-0.8,0.4-1.5,0.1-2.4c-1.6-4.2-3.5-8.2-6.1-11.8
		c-4.9-6.7-10-13.4-15.2-19.9C110.1,240.3,108.4,239.1,106.9,237.6z M123.5,68.3c-3.4-3.6-7-7-11.6-9c-1.5-0.6-3-0.6-4.4,0.2
		c-0.8,0.5-1.7,0.9-2.4,1.5c-4.9,3.8-8.4,8.8-10.9,14.4c-1.5,3.3-2.5,6.9-3.7,10.3c0.2,0.1,0.3,0.2,0.5,0.4c2.5-1.5,5-2.9,7.5-4.4
		c2.9-1.7,6.3-3.1,8.1-3.2c-1.9,2-3.7,3.9-4.4,6.7c-0.8,3.2-1.9,6.3-2.4,9.5c-0.6,4.5,0.9,8.7,2.8,12.7c0.5,1.1,1,2.4,2.4,2.3
		c1.4-0.1,1.9-1.5,2.1-2.6c0.5-2.3,0.9-4.6,1.2-6.9c0.3-2.9,1.2-5.7,2.2-8.5c0.3,1.5,0.6,2.8,0.8,4.2c0.2,1.8,0.5,3.6,0.5,5.3
		c0.1,2.1,1.6,4.7,3.4,5.5c0.7,0.3,1.3,0.4,1.8-0.3c0.4-0.6,0.7-1.1,0.3-1.9c-0.5-0.8-0.8-1.7-1-2.7c-1.3-5-1-10.1-0.3-15.1
		C116.8,79.9,119.2,73.7,123.5,68.3z M244.9,366.7c-2.3,0.4-4.1,0-5.4-2c-0.1-0.2-0.6-0.3-1-0.3c-1.7,0-3.1-0.6-4-2
		c-0.5-0.7-1-0.8-1.7-0.7c-2.3,0.2-4.2-0.5-5.7-2.2c-0.5-0.6-0.9-0.7-1.6-0.6c-3.1,0.2-6-0.4-8.3-2.8c-0.3-0.3-0.9-0.5-1.3-0.6
		c-1.7-0.2-3.3-0.7-4.6-1.8c-0.3-0.2-0.8-0.3-1.1-0.2c-2.6,0.5-4.8-0.1-6.9-1.7c-0.3-0.3-0.9-0.5-1.4-0.4c-2.8,0.5-5.2-0.5-7.2-2.4
		c-0.3-0.3-0.8-0.4-1.2-0.3c-2.4,0.4-4.5,0-6.2-1.7c-0.6-0.6-1-0.6-1.7-0.3c-2.6,1.1-5,0.5-7-1.5c-0.3-0.3-0.9-0.4-1.3-0.3
		c-2.9,0.5-5.5,0-7.8-2c-0.3-0.3-0.9-0.4-1.3-0.4c-1.9,0.1-3.8,0.3-5.4-1.1c-0.2-0.2-0.6-0.2-0.9-0.2c-2.6,0.6-5.1,0.6-7.6-0.4
		c-0.3,2.4-0.1,2.8,2.4,5.5c1.6-0.7,2.4-0.6,3.6,0.8c1.1,1.2,2.1,2.6,3.2,3.9c0.8-1.1,1.8-1.2,2.8-0.5c0.9,0.6,1.7,1.4,2.6,2.1
		c0.3,0.2,0.7,0.4,1.1,0.5c0.6,0.2,1.2,0.3,1.7,0.5c2.1,1,3.7,2.5,4.8,4.4c0.2,0,0.2,0,0.3,0c1.7,0.3,3.3,0.1,4.9-0.2
		c0.3-0.1,0.7,0,0.9-0.1c3.5-2,7-1.9,10.6-0.4c3.5,1.4,6.4,3.5,7.6,7.3c1.3,0.2,2.4,0.6,3.3-0.7c0.3-0.4,1.1-0.5,1.7-0.5
		c2.9-0.1,5.4,0.8,7.3,3.1c2.2-0.9,4.9-0.7,6.4,1.6c1.9-0.3,3.6,0.2,5.3,0.9c0.3,0.1,0.7,0.3,1,0.2c1.6-0.5,3.1-0.1,4.7,0.4
		c0.4,0.1,0.9,0.1,1.2-0.1c1.8-1,3.5-1.1,5.4-0.2c0.3,0.2,0.7,0.2,1.1,0.2c0.9,0,1.9-0.1,2.9-0.2c1-1.4,1.8-1.7,4.3-1.6
		C245.1,367.5,245,367.1,244.9,366.7z M202.5,610.8c0-0.1,0-0.1,0-0.2c-3.8,0-7.7,0.1-11.5,0c-1.1,0-1.4,0.2-1.6,1.3
		c-0.7,4-0.2,8.1-0.1,12.1c0,0.5,0.5,1.1,0.9,1.3c5.9,3.1,11.8,6.1,17.6,9.3c1.7,1,3.2,1.3,5,0.4c0.7-0.4,1.1-0.7,1.1-1.5
		c0.1-7,0.7-14,1.8-20.9c0.3-1.7-0.1-2.1-1.9-2C210.1,610.5,206.3,610.6,202.5,610.8z M162.8,626.4c0.2,2.6,0.2,4.5,0.4,6.4
		c0,0.5,0.3,1.1,0.7,1.4c3,2.1,5.9,4.2,9,6.2c0.3,0.2,0.9,0.2,1.2,0c3.1-2.2,6.1-4.4,9.1-6.7c0.3-0.3,0.6-0.8,0.7-1.2
		c0.4-3.8,0.8-7.5,1.1-11.3c0-0.4-0.2-1-0.6-1.3c-3.4-2.5-6.9-4.9-10.3-7.4c-0.6-0.4-0.9-0.4-1.4,0.1c-3.1,2.5-6.3,5-9.4,7.6
		c-0.4,0.3-0.7,1-0.7,1.5C162.6,623.5,162.8,625.3,162.8,626.4z M167.3,702.3c-0.2-1.1-0.3-1.9-0.4-2.8c-0.1-3-1.1-5.7-3.2-7.9
		c-2.2-2.5-4.8-4.4-8.1-5.1c-4.5-1-9.1-1.7-13.6-2.5c-0.4-0.1-0.9,0.2-1.2,0.5c-1.3,1.2-2.6,2.4-3.9,3.6c-1,0.9-2.1,1.8-3.2,2.8
		c1,0.6,1.9,1.2,2.9,1.8c-0.3,0.4-0.7,0.7-0.9,1.1c-0.9,1.6-1.7,3.1-2.5,4.7c-0.4,0.8,0.1,1.4,0.9,1.4c1.9,0.1,3.9,0,5.8,0
		c-0.6-3.3,1-5.6,4.7-7.3c1.7-0.7,2.8-0.6,3.5,0.1c-1.5,1.2-3.1,2.4-4.6,3.7c-1,0.8-1.2,1.8-0.6,3.1c0.7,1.3,1.4,2.3,3,2.3
		c2.7,0,5.5,0,8.2,0c-0.3-3.3,2.1-8.6,4.4-9.3c0,0.6,0,1.1-0.1,1.5c-0.5,1.6-1.1,3.2-1.6,4.9c-0.6,1.9,0.1,3.4,1.9,4.2
		C161.7,704.3,164.6,704.2,167.3,702.3z M178.9,89.9c-1.1,5.2-2.7,10.9-5,16.4c-3.5,8.4-8.4,15.8-15.3,21.8
		c-2.7,2.3-5.3,4.6-8.9,5.3c-1.7,0.3-3.5,0.5-5.2,0.7c-0.1,0.1-0.1,0.2-0.2,0.3c2.1,1.3,4,2.9,6.2,3.9c2.8,1.3,6,1.5,8.7-0.2
		c4.9-3,9.3-6.6,13.1-11c3.3-3.9,5.9-8.1,6.4-13.3c0.3-2.7,0.2-5.4,0.2-8.1C178.9,100.3,178.9,94.8,178.9,89.9z M145.9,508.5
		c-3.6,0.8-7,1.9-10.3,3.6c-1.2,0.6-2.3,1.3-3.3,2.2c-1.3,1.1-1.1,2.1,0.4,3c0.5,0.3,1.1,0.6,1.8,0.8c1.3,0.4,2.7,0.8,4,1.2
		c2,0.6,3.9,1.4,5.4,2.9c2.1,2.1,2.3,4.7,0.2,6.8c-1.2,1.2-2.9,2-4.4,2.7c-1.6,0.8-3.4,1.1-4.9,2c-1.7,1-3.5,2.2-4.8,3.7
		c-2.2,2.4-1.1,5.3,2,6.1c0.8,0.2,1.7,0.4,2.6,0.5c2.8,0.3,5.6,0.5,8.3,0.8c1.2,0.1,2.4,0.3,3.6,0.5
		C146.4,532.9,146.2,520.8,145.9,508.5z M131.8,119.9c3.9,2.8,7.6,5.3,11.9,6.7c2.6,0.9,5.3,1.3,8.1,0.9c3.3-0.4,6.1-1.5,8.3-4.1
		c5.1-5.9,9.3-12.3,12.2-19.5c0.1-0.3,0.3-0.7,0.4-1c-3.2,5.4-6.5,10.7-10.8,15.3c2.6-5.5,3.3-11.5,4.4-17.4
		c-0.2,0.1-0.3,0.1-0.3,0.2c-0.2,0.4-0.5,0.7-0.7,1.1c-2.3,3.9-5.2,7.3-8.7,10.1c-0.8,0.6-1.6,1.3-2.4,1.9c-1.4,1-2.7,2.3-4.2,3
		C144.2,119.7,138.2,120.6,131.8,119.9z M188,684.2c-4.2-0.1-12.5,4.5-14,7.5c2.3,0,4.7-0.1,7.1,0c1.3,0.1,2.5,0.3,3.7,0.7
		c1.1,0.4,1.7,1.3,1.5,2.6c-0.9,0-1.7,0.1-2.5,0c-2-0.2-4-0.5-6.1-0.6c-4.7-0.1-5.8,0.6-7.6,4.9c-1.1,2.6,0.1,4.5,2.8,4.6
		c3.2,0.1,6.5,0.1,9.7,0c2.6-0.1,5-0.8,7.1-2.3c0.8-0.5,1.1-1.2,1.2-2.2c0.2-2.6-0.1-5-1.2-7.4c-0.1-0.3-0.2-0.6-0.3-0.9
		C189,688.9,188.5,686.5,188,684.2z M124.4,103.3c-0.8-15.5,4.4-28.6,14.4-40.3c-2.8,0.7-5.3,1.3-7.4,3c-3.2,2.4-5.8,5.4-7.7,8.9
		c-2.6,4.7-3.9,9.7-4.3,15c-0.3,3.7-0.4,7.3,0.5,11C120.6,103.8,121.6,104.3,124.4,103.3C124.5,103.2,124.5,103.2,124.4,103.3z
		 M190,608.3c7.2,0.4,14.3-0.2,21.4-0.4c0-0.1,0.1-0.2,0.1-0.3c-6.5-4.9-13-9.8-19.7-14.9C191.2,598,190.6,603.1,190,608.3z
		 M207.3,636.8c-6.1-3.3-11.8-6.5-17.6-9.7c0,5.6,0,10.8,0,16.3C195.6,641.2,201.2,639.1,207.3,636.8z M195.5,519.8
		c0.1,0,0.2,0,0.3,0c0.1-0.2,0.2-0.3,0.3-0.5c1.2-3.6,2.5-7.2,3.7-10.8c0.8-2.4,1.2-4.9,0.7-7.4c-0.4-2.2-0.8-4.4-1.2-6.6
		c-0.4-2.1-0.4-2.1-2.6-2.1c-1.3,0-2.7,0-4.3,0C193.5,501.8,194.5,510.8,195.5,519.8z M181.9,370.6c3,1.1,5.7,1.3,8.3,0.9
		c2-0.2,4-0.6,5.7-2c0.6-0.5,0.9-3.1,0.3-3.6c-2.9-2.5-6-4.4-10.1-3.8c-2,0.3-2,0.2-2.5,2c-0.1,0.4,0,0.8,0.1,1.2
		c0.2,0.8,0.5,1.7,0.6,2.5c0.1,0.9-0.3,1.6-1.4,1.8C182.6,369.8,182.3,370.2,181.9,370.6z M234.7,103.7c-1.1-0.3-2-0.9-2.9-0.9
		c-2.4,0-4.8,0-7.1,0.3c-3.5,0.3-6.2,4.7-5.1,8.3c2.3-3,5.2-3.9,8.8-3c3.9,1,4.8,4.2,5.8,7.6c0.5-0.3,0.9-0.5,1.1-0.8
		c1.2-2.4,2.3-4.8,3.5-7.4c-1.7,0.4-3.3,0.7-4.8,1.1c-0.8,0.2-1.6,0.2-2.2-0.6c-0.6-0.9,0.1-1.5,0.6-2.1
		C233,105.4,233.8,104.7,234.7,103.7z M273.3,452.7c1.6-2.2,1.8-4.4,2.1-6.7c0-0.2-0.2-0.3-0.3-0.5c-1-1.6-1.6-3.3-1.6-5.2
		c0-4.8-2.6-8.8-4.1-13.1c-1.4,0.8-2.6,1.6-3.8,2.4C268.1,437.2,270.6,444.8,273.3,452.7z M280.7,444.9c-0.4-1.5-0.8-2.9-1.1-4.3
		c-1.5-5.9-3.4-11.7-4-17.8c0-0.3-0.1-0.6-0.3-0.7c-2-1.8-4-3.6-6-5.3c0.4,1.1,1,2.1,1.6,3.1c0.8,1.4,1,2.9,0.3,4.5
		c-0.2,0.5-0.5,1-0.6,1.3c0.9,1.4,1.8,2.6,2.4,3.9c1.8,3.7,3,7.6,3.1,11.8C276.2,444.3,277.8,445.5,280.7,444.9z M123.5,699.2
		c-1,1.4-1,2.1,0.4,2.8c1.1,0.6,2.2,1.1,3.4,1.5c4.8,1.4,9.8,2.2,14.8,2.4c10.6,0.5,21.2,0.8,31.8,1.1c2.1,0.1,4.1,0,6.2,0
		c-2.3-0.2-4.6-0.2-6.9-0.4c-0.8-0.1-1.6-0.4-2.3-0.8c-0.8-0.4-1.5-1.1-2.2-1.6c-3.8,2.9-8.6,3-12.6,0.1c-0.2-0.1-0.4-0.3-0.6-0.3
		c-2.8,0.1-5.7,0.1-8.5,0.3c-2.1,0.1-4-0.1-5.4-1.9c-0.2-0.3-0.8-0.3-1.2-0.3c-2.1,0-4.1,0.1-6.2,0.1c-0.6,0-1.2,0-1.7,0.2
		c-3.3,1.1-6.2,0.3-8.2-2.3C123.9,699.9,123.7,699.6,123.5,699.2z M187.1,601c-4,3.2-7.7,6.2-11.5,9.3c3.3,2.3,6.5,4.5,9.8,6.9
		C186,611.7,186.5,606.5,187.1,601z M191.7,688.1c0.2,1.9,0.2,1.9,1.9,2c7.3,0.4,14.5,0.9,21.8,1.3c2.3,0.1,4.6,0.3,7,0.4
		c-0.1-0.2-0.2-0.3-0.2-0.3c-4.7-1.7-9.3-3.3-14-5c-0.4-0.2-0.9-0.1-1.4-0.1c-3.6,0.4-7.2,0.9-10.8,1.3
		C194.6,687.9,193.2,688,191.7,688.1z M194.5,115.3c0.1,0,0.2-0.1,0.3-0.1c-0.5-1.4-1-2.9-1.6-4.3c-0.1-0.3-0.7-0.6-1-0.6
		c-1.4,0.2-2.9,0.4-4.1,1c-0.6,0.3-0.8,1.4-1.1,2.1c-0.3,0.6-0.6,1.3-0.9,2c-1.1,2.4-0.5,4.7,1.7,6.2c1.8,1.2,3.6,0.9,4.9-0.9
		C193.9,119.1,194.4,117.3,194.5,115.3z M160.5,602.4c0.6,5.2,1.2,10.2,1.7,15.4c3-2.5,5.9-4.9,8.9-7.3
		C167.5,607.7,164.1,605.1,160.5,602.4z M246.7,678.9c2.4,2.8,3.1,6.2,3.7,10c2.2-0.6,4.3-1,6.2-1.8c2.5-1,2.7-2.8,0.7-4.6
		c-1.1-1-2.4-1.8-3.4-2.8C251.7,677.6,249.3,678,246.7,678.9z M245.2,291c1.4-0.6,2.5-1.1,3.5-1.5c1.1-0.4,1.4-1,1.4-2.1
		c0.4-8.3,0.8-16.6,1.2-24.9c0.1-1.1,0.2-2.2,0.2-3.2c-0.1,0-0.2,0-0.3,0C249.3,269.7,247.3,280.1,245.2,291z M192.6,124
		c2.4,0.6,5.9,0,7.6-1.5c0.7-0.6,1.3-1.6,1.6-2.6c0.5-2.2-0.3-4.3-1.3-6.3c-0.8-1.6-2.7-2.7-4.6-2.6
		C197.7,115.5,196.7,121.2,192.6,124z M224.2,110.6c-1.3,1-2.5,2-3.8,3c-0.7,0.5-0.9,1.2-0.7,2c0.4,2.1,0.8,4.1,1.3,6.2
		c0.2,0.9,0.6,2.1,1.7,2c0.7-0.1,1.5-1,2.1-1.7c0.3-0.4,0.5-0.9,0.6-1.4c0.3-1.6,0.6-3.2,0.6-4.8
		C225.8,114.1,225.7,112.3,224.2,110.6z M241.6,692.6c0,0.1,0,0.3,0,0.4c7.9,0.2,15.8,0.9,23.7-1c-1.6-1.5-3.2-2.7-4.9-4
		c-0.1-0.1-0.5,0.1-0.7,0.2c-1.5,1.4-3.3,2.1-5.3,2.5c-2.6,0.5-5.2,0.8-7.8,1.2C245,692.2,243.3,692.4,241.6,692.6z M163.9,649
		c2.6-2.2,5-4.2,7.4-6.3c-2.6-1.9-5.1-3.6-7.8-5.6C163.6,641.1,163.7,644.9,163.9,649z M130.9,700.3c-0.4-2.9,1-5.2,2.9-7.4
		c-0.6-0.2-1.2-0.2-1.6-0.4c-1.2-0.5-2.3-0.3-3.1,0.8c-1,1.4-2,2.7-2.9,4.2c-0.2,0.3-0.1,1.1,0.1,1.5
		C127.4,700.4,129,700.8,130.9,700.3z M176.1,642.7c2.3,1.6,4.5,3.2,6.8,4.8c0.2-3.5,0.3-6.7,0.5-10.2
		C180.9,639.2,178.6,640.9,176.1,642.7z M226.9,111c0.9,2.6,1.1,5,0.7,7.6c-0.5,3-1.5,5.7-4.9,6.8c0.5,0.1,1,0.1,1.4-0.1
		c0.8-0.4,1.6-0.9,2.4-1.4c1.7-1.1,3-2.4,3.8-4.3C231.8,116.2,230.2,112.1,226.9,111z M198.3,365.1c-1.3-4.4-8.1-8.4-15-6.2
		c0.3,0.7,0.5,1.5,0.8,2.3c2.6-0.8,5.2-1.4,7.7-0.1c1.9,1,3.7,2.3,5.5,3.5C197.7,364.7,198,364.9,198.3,365.1z M168.7,360.6
		c1-0.2,1.5-0.7,1.2-1.4c-0.8-2.6-1.9-5-3.9-6.9c-0.3-0.3-1-0.4-1.5-0.5c-0.2,0.5-0.5,1.1-0.5,1.6c0,0.4,0.1,0.8,0.3,1.1
		c1,1.6,1.9,3.2,2.9,4.8C167.7,359.8,168.2,360.1,168.7,360.6z M202.5,345.1c-0.2,2.6-0.9,3.3-2.7,2.9c-0.6-0.1-1.2-0.5-1.8-0.9
		c-0.5-0.3-0.9-0.7-1.3-1.1c-0.5,0.7-1,1.4-1.5,2c3.7,2.6,7.2,2.7,10.4-0.4C204.6,346.8,203.7,346,202.5,345.1z M178.9,344.2
		c2.6,2.7,7.1,1.7,8.9-1.1c-0.4-0.6-0.9-1.3-1.3-2c-2,2.4-2.9,2.7-5.5,1.5C180.3,343.2,179.6,343.7,178.9,344.2z M196.6,371.7
		c-0.6,0.3-0.9,0.4-1.2,0.6c-4.4,1.8-8.7,2-13.1,0c-1.1-0.5-1.9-0.3-2.7,0.9c3.8,1.8,7.7,1.9,11.7,1.2
		C193.2,374,195.1,373.6,196.6,371.7z M168.7,362.6c-0.7,3.5,1.9,6.6,5.8,6.6c-0.2-0.4-0.4-0.8-0.7-1.2c-1.1-1.6-2.3-3.2-3.4-4.9
		C169.9,362.4,169.4,362.2,168.7,362.6z M156.5,331.2c-0.2,0.3-0.6,0.7-0.5,1c0.1,0.6,0.4,1.1,0.8,1.6c0.6,0.7,1.2,1.4,1.8,2.1
		c1.3,1.5,0.8,1.7,2.7,0.2c0.2-0.1,0.4-0.2,0.4-0.4c0.1-0.2,0.2-0.5,0.1-0.6C160.5,333.2,159,331.8,156.5,331.2z M175.8,340.9
		c1.1-3.1-0.7-5.8-3.4-5.9c-0.5,0-1.1,0.2-1.5,0.6c-0.2,0.2,0.1,1,0.4,1.3C172.7,338.2,174.2,339.4,175.8,340.9z M182.7,367.9
		c-0.2-3.7-4.4-4.9-8.7-2.6c0.8,0.4,1.4,1.2,2,1.1C178.4,366.2,180.6,366.1,182.7,367.9z M211.2,348.6c0,0.1,0.1,0.2,0.1,0.3
		c-0.7,0.5-1.5,1.4-2.2,1.3c-0.8,0-1.6-0.9-2.4-1.4c-0.8,0.6-1.7,1.3-2.6,2c3.4,2,5.9,1.8,8.6-0.8
		C212.2,349.6,211.7,349.1,211.2,348.6z M169.1,336.1c-0.1-0.1-0.2-0.7-0.5-0.9c-1.3-0.8-2.6-1.6-3.9-2.3c-0.2-0.1-0.9,0-1,0.2
		c-0.1,0.4-0.3,1.2,0,1.4c1,1.1,2.1,2.2,3.4,3C168.2,338.3,169.1,337.7,169.1,336.1z M170.4,355.1c0.9,2.4,1.7,4.6,2.6,6.8
		c0.2,0.5,0.8,0.7,1.2,1.1c0.3-0.5,0.7-1,0.9-1.5c0.1-0.4,0-0.9-0.1-1.3C174.3,357.7,172.5,356.3,170.4,355.1z M179,401.6
		c0.6,2.4,0.8,4.9,2.5,6.8c1.3-0.3,1.7-0.8,1.5-2.2C182.8,403.9,180.9,401.7,179,401.6z M184.4,340.4c0-0.1,0-0.2-0.1-0.3
		c-0.4-1.3-3.7-3.8-5.1-3.5c-0.3,0.1-0.9,1.1-0.8,1.2c1.3,1.3,2.7,2.6,4.2,3.7C183.3,341.9,184.4,341.1,184.4,340.4z M209.7,371.6
		c-1.5-1.6-3-3.3-4.5-4.9c0,1.7,0,3.1-1.4,4C205.9,372.7,207.9,372.9,209.7,371.6z M194,341c0.4,1,5.7,4.8,6.7,4.8
		C201,342.6,197.9,340.3,194,341z M172.7,340.5c-0.9,0.5-1.7,1-2.5,1.5c3.1,2.2,7.2,1.9,9.5-0.8c-0.5-0.7-1-1.3-1.6-2
		c-0.2,0.8-0.4,1.5-0.6,2.1c-0.6,1.3-1.3,1.6-2.5,0.8C174.2,341.6,173.4,341,172.7,340.5z M162.5,354.5c-0.1-1.6-2.8-6.3-4.1-7
		c-0.2-0.1-0.6-0.2-0.8-0.1c-0.2,0.1-0.3,0.5-0.2,0.7c0.2,0.6,0.5,1.2,0.8,1.8c0.5,0.9,1.1,1.8,1.4,2.8
		C160.2,354.6,160.5,354.8,162.5,354.5z M186.6,339.3c1.3,1.4,2.5,2.9,3.9,4.2c0.3,0.3,1,0.3,1.6,0.5c0.2-0.6,0.5-1.2,0.4-1.7
		C191.9,339.9,188.9,338.4,186.6,339.3z M218.6,347.9c0.3,0.8,0.4,1.4,0.7,1.8c1.3,1.3,2.6,2.6,3.9,3.8c0.2,0.2,0.8,0.4,1,0.3
		c0.3-0.1,0.5-0.6,0.5-0.9c0-0.4-0.2-0.9-0.4-1.2c-1.2-1.6-2.8-2.7-4.6-3.5C219.5,348,219.2,348,218.6,347.9z M155.3,355.2
		c2.5,3.1,5.6,2.7,8.9,2.1c-0.2-0.4-0.3-0.8-0.4-1.2c-2.2,0.5-4.2,0.5-5.6-1.4C157.2,354.9,156.4,355,155.3,355.2z M228,356.4
		c-0.6-0.7-1.1-1.2-1.6-1.7c-1.6,1.7-3.5,1.9-5.4-0.3c-0.8,0.4-1.6,0.7-2.6,1.2C221.6,357.1,224.6,357.8,228,356.4z M197.6,366.8
		c0.8,2.6,1.4,2.9,3.6,2.4c0.3-0.1,0.7-0.1,1-0.3c0.4-0.3,0.8-0.6,1.1-1c-0.4-0.5-0.8-1.3-1.3-1.3
		C200.7,366.5,199.2,366.7,197.6,366.8z M224.5,374.2c0.6-1.3,0.8-2.5-0.1-3.3c-1.3-1.2-3-1.3-4.8-0.9c0.2,0.5,0.5,1,0.9,1.3
		c0.6,0.5,1.2,0.8,1.8,1.2C223,373,223.7,373.5,224.5,374.2z M187.3,345.8c2.9,2.1,5.9,1.9,8.3-0.7c-0.4-0.5-0.9-0.9-1.4-1.4
		c-0.4,1.3-1.2,2.2-2.5,2.1c-1.1-0.1-2.1-0.6-3.3-1C188.3,345,187.8,345.4,187.3,345.8z M209.4,348.3c0.5-1.4,0.2-2.1-1.3-3.3
		c-1.7-1.2-4.7-1.9-5.6-1.2C204.8,345.3,207.1,346.8,209.4,348.3z M179.6,399.7c1.7-2.2,0.9-6.5-1.4-7.4
		C178.3,394.8,177.6,397.5,179.6,399.7z M220.1,352.7c-0.5-0.5-0.9-1-1.2-1.3c-0.7,0.4-1.3,1-1.8,0.9c-1.2-0.2-2.3-0.6-3.6-1
		c-0.3,0.3-0.8,0.7-1.4,1.3C214.8,354.1,217.3,354.3,220.1,352.7z M176.1,367.6c0.2,0.8,0.4,1.4,0.3,2c-0.2,0.8,0.2,1,0.7,1.3
		c1.5,0.8,2.9,0.1,4-2.2C179.4,368.3,177.8,368,176.1,367.6z M176.8,407.6c-0.4,1.4,0.2,2.4,1.1,3.2c1.7,1.6,4.9,3,5.9,2.6
		C181.6,411.6,179.3,409.6,176.8,407.6z M219.8,372.2c-0.1,0-0.2,0-0.3,0c0.1,2.1-2.1,1.1-2.8,2.4c2,0.8,3.8,2.3,5.8,0.7
		C221.6,374.3,220.7,373.2,219.8,372.2z M211.2,347.4c1,0.5,1.9,0.9,2.8,1.4c0.7,0.4,1.3,1,2,1.5c0.2,0.2,0.7,0.3,0.9,0.2
		c0.2-0.2,0.4-0.6,0.4-0.9c0-0.4-0.2-0.9-0.5-1.1c-1.3-0.8-2.7-1.5-4.1-2.1C211.9,346.1,211.3,346.6,211.2,347.4z M216,372.7
		c-0.7-0.8-1.4-1.6-2.1-2.2c-0.8,0.4-1.5,0.6-2.1,1.1c-0.6,0.5-1,1.2-1.4,1.8C212.8,374.2,214.5,374,216,372.7z M175,389.6
		c1.1-0.8,1.1-1.7,1.3-2.5c0.3-1.3,0.5-2.7,1-3.9c0.5-1.1,0.3-2-0.5-3C175.7,383.2,174.6,386.1,175,389.6z M233.3,356.7
		c-0.7,1.5-1.4,1.8-2.8,1.2c-1-0.4-1.6-0.1-2.3,0.6c2.4,1.4,4.7,1.9,7.3,0.2C234.7,358,234,357.4,233.3,356.7z M163.6,336.3
		c-3.3,3-3.6,3.1-5.8,1.2c-0.7,0.6-1.4,1.2-2.2,1.8c3.3,0.7,6.3,0.4,9-1.7C164.2,337.1,163.9,336.7,163.6,336.3z M165.6,338.8
		c-0.6,0.6-1.3,1.2-1.9,1.7c1.8,1,6,0.4,7.8-1.3c-0.3-0.4-0.6-0.7-0.9-1.1C169.2,339.8,167.9,339.9,165.6,338.8z M177,374.6
		c-0.1-0.1-0.1-0.3-0.2-0.4c-0.7,0.3-1.6,0.4-2.2,0.8c-1,0.8-1,4.4,0,5.5C175.4,378.6,176.2,376.6,177,374.6z M231,356.2
		c0.1-0.1,0.3-0.2,0.4-0.3c-0.4-0.9-0.6-1.9-1.2-2.7c-0.5-0.7-1.2-1.3-1.9-1.6c-0.4-0.2-1,0.4-1.5,0.6c0.2,0.4,0.3,1,0.6,1.2
		C228.5,354.4,229.8,355.3,231,356.2z M213.1,368.2c1.7,1.4,3.2,2.5,4.8,3.8c0.2-1.6,0.3-3-0.9-3.8
		C216,367.4,214.7,367.6,213.1,368.2z M176.7,390.9c-2.1,0.7-2.8,4.9-1.5,7.8c0.1,0,0.2,0,0.3,0.1
		C175.9,396.2,176.3,393.6,176.7,390.9z M177.7,399c-0.1,0-0.2,0-0.3,0c-1.8,3.1-1.4,6.5,0.9,6.7C178.1,403.5,177.9,401.2,177.7,399
		z M235.2,361.2c1,1,2,1.6,3.3,1.6c1.9-0.1,2.2-0.6,1.3-2.3c-1.1,0.9-1.9,0-2.8-0.5C236.4,360.3,235.8,360.7,235.2,361.2z
		 M231,373.7c-0.1-2.1-1.9-3.1-4.5-2.7C226.4,372.8,228.3,374,231,373.7z M233.3,374c-0.7,0.6-1.1,1.4-1.7,1.5
		c-1.2,0.2-1.6,1.2-2.3,2.1c2.5,0.2,4.3-0.8,5.9-2.5C234.4,374.6,233.7,374.3,233.3,374z M236.8,373.6c-0.4-1-0.4-2.2-1-2.6
		c-1-0.8-2.3-0.5-3.5,0.2c0.2,0.6,0.4,1.1,0.6,1.6C234.1,373,235.3,373.3,236.8,373.6z M192,703c-2.7,2.4-5.8,3.7-9.2,4
		c2.5-0.1,5-0.4,7.4-0.8C191.7,705.8,192.1,704.9,192,703z M204.7,365.6c1,0.3,2.1,0.4,3,0.9c0.8,0.5,1.4,1.4,2.2,2
		c0.4,0.4,1,0.5,1.8,0.9C210.9,366.1,207,364.2,204.7,365.6z M226.4,374.3c-0.7,0.5-1.2,0.9-1.7,1.3c-0.5,0.4-0.9,0.9-1.5,1.4
		c2.4,0.6,4.1,0.1,5.4-1.6C227.9,375,227.1,374.7,226.4,374.3z M186.9,639.7c-0.1,0-0.3,0-0.4,0c-0.2,4.9-0.4,9.8-0.6,14.7
		c0.2,0,0.5,0,0.7,0C186.7,649.5,186.8,644.6,186.9,639.7z M179.2,390.1c1.1-2.2,0.8-4.2-0.4-6.2
		C177.6,386.1,177.6,388.1,179.2,390.1z M243.3,363.5c0.7-1.8-0.2-4.2-2-5.6c-0.2,0.6-0.6,1.2-0.4,1.6
		C241.5,360.8,242.4,362,243.3,363.5z M164.1,362.5c0.1,1.1,1.4,2.5,3.4,3.7c-0.1-1.2-0.2-2.4-0.3-3.6
		C166.1,362.6,165.1,362.5,164.1,362.5z M233.9,354.7c0,0.1-0.1,0.2-0.1,0.3c1.5,1.1,3.1,2.3,4.8,3.6c0-1.1,0.5-2.1-0.5-2.5
		C236.7,355.5,235.3,355.1,233.9,354.7z M154.6,353.4c1.2,0.1,2.3,0.1,3.5,0.2c-0.3-0.9-0.6-1.7-0.8-2.3c-1.1,0.1-1.9,0.2-2.9,0.3
		C154.5,352.2,154.6,352.7,154.6,353.4z M178.5,375.8c-1.2,2.4-1.1,2.7,0.9,4.8C180.2,378.8,179.9,377.4,178.5,375.8z M181.5,363.3
		c1.1-3,0.1-4.7-1.9-4.2C180.3,360.5,180.9,361.9,181.5,363.3z M245.8,363.4c0.6-1.4,0.4-3-0.5-3.6c-0.3-0.2-0.7-0.3-1-0.2
		c-0.2,0.1-0.4,0.6-0.4,0.9C244.1,361.6,244.7,362.5,245.8,363.4z M238.4,372.7c0.7,0.2,1.4,0.4,2.1,0.5c0.4,0,0.8-0.3,1.2-0.4
		c-0.2-0.4-0.4-1.1-0.7-1.2c-0.9-0.3-1.8-0.3-2.8-0.4C238.3,371.9,238.4,372.3,238.4,372.7z M177,358.6c-0.1,0.1-0.2,0.1-0.3,0.2
		c0.1,1.1,0.3,2.3,0.4,3.5c0.6,0,1.3,0,2.2,0C178.5,360.9,177.7,359.7,177,358.6z M238.4,374.4c-0.9,0.8-1.7,1.5-2.5,2.3
		c0.1,0.1,0.1,0.2,0.2,0.3c1.4-0.2,2.8-0.5,3.7-2C239.3,374.8,238.9,374.6,238.4,374.4z M155.5,333.9c-0.7,1.1-1.2,2-1.8,2.9
		c0.1,0.1,0.2,0.2,0.4,0.3c0.9-0.4,1.8-0.7,2.8-1.1C156.5,335.3,156.1,334.7,155.5,333.9z M161.9,359.6c0,0.1,0,0.2,0,0.4
		c1.2,0.3,2.4,0.6,4,1c-0.5-1-0.8-1.7-1.2-2.3c-0.5,0.2-0.9,0.4-1.3,0.6C162.9,359.4,162.4,359.5,161.9,359.6z M241.5,375.8
		c2.2-0.1,3-0.8,3.1-2.6c-0.4,0-0.8-0.1-1,0.1C242.9,374.1,242.3,374.9,241.5,375.8z M156.4,349.7c-0.7-1.2-1.2-2.2-1.7-3.2
		c-0.1,0-0.2,0.1-0.4,0.1c0.1,1,0.1,2,0.2,3C155,349.7,155.5,349.7,156.4,349.7z M179.1,414c1.1,1.8,3.9,2.6,5.2,1.7
		C182.7,415.2,180.8,414.6,179.1,414z M245.4,369.6c-1,0.2-1.9,0.4-2.9,0.6c0.4,0.6,0.7,1,1,1.3C245,371,245.2,370.8,245.4,369.6z
		 M246.1,373.2c1,0.2,1.7,0,1.7-1c0-0.4-0.6-1.3-0.7-1.2C246.1,371.4,246.1,372.3,246.1,373.2z M176.1,372.9
		c0.1-0.1,0.2-0.2,0.2-0.3c-0.8-1.1-1.5-2.4-3.5-1.8C174,371.6,175,372.3,176.1,372.9z M238.5,99c0-0.1-0.1-0.1-0.1-0.2
		c-0.9,0.5-1.9,1.1-2.9,1.6c0.4,0.4,0.8,0.7,1.1,1c0.2-0.2,0.4-0.4,0.5-0.6C237.5,100.3,238,99.6,238.5,99z M240.5,364.1
		c1.5,1.5,3.4,1.7,4.6,0.4c-1.9,1.5-2.9,0.3-3.9-1.1C240.9,363.7,240.7,363.9,240.5,364.1z"/>
	<path class="st0" d="M152.7,197.4c1,0.8,1.9,1.7,2.9,2.3c8.4,5.9,17.5,10,27.6,11.6c7.4,1.2,14.5-0.1,21.4-2.6
		c3.8-1.3,7.4-3.1,10.7-5.6c1.2,1.4,2.3,2.9,3.5,4.3c2.7,3,5.4,6.1,8.3,9c3.3,3.3,4.8,7.1,4.3,11.8c-0.8,8.3-1.4,16.7-1.8,25
		c-0.4,8.7-0.8,17.5-0.5,26.3c0.5,16.5,2.4,32.8,6.9,48.8c2.6,9.4,4.6,19,6.9,28.5c0,0.1,0,0.2,0,0.2c-0.7-0.1-1.5-0.2-2.3-0.4
		c-0.3-1.5-1.5-2.3-3-2.7c-1.5-0.4-3-0.6-4.6-1c-0.5-0.1-0.9-0.4-1.3-0.8c-0.7-0.6-1.1-1.4-1.9-1.8c-1.3-0.8-2.6-0.8-3.8,0.3
		c-2.3-2.1-4.4-4.4-8.1-3.7c-1-0.6-2.2-1.3-3.4-1.9c-1.3-0.5-2.6-0.7-3.9,0.3c-2.5-2.5-5.4-3.5-9-3.1c-2.1-2.5-4.8-3.5-8.1-2.9
		c-0.3,0.1-0.7-0.2-1-0.4c-2.2-1.5-4.5-2.4-7.1-1c-3.9-3.4-6.3-4-7.7-2c-1.2-0.8-2.2-1.8-3.5-2.4c-1.5-0.8-2.8-0.5-3.8,0.5
		c-1.3-0.8-2.7-1.7-4-2.5c-1.8-1-3.1-0.7-4.2,0.8c-2.2-1.6-4.2-4-7.6-1.8c-0.1-0.4-0.3-0.9-0.2-1.3c0.1-14.6-0.7-29.1-2-43.6
		c-0.9-9.9-2.3-19.7-3.7-29.5c-1.6-11.8-2.8-23.7-2.7-35.6c0-2.3,0-4.6,0.3-6.8c0.2-1.3,0.7-2.7,1.2-4c1.2-3.2,2.6-6.3,3.9-9.4
		C151.6,199.4,152.2,198.5,152.7,197.4z"/>
	<path class="st1" d="M110.2,437.9c0.9,0.1,1.8,0.2,2.6,0.2c2.6,0,4.7-2.5,3.8-5c-0.7-2-1.8-4-2.9-5.9c-0.5-0.9-0.7-1.7-0.5-2.8
		c1.9-10.3,5.8-20,8.5-30.1c2.4-9,4.7-18.1,7-27.2c1.3-5.2,2.9-10.3,4.1-15.5c2-9.4,3.1-18.9,3.8-28.5c0.7-8.5,1.3-17,1.8-25.5
		c0.9-15.7-3-30-12.6-42.6c-5.2-6.9-10.3-14-16.6-20c-0.4-0.4-0.8-0.9-1.2-1.3c-2.1-1.7-2-3.8-1.1-6.1c2-5.3,5.1-9.9,9.3-13.7
		c5.5-5,11.3-9.6,16.9-14.3c2.8-2.3,5.7-4.4,8.3-6.9c2.3-2.1,4.8-3.4,7.8-3.8c4-0.6,7.9-1.2,11.9-1.8c0.3,0,0.5,0,1,0
		c-1.3,2.6-3.5,4.1-5.7,5.2c-0.6-0.7-1-1.5-1.7-1.8c-1-0.5-1.9,0.3-2.6,1.1c-0.8,1-1.7,1.9-2.3,3c-3.5,6-6,12.3-6.4,19.4
		c-0.4,6.8-0.8,13.5-0.1,20.2c0.4,4.2,1,8.3,1.5,12.5c1.8,14.6,3.6,29.3,5.2,43.9c0.5,4.5,0.5,9.1,0.6,13.7
		c0.3,13.2,0.5,26.3,0.8,39.5c0.1,3.7,0.4,7.3,0.5,11c0.1,5,0,10.1,0.2,15.1c0.9,22.3,0.7,44.6,0.6,66.9
		c-0.1,15.8-1.1,31.6-2.2,47.3c-0.2,2.8-0.2,5.7-0.3,8.5c-0.2,4.2-0.5,8.4-0.8,12.7c-3.5-0.1-6.8,0.7-10,1.8
		c-3.2,1.1-6.3,2.3-9.1,4.5c3.8-34.2,5.2-68.3,3.5-100.5c-0.2,5.8-0.5,13.8-0.9,21.7c-0.5,9.3-1.1,18.5-1.6,27.8
		c-0.4,6.5-0.7,12.9-1,19.4c-0.4,7.5-0.9,15-1.3,22.5c-0.2,3.6-0.4,7.3-0.6,10.9c0,0.4,0,0.7,0,1.1c-0.7,3.1,1.2,4.9,3.3,5.9
		c1.6,0.7,3.4,1.1,5.1,1.7c1.6,0.6,3.2,1.2,4.6,2c1.7,1.1,1.7,2.2-0.1,3.3c-1.1,0.7-2.3,1.2-3.6,1.6c-3.1,1-6.1,2.3-8.8,4.9
		c0-4.8,0-9.2,0-13.7c-0.2,0-0.3,0-0.5-0.1c-0.6,3.4-1.4,6.9-1.8,10.3c-0.4,3-0.4,6.1-0.5,9.1c-0.2,3.9,2.2,6.6,6.6,7.2
		c3.2,0.5,6.5,0.7,9.8,1c1.4,0.1,2.8,0.3,4.2,0.6c0.3,0.1,0.8,0.3,0.9,0.6c0.6,2.8,1.1,5.6,1.7,8.6c-2.8-0.4-5.4-0.8-8.1-1.1
		c-9.1-1.3-18-3.1-26.7-6.2c-7.4-2.7-14.5-5.8-21-10.3c-3.2-2.2-5.9-5.1-6.3-9.1c-0.3-2.4,0.3-5,0.6-7.5c1.1-8.6,4.4-16.8,6.5-25.2
		c2-7.9,3.9-15.8,6.5-23.4c4.1-11.8,6.8-23.9,9.4-36C110,438.4,110.1,438.2,110.2,437.9z M118.6,474C118.6,474,118.6,474,118.6,474
		c-0.7,4-1.5,8-2.1,12c-1.5,9.7-3,19.3-4.4,29c-1.3,8.9-2,17.9-1.6,26.9c0.1,2,0.4,3.9,0.6,5.9c0.1,0,0.2,0,0.4,0
		c0-0.2,0.1-0.4,0.1-0.6c0.1-2,0.1-4,0.3-6c0.5-6.9,1-13.9,1.6-20.8c0.5-5.6,1.3-11.1,2-16.6c0.6-5.3,1.3-10.6,1.8-15.9
		C117.9,483.1,118.2,478.6,118.6,474z M113.6,455.2c-1.9,5.1-8.2,34.7-8.2,38.8C107.2,488.3,111.2,469.3,113.6,455.2z"/>
	<path class="st0" d="M182.6,418.4c1.9,0,3.7-0.3,4.3-2.7c2.2,1.6,3.4,3.8,4,6.3c1.1,4.6,0.6,9.1-0.5,13.6c-0.1,0.3-0.4,0.6-0.6,0.8
		c-1.3,0.8-1.4,1.3-1,2.7c0.2,0.6,0.2,1.3,0.2,2c0.1,0.4,0.1,0.9,0.2,1.3c0.4-0.2,0.9-0.3,1.2-0.5c0.2-0.1,0.4-0.4,0.6-0.7
		c0.6,0.5,1.2,1.1,1.9,1.6c0.3,0.2,0.9,0.3,1.1,0.2c0.2-0.2,0.3-0.8,0.3-1.1c0-0.3-0.2-0.7-0.4-1c-0.5-0.7-1.2-1.4-0.7-2.4
		c0.1-0.2-0.1-0.9-0.4-1.1c-0.8-0.6-0.6-1.2-0.3-1.9c1.7-4.9,1.9-9.9,0.5-14.8c-0.5-1.8-1.7-3.5-2.4-5c4.9,1.8,8.1,10.6,6.2,18.1
		c-0.4,0.1-0.8,0-1.1,0.2c-0.4,0.2-1,0.5-1.1,0.9c-0.3,0.9-0.5,1.9-0.7,2.8c-0.1,0.7,0.3,0.8,0.8,0.6c0.7-0.3,1.3-0.6,1.9-1
		c0.3,0.6,0.6,1.2,0.9,1.8c0.3,0.5,0.9,0.5,0.9-0.1c0-1.6,1.1-3,0.4-4.7c-0.1-0.2,0.1-0.6,0.1-0.9c2.4-8.2-0.6-18-10.6-21.1
		c-0.3-0.1-0.7-0.5-0.8-0.8c-0.3-1.3-1-2.2-2.1-2.9c-0.3-0.2-0.5-0.7-0.5-1c0.2-2.6-0.8-4.7-2.6-6.6c-0.3-0.3-0.6-0.8-0.5-1
		c1.5-3.1,0.6-5.8-1.4-8.4c1.6-2.8,1.7-5.6-0.4-8.2c2.2-2.5,2.2-5.1,0.3-8c4.6,2.1,9.2,1.9,13.7,0.6c2.1-0.6,3.6-1.8,4.6-3.7
		c0.4-0.7,3.9-1.1,4.4-0.4c1.2,1.4,2.7,2.3,4.6,2.1c0.3,0,0.6,0.1,0.8,0.3c1.8,1.3,3.9,1.6,6,1.2c0.5-0.1,1.1,0.1,1.5,0.4
		c1.6,1.3,3.3,2.3,5.5,1.9c0.3,0,0.7,0.2,0.9,0.4c1.4,1.1,3,1.3,4.6,0.6c0.4-0.1,0.9-0.2,1.3,0c1.5,0.6,3,0.5,4.6,0
		c0.6-0.2,1.4-0.3,2-0.2c1.8,0.3,3.5,0.1,5-1c0.3-0.2,0.8-0.3,1.1-0.2c2,0.4,3.5-0.1,4.8-2c0.6,2.4,1.2,4.6,1.7,6.9
		c4.6,23.7,6.1,47.7,5.7,71.8c-0.1,5.8-0.5,11.5-0.9,17.3c0,0.7-0.4,1.4-0.8,1.9c-3.4,4.2-8.1,6.6-12.9,8.8
		c-6.8,3.1-13.9,4.7-21.2,5.7c-15,2.1-30.1,2-45.1,1c-6.4-0.4-12.8-1-19.3-1.6c0-0.8,0-1.4,0-2c2.3-23.8,2.9-47.6,2.4-71.4
		c-0.2-9.6-0.1-19.1-0.2-28.7c-0.2-9-0.5-17.9-0.8-26.9c0-0.2,0-0.4,0-0.7c0.7,0.5,1.4,1,2.1,1.4c0.3,0.2,0.7,0.4,1.1,0.4
		c1.8,0,2.9,1.3,4,2.4c0.2,0.2,0.3,0.6,0.4,0.9c0.2,0.6,0.2,1.5,0.6,1.9c1.6,1.3,3.4,2.4,5.1,3.6c0.9,0.6,1.9,1.1,2.5,1.8
		c1.1,1.2,1.9,2.6,2.8,4c-1.8,2.7-1.4,5.6,0.1,8.5c0.2,0.4,0.2,0.9,0.1,1.3c-0.2,1.6-0.6,3.3-0.8,4.9c0,0.3,0,0.6,0.1,0.8
		c1,1.4,0.5,2.9,0.3,4.4c-0.3,2.2-0.1,4.5,1.1,6.5c0.2,0.3,0.2,0.7,0.2,1c-0.3,1.5,0.1,2.9,0.8,4.3c0.1,0.3,0.3,0.7,0.1,0.9
		c-1.1,1.9-0.5,3.5,0.7,5.1c0.3,0.4,0.4,1,0.6,1.5c0.5,1.2,0.9,2.4,1.5,3.8c-1.7,2.1-2,4.9-1.2,7.6c2.3,7.5,1.3,14.8-0.5,22.1
		c-0.5,2.1-1.2,4.1-1.8,6.1c-2.5-0.4-3.2,0.1-3.2,2.4c0,0.3-0.3,0.6-0.6,0.9c-0.7,0.6-1.4,1.1-2.2,1.8c0.9,0.4,0.9,0.4,3.8-0.5
		c0,1.2,0,2.4,0,3.6c0.1,0,0.2,0.1,0.3,0.1c0.2-0.3,0.5-0.5,0.7-0.8c0.6-1,1-2.2,2.2-2.8c0.4-0.2,0.4-1.4,0.5-2.2
		c0.1-0.4-0.2-0.9,0-1.1c2.2-3.3,3.1-7.2,3.9-11c0.9-4,1.5-8.1,1.1-12.2c-0.3-2.6-1-5.3-1.6-7.9c-0.4-1.8-0.3-3.5,0.4-5.5
		c0.3,0.4,0.5,0.6,0.6,0.9c1.8,8,4.5,15.9,3.9,24.2c-0.3,4.4-0.9,8.8-2.4,13c-0.3,0.8-0.6,1.3-1.7,1.2c-1.9-0.1-2.6,1.5-1.5,3.5
		c-0.3,0.6-0.8,1.2-1,1.9c-0.1,0.4-0.1,1.1,0.1,1.3c0.2,0.2,0.9,0.2,1.3,0c0.6-0.3,1-0.9,1.5-1.4c0.2-0.2,0.4-0.5,0.9-1
		c0.3,1,0.5,1.8,0.7,2.5c0.1,0.4,0.4,0.7,0.7,1c0.4-0.3,0.9-0.6,1.1-1c0.5-1.5,0.2-3-0.7-4.2c-0.7-0.9-0.7-1.5,0-2.4
		c1.8-2.7,2.4-5.8,3-8.9c1.6-8.5,0.6-16.7-2.2-24.7C183.8,421.7,183.2,420.1,182.6,418.4z"/>
	<path class="st2" d="M248.5,88.4c-0.7,2.9-1.4,5.9-2.2,8.9c-0.8,3.2-2.9,5.4-5.9,6.9c-1.4,0.7-2.9,1.2-4.6,1.9
		c0.1-0.3,0.1-0.4,0.1-0.5c2.5-2.9,4.6-5.9,6-9.5c0.1-0.2,0.2-0.4,0.4-0.6c3.5-4.1,3.3-8.7,1.7-13.6c-0.2,9.7-4,13.5-9,16
		c0.1-0.4,0.2-0.7,0.3-1.1c0.5-1.6,0.9-3.3,1.5-4.9c0.5-1.6,1-3.2,1.5-4.8c1.5-4.3,0.8-8.3-1-12.2c-0.2,3-0.3,6.1-0.7,9.1
		c-0.5,3.6-3.8,6.7-7.2,7c3.5-6.9,1.3-12.9-3-18.8c0.5,2.8,0.9,5.4,1.4,7.9c1,5.4-2.7,11.1-8.2,12.1c-0.2,0-0.5,0-0.8,0.1
		c1.8-8,1.3-15.7-3-23c0.3,3.2,0.6,6.3,0.8,9.4c0.2,4.6-0.7,9-2.5,13.2c-1.2,2.9-3.4,4.9-6.2,6.3c-1.7,0.9-3.6,1.6-5.4,2.4
		c4.9-7.6,5.7-15.9,4.3-24.7c-0.4,2.3-0.8,4.6-1.2,6.8c-1.5,9.4-5.5,17.4-13.3,23.2c-1,0.7-2,1.5-3,2.3c2.8-11.8,5.5-23.4,8.2-35
		c-0.1,0-0.2-0.1-0.4-0.1c-0.6,1.2-1.2,2.4-1.7,3.7c-2.4,7-4.7,14.1-7,21.1c-1.2,3.7-2.4,7.4-3.6,11.1c-0.2,0.7-0.8,1.2-1.3,1.7
		c1.4-10.9,2.3-21.8,2.1-32.8c-2.4,8-3.1,16.2-4.6,24.5c-0.3-6.9-0.6-13.6-0.9-20.4c-0.1,0-0.1,0-0.2,0c-1.3,4-2.7,8.1-4,12.1
		c-0.8,2.4-1.8,4.6-3.4,6.7c-2.1,2.9-4,5.9-6,8.8c-0.2,0.3-0.4,0.6-0.8,1.2c0.7-5.2,1.3-10.2,1.9-14.9c-1.5,2.5-3.2,5.3-4.9,8
		c-1.8,2.7-4,5-6.5,7.1c1.8-4.3,2.1-8.8,1.9-13.5c-1.2,3.3-2.4,6.5-3.5,9.7c-1.4,4.3-4.2,7.2-8.6,8.2c-3.3,0.8-6.7,1.3-10.1,1.9
		c-0.3,0.1-0.8-0.1-1-0.4c-4.2-5.3-7.4-11-7.7-18c-0.2-4.2,0.8-8.3,1.9-12.4c2.4-9.2,7.5-16.8,13.7-23.7c2.1-2.4,4.7-3.8,7.7-4.6
		c5.2-1.5,9.9-4.1,14.3-7.1c3.8-2.5,7.7-4.9,11.6-7.2c1.4-0.9,3.1-1.4,4.6-2.1c3.3-1.5,6.6-1.3,9.7,0.3c2.4,1.2,4.7,2.6,7,4
		c2.3,1.3,4.5,2.7,6.8,4.1c0.2,0.1,0.3,0.2,0.4,0.3c-5.8,0.9-11.6,1.8-17.4,2.8c2.1,0.7,8.5,1.2,11.3,1c6.6-0.5,13.3-1.5,20-1.1
		c9.4,0.6,18.1,3.5,25.5,9.5c6.1,4.9,8.8,11.3,8.4,19c-0.2,2.8-0.8,5.6-1.2,8.4c-0.6,4.4-0.2,8.8,0.8,13.2c0.7,2.8,1.1,5.7,0.4,8.5
		c-0.3,1.1-0.8,2.3-1.6,3c-3.5,3.1-7.6,4.4-12.2,3.4c-0.5-0.1-1-0.4-1.7-0.6c4.7-1.5,7.6-4.3,8-9.1c-2,1.8-4,3.6-6,5.4
		c-0.1-0.1-0.2-0.1-0.3-0.2c0.5-1.7,1.1-3.3,1.6-5c0.4-1.4,1.2-2.4,2.6-3.2C248.9,102.3,251.4,93.9,248.5,88.4z"/>
	<path class="st3" d="M148.8,508.2c1.2-0.4,2.3-0.7,3.4-1c0.3-5.8,0.6-11.6,0.8-17.4c12.5,1.7,24.9,2.8,37.5,2.8c0,1,0,1.8,0,2.7
		c-0.1,7,0.7,13.9,1.7,20.8c1.1,7.7,1.3,15.4,1,23.2c-0.2,5.1-0.2,10.2-0.6,15.3c-0.6,6.6-1.5,13.1-2.3,19.6
		c-0.9,7.3-1.8,14.7-2.8,22c-0.1,0.5-0.4,1.1-0.8,1.4c-4.2,3.5-8.5,7-12.8,10.5c-0.6,0.5-1,0.4-1.5,0c-3.9-2.9-7.8-5.8-11.7-8.6
		c-0.8-0.6-0.9-1.3-1-2.2c-1-6.4-1.8-12.7-3.1-19c-1.3-6.7-2.9-13.3-4.6-19.9c-2.5-10-3.2-20.2-3.2-30.5c0-6.4-0.1-12.8-0.1-19.2
		C148.8,508.6,148.8,508.3,148.8,508.2z M183.4,525.6c-0.1,0-0.2-0.1-0.4-0.1c-0.5,1.2-0.9,2.5-1.5,3.7c-0.5,1.2-1.1,2.5-1.8,3.7
		c-1.9,3.3-5.3,4.4-8.8,3c-1-0.4-2.1-0.8-2.9-1.5c-2.1-1.7-4-3.6-6-5.5c-0.9-0.9-1.7-1.9-2.5-2.9c-0.1,0.1-0.1,0.1-0.2,0.2
		c2.1,4.5,4.9,8.5,9.5,10.7c1.4,0.7,2.8,0.8,4.3,0.4c0.8-0.2,1.6-0.4,2.5-0.5c2.9-0.4,5-2,6-4.7C182.5,530,182.9,527.7,183.4,525.6z
		 M166.3,504.8c1.9,0.5,3.7,1,5.5,1.5c1.8,0.6,3.5,1.2,5.3,1.8c2.8,1,4.7,2.9,5.9,5.6c0.3,0.7,0.6,1.3,1,2.2c0.3-3.5-1.5-7-4.5-9
		c-2.6-1.6-5.4-2.6-8.4-3.3C169.2,503.3,167.6,503.5,166.3,504.8z"/>
	<path class="st3" d="M202,492.3c3.2-0.2,6.2-0.4,9.2-0.7c10.6-1,21.1-2.9,30.7-7.7c3.7-1.8,7.1-3.9,10.3-7.1
		c-0.2,1.8-0.3,3.3-0.5,4.8c-2.1,14.5-6.4,28.4-11.8,42c-1.7,4.2-4.5,6.2-8.7,6.9c-1.4,0.2-2.8,0.7-4.2,1.1c3.3,1.3,6.5,1.2,10-0.7
		c-10.1,24.9-15.6,50.7-20.4,76.9c-0.5-0.3-0.9-0.5-1.2-0.8c-7.4-5.4-14.8-10.8-22.2-16.2c-0.9-0.6-1.1-1.3-1-2.3
		c0.8-7.3,1.6-14.6,2.3-21.9c0.8-8.5,1.5-17,2-25.6c0.2-3.7-0.1-7.5,0-11.3c0-1.1,0.1-2.2,0.5-3.3c1.5-4.4,2.8-8.9,4.6-13.3
		c2.4-5.9,2.7-11.8,1.2-18C202.3,494.3,202.2,493.4,202,492.3z M223.7,521.2c-1.8,2.7-2.4,7-1.3,9.9c0.2,0.6,0.7,1.1,1,1.7
		c0.1-0.1,0.2-0.1,0.3-0.2C223.7,528.8,223.7,525.1,223.7,521.2z"/>
	<path class="st3" d="M76.7,428.2c-1.3,1.9-3.2,2.9-5.4,3.7c-2.7,0.9-5.1,2.4-8,2.7c-1.2,0.1-2.3,0-3.4-0.8c0.4-0.3,0.8-0.5,1.1-0.8
		c4.1-2.6,8.3-5.1,12.3-8c4.9-3.6,9.6-7.5,14.3-11.3c2.8-2.3,3.7-5.6,4.1-9c0.5-4.3,1-8.7,1.1-13c0.5-20.7-0.2-41.4-1.5-62.1
		c-0.2-3.9-0.4-7.8-0.2-11.7c0.2-3.4,0.8-6.7,1.4-10.1c1.7-10.2,3.5-20.3,5.2-30.5c0.1-0.3,0.2-0.6,0.3-1c7.6,7.6,16.6,12.9,26.4,17
		c-0.2,0.4-0.3,0.8-0.4,1.1c-2.7,6.9-5.4,13.8-8,20.8c-1,2.7-2.2,5.4-2.8,8.2c-1.1,4.8-1,9.6-0.1,14.4c1.4,8,0.2,15.9-1.8,23.6
		c-1.5,5.8-3.3,11.5-5.2,17.2c-3,8.9-3.3,17.9-1.2,27.1c1.3,5.6,2.5,11.2,3.7,16.8c0.5,2.3,1.4,4.5,2.8,6.5c0.9,1.4,1.9,2.8,2.6,4.3
		c0.9,1.6,0.1,2.8-1.7,2.5c-1.6-0.3-3.3-0.7-4.8-1.4c-0.7-0.3-1.3-1.3-1.6-2.1c-0.5-1.2-0.7-2.4-1.3-3.6c-0.5-1.2-1.3-2.3-2-3.5
		c-0.1,0-0.2,0.1-0.3,0.1c0,0.4-0.1,0.8-0.1,1.2c-2.4,0.2-3.5,1.2-4.1,3.7c-0.7,3.1-1.2,6.2-2,9.2c-1.7,6.2-5.3,11.3-9.4,16.1
		c-0.4,0.5-0.8,1.1-1.4,1.5c-0.4,0.4-1,0.7-1.5,0.8c-0.5,0.1-1.2-0.1-1.5-0.4c-0.2-0.3,0-1,0.2-1.5c1.8-3.6,3.8-7.2,5.6-10.9
		c1.7-3.6,2.5-7.5,2.3-11.5c0-0.5-0.1-1-0.5-1.5c-0.3,1.1-0.7,2.3-1,3.4c-1.5,5.8-4.4,10.9-7.2,16.1c-0.9,1.6-1.5,3.3-2.5,4.7
		c-1.4,1.8-2.9,3.7-5.4,4c-0.7,0.1-1.7-0.2-2.3-0.6c-0.2-0.2,0-1.4,0.3-1.9c1.1-1.8,2.3-3.5,3.6-5.1c3.6-4.8,6.1-10.1,6.6-16.2
		c0.1-1.2,0-2.4,0-3.6c-0.1,0-0.3,0-0.4,0c-0.6,2.1-1.3,4.2-1.8,6.3c-0.6,2.5-1.9,4.3-3.9,5.8c-2.8,2.1-5.5,4.3-9,5
		c-0.8,0.2-1.7,0.2-2.5,0.2c-0.9,0-1-0.6-0.5-1.2c0.6-0.7,1.2-1.3,1.9-1.8c5.4-3.9,8.6-9.2,10.4-15.4
		C76.3,430.6,76.5,429.4,76.7,428.2z"/>
	<path class="st1" d="M228.3,567.2c1-3.6,1.9-7.1,2.8-10.6c1.1-4,2.3-7.9,3.5-11.8c1.3-4.4,3-8.7,4.9-12.9
		c7.5-16,12.6-32.7,14.8-50.3c2-15.2,2.9-30.4,2.3-45.7c-0.3-7.6-1-15.2-1.5-22.7c0-0.6-0.1-1.1,0.1-1.7c0.1,0.2,0.2,0.4,0.3,0.6
		c4.5,13.7,9.2,27.4,13.6,41.2c5.3,16.5,9,33.4,11.4,50.5c0.9,6.8,1.6,13.7,2.2,20.5c0.2,2.4,0.2,4.8,0.1,7.2
		c-0.2,3.5-2,6.1-5.2,7.6c-3.1,1.5-6.3,2.1-9.9,2.3c1.5-17.2,0.7-34.1-2.5-49.6c0,1.8,0,4.9,0,7.9c-0.1,13.1-0.2,26.2-0.3,39.3
		c0,1.4,0,2.9,0.3,4.3c0.4,2,1.5,3.6,3.2,4.7c2.6,1.7,5.3,3.4,8,5.1c0.4,0.3,0.8,0.5,1.2,0.8c1.4,1.1,1.3,3.2-0.4,3.8
		c-1.8,0.6-3.7,0.9-5.6,1c-5.9,0.3-11.7-0.9-17.3-2.7c-3.1-1-6.2-2.1-9.6-2.1c-1.1,0-2.1,0-3.1,0c3.3-10.9,6.7-22,10-33
		c-0.1,0-0.3-0.1-0.4-0.1c-0.7,1.7-1.4,3.5-2,5.2c-3.2,9-6,18.1-8,27.5c-0.1,0.4-0.3,0.9-0.6,1.2c-1.9,1.9-2.1,4.8-0.1,6.7
		c1.1,1.1,2.5,1.8,3.8,2.6c1.3,0.8,2.7,1.6,3.9,2.5c0.7,0.5,1.1,1.3,1.6,2c-0.1,0.2-0.1,0.3-0.2,0.5c-1.4,0-2.7,0.2-4.1,0
		c-3.2-0.3-6.4-0.7-9.5-1C233.2,567.7,230.8,567.4,228.3,567.2z M255.2,507.4c-0.2,0-0.3,0.1-0.5,0.1c4.4,14.3,5.7,29,5.7,43.8
		c0.9-3.7,1.7-7.6,1.6-11.6c-0.1-3.9-0.4-7.7-0.9-11.6c-0.7-6.2-2.1-12.3-4.6-18C256.2,509.2,255.7,508.3,255.2,507.4z"/>
	<path class="st3" d="M204.8,135.2c-0.6,1.3-0.5,2.5,0.2,3.3c1.2,1.3,2.4,2.7,3.9,3.7c2.6,1.7,5.5,2.6,8.6,2.8
		c1.4,0.1,3-0.4,4.4-0.9c1.5-0.6,2.2-2,2.4-3.6c0.5-4-0.4-7.9-1.3-11.7c-0.1-0.6-0.3-1.2-0.5-1.7c1,0.2,2,0.5,3,0.4
		c4.3-0.5,6.7-3.3,8.2-7.2c0.1-0.3,0.2-0.7,0.3-1c0,0,0.1,0,0,0c1.2,0.7,2.4,1.3,3.6,2c0.3,0.2,0.5,0.6,0.5,0.9
		c-0.2,3.1-0.3,6.2-0.8,9.2c-0.3,1.6-1,3.3-1.9,4.6c-3.2,4.4-5.4,9.3-7.2,14.4c-1.4,4-3.2,7.9-4.8,11.8c-0.5,1.2-0.9,2.4-1.2,3.6
		c-0.4,1.7-1.4,3-2.8,4.1c-3.4,2.8-7.4,4.2-11.8,3.9c-1.3-0.1-2.6-0.6-3.9-1c-2.9-0.9-5.7-1.9-8.5-2.8c-5.8-1.9-11.3-4.5-16.6-7.4
		c-6.1-3.4-10.8-8-14.4-13.9c-1.5-2.5-2.9-5-4.4-7.5c2-1.2,3.7-2.4,5.5-3.3c4.6-2.4,8.4-5.8,11.7-9.8c1.5-1.9,3.3-3.5,5-5.4
		c2.2,2.2,4.8,3.7,7.7,4.4c3.4,0.8,6.8,0.8,10.1-0.6c4.4-1.8,6-5.5,4.3-10c-0.2-0.5-0.4-0.9-0.4-1.5c0.5,0.6,1.1,1.2,1.6,1.8
		c0.1,0,0.2-0.1,0.3-0.1c-0.1-0.5-0.1-0.9-0.3-1.4c-0.8-2.1-2.3-3.7-4.3-4.6c-2-0.9-4-1.7-6.1-2.5c1.8-1.5,3.9-1.8,6.2-1.3
		c1,0.2,2,0.6,3,1c0.5,0.2,1,0.4,1.5,0.5c0.9,0.2,1.8,0,2.2-0.9c0.4-0.9,0-1.7-0.7-2.2c-0.8-0.6-1.7-1.1-2.6-1.6
		c2.1-1.1,4.4-2.1,6.5-3.4c2.2-1.3,3.8-3.2,4.8-5.1c2-0.3,3.9-0.3,5.7-0.8c1.7-0.6,3.3-1.7,4.9-2.6c0,0,0,0.2,0,0.4
		c-0.1,1.5,0.7,2.4,2.2,2c1.7-0.5,3.4-1.2,5-1.8c0.4-0.1,0.7-0.4,1-0.6c0.1,0.1,0.2,0.1,0.3,0.2c-0.9,2.3-1.8,4.6-2.8,6.9
		c-0.1,0.2-0.7,0.4-1.1,0.4c-3-0.3-5.9,0.3-8.6,1.6c-3.7,1.7-5.3,4.4-5.3,8.5c-0.1,4.7,0.1,9.4,1.3,14c1,4,2,8.1,2.9,12.1
		c0.3,1.3,0.3,2.6,0.5,3.9c0.2,1-0.2,1.5-1,1.9c-1.4,0.7-2.9,0.7-4.4,0.3c-3.4-0.8-6.6-2.1-9.2-4.6
		C206.4,136.2,205.6,135.7,204.8,135.2z M213.2,156.6c0,0.1,0,0.2,0.1,0.3c1.5,0,2.9,0,4.4,0c2.3,0,3.7-1.2,4.8-3
		c0.5-0.7,0.6-1.5-0.1-2c-0.7-0.6-1.3-0.2-1.8,0.4c-1.3,1.6-2.9,1.8-4.8,1.6c-2.9-0.3-5.7-0.4-8.5,0.4c-3.2,0.9-6.2,0.6-8.5-2.1
		c-0.3-0.4-0.9-0.7-1.4-0.8c-0.4-0.1-1,0-1.3,0.3c-0.2,0.3-0.3,0.9-0.2,1.3c0.2,0.6,0.5,1.1,0.8,1.6c2.2,3,5.4,3.6,8.9,3.2
		C208.2,157.4,210.7,156.9,213.2,156.6z M180.6,129.9c0.4,1.3,0.6,2.3,1.1,3.3c0.2,0.4,0.9,0.9,1.4,0.9c0.5-0.1,1.2-0.5,1.4-1
		c0.7-1.4,0.4-2.8-0.5-4c-0.5-0.7-1.3-1.2-2.1-0.7C181.3,128.6,181,129.4,180.6,129.9z"/>
	<path class="st1" d="M239.5,329.7c-2.1-7.5-4-14.7-4.9-22.2c-1-8.2-1.9-16.4-2.7-24.7c-0.3-3.2-0.2-6.5-0.2-9.7
		c0.2-9.1,0.5-18.1,0.9-27.2c0.3-5.3,1.1-10.7,1.5-16c0.2-2.2,0.3-4.5-0.1-6.7c-0.6-3.9-3-6.9-5.4-9.9c-2.1-2.6-4.4-5-6.7-7.5
		c-3.7-4.2-7.4-8.4-11.1-12.6c-1.1-1.2-1.6-1.1-2.2,0.4c-2.8-1.7-4.5-3.9-4.2-7.3c0.1,0,0.2,0,0.3,0c8.9,5.2,17.8,10.4,26.7,15.6
		c3,1.8,5.9,3.8,8.8,5.7c4.7,3.1,7.7,7.6,9.1,13c1.4,5.6,2.4,11.4,3.4,17.2c0.4,2.4,0.2,4.7-0.6,7.1c-3.7,10.2-5.6,20.9-7.5,31.6
		c-1.5,8.3-2.7,16.6-3.9,24.9c-0.4,2.5-0.2,5-0.3,7.5c-0.1,2.1-0.3,4.1-0.4,6.2C239.9,319.8,239.7,324.6,239.5,329.7z"/>
	<path class="st3" d="M247.6,689c-3.7,0.7-7.4,1.5-11,1.9c-3.9,0.5-7.7-0.5-11.4-1.7c-4.6-1.5-9.2-3.2-13.8-4.8
		c-1.6-0.5-3.2-0.9-4.9-1c-1.1-0.1-2.2,0.4-3.2,0.5c-1.1,0.2-2.1,0.4-3.2,0.5c-2.6,0.2-5.2,0.3-7.8,0.6c-1,0.1-1.4-0.3-1.5-1.2
		c-1-5.4-2-10.8-3.2-16.1c-0.6-2.8-0.4-5.4,0.5-8.1c1.4-4.1,1.7-8.4,1.7-12.7c0-0.8,0.2-1.1,1-1.4c6.1-2.2,12.1-4.3,18.2-6.6
		c1-0.4,1.7-0.2,2.6,0.2c1.9,0.9,2.4,2.1,2.4,4.2c-0.1,3.4,0.2,6.8,0.4,10.2c0.2,3.5,2.2,6.2,4.4,8.6c4.2,4.5,9.1,8.2,14.6,11
		c2.7,1.4,5.4,2.6,7.9,4.3C245.2,680.4,247.1,684.2,247.6,689z"/>
	<path class="st3" d="M249.9,292.7c0,0.3,0.1,0.5,0.1,0.8c0.4,5.7,1,11.3,1.2,17c0.2,5.7,1.7,11,3.9,16.2
		c4.6,11.3,5.6,23.1,4.5,35.1c-0.6,6.1,0.1,12,1.6,17.8c0.9,3.5,2.4,6.9,3.4,10.3c1.9,6.4,6.2,11.2,10.4,16.1c2,2.4,3.8,5,5.6,7.6
		c0.5,0.7,0.8,1.7,1,2.5c1.3,4.5,3.5,8.5,6.4,12c1.7,2,1.9,4.4,1.1,6.9c-0.3,0.8-0.8,0.9-1.5,0.8c-1.8-0.4-3.1-1.3-3.8-3.1
		c-0.9-2.5-1.9-5-2.9-7.5c-0.7-2-1.9-3.6-3.6-5c-3.2-2.5-6.3-5.1-9.4-7.6c-0.4-0.3-0.8-0.8-0.9-1.3c-0.8-2.5-1.5-5-2.3-7.6
		c-0.1,0-0.3-0.1-0.4-0.1c-0.2,1-0.7,2-0.7,3c0.3,4.9,1.5,9.5,3.7,13.9c1,2,1,2.8-0.7,4.3c-0.7,0.6-1.5,1.1-2.3,1.7
		c-0.6-1.7-1.1-3.2-1.7-4.8c-4.3-12.4-8.4-24.9-11.7-37.6c-0.8-3-1.2-6.1-1.6-9.2c-0.2-1.7,0-3.5-0.2-5.2c-0.1-0.9-0.5-1.7-0.9-2.5
		c-0.4-0.7-0.7-1.3-0.2-2.1c1.3-2.1,0.6-5.7-1.3-7.5c-0.5-0.4-0.9-1.1-1.1-1.7c-2.2-7.6-2.3-15.5-2.6-23.3c-0.2-6.7-0.2-13.4,0-20
		c0.2-5.7,0.7-11.3,1.1-17c0-0.7,0.3-1,1-1.3C246.9,293.9,248.4,293.3,249.9,292.7z"/>
	<path class="st3" d="M154.7,196c0.7-0.3,1.1-0.4,1.5-0.6c6.1-2.1,9.4-6.4,9.9-12.9c0.5-6,0-12.1-0.6-18.1c-0.4-3.5-0.8-7-1.3-10.6
		c0.3,0.2,0.4,0.2,0.5,0.3c8.3,9.6,19.2,15.2,31.1,19c1.4,0.4,2.8,0.9,4.2,1.4c0.8,0.2,1,0.7,1.1,1.6c0.1,4.3,0.3,8.6,0.6,12.9
		c0.1,1.9,1,3.5,2.4,4.7c2.4,1.9,4.9,3.6,7.3,5.4c0.7,0.5,1.4,1.2,2.3,1.9c-1.1,0.6-1.8,1.1-2.6,1.6c-7.3,4.1-15.1,6.5-23.6,6.4
		c-5.3-0.1-10.4-1.4-15.3-3.2c-5.4-2-10.5-4.6-15.2-7.8C156.4,197.3,155.7,196.7,154.7,196z"/>
	<path class="st2" d="M135.5,129.4c3.1,3.1,6,6.1,9.1,8.9c3,2.7,6.6,3.8,10.7,3.2c1.9-0.3,1.8-0.2,2.7,1.5c0.9,1.9,2,3.7,2.9,5.5
		c0.2,0.5,0.4,1.2,0.2,1.7c-0.6,1.8-1.3,3.5-2.2,5.2c-2.9,5.3-7,7.1-12.8,5.5c-2.2-0.6-4.3-1.6-6.4-2.7c-2-1-3.8-2.4-6-3.8
		c5.8-0.8,10.1-3.2,12.6-8.2c-4.3,1.9-8.7,3.6-13.4,4.1c-11.3,1.1-20.3-7.3-20.2-17.6c0-4.1,1.2-7.9,2.9-11.5
		c1.6-3.4,3.1-6.8,4.5-10.3c0.4-1.1,0.5-2.3,0.7-3.3c1.6-0.4,3.2-0.9,4.6-1.2c1.9,3.6,3.9,7.3,5.9,11c-2.9,0.5-4.8-1.9-7.4-2.8
		c0.6,1,1.1,2.1,1.9,2.9c5.4,5.3,11.5,9.6,19,11.6c2.8,0.7,5.6,0.7,8.4,0.1C147.3,132.6,141.5,130.7,135.5,129.4z"/>
	<path class="st3" d="M187.1,680.8c-8.1,1.5-14.3,5.7-18.8,12.6c-0.2-0.2-0.3-0.3-0.4-0.5c-2.7-5.1-6.9-8.4-12.5-9.8
		c-3.1-0.8-6.3-1.3-9.5-1.9c-0.5-0.1-0.9-0.2-1.6-0.3c0.9-1,1.7-1.8,2.5-2.7c4.5-5.1,9-10.2,13.4-15.3c2.2-2.5,3.9-5.3,3.5-8.8
		c-0.1-1,0.4-1.7,1.2-2.3c3-2.4,5.9-4.9,8.9-7.4c3.1,2.3,6.1,4.5,9.1,6.7c0.3,0.2,0.5,0.7,0.5,1c0.4,9.5,1.9,18.8,3.8,28.1
		C187.1,680.4,187.1,680.6,187.1,680.8z"/>
	<path class="st0" d="M106.9,237.6c1.5,1.4,3.2,2.6,4.4,4.2c5.1,6.6,10.2,13.2,15.2,19.9c2.6,3.6,4.5,7.6,6.1,11.8
		c0.3,0.8,0.3,1.6-0.1,2.4c-2.2,4.6-4.3,9.3-6.5,13.9c-0.1,0-0.2,0.1-0.2,0.1c-9.7-3.9-18.6-9-26.1-16.5c-0.7-0.7-0.9-1.4-0.7-2.3
		c2.6-11,5.2-22.1,7.7-33.1C106.8,237.9,106.8,237.7,106.9,237.6z"/>
	<path class="st2" d="M123.5,68.3c-4.4,5.4-6.7,11.6-7.6,18.3c-0.7,5-1,10.1,0.3,15.1c0.2,0.9,0.6,1.9,1,2.7
		c0.5,0.8,0.2,1.4-0.3,1.9c-0.5,0.7-1.2,0.6-1.8,0.3c-1.8-0.8-3.4-3.4-3.4-5.5c0-1.8-0.3-3.6-0.5-5.3c-0.2-1.3-0.5-2.7-0.8-4.2
		c-1,2.9-1.8,5.6-2.2,8.5c-0.3,2.3-0.7,4.7-1.2,6.9c-0.3,1.1-0.8,2.5-2.1,2.6c-1.4,0.1-1.9-1.2-2.4-2.3c-1.9-4-3.4-8.2-2.8-12.7
		c0.4-3.2,1.6-6.3,2.4-9.5c0.7-2.7,2.4-4.7,4.4-6.7c-1.8,0.1-5.1,1.4-8.1,3.2c-2.5,1.5-5,2.9-7.5,4.4c-0.2-0.1-0.3-0.2-0.5-0.4
		c1.2-3.4,2.2-7,3.7-10.3c2.5-5.6,6-10.5,10.9-14.4c0.8-0.6,1.6-1.1,2.4-1.5c1.4-0.8,2.9-0.8,4.4-0.2
		C116.6,61.3,120.1,64.7,123.5,68.3z"/>
	<path class="st0" d="M244.9,366.7c0.1,0.4,0.2,0.8,0.2,1.2c-2.5-0.1-3.3,0.2-4.3,1.6c-1,0.1-2,0.1-2.9,0.2c-0.4,0-0.8-0.1-1.1-0.2
		c-1.8-1-3.6-0.8-5.4,0.2c-0.3,0.2-0.9,0.2-1.2,0.1c-1.5-0.5-3-1-4.7-0.4c-0.3,0.1-0.7,0-1-0.2c-1.7-0.8-3.5-1.2-5.3-0.9
		c-1.5-2.3-4.2-2.4-6.4-1.6c-1.9-2.3-4.4-3.2-7.3-3.1c-0.6,0-1.4,0.1-1.7,0.5c-0.9,1.3-2.1,0.8-3.3,0.7c-1.2-3.8-4.1-5.9-7.6-7.3
		c-3.6-1.5-7.1-1.6-10.6,0.4c-0.2,0.1-0.6,0-0.9,0.1c-1.6,0.4-3.3,0.5-4.9,0.2c-0.1,0-0.2,0-0.3,0c-1.1-2-2.8-3.4-4.8-4.4
		c-0.5-0.3-1.1-0.3-1.7-0.5c-0.4-0.1-0.8-0.3-1.1-0.5c-0.9-0.7-1.6-1.5-2.6-2.1c-1-0.6-2.1-0.6-2.8,0.5c-1.1-1.3-2.1-2.6-3.2-3.9
		c-1.2-1.4-1.9-1.5-3.6-0.8c-2.5-2.7-2.6-3.1-2.4-5.5c2.5,1,5.1,1,7.6,0.4c0.3-0.1,0.7,0,0.9,0.2c1.6,1.4,3.5,1.2,5.4,1.1
		c0.4,0,1,0.1,1.3,0.4c2.3,2,4.9,2.5,7.8,2c0.4-0.1,1,0.1,1.3,0.3c2,2,4.4,2.5,7,1.5c0.7-0.3,1.1-0.3,1.7,0.3
		c1.7,1.7,3.8,2.1,6.2,1.7c0.4-0.1,0.9,0.1,1.2,0.3c2.1,1.9,4.4,2.9,7.2,2.4c0.4-0.1,1,0.1,1.4,0.4c2,1.6,4.3,2.2,6.9,1.7
		c0.4-0.1,0.9,0,1.1,0.2c1.4,1.1,2.9,1.6,4.6,1.8c0.5,0,1,0.2,1.3,0.6c2.3,2.4,5.2,3,8.3,2.8c0.7,0,1.1,0.1,1.6,0.6
		c1.5,1.7,3.4,2.4,5.7,2.2c0.7-0.1,1.2,0,1.7,0.7c1,1.4,2.3,2,4,2c0.3,0,0.8,0.1,1,0.3C240.8,366.7,242.7,367.1,244.9,366.7z"/>
	<path class="st3" d="M202.5,610.8c3.8-0.1,7.6-0.3,11.4-0.4c1.8-0.1,2.2,0.3,1.9,2c-1.1,6.9-1.7,13.9-1.8,20.9
		c0,0.9-0.4,1.2-1.1,1.5c-1.8,0.9-3.2,0.6-5-0.4c-5.8-3.2-11.7-6.2-17.6-9.3c-0.4-0.2-0.9-0.8-0.9-1.3c-0.2-4-0.6-8.1,0.1-12.1
		c0.2-1,0.5-1.3,1.6-1.3c3.8,0.1,7.7,0,11.5,0C202.5,610.6,202.5,610.7,202.5,610.8z"/>
	<path class="st3" d="M162.8,626.4c-0.1-1.1-0.2-2.9-0.3-4.7c0-0.5,0.3-1.2,0.7-1.5c3.1-2.6,6.3-5.1,9.4-7.6
		c0.5-0.4,0.9-0.5,1.4-0.1c3.4,2.5,6.9,4.9,10.3,7.4c0.3,0.2,0.6,0.8,0.6,1.3c-0.3,3.8-0.7,7.6-1.1,11.3c0,0.4-0.3,0.9-0.7,1.2
		c-3,2.3-6,4.5-9.1,6.7c-0.3,0.2-0.9,0.2-1.2,0c-3-2-6-4.1-9-6.2c-0.4-0.3-0.7-0.9-0.7-1.4C163.1,630.9,163,629,162.8,626.4z"/>
	<path class="st3" d="M167.3,702.3c-2.7,1.9-5.6,2-8.6,0.8c-1.9-0.8-2.5-2.2-1.9-4.2c0.5-1.6,1.1-3.2,1.6-4.9c0.1-0.4,0.1-1,0.1-1.5
		c-2.3,0.7-4.6,6-4.4,9.3c-2.7,0-5.5,0-8.2,0c-1.6,0-2.3-1-3-2.3c-0.6-1.2-0.4-2.2,0.6-3.1c1.5-1.3,3.1-2.5,4.6-3.7
		c-0.6-0.8-1.8-0.9-3.5-0.1c-3.7,1.6-5.2,4-4.7,7.3c-2,0-3.9,0.1-5.8,0c-0.8,0-1.3-0.6-0.9-1.4c0.8-1.6,1.6-3.2,2.5-4.7
		c0.2-0.4,0.6-0.7,0.9-1.1c-1-0.6-1.9-1.2-2.9-1.8c1.1-1,2.2-1.9,3.2-2.8c1.3-1.2,2.6-2.4,3.9-3.6c0.3-0.3,0.8-0.6,1.2-0.5
		c4.6,0.8,9.1,1.6,13.6,2.5c3.3,0.7,5.9,2.6,8.1,5.1c2,2.3,3,4.9,3.2,7.9C166.9,700.4,167.1,701.2,167.3,702.3z"/>
	<path class="st4" d="M178.9,89.9c0,4.9,0,10.3,0,15.8c0,2.7,0.1,5.5-0.2,8.1c-0.6,5.1-3.2,9.4-6.4,13.3c-3.7,4.4-8.2,8-13.1,11
		c-2.7,1.7-5.9,1.4-8.7,0.2c-2.2-1-4.2-2.6-6.2-3.9c0.1-0.1,0.1-0.2,0.2-0.3c1.7-0.2,3.5-0.4,5.2-0.7c3.6-0.7,6.3-3,8.9-5.3
		c6.9-6,11.8-13.4,15.3-21.8C176.1,100.8,177.7,95.1,178.9,89.9z"/>
	<path class="st1" d="M145.9,508.5c0.2,12.3,0.4,24.4,0.7,36.7c-1.2-0.2-2.4-0.4-3.6-0.5c-2.8-0.3-5.6-0.5-8.3-0.8
		c-0.9-0.1-1.7-0.2-2.6-0.5c-3.1-0.9-4.2-3.7-2-6.1c1.3-1.5,3-2.7,4.8-3.7c1.5-0.9,3.3-1.2,4.9-2c1.6-0.8,3.2-1.6,4.4-2.7
		c2.1-2,1.9-4.7-0.2-6.8c-1.5-1.5-3.4-2.3-5.4-2.9c-1.3-0.4-2.7-0.8-4-1.2c-0.6-0.2-1.2-0.4-1.8-0.8c-1.5-0.9-1.7-1.9-0.4-3
		c1-0.9,2.1-1.6,3.3-2.2C138.9,510.5,142.3,509.3,145.9,508.5z"/>
	<path class="st4" d="M131.8,119.9c6.5,0.6,12.4-0.2,18-2.8c1.6-0.7,2.9-2,4.2-3c0.8-0.6,1.6-1.3,2.4-1.9c3.6-2.8,6.5-6.2,8.7-10.1
		c0.2-0.4,0.5-0.8,0.7-1.1c0-0.1,0.1-0.1,0.3-0.2c-1.1,6-1.8,11.9-4.4,17.4c4.3-4.6,7.6-9.9,10.8-15.3c-0.1,0.3-0.2,0.7-0.4,1
		c-2.9,7.2-7.1,13.6-12.2,19.5c-2.3,2.6-5.1,3.7-8.3,4.1c-2.8,0.3-5.5,0-8.1-0.9C139.3,125.2,135.6,122.8,131.8,119.9z"/>
	<path class="st3" d="M188,684.2c0.5,2.3,1,4.7,1.5,7c0.1,0.3,0.2,0.6,0.3,0.9c1.1,2.4,1.4,4.8,1.2,7.4c-0.1,1-0.4,1.7-1.2,2.2
		c-2.1,1.5-4.5,2.2-7.1,2.3c-3.2,0.1-6.5,0.1-9.7,0c-2.8-0.1-3.9-2-2.8-4.6c1.8-4.3,2.9-5.1,7.6-4.9c2,0.1,4,0.4,6.1,0.6
		c0.8,0.1,1.7,0,2.5,0c0.2-1.3-0.4-2.2-1.5-2.6c-1.2-0.4-2.5-0.7-3.7-0.7c-2.4-0.1-4.8,0-7.1,0C175.4,688.7,183.7,684.1,188,684.2z"
		/>
	<path d="M124.4,103.3C124.5,103.2,124.5,103.2,124.4,103.3c-2.8,1-3.8,0.5-4.5-2.5c-0.9-3.6-0.8-7.3-0.5-11
		c0.5-5.3,1.8-10.3,4.3-15c1.9-3.5,4.6-6.4,7.7-8.9c2.1-1.6,4.6-2.3,7.4-3C128.9,74.7,123.6,87.8,124.4,103.3z"/>
	<path class="st3" d="M190,608.3c0.6-5.2,1.2-10.2,1.8-15.6c6.7,5,13.2,9.9,19.7,14.9c0,0.1-0.1,0.2-0.1,0.3
		C204.3,608.1,197.3,608.7,190,608.3z"/>
	<path class="st3" d="M207.3,636.8c-6.1,2.3-11.7,4.4-17.6,6.6c0-5.5,0-10.7,0-16.3C195.5,630.3,201.2,633.5,207.3,636.8z"/>
	<path class="st1" d="M195.5,519.8c-1-9-2-18-3.1-27.4c1.6,0,2.9,0,4.3,0c2.2,0,2.2-0.1,2.6,2.1c0.4,2.2,0.8,4.4,1.2,6.6
		c0.4,2.5,0.1,5-0.7,7.4c-1.2,3.6-2.5,7.2-3.7,10.8c-0.1,0.2-0.2,0.3-0.3,0.5C195.7,519.8,195.6,519.8,195.5,519.8z"/>
	<path class="st0" d="M181.9,370.6c0.5-0.4,0.8-0.8,1.1-0.9c1.1-0.2,1.5-0.9,1.4-1.8c-0.1-0.9-0.4-1.7-0.6-2.5
		c-0.1-0.4-0.2-0.8-0.1-1.2c0.5-1.8,0.5-1.8,2.5-2c4.1-0.5,7.2,1.3,10.1,3.8c0.6,0.5,0.4,3.1-0.3,3.6c-1.7,1.3-3.7,1.8-5.7,2
		C187.5,371.9,184.8,371.7,181.9,370.6z"/>
	<path class="st3" d="M234.7,103.7c-0.9,1-1.6,1.7-2.3,2.5c-0.5,0.6-1.2,1.2-0.6,2.1c0.5,0.8,1.3,0.8,2.2,0.6
		c1.5-0.4,3.1-0.7,4.8-1.1c-1.2,2.5-2.3,5-3.5,7.4c-0.2,0.3-0.6,0.5-1.1,0.8c-1-3.4-1.9-6.6-5.8-7.6c-3.6-0.9-6.5,0-8.8,3
		c-1.1-3.6,1.6-8,5.1-8.3c2.4-0.2,4.8-0.3,7.1-0.3C232.7,102.9,233.6,103.4,234.7,103.7z"/>
	<path class="st3" d="M273.3,452.7c-2.6-7.9-5.2-15.5-7.7-23.1c1.2-0.8,2.5-1.5,3.8-2.4c1.5,4.3,4.1,8.3,4.1,13.1
		c0,1.9,0.5,3.6,1.6,5.2c0.1,0.2,0.3,0.4,0.3,0.5C275.1,448.3,274.8,450.6,273.3,452.7z"/>
	<path class="st3" d="M280.7,444.9c-2.9,0.6-4.5-0.6-4.6-3.6c-0.2-4.2-1.4-8.1-3.1-11.8c-0.6-1.3-1.5-2.5-2.4-3.9
		c0.1-0.3,0.4-0.8,0.6-1.3c0.7-1.5,0.5-3-0.3-4.5c-0.6-1-1.1-2.1-1.6-3.1c2,1.8,4,3.6,6,5.3c0.2,0.2,0.3,0.5,0.3,0.7
		c0.5,6.1,2.5,11.9,4,17.8C279.9,442,280.3,443.4,280.7,444.9z"/>
	<path class="st5" d="M123.5,699.2c0.2,0.3,0.5,0.7,0.7,1c1.9,2.5,4.9,3.3,8.2,2.3c0.5-0.2,1.1-0.1,1.7-0.2c2.1-0.1,4.1-0.1,6.2-0.1
		c0.4,0,1,0.1,1.2,0.3c1.4,1.8,3.3,2,5.4,1.9c2.8-0.2,5.7-0.2,8.5-0.3c0.2,0,0.4,0.2,0.6,0.3c4,2.8,8.8,2.8,12.6-0.1
		c0.7,0.5,1.4,1.2,2.2,1.6c0.7,0.4,1.5,0.7,2.3,0.8c2.3,0.2,4.6,0.2,6.9,0.4c-2.1,0-4.1,0.1-6.2,0c-10.6-0.3-21.2-0.6-31.8-1.1
		c-5-0.2-9.9-1-14.8-2.4c-1.2-0.3-2.3-0.9-3.4-1.5C122.5,701.3,122.4,700.6,123.5,699.2z"/>
	<path class="st3" d="M187.1,601c-0.6,5.5-1.1,10.7-1.7,16.2c-3.4-2.3-6.5-4.6-9.8-6.9C179.4,607.2,183.1,604.2,187.1,601z"/>
	<path class="st5" d="M191.7,688.1c1.4-0.1,2.8-0.2,4.3-0.4c3.6-0.4,7.2-0.9,10.8-1.3c0.5-0.1,1-0.1,1.4,0.1c4.7,1.6,9.3,3.3,14,5
		c0.1,0,0.1,0.1,0.2,0.3c-2.4-0.1-4.7-0.3-7-0.4c-7.3-0.4-14.5-0.9-21.8-1.3C191.9,690,191.9,690.1,191.7,688.1z"/>
	<path class="st6" d="M194.5,115.3c-0.1,2-0.6,3.8-1.8,5.4c-1.3,1.8-3.1,2.1-4.9,0.9c-2.2-1.5-2.9-3.8-1.7-6.2
		c0.3-0.6,0.6-1.3,0.9-2c0.4-0.7,0.6-1.9,1.1-2.1c1.3-0.6,2.7-0.7,4.1-1c0.3,0,0.9,0.3,1,0.6c0.6,1.4,1.1,2.9,1.6,4.3
		C194.7,115.2,194.6,115.3,194.5,115.3z"/>
	<path class="st3" d="M160.5,602.4c3.6,2.7,7,5.3,10.6,8.1c-3,2.4-5.8,4.8-8.9,7.3C161.7,612.5,161.1,607.6,160.5,602.4z"/>
	<path class="st3" d="M246.7,678.9c2.6-0.9,5-1.4,7.1,0.8c1,1,2.3,1.8,3.4,2.8c2,1.8,1.8,3.6-0.7,4.6c-1.9,0.8-4,1.2-6.2,1.8
		C249.8,685.2,249.2,681.7,246.7,678.9z"/>
	<path class="st0" d="M245.2,291c2.1-10.9,4.1-21.3,6.1-31.8c0.1,0,0.2,0,0.3,0c-0.1,1.1-0.2,2.2-0.2,3.2
		c-0.4,8.3-0.9,16.6-1.2,24.9c0,1.1-0.4,1.8-1.4,2.1C247.7,289.9,246.6,290.4,245.2,291z"/>
	<path class="st7" d="M192.6,124c4.1-2.8,5.1-8.6,3.2-13c1.9-0.1,3.8,0.9,4.6,2.6c1,2,1.8,4.1,1.3,6.3c-0.2,0.9-0.8,1.9-1.6,2.6
		C198.4,124,194.9,124.6,192.6,124z"/>
	<path class="st6" d="M224.2,110.6c1.5,1.7,1.6,3.6,1.7,5.3c0,1.6-0.3,3.2-0.6,4.8c-0.1,0.5-0.2,1.1-0.6,1.4
		c-0.6,0.7-1.3,1.6-2.1,1.7c-1,0.1-1.4-1.1-1.7-2c-0.5-2.1-0.8-4.1-1.3-6.2c-0.2-0.8,0.1-1.5,0.7-2
		C221.7,112.6,222.9,111.6,224.2,110.6z"/>
	<path class="st5" d="M241.6,692.6c1.7-0.2,3.4-0.4,5.1-0.6c2.6-0.4,5.2-0.7,7.8-1.2c1.9-0.4,3.8-1.1,5.3-2.5
		c0.2-0.2,0.6-0.3,0.7-0.2c1.7,1.2,3.4,2.5,4.9,4c-7.9,1.9-15.8,1.3-23.7,1C241.6,692.9,241.6,692.8,241.6,692.6z"/>
	<path class="st3" d="M163.9,649c-0.1-4.1-0.3-7.8-0.4-11.9c2.7,1.9,5.2,3.7,7.8,5.6C168.8,644.8,166.5,646.8,163.9,649z"/>
	<path class="st3" d="M130.9,700.3c-1.9,0.6-3.6,0.1-4.6-1.4c-0.3-0.4-0.4-1.1-0.1-1.5c0.9-1.4,1.9-2.8,2.9-4.2
		c0.8-1.1,1.8-1.3,3.1-0.8c0.5,0.2,1,0.3,1.6,0.4C131.9,695.1,130.5,697.3,130.9,700.3z"/>
	<path class="st3" d="M176.1,642.7c2.4-1.8,4.8-3.5,7.3-5.3c-0.2,3.5-0.3,6.7-0.5,10.2C180.6,645.9,178.4,644.3,176.1,642.7z"/>
	<path class="st7" d="M226.9,111c3.3,1.1,4.8,5.2,3.4,8.5c-0.8,1.9-2.2,3.2-3.8,4.3c-0.8,0.5-1.5,1-2.4,1.4
		c-0.4,0.2-0.9,0.1-1.4,0.1c3.4-1,4.3-3.8,4.9-6.8C228.1,116,227.8,113.6,226.9,111z"/>
	<path class="st5" d="M192,703c0.1,2-0.3,2.9-1.8,3.1c-2.4,0.5-4.9,0.7-7.4,0.8C186.3,706.6,189.3,705.4,192,703z"/>
	<path class="st3" d="M238.5,99c-0.5,0.6-0.9,1.3-1.4,1.9c-0.1,0.2-0.3,0.3-0.5,0.6c-0.4-0.3-0.7-0.6-1.1-1c1-0.6,2-1.1,2.9-1.6
		C238.4,98.9,238.4,99,238.5,99z"/>
	<g>
		<path class="st8" d="M198.3,365.1c-0.3-0.2-0.6-0.4-1-0.6c-1.8-1.2-3.6-2.5-5.5-3.5c-2.5-1.2-5.1-0.7-7.7,0.1
			c-0.3-0.8-0.5-1.5-0.8-2.3C190.2,356.7,197,360.6,198.3,365.1z"/>
		<path class="st8" d="M168.7,360.6c-0.5-0.4-1.1-0.8-1.4-1.3c-1-1.6-2-3.2-2.9-4.8c-0.2-0.3-0.4-0.8-0.3-1.1
			c0.1-0.6,0.3-1.1,0.5-1.6c0.5,0.2,1.1,0.2,1.5,0.5c2,1.9,3.1,4.3,3.9,6.9C170.2,359.9,169.7,360.4,168.7,360.6z"/>
		<path class="st8" d="M196.6,371.7c-1.5,1.9-3.4,2.3-5.3,2.7c-4,0.7-7.9,0.6-11.7-1.2c0.7-1.1,1.6-1.4,2.7-0.9
			c4.4,2,8.7,1.8,13.1,0C195.7,372.1,196,372,196.6,371.7z"/>
		<path class="st8" d="M168.7,362.6c0.8-0.4,1.3-0.2,1.7,0.6c1.1,1.7,2.3,3.3,3.4,4.9c0.2,0.3,0.4,0.7,0.7,1.2
			C170.6,369.2,168,366.1,168.7,362.6z"/>
		<path class="st8" d="M182.7,367.9c-2.1-1.8-4.3-1.7-6.7-1.5c-0.6,0.1-1.2-0.6-2-1.1C178.3,363,182.5,364.3,182.7,367.9z"/>
		<path class="st8" d="M170.4,355.1c2.1,1.2,3.9,2.6,4.5,5.1c0.1,0.4,0.2,0.9,0.1,1.3c-0.2,0.6-0.6,1-0.9,1.5
			c-0.4-0.4-1-0.7-1.2-1.1C172,359.7,171.2,357.4,170.4,355.1z"/>
		<path class="st8" d="M179,401.6c1.9,0.1,3.8,2.3,4,4.6c0.1,1.4-0.2,1.8-1.5,2.2C179.8,406.5,179.6,404,179,401.6z"/>
		<path class="st8" d="M162.5,354.5c-2,0.3-2.3,0.1-2.8-1.8c-0.3-1-1-1.9-1.4-2.8c-0.3-0.6-0.6-1.2-0.8-1.8
			c-0.1-0.2,0.1-0.6,0.2-0.7c0.2-0.1,0.5,0,0.8,0.1C159.7,348.3,162.4,353,162.5,354.5z"/>
		<path class="st8" d="M155.3,355.2c1.1-0.2,2-0.3,2.9-0.5c1.4,1.9,3.4,1.9,5.6,1.4c0.1,0.4,0.3,0.8,0.4,1.2
			C160.9,358,157.8,358.3,155.3,355.2z"/>
		<path class="st8" d="M179.6,399.7c-1.9-2.2-1.3-4.8-1.4-7.4C180.4,393.2,181.3,397.5,179.6,399.7z"/>
		<path class="st8" d="M176.1,367.6c1.7,0.4,3.3,0.7,5,1.1c-1.1,2.2-2.5,2.9-4,2.2c-0.5-0.3-0.9-0.5-0.7-1.3
			C176.6,369.1,176.3,368.5,176.1,367.6z"/>
		<path class="st8" d="M176.8,407.6c2.4,2,4.7,4,7,5.9c-1,0.3-4.2-1-5.9-2.6C177,410,176.4,409,176.8,407.6z"/>
		<path class="st8" d="M175,389.6c-0.4-3.5,0.7-6.4,1.8-9.4c0.8,1,0.9,1.9,0.5,3c-0.5,1.2-0.7,2.6-1,3.9
			C176.1,387.9,176.1,388.9,175,389.6z"/>
		<path class="st8" d="M177,374.6c-0.8,2-1.6,4-2.3,6c-1-1.1-0.9-4.7,0-5.5c0.6-0.5,1.4-0.6,2.2-0.8
			C176.9,374.4,176.9,374.5,177,374.6z"/>
		<path class="st8" d="M176.7,390.9c-0.4,2.7-0.8,5.3-1.2,7.9c-0.1,0-0.2,0-0.3-0.1C173.9,395.7,174.6,391.6,176.7,390.9z"/>
		<path class="st8" d="M177.7,399c0.2,2.2,0.3,4.5,0.5,6.7c-2.3-0.2-2.7-3.6-0.9-6.7C177.5,399,177.6,399,177.7,399z"/>
		<path class="st8" d="M179.2,390.1c-1.6-2-1.6-4-0.4-6.2C180,386,180.3,388,179.2,390.1z"/>
		<path class="st8" d="M164.1,362.5c1,0.1,2,0.1,3.1,0.2c0.1,1.2,0.2,2.4,0.3,3.6C165.4,365,164.1,363.6,164.1,362.5z"/>
		<path class="st8" d="M154.6,353.4c-0.1-0.7-0.1-1.2-0.1-1.8c0.9-0.1,1.8-0.2,2.9-0.3c0.2,0.6,0.5,1.4,0.8,2.3
			C156.9,353.5,155.8,353.5,154.6,353.4z"/>
		<path class="st8" d="M178.5,375.8c1.4,1.6,1.6,3,0.9,4.8C177.4,378.6,177.4,378.3,178.5,375.8z"/>
		<path class="st8" d="M181.5,363.3c-0.6-1.4-1.2-2.8-1.9-4.2C181.6,358.6,182.6,360.3,181.5,363.3z"/>
		<path class="st8" d="M177,358.6c0.7,1.1,1.5,2.3,2.3,3.6c-1,0-1.6,0-2.2,0c-0.1-1.2-0.3-2.3-0.4-3.5
			C176.8,358.7,176.9,358.6,177,358.6z"/>
		<path class="st8" d="M161.9,359.6c0.5-0.1,1-0.2,1.4-0.4c0.4-0.2,0.8-0.4,1.3-0.6c0.3,0.7,0.7,1.3,1.2,2.3c-1.5-0.4-2.7-0.7-4-1
			C161.9,359.8,161.9,359.7,161.9,359.6z"/>
		<path class="st8" d="M156.4,349.7c-0.9,0-1.3,0-1.9,0c-0.1-1-0.1-2-0.2-3c0.1,0,0.2-0.1,0.4-0.1
			C155.2,347.5,155.7,348.5,156.4,349.7z"/>
		<path class="st8" d="M179.1,414c1.7,0.6,3.6,1.2,5.2,1.7C183,416.6,180.2,415.8,179.1,414z"/>
		<path class="st8" d="M176.1,372.9c-1-0.7-2.1-1.3-3.3-2.1c2-0.7,2.7,0.7,3.5,1.8C176.2,372.7,176.1,372.8,176.1,372.9z"/>
		<g>
			<path class="st8" d="M209.7,371.6c-1.8,1.3-3.8,1-5.9-0.9c1.5-0.9,1.4-2.4,1.4-4C206.7,368.4,208.2,370,209.7,371.6z"/>
			<path class="st8" d="M197.6,366.8c1.6-0.1,3-0.3,4.5-0.2c0.4,0,0.8,0.9,1.3,1.3c-0.4,0.3-0.7,0.7-1.1,1c-0.3,0.2-0.7,0.2-1,0.3
				C199,369.8,198.5,369.4,197.6,366.8z"/>
			<path class="st8" d="M224.5,374.2c-0.8-0.7-1.5-1.2-2.3-1.8c-0.6-0.4-1.2-0.8-1.8-1.2c-0.4-0.3-0.7-0.8-0.9-1.3
				c1.8-0.3,3.5-0.3,4.8,0.9C225.3,371.7,225.2,372.8,224.5,374.2z"/>
			<path class="st8" d="M219.8,372.2c0.9,1,1.8,2.1,2.7,3.1c-1.9,1.6-3.8,0.1-5.8-0.7c0.6-1.3,2.9-0.4,2.8-2.4
				C219.6,372.1,219.7,372.1,219.8,372.2z"/>
			<path class="st8" d="M216,372.7c-1.5,1.3-3.2,1.4-5.6,0.7c0.5-0.6,0.9-1.3,1.4-1.8c0.6-0.5,1.4-0.7,2.1-1.1
				C214.5,371.1,215.3,371.9,216,372.7z"/>
			<path class="st8" d="M213.1,368.2c1.6-0.6,2.9-0.8,3.9,0c1.2,0.9,1.1,2.2,0.9,3.8C216.3,370.7,214.9,369.5,213.1,368.2z"/>
			<path class="st8" d="M231,373.7c-2.7,0.3-4.5-0.9-4.5-2.7C229.1,370.6,230.9,371.6,231,373.7z"/>
			<path class="st8" d="M233.3,374c0.5,0.3,1.1,0.6,1.8,1c-1.6,1.8-3.4,2.7-5.9,2.5c0.7-0.9,1.1-1.8,2.3-2.1
				C232.2,375.4,232.6,374.6,233.3,374z"/>
			<path class="st8" d="M236.8,373.6c-1.5-0.3-2.7-0.6-3.9-0.9c-0.2-0.5-0.4-1-0.6-1.6c1.2-0.6,2.5-1,3.5-0.2
				C236.4,371.5,236.4,372.6,236.8,373.6z"/>
			<path class="st8" d="M204.7,365.6c2.3-1.4,6.2,0.5,7,3.9c-0.8-0.4-1.3-0.6-1.8-0.9c-0.8-0.6-1.3-1.5-2.2-2
				C206.8,366.1,205.7,365.9,204.7,365.6z"/>
			<path class="st8" d="M226.4,374.3c0.7,0.3,1.4,0.7,2.2,1.1c-1.3,1.7-3,2.2-5.4,1.6c0.5-0.5,1-1,1.5-1.4
				C225.3,375.2,225.8,374.8,226.4,374.3z"/>
			<path class="st8" d="M238.4,372.7c-0.1-0.4-0.1-0.8-0.3-1.5c1,0.1,2,0.1,2.8,0.4c0.3,0.1,0.5,0.8,0.7,1.2
				c-0.4,0.1-0.8,0.4-1.2,0.4C239.9,373.2,239.2,372.9,238.4,372.7z"/>
			<path class="st8" d="M238.4,374.4c0.4,0.2,0.9,0.4,1.4,0.6c-0.9,1.5-2.3,1.8-3.7,2c-0.1-0.1-0.1-0.2-0.2-0.3
				C236.7,375.9,237.5,375.2,238.4,374.4z"/>
			<path class="st8" d="M241.5,375.8c0.7-0.9,1.3-1.7,2-2.5c0.2-0.2,0.7-0.1,1-0.1C244.6,375,243.7,375.7,241.5,375.8z"/>
			<path class="st8" d="M245.4,369.6c-0.2,1.3-0.4,1.4-2,2c-0.3-0.4-0.5-0.7-1-1.3C243.5,370,244.4,369.8,245.4,369.6z"/>
			<path class="st8" d="M246.1,373.2c-0.1-1-0.1-1.9,0.9-2.2c0.1,0,0.7,0.8,0.7,1.2C247.8,373.2,247.1,373.4,246.1,373.2z"/>
			<g>
				<path class="st8" d="M202.5,345.1c1.1,0.9,2.1,1.7,3.1,2.5c-3.2,3.1-6.7,3-10.4,0.4c0.5-0.6,1-1.3,1.5-2
					c0.4,0.3,0.8,0.8,1.3,1.1c0.6,0.4,1.2,0.7,1.8,0.9C201.6,348.4,202.3,347.7,202.5,345.1z"/>
				<path class="st8" d="M178.9,344.2c0.7-0.6,1.4-1.1,2.1-1.6c2.7,1.2,3.6,0.9,5.5-1.5c0.5,0.7,0.9,1.3,1.3,2
					C185.9,345.9,181.5,347,178.9,344.2z"/>
				<path class="st8" d="M156.5,331.2c2.5,0.6,4,2,5.3,3.8c0.1,0.1,0,0.5-0.1,0.6c-0.1,0.2-0.3,0.3-0.4,0.4
					c-1.9,1.5-1.4,1.3-2.7-0.2c-0.6-0.7-1.3-1.3-1.8-2.1c-0.3-0.5-0.7-1-0.8-1.6C156,331.9,156.4,331.5,156.5,331.2z"/>
				<path class="st8" d="M175.8,340.9c-1.6-1.4-3.1-2.7-4.5-4.1c-0.3-0.3-0.6-1.1-0.4-1.3c0.3-0.4,1-0.6,1.5-0.6
					C175.1,335.1,176.8,337.8,175.8,340.9z"/>
				<path class="st8" d="M211.2,348.6c0.5,0.5,1,1,1.5,1.5c-2.7,2.6-5.2,2.8-8.6,0.8c0.9-0.7,1.8-1.3,2.6-2c0.8,0.5,1.6,1.4,2.4,1.4
					c0.7,0,1.5-0.9,2.2-1.3C211.3,348.8,211.3,348.7,211.2,348.6z"/>
				<path class="st8" d="M169.1,336.1c0,1.7-0.9,2.3-2.1,1.5c-1.2-0.9-2.3-1.9-3.4-3c-0.2-0.3-0.1-1,0-1.4c0.1-0.2,0.7-0.3,1-0.2
					c1.3,0.7,2.7,1.4,3.9,2.3C168.9,335.3,169,335.9,169.1,336.1z"/>
				<path class="st8" d="M184.4,340.4c0,0.7-1.2,1.5-1.8,1.1c-1.5-1.1-2.8-2.4-4.2-3.7c-0.1-0.1,0.5-1.2,0.8-1.2
					c1.4-0.2,4.7,2.2,5.1,3.5C184.4,340.2,184.4,340.3,184.4,340.4z"/>
				<path class="st8" d="M194,341c3.9-0.7,6.9,1.6,6.7,4.8C199.7,345.8,194.4,342,194,341z"/>
				<path class="st8" d="M172.7,340.5c0.7,0.5,1.5,1.1,2.2,1.6c1.2,0.8,2,0.5,2.5-0.8c0.3-0.6,0.4-1.3,0.6-2.1
					c0.6,0.7,1.1,1.4,1.6,2c-2.3,2.7-6.4,3-9.5,0.8C171,341.5,171.8,341.1,172.7,340.5z"/>
				<path class="st8" d="M186.6,339.3c2.3-0.8,5.3,0.7,5.9,2.9c0.1,0.5-0.3,1.1-0.4,1.7c-0.5-0.1-1.2-0.1-1.6-0.5
					C189.1,342.1,187.9,340.7,186.6,339.3z"/>
				<path class="st8" d="M218.6,347.9c0.6,0.1,0.9,0.1,1.2,0.2c1.8,0.8,3.4,1.9,4.6,3.5c0.2,0.3,0.4,0.8,0.4,1.2
					c0,0.3-0.3,0.8-0.5,0.9c-0.3,0.1-0.8,0-1-0.3c-1.3-1.2-2.7-2.5-3.9-3.8C219,349.3,218.9,348.7,218.6,347.9z"/>
				<path class="st8" d="M228,356.4c-3.4,1.4-6.5,0.8-9.6-0.9c1-0.4,1.8-0.8,2.6-1.2c1.9,2.3,3.8,2,5.4,0.3
					C226.9,355.1,227.4,355.7,228,356.4z"/>
				<path class="st8" d="M187.3,345.8c0.5-0.4,0.9-0.8,1.2-1c1.2,0.4,2.2,1,3.3,1c1.3,0.1,2.1-0.9,2.5-2.1c0.5,0.5,0.9,1,1.4,1.4
					C193.3,347.7,190.2,347.9,187.3,345.8z"/>
				<path class="st8" d="M209.4,348.3c-2.3-1.5-4.6-3-6.9-4.5c0.8-0.6,3.9,0,5.6,1.2C209.7,346.2,209.9,347,209.4,348.3z"/>
				<path class="st8" d="M220.1,352.7c-2.8,1.6-5.3,1.4-8,0c0.6-0.6,1.1-1.1,1.4-1.3c1.3,0.4,2.4,0.9,3.6,1c0.5,0.1,1.1-0.5,1.8-0.9
					C219.1,351.7,219.5,352.2,220.1,352.7z"/>
				<path class="st8" d="M211.2,347.4c0.1-0.8,0.7-1.3,1.5-1c1.4,0.6,2.7,1.3,4.1,2.1c0.3,0.2,0.4,0.7,0.5,1.1
					c0,0.3-0.1,0.7-0.4,0.9c-0.1,0.1-0.6,0-0.9-0.2c-0.7-0.5-1.3-1.1-2-1.5C213.1,348.2,212.1,347.8,211.2,347.4z"/>
				<path class="st8" d="M233.3,356.7c0.7,0.7,1.4,1.3,2.1,2c-2.5,1.7-4.9,1.2-7.3-0.2c0.7-0.7,1.3-1,2.3-0.6
					C231.9,358.5,232.6,358.2,233.3,356.7z"/>
				<path class="st8" d="M163.6,336.3c0.4,0.4,0.6,0.8,1,1.3c-2.7,2.1-5.7,2.4-9,1.7c0.8-0.7,1.5-1.3,2.2-1.8
					C159.9,339.3,160.3,339.3,163.6,336.3z"/>
				<path class="st8" d="M165.6,338.8c2.3,1.1,3.6,1,5-0.6c0.3,0.4,0.6,0.7,0.9,1.1c-1.9,1.6-6,2.3-7.8,1.3
					C164.3,340,165,339.4,165.6,338.8z"/>
				<path class="st8" d="M231,356.2c-1.2-0.9-2.5-1.8-3.6-2.8c-0.3-0.3-0.4-0.8-0.6-1.2c0.5-0.2,1.2-0.7,1.5-0.6
					c0.7,0.3,1.5,0.9,1.9,1.6c0.5,0.8,0.8,1.8,1.2,2.7C231.3,356,231.1,356.1,231,356.2z"/>
				<path class="st8" d="M235.2,361.2c0.6-0.5,1.2-0.9,1.8-1.3c0.9,0.5,1.7,1.5,2.8,0.5c0.9,1.8,0.6,2.3-1.3,2.3
					C237.2,362.8,236.1,362.2,235.2,361.2z"/>
				<path class="st8" d="M243.3,363.5c-0.9-1.4-1.8-2.7-2.5-4c-0.2-0.3,0.3-1,0.4-1.6C243.1,359.2,244,361.6,243.3,363.5z"/>
				<path class="st8" d="M233.9,354.7c1.4,0.4,2.8,0.8,4.1,1.3c1.1,0.5,0.6,1.5,0.5,2.5c-1.7-1.3-3.2-2.4-4.8-3.6
					C233.9,354.9,233.9,354.8,233.9,354.7z"/>
				<path class="st8" d="M245.8,363.4c-1-0.8-1.6-1.8-1.8-2.9c0-0.3,0.2-0.8,0.4-0.9c0.2-0.1,0.7,0,1,0.2
					C246.2,360.4,246.4,361.9,245.8,363.4z"/>
				<path class="st8" d="M155.5,333.9c0.5,0.8,0.9,1.4,1.4,2.1c-1,0.4-1.9,0.7-2.8,1.1c-0.1-0.1-0.2-0.2-0.4-0.3
					C154.3,335.9,154.9,335,155.5,333.9z"/>
				<path class="st8" d="M240.5,364.1c0.3-0.2,0.5-0.4,0.8-0.7c1,1.3,2,2.5,3.9,1.1C243.8,365.9,241.9,365.6,240.5,364.1z"/>
			</g>
		</g>
	</g>
	<path d="M118.6,474c-0.4,4.6-0.8,9.2-1.3,13.7c-0.6,5.3-1.2,10.6-1.8,15.9c-0.7,5.5-1.4,11.1-2,16.6c-0.7,6.9-1.1,13.9-1.6,20.8
		c-0.1,2-0.2,4-0.3,6c0,0.2-0.1,0.4-0.1,0.6c-0.1,0-0.2,0-0.4,0c-0.2-2-0.5-3.9-0.6-5.9c-0.4-9,0.3-18,1.6-26.9
		c1.4-9.7,2.9-19.3,4.4-29C117.1,482,117.9,478,118.6,474C118.6,474,118.6,474,118.6,474z"/>
	<path d="M113.6,455.2c-2.3,14-6.4,33.1-8.2,38.8C105.4,489.9,111.6,460.3,113.6,455.2z"/>
	<path d="M183.4,525.6c-0.5,2.1-0.9,4.4-1.7,6.4c-1,2.7-3.1,4.3-6,4.7c-0.8,0.1-1.6,0.3-2.5,0.5c-1.5,0.4-3,0.3-4.3-0.4
		c-4.7-2.3-7.5-6.2-9.5-10.7c0.1-0.1,0.1-0.1,0.2-0.2c0.8,1,1.6,2,2.5,2.9c1.9,1.9,3.9,3.7,6,5.5c0.8,0.7,1.9,1.1,2.9,1.5
		c3.5,1.4,6.9,0.2,8.8-3c0.7-1.2,1.2-2.4,1.8-3.7c0.5-1.2,1-2.4,1.5-3.7C183.2,525.5,183.3,525.5,183.4,525.6z"/>
	<path d="M166.3,504.8c1.3-1.3,3-1.5,4.7-1.1c3,0.6,5.8,1.6,8.4,3.3c3,1.9,4.8,5.4,4.5,9c-0.4-0.9-0.7-1.5-1-2.2
		c-1.2-2.7-3.1-4.6-5.9-5.6c-1.8-0.6-3.5-1.3-5.3-1.8C169.9,505.7,168.1,505.3,166.3,504.8z"/>
	<path d="M223.7,521.2c0,3.9,0,7.6,0,11.4c-0.1,0.1-0.2,0.1-0.3,0.2c-0.3-0.6-0.8-1.1-1-1.7C221.3,528.2,221.9,524,223.7,521.2z"/>
	<path class="st9" d="M220.8,155.8c0-2.6-1.8-3.7-7.8-3.7c-5.9,0-7.9,2.6-12.5,3.7c-2.5,0.6,4.2,5.8,10.1,5.8
		C216.6,161.5,220.8,158.4,220.8,155.8z"/>
	<path d="M255.2,507.4c0.5,0.9,1,1.8,1.4,2.7c2.4,5.8,3.8,11.8,4.6,18c0.5,3.8,0.8,7.7,0.9,11.6c0.1,4-0.7,7.8-1.6,11.6
		c0-14.8-1.3-29.5-5.7-43.8C254.9,507.5,255.1,507.5,255.2,507.4z"/>
	<path d="M213.2,156.6c-2.5,0.4-5.1,0.8-7.6,1.1c-3.5,0.4-6.6-0.2-8.9-3.2c-0.4-0.5-0.7-1-0.8-1.6c-0.1-0.4-0.1-1,0.2-1.3
		c0.3-0.3,0.9-0.4,1.3-0.3c0.5,0.1,1.1,0.4,1.4,0.8c2.4,2.7,5.4,3,8.5,2.1c2.8-0.8,5.7-0.8,8.5-0.4c1.9,0.2,3.6,0,4.8-1.6
		c0.4-0.6,1.1-1,1.8-0.4c0.7,0.6,0.6,1.3,0.1,2c-1.1,1.8-2.6,3-4.8,3C216.2,156.8,214.7,156.6,213.2,156.6
		C213.2,156.5,213.3,156.7,213.2,156.6z"/>
	<path d="M180.6,129.9c0.4-0.5,0.7-1.3,1.3-1.6c0.8-0.5,1.6,0,2.1,0.7c0.9,1.2,1.2,2.6,0.5,4c-0.2,0.5-0.9,1-1.4,1
		c-0.4,0-1.2-0.4-1.4-0.9C181.2,132.2,181,131.2,180.6,129.9z"/>
</g>
</svg>
