<?xml version="1.0" encoding="utf-8"?>
<!-- Generator: Adobe Illustrator 22.1.0, SVG Export Plug-In . SVG Version: 6.00 Build 0)  -->
<svg version="1.1" xmlns="http://www.w3.org/2000/svg" xmlns:xlink="http://www.w3.org/1999/xlink" x="0px" y="0px"
	 viewBox="0 0 690 500" style="enable-background:new 0 0 690 500;" xml:space="preserve">
<style type="text/css">
	.st0{clip-path:url(#SVGID_2_);}
	.st1{clip-path:url(#SVGID_4_);}
	.st2{clip-path:url(#SVGID_4_);fill:#002951;}
	.st3{clip-path:url(#SVGID_4_);fill:#F3E501;}
	.st4{clip-path:url(#SVGID_4_);fill:#A86530;}
	.st5{clip-path:url(#SVGID_4_);fill:#390000;}
	.st6{clip-path:url(#SVGID_4_);fill:#05B149;}
	.st7{clip-path:url(#SVGID_4_);fill:#006F0F;}
	.st8{clip-path:url(#SVGID_4_);fill:#002100;}
	.st9{clip-path:url(#SVGID_4_);fill:#FFFFFF;}
	.st10{clip-path:url(#SVGID_6_);}
	.st11{clip-path:url(#SVGID_8_);}
	.st12{clip-path:url(#SVGID_8_);fill:#458EFF;}
	.st13{clip-path:url(#SVGID_8_);fill:#00025D;}
	.st14{clip-path:url(#SVGID_8_);fill:#211915;}
	.st15{clip-path:url(#SVGID_8_);fill:#C9875F;}
	.st16{clip-path:url(#SVGID_8_);fill:#FFFFFF;}
	.st17{clip-path:url(#SVGID_8_);fill:#E41C00;}
	.st18{clip-path:url(#SVGID_8_);fill:#0F7115;}
	.st19{clip-path:url(#SVGID_10_);}
	.st20{clip-path:url(#SVGID_12_);fill:#D6B78B;}
	
		.st21{clip-path:url(#SVGID_12_);fill:none;stroke:#000000;stroke-width:3.0885;stroke-linecap:round;stroke-linejoin:round;stroke-miterlimit:10;}
	.st22{clip-path:url(#SVGID_12_);fill:#60D65C;}
	.st23{clip-path:url(#SVGID_12_);fill:#C97979;}
	.st24{clip-path:url(#SVGID_12_);fill:#4B75BF;}
</style>
<g id="Слой_2">
</g>
<g id="A1">
	<g>
		<g>
			<defs>
				<rect id="SVGID_1_" x="-40" y="58.1" width="300.3" height="417.8"/>
			</defs>
			<clipPath id="SVGID_2_">
				<use xlink:href="#SVGID_1_"  style="overflow:visible;"/>
			</clipPath>
			<g class="st0">
				<defs>
					<rect id="SVGID_3_" x="-40" y="58.1" width="300.3" height="417.8"/>
				</defs>
				<clipPath id="SVGID_4_">
					<use xlink:href="#SVGID_3_"  style="overflow:visible;"/>
				</clipPath>
				<path class="st1" d="M73.8,267c-0.8-0.1-1.5-0.3-2.3-0.4c-0.5-0.1-0.9-0.2-1.4-0.4c-0.9-0.4-1.2-0.9-1-1.9
					c0.4-1.9,0.7-3.8,1.1-5.6c0.1-0.6,0.2-1.2,0.2-1.8c0-0.4-0.1-0.8-0.2-1.1c-0.4-0.9-0.9-1.7-1.4-2.6c-0.3-0.5-0.3-1,0-1.6
					c4.8-9,8-18.6,10.2-28.6c0-0.2,0.1-0.4,0.1-0.7c-1.3,0.1-2.5,0.1-3.6,0.2c-3.3,0.2-6.7,0.5-10,0.7c-1.2,0.1-2.4,0-3.6-0.1
					c-1.9-0.1-3.1-1.2-3.9-2.8c-1.6-3.4-2.1-6.9-1.2-10.6c1.3-5,2.5-10,3.8-15.1c0.1-0.2,0.1-0.4,0.2-0.6c0.2-0.7,0.5-1.4-0.3-2
					c-0.3-0.3-0.3-1-0.4-1.6c-1-0.3-2.1-0.7-2.7-1.8c-0.6-1.1-0.8-2.2,0.1-3.2c-1.4-1.3-1.3-3.1,0.2-4.3c0.7-0.6,1.6-0.8,2.5-0.9
					c0.4,0,0.8-0.1,1.2-0.1c-0.1-0.5-0.2-0.9-0.2-1.3c-0.1-0.8,0.1-1.4,0.8-1.8c0.5-0.3,1-0.5,1.5-0.7c0.4-0.1,0.5-0.3,0.6-0.7
					c0.4-1.7,0.8-3.5,1.2-5.2c0.2-0.9,0.3-1.8,1.1-2.5c0.1-0.1,0.1-0.3,0.2-0.4c1.5-4,2.5-8.1,3-12.4c0.2-1.8,0.5-3.7,0.7-5.5
					c0.1-0.5,0.2-0.9,0.4-1.4c0.3-0.9,0.8-1.6,1.9-1.8c4.5-0.8,8.9-1.6,13.3-2.5c0.1,0,0.3-0.1,0.5-0.1c-0.4-0.7-0.8-1.3-1.2-1.9
					c-0.7-1.1-0.6-1.9,0.7-2.3c2-0.7,4-1.3,6-1.8c2.1-0.5,4.3-0.9,6.4-1.3c0.4-0.1,0.5-0.2,0.5-0.6c-0.2-1.5-0.2-1.5-1.7-1.8
					c-1.6-0.2-2.9-0.8-3.8-2.2c-2-3-4-5.9-6-8.9c-1.4-2-2-4.3-2.5-6.7c-0.6-2.8-1.5-5.5-2.7-8.1c-1.3-3-2.2-6.2-3.2-9.4
					c-0.5-1.4-0.8-2.9-1.2-4.3c-0.5-1.6-1.2-3.3-1.8-4.9c-0.2-0.5-0.3-1.1-0.5-1.6c-0.5-1.8-0.2-3.5,0.7-5.1
					c2.2-3.6,5.1-6.3,8.7-8.3c6.3-3.6,13-4.8,20.1-3.9c3,0.4,6.1,0.8,9.1,1.5c8,2,13,8.8,12.7,17c0,0.9,0.1,1.6,0.8,2.3
					c1.2,1.4,1.5,3.2,1.7,5.1c0.1,1,0.1,2.1,0,3.1c0,1.7,0,3.4-0.2,5.1c-0.1,1.7-0.9,3.2-2.5,4.1c-0.1,0.1-0.3,0.3-0.3,0.4
					c0.1,2-0.8,3.6-1.8,5.2c-0.2,0.3-0.4,0.6-0.4,0.9c-0.2,3.3-1.4,6.2-3.6,8.7c-0.3,0.4-0.5,0.8-0.5,1.3c0.1,1.5,0.1,2.9,0.2,4.4
					c0,0.3,0.1,0.5,0.2,0.8c0.5-0.2,0.9-0.4,1.4-0.6c0.8-0.3,1.2-0.1,1.4,0.8c0.2,0.9,0.3,1.8,0.6,2.7c0.4,1.4,1,2.7,1.5,4.1
					c0.4,1,1.2,1.5,2.2,1.6c0.9,0.1,1.8,0.2,2.7,0.2c5.1,0.1,10.3,0,15.4,0.1c1.9,0,3.8,0.3,5.7,0.5c0.4,0,0.7,0.1,1.1,0.3
					c0.3,0.2,0.6,0.5,0.8,0.8c0.4,0.8,0.8,1.7,1.2,2.5c0.6,1.3,1.1,2.6,1.7,3.9c0.4,0.7,0.8,1.4,1.3,2.1c0.6,0.8,0.9,1.6,0.8,2.6
					c-0.3,2.8-0.5,5.5-0.9,8.3c-0.7,5-1.5,10.1-2.4,15.1c-1.1,6.5-1.3,13-1.3,19.5c0,4,0.2,8,0.3,12c0.1,3.2,0.2,6.5-0.3,9.7
					c-0.5,3-1.6,5.7-3.4,8.1c-1.7,2.3-3.7,4.4-6.2,5.8c-0.4,0.2-0.7,0.4-1.1,0.5c-0.6,0.1-0.7,0.4-0.7,1c0,2.5-0.1,5.1,0.4,7.6
					c0.3,1.4,0.8,2.8,1.1,4.2c0.7,4.3,0.7,8.7,0.6,13.1c0,0.8-0.2,1.5-1,1.8c-0.1,0.1-0.2,0.4-0.2,0.6c0.2,1.8,0.6,3.6,0.7,5.4
					c0.1,1.7-0.1,1.9-1.8,2.2c-0.1,0-0.2,0-0.4,0.1c0.1,0.9,0.2,1.7,0.4,2.6c1.4,8.3,2.9,16.7,4.3,25c1.9,10.9,3.7,21.8,5.6,32.7
					c1.1,6.1,0.9,12.2,0.5,18.3c-0.6,9.5-1.3,19-1.5,28.5c-0.3,13.6,1.5,27,5.8,40.1c1.1,3.2,2.2,6.4,3.3,9.7
					c0.3,0.8,0.5,1.6,0.5,2.4c0.2,3.9,0.3,7.7,0.5,11.6c0,0.8-0.1,1.5-1,1.9c0.3,0.2,0.5,0.3,0.7,0.4c4.2,2.3,7.8,5.3,10.8,9
					c1,1.3,1.8,2.7,2.4,4.3c1,3.1,0,6.9-4,8.4c-2.7,1-5.4,1.3-8.3,1.5c-7.1,0.4-14.1-0.7-20.7-3.5c-4.3-1.9-8-4.5-10.9-8.2
					c-1.2-1.6-2.1-3.3-2.6-5.2c-0.1-0.4-0.3-0.6-0.7-0.6c-1.4,0-1.7-0.3-1.7-1.7c0-3.4-0.9-6.6-1.2-9.9c-0.6-7-1.3-13.9-1.9-20.9
					c-0.9-10.6-1.7-21.1-3.1-31.6c-0.4-2.8-0.9-5.7-1.3-8.5c-0.6-4.2-0.6-8.5-0.5-12.7c0.1-2.4,0.2-4.7,0.3-7.1c0-1,0.4-1.9,1.1-2.6
					c0.5-0.5,1-1.1,1.4-1.6c0.5-0.5,0.5-1.1,0.2-1.8c-0.3-0.8-0.7-1.5-1-2.3c-0.5-1.3-0.6-2.7,0.1-4c0.2-0.4,0.3-0.8,0.5-1.2
					c0.9-2.2,1-4.4,0.3-6.8c-2.7-9.7-5.2-19.4-7.8-29.1c-1-3.6-1.9-7.3-2.9-10.9c0-0.2-0.1-0.3-0.3-0.5c0,0.5-0.1,1.1-0.1,1.6
					c-0.7,7.3-2,14.6-3.3,21.9c-1.2,6.7-2.3,13.3-3.5,20c-0.2,0.9-0.2,1.9-0.2,2.9c0,0.5,0.2,1,0.5,1.4c1.8,2,1.8,3.3,0.2,5.5
					c-0.3,0.4-0.6,0.8-1,1.3c0.3,0.2,0.6,0.4,0.9,0.5c1.4,0.7,2.1,1.8,2.2,3.4c0.5,4,0.6,7.9,0.5,11.9c-0.3,10.9-0.6,21.7-0.7,32.6
					c-0.1,9.7,0.2,19.4,1,29c0.2,2.1,0.8,4.2,1,6.3c0.3,3,0.5,6,0.7,9c0.1,1.6,0.3,3.1,0.4,4.7c0.1,1.3-0.2,1.9-1.5,2.2
					c-0.7,0.2-1.4,0.1-2.1,0.1c-0.2,0-0.4-0.1-0.6-0.1c-0.5-0.1-0.7,0.1-0.8,0.6c-0.9,3.2-2.4,6-5.1,8.2c-0.2,0.2-0.5,0.4-0.8,0.5
					c-5.7,3.4-11.6,5.9-18.2,6.7c-6.9,0.9-13.8,0.9-20.7-0.5c-2.9-0.6-5.7-1.5-8.1-3.4c-2.1-1.6-3.3-3.7-3.3-6.4
					c0-1.8,0.7-3.1,2.4-3.8c2.2-0.9,4.4-1.8,6.6-2.8c4.8-2,9.1-4.6,13.1-8c1.2-1,2.6-2,3.9-2.9c0.4-0.3,0.5-0.5,0.5-1
					c-0.1-0.7,0.1-1.4,0.2-2.1c1.1-4.7,0.9-9.5,1-14.2c0.2-7.6,0.5-15.3,0.3-22.9c-0.1-6.2-0.7-12.3-1.3-18.5
					c-0.8-8.4-1.7-16.8-2.6-25.3c-0.5-4.9-1.2-9.9-1.6-14.8c-0.2-2.8-0.1-5.6-0.1-8.3c0.1-6.1,0.3-12.1,0.5-18.2
					c0.3-8.7,0.9-17.4,1.9-26.1c0.6-5.5,1.4-11,2.5-16.4C73.8,267.2,73.8,267.1,73.8,267 M119.3,352.3c-0.5,0.3-0.5,1-0.5,1.6
					c-0.1,3.3-0.3,6.5-0.3,9.8c0,2.9,0.1,5.8,0.4,8.7c0.4,3.6,1.1,7.1,1.6,10.7c1.6,11.7,2.3,23.6,3.4,35.3
					c0.6,6.1,1.2,12.2,1.8,18.3c0.2,2,0.4,4,0.6,6c0.1,0.6,0.1,1.1,0.2,1.7c1.3,0.1,2.8-0.1,4-0.7c2.1-1,4.1-2,6.2-3
					c3.1-1.5,6.1-3.1,9.4-3.9c1.8-0.5,3.6-0.6,5.5-0.1c1.8,0.5,3.6,1,5.5,1.5c0.5,0.1,1.1,0.2,1.7,0.3c0-0.3,0-0.5,0-0.7
					c-0.1-3.5-0.3-7.1-0.5-10.6c0-0.8-0.2-1.6-0.5-2.3c-1.1-3.2-2.2-6.3-3.3-9.5c-3.3-10.1-5-20.4-5.7-31c-0.5-7.5-0.1-15,0.4-22.6
					c0.5-7.4,0.9-14.7,1.4-22.1c0.3-4.6-0.4-9-1.1-13.5c-2-12.3-4.2-24.7-6.2-37c-1-6-1.9-11.9-2.8-17.9c-0.2-1.2-0.3-2.4-0.5-3.6
					c-0.3,0-0.5,0.1-0.8,0.1c-7.9,1.5-15.8,2.1-23.8,1.8c-7.2-0.3-14.4-0.7-21.6-1c-0.2,0-0.5,0-0.7,0c0.2,0.2,0.4,0.3,0.7,0.4
					c3.7,1.4,7.4,2.9,11.1,4.3c1.3,0.5,1.9,1.4,2.1,2.7c0.4,2.4,0.8,4.7,1.4,7c1.8,7.3,3.7,14.6,5.7,21.9c2.5,9.3,5,18.6,7.4,27.9
					c0.4,1.5,0.6,3.1,1.2,4.6c2.9,7.1,6.7,13.7,11.2,19.9c0.6,0.8,1.2,1.7,1.7,2.5c0.1,0.2,0.1,0.8,0,0.9c-0.2,0.2-0.7,0.1-1,0.1
					c-0.2,0-0.3-0.2-0.5-0.3c-1.9-1.4-3.8-2.9-5.8-4.2c-2.1-1.5-4.3-2.8-6.4-4.2c-0.4-0.3-0.9-0.4-1.3-0.6c-0.1,0-0.1,0.1-0.2,0.1
					c0.1,0.3,0.1,0.7,0.3,1c0.5,1.1,1,2.2,1.7,3.2c2.7,4,5.5,8,8.3,12.1c0.6,0.9,1.2,1.8,1.9,2.7c-0.2-0.1-0.4-0.2-0.5-0.4
					c-3.5-4.1-6.9-8.3-9.8-12.8C121,355.7,120.2,354,119.3,352.3 M75,267.1c-0.1,0.2-0.1,0.5-0.1,0.7c-0.8,6.1-1.7,12.2-2.2,18.3
					c-0.7,8.4-1.1,16.8-1.5,25.2c-0.3,5-0.3,10.1-0.4,15.1c0,3.3-0.2,6.7,0.1,10c0.4,5.2,1.1,10.4,1.7,15.6c0.8,8,1.6,16.1,2.4,24.1
					c0.8,8.3,1.5,16.6,1.4,24.9c-0.2,8.6-0.4,17.2-0.7,25.8c0,1.4-0.4,2.8-0.6,4.1c-0.1,0.7-0.2,1.4-0.3,2.3c0.5,0,1,0,1.4,0
					c4.6-0.2,8.6,1.3,12,4.4c1.7,1.6,3.5,3,5.2,4.6c3.3,2.9,7.3,3.5,11.5,3c0.5-0.1,0.8-0.3,0.7-0.9c-0.2-2.2-0.4-4.5-0.6-6.7
					c-0.2-2.7-0.5-5.4-0.8-8c-0.2-1.7-0.6-3.3-0.7-5c-0.7-8.8-1.1-17.7-0.9-26.5c0.1-11.3,0.5-22.5,0.7-33.8
					c0.1-4.2,0.2-8.4-0.3-12.6c-0.1-1.2-0.5-2.1-1.7-2.5c-0.2-0.1-0.4-0.2-0.6-0.3c-1.2-0.7-1.4-1.7-0.5-2.8c0.4-0.5,0.8-1,1.1-1.5
					c0.2-0.4,0.4-0.9,0.5-1.3c0.1-0.3-0.1-0.6-0.5-0.5c-2.9,0.4-5.7,0.1-8.6-0.3c-4-0.6-7.9-1.3-11.9-1.9c-0.3,0-0.6-0.1-0.9-0.1
					c0.3,0.4,0.6,0.8,1,1c3.7,2.7,7.7,4.8,11.9,6.6c0.5,0.2,1,0.4,1.5,0.7c0.7,0.4,0.8,1.1,0.2,1.7c-0.3,0.3-0.7,0.6-1.1,0.8
					c-1.9,1.1-3.8,2.3-5.6,3.4c-0.4,0.2-0.7,0.6-1.1,0.9c0,0.1,0,0.1,0.1,0.2c1.4,0.4,2.8,0.8,4.1,1.2c-0.3,0.2-0.5,0.2-0.7,0.2
					c-1.2-0.2-2.5-0.3-3.7-0.5c-1-0.2-1.2-1-0.6-1.8c0.4-0.4,0.8-0.8,1.3-1.1c1.9-1.2,3.8-2.3,5.7-3.4c0.3-0.2,0.5-0.4,0.9-0.6
					c-0.4-0.2-0.7-0.3-1-0.5c-1.7-0.7-3.4-1.4-5-2.2c-2.9-1.4-5.7-3-8.2-5.1c-0.4-0.3-0.7-0.7-1-1.1c-0.5-0.8,0-1.6,0.9-1.7
					c0.5,0,1,0,1.5,0.1c2.6,0.5,5.2,1,7.8,1.4c3.7,0.6,7.5,1.1,11.3,1.2c0.3,0,0.6,0,0.9,0c-0.9-1.1-0.9-2.4-0.9-3.6
					c0-0.6,0.1-1.3,0.2-1.9c1.2-6.7,2.5-13.5,3.6-20.2c1.5-8.5,2.8-16.9,4.2-25.4c0.1-0.5,0.1-1.1,0-1.7c-0.9-4.4-1.8-8.8-2.8-13.2
					c-0.1-0.4-0.4-0.8-0.8-1c-0.7-0.4-1.4-0.7-2.2-1c-3.6-1.5-7.3-2.9-10.9-4.4c-0.5-0.2-1-0.4-1.4-0.7c-0.4-0.4-0.9-0.4-1.4-0.5
					c-2.8-0.2-5.6-0.3-8.5-0.5C78.4,267.4,76.7,267.3,75,267.1 M146.3,166.2c0.1,0.1,0.1,0.2,0.2,0.2c-0.5,0.7-1,1.4-1.5,2.2
					c-2.8,4.3-4.9,8.9-6.7,13.7c-0.8,2.1-1.6,4.2-2.1,6.4c-0.7,2.8-1.1,5.6-1.6,8.5c-0.6,3.2-1,6.4-0.4,9.6
					c0.9,4.4,2.1,8.7,3.8,12.9c0.2,0.4,0.6,1-0.1,1.3c-0.7,0.3-0.9-0.4-1.1-0.8c-0.9-2.7-1.7-5.3-2.6-8c-0.1-0.3-0.2-0.5-0.3-0.8
					c-0.3,0.6-0.4,1.1-0.5,1.6c-0.3,2.2-0.6,4.4-0.9,6.7c-0.1,0.8-0.4,1.6-0.6,2.4c-0.1,0-0.2,0-0.3-0.1c-0.3-2.5,0.2-5,0.5-7.5
					c-1.1,0.6-2.1,1.1-3.1,1.6c-0.6,0.3-1.2,0.7-1.9,0.4c-0.1,0-0.3,0-0.4,0.1c-3.1,1.4-6.4,2-9.8,1.9c-0.9,0-1.7,0-2.5,0.3
					c-1,0.4-2.2,0.4-3.3,0.4c-1.4,0.1-2.7,0.7-4,1.1c2.2,0.6,4.5,1.2,6.7,1.8c9.3,2.2,18.6,4.7,27.8,7.4c0.2,0.1,0.5,0.1,0.6,0
					c1.2-0.7,2.6-1.3,3.6-2.2c2.8-2.6,4.6-5.8,5.6-9.5c0.7-2.7,0.7-5.5,0.6-8.2c-0.1-5.1-0.4-10.3-0.4-15.4c0-6.6,0.3-13.2,1.5-19.8
					c1-5.4,2-10.7,2.5-16.2c0.2-2,0.5-4,0.7-6c0.1-0.6-0.1-1-0.5-1.5c-0.5-0.8-1.1-1.5-1.5-2.4c-0.8-1.8-1.6-3.7-2.4-5.6
					c-0.2-0.5-0.5-0.8-1.1-0.8c-1.6-0.2-3.1-0.4-4.7-0.5c-5-0.1-10.1-0.1-15.1-0.2c-1.5,0-3.1-0.3-4.6-0.4c-0.2,0-0.5,0.1-0.7,0.2
					c-3.2,1.6-6.3,3.5-9.8,4.7c-0.1,0-0.3,0.3-0.3,0.4c-0.1,1.4-0.1,2.8-0.2,4.2c0,0.5-0.1,0.9-0.2,1.4c-1.2,5.1-2.3,10.2-3.5,15.2
					c-1.1,4.4-2.2,8.8-3.4,13.2c-0.5,2-0.1,4.2-1.3,6.1c1.3,0.2,1.9,1,2.1,2.2c0.2,1.8,0,3.6-0.4,5.3c-0.2,1-0.8,1.7-1.8,1.8
					c-0.4,0.1-0.5,0.3-0.5,0.7c0,1.5,0,2.9-0.1,4.4c0,0.4,0.1,0.6,0.5,0.7c2.3,1.1,4.7,2.1,7,3.2c0.2,0.1,0.6,0.1,0.8,0.1
					c2.2-0.9,4.4-1.2,6.8-1.2c0.4,0,0.6-0.2,0.6-0.5c0.2-0.8,0.4-1.6,0.6-2.4c0.4-1.9,1.5-3.3,3.2-4.2c2.4-1.1,4.7-2.2,7.1-3.3
					c0.4-0.2,0.5-0.3,0.6-0.7c0.4-2.6,0.9-5.2,1.3-7.8c0.5-3.4,0.9-6.7,1.5-10.1c0.2-1.3,0.5-2.6-0.2-3.8c0,0,0-0.1,0-0.1
					c-1-3.7-2-7.5-2.9-11.2c-0.3-1.1-0.3-2.2-0.5-3.3c0-0.2,0.1-0.5,0.2-0.8c0.1,0,0.2,0,0.3,0c1.1,4.7,2.3,9.5,3.4,14
					c0.6-1.5,1.1-3.3,1.9-4.9c2.8-5.7,6.1-11.1,9.5-16.3c0.1-0.2,0.3-0.3,0.5-0.5l0.2,0.1c-0.2,0.6-0.4,1.2-0.7,1.7
					c-1.9,3.5-3.8,7-5.6,10.5c-1.5,2.9-2.9,5.8-4.3,8.6c-0.5,1.1-0.5,2.2-0.2,3.4c0.2,0.7,0.3,1.5,0.2,2.3c-0.2,1.6-0.4,3.2-0.6,4.8
					c-0.2,1.7-0.4,3.4-0.6,5c0.2-0.2,0.3-0.4,0.3-0.6c1.4-4,3-8,5.1-11.7c0.9-1.5,1.9-3,2.9-4.5
					C145.3,166.7,145.8,166.5,146.3,166.2 M123.6,108.1c0.5-0.1,1-0.3,1.5-0.4c0.3-0.1,0.5-0.2,0.8-0.4c0.9-0.5,1.5-1.8,1.3-2.6
					c-0.1-0.5-0.2-1-0.1-1.5c0.1-1.2,0.2-2.4,0.3-3.6c0.2-2,0-4-0.7-5.9c-0.4-1-1-1.9-2.1-2.3c-0.6-0.3-1.2-0.2-1.8,0.2
					c-2,1.4-2.8,3.4-2.7,5.8c0,0.4,0.1,0.7,0.1,1.1c0,1.4-0.9,2.3-2.3,2.4c-0.7,0-1.4,0-2-0.1c-1.5-0.2-2.1-0.9-2.2-2.4
					c-0.1-1.6-0.2-3.2-0.2-4.8c0.1-2.6-0.9-4.9-2.7-6.7c-1.4-1.5-3.2-2.1-5.2-1.6c-3.3,0.8-6.6,2-9.5,4c-3.3,2.3-6.8,3-10.7,2.1
					C84.6,91.1,83.8,91,83,91c-0.3,0-0.6,0-0.8,0.2c-1,0.9-2,1.8-2.9,2.7c-0.2,0.2-0.2,0.6-0.1,0.9c0.5,1.7,1.1,3.5,1.7,5.2
					c0.6,1.9,1.2,3.7,2.2,5.4c0.3,0.5,0.6,1,0.7,1.5c0.8,2.9,1.7,5.7,2.5,8.6c0.6,2.3,1,4.6,2.4,6.6c2,3,4,5.9,6,8.8
					c0.5,0.7,1.1,1.1,1.9,1.3c0.6,0.1,1.2,0.2,1.7,0.2c8.4,0,15.3-3.3,20.8-9.5c0.9-1,1.8-2.2,2.3-3.5c1-2.3,1.1-4.8,0.9-7.3
					c-0.3-2.9-1-5.6-1.8-8.3c-0.1-0.5-0.3-1-0.3-1.5c0-0.4,0.2-0.8,0.4-1.2c0.3,0.2,0.7,0.4,0.9,0.7c0.3,0.4,0.5,1,0.7,1.5
					C122.7,104.8,123.2,106.4,123.6,108.1 M103.7,258.3c0.3,0,0.4,0,0.6,0c2.5-0.1,5-0.1,7.6-0.2c9.2-0.2,18.5-0.3,27.7-0.5
					c0.6,0,1.3-0.1,1.9-0.2c0.5,0,0.8-0.3,0.8-0.9c0-0.8,0-1.7,0-2.5c0-3.4-0.1-6.9-0.7-10.3c-0.3-1.3-0.8-2.6-1-4
					c-0.5-2.8-0.4-5.5-0.4-8.3c0-0.5-0.1-0.7-0.6-0.8c-4.6-1.3-9.2-2.6-13.7-3.9c-6.4-1.8-12.8-3.6-19.3-5.5c0,0-0.1,0-0.2,0
					c0,0.2-0.1,0.4-0.1,0.5c-0.3,3.1-0.6,6.2-1,9.3c-1.3,8.5-1.9,17.1-1.7,25.7C103.7,257.4,103.7,257.8,103.7,258.3 M105.2,195.8
					c-2-0.2-2.6-0.9-2.6-2.8c0.1-1.7,0.3-3.3,0.6-5c0.1-0.5,0.6-1,0.9-1.5c0.1-0.2,0.2-0.4,0.2-0.6c-0.3-1.3-0.5-2.7-0.9-4
					c-1.4-4.6-2.7-9.2-4.2-13.8c-0.8-2.7-1.6-5.3-2.7-7.9c-2.3-5.4-5.9-10-9-14.9c-0.1-0.1-0.4-0.2-0.6-0.1
					c-0.9,0.2-1.7,0.5-2.6,0.7c-3.7,0.7-7.3,1.5-11,2.1c-0.6,0.1-0.9,0.4-1,0.9c-0.2,1.5-0.5,3-0.7,4.5c-0.6,5.2-1.6,10.3-3.6,15.1
					c-0.1,0.3-0.2,0.7-0.4,0.9c-0.8,0.7-0.8,1.8-1.1,2.7c-0.3,1-0.5,1.9-0.8,2.9c0,0.2-0.1,0.4-0.1,0.6c3.1-0.3,6,0.4,9,1.1
					c0-0.1,0-0.2,0-0.3c0-1.8,1.4-2.7,3-1.9c0.2,0.1,0.5,0.2,0.7,0.4c0.5,0.3,1,0.5,1.6,0.9c-0.4-1.9-0.8-3.6-1.3-5.3
					c0-0.1-0.1-0.3-0.3-0.3c-2-1.4-3.4-3.2-4.8-5.2c-0.2-0.2-0.2-0.5-0.3-0.8c1.2,0.5,1.9,1.4,2.6,2.3c0.7,0.9,1.5,1.7,2.2,2.6
					c0.1-0.3,0-0.5,0-0.7c-1.2-4.7-2.3-9.4-3.5-14.1c-0.1-0.4-0.2-0.8-0.2-1.2c0-0.2,0.2-0.4,0.3-0.6c0.2,0.1,0.5,0.2,0.6,0.3
					c0.2,0.4,0.4,0.9,0.5,1.4c1.1,4.1,2.3,8.3,3.3,12.4c0.7,3.1,1.3,6.2,1.9,9.3c0.1,0.4,0.2,0.6,0.5,0.8c1.6,1.3,3.2,2.6,4.8,4
					c2,1.9,2.9,4.2,2.9,7c0,0.5,0,0.9,0,1.4c0.9-1.3,1.2-1.5,2.7-0.9c0.7,0.3,1.4,0.6,2,1c1.6,1.2,2.9,2.6,2.9,4.8
					c0,0.2,0.2,0.4,0.4,0.6c0.9,0.6,1.9,1.2,2.8,1.8c1.6,1.1,3.1,2.3,4.6,3.5c0.2,0.1,0.4,0.2,0.7,0.4
					C105.1,198.7,105.2,197.3,105.2,195.8 M76.4,238.4c0.3-0.2,0.6-0.4,0.8-0.5c1.6-1.4,3.2-2.7,4.8-4.1c0.9-0.8,1.7-0.6,1.9,0.6
					c0.3,1.9,0.6,3.8,0.8,5.7c0.1,0.6-0.2,1.1-0.8,1.4c-3.3,1.4-6.7,2.8-10,4.3c-0.3,0.1-0.6,0.4-0.8,0.8c-0.9,1.8-1.8,3.6-2.6,5.5
					c-0.1,0.2-0.1,0.6,0,0.8c0.5,1,1,1.9,1.6,2.9c0.2,0.3,0.5,0.6,0.8,0.7c1.4,0.5,2.7,1,4.2,1.3c3.6,0.7,7.2,0.8,10.8,0.8
					c4.6,0,9.2-0.1,13.8-0.1c0.2,0,0.3,0,0.5-0.1c-0.1-0.4-0.1-0.8-0.1-1.2c-0.1-6.5-0.1-13,0.9-19.4c0.8-5.4,1.5-10.7,2.2-16.1
					c0-0.3,0-0.5,0.1-0.8c-0.2,0-0.3,0-0.5,0.1c-2.3,0.5-4.6,0.7-6.9,0.7c-5.5-0.1-10.9,0.3-16.4,0.6c-0.5,0-0.8,0.2-0.9,0.8
					c-1.1,5-2.4,10-4.1,14.9C76.5,238,76.4,238.1,76.4,238.4 M62.3,193.6c-0.3,1.8-0.6,3.5-1,5.3c-0.9,3.9-1.8,7.8-2.7,11.8
					c-0.7,3.2-0.1,6.1,1.2,9c0.5,1,1.1,1.7,2.3,1.7c1.2,0,2.3,0.1,3.5,0c4-0.2,8-0.6,12-0.8c6.6-0.4,13.3-1.1,19.9-0.9
					c3.5,0.1,6.8-0.4,10.1-1.6c1.4-0.5,2.8-0.8,4.3-0.8c0.8,0,1.6-0.2,2.6-0.4c-0.2-0.4-0.2-0.6-0.3-0.8c-0.6-1.4-1.3-2.9-1.9-4.3
					c-0.6-1.4-1.3-2.7-1.3-4.1c-1,0.1-2.1,0.2-3.1,0.2c-3-0.1-5.9-0.9-8.6-2.1c-4.1-1.8-8.2-3.8-12.2-5.7c-1.1-0.5-2.2-1-3.4-1.1
					c-2.3-0.2-4.6,0.2-6.9,0.6c-0.2,0-0.5,0.4-0.6,0.6c-0.6,1.6-1.1,3.2-1.7,4.7c-0.2,0.7-0.6,1.3-0.8,2c-0.1,0-0.1-0.1-0.2-0.1
					c0.8-2.4,1.6-4.7,2.4-7.2c-0.7,0.2-1.5,0.3-1.9,0.8c-1.3,1.5-2.4,3.2-3.6,4.8c-0.1,0.1-0.1,0.2-0.2,0.3c0,0,0.1,0,0.1,0l1-1.3
					c0,0,0.1,0.1,0.1,0.1c-0.9,1.6-1.7,3.1-2.5,4.7c-0.7,1.3-1.3,2.7-2,4c-0.1,0.2-0.4,0.3-0.7,0.5c-0.1-0.3-0.2-0.5-0.3-0.8
					c0-0.1,0-0.2,0.1-0.3c1.2-4.3,3.4-8,6.3-11.4c0.1-0.2,0.3-0.3,0.4-0.5c-3.2,0.7-6.3,1.4-9.4,1.9c0-0.1-0.1-0.2-0.1-0.3
					c1.9-0.8,3.8-1.7,5.7-2.4c2-0.7,4-1.2,6.1-1.8c-0.4-0.1-0.6-0.2-0.9-0.2c-1.4-0.1-2.8-0.1-4.2-0.2c-0.6-0.1-1.3-0.2-1.8-0.5
					C66,195.9,64.2,194.7,62.3,193.6 M78.5,92.7c0.6-0.8,1.3-1.6,1.8-2.4c0.4-0.6,0.9-1.1,1.7-1.1c1.4,0.1,2.7,0.1,4.1,0.4
					c3.7,0.8,6.9,0,9.8-2.3c0.3-0.2,0.7-0.4,1-0.6c2.5-1.3,5.2-2.1,7.9-2.9c2.9-0.9,5.4-0.1,7.4,2.1c2.1,2.1,3.1,4.7,3,7.7
					c0,1.2,0,2.4,0,3.7c0.1,1.9,0.5,2.2,2.4,2.1c0,0,0,0,0.1,0c0.6,0,1-0.3,0.9-0.9c0-0.6-0.1-1.3-0.2-1.9c-0.2-1.2,0.1-2.4,0.8-3.4
					c0.4-0.6,0.8-1.1,1.3-1.6c1-1.1,2.3-1.9,3.9-1.8c0.5,0,0.6-0.2,0.6-0.6c0.2-5.3-3.1-12.6-10-14.7c-3.3-1-6.7-1.5-10.1-1.9
					c-7-0.8-13.6,0.4-19.8,4c-2.9,1.7-5.3,4-7.3,6.8c-0.8,1.2-1.3,2.6-0.9,4.1c0.4,1.6,0.9,3.3,1.4,4.9
					C78.2,92.3,78.3,92.5,78.5,92.7 M61.4,190.5c0.2,0.3,0.2,0.5,0.4,0.6c0.9,0.7,1.8,1.5,2.8,2.2c1.3,0.9,2.7,1.6,4,2.4
					c0.4,0.2,0.9,0.4,1.3,0.4c2.6,0,5.1,0.3,7.6,1.2c0.5,0.2,1,0.2,1.5,0.2c1.8,0,3.6,0,5.4-0.1c0.2,0,0.5-0.1,0.6-0.3
					c0.9-1.6,1.7-3.2,2.6-4.8c0.1-0.2,0.2-0.5,0.2-0.8c-0.1-1.2-0.2-2.4-0.2-3.6c-0.1-2.2-0.8-4.1-2.4-5.7c-1.8-1.9-3.9-3.6-6.2-4.9
					c-0.7-0.4-1.5-0.8-2.2-1.2c-0.2-0.1-0.4,0-0.6,0c0,0.2,0,0.5,0.1,0.7c0.2,0.3,0.4,0.5,0.7,0.7c1.3,1.2,2.5,2.3,3.8,3.5
					c0.2,0.2,0.4,0.5,0.6,0.7c0.1,0.1,0.1,0.5,0,0.5c-0.1,0.1-0.4,0.2-0.6,0.1c-0.4-0.2-0.9-0.4-1.2-0.7c-3.5-2.9-7.5-4-11.9-4.2
					c-1.4-0.1-2.8,0-4.1,0.6c-0.8,0.3-0.8,0.5-0.6,1.3c0.2,0.6,0.6,0.6,1.1,0.7c3.9,0.4,7.6,1.7,11.4,2.7c0.5,0.1,0.8,0.4,0.7,0.9
					c-0.1,0.5-0.6,0.6-1.1,0.5c-0.4-0.1-0.9-0.2-1.3-0.3c-2.8-0.7-5.7-1.5-8.5-2.2c-0.8-0.2-1.6-0.2-2.4-0.4
					c-1.5-0.3-2.9,0.1-4.2,0.9c-0.2,0.1-0.3,0.3-0.4,0.5c-0.5,0.8-0.3,1.2,0.5,1.6c1.5,0.8,3.1,1,4.8,0.9c2.6-0.2,5.2,0.3,7.7,1
					c1.2,0.4,2.4,0.9,3.3,1.9c0.3,0.4,0.6,0.8,0.1,1.2c-0.4,0.4-0.9,0.2-1.2-0.2c-0.7-0.8-1.6-1.2-2.5-1.5c-2.4-0.7-4.9-1.2-7.5-1
					c-1.2,0.1-2.4-0.2-3.5-0.3c-0.3,0-0.7,0-1,0c-0.4,0-0.6,0.3-0.5,0.7c0.1,0.8,0.5,1.4,1.2,1.7c0.6,0.2,1.2,0.4,1.9,0.5
					c3.3,0.7,6.5,1.3,9.8,1.9c0.8,0.2,1.4,0.5,1.9,1.2c0.2,0.3,0.3,0.7-0.1,1c-0.4,0.3-0.7,0.1-1-0.1c-0.4-0.3-0.9-0.6-1.4-0.8
					c-1.5-0.4-3-0.7-4.5-1C64.5,191.1,63,190.9,61.4,190.5 M113.9,149.7l-0.2-0.1c-0.4,0.2-0.8,0.3-1.2,0.5
					c-0.7,0.2-1.5,0.5-2.3,0.6c-2.6,0.2-5.1,0.1-7.6-0.5c-2.4-0.6-4.5-1.7-5.2-4.4c0,0-0.1-0.1,0,0c-2.2,0.5-4.4,1-6.5,1.5
					c0.1,0.1,0.1,0.2,0.2,0.4c0.8,1.2,1.6,2.4,2.3,3.5c2.6,3.9,5,7.9,6.3,12.4c2,6.5,4,13,5.9,19.5c0.1,0.2,0.1,0.3,0.2,0.5
					c0.2-0.3,0.3-0.5,0.3-0.8c0.6-2.8,1.2-5.7,1.9-8.5c1.7-6.9,3.5-13.9,5.2-20.8C113.5,152.3,113.7,151,113.9,149.7 M169.5,450.3
					c0,0,0-0.1,0-0.1c-0.1-0.1-0.2-0.3-0.3-0.4c-2-2.3-4.3-4.3-6.8-6.1c-0.3-0.2-0.8-0.3-1.2-0.4c-2-0.3-3.7,0.5-5.5,1.4
					c-2.2,1.1-4.4,2.2-6.7,3.2c-3,1.3-6,1.1-9-0.4c-1.9-0.9-3.6-2.1-5.3-3.4c-0.2-0.1-0.5-0.3-0.7-0.2c-1.8,0.8-3.6,1.8-5.8,2
					c0.6,1.1,1,2.2,1.6,3.2c1.2,1.9,2.5,3.7,4.5,4.7c6,3.3,12.3,4.5,19.1,3.8c2.2-0.2,4.1-1,5.6-2.6c0.8-0.9,1.7-1.7,2.5-2.5
					c1.6-1.5,3.5-2.3,5.7-2.3C168,450.3,168.7,450.3,169.5,450.3 M58.1,446.9c2,0.8,3.4,2.2,4.9,3.6c0.7,0.6,1.3,1.2,2,1.8
					c2.2,2,4.8,3.5,7.8,3.8c2.8,0.2,5.6,0.2,8.4,0c5.4-0.5,10.5-2.1,15.4-4.3c0.6-0.2,1.1-0.6,1.7-0.6c0.8,0,1-0.5,1.3-1
					c0.5-1,0.9-2,1.4-3.2c-0.6-0.1-0.9-0.1-1.3-0.2c-1.4-0.3-2.9,0-4.2-0.9c-0.7-0.5-1.6-0.9-2.3-1.5c-0.9-0.8-1.9-0.9-3.1-0.8
					c-2.4,0.2-4.7,1.2-6.9,2.1c-2.6,1.1-5.1,2.3-7.7,3.1c-3.6,1.1-7.2,0.8-10.5-1.3c-1.1-0.7-2.1-1.5-2.3-2.9
					C61.1,445.3,59.7,446.1,58.1,446.9 M140.9,259.5c-3.9,0-7.6,0-11.3,0c-6.5,0.1-13,0.3-19.4,0.4c-2.2,0-4.3,0.1-6.5,0.1
					c-0.3,0-0.6,0-0.5,0.4c0.1,2.2,0.2,4.3,0.3,6.5c0.4,0,0.6,0.1,0.8,0.1c3.7,0.2,7.3,0.3,11,0.5c8.8,0.4,17.4-0.6,26-2.2
					c0.2,0,0.5-0.3,0.5-0.4C141.4,263.1,141.2,261.2,140.9,259.5 M97.2,453.5c0-0.1-0.1-0.1-0.1-0.2c-0.2,0.1-0.4,0.1-0.5,0.2
					c-7.1,3.2-14.4,4.8-22.2,4.4c-3.4-0.2-6.4-1.3-9.1-3.3c-1.7-1.3-3.2-3-4.9-4.4c-0.9-0.7-1.8-1.4-2.8-2c-0.6-0.3-1.5-0.5-2.1-0.3
					c-2,0.7-4,1.6-5.9,2.4c-0.9,0.4-1.3,1.1-1.3,2.1c0,2.1,0.9,3.6,2.4,4.9c1.4,1.2,3.1,1.9,4.9,2.4c4.3,1.3,8.7,1.6,13.1,1.7
					c9.5,0.2,18.6-1.7,26.7-6.8C96,454.4,96.6,453.9,97.2,453.5 M99.9,134.1c0.1,0.3,0.1,0.5,0.2,0.7c0.5,2,0.8,4.1,0.6,6.2
					c-0.1,1.4-0.4,2.7-1.3,3.8c-0.4,0.5-0.5,0.9-0.1,1.3c0.4,0.5,0.8,1,1.3,1.3c0.8,0.4,1.6,0.9,2.5,1c3.4,0.6,6.9,1,10.2-0.6
					c0.5-0.2,0.7-0.4,0.7-0.9c0.1-1.8-0.3-3.6-0.9-5.3c-0.5-1.5-1.1-3.1-1.6-4.6c-0.4-1.2-0.2-1.6,0.9-2.3c0.7-0.4,1.5-0.8,2.2-1.2
					c1.4-0.7,2.9-1.5,4.1-2.1c-0.1-1.8-0.2-3.5-0.4-5.2C113.3,131.1,107.1,133.7,99.9,134.1 M90.4,442.1c-1.2-1.1-2.4-2.1-3.6-3.2
					c-3.2-2.9-6.9-4-11.2-3.8c-0.3,0-0.6,0.1-0.8,0.3c-1,0.7-1.9,1.4-2.9,2.1c-2.5,2-5,3.9-7.6,5.9c-0.2,0.1-0.3,0.5-0.3,0.6
					c0.2,0.4,0.5,0.7,0.8,1c2.4,2.2,5.2,2.8,8.3,2.4c2.6-0.4,4.9-1.4,7.3-2.4C83.6,443.6,86.8,442.2,90.4,442.1 M102,266.9
					c-0.1-2.3-0.2-4.5-0.3-6.8c-0.2,0-0.5,0-0.7,0c-6.6,0-13.2,0.3-19.8-0.2c-3.2-0.2-6.3-0.7-9.2-2c-0.1,0-0.2,0-0.2,0
					c-0.3,2.3-0.7,4.5-1,6.7C72.5,265.3,99.8,267.3,102,266.9 M127.5,215c1.2-0.7,2.2-1.3,3.3-2c0.6-0.3,0.9-0.9,1-1.5
					c0.1-1.4,0.2-2.8,0.2-4.2c-0.1-3.5-0.1-7,0.6-10.4c0.2-0.8,0.3-1.5,0.4-2.3c-0.1,0-0.2-0.1-0.2,0c-2.4,1.1-4.7,2.2-7,3.4
					c-0.8,0.4-1.2,1.1-1.5,2c-0.3,0.8-0.5,1.7-0.8,2.5c-0.3,0.8-0.4,1.5,0.1,2.4c0.5,0.9,0.6,1.9,1.1,2.9
					C125.8,210.1,126.8,212.4,127.5,215 M143.2,459.1c0.3,0.1,0.6,0.2,0.9,0.3c6.2,2.1,12.6,2.8,19.2,2.1c2.1-0.2,4.2-0.6,6.1-1.4
					c1.5-0.7,2.5-1.9,2.6-3.5c0.1-0.9-0.2-1.9-0.4-2.9c-0.3-1.3-1-1.8-2.4-1.9c-2.6-0.1-4.9,0.3-6.8,2.2c-0.8,0.8-1.6,1.6-2.4,2.4
					c-1.7,1.9-3.9,2.7-6.4,3C150.2,459.7,146.7,459.7,143.2,459.1 M136,442.9c1.7,1.4,3.4,2.5,5.3,3.3c2.2,1,4.5,1.2,6.8,0.3
					c1.7-0.7,3.2-1.5,4.9-2.2c1.5-0.7,3.1-1.4,4.6-2.1c0.5-0.2,1-0.3,1.7-0.4c-0.3-0.2-0.5-0.3-0.7-0.3c-3.4-1.6-7-2.5-10.8-2.9
					c-0.6-0.1-1.3-0.2-1.9,0C142.5,439.5,139.3,441.2,136,442.9 M118.2,216.8c2.1-0.2,4.6-0.6,7-1.4c0.5-0.2,0.7-0.4,0.5-0.9
					c-1-3.3-2.5-6.4-4.4-9.3c-0.1-0.2-0.4-0.4-0.5-0.4c-2.5,0-5,0.5-7.2,1.9c-1.4,0.9-1.5,1.2-0.8,2.7c0.9,2,1.9,4.1,2.8,6.1
					C116.3,216.9,116.3,216.9,118.2,216.8 M93.4,201.4c2.9,1.2,5.6,2.5,8.3,3.6c2.8,1.1,5.8,1.7,8.9,1.5c0.8-0.1,1.3-0.4,1.8-1
					c-0.2-0.1-0.5-0.2-0.7-0.3c-2-1-4.1-1.9-6.1-2.9c-2.4-1.1-4.5-2.6-6.3-4.4c-0.7-0.7-1.5-1.3-2.3-1.9c-0.2-0.1-0.4-0.2-0.7-0.4
					C96,197.8,94.7,199.5,93.4,201.4 M122,338.2c-0.6,1.5-1.2,2.9-1.6,4.3c-0.2,0.6-0.1,1.3,0,1.8c0.2,0.9,0.7,1.7,1,2.6
					c0.5,1.1,0.4,2.2-0.4,3.2c-0.1,0.1-0.2,0.3-0.3,0.4c4.2,2.1,7.9,4.9,11.8,7.4C128.3,351.8,124.8,345.2,122,338.2 M98.9,137.4
					c-1.2,0.3-2.3,0.6-3.3,0.9c-2.5,0.7-5,1.3-7.5,1.9c-0.5,0.1-1,0.4-1.6,0.6c1.2,1.8,2.3,3.5,3.4,5.1c0.4-0.1,0.6-0.3,0.9-0.3
					c2-0.4,3.9-0.8,5.9-1.1c1-0.2,1.5-0.7,1.8-1.5C99.3,141.3,99.1,139.4,98.9,137.4 M86,197.7c1.8,0.9,3.5,1.8,5.2,2.6
					c0.2,0.1,0.4,0.2,0.7,0.2c0.2,0,0.4,0,0.5-0.1c1.1-1.5,2.1-3,2.6-4.8c0.5-2.1,0-3.9-1.8-5.2c-0.7-0.5-1.4-0.8-2.2-1.2
					c-0.4-0.2-0.6-0.1-0.8,0.4c-0.3,0.9-0.4,1.7-0.8,2.5C88.5,194.2,87.6,196.1,86,197.7 M114.4,140.4c2.8-1.4,5.4-2.8,8-4.2
					c0.1-0.1,0.2-0.3,0.2-0.4c-0.3-1.5-0.7-2.9-1-4.5c-0.7,0.4-1.4,0.9-2.2,1.3c-2,1.1-3.9,2.2-5.9,3.3c-0.2,0.1-0.4,0.5-0.4,0.7
					C113.5,137.8,113.9,139.1,114.4,140.4 M74.1,244.2c0.2,0,0.2,0,0.3-0.1c2.9-1.3,5.7-2.5,8.6-3.8c0.2-0.1,0.3-0.4,0.3-0.6
					c-0.1-1-0.2-1.9-0.4-2.9c-0.1-0.5-0.2-1-0.3-1.6c-0.1,0.1-0.2,0.1-0.3,0.2c-2,1.9-4.2,3.7-6.6,5.2c-0.2,0.1-0.3,0.3-0.4,0.4
					C75,242,74.6,243,74.1,244.2 M115.6,144.8c3.1-1.6,6.2-3.2,9.2-4.7c-0.6-1-1.1-1.8-1.7-2.7c-2.7,1.4-5.5,2.7-8.3,4.1
					C115.1,142.5,115.3,143.6,115.6,144.8 M104,192.5C104.1,192.5,104.1,192.5,104,192.5c0.1,0.3,0.1,0.6,0.1,0.9
					c0,0.8,0.2,0.9,1,0.9c0.5,0,1-0.1,1.5-0.2c0.3-0.1,0.7-0.4,0.7-0.7c0.5-1.6,0.7-3.3,0.5-5c-0.1-1.1-1-1.5-1.9-0.9
					c-0.2,0.1-0.4,0.2-0.6,0.2c-0.6,0-0.7,0.3-0.8,0.8C104.4,189.8,104.2,191.1,104,192.5 M124.1,111.7c0.1,0,0.1,0,0.2,0
					c0.3-0.7,0.5-1.4,0.8-2.3c-0.5,0-0.9,0.1-1.2,0.1c0,0.1,0,0.2,0,0.3C124,110.5,124,111.1,124.1,111.7"/>
				<path class="st2" d="M119.3,352.3c0.9,1.7,1.7,3.5,2.8,5.1c2.9,4.5,6.3,8.7,9.8,12.8c0.1,0.2,0.3,0.3,0.5,0.4
					c-0.6-0.9-1.2-1.8-1.9-2.7c-2.8-4-5.5-8-8.3-12.1c-0.7-1-1.2-2.1-1.7-3.2c-0.2-0.3-0.2-0.7-0.3-1c0.1,0,0.1-0.1,0.2-0.1
					c0.5,0.2,0.9,0.3,1.3,0.6c2.2,1.4,4.3,2.8,6.4,4.2c2,1.4,3.9,2.8,5.8,4.2c0.2,0.1,0.3,0.3,0.5,0.3c0.3,0,0.8,0.1,1-0.1
					c0.2-0.1,0.1-0.7,0-0.9c-0.5-0.9-1.1-1.7-1.7-2.5c-4.5-6.2-8.2-12.9-11.2-19.9c-0.6-1.4-0.8-3.1-1.2-4.6
					c-2.5-9.3-5-18.6-7.4-27.9c-1.9-7.3-3.8-14.6-5.7-21.9c-0.6-2.3-1-4.7-1.4-7c-0.2-1.3-0.9-2.3-2.1-2.7
					c-3.7-1.4-7.4-2.9-11.1-4.3c-0.2-0.1-0.4-0.2-0.7-0.4c0.2,0,0.5,0,0.7,0c7.2,0.3,14.4,0.7,21.6,1c8,0.4,16-0.3,23.8-1.8
					c0.2,0,0.5-0.1,0.8-0.1c0.2,1.2,0.3,2.5,0.5,3.6c0.9,6,1.8,12,2.8,17.9c2.1,12.3,4.2,24.7,6.2,37c0.7,4.5,1.4,8.9,1.1,13.5
					c-0.5,7.4-0.9,14.7-1.4,22.1c-0.5,7.5-0.8,15-0.4,22.6c0.7,10.6,2.4,20.9,5.7,31c1,3.2,2.2,6.3,3.3,9.5c0.3,0.8,0.4,1.6,0.5,2.3
					c0.2,3.5,0.3,7.1,0.5,10.6c0,0.2,0,0.4,0,0.7c-0.6-0.1-1.2-0.1-1.7-0.3c-1.8-0.5-3.7-1-5.5-1.5c-1.8-0.5-3.7-0.4-5.5,0.1
					c-3.3,0.9-6.4,2.4-9.4,3.9c-2,1-4.1,2-6.2,3c-1.2,0.6-2.8,0.8-4,0.7c-0.1-0.6-0.1-1.1-0.2-1.7c-0.2-2-0.4-4-0.6-6
					c-0.6-6.1-1.2-12.2-1.8-18.3c-1.1-11.8-1.8-23.6-3.4-35.3c-0.5-3.6-1.2-7.1-1.6-10.7c-0.3-2.9-0.4-5.8-0.4-8.7
					c0-3.3,0.2-6.5,0.3-9.8C118.8,353.2,118.7,352.6,119.3,352.3"/>
				<path class="st2" d="M75,267.1c1.7,0.1,3.3,0.3,5,0.4c2.8,0.2,5.6,0.4,8.5,0.5c0.5,0,0.9,0.1,1.4,0.5c0.4,0.3,0.9,0.5,1.4,0.7
					c3.6,1.5,7.3,2.9,10.9,4.4c0.7,0.3,1.5,0.6,2.2,1c0.3,0.2,0.7,0.6,0.8,1c1,4.4,1.9,8.8,2.8,13.2c0.1,0.5,0.1,1.1,0,1.7
					c-1.4,8.5-2.8,17-4.2,25.4c-1.2,6.8-2.4,13.5-3.6,20.2c-0.1,0.6-0.1,1.3-0.2,1.9c-0.1,1.2-0.1,2.5,0.9,3.6c-0.3,0-0.6,0-0.9,0
					c-3.8,0-7.5-0.6-11.3-1.2c-2.6-0.4-5.2-1-7.8-1.4c-0.5-0.1-1-0.1-1.5-0.1c-0.9,0.1-1.3,0.9-0.9,1.7c0.3,0.4,0.6,0.8,1,1.1
					c2.5,2.1,5.3,3.6,8.2,5.1c1.6,0.8,3.3,1.5,5,2.2c0.3,0.1,0.6,0.3,1,0.5c-0.3,0.2-0.6,0.4-0.9,0.6c-1.9,1.1-3.8,2.2-5.7,3.4
					c-0.5,0.3-0.9,0.7-1.3,1.1c-0.6,0.8-0.4,1.6,0.6,1.8c1.2,0.3,2.5,0.4,3.7,0.5c0.2,0,0.5,0,0.7-0.2c-1.4-0.4-2.8-0.8-4.1-1.2
					c0-0.1,0-0.1-0.1-0.2c0.4-0.3,0.7-0.7,1.1-0.9c1.9-1.2,3.8-2.3,5.6-3.4c0.4-0.2,0.8-0.5,1.1-0.8c0.6-0.6,0.5-1.3-0.2-1.7
					c-0.5-0.3-1-0.5-1.5-0.7c-4.2-1.7-8.2-3.9-11.9-6.6c-0.4-0.3-0.7-0.6-1-1c0.3,0,0.6,0,0.9,0.1c4,0.6,7.9,1.4,11.9,1.9
					c2.8,0.4,5.7,0.7,8.6,0.3c0.5-0.1,0.6,0.2,0.5,0.5c-0.1,0.5-0.3,0.9-0.5,1.3c-0.3,0.5-0.7,1-1.1,1.5c-0.8,1.1-0.6,2.1,0.5,2.8
					c0.2,0.1,0.4,0.2,0.6,0.3c1.2,0.5,1.5,1.4,1.7,2.5c0.5,4.2,0.4,8.4,0.3,12.6c-0.2,11.3-0.6,22.5-0.7,33.8
					c-0.1,8.9,0.3,17.7,0.9,26.5c0.1,1.7,0.5,3.3,0.7,5c0.3,2.7,0.5,5.4,0.8,8c0.2,2.2,0.3,4.5,0.6,6.7c0.1,0.6-0.1,0.8-0.7,0.9
					c-4.2,0.5-8.2-0.1-11.5-3c-1.7-1.5-3.5-3-5.2-4.6c-3.4-3.1-7.4-4.6-12-4.4c-0.4,0-0.9,0-1.4,0c0.1-0.8,0.2-1.5,0.3-2.3
					c0.2-1.4,0.5-2.8,0.6-4.1c0.3-8.6,0.5-17.2,0.7-25.8c0.2-8.3-0.5-16.6-1.4-24.9c-0.8-8-1.6-16.1-2.4-24.1
					c-0.5-5.2-1.3-10.4-1.7-15.6c-0.3-3.3-0.1-6.7-0.1-10c0.1-5,0.1-10.1,0.4-15.1c0.4-8.4,0.8-16.8,1.5-25.2
					c0.5-6.1,1.5-12.2,2.2-18.3C74.9,267.6,75,267.4,75,267.1 M88.1,370c0.1-0.1,0.2-0.2,0.3-0.3c3.2-3.6,6.3-7.3,8.9-11.4
					c1-1.5,1.8-3.2,2.3-5c0.1-0.4,0.1-0.8,0.1-1.1C96.6,358.6,91.7,363.8,88.1,370"/>
				<path class="st3" d="M146.3,166.2c-0.4,0.3-0.9,0.6-1.2,1c-1,1.5-2,2.9-2.9,4.5c-2.1,3.7-3.7,7.6-5.1,11.7
					c-0.1,0.2-0.1,0.4-0.3,0.6c0.2-1.7,0.4-3.4,0.6-5c0.2-1.6,0.5-3.2,0.6-4.9c0.1-0.8,0-1.6-0.2-2.3c-0.3-1.2-0.3-2.3,0.2-3.4
					c1.4-2.9,2.8-5.8,4.3-8.6c1.8-3.5,3.8-7,5.6-10.5c0.3-0.5,0.4-1.1,0.7-1.7l-0.2-0.1c-0.2,0.2-0.4,0.3-0.5,0.5
					c-3.5,5.3-6.7,10.7-9.5,16.3c-0.8,1.6-1.3,3.4-1.9,4.9c-1.1-4.5-2.2-9.2-3.4-14c-0.1,0-0.2,0-0.3,0c-0.1,0.3-0.2,0.5-0.2,0.8
					c0.1,1.1,0.2,2.3,0.5,3.3c0.9,3.8,1.9,7.5,2.9,11.2c0,0,0,0.1,0,0.1c0.7,1.2,0.5,2.5,0.2,3.8c-0.6,3.3-0.9,6.7-1.5,10.1
					c-0.4,2.6-0.9,5.2-1.3,7.8c-0.1,0.4-0.2,0.6-0.6,0.7c-2.4,1.1-4.8,2.1-7.1,3.3c-1.8,0.8-2.8,2.3-3.2,4.2
					c-0.2,0.8-0.4,1.6-0.6,2.4c-0.1,0.4-0.2,0.5-0.6,0.5c-2.3,0-4.6,0.3-6.8,1.2c-0.2,0.1-0.6,0.1-0.8-0.1c-2.3-1-4.7-2.1-7-3.2
					c-0.3-0.2-0.5-0.4-0.5-0.7c0-1.5,0.1-2.9,0.1-4.4c0-0.4,0.1-0.6,0.5-0.7c1-0.2,1.6-0.9,1.8-1.8c0.4-1.7,0.6-3.5,0.4-5.3
					c-0.1-1.2-0.8-1.9-2.1-2.2c1.3-1.9,0.8-4.1,1.3-6.1c1.2-4.4,2.3-8.8,3.4-13.2c1.2-5.1,2.4-10.2,3.5-15.2
					c0.1-0.4,0.1-0.9,0.2-1.4c0.1-1.4,0.1-2.8,0.2-4.2c0-0.2,0.2-0.4,0.3-0.4c3.5-1.1,6.5-3,9.8-4.7c0.2-0.1,0.5-0.2,0.7-0.2
					c1.5,0.1,3.1,0.4,4.6,0.4c5,0.1,10.1,0.1,15.1,0.2c1.6,0,3.1,0.3,4.7,0.5c0.5,0.1,0.9,0.4,1.1,0.8c0.8,1.9,1.5,3.7,2.4,5.6
					c0.4,0.8,0.9,1.6,1.5,2.4c0.3,0.5,0.5,0.9,0.5,1.5c-0.2,2-0.5,4-0.7,6c-0.5,5.4-1.5,10.8-2.5,16.2c-1.2,6.5-1.5,13.1-1.5,19.8
					c0,5.1,0.3,10.3,0.4,15.4c0.1,2.8,0.1,5.5-0.6,8.2c-0.9,3.7-2.8,6.9-5.6,9.5c-1,0.9-2.4,1.5-3.6,2.2c-0.2,0.1-0.4,0-0.6,0
					c-9.2-2.7-18.5-5.2-27.8-7.4c-2.2-0.5-4.5-1.1-6.7-1.8c1.3-0.4,2.6-1,4-1.1c1.1,0,2.3-0.1,3.3-0.4c0.9-0.3,1.7-0.3,2.5-0.3
					c3.4,0,6.7-0.6,9.8-1.9c0.1-0.1,0.3-0.1,0.4-0.1c0.7,0.3,1.3-0.1,1.9-0.4c1-0.5,2-1,3.1-1.6c-0.3,2.5-0.8,5-0.5,7.5
					c0.1,0,0.2,0,0.3,0.1c0.2-0.8,0.5-1.6,0.6-2.4c0.3-2.2,0.6-4.4,0.9-6.7c0.1-0.6,0.2-1.1,0.5-1.6c0.1,0.3,0.2,0.5,0.3,0.8
					c0.9,2.7,1.7,5.3,2.6,8c0.2,0.5,0.3,1.2,1.1,0.8c0.7-0.3,0.2-0.9,0.1-1.3c-1.7-4.2-2.9-8.5-3.8-12.9c-0.6-3.3-0.2-6.4,0.4-9.6
					c0.5-2.8,0.9-5.7,1.6-8.5c0.5-2.2,1.3-4.3,2.1-6.4c1.8-4.8,3.9-9.4,6.7-13.7c0.5-0.7,1-1.5,1.5-2.2
					C146.4,166.3,146.3,166.3,146.3,166.2 M128.7,167.4c0.1,0,0.2,0,0.3,0c0-1.3,0-2.5,0-3.8c0-1.1-0.5-1.4-1.6-1.3
					c-1.1,0.1-2.2,0.3-3.3,0.4c-1.9,0.2-3.9,0.2-5.9,0.4c-1.3,0.1-1.6,0.6-1.4,1.9c0.1,0.8,0.2,1.7,0.2,2.5c0,1.5,0,3,0,4.6
					c0,1.1,0.4,2,1.3,2.6c1.3,0.9,2.6,1.7,4,2.5c1.3,0.7,1.5,0.7,2.5-0.4c1.3-1.5,2.4-3.1,3.6-4.6c0.3-0.4,0.4-0.9,0.4-1.3
					C128.7,169.7,128.7,168.5,128.7,167.4 M142.5,182.8c-2.2,2.4-4.3,4.8-5.9,7.6C138.9,188.1,140.8,185.6,142.5,182.8"/>
				<path class="st4" d="M123.6,108.1c-0.5-1.7-0.9-3.3-1.4-4.8c-0.2-0.5-0.4-1-0.7-1.5c-0.2-0.3-0.6-0.5-0.9-0.7
					c-0.1,0.4-0.4,0.8-0.4,1.2c0,0.5,0.1,1,0.3,1.5c0.8,2.7,1.5,5.5,1.8,8.3c0.2,2.5,0,5-0.9,7.3c-0.5,1.3-1.4,2.4-2.3,3.5
					c-5.5,6.3-12.4,9.5-20.8,9.5c-0.6,0-1.2-0.1-1.7-0.2c-0.8-0.1-1.4-0.6-1.9-1.3c-2-3-4-5.9-6-8.8c-1.3-2-1.8-4.3-2.4-6.6
					c-0.8-2.9-1.6-5.7-2.5-8.6c-0.2-0.5-0.5-1-0.7-1.5c-1-1.7-1.6-3.5-2.2-5.4c-0.5-1.7-1.1-3.5-1.7-5.2c-0.1-0.3,0-0.7,0.1-0.9
					c0.9-0.9,1.9-1.8,2.9-2.7c0.2-0.2,0.5-0.2,0.8-0.2c0.8,0.1,1.6,0.1,2.4,0.3c3.9,1,7.5,0.2,10.7-2.1c2.9-2,6.1-3.1,9.5-4
					c2-0.5,3.8,0.1,5.2,1.6c1.8,1.9,2.8,4.1,2.7,6.7c0,1.6,0,3.2,0.2,4.8c0.1,1.5,0.8,2.1,2.2,2.4c0.7,0.1,1.3,0.2,2,0.1
					c1.4-0.1,2.3-1,2.3-2.4c0-0.4,0-0.7-0.1-1.1c-0.1-2.4,0.6-4.4,2.7-5.8c0.6-0.4,1.2-0.4,1.8-0.2c1.1,0.4,1.7,1.2,2.1,2.3
					c0.7,1.9,0.9,3.9,0.7,5.9c-0.1,1.2-0.3,2.4-0.3,3.6c0,0.5,0,1,0.1,1.5c0.2,0.8-0.5,2-1.3,2.6c-0.2,0.1-0.5,0.3-0.8,0.4
					C124.7,107.8,124.2,107.9,123.6,108.1 M96.2,111.9c-0.2,0.6-0.5,1.2-0.7,1.8c-0.2,0.6-0.4,1.2-0.3,1.8c0.4,2.6,3,3.7,5.3,2.4
					c0.2-0.1,0.3-0.3,0.4-0.4c-0.2-0.1-0.3-0.4-0.5-0.4c-0.8-0.2-1.6-0.3-2.3-0.4c-0.9-0.1-1.5-1.2-1.2-2.1c0.4-1,0.8-1.9,1-2.9
					c0.5-2.1,0.2-4.1-1.3-5.7c-1.4-1.5-3.1-2.5-5.2-2.9c-3.1-0.6-5.4,1.7-5,4.8c0.3,2.6,2.6,4.7,5.4,4.7
					C93.3,112.5,94.7,112.1,96.2,111.9 M106.3,107.5c0.3,0,0.6,0,0.9-0.1c2.7-0.3,4.8-1.6,5.8-4.2c0.8-2.1-0.2-4.1-2.2-4.9
					c-1.2-0.5-2.5-0.6-3.7-0.3c-2.5,0.6-4.5,1.8-5.1,4.5c-0.5,2.2,0.4,4.8,3.4,4.9C105.6,107.5,106,107.5,106.3,107.5 M102.1,126.3
					l0-0.2c2.4-0.1,4.6-0.6,6.6-1.9c2.1-1.3,3.4-3,3.8-5.5c0.1-0.8-0.2-1.4-0.7-1.8c-0.5-0.5-1,0-1.5,0.3c-0.3,0.2-0.6,0.3-0.9,0.4
					c-2.7,1-5.5,2-8.2,3c-1.7,0.7-3.4,1.5-5,2.2c-0.6,0.3-0.8,0.9-0.2,1.3c0.7,0.5,1.5,1,2.3,1.3C99.5,125.8,100.8,126,102.1,126.3
					 M108.7,96c0.5,0,0.9-0.1,1-0.7c0.1-0.5-0.2-0.8-0.6-1c-0.3-0.1-0.6-0.1-0.8-0.2c-3.1-0.1-5.9,1-8.3,3c-0.2,0.2-0.4,0.4-0.5,0.7
					c-0.1,0.2,0,0.6,0.2,0.7c0.1,0.1,0.5,0.1,0.7,0.1c0.2,0,0.3-0.2,0.4-0.3C103.1,96.8,105.7,95.7,108.7,96 M89.5,98.6
					c-1.9,0-4.5,2.1-4.8,3.7c0,0.3,0.2,0.8,0.4,0.9c0.2,0.1,0.7,0,0.9-0.1c0.3-0.2,0.5-0.6,0.7-0.9c1.4-1.9,2.1-2.1,4.2-1.3
					c0.1,0,0.2,0.1,0.2,0.1c0.7,0.1,1.3,0.3,2,0.4c0.2,0,0.5-0.3,0.7-0.4c-0.2-0.2-0.3-0.5-0.5-0.7c-0.8-0.4-1.6-0.8-2.4-1.1
					C90.4,98.9,89.8,98.7,89.5,98.6 M124.6,93.7c0-0.1-0.1-0.1-0.1-0.2c-1.1,0.2-1.9,0.9-2.4,1.9c-0.7,1.4-1.1,2.8-0.5,4.3
					c0.1,0.4,0.2,0.7,0.7,0.8c1.2,0.2,1.5,0.6,1.5,1.9c0,0.3-0.1,0.5,0,0.8c0.1,0.3,0.2,0.7,0.5,0.8c0.4,0.2,0.7-0.1,0.8-0.5
					c0.7-1.6-0.3-3.6-2-3.9c-0.5-0.1-0.6-0.3-0.6-0.7c-0.1-1.3,0.3-2.5,1-3.6C123.8,94.8,124.2,94.2,124.6,93.7"/>
				<path class="st3" d="M103.7,258.3c0-0.5-0.1-0.9-0.1-1.4c-0.2-8.6,0.4-17.2,1.7-25.7c0.5-3.1,0.7-6.2,1-9.3
					c0-0.2,0.1-0.4,0.1-0.5c0.1,0,0.1,0,0.2,0c6.4,1.8,12.8,3.6,19.3,5.5c4.6,1.3,9.2,2.6,13.7,3.9c0.5,0.1,0.6,0.3,0.6,0.8
					c-0.1,2.8-0.2,5.6,0.4,8.3c0.3,1.3,0.8,2.6,1,4c0.6,3.4,0.7,6.8,0.7,10.3c0,0.8,0,1.7,0,2.5c0,0.6-0.3,0.8-0.8,0.9
					c-0.6,0.1-1.3,0.2-1.9,0.2c-9.2,0.2-18.5,0.3-27.7,0.4c-2.5,0-5,0.1-7.6,0.2C104.1,258.3,104,258.3,103.7,258.3 M132.9,254
					c1.6-0.5,3.3-1.1,4.7-2.4c0.4-0.4,0.4-0.9,0-1.3c-0.4-0.4-0.8-0.7-1.1-1.1c-2.3-2.3-4.2-4.9-6.1-7.5c-1.4-1.9-2.8-3.8-3.7-6
					c-0.1-0.3-0.3-0.6-0.5-0.9c-0.4-0.5-0.8-0.7-1.4-0.4c-1.3,0.6-2.5,1.5-3.4,2.6c-0.4,0.5-0.5,1.1,0,1.6c0.4,0.6,0.9,1.2,1.4,1.7
					c1.3,1.6,2.6,3.1,3.9,4.7c1.9,2.4,3.6,4.9,4.8,7.7C131.6,253.4,132,254,132.9,254"/>
				<path class="st3" d="M105.2,195.8c-0.1,1.5-0.1,2.9-0.2,4.5c-0.3-0.1-0.5-0.2-0.7-0.4c-1.5-1.2-3.1-2.4-4.6-3.5
					c-0.9-0.7-1.9-1.2-2.8-1.8c-0.2-0.1-0.4-0.4-0.4-0.6c0-2.2-1.2-3.6-2.9-4.8c-0.6-0.4-1.3-0.7-2-1c-1.5-0.6-1.9-0.4-2.7,0.9
					c0-0.5,0-0.9,0-1.4c0-2.7-0.9-5.1-2.9-7c-1.5-1.4-3.2-2.7-4.8-4c-0.3-0.2-0.4-0.5-0.5-0.8c-0.6-3.1-1.1-6.2-1.9-9.3
					c-1-4.2-2.2-8.3-3.3-12.4c-0.1-0.5-0.3-1-0.5-1.4c-0.1-0.2-0.4-0.2-0.6-0.3c-0.1,0.2-0.3,0.4-0.3,0.6c0,0.4,0.1,0.8,0.2,1.2
					c1.2,4.7,2.3,9.4,3.5,14.1c0.1,0.2,0.1,0.4,0,0.7c-0.7-0.9-1.5-1.7-2.2-2.6c-0.7-0.9-1.5-1.8-2.6-2.3c0.1,0.3,0.2,0.5,0.3,0.8
					c1.3,2,2.8,3.8,4.8,5.2c0.1,0.1,0.2,0.2,0.3,0.3c0.4,1.7,0.8,3.4,1.3,5.3c-0.6-0.3-1.1-0.6-1.6-0.9c-0.2-0.1-0.5-0.2-0.7-0.4
					c-1.6-0.8-3,0.1-3,1.9c0,0.1,0,0.2,0,0.3c-2.9-0.7-5.9-1.4-9-1.1c0.1-0.2,0.1-0.4,0.1-0.6c0.3-1,0.5-1.9,0.8-2.9
					c0.3-0.9,0.3-2,1.1-2.7c0.2-0.2,0.3-0.6,0.4-0.9c2-4.9,3-9.9,3.6-15.1c0.2-1.5,0.4-3,0.7-4.5c0.1-0.6,0.4-0.8,1-0.9
					c3.7-0.7,7.3-1.4,11-2.1c0.9-0.2,1.7-0.5,2.6-0.7c0.2,0,0.6,0,0.6,0.1c3.2,4.9,6.7,9.5,9,14.9c1.1,2.5,1.9,5.2,2.7,7.9
					c1.4,4.6,2.8,9.2,4.2,13.8c0.4,1.3,0.6,2.7,0.9,4c0,0.2-0.1,0.4-0.2,0.6c-0.3,0.5-0.8,1-0.9,1.5c-0.3,1.6-0.5,3.3-0.6,5
					C102.6,195,103.2,195.6,105.2,195.8 M92,165.1c0-0.5-0.4-0.7-0.9-0.5c-0.5,0.3-1.1,0.7-1.6,1c-2.6,1.4-4.9,0.5-6.5-1.5
					c-0.1-0.1-0.2-0.3-0.3-0.4c-0.3-0.2-0.6-0.4-0.8-0.4c-0.5,0.1-0.4,0.6-0.2,0.9c0.5,1,1,1.9,1.6,2.8c1.1,1.6,2.6,2.7,4,3.8
					c0.1,0.1,0.3,0.2,0.5,0.3c0.9,0.4,1.6,0.3,2.2-0.5C91,169.1,91.4,167.1,92,165.1C92,165.1,92,165.1,92,165.1"/>
				<path class="st3" d="M76.4,238.4c0.1-0.3,0.1-0.5,0.1-0.6c1.7-4.9,3-9.9,4.1-14.9c0.1-0.6,0.3-0.7,0.9-0.8
					c5.4-0.4,10.9-0.7,16.4-0.6c2.3,0.1,4.6-0.2,6.9-0.7c0.1,0,0.3,0,0.5-0.1c0,0.3,0,0.5-0.1,0.8c-0.7,5.4-1.4,10.7-2.2,16.1
					c-0.9,6.4-1,12.9-0.9,19.4c0,0.4,0.1,0.8,0.1,1.2c-0.2,0-0.4,0.1-0.5,0.1c-4.6,0-9.2,0.1-13.8,0.1c-3.6,0-7.2-0.1-10.8-0.8
					c-1.4-0.3-2.8-0.8-4.2-1.3c-0.3-0.1-0.6-0.4-0.8-0.7c-0.6-0.9-1.1-1.9-1.6-2.9c-0.1-0.2-0.1-0.6,0-0.8c0.8-1.8,1.7-3.7,2.6-5.5
					c0.2-0.3,0.5-0.6,0.8-0.8c3.3-1.5,6.7-2.9,10-4.3c0.6-0.3,0.9-0.8,0.8-1.4c-0.2-1.9-0.5-3.8-0.8-5.7c-0.2-1.1-1-1.3-1.9-0.6
					c-1.6,1.4-3.2,2.7-4.8,4.1C77,238,76.7,238.2,76.4,238.4"/>
				<path class="st3" d="M62.3,193.6c1.9,1.2,3.8,2.3,5.7,3.4c0.5,0.3,1.2,0.5,1.8,0.5c1.4,0.1,2.8,0.1,4.2,0.2
					c0.3,0,0.5,0.1,0.9,0.2c-2.1,0.6-4.2,1.1-6.1,1.8c-1.9,0.7-3.8,1.6-5.7,2.4c0,0.1,0.1,0.2,0.1,0.3c3.1-0.5,6.3-1.2,9.4-1.9
					c-0.1,0.2-0.3,0.3-0.4,0.5c-2.9,3.3-5.1,7.1-6.3,11.4c0,0.1-0.1,0.2-0.1,0.3c0.1,0.3,0.2,0.5,0.3,0.8c0.2-0.2,0.6-0.3,0.7-0.5
					c0.7-1.3,1.3-2.7,2-4c0.8-1.6,1.7-3.1,2.5-4.7c0,0-0.1-0.1-0.1-0.1l-1,1.3c0,0-0.1,0-0.1,0c0.1-0.1,0.1-0.2,0.2-0.3
					c1.2-1.6,2.3-3.3,3.6-4.8c0.4-0.5,1.3-0.5,1.9-0.8c-0.8,2.5-1.6,4.9-2.4,7.2c0.1,0,0.1,0.1,0.2,0.1c0.3-0.7,0.6-1.3,0.8-2
					c0.6-1.6,1.1-3.2,1.7-4.7c0.1-0.2,0.3-0.6,0.6-0.6c2.3-0.4,4.5-0.8,6.9-0.6c1.3,0.1,2.3,0.6,3.4,1.1c4.1,1.9,8.1,3.9,12.2,5.7
					c2.7,1.2,5.6,2,8.6,2.1c1,0,2-0.1,3.1-0.2c0,1.5,0.7,2.8,1.3,4.1c0.6,1.4,1.3,2.9,1.9,4.3c0.1,0.2,0.2,0.4,0.3,0.8
					c-0.9,0.1-1.7,0.4-2.6,0.4c-1.5,0-2.9,0.3-4.3,0.8c-3.3,1.2-6.6,1.7-10.1,1.6c-6.7-0.2-13.3,0.5-19.9,0.9c-4,0.2-8,0.6-12,0.8
					c-1.2,0.1-2.3,0-3.5,0c-1.2,0-1.9-0.7-2.3-1.7c-1.3-2.9-2-5.8-1.2-9c0.9-3.9,1.8-7.8,2.7-11.8C61.6,197.1,61.9,195.3,62.3,193.6
					 M102.9,216.8c-0.1,0.1-0.1,0.1-0.2,0.2c-0.6-0.2-1.2-0.3-1.7-0.6c-2.6-1.2-4.8-3-6.6-5.3c-0.1-0.1-0.2-0.3-0.3-0.4
					c-0.2-0.1-0.4-0.1-0.6-0.2c0,0.2-0.1,0.4,0,0.6c0.1,0.3,0.3,0.5,0.5,0.8c1.9,2.5,4.2,4.3,7.1,5.5c0.4,0.2,0.9,0.3,1.4,0.3
					c1,0.1,1.5-0.5,1.3-1.5c-0.1-0.4-0.3-0.9-0.4-1.3c-0.4-1.6-0.8-3.2-1.2-4.8c-0.1-0.5,0-0.9,0-1.4c0.1,0,0.1,0,0.2,0
					c1.3,2,2.3,4.2,4.1,5.9c-1.2-2.1-2.4-4.2-3.6-6.3c0-0.1-0.1-0.1-0.2-0.2c-0.4-0.4-0.8-0.3-1,0.2c-0.1,0.3-0.1,0.7-0.2,1
					c0,2.1,0.5,4,1.1,6C102.7,216,102.8,216.4,102.9,216.8"/>
				<path class="st5" d="M78.5,92.7c-0.1-0.3-0.3-0.4-0.3-0.6c-0.5-1.6-1-3.2-1.4-4.9c-0.3-1.5,0.1-2.8,0.9-4.1
					c1.9-2.8,4.3-5.1,7.3-6.8c6.1-3.6,12.8-4.8,19.8-4c3.4,0.4,6.8,0.9,10.1,1.9c6.9,2.1,10.3,9.4,10,14.7c0,0.4-0.1,0.6-0.6,0.6
					c-1.6-0.1-2.8,0.7-3.9,1.8c-0.5,0.5-0.9,1-1.3,1.6c-0.7,1-0.9,2.2-0.8,3.4c0.1,0.6,0.1,1.3,0.2,1.9c0,0.6-0.3,0.9-0.9,0.9
					c0,0,0,0-0.1,0c-1.9,0.1-2.3-0.2-2.4-2.1c-0.1-1.2-0.1-2.4,0-3.7c0.1-3-1-5.5-3-7.7c-2.1-2.1-4.5-2.9-7.4-2.1
					c-2.7,0.8-5.4,1.6-7.9,2.9c-0.3,0.2-0.7,0.4-1,0.6c-2.9,2.3-6.1,3.1-9.8,2.3c-1.3-0.3-2.7-0.3-4.1-0.4c-0.8,0-1.3,0.5-1.7,1.1
					C79.7,91.2,79.1,91.9,78.5,92.7"/>
				<path class="st4" d="M61.4,190.5c1.7,0.3,3.2,0.6,4.7,0.9c1.5,0.3,3,0.6,4.5,1c0.5,0.1,1,0.5,1.4,0.7c0.3,0.2,0.6,0.4,1,0.1
					c0.3-0.3,0.3-0.7,0.1-1c-0.4-0.7-1.1-1-1.9-1.2c-3.3-0.6-6.5-1.3-9.8-1.9c-0.6-0.1-1.3-0.3-1.9-0.5c-0.7-0.3-1.1-0.9-1.2-1.7
					c-0.1-0.4,0.1-0.6,0.5-0.7c0.3,0,0.7,0,1,0c1.2,0.1,2.4,0.4,3.5,0.3c2.6-0.1,5,0.3,7.5,1c1,0.3,1.9,0.7,2.5,1.5
					c0.3,0.4,0.8,0.6,1.2,0.2c0.4-0.4,0.2-0.8-0.1-1.2c-0.8-1.1-2-1.6-3.3-1.9c-2.5-0.7-5-1.2-7.7-1c-1.7,0.1-3.3-0.1-4.8-0.9
					c-0.8-0.4-1-0.8-0.5-1.6c0.1-0.2,0.2-0.4,0.4-0.5c1.3-0.8,2.6-1.2,4.2-0.9c0.8,0.2,1.6,0.2,2.4,0.4c2.8,0.7,5.7,1.4,8.5,2.2
					c0.4,0.1,0.9,0.3,1.3,0.3c0.5,0.1,0.9,0,1.1-0.5c0.2-0.5-0.2-0.8-0.7-0.9c-3.8-1-7.5-2.4-11.4-2.7c-0.5,0-0.9-0.1-1.1-0.7
					c-0.2-0.8-0.2-1,0.6-1.3c1.3-0.6,2.7-0.7,4.1-0.6c4.4,0.2,8.4,1.3,11.9,4.2c0.4,0.3,0.8,0.5,1.2,0.7c0.2,0.1,0.4,0,0.6-0.1
					c0.1-0.1,0.1-0.4,0-0.5c-0.1-0.3-0.3-0.5-0.6-0.7c-1.3-1.2-2.5-2.3-3.8-3.5c-0.2-0.2-0.5-0.4-0.7-0.7c-0.1-0.2-0.1-0.5-0.1-0.7
					c0.2,0,0.5-0.1,0.6,0c0.8,0.4,1.5,0.8,2.2,1.2c2.3,1.4,4.4,3,6.2,4.9c1.5,1.6,2.2,3.5,2.4,5.7c0.1,1.2,0.2,2.4,0.2,3.6
					c0,0.3-0.1,0.6-0.2,0.8c-0.8,1.6-1.7,3.2-2.6,4.8c-0.1,0.2-0.4,0.3-0.6,0.3c-1.8,0-3.6,0.1-5.4,0.1c-0.5,0-1.1,0-1.5-0.2
					c-2.4-0.9-5-1.2-7.6-1.2c-0.4,0-0.9-0.2-1.3-0.4c-1.4-0.8-2.7-1.5-4-2.4c-1-0.7-1.9-1.4-2.8-2.2C61.6,191,61.5,190.8,61.4,190.5
					"/>
				<path class="st6" d="M113.9,149.7c-0.2,1.3-0.4,2.6-0.7,3.8c-1.7,6.9-3.5,13.9-5.2,20.8c-0.7,2.8-1.3,5.7-1.9,8.5
					c-0.1,0.2-0.1,0.5-0.3,0.8c-0.1-0.2-0.1-0.3-0.2-0.5c-2-6.5-3.9-13-5.9-19.5c-1.4-4.5-3.7-8.5-6.3-12.4
					c-0.8-1.2-1.6-2.4-2.3-3.5c-0.1-0.1-0.1-0.3-0.2-0.4c2.2-0.5,4.3-1,6.5-1.5c-0.1-0.1,0,0,0,0c0.7,2.7,2.8,3.8,5.2,4.4
					c2.5,0.6,5.1,0.7,7.6,0.5c0.8-0.1,1.5-0.4,2.3-0.6c0.4-0.1,0.8-0.3,1.2-0.5L113.9,149.7z"/>
				<path class="st7" d="M169.5,450.3c-0.8,0-1.5,0-2.2,0c-2.2,0-4.1,0.8-5.7,2.3c-0.9,0.8-1.7,1.6-2.5,2.5
					c-1.5,1.7-3.4,2.4-5.6,2.6c-6.8,0.7-13.1-0.6-19.1-3.8c-2-1.1-3.3-2.9-4.5-4.7c-0.6-1-1-2-1.6-3.2c2.2-0.2,4-1.2,5.8-2
					c0.2-0.1,0.5,0.1,0.7,0.2c1.6,1.3,3.4,2.5,5.3,3.4c2.9,1.5,5.9,1.7,9,0.4c2.3-1,4.5-2.1,6.7-3.2c1.7-0.9,3.5-1.6,5.5-1.4
					c0.4,0.1,0.9,0.2,1.2,0.4c2.5,1.8,4.8,3.7,6.8,6.1c0.1,0.1,0.2,0.2,0.3,0.4C169.5,450.2,169.5,450.3,169.5,450.3"/>
				<path class="st7" d="M58.1,446.9c1.5-0.8,3-1.6,4.5-2.4c0.2,1.4,1.2,2.2,2.3,2.9c3.3,2.1,6.8,2.4,10.5,1.3
					c2.6-0.8,5.2-2,7.7-3.1c2.2-0.9,4.4-1.9,6.9-2.1c1.1-0.1,2.2,0,3.1,0.8c0.7,0.6,1.5,1,2.3,1.5c1.3,0.9,2.8,0.7,4.2,0.9
					c0.4,0.1,0.7,0.1,1.3,0.2c-0.5,1.1-0.9,2.2-1.4,3.2c-0.2,0.5-0.5,1-1.3,1c-0.6,0-1.1,0.4-1.7,0.6c-4.9,2.2-10,3.8-15.4,4.3
					c-2.8,0.2-5.6,0.3-8.4,0c-3-0.3-5.6-1.8-7.8-3.8c-0.7-0.6-1.3-1.2-2-1.8C61.6,449.1,60.1,447.7,58.1,446.9"/>
				<path class="st7" d="M140.9,259.5c0.2,1.8,0.5,3.6,0.7,5.4c0,0.1-0.3,0.4-0.5,0.4c-8.6,1.6-17.2,2.6-26,2.2
					c-3.7-0.2-7.3-0.3-11-0.5c-0.2,0-0.4,0-0.8-0.1c-0.1-2.2-0.2-4.3-0.3-6.5c0-0.4,0.2-0.4,0.5-0.4c2.2,0,4.3-0.1,6.5-0.1
					c6.5-0.1,13-0.3,19.4-0.4C133.3,259.4,137,259.5,140.9,259.5"/>
				<path class="st8" d="M97.2,453.5c-0.6,0.4-1.2,0.9-1.8,1.2c-8.2,5.1-17.2,7-26.7,6.8c-4.4-0.1-8.8-0.4-13.1-1.7
					c-1.8-0.5-3.4-1.3-4.9-2.4c-1.6-1.3-2.5-2.8-2.4-4.9c0-1,0.4-1.7,1.3-2.1c2-0.8,3.9-1.7,5.9-2.4c0.6-0.2,1.5,0,2.1,0.3
					c1,0.5,2,1.2,2.8,2c1.7,1.4,3.2,3.1,4.9,4.4c2.6,2,5.7,3.1,9.1,3.3c7.8,0.4,15.1-1.3,22.2-4.4c0.2-0.1,0.4-0.2,0.5-0.2
					C97.1,453.4,97.1,453.5,97.2,453.5"/>
				<path class="st4" d="M99.9,134.1c7.2-0.4,13.4-3.1,18.5-8c0.1,1.7,0.2,3.4,0.4,5.2c-1.3,0.7-2.7,1.4-4.2,2.1
					c-0.8,0.4-1.5,0.8-2.2,1.2c-1.1,0.6-1.2,1.1-0.9,2.3c0.5,1.6,1,3.1,1.6,4.6c0.6,1.7,0.9,3.5,0.9,5.3c0,0.5-0.2,0.7-0.7,0.9
					c-3.3,1.6-6.8,1.2-10.2,0.6c-0.9-0.1-1.7-0.6-2.5-1c-0.5-0.3-0.9-0.8-1.3-1.3c-0.4-0.4-0.3-0.8,0.1-1.3c0.9-1.1,1.2-2.5,1.3-3.8
					c0.1-2.1-0.2-4.2-0.6-6.2C100,134.6,100,134.4,99.9,134.1"/>
				<path class="st8" d="M90.4,442.1c-3.6,0.1-6.7,1.6-9.9,2.9c-2.3,1-4.7,2.1-7.3,2.4c-3.1,0.4-5.9-0.2-8.3-2.4
					c-0.3-0.3-0.6-0.6-0.8-1c-0.1-0.1,0.1-0.5,0.3-0.6c2.5-2,5-3.9,7.6-5.9c0.9-0.7,1.9-1.4,2.9-2.1c0.2-0.2,0.5-0.3,0.8-0.3
					c4.2-0.2,8,0.8,11.2,3.8C87.9,440,89.2,441,90.4,442.1"/>
				<path class="st7" d="M102,266.9c-2.2,0.4-29.5-1.6-31.1-2.3c0.3-2.2,0.7-4.5,1-6.7c0,0,0.1,0,0.2,0c2.9,1.4,6,1.8,9.2,2
					c6.6,0.5,13.2,0.2,19.8,0.2c0.3,0,0.5,0,0.7,0C101.8,262.4,101.9,264.6,102,266.9"/>
				<path class="st4" d="M127.5,215c-0.7-2.6-1.7-5-2.9-7.3c-0.5-0.9-0.6-2-1.1-2.9c-0.5-0.8-0.4-1.5-0.1-2.4
					c0.3-0.8,0.6-1.7,0.8-2.5c0.3-0.8,0.7-1.6,1.5-2c2.3-1.2,4.7-2.3,7-3.4c0,0,0.1,0,0.2,0c-0.1,0.8-0.3,1.5-0.4,2.3
					c-0.7,3.4-0.7,6.9-0.6,10.4c0,1.4-0.1,2.8-0.2,4.2c0,0.7-0.4,1.2-1,1.5C129.8,213.7,128.7,214.4,127.5,215"/>
				<path class="st8" d="M143.2,459.1c3.5,0.6,7,0.6,10.4,0.3c2.5-0.2,4.7-1.1,6.4-3c0.8-0.8,1.6-1.6,2.4-2.4
					c1.9-1.9,4.2-2.3,6.8-2.2c1.3,0.1,2.1,0.6,2.4,1.9c0.2,0.9,0.5,1.9,0.4,2.9c-0.1,1.7-1.1,2.9-2.6,3.5c-2,0.9-4,1.2-6.1,1.4
					c-6.5,0.7-12.9-0.1-19.2-2.1C143.8,459.3,143.5,459.2,143.2,459.1"/>
				<path class="st8" d="M136,442.9c3.3-1.7,6.4-3.4,9.9-4.3c0.6-0.2,1.2,0,1.9,0c3.8,0.4,7.4,1.3,10.8,2.9c0.2,0.1,0.4,0.2,0.7,0.3
					c-0.6,0.1-1.2,0.2-1.7,0.4c-1.6,0.7-3.1,1.4-4.6,2.1c-1.6,0.7-3.2,1.5-4.9,2.2c-2.3,0.9-4.5,0.7-6.8-0.3
					C139.4,445.4,137.7,444.3,136,442.9"/>
				<path class="st7" d="M118.2,216.8c-2,0.1-2,0.1-2.6-1.4c-0.9-2-1.9-4.1-2.8-6.1c-0.7-1.5-0.5-1.8,0.8-2.7
					c2.2-1.4,4.6-1.8,7.2-1.9c0.2,0,0.4,0.2,0.5,0.4c1.9,2.9,3.4,6,4.4,9.3c0.2,0.6,0,0.8-0.5,0.9
					C122.8,216.2,120.4,216.6,118.2,216.8"/>
				<path class="st3" d="M93.4,201.4c1.3-1.9,2.5-3.6,3-5.9c0.3,0.2,0.5,0.3,0.7,0.4c0.8,0.6,1.6,1.2,2.3,1.9c1.9,1.8,4,3.3,6.3,4.4
					c2,1,4.1,1.9,6.1,2.9c0.2,0.1,0.4,0.2,0.7,0.3c-0.5,0.6-1,0.9-1.8,1c-3.1,0.3-6-0.4-8.9-1.5C99,204,96.3,202.7,93.4,201.4"/>
				<path class="st2" d="M122,338.2c2.8,7,6.3,13.6,10.6,19.7c-3.9-2.4-7.6-5.2-11.8-7.4c0.1-0.1,0.2-0.3,0.3-0.4
					c0.7-1,0.8-2.1,0.4-3.2c-0.4-0.9-0.8-1.7-1-2.6c-0.2-0.6-0.2-1.3,0-1.8C120.8,341.1,121.4,339.7,122,338.2"/>
				<path class="st3" d="M98.9,137.4c0.2,2,0.4,3.8-0.3,5.7c-0.3,0.8-0.9,1.4-1.8,1.5c-2,0.3-3.9,0.7-5.9,1.1
					c-0.3,0.1-0.5,0.2-0.9,0.3c-1.1-1.6-2.2-3.3-3.4-5.1c0.6-0.2,1-0.5,1.6-0.6c2.5-0.7,5-1.3,7.5-1.9
					C96.6,138.1,97.7,137.8,98.9,137.4"/>
				<path class="st7" d="M86,197.7c1.6-1.6,2.4-3.5,3.4-5.5c0.4-0.8,0.6-1.7,0.8-2.5c0.1-0.4,0.4-0.6,0.8-0.4
					c0.7,0.4,1.5,0.7,2.2,1.2c1.8,1.3,2.4,3,1.8,5.2c-0.5,1.8-1.5,3.3-2.6,4.8c-0.1,0.1-0.3,0.1-0.5,0.1c-0.2,0-0.5-0.1-0.7-0.2
					C89.5,199.5,87.8,198.6,86,197.7"/>
				<path class="st3" d="M114.4,140.4c-0.5-1.4-0.9-2.6-1.3-3.9c-0.1-0.2,0.2-0.5,0.4-0.7c1.9-1.1,3.9-2.2,5.9-3.3
					c0.8-0.4,1.5-0.9,2.2-1.3c0.4,1.5,0.7,3,1,4.5c0,0.1-0.1,0.3-0.2,0.4C119.8,137.6,117.2,139,114.4,140.4"/>
				<path class="st7" d="M74.1,244.2c0.4-1.1,0.9-2.2,1.3-3.2c0.1-0.2,0.2-0.3,0.4-0.4c2.4-1.5,4.6-3.2,6.6-5.2c0,0,0.1-0.1,0.3-0.2
					c0.1,0.6,0.2,1.1,0.3,1.6c0.1,1,0.3,1.9,0.4,2.9c0,0.2-0.1,0.5-0.3,0.6c-2.9,1.3-5.7,2.5-8.6,3.8
					C74.4,244.1,74.3,244.1,74.1,244.2"/>
				<path class="st7" d="M115.6,144.8c-0.3-1.2-0.5-2.3-0.8-3.3c2.8-1.4,5.5-2.8,8.3-4.1c0.5,0.9,1.1,1.7,1.7,2.7
					C121.8,141.7,118.7,143.2,115.6,144.8"/>
				<path class="st6" d="M104,192.5c0.2-1.3,0.3-2.7,0.5-4c0.1-0.4,0.2-0.8,0.8-0.8c0.2,0,0.4-0.1,0.6-0.2c1-0.6,1.8-0.2,1.9,0.9
					c0.2,1.7-0.1,3.3-0.5,5c-0.1,0.3-0.4,0.6-0.7,0.7c-0.5,0.2-1,0.2-1.5,0.2c-0.7,0-0.9-0.1-1-0.9
					C104.1,193.1,104.1,192.8,104,192.5C104.1,192.5,104.1,192.5,104,192.5"/>
				<path class="st5" d="M124.1,111.7c-0.1-0.6-0.2-1.2-0.3-1.8c0-0.1,0-0.2,0-0.3c0.4,0,0.7-0.1,1.2-0.1c-0.3,0.8-0.6,1.6-0.8,2.3
					C124.2,111.7,124.2,111.7,124.1,111.7"/>
				<path class="st1" d="M88.1,370c3.5-6.2,8.5-11.4,11.5-17.9c0,0.4,0,0.8-0.1,1.1c-0.4,1.8-1.3,3.4-2.3,5
					c-2.6,4.1-5.7,7.8-8.9,11.4C88.3,369.7,88.2,369.9,88.1,370"/>
				<path class="st1" d="M128.7,167.4c0,1.2,0,2.3,0,3.5c0,0.4-0.2,1-0.4,1.3c-1.1,1.6-2.3,3.2-3.6,4.6c-0.9,1.1-1.2,1.1-2.5,0.4
					c-1.4-0.8-2.7-1.6-4-2.5c-0.9-0.6-1.3-1.5-1.3-2.6c0-1.5,0-3,0-4.6c0-0.8-0.1-1.7-0.2-2.5c-0.2-1.3,0-1.7,1.4-1.9
					c1.9-0.2,3.9-0.3,5.9-0.4c1.1-0.1,2.2-0.3,3.3-0.4c1.1-0.1,1.5,0.2,1.6,1.3c0.1,1.3,0,2.5,0,3.8
					C128.9,167.4,128.8,167.4,128.7,167.4 M127.6,167.4c0.1,0,0.1,0,0.2,0c0.1-0.9,0.1-1.7,0.2-2.6c0.1-1.6,0.1-1.5-1.4-1.4
					c-2.7,0.3-5.3,0.5-8,0.8c-0.5,0-0.7,0.2-0.7,0.7c0.1,2.6,0.2,5.1,0.3,7.7c0,0.4,0.3,0.8,0.6,1c1.2,0.8,2.5,1.6,3.7,2.4
					c0.7,0.5,1.1,0.3,1.6-0.3c1-1.4,2.1-2.7,3.1-4.1c0.2-0.3,0.3-0.6,0.3-0.9C127.6,169.6,127.6,168.5,127.6,167.4"/>
				<path class="st1" d="M142.5,182.8c-1.7,2.8-3.6,5.3-5.9,7.6C138.2,187.6,140.3,185.2,142.5,182.8"/>
				<path class="st1" d="M96.2,111.9c-1.5,0.2-2.9,0.5-4.3,0.5c-2.8,0-5.1-2-5.4-4.7c-0.4-3.1,1.9-5.4,5-4.8
					c2.1,0.4,3.8,1.4,5.2,2.9c1.5,1.7,1.8,3.6,1.3,5.7c-0.2,1-0.6,2-1,2.9c-0.4,0.9,0.2,2,1.2,2.1c0.8,0.1,1.6,0.3,2.3,0.4
					c0.2,0,0.3,0.3,0.5,0.4c-0.1,0.1-0.3,0.3-0.4,0.4c-2.3,1.3-4.9,0.1-5.3-2.4c-0.1-0.6,0.1-1.2,0.3-1.8
					C95.7,113.1,96,112.5,96.2,111.9 M91.2,104.7c-1.7-0.4-2.8,0.4-3,2.1c-0.2,1.8,1,3.4,3,3.9c1.8,0.4,3.4-0.3,5-0.8
					c0.1,0,0.2-0.1,0.2-0.2c0.2-0.4-0.1-1.8-0.5-2.2c-0.1,0.4-0.2,0.7-0.4,1.1c-0.5,1.1-1.6,1.8-2.7,1.8c-1.1-0.1-2-0.8-2.4-2.1
					C90.1,107,90.3,105.8,91.2,104.7 M91.5,107c0.1,0.4,0.2,1,0.5,1.4c0.2,0.3,0.7,0.6,1.1,0.6c0.7,0.1,1.3-0.7,1.6-1.6
					c0.2-1,0.2-1-0.7-1.6c-0.2-0.1-0.5-0.3-0.7-0.4c-0.7-0.4-1.2-0.2-1.5,0.5C91.7,106.2,91.7,106.5,91.5,107"/>
				<path class="st1" d="M106.3,107.5c-0.3,0-0.6-0.1-1-0.1c-3-0.1-3.9-2.7-3.4-4.9c0.6-2.7,2.7-3.9,5.1-4.5
					c1.3-0.3,2.5-0.2,3.7,0.3c2,0.9,3,2.9,2.2,4.9c-1,2.6-3,3.9-5.8,4.2C106.9,107.5,106.6,107.5,106.3,107.5 M109.9,99.7
					c0.9,1.7,0.8,3.4-0.2,4.6c-1.1,1.3-3,1.1-3.8-0.4c-0.5-0.9-0.6-1.9-0.3-3c0.1-0.3,0.2-0.7,0.4-1.1c-1.7,0.7-2.6,1.8-2.9,3.5
					c-0.2,1.2,0.3,2,1.5,2.2c1.1,0.3,2.3,0.3,3.4,0c1.7-0.5,3.1-1.5,3.5-3.3C111.8,101.2,111.2,100.1,109.9,99.7 M106.3,101.8
					c0.2,0.5,0.2,1,0.5,1.5c0.5,0.9,1.5,1,2.1,0.1c0.6-0.8,0.7-1.6,0.3-2.5c-0.3-0.9-1-1.1-1.9-0.8
					C106.7,100.3,106.4,100.9,106.3,101.8"/>
				<path class="st1" d="M102.1,126.3c-1.3-0.3-2.6-0.5-3.8-0.9c-0.8-0.3-1.5-0.8-2.3-1.3c-0.5-0.3-0.4-1,0.2-1.3
					c1.7-0.7,3.3-1.5,5-2.2c2.7-1.1,5.5-2,8.2-3c0.3-0.1,0.6-0.2,0.9-0.4c0.5-0.3,1-0.8,1.5-0.3c0.5,0.4,0.8,1,0.7,1.8
					c-0.3,2.5-1.7,4.2-3.8,5.5c-2,1.2-4.3,1.8-6.6,1.9L102.1,126.3z M98.9,123c0.9,1.4,0.9,1.4,2.3,1.4c0.9,0,1.8,0,2.7-0.2
					c2.3-0.4,4.3-1.3,5.8-3.2c0.6-0.7,0.9-1.5,1-2.5C106.8,120,102.9,121.5,98.9,123"/>
				<path class="st1" d="M108.7,96c-3-0.3-5.5,0.7-7.9,2.4c-0.1,0.1-0.3,0.3-0.4,0.3c-0.2,0-0.6,0-0.7-0.1c-0.2-0.1-0.2-0.5-0.2-0.7
					c0.1-0.3,0.3-0.5,0.5-0.7c2.4-2,5.1-3.1,8.3-3c0.3,0,0.6,0.1,0.8,0.2c0.5,0.2,0.7,0.5,0.6,1C109.6,95.9,109.2,96,108.7,96"/>
				<path class="st1" d="M89.5,98.6c0.3,0.1,0.9,0.3,1.5,0.5c0.8,0.3,1.6,0.7,2.4,1.1c0.2,0.1,0.3,0.4,0.5,0.7
					c-0.2,0.1-0.5,0.4-0.7,0.4c-0.7-0.1-1.3-0.2-2-0.4c-0.1,0-0.2-0.1-0.2-0.1c-2.1-0.8-2.8-0.6-4.2,1.3c-0.2,0.3-0.4,0.7-0.7,0.9
					c-0.2,0.2-0.7,0.3-0.9,0.1c-0.2-0.2-0.4-0.6-0.4-0.9C85,100.7,87.6,98.6,89.5,98.6"/>
				<path class="st1" d="M124.6,93.7c-0.4,0.5-0.8,1.1-1.2,1.6c-0.8,1.1-1.1,2.2-1,3.6c0,0.4,0.1,0.6,0.6,0.7c1.7,0.3,2.7,2.3,2,3.9
					c-0.2,0.4-0.5,0.7-0.8,0.5c-0.2-0.1-0.4-0.5-0.5-0.8c-0.1-0.2,0-0.5,0-0.8c0-1.3-0.3-1.7-1.5-1.9c-0.5-0.1-0.5-0.4-0.7-0.8
					c-0.5-1.5-0.2-3,0.5-4.3c0.5-1,1.3-1.7,2.4-1.9C124.5,93.6,124.6,93.6,124.6,93.7"/>
				<path class="st1" d="M132.9,254c-1,0-1.4-0.6-1.6-1.2c-1.2-2.8-2.9-5.3-4.8-7.7c-1.3-1.6-2.6-3.1-3.9-4.7
					c-0.5-0.6-0.9-1.2-1.4-1.7c-0.4-0.5-0.4-1.1,0-1.6c0.9-1.1,2.1-2,3.4-2.6c0.6-0.3,1.1-0.1,1.4,0.4c0.2,0.3,0.4,0.6,0.5,0.9
					c0.9,2.2,2.3,4.1,3.7,6c1.9,2.6,3.8,5.2,6.1,7.5c0.4,0.4,0.8,0.7,1.1,1.1c0.4,0.4,0.5,0.9,0,1.3
					C136.2,252.9,134.6,253.5,132.9,254 M125.1,235.7c-0.7,0.5-1.4,0.9-1.9,1.4c-1,0.9-0.9,0.6-0.2,1.6c0.2,0.3,0.4,0.5,0.6,0.8
					c2.3,2.8,4.8,5.4,6.7,8.5c0.8,1.3,1.5,2.7,2.2,4.1c0.1,0.2,0.2,0.6,0.6,0.4c1-0.5,2.1-0.9,3.2-1.4
					C131.6,246.6,128.4,241.2,125.1,235.7"/>
				<path class="st1" d="M92,165.1C92,165.1,92,165.1,92,165.1c-0.6,2-1,4-2.1,5.6c-0.6,0.8-1.3,0.9-2.2,0.5
					c-0.2-0.1-0.4-0.2-0.5-0.3c-1.5-1.2-3-2.3-4-3.8c-0.6-0.9-1.1-1.9-1.6-2.8c-0.2-0.3-0.2-0.8,0.2-0.9c0.2-0.1,0.6,0.2,0.8,0.4
					c0.1,0.1,0.2,0.3,0.3,0.4c1.6,2,3.9,2.9,6.5,1.5c0.6-0.3,1.1-0.7,1.6-1C91.5,164.4,91.9,164.6,92,165.1 M83.6,166.4
					c1.4,1.4,2.8,2.9,4.5,3.9c0.4,0.2,0.8,0,0.9-0.4c0.6-1.2,1.1-2.5,1.7-3.7c-0.1,0-0.1-0.1-0.2-0.1C88.3,167.6,86,168,83.6,166.4"
					/>
				<path class="st1" d="M102.9,216.8c-0.1-0.4-0.2-0.9-0.4-1.3c-0.6-1.9-1.1-3.9-1.1-6c0-0.3,0-0.7,0.2-1c0.2-0.5,0.6-0.6,1-0.2
					c0.1,0.1,0.1,0.1,0.2,0.2c1.2,2.1,2.5,4.1,3.6,6.3c-1.8-1.7-2.8-3.9-4.1-5.9c-0.1,0-0.1,0-0.2,0c0,0.5-0.1,1,0,1.4
					c0.4,1.6,0.8,3.2,1.2,4.8c0.1,0.4,0.3,0.9,0.4,1.3c0.2,1-0.3,1.6-1.3,1.5c-0.5,0-1-0.2-1.4-0.3c-2.9-1.2-5.2-3.1-7.1-5.5
					c-0.2-0.2-0.4-0.5-0.5-0.8c-0.1-0.2,0-0.4,0-0.6c0.2,0.1,0.4,0.1,0.6,0.2c0.1,0.1,0.2,0.3,0.3,0.4c1.8,2.2,4,4,6.6,5.3
					c0.6,0.3,1.2,0.4,1.7,0.6C102.8,217,102.8,216.9,102.9,216.8"/>
				<path class="st6" d="M127.6,167.4c0,1.1,0,2.2,0,3.3c0,0.3-0.1,0.7-0.3,0.9c-1,1.4-2.1,2.7-3.1,4.1c-0.5,0.6-0.9,0.7-1.6,0.3
					c-1.2-0.8-2.5-1.6-3.7-2.4c-0.3-0.2-0.6-0.7-0.6-1c-0.1-2.6-0.2-5.1-0.3-7.7c0-0.5,0.2-0.7,0.7-0.7c2.7-0.2,5.3-0.5,8-0.8
					c1.5-0.2,1.5-0.2,1.4,1.4c-0.1,0.9-0.1,1.7-0.2,2.6C127.7,167.4,127.6,167.4,127.6,167.4"/>
				<path class="st9" d="M91.2,104.7c-0.9,1.1-1,2.3-0.6,3.5c0.4,1.2,1.3,2,2.4,2.1c1.1,0.1,2.1-0.6,2.7-1.8
					c0.2-0.3,0.3-0.7,0.4-1.1c0.4,0.4,0.7,1.8,0.5,2.2c0,0.1-0.1,0.2-0.2,0.2c-1.6,0.5-3.3,1.2-5,0.8c-2-0.5-3.2-2-3-3.9
					C88.4,105.2,89.5,104.3,91.2,104.7"/>
				<path class="st5" d="M91.5,107c0.1-0.4,0.2-0.7,0.3-1c0.3-0.8,0.7-0.9,1.5-0.5c0.3,0.1,0.5,0.3,0.7,0.4c0.9,0.5,0.9,0.6,0.7,1.6
					c-0.2,0.9-0.9,1.7-1.6,1.6c-0.4,0-0.9-0.3-1.1-0.6C91.8,107.9,91.7,107.4,91.5,107"/>
				<path class="st9" d="M109.9,99.7c1.2,0.3,1.9,1.4,1.6,2.7c-0.5,1.8-1.8,2.8-3.5,3.3c-1.1,0.3-2.3,0.3-3.4,0
					c-1.2-0.3-1.7-1.1-1.5-2.2c0.3-1.7,1.2-2.8,2.9-3.5c-0.2,0.4-0.3,0.7-0.4,1.1c-0.3,1-0.2,2,0.3,3c0.8,1.5,2.7,1.7,3.8,0.4
					C110.8,103.2,110.9,101.5,109.9,99.7"/>
				<path class="st5" d="M106.3,101.8c0.1-1,0.4-1.5,1-1.8c0.9-0.3,1.5,0,1.9,0.8c0.4,0.9,0.3,1.8-0.3,2.5c-0.6,0.8-1.6,0.8-2.1-0.1
					C106.6,102.9,106.5,102.3,106.3,101.8"/>
				<path class="st9" d="M98.9,123c4-1.5,7.9-3,11.9-4.5c-0.1,1.1-0.5,1.9-1,2.5c-1.5,1.9-3.6,2.8-5.8,3.2c-0.9,0.2-1.8,0.2-2.7,0.2
					C99.8,124.4,99.8,124.4,98.9,123"/>
				<path class="st7" d="M125.1,235.7c3.3,5.5,6.6,10.9,11.2,15.4c-1.1,0.5-2.2,1-3.2,1.4c-0.4,0.2-0.5-0.2-0.6-0.4
					c-0.7-1.4-1.4-2.8-2.2-4.1c-1.9-3.1-4.4-5.7-6.7-8.5c-0.2-0.2-0.4-0.5-0.6-0.8c-0.7-1-0.8-0.7,0.2-1.6
					C123.7,236.6,124.4,236.2,125.1,235.7"/>
				<path class="st6" d="M83.6,166.4c2.4,1.5,4.7,1.2,7-0.3c0.1,0,0.1,0.1,0.2,0.1c-0.6,1.2-1.1,2.5-1.7,3.7
					c-0.2,0.4-0.5,0.6-0.9,0.4C86.4,169.3,85,167.9,83.6,166.4"/>
			</g>
		</g>
	</g>
	<g>
		<g>
			<defs>
				<rect id="SVGID_5_" x="144.9" y="69.1" width="235" height="416.5"/>
			</defs>
			<clipPath id="SVGID_6_">
				<use xlink:href="#SVGID_5_"  style="overflow:visible;"/>
			</clipPath>
			<g class="st10">
				<defs>
					<rect id="SVGID_7_" x="144.9" y="69.1" width="235" height="416.5"/>
				</defs>
				<clipPath id="SVGID_8_">
					<use xlink:href="#SVGID_7_"  style="overflow:visible;"/>
				</clipPath>
				<path class="st11" d="M218.7,411.5c0.5-2.6,1.1-5.1,1.5-7.7c1.4-9.2,2.7-18.5,4.1-27.7c0.9-6,1.8-12,2.7-18.1
					c1-7.2,1.7-14.3,1.8-21.6c0-0.3,0-0.5,0-0.8c-1.2-0.1-2.3-0.2-3.4-0.3c-1.4-0.2-2.9-0.5-4.3-0.8c-0.4-0.1-0.8-0.3-1.2-0.5
					c-1.1-0.6-1.4-1.4-0.9-2.6c0.5-1,1.1-2.1,1.5-3.1c3-7.8,5.3-15.9,7.2-24c2.4-10.1,4.6-20.3,6.9-30.5c0.3-1.3,0.6-2.5,1-3.8
					c0.1-0.2,0.1-0.4,0.2-0.8c-1,0.2-1.8,0.4-2.6,0.6c-0.6,0.1-1.2,0.5-1.7,0c-0.5-0.6-0.2-1.1,0.1-1.7c2.5-5.8,3.6-11.8,4.4-18
					c1-7.9,1.5-15.9,1.7-23.9c0.1-5.4,0.1-10.9,0.2-16.3c0-0.2,0-0.4,0-0.7c-1.7,0-3.3-0.1-4.9,0c-3.1,0.1-6.1,0.3-9.2,0.6
					c-8.1,0.7-16,2-23.9,3.5c-2.2,0.4-4.4,0.8-6.6,1.2c-0.4,0.1-0.7,0.3-1.1,0.5c-4,1.6-8.1-0.7-8.7-4.9c-0.4-2.9-0.1-5.8,1.1-8.4
					c0.8-1.9,1.8-3.8,3-5.5c1.9-2.9,3.5-6,4.7-9.3c1-2.8,2.2-5.5,3.6-8.1c2-3.7,3.8-7.5,5.8-11.2c1.5-2.7,3.2-5.3,4.9-7.9
					c0.5-0.7,1.1-1.3,1.6-1.9c0.8-0.9,1.7-1.2,2.8-0.8c0.4,0.1,0.7,0.1,0.9-0.2c0.1-0.2,0.3-0.3,0.4-0.4c1.3-1.3,2.1-1.4,3.7-0.4
					c1,0.6,1.8,1.1,3.1,0.6c1-0.4,2,0,2.6,0.9c1.8,2.5,3.3,5.1,3.9,8.1c0.2,1.1,0,2.1-0.8,2.9c-0.1,0.1-0.2,0.2-0.2,0.3
					c-0.9,2-2.5,3-4.5,3.3c-0.5,0.1-0.6,0.2-0.6,0.7c-0.4,3.3-3.7,6.8-7,7.3c-0.9,0.1-1.9,0-2.9,0.1c-0.3,0-0.6,0.1-0.8,0.2
					c-1.1,0.7-2.3,1.4-3.4,2.2c-0.5,0.4-0.9,1.1-1.2,1.7c-0.9,1.9-1.2,4-1.4,6.1c-0.2,2.9-0.4,5.7-0.7,8.6c0,0.6-0.1,1.2-0.2,1.9
					c0.9-0.1,1.7-0.1,2.5-0.2c2-0.3,3.9-1.2,5.8-2.1c6.3-3.1,12.5-6.3,18.8-9.4c2.4-1.2,4.9-1.9,7.5-2.3c4.5-0.7,9.1-0.8,13.6-0.1
					c1.1,0.2,1.6-0.2,1.7-1.5c0.1-2.7,0.1-5.3-0.4-8c-0.1-0.9-0.5-1.4-1.3-1.9c-3.7-2.4-6.4-5.5-8.1-9.6c-0.2-0.4-0.4-0.4-0.8-0.4
					c-6.6,0.1-12.3-4.6-13.7-11c-0.6-2.6-0.4-5.2,0.6-7.7c0.5-1.2,1.2-2.2,2.3-3.1c-0.3-0.3-0.5-0.5-0.8-0.7
					c-1.3-1.3-1.7-2.8-1.2-4.6c0.5-1.9,1.6-3.4,3-4.6c0.5-0.4,0.6-0.7,0.3-1.3c-0.5-1.1-0.3-2,0.6-2.8c0.5-0.5,1-0.9,1.6-1.3
					c0.4-0.3,0.5-0.5,0.2-0.9c-2-2.9-1.7-5.8,0-8.7c1.5-2.6,3.5-4.6,5.7-6.5c0.7-0.6,1.3-1.1,2-1.7c0.8-0.6,1.6-0.8,2.6-0.5
					c1,0.4,2,0.7,2.9,1.2c0.6,0.3,1.2,0.4,1.9,0.3c2-0.3,3.9-0.6,5.9-0.7c2.3-0.1,4.3,0.7,6,2.3c0.4,0.4,0.8,0.4,1.3,0.2
					c1-0.4,2-0.8,3-1.1c1.3-0.4,2.6-0.7,4-0.5c2.6,0.4,4.2,2,5.4,4.2c0.1,0.3,0.2,0.5,0.4,0.8c0.3-0.1,0.5-0.2,0.8-0.3
					c2-1,3.9-0.9,5.9,0c1.5,0.7,2.8,1.7,3.8,3.1c1,1.3,1.3,2.6,0.7,4.2c0.9,0.1,1.8,0.1,2.6,0.2c1.8,0.3,3.6,0.8,4.9,2.1
					c1.7,1.7,2,3.6,0.8,5.7c-0.1,0.2-0.1,0.5,0,0.6c1.3,1.5,1.3,3.5-0.6,5.1c-0.1,0.1-0.3,0.2-0.4,0.4c0.2,0.3,0.4,0.6,0.5,1
					c0.4,1.1,0.2,2.1-0.6,2.9c-0.3,0.3-0.5,0.6-0.3,1.1c0.1,0.3,0.2,0.7,0,0.9c-0.3,0.5-0.1,0.8,0.3,1.2c0.9,1,1.3,2.2,1.4,3.5
					c0.4,5.2-1.2,9.5-5.3,12.8c-0.9,0.7-2.1,1.2-3.1,1.7c-0.6,0.2-1.3,0.2-1.9,0.3c0-0.1-0.1-0.1-0.1-0.2c-0.1,0.2-0.2,0.4-0.2,0.6
					c-1.4,3.9-3.5,7.4-7,9.8c-0.9,0.7-1.5,1.6-2.2,2.4c-0.3,0.3-0.3,0.9-0.4,1.4c0,1.4-0.1,2.7,0.1,4.1c0.1,0.8,0.5,1.6,0.9,2.3
					c0.7,1.3,1.5,2.6,2.3,3.9c0.5,0.9,1.4,1.2,2.4,1.2c2,0,4,0,6,0c2.9-0.1,5.6,0.5,8.2,1.7c4,1.8,7.9,3.7,11.9,5.6
					c4.5,2.2,9.1,3.9,13.8,5.5c0.6,0.2,1.2,0.4,1.8,0.6c0-0.4,0-0.7-0.1-1.1c-0.2-3.9,0.4-7.6,1.9-11.2c0.9-2,1.5-4.1,1.7-6.3
					c0.3-2.9-0.8-5.1-3.1-6.7c-1-0.7-2-1.3-3.2-1.4c-1.9-0.3-3.5-1.2-4.9-2.4c-1.5-1.3-1.8-2.5-1.1-4.4c0.2-0.6,0.2-0.9-0.3-1.3
					c-1.2-1-1.8-2.2-1.9-3.8c0-0.2-0.1-0.3-0.2-0.5c-0.6-0.8-0.9-1.7-0.7-2.6c0.3-1.4,0.5-2.8,0.9-4.1c0.7-2.4,3.4-3.5,5.7-2.5
					c0.4-0.4,0.7-0.8,1.1-1.2c0.7-0.6,1.1-0.7,1.9-0.3c1.3,0.7,2.6,1.3,3.9,2c1.5,0.8,3,1.4,4.6,1.6c1.7,0.2,2.6,1.1,3,2.8
					c2.2,8.7,3.9,17.4,4.6,26.4c0.5,6.8,1.3,13.6,1.9,20.5c0.2,2.2,0.4,4.4-0.2,6.6c-0.6,2.6-2.6,4.1-5.2,4.1c-0.9,0-1.8,0-2.7,0
					c-4.8,0.4-9.5,0-14.2-0.6c-6.7-0.8-13.5-1.7-20.2-2.6c-0.5-0.1-1-0.2-1.5-0.4c-0.5-0.1-1-0.2-1.5-0.4c0.1,0.9,0.1,1.7,0.1,2.6
					c0.8,9.7,0.5,19.4,0.1,29.1c-0.3,6.5-0.4,13.1-0.6,19.6c0,1.4,0.2,2.8,0.2,4.2c0,1.1-0.3,1.4-1.4,1.5c0,0.1,0,0.1,0,0.2
					c1.4,3.1,1.8,6.5,2.6,9.8c2.6,11.1,5.9,21.9,9.4,32.7c1.5,4.5,2.9,9,3.6,13.7c0.2,1.4,0.2,2.8,0.3,4.2c0,0.3,0,0.6,0.1,0.8
					c0.4,1.3,0.1,2.1-1.1,2.9c0,0.1,0,0.2,0,0.3c3.4,12.8,6.2,25.7,8.9,38.7c1.8,8.9,4.6,17.4,7.7,25.9c1.1,2.9,2.2,5.8,3.2,8.7
					c0.1,0.4,0.3,0.6,0.7,0.7c1.1,0.3,1.9,1.1,2.5,2c0.6,1,1.2,2.1,1.6,3.3c1.4,3.4,3.4,6.3,5.9,8.9c1.9,2,3.8,4.2,5.5,6.4
					c2.5,3.4,2.3,7.1,0.9,10.8c-0.5,1.4-1.6,2.4-2.9,3.1c-2.8,1.6-5.8,2.2-9,2.2c-5.1,0.1-10.1-0.6-14.8-2.8
					c-3.3-1.5-5.6-3.9-6.2-7.5c-0.3-1.4-0.1-2.8,0.3-4.2c0.7-2.1,1.4-4.2,2.1-6.3c0.9-3,0.6-6-0.6-8.9c-0.5-1.2-0.9-2.4-0.9-3.8
					c0-1.9,0.6-2.4,2.5-2.3c0.4,0,0.9,0.1,1.5,0.2c-0.6-0.7-1.1-1.3-1.6-2c-2.4-3-4.9-6-7.3-9c-3.2-4.1-5.5-8.8-7.7-13.5
					c-1.6-3.5-3.1-7-4-10.8c-0.7-3.2-1-6.5-1.3-9.8c-0.6-6.2-1.3-12.4-2.4-18.6c-0.3-1.8-1.1-3.3-2.3-4.7c-1.2-1.3-2.4-2.6-3.6-3.8
					c-0.2-0.2-0.5-0.3-0.8-0.2c-3.1,0.2-6.3,0.4-9.4,0.6c-1.1,0.1-2.1,0-3.2-0.1c-1.7-0.2-2.3-1-2-2.7c0-0.2,0-0.4,0.1-0.5
					c0.9-2.6,0.7-5.2,0.1-7.8c-1-4.3-2-8.6-3.1-12.9c-1-4.2-2.1-8.3-3.2-12.5c0-0.2-0.1-0.3-0.2-0.5c-0.7,3.5-1.5,7-2.2,10.4
					c-1.3,6.4-2.5,12.7-3.8,19.1c-0.2,0.9-0.5,1.9-0.7,2.8c-0.4,1.4-1.4,2.1-2.8,2.1c-0.6,0-1.3,0-2,0c0.1,1.1,0.2,2,0.2,3
					c0.3,4.5-0.4,8.8-1.3,13.2c-1.9,9.9-5.1,19.5-9.2,28.7c-2.9,6.4-5.3,13.1-7.5,19.8c-1.6,5-1.1,9.9,0.4,14.8
					c0.1,0.2,0.4,0.5,0.6,0.5c1.7,0.5,2.6,1.7,2.7,3.5c0.1,2.7-0.4,5.4-0.8,8c-0.2,1.2-0.4,2.4-0.6,3.6c-0.1,0.7-0.3,1.4-0.6,2.1
					c-0.5,1.1-1.3,1.8-2.6,1.9c-4.8,0.6-9.5,1.2-14.3,2c-3.8,0.6-7.5,1.5-11.2,2.2c-6.4,1.3-12.8,1.5-19.3,1.1
					c-0.4,0-0.8-0.1-1.2-0.1c-2-0.2-3.3-1.4-4-3.3c-1-2.5-0.9-5,0-7.5c1.1-3.3,3.1-6,6-8c2.2-1.6,4.7-2,7.3-1.3
					c0.8,0.2,1.6,0.4,2.4,0.7c3.1,1,6.1,0.6,8.9-1c2.8-1.6,5.3-3.6,7.3-6.2c0.5-0.6,1.1-1.2,1.7-1.6c1.1-0.8,2.1-0.6,2.8,0.6
					c0,0.1,0.1,0.1,0.1,0.2C218.6,411.6,218.7,411.5,218.7,411.5 M289.9,267.3c0-0.2,0-0.5,0-0.8c0-2.3-0.1-4.6-0.1-7
					c0.1-4.2,0.2-8.4,0.4-12.6c0.4-9.5,1.1-19,0.3-28.6c-0.3-3.4,0-6.7-0.6-10.1c-0.4-2.3-0.5-4.8-0.6-7.1
					c-0.2-3.4-0.6-6.8-0.2-10.2c-2.1-0.3-4.2-0.2-6.3-0.2c0,0.7,0,1.3,0,1.9c-0.1,1.2-0.3,2.3-1.3,3.1c-3.2,2.6-6.6,4.8-10.5,6
					c-4.3,1.2-8.6,1.4-13,1c-2.9-0.3-5.8-0.8-8.4-2.2c-2.3-1.2-3.9-3-4.6-5.6c-0.5-2.1-0.9-4.2-1.3-6.3c-0.1-0.4-0.2-0.6-0.6-0.6
					c-1.1,0-2.2,0-3.3,0.1c-0.7,0-1.4,0.2-2.2,0.2c0,0.3,0.1,0.5,0.1,0.8c0.5,4.6,1.1,9.2,1.4,13.8c0.9,16.1,0.4,32.1-1.5,48.1
					c-0.7,5.5-1.7,10.9-3.8,16.1c-0.1,0.2-0.2,0.5-0.3,0.7c5.9-0.3,6.9-0.2,12.8,1.3c2.2,0.6,4.5,1.2,6.7,1.8
					c6.7,1.8,13.5,2.4,20.4,1.1c4.9-0.9,9.7-2.4,14.4-4.2C288.4,267.7,289.1,267.6,289.9,267.3 M292.5,334c-0.4-1.2-0.7-2.2-1-3.3
					c-1.8-5.9-3.7-11.9-5-18c-0.6-3-1-6-1.8-9c-2.4-9.3-4.5-18.6-6.1-28c-0.1-0.9-0.3-1.8-0.4-2.7c-0.3,0.1-0.5,0.1-0.7,0.2
					c-5.9,1.4-11.8,2-17.8,1.1c-4-0.5-7.8-1.6-11.7-2.7c-3.3-0.9-6.5-1.8-9.9-2.1c-0.9-0.1-0.9-0.1-1.1,0.8
					c-1.6,7.4-3.2,14.8-4.8,22.2c-2,9.4-4.1,18.8-7.1,28c-1.3,3.9-2.4,7.9-4.4,11.6c0,0.1,0,0.2-0.1,0.3c0.2,0.1,0.4,0.2,0.6,0.3
					c0.8,0.2,1.6,0.4,2.4,0.5c5,0.7,10,0.9,15,1c3.2,0.1,6.4-0.1,9.6-0.8c1.4-0.3,2.8-0.3,4.1-0.4c1.1-0.1,1.4-0.2,1.6-1.2
					c0.8-3.4,1.5-6.9,2.2-10.3c1.7-8.1,3.3-16.2,4.9-24.3c0.1-0.4,0.3-0.9,0.3-1.3c-0.3-2.8-0.7-5.7-1.1-8.5
					c-0.2-1.5-0.4-1.7-1.9-1.9c-1.8-0.3-3.6-0.5-5.4-0.8c-0.7-0.1-1.5-0.3-2.2-0.5c-0.2-0.1-0.3-0.5-0.5-0.7
					c0.3-0.1,0.5-0.3,0.8-0.4c0.1,0,0.2,0,0.3,0c2.3,0.2,4.5,0.5,6.8,0.7c0.5,0.1,1.1,0.2,1.6,0.3c1.1,0.3,1.8,1,2,2.1
					c0.1,0.4,0.1,0.8,0.2,1.2c0.3,2.2,0.5,4.4,0.9,6.6c1.1,6.6,3,13.1,4.6,19.6c1.1,4.4,2.2,8.9,3.1,13.3c0.5,2.4,0.7,4.8-0.2,7.2
					c-0.1,0.3-0.1,0.6-0.2,0.9c-0.1,0.4,0,0.5,0.4,0.6c0.8,0,1.6,0.1,2.3,0.1c5,0,10-0.5,15-1.2C289.6,334.3,291,334.2,292.5,334
					 M291.2,143.3c-0.4-0.9-0.5-1.7,0.3-2.4c1-0.9,1-1.2,0.2-2.3c-0.6-0.8-0.5-1.4,0.3-2c0.1-0.1,0.2-0.2,0.3-0.3
					c1.4-1.2,1.5-1.9,0.4-3.3c-0.6-0.8-0.6-1.2-0.1-2c0.9-1.4,0.8-2.7-0.4-3.9c-0.9-0.9-2-1.4-3.2-1.6c-1.3-0.2-2.6-0.2-4-0.3
					c-1.1-0.1-1.6-0.8-1-1.8c0.6-1,0.5-2-0.1-2.9c-1.1-1.6-2.6-2.7-4.5-3.3c-1-0.3-2-0.3-3,0.2c-0.5,0.2-0.9,0.4-1.4,0.6
					c-0.9,0.4-1.4,0.1-1.7-0.8c-0.2-0.4-0.3-0.9-0.6-1.3c-1.3-2.4-3.6-3.5-6.2-2.8c-0.8,0.2-1.6,0.5-2.4,0.8
					c-0.6,0.2-1.3,0.5-1.9,0.7c-0.9,0.3-1.7,0.2-2.5-0.5c-1.5-1.4-3.3-2.1-5.4-2c-1.8,0.1-3.7,0.4-5.5,0.7c-1,0.2-1.9,0.1-2.7-0.5
					c-0.7-0.4-1.5-0.7-2.3-1.1c-0.7-0.3-1.3-0.2-1.9,0.3c-1,0.9-2.1,1.7-3,2.7c-1.6,1.5-3.1,3.1-4.2,5.1c-1.4,2.4-1.6,4.8,0.1,7.2
					c0.8,1.1,0.6,1.8-0.5,2.7c-0.5,0.4-1,0.8-1.5,1.2c-0.4,0.4-0.5,0.8-0.3,1.3c0.6,1.4,0.5,1.7-0.7,2.8c-1.1,1-2,2.1-2.5,3.5
					c-0.5,1.3-0.3,2.6,0.6,3.7c0.3,0.4,0.5,0.8,0.8,1.2c2.9-0.9,5,0.2,6.8,2.7c0.1-0.4,0.1-0.6,0.1-0.8c0-2.9,0.5-5.7,1.6-8.4
					c0.4-1,0.9-1.9,1.5-2.7c0.9-1.2,1.8-1.2,2.9-0.2c0.6,0.5,1.2,1.1,1.8,1.7c1.5,1.5,3.2,1.7,5.1,0.8c0.3-0.1,0.6-0.3,0.9-0.4
					c0.5-0.2,1-0.5,1.5-0.7c0.8-0.3,1.3,0.1,1.4,0.9c0.1,0.4,0.1,0.9,0.1,1.3c0.2,1.4,0.9,2.2,2.3,2.1c1.1-0.1,2.2-0.4,3.3-0.6
					c0.4-0.1,0.9-0.3,1.2,0.2c0.2,0.3,0.1,0.8-0.1,1.2c-0.1,0.4-0.4,0.8-0.7,1.2c0.2,0,0.2,0,0.3,0c2.6-1.1,4.7-2.8,6-5.4
					c0.5-1.1,1-1.2,2-0.4c0.4,0.4,0.9,0.7,1.4,0.9c1.9,0.9,4.2,0.1,5.3-1.8c0.3-0.5,0.9-0.6,1.2-0.1c0.7,1.1,1.8,1.5,3,1.7
					c0.7,0.1,1.5,0.1,2.2,0.3c1.1,0.2,1.6,0.9,1.4,2c-0.1,0.5-0.3,1-0.5,1.6c-0.1,0.4-0.3,0.7-0.5,1.1c1.5,0.1,1.9,0.3,2.4,1.1
					c0.1,0.2,0.2,0.7,0.1,0.9c-0.5,1-0.1,2,0,3c0.7-1,1.5-1.9,2.5-2.5C288.8,143.1,290,143,291.2,143.3 M253.3,136.6
					c-0.9,0.4-1.8,0.8-2.7,1.2c-2,0.8-3.8,0.5-5.5-0.9c-0.5-0.4-1-0.9-1.5-1.4c-1.3-1.2-1.3-1.2-2.2,0.4c-1.7,3.2-2.3,6.6-2.2,10.2
					c0,0.6,0.3,1.2-0.4,1.7c-0.1,0,0,0.3,0,0.4c0.8,3.7,1.5,7.5,2.3,11.2c0.3,1.3,0.8,2.6,1.3,3.9c1.6,4.7,4.6,8.3,8.8,11.1
					c1.6,1,3.4,1.7,4.6,3.2c0,0.1,0.2,0.1,0.2,0.1c2.3,0.9,4.6,1.6,7,1.9c2,0.3,3.9-0.1,5.6-1.3c0.9-0.7,1.9-1.2,2.7-1.9
					c0.8-0.7,1.5-1.5,2.3-2.2c0.6-0.6,1.1-1.2,1.8-1.7c3.7-2.8,6.2-6.5,7.1-11.1c0.5-2.5,0.7-5.1,0.9-7.6c0.2-3.3,0.2-6.6,0.3-9.8
					c0-1,0.1-1-0.9-1c-1.4,0-1.9-0.9-1.5-2.1c0.2-0.6,0.5-1.2,0.7-1.8c0.3-0.9,0.2-1-0.7-1c-1.8-0.1-3.5-0.4-4.9-1.5
					c-2.6,2.3-5.3,2.6-8.2,0.6c-1.4,2.4-3.3,4.2-5.7,5.4c-0.6,0.3-1.4,0.6-2.1,0.6c-1,0.1-1.5-0.6-1.2-1.6c0.1-0.2,0.1-0.4,0.2-0.7
					c-1.5,0.3-3,0.6-4.4-0.1C253.7,139.7,253.5,138.2,253.3,136.6 M232.1,414.6c-0.1-0.3-0.2-0.4-0.2-0.6c-1.7-4.9-2.2-9.8-0.5-14.8
					c1.7-5,3.4-10,5.3-14.9c1.9-4.9,4.1-9.7,6-14.6c2.6-6.5,4.1-13.2,5.5-20c0.9-4.5,1.5-9.1,0.9-13.7c0-0.2-0.1-0.5-0.1-0.8
					c-6.1,1.4-12.3,0.8-18.5,0.6c0,0.3,0,0.6,0,0.9c0,7.3-0.8,14.6-1.8,21.9c-0.8,6-1.8,12-2.6,17.9c-1.3,8.9-2.6,17.8-4,26.6
					c-0.5,3.5-1.2,7-2.5,10.4c0,0.1-0.1,0.3,0,0.4c0.2,0.8,1.6,1.9,2.5,2C225.4,416.1,228.7,415.2,232.1,414.6 M290,191
					c0,0.3,0,0.5,0,0.6c0.4,3.9,0.8,7.8,1.2,11.7c0.2,2.3,0.4,4.6,0.6,6.9c0,0.2,0.2,0.6,0.4,0.6c1,0.3,2.1,0.6,3.2,0.7
					c9.5,1.3,18.9,2.7,28.5,3.3c3,0.2,5.9,0.4,8.9-0.3c1.5-0.4,2.4-1.2,2.8-2.7c0.5-2,0.3-4,0.1-6c-0.8-9.6-1.6-19.3-2.4-28.9
					c-0.1-1.6-0.1-3.3-0.5-4.9c-1-4.3-2.1-8.5-3.2-12.7c-0.3-1-0.8-1.5-1.8-1.7c-2.4-0.4-4.9-0.9-7.3-1.3c-0.3,0.8-0.7,1.7-1.1,2.6
					c-0.3,0.7-0.7,1.5-0.9,2.2c-0.3,0.9-0.2,1.3,0.7,1.5c0.8,0.2,1.6,0.3,2.4,0.4c0.8,0.1,1.3-0.2,1.5-1c0.1-0.3,0.2-0.6,0.4-0.8
					c0.2-0.3,0.1-0.6-0.2-0.8c-0.3-0.2-0.7-0.4-1-0.6c-0.2-0.2-0.3-0.6-0.2-0.8c0.1-0.2,0.5-0.4,0.7-0.4c1.2,0.4,2,1.2,2.9,2.2
					c-0.4,0-0.5,0.1-0.6,0.1c-0.2,0.4-0.5,0.7-0.6,1c-0.6,1.6-1.2,3.1-1.8,4.7c-0.4,1.1-0.4,1.2,0.5,2c1,0.9,2.1,1.7,3.2,2.6
					c0.3,0.3,0.6,0.6,0.9,1c0.2,0.5,0,0.8-0.5,0.7c-0.4-0.1-0.9-0.2-1.2-0.5c-1.8-1.3-3.8-2.4-4.7-4.4c-1,0.6-1.9,1.2-2.9,1.7
					c-0.3,0.1-0.7,0.3-0.9,0.2c-0.3-0.1-0.7-0.3-0.8-0.6c-0.1-0.2,0.3-0.5,0.5-0.8c0.1-0.1,0.4-0.1,0.6-0.2c1.4-0.5,2.5-1.4,3.1-2.9
					c-1.3-0.5-2.5-0.9-3.9-0.9c-0.3,0-0.7,0.3-0.8,0.5c-0.7,1.4-1.5,2.8-1.7,4.4c-0.1,0.8,0,1.5,0.7,2.1c1.3,1.1,2.6,2,4.3,2.3
					c0.6,0.1,1.3,0.3,1.9,0.6c3.3,1.3,6.6,4.2,6.1,9.6c-0.3,2.5-1,4.9-2,7.2c-1.3,3.1-1.8,6.2-1.6,9.5c0.1,1.9,0.5,3.9,0.7,5.8
					c0,0.3,0,0.6,0,0.9c-1.2-1.1-1.9-2.4-2.3-3.8c-1-0.2-1.9-0.3-2.8-0.6c-4.2-1.2-8.3-2.7-12.2-4.5c-4.2-1.9-8.3-4-12.4-5.9
					C293,192.1,291.5,191.6,290,191 M286,336.7c0.2,0.2,0.3,0.3,0.4,0.5c0.8,0.8,1.6,1.7,2.4,2.5c1.5,1.6,2.5,3.5,2.9,5.7
					c1.2,6.3,2,12.7,2.5,19.1c0.4,5.1,1,10.1,3,14.9c1.5,3.4,3,6.7,4.6,10.1c1.6,3.2,3.5,6.2,5.8,9c2.3,2.8,4.6,5.6,6.9,8.4
					c0.3,0.4,0.6,0.8,0.9,1.1c0.7-0.3,1.2-0.6,1.8-0.7c0.7-0.1,1.3,0,2,0c1.4,0.1,2.8,0.4,4.2,1.2c-0.1-0.3-0.2-0.5-0.2-0.7
					c-1-2.8-2.1-5.6-3.1-8.4c-2.8-7.9-5.5-15.8-7.3-24c-2.8-12.9-5.7-25.8-8.6-38.7c-0.2-0.9-0.4-1.8-0.6-2.6
					C297.8,335,291.9,335.9,286,336.7 M211.6,173.4c-0.1,0.2-0.2,0.3-0.3,0.4c-1.7,2.2-3.7,4.1-5.9,5.7c-0.3,0.2-0.6,0.5-1,0.6
					c-0.3,0.1-0.7-0.1-0.9-0.3c-0.1-0.2-0.1-0.7,0.1-0.9c0.3-0.3,0.7-0.6,1-0.9c1.9-1.4,3.5-2.9,5-4.7c0.8-1,1.1-1.9,0.6-3.1
					c-0.9-2.4-1-4.9-0.4-7.4c0.1-0.5,0.3-0.8,0.8-0.8c0.4-0.1,0.7,0.1,0.5,0.5c-0.4,1,0.4,1.5,0.8,2.2c0.1,0.2,0.4,0.3,0.7,0.3
					c0.8,0.1,1.5-0.2,1.9-0.9c0.4-0.7,0.8-1.5,0.2-2.4c-1.1-1.7-2.6-2.8-4.5-3.6c-0.5-0.2-0.9-0.1-1.3,0.3c-0.9,1.1-1.8,2.1-2.7,3.2
					c-0.1,0.1-0.1,0.2-0.2,0.3c-1.4,2.6-2.7,5.2-4.1,7.8c-1.7,3.4-3.3,6.8-5,10.1c-1.2,2.2-2.2,4.5-3.1,6.8c-1,2.9-2.2,5.8-3.9,8.4
					c-1,1.5-1.9,3-2.8,4.6c-1.6,2.8-2.4,5.8-2.3,9.1c0.1,1.4,0.5,2.7,1.5,3.7c0.6,0.6,1.3,1.2,2.3,1c2.7-0.5,5.3-0.8,8-1.4
					c10.4-2.2,21-3.9,31.6-4.5c2.7-0.2,5.5-0.6,8.2-0.2c0.4,0.1,0.7,0.1,1.2,0.1c-0.4-6.4-0.7-12.8-1.1-19.2c-1,0.2-1.9,0.3-2.8,0.5
					c-1.4,0.4-2.9,0.9-4.3,1.5c-5.3,2.6-10.5,5.2-15.7,7.8c-2.1,1.1-4.3,2-6.5,2.9c-1.4,0.6-2.8,0.9-4.3,0.8c-0.6,0-1.1-0.1-1.7-0.2
					c-0.1,0.4-0.2,0.9-0.3,1.3c-0.5,1.7-1.1,3.4-2.2,4.9c-0.4,0.6-1,1-1.7,1.1c-0.4,0.1-0.6-0.1-0.4-0.5c0.2-0.5,0.5-1,0.8-1.5
					c0.9-1.3,1.5-2.7,1.9-4.2c0.8-2.9,0.9-5.8,1.2-8.7c0.2-2.4,0.5-4.9,0.9-7.3c0.3-1.7,0.9-3.3,2-4.6c0.7-0.8,1.6-1.5,2.5-2.2
					c1.4-1,2.8-1.7,4.6-1.6c2.2,0.1,4-0.8,5.4-2.5c0.7-0.9,1.3-1.9,1.9-3c0.2-0.3,0.2-0.8,0.2-1.3c0-0.5-0.1-1,0-1.4
					c0.1-0.6-0.1-1.1-0.7-1.2c-0.7-0.1-1.4-0.2-2.1-0.1c-0.9,0.1-1.7,0.4-2.6,0.6c-0.2,0.1-0.4,0.4-0.4,0.5c0.1,1.8,0.2,2.2,2,2.4
					c0.2,0,0.3,0,0.5,0.1c0.1,0,0.3,0.1,0.3,0.2c0.2,0.4,0.3,0.8,0.5,1.2C214,174.2,212.8,174.1,211.6,173.4 M193.6,437.6
					c2-0.1,4.6-0.2,7.3-0.5c4.6-0.5,9.2-1.6,13.7-2.5c5.3-1,10.6-1.7,15.9-2.4c2.4-0.3,2.8-0.5,3.2-3c0,0,0,0,0-0.1
					c0.4-2.2,0.8-4.4,1.1-6.6c0.2-1.4,0.2-2.9,0.2-4.4c0-1.1-0.6-1.7-1.8-1.8c-0.6,0-1.1,0-1.7,0.1c-2.8,0.4-5.5,0.8-8.3,1.2
					c-0.2,0-0.4,0.2-0.5,0.4c-0.4,0.7-0.7,1.6-1.2,2.2c-2.1,2.5-4.9,4.2-7.9,5.4c-3.9,1.5-7.5,1-10.8-1.7c-0.9-0.7-1.8-1.4-2.7-2
					c-0.2-0.2-0.4-0.3-0.7-0.4c-1.6-0.4-3.2-0.9-4.8-1.2c-2-0.5-3.8-0.1-5.5,1.1c-2.8,2-4.7,4.6-5.6,7.9c-0.6,1.9-0.6,3.9,0.2,5.8
					c0.6,1.4,1.5,2.2,3.1,2.3C188.8,437.4,190.8,437.5,193.6,437.6 M244.9,188c0.5,2.1,1,3.9,1.4,5.8c0.7,2.8,2.4,4.6,5,5.6
					c2.6,1,5.2,1.4,8,1.6c7.8,0.6,14.8-1.3,20.8-6.4c0.3-0.2,0.6-0.6,0.7-0.9c0.2-0.9,0.3-1.9,0.5-3c-0.6,0-1.1,0-1.5,0
					c-1.6,0-2.8-0.6-3.7-1.9c-0.2-0.3-0.5-0.5-0.7-0.8c-0.5-0.6-1.1-1.2-1.4-1.8c-1.3-2.5-1.6-5.2-1.4-8c0-0.2,0-0.3,0-0.5
					c-0.5,0.4-1,0.7-1.4,1c-2.5,1.7-5.2,2.8-8.3,2.5c-2.8-0.3-5.3-1.2-7.8-2.5c-0.9-0.5-1.8-0.9-2.8-1.4c0.8,2.8,0.8,5.6,0.7,8.4
					c-0.1,1.7-1.1,3.3-3.2,3c-0.4,0-0.7-0.1-1.1-0.1C247.5,188.3,246.3,188.1,244.9,188 M325.1,410.3c0.5,1.2,1.1,2.3,1.5,3.4
					c1,2.6,2.3,5,3.9,7.3c0.7,1,1.2,2.1,1.6,3.3c0.3,1.1,0.4,2.3,0.4,3.4c0,1.1-0.7,1.6-1.7,1.4c-1-0.1-2-0.3-3-0.5
					c-1.9-0.4-3.7-0.2-5.1,1.2c-0.2,0.2-0.5,0.4-0.8,0.6c-1,0.5-1.8,0.4-2.6-0.4c-1.4-1.3-2.2-3-2.6-4.8c-1-4.3-1.7-8.6-2-12.9
					c0-0.2-0.2-0.5-0.4-0.7c-0.3-0.2-0.6-0.4-1-0.5c-1.2-0.4-1.5-0.1-1.2,1.1c0.2,0.9,0.5,1.7,0.7,2.6c1.2,4.3,1.3,8.5-0.3,12.7
					c-0.4,1.1-0.8,2.2-1.2,3.3c-1,2.9-0.2,5.4,1.8,7.6c1.1,1.2,2.4,1.9,3.9,2.5c4.5,1.8,9.1,2.4,13.9,2.2c2.5-0.1,4.9-0.7,7.1-1.8
					c1.2-0.6,2.1-1.4,2.5-2.7c1-3,1.2-6-0.8-8.7c-1.5-2-3.1-3.9-4.8-5.7c-2.9-3-5.3-6.4-6.9-10.3c-0.3-0.8-0.7-1.6-1.1-2.3
					c-0.3-0.5-0.6-0.9-1-1.3C325.7,409.9,325.4,409.9,325.1,410.3 M298.5,333.1c0-0.2,0-0.4,0-0.5c-0.6-2.6-1.1-5.3-1.7-7.9
					c-1.4-5.6-3-11.1-4.5-16.7c-3-12-5.1-24.2-7.1-36.4c0-0.2-0.1-0.4-0.1-0.7c-1.8,0.6-3.6,1.1-5.4,1.7c0,0.2,0,0.3,0,0.4
					c1.6,7.4,3.1,14.9,4.8,22.3c0.8,3.7,2,7.4,2.7,11.2c1.1,6.1,2.5,12.1,4.3,18.1c0.9,2.9,1.8,5.7,2.7,8.6c0.1,0.3,0.1,0.6,0.5,0.5
					C296,333.5,297.2,333.3,298.5,333.1 M288.6,269.6c-0.8,0.3-1.3,0.5-1.8,0.7c-0.5,0.1-0.5,0.4-0.4,0.8c0.9,4.7,1.8,9.3,2.7,14
					c1.6,8.6,3.4,17.1,5.6,25.5c1.7,6.3,3.3,12.6,4.9,18.9c0.3,1.1,0.5,2.2,0.7,3.3c1.7-0.4,3.5-0.4,5-1.1c-0.1-0.7-0.3-1.2-0.3-1.7
					c-0.2-1.6-0.3-3.2-0.7-4.8c-1-5.1-2.7-10-4.3-14.9c-3.8-11.5-7.1-23-9.7-34.8C289.8,273.5,289.2,271.6,288.6,269.6 M330.9,427.5
					c0-0.4,0-0.8,0-1.1c-0.2-1.7-0.9-3.1-1.8-4.5c-1.1-1.7-2.1-3.4-3.1-5.2c-0.9-1.7-1.6-3.5-2.4-5.3c-0.1-0.1-0.1-0.3-0.1-0.4
					c-0.1-0.3-0.2-0.6-0.4-0.8c-0.6-0.4-1.1-0.8-1.8-0.9c-1.1-0.2-2.2-0.3-3.4-0.3c-0.9,0-1.6,0.6-1.6,1.5c0,0.7-0.1,1.4,0,2.1
					c0.3,4.1,0.9,8.1,1.9,12.1c0.3,1.4,0.9,2.8,2,3.8c0.6,0.6,0.7,0.7,1.4,0.1c1.9-1.8,4.2-2.1,6.6-1.6
					C329.1,427.2,330,427.3,330.9,427.5 M240.7,163.6c-0.6-2.3-1.3-4.5-1.9-6.7c-0.9,0.2-1.5,0.7-1.8,1.7c-0.1,0.4-0.1,0.9-0.3,1.3
					c-0.1,0.3-0.5,0.5-0.7,0.8c-0.2-0.3-0.6-0.5-0.6-0.8c-0.4-1.5,0.7-3.4,2.1-4c0.3-0.1,0.7-0.2,1.1-0.3c-0.2-1.6-0.5-3.2-0.7-4.8
					c-0.1-1.1-0.5-2.1-0.9-3.1c-0.4-1-1-1.8-1.9-2.4c-1.7-1.2-3.8-0.9-5,0.8c-0.4,0.5-0.7,1.2-0.9,1.8c-2.4,7,2.1,14.4,9.6,15.7
					C239.3,163.5,240,163.6,240.7,163.6 M216.9,412.5c-0.2,0.1-0.4,0.3-0.5,0.4c-1,0.9-2,1.7-3,2.6c-2.1,1.8-4.1,3.7-6.7,4.9
					c-1.4,0.6-2.8,1-4.4,1.6c1.4,0.8,2.8,1.8,4.3,2.5c1,0.4,2.3,0.6,3.4,0.5c4.5-0.5,8-2.8,10.9-6.2c0.2-0.2,0.3-0.6,0.4-0.9
					C218.7,416.8,217.8,414.8,216.9,412.5 M284.5,161.5c0.6-0.2,1.1-0.3,1.6-0.6c4.5-2,7.5-8,6.5-12.8c-0.2-1-0.6-2-1.4-2.7
					c-0.9-0.8-1.9-1-2.9-0.3c-0.7,0.4-1.2,1-1.7,1.6c-0.4,0.5-0.7,1.1-1.1,1.6c-0.1,0.2-0.3,0.5-0.3,0.8c0,1.2,0,2.5,0,3.7
					c0,0.4,0.1,0.6,0.6,0.8c1.9,0.6,2.8,3.1,1.8,4.6c-0.1,0.2-0.3,0.3-0.4,0.4c-0.1-0.1-0.3-0.3-0.3-0.4c-0.2-0.6-0.4-1.2-0.5-1.8
					c-0.2-0.7-0.5-1.2-1.1-1.7C285,157,284.8,159.2,284.5,161.5 M212.3,157.7c0.2,0.2,0.4,0.3,0.6,0.4c0.9,0.8,1.8,1.5,2.5,2.3
					c1.2,1.3,1.2,2.8,0.3,4.3c-0.5,0.7-1,1.4-1.9,1.5c-0.9,0.1-1.9,0.2-2.8-0.2c-0.2-0.1-0.5,0-0.6,0.2c-0.1,0.1,0,0.4,0,0.5
					c0.3,0.7,0.9,1,1.9,0.9c1.5-0.2,3-0.6,4.4-1.3c1.7-1,2.9-2.4,3.2-4.4c0-0.3-0.1-0.7-0.3-0.8c-1.4-1.2-2.7-2.4-4.2-3.5
					c-1.5-1.2-1.6-1.1-3.1,0.1C212.4,157.6,212.4,157.6,212.3,157.7 M217.5,167.7c1.7,0.5,3.2,0.4,4.8,0c1.4-0.4,1.8-0.9,1.5-2.4
					c-0.6-2.6-1.9-4.8-3.4-7c-0.5-0.7-1.2-0.9-2.1-0.7c0.2,0.2,0.4,0.4,0.6,0.5c0.6,0.5,1.2,1.1,1.9,1.6c0.9,0.7,1.1,1.6,0.8,2.6
					c-0.5,2.1-1.6,3.7-3.4,4.9C217.9,167.3,217.7,167.5,217.5,167.7 M321.3,155.2c0-0.1,0-0.1,0-0.2c-0.6-0.3-1.1-0.6-1.7-0.8
					c-1.1-0.5-0.8-0.6-1.6,0.3c-1.4,1.6-2.6,3.3-3.4,5.3c-0.2,0.4-0.3,1-0.2,1.4c0.2,0.8,1.5,1.5,2.3,1.5c0-0.6-0.1-1.3,0.2-1.8
					c0.9-1.9,1.8-3.7,2.8-5.6c0.1-0.1,0.3-0.3,0.5-0.3C320.6,155,320.9,155.1,321.3,155.2 M315.9,154.5c-0.7,0.2-1.4,0.4-2.1,0.6
					c-0.8,0.2-1.3,0.8-1.5,1.6c-0.3,1.3-0.6,2.6-0.9,3.9c-0.2,1.5,0.5,2.2,2.2,2.1c-1-1-0.9-2.2-0.5-3.4c0.2-0.5,0.4-1,0.7-1.4
					C314.4,156.8,315.2,155.7,315.9,154.5 M314.5,164.4c-0.9-0.1-1.7-0.1-2.6-0.1c0,0.1-0.1,0.1-0.1,0.2c0.6,0.7,1.1,1.4,1.8,2.3
					C313.9,165.7,314.2,165.1,314.5,164.4 M222.2,169.3c-1.1,0.1-2.2,0.1-3.2,0.2c0.1,0.3,0.2,0.6,0.4,0.9
					C220.4,170.3,221.3,170.1,222.2,169.3"/>
				<path class="st12" d="M289.9,267.3c-0.8,0.2-1.5,0.4-2.2,0.6c-4.7,1.8-9.4,3.3-14.4,4.2c-6.9,1.3-13.7,0.7-20.4-1.1
					c-2.2-0.6-4.4-1.2-6.7-1.8c-5.9-1.6-6.9-1.6-12.8-1.3c0.1-0.3,0.2-0.5,0.3-0.7c2.1-5.2,3.1-10.6,3.8-16.1
					c1.9-16,2.4-32.1,1.5-48.1c-0.3-4.6-0.9-9.2-1.4-13.8c0-0.2,0-0.4-0.1-0.8c0.7-0.1,1.5-0.2,2.2-0.2c1.1-0.1,2.2,0,3.3-0.1
					c0.4,0,0.5,0.2,0.6,0.6c0.4,2.1,0.8,4.2,1.3,6.3c0.6,2.5,2.2,4.4,4.6,5.6c2.7,1.3,5.5,1.9,8.4,2.2c4.4,0.4,8.7,0.3,13-1
					c4-1.2,7.4-3.3,10.5-6c1-0.8,1.2-1.9,1.3-3.1c0-0.6,0-1.2,0-1.9c2.1,0,4.2-0.1,6.3,0.2c-0.4,3.5,0,6.9,0.2,10.2
					c0.1,2.4,0.2,4.8,0.6,7.1c0.6,3.4,0.3,6.7,0.6,10.1c0.8,9.5,0.2,19-0.3,28.6c-0.2,4.2-0.3,8.4-0.4,12.6c0,2.3,0.1,4.6,0.1,7
					C289.9,266.8,289.9,267.1,289.9,267.3 M269.1,218.6c0.2-1.2,0.4-2.2,0.5-3.3c0.2-1.2-0.2-1.7-1.4-1.6c-1.8,0.2-3.6,0.3-5.3,0.5
					c-0.5,0-0.9,0.3-1.1,0.8c-0.3,0.5-0.6,0.9-0.9,1.4c-2.1,2.8-4.2,5.6-6.3,8.3c-0.3,0.4-0.7,0.8-1.1,1.1c-2,1.7-4.1,3.3-5.9,5.1
					c-1.8,1.7-3.4,3.7-4.1,6.2c-1.3,4.1,0.5,7.2,4.7,8.1c0.1,0,0.2,0,0.3,0.1c2.9,0.5,5.6-0.1,8.4-0.9c0.5-0.1,1-0.3,1.5-0.4
					c0.4,0.9,0.6,0.9,1.5,1.1c2,0.3,3.9,0.6,5.9,1c1.2,0.2,1.7-0.2,1.7-1.4c0-1.5,0-3,0-4.4c0-0.5,0.2-0.8,0.6-1.1
					c4.2-2.8,7.9-6.2,10.7-10.4c1-1.4,1.9-2.9,2.3-4.6c0.7-2.8-0.5-4.9-3.3-5.6c-2.5-0.6-5-0.5-7.4,0
					C269.8,218.4,269.5,218.5,269.1,218.6"/>
				<path class="st13" d="M292.5,334c-1.5,0.2-2.9,0.4-4.3,0.5c-5,0.7-10,1.2-15,1.2c-0.8,0-1.6,0-2.3-0.1c-0.4,0-0.5-0.2-0.4-0.6
					c0.1-0.3,0.1-0.6,0.2-0.9c0.9-2.4,0.7-4.8,0.2-7.2c-0.9-4.5-2-8.9-3.1-13.3c-1.6-6.5-3.5-13-4.6-19.6c-0.4-2.2-0.6-4.4-0.9-6.6
					c-0.1-0.4-0.1-0.8-0.2-1.2c-0.3-1.1-0.9-1.9-2-2.1c-0.5-0.1-1.1-0.2-1.6-0.3c-2.3-0.3-4.5-0.5-6.8-0.7c-0.1,0-0.2-0.1-0.3,0
					c-0.3,0.1-0.5,0.3-0.8,0.4c0.2,0.3,0.3,0.6,0.5,0.7c0.7,0.2,1.5,0.4,2.2,0.5c1.8,0.3,3.6,0.5,5.4,0.8c1.5,0.2,1.7,0.4,1.9,1.9
					c0.4,2.8,0.8,5.7,1.1,8.5c0.1,0.4-0.2,0.9-0.3,1.3c-1.6,8.1-3.3,16.2-4.9,24.3c-0.7,3.4-1.5,6.9-2.2,10.3
					c-0.2,1.1-0.5,1.2-1.6,1.2c-1.4,0.1-2.8,0.2-4.1,0.4c-3.2,0.7-6.4,0.8-9.6,0.8c-5-0.1-10-0.3-15-1c-0.8-0.1-1.6-0.4-2.4-0.5
					c-0.2-0.1-0.4-0.2-0.6-0.3c0-0.1,0-0.2,0.1-0.3c2-3.7,3.1-7.6,4.4-11.6c2.9-9.2,5-18.6,7.1-28c1.6-7.4,3.2-14.8,4.8-22.2
					c0.2-0.9,0.2-0.9,1.1-0.8c3.4,0.3,6.7,1.2,9.9,2.1c3.9,1.1,7.7,2.2,11.7,2.7c6,0.8,11.9,0.3,17.8-1.1c0.2-0.1,0.4-0.1,0.7-0.2
					c0.1,0.9,0.3,1.8,0.4,2.7c1.5,9.5,3.7,18.8,6.1,28c0.8,2.9,1.2,6,1.8,9c1.2,6.1,3.1,12,5,18C291.8,331.7,292.1,332.8,292.5,334
					 M256.7,286.2c0-0.1,0-0.2,0-0.2c-0.4,0-0.9-0.1-1.3-0.1c-1.2,0.1-2.4,0.2-3.6,0.3c-3.8,0.5-7.5,1.2-11.1,2.2
					c-0.5,0.1-1.1,0.3-1,0.9c0.1,0.7,0.7,0.6,1.2,0.5c2.5-0.3,5-0.6,7.4-0.9c0.1,0,0.3-0.1,0.4-0.1l0-0.1h-4.4c0-0.1,0-0.1,0-0.2
					C248.4,287.8,252.6,287,256.7,286.2 M245.4,298l0.1,0.1c0.3-0.2,0.7-0.5,1-0.7c3-2.4,6-4.8,9.1-7.1c0.9-0.7,1.8-1.3,2.7-2
					c0.1-0.1,0.2-0.4,0.2-0.5c-0.2,0-0.4-0.1-0.6,0c-0.6,0.3-1.2,0.6-1.7,1c-3.8,2.6-7.1,5.6-10.4,8.8
					C245.6,297.7,245.5,297.8,245.4,298"/>
				<path class="st14" d="M291.2,143.3c-1.3-0.3-2.4-0.3-3.5,0.3c-1.1,0.6-1.8,1.5-2.5,2.5c0-1-0.4-2,0-3c0.1-0.2,0-0.6-0.1-0.9
					c-0.4-0.8-0.9-1-2.4-1.1c0.2-0.4,0.3-0.8,0.5-1.1c0.2-0.5,0.4-1,0.5-1.6c0.2-1.1-0.3-1.8-1.4-2c-0.7-0.1-1.5-0.1-2.2-0.3
					c-1.2-0.2-2.3-0.6-3-1.7c-0.3-0.5-0.9-0.4-1.2,0.1c-1,1.8-3.3,2.6-5.3,1.8c-0.5-0.2-1-0.6-1.4-0.9c-1-0.8-1.4-0.7-2,0.4
					c-1.2,2.6-3.4,4.3-6,5.4c-0.1,0-0.1,0-0.3,0c0.3-0.4,0.6-0.8,0.7-1.2c0.1-0.4,0.2-0.9,0.1-1.2c-0.2-0.5-0.7-0.3-1.2-0.2
					c-1.1,0.2-2.2,0.5-3.3,0.6c-1.4,0.1-2.2-0.6-2.3-2.1c-0.1-0.4-0.1-0.9-0.1-1.3c-0.1-0.8-0.7-1.2-1.4-0.9c-0.5,0.2-1,0.5-1.5,0.7
					c-0.3,0.1-0.6,0.3-0.9,0.4c-1.9,0.9-3.6,0.7-5.1-0.8c-0.6-0.6-1.2-1.1-1.8-1.7c-1.1-1-2-0.9-2.9,0.2c-0.6,0.8-1.1,1.8-1.5,2.7
					c-1.1,2.7-1.6,5.5-1.6,8.4c0,0.2-0.1,0.4-0.1,0.8c-1.8-2.5-4-3.6-6.8-2.7c-0.3-0.4-0.5-0.8-0.8-1.2c-0.9-1.1-1.1-2.3-0.6-3.7
					c0.5-1.4,1.4-2.6,2.5-3.5c1.2-1.1,1.3-1.4,0.7-2.8c-0.2-0.5-0.1-0.9,0.3-1.3c0.5-0.4,1-0.8,1.5-1.2c1.1-0.8,1.2-1.6,0.5-2.7
					c-1.7-2.4-1.4-4.8-0.1-7.2c1.1-1.9,2.5-3.6,4.2-5.1c1-0.9,2-1.8,3-2.7c0.6-0.5,1.2-0.6,1.9-0.3c0.8,0.3,1.6,0.6,2.3,1.1
					c0.9,0.6,1.7,0.6,2.7,0.5c1.8-0.3,3.7-0.6,5.5-0.7c2-0.1,3.9,0.6,5.4,2c0.7,0.7,1.6,0.8,2.5,0.5c0.6-0.2,1.3-0.5,1.9-0.7
					c0.8-0.3,1.6-0.6,2.4-0.8c2.7-0.6,4.9,0.4,6.2,2.8c0.2,0.4,0.4,0.9,0.6,1.3c0.3,0.9,0.9,1.1,1.7,0.8c0.5-0.2,1-0.4,1.4-0.6
					c1-0.4,2-0.5,3-0.2c1.9,0.5,3.4,1.7,4.5,3.3c0.6,0.9,0.7,1.9,0.1,2.9c-0.6,1-0.2,1.7,1,1.8c1.3,0.1,2.7,0.1,4,0.3
					c1.2,0.2,2.3,0.7,3.2,1.6c1.2,1.2,1.3,2.5,0.4,3.9c-0.5,0.8-0.5,1.2,0.1,2c1.1,1.4,1,2.1-0.4,3.3c-0.1,0.1-0.2,0.2-0.3,0.3
					c-0.8,0.7-0.8,1.2-0.3,2c0.7,1.1,0.7,1.4-0.2,2.3C290.7,141.7,290.9,142.4,291.2,143.3"/>
				<path class="st15" d="M253.3,136.6c0.1,1.6,0.4,3.1,1.9,3.8c1.4,0.7,2.8,0.4,4.4,0.1c-0.1,0.3-0.2,0.5-0.2,0.7
					c-0.3,1,0.2,1.7,1.2,1.6c0.7-0.1,1.5-0.3,2.1-0.6c2.4-1.2,4.3-3,5.7-5.4c2.9,2,5.6,1.7,8.2-0.6c1.4,1.2,3.1,1.5,4.9,1.5
					c0.9,0,1,0.2,0.7,1c-0.2,0.6-0.5,1.2-0.7,1.8c-0.5,1.3,0.1,2.1,1.5,2.1c1,0,0.9,0,0.9,1c-0.1,3.3-0.1,6.6-0.3,9.8
					c-0.2,2.6-0.4,5.1-0.9,7.6c-0.9,4.5-3.4,8.2-7.1,11.1c-0.7,0.5-1.2,1.1-1.8,1.7c-0.8,0.7-1.4,1.6-2.3,2.2
					c-0.9,0.7-1.8,1.3-2.7,1.9c-1.7,1.2-3.5,1.6-5.6,1.3c-2.4-0.3-4.7-1.1-7-1.9c-0.1,0-0.2-0.1-0.2-0.1c-1.2-1.5-3-2.2-4.6-3.2
					c-4.2-2.7-7.2-6.3-8.8-11.1c-0.4-1.3-1-2.6-1.3-3.9c-0.8-3.7-1.6-7.4-2.3-11.2c0-0.1-0.1-0.4,0-0.4c0.7-0.4,0.4-1.1,0.4-1.7
					c-0.1-3.6,0.6-7,2.2-10.2c0.8-1.6,0.9-1.6,2.2-0.4c0.5,0.5,1,1,1.5,1.4c1.6,1.4,3.5,1.7,5.5,0.9
					C251.6,137.5,252.4,137,253.3,136.6 M272,144.9c-0.4,0.1-1,0.1-1.6,0.3c-2.2,0.6-4,1.8-5.2,3.7c-0.2,0.4-0.3,0.9-0.3,1.3
					c0,0.3,0.1,0.6,0.1,0.9c-0.2,2.1,0.8,3.7,2.9,4.4c1.3,0.4,2.6,0.5,3.9,0.2c2.5-0.5,4.7-1.6,6-4c0.9-1.7,0.6-3.4-0.6-4.8
					C275.8,145.4,274.1,144.9,272,144.9 M248.9,157.1c1.8,0,3.2-0.2,4.5-0.8c1.6-0.7,2.7-3,2.3-4.6c-0.1-0.5-0.4-0.9-0.6-1.3
					c-0.6-1.8-3-3.6-4.9-3.7c-3-0.2-5.9,2.1-6.5,5.1c-0.5,2.5,0.8,4.5,3.3,5.1C247.8,157,248.6,157.1,248.9,157.1 M252.3,165.9
					c-0.6,1.1-0.4,1.7,0.6,2.1c0.2,0.1,0.3,0.2,0.5,0.3c1.5,1.2,3.2,2.1,5.1,2.5c1.5,0.3,2.9,0.7,4.4,0.5c3.8-0.5,6.6-2.5,9-5.4
					c0.2-0.3,0.2-0.8,0.2-1.3c0-0.2-0.4-0.4-0.6-0.4c-0.5-0.1-0.7,0.3-0.9,0.7c-0.2,0.3-0.6,0.6-0.9,0.6c-1.2,0.2-2.3,0.2-3.5,0.3
					c-3.9,0.3-7.9,0.6-11.8,0.9c-0.2,0-0.4,0-0.5,0C253.4,166.4,252.9,166.2,252.3,165.9 M277.1,140.5c-3.9,0.1-7.2,0.8-10.4,2.2
					c-0.7,0.3-1.4,0.7-2.1,1.1c-0.3,0.2-0.7,0.5-0.4,0.9c0.2,0.2,0.7,0.3,1,0.2c0.5-0.1,0.9-0.3,1.3-0.5c4-1.6,8.2-2.5,12.5-2
					c0.2,0,0.5,0,0.7-0.1c0.6-0.2,0.8-0.9,0.3-1.3c-0.2-0.2-0.6-0.4-0.9-0.4C278.4,140.5,277.5,140.5,277.1,140.5 M245.1,143
					c-0.5,0-0.9,0-1.4,0c-0.8,0.1-1.6,0.1-2.4,0.2c-0.5,0.1-0.9,0.4-0.9,1c0,0.5,0.5,0.8,1.1,0.7c0.1,0,0.2,0,0.3,0
					c2.8-0.4,5.6-0.3,8.4,0.3c1.5,0.3,2.9,0.8,4.3,1.2c0.2,0.1,0.5-0.1,0.8-0.1c-0.1-0.3-0.1-0.6-0.3-0.8c-0.4-0.3-0.8-0.6-1.3-0.9
					C251.1,143.4,248.2,143.1,245.1,143 M261,162.4c0.3,0,0.8,0,1.2-0.1c0.8-0.2,1.5-0.3,2.3-0.6c0.5-0.2,0.8-0.5,0.6-1.1
					c-0.2-0.5-0.6-0.5-1.1-0.4c-0.1,0-0.1,0-0.2,0.1c-1.7,0.5-3.3,0.5-5,0.2c-0.4-0.1-0.8-0.2-1.1-0.4c-0.8-0.4-0.9-0.8-0.4-1.5
					c0.3-0.4,0.7-0.7,1-1.1c0.1-0.1,0.3-0.4,0.2-0.5c-0.1-0.2-0.3-0.3-0.5-0.3c-0.1,0-0.3,0-0.4,0c-1,0.3-2,1.5-2.1,2.5
					c-0.1,1,0.4,1.8,1.6,2.3C258.2,162.2,259.5,162.4,261,162.4"/>
				<path class="st15" d="M232.1,414.6c-3.4,0.5-6.7,1.5-10.1,1.3c-0.9,0-2.3-1.1-2.5-2c0-0.1,0-0.3,0-0.4c1.3-3.3,2-6.9,2.5-10.4
					c1.4-8.9,2.6-17.8,4-26.6c0.9-6,1.8-12,2.6-17.9c1-7.3,1.8-14.5,1.8-21.9c0-0.3,0-0.6,0-0.9c6.2,0.2,12.4,0.8,18.5-0.6
					c0,0.3,0.1,0.5,0.1,0.8c0.6,4.6,0,9.2-0.9,13.7c-1.4,6.8-2.9,13.6-5.5,20c-2,4.9-4.1,9.7-6,14.6c-1.9,4.9-3.7,9.9-5.3,14.9
					c-1.6,5-1.1,9.9,0.5,14.8C232,414.2,232,414.4,232.1,414.6"/>
				<path class="st15" d="M290,191c1.6,0.6,3,1.1,4.4,1.8c4.2,1.9,8.3,4,12.4,5.9c3.9,1.8,8,3.4,12.2,4.5c0.9,0.2,1.8,0.4,2.8,0.6
					c0.3,1.4,1.1,2.7,2.3,3.8c0-0.3,0-0.6,0-0.9c-0.2-1.9-0.6-3.9-0.7-5.8c-0.2-3.3,0.3-6.5,1.6-9.5c1-2.3,1.8-4.7,2-7.2
					c0.5-5.4-2.8-8.2-6.1-9.6c-0.6-0.2-1.2-0.4-1.9-0.6c-1.7-0.3-3.1-1.2-4.3-2.3c-0.7-0.6-0.8-1.3-0.7-2.1c0.2-1.6,0.9-3,1.7-4.4
					c0.1-0.3,0.5-0.5,0.8-0.5c1.3,0,2.6,0.3,3.9,0.9c-0.6,1.5-1.7,2.4-3.1,2.9c-0.2,0.1-0.5,0.1-0.6,0.2c-0.2,0.2-0.6,0.6-0.5,0.8
					c0.1,0.3,0.5,0.5,0.8,0.6c0.3,0.1,0.7,0,0.9-0.2c1-0.5,1.9-1.1,2.9-1.7c0.9,2,2.9,3.1,4.7,4.4c0.3,0.2,0.8,0.4,1.2,0.5
					c0.5,0.1,0.8-0.2,0.5-0.7c-0.2-0.4-0.5-0.8-0.9-1c-1-0.9-2.1-1.7-3.2-2.6c-0.9-0.8-0.9-0.9-0.5-2c0.6-1.6,1.2-3.1,1.8-4.7
					c0.1-0.3,0.4-0.6,0.6-1c0.1,0,0.2,0,0.6-0.1c-0.9-1-1.8-1.8-2.9-2.2c-0.2-0.1-0.6,0.2-0.7,0.4c-0.1,0.2,0,0.6,0.2,0.8
					c0.3,0.3,0.6,0.4,1,0.6c0.3,0.2,0.4,0.4,0.2,0.8c-0.2,0.2-0.3,0.5-0.4,0.8c-0.2,0.8-0.8,1.1-1.5,1c-0.8-0.1-1.6-0.2-2.4-0.4
					c-0.9-0.3-1.1-0.7-0.7-1.5c0.3-0.8,0.6-1.5,1-2.2c0.4-0.9,0.7-1.7,1.1-2.6c2.4,0.4,4.9,0.9,7.3,1.3c1,0.2,1.6,0.7,1.8,1.7
					c1,4.2,2.2,8.5,3.2,12.7c0.4,1.6,0.3,3.3,0.5,4.9c0.8,9.6,1.6,19.3,2.4,28.9c0.2,2,0.4,4-0.1,6c-0.3,1.5-1.2,2.3-2.8,2.7
					c-3,0.7-5.9,0.5-8.9,0.3c-9.6-0.6-19-2-28.5-3.3c-1.1-0.2-2.1-0.4-3.2-0.7c-0.2,0-0.3-0.4-0.4-0.6c-0.2-2.3-0.4-4.6-0.6-6.9
					c-0.4-3.9-0.8-7.8-1.2-11.7C290,191.4,290,191.3,290,191"/>
				<path class="st15" d="M286,336.7c5.9-0.9,11.8-1.7,17.7-2.5c0.2,0.8,0.4,1.7,0.6,2.6c2.9,12.9,5.8,25.8,8.6,38.7
					c1.8,8.2,4.5,16.1,7.3,24c1,2.8,2.1,5.6,3.1,8.4c0.1,0.2,0.1,0.4,0.2,0.7c-1.4-0.8-2.8-1.1-4.2-1.2c-0.7-0.1-1.4-0.1-2,0
					c-0.6,0.1-1.1,0.5-1.8,0.7c-0.3-0.3-0.6-0.7-0.9-1.1c-2.3-2.8-4.6-5.6-6.9-8.4c-2.3-2.8-4.2-5.8-5.8-9
					c-1.6-3.3-3.2-6.7-4.6-10.1c-2-4.7-2.6-9.8-3-14.9c-0.5-6.4-1.3-12.8-2.5-19.1c-0.4-2.2-1.4-4.1-2.9-5.7
					c-0.8-0.8-1.6-1.7-2.4-2.5C286.3,337.1,286.2,336.9,286,336.7"/>
				<path class="st15" d="M211.6,173.4c1.2,0.7,2.4,0.8,3.7,0.7c-0.2-0.4-0.3-0.8-0.5-1.2c-0.1-0.1-0.2-0.2-0.3-0.2
					c-0.1-0.1-0.3,0-0.5-0.1c-1.8-0.2-1.9-0.6-2-2.4c0-0.2,0.2-0.5,0.4-0.5c0.9-0.3,1.7-0.5,2.6-0.6c0.7-0.1,1.4,0,2.1,0.1
					c0.6,0.1,0.8,0.6,0.7,1.2c-0.1,0.5,0,0.9,0,1.4c0,0.4,0,0.9-0.2,1.3c-0.6,1-1.2,2-1.9,3c-1.4,1.7-3.2,2.6-5.4,2.5
					c-1.8-0.1-3.2,0.6-4.6,1.6c-0.9,0.6-1.8,1.4-2.5,2.2c-1.1,1.3-1.7,3-2,4.6c-0.4,2.4-0.7,4.9-0.9,7.3c-0.3,2.9-0.4,5.9-1.2,8.7
					c-0.4,1.5-1,2.9-1.9,4.2c-0.3,0.5-0.5,1-0.8,1.5c-0.2,0.4,0,0.6,0.4,0.5c0.7-0.1,1.3-0.5,1.7-1.1c1.1-1.4,1.7-3.1,2.2-4.9
					c0.1-0.4,0.2-0.8,0.3-1.3c0.6,0.1,1.2,0.2,1.7,0.2c1.5,0.1,3-0.3,4.3-0.8c2.2-0.9,4.4-1.9,6.5-2.9c5.2-2.6,10.5-5.3,15.7-7.8
					c1.4-0.7,2.8-1.1,4.3-1.5c0.9-0.3,1.8-0.4,2.8-0.5c0.4,6.4,0.7,12.8,1.1,19.2c-0.5-0.1-0.9-0.1-1.2-0.1c-2.7-0.4-5.5,0-8.2,0.2
					c-10.7,0.7-21.2,2.3-31.6,4.5c-2.6,0.6-5.3,0.9-8,1.4c-1,0.2-1.6-0.5-2.3-1c-1.1-1-1.5-2.3-1.5-3.7c-0.1-3.3,0.7-6.3,2.3-9.1
					c0.9-1.6,1.9-3.1,2.8-4.6c1.7-2.6,2.8-5.5,3.9-8.4c0.8-2.4,1.9-4.6,3.1-6.8c1.8-3.3,3.3-6.7,5-10.1c1.3-2.6,2.7-5.2,4.1-7.8
					c0.1-0.1,0.1-0.2,0.2-0.3c0.9-1.1,1.8-2.1,2.7-3.2c0.3-0.4,0.8-0.5,1.3-0.3c1.8,0.8,3.3,1.9,4.5,3.6c0.6,0.9,0.2,1.6-0.2,2.4
					c-0.4,0.7-1.1,0.9-1.9,0.9c-0.2,0-0.6-0.1-0.7-0.3c-0.4-0.7-1.2-1.2-0.8-2.2c0.2-0.4-0.1-0.5-0.5-0.5c-0.5,0.1-0.7,0.4-0.8,0.8
					c-0.6,2.5-0.5,5,0.4,7.4c0.5,1.2,0.2,2.1-0.6,3.1c-1.5,1.7-3.1,3.3-5,4.7c-0.4,0.3-0.8,0.5-1,0.9c-0.2,0.2-0.2,0.7-0.1,0.9
					c0.2,0.2,0.6,0.3,0.9,0.3c0.4-0.1,0.7-0.3,1-0.6c2.3-1.6,4.3-3.5,5.9-5.7C211.4,173.7,211.5,173.6,211.6,173.4"/>
				<path class="st13" d="M193.6,437.6c-2.7-0.1-4.7-0.2-6.8-0.3c-1.6,0-2.5-0.9-3.1-2.3c-0.7-1.9-0.7-3.8-0.2-5.8
					c1-3.3,2.9-5.9,5.6-7.9c1.7-1.2,3.5-1.6,5.5-1.1c1.6,0.4,3.2,0.8,4.8,1.2c0.2,0.1,0.5,0.2,0.7,0.4c0.9,0.7,1.9,1.3,2.7,2
					c3.3,2.7,6.9,3.2,10.8,1.7c3.1-1.2,5.8-2.9,7.9-5.4c0.5-0.6,0.8-1.5,1.2-2.2c0.1-0.2,0.3-0.4,0.5-0.4c2.8-0.4,5.5-0.8,8.3-1.2
					c0.6-0.1,1.1-0.1,1.7-0.1c1.1,0.1,1.8,0.6,1.8,1.8c0,1.5,0,2.9-0.2,4.4c-0.3,2.2-0.7,4.4-1.1,6.6c0,0,0,0,0,0.1
					c-0.4,2.5-0.8,2.7-3.2,3c-5.3,0.7-10.7,1.4-15.9,2.4c-4.6,0.9-9.1,1.9-13.7,2.5C198.2,437.4,195.5,437.5,193.6,437.6"/>
				<path class="st15" d="M244.9,188c1.4,0.2,2.6,0.3,3.8,0.4c0.4,0,0.7,0.1,1.1,0.1c2.1,0.3,3.1-1.3,3.2-3c0.1-2.8,0.1-5.6-0.7-8.4
					c1,0.5,1.9,1,2.8,1.4c2.4,1.3,5,2.3,7.8,2.5c3.1,0.3,5.8-0.8,8.3-2.5c0.4-0.3,0.9-0.6,1.4-1c0,0.2,0,0.4,0,0.5
					c-0.2,2.8,0,5.5,1.4,8c0.4,0.7,0.9,1.2,1.4,1.8c0.2,0.3,0.5,0.5,0.7,0.8c0.9,1.3,2.1,1.9,3.7,1.9c0.5,0,0.9,0,1.5,0
					c-0.2,1.1-0.2,2-0.5,3c-0.1,0.3-0.4,0.7-0.7,0.9c-6,5.1-13,7-20.8,6.4c-2.7-0.2-5.4-0.6-8-1.6c-2.6-1-4.3-2.8-5-5.6
					C245.9,191.9,245.4,190,244.9,188"/>
				<path class="st13" d="M325.1,410.3c0.3-0.4,0.6-0.4,1,0c0.4,0.4,0.7,0.8,1,1.3c0.4,0.7,0.8,1.5,1.1,2.3c1.6,3.9,4,7.3,6.9,10.3
					c1.7,1.8,3.3,3.7,4.8,5.7c2.1,2.7,1.8,5.7,0.8,8.7c-0.4,1.3-1.4,2.1-2.5,2.7c-2.2,1.2-4.6,1.7-7.1,1.8
					c-4.8,0.2-9.5-0.4-13.9-2.2c-1.4-0.6-2.8-1.3-3.9-2.5c-2.1-2.2-2.8-4.7-1.8-7.6c0.4-1.1,0.8-2.2,1.2-3.3
					c1.6-4.2,1.5-8.4,0.3-12.7c-0.2-0.9-0.5-1.7-0.7-2.6c-0.3-1.2,0-1.5,1.2-1.1c0.3,0.1,0.7,0.3,1,0.5c0.2,0.2,0.4,0.5,0.4,0.7
					c0.3,4.4,0.9,8.7,2,12.9c0.4,1.8,1.3,3.5,2.6,4.8c0.8,0.8,1.5,1,2.6,0.4c0.3-0.2,0.6-0.3,0.8-0.6c1.5-1.5,3.2-1.6,5.1-1.2
					c1,0.2,2,0.4,3,0.5c1.1,0.1,1.7-0.4,1.7-1.4c0-1.1-0.1-2.3-0.4-3.4c-0.4-1.1-0.9-2.3-1.6-3.3c-1.6-2.3-2.9-4.7-3.9-7.3
					C326.2,412.6,325.7,411.5,325.1,410.3"/>
				<path class="st16" d="M298.5,333.1c-1.3,0.2-2.5,0.4-3.8,0.6c-0.4,0.1-0.4-0.3-0.5-0.5c-0.9-2.9-1.8-5.7-2.7-8.6
					c-1.8-5.9-3.2-12-4.3-18.1c-0.7-3.8-1.9-7.4-2.7-11.2c-1.6-7.4-3.2-14.9-4.8-22.3c0-0.1,0-0.2,0-0.4c1.8-0.6,3.5-1.1,5.4-1.7
					c0,0.2,0.1,0.5,0.1,0.7c1.9,12.2,4,24.4,7.1,36.4c1.4,5.6,3,11.1,4.5,16.7c0.7,2.6,1.2,5.3,1.8,7.9
					C298.5,332.8,298.5,332.9,298.5,333.1"/>
				<path class="st13" d="M288.6,269.6c0.6,2,1.2,3.9,1.7,5.9c2.6,11.8,5.9,23.3,9.7,34.8c1.6,4.9,3.3,9.8,4.3,14.9
					c0.3,1.6,0.4,3.2,0.7,4.8c0.1,0.5,0.2,1,0.3,1.7c-1.5,0.6-3.2,0.6-5,1.1c-0.2-1.2-0.4-2.2-0.7-3.3c-1.6-6.3-3.2-12.6-4.9-18.9
					c-2.2-8.4-4-17-5.6-25.5c-0.9-4.7-1.8-9.3-2.7-14c-0.1-0.5,0-0.7,0.4-0.8C287.3,270.1,287.9,269.9,288.6,269.6"/>
				<path class="st12" d="M330.9,427.5c-0.9-0.2-1.8-0.3-2.7-0.5c-2.5-0.5-4.7-0.2-6.6,1.6c-0.7,0.6-0.7,0.6-1.4-0.1
					c-1.1-1.1-1.6-2.4-2-3.8c-1-4-1.6-8-1.9-12.1c0-0.7,0-1.4,0-2.1c0-0.9,0.6-1.6,1.6-1.5c1.1,0.1,2.3,0.1,3.4,0.3
					c0.6,0.1,1.2,0.5,1.8,0.9c0.2,0.1,0.3,0.5,0.4,0.8c0.1,0.1,0.1,0.3,0.1,0.4c0.8,1.8,1.5,3.6,2.4,5.3c0.9,1.8,2,3.5,3.1,5.2
					c0.9,1.4,1.6,2.8,1.8,4.5C331,426.7,330.9,427,330.9,427.5"/>
				<path class="st15" d="M240.7,163.6c-0.7-0.1-1.3-0.1-2-0.2c-7.5-1.3-12-8.7-9.6-15.7c0.2-0.6,0.5-1.2,0.9-1.8
					c1.2-1.7,3.3-2,5-0.8c0.9,0.6,1.5,1.5,1.9,2.4c0.4,1,0.8,2,0.9,3.1c0.1,1.6,0.5,3.2,0.7,4.8c-0.4,0.1-0.7,0.2-1.1,0.3
					c-1.4,0.6-2.4,2.5-2.1,4c0.1,0.3,0.4,0.5,0.6,0.8c0.2-0.2,0.6-0.5,0.7-0.8c0.2-0.4,0.1-0.9,0.3-1.3c0.3-1,0.8-1.5,1.8-1.7
					C239.4,159.1,240,161.3,240.7,163.6"/>
				<path class="st12" d="M216.9,412.5c0.8,2.3,1.8,4.3,4.4,5.2c-0.1,0.3-0.2,0.7-0.4,0.9c-2.8,3.4-6.4,5.7-10.9,6.2
					c-1.1,0.1-2.4,0-3.4-0.5c-1.5-0.6-2.9-1.6-4.3-2.5c1.6-0.6,3-1,4.4-1.6c2.6-1.1,4.6-3.1,6.7-4.9c1-0.9,2-1.7,3-2.6
					C216.5,412.8,216.7,412.7,216.9,412.5"/>
				<path class="st15" d="M284.5,161.5c0.3-2.3,0.5-4.5,0.8-6.7c0.6,0.5,0.9,1,1.1,1.7c0.2,0.6,0.3,1.2,0.5,1.8
					c0.1,0.2,0.2,0.3,0.3,0.4c0.1-0.1,0.3-0.2,0.4-0.4c1-1.6,0-4-1.8-4.6c-0.4-0.1-0.6-0.3-0.6-0.8c0-1.2,0-2.5,0-3.7
					c0-0.3,0.1-0.6,0.3-0.8c0.3-0.6,0.6-1.1,1.1-1.6c0.5-0.6,1.1-1.2,1.7-1.6c1-0.6,2.1-0.5,2.9,0.3c0.8,0.7,1.2,1.7,1.4,2.7
					c1,4.8-2,10.8-6.5,12.8C285.6,161.2,285.1,161.3,284.5,161.5"/>
				<path class="st15" d="M212.3,157.7c0.1-0.1,0.1-0.1,0.1-0.1c1.5-1.2,1.6-1.2,3.1-0.1c1.4,1.1,2.8,2.3,4.2,3.5
					c0.2,0.2,0.3,0.6,0.3,0.8c-0.4,2-1.5,3.4-3.2,4.4c-1.4,0.8-2.9,1.1-4.4,1.3c-1,0.1-1.6-0.2-1.9-0.9c-0.1-0.2-0.1-0.5,0-0.5
					c0.2-0.1,0.5-0.2,0.6-0.2c0.9,0.4,1.9,0.3,2.8,0.2c0.9-0.1,1.4-0.8,1.9-1.5c0.9-1.5,0.9-3-0.3-4.3c-0.8-0.8-1.7-1.6-2.5-2.3
					C212.8,157.9,212.6,157.8,212.3,157.7"/>
				<path class="st15" d="M217.5,167.7c0.3-0.2,0.5-0.3,0.7-0.5c1.8-1.2,2.9-2.8,3.4-4.9c0.3-1.1,0.1-1.9-0.8-2.6
					c-0.6-0.5-1.2-1.1-1.9-1.6c-0.2-0.2-0.3-0.3-0.6-0.5c0.9-0.2,1.7,0,2.1,0.7c1.4,2.2,2.7,4.5,3.4,7c0.4,1.5,0,2-1.5,2.4
					C220.7,168.1,219.1,168.1,217.5,167.7"/>
				<path class="st15" d="M321.3,155.2c-0.3,0-0.7-0.1-1-0.1c-0.2,0-0.4,0.1-0.5,0.3c-1,1.8-1.9,3.7-2.8,5.6
					c-0.2,0.5-0.1,1.2-0.2,1.8c-0.8,0.1-2.1-0.6-2.3-1.5c-0.1-0.4,0-1,0.2-1.4c0.8-2,2-3.7,3.4-5.3c0.8-0.9,0.5-0.9,1.6-0.3
					c0.6,0.3,1.1,0.6,1.7,0.8C321.3,155,321.3,155.1,321.3,155.2"/>
				<path class="st15" d="M315.9,154.5c-0.8,1.2-1.5,2.3-2.2,3.5c-0.3,0.4-0.5,0.9-0.7,1.4c-0.5,1.2-0.5,2.3,0.5,3.4
					c-1.6,0.1-2.4-0.6-2.2-2.1c0.2-1.3,0.5-2.6,0.9-3.9c0.2-0.8,0.7-1.3,1.5-1.6C314.5,154.9,315.2,154.7,315.9,154.5"/>
				<path class="st15" d="M314.5,164.4c-0.3,0.7-0.5,1.4-0.9,2.3c-0.7-0.8-1.2-1.5-1.8-2.3c0-0.1,0.1-0.1,0.1-0.2
					C312.7,164.3,313.6,164.3,314.5,164.4"/>
				<path class="st15" d="M222.2,169.3c-0.9,0.7-1.8,1-2.8,1.1c-0.1-0.3-0.2-0.6-0.4-0.9C220,169.5,221,169.4,222.2,169.3"/>
				<path class="st11" d="M269.1,218.6c0.4-0.1,0.7-0.2,1.1-0.2c2.5-0.5,5-0.6,7.4,0c2.8,0.7,4,2.7,3.3,5.6
					c-0.4,1.7-1.3,3.2-2.3,4.6c-2.9,4.2-6.5,7.6-10.7,10.4c-0.4,0.3-0.6,0.6-0.6,1.1c0,1.5,0,3,0,4.4c0,1.3-0.5,1.6-1.7,1.4
					c-1.9-0.3-3.9-0.7-5.9-1c-0.9-0.1-1.1-0.2-1.5-1.1c-0.5,0.1-1,0.3-1.5,0.4c-2.7,0.8-5.5,1.3-8.4,0.9c-0.1,0-0.2,0-0.3-0.1
					c-4.2-0.9-6-4-4.7-8.1c0.8-2.4,2.3-4.4,4.1-6.2c1.9-1.8,4-3.4,5.9-5.1c0.4-0.3,0.8-0.7,1.1-1.1c2.1-2.8,4.2-5.6,6.3-8.3
					c0.3-0.4,0.6-0.9,0.9-1.4c0.3-0.5,0.6-0.7,1.1-0.8c1.8-0.2,3.6-0.3,5.3-0.5c1.2-0.1,1.6,0.4,1.4,1.6
					C269.4,216.4,269.3,217.4,269.1,218.6 M265.4,244.1c0.5-9.6,1.4-19.1,2.4-28.7c-1.5,0.1-3,0.3-4.5,0.4c-0.1,0-0.3,0.2-0.4,0.3
					c-0.6,0.8-1.2,1.6-1.9,2.4c-2.8,3.6-5.6,7.3-7.8,11.3c-0.1,0.2-0.2,0.5-0.4,0.8c0.3,0,0.4,0.1,0.6,0.1c1-0.1,2-0.3,3.1-0.4
					c1-0.1,1.5-0.5,1.7-1.5c0.1-0.6,0.4-1,1-1.2c0.9-0.3,1.8-0.6,2.7-0.9c0.8-0.2,1.3,0.2,1.4,1c0,0.7,0,1.4-0.1,2.1
					c-0.6,3-1.3,5.9-1.9,8.9c-0.3,1.5-0.8,2.9-1.1,4.4C261.9,243.5,263.7,243.8,265.4,244.1 M261.6,228.6c-1,0.2-1.9,0.3-2.1,1.5
					c-0.2,1-1,1.6-2.1,1.7c-1.7,0.1-3.4,0.2-5.1,0.3c-1.1,0-1.4-0.6-1.1-1.6c0.2-0.5,0.4-1,0.6-1.5c-2.1,1.6-3.9,3.4-5.4,5.5
					c-0.8,1.1-1.5,2.4-1.8,3.7c-0.5,2.6,0.6,4.4,3.1,5.1c0.4,0.1,0.8,0.2,1.1,0.2c3.3,0.4,6.4-0.5,9.4-1.6c0.2-0.1,0.3-0.3,0.4-0.5
					c0.9-3.6,1.7-7.2,2.6-10.8C261.5,230,261.5,229.4,261.6,228.6 M267.5,237.2c0.3-0.2,0.4-0.2,0.6-0.4c3.2-2.3,6.2-5,8.5-8.3
					c1.1-1.5,2.2-3.1,2.7-5c0.5-2-0.2-3.2-2.2-3.7c-2.5-0.5-5-0.5-7.5,0.2c-0.5,0.2-0.7,0.4-0.8,1c-0.3,4.2-0.7,8.4-1,12.6
					C267.7,234.9,267.6,236,267.5,237.2"/>
				<path class="st11" d="M256.7,286.2c-4.1,0.8-8.3,1.6-12.4,2.4c0,0.1,0,0.1,0,0.2h4.4l0,0.1c-0.1,0-0.3,0.1-0.4,0.1
					c-2.5,0.3-5,0.6-7.4,0.9c-0.5,0.1-1.1,0.2-1.2-0.5c-0.1-0.7,0.5-0.8,1-0.9c3.6-1,7.4-1.8,11.1-2.2c1.2-0.1,2.4-0.2,3.6-0.3
					c0.4,0,0.9,0.1,1.3,0.1C256.7,286,256.7,286.1,256.7,286.2"/>
				<path class="st11" d="M245.4,298c0.1-0.2,0.3-0.3,0.4-0.5c3.3-3.2,6.6-6.2,10.4-8.8c0.6-0.4,1.1-0.7,1.7-1c0.1-0.1,0.4,0,0.6,0
					c-0.1,0.2-0.1,0.4-0.2,0.5c-0.9,0.7-1.8,1.3-2.7,2c-3,2.4-6,4.8-9.1,7.1c-0.3,0.3-0.7,0.5-1,0.7L245.4,298z"/>
				<path class="st11" d="M272,144.9c2.1,0,3.8,0.6,5.1,2c1.3,1.4,1.5,3.1,0.6,4.8c-1.3,2.4-3.4,3.5-6,4c-1.3,0.2-2.6,0.2-3.9-0.2
					c-2.1-0.6-3.1-2.2-2.9-4.4c0-0.3-0.1-0.6-0.1-0.9c0.1-0.5,0.1-1,0.3-1.3c1.2-1.9,3-3.1,5.2-3.7C271,145,271.6,144.9,272,144.9
					 M272.7,146.6c-0.9,0-1.4,0.3-1.7,1.1c-0.4,1.2-0.3,2.3,0.3,3.4c0.9,1.5,3.7,1.6,4.7,0.1c0.7-1.1,0.6-2.3-0.3-3.2
					C274.9,147,273.8,146.6,272.7,146.6 M271.9,153.7c-2.7-1.6-3.1-3.9-2.5-6.6c-0.9,0.5-1.7,1.1-2.4,1.6c-0.1,0.1-0.3,0.3-0.3,0.5
					c-0.1,0.8-0.2,1.5-0.2,2.3c0,1.1,0.5,1.8,1.5,2.1C269.3,154,270.5,154,271.9,153.7"/>
				<path class="st11" d="M248.9,157.1c-0.4,0-1.1-0.1-1.8-0.2c-2.5-0.5-3.8-2.6-3.3-5.1c0.6-2.9,3.5-5.2,6.5-5.1
					c1.9,0.1,4.3,1.9,4.9,3.7c0.2,0.4,0.5,0.8,0.6,1.3c0.4,1.6-0.8,3.9-2.3,4.6C252.1,156.9,250.7,157.1,248.9,157.1 M249.6,151.5
					c0,1.3,0.5,2.1,1.5,2.5c1.3,0.4,2.5-0.3,2.7-1.5c0.1-1.5-1.1-3.4-2.4-3.9c-0.2-0.1-0.5,0.1-0.6,0.2
					C250.1,149.6,249.7,150.6,249.6,151.5 M249.1,148.6c-0.1,0-0.1,0-0.2,0c-1.8,0.4-3.4,2.2-3.5,4c-0.1,0.7,0.1,1.4,0.6,2
					c0.8,0.8,3,1.2,4.1,0.8C247.7,153.5,247.5,152.3,249.1,148.6"/>
				<path class="st11" d="M252.3,165.9c0.5,0.3,1,0.5,1.5,0.7c0.1,0.1,0.3,0,0.5,0c3.9-0.3,7.9-0.6,11.8-0.9
					c1.2-0.1,2.3-0.2,3.5-0.3c0.3,0,0.7-0.3,0.9-0.6c0.2-0.3,0.4-0.8,0.9-0.7c0.2,0,0.6,0.3,0.6,0.4c0,0.4,0,1-0.2,1.3
					c-2.3,2.9-5.2,4.9-9,5.4c-1.5,0.2-3-0.1-4.4-0.5c-1.9-0.4-3.6-1.3-5.1-2.5c-0.2-0.1-0.3-0.3-0.5-0.3
					C252,167.6,251.8,167,252.3,165.9 M256.5,168.4c3.4,2.1,9.7,1.4,11.9-1.2c-0.1,0-0.1,0-0.2,0c-3.6,0.2-7.2,0.4-10.7,0.5
					C257,167.6,256.6,167.8,256.5,168.4"/>
				<path class="st11" d="M277.1,140.5c0.4,0,1.2,0.1,2.1,0.2c0.3,0,0.7,0.2,0.9,0.4c0.5,0.4,0.3,1.1-0.3,1.3
					c-0.2,0.1-0.5,0.1-0.7,0.1c-4.4-0.5-8.5,0.4-12.5,2c-0.4,0.2-0.9,0.4-1.3,0.5c-0.3,0.1-0.8,0-1-0.2c-0.3-0.4,0-0.7,0.4-0.9
					c0.7-0.4,1.4-0.8,2.1-1.1C269.9,141.3,273.2,140.6,277.1,140.5"/>
				<path class="st11" d="M245.1,143c3,0,6,0.3,8.8,1.6c0.5,0.2,0.9,0.5,1.3,0.9c0.2,0.2,0.2,0.5,0.3,0.8c-0.3,0-0.6,0.2-0.8,0.1
					c-1.4-0.4-2.9-0.9-4.3-1.2c-2.8-0.6-5.6-0.7-8.4-0.3c-0.1,0-0.2,0-0.3,0c-0.6,0-1.1-0.3-1.1-0.7c0-0.6,0.4-0.9,0.9-1
					c0.8-0.1,1.6-0.2,2.4-0.2C244.2,143,244.7,143,245.1,143"/>
				<path class="st11" d="M261,162.4c-1.5,0-2.8-0.2-4-0.8c-1.1-0.6-1.7-1.3-1.6-2.3c0.1-1.1,1.1-2.3,2.1-2.5c0.1,0,0.3-0.1,0.4,0
					c0.2,0.1,0.4,0.2,0.5,0.3c0.1,0.1-0.1,0.3-0.2,0.5c-0.3,0.4-0.7,0.7-1,1.1c-0.5,0.7-0.4,1.1,0.4,1.5c0.3,0.2,0.7,0.3,1.1,0.4
					c1.7,0.3,3.4,0.3,5-0.2c0.1,0,0.1,0,0.2-0.1c0.5-0.1,0.9-0.1,1.1,0.4c0.2,0.5-0.1,0.9-0.6,1.1c-0.7,0.2-1.5,0.4-2.3,0.6
					C261.8,162.4,261.3,162.4,261,162.4"/>
				<path class="st17" d="M265.4,244.1c-1.7-0.3-3.5-0.6-5.4-0.9c0.4-1.5,0.8-2.9,1.1-4.4c0.7-2.9,1.3-5.9,1.9-8.9
					c0.1-0.7,0.1-1.4,0.1-2.1c0-0.8-0.6-1.3-1.4-1c-0.9,0.2-1.8,0.6-2.7,0.9c-0.5,0.2-0.9,0.6-1,1.2c-0.2,0.9-0.7,1.4-1.7,1.5
					c-1,0.1-2.1,0.2-3.1,0.4c-0.2,0-0.3,0-0.6-0.1c0.1-0.3,0.3-0.6,0.4-0.8c2.2-4.1,4.9-7.7,7.8-11.3c0.6-0.8,1.2-1.6,1.9-2.4
					c0.1-0.1,0.3-0.3,0.4-0.3c1.5-0.2,3-0.3,4.5-0.4C266.9,224.9,265.9,234.5,265.4,244.1"/>
				<path class="st16" d="M261.6,228.6c-0.1,0.7-0.1,1.4-0.3,2c-0.8,3.6-1.7,7.2-2.6,10.8c0,0.2-0.2,0.5-0.4,0.5
					c-3,1.1-6.1,2-9.4,1.6c-0.4,0-0.8-0.1-1.1-0.2c-2.5-0.7-3.6-2.5-3.1-5.1c0.3-1.4,1-2.6,1.8-3.7c1.5-2.1,3.3-3.9,5.4-5.5
					c-0.2,0.5-0.4,1-0.6,1.5c-0.4,1,0,1.6,1.1,1.6c1.7,0,3.4-0.1,5.1-0.3c1.1-0.1,1.9-0.7,2.1-1.7
					C259.8,228.9,260.7,228.9,261.6,228.6"/>
				<path class="st16" d="M267.5,237.2c0.1-1.2,0.2-2.3,0.3-3.4c0.3-4.2,0.7-8.4,1-12.6c0-0.6,0.2-0.8,0.8-1c2.5-0.7,5-0.8,7.5-0.2
					c2,0.4,2.7,1.6,2.2,3.7c-0.5,1.9-1.6,3.4-2.7,5c-2.4,3.2-5.3,5.9-8.5,8.3C267.9,236.9,267.8,237,267.5,237.2"/>
				<path class="st18" d="M272.7,146.6c1.1,0.1,2.2,0.5,3,1.4c0.9,0.9,1,2.2,0.3,3.2c-1,1.4-3.8,1.4-4.7-0.1
					c-0.6-1.1-0.7-2.2-0.3-3.4C271.2,146.9,271.8,146.5,272.7,146.6"/>
				<path class="st16" d="M271.9,153.7c-1.4,0.2-2.6,0.3-3.8-0.1c-1-0.4-1.5-1-1.5-2.1c0-0.8,0.1-1.5,0.2-2.3c0-0.2,0.1-0.4,0.3-0.5
					c0.8-0.6,1.6-1.1,2.4-1.6C268.8,149.9,269.3,152.1,271.9,153.7"/>
				<path class="st18" d="M249.6,151.5c0-0.9,0.4-1.9,1.1-2.7c0.1-0.1,0.5-0.3,0.6-0.2c1.4,0.5,2.6,2.4,2.4,3.9
					c-0.1,1.2-1.4,1.9-2.7,1.5C250.2,153.6,249.6,152.8,249.6,151.5"/>
				<path class="st16" d="M249.1,148.6c-1.6,3.7-1.4,4.9,1,6.8c-1,0.4-3.3,0-4.1-0.8c-0.5-0.6-0.7-1.3-0.6-2c0.1-1.8,1.7-3.6,3.5-4
					C248.9,148.5,249,148.6,249.1,148.6"/>
				<path class="st16" d="M256.5,168.4c0.1-0.6,0.5-0.7,1-0.7c3.6-0.2,7.2-0.3,10.7-0.5c0.1,0,0.1,0,0.2,0
					C266.2,169.8,259.9,170.4,256.5,168.4"/>
			</g>
		</g>
	</g>
	<g>
		<g>
			<defs>
				<rect id="SVGID_9_" x="281" y="75.9" width="420.8" height="341.3"/>
			</defs>
			<clipPath id="SVGID_10_">
				<use xlink:href="#SVGID_9_"  style="overflow:visible;"/>
			</clipPath>
			<g class="st19">
				<defs>
					<rect id="SVGID_11_" x="281" y="75.9" width="420.8" height="341.3"/>
				</defs>
				<clipPath id="SVGID_12_">
					<use xlink:href="#SVGID_11_"  style="overflow:visible;"/>
				</clipPath>
				<path class="st20" d="M554.1,210.8c-5.2-3-10.1-2.4-13.6,0.4l-44.9,34.1l18.9,13.1l43.8-32.9c0,0,0,0,0,0l0.1-0.1l0,0
					c0.6-0.5,1.2-1.1,1.6-1.8C562.3,219.8,559.7,214.1,554.1,210.8"/>
				<path class="st21" d="M554.1,210.8c-5.2-3-10.1-2.4-13.6,0.4l-44.9,34.1l18.9,13.1l43.8-32.9c0,0,0,0,0,0l0.1-0.1l0,0
					c0.6-0.5,1.2-1.1,1.6-1.8C562.3,219.8,559.7,214.1,554.1,210.8z"/>
				<path class="st20" d="M514.5,258.5c-2.3,3.9-8.6,4.4-14.1,1.2c-5.5-3.2-8.2-9-5.9-12.9c2.3-3.9,8.6-4.4,14.1-1.2
					C514.2,248.8,516.8,254.6,514.5,258.5"/>
				<path class="st21" d="M514.5,258.5c-2.3,3.9-8.6,4.4-14.1,1.2c-5.5-3.2-8.2-9-5.9-12.9c2.3-3.9,8.6-4.4,14.1-1.2
					C514.2,248.8,516.8,254.6,514.5,258.5z"/>
				<path class="st22" d="M503.2,213.6c-5.2-3-10.1-2.4-13.6,0.4L423,262.1l18.9,13.1l65.5-46.9c0,0,0,0,0,0l0.1-0.1l0,0
					c0.6-0.5,1.2-1.1,1.6-1.8C511.3,222.6,508.7,216.8,503.2,213.6"/>
				<path class="st21" d="M503.2,213.6c-5.2-3-10.1-2.4-13.6,0.4L423,262.1l18.9,13.1l65.5-46.9c0,0,0,0,0,0l0.1-0.1l0,0
					c0.6-0.5,1.2-1.1,1.6-1.8C511.3,222.6,508.7,216.8,503.2,213.6z"/>
				<path class="st22" d="M441.9,275.2c-2.3,3.9-8.6,4.4-14.1,1.2c-5.5-3.2-8.2-9-5.9-12.9c2.3-3.9,8.6-4.4,14.1-1.2
					C441.5,265.6,444.2,271.3,441.9,275.2"/>
				<path class="st21" d="M441.9,275.2c-2.3,3.9-8.6,4.4-14.1,1.2c-5.5-3.2-8.2-9-5.9-12.9c2.3-3.9,8.6-4.4,14.1-1.2
					C441.5,265.6,444.2,271.3,441.9,275.2z"/>
				<path class="st23" d="M555.1,252.6c-5.2-3-10.1-2.4-13.6,0.4l-38.8,28.1l18.9,13.1l37.7-26.9c0,0,0,0,0,0l0.1-0.1l0,0
					c0.6-0.5,1.2-1.1,1.6-1.8C563.3,261.6,560.6,255.9,555.1,252.6"/>
				<path class="st21" d="M555.1,252.6c-5.2-3-10.1-2.4-13.6,0.4l-38.8,28.1l18.9,13.1l37.7-26.9c0,0,0,0,0,0l0.1-0.1l0,0
					c0.6-0.5,1.2-1.1,1.6-1.8C563.3,261.6,560.6,255.9,555.1,252.6z"/>
				<path class="st23" d="M521.6,294.3c-2.3,3.9-8.6,4.4-14.1,1.2c-5.5-3.2-8.2-9-5.9-12.9c2.3-3.9,8.6-4.4,14.1-1.2
					C521.3,284.6,523.9,290.4,521.6,294.3"/>
				<path class="st21" d="M521.6,294.3c-2.3,3.9-8.6,4.4-14.1,1.2c-5.5-3.2-8.2-9-5.9-12.9c2.3-3.9,8.6-4.4,14.1-1.2
					C521.3,284.6,523.9,290.4,521.6,294.3z"/>
				<path class="st24" d="M537.7,197.6c-5.2-3-10.1-2.4-13.6,0.4l-35.8,25.6l18.9,13.1c0,0,36-25.5,36.4-26.2
					C545.8,206.6,543.2,200.8,537.7,197.6"/>
				<path class="st21" d="M537.7,197.6c-5.2-3-10.1-2.4-13.6,0.4l-35.8,25.6l18.9,13.1c0,0,36-25.5,36.4-26.2
					C545.8,206.6,543.2,200.8,537.7,197.6z"/>
				<path class="st24" d="M507.1,236.7c-2.3,3.9-8.6,4.4-14.1,1.2c-5.5-3.2-8.2-9-5.9-12.9c2.3-3.9,8.6-4.4,14.1-1.2
					C506.8,227,509.4,232.8,507.1,236.7"/>
				<path class="st21" d="M507.1,236.7c-2.3,3.9-8.6,4.4-14.1,1.2c-5.5-3.2-8.2-9-5.9-12.9c2.3-3.9,8.6-4.4,14.1-1.2
					C506.8,227,509.4,232.8,507.1,236.7z"/>
			</g>
		</g>
	</g>
</g>
</svg>
