<?xml version="1.0" encoding="utf-8"?>
<!-- Generator: Adobe Illustrator 22.1.0, SVG Export Plug-In . SVG Version: 6.00 Build 0)  -->
<svg version="1.1" id="Слой_3" xmlns="http://www.w3.org/2000/svg" xmlns:xlink="http://www.w3.org/1999/xlink" x="0px" y="0px"
	 viewBox="0 0 690 500" style="enable-background:new 0 0 690 500;" xml:space="preserve">
<style type="text/css">
	.st0{clip-path:url(#SVGID_2_);fill:#F1F0F6;}
	.st1{clip-path:url(#SVGID_2_);fill:#D3AF99;}
	.st2{clip-path:url(#SVGID_2_);fill:#E0CABA;}
	.st3{clip-path:url(#SVGID_2_);fill:#BF9F8B;}
	.st4{clip-path:url(#SVGID_2_);}
	.st5{clip-path:url(#SVGID_4_);fill:#D8C9C4;}
	.st6{clip-path:url(#SVGID_4_);fill:#352E29;}
	.st7{clip-path:url(#SVGID_4_);fill:#1D1D1B;}
	.st8{clip-path:url(#SVGID_4_);fill:#E1D4C1;}
	.st9{clip-path:url(#SVGID_4_);fill:#FFFFFB;}
	.st10{clip-path:url(#SVGID_4_);fill:#FFEFE5;}
	.st11{clip-path:url(#SVGID_6_);fill:#FFFFFF;}
	.st12{clip-path:url(#SVGID_8_);fill:#1D1D1B;}
	.st13{clip-path:url(#SVGID_8_);fill:#D2BB81;}
	.st14{clip-path:url(#SVGID_8_);fill:#FFEFA7;}
	.st15{clip-path:url(#SVGID_8_);fill:#FFF4C7;}
	.st16{clip-path:url(#SVGID_8_);fill:#FFFFFF;}
	.st17{clip-path:url(#SVGID_8_);fill:#8AD9ED;}
	.st18{clip-path:url(#SVGID_8_);fill:#5F9021;}
	.st19{clip-path:url(#SVGID_8_);fill:#16AE51;}
	.st20{clip-path:url(#SVGID_8_);fill:#BDDE69;}
	.st21{clip-path:url(#SVGID_8_);fill:#573E2E;}
	.st22{clip-path:url(#SVGID_8_);fill:#C08A3E;}
	.st23{clip-path:url(#SVGID_8_);fill:#352E29;}
	.st24{clip-path:url(#SVGID_8_);fill:#CAB47C;}
	.st25{clip-path:url(#SVGID_8_);fill:#664231;}
	.st26{clip-path:url(#SVGID_8_);fill:#D29E86;}
	.st27{clip-path:url(#SVGID_8_);fill:#AB6F53;}
	.st28{clip-path:url(#SVGID_8_);fill:#F9F3E7;}
	.st29{clip-path:url(#SVGID_8_);fill:#B7A579;}
	.st30{clip-path:url(#SVGID_10_);}
	.st31{clip-path:url(#SVGID_10_);fill:#5D5D5D;}
	.st32{clip-path:url(#SVGID_10_);fill:#420000;}
	.st33{clip-path:url(#SVGID_10_);fill:#8B3216;}
	.st34{clip-path:url(#SVGID_10_);fill:#84004F;}
	.st35{clip-path:url(#SVGID_10_);fill:#435A2C;}
	.st36{clip-path:url(#SVGID_10_);fill:#1E4411;}
	.st37{clip-path:url(#SVGID_10_);fill:#F3A000;}
	.st38{clip-path:url(#SVGID_10_);fill:#FFFFFF;}
	.st39{clip-path:url(#SVGID_10_);fill:#383838;}
</style>
<g>
	<g>
		<defs>
			<rect id="SVGID_1_" x="0" width="690" height="500"/>
		</defs>
		<clipPath id="SVGID_2_">
			<use xlink:href="#SVGID_1_"  style="overflow:visible;"/>
		</clipPath>
		<rect x="0.6" y="0.2" class="st0" width="676.2" height="109.1"/>
		<polygon class="st1" points="0.6,0.2 0.6,298.1 113.1,353.8 179.4,311.5 166.5,64.6 159.2,55.6 81.3,0.2 		"/>
		<polygon class="st1" points="651.3,0.2 547.1,55.6 533.9,61 509.2,156.6 509.1,297.3 570.4,316.6 676.8,309.6 690,227.2 690,0.2 
					"/>
		<rect x="159.2" y="55.6" class="st2" width="387.9" height="291.8"/>
		<polygon class="st3" points="156.8,341.7 17.4,352.3 0.6,500 690,500 690,442.2 680.6,357.6 227.7,339.1 		"/>
		<g class="st4">
			<defs>
				<rect id="SVGID_3_" x="0.6" y="0.2" width="689.4" height="499.8"/>
			</defs>
			<clipPath id="SVGID_4_">
				<use xlink:href="#SVGID_3_"  style="overflow:visible;"/>
			</clipPath>
			<path class="st5" d="M232,404.3c2.3-0.1,4.7-0.3,7-0.4c36.8-1.7,73.8,0.4,110.6,2.5c36.5,2.1,73.4,4.2,108.6,11.5
				c24.4,5.1,47.7,12,73.4,11.1c25.9-0.9,52.1-0.3,78-0.3H690V500H577.6H364.3h-86.5c-26.2,0-52.7,1.9-78-3.7
				c-21-4.7-40.7-12.6-57.1-23.2c-12.4-8-23.8-19.5-20-31.3c2.7-8.4,12.5-14.6,22.6-19.1C171.2,411.1,201.7,406.1,232,404.3"/>
			<path class="st6" d="M139,340.2c-0.2,9.6-0.4,19.2-3.4,28.5c-2.3,7.4-6.3,14.5-10.3,21.5c-1.5,2.7-3.1,5.4-5.8,7.5
				c-4.4,3.4-11.2,4.6-17.6,5.1c-28,2.4-55.8-3.7-82.7-9.8c-6.2-1.4-12.9-3.1-16.2-7.2c-1.8-2.2-2.3-4.9-2.8-7.5
				c-5.4-30.5-9.7-61.3-8.5-92c0-1.3,0.2-2.7,1.4-3.6c1.2-0.9,3.1-1.1,4.9-1.2l66-3.6c9.9-0.5,20.8-0.2,30.5-1.7
				c9.4-1.4,17.5-2.4,26.4,1.3c8.5,3.6,14.1,10.1,16.9,16.9c2.9,7.2,3,14.6,1.5,21.9C137.7,323.9,139.2,332.4,139,340.2"/>
			<path class="st7" d="M89.1,404.1c-24.5,0-48.5-5.5-70.1-10.4c-6.6-1.5-13.4-3.3-16.8-7.5c-2-2.4-2.5-5.3-2.9-7.8
				c-5.1-29.3-9.7-60.8-8.6-92.1c0.1-1.5,0.2-3,1.7-4.1c1.6-1.2,4-1.3,5.6-1.4l66-3.6c3.3-0.2,6.7-0.3,10-0.4
				c6.8-0.2,13.9-0.4,20.3-1.3c10.2-1.5,18.1-2.3,27.1,1.4c8.1,3.4,14.2,9.6,17.3,17.3c2.7,6.8,3.2,14,1.5,22.2
				c-1,4.9-0.7,10.2-0.5,15.4c0.1,2.8,0.3,5.7,0.2,8.4c-0.2,9.5-0.4,19.2-3.4,28.7c-2.4,7.5-6.4,14.7-10.4,21.6
				c-1.5,2.6-3.1,5.5-6,7.7c-4.9,3.8-12.3,4.8-18.3,5.4C97.7,403.9,93.4,404.1,89.1,404.1 M107.5,275.7c-4,0-8.1,0.5-12.7,1.2
				c-6.6,1-13.8,1.2-20.7,1.4c-3.3,0.1-6.7,0.2-10,0.3l-66,3.6c-1.7,0.1-3.3,0.2-4.2,0.9c-0.9,0.7-1.1,1.9-1.1,3.1
				c-1.2,31.2,3.4,62.6,8.5,91.9c0.4,2.4,0.9,5.1,2.7,7.2c3,3.7,9.1,5.4,15.6,6.8c25.2,5.7,53.8,12.2,82.3,9.8
				c5.6-0.5,12.5-1.5,17-4.9c2.6-2,4.1-4.7,5.6-7.3c3.9-6.9,7.9-14,10.2-21.4c2.9-9.3,3.1-19,3.3-28.4c0.1-2.7-0.1-5.5-0.2-8.3
				c-0.3-5.2-0.5-10.6,0.5-15.7c1.6-7.9,1.1-15-1.5-21.6c-3-7.4-8.8-13.2-16.4-16.5C116,276.3,111.9,275.7,107.5,275.7"/>
			<path class="st8" d="M189.9,267.5c-12.2,12.4-13.1,28.9-10.5,44c2.6,15.1,8.3,30,7.8,45.3c-0.1,3.9-0.8,8.1-4,11.2
				c-2.1,2-5,3.5-7.9,4.9c-9.5,4.7-18.9,9.4-28.5,13.9c-4.8,2.3-9.7,4.5-14.6,6.6c-2.6,1.2-8.8,5.1-11.9,4.8
				c-3.1-0.3-3.6-3.4-3.2-5.7c2.9-17.6,6.3-35.3,6.8-53c0.5-17.8-2.1-35.8-10.8-52.3"/>
			<path class="st7" d="M120.7,399c-0.2,0-0.3,0-0.5,0c-3.7-0.4-4.5-3.7-4.1-6.5c0.4-2.7,0.9-5.3,1.3-8c2.5-14.7,5-29.9,5.4-44.9
				c0.5-20.3-3-37.3-10.8-52.1l1.9-0.5c7.9,15,11.4,32.2,10.9,52.6c-0.4,15.1-3,30.4-5.4,45.1c-0.4,2.7-0.9,5.3-1.3,8
				c-0.3,1.7-0.1,4.6,2.3,4.8c1.9,0.2,5.9-1.9,8.5-3.3c1.1-0.6,2-1.1,2.7-1.4c4.6-2,9.3-4.2,14.5-6.6c9.6-4.5,19.1-9.2,28.4-13.8
				l0.1-0.1c2.8-1.4,5.7-2.8,7.6-4.8c3.1-3.1,3.7-7.2,3.8-10.8c0.3-10.1-2.1-20.3-4.5-30.1c-1.2-4.9-2.4-10-3.3-15.1
				c-1.5-8.6-1.6-16.4-0.3-23.2c1.6-8.3,5.3-15.5,11-21.3l1.7,0.9c-10.2,10.4-13.6,24.6-10.3,43.4c0.9,5,2.1,10.1,3.3,15
				c2.4,9.9,4.9,20.1,4.5,30.4c-0.1,3.8-0.7,8.2-4.2,11.7c-2.2,2.2-5.3,3.7-8.1,5.1l-0.1,0.1c-9.3,4.6-18.8,9.4-28.4,13.9
				c-5.2,2.5-10,4.6-14.6,6.6c-0.6,0.3-1.5,0.8-2.6,1.3C127.2,397.1,123.4,399,120.7,399"/>
			<path class="st7" d="M123.9,321.9c-0.4,0-0.8-0.2-0.9-0.4c-0.2-0.4,0-0.8,0.5-1l36.9-11.9c5.9-1.9,12-3.9,16.6-7.2
				c0.4-0.3,1.1-0.3,1.5,0c0.4,0.3,0.4,0.8,0,1.1c-4.9,3.5-11.4,5.6-17.2,7.5l-36.9,11.9C124.2,321.9,124.1,321.9,123.9,321.9"/>
			<path class="st7" d="M122.8,358.3c-0.4,0-0.8-0.2-1-0.5c-0.2-0.4,0.1-0.8,0.6-1c17-4.2,33.6-9.7,49.3-16.1
				c4.5-1.8,9.4-4.1,11.3-7.6c0.2-0.4,0.8-0.6,1.3-0.4c0.5,0.2,0.8,0.6,0.6,1c-2.2,3.9-7.5,6.3-12.2,8.3
				c-15.8,6.5-32.5,11.9-49.7,16.2C123,358.3,122.9,358.3,122.8,358.3"/>
			<path class="st7" d="M159.2,338.9c0.2,1.4-0.8,2.7-2.3,2.8c-1.5,0.1-3-0.9-3.2-2.3c-0.2-1.4,0.8-2.7,2.3-2.8
				C157.5,336.4,158.9,337.5,159.2,338.9"/>
			<path class="st7" d="M159.2,301.6c0.2,1.4-0.8,2.7-2.3,2.8c-1.5,0.1-3-0.9-3.2-2.3c-0.2-1.4,0.8-2.7,2.3-2.8
				C157.5,299.1,158.9,300.2,159.2,301.6"/>
			<path class="st7" d="M159.2,375.5c0.2,1.4-0.8,2.7-2.3,2.8c-1.5,0.1-3-0.9-3.2-2.3c-0.2-1.4,0.8-2.7,2.3-2.8
				C157.5,373,158.9,374.1,159.2,375.5"/>
			<path class="st7" d="M120.7,399c-0.2,0-0.3,0-0.5,0c-3.7-0.4-4.5-3.7-4.1-6.5c0.4-2.7,0.9-5.3,1.3-8c2.5-14.7,5-29.9,5.4-44.9
				c0.5-20.3-3-37.3-10.8-52.1c-0.2-0.4,0.1-0.8,0.6-1c0.5-0.1,1.1,0,1.3,0.4c7.9,15,11.4,32.2,10.9,52.6c-0.4,15.1-3,30.4-5.4,45.1
				c-0.4,2.7-0.9,5.3-1.3,8c-0.3,1.7-0.1,4.6,2.3,4.8c1.9,0.2,5.9-1.9,8.5-3.3c1.1-0.6,2-1.1,2.7-1.4c4.6-2,9.3-4.2,14.5-6.6
				c9.6-4.5,19.1-9.2,28.4-13.8l0.1-0.1c2.8-1.4,5.7-2.8,7.6-4.8c3.1-3.1,3.7-7.2,3.8-10.8c0.3-10.1-2.1-20.3-4.5-30.1
				c-1.2-4.9-2.4-10-3.3-15.1c-1.5-8.6-1.6-16.4-0.3-23.2c1.6-8.3,5.3-15.5,11-21.3c0.3-0.3,1-0.4,1.4-0.2c0.5,0.2,0.6,0.7,0.2,1
				c-10.2,10.4-13.6,24.6-10.3,43.4c0.9,5,2.1,10.1,3.3,15c2.4,9.9,4.9,20.1,4.5,30.4c-0.1,3.8-0.7,8.2-4.2,11.7
				c-2.2,2.2-5.3,3.7-8.1,5.1l-0.1,0.1c-9.3,4.6-18.8,9.4-28.4,13.9c-5.2,2.5-10,4.6-14.6,6.6c-0.6,0.3-1.5,0.8-2.6,1.3
				C127.2,397.1,123.4,399,120.7,399"/>
			<polygon class="st9" points="189.4,267.5 104.6,265 -5.8,282.7 112.9,287.4 			"/>
			<path class="st7" d="M112.9,288.1C112.9,288.1,112.9,288.1,112.9,288.1l-118.8-4.7c-0.5,0-0.9-0.3-1-0.7c0-0.4,0.3-0.7,0.8-0.8
				l110.4-17.7c0.1,0,0.2,0,0.3,0l84.8,2.5c0.5,0,0.9,0.3,1,0.6s-0.2,0.7-0.7,0.8l-76.5,19.9C113.2,288.1,113,288.1,112.9,288.1
				 M1.8,282.2l111,4.4l71.3-18.6l-79.3-2.3L1.8,282.2z"/>
			<polygon class="st10" points="-5.8,84.6 122.7,131.9 118.2,220.3 -5.8,220.3 			"/>
		</g>
		<g class="st4">
			<defs>
				<polygon id="SVGID_5_" points="0.6,220.3 118.2,220.3 122.7,131.9 0.6,87 				"/>
			</defs>
			<clipPath id="SVGID_6_">
				<use xlink:href="#SVGID_5_"  style="overflow:visible;"/>
			</clipPath>
			<path class="st11" d="M93.2,113.3C54,138.8,11.5,161.7-33.5,181.5c-3.1-9.3,6-18.2,14.5-25.6c19.3-16.7,38.6-33.4,57.9-50
				c1.5-1.3,3.1-2.6,5.1-3.3c2.8-1,6-0.7,9.1-0.4c13.9,1.7,27.4,5.5,39.1,11.2"/>
			<path class="st11" d="M7.6,223.2c13.9-17.7,33.5-33.1,56.8-44.5c-15.9,18.4-35.5,35-58,49.4"/>
			<path class="st11" d="M25.9,229.7c0.1,0.3-0.6,0.3-0.7,0c-0.1-0.3,0.2-0.5,0.4-0.7c16-12.3,31.9-24.5,47.9-36.8
				c-5.3,1.9-8.6,5.7-11.9,9.3c-11.2,12.1-24.6,23.1-39.7,32.6"/>
			<path class="st11" d="M71.4,225.3c0.3,0.4-1,0.6-1.2,0.2c-0.3-0.4,0.1-0.9,0.5-1.3c18.8-18.8,40.1-36.3,63.7-52
				c-0.7,6.1-0.4,12.2,0.7,18.2c0.9,5,2.5,10.1,1,15.1c-2.8,9.5-15.5,15.5-27.1,20.4c-6.2,2.6-13.1,5.3-20,4.3
				c-6.6-1-12.8-5.2-19.1-3.6"/>
		</g>
		<g class="st4">
			<defs>
				<rect id="SVGID_7_" x="0.6" y="0.2" width="689.4" height="499.8"/>
			</defs>
			<clipPath id="SVGID_8_">
				<use xlink:href="#SVGID_7_"  style="overflow:visible;"/>
			</clipPath>
			<path class="st12" d="M119.2,221h-126V83.4l130.6,48.1L119.2,221z M-4.8,219.5h122l4.4-87.1L-4.8,85.9V219.5z"/>
			<path class="st13" d="M308.8,10.7c-55.2-1.2-65.6,19.4-65.6,19.4s19.2,13.3,63.9,13.4c46.7,0.1,63.9-13.4,63.9-13.4
				S363.9,11.9,308.8,10.7"/>
			<path class="st12" d="M307.7,44.2c-0.2,0-0.4,0-0.6,0c-23.3-0.1-39.5-3.7-49.1-6.8c-10.4-3.4-15.3-6.7-15.5-6.8
				c-0.3-0.2-0.4-0.5-0.3-0.8c0.1-0.2,2.8-5.4,12.5-10.5c8.8-4.6,25.3-10,54.1-9.4c28.8,0.6,44.4,5.9,52.4,10.3
				c8.8,4.8,10.7,9.4,10.8,9.6c0.1,0.3,0,0.5-0.2,0.7c-0.2,0.1-4.6,3.5-14.8,6.9C347.7,40.6,331.6,44.2,307.7,44.2 M244.4,29.9
				c1.5,0.9,6.2,3.6,14.5,6.2c9.4,3,25.3,6.6,48.2,6.7c23.8,0.1,39.7-3.5,48.9-6.5c8.1-2.7,12.5-5.4,13.8-6.3
				c-0.7-1.2-3.1-4.8-10-8.5c-7.8-4.2-22.9-9.3-51-9.9c-28.1-0.6-44.2,4.6-52.7,9C248.4,24.4,245.3,28.5,244.4,29.9"/>
			<path class="st14" d="M295.6,4.9c-4.4-0.1-8,2.4-10,5.3c-5,7.2-1.1,16.7,7.9,21.4c9,4.7,21.9,4.5,31.3,0.2
				c2.9-1.3,5.6-3.1,7.3-5.3c5.1-6.6-0.3-15.6-9.3-19.5c-9-3.9-20.3-3.8-30.6-2.6"/>
			<path class="st12" d="M309.1,35.8c-5.8,0-11.6-1.2-16.2-3.6c-9.6-5-13.2-15-8.2-22.3c1.5-2.1,4.1-4.4,7.5-5.3L292,3.7
				c13.2-1.6,23.4-0.7,31.3,2.7c4.7,2,8.4,5.3,10.4,9.1c2.1,4,1.8,8.1-0.7,11.4c-1.6,2.1-4.2,4-7.6,5.6
				C320.4,34.7,314.7,35.8,309.1,35.8 M295.4,5.7c-4,0-7.2,2.6-8.8,4.9c-4.6,6.7-1.2,15.9,7.5,20.4c8.4,4.4,20.8,4.5,30.1,0.2
				c3.1-1.4,5.5-3.1,6.9-5c5-6.4-0.7-14.9-8.9-18.5c-6.8-2.9-15.5-3.9-26.6-2.8l0,0.8C295.5,5.7,295.4,5.7,295.4,5.7"/>
			<path class="st15" d="M243.2-6.2v36.3c0,0,10.4-20.5,65.6-19.4c55.2,1.2,62.2,19.4,62.2,19.4V-6.2H243.2z"/>
			<path class="st12" d="M370.9,30.8c-0.5,0-0.9-0.2-1-0.5c0,0-1.8-4.4-10.2-8.9c-7.8-4.2-22.9-9.3-51-9.9
				c-28.1-0.6-44.2,4.6-52.7,9c-9.2,4.8-11.9,9.8-11.9,9.8c-0.2,0.3-0.7,0.5-1.2,0.5c-0.5-0.1-0.9-0.4-0.9-0.7V-6.2
				c0-0.4,0.5-0.7,1-0.7h127.8c0.6,0,1,0.3,1,0.7v36.3c0,0.4-0.4,0.7-0.9,0.7C371,30.8,371,30.8,370.9,30.8 M244.2-5.5v32.6
				c1.8-2,5-4.9,10.5-7.8c8.8-4.6,25.3-10,54.1-9.4c28.8,0.6,44.4,5.9,52.4,10.3c4.5,2.4,7.2,4.8,8.7,6.6V-5.5H244.2z"/>
			<rect x="209.7" y="78.7" class="st16" width="252.4" height="186.4"/>
			<path class="st12" d="M463.1,265.8H208.7V77.9h254.4V265.8z M210.7,264.3H461V79.4H210.7V264.3z"/>
			<rect x="369.9" y="78.7" class="st12" width="2.1" height="171.4"/>
			<path class="st16" d="M376.4,157.7V169c0,0.2,0.1,0.4,0.2,0.6l2.7,3.5c0.6,0.7,2,0.8,2.7,0.1l0.3-0.3c0.2-0.2,0.3-0.4,0.3-0.7
				v-14.4c0-0.6-0.7-1.1-1.6-1.1H378C377.1,156.6,376.4,157.1,376.4,157.7"/>
			<path class="st12" d="M380.7,174.4c-0.1,0-0.1,0-0.2,0c-0.9,0-1.7-0.4-2.1-1l-2.7-3.5c-0.2-0.3-0.3-0.6-0.3-0.9v-11.2
				c0-1,1.2-1.9,2.6-1.9h2.9c1.4,0,2.6,0.9,2.6,1.9v14.4c0,0.4-0.2,0.8-0.5,1.1l-0.3,0.3C382.3,174.1,381.5,174.4,380.7,174.4
				 M378,157.4c-0.3,0-0.5,0.2-0.5,0.4V169c0,0.1,0,0.1,0.1,0.2l2.7,3.5c0.1,0.2,0.4,0.2,0.4,0.2c0.1,0,0.3,0,0.5-0.2l0.3-0.3
				c0.1-0.1,0.1-0.1,0.1-0.2v-14.4c0-0.2-0.2-0.4-0.5-0.4H378z"/>
			<rect x="217.7" y="249.3" class="st12" width="236.4" height="1.5"/>
			<rect x="221.8" y="92.4" class="st17" width="133.3" height="157.7"/>
			<path class="st12" d="M356.1,250.8H220.7V91.6h135.4V250.8z M222.8,249.3H354V93.1H222.8V249.3z"/>
			<rect x="386.2" y="120" class="st17" width="60.2" height="130"/>
			<path class="st12" d="M447.3,250.8h-62.2V119.3h62.2V250.8z M387.2,249.3h58.1V120.8h-58.1V249.3z"/>
			<path class="st18" d="M283.5,225.3c7.9-0.3,15.7-1,23.4-2.3c4.2-0.7,8.9-1.8,10.9-4.6c0.8-1.1,1.1-2.5,0.3-3.6
				c-0.8-1.1-3-1.7-4.4-1c3.6-3.6,0.9-9.5-5-10.8c-5.6-1.2-11.3,1.4-16.1,3.9c-0.5-2.6-1.7-5.1-3.5-7.3c-0.7-0.9-1.5-1.7-2.6-2.2
				c-1.9-0.9-4.5-0.9-6.8-0.4c-7.4,1.6-11.7,7.2-13.4,12.6c-3.3,0.6-6.2-2.1-9.6-2.3c-3.6-0.3-6.7,2.4-6.7,5c0,3.5,3.1,7.9,7.3,9.7
				c1.6,0.7,3.4,1.1,5.3,1.5C269.8,224.9,276.1,225.3,283.5,225.3"/>
			<path class="st12" d="M283.5,226.1c-8.5,0-14.7-0.5-21.2-1.9c-1.9-0.4-3.8-0.8-5.5-1.5c-4.3-1.9-7.8-6.4-7.8-10.3
				c0-1.6,1.1-3.4,2.8-4.5c1.5-1,3.2-1.4,5-1.3c1.7,0.1,3.2,0.7,4.6,1.3c1.5,0.6,2.8,1.1,4,1.1c2.2-6.5,7.3-11.3,14-12.7
				c1.7-0.4,5-0.8,7.6,0.5c1.4,0.7,2.3,1.7,3,2.5c1.6,2,2.8,4.2,3.4,6.4c5-2.5,10.3-4.5,15.7-3.3c3.1,0.7,5.6,2.5,6.7,5
				c0.9,1.9,0.8,3.8-0.1,5.4c0.1,0,0.3,0,0.4,0.1c1.2,0.2,2.3,0.8,2.9,1.6c0.9,1.2,0.8,2.9-0.3,4.3c-2.3,3-7.1,4.2-11.6,5
				C299.5,225,291.5,225.8,283.5,226.1C283.6,226.1,283.5,226.1,283.5,226.1 M256.3,208c-1.1,0-2.1,0.3-3,0.9
				c-1.3,0.9-2.1,2.2-2.1,3.4c0,3.3,3.1,7.4,6.8,9c1.5,0.7,3.3,1,5,1.4c6.3,1.3,12.3,1.8,20.6,1.8c7.8-0.3,15.6-1,23.2-2.3
				c4-0.7,8.4-1.7,10.3-4.2c0.6-0.8,1-2,0.3-2.9c-0.3-0.4-0.9-0.7-1.6-0.9c-0.3-0.1-0.9-0.1-1.3,0.1c-0.4,0.2-1,0.2-1.3-0.1
				c-0.4-0.3-0.4-0.7-0.1-1c1.5-1.5,1.8-3.6,0.9-5.6c-0.9-2-2.9-3.5-5.4-4c-5.2-1.1-10.6,1.4-15.2,3.8c-0.3,0.2-0.7,0.2-1,0.1
				c-0.3-0.1-0.6-0.3-0.6-0.6c-0.5-2.5-1.6-4.9-3.4-7.1c-0.6-0.7-1.3-1.5-2.3-2c-1.4-0.7-3.6-0.8-5.9-0.3c-6,1.3-10.8,5.8-12.7,12.1
				c-0.1,0.3-0.4,0.5-0.8,0.6c-2.3,0.4-4.3-0.4-6.2-1.2c-1.3-0.5-2.5-1-3.8-1.1C256.5,208,256.4,208,256.3,208"/>
			<path class="st19" d="M348.1,237.2c-0.5,0.4-1,0.8-1.6,1.1c-2.9,1.4-10.5,0.5-13.5-0.5c-4.8-1.6-6.5-4.4-7.8-7.9
				c-0.8-2-1.6-4-1.9-6.1c-0.1-0.7,0.1-5-0.4-5.3c2.3,1.2,4.3,2.8,5.7,4.6c1.4-5.3,2.3-10.7,2.6-16.1c0.2-3.7,0.4-7.8,4-10.4
				l3.8,16.9c1.2-4,2.4-7.9,3.5-11.9c0.8,0.3,1.2,1,1.4,1.6c1.3,3.3,2.4,6.6,2.6,10c0.2,3,1.9,7.9,0.7,10.8c0.7-1.8,1.9-3.4,3.3-4.9
				c-0.2,0.2,1.9,4,2,4.6c1.1,4.5,0,8.5-3.3,12.4C348.8,236.5,348.5,236.9,348.1,237.2"/>
			<path class="st12" d="M341.8,239.8c-3.4,0-7.2-0.6-9.2-1.3c-5.5-1.8-7.2-5.3-8.4-8.3l-0.3-0.7c-0.7-1.8-1.4-3.6-1.7-5.5
				c0-0.3,0-0.8,0-1.7c0-0.9,0-2.8-0.2-3.3c-0.3-0.3-0.3-0.6,0-0.9c0.3-0.3,1-0.4,1.4-0.2c0,0,0,0,0,0c1.7,0.9,3.2,2,4.5,3.2
				c1.1-4.7,1.8-9.4,2.1-14.1l0-0.2c0.2-3.7,0.5-8,4.3-10.8c0.3-0.2,0.7-0.3,1-0.2c0.4,0.1,0.6,0.3,0.7,0.6l3,13.1
				c0.9-3,1.6-5.6,2.3-8.1c0.1-0.2,0.3-0.4,0.5-0.5c0.3-0.1,0.6-0.1,0.9,0c1.4,0.4,1.8,1.5,2,2.1c1.6,4,2.4,7.2,2.7,10.1
				c0.1,0.9,0.3,2,0.5,3.1c0.2,1.2,0.4,2.4,0.6,3.6c0.3-0.4,0.7-0.8,1.1-1.2c0.3-0.3,1-0.4,1.4-0.2c0.3,0.2,0.5,0.4,0.4,0.7
				c0.1,0.4,0.7,1.7,1.1,2.4c0.5,1.1,0.8,1.7,0.9,2c1.2,4.7,0.1,8.8-3.5,13c-0.4,0.5-0.7,0.8-1.1,1.1v0c-0.6,0.5-1.2,0.9-1.8,1.2
				C345.9,239.5,343.9,239.8,341.8,239.8 M324.2,220.3c0,0.5,0,1.2,0,1.9c0,0.6,0,1.3,0,1.5c0.3,1.8,1,3.5,1.6,5.3l0.3,0.7
				c1.3,3.5,3,6,7.3,7.4c3.1,1,10.2,1.7,12.5,0.5c0.5-0.2,0.9-0.5,1.3-0.9c0.3-0.3,0.6-0.6,0.9-1c3.2-3.8,4.3-7.6,3.2-11.9
				c0-0.2-0.5-1.1-0.8-1.7c-0.2-0.5-0.4-0.8-0.6-1.2c-0.8,1.1-1.5,2.2-2,3.3c0,0,0,0,0,0c-0.2,0.4-0.7,0.6-1.3,0.5
				c-0.5-0.1-0.9-0.5-0.7-0.9c0.8-1.9,0.3-4.7-0.2-7.3c-0.2-1.2-0.4-2.3-0.5-3.2c-0.2-2.8-1-5.8-2.5-9.6c-0.8,3-1.8,6.2-3,10.1
				c-0.1,0.3-0.5,0.6-1,0.6c-0.5,0-0.9-0.3-1-0.6l-3.5-15.3c-2,2.3-2.2,5.5-2.3,8.5l0,0.2c-0.3,5.4-1.2,10.9-2.6,16.2
				c-0.1,0.3-0.4,0.5-0.8,0.6s-0.9-0.1-1.1-0.4C326.7,222.3,325.5,221.3,324.2,220.3"/>
			<path class="st20" d="M411.7,237.5c-7.2,1.4-19.2,1.6-25.2-2.3c-5.2-3.3-7.1-11.4,1.5-13c4.9-0.9,9.5,1.8,13.1,4.3
				c-0.8-3.1,1.7-6.4,5.7-7.8c3.9-1.3,8.9-0.8,12.3,1.2c5.2,3,6.4,8.9,2.6,12.9C419.4,235.3,415.6,236.8,411.7,237.5"/>
			<path class="st12" d="M401.4,239.2c-5.6,0-11.6-0.8-15.6-3.4c-3.6-2.3-5.5-6.5-4.4-9.8c0.8-2.3,3.1-3.9,6.4-4.5
				c4.4-0.8,8.6,1,12.2,3.3c0.3-2.8,2.8-5.4,6.4-6.7c4.2-1.4,9.6-0.9,13.4,1.3c5.6,3.2,6.9,9.7,2.9,13.9c-2.2,2.3-6,4.1-10.6,5
				C409.4,238.7,405.6,239.2,401.4,239.2 M389.9,222.8c-0.5,0-1.1,0-1.6,0.1c-2.6,0.5-4.3,1.6-4.9,3.4c-0.9,2.7,0.8,6.3,3.8,8.3
				c5.9,3.8,17.8,3.4,24.3,2.1l0.3,0.7l-0.3-0.7c4.1-0.8,7.5-2.3,9.5-4.4c3.4-3.6,2.3-9.1-2.4-11.8c-3.2-1.8-7.7-2.3-11.2-1.1
				c-3.6,1.2-5.8,4.3-5.1,7c0.1,0.3-0.1,0.6-0.5,0.8c-0.4,0.2-0.9,0.1-1.2-0.1C397.2,225,393.6,222.8,389.9,222.8"/>
			<path class="st21" d="M317.4,249.6c-0.2,1.2-41.1,1.4-45.7,1.3c-2.7-0.1-5.7-0.5-7.6-1.9c-3.1-2.3-2.9-6.7-3.4-9.7
				c-0.7-4.2-1.4-8.4-2-12.6c-0.1-0.6-0.2-1.3,0.3-1.8c0.5-0.6,1.6-0.9,2.6-1c17.4-3.1,35.4-4.3,53.3-3.3c0.7,0,1.4,0.1,1.9,0.4
				c0.6,0.4,0.7,1,0.8,1.6C318.8,231.5,318.7,240.6,317.4,249.6"/>
			<path class="st12" d="M275.2,251.7c-1.7,0-2.9,0-3.6,0c-3.7-0.1-6.5-0.8-8.3-2.1c-2.7-2.1-3.1-5.6-3.5-8.4
				c-0.1-0.6-0.1-1.2-0.2-1.8l-2-12.6c-0.1-0.6-0.2-1.5,0.4-2.3c0.7-0.9,2-1.2,3.2-1.4c17.6-3.2,35.6-4.3,53.6-3.3
				c0.7,0,1.7,0.1,2.5,0.6c1,0.6,1.1,1.5,1.2,2.1c1.3,9,1.3,18.2-0.1,27.2c-0.1,0.8-0.8,1.1-7.5,1.4c-3.6,0.2-8.5,0.3-14.7,0.4
				C288.3,251.6,280,251.7,275.2,251.7 M302.3,220.9c-13.7,0-27.3,1.2-40.6,3.6c-0.8,0.1-1.6,0.3-1.9,0.7c-0.3,0.3-0.2,0.8-0.1,1.4
				l2,12.6c0.1,0.6,0.2,1.2,0.2,1.8c0.3,2.7,0.7,5.8,2.9,7.5c1.4,1.1,3.7,1.6,6.9,1.7c5.3,0.1,40.3-0.1,44.7-1
				c1.3-8.8,1.3-17.7,0-26.5c-0.1-0.4-0.2-0.9-0.5-1.1c-0.3-0.2-0.8-0.2-1.3-0.2C310.6,221,306.4,220.9,302.3,220.9"/>
			<path class="st22" d="M325.3,252.9c0.1,0.4,0.1,0.8,0.4,1.1c0.5,0.5,1.5,0.7,2.4,0.8c7.6,0.9,15.4,0.4,22.7-1.4
				c0.4-0.1,0.8-0.2,1.1-0.5c0.3-0.3,0.3-0.6,0.3-1c-0.1-3.1,0.2-5.9,0.6-8.9c0.1-1.1-1.7-9.4-1-9.6c-4.1,2.1-9.3,3.1-14.3,2.8
				c-5-0.3-9.8-1.9-13.4-4.5c0.3,0.9-0.7,1.8-1,2.7c-0.3,0.7-0.2,1.5,0,2.2C323.7,242.1,324.4,247.5,325.3,252.9"/>
			<path class="st12" d="M335.6,256c-2.6,0-5.1-0.1-7.7-0.4c-0.7-0.1-2.3-0.3-3.1-1.1c-0.4-0.5-0.5-1-0.6-1.4
				c-0.6-3.5-1.1-7-1.6-10.4c-0.3-1.9-0.6-3.9-0.9-5.8c-0.1-0.8-0.2-1.6,0.1-2.5c0.1-0.4,0.3-0.7,0.6-1c0.3-0.5,0.6-1,0.5-1.3
				c-0.1-0.3,0.1-0.7,0.5-0.8c0.4-0.2,0.9-0.1,1.2,0.1c3.4,2.4,8,4,12.8,4.3c4.7,0.3,9.5-0.6,13.4-2.5c0.1-0.1,0.2-0.1,0.3-0.2
				c0.5-0.2,1.1-0.1,1.4,0.3c0.2,0.2,0.2,0.5,0,0.8c-0.1,0.7,0.4,3.6,0.7,5.4c0.4,2.2,0.6,3.4,0.5,3.9c-0.4,3.2-0.6,5.9-0.6,8.9
				c0,0.4,0,1-0.5,1.4c-0.5,0.4-1.2,0.6-1.6,0.7C346.1,255.3,340.9,256,335.6,256 M326.4,252.8c0,0.3,0.1,0.6,0.3,0.8
				c0.3,0.3,1,0.4,1.7,0.5c7.4,0.9,15.1,0.4,22.2-1.3c0.1,0,0.5-0.1,0.6-0.2c0.1-0.1,0.1-0.4,0.1-0.5c-0.1-3,0.2-5.8,0.6-9
				c0-0.3-0.3-2.1-0.5-3.6c-0.4-2.2-0.6-3.6-0.7-4.5c-4,1.6-8.7,2.4-13.2,2.1c-4.6-0.3-9-1.6-12.6-3.7c-0.1,0.2-0.2,0.4-0.4,0.6
				c-0.2,0.3-0.3,0.6-0.4,0.8c-0.2,0.6-0.1,1.3,0,1.9c0.3,1.9,0.6,3.9,0.9,5.8C325.3,245.8,325.8,249.3,326.4,252.8z"/>
			<path class="st21" d="M385.1,247.4c0.3,1.3,0.5,2.7,1.7,3.8c1.1,1,2.9,1.5,4.7,1.9c6.7,1.4,13.8,1.7,20.7,0.8
				c1.4-0.2,2.8-0.4,3.9-1.1c1.2-0.7,1.8-1.8,2.3-2.9c1.5-3.1,2.5-6.4,3-9.7c0.1-1,0.2-2-0.2-2.9c-1.2-2.6-5.7-3.3-9.5-3.6
				c-4.9-0.3-9.7-0.4-14.6-0.4c-3.1,0-9.6-0.8-12,0.9c-1,0.7-1.6,1.7-2,2.7C381.5,240.3,384.4,243.9,385.1,247.4"/>
			<path class="st12" d="M404,255.1c-4.3,0-8.6-0.4-12.8-1.3c-1.8-0.4-3.8-0.9-5.2-2.1c-1.4-1.2-1.7-2.9-1.9-4.1
				c-0.2-1.1-0.7-2.3-1.1-3.5c-1-2.4-2-4.9-0.9-7.5c0.6-1.3,1.3-2.3,2.3-3c2.2-1.5,6.6-1.3,10.2-1.2c1,0,1.9,0.1,2.5,0.1
				c4.9,0,9.8,0.1,14.7,0.4c5.9,0.3,9.3,1.7,10.4,4.1c0.5,1.1,0.4,2.2,0.2,3.2c-0.5,3.4-1.5,6.7-3,9.9c-0.5,1.1-1.2,2.4-2.6,3.3
				c-1.2,0.7-2.8,1-4.3,1.3C409.6,254.9,406.8,255.1,404,255.1 M386.1,247.3c0.3,1.4,0.5,2.6,1.5,3.4c1,0.9,2.6,1.3,4.2,1.6
				c6.5,1.4,13.5,1.7,20.2,0.7c1.2-0.2,2.5-0.4,3.4-0.9c1-0.6,1.6-1.6,2-2.6c1.5-3.1,2.4-6.3,2.9-9.5c0.1-0.9,0.2-1.8-0.1-2.6
				c-0.8-1.7-3.7-2.8-8.6-3.1c-4.8-0.3-9.7-0.4-14.5-0.4c-0.8,0-1.7,0-2.7-0.1c-3-0.1-7.1-0.3-8.6,0.7c-0.7,0.5-1.3,1.3-1.7,2.3
				c-0.9,2.1,0,4.3,0.9,6.6C385.4,244.8,385.9,246.1,386.1,247.3"/>
			<path class="st14" d="M193.3,79.4v222.4c-0.3,12.6-0.7,25.2-1,37.9c0,1.2,0,2.5,1,3.5c1,0.9,2.7,1.2,4.3,1.5
				c9,1.2,18.6,0.5,27-2.1c4.5-1.4,9.1-3.6,10.5-7c1-2.3,0.2-4.8-0.5-7.2c-5.3-16.1-13.2-31.9-14.6-48.5
				c-1.7-19.4,5.6-38.6,15.9-56.5c10.3-17.9,23.5-34.8,34.5-52.5c18.7-30.2,30.7-62.3,42.6-94.2c15.8-1,31.7-0.5,47.4,0.7
				c9.7,0.8,10.1,0.2,13.6,5.5c3.1,4.6,3.3,11.6,4.9,16.7c7.1,22.1,16.3,43.9,25.8,65.5c18.6,42.7,38.7,85.4,46,130
				c1,5.8,1.9,11.9,6.7,16.6c10.3,9.9,39.9,1.4,36-11.1V76"/>
			<path class="st12" d="M206.3,345.9c-3,0-5.9-0.2-8.9-0.6c-1.7-0.2-3.7-0.6-4.9-1.7c-1.2-1.1-1.3-2.5-1.2-3.9
				c0.2-6.3,0.3-12.6,0.5-18.9c0.2-6.3,0.3-12.6,0.5-18.9l0-222.3h2.1v222.4c-0.2,6.3-0.3,12.6-0.5,18.9c-0.2,6.3-0.3,12.6-0.5,18.9
				c0,1.2,0,2.3,0.8,3c0.8,0.7,2.2,1,3.7,1.2c8.8,1.2,18.2,0.5,26.4-2c5.5-1.7,8.8-3.8,9.9-6.5c0.9-2.1,0.2-4.4-0.5-6.8
				c-1.5-4.7-3.3-9.5-5.1-14c-4.2-11.2-8.6-22.8-9.6-34.6c-1.5-16.9,3.7-35.5,16-56.8c5.8-10.2,12.7-20.2,19.4-29.9
				c5.1-7.4,10.4-15,15.1-22.7c18.7-30.2,30.9-62.7,42.6-94.1l0.2-0.5l0.7,0c14.5-0.9,30.1-0.6,47.6,0.7c1.1,0.1,2,0.2,2.9,0.2
				c7.4,0.5,8.3,0.7,11.5,5.7c2.1,3.1,2.9,7.2,3.7,11.1c0.4,2.1,0.8,4,1.4,5.7c7.3,22.8,16.7,44.8,25.8,65.4
				c1.7,3.8,3.4,7.7,5.1,11.5c16.9,38.3,34.3,78,41,118.7l0.1,0.4c0.9,5.6,1.9,11.4,6.4,15.8c5.3,5.1,15.7,4.8,23,2.3
				c6.3-2.1,13-6.7,11.1-12.8l0-0.1V76h2.1v224.3c1.7,5.7-3.1,11.4-12.3,14.5c-8.1,2.7-19.6,3-25.6-2.8c-4.9-4.7-5.9-10.7-6.8-16.5
				l-0.1-0.4c-6.7-40.5-24.1-80.1-40.9-118.4c-1.7-3.8-3.4-7.7-5.1-11.5c-9-20.7-18.5-42.8-25.8-65.6c-0.6-1.8-1-3.8-1.4-5.9
				c-0.8-3.8-1.5-7.7-3.5-10.6c-2.9-4.3-3.1-4.3-9.9-4.8c-0.9-0.1-1.8-0.1-2.9-0.2c-17.1-1.3-32.3-1.6-46.5-0.8
				c-11.7,31.3-23.8,63.7-42.5,93.8c-4.8,7.7-10,15.3-15.1,22.7c-6.6,9.7-13.5,19.6-19.3,29.8c-12.1,21.1-17.3,39.5-15.8,56.2
				c1,11.6,5.3,23.1,9.5,34.3c1.7,4.6,3.5,9.4,5.1,14.1c0.8,2.6,1.5,5.1,0.5,7.6c-1.3,3.1-5,5.6-11.1,7.4
				C219.1,344.9,212.7,345.9,206.3,345.9"/>
			<path class="st23" d="M496.4,80.8H191.9c-2.9,0-5.3-1.7-5.3-3.8v-0.5c0-2.1,2.4-3.8,5.3-3.8h304.5c2.9,0,5.3,1.7,5.3,3.8v0.5
				C501.7,79.1,499.3,80.8,496.4,80.8"/>
			<path class="st12" d="M496.4,81.5H191.9c-3.5,0-6.3-2.1-6.3-4.6v-0.5c0-2.5,2.8-4.6,6.3-4.6h304.5c3.5,0,6.3,2.1,6.3,4.6v0.5
				C502.7,79.5,499.9,81.5,496.4,81.5 M191.9,73.4c-2.3,0-4.2,1.4-4.2,3.1v0.5c0,1.7,1.9,3.1,4.2,3.1h304.5c2.3,0,4.2-1.4,4.2-3.1
				v-0.5c0-1.7-1.9-3.1-4.2-3.1H191.9z"/>
			<path class="st12" d="M303.9,79.5l-2.5,3.9l-2.6,3.8l-2.7,3.8l-2.8,3.8l-2.9,3.7l-3,3.7l-3,3.7l-3.1,3.7l-6.2,7.3l-6.2,7.3
				l-3.1,3.7l-3,3.7l-3,3.7l-3,3.7l-2.9,3.7l-2.8,3.8l-2.7,3.8l-2.6,3.8l-2.5,3.9l-2.3,3.9l-2.2,4l-2,4L235,174l-1.7,4.1l-1.5,4.1
				l-1.2,4.2l-1,4.2l-0.8,4.2l-0.5,4.2l-0.2,4.3l-1.7,0l0.4-6.7l0.6-6.7l0.8-6.7l1-6.7l1.3-6.6l1.5-6.6l1.7-6.6l1.9-6.6l2.1-6.5
				l2.3-6.5l2.5-6.4l2.7-6.4l2.9-6.4l3.1-6.3l3.3-6.3l3.5-6.2l1.7,0.8c-5,4-9.9,8-14.5,12.2c-4.6,4.2-9,8.5-12.8,13.1l-0.7,0.9
				l-0.7,0.9c-0.5,0.6-0.9,1.2-1.4,1.7c-0.9,1.2-1.8,2.3-2.6,3.5c-0.9,1.2-1.6,2.4-2.4,3.6l-1.1,1.8l-0.6,0.9l-0.5,0.9l-1,1.9
				l-0.9,1.9l-0.5,0.9l-0.4,1l-0.9,1.9c-0.5,1.3-1.1,2.6-1.5,3.9c-0.2,0.6-0.5,1.3-0.7,1.9l-0.7,1.9c-0.2,0.6-0.4,1.3-0.6,2
				c-0.2,0.7-0.4,1.3-0.6,2c-0.4,1.3-0.8,2.6-1.1,3.9c-0.7,2.6-1.3,5.3-1.8,7.9c-0.5,2.7-1,5.3-1.5,8c-0.2,1.3-0.4,2.7-0.6,4l-0.6,4
				c-1.5,10.7-2.7,21.4-3.4,32.2c-0.4,5.4-0.6,10.7-0.8,16.1c-0.2,5.4-0.2,10.8-0.2,16.1c0.1,5.4,0.2,10.8,0.4,16.1
				c0.3,5.4,0.7,10.7,1.3,16.1c0.6,5.4,1.5,10.7,2.7,16c1.2,5.3,2.8,10.6,4.8,15.7c1,2.6,2.1,5.2,3.3,7.7c1.2,2.5,2.6,5,4.1,7.5
				c1.5,2.5,3.1,4.9,4.9,7.3c1.8,2.4,3.7,4.7,5.7,6.9c-2.1-2.2-4-4.5-5.8-6.9c-1.8-2.4-3.5-4.8-5-7.2c-3.1-4.9-5.6-10-7.7-15.2
				c-2.1-5.2-3.7-10.4-5-15.7c-1.3-5.3-2.3-10.7-3-16c-0.7-5.4-1.2-10.7-1.5-16.1c-0.3-5.4-0.5-10.8-0.6-16.2
				c-0.1-5.4-0.1-10.8,0-16.2c0.1-5.4,0.3-10.8,0.7-16.2c0.3-5.4,0.7-10.8,1.3-16.1c0.5-5.4,1.2-10.7,1.9-16.1l0.6-4
				c0.2-1.3,0.4-2.7,0.6-4c0.4-2.7,0.9-5.4,1.4-8c0.5-2.7,1.1-5.3,1.8-8c0.3-1.3,0.7-2.7,1.1-4c0.2-0.7,0.4-1.3,0.6-2
				c0.2-0.7,0.4-1.3,0.6-2l0.7-2c0.2-0.7,0.5-1.3,0.7-2c0.5-1.3,1-2.6,1.6-3.9l0.9-1.9l0.4-1l0.5-1l0.9-1.9l1-1.9l0.5-0.9l0.6-0.9
				l1.1-1.9c0.8-1.2,1.6-2.5,2.4-3.7c0.8-1.2,1.7-2.4,2.6-3.6c0.5-0.6,0.9-1.2,1.4-1.8l0.7-0.9l0.7-0.9c3.9-4.6,8.3-9,12.9-13.2
				c2.3-2.1,4.7-4.2,7.1-6.2c2.4-2,4.9-4,7.4-6l4-3.1l-2.2,3.9l-3.5,6.2l-3.3,6.2l-3.1,6.3l-2.9,6.3l-2.7,6.4l-2.5,6.4l-2.3,6.5
				l-2.1,6.5l-1.9,6.5l-1.7,6.6l-1.5,6.6l-1.3,6.6l-1.1,6.6l-0.9,6.6l-0.6,6.7l-0.4,6.7l-1.7,0l0.2-4.3l0.5-4.3l0.8-4.3l1.1-4.2
				l1.3-4.2l1.5-4.2l1.7-4.1l1.9-4.1l2.1-4l2.3-4l2.4-3.9l2.5-3.9l2.6-3.8l2.8-3.8l2.8-3.8l2.9-3.7l3-3.7l3.1-3.7l3.1-3.7l3.1-3.6
				l6.3-7.3l6.3-7.3l3.1-3.6l3.1-3.7l3-3.7l3-3.7l2.9-3.7l2.8-3.8l2.7-3.8L303.9,79.5z"/>
			<path class="st12" d="M221.8,292.2c0,0-0.1-0.2-0.2-0.7c-0.1-0.5-0.4-1.1-0.6-2c-0.3-0.9-0.6-1.9-0.9-3.1
				c-0.2-0.6-0.3-1.2-0.5-1.9c-0.2-0.7-0.3-1.4-0.5-2.1c-0.2-0.7-0.4-1.5-0.6-2.3c-0.2-0.8-0.4-1.6-0.5-2.5
				c-0.4-1.7-0.7-3.5-1.1-5.4c-0.3-1.9-0.7-3.8-1-5.7c-0.3-2-0.6-4-0.9-5.9c-0.2-2-0.5-4-0.7-6c-0.2-2-0.3-3.9-0.5-5.8
				c-0.1-1.9-0.2-3.7-0.3-5.4c0-0.9-0.1-1.7-0.1-2.5c0-0.8,0-1.6,0-2.3c0-0.8,0-1.5,0-2.2c0-0.7,0-1.3,0-1.9c0-1.2,0-2.3,0.1-3.2
				c0-0.9,0.1-1.6,0.1-2c0-0.5,0-0.7,0-0.7s0,0.2,0.1,0.7c0,0.5,0.1,1.2,0.2,2c0.2,1.7,0.4,4.2,0.7,7.2c0.1,1.5,0.3,3.1,0.5,4.8
				c0.2,1.7,0.4,3.5,0.6,5.4c0.2,1.9,0.4,3.8,0.7,5.8c0.2,2,0.5,3.9,0.7,5.9c0.3,2,0.5,4,0.8,5.9c0.3,2,0.5,3.9,0.8,5.7
				c0.3,1.9,0.5,3.7,0.8,5.4c0.3,1.7,0.5,3.3,0.7,4.8c0.5,3,0.9,5.5,1.1,7.2c0.1,0.9,0.2,1.6,0.3,2
				C221.7,291.9,221.8,292.2,221.8,292.2"/>
			<path class="st12" d="M234.8,77.5c0,0-0.2,0.2-0.5,0.6c-0.3,0.4-0.8,1-1.5,1.7c-0.3,0.4-0.7,0.8-1.1,1.2
				c-0.4,0.4-0.8,0.9-1.2,1.4c-0.4,0.5-0.9,1.1-1.4,1.6c-0.5,0.6-0.9,1.2-1.4,1.8c-0.5,0.6-1,1.3-1.5,2c-0.5,0.7-1,1.4-1.6,2.2
				c-0.3,0.4-0.6,0.8-0.8,1.1c-0.3,0.4-0.5,0.8-0.8,1.2c-0.5,0.8-1.1,1.6-1.6,2.4c-0.5,0.8-1,1.7-1.6,2.6c-0.3,0.4-0.5,0.9-0.8,1.3
				c-0.2,0.4-0.5,0.9-0.7,1.3c-1,1.8-1.9,3.6-2.9,5.5c-0.8,1.9-1.7,3.7-2.5,5.6c-0.2,0.5-0.4,0.9-0.6,1.4c-0.2,0.5-0.4,0.9-0.5,1.4
				c-0.3,0.9-0.7,1.8-1,2.7c-0.3,0.9-0.5,1.8-0.8,2.6c-0.1,0.4-0.3,0.9-0.4,1.3c-0.1,0.4-0.2,0.8-0.3,1.3c-0.2,0.8-0.4,1.6-0.6,2.4
				c-0.2,0.8-0.4,1.5-0.5,2.3c-0.2,0.7-0.3,1.4-0.5,2.1c-0.1,0.7-0.2,1.3-0.3,1.9c-0.1,0.6-0.2,1.2-0.3,1.7c-0.1,0.5-0.1,1-0.2,1.4
				c-0.1,0.9-0.2,1.5-0.3,2c-0.1,0.5-0.1,0.7-0.1,0.7s0-0.2,0-0.7c0-0.5,0-1.1,0-2c0-0.4,0-0.9,0-1.4c0-0.5,0.1-1.1,0.1-1.7
				c0-0.6,0.1-1.2,0.1-1.9c0.1-0.7,0.2-1.4,0.3-2.1c0.1-0.7,0.2-1.5,0.3-2.3c0.2-0.8,0.3-1.6,0.5-2.5c0.1-0.4,0.2-0.9,0.3-1.3
				c0.1-0.4,0.2-0.9,0.3-1.3c0.1-0.4,0.2-0.9,0.3-1.3c0.1-0.4,0.2-0.9,0.4-1.4c0.6-1.8,1.1-3.7,1.9-5.6c0.7-1.9,1.6-3.8,2.4-5.7
				c1-1.9,1.9-3.7,3-5.5c1-1.8,2.2-3.5,3.3-5.2c0.6-0.8,1.2-1.6,1.7-2.4c0.3-0.4,0.6-0.8,0.9-1.2c0.3-0.4,0.6-0.8,0.9-1.1
				c0.6-0.7,1.2-1.5,1.7-2.1c0.6-0.7,1.2-1.3,1.7-2c0.6-0.6,1.1-1.2,1.6-1.8c0.5-0.6,1.1-1.1,1.5-1.6c0.5-0.5,0.9-1,1.4-1.4
				c0.4-0.4,0.8-0.8,1.2-1.1c0.7-0.7,1.3-1.2,1.7-1.6C234.5,77.7,234.8,77.5,234.8,77.5"/>
			<polygon class="st12" points="393.1,78.7 396.5,89.8 398.2,95.4 400,101 401.8,106.5 403.7,112.1 405.7,117.6 407.7,123.2 
				409.8,128.7 412.1,134.2 414.4,139.6 416.9,145 419.5,150.4 422.3,155.8 425.2,161.1 428.3,166.3 426.8,166.5 428.1,161.3 
				429.2,156.2 430.2,151.1 431,146 431.8,140.8 432.4,135.6 432.8,130.5 433.1,125.3 433.3,120.1 433.4,114.9 433.3,109.7 
				433.1,104.6 432.8,99.4 432.3,94.2 431.7,89.1 431,83.9 433,83.6 437.7,96.2 442,108.9 445.8,121.6 449.2,134.4 452.2,147.3 
				454.8,160.2 457.1,173.2 459.1,186.1 460.8,199.1 462.2,212.1 463.5,225.1 464.5,238.1 465.4,251.1 466.2,264.1 467,277.1 
				467.6,290.2 465.7,264.2 464.6,251.1 463.5,238.1 462.2,225.2 460.8,212.2 459.2,199.2 457.4,186.2 455.3,173.3 453,160.4 
				450.3,147.5 447.3,134.7 443.9,121.9 440,109.2 435.8,96.6 431,84 433,83.7 433.7,88.9 434.3,94.1 434.8,99.3 435.1,104.5 
				435.3,109.7 435.3,114.9 435.2,120.1 435,125.3 434.7,130.5 434.2,135.7 433.5,140.9 432.8,146.1 431.9,151.3 430.9,156.4 
				429.7,161.5 428.4,166.7 427.9,168.5 426.9,166.8 423.8,161.5 420.9,156.2 418.2,150.8 415.7,145.3 413.3,139.9 411,134.4 
				408.8,128.9 406.8,123.4 404.8,117.8 403,112.2 401.2,106.7 399.5,101.1 397.8,95.5 396.2,89.9 			"/>
			<path class="st12" d="M438.5,201.2c0,0,0.1,0.4,0.4,1.3c0.3,0.8,0.7,2,1.1,3.6c0.5,1.6,1,3.4,1.6,5.6c0.6,2.2,1.2,4.6,1.7,7.3
				c0.6,2.7,1.2,5.6,1.7,8.7c0.6,3.1,1.1,6.4,1.7,9.7c0.5,3.4,1.1,6.9,1.7,10.4c0.5,3.6,1.1,7.2,1.6,10.8c0.5,3.6,1,7.2,1.4,10.8
				c0.1,0.9,0.2,1.8,0.3,2.7c0.1,0.9,0.2,1.8,0.3,2.6c0.2,1.7,0.4,3.5,0.6,5.2c0.2,1.7,0.3,3.4,0.5,5c0.1,1.6,0.3,3.2,0.4,4.8
				c0.1,1.6,0.2,3.1,0.3,4.5c0.1,1.5,0.2,2.9,0.2,4.2c0.1,1.4,0.1,2.7,0.2,3.9c0,1.2,0.1,2.4,0.1,3.5c0,2.2,0,4.1,0,5.7
				c0,1.6-0.1,2.8-0.1,3.7c0,0.9,0,1.3,0,1.3s-0.1-1.8-0.3-5c-0.1-1.6-0.3-3.5-0.4-5.7c-0.2-2.2-0.4-4.7-0.6-7.4
				c-0.1-1.4-0.3-2.8-0.4-4.2c-0.1-0.7-0.1-1.5-0.2-2.2c-0.1-0.8-0.2-1.5-0.2-2.3c-0.2-1.6-0.3-3.1-0.5-4.8c-0.2-1.6-0.4-3.3-0.6-5
				c-0.4-3.4-0.9-6.9-1.4-10.4c-0.5-3.6-1-7.2-1.5-10.8c-1-7.2-2.1-14.4-3-21.2c-0.5-3.4-0.9-6.7-1.4-9.8c-0.5-3.1-0.9-6-1.3-8.7
				c-0.5-2.7-0.9-5.2-1.3-7.4c-0.4-2.2-0.8-4.1-1.2-5.7c-0.4-1.6-0.6-2.8-0.8-3.6C438.6,201.6,438.5,201.2,438.5,201.2"/>
			<path class="st12" d="M467.3,92.4c0,0,0.2,0.6,0.4,1.6c0.3,1.1,0.7,2.6,1.2,4.6c0.3,1,0.6,2.1,0.8,3.3c0.3,1.2,0.6,2.5,0.9,3.9
				c0.3,1.4,0.7,2.9,1.1,4.5c0.4,1.6,0.7,3.2,1,5c0.4,1.7,0.8,3.5,1.1,5.4c0.3,1.9,0.7,3.8,1.1,5.8c0.2,1,0.4,2,0.5,3
				c0.2,1,0.3,2.1,0.5,3.1c0.3,2.1,0.7,4.2,1,6.4c0.6,4.3,1.2,8.8,1.7,13.4c0.5,4.6,0.9,9.2,1.3,13.9c0.3,4.7,0.6,9.3,0.8,13.9
				c0.2,4.6,0.2,9.1,0.3,13.5c0,2.2,0,4.3,0,6.4c0,1.1,0,2.1,0,3.1c0,1-0.1,2-0.1,3c-0.1,2-0.1,3.9-0.2,5.8
				c-0.1,1.9-0.2,3.7-0.3,5.4c-0.1,1.7-0.2,3.4-0.3,5c-0.1,1.6-0.3,3.1-0.4,4.5c-0.1,1.4-0.2,2.7-0.3,4c-0.1,1.2-0.2,2.3-0.3,3.4
				c-0.2,2-0.4,3.6-0.5,4.7c-0.1,1.1-0.2,1.7-0.2,1.7s0-0.6,0.1-1.7c0.1-1.1,0.1-2.7,0.2-4.7c0.1-1,0.1-2.1,0.2-3.4
				c0-1.2,0.1-2.6,0.1-4c0-1.4,0.1-2.9,0.2-4.5c0-1.6,0.1-3.3,0.1-5c0-1.7,0.1-3.6,0.1-5.4c0-1.9,0-3.8,0-5.8c0-1,0-2,0-3
				c0-1,0-2.1,0-3.1c0-2.1-0.1-4.2-0.1-6.4c-0.1-2.2-0.1-4.4-0.2-6.6c0-1.1-0.1-2.2-0.1-3.4c-0.1-1.1-0.1-2.3-0.2-3.4
				c-0.2-4.6-0.5-9.2-0.8-13.9c-0.4-4.6-0.7-9.3-1.2-13.8c-0.1-1.1-0.2-2.3-0.4-3.4c-0.1-1.1-0.2-2.3-0.4-3.4
				c-0.3-2.2-0.5-4.4-0.8-6.6c-0.3-2.2-0.6-4.3-0.9-6.4c-0.1-1-0.3-2.1-0.4-3.1c-0.1-1-0.3-2-0.5-3c-0.3-2-0.6-3.9-0.9-5.8
				c-0.3-1.9-0.6-3.7-0.9-5.4c-0.3-1.7-0.6-3.4-0.9-5c-0.3-1.6-0.6-3.1-0.8-4.5c-0.3-1.4-0.5-2.7-0.7-3.9c-0.2-1.2-0.5-2.3-0.7-3.3
				c-0.4-2-0.7-3.6-0.9-4.7C467.4,93,467.3,92.4,467.3,92.4"/>
			<path class="st20" d="M607.5,75.5c-1.4,0.3-2.9,0.6-3.9,1.4c-1.4,1.1-1.4,2.8-1.4,4.3c0.8,19.7,1.6,39.4,2.5,59.2
				c0.1,1.4,0.1,2.8,0.8,4.1c1.4,2.7,5.1,4.5,8.8,5.6c12.3,3.6,26.3,1.9,39.3,0.1c17.2-2.3,34.4-4.7,51.6-7
				c-0.3-26.8-0.7-55.5-7.6-81.8c-0.2-0.9-0.6-1.9-1.6-2.4c-1-0.4-2.2-0.3-3.3-0.2C664.5,62.4,635.1,69.5,607.5,75.5"/>
			<path class="st15" d="M671.1,67.4c0.6-1-0.3-2.4-1.7-2.7c-16.1,3.9-32.1,7.8-48.2,11.7c-3.4,0.8-6.9,1.7-9.5,3.5
				c-3.6,2.7-4.4,6.7-5.4,10.3c-1,3.7-2.5,7.4-1.8,11.1c0.7,3.7,4.2,7.5,9.3,7.9c2.7,0.2,5.4-0.5,7.9-1.2c12.6-3.6,25.1-8,34.6-15
				c9.5-7,15.6-17.1,12.9-26.7c1.3,0.8,2,0.9,1.5,2.1"/>
			<path class="st24" d="M689,61.9c0.7,8.2,1.4,16.6-2.3,24.3c-4.1,8.5-13.5,15.4-24.3,19.9c-8.1,3.4-17.1,5.6-26.3,6.5
				c-3.7,0.4-7.6,0.5-11.1-0.4c-3.6-0.8-6.8-2.8-7.6-5.5c-1.1-3.5,2.2-7,6-9.3c7.3-4.5,16.9-6.6,25.7-9.2c8.9-2.7,17.9-6.6,21.7-13
				c1.7-2.8,2.2-5.8,3.8-8.6c1.6-2.8,4.7-5.4,8.9-5.7c4.1-0.3,8.3,3.2,6.3,5.8"/>
			<path class="st16" d="M648.1,128.8c-7.9-1.5-11.1-12.1-10.1-17.1c0.7-3.4,5.2-6.7,9.8-5.9c8.9,1.5,9,13.4,8,18.3
				c-0.3,1.6-1,3.4-2.8,4.3C651.6,129.1,649.7,129.1,648.1,128.8"/>
			<path class="st18" d="M668.6,142.5c0.6,1.9-3.3,3.1-5.6,2.1c-2.3-1-3.1-3.1-3.7-5c-0.9-2.8-3.1-5.3-3.4-8.3
				c-0.4-3.6,1.5-7.5,5.7-9.5c4.2-2,10.6-1.4,13.2,1.7c-2.8-4.9-5.2-10.3-3.4-15.5c1.7-5.2,8.8-9.8,16-8.5c5.6,1,9.3,5.1,10.1,9.2
				c0.7,4.1-0.9,8.3-2.7,12.3c-0.7,1.6-1.5,3.1-2.8,4.5c-3,2.9-8.1,4-12.7,5.5c-4.6,1.5-9.3,4-9.5,7.6c-0.1,1.4,0.6,2.9-0.2,4.2
				c-1.1,1.7-4.7,2.1-6.5,0.7"/>
			<polygon class="st23" points="698.7,63.8 706.9,63.8 706.9,43.5 697.1,43.5 595.7,76 595.7,164.4 706.9,156.6 706.9,139.3 
				614.4,144.5 614.4,85.5 			"/>
			<path class="st12" d="M594.6,165.2V75.5l102.3-32.8H708v21.8h-9L615.4,86v57.7l92.6-5.2v18.8L594.6,165.2z M596.7,76.5v87
				l109.2-7.6v-15.8l-92.6,5.2V84.9L698.6,63h7.3V44.2h-8.6L596.7,76.5z"/>
			<path class="st25" d="M-1.7,384.7c-3.8-3.9-6-8.5-7.7-13.2c-4.8-13-6.4-26.6-5.4-40.1c0.4-5.8,2.3-12.6,9.6-14.8
				c6.8-2.1,14.8,1.1,18.8,5.7c3.9,4.5,4.9,10,6.6,15.3c1.6,5.2,4.4,10.7,10.4,13.8c5.2,2.6,12.1,3.1,17.3,5.7
				c8.4,4.3,11.3,14,11.3,21c0,2.8-0.5,5.7-2.6,7.9c-1.8,1.9-4.5,3.1-7.2,4.4C33.2,397.8,10.5,397.2-1.7,384.7"/>
			<path class="st12" d="M26.8,395.9c-1.5,0-3-0.1-4.6-0.2c-10.3-0.9-18.9-4.5-24.8-10.6c-4.1-4.2-6.3-9.1-7.8-13.4
				c-4.6-12.6-6.4-26.2-5.4-40.3c0.6-8.5,4-13.5,10.3-15.5c7.3-2.3,16,1.2,20.1,6c3.3,3.8,4.6,8.3,5.9,12.6c0.3,0.9,0.6,1.9,0.9,2.9
				c1.3,4.2,3.8,10.2,10,13.3c2.5,1.3,5.4,2,8.4,2.7c3.1,0.8,6.2,1.6,8.9,3c8.6,4.4,11.7,14,11.8,21.6c0,3.7-0.9,6.3-2.8,8.4
				c-1.9,2-4.9,3.4-7.5,4.6C43,394.2,34.8,395.9,26.8,395.9 M-0.9,384.3c12.4,12.7,34.9,12.2,49.8,5.4c2.4-1.1,5.2-2.4,6.9-4.2
				c1.7-1.8,2.5-4.2,2.4-7.5c-0.1-6.9-2.9-16.3-10.9-20.4c-2.5-1.3-5.4-2-8.4-2.8c-3-0.8-6.2-1.6-8.9-2.9
				c-6.8-3.4-9.4-9.7-10.8-14.2c-0.3-1-0.6-1.9-0.9-2.9c-1.2-4.2-2.5-8.5-5.6-12.1c-3.6-4.2-11.2-7.3-17.5-5.4
				c-5.5,1.7-8.4,6.4-9,14.2c-1,14,0.8,27.4,5.3,39.8C-6.8,375.5-4.8,380.3-0.9,384.3"/>
			<path class="st23" d="M6,413.3c-4.8,0.7-9.8,1.6-13.7,3.7c-6.2,3.3-8.6,9.1-10.1,14.6c-4.1,15-3.9,30.6,0.7,45.6
				c0.5,1.6,1.1,3.3,2.6,4.5c2.3,1.9,6.2,2.3,9.7,2.5c26.8,1.7,53.8,1.7,80.6,0c12.3-0.8,24.8-2,36-5.8c2.1-0.7,4.2-1.5,5.5-2.9
				c2.8-2.8,1.4-6.7,0-10c-3.5-8.2-6.4-16.9-4.5-25.4c1.4-6.4,5.5-12.4,9.5-18.2c2.2-3.2,9.1-9.8,8.1-13.5c-1.4-4.7-10.5-3.8-15.9-4
				c-17.6-0.6-34.6,2.6-51.8,2.6C44,407,24.2,410.6,6,413.3"/>
			<path class="st12" d="M35.5,486.3c-13.5,0-27-0.4-40.3-1.3c-3.7-0.2-7.8-0.7-10.4-2.8c-1.7-1.4-2.3-3.1-2.8-4.9
				c-4.6-15-4.9-30.8-0.7-45.9c1.4-5.1,3.9-11.5,10.5-15.1c4-2.2,8.8-3,14.1-3.8l0.2,0.7l-0.2-0.7c2.5-0.4,5.1-0.8,7.6-1.2
				c16.2-2.5,33-5.1,49.1-5.2c7.7,0,15.6-0.7,23.2-1.3c9.3-0.8,19-1.6,28.7-1.3c0.9,0,1.9,0,2.9,0c5.3,0,12.7,0,14,4.6
				c0.9,3.1-2.8,7.6-5.8,11.2c-0.9,1.1-1.8,2.1-2.3,2.9c-3.9,5.7-8,11.6-9.4,18c-1.8,8.3,1.1,17,4.5,25c1.5,3.6,2.9,7.6-0.2,10.7
				c-1.5,1.5-3.7,2.4-5.9,3.1c-11.8,4-24.9,5.1-36.3,5.8C62.5,485.8,49,486.3,35.5,486.3 M109.9,405.1c-8.1,0-16.1,0.7-23.9,1.3
				c-7.6,0.6-15.6,1.3-23.4,1.3c-15.9,0-32.6,2.6-48.7,5.1c-2.6,0.4-5.1,0.8-7.6,1.2c-5.1,0.8-9.7,1.6-13.3,3.5
				c-6.1,3.3-8.4,9.3-9.7,14.2c-4.1,14.8-3.8,30.5,0.7,45.2c0.5,1.6,1,3.1,2.4,4.2c2.1,1.7,5.6,2,9,2.3c26.7,1.7,53.8,1.7,80.4,0
				c11.2-0.7,24.1-1.8,35.6-5.7c2-0.7,3.9-1.4,5.1-2.6c2.5-2.5,1.3-6-0.1-9.3c-3.5-8.2-6.5-17.1-4.6-25.7c1.4-6.6,5.6-12.6,9.6-18.5
				c0.6-0.8,1.4-1.8,2.4-3c2.7-3.2,6.3-7.6,5.6-10.1c-0.9-3.1-5.7-3.4-12-3.4c-1.1,0-2.1,0-3,0C112.9,405.1,111.4,405.1,109.9,405.1
				"/>
			<path class="st26" d="M51,420.7c21.8-2,44-3,66.1-4.8c3.2-0.3,6.6-0.5,9.4-1.7c4.2-1.7,6.6-5.2,7.3-8.7
				c1.7-8.1-4.5-16.2-13.4-21.2c-8.9-5-20.2-7.2-31.4-8.3c-15.5-1.6-31.8-1.2-45.9,3.7C29,384.6,17.7,394.7,17.4,406
				c-0.1,3.7,1.1,7.5,4.3,10.3C28.4,422.1,40.7,421.7,51,420.7"/>
			<path class="st12" d="M40.5,422.1c-7.6,0-14.9-1.2-19.5-5.2c-3.9-3.4-4.6-7.7-4.6-10.8c0.1-5.5,2.8-11.1,7.8-16
				c4.6-4.6,11.2-8.5,18.4-11c12.5-4.4,28.2-5.6,46.5-3.7c13.9,1.4,24,4.1,31.8,8.5c10,5.6,15.4,14.2,13.8,21.9
				c-0.9,4.2-3.7,7.6-7.8,9.3c-3.1,1.3-6.6,1.5-9.8,1.8c-9.2,0.7-18.7,1.4-27.8,1.9c-12.6,0.8-25.6,1.7-38.3,2.8
				C47.6,421.8,44,422.1,40.5,422.1 M73.4,375.9c-11.4,0-21.3,1.5-29.8,4.4c-14.8,5.1-24.8,15.5-25,25.7c-0.1,2.8,0.6,6.8,4.1,9.8
				c6.2,5.4,17.8,5.1,28.3,4.1c12.7-1.2,25.7-2,38.3-2.9c9.1-0.6,18.5-1.2,27.7-1.9c3-0.2,6.3-0.5,9-1.6c3.6-1.5,6-4.4,6.8-8.2
				c1.5-7.2-3.6-15.3-13-20.5c-7.5-4.2-17.4-6.8-30.9-8.2C83.4,376.2,78.3,375.9,73.4,375.9"/>
			<path class="st27" d="M44.5,431.9c20.6-1,43.1-2.7,57.9-13.2c2.7-1.9,5.2-4.3,5.5-7c0.4-3.6-3.2-6.9-7.6-8.5
				c-4.4-1.6-9.6-1.8-14.5-1.8c-13,0-26,1.3-38.4,3.9c-0.6-9.7-2-20.5-12.1-26.8c-4.2-2.6-9.5-4.1-13.6-6.8
				c-13.1-8.7-8-25.1-18.1-35.6c-2.6-2.7-6.7-5.1-11.3-4.9c-4.6,0.2-8.3,3-10.6,5.9c-4.5,5.5-6.2,11.8-7.4,18.1
				c-4.2,22.9-1.3,46.5,8.5,68.4C-10.5,438.9,27.6,432.7,44.5,431.9"/>
			<path class="st12" d="M12.5,434.6c-13.9,0-27-2.1-30.8-10.8c-9.8-22-12.8-45.8-8.5-68.8c1.1-5.9,2.8-12.7,7.6-18.4
				c3.1-3.8,7.2-6.1,11.5-6.2c4.3-0.2,8.9,1.7,12.2,5.2c4.7,4.9,6.2,11.1,7.7,17c1.7,7.2,3.4,13.9,10.3,18.5c2.1,1.4,4.4,2.4,7,3.5
				c2.2,1,4.6,2,6.6,3.3c10,6.2,11.8,16.4,12.4,26.4c12.2-2.4,24.8-3.7,37.5-3.7c5.1,0,10.4,0.2,15,1.9c4.4,1.6,8.7,5.1,8.2,9.3
				c-0.3,2.5-2.2,4.9-5.8,7.5c-14.8,10.5-37,12.4-58.5,13.4c-2.7,0.1-6.1,0.4-9.6,0.7C28.2,433.9,20.2,434.6,12.5,434.6 M-7.3,331.9
				c-0.2,0-0.3,0-0.5,0c-4.8,0.2-8.2,3.6-9.8,5.5c-4.5,5.5-6.2,12.1-7.3,17.8c-4.2,22.7-1.3,46.3,8.5,68.1c5.5,12.3,33,10,51.1,8.5
				c3.6-0.3,6.9-0.6,9.7-0.7l0.1,0.7l-0.1-0.7c21.1-1,42.9-2.8,57.2-13c3.3-2.3,4.9-4.4,5.2-6.5c0.4-3.5-3.4-6.5-7.1-7.8
				c-4.2-1.5-9.3-1.7-14.1-1.7c-12.9,0-25.7,1.3-38.2,3.9l-1.3,0.3l-0.1-0.9c-0.6-10-2-20.3-11.8-26.3c-1.9-1.2-4.2-2.2-6.4-3.1
				c-2.5-1.1-5.1-2.2-7.3-3.7c-7.4-4.9-9.2-12.3-10.9-19.4C8.5,347,7,341.1,2.6,336.4C-0.2,333.5-3.8,331.9-7.3,331.9"/>
			<path class="st23" d="M289.7,385.7c-26.6,2-53.4,4.9-80,2.6c-0.3,8.8-2.9,72.8,10,72.7c61.5-0.5,122.9-2,184.3-4.8h310.9
				c-3.6-12.9-5.7-27.5-3.3-40.6c1.4-7.6,5.4-19.9-8.2-22.5c-28.3-5.3-59.8-3.8-89-5c-31.2-1.3-62.3-2.7-93.5-3.9
				c-62.1-2.4-124.5-3.8-186.6-1.2C319.4,383.7,304.5,384.5,289.7,385.7"/>
			<path class="st12" d="M219.6,461.7c-1.1,0-2.2-0.4-3.1-1.1c-4.4-3.2-7.1-15.1-8-35.2c-0.7-15.7-0.1-31.5,0.1-36.7l0.1-1.4
				l1.1,0.1c22.7,1.9,45.9,0.1,68.4-1.7c3.7-0.3,7.6-0.6,11.4-0.9c14.4-1.1,29.4-2,44.7-2.6c65.4-2.7,131.1-0.9,186.7,1.2
				c19.9,0.8,40.2,1.6,59.8,2.5c11,0.5,22.5,1,33.7,1.4c8.4,0.3,17.1,0.5,25.6,0.6c21.3,0.3,43.3,0.6,63.6,4.4
				c5.8,1.1,9.3,4,10.3,8.7c0.8,3.9-0.1,8.4-0.9,12.3c-0.2,0.8-0.3,1.6-0.5,2.3c-2.1,11.2-0.9,25.1,3.3,40.4l0.2,0.9H404
				C345.7,459.6,285.4,461.1,219.6,461.7C219.7,461.7,219.7,461.7,219.6,461.7 M210.7,389.1c-1.5,40.3,1.2,66,7.3,70.5
				c0.6,0.4,1.1,0.6,1.7,0.6c65.7-0.6,126-2.1,184.2-4.8l0.1,0h309.7c-4.1-15.2-5.2-28.6-3.1-39.9c0.1-0.7,0.3-1.5,0.5-2.3
				c1.6-7.7,3.5-17.2-7.9-19.3c-20-3.7-41.9-4.1-63.1-4.4c-8.5-0.1-17.2-0.2-25.6-0.6c-11.2-0.5-22.7-1-33.7-1.4
				c-19.6-0.8-39.8-1.7-59.8-2.5c-55.6-2.1-121.3-3.9-186.5-1.2c-15.2,0.6-30.2,1.5-44.6,2.6c-3.8,0.3-7.6,0.6-11.4,0.9
				C256.2,389.1,233.2,390.9,210.7,389.1"/>
			<path class="st16" d="M688.5,396c2.2,0,4.5,0,6.4-0.9c1.5-0.7,2.6-1.9,3.4-3c8.1-11.4,3.4-25.1,4.2-37.9
				c0.2-3.9,0.9-8.2-2.1-11.4c-1.4-1.5-3.5-2.7-5.5-3.8c-13.4-7.2-27.6-14-43.2-18.3c-15.6-4.3-33-6.1-49.3-3.4
				c-4.5,0.8-9.2,2-12.2,4.5c-4.2,3.4-4.6,8.5-4.5,13.1c0.4,13.8,3.5,27.6,9.2,40.8c2.6,6.1,6.4,13.5,14.1,17.2
				c9,4.3,23.8,2,34.1,2.4C658.1,395.8,673.3,395.9,688.5,396"/>
			<path class="st12" d="M688.9,396.7c-0.1,0-0.3,0-0.4,0c-17,0-31.9-0.2-45.6-0.7c-2.8-0.1-5.9,0-9.2,0.1
				c-8.7,0.3-18.6,0.6-25.4-2.6c-7.7-3.7-11.6-10.7-14.5-17.6c-5.7-13.3-8.8-27.1-9.2-41.1c-0.1-4.9,0.3-10,4.7-13.6
				c3.5-2.9,9-4.1,12.8-4.7c15.2-2.6,32.5-1.4,49.9,3.4c17,4.7,32.2,12.3,43.5,18.4c1.9,1,4.2,2.3,5.8,4c2.9,3.1,2.6,7,2.3,10.7
				c0,0.4-0.1,0.8-0.1,1.2c-0.2,3.8,0,7.7,0.3,11.5c0.6,9.1,1.2,18.5-4.6,26.6c-0.8,1.2-1.9,2.5-3.8,3.3
				C693.3,396.7,690.9,396.7,688.9,396.7 M640.7,394.5c0.8,0,1.5,0,2.3,0c13.7,0.4,28.5,0.6,45.5,0.7c2.3,0,4.3,0,5.8-0.7
				c1.4-0.6,2.3-1.7,3-2.7c5.6-7.8,4.9-17,4.3-25.9c-0.3-3.9-0.5-7.8-0.3-11.7c0-0.4,0-0.8,0.1-1.2c0.2-3.5,0.5-7.1-2-9.8
				c-1.3-1.4-3.1-2.4-5.3-3.6c-11.2-6-26.2-13.6-43-18.2c-17-4.7-33.8-5.9-48.7-3.4c-3.5,0.6-8.5,1.7-11.7,4.3
				c-3.9,3.2-4.3,7.9-4.2,12.6c0.4,13.8,3.5,27.5,9.2,40.6c2.9,6.7,6.5,13.3,13.7,16.8c6.2,3,15.7,2.7,24.1,2.4
				C636.1,394.6,638.5,394.5,640.7,394.5"/>
			<path class="st12" d="M704.2,354.6c-28.6-1.2-57.6-1.7-86.2-1.4l0-1.5c28.7-0.2,57.7,0.3,86.4,1.4L704.2,354.6z"/>
			<path class="st23" d="M696.1,344.7c-39-15.2-74.6-34.9-105.1-58.3c-6.9-5.3-13.7-11-17.2-17.8c-3.4-6.8-3.3-14.2-3.1-21.4
				c0.3-11.8-1.3-24.5,0.9-36.2c0.2-0.8,0.4-1.7,1.2-2.3c1-0.8,2.6-0.9,4-1c17.6-0.7,35.6-1.2,53.3-1.2h84.8
				c10.6,42.3,7.1,86.4-7.7,128.1c-1.6,4.6-5.2,10.2-11.7,10.1"/>
			<path class="st12" d="M695.7,345.6c-0.1,0-0.2,0-0.2,0l0-0.2c-39.2-15.3-74.6-34.9-105.2-58.4c-6.5-5-13.8-10.9-17.4-18.1
				c-3.5-7-3.3-14.8-3.2-21.6c0.1-3.9,0-8-0.1-11.9c-0.2-8.1-0.5-16.5,1-24.4c0.2-0.9,0.4-2,1.4-2.7c1.2-1,3.1-1.1,4.7-1.2
				c17.8-0.7,35.7-1.2,53.3-1.2h85.6l0.2,0.6c10.3,40.9,7.6,85.3-7.7,128.4C706.8,338.9,703.3,345.6,695.7,345.6 M630.1,207.4
				c-17.5,0.1-35.4,0.5-53.2,1.2c-1.3,0.1-2.6,0.2-3.3,0.7c-0.6,0.4-0.8,1.2-0.9,1.9c-1.5,7.8-1.2,16.1-1,24.1
				c0.1,3.9,0.2,8,0.1,11.9c-0.2,6.7-0.3,14.4,3,21.1c3.5,6.9,10.6,12.7,16.9,17.5c30.5,23.3,65.7,42.9,104.8,58.1
				c5.6-0.5,8.5-6.1,9.7-9.5c15.1-42.7,17.8-86.6,7.8-127.2H630.1z"/>
			<path class="st28" d="M475.8,287.2c14.4,1.1,28.9,2.5,42.5,6c22.4,5.9,41.9,17.4,65.3,20.7c7.8,1.1,16.1,1.3,22.9,4.2
				c6.2,2.6,10.4,7.3,13.3,12.1c6.7,11.2,7.2,23.7,7.3,35.9c0.1,17.7-0.8,35.7-8.4,52.6c-0.7,1.6-1.6,3.3-3.4,4.2
				c-1.4,0.7-3.2,1-4.9,1.2c-61.6,7.3-124.4-4.4-186.8-3.7c-2.6,0-15.8-55-17.3-60.3c-5.8-20.1-11.1-38.8-21.1-58
				c-1.6-3-3.2-6.1-3.5-9.3c-1.5-14,24.5-8.9,37.1-8.6C437.8,284.8,456.8,285.7,475.8,287.2"/>
			<path class="st12" d="M565.8,427.2c-22.8,0-45.7-1.5-68.2-3c-24.3-1.6-49.5-3.3-74.2-3h0c-1.2,0-2.2,0-7.7-19.9
				c-3-10.7-6.2-23.6-8.3-32.1c-1.1-4.5-2-7.8-2.3-8.9l-0.1-0.3c-5.7-19.8-11.1-38.6-21-57.6c-1.6-3-3.2-6.1-3.6-9.5
				c-0.3-3.3,0.7-5.8,3.2-7.6c5.7-4,17.6-3.1,27.2-2.3c2.8,0.2,5.5,0.4,7.7,0.5c19,0.5,38.2,1.5,57.2,2.9c13.3,1,28.7,2.4,42.8,6.1
				c9.3,2.4,18.1,5.9,26.7,9.2c12.2,4.7,24.8,9.6,38.4,11.5c1.9,0.3,3.9,0.5,5.8,0.7c5.9,0.6,12.1,1.3,17.4,3.6
				c5.6,2.4,10.2,6.6,13.7,12.4c6.7,11.2,7.3,23.5,7.4,36.2c0.1,16.4-0.5,35.3-8.4,52.8c-0.7,1.6-1.7,3.5-3.8,4.6
				c-1.6,0.8-3.4,1.1-5.4,1.3C595.7,426.5,580.8,427.2,565.8,427.2 M429.3,419.6c22.9,0,46.1,1.6,68.6,3.1c37,2.5,75.2,5,112.2,0.6
				c1.8-0.2,3.3-0.4,4.5-1.1c1.6-0.8,2.4-2.4,3.1-3.9c7.8-17.3,8.4-36.1,8.3-52.3c-0.1-12.5-0.6-24.6-7.2-35.6
				c-3.3-5.6-7.7-9.5-12.9-11.7c-5-2.1-10.9-2.8-16.7-3.4c-1.9-0.2-3.9-0.4-5.9-0.7c-13.9-1.9-26.7-6.9-39-11.6
				c-8.5-3.3-17.3-6.7-26.4-9.1c-13.9-3.6-29.1-5-42.3-6c-18.9-1.4-38.1-2.4-57-2.9c-2.3-0.1-5-0.3-7.9-0.5
				c-9.2-0.7-20.6-1.6-25.6,1.9c-2.1,1.4-2.9,3.5-2.6,6.4c0.3,3.1,1.9,6.1,3.4,9.1c10,19.2,15.4,37.9,21.1,57.8l0.1,0.3
				c0.3,1.1,1.2,4.4,2.3,9c2.1,8.2,5.2,20.5,8,30.9c4.2,15.3,5.8,18.9,6.4,19.8C425.7,419.6,427.5,419.6,429.3,419.6"/>
			<path class="st13" d="M252.3,292.7c-5.1,0.9-10.3,1.8-14.8,3.7c-5.3,2.2-9.5,5.6-13.2,9.1c-12.5,11.9-20.6,26.1-23.2,41
				c-2.2,12.3-0.7,24.9,0.8,37.3c1.2,10.2,2.5,20.3,3.7,30.5c8.2,2.3,17.3,1.6,26,0.9c49.9-4,101.5-7.9,149.3,3.1
				c3.8,0.9,8.6,1.7,11.4-0.4c1.2-0.9,1.8-2.2,2.2-3.4c9.3-24.6,12.3-50.4,8.8-75.7c-1.1-8.3-3-16.8-8.1-24.3
				c-4.6-6.9-11.6-12.7-19.3-17.9c-6-4-13.2-12.3-21.2-14c-8.8-2-25.3,1.3-34.4,2C297.4,286.2,274.7,289,252.3,292.7"/>
			<path class="st12" d="M387.4,419.9c-2.2,0-4.6-0.4-6.9-1c-48.8-11.2-102-6.9-148.9-3.1c-8.4,0.7-17.9,1.5-26.5-1l-0.6-0.2
				l-3.8-31c-1.5-12.3-3-24.9-0.8-37.4c2.7-15,10.8-29.3,23.4-41.3c3.2-3,7.6-6.9,13.5-9.3c4.6-1.9,9.6-2.8,15.1-3.8
				c22.4-3.7,45.3-6.5,68.2-8.3c2.5-0.2,5.6-0.6,8.9-1c9.1-1.1,19.4-2.4,26-1c5.8,1.3,11.1,5.7,15.8,9.7c2,1.7,4,3.3,5.8,4.5
				c9.3,6.3,15.5,12,19.5,18.1c5.3,8,7.1,16.9,8.2,24.6c3.5,25.6,0.5,51.2-8.9,76c-0.4,1.1-1,2.7-2.5,3.7
				C391.5,419.5,389.5,419.9,387.4,419.9 M308.6,410.3c27.6,0,51.4,2.4,72.6,7.2c3.8,0.9,8,1.5,10.4-0.2c1-0.8,1.5-1.8,2-3.1
				c9.3-24.6,12.3-50,8.8-75.4c-1-7.5-2.8-16.3-8-24.1c-4-5.9-10-11.6-19.1-17.7c-1.9-1.3-3.8-2.9-5.9-4.7c-4.5-3.8-9.6-8-14.8-9.2
				c-6.1-1.4-16.6-0.1-25,1c-3.3,0.4-6.4,0.8-9,1c-22.8,1.8-45.7,4.5-68,8.3c-5.4,0.9-10.2,1.8-14.6,3.6c-5.5,2.3-9.8,6-12.9,8.9
				c-12.4,11.8-20.4,25.9-23,40.6c-2.2,12.3-0.7,24.9,0.8,37.1l3.6,30c8,2.1,17,1.4,24.9,0.7c26.9-2.2,51.2-4,75.5-4.1
				C307.5,410.3,308,410.3,308.6,410.3"/>
			<path class="st29" d="M387.1,282.1c-9.5-3.3-17.6-1.4-28.8-2.5c-2.1-0.2-4.3-0.6-6.2,0.1c-2.7,0.9-3.7,3.4-3.1,5.5
				c0.7,2.1,2.6,3.8,4.5,5.5c12,10.8,23,22.4,30.2,35.3c17,30.4,11.2,64.9,1,96.9c10,3.9,21.9,5.3,33.1,3.9c2-0.3,4.2-0.7,5.4-1.9
				c0.9-0.9,1.1-2,1.3-3.1l5.8-37c1.6-9.9,3.1-19.8,2.8-29.8c-0.7-26-10.8-56.1-42.3-71.3C389.6,283,388.3,282.5,387.1,282.1"/>
			<path class="st12" d="M408.9,428c-8.6,0-17.1-1.5-24.8-4.5l-0.7-0.3l0.2-0.6c9-28.1,16.9-64.5-0.9-96.5
				c-6.2-11-15.4-21.9-30-35.1l0,0c-1.9-1.7-3.9-3.5-4.6-5.8c-0.7-2.3,0.3-5.3,3.7-6.4c1.9-0.6,4.1-0.4,6-0.2c0.3,0,0.5,0.1,0.8,0.1
				c4,0.4,7.6,0.4,11.1,0.4c6.1,0,11.8,0,18,2.2c1.3,0.4,2.6,1,3.8,1.6c35.9,17.3,42.2,52.4,42.7,71.9c0.3,10-1.3,20.1-2.9,29.9
				l-5.8,37c-0.2,1.1-0.4,2.4-1.5,3.5c-1.4,1.4-3.9,1.9-6.1,2.2C414.9,427.8,411.9,428,408.9,428 M385.8,422.4
				c9.7,3.6,20.9,4.9,31.7,3.5c1.8-0.2,3.8-0.6,4.8-1.6c0.8-0.8,0.9-1.8,1.1-2.8l5.8-37c1.5-9.7,3.1-19.7,2.8-29.7
				c-0.5-19.1-6.7-53.7-41.8-70.6c-1.2-0.6-2.4-1.1-3.6-1.5c-5.8-2-11.1-2-17.2-2.1c-3.5,0-7.2,0-11.4-0.4c-0.3,0-0.6-0.1-0.8-0.1
				c-1.8-0.2-3.4-0.4-4.8,0.1c-2.3,0.7-3,2.9-2.5,4.7c0.6,1.9,2.5,3.6,4.2,5.2l0,0c14.7,13.3,24.1,24.3,30.3,35.4
				C402.6,357.7,394.8,394.1,385.8,422.4"/>
			<path class="st28" d="M590,231.6c3.5,6.1,12.3,7.4,12.8-0.7c0.2-2.9,0.7-6.5-2.9-8.2c-3-1.5-8-0.8-9.9,1.4
				C588.1,226.3,588.6,229.2,590,231.6"/>
			<path class="st12" d="M597.7,237.4c-3.3,0-6.7-2.1-8.6-5.4c-1.1-1.8-2.5-5.3,0-8.2c1-1.2,2.9-2.1,5.1-2.4
				c2.3-0.3,4.6-0.1,6.3,0.8c3.8,1.9,3.6,5.4,3.4,8.3c0,0.2,0,0.4,0,0.6c-0.3,5.2-3.8,6.2-5.2,6.4
				C598.3,237.3,598,237.4,597.7,237.4 M591,231.3c1.9,3.3,5.2,4.8,7.3,4.5c2.1-0.3,3.3-2.1,3.5-5c0-0.2,0-0.4,0-0.6
				c0.2-2.7,0.4-5.6-2.5-7c-1.2-0.6-3-0.8-4.7-0.5c-1.7,0.3-3.1,0.9-3.8,1.7C588.8,226.9,590.3,230.1,591,231.3"/>
			<path class="st28" d="M634,334.8c1.3,2.9,2.7,5.7,4.2,8.5c0.7,1.2,1.4,2.5,2.9,3.3c1.8,1,4.3,1.1,6.6,1c4.5-0.2,10-1.4,10.8-4.6
				c0.8-3.1-3.4-5.6-7.2-7.1c-2.8-1.1-5.7-2.2-8.6-3.1c-2.1-0.7-4.6-1.3-6.8-0.6c-2.1,0.7-2.9,3.3-0.8,4"/>
			<path class="st12" d="M646.4,348.4c-2.1,0-4.2-0.2-5.9-1.2c-1.6-0.9-2.5-2.3-3.2-3.7c-1.3-2.4-2.5-4.8-3.7-7.3
				c-0.5-0.4-0.8-1-0.8-1.6c0-1.3,1.1-2.6,2.7-3.1c2.5-0.8,5.1-0.2,7.6,0.6c3,0.9,5.9,2,8.7,3.1c4,1.6,8.6,4.3,7.7,7.9
				c-0.9,3.6-6.7,5.1-11.8,5.2C647.3,348.4,646.9,348.4,646.4,348.4 M635.5,335.6c1.1,2.5,2.4,5,3.7,7.4c0.7,1.2,1.4,2.4,2.6,3
				c1.6,0.9,3.9,0.9,5.9,0.8c4.3-0.2,9.2-1.3,9.9-4c0.7-2.9-3.9-5.2-6.7-6.3c-2.8-1.1-5.6-2.1-8.5-3.1c-2.1-0.6-4.2-1.2-5.9-0.6
				c-0.9,0.3-1.4,1.1-1.4,1.7l0.1,0c0.1,0.3,0.3,0.6,0.4,0.9c0,0,0.1,0,0.2,0.1L635.5,335.6z"/>
			<path class="st28" d="M562.7,237.9c-0.5-2.6,0.4-5.2,0.9-7.8c0.5-2.6,0.6-5.4-1.2-7.7c-1.8-2.3-6.3-3.6-9.3-2.1
				c-2.9,1.4-3.1,4.4-2.5,6.9c0.8,3.3,4.1,7.2,8.6,6.4"/>
			<path class="st12" d="M561.7,238c-0.4-2.2,0.1-4.4,0.6-6.5c0.1-0.5,0.2-1.1,0.3-1.6c0.4-2.2,0.7-5-1.1-7.2
				c-0.9-1.1-2.6-2-4.3-2.3c-0.9-0.2-2.3-0.2-3.5,0.4c-2.9,1.4-2.4,4.8-2.1,6.2c0.5,1.9,1.9,4.3,4.2,5.4c1,0.5,2.1,0.6,3.1,0.4
				l0.5,1.5c-1.6,0.3-3.3,0.1-4.8-0.6c-3-1.4-4.6-4.3-5.1-6.4c-0.5-2.1-0.8-5.9,3-7.7c1.4-0.7,3.2-0.9,5.1-0.6
				c2.3,0.4,4.4,1.5,5.6,3c2.1,2.6,1.8,5.7,1.3,8.2c-0.1,0.5-0.2,1.1-0.4,1.6c-0.5,2.1-0.9,4.1-0.5,6L561.7,238z"/>
			<path class="st28" d="M505.2,283.5c-5.5-0.8-11.4,0.6-15.3,3.4c-2.8,2-4.2,5.9-0.8,7.4c1.4,0.7,3.3,0.6,5,0.5
				c5.9-0.3,12.9-1.1,15.2-5c-1.1-1.7-2.8-3.2-5-4.3"/>
			<path class="st12" d="M492.5,295.6c-1.3,0-2.7-0.1-4-0.7c-1.4-0.6-2.2-1.6-2.4-2.9c-0.3-1.9,0.9-4.2,3-5.7
				c4.2-3.1,10.4-4.4,16.2-3.6l-0.4,1.5c-5.1-0.7-10.7,0.5-14.4,3.2c-1.7,1.2-2.7,3.1-2.4,4.5c0.1,0.8,0.6,1.4,1.4,1.8
				c1.1,0.5,2.6,0.5,4.4,0.4c5.4-0.2,11.8-1,14.1-4.3c-1-1.5-2.5-2.7-4.4-3.7l1.2-1.2c2.3,1.2,4.1,2.8,5.3,4.6l0.2,0.3l-0.2,0.3
				c-2.5,4.3-9.9,5.2-16.1,5.5C493.6,295.6,493.1,295.6,492.5,295.6"/>
			<path class="st28" d="M592.1,253.5c-2.6,10.2-10.3,19.3-18.5,27.7c-9.6,10-21.7,20.2-38.3,21.9c-9.4,0.9-19.2-1.3-26.3-5.9
				c-7-4.6-11.1-11.5-10.9-18.3c0.2-4.3,2-8.5,4.2-12.6c6.4-11.4,16.8-21.9,31.1-28.6c14.3-6.7,32.5-9.3,48.8-5.6
				c5.1,1.2,10.4,3.3,12.5,6.9c4,7.2-3.7,15.6-7.1,23"/>
			<path class="st12" d="M531.1,304.1c-8.3,0-16.5-2.2-22.7-6.3c-7.3-4.7-11.5-11.8-11.2-18.9c0.2-5,2.5-9.7,4.3-12.8
				c7-12.5,17.9-22.5,31.5-28.9c15.3-7.2,33.8-9.3,49.6-5.7c6.8,1.6,11.3,4,13.1,7.3c2.9,5.1,0.2,10.6-2.9,16
				c-2.9,9.9-10.5,18.7-18.3,26.9c-9.6,10-21.8,20.5-39,22.2C534.1,304,532.6,304.1,531.1,304.1 M566.8,231.3
				c-11.1,0-22.6,2.5-32.7,7.2c-16.7,7.9-25.9,19.7-30.7,28.2c-1.7,3-3.9,7.6-4.1,12.3c-0.3,6.7,3.7,13.3,10.5,17.7
				c6.8,4.4,16.4,6.6,25.5,5.7c16.4-1.6,28.2-11.8,37.5-21.6c5.6-5.9,11.2-12.1,14.8-18.8l-0.9-0.2c0.9-1.8,2-3.7,3.1-5.7
				c0.3-0.6,0.7-1.2,1-1.8c0.1-0.3,0.2-0.7,0.3-1l0.3,0c2.7-4.9,4.9-9.8,2.4-14.1c-1.6-2.8-5.6-5-11.8-6.4
				C577.1,231.8,572,231.3,566.8,231.3"/>
			<path class="st28" d="M541.6,298.7c-3.8-0.5-7.7-1-11.5-0.4s-7.5,2.4-8.5,5c-1.1,2.7,1.4,6.1,5.2,6.3c1.9,0.1,3.7-0.5,5.4-1.1
				c2.5-0.9,5-1.7,7.5-2.6c2.1-0.7,4.5-1.7,5.2-3.3c0.7-1.6-1.8-3.8-3.8-2.9"/>
			<path class="st12" d="M527.2,310.4c-0.2,0-0.3,0-0.5,0c-1.9-0.1-3.7-0.9-4.9-2.2c-1.4-1.5-1.9-3.4-1.2-5.1
				c1.1-2.7,4.8-4.9,9.3-5.6c3.9-0.6,7.8-0.1,11.9,0.4l-0.2,0.8c0.9-0.1,1.8,0,2.6,0.5c1.3,0.7,2.3,2.2,1.7,3.5
				c-0.8,1.9-3.4,2.9-5.8,3.7l-7.5,2.6C531.1,309.7,529.2,310.4,527.2,310.4 M533.8,298.8c-1.2,0-2.3,0.1-3.5,0.2
				c-3.8,0.6-6.9,2.3-7.8,4.5c-0.5,1.2-0.1,2.7,0.9,3.8c0.9,0.9,2.1,1.5,3.4,1.5c1.7,0.1,3.4-0.5,4.9-1l7.5-2.6
				c2-0.7,4.1-1.5,4.7-2.8c0.3-0.7-0.3-1.5-1-1.9c-0.5-0.3-0.9-0.3-1.3-0.1l-0.8-1C538.4,299.1,536.1,298.8,533.8,298.8"/>
			<path class="st28" d="M689.8,258.9c-1-2.4-2.4-4.7-4.4-6.8c-7.9-8.6-18.1-9.3-30.6-8.2c-13.7,1.2-29.6-2.3-41.9-6.3
				c-5.5-1.8-10.7-4.2-16.7-5c-15.6-2.1-25.3,7.3-32.9,15.6c-14,15-25.7,31.2-29.1,49.4c-0.6,3.4-0.9,7,1.3,10c1.5,2,4,3.5,6.5,4.8
				c26.9,14.4,53,22.9,86,27.5c22.9,3.2,30-16.6,38.3-28.7c8.1-12,20.5-24.2,24.1-37.4C691.9,268.9,691.7,263.7,689.8,258.9"/>
			<path class="st12" d="M632.9,340.9c-1.6,0-3.3-0.1-5-0.4c-32.5-4.5-59.1-13.1-86.4-27.7c-2.6-1.4-5.2-3-6.8-5.1
				c-2.4-3.2-2.1-6.9-1.4-10.4c2.9-15.6,12.2-31.4,29.3-49.7c8.6-9.2,18.3-18,34-15.9c4.5,0.6,8.6,2.1,12.6,3.6
				c1.4,0.5,2.8,1,4.3,1.5c8.8,2.9,25.9,7.7,41.3,6.3c13.2-1.2,23.6-0.2,31.6,8.5c1.9,2.1,3.5,4.5,4.5,7.1c1.9,4.7,2.2,10,0.8,15.2
				c-2.6,9.4-9.5,18.3-16.2,26.9c-2.9,3.7-5.6,7.2-8,10.7c-1.3,1.9-2.6,4-3.9,6.3c-3.4,5.7-7.3,12.1-12.7,16.7
				C645.5,338.8,639.7,340.9,632.9,340.9 M592,233c-12.1,0-20.3,7.6-27.7,15.6c-16.9,18.1-26.1,33.7-28.9,49.1
				c-0.6,3.3-0.9,6.7,1.2,9.5c1.4,1.9,3.8,3.3,6.2,4.6c27,14.5,53.4,22.9,85.6,27.4c18.4,2.6,26.2-10.4,33.2-21.9
				c1.4-2.2,2.6-4.4,4-6.3c2.4-3.6,5.3-7.2,8.1-10.8c6.6-8.5,13.5-17.3,16-26.5c1.4-5,1.1-10-0.7-14.5c-1-2.4-2.4-4.7-4.2-6.6
				c-7.4-8.1-16.8-9-29.6-7.8c-15.9,1.4-33.4-3.4-42.4-6.4c-1.5-0.5-2.9-1-4.3-1.5c-3.9-1.4-7.9-2.9-12.1-3.4
				C594.7,233.1,593.3,233,592,233"/>
			<path class="st28" d="M696,250.9c-6.1,8-23.4,3-14.3-4.2C687.3,242.3,701.9,243.2,696,250.9"/>
			<path class="st12" d="M686.8,255.7c-0.2,0-0.5,0-0.7,0c-3.5-0.2-6.5-1.5-7.6-3.4c-0.6-1.1-1.1-3.3,2.4-6.1
				c3.7-2.9,11.2-3.8,15.2-1.8c1.3,0.7,4,2.7,0.8,6.9C694.8,254.1,691,255.7,686.8,255.7 M690.6,244.8c-2.8,0-6.1,0.8-8.2,2.4
				c-2.1,1.6-2.8,3.2-2,4.6c0.8,1.4,3,2.4,5.8,2.5c3.7,0.2,7-1.2,8.9-3.7c1.2-1.6,2.1-3.7-0.2-4.9
				C693.9,245.1,692.3,244.8,690.6,244.8"/>
		</g>
		<g class="st4">
			<defs>
				<rect id="SVGID_9_" x="0" y="0" width="690" height="500"/>
			</defs>
			<clipPath id="SVGID_10_">
				<use xlink:href="#SVGID_9_"  style="overflow:visible;"/>
			</clipPath>
			<path class="st30" d="M432.7,432.2c0-0.5,0-1,0-1.5c-0.2-3.8,0-7.5-1-11.3c-1.3-5-2.6-10.1-4.2-15.1c-2.5-7.5-5.2-15-8-22.5
				c-2.4-6.4-4.9-12.8-7.4-19.2c-0.7-1.7-1.3-3.4-2-5.1c-0.2-0.4-0.4-0.6-1-0.6c-2.3-0.2-4.7-0.3-7-0.5c-0.4,0-0.7-0.1-1.1-0.2
				c-1.1-0.2-1.6-0.7-1.6-1.6c0-0.5,0.1-1.1,0.1-1.6c0-0.3,0-0.6,0-1c-2.3-0.1-4.5-0.2-6.9-0.2c0.4,0.8,0.8,1.4,1.2,2.1
				c2.5,4.5,4.1,9.2,5.8,13.9c0.4,1.1,0.8,2.1,1.3,3.2c1.4,3.3,1.8,6.7,2,10c0.3,5.5,0.7,11,0.7,16.5c0,7.5-0.3,15-0.6,22.5
				c-0.2,3.6-0.7,7.2-1,10.7c-0.1,0.9,0.1,1.9,0.2,2.9c0,0.1,0.2,0.3,0.4,0.4c0.6,0.4,1.4,0.8,1.6,1.3c0.6,1,1.5,1.9,2.5,2.7
				c2.1,1.9,3.1,4.2,3.1,6.6c0,1.1-0.7,2-2.1,2.6c-8.3,3.9-16.6,7.8-25,11.7c-5.6,2.6-11.6,4.7-17.9,6.2c-2.9,0.7-5.8,0.9-8.7,0.1
				c-1.7-0.5-3.2-1.2-4.3-2.3c-1.4-1.2-1.5-2.6-0.4-4c1.6-2,3.7-3.7,6.1-5.2c3.8-2.3,7.4-4.7,10.7-7.3c1.9-1.5,3.9-2.9,5.7-4.4
				c0.9-0.8,1.6-1.7,2.3-2.6c0.8-1,0.7-2.1,0.2-3.1c-0.6-1.3-1.2-2.5-1.7-3.8c-0.4-1-0.2-2,0.8-2.8c0.7-0.5,1.6-0.9,2.6-1.3
				c1-0.3,2.1-0.5,3.2-0.7c0-0.3,0-0.8,0-1.2c-0.2-3.2-0.2-6.5-0.7-9.7c-0.5-3.3-1.6-6.6-2.4-9.9c-2.2-8.1-4.9-16.1-8-24
				c-2.9-7.6-5.8-15.2-8.8-22.8c-1.1-2.8-2.3-5.6-3.4-8.4c-0.2-0.4-0.5-0.6-1.1-0.6c-1.4-0.1-2.8-0.1-4.3-0.3
				c-1.5-0.1-1.9-0.5-1.8-1.6c0.4-2.9,0.8-5.8,1.3-8.7c0.5-3.2,1-6.5,2.3-9.6c1.6-4,4.1-7.7,8.3-10.7c4.3-3,9.5-4.6,15.3-5.4
				c0.2,0,0.5-0.1,0.8-0.1c-0.8-1.3-1.5-2.5-2.2-3.7c-9.4-15.7-18.8-31.4-28.3-47.2c-0.3-0.5-0.6-1-1-1.5c-0.5-0.8-0.1-1.4,1.2-1.4
				c4.8-0.2,9.6-0.5,14.3-0.7c11.5-0.5,23-1.1,34.5-1.6c0.6,0,0.9-0.2,1.1-0.6c3.7-4.6,7.4-9.1,11-13.7c3.8-4.8,7.8-9.5,11.5-14.4
				c2.6-3.4,4.9-6.9,7.5-10.3c1.6-2.2,3.5-4.3,5.3-6.3c1.6-1.8,4-2.5,6.9-2.6c5.1,0,10.2-0.1,15.2-0.2c1.6,0,3.2-0.3,5-0.5
				c-0.6-1-1.1-1.8-1.6-2.8c-1.4,1.1-2.6,2.3-4.7,2.3c-2,0-3.8-0.3-5.3-1.2c-1.5,0.8-3,1.6-4.9,1.8c-2.5,0.3-4.9,0-7.2-0.7
				c-1.3-0.4-2.2-1.2-2.9-2.1c-0.2-0.2-0.3-0.4-0.5-0.7c-0.2,0.1-0.5,0.2-0.7,0.3c-3.8,1.8-8.6,1-11.4-0.9c-2.2-1.5-3.2-3.4-3.6-5.5
				c-0.1-0.3-0.1-0.7-0.2-1c0,0-0.1-0.1-0.1-0.1c-7.3,0.5-11.6-2.3-11-7.2c-0.8-0.1-1.7-0.3-2.6-0.4c-2.2-0.4-4.1-1.1-5.5-2.5
				c-1.9-1.9-2.1-3.9-0.3-5.9c0.5-0.6,1.2-1.1,1.9-1.7c-0.4-0.2-0.9-0.5-1.3-0.8c-1.5-0.9-2.2-2.2-2-3.6c0.5-3.3,2.6-5.9,6.5-7.6
				c0.1-0.1,0.2-0.1,0.4-0.2c-0.3-0.3-0.6-0.7-0.8-1c-0.7-1.1-1.5-2.2-2-3.4c-0.7-1.7,0-2.7,2.2-3.4c0.5-0.2,1-0.3,1.4-0.4
				c-0.3-1-0.6-2-0.7-3c-0.3-3.3,1.7-6,4.7-8.3c0.5-0.4,1.1-0.8,1.7-1.1c1.6-1,3.5-1.6,5.6-1.7c0.5,0,0.8-0.1,0.9-0.5
				c0.6-2.3,2.6-3.6,5.5-4.2c0.9-0.2,1.8-0.4,2.6-0.5c2-0.3,3.9-0.1,5.6,0.7c0.3,0.1,0.6,0.3,1.1,0.5c1.6-3.9,5.3-6,10.6-6.7
				c5.1-0.7,9.8,0,13.6,2.8c1.8-0.9,3.7-1.4,5.8-1.1c2.9,0.4,5.3,1.4,7.2,3.1c0.5,0.5,1.1,0.9,1.5,1.4c0.3,0.3,0.7,0.4,1.1,0.1
				c0.7-0.3,1.4-0.6,2.1-0.9c3.6-1.2,7.3-0.7,10,1.4c2.4,1.9,3.6,4.2,4.5,6.6c0.1,0.4,0.3,0.6,0.8,0.8c1.8,0.5,2.7,1.6,2.9,2.9
				c0.1,0.9,0,1.8,0,2.7c0,0.2-0.1,0.5-0.1,0.7c1.5,0.1,3,0.2,4.4,0.3c2.6,0.3,4.5,1.3,5.8,3c1,1.4,0.7,2.7-0.8,3.8
				c-0.2,0.2-0.5,0.3-1,0.6c0.4,0.2,0.7,0.3,0.9,0.4c0.5,0.4,1,0.8,1.4,1.2c1.1,1.2,0.8,2.4-0.8,3.3c-0.7,0.4-1.4,0.7-2.1,1.1
				c-0.2,0.1-0.4,0.2-0.6,0.3c1,1,2,1.9,2.8,2.9c0.7,0.9,1.3,2,1.6,3c0.7,2.7-1.2,5.1-5.1,6.2c-1.7,0.5-3.5,0.8-5.3,1.2
				c-2.5,0.5-2.6,0.6-2.1,2.4c0.5,1.9,0.2,3.6-1.5,5.1c-0.2,0.2-0.3,0.4-0.5,0.6c-1.2,1.8-3.1,2.9-6,3.2c0.1,0.8,0.2,1.6,0.5,2.4
				c0.6,2.1,1.1,4.2,1.7,6.2c0.6,2,2.3,3.3,4.5,4.4c3.4,1.7,7.3,2.2,11.2,2.4c2.3,0.1,4.6,0.1,6.9,0.2c3.2,0.1,6.2,0.6,8.5,2.4
				c1.7,1.4,3.1,3,3.9,4.8c1.4,2.9,2.5,5.9,3.9,8.8c1.1,2.4,2.3,4.8,3.5,7.2c3.1,6.5,6.7,12.8,10.8,19c2.4,3.6,4.9,7.1,7.4,10.7
				c1.2,1.7,2.2,3.5,3.3,5.3c1,1.5,2.3,3,3.2,4.5c1.3,2.3,2.5,4.6,3.6,6.9c0.5,1,0.6,2.1,0.7,3.1c0.2,1.9-0.9,3.4-3,4.5
				c-2.8,1.6-6,2.8-9.2,4c-7.5,2.9-15.4,5.2-23.2,7.7c-2.6,0.8-5.1,1.6-7.7,2.4c-0.5,0.2-1,0.4-1.4,0.7c-2.8,2.4-5.6,4.8-8.4,7.2
				c-0.2,0.2-0.3,0.5-0.3,0.8c0.4,3.1,0.9,6.3,0.5,9.4c-0.2,1.7-0.5,3.5-1.1,5.2c-1.8,4.7-5.9,7.6-12.7,8.3
				c-5.5,0.6-11,0.7-16.5,0.7c-3.3,0-6.7,0.2-10,0.1c-2.7-0.1-4.5,0.9-6,2.3c-0.2,0.2-0.2,0.5-0.3,0.7c-0.3,1.2-1.3,1.5-2.7,0.9
				c-0.7-0.3-1.4-0.6-2.1-0.9c0,0.4,0.1,0.8,0,1.1c-0.1,0.4-0.3,0.7-0.5,1.1c-0.1,0.1-0.2,0.3-0.2,0.4c-1.4,3.8-2.7,7.7-3.3,11.6
				c-0.2,1.6-0.3,3.2-0.4,4.8c-0.1,1.2-0.4,1.4-2,1.4c-0.3,0-0.5,0-0.9,0c0.5,1,1.1,2,1.4,2.9c1.5,3.7,2.9,7.3,4.4,11
				c0.6,1.5,1.4,3.1,1.8,4.6c0.6,2.4,1.2,4.8,1.3,7.2c0.4,6.2,0.7,12.4,0.8,18.6c0.2,9.9-0.3,19.7-1.3,29.6
				c-0.2,1.9-0.5,3.8-0.2,5.7c0.1,0.3,0.2,0.5,0.6,0.7c0.6,0.3,1.3,0.7,1.5,1.2c0.6,1.1,1.6,1.9,2.5,2.8c2,1.9,3.1,4.1,3,6.5
				c0,1.1-0.7,2.1-2.1,2.7c-8.9,4.2-17.8,8.4-26.8,12.4c-5,2.3-10.4,4.1-16.1,5.4c-2.8,0.7-5.7,0.9-8.6,0.1
				c-1.7-0.5-3.2-1.2-4.4-2.2c-1.4-1.3-1.5-2.6-0.4-4.1c1.7-2.1,3.8-3.8,6.4-5.3c4.6-2.7,8.5-5.9,12.8-8.8c2.1-1.5,3.8-3.2,5.3-5
				c1-1.2,1-2.3,0.4-3.5c-0.6-1.3-1.2-2.5-1.7-3.8c-0.3-0.9-0.2-1.8,0.6-2.5c0.3-0.3,0.6-0.5,1-0.7
				C429.2,432.8,430.8,432.3,432.7,432.2 M488.4,322.3c-2.7-22-5.4-43.9-8.1-65.8c-43.5,2.1-86.8,4.1-130.3,6.2
				c0.1,0.3,0.2,0.4,0.3,0.5c1.5,2.6,3.1,5.1,4.6,7.7c6.8,11.3,13.5,22.6,20.3,33.9c4.2,7,8.4,14,12.6,21c0.3,0.5,0.6,0.6,1.3,0.6
				c2-0.1,4-0.2,6-0.3c15.8-0.6,31.6-1.3,47.5-1.9c14.8-0.6,29.6-1.2,44.4-1.8C487.4,322.3,487.8,322.3,488.4,322.3 M415.1,182.3
				c-0.7,0.3-1.1,0.5-1.7,0.7c-0.6,0.2-1.1,0.2-1.5-0.3c-0.3-0.4,0.1-0.7,0.5-1c1-0.6,2-1.2,2.8-1.9c1.6-1.4,2.4-3,2.9-4.7
				c0.5-1.5,1.8-2.5,4.1-2.8c0.5,0,1-0.1,1.4-0.2c4.6-0.7,8-2.4,8.9-6c0.7-2.9,3.5-4.4,7-5.5c0.5-0.2,1-0.1,1.3,0.2
				c0.5,0.4,1,0.7,1.4,1.2c0.8,0.8,1.8,1.1,3.1,1.1c3.2,0,6.2-0.7,8.6-2.3c1.1-0.8,2.4-0.8,3.6-0.3c0.9,0.3,1.7,0.8,2.5,1.3
				c1.7,1,3.6,1.5,5.6,1.2c2.3-0.3,4.5-0.7,6.7-1.2c1-0.2,1.8-0.8,2.7-1.2c0.5-0.2,0.9-0.5,1.4-0.6c1.5-0.5,3-0.3,4.5-0.3
				c3.3,0.1,6.2,1.1,8.3,3c3,2.8,3.3,5.9,1.8,9.1c-1.1,2.3-3.2,3.9-6.6,4.2c-0.1,0-0.1,0-0.3,0.1c0.1,0.7,0.3,1.5,0.3,2.2
				c0.2,2.9-0.8,5.6-2.3,8.3c-0.2,0.3-0.3,0.7-0.3,1.1c0.1,1.1,0.3,2.3,0.4,3.4c0.1,1,0.3,2,0.4,3c0.3-0.1,0.5-0.1,0.7-0.2
				c1.4-0.4,2.5-1,3.2-1.9c2.6-3.2,3-2.6,2-6.3c-0.3-0.9,0.5-1.9,1.7-2.3c0.8-0.3,1.7-0.4,2.5-0.6c1.6-0.4,3.3-0.7,4.9-1.2
				c3.5-1.2,4.6-3.2,3.3-5.8c-0.7-1.5-2-2.7-3.4-3.8c-1.3-1-1.2-1.6,0.3-2.4c0.8-0.5,1.7-0.9,2.6-1.3c0.8-0.4,0.9-0.8,0.3-1.4
				c-0.5-0.5-1.2-0.9-1.8-1.3c-0.8-0.6-0.9-1.1-0.2-1.7c0.4-0.3,0.8-0.6,1.1-0.8c0.8-0.6,0.9-1.3,0.4-2c-0.7-1.2-2-2-3.7-2.3
				c-1.6-0.2-3.2-0.3-4.9-0.4c-1.8-0.1-2.1-0.4-1.9-1.6c0.1-1,0.2-2.1,0.1-3.1c-0.1-0.8-0.8-1.5-2-1.7c-1-0.2-1.4-0.6-1.6-1.3
				c-0.7-2.3-1.9-4.4-4.1-6.2c-2.2-1.8-5.1-2.2-8-1.1c-0.7,0.3-1.3,0.6-2,0.9c-1.1,0.5-2.1,0.4-3-0.3c-0.5-0.4-0.9-0.8-1.4-1.2
				c-1.4-1.3-3.1-2.3-5.3-2.8c-2-0.5-3.8-0.3-5.5,0.6c-1.3,0.7-1.8,0.6-2.8-0.2c-1.5-1.2-3.3-1.9-5.4-2.3c-2-0.3-4-0.4-6-0.1
				c-4.7,0.6-8,2.3-9.3,5.8c-0.1,0.2-0.1,0.4-0.2,0.6c-0.4,0.8-1.1,1-2.1,0.6c-0.3-0.2-0.7-0.3-1-0.5c-1.7-0.9-3.6-1.2-5.6-0.7
				c-0.7,0.1-1.4,0.3-2.1,0.5c-2.1,0.5-3.4,1.5-3.8,3.1c-0.3,1.2-0.9,1.5-2.6,1.6c-1.4,0.1-2.7,0.4-3.8,1c-3,1.6-5.1,3.7-6.1,6.3
				c-0.6,1.8-0.4,3.5,0.7,5.2c0.4,0.6,0.2,1-0.7,1.3c-0.7,0.2-1.3,0.4-2,0.6c-1.5,0.5-1.8,0.9-1.2,2c0.7,1.3,1.6,2.6,2.5,3.8
				c0.7,1,0.6,1.5-0.7,2.1c-0.2,0.1-0.4,0.2-0.6,0.3c-2.8,1.2-4.4,3.1-5.1,5.4c-0.6,2,0,2.9,2.4,4c1.4,0.7,1.5,1.2,0.3,2.2
				c-0.8,0.6-1.5,1.3-2.1,2c-1,1.1-0.9,2.3,0.1,3.5c1.8,2,4.6,2.6,7.6,2.7c1.6,0.1,2,0.4,1.4,1.5c-0.7,1.2-0.6,2.4,0.5,3.5
				c1,1,2.3,1.8,4,2.2c1.4,0.4,2.9,0.4,4.3-0.2c1.4-0.6,2.1-0.3,2.2,0.9c0,1.8,0.4,3.5,1.7,5c2.1,2.6,7.3,4,11.2,1.7
				c0.3-0.2,0.8-0.3,1-0.4c1.1,1,2.1,1.9,3.2,2.7c0.2,0.2,0.6,0.4,0.9,0.4c3,0.8,6,1.2,8.9-0.2c0.5-0.2,0.8-0.5,0.8-0.9
				c0.1-0.8,1-1,1.9-0.5c0.2,0.1,0.4,0.2,0.5,0.4c1.1,0.9,2.5,1.4,4.1,1.4c0.6,0,1.2-0.1,1.7-0.3c0.8-0.4,1.4-1,2-1.5
				c0.1-0.1,0.1-0.4,0-0.5c-0.8-0.6-1.6-1-2.9-0.9c-7.4,0.6-13.9-0.9-19.9-4.1c-7.1-3.7-12.4-8.5-16.4-14.1
				C417.5,185.2,416.3,183.8,415.1,182.3 M496.7,245.1c1.2-0.5,2,0.1,2.8,0.5c0.9,0.4,1.7,0.8,2.5,1.3c0-0.1,0-0.2,0-0.3
				c0-0.2,0.1-0.5,0.2-0.7c0.2,0.2,0.6,0.3,0.7,0.5c0.6,0.8,1.1,1.6,1.6,2.3c2.1,2.8,4,5.7,6.2,8.4c3.7,4.4,7.6,8.7,11.4,13.1
				c1.9,2.2,3.6,4.4,5.4,6.6c0.2,0.3,0.4,0.3,0.8,0.2c1-0.2,2.1-0.6,3.2-0.6c2.2-0.1,4.5-0.1,6.7-0.1c0.5,0,1.1,0.1,1,0.5
				c-0.1,0.2-0.6,0.5-0.9,0.6c-0.9,0.1-1.9,0.2-2.8,0.2c-5.6,0.2-10.5,1.6-14.7,4.3c-3,2-5.9,4.1-9,6.1c-3.4,2.1-6.8,4.2-10.4,6.1
				c-4,2.1-8.4,3.7-13.1,5c-0.4,0.1-0.5,0.2-0.5,0.6c0.3,2.5,0.7,4.9,1,7.4c0,0.3,0.1,0.5,0.1,0.8c0.3-0.1,0.5-0.1,0.6-0.1
				c2.3-0.6,4.5-1.3,6.7-1.9c6.9-2.1,13.8-4.2,20.7-6.3c8.4-2.6,16.8-5.3,25.2-8c3.6-1.2,7.1-2.4,10.1-4.3c1.5-1,2.3-2,2.1-3.4
				c-0.1-0.8-0.2-1.6-0.5-2.3c-1.2-2.5-2.4-5.1-3.8-7.5c-1.3-2.2-3.1-4.4-4.6-6.5c-0.5-0.7-1-1.5-1.5-2.3c-2.2-3.2-4.5-6.4-6.6-9.6
				c-3.4-5.5-6.8-11-10-16.6c-2.1-3.8-3.9-7.8-5.6-11.8c-1.3-3-2.3-6-4-8.9c-1.7-2.8-4.3-4.5-8.6-5c-2.5-0.3-5-0.4-7.4-0.5
				c-0.9,0-1.9-0.1-2.9-0.2C495.6,223.2,495,234.1,496.7,245.1 M490.8,210.9c-0.1,0.1-0.1,0.2-0.2,0.3c-2.1,3.6-4.6,7-7.4,10.3
				c-1.7,2-3.6,3.9-6,5.6c-3.6,2.5-7.7,3.6-12.6,2.7c-4.7-0.8-8-3.1-10.3-6.1c-1.8-2.5-2.7-5.1-3.3-7.9c-0.2-1.1-0.3-2.2-0.4-3.3
				h-9.3c0,0.4-0.1,0.7-0.1,1c0,0.3,0,0.7-0.1,1c-0.9,7.3-2.8,14.4-5.2,21.5c-0.4,1.1-0.9,2.3-1,3.4c-0.3,5.6-0.5,11.3-0.7,16.9
				c0,0.2,0,0.4,0,0.7c9.9-0.5,19.8-0.9,29.6-1.4c-0.2-0.2-0.4-0.3-0.6-0.4c-2.4-0.7-4.9-1.3-7.3-1.9c-2.3-0.6-4.6-1-6.7-2
				c-2.3-1.1-3.3-2.7-2.7-4.7c0.5-1.9,2-3.4,4-4.6c2.7-1.6,5.9-2.7,9.1-3.6c1.5-0.4,3.1-0.8,4.6-1.2c1.4-0.4,3.2-0.3,4.4-1.1
				c2.1-0.1,4-0.6,6-1c2.1-0.4,3.2,0.3,3.5,1.8c0.2,1.1,0.3,2.1,0.4,3.2c0.1,1.2-0.4,1.6-2.1,1.5c-4.6-0.3-9.1,0.3-13.4,1.4
				c-1.3,0.3-2.5,0.8-3.7,1.3c-1.2,0.6-1,1.6,0.3,2c0.6,0.2,1.2,0.3,1.8,0.4c3.8,0.7,7.7,1.3,11.5,2c3.7,0.7,7.1,1.6,10.2,3.3
				c4,2.2,5.3,5.1,3.5,8.3c-0.6,1.1-1.7,2.1-2.7,3.1c-0.4,0.4-0.6,0.8-0.6,1.3c0.3,2.5,0.6,5.1,1,7.6c1,8.1,2,16.1,3,24.2
				c0,0.2,0.1,0.4,0.1,0.7c0.2,0,0.3,0,0.4-0.1c4.2-1.3,8.2-2.8,12-4.7c0.3-0.2,0.6-0.5,0.7-0.8c0.6-1.5,1.2-3,1.8-4.6
				c1.7-4.7,2.9-9.4,3.7-14.2c0.1-0.3,0-0.6-0.5-0.8c-1.9-0.8-3.5-1.9-5-3.1c-4.9-4-7.8-8.6-9.2-13.8c-1.4-4.9-1.7-9.9-1.6-15
				c0-6.6,0.5-13.3,1.3-19.9c0.3-2.7,0.7-5.4,1.2-8.1c0.2-1.3,0.3-1.3-1.4-1.6C491,210.9,490.9,210.9,490.8,210.9 M360.2,351.5
				c0.9,2.6,1.8,5.2,2.8,7.7c1.7,4.1,3.5,8.2,5.2,12.4c2.6,6.5,5.3,13,7.6,19.6c2.3,6.6,4.2,13.4,6.2,20.1c0.7,2.5,1.5,5,1.1,7.5
				c0,0.2,0,0.5,0.1,0.7c0.1,2.7,0.2,5.5,0.2,8.2c0,0.6,0.1,0.8,0.9,1c3.8,1,6.3,2.8,6.4,5.9c0,0.1,0.2,0.4,0.4,0.4
				c1.6,0.3,3.1,0.5,4.7,0.8c0.2,0,0.4,0,0.6-0.1c0.6-0.3,1.2-0.7,1.7-1c0.1-0.1,0.3-0.3,0.3-0.4c0.4-2.2,1.1-4.5,1.3-6.7
				c0.5-5.2,0.9-10.3,1.1-15.5c0.5-10.2,0.3-20.4-0.5-30.6c-0.2-2.8-0.5-5.6-1.4-8.3c-2.5-6.9-4.8-13.9-8.5-20.6
				c-0.3-0.5-0.6-0.7-1.3-0.7c-9.4-0.1-18.9-0.2-28.3-0.4C360.5,351.4,360.4,351.5,360.2,351.5 M412.3,357.2
				c0.7,2.1,1.3,4.1,2.1,6.1c1.6,3.9,3.3,7.8,4.9,11.8c3.6,8.9,7.2,17.7,10.1,26.7c1.5,4.8,2.9,9.6,4.2,14.5
				c0.5,1.9,1.2,3.8,0.9,5.8c-0.1,0.5,0,1.1,0,1.6c0.1,2.7,0.2,5.3,0.2,8c0,0.6,0.2,0.8,0.9,1.1c3.7,1,6.2,2.9,6.4,5.9
				c0,0.2,0.3,0.4,0.6,0.4c1.5,0.3,3,0.5,4.5,0.7c0.2,0,0.5,0,0.7-0.1c0.6-0.3,1.2-0.7,1.7-1c0.1-0.1,0.2-0.2,0.3-0.3
				c0.4-2.2,1-4.4,1.3-6.7c1-8.3,1.3-16.5,1.3-24.8c0-5.3-0.1-10.6-0.4-15.8c-0.2-4-0.6-8-1.2-11.9c-0.3-2-1.3-4-2-5.9
				c-1.8-4.8-3.4-9.6-5.9-14.3c-0.6-1-0.2-0.9-1.7-0.9c-8.3,0-16.5-0.1-24.7-0.7C415.1,357.3,413.7,357.3,412.3,357.2 M429.2,172.2
				C429.2,172.2,429.2,172.3,429.2,172.2c0.3,0,0.6,0,0.8-0.1c2.5-0.5,5.1-0.7,7.8-0.6c2,0.1,2.5,0.9,1.4,2.1
				c-0.4,0.5-1,0.8-1.7,0.8c-0.7,0-1.3,0.1-2,0.2c-3.9,0.4-7.5,1.2-10.7,2.9c-0.6,0.3-1.1,0.7-1.8,1c-0.3,0.1-0.9,0.2-1.2,0
				c-0.5-0.2-0.5-0.6-0.3-0.9c0.4-0.6,0.7-1.1,1.1-1.7c0.6-0.9,1.6-1.7,2.8-2.3c0.2-0.1,0.3-0.2,0.6-0.3c-1.2,0.1-2.2,0.3-3.3,0.4
				c-1.5,0.2-2.4,0.7-2.6,1.8c-0.4,2.1-1.6,3.9-3.4,5.5c-0.3,0.3-0.3,0.4,0,0.7c1.2,1.2,2.4,2.4,3.4,3.8c3.4,4.5,7.6,8.6,12.9,12
				c4.1,2.6,8.5,4.7,13.9,5.5c5.7,0.8,11,0.4,16-1.9c9.2-4.2,15.1-10.3,18.6-17.6c1.5-3.2,1.3-6.5-0.6-9.7c-2-3.3-3.8-6.5-5.7-9.8
				c-0.2-0.3-0.3-0.7-0.5-0.9c-2.1,0.4-4.1,0.9-6.2,1.3c-0.3,0.1-0.5,0.2-0.7,0.4c-0.5,0.6-1.2,1-2.2,1.1c-0.9,0.1-1.8,0.2-2.6,0.2
				c-4.5,0.5-8.4,1.8-11.7,4c-1.1,0.7-1.1,0.8-2.4,0.2c-0.1,0-0.2-0.1-0.3-0.1c-0.8-0.4-1-1-0.6-1.6c0.2-0.3,0.5-0.6,0.7-0.8
				c1.5-1.5,3.4-2.6,5.7-3.5c1.3-0.5,2.7-0.9,4.1-1.3c-0.5-0.3-0.9-0.5-1.4-0.8c-0.9-0.4-1.2-0.4-2.1,0.1c-3,1.8-6.4,2.5-10.2,2.4
				c-1.7-0.1-3.1-0.6-4-1.7c-0.3-0.4-0.7-0.7-1-1.1c-3.2,1.1-4.7,2.5-5.5,5c-0.5,1.7-1.5,3.2-3.3,4.3
				C430.5,171.5,429.8,171.8,429.2,172.2 M403.5,327.5c-0.2,0-0.5,0-0.8,0c-4.6,0.2-9.2,0.4-13.9,0.6c-1.8,0.1-2.3-0.2-3-1.3
				c-2-3.3-3.9-6.6-5.9-9.9c-0.2-0.4-0.5-0.6-1.1-0.4c-1,0.2-2,0.3-3.1,0.5c-5.5,1.1-10.2,3.1-13.8,6.4c-4.3,4-6.1,8.8-7.1,13.7
				c-0.1,0.3,0.1,0.4,0.5,0.5c1.4,0.3,2.7,0.5,4,0.8c11.9,2.3,23.8,4.5,36.1,5.4c1.6,0.1,3.2,0.2,4.7,0.3
				C401.4,338.5,402.5,333,403.5,327.5 M455.7,337.6c0.1-0.7,0.1-1.3,0.1-1.8c0-0.2-0.1-0.5-0.3-0.7c-2.5-2.8-5-5.5-7.5-8.3
				c-0.1-0.1-0.3-0.3-0.4-0.4c0,0.2,0.1,0.4,0.2,0.6c1.3,1.9,2.6,3.9,3.9,5.8c0.2,0.3,0.5,0.7,0.6,1c0.3,0.8-0.2,1.2-1.3,1.1
				c-0.4,0-0.9-0.1-1.3-0.2c-3.2-0.8-6.3-1.7-9.4-2.6c-1-0.3-1.9-0.7-2.8-1c0-0.1,0.1-0.1,0.1-0.2c4.7,0.5,8.8,2.2,13.6,3.1
				c-0.2-0.4-0.4-0.7-0.6-0.9c-1.4-2-2.7-4-4.1-6c-0.9-1.4-0.9-1.4-3-1.3c-0.4,0-0.8,0-1.1,0c-12.1,0.5-24.2,1-36.3,1.5
				c-0.6,0-0.9,0.2-0.9,0.6c-0.6,3.2-1.2,6.5-1.7,9.7c-0.2,1.3-0.4,2.7-0.6,4c0.4,0,0.7,0.1,1,0.1c1.9,0.2,3.8,0.3,5.7,0.5
				c8.5,1,17,2.1,25.4,3.1c3.8,0.5,7.7,0.7,11.5,1.1c0.8,0.1,1.2,0,1.3-0.7c0.5-1.8,1.2-3.6,1.8-5.4c0.4-1.2,0.8-2.4,1.2-3.6
				c0.2-0.5,0.7-0.8,1.5-0.7c0.4,0.1,0.8,0.2,1.2,0.4C454.2,336.9,454.9,337.2,455.7,337.6 M434.9,215.3c0,0-0.1,0-0.1-0.1
				c-0.1,0.2-0.3,0.3-0.4,0.5c-1.3,1.6-2.7,3.2-3.9,4.8c-4.6,6.4-9.2,12.8-14.4,19c-5.2,6.2-10,12.5-15,18.8
				c-0.1,0.1-0.1,0.2-0.1,0.3c0.2,0,0.3,0,0.5,0c6.5-0.3,13.1-0.6,19.6-0.9c0.4,0,0.9-0.2,1.1-0.4c2.8-2.3,5.5-4.6,8.2-6.9
				c0.5-0.4,0.9-0.9,1.5-1.2c0.4-0.2,0.5-0.4,0.5-0.7c0.1-1.6,0.1-3.3,0.3-4.9c0.4-5.3,0.8-10.7,1.3-16
				C434.1,223.4,434.5,219.4,434.9,215.3 M480.6,189.3c-5.2,6.9-12,12.3-22.3,15.1c2,1.2,3.2,2.6,4.1,4.2c0.2,0.4,0.6,0.8,0.9,1.2
				c0.1,0.1,0.1,0.2,0.1,0.3c0,0.4,0,0.8,0.1,1.2c0,0.5,0.2,1,0.2,1.4c0,0.2-0.4,0.5-0.6,0.6c-0.3,0-0.8-0.1-1-0.3
				c-0.2-0.2-0.3-0.5-0.3-0.8c-0.1-0.3-0.2-0.6-0.2-1c-1.8,0.3-3.5,0.6-5.3,0.9c0,2.9,0.4,5.8,2.6,8.3c2.9,3.3,7.6,4.3,12.5,2.6
				c2.3-0.8,4.2-2,5.9-3.4c3.9-3.2,6.8-6.8,9.4-10.6c0.2-0.3,0.1-0.5-0.2-0.7c-1.5-1.1-2.7-2.4-3.1-4c-0.8-3-1.4-6.1-2-9.1
				C480.8,193.4,480.8,191.5,480.6,189.3 M501.5,312.6c-0.9,0.9-1.8,1.7-2.6,2.6c-2.6,2.7-5.2,5.3-7.2,8.2c-0.2,0.3-0.7,0.5-1.1,0.5
				c-0.9,0.1-1.8,0-2.7,0c-12.5,0.5-25,1-37.5,1.5c-0.5,0-1,0.1-1.8,0.1c2.7,3.1,5.3,6,7.9,8.9c0.6-0.2,1.1-0.5,1.7-0.5
				c2.1-0.3,4.2-0.6,6.3-0.7c4.4-0.1,8.7-0.1,13.1-0.1c4.2,0,8.4-0.2,12.5-0.7c2.4-0.3,4.8-0.7,6.7-2c2.2-1.5,3.7-3.2,4.3-5.4
				C502.3,321,502.2,316.8,501.5,312.6 M447.1,348.1c-0.2,0-0.4-0.1-0.6-0.1c-7.4-0.4-14.7-1.3-22.1-2.1c-6.1-0.7-12.1-1.5-18.2-2.2
				c-1.2-0.1-2.3-0.2-3.5-0.3c-0.1,0.4-0.1,0.7-0.1,1c-0.3,3.2-0.6,6.4-0.8,9.6c-0.1,0.8-0.1,0.9,1,0.9c7.7,0.5,15.5,1.1,23.2,1.4
				c6.5,0.3,13,0.2,19.5,0.3c0.2,0,0.4,0,0.5,0C446.3,353.7,446.7,350.9,447.1,348.1 M400.1,435.9c-0.9,1.1-2.2,1.6-3.8,1.6
				c-0.7,0-1.4,0-2.1-0.1c-1.3-0.2-2.5-0.4-3.7-0.6c-0.5,1-0.9,1.9-1.5,2.8c-1.2,1.9-2.5,3.7-3.9,5.5c-1.6,2.1-3.2,4.1-5.3,5.9
				c-0.7,0.6-1.5,0.9-2.5,0.8c-1.2-0.1-2.3-0.3-3.4-0.6c-1.7-0.5-3.2-1.1-4.9-1.7c-0.3-0.1-0.7-0.1-0.9,0c-1,0.7-1.9,1.4-2.8,2
				c1.3,0.5,2.7,0.9,3.9,1.4c3.3,1.4,6,3.4,8.6,5.5c0.3,0.3,0.5,0.3,0.9,0.1c2.2-1,4.4-1.8,6.5-2.8c7-3.3,13.9-6.5,20.8-9.8
				c0.7-0.3,1.1-0.7,1.1-1.3c0-0.4,0-0.8-0.1-1.2C406.4,440.1,403.2,438.1,400.1,435.9 M416.7,455.8c0.3,0.1,0.5,0.2,0.7,0.2
				c1.4,0.5,2.9,1,4.2,1.7c2.9,1.3,5.3,3.1,7.5,5c0.3,0.2,0.5,0.3,0.9,0.1c2.2-1,4.4-1.9,6.6-2.9c6.8-3.2,13.6-6.5,20.5-9.7
				c1.1-0.5,1.5-1.1,1.4-2c-0.2-1.5-0.8-3-2-4.2c-1-0.9-2.1-1.8-3.2-2.7c-0.5-0.4-1.1-0.8-1.7-1.2c-0.6,0.7-1.3,1.3-2.3,1.4
				c-1.1,0.1-2.3,0.2-3.5,0.1c-1.3-0.1-2.6-0.4-3.8-0.6c-0.5,0.9-0.8,1.8-1.4,2.7c-1.3,1.9-2.6,3.8-4.1,5.7c-1.6,2-3.5,3.9-5.3,5.9
				c-0.6,0.6-1.5,0.9-2.5,0.8c-1.2-0.1-2.4-0.3-3.5-0.6c-1.7-0.5-3.2-1.1-4.9-1.7c-0.2-0.1-0.7-0.1-0.9,0
				C418.6,454.4,417.7,455.1,416.7,455.8 M400.3,345.2c-15.7-0.2-30.7-3.2-45.7-6.1c-0.1,0.2-0.1,0.3-0.1,0.4
				c-0.4,2.9-0.9,5.8-1.3,8.7c-0.2,1.3-0.2,1.3,1.7,1.4c4.2,0.1,8.4,0.3,12.6,0.3c9.9,0.1,19.9,0.2,29.8,0.7c0.8,0,1.6,0.1,2.5,0.2
				C399.9,349,400.1,347.1,400.3,345.2 M525.8,277.6c-5.6-6.5-11.1-13-16.6-19.4c0.2,11.1-1.5,21.9-5.7,32.5c0.8-0.4,1.4-0.7,2-1.1
				c3.7-2.4,7.5-4.9,11.2-7.3C519.5,280.5,522.3,278.8,525.8,277.6 M483.3,261.8c0.1,0,0.2,0,0.3,0.1c0.5-0.6,1-1.3,1.4-1.9
				c1.3-2.3,0.6-4.4-1.9-6c-1.5-1-3.2-1.7-5-2.2c-3.6-1.1-7.5-1.6-11.3-2.3c-2.7-0.5-5.4-0.9-7.9-1.6c-2.7-0.7-3-3.3-0.6-4.5
				c1-0.5,2.1-1,3.2-1.3c4.5-1.3,9.2-2.1,14.1-1.9c0.3,0,0.6,0,1.1,0c-0.1-1-0.2-2-0.4-3c-0.1-0.5-0.5-0.7-1.2-0.6
				c-0.7,0.1-1.3,0.3-2,0.4c-3.3,0.3-6.6,1-9.7,1.9c-3.7,1-7.3,2.1-10.6,3.8c-1.8,0.9-3.3,2-4,3.6c-0.9,1.9-0.2,3.4,2.3,4.3
				c1.3,0.5,2.7,0.8,4,1.2c3.2,0.9,6.6,1.5,9.7,2.6c2.7,1,5.3,1.2,8.2,1c2.6-0.2,5.3-0.3,7.9-0.4c1.2-0.1,1.7,0.2,1.8,1.1
				c0,0.3,0.1,0.5,0.1,0.8C482.8,258.4,483,260.1,483.3,261.8 M494,211.7c0,0.2-0.1,0.4-0.1,0.5c-0.3,3.4-0.7,6.7-1,10.1
				c-0.7,8.4-1.4,16.9-0.6,25.4c0.3,3.8,1.1,7.5,2.7,11.1c2,4.3,5.1,8.1,9.9,11.1c0.5,0.3,1,0.5,1.6,0.9c0.1-0.2,0.1-0.3,0.1-0.4
				c0.3-2.9,0.5-5.8,0.8-8.8c0-0.2-0.3-0.5-0.6-0.6c-3.1-1.4-5.7-3.1-7.6-5.3c-1.8-2.2-2.9-4.5-3.7-7c-1.3-4.1-1.7-8.4-1.8-12.6
				c-0.2-6.9,0.4-13.8,2.1-20.6c0.3-1.1,0.6-2.2,0.8-3.3C495.7,212,494.9,211.8,494,211.7 M421.4,452.3c0.6,0.2,1.1,0.4,1.6,0.5
				c1.5,0.4,3,0.9,4.5,1.3c1.1,0.3,2,0,2.6-0.7c1.8-2.1,3.6-4.2,5.4-6.4c0.9-1.1,1.5-2.4,2.5-3.5c0.7-0.8,1.3-1.7,1.5-2.6
				c0.3-1.1,0.4-2.3-0.1-3.4c-0.9-1.9-3.1-2.8-5.7-3.2c-1.3-0.2-2.6-0.3-3.9,0.3c-1.3,0.6-1.8,1.4-1.3,2.4c0.3,0.7,0.8,1.5,1.2,2.2
				c1.1,1.6,1.2,3.2,0.5,4.9c-0.9,2-2.8,3.6-4.7,5.2C424.3,450.3,422.8,451.2,421.4,452.3 M369.9,448.2c2,0.6,3.8,1.2,5.7,1.7
				c1.7,0.4,2.2,0.3,3.1-0.8c1.8-2.1,3.6-4.2,5.4-6.4c0.9-1.1,1.4-2.3,2.4-3.4c0.9-1,1.5-2,1.6-3.2c0.1-1,0.1-2-0.3-2.9
				c-0.8-1.9-3.1-2.8-5.6-3.2c-1.3-0.2-2.6-0.3-3.9,0.3c-1.3,0.6-1.7,1.3-1.3,2.4c0.3,0.8,0.8,1.5,1.3,2.2c1.1,1.6,1.3,3.2,0.5,4.9
				c-1,2.1-3,3.8-5,5.4C372.6,446.3,371.3,447.1,369.9,448.2 M427.5,463.9c-0.1-0.2-0.1-0.2-0.1-0.2c-3.3-2.8-6.9-5.2-11.7-6.7
				c-0.3-0.1-0.7,0-1,0.1c-1.3,0.7-2.5,1.5-3.7,2.3c-2.2,1.4-4.2,2.9-5.8,4.7c-0.9,1-0.8,1.5,0.4,2.4c2.3,1.7,5.1,2.1,8.2,1.5
				c2.8-0.6,5.6-1.4,8.3-2.2C424,465.2,425.7,464.5,427.5,463.9 M376.1,459.6c-3.4-2.9-7.1-5.4-11.9-6.8c-0.3-0.1-0.7,0-1,0.1
				c-1.5,0.9-3,1.8-4.5,2.8c-1.9,1.2-3.6,2.6-4.9,4.1c-0.9,1.1-0.9,1.7,0.5,2.6c2.3,1.6,5,1.9,8,1.4c3.3-0.5,6.4-1.6,9.4-2.6
				C373.2,460.7,374.6,460.2,376.1,459.6 M487.9,209.5c-0.2,0.3-0.3,0.4-0.4,0.6c-1.8,3.1-4.1,6.1-6.9,8.8c-2.3,2.2-4.8,4.2-8.2,5.5
				c-5.6,2.2-11.6,1.1-15.2-2.7c-1.8-1.9-2.7-4.2-3-6.5c-0.1-1-0.2-1.9-0.2-3c-0.5,0-1,0.1-1.4,0.1c0,2.9,1.7,8,3.6,10.4
				c0.9,1.1,2,2.2,3.2,3.2c3.8,2.8,10.7,4,16.1,0.3c1.4-1,2.7-2,3.9-3.2c3.3-3.2,5.8-6.6,8.4-10.1c0.6-0.8,1.2-1.7,1.8-2.6
				C489,210,488.5,209.8,487.9,209.5 M480.8,169.5c1,1.7,1.9,3.3,2.8,4.8c0.1,0.1,0.6,0.2,0.8,0.2c1.6-0.2,3-0.7,3.8-1.7
				c0.7-0.9,1.2-1.8,1.5-2.8c1-3-0.5-6-3.8-7.5c-2.1-1-4.4-1.5-7-1.1c-1.5,0.2-2.1,0.8-1.9,1.9c0.1,0.6,0.4,1.2,0.7,1.8
				c0.7,1.1,1.4,2.1,2.2,3.2c0.1,0.1,0.2,0.2,0.3,0.3c0.3-0.1,0.6-0.2,0.9-0.2c1.5-0.3,3.6,0.2,4.2,1.1c0.2,0.2,0,0.6,0,0.9
				c-0.4,0-0.8,0-1.2-0.1c-0.3-0.1-0.6-0.3-0.8-0.4C482.6,169.4,481.8,169.3,480.8,169.5 M507.4,304.3c-0.1,0-0.3,0.1-0.4,0.1
				c-5.8,1.7-11.5,3.4-17.3,5.1c-0.5,0.2-0.5,0.4-0.5,0.7c0.3,2.4,0.6,4.8,0.9,7.2c0.2,1.3,0.3,2.7,0.5,4.2
				C495.5,315.3,501.4,309.8,507.4,304.3 M507.5,259.8c0-1.3,0-2.6,0-3.8c0-0.2-0.1-0.3-0.2-0.5c-0.9-1.3-1.7-2.6-2.7-3.9
				c-1.2-1.7-2.7-3.2-4.8-4.3c-0.8-0.4-1.7-0.7-2.7-1.1C498.2,251.7,500.7,256.5,507.5,259.8 M435.8,229.6
				c1.9-5.6,3.2-11.3,4.1-17.1c-1,0-2.4,0.3-2.9,0.7c-0.2,0.1-0.2,0.3-0.2,0.5c-0.2,3.6-0.4,7.3-0.6,10.9
				C436.1,226.4,435.9,228,435.8,229.6 M432.1,250.6c-2.4,2.2-4.9,4.5-7.5,6.8c2.4-0.1,4.7-0.2,7-0.4c0.2,0,0.5-0.2,0.5-0.4
				C432.1,254.7,432.1,252.6,432.1,250.6 M449.7,169.5c0.1,0,0.2,0,0.3,0c3.7-2.8,8.2-4.4,13.6-5c-0.8-0.2-1.6-0.4-2.4-0.4
				c-4.7,0.3-8.4,2-11.3,4.7C449.7,169,449.7,169.3,449.7,169.5 M437.7,173.1c-3.7-0.6-10.6,0.7-11.9,2.2c0.1,0,0.2,0,0.3-0.1
				c3.4-1.2,7-1.9,10.8-1.9C437.2,173.3,437.4,173.2,437.7,173.1"/>
			<path class="st31" d="M488.4,322.3c-0.6,0-1,0.1-1.5,0.1c-14.8,0.6-29.6,1.2-44.4,1.8c-15.8,0.6-31.6,1.3-47.5,1.9
				c-2,0.1-4,0.1-6,0.3c-0.7,0-1-0.1-1.3-0.6c-4.2-7-8.4-14-12.6-21c-6.8-11.3-13.5-22.6-20.3-33.9c-1.5-2.6-3.1-5.1-4.6-7.7
				c-0.1-0.1-0.2-0.3-0.3-0.5c43.4-2.1,86.8-4.1,130.3-6.2C483,278.4,485.7,300.3,488.4,322.3 M434.9,287.3
				c-0.7-0.7-1.7-1.1-2.8-1.3c-1.9-0.4-3.7-0.2-5.3,0.5c-1.3,0.6-2.6,0.6-4,0.3c-0.9-0.2-2-0.3-2.9-0.1c-3,0.4-5.1,2.4-5.2,4.7
				c-0.1,3.6,1.9,6.5,5.5,8.9c1.4,0.9,2.8,1.1,4.5,0.4c1.7-0.7,3.4-0.9,5.2-0.4c1.6,0.4,3,0.1,4-0.8c1.4-1.3,2.4-2.8,2.9-4.5
				C432.1,293.6,431.2,289.5,434.9,287.3 M429.1,281.2c-3.1,0.5-5.2,2.8-4.5,4.8C427.7,286.2,430,282.8,429.1,281.2"/>
			<path class="st32" d="M415.1,182.3c1.2,1.5,2.4,3,3.4,4.5c4,5.6,9.4,10.4,16.4,14.1c5.9,3.1,12.5,4.6,19.9,4.1
				c1.3-0.1,2.1,0.3,2.9,0.9c0.1,0.1,0.2,0.4,0,0.5c-0.6,0.5-1.2,1.1-2,1.5c-0.4,0.2-1.1,0.3-1.7,0.3c-1.6,0-3-0.4-4.1-1.4
				c-0.2-0.1-0.3-0.3-0.5-0.4c-0.8-0.5-1.8-0.2-1.9,0.5c0,0.5-0.3,0.7-0.8,0.9c-2.9,1.4-5.9,1.1-8.9,0.2c-0.3-0.1-0.7-0.2-0.9-0.4
				c-1-0.9-2.1-1.8-3.2-2.7c-0.2,0.1-0.6,0.2-1,0.4c-3.9,2.3-9,0.9-11.2-1.7c-1.3-1.5-1.7-3.2-1.7-5c0-1.2-0.7-1.5-2.2-0.9
				c-1.4,0.6-2.8,0.5-4.3,0.2c-1.6-0.4-3-1.2-4-2.2c-1-1.1-1.2-2.3-0.5-3.5c0.6-1,0.2-1.4-1.4-1.5c-3-0.1-5.8-0.7-7.6-2.7
				c-1-1.1-1.1-2.3-0.1-3.5c0.6-0.7,1.4-1.3,2.1-2c1.2-0.9,1.1-1.5-0.3-2.2c-2.4-1.1-3-2-2.4-4c0.7-2.3,2.3-4.1,5.1-5.4
				c0.2-0.1,0.4-0.2,0.6-0.3c1.3-0.6,1.4-1.1,0.7-2.1c-0.9-1.2-1.8-2.5-2.5-3.8c-0.6-1.1-0.3-1.5,1.2-2c0.7-0.2,1.3-0.4,2-0.6
				c0.9-0.3,1.1-0.7,0.7-1.3c-1.1-1.7-1.3-3.4-0.7-5.2c0.9-2.6,3.1-4.7,6.1-6.3c1.1-0.6,2.4-0.9,3.8-1c1.7-0.1,2.3-0.4,2.6-1.6
				c0.4-1.6,1.7-2.6,3.8-3.1c0.7-0.2,1.4-0.3,2.1-0.5c2-0.4,3.9-0.2,5.6,0.7c0.3,0.2,0.7,0.3,1,0.5c1,0.4,1.8,0.2,2.1-0.6
				c0.1-0.2,0.2-0.4,0.2-0.6c1.3-3.4,4.6-5.2,9.3-5.8c2-0.3,4-0.2,6,0.1c2.1,0.4,3.9,1.1,5.4,2.3c1.1,0.8,1.6,0.9,2.8,0.2
				c1.7-0.9,3.5-1.1,5.5-0.6c2.2,0.5,3.9,1.5,5.3,2.8c0.4,0.4,0.9,0.8,1.4,1.2c0.9,0.7,1.8,0.8,3,0.3c0.7-0.3,1.3-0.6,2-0.9
				c2.9-1.1,5.8-0.7,8,1.1c2.2,1.8,3.4,3.9,4.1,6.2c0.2,0.7,0.6,1.1,1.6,1.3c1.2,0.2,1.9,0.9,2,1.7c0.1,1,0.1,2.1-0.1,3.1
				c-0.1,1.3,0.2,1.5,1.9,1.6c1.6,0.1,3.3,0.1,4.9,0.4c1.7,0.3,2.9,1.1,3.7,2.3c0.5,0.7,0.3,1.4-0.4,2c-0.4,0.3-0.8,0.5-1.1,0.8
				c-0.7,0.6-0.7,1.2,0.2,1.7c0.6,0.4,1.3,0.8,1.8,1.3c0.6,0.6,0.5,1-0.3,1.4c-0.8,0.5-1.7,0.9-2.6,1.3c-1.5,0.8-1.6,1.4-0.3,2.4
				c1.4,1.1,2.7,2.3,3.4,3.8c1.3,2.6,0.2,4.7-3.3,5.8c-1.6,0.5-3.3,0.8-4.9,1.2c-0.8,0.2-1.7,0.4-2.5,0.6c-1.3,0.4-2,1.4-1.7,2.3
				c1,3.7,0.6,3.1-2,6.3c-0.7,0.9-1.9,1.5-3.2,1.9c-0.2,0.1-0.4,0.1-0.7,0.2c-0.1-1-0.3-2-0.4-3c-0.2-1.1-0.3-2.3-0.4-3.4
				c0-0.4,0.1-0.7,0.3-1.1c1.6-2.6,2.5-5.4,2.3-8.3c-0.1-0.7-0.2-1.5-0.3-2.2c0.1,0,0.2-0.1,0.3-0.1c3.5-0.4,5.6-1.9,6.6-4.2
				c1.5-3.2,1.3-6.3-1.8-9.1c-2.1-1.9-5-2.8-8.3-3c-1.5-0.1-3.1-0.2-4.5,0.3c-0.5,0.2-1,0.4-1.4,0.6c-0.9,0.4-1.8,1-2.7,1.2
				c-2.2,0.5-4.4,0.9-6.7,1.2c-2.1,0.2-4-0.3-5.6-1.2c-0.8-0.5-1.6-0.9-2.5-1.3c-1.3-0.5-2.5-0.4-3.6,0.3c-2.4,1.6-5.3,2.3-8.6,2.3
				c-1.3,0-2.3-0.3-3.1-1.1c-0.4-0.4-0.9-0.8-1.4-1.2c-0.4-0.3-0.8-0.4-1.3-0.2c-3.5,1.1-6.3,2.6-7,5.5c-0.9,3.6-4.3,5.3-8.9,6
				c-0.5,0.1-1,0.1-1.4,0.2c-2.3,0.2-3.6,1.2-4.1,2.8c-0.5,1.7-1.3,3.4-2.9,4.7c-0.8,0.7-1.8,1.3-2.8,1.9c-0.5,0.3-0.8,0.5-0.5,1
				c0.3,0.5,0.9,0.5,1.5,0.3C413.9,182.8,414.4,182.5,415.1,182.3"/>
			<path class="st33" d="M496.7,245.1c-1.7-11-1.1-21.9,2.1-32.7c1,0.1,1.9,0.1,2.9,0.2c2.5,0.1,5,0.2,7.4,0.5
				c4.3,0.5,6.9,2.2,8.6,5c1.7,2.9,2.7,5.9,4,8.9c1.8,3.9,3.5,7.9,5.6,11.8c3.1,5.6,6.5,11.1,10,16.6c2,3.3,4.4,6.4,6.6,9.6
				c0.5,0.8,1,1.5,1.5,2.3c1.5,2.2,3.3,4.3,4.6,6.5c1.5,2.4,2.6,5,3.8,7.5c0.3,0.7,0.4,1.5,0.5,2.3c0.2,1.4-0.6,2.4-2.1,3.4
				c-3,1.9-6.5,3.2-10.1,4.3c-8.3,2.8-16.7,5.4-25.2,8c-6.9,2.2-13.8,4.2-20.7,6.3c-2.2,0.7-4.5,1.3-6.7,1.9c-0.2,0-0.4,0.1-0.6,0.1
				c-0.1-0.3-0.1-0.6-0.1-0.8c-0.3-2.5-0.6-4.9-1-7.4c0-0.3,0.1-0.5,0.5-0.6c4.6-1.3,9.1-2.9,13.1-5c3.6-1.9,7-4,10.4-6.1
				c3.1-1.9,5.9-4.1,9-6.1c4.2-2.7,9.1-4.1,14.7-4.3c0.9,0,1.9-0.1,2.8-0.2c0.4-0.1,0.9-0.3,0.9-0.6c0.1-0.4-0.5-0.5-1-0.5
				c-2.2,0-4.5,0-6.7,0.1c-1.1,0.1-2.1,0.4-3.2,0.6c-0.4,0.1-0.6,0-0.8-0.2c-1.8-2.2-3.5-4.4-5.4-6.6c-3.8-4.4-7.7-8.7-11.4-13.1
				c-2.3-2.7-4.2-5.6-6.2-8.4c-0.6-0.8-1.1-1.6-1.6-2.3c-0.1-0.2-0.5-0.3-0.7-0.5c-0.1,0.2-0.1,0.5-0.2,0.7c0,0.1,0,0.1,0,0.3
				c-0.9-0.4-1.7-0.9-2.5-1.3C498.7,245.2,497.9,244.6,496.7,245.1"/>
			<path class="st34" d="M490.8,210.9c0.1,0,0.1,0,0.2,0c1.7,0.4,1.6,0.4,1.4,1.6c-0.4,2.7-0.8,5.4-1.2,8.1
				c-0.8,6.6-1.3,13.2-1.3,19.9c0,5,0.2,10,1.6,15c1.5,5.2,4.4,9.8,9.2,13.8c1.5,1.2,3.1,2.3,5,3.1c0.5,0.2,0.5,0.4,0.5,0.8
				c-0.8,4.8-1.9,9.5-3.7,14.2c-0.6,1.5-1.1,3-1.8,4.6c-0.1,0.3-0.4,0.6-0.7,0.8c-3.8,1.8-7.8,3.4-12,4.7c-0.1,0-0.2,0-0.4,0.1
				c0-0.2-0.1-0.5-0.1-0.7c-1-8.1-2-16.1-3-24.2c-0.3-2.5-0.6-5.1-1-7.6c-0.1-0.5,0.1-0.9,0.6-1.3c1-1,2.1-2,2.7-3.1
				c1.8-3.2,0.5-6.1-3.5-8.3c-3.1-1.7-6.5-2.6-10.2-3.3c-3.8-0.7-7.7-1.3-11.5-2c-0.6-0.1-1.2-0.3-1.8-0.4c-1.3-0.4-1.5-1.4-0.3-2
				c1.1-0.5,2.4-1,3.7-1.3c4.3-1.2,8.7-1.8,13.4-1.4c1.6,0.1,2.2-0.3,2.1-1.5c-0.1-1.1-0.3-2.1-0.4-3.2c-0.3-1.6-1.4-2.2-3.5-1.8
				c-2,0.4-3.9,0.9-6,1c-1.3,0.8-3,0.7-4.4,1.1c-1.5,0.5-3.1,0.8-4.6,1.2c-3.2,0.9-6.4,2-9.1,3.6c-2,1.2-3.5,2.7-4,4.6
				c-0.5,2,0.4,3.6,2.7,4.7c2.1,1,4.4,1.4,6.7,2c2.5,0.6,4.9,1.3,7.3,1.9c0.2,0.1,0.5,0.2,0.6,0.4c-9.8,0.5-19.7,0.9-29.6,1.4
				c0-0.3,0-0.5,0-0.7c0.2-5.6,0.4-11.3,0.7-16.9c0.1-1.2,0.6-2.3,1-3.4c2.4-7.1,4.3-14.2,5.2-21.5c0-0.3,0.1-0.7,0.1-1
				c0-0.3,0.1-0.6,0.1-1h9.3c0.1,1.1,0.2,2.2,0.4,3.3c0.5,2.7,1.4,5.4,3.3,7.9c2.3,3.1,5.5,5.3,10.3,6.1c4.9,0.9,9.1-0.2,12.6-2.7
				c2.4-1.7,4.3-3.6,6-5.6c2.8-3.3,5.3-6.7,7.4-10.3C490.7,211.1,490.8,211,490.8,210.9"/>
			<path class="st33" d="M360.2,351.5c0.1,0,0.3,0,0.5,0c9.4,0.1,18.9,0.3,28.3,0.4c0.8,0,1.1,0.2,1.3,0.7c3.7,6.7,6,13.7,8.5,20.6
				c1,2.7,1.2,5.5,1.4,8.3c0.8,10.2,0.9,20.4,0.5,30.6c-0.2,5.2-0.6,10.3-1.1,15.5c-0.2,2.3-0.8,4.5-1.3,6.7c0,0.1-0.1,0.3-0.3,0.4
				c-0.6,0.4-1.1,0.7-1.7,1c-0.2,0.1-0.4,0.1-0.6,0.1c-1.6-0.2-3.1-0.5-4.7-0.8c-0.2,0-0.4-0.3-0.4-0.4c-0.2-3.1-2.7-4.9-6.4-5.9
				c-0.7-0.2-0.9-0.4-0.9-1c0-2.7-0.1-5.5-0.2-8.2c0-0.2-0.1-0.5-0.1-0.7c0.4-2.6-0.3-5.1-1.1-7.5c-2-6.7-3.9-13.4-6.2-20.1
				c-2.3-6.6-5-13.1-7.6-19.6c-1.6-4.1-3.5-8.2-5.2-12.4C362,356.7,361.2,354.1,360.2,351.5"/>
			<path class="st33" d="M412.3,357.2c1.4,0.1,2.7,0.1,4.1,0.2c8.2,0.5,16.5,0.7,24.7,0.7c1.6,0,1.2-0.2,1.7,0.9
				c2.5,4.6,4.1,9.5,5.9,14.3c0.7,2,1.7,3.9,2,5.9c0.6,4,1,8,1.2,11.9c0.3,5.3,0.3,10.6,0.4,15.8c0,8.3-0.3,16.6-1.3,24.8
				c-0.3,2.2-0.8,4.4-1.3,6.7c0,0.1-0.1,0.3-0.3,0.3c-0.6,0.4-1.1,0.7-1.7,1c-0.2,0.1-0.5,0.1-0.7,0.1c-1.5-0.2-3-0.5-4.5-0.7
				c-0.2,0-0.6-0.3-0.6-0.4c-0.2-3.1-2.6-4.9-6.4-5.9c-0.8-0.2-0.9-0.4-0.9-1.1c0-2.7-0.1-5.3-0.2-8c0-0.5-0.1-1.1,0-1.6
				c0.3-2-0.3-3.9-0.9-5.8c-1.4-4.8-2.7-9.7-4.2-14.5c-2.9-9-6.5-17.9-10.1-26.7c-1.6-3.9-3.3-7.8-4.9-11.8
				C413.7,361.4,413.1,359.3,412.3,357.2"/>
			<path class="st33" d="M429.2,172.2c0.6-0.4,1.3-0.7,1.9-1.1c1.8-1.2,2.8-2.6,3.3-4.3c0.8-2.6,2.3-3.9,5.5-5
				c0.3,0.4,0.7,0.7,1,1.1c0.9,1.1,2.3,1.6,4,1.7c3.8,0.1,7.2-0.6,10.2-2.4c0.9-0.5,1.1-0.5,2.1-0.1c0.5,0.2,0.9,0.5,1.4,0.8
				c-1.4,0.5-2.8,0.8-4.1,1.3c-2.2,0.8-4.1,2-5.7,3.5c-0.3,0.3-0.5,0.5-0.7,0.8c-0.4,0.7-0.2,1.2,0.6,1.6c0.1,0,0.2,0.1,0.3,0.1
				c1.3,0.6,1.2,0.6,2.4-0.2c3.4-2.2,7.2-3.6,11.7-4c0.9-0.1,1.8-0.2,2.6-0.2c1-0.1,1.7-0.5,2.2-1.1c0.1-0.2,0.4-0.4,0.7-0.4
				c2-0.4,4.1-0.9,6.2-1.3c0.1,0.3,0.3,0.6,0.5,0.9c1.9,3.3,3.7,6.6,5.7,9.8c1.9,3.2,2.1,6.5,0.6,9.7c-3.5,7.3-9.3,13.4-18.6,17.6
				c-5,2.3-10.4,2.7-16,1.9c-5.4-0.8-9.9-2.9-13.9-5.5c-5.3-3.4-9.5-7.5-12.9-12c-1-1.3-2.2-2.5-3.4-3.8c-0.3-0.3-0.2-0.4,0-0.7
				c1.8-1.6,3-3.4,3.4-5.5c0.2-1.1,1.1-1.6,2.6-1.8c1-0.1,2.1-0.3,3.3-0.4c-0.3,0.2-0.4,0.3-0.6,0.3c-1.2,0.6-2.1,1.4-2.8,2.3
				c-0.4,0.6-0.8,1.1-1.1,1.7c-0.2,0.4-0.2,0.8,0.3,0.9c0.3,0.1,0.9,0.1,1.2,0c0.6-0.3,1.2-0.7,1.8-1c3.2-1.7,6.9-2.5,10.7-2.9
				c0.7-0.1,1.3-0.1,2-0.2c0.8,0,1.3-0.3,1.7-0.8c1.1-1.2,0.6-2-1.4-2.1c-2.6-0.1-5.2,0-7.8,0.6
				C429.7,172.2,429.5,172.2,429.2,172.2C429.2,172.3,429.2,172.2,429.2,172.2 M427.2,182.1c0,0.3,0.1,0.7,0.2,1.2
				c0.1,0.8,0.7,1.3,1.7,1.6c2,0.6,4.1,0.7,6.2,0.3c2.5-0.5,4.5-1.6,6.4-2.8c1-0.7,1-2,0.1-2.8c-1.7-1.5-3.9-2.4-6.6-2.6
				C430.8,176.6,427.1,178.8,427.2,182.1 M461.7,168.3c-5.4-0.1-9.3,3.4-8.4,6.9c0.2,0.9,0.9,1.5,2.1,1.7c0.5,0.1,1.1,0.2,1.7,0.2
				c4.1-0.1,7.7-1.2,10.5-3.3c0.6-0.4,1.1-1,1.4-1.5c0.2-0.3,0.2-0.8-0.1-1C467,169.4,464.4,168.4,461.7,168.3 M447.7,196.3
				c0.6-0.2,1.3-0.4,1.8-0.6c3.7-1.9,7.8-3.4,12.2-4.2c1.1-0.2,2-0.6,2.7-1.2c0.3-0.3,0.8-0.5,1.2-0.9c0.3-0.3,0.5-0.7,0.6-1
				c0-0.2-0.2-0.5-0.5-0.6c-0.2-0.1-0.7,0-0.9,0.1c-0.3,0.2-0.6,0.5-0.8,0.8c-0.7,0.9-1.8,1.4-3.1,1.8c-2,0.5-4,1-5.8,1.7
				c-2.1,0.8-4.1,1.8-6.1,2.7c-1.1,0.5-1.2,0.5-2.2-0.1c-0.4-0.2-0.8-0.3-1.1,0c-0.4,0.3-0.4,0.7,0.1,0.9
				C446.2,195.9,446.9,196.1,447.7,196.3 M445.9,181.9c-0.1,0-0.2,0-0.3,0c-0.2,0.1-0.3,0.2-0.5,0.4c-0.9,0.8-1.8,1.7-2.8,2.5
				c-0.8,0.7-1.2,1.5-0.9,2.4c0.5,1.8,3.3,3.3,5.8,3c0.6-0.1,1.1-0.5,1.6-0.8c0.1-0.1,0.1-0.5,0-0.6c-0.1-0.1-0.6-0.1-0.8,0
				c-1.3,0.6-2.3,0.2-3.4-0.3c-1.9-0.8-2.1-2.1-0.5-3.3c0.9-0.7,1.5-1.5,1.7-2.4C446,182.5,445.9,182.2,445.9,181.9 M457.1,185.7
				c0-0.1,0-0.4-0.2-0.5c-0.2-0.2-0.6-0.3-0.9-0.3c-0.2,0-0.5,0.3-0.5,0.5c0.1,0.7-0.6,1-1.3,1.2c-0.8,0.2-1.6,0.3-2.3,0.6
				c-0.5,0.2-0.9,0.5-1.3,0.8c-0.1,0.1-0.1,0.4,0,0.5c0,0.1,0.4,0.2,0.5,0.1c1.3-0.3,2.6-0.6,3.9-0.9
				C456.1,187.4,457.1,186.9,457.1,185.7"/>
			<path class="st35" d="M403.5,327.5c-1.1,5.5-2.1,11-3.2,16.6c-1.5-0.1-3.1-0.1-4.7-0.3c-12.3-0.9-24.2-3-36.1-5.4
				c-1.3-0.3-2.7-0.5-4-0.8c-0.4-0.1-0.6-0.2-0.5-0.5c1-5,2.8-9.7,7.1-13.7c3.6-3.3,8.3-5.3,13.8-6.4c1-0.2,2-0.3,3.1-0.5
				c0.6-0.1,0.9,0,1.1,0.4c1.9,3.3,3.9,6.6,5.9,9.9c0.7,1.2,1.2,1.4,3,1.3c4.6-0.2,9.2-0.4,13.9-0.6
				C403,327.4,403.3,327.5,403.5,327.5"/>
			<path class="st35" d="M455.7,337.6c-0.8-0.4-1.5-0.7-2.2-1c-0.4-0.2-0.8-0.3-1.2-0.4c-0.8-0.1-1.3,0.2-1.5,0.7
				c-0.4,1.2-0.8,2.4-1.2,3.6c-0.6,1.8-1.3,3.6-1.8,5.4c-0.2,0.6-0.5,0.8-1.3,0.7c-3.8-0.4-7.7-0.6-11.5-1.1c-8.5-1-17-2.1-25.4-3.1
				c-1.9-0.2-3.8-0.4-5.7-0.5c-0.3,0-0.6-0.1-1-0.1c0.2-1.4,0.4-2.7,0.6-4c0.6-3.2,1.2-6.5,1.7-9.7c0.1-0.5,0.3-0.6,0.9-0.6
				c12.1-0.5,24.2-1,36.3-1.5c0.4,0,0.8,0,1.1,0c2.1-0.1,2.1-0.1,3,1.3c1.3,2,2.7,4,4.1,6c0.2,0.3,0.3,0.5,0.6,0.9
				c-4.7-0.9-8.9-2.6-13.6-3.1c0,0.1-0.1,0.1-0.1,0.2c0.9,0.3,1.9,0.7,2.8,1c3.1,0.9,6.3,1.7,9.4,2.6c0.4,0.1,0.8,0.2,1.3,0.2
				c1.1,0.1,1.6-0.4,1.3-1.1c-0.1-0.4-0.4-0.7-0.6-1c-1.3-1.9-2.6-3.9-3.9-5.8c-0.1-0.2-0.2-0.4-0.2-0.6c0.1,0.1,0.3,0.3,0.4,0.4
				c2.5,2.8,5,5.5,7.5,8.3c0.2,0.2,0.3,0.5,0.3,0.7C455.9,336.3,455.8,336.9,455.7,337.6"/>
			<path class="st33" d="M434.9,215.3c-0.4,4.1-0.8,8.1-1.1,12.2c-0.4,5.3-0.9,10.7-1.3,16c-0.1,1.6-0.2,3.3-0.3,4.9
				c0,0.3-0.1,0.5-0.5,0.7c-0.6,0.3-1,0.8-1.5,1.2c-2.7,2.3-5.4,4.6-8.2,6.9c-0.3,0.2-0.7,0.4-1.1,0.4c-6.5,0.3-13.1,0.6-19.6,0.9
				c-0.1,0-0.3,0-0.5,0c0.1-0.1,0.1-0.2,0.1-0.3c5-6.3,9.9-12.6,15-18.8c5.2-6.2,9.7-12.6,14.4-19c1.2-1.6,2.6-3.2,3.9-4.8
				c0.1-0.2,0.3-0.3,0.4-0.5C434.8,215.3,434.9,215.3,434.9,215.3"/>
			<path class="st33" d="M480.6,189.3c0.2,2.1,0.2,4.1,0.6,6c0.5,3.1,1.2,6.1,2,9.1c0.4,1.5,1.6,2.8,3.1,4c0.3,0.2,0.5,0.4,0.2,0.7
				c-2.6,3.8-5.4,7.4-9.4,10.6c-1.7,1.4-3.6,2.6-5.9,3.4c-4.9,1.7-9.6,0.7-12.5-2.6c-2.2-2.6-2.6-5.4-2.6-8.3
				c1.8-0.3,3.5-0.6,5.3-0.9c0.1,0.3,0.1,0.6,0.2,1c0.1,0.3,0.1,0.6,0.3,0.8c0.2,0.2,0.7,0.4,1,0.3c0.3,0,0.6-0.4,0.6-0.6
				c0-0.5-0.1-1-0.2-1.4c0-0.4,0-0.8-0.1-1.2c0-0.1,0-0.2-0.1-0.3c-0.3-0.4-0.7-0.8-0.9-1.2c-0.9-1.6-2.1-3-4.1-4.2
				C468.6,201.7,475.3,196.2,480.6,189.3"/>
			<path class="st35" d="M501.5,312.6c0.7,4.2,0.9,8.4-0.4,12.5c-0.7,2.1-2.2,3.9-4.3,5.4c-1.9,1.3-4.2,1.8-6.7,2
				c-4.2,0.5-8.3,0.7-12.5,0.7c-4.4,0-8.7,0-13.1,0.1c-2.1,0.1-4.2,0.4-6.3,0.7c-0.6,0.1-1.1,0.3-1.7,0.5c-2.6-3-5.2-5.9-7.9-8.9
				c0.7,0,1.2-0.1,1.8-0.1c12.5-0.5,25-1,37.5-1.5c0.9,0,1.8,0,2.7,0c0.4,0,0.9-0.3,1.1-0.5c2.1-2.9,4.6-5.6,7.2-8.2
				C499.7,314.3,500.6,313.4,501.5,312.6"/>
			<path class="st36" d="M447.1,348.1c-0.4,2.8-0.8,5.6-1.2,8.5c-0.1,0-0.3,0-0.5,0c-6.5-0.1-13,0-19.5-0.3
				c-7.8-0.3-15.5-0.9-23.2-1.4c-1.1-0.1-1.1-0.1-1-0.9c0.3-3.2,0.6-6.4,0.8-9.6c0-0.3,0.1-0.6,0.1-1c1.2,0.1,2.4,0.2,3.5,0.3
				c6.1,0.7,12.1,1.5,18.2,2.2c7.3,0.9,14.6,1.8,22.1,2.1C446.7,348,446.9,348,447.1,348.1"/>
			<path class="st37" d="M400.1,435.9c3,2.2,6.2,4.2,6.8,7.5c0.1,0.4,0.1,0.8,0.1,1.2c0,0.6-0.4,1-1.1,1.3
				c-6.9,3.3-13.9,6.6-20.8,9.8c-2.1,1-4.3,1.9-6.5,2.8c-0.4,0.2-0.6,0.1-0.9-0.1c-2.5-2.1-5.3-4-8.6-5.5c-1.2-0.5-2.5-0.9-3.9-1.4
				c0.9-0.7,1.8-1.4,2.8-2c0.1-0.1,0.6,0,0.9,0c1.6,0.6,3.2,1.2,4.9,1.7c1.1,0.3,2.3,0.5,3.4,0.6c1,0.1,1.8-0.2,2.5-0.8
				c2.1-1.8,3.7-3.9,5.3-5.9c1.4-1.8,2.7-3.6,3.9-5.5c0.6-0.9,1-1.9,1.5-2.8c1.2,0.2,2.4,0.4,3.7,0.6c0.7,0.1,1.4,0.1,2.1,0.1
				C398,437.5,399.2,437,400.1,435.9"/>
			<path class="st37" d="M416.7,455.8c1-0.7,1.9-1.4,2.8-2.1c0.2-0.1,0.6-0.1,0.9,0c1.6,0.6,3.2,1.2,4.9,1.7
				c1.1,0.3,2.3,0.5,3.5,0.6c1,0.1,1.9-0.2,2.5-0.8c1.8-1.9,3.6-3.9,5.3-5.9c1.5-1.8,2.8-3.7,4.1-5.7c0.6-0.8,0.9-1.8,1.4-2.7
				c1.2,0.2,2.5,0.5,3.8,0.6c1.2,0.1,2.4,0.1,3.5-0.1c1-0.1,1.7-0.7,2.3-1.4c0.6,0.4,1.2,0.8,1.7,1.2c1.1,0.9,2.2,1.8,3.2,2.7
				c1.3,1.2,1.8,2.7,2,4.2c0.1,0.9-0.3,1.5-1.4,2c-6.9,3.2-13.7,6.5-20.5,9.7c-2.1,1-4.4,1.9-6.6,2.9c-0.4,0.2-0.6,0.1-0.9-0.1
				c-2.3-1.9-4.6-3.6-7.5-5c-1.4-0.6-2.8-1.1-4.2-1.7C417.3,455.9,417.1,455.9,416.7,455.8"/>
			<path class="st36" d="M400.3,345.2c-0.2,1.9-0.4,3.7-0.6,5.7c-0.9-0.1-1.7-0.1-2.5-0.2c-9.9-0.6-19.9-0.6-29.8-0.7
				c-4.2,0-8.4-0.2-12.6-0.3c-1.9-0.1-1.9-0.1-1.7-1.4c0.4-2.9,0.9-5.8,1.3-8.7c0-0.1,0.1-0.3,0.1-0.4
				C369.6,342,384.6,345,400.3,345.2"/>
			<path class="st37" d="M483.3,261.8c-0.2-1.7-0.4-3.4-0.6-5.1c0-0.3-0.1-0.5-0.1-0.8c-0.1-0.9-0.6-1.2-1.8-1.1
				c-2.6,0.1-5.3,0.2-7.9,0.4c-2.9,0.2-5.5,0-8.2-1c-3.1-1.1-6.4-1.7-9.7-2.6c-1.4-0.4-2.7-0.7-4-1.2c-2.4-0.9-3.2-2.4-2.3-4.3
				c0.7-1.5,2.2-2.7,4-3.6c3.2-1.7,6.9-2.8,10.6-3.8c3.1-0.9,6.4-1.5,9.7-1.9c0.7-0.1,1.3-0.2,2-0.4c0.7-0.2,1.2,0,1.2,0.6
				c0.1,1,0.3,1.9,0.4,3c-0.4,0-0.7,0-1.1,0c-4.9-0.2-9.6,0.5-14.1,1.9c-1.1,0.3-2.2,0.8-3.2,1.3c-2.3,1.2-2.1,3.8,0.6,4.5
				c2.5,0.7,5.2,1.2,7.9,1.6c3.8,0.7,7.6,1.1,11.3,2.3c1.8,0.6,3.5,1.3,5,2.2c2.5,1.6,3.2,3.8,1.9,6c-0.4,0.7-0.9,1.3-1.4,1.9
				C483.4,261.8,483.3,261.8,483.3,261.8"/>
			<path class="st38" d="M494,211.7c0.9,0.2,1.7,0.3,2.6,0.5c-0.3,1.1-0.6,2.2-0.8,3.3c-1.7,6.8-2.3,13.7-2.1,20.6
				c0.1,4.2,0.5,8.5,1.8,12.6c0.8,2.4,1.8,4.8,3.7,7c1.9,2.2,4.5,3.9,7.6,5.3c0.3,0.1,0.6,0.4,0.6,0.6c-0.2,2.9-0.5,5.8-0.8,8.8
				c0,0.1-0.1,0.2-0.1,0.4c-0.6-0.3-1.1-0.6-1.6-0.9c-4.8-3-7.9-6.8-9.9-11.1c-1.7-3.6-2.4-7.4-2.7-11.1c-0.8-8.5-0.1-16.9,0.6-25.4
				c0.3-3.4,0.7-6.7,1-10.1C493.9,212.1,493.9,211.9,494,211.7"/>
			<path class="st38" d="M421.4,452.3c1.5-1.1,2.9-2,4.2-3c1.9-1.6,3.8-3.1,4.7-5.2c0.7-1.7,0.6-3.3-0.5-4.9
				c-0.5-0.7-0.9-1.4-1.2-2.2c-0.5-1.1,0-1.8,1.3-2.4c1.2-0.6,2.6-0.6,3.9-0.3c2.6,0.4,4.8,1.3,5.7,3.2c0.5,1.1,0.4,2.3,0.1,3.4
				c-0.3,0.9-0.8,1.8-1.5,2.6c-1,1.1-1.6,2.3-2.5,3.5c-1.7,2.1-3.6,4.2-5.4,6.4c-0.6,0.8-1.5,1-2.6,0.7c-1.5-0.4-3-0.8-4.5-1.3
				C422.5,452.7,422,452.5,421.4,452.3"/>
			<path class="st38" d="M369.9,448.2c1.4-1,2.7-1.9,3.9-2.9c2-1.6,4-3.3,5-5.4c0.8-1.7,0.6-3.3-0.5-4.9c-0.5-0.7-0.9-1.5-1.3-2.2
				c-0.5-1,0-1.8,1.3-2.4c1.2-0.6,2.5-0.6,3.9-0.3c2.6,0.4,4.8,1.2,5.6,3.2c0.4,0.9,0.4,1.9,0.3,2.9c-0.1,1.1-0.7,2.2-1.6,3.2
				c-1,1-1.5,2.3-2.4,3.4c-1.7,2.2-3.5,4.3-5.4,6.4c-0.9,1.1-1.4,1.2-3.1,0.8C373.7,449.3,371.9,448.7,369.9,448.2"/>
			<path class="st38" d="M427.5,463.9c-1.8,0.6-3.5,1.3-5.3,1.8c-2.7,0.8-5.5,1.6-8.3,2.2c-3,0.6-5.9,0.2-8.2-1.5
				c-1.2-0.9-1.2-1.3-0.4-2.4c1.5-1.8,3.5-3.3,5.8-4.7c1.2-0.8,2.4-1.5,3.7-2.3c0.2-0.1,0.7-0.2,1-0.1c4.7,1.4,8.4,3.9,11.7,6.7
				C427.4,463.7,427.4,463.7,427.5,463.9"/>
			<path class="st38" d="M376.1,459.6c-1.5,0.6-2.9,1.1-4.3,1.6c-3.1,1-6.1,2-9.4,2.6c-3,0.5-5.7,0.1-8-1.4
				c-1.3-0.9-1.4-1.5-0.5-2.6c1.3-1.6,3-2.9,4.9-4.1c1.5-0.9,3-1.9,4.5-2.8c0.2-0.1,0.7-0.2,1-0.1
				C369,454.2,372.7,456.7,376.1,459.6"/>
			<path class="st38" d="M487.9,209.5c0.6,0.3,1.1,0.6,1.7,0.8c-0.6,0.9-1.2,1.7-1.8,2.6c-2.5,3.5-5.1,7-8.4,10.1
				c-1.2,1.1-2.5,2.2-3.9,3.2c-5.5,3.8-12.3,2.6-16.1-0.3c-1.3-0.9-2.3-2-3.2-3.2c-1.9-2.4-3.5-7.5-3.6-10.4c0.5,0,0.9-0.1,1.4-0.1
				c0.1,1,0.1,2,0.2,3c0.3,2.3,1.2,4.5,3,6.5c3.6,3.8,9.6,4.8,15.2,2.7c3.4-1.3,5.9-3.3,8.2-5.5c2.8-2.7,5.1-5.7,6.9-8.8
				C487.6,209.9,487.7,209.7,487.9,209.5"/>
			<path class="st33" d="M480.8,169.5c1-0.2,1.8-0.1,2.5,0.2c0.3,0.1,0.5,0.4,0.8,0.4c0.4,0.1,0.8,0.1,1.2,0.1c0-0.3,0.1-0.7,0-0.9
				c-0.6-0.9-2.7-1.4-4.2-1.1c-0.3,0.1-0.6,0.1-0.9,0.2c-0.1-0.1-0.2-0.2-0.3-0.3c-0.7-1.1-1.5-2.1-2.2-3.2
				c-0.3-0.6-0.6-1.2-0.7-1.8c-0.2-1.1,0.4-1.7,1.9-1.9c2.5-0.4,4.9,0.1,7,1.1c3.3,1.6,4.8,4.5,3.8,7.5c-0.3,1-0.9,1.9-1.5,2.8
				c-0.8,1-2.2,1.5-3.8,1.7c-0.3,0-0.7-0.1-0.8-0.2C482.7,172.8,481.7,171.2,480.8,169.5"/>
			<path class="st39" d="M507.4,304.3c-6.1,5.4-12,11-16.9,17.2c-0.2-1.5-0.4-2.8-0.5-4.2c-0.3-2.4-0.6-4.8-0.9-7.2
				c0-0.3,0-0.5,0.5-0.7c5.8-1.7,11.6-3.4,17.3-5.1C507.1,304.4,507.3,304.4,507.4,304.3"/>
			<path class="st33" d="M507.5,259.8c-6.8-3.3-9.2-8.1-10.5-13.7c1,0.4,1.9,0.7,2.7,1.1c2.2,1.1,3.6,2.6,4.8,4.3
				c0.9,1.3,1.8,2.6,2.7,3.9c0.1,0.2,0.2,0.3,0.2,0.5C507.5,257.2,507.5,258.4,507.5,259.8"/>
			<path class="st38" d="M435.8,229.6c0.1-1.6,0.3-3.3,0.4-4.9c0.2-3.6,0.4-7.3,0.6-10.9c0-0.2,0.1-0.4,0.2-0.5
				c0.6-0.4,1.9-0.8,2.9-0.7C439,218.3,437.7,224,435.8,229.6"/>
			<path class="st32" d="M449.7,169.5c0-0.2,0-0.5,0.1-0.6c2.9-2.7,6.6-4.3,11.3-4.7c0.8-0.1,1.6,0.2,2.4,0.4
				c-5.3,0.5-9.9,2.1-13.6,5C449.9,169.5,449.8,169.5,449.7,169.5"/>
			<path class="st32" d="M437.7,173.1c-0.2,0.1-0.5,0.2-0.7,0.2c-3.8,0.1-7.4,0.7-10.8,1.9c-0.1,0-0.2,0-0.3,0.1
				C427.1,173.9,434,172.5,437.7,173.1"/>
			<path class="st30" d="M434.9,287.3c-3.7,2.1-2.9,6.3,1.8,7.5c-0.5,1.7-1.4,3.2-2.9,4.5c-1,1-2.5,1.2-4,0.8
				c-1.9-0.5-3.6-0.3-5.2,0.4c-1.6,0.7-3.1,0.5-4.5-0.4c-3.5-2.4-5.6-5.3-5.5-8.9c0.1-2.3,2.2-4.3,5.2-4.7c0.9-0.1,2-0.1,2.9,0.1
				c1.4,0.3,2.7,0.2,4-0.3c1.7-0.7,3.5-0.9,5.3-0.5C433.2,286.3,434.2,286.7,434.9,287.3"/>
			<path class="st30" d="M429.1,281.2c1,1.6-1.4,5-4.5,4.8C423.8,284,425.9,281.8,429.1,281.2"/>
			<path class="st30" d="M427.2,182.1c0-3.2,3.6-5.5,8-5.2c2.7,0.2,4.9,1.1,6.6,2.6c0.9,0.8,0.9,2.1-0.1,2.8
				c-1.9,1.3-3.9,2.3-6.4,2.8c-2.1,0.4-4.2,0.3-6.2-0.3c-1-0.3-1.6-0.8-1.7-1.6C427.3,182.8,427.2,182.3,427.2,182.1 M431.7,183
				c0,0.9,0.1,1.1,1.2,1.1c2.1,0.1,3.8-0.5,5.4-1.4c0.1-0.1,0.2-0.3,0.2-0.4c-0.3-1.1-2.1-2-3.6-2
				C432.8,180.4,431.7,181.2,431.7,183 M440.2,181.5c0.9-0.6,0.9-1,0.1-1.5c-0.6-0.4-1.3-0.7-2-1c-1.4-0.6-3-1-4.7-0.8
				c-3,0.3-5.5,2-4.5,5c0.1,0.2,0.4,0.3,0.6,0.5c0.1,0,0.1,0,0.2-0.1c-0.2-2,0.3-3.8,3.4-4.5C436.6,178.4,438.7,179.6,440.2,181.5"
				/>
			<path class="st30" d="M461.7,168.3c2.7,0.1,5.3,1.1,7.2,3c0.2,0.2,0.3,0.7,0.1,1c-0.4,0.6-0.8,1.1-1.4,1.5
				c-2.9,2.1-6.5,3.2-10.5,3.3c-0.5,0-1.1-0.1-1.7-0.2c-1.2-0.3-1.8-0.8-2.1-1.7C452.3,171.7,456.3,168.2,461.7,168.3 M465,173.8
				c0.5-0.3,0.9-0.6,1.3-0.9c1.3-1,1.3-1,0-2c-3.4-2.6-9.4-1.6-11,1.8c0,0.1,0,0.2-0.1,0.4C458.8,170.3,462.2,170.5,465,173.8
				 M457.6,176c1.4-0.3,2.9-0.6,4.3-0.9c1.5-0.4,1.6-0.6,0.6-1.6c-0.8-0.8-1.8-1.1-3.1-0.9c-1.5,0.3-2.7,0.8-3,1.9
				c-0.1,0.3,0,0.6,0.1,0.9C456.6,175.7,457,176,457.6,176"/>
			<path class="st30" d="M447.7,196.3c-0.7-0.2-1.4-0.4-2-0.7c-0.5-0.2-0.4-0.6-0.1-0.9c0.4-0.3,0.8-0.2,1.1,0
				c0.9,0.6,1.1,0.6,2.2,0.1c2-0.9,4-1.9,6.1-2.7c1.9-0.7,3.9-1.2,5.8-1.7c1.4-0.3,2.5-0.8,3.1-1.8c0.2-0.3,0.5-0.6,0.8-0.8
				c0.2-0.1,0.7-0.2,0.9-0.1c0.2,0.1,0.5,0.4,0.5,0.6c-0.1,0.4-0.3,0.7-0.6,1c-0.3,0.3-0.8,0.6-1.2,0.9c-0.7,0.6-1.6,1-2.7,1.2
				c-4.4,0.9-8.5,2.3-12.2,4.2C449,195.9,448.3,196.1,447.7,196.3"/>
			<path class="st30" d="M445.9,181.9c0,0.3,0.1,0.6,0,0.9c-0.2,0.9-0.9,1.7-1.7,2.4c-1.5,1.1-1.3,2.4,0.5,3.3
				c1,0.5,2.1,0.9,3.4,0.3c0.2-0.1,0.6-0.1,0.8,0c0.1,0.1,0.2,0.5,0,0.6c-0.5,0.3-1,0.7-1.6,0.8c-2.5,0.3-5.4-1.2-5.8-3
				c-0.2-0.9,0.1-1.7,0.9-2.4c1-0.8,1.9-1.7,2.8-2.5c0.1-0.1,0.3-0.3,0.5-0.4C445.7,181.9,445.8,181.9,445.9,181.9"/>
			<path class="st30" d="M457.1,185.7c0,1.2-1,1.7-2.1,2c-1.3,0.4-2.6,0.6-3.9,0.9c-0.2,0-0.5,0-0.5-0.1c-0.1-0.2-0.1-0.4,0-0.5
				c0.4-0.3,0.8-0.6,1.3-0.8c0.7-0.3,1.6-0.4,2.3-0.6c0.8-0.2,1.4-0.5,1.3-1.2c0-0.2,0.3-0.5,0.5-0.5c0.3,0,0.7,0.1,0.9,0.3
				C457.1,185.4,457.1,185.6,457.1,185.7"/>
			<path class="st32" d="M431.7,183c0-1.8,1.1-2.6,3.2-2.7c1.5,0,3.2,0.9,3.6,2c0,0.1-0.1,0.3-0.2,0.4c-1.6,0.8-3.4,1.4-5.4,1.4
				C431.8,184,431.7,183.9,431.7,183"/>
			<path class="st38" d="M440.2,181.5c-1.5-2-3.6-3.1-6.8-2.4c-3.1,0.7-3.6,2.5-3.4,4.5c-0.1,0-0.1,0-0.2,0.1
				c-0.2-0.2-0.5-0.3-0.6-0.5c-1-3,1.4-4.7,4.5-5c1.6-0.2,3.3,0.2,4.7,0.8c0.7,0.3,1.3,0.6,2,1C441.1,180.5,441.1,180.9,440.2,181.5
				"/>
			<path class="st38" d="M465,173.8c-2.8-3.3-6.2-3.6-9.8-0.6c0-0.2,0-0.3,0.1-0.4c1.6-3.4,7.6-4.4,11-1.8c1.3,1,1.3,1,0,2
				C465.9,173.2,465.5,173.5,465,173.8"/>
			<path class="st32" d="M457.6,176c-0.6,0-1-0.2-1.1-0.6c-0.1-0.3-0.2-0.6-0.1-0.9c0.4-1.2,1.6-1.7,3-1.9c1.2-0.2,2.3,0.1,3.1,0.9
				c1,1,0.9,1.2-0.6,1.6C460.5,175.4,459.1,175.7,457.6,176"/>
		</g>
	</g>
</g>
</svg>
