<?xml version="1.0" encoding="utf-8"?>
<!-- Generator: Adobe Illustrator 22.1.0, SVG Export Plug-In . SVG Version: 6.00 Build 0)  -->
<svg version="1.1" id="Слой4_xA0_Изображение_1_"
	 xmlns="http://www.w3.org/2000/svg" xmlns:xlink="http://www.w3.org/1999/xlink" x="0px" y="0px" viewBox="0 0 662.4 921.6"
	 style="enable-background:new 0 0 662.4 921.6;" xml:space="preserve">
<style type="text/css">
	.st0{fill:#221E1F;}
	.st1{fill:#1D73BC;}
	.st2{fill:#75716F;}
	.st3{fill:#2B2B2B;}
	.st4{fill:#1F8CCC;}
	.st5{fill:#E4A16C;}
	.st6{fill:#FFFFFF;}
	.st7{fill:#E5CB0B;}
	.st8{fill:#63180F;}
	.st9{fill:#1A76BC;}
</style>
<g>
	<path d="M416.8,180.7c0,2-0.1,4,0,5.9c0.3,5.9-0.8,11.8-1.6,17.6c-0.2,1.6-0.6,3.1-0.7,4.7c-0.3,4.2-2.2,7.6-5,10.7
		c-4.3,4.8-9.8,7.7-15.7,9.9c-1.1,0.4-1.7,1-1.7,2.1c-0.1,2.3-0.2,4.5-0.4,6.8c2.1,0.2,3.1,1.4,4,2.8c0.4,0.6,1,1.3,1.7,1.5
		c14.8,6.3,30,11.2,45.6,15.2c1,0.3,2.6-0.1,2.6,1.3c0,0.7-1.2,1.5-2,2.2c-0.7,0.6-1.5,1.2-2.2,2.1c2.8,0.4,5.6,0.9,8.4,1.1
		c3.5,0.3,7,0.3,10.6,0.4c1.2,0,2,0.4,2.3,1.6c3.6,13,7.3,25.9,10.7,39c3.7,14.3,6.4,28.9,8.5,43.6c2.5,17.5,4.8,35,7.2,52.5
		c2.1,14.9,4.3,29.7,6.4,44.5c0.9,6.4,1.6,12.8,2.4,19.3c0.2,1.3-0.3,2.4-1,3.5c-5,7.8-12.5,12.1-21.1,14.6
		c-10,2.9-19.8,6.1-29.4,10.2c-0.8,0.3-1.6,0.5-2.5,0.7c-0.8,0.2-1.7,0.2-2.8,0.4c0.3,2.4,0.6,4.9,1.1,7.3c0.3,1.6,0.8,3.2,1.4,4.8
		c0.8,2.2,0.6,3.1-1.4,4.4c-1.5,1-2.9,2-4.2,3.2c-0.4,0.3-0.8,1-0.8,1.5c-1.6,13.5-3.3,27-4.6,40.6c-1.3,14.1-2.2,28.2-3.2,42.3
		c-1.2,16.2-2.4,32.4-3.6,48.6c-1,13-1.9,25.9-3,38.9c-1,12.2-2.1,24.4-3,36.6c-1.1,13.8-2.2,27.7-2.9,41.5
		c-1,19.4-1.7,38.9-2.6,58.3c0,0.9,0.2,1.6,0.9,2.2c3.3,2.8,6.5,5.7,9.8,8.5c1.4,1.2,1.6,2.3,0.4,3.8c-0.4,0.5-0.8,1-1.3,1.3
		c-1.4,1-1.5,2.2-0.9,3.6c0.3,0.9,0.8,1.7,1.2,2.6c0.3,0.8,0.5,1.5,0.8,2.3c-0.1,0.1-0.2,0.3-0.3,0.4c3.2,0,6.3,0.1,9.5,0
		c4.4-0.1,8.8-0.4,13.1-0.4c6.5,0,12,2.4,15.9,7.6c2.7,3.6,5.3,7.2,7.5,11.1c4.8,8.1,1.8,15.7-3.7,20.9c-3.8,3.7-8.7,5.2-13.8,6.1
		c-7.4,1.4-14.8,1.3-22.2,0.8c-16.4-1.2-32.4-4.6-48.1-9.6c-3.3-1.1-6.5-2.4-9.7-3.8c-5.7-2.5-9.8-6.8-12.1-12.5
		c-1.3-3.2-2.3-6.4-3.5-9.6c-0.2-0.5-0.6-0.9-1.1-1.7c-0.4,2.7-0.6,4.9-1.1,7.1c-1.2,5.9-4.3,10.5-9.2,13.9
		c-7.1,4.9-15,8.1-23.2,10.5c-9.8,2.9-19.9,4.6-30.1,5.5c-8.5,0.8-17,0.9-25.5-0.1c-7.6-0.9-15-2.7-22.1-5.4c-4.5-1.7-6.2-5-6.5-9.4
		c-0.2-3.3,0.5-6.5,1.6-9.7c0.5-1.4,1.1-2.8,1.7-4.2c3.2-7.4,8.9-12,16.6-14.2c7.8-2.3,15.8-3.6,23.9-3.7c1.8,0,3.6,0,5.5-0.2
		c-0.8-0.2-1.5-0.4-2.3-0.6c-3.7-0.9-7.5-1.8-11.2-2.8c-2.2-0.6-2.5-1.6-1.3-3.6c1.7-2.8,3.3-5.5,5-8.3c0.4-0.7,0.7-1.4,1-2.1
		c1.2-3.1,0.8-4.2-2-5.9c-0.1,0-0.2-0.1-0.2-0.2c-4-2.4-4.4-4.4-1.2-7.9c3.7-4.1,7.6-8.1,11.5-12.1c0.9-0.9,1-1.6,0.8-2.9
		c-1.1-5.5-2.1-11-2.9-16.6c-1.2-8.7-2.1-17.4-3.1-26.1c-0.8-7.4-1.5-14.9-2.1-22.3c-0.8-8.9-1.5-17.8-2.2-26.6
		c-0.6-7.3-1-14.5-1.5-21.8c-0.8-11.5-1.5-22.9-2.2-34.4c-0.6-9.1-1.2-18.3-1.8-27.4c-0.7-10.3-1.5-20.6-2.2-30.9
		c-0.5-7.7-1-15.4-1.5-23.1c-0.7-10.2-1.5-20.3-2.2-30.5c-0.1-1.3-0.3-2.6-0.3-3.8c0-1-0.4-1.5-1.3-2c-7-4-13.9-7.9-20.8-12
		c-3-1.8-2.9-1.8-1.9-5.2c1.9-6.2,3.7-12.4,5.5-18.6c0.1-0.2,0.1-0.5,0.1-0.8c-2.4-1.1-4.8-2-7.1-3.3c-2.7-1.5-5.2-3.2-7.7-4.8
		c-0.8-0.5-1.6-0.9-2.4-1.2c-12.7-4.5-25.1-9.5-36.9-16.1c-8.2-4.6-15.7-9.9-21.8-17.1c-3.4-4-6.4-8.4-7.4-13.7
		c-0.3-1.7-0.4-3.6,0-5.3c4-16.2,10-31.7,16-47.2c7.2-18.8,16.3-36.7,25.1-54.8c6-12.4,11.4-25,17-37.6c2.3-5.2,3.4-10.6,3-16.3
		c-0.3-4,0.5-7.4,3.2-10.6c2.8-3.4,3.3-7.7,4.1-11.9c0.2-1.2,0.4-2.3,0.7-3.5c0.4-1.7,1.1-2.2,2.8-2c8.7,1,17.4,0.1,26.1,0.1
		c0.1,0,0.2,0,0.3-0.1c-0.1-2,0.1-2.5,2.2-3c7-1.8,14-3.7,21-5.4c7.5-1.8,15-3.3,22.4-4.9c0.4-0.1,0.7-0.5,0.9-0.8
		c0.2-0.3,0.2-0.7,0.3-1.1c0.4-1.9,0.5-2,2.7-1.2c-0.3-3.3-0.6-6.4-1-9.6c0-0.3-0.7-0.7-1.2-0.9c-4.1-1.6-8.1-3.5-11.7-6.2
		c-0.5-0.4-1.1-0.8-1.6-1.2c-2.4-1.7-3.7-3.9-4.4-6.7c-2.2-9.3-4.3-18.6-5.2-28.1c0-0.4-0.5-1-0.9-1.2c-10.6-5.9-16.6-15-18.5-26.9
		c-1-6.2,0.5-11.9,4.5-16.9c2-2.4,4.4-4.2,7.6-4.4c1.2-0.1,2.3,0.1,3.6,0.2c-0.1-1.9-0.2-3.8-0.4-5.6c0-0.3-0.5-0.6-0.8-0.8
		c-0.7-0.4-1.4-0.6-2-1c-4.3-2.5-5.8-6.2-4.2-10.9c0.8-2.3,2.2-4.5,3.4-6.7c0.2-0.4,0.5-0.8,0.8-1.1c-1.5-0.4-2.8-0.9-4.5-1.4
		c-1.2,0.7-2.8,1.2-4.3,0c-1.7-1.3-2-3.3-1.5-5.2c0.4-1.6,1.4-3,2.2-4.4c0.2-0.4,0.5-0.9,0.4-1.2c-1.4-3.6-0.5-6.7,1.8-9.6
		c0.1-0.1,0.1-0.2,0-0.1c-3.8-2-7.6-3.9-11.3-5.9c-5.4-3-8.6-7.7-9.9-13.6c-0.7-3.3,0.2-6.3,2-9.1c2.1-3.3,5-5.9,8-8.3
		c8.5-6.5,18.2-10.4,28.4-13.2c15.7-4.2,31.6-7,47.8-8.2c6.3-0.5,12.6-0.9,18.8-0.6c6.3,0.3,12.7,1.5,19,2.5
		c13.1,2.2,25.8,5.8,38.3,10c10.8,3.7,20,10,27.8,18.3c4,4.3,4.7,9,3.1,14.4c-1.2,4.1-3.1,7.8-6.5,10.5c-3.3,2.6-7.1,3.4-11.3,3.6
		c2.5,3.6,2.1,7.4,1.4,11.3c-0.1,0.4,0.3,1,0.6,1.5c1.8,2.5,2.4,5.1,1,7.9c-1.4,3-4.6,3.4-6.7,0.9c-0.8-0.9-2.6-1-4.2-0.4
		c1.4,1.8,2.9,3.6,4.2,5.6c2,3,2,6.1-0.2,9.2c-1.5,2.1-3,4.2-5.3,5.5c-0.3,0.2-0.5,0.6-0.5,0.8c0,1.5,0.1,2.9,0.2,4.5
		c0.4-0.1,0.7-0.3,1-0.4c1.4-0.4,2.6-0.1,3.5,1c1.1,1.3,2.1,2.6,3.1,3.9c3.1,3.9,4.6,8.5,4.6,13.4c0.2,8.7-2.5,16.6-7.1,23.9
		C422.5,178.2,420.2,180.2,416.8,180.7z M357.2,853.8c-0.1-1,0.1-2.1-0.2-3.1c-1.1-3-1.6-6.2-1.5-9.4c0.3-12.3,0.6-24.7,0.9-37
		c0.2-11.9,0.2-23.7,0.5-35.6c0.4-18.8,0.8-37.6,1.3-56.5c0.4-14.7,0.8-29.4,1.2-44.2c0.5-14.7,1-29.4,1.6-44.2
		c0.6-12.5,1.3-24.9,2.1-37.4c0.2-2.5,0-5,2-7.3c8.4-9.8,17.7-18.5,27.7-26.6c0.3-0.2,0.6-0.6,0.9-0.7c0.6-0.2,1.2-0.1,1.7-0.2
		c-0.1,0.6,0,1.3-0.3,1.8c-0.4,0.7-1.1,1.2-1.7,1.7c-8.8,7.1-17,14.9-24.8,23.1c-2.1,2.2-3.9,4.4-3.5,7.7c0.1,0.4-0.1,0.9-0.1,1.3
		c-0.6,13.7-1.2,27.4-1.7,41.1c-0.5,14.1-0.9,28.3-1.2,42.5c-0.7,24.5-1.3,49.1-1.9,73.6c-0.4,15.8-0.5,31.6-0.7,47.3
		c-0.1,8.9-0.2,17.7-0.4,26.6c-0.2,7.7-0.5,15.4-0.6,23.2c0,2.7,0.6,5.4,0.9,8.3c21-1.4,41.6-2.7,62.6-4.1c-2-3.9-2.3-7.4,0.5-10.7
		c-0.4-0.4-0.8-0.7-1.1-1c-2.9-2.5-5.7-5-8.6-7.5c-0.9-0.8-1.4-1.7-1.3-3c0.3-7.4,0.5-14.9,0.8-22.3c0.5-11,1-21.9,1.6-32.8
		c0.5-8.9,1.1-17.9,1.8-26.8c0.7-9,1.4-18,2.2-26.9c0.7-8.6,1.4-17.3,2.1-25.9c0.7-9.2,1.5-18.4,2.2-27.6c0.6-8,1.2-16,1.8-23.9
		c0.7-9.6,1.5-19.3,2.2-28.9c0.6-8.4,1.2-16.7,1.8-25.1c0.8-10,1.5-20,2.5-30c0.8-8.7,2-17.4,3-26.1c0.4-3.1,0.9-6.2,1.4-9.6
		c-0.6,0.5-1,0.8-1.4,1.2c-5.6,5.2-11.2,10.4-16.8,15.6c-3.3,3.1-6.7,6.3-10,9.4c-0.8,0.8-1.8,1.2-2.7,0.3c-1.9-1.8-4.1-3.4-5.6-5.5
		c-2.7-3.9-6.1-7-9.7-10c-0.3-0.3-0.7-0.5-1-0.7c-0.2,0.4-0.3,0.6-0.5,0.9c-4.8,9.9-9.5,19.8-14.3,29.7c-0.3,0.6-0.9,1-1.4,1.5
		c0.1-0.7,0-1.4,0.3-2c4.7-9.9,9.4-19.8,14.1-29.6c0.2-0.5,0.4-0.9,0.6-1.5c-7.6-5.4-14.6-11.4-22.9-15.5c-0.5-0.2-1.3-0.3-1.8-0.1
		c-3,1.2-6.1,2.2-8.9,3.8c-6.3,3.7-12.5,7.7-18.7,11.5c-0.1,0.1-0.2,0.2-0.3,0.3c0.1,0.2,0.1,0.4,0.2,0.5
		c5.4,10.6,10.8,21.2,16.2,31.8c0.3,0.7,0.4,1.5,0.5,2.2c-0.6-0.5-1.4-1-1.7-1.6c-4.3-8-8.6-16.1-12.9-24.2
		c-1.4-2.6-2.6-5.2-3.9-7.9c-0.5,0.3-1,0.6-1.4,0.8c-5.3,3.2-10.6,6.4-15.9,9.5c-1.1,0.6-1.4,1.3-1.3,2.5c0.2,3.6,0.4,7.2,0.5,10.9
		c0,0.5,0.1,1,0.1,1.6c1.6-0.9,2.9-0.5,4.3,0.2c0.6,0.3,1.3,0.7,1.9,1c13.9,7.2,27.9,14.3,41.8,21.5c0.2,0.1,0.5,0.2,0.6,0.3
		c0.2,0.2,0.3,0.5,0.4,0.8c-0.3,0.1-0.6,0.4-0.9,0.3c-0.7-0.2-1.4-0.4-2-0.7c-11.5-4.9-22.5-10.7-33.5-16.7
		c-3.2-1.8-6.4-3.6-9.6-5.3c-0.6-0.3-1.6-0.3-2.2,0.1c-0.3,0.2-0.1,1.3-0.1,2c0,0.3,0.1,0.5,0.1,0.8c-0.1,0.7-0.5,1.5-0.5,2.2
		c0,1.3,0.1,2.6,0.2,3.9c0.2,12,0.6,24,0.6,36c0.1,22.9,0.4,45.9-1.7,68.7c-0.6,6.1-1.8,11.9-5.6,17c-3.4,4.5-3.4,9.4-0.7,14.4
		c0.7,1.3,1.2,2.9,1.4,4.4c0.2,1.8,0.1,3.7-0.1,5.6c-0.9,7.7-0.4,15.3,0.2,23c0.7,9.5,1.6,19.1,2.1,28.6c0.5,8.6,0.8,17.2,1,25.9
		c0.3,12.2-0.2,24.4-1.2,36.6c-0.2,2-0.3,4.1,0,6.1c0.9,5.9,1.3,11.8-0.1,17.7c-0.1,0.3-0.1,0.7-0.2,1.1
		C325.9,851.3,341.4,853.3,357.2,853.8z M250.5,499.2c-2,6.8-3.9,13.6-5.9,20.4c1.6,1,3.1,2,4.6,2.8c14.2,7.9,28.4,15.9,42.7,23.8
		c0.4,0.2,1.2,0.2,1.7,0c2.9-1.4,5.7-2.9,8.5-4.4c15.3-8.4,30-17.8,44.8-27c3.5-2.2,7.4-3.9,11.2-5.7c1.5-0.7,3.2-1,4.9-1.5
		c0-0.6,0-1.2,0-1.8c-0.1-19.2-0.2-38.4-0.2-57.6c0-2.8-0.6-5.4-2.4-7.6c-7.5-9.5-14.9-19.2-22.7-28.5
		c-15.2-18.4-30.8-36.4-44.6-55.9c-3.6-5.1-7-10.4-10.3-15.6c-0.6-0.9-0.9-2.2-0.7-3.2c2.3-12.6,4.9-25.2,8.7-37.5
		c1.9-6.1,3.5-12.4,5.3-18.5c0.3-0.9,0-1.4-0.7-2c-4.2-3.7-8.4-7.5-12.5-11.3c-4.8-4.4-9.8-8.4-15.3-12c-1.1-0.7-2.1-1-3.3-0.9
		c-7.6,0.2-15.2,0.4-22.9,0.6c-1.7,0-3.5-0.2-5.3-0.3c-0.3,1.3-0.5,2.6-0.7,3.8c-0.8,4.5-1.6,9.1-4.6,12.7c-2,2.5-2.7,5.1-2.5,8.2
		c0.5,6.8-1,13.2-3.7,19.3c-5.2,11.7-10.2,23.5-15.8,35c-9,18.4-18.3,36.8-25.6,55.9c-5.9,15.4-11.9,30.7-15.8,46.7
		c-0.2,1-0.2,2.1-0.1,3.1c0.6,4.5,2.9,8.2,5.6,11.7c4.8,6.2,10.9,11,17.5,15.2c10.5,6.5,21.7,11.4,33.3,15.8c6,2.2,12,4.3,17.9,6.4
		c7.1-7.9,20.4-33.6,22.9-44.4c-2.1-1.4-4.2-2.8-6.4-4.2c-5.5-3.4-11.2-6.6-15.7-11.4c-3.2-3.3-7.5-3.7-11.5-4.9c1,0.5,2,0.9,3,1.4
		c0.7,0.4,1.7,1.1,1.6,1.6c-0.1,1.2-1.3,0.8-2.2,0.9c-0.3,0-0.6,0-0.9,0c-8.8-0.7-17.7-1.4-26.5-2.1c-0.3,0-0.6-0.4-1-0.6
		c0.4-0.2,0.8-0.5,1.1-0.5c4.9,0.1,9.7,0.2,14.6,0.5c3.2,0.1,6.4,0.5,9.6,0.7c-1-0.7-2.2-1.2-3.3-1.7c-6-2.8-12-5.5-18-8.3
		c-0.8-0.3-1.6-0.8-1.1-1.8c0.4-1,1.3-0.7,2.1-0.4c0.4,0.1,0.8,0.3,1.2,0.5c8.4,3.1,16.8,6.1,25.2,9.3c1.6,0.6,2.5,0.3,3.5-1
		c4.9-7,9.9-14,14.8-21c0.2-0.3,0.3-0.7,0.3-1.1c-0.4-4.3-0.8-8.6-1.2-13c-0.8-8.2-1.6-16.5-2.5-24.7c-0.3-2.8-0.5-5.6-0.9-8.4
		c-0.4-2.7-0.4-5.4-1.8-8.1c-1.7-3.3-2.4-7.2-3.8-10.7c-4.3-10.9-8.6-21.8-12.9-32.7c-0.2-0.5,0-1-0.1-1.5c0.4,0.3,0.8,0.7,1.1,1
		c0.1,0.1,0.1,0.2,0.1,0.3c6,11.7,11,23.7,15.1,36.2c0.1,0.3,0.3,0.6,0.4,0.9c0.1-1.1,0-2.2-0.2-3.3c-1-8-1.9-16-3-23.9
		c-1.1-7.3-2.4-14.6-3.6-21.8c-0.1-0.3,0.2-0.7,0.3-1.1c0.3,0.2,0.7,0.4,0.8,0.7c0.6,1.5,1.4,3.1,1.8,4.7c1.2,6,2.6,11.9,3.4,17.9
		c2.2,17.2,4.2,34.4,6,51.6c1.4,12.8,2.5,25.6,3.5,38.5c1,11.6,1.8,23.2,2.7,34.8c0,0.5,0.5,1.3,0.9,1.6c2,1.3,4.1,2.6,6.2,3.7
		c5.1,2.9,10.2,5.7,15.5,8.6c-0.2-3.5-0.4-6.7-0.5-9.9c0-0.8-0.6-2.3,0.8-2.4c1.3-0.1,1.1,1.4,1.2,2.2c0.3,4.6,0.7,9.1,0.7,13.7
		c0.1,10.8-1.1,21.5-2.7,32.2c-1.1,7.5-2.6,14.9-5.7,21.9c-0.2,0.5-0.8,0.9-1.1,1.4c0-0.6-0.2-1.2,0-1.8c0.6-2.8,1.3-5.5,1.8-7.8
		c-3.7-2.1-7-4.1-10.4-6c-1.1,2.2-2.2,4.6-3.4,6.9c-1.1,2.3-1.8,2.5-4,1.3C256.4,502.2,253.6,500.7,250.5,499.2z M439.5,430.5
		c0.6-0.4,0.9-0.6,1.2-0.9c9.3-8.1,19.4-15.2,29.5-22.3c0.5-0.3,1-0.7,1.5-0.8c0.4-0.1,1,0.1,1.2,0.4c0.2,0.3,0.1,1-0.1,1.3
		c-0.5,0.7-1.2,1.2-1.8,1.8c-9.4,8.8-18.8,17.6-28.2,26.4c-0.3,0.3-0.7,0.7-1,1c2.3-0.8,4.5-1.9,6.8-2.8c6.7-2.7,13.4-5.5,20.5-6.9
		c1.8-0.3,3.6-0.6,5.4-0.8c0.3,0,0.6,0.3,0.9,0.5c-0.2,0.2-0.4,0.5-0.6,0.7c-0.1,0.1-0.4,0.1-0.5,0.1c-8,2.8-16.1,5.5-24.1,8.3
		c-0.5,0.2-0.9,0.4-1.5,0.7c0.4,0.2,0.7,0.3,0.9,0.3c15.3,3.6,29,10.3,40.3,21.5c0.3,0.3,0.7,0.6,0.9,0.9c0.1,0.2,0.1,0.6,0.1,0.9
		c-0.3,0-0.6,0-0.9-0.1c-0.2-0.1-0.4-0.3-0.5-0.5c-11-9.9-23.9-16.5-38-20.9c-3.5-1.1-6.6-1.3-9.7,0.8c-0.3,0.2-0.8,0.4-1.2,0.6
		c-3.7,1.8-3.8,1.8-3.4,5.9c1.1,13,2.1,25.9,3.2,38.9c0.2,2.1,0.5,4.2,0.8,6.4c0.7-0.1,1.2,0,1.6-0.2c2-0.7,4-1.4,6.1-2.1
		c9.3-3.2,18.5-6.4,27.8-9.4c7.5-2.4,13.8-6.2,18.1-12.9c0.4-0.6,0.7-1.4,0.6-2.1c-0.4-3.8-0.8-7.6-1.3-11.4
		c-2.1-14.5-4.3-28.9-6.3-43.4c-2.1-14.9-3.9-29.8-6-44.7c-1.7-11.8-3.5-23.5-5.6-35.3c-3.2-17.9-7.7-35.4-12.8-52.8
		c-1-3.4-1.9-6.8-2.9-10.2c-2.9-0.1-5.7-0.1-8.4-0.4c-3-0.3-6-0.8-9-1.5c-0.9-0.2-1.7-1-2.8-1.7c-0.7,0.6-1.8,1.4-2.8,2.3
		c-7.8,6.6-14.7,14-20.5,22.4c-0.4,0.5-0.6,1.3-0.5,1.9c1.5,9.5,4.5,18.6,7.5,27.7c2.6,8,5.5,15.9,8.3,23.9c0.4,1.1,0.6,2.2-0.3,3.3
		c-2.4,3.2-4.8,6.4-6.9,9.8c-18.5,31-38.8,60.8-59.2,90.6c-0.8,1.1-1.1,2.2-1.1,3.6c0.2,19.2,0.4,38.4,0.6,57.6
		c0,0.5,0.4,1.2,0.8,1.5c5.7,4.2,11.5,8.3,17.3,12.5c6.5,4.8,13.1,9.6,17.7,16.5c1,1.5,2.5,2.5,3.8,3.8c12.3-11.2,23.5-23.1,36.7-33
		c-1.6-3.3-2.1-6.9-2.5-10.6c-0.4-3.6-0.6-7.3-1.1-10.9c-0.5-4.5-1.4-9-1.7-13.6c-0.8-11.6-1.5-23.3-2-35c-0.5-9.3,1-18.4,1.8-27.6
		c1-10.7,2.1-21.3,3.3-32c1.1-10.3,2.3-20.6,3.5-30.9c1.5-12.3,3-24.6,4.5-36.9c0.3-2.3,0.7-4.5,1.1-6.8c0.1-0.3,0.5-0.6,0.8-0.9
		c0.2,0.3,0.6,0.6,0.6,1c0.1,0.6,0,1.1-0.1,1.7c-0.6,6.7-1.2,13.4-1.9,20.1c-0.8,8.2-1.8,16.4-2.7,24.6c-0.5,4.5-1,8.9-1.5,13.4
		c0.4-0.4,0.7-0.8,0.9-1.3c5.6-11.5,11.2-23,16.8-34.5c0.2-0.5,0.6-0.9,1-1.3c0.2,0.1,0.3,0.1,0.5,0.2c-0.1,0.5-0.1,1-0.3,1.4
		c-5.9,13.7-11.9,27.4-19.1,40.6c-0.3,0.5-0.4,1.1-0.5,1.6c-0.6,5.5-1.2,11-1.8,16.5c-0.8,8.2-1.7,16.4-2.4,24.6
		c-0.7,7.3-1.3,14.5-1.9,21.8c-0.2,2.1-0.3,4.3-0.4,6.4c7.5-7.3,14.9-14.5,22.2-21.7c-0.3,0.1-0.6,0.3-0.9,0.6
		c-5.6,4.4-11.2,8.7-16.8,13.1c-0.8,0.6-1.6,1.7-2.7,1c-1.2-0.7-0.7-2-0.4-3c1.8-6.1,3.7-12.1,5.5-18.2c0.1-0.2,0.1-0.4,0.2-0.5
		c0.2-0.2,0.4-0.3,0.7-0.4c0.1,0.2,0.3,0.5,0.3,0.7c0,0.3-0.1,0.6-0.2,1c-0.9,3.1-1.8,6.2-2.6,9.3
		C441,424.6,440.3,427.4,439.5,430.5z M268.8,536.6c0.1,1,0.1,1.6,0.1,2.3c0.4,4.9,0.9,9.8,1.3,14.7c0.6,8.4,1.2,16.8,1.8,25.2
		c0.8,11.5,1.7,22.9,2.5,34.4c0.7,9.9,1.4,19.9,2.1,29.8c0.8,11.2,1.5,22.3,2.2,33.5c0.5,7.5,1,14.9,1.5,22.4
		c0.8,10.3,1.6,20.6,2.5,30.9c0.7,8.6,1.5,17.3,2.4,25.9c0.9,8.9,1.9,17.8,3.1,26.7c0.7,5.7,1.7,11.4,2.9,17
		c0.6,2.5,0.1,4.1-1.6,5.9c-3.5,3.5-6.9,7.1-10.3,10.7c-0.7,0.8-1.3,1.6-2,2.4c-0.5,0.6-0.4,1.1,0.3,1.5c0.9,0.6,1.9,1.1,2.8,1.8
		c2.2,1.6,3.3,3.7,2.4,6.3c-0.9,2.6-2.2,5-3.4,7.5c-0.9,1.7-1.9,3.3-3.1,5.3c10.9,2.4,21.5,4.8,32.1,7.1c0.3-1.2,0.7-2.2,0.7-3.2
		c0.1-3.6,0.2-7.2,0.1-10.8c-0.1-2.6-0.8-5.1-0.7-7.6c0.2-7.1,0.9-14.2,1-21.3c0.1-10.1,0.2-20.1-0.2-30.2
		c-0.4-11.7-1.2-23.4-2.1-35.1c-0.8-11-1.9-21.9-0.7-33c0.3-2.8-0.2-5.3-1.6-7.8c-2.5-4.7-2.2-9.3,0.4-13.9c0.6-1.1,1.3-2.1,2-3.2
		c1.5-2.2,2.6-4.6,2.9-7.2c0.6-4.6,1.4-9.3,1.6-13.9c0.5-11.9,1-23.8,1.2-35.7c0.4-26.4,0-52.7-0.8-79.1c-0.1-2.1,0-4.3,0-6.7
		c-0.8,0.4-1.3,0.7-1.7,0.9c-4.8,2.7-9.7,5.2-14.5,8c-2.3,1.3-4.2,1.3-6.6-0.1C282.7,544.1,275.9,540.5,268.8,536.6z M423.1,83.9
		c0,0.1,0,0.1,0,0.2c1.8,0,3.6,0,5.4,0c4.9-0.1,9.3-1.6,12.1-5.8c1.3-1.9,2.2-4.1,2.9-6.3c1.4-4.3,0.8-8.2-2.5-11.6
		c-7.6-8-16.5-14.1-26.9-17.6c-13.7-4.6-27.7-8.5-42-10.6c-6.1-0.9-12.2-1.9-18.3-1.9c-7-0.1-14.1,0.6-21.1,1.3
		c-14.1,1.3-27.9,4-41.5,7.7c-10.1,2.8-19.6,6.8-27.8,13.4c-2.6,2.1-5,4.4-6.7,7.4c-1,1.8-1.6,3.8-1.2,5.9c0.9,4.8,3.1,8.8,7.4,11.4
		c3.5,2.1,7.2,4,10.8,5.9c1.5,0.8,3,1.5,4.8,1.2c0.3-0.1,0.8,0.1,1.1,0.3c0.8,0.7,1.5,0.4,2.4,0.1c0.6-0.3,1.3-0.4,1.9-0.6
		c16.2-5,32.9-7.2,49.8-7.7c17.6-0.5,35.3-0.1,52.8,2c8.7,1,17.3,2.7,25.6,5.7c0.7,0.3,1.5,0.4,2.2,0.3
		C417.2,84.3,420.2,84.1,423.1,83.9z M266.6,252c2.7,1.9,5.1,3.4,7.4,5c8.9,6.3,16.1,14.4,24.4,21.3c0.5,0.4,0.8,1.6,0.6,2.3
		c-0.4,2.5-0.9,5-1.7,7.4c-5.1,16.1-9.4,32.3-12.2,49c-0.1,0.8,0,1.8,0.4,2.5c1.6,2.7,3.2,5.4,5,8c12.2,17.6,25.7,34.2,39.4,50.6
		c11.2,13.5,22.7,26.7,33,40.9c0.1,0.2,0.3,0.2,0.7,0.5c-0.1-1.5,0-2.8-0.3-4c-6.8-30.3-13.5-60.6-20.5-90.9
		c-5.6-24.2-11.9-48.2-19.9-71.7c-1.1-3.4-1.1-3.3-4.8-3.6c-3.7-0.3-7.4-0.8-11-1.3c-1.3-0.2-2.1-1-1.9-2.4c0.6-4.7,1.2-9.3,1.8-14
		c0.4-3.2,0.9-6.4,1.5-10C294.5,245.2,280.7,248.6,266.6,252z M366.7,440.4c0.4-0.5,0.6-0.8,0.9-1.2c1.3-1.9,2.6-3.9,3.9-5.8
		c17.6-26.2,35.1-52.4,51.2-79.5c1.5-2.5,2.9-5.2,4.9-7.2c2.1-2.2,2.1-4,1.1-6.6c-5.6-16-11.6-31.8-14.7-48.6
		c-0.3-1.7,0-2.9,0.9-4.2c7-10.2,15.5-18.8,25.2-26.4c0.4-0.3,0.8-0.6,1.3-1c-0.3-0.2-0.4-0.3-0.5-0.3c-14.4-3.2-28.4-7.8-42.1-13.5
		c-0.5-0.2-1.1,0-1.8,0c0.1,0.8,0.2,1.3,0.3,1.7c1.8,7.1,2.2,14.3,1.9,21.6c0,1.1-0.4,1.9-1.6,2c-0.6,0.1-1.3,0-2-0.1
		c-2.3-0.4-4.6-0.9-6.9-1.3c-0.1,0.3-0.2,0.6-0.2,0.8c-1,6.3-2,12.6-2.9,18.9c-2.7,18.1-5.5,36.1-8.2,54.2c-2.5,17-5,34.1-7.2,51.2
		c-1.6,12.2-2.8,24.5-4.2,36.8C365.6,434.7,365.7,437.5,366.7,440.4z M339.2,178.1c-4.9,1.8-9.6,3.7-12.1,8.6c-1.1,2.2-3,3.6-5.4,4
		c-3.2,0.6-6.5,0.5-9.6-0.4c-4.2-1.2-7.1-4.1-9.4-7.7c-2.7-4.3-4.2-9-5.2-14c-0.1-0.7-0.1-1.6-1.1-1.9c-2-0.6-3.2-2.1-3.8-4
		c-0.6-2-1.2-4.1-1.6-6.2c-0.7-3.7-1.2-7.4-1.8-11.1c-0.7-0.1-1.4-0.2-2.1-0.2c0.7,9.4,1.5,18.7,2.1,28c0.9,13.3,3,26.4,6.5,39.2
		c0.2,0.9,0.8,2,1.5,2.5c3.1,2.2,6.1,4.6,9.6,6.2c8.7,4.1,17.4,8.1,26.5,11.2c3.5,1.2,6.9,2.4,10.4,3.5c1.5,0.5,2.9,0.2,4.1-0.9
		c0.9-0.9,1.9-0.8,2.8,0c0.7,0.6,1.3,1.3,2.1,1.6c0.6,0.2,1.8,0.2,2.1-0.2c1.3-1.7,2.6-1.3,4.1-0.5c2.5,1.2,3.8,0.8,5.6-1.3
		c1.4-1.7,1.9-1.7,3.6-0.2c1.6,1.4,3.1,1.5,4.7,0.1c0.7-0.6,1.2-1.3,1.7-2.1c1.1-1.8,1.6-1.8,3-0.2c5.5-1.9,11-3.7,16.5-5.8
		c5.4-2,10.4-4.8,14.1-9.4c1.4-1.7,2.9-3.7,3.3-5.7c1.1-5.6,1.9-11.4,2.3-17.1c0.5-7.1,0.4-14.3,0.6-21.4c0.1-2.4,0-4.8,0-7.2
		c-0.8,0.3-1.7,0.7-2.7,1c-0.7,0.2-1,0.5-1,1.2c-0.3,2.5-0.6,4.9-1.1,7.3c-1.1,5.2-3.5,9.7-7.9,12.8c-4.1,2.9-8.1,2.7-11.9-0.6
		c-1.5-1.3-2.8-2.7-4.2-4.1c-2.7-2.9-6.1-4.9-9.6-6.6c-1.1-0.5-2.4-0.6-3.8-1c0.7,1.3,1.3,2.3,1.7,3.3c0.9,1.9,0.7,2.9-0.8,4.3
		c-1.9,1.7-4.2,3-6.7,3.7c-0.4,0.1-0.9,0.3-1.2,0.6c-3.4,3.7-7.5,4.1-11.8,2c-3-1.5-6.1-2.3-9.4-2.6c-0.5-0.1-1-0.2-1.5-0.4
		c-1.7-0.5-2.9-1.6-3.2-3.3C339,181.6,339.2,180,339.2,178.1z M470.1,870.7c-0.2-0.7-0.3-1-0.4-1.3c-2.7-5.9-6.2-11.1-10.9-15.6
		c-1.9-1.8-4.2-2.9-6.8-3.4c-4.3-0.9-8.7-0.7-13.1-0.4c-5.7,0.4-11.4,0.7-17.1-0.4c-1.7-0.4-3.5-0.8-5.2-0.8
		c-4,0.1-8.1,0.6-12.1,0.8c-13,0.8-26.1,1.5-39.1,2.3c-1.8,0.1-3.7,0.2-5.6,0.3c0,0.4,0,0.8,0.1,1.1c1.6,4.7,3,9.4,4.8,14
		c1.8,4.4,5.1,7.7,9.4,9.8c2.7,1.3,5.5,2.5,8.3,3.4c16.3,5.4,33,9,50.2,10.2c7.3,0.5,14.7,0.6,21.9-1c5.7-1.2,10.7-3.5,13.9-8.7
		c1.3-2.2,2.1-4.5,2.1-7c0-0.5-0.2-1.2-0.6-1.5c-2.8-2.3-6.2-2.5-9.3-0.7c-1,0.6-2,1.4-3,2c-2.1,1.3-4.1,2.8-6.3,3.9
		c-14.3,7.1-29.4,8.1-44.8,4.7c-12.9-2.8-24.2-8.9-35.2-15.9c-0.3-0.2-0.5-0.8-0.7-1.1c0.5,0.1,1,0,1.4,0.2c6.5,3,12.9,6.2,19.5,9.1
		c8.1,3.6,16.5,6,25.3,6.7c14.6,1.2,28.4-1.3,40.5-10.1C461.3,868.5,465.4,867.3,470.1,870.7z M354.3,856.6
		c-4.1-0.3-8.1-0.4-12.1-0.8c-12.9-1.1-25.6-3.4-38.2-6c-4.2-0.9-8.3-2.1-12.8-0.7c-3,1-6.5,0.3-9.8,0.5c-8,0.4-15.9,1.6-23.5,4.2
		c-3.7,1.3-7.1,3.2-9.6,6.5c-3.1,4.2-5.2,8.9-6.2,14c-0.2,0.8,0.1,1.2,0.8,1.5c2.4,1,4.8,1.5,7.4,0.8c1.6-0.4,3.2-0.9,4.8-1.5
		c4.9-1.7,9.9-2.7,15.1-2.8c6.3-0.1,12.3,1.4,18.1,3.6c10.4,3.9,21.1,4.6,31.9,2.4c10.3-2.1,19.8-6,28.5-11.9
		c0.3-0.2,0.8-0.2,1.3-0.2c-0.1,0.4-0.1,1-0.3,1.2c-1,1-2.1,2-3.3,2.7c-11.5,7.3-24,11.7-37.7,12c-8,0.2-15.6-1.5-23-4.4
		c-7.3-2.8-14.7-3.6-22.3-2.1c-3.8,0.7-7.4,2.1-11.1,3.2c-3.5,1-6.9,1.1-9.9-1.4c0,0-0.2,0-0.3,0.1c-0.2,4.3,0.9,6.1,4.8,7.7
		c8.8,3.6,18.1,5.4,27.5,5.8c14.2,0.6,28.3-0.9,42.1-4.2c9.4-2.3,18.5-5.5,26.9-10.5C350.7,871.8,353.8,865.1,354.3,856.6z
		 M404.5,129c1.3-0.1,3.1,0,4.9-0.3c5.5-0.7,10.3-2.5,13.3-7.7c1-1.7,1.1-3.3,0.3-5c-1.5-2.9-3.6-5.3-6.5-6.9
		c-0.6-0.3-1.4-0.6-2.1-0.6c-3.8,0-7.6,0.1-11.4,0.2c-31.6,0.3-63.1,0.6-94.7,0.8c-8,0-16-0.6-24-0.9c-0.6,0-1.4,0.3-1.7,0.7
		c-1.4,2.2-3,4.5-3.9,6.9c-1.7,4.3-0.1,7.3,4.2,9.1c0.7,0.3,1.4,0.6,2.2,0.7c6.3,1.4,12.6,1.5,18.9,0.9c10.4-1,20.7-2.1,31.1-3.1
		c14.2-1.4,28.3-0.1,42.3,2.3C386.1,127.6,395,128.5,404.5,129z M353,286c-0.1,0.4-0.2,0.5-0.2,0.6c-0.4,9.4-0.9,18.8-1.3,28.3
		c-0.2,6.3-0.1,12.6-0.4,18.9c-0.4,8.8-1,17.7-1.5,26.5c-0.1,1.2,0,2.4,0.3,3.5c4,18.5,8.1,37,12.2,55.5c0.6,2.6,1.2,5.3,1.8,8.3
		c0.6-6.2,1.2-12,1.8-17.8c1.3-10.5,2.6-21.1,3.9-31.6c0.2-1.8,0.7-3.6,0.6-5.4c-0.5-6.3-1.3-12.6-1.9-18.9c-0.9-10-1.6-20-2.4-30
		c-1-11.5-2.1-23-3.1-34.4c-0.2-1.7-0.4-3.3-0.6-5.3C359.5,287.1,356.6,288.4,353,286z M408.1,167.2c-9.5,1.4-18.8,1.2-28.2,0.8
		c0.2,1.9,1.6,3.4,1.1,5.4c-0.5-0.3-0.8-0.6-1.1-1.1c-0.7-1.2-1.4-2.5-2.2-3.7c-0.3-0.4-0.9-0.8-1.4-0.9c-2.9-0.5-5.8-0.9-8.7-1.4
		c-5.2-0.9-5.9-1.6-6.6-6.8c-0.1-1.1-0.6-1.6-1.6-1.6c-3.3-0.1-6.5-0.2-9.8-0.2c-0.8,0-1.1,0.5-1.1,1.3c-0.1,1.1-0.3,2.3-0.4,3.4
		c-0.4,2.5-1.8,4-4.4,4.4c-2.3,0.4-4.6,0.8-6.9,1.1c-0.9,0.1-1.4,0.5-1.8,1.3c-0.5,1.3-1.2,2.6-2,3.8c-0.3,0.4-0.8,0.7-1.2,1.1
		c-0.1-0.5-0.2-1-0.1-1.5c0.2-1.3,0.6-2.6,0.9-4c-11,0.8-21.8,0.9-32.7-0.7c0.9,4.6,2.3,8.7,4.4,12.7c3.2,5.9,8.2,8.3,14.8,8
		c2.6-0.1,4.7-1,5.9-3.5c1-2.2,2.7-3.8,4.7-5.1c2.7-1.9,5.6-3.2,8.8-3.9c1.7-0.4,3.3-0.7,4.6-2c0.4-0.4,1.2-0.7,1.8-0.8
		c0.5-0.1,1.1,0,1.7,0c-0.2,0.5-0.4,1-0.7,1.4c-1.2,1.4-2.6,2.7-3.6,4.2c-1.7,2.4-0.7,4.9,2.2,5.2c3.6,0.4,6.9,1.5,10.2,3.1
		c0.8,0.4,1.7,0.7,2.6,0.7c1.2,0,2.9,0.1,3.6-0.6c2.3-2.2,5.1-3.2,7.9-4.3c0.3-0.1,0.7-0.4,1-0.6c2.2-1.4,2.3-1.5,1-3.8
		c-0.8-1.5-1.7-2.9-2.5-4.3c-0.2-0.3,0-0.9-0.1-1.3c0.4,0,0.8,0,1.2,0c0.4,0,0.8,0.1,1.2,0.2c2.3,0.4,4.8,0.4,6.9,1.3
		c4,1.8,7.7,4.2,10.6,7.6c1.2,1.4,2.6,2.6,3.9,3.7c2,1.7,4.4,2,6.6,0.6c1.8-1.2,3.6-2.6,5-4.4C407.1,177.7,407.6,172.5,408.1,167.2z
		 M420.7,105.3c-0.6-0.3-0.7-0.4-1-0.5c-20.1-6.5-40.7-9.6-61.8-10.3c-17.9-0.6-35.8,0.4-53.6,2.8c-8.2,1.1-16.2,2.6-24.2,4.9
		c-1.8,0.5-2.3,1.8-3,3.5c7.8,0.3,15.3,0.8,22.8,0.8c23.3,0,46.5-0.3,69.8-0.5c15.3-0.1,30.7-0.4,46-0.6
		C417.3,105.6,418.8,105.4,420.7,105.3z M366.4,236.2c-2.6,3.4-5.8,3.4-9.2,1.6c-2.7,2.5-3.9,2.4-8.1-0.6c-2.1,1.8-4.6,1.7-7.1,1
		c-1.7-0.5-3.5-1.1-5.1-1.7c-7.3-2.8-14.5-5.7-21.8-8.6c-0.5-0.2-0.9-0.3-1.3-0.5c0.3,3.4,0.5,6.7,0.8,9.9c0,0.4,0.4,1,0.8,1.2
		c11.7,7.3,23.5,14.5,35.3,21.7c0.6,0.4,1.3,0.9,2,1.1c3.4,1,6.8,0.7,9.9-1.2c8.6-5.3,17.1-10.9,25-17.4c1.6-1.3,2.4-2.6,1.9-4.7
		c-0.3-1.4-0.1-3-0.1-4.6c0-0.9,0.3-1.7,0.4-2.6c-2.1,0.5-3.9,1-5.8,1.4c-1.9,0.4-3.8,0.8-5.7,1.1c-1,0.1-1.7,0.5-2.3,1.4
		C373.3,238.3,370,238.7,366.4,236.2z M385.8,269.7c-2.1-0.7-3.9-0.6-5.8,0.8c-2.1,1.6-4.4,2.9-6.8,3.8c-3.5,1.3-6.3,3.3-8,6.7
		c-0.3,0.5-0.5,1.2-0.4,1.8c0.7,6.2,1.4,12.3,2.1,18.4c0.8,7.5,1.4,15,2.1,22.5c0.8,8.7,1.5,17.4,2.2,26c0.3,3.8,0.6,7.5,0.9,11.3
		c0,0,0.1,0,0.1,0C376.6,330.6,381.2,300.2,385.8,269.7z M324.8,269.6c4,13.7,8.3,27.4,12.1,41.2c3.8,13.7,7,27.6,10.5,41.4
		c0.4-8.8,0.7-17.6,1-26.4c0.2-5.8,0.4-11.5,0.7-17.3c0.4-7.8,1-15.5,1.5-23.3c0-0.6-0.3-1.3-0.7-1.9c-1.3-1.8-2.7-3.5-4.1-5.1
		c-0.5-0.6-1.1-1.1-1.8-1.5c-3.9-2-8-3.6-11.7-5.9C329.7,269.3,327.2,269.5,324.8,269.6z M266.4,446.3c-4.8,16.5-13.1,31.2-23.2,45
		c0.9,1.6,2.2,2.7,4,3.4c1.5,0.5,2.9,1.3,4.3,2c3.1,1.5,6.1,3.1,9.3,4.7c7.6-15.6,13.6-31.7,20.5-47.2
		C276.4,451.5,271.6,449,266.4,446.3z M336.7,165c2.3-0.4,4.2-0.8,6.2-1c1.6-0.2,2.4-1.1,2.5-2.6c0.1-0.5,0.2-0.9,0.2-1.4
		c0-0.4-0.2-0.8-0.4-1c-1-0.7-0.7-1.4-0.1-2.2c0.4-0.5,0.8-1,0.8-1.5c0-5.1-0.2-10.2-1.5-15.2c-0.3-1.2-1-1.8-2.2-1.9
		c-2.7-0.3-5.4-0.8-8.1-0.8c-6.9,0-13.9-0.1-20.8,0.3c-5.2,0.3-10.4,1.2-15.6,1.8c-1.2,0.1-1.5,0.6-1.3,1.8
		c0.9,7.2,1.9,14.3,2.7,21.5c0.2,1.5,0.8,2,2.2,2.2c6.6,1,13.3,1.2,20,1c3.6-0.1,7.1-0.3,10.7-0.5c0.7,0,1.8-0.3,2-0.7
		c1.3-3,2.3-6.1,3.6-9.4c-1.2,0.6-2.1,1.1-3,1.5c-4.9,2.4-9.9,3.8-15.5,2.6c-4.6-1-8.7-3-12.2-6.2c-2.1-1.9-2.1-3.3,0-5.3
		c3.4-3.3,7.5-5.5,12.1-6.7c1.4-0.4,3.1-0.5,4.5-0.3c5.8,0.9,10.5,4,14.4,8.3c2,2.2,2.7,4.4,1.5,7.3
		C338.3,159.5,337.6,162.2,336.7,165z M375.8,164.6c-0.3-0.7-0.5-1.1-0.7-1.5c-1.4-2.9-2.8-5.7-4-8.7c-0.5-1.1-0.8-2.8-0.3-3.8
		c3.3-7,8.1-11.9,16.4-12.6c7.7-0.7,12.6,3.3,15.5,10c0.5,1.2,0.3,2.3-0.5,3.2c-5.4,5.6-11.8,8.7-19.7,7.4c-3.1-0.5-5.9-1.8-8.8-3.7
		c1.6,3.3,3,6.3,4.5,9.2c0.2,0.4,0.8,0.7,1.2,0.7c2.5,0.2,5,0.4,7.6,0.3c6.5-0.2,13-0.5,19.5-0.7c1.4-0.1,2-0.6,2-2.1
		c0.1-5.7,0.3-11.3,0.5-17c0.1-2.3,0-4.6,0-7.1c-0.7-0.1-1.4-0.3-2.2-0.3c-6.6-0.6-13.2-1.4-19.8-1.5c-6.5-0.1-12.9,0.6-19.4,0.9
		c-1.8,0.1-2.6,1.1-2.9,2.7c-1.3,6.2-1.6,12.6-1,18.9c0.4,3.9,0.6,3.9,4.5,4.5c0.2,0,0.4,0.1,0.6,0.1
		C371,163.9,373.3,164.2,375.8,164.6z M419,90.9c-3.4-0.5-6.7-1.1-10-1.6c-9.8-1.3-19.6-2.7-29.5-3.8c-9.1-1-18.3-1.8-27.5-2.2
		c-13.5-0.6-27,0.3-40.3,2.2c-9.3,1.4-18.6,3.1-27.6,5.8c-1.7,0.5-3.2,1-3.8,2.9c-0.1,0.4-0.6,0.8-0.8,1.2c-0.2,0.4-0.3,0.8-0.4,1.2
		c0.4,0,0.9,0.2,1.3,0c15.2-5.5,31-8.3,47.1-8.8c19.5-0.6,39.1-0.2,58.5,2.2c11.4,1.4,22.4,3.9,32.8,8.8c0.6,0.3,1.3,0.5,1.9,0.7
		c0.3-0.9,0.6-1.8,0.8-2.6C419.7,95.5,418.9,93.4,419,90.9z M349.8,263c-1.3-0.7-2.6-1.3-3.8-2c-8.8-5.5-17.5-10.9-26.2-16.5
		c-2.2-1.4-4.2-3.2-6.5-4.7c-1.5-1-2-0.7-2.2,1.1c-0.8,5.7-1.5,11.3-2.2,17c-0.3,2.5-0.6,5-0.9,7.8C322.2,267.5,336.1,267,349.8,263
		z M372.5,128.5c-7.9-2.3-32.8-3-44.4-1.3c0.8,0.2,1.5,0.3,2.2,0.4c3.5,0.7,7,1.5,10,3.6c1.4,1,2.9,2,3.2,4c0,0.3,0.6,0.4,0.8,0.7
		c0.8,0.9,1.9,1.7,2.3,2.7c0.7,2.2,1.2,4.4,1.4,6.7c0.4,3.2,0.5,6.4,0.7,9.8c3.9-0.5,7.8-1.2,11.8,0c0-1.2-0.1-2.3,0-3.4
		c0.4-3.8,0.6-7.7,1.2-11.5c0.5-3.6,2.5-6.5,5.6-8.5C369.2,130.6,370.8,129.6,372.5,128.5z M419.2,89.1c-0.2-0.1-0.4-0.3-0.5-0.3
		c-5.5-1.9-10.9-4.2-16.4-5.7c-11.7-3.1-23.8-4-35.9-4.6c-17.2-0.7-34.4-0.9-51.5,1c-10.7,1.2-21.1,3.3-31.4,6.4
		c-0.7,0.2-1.3,0.5-1.8,0.7c0.1,1.4,0.2,2.6,0.3,3.9c0.7-0.2,1.2-0.4,1.8-0.6c16.9-5.2,34.2-7.5,51.7-8.2
		c17.1-0.7,34.2,0.6,51.2,2.9C397.4,86,408.3,87.5,419.2,89.1z M279.6,100.9c0.3-0.1,0.6-0.1,0.9-0.2c7.1-2.3,14.5-3.7,21.9-4.8
		c10.2-1.5,20.5-2.4,30.9-2.9c16.8-0.9,33.5-0.3,50.2,1.9c12,1.6,23.7,4.2,35.2,7.8c0.9,0.3,1.9,0.5,2.9,0.8c0-1.3-0.6-1.8-1.6-2.3
		c-11.1-5.2-22.8-8.5-35.1-9.7c-8.9-0.9-17.9-1.5-26.8-1.9c-13-0.5-25.9-0.5-38.9,0.6c-12.8,1.1-25.3,3.6-37.5,7.6
		C279.5,98.4,279.5,98.5,279.6,100.9z M286.2,179.5c0.1-0.1,0.3-0.2,0.4-0.3c-0.2-2.6-0.4-5.3-0.6-7.9c-0.6-9.1-1.2-18.1-1.8-27.2
		c-0.1-0.7-0.2-1.5-0.5-2.2c-0.5-1.5-1.1-2.9-1.8-4.7c-2.2-0.6-4.7,0.2-7,2.7c-3.9,4.2-5.2,9.3-4.6,14.9c0.9,7.9,4.6,14.5,10.2,20.1
		C282.3,176.6,284.3,178,286.2,179.5z M362.6,263.5c11.1,1.5,22.3,3.1,33.5,4.7c0.9-4.6-1.4-23.6-3.3-26.4
		C383.8,250.4,373.1,256.8,362.6,263.5z M342.3,267.9c3,5.4,6.1,10.5,10.4,14.5c3.3,3.1,4.9,3,8-0.3c0.8-0.8,1.6-1.7,2.2-2.6
		c2.3-3.5,4.6-7.1,6.8-10.7c0.2-0.3,0.4-0.7,0.6-1.2c-1.3-0.2-2.4-0.3-3.5-0.5c-3.5-0.5-7-1-10.5-1.5
		C351.5,264.9,347.3,267.5,342.3,267.9z M417.2,178.3c1.3-1,2.6-1.7,3.4-2.8c1.6-2.4,3.2-4.9,4.3-7.5c2.6-6.3,4.3-12.7,3.1-19.6
		c-0.5-2.9-1.6-5.6-3.6-8c-0.7,2.1-1.2,4.2-3.9,3.7C418.1,155.3,416.7,166.5,417.2,178.3z M255.1,405.2c-4.2,6-8.3,11.9-12.3,17.8
		c-1.2,1.7-0.8,4,0.9,5.2c4.5,3.1,9.1,6.1,13.6,9.2c0.1,0.1,0.3,0.1,0.7,0.2C257.1,426.7,256.1,416,255.1,405.2z M282.3,458.1
		c-1.7,4.3-3.5,8.5-5.2,12.8c-2.9,6.9-5.8,13.8-8.6,20.7c-0.2,0.6-0.3,1.8,0,2c2.9,1.9,6,3.6,9.1,5.5
		C279.6,491.5,282.9,464.2,282.3,458.1z M307.5,150.8c4.7,8.1,21.3,9.2,30.2,2c-0.3-0.3-0.6-0.7-0.9-1.1c-3.1,3.4-6.8,4.3-10.9,2.7
		c-4.8-1.9-6.8-5.5-6-10.7C315,145.1,310.8,147.2,307.5,150.8z M303.9,135.6c12.5-1.3,24.9-2.2,37.5-0.4
		C336.2,128.1,313.4,126.5,303.9,135.6z M389.2,140.2c-2.2,0.4-4.2,0.7-6.1,1.2c-0.5,0.1-1,0.6-1.2,1c-1.3,2.7-0.3,6.2,2.1,7.9
		c2.4,1.7,5.7,1.5,8-0.6c1.9-1.8,2.9-4.1,3.1-6.7c0-0.5-0.4-1.3-0.9-1.5C392.5,140.9,390.7,140.6,389.2,140.2z M397.9,144.6
		c-0.9,2.9-2.1,5.4-4.3,7.3c-2.3,2-4.9,2.8-8,2.1c-4.5-1-6.7-4.6-6.5-10.7c-2.9,2.2-4.7,5.2-6.6,8.1c0.7,0.5,1.2,0.8,1.8,1.2
		c8.8,5.9,17.6,4.5,25.4-2.2c0.8-0.6,0.9-1.3,0.4-2.1C399.4,147.1,398.7,145.8,397.9,144.6z M368.2,133.7c0.1,0.1,0.1,0.2,0.2,0.2
		c6.2-0.2,12.4-0.6,18.6-0.5c6.2,0.1,12.4,0.7,18.6,1.1c0.5-2.5,0.4-2.6-2.2-2.7c-7.9-0.5-15.8-0.8-23.5-2.4c-1-0.2-2.2-0.5-3-0.1
		C373.9,130.6,371.1,132.2,368.2,133.7z M410.9,163.5c1.6-0.2,2.8-0.8,3.2-2.3c0.4-1.2,0.7-2.5,0.8-3.7c0.3-3.8,0.5-7.7,0.8-11.5
		c0.1-2.1,0.3-4.1,0.4-6.2c-1.7-0.4-3.1-0.7-4.8-1C411.3,147.1,411.1,155.3,410.9,163.5z M334.7,149.6c-2.5-2.7-7.9-5.6-11.3-6.1
		c-0.7-0.1-1.1-0.1-1.3,0.8c-0.7,3.1,0.9,6.1,4.1,7.5C329.5,153.2,332.9,152.4,334.7,149.6z M285.1,129.1c0.3,2.4,0.6,4.7,0.9,6.8
		c2.6,0.7,4.9,2.5,7.6,0.8c0.3-2.2,0.6-4.4,1-6.6C291.4,129.8,288.3,129.5,285.1,129.1z M296.4,136.8c1.4-0.2,2.6-0.4,3.8-0.6
		c0.3-0.1,0.6-0.3,0.8-0.5c1.5-1.3,2.8-2.7,4.4-3.8c1.5-1.1,3.2-1.8,4.7-2.6c-4.5,0.4-9.1,0.7-13.7,1.1
		C296.4,132.4,296.4,134.5,296.4,136.8z M291,141.2c0.6,3.7,1.1,7.2,1.7,10.7c0.6,3.2,1.4,6.4,2.2,9.6c0.2,0.8,0.8,1.5,1.2,2.3
		c0.1-0.1,0.1-0.1,0.2-0.2c-1-7.6-1.9-15.3-2.9-23C292.7,140.7,291.9,140.9,291,141.2z M428,97.3c0-1.8,0.1-3.2,0-4.7
		c-0.1-1.1-0.3-2.2-0.8-3.1c-1-2-3.8-2.2-5-0.5c-1.4,2-0.9,5.1,1.2,6.3C424.7,96.1,426.2,96.6,428,97.3z M423.2,98.9
		c0.2,3.1,1,5.8,3.1,7.9c1.5,1.5,2.7,1.1,3.3-0.8C430.8,102.6,427.3,98.6,423.2,98.9z M274.7,95.4c3.4-0.1,5.3-5.6,4.4-7.8
		c-0.5-1.2-1.2-1-2-0.5C274.6,88.8,273.4,92.6,274.7,95.4z M411.2,131.5c0.1,1.2,0.2,2.3,0.4,3.4c0.1,0.3,0.4,0.8,0.7,0.8
		c1.3,0.2,2.7,0.3,4.2,0.4c0.2-2.2,0.3-4.3,0.5-6.4C415.1,130.4,413.2,130.9,411.2,131.5z M277.3,99.6c0.1-1.6-0.7-2.2-2.1-1.7
		c-1.8,0.7-3.4,3.8-3.1,5.7c0.3,1.7,1.4,2.1,2.7,1C276.5,103.3,276.9,101.4,277.3,99.6z M342.8,273.7c-0.9-1.8-1.6-3.3-2.4-4.7
		c-0.1-0.2-0.4-0.5-0.6-0.5c-2,0.2-3.9,0.5-5.9,0.7c0,0.1,0,0.2,0,0.3C336.7,270.8,339.6,272.2,342.8,273.7z M378.3,268.9
		c0-0.1-0.1-0.2-0.1-0.4c-1.5-0.2-3.1-0.4-4.6-0.6c-0.3,0-0.7,0.2-0.8,0.4c-0.8,1.5-1.5,3-2.3,4.5c0.1,0.1,0.1,0.2,0.2,0.2
		C373.2,271.7,375.7,270.3,378.3,268.9z M408,135c0,0,0.2,0.1,0.3,0.1c0.3,0,0.5,0,0.8,0.1c0.4-2.5,0-3.5-1.1-3.3
		C408,132.9,408,133.9,408,135z"/>
	<path class="st0" d="M357.2,853.8c-15.9-0.5-31.4-2.4-46.8-5.7c0.1-0.4,0.1-0.8,0.2-1.1c1.4-5.9,1.1-11.8,0.1-17.7
		c-0.3-2-0.1-4.1,0-6.1c1-12.2,1.5-24.4,1.2-36.6c-0.2-8.6-0.5-17.2-1-25.9c-0.6-9.6-1.4-19.1-2.1-28.6c-0.6-7.7-1.1-15.3-0.2-23
		c0.2-1.8,0.3-3.7,0.1-5.6c-0.2-1.5-0.6-3.1-1.4-4.4c-2.7-5-2.7-9.9,0.7-14.4c3.8-5.1,5-10.9,5.6-17c2.1-22.9,1.8-45.8,1.7-68.7
		c-0.1-12-0.4-24-0.6-36c0-1.3-0.2-2.6-0.2-3.9c0-0.7,0.4-1.5,0.5-2.2c0-0.3-0.1-0.5-0.1-0.8c0-0.7-0.2-1.8,0.1-2
		c0.5-0.3,1.6-0.4,2.2-0.1c3.3,1.7,6.4,3.6,9.6,5.3c10.9,6,22,11.8,33.5,16.7c0.7,0.3,1.3,0.5,2,0.7c0.2,0.1,0.6-0.2,0.9-0.3
		c-0.1-0.3-0.2-0.6-0.4-0.8c-0.1-0.2-0.4-0.2-0.6-0.3c-13.9-7.2-27.9-14.3-41.8-21.5c-0.6-0.3-1.3-0.7-1.9-1
		c-1.3-0.7-2.7-1.1-4.3-0.2c0-0.6-0.1-1.1-0.1-1.6c-0.2-3.6-0.3-7.2-0.5-10.9c-0.1-1.2,0.2-1.9,1.3-2.5c5.3-3.1,10.6-6.4,15.9-9.5
		c0.4-0.3,0.9-0.5,1.4-0.8c1.3,2.7,2.6,5.3,3.9,7.9c4.3,8.1,8.6,16.1,12.9,24.2c0.4,0.7,1.1,1.1,1.7,1.6c-0.2-0.8-0.2-1.6-0.5-2.2
		c-5.4-10.6-10.8-21.2-16.2-31.8c-0.1-0.2-0.1-0.3-0.2-0.5c0.1-0.1,0.2-0.3,0.3-0.3c6.2-3.9,12.4-7.9,18.7-11.5
		c2.8-1.6,5.9-2.6,8.9-3.8c0.5-0.2,1.3-0.1,1.8,0.1c8.3,4.1,15.3,10.2,22.9,15.5c-0.2,0.6-0.4,1-0.6,1.5
		c-4.7,9.9-9.5,19.8-14.1,29.6c-0.3,0.6-0.2,1.4-0.3,2c0.5-0.5,1.1-0.9,1.4-1.5c4.8-9.9,9.6-19.8,14.3-29.7c0.1-0.3,0.3-0.5,0.5-0.9
		c0.4,0.3,0.7,0.5,1,0.7c3.6,2.9,7,6.1,9.7,10c1.5,2.1,3.6,3.7,5.6,5.5c0.9,0.8,1.9,0.4,2.7-0.3c3.3-3.1,6.7-6.3,10-9.4
		c5.6-5.2,11.2-10.4,16.8-15.6c0.4-0.3,0.8-0.7,1.4-1.2c-0.5,3.4-1,6.5-1.4,9.6c-1.1,8.7-2.2,17.4-3,26.1c-1,10-1.7,20-2.5,30
		c-0.7,8.4-1.2,16.7-1.8,25.1c-0.7,9.6-1.4,19.3-2.2,28.9c-0.6,8-1.2,16-1.8,23.9c-0.7,9.2-1.5,18.4-2.2,27.6
		c-0.7,8.6-1.4,17.3-2.1,25.9c-0.7,9-1.5,17.9-2.2,26.9c-0.7,8.9-1.3,17.9-1.8,26.8c-0.6,10.9-1.1,21.9-1.6,32.8
		c-0.3,7.4-0.5,14.9-0.8,22.3c0,1.3,0.4,2.2,1.3,3c2.9,2.5,5.7,5,8.6,7.5c0.4,0.3,0.7,0.6,1.1,1c-2.8,3.3-2.5,6.8-0.5,10.7
		c-20.9,1.4-41.6,2.7-62.6,4.1c-0.3-2.8-0.9-5.6-0.9-8.3c0.1-7.7,0.5-15.4,0.6-23.2c0.2-8.9,0.3-17.7,0.4-26.6
		c0.2-15.8,0.3-31.6,0.7-47.3c0.5-24.5,1.2-49.1,1.9-73.6c0.4-14.2,0.7-28.3,1.2-42.5c0.5-13.7,1.1-27.4,1.7-41.1
		c0-0.4,0.2-0.9,0.1-1.3c-0.4-3.3,1.4-5.5,3.5-7.7c7.7-8.3,16-16,24.8-23.1c0.6-0.5,1.3-1,1.7-1.7c0.3-0.5,0.2-1.2,0.3-1.8
		c-0.6,0.1-1.2,0.1-1.7,0.2c-0.3,0.1-0.6,0.4-0.9,0.7c-10,8.1-19.3,16.8-27.7,26.6c-2,2.3-1.9,4.8-2,7.3
		c-0.8,12.5-1.5,24.9-2.1,37.4c-0.7,14.7-1.2,29.4-1.6,44.2c-0.5,14.7-0.9,29.4-1.2,44.2c-0.5,18.8-0.9,37.6-1.3,56.5
		c-0.2,11.9-0.3,23.7-0.5,35.6c-0.2,12.3-0.6,24.7-0.9,37c-0.1,3.2,0.4,6.3,1.5,9.4C357.4,851.6,357.2,852.8,357.2,853.8z
		 M417.3,536.5c-0.2,0-0.5,0-0.7,0c-0.1,0.6-0.3,1.1-0.3,1.7c0,3.2-0.1,6.4-0.1,9.6c-0.1,25.5-0.4,50.9-0.3,76.4
		c0,14.4,0.6,28.9,0.9,43.3c0.1,5.9,0.4,11.8,0.6,17.7c0.1,2.4-0.6,4.4-2,6.2c-1.7,2.3-3.3,4.6-4.9,7c-1.5,2.1-1.7,4.4-1.1,7
		c0.4,1.4,0.3,2.9,0.2,4.4c-0.2,2.8-0.9,5.5-1,8.3c-0.3,14.7-0.3,29.5-0.7,44.2c-0.4,15.1-1.1,30.3-1.9,45.4
		c-0.6,11.8-1.5,23.6-2.2,35.4c0,0.4,0.3,0.9,0.5,1.3c0.2-0.3,0.7-0.7,0.7-1.1c0.6-3.4,1.3-6.8,1.6-10.3c0.6-7.8,1.2-15.6,1.5-23.4
		c0.7-16,1.5-32,1.8-48c0.4-15,0.2-29.9,0.4-44.9c0-1.8,0.2-3.6,0.6-5.4c0.6-2.3,0.7-4.5,0-6.7c-0.5-1.7-0.3-3.2,0.6-4.6
		c1.2-1.8,2.3-3.8,3.8-5.4c3.4-3.7,4.6-8,4.1-12.9c-0.1-0.5,0-1-0.1-1.6c-0.3-8.9-0.8-17.7-1-26.6c-0.3-22.8-0.5-45.6-0.7-68.4
		c-0.1-15.5,0-31,0-46.5C417.5,537.9,417.3,537.2,417.3,536.5z M315.9,556.9c-0.1,0.2-0.2,0.3-0.3,0.5c0.4,0.4,0.8,0.8,1.3,1.1
		c11.9,7.4,24.2,13.9,36.6,20.3c0.7,0.4,1.4,1.3,2.4,0.5c-0.6-0.6-1-1.3-1.7-1.7c-12.3-6.8-24.7-13.6-37.1-20.4
		C316.8,557.1,316.3,557.1,315.9,556.9z"/>
	<path class="st1" d="M250.5,499.2c3,1.5,5.9,3,8.8,4.5c2.3,1.1,2.9,0.9,4-1.3c1.2-2.3,2.3-4.7,3.4-6.9c3.4,2,6.8,3.9,10.4,6
		c-0.5,2.3-1.2,5.1-1.8,7.8c-0.1,0.6,0,1.2,0,1.8c0.4-0.5,0.9-0.9,1.1-1.4c3.1-7,4.6-14.4,5.7-21.9c1.6-10.7,2.7-21.4,2.7-32.2
		c0-4.6-0.4-9.1-0.7-13.7c-0.1-0.8,0.1-2.3-1.2-2.2c-1.4,0.1-0.8,1.5-0.8,2.4c0.1,3.2,0.3,6.5,0.5,9.9c-5.3-3-10.4-5.8-15.5-8.6
		c-2.1-1.2-4.2-2.4-6.2-3.7c-0.5-0.3-0.9-1-0.9-1.6c-0.9-11.6-1.7-23.2-2.7-34.8c-1.1-12.8-2.2-25.7-3.5-38.5
		c-1.8-17.2-3.9-34.5-6-51.6c-0.8-6-2.1-12-3.4-17.9c-0.3-1.6-1.1-3.1-1.8-4.7c-0.1-0.3-0.5-0.5-0.8-0.7c-0.1,0.4-0.4,0.7-0.3,1.1
		c1.2,7.3,2.5,14.5,3.6,21.8c1.1,8,2,16,3,23.9c0.1,1.1,0.2,2.2,0.2,3.3c-0.1-0.3-0.3-0.6-0.4-0.9c-4.1-12.5-9.1-24.6-15.1-36.2
		c0-0.1-0.1-0.2-0.1-0.3c-0.4-0.3-0.8-0.7-1.1-1c0,0.5-0.1,1.1,0.1,1.5c4.3,10.9,8.7,21.7,12.9,32.7c1.4,3.5,2.1,7.4,3.8,10.7
		c1.4,2.7,1.4,5.4,1.8,8.1c0.4,2.8,0.6,5.6,0.9,8.4c0.8,8.2,1.6,16.5,2.5,24.7c0.4,4.3,0.8,8.6,1.2,13c0,0.3-0.1,0.8-0.3,1.1
		c-4.9,7-9.9,14-14.8,21c-0.9,1.3-1.9,1.6-3.5,1c-8.4-3.2-16.8-6.2-25.2-9.3c-0.4-0.1-0.8-0.3-1.2-0.5c-0.8-0.3-1.7-0.6-2.1,0.4
		c-0.4,1,0.4,1.5,1.1,1.8c6,2.8,12,5.5,18,8.3c1.1,0.5,2.2,1,3.3,1.7c-3.2-0.2-6.4-0.5-9.6-0.7c-4.9-0.2-9.7-0.3-14.6-0.5
		c-0.4,0-0.8,0.3-1.1,0.5c0.3,0.2,0.6,0.6,1,0.6c8.8,0.7,17.7,1.4,26.5,2.1c0.3,0,0.6,0,0.9,0c0.8-0.1,2.1,0.3,2.2-0.9
		c0-0.5-1-1.2-1.6-1.6c-0.9-0.5-2-0.9-3-1.4c4,1.2,8.3,1.6,11.5,4.9c4.5,4.8,10.2,8,15.7,11.4c2.2,1.3,4.3,2.8,6.4,4.2
		c-2.5,10.8-15.7,36.5-22.9,44.4c-5.9-2.1-11.9-4.2-17.9-6.4c-11.5-4.3-22.8-9.3-33.3-15.8c-6.6-4.1-12.7-8.9-17.5-15.2
		c-2.7-3.5-5-7.2-5.6-11.7c-0.1-1-0.2-2.1,0.1-3.1c4-16,9.9-31.4,15.8-46.7c7.4-19.2,16.6-37.5,25.6-55.9
		c5.6-11.5,10.6-23.3,15.8-35c2.7-6.1,4.2-12.5,3.7-19.3c-0.2-3.1,0.5-5.7,2.5-8.2c3-3.7,3.8-8.2,4.6-12.7c0.2-1.2,0.4-2.4,0.7-3.8
		c1.8,0.1,3.6,0.3,5.3,0.3c7.6-0.1,15.2-0.3,22.9-0.6c1.3,0,2.3,0.3,3.3,0.9c5.5,3.5,10.5,7.5,15.3,12c4.1,3.8,8.3,7.6,12.5,11.3
		c0.6,0.6,0.9,1.1,0.7,2c-1.8,6.2-3.4,12.4-5.3,18.5c-3.7,12.3-6.3,24.9-8.7,37.5c-0.2,1,0.1,2.3,0.7,3.2
		c3.4,5.3,6.7,10.5,10.3,15.6c13.8,19.4,29.4,37.5,44.6,55.9c7.8,9.4,15.1,19,22.7,28.5c1.8,2.2,2.4,4.8,2.4,7.6
		c0,19.2,0.1,38.4,0.2,57.6c0,0.6,0,1.1,0,1.8c-1.6,0.5-3.4,0.7-4.9,1.5c-3.8,1.8-7.6,3.5-11.2,5.7c-14.8,9.2-29.5,18.6-44.8,27
		c-2.8,1.5-5.6,3-8.5,4.4c-0.5,0.2-1.2,0.2-1.7,0c-14.2-7.9-28.5-15.8-42.7-23.8c-1.6-0.9-3.1-1.9-4.6-2.8
		C246.6,512.8,248.5,506,250.5,499.2z M239.3,421.6c-0.5-1.8-0.8-3.5-1.3-5.1c-4.5-13.4-9-26.8-13.5-40.2c-0.1-0.2-0.1-0.4-0.2-0.5
		c-0.2-0.2-0.4-0.3-0.7-0.4c-0.1,0.3-0.3,0.5-0.4,0.8c0,0.3,0.1,0.6,0.2,0.8c4.1,13.2,8.2,26.3,12.3,39.5c0.6,1.8,1.1,3.5,1.8,5.3
		c0.1,0.3,0.7,0.7,1,0.8C238.8,422.5,239.1,421.9,239.3,421.6z"/>
	<path class="st1" d="M439.5,430.5c0.8-3.1,1.5-5.9,2.3-8.7c0.8-3.1,1.8-6.2,2.6-9.3c0.1-0.3,0.2-0.6,0.2-1c0-0.2-0.2-0.5-0.3-0.7
		c-0.2,0.1-0.5,0.2-0.7,0.4c-0.1,0.1-0.2,0.3-0.2,0.5c-1.8,6-3.7,12.1-5.5,18.2c-0.3,1-0.8,2.3,0.4,3c1.2,0.7,1.9-0.4,2.7-1
		c5.6-4.3,11.2-8.7,16.8-13.1c0.3-0.2,0.6-0.4,0.9-0.6c-7.4,7.2-14.7,14.4-22.2,21.7c0.1-2.1,0.2-4.3,0.4-6.4
		c0.6-7.3,1.2-14.5,1.9-21.8c0.8-8.2,1.6-16.4,2.4-24.6c0.6-5.5,1.2-11,1.8-16.5c0.1-0.5,0.2-1.1,0.5-1.6
		c7.2-13.1,13.2-26.8,19.1-40.6c0.2-0.4,0.2-0.9,0.3-1.4c-0.2-0.1-0.3-0.1-0.5-0.2c-0.3,0.4-0.7,0.9-1,1.3
		c-5.6,11.5-11.2,23-16.8,34.5c-0.2,0.5-0.5,0.9-0.9,1.3c0.5-4.5,1-8.9,1.5-13.4c0.9-8.2,1.9-16.4,2.7-24.6
		c0.7-6.7,1.3-13.4,1.9-20.1c0.1-0.6,0.1-1.2,0.1-1.7c-0.1-0.4-0.4-0.7-0.6-1c-0.3,0.3-0.7,0.5-0.8,0.9c-0.4,2.2-0.8,4.5-1.1,6.8
		c-1.5,12.3-3,24.6-4.5,36.9c-1.2,10.3-2.4,20.6-3.5,30.9c-1.2,10.7-2.4,21.3-3.3,32c-0.8,9.2-2.2,18.4-1.8,27.6
		c0.6,11.7,1.2,23.3,2,35c0.3,4.6,1.2,9.1,1.7,13.6c0.4,3.6,0.6,7.3,1.1,10.9c0.4,3.6,0.9,7.3,2.5,10.6c-13.2,9.8-24.4,21.8-36.7,33
		c-1.3-1.3-2.9-2.3-3.8-3.8c-4.6-6.9-11.1-11.7-17.7-16.5c-5.7-4.2-11.5-8.3-17.3-12.5c-0.4-0.3-0.8-1-0.8-1.5
		c-0.2-19.2-0.4-38.4-0.6-57.6c0-1.4,0.4-2.4,1.1-3.6c20.4-29.7,40.6-59.6,59.2-90.6c2-3.4,4.5-6.6,6.9-9.8c0.9-1.2,0.7-2.2,0.3-3.3
		c-2.8-8-5.7-15.9-8.3-23.9c-3-9.1-5.9-18.2-7.5-27.7c-0.1-0.6,0.2-1.4,0.5-1.9c5.7-8.5,12.7-15.8,20.5-22.4c1-0.9,2.1-1.8,2.8-2.3
		c1.1,0.7,1.9,1.5,2.8,1.7c3,0.6,6,1.1,9,1.5c2.7,0.3,5.5,0.3,8.4,0.4c1,3.3,1.9,6.8,2.9,10.2c5.1,17.4,9.6,35,12.8,52.8
		c2.1,11.7,3.9,23.5,5.6,35.3c2.1,14.9,3.9,29.8,6,44.7c2,14.5,4.2,28.9,6.3,43.4c0.5,3.8,0.9,7.6,1.3,11.4c0.1,0.7-0.2,1.5-0.6,2.1
		c-4.3,6.7-10.6,10.5-18.1,12.9c-9.3,3-18.6,6.3-27.8,9.4c-2,0.7-4,1.4-6.1,2.1c-0.4,0.1-0.9,0.1-1.6,0.2c-0.3-2.2-0.6-4.3-0.8-6.4
		c-1.1-13-2.1-25.9-3.2-38.9c-0.3-4.1-0.3-4.1,3.4-5.9c0.4-0.2,0.8-0.3,1.2-0.6c3.1-2.1,6.3-1.9,9.7-0.8c14.1,4.4,27,11,38,20.9
		c0.2,0.2,0.3,0.4,0.5,0.5c0.3,0.1,0.6,0.1,0.9,0.1c0-0.3,0-0.7-0.1-0.9c-0.2-0.4-0.6-0.6-0.9-0.9c-11.3-11.2-25-17.8-40.3-21.5
		c-0.2-0.1-0.4-0.2-0.9-0.3c0.6-0.3,1.1-0.5,1.5-0.7c8-2.8,16.1-5.6,24.1-8.3c0.2-0.1,0.4,0,0.5-0.1c0.2-0.2,0.4-0.4,0.6-0.7
		c-0.3-0.2-0.6-0.5-0.9-0.5c-1.8,0.2-3.6,0.4-5.4,0.8c-7.2,1.4-13.8,4.1-20.5,6.9c-2.2,0.9-4.4,1.9-6.8,2.8c0.3-0.3,0.6-0.7,1-1
		c9.4-8.8,18.8-17.6,28.2-26.4c0.6-0.6,1.3-1.2,1.8-1.8c0.2-0.3,0.3-1,0.1-1.3c-0.2-0.3-0.8-0.5-1.2-0.4c-0.5,0.1-1,0.4-1.5,0.8
		c-10.1,7.1-20.2,14.2-29.5,22.3C440.4,429.9,440.1,430.1,439.5,430.5z M378.6,497.3c4.5,0,7.8-2.9,8-6.6c0.2-3.2-2.5-6.1-6.4-6.7
		c-3.4-0.5-6.4,0.5-9.2,2.3c-2.6,1.8-2.9,4.5-0.8,6.8C372.6,495.8,375.7,496.9,378.6,497.3z M376.3,452.8c-0.4,0-1,0-1.6,0.1
		c-3.9,0.5-6.4,3.7-5.7,7.1c1.4,6.5,9.3,9.3,14.7,5.5c3.6-2.6,3.9-6.9,0.6-9.8C382.1,453.7,379.4,452.8,376.3,452.8z M460.4,359.3
		c-0.1-0.1-0.2-0.2-0.3-0.4c-0.3,0.1-0.7,0.2-1,0.4c-4.7,3.5-9.4,7-14,10.6c-0.2,0.2-0.3,0.6-0.4,0.9c0.3,0.1,0.7,0.4,1,0.3
		c0.9-0.3,1.8-0.7,2.5-1.3c3.9-3.1,7.7-6.4,11.6-9.6C460,360.1,460.1,359.7,460.4,359.3z"/>
	<path class="st0" d="M268.8,536.6c7.1,3.9,13.9,7.6,20.6,11.5c2.4,1.4,4.2,1.5,6.6,0.1c4.8-2.8,9.7-5.3,14.5-8
		c0.4-0.2,0.9-0.5,1.7-0.9c0,2.4-0.1,4.5,0,6.7c0.8,26.4,1.2,52.7,0.8,79.1c-0.2,11.9-0.6,23.8-1.2,35.7c-0.2,4.6-1,9.3-1.6,13.9
		c-0.3,2.6-1.4,5-2.9,7.2c-0.7,1-1.3,2.1-2,3.2c-2.6,4.6-2.9,9.3-0.4,13.9c1.3,2.5,1.9,5,1.6,7.8c-1.2,11-0.2,22,0.7,33
		c0.9,11.7,1.7,23.4,2.1,35.1c0.4,10,0.4,20.1,0.2,30.2c-0.1,7.1-0.8,14.2-1,21.3c-0.1,2.5,0.6,5.1,0.7,7.6c0.1,3.6,0,7.2-0.1,10.8
		c0,1-0.4,1.9-0.7,3.2c-10.7-2.4-21.2-4.7-32.1-7.1c1.2-2,2.2-3.6,3.1-5.3c1.2-2.4,2.5-4.9,3.4-7.5c0.9-2.6-0.2-4.8-2.4-6.3
		c-0.9-0.6-1.8-1.2-2.8-1.8c-0.7-0.4-0.8-0.9-0.3-1.5c0.6-0.8,1.3-1.7,2-2.4c3.4-3.6,6.8-7.2,10.3-10.7c1.7-1.7,2.2-3.4,1.6-5.9
		c-1.3-5.6-2.2-11.3-2.9-17c-1.2-8.9-2.2-17.8-3.1-26.7c-0.9-8.6-1.7-17.3-2.4-25.9c-0.9-10.3-1.7-20.6-2.5-30.9
		c-0.6-7.5-1-14.9-1.5-22.4c-0.7-11.2-1.5-22.3-2.2-33.5c-0.7-9.9-1.4-19.9-2.1-29.8c-0.8-11.5-1.6-22.9-2.5-34.4
		c-0.6-8.4-1.2-16.8-1.8-25.2c-0.4-4.9-0.9-9.8-1.3-14.7C268.9,538.2,268.9,537.5,268.8,536.6z"/>
	<path class="st1" d="M423.1,83.9c-2.9,0.2-5.9,0.4-8.8,0.5c-0.7,0-1.5-0.1-2.2-0.3c-8.3-3-16.9-4.7-25.6-5.7
		c-17.5-2.1-35.2-2.5-52.8-2c-16.9,0.5-33.6,2.6-49.8,7.7c-0.6,0.2-1.3,0.4-1.9,0.6c-0.8,0.3-1.6,0.6-2.4-0.1
		c-0.3-0.2-0.7-0.3-1.1-0.3c-1.8,0.3-3.3-0.4-4.8-1.2c-3.6-1.9-7.3-3.7-10.8-5.9c-4.2-2.6-6.4-6.6-7.4-11.4
		c-0.4-2.1,0.2-4.1,1.2-5.9c1.7-3,4-5.3,6.7-7.4c8.2-6.6,17.7-10.7,27.8-13.4c13.6-3.7,27.4-6.4,41.5-7.7c7-0.7,14.1-1.4,21.1-1.3
		c6.1,0.1,12.2,1.1,18.3,1.9c14.4,2.1,28.3,6,42,10.6c10.4,3.5,19.3,9.5,26.9,17.6c3.2,3.5,3.9,7.3,2.5,11.6
		c-0.7,2.2-1.7,4.4-2.9,6.3c-2.8,4.3-7.2,5.7-12.1,5.8c-1.8,0.1-3.6,0-5.4,0C423.1,84.1,423.1,84,423.1,83.9z M372.5,66.3
		c1.9,0.1,2.2-0.2,2.7-1.9c1.2-4.4,1.3-8.8,1-13.3c-0.2-3.4-0.9-4.2-4.2-4.9c-8.6-1.9-17.3-2.2-26-1.3c-2.8,0.3-5.5,0.8-8.3,1.3
		c-1.3,0.2-1.9,1.1-1.9,2.4c-0.1,2.1-0.3,4.2-0.3,6.3c0,1.1-0.4,1.4-1.4,1.5c-1.4,0.2-2.7,0.5-4,0.9c-1.4,0.4-1.8,1.3-1.4,2.6
		c0.8,2.2,1.5,4.4,2.5,6.5c0.8,1.7,1.8,3.4,3.8,4.1c2.5,0.9,5.8,0,7.6-2.1c0.3-0.3,0.8-0.7,1.2-0.7c5.5-0.1,11-0.2,16.6-0.3
		c0.5,0,1.1,0.3,1.4,0.6c1.5,2,3.5,2.3,5.7,2C369.7,69.8,371.8,69,372.5,66.3z"/>
	<path class="st0" d="M266.6,252c14.1-3.5,27.9-6.9,42-10.4c-0.5,3.7-1,6.8-1.5,10c-0.6,4.7-1.2,9.3-1.8,14
		c-0.2,1.4,0.6,2.2,1.9,2.4c3.7,0.5,7.4,1,11,1.3c3.6,0.3,3.6,0.2,4.8,3.6c8,23.5,14.3,47.5,19.9,71.7c7,30.3,13.7,60.6,20.5,90.9
		c0.3,1.2,0.2,2.5,0.3,4c-0.4-0.3-0.6-0.4-0.7-0.5c-10.3-14.2-21.8-27.5-33-40.9c-13.7-16.4-27.3-33-39.4-50.6c-1.8-2.6-3.4-5.3-5-8
		c-0.4-0.7-0.5-1.7-0.4-2.5c2.8-16.6,7.1-32.9,12.2-49c0.8-2.4,1.3-4.9,1.7-7.4c0.1-0.7-0.1-1.9-0.6-2.3
		c-8.3-6.9-15.6-15.1-24.4-21.3C271.7,255.4,269.3,253.9,266.6,252z"/>
	<path class="st0" d="M366.7,440.4c-0.9-2.9-1.1-5.7-0.8-8.5c1.4-12.3,2.6-24.5,4.2-36.8c2.2-17.1,4.7-34.1,7.2-51.2
		c2.7-18.1,5.4-36.1,8.2-54.2c1-6.3,2-12.6,2.9-18.9c0-0.2,0.1-0.4,0.2-0.8c2.3,0.4,4.6,0.9,6.9,1.3c0.6,0.1,1.3,0.2,2,0.1
		c1.1-0.2,1.5-1,1.6-2c0.2-7.3-0.2-14.5-1.9-21.6c-0.1-0.5-0.2-0.9-0.3-1.7c0.7,0,1.3-0.2,1.8,0c13.6,5.7,27.7,10.2,42.1,13.5
		c0.1,0,0.2,0.1,0.5,0.3c-0.5,0.4-0.9,0.7-1.3,1c-9.7,7.6-18.2,16.2-25.2,26.4c-0.9,1.3-1.2,2.6-0.9,4.2
		c3.1,16.7,9.1,32.6,14.7,48.6c0.9,2.6,1,4.4-1.1,6.6c-2,2-3.4,4.7-4.9,7.2c-16.2,27.1-33.7,53.3-51.2,79.5
		c-1.3,1.9-2.6,3.9-3.9,5.8C367.3,439.6,367,439.9,366.7,440.4z"/>
	<path class="st2" d="M339.2,178.1c0,1.8-0.2,3.5,0,5c0.2,1.8,1.5,2.8,3.2,3.3c0.5,0.2,1,0.3,1.5,0.4c3.3,0.4,6.4,1.1,9.4,2.6
		c4.3,2.1,8.4,1.7,11.8-2c0.3-0.3,0.8-0.5,1.2-0.6c2.5-0.7,4.8-1.9,6.7-3.7c1.6-1.4,1.7-2.4,0.8-4.3c-0.5-1-1.1-2-1.7-3.3
		c1.5,0.4,2.7,0.5,3.8,1c3.5,1.7,6.9,3.6,9.6,6.6c1.3,1.4,2.7,2.8,4.2,4.1c3.8,3.2,7.8,3.5,11.9,0.6c4.4-3.1,6.8-7.6,7.9-12.8
		c0.5-2.4,0.8-4.9,1.1-7.3c0.1-0.7,0.3-1.1,1-1.2c1-0.3,1.9-0.7,2.7-1c0,2.4,0,4.8,0,7.2c-0.1,7.1-0.1,14.3-0.6,21.4
		c-0.4,5.7-1.2,11.5-2.3,17.1c-0.4,2.1-1.9,4-3.3,5.7c-3.7,4.6-8.7,7.4-14.1,9.4c-5.5,2.1-11,3.9-16.5,5.8c-1.5-1.6-1.9-1.5-3,0.2
		c-0.5,0.8-1.1,1.5-1.7,2.1c-1.6,1.4-3.1,1.3-4.7-0.1c-1.7-1.5-2.2-1.5-3.6,0.2c-1.8,2.1-3.1,2.5-5.6,1.3c-1.6-0.8-2.8-1.2-4.1,0.5
		c-0.3,0.4-1.5,0.4-2.1,0.2c-0.8-0.3-1.4-1.1-2.1-1.6c-1-0.8-1.9-0.8-2.8,0c-1.2,1.2-2.6,1.4-4.1,0.9c-3.5-1.1-6.9-2.3-10.4-3.5
		c-9.1-3.1-17.8-7.2-26.5-11.2c-3.4-1.6-6.4-4-9.6-6.2c-0.7-0.5-1.3-1.6-1.5-2.5c-3.5-12.8-5.6-25.9-6.5-39.2
		c-0.6-9.3-1.4-18.6-2.1-28c0.7,0.1,1.4,0.2,2.1,0.2c0.6,3.7,1.1,7.4,1.8,11.1c0.4,2.1,1,4.2,1.6,6.2c0.6,1.9,1.8,3.4,3.8,4
		c1.1,0.3,1,1.2,1.1,1.9c1,4.9,2.5,9.7,5.2,14c2.3,3.6,5.2,6.5,9.4,7.7c3.2,0.9,6.4,1,9.6,0.4c2.4-0.5,4.3-1.8,5.4-4
		C329.6,181.8,334.3,179.9,339.2,178.1z M354.9,207.8c9.6,0.2,20.2-2.6,30.4-7.1c1-0.4,1.9-1,1.4-2.3c-0.5-1.2-1.6-0.9-2.6-0.5
		c-2.1,0.8-4.2,1.7-6.3,2.4c-11.4,4.3-23.2,5.5-35.3,3.6c-3.8-0.6-7.4-2-11.2-2.9c-0.5-0.1-1.2,0.2-1.7,0.4c0.3,0.5,0.4,1.3,0.8,1.6
		c1.2,0.7,2.5,1.3,3.9,1.8C340.5,207.1,346.9,207.8,354.9,207.8z"/>
	<path class="st3" d="M470.1,870.7c-4.7-3.4-8.8-2.3-12.8,0.7c-12.1,8.8-25.9,11.3-40.5,10.1c-8.8-0.7-17.2-3.2-25.3-6.7
		c-6.6-2.9-13-6.1-19.5-9.1c-0.4-0.2-0.9-0.1-1.4-0.2c0.2,0.4,0.4,0.9,0.7,1.1c11,7,22.4,13,35.2,15.9c15.5,3.4,30.5,2.4,44.8-4.7
		c2.2-1.1,4.2-2.6,6.3-3.9c1-0.6,1.9-1.4,3-2c3.1-1.8,6.5-1.6,9.3,0.7c0.4,0.3,0.6,1,0.6,1.5c0,2.5-0.8,4.9-2.1,7
		c-3.2,5.2-8.2,7.5-13.9,8.7c-7.2,1.6-14.6,1.5-21.9,1c-17.2-1.2-33.9-4.8-50.2-10.2c-2.8-0.9-5.6-2.2-8.3-3.4
		c-4.3-2-7.6-5.3-9.4-9.8c-1.8-4.6-3.2-9.3-4.8-14c-0.1-0.3-0.1-0.6-0.1-1.1c1.9-0.1,3.8-0.2,5.6-0.3c13-0.7,26.1-1.5,39.1-2.3
		c4-0.2,8.1-0.7,12.1-0.8c1.7-0.1,3.5,0.4,5.2,0.8c5.7,1.2,11.4,0.9,17.1,0.4c4.4-0.3,8.7-0.5,13.1,0.4c2.6,0.5,4.9,1.6,6.8,3.4
		c4.7,4.4,8.3,9.7,10.9,15.6C469.8,869.7,469.9,870,470.1,870.7z"/>
	<path class="st3" d="M354.3,856.6c-0.4,8.5-3.5,15.2-10.9,19.7c-8.4,5.1-17.4,8.3-26.9,10.5c-13.8,3.3-27.9,4.9-42.1,4.2
		c-9.5-0.4-18.7-2.1-27.5-5.8c-3.9-1.6-5-3.4-4.8-7.7c0.1,0,0.2-0.1,0.3-0.1c3,2.5,6.4,2.4,9.9,1.4c3.7-1.1,7.3-2.4,11.1-3.2
		c7.6-1.5,15.1-0.7,22.3,2.1c7.4,2.8,15,4.5,23,4.4c13.8-0.3,26.2-4.8,37.7-12c1.2-0.8,2.3-1.8,3.3-2.7c0.3-0.2,0.2-0.8,0.3-1.2
		c-0.4,0.1-0.9,0-1.3,0.2c-8.7,6-18.3,9.8-28.5,11.9c-10.8,2.2-21.5,1.6-31.9-2.4c-5.8-2.2-11.8-3.7-18.1-3.6
		c-5.2,0.1-10.2,1-15.1,2.8c-1.6,0.6-3.2,1-4.8,1.5c-2.6,0.7-5,0.2-7.4-0.8c-0.7-0.3-1-0.7-0.8-1.5c1-5.1,3.1-9.8,6.2-14
		c2.4-3.2,5.8-5.2,9.6-6.5c7.6-2.7,15.5-3.8,23.5-4.2c3.3-0.2,6.8,0.5,9.8-0.5c4.5-1.5,8.6-0.2,12.8,0.7c12.6,2.6,25.3,4.9,38.2,6
		C346.2,856.2,350.2,856.4,354.3,856.6z"/>
	<path class="st0" d="M404.5,129c-9.5-0.5-18.4-1.4-27.2-2.9c-14-2.4-28.1-3.6-42.3-2.3c-10.4,1-20.7,2.1-31.1,3.1
		c-6.3,0.6-12.7,0.5-18.9-0.9c-0.7-0.2-1.5-0.4-2.2-0.7c-4.3-1.8-5.9-4.8-4.2-9.1c0.9-2.4,2.5-4.7,3.9-6.9c0.3-0.4,1.1-0.8,1.7-0.7
		c8,0.3,16,1,24,0.9c31.6-0.1,63.1-0.5,94.7-0.8c3.8,0,7.6-0.2,11.4-0.2c0.7,0,1.5,0.2,2.1,0.6c2.9,1.6,5,3.9,6.5,6.9
		c0.9,1.7,0.7,3.3-0.3,5c-2.9,5.2-7.8,7-13.3,7.7C407.6,129,405.7,129,404.5,129z"/>
	<path class="st4" d="M353,286c3.6,2.4,6.5,1.1,9.3-1.8c0.2,2,0.4,3.7,0.6,5.3c1,11.5,2.1,22.9,3.1,34.4c0.9,10,1.6,20,2.4,30
		c0.5,6.3,1.4,12.6,1.9,18.9c0.1,1.8-0.4,3.6-0.6,5.4c-1.3,10.5-2.7,21.1-3.9,31.6c-0.7,5.8-1.2,11.6-1.8,17.8
		c-0.7-3-1.2-5.7-1.8-8.3c-4.1-18.5-8.1-37-12.2-55.5c-0.3-1.1-0.3-2.4-0.3-3.5c0.5-8.8,1.1-17.7,1.5-26.5
		c0.3-6.3,0.2-12.6,0.4-18.9c0.4-9.4,0.9-18.8,1.3-28.3C352.8,286.5,352.9,286.4,353,286z"/>
	<path class="st5" d="M408.1,167.2c-0.5,5.3-1,10.5-4.3,14.7c-1.3,1.7-3.1,3.2-5,4.4c-2.2,1.4-4.6,1.1-6.6-0.6
		c-1.4-1.2-2.8-2.4-3.9-3.7c-3-3.4-6.6-5.8-10.6-7.6c-2.1-0.9-4.6-0.9-6.9-1.3c-0.4-0.1-0.8-0.1-1.2-0.2c-0.4,0-0.8,0-1.2,0
		c0,0.4-0.1,1,0.1,1.3c0.8,1.5,1.7,2.9,2.5,4.3c1.2,2.3,1.2,2.4-1,3.8c-0.3,0.2-0.6,0.4-1,0.6c-2.8,1.2-5.6,2.2-7.9,4.3
		c-0.8,0.7-2.4,0.6-3.6,0.6c-0.9,0-1.8-0.3-2.6-0.7c-3.2-1.6-6.6-2.6-10.2-3.1c-2.8-0.3-3.8-2.8-2.2-5.2c1-1.5,2.4-2.8,3.6-4.2
		c0.3-0.4,0.5-0.9,0.7-1.4c-0.6,0-1.2-0.1-1.7,0c-0.6,0.1-1.4,0.4-1.8,0.8c-1.3,1.3-2.9,1.6-4.6,2c-3.2,0.7-6.1,2.1-8.8,3.9
		c-2,1.3-3.7,2.9-4.7,5.1c-1.2,2.5-3.3,3.4-5.9,3.5c-6.6,0.4-11.5-2.1-14.8-8c-2.2-3.9-3.6-8.1-4.4-12.7c10.9,1.6,21.7,1.5,32.7,0.7
		c-0.3,1.4-0.7,2.7-0.9,4c-0.1,0.5,0.1,1,0.1,1.5c0.4-0.4,0.9-0.6,1.2-1.1c0.7-1.2,1.4-2.5,2-3.8c0.4-0.9,0.9-1.2,1.8-1.3
		c2.3-0.3,4.6-0.8,6.9-1.1c2.5-0.4,4-1.9,4.4-4.4c0.2-1.1,0.4-2.3,0.4-3.4c0.1-0.8,0.3-1.3,1.1-1.3c3.3,0,6.5,0.1,9.8,0.2
		c0.9,0,1.4,0.6,1.6,1.6c0.7,5.2,1.4,5.9,6.6,6.8c2.9,0.5,5.8,0.9,8.7,1.4c0.5,0.1,1.1,0.5,1.4,0.9c0.8,1.2,1.4,2.5,2.2,3.7
		c0.2,0.4,0.6,0.8,1.1,1.1c0.5-1.9-0.8-3.4-1.1-5.4C389.3,168.4,398.6,168.6,408.1,167.2z"/>
	<path class="st1" d="M420.7,105.3c-1.9,0.1-3.4,0.3-4.9,0.4c-15.3,0.2-30.7,0.4-46,0.6c-23.3,0.2-46.5,0.4-69.8,0.5
		c-7.5,0-15-0.5-22.8-0.8c0.8-1.7,1.2-3,3-3.5c7.9-2.3,16-3.8,24.2-4.9c17.8-2.5,35.7-3.4,53.6-2.8c21,0.7,41.7,3.7,61.8,10.3
		C419.9,104.8,420.1,105,420.7,105.3z"/>
	<path class="st5" d="M366.4,236.2c3.7,2.5,6.9,2,9.5-1.4c0.6-0.8,1.3-1.2,2.3-1.4c1.9-0.3,3.8-0.7,5.7-1.1c1.9-0.4,3.8-0.9,5.8-1.4
		c-0.2,0.9-0.4,1.8-0.4,2.6c-0.1,1.5-0.3,3.1,0.1,4.6c0.5,2.2-0.3,3.4-1.9,4.7c-7.8,6.5-16.3,12-25,17.4c-3.1,1.9-6.5,2.1-9.9,1.2
		c-0.7-0.2-1.3-0.7-2-1.1c-11.8-7.2-23.5-14.4-35.3-21.7c-0.4-0.2-0.7-0.8-0.8-1.2c-0.3-3.3-0.5-6.5-0.8-9.9
		c0.4,0.1,0.8,0.3,1.3,0.5c7.3,2.9,14.5,5.7,21.8,8.6c1.7,0.7,3.4,1.3,5.1,1.7c2.5,0.7,5,0.8,7.1-1c4.2,2.9,5.4,3,8.1,0.6
		C360.5,239.6,363.7,239.6,366.4,236.2z"/>
	<path class="st6" d="M385.8,269.7c-4.6,30.5-9.2,60.9-13.7,91.4c0,0-0.1,0-0.1,0c-0.3-3.8-0.6-7.5-0.9-11.3
		c-0.7-8.7-1.4-17.4-2.2-26c-0.7-7.5-1.3-15-2.1-22.5c-0.6-6.2-1.4-12.3-2.1-18.4c-0.1-0.6,0.2-1.3,0.4-1.8c1.7-3.4,4.5-5.4,8-6.7
		c2.4-0.9,4.8-2.3,6.8-3.8C381.8,269.1,383.7,269,385.8,269.7z"/>
	<path class="st6" d="M324.8,269.6c2.4-0.1,4.9-0.3,7.4,1.3c3.7,2.3,7.8,3.9,11.7,5.9c0.7,0.3,1.3,0.9,1.8,1.5
		c1.4,1.7,2.8,3.4,4.1,5.1c0.4,0.5,0.7,1.3,0.7,1.9c-0.5,7.8-1,15.5-1.5,23.3c-0.3,5.8-0.5,11.5-0.7,17.3c-0.3,8.8-0.6,17.6-1,26.4
		c-3.5-13.8-6.7-27.7-10.5-41.4C333.1,297,328.9,283.3,324.8,269.6z"/>
	<path class="st0" d="M266.4,446.3c5.2,2.7,10,5.2,14.9,7.8c-6.9,15.5-13,31.6-20.5,47.2c-3.2-1.6-6.3-3.2-9.3-4.7
		c-1.4-0.7-2.8-1.4-4.3-2c-1.8-0.7-3-1.8-4-3.4C253.4,477.5,261.6,462.8,266.4,446.3z"/>
	<path class="st5" d="M336.7,165c0.9-2.9,1.6-5.6,2.7-8.1c1.2-2.9,0.5-5.2-1.5-7.3c-4-4.3-8.6-7.4-14.4-8.3
		c-1.5-0.2-3.1-0.1-4.5,0.3c-4.6,1.1-8.7,3.4-12.1,6.7c-2.1,2-2.1,3.3,0,5.3c3.5,3.2,7.6,5.2,12.2,6.2c5.5,1.2,10.6-0.2,15.5-2.6
		c0.9-0.5,1.8-0.9,3-1.5c-1.2,3.3-2.3,6.4-3.6,9.4c-0.2,0.4-1.3,0.6-2,0.7c-3.6,0.2-7.1,0.5-10.7,0.5c-6.7,0.1-13.3-0.1-20-1
		c-1.4-0.2-2.1-0.7-2.2-2.2c-0.8-7.2-1.7-14.4-2.7-21.5c-0.1-1.1,0.1-1.6,1.3-1.8c5.2-0.6,10.4-1.6,15.6-1.8
		c6.9-0.4,13.9-0.4,20.8-0.3c2.7,0,5.4,0.5,8.1,0.8c1.2,0.1,1.8,0.7,2.2,1.9c1.3,5,1.5,10.1,1.5,15.2c0,0.5-0.5,1.1-0.8,1.5
		c-0.6,0.8-0.8,1.5,0.1,2.2c0.3,0.2,0.4,0.7,0.4,1c0,0.5-0.1,0.9-0.2,1.4c-0.2,1.5-1,2.4-2.5,2.6C340.9,164.3,339,164.7,336.7,165z"
		/>
	<path class="st5" d="M375.8,164.6c-2.5-0.4-4.8-0.7-7.1-1.1c-0.2,0-0.4-0.1-0.6-0.1c-3.9-0.6-4.1-0.7-4.5-4.5
		c-0.6-6.3-0.3-12.6,1-18.9c0.4-1.6,1.1-2.6,2.9-2.7c6.5-0.3,12.9-1,19.4-0.9c6.6,0.1,13.2,1,19.8,1.5c0.7,0.1,1.5,0.2,2.2,0.3
		c0,2.4,0,4.8,0,7.1c-0.1,5.7-0.4,11.3-0.5,17c0,1.6-0.6,2.1-2,2.1c-6.5,0.2-13,0.6-19.5,0.7c-2.5,0.1-5-0.2-7.6-0.3
		c-0.4,0-1-0.4-1.2-0.7c-1.5-3-2.9-6-4.5-9.2c2.8,1.9,5.6,3.2,8.8,3.7c8,1.2,14.3-1.9,19.7-7.4c0.9-0.9,1-2,0.5-3.2
		c-2.9-6.7-7.8-10.7-15.5-10c-8.3,0.8-13.1,5.6-16.4,12.6c-0.5,1-0.1,2.6,0.3,3.8c1.2,2.9,2.7,5.8,4,8.7
		C375.3,163.5,375.5,163.9,375.8,164.6z"/>
	<path class="st1" d="M419,90.9c-0.1,2.5,0.7,4.5,2.4,6.1c-0.3,0.9-0.5,1.7-0.8,2.6c-0.6-0.2-1.2-0.5-1.9-0.7
		c-10.4-4.9-21.5-7.4-32.8-8.8c-19.4-2.4-39-2.8-58.5-2.2c-16.1,0.5-31.9,3.3-47.1,8.8c-0.4,0.1-0.8,0-1.3,0
		c0.1-0.4,0.2-0.8,0.4-1.2c0.2-0.4,0.7-0.7,0.8-1.2c0.6-1.9,2.1-2.4,3.8-2.9c9-2.7,18.3-4.5,27.6-5.8c13.4-2,26.8-2.8,40.3-2.2
		c9.2,0.4,18.3,1.2,27.5,2.2c9.8,1,19.6,2.5,29.5,3.8C412.2,89.8,415.6,90.4,419,90.9z"/>
	<path class="st6" d="M349.8,263c-13.7,3.9-27.6,4.5-41.8,2.6c0.3-2.8,0.6-5.3,0.9-7.8c0.7-5.7,1.4-11.3,2.2-17
		c0.2-1.8,0.8-2.1,2.2-1.1c2.2,1.5,4.2,3.2,6.5,4.7c8.7,5.5,17.5,11,26.2,16.5C347.2,261.8,348.5,262.4,349.8,263z"/>
	<path class="st5" d="M372.5,128.5c-1.7,1.1-3.4,2.1-5,3.2c-3.1,2-5.1,4.9-5.6,8.5c-0.6,3.8-0.9,7.7-1.2,11.5c-0.1,1.1,0,2.2,0,3.4
		c-4-1.2-7.9-0.5-11.8,0c-0.2-3.3-0.3-6.5-0.7-9.8c-0.3-2.3-0.7-4.5-1.4-6.7c-0.3-1-1.5-1.8-2.3-2.7c-0.2-0.3-0.7-0.4-0.8-0.7
		c-0.3-2-1.8-3-3.2-4c-3-2.1-6.5-2.9-10-3.6c-0.7-0.1-1.4-0.3-2.2-0.4C339.8,125.5,364.6,126.2,372.5,128.5z"/>
	<path class="st7" d="M419.2,89.1c-11-1.5-21.8-3.1-32.6-4.5c-17-2.2-34-3.6-51.2-2.9c-17.5,0.8-34.9,3.1-51.7,8.2
		c-0.6,0.2-1.2,0.4-1.8,0.6c-0.1-1.3-0.2-2.5-0.3-3.9c0.5-0.2,1.2-0.5,1.8-0.7c10.3-3.1,20.8-5.2,31.4-6.4c17.1-2,34.3-1.8,51.5-1
		c12.1,0.5,24.2,1.4,35.9,4.6c5.6,1.5,11,3.7,16.4,5.7C418.8,88.8,419,88.9,419.2,89.1z"/>
	<path class="st7" d="M279.6,100.9c0-2.4,0-2.4,2.1-3.1c12.2-4,24.7-6.5,37.5-7.6c12.9-1.1,25.9-1.1,38.9-0.6
		c8.9,0.4,17.9,1,26.8,1.9c12.2,1.2,23.9,4.5,35.1,9.7c1,0.5,1.6,1,1.6,2.3c-1-0.3-1.9-0.5-2.9-0.8c-11.5-3.6-23.2-6.3-35.2-7.8
		c-16.7-2.2-33.4-2.7-50.2-1.9c-10.3,0.5-20.6,1.4-30.9,2.9c-7.4,1.1-14.7,2.5-21.9,4.8C280.2,100.7,279.9,100.8,279.6,100.9z"/>
	<path class="st5" d="M286.2,179.5c-1.9-1.5-3.9-2.9-5.6-4.6c-5.6-5.5-9.3-12.2-10.2-20.1c-0.6-5.6,0.7-10.7,4.6-14.9
		c2.3-2.6,4.8-3.4,7-2.7c0.7,1.8,1.3,3.2,1.8,4.7c0.2,0.7,0.4,1.5,0.5,2.2c0.6,9.1,1.2,18.1,1.8,27.2c0.2,2.7,0.4,5.3,0.6,7.9
		C286.5,179.3,286.3,179.4,286.2,179.5z"/>
	<path class="st6" d="M362.6,263.5c10.5-6.7,21.1-13.1,30.2-21.8c1.9,2.8,4.3,21.8,3.3,26.4C384.9,266.6,373.8,265.1,362.6,263.5z"
		/>
	<path class="st4" d="M342.3,267.9c5-0.4,9.2-3,14-2.3c3.5,0.5,7,1,10.5,1.5c1.1,0.2,2.3,0.3,3.5,0.5c-0.2,0.4-0.4,0.8-0.6,1.2
		c-2.3,3.6-4.5,7.2-6.8,10.7c-0.6,0.9-1.4,1.8-2.2,2.6c-3.2,3.3-4.7,3.5-8,0.3C348.4,278.4,345.4,273.4,342.3,267.9z"/>
	<path class="st5" d="M417.2,178.3c-0.4-11.8,1-23,3.2-34.3c2.7,0.5,3.2-1.6,3.9-3.7c2,2.4,3,5.1,3.6,8c1.3,6.9-0.4,13.4-3.1,19.6
		c-1.1,2.6-2.7,5.1-4.3,7.5C419.8,176.6,418.4,177.3,417.2,178.3z"/>
	<path class="st5" d="M282.3,458.1c0.6,6.1-2.7,33.4-4.8,41c-3.1-1.8-6.1-3.6-9.1-5.5c-0.3-0.2-0.2-1.4,0-2
		c2.8-6.9,5.8-13.8,8.6-20.7C278.8,466.6,280.5,462.4,282.3,458.1z"/>
	<path class="st6" d="M307.5,150.8c3.4-3.5,7.5-5.7,12.3-7.1c-0.8,5.3,1.2,8.9,6,10.7c4.2,1.6,7.8,0.7,10.9-2.7
		c0.3,0.4,0.6,0.7,0.9,1.1C328.8,159.9,312.2,158.9,307.5,150.8z"/>
	<path class="st2" d="M303.9,135.6c9.5-9.1,32.2-7.5,37.5-0.4C328.8,133.4,316.4,134.3,303.9,135.6z"/>
	<path class="st8" d="M389.2,140.2c1.6,0.4,3.3,0.7,4.9,1.3c0.4,0.1,0.9,1,0.9,1.5c-0.2,2.6-1.1,4.9-3.1,6.7c-2.3,2.1-5.6,2.4-8,0.6
		c-2.4-1.8-3.3-5.2-2.1-7.9c0.2-0.4,0.8-0.9,1.2-1C385,140.9,387,140.6,389.2,140.2z"/>
	<path class="st6" d="M397.9,144.6c0.7,1.3,1.5,2.5,2.2,3.8c0.5,0.8,0.3,1.4-0.4,2.1c-7.8,6.7-16.6,8.1-25.4,2.2
		c-0.5-0.4-1.1-0.7-1.8-1.2c1.9-2.9,3.7-5.9,6.6-8.1c-0.2,6.1,2.1,9.7,6.5,10.7c3,0.7,5.7-0.1,8-2.1
		C395.9,150,397,147.5,397.9,144.6z"/>
	<path class="st2" d="M368.2,133.7c2.9-1.5,5.7-3,8.6-4.3c0.8-0.4,2.1-0.1,3,0.1c7.8,1.6,15.7,1.9,23.5,2.4c2.6,0.2,2.7,0.2,2.2,2.7
		c-6.2-0.4-12.4-1-18.6-1.1c-6.2-0.1-12.4,0.3-18.6,0.5C368.3,133.8,368.3,133.7,368.2,133.7z"/>
	<path class="st2" d="M410.9,163.5c0.2-8.3,0.3-16.4,0.5-24.8c1.6,0.3,3.1,0.7,4.8,1c-0.1,2.1-0.3,4.1-0.4,6.2
		c-0.2,3.8-0.5,7.7-0.8,11.5c-0.1,1.3-0.5,2.5-0.8,3.7C413.7,162.7,412.5,163.3,410.9,163.5z"/>
	<path class="st8" d="M334.7,149.6c-1.8,2.8-5.2,3.6-8.5,2.2c-3.2-1.4-4.8-4.4-4.1-7.5c0.2-0.8,0.6-0.9,1.3-0.8
		C326.8,144.1,332.2,146.9,334.7,149.6z"/>
	<path class="st2" d="M285.1,129.1c3.3,0.4,6.3,0.7,9.4,1c-0.3,2.2-0.6,4.4-1,6.6c-2.6,1.6-5-0.2-7.6-0.8
		C285.7,133.8,285.4,131.5,285.1,129.1z"/>
	<path class="st5" d="M296.4,136.8c0-2.3,0-4.3,0-6.4c4.6-0.4,9.2-0.7,13.7-1.1c-1.5,0.8-3.2,1.6-4.7,2.6c-1.6,1.1-2.9,2.5-4.4,3.8
		c-0.2,0.2-0.5,0.4-0.8,0.5C299,136.4,297.8,136.5,296.4,136.8z"/>
	<path class="st2" d="M291,141.2c0.9-0.2,1.7-0.4,2.5-0.6c1,7.7,1.9,15.4,2.9,23c-0.1,0.1-0.1,0.1-0.2,0.2c-0.4-0.8-1-1.5-1.2-2.3
		c-0.8-3.2-1.6-6.3-2.2-9.6C292,148.4,291.5,144.9,291,141.2z"/>
	<path class="st7" d="M428,97.3c-1.8-0.8-3.3-1.2-4.6-2c-2.1-1.2-2.6-4.3-1.2-6.3c1.2-1.7,4-1.4,5,0.5c0.5,0.9,0.7,2.1,0.8,3.1
		C428.1,94.1,428,95.5,428,97.3z"/>
	<path class="st7" d="M423.2,98.9c4.1-0.3,7.5,3.7,6.4,7.1c-0.6,2-1.9,2.3-3.3,0.8C424.2,104.7,423.4,101.9,423.2,98.9z"/>
	<path class="st7" d="M274.7,95.4c-1.3-2.9-0.1-6.7,2.4-8.3c0.8-0.5,1.6-0.7,2,0.5C280,89.8,278.1,95.4,274.7,95.4z"/>
	<path class="st2" d="M411.2,131.5c2-0.6,3.8-1.1,5.8-1.7c-0.2,2.2-0.3,4.2-0.5,6.4c-1.5-0.1-2.8-0.2-4.2-0.4
		c-0.3,0-0.7-0.5-0.7-0.8C411.4,133.9,411.3,132.7,411.2,131.5z"/>
	<path class="st7" d="M277.3,99.6c-0.3,1.8-0.8,3.7-2.5,5c-1.4,1.1-2.4,0.7-2.7-1c-0.3-1.9,1.3-4.9,3.1-5.7
		C276.6,97.4,277.4,98,277.3,99.6z"/>
	<path class="st9" d="M342.8,273.7c-3.2-1.5-6-2.9-8.9-4.2c0-0.1,0-0.2,0-0.3c2-0.2,3.9-0.5,5.9-0.7c0.2,0,0.4,0.3,0.6,0.5
		C341.1,270.4,341.8,271.8,342.8,273.7z"/>
	<path class="st9" d="M378.3,268.9c-2.5,1.4-5.1,2.8-7.6,4.2c-0.1-0.1-0.1-0.2-0.2-0.2c0.8-1.5,1.5-3,2.3-4.5
		c0.1-0.2,0.5-0.4,0.8-0.4c1.5,0.2,3.1,0.4,4.6,0.6C378.2,268.6,378.2,268.8,378.3,268.9z"/>
	<path class="st5" d="M408,135c0-1.1,0-2.1,0-3.1c1.1-0.2,1.5,0.7,1.1,3.3c-0.3,0-0.5,0-0.8-0.1C408.2,135.1,408,135,408,135z"/>
	<path d="M417.3,536.5c0.1,0.7,0.3,1.4,0.3,2.1c0,15.5-0.1,31,0,46.5c0.2,22.8,0.4,45.6,0.7,68.4c0.1,8.9,0.6,17.7,1,26.6
		c0,0.5,0,1.1,0.1,1.6c0.5,4.9-0.7,9.2-4.1,12.9c-1.5,1.6-2.6,3.5-3.8,5.4c-0.9,1.4-1.2,3-0.6,4.6c0.7,2.2,0.6,4.5,0,6.7
		c-0.4,1.7-0.6,3.6-0.6,5.4c-0.1,15,0,29.9-0.4,44.9c-0.4,16-1.1,32-1.8,48c-0.3,7.8-0.9,15.6-1.5,23.4c-0.3,3.5-1,6.9-1.6,10.3
		c-0.1,0.4-0.5,0.7-0.7,1.1c-0.2-0.4-0.5-0.9-0.5-1.3c0.7-11.8,1.6-23.6,2.2-35.4c0.8-15.1,1.5-30.3,1.9-45.4
		c0.4-14.7,0.4-29.5,0.7-44.2c0.1-2.8,0.7-5.5,1-8.3c0.1-1.4,0.2-3-0.2-4.4c-0.6-2.5-0.4-4.8,1.1-7c1.6-2.4,3.2-4.7,4.9-7
		c1.4-1.9,2.1-3.9,2-6.2c-0.2-5.9-0.5-11.8-0.6-17.7c-0.4-14.4-0.9-28.9-0.9-43.3c-0.1-25.5,0.2-50.9,0.3-76.4c0-3.2,0-6.4,0.1-9.6
		c0-0.6,0.2-1.1,0.3-1.7C416.8,536.4,417,536.5,417.3,536.5z"/>
	<path d="M315.9,556.9c0.4,0.1,0.9,0.2,1.2,0.4c12.4,6.8,24.7,13.5,37.1,20.4c0.7,0.4,1.1,1.1,1.7,1.7c-1,0.8-1.7-0.2-2.4-0.5
		c-12.4-6.4-24.7-12.9-36.6-20.3c-0.5-0.3-0.9-0.7-1.3-1.1C315.7,557.3,315.8,557.1,315.9,556.9z"/>
	<path d="M239.3,421.6c-0.2,0.3-0.5,0.9-0.8,0.9c-0.4,0-0.9-0.4-1-0.8c-0.7-1.7-1.2-3.5-1.8-5.3c-4.1-13.2-8.2-26.3-12.3-39.5
		c-0.1-0.3-0.2-0.6-0.2-0.8c0-0.3,0.2-0.5,0.4-0.8c0.2,0.1,0.5,0.3,0.7,0.4c0.1,0.1,0.2,0.3,0.2,0.5c4.5,13.4,9,26.8,13.5,40.2
		C238.5,418.1,238.8,419.8,239.3,421.6z"/>
	<path d="M378.6,497.3c-2.8-0.4-5.9-1.5-8.3-4.1c-2.1-2.3-1.8-5.1,0.8-6.8c2.7-1.9,5.8-2.9,9.2-2.3c3.8,0.6,6.6,3.5,6.4,6.7
		C386.3,494.4,383,497.3,378.6,497.3z M378.7,486.1c-2.5,0.1-4.6,0.9-6.4,2.2c-1.3,0.9-1.5,2.3-0.4,3.4c1.9,1.8,4.1,3.2,6.8,3.5
		c2.7,0.2,5.3-1.9,5.6-4.4c0.3-2-1.5-3.9-4.3-4.5C379.5,486.2,379,486.1,378.7,486.1z"/>
	<path d="M376.3,452.8c3.1,0,5.8,0.9,8,2.9c3.3,2.9,3,7.3-0.6,9.8c-5.4,3.8-13.4,1-14.7-5.5c-0.7-3.3,1.9-6.6,5.7-7.1
		C375.3,452.8,375.9,452.8,376.3,452.8z M370.8,459.8c0.3,0.8,0.3,1.8,0.8,2.3c2.9,3,6.8,4.3,10.8,1.8c2.7-1.7,2.8-4.6,0.4-6.7
		c-2.1-1.7-4.6-2.5-7.3-2.2C372.5,455.3,371,456.9,370.8,459.8z"/>
	<path d="M460.4,359.3c-0.2,0.3-0.4,0.7-0.7,1c-3.8,3.2-7.7,6.4-11.6,9.6c-0.7,0.6-1.7,0.9-2.5,1.3c-0.3,0.1-0.7-0.2-1-0.3
		c0.1-0.3,0.2-0.8,0.4-0.9c4.7-3.5,9.3-7.1,14-10.6c0.3-0.2,0.6-0.2,1-0.4C460.1,359.1,460.2,359.2,460.4,359.3z"/>
	<path d="M372.5,66.3c-0.7,2.7-2.8,3.5-5.1,3.8c-2.2,0.3-4.3,0-5.7-2c-0.3-0.4-0.9-0.7-1.4-0.6c-5.5,0-11.1,0.1-16.6,0.3
		c-0.4,0-0.9,0.4-1.2,0.7c-1.8,2-5,2.9-7.6,2.1c-2-0.7-3-2.4-3.8-4.1c-1-2.1-1.7-4.3-2.5-6.5c-0.5-1.4-0.1-2.2,1.4-2.6
		c1.3-0.4,2.7-0.6,4-0.9c0.9-0.1,1.4-0.5,1.4-1.5c0-2.1,0.2-4.2,0.3-6.3c0-1.3,0.6-2.2,1.9-2.4c2.8-0.5,5.5-1,8.3-1.3
		c8.7-0.9,17.4-0.7,26,1.3c3.3,0.7,4,1.5,4.2,4.9c0.3,4.5,0.2,8.9-1,13.3C374.7,66,374.4,66.3,372.5,66.3z M358.9,55.5
		c0.1-1.3,0.1-2.4,0.3-3.5c0.1-0.3,0.5-0.6,0.7-0.9c0.3,0.3,0.7,0.5,0.8,0.9c0.3,1.2,0.5,2.5,0.8,3.8c0.7,0,1.3,0,2,0
		c0-1-0.1-1.9,0-2.9c0-0.4,0.5-0.7,0.7-1.1c0.4,0.3,0.9,0.6,1,1c0.3,1.1,0.5,2.2,0.7,3.4c0.4,0,0.9,0,1.2,0.1
		c0.1-1.2,0.2-2.2,0.4-3.2c0.1-0.3,0.5-0.7,0.9-0.7c0.2,0,0.7,0.4,0.7,0.7c0.2,1.1,0.3,2.3,0.4,3.7c-0.1,0,0.1,0,0.2,0.1
		c0.2,0.3,0.4,0.6,0.7,1c-0.4,0.1-0.7,0.4-1.1,0.4c-0.4,0.1-0.8-0.1-1.1-0.1c-2.8-0.3-5.6-0.8-8.4-0.7c-7,0.1-14,0.3-21,0.6
		c-2.6,0.1-5.1,0.9-7.8,1.4c0.4,1.1,0.7,2.1,1.1,3.1c3.3-2.8,9.6-2.5,11.5,3.1c0.1,0,0.3,0.1,0.4,0.1c5.3-0.2,10.7-0.3,16-0.6
		c0.4,0,1-0.6,1.2-1c1.3-2.4,2.7-3.3,5.1-2.9c2.1,0.4,3.9,1.2,5.3,2.9c0.2,0.2,0.4,0.4,0.8,0.7c0.2-0.6,0.3-1.1,0.5-1.5
		c1.1-3.8,1-7.7,0.9-11.6c-0.1-2.4-0.3-2.6-2.6-3.1c-7.6-1.6-15.2-2-22.9-1.3c-3,0.3-6,0.7-8.9,1.1c-0.4,0.1-1.1,0.5-1.1,0.8
		c-0.2,2.5-0.3,5-0.4,7.6c1.5-0.2,2.8-0.3,4-0.5c0-1.4-0.1-2.6,0-3.8c0-0.5,0.5-0.9,0.8-1.4c0.3,0.5,0.8,0.9,0.8,1.4
		c0.1,1.2,0,2.4,0,3.7c1-0.1,1.9-0.2,2.9-0.3c0-1-0.1-1.9,0-2.7c0.1-0.5,0.6-1,1-1.5c0.3,0.5,0.8,0.9,1,1.5c0.2,0.8,0.2,1.8,0.2,2.7
		c0.7-0.1,1.3-0.1,1.8-0.1c0-1-0.2-1.8-0.1-2.7c0-0.4,0.5-0.8,0.7-1.2c0.4,0.3,0.9,0.6,1,1c0.3,0.9,0.3,1.9,0.5,2.8
		c0.7,0,1.4,0,1.9,0c0.1-1.3,0.1-2.4,0.3-3.6c0.1-0.4,0.5-0.7,0.8-1c0.2,0.3,0.6,0.6,0.7,1c0.2,1.2,0.2,2.4,0.4,3.6
		C357.4,55.5,358.1,55.5,358.9,55.5z M333.8,64.9c0.1,2.7,1.6,3.9,4,3.4c0.8-0.2,1.6-0.5,2.2-0.9c1.3-0.8,1.3-1.9,0.2-3
		c-1.5-1.4-3.2-1.7-5.1-1.1C334.2,63.6,333.5,63.9,333.8,64.9z M366.2,68.1c1.1-0.4,2.2-0.6,3.2-1.1c0.8-0.4,0.9-1.1,0.2-1.8
		c-1.2-1.2-2.7-2-4.5-1.9c-1.5,0.1-2.3,1.2-1.9,2.7C363.6,67.4,364.3,67.8,366.2,68.1z"/>
	<path d="M354.9,207.8c-8.1,0-14.4-0.7-20.5-2.9c-1.3-0.5-2.6-1.1-3.9-1.8c-0.4-0.3-0.6-1-0.8-1.6c0.6-0.1,1.2-0.5,1.7-0.4
		c3.7,0.9,7.4,2.3,11.2,2.9c12,1.9,23.8,0.7,35.3-3.6c2.1-0.8,4.2-1.6,6.3-2.4c1-0.4,2-0.7,2.6,0.5c0.5,1.2-0.4,1.8-1.4,2.3
		C375.1,205.2,364.5,208,354.9,207.8z"/>
	<path class="st0" d="M378.7,486.1c0.3,0.1,0.8,0.1,1.4,0.2c2.8,0.6,4.6,2.4,4.3,4.5c-0.3,2.5-2.9,4.6-5.6,4.4
		c-2.7-0.2-4.9-1.6-6.8-3.5c-1.1-1.1-0.9-2.4,0.4-3.4C374.1,486.9,376.2,486.2,378.7,486.1z"/>
	<path class="st0" d="M370.8,459.8c0.2-2.8,1.7-4.5,4.7-4.8c2.7-0.3,5.2,0.4,7.3,2.2c2.4,2,2.3,5-0.4,6.7c-4,2.6-7.9,1.3-10.8-1.8
		C371.1,461.5,371,460.5,370.8,459.8z"/>
	<path class="st7" d="M358.9,55.5c-0.8,0-1.5,0-2.2,0c-0.1-1.2-0.2-2.4-0.4-3.6c-0.1-0.4-0.4-0.7-0.7-1c-0.3,0.3-0.8,0.6-0.8,1
		c-0.2,1.2-0.2,2.3-0.3,3.6c-0.5,0-1.2,0-1.9,0c-0.2-1-0.2-1.9-0.5-2.8c-0.1-0.4-0.7-0.7-1-1c-0.3,0.4-0.7,0.8-0.7,1.2
		c-0.1,0.8,0,1.7,0.1,2.7c-0.6,0-1.1,0.1-1.8,0.1c-0.1-1,0-1.9-0.2-2.7c-0.1-0.5-0.6-1-1-1.5c-0.3,0.5-0.9,1-1,1.5
		c-0.2,0.9,0,1.8,0,2.7c-1,0.1-1.9,0.2-2.9,0.3c0-1.2,0.1-2.5,0-3.7c-0.1-0.5-0.6-1-0.8-1.4c-0.3,0.5-0.7,0.9-0.8,1.4
		c-0.1,1.2,0,2.4,0,3.8c-1.1,0.1-2.5,0.3-4,0.5c0.1-2.6,0.2-5.1,0.4-7.6c0-0.3,0.7-0.7,1.1-0.8c3-0.4,5.9-0.8,8.9-1.1
		c7.7-0.7,15.3-0.3,22.9,1.3c2.4,0.5,2.6,0.7,2.6,3.1c0.1,3.9,0.2,7.8-0.9,11.6c-0.1,0.4-0.3,0.9-0.5,1.5c-0.4-0.3-0.7-0.5-0.8-0.7
		c-1.4-1.6-3.2-2.5-5.3-2.9c-2.4-0.4-3.9,0.5-5.1,2.9c-0.2,0.5-0.8,1-1.2,1c-5.3,0.3-10.7,0.4-16,0.6c-0.1,0-0.3,0-0.4-0.1
		c-1.9-5.5-8.1-5.9-11.5-3.1c-0.3-1-0.7-2-1.1-3.1c2.7-0.5,5.3-1.3,7.8-1.4c7-0.4,14-0.6,21-0.6c2.8,0,5.6,0.5,8.4,0.7
		c0.4,0,0.8,0.2,1.1,0.1c0.4-0.1,0.7-0.3,1.1-0.4c-0.2-0.3-0.4-0.7-0.7-1c-0.1-0.1-0.3-0.2-0.2-0.1c-0.1-1.4-0.2-2.5-0.4-3.7
		c0-0.3-0.5-0.8-0.7-0.7c-0.3,0.1-0.8,0.4-0.9,0.7c-0.2,1-0.3,2-0.4,3.2c-0.3,0-0.8,0-1.2-0.1c-0.2-1.2-0.4-2.3-0.7-3.4
		c-0.1-0.4-0.7-0.6-1-1c-0.2,0.4-0.6,0.7-0.7,1.1c-0.1,0.9,0,1.9,0,2.9c-0.7,0-1.4,0-2,0c-0.3-1.3-0.5-2.6-0.8-3.8
		c-0.1-0.3-0.5-0.6-0.8-0.9c-0.2,0.3-0.6,0.6-0.7,0.9C359,53.1,359,54.3,358.9,55.5z"/>
	<path class="st7" d="M333.8,64.9c-0.3-1,0.4-1.4,1.3-1.6c1.9-0.6,3.7-0.3,5.1,1.1c1.1,1,1,2.1-0.2,3c-0.7,0.4-1.4,0.8-2.2,0.9
		C335.3,68.8,333.8,67.6,333.8,64.9z"/>
	<path class="st7" d="M366.2,68.1c-1.9-0.2-2.6-0.7-2.9-2.1c-0.4-1.5,0.4-2.6,1.9-2.7c1.7-0.1,3.2,0.7,4.5,1.9
		c0.7,0.6,0.6,1.4-0.2,1.8C368.4,67.4,367.3,67.7,366.2,68.1z"/>
</g>
</svg>
