<?xml version="1.0" encoding="utf-8"?>
<!-- Generator: Adobe Illustrator 21.0.0, SVG Export Plug-In . SVG Version: 6.00 Build 0)  -->
<svg version="1.1" xmlns="http://www.w3.org/2000/svg" xmlns:xlink="http://www.w3.org/1999/xlink" x="0px" y="0px"
	 viewBox="0 0 600 472.1" style="enable-background:new 0 0 600 472.1;" xml:space="preserve">
<style type="text/css">
	.st0{fill:#F1D1A4;}
	.st1{fill:#A8523C;}
	.st2{fill:#FFFFFF;}
	.st3{clip-path:url(#SVGID_2_);}
	.st4{display:none;}
</style>
<g id="Слой2_xA0_Изображение_1_">
	<g>
		<path class="st0" d="M560.5,411.2c1.1-1.1,2.2-2.1,3.1-3.2c0.5-0.5,0.4-1.2-0.4-1.4c-1.5-0.5-2.9-0.7-4.5,0.3
			c-1.8,1.2-3.9,1.9-6,2.7c-0.7,0.3-1.6,0.2-1.9-0.8c-0.3-0.9,0.3-1.4,1.1-1.7c0.4-0.2,0.8-0.3,1.2-0.5c1-0.4,2.1-0.9,3.1-1.4
			c0-0.1,0-0.2-0.1-0.3c-0.9-0.1-1.8-0.3-2.7-0.3c-4.7-0.1-9.4-0.2-14.1-0.3c-9.1-0.1-18.1-0.3-27.2-1.7c-6-0.9-11.1-3.2-15.3-7.7
			c-4.2-4.5-7.4-9.7-10.1-15.2c-6.6-13.6-11.1-27.9-15.6-42.2c-2.1-6.7-3.1-13.6-4.8-20.4c-2.6-10.8-4-21.7-4.6-32.7
			c-0.6-11-0.2-21.9,0.2-32.9c0.5-13.3,0.7-26.6,1-39.9c0-1.1-0.1-2.2-0.3-3.2c-1-5.7-2.5-11.3-4.6-16.7c-3.6-9.4-11-15.3-19-20.5
			c-3.4-2.3-6.8-4.5-9.4-7.7c-2.3-2.9-4.8-5.6-7-8.5c-4-5.5-9.3-8.7-15.7-10.7c-0.7-0.2-1.6-0.3-2.3-0.1c-6.1,1.4-12.1,2.9-18.1,4.5
			c-11.1,2.9-22.2,5.2-33.7,5.6c-9.9,0.3-19.8,0.6-29.7,1.1c-4.4,0.2-8.8,0.6-13.1,1.3c-7.4,1.3-14.4,4-21.2,6.9
			c-8.4,3.6-16.8,7.1-25.1,10.6c-1.3,0.6-2.7,0.9-4.1,1.4c2.2,2,4.3,3.9,6.3,5.8c-0.2,0.2-0.3,0.4-0.5,0.5c-0.1-0.1-0.3-0.1-0.4-0.2
			c-5.9-3.3-11.8-6.5-17.7-9.8c-0.4-0.2-0.8-0.4-1.2-0.4c-3.1-0.1-6.2-0.2-9.4-0.2c-3.2,0-6.2,0.8-9,2.6c-1,0.7-2,1.3-3.1,1.9
			c-0.7,0.4-1.4,0.6-1.9-0.1c-0.6-0.8-0.2-1.4,0.4-2c0.3-0.2,0.6-0.5,0.8-0.7c0.7-0.6,1.5-1.1,2.3-1.7c-6.9-4-12.3-9.3-17-15.4
			c-3.8-4.8-5.4-10.2-5.9-16c-0.2-2-0.1-4,0-6c0-2.8,0-5.5,0.1-8.3c0.3-8.4,0.8-16.8,0.8-25.2c0-6.4-1.3-12.7-4.1-18.6
			c-1.7-3.7-4-7.2-6.1-10.7c-0.2-0.4-0.4-0.7-0.6-1.1c1.1,1,2.1,2.1,3,3.2c3.2,3.8,6.1,7.7,7.9,12.4c2.9,7.5,3.3,15.3,3,23.1
			c0,0.6-0.1,1.1-0.1,1.7c0,0.5,0,1,0,1.5c3.1-11.2,4.6-22.5,2.8-34.4c2.2,2.1,4.3,4,6.3,5.9c0.2-0.1,0.4-0.2,0.5-0.2
			c-0.1-1.1,0-2.2-0.3-3.2c-0.9-3.5-2.8-6.6-5-9.5c-1.5-1.9-3.1-3.8-4.6-5.7c-0.3-0.4-0.6-0.9-0.8-1.4c0.1-0.1,0.2-0.2,0.3-0.3
			c4.5,1.9,9,3.8,13.6,5.7c-2.9-8.7-7.9-15.6-15.9-20.4c0.3,5.4-1.6,9.7-5,13.4c-2.3,2.6-5.1,4.3-8.8,3.2c-0.2-0.1-0.5-0.1-0.7,0
			c-5.1,0.2-9.8-1.3-14.1-3.9c-0.6-0.4-1.5-0.5-2.2-0.5c-4,0-7.9-0.5-10.4-4.2c-0.2-0.2-0.4-0.4-0.6-0.6c-2.3-2.2-2.2-5.2,0.3-7.1
			c1.3-0.9,2.9-1.4,4.4-2.1c0.4-0.2,0.8-0.2,1.1-0.4c2.8-2.3,5.5-4.7,8.2-7.1c-3.5,0.6-7.2,0.3-10.4,2.2c2.6-3.1,5.1-6.3,7.1-10.1
			c-1.4,0.1-2.6,0.1-3.7,0.3c-7.2,1.7-13.5,4.8-18.3,10.6c-1,1.2-1.9,2.4-3,3.4c-0.6,0.6-1.6,0.8-2.4,1.2c-0.1-0.1-0.2-0.2-0.3-0.4
			c1.2-2.7,2.3-5.4,3.6-8.2c-7.7,1.9-13.7,6.3-19.1,11.8c0.1,0.1,0.1,0.2,0.2,0.3c0.5-0.3,1.1-0.5,1.5-0.7c-0.5,0.6-1.1,1.2-1.6,1.8
			c-2.3,3.2-3.4,6.9-4.4,10.7c-0.1,0.3-0.1,0.6,0,1c0.7,3.8-0.3,7.4-0.9,11c-1,5.7-3.9,10.2-8.3,13.9c-2.8,2.4-5.7,4.7-8.5,7.1
			c-1.1,0.9-2,2-3,3c1.1,0,2-0.3,2.9-0.5c4.2-1,8.4-1.5,12.7-0.2c2.4,0.7,2.9,3,1,4.6c-0.7,0.6-1.7,1.1-2.5,1.6
			c-2.5,1.6-5.1,3.1-7.5,4.7c-1.6,1.1-1.6,2.3-0.5,4c2.1,3,5.3,4.1,8.6,4.3c4.1,0.2,8.3,0,12.4-0.3c1.2-0.1,2.7-0.9,3.5-1.9
			c2.4-3,4.5-6.3,6.6-9.3c-2.2-1-4.5-1.9-6.6-3.1c-4.8-2.6-6.5-7-6.2-12.1c0.4-5,2.9-9.1,6.7-12.4c1.9-1.7,2.9-3.7,2.6-6.3
			c-0.3-2.9-0.5-5.8-0.6-8.7c-0.1-2.3,0.7-4.3,1.7-6.3c1.5-2.8,4-4.7,6.3-6.6c0.5-0.4,1.1-0.8,1.6-1.2c-2.9,5.2-4.8,10.4-3.5,16.5
			c1-0.2,1.7-0.4,2.4-0.6c3.1-0.7,5.9,0,7.6,2.7c1.2,2,2.7,2.8,5,3.2c5.5,1.1,9.5,7,8.4,12.3c-0.1,0.6-0.5,1.1-0.6,1.5
			c-0.8-1.2-1.3-2.8-2.4-3.6c-2.3-1.8-5.1-2.2-8.1-0.3c-4.9,3.3-10.3,5.1-16.2,2.4c-2.4,4.7,0.5,10.4,3.4,13
			c2.4,2.1,4.8,4.2,7.2,6.4c1.7,1.5,3,3.4,3.3,5.7c0.2,1.1,0,2.3,0,3.5c4.4-0.3,8.5,0.9,12.6,2c1.3,0.4,2.8,0.7,4.1,0.6
			c2.6-0.2,4.5-1.8,6-3.8c1.9-2.5,3.7-5.2,5.6-7.8c0.5-0.7,1-1.4,1.4-2c0.1,0.6,0,1.2-0.2,1.7c-0.9,4.1-2.1,8-5,11.1
			c-3.2,3.4-6.9,5-11.7,3.3c-2.3-0.8-4.7-1.3-7.1-1.9c-4.9-1.2-9.4-0.4-13.7,2.3c-0.2,0.1-0.4,0.3-0.8,0.6c0.4,0.1,0.7,0.1,0.9,0.2
			c9.5,1.9,15,6.8,16.5,15.9c1.8,10.6,1.5,21.2-1,31.7c-2,8.5-3.5,17-2.7,25.8c0.5,5.7,1.3,11.3,3.8,16.5c1.9,4.1,3.2,8.4,3.4,12.9
			c0.1,1.1-0.4,2.2-0.6,3.3c-0.1,0-0.2-0.1-0.3-0.1c-2.1-6.1-4.2-12.3-6.3-18.4c-0.5,1.7-0.8,3.5-1.1,5.2c-0.8,4.3-1.1,8.6-0.3,13
			c1.4,7.5,3.8,14.6,7.8,21.1c3.5,5.7,7.4,11.2,11.1,16.8c4.3,6.5,8.1,13.3,11.2,20.5c0.9,2.1,1.6,4.2,1.5,6.5
			c-0.1,9-0.1,18.1-0.2,27.1c-0.1,10.6-0.2,21.1-0.4,31.7c-0.1,4.1-0.3,8.2-0.4,12.3c-0.3,7.5-0.5,15-1.9,22.3c-1.5,8-3.2,16-5,24
			c-1.5,6.6-3.2,13-6.3,19.1c-0.9,1.8-2.4,2.7-4.3,2.2c-1.1-0.2-2.2-0.8-3.2-1.2c-1.8-0.6-2.7-0.5-3.4,1c-1,2.5-1.9,5-2.9,7.5
			c-0.1,0.3-0.1,0.7-0.1,1.1c0.4,0,0.7,0,1,0c6.3-0.1,12.6-0.2,18.8-0.3c2.6,0,4.8-1.3,6-3.4c1.3-2.4,1.9-5.3,2.8-7.9
			c-0.7,0.1-1.2,0.4-1.6,0.5c-0.9,0.2-1.8,0.5-2.6,0.4c-2.1-0.4-3-2.2-2.4-4.7c0.7-2.8,1.5-5.6,2.4-8.4c0.1-0.3,0.5-0.7,0.8-0.7
			c0.3,0,0.8,0.3,0.9,0.6c0.2,0.5,0.3,1.1,0.2,1.6c-0.4,2.4-1,4.7-1.4,7c-0.1,0.5-0.1,1.4,0.2,1.5c1.1,0.7,2.3,1.3,3.7,2
			c0.7-3,1.5-5.8,2-8.6c2.7-15.2,5.4-30.4,8-45.6c0.9-5.2,1.8-10.4,2.6-15.6c0.9-5.7,1.5-11.4,2.3-17.1c0.6-4,1.4-7.9,1.9-11.8
			c1.1-8.9,2-17.8,3-26.7c0.8-7.4,1.6-14.7,1.5-22.1c-0.1-3.7-0.1-3.7-3.5-5c0,0-0.1,0-0.1,0c-6.4-2.6-12.8-5.1-18.3-9.3
			c0,0-0.1,0-0.2,0.1c1.5,3.9,3,7.8,4.4,11.7c-0.3-0.1-0.5-0.3-0.6-0.5c-3.1-4.3-5.7-8.8-7.8-13.6c-0.6-1.4-1.2-2.8-2-4.1
			c-3.5-5.9-7.6-11.2-12.2-16.3c-1.5,0.3-2.1-0.1-1.7-1.6c0.8-3,2.6-5.4,4.5-7.8c-0.7,2.9-1.4,5.8-2.1,8.8c3.7,1.6,6.4,4.5,8.7,7.7
			c1.8,2.5,3.3,5.1,5,7.6c0.8,1.1,1.7,2.3,2.7,3.2c3.8,3.5,8.3,5.8,12.9,7.9c10.8,4.8,22.1,8.2,33.4,11.8c0.3,0.1,0.7,0.2,1.1,0.3
			c-0.1-0.3-0.1-0.4-0.2-0.5c-3.9-7.2-7.5-14.7-12.4-21.3c-3.6-4.7-6.7-9.8-10.2-14.5c-2.6-3.4-4.9-6.9-6.8-10.7
			c-1-1.9-1.3-3.8-0.6-5.9c1.4-4.2,2.9-8.5,4.4-12.7c2-5.8,4.1-11.7,6.2-17.5c0.4-1.1,1-2.2,1.6-3.2c0.1-0.2,0.6-0.5,0.9-0.4
			c0.2,0.1,0.5,0.5,0.5,0.8c0,0.8,0,1.5-0.2,2.2c-1.9,6.3-3.8,12.7-5.8,19c-1.3,4.2-2.8,8.3-4.3,12.5c-0.4,1.3-0.3,2.5,0.4,3.7
			c1.2,2,2.3,4.1,3.6,6.1c4.2,6.4,8.4,12.8,12.7,19c3.9,5.6,7.6,11.4,10.7,17.5c1.9,3.8,4.2,7.5,3.9,12.1c-0.2,2.5,0.3,5,0.3,7.5
			c0.1,4.6-0.1,9.2,0,13.8c0.2,6.9,0.5,13.7,0.8,20.6c0.4,7.4,1,14.8,1.3,22.3c0.4,10.6-0.4,21.1-2.4,31.5
			c-3.1,16.5-6.9,32.8-13.4,48.6c0,0,0.2,0.2,0.4,0.3c2.1,1.3,4.2,2.5,6.2,3.8c0.5,0.3,0.7,1,1,1.5c-0.6,0.3-1.1,0.9-1.7,0.8
			c-1-0.1-2.1-0.4-3.1-0.9c-1.7-0.9-3.4-1.9-5.1-2.9c-2.3-1.4-4.9-2-7.5-1.7c-6.1,0.7-10.2,5-8.7,12c0.1,0.3,0.5,0.7,0.7,0.7
			c3.7,0,7.4,0,11.1,0c-1.3-5-0.8-7.2,1.9-8.3c2.8-1.1,5.5-0.2,7.2,2.6c-2-1-3.9-0.8-5.7-0.1c-0.9,0.3-1.4,0.9-1.3,1.8
			c0.1,1,0.3,2,0.7,2.9c0.4,0.6,1.3,1.2,2,1.3c2.1,0,4.3-0.1,6.4-0.4c4.2-0.5,6.8-2.8,8.4-6.8c2.1-5.1,3.5-10.3,4.8-15.5
			c4.7-19.3,9.7-38.6,12.9-58.2c2.2-13.4,4.4-26.9,6.1-40.4c1.5-11.7,2.5-23.5,3.6-35.3c0.3-2.7,0.1-5.4,0-8
			c-0.1-2.3-1.2-4.2-2.6-5.9c-4-4.9-6.1-10.4-5.3-16.8c0.3-1.9,0.6-3.8,1.2-5.6c1.1-3.2,2.5-6.3,3.8-9.4c0.3-0.7,0.9-1.3,1.7-0.9
			c0.8,0.4,0.7,1.1,0.5,1.9c-0.5,1.5-1.1,3-1.6,4.5c-0.9,2.6-2.2,5.2-2.7,7.9c-0.8,4.9,0.2,9.6,2.9,13.9c1.7,2.7,4.3,4.9,4.7,8.5
			c5.6-1.8,11.1-3.5,16.5-5.3c4-1.3,7.8-3,11.3-5.4c3.7-2.6,6-6.3,8.3-10.1c3.9-6.6,7.6-13.2,11.7-19.7c3.6-5.7,8.4-10.4,14.2-13.9
			c10.8-6.6,22.6-9.7,35.1-10.6c1.8-0.1,3.7-0.2,5.8-0.3c0.9-6.3,1.9-12.5,2.8-18.8c0.3-1.9,0.3-3.7,0.5-5.6
			c0.1-0.8,0.4-1.4,1.3-1.5c0.9,0,1.3,0.6,1.4,1.4c0.1,0.6,0.2,1.3,0.2,1.9c-0.3,4.3-0.3,8.7-1.1,13c-2.2,13-5.5,25.7-6.9,38.8
			c-0.5,4.3-1.4,8.6-1.1,13c0.4,5.8,1.2,11.5,2.6,17c1.1,4.5,2.4,9,5,12.9c6,9,12.1,17.9,18.2,26.8c3.6,5.3,6.4,11,8.7,16.9
			c2.7,6.8,2.6,13.8,1.2,20.9c-2.9,14.6-6.7,28.9-11.4,43.1c-1.9,5.7-3.6,11.4-6.4,16.8c-1.3,2.6-3.1,4.7-5.5,6.4
			c-0.6,0.5-1.3,0.8-2.2,1.4c3.1,1,5.9,1.9,8.8,2.8c0.4,0.1,0.9,0.4,1.2,0.7c0.3,0.3,0.3,0.8,0.5,1.3c-0.4,0.1-0.8,0.4-1.2,0.3
			c-1.4-0.2-2.5,0.3-3.4,1.4c-2,2.4-2.3,5.5-3.1,8.4c4.6-0.2,8.3-1.9,10.8-5.5c1.5-2.1,2.9-4.2,4-6.5c3.4-7,6.6-14.2,10-21.3
			c2.6-5.4,5.4-10.7,7.8-16.2c5-11.2,9.7-22.5,14.6-33.8c1.3-3,2.5-6,3.3-9.2c1.3-5,0.7-9.7-1.7-14.3c-2.1-4-6.4-9.4-6.8-13.9
			c-0.1-1.3,0.2-2.7,0.6-4.1c2.3,5,4.9,9.9,7.8,14.7c2.1,3.4,3.6,7,3.8,11c0,0.4,0.2,0.9,0.5,1.1c5.4,4.3,7.7,10.3,8.8,16.8
			c0.6,3.9,0.9,7.8,1.3,11.7c0.8,7.5,0.7,14.9-0.2,22.4c-0.4,3-1,5.9-1.2,8.9c-0.1,2.3-1.1,4.1-2.9,5.4c-3.5,2.5-7.4,3.6-11.6,3.1
			c-1.1-0.1-1.8,0.4-2.1,1.2c-0.4,1.1-0.6,2.3-0.6,3.5c0.1,2.2,0.9,2.9,3.1,3c2.4,0.1,4.9,0,7.3,0c3,0.1,6,0,9,0.3
			c2.6,0.2,4.6-0.6,5.7-2.9c0.8-1.7,1.3-3.4,1.6-5.2c1-6.1,1.8-12.3,2.9-18.5c0.9-4.5,0.6-8.8-0.6-13.3
			c-5.5-20.5-10.5-41.2-12.7-62.4c-0.1-0.5-0.5-1.2-0.9-1.6c-2.4-2.2-4.9-4.3-7.2-6.5c-6.7-6.7-10.6-14.7-10.8-24.3
			c-0.1-5.6-0.1-11.2-0.2-16.8c0-0.4,0-0.8,0-1.5c-0.3,0.5-0.4,0.6-0.5,0.8c-2.5,5.9-4.9,11.9-5.7,18.4c-0.9,6.8-1,13.6,1.2,20.2
			c0,0.1,0.1,0.2,0.1,0.3c-1-0.1-2,0-2.9,0.3c-2.2-7.8-2.5-15.9-0.8-24.2c1.4-7.2,4.3-14,8-20.3c3.3-5.6,7-11.1,10.2-16.8
			c6.7-12.1,8.5-25.1,5.8-38.6c-0.4-2.1-1.1-4.2-1.6-6.3c-0.1-0.5,0.3-1,0.5-1.6c0.5,0.2,1.1,0.3,1.5,0.7c0.5,0.5,0.8,1.2,1,1.9
			c0.9,2.9,1.8,5.9,2.4,8.9c0.4,2,0.8,4,1.9,5.9c1,1.7,1.7,3.6,2.2,5.5c2.1,8.3,2.3,16.9,1.5,25.4c-0.7,8.3-2,16.6-2.7,24.9
			c-1.4,14.5-1.9,28.9-0.1,43.4c2,15.7,4.4,31.3,8,46.7c2.6,11,5.3,22,9.2,32.6c2.3,6.4,4.3,13,8.4,18.6c1.6,2.2,3.3,4.4,5.4,6.3
			c5.2,4.7,11.1,8,17.7,10.3c6.8,2.3,13.8,3.4,20.8,4.7c8.4,1.5,16.9,1.7,25.3,0.6c3.9-0.5,7.9-1.3,12-2.1c-1.1-0.3-2-0.5-2.8-0.8
			c0-0.1,0-0.2-0.1-0.3c0.6-0.2,1.2-0.6,1.8-0.7c2.1-0.4,4.2-0.7,6.2-1.1c1.5-0.3,2.8-0.8,3.5-2.3c0.2-0.4,0-0.9,0-1.3
			c-0.4,0-0.8,0-1.2,0.1c-0.6,0.2-1.2,0.7-1.8,0.8c-0.4,0.1-1.1-0.2-1.3-0.5c-0.2-0.3-0.1-1,0.2-1.4
			C559.5,411.9,560.1,411.6,560.5,411.2z M167.2,90.8c-0.4,1.3-0.9,2.6-1.6,3.8c-0.3,0.6-1,1-1.6,1.3c-0.4,0.2-1.1,0.1-1.4-0.2
			c-0.3-0.3-0.5-1-0.4-1.4c0.7-2,1.6-3.9,2.3-5.9c0.2-0.4,0.3-0.8,0.4-1.4C166.9,87.6,167.8,88.8,167.2,90.8z M165.8,231.7
			c-0.6,0.5-1-0.3-0.9-0.8c0.1-0.7,0.3-1.5,0.7-2.1c1.1-1.7,1.7-3.6,1.8-5.6c0-0.4,0.5-0.7,0.7-1.1c0.3,0.3,0.8,0.5,0.9,0.8
			c0.2,0.7,0.3,1.5,0.5,2.2C169.6,228.1,167.8,230,165.8,231.7z M168.7,234.7c-0.5,0.7-1,0.4-1.1-0.3c-0.1-0.3-0.1-0.6-0.1-0.7
			c0.1-2.3,0.9-4.1,1.9-5.8c0.2-0.3,0.8-0.7,1.1-0.6c0.3,0.1,0.7,0.7,0.6,1.1C170.9,230.7,170.2,232.9,168.7,234.7z"/>
		<g>
			<path d="M371.5,212.2c-11.2,0.6-22,2.7-32.1,7.3c-8.2,3.8-14.9,9.4-19.7,17.2c-3.6,5.7-7.1,11.5-10.2,17.5
				c-4.6,8.9-11.6,14.7-21.1,17.7c-5.7,1.8-11.5,3.5-17.3,5.3c-0.8,0.2-1.1,0.5-1.2,1.3c-0.4,5.8-0.8,11.6-1.3,17.5
				c-0.7,8.2-1.3,16.4-2.3,24.6c-1.1,9.4-2.2,18.9-3.8,28.3c-2.1,12.3-4.3,24.5-7,36.7c-2.7,12.2-6,24.3-9.3,36.5
				c-1.2,4.7-2.9,9.2-4.6,13.7c-2,5.3-6.2,7.6-11.6,8.1c-2.8,0.3-5.6,0.1-8.3-0.4c-0.4-0.1-0.9,0-1.3,0c-5.7,0.5-11.5,0.8-17.2-0.4
				c-2-0.4-4.1-0.8-5.1-2.9c-1.2-2.4-1.8-4.8-1.1-7.4c0.5-1.9,1.7-3.3,3.4-4.3c2.9-1.8,6.1-2.4,9.5-2.6c1.6-0.1,3.2-0.3,4.8-0.7
				c2.9-0.6,5.7-0.1,8.5,0.6c0.3,0.1,0.7,0.2,1.2,0.4c0.6-1.6,1.3-3.2,1.8-4.8c4.4-14,8.6-28,11.3-42.4c2.3-12.5,2.9-25.2,2-37.9
				c-0.7-10.9-1.4-21.8-2-32.7c-0.3-5.5-0.1-11.1-0.3-16.7c-0.1-3.5-0.3-6.9-0.5-10.4c0-0.4-0.4-0.9-0.7-1c-7.2-2.4-14.5-4.7-21.8-7
				c-0.1,0-0.2,0-0.3,0c0,0.3,0,0.7,0,1.1c0.1,5.8-0.2,11.6-1,17.3c-0.6,4.3-0.7,8.6-1.2,12.9c-1.3,10.7-2.7,21.5-4.2,32.2
				c-1,7.6-2.1,15.1-3.3,22.7c-1.1,7.4-2.4,14.8-3.7,22.2c-1.2,7-2.4,14.1-3.8,21.1c-1.8,9.2-3.5,18.4-6.4,27.3
				c-1.6,4.9-5.3,7.7-10.5,7.7c-7,0.1-14,0.4-21,0.4c-1.7,0-3.5-0.5-5.1-1.2c-2.7-1.2-3.6-3.5-2.8-6.3c0.9-3,2.6-5.5,5.1-7.3
				c1.8-1.3,3.7-1.4,5.8-1.1c1.3,0.2,2.6,0.2,3.9,0.4c1.1,0.2,2.2,0.5,3.2,1c2.9,1.4,3.5,1.3,4.5-1.7c3.3-9.5,5.7-19.2,7.7-29
				c2.5-12.5,3.4-25.1,4.1-37.7c0.7-12.8,0.1-25.7,0.6-38.5c0.3-7.6,0.4-15.1,0.4-22.7c0-3-0.2-5.9-0.4-8.9c0-0.7-0.4-1.4-0.7-2
				c-4.9-9.8-10.7-19-16.9-28c-3.8-5.6-7.6-11.2-10.1-17.5c-2.4-6.2-4.3-12.5-4.5-19.1c-0.1-3.3,0.5-6.6,1-9.9
				c0.5-3.6,1.3-7.1,1.9-10.7c0.1-0.7,0-1.4-0.1-2.1c-1.2-6.7-1.1-13.4-0.1-20c0.8-5.2,2.1-10.4,3.1-15.6c1.4-7.2,1.6-14.5,0.7-21.9
				c-0.2-1.7-0.5-3.4-0.8-5.1c-1.2-6.8-5.5-10.5-11.9-12.4c-1.9-0.5-3.9-1.2-5.9-0.5c-0.5,0.2-1,0.4-1.4,0.8c-1.7,1.7-3.3,3.5-5.1,5
				c-2.3,1.9-4.7,3.8-7.2,5.4c-2.3,1.5-5.1,1.3-7.6,0.4c-4.3-1.5-8.2-3.8-10.8-7.8c-0.3-0.5-0.8-1.1-0.8-1.7
				c-0.2-1.4-1.2-2.1-2.2-2.6c-2.2-1-3.8-2.7-5.1-4.6c-1.3-1.9-2.5-3.8-3.6-5.8c-1-1.8-1.4-3.7-0.1-5.6c-1.4-0.7-2.8-1.3-4.1-2
				c-5.4-3.2-11.2-4.8-17.4-5.2c-1.6-0.1-3.2,0.1-5.1,0.2c4.9-1.6,9.7-1.2,14.5-0.7c4.9,0.5,9.2,2.6,13.4,5.1
				c0.2-0.2,0.3-0.3,0.3-0.5c1.5-3.9,4.3-6.9,7.5-9.5c1.6-1.3,3.2-2.7,4.7-4c0.3-0.3,0.6-0.8,0.6-1.3c0.1-3,0.2-6,0-9
				c-0.3-5,1.6-9,4.6-12.8c1.1-1.4,2.4-2.8,3.6-4.1c-4.9-4.4-4.9-9.8-3.3-15.5c1.3-4.8,4.4-7.9,9.3-8.9c2.7-0.6,5.1,0.1,7.4,1.6
				c1.1,0.8,2.2,2.1,3.3,2.2c1.1,0.1,2.3-1.1,3.5-1.7c2.9-1.4,5.9-2.6,9.3-2.5c0.5,0,1,0,1.4,0.2c1,0.7,1.7,0.1,2.5-0.5
				c5.8-4.1,12.1-6.7,19.3-6.7c0.4,0,0.9,0,1.3,0.1c1.7,0.3,2.4,1.4,1.8,3c-0.6,1.6-1.4,3.1-2.1,4.8c1.9,0,3.8,0,5.7,0
				c0.3,0,0.5-0.2,0.8-0.3c4.1-2.4,8.3-2.4,12.5-0.6c4.2,1.8,7.3,4.8,9.6,8.7c0.2,0.4,0.5,0.7,0.9,0.9c9,4.4,15.1,11.6,18.6,20.9
				c0.5,1.2,1,2.4,1.2,3.6c0.4,1.8-0.7,3.3-2.5,3.1c-1.5-0.1-3-0.8-4.6-1.2c-0.2,0-0.3-0.1-0.5-0.2c1.1,2.2,2.2,4.2,3.1,6.4
				c0.8,1.9,1.4,3.9,0.9,5.9c-0.7,3.4-2.8,4.3-5.8,2.6c-0.1-0.1-0.3-0.1-0.5-0.2c0.6,3.8,0.8,7.6,0.1,11.3
				c-1.1,5.9-2.5,11.8-3.8,17.7c-1,4.9-2,9.8-2.9,14.7c-0.5,3-1,6.1-0.9,9.2c0.1,5.5,1.7,10.5,5.1,15c4.1,5.5,9.1,10.1,14.4,14.5
				c0.4,0.3,0.8,0.5,1.2,0.8c1.1,0.7,2.2,0.8,3.6,0.4c2.4-0.6,4.9-0.8,7.3-1.2c0.6-0.1,1.2,0,1.8,0c8.3,0.1,8.3,0.1,15.4,4.4
				c0.8,0.5,1.4,0.5,2.2,0.2c10-3.1,19.5-7.4,29.1-11.7c7.6-3.4,15.3-6.3,23.5-7.7c4.4-0.7,9-1.1,13.5-1.3
				c8.3-0.4,16.5-0.6,24.8-0.8c13.5-0.2,26.6-2.6,39.6-6.1c5.6-1.5,11.3-2.6,17-3.9c1.3-0.3,2.7-0.4,3.9,0.4
				c0.7,0.4,1.5,0.6,2.2,0.8c5.5,1.8,10,5.1,13.5,9.7c2.3,2.9,4.8,5.7,7.1,8.6c2.7,3.4,6.1,6,9.8,8.2c4.9,2.9,9,6.8,12.9,10.8
				c5,5.2,7.4,11.7,9.3,18.4c2.2,7.9,3.2,16,3.2,24.2c0,1.6-0.4,3.2-0.5,4.8c-0.2,3.2-0.3,6.5-0.4,9.7c-0.5,9.3-1.1,18.7-1.4,28
				c-0.2,6.3-0.1,12.7,0.4,18.9c0.6,8.3,1.5,16.6,2.7,24.8c2,13.4,5.7,26.4,10.2,39.1c3.5,9.7,6.6,19.4,11,28.7
				c1.8,3.8,3.6,7.6,5.8,11.1c4.5,7.3,11.1,11.6,19.8,12.2c7.5,0.5,15.1,1.1,22.6,1.7c0.6,0,1.3,0.1,1.9,0.2
				c2.8,0.4,5.6,0.3,8.4,0.1c3-0.2,6.1,0.1,9.1,0.4c1.1,0.1,2.1,0.9,3.2,1.3c0.3,0.1,0.6,0.2,1,0.2c1,0.1,2-0.1,3,0.1
				c2.9,0.5,4,2.9,2.7,5.5c-0.4,0.7-0.9,1.3-1.3,2c1.8,2.1,1.6,4.2-0.3,6.1c-0.2,0.2-0.4,0.5-0.7,0.6c-4.1,1.5-7.3,4.7-11.8,5.4
				c-8.2,1.2-16.3,2.1-24.6,1.6c-8.8-0.5-17.4-2-25.8-4.4c-2.8-0.8-5.7-1.4-8.4-2.3c-11.5-4.2-20-11.7-25.2-22.8
				c-2.2-4.8-4-9.8-6-14.8c-0.1-0.3-0.2-0.6-0.6-0.9c-0.2,1.7-0.5,3.3-0.7,5c-0.9,5.3-1.6,10.6-2.7,15.8c-0.4,1.9-1.4,3.7-2.4,5.4
				c-1.1,1.7-2.8,2.6-4.9,2.6c-4.6,0.1-9.3,0.2-13.9,0.2c-2.3,0-4.5-0.2-6.8-0.5c-1.4-0.2-2.5-0.9-3.2-2.2c-1.6-2.9-0.6-7.8,1.9-9.9
				c0.8-0.7,1.8-1,2.9-0.9c3.6,0.6,6.8-0.5,9.9-2.2c1.1-0.6,1.7-1.4,1.8-2.6c0.5-4.1,1-8.3,1.4-12.4c1.2-10.1,0-20.2-1.2-30.2
				c-0.5-3.9-1.7-7.7-3.9-11.1c-0.7-1.1-1.6-2.1-2.6-3.4c-0.3,1.1-0.6,2-0.8,2.9c-1.6,7-5,13.3-7.8,19.8c-2.4,5.7-5.2,11.2-7.5,17
				c-6.1,15.6-14.2,30.2-21,45.4c-1.1,2.4-2.7,4.5-4.3,6.6c-2.7,3.7-6.7,4.8-10.9,5.7c-4.4,0.9-8.9,1.3-13.3-0.2
				c-0.5-0.2-1-0.1-1.5-0.1c-4.2,0.1-5.9-1.3-6.4-5.9c-0.4-4.4,1.4-8.3,4.6-11.4c1.3-1.3,3-1.8,4.9-1.7c4.7,0.2,8.6-1.8,11.5-5.5
				c1.9-2.4,2.6-5.4,3.6-8.2c6-16.3,10.3-33.2,14.2-50.1c0.7-3,1-6.1,1.3-9.1c0.5-6-0.6-11.6-3.3-17c-3.4-6.7-7.8-12.8-11.9-19
				c-3.7-5.5-7.5-11-11.2-16.5c-5.1-7.6-7.9-16.1-9.2-25.1c-0.9-6.1-1.5-12.3-1.1-18.5c0.3-3.7,0.9-7.4,1.5-11
				c1.1-6.3,2.2-12.5,3.3-18.8C371.6,212.7,371.5,212.5,371.5,212.2z M226.7,427.1c0,0,0.2,0.2,0.4,0.3c2.1,1.3,4.2,2.5,6.2,3.8
				c0.5,0.3,0.7,1,1,1.5c-0.6,0.3-1.1,0.9-1.7,0.8c-1-0.1-2.1-0.4-3.1-0.9c-1.7-0.9-3.4-1.9-5.1-2.9c-2.3-1.4-4.9-2-7.5-1.7
				c-6.1,0.7-10.2,5-8.7,12c0.1,0.3,0.5,0.7,0.7,0.7c3.7,0,7.4,0,11.1,0c-1.3-5-0.8-7.2,1.9-8.3c2.8-1.1,5.5-0.2,7.2,2.6
				c-2-1-3.9-0.8-5.7-0.1c-0.9,0.3-1.4,0.9-1.3,1.8c0.1,1,0.3,2,0.7,2.9c0.4,0.6,1.3,1.2,2,1.3c2.1,0,4.3-0.1,6.4-0.4
				c4.2-0.5,6.8-2.8,8.4-6.8c2.1-5.1,3.5-10.3,4.8-15.5c4.7-19.3,9.7-38.6,12.9-58.2c2.2-13.4,4.4-26.9,6.1-40.4
				c1.5-11.7,2.5-23.5,3.6-35.3c0.3-2.7,0.1-5.4,0-8c-0.1-2.3-1.2-4.2-2.6-5.9c-4-4.9-6.1-10.4-5.3-16.8c0.3-1.9,0.6-3.8,1.2-5.6
				c1.1-3.2,2.5-6.3,3.8-9.4c0.3-0.7,0.9-1.3,1.7-0.9c0.8,0.4,0.7,1.1,0.5,1.9c-0.5,1.5-1.1,3-1.6,4.5c-0.9,2.6-2.2,5.2-2.7,7.9
				c-0.8,4.9,0.2,9.6,2.9,13.9c1.7,2.7,4.3,4.9,4.7,8.5c5.6-1.8,11.1-3.5,16.5-5.3c4-1.3,7.8-3,11.3-5.4c3.7-2.6,6-6.3,8.3-10.1
				c3.9-6.6,7.6-13.2,11.7-19.7c3.6-5.7,8.4-10.4,14.2-13.9c10.8-6.6,22.6-9.7,35.1-10.6c1.8-0.1,3.7-0.2,5.8-0.3
				c0.9-6.3,1.9-12.5,2.8-18.8c0.3-1.9,0.3-3.7,0.5-5.6c0.1-0.8,0.4-1.4,1.3-1.5c0.9,0,1.3,0.6,1.4,1.4c0.1,0.6,0.2,1.3,0.2,1.9
				c-0.3,4.3-0.3,8.7-1.1,13c-2.2,13-5.5,25.7-6.9,38.8c-0.5,4.3-1.4,8.6-1.1,13c0.4,5.8,1.2,11.5,2.6,17c1.1,4.5,2.4,9,5,12.9
				c6,9,12.1,17.9,18.2,26.8c3.6,5.3,6.4,11,8.7,16.9c2.7,6.8,2.6,13.8,1.2,20.9c-2.9,14.6-6.7,28.9-11.4,43.1
				c-1.9,5.7-3.6,11.4-6.4,16.8c-1.3,2.6-3.1,4.7-5.5,6.4c-0.6,0.5-1.3,0.8-2.2,1.4c3.1,1,5.9,1.9,8.8,2.8c0.4,0.1,0.9,0.4,1.2,0.7
				c0.3,0.3,0.3,0.8,0.5,1.3c-0.4,0.1-0.8,0.4-1.2,0.3c-1.4-0.2-2.5,0.3-3.4,1.4c-2,2.4-2.3,5.5-3.1,8.4c4.6-0.2,8.3-1.9,10.8-5.5
				c1.5-2.1,2.9-4.2,4-6.5c3.4-7,6.6-14.2,10-21.3c2.6-5.4,5.4-10.7,7.8-16.2c5-11.2,9.7-22.5,14.6-33.8c1.3-3,2.5-6,3.3-9.2
				c1.3-5,0.7-9.7-1.7-14.3c-3.1-5.9-6.2-11.9-9.3-17.9c-5.6-10.9-7.2-22.4-4.9-34.5c1.4-7.2,4.3-14,8-20.3
				c3.3-5.6,7-11.1,10.2-16.8c6.7-12.1,8.5-25.1,5.8-38.6c-0.4-2.1-1.1-4.2-1.6-6.3c-0.1-0.5,0.3-1,0.5-1.6c0.5,0.2,1.1,0.3,1.5,0.7
				c0.5,0.5,0.8,1.2,1,1.9c0.9,2.9,1.8,5.9,2.4,8.9c0.4,2,0.8,4,1.9,5.9c1,1.7,1.7,3.6,2.2,5.5c2.1,8.3,2.3,16.9,1.5,25.4
				c-0.7,8.3-2,16.6-2.7,24.9c-1.4,14.5-1.9,28.9-0.1,43.4c2,15.7,4.4,31.3,8,46.7c2.6,11,5.3,22,9.2,32.6c2.3,6.4,4.3,13,8.4,18.6
				c1.6,2.2,3.3,4.4,5.4,6.3c5.2,4.7,11.1,8,17.7,10.3c6.8,2.3,13.8,3.4,20.8,4.7c8.4,1.5,16.9,1.7,25.3,0.6c3.9-0.5,7.9-1.3,12-2.1
				c-1.1-0.3-2-0.5-2.8-0.8c0-0.1,0-0.2-0.1-0.3c0.6-0.2,1.2-0.6,1.8-0.7c2.1-0.4,4.2-0.7,6.2-1.1c1.5-0.3,2.8-0.8,3.5-2.3
				c0.2-0.4,0-0.9,0-1.3c-0.4,0-0.8,0-1.2,0.1c-0.6,0.2-1.2,0.7-1.8,0.8c-0.4,0.1-1.1-0.2-1.3-0.5c-0.2-0.3-0.1-1,0.2-1.4
				c0.3-0.4,0.9-0.7,1.3-1.1c1.1-1.1,2.2-2.1,3.1-3.2c0.5-0.5,0.4-1.2-0.4-1.4c-1.5-0.5-2.9-0.7-4.5,0.3c-1.8,1.2-3.9,1.9-6,2.7
				c-0.7,0.3-1.6,0.2-1.9-0.8c-0.3-0.9,0.3-1.4,1.1-1.7c0.4-0.2,0.8-0.3,1.2-0.5c1-0.4,2.1-0.9,3.1-1.4c0-0.1,0-0.2-0.1-0.3
				c-0.9-0.1-1.8-0.3-2.7-0.3c-4.7-0.1-9.4-0.2-14.1-0.3c-9.1-0.1-18.1-0.3-27.2-1.7c-6-0.9-11.1-3.2-15.3-7.7
				c-4.2-4.5-7.4-9.7-10.1-15.2c-6.6-13.6-11.1-27.9-15.6-42.2c-2.1-6.7-3.1-13.6-4.8-20.4c-2.6-10.8-4-21.7-4.6-32.7
				c-0.6-11-0.2-21.9,0.2-32.9c0.5-13.3,0.7-26.6,1-39.9c0-1.1-0.1-2.2-0.3-3.2c-1-5.7-2.5-11.3-4.6-16.7c-3.6-9.4-11-15.3-19-20.5
				c-3.4-2.3-6.8-4.5-9.4-7.7c-2.3-2.9-4.8-5.6-7-8.5c-4-5.5-9.3-8.7-15.7-10.7c-0.7-0.2-1.6-0.3-2.3-0.1
				c-6.1,1.4-12.1,2.9-18.1,4.5c-11.1,2.9-22.2,5.2-33.7,5.6c-9.9,0.3-19.8,0.6-29.7,1.1c-4.4,0.2-8.8,0.6-13.1,1.3
				c-7.4,1.3-14.4,4-21.2,6.9c-8.4,3.6-16.8,7.1-25.1,10.6c-1.3,0.6-2.7,0.9-4.1,1.4c2.2,2,4.3,3.9,6.3,5.8
				c-0.2,0.2-0.3,0.4-0.5,0.5c-0.1-0.1-0.3-0.1-0.4-0.2c-5.9-3.3-11.8-6.5-17.7-9.8c-0.4-0.2-0.8-0.4-1.2-0.4
				c-3.1-0.1-6.2-0.2-9.4-0.2c-3.2,0-6.2,0.8-9,2.6c-1,0.7-2,1.3-3.1,1.9c-0.7,0.4-1.4,0.6-1.9-0.1c-0.6-0.8-0.2-1.4,0.4-2
				c0.3-0.2,0.6-0.5,0.8-0.7c0.7-0.6,1.5-1.1,2.3-1.7c-6.9-4-12.3-9.3-17-15.4c-3.8-4.8-5.4-10.2-5.9-16c-0.2-2-0.1-4,0-6
				c0-2.8,0-5.5,0.1-8.3c0.3-8.4,0.8-16.8,0.8-25.2c0-6.4-1.3-12.7-4.1-18.6c-1.7-3.7-4-7.2-6.1-10.7c-0.2-0.4-0.4-0.7-0.6-1.1
				c1.1,1,2.1,2.1,3,3.2c3.2,3.8,6.1,7.7,7.9,12.4c2.9,7.5,3.3,15.3,3,23.1c0,0.6-0.1,1.1-0.1,1.7c0,0.5,0,1,0,1.5
				c3.1-11.2,4.6-22.5,2.8-34.4c2.2,2.1,4.3,4,6.3,5.9c0.2-0.1,0.4-0.2,0.5-0.2c-0.1-1.1,0-2.2-0.3-3.2c-0.9-3.5-2.8-6.6-5-9.5
				c-1.5-1.9-3.1-3.8-4.6-5.7c-0.3-0.4-0.6-0.9-0.8-1.4c0.1-0.1,0.2-0.2,0.3-0.3c4.5,1.9,9,3.8,13.6,5.7
				c-2.9-8.7-7.9-15.6-15.9-20.4c0.3,5.4-1.6,9.7-5,13.4c-2.3,2.6-5.1,4.3-8.8,3.2c-0.2-0.1-0.5-0.1-0.7,0
				c-5.1,0.2-9.8-1.3-14.1-3.9c-0.6-0.4-1.5-0.5-2.2-0.5c-4,0-7.9-0.5-10.4-4.2c-0.2-0.2-0.4-0.4-0.6-0.6c-2.3-2.2-2.2-5.2,0.3-7.1
				c1.3-0.9,2.9-1.4,4.4-2.1c0.4-0.2,0.8-0.2,1.1-0.4c2.8-2.3,5.5-4.7,8.2-7.1c-3.5,0.6-7.2,0.3-10.4,2.2c2.6-3.1,5.1-6.3,7.1-10.1
				c-1.4,0.1-2.6,0.1-3.7,0.3c-7.2,1.7-13.5,4.8-18.3,10.6c-1,1.2-1.9,2.4-3,3.4c-0.6,0.6-1.6,0.8-2.4,1.2c-0.1-0.1-0.2-0.2-0.3-0.4
				c1.2-2.7,2.3-5.4,3.6-8.2c-7.7,1.9-13.7,6.3-19.1,11.8c0.1,0.1,0.1,0.2,0.2,0.3c0.5-0.3,1.1-0.5,1.5-0.7
				c-0.5,0.6-1.1,1.2-1.6,1.8c-2.3,3.2-3.4,6.9-4.4,10.7c-0.1,0.3-0.1,0.6,0,1c0.7,3.8-0.3,7.4-0.9,11c-1,5.7-3.9,10.2-8.3,13.9
				c-2.8,2.4-5.7,4.7-8.5,7.1c-1.1,0.9-2,2-3,3c1.1,0,2-0.3,2.9-0.5c4.2-1,8.4-1.5,12.7-0.2c2.4,0.7,2.9,3,1,4.6
				c-0.7,0.6-1.7,1.1-2.5,1.6c-2.5,1.6-5.1,3.1-7.5,4.7c-1.6,1.1-1.6,2.3-0.5,4c2.1,3,5.3,4.1,8.6,4.3c4.1,0.2,8.3,0,12.4-0.3
				c1.2-0.1,2.7-0.9,3.5-1.9c2.4-3,4.5-6.3,6.6-9.3c-2.2-1-4.5-1.9-6.6-3.1c-4.8-2.6-6.5-7-6.2-12.1c0.4-5,2.9-9.1,6.7-12.4
				c1.9-1.7,2.9-3.7,2.6-6.3c-0.3-2.9-0.5-5.8-0.6-8.7c-0.1-2.3,0.7-4.3,1.7-6.3c1.5-2.8,4-4.7,6.3-6.6c0.5-0.4,1.1-0.8,1.6-1.2
				c-2.9,5.2-4.8,10.4-3.5,16.5c1-0.2,1.7-0.4,2.4-0.6c3.1-0.7,5.9,0,7.6,2.7c1.2,2,2.7,2.8,5,3.2c5.5,1.1,9.5,7,8.4,12.3
				c-0.1,0.6-0.5,1.1-0.6,1.5c-0.8-1.2-1.3-2.8-2.4-3.6c-2.3-1.8-5.1-2.2-8.1-0.3c-4.9,3.3-10.3,5.1-16.2,2.4
				c-2.4,4.7,0.5,10.4,3.4,13c2.4,2.1,4.8,4.2,7.2,6.4c1.7,1.5,3,3.4,3.3,5.7c0.2,1.1,0,2.3,0,3.5c4.4-0.3,8.5,0.9,12.6,2
				c1.3,0.4,2.8,0.7,4.1,0.6c2.6-0.2,4.5-1.8,6-3.8c1.9-2.5,3.7-5.2,5.6-7.8c0.5-0.7,1-1.4,1.4-2c0.1,0.6,0,1.2-0.2,1.7
				c-0.9,4.1-2.1,8-5,11.1c-3.2,3.4-6.9,5-11.7,3.3c-2.3-0.8-4.7-1.3-7.1-1.9c-4.9-1.2-9.4-0.4-13.7,2.3c-0.2,0.1-0.4,0.3-0.8,0.6
				c0.4,0.1,0.7,0.1,0.9,0.2c9.5,1.9,15,6.8,16.5,15.9c1.8,10.6,1.5,21.2-1,31.7c-2,8.5-3.5,17-2.7,25.8c0.5,5.7,1.3,11.3,3.8,16.5
				c1.9,4.1,3.2,8.4,3.4,12.9c0.1,1.1-0.4,2.2-0.6,3.3c-0.1,0-0.2-0.1-0.3-0.1c-2.1-6.1-4.2-12.3-6.3-18.4c-0.5,1.7-0.8,3.5-1.1,5.2
				c-0.8,4.3-1.1,8.6-0.3,13c1.4,7.5,3.8,14.6,7.8,21.1c3.5,5.7,7.4,11.2,11.1,16.8c4.3,6.5,8.1,13.3,11.2,20.5
				c0.9,2.1,1.6,4.2,1.5,6.5c-0.1,9-0.1,18.1-0.2,27.1c-0.1,10.6-0.2,21.1-0.4,31.7c-0.1,4.1-0.3,8.2-0.4,12.3
				c-0.3,7.5-0.5,15-1.9,22.3c-1.5,8-3.2,16-5,24c-1.5,6.6-3.2,13-6.3,19.1c-0.9,1.8-2.4,2.7-4.3,2.2c-1.1-0.2-2.2-0.8-3.2-1.2
				c-1.8-0.6-2.7-0.5-3.4,1c-1,2.5-1.9,5-2.9,7.5c-0.1,0.3-0.1,0.7-0.1,1.1c0.4,0,0.7,0,1,0c6.3-0.1,12.6-0.2,18.8-0.3
				c2.6,0,4.8-1.3,6-3.4c1.3-2.4,1.9-5.3,2.8-7.9c-0.7,0.1-1.2,0.4-1.6,0.5c-0.9,0.2-1.8,0.5-2.6,0.4c-2.1-0.4-3-2.2-2.4-4.7
				c0.7-2.8,1.5-5.6,2.4-8.4c0.1-0.3,0.5-0.7,0.8-0.7c0.3,0,0.8,0.3,0.9,0.6c0.2,0.5,0.3,1.1,0.2,1.6c-0.4,2.4-1,4.7-1.4,7
				c-0.1,0.5-0.1,1.4,0.2,1.5c1.1,0.7,2.3,1.3,3.7,2c0.7-3,1.5-5.8,2-8.6c2.7-15.2,5.4-30.4,8-45.6c0.9-5.2,1.8-10.4,2.6-15.6
				c0.9-5.7,1.5-11.4,2.3-17.1c0.6-4,1.4-7.9,1.9-11.8c1.1-8.9,2-17.8,3-26.7c0.8-7.4,1.6-14.7,1.5-22.1c-0.1-3.7-0.1-3.7-3.5-5
				c0,0-0.1,0-0.1,0c-6.4-2.6-12.8-5.1-18.3-9.3c0,0-0.1,0-0.2,0.1c1.5,3.9,3,7.8,4.4,11.7c-0.3-0.1-0.5-0.3-0.6-0.5
				c-3.1-4.3-5.7-8.8-7.8-13.6c-0.6-1.4-1.2-2.8-2-4.1c-3.5-5.9-7.6-11.2-12.2-16.3c-1.5,0.3-2.1-0.1-1.7-1.6c0.8-3,2.6-5.4,4.5-7.8
				c-0.7,2.9-1.4,5.8-2.1,8.8c3.7,1.6,6.4,4.5,8.7,7.7c1.8,2.5,3.3,5.1,5,7.6c0.8,1.1,1.7,2.3,2.7,3.2c3.8,3.5,8.3,5.8,12.9,7.9
				c10.8,4.8,22.1,8.2,33.4,11.8c0.3,0.1,0.7,0.2,1.1,0.3c-0.1-0.3-0.1-0.4-0.2-0.5c-3.9-7.2-7.5-14.7-12.4-21.3
				c-3.6-4.7-6.7-9.8-10.2-14.5c-2.6-3.4-4.9-6.9-6.8-10.7c-1-1.9-1.3-3.8-0.6-5.9c1.4-4.2,2.9-8.5,4.4-12.7
				c2-5.8,4.1-11.7,6.2-17.5c0.4-1.1,1-2.2,1.6-3.2c0.1-0.2,0.6-0.5,0.9-0.4c0.2,0.1,0.5,0.5,0.5,0.8c0,0.8,0,1.5-0.2,2.2
				c-1.9,6.3-3.8,12.7-5.8,19c-1.3,4.2-2.8,8.3-4.3,12.5c-0.4,1.3-0.3,2.5,0.4,3.7c1.2,2,2.3,4.1,3.6,6.1c4.2,6.4,8.4,12.8,12.7,19
				c3.9,5.6,7.6,11.4,10.7,17.5c1.9,3.8,4.2,7.5,3.9,12.1c-0.2,2.5,0.3,5,0.3,7.5c0.1,4.6-0.1,9.2,0,13.8c0.2,6.9,0.5,13.7,0.8,20.6
				c0.4,7.4,1,14.8,1.3,22.3c0.4,10.6-0.4,21.1-2.4,31.5C237.1,395.1,233.2,411.4,226.7,427.1z M426.1,253.5
				c-0.3,0.5-0.4,0.6-0.5,0.8c-2.5,5.9-4.9,11.9-5.7,18.4c-0.9,6.8-1,13.6,1.2,20.2c3,8.9,7.2,17.3,12,25.4c2.1,3.4,3.6,7,3.8,11
				c0,0.4,0.2,0.9,0.5,1.1c5.4,4.3,7.7,10.3,8.8,16.8c0.6,3.9,0.9,7.8,1.3,11.7c0.8,7.5,0.7,14.9-0.2,22.4c-0.4,3-1,5.9-1.2,8.9
				c-0.1,2.3-1.1,4.1-2.9,5.4c-3.5,2.5-7.4,3.6-11.6,3.1c-1.1-0.1-1.8,0.4-2.1,1.2c-0.4,1.1-0.6,2.3-0.6,3.5c0.1,2.2,0.9,2.9,3.1,3
				c2.4,0.1,4.9,0,7.3,0c3,0.1,6,0,9,0.3c2.6,0.2,4.6-0.6,5.7-2.9c0.8-1.7,1.3-3.4,1.6-5.2c1-6.1,1.8-12.3,2.9-18.5
				c0.9-4.5,0.6-8.8-0.6-13.3c-5.5-20.5-10.5-41.2-12.7-62.4c-0.1-0.5-0.5-1.2-0.9-1.6c-2.4-2.2-4.9-4.3-7.2-6.5
				c-6.7-6.7-10.6-14.7-10.8-24.3c-0.1-5.6-0.1-11.2-0.2-16.8C426.1,254.6,426.1,254.2,426.1,253.5z M446.4,207.2
				c-0.1,0-0.3,0-0.4,0c0,0.5-0.1,0.9-0.1,1.4c-0.5,9-3,17.4-7.7,25.2c-2.6,4.4-5.5,8.7-8.2,13.1c-0.3,0.5-0.5,1.1-0.6,1.6
				c-0.1,4.9-0.2,9.8-0.1,14.8c0.1,5,0.1,10,1.2,14.9c2,8.4,7.4,14.5,13.7,19.9c0,0,0.1,0,0.2,0c0-0.1,0-0.2,0-0.4
				c-0.8-11.4-0.7-22.8,0.4-34.1c1-10.1,2-20.1,2.9-30.2c0.5-6.4,0.8-12.9-0.1-19.3C447.4,211.8,446.8,209.5,446.4,207.2z
				 M177.7,60.1c3.2,0.7,6.2,1.8,9.3,2.1c6.7,0.6,10.5-1.4,12.8-6.8c2.3-5.4,1.4-10-3-14c-0.3-0.3-0.7-0.4-1-0.5
				c-1.7-0.5-3.1-0.1-4.5,0.9c-2.6,1.8-3.8,4.3-4.7,7.2c-0.8,2.9-2.1,5.5-4.3,7.5C181,57.7,179.5,58.7,177.7,60.1z M112.2,117.2
				c-0.1,0.1-0.3,0.1-0.4,0.2c0.1,1.3-0.1,2.7,0.5,3.8c2.3,4.3,6.1,7,10.8,8.2c1.3,0.3,2.6,0.4,3.8-0.5c2.2-1.7,4.5-3.2,6.5-5
				c1.8-1.6,3.5-3.4,5.2-5.2c2.4-2.4,5.1-4.4,8.3-5.7c0.6-0.2,1.2-1.1,1.4-1.8c0.4-2-1.4-4.6-3.5-5.2c-0.5,0.8-1.1,1.6-1.6,2.4
				c-1.7,2.5-3.3,5.1-5.1,7.5c-1.1,1.6-2.8,2.4-4.6,2.7c-0.7,0.1-1.3,0.1-2,0.2c-2.1,0.3-4.1,0.6-6.2,0.8
				C120.6,120.1,116.3,119.4,112.2,117.2z M140,79.2c3.9,2,7.8,1.9,11.6-0.2c1.6-0.9,2.2-2.5,1.8-4.2c-0.6-2.3-2.3-3.5-4.6-3.8
				c-2.2-0.3-4.2,0.1-5.5,2.1C142.2,75.1,141.2,77.2,140,79.2z M119.3,100.1c-0.5-0.2-0.7-0.3-1-0.3c-0.5-0.1-1-0.2-1.5-0.3
				c-4-0.5-7.7,0.6-11.6,1.4c-2.6,0.5-4.1,1.7-4.6,4.2c0,0,0,0.1,0,0.1c-0.3,0.7-0.2,1.2,0.7,1.4c2.1,0.4,4.1,0.9,6.2,1.3
				c0.2,0,0.5-0.1,0.7-0.3c1.6-2.2,3.8-3.5,6.1-4.8C115.8,101.9,117.4,101.1,119.3,100.1z M385,416.8c-1.9-0.2-3.7-0.4-5.5-0.5
				c-0.2,0-0.5,0.1-0.6,0.3c-3,3.1-5,6.6-5.1,11c0,0.4,0.5,1.1,0.9,1.1c2,0.1,4,0.1,6,0.1C381.5,420.8,381.6,420.5,385,416.8z
				 M371.4,428.4c-1.1-5.5,1.8-9.2,5.1-12.8c-1.9-0.3-3.6-0.6-5.4-0.8c-0.8-0.1-1.4,0.2-2,0.9c-2,2.7-2.9,5.7-3.3,9
				c-0.1,1.4,1.1,3.3,2.3,3.5C369.2,428.2,370.3,428.3,371.4,428.4z M208.5,428.6c-2.6,0.2-4.8,1-6.8,2.4c-1.8,1.3-2.7,5-1.6,7
				c0.2,0.4,0.5,0.7,0.9,1c1.6,1.1,3.4,1.3,5.3,1.5C204.2,435.9,205.6,432.2,208.5,428.6z M160.5,435.4c-1.5-4.1,0-7.4,2-11
				c-1.4,0.2-2.5,0-3.3,0.5c-2.9,1.6-4.7,4.1-5.2,7.4c-0.2,1.6,0.5,2.5,2.1,2.8C157.4,435.3,158.8,435.3,160.5,435.4z M119.7,66.3
				c-0.8,1-1.6,1.9-2.2,2.8c-1.2,1.9-1.2,3.9-0.3,5.8c0.3,0.6,1.2,1.3,1.8,1.4c0.6,0,1.4-0.7,1.7-1.4c0.5-1.1,0.9-2.4,0.9-3.7
				C121.8,69.6,121.3,67.9,119.7,66.3z M101.9,109.7c2.2,2.8,3.3,6.3,7.2,7.9c-0.1-1,0-1.8-0.3-2.5c-0.7-1.6-1.6-3-2.4-4.5
				c-0.1-0.2-0.3-0.4-0.5-0.4C104.5,110,103.3,109.9,101.9,109.7z"/>
			<path d="M77.1,119.9c0.3-0.5,0.6-1,1-1.4c3.5-4,7.4-7.4,12.5-9.2c0.8-0.3,1.6-0.4,2.4-0.5c0.4,0,1,0.3,1.1,0.6
				c0.1,0.3-0.2,1-0.5,1.1c-2.1,1.2-4.2,2.2-6.3,3.3c-2.8,1.5-5.6,3.1-8.4,4.8c-0.6,0.4-1.1,0.9-1.6,1.4
				C77.2,120.1,77.1,120,77.1,119.9z"/>
			<path class="st1" d="M177.7,60.1c1.7-1.3,3.3-2.4,4.6-3.6c2.2-2,3.5-4.7,4.3-7.5c0.8-2.9,2.1-5.4,4.7-7.2c1.4-1,2.9-1.4,4.5-0.9
				c0.4,0.1,0.7,0.3,1,0.5c4.4,4,5.3,8.6,3,14c-2.3,5.4-6.1,7.3-12.8,6.8C183.9,61.9,180.9,60.8,177.7,60.1z"/>
			<path class="st0" d="M112.2,117.2c4.1,2.2,8.5,2.8,13,2.4c2.1-0.2,4.1-0.5,6.2-0.8c0.7-0.1,1.4-0.1,2-0.2
				c1.9-0.3,3.5-1.1,4.6-2.7c1.7-2.5,3.4-5,5.1-7.5c0.5-0.8,1.1-1.6,1.6-2.4c2.1,0.6,3.9,3.2,3.5,5.2c-0.1,0.7-0.8,1.5-1.4,1.8
				c-3.2,1.3-5.9,3.3-8.3,5.7c-1.7,1.7-3.3,3.6-5.2,5.2c-2.1,1.8-4.4,3.3-6.5,5c-1.2,0.9-2.4,0.9-3.8,0.5c-4.8-1.2-8.5-3.9-10.8-8.2
				c-0.6-1-0.4-2.5-0.5-3.8C111.9,117.4,112,117.3,112.2,117.2z"/>
			<path class="st2" d="M140,79.2c1.1-2.1,2.1-4.1,3.3-6c1.2-2,3.3-2.4,5.5-2.1c2.2,0.3,3.9,1.5,4.6,3.8c0.4,1.7-0.2,3.3-1.8,4.2
				C147.8,81.2,144,81.3,140,79.2z"/>
			<path d="M119.3,100.1c-1.8,1-3.5,1.8-5.1,2.7c-2.3,1.3-4.5,2.6-6.1,4.8c-0.1,0.2-0.5,0.3-0.7,0.3c-2.1-0.4-4.1-0.8-6.2-1.3
				c-0.9-0.2-1-0.7-0.7-1.4c0,0,0-0.1,0-0.1c0.5-2.5,2-3.8,4.6-4.2c3.8-0.7,7.6-1.8,11.6-1.4c0.5,0.1,1,0.2,1.5,0.3
				C118.6,99.8,118.8,100,119.3,100.1z"/>
			<path class="st0" d="M385,416.8c-3.4,3.7-3.5,4-4.3,12c-2,0-4,0.1-6-0.1c-0.3,0-0.9-0.7-0.9-1.1c0.1-4.4,2.1-7.9,5.1-11
				c0.2-0.2,0.4-0.3,0.6-0.3C381.3,416.4,383.1,416.6,385,416.8z"/>
			<path class="st0" d="M371.4,428.4c-1.1-0.1-2.2-0.1-3.2-0.3c-1.1-0.2-2.4-2.1-2.3-3.5c0.3-3.3,1.3-6.3,3.3-9c0.5-0.7,1.1-1,2-0.9
				c1.7,0.2,3.5,0.5,5.4,0.8C373.2,419.2,370.3,422.9,371.4,428.4z"/>
			<path class="st0" d="M208.5,428.6c-2.9,3.6-4.3,7.3-2.2,11.8c-1.9-0.2-3.7-0.4-5.3-1.5c-0.3-0.2-0.7-0.6-0.9-1
				c-1-2-0.2-5.7,1.6-7C203.7,429.6,205.9,428.8,208.5,428.6z"/>
			<path class="st0" d="M160.5,435.4c-1.7-0.1-3.1-0.1-4.5-0.3c-1.6-0.2-2.3-1.2-2.1-2.8c0.5-3.3,2.3-5.9,5.2-7.4
				c0.8-0.4,2-0.3,3.3-0.5C160.5,428,159,431.3,160.5,435.4z"/>
			<path class="st2" d="M119.7,66.3c1.5,1.5,2,3.2,2,5c-0.1,1.2-0.4,2.5-0.9,3.7c-0.3,0.6-1.1,1.4-1.7,1.4c-0.7,0-1.6-0.7-1.8-1.4
				c-0.8-1.9-0.9-4,0.3-5.8C118.2,68.2,118.9,67.4,119.7,66.3z"/>
			<path class="st0" d="M101.9,109.7c1.4,0.2,2.7,0.3,3.9,0.5c0.2,0,0.4,0.2,0.5,0.4c0.8,1.5,1.7,3,2.4,4.5c0.3,0.7,0.2,1.5,0.3,2.5
				C105.2,116,104,112.5,101.9,109.7z"/>
			<path d="M165,87.2c1.9,0.4,2.7,1.6,2.2,3.6c-0.4,1.3-0.9,2.6-1.6,3.8c-0.3,0.6-1,1-1.6,1.3c-0.4,0.2-1.1,0.1-1.4-0.2
				c-0.3-0.3-0.5-1-0.4-1.4c0.7-2,1.6-3.9,2.3-5.9C164.8,88.1,164.9,87.7,165,87.2z"/>
			<path d="M169.5,225.1c0.1,2.9-1.7,4.8-3.7,6.5c-0.6,0.5-1-0.3-0.9-0.8c0.1-0.7,0.3-1.5,0.7-2.1c1.1-1.7,1.7-3.6,1.8-5.6
				c0-0.4,0.5-0.7,0.7-1.1c0.3,0.3,0.8,0.5,0.9,0.8C169.3,223.6,169.4,224.4,169.5,225.1z"/>
			<path d="M167.5,233.6c0.1-2.3,0.9-4.1,1.9-5.8c0.2-0.3,0.8-0.7,1.1-0.6c0.3,0.1,0.7,0.7,0.6,1.1c-0.3,2.3-1,4.5-2.5,6.4
				c-0.5,0.7-1,0.4-1.1-0.3C167.5,234.1,167.5,233.8,167.5,233.6z"/>
		</g>
		<g>
			<defs>
				<path id="SVGID_1_" d="M560.5,411.2c1.1-1.1,2.2-2.1,3.1-3.2c0.5-0.5,0.4-1.2-0.4-1.4c-1.5-0.5-2.9-0.7-4.5,0.3
					c-1.8,1.2-3.9,1.9-6,2.7c-0.7,0.3-1.6,0.2-1.9-0.8c-0.3-0.9,0.3-1.4,1.1-1.7c0.4-0.2,0.8-0.3,1.2-0.5c1-0.4,2.1-0.9,3.1-1.4
					c0-0.1,0-0.2-0.1-0.3c-0.9-0.1-1.8-0.3-2.7-0.3c-4.7-0.1-9.4-0.2-14.1-0.3c-9.1-0.1-18.1-0.3-27.2-1.7c-6-0.9-11.1-3.2-15.3-7.7
					c-4.2-4.5-7.4-9.7-10.1-15.2c-6.6-13.6-11.1-27.9-15.6-42.2c-2.1-6.7-3.1-13.6-4.8-20.4c-2.6-10.8-4-21.7-4.6-32.7
					c-0.6-11-0.2-21.9,0.2-32.9c0.5-13.3,0.7-26.6,1-39.9c0-1.1-0.1-2.2-0.3-3.2c-1-5.7-2.5-11.3-4.6-16.7c-3.6-9.4-11-15.3-19-20.5
					c-3.4-2.3-6.8-4.5-9.4-7.7c-2.3-2.9-4.8-5.6-7-8.5c-4-5.5-9.3-8.7-15.7-10.7c-0.7-0.2-1.6-0.3-2.3-0.1
					c-6.1,1.4-12.1,2.9-18.1,4.5c-11.1,2.9-22.2,5.2-33.7,5.6c-9.9,0.3-19.8,0.6-29.7,1.1c-4.4,0.2-8.8,0.6-13.1,1.3
					c-7.4,1.3-14.4,4-21.2,6.9c-8.4,3.6-16.8,7.1-25.1,10.6c-1.3,0.6-2.7,0.9-4.1,1.4c2.2,2,4.3,3.9,6.3,5.8
					c-0.2,0.2-0.3,0.4-0.5,0.5c-0.1-0.1-0.3-0.1-0.4-0.2c-5.9-3.3-11.8-6.5-17.7-9.8c-0.4-0.2-0.8-0.4-1.2-0.4
					c-3.1-0.1-6.2-0.2-9.4-0.2c-3.2,0-6.2,0.8-9,2.6c-1,0.7-2,1.3-3.1,1.9c-0.7,0.4-1.4,0.6-1.9-0.1c-0.6-0.8-0.2-1.4,0.4-2
					c0.3-0.2,0.6-0.5,0.8-0.7c0.7-0.6,1.5-1.1,2.3-1.7c-6.9-4-12.3-9.3-17-15.4c-3.8-4.8-5.4-10.2-5.9-16c-0.2-2-0.1-4,0-6
					c0-2.8,0-5.5,0.1-8.3c0.3-8.4,0.8-16.8,0.8-25.2c0-6.4-1.3-12.7-4.1-18.6c-1.7-3.7-4-7.2-6.1-10.7c-0.2-0.4-0.4-0.7-0.6-1.1
					c1.1,1,2.1,2.1,3,3.2c3.2,3.8,6.1,7.7,7.9,12.4c2.9,7.5,3.3,15.3,3,23.1c0,0.6-0.1,1.1-0.1,1.7c0,0.5,0,1,0,1.5
					c3.1-11.2,4.6-22.5,2.8-34.4c2.2,2.1,4.3,4,6.3,5.9c0.2-0.1,0.4-0.2,0.5-0.2c-0.1-1.1,0-2.2-0.3-3.2c-0.9-3.5-2.8-6.6-5-9.5
					c-1.5-1.9-3.1-3.8-4.6-5.7c-0.3-0.4-0.6-0.9-0.8-1.4c0.1-0.1,0.2-0.2,0.3-0.3c4.5,1.9,9,3.8,13.6,5.7
					c-2.9-8.7-7.9-15.6-15.9-20.4c0.3,5.4-1.6,9.7-5,13.4c-2.3,2.6-5.1,4.3-8.8,3.2c-0.2-0.1-0.5-0.1-0.7,0
					c-5.1,0.2-9.8-1.3-14.1-3.9c-0.6-0.4-1.5-0.5-2.2-0.5c-4,0-7.9-0.5-10.4-4.2c-0.2-0.2-0.4-0.4-0.6-0.6c-2.3-2.2-2.2-5.2,0.3-7.1
					c1.3-0.9,2.9-1.4,4.4-2.1c0.4-0.2,0.8-0.2,1.1-0.4c2.8-2.3,5.5-4.7,8.2-7.1c-3.5,0.6-7.2,0.3-10.4,2.2c2.6-3.1,5.1-6.3,7.1-10.1
					c-1.4,0.1-2.6,0.1-3.7,0.3c-7.2,1.7-13.5,4.8-18.3,10.6c-1,1.2-1.9,2.4-3,3.4c-0.6,0.6-1.6,0.8-2.4,1.2
					c-0.1-0.1-0.2-0.2-0.3-0.4c1.2-2.7,2.3-5.4,3.6-8.2c-7.7,1.9-13.7,6.3-19.1,11.8c0.1,0.1,0.1,0.2,0.2,0.3
					c0.5-0.3,1.1-0.5,1.5-0.7c-0.5,0.6-1.1,1.2-1.6,1.8c-2.3,3.2-3.4,6.9-4.4,10.7c-0.1,0.3-0.1,0.6,0,1c0.7,3.8-0.3,7.4-0.9,11
					c-1,5.7-3.9,10.2-8.3,13.9c-2.8,2.4-5.7,4.7-8.5,7.1c-1.1,0.9-2,2-3,3c1.1,0,2-0.3,2.9-0.5c4.2-1,8.4-1.5,12.7-0.2
					c2.4,0.7,2.9,3,1,4.6c-0.7,0.6-1.7,1.1-2.5,1.6c-2.5,1.6-5.1,3.1-7.5,4.7c-1.6,1.1-1.6,2.3-0.5,4c2.1,3,5.3,4.1,8.6,4.3
					c4.1,0.2,8.3,0,12.4-0.3c1.2-0.1,2.7-0.9,3.5-1.9c2.4-3,4.5-6.3,6.6-9.3c-2.2-1-4.5-1.9-6.6-3.1c-4.8-2.6-6.5-7-6.2-12.1
					c0.4-5,2.9-9.1,6.7-12.4c1.9-1.7,2.9-3.7,2.6-6.3c-0.3-2.9-0.5-5.8-0.6-8.7c-0.1-2.3,0.7-4.3,1.7-6.3c1.5-2.8,4-4.7,6.3-6.6
					c0.5-0.4,1.1-0.8,1.6-1.2c-2.9,5.2-4.8,10.4-3.5,16.5c1-0.2,1.7-0.4,2.4-0.6c3.1-0.7,5.9,0,7.6,2.7c1.2,2,2.7,2.8,5,3.2
					c5.5,1.1,9.5,7,8.4,12.3c-0.1,0.6-0.5,1.1-0.6,1.5c-0.8-1.2-1.3-2.8-2.4-3.6c-2.3-1.8-5.1-2.2-8.1-0.3
					c-4.9,3.3-10.3,5.1-16.2,2.4c-2.4,4.7,0.5,10.4,3.4,13c2.4,2.1,4.8,4.2,7.2,6.4c1.7,1.5,3,3.4,3.3,5.7c0.2,1.1,0,2.3,0,3.5
					c4.4-0.3,8.5,0.9,12.6,2c1.3,0.4,2.8,0.7,4.1,0.6c2.6-0.2,4.5-1.8,6-3.8c1.9-2.5,3.7-5.2,5.6-7.8c0.5-0.7,1-1.4,1.4-2
					c0.1,0.6,0,1.2-0.2,1.7c-0.9,4.1-2.1,8-5,11.1c-3.2,3.4-6.9,5-11.7,3.3c-2.3-0.8-4.7-1.3-7.1-1.9c-4.9-1.2-9.4-0.4-13.7,2.3
					c-0.2,0.1-0.4,0.3-0.8,0.6c0.4,0.1,0.7,0.1,0.9,0.2c9.5,1.9,15,6.8,16.5,15.9c1.8,10.6,1.5,21.2-1,31.7c-2,8.5-3.5,17-2.7,25.8
					c0.5,5.7,1.3,11.3,3.8,16.5c1.9,4.1,3.2,8.4,3.4,12.9c0.1,1.1-0.4,2.2-0.6,3.3c-0.1,0-0.2-0.1-0.3-0.1
					c-2.1-6.1-4.2-12.3-6.3-18.4c-0.5,1.7-0.8,3.5-1.1,5.2c-0.8,4.3-1.1,8.6-0.3,13c1.4,7.5,3.8,14.6,7.8,21.1
					c3.5,5.7,7.4,11.2,11.1,16.8c4.3,6.5,8.1,13.3,11.2,20.5c0.9,2.1,1.6,4.2,1.5,6.5c-0.1,9-0.1,18.1-0.2,27.1
					c-0.1,10.6-0.2,21.1-0.4,31.7c-0.1,4.1-0.3,8.2-0.4,12.3c-0.3,7.5-0.5,15-1.9,22.3c-1.5,8-3.2,16-5,24c-1.5,6.6-3.2,13-6.3,19.1
					c-0.9,1.8-2.4,2.7-4.3,2.2c-1.1-0.2-2.2-0.8-3.2-1.2c-1.8-0.6-2.7-0.5-3.4,1c-1,2.5-1.9,5-2.9,7.5c-0.1,0.3-0.1,0.7-0.1,1.1
					c0.4,0,0.7,0,1,0c6.3-0.1,12.6-0.2,18.8-0.3c2.6,0,4.8-1.3,6-3.4c1.3-2.4,1.9-5.3,2.8-7.9c-0.7,0.1-1.2,0.4-1.6,0.5
					c-0.9,0.2-1.8,0.5-2.6,0.4c-2.1-0.4-3-2.2-2.4-4.7c0.7-2.8,1.5-5.6,2.4-8.4c0.1-0.3,0.5-0.7,0.8-0.7c0.3,0,0.8,0.3,0.9,0.6
					c0.2,0.5,0.3,1.1,0.2,1.6c-0.4,2.4-1,4.7-1.4,7c-0.1,0.5-0.1,1.4,0.2,1.5c1.1,0.7,2.3,1.3,3.7,2c0.7-3,1.5-5.8,2-8.6
					c2.7-15.2,5.4-30.4,8-45.6c0.9-5.2,1.8-10.4,2.6-15.6c0.9-5.7,1.5-11.4,2.3-17.1c0.6-4,1.4-7.9,1.9-11.8c1.1-8.9,2-17.8,3-26.7
					c0.8-7.4,1.6-14.7,1.5-22.1c-0.1-3.7-0.1-3.7-3.5-5c0,0-0.1,0-0.1,0c-6.4-2.6-12.8-5.1-18.3-9.3c0,0-0.1,0-0.2,0.1
					c1.5,3.9,3,7.8,4.4,11.7c-0.3-0.1-0.5-0.3-0.6-0.5c-3.1-4.3-5.7-8.8-7.8-13.6c-0.6-1.4-1.2-2.8-2-4.1
					c-3.5-5.9-7.6-11.2-12.2-16.3c-1.5,0.3-2.1-0.1-1.7-1.6c0.8-3,2.6-5.4,4.5-7.8c-0.7,2.9-1.4,5.8-2.1,8.8
					c3.7,1.6,6.4,4.5,8.7,7.7c1.8,2.5,3.3,5.1,5,7.6c0.8,1.1,1.7,2.3,2.7,3.2c3.8,3.5,8.3,5.8,12.9,7.9c10.8,4.8,22.1,8.2,33.4,11.8
					c0.3,0.1,0.7,0.2,1.1,0.3c-0.1-0.3-0.1-0.4-0.2-0.5c-3.9-7.2-7.5-14.7-12.4-21.3c-3.6-4.7-6.7-9.8-10.2-14.5
					c-2.6-3.4-4.9-6.9-6.8-10.7c-1-1.9-1.3-3.8-0.6-5.9c1.4-4.2,2.9-8.5,4.4-12.7c2-5.8,4.1-11.7,6.2-17.5c0.4-1.1,1-2.2,1.6-3.2
					c0.1-0.2,0.6-0.5,0.9-0.4c0.2,0.1,0.5,0.5,0.5,0.8c0,0.8,0,1.5-0.2,2.2c-1.9,6.3-3.8,12.7-5.8,19c-1.3,4.2-2.8,8.3-4.3,12.5
					c-0.4,1.3-0.3,2.5,0.4,3.7c1.2,2,2.3,4.1,3.6,6.1c4.2,6.4,8.4,12.8,12.7,19c3.9,5.6,7.6,11.4,10.7,17.5
					c1.9,3.8,4.2,7.5,3.9,12.1c-0.2,2.5,0.3,5,0.3,7.5c0.1,4.6-0.1,9.2,0,13.8c0.2,6.9,0.5,13.7,0.8,20.6c0.4,7.4,1,14.8,1.3,22.3
					c0.4,10.6-0.4,21.1-2.4,31.5c-3.1,16.5-6.9,32.8-13.4,48.6c0,0,0.2,0.2,0.4,0.3c2.1,1.3,4.2,2.5,6.2,3.8c0.5,0.3,0.7,1,1,1.5
					c-0.6,0.3-1.1,0.9-1.7,0.8c-1-0.1-2.1-0.4-3.1-0.9c-1.7-0.9-3.4-1.9-5.1-2.9c-2.3-1.4-4.9-2-7.5-1.7c-6.1,0.7-10.2,5-8.7,12
					c0.1,0.3,0.5,0.7,0.7,0.7c3.7,0,7.4,0,11.1,0c-1.3-5-0.8-7.2,1.9-8.3c2.8-1.1,5.5-0.2,7.2,2.6c-2-1-3.9-0.8-5.7-0.1
					c-0.9,0.3-1.4,0.9-1.3,1.8c0.1,1,0.3,2,0.7,2.9c0.4,0.6,1.3,1.2,2,1.3c2.1,0,4.3-0.1,6.4-0.4c4.2-0.5,6.8-2.8,8.4-6.8
					c2.1-5.1,3.5-10.3,4.8-15.5c4.7-19.3,9.7-38.6,12.9-58.2c2.2-13.4,4.4-26.9,6.1-40.4c1.5-11.7,2.5-23.5,3.6-35.3
					c0.3-2.7,0.1-5.4,0-8c-0.1-2.3-1.2-4.2-2.6-5.9c-4-4.9-6.1-10.4-5.3-16.8c0.3-1.9,0.6-3.8,1.2-5.6c1.1-3.2,2.5-6.3,3.8-9.4
					c0.3-0.7,0.9-1.3,1.7-0.9c0.8,0.4,0.7,1.1,0.5,1.9c-0.5,1.5-1.1,3-1.6,4.5c-0.9,2.6-2.2,5.2-2.7,7.9c-0.8,4.9,0.2,9.6,2.9,13.9
					c1.7,2.7,4.3,4.9,4.7,8.5c5.6-1.8,11.1-3.5,16.5-5.3c4-1.3,7.8-3,11.3-5.4c3.7-2.6,6-6.3,8.3-10.1c3.9-6.6,7.6-13.2,11.7-19.7
					c3.6-5.7,8.4-10.4,14.2-13.9c10.8-6.6,22.6-9.7,35.1-10.6c1.8-0.1,3.7-0.2,5.8-0.3c0.9-6.3,1.9-12.5,2.8-18.8
					c0.3-1.9,0.3-3.7,0.5-5.6c0.1-0.8,0.4-1.4,1.3-1.5c0.9,0,1.3,0.6,1.4,1.4c0.1,0.6,0.2,1.3,0.2,1.9c-0.3,4.3-0.3,8.7-1.1,13
					c-2.2,13-5.5,25.7-6.9,38.8c-0.5,4.3-1.4,8.6-1.1,13c0.4,5.8,1.2,11.5,2.6,17c1.1,4.5,2.4,9,5,12.9c6,9,12.1,17.9,18.2,26.8
					c3.6,5.3,6.4,11,8.7,16.9c2.7,6.8,2.6,13.8,1.2,20.9c-2.9,14.6-6.7,28.9-11.4,43.1c-1.9,5.7-3.6,11.4-6.4,16.8
					c-1.3,2.6-3.1,4.7-5.5,6.4c-0.6,0.5-1.3,0.8-2.2,1.4c3.1,1,5.9,1.9,8.8,2.8c0.4,0.1,0.9,0.4,1.2,0.7c0.3,0.3,0.3,0.8,0.5,1.3
					c-0.4,0.1-0.8,0.4-1.2,0.3c-1.4-0.2-2.5,0.3-3.4,1.4c-2,2.4-2.3,5.5-3.1,8.4c4.6-0.2,8.3-1.9,10.8-5.5c1.5-2.1,2.9-4.2,4-6.5
					c3.4-7,6.6-14.2,10-21.3c2.6-5.4,5.4-10.7,7.8-16.2c5-11.2,9.7-22.5,14.6-33.8c1.3-3,2.5-6,3.3-9.2c1.3-5,0.7-9.7-1.7-14.3
					c-2.1-4-6.4-9.4-6.8-13.9c-0.1-1.3,0.2-2.7,0.6-4.1c2.3,5,4.9,9.9,7.8,14.7c2.1,3.4,3.6,7,3.8,11c0,0.4,0.2,0.9,0.5,1.1
					c5.4,4.3,7.7,10.3,8.8,16.8c0.6,3.9,0.9,7.8,1.3,11.7c0.8,7.5,0.7,14.9-0.2,22.4c-0.4,3-1,5.9-1.2,8.9c-0.1,2.3-1.1,4.1-2.9,5.4
					c-3.5,2.5-7.4,3.6-11.6,3.1c-1.1-0.1-1.8,0.4-2.1,1.2c-0.4,1.1-0.6,2.3-0.6,3.5c0.1,2.2,0.9,2.9,3.1,3c2.4,0.1,4.9,0,7.3,0
					c3,0.1,6,0,9,0.3c2.6,0.2,4.6-0.6,5.7-2.9c0.8-1.7,1.3-3.4,1.6-5.2c1-6.1,1.8-12.3,2.9-18.5c0.9-4.5,0.6-8.8-0.6-13.3
					c-5.5-20.5-10.5-41.2-12.7-62.4c-0.1-0.5-0.5-1.2-0.9-1.6c-2.4-2.2-4.9-4.3-7.2-6.5c-6.7-6.7-10.6-14.7-10.8-24.3
					c-0.1-5.6-0.1-11.2-0.2-16.8c0-0.4,0-0.8,0-1.5c-0.3,0.5-0.4,0.6-0.5,0.8c-2.5,5.9-4.9,11.9-5.7,18.4c-0.9,6.8-1,13.6,1.2,20.2
					c0,0.1,0.1,0.2,0.1,0.3c-1-0.1-2,0-2.9,0.3c-2.2-7.8-2.5-15.9-0.8-24.2c1.4-7.2,4.3-14,8-20.3c3.3-5.6,7-11.1,10.2-16.8
					c6.7-12.1,8.5-25.1,5.8-38.6c-0.4-2.1-1.1-4.2-1.6-6.3c-0.1-0.5,0.3-1,0.5-1.6c0.5,0.2,1.1,0.3,1.5,0.7c0.5,0.5,0.8,1.2,1,1.9
					c0.9,2.9,1.8,5.9,2.4,8.9c0.4,2,0.8,4,1.9,5.9c1,1.7,1.7,3.6,2.2,5.5c2.1,8.3,2.3,16.9,1.5,25.4c-0.7,8.3-2,16.6-2.7,24.9
					c-1.4,14.5-1.9,28.9-0.1,43.4c2,15.7,4.4,31.3,8,46.7c2.6,11,5.3,22,9.2,32.6c2.3,6.4,4.3,13,8.4,18.6c1.6,2.2,3.3,4.4,5.4,6.3
					c5.2,4.7,11.1,8,17.7,10.3c6.8,2.3,13.8,3.4,20.8,4.7c8.4,1.5,16.9,1.7,25.3,0.6c3.9-0.5,7.9-1.3,12-2.1c-1.1-0.3-2-0.5-2.8-0.8
					c0-0.1,0-0.2-0.1-0.3c0.6-0.2,1.2-0.6,1.8-0.7c2.1-0.4,4.2-0.7,6.2-1.1c1.5-0.3,2.8-0.8,3.5-2.3c0.2-0.4,0-0.9,0-1.3
					c-0.4,0-0.8,0-1.2,0.1c-0.6,0.2-1.2,0.7-1.8,0.8c-0.4,0.1-1.1-0.2-1.3-0.5c-0.2-0.3-0.1-1,0.2-1.4
					C559.5,411.9,560.1,411.6,560.5,411.2z M167.2,90.8c-0.4,1.3-0.9,2.6-1.6,3.8c-0.3,0.6-1,1-1.6,1.3c-0.4,0.2-1.1,0.1-1.4-0.2
					c-0.3-0.3-0.5-1-0.4-1.4c0.7-2,1.6-3.9,2.3-5.9c0.2-0.4,0.3-0.8,0.4-1.4C166.9,87.6,167.8,88.8,167.2,90.8z M165.8,231.7
					c-0.6,0.5-1-0.3-0.9-0.8c0.1-0.7,0.3-1.5,0.7-2.1c1.1-1.7,1.7-3.6,1.8-5.6c0-0.4,0.5-0.7,0.7-1.1c0.3,0.3,0.8,0.5,0.9,0.8
					c0.2,0.7,0.3,1.5,0.5,2.2C169.6,228.1,167.8,230,165.8,231.7z M168.7,234.7c-0.5,0.7-1,0.4-1.1-0.3c-0.1-0.3-0.1-0.6-0.1-0.7
					c0.1-2.3,0.9-4.1,1.9-5.8c0.2-0.3,0.8-0.7,1.1-0.6c0.3,0.1,0.7,0.7,0.6,1.1C170.9,230.7,170.2,232.9,168.7,234.7z"/>
			</defs>
			<clipPath id="SVGID_2_">
				<use xlink:href="#SVGID_1_"  style="overflow:visible;"/>
			</clipPath>
			<g class="st3">
				<path d="M248,371.2c1.4-3.3,3.2-6,5.5-8.1c2.1-1.9,5.3-1.4,7.2,0.6c0.5,0.5,1.4,0.9,2.1,0.9c1.1,0.1,1.9,0.4,2.3,1.4
					c0.5,1.1,0.5,2.3-0.4,3c-3.2,2.5-6.4,5-9.8,7.2c-1.5,1-3,0.6-4.3-0.7c-0.8-0.8-1.4-1.9-2-2.5c-1.6,1.3-3.2,2.7-5.1,3.9
					c-1.6,1-2.8,0.7-3.9-0.8c-1.9-2.5-4-5.1-3.1-8.7c0-0.1,0-0.2,0.1-0.3c0.5-1.5,0.9-3.1,2.6-3.6c1.7-0.5,2.5,1.1,3.5,2.1
					C244.4,367.4,246.2,369.3,248,371.2z"/>
				<path d="M186,223.8c-3.1,0.2-5.1-1.8-6.6-4.9c-1.8-4-0.3-7,3.9-8.3c2.4-0.7,4.7-1.5,7.1-2c2.7-0.6,4.6,0.6,5.2,3
					c0.4,1.4,0.1,2.6-1.1,3.6c-0.7,0.6-1.5,1.6-1.4,2.4c0.1,4.5-2.5,5.5-6.2,6.2C186.6,223.8,186.3,223.8,186,223.8z"/>
				<path d="M465.3,283.9c4.2,0,6,2,5.5,4.8c-0.1,0.7-0.7,1.4-1.2,1.8c-1.1,0.9-1.7,1.9-1.6,3.3c0.1,2.1-0.9,3.4-2.7,4.3
					c-6.6,3.1-10.2-0.9-11.5-6c-0.5-2.1,0.5-4.3,2.5-5.2C459.6,285.6,463.1,284.7,465.3,283.9z"/>
				<path d="M371.5,208.4c-0.1,2.2-1,4.3-2.6,6.2c-1.4,1.7-4.6,2.1-6.6,0.7c-2.6-1.8-5.1-3.9-7.4-6.1c-1.9-1.9-1.6-4.1,0.4-5.9
					c0.9-0.8,1.9-1.1,3-0.6c1.3,0.5,2.5,0.3,3.6-0.6c1.8-1.4,3.6-1.2,5.5,0C370.2,203.7,371.5,205.7,371.5,208.4z"/>
				<path d="M437.1,199.7c-0.4,1.2-0.5,2.3-1.1,3c-1.9,2.4-3.8,4.9-6,7.1c-2.1,2.1-4.4,1.8-6.2-0.3c-0.8-0.9-1.1-1.9-0.6-3
					c0.6-1.3,0.3-2.5-0.5-3.6c-1.3-1.7-1.1-3.5,0-5.3c3.7-6,8.8-4.6,12.6-1.3C436.4,197,436.6,198.6,437.1,199.7z"/>
				<path d="M252.3,260.1c-1.2-0.4-2.2-0.4-2.9-0.9c-2.5-1.9-5.1-3.8-7.4-6c-1.9-1.8-1.7-4,0-5.7c1-1,2-1.4,3.4-0.9
					c1.3,0.5,2.4,0.3,3.5-0.6c1.8-1.5,3.7-1.2,5.6,0c5.7,3.6,4.7,8.5,1.3,12.5C255,259.3,253.4,259.6,252.3,260.1z"/>
				<path d="M257.4,173.5c3.2,0.4,7.5,2.2,7.6,5.9c0,1,0,2.3-0.6,3.1c-2,2.6-4,5.2-6.3,7.6c-1.8,1.8-4,1.6-5.7-0.3
					c-0.8-0.9-1.2-1.9-0.8-3.1c0.5-1.4,0.4-2.6-0.5-3.8c-1.2-1.6-1.2-3.3-0.2-4.9C252.4,175.6,254.2,173.6,257.4,173.5z"/>
				<path d="M265.2,345.4c-3.6-0.1-5.3-2-6.6-4.3c-2.3-4.2-0.8-7.5,3.8-8.9c2.5-0.7,4.9-1.5,7.4-2c2.8-0.5,4.7,1.3,4.6,4.1
					c0,0.8-0.6,1.8-1.3,2.4c-0.9,0.9-1.6,1.7-1.5,3c0.2,2.5-1.2,4-3.3,4.8C267.2,345.1,265.9,345.3,265.2,345.4z"/>
				<path d="M315.5,162.8c-1.2-0.4-2.2-0.4-2.9-0.9c-2.5-1.9-5-3.8-7.3-5.9c-2-2-1.8-4.2,0.2-5.9c0.9-0.8,1.8-1.1,3-0.7
					c1.3,0.5,2.5,0.3,3.6-0.5c1.8-1.4,3.6-1.2,5.5-0.1c5.7,3.5,4.7,8.5,1.3,12.4C318.1,162,316.6,162.3,315.5,162.8z"/>
				<path d="M391.2,254.9c-0.1,2.9-2,7.5-5.4,7.7c-1.2,0.1-2.6,0-3.5-0.6c-2.5-1.7-4.9-3.6-7.1-5.7c-2-1.9-2-3.9-0.4-5.7
					c1-1.1,2.1-1.4,3.6-1.1c1,0.2,2.3,0.1,3.2-0.4c2.5-1.4,3.8-1.5,6.1,0.1C389.6,250.5,391.2,252.2,391.2,254.9z"/>
				<path d="M463.3,191.3c-0.4,1.2-0.5,2.3-1.1,3c-2,2.5-4,5-6.2,7.3c-1.8,1.8-4,1.5-5.7-0.4c-0.8-0.9-1.1-1.8-0.7-3
					c0.6-1.4,0.4-2.6-0.5-3.8c-1.3-1.8-1.1-3.5,0-5.3c3.5-5.7,8.5-4.6,12.4-1.2C462.6,188.7,462.8,190.2,463.3,191.3z"/>
				<path d="M410.2,169.6c2,0.3,4.8,0.5,7.6,1.1c3,0.6,4.2,2.5,3.6,5.1c-0.3,1.3-1,2.3-2.4,2.5c-1.3,0.2-2.2,1-2.7,2.2
					c-1.5,3.1-3.3,3.7-6.6,2.5c-0.3-0.1-0.6-0.2-0.9-0.3c-0.9-0.3-2.2-0.4-2.5-1c-1.1-2.2-2.2-4.6-2.6-7
					C403.4,172,406.5,169.5,410.2,169.6z"/>
				<path d="M409.7,353.8c-1.2-0.4-2.4-0.8-3.6-1.2c-0.8-0.3-2-0.4-2.2-0.9c-1.1-2.4-3.1-4.7-2.5-7.6c0.4-2.3,2.7-4.4,5-4.3
					c3.3,0.2,6.7,0.7,9.9,1.5c2.6,0.6,3.5,3,2.3,5.4c-0.3,0.7-1.1,1.5-1.8,1.6c-1.7,0.4-2.6,1.3-3.2,2.8
					C412.9,352.7,411.6,353.7,409.7,353.8z"/>
				<path d="M242.1,342.5c2,0.3,5.1,0.7,8.1,1.4c2.5,0.6,3.5,2.5,2.9,4.8c-0.3,1.3-1,2.3-2.4,2.5c-1.5,0.2-2.2,1.1-2.8,2.3
					c-1.4,2.9-3.3,3.6-6.4,2.4c-0.9-0.3-1.8-0.5-2.6-0.8c-0.3-0.1-0.7-0.3-0.9-0.5c-0.8-1.7-1.8-3.4-2.3-5.2
					C234.6,345.9,237.3,342.4,242.1,342.5z"/>
				<path d="M193.2,100.5c-0.4,1-0.5,2.2-1.2,2.9c-2,2.4-4.1,4.8-6.5,6.8c-2.2,1.9-4.6,1.4-6-0.9c-0.4-0.7-0.5-1.8-0.3-2.6
					c0.4-1.4,0.4-2.5-0.3-3.8c-1.6-2.9-1-4.8,1.8-6.7c0.7-0.5,1.3-1.1,2-1.6c0.3-0.2,0.7-0.5,1-0.4c1.6,0.2,3.3,0.5,4.9,0.8
					C191.5,95.7,193,97.7,193.2,100.5z"/>
				<path d="M249.6,303.7c-1.4-0.1-2.8-0.2-4.1-0.4c-3.5-0.6-5.4-3.5-4.6-7c0.2-0.7,0-1.5-0.4-2.1c-1-1.9,0.1-4,2.2-4
					c0.7,0,1.4,0.2,2.1,0.4c2.4,0.9,4.7,1.7,7,2.7c1.1,0.4,2.1,1,3.2,1.6c1.1,0.7,1.5,1.7,1.5,3c-0.1,3.7-2.4,5.9-6.1,5.8
					C250.2,303.6,249.9,303.6,249.6,303.7C249.6,303.6,249.6,303.7,249.6,303.7z"/>
				<path d="M303.7,204.4c0-2.5,4.5-8.4,6.9-9c2.2-0.6,4.1-0.4,5.7,1.5c0.4,0.5,1.3,0.9,2,0.8c1.2,0,1.9,0.4,2.4,1.5
					c0.5,1.1,0.3,2.1-0.4,3c-0.3,0.3-0.6,0.6-0.9,0.8c-2.3,1.8-4.6,3.5-6.9,5.2c-0.9,0.6-1.8,1.1-2.8,1.5c-0.6,0.2-1.3,0.2-1.9,0
					C305.7,209.3,303.6,206.4,303.7,204.4z"/>
				<path d="M406.1,199.2c-1.1-0.1-2.3-0.2-3.5-0.3c-4-0.5-6-3.4-5.1-7.3c0.1-0.6-0.1-1.4-0.4-2c-0.5-0.8-0.9-1.7-0.2-2.4
					c0.7-0.7,1.6-1.2,2.4-1.6c0.3-0.2,0.9,0,1.3,0.2c3,1.1,6,2.2,8.9,3.4c3,1.3,3.8,2.7,3.2,5.3c-0.8,3.2-2.5,4.6-5.6,4.5
					C406.9,199.2,406.6,199.2,406.1,199.2z"/>
				<path d="M409.8,315.7c0.1-0.4,0.1-1,0.3-1.4c1.6-2.2,3-4.6,4.9-6.5c2-2,5.3-1.6,7.3,0.5c0.5,0.5,1.4,0.9,2.1,0.9
					c1,0.1,2,0.2,2.2,1.3c0.2,0.9,0.1,1.9-0.1,2.9c0,0.3-0.5,0.7-0.8,0.9c-2.7,2-5.3,4-8,6c-1.3,1-2.8,1.7-4.4,0.7
					C411.3,319.8,410,318.2,409.8,315.7z"/>
				<path d="M227.3,173.4c2.3,0.3,3.8,0.5,4.8,2.1c0.4,0.6,1.3,1,2,1c1,0.1,1.7,0.3,2.1,1.2c0.5,1,0.6,2-0.1,2.9
					c-0.3,0.4-0.6,0.7-1,1c-2.8,1.9-5.5,3.8-8.4,5.6c-2.5,1.5-4,1.3-5.7-0.7c-2.1-2.4-2.4-4.7-0.7-6.8c1.2-1.6,2.4-3.2,3.9-4.6
					C225.2,174.2,226.5,173.8,227.3,173.4z"/>
				<path d="M460.1,312c2.5-0.1,4.9-0.3,7.4-0.4c2.8,0,4,1,4.5,3.4c0.6,3-0.3,5.2-2.7,6.2c-1.8,0.8-3.6,1.5-5.5,2
					c-3.5,1-6.3-1-7-4.6c-0.1-0.7-0.7-1.4-1.2-1.8c-0.8-0.6-1.5-1.3-1.1-2.3c0.4-0.9,1-1.9,1.8-2.3c1.1-0.5,2.5-0.4,3.8-0.5
					C460.1,312,460.1,312,460.1,312z"/>
				<path d="M362.5,167.5c0.1-0.5,0-1,0.2-1.3c1.5-2.7,2.9-5.5,5.5-7.3c2.1-1.5,5-0.9,6.7,1c0.5,0.5,1.4,0.9,2.1,0.9
					c1.1,0,1.7,0.3,2.2,1.3c0.5,1,0.5,2-0.2,2.9c-0.4,0.5-0.9,0.9-1.3,1.3c-2,1.5-4,3.1-6,4.6c-0.5,0.4-1,0.7-1.5,1.1
					c-1.4,0.9-2.9,1.6-4.5,0.6C364,171.2,362.8,169.6,362.5,167.5z"/>
				<path d="M191.3,171.6c-0.1,1.6-0.2,3.5-0.5,5.5c-0.6,3.6-3.6,5.4-7.1,4.5c-0.6-0.2-1.5,0-2,0.3c-0.9,0.6-1.9,0.9-2.6,0
					c-0.6-0.7-1-1.7-1.3-2.6c-0.1-0.2,0-0.6,0.2-0.9c1.3-3.3,2.6-6.6,4.1-9.8c1.1-2.4,2.5-3,4.9-2.3
					C189.8,167.1,191.4,168.8,191.3,171.6z"/>
				<path d="M221.6,170.1c-1.2-0.1-2.4-0.1-3.7-0.3c-3.7-0.5-5.7-3.5-4.7-7.1c0.2-0.6,0-1.4-0.4-2c-0.5-0.9-0.8-1.6-0.2-2.6
					c0.6-1,1.5-1.6,2.7-1.4c0.4,0,0.7,0.1,1.1,0.2c2.9,1.1,5.9,2.2,8.8,3.4c3.1,1.3,3.9,2.7,3.3,5.1c-0.8,3.5-2.4,4.8-5.6,4.7
					C222.5,170.1,222.1,170.1,221.6,170.1z"/>
				<path d="M158.9,233.2c-1.2-0.1-2.5-0.1-3.7-0.3c-3.5-0.7-5.2-3.5-4.4-7c0.2-0.7-0.1-1.5-0.4-2.1c-1-1.8,0.1-3.9,2.2-3.9
					c0.5,0,1,0.1,1.5,0.2c2.9,1.1,5.8,2.1,8.6,3.3c3.1,1.3,4,2.7,3.4,5.2c-0.8,3.4-2.6,4.8-5.9,4.6
					C159.8,233.2,159.3,233.2,158.9,233.2C158.9,233.2,158.9,233.2,158.9,233.2z"/>
				<path d="M439.7,324.2c-1.3-0.1-2.6-0.2-3.8-0.4c-3.4-0.7-5.1-3.5-4.3-6.9c0.2-0.7-0.1-1.5-0.4-2.1c-0.5-0.8-0.9-1.7-0.1-2.4
					c0.7-0.6,1.6-1.1,2.5-1.5c0.3-0.1,0.7,0,1,0.2c3.1,1.2,6.3,2.3,9.4,3.6c3.8,1.7,4.1,6.7,0.5,8.8c-1.3,0.8-3.1,0.7-4.7,1
					C439.7,324.4,439.7,324.3,439.7,324.2z"/>
				<path d="M192.6,110.9c0.1-0.3,0.2-1,0.4-1.7c0.7-2,1.3-4,2.2-5.9c0.4-0.8,1.3-1.5,2.1-1.7c2.1-0.5,4,0.2,5.3,1.7
					c1.6,1.9,3,4,4.1,6.2c0.9,1.7-2.1,5.3-4,5.1c-1.7-0.2-3.3-0.2-4.6,1.2c-0.2,0.2-0.6,0.3-0.8,0.3
					C195,116.1,192.6,113.7,192.6,110.9z"/>
				<path d="M468.5,376.5c-3.1,0-5-1.2-5.2-3.3c-0.1-0.8,0.1-1.9,0.6-2.5c1.2-1.5,1.5-3,1.2-4.8c-0.3-2,0.6-3.5,1.9-4.8
					c1.5-1.4,3-1.4,4.3,0.1c0.8,0.9,1.4,1.9,2,2.9c0.9,1.5,1.7,3.1,2.5,4.6c0.9,1.6,0.9,2.7-0.4,3.9
					C473.4,374.6,471.4,376.8,468.5,376.5z"/>
				<path d="M413.9,302c-1.4,0.1-2.9-0.8-3.7-2.7c-0.8-2-2.2-3.8-1.6-6.1c0.5-2.1,3-3.8,5.1-3.5c1.1,0.2,2.2,0.4,3.4,0.5
					c2.1,0.2,3.6,1.1,4.5,3c0.9,2,0.6,4-0.7,5.7C419.3,301,417.1,301.9,413.9,302z"/>
				<path d="M263.8,299.2c-2.9-0.2-5.3-2.5-5.4-5.5c-0.1-3,1.8-6.3,5-7.4c3-1,8.7,3,8.6,6.1c-0.1,1.9-0.8,4.2-3,4.7
					c-1,0.2-1.8,0.9-2.8,1.3C265.5,298.7,264.6,298.9,263.8,299.2z"/>
				<path d="M386.1,174.1c2.9,0,6,2,7,4.7c0.1,0.3,0.2,0.7,0.3,1c0.2,2.4-2.9,6.9-5.1,7.6c-1.8,0.6-4.6-0.7-5.5-2.5
					c-0.4-0.9-0.8-1.8-1.3-2.6c-1.1-1.7-1.4-3.5-0.4-5.4C382.1,175.2,384.1,174.1,386.1,174.1z"/>
				<path d="M399,297.4c0,0.3,0,0.5,0,0.8c-0.4,2.2-5.9,5.5-8,4.6c-0.6-0.2-1.1-0.8-1.3-1.4c-0.9-2.4-1.9-4.9-2.5-7.4
					c-0.6-2.2,0.1-3.7,1.7-4.7c2-1.2,4.6-1.3,6.1,0.1C397.3,291.4,398.4,294.3,399,297.4z"/>
				<path d="M449.4,248.7c3.1,0.2,5.4,1.8,6.8,4.6c0.2,0.5,0.4,1.1,0.3,1.6c-0.7,2.8-1.9,5.4-4.5,6.9c-1.9,1.1-5-0.1-5.9-2
					c-0.4-0.9-0.8-1.9-1.4-2.8c-1.1-1.7-1.5-3.5-0.4-5.4C445.4,249.6,447.1,248.7,449.4,248.7z"/>
				<path d="M201,140.4c3.3,0.2,5.6,1.8,7.1,4.6c0.2,0.4,0.4,1,0.3,1.5c-0.7,2.9-1.9,5.5-4.6,7c-2,1.1-5-0.2-5.9-2.3
					c-0.4-0.9-0.8-1.8-1.3-2.6c-1.1-1.7-1.4-3.4-0.4-5.2C197.2,141.4,198.9,140.6,201,140.4z"/>
				<path d="M385.5,189.5c1.4-0.1,2.9,0.5,3.6,1.8c1.2,2,2.2,4.3,3.2,6.5c0.6,1.3,0,2.6-1.1,3.4c-1.5,1-3,2-4.7,2.7
					c-1.7,0.7-3,0.1-3.6-1.6c-0.8-2.2-1.7-4.4-2.3-6.7C379.7,191.9,381.7,189.5,385.5,189.5z"/>
				<path d="M275.6,206.9c-1.2-0.5-2.3-0.7-3.2-1.4c-0.4-0.3-0.6-1.3-0.6-1.9c0.1-0.7,0.8-1.3,1-2.1c0.3-0.8,0.5-1.8,0.4-2.6
					c-0.2-1.2,0.1-2,0.8-2.8c2-2.2,3.7-2.7,6.4-1.4c1.6,0.7,3.1,1.7,4.4,2.8c1.2,1,1.8,2.4,1.1,4c-0.8,1.6-1.9,2.8-4,3
					c-1.3,0.1-2.6,0.7-3.9,1.2C277.3,206.1,276.5,206.5,275.6,206.9z"/>
				<path d="M211.7,77.9c0.2-1.3,0.4-2.5,0.7-3.8c0.5-2,1.6-2.8,3.6-2.3c2.1,0.6,4.3,1.2,6.3,1.9c2.7,0.9,3.8,2.6,3.4,4.9
					c-0.4,2.7-2.5,4.7-5.2,4.6c-1.8-0.1-3.7-0.3-5.5-0.8C212.5,81.9,211.8,80.7,211.7,77.9z"/>
				<path d="M438.8,292.1c3.1,0.1,5.3,1.8,6.9,4.4c1.4,2.3-2.8,9.2-5.7,9c-1.8-0.1-3.9-1.3-4.7-3c-0.4-0.8-0.7-1.6-1.1-2.4
					c-1.1-1.7-1.5-3.4-0.4-5.2C434.9,293.1,436.6,292.2,438.8,292.1z"/>
				<path d="M184.8,204.4c-0.8-0.5-1.8-0.8-2.5-1.5c-1.8-1.8-2.9-4.1-3.4-6.6c-0.3-1.5,0-2.8,1.4-3.6c1.5-0.8,2.9-1.3,4.7-0.4
					c1.3,0.6,2.8,1.2,4.2,1.2c2.3,0.1,3.6,1.2,4.6,3.1c0.5,1,0.4,1.8-0.7,2.3c-0.7,0.4-1.4,0.7-2,1.1c-0.5,0.3-1.1,0.7-1.4,1.2
					C188.1,203.8,187.9,204,184.8,204.4z"/>
				<path d="M404.7,317.5c-0.5,3.5-1.8,6.3-4.3,8.4c-1,0.8-2.2,1.1-3.3,0.5c-1.5-0.8-2.8-1.7-2.8-3.5c0-1.7-0.7-3.1-1.6-4.4
					c-1.2-1.7-1.1-3.9,0.2-5.5c0.4-0.4,1.3-0.7,1.9-0.6c0.8,0.1,1.5,0.8,2.2,1c0.7,0.2,1.5,0.6,2,0.4c1.9-0.7,3.1,0.2,4.1,1.6
					C403.9,316.1,404.4,316.9,404.7,317.5z"/>
				<path d="M199.1,155.5c1.6,0,2.9,0.6,3.7,1.9c1.2,1.9,2.1,4,3,6c0.6,1.4,0.2,2.8-1.1,3.7c-1.5,1-3.1,2-4.8,2.7
					c-1.5,0.6-2.6,0-3.2-1.5c-0.9-2.3-1.8-4.6-2.4-7C193.4,157.8,195.5,155.4,199.1,155.5z"/>
				<path d="M295.3,168.8c-0.5,2.7-1.6,5.3-3.8,7.4c-1,1-2.3,1.4-3.7,0.8c-1.5-0.7-2.9-1.7-2.9-3.5c0-1.7-0.6-3.1-1.5-4.4
					c-1.2-1.7-1.1-3.9,0.2-5.4c0.4-0.4,1.3-0.6,2-0.5c0.7,0.1,1.3,0.8,2.1,1c0.8,0.2,1.7,0.4,2.5,0.3
					C292.3,164,295.4,166.4,295.3,168.8z"/>
				<path d="M336.2,153.2c0.3-2,1.3-3.4,3.2-4c2.4-0.8,4.6-0.4,5.8,1.5c1.2,1.9,2.1,4,3,6c0.2,0.4,0.2,0.9,0.2,1.4
					c-0.1,2.4-5.9,6-8.1,5c-0.4-0.2-0.8-0.5-0.9-0.8C338.4,159.2,337.3,156.2,336.2,153.2z"/>
				<path d="M405.5,235.9c1.1,0.7,2.6,1.1,3.2,2.1c1.3,2,2.3,4.2,3.2,6.4c0.6,1.3,0.1,2.6-1.1,3.4c-1.5,1-3.1,2-4.8,2.7
					c-1.5,0.7-2.7,0.1-3.3-1.5c-0.8-2.2-1.6-4.3-2.3-6.6C399.4,238.7,401.4,236.3,405.5,235.9z"/>
				<path d="M187.2,315.9c-0.7-0.2-1.2-0.2-1.7-0.4c-2.6-0.8-2.9-1.6-1.6-3.9c0.7-1.2,1.3-2.4,0.8-3.9c-0.2-0.5,0.1-1.2,0.3-1.7
					c1.3-2.2,3.6-3.3,6-2.3c2,0.8,3.8,2.1,5.6,3.4c1.2,0.9,1.4,2.3,0.8,3.7c-0.7,1.5-1.7,2.8-3.4,2.8c-1.9,0-3.5,0.7-5,1.7
					C188.4,315.5,187.7,315.7,187.2,315.9z"/>
				<path d="M373.1,247.5c-1.7-0.4-3.4-0.7-5.1-1.1c-1.7-0.5-2.8-1.6-2.7-3.5c0.1-1.7,0.2-3.4,0.6-5c0.4-1.8,1.6-2.4,3.4-1.9
					c1.9,0.5,3.8,1.1,5.6,1.6c3.3,1,4.6,2.6,4.2,5.1C378.6,245.8,376.5,247.4,373.1,247.5z"/>
				<path d="M407.7,143.9c0,2.4-2,4.4-3.8,4.7c-1.5,0.3-3,0.9-4.5,1.4c-1,0.3-2,0.9-2.9,0.8c-3.4-0.3-3.9-1.6-2.4-4.6
					c0.5-1,0.4-2.2,0.6-3.3c0.1-0.7,0.1-1.5,0.5-2c1.5-2.3,3.6-3.1,6.1-2c1.8,0.7,3.4,1.8,5,3C407.1,142.4,407.4,143.5,407.7,143.9z
					"/>
				<path d="M478.7,392c0.2-0.8,0.3-1.3,0.5-1.8c0.8-2.2,1.5-2.5,3.6-1.4c1.4,0.8,2.7,1.4,4.4,0.8c0.3-0.1,0.9,0.1,1.3,0.3
					c2.1,1,3.5,3.6,2.6,5.7c-0.9,2.1-2.2,4.1-3.5,6c-0.8,1.1-2.2,1.3-3.4,0.7c-1.4-0.6-2.8-1.5-2.8-3.2c0-2-0.8-3.6-1.8-5.1
					C479.1,393.4,478.9,392.6,478.7,392z"/>
				<path d="M207.5,294.5c-0.1,0.3-0.2,0.9-0.4,1.6c-0.1,0.5-0.2,1.1-0.3,1.7c-0.1,0.9,0.3,2.3-0.2,2.7c-1.4,1.2-3,2.1-4.7,2.8
					c-1.1,0.5-2.9-1.1-3.7-2.6c-0.7-1.3-1.5-2.6-2-3.9c-0.3-0.7-0.2-1.5-0.2-2.3c0-0.5,0.4-0.9,0.5-1.4c0.4-2.2,3.2-3.8,6.2-3.6
					C205.5,289.6,207.5,291.5,207.5,294.5z"/>
				<path d="M290.2,180.2c4.4,0,6.5,2.9,5.6,6.4c-0.3,0.9-0.1,2-0.1,3c0,0.3,0.1,0.6,0.1,0.9c-0.2,0.9-3.8,3.5-5.2,3.6
					c-1.1,0.1-2.9-1.1-3.6-2.5c-0.7-1.4-1.5-2.8-2.2-4.2c-0.2-0.5-0.3-1.2-0.2-1.8c0.2-1,0.5-2.1,0.8-3.1c0.1-0.4,0.5-0.9,0.8-1
					C287.7,181,289.3,180.5,290.2,180.2z"/>
				<path d="M312,185.4c0,4.5-2.9,6.6-6.4,5.7c-0.8-0.2-1.8-0.2-2.7-0.1c-1.1,0.2-1.9,0-2.4-0.9c-0.8-1.1-1.5-2.2-2.1-3.4
					c-0.7-1.3,0.2-3.2,1.9-4.3c1.5-0.9,3-1.8,4.6-2.5c0.5-0.2,1.2-0.2,1.8-0.1c1,0.2,1.9,0.4,2.8,0.7c0.4,0.1,0.9,0.4,1.1,0.8
					C311.2,182.9,311.7,184.6,312,185.4z"/>
				<path d="M200.2,127.1c-0.5-0.9-1-1.5-1-2.1c0-0.7,0.2-1.6,0.7-2.2c0.2-0.2,1.3,0.1,1.8,0.5c1.3,0.8,2.5,1.8,3.7,2.8
					c1.6,1.3,1.7,2.1,0.3,3.6c-1.1,1.2-1.7,2.3-0.6,3.9c0.3,0.5,0.3,1.4,0.1,2c-1,2.4-3.2,3.3-5.6,2.5c-0.5-0.1-1.2-0.3-1.4,0
					c-1.3,1.1-2.2,0.1-3.1-0.6c-1-0.7-1.7-1.8-1.2-3.1c0.4-1,1-1.9,1.7-2.7C197,130.1,198.6,128.7,200.2,127.1z"/>
				<path d="M203.3,222.2c-0.7,0-1.3,0-2,0c-1.1,0-1.6-0.7-1.9-1.7c-0.2-0.7-0.3-1.5-0.6-2.1c-1.3-2.2-1-4.3,0.3-6.3
					c1.3-1.9,3.2-2.3,5.3-1.9c3.2,0.6,4.3,1.2,4.7,4.3c0.1,1,0.9,1.9,1.4,2.9c1,1.9,0.7,3.3-1.4,4c-1.9,0.5-3.8,0.7-5.7,1
					C203.3,222.3,203.3,222.3,203.3,222.2z"/>
				<path d="M462.9,254.2c-0.5,0-1,0.1-1.5,0.1c-2.5,0.2-2.6,0.1-3-2.3c-0.1-0.4-0.3-0.9-0.5-1.3c-1.6-2.3-1.2-4.6,0.2-6.6
					c1.4-1.9,3.4-2.2,5.7-1.7c2.4,0.5,4,1.5,4.2,4.3c0.1,1,0.9,1.9,1.4,2.9c1.1,2,0.6,3.3-1.6,4.1c-0.8,0.3-1.6,0.4-2.4,0.5
					C464.5,254.2,463.7,254.1,462.9,254.2C462.9,254.2,462.9,254.2,462.9,254.2z"/>
				<path d="M436.4,337.7c0,4.6-2.8,6.6-6.3,5.6c-0.8-0.2-1.8,0-2.7-0.1c-0.8-0.1-1.8-0.2-2.3-0.7c-0.9-1-1.6-2.2-2.3-3.5
					c-0.7-1.3,0.4-3.3,2.1-4.3c1.4-0.8,2.8-1.7,4.3-2.4c0.5-0.2,1.2-0.3,1.8-0.2c1,0.2,2,0.4,3,0.8c0.4,0.1,0.9,0.4,1,0.8
					C435.6,335.3,436.1,336.9,436.4,337.7z"/>
				<path d="M466.7,272.9c0,4.5-2.8,6.5-6.3,5.6c-0.9-0.2-1.9-0.1-2.9-0.1c-0.4,0-0.7,0.1-1.1,0.1c-0.9-0.2-3.4-3.8-3.6-5
					c-0.1-1.2,1.1-2.9,2.5-3.7c1.3-0.7,2.6-1.5,3.9-2.1c0.6-0.3,1.4-0.4,2-0.3c1,0.1,1.9,0.4,2.8,0.7c0.4,0.1,0.9,0.4,1.1,0.8
					C465.9,270.4,466.4,272.1,466.7,272.9z"/>
				<path d="M211.9,351.7c-0.1,0.3-0.3,1-0.4,1.7c-0.1,0.6-0.3,1.3-0.1,1.8c0.7,1.8-0.2,2.7-1.6,3.5c-0.5,0.3-1,0.6-1.5,0.9
					c-2.3,1.3-4.5,0.6-5.6-1.9c-0.6-1.3-1.4-2.4-1.9-3.7c-0.3-0.7-0.3-1.5-0.2-2.3c0.1-0.9,0.4-1.7,0.7-2.5c0.1-0.4,0.4-1,0.7-1.1
					c2-0.5,3.9-1.3,5.9-1.3C210.2,346.8,211.9,349,211.9,351.7z"/>
				<path d="M247.6,209.2c0,3.5-4.2,7.1-7.1,5.9c-2.4-1-4.5-2.7-6.5-4.4c-0.4-0.3-0.3-1.8,0-2.5c0.5-1,1.4-1.8,2.3-2.5
					c1.2-1,2.5-1.8,3.7-2.8c1.1-0.8,1.9-0.8,2.8,0.3c0.5,0.6,1.2,1,1.8,1.3C246.5,205.6,247.3,207.4,247.6,209.2z"/>
				<path d="M301.5,203.5c-0.4,0.8-0.8,1.7-1.4,2.4c-0.4,0.5-0.9,0.9-1.4,1.1c-2.9,0.9-4.9,2.8-6.7,5.2c-0.4,0.6-1.5,0.8-2.3,0.9
					c-0.9,0.1-1.5-0.6-1.1-1.6c0.5-1.5,0.3-2.8-0.7-4c-0.3-0.3,0-1.3,0.2-1.8c0.8-1.4,1.7-2.8,2.6-4.2c1.2-1.9,2.8-3.3,5-3.2
					c2.1,0,3.9,1.2,5.1,3.1C301.1,202,301.2,202.7,301.5,203.5z"/>
				<path d="M403.6,230.2c0,3.5-4.5,7-7.4,5.7c-2.2-1-4.1-2.6-6-4.1c-0.5-0.4-0.6-1.8-0.2-2.5c0.6-1.1,1.7-2.1,2.7-2.9
					c1.1-0.9,2.3-1.7,3.5-2.6c1-0.8,1.7-0.6,2.5,0.3c0.5,0.5,1,1,1.6,1.3C402.5,226.4,403.4,228.3,403.6,230.2z"/>
				<path d="M375.5,149.3c0.1,2.3-0.6,3.7-2.1,4.5c-1.1,0.6-2.3,1.2-3.5,1.4c-0.9,0.1-2-0.3-2.8-0.8c-1.2-0.6-2.2-1.7-3.4-2.3
					c-2.4-1.3-2.9-2.8-0.9-4.7c1.7-1.7,3.7-3.1,5.7-4.5c0.4-0.3,1.4,0,2,0.3c0.7,0.3,1.2,1.1,1.9,1.5
					C374.4,145.8,375.2,147.6,375.5,149.3z"/>
				<path d="M299.5,166c-3.2,0.1-4.5-1.3-5.5-3.2c-1.4-2.9-1.3-3.6,0.8-6c0.7-0.8,1.1-1.9,1.5-2.8c1-2.1,2.4-2.6,4.1-1
					c1.9,1.8,3.5,3.9,5.1,6c0.3,0.3-0.1,1.3-0.4,1.9c-0.4,0.7-1.1,1.3-1.5,2.1C302.7,165.1,300.8,165.8,299.5,166z"/>
				<path d="M207.2,307.5c2.1,0.5,4.1,1.4,5.1,3.5c0.7,1.4,0.5,3-0.8,4.1c-1,0.8-2.1,1.5-3.3,2c-1.4,0.5-2.5,1.3-3.3,2.6
					c-0.6,0.9-1.3,1.8-2.2,2.3c-0.6,0.4-1.6,0.2-2.3,0c-0.2-0.1-0.1-1.1-0.2-1.7c-0.2-1-0.2-2.1-0.7-3c-0.5-0.9-0.5-1.5,0.1-2.3
					c0.9-1.2,1.7-2.6,2.4-3.9C203.3,309,204.9,307.8,207.2,307.5z"/>
				<path d="M422.7,147.3c-0.1,2-1.1,3.2-2.5,3.8c-2.8,1.1-5,2.8-6.8,5.3c-0.4,0.5-1.2,0.8-1.8,0.9c-1.2,0.2-1.8-0.6-1.4-1.7
					c0.5-1.4,0.2-2.5-0.6-3.6c-0.3-0.4-0.3-1.4,0-1.9c0.8-1.5,1.8-3,2.7-4.4c1.2-1.8,2.8-3.1,4.9-3c2.1,0.1,3.8,1.2,4.9,3.1
					C422.5,146.3,422.6,147,422.7,147.3z"/>
				<path d="M194.1,46.2c0.1-0.8,0.2-1.6,0.3-2.3c0.3-1.3,1-2.1,2.4-2.2c3.8-0.4,7.4-0.3,10.1,3.1c0.2,0.3,0.5,0.7,0.7,1
					c1.3,2.5,0.6,4-2.2,4.5c-2.3,0.4-4.6,0.9-6.9,1.3c-2.6,0.5-3.5-0.2-3.9-2.7C194.3,47.9,194.2,47,194.1,46.2z"/>
				<path d="M233.9,243.8c-0.9-0.4-2.5-0.9-3.8-1.7c-1.2-0.7-1.4-1.9-0.5-3.1c0.3-0.5,0.7-0.9,1.1-1.3c1.5-1.5,3-2.9,4.4-4.5
					c2.1-2.3,3.5-2.4,5.4,0.1c1,1.3,1.8,2.7,2.5,4.2c0.3,0.6,0.1,1.7-0.3,2.1C240.5,241.9,238,243.7,233.9,243.8z"/>
				<path d="M188.9,284c-0.9-0.4-2.5-0.9-3.9-1.7c-1.4-0.8-1.6-2.1-0.6-3.3c2.2-2.3,4.4-4.6,6.7-6.8c0.9-0.9,2.2-0.9,3.1,0.1
					c1.3,1.5,2.4,3.1,3.4,4.7c0.6,0.9,0.6,2.1-0.3,2.9C195.3,282,192.8,283.7,188.9,284z"/>
				<path d="M208.1,287c-2-0.4-4.2-1.1-6-2.8c-0.4-0.4-0.7-1.2-0.6-1.8c0.7-3.6,3.2-8.2,7.7-8.7c3.2-0.4,4.4,0.9,3.6,4
					c-0.6,2.2-1.1,4.4-1.6,6.6C210.7,286.1,209.9,287,208.1,287z"/>
				<path d="M320.4,181.6c0.3-0.8,0.8-2.3,1.6-3.7c0.7-1.3,1.9-1.4,3-0.5c2.3,2.1,4.6,4.3,6.8,6.5c1,1,1,2.3-0.1,3.3
					c-1.4,1.2-2.9,2.3-4.4,3.3c-1.2,0.8-2.4,0.5-3.3-0.6C322.2,187.7,320.4,185.5,320.4,181.6z"/>
				<path d="M348.7,200.3c-0.9-0.4-2.5-1-4-1.9c-1.1-0.6-1.2-1.8-0.5-2.8c0.4-0.5,0.9-1,1.3-1.5c1.3-1.3,2.7-2.5,3.9-3.9
					c2.5-2.8,3.8-2.8,6.1,0.1c0.8,1,1.6,2.2,2,3.4c0.3,0.7,0.2,1.9-0.3,2.4C355.2,198.3,352.7,200,348.7,200.3z"/>
				<path d="M246.3,323c-0.9-0.4-2.4-1-3.9-1.8c-1.2-0.7-1.2-1.8-0.5-2.9c0.3-0.5,0.7-0.9,1.1-1.3c1.5-1.5,3-2.9,4.4-4.5
					c2.1-2.3,3.5-2.3,5.4,0.1c1,1.3,1.8,2.7,2.5,4.2c0.2,0.5,0.1,1.6-0.3,2C252.9,321,250.4,322.7,246.3,323z"/>
				<path d="M411.1,218.1c2,0.7,3.9,1.3,5.9,2c0.5,0.2,1,0.7,1.4,1.2c1,1.2,2,2.6,1.4,4.2c-0.6,1.5-2.3,1.4-3.6,1.6
					c-2,0.4-3.9,0.8-5.9,1.2c-2.5,0.5-3.5-0.1-3.9-2.6c-0.1-0.8-0.2-1.6-0.2-2.5c0-4,0.8-4.9,4.8-4.8
					C411,218.3,411.1,218.2,411.1,218.1z"/>
				<path d="M267.6,176.1c-1-0.5-2.6-1.1-4.1-1.9c-1.1-0.6-1.1-1.7-0.4-2.7c0.2-0.3,0.5-0.7,0.8-1c1.8-1.8,3.5-3.6,5.3-5.3
					c1.7-1.7,3-1.7,4.6,0.2c1,1.3,2,2.6,2.7,4.1c0.3,0.6,0.2,1.9-0.2,2.4C274.1,174.1,271.6,175.7,267.6,176.1z"/>
				<path d="M191.1,92.9c-2.5-0.1-3.9-1.3-4.3-3.8c-0.3-1.7-0.8-3.1-2-4.4c-1.6-1.8-1.1-4.9,1-6.2c0.4-0.2,0.9-0.6,1.3-0.5
					c1.9,0.6,3.9,1.2,5.6,2.2c0.7,0.4,1,2,0.8,3c-0.3,1.8-0.3,3.4,0.4,5.1C194.8,91.3,193.7,93,191.1,92.9z"/>
				<path d="M384.2,277c0.4-0.9,0.8-2.4,1.6-3.7c0.8-1.4,2-1.7,3.2-0.6c2.3,2,4.5,4.2,6.7,6.4c0.9,0.9,1.1,2.2,0.1,3
					c-1.5,1.3-3.1,2.6-4.8,3.6c-0.6,0.4-1.9,0.3-2.4-0.1C386.3,283.4,384.6,280.9,384.2,277z"/>
				<path d="M211.2,330.7c0,0.2-0.1,0.6-0.2,1c-0.6,2.3-1.2,4.7-1.8,7c-0.6,2.6-1.7,3.3-4.3,2.4c-1.5-0.5-3-1.3-4.4-2.2
					c-0.6-0.4-1.1-1.7-0.8-2.2c1-2.3,2.1-4.6,3.7-6.5c1.4-1.7,3.6-2.1,5.8-1.8C210.6,328.5,211.2,329.2,211.2,330.7z"/>
				<path d="M476.6,387.8c-1.8,0-2.7-0.7-3.1-2.5c-0.2-0.8-0.6-1.7-0.8-2.5c-0.6-1.9,0.1-3.5,2-4.3c1.6-0.7,2.9-1.6,3.9-3.1
					c1.2-1.9,2.9-2.5,4.1-1.6c1.8,1.2,2.5,4.1,1.4,5.8c-0.3,0.5-0.9,0.9-1.2,1.4c-0.7,1.1-1.6,2.3-2,3.5
					C480.1,386.5,478.6,387.8,476.6,387.8z"/>
				<path d="M422.3,287c-1.8,0-2.7-0.7-3.1-2.5c-0.2-0.7-0.5-1.5-0.7-2.2c-0.7-2.2,0-3.8,2.1-4.6c1.6-0.6,2.8-1.6,3.7-3
					c1.2-1.9,2.8-2.5,4.1-1.6c1.6,1.1,2.4,4,1.5,5.6c-0.3,0.5-0.8,1-1.2,1.4c-1.1,1-1.8,2.2-2.1,3.7
					C426.1,285.8,424.5,287,422.3,287z"/>
				<path d="M259.8,205.7c0.3,0.2,0.8,0.6,1.3,0.9c0.6,0.3,1.4,0.6,2,0.5c2.6-0.6,7.2,1.3,8.4,3.7c0.5,1,0.4,1.9-0.4,2.7
					c-0.8,0.8-1.6,0.8-2.5,0.2c-1.4-1.1-3-1-4.7-0.6c-1.9,0.5-3.9,0.9-5.9,0.9c-1.1,0-2.5-0.7-3.4-1.5c-0.6-0.6-0.7-2-0.5-2.9
					C254.6,207.6,257.6,205.7,259.8,205.7z"/>
				<path d="M331.3,203.7c1.5,0.1,2.5,1.4,3.4,2.8c1.4,2.1,1.3,2.7-0.1,4.8c-0.3,0.4-0.2,1.1-0.1,1.5c0.7,2.7-0.9,7-3.3,8.5
					c-1,0.6-1.9,0.6-2.8-0.2c-0.8-0.8-1-1.6-0.3-2.6c1.1-1.5,1-3,0.6-4.7c-0.5-2-0.9-4-1-6.1C327.6,205.4,329.2,203.7,331.3,203.7z"
					/>
				<path d="M214.2,199.2c-0.7-0.1-1.7-0.2-2.6-0.6c-0.5-0.2-1.2-0.9-1.2-1.4c-0.1-1.4-0.9-1.9-2.1-2.2c-2.3-0.7-4.7-5.2-4.3-7.6
					c0.2-1.1,0.8-1.6,1.9-1.8c1.1-0.2,1.7,0.3,2,1.3c0.6,1.7,1.9,2.6,3.5,3.2c1.3,0.4,2.6,0.9,3.9,1.6c1,0.5,2,1.2,2.7,2
					c1.9,2.3,0.9,4.9-2,5.4C215.4,199,214.9,199.1,214.2,199.2z"/>
				<path d="M431,233.7c-1-0.1-1.6-0.1-2.2-0.2c-1.5-0.3-2.7-1.1-3.1-2.6c-0.4-1.4,0.5-2.5,1.5-3.3c0.8-0.6,1.7-1.1,2.6-1.6
					c1.1-0.6,2.1-0.4,3.1,0.6c0.4,0.4,1.3,0.6,1.8,0.4c2.7-0.7,7.1,1.1,8.4,3.6c0.5,1,0.4,1.9-0.4,2.7c-0.8,0.8-1.5,0.7-2.3,0.1
					c-1.4-1.1-3-1.1-4.7-0.7C434,233.1,432.3,233.4,431,233.7z"/>
				<path d="M393.2,155.8c-0.1,1.7-1.7,2.7-2.9,1.9c-1.6-1.2-3.3-1.1-5.1-0.6c-1.6,0.4-3.3,0.8-5,0.9c-1,0.1-2.2-0.2-3.1-0.7
					c-1.9-1-2.2-2.9-0.8-4.5c0.8-0.9,1.9-1.6,2.9-2.2c1.3-0.7,2.5-0.8,3.6,0.5c0.3,0.4,1.3,0.5,1.9,0.3c2.6-0.7,7.1,1.3,8.3,3.7
					C393,155.3,393.1,155.7,393.2,155.8z"/>
				<path d="M477.3,394.3c-0.1,0.2-0.2,0.7-0.5,0.9c-1.1,0.8-1,1.8-0.6,3c0.7,2.2-1.6,7.1-3.7,7.8c-0.7,0.2-1.8-0.2-2.5-0.6
					c-0.9-0.5-0.7-1.4-0.1-2.2c1.1-1.5,1-3,0.6-4.7c-0.5-2-0.9-4.1-1-6.2c0-1,0.7-2.3,1.4-3.1c0.4-0.5,1.6-0.8,2.4-0.7
					C475,388.9,477.4,392.2,477.3,394.3z"/>
				<path d="M196.1,229.7c1.2-0.6,2.4-0.8,3.8-0.2c0.7,0.3,1.6,0.1,2.4,0.1c0.9,1.1,1.9,2.1,2.8,3.2c1.2,1.3,0.4,4.7-1.3,5.3
					c-1.2,0.4-2.1,1-2.8,2.2c-0.8,1.4-4.4,0.8-5.4-0.8c-0.4-0.6-0.6-1.4-0.7-2.2c-0.2-1.6-0.4-3.3-0.3-4.9
					C194.7,231.5,195.5,230.6,196.1,229.7z"/>
				<path d="M259.7,235c0,0.1,0,0.3-0.1,0.4c-1.1,1.7-1.8,3.8-3.3,5.1c-2.4,2.2-5.4,0.8-6.2-2.6c-0.4-1.8-0.9-3.6-1.4-5.3
					c-0.3-1.2-0.6-2.4,0.5-3.3c1.1-0.9,2.2-0.3,3.3,0.3c0.6,0.4,1.5,0.8,2.1,0.7C258.4,229.5,259.4,231.7,259.7,235z"/>
				<path d="M321.2,218.2c-0.9,0.4-1.8,0.8-2.6,1.3c-1.7,1.2-2.7,1.3-4.1,0.3c-2.1-1.5-2.6-2.9-2.1-4.8c0.2-0.7-0.2-1.5-0.1-2.2
					c0.1-0.9,0.3-1.9,0.8-2.7c0.6-1.1,1.7-1.9,2.9-1.5c1.2,0.4,2.3,1.1,3.3,1.9c1.2,1,2.3,2.2,3.4,3.3c0.1,0.1,0.2,0.2,0.3,0.3
					c0.9,0.8,1.7,1.8,1.3,3.1C323.8,218.5,322.6,218.6,321.2,218.2z"/>
				<path d="M472.5,359.3c-2,0-3-1.5-1.9-3.3c0.9-1.4,1.2-2.7,1-4.3c-0.2-1.4,0.6-2.3,1.9-2.8c2.6-1,3.6-0.7,5.4,1.2
					c0.3,0.3,0.6,0.6,1,0.7c1.9,0.5,2.7,1.3,2.9,3.1c0.2,1.5-0.5,2.9-2.2,3.5C478,358.2,475.3,358.7,472.5,359.3z"/>
				<path d="M219.9,204.1c0.7,0.4,1.6,0.7,2.1,1.2c0.8,0.7,1.2,1.5,2.6,1.5c1.6-0.1,2.7,3.9,1.4,5.2c-0.8,0.8-1.9,1.4-3,1.8
					c-1.7,0.6-3.5,0.8-5.2,1.3c-1.3,0.4-2.6,0.6-3.6-0.6c-0.9-1.2-0.1-2.3,0.5-3.4c0.3-0.6,0.8-1.5,0.6-2.1
					C214.8,205.3,217.2,204.5,219.9,204.1z"/>
				<path d="M446.3,303.2c0.1-3.4,2.6-5,5.5-3.8c1.9,0.7,3.7,1.4,5.6,2.1c1.1,0.4,2.1,1,2.2,2.3c0,1.3-0.9,1.9-2,2.3
					c-1.2,0.4-1.9,1-2.4,2.2c-0.6,1.4-1.7,2.2-3.3,1.9c-2.5-0.5-3.6-1.6-3.8-3.3c-0.1-0.9,0-1.8-1.2-2.3
					C446.5,304.3,446.4,303.5,446.3,303.2z"/>
				<path d="M235,251.3c0.4,0.8,0.6,1.7,1.1,2.4c1.2,1.7,1.3,2.7,0.3,4.1c-1.5,2-3,2.5-4.8,2c-0.7-0.2-1.6-0.1-2.2,0.1
					c-1.6,0.6-4.4-1.7-4-3.6c0.2-1.2,1.1-2.4,1.9-3.4c1-1.3,2.3-2.3,3.5-3.5c0.3-0.3,0.6-0.8,1-0.9c0.8-0.3,1.8-0.6,2.4-0.4
					c0.6,0.2,0.9,1.3,1.2,2c0.1,0.3,0,0.7,0,1.1C235.2,251.2,235.1,251.3,235,251.3z"/>
				<path d="M227.9,192.4c0.7,0.5,1.6,0.9,2.2,1.5c0.7,0.7,1.1,1.5,2.4,1.5c1.7,0.1,2.4,4.1,0.9,5.4c-0.9,0.8-2.1,1.2-3.3,1.5
					c-1.5,0.4-3,0.6-4.5,0.9c-0.6,0.1-1.2,0.3-1.8,0.3c-2,0-3-1.7-1.9-3.2c1.1-1.5,1.4-2.9,1.4-4.7
					C223.3,193.7,225.1,192.7,227.9,192.4z"/>
				<path d="M465.5,345.5c0.2,1.2,0.5,2.5,0.7,3.7c0.2,1.2-1.2,2.6-2.5,2.1c-2.9-1.1-5.8-2.3-8.7-3.6c-1.3-0.6-1.6-1.9-1.2-3.3
					c0.6-2.1,1.7-3.4,3.3-3.4c1.8,0,3.6,0.1,5.4,0.4c1.9,0.3,3.3,2.2,3.3,4C465.8,345.4,465.6,345.5,465.5,345.5z"/>
				<path d="M365.5,197c-1.5,0-3-1.4-3.5-3.2c-0.5-1.9-1.1-3.8-1.4-5.8c-0.2-1,0-2.4,0.6-3.1c0.8-1,2-0.2,3.1,0.3
					c0.9,0.4,1.9,0.7,2.8,0.6c2-0.1,3.1,0.3,3.7,1.8c0.9,2.6,0.9,4-0.7,5.2c-0.5,0.4-0.8,1.3-1,2C368.9,195.8,367,197,365.5,197z"/>
				<path d="M391.1,237.7c-0.2,0.3-0.7,1.1-1.3,1.7c-0.6,0.6-1.2,1-1.2,2.2c0,0.6-1.1,1.4-1.8,1.8c-1.1,0.6-2.4,0.7-3.3-0.3
					c-0.8-0.8-1.3-1.9-1.7-3c-0.6-1.5-0.9-3.2-1.3-4.7c-0.1-0.5-0.4-1.1-0.4-1.6c-0.1-2,1.4-3.1,3.1-2.1c1.4,0.9,2.8,1.2,4.5,1
					C389.8,232.5,391,234.3,391.1,237.7z"/>
				<path d="M389.2,163.2c0.4,0.8,0.7,1.7,1.2,2.5c1.1,1.7,1.3,2.7,0.3,3.9c-1.5,2.1-2.9,2.6-4.8,2c-0.7-0.2-1.5,0.2-2.3,0.1
					c-0.9-0.1-1.9-0.3-2.6-0.8c-1.1-0.7-1.8-1.9-1.3-3.2c0.4-1,1.1-2,1.8-2.8c1-1.2,2.3-2.2,3.4-3.3c0.1-0.1,0.2-0.2,0.3-0.3
					c0.8-0.9,1.7-1.8,3.1-1.2C389.7,160.6,389.6,161.9,389.2,163.2z"/>
				<path d="M186.6,136.7c-0.8,0.4-1.7,0.7-2.5,1.2c-1.7,1.2-2.6,1.4-4,0.3c-2-1.5-2.5-2.8-2-4.7c0.2-0.7-0.2-1.5-0.1-2.3
					c0.1-0.9,0.2-1.8,0.6-2.5c0.7-1.1,1.8-1.9,3.1-1.5c1.1,0.4,2.1,1.1,3.1,1.9c1.2,1,2.2,2.1,3.3,3.2c0.1,0.1,0.3,0.2,0.4,0.3
					c0.4,1,1.3,2,1.2,2.9C189.4,137.1,188,137.1,186.6,136.7z"/>
				<path d="M434.8,299.1c-0.2,0.3-0.6,1-1.2,1.6c-0.6,0.7-1.3,1.1-1.2,2.3c0.1,1.6-3.6,2.8-4.9,1.6c-0.9-0.8-1.5-2-1.9-3.2
					c-0.6-1.6-0.9-3.2-1.3-4.9c-0.1-0.5-0.3-1-0.3-1.5c-0.1-1.9,1.4-2.9,3.1-1.9c1.4,0.8,2.7,1.3,4.3,1
					C433.4,293.7,434.7,295.6,434.8,299.1z"/>
				<path d="M406.6,309.1c-0.4,0.1-1.3,0.1-1.8,0.6c-1.4,1.3-2.6,0.5-3.7-0.3c-1.3-0.8-1.9-2.1-1.5-3.5c0.6-2.1,1.3-4.2,2.3-6.2
					c0.3-0.7,1.9-1.1,2.8-1c2.6,0.4,4.1,2.3,5.3,4.5c0.9,1.6,1.2,3,0,4.5C409.2,308.9,408.3,309.6,406.6,309.1z"/>
				<path d="M431,164.6c0.4,0.8,0.7,1.7,1.2,2.5c1.1,1.6,1.2,2.6,0.2,3.9c-1.5,2-2.9,2.5-4.7,1.9c-0.8-0.3-1.5-0.5-2.4,0
					c-0.5,0.3-1.8-0.3-2.6-0.8c-1.1-0.7-1.7-1.9-1.2-3.2c0.4-1,1.1-1.9,1.8-2.8c1-1.1,2.2-2.2,3.3-3.2c0.1-0.1,0.2-0.2,0.3-0.4
					c0.9-0.9,1.8-1.8,3.2-1.2C431.5,161.9,431.4,163.2,431,164.6z"/>
				<path d="M400.7,213.1c-0.4,0.1-1.2,0.1-1.7,0.5c-1.5,1.3-2.8,0.6-4-0.3c-1.3-0.9-1.8-2.5-1.2-4c0.6-1.8,1.2-3.6,2-5.3
					c0.3-0.6,1.3-1.2,2.1-1.3c2.3-0.3,4.9,1.8,6.2,4.4c0.8,1.6,1.4,3,0.1,4.7C403.3,213,402.4,213.5,400.7,213.1z"/>
				<path d="M272.3,189.3c-2-0.2-4.2,0.1-5-2.5c-0.4-1.1-0.4-2,0.3-3c0.5-0.6,0.9-1.4,0.9-2.2c0.1-2.3,2.4-4.1,4.5-3.2
					c1,0.4,1.8,1.4,2.6,2.3c0.7,0.8,1.2,1.8,2,2.5c1.5,1.5,1.5,2.7,0,4.2C276.4,188.6,274.5,189.3,272.3,189.3z"/>
				<path d="M415,212c-1.5,0-2.8-0.3-3.6-1.7c-0.8-1.4-0.2-2.5,0.5-3.7c0.5-0.9,0.6-2,0.6-3.1c0-1.5,0.5-2.6,1.5-3.6
					c1.3-1.3,2.6-1.3,3.7,0.1c0.6,0.7,1,1.4,1.4,2.2c0.7,1.2,1.4,2.3,1.9,3.5c0.3,0.7,0.6,1.9,0.3,2.4
					C419.8,210.2,417.9,211.9,415,212z"/>
				<path d="M251.6,329.2c-0.1-1-0.2-1.9-0.4-2.9c-0.4-1.9,0.2-2.9,2.2-3.4c2.5-0.6,4.5,0.5,6.4,1.9c1.3,1,2.5,2,2,3.9
					c-0.3,1.3-0.8,2.3-2.2,2.7c-0.7,0.2-1.6,0.7-1.8,1.2c-0.7,1.6-1.9,1.6-3.2,1.5c-1.4-0.2-2.6-0.9-3-2.3c-0.2-0.8-0.2-1.7-0.3-2.6
					C251.5,329.2,251.5,329.2,251.6,329.2z"/>
				<path d="M239,266.6c0.3-1.9-0.1-4.1,2.4-5c1.1-0.4,2-0.4,3.1,0.2c0.9,0.5,2,0.8,3,0.8c1.6,0.1,3.3,2.7,2.6,4.5
					c-0.4,1-1.3,1.8-2.1,2.5c-0.9,0.8-1.9,1.5-2.8,2.3c-1.2,1.1-2.1,1.2-3.4,0.3C239.6,270.9,239.2,268.8,239,266.6z"/>
				<path d="M301.1,171c0.2-2-0.1-4,2.3-4.9c1.2-0.4,2.1-0.5,3.2,0.3c0.6,0.5,1.5,0.8,2.2,0.8c2.3,0,4.1,2.5,3.1,4.6
					c-0.4,0.9-1.4,1.7-2.2,2.4c-0.7,0.7-1.6,1.2-2.3,2c-1.3,1.4-2.6,1.5-4,0.3C301.6,175,301.2,173,301.1,171z"/>
				<path d="M444.3,209.2c-1.1-0.1-2.2,0-3.2-0.2c-1.5-0.3-2.7-3.6-1.8-4.9c0.8-1.1,1.3-2.1,1.1-3.5c-0.2-1.6,3.2-3,5-2.2
					c0.5,0.2,1,0.6,1.3,1c1.2,1.5,2.4,3,3.5,4.5c0.8,1.1,0.4,2.1-0.4,3C448.4,208.7,446.4,209.2,444.3,209.2z"/>
				<path d="M354.9,165.8c-0.7,0.2-1.5,0.2-2,0.6c-1.3,1.3-2.5,0.6-3.6-0.1c-1.3-0.8-2-2-1.6-3.4c0.6-2.1,1.3-4.2,2.3-6.2
					c0.3-0.6,1.6-1,2.3-1c2.9,0.2,4.4,2.3,5.7,4.6c1,1.7,1,3.2-0.3,4.6c-0.7,0.7-1.7,1-2.6,1.5C355.1,166.2,355,166,354.9,165.8z"/>
				<path d="M198.2,82c-0.3-2.2,0.5-4,2.2-5.4c1.7-1.4,3.8-0.9,4.6,1.1c0.5,1.4,1.3,2.4,2.6,3.1c1.5,0.8,2.1,2.3,2,3.9
					c0,0.7-0.8,1.7-1.5,2c-0.8,0.4-1.8,0.3-2.7,0.2c-1.3-0.1-2.5-0.4-3.8-0.5c-2.5-0.1-3.2-0.8-3.3-3.2
					C198.2,82.8,198.2,82.4,198.2,82z"/>
				<path d="M420.5,259.8c-0.5,0.1-1.4,0.1-1.9,0.6c-1.4,1.4-2.6,0.5-3.7-0.3c-1.3-0.8-1.8-2.2-1.3-3.7c0.6-1.9,1.2-3.8,2.1-5.6
					c0.3-0.6,1.4-1.1,2.1-1.2c2.3-0.2,4.8,1.8,5.9,4.3c0.6,1.3,1.5,2.5,0.4,4.1C423.2,259.4,422.4,260.3,420.5,259.8z"/>
				<path d="M455.2,237.1c-1.8-0.3-4,0.1-4.9-2.4c-0.4-1.2-0.4-2.1,0.4-3.2c0.5-0.6,1-1.5,0.8-2c-0.4-1.7,0.7-2.3,1.8-3
					c1.2-0.7,2.5-0.7,3.6,0.2c0.4,0.3,0.8,0.8,1.2,1.2c0.9,1.2,1.8,2.4,2.7,3.5c1,1.1,0.8,2.2,0,3.2
					C459.5,236.5,457.5,237,455.2,237.1z"/>
				<path d="M179,76.5c-1.1-0.7-2.4-1.1-3.2-2.1c-0.9-1.1-0.2-2.3,0.4-3.6c0.5-0.9,0.6-2.1,0.6-3.1c0-1.5,0.5-2.7,1.6-3.7
					c1.2-1.1,2.5-1.2,3.5,0.2c1.4,2.1,2.6,4.4,3.8,6.7c0.2,0.4,0,1-0.2,1.5c-0.9,1.7-4.4,3.8-6.3,3.7
					C179.2,76.2,179.1,76.4,179,76.5z"/>
				<path d="M370.6,268.7c0-2-0.1-4.2,2.4-4.8c0.8-0.2,1.9-0.1,2.7,0.3c1,0.5,1.9,1.1,3.2,0.8c1.5-0.3,3.1,2.6,2.5,4.5
					c-0.2,0.5-0.5,1.1-0.9,1.4c-1.6,1.3-3.1,2.7-4.8,3.8c-0.6,0.4-1.8,0.1-2.5-0.3C371.5,273.6,370.6,271.3,370.6,268.7z"/>
				<path d="M437.4,165.2c0.2-1,0.7-1.3,1.6-0.8c0.2,0.1,0.6,0.2,0.9,0.1c1.8-0.7,3.2-0.2,4.3,1.3c0.5,1.1,1.1,2.2,1.5,3.4
					c0.7,2.3,0.1,3.6-2,4.7c-0.3,0.1-0.6,0.3-0.8,0.4c-1.4,0.5-2.6,1.2-4-0.2c-0.7-0.8-2-1-3-1.5c-1.5-0.9-1.7-1.7-0.8-3.2
					c0.4-0.7,0.8-1.4,1.2-2.1c0.3-0.2,0.6-0.4,0.9-0.6c0-0.2,0-0.4,0-0.7c0,0,0.1-0.1,0.1-0.1C437.3,165.6,437.4,165.4,437.4,165.2z
					"/>
				<path d="M153.5,47.6c0.9-2.3,1.8-4.6,2.7-7c0-0.1,0.1-0.2,0.2-0.3c1.1-1.4,3-1.5,5.4-0.5c2.5,1.2,3.2,2.5,3,4.3
					c-0.2,1.6-1.6,2.3-3,2.8c-1.3,0.4-2.3,1-2.8,2.4c-0.5,1.3-1.3,2.3-2.8,2.1c-1.2-0.2-2.1-1.6-2.2-3.2c0-0.2,0-0.4,0-0.6
					C153.8,47.7,153.6,47.7,153.5,47.6z"/>
				<path d="M331.2,201.8c-0.4-0.1-1-0.2-1.5-0.5c-1.9-1.1-2.9-5.3-1.7-7.2c1.1-1.8,2.5-2.3,4.3-1.2c1.8,1.1,3.5,1.8,5.8,1.4
					c1.9-0.4,3,1.5,2.1,3.3c-0.3,0.6-0.7,1.2-1.2,1.5C336.7,200.7,334.1,201.5,331.2,201.8z"/>
				<path d="M166.8,262.5c-0.1-1.4,0.6-2.5,1.7-3.3c1.2-0.8,2.4-0.5,3.5,0.2c1.6,1.1,3.2,1.7,5.2,1.3c0.7-0.1,1.9,0.4,2.2,0.9
					c0.4,0.7,0.2,1.8-0.1,2.6c-0.2,0.6-0.9,1.3-1.6,1.6c-1.9,0.8-3.8,1.6-5.8,2.1c-2.5,0.6-3.9-0.4-4.6-2.9
					C167.1,264.1,167,263.3,166.8,262.5z"/>
				<path d="M204.9,52.4c1.9,0.1,3.3,0.9,4.2,2.4c1,1.7,1.8,3.5,1.3,5.6c-0.3,1.5-1.3,2.3-2.8,2.1c-2.4-0.4-4.7-0.9-7.1-1.5
					c-0.4-0.1-0.9-0.9-0.9-1.4c-0.1-2.6,1.4-4.6,3-6.4C203.1,52.7,204.1,52.7,204.9,52.4z"/>
				<path d="M446.3,181.8c0,0.3,0,0.6,0,0.9c0.3,3.1-2.4,5.5-5.5,4.7c-2.2-0.6-3.9-1.9-5-3.9c-0.8-1.5-0.5-2.8,1-3.6
					c2.2-1.1,4.5-2,6.8-2.8c0.4-0.1,1.4,0.3,1.6,0.8c0.6,1.2,0.9,2.5,1.4,3.7C446.5,181.7,446.4,181.7,446.3,181.8z"/>
				<path d="M220.5,233.8c-3.3,0.1-4.6-1.1-4.5-3.6c0-1.3,0.3-2.6,0.6-3.8c0.5-1.7,1.5-2.5,3.3-2.4c1.3,0.1,2.5,0.5,3.8,0.8
					c0.2,0.1,0.5,0.2,0.6,0.4c0.8,1.6,1.6,3.1,2.3,4.7c0.6,1.5,0.1,2.4-1.4,2.8C223.3,233.2,221.5,233.6,220.5,233.8z"/>
				<path d="M395.9,218.3c-0.2,0.6-0.2,1-0.4,1.3c-0.7,1.7-4.9,3.9-6.7,3.5c-0.6-0.1-1.3-0.5-1.7-1c-0.6-0.7-1-1.6-1.5-2.5
					c-0.5-1.2-1-2.2,0.2-3.5c0.8-0.9,1.1-2.3,1.8-3.4c0.8-1.3,1.7-1.5,2.9-0.5c1.4,1.2,2.8,2.3,4,3.6
					C395.2,216.7,395.5,217.7,395.9,218.3z"/>
				<path d="M337.9,183.4c-3.4-0.1-5.5-2.8-4.6-6c0.6-1.9,1.8-3.5,3.5-4.6c1.4-0.9,2.8-0.7,3.6,0.8c1.1,2.2,2.1,4.5,2.9,6.8
					c0.2,0.4-0.5,1.5-1,1.8C340.9,182.7,339.3,183,337.9,183.4z"/>
				<path d="M465.2,328.6c3.7,0.3,6.8,5.3,5.3,8.6c-0.5,1.1-1.5,1.5-2.5,1.3c-2.4-0.4-4.7-0.9-7-1.6c-0.5-0.1-1.1-1.3-0.9-1.8
					c0.8-2,1.7-3.9,2.8-5.7C463.2,329,464.4,328.9,465.2,328.6z"/>
				<path d="M193.8,69.7c0-0.1,0-0.1,0-0.2c0.5-6.5,2.8-6.4,7.6-5c0.2,0.1,0.5,0.2,0.6,0.4c0.8,1.5,1.5,3,2.2,4.5
					c0.7,1.5,0.3,2.4-1.3,2.8c-1.7,0.5-3.4,0.9-5.1,1.1C195.1,73.7,193.8,72.5,193.8,69.7z"/>
				<path d="M172.9,255.2c-3.4-0.1-5.6-2.8-4.6-6c0.6-1.9,1.8-3.5,3.5-4.5c1.4-0.9,2.8-0.6,3.6,0.8c1.1,2.1,2,4.4,2.8,6.7
					c0.2,0.4-0.4,1.5-0.8,1.7C176,254.4,174.4,254.7,172.9,255.2z"/>
				<path d="M402.5,286.2c-2.1-0.2-4.2-3-3.6-5.4c0.5-2.2,1.7-4,3.7-5.1c1.5-0.9,2.8-0.7,3.6,0.9c1.1,2.1,2,4.3,2.8,6.5
					c0.2,0.5-0.5,1.6-1.1,1.8C406.1,285.5,404.3,285.8,402.5,286.2z"/>
				<path d="M461.1,330.3c-0.2,2.2-1.7,3.1-3.2,3.8c-1.5,0.7-3.3,1.9-4.7,0.4c-1.2-1.2-1.7-3.1-2.6-4.7c0-0.1-0.1-0.2,0-0.3
					c1-1.7,1.9-3.5,3-5.1c0.3-0.4,1.5-0.6,1.9-0.4c1.8,1.6,3.5,3.3,5.2,5C461,329.3,461,329.9,461.1,330.3z"/>
				<path d="M352.1,184.2c-0.9-0.7-1.9-1-2.3-1.7c-0.7-1.1-1.2-2.5-1.7-3.8c-0.1-0.2-0.1-0.5,0-0.7c0.7-1.4,1.5-2.8,2.3-4.2
					c1-1.6,1.8-1.8,3.2-0.6c1.4,1.2,2.8,2.4,4,3.8c1.4,1.7,1.2,3.4-0.6,4.6C355.6,182.7,353.9,183.3,352.1,184.2z"/>
				<path d="M189.1,125.3c-0.9-0.6-1.8-0.9-2.2-1.6c-0.8-1.2-1.3-2.6-1.9-3.9c-0.1-0.2-0.1-0.4,0-0.6c0.9-1.6,1.7-3.1,2.6-4.7
					c0.5-0.9,1.4-1.4,2.3-0.6c1.6,1.4,3.3,2.8,4.7,4.4c1.4,1.6,1,3.3-0.8,4.5C192.5,123.8,190.8,124.4,189.1,125.3z"/>
				<path d="M409,270.2c-0.8-0.6-1.8-0.9-2.3-1.6c-0.7-1.1-1.2-2.5-1.7-3.8c-0.1-0.2-0.1-0.4,0-0.6c0.8-1.6,1.7-3.2,2.6-4.7
					c0.6-1,1.6-1.2,2.5-0.5c1.4,1.2,2.8,2.3,4,3.6c1.9,2,1.6,3.9-0.7,5.4C412.1,268.9,410.6,269.5,409,270.2z"/>
				<path d="M240.6,226.2c0,2.4-3.3,4.2-5.4,3.3c-0.5-0.2-1.1-0.4-1.3-0.8c-0.7-1.2-1.7-1.6-2.9-2.1c-0.6-0.2-1.1-1.3-1.1-2
					c0-2.5,0.9-4.6,3.2-5.8c0.5-0.3,1.8,0.1,2.1,0.6c1.3,1.8,2.3,3.8,4.3,5.1C240.2,225,240.4,225.9,240.6,226.2z"/>
				<path d="M261.2,218.2c0.6,0.2,1.3,0.3,1.9,0.5c2.1,2.3,2.1,5.2-0.6,6.8c-0.4,0.3-0.5,1.1-0.9,1.5c-0.5,0.6-1.2,1.6-1.8,1.6
					c-2.2,0.2-4.1-0.5-5.6-2.3c-0.8-1-0.7-2,0.1-2.8c0.9-0.9,2.1-1.6,3.1-2.4c0.5-0.4,0.9-1,1.4-1.4
					C259.7,219.3,260.5,218.8,261.2,218.2z"/>
				<path d="M139.4,54.8c-0.6-0.2-1.4-0.4-2.2-0.8c-1.4-0.7-2.7-1.6-2.8-3.2c0-1.5,1.5-2.1,2.6-2.8c1.1-0.8,2.2-1.6,3.2-2.6
					c1.5-1.6,3.4-1.4,4.5,0.5c1.4,2.4,0.9,4.4-1.4,5.8c-0.4,0.3-0.9,0.8-1,1.3C142.1,54.5,140.8,54.6,139.4,54.8z"/>
				<path d="M371.3,218.6c0.7-1.3,1.2-2.8,2.1-4c1.1-1.5,2.5-1.4,3.8,0c0.6,0.7,1,1.4,1.6,2.1c0.7,0.8,1.4,1.5,2.2,2.2
					c1.9,1.5,1.9,3.3-0.1,4.6c-2.3,1.5-4,1.2-5.6-0.9c-0.3-0.4-0.9-0.8-1.4-1c-1.5-0.4-2.2-1.3-2-2.8
					C371.5,218.7,371.4,218.6,371.3,218.6z"/>
				<path d="M432.7,184.7c-0.1,0.4-0.2,1-0.5,1.4c-1.1,1.4-2.6,2.3-3.1,4.2c-0.1,0.3-0.9,0.6-1.3,0.6c-2.2,0.1-4.1-0.6-5.4-2.3
					c-0.9-1.1-0.6-2.2,0.4-3c0.9-0.7,1.8-1.3,2.7-2c0.5-0.4,1.1-0.8,1.5-1.3c0.7-1.1,1.5-2,2.9-1.8c1.5,0.2,2,1.6,2.6,2.8
					C432.6,183.7,432.6,184.1,432.7,184.7z"/>
				<path d="M220.1,65.6c-1,0.1-2,0.1-2.9,0.4c-2.1,0.6-3.3,0.4-3.9-0.8c-0.8-1.7-0.1-4.3,1.6-5.2c0.5-0.3,1.1-0.5,1.6-0.5
					c1.1,0,1.9-0.3,2.8-1c0.5-0.4,1.5-0.4,2.1-0.1c1.9,0.9,2.9,2.6,3.2,4.6c0.2,1.4-0.5,2.3-2,2.6c-0.8,0.1-1.6,0.1-2.5,0.1
					C220.1,65.7,220.1,65.7,220.1,65.6z"/>
				<path d="M255.6,274.8c0.1-0.5,0.1-1.1,0.4-1.5c0.5-0.9,0.5-1.6,0.2-2.6c-0.2-0.6,0.4-1.8,1-2.3c1.6-1.3,3.6-1.5,5.6-0.7
					c1.1,0.4,1.6,1.3,1.2,2.5c-0.4,1.1-0.9,2.2-1.3,3.3c-0.3,0.7-0.6,1.4-0.6,2.2c-0.3,2.9-2.2,3.9-4.5,2.2
					c-0.9-0.7-1.5-1.8-2.2-2.8C255.4,275,255.5,274.9,255.6,274.8z"/>
				<path d="M241.2,183.7c3.6,0,4.5,1.5,3.3,4.4c-0.6,1.6-1.1,3.3-1.6,4.9c-0.4,1.7-1.7,2.5-3.4,1.8c-2.7-1.1-3.7-3.4-2.3-5.7
					c0.2-0.4,0.3-0.9,0.2-1.3c-0.5-1.9-0.1-2.9,1.7-3.6C239.9,184,240.8,183.8,241.2,183.7z"/>
				<path d="M342.3,210.5c0.3-0.8,0.6-2.2,1.3-3.3c1-1.6,3-1.7,4.2-0.3c0.5,0.6,1,1.2,1.4,1.8c1.2,1.7,1.1,2.2-0.3,3.7
					c-0.8,0.8-0.9,1.5-0.2,2.3c1,1.2,0.6,2.2-0.4,3.1c-1.3,1-2.5,1-3.6,0C342.6,215.9,342.7,213.3,342.3,210.5z"/>
				<path d="M426.5,323.9c-0.4,0.5-1.1,1.4-1.8,2.4c-0.4,0.5-0.9,1-1.1,1.6c-0.4,1.3-1.2,1.9-2.5,1.8c-0.8-0.1-1.5-0.2-2.3-0.5
					c-1.4-0.5-2.7-1.3-3-2.9c-0.2-1.6,1.3-2.2,2.3-3c1.1-0.9,2.1-2,3.2-2.8c0.8-0.6,1.9-1.1,2.8-1
					C425.4,319.6,426.5,321.7,426.5,323.9z"/>
				<path d="M370.7,184.5c-1.3-0.7-2.8-1.2-4-2.1c-1.5-1.1-1.4-2.4,0-3.6c0.7-0.6,1.5-1,2.2-1.6c0.8-0.7,1.5-1.3,2.2-2.1
					c1.3-1.7,3.1-1.7,4.3,0.1c1.5,2.2,1.2,4-0.9,5.6c-0.5,0.4-0.9,1-1.1,1.5C372.9,183.8,372.5,184.1,370.7,184.5z"/>
				<path d="M259.2,303.4c2.3,0.1,3,1.4,3.8,2.5c1.4,1.9,1.3,2.4-0.3,4c-0.7,0.7-0.7,1.4-0.1,2.2c0.9,1.4,0.8,2.2-0.5,3.1
					c-1.3,0.9-2.4,0.9-3.5-0.1c-2.1-2.1-3-7.2-1.5-9.8C257.6,304.5,258.7,303.9,259.2,303.4z"/>
				<path d="M421.8,159.7c-0.4,1-0.6,1.7-0.8,2.4c-0.5,1.6-1.1,3.3-1.5,4.9c-0.5,1.8-1.9,2.5-3.5,1.8c-2.6-1.1-3.2-3-2.1-5.6
					c0.2-0.4,0.3-1.1,0.1-1.4c-0.7-1.3-0.1-2.2,0.9-2.9c1.7-1.2,3.6-1.3,5.4-0.6C420.9,158.5,421.3,159.2,421.8,159.7z"/>
				<path d="M315.1,168.8c0.2-2.3,0.8-3.9,2.2-5.1c1-0.8,2-0.8,2.9,0.1c0.7,0.8,1.3,1.7,2,2.6c0.5,0.6,0.9,1.3,1.5,1.7
					c1.8,1.4,2.4,2.6,1.5,3.8c-1.1,1.7-3.7,2.3-5.3,1.3c-0.2-0.1-0.4-0.2-0.5-0.4c-0.8-1-1.7-1.9-3.1-2.3
					C315.7,170.4,315.3,169.2,315.1,168.8z"/>
				<path d="M260,200.2c-0.8-0.3-2.3-0.5-3.3-1.3c-0.7-0.5-1.2-1.8-1.2-2.7c0-1.4,3.3-3.8,4.7-3.6c0.5,0.1,1,0.5,1.3,0.9
					c0.8,1,1.6,1.2,2.6,0.4c1.2-1,2.1-0.5,2.9,0.5c1,1.3,0.9,2.4,0,3.5C265.4,199.9,262.9,199.8,260,200.2z"/>
				<path d="M198.9,271.4c-1.2,0.3-2.4,0.5-3.6,0.8c-2,0.6-3.4-0.4-3.4-2.5c0-2.5,1.3-3.9,3.9-4.1c0.6,0,1.4-0.4,1.9-0.8
					c1-0.8,2.1-1,2.9-0.1c1,1.1,2,2.4,2.6,3.7c0.7,1.8-0.1,2.8-2,3.1c-0.7,0.1-1.4,0-2.2,0C199,271.5,199,271.4,198.9,271.4z"/>
				<path d="M191.2,146.8c-0.1,0.2-0.1,0.8-0.3,1.2c-1,1.5-2.8,2.5-3.2,4.5c-0.1,0.3-0.9,0.5-1.4,0.5c-1.9,0.1-3.6-0.5-4.9-1.9
					c-1.1-1.2-1.1-2.2,0.2-3.3c0.8-0.7,1.8-1.2,2.6-1.9c0.5-0.4,1.1-0.8,1.5-1.3c0.8-1.2,1.7-2.1,3.2-1.8
					C190,143.1,191.2,145.1,191.2,146.8z"/>
				<path d="M204.2,205.2c-2.5,0-2.8-0.1-3.4-2.6c-0.2-0.9-0.8-1.2-1.7-1.2c-1.8-0.1-2.3-0.7-2.3-2.4c0-1.6,0.8-2.5,2.4-2.6
					c3.4-0.3,6,1.4,8.1,3.8c0.9,1,1.2,2.3,0.5,3.6c-0.6,1.2-1.8,1.5-3,1.5C204.7,205.2,204.5,205.2,204.2,205.2z"/>
				<path d="M179.2,271.5c-0.2-0.3-0.6-0.8-0.9-1.4c-0.7-1.4-1.3-3.2,0-4.3c0.7-0.7,2.3-0.4,3.6-0.4c1.4,0,2.8,0.2,4.3,0.1
					c2.1-0.1,3.2,1,2.8,3.1c-0.5,2.6-2.1,3.7-4.7,3.3c-0.6-0.1-1.3,0.1-1.8,0.4C181.1,272.9,180.4,272.8,179.2,271.5z"/>
				<path d="M398.2,271.1c-0.7-0.2-1.2-0.2-1.6-0.5c-1.5-1-2.6-2.7-4.5-3.2c-0.3-0.1-0.7-1.2-0.6-1.6c0.4-1.5,0.9-3.1,1.7-4.4
					c1-1.5,2.3-1.4,3.5-0.1c0.6,0.6,1,1.3,1.5,2c0.8,0.9,1.6,1.7,2.5,2.5c1.5,1.2,1.6,2.8,0.1,4
					C399.9,270.4,398.9,270.7,398.2,271.1z"/>
				<path d="M431.8,220.1c-0.8-0.3-2.2-0.5-3.2-1.2c-0.7-0.4-1.2-1.5-1.3-2.4c-0.2-1.5,3.3-4.3,4.8-4c0.5,0.1,1,0.5,1.3,1
					c0.7,0.9,1.5,1.2,2.5,0.4c1.1-0.9,2.1-0.6,2.9,0.5c1,1.2,0.9,2.4,0,3.5C437.1,219.8,434.7,219.7,431.8,220.1z"/>
				<path d="M457.8,358.8c0.4-1,0.7-2.4,1.4-3.5c1-1.5,2.9-1.6,4.1-0.2c0.6,0.6,1.1,1.4,1.6,2.1c0.8,1.2,0.9,2.3-0.4,3.2
					c-0.9,0.7-0.9,1.4-0.3,2.4c0.9,1.4,0.7,2.2-0.5,3.1c-1.2,0.9-2.3,0.7-3.5-0.3C458.1,363.8,458.4,361.4,457.8,358.8z"/>
				<path d="M483.9,410.6c0.3-0.8,0.4-2.1,1.1-3.1c0.5-0.7,1.6-1.3,2.5-1.4c1.4-0.2,4.3,3.3,4,4.7c-0.1,0.5-0.6,1-1,1.3
					c-0.9,0.8-1.1,1.6-0.3,2.5c0.9,1.2,0.6,2.1-0.4,2.9c-1.2,1-2.3,0.9-3.4-0.1C484.1,415.8,484.3,413.3,483.9,410.6z"/>
				<path d="M458.4,218.1c-0.9-0.3-2.2-0.5-3.3-1.2c-1.7-1-1.8-3-0.3-4.3c0.7-0.6,1.6-1.2,2.4-1.7c1-0.6,1.9-0.6,2.7,0.5
					c0.7,1,1.6,1.4,2.6,0.5c1.2-1,2.2-0.5,3,0.6c0.9,1.2,0.7,2.4-0.3,3.5C463.4,217.9,461,217.6,458.4,218.1z"/>
				<path d="M247.6,171.9c0,2-2.1,3.5-3.7,3.3c-0.8-0.1-1.8,0.1-2.6,0.3c-0.5,0.1-1,0.7-1.4,0.6c-0.7-0.1-1.6-0.4-2.1-0.9
					c-0.2-0.2,0.2-1.2,0.5-1.7c0.8-1.2,1.8-2.4,2.7-3.5c1.4-1.8,2.3-1.8,3.9-0.3c0.4,0.4,1,0.7,1.5,1.1
					C246.9,171.1,247.3,171.7,247.6,171.9z"/>
				<path d="M199.7,173c0.2,0.1,0.7,0.5,1.3,0.8c0.8,0.4,1.7,0.8,2.5,1.2c0.7,0.3,1.6,0.4,2.2,0.9c0.9,0.9,0.6,2-0.6,2.4
					c-1.7,0.6-3.3,1.1-5,1.6c-1.7,0.5-2.5,0-2.9-1.7c-0.2-0.6-0.3-1.2-0.5-1.8c-0.9-1.7-0.3-3,1.6-3.2
					C198.5,173.1,198.9,173.1,199.7,173z"/>
				<path d="M406.4,164.3c0,1.9-2.2,3.5-3.6,3.3c-0.9-0.1-1.9,0.2-2.9,0.4c-0.6,0.1-1.2,0.6-1.7,0.5c-0.6-0.1-1.3-0.5-1.6-0.9
					c-0.2-0.3,0.1-1.2,0.5-1.6c0.8-1.2,1.8-2.4,2.7-3.5c1.4-1.8,2.4-1.9,4-0.3c0.4,0.4,1,0.7,1.5,1
					C405.8,163.6,406.2,164.1,406.4,164.3z"/>
				<path d="M196.4,329.3c-0.1,1.9-2.1,3.4-3.6,3.2c-0.9-0.1-1.9,0.2-2.9,0.4c-0.5,0.1-1,0.6-1.4,0.5c-0.7-0.1-1.5-0.3-1.8-0.8
					c-0.2-0.3,0.1-1.2,0.4-1.7c0.9-1.3,2-2.6,3-3.9c1.2-1.5,2-1.5,3.5-0.2c0.6,0.5,1.3,0.8,1.9,1.3
					C195.9,328.5,196.2,329.1,196.4,329.3z"/>
				<path d="M425,246c-1.9,0-3.4-2.1-3.3-3.5c0.1-0.9-0.2-1.9-0.4-2.9c-0.1-0.6-0.6-1.2-0.5-1.7c0-0.5,0.4-1.3,0.8-1.5
					c0.4-0.2,1.2,0,1.6,0.3c1.4,0.9,2.6,1.9,3.9,2.9c1.5,1.2,1.5,2.1,0.3,3.5c-0.5,0.6-0.8,1.3-1.3,1.9
					C425.8,245.4,425.3,245.8,425,246z"/>
				<path d="M215.3,183.1c-2.1,0-2.7-0.5-2.9-2.2c-0.1-1.3-0.8-1.7-1.9-1.8c-0.7-0.1-1.5,0-1.5-1.1c0.1-1.3,0.2-2.7,1.7-3.2
					c0.9-0.3,2-0.3,2.4,0.8c0.5,1.5,1.5,2.1,2.8,2.6c0,0,0.1,0.1,0.1,0.1c1.6,0.7,2.6,2.2,2.2,3.3
					C217.8,183.2,216.3,182.9,215.3,183.1z"/>
				<path d="M193.5,349.1c-1.6,0-2.4-1.7-1.8-3.1c0.4-0.9,0.4-1.9,0.5-2.9c0-0.1-0.1-0.3-0.1-0.4c-0.4-2,0.3-3.9,1.5-4.1
					c1.1-0.2,3.2,1.4,3.5,3c0.1,0.7-0.4,1.7-0.9,2.2c-0.7,0.8-0.9,1.4-0.5,2.3C196.5,347.8,195.5,349.1,193.5,349.1z"/>
				<path d="M215.7,226.6c-3.1-0.5-3.9-0.2-4.3-4.5c-0.2-2.5,0.8-3.6,3.3-3.4c1.2,0.1,1.8,0.7,2.1,1.9c0.2,1,0.5,2.1,0.9,3
					C218.5,225.4,217.8,226.6,215.7,226.6z"/>
				<path d="M210.9,96.4c-0.5,0.8-0.8,1.9-1.4,2.2c-0.7,0.3-1.9,0.1-2.7-0.2c-1.8-0.9-3.4-4.9-2.9-6.9c0.1-0.5,0.6-1.2,1.1-1.3
					c0.5-0.2,1.3,0,1.6,0.4c1.1,1.1,2.2,2.3,3.2,3.5C210.3,94.7,210.5,95.5,210.9,96.4z"/>
				<path d="M414.5,337.3c-2.6,0-4.1-1.4-4.3-3.9c0-0.2,0-0.3,0-0.5c-0.3-2.5,0.5-3.5,3.1-3.4c1.3,0,2,0.6,2.2,2
					c0.1,1,0.5,2,0.9,2.9C417,336.2,416.4,337.3,414.5,337.3z"/>
				<path d="M379.6,202.2c-0.4,0.7-0.6,1.4-1.1,1.9c-0.6,0.7-1.3,1.3-2,1.9c-1,0.8-2.1,0.6-3.2-0.7c-1.3-1.4-1.4-2.3-0.5-3.3
					c0.8-0.9,1.6-1.8,2.3-2.8c0.9-1.3,2.1-1.4,3-0.2C378.8,199.9,379.1,201,379.6,202.2z"/>
				<path d="M249.8,282.7c-0.2,1.3-2.3,3.9-3.7,4.2c-1.6,0.4-2.3-0.7-3.2-1.7c-0.8-1-0.7-1.9,0.3-2.8c0.8-0.7,1.4-1.6,2-2.5
					c1-1.5,2.3-1.7,3.3-0.2C249.2,280.6,249.4,281.7,249.8,282.7z"/>
				<path d="M247.7,193.7c0.6,0.4,1.4,0.8,2,1.3c0.6,0.5,1.1,1.2,1.6,1.8c0.9,1.1,0.6,2.2-0.9,3.4c-1.4,1.2-2.2,1.2-3.3,0
					c-0.7-0.7-1.5-1.4-2.3-1.9c-1.7-1.1-1.8-2.5,0-3.5C245.7,194.3,246.6,194.1,247.7,193.7z"/>
				<path d="M413.1,233.9c0.7,0.5,1.4,0.9,2,1.4c0.4,0.3,0.6,0.9,0.9,1.2c0.8,0.7,1.6,1.5,0.9,2.5c-0.7,0.9-1.7,1.7-2.7,2.3
					c-0.3,0.2-1.2-0.4-1.7-0.7c-0.9-0.6-1.7-1.5-2.6-2.1c-1.4-1-1.6-2.2-0.1-3.2C410.8,234.6,411.9,234.3,413.1,233.9z"/>
				<path d="M399.3,249.1c-0.5,0.7-0.8,1.4-1.3,2c-0.5,0.6-1.2,1.2-1.8,1.6c-0.5,0.3-1.4,0.6-1.7,0.4c-0.9-0.7-1.9-1.6-2.4-2.7
					c-0.2-0.4,0.8-1.4,1.3-2.2c0.5-0.7,1-1.4,1.5-2.1c0.8-1.4,2-1.6,2.9-0.3C398.5,246.7,398.8,247.9,399.3,249.1z"/>
				<path d="M425.7,263.5c0.7,0.4,1.4,0.7,1.9,1.2c0.6,0.6,1.2,1.3,1.7,2c0.8,1,0.5,2.2-0.9,3.3c-1.4,1.1-2.1,1.1-3.1,0.1
					c-0.8-0.8-1.6-1.5-2.6-2.2c-1.5-1-1.6-2.2-0.1-3.1C423.5,264.2,424.6,263.9,425.7,263.5z"/>
				<path d="M332.8,162.6c-0.4,0.7-0.6,1.4-1,1.9c-0.6,0.7-1.3,1.3-2,1.9c-1,0.8-2.1,0.5-3.2-0.8c-1.2-1.4-1.2-2.2-0.3-3.2
					c0.8-0.8,1.5-1.8,2.2-2.7c0.9-1.4,2.2-1.5,3.1-0.1C332.1,160.5,332.4,161.6,332.8,162.6z"/>
				<path d="M282.8,216c-0.6,0.9-1,1.9-1.7,2.2c-1.4,0.7-2.9,1.1-4.4,1.4c-0.4,0.1-1.2-0.5-1.4-0.9c-0.2-0.4,0.1-1.2,0.4-1.6
					c0.8-0.9,1.6-1.8,2.7-2.3c0.9-0.4,2-0.5,3-0.4C281.9,214.4,282.3,215.3,282.8,216z"/>
				<path d="M197.4,185c0.7,0.3,2,0.7,3.2,1.4c0.4,0.2,0.7,1.1,0.6,1.5c-0.1,0.4-0.8,0.8-1.4,1c-0.9,0.2-1.9,0.3-2.9,0.4
					c-0.1,0-0.1,0-0.2,0c-1.5,0.1-3.1-0.9-3.2-2C193.4,186,194.8,185,197.4,185z"/>
				<path d="M192,317.6c0.4,0.3,1.3,0.6,1.6,1.1c0.2,0.6,0.1,1.5-0.3,2.1c-0.8,1.4-3.8,2.5-5.3,2.2c-1.1-0.2-1.7-1.3-0.9-2.1
					c1.1-1.1,2.3-2,3.5-3C190.8,317.8,191.3,317.8,192,317.6z"/>
				<path d="M402,152.8c0.4,0.2,1.3,0.5,1.5,1c0.3,0.6,0.1,1.5-0.3,2.1c-0.8,1.4-3.9,2.6-5.5,2.1c-1-0.3-1.5-1.1-0.9-1.8
					c1.1-1.2,2.5-2.2,3.8-3.2C401,152.8,401.3,152.9,402,152.8z"/>
				<path class="st2" d="M331.6,226.7c-0.4,0.3-0.7,0.6-1.1,0.9c0.1-0.2,0.2-0.4,0.3-0.5l-0.1,0.1
					C331.1,227,331.4,226.9,331.6,226.7L331.6,226.7z"/>
				<path class="st2" d="M359,226.9c0,0-0.1,0.1-0.1,0.1C358.9,227,358.9,226.9,359,226.9C359,226.9,359,226.9,359,226.9z"/>
				<path d="M331.6,226.7c-0.3,0.1-0.6,0.2-0.8,0.3C331.1,227,331.4,226.9,331.6,226.7z"/>
				<path d="M330.8,227c-0.1,0.2-0.2,0.4-0.3,0.5c0,0,0.1,0,0.1,0C330.7,227.4,330.8,227.2,330.8,227z"/>
				<path d="M233.9,228c0,0,0.1-0.1,0-0.1C233.9,227.9,233.9,228,233.9,228z"/>
				<path class="st2" d="M386.6,32.3c-0.1,0.2-0.1,0.4-0.2,0.5C386.5,32.7,386.5,32.5,386.6,32.3z"/>
				<path class="st2" d="M437.1,165.8c0,0.2,0,0.4,0,0.7C437.1,166.3,437.1,166.1,437.1,165.8z"/>
				<path d="M504.1,390.5c-3.7,0.4-7.3,2.1-10,4.7c-1.6,1.5-2.9,3.9-1.7,5.8c1.5,2.6,5.7,1.4,8.1,3.1c2,1.4,2.3,4.3,1.4,6.6
					c-0.9,2.3-2.6,4.1-4.2,5.9s-3,4-3,6.5c0,0.5,0.1,1.1,0.5,1.4c0.3,0.2,0.7,0.3,1,0.3c4.3,0.3,7.7-3.4,10.2-7
					c1.8-2.7,3.5-6.2,1.9-9c-0.3-0.5-0.8-1-1-1.6c-0.6-1.8,1.4-3.4,3.3-3.9c1.8-0.5,4-0.6,5.3-2c1.2-1.3,1.3-3.4,0.5-5.1
					s-2.3-2.8-3.8-3.8c-2.9-1.8-7.2-2.7-9.6-0.2"/>
				<path d="M557.1,388.1c-14.8,2.6-30.5,5.6-41.8,15.5c3.8,3.5,8.4,6.1,13.4,7.6c2,0.6,4.2,1.2,5,3.1c0.9,2.3-1,4.7-3.1,6
					s-4.6,2-6.1,4c-0.4,0.6-0.8,1.3-0.8,2c0,2.5,3.1,3.5,5.6,3.8c6,0.7,11.9,1.4,17.9,2.2c2.2,0.3,4.5,0.5,6.6-0.1
					c1.8-0.6,3.3-1.7,4.7-2.9c2.7-2.1,5.5-4.3,8.2-6.4c3.5-2.7,7.2-5.7,8.8-9.8c2.9-7.2-1.7-15.8-8.5-19.4"/>
				<path d="M515.4,424.4c-1.3,1.5-4.1,0.3-4.7-1.6c-0.6-1.9,0.1-4,0.9-5.9c0.6-1.4,1.3-3,2.7-3.5c1.1-0.4,2.5,0,3.2,1
					s0.6,2.4-0.1,3.3c-0.3,0.4-0.8,0.7-0.9,1.2c-0.2,0.8,0.6,1.5,1.1,2.2c0.8,1.1,0.7,2.8-0.1,3.9c-0.8,1.1-2.4,1.6-3.7,1.2"/>
			</g>
		</g>
	</g>
</g>
<g id="Слой3_xA0_Изображение_1_" class="st4">
</g>
</svg>
