<?xml version="1.0" encoding="utf-8"?>
<!-- Generator: Adobe Illustrator 22.1.0, SVG Export Plug-In . SVG Version: 6.00 Build 0)  -->
<svg version="1.1" id="Слой8_xA0_Изображение_1_"
	 xmlns="http://www.w3.org/2000/svg" xmlns:xlink="http://www.w3.org/1999/xlink" x="0px" y="0px" viewBox="0 0 552 768"
	 style="enable-background:new 0 0 552 768;" xml:space="preserve">
<style type="text/css">
	.st0{fill:#A0A144;}
	.st1{fill:#5E80A5;}
	.st2{fill:#660B00;}
	.st3{fill:#1E0000;}
	.st4{fill:#9C4A3F;}
	.st5{fill:#9FC1E4;}
	.st6{fill:#494913;}
	.st7{fill:#476186;}
	.st8{fill:#76333A;}
	.st9{fill:#FCC626;}
	.st10{fill:#FFFFFF;}
</style>
<g>
	<path d="M357.2,399.6c-2,0.1-3.8,0.3-5.7,0.3c-1,0-1.3,0.4-1.2,1.4c0.8,11.6,1.5,23.1,2.3,34.7c0.6,9.8,1.2,19.6,1.8,29.3
		c1.4,24.3,2.9,48.5,4.2,72.8c0.4,7.3,0.4,14.7,0.6,22.1c0,2-0.8,2.5-2.9,2.2c-3.1-0.5-6.2-0.9-9.3-1.3c-0.3,2.8-0.6,5.4-0.8,8
		c-1.7,16.5-3.5,33.1-5.1,49.6c-2,20.7-3.7,41.5-3.4,62.4c0,3.7,0.4,7.4,0.5,11.2c1.8,0,3.4-0.1,5,0c4.4,0.4,7.4,2.8,8.8,7
		c0.5,1.6,1,3.2,1.3,4.9c0.6,2.5,2,4.4,4.1,5.8c3.1,2,6.1,4.1,9.3,5.9c5.9,3.5,11.2,7.8,16.2,12.6c1.9,1.8,3.2,4,3.8,6.6
		c0.7,2.9,0.1,5.4-2.1,7.5c-3,2.8-6.7,4.3-10.6,5.3c-5.7,1.4-11.4,1.1-17.2,1.1c-5.5,0-10.9-1.1-16.2-2.6
		c-5.2-1.5-10.4-2.8-15.6-4.3c-4.6-1.3-8.6-3.8-12.6-6.6c-3.7-2.7-5.3-6.1-5.4-10.5c-0.1-2.3,0-4.5,1.1-6.6c0.5-1,1.2-2.2,2.1-2.9
		c1.5-1,1.4-2.2,1.1-3.7c-3-13.8-4.4-27.8-5.6-41.8c-1-12.2-2-24.4-3.3-36.6c-1.3-12.9-1.1-25.7,0.5-38.5
		c1.4-11.2,2.2-22.4,3.3-33.7c0-0.4,0-0.9,0-1.5c-1.5,0-2.9,0-4.3,0c-2.7,0-3.5-0.7-3.6-3.3c-0.4-7.6-1-15.3-1.1-22.9
		c-0.2-12-1-24-2.1-35.9c-0.6-6.4-1-12.8-1.3-19.2c-0.6-11.6-1.7-23.1-3.2-34.6c-0.4-3-0.6-6-0.8-9.1c-0.1-1.6-0.6-2.3-2.2-2.7
		c-0.9-0.2-1.9-0.3-2.8-0.5c-0.1,0-0.2,0-0.4,0c-0.1,2-0.4,4-0.4,5.9c0,6.3-0.1,12.6,0.1,18.9c0.3,7.8,1,15.6,1.5,23.3
		c0.5,7.4,1.2,14.8,1.7,22.2c0.5,7.3,0.9,14.5,1.1,21.8c0.3,11.2,0.4,22.4,0.5,33.6c0,2.4-0.6,3.2-2.9,3.6c-2.5,0.4-5,0.6-7.5,0.9
		c-0.4,0-0.9,0.1-1.4,0.1c0.1,1.1,0.2,2.1,0.4,3.2c1.2,10.4,1.4,20.8,1.3,31.3c-0.2,13-1.7,25.8-3.2,38.7
		c-1.1,9.8-1.9,19.7-2.7,29.5c-0.7,8.7-1.4,17.5-1.8,26.2c-0.3,6.6-0.2,13.2-0.3,19.8c0,0.2,0,0.4,0,0.5c0.1,0.1,0.2,0.2,0.2,0.2
		c3.9,0.6,5.1,2.4,5.5,6.7c0.5,4.8-0.6,9.4-2.3,13.9c-0.9,2.3-2.8,3.8-4.9,4.8c-3.8,1.9-8,2.8-12.2,3.5c-11.4,2-22.8,3.3-34.4,3
		c-5.6-0.1-11.2-0.2-16.8-0.5c-3.8-0.2-7.3-1.5-10.3-3.9c-3.8-3-4.9-7-3.7-11.6c1.5-5.7,5.3-9.4,10.4-12.1c5.9-3.2,12.1-5.7,18.8-7
		c3.7-0.7,7.4-2.1,11-3.2c1.8-0.5,3.2-1.7,4.1-3.3c0.9-1.6,1.6-3.3,2.3-5c0.6-1.3,0.9-2.7,1.6-3.9c0.7-1.1,1.6-2.3,2.7-2.9
		c1.1-0.7,1.4-1.3,1.4-2.5c-0.4-16.7-0.4-33.4-1.2-50.1c-0.8-16.8-2.4-33.5-3.8-50.2c-0.7-8.2-1.8-16.3-2.7-24.4
		c-0.1-1.1-0.5-1.4-1.6-1.3c-3.5,0.2-7,0.3-10.5,0.6c-3.5,0.3-4.3-0.2-4.2-3.7c0.4-12.6,0.7-25.1,1.2-37.7c0.4-9.8,1-19.6,1.5-29.4
		c0.6-11,1.1-22,1.6-33c0.4-9.4,0.7-18.7,1-28.1c0.2-6.5,0.3-13,0.5-19.4c0-1.1-0.3-1.4-1.3-1.4c-2.1-0.1-4.2-0.2-6.2-0.4
		c-1.9-0.2-2.4-0.8-2.1-2.7c1-7.1,1.9-14.3,2.9-21.4c0.2-1.2,0-1.9-1.3-2.3c-2.7-0.9-3.9-3-3.5-5.9c0.2-1.4,0.6-2.7,0.9-3.8
		c-2.3-0.5-4.8-0.8-7.1-1.4c-15.5-4.3-30.9-8.6-46.3-13c-2.6-0.7-5-1.8-7.5-2.7c-5.7-2.2-10.4-5.7-14.7-10
		c-3.3-3.3-4.7-7.3-2.9-11.7c2.9-7.2,5.7-14.6,9.1-21.5c6.6-13.3,13.8-26.4,20.6-39.6c1.9-3.7,3.5-7.5,5.1-11.2
		c0.1-0.3,0-0.9-0.2-1.2c-0.8-1.1-1.8-2.2-2.6-3.3c-0.8-1.1-1-2.3-0.4-3.5c1.3-2.7,2.5-5.5,3.9-8.1c3.7-6.6,7.7-13.1,11.3-19.8
		c4.9-8.9,10.8-17.3,16.6-25.7c1.6-2.4,3.3-4.7,5-7.1c0.6-0.9,1.3-1.4,2.4-1.6c6.7-1.4,13.4-2.8,20-4.3c4.6-1,9.3-2.1,13.8-3.4
		c3.3-0.9,6.3-2.7,8.8-5.2c0.5-0.5,1.5-0.4,2.3-0.6c0.1,0.1,0.2,0.2,0.3,0.3c0.7-2.5,1.4-5,2-7.5c1.2-5.4,1.1-10.8,0.6-16.2
		c-0.1-1-0.3-2-0.3-3c0.1-1.8-0.7-2.9-2.1-3.8c-3.3-2.2-5.3-5.6-7.1-9.1c-2.4-4.5-3.8-9.3-5-14.2c-0.2-1-0.7-1.6-1.8-1.9
		c-3.9-1.3-6.9-3.9-9.4-7c-4.3-5.3-6.9-11.3-6.4-18.3c0.1-1.4,0.5-2.8,1.2-4.1c1.4-3,4.1-4.1,7.3-3.4c0-0.2,0.1-0.4,0-0.5
		c-1-5.3-2.1-10.7-3.1-16c-1.1-6.3-2.1-12.6-2-19.1c0.1-3,0.4-6.1,1-9c0.3-1.4,1.3-2.6,2-3.9c0.1-0.1,0.2-0.3,0.4-0.3
		c1.9-0.3,1.9-1.8,2.5-3.2c1.4-3.3,3.7-5.9,7.5-6.6c0.3-0.1,0.7-0.3,0.8-0.6c2.3-4.9,6.5-6.2,11.4-6.2c1.4,0,2.8,0.6,4,0.3
		c1.2-0.3,2-1.6,3.1-2.4c3.9-2.5,8-2.7,12.2-0.8c0.9,0.4,1.5,0.5,2.5-0.2c3.4-2.3,7.1-2.7,10.9-1.2c2.8,1.1,5.4,1.5,8.4,1
		c3.5-0.6,6.9,0.3,9.8,2.7c1.5,1.2,2.5,2.8,2.8,4.7c0.1,0.7,0.4,0.9,1,1c2.4,0.5,4.6,1.4,6.4,3.1c1.4,1.3,2.3,2.9,2.5,4.9
		c0,0.4,0.2,0.9,0.5,1.1c1.8,1.3,2.7,3,2.7,5.1c0,3.4,0,6.9-0.4,10.3c-0.9,8.1-2,16.1-2.9,24.2c-0.4,3.1-0.6,6.3-0.9,9.7
		c0.5-0.2,0.8-0.4,1.1-0.6c2.5-1.2,5.1-0.6,6.7,1.7c1.4,2.1,1.9,4.5,2.1,6.9c0.8,9.8-2.4,17.8-10.3,23.9c-1,0.8-2.1,1.5-3.2,2.4
		c-0.2,0.2-0.4,0.6-0.4,0.9c-0.8,6.6-3.5,12.5-6.6,18.3c-0.9,1.7-2.5,3-3.7,4.5c-0.3,0.4-0.7,1-0.6,1.5c1.1,7.7,2.3,15.4,3.4,23.1
		c0.3,1.8,0.9,3.4,2.2,4.7c0.3,0.3,0.8,0.4,1.3,0.5c0.6,0.2,1.2,0.1,1.7,0.4c1.1,0.7,2.2,1.4,3.3,2.2c7.7,5.6,16.2,9,25.7,10.3
		c3.6,0.5,7.3,1.1,10.9,1.6c0.2,0,0.3,0.1,0.5,0.1c2.7-0.5,3.9,1.3,4.9,3.3c2.2,4.3,4.2,8.8,6.5,13.1c8.6,15.9,17.4,31.8,27.8,46.6
		c0.1,0.2,0.3,0.4,0.4,0.6c1.5,1.1,1.6,2,0.3,3.4c-1,1.1-2,2-3.1,3c-0.3,0.2-0.5,0.5-0.9,0.8c0.2,0.4,0.4,0.7,0.7,1.1
		c6.9,9.3,12.2,19.4,17,29.9c3.9,8.4,7.9,16.8,10.5,25.7c0.8,2.9,1.6,5.9,2.1,8.9c0.8,5.5-0.8,8.6-5.7,11.3
		c-13.1,7.4-26.5,13.9-40,20.6c-4,2-7.9,4.4-11.8,6.7c-0.4,0.2-0.6,0.7-0.8,1.2c-0.4,1.1-0.6,2.2-1.1,3.2c-0.8,1.4-1.8,2.6-2.6,4
		c-0.3,0.6-0.5,1.4-0.4,2.1c1.1,6,2.2,11.9,3.3,17.9C357,395.4,357,397.5,357.2,399.6z M351.2,245c0.6-0.3,1.1-0.5,1.4-0.8
		c1.6-1.2,3.2-2.5,4.8-3.7c0.3-0.2,0.9-0.5,1.1-0.4c0.3,0.1,0.5,0.7,0.5,1.1c-0.1,0.9-0.2,1.8-0.5,2.7c-1.5,4.1-2.9,8.1-4.5,12.1
		c-2.7,6.8-5.5,13.7-8.2,20.5c-0.2,0.5-0.4,1.2-0.2,1.6c0.9,2,2,4,3.1,6.1c0.4-0.4,0.7-0.8,1-1.1c1.3-1.1,2.4-2.4,3.8-3.3
		c9.4-6,18.6-12.3,27.4-19.2c1.9-1.5,3.7-3,5.6-4.6c-0.5-0.8-0.8-1.4-1.3-2c-5.5-8-10.8-16.2-15.5-24.7c-4.5-8.1-8.9-16.2-13.3-24.3
		c-1.9-3.5-3.4-7.2-5-10.9c-0.4-0.9-1-1.3-2.1-1.4c-3.6-0.2-7.3-0.4-10.9-0.9c-7.8-1.1-15.3-3.3-22.2-7.4c-0.3-0.2-0.9-0.1-1.2,0
		c-2.2,1-4.4,2.4-6.7,3.2c-4,1.4-8.1,2.4-12.2,3.5c-11,2.9-22.2,3.8-33.5,1.8c-6.2-1.1-12.1-3.1-17.1-7.2c-0.2-0.2-0.8-0.2-1.1-0.1
		c-5.6,2.3-11.6,3.4-17.5,4.6c-6.2,1.3-12.3,2.7-18.5,4c-0.9,0.2-1.4,0.7-1.9,1.5c-1.6,2.6-3.2,5.2-4.9,7.8
		c-5.2,7.7-10.4,15.5-15,23.6c-3.8,6.8-7.7,13.4-11.6,20.2c-1.1,2-2.1,4.1-3.1,6.2c-0.5,1-0.3,1.8,0.5,2.7c8,9,16.6,17.3,26.3,24.5
		c3.3,2.5,6.7,4.9,10.1,7.3c0.2-0.3,0.3-0.4,0.4-0.6c3.4-5.5,6.8-10.9,10.2-16.4c0.9-1.5,0.5-4.4-0.9-5.5
		c-9.1-6.7-18.5-12.8-29.3-16.7c-0.3-0.1-0.6-0.1-0.8-0.3c-0.2-0.3-0.4-0.7-0.5-1.1c0.4-0.1,0.8-0.5,1.1-0.4
		c0.6,0.1,1.2,0.4,1.8,0.6c9.3,4,17.8,9.4,26.1,15.2c0.4,0.3,0.7,0.5,1.1,0.7c0.1-0.1,0.2-0.2,0.3-0.3c-0.7-1.3-1.1-2.8-2-4
		c-3-4.3-6-8.5-9.1-12.7c-2.6-3.6-5.3-7.2-8-10.8c-0.5-0.7-0.9-1.4-1.2-2.2c-0.1-0.3,0.2-0.8,0.3-1.1c0.3,0.2,0.8,0.3,1,0.6
		c0.6,0.9,1.1,1.9,1.7,2.7c4.4,5.7,8.8,11.4,13.1,17.1c0.1,0.2,0.3,0.3,0.7,0.7c-0.2-0.7-0.3-1.1-0.4-1.5c-1.4-4.5-2.9-9.1-4.3-13.6
		c-0.6-1.9-1-3.9-1.4-5.8c-0.1-0.7-0.2-1.5,0.7-1.6c0.3,0,0.9,0.7,1.1,1.1c1.7,4.7,3.3,9.4,4.9,14c4.2,12.3,8.8,24.5,12,37.2
		c0.8,3.3,1.3,6.5,1.3,9.9c-0.3,14-0.4,27.9-0.6,41.9c0,0.6,0,1.2,0,1.9c5-0.8,9.8-0.5,14.5,0.1c1.7,0.2,3.2,0.8,4.1,2.4
		c1.6,2.9,1.8,5.9,1,9.1c-0.3,1.2-1.1,1.8-2.4,1.7c-1.3-0.1-2.6-0.1-3.8-0.2c-3-0.1-5.9-0.2-8.9-0.4c1.7,0.3,3.3,0.5,5,0.7
		c6.8,0.8,10.8,4.3,12.4,11c0.6,2.2-0.1,3.5-2.3,4.1c-0.8,0.2-1.7,0.4-2.6,0.5c-1.5,0.2-3,0.3-4.6,0.5c1.4,2,1.6,4,0.4,6.1
		c-1.2,2.1-3.1,2.8-5.4,2.9c0.1,0.5,0.1,0.7,0.1,0.9c0.3,3.7-2.4,6.9-6.1,6.9c-1.7,0-3.4-0.1-5-0.1c-0.7,0-1.4-0.1-2.1-0.1
		c-1,7.5-1.9,14.8-2.8,22.2c0.3,0.1,0.5,0.1,0.8,0.2c11.5,0.9,23,0.8,34.5,0.2c11.1-0.6,22.3-1.1,33.4-1.9
		c9.6-0.7,19.1-1.6,28.6-2.8c9.3-1.1,18.6-2.7,27.9-4c2.8-0.4,5.7-0.6,8.9-1c-1-6.6-2.1-13.1-3.1-19.5c-1.6,0.2-3.1,0.6-4.6,0.5
		c-1.9-0.2-2.3-1.9-2.4-3.5c-3.1,0.6-3.6,0.3-4-2.9c-0.2-1.5-0.3-2.9-0.5-4.4c-1.1,0.2-2.2,0.4-3.2,0.5c-1.8,0.1-3.1-0.6-3.3-2.3
		c-0.5-4-0.5-7.8,3-10.8c1.8-1.5,3.5-3.3,5.3-4.9c-1.1,0.2-2.1,0.6-3.1,1c-4.3,1.5-8.3,0.1-10.8-3.8c-0.8-1.3-0.7-2.5,0.4-3.6
		c0.7-0.7,1.5-1.3,2.2-1.8c3.9-2.8,7.9-5.2,12.7-6.4c-1.2-14-2.4-28-1.6-42c0.8-14,0.7-28,2.9-41.8c0.9,7.4,0.5,14.7-0.2,22
		c0.1,0,0.2,0,0.3,0.1c3.8-9.5,7.6-18.9,11.4-28.4c-1.1,0.4-1.9,1.1-2.8,1.6c-1.5,0.9-2.7,0.4-3.2-1.3c-0.2-0.7-0.3-1.4-0.3-2.1
		c-0.4-5.7-0.7-11.3-1-17c-0.1-1.3-0.2-2.6-0.3-4c-0.1,0-0.2,0-0.3,0c-0.7,3.6-1.3,7.2-2,10.9c-0.1,0-0.2,0-0.3-0.1
		c0-0.1-0.1-0.2-0.1-0.3c0.6-5.6,1.2-11.1,1.8-16.7c0.1-0.7,0.3-1.5,1.2-1.4c0.9,0.1,0.9,0.9,1,1.6c0.3,3.2,0.6,6.4,0.8,9.6
		c0.4,5.7,0.6,11.5,1,17.2C350.8,243.2,351.1,244,351.2,245z M355.4,541.9c0-0.5,0-0.9,0-1.2c-1-17.1-2.1-34.2-3-51.4
		c-1.2-21.3-2.3-42.6-3.5-63.8c-0.1-1-0.4-1.6-1.2-2.1c-8.6-5.7-16.7-12.1-24.6-18.7c-0.4-0.3-1.2-0.6-1.7-0.5
		c-12.7,1.9-25.4,3-38.2,3.7c-12.1,0.6-24.2,1.2-36.3,1.8c-0.8,0-1.4,0.3-1.9,1c-5.2,6.7-10.5,13.3-15.7,20c-0.4,0.5-0.7,1.3-0.7,2
		c-0.6,15.7-1,31.4-1.6,47.1c-0.4,10.2-1,20.4-1.5,30.7c-0.5,11.4-1,22.9-1.6,34.3c-0.1,1.1,0.3,1.4,1.3,1.4
		c5-0.1,10.1,0.1,15.1-0.1c10.5-0.4,21.1-1,31.6-1.6c4.2-0.2,8.5-0.5,12.7-0.7c0.8,0,1.1-0.3,1.1-1.2c-0.1-1-0.1-2.1-0.1-3.1
		c-0.2-9.5-0.4-19-0.8-28.5c-0.3-6.8-1-13.6-1.5-20.5c-0.4-6.1-0.8-12.1-1.2-18.2c-0.7-9.8-1.6-19.6-1.4-29.5
		c0.1-3.6,0.4-7.1,0.7-10.6c0.1-0.8-0.1-1.2-1-1.3c-0.8-0.1-1.6-0.3-2.4-0.4c-5.3-0.7-10.7-1.5-16-2.2c-0.6-0.1-1.1-0.3-2-0.5
		c0.6-0.5,0.9-0.8,1.3-0.9c1.6-0.4,3.3-1,4.9-1c7.7,0.2,15.2,2,22.7,3.4c2.6,0.5,4.1,2.7,4.2,5.3c0.2,3.3,0.4,6.7,0.9,10
		c1.6,11.9,2.6,23.8,3.2,35.7c0.3,6.4,0.9,12.8,1.3,19.3c0.5,6.8,1.2,13.6,1.5,20.5c0.3,6.1,0.3,12.2,0.5,18.3
		c0,1.5,0.2,2.9,0.2,4.5C319.1,541.9,337.2,541.1,355.4,541.9z M281.1,151.1c1.1-0.1,2.7,0,4.4-0.2c7.5-1.1,12.5-6,17-11.6
		c0-0.1,0.1-0.1,0.1-0.2c1.3-3.1,2.8-6.1,4-9.2c1.2-3.1,1.8-6.3,2.1-9.6c0.4-4.8,1.1-9.6,1.7-14.4c0.8-7.7,1.5-15.4,2.5-23
		c1-8.5-2.1-15.8-6.6-22.6c-2.4-3.6-6-4.6-10.2-3.2c-2.7,0.9-5.3,2.1-8,3.2c-6.9,2.9-13.9,3.8-21.1,1c-3.6-1.4-7.2-2.7-10.7-4.2
		c-4.6-1.9-8.7-1.1-12.4,2.2c-3.5,3.2-5.9,7.1-7.9,11.3c-2.3,4.8-3,9.7-1.6,14.9c3.9,14.6,7.7,29.1,11.6,43.7
		c1.3,4.9,3.5,9.5,6.8,13.5c1.5,1.9,3.4,3.4,5.7,4.3C265.4,149.5,272.9,150.9,281.1,151.1z M327.9,710.6c0.1-2.7,0.1-5.4,0.4-8
		c0.4-4,1.9-7.4,6-8.9c0.8-0.3,0.6-0.8,0.6-1.4c-0.2-3.7-0.6-7.3-0.6-11c-0.3-16.4,0.9-32.7,2.3-49c0.9-10.4,2.1-20.7,3.2-31
		c1.3-11.6,2.8-23.2,4.3-34.8c0.2-1.8,0.5-3.6,0.8-5.5c-12-1.4-23.9-1.3-35.9-1.2c0,0.3-0.1,0.6-0.1,0.8c0.1,11.7-1.1,23.4-2.5,35
		c-1.5,11.9-1.7,23.7-0.6,35.7c1.4,14,2.6,27.9,3.8,41.9c1.1,12.8,2.5,25.5,5.1,38.1c0.1,0.4,0.2,0.9,0.3,1.1
		C319.4,711.8,323.7,711.2,327.9,710.6z M238.6,561.3c6.6,42.2,9.1,84.5,9.1,127c0.4,0,0.6,0,0.8,0c4.6,0.1,7.7,2.9,8.3,7.4
		c0.2,1.6,0.1,3.3,0.2,4.9c0.1,2.6,0.3,5.2,0.5,7.8c0.1,0.9,0.6,1.4,1.5,1.6c2.5,0.4,5,0.9,7.5,1.4c0.3,0.1,0.6,0,1,0.1
		c0-0.7,0-1.4,0-2c0.2-8.3,0.2-16.6,0.6-24.9c0.3-6.3,0.9-12.6,1.4-18.9c0.7-8.1,1.3-16.2,2.1-24.3c1.2-11.9,2.8-23.7,3.7-35.7
		c1-13.2,0.8-26.4-0.2-39.6c-0.1-1.3-0.2-2.5-0.4-3.9C262.7,563.3,250.8,562.2,238.6,561.3z M218.8,350.7c-1.8-0.8-3.9-1.5-5.8-2.5
		c-2-1.1-3.9-2.4-5.8-3.6c-5.4-3.4-10.6-7-16.1-10.3c-7.1-4.3-14.5-4.8-21.9-0.7c-1.5,0.8-3,1.7-4.5,2.5c-1.5,0.8-3.1,1.5-4.7,2.2
		c-0.4,0.2-0.8,0.2-1.2,0.2c0.1-0.7,0.4-1.1,0.7-1.5c3.8-4.1,8.6-6.6,13.8-8.3c1.5-0.5,2.4-1.1,3.2-2.5
		c7.3-13.3,14.8-26.5,22.2-39.7c0.3-0.6,0.6-1.1-0.2-1.7c-8.7-6.2-16.4-13.5-23.8-21.2c-0.3-0.3-0.6-0.6-0.8-0.7
		c-0.7,1.9-1.2,3.8-2.1,5.5c-7.4,14.4-14.9,28.8-22.4,43.3c-3.7,7.2-6.7,14.8-9.6,22.4c-1.3,3.4-0.8,6.4,1.7,9
		c3.4,3.4,7,6.6,11.6,8.4c4.6,1.8,9.1,3.7,13.8,5.1c14.9,4.4,29.9,8.5,44.9,12.8c0.9,0.2,1.8,0.5,2.4,0.6c0.5-2.1,1-4,1.6-6.2
		c-2-1-2.3-3-2-5.3c0.1-1,0.4-2,0.6-2.9C215.2,353.2,216.3,351.1,218.8,350.7z M356.9,362.7c2.9-1.8,5.3-3.5,7.9-4.8
		c9-4.7,18-9.2,27-13.9c5.7-3,11.4-6,17.2-9c3.2-1.6,4.3-4.3,3.8-7.6c-0.3-2-0.7-3.9-1.2-5.9c-2.3-8-5.5-15.6-9-23.1
		c-4.1-8.7-8-17.5-13.1-25.6c-2.1-3.3-4.3-6.6-6.3-9.7c-8.7,6.2-17.3,12.3-25.9,18.5c8.8,11.5,16.5,23.9,23.6,36.4
		c2.9-1.3,5.6-2.7,8.5-3.8c2.9-1.1,5.9-1.6,9.1-1.2c-0.4,0.4-0.8,0.7-1.3,0.9c-4.3,1.9-8.8,3.7-13,5.8c-4,2-7.6,4.7-10,8.7
		c-1.4,2.3-2.9,4.5-4.6,6.6c-3.4,4.3-7.5,7.8-12.8,9.7c-0.1,0-0.2,0.2-0.2,0.2c0,0.1,0,0.1,0,0.1c0.7,3.1,1.5,6.3-0.6,9.2
		c-0.1,0.2,0,0.7,0.1,1c0.2,1.6,0.4,3.3,0.6,4.9C356.9,360.9,356.9,361.7,356.9,362.7z M231.8,71.4c0.2-0.2,0.3-0.2,0.3-0.2
		c0.1-0.3,0.2-0.5,0.3-0.8c2.2-5.2,5.1-9.9,9.4-13.6c4.6-4,9.6-4.9,15.3-2.7c3.3,1.3,6.6,2.6,9.9,3.9c6.9,2.9,13.7,2,20.4-0.9
		c2.5-1.1,5.1-2.2,7.7-3c5.3-1.7,9.8-0.3,13.3,4.1c1.8,2.2,3.1,4.7,4.1,7.4c0.6,1.5,1.2,3,1.9,4.5c0.3-0.5,0.4-1,0.4-1.4
		c0.5-6,1.1-11.9,1.6-17.9c0.2-2.4,0.2-4.8,0.1-7.2c0-1.4-0.7-2.5-2.1-3.1c-0.9-0.3-1.3-1.1-1.2-2c0.2-2.3-0.8-3.9-2.7-4.8
		c-1.6-0.8-3.4-1.3-5.2-1.7c-1.1-0.3-1.9-0.7-1.9-2c0-2.9-1.7-4.6-4.2-5.6c-2.7-1.1-5.5-1.1-8.4-0.3c-0.9,0.2-1.9,0.1-2.8-0.1
		c-1.4-0.4-2.7-1.1-4-1.5c-3.4-1.1-6.6-0.6-9.3,1.8c-0.9,0.8-1.7,0.8-2.8,0.3c-1.1-0.5-2.2-1.1-3.3-1.4c-3.7-1.1-7.4,0.3-9.6,3.4
		c-0.6,0.8-1.3,1-2.3,0.9c-1.7-0.2-3.4-0.5-5.1-0.5c-3.9,0.1-7,1.3-8.5,5.4c-0.2,0.6-1.1,1.2-1.8,1.3c-3.6,0.4-6.3,3.3-6.3,7
		c0,1.2-0.8,2.2-1.7,2c-1.5-0.2-2.1,0.6-2.5,1.9c-0.2,0.7-0.4,1.4-0.5,2.1C229.2,54.9,230.6,63.1,231.8,71.4z M221.6,273.9
		c-0.3,0.4-0.5,0.6-0.6,0.8c-3.3,5.2-6.5,10.4-9.8,15.7c-1.2,2-2.1,2.2-3.9,0.8c-1.8-1.4-3.7-2.7-5.5-3.9
		c-7.8,13.6-15.5,27.1-23.2,40.7c0.1,0,0.3,0.1,0.5,0.1c5.6,0,10.6,1.8,15.2,4.9c6.1,4.1,12.3,8.1,18.5,12c1.6,1.1,3.4,1.9,5.2,2.8
		c0.6,0.3,1.3,0.3,2.1,0.5c0.1-1,0-1.8,0.1-2.6c0.4-2.9,1.1-5.6,4.2-6.8c0.3-0.1,0.6-0.7,0.6-1.1c0.2-14.4,0.4-28.7,0.7-43.1
		c0.1-3.4-0.3-6.8-1.2-10.1c-0.6-2.1-1.1-4.2-1.7-6.3C222.5,276.8,222.1,275.5,221.6,273.9z M239.6,702.6c3.6,0.5,6.1,2.4,7.8,5.4
		c1.3,2.3,1.3,4.6,0,6.9c-1.9,3.5-5.2,5.2-9.4,4.6c-0.7-0.1-1.1,0.1-1.6,0.6c-0.7,0.8-1.6,1.5-2.5,2c-4.4,2-8.6,2-12.5-1.2
		c-2.7-2.2-5.4-4.3-8.1-6.4c-0.4-0.3-1.1-0.5-1.5-0.3c-3.3,1.5-6.6,3-9.7,4.8c-3.4,1.9-5.8,4.8-7.1,8.6c-1.3,3.7-0.4,6.6,2.7,9.1
		c2.5,2,5.4,2.9,8.6,3c7.5,0.2,15,0.4,22.4,0.3c9.8-0.2,19.5-1.4,29.2-3.3c3.2-0.6,6.3-1.6,9.3-2.7c2.5-0.9,4.1-2.7,4.6-5.4
		c0.5-2.6,1.1-5.1,1.4-7.7c0.2-1.2,0-2.6-0.2-3.8c-0.4-2.1-0.9-2.4-3-2.7c-4-0.5-8-1.1-12-1.7c-2.2-0.3-3.4-1.6-3.6-3.7
		c-0.3-3-0.4-6-0.6-9c-0.1-1.3,0-2.6-0.1-4c-0.3-2.7-1.9-4.5-4.4-4.9c-2.9-0.5-5.8,0.8-6.8,3.3C241.6,697.2,240.7,699.9,239.6,702.6
		z M351.1,706.8c-0.6-2.4-1.1-4.7-1.9-6.9c-0.9-2.9-3.1-4.5-6.1-4.8c-2.3-0.3-4.5,0-6.8,0.7c-3,0.9-4.9,2.8-5.3,6
		c-0.1,0.8-0.3,1.7-0.3,2.5c-0.1,2.3-0.4,4.6-0.3,6.9c0.1,1.8-0.1,2.4-1.9,2.6c-1.7,0.2-3.5,0.2-5.2,0.5c-2.7,0.5-5.5,1-8.2,1.7
		c-2.1,0.6-3.7,2.1-4.4,4.3c-1,3.1-0.5,6.3,0.5,9.3c0.2,0.5,0.6,1,1.1,1.4c3.3,2.9,6.7,5.6,11,7c4.6,1.5,9.2,2.8,13.9,4.1
		c4.3,1.2,8.6,2.6,12.9,3.1c5.8,0.6,11.6,0.5,17.5,0.5c3.5,0,6.9-0.8,10.1-2.3c1.7-0.8,3.3-1.8,4.8-2.9c1.5-1.1,1.9-2.7,1.3-4.5
		c-0.6-2-1.6-3.8-3.2-5.3c-2.8-2.5-5.7-4.9-8.5-7.4c-0.4-0.4-1-0.7-1.2-0.8c-1.4,1-2.6,2-4,2.7c-5.3,2.6-10.9,3.7-16.7,3.1
		c-4.2-0.4-5.6-1.6-6.7-5.2c-1.7-0.7-3.4-1.2-4.8-2c-3.9-2.3-4.4-6.6-1.2-9.9c2.4-2.5,5.3-3.9,8.8-4.3
		C347.7,706.7,349.4,706.8,351.1,706.8z M354.9,283.3c0.2-0.3,0.4-0.6,0.7-1c-2.4,1.2-4,2.9-5.3,4.8c-1.4,1.9-3.2,1.6-4.1-0.5
		c-0.4-1.1-0.9-2.1-1.4-3.1c-0.1,0-0.2,0-0.3,0.1c-1.6,16.9-0.1,33.7,0.6,50.8c3.4-0.3,4.5,2.1,5.7,4.5c0.6,1.2,1.2,2.5,1.7,3.6
		c3.2,0.6,5.6-1,8-2.6c4.6-3.1,8-7.3,10.8-12c1.8-3,4-5.6,6.8-7.6c0.3-0.2,0.5-0.4,0.8-0.7C371.2,307.2,363.8,294.8,354.9,283.3z
		 M258.4,150.3c0.2,4.8,0.5,9.6,0.5,14.4c0,4.8-1.4,9.4-2.8,14c9.2,4.5,37.5,3.3,47.2-2c-1.6-1.9-2.4-4.1-2.7-6.4
		c-0.9-6.7-1.7-13.3-2.6-20c-0.1-0.6-0.1-1.1-0.2-1.7c-0.2,0.1-0.3,0.1-0.4,0.1c-0.3,0.2-0.5,0.4-0.8,0.6c-3.9,3.1-8.4,4.7-13.4,4.8
		c-6.4,0.2-12.6-0.6-18.8-2.1C262.3,151.5,260.2,150.9,258.4,150.3z M223.7,558.5c0.5,0,0.9-0.1,1.3-0.1c3.9-0.2,7.8-0.5,11.7-0.4
		c6,0.2,11.9,0.7,17.8,1.1c10,0.6,20,0,29.9-1.1c1-0.1,1.4-0.5,1.4-1.6c-0.1-3.3-0.1-6.6-0.1-10c0-0.3-0.1-0.7-0.1-1.1
		c-0.3,0-0.6,0-0.8,0c-6,0.3-12.1,0.6-18.1,0.9c-14,0.8-28,1.5-42,0.8c-0.8,0-1,0.2-1,0.9c0,1.9-0.1,3.8-0.1,5.6
		C223.7,555.2,223.7,556.8,223.7,558.5z M355.8,558.8c0-0.4,0.1-0.6,0.1-0.9c-0.1-4.4-0.2-8.7-0.2-13.1c0-1.2-0.4-1.6-1.6-1.6
		c-17.3-0.1-34.6,0.4-51.9,1.3c-0.3,0-0.7,0.1-1.1,0.1c0.2,3.6,0.4,7,0.6,10.5c0,0.9,0.3,1.2,1.3,1.2c4.4,0,8.8,0,13.2,0
		c10,0,20.1,0.2,30.1,1.3C349.3,558.1,352.5,558.5,355.8,558.8z M247.5,184.4c0.6,0.4,1.1,0.8,1.8,1.1c6.7,3.7,14,5.1,21.5,5.5
		c13.3,0.7,25.9-2.5,38.3-6.7c1.3-0.5,2.6-1.2,4-1.8c-1.5-1.3-2.9-2.4-4.1-3.6c-0.5-0.5-0.8-0.6-1.5-0.3c-6.9,2.9-14,5.3-21.6,5.8
		c-11.3,0.8-22.5,0.1-33.4-3.8c-0.3-0.1-0.7-0.1-0.9,0.1C250.1,182,248.9,183.2,247.5,184.4z M237.7,364.6c3.4-0.4,6.1-0.6,8.9-0.9
		c0.9-0.1,1.3-0.6,0.8-1.5c-0.8-1.6-1.7-3.3-2.6-4.9c-0.9-1.7-2.4-2.6-4.3-3c-1.6-0.3-3.3-0.7-5-0.8c-4.9-0.4-9.8-1.5-14.7-0.5
		c-1.9,0.4-3.2,1.1-3.6,3c-0.2,1-0.5,2-0.7,3c-0.3,1.9,0.1,2.5,2,2.9c1.9,0.4,3.8,0.7,5.7,0.9C228.9,363.4,233.6,364,237.7,364.6z
		 M347.9,400.2c-7.5,1.1-14.9,2.1-22.3,3.2c0,0.1,0,0.2-0.1,0.4c7.6,5.7,15,11.5,23,16.9C348.3,413.7,348.1,407.1,347.9,400.2z
		 M354.8,349.2c-0.1-0.7-0.1-1.4-0.2-2c-0.3-1.9-1.5-2.5-3.2-1.6c-5,2.6-8.9,6.5-13,10.1c-2.4,2.1-2.9,4.6-2.7,7.5
		c0,0.7,0.3,1,1,0.8c2.3-0.6,4.6-1.2,7-1.8c0.4-0.1,0.7-0.4,1-0.6c2.8-2.7,5.6-5.5,8.5-8.1C354.3,352.3,355.2,351,354.8,349.2z
		 M311.7,118c0.3,0,0.4,0,0.5,0c7.8-5.8,11.2-13.6,10-23.3c-0.2-1.4-0.6-2.7-1.2-4c-0.8-1.7-2.3-2-3.9-1c-1.5,1-2.4,2.1-2.5,4.1
		c-0.1,3.2-0.5,6.4-0.8,9.4c1.6,0.9,3,1.7,4.4,2.7c0.7,0.5,1.2,1.4,0.4,2.2c-0.8,0.8-1.4,0.1-2.1-0.4c-0.9-0.7-1.9-1.3-2.8-2
		c-0.1,0.1-0.3,0.2-0.4,0.2C312.7,109.8,312.2,113.9,311.7,118z M235.9,104.1c-0.9-3.3-1.7-6.8-2.7-10.2c-0.4-1.6-2.7-2.6-4.1-1.6
		c-1,0.7-1.9,1.8-2.3,2.9c-0.5,1.5-0.7,3.2-0.5,4.7c0.7,6.5,3.5,12,8.4,16.4c1.5,1.3,3.3,2.4,4.9,3.5c0.1-0.1,0.2-0.2,0.4-0.3
		c-1.1-4.3-2.1-8.5-3.3-12.9c-1.4,0.9-2.5,1.7-3.1,3.1c-0.2,0.4-0.8,0.6-1.3,1c-0.4-0.5-1-1-1-1.6c0-0.7,0.4-1.5,0.9-2
		C233.3,105.9,234.6,105.1,235.9,104.1z M222.9,348.4c1.9-0.2,3.8-0.6,5.7-0.6c5.2,0,10.4,0.1,15.6,0.1c0.6,0,1.2,0.1,1.2-0.7
		c-0.1-1.6-0.1-3.2-0.4-4.7c-0.2-1.5-1.3-2.3-2.8-2.3c-3.2-0.1-6.4-0.4-9.6-0.4c-2.6,0-5.2,0.5-7.5,1.8c-0.6,0.3-1.2,0.9-1.5,1.5
		C222.9,344.6,222.7,346.5,222.9,348.4z M368.9,721c-3.1-1.9-6-3.7-8.9-5.5c-0.2-0.1-0.6-0.1-0.9-0.1c-4.1,0.6-7.8,2-11.1,4.6
		c-0.6,0.5-1.2,1.2-1.6,1.9c-0.7,1.2-0.4,2.2,0.8,2.8c0.9,0.4,1.9,0.7,2.9,0.8C356.8,726.1,363,724.6,368.9,721z M231.3,373.5
		c2.4-0.2,4.1-0.1,5.8-0.4c1.9-0.3,3.1-2.9,2-4.1c-0.9-0.9-2.2-1.8-3.4-2c-5-0.8-10-1.3-15.1-2c-2.5-0.3-2.6-0.3-3.2,2.1
		c0,0.2-0.1,0.4-0.1,0.6c-0.3,1.3,0.1,2.4,1.2,3c1.2,0.6,2.5,1.4,3.8,1.6C225.5,372.8,228.8,373.2,231.3,373.5z M228.6,428.9
		c4.8-6.5,9.4-12.8,14.2-19.2c-4.9,0-9.5,0-14.2,0C228.6,415.9,228.6,422.3,228.6,428.9z M215.4,712.9c2.7,2.1,5.3,4,7.8,5.9
		c3.1,2.5,6.4,2.4,9.8,0.8c1.9-0.9,2.2-2.2,1.2-4c-0.3-0.5-0.6-1-1-1.3c-1.8-1.3-3.6-2.6-5.5-3.9c-0.4-0.2-1-0.2-1.5-0.1
		c-2.2,0.5-4.4,1.1-6.6,1.6C218.2,712.3,216.9,712.6,215.4,712.9z M356.1,713c-1-0.9-2.1-1.9-3.2-2.9c-0.1-0.1-0.3-0.2-0.4-0.2
		c-2-0.1-4.1-0.5-6.1-0.4c-3.1,0.2-5.7,1.5-7.7,3.9c-1.5,1.7-1.3,3.8,0.5,5.1c1.2,0.9,2.7,1.4,4.2,2c0.3,0.1,0.8-0.2,1.1-0.4
		c1.4-1.2,2.6-2.7,4.1-3.6C351,715.1,353.6,714.1,356.1,713z M349.7,342c-0.7-1.2-1.2-2.3-1.8-3.3c-1-1.8-1.5-2.1-3.6-1.7
		c-5.6,1-10,4.3-14.4,7.5c1.9,3,4.1,3.8,7.2,2.7c0.6-0.2,1.3-0.5,1.9-0.7C342.6,345.1,346.1,343.6,349.7,342z M230.4,709.1
		c0.9,0.6,1.6,1,2.3,1.6c1.9,1.4,3.7,2.9,4.4,5.2c0.7,2.1,0.8,2.2,3,1.8c0.9-0.2,1.8-0.5,2.6-0.9c2.7-1.6,3.9-4.8,2.7-7.1
		c-1.5-2.8-3.9-4.4-7.1-4.5c-0.3,0-0.6,0.2-0.8,0.3c-1.4,0.9-2.9,1.8-4.3,2.7C232.4,708.5,231.5,708.7,230.4,709.1z M217.9,373.4
		c-2.1,3.9-0.9,6.6,3.3,7.2c2.8,0.4,5.6,0.4,8.4,0.6c2.5,0.2,3.5-1.5,4-3.6c0.3-1.3-0.1-1.6-1.4-1.6
		C227.2,375.9,222.4,375.7,217.9,373.4z M342.5,371.4c5-2.7,9.1-5.9,11.6-10.9c0.7-1.3,0.7-2.8,0.3-4.5c-2.1,2.1-4.2,3.9-6.1,5.9
		c-1.6,1.7-3.2,3.2-5.6,3.7c-0.3,0.1-0.8,0.7-0.7,1C342.1,368.1,342.3,369.6,342.5,371.4z M355.3,364.2c-1.5,1.6-2.9,3.3-4.5,4.8
		c-1.2,1.2-2.7,2.2-4.1,3.2c-1,0.7-0.4,1.5-0.3,2.3c0.1,0.2,0.9,0.4,1.4,0.4c1.4-0.2,2.5-0.9,3.3-2.1c1-1.5,2.1-3,3.2-4.5
		C355.3,367,355.6,365.7,355.3,364.2z"/>
	<path class="st0" d="M351.2,245c-0.2-1-0.4-1.8-0.4-2.6c-0.3-5.7-0.6-11.5-1-17.2c-0.2-3.2-0.5-6.4-0.8-9.6c-0.1-0.7,0-1.5-1-1.6
		c-0.9-0.1-1.1,0.7-1.2,1.4c-0.6,5.6-1.2,11.1-1.8,16.7c0,0.1,0,0.2,0.1,0.3c0.1,0,0.2,0,0.3,0.1c0.7-3.6,1.3-7.2,2-10.9
		c0.1,0,0.2,0,0.3,0c0.1,1.3,0.2,2.6,0.3,4c0.3,5.7,0.7,11.3,1,17c0,0.7,0.1,1.4,0.3,2.1c0.5,1.7,1.7,2.2,3.2,1.3
		c0.9-0.5,1.7-1.2,2.8-1.6c-3.8,9.5-7.6,18.9-11.4,28.4c-0.1,0-0.2,0-0.3-0.1c0.7-7.3,1.1-14.7,0.2-22c-2.2,13.9-2.1,27.9-2.9,41.8
		c-0.8,14,0.4,28,1.6,42c-4.8,1.2-8.8,3.6-12.7,6.4c-0.8,0.6-1.5,1.1-2.2,1.8c-1.1,1.1-1.2,2.2-0.4,3.6c2.4,3.9,6.4,5.4,10.8,3.8
		c1-0.4,2-0.8,3.1-1c-1.7,1.6-3.4,3.3-5.3,4.9c-3.5,2.9-3.5,6.8-3,10.8c0.2,1.6,1.5,2.4,3.3,2.3c1-0.1,2-0.3,3.2-0.5
		c0.2,1.5,0.3,3,0.5,4.4c0.4,3.2,0.8,3.5,4,2.9c0.1,1.6,0.4,3.3,2.4,3.5c1.5,0.1,3-0.3,4.6-0.5c1,6.4,2,12.9,3.1,19.5
		c-3.2,0.4-6,0.6-8.9,1c-9.3,1.3-18.6,2.8-27.9,4c-9.5,1.1-19.1,2.1-28.6,2.8c-11.1,0.8-22.3,1.3-33.4,1.9
		c-11.5,0.6-23,0.7-34.5-0.2c-0.2,0-0.5-0.1-0.8-0.2c0.9-7.4,1.9-14.7,2.8-22.2c0.7,0,1.4,0.1,2.1,0.1c1.7,0.1,3.4,0.1,5,0.1
		c3.7-0.1,6.4-3.2,6.1-6.9c0-0.2-0.1-0.5-0.1-0.9c2.3-0.1,4.2-0.8,5.4-2.9c1.2-2.1,1.1-4-0.4-6.1c1.6-0.2,3.1-0.3,4.6-0.5
		c0.9-0.1,1.7-0.3,2.6-0.5c2.2-0.6,2.9-1.9,2.3-4.1c-1.7-6.7-5.6-10.1-12.4-11c-1.7-0.2-3.3-0.4-5-0.7c3,0.1,5.9,0.2,8.9,0.4
		c1.3,0.1,2.6,0.1,3.8,0.2c1.3,0.1,2.1-0.6,2.4-1.7c0.8-3.1,0.5-6.2-1-9.1c-0.9-1.6-2.4-2.2-4.1-2.4c-4.8-0.6-9.6-0.8-14.5-0.1
		c0-0.7,0-1.3,0-1.9c0.2-14,0.3-27.9,0.6-41.9c0.1-3.4-0.4-6.7-1.3-9.9c-3.2-12.7-7.8-24.9-12-37.2c-1.6-4.7-3.2-9.4-4.9-14
		c-0.2-0.5-0.7-1.2-1.1-1.1c-0.9,0.1-0.9,0.9-0.7,1.6c0.4,2,0.8,3.9,1.4,5.8c1.4,4.6,2.9,9.1,4.3,13.6c0.1,0.4,0.2,0.8,0.4,1.5
		c-0.4-0.4-0.6-0.5-0.7-0.7c-4.4-5.7-8.8-11.4-13.1-17.1c-0.6-0.8-1.1-1.8-1.7-2.7c-0.2-0.3-0.7-0.4-1-0.6c-0.1,0.4-0.4,0.8-0.3,1.1
		c0.3,0.8,0.7,1.5,1.2,2.2c2.6,3.6,5.3,7.2,8,10.8c3.1,4.2,6.1,8.4,9.1,12.7c0.8,1.2,1.3,2.7,2,4c-0.1,0.1-0.2,0.2-0.3,0.3
		c-0.4-0.2-0.7-0.5-1.1-0.7c-8.2-5.8-16.8-11.2-26.1-15.2c-0.6-0.3-1.2-0.5-1.8-0.6c-0.3-0.1-0.7,0.3-1.1,0.4
		c0.2,0.4,0.3,0.8,0.5,1.1c0.2,0.2,0.5,0.2,0.8,0.3c10.7,3.9,20.2,9.9,29.3,16.7c1.4,1.1,1.8,4,0.9,5.5c-3.4,5.5-6.8,10.9-10.2,16.4
		c-0.1,0.2-0.2,0.3-0.4,0.6c-3.4-2.5-6.8-4.8-10.1-7.3c-9.6-7.3-18.2-15.6-26.3-24.5c-0.8-0.9-1-1.6-0.5-2.7c1.1-2.1,2-4.2,3.1-6.2
		c3.8-6.7,7.8-13.4,11.6-20.2c4.5-8.2,9.8-15.9,15-23.6c1.7-2.6,3.3-5.2,4.9-7.8c0.5-0.8,1-1.3,1.9-1.5c6.2-1.3,12.3-2.7,18.5-4
		c5.9-1.2,11.8-2.3,17.5-4.6c0.3-0.1,0.8-0.1,1.1,0.1c5,4.1,10.9,6.1,17.1,7.2c11.3,2,22.5,1.1,33.5-1.8c4.1-1.1,8.2-2.2,12.2-3.5
		c2.3-0.8,4.5-2.1,6.7-3.2c0.4-0.2,0.9-0.2,1.2,0c6.8,4.1,14.3,6.3,22.2,7.4c3.6,0.5,7.2,0.7,10.9,0.9c1.1,0.1,1.7,0.4,2.1,1.4
		c1.6,3.6,3.2,7.4,5,10.9c4.3,8.2,8.8,16.2,13.3,24.3c4.7,8.5,10,16.7,15.5,24.7c0.4,0.6,0.8,1.2,1.3,2c-1.9,1.6-3.7,3.1-5.6,4.6
		c-8.8,6.9-18,13.2-27.4,19.2c-1.4,0.9-2.6,2.1-3.8,3.3c-0.3,0.3-0.6,0.7-1,1.1c-1.1-2.1-2.1-4.1-3.1-6.1c-0.2-0.4,0-1.1,0.2-1.6
		c2.7-6.8,5.5-13.7,8.2-20.5c1.6-4,3.1-8.1,4.5-12.1c0.3-0.8,0.4-1.8,0.5-2.7c0-0.4-0.2-1-0.5-1.1c-0.3-0.1-0.8,0.2-1.1,0.4
		c-1.6,1.2-3.2,2.5-4.8,3.7C352.3,244.5,351.8,244.7,351.2,245z M313.2,265.5c5.7-0.1,10.5-0.7,15.1-2.5c2.7-1,4.7-2.9,6.1-5.4
		c1.6-2.9,2.6-6.1,3.1-9.4c0.5-3.7,0-7.3-1.8-10.6c-5.5-10.1-19.3-16.2-32.1-7.4c-3.7,2.5-7.1,5.6-8.4,10
		c-2.1,6.9-1.1,13.5,3.8,19.1C302.8,264,308.2,265.5,313.2,265.5z"/>
	<path class="st1" d="M355.4,541.9c-18.2-0.8-36.3,0-54.5,0.8c-0.1-1.6-0.2-3-0.2-4.5c-0.2-6.1-0.2-12.2-0.5-18.3
		c-0.4-6.8-1-13.6-1.5-20.5c-0.5-6.4-1-12.8-1.3-19.3c-0.6-11.9-1.6-23.9-3.2-35.7c-0.5-3.3-0.7-6.7-0.9-10
		c-0.2-2.6-1.7-4.8-4.2-5.3c-7.5-1.4-15-3.1-22.7-3.4c-1.6-0.1-3.3,0.6-4.9,1c-0.4,0.1-0.7,0.5-1.3,0.9c0.9,0.2,1.4,0.4,2,0.5
		c5.3,0.7,10.7,1.5,16,2.2c0.8,0.1,1.6,0.4,2.4,0.4c0.9,0.1,1,0.5,1,1.3c-0.3,3.5-0.6,7.1-0.7,10.6c-0.2,9.8,0.7,19.7,1.4,29.5
		c0.4,6.1,0.8,12.1,1.2,18.2c0.5,6.8,1.2,13.6,1.5,20.5c0.4,9.5,0.5,19,0.8,28.5c0,1,0,2.1,0.1,3.1c0.1,0.8-0.2,1.1-1.1,1.2
		c-4.2,0.2-8.5,0.5-12.7,0.7c-10.5,0.5-21.1,1.1-31.6,1.6c-5,0.2-10.1,0.1-15.1,0.1c-1,0-1.4-0.3-1.3-1.4c0.5-11.4,1-22.9,1.6-34.3
		c0.5-10.2,1.1-20.4,1.5-30.7c0.6-15.7,1.1-31.4,1.6-47.1c0-0.7,0.3-1.4,0.7-2c5.2-6.7,10.5-13.3,15.7-20c0.5-0.7,1.1-0.9,1.9-1
		c12.1-0.6,24.2-1.2,36.3-1.8c12.8-0.6,25.5-1.7,38.2-3.7c0.5-0.1,1.3,0.1,1.7,0.5c7.9,6.6,16.1,13,24.6,18.7
		c0.8,0.5,1.2,1.1,1.2,2.1c1.1,21.3,2.3,42.6,3.5,63.8c1,17.1,2,34.3,3,51.4C355.4,541,355.4,541.4,355.4,541.9z"/>
	<path class="st2" d="M281.1,151.1c-8.2-0.2-15.6-1.5-22.8-4.1c-2.3-0.8-4.1-2.4-5.7-4.3c-3.3-4-5.5-8.6-6.8-13.5
		c-4-14.5-7.8-29.1-11.6-43.7c-1.4-5.2-0.6-10.1,1.6-14.9c2-4.2,4.4-8.1,7.9-11.3c3.7-3.4,7.8-4.1,12.4-2.2
		c3.5,1.5,7.1,2.8,10.7,4.2c7.2,2.8,14.2,1.9,21.1-1c2.7-1.1,5.3-2.3,8-3.2c4.1-1.4,7.7-0.4,10.2,3.2c4.6,6.8,7.7,14.1,6.6,22.6
		c-0.9,7.7-1.6,15.3-2.5,23c-0.5,4.8-1.2,9.6-1.7,14.4c-0.3,3.3-0.9,6.5-2.1,9.6c-1.2,3.1-2.7,6.2-4,9.2c0,0.1-0.1,0.1-0.1,0.2
		c-4.5,5.6-9.5,10.5-17,11.6C283.8,151.1,282.2,151,281.1,151.1z M262.4,87.8c1.7,0,3,0,4.3,0c0.8,0,1.3,0.3,1.5,1
		c0.6,1.8,1.4,3.6,2,5.4c1.8,5.4,0.9,10.4-2.1,15.1c-0.8,1.3-1.7,2.5-2.5,3.8c-1.2,2.1-1.1,3.5,0.6,5.2c3.3,3.4,7.3,5.4,12.2,4.9
		c3-0.3,4.9-1.8,5.9-4.7c0.2-0.7,0.7-1.3,0.9-2.1c0.3-1.1,0.5-2.3,0.6-3.4c0-0.2-0.6-0.5-1-0.8c-0.1,0.4-0.3,0.8-0.4,1.2
		c0,0.3,0.1,0.7,0.1,1c-0.2,2.9-2.4,4.4-4.4,6.1c-0.2,0.2-0.6,0.2-0.9,0.3c-4.9,0.9-8.7-0.9-11.8-4.5c-0.3-0.4-0.3-1.3-0.1-1.7
		c0.6-1.1,1.3-2.2,2-3.2c2.8-4.3,4.3-8.8,3.5-14c-0.7-4.4-2.6-8.3-4.7-12.3c-1.2-2.2-2.8-3.3-5.2-3.7c-5.6-0.9-11.2-0.6-16.8,0.3
		c-0.5,0.1-1.1,0.4-1.4,0.8c-0.8,1.4-0.6,2.9,0.1,4.3c0.6,1.2,1.7,1.4,2.8,1.3c0.9-0.1,1.9-0.1,2.8-0.2c-0.7,0.8-1.7,1.2-2.3,2
		c-2.7,3.1-3,6.1,1.1,7.6c2.6,0.9,5.3,1.5,8,1.9c2.9,0.5,5.7-0.4,8.4-1.5c0.6-0.2,1.3-1,1.3-1.5c-0.1-2.8-0.7-5.4-2.9-7.3
		C263.5,88.9,263.1,88.5,262.4,87.8z M285.6,88.6c0,0.1,0,0.2,0.1,0.3c-0.4,0.3-0.8,0.6-1.1,0.9c-0.7,0.8-1.7,1.6-2,2.5
		c-1.1,3.4-1.7,4.4,2.3,5.5c2.1,0.6,4.3,1,6.5,1.2c3.5,0.4,6.9-0.2,9.7-2.5c3-2.4,2.7-5.5-0.6-7.3c-0.4-0.2-0.9-0.4-1.3-0.6
		c-0.2-0.1-0.4-0.2-0.6-0.4c1.6-0.1,3.2-0.1,4.7,0.1c1,0.1,1.7-0.1,2-1c1-2.5,0.2-4.2-2.5-4.9c-0.6-0.2-1.2-0.3-1.8-0.3
		c-6.3-0.1-12.5-0.1-18.8-0.2c-0.9,0-1.2,0.4-1.1,1.2c0.1,1.4,0.3,2.9,0.6,4.2c0.2,1,1,1.4,2,1.4C284.4,88.7,285,88.7,285.6,88.6z
		 M288.6,133.8c0-0.1,0-0.2,0-0.3c1.6-0.1,3.2-0.2,4.8-0.2c1.5-0.1,2.1-0.7,2.5-2.1c0.2-0.8,0-1.5-0.8-1.6c-0.5,0-1.3,0.4-1.5,0.8
		c-0.4,1.1-0.9,0.8-1.6,0.4c-1.1-0.6-2.1-1.2-3.2-1.6c-6.3-2.2-12.9-3.3-19.6-2.9c-3.1,0.2-6.3,0.3-9.3,1.5c-0.2,0.1-0.8-0.1-1-0.4
		c-0.3-0.5-0.4-1.2-0.7-1.6c-0.4-0.5-1.1-0.8-1.6-1.2c-0.3,0.6-0.7,1.1-0.8,1.7c-0.1,0.4,0.1,0.9,0.2,1.3c0.8,2.5,2.8,3.2,5.1,3.5
		c3.2,0.4,6.4,0.8,9.7,1.1C276.7,132.7,282.7,133.2,288.6,133.8z M276.8,139.7c1.2-0.3,2.1-0.4,3-0.8c0.3-0.1,0.7-0.7,0.7-1.1
		c0-0.3-0.5-0.7-0.9-0.8c-0.6-0.2-1.2-0.2-1.8-0.2c-2.3,0-4.6-0.4-6.8-1.3c-0.4-0.2-1,0-1.5,0c0.2,0.5,0.3,1.1,0.6,1.5
		c0.3,0.4,0.8,0.7,1.3,0.9C273.2,138.6,275.1,139.2,276.8,139.7z"/>
	<path class="st2" d="M327.9,710.6c-4.2,0.6-8.5,1.2-13,1.9c0-0.2-0.2-0.6-0.3-1.1c-2.6-12.6-4.1-25.3-5.1-38.1
		c-1.2-14-2.4-28-3.8-41.9c-1.2-11.9-1-23.8,0.6-35.7c1.5-11.6,2.6-23.3,2.5-35c0-0.2,0-0.5,0.1-0.8c12,0,23.9-0.2,35.9,1.2
		c-0.3,1.9-0.6,3.7-0.8,5.5c-1.4,11.6-2.9,23.2-4.3,34.8c-1.2,10.3-2.4,20.7-3.2,31c-1.4,16.3-2.6,32.6-2.3,49
		c0.1,3.7,0.4,7.3,0.6,11c0,0.5,0.2,1.1-0.6,1.4c-4.1,1.5-5.7,4.8-6,8.9C328.1,705.2,328,707.9,327.9,710.6z"/>
	<path class="st2" d="M238.6,561.3c12.2,0.9,24.1,2,36.2,0.9c0.1,1.4,0.3,2.7,0.4,3.9c1,13.2,1.2,26.4,0.2,39.6
		c-0.9,11.9-2.6,23.8-3.7,35.7c-0.8,8.1-1.4,16.2-2.1,24.3c-0.5,6.3-1.2,12.6-1.4,18.9c-0.4,8.3-0.4,16.6-0.6,24.9c0,0.6,0,1.3,0,2
		c-0.4,0-0.7,0-1-0.1c-2.5-0.5-5-1-7.5-1.4c-0.9-0.2-1.4-0.6-1.5-1.6c-0.2-2.6-0.3-5.2-0.5-7.8c-0.1-1.6,0-3.3-0.2-4.9
		c-0.5-4.5-3.7-7.3-8.3-7.4c-0.2,0-0.4,0-0.8,0C247.7,645.8,245.2,603.5,238.6,561.3z"/>
	<path class="st2" d="M218.8,350.7c-2.5,0.4-3.6,2.5-4.3,4.9c-0.3,1-0.5,1.9-0.6,2.9c-0.3,2.2,0,4.3,2,5.3c-0.5,2.1-1,4.1-1.6,6.2
		c-0.6-0.2-1.5-0.4-2.4-0.6c-15-4.2-29.9-8.4-44.9-12.8c-4.7-1.4-9.3-3.2-13.8-5.1c-4.5-1.8-8.1-5-11.6-8.4c-2.5-2.5-3-5.6-1.7-9
		c3-7.6,5.9-15.1,9.6-22.4c7.5-14.4,15-28.8,22.4-43.3c0.9-1.7,1.4-3.6,2.1-5.5c0.2,0.2,0.5,0.4,0.8,0.7
		c7.4,7.7,15.2,14.9,23.8,21.2c0.8,0.6,0.5,1.1,0.2,1.7c-7.4,13.2-14.8,26.4-22.2,39.7c-0.8,1.4-1.7,2-3.2,2.5
		c-5.2,1.7-10,4.2-13.8,8.3c-0.3,0.4-0.6,0.8-0.7,1.5c0.4-0.1,0.8-0.1,1.2-0.2c1.6-0.7,3.1-1.4,4.7-2.2c1.5-0.8,3-1.7,4.5-2.5
		c7.4-4.1,14.8-3.5,21.9,0.7c5.5,3.3,10.7,6.8,16.1,10.3c1.9,1.2,3.8,2.5,5.8,3.6C214.9,349.2,217,349.9,218.8,350.7z"/>
	<path class="st2" d="M356.9,362.7c0-1,0-1.7-0.1-2.5c-0.2-1.6-0.4-3.3-0.6-4.9c0-0.3-0.2-0.8-0.1-1c2.1-3,1.3-6.1,0.6-9.2
		c0,0,0-0.1,0-0.1c0.1-0.1,0.1-0.2,0.2-0.2c5.3-1.9,9.4-5.4,12.8-9.7c1.7-2.1,3.2-4.3,4.6-6.6c2.4-4,6-6.7,10-8.7
		c4.2-2.1,8.7-3.9,13-5.8c0.5-0.2,0.9-0.5,1.3-0.9c-3.1-0.3-6.2,0.1-9.1,1.2c-2.9,1.1-5.6,2.5-8.5,3.8
		c-7.1-12.5-14.8-24.9-23.6-36.4c8.6-6.1,17.2-12.3,25.9-18.5c2,3.1,4.2,6.4,6.3,9.7c5.1,8.2,9,16.9,13.1,25.6
		c3.5,7.5,6.7,15.1,9,23.1c0.5,1.9,0.9,3.9,1.2,5.9c0.5,3.4-0.7,6-3.8,7.6c-5.8,3-11.4,6-17.2,9c-9,4.6-18,9.2-27,13.9
		C362.2,359.2,359.8,360.9,356.9,362.7z"/>
	<path class="st3" d="M231.8,71.4c-1.2-8.3-2.7-16.5-1.3-24.8c0.1-0.7,0.3-1.4,0.5-2.1c0.4-1.2,0.9-2.1,2.5-1.9c1,0.1,1.7-0.9,1.7-2
		c0-3.7,2.7-6.5,6.3-7c0.7-0.1,1.6-0.7,1.8-1.3c1.4-4.1,4.6-5.3,8.5-5.4c1.7,0,3.4,0.3,5.1,0.5c1,0.1,1.7,0,2.3-0.9
		c2.2-3.1,5.8-4.5,9.6-3.4c1.1,0.3,2.2,0.9,3.3,1.4c1,0.5,1.9,0.5,2.8-0.3c2.7-2.4,5.9-2.9,9.3-1.8c1.4,0.5,2.7,1.1,4,1.5
		c0.9,0.2,1.9,0.3,2.8,0.1c2.8-0.8,5.6-0.8,8.4,0.3c2.5,1,4.2,2.6,4.2,5.6c0,1.2,0.8,1.7,1.9,2c1.8,0.5,3.6,1,5.2,1.7
		c1.9,0.9,3,2.5,2.7,4.8c-0.1,0.9,0.3,1.7,1.2,2c1.4,0.5,2.1,1.7,2.1,3.1c0.1,2.4,0.1,4.8-0.1,7.2c-0.5,6-1.1,11.9-1.6,17.9
		c0,0.5-0.1,0.9-0.4,1.4c-0.6-1.5-1.3-3-1.9-4.5c-1-2.7-2.3-5.2-4.1-7.4c-3.5-4.3-7.9-5.8-13.3-4.1c-2.6,0.9-5.2,1.9-7.7,3
		c-6.7,2.9-13.4,3.7-20.4,0.9c-3.3-1.4-6.6-2.6-9.9-3.9c-5.6-2.3-10.7-1.4-15.3,2.7c-4.3,3.8-7.1,8.5-9.4,13.6
		c-0.1,0.3-0.2,0.5-0.3,0.8C232.1,71.2,232.1,71.2,231.8,71.4z"/>
	<path class="st4" d="M239.6,702.6c1.1-2.8,2-5.4,3.1-8.1c1-2.4,3.9-3.7,6.8-3.3c2.4,0.4,4.1,2.1,4.4,4.9c0.1,1.3,0,2.6,0.1,4
		c0.2,3,0.3,6,0.6,9c0.2,2.1,1.5,3.4,3.6,3.7c4,0.6,8,1.2,12,1.7c2.1,0.3,2.7,0.5,3,2.7c0.2,1.2,0.3,2.6,0.2,3.8
		c-0.4,2.6-1,5.1-1.4,7.7c-0.5,2.7-2.1,4.5-4.6,5.4c-3,1.1-6.1,2.1-9.3,2.7c-9.6,1.9-19.4,3.1-29.2,3.3c-7.5,0.1-15-0.1-22.4-0.3
		c-3.1-0.1-6.1-1.1-8.6-3c-3.1-2.4-3.9-5.3-2.7-9.1c1.3-3.8,3.7-6.7,7.1-8.6c3.1-1.8,6.4-3.3,9.7-4.8c0.4-0.2,1.1,0,1.5,0.3
		c2.7,2.1,5.4,4.3,8.1,6.4c3.9,3.1,8.1,3.2,12.5,1.2c0.9-0.4,1.8-1.2,2.5-2c0.5-0.6,0.9-0.7,1.6-0.6c4.1,0.5,7.4-1.1,9.4-4.6
		c1.3-2.3,1.3-4.6,0-6.9C245.7,705.1,243.2,703.1,239.6,702.6z"/>
	<path class="st4" d="M351.1,706.8c-1.7,0-3.3-0.1-5,0c-3.4,0.3-6.4,1.8-8.8,4.3c-3.1,3.2-2.6,7.5,1.2,9.9c1.4,0.9,3.1,1.3,4.8,2
		c1.1,3.6,2.5,4.8,6.7,5.2c5.9,0.6,11.5-0.5,16.7-3.1c1.4-0.7,2.5-1.7,4-2.7c0.2,0.2,0.7,0.5,1.2,0.8c2.8,2.5,5.7,4.9,8.5,7.4
		c1.6,1.4,2.6,3.2,3.2,5.3c0.5,1.8,0.2,3.4-1.3,4.5c-1.5,1.1-3.1,2.2-4.8,2.9c-3.2,1.5-6.6,2.3-10.1,2.3c-5.8,0-11.7,0.1-17.5-0.5
		c-4.4-0.5-8.6-1.9-12.9-3.1c-4.7-1.3-9.3-2.6-13.9-4.1c-4.2-1.4-7.7-4.1-11-7c-0.4-0.4-0.9-0.9-1.1-1.4c-1-3-1.4-6.2-0.5-9.3
		c0.7-2.2,2.3-3.7,4.4-4.3c2.7-0.8,5.4-1.3,8.2-1.7c1.7-0.3,3.5-0.3,5.2-0.5c1.8-0.2,2-0.8,1.9-2.6c-0.1-2.3,0.1-4.6,0.3-6.9
		c0-0.8,0.2-1.7,0.3-2.5c0.4-3.2,2.2-5.1,5.3-6c2.2-0.7,4.5-0.9,6.8-0.7c3,0.3,5.2,1.9,6.1,4.8C349.9,702.1,350.4,704.5,351.1,706.8
		z"/>
	<path class="st2" d="M258.4,150.3c1.9,0.5,4,1.2,6.1,1.7c6.2,1.5,12.4,2.3,18.8,2.1c5-0.2,9.5-1.7,13.4-4.8
		c0.3-0.2,0.5-0.4,0.8-0.6c0.1,0,0.1,0,0.4-0.1c0.1,0.6,0.1,1.2,0.2,1.7c0.8,6.7,1.7,13.3,2.6,20c0.3,2.4,1.1,4.6,2.7,6.4
		c-9.7,5.3-38,6.5-47.2,2c1.4-4.6,2.8-9.2,2.8-14C258.9,159.9,258.5,155.2,258.4,150.3z"/>
	<path class="st5" d="M223.7,558.5c0-1.7,0-3.3,0-4.9c0-1.9,0.1-3.8,0.1-5.6c0-0.7,0.2-1,1-0.9c14,0.7,28,0,42-0.8
		c6-0.3,12.1-0.6,18.1-0.9c0.2,0,0.5,0,0.8,0c0,0.4,0.1,0.7,0.1,1.1c0,3.3,0,6.6,0.1,10c0,1.1-0.4,1.5-1.4,1.6
		c-10,1.1-19.9,1.7-29.9,1.1c-5.9-0.4-11.9-0.9-17.8-1.1c-3.9-0.1-7.8,0.3-11.7,0.4C224.6,558.4,224.2,558.5,223.7,558.5z"/>
	<path class="st5" d="M355.8,558.8c-3.3-0.4-6.5-0.7-9.7-1.1c-10-1.2-20-1.3-30.1-1.3c-4.4,0-8.8-0.1-13.2,0c-0.9,0-1.2-0.3-1.3-1.2
		c-0.2-3.5-0.4-6.9-0.6-10.5c0.4-0.1,0.8-0.1,1.1-0.1c17.3-0.9,34.6-1.4,51.9-1.3c1.3,0,1.6,0.4,1.6,1.6c0,4.4,0.1,8.7,0.2,13.1
		C355.8,558.2,355.8,558.4,355.8,558.8z"/>
	<path class="st6" d="M247.5,184.4c1.4-1.2,2.7-2.4,4-3.5c0.2-0.2,0.7-0.2,0.9-0.1c10.8,3.9,22,4.6,33.4,3.8
		c7.5-0.6,14.6-2.9,21.6-5.8c0.7-0.3,1-0.2,1.5,0.3c1.3,1.2,2.6,2.3,4.1,3.6c-1.4,0.7-2.6,1.4-4,1.8c-12.4,4.2-25,7.4-38.3,6.7
		c-7.6-0.4-14.8-1.8-21.5-5.5C248.6,185.2,248,184.8,247.5,184.4z"/>
	<path class="st2" d="M237.7,364.6c-4.1-0.5-8.8-1.1-13.5-1.8c-1.9-0.3-3.8-0.5-5.7-0.9c-1.9-0.4-2.3-1-2-2.9c0.2-1,0.5-2,0.7-3
		c0.4-2,1.7-2.6,3.6-3c5-1,9.8,0.1,14.7,0.5c1.7,0.1,3.3,0.5,5,0.8c1.8,0.4,3.3,1.4,4.3,3c0.9,1.6,1.7,3.2,2.6,4.9
		c0.5,0.9,0.1,1.4-0.8,1.5C243.8,363.9,241.1,364.2,237.7,364.6z"/>
	<path class="st7" d="M347.9,400.2c0.2,6.9,0.5,13.5,0.7,20.4c-8-5.3-15.5-11.2-23-16.9c0-0.1,0-0.2,0.1-0.4
		C333,402.3,340.4,401.3,347.9,400.2z"/>
	<path class="st2" d="M354.8,349.2c0.4,1.8-0.5,3.1-1.7,4.2c-2.8,2.7-5.6,5.4-8.5,8.1c-0.3,0.3-0.6,0.5-1,0.6
		c-2.3,0.6-4.6,1.2-7,1.8c-0.7,0.2-0.9-0.2-1-0.8c-0.2-2.9,0.3-5.4,2.7-7.5c4.1-3.6,8.1-7.5,13-10.1c1.7-0.9,2.9-0.3,3.2,1.6
		C354.7,347.9,354.7,348.5,354.8,349.2z"/>
	<path class="st2" d="M311.7,118c0.5-4.1,1-8.2,1.5-12.2c0.1-0.1,0.3-0.2,0.4-0.2c1,0.7,1.9,1.3,2.8,2c0.7,0.5,1.3,1.2,2.1,0.4
		c0.8-0.8,0.3-1.7-0.4-2.2c-1.3-1-2.8-1.7-4.4-2.7c0.3-2.9,0.7-6.1,0.8-9.4c0.1-1.9,1-3.1,2.5-4.1c1.6-1,3.1-0.7,3.9,1
		c0.6,1.2,1,2.6,1.2,4c1.2,9.7-2.1,17.5-10,23.3C312.1,117.9,312,117.9,311.7,118z"/>
	<path class="st2" d="M235.9,104.1c-1.3,1-2.6,1.8-3.7,2.8c-0.5,0.5-0.9,1.3-0.9,2c0,0.5,0.6,1,1,1.6c0.4-0.3,1.1-0.5,1.3-1
		c0.6-1.4,1.7-2.2,3.1-3.1c1.1,4.4,2.2,8.7,3.3,12.9c-0.1,0.1-0.2,0.2-0.4,0.3c-1.6-1.2-3.4-2.2-4.9-3.5c-4.9-4.4-7.7-9.9-8.4-16.4
		c-0.2-1.5,0-3.2,0.5-4.7c0.4-1.1,1.3-2.2,2.3-2.9c1.4-1,3.6,0,4.1,1.6C234.2,97.3,235.1,100.8,235.9,104.1z"/>
	<path class="st2" d="M222.9,348.4c-0.2-1.9-0.1-3.7,0.8-5.5c0.3-0.6,0.9-1.1,1.5-1.5c2.3-1.3,4.9-1.8,7.5-1.8
		c3.2,0,6.4,0.3,9.6,0.4c1.5,0.1,2.5,0.9,2.8,2.3c0.3,1.6,0.3,3.2,0.4,4.7c0,0.9-0.6,0.7-1.2,0.7c-5.2-0.1-10.4-0.2-15.6-0.1
		C226.8,347.8,224.9,348.1,222.9,348.4z"/>
	<path class="st8" d="M368.9,721c-6,3.6-12.2,5.1-18.8,4.5c-1-0.1-2-0.4-2.9-0.8c-1.2-0.6-1.5-1.6-0.8-2.8c0.4-0.7,1-1.4,1.6-1.9
		c3.2-2.6,7-4,11.1-4.6c0.3,0,0.7-0.1,0.9,0.1C362.9,717.3,365.9,719.1,368.9,721z"/>
	<path class="st2" d="M231.3,373.5c-2.5-0.3-5.7-0.7-9-1.3c-1.3-0.2-2.6-1-3.8-1.6c-1.2-0.6-1.5-1.7-1.2-3c0-0.2,0.1-0.4,0.1-0.6
		c0.6-2.5,0.7-2.5,3.2-2.1c5,0.7,10.1,1.2,15.1,2c1.2,0.2,2.5,1.1,3.4,2c1.2,1.3-0.1,3.8-2,4.1C235.4,373.4,233.7,373.4,231.3,373.5
		z"/>
	<path class="st7" d="M228.6,428.9c0-6.6,0-12.9,0-19.2c4.6,0,9.3,0,14.2,0C238,416.1,233.4,422.3,228.6,428.9z"/>
	<path class="st8" d="M215.4,712.9c1.5-0.4,2.8-0.7,4.1-1c2.2-0.5,4.4-1.1,6.6-1.6c0.5-0.1,1.1-0.1,1.5,0.1c1.9,1.2,3.7,2.5,5.5,3.9
		c0.4,0.3,0.8,0.8,1,1.3c1.1,1.8,0.7,3.1-1.2,4c-3.4,1.6-6.7,1.7-9.8-0.8C220.7,716.9,218.1,715,215.4,712.9z"/>
	<path class="st8" d="M356.1,713c-2.5,1.1-5.2,2.1-7.6,3.5c-1.5,0.9-2.7,2.4-4.1,3.6c-0.3,0.2-0.8,0.5-1.1,0.4
		c-1.4-0.6-2.9-1.1-4.2-2c-1.8-1.3-2-3.4-0.5-5.1c2-2.4,4.7-3.7,7.7-3.9c2-0.1,4,0.2,6.1,0.4c0.1,0,0.3,0.1,0.4,0.2
		C354,711.1,355.1,712.1,356.1,713z"/>
	<path class="st2" d="M349.7,342c-3.6,1.6-7.1,3.1-10.7,4.6c-0.6,0.3-1.3,0.5-1.9,0.7c-3.1,1.1-5.3,0.3-7.2-2.7
		c4.4-3.3,8.8-6.5,14.4-7.5c2.1-0.4,2.6-0.1,3.6,1.7C348.5,339.8,349,340.8,349.7,342z"/>
	<path class="st8" d="M230.4,709.1c1-0.4,1.9-0.6,2.7-1.1c1.5-0.8,2.9-1.8,4.3-2.7c0.3-0.2,0.6-0.3,0.8-0.3c3.2,0.2,5.6,1.7,7.1,4.5
		c1.3,2.3,0,5.5-2.7,7.1c-0.8,0.5-1.7,0.7-2.6,0.9c-2.2,0.5-2.4,0.3-3-1.8c-0.8-2.3-2.5-3.8-4.4-5.2
		C232,710.1,231.3,709.7,230.4,709.1z"/>
	<path class="st2" d="M217.9,373.4c4.5,2.3,9.3,2.5,14.2,2.6c1.3,0,1.7,0.4,1.4,1.6c-0.5,2.1-1.4,3.8-4,3.6
		c-2.8-0.3-5.6-0.2-8.4-0.6C217,380,215.8,377.3,217.9,373.4z"/>
	<path class="st2" d="M342.5,371.4c-0.2-1.8-0.5-3.3-0.6-4.8c0-0.3,0.4-0.9,0.7-1c2.4-0.5,4-2,5.6-3.7c1.9-2,4-3.9,6.1-5.9
		c0.3,1.7,0.3,3.2-0.3,4.5C351.7,365.5,347.5,368.8,342.5,371.4z"/>
	<path class="st2" d="M355.3,364.2c0.3,1.5,0,2.8-0.9,3.9c-1.1,1.5-2.2,2.9-3.2,4.5c-0.8,1.2-1.9,1.9-3.3,2.1
		c-0.4,0.1-1.3-0.1-1.4-0.4c-0.2-0.7-0.7-1.6,0.3-2.3c1.4-1,2.8-2,4.1-3.2C352.4,367.5,353.8,365.9,355.3,364.2z"/>
	<path d="M313.2,265.5c-5,0-10.4-1.5-14.4-6.1c-4.9-5.6-5.9-12.2-3.8-19.1c1.3-4.4,4.7-7.5,8.4-10c12.8-8.8,26.5-2.8,32.1,7.4
		c1.8,3.3,2.4,6.9,1.8,10.6c-0.5,3.3-1.5,6.5-3.1,9.4c-1.4,2.5-3.4,4.3-6.1,5.4C323.7,264.8,319,265.4,313.2,265.5z M312.8,262.3
		c5.6,0,10.3-0.9,13.7-2c2.5-0.9,4.4-2.4,5.4-4.9c0.9-2.2,1.7-4.4,2.3-6.7c0.7-2.6,0.4-5.2-0.5-7.8c-4.1-10.6-18.2-15.2-27.2-9.2
		c-2,1.3-3.7,3-5.4,4.7c-5.9,5.7-4.1,15.6-0.5,20C303.9,260.8,308.7,262.2,312.8,262.3z"/>
	<path d="M262.4,87.8c0.7,0.7,1.1,1.1,1.6,1.4c2.3,1.9,2.9,4.5,2.9,7.3c0,0.5-0.7,1.2-1.3,1.5c-2.7,1.1-5.5,2-8.4,1.5
		c-2.7-0.4-5.4-1-8-1.9c-4.1-1.5-3.7-4.4-1.1-7.6c0.6-0.7,1.6-1.2,2.3-2c-0.9,0.1-1.9,0.1-2.8,0.2c-1.2,0.1-2.3-0.1-2.8-1.3
		c-0.6-1.4-0.9-2.9-0.1-4.3c0.2-0.4,0.9-0.7,1.4-0.8c5.6-1,11.2-1.3,16.8-0.3c2.4,0.4,4,1.5,5.2,3.7c2.1,3.9,3.9,7.9,4.7,12.3
		c0.9,5.2-0.7,9.7-3.5,14c-0.7,1.1-1.5,2.1-2,3.2c-0.2,0.5-0.2,1.4,0.1,1.7c3.1,3.6,6.9,5.4,11.8,4.5c0.3-0.1,0.7-0.1,0.9-0.3
		c1.9-1.7,4.1-3.2,4.4-6.1c0-0.3-0.1-0.7-0.1-1c0.1-0.4,0.2-0.8,0.4-1.2c0.3,0.3,1,0.6,1,0.8c-0.1,1.2-0.3,2.3-0.6,3.4
		c-0.2,0.7-0.7,1.3-0.9,2.1c-1,2.9-2.9,4.4-5.9,4.7c-4.9,0.4-8.9-1.5-12.2-4.9c-1.7-1.7-1.8-3.1-0.6-5.2c0.8-1.3,1.7-2.5,2.5-3.8
		c3-4.7,3.9-9.7,2.1-15.1c-0.6-1.8-1.3-3.6-2-5.4c-0.3-0.7-0.7-1.1-1.5-1C265.3,87.9,264,87.8,262.4,87.8z M266.2,86.1
		c-0.5-1.5-1-2-2.6-2.3c-5.6-1.1-11.2-0.8-16.8,0.1c-0.2,0-0.5,0.3-0.6,0.5c-0.4,1.2,0.3,2.1,1.5,2.1c4.1-0.1,8.2-0.2,12.3-0.3
		C262.1,86.1,264.1,86.1,266.2,86.1z M260.7,95.9c0.6-0.1,1.3-0.2,2-0.4c1.4-0.5,2.1-2.3,1.2-3.3c-1.4-1.5-3-2.8-5.1-3.1
		c-0.4,0-1.1,0.2-1.4,0.6c-0.9,1.3-1.3,2.7-0.6,4.3C257.6,95.4,259,95.7,260.7,95.9z M255.5,89.2c-0.1-0.1-0.2-0.2-0.2-0.3
		c-1.4,0.6-2.9,1.2-4.3,1.9c-1.1,0.5-1.9,1.4-2.3,2.6c-0.3,0.9-0.1,1.4,0.6,1.8c2.4,1.3,5.1,1.7,8.2,2.1
		C254.3,94.9,254.1,92.2,255.5,89.2z"/>
	<path d="M285.6,88.6c-0.6,0-1.2,0.1-1.9,0.1c-1,0.1-1.8-0.4-2-1.4c-0.3-1.4-0.5-2.8-0.6-4.2c-0.1-0.7,0.3-1.2,1.1-1.2
		c6.3,0.1,12.5,0.1,18.8,0.2c0.6,0,1.2,0.2,1.8,0.3c2.6,0.7,3.5,2.4,2.5,4.9c-0.4,1-1.1,1.1-2,1c-1.5-0.2-3.1-0.3-4.7-0.1
		c0.2,0.1,0.4,0.3,0.6,0.4c0.4,0.2,0.9,0.4,1.3,0.6c3.3,1.9,3.6,5,0.6,7.3c-2.9,2.3-6.2,2.9-9.7,2.5c-2.2-0.2-4.3-0.7-6.5-1.2
		c-3.9-1-3.4-2-2.3-5.5c0.3-1,1.3-1.7,2-2.5c0.3-0.4,0.7-0.6,1.1-0.9C285.6,88.8,285.6,88.7,285.6,88.6z M282.8,83.8
		c0.1,0.8,0.3,1.4,0.4,2c0.1,0.9,0.6,1.1,1.5,1.1c6.4-0.4,12.7-1,19.1-0.4c0.5-1.6,0.3-2.1-1.2-2.4c-0.9-0.2-1.8-0.3-2.7-0.3
		c-4.5,0-9,0-13.5,0C285.1,83.8,284,83.8,282.8,83.8z M290,92.2c0,2.1,1.7,3.7,3.9,3.8c2.1,0.1,4.1-1.5,4.3-3.4
		c0.2-1.5-0.3-2.3-1.8-2.6c-1.1-0.3-2.3-0.4-3.4-0.5C290.9,89.2,290,90.1,290,92.2z M288.9,89.7c-2.2,1-4,2.4-5,4.6
		c-0.1,0.3,0,1.1,0.2,1.1c1.9,0.5,3.8,0.9,5.8,1.3C288.1,94.4,287.6,92.2,288.9,89.7z M300,91.6c-0.3,1.2-0.6,2.4-0.8,3.5
		C301.2,94.1,301.5,92.9,300,91.6z"/>
	<path d="M288.6,133.8c-5.9-0.5-11.9-1-17.8-1.6c-3.2-0.3-6.4-0.7-9.7-1.1c-2.3-0.3-4.3-1-5.1-3.5c-0.1-0.4-0.3-0.9-0.2-1.3
		c0.1-0.6,0.5-1.1,0.8-1.7c0.6,0.4,1.2,0.7,1.6,1.2c0.4,0.4,0.4,1.1,0.7,1.6c0.2,0.2,0.7,0.5,1,0.4c3-1.2,6.2-1.3,9.3-1.5
		c6.7-0.4,13.2,0.7,19.6,2.9c1.1,0.4,2.2,1,3.2,1.6c0.7,0.4,1.2,0.7,1.6-0.4c0.1-0.4,1-0.9,1.5-0.8c0.8,0.1,1,0.8,0.8,1.6
		c-0.3,1.5-1,2-2.5,2.1c-1.6,0.1-3.2,0.2-4.8,0.2C288.6,133.6,288.6,133.7,288.6,133.8z M288.2,131.5c0-0.2,0-0.3,0-0.5
		c-8.3-3-16.8-3.5-25.5-2.3c0,0.1,0,0.3,0,0.4C271.3,129.9,279.7,130.7,288.2,131.5z"/>
	<path d="M276.8,139.7c-1.7-0.5-3.6-1-5.4-1.6c-0.5-0.2-1-0.5-1.3-0.9c-0.3-0.4-0.4-1-0.6-1.5c0.5,0,1.1-0.2,1.5,0
		c2.2,0.9,4.4,1.3,6.8,1.3c0.6,0,1.2,0,1.8,0.2c0.4,0.1,0.9,0.5,0.9,0.8c0,0.4-0.3,1-0.7,1.1C278.9,139.2,278,139.4,276.8,139.7z"/>
	<path class="st9" d="M312.8,262.3c-4.1-0.1-8.9-1.5-12.3-5.9c-3.5-4.4-5.3-14.3,0.5-20c1.7-1.7,3.5-3.3,5.4-4.7
		c9-6,23.1-1.4,27.2,9.2c1,2.5,1.2,5.2,0.5,7.8c-0.6,2.3-1.4,4.5-2.3,6.7c-1,2.5-2.9,4-5.4,4.9C323.1,261.5,318.4,262.3,312.8,262.3
		z M324.1,246.1c-2,0-3.9,0-5.9,0c0-2,0-3.8,0-5.7c-2.1,0-4.1,0-6.3,0c0,2,0,3.9,0,5.7c-1.8,0-3.4,0-5.2,0c0-1.9,0-3.7,0-5.5
		c-2.1,0-4.1,0-6.2,0c0,2.2,0,4.3,0,6.5c1.9,0,3.8,0,5.8,0c0,1.9,0,3.7,0,5.5c2.2,0,4.2,0,6.4,0c0-2,0-3.8,0-5.7c1.8,0,3.5,0,5.3,0
		c0,1.9,0,3.8,0,5.7c2.2,0,4.2,0,6.4,0c0-1.9,0-3.7,0-5.6c2.1,0,4,0,6,0c0-2.2,0-4.3,0-6.5c-2.1,0-4.1,0-6.3,0
		C324.1,242.5,324.1,244.3,324.1,246.1z"/>
	<path class="st3" d="M266.2,86.1c-2.1,0-4.1,0-6.2,0c-4.1,0.1-8.2,0.2-12.3,0.3c-1.3,0-2-0.9-1.5-2.1c0.1-0.2,0.4-0.4,0.6-0.5
		c5.6-0.9,11.2-1.2,16.8-0.1C265.2,84.2,265.7,84.7,266.2,86.1z"/>
	<path class="st3" d="M260.7,95.9c-1.7-0.1-3.1-0.5-3.8-1.9c-0.8-1.5-0.4-3,0.6-4.3c0.3-0.4,0.9-0.6,1.4-0.6
		c2.2,0.2,3.7,1.6,5.1,3.1c0.9,1,0.2,2.8-1.2,3.3C262,95.7,261.3,95.7,260.7,95.9z"/>
	<path class="st10" d="M255.5,89.2c-1.5,3.1-1.3,5.7,1.9,8.1c-3.1-0.4-5.7-0.8-8.2-2.1c-0.8-0.4-1-0.9-0.6-1.8
		c0.5-1.2,1.2-2.1,2.3-2.6c1.4-0.7,2.9-1.3,4.3-1.9C255.4,89,255.5,89.1,255.5,89.2z"/>
	<path class="st3" d="M282.8,83.8c1.3,0,2.4,0,3.5,0c4.5,0,9-0.1,13.5,0c0.9,0,1.8,0.1,2.7,0.3c1.5,0.3,1.8,0.8,1.2,2.4
		c-6.4-0.6-12.7-0.1-19.1,0.4c-0.9,0.1-1.4-0.2-1.5-1.1C283,85.2,282.9,84.6,282.8,83.8z"/>
	<path class="st3" d="M290,92.2c0-2.1,0.9-3,3-2.8c1.1,0.1,2.3,0.3,3.4,0.5c1.5,0.3,2,1.2,1.8,2.6c-0.2,1.8-2.3,3.5-4.3,3.4
		C291.7,95.9,290,94.3,290,92.2z"/>
	<path class="st10" d="M288.9,89.7c-1.2,2.6-0.8,4.8,0.9,7c-1.9-0.4-3.8-0.8-5.8-1.3c-0.2,0-0.3-0.8-0.2-1.1
		C284.9,92,286.7,90.7,288.9,89.7z"/>
	<path class="st10" d="M300,91.6c1.5,1.2,1.2,2.5-0.8,3.5C299.4,94,299.7,92.8,300,91.6z"/>
	<path class="st3" d="M288.2,131.5c-8.5-0.8-17-1.6-25.5-2.5c0-0.1,0-0.3,0-0.4c8.7-1.2,17.2-0.7,25.5,2.3
		C288.3,131.2,288.3,131.4,288.2,131.5z"/>
	<path d="M324.1,246.1c0-1.8,0-3.6,0-5.5c2.2,0,4.2,0,6.3,0c0,2.2,0,4.3,0,6.5c-2,0-3.9,0-6,0c0,1.9,0,3.7,0,5.6c-2.2,0-4.2,0-6.4,0
		c0-1.9,0-3.7,0-5.7c-1.8,0-3.5,0-5.3,0c0,1.8,0,3.7,0,5.7c-2.2,0-4.2,0-6.4,0c0-1.8,0-3.6,0-5.5c-2,0-3.9,0-5.8,0
		c0-2.3,0-4.4,0-6.5c2.1,0,4.1,0,6.2,0c0,1.8,0,3.6,0,5.5c1.8,0,3.4,0,5.2,0c0-1.9,0-3.8,0-5.7c2.2,0,4.2,0,6.3,0c0,1.9,0,3.8,0,5.7
		C320.1,246.1,322,246.1,324.1,246.1z"/>
</g>
</svg>
