<?xml version="1.0" encoding="utf-8"?>
<!-- Generator: Adobe Illustrator 22.1.0, SVG Export Plug-In . SVG Version: 6.00 Build 0)  -->
<svg version="1.1" id="Слой2_xA0_Изображение_1_"
	 xmlns="http://www.w3.org/2000/svg" xmlns:xlink="http://www.w3.org/1999/xlink" x="0px" y="0px" viewBox="0 0 552 621.4"
	 style="enable-background:new 0 0 552 621.4;" xml:space="preserve">
<style type="text/css">
	.st0{fill:#82B846;}
	.st1{fill:#F3DCCE;}
	.st2{fill:#F5CA4A;}
	.st3{fill:#FF339A;}
	.st4{fill:#21120B;}
	.st5{fill:#627B27;}
	.st6{fill:#EBA8A0;}
	.st7{fill:#FFFFFF;}
</style>
<g>
	<path d="M422,118.4c-1.1,0.4-2,0.8-2.9,1.2c-1.9,14.2-11.1,22.5-23.3,28.2c-1.6,0.8-2.6,1.5-3.2,3.4c-2.3,7.6-5.5,14.9-9.1,21.9
		c-4.3,8.3-10.6,14.8-18,20.3c-0.7,0.5-1.4,1-2,1.5c1.7,4.6,3.3,9.2,4.9,13.8c0.1,0.2,0.2,0.5,0.3,0.8c0.5,2.1,1.2,4.1,3.8,4.3
		c4.6,3.8,10.5,5.6,15,9.8c7.5,7,13.9,14.9,19.4,23.5c9.3,14.7,17.1,30.2,24.9,45.7c14.8,29.5,28,59.7,40.2,90.3
		c2.2,5.5,4,11.1,4.8,16.9c1,7.7-0.1,14.7-6,20.3c-6.5,6.2-15.9,8.2-23.3,4.9c-4-1.8-7.2-4.7-10-8c-4.5-5.3-7.8-11.3-11.2-17.3
		c-1.9-3.4-3.7-6.8-5.7-10.4c-0.1,0.3-0.1,0.5-0.1,0.6c0.3,4.4,0.5,8.8,0.9,13.2c0.2,2.7-0.6,4.4-3.1,5.4c-0.8,0.3-1.1,0.7-1.1,1.5
		c0,3.8,0,7.5,0,11.4c-0.2-0.1-0.1,0-0.1,0c4.7-0.6,8.4,1.6,11.8,4.5c10.7,9.3,19.5,20.1,25.7,33.1c7.9,16.4,15.3,33.1,22.5,49.8
		c2.5,5.8,5.3,11.6,7.9,17.4c0.9,2,0.9,2.6-1,3.5c-3.3,1.5-6.7,3-10.2,4c-13.4,4.1-27.1,6.3-41.1,6.4c-8.2,0-16.5,0.1-24.7-0.6
		c-12.8-1-25.5-2.8-38.1-5.6c-6.8-1.5-13.6-3.2-20.4-4.9c-0.4-0.1-0.9-0.2-1.3-0.1c-3.9,1.3-7.8,2.9-11.8,4.1
		c-19.3,5.7-38.5,11.4-57.8,16.7c-17.1,4.7-34.4,9.2-51.6,13.3c-20.5,4.9-41.2,9.5-61.8,14.2c-6.3,1.4-12.5,1.5-18.8-0.1
		c-2.4-0.6-5-0.3-7.3-0.9c-4.4-1.1-8.9-2.4-13.2-3.9c-4-1.4-6.8-4.2-8.3-8.3c-2.9-8.2-6.1-16.4-9.1-24.6c-0.8-2.2-1.3-4.5-1.9-6.9
		c-2.5,0.2-4.9,0.3-7.3,0.6c-6.5,0.8-12.9,0.6-19.4,0.1c-5.1-0.4-10.1-0.9-15.2-1.5c-2.6-0.4-5.2-1.1-7.7-1.9
		c-3.5-1.2-6.1-3.5-7.5-6.9c-1.6-3.9-3.1-7.9-4.4-11.9c-4.3-13.3-8.5-26.6-12.7-39.9c-0.9-2.8-1.3-5.8-0.7-8.8
		c0.1-0.7,0.4-1.5,0.7-2.1c0.8-1.5,2.3-2,3.7-1.2c1.3,0.8,2.6,1.8,3.5,2.9c4,4.7,7.8,9.6,11.8,14.4c1.9,2.2,4,4.2,6,6.2
		c3.5,3.5,7.7,4.4,12.5,3.2c9.5-2.3,18.9-4.7,28.4-6.6c11-2.2,21.7-5.5,32.5-8.3c3.5-0.9,7-1.7,10.4-2.6c0.5-0.1,1-0.7,1.1-1.2
		c0.8-3.3,1.5-6.6,2.1-9.8c0.8-4.2,2.4-8.1,4.7-11.8c5-8.2,10-16.3,16.3-23.6c7.2-8.3,16.2-13.1,27.2-14.2c7-0.7,14.1-1.6,21.1-2.3
		c2.8-0.3,5.6-0.1,8.4-0.1c2,0,4-0.2,6-0.1c3,0,5-1.7,5.5-4.9c-1.7,0.5-3.3,1-4.9,1.4c-5.6,1.1-10.5-1-13.6-5.9
		c-2.1-3.3-2.9-7.1-3.5-10.9c-1.9-12,0.4-23.3,6-33.9c6.4-12,12.9-23.9,19.6-35.7c11.7-20.7,22.7-41.9,32.3-63.7
		c1.6-3.7,3.7-7.1,5.6-10.7c0.3-0.5,0.6-1,0.7-1.5c1.9-5.5,3.1-7.2,7.3-10.9c-0.9-3.5-1.8-7-2.8-10.4c-0.1-0.3-0.7-0.7-1.1-0.7
		c-7.7-1-15.1-2.7-22.1-6.2c-14-7-25.2-16.9-32.6-30.9c-0.2-0.4-0.8-1-1.2-1c-4-0.3-7.9-1.1-11.9-2.7c0.5,0.9,1,1.6,1.3,2.3
		c2.2,4.3,2.6,8.7,1.5,13.4c-1.6,6.8-4.9,12.6-10,17.3c-3.8,3.6-8.3,4.4-13.1,2.4c-5.4-2.2-9.4-5.8-11.6-11.4c0-0.1-0.1-0.2-0.3-0.4
		c-0.3,0.4-0.6,0.8-0.9,1.1c-8,8.8-17.6,15.1-28.9,18.8c-2.8,0.9-5.7,1.1-8.5,0.3c-5.4-1.4-8.5-6.6-7.7-12.6c0.7-4.9,3.1-8.9,6-12.7
		c1.3-1.6,2.6-3.1,3.8-4.9c-0.4,0.2-0.9,0.4-1.3,0.6c-2.3,0.7-4.5,1.7-6.8,2.1c-3.1,0.5-4.7-1.4-3.7-4.4c0.9-2.6,2.1-5.1,3.4-7.5
		c4.8-8.8,10.8-16.6,19-22.6c5.3-3.9,11-6.7,17.6-7.7c4.6-0.7,9.1-0.1,13.4,1.9c-0.4-1.7-1-3.2-1.3-4.8c-1-5.7-0.5-11.4,0.4-17.1
		c2.1-13.5,7.8-25.6,14.8-37.3c5.5-9.2,11.5-17.9,19.3-25.3c8.9-8.5,19-15.1,31-18.3c7.2-1.9,14.6-2.3,22-1.3
		c5.3,0.7,10.5,1.4,15.8,2.2c0.7,0.1,1.4,0.3,2.2,0.5c0.1-0.6,0.1-1.1,0.2-1.7c0.5-4.3,2.9-7.4,6.4-9.8c4.5-3.1,9.6-4.4,14.9-5.3
		c9.8-1.6,19.5-0.5,29.2,1.3c15.7,3,30.8,8.1,44.8,15.9c9.3,5.2,17.8,11.2,24.8,19.3c4.5,5.2,7.8,11.2,9.1,18c0,0.2,0.1,0.3,0.2,0.5
		c2.4-0.9,2.9-0.7,4.5,2.3c1.1-1,2.1-2,3.2-3c5.2-4.4,11.1-7.5,17.4-10.1c5-2.1,10.2-3.6,15.7-3.4c1.1,0.1,2.2,0.2,3.3,0.5
		c4.9,1.4,7.1,5.1,6,10c-0.8,3.6-2.8,6.7-5.1,9.5c-0.4,0.4-0.8,0.9-1.2,1.4c2.6-0.4,5-0.9,7.5-1c12.6-0.9,24.2,1.6,33.9,10.4
		c3,2.7,5.1,6,5.8,10c0.7,4-0.7,7.2-3.9,9.5c-3.2,2.4-7.1,3.2-11,3.4c-7.9,0.4-15.7-0.9-23.4-2.5c-1.9-0.4-3.8-0.8-5.9-1.2
		c0.9,1.2,1.7,2.2,2.5,3.2c1.6,2.1,2.9,4.4,3.4,7c0.9,4.5-1.1,8.4-5.2,10.4c-3.4,1.7-6.9,1.9-10.5,1.3
		c-15.5-2.5-26.1-11.4-32.4-25.7c-0.3-0.6-0.4-1.3-0.6-1.9C422.3,119.6,422.1,118.9,422,118.4z M234.1,406.3c1.9,0.6,3.9,1,5.7,1.9
		c2.6,1.4,5.2,2.9,7.4,4.8c8.8,7.7,17.6,15.4,26,23.5c16.6,16.2,35.3,29,56.4,38.5c18,8.1,36.9,12,56.6,11.3
		c8.2-0.3,16.4-1,24.6-1.9c8.5-1,17-2.4,25.5-3.7c2.2-0.3,4.4-0.9,6.6-1.4c-0.2,0.3-0.4,0.4-0.7,0.4c-2.6,0.6-5.2,1.3-7.9,1.9
		c-15,3.5-30.1,6.5-45.5,7.2c-13.4,0.6-26.6-0.4-39.5-4c-25.3-7.2-47.8-19.8-67.5-37c-11.2-9.7-21.8-20.1-32.9-30
		c-3.1-2.8-6.5-5.2-10-7.4c-3.1-1.9-6.7-2.4-10.4-2.1c-3.3,0.3-6.7,0.1-10.1,0.4c-8.7,0.8-17.4,1.6-26,2.5
		c-9.3,1-17.1,4.9-23.4,11.8c-7.5,8.3-13.3,17.7-18.8,27.4c-0.2,0.3-0.3,0.7-0.6,1.4c0.7-0.6,1-0.9,1.4-1.2c3.2-3.2,7-5.5,11.1-7.4
		c6.1-2.8,12.4-4,19.1-2.8c5.5,1,10.4,3.1,15.1,6c7.3,4.6,14.5,9.2,21.6,14c6.1,4.1,11.9,8.8,18,12.9c6.5,4.4,13.2,8.5,19.9,12.5
		c10.3,6.2,21.4,11,32.3,16.1c16.2,7.5,32.5,14.9,49.4,20.6c10.5,3.6,21.4,6,32.2,8.3c12.4,2.7,24.9,4.6,37.5,5.6
		c8.2,0.7,16.5,0.6,24.8,0.6c15.5,0,30.6-2.8,45.4-7.5c1.5-0.5,3-1,4.5-1.5c-2.4-5.2-4.7-10.2-7-15.2c-7.5-16.5-15-32.9-22.3-49.5
		c-5.8-13-14-24.1-24.6-33.4c-1.9-1.7-4.1-3.2-6.3-4.5c-1.8-1-4-1.2-6-0.3c-1.4,0.6-2.8,1.4-4.2,1.9c-6.8,2.2-13.8,3.2-20.9,3.1
		c-8.9-0.1-17.9-0.5-26.8-1c-7.9-0.5-15.8-0.9-23.5-2.1c-15.8-2.5-30.1-8.6-43.1-18c-3.1-2.2-5.9-4.8-8.8-7.3
		c-5.2-4.5-11.3-7.4-17-11c-5-3.2-10.5-3.8-16.2-3.6c-4.8,0.2-9.1,2.1-13.5,3.7c-0.9,0.3-1.8,1.1-2.1,1.9c-1,2.4-1.8,5-2.7,7.5
		C236.2,402.4,236,404.9,234.1,406.3z M284.4,231.3c-2.2,1.9-3.6,4.2-4.6,6.7c-2.1,5.6-3,11.4-3.2,17.3c-0.2,6.9-0.2,13.9-0.2,20.9
		c0,3.2-0.2,6.4,0.1,9.6c0.7,6.8,1.9,13.5,2.4,20.3c0.7,9,1.1,18.1,1.4,27.2c0.4,10.2,0.5,20.5,0.7,30.7c0.1,7.3-1.5,14-5.7,20.1
		c-0.5,0.7-0.3,1.3,0.2,1.7c2.9,2.5,5.5,5.3,8.7,7.4c9.8,6.3,20.4,11.3,31.5,14.7c14.1,4.3,28.5,6.9,43.1,8.8
		c11.1,1.5,22.3,1.4,33.3-0.8c7.4-1.5,14.5-3.6,20.9-7.8c1.4-0.9,2.9-1.7,4.3-2.6c0.4-0.3,0.7-0.9,0.6-1.4c-0.1-1.4-0.4-2.7-0.5-4.1
		c-0.7-9.1-1.2-18.3-1.9-27.4c-0.5-6.3-1.2-12.6-2-18.9c-1.1-8.5-2.5-17.1-3.8-25.6c-0.9-5.9-1.6-11.9-2.7-17.8
		c-0.9-4.9-2.5-9.6-3.7-14.4c-3.5-13.9-6.9-27.8-11.5-41.4c-3.4-10-7.3-19.8-12.8-28.8c-1.7-2.7-3.8-5.2-5.9-7.7
		c-0.6-0.7-1.5-1.2-2.5-2c0.3,1.7,0.6,3.1,0.7,4.4c0.6,7.3-2.1,13.2-7.3,18.2c-8.1,7.8-17.6,13.1-28.5,15.6
		c-10.9,2.5-21.5,2.2-31.9-2c-8.8-3.6-15.2-9.6-18.4-18.7C285.1,232.8,284.8,232.2,284.4,231.3z M250.7,79.4
		c-0.2,1.8-0.2,3.6-0.5,5.2c-0.9,4.2,2.2,8.3,6.2,9.6c0.7,0.2,1.5,0.3,2.2,0.2c4.9-0.8,9.4,0.3,13.5,3c2,1.4,4,2.9,4.4,5.5
		c0.8,4.8,0.1,9.4-3.2,13.2c-2.1,2.5-4.6,4.4-7.5,5.8c-7.3,3.4-15.8,0.1-19-7.2c-0.2-0.4-0.3-0.8-0.5-1.2
		c-4.3,6.3-16.3,6.1-18.7,0.7c2.3,0.4,4.7,0.9,7.1,1.1c3.9,0.4,7.4-0.4,10.1-3.5c0.3-0.4,0.7-1,0.7-1.5c0.2-2.1,0.4-4.3,0.5-6.4
		c-5.4,0.7-10.7-0.1-15.3-4c-0.3,0.4-0.5,0.8-0.8,1.1c-4,6.1-7.1,12.7-9.5,19.5c-2.5,7-3.9,14.1-3.4,21.6c0.2,3.5,0.1,7.1,0.7,10.6
		c1.5,8.5,4.4,16.5,8.4,24.1c8.9,17.3,22.7,28.9,41.1,34.8c9.3,3,19,3.4,28.6,3.9c10,0.4,19.7-1.4,29.1-4.4
		c15-4.8,28.4-12.7,40.9-22.2c5.8-4.4,10.6-9.7,14.1-15.9c4.2-7.4,7.7-15.1,10-23.4c2.8-10.1,3.6-20.4,1.5-30.7
		c-1.7-8-5.1-15.3-7.9-22.9c-0.1-0.3-0.3-0.6-0.5-0.8c-2-3-4-6.1-6-9.1c-5.5-7.9-12.1-14.6-20.6-19.2c-0.4-0.2-0.8-0.4-1.3-0.7
		c-0.9,6-3.7,10.5-8.5,13.4c1.5,1.9,3.1,3.9,4.7,5.9c5.2-1.7,9.8-4.6,12.3-10.4c0,0.5,0,0.7,0,0.8c-0.5,2.1-1.1,4.3-1.7,6.4
		c-0.1,0.3-0.4,0.6-0.7,0.8c-2.8,2.4-5.9,4.2-9.6,5.5c0,0.5,0.1,1.2,0.1,1.8c0.2,2.9-0.4,5.5-2,8c-3.8,6-9.5,8.9-16.4,9.4
		c-5.4,0.4-9.6-2.3-13.1-6c-5.6-5.8-4.6-13,0.8-18.1c2.8-2.5,5.9-4.5,9.7-5.2c0.6-0.1,1.2-0.4,1.6-0.8c1.8-2.3,3.3-4.7,4-7.6
		c0.4-1.6,0.6-3.2-0.3-4.6c-0.9-1.4-1.9-2.8-2.8-4.1c3.8,0,6.2,2.4,6.1,6.4c0,3.3-1.4,6.1-3.2,8.7c-0.2,0.3-0.5,0.7-0.6,0.9
		c2.2,0.3,4.2,0.4,6.2,0.9c1.3,0.3,2.4,0.1,3.4-0.6c4-2.8,6.4-6.6,7.1-11.5c0.2-1.1-0.3-1.7-1.3-2.2c-11.3-5.2-23-8.7-35.5-9.7
		c-11.5-0.9-22.7,0.4-33.3,4.9c-11.5,4.9-22.3,11.2-32.1,19c-6.2,4.9-11.6,10.4-16.1,16.9c-1.9,2.7-1.9,2.9,1.1,4.5
		c3.8,2,7.8,2.4,12,2.1c0.4,0,0.8-0.4,1.2-0.7c1.8-1.5,3.5-3,5.3-4.6c0.2-0.2,0.5-0.4,0.7-0.6C246.6,92.4,245.1,85,250.7,79.4z
		 M142.2,567.2c-0.1,0-0.3,0.1-0.4,0.1c-0.4-0.8-0.8-1.5-1-2.4c-0.8-2.6-1.7-5.2-2.4-7.9c-3.3-13.9-8.3-27.3-13-40.8
		c-1.7-4.9-4.4-9.1-8.8-12c-1.1-0.7-2.2-1.4-3.4-1.7c-2.9-0.9-3.9-0.4-5,2.4c-2.1,5.6-2.8,11.5-1.4,17.3c1.2,5,2.5,10,4.2,14.9
		c3,8.8,6.4,17.4,9.5,26.2c1.1,3,3,4.9,5.8,6.2c1,0.4,2,0.9,3.1,1.2c5.9,2.3,12.1,3.1,18.3,4c5.6,0.9,11.2,0.9,16.7-0.4
		c3.9-0.9,7.9-1.7,11.8-2.6c27.8-6.5,55.8-12.4,83.3-20.2c10.2-2.9,20.7-5,31-7.9c16.8-4.8,33.6-9.9,50.4-14.9
		c0.9-0.3,1.8-0.6,3-0.9c-1.2-0.4-2.1-0.6-3-0.9c-12.2-4.1-24.1-8.9-35.9-14.2c-17.5-7.9-35.2-15.5-51.9-25
		c-1.2-0.7-2.3-1.8-3.5-1.8c-1.2,0-2.4,1-3.6,1.6c-11.9,5.2-23.1,11.5-34.3,17.9c-14.8,8.5-29.1,17.8-44.3,25.8
		c-4.8,2.5-9.7,4.7-15,5.9c-5.4,1.2-9.7-0.2-13-4.7c-0.8-1-1.6-2-2.3-3.1c-2.2-3-4.3-6-6.5-8.9c-0.3-0.4-0.5-0.7-0.8-1
		C134.9,535.2,140.4,550.7,142.2,567.2z M35.2,461.7c-0.1,0.1-0.3,0.1-0.4,0.2c-0.1,0.6-0.4,1.2-0.3,1.8c0.2,2.3,0.1,4.7,0.8,6.8
		c3.6,11.6,7.3,23.1,11.1,34.6c1.7,5.3,3.6,10.5,5.5,15.6c1.3,3.6,4,6,7.8,6.8c3.6,0.8,7.2,1.5,10.8,1.9c9.1,1,18.2,1.9,27.4,1
		c2.6-0.2,5.2-0.4,7.9-0.7c-0.2-0.6-0.3-1.1-0.4-1.6c-2-5.3-2.5-10.7-1.8-16.3c0.5-3.3,1.1-6.6,2.8-9.6c1.5-2.6,3.1-3.3,6.1-2.8
		c4.1,0.7,7.3,2.9,10,5.9c1.8,1.9,3.5,3.9,5,6c3.6,4.7,7.1,9.4,10.6,14.1c0.3,0.4,0.9,0.8,1.3,0.8c6.9-0.9,13.8-1.8,20.6-3
		c6.2-1.1,12.3-2.3,18.4-3.9c3.6-0.9,7.3-1.7,10.5-3.9c4.7-3.1,9.6-5.8,14.5-8.6c13.7-8.1,27.5-15.9,42.1-22.3
		c0.3-0.1,0.7-0.4,1.1-0.6c-0.3-0.3-0.6-0.4-0.8-0.6c-7.6-5.4-15.2-10.9-22.9-16.1c-9-6.1-18.2-12-27.3-18c-0.4-0.3-1.1-0.5-1.5-0.4
		c-1.5,0.5-2.9,1.2-4.4,1.9c-4.6,2.4-9.2,4.8-13.8,7.1c-13.8,6.8-27.8,12.8-42.9,16c-10.9,2.3-21.4,6-32.4,8.2
		c-9.9,2-19.8,4.5-29.6,6.9c-6,1.5-11.2,0.3-15.7-4c-1.7-1.6-3.5-3.2-4.9-5c-4.2-5.1-8.3-10.3-12.4-15.4
		C37.1,463.6,36.1,462.7,35.2,461.7z M381,222.2c-0.1,0.1-0.1,0.1-0.2,0.2c0.2,0.3,0.3,0.5,0.4,0.8c2.1,3.8,4.3,7.5,6.2,11.4
		c5.5,11.4,9.5,23.5,12.7,35.7c2.7,10.3,5.5,20.7,7.7,31.1c2.6,12.6,4.6,25.4,6.8,38.1c2,11.5,3.4,23.1,4.5,34.8
		c0.2,2.1,0.1,4.5,0.9,6.4c4.8,10,9.9,19.8,16,29.1c2.7,4.1,5.7,7.9,9.8,10.7c2.5,1.8,5.3,2.8,8.4,2.9c12,0.3,20.7-9.7,19.2-21.5
		c-0.7-5.8-2.4-11.4-4.5-16.9c-11.6-29.4-24.2-58.3-38.2-86.7c-7.8-15.8-15.7-31.6-24.9-46.7c-6-9.8-12.8-19-21.5-26.7
		C383.1,223.9,382,223.1,381,222.2z M273.7,249.7c-0.2,0.4-0.4,0.9-0.6,1.3c-1.5,3.6-3,7.2-4.6,10.7c-8.3,19.2-18.3,37.6-28.4,55.8
		c-6.6,11.9-13.2,23.8-19.6,35.9c-4.9,9.3-7.1,19.3-5.5,29.9c0.5,3.2,1.2,6.4,2.4,9.3c2,4.8,6,6.8,10.9,5.8c1.5-0.3,3-1,4.5-1.5
		c1.6-0.6,2.8-1.4,3.1-3.3c0.2-0.8,0.7-1.5,1-2.3c0.8-1.7,2-2.9,3.8-3.5c1.4-0.5,2.9-0.9,4.2-1.6c0.9-0.4,1.8-1,2.4-1.7
		c4.3-5.4,7.3-11.6,9.7-18c7.9-20.6,14.3-41.6,17.4-63.6c0.3-1.8,0.8-3.7,0.7-5.5c-0.3-6.5-0.8-13-1.3-19.5
		C273.1,268.7,272.9,259.3,273.7,249.7z M347.4,56.4c3,0.5,5.2,2.1,6.6,4.9c0.3,0.7,1,1.3,1.6,1.6c8.7,4.5,15.9,10.7,21.7,18.6
		c5,6.7,8.9,14,12.2,21.7c5,11.8,7.5,23.9,5.6,36.6c-0.3,1.7-0.5,3.5-0.8,5.4c0.5-0.2,0.9-0.3,1.2-0.5c2.8-1.7,5.8-3.2,8.4-5.3
		c6.5-5.1,11.3-11.4,12.9-19.8c0.2-1,0.1-1.7-0.4-2.6c-0.7-1.5-1.3-3-1.6-4.6c-1.4-6.3-0.2-12.3,1.8-18.3c0.3-0.9,0.4-2,0.1-2.9
		c-1.4-5.6-3.9-10.6-7.4-15.2c-6-7.8-13.7-13.6-22-18.6c-13.4-8.2-28-13.6-43.3-17c-10.3-2.3-20.6-3.9-31.2-2.7
		c-4.4,0.5-8.7,1.6-12.8,3.4c-2.5,1.1-4.7,2.7-6.3,4.9c-1.4,2-1.9,4.3-1.7,6.6c20.1-3.9,39-0.6,57.7,7.5
		C348.9,58.6,348.1,57.5,347.4,56.4z M288.1,54.1c-0.5-0.1-0.7-0.2-1-0.3c-5.5-0.7-11-1.4-16.5-2c-7.5-0.9-14.9-0.4-22.2,1.7
		c-11.7,3.4-21.4,10.1-29.9,18.6c-7.8,7.8-13.8,16.9-19.2,26.5c-7,12.3-12.4,25.2-13.2,39.5c-0.3,4.5-0.4,8.9,1.4,13.2
		c0.3,0.9,0.9,1.1,1.7,1.3c2.1,0.5,4.4,0.9,6.3,1.8c4.5,2.1,7.9,5.6,10.6,9.6c1.7,2.5,3.2,5.1,3.6,8.2c0.1,0.5,0.6,1,1.1,1.2
		c3.7,1.9,7.7,2.5,11.8,3c-0.1-0.3-0.2-0.5-0.2-0.7c-3.8-7.9-6.1-16.3-7.4-25c-1.2-7.7-1.2-15.4,0.6-23.1c2.5-10.4,6.8-20,12.7-28.9
		c0.5-0.8,0.6-1.4,0.3-2.3c-0.4-1-0.6-2.2-0.6-3.4c-0.1-3,1.7-5.2,3.1-7.5c-0.7,3-0.6,6-0.2,9.1c0.6-0.6,1-1.2,1.5-1.8
		c2.4-2.9,4.7-6,7.4-8.7c9.3-9.5,20.2-16.6,32-22.6C277,59.2,282.4,56.7,288.1,54.1z M133.9,190.7c1.8-0.5,3.3-0.6,4.6-1.2
		c4.1-2.1,8.1-4.4,12.1-6.6c0.9-0.5,1.8-1.4,2.7-0.3c0.9,1.1-0.2,1.8-0.9,2.6c-3.9,4.3-7.8,8.6-11.6,13c-2.1,2.5-3.7,5.5-4.4,8.8
		c-1.7,7.3,2.6,12.2,10,11.1c2.8-0.4,5.6-1.3,8.2-2.6c9.4-4.5,18.1-10.1,24.5-18.7c0.3-0.4,1-0.7,1.4-0.6c0.4,0.1,0.8,0.7,1.1,1.2
		c0.2,0.4,0.2,0.9,0.3,1.4c1.5,5.1,5,8.3,9.6,10.5c4.6,2.2,8,1.6,11.6-1.9c4.1-4.1,6.9-8.9,8.5-14.5c1.7-6.1,0.4-11.5-3.6-16.3
		c-0.2-0.2-0.6-0.4-0.9-0.5c-6.4-1-11.3-4.6-15.5-9.1c-2.9-3-5.2-6.5-6.1-10.7c-0.1-0.3-0.5-0.8-0.8-0.9c-3-0.7-5.9-1.6-8.9-1.8
		c-5.3-0.4-10.1,1.4-14.7,3.9c-12.8,7.1-20.9,18.3-26.8,31.3C134.1,189.3,134.1,189.8,133.9,190.7z M491.5,127.2
		c2.8-0.4,5.6-0.6,8.4-1.3c7-1.9,9-7.2,5.2-13.3c-1.7-2.7-4-4.9-6.6-6.6c-10.2-6.8-21.4-8.2-33.2-6.2c-2.3,0.4-4.6,1.1-7,1.7
		c-1,0.2-1.9,0.2-2.4-0.8c-0.5-1,0.2-1.6,0.9-2.2c0.9-0.8,1.8-1.5,2.7-2.4c2.8-2.7,5.2-5.7,6.2-9.6c1.2-4.1-0.4-6.8-4.6-7.3
		c-2.3-0.3-4.8-0.3-7.1,0.2c-10,2.1-18.8,6.8-26.9,12.9c-0.8,0.6-1.6,1.4-2.3,2.2c-0.3,0.3-0.5,0.9-0.4,1.4
		c0.7,4.3,0.5,8.5,0.3,12.8c-0.1,2.5-1.2,4.7-0.5,7.4c1.1,4.2,2.9,7.9,5.2,11.6c5.5,8.9,13.5,14.2,23.5,16.8
		c3.5,0.9,7.2,1.2,10.8,0.1c4.4-1.4,6.2-5,4.6-9.3c-0.7-1.7-1.7-3.3-2.7-4.8c-1.2-1.7-2.6-3.2-4-4.8c-0.6-0.8-1.1-1.6-0.5-2.5
		c0.6-1,1.5-0.7,2.4-0.6c2.3,0.4,4.5,0.9,6.8,1.4C477,125.4,484.1,126.7,491.5,127.2z M283,218.1c0.1,0.3,0.1,0.6,0.2,0.8
		c1.8,4.8,3.5,9.5,5.4,14.3c3.1,7.9,8.9,12.9,16.6,16c9.1,3.6,18.5,4,28,2.1c11.4-2.3,21.1-7.5,29.3-15.7c5-5,7.1-11,5.2-17.9
		c-2-7.1-4.4-14.1-6.7-21.4C337.5,212.8,311.9,221.5,283,218.1z M272.8,388c0-0.2,0.1-0.2,0-0.3c-0.1-0.2-0.2-0.3-0.3-0.5
		c-1.3-1.6-1.2-3.2,0-5c1.3-2.1,2.4-4.4,3.3-6.6c1.8-4.4,1.9-9.1,1.8-13.7c-0.1-9.9-0.4-19.7-0.6-29.6c-0.1-5.9-0.3-11.9-0.5-17.8
		c0-0.6-0.1-1.2-0.2-1.8c-0.7,2.7-1.3,5.5-1.8,8.2c-2.3,11.7-6,23-9.8,34.3c-3.4,10-6.9,20-12.8,28.9c0,0.1,0,0.2,0,0.2
		C259.2,383.7,266.2,383.9,272.8,388z M414.4,411.4c-3.2,1.5-6.3,3.3-9.6,4.5c-15.4,5.6-31.3,6.2-47.3,4.1c-7.8-1-15.6-2.7-23.4-4.1
		c-13.7-2.5-26.8-6.6-39-13.2c-0.3-0.1-0.5-0.2-0.9-0.4c0.1,0.2,0.1,0.3,0.2,0.4c0.4,0.3,0.7,0.7,1.1,1
		c16.5,13.1,35.4,20.1,56.4,21.6c5.8,0.4,11.6,0.7,17.4,1.2c10.1,0.8,20.2,1.3,30.4,0.2c4.4-0.5,8.7-1.3,12.9-2.9
		c0.4-0.2,1-0.7,1.1-1.1C413.8,418.7,414.1,415,414.4,411.4z M336.7,80.5c-6.9,0.2-12.4,3.6-16.2,10.1c-1.2,2-1.2,4.1-0.4,6
		c2.1,4.9,6.1,7.9,11.2,8.6c5.9,0.8,10.9-1.6,14.9-6.1c2.5-2.8,3.5-6,2.8-9.7c-0.7-4-2.7-6.9-6.9-7.8
		C340.3,81,338.5,80.8,336.7,80.5z M145.9,467.2c15.9-5.4,30.6-13.3,46.2-19.8c-6.4-3.5-13-5.4-20.1-4.2c-8.8,1.5-16.1,5.9-22,12.6
		c-1.5,1.7-2.8,3.6-3.1,6C146.7,463.5,146.3,465.2,145.9,467.2z M259.8,120.3c5.2,0.6,12.9-5.8,13.8-11.1c0.9-5.3-0.4-8.9-4.7-10.8
		c-7.2-3.2-13.8-1.3-18.7,5c-0.7,1-1.2,2.2-1.5,3.3C246.9,113.6,252.5,120.2,259.8,120.3z M140.6,528.6c-0.1,0.1-0.1,0.2-0.2,0.3
		c1.1,1.2,2.2,2.5,3.4,3.7c1.4,1.4,3.1,2.1,5.1,1.8c2.2-0.3,4.5-0.6,6.6-1.2c7.4-2.1,13.7-6.7,20.5-10.1c0.1,0,0.1-0.1,0.2-0.4
		C164.4,525.3,152.7,528.1,140.6,528.6z M208.1,173.3c0-0.2,0-0.4,0-0.5c-1.8-3.1-3.5-6.3-5.6-9.1c-2.8-3.7-6.4-6.6-11-7.9
		c-1.1-0.3-2.2-0.4-3.4-0.6C189,163,200.9,173.6,208.1,173.3z M419.6,116.8c0.4-1,0.8-1.7,1-2.5c1.5-5,1.8-10.2,1.6-15.3
		c-0.1-1.6-0.3-3.3-0.6-4.8c-0.1-0.7-0.8-1.3-1.2-2c-0.4,0.6-0.7,1.2-1.1,1.8c-0.1,0.2-0.2,0.4-0.2,0.6c-1.8,5.2-2.8,10.4-2,15.9
		C417.6,112.6,418,114.8,419.6,116.8z"/>
	<g>
		<path class="st0" d="M234.1,406.3c1.9-1.4,2.1-3.9,2.9-6.1c0.9-2.5,1.6-5,2.7-7.5c0.3-0.8,1.3-1.6,2.1-1.9
			c4.4-1.7,8.7-3.6,13.5-3.7c5.7-0.2,11.2,0.4,16.2,3.6c5.7,3.7,11.9,6.5,17,11c2.9,2.5,5.7,5.1,8.8,7.3c12.9,9.3,27.3,15.5,43.1,18
			c7.8,1.2,15.7,1.7,23.5,2.1c8.9,0.5,17.9,0.9,26.8,1c7.1,0.1,14.1-0.9,20.9-3.1c1.5-0.5,2.8-1.3,4.2-1.9c2-0.9,4.2-0.8,6,0.3
			c2.2,1.3,4.4,2.8,6.3,4.5c10.7,9.3,18.9,20.4,24.6,33.4c7.3,16.5,14.9,33,22.3,49.5c2.3,5,4.6,10.1,7,15.2c-1.5,0.5-3,1.1-4.5,1.5
			c-14.8,4.7-29.9,7.5-45.4,7.5c-8.3,0-16.6,0-24.8-0.6c-12.6-1-25.1-2.9-37.5-5.6c-10.8-2.4-21.7-4.8-32.2-8.3
			c-16.9-5.8-33.2-13.1-49.4-20.6c-10.9-5-22-9.9-32.3-16.1c-6.7-4-13.4-8.2-19.9-12.5c-6.1-4.1-11.9-8.7-18-12.9
			c-7.1-4.8-14.4-9.4-21.6-14c-4.6-2.9-9.6-5.1-15.1-6c-6.7-1.2-13,0-19.1,2.8c-4.1,1.9-7.9,4.2-11.1,7.4c-0.3,0.3-0.7,0.6-1.4,1.2
			c0.3-0.7,0.4-1.1,0.6-1.4c5.5-9.7,11.3-19.1,18.8-27.4c6.3-7,14.1-10.9,23.4-11.8c8.7-0.9,17.3-1.8,26-2.5
			c3.3-0.3,6.7-0.1,10.1-0.4c3.7-0.3,7.3,0.2,10.4,2.1c3.5,2.2,6.9,4.7,10,7.4c11,9.9,21.7,20.3,32.9,30
			c19.8,17.2,42.2,29.9,67.5,37c12.9,3.7,26.1,4.6,39.5,4c15.5-0.7,30.5-3.7,45.5-7.2c2.6-0.6,5.2-1.3,7.9-1.9
			c0.2-0.1,0.5-0.1,0.7-0.4c-2.2,0.5-4.4,1-6.6,1.4c-8.5,1.3-16.9,2.7-25.5,3.7c-8.2,0.9-16.4,1.6-24.6,1.9
			c-19.7,0.8-38.6-3.2-56.6-11.3c-21.1-9.5-39.8-22.3-56.4-38.5c-8.4-8.2-17.2-15.8-26-23.5c-2.2-1.9-4.8-3.5-7.4-4.8
			C238,407.2,236,406.9,234.1,406.3z M300,414.6c0-0.1,0.1-0.1,0.1-0.2c-0.4-0.2-0.8-0.4-1.3-0.6c-2.6-1.1-5.3-2.2-7.9-3.4
			c-9-4-17.9-8-26.9-12c-0.7-0.3-1.6,0-2.3,0c0.1,0.7,0,1.6,0.3,2.2c4.9,9.3,11.1,17.6,19,24.6c7.2,6.3,15.4,10.9,24.1,14.6
			c24.8,10.6,50.8,16.3,77.8,17.4c7.2,0.3,14.3-0.2,21.3-2.3c0.5-0.1,0.9-0.3,1.3-0.5c-5.8,0.5-11.6,1-17.4,1.1
			c-12.3,0.1-24.4-1.7-36.5-4c-16.1-3.1-31.7-7.8-46.7-14.3c-17.3-7.5-30.7-19.3-40.3-35.5c-0.2-0.4-0.5-0.8-0.7-1.3
			c6.2,2.5,12.2,4.9,18.2,7.2C288,409.9,294,412.2,300,414.6z"/>
	</g>
	<path class="st0" d="M284.4,231.3c0.3,0.8,0.6,1.5,0.9,2.1c3.2,9.1,9.6,15.1,18.4,18.7c10.4,4.3,21.1,4.5,31.9,2
		c11-2.5,20.4-7.8,28.5-15.6c5.2-5,7.9-10.9,7.3-18.2c-0.1-1.4-0.4-2.7-0.7-4.4c1,0.8,1.9,1.3,2.5,2c2,2.5,4.2,5,5.9,7.7
		c5.6,9,9.4,18.8,12.8,28.8c4.6,13.6,8,27.5,11.5,41.4c1.2,4.8,2.7,9.5,3.7,14.4c1.1,5.9,1.8,11.9,2.7,17.8c1.3,8.5,2.7,17,3.8,25.6
		c0.8,6.3,1.5,12.6,2,18.9c0.7,9.1,1.3,18.3,1.9,27.4c0.1,1.4,0.4,2.7,0.5,4.1c0,0.5-0.3,1.2-0.6,1.4c-1.4,0.9-2.9,1.7-4.3,2.6
		c-6.4,4.2-13.5,6.3-20.9,7.8c-11.1,2.2-22.2,2.3-33.3,0.8c-14.6-1.9-29-4.5-43.1-8.8c-11.2-3.4-21.7-8.4-31.5-14.7
		c-3.2-2-5.8-4.9-8.7-7.4c-0.5-0.5-0.7-1-0.2-1.7c4.1-6.1,5.8-12.8,5.7-20.1c-0.2-10.2-0.4-20.5-0.7-30.7
		c-0.3-9.1-0.7-18.1-1.4-27.2c-0.5-6.8-1.7-13.5-2.4-20.3c-0.3-3.2-0.2-6.4-0.1-9.6c0-7,0-13.9,0.2-20.9c0.2-5.9,1.1-11.7,3.2-17.3
		C280.8,235.5,282.3,233.3,284.4,231.3z"/>
	<g>
		<path class="st1" d="M250.7,79.4c-5.6,5.7-4.1,13,3.5,16.6c-0.3,0.2-0.5,0.4-0.7,0.6c-1.8,1.5-3.5,3.1-5.3,4.6
			c-0.3,0.3-0.8,0.7-1.2,0.7c-4.2,0.3-8.2-0.1-12-2.1c-3-1.6-3-1.7-1.1-4.5c4.5-6.4,9.9-12,16.1-16.9c9.9-7.8,20.6-14.1,32.1-19
			c10.6-4.5,21.8-5.8,33.3-4.9c12.5,1,24.2,4.5,35.5,9.7c1.1,0.5,1.5,1.1,1.3,2.2c-0.6,4.9-3.1,8.7-7.1,11.5c-1,0.7-2.1,0.9-3.4,0.6
			c-2-0.4-4-0.6-6.2-0.9c0.2-0.3,0.4-0.6,0.6-0.9c1.8-2.6,3.2-5.4,3.2-8.7c0.1-4-2.3-6.4-6.1-6.4c0.9,1.3,1.9,2.6,2.8,4.1
			c0.9,1.5,0.7,3.1,0.3,4.6c-0.7,2.9-2.2,5.3-4,7.6c-0.3,0.4-1,0.7-1.6,0.8c-3.8,0.8-7,2.7-9.7,5.2c-5.5,5.1-6.4,12.3-0.8,18.1
			c3.5,3.7,7.7,6.4,13.1,6c6.9-0.5,12.6-3.4,16.4-9.4c1.6-2.4,2.2-5.1,2-8c0-0.6-0.1-1.2-0.1-1.8c3.6-1.2,6.7-3.1,9.6-5.5
			c0.3-0.2,0.6-0.5,0.7-0.8c0.6-2.1,1.1-4.3,1.7-6.4c0-0.2,0-0.4,0-0.8c-2.5,5.8-7.1,8.7-12.3,10.4c-1.6-2.1-3.2-4-4.7-5.9
			c4.7-2.9,7.6-7.5,8.5-13.4c0.4,0.2,0.9,0.4,1.3,0.7c8.5,4.7,15.1,11.3,20.6,19.2c2.1,3,4,6,6,9.1c0.2,0.3,0.3,0.5,0.5,0.8
			c2.8,7.6,6.2,14.9,7.9,22.9c2.2,10.4,1.3,20.6-1.5,30.7c-2.3,8.2-5.8,16-10,23.4c-3.6,6.2-8.4,11.5-14.1,15.9
			c-12.5,9.5-25.9,17.4-40.9,22.2c-9.4,3-19.2,4.8-29.1,4.4c-9.6-0.4-19.3-0.9-28.6-3.9c-18.4-5.9-32.2-17.5-41.1-34.8
			c-3.9-7.6-6.9-15.6-8.4-24.1c-0.6-3.5-0.4-7.1-0.7-10.6c-0.5-7.5,0.8-14.6,3.4-21.6c2.5-6.9,5.5-13.4,9.5-19.5
			c0.2-0.4,0.5-0.7,0.8-1.1c4.6,3.9,10,4.7,15.3,4c-0.2,2.2-0.3,4.3-0.5,6.4c-0.1,0.5-0.4,1.1-0.7,1.5c-2.7,3.1-6.2,3.9-10.1,3.5
			c-2.4-0.2-4.8-0.7-7.1-1.1c2.4,5.4,14.4,5.6,18.7-0.7c0.2,0.4,0.4,0.8,0.5,1.2c3.2,7.3,11.8,10.6,19,7.2c2.9-1.4,5.4-3.3,7.5-5.8
			c3.3-3.9,3.9-8.4,3.2-13.2c-0.4-2.7-2.4-4.2-4.4-5.5c-4.1-2.8-8.6-3.8-13.5-3c-0.7,0.1-1.5,0-2.2-0.2c-4-1.2-7.1-5.4-6.2-9.6
			C250.5,82.9,250.5,81.2,250.7,79.4z M275.9,151.6c-0.3-0.6-0.3-1.3-0.7-1.6c-1.6-1.4-3.4-2.4-5.6-2.2c-1.6,0.1-2.4,1.7-1.3,2.8
			c0.9,0.9,2.2,1.9,3.4,2.1c1.7,0.2,3.2,0.8,4.7,1.4c9.6,3.7,19.5,4.1,29.5,2.3c8.3-1.5,16.1-4.3,22.8-9.5
			c4.7-3.6,8.5-7.9,10.3-13.7c0.1-0.2,0.2-0.5,0.4-0.7c1.9-1.5,1.9-3.7,2-5.7c0.1-1.4-1.4-2-2.5-1.2c-1,0.7-2.3,3.4-1.7,4.5
			c0.8,1.5,0.2,2.6-0.5,3.7c-0.8,1.3-1.5,2.7-2.5,3.9c-3.9,5-8.8,8.6-14.5,11.3c-7.2,3.4-14.8,5-22.7,5.5
			C289.8,155,282.7,153.8,275.9,151.6z M354.5,122.2c6.9-0.3,15-3.5,20-8.1c0.9-0.8,1.7-1.8,2.4-2.9c2.1-3.4,1.1-6.2-2.8-7.4
			c-2.7-0.9-5.5-0.9-8.4-0.9c-6.4,0.1-11.8,2.6-16.7,6.6c-1.5,1.2-2.5,2.9-3,4.8c-0.8,3.2,0.3,5.6,3.3,6.7
			C351,121.6,352.8,121.8,354.5,122.2z M253.3,126.3c-8.8,0.9-15.5,4.5-19.8,12c-0.6,1.1-1,2.5-1.2,3.8c-0.5,2.8,0.8,4.8,3.6,5.5
			c1.2,0.3,2.6,0.4,3.8,0.3c7.2-0.8,13.3-4,18.4-9.2c1.3-1.3,2.3-3,3.1-4.7c1.3-2.9,0.3-5.3-2.6-6.4
			C256.8,126.8,254.8,126.6,253.3,126.3z M313.6,119.3c-0.9-0.7-1.6-1.5-2.5-1.9c-8.3-3.4-17.9-1.5-23.6,5.2c-1,1.2-1.6,2.8-2.2,4.3
			c-0.2,0.4,0.1,1,0.3,1.6c1.2-1.7,2-3.3,3.2-4.5c5.6-5.6,12.3-7.1,19.9-4.9C310.2,119.6,311.7,120,313.6,119.3z"/>
	</g>
	<path class="st1" d="M142.2,567.2c-1.8-16.5-7.3-32-12.4-47.7c0.3,0.3,0.6,0.7,0.8,1c2.2,3,4.3,6,6.5,8.9c0.8,1,1.5,2.1,2.3,3.1
		c3.3,4.4,7.6,5.9,13,4.7c5.3-1.2,10.2-3.4,15-5.9c15.1-8,29.4-17.3,44.3-25.8c11.2-6.4,22.5-12.7,34.3-17.9
		c1.2-0.5,2.5-1.6,3.6-1.6c1.2,0,2.3,1.2,3.5,1.8c16.7,9.6,34.3,17.1,51.9,25c11.7,5.3,23.7,10,35.9,14.2c0.9,0.3,1.8,0.5,3,0.9
		c-1.2,0.4-2.1,0.7-3,0.9c-16.8,5-33.5,10.1-50.4,14.9c-10.2,2.9-20.7,5-31,7.9c-27.5,7.8-55.5,13.7-83.3,20.2
		c-3.9,0.9-7.9,1.7-11.8,2.6c-5.6,1.3-11.1,1.2-16.7,0.4c-6.2-0.9-12.4-1.8-18.3-4c-1-0.4-2.1-0.8-3.1-1.2c-2.8-1.2-4.8-3.2-5.8-6.2
		c-3.1-8.7-6.5-17.4-9.5-26.2c-1.7-4.9-3.1-9.9-4.2-14.9c-1.3-5.9-0.7-11.7,1.4-17.3c1.1-2.9,2-3.3,5-2.4c1.2,0.4,2.3,1,3.4,1.7
		c4.4,2.9,7.1,7.1,8.8,12c4.7,13.5,9.7,26.8,13,40.8c0.6,2.7,1.5,5.3,2.4,7.9c0.3,0.8,0.7,1.6,1,2.4
		C141.9,567.3,142.1,567.2,142.2,567.2z"/>
	<path class="st1" d="M35.2,461.7c0.9,1,1.9,1.9,2.8,3c4.1,5.1,8.2,10.3,12.4,15.4c1.5,1.8,3.3,3.4,4.9,5c4.5,4.3,9.7,5.5,15.7,4
		c9.8-2.4,19.7-4.9,29.6-6.9c10.9-2.2,21.5-5.9,32.4-8.2c15.1-3.3,29.1-9.3,42.9-16c4.6-2.3,9.2-4.8,13.8-7.1
		c1.4-0.7,2.9-1.4,4.4-1.9c0.4-0.2,1.1,0.1,1.5,0.4c9.1,6,18.3,11.9,27.3,18c7.7,5.2,15.3,10.7,22.9,16.1c0.2,0.2,0.5,0.4,0.8,0.6
		c-0.4,0.2-0.7,0.5-1.1,0.6c-14.6,6.3-28.4,14.2-42.1,22.3c-4.8,2.9-9.8,5.6-14.5,8.6c-3.3,2.1-6.9,3-10.5,3.9
		c-6.1,1.5-12.2,2.8-18.4,3.9c-6.8,1.2-13.7,2.1-20.6,3c-0.4,0.1-1-0.4-1.3-0.8c-3.6-4.7-7-9.4-10.6-14.1c-1.6-2.1-3.3-4.1-5-6
		c-2.7-3-5.9-5.2-10-5.9c-3-0.5-4.6,0.2-6.1,2.8c-1.7,3-2.4,6.3-2.8,9.6c-0.8,5.6-0.2,11,1.8,16.3c0.2,0.5,0.3,1,0.4,1.6
		c-2.8,0.2-5.3,0.4-7.9,0.7c-9.2,0.9-18.3,0-27.4-1c-3.6-0.4-7.2-1.1-10.8-1.9c-3.8-0.8-6.4-3.2-7.8-6.8c-1.9-5.2-3.8-10.4-5.5-15.6
		c-3.8-11.5-7.5-23-11.1-34.6c-0.7-2.1-0.6-4.5-0.8-6.8c0-0.6,0.2-1.2,0.3-1.8C34.9,461.9,35,461.8,35.2,461.7z"/>
	<path class="st1" d="M381,222.2c1.1,0.9,2.2,1.7,3.2,2.6c8.7,7.6,15.5,16.9,21.5,26.7c9.2,15.1,17.1,30.9,24.9,46.7
		c14,28.3,26.7,57.3,38.2,86.7c2.1,5.4,3.8,11,4.5,16.9c1.5,11.9-7.2,21.8-19.2,21.5c-3.1-0.1-5.9-1.1-8.4-2.9
		c-4.1-2.9-7.1-6.6-9.8-10.7c-6.1-9.3-11.2-19.1-16-29.1c-0.9-1.9-0.7-4.2-0.9-6.4c-1-11.6-2.4-23.2-4.5-34.8
		c-2.2-12.7-4.2-25.5-6.8-38.1c-2.2-10.5-5-20.8-7.7-31.1c-3.2-12.2-7.2-24.3-12.7-35.7c-1.9-3.9-4.1-7.6-6.2-11.4
		c-0.1-0.3-0.3-0.5-0.4-0.8C380.8,222.3,380.9,222.3,381,222.2z"/>
	<path class="st1" d="M273.7,249.7c-0.8,9.5-0.6,18.9,0.2,28.3c0.5,6.5,1,13,1.3,19.5c0.1,1.8-0.5,3.7-0.7,5.5
		c-3,21.9-9.5,43-17.4,63.6c-2.5,6.4-5.4,12.6-9.7,18c-0.6,0.7-1.5,1.3-2.4,1.7c-1.4,0.6-2.8,1.1-4.2,1.6c-1.8,0.6-3,1.8-3.8,3.5
		c-0.3,0.8-0.8,1.5-1,2.3c-0.3,1.8-1.5,2.7-3.1,3.3c-1.5,0.5-3,1.2-4.5,1.5c-4.9,1-9-1-10.9-5.8c-1.2-3-1.9-6.2-2.4-9.3
		c-1.6-10.6,0.5-20.6,5.5-29.9c6.4-12,13-24,19.6-35.9c10.2-18.2,20.2-36.6,28.4-55.8c1.5-3.6,3.1-7.2,4.6-10.7
		C273.3,250.6,273.5,250.2,273.7,249.7z"/>
	<path class="st2" d="M347.4,56.4c0.7,1.1,1.5,2.2,2.4,3.7c-18.7-8.1-37.6-11.4-57.7-7.5c-0.2-2.4,0.3-4.6,1.7-6.6
		c1.6-2.3,3.8-3.8,6.3-4.9c4.1-1.9,8.4-2.9,12.8-3.4c10.6-1.3,20.9,0.3,31.2,2.7c15.3,3.4,29.8,8.8,43.3,17c8.3,5,16,10.9,22,18.6
		c3.5,4.5,6,9.6,7.4,15.2c0.2,0.9,0.2,2-0.1,2.9c-2,6-3.1,12-1.8,18.3c0.3,1.6,0.9,3.1,1.6,4.6c0.4,0.9,0.5,1.7,0.4,2.6
		c-1.6,8.4-6.4,14.7-12.9,19.8c-2.6,2-5.6,3.5-8.4,5.3c-0.3,0.2-0.7,0.3-1.2,0.5c0.3-1.9,0.6-3.6,0.8-5.4
		c1.8-12.8-0.6-24.9-5.6-36.6c-3.3-7.7-7.3-14.9-12.2-21.7c-5.8-7.9-13-14.1-21.7-18.6c-0.6-0.3-1.3-1-1.6-1.6
		C352.6,58.4,350.4,56.8,347.4,56.4z"/>
	<path class="st2" d="M288.1,54.1c-5.6,2.7-11,5.1-16.3,7.7c-11.8,6-22.7,13.1-32,22.6c-2.6,2.7-4.9,5.8-7.4,8.7
		c-0.5,0.6-0.9,1.2-1.5,1.8c-0.4-3-0.5-6.1,0.2-9.1c-1.4,2.4-3.3,4.6-3.1,7.5c0,1.1,0.2,2.3,0.6,3.4c0.4,0.9,0.3,1.5-0.3,2.3
		c-6,8.9-10.2,18.5-12.7,28.9c-1.8,7.6-1.8,15.3-0.6,23.1c1.3,8.7,3.6,17,7.4,25c0.1,0.2,0.1,0.3,0.2,0.7c-4.2-0.5-8.2-1.1-11.8-3
		c-0.5-0.2-1-0.8-1.1-1.2c-0.5-3.1-2-5.7-3.6-8.2c-2.7-4.1-6.1-7.5-10.6-9.6c-2-0.9-4.2-1.3-6.3-1.8c-0.9-0.2-1.4-0.5-1.7-1.3
		c-1.7-4.3-1.6-8.7-1.4-13.2c0.9-14.4,6.2-27.2,13.2-39.5c5.4-9.5,11.4-18.7,19.2-26.5c8.5-8.5,18.2-15.2,29.9-18.6
		c7.3-2.1,14.7-2.6,22.2-1.7c5.5,0.6,11,1.3,16.5,2C287.3,53.9,287.6,53.9,288.1,54.1z"/>
	<path class="st2" d="M133.9,190.7c0.2-0.9,0.3-1.5,0.5-1.9c5.9-13,13.9-24.2,26.8-31.3c4.5-2.5,9.4-4.3,14.7-3.9
		c3,0.2,6,1.1,8.9,1.8c0.3,0.1,0.7,0.5,0.8,0.9c0.8,4.3,3.2,7.7,6.1,10.7c4.2,4.5,9.2,8.1,15.5,9.1c0.3,0.1,0.7,0.2,0.9,0.5
		c4.1,4.8,5.3,10.2,3.6,16.3c-1.6,5.6-4.3,10.4-8.5,14.5c-3.6,3.6-7,4.1-11.6,1.9c-4.6-2.2-8.1-5.4-9.6-10.5c-0.1-0.5-0.1-1-0.3-1.4
		c-0.3-0.5-0.6-1.1-1.1-1.2c-0.4-0.1-1.1,0.2-1.4,0.6c-6.4,8.6-15,14.1-24.5,18.7c-2.6,1.2-5.4,2.1-8.2,2.6
		c-7.4,1.1-11.7-3.8-10-11.1c0.7-3.3,2.3-6.3,4.4-8.8c3.7-4.4,7.7-8.7,11.6-13c0.7-0.7,1.8-1.4,0.9-2.6c-0.9-1.1-1.8-0.2-2.7,0.3
		c-4,2.2-8,4.5-12.1,6.6C137.2,190.2,135.6,190.3,133.9,190.7z"/>
	<path class="st2" d="M491.5,127.2c-7.3-0.4-14.5-1.8-21.6-3.3c-2.2-0.5-4.5-1-6.8-1.4c-0.9-0.2-1.8-0.4-2.4,0.6
		c-0.6,1-0.1,1.8,0.5,2.5c1.3,1.6,2.8,3.1,4,4.8c1.1,1.5,2.1,3.1,2.7,4.8c1.7,4.3-0.2,7.9-4.6,9.3c-3.6,1.1-7.2,0.8-10.8-0.1
		c-9.9-2.6-18-7.9-23.5-16.8c-2.2-3.6-4-7.4-5.2-11.6c-0.7-2.7,0.4-5,0.5-7.4c0.2-4.3,0.5-8.6-0.3-12.8c-0.1-0.4,0.1-1,0.4-1.4
		c0.7-0.8,1.5-1.5,2.3-2.2c8.1-6.2,16.9-10.9,26.9-12.9c2.3-0.5,4.8-0.5,7.1-0.2c4.2,0.6,5.8,3.2,4.6,7.3c-1.1,3.8-3.4,6.8-6.2,9.6
		c-0.9,0.8-1.8,1.6-2.7,2.4c-0.7,0.6-1.4,1.2-0.9,2.2c0.5,1,1.5,1,2.4,0.8c2.3-0.6,4.6-1.3,7-1.7c11.8-2.1,23-0.6,33.2,6.2
		c2.6,1.8,4.9,3.9,6.6,6.6c3.8,6.2,1.8,11.5-5.2,13.3C497.1,126.6,494.2,126.7,491.5,127.2z"/>
	<path class="st1" d="M283,218.1c28.9,3.4,54.5-5.3,78-21.8c2.3,7.3,4.7,14.3,6.7,21.4c1.9,6.9-0.2,13-5.2,17.9
		c-8.2,8.1-17.9,13.4-29.3,15.7c-9.6,1.9-18.9,1.5-28-2.1c-7.7-3.1-13.5-8.1-16.6-16c-1.8-4.7-3.6-9.5-5.4-14.3
		C283.1,218.7,283,218.4,283,218.1z"/>
	<path class="st3" d="M414.4,411.4c-0.3,3.6-0.6,7.3-0.9,11.1c0,0.4-0.6,0.9-1.1,1.1c-4.2,1.6-8.5,2.5-12.9,2.9
		c-10.1,1.1-20.3,0.6-30.4-0.2c-5.8-0.4-11.6-0.8-17.4-1.2c-21-1.4-39.8-8.5-56.4-21.6c-0.4-0.3-0.7-0.6-1.1-1
		c-0.1,0-0.1-0.1-0.2-0.4c0.4,0.1,0.7,0.2,0.9,0.4c12.3,6.6,25.4,10.7,39,13.2c7.8,1.4,15.6,3,23.4,4.1c16,2.1,31.9,1.5,47.3-4.1
		C408.1,414.7,411.2,412.9,414.4,411.4z"/>
	<path class="st4" d="M336.7,80.5c1.8,0.3,3.6,0.6,5.3,1c4.2,0.9,6.1,3.8,6.9,7.8c0.7,3.7-0.3,6.9-2.8,9.7c-4,4.4-9,6.8-14.9,6.1
		c-5.1-0.7-9.1-3.6-11.2-8.6c-0.8-1.9-0.7-4,0.4-6C324.3,84.1,329.8,80.7,336.7,80.5z"/>
	<path class="st5" d="M145.9,467.2c0.4-2,0.8-3.7,1-5.4c0.3-2.4,1.6-4.3,3.1-6c5.8-6.8,13.2-11.2,22-12.6c7.1-1.2,13.7,0.7,20.1,4.2
		C176.5,453.9,161.8,461.8,145.9,467.2z"/>
	<path class="st4" d="M259.8,120.3c-7.3,0-12.8-6.7-11.1-13.5c0.3-1.2,0.8-2.4,1.5-3.3c4.8-6.3,11.5-8.2,18.7-5
		c4.3,1.9,5.6,5.5,4.7,10.8C272.7,114.5,265,120.9,259.8,120.3z"/>
	<path class="st3" d="M208.1,173.3c-7.2,0.2-19.1-10.3-20-18.1c1.2,0.2,2.3,0.3,3.4,0.6c4.6,1.3,8.2,4.2,11,7.9
		c2.1,2.8,3.8,6.1,5.6,9.1C208.2,172.9,208.1,173.1,208.1,173.3z"/>
	<path class="st3" d="M419.6,116.8c-1.6-2-2.1-4.2-2.4-6.3c-0.9-5.5,0.2-10.7,2-15.9c0.1-0.2,0.1-0.4,0.2-0.6
		c0.4-0.6,0.7-1.2,1.1-1.8c0.4,0.7,1,1.3,1.2,2c0.3,1.6,0.6,3.2,0.6,4.8c0.2,5.2-0.1,10.3-1.6,15.3
		C420.4,115.1,420,115.8,419.6,116.8z"/>
	<path d="M300,414.6c-6-2.3-12-4.6-18-7c-6-2.4-12-4.8-18.2-7.2c0.3,0.5,0.5,0.9,0.7,1.3c9.6,16.2,23,28,40.3,35.5
		c15.1,6.5,30.6,11.1,46.7,14.3c12,2.4,24.2,4.1,36.5,4c5.8,0,11.6-0.6,17.4-1.1c-0.4,0.2-0.9,0.4-1.3,0.5c-7,2.1-14.1,2.5-21.3,2.3
		c-27-1.1-52.9-6.8-77.8-17.4c-8.7-3.7-16.9-8.3-24.1-14.6c-7.9-7-14-15.3-19-24.6c-0.3-0.6-0.2-1.5-0.3-2.2c0.8,0,1.7-0.3,2.3,0
		c9,3.9,17.9,8,26.9,12c2.6,1.2,5.3,2.3,7.9,3.4c0.4,0.2,0.8,0.4,1.3,0.6C300.1,414.4,300,414.5,300,414.6z"/>
	<path d="M275.9,151.6c6.8,2.2,13.9,3.4,21.1,2.9c7.9-0.5,15.5-2.2,22.7-5.5c5.7-2.7,10.7-6.3,14.5-11.3c0.9-1.2,1.7-2.6,2.5-3.9
		c0.6-1.1,1.2-2.3,0.5-3.7c-0.6-1.1,0.7-3.8,1.7-4.5c1.1-0.8,2.6-0.2,2.5,1.2c-0.1,2.1-0.2,4.2-2,5.7c-0.2,0.1-0.3,0.4-0.4,0.7
		c-1.8,5.8-5.7,10-10.3,13.7c-6.7,5.2-14.5,8-22.8,9.5c-10,1.9-19.9,1.5-29.5-2.3c-1.5-0.6-3-1.2-4.7-1.4c-1.2-0.1-2.5-1.1-3.4-2.1
		c-1.1-1.2-0.3-2.7,1.3-2.8c2.2-0.2,4,0.8,5.6,2.2C275.6,150.3,275.7,151,275.9,151.6z"/>
	<path d="M354.5,122.2c-1.7-0.4-3.5-0.6-5.1-1.2c-3-1.2-4.1-3.6-3.3-6.7c0.5-1.9,1.4-3.5,3-4.8c4.8-4,10.2-6.5,16.7-6.6
		c2.9,0,5.6,0,8.4,0.9c3.8,1.2,4.9,3.9,2.8,7.4c-0.6,1-1.5,2-2.4,2.9C369.5,118.7,361.4,121.9,354.5,122.2z M365.7,104.1
		c0,0.1,0,0.1,0,0.2c-0.9,0.1-1.8,0-2.6,0.2c-4.5,1-8.6,3-12.2,5.9c-1.6,1.3-2.7,2.9-3.1,4.9c-0.3,1.8,0.1,3.2,1.8,3.9
		c1.4,0.6,3,1.1,4.6,1.1c5.6,0.1,10.7-1.6,15.5-4.4c2.3-1.4,4.5-2.9,5.9-5.2c1.7-2.7,1.1-4.4-1.9-5.1
		C370.9,104.8,368.3,104.5,365.7,104.1z"/>
	<path d="M253.3,126.3c1.5,0.3,3.5,0.5,5.3,1.2c2.9,1.1,4,3.6,2.6,6.4c-0.8,1.7-1.8,3.4-3.1,4.7c-5,5.2-11.1,8.4-18.4,9.2
		c-1.2,0.1-2.6,0-3.8-0.3c-2.7-0.6-4.1-2.7-3.6-5.5c0.2-1.3,0.6-2.6,1.2-3.8C237.8,130.7,244.5,127.2,253.3,126.3z M240,146.1
		c6.8-1,13.7-4.1,18.7-10.6c0.7-0.8,1.1-1.9,1.4-3c0.4-1.4,0-2.4-1.2-3.2c-0.6-0.4-1.4-0.6-2.1-0.8c-3.9-1.1-7.7-0.4-11.3,1.3
		c-4.7,2.2-8.6,5.3-10.7,10.2C233,144,234.4,146.1,240,146.1z"/>
	<path d="M313.6,119.3c-1.9,0.8-3.4,0.3-5-0.2c-7.6-2.2-14.3-0.7-19.9,4.9c-1.2,1.2-2,2.8-3.2,4.5c-0.1-0.6-0.4-1.2-0.3-1.6
		c0.6-1.5,1.2-3.1,2.2-4.3c5.7-6.8,15.3-8.7,23.6-5.2C311.9,117.7,312.6,118.6,313.6,119.3z"/>
	<path class="st6" d="M365.7,104.1c2.6,0.4,5.3,0.7,7.8,1.3c3,0.7,3.6,2.5,1.9,5.1c-1.5,2.3-3.6,3.8-5.9,5.2
		c-4.8,2.8-9.9,4.5-15.5,4.4c-1.5,0-3.1-0.5-4.6-1.1c-1.6-0.7-2.1-2.1-1.8-3.9c0.4-2.1,1.5-3.7,3.1-4.9c3.6-2.8,7.7-4.9,12.2-5.9
		c0.9-0.2,1.8-0.1,2.6-0.2C365.7,104.2,365.7,104.1,365.7,104.1z"/>
	<path class="st6" d="M240,146.1c-5.6,0-7-2-5.2-6.1c2.1-4.8,6-8,10.7-10.2c3.6-1.7,7.4-2.4,11.3-1.3c0.7,0.2,1.4,0.5,2.1,0.8
		c1.2,0.7,1.7,1.8,1.2,3.2c-0.3,1-0.8,2.1-1.4,3C253.6,141.9,246.8,145.1,240,146.1z"/>
	<g>
		<circle class="st7" cx="268.8" cy="103.7" r="3.5"/>
		<path class="st7" d="M260.5,116.8c-5.3,0-9.5-3.6-9.5-8.1c0-1.1,0.3-2.2,0.8-3.2c-1.2,1.5-1.8,3.3-1.8,5.4c0,4.9,3.9,8.8,8.8,8.8
			c3.3,0,6.2-1.8,7.7-4.6C264.8,116.1,262.8,116.8,260.5,116.8z"/>
	</g>
	<g>
		<circle class="st7" cx="340.8" cy="86.6" r="3.5"/>
		<path class="st7" d="M334.7,101.9c-5.3,0-9.5-3.6-9.5-8.1c0-1.1,0.3-2.2,0.8-3.2c-1.2,1.5-1.8,3.3-1.8,5.4c0,4.9,3.9,8.8,8.8,8.8
			c3.3,0,6.2-1.8,7.7-4.6C339,101.3,336.9,101.9,334.7,101.9z"/>
	</g>
	<g>
		<path class="st7" d="M339.1,309.4c6.7,3.4,11.3,4.1,16.1,2.7c4.7-1.3,7.8-5.3,7.7-9.7c-0.1-5.4-3.2-9.9-7.9-10.9
			c-5.5-1.2-9.8,1.3-13.3,5.2c-1.8,2-3.1,4.4-4.7,6.6c-0.2-0.1-0.5-0.2-0.7-0.4c-0.2-0.2-0.4-0.4-0.8-0.8c3.5-3.3,6.3-6.9,7.2-11.6
			c0.9-4.5,0.3-8.7-3.7-11.5c-3.8-2.7-8-3-12.2-0.7c-4.1,2.2-5.4,6.1-5,10.5c0.2,1.6,0.4,3.4,1.2,4.8c1.7,3.1,3.8,5.9,5.8,9
			c-0.3,0.2-0.8,0.5-1.4,0.8c-0.4-0.7-0.6-1.3-0.9-1.8c-2.4-4.4-5.7-8.1-10.6-9.8c-6.1-2.1-11.6,0.8-13.6,7.2
			c-1.8,5.9,1.3,11.5,7.3,13.1c5.2,1.4,10.1,0.3,14.7-2.2c0.3-0.2,0.7-0.3,1.2-0.6c0.2,0.7,0.3,1.4,0.5,2.1c-4.9,0.6-9.1,2-12.6,5.2
			c-3.4,3.1-5.2,6.9-3.7,11.5c1.5,4.4,4.9,7.1,9.5,7.7c4.7,0.6,8.1-1.9,10.3-5.9c2.3-4.2,2.8-8.7,1.9-13.4c-0.1-0.4-0.1-0.9-0.1-1.4
			c0.5,0,0.8-0.1,1.1-0.1c0.3,0,0.5,0.2,0.8,0.3c-0.6,7.2-0.4,9.9,1.2,13.5c2.4,5.3,7.2,8.2,11.9,6.9c4.2-1.1,7.5-3.6,8.7-8
			c1.2-4.5-0.6-8.1-3.9-11.1c-3.5-3.2-7.9-4.6-12.7-5.2C338.7,310.7,338.9,310.1,339.1,309.4z"/>
		<g>
			<path class="st7" d="M339.1,309.4c-0.2,0.7-0.4,1.3-0.6,2c4.8,0.6,9.2,2,12.7,5.2c3.3,3,5.1,6.6,3.9,11.1c-1.2,4.4-4.4,6.9-8.7,8
				c-4.8,1.2-9.6-1.6-11.9-6.9c-1.6-3.5-1.8-6.3-1.2-13.5c-0.2-0.1-0.5-0.2-0.8-0.3c-0.3,0-0.6,0-1.1,0.1c0,0.5,0,1,0.1,1.4
				c0.9,4.7,0.4,9.2-1.9,13.4c-2.2,4-5.6,6.5-10.3,5.9c-4.6-0.6-8-3.3-9.5-7.7c-1.6-4.6,0.3-8.4,3.7-11.5c3.5-3.2,7.7-4.6,12.6-5.2
				c-0.2-0.7-0.3-1.3-0.5-2.1c-0.5,0.2-0.9,0.4-1.2,0.6c-4.6,2.5-9.5,3.5-14.7,2.2c-6-1.6-9.2-7.2-7.3-13.1c2-6.4,7.5-9.3,13.6-7.2
				c5,1.7,8.2,5.3,10.6,9.8c0.3,0.5,0.6,1.1,0.9,1.8c0.6-0.3,1.1-0.6,1.4-0.8c-2-3.1-4.1-5.9-5.8-9c-0.8-1.4-1-3.2-1.2-4.8
				c-0.5-4.5,0.9-8.3,5-10.5c4.1-2.3,8.4-2,12.2,0.7c4,2.8,4.6,7.1,3.7,11.5c-0.9,4.7-3.7,8.3-7.2,11.6c0.3,0.4,0.5,0.6,0.8,0.8
				c0.2,0.2,0.5,0.3,0.7,0.4c1.6-2.3,2.9-4.7,4.7-6.6c3.5-3.9,7.8-6.4,13.3-5.2c4.7,1,7.9,5.6,7.9,10.9c0.1,4.5-3,8.4-7.7,9.7
				C350.3,313.5,345.8,312.8,339.1,309.4z M332.3,304.2c-2.2,0-4.1,1.9-4.2,4.1c-0.1,2.2,2,4.3,4.2,4.3c2.2,0,4.3-2.2,4.2-4.4
				C336.5,306.1,334.5,304.2,332.3,304.2z"/>
		</g>
		<path class="st2" d="M332.3,304.2c2.2,0,4.2,1.9,4.2,4c0.1,2.2-2,4.4-4.2,4.4c-2.2,0-4.3-2.1-4.2-4.3
			C328.2,306.1,330.1,304.2,332.3,304.2z"/>
	</g>
</g>
</svg>
