<?xml version="1.0" encoding="utf-8"?>
<!-- Generator: Adobe Illustrator 22.1.0, SVG Export Plug-In . SVG Version: 6.00 Build 0)  -->
<svg version="1.1" xmlns="http://www.w3.org/2000/svg" xmlns:xlink="http://www.w3.org/1999/xlink" x="0px" y="0px"
	 viewBox="0 0 489.9 444" style="enable-background:new 0 0 489.9 444;" xml:space="preserve">
<style type="text/css">
	.st0{fill:#902996;}
	.st1{fill:#00FFFF;}
	.st2{fill:#FFFD15;}
	.st3{fill:#3EAAF5;}
	.st4{fill:#FFFFFF;}
</style>
<g id="Слой1_xA0_Изображение_1_">
</g>
<g id="Слой2_xA0_Изображение_1_">
	<g>
		<g>
			<g>
				<path class="st0" d="M206.5,369v-73.3h-18V369c-20.3,4.4-35.6,23.6-35.6,46.5h89.1C242.1,392.5,226.8,373.4,206.5,369z"/>
				<path d="M244.1,417.5h-93.1v-2c0-22.8,14.9-42.8,35.6-48.1v-73.7h22v73.7c20.7,5.3,35.6,25.3,35.6,48.1V417.5z M155,413.5h85
					c-0.9-20.7-14.9-38.4-34-42.6l-1.6-0.3v-72.9h-14v72.9l-1.6,0.3C169.8,375.1,155.8,392.8,155,413.5z"/>
			</g>
			<g>
				<path class="st0" d="M301.4,369v-73.3h-18V369c-20.3,4.4-35.6,23.6-35.6,46.5H337C337,392.5,321.7,373.4,301.4,369z"/>
				<path d="M339,417.5h-93.1v-2c0-22.8,14.9-42.8,35.6-48.1v-73.7h22v73.7c20.7,5.3,35.6,25.3,35.6,48.1V417.5z M249.9,413.5h85
					c-0.9-20.7-14.9-38.4-34-42.6l-1.6-0.3v-72.9h-14v72.9l-1.6,0.3C264.7,375.1,250.7,392.8,249.9,413.5z"/>
			</g>
		</g>
		<g>
			<g>
				<g>
					<g>
						<g>
							<path class="st0" d="M154.6,152.2c-58.6,0-106.3,49-106.3,109.2h11c0-54.2,42.7-98.2,95.3-98.2V152.2z"/>
							<path d="M61.4,263.4h-15v-2c0-61.3,48.6-111.2,108.3-111.2h2v15h-2c-51.4,0-93.3,43.2-93.3,96.2V263.4z M50.4,259.4h7
								c1-53.7,43.2-97.1,95.2-98.2v-7C96.7,155.3,51.4,201.9,50.4,259.4z"/>
						</g>
					</g>
				</g>
				<g>
					<path class="st1" d="M54.1,287.2c-15.6,0-28.2-12.6-28.2-28.2h56.5C82.3,274.5,69.7,287.2,54.1,287.2z"/>
					<path d="M54.1,289.2c-16.7,0-30.2-13.6-30.2-30.2v-2h60.5v2C84.3,275.6,70.7,289.2,54.1,289.2z M27.9,260.9
						c1,13.5,12.4,24.2,26.2,24.2c13.8,0,25.1-10.7,26.2-24.2H27.9z"/>
				</g>
			</g>
			<g>
				<g>
					<g>
						<g>
							<path class="st0" d="M335.3,152.2c58.6,0,106.3,49,106.3,109.2h-11c0-54.2-42.7-98.2-95.3-98.2V152.2z"/>
							<path d="M443.5,263.4h-15v-2c0-53.1-41.8-96.2-93.3-96.2h-2v-15h2c59.7,0,108.3,49.9,108.3,111.2V263.4z M432.5,259.4h7
								c-1-57.5-46.3-104.1-102.2-105.2v7C389.3,162.3,431.5,205.7,432.5,259.4z"/>
						</g>
					</g>
				</g>
				<g>
					<path class="st1" d="M435.8,287.2c15.6,0,28.2-12.6,28.2-28.2h-56.5C407.6,274.5,420.2,287.2,435.8,287.2z"/>
					<path d="M435.8,289.2c-16.7,0-30.2-13.6-30.2-30.2v-2H466v2C466,275.6,452.5,289.2,435.8,289.2z M409.6,260.9
						c1,13.5,12.4,24.2,26.2,24.2c13.8,0,25.1-10.7,26.2-24.2H409.6z"/>
				</g>
			</g>
		</g>
		<g>
			<path class="st2" d="M244.9,28.5c-25.1,0-45.4,20.3-45.4,45.4h90.7C290.3,48.8,270,28.5,244.9,28.5z"/>
			<path d="M292.3,75.9h-94.7v-2c0-26.1,21.2-47.4,47.4-47.4c26.1,0,47.4,21.2,47.4,47.4V75.9z M201.6,71.9h86.6
				c-1-23-20.1-41.4-43.3-41.4S202.7,48.9,201.6,71.9z"/>
		</g>
		<g>
			<path class="st1" d="M285.5,203.7h-81.1c-13.8,0-25-11.3-25-25V76.2c0-13.8,11.3-25,25-25h81.1c13.8,0,25,11.3,25,25v102.5
				C310.5,192.5,299.2,203.7,285.5,203.7z"/>
			<path d="M285.5,205.7h-81.1c-14.9,0-27-12.1-27-27V76.2c0-14.9,12.1-27,27-27h81.1c14.9,0,27,12.1,27,27v102.5
				C312.5,193.6,300.4,205.7,285.5,205.7z M204.4,53.2c-12.7,0-23,10.3-23,23v102.5c0,12.7,10.3,23,23,23h81.1c12.7,0,23-10.3,23-23
				V76.2c0-12.7-10.3-23-23-23H204.4z"/>
		</g>
		<g>
			<path class="st3" d="M327.3,316.7H162.6c-13.8,0-25-11.3-25-25V91.8c0-13.8,11.3-25,25-25h164.7c13.8,0,25,11.3,25,25v199.9
				C352.3,305.4,341,316.7,327.3,316.7z"/>
			<path d="M327.3,318.7H162.6c-14.9,0-27-12.1-27-27V91.8c0-14.9,12.1-27,27-27h164.7c14.9,0,27,12.1,27,27v199.9
				C354.3,306.5,342.2,318.7,327.3,318.7z M162.6,68.8c-12.7,0-23,10.3-23,23v199.9c0,12.7,10.3,23,23,23h164.7
				c12.7,0,23-10.3,23-23V91.8c0-12.7-10.3-23-23-23H162.6z"/>
		</g>
		<g>
			<g>
				<path class="st0" d="M340.1,185.8H149.8V82.1h190.3V185.8z M157.8,177.8h174.3V90.1H157.8V177.8z"/>
			</g>
		</g>
		<g>
			<path class="st1" d="M301.7,172.1H188.2c-13.8,0-25-11.3-25-25v-27.2c0-13.8,11.3-25,25-25h113.4c13.8,0,25,11.3,25,25v27.2
				C326.7,160.8,315.4,172.1,301.7,172.1z"/>
		</g>
		<g>
			<g>
				<path d="M289.7,111.9c3.2-0.3,6,0.4,8.6,1.6c3.9,1.7,6.4,7,5.7,11.7c-0.6,4-3.9,7-8.4,7.6c-9.5,1.2-14.6-5.9-14.9-13
					c-0.2-4.6,3.1-7.9,7.8-7.9C288.9,111.9,289.4,111.9,289.7,111.9z M299.3,124.3C299.3,124.4,299.3,124.4,299.3,124.3
					c0.4,0,0.7,0,1.1,0c1.8-0.2,2.1-0.5,1.4-2.2c-0.6-1.6-1.4-3-2.2-4.5c-0.2-0.4-1-0.7-1.4-0.7c-1.7,0.2-3.8,2.5-3.8,4
					c0,1.7,1.7,3.2,3.9,3.4C298.7,124.4,299,124.3,299.3,124.3z"/>
			</g>
			<g>
				<path d="M185.8,121.9c-0.1-3.2,1.4-5.9,4.4-7.9c4.1-2.6,8.4-3.7,13.1-1.8c6.5,2.6,7.9,10.6,2.8,15.4c-3.5,3.3-7.5,4.8-12.3,4
					C187.9,130.6,185.8,128.1,185.8,121.9z M203,126.7c2.4,0,4-1.4,4.6-4.3c0.5-2.1,0-3-2-3.5c-1.6-0.4-3.3-0.5-5-0.5
					c-1.8,0-2.8,1.5-2.3,3.3c0.2,0.8,0.5,1.5,0.8,2.2C199.7,125.7,201,126.6,203,126.7z"/>
			</g>
			<g>
				<path d="M242.8,147.3c-5.6-0.1-10.9-1.2-15.4-4.7c-1-0.8-1.9-1.8-2.7-2.8c-0.4-0.6-0.8-1.5-0.7-2.2c0.1-0.9,0.6-2,1.3-2.4
					c0.6-0.4,2.1-0.2,2.5,0.3c6.5,6.8,20.6,6.5,29.2,1.2c1.5-0.9,3.1-1.8,4.8-2.3c2.5-0.6,3.4,0.5,2.8,3c-0.6,2.4-2.3,3.8-4.3,5.1
					c-5.2,3.2-10.9,4.6-17,4.8C243.1,147.3,243,147.3,242.8,147.3z"/>
			</g>
			<g>
				<path class="st4" d="M299.3,124.3c-0.3,0-0.6,0-0.9,0c-2.3-0.2-3.9-1.6-3.9-3.4c0-1.5,2.1-3.8,3.8-4c0.5-0.1,1.2,0.3,1.4,0.7
					c0.8,1.4,1.6,2.9,2.2,4.5c0.7,1.7,0.4,2-1.4,2.2C300.1,124.4,299.7,124.4,299.3,124.3C299.3,124.4,299.3,124.4,299.3,124.3z"/>
			</g>
			<g>
				<path class="st4" d="M203,126.7c-2,0-3.3-1-3.9-2.8c-0.2-0.7-0.5-1.5-0.8-2.2c-0.5-1.8,0.4-3.3,2.3-3.3c1.7,0,3.4,0.2,5,0.5
					c2,0.4,2.5,1.4,2,3.5C206.9,125.2,205.4,126.7,203,126.7z"/>
			</g>
		</g>
		<g>
			<rect x="202.3" y="199.1" class="st0" width="85.2" height="85.2"/>
			<path d="M289.5,286.3h-89.2v-89.2h89.2V286.3z M204.3,282.3h81.2v-81.2h-81.2V282.3z"/>
		</g>
		<g>
			<circle class="st2" cx="244.9" cy="241.7" r="28"/>
			<path d="M244.9,271.7c-16.5,0-30-13.5-30-30c0-16.5,13.5-30,30-30s30,13.5,30,30C274.9,258.2,261.5,271.7,244.9,271.7z
				 M244.9,215.7c-14.3,0-26,11.7-26,26c0,14.3,11.7,26,26,26c14.3,0,26-11.7,26-26C270.9,227.4,259.3,215.7,244.9,215.7z"/>
		</g>
	</g>
</g>
</svg>
