<?xml version="1.0" encoding="utf-8"?>
<!-- Generator: Adobe Illustrator 24.1.2, SVG Export Plug-In . SVG Version: 6.00 Build 0)  -->
<svg version="1.1" xmlns="http://www.w3.org/2000/svg" xmlns:xlink="http://www.w3.org/1999/xlink" x="0px" y="0px"
	 viewBox="0 0 690 500" style="enable-background:new 0 0 690 500;" xml:space="preserve">
<style type="text/css">
	.st0{fill:#E9E200;stroke:#F59F04;stroke-miterlimit:10;}
	.st1{clip-path:url(#SVGID_2_);}
	.st2{clip-path:url(#SVGID_4_);fill:#627A18;}
	.st3{clip-path:url(#SVGID_4_);fill:#1D1D1B;}
	.st4{clip-path:url(#SVGID_4_);fill:#AF9784;}
	.st5{clip-path:url(#SVGID_4_);fill:#755B4C;}
	.st6{clip-path:url(#SVGID_4_);fill:#95C11F;}
	.st7{clip-path:url(#SVGID_6_);}
	.st8{clip-path:url(#SVGID_8_);}
	.st9{clip-path:url(#SVGID_8_);fill:#9C4E2A;}
	.st10{clip-path:url(#SVGID_8_);fill:#642E14;}
	.st11{clip-path:url(#SVGID_8_);fill:#FFF5D7;}
	.st12{clip-path:url(#SVGID_8_);fill:#FFFFFF;}
	.st13{clip-path:url(#SVGID_10_);}
	.st14{clip-path:url(#SVGID_12_);}
	.st15{clip-path:url(#SVGID_12_);fill:#9C4E2A;}
	.st16{clip-path:url(#SVGID_12_);fill:#642E14;}
	.st17{clip-path:url(#SVGID_12_);fill:#FFF5D7;}
	.st18{clip-path:url(#SVGID_12_);fill:#FFFFFF;}
	.st19{clip-path:url(#SVGID_14_);}
	.st20{clip-path:url(#SVGID_16_);}
	.st21{clip-path:url(#SVGID_16_);fill:#9C4E2A;}
	.st22{clip-path:url(#SVGID_16_);fill:#642E14;}
	.st23{clip-path:url(#SVGID_16_);fill:#FFF5D7;}
	.st24{clip-path:url(#SVGID_16_);fill:#FFFFFF;}
	.st25{clip-path:url(#SVGID_18_);}
	.st26{clip-path:url(#SVGID_20_);fill:#627A18;}
	.st27{clip-path:url(#SVGID_20_);fill:#1D1D1B;}
	.st28{clip-path:url(#SVGID_20_);fill:#AF9784;}
	.st29{clip-path:url(#SVGID_20_);fill:#755B4C;}
	.st30{clip-path:url(#SVGID_20_);fill:#95C11F;}
	.hide { opacity: 0 }
	#QUEST { transition: all .3s}
</style>
<g id="TIGER">
</g>
<g id="QUEST">
	<g>
		<path class="st0" d="M390.2,119.2c0,4.8-1,8.8-2.9,12c-1.9,3.2-4.1,5.9-6.4,8.3c-1.5,1.5-3,3-4.5,4.5c-1.4,1.4-2.7,3-3.9,4.6
			c-1.2,1.6-2.2,3.4-3,5.3c-0.8,1.9-1.4,4.1-1.7,6.5h-23c0.1-5.9,1-10.7,2.8-14.2c1.8-3.5,4-6.7,6.7-9.6c1.2-1.3,2.5-2.6,3.8-3.9
			c1.3-1.3,2.6-2.6,3.7-3.9c1.1-1.3,2-2.7,2.8-4.2c0.7-1.5,1.1-3,1.1-4.7c0-1.8-0.9-3.7-2.6-5.7c-1.7-1.9-4.1-2.9-7.2-2.9
			c-2,0-3.8,0.5-5.2,1.4c-1.4,0.9-2.6,2.1-3.6,3.5c-1,1.4-1.7,3.1-2.1,5c-0.5,1.9-0.7,3.8-0.8,5.6h-23.8c0.1-5.9,1.2-11.2,3.1-15.7
			c2-4.5,4.7-8.3,8.1-11.3c3.4-3,7.2-5.3,11.6-6.8c4.3-1.5,8.9-2.3,13.7-2.3c5.1,0,9.7,0.7,13.8,2.1c4.1,1.4,7.6,3.4,10.5,6
			c2.9,2.6,5.2,5.6,6.8,9.1C389.4,111.3,390.2,115.1,390.2,119.2z M343.1,180.6c0-2.5,0.4-4.5,1.3-6.2c0.9-1.7,2-3.1,3.3-4.1
			c1.3-1.1,2.8-1.9,4.4-2.4c1.6-0.5,3.1-0.8,4.5-0.8c3.9,0,7,1.3,9.3,4c2.3,2.7,3.5,5.8,3.5,9.4c0,3.8-1.3,6.9-3.8,9.4
			c-2.5,2.5-5.6,3.8-9.3,3.8c-3.7,0-6.8-1.2-9.4-3.7C344.3,187.5,343.1,184.3,343.1,180.6z"/>
	</g>
</g>
<g id="P1">
	<g>
		<g>
			<defs>
				<rect id="SVGID_1_" x="89.2" y="180.3" width="165" height="270.5"/>
			</defs>
			<clipPath id="SVGID_2_">
				<use xlink:href="#SVGID_1_"  style="overflow:visible;"/>
			</clipPath>
			<g class="st1">
				<defs>
					<rect id="SVGID_3_" x="89.2" y="180.3" width="165" height="270.5"/>
				</defs>
				<clipPath id="SVGID_4_">
					<use xlink:href="#SVGID_3_"  style="overflow:visible;"/>
				</clipPath>
				<path class="st2" d="M189.4,316.3c-8.4,0.6-16.7,0.8-25.1,0.7c-10.2-0.1-27.6,3.9-26.7-9.8c0.9-12.8,1.7-25.7,2.6-38.5
					c0.6-9.4,1-18.8,1.9-28.2c0.1-1.4,0.4-3,1.7-3.6c0.8-0.5,1.8-0.4,2.8-0.3c9,0.9,17.7,1.2,26.6,2.3c3.3,0.4,28.1-2.5,28.9-0.8
					c4.7,9.6,3.1,23.9,4.3,34.3c1.4,12.4,0.2,25.5,0.2,37.9c0,1.5-0.1,3.1-1.2,4c-0.7,0.6-1.7,0.7-2.6,0.8
					C198.3,315.5,193.9,316,189.4,316.3"/>
				<path class="st3" d="M151.5,318.3c-4.9,0-9.6-0.6-12.3-3.4c-1.8-1.8-2.6-4.4-2.4-7.8l2.6-38.5c0.2-2.9,0.4-5.9,0.5-8.8
					c0.4-6.4,0.8-13,1.4-19.4c0.2-1.5,0.5-3.4,2.1-4.3c1.1-0.6,2.3-0.5,3.2-0.4c3.8,0.4,7.7,0.7,11.4,0.9c5,0.4,10.1,0.7,15.2,1.3
					c1.2,0.1,5.7-0.2,10.4-0.5c15.2-1.1,18.6-1.1,19.2,0.2c3.3,6.8,3.6,15.6,3.8,24.1c0.1,3.8,0.2,7.3,0.5,10.5
					c1,8.6,0.7,17.6,0.4,26.4c-0.1,3.8-0.2,7.8-0.2,11.7c0,1.2,0,3.4-1.6,4.7c-0.9,0.7-2.1,0.9-3,1c-4.4,0.5-8.9,0.9-13.4,1.2
					c-8.3,0.6-16.8,0.8-25.2,0.7c-1.8,0-3.9,0.1-6.1,0.2C156,318.2,153.7,318.3,151.5,318.3 M145.4,237.3c-0.4,0-0.9,0.1-1.2,0.2
					c-0.9,0.5-1.1,1.8-1.2,3c-0.7,6.4-1,13-1.4,19.3c-0.2,2.9-0.3,5.9-0.5,8.8l-2.6,38.5c-0.2,2.9,0.4,5,1.9,6.5
					c3.4,3.5,11,3,17.7,2.7c2.2-0.1,4.3-0.2,6.2-0.2c8.3,0.1,16.7-0.2,25-0.7l0.1,0.8l-0.1-0.8c4.4-0.3,8.9-0.7,13.3-1.2
					c0.9-0.1,1.6-0.2,2.1-0.6c0.8-0.7,0.9-2.1,0.9-3.4c0-3.9,0.1-7.9,0.2-11.7c0.3-8.7,0.5-17.6-0.4-26.1c-0.4-3.3-0.5-6.8-0.6-10.6
					c-0.2-8.3-0.4-16.9-3.5-23.3c-1.6-0.6-11.6,0.1-17.7,0.6c-5.2,0.4-9.4,0.7-10.7,0.5c-5-0.6-10.2-1-15.1-1.3
					c-3.7-0.3-7.6-0.6-11.5-0.9C146.1,237.3,145.8,237.3,145.4,237.3"/>
				<rect x="137.6" y="320.4" class="st4" width="8.9" height="74.2"/>
				<path class="st3" d="M147.3,395.5h-10.6v-75.9h10.6V395.5z M138.4,393.8h7.3v-72.6h-7.3V393.8z"/>
				<rect x="146.5" y="311.1" class="st5" width="8.9" height="74.2"/>
				<path class="st3" d="M156.2,386.1h-10.6v-75.9h10.6V386.1z M147.3,384.4h7.3v-72.6h-7.3V384.4z"/>
				<rect x="194.5" y="320.4" class="st4" width="8.9" height="74.2"/>
				<path class="st3" d="M204.2,395.5h-10.6v-75.9h10.6V395.5z M195.3,393.8h7.3v-72.6h-7.3V393.8z"/>
				<rect x="185.6" y="311.1" class="st5" width="8.9" height="74.2"/>
				<path class="st3" d="M195.3,386.1h-10.6v-75.9h10.6V386.1z M186.4,384.4h7.3v-72.6h-7.3V384.4z"/>
				<path class="st6" d="M202.3,334.5c6.1-1.7,10.6-4.8,11.2-10.4c0.7-7.1-4.8-13.6-11.4-16.3c-6.6-2.7-13.9-2.6-21.1-2.3
					c-11.4,0.4-33.5-3.7-43.5,3c-7.6,5.1-11.6,16.4-2,21.5c9,4.8,19.6,5.5,29.8,5.5C172.5,335.6,190.5,337.7,202.3,334.5"/>
				<path class="st3" d="M185.2,337.1c-4.9,0-9.6-0.3-13.4-0.5c-2.6-0.1-4.8-0.3-6.5-0.3c-10.3-0.1-21-0.8-30.2-5.6
					c-4.7-2.5-5.9-6.1-6-8.8c-0.3-5,2.9-10.7,8-14.1c7.5-5.1,21.5-4.2,32.8-3.6c4.2,0.2,8.1,0.5,11.2,0.4c6.8-0.2,14.6-0.5,21.4,2.4
					c6.5,2.7,12.7,9.5,11.9,17.2c-0.5,5.4-4.5,9.1-11.8,11.1C197.4,336.7,191.2,337.1,185.2,337.1 M156.9,305.4
					c-7.4,0-14.5,0.8-19,3.8c-4.5,3.1-7.5,8.3-7.3,12.7c0.2,3.2,2,5.7,5.1,7.4c8.9,4.7,19.4,5.4,29.5,5.5c1.7,0,4,0.1,6.6,0.3
					c8.5,0.5,21.2,1.2,30.2-1.3l0.2,0.8l-0.2-0.8c6.6-1.8,10.1-5,10.6-9.6c0.7-6.9-5-13-10.9-15.5c-6.5-2.7-14.1-2.5-20.7-2.3
					c-3.2,0.1-7.1-0.1-11.4-0.4C165.6,305.7,161.2,305.4,156.9,305.4"/>
			</g>
		</g>
	</g>
	<g>
		<g>
			<defs>
				<rect id="SVGID_5_" x="145" y="366.8" width="58" height="66.9"/>
			</defs>
			<clipPath id="SVGID_6_">
				<use xlink:href="#SVGID_5_"  style="overflow:visible;"/>
			</clipPath>
			<g class="st7">
				<defs>
					<rect id="SVGID_7_" x="145" y="366.8" width="58" height="66.9"/>
				</defs>
				<clipPath id="SVGID_8_">
					<use xlink:href="#SVGID_7_"  style="overflow:visible;"/>
				</clipPath>
				<path class="st8" d="M174.4,377.6c1.8,0,3.5,0,5.3,0.3c2.1,0.4,4,1.2,5.8,2.3c1.2,0.7,2.4,1.5,3.4,2.5c1.2,1.3,2.1,2.7,2.8,4.2
					c0.3,0.7,0.6,1.5,1,2.2c0.1,0.3,0.3,0.6,0.4,0.9c0.4,0.8,0.8,1.6,0.9,2.4c0.2,1,0.5,1.9,0.6,2.9c0.5,3.1,0.6,6.2,0.3,9.3
					c-0.5,4.9-2.6,9-6.3,12.2c-2.1,1.8-4.3,3.3-6.9,4.2c-1.9,0.7-3.8,1-5.8,1.2c-1.7,0.2-3.3,0.3-5,0.4c-1.9,0.1-3.8-0.2-5.6-0.9
					c-1.2-0.5-2.3-1.3-3.3-2.2c-3.1-2.7-5.3-6.1-6.9-9.9c-0.9-2.3-1.7-4.6-2.1-7c-0.3-2.1-0.3-4.3-0.2-6.4c0.1-1,0.1-2,0.3-3
					c0.3-1.8,1-3.5,2.1-5c1.6-2.3,3.5-4.3,5.7-6c0.9-0.8,1.9-1.6,2.8-2.4c1-0.8,2.2-1.3,3.5-1.6C169.7,377.8,172,377.6,174.4,377.6
					 M153.7,396.5C153.6,396.5,153.6,396.5,153.7,396.5c-0.1,0.2-0.1,0.4-0.1,0.6c0,1.8-0.1,3.6,0.2,5.4c0.6,3.6,1.9,7,3.6,10.2
					c1.3,2.4,3,4.5,5,6.3c0.8,0.7,1.7,1.4,2.6,1.9c1.6,0.8,3.3,1.1,5.1,1.1c2.4,0,4.8-0.3,7.2-0.7c1.7-0.3,3.3-0.7,4.9-1.3
					c2.6-1.1,4.8-2.7,6.8-4.7c3-3,4.6-6.7,5.1-10.9c0.3-3.1,0.2-6.2-0.3-9.2c-0.1-0.3-0.1-0.6-0.2-0.9c-0.1,0.3-0.1,0.5-0.1,0.8
					c-0.1,1.2-0.2,2.4-0.7,3.6c-0.9,2.1-2.3,3.7-4.2,5c-1.9,1.3-4,2-6.3,2.5c-1.8,0.3-3.6,0.6-5.3,0.8c-2.6,0.3-5.3,0.5-7.9,0.4
					c-3.2-0.2-6.3-0.8-9.2-2.2c-2-1-3.6-2.4-4.7-4.3c-0.7-1.3-1.2-2.7-1.5-4.1C153.7,396.7,153.7,396.6,153.7,396.5 M175,378.3
					c-2.8,0.1-4.9,0.2-6.9,0.7c-1.4,0.3-2.8,0.8-3.9,1.7c-0.7,0.5-1.4,1.1-2.1,1.7c-2.4,1.8-4.4,4-6.1,6.4c-1.1,1.6-1.8,3.3-1.8,5.2
					c0,1.3,0.2,2.6,0.6,3.9c0.6,2,1.6,3.8,3.3,5.2c1.4,1.2,3.1,1.9,4.8,2.4c2.8,0.9,5.7,1.2,8.7,1.1c3.6-0.1,7.2-0.5,10.8-1.3
					c2-0.4,4-1.1,5.8-2.2c2.6-1.7,4.3-4,4.7-7.2c0.2-2.1,0.1-4.1-0.8-6.1c-0.5-1.2-1-2.3-1.5-3.4c-0.7-1.4-1.6-2.6-2.8-3.7
					c-0.8-0.8-1.8-1.3-2.7-1.8c-1.8-1.1-3.8-1.9-6-2.3C177.4,378.3,175.9,378.3,175,378.3"/>
				<path class="st9" d="M153.7,396.5c0,0.1,0,0.2,0.1,0.3c0.3,1.5,0.8,2.8,1.5,4.1c1.1,1.9,2.7,3.3,4.7,4.3c2.9,1.4,6,2.1,9.2,2.2
					c2.6,0.1,5.3,0,7.9-0.4c1.8-0.2,3.6-0.5,5.3-0.8c2.2-0.4,4.4-1.2,6.3-2.5c1.9-1.3,3.3-2.9,4.2-5c0.5-1.1,0.6-2.3,0.7-3.6
					c0-0.3,0-0.5,0.1-0.8c0.1,0.3,0.1,0.6,0.2,0.9c0.5,3.1,0.7,6.1,0.3,9.2c-0.4,4.2-2,7.9-5.1,10.9c-2,2-4.2,3.6-6.8,4.7
					c-1.6,0.7-3.2,1.1-4.9,1.3c-2.4,0.4-4.8,0.7-7.2,0.7c-1.8,0-3.5-0.3-5.1-1.1c-1-0.5-1.8-1.2-2.6-1.9c-2-1.8-3.7-3.9-5-6.3
					c-1.7-3.2-3-6.6-3.6-10.2c-0.3-1.8-0.3-3.6-0.2-5.4C153.6,396.9,153.6,396.7,153.7,396.5C153.6,396.5,153.6,396.5,153.7,396.5
					 M160.1,408.2c-0.8-0.9-1.7-1.8-2.7-2.4c0,0,0,0-0.1,0c0,0-0.1,0-0.1,0c0,0,0,0.1,0,0.1c0,0.1,0.1,0.1,0.1,0.2
					C158.1,407,159,407.7,160.1,408.2 M161.6,416.5C161.6,416.5,161.6,416.5,161.6,416.5c0.1-0.1,0.2-0.1,0.3-0.2
					c0.5-0.6,1.1-1.3,1.6-1.9c0.1-0.1,0-0.3,0-0.4c-0.1,0-0.3,0-0.4,0.1c-0.3,0.2-0.5,0.5-0.7,0.8
					C162,415.4,161.8,415.9,161.6,416.5 M190.9,406.2C190.9,406.2,190.9,406.1,190.9,406.2c-0.9-0.1-1.7,0.1-2.4,0.4
					c0,0-0.1,0-0.1,0.1c-0.1,0.1-0.1,0.2,0,0.3c0.1,0,0.1,0,0.2,0C189.5,407,190.3,406.8,190.9,406.2 M188.8,408.4
					c0.4,0.4,2,0.7,2.5,0.5C190.8,408.3,189.4,408.1,188.8,408.4 M164.3,415.2c-0.1,0-0.1,0-0.1,0c0,0-0.1,0-0.1,0
					c-0.6,0.4-1,0.9-1.3,1.5c-0.1,0.2-0.1,0.5,0.1,0.7C163.5,416.7,163.9,416,164.3,415.2 M160.1,409.2c-0.8-0.6-1.7-0.9-2.6-0.9
					C158.2,408.9,159.1,409.2,160.1,409.2 M171,419.5c0.1-0.2,0.3-0.4,0.4-0.6c0.2-0.5,0.4-1,0.6-1.4c0-0.1,0-0.1,0-0.2
					c-0.1,0-0.1,0-0.2,0c-0.1,0-0.1,0.1-0.1,0.1C171.1,418.1,170.9,418.7,171,419.5 M188.9,409.5
					C188.9,409.5,188.9,409.5,188.9,409.5c0.2,0.6,0.5,1.2,1,1.6c0.1,0.1,0.3,0.1,0.5,0.2C190.4,410.7,189.4,409.6,188.9,409.5
					 M172.6,411.5c0.7-0.3,1.2-0.8,1.7-1.3c0.1-0.1,0.1-0.2-0.1-0.2c-0.1,0-0.2,0-0.3,0.1C173.3,410.3,172.9,410.8,172.6,411.5
					 M164.7,416.1c-0.3,0.5-0.3,1.8,0.1,2.3C165,417.9,165,416.5,164.7,416.1 M182.1,414.9c0.1,0.6,1,1.4,1.7,1.6
					C183.4,415.8,182.9,415.2,182.1,414.9 M172.8,418.2c-0.4,0.5-0.3,1.6,0.1,2.1C173.2,419.6,173.1,418.6,172.8,418.2 M175.2,410.7
					c-0.6,0.4-0.9,1.3-0.8,2.1C174.8,412.2,175,411.5,175.2,410.7 M173.8,418.8c-0.2,0.5,0.2,1.4,0.8,1.8
					C174.6,420.1,174.1,419.1,173.8,418.8 M175.9,411.4c-0.2,0.4,0.1,1.4,0.6,1.6C176.5,412.3,176.3,411.9,175.9,411.4 M177,410.7
					c0.2,0.7,0.9,1,1.5,1.3C178.1,411.5,177.7,411,177,410.7 M176.7,420.4c-0.3-0.6-1.1-1.3-1.5-1.4
					C175.4,419.8,176.1,420,176.7,420.4 M186,413.7c-0.6-0.2-1.3-0.3-1.6,0C184.7,414.1,185.4,414,186,413.7 M160,410
					c-0.4-0.3-1.1-0.3-1.5,0C158.7,410.3,159.5,410.3,160,410 M185.5,411.7c-0.5-0.1-0.9-0.1-1.1,0.3c0,0-0.1,0.1-0.1,0.2
					c0,0,0.1,0.1,0.2,0.1C184.9,412.3,185.3,412.1,185.5,411.7 M183.5,414.3c0,0.4,0.8,0.9,1.3,0.9
					C184.4,414.8,184.1,414.4,183.5,414.3"/>
				<path class="st10" d="M175,378.3c0.9,0,2.4,0,4,0.3c2.1,0.4,4.1,1.2,6,2.3c0.9,0.6,1.9,1.1,2.7,1.8c1.1,1.1,2.1,2.3,2.8,3.7
					c0.5,1.1,1,2.3,1.5,3.4c0.8,2,1,4,0.8,6.1c-0.3,3.2-2.1,5.5-4.7,7.2c-1.8,1.2-3.7,1.8-5.8,2.2c-3.6,0.7-7.2,1.2-10.8,1.3
					c-2.9,0.1-5.9-0.2-8.7-1.1c-1.7-0.5-3.4-1.3-4.8-2.4c-1.7-1.4-2.7-3.2-3.3-5.2c-0.4-1.3-0.6-2.6-0.6-3.9c0-1.9,0.7-3.7,1.8-5.2
					c1.7-2.4,3.8-4.6,6.1-6.4c0.7-0.5,1.4-1.1,2.1-1.7c1.2-0.9,2.5-1.4,3.9-1.7C170.1,378.5,172.2,378.4,175,378.3 M172.3,405
					C172.3,405,172.3,405.1,172.3,405c1.2,0,2.5,0,3.7-0.1c1.3-0.1,2.6-0.2,3.9-0.4c0.9-0.1,1.8-0.2,2.6-0.6
					c1.2-0.5,2.5-0.9,3.8-1.2c0.7-0.2,1.3-0.4,1.9-0.8c0.7-0.5,1.3-1.1,1.8-1.7c0.4-0.5,0.8-1,1.2-1.5c0.5-0.6,0.9-1.3,1-2.1
					c0.2-1.6,0.1-3.2-0.1-4.8c-0.2-0.9-0.5-1.7-1.1-2.5c-0.5-0.6-0.9-1.2-1.3-1.9c-0.5-0.9-1-1.8-1.5-2.6c-0.4-0.8-0.9-1.5-1.7-2
					c-1.3-0.9-2.7-1.6-4.3-1.7c-1.1-0.1-2.1-0.4-3.1-0.9c-0.3-0.1-0.5-0.3-0.8-0.3c-0.9-0.2-1.8-0.4-2.7-0.6
					c-0.4-0.1-0.9-0.1-1.3-0.1c-1.2,0.1-2.3,0.2-3.5,0.4c-2.7,0.4-5.4,1.2-7.6,2.8c-1.1,0.8-2.3,1.5-3.3,2.5
					c-0.7,0.8-1.4,1.6-2.1,2.4c-0.5,0.6-1,1.2-1.4,1.8c-0.9,1.3-1.1,2.8-1,4.4c0,0.9,0.1,1.8,0.1,2.8c0,1.1,0.3,2.1,1.1,2.9
					c0.9,1,1.9,2,2.9,3c0.9,0.8,1.9,1.4,3.1,1.7c0.6,0.1,1.2,0.2,1.8,0.3c1,0.2,2.1,0.4,3.1,0.6c0.6,0.1,1.2,0.2,1.8,0.2
					C170.3,405,171.3,405,172.3,405"/>
				<path class="st8" d="M160.1,408.2c-1.1-0.5-2-1.2-2.8-2.1c0-0.1-0.1-0.1-0.1-0.2c0,0,0-0.1,0-0.1c0,0,0.1,0,0.1,0c0,0,0,0,0.1,0
					C158.4,406.5,159.3,407.3,160.1,408.2"/>
				<path class="st8" d="M161.6,416.5c0.2-0.6,0.4-1.2,0.8-1.6c0.2-0.3,0.5-0.5,0.7-0.8c0.1-0.1,0.2-0.1,0.4-0.1c0,0.1,0,0.3,0,0.4
					c-0.5,0.6-1,1.3-1.6,1.9C161.8,416.4,161.7,416.5,161.6,416.5C161.6,416.5,161.6,416.5,161.6,416.5"/>
				<path class="st8" d="M190.9,406.2c-0.6,0.6-1.4,0.8-2.2,0.8c-0.1,0-0.1,0-0.2,0c-0.2-0.1-0.2-0.2,0-0.3c0,0,0.1,0,0.1-0.1
					C189.3,406.3,190,406.1,190.9,406.2C190.9,406.1,190.9,406.2,190.9,406.2"/>
				<path class="st8" d="M188.8,408.4c0.6-0.4,2-0.1,2.5,0.5C190.8,409.1,189.2,408.8,188.8,408.4"/>
				<path class="st8" d="M164.3,415.2c-0.4,0.7-0.8,1.5-1.3,2.2c-0.2-0.3-0.2-0.5-0.1-0.7c0.3-0.6,0.7-1.1,1.3-1.5c0,0,0,0,0.1,0
					C164.2,415.2,164.2,415.2,164.3,415.2"/>
				<path class="st8" d="M160.1,409.2c-1,0-1.9-0.3-2.6-0.9C158.4,408.3,159.3,408.6,160.1,409.2"/>
				<path class="st8" d="M171,419.5c0-0.8,0.1-1.5,0.7-2.1c0,0,0.1-0.1,0.1-0.1c0.1,0,0.1,0,0.2,0c0,0.1,0,0.1,0,0.2
					c-0.2,0.5-0.4,1-0.6,1.4C171.3,419.2,171.1,419.3,171,419.5"/>
				<path class="st8" d="M188.9,409.5c0.5,0.1,1.5,1.2,1.5,1.7c-0.2-0.1-0.4-0.1-0.5-0.2C189.4,410.6,189.1,410.1,188.9,409.5
					C188.9,409.5,188.9,409.5,188.9,409.5"/>
				<path class="st8" d="M172.6,411.5c0.3-0.7,0.7-1.2,1.3-1.4c0.1,0,0.2-0.1,0.3-0.1c0.1,0,0.2,0.1,0.1,0.2
					C173.9,410.7,173.3,411.2,172.6,411.5"/>
				<path class="st8" d="M164.7,416.1c0.3,0.4,0.3,1.8,0.1,2.3C164.4,417.9,164.4,416.6,164.7,416.1"/>
				<path class="st8" d="M182.1,414.9c0.8,0.3,1.3,0.9,1.7,1.6C183.1,416.3,182.2,415.6,182.1,414.9"/>
				<path class="st8" d="M172.8,418.2c0.3,0.5,0.3,1.4,0.1,2.1C172.5,419.8,172.5,418.6,172.8,418.2"/>
				<path class="st8" d="M175.2,410.7c-0.1,0.8-0.4,1.5-0.8,2.1C174.3,412,174.5,411.1,175.2,410.7"/>
				<path class="st8" d="M173.8,418.8c0.4,0.3,0.8,1.3,0.8,1.8C174,420.2,173.6,419.4,173.8,418.8"/>
				<path class="st8" d="M175.9,411.4c0.3,0.5,0.6,1,0.6,1.6C176,412.8,175.7,411.8,175.9,411.4"/>
				<path class="st8" d="M177,410.7c0.7,0.2,1.1,0.8,1.5,1.3C177.9,411.7,177.2,411.5,177,410.7"/>
				<path class="st8" d="M176.7,420.4c-0.6-0.3-1.2-0.6-1.5-1.4C175.6,419.1,176.4,419.8,176.7,420.4"/>
				<path class="st8" d="M186,413.7c-0.6,0.3-1.2,0.4-1.6,0C184.7,413.4,185.4,413.5,186,413.7"/>
				<path class="st8" d="M160,410c-0.4,0.4-1.3,0.3-1.5,0C158.8,409.7,159.5,409.7,160,410"/>
				<path class="st8" d="M185.5,411.7c-0.3,0.4-0.6,0.6-1,0.6c-0.1,0-0.1,0-0.2-0.1c0,0,0-0.1,0.1-0.2
					C184.7,411.7,185.1,411.6,185.5,411.7"/>
				<path class="st8" d="M183.5,414.3c0.6,0.1,0.9,0.6,1.3,0.9C184.2,415.2,183.5,414.7,183.5,414.3"/>
				<path class="st8" d="M172.3,405c-1,0-2.1,0-3.1-0.1c-0.6,0-1.2-0.1-1.8-0.2c-1-0.2-2.1-0.4-3.1-0.6c-0.6-0.1-1.2-0.2-1.8-0.3
					c-1.2-0.2-2.2-0.8-3.1-1.7c-1-1-1.9-2-2.9-3c-0.8-0.8-1.1-1.8-1.1-2.9c0-0.9-0.1-1.8-0.1-2.8c-0.1-1.5,0.1-3.1,1-4.4
					c0.4-0.6,0.9-1.2,1.4-1.8c0.7-0.8,1.4-1.6,2.1-2.4c0.9-1,2.1-1.7,3.3-2.5c2.3-1.7,4.9-2.4,7.6-2.8c1.1-0.2,2.3-0.3,3.5-0.4
					c0.4,0,0.9,0,1.3,0.1c0.9,0.2,1.8,0.4,2.7,0.6c0.3,0.1,0.6,0.2,0.8,0.3c1,0.5,2,0.9,3.1,0.9c1.6,0.1,3,0.8,4.3,1.7
					c0.8,0.5,1.3,1.2,1.7,2c0.5,0.9,0.9,1.8,1.5,2.6c0.4,0.7,0.9,1.3,1.3,1.9c0.5,0.8,0.9,1.6,1.1,2.5c0.3,1.6,0.3,3.2,0.1,4.8
					c-0.1,0.8-0.5,1.5-1,2.1c-0.4,0.5-0.9,1-1.2,1.5c-0.5,0.7-1.1,1.2-1.8,1.7c-0.6,0.4-1.2,0.7-1.9,0.8c-1.3,0.3-2.5,0.7-3.8,1.2
					c-0.8,0.3-1.7,0.5-2.6,0.6c-1.3,0.1-2.6,0.3-3.9,0.4C174.8,405,173.6,405,172.3,405C172.3,405.1,172.3,405,172.3,405
					 M189.2,391.5L189.2,391.5c0.1,0.1,0.2,0.3,0.3,0.4c0.5,0.7,1,1.4,1.3,2.3c0.3,1.1,0.3,2.1,0.2,3.2c0,0.3-0.1,0.6-0.1,0.9
					c0,0,0,0,0.1,0c0.1-0.1,0.1-0.1,0.2-0.2c0.4-0.4,0.6-0.9,0.7-1.5c0.2-1,0.1-2,0.1-2.9c0-0.7-0.1-1.3-0.2-1.9
					c-0.1-0.8-0.5-1.5-1-2.2c-0.9-1.2-1.7-2.4-2.3-3.8c-0.5-1.1-1.1-2.1-2.2-2.8c-1.2-0.8-2.4-1.4-3.9-1.5c-1.1-0.1-2.2-0.4-3.2-1
					c-0.2-0.1-0.4-0.2-0.7-0.3c-0.9-0.2-1.9-0.4-2.8-0.6c-0.4-0.1-0.8-0.1-1.2-0.1c-1.4,0.1-2.8,0.3-4.2,0.5
					c-1.9,0.3-3.7,0.9-5.4,1.8c-1.1,0.6-2.2,1.4-3.2,2.2c-0.7,0.5-1.3,1.2-1.9,1.8c-1.1,1.1-2,2.3-2.9,3.6c-0.7,1-0.8,2.1-0.8,3.2
					c0,1.2,0.1,2.4,0.1,3.6c0,0.5,0.2,1,0.3,1.5c0,0,0,0.1,0.1,0.1c0.1-0.5,0.1-1,0.3-1.5c0.3-1.1,1-2,1.7-2.9
					c1.3-1.6,2.8-3,4.4-4.4c0.6-0.5,1.3-1.1,2-1.6c-0.6-0.5-1.1-1.1-1.6-1.8c0,0,0,0,0.1-0.1c0.6,0.6,1.1,1.1,1.7,1.7
					c0,0,0.1-0.1,0.2-0.1c0.7-0.5,1.4-1,2.2-1.4c0.9-0.5,1.9-0.6,2.9-0.8c1.5-0.2,3-0.2,4.4,0.5c0.2,0.1,0.5,0.1,0.8,0.1
					c0.3,0,0.6-0.1,1-0.2c0.3-0.1,0.6-0.1,0.8,0.1c0.5,0.5,1.1,0.3,1.7,0.3c-0.1-1,0-2.1,0.2-3.1c0,0,0.1,0,0.1,0c0,1-0.1,2-0.1,3
					c0.1,0,0.2,0,0.3,0c0.6,0,0.8,0.1,1,0.7c0,0.1,0.1,0.3,0.1,0.4c0.1,0.3,0.1,0.5,0.2,0.8c0.1,0.2,0.2,0.3,0.4,0.3
					c0.3,0,0.5-0.1,0.8-0.1c0.9-0.2,1.8-0.3,2.7,0c0.1,0,0.2,0,0.2-0.1c0.4-0.4,0.7-0.8,1.1-1.1c0.1-0.1,0.1-0.1,0.2-0.2
					c0,0,0,0,0.1,0.1c-0.4,0.5-0.8,1-1.3,1.5c0.6,0.3,1.1,0.8,1.3,1.6c0,0.1,0.2,0.2,0.3,0.3c0.5,0.2,0.9,0.4,1.3,0.8
					C188.4,390.7,188.8,391.1,189.2,391.5 M174,404.5C174,404.5,174,404.5,174,404.5c0.6-0.1,1.2-0.1,1.8-0.1c1.3-0.1,2.7-0.3,4-0.4
					c1-0.1,2-0.3,3-0.7c1-0.4,2.1-0.7,3.1-1c0.7-0.2,1.5-0.4,2.1-0.9c0.9-0.6,1.6-1.5,2.2-2.3c0-0.1,0.1-0.1,0.1-0.2
					c0.1-0.8,0.3-1.5,0.3-2.3c0.1-1.2-0.1-2.4-0.8-3.4c-0.4-0.6-0.9-1.2-1.4-1.8c-0.6-0.6-1.2-1.2-2.1-1.5c-0.3-0.1-0.4-0.3-0.5-0.6
					c-0.2-0.6-0.5-0.9-1-1.2c-0.4-0.2-0.9-0.3-1.4-0.3c-0.6,0.1-1.3,0.2-1.9,0.3c-0.7,0.1-1-0.1-1.2-0.8c-0.1-0.3-0.2-0.6-0.3-0.9
					c-0.1-0.4-0.2-0.4-0.6-0.4c-0.4,0-0.9,0.1-1.3,0.1c-0.3,0-0.7,0-0.9-0.2c-0.3-0.3-0.6-0.3-1-0.1c-0.1,0-0.3,0.1-0.4,0.1
					c-0.5,0.2-1,0.1-1.5-0.1c-0.6-0.3-1.3-0.4-2-0.5c-1.1-0.1-2.1,0.1-3.1,0.3c-1.2,0.2-2.2,0.7-3.2,1.4c-1.9,1.4-3.7,2.9-5.4,4.6
					c-1.1,1.1-2.2,2.3-3,3.6c-0.6,0.9-0.9,1.9-0.8,3c0,0.3,0.1,0.6,0.4,0.9c0.8,0.8,1.6,1.6,2.4,2.4c1,1,2.3,1.6,3.7,1.8
					c1.2,0.1,2.3,0.3,3.5,0.6c1,0.2,2.1,0.4,3.1,0.4C171.3,404.4,172.6,404.5,174,404.5"/>
				<path class="st11" d="M174,404.5c-1.3,0-2.7-0.1-4-0.1c-1.1,0-2.1-0.2-3.1-0.4c-1.1-0.3-2.3-0.4-3.5-0.6
					c-1.5-0.2-2.7-0.8-3.7-1.8c-0.8-0.8-1.6-1.6-2.4-2.4c-0.2-0.2-0.3-0.5-0.4-0.9c-0.1-1.1,0.2-2.1,0.8-3c0.8-1.4,1.9-2.5,3-3.6
					c1.7-1.7,3.5-3.2,5.4-4.6c0.9-0.7,2-1.2,3.2-1.4c1-0.2,2-0.4,3.1-0.3c0.7,0,1.4,0.2,2,0.5c0.5,0.3,1,0.3,1.5,0.1
					c0.1,0,0.3-0.1,0.4-0.1c0.4-0.1,0.6-0.1,1,0.1c0.2,0.2,0.6,0.2,0.9,0.2c0.4,0,0.9-0.1,1.3-0.1c0.4,0,0.5,0,0.6,0.4
					c0.1,0.3,0.2,0.6,0.3,0.9c0.2,0.7,0.5,0.9,1.2,0.8c0.6-0.1,1.3-0.2,1.9-0.3c0.5,0,1,0,1.4,0.3c0.5,0.3,0.9,0.6,1,1.2
					c0.1,0.3,0.2,0.5,0.5,0.6c0.9,0.3,1.5,0.8,2.1,1.5c0.5,0.6,1,1.2,1.4,1.8c0.7,1,0.9,2.2,0.8,3.4c-0.1,0.8-0.2,1.5-0.3,2.3
					c0,0.1,0,0.2-0.1,0.2c-0.6,0.9-1.4,1.7-2.2,2.3c-0.6,0.5-1.4,0.6-2.1,0.9c-1.1,0.3-2.1,0.6-3.1,1c-1,0.3-1.9,0.6-3,0.7
					c-1.3,0.1-2.7,0.3-4,0.4C175.2,404.5,174.6,404.5,174,404.5C174,404.5,174,404.5,174,404.5"/>
				<path class="st12" d="M189.2,391.5c-0.4-0.4-0.8-0.8-1.2-1.2c-0.4-0.3-0.8-0.6-1.3-0.8c-0.1,0-0.3-0.2-0.3-0.3
					c-0.2-0.7-0.7-1.2-1.3-1.6c0.4-0.5,0.9-1,1.3-1.5c0,0,0,0-0.1-0.1c-0.1,0.1-0.2,0.1-0.2,0.2c-0.4,0.4-0.7,0.8-1.1,1.1
					c0,0-0.1,0.1-0.2,0.1c-0.9-0.3-1.8-0.2-2.7,0c-0.3,0.1-0.5,0.1-0.8,0.1c-0.2,0-0.4-0.1-0.4-0.3c-0.1-0.3-0.1-0.5-0.2-0.8
					c0-0.1-0.1-0.3-0.1-0.4c-0.2-0.5-0.4-0.7-1-0.7c-0.1,0-0.2,0-0.3,0c0-1,0.1-2,0.1-3c0,0-0.1,0-0.1,0c-0.2,1-0.4,2-0.2,3.1
					c-0.6,0.1-1.2,0.2-1.7-0.3c-0.2-0.2-0.5-0.2-0.8-0.1c-0.3,0.1-0.6,0.2-1,0.2c-0.3,0-0.5,0-0.8-0.1c-1.4-0.7-2.9-0.7-4.4-0.5
					c-1,0.2-2,0.3-2.9,0.8c-0.7,0.4-1.4,0.9-2.2,1.4c-0.1,0.1-0.2,0.1-0.2,0.1c-0.6-0.6-1.2-1.1-1.7-1.7c0,0,0,0-0.1,0.1
					c0.4,0.7,1,1.3,1.6,1.8c-0.7,0.6-1.3,1.1-2,1.6c-1.6,1.4-3.1,2.8-4.4,4.4c-0.7,0.9-1.4,1.8-1.7,2.9c-0.1,0.5-0.2,1-0.3,1.5
					c0,0,0,0-0.1-0.1c-0.1-0.5-0.2-1-0.3-1.5c-0.1-1.2-0.1-2.4-0.1-3.6c0-1.1,0.2-2.2,0.8-3.2c0.9-1.3,1.8-2.5,2.9-3.6
					c0.6-0.6,1.2-1.3,1.9-1.8c1-0.8,2.1-1.5,3.2-2.2c1.7-1,3.5-1.5,5.4-1.8c1.4-0.2,2.8-0.3,4.2-0.5c0.4,0,0.8,0,1.2,0.1
					c0.9,0.2,1.9,0.4,2.8,0.6c0.2,0.1,0.5,0.2,0.7,0.3c1,0.6,2.1,0.9,3.2,1c1.5,0.1,2.7,0.7,3.9,1.5c1.1,0.7,1.7,1.7,2.2,2.8
					c0.7,1.3,1.4,2.6,2.3,3.8c0.5,0.7,0.8,1.4,1,2.2c0.1,0.6,0.2,1.3,0.2,1.9c0.1,1,0.1,2-0.1,2.9c-0.1,0.6-0.3,1-0.7,1.5
					c-0.1,0.1-0.1,0.1-0.2,0.2c0,0,0,0-0.1,0c0-0.3,0.1-0.6,0.1-0.9c0.1-1.1,0.1-2.2-0.2-3.2c-0.3-0.8-0.8-1.6-1.3-2.3
					C189.4,391.8,189.3,391.7,189.2,391.5c0.1,0,0.2,0,0.3-0.1c0.5-0.2,0.7-0.7,1-1.1c-0.5,0.2-0.9,0.5-1.3,0.9
					C189.2,391.3,189.2,391.4,189.2,391.5 M174.2,384.5c0,0,0.1,0,0.1,0c0-1.2-0.4-2.3-0.6-3.4c0,0.4,0,0.9,0.1,1.3
					c0.1,0.6,0.2,1.2,0.3,1.8C174.1,384.3,174.2,384.4,174.2,384.5 M156.5,391.6C156.4,391.6,156.4,391.6,156.5,391.6
					c0.2,0.4,0.5,0.8,0.8,1.2c0.2,0.2,0.4,0.4,0.6,0.6c0.1,0.1,0.2,0,0.3,0.1c0-0.1,0-0.2-0.1-0.3
					C157.6,392.6,157,392.1,156.5,391.6 M182.5,384.6C182.5,384.6,182.5,384.6,182.5,384.6C182.4,384.6,182.4,384.6,182.5,384.6
					c-0.5,0.7-0.9,1.4-1.2,2.1c-0.1,0.1-0.1,0.3-0.1,0.4c0,0,0.1,0,0.1,0C181.7,386.3,182.1,385.5,182.5,384.6 M161.9,389
					c-0.5-0.6-1-1-1.6-1.2C160.7,388.3,161.1,388.9,161.9,389 M169,382.6c0.2,0.6,0.2,1.3,0.7,1.8
					C169.7,383.8,169.4,383.2,169,382.6 M191.3,392.9c-0.2,0-0.5,0-0.7,0.3C190.9,393.3,191.1,393.1,191.3,392.9"/>
				<path class="st8" d="M174.2,384.5c-0.1-0.1-0.1-0.2-0.2-0.3c-0.1-0.6-0.2-1.2-0.3-1.8c-0.1-0.4-0.1-0.9-0.1-1.3
					c0.3,1.1,0.6,2.3,0.6,3.4C174.3,384.5,174.3,384.5,174.2,384.5"/>
				<path class="st8" d="M156.5,391.6c0.5,0.5,1.1,1,1.6,1.5c0.1,0.1,0,0.2,0.1,0.3c-0.1,0-0.2,0-0.3-0.1c-0.2-0.2-0.5-0.4-0.6-0.6
					C156.9,392.4,156.7,392,156.5,391.6C156.4,391.6,156.4,391.6,156.5,391.6"/>
				<path class="st8" d="M182.5,384.6c-0.4,0.9-0.8,1.7-1.2,2.6c0,0-0.1,0-0.1,0c0-0.1,0-0.3,0.1-0.4
					C181.7,386,182,385.3,182.5,384.6C182.4,384.6,182.4,384.6,182.5,384.6C182.5,384.6,182.5,384.6,182.5,384.6"/>
				<path class="st8" d="M189.2,391.5c0-0.1,0-0.2,0.1-0.3c0.3-0.5,0.8-0.7,1.3-0.9c-0.2,0.5-0.5,0.9-1,1.1
					C189.4,391.5,189.3,391.5,189.2,391.5C189.2,391.5,189.2,391.5,189.2,391.5"/>
				<path class="st8" d="M161.9,389c-0.8-0.2-1.2-0.7-1.6-1.2C160.9,388.1,161.4,388.5,161.9,389"/>
				<path class="st8" d="M169,382.6c0.4,0.6,0.7,1.1,0.7,1.8C169.3,383.9,169.2,383.2,169,382.6"/>
				<path class="st8" d="M191.3,392.9c-0.2,0.2-0.4,0.3-0.7,0.3C190.7,393,191,393,191.3,392.9"/>
			</g>
		</g>
	</g>
	<g>
		<g>
			<defs>
				<rect id="SVGID_9_" x="101" y="359.3" width="58" height="66.9"/>
			</defs>
			<clipPath id="SVGID_10_">
				<use xlink:href="#SVGID_9_"  style="overflow:visible;"/>
			</clipPath>
			<g class="st13">
				<defs>
					<rect id="SVGID_11_" x="101" y="359.3" width="58" height="66.9"/>
				</defs>
				<clipPath id="SVGID_12_">
					<use xlink:href="#SVGID_11_"  style="overflow:visible;"/>
				</clipPath>
				<path class="st14" d="M130.4,370.1c1.8,0,3.5,0,5.3,0.3c2.1,0.4,4,1.2,5.8,2.3c1.2,0.7,2.4,1.5,3.4,2.5c1.2,1.3,2.1,2.7,2.8,4.2
					c0.3,0.7,0.6,1.5,1,2.2c0.1,0.3,0.3,0.6,0.4,0.9c0.4,0.8,0.8,1.6,0.9,2.4c0.2,1,0.5,1.9,0.6,2.9c0.5,3.1,0.6,6.2,0.3,9.3
					c-0.5,4.9-2.6,9-6.3,12.2c-2.1,1.8-4.3,3.3-6.9,4.2c-1.9,0.7-3.8,1-5.8,1.2c-1.7,0.2-3.3,0.3-5,0.4c-1.9,0.1-3.8-0.2-5.6-0.9
					c-1.2-0.5-2.3-1.3-3.3-2.2c-3.1-2.7-5.3-6.1-6.9-9.9c-0.9-2.3-1.7-4.6-2.1-7c-0.3-2.1-0.3-4.3-0.2-6.4c0.1-1,0.1-2,0.3-3
					c0.3-1.8,1-3.5,2.1-5c1.6-2.3,3.5-4.3,5.7-6c0.9-0.8,1.9-1.6,2.8-2.4c1-0.8,2.2-1.3,3.5-1.6C125.7,370.4,128,370.1,130.4,370.1
					 M109.7,389.1C109.7,389.1,109.7,389.1,109.7,389.1c-0.1,0.2-0.1,0.4-0.1,0.6c0,1.8-0.1,3.6,0.2,5.4c0.6,3.6,1.9,7,3.6,10.2
					c1.3,2.4,3,4.5,5,6.3c0.8,0.7,1.7,1.4,2.6,1.9c1.6,0.8,3.3,1.1,5.1,1.1c2.4,0,4.8-0.3,7.2-0.7c1.7-0.3,3.3-0.7,4.9-1.3
					c2.6-1.1,4.8-2.7,6.8-4.7c3-3,4.6-6.7,5.1-10.9c0.3-3.1,0.2-6.2-0.3-9.2c-0.1-0.3-0.1-0.6-0.2-0.9c-0.1,0.3-0.1,0.5-0.1,0.8
					c-0.1,1.2-0.2,2.4-0.7,3.6c-0.9,2.1-2.3,3.7-4.2,5c-1.9,1.3-4,2-6.3,2.5c-1.8,0.3-3.6,0.6-5.3,0.8c-2.6,0.3-5.3,0.5-7.9,0.4
					c-3.2-0.2-6.3-0.8-9.2-2.2c-2-1-3.6-2.4-4.7-4.3c-0.7-1.3-1.2-2.7-1.5-4.1C109.7,389.2,109.7,389.1,109.7,389.1 M131,370.9
					c-2.8,0.1-4.9,0.2-6.9,0.7c-1.4,0.3-2.8,0.8-3.9,1.7c-0.7,0.5-1.4,1.1-2.1,1.7c-2.4,1.8-4.4,4-6.1,6.4c-1.1,1.6-1.8,3.3-1.8,5.2
					c0,1.3,0.2,2.6,0.6,3.9c0.6,2,1.6,3.8,3.3,5.2c1.4,1.2,3.1,1.9,4.8,2.4c2.8,0.9,5.7,1.2,8.7,1.1c3.6-0.1,7.2-0.5,10.8-1.3
					c2-0.4,4-1.1,5.8-2.2c2.6-1.7,4.3-4,4.7-7.2c0.2-2.1,0.1-4.1-0.8-6.1c-0.5-1.2-1-2.3-1.5-3.4c-0.7-1.4-1.6-2.6-2.8-3.7
					c-0.8-0.8-1.8-1.3-2.7-1.8c-1.8-1.1-3.8-1.9-6-2.3C133.5,370.9,131.9,370.9,131,370.9"/>
				<path class="st15" d="M109.7,389.1c0,0.1,0,0.2,0.1,0.3c0.3,1.5,0.8,2.8,1.5,4.1c1.1,1.9,2.7,3.3,4.7,4.3c2.9,1.4,6,2.1,9.2,2.2
					c2.6,0.1,5.3,0,7.9-0.4c1.8-0.2,3.6-0.5,5.3-0.8c2.2-0.4,4.4-1.2,6.3-2.5c1.9-1.3,3.3-2.9,4.2-5c0.5-1.1,0.6-2.3,0.7-3.6
					c0-0.3,0-0.5,0.1-0.8c0.1,0.3,0.1,0.6,0.2,0.9c0.5,3.1,0.7,6.1,0.3,9.2c-0.4,4.2-2,7.9-5.1,10.9c-2,2-4.2,3.6-6.8,4.7
					c-1.6,0.7-3.2,1.1-4.9,1.3c-2.4,0.4-4.8,0.7-7.2,0.7c-1.8,0-3.5-0.3-5.1-1.1c-1-0.5-1.8-1.2-2.6-1.9c-2-1.8-3.7-3.9-5-6.3
					c-1.7-3.2-3-6.6-3.6-10.2c-0.3-1.8-0.3-3.6-0.2-5.4C109.6,389.4,109.6,389.2,109.7,389.1C109.7,389.1,109.7,389.1,109.7,389.1
					 M116.1,400.8c-0.8-0.9-1.7-1.8-2.7-2.4c0,0,0,0-0.1,0c0,0-0.1,0-0.1,0c0,0,0,0.1,0,0.1c0,0.1,0.1,0.1,0.1,0.2
					C114.1,399.6,115,400.3,116.1,400.8 M117.6,409.1C117.7,409.1,117.7,409.1,117.6,409.1c0.1-0.1,0.2-0.1,0.3-0.2
					c0.5-0.6,1.1-1.3,1.6-1.9c0.1-0.1,0-0.3,0-0.4c-0.1,0-0.3,0-0.4,0.1c-0.3,0.2-0.5,0.5-0.7,0.8
					C118,407.9,117.8,408.5,117.6,409.1 M147,398.7C146.9,398.7,146.9,398.7,147,398.7c-0.9-0.1-1.7,0.1-2.4,0.4c0,0-0.1,0-0.1,0.1
					c-0.1,0.1-0.1,0.2,0,0.3c0.1,0,0.1,0,0.2,0C145.6,399.5,146.3,399.3,147,398.7 M144.8,400.9c0.4,0.4,2,0.7,2.5,0.5
					C146.9,400.9,145.5,400.6,144.8,400.9 M120.3,407.8c-0.1,0-0.1,0-0.1,0c0,0-0.1,0-0.1,0c-0.6,0.4-1,0.9-1.3,1.5
					c-0.1,0.2-0.1,0.5,0.1,0.7C119.5,409.2,119.9,408.5,120.3,407.8 M116.1,401.8c-0.8-0.6-1.7-0.9-2.6-0.9
					C114.3,401.5,115.1,401.8,116.1,401.8 M127,412.1c0.1-0.2,0.3-0.4,0.4-0.6c0.2-0.5,0.4-1,0.6-1.4c0-0.1,0-0.1,0-0.2
					c-0.1,0-0.1,0-0.2,0c-0.1,0-0.1,0.1-0.1,0.1C127.2,410.6,127,411.3,127,412.1 M144.9,402C144.9,402,144.9,402.1,144.9,402
					c0.2,0.6,0.5,1.2,1,1.6c0.1,0.1,0.3,0.1,0.5,0.2C146.4,403.2,145.5,402.2,144.9,402 M128.6,404.1c0.7-0.3,1.2-0.8,1.7-1.3
					c0.1-0.1,0.1-0.2-0.1-0.2c-0.1,0-0.2,0-0.3,0.1C129.3,402.9,128.9,403.4,128.6,404.1 M120.7,408.7c-0.3,0.5-0.3,1.8,0.1,2.3
					C121.1,410.4,121,409.1,120.7,408.7 M138.1,407.5c0.1,0.6,1,1.4,1.7,1.6C139.4,408.4,138.9,407.8,138.1,407.5 M128.9,410.7
					c-0.4,0.5-0.3,1.6,0.1,2.1C129.2,412.1,129.2,411.2,128.9,410.7 M131.2,403.3c-0.6,0.4-0.9,1.3-0.8,2.1
					C130.8,404.7,131.1,404,131.2,403.3 M129.8,411.4c-0.2,0.5,0.2,1.4,0.8,1.8C130.6,412.7,130.1,411.7,129.8,411.4 M131.9,403.9
					c-0.2,0.4,0.1,1.4,0.6,1.6C132.6,404.9,132.3,404.4,131.9,403.9 M133,403.3c0.2,0.7,0.9,1,1.5,1.3
					C134.1,404,133.7,403.5,133,403.3 M132.7,412.9c-0.3-0.6-1.1-1.3-1.5-1.4C131.5,412.3,132.1,412.6,132.7,412.9 M142,406.2
					c-0.6-0.2-1.3-0.3-1.6,0C140.8,406.6,141.4,406.5,142,406.2 M116,402.5c-0.4-0.3-1.1-0.3-1.5,0
					C114.7,402.8,115.6,402.9,116,402.5 M141.6,404.3c-0.5-0.1-0.9-0.1-1.1,0.3c0,0-0.1,0.1-0.1,0.2c0,0,0.1,0.1,0.2,0.1
					C141,404.9,141.3,404.6,141.6,404.3 M139.5,406.8c0,0.4,0.8,0.9,1.3,0.9C140.4,407.3,140.1,406.9,139.5,406.8"/>
				<path class="st16" d="M131,370.9c0.9,0,2.4,0,4,0.3c2.1,0.4,4.1,1.2,6,2.3c0.9,0.6,1.9,1.1,2.7,1.8c1.1,1.1,2.1,2.3,2.8,3.7
					c0.5,1.1,1,2.3,1.5,3.4c0.8,2,1,4,0.8,6.1c-0.3,3.2-2.1,5.5-4.7,7.2c-1.8,1.2-3.7,1.8-5.8,2.2c-3.6,0.7-7.2,1.2-10.8,1.3
					c-2.9,0.1-5.9-0.2-8.7-1.1c-1.7-0.5-3.4-1.3-4.8-2.4c-1.7-1.4-2.7-3.2-3.3-5.2c-0.4-1.3-0.6-2.6-0.6-3.9c0-1.9,0.7-3.7,1.8-5.2
					c1.7-2.4,3.8-4.6,6.1-6.4c0.7-0.5,1.4-1.1,2.1-1.7c1.2-0.9,2.5-1.4,3.9-1.7C126.2,371.1,128.2,370.9,131,370.9 M128.4,397.5
					C128.4,397.6,128.4,397.6,128.4,397.5c1.2,0,2.5,0,3.7-0.1c1.3-0.1,2.6-0.2,3.9-0.4c0.9-0.1,1.8-0.2,2.6-0.6
					c1.2-0.5,2.5-0.9,3.8-1.2c0.7-0.2,1.3-0.4,1.9-0.8c0.7-0.5,1.3-1.1,1.8-1.7c0.4-0.5,0.8-1,1.2-1.5c0.5-0.6,0.9-1.3,1-2.1
					c0.2-1.6,0.1-3.2-0.1-4.8c-0.2-0.9-0.5-1.7-1.1-2.5c-0.5-0.6-0.9-1.2-1.3-1.9c-0.5-0.9-1-1.8-1.5-2.6c-0.4-0.8-0.9-1.5-1.7-2
					c-1.3-0.9-2.7-1.6-4.3-1.7c-1.1-0.1-2.1-0.4-3.1-0.9c-0.3-0.1-0.5-0.3-0.8-0.3c-0.9-0.2-1.8-0.4-2.7-0.6
					c-0.4-0.1-0.9-0.1-1.3-0.1c-1.2,0.1-2.3,0.2-3.5,0.4c-2.7,0.4-5.4,1.2-7.6,2.8c-1.1,0.8-2.3,1.5-3.3,2.5
					c-0.7,0.8-1.4,1.6-2.1,2.4c-0.5,0.6-1,1.2-1.4,1.8c-0.9,1.3-1.1,2.8-1,4.4c0,0.9,0.1,1.8,0.1,2.8c0,1.1,0.3,2.1,1.1,2.9
					c0.9,1,1.9,2,2.9,3c0.9,0.8,1.9,1.4,3.1,1.7c0.6,0.1,1.2,0.2,1.8,0.3c1,0.2,2.1,0.4,3.1,0.6c0.6,0.1,1.2,0.2,1.8,0.2
					C126.3,397.5,127.4,397.5,128.4,397.5"/>
				<path class="st14" d="M116.1,400.8c-1.1-0.5-2-1.2-2.8-2.1c0-0.1-0.1-0.1-0.1-0.2c0,0,0-0.1,0-0.1c0,0,0.1,0,0.1,0
					c0,0,0,0,0.1,0C114.5,399,115.4,399.8,116.1,400.8"/>
				<path class="st14" d="M117.6,409.1c0.2-0.6,0.4-1.2,0.8-1.6c0.2-0.3,0.5-0.5,0.7-0.8c0.1-0.1,0.2-0.1,0.4-0.1c0,0.1,0,0.3,0,0.4
					c-0.5,0.6-1,1.3-1.6,1.9C117.9,408.9,117.8,409,117.6,409.1C117.7,409.1,117.7,409.1,117.6,409.1"/>
				<path class="st14" d="M147,398.7c-0.6,0.6-1.4,0.8-2.2,0.8c-0.1,0-0.1,0-0.2,0c-0.2-0.1-0.2-0.2,0-0.3c0,0,0.1,0,0.1-0.1
					C145.3,398.8,146.1,398.6,147,398.7C146.9,398.7,146.9,398.7,147,398.7"/>
				<path class="st14" d="M144.8,400.9c0.6-0.4,2-0.1,2.5,0.5C146.9,401.6,145.3,401.4,144.8,400.9"/>
				<path class="st14" d="M120.3,407.8c-0.4,0.7-0.8,1.5-1.3,2.2c-0.2-0.3-0.2-0.5-0.1-0.7c0.3-0.6,0.7-1.1,1.3-1.5c0,0,0,0,0.1,0
					C120.2,407.7,120.3,407.7,120.3,407.8"/>
				<path class="st14" d="M116.1,401.8c-1,0-1.9-0.3-2.6-0.9C114.5,400.9,115.3,401.2,116.1,401.8"/>
				<path class="st14" d="M127,412.1c0-0.8,0.1-1.5,0.7-2.1c0,0,0.1-0.1,0.1-0.1c0.1,0,0.1,0,0.2,0c0,0.1,0,0.1,0,0.2
					c-0.2,0.5-0.4,1-0.6,1.4C127.3,411.7,127.1,411.9,127,412.1"/>
				<path class="st14" d="M144.9,402c0.5,0.1,1.5,1.2,1.5,1.7c-0.2-0.1-0.4-0.1-0.5-0.2C145.5,403.2,145.2,402.7,144.9,402
					C144.9,402.1,144.9,402,144.9,402"/>
				<path class="st14" d="M128.6,404.1c0.3-0.7,0.7-1.2,1.3-1.4c0.1,0,0.2-0.1,0.3-0.1c0.1,0,0.2,0.1,0.1,0.2
					C129.9,403.3,129.3,403.7,128.6,404.1"/>
				<path class="st14" d="M120.7,408.7c0.3,0.4,0.3,1.8,0.1,2.3C120.5,410.4,120.4,409.1,120.7,408.7"/>
				<path class="st14" d="M138.1,407.5c0.8,0.3,1.3,0.9,1.7,1.6C139.1,408.9,138.2,408.1,138.1,407.5"/>
				<path class="st14" d="M128.9,410.7c0.3,0.5,0.3,1.4,0.1,2.1C128.6,412.3,128.5,411.2,128.9,410.7"/>
				<path class="st14" d="M131.2,403.3c-0.1,0.8-0.4,1.5-0.8,2.1C130.3,404.5,130.6,403.6,131.2,403.3"/>
				<path class="st14" d="M129.8,411.4c0.4,0.3,0.8,1.3,0.8,1.8C130,412.7,129.6,411.9,129.8,411.4"/>
				<path class="st14" d="M131.9,403.9c0.3,0.5,0.6,1,0.6,1.6C132,405.3,131.7,404.4,131.9,403.9"/>
				<path class="st14" d="M133,403.3c0.7,0.2,1.1,0.8,1.5,1.3C133.9,404.3,133.3,404,133,403.3"/>
				<path class="st14" d="M132.7,412.9c-0.6-0.3-1.2-0.6-1.5-1.4C131.6,411.6,132.4,412.3,132.7,412.9"/>
				<path class="st14" d="M142,406.2c-0.6,0.3-1.2,0.4-1.6,0C140.7,405.9,141.5,406,142,406.2"/>
				<path class="st14" d="M116,402.5c-0.4,0.4-1.3,0.3-1.5,0C114.9,402.2,115.5,402.2,116,402.5"/>
				<path class="st14" d="M141.6,404.3c-0.3,0.4-0.6,0.6-1,0.6c-0.1,0-0.1,0-0.2-0.1c0,0,0-0.1,0.1-0.2
					C140.7,404.2,141.1,404.2,141.6,404.3"/>
				<path class="st14" d="M139.5,406.8c0.6,0.1,0.9,0.6,1.3,0.9C140.3,407.7,139.6,407.2,139.5,406.8"/>
				<path class="st14" d="M128.4,397.5c-1,0-2.1,0-3.1-0.1c-0.6,0-1.2-0.1-1.8-0.2c-1-0.2-2.1-0.4-3.1-0.6c-0.6-0.1-1.2-0.2-1.8-0.3
					c-1.2-0.2-2.2-0.8-3.1-1.7c-1-1-1.9-2-2.9-3c-0.8-0.8-1.1-1.8-1.1-2.9c0-0.9-0.1-1.8-0.1-2.8c-0.1-1.5,0.1-3.1,1-4.4
					c0.4-0.6,0.9-1.2,1.4-1.8c0.7-0.8,1.4-1.6,2.1-2.4c0.9-1,2.1-1.7,3.3-2.5c2.3-1.7,4.9-2.4,7.6-2.8c1.1-0.2,2.3-0.3,3.5-0.4
					c0.4,0,0.9,0,1.3,0.1c0.9,0.2,1.8,0.4,2.7,0.6c0.3,0.1,0.6,0.2,0.8,0.3c1,0.5,2,0.9,3.1,0.9c1.6,0.1,3,0.8,4.3,1.7
					c0.8,0.5,1.3,1.2,1.7,2c0.5,0.9,0.9,1.8,1.5,2.6c0.4,0.7,0.9,1.3,1.3,1.9c0.5,0.8,0.9,1.6,1.1,2.5c0.3,1.6,0.3,3.2,0.1,4.8
					c-0.1,0.8-0.5,1.5-1,2.1c-0.4,0.5-0.9,1-1.2,1.5c-0.5,0.7-1.1,1.2-1.8,1.7c-0.6,0.4-1.2,0.7-1.9,0.8c-1.3,0.3-2.5,0.7-3.8,1.2
					c-0.8,0.3-1.7,0.5-2.6,0.6c-1.3,0.1-2.6,0.3-3.9,0.4C130.9,397.6,129.6,397.6,128.4,397.5C128.4,397.6,128.4,397.6,128.4,397.5
					 M145.2,384.1L145.2,384.1c0.1,0.1,0.2,0.3,0.3,0.4c0.5,0.7,1,1.4,1.3,2.3c0.3,1.1,0.3,2.1,0.2,3.2c0,0.3-0.1,0.6-0.1,0.9
					c0,0,0,0,0.1,0c0.1-0.1,0.1-0.1,0.2-0.2c0.4-0.4,0.6-0.9,0.7-1.5c0.2-1,0.1-2,0.1-2.9c0-0.7-0.1-1.3-0.2-1.9
					c-0.1-0.8-0.5-1.5-1-2.2c-0.9-1.2-1.7-2.4-2.3-3.8c-0.5-1.1-1.1-2.1-2.2-2.8c-1.2-0.8-2.4-1.4-3.9-1.5c-1.1-0.1-2.2-0.4-3.2-1
					c-0.2-0.1-0.4-0.2-0.7-0.3c-0.9-0.2-1.9-0.4-2.8-0.6c-0.4-0.1-0.8-0.1-1.2-0.1c-1.4,0.1-2.8,0.3-4.2,0.5
					c-1.9,0.3-3.7,0.9-5.4,1.8c-1.1,0.6-2.2,1.4-3.2,2.2c-0.7,0.5-1.3,1.2-1.9,1.8c-1.1,1.1-2,2.3-2.9,3.6c-0.7,1-0.8,2.1-0.8,3.2
					c0,1.2,0.1,2.4,0.1,3.6c0,0.5,0.2,1,0.3,1.5c0,0,0,0.1,0.1,0.1c0.1-0.5,0.1-1,0.3-1.5c0.3-1.1,1-2,1.7-2.9
					c1.3-1.6,2.8-3,4.4-4.4c0.6-0.5,1.3-1.1,2-1.6c-0.6-0.5-1.1-1.1-1.6-1.8c0,0,0,0,0.1-0.1c0.6,0.6,1.1,1.1,1.7,1.7
					c0,0,0.1-0.1,0.2-0.1c0.7-0.5,1.4-1,2.2-1.4c0.9-0.5,1.9-0.6,2.9-0.8c1.5-0.2,3-0.2,4.4,0.5c0.2,0.1,0.5,0.1,0.8,0.1
					c0.3,0,0.6-0.1,1-0.2c0.3-0.1,0.6-0.1,0.8,0.1c0.5,0.5,1.1,0.3,1.7,0.3c-0.1-1,0-2.1,0.2-3.1c0,0,0.1,0,0.1,0c0,1-0.1,2-0.1,3
					c0.1,0,0.2,0,0.3,0c0.6,0,0.8,0.1,1,0.7c0,0.1,0.1,0.3,0.1,0.4c0.1,0.3,0.1,0.5,0.2,0.8c0.1,0.2,0.2,0.3,0.4,0.3
					c0.3,0,0.5-0.1,0.8-0.1c0.9-0.2,1.8-0.3,2.7,0c0.1,0,0.2,0,0.2-0.1c0.4-0.4,0.7-0.8,1.1-1.1c0.1-0.1,0.1-0.1,0.2-0.2
					c0,0,0,0,0.1,0.1c-0.4,0.5-0.8,1-1.3,1.5c0.6,0.3,1.1,0.8,1.3,1.6c0,0.1,0.2,0.2,0.3,0.3c0.5,0.2,0.9,0.4,1.3,0.8
					C144.4,383.2,144.8,383.7,145.2,384.1 M130,397.1C130,397.1,130,397.1,130,397.1c0.6-0.1,1.2-0.1,1.8-0.1c1.3-0.1,2.7-0.3,4-0.4
					c1-0.1,2-0.3,3-0.7c1-0.4,2.1-0.7,3.1-1c0.7-0.2,1.5-0.4,2.1-0.9c0.9-0.6,1.6-1.5,2.2-2.3c0-0.1,0.1-0.1,0.1-0.2
					c0.1-0.8,0.3-1.5,0.3-2.3c0.1-1.2-0.1-2.4-0.8-3.4c-0.4-0.6-0.9-1.2-1.4-1.8c-0.6-0.6-1.2-1.2-2.1-1.5c-0.3-0.1-0.4-0.3-0.5-0.6
					c-0.2-0.6-0.5-0.9-1-1.2c-0.4-0.2-0.9-0.3-1.4-0.3c-0.6,0.1-1.3,0.2-1.9,0.3c-0.7,0.1-1-0.1-1.2-0.8c-0.1-0.3-0.2-0.6-0.3-0.9
					c-0.1-0.4-0.2-0.4-0.6-0.4c-0.4,0-0.9,0.1-1.3,0.1c-0.3,0-0.7,0-0.9-0.2c-0.3-0.3-0.6-0.3-1-0.1c-0.1,0-0.3,0.1-0.4,0.1
					c-0.5,0.2-1,0.1-1.5-0.1c-0.6-0.3-1.3-0.4-2-0.5c-1.1-0.1-2.1,0.1-3.1,0.3c-1.2,0.2-2.2,0.7-3.2,1.4c-1.9,1.4-3.7,2.9-5.4,4.6
					c-1.1,1.1-2.2,2.3-3,3.6c-0.6,0.9-0.9,1.9-0.8,3c0,0.3,0.1,0.6,0.4,0.9c0.8,0.8,1.6,1.6,2.4,2.4c1,1,2.3,1.6,3.7,1.8
					c1.2,0.1,2.3,0.3,3.5,0.6c1,0.2,2.1,0.4,3.1,0.4C127.3,397,128.7,397,130,397.1"/>
				<path class="st17" d="M130,397.1c-1.3,0-2.7-0.1-4-0.1c-1.1,0-2.1-0.2-3.1-0.4c-1.1-0.3-2.3-0.4-3.5-0.6
					c-1.5-0.2-2.7-0.8-3.7-1.8c-0.8-0.8-1.6-1.6-2.4-2.4c-0.2-0.2-0.3-0.5-0.4-0.9c-0.1-1.1,0.2-2.1,0.8-3c0.8-1.4,1.9-2.5,3-3.6
					c1.7-1.7,3.5-3.2,5.4-4.6c0.9-0.7,2-1.2,3.2-1.4c1-0.2,2-0.4,3.1-0.3c0.7,0,1.4,0.2,2,0.5c0.5,0.3,1,0.3,1.5,0.1
					c0.1,0,0.3-0.1,0.4-0.1c0.4-0.1,0.6-0.1,1,0.1c0.2,0.2,0.6,0.2,0.9,0.2c0.4,0,0.9-0.1,1.3-0.1c0.4,0,0.5,0,0.6,0.4
					c0.1,0.3,0.2,0.6,0.3,0.9c0.2,0.7,0.5,0.9,1.2,0.8c0.6-0.1,1.3-0.2,1.9-0.3c0.5,0,1,0,1.4,0.3c0.5,0.3,0.9,0.6,1,1.2
					c0.1,0.3,0.2,0.5,0.5,0.6c0.9,0.3,1.5,0.8,2.1,1.5c0.5,0.6,1,1.2,1.4,1.8c0.7,1,0.9,2.2,0.8,3.4c-0.1,0.8-0.2,1.5-0.3,2.3
					c0,0.1,0,0.2-0.1,0.2c-0.6,0.9-1.4,1.7-2.2,2.3c-0.6,0.5-1.4,0.6-2.1,0.9c-1.1,0.3-2.1,0.6-3.1,1c-1,0.3-1.9,0.6-3,0.7
					c-1.3,0.1-2.7,0.3-4,0.4C131.2,397,130.6,397,130,397.1C130,397.1,130,397.1,130,397.1"/>
				<path class="st18" d="M145.2,384.1c-0.4-0.4-0.8-0.8-1.2-1.2c-0.4-0.3-0.8-0.6-1.3-0.8c-0.1,0-0.3-0.2-0.3-0.3
					c-0.2-0.7-0.7-1.2-1.3-1.6c0.4-0.5,0.9-1,1.3-1.5c0,0,0,0-0.1-0.1c-0.1,0.1-0.2,0.1-0.2,0.2c-0.4,0.4-0.7,0.8-1.1,1.1
					c0,0-0.1,0.1-0.2,0.1c-0.9-0.3-1.8-0.2-2.7,0c-0.3,0.1-0.5,0.1-0.8,0.1c-0.2,0-0.4-0.1-0.4-0.3c-0.1-0.3-0.1-0.5-0.2-0.8
					c0-0.1-0.1-0.3-0.1-0.4c-0.2-0.5-0.4-0.7-1-0.7c-0.1,0-0.2,0-0.3,0c0-1,0.1-2,0.1-3c0,0-0.1,0-0.1,0c-0.2,1-0.4,2-0.2,3.1
					c-0.6,0.1-1.2,0.2-1.7-0.3c-0.2-0.2-0.5-0.2-0.8-0.1c-0.3,0.1-0.6,0.2-1,0.2c-0.3,0-0.5,0-0.8-0.1c-1.4-0.7-2.9-0.7-4.4-0.5
					c-1,0.2-2,0.3-2.9,0.8c-0.7,0.4-1.4,0.9-2.2,1.4c-0.1,0.1-0.2,0.1-0.2,0.1c-0.6-0.6-1.2-1.1-1.7-1.7c0,0,0,0-0.1,0.1
					c0.4,0.7,1,1.3,1.6,1.8c-0.7,0.6-1.3,1.1-2,1.6c-1.6,1.4-3.1,2.8-4.4,4.4c-0.7,0.9-1.4,1.8-1.7,2.9c-0.1,0.5-0.2,1-0.3,1.5
					c0,0,0,0-0.1-0.1c-0.1-0.5-0.2-1-0.3-1.5c-0.1-1.2-0.1-2.4-0.1-3.6c0-1.1,0.2-2.2,0.8-3.2c0.9-1.3,1.8-2.5,2.9-3.6
					c0.6-0.6,1.2-1.3,1.9-1.8c1-0.8,2.1-1.5,3.2-2.2c1.7-1,3.5-1.5,5.4-1.8c1.4-0.2,2.8-0.3,4.2-0.5c0.4,0,0.8,0,1.2,0.1
					c0.9,0.2,1.9,0.4,2.8,0.6c0.2,0.1,0.5,0.2,0.7,0.3c1,0.6,2.1,0.9,3.2,1c1.5,0.1,2.7,0.7,3.9,1.5c1.1,0.7,1.7,1.7,2.2,2.8
					c0.7,1.3,1.4,2.6,2.3,3.8c0.5,0.7,0.8,1.4,1,2.2c0.1,0.6,0.2,1.3,0.2,1.9c0.1,1,0.1,2-0.1,2.9c-0.1,0.6-0.3,1-0.7,1.5
					c-0.1,0.1-0.1,0.1-0.2,0.2c0,0,0,0-0.1,0c0-0.3,0.1-0.6,0.1-0.9c0.1-1.1,0.1-2.2-0.2-3.2c-0.3-0.8-0.8-1.6-1.3-2.3
					C145.4,384.3,145.3,384.2,145.2,384.1c0.1,0,0.2,0,0.3-0.1c0.5-0.2,0.7-0.7,1-1.1c-0.5,0.2-0.9,0.5-1.3,0.9
					C145.2,383.9,145.3,384,145.2,384.1 M130.3,377c0,0,0.1,0,0.1,0c0-1.2-0.4-2.3-0.6-3.4c0,0.4,0,0.9,0.1,1.3
					c0.1,0.6,0.2,1.2,0.3,1.8C130.1,376.8,130.2,376.9,130.3,377 M112.5,384.1C112.5,384.1,112.4,384.2,112.5,384.1
					c0.2,0.4,0.5,0.8,0.8,1.2c0.2,0.2,0.4,0.4,0.6,0.6c0.1,0.1,0.2,0,0.3,0.1c0-0.1,0-0.2-0.1-0.3
					C113.6,385.1,113,384.6,112.5,384.1 M138.6,377.2C138.5,377.1,138.5,377.1,138.6,377.2C138.5,377.1,138.5,377.1,138.6,377.2
					c-0.5,0.7-0.9,1.4-1.2,2.1c-0.1,0.1-0.1,0.3-0.1,0.4c0,0,0.1,0,0.1,0C137.8,378.9,138.2,378,138.6,377.2 M118,381.6
					c-0.5-0.6-1-1-1.6-1.2C116.8,380.9,117.2,381.4,118,381.6 M125.1,375.1c0.2,0.6,0.2,1.3,0.7,1.8
					C125.8,376.3,125.4,375.7,125.1,375.1 M147.3,385.5c-0.2,0-0.5,0-0.7,0.3C146.9,385.8,147.1,385.6,147.3,385.5"/>
				<path class="st14" d="M130.3,377c-0.1-0.1-0.1-0.2-0.2-0.3c-0.1-0.6-0.2-1.2-0.3-1.8c-0.1-0.4-0.1-0.9-0.1-1.3
					c0.3,1.1,0.6,2.3,0.6,3.4C130.4,377,130.3,377,130.3,377"/>
				<path class="st14" d="M112.5,384.1c0.5,0.5,1.1,1,1.6,1.5c0.1,0.1,0,0.2,0.1,0.3c-0.1,0-0.2,0-0.3-0.1c-0.2-0.2-0.5-0.4-0.6-0.6
					C113,384.9,112.7,384.6,112.5,384.1C112.4,384.2,112.5,384.1,112.5,384.1"/>
				<path class="st14" d="M138.6,377.2c-0.4,0.9-0.8,1.7-1.2,2.6c0,0-0.1,0-0.1,0c0-0.1,0-0.3,0.1-0.4
					C137.7,378.5,138.1,377.8,138.6,377.2C138.5,377.1,138.5,377.1,138.6,377.2C138.5,377.1,138.5,377.1,138.6,377.2"/>
				<path class="st14" d="M145.2,384.1c0-0.1,0-0.2,0.1-0.3c0.3-0.5,0.8-0.7,1.3-0.9c-0.2,0.5-0.5,0.9-1,1.1
					C145.5,384.1,145.3,384,145.2,384.1C145.2,384.1,145.2,384.1,145.2,384.1"/>
				<path class="st14" d="M118,381.6c-0.8-0.2-1.2-0.7-1.6-1.2C116.9,380.6,117.5,381,118,381.6"/>
				<path class="st14" d="M125.1,375.1c0.4,0.6,0.7,1.1,0.7,1.8C125.3,376.5,125.2,375.8,125.1,375.1"/>
				<path class="st14" d="M147.3,385.5c-0.2,0.2-0.4,0.3-0.7,0.3C146.8,385.5,147.1,385.5,147.3,385.5"/>
			</g>
		</g>
	</g>
	<g>
		<g>
			<defs>
				<rect id="SVGID_13_" x="196.2" y="359.3" width="58" height="66.9"/>
			</defs>
			<clipPath id="SVGID_14_">
				<use xlink:href="#SVGID_13_"  style="overflow:visible;"/>
			</clipPath>
			<g class="st19">
				<defs>
					<rect id="SVGID_15_" x="196.2" y="359.3" width="58" height="66.9"/>
				</defs>
				<clipPath id="SVGID_16_">
					<use xlink:href="#SVGID_15_"  style="overflow:visible;"/>
				</clipPath>
				<path class="st20" d="M225.5,370.1c1.8,0,3.5,0,5.3,0.3c2.1,0.4,4,1.2,5.8,2.3c1.2,0.7,2.4,1.5,3.4,2.5c1.2,1.3,2.1,2.7,2.8,4.2
					c0.3,0.7,0.6,1.5,1,2.2c0.1,0.3,0.3,0.6,0.4,0.9c0.4,0.8,0.8,1.6,0.9,2.4c0.2,1,0.5,1.9,0.6,2.9c0.5,3.1,0.6,6.2,0.3,9.3
					c-0.5,4.9-2.6,9-6.3,12.2c-2.1,1.8-4.3,3.3-6.9,4.2c-1.9,0.7-3.8,1-5.8,1.2c-1.7,0.2-3.3,0.3-5,0.4c-1.9,0.1-3.8-0.2-5.6-0.9
					c-1.2-0.5-2.3-1.3-3.3-2.2c-3.1-2.7-5.3-6.1-6.9-9.9c-0.9-2.3-1.7-4.6-2.1-7c-0.3-2.1-0.3-4.3-0.2-6.4c0.1-1,0.1-2,0.3-3
					c0.3-1.8,1-3.5,2.1-5c1.6-2.3,3.5-4.3,5.7-6c0.9-0.8,1.9-1.6,2.8-2.4c1-0.8,2.2-1.3,3.5-1.6
					C220.9,370.4,223.2,370.1,225.5,370.1 M204.8,389.1C204.8,389.1,204.8,389.1,204.8,389.1c-0.1,0.2-0.1,0.4-0.1,0.6
					c0,1.8-0.1,3.6,0.2,5.4c0.6,3.6,1.9,7,3.6,10.2c1.3,2.4,3,4.5,5,6.3c0.8,0.7,1.7,1.4,2.6,1.9c1.6,0.8,3.3,1.1,5.1,1.1
					c2.4,0,4.8-0.3,7.2-0.7c1.7-0.3,3.3-0.7,4.9-1.3c2.6-1.1,4.8-2.7,6.8-4.7c3-3,4.6-6.7,5.1-10.9c0.3-3.1,0.2-6.2-0.3-9.2
					c-0.1-0.3-0.1-0.6-0.2-0.9c-0.1,0.3-0.1,0.5-0.1,0.8c-0.1,1.2-0.2,2.4-0.7,3.6c-0.9,2.1-2.3,3.7-4.2,5c-1.9,1.3-4,2-6.3,2.5
					c-1.8,0.3-3.6,0.6-5.3,0.8c-2.6,0.3-5.3,0.5-7.9,0.4c-3.2-0.2-6.3-0.8-9.2-2.2c-2-1-3.6-2.4-4.7-4.3c-0.7-1.3-1.2-2.7-1.5-4.1
					C204.9,389.2,204.8,389.1,204.8,389.1 M226.2,370.9c-2.8,0.1-4.9,0.2-6.9,0.7c-1.4,0.3-2.8,0.8-3.9,1.7
					c-0.7,0.5-1.4,1.1-2.1,1.7c-2.4,1.8-4.4,4-6.1,6.4c-1.1,1.6-1.8,3.3-1.8,5.2c0,1.3,0.2,2.6,0.6,3.9c0.6,2,1.6,3.8,3.3,5.2
					c1.4,1.2,3.1,1.9,4.8,2.4c2.8,0.9,5.7,1.2,8.7,1.1c3.6-0.1,7.2-0.5,10.8-1.3c2-0.4,4-1.1,5.8-2.2c2.6-1.7,4.3-4,4.7-7.2
					c0.2-2.1,0.1-4.1-0.8-6.1c-0.5-1.2-1-2.3-1.5-3.4c-0.7-1.4-1.6-2.6-2.8-3.7c-0.8-0.8-1.8-1.3-2.7-1.8c-1.8-1.1-3.8-1.9-6-2.3
					C228.6,370.9,227,370.9,226.2,370.9"/>
				<path class="st21" d="M204.8,389.1c0,0.1,0,0.2,0.1,0.3c0.3,1.5,0.8,2.8,1.5,4.1c1.1,1.9,2.7,3.3,4.7,4.3c2.9,1.4,6,2.1,9.2,2.2
					c2.6,0.1,5.3,0,7.9-0.4c1.8-0.2,3.6-0.5,5.3-0.8c2.2-0.4,4.4-1.2,6.3-2.5c1.9-1.3,3.3-2.9,4.2-5c0.5-1.1,0.6-2.3,0.7-3.6
					c0-0.3,0-0.5,0.1-0.8c0.1,0.3,0.1,0.6,0.2,0.9c0.5,3.1,0.7,6.1,0.3,9.2c-0.4,4.2-2,7.9-5.1,10.9c-2,2-4.2,3.6-6.8,4.7
					c-1.6,0.7-3.2,1.1-4.9,1.3c-2.4,0.4-4.8,0.7-7.2,0.7c-1.8,0-3.5-0.3-5.1-1.1c-1-0.5-1.8-1.2-2.6-1.9c-2-1.8-3.7-3.9-5-6.3
					c-1.7-3.2-3-6.6-3.6-10.2c-0.3-1.8-0.3-3.6-0.2-5.4C204.8,389.4,204.8,389.2,204.8,389.1C204.8,389.1,204.8,389.1,204.8,389.1
					 M211.3,400.8c-0.8-0.9-1.7-1.8-2.7-2.4c0,0,0,0-0.1,0c0,0-0.1,0-0.1,0c0,0,0,0.1,0,0.1c0,0.1,0.1,0.1,0.1,0.2
					C209.2,399.6,210.2,400.3,211.3,400.8 M212.8,409.1C212.8,409.1,212.8,409.1,212.8,409.1c0.1-0.1,0.2-0.1,0.3-0.2
					c0.5-0.6,1.1-1.3,1.6-1.9c0.1-0.1,0-0.3,0-0.4c-0.1,0-0.3,0-0.4,0.1c-0.3,0.2-0.5,0.5-0.7,0.8
					C213.2,407.9,213,408.5,212.8,409.1 M242.1,398.7C242,398.7,242,398.7,242.1,398.7c-0.9-0.1-1.7,0.1-2.4,0.4c0,0-0.1,0-0.1,0.1
					c-0.1,0.1-0.1,0.2,0,0.3c0.1,0,0.1,0,0.2,0C240.7,399.5,241.4,399.3,242.1,398.7 M240,400.9c0.4,0.4,2,0.7,2.5,0.5
					C242,400.9,240.6,400.6,240,400.9 M215.5,407.8c-0.1,0-0.1,0-0.1,0c0,0-0.1,0-0.1,0c-0.6,0.4-1,0.9-1.3,1.5
					c-0.1,0.2-0.1,0.5,0.1,0.7C214.6,409.2,215,408.5,215.5,407.8 M211.3,401.8c-0.8-0.6-1.7-0.9-2.6-0.9
					C209.4,401.5,210.2,401.8,211.3,401.8 M222.1,412.1c0.1-0.2,0.3-0.4,0.4-0.6c0.2-0.5,0.4-1,0.6-1.4c0-0.1,0-0.1,0-0.2
					c-0.1,0-0.1,0-0.2,0c-0.1,0-0.1,0.1-0.1,0.1C222.3,410.6,222.1,411.3,222.1,412.1 M240.1,402C240.1,402,240,402.1,240.1,402
					c0.2,0.6,0.5,1.2,1,1.6c0.1,0.1,0.3,0.1,0.5,0.2C241.6,403.2,240.6,402.2,240.1,402 M223.8,404.1c0.7-0.3,1.2-0.8,1.7-1.3
					c0.1-0.1,0.1-0.2-0.1-0.2c-0.1,0-0.2,0-0.3,0.1C224.5,402.9,224.1,403.4,223.8,404.1 M215.9,408.7c-0.3,0.5-0.3,1.8,0.1,2.3
					C216.2,410.4,216.1,409.1,215.9,408.7 M233.2,407.5c0.1,0.6,1,1.4,1.7,1.6C234.6,408.4,234,407.8,233.2,407.5 M224,410.7
					c-0.4,0.5-0.3,1.6,0.1,2.1C224.3,412.1,224.3,411.2,224,410.7 M226.3,403.3c-0.6,0.4-0.9,1.3-0.8,2.1
					C226,404.7,226.2,404,226.3,403.3 M224.9,411.4c-0.2,0.5,0.2,1.4,0.8,1.8C225.7,412.7,225.3,411.7,224.9,411.4 M227.1,403.9
					c-0.2,0.4,0.1,1.4,0.6,1.6C227.7,404.9,227.4,404.4,227.1,403.9 M228.2,403.3c0.2,0.7,0.9,1,1.5,1.3
					C229.2,404,228.8,403.5,228.2,403.3 M227.8,412.9c-0.3-0.6-1.1-1.3-1.5-1.4C226.6,412.3,227.3,412.6,227.8,412.9 M237.2,406.2
					c-0.6-0.2-1.3-0.3-1.6,0C235.9,406.6,236.6,406.5,237.2,406.2 M211.1,402.5c-0.4-0.3-1.1-0.3-1.5,0
					C209.8,402.8,210.7,402.9,211.1,402.5 M236.7,404.3c-0.5-0.1-0.9-0.1-1.1,0.3c0,0-0.1,0.1-0.1,0.2c0,0,0.1,0.1,0.2,0.1
					C236.1,404.9,236.4,404.6,236.7,404.3 M234.6,406.8c0,0.4,0.8,0.9,1.3,0.9C235.6,407.3,235.2,406.9,234.6,406.8"/>
				<path class="st22" d="M226.2,370.9c0.9,0,2.4,0,4,0.3c2.1,0.4,4.1,1.2,6,2.3c0.9,0.6,1.9,1.1,2.7,1.8c1.1,1.1,2.1,2.3,2.8,3.7
					c0.5,1.1,1,2.3,1.5,3.4c0.8,2,1,4,0.8,6.1c-0.3,3.2-2.1,5.5-4.7,7.2c-1.8,1.2-3.7,1.8-5.8,2.2c-3.6,0.7-7.2,1.2-10.8,1.3
					c-2.9,0.1-5.9-0.2-8.7-1.1c-1.7-0.5-3.4-1.3-4.8-2.4c-1.7-1.4-2.7-3.2-3.3-5.2c-0.4-1.3-0.6-2.6-0.6-3.9c0-1.9,0.7-3.7,1.8-5.2
					c1.7-2.4,3.8-4.6,6.1-6.4c0.7-0.5,1.4-1.1,2.1-1.7c1.2-0.9,2.5-1.4,3.9-1.7C221.3,371.1,223.4,370.9,226.2,370.9 M223.5,397.5
					C223.5,397.6,223.5,397.6,223.5,397.5c1.2,0,2.5,0,3.7-0.1c1.3-0.1,2.6-0.2,3.9-0.4c0.9-0.1,1.8-0.2,2.6-0.6
					c1.2-0.5,2.5-0.9,3.8-1.2c0.7-0.2,1.3-0.4,1.9-0.8c0.7-0.5,1.3-1.1,1.8-1.7c0.4-0.5,0.8-1,1.2-1.5c0.5-0.6,0.9-1.3,1-2.1
					c0.2-1.6,0.1-3.2-0.1-4.8c-0.2-0.9-0.5-1.7-1.1-2.5c-0.5-0.6-0.9-1.2-1.3-1.9c-0.5-0.9-1-1.8-1.5-2.6c-0.4-0.8-0.9-1.5-1.7-2
					c-1.3-0.9-2.7-1.6-4.3-1.7c-1.1-0.1-2.1-0.4-3.1-0.9c-0.3-0.1-0.5-0.3-0.8-0.3c-0.9-0.2-1.8-0.4-2.7-0.6
					c-0.4-0.1-0.9-0.1-1.3-0.1c-1.2,0.1-2.3,0.2-3.5,0.4c-2.7,0.4-5.4,1.2-7.6,2.8c-1.1,0.8-2.3,1.5-3.3,2.5
					c-0.7,0.8-1.4,1.6-2.1,2.4c-0.5,0.6-1,1.2-1.4,1.8c-0.9,1.3-1.1,2.8-1,4.4c0,0.9,0.1,1.8,0.1,2.8c0,1.1,0.3,2.1,1.1,2.9
					c0.9,1,1.9,2,2.9,3c0.9,0.8,1.9,1.4,3.1,1.7c0.6,0.1,1.2,0.2,1.8,0.3c1,0.2,2.1,0.4,3.1,0.6c0.6,0.1,1.2,0.2,1.8,0.2
					C221.5,397.5,222.5,397.5,223.5,397.5"/>
				<path class="st20" d="M211.3,400.8c-1.1-0.5-2-1.2-2.8-2.1c0-0.1-0.1-0.1-0.1-0.2c0,0,0-0.1,0-0.1c0,0,0.1,0,0.1,0
					c0,0,0,0,0.1,0C209.6,399,210.5,399.8,211.3,400.8"/>
				<path class="st20" d="M212.8,409.1c0.2-0.6,0.4-1.2,0.8-1.6c0.2-0.3,0.5-0.5,0.7-0.8c0.1-0.1,0.2-0.1,0.4-0.1c0,0.1,0,0.3,0,0.4
					c-0.5,0.6-1,1.3-1.6,1.9C213,408.9,212.9,409,212.8,409.1C212.8,409.1,212.8,409.1,212.8,409.1"/>
				<path class="st20" d="M242.1,398.7c-0.6,0.6-1.4,0.8-2.2,0.8c-0.1,0-0.1,0-0.2,0c-0.2-0.1-0.2-0.2,0-0.3c0,0,0.1,0,0.1-0.1
					C240.4,398.8,241.2,398.6,242.1,398.7C242,398.7,242,398.7,242.1,398.7"/>
				<path class="st20" d="M240,400.9c0.6-0.4,2-0.1,2.5,0.5C242,401.6,240.4,401.4,240,400.9"/>
				<path class="st20" d="M215.5,407.8c-0.4,0.7-0.8,1.5-1.3,2.2c-0.2-0.3-0.2-0.5-0.1-0.7c0.3-0.6,0.7-1.1,1.3-1.5c0,0,0,0,0.1,0
					C215.4,407.7,215.4,407.7,215.5,407.8"/>
				<path class="st20" d="M211.3,401.8c-1,0-1.9-0.3-2.6-0.9C209.6,400.9,210.4,401.2,211.3,401.8"/>
				<path class="st20" d="M222.1,412.1c0-0.8,0.1-1.5,0.7-2.1c0,0,0.1-0.1,0.1-0.1c0.1,0,0.1,0,0.2,0c0,0.1,0,0.1,0,0.2
					c-0.2,0.5-0.4,1-0.6,1.4C222.4,411.7,222.3,411.9,222.1,412.1"/>
				<path class="st20" d="M240.1,402c0.5,0.1,1.5,1.2,1.5,1.7c-0.2-0.1-0.4-0.1-0.5-0.2C240.6,403.2,240.3,402.7,240.1,402
					C240,402.1,240.1,402,240.1,402"/>
				<path class="st20" d="M223.8,404.1c0.3-0.7,0.7-1.2,1.3-1.4c0.1,0,0.2-0.1,0.3-0.1c0.1,0,0.2,0.1,0.1,0.2
					C225,403.3,224.5,403.7,223.8,404.1"/>
				<path class="st20" d="M215.9,408.7c0.3,0.4,0.3,1.8,0.1,2.3C215.6,410.4,215.5,409.1,215.9,408.7"/>
				<path class="st20" d="M233.2,407.5c0.8,0.3,1.3,0.9,1.7,1.6C234.3,408.9,233.3,408.1,233.2,407.5"/>
				<path class="st20" d="M224,410.7c0.3,0.5,0.3,1.4,0.1,2.1C223.7,412.3,223.6,411.2,224,410.7"/>
				<path class="st20" d="M226.3,403.3c-0.1,0.8-0.4,1.5-0.8,2.1C225.4,404.5,225.7,403.6,226.3,403.3"/>
				<path class="st20" d="M224.9,411.4c0.4,0.3,0.8,1.3,0.8,1.8C225.1,412.7,224.7,411.9,224.9,411.4"/>
				<path class="st20" d="M227.1,403.9c0.3,0.5,0.6,1,0.6,1.6C227.1,405.3,226.8,404.4,227.1,403.9"/>
				<path class="st20" d="M228.2,403.3c0.7,0.2,1.1,0.8,1.5,1.3C229,404.3,228.4,404,228.2,403.3"/>
				<path class="st20" d="M227.8,412.9c-0.6-0.3-1.2-0.6-1.5-1.4C226.8,411.6,227.5,412.3,227.8,412.9"/>
				<path class="st20" d="M237.2,406.2c-0.6,0.3-1.2,0.4-1.6,0C235.9,405.9,236.6,406,237.2,406.2"/>
				<path class="st20" d="M211.1,402.5c-0.4,0.4-1.3,0.3-1.5,0C210,402.2,210.7,402.2,211.1,402.5"/>
				<path class="st20" d="M236.7,404.3c-0.3,0.4-0.6,0.6-1,0.6c-0.1,0-0.1,0-0.2-0.1c0,0,0-0.1,0.1-0.2
					C235.8,404.2,236.2,404.2,236.7,404.3"/>
				<path class="st20" d="M234.6,406.8c0.6,0.1,0.9,0.6,1.3,0.9C235.4,407.7,234.7,407.2,234.6,406.8"/>
				<path class="st20" d="M223.5,397.5c-1,0-2.1,0-3.1-0.1c-0.6,0-1.2-0.1-1.8-0.2c-1-0.2-2.1-0.4-3.1-0.6c-0.6-0.1-1.2-0.2-1.8-0.3
					c-1.2-0.2-2.2-0.8-3.1-1.7c-1-1-1.9-2-2.9-3c-0.8-0.8-1.1-1.8-1.1-2.9c0-0.9-0.1-1.8-0.1-2.8c-0.1-1.5,0.1-3.1,1-4.4
					c0.4-0.6,0.9-1.2,1.4-1.8c0.7-0.8,1.4-1.6,2.1-2.4c0.9-1,2.1-1.7,3.3-2.5c2.3-1.7,4.9-2.4,7.6-2.8c1.1-0.2,2.3-0.3,3.5-0.4
					c0.4,0,0.9,0,1.3,0.1c0.9,0.2,1.8,0.4,2.7,0.6c0.3,0.1,0.6,0.2,0.8,0.3c1,0.5,2,0.9,3.1,0.9c1.6,0.1,3,0.8,4.3,1.7
					c0.8,0.5,1.3,1.2,1.7,2c0.5,0.9,0.9,1.8,1.5,2.6c0.4,0.7,0.9,1.3,1.3,1.9c0.5,0.8,0.9,1.6,1.1,2.5c0.3,1.6,0.3,3.2,0.1,4.8
					c-0.1,0.8-0.5,1.5-1,2.1c-0.4,0.5-0.9,1-1.2,1.5c-0.5,0.7-1.1,1.2-1.8,1.7c-0.6,0.4-1.2,0.7-1.9,0.8c-1.3,0.3-2.5,0.7-3.8,1.2
					c-0.8,0.3-1.7,0.5-2.6,0.6c-1.3,0.1-2.6,0.3-3.9,0.4C226,397.6,224.7,397.6,223.5,397.5C223.5,397.6,223.5,397.6,223.5,397.5
					 M240.4,384.1L240.4,384.1c0.1,0.1,0.2,0.3,0.3,0.4c0.5,0.7,1,1.4,1.3,2.3c0.3,1.1,0.3,2.1,0.2,3.2c0,0.3-0.1,0.6-0.1,0.9
					c0,0,0,0,0.1,0c0.1-0.1,0.1-0.1,0.2-0.2c0.4-0.4,0.6-0.9,0.7-1.5c0.2-1,0.1-2,0.1-2.9c0-0.7-0.1-1.3-0.2-1.9
					c-0.1-0.8-0.5-1.5-1-2.2c-0.9-1.2-1.7-2.4-2.3-3.8c-0.5-1.1-1.1-2.1-2.2-2.8c-1.2-0.8-2.4-1.4-3.9-1.5c-1.1-0.1-2.2-0.4-3.2-1
					c-0.2-0.1-0.4-0.2-0.7-0.3c-0.9-0.2-1.9-0.4-2.8-0.6c-0.4-0.1-0.8-0.1-1.2-0.1c-1.4,0.1-2.8,0.3-4.2,0.5
					c-1.9,0.3-3.7,0.9-5.4,1.8c-1.1,0.6-2.2,1.4-3.2,2.2c-0.7,0.5-1.3,1.2-1.9,1.8c-1.1,1.1-2,2.3-2.9,3.6c-0.7,1-0.8,2.1-0.8,3.2
					c0,1.2,0.1,2.4,0.1,3.6c0,0.5,0.2,1,0.3,1.5c0,0,0,0.1,0.1,0.1c0.1-0.5,0.1-1,0.3-1.5c0.3-1.1,1-2,1.7-2.9
					c1.3-1.6,2.8-3,4.4-4.4c0.6-0.5,1.3-1.1,2-1.6c-0.6-0.5-1.1-1.1-1.6-1.8c0,0,0,0,0.1-0.1c0.6,0.6,1.1,1.1,1.7,1.7
					c0,0,0.1-0.1,0.2-0.1c0.7-0.5,1.4-1,2.2-1.4c0.9-0.5,1.9-0.6,2.9-0.8c1.5-0.2,3-0.2,4.4,0.5c0.2,0.1,0.5,0.1,0.8,0.1
					c0.3,0,0.6-0.1,1-0.2c0.3-0.1,0.6-0.1,0.8,0.1c0.5,0.5,1.1,0.3,1.7,0.3c-0.1-1,0-2.1,0.2-3.1c0,0,0.1,0,0.1,0c0,1-0.1,2-0.1,3
					c0.1,0,0.2,0,0.3,0c0.6,0,0.8,0.1,1,0.7c0,0.1,0.1,0.3,0.1,0.4c0.1,0.3,0.1,0.5,0.2,0.8c0.1,0.2,0.2,0.3,0.4,0.3
					c0.3,0,0.5-0.1,0.8-0.1c0.9-0.2,1.8-0.3,2.7,0c0.1,0,0.2,0,0.2-0.1c0.4-0.4,0.7-0.8,1.1-1.1c0.1-0.1,0.1-0.1,0.2-0.2
					c0,0,0,0,0.1,0.1c-0.4,0.5-0.8,1-1.3,1.5c0.6,0.3,1.1,0.8,1.3,1.6c0,0.1,0.2,0.2,0.3,0.3c0.5,0.2,0.9,0.4,1.3,0.8
					C239.6,383.2,240,383.7,240.4,384.1 M225.1,397.1C225.1,397.1,225.1,397.1,225.1,397.1c0.6-0.1,1.2-0.1,1.8-0.1
					c1.3-0.1,2.7-0.3,4-0.4c1-0.1,2-0.3,3-0.7c1-0.4,2.1-0.7,3.1-1c0.7-0.2,1.5-0.4,2.1-0.9c0.9-0.6,1.6-1.5,2.2-2.3
					c0-0.1,0.1-0.1,0.1-0.2c0.1-0.8,0.3-1.5,0.3-2.3c0.1-1.2-0.1-2.4-0.8-3.4c-0.4-0.6-0.9-1.2-1.4-1.8c-0.6-0.6-1.2-1.2-2.1-1.5
					c-0.3-0.1-0.4-0.3-0.5-0.6c-0.2-0.6-0.5-0.9-1-1.2c-0.4-0.2-0.9-0.3-1.4-0.3c-0.6,0.1-1.3,0.2-1.9,0.3c-0.7,0.1-1-0.1-1.2-0.8
					c-0.1-0.3-0.2-0.6-0.3-0.9c-0.1-0.4-0.2-0.4-0.6-0.4c-0.4,0-0.9,0.1-1.3,0.1c-0.3,0-0.7,0-0.9-0.2c-0.3-0.3-0.6-0.3-1-0.1
					c-0.1,0-0.3,0.1-0.4,0.1c-0.5,0.2-1,0.1-1.5-0.1c-0.6-0.3-1.3-0.4-2-0.5c-1.1-0.1-2.1,0.1-3.1,0.3c-1.2,0.2-2.2,0.7-3.2,1.4
					c-1.9,1.4-3.7,2.9-5.4,4.6c-1.1,1.1-2.2,2.3-3,3.6c-0.6,0.9-0.9,1.9-0.8,3c0,0.3,0.1,0.6,0.4,0.9c0.8,0.8,1.6,1.6,2.4,2.4
					c1,1,2.3,1.6,3.7,1.8c1.2,0.1,2.3,0.3,3.5,0.6c1,0.2,2.1,0.4,3.1,0.4C222.5,397,223.8,397,225.1,397.1"/>
				<path class="st23" d="M225.1,397.1c-1.3,0-2.7-0.1-4-0.1c-1.1,0-2.1-0.2-3.1-0.4c-1.1-0.3-2.3-0.4-3.5-0.6
					c-1.5-0.2-2.7-0.8-3.7-1.8c-0.8-0.8-1.6-1.6-2.4-2.4c-0.2-0.2-0.3-0.5-0.4-0.9c-0.1-1.1,0.2-2.1,0.8-3c0.8-1.4,1.9-2.5,3-3.6
					c1.7-1.7,3.5-3.2,5.4-4.6c0.9-0.7,2-1.2,3.2-1.4c1-0.2,2-0.4,3.1-0.3c0.7,0,1.4,0.2,2,0.5c0.5,0.3,1,0.3,1.5,0.1
					c0.1,0,0.3-0.1,0.4-0.1c0.4-0.1,0.6-0.1,1,0.1c0.2,0.2,0.6,0.2,0.9,0.2c0.4,0,0.9-0.1,1.3-0.1c0.4,0,0.5,0,0.6,0.4
					c0.1,0.3,0.2,0.6,0.3,0.9c0.2,0.7,0.5,0.9,1.2,0.8c0.6-0.1,1.3-0.2,1.9-0.3c0.5,0,1,0,1.4,0.3c0.5,0.3,0.9,0.6,1,1.2
					c0.1,0.3,0.2,0.5,0.5,0.6c0.9,0.3,1.5,0.8,2.1,1.5c0.5,0.6,1,1.2,1.4,1.8c0.7,1,0.9,2.2,0.8,3.4c-0.1,0.8-0.2,1.5-0.3,2.3
					c0,0.1,0,0.2-0.1,0.2c-0.6,0.9-1.4,1.7-2.2,2.3c-0.6,0.5-1.4,0.6-2.1,0.9c-1.1,0.3-2.1,0.6-3.1,1c-1,0.3-1.9,0.6-3,0.7
					c-1.3,0.1-2.7,0.3-4,0.4C226.3,397,225.7,397,225.1,397.1C225.1,397.1,225.1,397.1,225.1,397.1"/>
				<path class="st24" d="M240.4,384.1c-0.4-0.4-0.8-0.8-1.2-1.2c-0.4-0.3-0.8-0.6-1.3-0.8c-0.1,0-0.3-0.2-0.3-0.3
					c-0.2-0.7-0.7-1.2-1.3-1.6c0.4-0.5,0.9-1,1.3-1.5c0,0,0,0-0.1-0.1c-0.1,0.1-0.2,0.1-0.2,0.2c-0.4,0.4-0.7,0.8-1.1,1.1
					c0,0-0.1,0.1-0.2,0.1c-0.9-0.3-1.8-0.2-2.7,0c-0.3,0.1-0.5,0.1-0.8,0.1c-0.2,0-0.4-0.1-0.4-0.3c-0.1-0.3-0.1-0.5-0.2-0.8
					c0-0.1-0.1-0.3-0.1-0.4c-0.2-0.5-0.4-0.7-1-0.7c-0.1,0-0.2,0-0.3,0c0-1,0.1-2,0.1-3c0,0-0.1,0-0.1,0c-0.2,1-0.4,2-0.2,3.1
					c-0.6,0.1-1.2,0.2-1.7-0.3c-0.2-0.2-0.5-0.2-0.8-0.1c-0.3,0.1-0.6,0.2-1,0.2c-0.3,0-0.5,0-0.8-0.1c-1.4-0.7-2.9-0.7-4.4-0.5
					c-1,0.2-2,0.3-2.9,0.8c-0.7,0.4-1.4,0.9-2.2,1.4c-0.1,0.1-0.2,0.1-0.2,0.1c-0.6-0.6-1.2-1.1-1.7-1.7c0,0,0,0-0.1,0.1
					c0.4,0.7,1,1.3,1.6,1.8c-0.7,0.6-1.3,1.1-2,1.6c-1.6,1.4-3.1,2.8-4.4,4.4c-0.7,0.9-1.4,1.8-1.7,2.9c-0.1,0.5-0.2,1-0.3,1.5
					c0,0,0,0-0.1-0.1c-0.1-0.5-0.2-1-0.3-1.5c-0.1-1.2-0.1-2.4-0.1-3.6c0-1.1,0.2-2.2,0.8-3.2c0.9-1.3,1.8-2.5,2.9-3.6
					c0.6-0.6,1.2-1.3,1.9-1.8c1-0.8,2.1-1.5,3.2-2.2c1.7-1,3.5-1.5,5.4-1.8c1.4-0.2,2.8-0.3,4.2-0.5c0.4,0,0.8,0,1.2,0.1
					c0.9,0.2,1.9,0.4,2.8,0.6c0.2,0.1,0.5,0.2,0.7,0.3c1,0.6,2.1,0.9,3.2,1c1.5,0.1,2.7,0.7,3.9,1.5c1.1,0.7,1.7,1.7,2.2,2.8
					c0.7,1.3,1.4,2.6,2.3,3.8c0.5,0.7,0.8,1.4,1,2.2c0.1,0.6,0.2,1.3,0.2,1.9c0.1,1,0.1,2-0.1,2.9c-0.1,0.6-0.3,1-0.7,1.5
					c-0.1,0.1-0.1,0.1-0.2,0.2c0,0,0,0-0.1,0c0-0.3,0.1-0.6,0.1-0.9c0.1-1.1,0.1-2.2-0.2-3.2c-0.3-0.8-0.8-1.6-1.3-2.3
					C240.6,384.3,240.5,384.2,240.4,384.1c0.1,0,0.2,0,0.3-0.1c0.5-0.2,0.7-0.7,1-1.1c-0.5,0.2-0.9,0.5-1.3,0.9
					C240.4,383.9,240.4,384,240.4,384.1 M225.4,377c0,0,0.1,0,0.1,0c0-1.2-0.4-2.3-0.6-3.4c0,0.4,0,0.9,0.1,1.3
					c0.1,0.6,0.2,1.2,0.3,1.8C225.3,376.8,225.3,376.9,225.4,377 M207.6,384.1C207.6,384.1,207.6,384.2,207.6,384.1
					c0.2,0.4,0.5,0.8,0.8,1.2c0.2,0.2,0.4,0.4,0.6,0.6c0.1,0.1,0.2,0,0.3,0.1c0-0.1,0-0.2-0.1-0.3
					C208.7,385.1,208.2,384.6,207.6,384.1 M233.7,377.2C233.6,377.1,233.6,377.1,233.7,377.2C233.6,377.1,233.6,377.1,233.7,377.2
					c-0.5,0.7-0.9,1.4-1.2,2.1c-0.1,0.1-0.1,0.3-0.1,0.4c0,0,0.1,0,0.1,0C232.9,378.9,233.3,378,233.7,377.2 M213.1,381.6
					c-0.5-0.6-1-1-1.6-1.2C211.9,380.9,212.3,381.4,213.1,381.6 M220.2,375.1c0.2,0.6,0.2,1.3,0.7,1.8
					C220.9,376.3,220.5,375.7,220.2,375.1 M242.4,385.5c-0.2,0-0.5,0-0.7,0.3C242,385.8,242.2,385.6,242.4,385.5"/>
				<path class="st20" d="M225.4,377c-0.1-0.1-0.1-0.2-0.2-0.3c-0.1-0.6-0.2-1.2-0.3-1.8c-0.1-0.4-0.1-0.9-0.1-1.3
					c0.3,1.1,0.6,2.3,0.6,3.4C225.5,377,225.4,377,225.4,377"/>
				<path class="st20" d="M207.6,384.1c0.5,0.5,1.1,1,1.6,1.5c0.1,0.1,0,0.2,0.1,0.3c-0.1,0-0.2,0-0.3-0.1c-0.2-0.2-0.5-0.4-0.6-0.6
					C208.1,384.9,207.8,384.6,207.6,384.1C207.6,384.2,207.6,384.1,207.6,384.1"/>
				<path class="st20" d="M233.7,377.2c-0.4,0.9-0.8,1.7-1.2,2.6c0,0-0.1,0-0.1,0c0-0.1,0-0.3,0.1-0.4
					C232.8,378.5,233.2,377.8,233.7,377.2C233.6,377.1,233.6,377.1,233.7,377.2C233.6,377.1,233.6,377.1,233.7,377.2"/>
				<path class="st20" d="M240.4,384.1c0-0.1,0-0.2,0.1-0.3c0.3-0.5,0.8-0.7,1.3-0.9c-0.2,0.5-0.5,0.9-1,1.1
					C240.6,384.1,240.5,384,240.4,384.1C240.4,384.1,240.4,384.1,240.4,384.1"/>
				<path class="st20" d="M213.1,381.6c-0.8-0.2-1.2-0.7-1.6-1.2C212.1,380.6,212.6,381,213.1,381.6"/>
				<path class="st20" d="M220.2,375.1c0.4,0.6,0.7,1.1,0.7,1.8C220.4,376.5,220.4,375.8,220.2,375.1"/>
				<path class="st20" d="M242.4,385.5c-0.2,0.2-0.4,0.3-0.7,0.3C241.9,385.5,242.2,385.5,242.4,385.5"/>
			</g>
		</g>
	</g>
</g>
<g id="P2">
	<g>
		<g>
			<defs>
				<rect id="SVGID_17_" x="435.6" y="172.6" width="165" height="270.5"/>
			</defs>
			<clipPath id="SVGID_18_">
				<use xlink:href="#SVGID_17_"  style="overflow:visible;"/>
			</clipPath>
			<g class="st25">
				<defs>
					<rect id="SVGID_19_" x="435.6" y="172.6" width="165" height="270.5"/>
				</defs>
				<clipPath id="SVGID_20_">
					<use xlink:href="#SVGID_19_"  style="overflow:visible;"/>
				</clipPath>
				<path class="st26" d="M535.8,308.5c-8.4,0.6-16.7,0.8-25.1,0.7c-10.2-0.1-27.6,3.9-26.7-9.8c0.9-12.8,1.7-25.7,2.6-38.5
					c0.6-9.4,1-18.8,1.9-28.2c0.1-1.4,0.4-3,1.7-3.6c0.8-0.5,1.8-0.4,2.8-0.3c9,0.9,17.7,1.2,26.6,2.3c3.3,0.4,28.1-2.5,28.9-0.8
					c4.7,9.6,3.1,23.9,4.3,34.3c1.4,12.4,0.2,25.5,0.2,37.9c0,1.5-0.1,3.1-1.2,4c-0.7,0.6-1.7,0.7-2.6,0.8
					C544.7,307.8,540.3,308.2,535.8,308.5"/>
				<path class="st27" d="M497.9,310.5c-4.9,0-9.6-0.6-12.3-3.4c-1.8-1.8-2.6-4.4-2.4-7.8l2.6-38.5c0.2-2.9,0.4-5.9,0.5-8.8
					c0.4-6.4,0.8-13,1.4-19.4c0.2-1.5,0.5-3.4,2.1-4.3c1.1-0.6,2.3-0.5,3.2-0.4c3.8,0.4,7.7,0.7,11.4,0.9c5,0.4,10.1,0.7,15.2,1.3
					c1.2,0.1,5.7-0.2,10.4-0.5c15.2-1.1,18.6-1.1,19.2,0.2c3.3,6.8,3.6,15.6,3.8,24.1c0.1,3.8,0.2,7.3,0.5,10.5
					c1,8.6,0.7,17.6,0.4,26.4c-0.1,3.8-0.2,7.8-0.2,11.7c0,1.2,0,3.4-1.6,4.7c-0.9,0.7-2.1,0.9-3,1c-4.4,0.5-8.9,0.9-13.4,1.2
					c-8.3,0.6-16.8,0.8-25.2,0.7c-1.8,0-3.9,0.1-6.1,0.2C502.4,310.4,500.1,310.5,497.9,310.5 M491.8,229.6c-0.4,0-0.9,0.1-1.2,0.2
					c-0.9,0.5-1.1,1.8-1.2,3c-0.7,6.4-1,13-1.4,19.3c-0.2,2.9-0.3,5.9-0.5,8.8l-2.6,38.5c-0.2,2.9,0.4,5,1.9,6.5
					c3.4,3.5,11,3,17.7,2.7c2.2-0.1,4.3-0.2,6.2-0.2c8.3,0.1,16.7-0.2,25-0.7l0.1,0.8l-0.1-0.8c4.4-0.3,8.9-0.7,13.3-1.2
					c0.9-0.1,1.6-0.2,2.1-0.6c0.8-0.7,0.9-2.1,0.9-3.4c0-3.9,0.1-7.9,0.2-11.7c0.3-8.7,0.5-17.6-0.4-26.1c-0.4-3.3-0.5-6.8-0.6-10.6
					c-0.2-8.3-0.4-16.9-3.5-23.3c-1.6-0.6-11.6,0.1-17.7,0.6c-5.2,0.4-9.4,0.7-10.7,0.5c-5-0.6-10.2-1-15.1-1.3
					c-3.7-0.3-7.6-0.6-11.5-0.9C492.5,229.6,492.1,229.6,491.8,229.6"/>
				<rect x="484" y="312.7" class="st28" width="8.9" height="74.2"/>
				<path class="st27" d="M493.7,387.7h-10.6v-75.9h10.6V387.7z M484.8,386.1h7.3v-72.6h-7.3V386.1z"/>
				<rect x="492.9" y="303.3" class="st29" width="8.9" height="74.2"/>
				<path class="st27" d="M502.6,378.4h-10.6v-75.9h10.6V378.4z M493.7,376.7h7.3v-72.6h-7.3V376.7z"/>
				<rect x="540.9" y="312.7" class="st28" width="8.9" height="74.2"/>
				<path class="st27" d="M550.6,387.7H540v-75.9h10.6V387.7z M541.7,386.1h7.3v-72.6h-7.3V386.1z"/>
				<rect x="532" y="303.3" class="st29" width="8.9" height="74.2"/>
				<path class="st27" d="M541.7,378.4h-10.6v-75.9h10.6V378.4z M532.8,376.7h7.3v-72.6h-7.3V376.7z"/>
				<path class="st30" d="M548.7,326.8c6.1-1.7,10.6-4.8,11.2-10.4c0.7-7.1-4.8-13.6-11.4-16.3c-6.6-2.7-13.9-2.6-21.1-2.3
					c-11.4,0.4-33.5-3.7-43.5,3c-7.6,5.1-11.6,16.4-2,21.5c9,4.8,19.6,5.5,29.8,5.5C518.9,327.8,536.9,330,548.7,326.8"/>
				<path class="st27" d="M531.6,329.4c-4.9,0-9.6-0.3-13.4-0.5c-2.6-0.1-4.8-0.3-6.5-0.3c-10.3-0.1-21-0.8-30.2-5.6
					c-4.7-2.5-5.9-6.1-6-8.8c-0.3-5,2.9-10.7,8-14.1c7.5-5.1,21.5-4.2,32.8-3.6c4.2,0.2,8.1,0.5,11.2,0.4c6.8-0.2,14.6-0.5,21.4,2.4
					c6.5,2.7,12.7,9.5,11.9,17.2c-0.5,5.4-4.5,9.1-11.8,11.1C543.8,329,537.6,329.4,531.6,329.4 M503.3,297.7
					c-7.4,0-14.5,0.8-19,3.8c-4.5,3.1-7.5,8.3-7.3,12.7c0.2,3.2,2,5.7,5.1,7.4c8.9,4.7,19.4,5.4,29.5,5.5c1.7,0,4,0.1,6.6,0.3
					c8.5,0.5,21.2,1.2,30.2-1.3l0.2,0.8l-0.2-0.8c6.6-1.8,10.1-5,10.6-9.6c0.7-6.9-5-13-10.9-15.5c-6.5-2.7-14.1-2.5-20.7-2.3
					c-3.2,0.1-7.1-0.1-11.4-0.4C512,297.9,507.6,297.7,503.3,297.7"/>
			</g>
		</g>
	</g>
</g>
</svg>
