<?xml version="1.0" encoding="utf-8"?>
<!-- Generator: Adobe Illustrator 22.1.0, SVG Export Plug-In . SVG Version: 6.00 Build 0)  -->
<svg version="1.1" xmlns="http://www.w3.org/2000/svg" xmlns:xlink="http://www.w3.org/1999/xlink" x="0px" y="0px"
	 viewBox="0 0 552 768" style="enable-background:new 0 0 552 768;" xml:space="preserve">
<style type="text/css">
	.st0{fill:#94DAF4;}
	.st1{fill:#054372;}
	.st2{fill:#FBC19C;}
	.st3{fill:#414143;}
	.st4{fill:#6D6E72;}
	.st5{fill:#E62425;}
	.st6{fill:#E8D3AA;}
	.st7{fill:#FFCF01;}
	.st8{fill:#FFFFFF;}
	.st9{fill:#97DAF7;}
</style>
<g id="Слой3_xA0_Изображение_1_">
	<g>
		<path d="M241.6,197.5c0,0,0-0.1,0-0.2c0-1.2,0.5-2.6,0-3.5c-0.4-0.8-1.9-1-3-1.3c-2.3-0.8-4-2.1-5.2-4.2c-1.5-2.5-2.3-5.1-2.8-8
			c-1.6-8.9-3.4-17.8-5.2-26.7c-0.2-1-0.4-2-0.3-3c0.8-6.7,1.6-13.3,2.6-20c0.3-2.2,0.9-4.3,1.4-6.5c-2.2-0.3-4.3-0.5-6.3-0.8
			c-3.8-0.5-7.5-1.3-11-3c-1.4-0.7-2.8-1.5-4-2.6c-2.8-2.4-3-5.7-0.7-8.6c1.7-2.1,3.8-3.9,6.3-4.9c5.5-2.4,11-4.7,16.6-6.9
			c0.8-0.3,1.1-0.5,1.1-1.5c0-1.3,0.2-2.6,0.4-3.9c0.4-1.8,1-3.6,3.5-3.9c-2.6-1.7-4.9-3.7-7.5-4.9c-4.1-2-5.4-7.5-4.2-10.9
			c1.1-3.2,2.9-5.9,5.1-8.4c8.1-9.6,18.2-16.4,29.7-21.1c2.8-1.1,5.5-1,8.4-0.3c6.8,1.5,13,4.6,19.1,7.9
			c10.8,5.9,20.3,13.6,29.5,21.7c7.3,6.5,14.1,13.4,20,21.3c3.6,4.8,6.3,10,7.7,15.9c0.6,2.6,0.2,4-2,5.6c-2,1.4-4.3,2.1-6.7,2.3
			c-3.8,0.3-7.6,0.3-11.4,0.4c-0.3,0-0.6,0-1,0c-0.2,3.7-2.2,6.4-4.3,9.2c0.7,1.2,1.4,2.5,2,3.8c0.3,0.5,0.4,1,0.6,1.6
			c0.7,2.4-0.2,3.4-2.8,3c-0.1,2.1-0.3,4.2-0.4,6.3c-0.1,6.2-1.6,12-5.5,17c-3.5,4.5-8.1,7.1-14,7.3c-0.8,0-1,0.4-1,1.1
			c-0.1,6.1-0.2,12.2-0.3,18.2c0,1.2-0.2,2.3-0.2,3.5c0,0.4,0.1,0.8,0.3,1.1c0.5,0.8,1.2,1.2,2.2,0.5c0.8-0.6,1.5-0.4,2.5,0
			c1.9,0.8,3.1,2.2,4.4,3.8c0.7,0.9,1.8,1.5,2.8,2.2c1.1,0.7,2.3,1.2,3.4,1.7c2,1,2.3,1.6,1.3,3.8c1.6,0.2,3.2,0.4,4.8,0.7
			c17.8,3,34.1,9.4,48.3,20.8c2.3,1.9,4.4,4.1,6.5,6.2c1.4,1.4,1.3,2.4,0,3.9c0,0.1-0.1,0.1-0.2,0.2c-2,1.3-2.2,3.2-2,5.4
			c0.3,2.9,0.1,5.8,0,8.6c0,1.1,0.2,1.9,0.9,2.7c1.1,1.3,2.1,2.7,2.9,4.2c1.7,2.9,3.1,6,4.8,9c4.3,7.4,7,15.4,10.2,23.2
			c3.8,9,7.4,18.1,11.5,27c6.3,13.6,12.9,27.1,19.4,40.7c1.3,2.7,1,4.7-1.3,7.3c-5.4,6-11.3,11.5-18.3,15.8
			c-14.6,9.1-29.5,17.5-45.1,24.7c-3.6,1.7-7.4,2.8-11.1,4.2c-0.2,0.1-0.5,0.2-0.7,0.4c-1.7,2.6-4.1,4.4-6.6,6.1
			c-2,1.4-2.9,1.1-3.8-1.3c-0.4,0.1-0.8,0.2-1.2,0.4c-3.3,1.6-6.4,1-9.1-1.1c-2.9-2.3-5.5-4.9-8.2-7.4c-0.8-0.8-1.6-1.6-2.4-2.4
			c-0.2-0.2-0.6-0.4-0.9-0.6c0.2,2.4,0.4,4.7,0.5,6.9c0.1,2.5,0.1,5,0,7.6c-0.1,2.3-1.3,3.5-3.5,3.9c-0.4,0.1-0.9,0.2-1.3,0.2
			c-1,0-1.5,0.7-1.4,1.5c0.3,2.2,0.6,4.3,1,6.5c0.1,0.3,0.4,0.6,0.8,0.9c7.4,5.9,10.6,18.1,5.2,26.8c-0.3,0.4-0.3,1.1-0.2,1.6
			c3,13.7,5.8,27.4,9.1,41c5.6,23,11.5,45.8,17.2,68.8c1.9,7.8,3.7,15.6,5.6,23.5c0.1,0.5,0.2,1,0.3,1.5c0.5,9.5,3,18.6,4.9,27.8
			c3.1,14.5,6.3,29,9.3,43.5c0.8,3.6,1.1,7.3,1.7,10.9c0.1,0.6,0.3,1.2,0.6,1.7c0.4,0.6,0.3,1-0.3,1.4c-1.3,0.8-2.5,1.7-3.9,2.6
			c0.4,0.7,0.8,1.5,1.2,2.2c3.2,6,5.6,12.2,5.9,19.1c0.3,5.3-1,10.1-4.8,14c-1.9,2-4.4,3.2-6.9,4.2c-6.1,2.5-12.5,3.7-19,4.9
			c-8.7,1.5-17.4,2.7-26.2,2.8c-4.9,0.1-9.8-0.1-14.6-1.7c-0.6-0.2-1.3-0.5-1.9-0.7c-5.9-2.5-8.7-7-8.7-13.3c0-1.8,0.2-3.5,0.5-5.2
			c0.6-4.2,2.9-7.4,6.4-9.7c4.6-3,8.8-6.6,12.7-10.4c0.2-0.2,0.5-0.4,1-0.7c-0.7-0.2-1.1-0.3-1.4-0.5c-1.2-0.5-2.4-0.9-3.5-1.6
			c-0.5-0.3-1-1-1.2-1.7c-2.3-7.4-2.4-15.1-2.9-22.8c-1.3-21.3-3.7-42.4-6.8-63.4c-0.6-4-0.9-8-1.7-12c-0.8-4.4-1.8-8.7-2.9-13
			c-2.5-9.6-5.1-19.3-7.9-28.8c-7.3-24.5-15.9-48.5-25-72.4c-0.3-0.8-0.6-1.6-1.1-2.4c-0.2,1.6-0.5,3.2-0.6,4.8
			c-1,14.5-1.9,29-3,43.4c-0.9,12.4-1.7,24.8-1.6,37.3c0,1.6,0.1,3.3,0.2,4.9c0,0.9-0.1,1.7-0.8,2.5c-0.4,0.5-0.3,1.5-0.3,2.2
			c0.6,6.7,1.7,13.3,3.4,19.8c4.3,16.4,7.5,33,9.6,49.8c1.7,13.8,3.9,27.5,5.8,41.2c0.2,1.6,0.3,3.3,0.4,4.9
			c0.1,1.2-0.5,2.1-1.5,2.6c-1.3,0.7-2.6,1.4-3.9,2.2c-0.4,0.3-0.8,0.8-0.9,1.3c-0.8,7.2-4.2,12.8-10.3,16.9
			c-14.6,9.9-30.5,16.6-48.1,19.1c-11.3,1.6-22.6,1.1-33.6-2c-1.2-0.4-2.4-0.8-3.6-1.3c-2.2-1-3.4-2.8-3.8-5.2
			c-1.1-8.4,2.1-15,8-20.7c5.9-5.6,12.9-8.5,21-9c4.7-0.3,9.1-1.6,13.5-3.1c1-0.4,1.2-0.9,0.6-1.7c-0.5-0.7-0.7-1.3,0.1-1.9
			c0.2-0.2,0.3-0.6,0.4-0.9c0.9-4.3,0.9-8.6,0.6-12.9c-0.7-10.3-1.4-20.6-2.1-30.9c-1.2-17.6-1.7-35.2-4.2-52.6
			c-1.3-9.1-0.7-18.1-0.7-27.2c0-7.6,0.5-15.1,0.5-22.7c0-6.4-0.3-12.8-0.4-19.2c-0.1-5.7-0.1-11.4-0.2-17c0-0.4,0-0.8,0-1.3
			c-1.2,0.5-2.3,1-3.4,1.4c-2.6,0.9-3.7,0.4-4.2-2.3c-1.4-8.4-3-16.8-4.1-25.2c-1.4-11.3-2.5-22.7-3.6-34.1c-0.3-3-0.1-6.1-0.1-9.1
			c0-0.8,0.1-1.5,0.3-2.2c0.5-1.9,1.6-2.8,3.5-2.8c1,0,2.1,0,3.2,0c-1.2-4-2.3-7.7-3.5-11.5c-1.1-3.6-0.5-4.7,3.2-5.2
			c3.4-0.4,6.8-0.7,10.2-0.1c-0.3-0.2-0.6-0.5-0.9-0.7c-2.2-1.3-3.8-3.3-5.1-5.4c-0.4-0.7-0.5-1.9-0.3-2.7c0.5-2.2,1.2-4.3,1.8-6.5
			c0.2-0.6,0.1-1-0.5-1.4c-13-9.1-24.8-19.5-35.1-31.6c-4.7-5.5-10.5-9.9-16.1-14.5c-1.9-1.6-3.8-3.2-5.7-4.8
			c-1.3-1.1-1.6-2.4-1.5-4.1c0.3-3.7,0.5-7.5,0.7-11.2c0.3-6.3,2.2-12.2,5-17.9c6.3-13.1,14.1-25.3,22.7-36.9
			c9.4-12.7,18-25.9,25.5-39.9c0.2-0.4,0.4-0.8,0.6-1.2c3.2-4.3,4-9.4,4.7-14.5c0.3-2,0.7-2.5,2.8-2.5c7.6-0.1,15.2-0.2,22.8-0.3
			c5-0.1,10-0.1,15,0.7c1,0.2,1.3-0.1,1.5-1.1c0.3-1.3,0.7-2.5,1.2-3.8c0.5-1.4,1.2-1.8,2.6-1.5C238.1,196.3,239.8,197,241.6,197.5z
			 M305.7,400.2c0-0.1,0-0.2,0-0.3c-2.1-0.1-4.1-0.2-6.2-0.5c-2.3-0.3-4.6-0.6-6.8-1.3c-2.1-0.7-3.6-2.2-4.2-4.4
			c-0.6-1.9,0-3.6,1.6-5c-1.9-0.8-3.3-1.8-4.2-3.6c-1.5-2.9-0.5-5.4,2.7-6.1c2-0.5,4.1-0.7,6.2-0.9c2.6-0.3,5.2-0.4,7.9-0.6
			c-3.2-0.5-6.3-0.9-9.5-1.3c-2.8-0.4-5.6-0.8-8.2-1.5c-2.8-0.7-4.5-2.7-4.8-5.6c-0.2-1.8,0.7-3.3,2.5-3.7c1.4-0.3,2.9-0.2,4.3-0.2
			c1.2,0,2.3,0.1,3.6,0.2c-1.3-0.9-2.5-1.5-3.6-2.4c-1.3-1.1-2-2.6-1.4-4.4c0.6-1.7,2-2.3,3.6-2.5c2.4-0.2,4.7-0.5,7.1-0.6
			c7.2-0.4,14.4-0.8,21.5,0.6c0.1,0,0.2-0.1,0.3-0.1c-0.1,0-0.2-0.1-0.3-0.1c2.7-7.9,5.4-15.8,8.1-23.7c1.5-4.4,3.1-8.7,4.5-13.1
			c0.2-0.6,0.1-1.3-0.2-1.9c-2.2-4.7-4.5-9.3-6.7-13.9c-0.2-0.5-0.5-1-0.5-1.6c0-0.4,0.3-0.8,0.5-1c0.2-0.1,0.7,0.2,1,0.4
			c0.4,0.4,0.6,0.9,0.9,1.4c5.1,9.4,10.1,18.9,15.3,28.3c2.5,4.5,5.4,8.8,8.1,13.3c0.5-0.4,0.7-0.6,1-0.8c2.1-1.8,4.5-3,7.3-3.3
			c2.7-0.3,5.4-0.4,7.9,0.5c0.3,0.1,0.5,0.5,0.8,0.8c-0.3,0.2-0.5,0.5-0.8,0.5c-0.9,0.1-1.8,0.2-2.7,0.2c-4.3,0.2-8.5,0.6-11.5,4.2
			c-1.6,1.9-3.1,3.9-4.1,6.1c-1.5,3.2-2.7,6.7-3.8,10.1c-2,6.7-3.8,13.6-5.6,20.3c-0.1,0.3,0,0.7,0,1c1.8,6.4,3.7,12.8,5.5,19.3
			c0.1,0.4,0.3,0.9,0.5,1.3c2.8-1.2,5.4-2.3,8.1-3.5c14.7-6.9,28.9-14.9,42.8-23.3c8-4.8,15.4-10.2,21.6-17.2c0.8-0.9,1.5-1.8,2-2.8
			c0.2-0.4,0.2-1.1,0-1.6c-2.1-4.7-4.3-9.3-6.5-13.9c-0.2-0.3-0.5-0.6-0.7-0.9c-0.4-0.6-1-1.1-1.3-1.7c-1.1-2.3-2.2-4.7-3.2-7.1
			c-4.8-10.4-9.6-20.8-14.3-31.2c-0.4-1-0.9-1.3-1.9-1.3c-7.7,0.3-15.4-0.5-23.1-1.6c-1.9-0.3-3.2-1.1-4.2-2.8
			c-3-5-5.4-10.2-7.4-15.6c-0.9-2.5-1.7-5.2-2.4-7.8c-0.4-1.7,0-2.4,1.3-3.1c6.3-3.2,12.6-6.4,19-9.6c0.2-0.1,0.3-0.2,0.8-0.5
			c-2-3.2-4-6.3-6-9.4c-0.3,0.2-0.5,0.3-0.6,0.3c-5.7,4.5-11.6,8.8-17.1,13.6c-8.7,7.5-16.8,15.6-21.8,26.1c-0.2,0.5-1,1-1.5,1
			c-0.9,0-1-0.9-1-1.6c0-0.3,0-0.6,0.1-0.8c0.5-7,3.1-13.3,5.8-19.7c0.1-0.2,0.3-0.4,0.5-0.6c0.1,0,0.2,0.1,0.2,0.1
			c-1.2,5.1-2.4,10.2-3.6,15.3c0.3-0.1,0.5-0.3,0.6-0.6c2.8-4.5,6.1-8.5,9.8-12.3c8.2-8.4,17.4-15.6,27.4-21.9c0.4-0.3,1-0.6,1-1
			c0.4-3.6,0.6-7.1,1-10.9c-0.5,0.3-0.9,0.6-1.2,0.8c-2.5,1.7-4.9,3.5-7.4,5.1c-4.8,3-9.7,5.8-14.7,8.6c-1.9,1.1-2.7,0.7-4.1-0.8
			c-0.7-0.8-1.6-1.5-2.6-2.1c-1.2-0.8-2.5-1.4-3.8-2.1c-12.3-6.8-24.1-14.3-35.1-23.2c-2.2-1.7-4.2-3.6-6.4-5.6
			c-0.6,0.4-1.4,0.9-2.2,1.4c-4.8,2.7-9.6,5.4-14.4,8.1c-0.9,0.5-2.1,0.7-2.9,1.3c-1,0.7-1.8,0.5-2.5-0.3c-0.7-0.8-1.5-1.5-2.3-2.3
			c-0.4,0.7-0.7,1.2-0.9,1.7c-1.3,3.1-3.8,4.8-6.7,5.9c-0.4,0.1-0.8,0.2-1.1,0.4c-0.2,0.2-0.5,0.5-0.5,0.8c0.3,3.7,0.4,7.4,0.9,11
			c1.2,8.2,2.6,16.3,4,24.5c2,11.6,3.5,23.3,3.4,35.2c0,0.6,0.2,1.2,0.2,1.8c0,1.2,0.3,2.5-0.1,3.5c-0.8,2.3-1.8,4.6-3.1,6.6
			c-4.6,7.5-9.3,14.9-14.1,22.3c-1,1.6-2.1,3.1-3.3,4.5c-1.3,1.5-2.8,2.6-5,1.3c0,0.5,0,0.9,0,1.2c-0.1,9.9-0.1,19.8-0.4,29.6
			c-0.2,6.5-1,12.9-1.4,19.4c-0.1,2.1,0,4.3,0.1,6.5c0.1,1.7,0.6,2,2.3,2.1c14.8,0.9,29.6,0.8,44.3-1
			C293.5,402.3,299.6,401.2,305.7,400.2z M245,470.5c0.5-3.7,1-7.4,1.4-11c0.1-0.8-0.2-1.7-0.5-2.4c-0.2-0.5-0.6-1-1.1-1.2
			c-3.4-1.5-7-2.8-10.4-4.4c-4.7-2.3-9.4-4.7-13.5-8c-0.9-0.7-1.7-1.7-2.5-2.6c-0.2-0.3,0-0.9,0.1-1.3c0.4,0,1-0.1,1.3,0.2
			c8.2,5.8,17.1,10.1,26.6,13.4c1.3,0.4,2,1.1,2.4,2.4c1.2,4,2.3,8.1,3.8,12c10.2,26.3,19.4,53,27.5,80.1c0.5,1.6,1.3,3.1,2.3,4.4
			c8.5,11.3,18.2,21.5,28.1,31.5c0.8,0.8,1.5,1.6,2.3,2.4c-0.1,0.1-0.2,0.2-0.3,0.2c-11.7-8.8-21.6-19.3-30.2-31.2
			c0.7,3.1,1.5,6.2,2.2,9.2c0.1,0.3,0.3,0.6,0.5,0.8c1.1,1.2,2.5,2.3,3.5,3.6c5,6.8,10,13.7,15,20.5c0.4,0.5,0.6,1.1,0.9,1.6
			c-0.1,0.1-0.2,0.1-0.3,0.2c-6.7-7.7-13.1-15.6-18.6-24.2c-0.1,0.3-0.2,0.4-0.2,0.4c0.1,0.3,0.1,0.6,0.2,0.9
			c1.4,6.3,2.9,12.7,3.9,19.1c3.8,25.9,6.8,51.9,8.3,78c0.3,4.6,0.5,9.2,2.1,13.6c0.1,0.4,0.2,0.9,0.2,1.3c-0.1,0.7,0.2,1,0.8,1.1
			c1.9,0.3,3.8,0.8,5.8,1c17.1,1.6,33.8-0.5,49.9-6.5c0.7-0.3,1-0.6,0.9-1.4c-0.4-2.4-0.6-4.8-1.1-7.1c-2.7-13-5.4-26.1-8.1-39.1
			c-2.1-9.9-4.2-19.9-6.2-29.8c-0.5-2.7-0.4-5.5-1-8.1c-2.7-11.6-5.4-23.3-8.5-34.8c-8-30.3-15.3-60.7-21.5-91.4
			c-0.4-1.8-0.7-3.6-1.1-5.1c-2.1,1.3-4.2,2.6-6.3,3.8c-1.2,0.6-2.4,1.2-3.3,2.2c-0.9,0.9-2,1.7-3.1,2.2c-11,5.5-25.3-0.4-29.2-12.1
			c-3.5-10.3,1.1-19.5,11.4-22.9c0.6-0.2,1.3-0.4,1.9-0.6c-0.3-3.9-0.6-7.7-0.9-11.4c-1.9,0-3.6,0-5.3,0c-6.4,0.2-12.7,0.5-19.1,0.5
			c-11,0-22-0.1-33-0.2c-1.1,0-1.8,0.3-2.4,1.3c-7.6,12.2-15.2,24.4-23,36.6c-1.3,2.1-1.1,4.2-1.2,6.4
			C201.4,465.7,242.2,470.8,245,470.5z M185.7,316.6c0.1-0.1,0.2-0.1,0.4-0.2c0-0.4-0.1-0.8-0.1-1.2c-0.4-4.7-1-9.5-1.1-14.2
			c-0.3-15.1,1.5-30,4.3-44.8c0.1-0.8,0.1-1.4-0.4-2c-2.6-3-5.2-6-7.8-9c-0.5-0.6-1.5-1.2-0.6-2.1c0.8-0.8,1.5,0.2,2,0.7
			c1.4,1.4,2.6,2.9,4,4.3c0.7,0.7,1.5,1.1,2.3,1.7c0.1-0.1,0.2-0.2,0.4-0.3c-1.2-6.4-2.2-12.8-2.5-19.3c0.3,0.3,0.4,0.7,0.5,1.1
			c0.7,3.3,1.5,6.6,2.2,10c0.5,2.4,0.8,4.7,1.1,7.1c0.2,1.8-0.3,2.3-1.9,2.6c0.5,0.7,0.9,1.4,1.5,2.3c0.2-0.7,0.3-1.1,0.4-1.5
			c0.9-3.6,1.7-7.2,2.7-10.7c0.8-2.7,1.8-5.3,2.8-7.9c0.1-0.3,0.5-0.4,0.8-0.6c0.1,0.3,0.2,0.7,0.2,1c-0.4,1.8-0.7,3.7-1.1,5.5
			c-4,17.7-6.8,35.6-7.4,53.7c-0.5,15.3,1.4,30.2,6.9,44.5c1.8,4.6,3.9,9,5.9,13.5c0,0.1,0.1,0.2,0.1,0.3c0.2,1.3,0.6,2.7,0.4,4
			c-0.5,2.9-1.3,5.8-2.1,8.6c-1.5,5.2-3.2,10.4-4.7,15.6c-0.5,1.6-0.2,3.2-1.3,4.8c-1.2,1.8-1.4,4.2-1.9,6.4
			c-0.1,0.4,0.1,0.9,0.3,1.2c5.5,5,11.8,8.3,19.1,9.3c7.6,1,15.3,1.7,22.9,2.4c1.6,0.2,3.2,0.3,4.7,0.4c-0.1-2.8-0.3-5.5-0.1-8.1
			c0.2-3.5,0.7-6.9,0.9-10.4c0.6-13.5,1.2-27,1.8-40.5c0-0.5-0.2-1.1-0.6-1.5c-1.5-1.7-3.2-3.2-4.4-5c-6.1-9.1-10.3-19.1-13.2-29.5
			c-0.3-0.9-0.1-2.1,0.2-3c0.4-1.6,1.2-3.1,1.7-4.6c3.3-11.1,6.8-22.2,9.9-33.3c3.2-11.7,6-23.5,8.9-35.2c0.1-0.3-0.1-0.9-0.3-1.1
			c-2.9-3.3-3.7-7.1-3.3-11.3c0.2-1.8,1.1-3.1,2.8-3.7c1.3-0.5,2.6-0.9,4.1-1.5c-0.5-0.3-0.8-0.5-1.2-0.7c-1.8-0.9-2.2-0.9-3.4,0.7
			c-1,1.3-2,2.7-2.9,4.1c-1.2,2.1-2.2,4.3-3.4,6.3c-0.3,0.5-1,1-1.5,1c-0.5,0-1-0.8-1.4-1.3c-0.2-0.2-0.2-0.5-0.2-0.8
			c-0.4-3.4-0.9-6.8-1.3-10.2c-0.2-1.5-0.3-1.7-1.8-1.5c-4.6,0.5-9.2,0.8-13.7,1.6c-8.2,1.4-16.4,1.8-24.7,2.4
			c-0.7,0-1.3-0.1-1.7,0.8c-7.1,15.3-16,29.4-25.9,43c-8.1,11.2-15.7,22.6-22,35c-3.6,7.1-6.2,14.4-6.4,22.4c-0.1,3-0.4,6.1-0.5,9.1
			c0,0.4,0.3,1,0.6,1.3c1.7,1.5,3.5,3.1,5.3,4.5c6.1,4.8,12.1,9.7,17.2,15.6c8.2,9.3,16.9,18.1,27.2,25.3c2.2,1.5,4.2,3.3,6.5,5
			c0.2-0.5,0.3-0.9,0.4-1.3c1.4-4.7,2.9-9.4,4.3-14.1c0.8-2.6,1.5-5.3,2.1-8c0.2-1,0-2.2-0.3-3.1c-1-2.9-2.4-5.5-3.7-8.3
			c-2-4.5-3.7-9.2-5.1-14c-1.1-3.7-2.7-7.2-4.4-10.6c-0.7-1.5-1.9-2.6-3.4-3.2c-1-0.4-2-0.9-3-1.1c-6.6-1.5-13.2-2.9-19.8-4.3
			c-2.4-0.5-4.8-0.9-7.2-1.4c-1.5-0.4-1.9-1.3-1.4-2.7c0.5-1.6,1.6-2.8,3.1-3.4c0.4-0.2,0.8-0.1,1.3-0.2c-0.8,1-1.5,1.8-2,2.7
			c-0.6,1.1-0.4,1.4,0.8,1.6c1.4,0.3,2.8,0.5,4.1,0.7c8,1.4,15.9,2.6,23.6,5.4c0.1,0,0.3,0,0.6,0.1c-0.3-0.4-0.5-0.7-0.8-1
			c-4-4.6-8-9.3-11.9-13.9c-0.6-0.7-1.2-1.5-1.8-2.2c-0.5-0.7-1-1.4-0.2-2.1c0.8-0.6,1.4-0.1,2,0.5c0.1,0.2,0.3,0.3,0.4,0.5
			c3.1,3.5,6.2,7,9.2,10.6c0.3,0.3,0.6,0.6,1.1,1.1c-0.6-3.9-1.1-7.4-1.6-11c0.1,0,0.2,0,0.4-0.1c0.1,0.1,0.2,0.2,0.2,0.3
			c0.7,3.3,1.5,6.6,2.1,10c0.1,0.7-0.3,1.5-0.6,2.5C181.6,310.8,183.6,313.7,185.7,316.6z M196.2,480c0,0.6,0,1,0,1.5
			c0.1,14.3,0.3,28.6,0.4,42.8c0,1.5-0.2,3.1-0.4,4.6c-0.1,0.9-0.2,1.8-0.3,2.7c-0.1,11.7-0.1,23.4-0.2,35.2c0,0.5,0,1,0.1,1.4
			c0.6,4.5,1.4,8.9,1.8,13.4c1.2,15,2.3,30.1,3.4,45.1c0.7,9.3,1.2,18.7,1.9,28c0.5,6.4,1.1,12.8-0.4,19.1c-0.2,1,0.5,1,1.1,1.2
			c10.4,2.9,20.8,5.3,31.6,6.5c7.8,0.8,15-0.8,21.8-4.4c0.9-0.5,1.2-1,1-2c-0.2-1.3-0.3-2.6-0.5-3.9c-1.9-13.3-3.9-26.7-5.6-40
			c-1.9-14.2-4.2-28.4-7.7-42.3c-2.2-8.8-4.3-17.6-5.2-26.7c-0.1-1-0.2-2.1-0.3-3.1c-9.4,2.2-17.5,6.9-25.8,11.3
			c0.2-0.5,0.4-0.9,0.7-1.1c2.3-1.7,4.4-3.6,6.8-5c4.9-3,10.4-4.7,15.9-6.2c0.7-0.2,1.3-0.4,1.9-0.6c0-0.1,0-0.2,0-0.4
			c-1.2-0.7-2.3-1.5-3.6-2.2c-6.5-3.3-13-6.5-19.5-9.8c-1.4-0.7-2-1.4-1.5-2.2c0.7-1.2,1.6-0.7,2.5-0.3c7.5,3.2,15,6.4,22.5,9.6
			c0.3,0.1,0.6,0.2,0.9,0.3c-0.1-23.3,2.6-46.3,4.2-69.5C228,484.3,212.1,482.9,196.2,480z M288.2,128c-0.7,0.4-1.3,0.8-1.9,1.2
			c-0.6,0.3-1.3,0.7-2,0.9c-2,0.6-3.5-0.3-3.4-2.4c0.1-1.8,0.6-3.5,1-5.3c0.2-1,0.7-1.9,1.1-2.9c-3.4,0.7-6.7,1.4-10.2,2.2
			c1.8,1.7,3.3,3.4,3.5,6.2c-0.6-0.4-0.9-0.5-1.2-0.8c-1.5-1.2-3-2.4-4.4-3.7c-1-0.9-2.1-1.2-3.5-1c-8.3,1.2-16.6,2-25,2.1
			c-0.2,0-0.4,0.1-0.8,0.1c0.4,0.5,0.7,0.9,0.9,1.3c1.3,2.2,2.8,4.3,3.9,6.6c1.5,3,1.5,6.1,0.3,9.2c-0.4,0.9-0.8,1.8-1.2,2.7
			c-1.8,3.7-3.6,7.5-5.5,11.2c-0.5,1-0.3,1.5,0.7,1.7c2.3,0.5,4.5,0.9,6.8,1.3c1.1,0.2,2.2,0.3,3.3,0.5c0,0.1,0,0.3,0.1,0.4
			c-0.2,0.2-0.5,0.5-0.8,0.6c-1.2,0.4-2.5,1.2-3.6,1c-2.5-0.3-5-0.8-7.4-1.6c-2.4-0.8-2.9-2.3-1.8-4.6c0.9-1.9,1.8-3.8,2.7-5.7
			c1.4-2.8,2.8-5.7,4.1-8.5c0.3-0.6,0.4-1.3,0.6-2c-6.6,0.6-10.5-3.1-13.8-8.2c-0.2,0.7-0.3,1.2-0.4,1.8c-0.8,6.1-1.5,12.3-2.2,18.5
			c-0.1,0.8,0.1,1.7,0.3,2.5c0.6,2.8,1.4,5.5,1.9,8.3c1.2,6.7,2.1,13.4,3.6,20.1c1.5,6.6,3.3,7.9,8.7,8.8c4.4,0.8,8.9,0.5,13.3-0.1
			c7.2-0.9,14.2-2.6,20.9-5.7c4.5-2.1,7.5-5.2,9.2-9.7c0.1-0.4,0.3-0.7,0.5-1.1c2.3-5.8,4-11.7,5.2-17.8c0-0.2,0-0.3,0-0.6
			c-1.7,0.5-2.4,0.1-2.5-1.6c0-1.6,0-3.1,0.1-4.7c0.2-2.7,0.5-5.5,0.7-8.3c-1.7-0.5-2.3-1.9-2.5-3.5c-0.1-1.3-0.2-2.6-0.1-3.8
			C287.6,131.6,287.9,129.9,288.2,128z M245.6,233.3c-0.1,0.5-0.2,0.7-0.2,1c-3.4,16.9-7.6,33.6-12.6,50.1
			c-2.3,7.5-4.7,14.9-7.1,22.4c-0.2,0.5-0.1,1.1,0,1.6c2.8,9.8,6.8,19,12.3,27.6c1.7,2.7,4.1,4.7,6.5,7c1.1-1.5,2.2-2.7,3.1-4.1
			c4.8-7.5,9.6-15,14.4-22.6c1.2-2,2.1-4.1,3.1-6.2c0.2-0.5,0.3-1,0.3-1.5c-0.2-5-0.4-10.1-0.8-15.1c-0.8-10.2-2.6-20.3-4.3-30.4
			c-1.5-8.9-3.5-17.8-3.3-26.9c0-0.6-0.1-1.2-0.2-1.8C252.9,235.1,249.2,235.1,245.6,233.3z M307.8,723.4
			c11.1-0.7,22.1-2.3,32.9-4.6c4.6-1,9.1-2.3,13.4-4.5c2.7-1.4,4.6-3.5,5.8-6.3c1.5-3.4,1.4-6.9,0.9-10.5c-0.8-6-3.3-11.4-6.1-16.7
			c-0.5-0.9-0.9-1-1.9-0.7c-15,4.9-30.4,6.5-46.1,4.8c-0.5-0.1-1.3,0.2-1.7,0.6c-4.6,4.6-9.2,9-14.7,12.5c-3,2-4.5,4.9-5.1,8.4
			c-1.5,9,1.9,14.1,10.9,15.8C300.1,723,304,723,307.8,723.4z M251.9,682.9c-0.5,0.1-0.8,0.2-1.1,0.3c-4.4,1.8-9,2.1-13.7,1.7
			c-10.9-0.8-21.4-3.3-31.8-6.5c-1-0.3-1.7-0.2-2.6,0.2c-5.7,2.6-11.6,4.6-17.9,5c-8.2,0.5-14.8,3.9-20.3,9.7
			c-3.6,3.9-5.9,8.3-5.8,13.8c0.1,4.6,0.6,5.3,5,6.6c11.4,3.3,22.9,3.5,34.6,1.7c11.2-1.7,21.8-5.5,32-10.6c5.6-2.8,10.9-6,15.8-10
			C249.6,691.8,251.2,687.7,251.9,682.9z M322,114.5c3.7-0.2,7.4-0.2,11.1-0.6c1.9-0.2,3.8-0.9,5.6-1.6c1.1-0.4,1.4-1.3,1.1-2.6
			c-1.6-6-4.6-11.3-8.4-16.2c-6.1-7.8-13-14.7-20.5-21.2c-9.1-8-18.6-15.4-29.4-21c-5.3-2.7-10.8-5.3-16.7-6.4
			c-1.8-0.3-3.6-0.4-5.3,0.3c-11.4,4.6-21.4,11.4-29.3,20.9c-1.8,2.1-3.3,4.4-4.2,7.1c-0.8,2.4,0.3,6.3,2.9,7.5
			c1.7,0.8,3,2.2,4.5,3.3c0.2,0.2,0.5,0.3,0.7,0.5c-0.3-1.7-0.7-3.2-1.3-4.7c-0.5-1.1-0.4-2,0.4-2.9c0.9-1,1.8-2.1,2.7-3
			c4.4-4.2,9.8-6.8,15.3-9.3c2.3-1,4.5-1.2,6.9-0.8c17.5,3,33.2,9.8,46.8,21.4c6.2,5.3,11.8,11.3,16.2,18.2c0.9,1.4,1.4,2.8,1.3,4.4
			C322.2,110,322.1,112.1,322,114.5z M319,114.3c0.1-2.2,0.2-4,0.4-5.8c0.1-1.4-0.2-2.6-1.1-3.7c-2.7-3.4-5.1-7.1-8.1-10.3
			c-14-15.1-31.4-24-51.5-27.9c-2.6-0.5-5-0.5-7.3,0.9c-1.2,0.7-2.5,1.1-3.7,1.7c-0.3,0.1-0.5,0.3-0.9,0.6c2.1,0.5,3.8,0.3,5.6-0.3
			c0.4-0.1,1.1-0.1,1.3,0.2c1.9,1.9,4.1,2.3,6.6,1.6c1.4-0.4,2.2,0.3,1.8,1.7c-0.8,2.9-1.7,5.7-2.6,8.6c-0.2,0.7-0.5,1.6-1.1,2.1
			c-2.1,1.7-4.3,3.2-6.5,4.7c-0.2,0.2-0.5,0.3-0.8,0.5c2.3,0.5,4.5,0.8,6.6,1.3c13.9,3.4,27.2,8.6,40.7,13.2
			C305.6,106.1,312.6,109.2,319,114.3z M312.7,392.7c-0.1,0.2-0.2,0.3-0.3,0.5c-1.4-0.6-2.8-1.2-4.2-1.7c-0.9-0.3-1.8-0.6-2.7-0.7
			c-2.3-0.2-4.6-0.1-6.8-0.4c-1.9-0.2-3.8-0.2-5.7,0.2c-2.1,0.4-2.6,1.7-1.4,3.5c1.1,1.5,2.6,2.2,4.3,2.3c4.6,0.5,9.2,1,13.7,1.1
			c2.6,0.1,4.3,1.1,6.1,2.8c2.6,2.6,5.3,5.1,8.1,7.5c2.4,2.1,5.2,2.5,8.1,0.9c0.7-0.4,0.9-0.6,0.8-1.4c-0.6-6.9-1.2-13.9-1.8-20.8
			c-0.1-0.7-0.5-1.5-0.9-2.2c-0.3-0.5-0.7-0.9-1-1.3c-3.8-7.1-7.9-14.1-9.7-22.1c-0.1-0.6-0.8-1.3-1.3-1.4c-1.8-0.5-3.7-0.9-5.6-1
			c-7.6-0.5-15.1-0.1-22.6,0.6c-0.5,0-1,0.4-1.5,0.5c0.3,0.5,0.6,1,1,1.5c0.1,0.2,0.4,0.3,0.6,0.4c2.5,1.4,5.2,2.5,8.2,2.6
			c1.4,0,2.8,0,4,0.4c3.3,1,6.6,1.3,9.9,1.2c0.3,0,0.7,0,0.9,0.2c0.6,0.3,1.4,0.6,1.6,1.1c0.9,1.6,1.6,3.3,2.2,5
			c0.1,0.3-0.2,0.8-0.4,1.3c-0.4-0.2-1-0.2-1.2-0.6c-0.7-0.9-1.3-1.8-1.8-2.8c-0.6-1.2-1.4-1.6-2.7-1.5c-8.2,0.5-16.4,0.4-24.6-0.2
			c-0.7,0-1.4,0-2.2,0c-1.1,0-1.2,0.5-0.9,1.4c0.4,1.1,1.2,1.9,2.3,2.2c1.6,0.4,3.3,0.8,4.9,1c4.3,0.6,8.6,1,12.8,1.7
			c2.7,0.4,4.6,2.2,6.2,4.4c0.4,0.5,0.8,1.1,1.3,1.5c1.3,1.2,2.7,2.3,4,3.6c0.5,0.5,0.9,1.3,0.2,1.9c-0.3,0.2-1.2-0.1-1.6-0.4
			c-2-1.3-3.8-2.9-5.9-4.1c-1.1-0.6-2.5-1.1-3.7-1c-4.7,0.3-9.3,0.7-14,1.3c-1.9,0.2-2.2,1.3-1.1,2.8c1,1.4,2.5,2,4.1,2.3
			c3.9,0.6,7.7,1.2,11.6,1.3c3.3,0.1,5.7,1.6,7.8,3.8C312.3,392.1,312.5,392.4,312.7,392.7z M289.1,114.2c0-0.1,0-0.3,0-0.4
			c-0.2-0.1-0.3-0.2-0.5-0.3c-5-1.9-9.9-3.9-15-5.5c-12.3-3.9-25.1-5.9-37.6-8.6c-0.3-0.1-0.6,0-0.9,0.1c-0.6,0.1-1.2,0.2-1.8,0.2
			c-0.5,0-1.1-0.1-1.5,0c-6.2,2.2-12.5,4.4-18.1,7.9c-1.6,1-3,2.3-4.3,3.8c-1.2,1.4-1.1,3,0.4,4.1c1.5,1.1,3.2,2.1,5,2.8
			c3.9,1.5,8,2.1,12.1,2.5c9.3,0.9,18.7,0.8,28-0.1c8.2-0.8,16.5-1.7,24.5-3.6C282.7,116.2,285.9,115.1,289.1,114.2z M294.9,216.3
			c11.6,9,23.5,17.4,36.1,24.4c7.5-8.6,15.9-15.7,26.7-19.9c-5.1-3.2-10-6.3-15.4-8.3c-10.1-3.9-20.5-6.9-31.4-8
			c-0.9-0.1-1.4,0.1-2,0.6c-2.8,2.4-5.7,4.8-8.6,7.1C298.6,213.7,296.7,215,294.9,216.3z M256.9,215.2c3.4-1.1,5.9,0.6,8.2,2.6
			c0.1,0.1,0.1,0.1,0.2,0.2c2.2,2.3,4.3,4.5,6.4,6.8c0.7,0.8,1.3,1,2.3,0.5c11.2-5.8,21.7-12.8,31.3-21c1.5-1.3,2.9-2.6,4.4-4
			c-0.3-0.2-0.5-0.4-0.6-0.4c-3-1.4-5.8-3.1-7.6-6c-0.6-1-2-1.3-3.2-0.8c-0.5,0.2-0.9,0.3-1.4,0.4c-7,1.3-13.8,3.5-20.4,6.2
			c-5.3,2.2-10.4,4.7-15,8C259.1,209.4,257.3,211.8,256.9,215.2z M331.5,382.2c0.6-0.3,1.2-0.7,1.7-0.6c1.4,0.1,1.6-0.8,1.9-1.8
			c0.2-0.6,0.3-1.1,0.5-1.7c1.1-4.2,2.1-8.4,3.2-12.5c1.8-6.6,3.6-13.2,7.6-18.9c0.2-0.3,0.1-0.9-0.1-1.2c-1.3-2-2.8-3.9-4-6
			c-2.9-5.1-5.7-10.3-8.6-15.4c-0.3-0.6-0.7-1.2-1-1.8c-0.2,0.1-0.2,0.1-0.2,0.1c-4.1,11.3-8.2,22.6-12.3,34c-0.1,0.2,0.2,0.7,0.3,1
			c0.5,0.9,1.4,1.6,1.6,2.6C323.9,367.8,328.3,374.7,331.5,382.2z M195.4,416.5c-4.7,0.3-9.2,0.6-13.7,0.9c-1,0.1-1.2,0.7-1.3,1.4
			c-0.1,2-0.3,4-0.2,6c1.1,20.3,3.9,40.3,7.4,60.3c0.2,0.9,0.4,1.8,0.6,2.8c1.2-0.5,2.1-0.9,3.1-1.3c1.2-0.4,1.5-1,1.5-2.3
			c0-19.9,0.6-39.9,1.8-59.8C195,421.9,195.2,419.3,195.4,416.5z M254.4,213.2c0.1,0,0.3-0.1,0.4-0.1c0.6-3.8,3.1-6.2,6.1-8.3
			c1.3-0.9,2.7-1.8,4.1-2.7c8.7-4.9,17.9-8.4,27.5-10.7c0.4-0.1,0.7-0.2,0.9-0.2c-0.6-4.4,0.2-8.7,0.3-12.9
			c0.1-4.3,0.5-8.5,0.8-12.9c-0.1,0-0.4-0.1-0.7-0.2c-0.3-0.1-0.7-0.2-1-0.3c-0.2,0.6-0.3,1.1-0.5,1.6c-1.5,4.9-3,9.7-5.7,14.1
			c-1.3,2.1-2.9,3.9-5.1,5.1c-2.4,1.3-4.9,2.6-7.4,3.6c-9.3,3.6-18.9,5-28.8,4.6c-0.4,0-0.8,0-1.1,0c-0.2,2.1-0.4,4.1-0.6,6.1
			c0,0.3,0.1,0.7,0.3,0.9C247.3,204.9,250.9,209.1,254.4,213.2z M233.8,96.3c0.4,0.2,0.5,0.3,0.6,0.3c4.9,0.9,9.8,1.8,14.7,2.7
			c17,2.9,33.4,7.6,49,15.1c5.7,2.8,11.3,5.8,16.9,8.8c0.8,0.4,1.3,0.4,1.7-0.4c0.6-1.1,1.3-2.2,2-3.3c0.4-0.7,0.3-1.4-0.3-2
			c-0.8-0.7-1.6-1.5-2.5-2.1c-5-3.6-10.6-6-16.3-8.1c-12.5-4.5-25-9-37.7-12.7c-8.5-2.5-17.1-3.4-25.9-3.5c-0.6,0-1.3,0-1.4,0.8
			C234.4,93.3,234.1,94.8,233.8,96.3z M196.3,466.8c0,3.6,0,7,0,10.4c0,0.3,0.6,0.7,0.9,0.8c1.1,0.2,2.1,0.3,3.2,0.4
			c14.1,2,28.2,3.2,42.4,3.2c0.5,0,0.9,0,1.5,0c0.2-3.1,0.5-5.9,0.7-8.9C228.6,471.8,212.5,469.7,196.3,466.8z M370.4,231.3
			c-0.2-0.3-0.2-0.4-0.3-0.5c-2.8-3.2-6-5.8-9.6-8.1c-0.3-0.2-0.9-0.2-1.3,0c-1.2,0.5-2.4,1-3.6,1.6c-7.9,3.9-14.5,9.5-20.5,15.7
			c-0.6,0.6-1.1,1.4-1.7,2.1c2.1,1.2,4.1,2.2,6.1,3.4c1.2,0.7,2.3,1.4,3.3,2.4c0.7,0.8,1.3,0.8,2.1,0.3c8.4-4.4,16.2-9.6,23.8-15.2
			C369.2,232.5,369.7,231.9,370.4,231.3z M290.1,138.3c1-0.1,1.8-0.4,2.1-0.1c0.4,0.3,0.4,1.2,0.4,1.8c-0.1,1.6-0.5,3.2-0.6,4.9
			c-0.2,2-0.2,4-0.4,6c0.4-0.1,0.5-0.1,0.6-0.3c2.5-4.2,4.8-8.4,6.3-13c0.1-0.5,0.5-1.2,0.8-1.2c1.1-0.1,1.6-0.9,2.3-1.6
			c0.8-0.8,1.6-1.6,2.5-2.2c1.5-1.2,3.3-2,5.2-2.2c1.8-0.1,3.3,0.6,4.7,1.8c0.2-0.8,0.5-1.6,1.4-1.4c0.6,0.2,1.2,0.6,1.8,0.9
			c-0.5-1.6-1.1-3-1.8-4.3c-0.4-0.7-1.1-1.4-1.8-1.8c-3.8-2.1-7.7-4.2-11.5-6.1c-2.7-1.4-5.6-2.6-8.4-3.9c-0.3-0.2-0.8-0.3-1.1-0.2
			c-2.2,0.9-4.5,1.9-6.6,3c-0.4,0.2-0.9,0.7-1.1,1.1c-0.5,1.7-1,3.5-1.4,5.2c-0.2,0.9-0.2,1.9-0.4,3.2c0.9-0.4,1.5-0.6,2-0.9
			c1.3-0.8,2.4-1.7,3.7-2.4c0.5-0.3,1.3-0.4,1.7-0.2c0.4,0.3,0.5,1.1,0.5,1.7c0,0.5-0.2,1-0.4,1.5c-0.7,2.8-1.3,5.6-1.1,8.5
			C289.7,136.9,290,137.7,290.1,138.3z M308.5,402.8c-14.5,3.4-29,4.9-43.7,5.2c0.2,3,0.4,5.9,0.6,8.8c0.5,0,0.8,0,1.1,0
			c10.3-0.3,20.7-0.5,31-0.8c3.2-0.1,6.3-0.2,9.5-0.3c1.1,0,1.8-0.5,1.7-1.7c0-2.2,0-4.5-0.1-6.7
			C308.7,405.7,308.6,404.2,308.5,402.8z M374.7,261.4c-6.2,3.3-12.2,6.4-18.3,9.5c-1,0.5-1.1,1-0.8,1.9c2.2,7.5,5.4,14.5,9.3,21.2
			c0.5,0.8,1,1.2,2,1.3c7.3,1.1,14.6,1.6,22,1.8c0.3,0,0.6-0.1,1-0.1c-0.8-2.1-1.6-4-2.3-6c-0.3-0.8-0.7-1.1-1.6-1.2
			c-4.7,0-9.4-0.2-14.1-0.3c-1.2,0-2-0.5-2.5-1.7c-0.7-1.6-1.4-3.1-2.2-4.7c-0.9-1.9-1.9-3.7-2.7-5.6c-0.9-2.1-0.5-3.1,1.4-4.4
			c1.9-1.2,3.8-2.3,5.7-3.5c1.9-1.1,3.8-2.2,5.8-3.4C376.4,264.7,375.6,263.1,374.7,261.4z M262.5,408c-12.8,0.2-25.5-0.6-38.1-2.3
			c0,0.4,0,0.6,0,0.7c0.7,2.9,1.4,5.7,2.1,8.6c0.3,1.3,1.3,2,2.7,2c10.7,0,21.4,0,32,0c0.4,0,0.8,0,1.2-0.1
			C262.5,414,262.5,411.1,262.5,408z M288.7,442.2c-0.1,6.4,5.2,11,11,10.1c4.3-0.6,8-4.4,8.9-9.2c1.2-6.5-2-11.3-8.1-12.1
			c-3.5-0.5-6.6,1-8.9,3.4C289.5,436.6,288.8,439.6,288.7,442.2z M293.5,162.3c5.2,1,9.6-0.3,13.3-3.7c4.5-4.2,6.4-9.6,6.9-15.6
			c0.2-2.5,0.1-5-1-7.3c-1-2.1-2.6-2.9-4.6-2.1c-3.8,1.4-6.4,4.3-8.4,7.5c-2,3.2-3.5,6.6-5.2,10c-0.2,0.5-0.3,1.1-0.3,1.7
			c0,1.8,0.1,3.6,0,5.3C294.2,159.4,293.8,160.8,293.5,162.3z M306.4,430.3c-1.9-1.9-4.5-3.3-7.5-3.1c-3,0.2-5.9,0.8-8.8,1.4
			c-0.5,0.1-1,0.5-1.4,0.9c-6.4,5.5-8.8,15.1-5.6,23c2.6,6.4,8.6,9.9,15.3,8.9c9.2-1.4,15.4-9.8,14.1-19c-0.4-2.8-1.2-5.4-2.8-7.7
			c0,0.2,0.1,0.4,0.1,0.6c2.3,5.9,1.1,11.9-3.4,16.3c-3.2,3.2-7.2,4-11.4,2.7c-4.2-1.2-7.1-3.9-8.2-8.3c-0.9-3.6-0.2-7.1,1.6-10.2
			c1.6-2.7,3.2-5.5,6.9-6.3c1.7-0.4,3.4-1,5.2-0.7C302.6,429.2,304.6,429.8,306.4,430.3z M197.9,400.2c0,0.2-0.1,0.3-0.1,0.5
			c0.1,3.5,0.1,6.9,0.2,10.4c0,0.7,0,1.4-0.1,2.1c-0.2,1.2,0.5,2.2,1.7,2.4c0.8,0.1,1.6,0.2,2.4,0.3c7.2,1.5,14.5,1.1,21.7,1.1
			c0.1,0,0.2-0.1,0.3-0.1c0-0.1,0-0.2,0-0.4c-0.6-3.5-1.3-7-1.9-10.5c-0.1-0.3-0.5-0.7-0.8-0.7c-1.1-0.2-2.1-0.2-3.2-0.3
			c-4-0.5-8-0.9-11.9-1.8C203.4,402.6,200.8,401.3,197.9,400.2z M252.7,232.3c1.1-0.1,2.2-0.2,3.3-0.4c4.7-0.8,8.8-2.6,10.6-7.4
			c0.1-0.4,0.2-1.1,0-1.3c-1.7-1.7-3.4-3.4-5.3-4.9c-1.5-1.2-3.2-1.2-4.8-0.2c-1,0.6-1.8,0.6-2.8,0.2c-1.2-0.5-2.5-1.3-3.7-1.2
			c-2.2,0.2-4.3,1-6.4,1.7c-0.5,0.2-1,0.9-1.1,1.4c-1.3,5.2,2.1,10.6,7.4,11.6C250.8,232.1,251.8,232.2,252.7,232.3z M386.2,287.4
			c-2.7-6.5-5.3-12.8-7.8-19c-3.7,2.3-7.1,4.3-10.5,6.4c-1.7,1-1.7,1.1-0.8,2.8c1.4,3,2.9,6,4.4,8.9c0.2,0.3,0.7,0.6,1.1,0.6
			c3.8,0.1,7.6,0.2,11.4,0.3C384.6,287.4,385.2,287.4,386.2,287.4z M218.5,420.1c-2.1,0-4,0.1-5.9,0c-0.9,0-1.5,0.2-2,1
			c-4.3,6.6-8.7,13.1-13,19.7c-0.3,0.5-0.5,1.3-0.6,1.9c-0.2,3.8-0.3,7.7-0.4,11.5c0,0.3,0,0.7,0,1.3
			C204,443.6,211.1,432,218.5,420.1z M295.6,464.3c-2.1-0.6-4.4-0.9-6.3-1.9c-2-1.1-4.3-1.3-6.3-2.1c-0.9-0.4-1.8-0.8-2.6-1.3
			c-6.2-4-9.9-13.3-0.8-19.9c0.3-0.2,0.6-0.4,0.7-0.7c0.7-1.6,1.4-3.3,2.2-5.3c-2.2,1-4.2,1.8-6,2.8c-3.9,2.1-6,5.6-6.5,9.9
			c-1.1,8.1,3.4,15.4,11.4,18.6C286.2,466.5,290.9,466.3,295.6,464.3z M231.2,210.2c0.1-1.7,0.3-3.2,0.4-4.9
			c-3.1-0.2-6.2-0.6-9.2-0.7c-4.8-0.1-9.7,0.2-14.5-0.1c-2.8-0.2-4.3,0.7-5.1,3.4c-0.5,1.7-1.4,3.3-2.1,5.2
			C211,212.2,220.9,209.9,231.2,210.2z M249.7,87.5c5.6-2.2,10-8.2,10.1-13.9c-0.4,0-0.7,0-1.1,0c-2.4,0.3-4.6-0.2-6.5-1.8
			c-0.2-0.2-0.7-0.1-1.1,0c-1.7,0.6-3.3,1.3-5.1,0c-0.8,2.4-1.5,4.6-2.2,6.8c-0.1,0.2,0.1,0.5,0.2,0.8
			C245.9,82,247.8,84.7,249.7,87.5z M234.5,220.7c0.1,0,0.3,0,0.4,0.1c0.4-0.7,0.8-1.5,1.2-2.2c1.5-2.1,3-4.3,4.7-6.4
			c1-1.2,2.5-1.8,4-1.2c1.7,0.8,3.4,1.7,5,2.8c0.9,0.6,1.7,0.9,3.1,0.7c-0.7-0.7-1.3-1.2-1.8-1.7c-0.6-0.5-1.2-0.9-1.7-1.5
			c-3-3.5-5.8-7.1-8.8-10.6c-0.7-0.8-1.6-1.4-2.5-1.8c-1.9-0.8-2-0.7-2.5,1.3c-1.3,4.4-1.7,8.9-1.5,13.4
			C234,216,234.3,218.3,234.5,220.7z M195.4,401c-3.7-1.2-7.5-0.8-11.2-0.4c-0.8,0.1-1,0.4-0.7,1.2c1.1,4.1,2.2,8.2,3.2,12.3
			c2.8,0,5.8,0,8.7,0C195.4,409.6,195.4,405.3,195.4,401z M248.3,88.6c-1.5-2-2.8-4.3-4.5-6.2c-2.2-2.4-2.2-4.9-0.9-7.6
			c0.5-1.1,0.8-2.3,1.3-3.7c-3.5,2.1-6.5,4.3-8.9,7.3c-0.2,0.2-0.3,0.7-0.3,1c0.6,2.9,1.3,5.7,1.9,8.6
			C240.6,88.2,244.5,88.4,248.3,88.6z M198,418.5c-0.3,6.2-0.6,12.3-0.8,18.4c0.1,0,0.2,0,0.2,0c3.6-5.6,7.3-11.3,11-17
			C205,419.5,201.6,419,198,418.5z M335.9,410.1c1-0.8,1.8-1.6,2.7-2.2c1.6-1.1,1.9-2.3,1.3-4.3c-1.9-6-3.6-12.2-5.3-18.3
			c-0.1-0.5-0.3-0.9-0.5-1.5C333.1,384.9,334.6,405.8,335.9,410.1z M291.6,425.5c4.1-0.6,8.2-1.6,12.3,0.3c-0.3-2.4-0.6-4.5-0.9-6.7
			c-3.9,0.1-7.8,0.2-11.7,0.4C291.3,421.5,291.5,423.4,291.6,425.5z M201.7,204.8c-2.5,0-5,0-7.5,0c-0.7,0-0.9,0.3-1,0.9
			c-0.4,2.2-0.8,4.4-1.2,6.6c-0.1,0.3-0.1,0.7-0.1,1c2.2-0.1,4.2-0.2,5.9-0.3C199.2,210.2,200.5,207.5,201.7,204.8z M282.9,419.7
			c0.2,3.8,0.5,7.4,0.7,11c0.1,0.1,0.2,0.1,0.3,0.2c0.3-0.3,0.6-0.5,0.9-0.8c0.4-0.4,0.6-0.9,1-1.2c0.5-0.5,1.2-0.8,1.8-1.2
			c1.1-0.6,1.6-1.4,1.5-2.8c-0.1-1.8,0-3.6,0-5.3C287.2,419.7,285.2,419.7,282.9,419.7z M238.7,124.6c-0.9-0.1-1.7-0.2-2.5-0.2
			c-2.1-0.1-3.7,1.6-3.3,3.7c0.7,3.3,3,5.3,5.7,6.9C236.1,131.6,236,128.1,238.7,124.6z M282.3,456.8c-0.8-2.2-1.9-4.4-2.4-6.8
			c-0.5-2.4-0.5-4.8-0.7-7.2C275.1,446.6,276.9,454.7,282.3,456.8z M240.4,126.4c-0.2,0-0.3,0-0.5,0c-0.3,1-0.6,2-0.8,3
			c-0.2,1.9,1,4,2.6,4.6c0.5,0.2,1.1-0.1,1.6-0.3c0.2-0.1,0.4-0.7,0.3-1C242.6,130.6,241.5,128.5,240.4,126.4z M238.9,554.3
			c-1.2-0.4-2.4-0.8-3.6-1.1c0.5,0.5,1,0.9,1.6,1.2c0.6,0.4,1.2,0.8,1.9,1.2C238.8,555.1,238.8,554.7,238.9,554.3z"/>
		<path class="st0" d="M305.7,400.2c-6.1,0.9-12.2,2.1-18.4,2.8c-14.7,1.8-29.5,2-44.3,1c-1.6-0.1-2.1-0.5-2.3-2.1
			c-0.2-2.1-0.3-4.3-0.1-6.5c0.4-6.5,1.2-12.9,1.4-19.4c0.3-9.9,0.3-19.8,0.4-29.6c0-0.3,0-0.7,0-1.2c2.2,1.3,3.7,0.2,5-1.3
			c1.2-1.4,2.3-3,3.3-4.5c4.7-7.4,9.5-14.8,14.1-22.3c1.3-2.1,2.2-4.3,3.1-6.6c0.4-1,0.1-2.3,0.1-3.5c0-0.6-0.2-1.2-0.2-1.8
			c0.1-11.8-1.4-23.5-3.4-35.2c-1.4-8.2-2.8-16.3-4-24.5c-0.5-3.6-0.6-7.3-0.9-11c0-0.3,0.3-0.6,0.5-0.8c0.3-0.2,0.7-0.3,1.1-0.4
			c3-1.1,5.5-2.8,6.7-5.9c0.2-0.5,0.6-1,0.9-1.7c0.8,0.8,1.5,1.6,2.3,2.3c0.8,0.8,1.5,1,2.5,0.3c0.9-0.6,2-0.8,2.9-1.3
			c4.8-2.7,9.6-5.4,14.4-8.1c0.9-0.5,1.7-1.1,2.2-1.4c2.2,1.9,4.2,3.8,6.4,5.6c11,8.8,22.8,16.4,35.1,23.2c1.3,0.7,2.6,1.3,3.8,2.1
			c0.9,0.6,1.8,1.3,2.6,2.1c1.4,1.5,2.2,1.9,4.1,0.8c4.9-2.8,9.8-5.6,14.7-8.6c2.6-1.6,5-3.4,7.4-5.1c0.4-0.2,0.7-0.5,1.2-0.8
			c-0.3,3.8-0.6,7.3-1,10.9c0,0.4-0.6,0.8-1,1c-10,6.3-19.2,13.5-27.4,21.9c-3.7,3.8-7,7.8-9.8,12.3c-0.1,0.2-0.3,0.4-0.6,0.6
			c1.2-5.1,2.4-10.2,3.6-15.3c-0.1,0-0.2-0.1-0.2-0.1c-0.2,0.2-0.4,0.4-0.5,0.6c-2.7,6.3-5.3,12.7-5.8,19.7c0,0.3-0.1,0.6-0.1,0.8
			c0,0.7,0.1,1.6,1,1.6c0.5,0,1.3-0.5,1.5-1c5-10.6,13.1-18.7,21.8-26.1c5.5-4.7,11.4-9.1,17.1-13.6c0.1-0.1,0.3-0.2,0.6-0.3
			c2,3.1,4,6.2,6,9.4c-0.4,0.3-0.6,0.4-0.8,0.5c-6.3,3.2-12.6,6.4-19,9.6c-1.3,0.7-1.7,1.4-1.3,3.1c0.7,2.6,1.4,5.2,2.4,7.8
			c2,5.4,4.5,10.6,7.4,15.6c1,1.6,2.3,2.5,4.2,2.8c7.7,1.1,15.3,1.8,23.1,1.6c1,0,1.5,0.3,1.9,1.3c4.7,10.4,9.5,20.8,14.3,31.2
			c1.1,2.4,2.1,4.7,3.2,7.1c0.3,0.6,0.9,1.1,1.3,1.7c0.2,0.3,0.5,0.6,0.7,0.9c2.2,4.6,4.4,9.3,6.5,13.9c0.2,0.4,0.2,1.2,0,1.6
			c-0.6,1-1.3,1.9-2,2.8c-6.2,7-13.6,12.4-21.6,17.2c-13.9,8.4-28,16.4-42.8,23.3c-2.6,1.2-5.3,2.3-8.1,3.5
			c-0.2-0.4-0.4-0.9-0.5-1.3c-1.8-6.4-3.7-12.8-5.5-19.3c-0.1-0.3-0.1-0.7,0-1c1.8-6.8,3.6-13.6,5.6-20.3c1-3.4,2.3-6.8,3.8-10.1
			c1-2.2,2.5-4.3,4.1-6.1c3-3.6,7.2-4,11.5-4.2c0.9,0,1.8-0.1,2.7-0.2c0.3,0,0.6-0.3,0.8-0.5c-0.3-0.3-0.5-0.7-0.8-0.8
			c-2.6-0.9-5.3-0.8-7.9-0.5c-2.8,0.3-5.2,1.4-7.3,3.3c-0.3,0.2-0.5,0.4-1,0.8c-2.7-4.5-5.6-8.8-8.1-13.3
			c-5.2-9.4-10.2-18.8-15.3-28.3c-0.3-0.5-0.5-1-0.9-1.4c-0.2-0.3-0.8-0.5-1-0.4c-0.3,0.2-0.6,0.7-0.5,1c0,0.5,0.3,1.1,0.5,1.6
			c2.2,4.6,4.5,9.3,6.7,13.9c0.3,0.6,0.4,1.3,0.2,1.9c-1.5,4.4-3,8.8-4.5,13.1c-2.7,7.9-5.4,15.8-8.1,23.7c0.1,0,0.2,0.1,0.3,0.1
			c-0.1,0-0.2,0.1-0.3,0.1c-7.1-1.3-14.3-1-21.5-0.6c-2.4,0.1-4.7,0.4-7.1,0.6c-1.7,0.1-3.1,0.8-3.6,2.5c-0.6,1.8,0.1,3.3,1.4,4.4
			c1,0.9,2.3,1.6,3.6,2.4c-1.3-0.1-2.4-0.2-3.6-0.2c-1.4,0-2.9,0-4.3,0.2c-1.8,0.3-2.7,1.8-2.5,3.7c0.4,2.9,2,4.9,4.8,5.6
			c2.7,0.7,5.5,1.1,8.2,1.5c3.2,0.5,6.3,0.8,9.5,1.3c-2.6,0.2-5.2,0.4-7.9,0.6c-2.1,0.2-4.1,0.5-6.2,0.9c-3.2,0.7-4.2,3.2-2.7,6.1
			c0.9,1.7,2.4,2.8,4.2,3.6c-1.6,1.4-2.1,3-1.6,5c0.6,2.2,2.1,3.8,4.2,4.4c2.2,0.7,4.5,1,6.8,1.3c2,0.3,4.1,0.3,6.2,0.5
			C305.7,400,305.7,400.1,305.7,400.2z M306.5,260.6c0.1-4.4-0.3-5-4.9-5.3c-6.5-0.3-13.1-0.3-19.6-0.5c-0.5,0-1-0.2-1.5-0.5
			c-0.7-0.4-1.1-0.3-1.7,0.2c-0.9,0.8-0.7,2-1,2.9c-1.7,5.8-2.6,11.7-2.7,17.7c0,0.8,0.2,1.6,0.4,2.3c0.1,0.5,0.4,1.1,0.6,1.6
			c2.1,4,4.2,8.1,6.4,12.1c0.6,1.1,1.4,2.3,2.7,2.3c2,0,4-0.2,5.6-1.8c2.5-2.4,5.3-4.6,8-6.9c0.5-0.4,1-1,1.2-1.6
			c1.6-4,3.2-7.9,4.6-11.9C305.8,267.9,306.5,264.3,306.5,260.6z M354,334.6c-0.1-0.1-0.3-0.3-0.4-0.4c0.5-1.3,0.8-2.6,1.4-3.8
			c3-6.2,6-12.3,8.9-18.4c0.2-0.5,0.5-1,0.6-1.5c0-0.3-0.2-0.9-0.5-1c-0.3-0.1-0.8,0-1.2,0.2c-0.3,0.2-0.4,0.6-0.6,0.9
			c-3.1,5.9-6.2,11.8-9.2,17.8c-1.8,3.6-3.5,7.4-5.1,11.1c-0.2,0.4,0,1,0,1.5c0.4-0.3,0.9-0.5,1.1-0.9c1.1-1.8,2.1-3.6,3.2-5.3
			c1,1.4,1.7,1.7,3.5,1.1c5.2-1.8,10.3-3.9,15.5-5.8c0.2-0.1,0.4-0.3,0.6-0.4c0-0.1-0.1-0.2-0.1-0.3
			C365.7,331,359.9,332.8,354,334.6z"/>
		<path class="st1" d="M245,470.5c-2.8,0.3-43.6-4.8-48.6-6.1c0.1-2.2-0.1-4.3,1.2-6.4c7.7-12.1,15.4-24.4,23-36.6
			c0.6-1,1.2-1.3,2.4-1.3c11,0.1,22,0.2,33,0.2c6.4,0,12.7-0.4,19.1-0.5c1.7,0,3.4,0,5.3,0c0.3,3.7,0.6,7.5,0.9,11.4
			c-0.7,0.2-1.3,0.4-1.9,0.6c-10.3,3.4-14.9,12.6-11.4,22.9c3.9,11.6,18.3,17.6,29.2,12.1c1.1-0.6,2.2-1.3,3.1-2.2
			c1-1,2.1-1.6,3.3-2.2c2.1-1.1,4.2-2.5,6.3-3.8c0.3,1.6,0.7,3.3,1.1,5.1c6.2,30.7,13.6,61.1,21.5,91.4c3,11.6,5.7,23.2,8.5,34.8
			c0.6,2.6,0.5,5.4,1,8.1c2,10,4.1,19.9,6.2,29.8c2.7,13,5.5,26.1,8.1,39.1c0.5,2.3,0.7,4.7,1.1,7.1c0.1,0.8-0.1,1.1-0.9,1.4
			c-16.1,5.9-32.8,8-49.9,6.5c-1.9-0.2-3.9-0.6-5.8-1c-0.6-0.1-0.9-0.4-0.8-1.1c0.1-0.4,0-0.9-0.2-1.3c-1.6-4.4-1.9-9-2.1-13.6
			c-1.5-26.1-4.5-52.1-8.3-78c-1-6.5-2.4-12.8-3.9-19.1c-0.1-0.3-0.1-0.6-0.2-0.9c0-0.1,0.1-0.1,0.2-0.4c5.6,8.7,12,16.6,18.6,24.2
			c0.1-0.1,0.2-0.1,0.3-0.2c-0.3-0.5-0.5-1.1-0.9-1.6c-5-6.9-9.9-13.7-15-20.5c-1-1.3-2.3-2.4-3.5-3.6c-0.2-0.2-0.4-0.5-0.5-0.8
			c-0.8-3-1.6-6.1-2.2-9.2c8.5,11.9,18.5,22.5,30.2,31.2c0.1-0.1,0.2-0.2,0.3-0.2c-0.8-0.8-1.5-1.6-2.3-2.4
			c-9.9-10-19.6-20.2-28.1-31.5c-1-1.4-1.8-2.8-2.3-4.4c-8.1-27.1-17.3-53.7-27.5-80.1c-1.5-3.9-2.6-8-3.8-12
			c-0.4-1.3-1.1-2-2.4-2.4c-9.5-3.2-18.4-7.6-26.6-13.4c-0.3-0.2-0.8-0.1-1.3-0.2c0,0.4-0.3,1-0.1,1.3c0.7,0.9,1.5,1.9,2.5,2.6
			c4.1,3.3,8.8,5.7,13.5,8c3.4,1.6,6.9,2.9,10.4,4.4c0.5,0.2,0.9,0.7,1.1,1.2c0.3,0.8,0.6,1.7,0.5,2.4
			C246,463.1,245.5,466.8,245,470.5z"/>
		<path class="st0" d="M185.7,316.6c-2-2.9-4-5.8-5.9-8.4c0.2-1,0.7-1.8,0.6-2.5c-0.6-3.3-1.4-6.6-2.1-10c0-0.1-0.1-0.2-0.2-0.3
			c-0.1,0-0.2,0-0.4,0.1c0.5,3.5,1,7.1,1.6,11c-0.5-0.5-0.8-0.8-1.1-1.1c-3.1-3.5-6.2-7-9.2-10.6c-0.1-0.2-0.3-0.3-0.4-0.5
			c-0.5-0.6-1.2-1.1-2-0.5c-0.9,0.7-0.4,1.4,0.2,2.1c0.6,0.8,1.2,1.5,1.8,2.2c4,4.6,8,9.3,11.9,13.9c0.2,0.3,0.4,0.6,0.8,1
			c-0.3,0-0.5,0-0.6-0.1c-7.6-2.8-15.6-4-23.6-5.4c-1.4-0.2-2.8-0.5-4.1-0.7c-1.2-0.2-1.4-0.5-0.8-1.6c0.5-0.9,1.2-1.6,2-2.7
			c-0.6,0.1-1,0.1-1.3,0.2c-1.5,0.7-2.6,1.8-3.1,3.4c-0.5,1.5-0.1,2.4,1.4,2.7c2.4,0.6,4.8,0.9,7.2,1.4c6.6,1.4,13.2,2.8,19.8,4.3
			c1,0.2,2,0.7,3,1.1c1.6,0.6,2.7,1.7,3.4,3.2c1.7,3.4,3.4,6.9,4.4,10.6c1.4,4.7,3,9.5,5.1,14c1.2,2.8,2.7,5.4,3.7,8.3
			c0.3,1,0.5,2.1,0.3,3.1c-0.6,2.7-1.3,5.4-2.1,8c-1.4,4.7-2.9,9.4-4.3,14.1c-0.1,0.4-0.3,0.7-0.4,1.3c-2.2-1.7-4.3-3.4-6.5-5
			c-10.3-7.1-18.9-16-27.2-25.3c-5.2-5.9-11.2-10.8-17.2-15.6c-1.8-1.4-3.6-3-5.3-4.5c-0.3-0.3-0.7-0.9-0.6-1.3
			c0.1-3,0.5-6.1,0.5-9.1c0.2-8,2.8-15.3,6.4-22.4c6.3-12.3,13.9-23.8,22-35c9.9-13.6,18.9-27.7,25.9-43c0.4-0.9,1-0.8,1.7-0.8
			c8.2-0.6,16.5-1,24.7-2.4c4.5-0.8,9.1-1.1,13.7-1.6c1.5-0.2,1.6,0,1.8,1.5c0.4,3.4,0.9,6.8,1.3,10.2c0,0.3,0,0.6,0.2,0.8
			c0.4,0.5,0.9,1.2,1.4,1.3c0.5,0,1.2-0.5,1.5-1c1.2-2.1,2.2-4.3,3.4-6.3c0.8-1.4,1.8-2.8,2.9-4.1c1.3-1.6,1.6-1.6,3.4-0.7
			c0.4,0.2,0.7,0.4,1.2,0.7c-1.5,0.5-2.8,1-4.1,1.5c-1.7,0.7-2.6,2-2.8,3.7c-0.4,4.2,0.4,8,3.3,11.3c0.2,0.3,0.4,0.8,0.3,1.1
			c-2.9,11.8-5.7,23.5-8.9,35.2c-3.1,11.2-6.6,22.2-9.9,33.3c-0.5,1.6-1.2,3-1.7,4.6c-0.3,1-0.5,2.1-0.2,3
			c2.9,10.5,7.2,20.4,13.2,29.5c1.2,1.8,3,3.3,4.4,5c0.3,0.4,0.6,1,0.6,1.5c-0.6,13.5-1.1,27-1.8,40.5c-0.2,3.5-0.7,6.9-0.9,10.4
			c-0.1,2.7,0.1,5.3,0.1,8.1c-1.4-0.1-3.1-0.3-4.7-0.4c-7.6-0.8-15.3-1.4-22.9-2.4c-7.3-1-13.7-4.3-19.1-9.3
			c-0.3-0.2-0.4-0.8-0.3-1.2c0.5-2.2,0.7-4.6,1.9-6.4c1.1-1.6,0.8-3.2,1.3-4.8c1.5-5.2,3.2-10.4,4.7-15.6c0.8-2.8,1.6-5.7,2.1-8.6
			c0.2-1.3-0.3-2.6-0.4-4c0-0.1-0.1-0.2-0.1-0.3c-2-4.5-4.2-8.9-5.9-13.5c-5.5-14.3-7.4-29.2-6.9-44.5c0.6-18.2,3.4-36,7.4-53.7
			c0.4-1.8,0.8-3.7,1.1-5.5c0.1-0.3-0.1-0.6-0.2-1c-0.3,0.2-0.7,0.4-0.8,0.6c-1,2.6-2,5.2-2.8,7.9c-1,3.5-1.8,7.1-2.7,10.7
			c-0.1,0.4-0.2,0.8-0.4,1.5c-0.6-0.9-1-1.6-1.5-2.3c1.7-0.3,2.1-0.7,1.9-2.6c-0.3-2.4-0.6-4.8-1.1-7.1c-0.6-3.3-1.4-6.6-2.2-10
			c-0.1-0.4-0.2-0.7-0.5-1.1c0.3,6.5,1.3,12.9,2.5,19.3c-0.1,0.1-0.2,0.2-0.4,0.3c-0.8-0.6-1.6-1-2.3-1.7c-1.4-1.4-2.6-2.9-4-4.3
			c-0.5-0.5-1.1-1.5-2-0.7c-0.9,0.9,0.1,1.5,0.6,2.1c2.6,3,5.2,6,7.8,9c0.5,0.6,0.6,1.2,0.4,2c-2.8,14.8-4.6,29.7-4.3,44.8
			c0.1,4.7,0.7,9.5,1.1,14.2c0,0.4,0.1,0.8,0.1,1.2C185.9,316.5,185.8,316.6,185.7,316.6z"/>
		<path class="st1" d="M196.2,480c15.9,2.9,31.7,4.2,47.9,3.1c-1.6,23.2-4.3,46.2-4.2,69.5c-0.4-0.1-0.7-0.2-0.9-0.3
			c-7.5-3.2-15-6.4-22.5-9.6c-0.9-0.4-1.8-0.9-2.5,0.3c-0.4,0.8,0.1,1.5,1.5,2.2c6.5,3.2,13,6.5,19.5,9.8c1.2,0.6,2.4,1.4,3.6,2.2
			c0,0.1,0,0.2,0,0.4c-0.6,0.2-1.3,0.5-1.9,0.6c-5.5,1.5-11,3.2-15.9,6.2c-2.4,1.5-4.6,3.3-6.8,5c-0.3,0.2-0.6,0.6-0.7,1.1
			c8.3-4.4,16.4-9.1,25.8-11.3c0.1,1,0.2,2,0.3,3.1c0.8,9.1,3,17.9,5.2,26.7c3.5,13.9,5.8,28.1,7.7,42.3c1.7,13.4,3.7,26.7,5.6,40
			c0.2,1.3,0.3,2.6,0.5,3.9c0.2,1-0.1,1.5-1,2c-6.9,3.6-14.1,5.2-21.8,4.4c-10.7-1.1-21.2-3.6-31.6-6.5c-0.6-0.2-1.3-0.2-1.1-1.2
			c1.5-6.3,0.8-12.7,0.4-19.1c-0.7-9.3-1.2-18.7-1.9-28c-1.1-15-2.2-30.1-3.4-45.1c-0.4-4.5-1.2-9-1.8-13.4c-0.1-0.5-0.1-1-0.1-1.4
			c0.1-11.7,0.1-23.4,0.2-35.2c0-0.9,0.2-1.8,0.3-2.7c0.1-1.5,0.4-3.1,0.4-4.6c-0.1-14.3-0.3-28.6-0.4-42.8
			C196.2,481,196.2,480.6,196.2,480z"/>
		<path class="st2" d="M288.2,128c-0.3,1.9-0.6,3.7-0.7,5.5c-0.1,1.3-0.1,2.6,0.1,3.8c0.2,1.6,0.8,3,2.5,3.5
			c-0.3,2.8-0.5,5.5-0.7,8.3c-0.1,1.6-0.1,3.1-0.1,4.7c0.1,1.7,0.8,2.2,2.5,1.6c0,0.2,0,0.4,0,0.6c-1.2,6.1-2.9,12-5.2,17.8
			c-0.1,0.4-0.3,0.7-0.5,1.1c-1.8,4.5-4.8,7.6-9.2,9.7c-6.7,3.1-13.6,4.8-20.9,5.7c-4.4,0.5-8.9,0.8-13.3,0.1
			c-5.4-0.9-7.3-2.2-8.7-8.8c-1.5-6.6-2.4-13.4-3.6-20.1c-0.5-2.8-1.3-5.5-1.9-8.3c-0.2-0.8-0.4-1.7-0.3-2.5
			c0.7-6.2,1.5-12.3,2.2-18.5c0.1-0.5,0.2-1.1,0.4-1.8c3.3,5.1,7.2,8.8,13.8,8.2c-0.2,0.7-0.3,1.4-0.6,2c-1.4,2.9-2.8,5.7-4.1,8.5
			c-0.9,1.9-1.9,3.8-2.7,5.7c-1.1,2.3-0.6,3.9,1.8,4.6c2.4,0.8,4.9,1.3,7.4,1.6c1.2,0.1,2.4-0.6,3.6-1c0.3-0.1,0.5-0.4,0.8-0.6
			c0-0.1,0-0.3-0.1-0.4c-1.1-0.2-2.2-0.3-3.3-0.5c-2.3-0.4-4.5-0.9-6.8-1.3c-1-0.2-1.2-0.7-0.7-1.7c1.9-3.7,3.7-7.5,5.5-11.2
			c0.4-0.9,0.8-1.8,1.2-2.7c1.2-3.1,1.3-6.2-0.3-9.2c-1.2-2.3-2.6-4.4-3.9-6.6c-0.2-0.4-0.5-0.8-0.9-1.3c0.3-0.1,0.6-0.1,0.8-0.1
			c8.4-0.1,16.7-0.9,25-2.1c1.4-0.2,2.5,0.1,3.5,1c1.4,1.3,2.9,2.5,4.4,3.7c0.3,0.2,0.6,0.4,1.2,0.8c-0.3-2.8-1.7-4.5-3.5-6.2
			c3.5-0.7,6.8-1.4,10.2-2.2c-0.4,1-0.8,1.9-1.1,2.9c-0.4,1.7-0.9,3.5-1,5.3c-0.1,2.1,1.4,3,3.4,2.4c0.7-0.2,1.3-0.6,2-0.9
			C286.9,128.8,287.5,128.4,288.2,128z M248.8,175.5c1.1-0.1,2.2-0.2,3.3-0.4c5.6-1,10.8-3,15.8-5.5c1.3-0.6,2.4-1.3,2.5-2.9
			c0-0.5,0-1.2-0.4-1.4c-0.2-0.2-0.9,0-1.4,0.1c-0.7,0.1-1.3,0.5-2,0.5c-1.2,0-2.4,0-3.6-0.1c-7-0.6-14-1.2-21-0.7
			c-2.1,0.1-4.1,0.4-5.2-2.1c-0.1-0.3-1.1-0.5-1.4-0.3c-0.3,0.2-0.4,0.9-0.4,1.4c0,0.4,0.4,0.8,0.6,1.1c0.4,0.9,1,1.7,1.2,2.7
			c0.5,1.7,1.2,3.3,2.7,4.4C242.4,174.5,245.4,175.7,248.8,175.5z M270,141.9c2.7,0,5.2-0.2,7.5-1.4c2.5-1.3,3-2.8,1.5-5.2
			c-3-4.6-7.2-7.5-12.7-8.3c-4.8-0.7-8.5,2-9.1,6.5c-0.1,0.9-0.2,1.9-0.1,2.9c0.1,0.7,0.3,1.5,0.7,1.9c0.9,0.8,2,1.4,3.1,1.8
			C263.8,141.4,267,141.8,270,141.9z"/>
		<path class="st1" d="M245.6,233.3c3.6,1.8,7.3,1.8,11.1,1.3c0.1,0.6,0.2,1.2,0.2,1.8c-0.2,9.1,1.7,18,3.3,26.9
			c1.7,10.1,3.6,20.2,4.3,30.4c0.4,5,0.6,10.1,0.8,15.1c0,0.5-0.1,1.1-0.3,1.5c-1,2.1-1.9,4.2-3.1,6.2c-4.7,7.6-9.5,15.1-14.4,22.6
			c-0.9,1.4-2,2.7-3.1,4.1c-2.4-2.3-4.8-4.4-6.5-7c-5.5-8.6-9.4-17.9-12.3-27.6c-0.1-0.5-0.2-1.1,0-1.6c2.3-7.5,4.8-14.9,7.1-22.4
			c5.1-16.5,9.2-33.2,12.6-50.1C245.5,234,245.5,233.8,245.6,233.3z"/>
		<path class="st3" d="M307.8,723.4c-3.9-0.4-7.8-0.4-11.5-1.1c-9-1.7-12.3-6.8-10.9-15.8c0.6-3.5,2.1-6.5,5.1-8.4
			c5.4-3.5,10.1-7.9,14.7-12.5c0.4-0.4,1.1-0.7,1.7-0.6c15.7,1.6,31.1,0,46.1-4.8c0.9-0.3,1.4-0.2,1.9,0.7
			c2.8,5.3,5.3,10.7,6.1,16.7c0.5,3.6,0.5,7.1-0.9,10.5c-1.2,2.8-3.1,4.9-5.8,6.3c-4.2,2.2-8.7,3.5-13.4,4.5
			C329.9,721.1,318.9,722.7,307.8,723.4z"/>
		<path class="st3" d="M251.9,682.9c-0.7,4.8-2.3,8.9-6,11.9c-4.8,4-10.2,7.2-15.8,10c-10.1,5.1-20.7,8.9-32,10.6
			c-11.6,1.8-23.2,1.6-34.6-1.7c-4.4-1.3-4.9-2-5-6.6c-0.1-5.5,2.2-9.9,5.8-13.8c5.5-5.9,12.2-9.2,20.3-9.7c6.3-0.4,12.2-2.3,17.9-5
			c0.9-0.4,1.7-0.5,2.6-0.2c10.4,3.2,20.9,5.6,31.8,6.5c4.7,0.4,9.3,0,13.7-1.7C251.1,683.1,251.4,683.1,251.9,682.9z"/>
		<path class="st1" d="M322,114.5c0.1-2.4,0.2-4.5,0.3-6.6c0.1-1.6-0.4-3-1.3-4.4c-4.4-7-9.9-12.9-16.2-18.2
			c-13.5-11.6-29.3-18.4-46.8-21.4c-2.4-0.4-4.6-0.2-6.9,0.8c-5.5,2.5-10.9,5-15.3,9.3c-1,0.9-1.8,2-2.7,3c-0.8,0.9-0.9,1.8-0.4,2.9
			c0.6,1.5,1,3,1.3,4.7c-0.2-0.2-0.5-0.3-0.7-0.5c-1.5-1.1-2.9-2.5-4.5-3.3c-2.5-1.2-3.6-5.1-2.9-7.5c0.9-2.7,2.4-5,4.2-7.1
			c8-9.5,17.9-16.3,29.3-20.9c1.8-0.7,3.5-0.7,5.3-0.3c6,1.1,11.4,3.7,16.7,6.4c10.8,5.5,20.3,13,29.4,21
			c7.4,6.5,14.4,13.4,20.5,21.2c3.8,4.9,6.8,10.1,8.4,16.2c0.3,1.3,0,2.2-1.1,2.6c-1.8,0.7-3.7,1.4-5.6,1.6
			C329.4,114.3,325.7,114.3,322,114.5z"/>
		<path class="st1" d="M319,114.3c-6.4-5.1-13.4-8.2-20.6-10.8c-13.5-4.7-26.8-9.8-40.7-13.2c-2.1-0.5-4.3-0.9-6.6-1.3
			c0.4-0.2,0.6-0.3,0.8-0.5c2.2-1.6,4.4-3.1,6.5-4.7c0.6-0.5,0.9-1.3,1.1-2.1c0.9-2.8,1.8-5.7,2.6-8.6c0.4-1.4-0.4-2.1-1.8-1.7
			c-2.5,0.7-4.7,0.2-6.6-1.6c-0.3-0.3-1-0.3-1.3-0.2c-1.8,0.7-3.5,0.8-5.6,0.3c0.4-0.3,0.7-0.5,0.9-0.6c1.2-0.6,2.5-1,3.7-1.7
			c2.3-1.3,4.8-1.4,7.3-0.9c20.1,3.9,37.5,12.8,51.5,27.9c2.9,3.2,5.4,6.8,8.1,10.3c0.8,1.1,1.2,2.3,1.1,3.7
			C319.2,110.3,319.1,112.1,319,114.3z"/>
		<path class="st2" d="M312.7,392.7c-0.2-0.3-0.3-0.6-0.6-0.9c-2.1-2.2-4.5-3.7-7.8-3.8c-3.9-0.1-7.8-0.8-11.6-1.3
			c-1.6-0.2-3.1-0.9-4.1-2.3c-1.2-1.5-0.8-2.6,1.1-2.8c4.6-0.5,9.3-1,14-1.3c1.2-0.1,2.6,0.4,3.7,1c2.1,1.2,3.9,2.8,5.9,4.1
			c0.5,0.3,1.3,0.6,1.6,0.4c0.8-0.5,0.4-1.4-0.2-1.9c-1.3-1.3-2.7-2.4-4-3.6c-0.5-0.4-0.9-1-1.3-1.5c-1.6-2.2-3.4-4-6.2-4.4
			c-4.3-0.7-8.6-1.1-12.8-1.7c-1.7-0.2-3.3-0.6-4.9-1c-1.1-0.3-1.9-1.1-2.3-2.2c-0.3-0.9-0.2-1.4,0.9-1.4c0.7,0,1.4-0.1,2.2,0
			c8.2,0.6,16.4,0.7,24.6,0.2c1.3-0.1,2.1,0.3,2.7,1.5c0.5,1,1.1,1.9,1.8,2.8c0.2,0.3,0.8,0.4,1.2,0.6c0.1-0.4,0.5-0.9,0.4-1.3
			c-0.7-1.7-1.4-3.4-2.2-5c-0.3-0.5-1.1-0.8-1.6-1.1c-0.3-0.1-0.6-0.2-0.9-0.2c-3.4,0-6.7-0.2-9.9-1.2c-1.3-0.4-2.7-0.4-4-0.4
			c-3-0.1-5.6-1.2-8.2-2.6c-0.2-0.1-0.5-0.2-0.6-0.4c-0.4-0.5-0.7-1-1-1.5c0.5-0.2,1-0.5,1.5-0.5c7.5-0.7,15.1-1.2,22.6-0.6
			c1.9,0.1,3.8,0.5,5.6,1c0.5,0.1,1.2,0.9,1.3,1.4c1.8,8,5.9,15,9.7,22.1c0.3,0.5,0.7,0.9,1,1.3c0.4,0.7,0.8,1.4,0.9,2.2
			c0.6,6.9,1.2,13.9,1.8,20.8c0.1,0.8-0.2,1.1-0.8,1.4c-2.9,1.6-5.7,1.2-8.1-0.9c-2.8-2.4-5.5-4.9-8.1-7.5c-1.7-1.7-3.5-2.7-6.1-2.8
			c-4.6-0.1-9.2-0.7-13.7-1.1c-1.7-0.2-3.2-0.9-4.3-2.3c-1.2-1.7-0.7-3,1.4-3.5c1.9-0.4,3.8-0.4,5.7-0.2c2.3,0.3,4.6,0.2,6.8,0.4
			c0.9,0.1,1.8,0.4,2.7,0.7c1.4,0.5,2.8,1.1,4.2,1.7C312.5,393,312.6,392.8,312.7,392.7z"/>
		<path class="st3" d="M289.1,114.2c-3.2,1-6.5,2-9.7,2.8c-8.1,1.9-16.3,2.8-24.5,3.6c-9.3,0.9-18.7,0.9-28,0.1
			c-4.1-0.4-8.2-0.9-12.1-2.5c-1.8-0.7-3.5-1.7-5-2.8c-1.5-1.1-1.7-2.7-0.4-4.1c1.3-1.4,2.7-2.8,4.3-3.8c5.6-3.5,11.9-5.6,18.1-7.9
			c0.5-0.2,1,0,1.5,0c0.6,0,1.2-0.2,1.8-0.2c0.3,0,0.6-0.1,0.9-0.1c12.6,2.8,25.3,4.7,37.6,8.6c5.1,1.6,10,3.7,15,5.5
			c0.2,0.1,0.3,0.2,0.5,0.3C289.1,113.9,289.1,114,289.1,114.2z"/>
		<path class="st1" d="M294.9,216.3c1.8-1.3,3.6-2.6,5.4-4c2.9-2.3,5.8-4.7,8.6-7.1c0.6-0.5,1.1-0.7,2-0.6c10.9,1.1,21.3,4.1,31.4,8
			c5.4,2.1,10.3,5.2,15.4,8.3c-10.8,4.2-19.3,11.3-26.7,19.9C318.4,233.7,306.5,225.3,294.9,216.3z M333.8,227.2
			c2-0.1,4.1-1.1,6-2.7c0.8-0.7,0.9-1.6,0.4-2.5c-1.1-2.1-2.1-4.3-3.4-6.3c-1.1-1.8-2.4-1.9-3.7-0.2c-1.5,2-2.7,4.1-4.1,6.2
			c-0.6,0.9-0.5,1.7-0.1,2.6C329.6,226.1,331.2,227.2,333.8,227.2z M322.3,220.4C322.3,220.4,322.3,220.4,322.3,220.4
			c0.8,0,1.6,0,2.4-0.1c0.3,0,0.6-0.1,0.9-0.1c1.4-0.2,2.2-0.9,2.1-2.3c-0.2-1.7-0.5-3.4-1.2-4.9c-1.4-2.7-6.1-2.5-7.6,0.2
			c-0.1,0.2-0.2,0.4-0.2,0.7c-0.2,0.7-0.3,1.4-0.5,2.2c-0.1,0.5-0.3,1.1-0.4,1.6c-0.2,1.6,0.5,2.5,2.1,2.7
			C320.7,220.5,321.5,220.4,322.3,220.4z"/>
		<path class="st0" d="M256.9,215.2c0.4-3.4,2.1-5.8,4.7-7.7c4.6-3.4,9.7-5.8,15-8c6.6-2.7,13.3-5,20.4-6.2c0.5-0.1,0.9-0.2,1.4-0.4
			c1.2-0.4,2.6-0.2,3.2,0.8c1.8,3,4.6,4.6,7.6,6c0.2,0.1,0.3,0.2,0.6,0.4c-1.5,1.4-2.9,2.8-4.4,4c-9.6,8.2-20.1,15.2-31.3,21
			c-1,0.5-1.6,0.3-2.3-0.5c-2.1-2.3-4.3-4.5-6.4-6.8c-0.1-0.1-0.1-0.1-0.2-0.2C262.8,215.8,260.3,214.2,256.9,215.2z"/>
		<path class="st4" d="M195.4,416.5c-0.2,2.7-0.5,5.4-0.6,8c-1.2,19.9-1.8,39.8-1.8,59.8c0,1.3-0.4,1.9-1.5,2.3
			c-1,0.3-2,0.8-3.1,1.3c-0.2-1-0.4-1.9-0.6-2.8c-3.5-20-6.3-40-7.4-60.3c-0.1-2,0.1-4,0.2-6c0-0.8,0.3-1.4,1.3-1.4
			C186.3,417.1,190.8,416.8,195.4,416.5z"/>
		<path class="st2" d="M254.4,213.2c-3.5-4.2-7.1-8.3-10.6-12.5c-0.2-0.2-0.3-0.6-0.3-0.9c0.2-2,0.4-4,0.6-6.1c0.3,0,0.7,0,1.1,0
			c9.9,0.4,19.6-1,28.8-4.6c2.6-1,5-2.3,7.4-3.6c2.2-1.2,3.8-3,5.1-5.1c2.7-4.4,4.2-9.2,5.7-14.1c0.2-0.5,0.3-1,0.5-1.6
			c0.4,0.1,0.7,0.2,1,0.3c0.3,0.1,0.6,0.2,0.7,0.2c-0.3,4.4-0.6,8.6-0.8,12.9c-0.1,4.2-0.9,8.5-0.3,12.9c-0.1,0-0.5,0.1-0.9,0.2
			c-9.6,2.4-18.9,5.8-27.5,10.7c-1.4,0.8-2.8,1.7-4.1,2.7c-3,2-5.4,4.5-6.1,8.3C254.7,213.1,254.6,213.2,254.4,213.2z"/>
		<path class="st4" d="M233.8,96.3c0.3-1.4,0.6-3,0.9-4.5c0.2-0.8,0.8-0.8,1.4-0.8c8.8,0.1,17.4,1.1,25.9,3.5
			c12.8,3.7,25.2,8.2,37.7,12.7c5.7,2.1,11.3,4.5,16.3,8.1c0.9,0.6,1.7,1.4,2.5,2.1c0.6,0.6,0.7,1.2,0.3,2c-0.6,1.1-1.3,2.2-2,3.3
			c-0.5,0.8-0.9,0.8-1.7,0.4c-5.6-3-11.2-6-16.9-8.8c-15.6-7.5-32-12.2-49-15.1c-4.9-0.8-9.8-1.8-14.7-2.7
			C234.3,96.5,234.2,96.5,233.8,96.3z"/>
		<path class="st4" d="M196.3,466.8c16.2,3,32.4,5,48.8,5.9c-0.2,2.9-0.5,5.8-0.7,8.9c-0.6,0-1,0-1.5,0c-14.2,0-28.4-1.2-42.4-3.2
			c-1.1-0.2-2.2-0.2-3.2-0.4c-0.4-0.1-0.9-0.5-0.9-0.8C196.2,473.8,196.3,470.4,196.3,466.8z"/>
		<path class="st5" d="M370.4,231.3c-0.7,0.6-1.2,1.2-1.8,1.7c-7.6,5.6-15.5,10.8-23.8,15.2c-0.9,0.5-1.4,0.4-2.1-0.3
			c-0.9-1-2.1-1.7-3.3-2.4c-1.9-1.2-4-2.2-6.1-3.4c0.6-0.8,1.1-1.5,1.7-2.1c6.1-6.3,12.6-11.9,20.5-15.7c1.2-0.6,2.4-1.1,3.6-1.6
			c0.4-0.1,1-0.2,1.3,0c3.5,2.3,6.8,4.9,9.6,8.1C370.1,230.8,370.2,231,370.4,231.3z"/>
		<path class="st6" d="M290.1,138.3c-0.1-0.6-0.3-1.4-0.4-2.2c-0.2-2.9,0.3-5.7,1.1-8.5c0.1-0.5,0.4-1,0.4-1.5
			c0-0.6-0.1-1.4-0.5-1.7c-0.4-0.3-1.2-0.1-1.7,0.2c-1.3,0.7-2.5,1.6-3.7,2.4c-0.5,0.3-1.1,0.5-2,0.9c0.1-1.3,0.2-2.3,0.4-3.2
			c0.4-1.8,0.8-3.5,1.4-5.2c0.1-0.4,0.6-0.9,1.1-1.1c2.2-1,4.4-2,6.6-3c0.3-0.1,0.8,0,1.1,0.2c2.8,1.3,5.6,2.5,8.4,3.9
			c3.9,2,7.7,4,11.5,6.1c0.7,0.4,1.4,1.1,1.8,1.8c0.8,1.3,1.4,2.8,1.8,4.3c-0.6-0.3-1.1-0.8-1.8-0.9c-0.9-0.2-1.2,0.5-1.4,1.4
			c-1.4-1.2-2.9-1.9-4.7-1.8c-2,0.1-3.7,1-5.2,2.2c-0.9,0.7-1.7,1.5-2.5,2.2c-0.7,0.7-1.1,1.5-2.3,1.6c-0.3,0-0.7,0.7-0.8,1.2
			c-1.5,4.6-3.9,8.9-6.3,13c-0.1,0.1-0.2,0.2-0.6,0.3c0.1-2,0.2-4,0.4-6c0.1-1.6,0.5-3.2,0.6-4.9c0.1-0.6,0-1.5-0.4-1.8
			C291.9,137.9,291,138.2,290.1,138.3z"/>
		<path class="st4" d="M308.5,402.8c0.1,1.4,0.2,2.9,0.2,4.4c0,2.2,0,4.5,0.1,6.7c0,1.2-0.6,1.7-1.7,1.7c-3.2,0.1-6.3,0.3-9.5,0.3
			c-10.3,0.3-20.7,0.5-31,0.8c-0.3,0-0.6,0-1.1,0c-0.2-2.9-0.4-5.8-0.6-8.8C279.6,407.7,294.1,406.2,308.5,402.8z"/>
		<path class="st5" d="M374.7,261.4c0.9,1.7,1.7,3.3,2.6,5c-2,1.2-3.9,2.3-5.8,3.4c-1.9,1.1-3.9,2.3-5.7,3.5
			c-1.9,1.3-2.2,2.2-1.4,4.4c0.8,1.9,1.8,3.7,2.7,5.6c0.7,1.5,1.5,3.1,2.2,4.7c0.5,1.1,1.2,1.7,2.5,1.7c4.7,0.1,9.4,0.2,14.1,0.3
			c0.9,0,1.3,0.3,1.6,1.2c0.7,2,1.5,3.9,2.3,6c-0.4,0.1-0.7,0.1-1,0.1c-7.4-0.1-14.7-0.7-22-1.8c-0.9-0.1-1.5-0.6-2-1.3
			c-4-6.7-7.2-13.7-9.3-21.2c-0.3-1-0.2-1.4,0.8-1.9C362.5,267.9,368.5,264.7,374.7,261.4z"/>
		<path class="st7" d="M262.5,408c0,3.1,0,6,0,8.9c-0.4,0-0.8,0.1-1.2,0.1c-10.7,0-21.4,0-32,0c-1.4,0-2.4-0.7-2.7-2
			c-0.7-2.9-1.4-5.7-2.1-8.6c0-0.2,0-0.4,0-0.7C237.1,407.4,249.7,408.1,262.5,408z"/>
		<path class="st1" d="M288.7,442.2c0.1-2.6,0.8-5.7,2.9-7.8c2.3-2.4,5.3-3.8,8.9-3.4c6.1,0.8,9.3,5.6,8.1,12.1
			c-0.9,4.8-4.5,8.6-8.9,9.2C293.8,453.2,288.6,448.7,288.7,442.2z"/>
		<path class="st2" d="M293.5,162.3c0.3-1.5,0.7-2.8,0.8-4.2c0.1-1.8,0-3.6,0-5.3c0-0.6,0.1-1.2,0.3-1.7c1.7-3.4,3.2-6.8,5.2-10
			c2-3.2,4.6-6.1,8.4-7.5c2-0.8,3.6,0.1,4.6,2.1c1.1,2.3,1.1,4.8,1,7.3c-0.4,6-2.4,11.4-6.9,15.6C303.1,162,298.7,163.3,293.5,162.3
			z M300.2,158.3c1.5-0.5,2.4-1.6,2.7-3c0.6-2.7-0.9-4.5-2.9-6c0.3-0.4,0.5-0.7,0.7-1c1.5-2.6,2.9-5.1,4.3-7.7
			c0.3-0.5,0.2-1.1,0.3-1.7c-0.1,0-0.3-0.1-0.4-0.1c-0.3,0.3-0.6,0.6-0.8,0.9c-2,2.7-4,5.4-6,8.1c-1.3,1.7-1.2,2.4,0.5,3.7
			c1.4,1.1,2.1,2.3,1.8,4.1C300.2,156.4,300.3,157.3,300.2,158.3z"/>
		<path class="st3" d="M306.4,430.3c-1.8-0.5-3.8-1.1-5.9-1.5c-1.7-0.3-3.4,0.3-5.2,0.7c-3.7,0.8-5.2,3.6-6.9,6.3
			c-1.9,3.1-2.5,6.6-1.6,10.2c1.1,4.4,4,7.1,8.2,8.3c4.3,1.3,8.2,0.5,11.4-2.7c4.5-4.4,5.8-10.4,3.4-16.3c-0.1-0.2-0.1-0.4-0.1-0.6
			c1.6,2.3,2.4,4.9,2.8,7.7c1.3,9.2-4.9,17.6-14.1,19c-6.7,1-12.7-2.4-15.3-8.9c-3.2-7.8-0.9-17.5,5.6-23c0.4-0.4,0.9-0.8,1.4-0.9
			c2.9-0.5,5.9-1.2,8.8-1.4C301.9,427,304.5,428.4,306.4,430.3z"/>
		<path class="st4" d="M197.9,400.2c2.8,1.1,5.4,2.5,8.2,3.1c3.9,0.9,8,1.2,11.9,1.8c1.1,0.1,2.2,0.2,3.2,0.3
			c0.3,0.1,0.8,0.4,0.8,0.7c0.7,3.5,1.3,7,1.9,10.5c0,0.1,0,0.2,0,0.4c-0.1,0-0.2,0.1-0.3,0.1c-7.3,0-14.6,0.4-21.7-1.1
			c-0.8-0.2-1.6-0.2-2.4-0.3c-1.2-0.2-1.9-1.1-1.7-2.4c0.1-0.7,0.1-1.4,0.1-2.1c0-3.5-0.1-6.9-0.2-10.4
			C197.9,400.5,197.9,400.3,197.9,400.2z"/>
		<path class="st1" d="M252.7,232.3c-0.9-0.1-1.9-0.2-2.8-0.4c-5.3-1.1-8.7-6.5-7.4-11.6c0.1-0.5,0.6-1.2,1.1-1.4
			c2.1-0.7,4.3-1.5,6.4-1.7c1.2-0.1,2.5,0.7,3.7,1.2c1,0.4,1.8,0.4,2.8-0.2c1.6-1,3.3-1.1,4.8,0.2c1.8,1.5,3.6,3.2,5.3,4.9
			c0.2,0.2,0.1,0.9,0,1.3c-1.9,4.8-5.9,6.6-10.6,7.4C254.9,232.1,253.8,232.2,252.7,232.3z"/>
		<path class="st1" d="M386.2,287.4c-1,0-1.6,0-2.2,0c-3.8-0.1-7.6-0.1-11.4-0.3c-0.4,0-1-0.3-1.1-0.6c-1.5-2.9-3-5.9-4.4-8.9
			c-0.8-1.8-0.8-1.8,0.8-2.8c3.4-2.1,6.8-4.2,10.5-6.4C380.9,274.7,383.5,280.9,386.2,287.4z"/>
		<path class="st4" d="M218.5,420.1c-7.3,11.9-14.5,23.5-21.9,35.4c0-0.6,0-1,0-1.3c0.1-3.8,0.2-7.7,0.4-11.5c0-0.6,0.2-1.4,0.6-1.9
			c4.3-6.6,8.7-13.1,13-19.7c0.5-0.8,1.1-1,2-1C214.4,420.1,216.3,420.1,218.5,420.1z"/>
		<path class="st3" d="M295.6,464.3c-4.7,2-9.5,2.2-14.3,0.3c-8-3.2-12.5-10.5-11.4-18.6c0.6-4.3,2.7-7.8,6.5-9.9
			c1.8-1,3.8-1.8,6-2.8c-0.8,2-1.5,3.7-2.2,5.3c-0.1,0.3-0.4,0.5-0.7,0.7c-9,6.5-5.4,15.9,0.8,19.9c0.8,0.5,1.7,0.9,2.6,1.3
			c2.1,0.8,4.3,1,6.3,2.1C291.3,463.4,293.5,463.7,295.6,464.3z"/>
		<path class="st1" d="M231.2,210.2c-10.3-0.2-20.2,2-30.5,2.9c0.8-1.9,1.6-3.5,2.1-5.2c0.8-2.6,2.3-3.5,5.1-3.4
			c4.8,0.3,9.7,0,14.5,0.1c3,0.1,6,0.4,9.2,0.7C231.5,207,231.3,208.5,231.2,210.2z"/>
		<path class="st7" d="M249.7,87.5c-1.9-2.8-3.8-5.5-5.6-8.2c-0.1-0.2-0.3-0.5-0.2-0.8c0.7-2.2,1.4-4.5,2.2-6.8
			c1.8,1.3,3.4,0.6,5.1,0c0.3-0.1,0.9-0.2,1.1,0c1.9,1.6,4.1,2.2,6.5,1.8c0.3,0,0.7,0,1.1,0C259.7,79.3,255.3,85.3,249.7,87.5z"/>
		<path class="st0" d="M234.5,220.7c-0.2-2.3-0.5-4.7-0.6-7c-0.2-4.5,0.2-9,1.5-13.4c0.6-1.9,0.7-2,2.5-1.3c0.9,0.4,1.9,1,2.5,1.8
			c3,3.5,5.9,7.1,8.8,10.6c0.5,0.6,1.2,1,1.7,1.5c0.5,0.5,1.1,1,1.8,1.7c-1.4,0.2-2.2-0.1-3.1-0.7c-1.6-1.1-3.2-2.1-5-2.8
			c-1.5-0.7-3,0-4,1.2c-1.7,2-3.1,4.2-4.7,6.4c-0.5,0.7-0.8,1.4-1.2,2.2C234.8,220.7,234.7,220.7,234.5,220.7z"/>
		<path class="st3" d="M195.4,401c0,4.3,0,8.6,0,13.2c-2.9,0-5.9,0-8.7,0c-1.1-4.1-2.1-8.2-3.2-12.3c-0.2-0.8-0.1-1.1,0.7-1.2
			C187.9,400.2,191.7,399.8,195.4,401z"/>
		<path class="st1" d="M248.3,88.6c-3.7-0.2-7.6-0.5-11.3-0.7c-0.7-2.9-1.3-5.8-1.9-8.6c-0.1-0.3,0.1-0.7,0.3-1
			c2.4-2.9,5.3-5.1,8.9-7.3c-0.5,1.5-0.8,2.7-1.3,3.7c-1.3,2.8-1.3,5.2,0.9,7.6C245.4,84.3,246.8,86.6,248.3,88.6z"/>
		<path class="st1" d="M198,418.5c3.6,0.5,7,1,10.3,1.4c-3.7,5.7-7.3,11.3-11,17c-0.1,0-0.2,0-0.2,0
			C197.4,430.8,197.7,424.7,198,418.5z"/>
		<path class="st0" d="M335.9,410.1c-1.2-4.3-2.8-25.1-1.8-26.3c0.2,0.6,0.4,1,0.5,1.5c1.7,6.1,3.4,12.3,5.3,18.3
			c0.6,2,0.3,3.2-1.3,4.3C337.7,408.5,336.9,409.3,335.9,410.1z"/>
		<path class="st1" d="M291.6,425.5c-0.1-2-0.2-4-0.4-6c3.9-0.1,7.8-0.2,11.7-0.4c0.3,2.2,0.6,4.3,0.9,6.7
			C299.7,423.9,295.7,424.9,291.6,425.5z"/>
		<path class="st5" d="M201.7,204.8c-1.2,2.7-2.5,5.4-3.8,8.2c-1.7,0.1-3.8,0.2-5.9,0.3c0-0.3,0-0.6,0.1-1c0.4-2.2,0.8-4.4,1.2-6.6
			c0.1-0.6,0.3-0.9,1-0.9C196.7,204.8,199.2,204.8,201.7,204.8z"/>
		<path class="st3" d="M282.9,419.7c2.2,0,4.3,0,6.2,0c0,1.7-0.1,3.5,0,5.3c0.1,1.4-0.4,2.2-1.5,2.8c-0.6,0.3-1.3,0.7-1.8,1.2
			c-0.4,0.3-0.7,0.8-1,1.2c-0.3,0.3-0.6,0.5-0.9,0.8c-0.1-0.1-0.2-0.1-0.3-0.2C283.4,427.1,283.2,423.5,282.9,419.7z"/>
		<path class="st8" d="M238.7,124.6c-2.7,3.6-2.5,7-0.1,10.4c-2.7-1.6-5-3.6-5.7-6.9c-0.4-2.1,1.1-3.8,3.3-3.7
			C236.9,124.3,237.7,124.5,238.7,124.6z"/>
		<path class="st1" d="M282.3,456.8c-5.4-2.1-7.3-10.1-3.1-13.9c0.2,2.3,0.2,4.8,0.7,7.2C280.5,452.4,281.5,454.6,282.3,456.8z"/>
		<path class="st9" d="M240.4,126.4c1.1,2.1,2.2,4.2,3.3,6.4c0.1,0.2-0.1,0.9-0.3,1c-0.5,0.2-1.2,0.4-1.6,0.3
			c-1.6-0.6-2.8-2.7-2.6-4.6c0.1-1,0.5-2,0.8-3C240.1,126.4,240.2,126.4,240.4,126.4z"/>
		<path class="st1" d="M238.9,554.3c0,0.4-0.1,0.8-0.1,1.3c-0.7-0.5-1.3-0.8-1.9-1.2c-0.6-0.4-1.1-0.7-1.6-1.2
			C236.5,553.5,237.6,553.9,238.9,554.3z"/>
		<path d="M306.5,260.6c-0.1,3.7-0.7,7.3-1.9,10.7c-1.4,4-3,8-4.6,11.9c-0.2,0.6-0.7,1.1-1.2,1.6c-2.6,2.3-5.4,4.5-8,6.9
			c-1.7,1.6-3.6,1.8-5.6,1.8c-1.4,0-2.1-1.2-2.7-2.3c-2.2-4-4.3-8-6.4-12.1c-0.3-0.5-0.5-1-0.6-1.6c-0.2-0.8-0.4-1.6-0.4-2.3
			c0.1-6,1-11.9,2.7-17.7c0.3-1,0.1-2.1,1-2.9c0.6-0.5,1-0.6,1.7-0.2c0.4,0.3,1,0.5,1.5,0.5c6.5,0.2,13.1,0.1,19.6,0.5
			C306.2,255.6,306.6,256.2,306.5,260.6z M302.6,269.5c-0.4-0.1-0.7-0.2-1-0.2c-7.5-1.4-15-1.4-22.6-1.8c-0.7,0-0.9,0.2-1,0.9
			c-0.1,1.8-0.4,3.5-0.4,5.3c0,1-0.2,2.2,0.2,3.1c2.2,4.6,4.7,9.1,7,13.6c0.2,0.3,0.6,0.7,0.9,0.7c1.1-0.2,2.3-0.3,3.3-1.2
			c2.6-2.3,5.3-4.5,7.9-6.8c0.4-0.3,0.8-0.8,1-1.3c1.1-2.7,2.2-5.4,3.3-8.1C301.7,272.3,302.1,270.9,302.6,269.5z M303.4,267.1
			c0.2-2.7,0.4-5.2,0.6-7.7c0.1-0.9-0.3-1.4-1.3-1.4c-7.2-0.4-14.4-0.8-21.6-1.1c-0.3,0-0.7,0.3-0.8,0.5c-0.7,2.6-1.2,5.2-1.9,7.9
			C286.8,265.3,295,265.3,303.4,267.1z"/>
		<path d="M354,334.6c5.9-1.8,11.8-3.6,17.6-5.4c0,0.1,0.1,0.2,0.1,0.3c-0.2,0.2-0.3,0.4-0.6,0.4c-5.1,2-10.3,4-15.5,5.8
			c-1.9,0.7-2.5,0.3-3.5-1.1c-1.1,1.8-2.1,3.6-3.2,5.3c-0.2,0.4-0.7,0.6-1.1,0.9c0-0.5-0.2-1.1,0-1.5c1.7-3.7,3.3-7.4,5.1-11.1
			c3-6,6.1-11.9,9.2-17.8c0.2-0.3,0.3-0.7,0.6-0.9c0.3-0.2,0.9-0.4,1.2-0.2c0.3,0.1,0.6,0.7,0.5,1c-0.1,0.5-0.3,1-0.6,1.5
			c-3,6.1-6,12.3-8.9,18.4c-0.6,1.2-0.9,2.5-1.4,3.8C353.7,334.3,353.9,334.4,354,334.6z"/>
		<path d="M248.8,175.5c-3.5,0.1-6.4-1.1-9.1-3.2c-1.5-1.1-2.2-2.7-2.7-4.4c-0.3-0.9-0.8-1.8-1.2-2.7c-0.2-0.4-0.6-0.8-0.6-1.1
			c0-0.5,0.1-1.2,0.4-1.4c0.3-0.2,1.3,0,1.4,0.3c1.1,2.4,3.1,2.2,5.2,2.1c7-0.4,14,0.1,21,0.7c1.2,0.1,2.4,0.2,3.6,0.1
			c0.7,0,1.3-0.4,2-0.5c0.5-0.1,1.2-0.3,1.4-0.1c0.3,0.3,0.4,1,0.4,1.4c-0.1,1.6-1.2,2.3-2.5,2.9c-5,2.5-10.3,4.5-15.8,5.5
			C251,175.4,249.9,175.4,248.8,175.5z M264.4,168.5c-7.8-0.8-15.6-1.2-23.5-0.8c0,1.6,0.5,2.7,2,3.4c1.8,0.9,3.7,1.5,5.8,1.4
			C254.2,172.4,259.3,170.4,264.4,168.5z"/>
		<path d="M270,141.9c-3.1-0.1-6.2-0.5-9.2-1.8c-1.1-0.5-2.2-1.1-3.1-1.8c-0.5-0.4-0.7-1.2-0.7-1.9c-0.1-0.9-0.1-1.9,0.1-2.9
			c0.6-4.5,4.3-7.2,9.1-6.5c5.5,0.8,9.7,3.7,12.7,8.3c1.5,2.3,1,3.9-1.5,5.2C275.2,141.6,272.7,141.8,270,141.9z M264.2,129.6
			c-3.2-0.1-6,3.8-4.9,6.6c0.1,0.3,0.3,0.6,0.6,0.7c2.1,1.3,4.5,1.8,7.3,2.2C263.9,136.4,262.9,133.3,264.2,129.6z M266.1,132.1
			c0.1,1.7,0.5,3,1.6,4.1c1.2,1.2,2.6,1.2,3.7,0c0.7-0.8,1-1.8,1.5-2.7c0.3-0.6,0.2-1.1-0.4-1.4c-1.3-0.7-2.6-1.5-4-2.1
			c-1.3-0.6-1.6-0.4-2.1,1C266.2,131.5,266.2,131.9,266.1,132.1z M271.4,139.1c0.1,0.1,0.1,0.3,0.2,0.4c1.6-0.4,3.2-0.8,4.7-1.3
			c0.3-0.1,0.8-0.8,0.7-0.9c-0.7-1.1-1.4-2.2-2.2-3.2C274.2,136.3,273.3,138,271.4,139.1z"/>
		<path d="M333.8,227.2c-2.5,0-4.1-1-4.9-3c-0.4-0.9-0.4-1.7,0.1-2.6c1.4-2,2.6-4.2,4.1-6.2c1.3-1.7,2.6-1.6,3.7,0.2
			c1.2,2,2.3,4.2,3.4,6.3c0.5,0.9,0.4,1.8-0.4,2.5C337.9,226,335.8,227,333.8,227.2z M334.9,216.7c-1.4,1.9-2.6,3.6-3.9,5.1
			c-0.6,0.7-0.5,1.4,0,1.9c0.6,0.5,1.3,1,2,1c1.7,0.2,3.1-0.7,4.4-1.6c0.2-0.1,0.4-0.7,0.2-0.9C336.9,220.6,336,218.8,334.9,216.7z"
			/>
		<path d="M322.3,220.4c-0.8,0-1.6,0.1-2.4,0c-1.6-0.1-2.3-1-2.1-2.7c0.1-0.5,0.3-1.1,0.4-1.6c0.2-0.7,0.3-1.4,0.5-2.2
			c0.1-0.2,0.1-0.5,0.2-0.7c1.5-2.7,6.2-3,7.6-0.2c0.8,1.5,1,3.2,1.2,4.9c0.1,1.4-0.6,2-2.1,2.3c-0.3,0.1-0.6,0.1-0.9,0.1
			C323.9,220.4,323.1,220.4,322.3,220.4C322.3,220.4,322.3,220.4,322.3,220.4z M319.7,217.9c0.1,0.2,0.3,0.3,0.4,0.5
			c1.6-0.1,3.2-0.1,4.8-0.3c0.2,0,0.7-0.5,0.6-0.7c-0.2-1.1-0.4-2.2-0.9-3.2c-0.6-1.2-2.1-1.3-2.9-0.3
			C320.9,215.1,320.4,216.6,319.7,217.9z"/>
		<path d="M300.2,158.3c0.1-1,0.1-1.9,0.2-2.7c0.3-1.8-0.4-3.1-1.8-4.1c-1.7-1.3-1.7-2-0.5-3.7c2-2.7,4-5.4,6-8.1
			c0.3-0.3,0.6-0.6,0.8-0.9c0.1,0,0.3,0.1,0.4,0.1c-0.1,0.6-0.1,1.2-0.3,1.7c-1.4,2.6-2.9,5.1-4.3,7.7c-0.2,0.3-0.5,0.7-0.7,1
			c1.9,1.6,3.5,3.3,2.9,6C302.6,156.7,301.7,157.8,300.2,158.3z"/>
		<path class="st7" d="M302.6,269.5c-0.5,1.4-0.9,2.8-1.4,4.1c-1,2.7-2.1,5.4-3.3,8.1c-0.2,0.5-0.6,0.9-1,1.3
			c-2.6,2.3-5.3,4.4-7.9,6.8c-1,0.9-2.2,1-3.3,1.2c-0.2,0-0.7-0.4-0.9-0.7c-2.4-4.5-4.8-9-7-13.6c-0.4-0.9-0.3-2-0.2-3.1
			c0.1-1.8,0.3-3.5,0.4-5.3c0-0.6,0.3-0.9,1-0.9c7.5,0.4,15.1,0.4,22.6,1.8C301.9,269.3,302.2,269.4,302.6,269.5z"/>
		<path class="st3" d="M303.4,267.1c-8.4-1.8-16.6-1.8-25-1.8c0.6-2.7,1.2-5.3,1.9-7.9c0.1-0.2,0.5-0.5,0.8-0.5
			c7.2,0.3,14.4,0.7,21.6,1.1c1,0,1.4,0.5,1.3,1.4C303.8,262,303.6,264.5,303.4,267.1z"/>
		<path class="st8" d="M264.4,168.5c-5.1,1.8-10.2,3.8-15.7,4c-2,0.1-3.9-0.5-5.8-1.4c-1.5-0.7-1.9-1.9-2-3.4
			C248.8,167.3,256.6,167.8,264.4,168.5z"/>
		<path class="st8" d="M264.2,129.6c-1.3,3.8-0.3,6.9,2.9,9.6c-2.8-0.4-5.1-0.9-7.3-2.2c-0.3-0.2-0.5-0.4-0.6-0.7
			C258.2,133.4,261.1,129.5,264.2,129.6z"/>
		<path class="st9" d="M266.1,132.1c0-0.2,0.1-0.7,0.2-1.1c0.5-1.3,0.8-1.5,2.1-1c1.4,0.6,2.7,1.4,4,2.1c0.6,0.3,0.8,0.8,0.4,1.4
			c-0.5,0.9-0.9,1.9-1.5,2.7c-1.1,1.2-2.5,1.2-3.7,0C266.6,135.2,266.2,133.8,266.1,132.1z"/>
		<path class="st8" d="M271.4,139.1c1.9-1.1,2.8-2.8,3.4-5c0.7,1.1,1.5,2.1,2.2,3.2c0.1,0.1-0.4,0.8-0.7,0.9
			c-1.6,0.5-3.2,0.9-4.7,1.3C271.6,139.4,271.5,139.3,271.4,139.1z"/>
		<path class="st7" d="M334.9,216.7c1.1,2.1,2,3.9,2.9,5.6c0.1,0.2,0,0.7-0.2,0.9c-1.3,0.9-2.8,1.8-4.4,1.6c-0.7-0.1-1.5-0.6-2-1
			c-0.6-0.5-0.6-1.2,0-1.9C332.3,220.2,333.4,218.6,334.9,216.7z"/>
		<path class="st7" d="M319.7,217.9c0.7-1.4,1.3-2.8,2.1-4c0.7-1.1,2.3-0.9,2.9,0.3c0.5,1,0.7,2.1,0.9,3.2c0,0.2-0.4,0.7-0.6,0.7
			c-1.6,0.2-3.2,0.2-4.8,0.3C319.9,218.2,319.8,218.1,319.7,217.9z"/>
	</g>
</g>
<g id="Слой2_xA0_Изображение_1_">
</g>
</svg>
