<?xml version="1.0" encoding="utf-8"?>
<!-- Generator: Adobe Illustrator 22.1.0, SVG Export Plug-In . SVG Version: 6.00 Build 0)  -->
<svg version="1.1" xmlns="http://www.w3.org/2000/svg" xmlns:xlink="http://www.w3.org/1999/xlink" x="0px" y="0px"
	 viewBox="0 0 552 768" style="enable-background:new 0 0 552 768;" xml:space="preserve">
<style type="text/css">
	.st0{fill:#257C5D;}
	.st1{fill:#5ABFA1;}
	.st2{fill:#5E3A2A;}
	.st3{fill:#FEBD85;}
	.st4{fill:#DDFFFF;}
	.st5{fill:#CACACA;}
	.st6{fill:#5D5D5D;}
	.st7{fill:#FFFFFF;}
</style>
<g id="Слой4_xA0_Изображение_1_">
	<g>
		<path d="M417.8,714.2c-0.9-7.9-4.5-13.8-12.2-16.7c-3.6-1.3-7.3-2.5-10.8-4c-3.2-1.3-6.2-3-9.2-4.5c-0.8-0.4-1.5-1.2-2.4-1.8
			c0.6-0.3,1-0.5,1.4-0.7c2.1-1.4,4.2-2.8,6.2-4.4c1.4-1.1,1.6-2.6,0.8-4.2c-0.3-0.7-0.6-1.5-0.8-2.3c-1.8-7.4-3.8-14.7-5.3-22.2
			c-3.3-16.6-6.4-33.2-9.4-49.9c-2-11.5-3.5-23-3.6-34.7c-0.1-9.3,0-18.6-0.1-27.8c0-2-0.3-4-0.7-5.9c-1-4.6-2.1-9.1-3.1-13.7
			c-4.1-18.4-6.9-37-8.7-55.8c-1.2-13-2.3-26-3.4-39.1c-1.2-15.2-2.4-30.5-3.7-45.7c-0.1-1.2,0.2-1.7,1.3-2.2
			c2.1-0.9,2.3-1.6,1.8-3.9c-0.6-2.7-1.1-5.3-1.3-8c-0.4-5.2-0.3-10.5-0.9-15.7c-1-9.2-2.2-18.3-3.4-27.5c-0.3-2.6-0.6-5.1-1-7.7
			c0.1,0,0.1-0.1,0.2-0.1c0.6,0.8,1.2,1.6,1.8,2.3c3.4,4.3,7,8.3,11.4,11.6c2.8,2,5.6,2.2,8.5,0.5c1.7-1,3.4-2.2,4.8-3.5
			c6-5.6,11.2-12,16-18.6c3.1-4.2,5.8-8.7,8.6-13.2c0.8-1.3,1.5-2.9,1.5-4.4c-0.1-3,0.6-5.5,2.5-7.8c1-1.2,0.6-2.4-0.8-3.1
			c-1.8-0.9-3.5-2-4.7-3.7c-0.3-0.4-0.6-1-0.7-1.5c-0.5-2.7-0.8-5.5-1.5-8.1c-0.9-3.5-0.7-6.9,0.5-10.2c1-2.9,1.8-5.8,2.7-8.7
			c0.5-1.5,1-3,1.3-4.5c0.5-2.2-0.2-3.3-2.3-4c-0.6-0.2-1.2-0.4-1.8-0.6c0.2-0.5,0.3-0.9,0.4-1.2c4.3-11.3,8.5-22.5,12.8-33.8
			c1.7-4.4,3.3-8.8,5-13.2c0.7-1.7,0.1-2.7-1.7-3.1c-0.2-0.1-0.5-0.1-0.7-0.1c-18.6-3.6-37.2-7.2-55.8-10.7
			c-3.4-0.6-6.8-1.3-10.1-1.9c-1.6-0.3-3.2,0-3.5,2.2c-0.2,1.2-0.7,2.4-1.1,3.6c-1.4-0.4-2.5-0.8-3.7-1.1
			c-7.4-2.2-14.8-4.2-22.1-6.5c-3.1-1-6-2.5-8.9-3.8c-0.4-0.2-0.9-0.9-0.9-1.3c-0.2-4.7,0-9.4,0.9-14.1c0.3-1.5,0.8-2.6,2.1-3.4
			c4-2.6,6.4-6.4,7.8-10.9c2.3-7.4,4.6-14.7,7.1-22c0.6-1.9,0.6-3.7,0.2-5.7c-0.6-3-0.9-6,0.2-9c0.1-0.4,0.4-0.9,0.7-1
			c1.4-0.8,1.9-2.1,1.9-3.6c0-3.3-0.1-6.6-0.2-9.8c0-1.7-0.2-3.4-0.3-5.1c0.5,0,1,0,1.5,0c0.9,0,1.5-0.4,1.6-1.3
			c0.4-2.6,0.8-5.3,1.1-8c0.1-1-0.2-1.8-1.1-2.3c-0.3-0.2-0.5-0.6-0.6-1c-0.1-0.4,0-0.9-0.1-1.3c-0.8-5.7-2.3-11.1-4.5-16.5
			c-3.4-8.3-9.4-13.1-18-15.1c-6.5-1.5-13.1-2.2-19.7-2.1c-9.4,0.2-18.5,2-27,6.3c-5.8,2.9-9.4,7.4-11.1,13.6
			c-1.8,6.2-2.2,12.5-1.2,18.9c0.1,0.8,0.3,1.6,0.3,2.4c0,1.3-0.2,2.7,0,4c0.4,3.1,0.5,6.3,0.1,9.4c-0.3,2.7,0,5.4,0.1,8.1
			c0,0.3,0,0.7,0,0.7c-1.2,0.5-2.5,0.8-3.3,1.5c-0.8,0.7-1.3,2-1.5,3.1c-0.9,6-0.5,12,1.7,17.7c1.6,4.1,6.1,7,10.5,6.8
			c0.8,0,1,0.3,1.2,1c0.4,1.8,0.8,3.5,1.2,5.3c0.6,2.5,0.9,5.1,2.9,6.9c2.6,2.4,3.3,5.3,3.5,8.6c0.3,3.9,1,7.9,0.3,11.8
			c-0.4,2.5-1.1,5.2-3.1,6.9c-4,3.4-8.2,6.7-13,8.9c-8.6,3.9-17.2,7.4-26.7,8c-0.9,0.1-1.8,0.5-2.5,1c-3.1,2.1-6.2,4.1-9.1,6.5
			c-6.2,5.1-12.3,10.3-18.4,15.5c-3.2,2.7-6.7,5.2-9.4,8.4c-2.5,2.9-5.2,4.5-9,4.7c-0.2,0-0.5,0.1-0.7,0.1c-2.9,0.5-3.7,1.4-3.7,4.4
			c0,0.4,0,0.8,0,1.2c0.1,2,0.2,4.1,0.2,6.1c0,2.2-1,3.9-2.8,5.1c-0.8,0.5-1.6,0.8-2.4,1.3c-2.3,1.3-4.5,2.7-6.7,4.1
			c-1.5,1-2.1,2.6-1.7,4.3c0.3,1.3,1,2.5,1.6,3.7c0.3,0.6,0.8,1,1.1,1.4c-2.9,4.2-5.8,8.2-8.5,12.3c-5.8,8.6-10.7,17.8-13.9,27.7
			c-1.3,4.1-2.6,8.2-2.6,12.5c0,1.3,0.4,2.4,1.4,3.1c0.9,0.7,1.8,1.5,2.8,2c3.2,1.8,6.3,3.8,9.6,5.2c14.3,6.2,28.7,12.5,43.5,17.5
			c0.4,0.1,0.9,0.3,1.3,0.5c-0.1,0.4-0.2,0.6-0.3,0.8c-0.5,1.6-0.3,2.3,1.2,3c1.2,0.5,2.4,1,3.6,1.2c6.2,1,12.1,3.3,18.1,5.2
			c0.2,0.1,0.4,0.2,0.6,0.3c2.1,1.1,2.3,3.2,0.3,4.9c-2.3,1.9-4.9,3.2-7.9,3.4c-1.2,0.1-2.4,0.3-3.5,0.7c-3.2,0.9-4.7,3.2-4.1,6.2
			c-0.4,0.2-0.8,0.4-1.1,0.7c-2.1,1.4-2.8,4-1.7,6.2c0.9,1.7,2.3,2.8,4.2,3.3c0.4,0.1,1,0.4,1.2,0.8c0.9,1.8,2.3,2.8,4.1,3.4
			c2.1,0.7,4.2,0.7,6.4,0.4c6.5-1,12.6-2.9,18.5-5.8c0.4-0.2,0.8-0.3,1.3-0.6c0,0.7-0.1,1.1-0.1,1.6c-0.3,3.8-0.6,7.6-0.9,11.4
			c-0.2,1.6,0.4,2.6,1.8,3.3c1,0.5,1.9,1.1,2.9,1.5c0.8,0.4,1,0.9,0.9,1.8c-0.4,4.5-1,9.1-1.2,13.6c-0.6,16.6-1.4,33.2-1.6,49.8
			c-0.3,27.3-0.2,54.6-0.4,81.8c0,8.6-0.4,17.1-3.5,25.3c-1,2.5-0.7,5.1,0.4,7.5c0.8,1.7,1.7,3.3,2.7,4.8c0.8,1.2,1,2.2,0.6,3.6
			c-0.7,2.2-1.5,4.4-1.8,6.7c-0.8,7.4-0.7,14.8-0.4,22.2c0.4,15,0.9,29.9,1.2,44.9c0.2,7.8,0,15.7-1.3,23.5
			c-0.8,5.2-1.9,10.3-2.9,15.4c-0.4,1.8,0,2.5,1.9,2.9c0.1,0,0.2,0.1,0.3,0.1c0,0.1,0,0.2,0,0.3c-2.6,0.4-5.1,0.9-7.7,1.2
			c-10.6,1.4-20,9.8-22.4,20.1c-0.6,2.6-0.1,4,2.3,5.1c1.8,0.8,3.8,1.5,5.8,1.9c4.9,1,10,0.8,15,0.7c13-0.1,25.8-1.8,38.3-5.3
			c4.8-1.3,9.5-2.8,13.6-5.8c4.7-3.4,8.1-7.6,8.3-13.8c0.1-1.7,0-3.4,0-5.5c0.7,0.5,1.3,0.6,1.6,1c0.8,1.2,1.9,1.5,2.8,0.3
			c0.6-0.8,1.1-1.9,1.2-2.9c0.5-4,0.9-7.9,1.1-11.9c0.4-8.1,1-16.1,1-24.2c0-8.3-0.6-16.7-0.9-25.1c-0.4-10.6-0.6-21.2-1.1-31.8
			c-0.2-5.7-0.6-11.3-1.1-17c-0.5-5.3-1.2-10.6-1.8-16c-0.2-1.9,0.2-3.6,1.3-5.1c0.6-0.8,1.1-1.7,1.6-2.7c0.7-1.4,0.6-2.7-0.3-4
			c-0.7-1-1.4-2-2-3c-1-1.5-1.2-3.1-0.7-4.8c0.6-1.9,1.1-3.9,1.4-5.8c1.4-7.7,2.6-15.5,4-23.2c2.4-13.4,4.3-26.9,5.7-40.5
			c0.4-3.6,0.6-7.3,0.9-11c0.2,0.2,0.3,0.5,0.4,0.8c3.3,14.5,6.7,28.9,10,43.4c1.5,6.7,2.7,13.5,4.2,20.2c0.4,1.7,0.6,3.2-0.5,4.7
			c-0.4,0.5-0.6,1.1-0.8,1.7c-0.9,2.2-0.5,3.7,1.4,5.2c1,0.8,2,1.6,3,2.3c0.6,0.4,0.7,0.9,0.5,1.6c-0.6,2.3-1.2,4.7-1.4,7
			c-0.4,3.2-0.4,6.4-0.6,9.6c-0.5,9.4-1.2,18.8-1.5,28.3c-0.3,10,0.5,20.1,1.3,30.1c1,12.2,2.5,24.3,4.5,36.4
			c1.2,7.2,2.4,14.4,3.5,21.7c0.4,2.7,0.6,5.5,0.9,8.2c0.2,1.6,1,2.7,2.5,3.2c0.5,0.2,1,0.4,1.5,0.6c2.8,0.9,5.6,1.8,8.5,2.8
			c0,0.4,0,0.8,0,1.2c0.1,2.6,0.1,5.2,0.2,7.8c0.2,5.6,2.5,10,6.9,13.5c5.8,4.6,12,8.8,18.6,12.3c9.2,4.8,19.1,7.5,29.1,9.8
			c6.2,1.4,12.3,0.5,18.1-2.3c3.8-1.9,6.3-4.9,6.9-9.1C417.9,719,418,716.5,417.8,714.2z M392.3,695.9c3.8,1.5,7.6,2.8,11.5,4.3
			c3.8,1.4,7.1,3.5,8.9,7.4c0.8,1.7,1.3,3.6,1.9,5.3c-3,0-5.8-0.2-8.6,0c-3.8,0.3-7.6,0.8-11.3,1.6c-4.5,0.9-8.9,0.5-13.3-0.6
			c-13.2-3.4-25.8-8.1-37.8-14.6c-1.9-1-2.9-2.1-2.7-4.3c0.1-2,0-4.1,0-6.2c1.6,0.2,3.1,0.6,4.6,0.7c10.5,1.1,21,1.3,31.4-0.7
			c2.2-0.4,3.7-0.3,5.3,1.4C385.1,692.9,388.7,694.5,392.3,695.9z M350.8,352.7c0.6,5.1,0.5,10.2,0.8,15.3c0.2,2.2,0.6,4.4,1,6.6
			c0.2,0.8,0,1.2-0.7,1.3c-2.7,0.5-5.4,1.2-8.1,1.5c-8.7,1.1-17.5,1-26.1-0.8c-2.1-0.4-4.1-1.2-6.2-1.8c-0.4-0.1-0.7-0.3-1.2-0.6
			c1.6-0.8,3-1.4,4.3-2.2c1.7-1.1,3.4-2.2,5-3.4c1-0.7,1.2-1.7,1.1-3c-0.3-3.3-0.6-6.5-0.6-9.8c0.1-15.8,0.2-31.6,0.3-47.4
			c0-0.6,0-1.2,0-2c2.1,0.2,4,0.3,5.9,0.4c5.8,0.5,11.6,1,17.3,1.4c1.2,0.1,1.6,0.6,1.7,1.6C347.3,324.2,349.2,338.4,350.8,352.7z
			 M399.7,291.7c-1.8,3.2-3.6,6.5-5.7,9.6c-5.4,7.9-11.5,15.3-18.2,22.1c-1.5,1.5-3.3,2.9-5.1,4.1c-2.1,1.4-4.2,1.3-6.3-0.2
			c-4.5-3.4-8.2-7.6-11.7-12c-1.7-2.1-3.2-4.2-5-6.5c0.6,0,0.9,0,1.2,0c6,0.5,12,1,17.9,1.5c0.4,0,0.7,0.1,1,0.3
			c1.5,0.6,2.2,0.3,2.8-1.1c1-2.6,2-5.3,3-8c0.7-1.8,1.3-3.6,2-5.4c0.1-0.3,0.4-0.7,0.7-0.6c0.3,0,0.7,0.3,1,0.5
			c0.2,0.1,0.2,0.4,0.3,0.7c1.1,2.5,2.6,3.2,5.2,2.5c0.7-0.2,1.4-0.5,2.1-0.8c5.2-2.3,10.3-5.1,14.6-8.8c0.1-0.1,0.2-0.1,0.7-0.3
			C400.1,290.2,400.1,291.1,399.7,291.7z M400.3,280.1c0.6,0.5,1.3,0.9,2,1.4c-3.1,6.1-8.5,9.3-14.2,12.2c-2.3,1.2-4.6,2.6-7,2.8
			c0.3-0.5,1.1-1.2,0.9-1.7c-0.1-0.6-1-0.9-1.5-1.4c-0.1-0.1-0.4-0.1-0.6-0.1c-1.4-0.4-3.4-0.5-4.1-1.4c-1.2-1.6-2-3.8-2.4-5.8
			c-0.8-4.2-0.5-8.4,0-12.7c0.7-5.1-1.4-7.6-6.1-9.1c-2.3-0.7-4.6-1.2-7-1.8c-1.9-0.4-2.7-1.5-2.2-3.8c1.6,0.3,3.2,0.5,4.8,0.9
			c3.6,1.1,7.2,2.3,10.8,3.5c1.9,0.6,3,2,3.4,4c0.1,0.7,0.3,1.4,0.7,2c0.2,0.4,0.8,0.6,1.1,0.8c0.2-0.4,0.7-0.8,0.7-1.1
			c-0.1-3-0.7-5.8-3.7-7.4c-0.4-0.2-0.7-0.7-0.8-1.2c-0.2-0.8-0.3-1.6-0.4-2.5c-0.3-2.4-1.7-3.7-4-4.4c-4.2-1.2-8.3-2.4-12.4-3.7
			c-0.8-0.2-1.6-0.6-2.3-1c-0.5-0.3-1-0.7-1.3-1.2c-0.5-0.8-0.2-1.3,0.7-1.4c0.4,0,0.8,0,1.2,0.1c6,1.4,11.9,2.6,17.8,4.2
			c4.7,1.3,4.6,1.5,5.7,6.2c0.2,1,0.5,2,0.8,3c0.1,0.3,0.5,0.5,0.8,0.7c0.3-0.3,0.8-0.7,0.7-0.9c-0.4-2.6-0.7-5.3-1.4-7.9
			c-0.2-0.9-1.5-1.7-2.5-2.1c-2.7-1.1-5.6-2-8.4-2.9c-2.2-0.6-4.4-1-6.6-1.6c-1.6-0.4-3.2-1-4.8-1.6c-0.9-0.3-1.9-0.6-2.8-1
			c-1.2-0.6-2.5-1.3-3.6-2c-0.4-0.3-0.7-0.9-1.1-1.6c0.7-0.1,1.2-0.2,1.6-0.3c9.2-0.2,18.2,1.3,26.7,5c3.5,1.5,3.5,1.6,2.7,5.3
			c-0.1,0.7-0.3,1.3-0.3,2c0,0.4,0.3,0.8,0.4,1.1c0.4-0.2,0.9-0.4,1.1-0.7c0.4-0.6,0.6-1.3,0.8-2c0.3-1,0.7-2,0.8-3
			c0.1-0.7,0.1-1.6-0.3-2c-0.7-0.9-0.9-1.9-1-3c-0.1-3.1-2-4.7-4.6-5.6c-3.9-1.4-7.9-2.5-11.9-3.8c-1.3-0.4-1.6-1-0.9-2.2
			c0.2-0.4,0.9-0.8,1.3-0.8c5.5,0.6,10.9,1.4,16,3.6c1.7,0.7,3.4,1.7,4.8,2.9c1.7,1.4,2.7,3.2,2.8,5.6c0.3,7.6,1.1,15.1,2.5,22.5
			c0.6,2.8,1.4,5.6,2,8.4c0.2,1,0.1,2.2,0.5,3.1C397.3,277.3,398.6,278.9,400.3,280.1z M398.3,241.1c0.8,0.2,0.9,0.7,0.7,1.5
			c-0.8,2.4-1.5,4.8-2.3,7.2c-0.4,1.3-0.8,2.7-1.2,4c-1-4.5-1.5-9,1.3-13.2C397.2,240.7,397.7,240.9,398.3,241.1z M346.7,178.6
			c0.3-1,0.7-1.3,1.8-1c20.7,4,41.3,8,62,11.9c0.5,0.1,1,0.2,1.6,0.3c-6.1,16.1-12.2,32.2-18.3,48.4c-2.3-5.1-6.6-7.2-11.3-8.8
			c-4.5-1.5-9.1-2.3-13.9-2.7c-2.9-0.3-5.7,3.3-4.5,6c0.3,0.7,1.1,1.2,1.9,1.5c4.1,1.5,8.3,2.8,12.4,4.2c0.9,0.3,1.7,0.9,2.4,1.5
			c0.4,0.4,0.5,1.1,0.8,1.7c-0.1,0.1-0.2,0.1-0.3,0.2c-0.3-0.1-0.5-0.2-0.8-0.3c-8.6-3.7-17.7-5.3-27-5.2c-0.5,0-1,0-1.6,0.1
			c-2.5,0.3-3.5,2.3-2.3,4.5c0.4,0.7,1,1.3,1.6,1.9c0.6,0.5,1.3,0.9,1.7,1.2c-0.3,1.3-0.8,2.5-0.6,3.6c0.1,1,0.9,1.9,1.6,2.7
			c0.6,0.6,1.5,1.1,2.4,1.4c4.4,1.4,8.8,2.8,13.3,4.1c2.4,0.7,3,1.3,2.8,4c-0.5-0.1-0.9-0.3-1.3-0.4c-3.8-1-7.6-2-11.4-2.9
			c-0.6-0.2-1.3-0.2-1.9-0.2c-1.1,0-1.8,0.5-2,1.7c-0.3,2.7,0.6,5,2.5,6.9c0.3,0.3,0.8,0.3,1.2,0.4c2.6,0.6,5.2,1.1,7.7,1.9
			c2.4,0.8,3.9,1.9,3.6,5c-0.2,2.5-0.5,4.9-0.5,7.4c0,2.4,0.1,4.7,0.5,7c0.2,1.4,0.8,2.9,1.5,4.1c0.7,1.2,0.7,2.3,0.3,3.6
			c-1.4,3.7-2.8,7.4-4.2,11.1c-0.4,1-0.8,1.3-1.9,1.2c-14-1.2-28.1-2.3-42.1-3.5c-5.4-0.4-10.8-0.9-16.3-1.3c-0.4,0-0.9-0.1-1.5-0.1
			c1.2-3.8,2.4-7.5,3.6-11.1C322.4,253.4,334.6,216,346.7,178.6z M310.4,269.1c-0.8-0.1-1.1-0.5-1-1.3c0.3-1.6,1.4-2.8,3.1-2.9
			c0.8-0.1,1.5-0.1,2.3-0.2C314.8,267.2,312.7,269.2,310.4,269.1z M342,182.3c-7.4,22.6-14.7,45.2-22.1,67.8c-0.1,0-0.1,0-0.2-0.1
			c0-0.4,0-0.9,0-1.3c0.4-7.3,0.7-14.5,1.1-21.8c0.4-7.4-0.4-14.8-1.2-22.1c-0.3-2.7-0.5-5.3-0.9-8c-0.2-2-1-3.6-3.2-4.2
			c-1.9-0.6-3.8-1.3-5.8-2c-3.6-1.2-7.1-2.3-10.6-3.6c-3.1-1.2-5.4-3.4-7.3-6.1c-0.3-0.4-0.5-0.8-0.8-1.4c6.5-0.9,12-3.2,15.2-9.4
			C317.5,176.1,330,178.4,342,182.3z M291,167.6c0-2,0-3.9,0-5.9c0-0.3,0.4-1,0.6-1c4.5-0.1,8.8-0.8,12.9-2.4c0,1.6,0,3.2,0,4.8
			c0,1.9,0.2,3.9,0.2,5.8c0,0.2-0.1,0.5-0.2,0.7c-3.2,4.8-7.8,7-13.6,7.6C291,173.9,291,170.8,291,167.6z M268.6,156
			c0-0.5-0.1-0.9-0.1-1.8c6.2,4.9,13.2,6.5,20.5,6.5c-0.1,5.6-0.3,11.1-0.4,17c-2.6-0.3-5.2-0.5-7.7-1c-4.4-0.9-8.4-2.6-11.9-5.5
			c-0.4-0.3-0.7-0.6-1.1-1c-1.9-1.9-2-2.2-0.9-4.7C268.4,162.5,268.8,159.3,268.6,156z M279.2,157c-3.4-0.8-6.3-2.6-9.3-4.4
			c-1.4-0.8-2-1.9-2.1-3.4c-0.1-1.1-0.3-2.2-0.6-3.5c11.9,7.8,24.4,11.3,38.3,7.3c0,0.3,0,0.4,0,0.4c-0.4,2.8-0.4,2.9-3.2,3.6
			C294.7,158.9,286.9,158.8,279.2,157z M322.7,108.3c0.4,4.4,0.6,4.5-3.1,7c-3.5,2.3-7,4.7-10.7,6.7c-1.9,1-4.2,1.2-6.2,1.7
			c-1-2.9-1.9-5.6-1.6-8.6c3.8,1.9,7.6,2,11.4,0.4c1.4-0.6,2.8-1.5,4-2.4c2.5-2,1.9-6.1-0.9-7.6c-1.7-0.9-3.6-0.8-5.4-0.4
			c-3.5,0.8-6.1,2.9-8.1,5.8c-0.3,0.5-0.5,0.9-1.3,1c-0.5,0.1-1,1-1.2,1.6c-0.9,2.9-0.5,5.8,0.4,8.6c0.2,0.5,0.3,1,0.5,1.8
			c-2.6,0.2-5,0.4-7.4,0.5c-3.2,0.1-6.3,0.1-9.5,0c-1.1,0-2.1-0.3-3.2-0.6c-8-2.7-15.2-6.8-22-11.9c1.4-0.9,1.8-2.3,2-3.8
			c0.7-5.6,1.4-11.2,1.9-16.8c0.2-2,0.7-3.5,2.4-4.7c1.1-0.7,2-1.1,3.2-1.2c6.2-0.6,12.3-1.1,18.5-1.7c0.9-0.1,1.8-0.1,2.7,0.1
			c4.2,0.6,8.2,0,12.1-1.6c1.2-0.5,2.5-0.8,3.7-0.8c6,0.1,12,0.3,18,0.5c-0.1,0.2-0.2,0.5-0.2,0.7c0.1,3,0.6,8.3,0.8,11.2
			c0.2,2.9,0.5,5.8-0.4,8.8C322.4,104.3,322.5,106.4,322.7,108.3z M309.7,108.1c-2.7,0.2-3.8,1.9-4.5,6.2c-0.8-0.2-1.7-0.4-2.5-0.7
			c1.6-3.9,6.5-6.9,10.4-6.6c1,0.1,2,0.4,2.4,1.5c0.4,1,0.3,2.1-0.3,2.9c-0.7-0.9-1.2-2.1-2.1-2.6
			C312.2,108.2,310.8,108,309.7,108.1z M311.6,113.7c-1.1,0.3-2.2,0.6-3.4,0.8c-1.1,0.1-1.3-0.4-1.2-1.3c0.3-2.1,2-3.5,4-3.2
			c0.9,0.1,1.7,0.3,1.9,1.3C313.1,112.2,312.5,113.4,311.6,113.7z M296.1,67.5c3.4,2.5,6.7,5,10.1,7.6c-2,2.1-4.4,3.6-7.2,4.6
			c-1.6-3.7-3.1-7.4-4.7-11.1C295,68.2,295.6,67.9,296.1,67.5z M293.1,66.8c-1.1-0.1-1.7-0.9-1.6-2.1c0.1-1.3,0.9-2.2,2.1-2.1
			c1.1,0.1,2.1,1.2,2,2.2C295.5,65.8,294.2,66.8,293.1,66.8z M296.3,66.9c0.7-0.3,1.1-0.6,1.4-0.5c3.9,0.9,7.8,1.9,11.7,2.8
			c0.1,0,0.2,0.1,0.5,0.3c-1,1.7-2,3.4-3,5.2C303.3,72,300,69.6,296.3,66.9z M297.8,65.8c-0.5-1.4-0.7-2.6-1.3-3.7
			c-0.4-0.6-1.3-0.9-2-1.4c-0.3-0.3-0.8-0.6-0.8-1c-0.4-3.3-0.8-6.7-1.2-10c0-0.1,0-0.2,0.1-0.4c0.1,0,0.2-0.1,0.3-0.1
			c4.3,0.7,8.5,1.5,12.1,4.2c3.5,2.5,4.7,6.2,5.3,10.2c0.2,1.5,0,3.1,0,4.8C305.8,67.6,301.7,66.7,297.8,65.8z M293.3,60.3
			c-0.9,0.7-1.8,1.3-2.9,2.1c-2.7-3-5.5-6-8.4-9.1c2.8-2.1,5.6-3.7,9-3.9c0.3,0,0.8,0.5,0.8,0.8C292.4,53.5,292.8,56.9,293.3,60.3z
			 M282.4,54.6c2.4,2.5,4.9,5.1,7.3,7.6c0.3,0.3,0.5,0.8,0.4,1.2c-0.7,3.1,0.3,4.6,3.4,5.2c0.3,0,0.6,0.3,0.7,0.5
			c1.5,3.5,2.9,7.1,4.3,10.7c-6.5,2.9-15.3,0.4-18.9-5.3c-4.2-6.6-3.3-16.3,2-20.8C281.9,54,282.1,54.3,282.4,54.6z M280.9,80.2
			c0.3,0.2,0.6,0.4,0.8,0.6c-10,1.3-20,2.7-30,4c-0.2-2.2-0.4-4.5-0.5-6.9c0-0.3,0.6-0.8,0.9-0.9c2.3-0.6,4.7-1.1,7-1.6
			c5-1.2,10-2.8,15.3-3.1c0.9-0.1,1.3,0.1,1.5,1C276.8,76.1,278.6,78.3,280.9,80.2z M251.5,88.3c0-0.4,0.4-0.9,0.7-1
			c3.1-0.5,6.2-0.8,9.4-1.3c-1.9,2.9-1.5,6-1.9,9c-0.6,4.2-1.1,8.4-1.7,12.6c-0.1,0.4-0.1,0.9-0.3,1.3c-0.2,0.3-0.7,0.6-1.1,0.6
			c-0.3,0-0.7-0.4-0.8-0.7c-0.7-3.1-1.5-6.1-3.5-8.6c-0.2-0.3-0.3-0.7-0.4-1.1C251.2,95.6,251.1,91.9,251.5,88.3z M325.8,94.9
			c-0.2-1.8-0.4-3.6-0.6-5.3c-0.2-1.7-0.7-5.7-1-7.4c0-0.2-0.1-0.3-0.2-0.5c0,0,0.1,0,0.1,0c0.5,0,0.9,0.1,1.5,0.2
			c0.1,4.4,0.3,8.6,0.4,12.9C326,94.9,325.9,94.9,325.8,94.9z M329.3,73.8c-0.2,1.8-0.4,3.6-0.5,5.5c-3.7-0.2-7.2-0.5-10.8-0.6
			c-3.6-0.1-7.1,0-11,0c0.4-0.4,0.6-0.7,0.9-0.9c1.9-1.8,3.4-3.9,4.4-6.4c0.3-0.7,0.6-0.9,1.3-0.9c5,0,9.9,0.8,14.7,1.9
			C329.1,72.6,329.4,73,329.3,73.8z M252.7,53.8c1.5-4.5,4.4-7.8,8.6-10.1c7.2-3.8,14.8-5.7,22.8-6.3c8.6-0.6,17.1,0,25.4,2.5
			c5.9,1.8,10.1,5.2,12.6,10.9c1.9,4.5,4,9,4.4,14c0.1,0.9,0.4,1.9,0.6,2.8c0.1,0.6,0.2,1.2,0.2,1.8c-4.7-0.6-9.3-1.1-14-1.7
			c0,0-0.1-0.2,0-0.4c0.4-3.8-0.5-7.3-2.1-10.7c-1.6-3.4-4.2-5.8-7.6-7.3c-4.5-2.1-9.4-2.8-14.3-2.1c-9.2,1.3-15.8,10.5-14.4,19.7
			c0.1,0.9,0.2,1.7,0.4,2.8c-8.4,0.1-16.1,3.4-24.2,4.6c0,0-0.1-0.1-0.1-0.1C250.2,67.2,250.4,60.4,252.7,53.8z M248.5,119.4
			c-0.8-2.1-1.4-4.3-1.6-6.5c-0.3-3.2-0.2-6.5-0.2-9.8c0-0.9,0.2-1.9,1.3-2.2c1.2-0.3,2.1,0.3,2.8,1.2c0.5,0.6,0.9,1.2,1.2,1.9
			c1.5,3.4,2.2,7,2.5,10.6c-0.7,0.3-1.4,0.6-2,0.9c-1.6,1.1-2.2,3.2-1.2,4.9c0.2,0.4,0.8,0.6,1.2,0.9c0.1-0.4,0.4-0.9,0.4-1.3
			c-0.1-2.1,0.1-2.6,2-3.2c0.6,2.7,1.3,5.3,1.9,8C253.6,125,249.6,122.5,248.5,119.4z M264.8,140c-1.7-1.7-2.6-3.7-3.2-6
			c-1.4-6.2-3.1-12.3-4.8-18.4c-0.1-0.5-0.3-1.1-0.5-1.9c0.9,0.6,1.5,1,2.1,1.4c6.2,4.5,12.9,8.2,20.2,10.7c1.9,0.6,4,1,6,1.1
			c7.4,0.2,14.8-0.2,22.2-1.8c3.3-0.7,5.9-2.7,8.7-4.4c2.6-1.6,5.1-3.5,7.9-5.5c-0.2,0.7-0.4,1.3-0.6,1.8c-2.4,7-4.8,13.9-7.1,20.9
			c-0.8,2.3-1.7,4.5-3.9,6.1c-1.8,1.3-3.2,3.2-4.9,4.7c-0.9,0.8-2,1.4-3.2,1.8c-7.4,2.1-14.8,1.7-22-0.5
			C275.3,147.9,269.6,144.7,264.8,140z M170.5,321.3c-6.5-2.7-13-5.1-19.4-8c-4.3-2-8.4-4.5-12.6-6.7c-1.2-0.6-1.6-1.5-1.5-2.9
			c0.4-4.7,1.9-9.1,3.5-13.4c2.6-7.1,6-13.9,10.1-20.3c3.3-5.1,6.8-10.2,10.2-15.2c0.1-0.2,0.3-0.3,0.4-0.5
			c12.8,7.2,30.5,18.3,32,20c-3,2.9-6,5.8-9,8.6c0.1,0.2,0.2,0.3,0.2,0.5c-0.3-0.3-0.5-0.6-0.8-1c-2.2-3-4.7-5.6-7.8-7.8
			c-4-2.8-8.3-3.7-13-2.8c-1.8,0.3-3.5,0.8-5.3,1.2c-0.4,0.1-0.8,0.3-1.2,0.8c0.4,0.1,0.7,0.2,1.1,0.2c2.2,0.1,4.3,0.4,6.5,0.2
			c6.2-0.5,10.8,2.3,14.7,6.6c1.7,1.9,3.2,4,4.6,6.2c3.8,6.2,8.8,11.2,13.8,16.4c2,2.1,4.1,4,6.2,6.2c-4.4,6.3-6.4,14-9.6,21.3
			C186,327.7,178.3,324.5,170.5,321.3z M197.1,263.2c-3.3-4.2-6.7-8.3-9.8-12.6c-3.2-4.4-6.1-8.9-9.1-13.4c-0.2-0.2-0.3-0.5-0.2-0.9
			c0.7,0.6,1.5,1.1,2.2,1.7c5.5,5.2,11,10.4,16.4,15.6c3.9,3.7,7.8,7.5,11.7,11.2c1.1,1,1,2.3,1.2,3.9c-5-0.6-9.1,0.5-11,5.5
			c-2.7-1.9-5.2-3.9-7.9-5.5c-4.9-2.9-9.2-6.4-13-10.5c-2.4-2.5-5-4.9-7.6-7.3c0.1-0.1,0.1-0.2,0.2-0.3c2.5,1.2,5.1,2.1,7.4,3.5
			c5.3,3.1,10.4,6.4,15.6,9.7c0.7,0.4,1.4,0.9,2.1,1.4c0.7,0.4,1.4,0.7,2.1,0C198,264.4,197.5,263.8,197.1,263.2z M212.3,268.6
			c-0.1-1.2-0.3-2.5-0.6-3.7c-0.1-0.6,0-1,0.6-1.3c4.7-2.1,9.3-4.2,14-6.4c0.1,0,0.2,0,0.5-0.1c0.6,1.7,1.2,3.4,1.9,5
			c1.5,3.6,3.1,7.1,4.6,10.7c0.3,0.6,0.4,1.4,0.5,2.1c2.2,13.1,2.6,26.4,2.7,39.7c0,3,0.1,6.1,0.1,9.1c0,0.4,0,0.8,0,1.2
			c-0.6,0-1.1,0-1.5,0c-8.2-0.8-15.1-4.2-20.9-9.9c-0.6-0.6-1.2-1.2-1.8-1.8c-1.2-1.2-2.6-2.4-2.9-4.3c-0.1-0.5-0.5-0.9-0.7-1.4
			c-1.3-1.9-2-1.9-3.7-0.3c-0.6-0.5-1.4-1-1.9-1.7c-4.3-4.7-8.7-9.5-13-14.3c-1.5-1.7-2.6-3.6-3.9-5.5c-0.5-0.7-0.2-1.2,0.4-1.7
			c3-2.7,5.9-5.5,9-8.4c0.6,0.9,1.1,1.7,1.7,2.4c0.4,0.4,1,1,1.4,1c0.5-0.1,1.1-0.7,1.4-1.2c0.6-1.1,0.9-2.4,1.5-3.5
			c1-1.9,2.6-3,4.9-2.8c1.1,0.1,2.2,0,3.2,0C211.6,271.4,212.5,270.5,212.3,268.6z M203.5,356.7c0.6-0.7,1.4-1.4,2.3-1.6
			c2.3-0.6,4.7-1,6.7-1.3c-1,1.2-2.3,2.6-3.5,4c-0.1,0.1-0.2,0.3-0.3,0.3c-1.7,0.1-3.3,0.2-5,0.1C203.5,358.3,203.2,357,203.5,356.7
			z M203.6,365.9c-0.2,0.8-0.6,0.9-1.2,0.5c-0.5-0.3-1-0.6-1.4-1c-0.7-0.7-1.2-1.6-0.7-2.5c0.4-0.7,1.2-1.2,2-1.6
			c0.5-0.3,1.2-0.2,1.9-0.2c1.4-0.1,2.8-0.2,4.2-0.3c0.2,0.5,0.4,1.1,0.7,1.9c-0.6,0.1-1.2,0.3-1.8,0.4
			C205.5,363.4,204.1,364,203.6,365.9z M218,369.9c-1.8,0.4-3.7,0.9-5.5,1.1c-1.4,0.1-2.9,0-4.2-0.4c-1.9-0.5-2.6-1.8-2.4-3.7
			c0.1-0.4,0.6-0.9,1-1.1c0.9-0.3,1.8-0.3,2.7-0.6c1-0.3,1.9-0.7,2.8-1c1.1-0.3,2.3-0.6,3.5-0.7c3.9-0.2,7.4-1.5,10.8-3.3
			c2.2-1.2,4.3-2.6,6.4-4c1.5-1,2.3-2.3,2.1-4.1c-0.4-3.5-0.8-6.9-1.2-10.3c0-0.2-0.1-0.5-0.2-0.7c-0.2-0.3-0.5-0.5-0.8-0.8
			c-0.2,0.3-0.6,0.6-0.6,0.9c-0.1,1.6,0,3.1,0,4.7c0,2.1,0.2,4.2,0.2,6.4c0,0.5-0.2,1.3-0.6,1.6c-4.5,3.1-9,6.1-14.6,6.9
			c-1.6,0.2-3.2,0.4-4.8,0.6c-1.5,0.2-2.2-0.7-1.5-2.1c0.8-1.6,2.1-2.7,3.7-3.3c1.9-0.7,3.8-1.6,5.6-2.3c2.3-0.9,3.5-2.7,3.5-5.1
			c0-1.8-0.1-3.7-0.5-5.4c-0.4-2.1-1.2-4.1-1.6-6.1c-0.2-1.2,0-2.5,0.4-3.7c0.4-1.5,1.1-3,1.6-4.4c-0.2-0.1-0.3-0.2-0.5-0.4
			c-0.3,0.4-0.6,0.8-0.9,1.2c-2.6,3.6-3.2,7.5-2.2,11.7c0.5,2.1,1,4.3,1.1,6.5c0.1,2.5-0.7,3.3-3.4,4c0.6-1.4,1.2-2.6,1.7-3.9
			c0.8-2.1,0.4-3.9-1.4-5.4c-0.9-0.7-1.9-1.3-3-1.7c-5.9-2.2-11.8-4.5-18.1-5.3c-0.4,0-0.7-0.2-1-0.3c-0.3-0.1-0.6-0.3-1.1-0.5
			c4-8.4,6-17.7,11.7-25.5c0.3,0.5,0.8,0.8,0.8,1.1c0.4,2.2,1.9,3.7,3.3,5.2c6,6.8,13.3,11.2,22.4,12.4c1,0.1,2.1,0.2,3.1,0.2
			c0.9,0,1.3,0.3,1.6,1c1.6,3.5,2.4,7.1,2.6,10.9c0.2,3.8,0.5,7.6,0.2,11.4c-0.3,2.9-1.2,5.8-2.2,8.5c-0.4,1.2-1.7,2.2-2.9,2.9
			C230.2,366.1,224.3,368.5,218,369.9z M236.5,380.9c-0.3-0.1-0.5-0.7-0.5-1c0.3-4.5,0.6-9,1.1-13.5c0-0.5,0.4-1.2,0.8-1.4
			c2.3-1.7,3.6-3.9,4.4-6.6c2.7-9.2,1.8-18.3-0.4-27.3c-0.2-0.7-0.4-1.4-0.7-2c-1.2-2-1.3-4.1-1.3-6.3c-0.1-8.2-0.2-16.3-0.6-24.5
			c-0.4-6.5-1.3-13-2-19.6c-0.2-2.2-0.7-4.3-1.1-6.5c0-0.3-0.1-0.5-0.2-0.8c-2.7-6.8-5.6-13.5-8.2-20.3c-3.2-8.2-6.1-16.4-9.2-24.6
			c-0.1-0.4-0.6-0.6-0.9-0.9c-0.2,0.4-0.6,0.8-0.5,1.2c0.1,1.2,0.3,2.4,0.7,3.5c2.5,7.6,5.1,15.2,7.6,22.7c0.2,0.5,0.3,0.9,0.5,1.5
			c-5.5,2.5-10.9,5-16.3,7.5c-0.4-0.8-0.8-1.7-1.2-2.5c-5.2-9.4-10.5-18.8-15.7-28.2c-1-1.9-2-3.7-3.1-5.5c-0.4-0.7-1-1.5-1.7-2
			c-0.3-0.3-1-0.1-1.5-0.2c0,0.5-0.2,1.1,0,1.5c6.4,11.3,12.8,22.5,19.1,33.8c0.2,0.3,0.3,0.6,0.5,0.9c-0.1,0.1-0.2,0.2-0.3,0.3
			c-0.3-0.4-0.5-0.8-0.8-1.1c-6.4-6.4-12.7-12.9-19.2-19.1c-2.8-2.7-6-4.9-9-7.4c-0.2-0.1-0.3-0.3-0.5-0.3c-0.6-0.1-1.3-0.3-1.6,0
			c-0.3,0.3-0.5,1.1-0.3,1.6c0.7,1.6,1.4,3.1,2.4,4.5c4.7,6.7,9.4,13.4,14.1,20.1c0.3,0.4,0.5,0.7,0.7,1.2c-0.2-0.1-0.5-0.2-0.7-0.4
			c-7.1-4.7-14.4-9.1-22.6-11.6c-0.6-0.2-1.1-0.6-1.6-0.7c-0.6-0.1-1.4-0.2-1.7,0.1c-0.6,0.6-0.1,1.3,0.4,1.7
			c3.2,2.9,6.3,5.9,9.5,8.8c1,0.9,2.1,1.8,3.1,2.9c-0.3-0.1-0.6-0.3-0.9-0.4c-3.9-2.3-8-4.5-11.8-6.9c-1.8-1.1-3.4-2.6-4.7-4.2
			c-1.5-1.8-1.3-3.1,0.6-4.4c1.8-1.2,3.8-2.1,5.7-3.3c1.3-0.8,2.7-1.5,3.9-2.5c2-1.7,2.7-4,2.7-6.6c0-2.3-0.1-4.6-0.2-7
			c-0.1-1,0.3-1.5,1.4-1.6c1.7-0.2,3.3-0.6,5-0.9c1.7-0.3,3.1-1.2,4.1-2.5c3.2-4,7.3-7.1,11.2-10.4c6.4-5.4,12.7-10.8,19.1-16
			c2.5-2,5.3-3.8,7.9-5.6c0.5-0.3,1.2-0.7,1.8-0.7c8.5-0.5,16.4-3.3,24.2-6.7c5-2.2,9.6-4.9,13.7-8.5c1.1-1,2.5-1.5,3.9-2.3
			c4.3,5.5,10.4,8.1,17.2,9.4c1.9,0.3,3.9,0.3,5.8,0.5c0.4,0,0.9,0.3,1,0.5c2,4.4,5.4,7.5,9.8,9.1c3.6,1.4,7.4,2.4,11.1,3.6
			c1.7,0.5,3.3,1.2,5,1.8c0.9,0.3,1.3,0.9,1.4,1.8c0.2,1.6,0.4,3.3,0.5,4.9c0.4,3.9,0.7,7.8,1.1,11.7c0.8,7.4,0.3,14.7-0.1,22.1
			c-0.3,5.6-0.5,11.2-0.7,16.8c0,0.7-0.1,1.4,0.1,2c0.8,3.1-0.4,5.9-1.5,8.8c-2.4-0.4-4.6-0.2-6.4,1.6c-0.4,0.4-0.9,0.9-1.2,1.5
			c-0.8,1.4-1.3,2.9-0.2,4.2c1.1,1.4,2.7,1.2,4.2,0.8c0.3-0.1,0.5-0.1,0.9-0.2c-0.1,0.5-0.2,0.9-0.4,1.3c-3.2,10-6.5,19.9-9.7,29.9
			c-0.8,2.4-0.2,3.2,2.3,3.4c3.7,0.3,7.3,0.6,11,0.9c1,0.1,1.2,0.4,1.2,1.4c-0.2,15.9-0.5,31.8-0.6,47.8c0,3.4,0.3,6.8,0.4,10.2
			c0,0.4-0.2,1-0.6,1.3c-1.3,0.9-2.5,1.9-3.9,2.5c-17.7,8.3-35.9,14.8-55.7,15.2c-4.6,0.1-9.3-0.2-13.9-0.8
			C241,383.3,238.7,381.9,236.5,380.9z M274.9,704.8c-3.9,2.7-8.3,4-12.8,5.2c-15.7,4.2-31.7,5.7-47.9,4.8c-2.5-0.1-4.9-0.9-7.3-1.6
			c-1.9-0.6-1.9-1-1.3-2.9c0.1-0.3,0.2-0.6,0.3-0.8c10.7,3.7,21.7,3.2,32.6,2c13.4-1.5,26.4-4.7,38.9-9.6c0.3-0.1,0.6-0.2,1-0.3
			c0.1,0.1,0.1,0.2,0.2,0.3C277.3,702.9,276.1,703.9,274.9,704.8z M281.9,696c-0.1,0.4-0.7,0.9-1.1,1.1c-10.1,4.4-20.5,7.4-31.2,9.6
			c-10.2,2-20.4,3.1-30.8,2.5c-3.6-0.2-7.2-1-10.8-1.6c-0.4-0.1-0.8-0.2-1.2-0.4c1-2.3,2.4-4.3,4-6.1c4.1-4.7,9.2-7.2,15.4-7.9
			c5.5-0.6,10.7-2.2,16-3.8c1.2-0.3,2.4-0.6,3.6-0.7c11.4-0.4,22.8-0.7,34.2-1c0.7,0,1.4,0,2.3,0C282.5,690.7,282.5,693.4,281.9,696
			z M288.1,550.3c0.2,0.2,0.1,0.7,0.1,1c0,0.2-0.1,0.4-0.3,0.5c-3.2,3.6-3.2,7.9-2.5,12.2c2.3,14.7,2.6,29.5,3,44.4
			c0.3,9.7,1,19.4,1.2,29.1c0.2,7.2,0,14.4-0.2,21.6c-0.1,5.8-0.4,11.6-0.7,17.4c-0.2,2.8-0.5,5.6-0.8,8.4
			c-10.9-0.8-21.5-0.1-32.2,0.1c-5.3,0.1-10.5,0.5-15.8,0.6c-2.1,0.1-4.3,0-6.6,0c0.8-4.1,1.5-7.8,2.2-11.6
			c1.4-7.7,1.9-15.6,1.8-23.4c-0.2-14.8-0.6-29.6-1.1-44.4c-0.3-8.6-0.7-17.2,0.2-25.8c0.2-2,0.9-4.1,1.6-6c0.9-2.6,0.8-4.9-1.1-7.1
			c-0.5-0.5-0.8-1.2-1.2-1.8c-1.6-2.8-2.2-5.6-0.8-8.7c0.3-0.8,0.6-1.7,0.9-2.7c0.3,0.6,0.5,1,0.6,1.4c2.3,6.5,4.6,13,7,19.5
			c0.6,1.7,1.4,3.4,2.2,5c1.4,2.7,3.7,3.8,6.8,3.5c4.3-0.5,8.3-2.1,12.1-4c4.7-2.2,9.2-4.6,13.2-7.9c0.5-0.4,0.9-0.9,1.4-1.3
			c0.1-0.1,0.1-0.3,0.2-0.4c0-0.1-0.1-0.1-0.1-0.2c-0.7,0.4-1.3,0.8-2,1.2c-5.6,3.5-11.2,6.9-17.3,9.2c-2.3,0.9-4.6,1.5-7,2
			c-3.2,0.6-4.7-0.3-6.1-3.2c-1.2-2.6-2.1-5.3-3-7.9c-1.7-4.8-3.3-9.6-5.1-14.7c0.5,0.4,0.9,0.6,1.2,0.9c3.9,3,8.1,5.5,13.1,6.5
			c6.5,1.3,12.6-0.3,18.1-3.7c5.3-3.3,9.7-7.6,13.5-12.5c0.2-0.3,0.4-0.5,0.6-0.8c0-0.1,0.1-0.1,0.3-0.1
			C286.5,547.9,287.3,549.1,288.1,550.3z M331,682.4c-1.8-0.7-2.8-1.5-2.9-3.6c-0.6-11.7-3.5-23.1-5.2-34.6
			c-1.8-12.5-3.3-25.1-4-37.8c-0.4-7.7-0.8-15.4-0.7-23.1c0.1-8.2,0.8-16.4,1.2-24.6c0.2-3.6,0.2-7.1,0.6-10.7
			c0.2-2.4,0.8-4.7,1.4-7c0.5-2,0.4-3-1.1-4.4c-1-0.8-2-1.6-3-2.4c-1.3-1-1.4-1.3-0.5-2.8c1.1,0.7,2.2,1.3,3.2,2
			c1.1,0.6,2.2,1.3,3,1.7c0,1.3-0.2,2.4,0,3.3c2.8,9.3,6.1,18.5,10.2,27.3c0.3,0.5,0.6,1.1,0.9,1.6c1.2,2.1,2.9,3.2,5.3,3.3
			c3.3,0,6.6,0,10,0c3.4,0,6.7-0.1,10.1-0.1c0.4,0,0.8,0,1.2-0.1c0.3-0.1,0.5-0.5,0.8-0.8c-0.3-0.2-0.5-0.6-0.8-0.7
			c-0.4-0.1-0.8-0.1-1.2-0.1c-5.7,0.1-11.4,0.2-17,0.4c-5.1,0.1-6.1-0.3-8-5.1c-3.2-8.3-6.2-16.6-9.2-25c-0.1-0.4-0.2-0.7-0.3-1.1
			c3.1,1.3,6.1,2.6,9.2,3.8c2.7,1,5.4,1.9,8.2,2.7c0.5,0.1,1,0.3,1.4,0.2c0.5-0.1,1.2-0.5,1.3-0.9c0.1-0.3-0.2-1-0.6-1.4
			c-0.3-0.4-0.9-0.5-1.4-0.7c-7.9-3.6-15.9-7.2-23.8-10.9c-0.6-0.3-1.2-0.5-2-0.9c0.2-0.5,0.4-0.9,0.6-1.3c0.8-1.1,0.8-2.3,0.5-3.6
			c-0.9-4.4-2-8.8-2.9-13.2c-3.6-17.6-8.1-35.1-12.7-52.5c-0.6-2.3-1.3-4.5-1.8-6.9c-0.3-1.4-0.5-2.8-0.5-4.3
			c0.1-9.2,0.2-18.4,0.3-27.6c0-1,0.3-1.5,1.1-2c8.9-5.4,17.7-10.9,26.6-16.3c1.5-0.9,3-1.9,4.4-2.9c0.5-0.3,0.9-0.8,1.3-1.2
			c0.1-0.2,0.2-0.6,0.1-0.7c-0.2-0.2-0.6-0.4-0.8-0.3c-0.8,0.3-1.7,0.5-2.4,1c-10.7,6.2-21.3,12.5-32,18.8c-1.1,0.6-1.4,1.6-1.4,2.7
			c0,3.6-0.1,7.1-0.2,10.7c-0.3,10.7-0.3,21.4-1.1,32c-0.9,11.6-2.4,23.1-4.1,34.7c-1.8,12.5-4.1,24.9-6.3,37.4
			c-0.3,1.9-1,3.7-1.3,5.6c-0.2,1.4-0.1,2.9-0.2,4.4c0,0.4,0,0.9-0.2,1.1c-5.2,5.9-10.7,11.4-18,14.6c-7.9,3.4-15.3,2.1-22.4-2.5
			c-2-1.3-3.9-2.7-5.8-4c-0.5-0.4-1.2-0.6-1.8-1c0.3-1.8,0.9-3.8,1-5.7c0.4-6.9,0.8-13.9,0.9-20.8c0.1-21.6-0.2-43.1,0-64.7
			c0.2-21.1,0.7-42.1,1.1-63.2c0.1-3.6,0.3-7.3,0.5-10.9c0-0.3,0.1-0.5,0.1-0.9c0.2,0,0.3-0.1,0.5,0c6.7,1.6,13.6,1.5,20.4,1.1
			c14.8-0.8,28.8-5,42.4-10.6c2.4-1,4.2-1.4,6.6,0.3c3.1,2.2,7.1,2.5,10.8,3.2c7.4,1.3,14.8,1.2,22.2,0.4c2.3-0.2,4.6-0.5,7.1-0.8
			c0.1,1.3,0.3,2.5,0.4,3.8c1.1,15.6,2.1,31.3,3.2,46.9c1.6,22.6,3.4,45.1,7.2,67.5c1.8,10.7,4.2,21.3,6.3,31.9
			c0.4,1.8,0.9,3.6,1.2,5.4c0.3,1.6,0.6,3.2,0.6,4.9c0.1,5.8,0.1,11.6,0,17.4c-0.3,15.9,1.1,31.6,3.9,47.2c2.9,16.4,6,32.7,9.2,49
			c1.5,7.5,3.5,14.8,5.3,22.3c0.1,0.5,0.2,1.1,0.5,1.6c0.7,1.2,0.3,2-0.8,2.8c-3.7,2.9-7.8,4.6-12.4,5.1
			C360,687.7,345.3,687.5,331,682.4z M414.7,718.8c-0.3,4.4-2.3,7.5-6.5,9.3c-4.9,2.1-10,2.7-15.2,1.5c-8.8-2.1-17.6-4.4-25.9-8.3
			c-7.7-3.6-14.8-8.3-21.3-13.8c-1.7-1.4-3.1-3.1-3.8-5.1c-0.1-0.3-0.2-0.6-0.3-0.9c0-0.1,0-0.2,0-0.3c2.7,1.5,5.4,3.1,8.2,4.5
			c10.7,5.4,21.9,9.3,33.6,12c4.5,1,9,0.6,13.4-0.4c5-1.1,10.1-1.6,15.3-1.2C414.9,716.2,414.9,716.2,414.7,718.8z"/>
		<path class="st0" d="M350.2,380.1c0.1,1.3,0.3,2.5,0.4,3.8c1.1,15.6,2.1,31.3,3.2,46.9c1.6,22.6,3.4,45.1,7.2,67.5
			c1.8,10.7,4.2,21.3,6.3,31.9c0.4,1.8,0.9,3.6,1.2,5.4c0.3,1.6,0.6,3.2,0.6,4.9c0.1,5.8,0.1,11.6,0,17.4
			c-0.3,15.9,1.1,31.6,3.9,47.2c2.9,16.4,6,32.7,9.2,49c1.5,7.5,3.5,14.8,5.3,22.3c0.1,0.5,0.2,1.1,0.5,1.6c0.7,1.2,0.3,2-0.8,2.8
			c-3.7,2.9-7.8,4.6-12.4,5.1c-14.8,1.9-29.5,1.7-43.8-3.4c-1.8-0.7-2.8-1.5-2.9-3.6c-0.6-11.7-3.5-23.1-5.2-34.6
			c-1.8-12.5-3.3-25.1-4-37.8c-0.4-7.7-0.8-15.4-0.7-23.1c0.1-8.2,0.8-16.4,1.2-24.6c0.2-3.6,0.2-7.1,0.6-10.7
			c0.2-2.4,0.8-4.7,1.4-7c0.5-2,0.4-3-1.1-4.4c-1-0.8-2-1.6-3-2.4c-1.3-1-1.4-1.3-0.5-2.8c1.1,0.7,2.2,1.3,3.2,2
			c1.1,0.6,2.2,1.3,3,1.7c0,1.3-0.2,2.4,0,3.3c2.8,9.3,6.1,18.5,10.2,27.3c0.3,0.5,0.6,1.1,0.9,1.6c1.2,2.1,2.9,3.2,5.3,3.3
			c3.3,0,6.6,0,10,0c3.4,0,6.7-0.1,10.1-0.1c0.4,0,0.8,0,1.2-0.1c0.3-0.1,0.5-0.5,0.8-0.8c-0.3-0.2-0.5-0.6-0.8-0.7
			c-0.4-0.1-0.8-0.1-1.2-0.1c-5.7,0.1-11.4,0.2-17,0.4c-5.1,0.1-6.1-0.3-8-5.1c-3.2-8.3-6.2-16.6-9.2-25c-0.1-0.4-0.2-0.7-0.3-1.1
			c3.1,1.3,6.1,2.6,9.2,3.8c2.7,1,5.4,1.9,8.2,2.7c0.5,0.1,1,0.3,1.4,0.2c0.5-0.1,1.2-0.5,1.3-0.9c0.1-0.3-0.2-1-0.6-1.4
			c-0.3-0.4-0.9-0.5-1.4-0.7c-7.9-3.6-15.9-7.2-23.8-10.9c-0.6-0.3-1.2-0.5-2-0.9c0.2-0.5,0.4-0.9,0.6-1.3c0.8-1.1,0.8-2.3,0.5-3.6
			c-0.9-4.4-2-8.8-2.9-13.2c-3.6-17.6-8.1-35.1-12.7-52.5c-0.6-2.3-1.3-4.5-1.8-6.9c-0.3-1.4-0.5-2.8-0.5-4.3
			c0.1-9.2,0.2-18.4,0.3-27.6c0-1,0.3-1.5,1.1-2c8.9-5.4,17.7-10.9,26.6-16.3c1.5-0.9,3-1.9,4.4-2.9c0.5-0.3,0.9-0.8,1.3-1.2
			c0.1-0.2,0.2-0.6,0.1-0.7c-0.2-0.2-0.6-0.4-0.8-0.3c-0.8,0.3-1.7,0.5-2.4,1c-10.7,6.2-21.3,12.5-32,18.8c-1.1,0.6-1.4,1.6-1.4,2.7
			c0,3.6-0.1,7.1-0.2,10.7c-0.3,10.7-0.3,21.4-1.1,32c-0.9,11.6-2.4,23.1-4.1,34.7c-1.8,12.5-4.1,24.9-6.3,37.4
			c-0.3,1.9-1,3.7-1.3,5.6c-0.2,1.4-0.1,2.9-0.2,4.4c0,0.4,0,0.9-0.2,1.1c-5.2,5.9-10.7,11.4-18,14.6c-7.9,3.4-15.3,2.1-22.4-2.5
			c-2-1.3-3.9-2.7-5.8-4c-0.5-0.4-1.2-0.6-1.8-1c0.3-1.8,0.9-3.8,1-5.7c0.4-6.9,0.8-13.9,0.9-20.8c0.1-21.6-0.2-43.1,0-64.7
			c0.2-21.1,0.7-42.1,1.1-63.2c0.1-3.6,0.3-7.3,0.5-10.9c0-0.3,0.1-0.5,0.1-0.9c0.2,0,0.3-0.1,0.5,0c6.7,1.6,13.6,1.5,20.4,1.1
			c14.8-0.8,28.8-5,42.4-10.6c2.4-1,4.2-1.4,6.6,0.3c3.1,2.2,7.1,2.5,10.8,3.2c7.4,1.3,14.8,1.2,22.2,0.4
			C345.4,380.6,347.7,380.4,350.2,380.1z"/>
		<path class="st1" d="M225.8,254.4c-5.5,2.5-10.9,5-16.3,7.5c-0.4-0.8-0.8-1.7-1.2-2.5c-5.2-9.4-10.5-18.8-15.7-28.2
			c-1-1.9-2-3.7-3.1-5.5c-0.4-0.7-1-1.5-1.7-2c-0.3-0.3-1-0.1-1.5-0.2c0,0.5-0.2,1.1,0,1.5c6.4,11.3,12.8,22.5,19.1,33.8
			c0.2,0.3,0.3,0.6,0.5,0.9c-0.1,0.1-0.2,0.2-0.3,0.3c-0.3-0.4-0.5-0.8-0.8-1.1c-6.4-6.4-12.7-12.9-19.2-19.1c-2.8-2.7-6-4.9-9-7.4
			c-0.2-0.1-0.3-0.3-0.5-0.3c-0.6-0.1-1.3-0.3-1.6,0c-0.3,0.3-0.5,1.1-0.3,1.6c0.7,1.6,1.4,3.1,2.4,4.5c4.7,6.7,9.4,13.4,14.1,20.1
			c0.3,0.4,0.5,0.7,0.7,1.2c-0.2-0.1-0.5-0.2-0.7-0.4c-7.1-4.7-14.4-9.1-22.6-11.6c-0.6-0.2-1.1-0.6-1.6-0.7
			c-0.6-0.1-1.4-0.2-1.7,0.1c-0.6,0.6-0.1,1.3,0.4,1.7c3.2,2.9,6.3,5.9,9.5,8.8c1,0.9,2.1,1.8,3.1,2.9c-0.3-0.1-0.6-0.3-0.9-0.4
			c-3.9-2.3-8-4.5-11.8-6.9c-1.8-1.1-3.4-2.6-4.7-4.2c-1.5-1.8-1.3-3.1,0.6-4.4c1.8-1.2,3.8-2.1,5.7-3.3c1.3-0.8,2.7-1.5,3.9-2.5
			c2-1.7,2.7-4,2.7-6.6c0-2.3-0.1-4.6-0.2-7c-0.1-1,0.3-1.5,1.4-1.6c1.7-0.2,3.3-0.6,5-0.9c1.7-0.3,3.1-1.2,4.1-2.5
			c3.2-4,7.3-7.1,11.2-10.4c6.4-5.4,12.7-10.8,19.1-16c2.5-2,5.3-3.8,7.9-5.6c0.5-0.3,1.2-0.7,1.8-0.7c8.5-0.5,16.4-3.3,24.2-6.7
			c5-2.2,9.6-4.9,13.7-8.5c1.1-1,2.5-1.5,3.9-2.3c4.3,5.5,10.4,8.1,17.2,9.4c1.9,0.3,3.9,0.3,5.8,0.5c0.4,0,0.9,0.3,1,0.5
			c2,4.4,5.4,7.5,9.8,9.1c3.6,1.4,7.4,2.4,11.1,3.6c1.7,0.5,3.3,1.2,5,1.8c0.9,0.3,1.3,0.9,1.4,1.8c0.2,1.6,0.4,3.3,0.5,4.9
			c0.4,3.9,0.7,7.8,1.1,11.7c0.8,7.4,0.3,14.7-0.1,22.1c-0.3,5.6-0.5,11.2-0.7,16.8c0,0.7-0.1,1.4,0.1,2c0.8,3.1-0.4,5.9-1.5,8.8
			c-2.4-0.4-4.6-0.2-6.4,1.6c-0.4,0.4-0.9,0.9-1.2,1.5c-0.8,1.4-1.3,2.9-0.2,4.2c1.1,1.4,2.7,1.2,4.2,0.8c0.3-0.1,0.5-0.1,0.9-0.2
			c-0.1,0.5-0.2,0.9-0.4,1.3c-3.2,10-6.5,19.9-9.7,29.9c-0.8,2.4-0.2,3.2,2.3,3.4c3.7,0.3,7.3,0.6,11,0.9c1,0.1,1.2,0.4,1.2,1.4
			c-0.2,15.9-0.5,31.8-0.6,47.8c0,3.4,0.3,6.8,0.4,10.2c0,0.4-0.2,1-0.6,1.3c-1.3,0.9-2.5,1.9-3.9,2.5
			c-17.7,8.3-35.9,14.8-55.7,15.2c-4.6,0.1-9.3-0.2-13.9-0.8c-2.4-0.3-4.6-1.7-6.9-2.7c-0.3-0.1-0.5-0.7-0.5-1
			c0.3-4.5,0.6-9,1.1-13.5c0-0.5,0.4-1.2,0.8-1.4c2.3-1.7,3.6-3.9,4.4-6.6c2.7-9.2,1.8-18.3-0.4-27.3c-0.2-0.7-0.4-1.4-0.7-2
			c-1.2-2-1.3-4.1-1.3-6.3c-0.1-8.2-0.2-16.3-0.6-24.5c-0.4-6.5-1.3-13-2-19.6c-0.2-2.2-0.7-4.3-1.1-6.5c0-0.3-0.1-0.5-0.2-0.8
			c-2.7-6.8-5.6-13.5-8.2-20.3c-3.2-8.2-6.1-16.4-9.2-24.6c-0.1-0.4-0.6-0.6-0.9-0.9c-0.2,0.4-0.6,0.8-0.5,1.2
			c0.1,1.2,0.3,2.4,0.7,3.5c2.5,7.6,5.1,15.2,7.6,22.7C225.4,253.4,225.6,253.8,225.8,254.4z M254,234.1c-0.2,0.1-0.5,0.2-0.7,0.2
			c-3.1,0.4-6.1,0.7-9.2,1c-0.8,0.1-1.3,0.3-1.4,1.2c-0.1,2.7-0.5,5.4-0.2,8c0.6,5.4,1.6,10.8,2.5,16.1c0.5,2.7,1.6,5.1,3.1,7.4
			c1,1.5,2.4,2.5,4.1,3.1c3.9,1.4,8,1.6,12.1,1.4c4.8-0.2,8.9-1.8,12.8-4.5c2.8-1.9,4.2-4.5,4.1-7.9c-0.2-5.3-0.2-10.6-0.6-15.9
			c-0.3-3.6-1-7.1-1.7-10.6c-0.3-1.7-1.1-2.2-2.8-2.1c-1.9,0.1-3.8,0.2-5.7,0.4c-4.4,0.6-8.7,1.2-13.1,1.9c-0.8,0.1-1.1-0.1-1.2-0.8
			c-0.3-1.5-0.8-2.9-1.2-4.4c-1.2-4.5-2.5-9-3.7-13.5c-0.6-2.3-1.1-3-3.5-3.4c-1.9-0.3-3.9-0.5-5.8-0.8c-1.1-0.2-2.3-0.4-3.4-0.4
			c-1.1,0-1.9,0.5-2.3,1.5c-0.4,1.1-0.1,2.2,0.8,2.8c0.8,0.6,1.8,1,2.8,1.1c2.7,0.3,5.2-0.4,7.7-1.5c1.1-0.5,1.4-0.4,1.6,0.8
			c0.2,1.1,0.3,2.2,0.6,3.3C251.1,223.6,252.6,228.8,254,234.1z M309.9,220.4c-0.7,0.2-1.9,0.5-3.2,0.8c-1.7,0.3-3.1,1.9-3.1,3.6
			c0,1.6,1.1,3,2.9,3.3c2.2,0.5,4.2-0.1,6-1.3c1.8-1.2,2.6-2.7,2.2-4.1C314.2,221.3,312.6,220.4,309.9,220.4z M312.3,239.4
			c-2.5,0-4.1,0.7-5.4,1.9c-1,0.9-1.6,2.1-1.2,3.6c0.4,1.5,1.3,2.5,2.8,2.9c2.5,0.6,4.5-0.4,6.1-2.3c1-1.2,1.7-2.5,1-4.1
			C314.8,239.8,313.3,239.4,312.3,239.4z M307.9,198.6c-1.4,0.5-2.9,0.9-4.2,1.7c-2.1,1.2-2,3.6,0,4.9c2.4,1.6,6.8,1,8.6-1.4
			c1.1-1.4,0.9-3.1-0.7-4C310.5,199.3,309.3,199.1,307.9,198.6z M308.2,358.4c2.2,0,5.4-1.7,6.7-3.5c1.4-1.9,0.6-4-1.7-4.3
			c-2.5-0.4-4.9,0.1-6.8,2c-0.5,0.5-0.9,1.1-1.1,1.7C304.4,356.5,305.7,358.4,308.2,358.4z M308.7,338.1c2.6,0,5.2-1.8,6-4.1
			c0.8-2.1-0.6-3.9-2.7-3.4c-1.8,0.5-3.6,1.3-5.2,2.3c-1.4,0.8-1.7,2.3-1.3,3.4C305.9,337.4,307.1,338.1,308.7,338.1z M312.1,310.3
			c-1.2,0.3-2.6,0.6-3.8,1.1c-1.5,0.6-2.3,2.2-2,3.6c0.3,1.4,1.5,2.5,3.2,2.5c2.4,0.1,4.3-1,5.7-2.9c1.1-1.5,0.6-3-1.1-3.7
			C313.5,310.6,312.9,310.5,312.1,310.3z"/>
		<path class="st2" d="M306.6,301.9c1.2-3.8,2.4-7.5,3.6-11.1c12.2-37.4,24.4-74.7,36.5-112.1c0.3-1,0.7-1.3,1.8-1
			c20.7,4,41.3,8,62,11.9c0.5,0.1,1,0.2,1.6,0.3c-6.1,16.1-12.2,32.2-18.3,48.4c-2.3-5.1-6.6-7.2-11.3-8.8
			c-4.5-1.5-9.1-2.3-13.9-2.7c-2.9-0.3-5.7,3.3-4.5,6c0.3,0.7,1.1,1.2,1.9,1.5c4.1,1.5,8.3,2.8,12.4,4.2c0.9,0.3,1.7,0.9,2.4,1.5
			c0.4,0.4,0.5,1.1,0.8,1.7c-0.1,0.1-0.2,0.1-0.3,0.2c-0.3-0.1-0.5-0.2-0.8-0.3c-8.6-3.7-17.7-5.3-27-5.2c-0.5,0-1,0-1.6,0.1
			c-2.5,0.3-3.5,2.3-2.3,4.5c0.4,0.7,1,1.3,1.6,1.9c0.6,0.5,1.3,0.9,1.7,1.2c-0.3,1.3-0.8,2.5-0.6,3.6c0.1,1,0.9,1.9,1.6,2.7
			c0.6,0.6,1.5,1.1,2.4,1.4c4.4,1.4,8.8,2.8,13.3,4.1c2.4,0.7,3,1.3,2.8,4c-0.5-0.1-0.9-0.3-1.3-0.4c-3.8-1-7.6-2-11.4-2.9
			c-0.6-0.2-1.3-0.2-1.9-0.2c-1.1,0-1.8,0.5-2,1.7c-0.3,2.7,0.6,5,2.5,6.9c0.3,0.3,0.8,0.3,1.2,0.4c2.6,0.6,5.2,1.1,7.7,1.9
			c2.4,0.8,3.9,1.9,3.6,5c-0.2,2.5-0.5,4.9-0.5,7.4c0,2.4,0.1,4.7,0.5,7c0.2,1.4,0.8,2.9,1.5,4.1c0.7,1.2,0.7,2.3,0.3,3.6
			c-1.4,3.7-2.8,7.4-4.2,11.1c-0.4,1-0.8,1.3-1.9,1.2c-14-1.2-28.1-2.3-42.1-3.5c-5.4-0.4-10.8-0.9-16.3-1.3
			C307.7,302,307.3,301.9,306.6,301.9z"/>
		<path class="st0" d="M279.4,569.9c-0.7,0.4-1.3,0.8-2,1.2c-5.6,3.5-11.2,6.9-17.3,9.2c-2.3,0.9-4.6,1.5-7,2
			c-3.2,0.6-4.7-0.3-6.1-3.2c-1.2-2.6-2.1-5.3-3-7.9c-1.7-4.8-3.3-9.6-5.1-14.7c0.5,0.4,0.9,0.6,1.2,0.9c3.9,3,8.1,5.5,13.1,6.5
			c6.5,1.3,12.6-0.3,18.1-3.7c5.3-3.3,9.7-7.6,13.5-12.5c0.2-0.3,0.4-0.5,0.6-0.8c0-0.1,0.1-0.1,0.3-0.1c0.8,1.2,1.7,2.4,2.5,3.6
			c0.2,0.2,0.1,0.7,0.1,1c0,0.2-0.1,0.4-0.3,0.5c-3.2,3.6-3.2,7.9-2.5,12.2c2.3,14.7,2.6,29.5,3,44.4c0.3,9.7,1,19.4,1.2,29.1
			c0.2,7.2,0,14.4-0.2,21.6c-0.1,5.8-0.4,11.6-0.7,17.4c-0.2,2.8-0.5,5.6-0.8,8.4c-10.9-0.8-21.5-0.1-32.2,0.1
			c-5.3,0.1-10.5,0.5-15.8,0.6c-2.1,0.1-4.3,0-6.6,0c0.8-4.1,1.5-7.8,2.2-11.6c1.4-7.7,1.9-15.6,1.8-23.4
			c-0.2-14.8-0.6-29.6-1.1-44.4c-0.3-8.6-0.7-17.2,0.2-25.8c0.2-2,0.9-4.1,1.6-6c0.9-2.6,0.8-4.9-1.1-7.1c-0.5-0.5-0.8-1.2-1.2-1.8
			c-1.6-2.8-2.2-5.6-0.8-8.7c0.3-0.8,0.6-1.7,0.9-2.7c0.3,0.6,0.5,1,0.6,1.4c2.3,6.5,4.6,13,7,19.5c0.6,1.7,1.4,3.4,2.2,5
			c1.4,2.7,3.7,3.8,6.8,3.5c4.3-0.5,8.3-2.1,12.1-4c4.7-2.2,9.2-4.6,13.2-7.9c0.5-0.4,0.9-0.9,1.4-1.3c0.1-0.1,0.1-0.3,0.2-0.4
			C279.5,570,279.5,569.9,279.4,569.9z"/>
		<path class="st3" d="M161.2,254.3c12.8,7.2,30.5,18.3,32,20c-3,2.9-6,5.8-9,8.6c0.1,0.2,0.2,0.3,0.2,0.5c-0.3-0.3-0.5-0.6-0.8-1
			c-2.2-3-4.7-5.6-7.8-7.8c-4-2.8-8.3-3.7-13-2.8c-1.8,0.3-3.5,0.8-5.3,1.2c-0.4,0.1-0.8,0.3-1.2,0.8c0.4,0.1,0.7,0.2,1.1,0.2
			c2.2,0.1,4.3,0.4,6.5,0.2c6.2-0.5,10.8,2.3,14.7,6.6c1.7,1.9,3.2,4,4.6,6.2c3.8,6.2,8.8,11.2,13.8,16.4c2,2.1,4.1,4,6.2,6.2
			c-4.4,6.3-6.4,14-9.6,21.3c-7.8-3.2-15.6-6.4-23.3-9.5c-6.5-2.7-13-5.1-19.4-8c-4.3-2-8.4-4.5-12.6-6.7c-1.2-0.6-1.6-1.5-1.5-2.9
			c0.4-4.7,1.9-9.1,3.5-13.4c2.6-7.1,6-13.9,10.1-20.3c3.3-5.1,6.8-10.2,10.2-15.2C160.9,254.6,161.1,254.4,161.2,254.3z"/>
		<path class="st1" d="M310.4,374.2c1.6-0.8,3-1.4,4.3-2.2c1.7-1.1,3.4-2.2,5-3.4c1-0.7,1.2-1.7,1.1-3c-0.3-3.3-0.6-6.5-0.6-9.8
			c0.1-15.8,0.2-31.6,0.3-47.4c0-0.6,0-1.2,0-2c2.1,0.2,4,0.3,5.9,0.4c5.8,0.5,11.6,1,17.3,1.4c1.2,0.1,1.6,0.6,1.7,1.6
			c1.7,14.2,3.6,28.5,5.2,42.7c0.6,5.1,0.5,10.2,0.8,15.3c0.2,2.2,0.6,4.4,1,6.6c0.2,0.8,0,1.2-0.7,1.3c-2.7,0.5-5.4,1.2-8.1,1.5
			c-8.7,1.1-17.5,1-26.1-0.8c-2.1-0.4-4.1-1.2-6.2-1.8C311.2,374.7,310.8,374.5,310.4,374.2z"/>
		<g>
			<path class="st3" d="M301.3,82.1c-3.9,1.6-7.9,2.2-12.1,1.6c-0.9-0.1-1.8-0.2-2.7-0.1c-6.2,0.5-12.3,1.1-18.5,1.7
				c-1.2,0.1-2.2,0.5-3.2,1.2c-1.8,1.2-2.2,2.7-2.4,4.7c-0.5,5.6-1.2,11.2-1.9,16.8c-0.2,1.5-0.6,2.9-2,3.8
				c6.8,5.1,14.1,9.2,22,11.9c1,0.3,2.1,0.6,3.2,0.6c3.2,0.1,6.3,0.1,9.5,0c2.4-0.1,4.8-0.3,7.4-0.5c-0.2-0.7-0.4-1.3-0.5-1.8
				c-0.9-2.8-1.3-5.7-0.4-8.6c0.2-0.6,0.7-1.5,1.2-1.6c0.8-0.1,1-0.5,1.3-1c2-2.9,4.5-5.1,8.1-5.8c1.8-0.4,3.7-0.5,5.4,0.4
				c2.9,1.5,3.4,5.6,0.9,7.6c-1.2,1-2.6,1.8-4,2.4c-3.8,1.6-7.6,1.5-11.4-0.4c-0.3,3,0.7,5.6,1.6,8.6c2.1-0.5,4.4-0.7,6.2-1.7
				c3.7-2,7.2-4.3,10.7-6.7c3.7-2.5,3.5-2.5,3.1-7c-0.2-1.9-0.3-4,0.3-5.8c0.9-3,0.6-5.8,0.4-8.8c-0.2-3-0.6-8.2-0.7-11.2
				c0-0.2,0.1-0.5,0.3-0.8c-6-0.2-12-0.4-18-0.5C303.7,81.2,302.4,81.6,301.3,82.1z M269.4,101.8c0.2-1.3,1.3-1.2,2.3-1.2
				c0.3,0,0.6,0,0.8,0c4.4,0.2,8.4,1.1,11.9,3.6c0.4,0.3,0.8,0.6,1,1c0.2,0.4,0.2,0.9,0.3,1.4c-0.5,0-0.9,0.1-1.4,0.1
				c-0.1,0-0.2-0.1-0.3-0.2c-3.8-2.4-7.9-3.4-12.3-3.4C270,103.2,269.2,102.7,269.4,101.8z M285.5,114.4c-0.1,0-0.3,0.2-0.3,0.3
				c-2.6,3.9-6.5,4.1-10.5,3.5c-2.7-0.4-5-1.7-7-3.6c-0.7-0.7-0.5-1.4,0.1-1.9c1.2-1.2,2.5-2.3,3.9-3.3c2.1-1.4,4.5-2.1,7.1-2.2
				c3.4,0.1,6,1.5,7.5,4.8C286.6,113.1,287,114.1,285.5,114.4z M314.5,95.5c0.2,0.2,0.9,0.5,0.9,0.9c0,0.5-0.4,1.2-0.8,1.4
				c-1.1,0.6-2.3,0.9-3.5,1.3c-2.6,0.9-4.8,2.6-6.6,4.6c-0.4,0.4-0.8,0.9-1.3,1.2c-0.2,0.1-0.7,0.2-0.9,0.1
				c-0.2-0.1-0.3-0.6-0.2-0.8c0.1-0.4,0.3-0.8,0.5-1.2c2.6-4.1,6.6-6.2,11.1-7.4C313.9,95.6,314,95.6,314.5,95.5z"/>
			<path class="st2" d="M325.7,82c-0.6-0.1-1.1-0.2-1.5-0.2c0,0-0.1,0-0.1,0c0.1,0.2,0.2,0.3,0.3,0.5c0.3,1.6,0.7,5.6,0.9,7.3
				c0.2,1.8,0.4,3.6,0.6,5.3c0.1,0,0.2,0,0.3,0C325.9,90.6,325.8,86.3,325.7,82z"/>
		</g>
		<path class="st0" d="M327.3,69.4c-4.7-0.6-9.3-1.1-14-1.7c0,0-0.1-0.2,0-0.4c0.4-3.8-0.5-7.3-2.1-10.7c-1.6-3.4-4.2-5.8-7.6-7.3
			c-4.5-2.1-9.4-2.8-14.3-2.1c-9.2,1.3-15.8,10.5-14.4,19.7c0.1,0.9,0.2,1.7,0.4,2.8c-8.4,0.1-16.1,3.4-24.2,4.6
			c0,0-0.1-0.1-0.1-0.1c-0.8-6.9-0.6-13.7,1.7-20.4c1.5-4.5,4.4-7.8,8.6-10.1c7.2-3.8,14.8-5.7,22.8-6.3c8.6-0.6,17.1,0,25.4,2.5
			c5.9,1.8,10.1,5.2,12.6,10.9c1.9,4.5,4,9,4.4,14c0.1,0.9,0.4,1.9,0.6,2.8C327.2,68.2,327.3,68.8,327.3,69.4z"/>
		<path class="st4" d="M323.4,115.1c-0.2,0.7-0.4,1.3-0.6,1.8c-2.4,7-4.8,13.9-7.1,20.9c-0.8,2.3-1.7,4.5-3.9,6.1
			c-1.8,1.3-3.2,3.2-4.9,4.7c-0.9,0.8-2,1.4-3.2,1.8c-7.4,2.1-14.8,1.7-22-0.5c-6.3-1.9-12.1-5.1-16.8-9.8c-1.7-1.7-2.6-3.6-3.2-6
			c-1.4-6.2-3.1-12.3-4.8-18.4c-0.1-0.5-0.3-1.1-0.5-1.9c0.9,0.6,1.5,1,2.1,1.4c6.2,4.5,12.9,8.2,20.2,10.7c1.9,0.6,4,1,6,1.1
			c7.4,0.2,14.8-0.2,22.2-1.8c3.3-0.7,5.9-2.7,8.7-4.4C318.2,118.9,320.7,117,323.4,115.1z"/>
		<path class="st4" d="M402.3,281.5c-3.1,6.1-8.5,9.3-14.2,12.2c-2.3,1.2-4.6,2.6-7,2.8c0.3-0.5,1.1-1.2,0.9-1.7
			c-0.1-0.6-1-0.9-1.5-1.4c-0.1-0.1-0.4-0.1-0.6-0.1c-1.4-0.4-3.4-0.5-4.1-1.4c-1.2-1.6-2-3.8-2.4-5.8c-0.8-4.2-0.5-8.4,0-12.7
			c0.7-5.1-1.4-7.6-6.1-9.1c-2.3-0.7-4.6-1.2-7-1.8c-1.9-0.4-2.7-1.5-2.2-3.8c1.6,0.3,3.2,0.5,4.8,0.9c3.6,1.1,7.2,2.3,10.8,3.5
			c1.9,0.6,3,2,3.4,4c0.1,0.7,0.3,1.4,0.7,2c0.2,0.4,0.8,0.6,1.1,0.8c0.2-0.4,0.7-0.8,0.7-1.1c-0.1-3-0.7-5.8-3.7-7.4
			c-0.4-0.2-0.7-0.7-0.8-1.2c-0.2-0.8-0.3-1.6-0.4-2.5c-0.3-2.4-1.7-3.7-4-4.4c-4.2-1.2-8.3-2.4-12.4-3.7c-0.8-0.2-1.6-0.6-2.3-1
			c-0.5-0.3-1-0.7-1.3-1.2c-0.5-0.8-0.2-1.3,0.7-1.4c0.4,0,0.8,0,1.2,0.1c6,1.4,11.9,2.6,17.8,4.2c4.7,1.3,4.6,1.5,5.7,6.2
			c0.2,1,0.5,2,0.8,3c0.1,0.3,0.5,0.5,0.8,0.7c0.3-0.3,0.8-0.7,0.7-0.9c-0.4-2.6-0.7-5.3-1.4-7.9c-0.2-0.9-1.5-1.7-2.5-2.1
			c-2.7-1.1-5.6-2-8.4-2.9c-2.2-0.6-4.4-1-6.6-1.6c-1.6-0.4-3.2-1-4.8-1.6c-0.9-0.3-1.9-0.6-2.8-1c-1.2-0.6-2.5-1.3-3.6-2
			c-0.4-0.3-0.7-0.9-1.1-1.6c0.7-0.1,1.2-0.2,1.6-0.3c9.2-0.2,18.2,1.3,26.7,5c3.5,1.5,3.5,1.6,2.7,5.3c-0.1,0.7-0.3,1.3-0.3,2
			c0,0.4,0.3,0.8,0.4,1.1c0.4-0.2,0.9-0.4,1.1-0.7c0.4-0.6,0.6-1.3,0.8-2c0.3-1,0.7-2,0.8-3c0.1-0.7,0.1-1.6-0.3-2
			c-0.7-0.9-0.9-1.9-1-3c-0.1-3.1-2-4.7-4.6-5.6c-3.9-1.4-7.9-2.5-11.9-3.8c-1.3-0.4-1.6-1-0.9-2.2c0.2-0.4,0.9-0.8,1.3-0.8
			c5.5,0.6,10.9,1.4,16,3.6c1.7,0.7,3.4,1.7,4.8,2.9c1.7,1.4,2.7,3.2,2.8,5.6c0.3,7.6,1.1,15.1,2.5,22.5c0.6,2.8,1.4,5.6,2,8.4
			c0.2,1,0.1,2.2,0.5,3.1c0.7,2,2,3.5,3.7,4.7C400.9,280.6,401.6,281,402.3,281.5z M393.5,281.7c-0.1-0.1-0.1-0.1-0.2-0.2
			c-0.3,0.3-0.7,0.5-1,0.8c-2.6,2.8-5.2,5.5-7.8,8.3c-0.6,0.6-1.1,1.4-1.6,2.1c-0.2,0.2-0.1,0.6-0.2,0.9c0.3,0,0.7,0.1,1-0.1
			c0.6-0.4,1.2-0.8,1.6-1.4c2.6-3.1,5.1-6.3,7.7-9.5C393.3,282.3,393.4,282,393.5,281.7z"/>
		<path class="st4" d="M218.2,351.6c0.6-1.4,1.2-2.6,1.7-3.9c0.8-2.1,0.4-3.9-1.4-5.4c-0.9-0.7-1.9-1.3-3-1.7
			c-5.9-2.2-11.8-4.5-18.1-5.3c-0.4,0-0.7-0.2-1-0.3c-0.3-0.1-0.6-0.3-1.1-0.5c4-8.4,6-17.7,11.7-25.5c0.3,0.5,0.8,0.8,0.8,1.1
			c0.4,2.2,1.9,3.7,3.3,5.2c6,6.8,13.3,11.2,22.4,12.4c1,0.1,2.1,0.2,3.1,0.2c0.9,0,1.3,0.3,1.6,1c1.6,3.5,2.4,7.1,2.6,10.9
			c0.2,3.8,0.5,7.6,0.2,11.4c-0.3,2.9-1.2,5.8-2.2,8.5c-0.4,1.2-1.7,2.2-2.9,2.9c-5.5,3.4-11.4,5.7-17.7,7.2
			c-1.8,0.4-3.7,0.9-5.5,1.1c-1.4,0.1-2.9,0-4.2-0.4c-1.9-0.5-2.6-1.8-2.4-3.7c0.1-0.4,0.6-0.9,1-1.1c0.9-0.3,1.8-0.3,2.7-0.6
			c1-0.3,1.9-0.7,2.8-1c1.1-0.3,2.3-0.6,3.5-0.7c3.9-0.2,7.4-1.5,10.8-3.3c2.2-1.2,4.3-2.6,6.4-4c1.5-1,2.3-2.3,2.1-4.1
			c-0.4-3.5-0.8-6.9-1.2-10.3c0-0.2-0.1-0.5-0.2-0.7c-0.2-0.3-0.5-0.5-0.8-0.8c-0.2,0.3-0.6,0.6-0.6,0.9c-0.1,1.6,0,3.1,0,4.7
			c0,2.1,0.2,4.2,0.2,6.4c0,0.5-0.2,1.3-0.6,1.6c-4.5,3.1-9,6.1-14.6,6.9c-1.6,0.2-3.2,0.4-4.8,0.6c-1.5,0.2-2.2-0.7-1.5-2.1
			c0.8-1.6,2.1-2.7,3.7-3.3c1.9-0.7,3.8-1.6,5.6-2.3c2.3-0.9,3.5-2.7,3.5-5.1c0-1.8-0.1-3.7-0.5-5.4c-0.4-2.1-1.2-4.1-1.6-6.1
			c-0.2-1.2,0-2.5,0.4-3.7c0.4-1.5,1.1-3,1.6-4.4c-0.2-0.1-0.3-0.2-0.5-0.4c-0.3,0.4-0.6,0.8-0.9,1.2c-2.6,3.6-3.2,7.5-2.2,11.7
			c0.5,2.1,1,4.3,1.1,6.5C221.6,350,220.8,350.8,218.2,351.6z M215.8,337.2c1.4-3.2,2.4-6.5,2.3-10
			C216.3,330.3,215.4,333.6,215.8,337.2z M213.2,336.7c1.4-1.5,1.8-7.1,0.7-8.7C213.1,330.9,212.8,333.7,213.2,336.7z"/>
		<path class="st1" d="M319.7,250c0-0.4,0-0.9,0-1.3c0.4-7.3,0.7-14.5,1.1-21.8c0.4-7.4-0.4-14.8-1.2-22.1c-0.3-2.7-0.5-5.3-0.9-8
			c-0.2-2-1-3.6-3.2-4.2c-1.9-0.6-3.8-1.3-5.8-2c-3.6-1.2-7.1-2.3-10.6-3.6c-3.1-1.2-5.4-3.4-7.3-6.1c-0.3-0.4-0.5-0.8-0.8-1.4
			c6.5-0.9,12-3.2,15.2-9.4c11.2,6,23.7,8.3,35.7,12.1c-7.4,22.6-14.7,45.2-22.1,67.8C319.8,250.1,319.8,250,319.7,250z"/>
		<path class="st5" d="M414.6,712.8c-3,0-5.8-0.2-8.6,0c-3.8,0.3-7.6,0.8-11.3,1.6c-4.5,0.9-8.9,0.5-13.3-0.6
			c-13.2-3.4-25.8-8.1-37.8-14.6c-1.9-1-2.9-2.1-2.7-4.3c0.1-2,0-4.1,0-6.2c1.6,0.2,3.1,0.6,4.6,0.7c10.5,1.1,21,1.3,31.4-0.7
			c2.2-0.4,3.7-0.3,5.3,1.4c2.8,2.7,6.4,4.3,10.1,5.7c3.8,1.5,7.6,2.8,11.5,4.3c3.8,1.4,7.1,3.5,8.9,7.4
			C413.4,709.3,414,711.1,414.6,712.8z"/>
		<path class="st5" d="M282.3,687.9c0.3,2.9,0.3,5.5-0.4,8.2c-0.1,0.4-0.7,0.9-1.1,1.1c-10.1,4.4-20.5,7.4-31.2,9.6
			c-10.2,2-20.4,3.1-30.8,2.5c-3.6-0.2-7.2-1-10.8-1.6c-0.4-0.1-0.8-0.2-1.2-0.4c1-2.3,2.4-4.3,4-6.1c4.1-4.7,9.2-7.2,15.4-7.9
			c5.5-0.6,10.7-2.2,16-3.8c1.2-0.3,2.4-0.6,3.6-0.7c11.4-0.4,22.8-0.7,34.2-1C280.7,687.8,281.4,687.9,282.3,687.9z"/>
		<path class="st3" d="M400.3,289.1c-0.2,1.1-0.2,2-0.6,2.7c-1.8,3.2-3.6,6.5-5.7,9.6c-5.4,7.9-11.5,15.3-18.2,22.1
			c-1.5,1.5-3.3,2.9-5.1,4.1c-2.1,1.4-4.2,1.3-6.3-0.2c-4.5-3.4-8.2-7.6-11.7-12c-1.7-2.1-3.2-4.2-5-6.5c0.6,0,0.9,0,1.2,0
			c6,0.5,12,1,17.9,1.5c0.4,0,0.7,0.1,1,0.3c1.5,0.6,2.2,0.3,2.8-1.1c1-2.6,2-5.3,3-8c0.7-1.8,1.3-3.6,2-5.4
			c0.1-0.3,0.4-0.7,0.7-0.6c0.3,0,0.7,0.3,1,0.5c0.2,0.1,0.2,0.4,0.3,0.7c1.1,2.5,2.6,3.2,5.2,2.5c0.7-0.2,1.4-0.5,2.1-0.8
			c5.2-2.3,10.3-5.1,14.6-8.8C399.7,289.3,399.8,289.3,400.3,289.1z"/>
		<path class="st6" d="M341.9,701c2.7,1.5,5.4,3.1,8.2,4.5c10.7,5.4,21.9,9.3,33.6,12c4.5,1,9,0.6,13.4-0.4c5-1.1,10.1-1.6,15.3-1.2
			c2.5,0.2,2.5,0.2,2.4,2.8c-0.3,4.4-2.3,7.5-6.5,9.3c-4.9,2.1-10,2.7-15.2,1.5c-8.8-2.1-17.6-4.4-25.9-8.3
			c-7.7-3.6-14.8-8.3-21.3-13.8c-1.7-1.4-3.1-3.1-3.8-5.1c-0.1-0.3-0.2-0.6-0.3-0.9C341.8,701.2,341.9,701.1,341.9,701z"/>
		<path class="st1" d="M170.3,250.5c2.5,1.2,5.1,2.1,7.4,3.5c5.3,3.1,10.4,6.4,15.6,9.7c0.7,0.4,1.4,0.9,2.1,1.4
			c0.7,0.4,1.4,0.7,2.1,0c0.6-0.7,0.1-1.3-0.4-1.9c-3.3-4.2-6.7-8.3-9.8-12.6c-3.2-4.4-6.1-8.9-9.1-13.4c-0.2-0.2-0.3-0.5-0.2-0.9
			c0.7,0.6,1.5,1.1,2.2,1.7c5.5,5.2,11,10.4,16.4,15.6c3.9,3.7,7.8,7.5,11.7,11.2c1.1,1,1,2.3,1.2,3.9c-5-0.6-9.1,0.5-11,5.5
			c-2.7-1.9-5.2-3.9-7.9-5.5c-4.9-2.9-9.2-6.4-13-10.5c-2.4-2.5-5-4.9-7.6-7.3C170.1,250.8,170.2,250.6,170.3,250.5z"/>
		<path class="st0" d="M288.6,177.7c-2.6-0.3-5.2-0.5-7.7-1c-4.4-0.9-8.4-2.6-11.9-5.5c-0.4-0.3-0.7-0.6-1.1-1
			c-1.9-1.9-2-2.2-0.9-4.7c1.3-3.1,1.7-6.3,1.5-9.6c0-0.5-0.1-0.9-0.1-1.8c6.2,4.9,13.2,6.5,20.5,6.5
			C288.9,166.4,288.8,171.8,288.6,177.7z"/>
		<path class="st7" d="M298.5,79.8c-6.5,2.9-15.3,0.4-18.9-5.3c-4.2-6.6-3.3-16.3,2-20.8c0.3,0.3,0.6,0.6,0.9,0.9
			c2.4,2.5,4.9,5.1,7.3,7.6c0.3,0.3,0.5,0.8,0.4,1.2c-0.7,3.1,0.3,4.6,3.4,5.2c0.3,0,0.6,0.3,0.7,0.5
			C295.6,72.6,297,76.2,298.5,79.8z"/>
		<path class="st1" d="M251.8,84.8c-0.2-2.2-0.4-4.5-0.5-6.9c0-0.3,0.6-0.8,0.9-0.9c2.3-0.6,4.7-1.1,7-1.6c5-1.2,10-2.8,15.3-3.1
			c0.9-0.1,1.3,0.1,1.5,1c0.8,2.9,2.6,5.1,4.9,6.9c0.3,0.2,0.6,0.4,0.8,0.6C271.8,82.1,261.8,83.5,251.8,84.8z"/>
		<path class="st7" d="M292.5,49.4c0.1,0,0.2-0.1,0.3-0.1c4.3,0.7,8.5,1.5,12.1,4.2c3.5,2.5,4.7,6.2,5.3,10.2c0.2,1.5,0,3.1,0,4.8
			c-4.5-1-8.7-1.9-12.5-2.7c-0.5-1.4-0.7-2.7-1.3-3.7c-0.4-0.6-1.3-0.9-2-1.4c-0.3-0.3-0.8-0.6-0.8-1c-0.4-3.3-0.8-6.7-1.2-10
			C292.5,49.7,292.5,49.6,292.5,49.4z"/>
		<path class="st6" d="M205.9,709.5c10.7,3.7,21.7,3.2,32.6,2c13.4-1.5,26.4-4.7,38.9-9.6c0.3-0.1,0.6-0.2,1-0.3
			c0.1,0.1,0.1,0.2,0.2,0.3c-1.2,1-2.3,2-3.6,2.9c-3.9,2.7-8.3,4-12.8,5.2c-15.7,4.2-31.7,5.7-47.9,4.8c-2.5-0.1-4.9-0.9-7.3-1.6
			c-1.9-0.6-1.9-1-1.3-2.9C205.6,710,205.8,709.7,205.9,709.5z"/>
		<path class="st0" d="M291,177.3c0-3.4,0-6.5,0-9.7c0-2,0-3.9,0-5.9c0-0.3,0.4-1,0.6-1c4.5-0.1,8.8-0.8,12.9-2.4c0,1.6,0,3.2,0,4.8
			c0,1.9,0.2,3.9,0.2,5.8c0,0.2-0.1,0.5-0.2,0.7C301.4,174.5,296.8,176.7,291,177.3z"/>
		<path class="st3" d="M305.6,152.9c0,0.3,0,0.4,0,0.4c-0.4,2.8-0.4,2.9-3.2,3.6c-7.7,2-15.5,1.9-23.3,0.1c-3.4-0.8-6.3-2.6-9.3-4.4
			c-1.4-0.8-2-1.9-2.1-3.4c-0.1-1.1-0.3-2.2-0.6-3.5C279.2,153.4,291.6,156.9,305.6,152.9z"/>
		<path class="st2" d="M261.6,86.1c-1.9,2.9-1.5,6-1.9,9c-0.6,4.2-1.1,8.4-1.7,12.6c-0.1,0.4-0.1,0.9-0.3,1.3
			c-0.2,0.3-0.7,0.6-1.1,0.6c-0.3,0-0.7-0.4-0.8-0.7c-0.7-3.1-1.5-6.1-3.5-8.6c-0.2-0.3-0.3-0.7-0.4-1.1c-0.7-3.6-0.8-7.2-0.4-10.9
			c0-0.4,0.4-0.9,0.7-1C255.3,86.9,258.3,86.5,261.6,86.1z"/>
		<path class="st1" d="M328.7,79.3c-3.7-0.2-7.2-0.5-10.8-0.6c-3.6-0.1-7.1,0-11,0c0.4-0.4,0.6-0.7,0.9-0.9c1.9-1.8,3.4-3.9,4.4-6.4
			c0.3-0.7,0.6-0.9,1.3-0.9c5,0,9.9,0.8,14.7,1.9c0.8,0.2,1.1,0.6,1,1.4C329,75.6,328.9,77.4,328.7,79.3z"/>
		<path class="st3" d="M254.5,114.7c-0.7,0.3-1.4,0.6-2,0.9c-1.6,1.1-2.2,3.2-1.2,4.9c0.2,0.4,0.8,0.6,1.2,0.9
			c0.1-0.4,0.4-0.9,0.4-1.3c-0.1-2.1,0.1-2.6,2-3.2c0.6,2.7,1.3,5.3,1.9,8c-3.2,0.1-7.2-2.4-8.3-5.4c-0.8-2.1-1.4-4.3-1.6-6.5
			c-0.3-3.2-0.2-6.5-0.2-9.8c0-0.9,0.2-1.9,1.3-2.2c1.2-0.3,2.1,0.3,2.8,1.2c0.5,0.6,0.9,1.2,1.2,1.9
			C253.5,107.5,254.2,111.1,254.5,114.7z"/>
		<path class="st5" d="M290.3,62.3c-2.7-3-5.5-6-8.4-9.1c2.8-2.1,5.6-3.7,9-3.9c0.3,0,0.8,0.5,0.8,0.8c0.5,3.4,1,6.8,1.4,10.1
			C292.3,60.9,291.4,61.6,290.3,62.3z"/>
		<path class="st6" d="M299.1,79.7c-1.6-3.7-3.1-7.4-4.7-11.1c0.6-0.3,1.1-0.7,1.7-1c3.4,2.5,6.7,5,10.1,7.6
			C304.3,77.2,301.9,78.7,299.1,79.7z"/>
		<path class="st5" d="M307,74.7c-3.7-2.7-7-5.1-10.7-7.8c0.7-0.3,1.1-0.6,1.4-0.5c3.9,0.9,7.8,1.9,11.7,2.8c0.1,0,0.2,0.1,0.5,0.3
			C309,71.2,308,72.9,307,74.7z"/>
		<path class="st4" d="M395.5,253.7c-1-4.5-1.5-9,1.3-13.2c0.4,0.2,0.9,0.4,1.4,0.5c0.8,0.2,0.9,0.7,0.7,1.5
			c-0.8,2.4-1.5,4.8-2.3,7.2C396.3,251,395.9,252.4,395.5,253.7z"/>
		<path class="st4" d="M208.4,360.8c0.2,0.5,0.4,1.1,0.7,1.9c-0.6,0.1-1.2,0.3-1.8,0.4c-1.7,0.4-3.2,0.9-3.6,2.8
			c-0.2,0.8-0.6,0.9-1.2,0.5c-0.5-0.3-1-0.6-1.4-1c-0.7-0.7-1.2-1.6-0.7-2.5c0.4-0.7,1.2-1.2,2-1.6c0.5-0.3,1.2-0.2,1.9-0.2
			C205.5,361,206.9,360.9,208.4,360.8z"/>
		<path class="st4" d="M212.4,353.8c-1,1.2-2.3,2.6-3.5,4c-0.1,0.1-0.2,0.3-0.3,0.3c-1.7,0.1-3.3,0.2-5,0.1c-0.1,0-0.4-1.3-0.1-1.6
			c0.6-0.7,1.4-1.4,2.3-1.6C208.1,354.5,210.4,354.1,212.4,353.8z"/>
		<path class="st2" d="M308.2,114.6c-1.1,0.1-1.3-0.4-1.2-1.3c0.3-2.1,2-3.5,4-3.2c0.9,0.1,1.7,0.3,1.9,1.3c0.2,0.9-0.5,2.1-1.4,2.4
			C310.5,114.1,309.3,114.3,308.2,114.6z"/>
		<path class="st7" d="M305.2,114.3c-0.8-0.2-1.7-0.4-2.5-0.7c1.6-3.9,6.5-6.9,10.4-6.6c1,0.1,2,0.4,2.4,1.5c0.4,1,0.3,2.1-0.3,2.9
			c-0.7-0.9-1.2-2.1-2.1-2.6c-0.9-0.6-2.3-0.7-3.4-0.6C307,108.4,305.9,110,305.2,114.3z"/>
		<path class="st2" d="M314.9,264.7c-0.1,2.5-2.2,4.5-4.4,4.4c-0.8-0.1-1.1-0.5-1-1.3c0.3-1.6,1.4-2.8,3.1-2.9
			C313.3,264.8,314.1,264.7,314.9,264.7z"/>
		<path class="st5" d="M291.5,64.6c0.1-1.3,0.9-2.2,2.1-2.1c1.1,0.1,2.1,1.2,2,2.2c-0.1,1.1-1.3,2.1-2.5,2
			C292,66.7,291.4,65.9,291.5,64.6z"/>
		<path d="M254,234.1c-1.5-5.3-2.9-10.5-4.3-15.7c-0.3-1.1-0.5-2.2-0.6-3.3c-0.2-1.2-0.5-1.3-1.6-0.8c-2.4,1.2-5,1.9-7.7,1.5
			c-1-0.1-2-0.6-2.8-1.1c-0.9-0.6-1.2-1.7-0.8-2.8c0.4-1.1,1.2-1.6,2.3-1.5c1.2,0,2.3,0.3,3.4,0.4c1.9,0.3,3.9,0.5,5.8,0.8
			c2.4,0.4,2.9,1.1,3.5,3.4c1.1,4.5,2.4,9,3.7,13.5c0.4,1.5,0.8,2.9,1.2,4.4c0.2,0.7,0.5,0.9,1.2,0.8c4.3-0.7,8.7-1.3,13.1-1.9
			c1.9-0.2,3.8-0.3,5.7-0.4c1.7-0.1,2.5,0.3,2.8,2.1c0.7,3.5,1.4,7.1,1.7,10.6c0.4,5.3,0.4,10.6,0.6,15.9c0.1,3.4-1.3,6-4.1,7.9
			c-3.9,2.7-8.1,4.3-12.8,4.5c-4.1,0.1-8.1,0-12.1-1.4c-1.7-0.6-3.1-1.5-4.1-3.1c-1.5-2.3-2.6-4.7-3.1-7.4
			c-0.9-5.3-1.9-10.7-2.5-16.1c-0.3-2.6,0.1-5.3,0.2-8c0-1,0.5-1.1,1.4-1.2c3.1-0.3,6.1-0.7,9.2-1
			C253.5,234.3,253.8,234.2,254,234.1z M245.5,246.6c0,0.4,0.1,0.7,0.1,1c0.7,3.8,1.3,7.6,2,11.3c0.5,2.7,1.3,5.2,3,7.4
			c0.6,0.8,1.6,1.5,2.5,1.9c3.4,1.4,7,1.5,10.6,1.4c4.1-0.1,7.8-1.3,11.3-3.6c2.3-1.5,3.4-3.4,3.3-6.2c-0.3-5-0.3-9.9-0.5-14.9
			c0-0.5-0.1-1.1-0.1-1.6C267,245.4,256.4,245.9,245.5,246.6z M244.7,238c0.2,2.3,0.3,4.5,0.5,6.7c0.6,0,1,0,1.4,0
			c6.4-0.6,12.7-1.1,19.1-1.7c3.9-0.4,7.9-0.5,11.7-2.1c-0.2-1.1-0.3-2.3-0.6-3.4c-0.6-3-0.6-3-3.6-2.8c-0.4,0-0.7,0-1.1,0.1
			c-5.6,0.7-11.2,1.5-16.8,2.2C252,237.3,248.4,237.6,244.7,238z M238.1,212.4c0.9,1.7,4.1,2,5.7,0.9
			C241.9,213,240.1,212.7,238.1,212.4z"/>
		<path d="M309.9,220.4c2.7,0,4.3,0.9,4.7,2.4c0.4,1.3-0.4,2.9-2.2,4.1c-1.8,1.2-3.8,1.8-6,1.3c-1.8-0.4-2.9-1.7-2.9-3.3
			c0-1.7,1.4-3.3,3.1-3.6C308,220.9,309.2,220.5,309.9,220.4z M310.7,222.3c-1.5,0.3-2.6,0.4-3.8,0.7c-0.9,0.2-1.3,0.8-1.3,1.6
			c0,0.9,0.6,1.3,1.3,1.4c1.6,0.3,3-0.1,4.3-1c0.6-0.4,0.9-1.1,1.3-1.7C311.8,222.9,311.2,222.6,310.7,222.3z"/>
		<path d="M312.3,239.4c1,0,2.5,0.4,3.2,2c0.7,1.6,0.1,2.9-1,4.1c-1.6,1.9-3.6,2.9-6.1,2.3c-1.5-0.4-2.4-1.4-2.8-2.9
			c-0.4-1.4,0.2-2.6,1.2-3.6C308.2,240.1,309.9,239.3,312.3,239.4z M311.6,241.4c0-0.1-0.1-0.1-0.1-0.2c-0.9,0.4-1.9,0.7-2.8,1.2
			c-0.8,0.4-1.3,1.1-1,2.1c0.3,0.9,1.1,1.4,2.1,1.3c1.7-0.1,3-1,3.8-2.6c0.4-0.8,0.1-1.3-0.7-1.6C312.4,241.5,312,241.5,311.6,241.4
			z"/>
		<path d="M307.9,198.6c1.4,0.4,2.6,0.7,3.7,1.2c1.6,0.8,1.8,2.5,0.7,4c-1.8,2.3-6.2,3-8.6,1.4c-2-1.3-2.1-3.7,0-4.9
			C305,199.5,306.5,199.2,307.9,198.6z M310.7,202c-1.5-1.2-4.1-1.2-5.7-0.1c-0.8,0.6-0.8,1,0.1,1.6
			C306.6,204.6,309.6,203.8,310.7,202z"/>
		<path d="M308.2,358.4c-2.5,0-3.8-1.9-2.8-4.2c0.3-0.6,0.6-1.2,1.1-1.7c1.9-1.9,4.3-2.3,6.8-2c2.3,0.3,3,2.5,1.7,4.3
			C313.6,356.7,310.4,358.4,308.2,358.4z M308.4,356.2c1.8-0.3,3.5-1.1,4.8-2.6c0.4-0.5,0.3-0.9-0.3-1.1c-2.1-1-4.9,0.2-5.7,2.5
			C307,355.8,307.3,356.2,308.4,356.2z"/>
		<path d="M308.7,338.1c-1.6,0-2.7-0.7-3.2-1.9c-0.4-1.1-0.1-2.6,1.3-3.4c1.6-1,3.4-1.8,5.2-2.3c2.1-0.5,3.5,1.3,2.7,3.4
			C313.9,336.3,311.3,338.1,308.7,338.1z M312.7,332.7c-1.2-0.3-4.3,1.1-4.8,2.2c-0.1,0.2,0.1,0.8,0.4,0.8
			C309.8,336.3,312.6,334.4,312.7,332.7z"/>
		<path d="M312.1,310.3c0.8,0.2,1.5,0.4,2.1,0.6c1.6,0.7,2.1,2.3,1.1,3.7c-1.4,1.9-3.3,3-5.7,2.9c-1.7-0.1-2.9-1.1-3.2-2.5
			c-0.3-1.4,0.5-3,2-3.6C309.5,310.9,310.9,310.6,312.1,310.3z M313.8,313.1c-0.6-0.2-1-0.5-1.4-0.4c-1,0.2-2.1,0.4-3.1,0.8
			c-0.4,0.2-0.7,0.7-1,1.1c0.5,0.3,0.9,0.9,1.4,0.9C311.4,315.5,312.7,314.7,313.8,313.1z"/>
		<path d="M278.7,107.4c3.4,0.1,6,1.5,7.5,4.8c0.4,0.9,0.7,1.9-0.7,2.2c-0.1,0-0.3,0.2-0.3,0.3c-2.6,3.9-6.5,4.1-10.5,3.5
			c-2.7-0.4-5-1.7-7-3.6c-0.7-0.7-0.5-1.4,0.1-1.9c1.2-1.2,2.5-2.3,3.9-3.3C273.7,108.2,276.1,107.5,278.7,107.4z M275.2,116.1
			c2.3,0.3,4.4,0.3,6.4-0.8c0.2-0.1,0.4-0.5,0.4-0.7c0-1.7-1.4-2.9-3.1-2.6C276.9,112.3,275.8,113.5,275.2,116.1z M283.6,113.2
			c0.2-1.7-0.8-2.8-2.8-3.4c-3.3-0.9-9.1,1.2-11.1,4.2c1.5,0.6,2.9,1.2,4.4,1.9c0.1-3.4,1.2-4.9,3.9-5.6
			C280.5,109.8,282.1,110.6,283.6,113.2z"/>
		<path d="M272.4,100.6c4.4,0.2,8.4,1.1,11.9,3.6c0.4,0.3,0.8,0.6,1,1c0.2,0.4,0.2,0.9,0.3,1.4c-0.5,0-0.9,0.1-1.4,0.1
			c-0.1,0-0.2-0.1-0.3-0.2c-3.8-2.4-7.9-3.4-12.3-3.4c-1.6,0-2.4-0.5-2.2-1.3c0.2-1.3,1.3-1.2,2.3-1.2
			C271.9,100.6,272.2,100.6,272.4,100.6z"/>
		<path d="M314.5,95.5c0.2,0.2,0.9,0.5,0.9,0.9c0,0.5-0.4,1.2-0.8,1.4c-1.1,0.6-2.3,0.9-3.5,1.3c-2.6,0.9-4.8,2.6-6.6,4.6
			c-0.4,0.4-0.8,0.9-1.3,1.2c-0.2,0.1-0.7,0.2-0.9,0.1c-0.2-0.1-0.3-0.6-0.2-0.8c0.1-0.4,0.3-0.8,0.5-1.2c2.6-4.1,6.6-6.2,11.1-7.4
			C313.9,95.6,314,95.6,314.5,95.5z"/>
		<path d="M393.5,281.7c-0.1,0.3-0.2,0.6-0.5,0.9c-2.6,3.2-5.1,6.3-7.7,9.5c-0.5,0.5-1,1-1.6,1.4c-0.2,0.2-0.6,0.1-1,0.1
			c0.1-0.3,0-0.6,0.2-0.9c0.5-0.7,1-1.5,1.6-2.1c2.6-2.8,5.2-5.5,7.8-8.3c0.3-0.3,0.6-0.5,1-0.8
			C393.4,281.5,393.4,281.6,393.5,281.7z"/>
		<path d="M215.8,337.2c-0.5-3.6,0.5-6.9,2.3-10C218.3,330.7,217.3,334,215.8,337.2z"/>
		<path d="M213.2,336.7c-0.4-3-0.1-5.8,0.7-8.7C215,329.6,214.6,335.2,213.2,336.7z"/>
		<path class="st0" d="M245.5,246.6c10.8-0.6,21.5-1.2,32.1-3.3c0,0.5,0.1,1.1,0.1,1.6c0.2,5,0.3,9.9,0.5,14.9
			c0.1,2.8-1,4.7-3.3,6.2c-3.4,2.3-7.1,3.5-11.3,3.6c-3.6,0.1-7.2,0-10.6-1.4c-0.9-0.4-1.9-1.1-2.5-1.9c-1.7-2.2-2.5-4.7-3-7.4
			c-0.7-3.8-1.3-7.6-2-11.3C245.6,247.2,245.6,246.9,245.5,246.6z"/>
		<path class="st4" d="M244.7,238c3.7-0.4,7.3-0.7,10.8-1.1c5.6-0.7,11.2-1.4,16.8-2.2c0.4,0,0.7-0.1,1.1-0.1c3-0.2,3-0.2,3.6,2.8
			c0.2,1.2,0.4,2.3,0.6,3.4c-3.8,1.6-7.8,1.7-11.7,2.1c-6.4,0.6-12.7,1.2-19.1,1.7c-0.4,0-0.9,0-1.4,0
			C245.1,242.4,244.9,240.3,244.7,238z"/>
		<path class="st7" d="M238.1,212.4c2,0.3,3.8,0.6,5.7,0.9C242.1,214.4,238.9,214.1,238.1,212.4z"/>
		<path class="st2" d="M310.7,222.3c0.5,0.3,1.2,0.6,1.8,0.9c-0.4,0.6-0.7,1.3-1.3,1.7c-1.3,0.9-2.7,1.3-4.3,1
			c-0.8-0.1-1.4-0.6-1.3-1.4c0-0.8,0.4-1.5,1.3-1.6C308,222.8,309.2,222.6,310.7,222.3z"/>
		<path class="st2" d="M311.6,241.4c0.4,0.1,0.9,0.1,1.3,0.2c0.8,0.3,1.1,0.8,0.7,1.6c-0.8,1.5-2,2.4-3.8,2.6
			c-1,0.1-1.7-0.4-2.1-1.3c-0.4-1,0.2-1.6,1-2.1c0.9-0.5,1.9-0.8,2.8-1.2C311.5,241.3,311.5,241.3,311.6,241.4z"/>
		<path class="st2" d="M310.7,202c-1.1,1.8-4.1,2.6-5.7,1.5c-0.9-0.6-0.9-1-0.1-1.6C306.6,200.8,309.2,200.8,310.7,202z"/>
		<path class="st2" d="M308.4,356.2c-1.1,0-1.4-0.4-1.1-1.3c0.7-2.2,3.5-3.5,5.7-2.5c0.6,0.3,0.7,0.7,0.3,1.1
			C311.9,355.1,310.2,355.9,308.4,356.2z"/>
		<path class="st2" d="M312.7,332.7c-0.1,1.7-2.9,3.7-4.4,3.1c-0.2-0.1-0.4-0.6-0.4-0.8C308.4,333.7,311.5,332.4,312.7,332.7z"/>
		<path class="st2" d="M313.8,313.1c-1.1,1.6-2.4,2.4-4.1,2.4c-0.5,0-0.9-0.6-1.4-0.9c0.3-0.4,0.6-0.9,1-1.1c1-0.4,2-0.6,3.1-0.8
			C312.7,312.6,313.2,312.9,313.8,313.1z"/>
		<path class="st2" d="M275.2,116.1c0.6-2.7,1.7-3.8,3.8-4.1c1.7-0.3,3.1,0.9,3.1,2.6c0,0.3-0.2,0.6-0.4,0.7
			C279.7,116.4,277.5,116.5,275.2,116.1z"/>
		<path class="st7" d="M283.6,113.2c-1.5-2.7-3.1-3.5-5.6-2.9c-2.7,0.7-3.9,2.2-3.9,5.6c-1.5-0.7-2.9-1.3-4.4-1.9
			c2-3,7.9-5.2,11.1-4.2C282.8,110.4,283.8,111.5,283.6,113.2z"/>
	</g>
</g>
<g id="Слой2_xA0_Изображение_1_">
</g>
</svg>
