<?xml version="1.0" encoding="utf-8"?>
<!-- Generator: Adobe Illustrator 21.0.0, SVG Export Plug-In . SVG Version: 6.00 Build 0)  -->
<svg version="1.1" xmlns="http://www.w3.org/2000/svg" xmlns:xlink="http://www.w3.org/1999/xlink" x="0px" y="0px"
	 viewBox="0 0 503.4 459.4" style="enable-background:new 0 0 503.4 459.4;" xml:space="preserve">
<style type="text/css">
	.st0{fill:#FFFFFF;}
	.st1{fill:#6BBA0F;}
	.st2{fill:#BFC9D5;}
	.st3{fill:#84909F;}
	.st4{display:none;fill:#BFC9D5;}
	.st5{display:none;fill:#EEF5FF;}
	.st6{clip-path:url(#SVGID_2_);}
	.st7{clip-path:url(#SVGID_4_);}
	.st8{clip-path:url(#SVGID_4_);fill:#BFC9D5;}
	.st9{clip-path:url(#SVGID_4_);fill:#84909F;}
	.st10{clip-path:url(#SVGID_4_);fill:#EEF5FF;}
</style>
<g id="TEMP">
	<polygon class="st0" points="251.7,118.6 182.5,144.7 134.5,207.2 131.8,275.9 158,330.7 189.8,361.2 250.3,382.5 322.6,366.2 
		373.7,321.4 393.9,269.8 380.8,188.9 322.6,132.8 	"/>
</g>
<g id="L1">
	<path d="M264.6,240c1.3,0.7,2.5,1.2,3.5,1.9c2.6,1.7,3.3,4.1,1.8,6.9c-0.7,1.3-1.6,2.6-2.8,3.5c-1.3,1-1.6,2.1-1.5,3.7
		c0.6,7.9,1.1,15.8,1.6,23.7c0.2,2.9,0.4,5.7,0.5,8.6c0,1.1,0.3,2.4-1.1,2.8c-1,0.3-1.7-0.6-1.9-2.5c-0.6-6-1.1-11.9-1.5-17.9
		c-0.4-4.8-0.7-9.6-1-14.4c0-0.3-0.1-0.6-0.3-1.1c-0.8,0.1-1.6,0.3-2.4,0.4c-0.7,8.5-1.4,16.9-2.1,25.3c-0.2,0-0.4,0-0.6,0.1
		c-0.1-0.5-0.4-1.1-0.4-1.6c0-5,0-10.1,0-15.1c0-2.9,0-5.7,0-8.8c-3.2-1.1-5.9-2.5-6.1-6.6c-0.2-4.9,1.6-8.4,6.6-9.7
		c0.1-3.2,0.3-6.2,0.4-9.2c0.2-18.5,0.3-36.9,0.5-55.4c0-5.7-0.1-11.4-0.1-17c0-0.6-0.1-1.3,0.2-1.9c0.2-0.5,0.8-1,1.3-1
		c0.3,0,0.9,0.5,1.1,1c0.2,0.6,0.2,1.2,0.2,1.9c0.4,11.3,0.7,22.7,1.2,34c0.6,12.8,1.4,25.5,2.2,38.3
		C264.1,233.3,264.4,236.7,264.6,240z M258,252.3c3.3,0,6.3-1.4,8.1-3.7c1.7-2.2,1.5-3.4-1-4.4c-1.8-0.7-3.8-1-5.8-1.3
		c-2-0.3-3.6,0.6-4.7,2.3c-1,1.5-2.2,3.2-1.1,5.1C254.6,252.1,256.5,252.2,258,252.3z M260.6,234.2c-0.1,0-0.1,0.1-0.2,0.1
		c0,1.5,0,3.1,0,4.6c0.2,0,0.3,0,0.5,0C260.8,237.3,260.7,235.8,260.6,234.2z"/>
</g>
<g id="L2">
	<path class="st1" d="M257.7,127.1l2.5,113.5l5.2,3.3l93.3-73.5C358.7,170.4,315.7,119.3,257.7,127.1z"/>
	<path d="M269.4,246.7c0.2,1.4,0.5,2.7,0.6,4c0.2,3.1-1.3,5.1-4.3,5.6c-1.5,0.2-3.1,0.3-4.5-0.1c-1.6-0.4-2.7,0-3.9,1
		c-5.9,5.3-11.9,10.5-17.8,15.7c-2.2,1.9-4.3,3.8-6.5,5.6c-0.8,0.7-1.7,1.7-2.9,0.8c-0.8-0.6-0.6-1.7,0.9-3
		c4.4-4.1,8.8-8.1,13.3-12.1c3.6-3.2,7.2-6.4,10.8-9.5c0.2-0.2,0.4-0.5,0.7-0.9c-0.6-0.6-1.2-1.1-1.8-1.7
		c-7.2,4.6-14.3,9.2-21.4,13.8c-0.1-0.1-0.3-0.3-0.4-0.4c0.3-0.4,0.6-1,1.1-1.3c4-3.1,8-6.2,12-9.2c2.3-1.7,4.6-3.5,7-5.3
		c-1.1-3.2-1.6-6.3,1.5-8.8c3.8-3.1,7.6-3.8,11.8-0.7c2.6-1.8,5.1-3.5,7.5-5.3c14.8-11.1,29.5-22.2,44.3-33.4c4.5-3.4,9-7,13.4-10.5
		c0.5-0.4,1-0.9,1.6-1c0.5-0.1,1.3,0.1,1.6,0.4c0.2,0.2,0.1,1.1-0.1,1.5c-0.3,0.5-0.9,0.9-1.4,1.3c-8.8,7.2-17.6,14.4-26.3,21.7
		c-9.8,8.3-19.4,16.7-29.1,25C274.5,242.2,272,244.5,269.4,246.7z M255.7,249c2,2.6,5,4.1,7.9,4.1c2.8,0,3.6-0.9,2.8-3.5
		c-0.6-1.9-1.5-3.7-2.5-5.4c-1-1.8-2.7-2.5-4.6-2.3c-1.8,0.2-3.8,0.2-4.7,2.3C253.8,246.1,254.8,247.7,255.7,249z M271.6,240
		c-0.1,0-0.1-0.1-0.2-0.1c-1.2,0.9-2.4,1.9-3.6,2.8c0.1,0.1,0.2,0.2,0.3,0.4C269.3,242,270.5,241,271.6,240z"/>
</g>
<g id="L3">
	<path class="st1" d="M258.4,128.1l1.7,109.9l7.3,7l117.6,8.6C406.8,235.7,341.3,99.7,258.4,128.1z"/>
	<path d="M266.6,252.4c-0.8,1.3-1.3,2.4-2.1,3.4c-1.8,2.5-4.3,3.1-6.9,1.5c-1.3-0.8-2.6-1.8-3.4-3c-1-1.4-2.1-1.7-3.6-1.7
		c-7.9,0.2-15.8,0.4-23.7,0.6c-2.9,0.1-5.8,0.1-8.6,0.1c-1.1,0-2.4,0.2-2.8-1.3c-0.3-1,0.6-1.7,2.6-1.8c6-0.3,12-0.5,18-0.7
		c4.8-0.2,9.6-0.2,14.4-0.4c0.3,0,0.6-0.1,1.1-0.2c-0.1-0.8-0.2-1.6-0.3-2.4c-8.5-1.1-16.8-2.1-25.2-3.2c0-0.2,0-0.4,0-0.6
		c0.5-0.1,1.1-0.3,1.6-0.3c5,0.2,10.1,0.4,15.1,0.6c2.9,0.1,5.7,0.3,8.8,0.4c1.2-3.1,2.8-5.8,6.8-5.8c4.9,0,8.3,2,9.4,7.1
		c3.2,0.3,6.2,0.6,9.2,0.8c18.4,1,36.9,2,55.3,2.9c5.7,0.3,11.3,0.4,17,0.6c0.6,0,1.4,0,1.9,0.3c0.5,0.2,0.9,0.9,1,1.4
		c0,0.3-0.6,0.9-1,1.1c-0.6,0.2-1.3,0.1-1.9,0.1c-11.4-0.1-22.7-0.3-34.1-0.3c-12.8,0-25.6,0.3-38.4,0.4
		C273.3,252.2,269.9,252.3,266.6,252.4z M254.6,245.3c-0.1,3.3,1.1,6.3,3.4,8.2c2.1,1.8,3.3,1.7,4.4-0.8c0.8-1.8,1.2-3.8,1.6-5.7
		c0-3.3-1.3-3.6-2.1-4.8c-1.5-1-3.1-2.3-5-1.3C254.9,241.9,254.7,243.8,254.6,245.3z M272.6,248.7c0-0.1-0.1-0.1-0.1-0.2
		c-1.5-0.1-3-0.1-4.6-0.2c0,0.2,0,0.3,0,0.5C269.4,248.7,271,248.7,272.6,248.7z"/>
</g>
<g id="L4">
	<path class="st1" d="M258.3,126.9l1.9,111.1c4.8,1.8,10.7,10.6,8.9,13.9c2.9,6.7,50.6,51.3,82.3,86.8
		C416.8,319.4,395.6,95.7,258.3,126.9z"/>
	<path d="M263,255.7c-1.4,0.4-2.6,0.9-3.8,1.1c-3,0.6-5.2-0.6-6.1-3.6c-0.4-1.4-0.7-3-0.5-4.5c0.2-1.7-0.4-2.7-1.5-3.7
		c-6-5.2-12-10.4-17.9-15.6c-2.2-1.9-4.3-3.8-6.4-5.8c-0.8-0.7-1.9-1.5-1.2-2.8c0.5-0.9,1.6-0.8,3.1,0.5c4.6,3.8,9.2,7.7,13.8,11.6
		c3.6,3.1,7.2,6.3,10.9,9.4c0.2,0.2,0.5,0.3,1,0.6c0.5-0.7,0.9-1.3,1.4-2c-5.5-6.5-11-12.9-16.4-19.4c0.1-0.2,0.3-0.3,0.4-0.5
		c0.5,0.3,1,0.5,1.4,0.9c3.6,3.5,7.1,7.1,10.7,10.7c2,2,4.1,4.1,6.2,6.2c3-1.5,6-2.4,9,0.3c3.6,3.4,4.8,7.1,2.2,11.6
		c2.1,2.3,4.1,4.6,6.3,6.8c12.9,13.2,25.9,26.4,38.9,39.5c4,4,8.1,8,12.1,12c0.5,0.4,1,0.9,1.2,1.5c0.2,0.5,0.1,1.3-0.2,1.7
		c-0.2,0.3-1.1,0.3-1.5,0.1c-0.6-0.2-1-0.7-1.5-1.2c-8.3-7.7-16.5-15.6-24.9-23.2c-9.5-8.6-19.1-17.1-28.6-25.6
		C268.1,260.2,265.5,258,263,255.7z M258.9,242.4c-2.3,2.4-3.4,5.4-3.1,8.3c0.3,2.8,1.3,3.5,3.8,2.4c1.8-0.8,3.4-2,5-3.2
		c1.7-1.2,2.2-3,1.7-4.9c-0.4-1.8-0.7-3.8-2.9-4.4C261.5,240.1,260,241.4,258.9,242.4z M269.9,257.1c0-0.1,0.1-0.1,0.1-0.2
		c-1.1-1.1-2.2-2.2-3.2-3.2c-0.1,0.1-0.2,0.2-0.3,0.3C267.6,255,268.7,256,269.9,257.1z"/>
</g>
<g id="L5">
	<path class="st1" d="M259.2,125.7l1.6,112.1l10.2,6L264,252l-1.3,121.6C387.9,394.1,470.3,142.9,259.2,125.7z"/>
	<path d="M256.6,252.7c-1.3-0.7-2.5-1.2-3.5-1.9c-2.6-1.7-3.3-4.1-1.8-6.9c0.7-1.3,1.6-2.6,2.8-3.5c1.3-1,1.6-2.1,1.5-3.7
		c-0.6-7.9-1.1-15.8-1.6-23.7c-0.2-2.9-0.4-5.7-0.5-8.6c0-1.1-0.3-2.4,1.1-2.8c1-0.3,1.7,0.6,1.9,2.5c0.6,6,1.1,11.9,1.5,17.9
		c0.4,4.8,0.7,9.6,1,14.4c0,0.3,0.1,0.6,0.3,1.1c0.8-0.1,1.6-0.3,2.4-0.4c0.7-8.5,1.4-16.9,2.1-25.3c0.2,0,0.4,0,0.6-0.1
		c0.1,0.5,0.4,1.1,0.4,1.6c0,5,0,10.1,0,15.1c0,2.9,0,5.7,0,8.8c3.2,1.1,5.9,2.5,6.1,6.6c0.2,4.9-1.6,8.4-6.6,9.7
		c-0.1,3.2-0.3,6.2-0.4,9.2c-0.2,18.5-0.3,36.9-0.5,55.4c0,5.7,0.1,11.4,0.1,17c0,0.6,0.1,1.3-0.2,1.9c-0.2,0.5-0.8,1-1.3,1
		c-0.3,0-0.9-0.5-1.1-1c-0.2-0.6-0.2-1.2-0.2-1.9c-0.4-11.3-0.7-22.7-1.2-34c-0.6-12.8-1.4-25.5-2.2-38.3
		C257.1,259.5,256.9,256.1,256.6,252.7z M263.2,240.4c-3.3,0-6.3,1.4-8.1,3.7c-1.7,2.2-1.5,3.4,1,4.4c1.8,0.7,3.8,1,5.8,1.3
		c2,0.3,3.6-0.6,4.7-2.3c1-1.5,2.2-3.2,1.1-5.1C266.6,240.6,264.7,240.5,263.2,240.4z M260.6,258.5c0.1,0,0.1-0.1,0.2-0.1
		c0-1.5,0-3.1,0-4.6c-0.2,0-0.3,0-0.5,0C260.4,255.4,260.5,257,260.6,258.5z"/>
</g>
<g id="L6">
	<path class="st1" d="M256.6,123.7l2.7,116.7l8.7,5l0.5,4.8l-4.5,4.4l-7.7-0.9l-85.8,81C338.5,507.8,530.7,149.6,256.6,123.7z"/>
	<path d="M251.9,249.5c-0.4-1.4-0.9-2.6-1.1-3.8c-0.6-3,0.6-5.2,3.6-6.1c1.4-0.4,3-0.7,4.5-0.5c1.7,0.2,2.7-0.4,3.7-1.5
		c5.2-6,10.4-12,15.6-17.9c1.9-2.2,3.8-4.3,5.8-6.4c0.7-0.8,1.5-1.9,2.8-1.2c0.9,0.5,0.8,1.6-0.5,3.1c-3.8,4.6-7.7,9.2-11.6,13.8
		c-3.1,3.6-6.3,7.2-9.4,10.9c-0.2,0.2-0.3,0.5-0.6,1c0.7,0.5,1.3,0.9,2,1.4c6.5-5.5,12.9-11,19.4-16.4c0.2,0.1,0.3,0.3,0.5,0.4
		c-0.3,0.5-0.5,1-0.9,1.4c-3.5,3.6-7.1,7.1-10.7,10.7c-2,2-4.1,4.1-6.2,6.2c1.5,3,2.4,6-0.3,9c-3.4,3.6-7.1,4.8-11.6,2.2
		c-2.3,2.1-4.6,4.1-6.8,6.3c-13.2,12.9-26.4,25.9-39.5,38.9c-4,4-8,8.1-12,12.1c-0.4,0.5-0.9,1-1.5,1.2c-0.5,0.2-1.3,0.1-1.7-0.2
		c-0.3-0.2-0.3-1.1-0.1-1.5c0.2-0.6,0.7-1,1.2-1.5c7.7-8.3,15.6-16.5,23.2-24.9c8.6-9.5,17.1-19.1,25.6-28.6
		C247.5,254.6,249.7,252,251.9,249.5z M265.2,245.4c-2.4-2.3-5.4-3.4-8.3-3.1c-2.8,0.3-3.5,1.3-2.4,3.8c0.8,1.8,2,3.4,3.2,5
		c1.2,1.7,3,2.2,4.9,1.7c1.8-0.4,3.8-0.7,4.4-2.9C267.5,248,266.3,246.6,265.2,245.4z M250.6,256.4c0.1,0,0.1,0.1,0.2,0.1
		c1.1-1.1,2.2-2.2,3.2-3.2c-0.1-0.1-0.2-0.2-0.3-0.3C252.7,254.1,251.6,255.3,250.6,256.4z"/>
</g>
<g id="L7">
	<path class="st1" d="M255.5,123.2l3,115.7l2.5,1.3l9.2,10.6l-9.1,6.6l-10.9-11.6l-112.9,4.4c2.5,13.9,0.9,27.4,4.6,38.7
		C230.3,555.8,600.9,172.1,255.5,123.2z"/>
	<path d="M253.8,243.8c0.7-1.3,1.2-2.5,1.9-3.5c1.7-2.6,4.1-3.3,6.9-1.8c1.3,0.7,2.6,1.6,3.5,2.8c1,1.3,2.1,1.6,3.7,1.5
		c7.9-0.6,15.8-1.1,23.7-1.6c2.9-0.2,5.7-0.4,8.6-0.5c1.1,0,2.4-0.3,2.8,1.1c0.3,1-0.6,1.7-2.5,1.9c-6,0.6-11.9,1.1-17.9,1.5
		c-4.8,0.4-9.6,0.7-14.4,1c-0.3,0-0.6,0.1-1.1,0.3c0.1,0.8,0.3,1.6,0.4,2.4c8.5,0.7,16.9,1.4,25.3,2.1c0,0.2,0,0.4,0.1,0.6
		c-0.5,0.1-1.1,0.4-1.6,0.4c-5,0-10.1,0-15.1,0c-2.9,0-5.7,0-8.8,0c-1.1,3.2-2.5,5.9-6.6,6.1c-4.9,0.2-8.4-1.6-9.7-6.6
		c-3.2-0.1-6.2-0.3-9.2-0.4c-18.5-0.2-36.9-0.3-55.4-0.5c-5.7,0-11.4,0.1-17,0.1c-0.6,0-1.3,0.1-1.9-0.2c-0.5-0.2-1-0.8-1-1.3
		c0-0.3,0.5-0.9,1-1.1c0.6-0.2,1.2-0.2,1.9-0.2c11.3-0.4,22.7-0.7,34-1.2c12.8-0.6,25.5-1.4,38.3-2.2
		C247,244.3,250.4,244,253.8,243.8z M266,250.4c0-3.3-1.4-6.3-3.7-8.1c-2.2-1.7-3.4-1.5-4.4,1c-0.7,1.8-1,3.8-1.3,5.8
		c-0.3,2,0.6,3.6,2.3,4.7c1.5,1,3.2,2.2,5.1,1.1C265.8,253.8,266,251.9,266,250.4z M247.9,247.8c0,0.1,0.1,0.1,0.1,0.2
		c1.5,0,3.1,0,4.6,0c0-0.2,0-0.3,0-0.5C251,247.6,249.5,247.7,247.9,247.8z"/>
</g>
<g id="L8">
	<path class="st1" d="M258.4,123.7l3,114.9l4,1.6l0.6,6.7l-7.6,7.9l-5.8-4.6l3.6-13.1l-83.5-74.5c-24.3,10.8-49.1,91.3-38.2,119.3
		c66,169.5,312.3,97.6,242.8-88C365.9,163.7,306.5,116.9,258.4,123.7z"/>
	<path d="M257.6,237.7c1.4-0.4,2.6-0.9,3.8-1.1c3-0.6,5.2,0.6,6.1,3.6c0.4,1.4,0.7,3,0.5,4.5c-0.2,1.7,0.4,2.7,1.5,3.7
		c6,5.2,12,10.4,17.9,15.6c2.2,1.9,4.3,3.8,6.4,5.8c0.8,0.7,1.9,1.5,1.2,2.8c-0.5,0.9-1.6,0.8-3.1-0.5c-4.6-3.8-9.2-7.7-13.8-11.6
		c-3.6-3.1-7.2-6.3-10.9-9.4c-0.2-0.2-0.5-0.3-1-0.6c-0.5,0.7-0.9,1.3-1.4,2c5.5,6.5,11,12.9,16.4,19.4c-0.1,0.2-0.3,0.3-0.4,0.5
		c-0.5-0.3-1-0.5-1.4-0.9c-3.6-3.5-7.1-7.1-10.7-10.7c-2-2-4.1-4.1-6.2-6.2c-3,1.5-6,2.4-9-0.3c-3.6-3.4-4.8-7.1-2.2-11.6
		c-2.1-2.3-4.1-4.6-6.3-6.8c-12.9-13.2-25.9-26.4-38.9-39.5c-4-4-8.1-8-12.1-12c-0.5-0.4-1-0.9-1.2-1.5c-0.2-0.5-0.1-1.3,0.2-1.7
		c0.2-0.3,1.1-0.3,1.5-0.1c0.6,0.2,1,0.7,1.5,1.2c8.3,7.7,16.5,15.6,24.9,23.2c9.5,8.6,19.1,17.1,28.6,25.6
		C252.5,233.2,255.1,235.5,257.6,237.7z M261.7,251c2.3-2.4,3.4-5.4,3.1-8.3c-0.3-2.8-1.3-3.5-3.8-2.4c-1.8,0.8-3.4,2-5,3.2
		c-1.7,1.2-2.2,3-1.7,4.9c0.4,1.8,0.7,3.8,2.9,4.4C259.1,253.3,260.6,252,261.7,251z M250.7,236.3c0,0.1-0.1,0.1-0.1,0.2
		c1.1,1.1,2.2,2.2,3.2,3.2c0.1-0.1,0.2-0.2,0.3-0.3C253,238.4,251.9,237.4,250.7,236.3z"/>
</g>
<g id="L9">
	<g>
		<path d="M194.8,126.4c-0.9-2.1-1.8-4.1-2.6-6.1c-5.2-13.4-6.1-27.1-2.3-40.9c3.2-11.7,10.4-20.6,20.3-27.4
			c9.1-6.3,19.4-9.8,30.2-11.6c14-2.4,27.9-2,41.6,1.8c14,3.9,26.6,10.4,37.1,20.7c6.5,6.4,11.3,13.9,13.4,22.9
			c1.7,7.1,1.3,14.1,0,21.2c-1.2,6.3-3.1,12.4-5.4,18.7c17.2,9.3,32,21.4,44.3,36.7c3.9-2.7,7.7-5.3,11.5-7.9
			c-0.4-0.6-0.7-1.1-1-1.7c-0.5-1-1.1-2-1.4-3c-1.4-4.4,0.3-7.3,4.9-8.3c8.3-1.9,17,3.4,18.7,11.3c1.1,5.1-1.1,9.3-6,11.1
			c-2.3,0.9-4.7,1.3-7.3,1c-0.6-0.1-1.4,0.2-1.9,0.6c-3.1,2.6-6.2,5.3-9.4,8.1c0.4,0.7,0.8,1.4,1.2,2c10.4,16.5,17,34.3,19.9,53.6
			c4.7,31.5-0.7,61.2-15.9,89c-11,20.1-26.3,36.5-45.5,49.2c-14.1,9.3-29.4,15.9-45.8,19.7c-14.9,3.5-30.1,4.6-45.3,3
			c-23.3-2.4-44.8-10-64.4-23c-19.1-12.7-34.1-29.2-45.2-49.2c-7.8-14-12.9-29-15.5-44.9c-2-12.1-2.4-24.2-1.2-36.3
			c1.2-12.9,4.3-25.3,8.9-37.4c7.4-19.3,19-35.9,33.7-50.2c8.4-8.2,17.8-15.3,28.1-21.2C193.2,127.3,194,126.9,194.8,126.4z
			 M124.8,249.9c-0.3,74.6,60.3,136.8,136.6,137c74.2,0.2,135.6-59.2,137.1-134.3c1.5-72-54.8-138-135.6-139.4
			C188.5,112,124.5,173.7,124.8,249.9z M276.7,110.6c13.6,1.4,26.8,4.5,39.5,10c0.6-1.4,1.1-2.6,1.6-3.8
			c7.1-19.5,0.1-40.4-17.1-50.9c-6.1-3.8-12.9-6-19.9-7.4c-11.1-2.2-22.3-2.1-33.4-0.3c-8.1,1.3-16,3.5-23.1,7.6
			c-13.8,8-21,19.8-20.4,35.9c0.2,6.1,1.8,12,3.8,17.8c0.1,0.3,0.4,0.5,0.7,0.8c12.6-5.7,26-8.4,39.7-10.1c-0.9-5.1-1.6-10-3.2-14.8
			c-1.2,0.1-2.3,0.1-3.4,0.2c-6.9,0.3-13.7,0.6-20.6,0.9c-0.6,0-1.1,0-1.7,0c-1.2-0.2-1.7-1.1-1-2.1c1.3-1.8,1.4-3.9,1.5-6
			c0.1-4.6,0.1-9.3,0.1-13.9c0-2,0.4-2.4,2.3-2.6c2.2-0.1,4.5-0.3,6.7-0.2c8.2,0.3,16.5,0.7,24.7,1c12.3,0.4,24.6,1.1,36.9,0.5
			c4.1-0.2,8.2-0.1,12.2,0c2.3,0.1,2.7,0.6,2.7,2.8c-0.1,4.8-0.3,9.6-0.6,14.4c-0.1,2.6-0.8,2.9-3.4,2.6c-7.1-0.8-14.3-1.6-21.5-2.3
			c-0.8-0.1-1.7,0-2.5,0.1C277,97.4,276.8,103.9,276.7,110.6z M324.8,124.4c0.3-1,0.7-1.7,0.9-2.5c1.2-4.8,2.5-9.6,3.5-14.5
			c1.3-6.6,1.5-13.3,0-20c-2-8.8-6.8-16-13.3-22.1c-9.8-9.3-21.5-15.2-34.3-18.9c-13.5-3.8-27.1-4-40.9-1.6
			c-9.4,1.6-18.3,4.7-26.4,9.8C202.4,62.3,195,72.9,192.9,87c-1.5,9.8-0.8,19.5,1.8,29c0.8,2.9,1.8,5.8,2.7,8.9
			c2.5-1.2,4.6-2.2,6.7-3.2c-1.3-3.8-2.7-7.3-3.6-10.9c-4-15.2-1-28.8,9.8-40.5c6.3-6.8,14.3-11,23-13.7c13.5-4.3,27.4-5.4,41.5-3.8
			c8.1,0.9,15.9,3,23.2,6.5c23.2,11.1,32.3,37.1,21.1,60.2c-0.3,0.6-0.5,1.1-0.9,1.9C320.5,122.4,322.6,123.4,324.8,124.4z
			 M302.3,76.5c-0.7-0.1-1.2-0.2-1.7-0.2c-3.6,0-7.2,0.1-10.8,0.1c-9.5-0.1-19-0.1-28.5-0.3c-3.8-0.1-7.7-0.3-11.5-0.5
			c-8.1-0.3-16.3-0.7-24.4-1c-0.8,0-1.7,0.1-2.6,0.2c-0.2,6.2-0.4,12.2-0.6,18.4c0.8,0,1.6,0,2.4,0c6.5-0.3,13.1-0.7,19.6-1.1
			c2.5-0.1,3.1,0.2,3.8,2.6c0.7,2.8,1.4,5.6,1.9,8.4c0.4,2,0.6,4.1,0.8,6.1c7.5,0,14.9,0,22.5,0c0.1-0.9,0.2-1.7,0.2-2.4
			c0.1-5.4,0.2-10.7,0.3-16.1c0.1-3.1,0.9-3.9,3.9-3.7c5.6,0.4,11.1,1,16.7,1.6c2.4,0.3,4.8,0.7,7.6,1.1
			C301.9,85.3,302.4,81,302.3,76.5z M377.8,170.4c1-0.8,1.7-1.4,2.3-2c2.4-2,4.7-4.1,7-6.1c1-0.9,2.1-1.6,3.5-1.1
			c1.6,0.6,3.2,0.2,4.7-0.2c4.7-1.2,6.4-4.5,4.7-9.1c-0.3-0.9-0.8-1.8-1.4-2.5c-3.2-3.9-7.4-5.3-12.4-4.5c-2.4,0.4-3.1,1.6-2.1,3.9
			c0.5,1.3,1.4,2.5,2.1,3.7c1.5,2.3,1.3,3.1-1.1,4.5c-3.1,1.9-6.3,3.8-9.4,5.8c-0.7,0.5-1.3,1.1-2.1,1.7
			C375.1,166.6,376.4,168.4,377.8,170.4z"/>
		<path class="st2" d="M124.8,249.9c-0.3-76.2,63.6-138,138.1-136.7c80.9,1.4,137.1,67.4,135.6,139.4
			c-1.5,75.1-63,134.5-137.1,134.3C185.1,386.7,124.5,324.6,124.8,249.9z M261.1,123.2C261.1,123.2,261.1,123.3,261.1,123.2
			c-3,0.2-6.1,0.3-9.1,0.4c-6.7,0.2-13.2,1.1-19.7,2.7c-30,7.3-54.1,23.8-72.7,48.2c-13.9,18.2-21.6,38.8-24.2,61.5
			c-1.7,14.3-0.9,28.5,2.4,42.4c8.2,34.3,27.3,61,57.1,79.8c17.9,11.2,37.6,17.4,58.8,18.7c12.3,0.8,24.3-0.1,36.2-2.9
			c34.8-8.3,61.9-27.6,80.4-58.1c17.5-28.7,22.4-59.9,15.6-92.8c-3.1-14.8-8.8-28.5-17-41.3c-11.4-17.8-26.2-32-44.6-42.4
			c-13.2-7.6-27.4-12.7-42.6-14.7c-4.4-0.6-8.7-2-13.2-1.6C266.1,123.4,263.6,123.2,261.1,123.2z"/>
		<path class="st2" d="M324.8,124.4c-2.3-1-4.3-2-6.5-3c0.4-0.8,0.6-1.3,0.9-1.9c11.2-23,2.1-49.1-21.1-60.2
			c-7.4-3.5-15.1-5.6-23.2-6.5c-14.1-1.6-28-0.5-41.5,3.8c-8.7,2.7-16.7,6.9-23,13.7c-10.8,11.6-13.8,25.3-9.8,40.5
			c0.9,3.6,2.4,7.1,3.6,10.9c-2.1,1-4.3,2-6.7,3.2c-1-3.1-1.9-6-2.7-8.9c-2.6-9.5-3.4-19.2-1.8-29c2.2-14.1,9.5-24.7,21.5-32.3
			c8.1-5.2,17-8.2,26.4-9.8c13.7-2.4,27.4-2.2,40.9,1.6c12.9,3.6,24.6,9.6,34.3,18.9c6.5,6.1,11.2,13.3,13.3,22.1
			c1.5,6.7,1.3,13.4,0,20c-0.9,4.9-2.3,9.6-3.5,14.5C325.5,122.7,325.2,123.4,324.8,124.4z"/>
		<path class="st3" d="M302.3,76.5c0.1,4.4-0.4,8.8-0.4,13.4c-2.7-0.4-5.1-0.8-7.6-1.1c-5.6-0.6-11.1-1.2-16.7-1.6
			c-3-0.2-3.8,0.7-3.9,3.7c-0.1,5.4-0.2,10.7-0.3,16.1c0,0.8-0.1,1.6-0.2,2.4c-7.6,0-14.9,0-22.5,0c-0.3-2.1-0.4-4.1-0.8-6.1
			c-0.5-2.8-1.2-5.6-1.9-8.4c-0.7-2.5-1.3-2.8-3.8-2.6c-6.5,0.4-13.1,0.7-19.6,1.1c-0.8,0-1.6,0-2.4,0c0.2-6.2,0.4-12.2,0.6-18.4
			c0.9-0.1,1.7-0.2,2.6-0.2c8.1,0.3,16.3,0.6,24.4,1c3.8,0.2,7.7,0.4,11.5,0.5c9.5,0.1,19,0.2,28.5,0.3c3.6,0,7.2-0.1,10.8-0.1
			C301.1,76.3,301.6,76.4,302.3,76.5z"/>
		<path class="st3" d="M377.8,170.4c-1.4-2-2.7-3.8-4.1-5.8c0.8-0.6,1.4-1.2,2.1-1.7c3.1-2,6.2-3.9,9.4-5.8c2.4-1.4,2.6-2.3,1.1-4.5
			c-0.8-1.2-1.6-2.4-2.1-3.7c-0.9-2.3-0.3-3.5,2.1-3.9c4.9-0.9,9.1,0.6,12.4,4.5c0.6,0.7,1,1.6,1.4,2.5c1.8,4.6,0.1,7.9-4.7,9.1
			c-1.5,0.4-3.1,0.8-4.7,0.2c-1.4-0.5-2.5,0.3-3.5,1.1c-2.4,2-4.7,4.1-7,6.1C379.5,169,378.8,169.5,377.8,170.4z"/>
		<path d="M261.1,123.2c2.5,0,5,0.2,7.4,0c4.5-0.4,8.8,1.1,13.2,1.6c15.2,2,29.3,7.1,42.6,14.7c18.3,10.4,33.2,24.6,44.6,42.4
			c8.1,12.8,13.9,26.5,17,41.3c6.8,32.9,1.9,64.1-15.6,92.8c-18.6,30.5-45.7,49.8-80.4,58.1c-11.9,2.8-24,3.7-36.2,2.9
			c-21.2-1.4-40.9-7.5-58.8-18.7c-29.9-18.7-48.9-45.5-57.1-79.8c-3.3-14-4.1-28.1-2.4-42.4c2.6-22.6,10.4-43.3,24.2-61.5
			c18.6-24.4,42.7-40.8,72.7-48.2c6.5-1.6,13-2.5,19.7-2.7C255,123.5,258.1,123.4,261.1,123.2C261.1,123.3,261.1,123.2,261.1,123.2z
			 M261.3,127.1c-1.9,0-3.8,0-5.8,0c-18.1,0.3-35.1,5.2-51,13.5c-15.7,8.3-29,19.5-40,33.4c-14.9,18.8-23.3,40.3-25.7,64.1
			c-1.4,13.8-0.5,27.5,2.8,41c5.3,21.7,15.7,40.6,31.2,56.7c11.9,12.4,25.9,21.8,41.7,28.4c16.3,6.8,33.4,9.8,51,9.3
			c15.2-0.5,29.9-3.7,44-9.6c15.1-6.4,28.3-15.4,39.9-27c7.9-7.9,14.6-16.8,20-26.6c9-16.3,14.2-33.6,15.4-52.2
			c0.8-12.9-0.3-25.6-3.4-38.1c-5.6-22.3-16.5-41.7-33-57.8C324.3,138.7,295.1,126.9,261.3,127.1z"/>
		<path d="M176.7,168.7c0.3,0.2,0.9,0.5,1.4,0.9c3.6,2.7,7.1,5.4,10.7,8c0.8,0.6,1.4,1.4,0.8,2.4c-0.4,0.9-1.5,1.1-2.7,0.4
			c-1-0.6-1.9-1.2-2.7-1.9c-2.5-2.1-4.9-4.3-7.3-6.5c-0.6-0.5-1.1-1.2-1.4-1.9C175.1,169.3,175.6,168.6,176.7,168.7z"/>
		<path d="M371.2,255.2c-1.9-0.2-4-0.4-6-0.6c-0.7-0.1-1.4-0.2-2.1-0.5c-0.4-0.2-0.9-0.8-0.9-1.2c0-0.4,0.6-0.8,1-1.1
			c0.4-0.2,0.9-0.2,1.4-0.2c3.3-0.2,6.7-0.4,10-0.6c1.4-0.1,2.4,0.6,2.5,1.6c0.1,1.1-0.6,2-2,2.2C374,255.1,372.7,255.1,371.2,255.2
			z"/>
		<path d="M151.2,253.8c0.3,0,0.7,0,0.9,0.1c0.5,0.4,1.3,0.8,1.4,1.4c0.1,0.5-0.4,1.6-0.9,1.7c-3.3,1.1-6.5,2-9.9,2.8
			c-0.9,0.2-1.7-0.4-2-1.3c-0.3-1,0.1-1.7,0.9-2.3c0.4-0.2,0.9-0.5,1.3-0.6c2.7-0.7,5.4-1.4,8.1-2
			C151.2,253.7,151.2,253.8,151.2,253.8z"/>
		<path d="M355.9,173.3c-0.6,0.8-0.9,1.5-1.5,1.9c-3,2.1-6.1,4.1-9.2,6.1c-0.4,0.2-0.9,0.4-1.4,0.4c-0.9,0-1.4-0.8-1-1.6
			c0.2-0.3,0.4-0.7,0.7-0.9c2.9-2.2,5.8-4.4,8.8-6.6c0.5-0.3,1.2-0.6,1.8-0.5C354.7,172.1,355.2,172.8,355.9,173.3z"/>
		<path d="M341.3,321.4c0.3,0.1,1,0.3,1.5,0.6c2.3,1.6,4.5,3.2,6.8,4.8c0.3,0.2,0.7,0.5,0.8,0.9c0.1,0.7,0.3,1.6,0.1,2.2
			c-0.4,0.9-1.4,0.9-2.3,0.7c-0.4-0.1-0.8-0.3-1-0.6c-2.2-1.9-4.5-3.8-6.7-5.8c-0.3-0.3-0.5-0.6-0.7-1
			C339.3,322.2,339.8,321.4,341.3,321.4z"/>
		<path d="M172.7,333.7c-1.1,0-1.6-0.7-1.1-1.6c0.2-0.3,0.4-0.7,0.7-0.9c2.2-1.8,4.3-3.5,6.5-5.2c0.3-0.2,0.7-0.5,1-0.5
			c0.7,0.1,1.6,0.2,2.1,0.6c0.7,0.6,0.5,1.5,0,2.2c-0.2,0.3-0.4,0.5-0.6,0.7c-2.6,1.5-5.2,3-7.8,4.5
			C173.3,333.6,172.9,333.6,172.7,333.7z"/>
		<path d="M256.7,142.6c0-1.5-0.1-3,0-4.5c0-0.4,0.5-0.9,0.8-1.3c0.4,0.4,1.2,0.7,1.3,1.1c0.5,3.1,0.9,6.3,1.4,9.4
			c0,0.2,0,0.5-0.1,0.7c-0.2,0.8-0.6,1.5-1.6,1.5c-1,0-1.5-0.6-1.6-1.5c-0.1-1-0.2-2.1-0.2-3.1C256.7,144.2,256.7,143.4,256.7,142.6
			C256.7,142.6,256.7,142.6,256.7,142.6z"/>
		<path d="M265.4,355.5c0,1.4,0.1,2.7,0,4.1c-0.1,0.9-0.5,1.7-1.6,1.7c-1.1,0-1.6-0.8-1.5-1.8c0.1-2.8,0.3-5.6,0.4-8.4
			c0-0.3,0.1-0.7,0.3-0.9c0.3-0.3,0.8-0.7,1.1-0.7c0.4,0,0.9,0.5,0.9,0.9c0.2,1.3,0.3,2.7,0.3,4
			C265.4,354.8,265.3,355.1,265.4,355.5C265.4,355.5,265.4,355.5,265.4,355.5z"/>
		<path class="st4" d="M257.6,252.8c-1.5-0.1-3.5-0.2-4.5-2c-1.1-1.9,0.1-3.6,1.1-5.1c1.1-1.7,2.7-2.6,4.7-2.3c2,0.3,4,0.6,5.8,1.3
			c2.6,1,2.7,2.2,1,4.4C263.9,251.4,261,252.8,257.6,252.8z"/>
		<path class="st5" d="M260.2,234.7c0.1,1.6,0.2,3.1,0.3,4.7c-0.2,0-0.3,0-0.5,0c0-1.5,0-3.1,0-4.6
			C260.1,234.8,260.1,234.7,260.2,234.7z"/>
	</g>
</g>
<g id="L10">
	<g>
		<g>
			<defs>
				<rect id="SVGID_1_" x="15.5" y="-6.3" width="503.4" height="459.4"/>
			</defs>
			<clipPath id="SVGID_2_">
				<use xlink:href="#SVGID_1_"  style="overflow:visible;"/>
			</clipPath>
			<g class="st6">
				<defs>
					<rect id="SVGID_3_" x="15.5" y="-6.3" width="503.4" height="459.4"/>
				</defs>
				<clipPath id="SVGID_4_">
					<use xlink:href="#SVGID_3_"  style="overflow:visible;"/>
				</clipPath>
				<path class="st7" d="M249.8,109.4c0.4-4.8,0.4-9.4,1.1-13.9c1.9-12.6,7-23.9,15.7-33.3c7.5-8.2,17-12.6,27.7-14.6
					c14-2.5,27.6-0.4,40.8,4.2c20.1,7,36.2,19.2,47.8,37.1c4.7,7.3,8.1,15.2,9.6,23.9c1.7,10.3-0.2,19.9-5.2,28.9
					c-3.9,6.9-8.8,12.9-14.2,18.6c-0.4,0.5-0.9,0.9-1.3,1.4c-0.1,0.1-0.1,0.3-0.3,0.6c5.9,7.6,11,15.8,15.4,24.4
					c4.4,8.5,7.4,17.7,10.3,26.9c4.6-0.9,9-1.7,13.6-2.6c-0.1-0.9-0.2-1.7-0.2-2.4c0-0.5-0.1-1-0.1-1.4c-0.1-5.8,3.3-8.5,8.9-6.8
					c6.3,1.9,10.5,6.1,11.7,12.7c0.3,1.9,0.1,4-0.4,5.9c-1.2,4.6-4.5,6.9-9.2,6.8c-2.6,0-5.1-0.6-7.3-1.9c-0.5-0.3-1.2-0.6-1.7-0.5
					c-4.1,1.2-8.1,2.5-12.1,3.7c6.1,46.9-6.3,87.9-39.5,121.7c-25.9,26.3-57.8,40.1-94.6,41.3c-74,2.4-135.6-51.7-144.2-123.3
					c-4.7-39.4,5.6-74.9,30.5-105.8C177.5,130,210.8,114.1,249.8,109.4 M258.8,386.5c74.7,1.6,137.8-57.8,139.3-133.9
					c1.6-78.9-62-138.8-134.5-139.7C189,112,124.8,170.3,124.5,249.5C124.1,324.1,184,385.2,258.8,386.5 M363.4,153.2
					c2.8-2.4,5.2-5,7.2-7.9c10.4-14.4,10.8-33.4,0.9-48.1c-2.9-4.3-6.5-7.9-10.4-11.2c-10.5-8.8-22.6-14.4-35.8-17.7
					c-9.1-2.3-18.2-3.5-27.6-1.8c-10.7,1.9-19.4,7.1-25.5,16.3c-3.4,5.1-5.4,10.9-6.5,16.9c-0.6,3.1-1.2,6.2-1,9.8
					c14-0.2,27.3,2.8,40.6,6.7c1.3-5.1,2.6-9.8,3.1-14.8c-0.5-0.2-0.9-0.4-1.3-0.5c-5.4-2-10.8-4-16.1-6.1c-2.1-0.8-4.2-1.7-6.2-2.6
					c-1.5-0.7-1.4-1.5-0.3-2.7c1.2-1.2,2.4-2.6,3.2-4.1c2-4,3.8-8.1,5.6-12.2c1.4-3.3,1.5-3.6,4.9-2c7.4,3.4,14.8,6.9,22.1,10.4
					c13.3,6.4,26.4,13,40.1,18.4c3.3,1.3,6.5,2.8,9.6,4.3c2.1,1,2.3,1.7,1.3,3.8c-2,4.3-4.1,8.5-6.2,12.7c-1.2,2.4-1.9,2.4-4.3,1
					c-6.3-3.7-12.7-7.3-19.1-11c-0.5-0.3-1.1-0.5-1.9-0.7c-2.8,6.1-5.6,12-8.5,18.1C343.2,134.8,354,142.9,363.4,153.2 M260.5,109.1
					c0.5-4.7,0.7-9,1.5-13.1c2.9-15,11.2-25.7,25.4-31.7c8.3-3.5,17.1-4.1,25.9-3.1c13.5,1.4,26.2,5.6,38.1,12.3
					c8.7,4.9,16.5,11,22.5,19.1c14.4,19.2,11.4,45.1-6.8,60.6c-0.6,0.5-1.2,1-1.9,1.7c1.6,1.8,3.1,3.5,4.7,5.3
					c0.4-0.4,0.8-0.6,1-0.9c4.7-5.4,9.1-11.1,12.7-17.4c5.7-10,7.4-20.5,4.5-31.7c-2.4-9.4-7.1-17.6-13-25.2
					c-12.6-15.9-28.9-26-48.3-31.1c-10.1-2.7-20.4-3.7-30.9-1.9c-13.8,2.4-24.4,9.3-31.9,21.2c-6.6,10.6-9.6,22.2-10.6,34.5
					c0,0.4,0,0.8,0.1,1.3c0.6,0,1,0.1,1.5,0.1C256.8,109.1,258.7,109.1,260.5,109.1 M368.7,107.2c-1.3-0.6-2.2-1-3.1-1.4
					c-15.8-6.3-31.2-13.7-46.4-21.3c-6.7-3.4-13.5-6.6-20.2-9.9c-0.8-0.4-1.6-0.6-2.4-1c-2.8,5.7-5.4,11.2-8.1,16.7
					c0.6,0.3,1.2,0.6,1.9,0.9c6.2,2.4,12.4,4.7,18.6,7c2.4,0.9,2.8,1.4,2.5,3.9c-0.2,1.5-0.4,3-0.8,4.5c-0.8,3.3-1.7,6.6-2.5,9.9
					c6.8,3.1,13.6,6.2,20.5,9.3c0.2-0.3,0.4-0.6,0.5-1c2.3-5,4.7-10,7-15c1.9-4.1,2.6-4.4,6.5-2.2c6.1,3.4,12,7,18,10.5
					c0.6,0.3,1.2,0.7,2,1.2C364.8,115.3,366.7,111.4,368.7,107.2 M399.8,223.6c1.3-0.4,2.1-0.6,2.9-0.9c3-0.9,5.9-1.9,8.9-2.8
					c1.2-0.4,2.5-0.5,3.6,0.4c1.7,1.5,3.7,1.8,5.8,1.8c3.6,0.1,5.7-1.7,6.3-5.2c1-6-3.7-12.4-9.7-13.3c-2.5-0.4-3.4,0.3-3.4,2.9
					c0,1.4,0.3,2.8,0.5,4.3c0.4,2.5-0.1,3.2-2.6,3.5c-2.5,0.3-5.1,0.6-7.6,1c-2,0.3-4,0.8-6.2,1.2
					C398.8,219.1,399.3,221.2,399.8,223.6"/>
				<path class="st7" d="M442.8,263.2c0.5,0.5,1,1,1.5,1.4c2.7,2.7,5.6,5.3,8.1,8.2c9.2,10.3,16.3,21.8,17.6,35.9
					c0.6,5.8,0.1,11.5-1.8,17c-1.7,5-4.5,9-8.5,12.5c-7.2,6.2-15.4,9.8-24.8,11c-3.1,0.4-6.2,0.4-9.2-0.6c0.4-0.1,0.8-0.1,1.2-0.2
					c8.5-0.2,15.1-4,20-10.9c0.6-0.8,1-1.8,1.3-2.8c1.5-4.4,3-8.8,4.5-13.2c3.4-10,3.6-20,0.9-30.2c-0.6-2.2-1.3-4.5-2-6.6
					c-1.5-4.1-2.9-8.3-4.6-12.3c-1.3-3.1-2.8-6-4.3-9.1C442.7,263.4,442.7,263.3,442.8,263.2"/>
				<path class="st7" d="M118.8,129.2c-0.9,0.4-1.7,0.7-2.6,1.2c-5.1,2.6-9.5,6.1-13.2,10.5c-4.6,5.5-9.2,10.8-13,16.9
					c-3.4,5.4-6.7,10.9-10.1,16.3c-1.8,2.9-3.7,5.8-5.5,8.7c-4.7,7.7-6.8,16-4.5,25c0,0.1,0,0.3-0.1,1c-0.5-1-1-1.6-1.1-2.3
					c-1.1-3.8-2.3-7.6-3.1-11.5c-1.1-5.6-1.4-11.2-1.3-16.9c0.2-6.7,1.8-12.9,5-18.8c5.5-10,13.3-17.7,23.2-23.4
					c2.2-1.3,4.6-2.2,7.1-2.9c6.3-1.6,12.7-3,19.1-4.4C118.7,128.7,118.7,128.9,118.8,129.2"/>
				<path class="st7" d="M416.7,265c1.9,3.1,3.9,6.2,5.5,9.5c3.7,7.2,6.2,14.7,7,22.7c0.4,4.3,0.3,8.6-0.7,12.9
					c-2.4,10.2-11.4,18.3-21.8,19.6c-2,0.3-3.4,0.1-5.1-0.6c7.4-0.5,11.2-5.2,13.3-11.6c1.5-4.4,2.4-8.9,3.7-13.4
					c3.3-11.3,2.6-22.6-0.6-33.8c-0.5-1.7-1.3-3.4-1.9-5.1C416.3,265.2,416.5,265.1,416.7,265"/>
				<path class="st7" d="M137.7,147.6c-0.6,0.6-1,1.1-1.5,1.5c-7.3,6.8-12.8,14.8-16.6,24c-2.9,7-6.9,13.5-11.1,19.9
					c-2.8,4.3-5.2,8.8-6.6,13.8c-0.4,1.4-0.6,2.9-0.9,4.7c-0.3-0.5-0.6-0.9-0.6-1.4c-0.2-3-0.6-6.1-0.4-9.1c0.4-7.4,1.8-14.6,5-21.3
					c2.4-5.1,5.5-9.7,9.7-13.6c6.8-6.4,13.8-12.4,21.3-17.8c0.4-0.3,0.8-0.6,1.2-0.8C137.1,147.5,137.3,147.6,137.7,147.6"/>
				<path class="st8" d="M258.8,386.5c-74.8-1.3-134.7-62.4-134.3-137c0.4-79.1,64.5-137.5,139.1-136.6
					c72.5,0.9,136.2,60.8,134.5,139.7C396.6,328.7,333.5,388,258.8,386.5 M261.1,376.9c70.2-0.3,127.2-56.2,127.4-127.6
					c0-10.2-1.2-20.3-3.7-30.2c-2.9-11.1-7-21.7-12.6-31.8c-5.7-10.1-12.8-19.1-20.8-27.5c-8.1-8.5-18-14.5-27.5-21.2
					c-9.8-4.4-19.7-8.9-30.1-11.9c-10.5-3.1-21.4-4.4-32.2-4.3c-71.9,0.9-126.9,56.8-127.3,126.5
					C133.8,318.6,189.3,376.2,261.1,376.9"/>
				<path class="st8" d="M260.5,109.1c-1.8,0-3.7,0-5.6,0c-0.5,0-0.9-0.1-1.5-0.1c0-0.5-0.1-0.9-0.1-1.3
					c0.9-12.3,3.9-23.9,10.6-34.5c7.5-11.9,18.1-18.8,31.9-21.2c10.4-1.8,20.7-0.8,30.9,1.9c19.5,5.2,35.8,15.2,48.3,31.1
					c6,7.5,10.6,15.8,13,25.2c2.9,11.2,1.1,21.7-4.5,31.7c-3.6,6.3-8,12-12.7,17.4c-0.2,0.3-0.6,0.5-1,0.9c-1.6-1.8-3.1-3.5-4.7-5.3
					c0.8-0.7,1.3-1.2,1.9-1.7c18.3-15.5,21.2-41.5,6.8-60.6c-6.1-8.1-13.8-14.2-22.5-19.1c-11.8-6.7-24.5-10.9-38.1-12.3
					c-8.8-0.9-17.6-0.4-25.9,3.1c-14.2,6-22.5,16.7-25.4,31.7C261.2,100.1,261,104.4,260.5,109.1"/>
				<path class="st9" d="M368.7,107.2c-2,4.2-3.9,8.1-5.9,12.2c-0.8-0.5-1.4-0.8-2-1.2c-6-3.5-12-7.1-18-10.5
					c-3.9-2.2-4.6-1.9-6.5,2.2c-2.3,5-4.7,10-7,15c-0.2,0.3-0.4,0.7-0.5,1c-6.9-3.1-13.7-6.3-20.5-9.3c0.8-3.3,1.7-6.5,2.5-9.9
					c0.4-1.5,0.6-3,0.8-4.5c0.3-2.5-0.1-3-2.5-3.9c-6.2-2.3-12.4-4.7-18.6-7c-0.7-0.3-1.3-0.6-1.9-0.9c2.7-5.6,5.4-11.1,8.1-16.7
					c0.8,0.3,1.6,0.6,2.4,1c6.8,3.3,13.5,6.5,20.2,9.9c15.2,7.7,30.6,15,46.4,21.3C366.5,106.1,367.4,106.6,368.7,107.2"/>
				<path class="st9" d="M399.8,223.6c-0.5-2.4-0.9-4.6-1.5-7.1c2.2-0.4,4.2-0.9,6.2-1.2c2.5-0.4,5.1-0.7,7.6-1c2.5-0.3,3-1,2.6-3.5
					c-0.2-1.4-0.5-2.8-0.5-4.3c0-2.6,0.9-3.3,3.4-2.9c6,0.9,10.7,7.4,9.7,13.3c-0.6,3.5-2.7,5.3-6.3,5.2c-2.1,0-4.1-0.3-5.8-1.8
					c-1.1-1-2.4-0.8-3.6-0.4c-3,0.9-5.9,1.8-8.9,2.8C401.9,223,401,223.3,399.8,223.6"/>
				<path class="st7" d="M261.1,376.9c-71.7-0.7-127.3-58.2-126.8-127.8c0.4-69.7,55.4-125.6,127.3-126.5
					c10.9-0.1,21.7,1.2,32.2,4.3c10.4,3.1,20.2,7.5,30.1,11.9c9.4,6.7,19.4,12.7,27.5,21.2c8,8.4,15.1,17.4,20.8,27.5
					c5.7,10,9.8,20.7,12.6,31.8c2.5,9.9,3.8,20,3.7,30.2C388.2,320.7,331.3,376.6,261.1,376.9 M137.7,249.7
					c0.4,68.4,55,123.3,123.4,123.4c67.4,0.2,123.2-53.7,123.6-122.5c0.4-71.4-57.1-124.5-123.6-124.3
					C192.5,126.6,138.4,180.5,137.7,249.7"/>
				<path class="st10" d="M137.7,249.7c0.7-69.2,54.8-123.1,123.4-123.4c66.5-0.3,124,52.8,123.6,124.3
					c-0.4,68.8-56.2,122.7-123.6,122.5C192.8,373,138.2,318.1,137.7,249.7 M259,254.8c-0.5,1.6-1,2.8-1.4,4.1
					c-3.1,8.7-6.1,17.3-9.2,26c-0.3,0.8-0.5,1.7-0.7,2.5c-0.2,0.8-0.2,1.7,0.8,2c0.9,0.4,1.5-0.3,1.9-1c0.3-0.7,0.6-1.5,0.9-2.2
					c3.5-9.7,7.1-19.4,10.6-29.1c0.6-1.5,1.1-2.7,3-2.9c0.8-0.1,1.7-0.6,2.4-1c4.1-2.3,4.8-5.7,1.7-9.3c-1.3-1.5-1.4-2.8-0.7-4.5
					c9.5-25,18.5-50.2,28.9-74.9c0.2-0.5,0.6-1.1,0.5-1.6c-0.1-0.5-0.4-1.2-0.9-1.5c-0.3-0.2-1.1,0.1-1.4,0.4
					c-0.4,0.3-0.6,0.9-0.8,1.4c-1,2.1-2,4.2-2.9,6.3c-8.5,19.9-17.1,39.8-26.5,59.3c-1.5,3-2.9,6-4.4,9c-4.7-0.6-7.7,1.2-9.7,5.5
					c-1.9,4.1-0.2,6.8,2.7,9.4c-0.5,1.1-1,2-1.4,3c-2.5,5.5-5.1,11-7.6,16.6c-0.6,1.3-0.9,2.6-1.3,4c0.2,0.1,0.4,0.2,0.6,0.2
					c4.5-7.3,8.3-15,12.3-22.5C257.3,254.4,258,254.6,259,254.8 M214.6,141.8c0.3,0.9,0.4,1.6,0.7,2.3c1.6,3.4,3.2,6.8,4.8,10.2
					c0.3,0.6,0.7,1.1,1,1.6c0.6,0.8,1.4,1.4,2.4,0.7c0.9-0.5,1-1.4,0.3-2.7c-2.1-3.8-4.3-7.7-6.4-11.5c-0.2-0.4-0.4-0.9-0.8-1.2
					c-0.3-0.3-0.9-0.6-1.2-0.5C215,140.9,214.8,141.5,214.6,141.8 M363.7,300.1c1.2,0,2-0.4,2.3-1.5c0.2-1-0.3-1.7-1.1-2.1
					c-0.3-0.1-0.6-0.2-0.9-0.3c-2.8-1.1-5.6-2.1-8.5-3.2c-0.6-0.2-1.2-0.5-1.8-0.5c-0.5,0-1.4,0.2-1.4,0.4c-0.1,0.5,0.1,1.2,0.4,1.7
					c0.1,0.3,0.5,0.4,0.7,0.6c2.9,2,6,3.6,9.4,4.7C363,299.9,363.4,300,363.7,300.1 M150.2,206.6c0,0.1,0,0.2,0,0.2
					c-0.3,0-0.6,0-1,0c-1,0.1-1.7,0.6-1.8,1.6c-0.2,1.1,0.4,1.9,1.4,2.2c0.7,0.3,1.6,0.3,2.4,0.4c1.9,0.3,3.8,0.5,5.7,0.8
					c0.5,0.1,0.9,0.2,1.4,0.3c0.9,0,1.8-0.2,2.1-1.2c0.3-1-0.3-1.7-1.1-2.1c-0.3-0.2-0.7-0.4-1.1-0.5
					C155.5,207.7,152.8,207.2,150.2,206.6 M303.2,348.2c0,0.2,0,0.3,0.1,0.5c1.5,3.1,2.9,6.2,4.4,9.3c0.1,0.2,0.3,0.4,0.5,0.5
					c0.7,0.1,1.5,0.5,2,0.2c0.5-0.4,0.9-1.2,1-1.9c0.1-0.5-0.2-1.1-0.5-1.6c-1.3-2.2-2.6-4.4-3.9-6.6c-0.4-0.6-0.9-1.1-1.5-1.5
					C304.2,346.3,303.2,346.9,303.2,348.2 M365.6,220.4c0,0.1,0,0.1,0,0.2c3.6-0.7,7.2-1.4,10.8-2.1c0.3-0.1,0.7-0.1,0.9-0.4
					c0.4-0.5,0.9-1.1,0.8-1.5c-0.1-0.5-0.7-1-1.2-1.3c-0.4-0.2-1-0.2-1.4-0.1c-3.5,0.8-7,1.6-10.5,2.4c-0.3,0.1-0.7,0.2-0.9,0.4
					c-0.3,0.4-0.8,0.9-0.7,1.3c0.1,0.4,0.7,0.7,1.2,0.9C364.9,220.5,365.3,220.4,365.6,220.4 M148.9,290.6c2-0.3,4.3-0.6,6.5-1
					c0.5-0.1,1.1-0.3,1.5-0.6c0.8-0.5,1.2-1.3,0.8-2c-0.3-0.5-1-0.9-1.5-1.3c-0.3-0.2-0.8-0.1-1.2,0c-2.8,0.7-5.5,1.4-8.3,2.2
					c-0.3,0.1-0.6,0.2-0.8,0.4c-0.3,0.3-0.6,0.7-0.5,1c0.1,0.4,0.5,0.9,0.8,1C147,290.4,147.8,290.4,148.9,290.6 M304.3,145.7
					c-0.3-0.5-0.6-1.1-1-1.3c-0.2-0.1-0.9,0.4-1.3,0.8c-0.2,0.2-0.3,0.6-0.4,0.9c-1,2.3-2,4.7-3,7c-0.2,0.6-0.5,1.2-0.5,1.8
					c-0.1,1.3,1.2,2.1,2.3,1.4c0.4-0.3,0.9-0.8,1-1.3C302.4,152,303.3,149,304.3,145.7 M218.8,352.9c0.8-0.8,1.6-1.2,1.8-1.9
					c1.1-2.4,2-4.8,3-7.3c0-0.1,0.1-0.1,0.1-0.2c0.2-0.7,0.5-1.5-0.3-1.9c-0.9-0.5-1.5,0.2-1.9,0.9c-0.3,0.4-0.6,0.8-0.8,1.2
					c-0.9,1.8-1.9,3.7-2.8,5.5c-0.2,0.5-0.5,1.1-0.4,1.6C217.6,351.4,218.2,352,218.8,352.9"/>
				<path class="st7" d="M259,254.8c-1-0.3-1.6-0.4-2.6-0.7c-4.1,7.5-7.9,15.2-12.3,22.5c-0.2-0.1-0.4-0.2-0.6-0.2
					c0.4-1.3,0.8-2.7,1.3-4c2.5-5.5,5.1-11,7.6-16.6c0.4-0.9,0.9-1.9,1.4-3c-2.9-2.5-4.6-5.2-2.7-9.4c2-4.3,5-6,9.7-5.5
					c1.5-3,2.9-6,4.4-9c9.4-19.5,18-39.4,26.5-59.3c0.9-2.1,1.9-4.2,2.9-6.3c0.2-0.5,0.4-1.1,0.8-1.4c0.4-0.3,1.1-0.6,1.4-0.4
					c0.4,0.3,0.8,0.9,0.9,1.5c0.1,0.5-0.3,1.1-0.5,1.6c-10.4,24.7-19.4,49.9-28.9,74.9c-0.7,1.7-0.6,2.9,0.7,4.5
					c3.1,3.6,2.4,6.9-1.7,9.3c-0.8,0.4-1.6,0.9-2.4,1c-1.9,0.2-2.4,1.4-3,2.9c-3.5,9.7-7.1,19.4-10.6,29.1c-0.3,0.8-0.6,1.5-0.9,2.2
					c-0.4,0.8-0.9,1.4-1.9,1c-0.9-0.4-1-1.2-0.8-2c0.2-0.9,0.4-1.7,0.7-2.5c3-8.7,6.1-17.3,9.2-26C258,257.7,258.4,256.4,259,254.8
					 M261.6,251.6c0.9-0.3,2.7-0.7,4.3-1.6c1.9-1,2.1-2.1,0.6-3.6c-1.3-1.3-2.7-2.5-4.3-3.4c-3-1.9-5.1-1.6-7.7,0.9
					c-1.9,1.9-1.9,3.8,0.2,5.5C256.5,250.9,258.5,251.5,261.6,251.6 M263.9,239.3c0.2,0.1,0.4,0.1,0.6,0.2c0.3-0.7,0.5-1.5,0.8-2.2
					c-0.1-0.1-0.3-0.1-0.4-0.2C264.6,237.8,264.2,238.5,263.9,239.3"/>
				<path class="st7" d="M214.6,141.8c0.2-0.3,0.5-0.9,0.9-1c0.3-0.1,0.9,0.2,1.2,0.5c0.3,0.3,0.5,0.8,0.8,1.2
					c2.1,3.8,4.3,7.7,6.4,11.5c0.7,1.3,0.6,2.2-0.3,2.7c-1.1,0.6-1.8,0.1-2.5-0.7c-0.4-0.5-0.8-1-1-1.6c-1.6-3.4-3.2-6.8-4.8-10.2
					C215,143.4,214.8,142.7,214.6,141.8"/>
				<path class="st7" d="M363.7,300.1c-0.3-0.1-0.7-0.1-1-0.3c-3.3-1.1-6.5-2.7-9.4-4.7c-0.3-0.2-0.6-0.4-0.7-0.6
					c-0.2-0.5-0.5-1.2-0.4-1.7c0.1-0.3,0.9-0.5,1.4-0.4c0.6,0,1.2,0.3,1.8,0.5c2.8,1.1,5.7,2.1,8.5,3.2c0.3,0.1,0.6,0.2,0.9,0.3
					c0.9,0.5,1.3,1.2,1.1,2.1C365.7,299.7,364.9,300.1,363.7,300.1"/>
				<path class="st7" d="M150.2,206.6c2.7,0.6,5.3,1.1,8,1.7c0.4,0.1,0.8,0.3,1.1,0.5c0.8,0.5,1.4,1.1,1.1,2.1
					c-0.3,1-1.2,1.2-2.1,1.2c-0.5,0-0.9-0.2-1.4-0.3c-1.9-0.3-3.8-0.5-5.7-0.8c-0.8-0.1-1.6-0.2-2.4-0.4c-1-0.3-1.6-1.1-1.4-2.2
					c0.2-1,0.9-1.5,1.8-1.6c0.3,0,0.6,0,1,0C150.2,206.8,150.2,206.7,150.2,206.6"/>
				<path class="st7" d="M303.2,348.2c0-1.3,1-1.9,2.1-1.2c0.6,0.4,1.1,0.9,1.5,1.5c1.3,2.2,2.6,4.4,3.9,6.6
					c0.3,0.5,0.6,1.1,0.5,1.6c-0.1,0.7-0.5,1.6-1,1.9c-0.4,0.3-1.3,0-2-0.2c-0.2,0-0.4-0.3-0.5-0.5c-1.5-3.1-2.9-6.2-4.4-9.3
					C303.2,348.6,303.2,348.4,303.2,348.2"/>
				<path class="st7" d="M365.6,220.5c-0.3,0-0.7,0.1-0.9-0.1c-0.5-0.2-1.1-0.6-1.2-0.9c-0.1-0.4,0.4-0.9,0.7-1.3
					c0.2-0.2,0.6-0.3,0.9-0.4c3.5-0.8,7-1.6,10.5-2.4c0.4-0.1,1-0.1,1.4,0.1c0.5,0.3,1.1,0.8,1.2,1.3c0.1,0.5-0.5,1.1-0.8,1.5
					c-0.2,0.2-0.6,0.3-0.9,0.4c-3.6,0.7-7.2,1.4-10.8,2.1C365.6,220.6,365.6,220.5,365.6,220.5"/>
				<path class="st7" d="M148.9,290.6c-1.1-0.1-1.9-0.1-2.7-0.4c-0.4-0.1-0.7-0.6-0.8-1c-0.1-0.3,0.3-0.7,0.5-1
					c0.2-0.2,0.5-0.4,0.8-0.4c2.8-0.7,5.5-1.5,8.3-2.2c0.4-0.1,0.9-0.2,1.2,0c0.6,0.3,1.3,0.7,1.5,1.3c0.4,0.8,0,1.6-0.8,2
					c-0.5,0.3-1,0.5-1.5,0.6C153.1,289.9,150.9,290.3,148.9,290.6"/>
				<path class="st7" d="M304.3,145.7c-1,3.3-1.9,6.3-2.9,9.4c-0.2,0.5-0.6,1-1,1.3c-1.1,0.7-2.3-0.1-2.3-1.4c0-0.6,0.3-1.2,0.5-1.8
					c1-2.4,2-4.7,3-7c0.1-0.3,0.2-0.7,0.4-0.9c0.4-0.3,1-0.9,1.3-0.8C303.7,144.6,304,145.3,304.3,145.7"/>
				<path class="st7" d="M218.8,352.9c-0.6-0.9-1.1-1.4-1.3-2.1c-0.1-0.5,0.2-1.1,0.4-1.6c0.9-1.9,1.8-3.7,2.8-5.5
					c0.2-0.4,0.5-0.8,0.8-1.2c0.5-0.6,1-1.4,1.9-0.9c0.8,0.4,0.6,1.2,0.3,1.9c0,0.1,0,0.2-0.1,0.2c-1,2.4-1.9,4.9-3,7.3
					C220.3,351.6,219.6,352.1,218.8,352.9"/>
				<path class="st8" d="M261.6,251.6c-3.1-0.1-5.2-0.7-6.9-2.2c-2-1.7-2.1-3.7-0.2-5.5c2.6-2.5,4.7-2.8,7.7-0.9
					c1.5,1,3,2.1,4.3,3.4c1.4,1.5,1.3,2.6-0.6,3.6C264.3,250.9,262.5,251.3,261.6,251.6"/>
				<path class="st10" d="M263.9,239.3c0.3-0.7,0.7-1.5,1-2.2c0.1,0.1,0.3,0.1,0.4,0.2c-0.3,0.7-0.5,1.5-0.8,2.2
					C264.3,239.4,264.1,239.3,263.9,239.3"/>
			</g>
		</g>
	</g>
</g>
</svg>
