<?xml version="1.0" encoding="utf-8"?>
<!-- Generator: Adobe Illustrator 22.1.0, SVG Export Plug-In . SVG Version: 6.00 Build 0)  -->
<svg version="1.1" xmlns="http://www.w3.org/2000/svg" xmlns:xlink="http://www.w3.org/1999/xlink" x="0px" y="0px"
	 viewBox="0 0 717.6 768" style="enable-background:new 0 0 717.6 768;" xml:space="preserve">
<style type="text/css">
	.st0{fill:#6199B0;}
	.st1{fill:#80CCEE;}
	.st2{fill:#1E0000;}
	.st3{fill:#660B00;}
	.st4{fill:#FFFFFF;}
	.st5{fill:#ED2027;}
	.st6{fill:#380804;}
</style>
<g id="Слой5_xA0_Изображение_1_">
</g>
<g id="Слой2_xA0_Изображение_1_">
	<g>
		<path d="M351,10.9c2.7,0.4,5.5,0.7,8.2,1.2c6.4,1.3,12.4,3.8,17.2,8.5c3,2.9,4.9,6.5,6.3,10.4c0.8,2.4,1.5,4.8,2.2,7.2
			c0.1,0.3,0.2,0.5,0.2,0.7c1.7-0.6,3.3-1.2,4.9-1.6c3.1-0.7,6.3-0.6,9.4,0.3c9.5,3,17.5,8.5,23.3,16.7c6.6,9.4,6,19.7-1.2,28.5
			c-1.8,2.2-3.8,4.2-5.8,6.4c1.4,2,1.3,4.2,1,6.4c-0.3,1.7,0.2,2.8,1.7,3.7c1.4,0.8,2.9,1.7,4.2,2.8c3.6,3.2,5.4,7.1,4.6,12
			c-0.5,3-2.3,5.2-4.6,6.9c-5.2,3.8-11,5.7-17.5,5.3c-0.2,0-0.4,0-0.7,0c0,0.6,0,1.1,0,1.6c-0.1,1.3-0.1,2.6-0.4,3.8
			c-1.1,4.2-4.8,6.6-9.7,6c-1.4-0.2-2.1,0.1-2.7,1.4c-1.3,2.6-3.9,3.4-6.6,3.7c-2.3,0.2-4.5-0.1-6.6-0.9c-0.5-0.2-1,0-1.6,0
			c0,0.4-0.1,0.9,0,1.3c1.3,4.6,2.5,9.2,3.8,13.7c0.2,0.5,0.7,1.1,1.2,1.3c4.2,2.4,8.7,4,13.3,5.4c1.1,0.4,2.2,0.8,3.3,1.4
			c1.6,0.8,1.8,1.4,1.2,3.1c0,0.1-0.1,0.3-0.2,0.7c2.6,1,5.1,2.1,7.7,2.8c5.3,1.6,10.7,2.7,16.3,2.5c1.2,0,2.1,0.5,2.5,1.7
			c0.8,2.4,2.6,3.1,5,3c1-0.1,2,0,3,0.1c1.1,0.1,1.8,0.6,2.2,1.6c6.9,18,18.8,32.6,31.6,46.6c4.3,4.7,8.9,9,13.3,13.5
			c1,1,1.1,2.3,0,3.4c-1.2,1.2-2.4,2.3-3.7,3.5c1.6,2,3.2,3.9,4.7,5.9c8.8,11.5,15.2,24.3,19.9,38c0.9,2.5,1.3,5.2,1.5,7.8
			c0.3,2.8-0.9,5-3.3,6.7c-9.8,6.9-20.1,13-30.9,18.3c-11.5,5.6-23.2,11-34.8,16.4c-0.4,0.2-0.7,0.3-1.1,0.5c0.9,3.3-1.2,9-4.4,11
			c-0.8,0.5-0.5,1.1-0.4,1.7c1,6.4,2.1,12.8,3.1,19.2c0.1,0.9,0.2,1.8,0.3,2.7c0.2,2.6-0.3,3.2-2.8,3.7c0.2,1.6,0.4,3.2,0.6,4.8
			c1.6,19.6,2.1,39.1,1.6,58.7c-0.3,13.7-0.9,27.5-1.7,41.2c-1,15.9-3.5,31.6-6.5,47.3c-0.7,3.6-1.4,7.2-2.1,10.8
			c-0.2,1.1,0.1,2.5-0.4,3.4c-1.2,2.2-1.4,4.5-1.6,7c-0.5,6.6-1.4,13.2-2.1,19.8c-3.4,30.5-3.8,61.1-3.3,91.8
			c0.2,11.2,1.5,22.3,3.2,33.3c0.3,1.8,0.5,3.6,0.7,5.4c0.2,1.8-0.4,2.8-2.2,3.3c-2.7,0.7-5.5,1.3-8.3,1.9c-0.9,0.2-1.9,0.3-3,0.5
			c1,2.2,2,4.3,2.9,6.4c2.1,4.6,4.3,9.2,6.3,13.9c2.2,5.1,2.4,10.5,1.4,15.9c-0.8,4.4-3.3,7.6-7.7,9.1c-4.4,1.5-8.9,2.4-13.5,2.7
			c-9.6,0.7-19.1,0.6-28.6-1.1c-3.3-0.6-6.5-1.5-9.3-3.3c-4.1-2.5-5.7-6.2-5-10.9c0.8-5.4,2.7-10.4,4.8-15.4c2-4.8,4.1-9.5,6.2-14.2
			c0.2-0.4,0.3-0.8,0.6-1.4c-0.8,0-1.4,0-2,0c-2-0.1-4-0.1-6-0.3c-2-0.2-2.5-0.9-2.2-3c0.6-3.8,1.4-7.6,1.9-11.4
			c1.3-11.2,2.6-22.5,3.6-33.8c1.5-16.5,2-33,1.9-49.5c-0.1-9-0.6-17.9-0.8-26.9c0-1.5,0.3-3.1,0.3-4.6c0-3.4-0.1-6.7-0.2-10.1
			c-0.3-6-0.6-12-0.9-18c0-0.5-0.3-1.2-0.6-1.6c-1.8-1.7-2.2-3.8-1.6-6.1c0.4-1.4,1-2.8,1.6-4.1c0.4-0.9,0.3-1.5-0.2-2.3
			c-0.7-1.2-1.4-2.6-1.7-4c-3.2-14.2-6.5-28.3-10.7-42.2c0-0.2-0.1-0.3-0.3-0.7c0,1,0,1.6,0,2.3c0,17.2,0,34.5-0.1,51.7
			c0,0.4,0.1,0.9-0.1,1.3c-0.7,1.5-0.1,2.8,0.7,4c1.7,3,1.5,4.4-0.8,6.9c-0.8,0.9-1,1.6-0.6,2.8c0.6,1.8,0.7,3.8,0.9,5.8
			c0.4,4.2,0.9,8.4,1.2,12.7c0.2,3.5,0.3,7.1,0,10.5c-0.5,4.7,0.1,9.4,0.2,14.2c0.2,16,0.6,32.1,0.7,48.1c0.1,12.4,0,24.8-0.3,37.2
			c-0.1,4.4-0.3,8.9-1.5,13.1c-1.5,5-1.1,10-2,15c-0.5,2.8-1.2,5.5-2.9,7.8c-1.8,2.4-4.1,3.8-7.1,4c-0.4,0-0.7,0.1-1.1,0.1
			c-4.1-0.3-7.9,0.8-11.8,2.3c-8.8,3.3-18,4.8-27.3,5.3c-8.7,0.4-17.4,0.3-26-1c-5.8-0.9-11.5-2.2-16.6-5.3c-1.4-0.8-2.7-1.9-4-3
			c-0.9-0.8-1.1-1.8-0.7-2.9c2-5.9,4.4-11.5,8.1-16.5c1.1-1.5,2.5-2.8,3.8-4.2c2.2-2.4,5-3.3,8.2-3.1c4.8,0.3,9.4-0.3,13.9-2
			c2.5-0.9,4.8-2.2,7.2-3.3c0.3-0.1,0.5-0.4,0.9-0.6c-0.7-0.5-1.3-0.9-1.9-1.4c-1.8-1.4-1.7-2.7,0.1-4.1c1.4-1.1,2.8-2.3,4.1-3.5
			c3.7-3.6,5.5-8,5.6-13.1c0-7.2,0.1-14.5-0.4-21.7c-1.2-18.2-2.9-36.4-4-54.7c-0.4-6.9-1.6-13.6-2.5-20.4c-0.7-4.9-1-9.8-1.4-14.7
			c-0.2-2.2-0.8-4.1-2.1-5.9c-2.1-2.6-2.5-5.5-1.1-8.4c1.5-3,1.2-5.8,0-8.9c-3.3-8.3-6.6-16.6-9.8-24.9c-6.1-15.8-10.3-32-13-48.7
			c-4-24.6-6-49.4-6.4-74.3c0-1-0.3-1.6-1.2-2.1c-1.3-0.7-2.6-1.6-3.8-2.5c-1.1-0.8-1.5-1.9-1.3-3.3c0.7-5.7,2-11.2,3.6-16.7
			c0.9-3,1.6-6.1,2.3-9.2c0.1-0.3-0.2-0.8-0.4-1.2c-8.3-10.6-15.6-21.8-22.4-33.3c-4.6-7.8-8.3-16.1-9.8-25.1
			c-0.5-2.8-0.8-5.7-1-8.6c-0.4-4.9,1.8-8.9,4.6-12.5c4.2-5.5,8.6-10.8,12.9-16.3c2.3-3,4.4-6.2,6.6-9.3c0.2-0.3,0.4-0.7,0.7-1.1
			c-0.8-0.6-1.6-1.2-2.3-1.8c-0.8-0.6-1.6-1.2-2.3-1.9c-1.4-1.3-1.2-2.6,0.2-3.9c2.1-1.8,4.3-3.6,6-5.7c2.5-3,4.7-6.2,6.8-9.4
			c5.9-9.1,11.8-18.3,17.5-27.6c2.5-4,4.6-8.4,6.6-12.7c1.1-2.4,2.6-4.2,5.1-5.1c1.2-0.4,1.9-1.2,2.2-2.4c0.4-1.5,1.4-2.4,3-2.6
			c5.4-0.7,10.8-1.4,16.1-2.3c3.1-0.5,6.2-1.2,9.3-2c-4.6-1.6-9-3.4-13-6.2c-4-2.8-7.4-6.2-10.2-10.4c-1.5,1.3-3.1,1.5-4.9,1.1
			c-0.4-0.1-0.9,0.2-1.4,0.4c-3,1.3-5.8,0.5-7.4-2.4c-0.8-1.4-1.4-3-2-4.5c-0.3,0.2-0.6,0.4-0.9,0.6c-7.5,5.4-15.5,4.1-21.1-3.2
			c-6.3-8.3-6-19.1,0.7-27.5c1-1.3,2.1-2.5,3.3-3.8c-1.6-0.1-3-0.2-4.5-0.4c-0.9-0.1-1.8-0.3-2.7-0.5c-2.4-0.7-3.3-2.4-2.8-4.8
			c0.1-0.7,0.3-1.3,0.5-1.9c-2.5-1.4-3-2.4-2.2-5.3c0.2-0.8,0.5-1.5,0.7-2.3c0.2-0.7,0.5-1.4,0.8-2.3c-0.6,0-1-0.1-1.5-0.1
			c-2.9-0.2-5.2-1.4-6.5-4.2c-0.1-0.3-0.7-0.5-1.1-0.5c-2.4,0.2-4.8,0.6-7.2,0.7c-1.6,0.1-3.2,0-4.8-0.2c-5.4-0.7-9.1-4.1-10.2-9.4
			c-2.3-10.2,2.5-22.5,11.2-28.4c3.2-2.2,6.7-3.4,10.4-4.2c0.3-0.1,0.5-0.1,0.8-0.2c0.1,0,0.1-0.1,0.2-0.1c-0.5-5.1,0.4-6,7.7-7.8
			c0,0,0-0.1,0-0.1c-1.7-4.2,0.2-7.2,3.2-9.9C253,30,258.4,27,264,24.6c12.5-5.4,25.4-8.4,39.1-7.7c3.2,0.2,6.4,0.9,9.6,1.3
			c0.5,0.1,1.1-0.1,1.7-0.3c1.4-0.3,2.7-0.8,4-0.8c2.8,0.2,5.6,0.6,8.3,1.1c1.7,0.3,3.1,0.1,4.5-1.2c4-3.7,8.8-5.6,14.2-6
			c0.4,0,0.9-0.1,1.3-0.2C348.1,10.9,349.6,10.9,351,10.9z M339,559.1c1.2-0.1,1.5-1.2,2.2-1.8c2-1.9,2.1-2.6,0.7-5
			c-1-1.7-1.7-3.4-0.8-5.3c0.2-0.4,0.1-0.9,0.1-1.4c0.1-7.6,0.2-15.1,0.3-22.7c0.1-10.3,0.2-20.6,0.3-31c0-1.4,0.2-2.9,0.3-4.3
			c0-0.5,0.2-1.1,0-1.6c-4.6-13.1-8.8-26.3-12.9-39.6c-2-6.6-5-13-7.1-19.6c-1.1-3.3-2.9-5.7-5.8-7.4c-0.1-0.1-0.2-0.1-0.3-0.2
			c-7.1-3.9-14.1-7.8-21.2-11.7c-1.3-0.7-2.7-1.4-4-2.2c0.3-0.2,0.5-0.2,0.7-0.1c5.2,1.6,10.5,3.2,15.4,5.7
			c5.2,2.7,10.3,5.5,14.8,9.4c0.6,0.6,1.3,1.3,1.6,2.1c2.8,7.3,5.6,14.6,8.1,22.1c3.9,11.7,7.4,23.6,11.4,35.3
			c6.2,18,10.6,36.5,14.7,55.1c0.2,0.9,0.6,1.9,1.2,2.7c1.2,1.5,1.2,3,0.4,4.7c-0.6,1.2-1.1,2.5-1.5,3.8c-0.5,1.6,0,2.9,1.2,4
			c0.5,0.4,0.8,1.2,0.9,1.8c0.2,1.9,0.3,3.9,0.4,5.9c0.5,11.1,1.2,22.2,1.6,33.3c0.3,9.7,0.6,19.4,0.6,29c0,15-0.7,30.1-2.1,45
			c-1.1,11.4-2.5,22.8-3.8,34.2c-0.3,2.4-0.8,4.9-1.2,7.4c0.8,0.1,1.4,0.2,2.1,0.2c10.7-0.1,21.4-0.1,32-0.4
			c7.6-0.2,15.1-1.1,22.5-2.6c2.6-0.6,2.3-0.2,1.9-2.7c-0.1-0.4-0.1-0.8-0.2-1.2c-2.5-15.7-3.7-31.5-3.7-47.4
			c0-17.4,0.5-34.7,1.3-52.1c0.7-15.4,1.8-30.8,3.9-46.1c0.1-1,0.6-2,0.8-3.1c0.2-1.1,0.2-2.3,0.5-3.4c0.5-1.9,1.2-3.6,1.4-5.6
			c0.6-5,1.6-9.9,2.5-14.8c4.8-25,6.9-50.2,7.6-75.6c0.5-17.6,0.4-35.3,0-52.9c-0.1-6.6-0.5-13.1-1.7-19.8c-1.4,0.1-2.9-0.2-4.3,0.3
			c-3.5,1.2-6.9,2.5-10.3,4c-7.4,3.5-15,6.4-22.8,8.9c-0.3,0.1-0.6,0.2-1,0.4c13.1,11.3,34.8,32.7,35.7,35.5c-1.5-1-2.9-1.8-4-2.8
			c-2-1.7-3.8-3.6-5.7-5.5c-8.6-8.7-17.2-17.5-25.8-26.3c-0.7-0.7-1.2-0.7-2.1-0.5c-10,2.9-20.2,5.1-30.5,6.6
			c-22.7,3.2-45.4,3.1-68-0.5c-10.3-1.6-20.5-3.8-30-8.5c-0.2-0.1-0.4-0.1-0.7-0.2c0,0.2-0.1,0.3-0.1,0.4c0.1,1.9,0.1,3.8,0.2,5.8
			c0.9,23.3,3,46.4,7,69.4c3.1,17.9,8,35.3,15,52.1c2.8,6.7,5.2,13.7,7.8,20.5c1,2.7,1,5.3-0.2,7.9c-0.2,0.4-0.3,0.8-0.5,1.2
			c-0.9,2.1-0.7,4,0.7,5.8c1.6,2.1,2.4,4.5,2.6,7.1c0.4,4.9,0.7,9.7,1.2,14.6c0.3,3.1,1.1,6.1,1.5,9.2c0.3,2.2,0.3,4.4,0.5,6.6
			c0.8,9.5,1.7,19,2.5,28.6c0.8,9.6,1.7,19.2,2.2,28.8c0.5,7.8,0.6,15.7,0.6,23.5c0.1,6.7-2.4,12.5-7.4,17.1
			c-0.8,0.8-1.5,1.8-2.2,2.7c-0.1-0.2-0.1-0.1,0,0c0.3,0.2,0.7,0.5,1,0.7c4.8,3.1,10,5.6,15.4,7.6c8.2,3,16.6,4.6,25.4,3.7
			c3.3-0.3,6.5-0.7,9.8-0.9c0.9-0.1,1.3-0.4,1.4-1.2c0.5-4.8,1.3-9.5,1.3-14.3c0.2-29.2,0.8-58.3-0.6-87.5c-0.2-3.3,0-6.5,0-9.8
			c0.1-8.8,0-17.7-0.9-26.5c-0.1-0.9-0.4-1.8-0.8-2.6c-0.2-0.4-0.6-0.7-1.2-1.2C339.1,559.8,339.1,559.4,339,559.1L339,559.1z
			 M284.5,222.1c0.4-0.4,0.6-0.7,0.9-0.8c0.3-0.2,0.7-0.4,1.1-0.6c0,0.4,0.3,1,0.1,1.3c-0.5,1.2-1.1,2.3-1.8,3.4
			c-3.9,6.2-7.8,12.4-11.7,18.6c-3.4,5.5-6.4,11.3-8.6,17.4c-2.2,5.9-2.1,11.7,0.8,17.3c2.4,4.7,5.1,9.3,8,13.8c2,3.1,3,6.4,2.8,10
			c-0.2,2.6-0.4,5.3-1.3,7.8c-2.6,7.5-5.4,14.9-8.2,22.3c-3.7,9.8-7.6,19.5-11.1,29.4c-2.3,6.4-3.8,13.1-4.6,20
			c-0.1,1,0.1,1.6,1,2.1c2.1,1.1,4.2,2.4,6.3,3.4c7,3.5,14.4,5.7,22,7.3c20,4,40.2,5,60.5,3.5c19.2-1.5,37.9-5.2,55.9-11.9
			c7.9-3,15.7-6.4,23.5-9.6c1-0.4,2.2-0.6,3.4-0.7c1.6-0.1,3.2,0,5.1,0c-1.2-7.5-2.4-14.7-3.5-21.8c-3.1,0.4-6,1-8.9,1.2
			c-3.1,0.2-6.2-0.2-9-1.7c-0.8-0.5-1.6-1.1-1.5-2.1c0.1-1.3-0.5-1.3-1.5-1.3c-2.2,0.1-4.5,0.2-6.7,0c-3.1-0.2-4.7-1.7-5.2-4.8
			c-0.2-1.4-0.2-2.9-0.3-4.4c-0.8,0.3-1.6,0.6-2.5,0.7c-0.6,0.1-1.4,0.3-2,0c-2.3-0.9-4.6-1.9-6.3-4c-1.9-2.3-1.9-5.1,0.1-7.2
			c1.1-1.1,2.3-2,3.5-2.9c0.3-0.2,0.5-0.4,0.8-0.7c-2.6-1.3-3.2-2.6-2.1-5.2c0.6-1.5,1.5-2.8,2.2-4.2c3.7-6.8,9.6-10.9,16.9-13
			c1.9-0.6,3.8-1.2,5.8-1.8c-0.5-1.1-0.9-2-1.4-2.8c-0.9-1.5-1.3-3.2-1.1-4.9c0.2-2.4,0.4-4.8,0.8-7.1c3.3-18.9,8-37.5,13.4-56
			c0.4-1.5,0.9-3,1.6-4.4c0.2-0.4,0.9-0.6,1.3-0.9c0.2,0.5,0.6,1,0.5,1.4c-0.2,1.1-0.6,2.1-0.9,3.2c-1.4,5.7-2.8,11.5-4.2,17.3
			c-0.1,0.5,0,1.3,0.4,1.7c4.6,6.2,8.7,12.9,12.4,19.6c0.4,0.7,0.8,1.5,1.3,2.4c16.3-8.1,31.6-17.6,45.3-29.6
			c-0.2-0.3-0.4-0.4-0.5-0.6c-9.3-8.9-17.9-18.3-25.7-28.5c-6.9-9-13.3-18.4-17.5-29.1c-0.1-0.1-0.2-0.3-0.3-0.5
			c-0.2,0.7-0.4,1.3-0.6,1.9c-2.1,6.8-4,13.6-6.2,20.3c-1.5,4.7-2.8,9.6-5.4,13.9c-0.2,0.4-0.4,0.7-0.7,1.1
			c-0.1-0.1-0.2-0.1-0.3-0.2c3.7-13,8.4-25.8,13-38.7c-1.5-0.1-2.6-0.2-3.8-0.2c-2.9,0-5-1.3-6.3-4c-0.2-0.3-0.7-0.6-1.1-0.6
			c-8.3-0.3-16.2-2.1-23.6-6c-0.2-0.1-0.5-0.2-0.8-0.3c-0.1,0.2-0.3,0.3-0.3,0.4c-5.5,8.2-11.1,16.2-16.4,24.5
			c-5.8,8.9-11.3,18-17.8,26.5c-7.1,9.3-13.8,18.9-19.2,29.2c-1,1.9-4,2-4.9,0.1c-1.3-2.8-2.4-5.6-3.5-8.5
			c-7.5-19.5-13-39.6-18-59.9c-0.7-3-1.5-6-2.2-9.1c-1.8,0.5-3.6,1-5.4,1.3c-7.3,1.6-14.6,3.4-22.1,3.6c-0.2,0-0.5,0.1-0.6,0.3
			c-0.4,1.1-1.1,2.2-1.2,3.3c-0.2,2.2,0,4.4-0.1,6.6c-0.4,9.9-0.8,19.9-1.2,29.8C284.8,220.2,284.6,221,284.5,222.1z M375.5,139.1
			c1.9-0.6,1.9-0.6,3.6,0c1.9,0.7,3.9,0.9,5.9,0.7c2.1-0.3,3.6-1.2,4.3-3.3c0.6-1.7,1.6-2.2,3.5-2c1.1,0.1,2.2,0.3,3.2,0.2
			c2.8-0.2,4.6-1.8,5-4.6c0.2-1.3,0.1-2.6,0.2-3.9c0.1-2.3,1-3.1,3.4-3c1.6,0.1,3.3,0.2,4.9,0c4.6-0.6,8.7-2.3,12.2-5.5
			c2.5-2.3,3.1-5.1,2.1-8.3c-0.8-2.6-2.5-4.5-4.8-6c-1.1-0.7-2.3-1.4-3.4-2.2c-1.4-1-2.2-2.4-2.1-4.2c0-1,0.3-2.1,0.2-3.1
			c-0.1-1-0.3-2.1-0.8-2.9c-1.2-1.6-1.4-2.2,0-3.7c2-2.1,4.1-4.2,5.9-6.4c6.8-8.1,7-17.6,0.5-25.9c-5.1-6.5-11.6-11.1-19.2-14
			c-4.3-1.6-8.7-1.6-13,0.1c-0.9,0.4-1.7,0.7-1.6,1.9c0,0.3-0.5,0.8-0.8,0.9c-0.3,0-0.8-0.3-1-0.7c-0.4-0.8-0.6-1.7-0.8-2.6
			c-1-3.2-2-6.4-3.1-9.6c-2.6-6.7-7.4-11.2-14-13.9c-6.3-2.5-12.8-3.5-19.6-3.1c-5,0.3-9.5,2-13.1,5.5c-1.8,1.7-3.8,2.1-6.1,1.7
			c-2.8-0.5-5.7-0.8-8.5-1.2c-0.7-0.1-1.7,0-2.2,0.4c-1.2,1-2.5,0.8-3.9,0.6c-3-0.5-6.1-1.2-9.1-1.3c-16.4-0.7-31.6,3.5-45.8,11.5
			c-2.9,1.6-5.5,3.8-8,6c-2.4,2.1-2.3,3.9-0.8,6.7c0.4,0.6,0.6,1.5,0.4,2.2c-0.3,1-1.3,0.9-2.2,1c-1.3,0-2.7,0-3.9,0.3
			c-2.7,0.6-3.2,2.1-1.7,4.4c0.7,1.1,0.4,2.1-0.8,2.6c-0.4,0.1-0.9,0.2-1.3,0.2c-14.2,1.5-24.1,14.9-21.3,29c0.9,4.4,3.6,7,8.2,7.5
			c1.7,0.2,3.5,0.2,5.3,0c2.3-0.2,4.5-0.5,6.8-0.8c1.6-0.2,2.4,0.3,2.8,1.8c0.4,1.8,1.6,2.7,3.3,3c0.9,0.1,1.8,0.2,2.7,0.2
			c2.3-0.1,3.1,0.9,2.3,3.1c-0.6,1.7-1.2,3.4-1.7,5.1c-0.1,0.5-0.2,1-0.2,1.5c0.4,0,0.6,0,0.8,0.1c1.9,0.1,2.6,1,2,2.8
			c-0.2,0.7-0.5,1.4-0.7,2.2c-0.4,1.5-0.3,2,1.4,2.2c2.5,0.3,5,0.5,7.5,0.6c1.1,0.1,2.2,0.1,2.6,1.2c0.5,1.2-0.4,1.9-1.1,2.6
			c-0.3,0.3-0.7,0.6-1,0.9c-1.4,1.5-2.9,3-4.1,4.7c-5.1,7-5.1,15.7-0.2,22.6c4.7,6.5,11.2,7.5,17.6,2.7c0.6-0.4,1.2-0.9,1.8-1.2
			c1.1-0.6,2.2-0.2,2.8,0.9c0.3,0.6,0.5,1.3,0.7,1.9c0.5,1.3,1,2.5,1.6,3.7c0.7,1.3,1.8,1.7,2.9,1.3c1.6-0.7,3.1-1,4.9-0.6
			c1.1,0.3,1.7-0.8,1.3-1.9c-0.6-1.5-1.3-3.1-1.5-4.6c-0.5-4-0.8-8.1-1-12.2c-0.3-6.9-1.6-13.6-4.6-19.8c-1.9-4-3.9-8-5.9-12
			c-2-4.1-3.1-8.4-3.2-12.9c0-2.9,0.1-5.8,0.1-8.8c0-0.3-0.1-0.7-0.2-1c-0.3,0.1-0.6,0.2-0.9,0.4c-0.7,0.4-1.3,1-2,1.3
			c-1.3,0.7-2.6,0.4-3.8-0.5c-0.5-0.4-1.1-0.6-1.8-0.8c-1-0.3-1.7-0.9-2-1.9c-0.1-0.4-0.2-0.9-0.3-1.5c-0.8,0.4-1.4,0.8-2.1,1
			c-2.3,0.8-4.7,1.7-7.1,2.1c-3.3,0.5-5.4-1.2-5.6-4.6c-0.5-7.1,1.5-13.4,6.1-18.9c1.3-1.5,3-2.7,5-3.2c0.4-0.1,0.9-0.1,1.4-0.1
			c-0.2,0.6-0.5,0.8-0.8,1.1c-4.1,2.9-6.5,7.1-7.9,11.8c-0.8,2.8-1.3,5.6-1.1,8.5c0.2,2.2,1.1,3,3.3,2.6c0.7-0.1,1.4-0.2,2.1-0.5
			c2.2-1,4.3-2,6.5-3.1c0.8-0.4,1.6-0.9,2.5-0.4c0.9,0.6,0.9,1.5,0.9,2.4c0,0.5,0,1.1,0,1.4c0.9,0.5,1.6,0.8,2.2,1.3
			c1.1,1,1.4,1,2.5,0.1c0.4-0.3,0.7-0.6,1.1-1c1.1-1.1,1.6-1.1,3-0.4c1.9,0.9,3.8,1.8,5.7,2.3c4.9,1.2,9.8,1.4,14.8,0.8
			c4.1-0.5,8-1.5,11.1-4.3c1.7-1.5,3-3.2,3.3-5.5c0.3-2-0.3-3.7-1.6-5.2c-0.3-0.3-0.3-1.2-0.1-1.6c0.2-0.4,1-0.6,1.5-0.6
			c0.6,0,1.2,0.3,1.7,0.5c5,2,9.6,1.2,13.6-2.3c1.2-1,2.5-1.4,4-1c2.7,0.7,5.2,0.1,7.5-1.6c0.4-0.3,0.6-0.7,1-0.8
			c0.5-0.3,1.3-0.7,1.7-0.5c0.5,0.2,0.8,1,1,1.6c0.2,0.5,0,1,0,1.5c-0.1,4.1,1.8,7.1,5.6,8.5c2.4,0.9,4.9,1.3,7.4,1.9
			c0.3,0.1,0.6,0,0.9-0.1c0.8-0.2,1.6-0.4,2.1,0.4c0.5,0.8,0,1.5-0.4,2.2c-1,1.8-2,3.7-2.7,5.6c-0.7,1.7-0.2,3.2,1,4.6
			c3.3,3.7,10.1,4.3,13.3,1.5c0.6-0.5,1.3-0.9,2.1-0.4c0.9,0.5,0.8,1.4,0.6,2.3c-0.2,1.2-0.5,2.3-0.6,3.5c0,0.5,0.3,1.1,0.4,1.7
			c0.1,0,0.2,0,0.3-0.1c0.1-0.4,0.3-0.8,0.4-1.2c0.9-3,2.2-5.8,4.4-8.1c1.9-2,4.2-2.5,6.5-1.3c1.7,0.9,3.4,2,4.5,3.4
			c6.5,7.9,8.4,17,6,26.9c-1.7,7.1-9.4,14.4-17,13.9C373.6,130.6,374.5,134.8,375.5,139.1z M274.1,82.1c0,0.1,0,0.4,0,0.6
			c-0.1,8.6,1.6,16.6,6.1,24.1c1.9,3.2,3.4,6.7,4.9,10.2c2.8,6.6,3.6,13.5,3.7,20.5c0.1,4,0.2,8.1,1.7,11.9
			c2.7,6.6,7.4,11.3,13.4,14.9c7.6,4.6,16.1,6.1,24.8,6.6c3.2,0.2,6.3-0.5,9.2-2c1.7-0.9,3.3-1.8,4.8-2.9c9.7-7.2,17.3-16.2,22.8-27
			c3.1-6.2,4.5-12.7,3.9-19.6c-0.4-3.7-0.8-7.4-1.4-11.1c-0.7-3.9-0.9-7.8-0.5-11.7c0-0.3-0.2-0.9-0.5-1c-1.9-1.1-2.5-2.8-2.5-4.8
			c0-0.4,0-0.8,0-1.1c-0.2,0-0.2,0-0.2,0c-0.3,0.1-0.7,0.2-1,0.3c-4.7,1-9,0.1-12.6-3.2c-2.4-2.2-3.2-4.9-2.2-8.1
			c0.4-1.2,0.9-2.3,1.4-3.4c0.1-0.3,0.2-0.6,0.3-0.9C342.6,73,336,71.2,335,62.2c-0.3,0.1-0.5,0.2-0.7,0.3c-2.4,1.3-5.1,1.8-7.8,1.2
			c-0.9-0.2-1.6,0-2.3,0.6c-3.9,3.1-8.2,4.6-13.2,3.4c-0.2,0-0.4,0-0.7,0c0.9,4.6-0.8,8.1-4.1,11c-2.2,2-4.7,3.3-7.5,4.1
			c-5.6,1.6-11.3,1.7-17,0.8C279.2,83.3,276.6,82.7,274.1,82.1z M424.5,328.7c0.2,0.1,0.3,0.2,0.4,0.2c4.2,0.9,6.4,4.1,5.6,8.4
			c-0.1,0.3,0.1,0.9,0.4,1c0.4,0.2,1.1,0.3,1.5,0.1c11.5-5.5,23-11.1,34.4-16.7c10.4-5.1,20.4-10.9,29.9-17.5c3.6-2.5,4-3.7,3.1-8
			c-0.1-0.5-0.2-0.9-0.4-1.4c-1.7-4.5-3.3-9-5.1-13.4c-4.8-11.2-11-21.5-18.9-30.8c-0.3-0.3-0.6-0.6-0.9-1
			c-9.7,7.8-20,14.5-30.8,20.4c3.9,4.1,7.4,8.3,10,13.2c0.3-0.2,0.6-0.4,0.8-0.5c5.8-3.8,12.2-6.3,19-7.7c1.6-0.3,3.3,0,4.9,0
			c0,0.2,0.1,0.4,0.1,0.6c-1.7,0.8-3.4,1.8-5.2,2.5c-3.5,1.3-7,2.4-10.5,3.8c-6.2,2.5-11.1,6.5-14,12.8c-2.2,4.7-5.2,8.9-8.5,12.9
			c-4.4,5.3-8.9,10.5-16.3,12C425,322.7,425.3,325.6,424.5,328.7z M247,251.1c-0.1,0.1-0.2,0.2-0.3,0.3c-3.3,5.8-7.5,11-11.6,16.2
			c-3.1,3.9-6.2,7.8-9.1,11.8c-2.3,3.2-3.3,6.8-2.9,11c1,10,4.2,19.2,9.1,27.8c5.6,10,11.8,19.5,18.5,28.7c1.3,1.8,2.7,3.6,4.1,5.4
			c0.2-0.3,0.3-0.4,0.3-0.6c3.4-8.4,6.7-16.8,10.1-25.3c0.2-0.5,0.2-1.3,0-1.8c-2.4-7.5-3.9-15.3-5.5-23c-1-4.6-2.3-9.1-3.5-13.7
			c-0.4-1.6-1.5-2.7-3.1-3.3c-0.9-0.4-1.8-0.7-2.7-0.9c-3.5-0.8-7-1.5-10.4-2.2c-0.8-0.2-1.7-0.4-2.5-0.6c1.3-0.4,2.7-0.5,4-0.6
			c4.2-0.3,8.3-0.3,12.3,1.2c2.7,1,4.5,2.8,5.4,5.5c0.2,0.6,0.4,1.2,0.7,1.8c1.5-1.1,2.8-2.1,4.2-3.1c0.6-0.4,0.4-0.7,0.2-1.2
			c-0.7-1.3-1.3-2.6-2-4c-3.2-6.6-3.7-13.3-1-20.1c0.1-0.2,0.1-0.4,0.1-0.4C256.5,257.1,251.8,254.1,247,251.1z M277.8,702.6
			c1.1,1.8,2.2,3.6,3.2,5.5c1.3,2.5,2.1,5.2,1.7,8.1c-0.4,2.9-2.6,3.9-4.9,2.2c-1.2-0.9-2.3-1.9-3.2-3.1c-2.4-2.9-4.9-5.8-7-9
			c-1.5-2.2-3.2-2.4-5.4-2c-0.6,0.1-1.3,0.4-1.8,0.8c-1.4,1.2-2.8,2.3-3.9,3.7c-3.9,4.6-6.1,10-8.2,15.5c-0.4,1-0.1,1.6,0.7,2.2
			c3.2,2.4,6.9,3.8,10.8,4.8c7.2,1.9,14.6,2.4,22,2.5c14,0.2,27.6-1.4,40.6-6.7c1.2-0.5,2.6-0.7,3.9-0.9c1.4-0.2,2.8-0.2,4.2-0.1
			c3.5,0.1,6.1-0.9,7.6-5.5c0.9-2.7,1.1-5.6,1.5-8.5c0.2-1.9,0.2-3.8,0.3-5.9c-8.8,1-17.5,2.1-26.1,0c-0.2,1.4-0.2,2.6-0.5,3.8
			c-0.8,2.8-3.2,3.8-5.7,2.4c-1.3-0.7-2.5-1.7-3.4-2.8c-2.3-2.6-4.5-5.3-6.6-8.1c-1.7-2.1-4.3-2.5-6.4-3.9c2,3.4,3.5,6.8,4.1,10.6
			c0.3,2,0.4,4.1,0.1,6.2c-0.2,1.6-1.7,2.1-3.1,1.1c-0.7-0.5-1.3-1.1-2-1.8c-3.6-3.7-7.2-7.3-10.7-11
			C279,702.4,278.5,702,277.8,702.6z M340.8,224.9c0.1,0,0.3,0,0.4,0c0.9-1.3,1.7-2.7,2.6-4c7.4-11.5,14.7-23.1,22.4-34.5
			c4.3-6.4,8.2-13,13.8-18.4c0.2-0.2,0.3-0.6,0.3-0.8c-0.3-1.4-0.6-2.9-1-4.3c-3.2-9.6-5.8-19.3-7.5-29.2c0-0.2-0.1-0.4-0.3-0.9
			c-0.4,1.2-0.7,2.2-1.1,3.2c-0.4,1-0.7,2-1.2,2.9c-5.2,11.3-13,20.7-22.6,28.5c-3.9,3.1-8.1,5.6-13,6.6c-0.8,0.2-1.7,0.3-2.4,0.4
			c0.7,3,1.4,5.9,2.1,8.8c0.2,0.9-0.1,1.3-0.6,1.9c-0.8,0.9-2.1,1.6-1.6,3.4c2.6,9.4,5,18.9,7.5,28.3
			C339.3,219.5,340.1,222.2,340.8,224.9z M373.2,710.4c-2.5,0-4.9,0-7.3,0c-0.7,0-0.9,0.4-1.2,0.9c-2,4.9-4.1,9.8-6.1,14.7
			c-2,4.8-3.9,9.7-4.8,14.8c-0.9,4.9,0.4,7.4,4.9,9.4c2.3,1,4.8,1.7,7.2,2.2c8.5,1.6,17,1.7,25.6,1.1c4.9-0.3,9.7-1.1,14.3-2.7
			c3.1-1.1,5-3.3,5.5-6.4c0.8-4.2,1.1-8.5-0.6-12.5c-3.2-7.5-6.6-14.9-10-22.3c-0.1-0.2-0.5-0.5-0.8-0.5c-2.6,0.2-5.1,0.5-8,0.7
			c2.4,0.7,4.6,1,5.6,3.3c0.9,2.1,0.6,4.1-0.7,6c0.7,1.5,2.6,2.7,1,4.6c2.7,2.6,3.5,3.6,3.9,5.2c0.7,2.5-0.6,3.8-3,3.4
			c-3.2-0.5-6.5-1.2-9.7-1.4c-7.4-0.5-14.8-0.8-22.3-1.2c-1.6-0.1-2.1-0.4-2.6-1.9c-0.4-1,0.1-1.8,0.9-2.4c0.8-0.7,1.6-1.5,2.4-2.1
			c0.6-0.4,0.7-0.8,0.5-1.4c-0.6-3.2-0.4-3.5,2.4-4.8c0.1,0,0.1-0.1,0.1-0.2C368.4,713.9,369,712.5,373.2,710.4z M382.6,162
			c0.3,1.6,0.6,3.4,0.8,5.3c0.1,0.7-0.3,1.5-0.8,2.1c-1.6,1.9-3.5,3.6-4.9,5.6c-9.6,13.6-19,27.4-27.7,41.6
			c-2.3,3.8-4.7,7.5-7.2,11.2c-1.1,1.7-2.8,1.6-3.7-0.2c-1.1-2.3-2.1-4.7-2.7-7.1c-3.5-13.1-6.9-26.2-10.3-39.3
			c-0.1-0.5,0.1-1.4,0.4-1.6c0.7-0.5,1.3,0.1,1.6,0.7c0.4,0.7,0.8,1.5,1.3,2.4c0.2-0.6,0.5-0.9,0.4-1.2c-0.4-2.1-0.9-4.2-1.3-6.3
			c-0.2-0.8-0.6-1-1.4-1c-2.5-0.2-4.9-0.5-7.4-0.8c-0.7-0.1-1.4,0.1-2.1,0.2c0.1,0.5,0.1,0.8,0.1,1c3.9,13.8,7.7,27.7,11.9,41.5
			c3.2,10.5,7,20.8,10.5,31.1c0.3,0.9,0.8,1.8,1.4,2.9c0.4-0.7,0.7-1.1,1-1.5c3.3-6.1,6.8-12,10.9-17.6c5.1-7,10.4-13.9,15.2-21.1
			c8.8-13.1,16.9-26.7,26.3-39.4c0.7-0.9,1.2-1.9,1.9-3C391.9,165.5,387.1,163.7,382.6,162z M417.4,252.9c-0.2,0.4-0.3,0.6-0.3,0.7
			c-2.5,11.9-5,23.7-7.4,35.6c-0.8,4-1.4,8.1,1.3,11.7c0,0,0,0.1,0,0.1c0.2,0.7,0.5,0.7,1.3,0.6c3.4-0.6,4.6-0.3,5.5,2.9
			c0.7,2.5,1.1,5.1,1.7,7.6c0.1,0.4,0.1,0.8,0.3,1.1c0.8,0.9,1.7,1.7,2.3,2.6c0.6,0.9,1.2,1,2.1,0.8c3.7-1.1,6.6-3.4,9.2-6.1
			c5.2-5.4,9.4-11.5,12.9-18.1c1.4-2.6,2.8-5.1,5-7.1c0.5-0.5,0.4-0.9,0-1.3c-3.3-3.9-6.6-7.7-9.8-11.6c-0.5-0.6-1-0.6-1.7-0.2
			c-1.9,1-3.8,1.9-5.7,2.8c-0.8,0.4-1.7,0.5-2.5-0.2c-0.8-0.7-1.5-1.5-2.1-2.4c-1.8-2.8-3.6-5.8-5.4-8.6
			C422.1,260.1,419.8,256.6,417.4,252.9z M285.1,183.3c-2.7,0.9-4.5,2.2-5.6,4.8c-2.9,6.9-6.7,13.4-10.7,19.7
			c-4,6.4-8.2,12.7-12.1,19.1c-3.7,6.1-8.1,11.6-13.4,16.4c-0.1,0.1-0.2,0.3-0.5,0.6c6.6,4.5,13.1,8.9,19.6,13.4
			c5.6-12.2,13-23.4,21.1-34c-1.3-0.7-2.4-4.3-1.9-6.3c0.3,0.8,0.7,1.6,1,2.4c0.1,0,0.2,0,0.3-0.1
			C283.6,207.4,284.3,195.4,285.1,183.3z M372.8,123.4c1.3-0.2,2.5-0.2,3.6-0.6c4.8-1.8,8.1-5.1,9.9-9.8c1.9-5.2,1.8-10.4,0.4-15.7
			c-1.1-4.1-2.9-7.9-6-10.9c-3.2-3-5.2-2.7-7.4,1c-0.7,1.1-1.4,2.2-1.7,3.4c-0.7,2.9-1.4,5.8-1.7,8.8c-0.3,2.5-0.1,5.1-0.1,7.7
			c0,0.7,0.1,1.5,0.4,2.2c1.8,3.9,2.6,8,2.7,12.3C372.7,122.2,372.8,122.7,372.8,123.4z M422.6,324.6c0.2-2.1-0.7-4.1-1.4-6.1
			c-1-2.6-3.6-3.9-6.1-2.7c-8.2,3.8-16.4,7.5-24.5,11.5c-2.5,1.3-4.8,3.1-7.1,4.9c-1.4,1.1-1.4,2.4-0.6,4c1.5,2.7,4.7,3.9,7.5,2.7
			c1.3-0.5,2.5-1.2,3.7-1.9c3.5-2,7.1-3.6,11.1-4.4c4.6-1,9.3-1.9,14-2.8c2.8-0.6,3.3-1.2,3.4-4C422.6,325.3,422.6,325,422.6,324.6z
			 M399.8,348c0.6,0,1.3,0,1.9,0c0.8-0.1,1.6-0.2,2.4-0.3c8.4-1.8,16-5.6,23.4-9.9c0.5-0.3,0.9-0.9,1-1.4c0.6-2.6-1.6-5.5-4.2-5.4
			c-1.3,0-2.6,0.7-3.9,0.9c-3.3,0.7-6.7,1.3-10,2c-4.8,0.9-9.4,2-13.7,4.4c-1.7,0.9-2.6,2.2-2.5,4.2
			C394.3,347,395.4,348.1,399.8,348z M406.7,315.4c2.2,0.5,4-0.5,5.9-1.2c1.3-0.5,2.6-1,3.9-1.3c0.8-0.2,1.1-0.6,0.9-1.4
			c-0.5-2.1-0.9-4.3-1.5-6.4c-0.5-1.6-0.7-1.7-2.3-1.4c-5.4,1-10.5,2.7-15.5,5c-6.3,2.8-9.6,8.2-12.5,14c-0.1,0.3-0.2,0.6-0.2,0.9
			c0,0.3,0.1,0.6,0.2,0.8c0.5,0.6,2.8,1.1,3.5,0.7c3-1.5,6.1-3.1,9.1-4.6c0.5-0.2,0.9-0.6,1.2-1.1c1.6-2.4,3.5-4.3,6.7-3.9
			C406.2,315.5,406.4,315.4,406.7,315.4z M267.1,320.8c0.1,0,0.3,0,0.4,0c2.4-6.2,5-12.3,5.1-19.1c0-1.8-0.4-3.8-1.2-5.3
			c-1.5-2.9-3.4-5.5-5.2-8.2c-1.6,1.1-3.1,2.2-4.6,3.2c-0.7,0.4-0.8,0.8-0.6,1.5c0.9,4.1,1.8,8.2,2.7,12.3
			C264.8,310.4,266,315.6,267.1,320.8z M415.4,353.3c4.1-0.3,7.9-1.2,11.5-2.8c3.2-1.4,5.1-6.1,3.8-9.4c-0.1-0.4-0.4-0.7-0.6-1
			c-0.5-0.6-1.1-0.7-1.8-0.3c-0.9,0.6-1.8,1.1-2.7,1.5c-5.3,2.4-10.6,4.8-15.9,7.2c-1.2,0.5-1.2,1.6-1.4,2.6c0,0.3,0.8,0.9,1.4,1
			C411.5,352.7,413.4,353,415.4,353.3z M399.8,729.8c-0.6-1-0.9-1.8-1.5-2.4c-2.1-2.4-4.6-4.1-7.8-4.7c-7.1-1.4-14-0.7-20.7,1.9
			c-1.2,0.4-2.1,1.5-3.1,2.3c-0.2,0.2-0.2,0.6-0.3,0.9c0.3,0.1,0.6,0.2,0.9,0.2c0.8-0.1,1.6-0.2,2.4-0.3c7.4-0.5,14.7,0,22,0.9
			C394.3,728.9,396.8,729.4,399.8,729.8z M288.2,697.8c-2.5,1.3-4.9,2.6-7.4,3.9c4.2,4.1,8.3,8.1,12.6,12.3
			C294.1,709.4,291.4,701,288.2,697.8z M395.2,717.6c1.2-2.7,0.5-4.2-2.1-5c-0.5-0.2-1.1-0.3-1.6-0.4c-5.7-0.8-11.4-0.7-17.1,0.4
			c-3.1,0.6-3.2,0.8-2.9,4c0,0,0,0.1,0.1,0.1c2.4-0.3,4.8-0.8,7.2-1C384.3,715.2,390,714.4,395.2,717.6z M268,704.4
			c3.3,3.9,6.4,7.6,9.7,11.3c0.5,0.6,1.5,0.9,2.3,1.3c0.2-0.9,0.6-1.7,0.5-2.6c-0.3-4.2-2.4-7.6-4.9-10.7c-0.2-0.2-0.6-0.4-0.9-0.3
			C272.6,703.6,270.5,704,268,704.4z M369.6,722c8.9-2.4,17.7-3.7,26.6,0.4c-1.5-3.2-4.2-4.3-7.3-4.7c-5.9-0.7-11.6,0.2-17.4,1.3
			C369.4,719.4,369.3,719.6,369.6,722z M300.7,702.5c-0.1,0.1-0.2,0.1-0.3,0.2c2.3,2.4,4.6,4.8,7,7.1c0.5,0.5,1.1,0.8,1.8,0.9
			c0.4,0.1,1-0.1,1.4-0.4c0.8-0.7,1.2-3.4,0.7-4.3c-0.1-0.2-0.4-0.4-0.6-0.5C307.3,704.5,304,703.5,300.7,702.5z"/>
		<path class="st0" d="M339,559c0.1,0.4,0.1,0.8,0.1,0.9c0.5,0.5,1,0.8,1.2,1.2c0.3,0.8,0.7,1.7,0.8,2.6c0.9,8.8,1,17.6,0.9,26.5
			c-0.1,3.3-0.2,6.6,0,9.8c1.4,29.1,0.8,58.3,0.6,87.5c0,4.8-0.9,9.5-1.3,14.3c-0.1,0.9-0.4,1.2-1.4,1.2c-3.3,0.2-6.5,0.6-9.8,0.9
			c-8.8,0.9-17.2-0.7-25.4-3.7c-5.4-2-10.5-4.4-15.4-7.6c-0.3-0.2-0.7-0.4-1-0.7c-0.1-0.1-0.2-0.2,0,0c0.7-0.9,1.4-1.9,2.2-2.7
			c5-4.6,7.5-10.3,7.4-17.1c-0.1-7.8-0.2-15.7-0.6-23.5c-0.6-9.6-1.4-19.2-2.2-28.8c-0.8-9.5-1.7-19-2.5-28.6
			c-0.2-2.2-0.2-4.4-0.5-6.6c-0.4-3.1-1.2-6.1-1.5-9.2c-0.5-4.8-0.8-9.7-1.2-14.6c-0.2-2.6-0.9-5-2.6-7.1c-1.5-1.8-1.7-3.7-0.7-5.8
			c0.2-0.4,0.3-0.8,0.5-1.2c1.2-2.6,1.2-5.2,0.2-7.9c-2.6-6.8-5-13.8-7.8-20.5c-7.1-16.8-11.9-34.2-15-52.1c-4-23-6.1-46.1-7-69.4
			c-0.1-1.9-0.1-3.8-0.2-5.8c0-0.1,0-0.2,0.1-0.4c0.2,0.1,0.5,0.1,0.7,0.2c9.5,4.7,19.7,6.9,30,8.5c22.6,3.6,45.3,3.7,68,0.5
			c10.3-1.5,20.5-3.7,30.5-6.6c0.9-0.3,1.4-0.2,2.1,0.5c8.6,8.8,17.2,17.5,25.8,26.3c1.9,1.9,3.7,3.8,5.7,5.5c1.1,1,2.5,1.8,4,2.8
			c-0.9-2.8-22.6-24.3-35.7-35.5c0.4-0.1,0.7-0.3,1-0.4c7.8-2.5,15.4-5.4,22.8-8.9c3.3-1.6,6.8-2.8,10.3-4c1.3-0.4,2.9-0.2,4.3-0.3
			c1.2,6.7,1.5,13.2,1.7,19.8c0.4,17.6,0.5,35.3,0,52.9c-0.7,25.4-2.8,50.6-7.6,75.6c-0.9,4.9-2,9.8-2.5,14.8c-0.2,2-1,3.7-1.4,5.6
			c-0.3,1.1-0.3,2.3-0.5,3.4c-0.2,1-0.6,2-0.8,3.1c-2.2,15.3-3.2,30.7-3.9,46.1c-0.8,17.3-1.3,34.7-1.3,52.1
			c0,15.9,1.2,31.7,3.7,47.4c0.1,0.4,0.1,0.8,0.2,1.2c0.3,2.5,0.6,2.2-1.9,2.7c-7.4,1.6-14.9,2.4-22.5,2.6
			c-10.7,0.3-21.4,0.3-32,0.4c-0.7,0-1.3-0.1-2.1-0.2c0.4-2.6,0.9-5,1.2-7.4c1.3-11.4,2.7-22.8,3.8-34.2c1.4-15,2.1-30,2.1-45
			c0-9.7-0.2-19.4-0.6-29c-0.4-11.1-1-22.2-1.6-33.3c-0.1-2-0.2-3.9-0.4-5.9c-0.1-0.6-0.4-1.4-0.9-1.8c-1.2-1.1-1.7-2.4-1.2-4
			c0.4-1.3,0.9-2.6,1.5-3.8c0.8-1.7,0.8-3.2-0.4-4.7c-0.6-0.8-1-1.7-1.2-2.7c-4.1-18.6-8.5-37.1-14.7-55.1
			c-4-11.7-7.5-23.5-11.4-35.3c-2.5-7.4-5.3-14.7-8.1-22.1c-0.3-0.8-0.9-1.5-1.6-2.1c-4.5-3.8-9.6-6.7-14.8-9.4
			c-4.9-2.5-10.2-4.1-15.4-5.7c-0.2-0.1-0.4-0.1-0.7,0.1c1.3,0.7,2.7,1.4,4,2.2c7.1,3.9,14.1,7.8,21.2,11.7c0.1,0.1,0.2,0.1,0.3,0.2
			c2.9,1.7,4.7,4,5.8,7.4c2.1,6.6,5.1,13,7.1,19.6c4,13.3,8.3,26.5,12.9,39.6c0.2,0.5,0,1,0,1.6c-0.1,1.4-0.3,2.9-0.3,4.3
			c-0.1,10.3-0.2,20.6-0.3,31c-0.1,7.6-0.2,15.1-0.3,22.7c0,0.5,0,1-0.1,1.4c-0.8,2-0.1,3.7,0.8,5.3c1.4,2.4,1.3,3-0.7,5
			C340.5,557.9,340.2,559,339,559c0.3-0.5,0.7-1.1,1-1.7c-7.3,6.3-13.7,13.4-19.5,21.1c0.2,0,0.3-0.1,0.4-0.2
			c5.6-6,11.3-11.9,16.9-17.9C338.2,559.9,338.6,559.5,339,559z M360.9,541.2c-0.2,0.1-0.3,0.1-0.5,0.2c0.2,0.7,0.4,1.5,0.8,2.2
			c2.5,5.1,5.9,9.5,10.2,13.2c3.5,3.1,7.7,4.5,12.3,4.4c4.5-0.1,8.8-1.4,13.1-2.9c1.2-0.4,1.5-1.2,1.5-2.4c-0.5,0.1-0.9,0.3-1.3,0.4
			c-2.7,0.7-5.4,1.5-8.1,2.2c-7.6,1.8-14.2-0.1-19.4-6.1c-2.8-3.3-5.4-6.8-8-10.3C361.3,541.8,361.1,541.5,360.9,541.2z M402,548.1
			c0-0.1,0.1-0.3,0.1-0.4c-13.4-4.3-26.9-8.6-40.3-12.9c-0.1,0.2-0.1,0.3-0.2,0.5C374.4,541.8,388.4,544.3,402,548.1z M339.8,551.7
			c0-0.1,0-0.1,0-0.2c-2.2-0.9-4.5-1.7-6.6-2.7c-6.3-2.8-12.7-5.6-19-8.3c-0.4-0.2-1,0-1.5,0c0.3,0.4,0.5,0.9,0.9,1.1
			c1.5,0.8,3,1.5,4.6,2.1c6.3,2.7,12.6,5.4,18.9,8.1c0,0,0.1,0,0.2-0.1c-0.1-0.2-0.3-0.4-0.5-0.8c0.7,0.2,1.1,0.3,1.6,0.4
			C338.9,551.6,339.3,551.6,339.8,551.7z M389.2,566.6c-3.3-1.4-19.2-4-22.4-3.8C374.1,565.1,381.5,566.6,389.2,566.6z M317.7,563.5
			c7-2,13.5-5.3,19.9-8.7C330.9,557.7,323.9,559.6,317.7,563.5z"/>
		<path class="st1" d="M284.5,222.1c0.1-1.1,0.3-1.9,0.3-2.7c0.4-9.9,0.8-19.9,1.2-29.8c0.1-2.2-0.1-4.4,0.1-6.6
			c0.1-1.1,0.7-2.2,1.2-3.3c0.1-0.1,0.4-0.3,0.6-0.3c7.5-0.3,14.8-2.1,22.1-3.6c1.8-0.4,3.6-0.9,5.4-1.3c0.7,3.1,1.4,6.1,2.2,9.1
			c5,20.3,10.5,40.4,18,59.9c1.1,2.9,2.2,5.7,3.5,8.5c0.9,1.9,3.9,1.8,4.9-0.1c5.4-10.4,12.1-20,19.2-29.2
			c6.5-8.5,12-17.5,17.8-26.5c5.3-8.3,10.9-16.4,16.4-24.5c0.1-0.1,0.2-0.2,0.3-0.4c0.3,0.1,0.5,0.2,0.8,0.3
			c7.4,3.8,15.3,5.7,23.6,6c0.4,0,1,0.3,1.1,0.6c1.3,2.7,3.4,3.9,6.3,4c1.2,0,2.3,0.1,3.8,0.2c-4.6,12.9-9.3,25.6-13,38.7
			c0.1,0.1,0.2,0.1,0.3,0.2c0.2-0.4,0.5-0.7,0.7-1.1c2.5-4.4,3.9-9.2,5.4-13.9c2.2-6.7,4.2-13.5,6.2-20.3c0.2-0.6,0.4-1.2,0.6-1.9
			c0.2,0.3,0.3,0.4,0.3,0.5c4.2,10.7,10.6,20,17.5,29.1c7.8,10.2,16.4,19.6,25.7,28.5c0.1,0.1,0.3,0.3,0.5,0.6
			c-13.7,12-29,21.5-45.3,29.6c-0.5-0.9-0.9-1.7-1.3-2.4c-3.8-6.8-7.8-13.4-12.4-19.6c-0.3-0.4-0.5-1.2-0.4-1.7
			c1.3-5.8,2.8-11.5,4.2-17.3c0.3-1.1,0.7-2.1,0.9-3.2c0.1-0.4-0.3-1-0.5-1.4c-0.5,0.3-1.2,0.5-1.3,0.9c-0.6,1.4-1.1,2.9-1.6,4.4
			c-5.3,18.4-10,37-13.4,56c-0.4,2.4-0.6,4.8-0.8,7.1c-0.2,1.8,0.2,3.4,1.1,4.9c0.5,0.9,0.9,1.8,1.4,2.8c-2,0.6-3.9,1.2-5.8,1.8
			c-7.3,2.1-13.2,6.2-16.9,13c-0.8,1.4-1.6,2.8-2.2,4.2c-1.1,2.6-0.5,4,2.1,5.2c-0.3,0.2-0.6,0.5-0.8,0.7c-1.2,1-2.4,1.8-3.5,2.9
			c-2.1,2.1-2,4.9-0.1,7.2c1.7,2,4,3,6.3,4c0.6,0.2,1.3,0.1,2,0c0.9-0.2,1.7-0.5,2.5-0.7c0.1,1.5,0.1,3,0.3,4.4
			c0.5,3.1,2.1,4.6,5.2,4.8c2.2,0.1,4.5,0,6.7,0c0.9,0,1.6,0,1.5,1.3c-0.1,1,0.7,1.6,1.5,2.1c2.8,1.5,5.9,1.9,9,1.7
			c2.9-0.2,5.8-0.8,8.9-1.2c1.1,7,2.3,14.3,3.5,21.8c-1.9,0-3.5-0.1-5.1,0c-1.1,0.1-2.3,0.2-3.4,0.7c-7.9,3.2-15.6,6.6-23.5,9.6
			c-18,6.7-36.7,10.5-55.9,11.9c-20.3,1.5-40.5,0.5-60.5-3.5c-7.6-1.5-15.1-3.7-22-7.3c-2.1-1.1-4.2-2.3-6.3-3.4
			c-0.8-0.5-1.1-1.1-1-2.1c0.8-6.8,2.3-13.5,4.6-20c3.5-9.9,7.4-19.6,11.1-29.4c2.8-7.4,5.7-14.8,8.2-22.3c0.8-2.5,1.1-5.2,1.3-7.8
			c0.3-3.6-0.8-6.9-2.8-10c-2.8-4.5-5.5-9.1-8-13.8c-2.9-5.6-2.9-11.4-0.8-17.3c2.2-6.1,5.2-11.8,8.6-17.4
			c3.8-6.2,7.8-12.4,11.7-18.6c0.7-1.1,1.3-2.2,1.8-3.4c0.2-0.4-0.1-0.9-0.1-1.3c-0.4,0.2-0.8,0.3-1.1,0.6
			C285.1,221.5,284.9,221.7,284.5,222.1z M395,238.1c-2.1-4.5-2.8-5.6-4.7-6.5c-2.7-1.4-5.3-1-7.8,1.2c-1.5-2.1-3.5-2.8-6-2.2
			c-2.8,0.7-4.6,2.5-5.5,5.2c-0.2,0.7-0.5,0.9-1.3,0.8c-1.5-0.2-2.9,0.3-4.2,1.2c-1.9,1.4-2.9,3.3-3.4,5.5c-0.8,3.3-0.3,6.5,0.3,9.7
			c0.1,0.5,0,1.2-0.3,1.7c-2,3.7-1.8,7.8,0.8,10.9c2.6,3.2,5.6,3.8,10,2.3c4.1-1.5,8.2-1.9,12.3,0.2c2.1,1.1,4.4,1.2,6.7,1
			c3.3-0.3,5.8-1.9,7.4-4.8c1.5-3,1.8-6.1,0.8-9.3c-0.2-0.7-0.2-1.2,0.2-1.7c1.5-2.1,2.2-4.5,2.1-7.1
			C402.2,242.5,399.2,237.7,395,238.1z M419.5,216.6c0.1,0,0.2,0,0.3,0c0.2-1,0.4-2,0.6-3c1.1-10,2.2-19.9,3.4-29.9
			c0.1-0.6,0.4-1.3,0.7-2.2c-0.2-0.1-0.7-0.6-1.1-0.5c-0.4,0.1-0.8,0.7-1,1.1c-0.2,0.4-0.1,0.9-0.2,1.3c-0.5,6.9-1,13.8-1.6,20.7
			C420.2,208.3,419.8,212.4,419.5,216.6z"/>
		<path class="st2" d="M375.5,139.1c-0.9-4.3-1.8-8.4-2.8-12.6c7.6,0.5,15.3-6.8,17-13.9c2.4-9.9,0.5-19-6-26.9
			c-1.2-1.4-2.9-2.6-4.5-3.4c-2.4-1.3-4.7-0.7-6.5,1.3c-2.2,2.3-3.4,5.1-4.4,8.1c-0.1,0.4-0.3,0.8-0.4,1.2c-0.1,0-0.2,0-0.3,0.1
			c-0.2-0.6-0.5-1.1-0.4-1.7c0.1-1.2,0.4-2.4,0.6-3.5c0.2-0.9,0.3-1.7-0.6-2.3c-0.8-0.5-1.5-0.1-2.1,0.4c-3.1,2.7-10,2.1-13.3-1.5
			c-1.2-1.3-1.7-2.9-1-4.6c0.8-1.9,1.8-3.7,2.7-5.6c0.4-0.7,0.9-1.4,0.4-2.2c-0.5-0.9-1.3-0.7-2.1-0.4c-0.3,0.1-0.7,0.1-0.9,0.1
			c-2.5-0.6-5-1-7.4-1.9c-3.8-1.4-5.7-4.4-5.6-8.5c0-0.5,0.1-1.1,0-1.5c-0.2-0.6-0.5-1.3-1-1.6c-0.4-0.2-1.1,0.2-1.7,0.5
			c-0.4,0.2-0.7,0.6-1,0.8c-2.3,1.7-4.7,2.3-7.5,1.6c-1.5-0.4-2.8,0-4,1c-4.1,3.5-8.6,4.3-13.6,2.3c-0.6-0.2-1.1-0.5-1.7-0.5
			c-0.5,0-1.3,0.3-1.5,0.6c-0.2,0.4-0.2,1.3,0.1,1.6c1.3,1.5,1.9,3.2,1.6,5.2c-0.4,2.3-1.7,4-3.3,5.5c-3.2,2.8-7.1,3.8-11.1,4.3
			c-5,0.6-9.9,0.3-14.8-0.8c-2-0.5-3.9-1.4-5.7-2.3c-1.4-0.7-1.9-0.7-3,0.4c-0.3,0.3-0.7,0.7-1.1,1c-1.2,0.9-1.4,0.9-2.5-0.1
			c-0.6-0.5-1.3-0.8-2.2-1.3c0-0.3,0-0.8,0-1.4c0-0.9,0-1.8-0.9-2.4c-0.9-0.6-1.7,0-2.5,0.4c-2.1,1-4.3,2.1-6.5,3.1
			c-0.6,0.3-1.4,0.4-2.1,0.5c-2.2,0.4-3.2-0.4-3.3-2.6c-0.2-2.9,0.2-5.7,1.1-8.5c1.4-4.8,3.8-8.9,7.9-11.8c0.3-0.2,0.6-0.5,0.8-1.1
			c-0.5,0-1,0-1.4,0.1c-2,0.5-3.7,1.7-5,3.2c-4.6,5.5-6.6,11.8-6.1,18.9c0.2,3.3,2.3,5,5.6,4.6c2.4-0.3,4.7-1.3,7.1-2.1
			c0.7-0.2,1.4-0.6,2.1-1c0.1,0.6,0.2,1,0.3,1.5c0.3,1,0.9,1.6,2,1.9c0.6,0.1,1.3,0.4,1.8,0.8c1.2,0.9,2.5,1.1,3.8,0.5
			c0.7-0.3,1.3-0.9,2-1.3c0.3-0.2,0.6-0.3,0.9-0.4c0.1,0.3,0.2,0.7,0.2,1c0,2.9-0.2,5.8-0.1,8.8c0,4.5,1.2,8.9,3.2,12.9
			c2,4,4,8,5.9,12c3,6.3,4.3,12.9,4.6,19.8c0.2,4.1,0.5,8.1,1,12.2c0.2,1.6,1,3.1,1.5,4.6c0.4,1.1-0.1,2.2-1.3,1.9
			c-1.8-0.4-3.3-0.1-4.9,0.6c-1.1,0.5-2.2,0-2.9-1.3c-0.7-1.2-1.1-2.5-1.6-3.7c-0.3-0.6-0.4-1.3-0.7-1.9c-0.6-1.1-1.6-1.4-2.8-0.9
			c-0.6,0.3-1.2,0.8-1.8,1.2c-6.4,4.8-12.9,3.8-17.6-2.7c-4.9-6.9-4.9-15.6,0.2-22.6c1.2-1.7,2.7-3.1,4.1-4.7c0.3-0.3,0.7-0.6,1-0.9
			c0.7-0.7,1.6-1.4,1.1-2.6c-0.5-1.2-1.6-1.2-2.6-1.2c-2.5-0.2-5-0.3-7.5-0.6c-1.6-0.2-1.8-0.7-1.4-2.2c0.2-0.7,0.5-1.4,0.7-2.2
			c0.6-1.8-0.1-2.7-2-2.8c-0.2,0-0.4,0-0.8-0.1c0.1-0.5,0.1-1.1,0.2-1.5c0.6-1.7,1.2-3.4,1.7-5.1c0.7-2.2,0-3.2-2.3-3.1
			c-0.9,0-1.8,0-2.7-0.2c-1.7-0.3-2.9-1.2-3.3-3c-0.4-1.5-1.2-2-2.8-1.8c-2.3,0.3-4.5,0.7-6.8,0.8c-1.7,0.1-3.5,0.1-5.3,0
			c-4.5-0.5-7.3-3.1-8.2-7.5c-2.8-14.1,7.1-27.5,21.3-29c0.4,0,0.9-0.1,1.3-0.2c1.2-0.4,1.6-1.5,0.8-2.6c-1.5-2.3-1-3.8,1.7-4.4
			c1.3-0.3,2.6-0.3,3.9-0.3c0.9,0,2,0,2.2-1c0.2-0.6,0-1.6-0.4-2.2c-1.6-2.8-1.6-4.5,0.8-6.7c2.5-2.2,5.1-4.4,8-6
			c14.2-8.1,29.4-12.3,45.8-11.5c3.1,0.1,6.1,0.8,9.1,1.3c1.4,0.2,2.6,0.4,3.9-0.6c0.5-0.4,1.5-0.4,2.2-0.4c2.9,0.3,5.7,0.6,8.5,1.2
			c2.4,0.4,4.3,0.1,6.1-1.7c3.6-3.5,8.1-5.2,13.1-5.5c6.8-0.4,13.3,0.6,19.6,3.1c6.6,2.6,11.4,7.2,14,13.9c1.2,3.1,2.1,6.4,3.1,9.6
			c0.3,0.9,0.5,1.8,0.8,2.6c0.1,0.3,0.7,0.7,1,0.7c0.3,0,0.8-0.6,0.8-0.9c0-1.2,0.8-1.6,1.6-1.9c4.3-1.7,8.7-1.8,13-0.1
			c7.7,2.9,14.2,7.5,19.2,14c6.5,8.4,6.3,17.8-0.5,25.9c-1.9,2.2-4,4.3-5.9,6.4c-1.4,1.5-1.3,2.1,0,3.7c0.6,0.7,0.7,1.9,0.8,2.9
			c0.1,1-0.1,2.1-0.2,3.1c-0.1,1.8,0.7,3.2,2.1,4.2c1.1,0.8,2.3,1.5,3.4,2.2c2.3,1.4,3.9,3.4,4.8,6c1,3.2,0.4,6-2.1,8.3
			c-3.4,3.2-7.6,4.8-12.2,5.5c-1.6,0.2-3.3,0.1-4.9,0c-2.3-0.1-3.3,0.7-3.4,3c0,1.3,0,2.7-0.2,3.9c-0.4,2.8-2.2,4.4-5,4.6
			c-1.1,0.1-2.1-0.1-3.2-0.2c-1.9-0.2-2.8,0.2-3.5,2c-0.8,2.1-2.3,3-4.3,3.3c-2,0.3-4,0.1-5.9-0.7
			C377.4,138.4,377.4,138.4,375.5,139.1z"/>
		<path class="st3" d="M274.1,82.1c2.6,0.5,5.1,1.2,7.6,1.6c5.7,0.8,11.4,0.8,17-0.8c2.8-0.8,5.4-2.1,7.5-4.1
			c3.2-2.9,4.9-6.4,4.1-11c0.3,0,0.5-0.1,0.7,0c5,1.1,9.3-0.3,13.2-3.4c0.7-0.6,1.4-0.8,2.3-0.6c2.7,0.6,5.3,0.1,7.8-1.2
			c0.2-0.1,0.4-0.2,0.7-0.3c1,8.9,7.6,10.8,14.8,12.2c-0.1,0.3-0.2,0.6-0.3,0.9c-0.5,1.1-1,2.3-1.4,3.4c-1,3.1-0.2,5.9,2.2,8.1
			c3.6,3.3,7.9,4.2,12.6,3.2c0.4-0.1,0.7-0.2,1-0.3c0,0,0.1,0,0.2,0c0,0.4,0,0.7,0,1.1c0,2.1,0.7,3.7,2.5,4.8c0.3,0.2,0.5,0.7,0.5,1
			c-0.4,3.9-0.1,7.8,0.5,11.7c0.6,3.7,1.1,7.4,1.4,11.1c0.7,6.9-0.8,13.5-3.9,19.6c-5.4,10.8-13,19.8-22.8,27
			c-1.5,1.1-3.2,2-4.8,2.9c-2.9,1.5-5.9,2.1-9.2,2c-8.7-0.5-17.2-2-24.8-6.6c-6-3.6-10.7-8.4-13.4-14.9c-1.6-3.8-1.7-7.9-1.7-11.9
			c-0.1-7.1-0.9-14-3.7-20.5c-1.5-3.5-2.9-7-4.9-10.2c-4.5-7.4-6.2-15.5-6.1-24.1C274,82.5,274.1,82.2,274.1,82.1z M307.1,145.6
			c-0.8-0.7-1.4-1.3-2-1.9c-0.6-0.6-1.2-1.1-1.9-0.5c-0.7,0.7-0.4,1.5,0.2,2c1.4,1.2,2.7,2.4,4.3,3.5c0.8,0.6,1.3,1,1.2,2.1
			c-0.2,3.4,1,6.3,3.6,8.5c2.1,1.7,4.5,2.8,7.1,3.2c4.4,0.7,7.9-0.9,10.3-4.5c1.1-1.6,1.9-3.5,2.8-5.3c1.7-3.4,3.4-6.7,6.7-8.8
			c0.7-0.4,1.2-1,1.7-1.7c0.5-0.7,0.9-1.5,1.2-2.3c0.3-0.8,0.1-1.6-0.8-1.8c-0.9-0.2-1.4,0.4-1.7,1.2c-0.2,0.5-0.4,1-0.7,1.5
			c-1.4,1.8-3.3,2.3-5.5,1.7c-1.9-0.6-3.8-1.3-5.7-2.1c-5.2-2-10.4-2.2-15.7-0.4C309.7,140.9,307.6,142.5,307.1,145.6z M308.8,135.8
			c-0.4-0.5-0.5-0.9-0.8-1.2c-1.2-1.4-2.5-2.7-3.6-4.1c-2.2-2.7-2-4.2,0.9-6.2c1.5-1,2.7-2.3,3-4.1c0.9-5,1.3-9.9-3-13.8
			c-2.3-2.2-4.8-3.9-7.9-4.7c-2.6-0.6-5-0.1-7,1.9c-2.5,2.5-3,6-1.4,9.6c1.4,3.2,4.6,5.3,7.9,4.9c1.7-0.2,3.5-0.9,5-1.7
			c1.5-0.8,2.7-2.1,4.1-3.3c0,0,0.1,0.2,0.1,0.3c0.2,3.6,0.3,7.1-3.4,9.3c-1.6,1-2.7,2.4-2.6,4.5c0.1,2.9,1.6,5,3.7,6.8
			C305.2,135.1,306.8,135.6,308.8,135.8z M329.9,113.5c4.8,0,9.4-1.5,12-3.6c2-1.6,2.8-3.7,2.4-6.2c-0.5-3.5-3.1-6.5-6.6-7.3
			c-5.3-1.2-9.8,0.3-13.5,4.2c-1.7,1.7-2.7,3.8-3,6.1c-0.2,1.1,0.1,2.1,0.8,3C324.2,112.4,327,113.6,329.9,113.5z M347.8,94.3
			c-0.3-0.5-0.5-1-0.8-1.3c-1.1-1.1-2.2-2.2-3.5-3.1c-2.4-1.9-5.1-2.4-8-1.5c-5.2,1.5-9.9,4-14,7.5c-0.6,0.5-1.2,1.1-1.6,1.8
			c-0.2,0.4-0.3,1.3-0.1,1.6c0.5,0.7,1,0,1.5-0.3c4.3-3.5,9.1-6.1,14.4-7.7c2.6-0.8,4.9-0.2,6.8,1.6c0.9,0.9,1.7,1.8,2.7,2.5
			c0.4,0.3,1.1,0.4,1.5,0.2C347.2,95.4,347.5,94.8,347.8,94.3z M290.5,93c-3.8,0.2-7.8,3.6-8.4,7.3c0,0.2-0.1,0.4,0,0.6
			c0.2,0.4,0.3,0.9,0.6,1c0.3,0.1,0.8-0.2,1.1-0.5c0.6-0.7,1-1.5,1.6-2.3c2.4-3.1,4.8-3.8,8.3-2c2.5,1.2,4.7,3,7.1,4.5
			c0.5,0.3,1,0.8,1.5,0.9c0.5,0.1,1.4-0.1,1.7-0.4c0.3-0.4,0.1-1.2,0-1.7c-0.1-0.3-0.4-0.5-0.6-0.7c-2.7-1.8-5.4-3.6-8.2-5.2
			C293.7,93.7,292,93.5,290.5,93z M319.6,132.3c0,0.1,0,0.1,0.1,0.2c0.2,0,0.3,0,0.5,0c0.9,0,1.8,0,1.9-1.2c0.1-0.8-0.6-1.4-1.8-1.4
			c-2.2-0.1-4.1,0.6-5.8,1.9c-0.4,0.3-0.5,1-0.7,1.5c0.5,0,1,0.2,1.5,0.1C316.7,133.1,318.1,132.6,319.6,132.3z"/>
		<path class="st3" d="M424.5,328.7c0.8-3,0.5-6-0.4-9c7.4-1.4,11.9-6.6,16.3-12c3.3-4,6.3-8.2,8.5-12.9c2.9-6.3,7.7-10.3,14-12.8
			c3.5-1.4,7-2.5,10.5-3.8c1.8-0.7,3.5-1.7,5.2-2.5c0-0.2-0.1-0.4-0.1-0.6c-1.6,0-3.3-0.3-4.9,0c-6.8,1.3-13.2,3.9-19,7.7
			c-0.2,0.1-0.5,0.3-0.8,0.5c-2.6-4.9-6.2-9.1-10-13.2c10.9-5.9,21.2-12.6,30.8-20.4c0.3,0.4,0.6,0.6,0.9,1
			c7.9,9.3,14.1,19.6,18.9,30.8c1.9,4.4,3.4,8.9,5.1,13.4c0.2,0.4,0.3,0.9,0.4,1.4c0.9,4.3,0.4,5.5-3.1,8
			c-9.5,6.6-19.5,12.4-29.9,17.5c-11.4,5.6-22.9,11.2-34.4,16.7c-0.4,0.2-1,0.1-1.5-0.1c-0.2-0.1-0.4-0.7-0.4-1
			c0.8-4.3-1.4-7.5-5.6-8.4C424.7,328.8,424.6,328.7,424.5,328.7z"/>
		<path class="st3" d="M247,251.1c4.8,3,9.5,6,14.4,9c0-0.1,0,0.1-0.1,0.4c-2.6,6.9-2.1,13.6,1,20.1c0.6,1.3,1.3,2.7,2,4
			c0.2,0.5,0.4,0.8-0.2,1.2c-1.4,1-2.7,2-4.2,3.1c-0.2-0.7-0.5-1.3-0.7-1.8c-0.9-2.7-2.8-4.5-5.4-5.5c-4-1.5-8.1-1.5-12.3-1.2
			c-1.3,0.1-2.6,0.2-4,0.6c0.8,0.2,1.7,0.4,2.5,0.6c3.5,0.7,7,1.5,10.4,2.2c0.9,0.2,1.8,0.5,2.7,0.9c1.5,0.6,2.6,1.7,3.1,3.3
			c1.2,4.6,2.5,9.1,3.5,13.7c1.6,7.7,3.1,15.4,5.5,23c0.2,0.6,0.2,1.3,0,1.8c-3.3,8.4-6.7,16.9-10.1,25.3c-0.1,0.1-0.2,0.3-0.3,0.6
			c-1.4-1.9-2.8-3.6-4.1-5.4c-6.7-9.3-12.9-18.8-18.5-28.7c-4.9-8.7-8.1-17.9-9.1-27.8c-0.4-4.1,0.5-7.7,2.9-11
			c2.9-4,6-7.9,9.1-11.8c4.1-5.2,8.2-10.4,11.6-16.2C246.8,251.3,246.9,251.2,247,251.1z"/>
		<path class="st4" d="M277.8,702.6c0.7-0.6,1.2-0.2,1.8,0.4c3.6,3.7,7.1,7.3,10.7,11c0.6,0.6,1.2,1.3,2,1.8c1.4,1,2.9,0.5,3.1-1.1
			c0.2-2,0.2-4.1-0.1-6.2c-0.6-3.8-2.1-7.3-4.1-10.6c2.1,1.4,4.7,1.7,6.4,3.9c2.1,2.7,4.3,5.4,6.6,8.1c1,1.1,2.2,2,3.4,2.8
			c2.5,1.4,4.9,0.4,5.7-2.4c0.3-1.2,0.3-2.4,0.5-3.8c8.6,2.1,17.2,1,26.1,0c-0.1,2.1-0.1,4.1-0.3,5.9c-0.4,2.8-0.6,5.8-1.5,8.5
			c-1.5,4.5-4.1,5.6-7.6,5.5c-1.4-0.1-2.8,0-4.2,0.1c-1.3,0.2-2.7,0.4-3.9,0.9c-13,5.4-26.7,7-40.6,6.7c-7.4-0.1-14.8-0.6-22-2.5
			c-3.8-1-7.5-2.4-10.8-4.8c-0.8-0.6-1.1-1.2-0.7-2.2c2.1-5.5,4.3-10.9,8.2-15.5c1.2-1.4,2.6-2.5,3.9-3.7c0.5-0.4,1.2-0.7,1.8-0.8
			c2.2-0.4,4-0.2,5.4,2c2.1,3.2,4.6,6.1,7,9c0.9,1.1,2,2.2,3.2,3.1c2.4,1.7,4.5,0.7,4.9-2.2c0.4-2.9-0.4-5.6-1.7-8.1
			C280,706.2,278.9,704.4,277.8,702.6z"/>
		<path class="st3" d="M340.8,224.9c-0.8-2.7-1.6-5.4-2.3-8.2c-2.5-9.4-4.9-18.9-7.5-28.3c-0.5-1.8,0.8-2.5,1.6-3.4
			c0.6-0.6,0.8-1.1,0.6-1.9c-0.7-2.9-1.4-5.8-2.1-8.8c0.7-0.1,1.5-0.2,2.4-0.4c5-1,9.2-3.5,13-6.6c9.7-7.8,17.4-17.1,22.6-28.5
			c0.4-0.9,0.8-1.9,1.2-2.9c0.4-1,0.7-2,1.1-3.2c0.2,0.5,0.3,0.7,0.3,0.9c1.8,9.9,4.3,19.7,7.5,29.2c0.5,1.4,0.7,2.9,1,4.3
			c0.1,0.3-0.1,0.7-0.3,0.8c-5.5,5.4-9.5,12-13.8,18.4c-7.6,11.4-14.9,23-22.4,34.5c-0.9,1.3-1.7,2.7-2.6,4
			C341.1,224.9,341,224.9,340.8,224.9z"/>
		<path class="st4" d="M373.2,710.4c-4.2,2.1-4.8,3.5-2.8,6.5c0,0.1-0.1,0.2-0.1,0.2c-2.8,1.3-3,1.6-2.4,4.8c0.1,0.6,0,1-0.5,1.4
			c-0.9,0.6-1.6,1.4-2.4,2.1c-0.7,0.7-1.2,1.4-0.9,2.4c0.6,1.5,1,1.8,2.6,1.9c7.4,0.4,14.9,0.7,22.3,1.2c3.3,0.2,6.5,0.9,9.7,1.4
			c2.5,0.4,3.7-0.9,3-3.4c-0.4-1.5-1.2-2.6-3.9-5.2c1.6-1.9-0.3-3.1-1-4.6c1.3-1.8,1.6-3.8,0.7-6c-1-2.2-3.2-2.5-5.6-3.3
			c2.9-0.3,5.5-0.5,8-0.7c0.3,0,0.7,0.3,0.8,0.5c3.4,7.4,6.8,14.8,10,22.3c1.7,4,1.4,8.3,0.6,12.5c-0.6,3.1-2.4,5.3-5.5,6.4
			c-4.7,1.6-9.4,2.4-14.3,2.7c-8.6,0.5-17.1,0.5-25.6-1.1c-2.5-0.5-4.9-1.2-7.2-2.2c-4.5-2-5.8-4.6-4.9-9.4c0.9-5.2,2.8-10,4.8-14.8
			c2-4.9,4.1-9.8,6.1-14.7c0.2-0.6,0.5-0.9,1.2-0.9C368.3,710.4,370.7,710.4,373.2,710.4z"/>
		<path class="st0" d="M382.6,162c4.5,1.7,9.2,3.5,14.2,5.4c-0.7,1.1-1.2,2.1-1.9,3c-9.4,12.7-17.5,26.3-26.3,39.4
			c-4.9,7.2-10.1,14.1-15.2,21.1c-4.1,5.6-7.6,11.6-10.9,17.6c-0.2,0.4-0.5,0.9-1,1.5c-0.5-1.1-1.1-2-1.4-2.9
			c-3.5-10.4-7.3-20.7-10.5-31.1c-4.2-13.8-7.9-27.7-11.9-41.5c-0.1-0.3-0.1-0.5-0.1-1c0.8-0.1,1.5-0.2,2.1-0.2
			c2.5,0.2,4.9,0.5,7.4,0.8c0.7,0.1,1.2,0.3,1.4,1c0.4,2.1,0.9,4.2,1.3,6.3c0.1,0.3-0.2,0.6-0.4,1.2c-0.5-1-0.9-1.7-1.3-2.4
			c-0.4-0.6-1-1.2-1.6-0.7c-0.4,0.3-0.6,1.1-0.4,1.6c3.4,13.1,6.8,26.2,10.3,39.3c0.7,2.4,1.6,4.8,2.7,7.1c0.9,1.8,2.6,1.8,3.7,0.2
			c2.5-3.7,4.9-7.4,7.2-11.2c8.7-14.2,18.1-28,27.7-41.6c1.4-2,3.3-3.7,4.9-5.6c0.5-0.6,0.8-1.4,0.8-2.1
			C383.3,165.4,382.9,163.6,382.6,162z"/>
		<path class="st1" d="M285.1,183.3c-0.7,12.1-1.5,24.1-2.2,36.1c-0.1,0-0.2,0-0.3,0.1c-0.3-0.8-0.6-1.5-1-2.4
			c-0.5,2,0.7,5.6,1.9,6.3c-8.1,10.7-15.5,21.8-21.1,34c-6.5-4.5-13-8.9-19.6-13.4c0.3-0.4,0.4-0.5,0.5-0.6
			c5.3-4.8,9.7-10.3,13.4-16.4c3.9-6.5,8.1-12.7,12.1-19.1c4-6.3,7.8-12.8,10.7-19.7C280.6,185.6,282.4,184.2,285.1,183.3z
			 M281.1,213.4c0-6.1,0.3-12.2-0.9-18.2C279.5,201.3,280.5,207.4,281.1,213.4z"/>
		<path class="st3" d="M372.8,123.4c0-0.7-0.1-1.2-0.1-1.6c0-4.3-0.9-8.4-2.7-12.3c-0.3-0.7-0.4-1.5-0.4-2.2c0-2.6-0.2-5.1,0.1-7.7
			c0.3-3,1-5.9,1.7-8.8c0.3-1.2,1-2.4,1.7-3.4c2.2-3.7,4.3-4,7.4-1c3.1,3,4.9,6.8,6,10.9c1.4,5.3,1.6,10.5-0.4,15.7
			c-1.8,4.7-5.1,8.1-9.9,9.8C375.3,123.2,374.1,123.2,372.8,123.4z M374.4,117.7c0.1,0.1,0.2,0.2,0.3,0.3c0.4-0.2,0.9-0.3,1.2-0.6
			c3.3-3.1,4.7-7.4-0.7-10.7c-0.2-0.1-0.5-0.3-0.7-0.4c-0.7-0.2-0.9-0.7-0.9-1.4c0.1-2.4,0-4.8,0-7.2c0-0.2-0.1-0.5-0.1-0.7
			c-0.1,0-0.3,0-0.4,0c-0.6,2.6-1.4,5.1-1.9,7.7c-0.4,2.2,0.1,2.9,2.2,3.8c3.3,1.5,3.9,3.2,2.3,6.5
			C375.2,115.9,374.8,116.8,374.4,117.7z"/>
		<path class="st3" d="M422.6,324.6c0,0.4,0,0.7,0,1c-0.1,2.8-0.6,3.5-3.4,4c-4.7,1-9.3,1.9-14,2.8c-3.9,0.8-7.6,2.4-11.1,4.4
			c-1.2,0.7-2.4,1.4-3.7,1.9c-2.8,1.1-6-0.1-7.5-2.7c-0.9-1.6-0.9-2.9,0.6-4c2.3-1.8,4.5-3.6,7.1-4.9c8.1-4,16.3-7.7,24.5-11.5
			c2.5-1.2,5.1,0.1,6.1,2.7C421.9,320.5,422.7,322.5,422.6,324.6z"/>
		<path class="st3" d="M399.8,348c-4.4,0.1-5.5-1.1-5.7-5.5c-0.1-2,0.8-3.2,2.5-4.2c4.3-2.4,9-3.5,13.7-4.4c3.3-0.6,6.7-1.3,10-2
			c1.3-0.3,2.6-0.9,3.9-0.9c2.6-0.1,4.8,2.8,4.2,5.4c-0.1,0.5-0.5,1.1-1,1.4c-7.4,4.3-14.9,8.1-23.4,9.9c-0.8,0.2-1.6,0.3-2.4,0.3
			C401.1,348.1,400.5,348,399.8,348z"/>
		<path class="st3" d="M406.7,315.4c-0.2,0-0.5,0.1-0.7,0c-3.2-0.3-5.1,1.5-6.7,3.9c-0.3,0.4-0.7,0.8-1.2,1.1
			c-3,1.6-6.1,3.1-9.1,4.6c-0.7,0.4-3.1,0-3.5-0.7c-0.1-0.2-0.2-0.5-0.2-0.8c0-0.3,0.1-0.6,0.2-0.9c2.9-5.8,6.2-11.2,12.5-14
			c5-2.2,10.1-3.9,15.5-5c1.7-0.3,1.9-0.2,2.3,1.4c0.6,2.1,1,4.3,1.5,6.4c0.2,0.7-0.1,1.1-0.9,1.4c-1.3,0.3-2.6,0.8-3.9,1.3
			C410.7,314.9,408.8,315.9,406.7,315.4z"/>
		<path class="st3" d="M415.4,353.3c-1.9-0.4-3.8-0.7-5.7-1.1c-0.5-0.1-1.4-0.8-1.4-1c0.2-0.9,0.1-2,1.4-2.6
			c5.3-2.3,10.6-4.8,15.9-7.2c0.9-0.4,1.8-1,2.7-1.5c0.7-0.5,1.3-0.3,1.8,0.3c0.3,0.3,0.5,0.6,0.6,1c1.3,3.3-0.6,8-3.8,9.4
			C423.3,352.2,419.4,353.1,415.4,353.3z"/>
		<path class="st1" d="M399.8,729.8c-3-0.4-5.5-0.9-8.1-1.2c-7.3-0.8-14.6-1.4-22-0.9c-0.8,0.1-1.6,0.2-2.4,0.3
			c-0.3,0-0.6-0.1-0.9-0.2c0.1-0.3,0.1-0.8,0.3-0.9c1-0.8,2-1.9,3.1-2.3c6.7-2.5,13.7-3.2,20.7-1.9c3.1,0.6,5.7,2.3,7.8,4.7
			C398.9,728,399.2,728.8,399.8,729.8z"/>
		<path class="st1" d="M288.2,697.8c3.2,3.2,6,11.6,5.1,16.1c-4.2-4.1-8.4-8.2-12.6-12.3C283.2,700.4,285.7,699.1,288.2,697.8z"/>
		<path class="st1" d="M395.2,717.6c-5.2-3.2-10.9-2.4-16.4-1.9c-2.4,0.2-4.8,0.7-7.2,1c0-0.1-0.1-0.1-0.1-0.1
			c-0.3-3.2-0.2-3.4,2.9-4c5.7-1.1,11.3-1.2,17.1-0.4c0.6,0.1,1.1,0.2,1.6,0.4C395.7,713.4,396.4,714.8,395.2,717.6z"/>
		<path class="st1" d="M268,704.4c2.4-0.4,4.6-0.8,6.7-1.1c0.3,0,0.7,0.1,0.9,0.3c2.5,3.2,4.6,6.6,4.9,10.7c0.1,0.8-0.3,1.7-0.5,2.6
			c-0.8-0.4-1.8-0.6-2.3-1.3C274.5,712,271.3,708.3,268,704.4z"/>
		<path class="st1" d="M369.6,722c-0.3-2.4-0.2-2.6,1.9-3c5.7-1.1,11.5-2,17.4-1.3c3.1,0.4,5.8,1.5,7.3,4.7
			C387.3,718.3,378.5,719.6,369.6,722z"/>
		<path class="st1" d="M300.7,702.5c3.3,1,6.6,2.1,9.9,3.1c0.2,0.1,0.5,0.2,0.6,0.5c0.5,0.9,0.1,3.7-0.7,4.3c-0.3,0.3-1,0.5-1.4,0.4
			c-0.6-0.2-1.3-0.5-1.8-0.9c-2.4-2.3-4.7-4.7-7-7.1C300.5,702.6,300.6,702.5,300.7,702.5z"/>
		<path d="M360.9,541.2c0.2,0.3,0.4,0.6,0.6,0.9c2.7,3.4,5.2,7,8,10.3c5.1,6,11.7,7.9,19.4,6.1c2.7-0.7,5.4-1.4,8.1-2.2
			c0.4-0.1,0.8-0.2,1.3-0.4c0,1.2-0.3,2-1.5,2.4c-4.3,1.4-8.5,2.7-13.1,2.9c-4.7,0.1-8.8-1.3-12.3-4.4c-4.3-3.7-7.6-8.1-10.2-13.2
			c-0.3-0.7-0.5-1.5-0.8-2.2C360.5,541.3,360.7,541.3,360.9,541.2z"/>
		<path d="M402,548.1c-13.6-3.8-27.6-6.3-40.3-12.8c0.1-0.2,0.1-0.3,0.2-0.5c13.4,4.3,26.9,8.6,40.3,12.9
			C402.1,547.9,402,548,402,548.1z"/>
		<path d="M339.8,551.7c-0.5-0.1-0.9-0.2-1.4-0.3c-0.5-0.1-0.9-0.2-1.6-0.4c0.2,0.4,0.4,0.6,0.5,0.8c-0.1,0-0.1,0.1-0.2,0.1
			c-6.3-2.7-12.6-5.4-18.9-8.1c-1.5-0.7-3.1-1.4-4.6-2.1c-0.4-0.2-0.6-0.8-0.9-1.1c0.5,0,1.1-0.2,1.5,0c6.3,2.8,12.7,5.6,19,8.3
			c2.2,1,4.4,1.8,6.6,2.7C339.8,551.6,339.8,551.6,339.8,551.7z"/>
		<path d="M339,559c-0.4,0.4-0.8,0.9-1.2,1.3c-5.6,6-11.3,11.9-16.9,17.9c-0.1,0.1-0.2,0.2-0.4,0.2c5.9-7.6,12.2-14.8,19.5-21.1
			C339.7,557.9,339.3,558.5,339,559C339,559.1,339,559,339,559z"/>
		<path d="M389.2,566.6c-7.7,0.1-15.1-1.5-22.4-3.8C369.9,562.5,385.8,565.1,389.2,566.6z"/>
		<path d="M317.7,563.5c6.2-3.9,13.2-5.8,19.9-8.7C331.1,558.2,324.7,561.5,317.7,563.5z"/>
		<path d="M395,238.1c4.1-0.3,7.2,4.5,7.4,7.9c0.1,2.6-0.6,5-2.1,7.1c-0.4,0.6-0.4,1.1-0.2,1.7c1,3.2,0.8,6.4-0.8,9.3
			c-1.5,2.9-4,4.6-7.4,4.8c-2.3,0.2-4.6,0.1-6.7-1c-4.1-2.2-8.2-1.7-12.3-0.2c-4.5,1.6-7.4,0.9-10-2.3c-2.6-3.1-2.8-7.2-0.8-10.9
			c0.3-0.5,0.4-1.2,0.3-1.7c-0.7-3.2-1.2-6.5-0.3-9.7c0.6-2.2,1.6-4.1,3.4-5.5c1.2-0.9,2.7-1.4,4.2-1.2c0.8,0.1,1-0.2,1.3-0.8
			c1-2.6,2.8-4.5,5.5-5.2c2.5-0.6,4.5,0.2,6,2.2c2.5-2.2,5.1-2.6,7.8-1.2C392.2,232.5,392.9,233.5,395,238.1z M390.5,266.2
			c2.4-0.1,4.5-0.8,5.8-3c1.8-2.9,2-6,0.3-9.1c-0.8-1.4-2-2.4-3.5-3c-2-0.8-4-1.6-6-2.5c-3.1-1.4-6.4-2.2-9.6-1.2
			c-3.2,0.9-6.1,2.6-9.1,4.2c-2.1,1.2-3.7,3-4.5,5.4c-0.9,2.5-0.5,4.8,1.4,6.8c1.8,1.9,3.9,2.2,6.4,1.2c4.8-2,9.7-2.4,14.6,0.2
			C387.6,265.8,389.2,265.9,390.5,266.2z M392,247.2c0.1-0.8,0.4-1.7,0.5-2.5c0.3-3.1,0.2-6.1-1.3-8.9c-0.9-1.7-2.3-2.7-4.2-2.7
			c-2.1-0.1-2.9,0.7-3,2.8c-0.1,2-0.3,4-0.6,6c-0.1,0.8-0.2,1.5-0.3,2C386.1,245,389,246.1,392,247.2z M380.4,243.7
			c0.3-1.8,0.6-3.7,0.8-5.6c0.1-0.7,0-1.4-0.1-2c-0.7-3.4-3.3-4.3-5.9-2c-0.2,0.2-0.5,0.4-0.7,0.7c-2.1,3.1-2.1,6.4-1.2,9.9
			c0.1,0.2,0.6,0.5,0.9,0.4C376.2,244.7,378.2,244.2,380.4,243.7z M369.9,239c-1.2-0.2-2.4,0.4-3.3,1.4c-2.3,2.8-2.3,6.1-1.7,9.4
			c2.1-1.3,4.2-2.6,6-3.7C370.5,243.8,370.2,241.5,369.9,239z M398.1,251c1.5-2.3,2-4.7,0.9-7.3c-0.7-1.7-1.8-3-3.7-3.8
			c0,1.5,0.1,2.7,0,3.9c-0.1,1.3-0.4,2.5-0.5,3.8c0,0.4,0.1,0.9,0.4,1.2C396.1,249.6,397.1,250.3,398.1,251z"/>
		<path d="M419.5,216.6c0.3-4.2,0.7-8.4,1-12.5c0.5-6.9,1.1-13.8,1.6-20.7c0-0.4,0-0.9,0.2-1.3c0.2-0.4,0.6-1,1-1.1
			c0.4-0.1,0.9,0.4,1.1,0.5c-0.3,0.9-0.6,1.6-0.7,2.2c-1.1,10-2.2,19.9-3.4,29.9c-0.1,1-0.4,2-0.6,3
			C419.7,216.7,419.6,216.6,419.5,216.6z"/>
		<path d="M307.1,145.6c0.5-3.2,2.6-4.7,5.1-5.6c5.3-1.8,10.5-1.7,15.7,0.4c1.9,0.7,3.8,1.5,5.7,2.1c2.1,0.7,4,0.1,5.5-1.7
			c0.3-0.4,0.5-1,0.7-1.5c0.3-0.7,0.7-1.4,1.7-1.2c0.9,0.2,1.1,1.1,0.8,1.8c-0.3,0.8-0.7,1.6-1.2,2.3c-0.5,0.6-1,1.3-1.7,1.7
			c-3.4,2.1-5,5.4-6.7,8.8c-0.9,1.8-1.7,3.6-2.8,5.3c-2.5,3.6-5.9,5.2-10.3,4.5c-2.7-0.4-5.1-1.5-7.1-3.2c-2.6-2.2-3.8-5.1-3.6-8.5
			c0.1-1.1-0.4-1.5-1.2-2.1c-1.5-1-2.9-2.3-4.3-3.5c-0.6-0.5-1-1.3-0.2-2c0.7-0.7,1.4-0.1,1.9,0.5
			C305.7,144.4,306.3,144.9,307.1,145.6z M333.4,145.1c-2.5-1-4.9-2-7.3-2.8c-4.4-1.6-8.8-1.6-13.2-0.1c-1.2,0.4-2.3,1.2-3.1,2.1
			c-1.1,1.2-0.7,2.8,0.6,3.4C317.9,151.5,327,150.5,333.4,145.1z M311.1,150.4c0.1,5.2,3.8,9,9.1,9.5c2.4,0.3,4.5-0.2,6.3-2
			c2.2-2.3,3.2-5.3,4.6-8.2C324.5,153.3,317.9,153.5,311.1,150.4z"/>
		<path d="M308.8,135.8c-2-0.2-3.6-0.7-4.9-1.8c-2.1-1.8-3.6-4-3.7-6.8c-0.1-2,1-3.5,2.6-4.5c3.7-2.2,3.6-5.7,3.4-9.3
			c0-0.1-0.1-0.3-0.1-0.3c-1.4,1.1-2.6,2.4-4.1,3.3c-1.5,0.8-3.3,1.5-5,1.7c-3.3,0.4-6.5-1.7-7.9-4.9c-1.6-3.5-1.1-7.1,1.4-9.6
			c2-1.9,4.3-2.5,7-1.9c3.1,0.8,5.6,2.5,7.9,4.7c4.3,3.9,3.9,8.8,3,13.8c-0.3,1.7-1.5,3-3,4.1c-2.8,2-3,3.5-0.9,6.2
			c1.1,1.4,2.4,2.8,3.6,4.1C308.2,134.9,308.4,135.3,308.8,135.8z M293.9,104.3c-2.4,1-3.5,3.1-3.1,5.8c0.5,3,2.6,5,5.3,5.2
			c2.9,0.2,7.1-2.5,8.1-5.2c0.2-0.4-0.1-1-0.1-1.6c-0.1,0-0.2,0-0.4,0c-1.8,3.8-4.4,5.4-7.3,4.3
			C293.7,111.8,292.7,108.4,293.9,104.3z M301.8,107.3c-0.4-0.5-0.7-1.2-1.2-1.5c-0.9-0.6-1.9-0.9-2.9-1.4c-1-0.4-1.5,0-1.9,0.9
			c-0.6,1.5-0.6,3,0.3,4.4c0.4,0.6,1.3,1.1,2,1.2C299.9,111.1,301.5,109.4,301.8,107.3z"/>
		<path d="M329.9,113.5c-2.9,0.2-5.7-1-7.9-3.8c-0.7-0.9-1-1.9-0.8-3c0.3-2.4,1.4-4.5,3-6.1c3.7-3.8,8.3-5.4,13.5-4.2
			c3.5,0.8,6,3.8,6.6,7.3c0.4,2.6-0.4,4.6-2.4,6.2C339.3,112,334.7,113.4,329.9,113.5z M327.5,100.9c-2.1,1.4-3.3,3.4-4.1,5.7
			c-0.1,0.2-0.1,0.6,0,0.7c1.5,1.2,2.7,2.8,4.9,3.1c4,0.4,7.7-0.3,11.2-2.3c1.4-0.8,2.4-2,2.1-3.8c-0.3-2.1-1.3-3.8-3.3-4.9
			c0.6,3.7,0.1,5.8-1.7,7.7c-1.5,1.5-3.3,2.1-5.4,1.5c-2.1-0.6-3.3-2.1-3.6-4.2C327.4,103.2,327.5,102.2,327.5,100.9z M329.6,102.6
			C329.6,102.6,329.5,102.6,329.6,102.6c0.1,0.7,0.1,1.4,0.4,2c0.8,1.7,2.8,2.2,4.3,1.1c1.8-1.4,2.2-4.5,0.8-6.2
			c-0.3-0.3-0.7-0.7-1.1-0.7c-2.9-0.4-4.3,0.9-4.3,3.7C329.6,102.5,329.6,102.5,329.6,102.6z"/>
		<path d="M347.8,94.3c-0.4,0.5-0.6,1.1-1,1.3c-0.4,0.2-1.1,0.1-1.5-0.2c-1-0.8-1.8-1.7-2.7-2.5c-2-1.9-4.2-2.4-6.8-1.6
			c-5.3,1.6-10.1,4.2-14.4,7.7c-0.5,0.4-1,1-1.5,0.3c-0.3-0.3-0.2-1.2,0.1-1.6c0.4-0.7,1-1.3,1.6-1.8c4.1-3.6,8.8-6,14-7.5
			c2.9-0.9,5.6-0.4,8,1.5c1.2,1,2.3,2.1,3.5,3.1C347.3,93.3,347.5,93.8,347.8,94.3z"/>
		<path d="M290.5,93c1.5,0.5,3.2,0.7,4.5,1.4c2.8,1.6,5.5,3.4,8.2,5.2c0.3,0.2,0.6,0.4,0.6,0.7c0.1,0.6,0.3,1.4,0,1.7
			c-0.3,0.4-1.1,0.5-1.7,0.4c-0.5-0.1-1-0.6-1.5-0.9c-2.4-1.5-4.6-3.2-7.1-4.5c-3.5-1.8-5.9-1.1-8.3,2c-0.6,0.7-1,1.6-1.6,2.3
			c-0.2,0.3-0.8,0.6-1.1,0.5c-0.3-0.1-0.5-0.6-0.6-1c-0.1-0.2,0-0.4,0-0.6C282.7,96.6,286.7,93.2,290.5,93z"/>
		<path d="M319.6,132.3c-1.5,0.4-2.9,0.8-4.4,1.1c-0.5,0.1-1,0-1.5-0.1c0.2-0.5,0.3-1.2,0.7-1.5c1.7-1.3,3.6-2,5.8-1.9
			c1.2,0,1.9,0.6,1.8,1.4c-0.1,1.1-1,1.2-1.9,1.2c-0.2,0-0.3,0-0.5,0C319.6,132.4,319.6,132.3,319.6,132.3z"/>
		<path d="M281.1,213.4c-0.5-6-1.6-12.1-0.9-18.2C281.3,201.2,281,207.3,281.1,213.4z"/>
		<path d="M374.4,117.7c0.4-0.9,0.8-1.8,1.2-2.6c1.6-3.2,1-5-2.3-6.5c-2.1-1-2.6-1.6-2.2-3.8c0.5-2.6,1.2-5.2,1.9-7.7
			c0.1,0,0.3,0,0.4,0c0,0.2,0.1,0.5,0.1,0.7c0,2.4,0,4.8,0,7.2c0,0.8,0.2,1.2,0.9,1.4c0.3,0.1,0.5,0.2,0.7,0.4
			c5.4,3.3,4,7.6,0.7,10.7c-0.3,0.3-0.8,0.4-1.2,0.6C374.6,117.9,374.5,117.8,374.4,117.7z"/>
		<path class="st5" d="M390.5,266.2c-1.4-0.3-2.9-0.4-4.1-1c-4.9-2.5-9.8-2.1-14.6-0.2c-2.5,1-4.6,0.7-6.4-1.2
			c-1.9-2-2.3-4.3-1.4-6.8c0.8-2.4,2.4-4.2,4.5-5.4c2.9-1.6,5.9-3.3,9.1-4.2c3.2-0.9,6.5-0.1,9.6,1.2c2,0.9,4,1.6,6,2.5
			c1.5,0.6,2.7,1.6,3.5,3c1.8,3.1,1.5,6.2-0.3,9.1C395.1,265.4,393,266.1,390.5,266.2z M378.7,257.6c0.3,3,0.7,3.7,2.2,3.8
			c2,0.2,2.9-0.6,3.7-3.2c0.7-0.1,1.5-0.2,2.2-0.4c1-0.3,1.7-1.5,1.5-2.7c-0.1-1.1-0.9-1.4-1.9-1.5c-0.8-0.1-1.6-0.1-2.4-0.2
			c0.1-0.8,0.3-1.5,0.3-2.1c0.1-1.3-0.3-1.8-1.5-1.9c-0.9,0-1.8,0-2.6,0c-0.9,0-1.2,0.5-1.2,1.3c0,0.8,0.3,1.8-0.1,2.3
			c-0.4,0.5-1.5,0.4-2.3,0.5c-1.2,0.2-1.7,1-1.6,2.5c0.1,1.1,0.8,1.7,1.9,1.7C377.6,257.7,378.1,257.7,378.7,257.6z"/>
		<path class="st5" d="M392,247.2c-3-1.1-5.9-2.2-9-3.3c0.1-0.5,0.2-1.2,0.3-2c0.2-2,0.4-4,0.6-6c0.1-2.1,1-2.9,3-2.8
			c1.9,0.1,3.3,1.1,4.2,2.7c1.5,2.8,1.7,5.8,1.3,8.9C392.3,245.6,392.1,246.4,392,247.2z"/>
		<path class="st5" d="M380.4,243.7c-2.2,0.5-4.2,1-6.2,1.4c-0.3,0.1-0.8-0.2-0.9-0.4c-0.9-3.4-0.9-6.8,1.2-9.9
			c0.2-0.3,0.4-0.5,0.7-0.7c2.6-2.3,5.3-1.4,5.9,2c0.1,0.7,0.2,1.4,0.1,2C381,240.1,380.7,242,380.4,243.7z"/>
		<path class="st5" d="M369.9,239c0.3,2.5,0.6,4.8,0.9,7.1c-1.8,1.1-3.8,2.4-6,3.7c-0.5-3.3-0.6-6.5,1.7-9.4
			C367.4,239.3,368.6,238.8,369.9,239z"/>
		<path class="st5" d="M398.1,251c-1.1-0.8-2-1.4-2.9-2.2c-0.3-0.2-0.4-0.8-0.4-1.2c0.1-1.3,0.4-2.5,0.5-3.8c0.1-1.2,0-2.5,0-3.9
			c1.8,0.8,3,2.1,3.7,3.8C400.1,246.3,399.6,248.7,398.1,251z"/>
		<path class="st6" d="M333.4,145.1c-6.4,5.3-15.5,6.4-22.9,2.5c-1.3-0.7-1.7-2.3-0.6-3.4c0.8-0.9,2-1.7,3.1-2.1
			c4.4-1.5,8.8-1.4,13.2,0.1C328.6,143.1,331,144.2,333.4,145.1z"/>
		<path class="st6" d="M311.1,150.4c6.8,3.1,13.4,2.9,20-0.6c-1.4,2.9-2.4,5.9-4.6,8.2c-1.7,1.8-3.9,2.2-6.3,2
			C314.9,159.4,311.2,155.6,311.1,150.4z"/>
		<path class="st4" d="M293.9,104.3c-1.2,4.1-0.2,7.5,2.6,8.5c2.9,1.1,5.5-0.4,7.3-4.3c0.1,0,0.2,0,0.4,0c0.1,0.5,0.3,1.1,0.1,1.6
			c-1.1,2.7-5.3,5.4-8.1,5.2c-2.7-0.1-4.8-2.2-5.3-5.2C290.4,107.4,291.5,105.3,293.9,104.3z"/>
		<path class="st2" d="M301.8,107.3c-0.3,2.1-1.9,3.7-3.7,3.5c-0.7-0.1-1.6-0.6-2-1.2c-0.9-1.3-0.9-2.9-0.3-4.4
			c0.3-0.8,0.9-1.3,1.9-0.9c1,0.4,2,0.8,2.9,1.4C301.1,106.1,301.4,106.8,301.8,107.3z"/>
		<path class="st4" d="M327.5,100.9c0,1.2-0.1,2.3,0,3.3c0.3,2.2,1.5,3.6,3.6,4.2c2,0.6,3.9,0.1,5.4-1.5c1.8-1.9,2.3-4,1.7-7.7
			c2.1,1.1,3,2.8,3.3,4.9c0.3,1.8-0.6,3-2.1,3.8c-3.5,2-7.2,2.8-11.2,2.3c-2.1-0.2-3.3-1.9-4.9-3.1c-0.1-0.1-0.1-0.5,0-0.7
			C324.2,104.4,325.4,102.4,327.5,100.9z"/>
		<path class="st2" d="M329.6,102.6c0,0,0-0.1,0-0.1c0.1-2.9,1.5-4.1,4.3-3.7c0.4,0.1,0.9,0.4,1.1,0.7c1.4,1.7,1,4.8-0.8,6.2
			c-1.5,1.1-3.6,0.7-4.3-1.1C329.7,103.9,329.7,103.2,329.6,102.6C329.5,102.6,329.6,102.6,329.6,102.6z"/>
		<path class="st4" d="M378.7,257.6c-0.6,0.1-1.2,0.1-1.7,0.1c-1.1,0-1.8-0.6-1.9-1.7c-0.1-1.5,0.4-2.3,1.6-2.5
			c0.8-0.1,1.9-0.1,2.3-0.5c0.4-0.5,0.1-1.5,0.1-2.3c0-0.8,0.3-1.3,1.2-1.3c0.9,0,1.8,0,2.6,0c1.3,0.1,1.7,0.6,1.5,1.9
			c-0.1,0.7-0.2,1.3-0.3,2.1c0.9,0.1,1.7,0.2,2.4,0.2c1,0.1,1.7,0.4,1.9,1.5c0.1,1.2-0.6,2.4-1.5,2.7c-0.7,0.2-1.5,0.3-2.2,0.4
			c-0.8,2.6-1.7,3.4-3.7,3.2C379.5,261.3,379,260.6,378.7,257.6z"/>
	</g>
</g>
</svg>
