<?xml version="1.0" encoding="utf-8"?>
<!-- Generator: Adobe Illustrator 24.1.2, SVG Export Plug-In . SVG Version: 6.00 Build 0)  -->
<svg version="1.1" xmlns="http://www.w3.org/2000/svg" xmlns:xlink="http://www.w3.org/1999/xlink" x="0px" y="0px"
	 viewBox="0 0 690 500" style="enable-background:new 0 0 690 500;" xml:space="preserve">
<style type="text/css">
	.st0{clip-path:url(#SVGID_2_);}
	.st1{clip-path:url(#SVGID_4_);}
	.st2{clip-path:url(#SVGID_4_);fill:#252825;}
	.st3{clip-path:url(#SVGID_4_);fill:#707A6F;}
	.st4{clip-path:url(#SVGID_4_);fill:#424741;}
	.st5{clip-path:url(#SVGID_4_);fill:#B1BCAF;}
	.st6{clip-path:url(#SVGID_4_);fill:#7395B1;}
	.st7{clip-path:url(#SVGID_4_);fill:#9AB8CC;}
	.st8{clip-path:url(#SVGID_4_);fill:#FFFFFF;}
	.st9{fill:#FFFFFF;stroke:#000000;stroke-miterlimit:10;}
	.st10{font-family:'MyriadPro-Regular';}
	.st11{font-size:62.1806px;}
	.hide {display: none !important}
</style>
<g id="TIGER">
	<g>
		<g>
			<defs>
				<rect id="SVGID_1_" x="74" y="49.1" width="480.6" height="439.4"/>
			</defs>
			<clipPath id="SVGID_2_">
				<use xlink:href="#SVGID_1_"  style="overflow:visible;"/>
			</clipPath>
			<g class="st0">
				<defs>
					<rect id="SVGID_3_" x="74" y="49.1" width="480.6" height="439.4"/>
				</defs>
				<clipPath id="SVGID_4_">
					<use xlink:href="#SVGID_3_"  style="overflow:visible;"/>
				</clipPath>
				<path class="st1" d="M523.4,354.9c-0.2,0.7-0.3,1.4-0.5,2c-1,2.2-2.5,3.9-4.9,4.4c-1.9,0.4-3.8,0.7-5.6,0.7
					c-13.2,0.3-26.4-0.5-39.4-2.9c-3.5-0.7-6.9-1.6-10.2-3c-2-0.9-4-1.9-5.6-3.5c-0.9-0.9-1.8-1.9-2.4-3c-0.9-1.6-0.8-3.3-0.1-5.1
					c1.4-3.3,3.6-6.1,6.3-8.5c0.8-0.8,1.7-1.5,2.8-2.3c-0.4-0.2-0.7-0.4-1.1-0.5c-3.9-1.2-7.9-1.7-12-1.8
					c-6.2-0.2-12.4,0.3-18.6,0.7c-7.6,0.6-15.2,1.2-22.8,2c-7.5,0.8-15.1,1.8-22.6,2.9c-14.7,2.2-29.5,4.3-44.3,5.5
					c-5,0.4-10,0.9-15,0.4c-5.2-0.4-9.4-2.4-12.5-6.7c-0.2-0.3-0.5-0.6-0.7-1c-4.1-5.7-9.9-8.5-16.7-9.5c-4.9-0.7-9.8-0.5-14.7-0.1
					c-5.5,0.4-11,0.9-16.4,1.4c-0.5,0-1,0.2-1.6,0.2c0.1,0.8,0.6,0.7,1,0.8c1.8,0.4,3.6,0.8,5.4,1.3c3.1,0.8,6,1.9,8.7,3.7
					c2.8,1.8,4.5,4.4,5,7.5c0.4,1.9,0.2,3.9,0.1,5.8c-0.2,2.5-0.6,5-0.8,7.4c0,0.3-0.1,0.7-0.1,1c0.1,1.5-0.3,2.9-1,4.3
					c-0.5,1-1.1,1.7-2,2.3c-9.3,6.3-19.8,9.7-30.8,11.4c-7.1,1.1-14.2,1.5-21.4,1.1c-9.8-0.5-19.1-2.8-28.2-6.6
					c-4-1.7-7.8-3.5-11.5-5.9c-0.3-0.2-0.5-0.3-0.8-0.5c-1.9-1.1-3-2.7-3.1-4.9c-0.1-2.1-0.5-4.2-0.7-6.3c-0.1-0.4-0.1-0.9-0.2-1.5
					c-0.9-0.1-1.9-0.2-2.8-0.4c-3.4-0.7-6.8-1.4-10.1-2.2c-1.3-0.3-2.6-0.9-3.8-1.5c-0.9-0.5-1.8-1-2.6-1.7c-2.3-2-2.6-4.6-1-7.1
					c1-1.6,2.3-2.9,3.9-3.9c2.4-1.5,4.9-2.9,7.5-4.1c5.6-2.5,11.5-4,17.4-5.4c6.1-1.4,12.2-2.6,18.3-3.9c1.4-0.3,1.4-0.3,1.5-1.7
					c0.1-1.1,0.2-2.3,0.2-3.6c-1,0.1-1.9,0.1-2.7,0.2c-9.8,1.1-19.7,2.2-29.5,3.3c-0.7,0.1-1.4,0.2-2,0.4
					c-8.4,2.8-16.9,5.7-25.3,8.5c-7.7,2.6-15.2,5.5-22.3,9.6c-5.4,3.1-10.5,6.8-14.6,11.5c-1.3,1.5-2.5,3.1-3.5,4.9
					c-1.6,2.9-1.1,4.9,1.5,6.9c2.4,1.9,5.2,3,8,4c4.9,1.6,9.9,2.5,14.9,3.3c7.5,1.1,14.9,2.2,22.4,3.3c5.4,0.8,10.8,2.2,15.8,4.6
					c5.9,2.8,10.9,6.7,15.2,11.5c0.8,0.9,1.5,1.2,2.7,0.9c22.5-4.1,45-8.2,67.5-12.3c24.5-4.4,48.9-8.9,73.4-13.4
					c21.8-4,43.5-7.9,65.3-11.9c1.7-0.3,3.1-0.2,4.7,0.6c15.1,7.2,30.3,14.4,45.5,21.6c0.7,0.3,1.4,0.7,2.2,1
					c0.8,0.3,1.1,0.9,1.1,1.7c-0.1,1.6-0.1,3.2-0.1,4.8c0,1.1-0.3,1.3-1.3,1.6c-4.8,1.1-9.7,2.1-14.5,3.2
					c-31,7.1-62.1,14.3-93.1,21.5c-28.8,6.6-57.5,13.3-86.3,19.9c-17.1,3.9-34.2,7.9-51.2,11.8c-0.1,0-0.3,0-0.4,0.1
					c-1.5,0.9-2.5,0.2-3.7-0.8c-13.2-10.3-26.4-20.6-39.6-30.9c-0.9-0.7-1.3-1.5-1.3-2.6c0-2.8-0.2-5.6-0.3-8.4
					c-0.1-1.7,0.1-1.8,1.8-2.1c3.4-0.6,6.9-1.2,10.3-1.8c4.8-0.9,9.6-1.8,14.4-2.6c0.3-0.1,0.6-0.2,1.2-0.3
					c-0.5-0.5-0.8-0.9-1.2-1.3c-7-7.2-15.4-11.7-25.3-13.4c-6.5-1.1-13.1-2-19.7-3c-6.4-1-12.8-1.8-19-3.6c-2.8-0.8-5.6-1.8-8.2-3.3
					c-1.3-0.8-2.6-1.6-3.7-2.6c-2.5-2.3-3-4.9-1.8-8c0.5-1.2,1.2-2.4,2-3.5c2.1-3,4.7-5.6,7.5-7.9c5.9-5,12.6-8.7,19.7-11.8
					c7.6-3.3,15.4-5.8,23.3-8.3c1.2-0.4,2.5-0.8,3.7-1.2c0.3-0.1,0.6-0.3,0.8-0.6c-3,0.3-6,0.7-9.1,1c-8.9,1-17.9,2-26.8,3
					c-0.5,0.1-1,0-1.4-0.2c-1.6-0.6-3.1-1.3-4.7-2c-0.8-0.3-1.1-0.8-1.2-1.7c-0.7-6.5-1.4-13-2.1-19.5c-0.8-7.7-1.7-15.5-2.5-23.2
					c-0.9-7.8-1.7-15.6-2.6-23.4c-0.8-7.7-1.7-15.4-2.5-23.1c-0.9-7.8-1.7-15.6-2.6-23.4c-0.8-7.7-1.7-15.4-2.5-23.1
					c-0.8-7.7-1.7-15.5-2.5-23.2c-0.4-3.3-0.7-6.6-1.1-9.8c-0.1-0.7-0.4-1.3-0.6-2v-0.6c0.9-1.3,1.8-2.6,2.7-4
					c0.3-0.5,0.6-0.9,1-1.3c0.4-0.5,1-0.7,1.7-0.7c32.5,0.4,64.9,0.7,97.4,1c11.9,0.1,23.9,0.3,35.8,0.4c0.4,0,0.9,0,1.5,0
					c0-0.5,0.1-1,0.1-1.5c0-2.2,0-4.4,0-6.6c0-1.3,0.1-1.4,1.3-1.8c13-4.1,25.9-8.2,38.8-12.3c19.5-6.2,38.9-12.3,58.4-18.5
					c1.5-0.5,2.9-0.6,4.5-0.3c4.1,0.6,8.3,1.1,12.5,1.6c8.6,1.1,17.3,2.1,25.9,3.2c8.5,1,17.1,2.1,25.6,3.1c2.9,0.4,5.8,0.7,8.6,1.1
					c1.8,0.2,1.9,0.4,2,2.1c0.3,7.3,0.6,14.6,0.9,21.9c0.6,15.3,1.2,30.7,1.8,46c0.6,14.8,1.2,29.7,1.8,44.5
					c0.6,15.2,1.2,30.4,1.8,45.5c0.6,14.7,1.2,29.5,1.8,44.2c0,1.1,0.1,2.2,0.2,3.3c0,1.1-0.3,1.5-1.4,1.7c-8.4,1.5-16.9,3-25.3,4.5
					c-14.8,2.7-29.7,5.5-44.5,8.3c-1.4,0.3-2.7,0.6-4.1,0.8c-0.5,0.1-1.1,0.1-1.6,0c-4.3-1.1-8.7-2.4-13-3.4
					c-24.7-6.2-49.3-12.3-74-18.4c-0.6-0.1-1.2-0.3-1.9-0.4c-0.3,4.7-0.4,9.3-0.6,14.1c0.5,0,1,0,1.5,0c5.3-0.5,10.5-1,15.8-1.4
					c5.2-0.4,10.4-0.6,15.6,0.1c7.4,1,13.7,4.1,18.3,10.3c0.3,0.4,0.6,0.7,0.8,1.1c2.6,3.8,6.4,5.4,10.8,5.8c5,0.4,9.9-0.1,14.8-0.5
					c15.4-1.2,30.8-3.4,46.1-5.8c10.1-1.6,20.2-2.6,30.4-3.4c7.4-0.6,14.7-1.2,22.1-1.6c6.1-0.4,12.2-0.5,18.2,0.8
					c2,0.4,4.1,1.1,6,1.7c0.7,0.2,1.3,0.2,2-0.2c4-2.2,8.4-3.2,12.9-3.4c11-0.3,21,2.7,30.2,8.6c4.6,3,8.5,6.8,11.3,11.6
					c0.7,1.1,0.9,2.4,1.3,3.6c0.2,0.5,0.2,1,0.3,1.4V354.9z M247.6,142.3c0.6,0,1.2,0,1.7,0c7.3,0.1,14.7,0.1,22,0.2
					c11.2,0.1,22.4,0.2,33.6,0.3c1.8,0,2,0.1,2.3,1.7c2.8,12.3,5.6,24.5,8.4,36.8c6.5,28.6,13.1,57.2,19.6,85.8
					c2.2,9.7,4.5,19.5,6.7,29.2c0.5,2,0.2,2.3-1.9,2.6c-9,1-18.1,2-27.1,3c-15.3,1.7-30.6,3.4-45.9,5.1c-0.5,0.1-1.1,0.2-1.5,0.2
					c-0.4,1.3,0.6,1.3,1.3,1.5c28.4,7.1,56.8,14.2,85.2,21.2c0.5,0.1,1,0.2,1.6,0.3c-2.3-75.8-4.6-151.5-6.9-227.3
					c-33.2,10.5-66.2,20.9-99.2,31.4V142.3z M110.4,143c0,1.9,21.1,175.5,21.7,176.8c0.2,0,0.5,0,0.7,0
					c68.8-7.6,137.5-15.3,206.3-22.9c0.1,0,0.3-0.1,0.4-0.1c0,0,0.1-0.1,0.1-0.1c0,0,0.1-0.1,0.1-0.2
					c-11.5-50.4-23.1-100.9-34.7-151.5C240.2,144.3,175.3,143.6,110.4,143 M355.8,330.7c24.6-4.6,48.9-9.1,73.4-13.6
					c-2.7-68.4-5.5-136.6-8.2-204.9c-24.1-3-47.9-5.9-72-8.9C351.2,179.2,353.5,254.8,355.8,330.7 M165.4,393.4
					c0.4,0.4,0.7,0.7,1,0.9c12.4,10.1,24.8,20.2,37.1,30.4c0.7,0.6,1.3,0.7,2.2,0.5c12.8-2.8,25.7-5.5,38.5-8.3
					c35.4-7.6,70.8-15.2,106.2-22.8c31.6-6.8,63.3-13.6,94.9-20.4c1.3-0.3,2.6-0.6,4.2-0.9c-0.7-0.4-1-0.6-1.4-0.8
					c-2.2-1-4.3-2-6.5-3.1c-12.7-6-25.4-12-38-18c-1-0.5-1.9-0.6-3-0.4c-1.8,0.4-3.6,0.7-5.4,1c-15.1,2.7-30.3,5.5-45.4,8.2
					c-15.1,2.7-30.3,5.5-45.4,8.3c-15.1,2.7-30.3,5.5-45.4,8.2c-15.2,2.8-30.5,5.5-45.7,8.3c-15.5,2.8-31,5.6-46.4,8.4
					C166.3,393.1,165.9,393.2,165.4,393.4 M263.4,307.4c-14.9,1.7-29.6,3.3-44.3,4.9c-0.1,2-0.3,3.8-0.4,5.6
					c-0.6,7.9-1.2,15.8-1.9,23.7c-0.1,0.8,0.2,1.2,0.8,1.6c0.9,0.5,1.8,1.1,2.6,1.7c0.7,0.5,1.4,0.6,2.2,0.4
					c11.5-2.1,23.1-4.1,34.7-6.2c1.7-0.3,3.3-0.6,5-0.9C262.6,328,263,317.8,263.4,307.4 M211.4,333.4c-0.3,0-0.5,0-0.7,0
					c-4.5,1.1-9,2.4-13.2,4.4c-2.5,1.2-4.9,2.5-7,4.2c-1.3,1-2.4,2.1-3.1,3.6c-0.8,1.6-0.7,3,0.6,4.2c0.6,0.6,1.3,1.2,2,1.6
					c2,1,4.1,2.1,6.2,2.9c9.8,3.4,19.8,5,30.1,5.2c7,0.2,13.9-0.6,20.7-1.9c7.2-1.4,14.3-3.2,21.2-5.8c3-1.1,5.8-2.4,8.4-4.3
					c1.7-1.2,3.3-2.5,4.4-4.2c1.8-2.6,1.6-4.8-0.7-7c-1-1-2.2-1.8-3.4-2.5c-2.7-1.5-5.6-2.3-8.6-3c-1.2-0.3-2.5-0.6-3.9-0.9
					c-0.1,0.9-0.1,1.6-0.2,2.2c-0.1,2.1-0.1,4.3-0.2,6.4c0,1.2-0.3,1.5-1.4,1.7c-10.7,1.9-21.4,3.8-32.2,5.7c-3,0.5-6.1,1.1-9.1,1.6
					c-0.6,0.1-1.2,0.2-1.7-0.3c-0.9-0.7-1.9-1.4-2.9-2.1c-1.4-1-2.7-1.9-4.6-1.5c-0.9,0.2-1.3-0.4-1.4-1.3c0-0.3,0-0.7,0-1
					c0.2-2.4,0.4-4.8,0.5-7.2C211.4,334,211.4,333.7,211.4,333.4 M205.9,434.1c81.8-18.9,163.5-37.7,245.2-56.5v-3
					c-64.4,13.8-128.7,27.6-193,41.4c-17.6,3.8-35.1,7.6-52.7,11.4c0,0-0.1,0.1-0.1,0.1c0,0-0.1,0.1-0.1,0.2
					C205.4,429.7,205.6,431.8,205.9,434.1 M186.9,352.3c0.2,1.5,0.5,3,0.6,4.5c0.1,0.8,0.5,1.4,1.1,1.8c1.3,0.8,2.5,1.7,3.8,2.4
					c11.5,6.4,23.8,10.2,37,10.8c6.8,0.3,13.6-0.1,20.3-1.1c10.6-1.6,20.7-4.9,29.7-10.9c1.4-0.9,1.9-2.3,2.2-3.7
					c0.4-2.2,0.6-4.5,0.8-6.7c0.1-1.4,0.2-2.8,0.4-4.2c-0.2,0-0.3-0.1-0.3-0.1c-0.2,0.2-0.4,0.3-0.5,0.5c-1.6,1.8-3.4,3.3-5.4,4.4
					c-2.3,1.3-4.7,2.5-7.1,3.5c-6.4,2.5-13.1,4.2-19.9,5.6c-7.7,1.7-15.6,2.6-23.5,2.4c-8-0.2-15.8-1.3-23.5-3.2
					c-5.3-1.4-10.6-2.9-15.2-6.1C187.4,352.2,187.2,352.3,186.9,352.3 M496.8,340.7c0.7,1.8,0.7,3.3-0.2,4.7c-0.7,1-1.7,2-2.7,2.8
					c-1.7,1.3-3.7,1.8-5.8,2.2c-4.2,0.8-8.4,0.6-12.5,0.1c-5-0.5-9.9-1.1-14.9-1.6c-1.2-0.1-2.4-0.2-3.9-0.3c0.5,1.3,1.3,2,2.1,2.7
					c2.2,1.8,4.7,3,7.4,3.8c4.6,1.5,9.4,2.3,14.2,3c6.6,0.9,13.3,1.4,20,1.7c4.8,0.2,9.7,0.3,14.5-0.1c1.8-0.2,3.4-0.5,4.9-1.6
					c0.6-0.4,1-0.9,1.2-1.6c0.7-2.8,0.3-5.5-1.4-7.8c-3.1-4.5-7-8.2-11.7-11c-0.4-0.3-0.9-0.5-1.4-0.8
					C504.4,340.9,500.7,340.9,496.8,340.7 M184.9,346.1c1-2.5,2.6-4.3,4.5-5.8c1-0.8,2.1-1.5,3.2-2.2c4.9-3,10.3-4.8,15.8-6.3
					c1.1-0.3,2.1-0.5,3.3-0.8c0.3-3.4,0.6-6.8,0.8-10.3c-0.5,0.1-0.9,0.1-1.2,0.2c-3.7,0.7-7.4,1.5-11.1,2.3
					c-6.6,1.4-13.2,2.8-19.5,5.1c-3.7,1.3-7.4,2.9-10.6,5.1c-1.2,0.8-2.3,1.8-3.2,2.9c-1.7,1.9-1.4,3.6,0.6,5.1
					c1,0.7,2.1,1.3,3.2,1.6c2.6,0.8,5.3,1.5,7.9,2.1C180.5,345.5,182.6,345.7,184.9,346.1 M483.5,333.9c-0.5,1.5-1.5,2.3-2.8,2.8
					c-0.8,0.3-1.6,0.6-2.4,0.7c-4,0.7-7.9,0.2-11.7-1.5c-0.5-0.2-0.9-0.4-1.4-0.6c-2,1.5-3.9,3-5.4,5c-1.1,1.5-2.1,3.2-3,4.8
					c-0.3,0.5-0.3,1.2-0.5,1.8c3,0.3,5.7,0.6,8.4,0.9c5.1,0.5,10.2,1,15.3,1.4c3,0.3,6.1,0,9.1-0.7c1.9-0.5,3.7-1.2,5.1-2.6
					c2-1.9,2.1-3.8,0.2-5.7C491.4,337.1,487.6,335.4,483.5,333.9 M129.7,319.1l-21.2-173c-0.9,0.6-0.8,1.3-0.7,2
					c0.5,4.7,1.1,9.4,1.6,14.1c0.9,8.7,1.9,17.4,2.8,26.1c1.1,9.6,2.1,19.2,3.2,28.7c1.2,11.4,2.5,22.7,3.7,34.1
					c1.1,10.5,2.3,20.9,3.5,31.4c1.2,10.8,2.5,21.6,3.5,32.5c0.2,2.3,1.1,3.4,3.1,3.9C129.2,319.1,129.3,319.1,129.7,319.1
					 M163.6,394.8c0.1,2.3,0.3,4.3,0.3,6.2c0,1,0.3,1.6,1.1,2.3c12.4,9.6,24.7,19.3,37.1,28.9c0.4,0.3,0.8,0.6,1.4,1
					c-0.2-1.9-0.5-3.5-0.6-5.1c-0.1-1-0.5-1.6-1.2-2.2c-12.2-10-24.5-20-36.7-30C164.7,395.6,164.3,395.3,163.6,394.8 M505.1,336.2
					c-4.7-3.3-18.8-6.8-22.9-5.7c0.6,1.3,1.6,2.1,3,2.5c3.5,1.1,6.8,2.9,9.6,5.4c0.3,0.3,0.7,0.6,1.1,0.6c2,0.4,4,0.5,5.9-0.1
					C503.3,338.5,504.5,337.8,505.1,336.2 M214.7,341.5c0.8-9.6,1.5-19.1,2.3-28.9c-0.7,0.1-1.2,0.1-1.7,0.2
					c-0.7,4.2-2.3,27.6-2.1,28.9c0.2,0,0.5,0,0.7,0C214.2,341.6,214.4,341.6,214.7,341.5 M467.3,334c0.4,0.2,0.6,0.4,0.9,0.5
					c3.2,1.2,6.5,1.5,9.9,0.9c0.7-0.1,1.5-0.4,2.1-0.7c1.5-0.7,1.6-1.8,0.3-2.7c-1.4-1-3-1.5-4.8-1.2c-2.5,0.5-4.9,1.3-7.2,2.5
					C468.1,333.5,467.8,333.7,467.3,334"/>
				<path class="st2" d="M247.6,142.3v-8c33-10.4,66-20.9,99.2-31.4c2.3,75.9,4.6,151.5,6.9,227.3c-0.6-0.1-1.1-0.2-1.6-0.3
					c-28.4-7.1-56.8-14.1-85.2-21.2c-0.7-0.2-1.6-0.1-1.3-1.5c0.5-0.1,1-0.2,1.5-0.3c15.3-1.7,30.6-3.4,45.9-5.1c9-1,18.1-2,27.1-3
					c2.1-0.2,2.3-0.5,1.9-2.5c-2.2-9.7-4.5-19.5-6.7-29.2c-6.6-28.6-13.1-57.2-19.6-85.8c-2.8-12.3-5.6-24.5-8.4-36.8
					c-0.3-1.5-0.5-1.6-2.3-1.7c-11.2-0.1-22.4-0.2-33.6-0.3c-7.3-0.1-14.7-0.1-22-0.2C248.8,142.2,248.3,142.3,247.6,142.3"/>
				<path class="st3" d="M110.4,143c64.9,0.6,129.8,1.3,194.7,1.9c11.6,50.6,23.1,101.1,34.7,151.5c-0.1,0.1-0.1,0.2-0.1,0.2
					c0,0-0.1,0.1-0.1,0.1c-0.1,0.1-0.3,0.1-0.4,0.1c-68.8,7.6-137.5,15.3-206.3,22.9c-0.2,0-0.5,0-0.7,0
					C131.6,318.5,110.4,144.8,110.4,143 M211.6,152C211.6,152,211.6,152,211.6,152c-28.2,0.1-56.4,0.2-84.5,0.2c-0.7,0-1.4,0-2.1,0
					c-0.7,0-1.1,0.5-1.1,1.2c0,0.3,0.1,0.6,0.1,0.9c1.1,7.8,2.2,15.6,3.4,23.4c1.4,10.1,2.9,20.2,4.3,30.3
					c1.5,10.2,2.9,20.4,4.4,30.5c1.4,9.4,2.7,18.8,4.1,28.2c1.3,9.3,2.7,18.7,4,28c0.5,3.4,1,6.8,1.5,10.2c0.2,1.2,0.5,1.4,1.7,1.4
					c0.2,0,0.5,0,0.7-0.1c3.9-0.3,7.8-0.6,11.6-1c6.3-0.5,12.6-1.1,19-1.6c7.9-0.7,15.7-1.3,23.6-2c7.7-0.6,15.4-1.3,23.1-1.9
					c7.8-0.7,15.6-1.3,23.4-2c7.6-0.6,15.1-1.3,22.7-1.9c7.8-0.7,15.6-1.3,23.4-2c7.8-0.7,15.6-1.3,23.4-2c4-0.3,8-0.5,11.9-0.8
					c0.9-0.1,1.5-0.9,1.2-1.8c-0.2-0.7-0.5-1.3-0.7-2c-1.6-6.6-3.1-13.1-4.6-19.7c-6.4-27.5-12.9-54.9-19.3-82.4
					c-2.5-10.8-5-21.6-7.5-32.4c-0.3-1.1-0.5-1.4-1.8-1.3c-0.5,0-1.1,0-1.6,0C267.9,151.8,239.7,151.9,211.6,152"/>
				<path class="st4" d="M355.8,330.7c-2.3-75.9-4.6-151.6-6.9-227.4c24.1,3,48,5.9,72,8.9c2.7,68.3,5.5,136.5,8.2,204.9
					C404.7,321.6,380.4,326.2,355.8,330.7 M356.4,211.4c0.4,15.6,0.9,31.2,1.3,46.7c0.4,14.4,0.8,28.8,1.2,43.1
					c0.1,3.1,0.2,6.2,0.3,9.3c0,1.4,0.2,1.5,1.6,1.4c0.1,0,0.2,0,0.3,0c8.3-1.1,16.6-2.3,24.9-3.4c8.6-1.2,17.1-2.3,25.7-3.5
					c3.9-0.5,7.8-1,11.7-1.6c1.2-0.2,1.3-0.3,1.3-1.4c-0.2-6.8-0.4-13.7-0.7-20.5c-0.7-23.2-1.4-46.4-2.1-69.7
					c-0.5-15.6-0.9-31.3-1.4-46.9c-0.4-13.4-0.8-26.9-1.2-40.3c-0.1-2.3-0.2-4.6-0.2-6.9c0-1.4-0.1-1.4-1.5-1.3c-0.4,0-0.8,0-1.2,0
					c-2.4-0.2-4.8-0.5-7.2-0.7c-7.9-0.8-15.8-1.5-23.7-2.3c-7-0.7-14-1.3-21-2c-3.1-0.3-6.3-0.6-9.4-0.9c-1.2-0.1-1.5,0.1-1.5,1.4
					c0,0.2,0,0.4,0,0.6c0.4,12.9,0.7,25.8,1.1,38.7C355.2,171.3,355.8,191.4,356.4,211.4"/>
				<path class="st5" d="M165.4,393.4c0.5-0.2,0.9-0.3,1.3-0.4c15.5-2.8,31-5.6,46.4-8.4c15.2-2.8,30.5-5.5,45.7-8.3
					c15.1-2.7,30.3-5.5,45.4-8.2c15.1-2.7,30.3-5.5,45.4-8.3c15.1-2.7,30.3-5.5,45.4-8.2c1.8-0.3,3.6-0.6,5.4-1c1.1-0.2,2-0.1,3,0.4
					c12.7,6,25.4,12,38,18c2.2,1,4.3,2,6.5,3.1c0.4,0.2,0.8,0.4,1.4,0.8c-1.6,0.4-2.9,0.7-4.2,0.9c-31.6,6.8-63.3,13.6-94.9,20.4
					c-35.4,7.6-70.8,15.2-106.2,22.8c-12.8,2.8-25.7,5.5-38.5,8.3c-0.9,0.2-1.5,0.1-2.2-0.5c-12.4-10.1-24.7-20.2-37.1-30.4
					C166.1,394,165.8,393.7,165.4,393.4 M205.4,419.6c0.3-0.1,0.7-0.1,1-0.2c7.3-1.5,14.7-3,22-4.4c22.5-4.6,45-9.1,67.5-13.7
					c23-4.6,45.9-9.3,68.9-13.9c25.1-5.1,50.2-10.2,75.3-15.2c0.4-0.1,0.9-0.2,1.3-0.3c0.8-0.4,0.9-1.2,0.2-1.7
					c-0.2-0.1-0.4-0.2-0.7-0.3c-12.2-5.6-24.3-11.1-36.5-16.7c-0.8-0.3-1.5-0.5-2.3-0.3c-2.4,0.5-4.7,0.9-7.1,1.3
					c-13,2.4-26,4.7-39.1,7c-13,2.3-25.9,4.7-38.9,7c-13,2.4-26,4.7-39.1,7.1c-13,2.3-25.9,4.7-38.9,7c-13.1,2.4-26.1,4.7-39.2,7.1
					c-7.2,1.3-14.4,2.6-21.7,3.9c-0.6,0.1-1.2,0.3-1.7,0.2c-0.5,0-0.9,0-1.1,0.5c-0.2,0.5,0.1,0.8,0.5,1.1
					c5.2,4.4,10.3,8.8,15.5,13.2c4.1,3.5,8.2,7,12.3,10.5C204.2,419.3,204.7,419.8,205.4,419.6"/>
				<path class="st4" d="M263.4,307.4c-0.4,10.4-0.8,20.6-1.2,30.9c-1.7,0.3-3.4,0.6-5,0.9c-11.6,2.1-23.1,4.1-34.7,6.2
					c-0.9,0.2-1.5,0.1-2.2-0.4c-0.8-0.6-1.7-1.2-2.6-1.7c-0.6-0.4-0.9-0.8-0.8-1.6c0.7-7.9,1.3-15.8,1.9-23.7
					c0.1-1.8,0.3-3.7,0.4-5.6C233.8,310.7,248.5,309,263.4,307.4"/>
				<path class="st3" d="M211.4,333.4c0,0.3,0,0.6,0,0.9c-0.2,2.4-0.4,4.8-0.5,7.2c0,0.3-0.1,0.7,0,1c0.1,1,0.5,1.5,1.4,1.3
					c1.9-0.4,3.3,0.5,4.6,1.5c1,0.7,2,1.4,2.9,2.1c0.5,0.4,1.1,0.4,1.7,0.3c3-0.5,6.1-1.1,9.1-1.6c10.7-1.9,21.4-3.8,32.2-5.7
					c1.2-0.2,1.4-0.5,1.4-1.7c0.1-2.1,0.1-4.3,0.2-6.4c0-0.7,0.1-1.4,0.2-2.2c1.4,0.3,2.6,0.6,3.9,0.9c3,0.7,5.9,1.5,8.6,3
					c1.2,0.7,2.4,1.5,3.4,2.5c2.3,2.2,2.4,4.4,0.7,7c-1.2,1.7-2.8,3-4.4,4.2c-2.6,1.8-5.4,3.2-8.4,4.3c-6.9,2.6-14,4.3-21.2,5.8
					c-6.8,1.3-13.7,2.1-20.7,1.9c-10.3-0.2-20.4-1.9-30.1-5.2c-2.2-0.7-4.2-1.8-6.2-2.9c-0.7-0.4-1.4-1-2-1.6
					c-1.3-1.3-1.5-2.6-0.6-4.2c0.7-1.5,1.9-2.6,3.1-3.6c2.2-1.7,4.6-3.1,7-4.2c4.2-2,8.7-3.4,13.2-4.4
					C210.9,333.3,211.1,333.4,211.4,333.4"/>
				<path class="st3" d="M205.9,434.1c-0.3-2.3-0.5-4.4-0.8-6.4c0.1-0.1,0.1-0.2,0.1-0.2c0,0,0.1-0.1,0.1-0.1
					c17.6-3.8,35.1-7.6,52.7-11.4c64.3-13.8,128.6-27.6,193-41.4v3C369.4,396.4,287.7,415.2,205.9,434.1"/>
				<path class="st4" d="M186.9,352.3c0.3,0,0.4,0,0.5,0c4.6,3.3,9.8,4.8,15.2,6.1c7.7,2,15.6,3.1,23.5,3.2
					c7.9,0.2,15.8-0.8,23.5-2.4c6.7-1.4,13.4-3.1,19.9-5.6c2.4-1,4.8-2.2,7.1-3.5c2.1-1.1,3.9-2.7,5.4-4.4c0.2-0.2,0.4-0.3,0.5-0.5
					c0,0,0.1,0,0.3,0.1c-0.1,1.4-0.2,2.8-0.4,4.2c-0.2,2.2-0.4,4.5-0.8,6.7c-0.3,1.4-0.8,2.8-2.2,3.7c-9,6-19.1,9.2-29.7,10.9
					c-6.7,1-13.5,1.5-20.3,1.1c-13.2-0.7-25.5-4.4-37-10.8c-1.3-0.7-2.5-1.6-3.8-2.4c-0.7-0.4-1-1-1.1-1.8
					C187.4,355.3,187.2,353.8,186.9,352.3"/>
				<path class="st3" d="M496.8,340.7c4,0.2,7.6,0.2,9.8-3.9c0.5,0.3,0.9,0.5,1.4,0.8c4.7,2.9,8.5,6.5,11.7,11
					c1.7,2.4,2.1,5,1.4,7.8c-0.2,0.7-0.6,1.2-1.2,1.6c-1.5,1-3.2,1.4-4.9,1.6c-4.8,0.5-9.7,0.3-14.5,0.1c-6.7-0.2-13.4-0.7-20-1.7
					c-4.8-0.7-9.6-1.5-14.2-3c-2.7-0.9-5.2-2-7.4-3.8c-0.8-0.7-1.6-1.4-2.1-2.7c1.4,0.1,2.7,0.2,3.9,0.3c5,0.5,9.9,1.1,14.9,1.6
					c4.2,0.4,8.4,0.7,12.5-0.1c2.1-0.4,4.1-0.9,5.8-2.2c1-0.8,1.9-1.7,2.7-2.8C497.5,344,497.5,342.5,496.8,340.7"/>
				<path class="st5" d="M483.5,333.9c4.2,1.4,7.9,3.2,10.9,6.3c1.9,1.9,1.8,3.9-0.2,5.7c-1.4,1.4-3.2,2.2-5.1,2.6
					c-3,0.7-6,1-9.1,0.7c-5.1-0.4-10.2-0.9-15.3-1.4c-2.7-0.3-5.5-0.6-8.4-0.9c0.2-0.7,0.2-1.3,0.5-1.8c0.9-1.6,1.9-3.3,3-4.8
					c1.5-2,3.4-3.5,5.4-5c0.5,0.2,0.9,0.4,1.4,0.6c3.8,1.6,7.7,2.2,11.7,1.5c0.8-0.1,1.6-0.4,2.4-0.7
					C481.9,336.2,482.9,335.5,483.5,333.9"/>
				<path class="st4" d="M129.7,319.1c-0.4,0-0.5,0-0.6-0.1c-2.1-0.5-2.9-1.6-3.1-3.9c-1-10.8-2.3-21.7-3.5-32.5
					c-1.2-10.5-2.3-20.9-3.5-31.4c-1.2-11.4-2.5-22.7-3.7-34.1c-1.1-9.6-2.1-19.2-3.2-28.7c-1-8.7-1.9-17.4-2.8-26.1
					c-0.5-4.7-1-9.4-1.6-14.1c-0.1-0.7-0.1-1.4,0.7-2L129.7,319.1z"/>
				<path class="st3" d="M163.6,394.8c0.7,0.5,1.1,0.8,1.5,1.1c12.2,10,24.4,20,36.7,30c0.7,0.6,1.2,1.2,1.2,2.2
					c0.1,1.6,0.3,3.2,0.6,5.1c-0.6-0.4-1-0.7-1.4-1c-12.4-9.6-24.7-19.3-37.1-28.9c-0.8-0.6-1.1-1.3-1.1-2.3
					C163.9,399.1,163.7,397.2,163.6,394.8"/>
				<path class="st5" d="M505.1,336.2c-0.6,1.6-1.8,2.4-3.2,2.8c-2,0.6-3.9,0.5-5.9,0.1c-0.4-0.1-0.8-0.3-1.1-0.6
					c-2.8-2.5-6-4.2-9.6-5.4c-1.4-0.5-2.4-1.2-3-2.5C486.3,329.4,500.4,332.9,505.1,336.2"/>
				<path class="st2" d="M214.7,341.5c-0.3,0.1-0.5,0.2-0.7,0.2c-0.2,0-0.5,0-0.7,0c-0.3-1.3,1.4-24.7,2-28.9c0.5,0,1-0.1,1.7-0.2
					C216.2,322.3,215.5,331.9,214.7,341.5"/>
				<path class="st4" d="M467.3,334c0.5-0.3,0.8-0.6,1.2-0.8c2.3-1.2,4.6-2,7.2-2.5c1.8-0.3,3.4,0.2,4.8,1.2c1.3,0.9,1.2,2-0.3,2.7
					c-0.7,0.3-1.4,0.6-2.1,0.7c-3.4,0.6-6.7,0.3-9.9-0.9C467.9,334.4,467.7,334.2,467.3,334"/>
				<path class="st1" d="M211.6,152c28.1-0.1,56.3-0.2,84.4-0.3c0.5,0,1.1,0,1.6,0c1.2,0,1.5,0.2,1.8,1.3c2.5,10.8,5,21.6,7.5,32.4
					c6.4,27.5,12.9,54.9,19.3,82.4c1.5,6.6,3.1,13.1,4.6,19.7c0.2,0.7,0.4,1.3,0.7,2c0.3,0.9-0.2,1.7-1.2,1.8c-4,0.3-8,0.5-11.9,0.8
					c-7.8,0.6-15.6,1.3-23.4,2c-7.8,0.7-15.6,1.3-23.4,2c-7.6,0.6-15.1,1.3-22.7,1.9c-7.8,0.7-15.6,1.3-23.4,2
					c-7.7,0.6-15.4,1.3-23.1,1.9c-7.9,0.7-15.7,1.3-23.6,2c-6.3,0.5-12.6,1.1-19,1.6c-3.9,0.3-7.8,0.6-11.6,1c-0.2,0-0.5,0-0.7,0.1
					c-1.2,0-1.5-0.2-1.7-1.4c-0.5-3.4-1-6.8-1.5-10.2c-1.3-9.3-2.7-18.7-4-28c-1.4-9.4-2.7-18.8-4.1-28.2
					c-1.5-10.2-2.9-20.4-4.4-30.5c-1.4-10.1-2.9-20.2-4.3-30.3c-1.1-7.8-2.2-15.6-3.4-23.4c0-0.3-0.1-0.6-0.1-0.9
					c0-0.7,0.4-1.1,1.1-1.2c0.7,0,1.4,0,2.1,0C155.3,152.2,183.4,152.1,211.6,152C211.6,152,211.6,152,211.6,152 M273.1,176
					c0.1,0.1,0.2,0.1,0.2,0.2c-0.1,0.3-0.3,0.5-0.4,0.8c-2.3,4.1-4.5,8.3-6.8,12.3c-15.3,26.4-31,52.6-47.4,78.3
					c-6.5,10.3-13.3,20.4-19.9,30.7c-0.3,0.5-0.6,1-1,1.7c0.9-0.1,1.5-0.1,2.1-0.1c1.6-0.1,3.3-0.3,4.9-0.4c9-0.8,18-1.5,27-2.2
					c10.1-0.8,20.1-1.7,30.2-2.5c1.2-0.1,2-0.5,2.6-1.6c9.9-17.6,20-35.1,29.8-52.7c5.3-9.6,10.2-19.3,15.3-29c0.5-1,0.8-2,0.5-3.1
					c-4.2-17.7-8.3-35.5-12.5-53.2c-0.1-0.4-0.2-0.7-0.3-1.1c-2.7-0.2-170.1,0.4-171,0.7c0.2,2,21,148.4,21.6,149.6c0.3,0,0.7,0,1,0
					c7.5-0.6,14.9-1.3,22.4-1.9c7.8-0.7,15.5-1.3,23.3-1.9c1.2-0.1,2-0.5,2.7-1.6c16.3-25,32.3-50.1,47.7-75.7
					c9.2-15.3,18.3-30.6,27.4-45.9C272.6,176.8,272.8,176.4,273.1,176 M311,211.9c-0.1,0-0.2,0-0.4,0c-0.8,1.6-1.5,3.1-2.3,4.7
					c-8,16.1-16.8,31.8-25.7,47.4c-5.5,9.6-11,19.1-16.5,28.7c-0.3,0.5-0.8,0.9-0.6,1.7c0.8-0.1,1.5-0.1,2.3-0.2
					c1.8-0.2,3.7-0.3,5.5-0.5c4.7-0.4,9.4-0.8,14-1.2c0.9-0.1,1.5-0.4,1.9-1.2c0.4-0.7,0.7-1.3,1.1-2c9-15,18-30.1,27-45.1
					c0.6-1,0.8-1.9,0.5-3.1c-2.1-8.8-4.2-17.7-6.2-26.5C311.4,213.7,311.2,212.8,311,211.9 M318.5,244.1
					c-9.8,16.2-19.3,32-28.9,47.9c0.2,0.1,0.3,0.2,0.4,0.2c1.7-0.1,3.4-0.2,5.1-0.4c0.4,0,0.8-0.4,1-0.7c0.3-0.4,0.5-0.8,0.8-1.3
					c6.7-10.9,13.5-21.8,20.2-32.8c0.4-0.6,0.9-1.2,1.3-1.8c0.1,0.1,0.2,0.1,0.3,0.2c-0.2,0.5-0.4,1-0.7,1.4c-1.1,2-2.2,4-3.4,6
					c-5.4,9-10.9,18-16.4,27c-0.3,0.5-0.6,1-1,1.7c10.8-0.9,21.2-1.7,31.8-2.7C325.5,274,322.1,259.2,318.5,244.1"/>
				<path class="st1" d="M356.4,211.4c-0.6-20-1.1-40.1-1.7-60.1c-0.4-12.9-0.7-25.8-1.1-38.7c0-0.2,0-0.4,0-0.6
					c0-1.2,0.3-1.5,1.5-1.4c3.1,0.3,6.3,0.6,9.4,0.9c7,0.7,14,1.3,21,2c7.9,0.7,15.8,1.5,23.7,2.3c2.4,0.2,4.8,0.5,7.2,0.7
					c0.4,0,0.8,0.1,1.2,0c1.3-0.1,1.4,0,1.5,1.3c0.1,2.3,0.2,4.6,0.2,6.9c0.4,13.4,0.8,26.9,1.2,40.3c0.5,15.6,0.9,31.3,1.4,46.9
					c0.7,23.2,1.4,46.4,2.1,69.7c0.2,6.8,0.4,13.7,0.7,20.5c0,1.1-0.1,1.2-1.3,1.4c-3.9,0.5-7.8,1.1-11.7,1.6
					c-8.6,1.2-17.1,2.3-25.7,3.5c-8.3,1.1-16.6,2.3-24.9,3.4c-0.1,0-0.2,0-0.3,0c-1.4,0.1-1.6,0-1.6-1.4c-0.1-3.1-0.2-6.2-0.3-9.3
					c-0.4-14.4-0.8-28.8-1.2-43.1C357.2,242.6,356.8,227,356.4,211.4 M360.7,310.4c20.9-2.8,41.6-5.6,62.4-8.4
					c-0.6-19.7-1.2-39.1-1.8-58.8c-20.9,2.2-41.5,4.3-62.3,6.5C359.6,269.9,360.1,290,360.7,310.4 M420.2,205.1
					c-20.9,0.5-41.5,1-62.3,1.5c0.4,13.9,0.8,27.6,1.2,41.4c20.8-2.2,41.5-4.3,62.3-6.5C420.9,229.4,420.5,217.4,420.2,205.1
					 M356.5,158.7c20.8,0.5,41.5,1,62.3,1.4c-0.2-7.6-0.5-15.1-0.7-22.6c-20.8-1.2-41.5-2.3-62.3-3.5
					C356,142.4,356.2,150.4,356.5,158.7 M418.8,161.7c-20.9-0.5-41.5-0.9-62.3-1.4c0.2,7.5,0.4,14.8,0.6,22.1
					c2.4,0.3,61.1-0.6,62.3-0.9C419.2,175,419.1,168.5,418.8,161.7 M357.8,204.9c2,0.3,61.2-1.2,62.3-1.6
					c-0.2-6.6-0.4-13.2-0.6-19.9c-20.8,0.3-41.5,0.6-62.3,0.8C357.4,191.2,357.6,198.1,357.8,204.9 M412.4,117.7
					c-0.1,0.6-0.2,1-0.2,1.4c-0.3,2.6-0.7,5.1-1,7.7c-0.2,1.8-0.3,1.8-2,1.7c-3.8-0.3-7.6-0.6-11.3-0.9c-8.5-0.7-17-1.3-25.5-2
					c-3-0.2-6-0.4-8.9-0.5c-0.7,0-0.9-0.5-0.9-1.1c-0.1-1.3-0.2-2.6-0.3-3.9c-0.2-2.4-0.4-4.8-0.6-7.3c-2.1-0.2-4.1-0.4-6.1-0.6
					c-0.3,1.9,0.2,19,0.6,20.2c20.6,1.1,41.3,2.3,62.1,3.5c-0.2-6-0.4-11.9-0.5-17.8c-1.3-0.1-2.4-0.3-3.5-0.4
					C413.5,117.8,413,117.8,412.4,117.7 M364,123.4c15.3,1.2,30.4,2.4,45.6,3.6c0.4-3.2,0.8-6.3,1.2-9.5c-15.9-1.5-31.7-3-47.6-4.5
					C363.4,116.6,363.7,119.9,364,123.4"/>
				<path class="st1" d="M205.4,419.6c-0.8,0.1-1.2-0.4-1.7-0.8c-4.1-3.5-8.2-7-12.3-10.5c-5.2-4.4-10.3-8.8-15.5-13.2
					c-0.4-0.3-0.7-0.6-0.5-1.1c0.2-0.5,0.6-0.5,1.1-0.5c0.6,0,1.1-0.1,1.7-0.2c7.2-1.3,14.4-2.6,21.7-3.9
					c13.1-2.4,26.1-4.7,39.2-7.1c13-2.3,25.9-4.7,38.9-7c13-2.3,26-4.7,39.1-7.1c13-2.3,25.9-4.7,38.9-7c13-2.3,26-4.7,39.1-7
					c2.4-0.4,4.7-0.8,7.1-1.3c0.8-0.2,1.6,0,2.3,0.3c12.2,5.6,24.3,11.1,36.5,16.7c0.2,0.1,0.5,0.2,0.7,0.3c0.7,0.5,0.7,1.4-0.2,1.7
					c-0.4,0.2-0.9,0.2-1.3,0.3c-25.1,5.1-50.2,10.2-75.3,15.2c-23,4.6-45.9,9.3-68.9,13.9c-22.5,4.5-45,9.1-67.5,13.7
					c-7.3,1.5-14.7,3-22,4.4C206.1,419.5,205.8,419.6,205.4,419.6 M358.9,387c4.6-0.9,9.1-1.8,13.8-2.8c-0.4-0.6-0.7-0.9-1.1-1.3
					c-0.6-0.7-1.2-1.3-1.8-2c-0.9-1.1-0.7-1.8,0.5-2.3c1.1-0.5,2.4-0.8,3.5-1.2c0.4-0.1,0.7-0.3,1.2-0.4c-0.5-0.9-0.9-1.6-1.3-2.3
					c-0.6-1.1-0.5-1.8,0.7-2.3c1.1-0.5,2.2-0.9,3.4-1.2c1.4-0.4,2.5,0,3.4,1.2c0.6,0.7,1.2,1.4,1.6,1.9c2-0.6,3.8-1.2,5.6-1.6
					c1.7-0.4,2.9,0.2,3.7,1.7c1,1.8,2.1,3.5,3.2,5.2c1.6,0,5.8-0.9,7-1.5c-0.4-0.4-0.9-0.7-1.2-1.1c-6-5.9-12.1-11.8-18.1-17.7
					c-0.8-0.8-1.4-1-2.5-0.8c-10.8,2-21.7,3.9-32.5,5.9c-1.5,0.3-3,0.6-4.8,0.9C349.6,371.8,354.6,379.1,358.9,387 M261.6,406.7
					c22.9-4.6,45.6-9.2,68.7-13.9c-1.1-1.6-2.2-2.9-3.1-4.3c-0.7-1-1.4-1.1-2.6-0.8c-7.6,2-15.3,3.3-23.1,4.3
					c-10.1,1.4-20.2,3.1-30.2,5.5c-3.5,0.8-6.9,1.8-10.4,2.8c-0.7,0.2-1.6,0.4-2,1.2C259.8,403.2,260.6,404.9,261.6,406.7
					 M397.8,361.6c-2.3-1.7-4.4-3.3-6.5-4.8c-0.3-0.2-0.8-0.2-1.1-0.2c-2,0.3-4,0.7-6,1.1c-0.1,0-0.1,0.2-0.2,0.3
					c0.2,0.3,0.5,0.6,0.8,0.8c6.3,6,12.5,12,18.7,18.1c0.7,0.6,1.3,0.8,2.1,0.6c2.9-0.6,5.9-1.2,8.8-1.8c0.3-0.1,0.6-0.2,1.4-0.5
					c-0.5-0.4-0.9-0.6-1.2-0.8c-2.3-1.9-4.7-3.7-7-5.6c-0.8-0.6-1.4-0.7-2.3-0.3c-1.7,0.7-3.4,1.3-5.1,1.9c-0.4,0.1-0.9,0.4-1.2-0.4
					c0.4-0.3,0.8-0.6,1.3-0.8c1.3-0.6,2.6-1.1,3.8-1.7c0.3-0.1,0.6-0.3,1-0.6c-1.7-1.3-3.3-2.4-4.8-3.6c-0.7-0.6-1.4-0.6-2.2-0.4
					c-1.6,0.5-3.2,0.9-4.7,1.4c-0.3,0.1-0.6,0.2-0.9,0.2c-0.2,0-0.5-0.2-0.6-0.3c-0.1-0.2,0-0.6,0.1-0.7c0.3-0.3,0.8-0.5,1.2-0.6
					C394.7,362.6,396.1,362.2,397.8,361.6 M414.8,364c0.6,0.7,1,1.3,1.5,1.8c2.7,2.3,5.5,4.6,8.2,7c0.7,0.6,1.3,0.7,2.2,0.6
					c3.7-0.8,7.4-1.5,11.1-2.3c0.3-0.1,0.6-0.2,1.1-0.4c-0.7-0.3-1.1-0.6-1.5-0.8c-4.2-1.9-8.4-3.8-12.7-5.8
					c-3.4-1.6-6.9-3.2-10.3-4.7c-0.6-0.3-1.4-0.6-2-0.5c-1,0.2-2,0.8-3.2,1.3C411.4,361.6,412.7,363.6,414.8,364 M355,383.4
					c-0.3-0.6-0.5-1-0.7-1.3c-1.7-2.5-3.4-5-5.1-7.6c-0.6-0.9-1.3-1.2-2.4-0.9c-2.9,0.6-5.8,1-8.7,1.5c-1,0.2-1.9,0.4-3,0.6
					c0.3,0.5,0.5,0.8,0.7,1.1c1.8,2.5,3.7,5,5.4,7.5c0.6,0.8,1.2,1,2.1,0.9c2.4-0.4,4.8-0.7,7.3-1.1
					C352.1,383.8,353.5,383.6,355,383.4 M370.8,379.8c1,1.2,1.8,2,2.5,2.9c0.7,0.9,1.4,1.2,2.5,0.9c5.6-1.2,11.1-2.3,16.7-3.4
					c0.5-0.1,0.9-0.3,1.5-0.4c-1.2-1.9-2.3-3.6-3.3-5.3c-0.3-0.5-0.8-0.6-1.4-0.6c-1.7,0.2-3.3,0.7-4.8,1.5c-1.6,0.8-1.9,0.7-3-0.7
					c-0.5-0.6-0.9-1.2-1.4-1.7c-0.3-0.3-0.8-0.6-1.1-0.6c-1.3,0.1-2.6,0.4-3.8,1.3c0.4,0.8,0.9,1.6,1.3,2.4c0.7,1.5,0.4,2-1.2,2.4
					C373.8,378.9,372.5,379.3,370.8,379.8 M215.5,406.2c-0.1-0.3-0.1-0.4-0.2-0.5c-2.6-2.7-5.1-5.3-7.7-8c-0.5-0.5-1-0.5-1.6-0.4
					c-3.2,0.6-6.4,1.1-9.6,1.6c-0.2,0-0.4,0.2-0.8,0.3c0.2,0.2,0.2,0.4,0.4,0.6c2.8,2.7,5.7,5.5,8.5,8.2c0.5,0.5,1,0.6,1.6,0.4
					c2.9-0.7,5.7-1.3,8.6-1.9C215,406.4,215.2,406.3,215.5,406.2 M231,393.1c0.2,0.4,0.3,0.5,0.4,0.6c2.2,2.4,4.5,4.8,6.7,7.2
					c0.5,0.5,0.9,0.6,1.6,0.5c3.6-0.7,7.2-1.3,10.7-2c0.2,0,0.4-0.2,0.8-0.4c-2.8-2.6-5.4-5.1-8.1-7.6c-0.3-0.3-0.9-0.3-1.4-0.2
					c-1.7,0.2-3.4,0.6-5.2,0.9C234.8,392.5,233,392.8,231,393.1 M264.7,397c-0.3-0.5-0.5-0.8-0.7-1c-1.9-2.1-3.9-4.3-5.8-6.4
					c-0.6-0.7-1.3-0.9-2.2-0.7c-3.3,0.6-6.7,1.2-10,1.7c-0.4,0.1-0.8,0.2-1.2,0.3c0.2,0.3,0.4,0.5,0.5,0.7c2.4,2.3,4.8,4.5,7.2,6.8
					c0.5,0.5,1.1,0.6,1.8,0.5c2.4-0.4,4.7-0.8,7.1-1.2C262.3,397.4,263.4,397.2,264.7,397 M284.1,384.1c0.3,0.5,0.5,0.8,0.7,1.1
					c1.5,2,3,4,4.4,6c0.6,0.8,1.1,1,2.1,0.9c3.5-0.6,7.1-1.1,10.6-1.6c0.4-0.1,0.8-0.2,1.3-0.3c-0.4-0.5-0.7-0.8-1-1.2
					c-1.6-1.7-3.2-3.4-4.7-5.2c-1.1-1.3-2.2-1.7-3.9-1.3C290.6,383.1,287.5,383.5,284.1,384.1 M340.2,385.4c0-0.2,0-0.3-0.1-0.4
					c-2.1-2.9-4.1-5.8-6.2-8.6c-0.4-0.6-0.9-0.6-1.4-0.5c-2.9,0.5-5.8,1-8.7,1.5c-0.3,0.1-0.6,0.2-0.9,0.3c0.1,0.2,0.1,0.3,0.1,0.4
					c2.1,2.7,4.2,5.5,6.2,8.2c0.4,0.5,0.8,0.6,1.4,0.5c3-0.4,5.9-0.8,8.9-1.3C339.7,385.6,340,385.5,340.2,385.4 M277.2,394.6
					c0-0.1,0.1-0.3,0.1-0.4c-2-2.3-4.1-4.6-6.1-7c-0.6-0.6-1.1-0.8-2-0.7c-3.1,0.6-6.3,1.1-9.4,1.6c-0.2,0-0.4,0.2-0.6,0.3
					c0.1,0.2,0.1,0.3,0.1,0.4c2.1,2.4,4.2,4.8,6.3,7.2c0.5,0.5,1,0.6,1.6,0.5c1.3-0.2,2.6-0.4,3.8-0.7
					C273.2,395.5,275.2,395.1,277.2,394.6 M298.1,381.9c0,0.1,0,0.2,0,0.2c2.2,2.4,4.4,4.9,6.6,7.3c0.4,0.4,0.8,0.5,1.3,0.4
					c2.9-0.5,5.9-1,8.8-1.5c0.3-0.1,0.6-0.2,0.9-0.3c0-0.2,0-0.3-0.1-0.4c-1.8-2.4-3.7-4.8-5.5-7.2c-0.3-0.4-0.7-0.6-1.3-0.5
					c-3.4,0.6-6.9,1.2-10.3,1.7C298.4,381.7,298.2,381.8,298.1,381.9 M259,407.2c-0.3-0.4-0.5-0.7-0.7-0.9c-1.6-1.6-3.2-3.3-4.8-4.9
					c-0.6-0.7-1.3-0.8-2.1-0.6c-2.3,0.4-4.6,0.8-6.9,1.3c-1.4,0.3-2.8,0.5-4.3,0.8c0.1,0.3,0.1,0.4,0.2,0.5c1.8,2,3.5,3.9,5.3,5.9
					c0.4,0.4,0.8,0.5,1.3,0.4C250.9,408.9,254.8,408.1,259,407.2 M347.3,372c-0.3-0.4-0.5-0.8-0.7-1c-1.4-1.6-2.8-3.2-4.2-4.9
					c-0.6-0.7-1.1-0.8-2-0.6c-3.5,0.7-7,1.3-10.4,1.9c-0.3,0-0.5,0.2-0.9,0.3c0.2,0.3,0.4,0.6,0.5,0.8c1.2,1.6,2.5,3.1,3.7,4.7
					c0.5,0.8,1.1,1,2,0.8c3.7-0.6,7.5-1.2,11.2-1.8C346.7,372.3,346.9,372.2,347.3,372 M236.8,401.9c-0.2-0.3-0.2-0.5-0.4-0.6
					c-2.2-2.4-4.5-4.8-6.7-7.2c-0.5-0.6-1.1-0.6-1.8-0.5c-2.6,0.5-5.2,0.9-7.8,1.4c-0.3,0.1-0.6,0.2-0.9,0.3
					c0.1,0.2,0.1,0.3,0.2,0.4c2.6,2.5,5.2,5.1,7.8,7.6c0.5,0.5,0.9,0.4,1.5,0.3c2.2-0.5,4.4-0.9,6.6-1.3
					C235.8,402.2,236.3,402,236.8,401.9 M185.5,400.7c0.1,0.2,0.1,0.4,0.1,0.4c3.5,3,7,6,10.4,9c0.2,0.2,0.7,0.4,0.9,0.3
					c2.1-0.4,4.1-0.9,6.5-1.5c-0.5-0.6-0.8-0.9-1.1-1.3c-2.3-2.2-4.6-4.3-6.8-6.5c-1.4-1.4-2.8-1.9-4.7-1.4
					C189.1,400.3,187.3,400.4,185.5,400.7 M272.5,386.1c0.1,0.3,0.1,0.4,0.2,0.5c1.9,2.3,3.9,4.7,5.8,7c0.5,0.6,1,0.6,1.6,0.4
					c2.4-0.5,4.8-0.9,7.2-1.4c0.3-0.1,0.6-0.2,1.1-0.3c-2-2.6-3.8-5-5.6-7.4c-0.4-0.5-0.9-0.5-1.5-0.4c-1.4,0.2-2.9,0.5-4.3,0.7
					C275.5,385.6,274,385.8,272.5,386.1 M208.9,396.9c0.2,0.3,0.3,0.5,0.4,0.6c2.5,2.6,5,5.2,7.5,7.8c0.4,0.5,0.9,0.5,1.5,0.4
					c2.2-0.5,4.5-0.9,6.7-1.4c0.3-0.1,0.5-0.2,0.8-0.4c-0.4-0.5-0.8-0.8-1.1-1.2c-1.8-1.7-3.5-3.4-5.3-5.1c-2.9-2.7-1.6-2.2-5.3-1.7
					C212.5,396.2,210.8,396.6,208.9,396.9 M206.5,409.8c0.1,0.2,0.2,0.4,0.3,0.6c1.7,1.9,3.4,3.8,5.1,5.7c0.4,0.5,0.9,0.6,1.5,0.4
					c2.4-0.5,4.9-1,7.3-1.5c0.7-0.1,1.4-0.3,2.3-0.5c-0.3-0.4-0.5-0.7-0.7-1c-1.5-1.7-3.1-3.4-4.6-5.1c-0.6-0.7-1.2-0.8-2.1-0.6
					c-2.7,0.6-5.4,1.2-8,1.8C207.2,409.5,206.9,409.7,206.5,409.8 M327,385.8c-1.8-2.6-3.8-5.1-5.8-7.5c-0.4-0.5-0.9-0.4-1.4-0.3
					c-1.8,0.3-3.5,0.6-5.3,0.9c-1,0.2-1.9,0.3-3,0.5c0.2,0.4,0.3,0.6,0.5,0.8c1.7,2.2,3.4,4.4,5,6.7c0.4,0.6,0.8,0.8,1.5,0.6
					c1.8-0.5,3.7-0.9,5.5-1.3C325,386.1,325.9,386,327,385.8 M332.2,374.6c-0.1-0.3-0.1-0.4-0.1-0.6c-1.4-1.8-2.8-3.6-4.2-5.5
					c-0.5-0.6-1-0.5-1.6-0.4c-3.3,0.6-6.7,1.2-10,1.8c-0.3,0.1-0.6,0.2-0.6,0.2c1.6,1.8,3.3,3.5,4.9,5.3c0.6,0.7,1.2,0.9,2.1,0.7
					c2.2-0.4,4.4-0.7,6.7-1.1C330.2,374.9,331.2,374.7,332.2,374.6 M237.5,384.2c0,0.1-0.1,0.2-0.1,0.3c1.5,1.4,3.1,2.7,4.5,4.1
					c0.7,0.7,1.4,0.9,2.4,0.7c3.5-0.7,7.1-1.2,10.6-1.8c0.2,0,0.4-0.1,0.8-0.3c-0.3-0.4-0.5-0.7-0.7-0.9c-1.3-1.3-2.6-2.5-3.8-3.8
					c-0.6-0.6-1.2-0.7-2-0.6c-2,0.4-4,0.7-6,1.1C241.3,383.5,239.4,383.8,237.5,384.2 M308.6,378.5c-1.9-1.9-3.5-3.5-5.1-5.2
					c-0.6-0.7-1.3-0.8-2.1-0.7c-2.3,0.5-4.6,0.8-6.9,1.3c-1.2,0.2-2.4,0.5-3.7,0.7c0.1,0.3,0.2,0.4,0.3,0.5c1.6,1.6,3.3,3.2,4.9,4.8
					c0.5,0.5,0.9,0.5,1.5,0.4c1.2-0.2,2.5-0.4,3.7-0.6C303.5,379.3,305.8,378.9,308.6,378.5 M294.6,380.8c-0.4-0.5-0.5-0.8-0.8-1
					c-1.4-1.4-2.8-2.7-4.1-4.1c-0.6-0.7-1.3-0.8-2.1-0.6c-2,0.4-4,0.7-6,1.1c-1.2,0.2-2.4,0.5-3.8,0.7c1.7,2,3.3,3.7,4.9,5.5
					c0.2,0.2,0.6,0.3,0.9,0.2C287.1,382.1,290.7,381.5,294.6,380.8 M244.8,410.1c-2.2-2.3-4.1-4.4-6.1-6.4c-0.2-0.3-0.8-0.4-1.2-0.3
					c-1.5,0.2-2.9,0.5-4.4,0.8c-1.3,0.2-2.5,0.5-4,0.8c0.4,0.5,0.7,0.9,1,1.2c1.2,1.3,2.4,2.6,3.6,4c2.1,2.2,1.1,2,4.1,1.4
					C240,411.1,242.2,410.6,244.8,410.1 M269.1,385.1c-0.3-0.4-0.4-0.6-0.6-0.8c-1.4-1.3-2.8-2.7-4.2-4c-0.6-0.6-1.2-0.7-2-0.6
					c-3,0.6-6,1.1-9,1.6c-0.3,0.1-0.6,0.2-0.9,0.3c0.1,0.2,0.1,0.2,0.1,0.3c1.5,1.4,3,2.8,4.4,4.3c0.7,0.7,1.4,0.8,2.3,0.7
					c1.7-0.3,3.4-0.6,5.2-0.9C265.8,385.7,267.4,385.4,269.1,385.1 M233.5,412.4c-0.1-0.3-0.1-0.4-0.1-0.5c-1.3-1.5-2.6-3-4-4.4
					c-2.6-2.7-1.3-2.2-5-1.6c-1.9,0.3-3.7,0.8-5.5,1.2c0,0.2,0,0.4,0,0.4c1.8,2.1,3.6,4.2,5.4,6.2c0.2,0.2,0.7,0.4,1,0.3
					C228,413.5,230.7,413,233.5,412.4 M224.4,386.6c1.6,1.6,3,3,4.3,4.4c0.6,0.7,1.3,0.8,2.1,0.7c2.9-0.5,5.9-1,8.8-1.5
					c0.5-0.1,0.9-0.2,1.6-0.4c-1.9-1.7-3.5-3.3-5.2-4.8c-0.3-0.3-0.9-0.3-1.4-0.2c-2.8,0.5-5.6,1-8.4,1.5
					C225.7,386.3,225.1,386.4,224.4,386.6 M188.5,393c0,0.1-0.1,0.2-0.1,0.3c1.5,1.3,3.1,2.5,4.6,3.8c0.7,0.6,1.4,0.8,2.3,0.6
					c3.1-0.6,6.3-1.1,9.4-1.6c0.3,0,0.5-0.2,1-0.4c-1.7-1.6-3.3-3.1-4.9-4.6c-0.2-0.2-0.7-0.3-1-0.2
					C196,391.7,192.2,392.3,188.5,393 M281.3,383.1c-1.6-1.8-3-3.3-4.3-4.9c-0.6-0.8-1.3-1-2.2-0.8c-2.2,0.4-4.4,0.8-6.6,1.2
					c-1,0.2-1.9,0.4-2.9,0.6c0.1,0.2,0.1,0.4,0.1,0.4c1.7,1.6,3.3,3.1,5,4.7c0.4,0.4,0.9,0.4,1.4,0.3c1.6-0.3,3.2-0.5,4.9-0.8
					C278.1,383.6,279.5,383.4,281.3,383.1 M304.6,372.1c0.1,0.3,0.1,0.4,0.2,0.5c1.7,1.7,3.3,3.5,5,5.1c0.3,0.3,0.8,0.4,1.2,0.3
					c1.1-0.1,2.2-0.3,3.3-0.5c1.7-0.3,3.4-0.6,5.1-0.9c0-0.3,0-0.4-0.1-0.4c-1.8-1.8-3.6-3.6-5.5-5.3c-0.2-0.2-0.6-0.4-0.9-0.3
					C310.1,371.1,307.4,371.6,304.6,372.1 M211.7,388.8c1.9,1.6,3.5,3,5,4.4c0.6,0.6,1.2,0.7,2,0.6c2.6-0.5,5.2-0.9,7.8-1.4
					c0.3-0.1,0.6-0.2,1.2-0.3c-1.2-1.2-2.4-2.3-3.3-3.4c-1.1-1.4-2.3-1.8-4.1-1.4C217.6,387.9,214.8,388.3,211.7,388.8 M423.5,374
					c0-0.3,0-0.3-0.1-0.3c-3.1-2.6-6.3-5.2-9.5-7.8c-0.2-0.2-0.7-0.3-1-0.2c-1.6,0.6-3.1,1.2-4.7,1.9c2.8,2.4,5.5,4.6,8.2,6.8
					c0.2,0.1,0.3,0.3,0.5,0.4c0.4,0.1,0.8,0.3,1.2,0.3C420,374.7,421.7,374.3,423.5,374 M210.8,417c0-0.2,0-0.4-0.1-0.4
					c-1.9-2-3.7-4-5.7-6c-0.2-0.2-0.6-0.4-0.9-0.3c-2,0.4-4,0.9-6,1.3c0.1,0.3,0.1,0.4,0.1,0.5c2.2,1.9,4.4,3.8,6.6,5.7
					c0.2,0.2,0.6,0.3,0.9,0.3C207.5,417.7,209.1,417.3,210.8,417 M202.1,390.6c1.8,1.7,3.4,3.2,5,4.7c0.3,0.3,0.9,0.3,1.4,0.3
					c1.6-0.2,3.2-0.5,4.9-0.8c0.7-0.1,1.4-0.3,2.2-0.4c-0.1-0.3-0.1-0.4-0.2-0.5c-1.6-1.4-3.1-2.8-4.7-4.1c-0.3-0.2-0.7-0.4-1.1-0.3
					C207.1,389.7,204.8,390.1,202.1,390.6 M192.1,398.2c-1.5-1.2-2.6-2.2-3.8-3.2c-2.1-1.7-2.1-1.7-4.7-1.2c-1.7,0.3-3.4,0.6-5.4,1
					c1.7,1.5,3.2,2.7,4.6,4c0.7,0.6,1.3,0.8,2.2,0.6c1.7-0.3,3.3-0.6,5-0.9C190.6,398.6,191.2,398.4,192.1,398.2 M406,359.6
					c-2.1-1.6-3.8-3-5.6-4.4c-0.3-0.2-0.7-0.2-1.1-0.2c-0.6,0-1.2,0.2-1.8,0.3c-1.5,0.3-3.1,0.6-4.6,0.9c0.1,0.2,0.1,0.4,0.2,0.4
					c2,1.4,4.1,2.9,6.1,4.3c0.3,0.2,0.7,0.3,1,0.2C402,360.6,403.8,360.1,406,359.6 M330.6,388.4c0.8,1.4,1.5,2.6,2.3,3.9
					c3.6-0.7,7.1-1.4,10.8-2.2c-0.6-0.9-1.1-1.6-1.6-2.4c-0.4-0.7-1-0.9-1.8-0.7c-1.7,0.3-3.4,0.5-5.2,0.8
					C333.7,388,332.3,388.2,330.6,388.4 M355.9,384.8c-4.3,0.6-8.5,1.3-12.9,1.9c0.5,0.8,0.9,1.4,1.3,2c0.5,0.9,1.1,1.1,2.1,0.9
					c3.4-0.7,6.7-1.4,10.1-2.1c0.3-0.1,0.5-0.2,0.8-0.4C356.8,386.4,356.4,385.6,355.9,384.8 M412.4,364.5c-1.7-1.3-3.2-2.5-4.7-3.6
					c-0.3-0.2-0.9-0.1-1.3,0c-1.4,0.3-2.8,0.7-4.2,1.1c-0.2,0.1-0.5,0.2-0.8,0.4c1.8,1.3,3.4,2.6,5,3.8c0.3,0.2,0.8,0.2,1.1,0.1
					C409,365.8,410.5,365.2,412.4,364.5 M402.2,354.4c0,0.1-0.1,0.3-0.1,0.4c1.7,1.3,3.5,2.6,5.2,4c0.2,0.1,0.5,0.3,0.7,0.3
					c1.1-0.1,2.3-0.3,3.4-0.7c-0.1-0.2-0.1-0.3-0.2-0.4c-2.5-1.2-5.1-2.3-7.6-3.5C403.2,354.3,402.7,354.4,402.2,354.4 M254.5,400.3
					c1.6,1.5,3,2.9,4.4,4.2c-0.4-0.7-0.8-1.4-1.3-2.1c-0.4-0.7-0.5-1.3,0-1.9c0.1-0.2,0.3-0.4,0.5-0.8
					C256.9,399.9,255.8,400,254.5,400.3"/>
				<path class="st6" d="M273.1,176c-0.2,0.4-0.5,0.7-0.7,1.1c-9.1,15.3-18.2,30.7-27.4,45.9c-15.4,25.6-31.4,50.7-47.7,75.7
					c-0.7,1-1.4,1.5-2.7,1.6c-7.8,0.6-15.5,1.3-23.3,1.9c-7.5,0.6-14.9,1.3-22.4,1.9c-0.3,0-0.7,0-1,0
					c-0.6-1.1-21.5-147.6-21.6-149.6c0.9-0.3,168.3-0.9,171-0.7c0.1,0.3,0.3,0.7,0.3,1.1c4.2,17.7,8.3,35.5,12.5,53.2
					c0.3,1.2,0,2.1-0.5,3.1c-5.1,9.7-10,19.5-15.3,29c-9.8,17.6-19.9,35.1-29.8,52.7c-0.6,1.1-1.3,1.5-2.6,1.6
					c-10.1,0.8-20.1,1.7-30.2,2.5c-9,0.8-18,1.5-27,2.2c-1.6,0.1-3.3,0.3-4.9,0.4c-0.6,0.1-1.2,0.1-2.1,0.1c0.4-0.7,0.7-1.2,1-1.7
					c6.6-10.2,13.4-20.4,19.9-30.7c16.4-25.8,32.2-51.9,47.4-78.3c2.3-4.1,4.6-8.2,6.8-12.3c0.1-0.3,0.3-0.5,0.4-0.8
					C273.2,176.2,273.1,176.1,273.1,176"/>
				<path class="st7" d="M311,211.9c0.2,0.9,0.5,1.8,0.7,2.7c2.1,8.8,4.1,17.7,6.2,26.5c0.3,1.2,0.1,2.1-0.5,3.1
					c-9,15-18,30.1-27,45.1c-0.4,0.6-0.7,1.3-1.1,2c-0.4,0.8-1,1.1-1.9,1.2c-4.7,0.4-9.4,0.8-14,1.2c-1.8,0.2-3.7,0.3-5.5,0.5
					c-0.7,0.1-1.5,0.1-2.3,0.2c-0.1-0.8,0.3-1.2,0.6-1.7c5.5-9.6,11-19.1,16.5-28.7c8.9-15.6,17.7-31.3,25.7-47.4
					c0.8-1.6,1.5-3.1,2.3-4.7C310.7,211.9,310.8,211.9,311,211.9"/>
				<path class="st6" d="M318.5,244.1c3.5,15.1,7,29.9,10.5,44.9c-10.6,0.9-21,1.8-31.8,2.7c0.4-0.8,0.7-1.3,1-1.7
					c5.5-9,10.9-18,16.4-27c1.2-2,2.3-4,3.4-6c0.3-0.5,0.4-0.9,0.7-1.4c-0.1-0.1-0.2-0.1-0.3-0.2c-0.4,0.6-0.9,1.2-1.3,1.8
					c-6.8,10.9-13.5,21.8-20.2,32.8c-0.3,0.4-0.5,0.9-0.8,1.3c-0.3,0.3-0.7,0.7-1,0.7c-1.7,0.2-3.4,0.3-5.1,0.4
					c-0.1,0-0.3-0.1-0.4-0.2C299.2,276.2,308.8,260.3,318.5,244.1"/>
				<path class="st3" d="M360.7,310.4c-0.6-20.4-1.1-40.5-1.7-60.7c20.8-2.2,41.4-4.3,62.3-6.5c0.6,19.7,1.2,39.1,1.8,58.8
					C402.3,304.8,381.6,307.6,360.7,310.4 M404.6,291c0.1-4.6-3.6-8.3-8.2-8.3c-4.6,0-8.8,4.2-8.9,8.8c-0.1,4.5,3.8,8.4,8.5,8.5
					C400.7,300.1,404.5,296.1,404.6,291"/>
				<path class="st4" d="M420.2,205.1c0.4,12.3,0.7,24.3,1.1,36.4c-20.8,2.2-41.4,4.3-62.3,6.5c-0.4-13.9-0.8-27.6-1.2-41.4
					C378.6,206.2,399.3,205.7,420.2,205.1"/>
				<path class="st3" d="M356.5,158.7c-0.2-8.3-0.5-16.4-0.7-24.7c20.9,1.2,41.5,2.3,62.3,3.5c0.2,7.5,0.5,15,0.7,22.6
					C398,159.7,377.3,159.2,356.5,158.7"/>
				<path class="st4" d="M418.8,161.7c0.2,6.7,0.4,13.3,0.6,19.7c-1.2,0.3-59.9,1.2-62.3,0.9c-0.3-7.3-0.4-14.6-0.6-22.1
					C377.3,160.8,397.9,161.3,418.8,161.7"/>
				<path class="st3" d="M357.8,204.9c-0.2-6.8-0.4-13.7-0.6-20.7c20.8-0.3,41.5-0.6,62.3-0.8c0.2,6.8,0.4,13.4,0.6,20
					C418.9,203.7,359.8,205.2,357.8,204.9"/>
				<path class="st4" d="M412.4,117.7c0.6,0,1.1,0,1.6,0.1c1.1,0.1,2.3,0.2,3.5,0.4c0.2,5.9,0.4,11.7,0.5,17.8
					c-20.8-1.1-41.4-2.3-62.1-3.5c-0.4-1.3-0.9-18.3-0.6-20.2c2,0.2,4,0.4,6.1,0.6c0.2,2.5,0.4,4.9,0.6,7.3c0.1,1.3,0.2,2.6,0.3,3.9
					c0,0.6,0.2,1.1,0.9,1.1c3,0.2,6,0.3,8.9,0.5c8.5,0.6,17,1.3,25.5,2c3.8,0.3,7.6,0.6,11.3,0.9c1.8,0.1,1.8,0.1,2-1.7
					c0.3-2.6,0.7-5.1,1-7.7C412.2,118.7,412.3,118.3,412.4,117.7"/>
				<path class="st5" d="M364,123.4c-0.3-3.5-0.5-6.8-0.8-10.4c15.9,1.5,31.7,3,47.6,4.5c-0.4,3.2-0.8,6.3-1.2,9.5
					C394.3,125.8,379.2,124.6,364,123.4"/>
				<path class="st8" d="M358.9,387c-4.2-8-9.3-15.3-15.5-22c1.8-0.3,3.3-0.6,4.8-0.9c10.9-2,21.7-3.9,32.5-5.9
					c1.1-0.2,1.7,0,2.5,0.8c6,5.9,12,11.8,18.1,17.7c0.4,0.4,0.8,0.7,1.2,1.1c-1.2,0.6-5.4,1.5-7,1.5c-1.1-1.7-2.2-3.4-3.2-5.2
					c-0.9-1.5-2-2.1-3.7-1.7c-1.8,0.5-3.6,1-5.6,1.6c-0.4-0.5-1.1-1.2-1.6-1.9c-0.9-1.2-2-1.6-3.4-1.2c-1.1,0.3-2.3,0.7-3.4,1.2
					c-1.1,0.6-1.3,1.2-0.7,2.3c0.4,0.7,0.8,1.5,1.3,2.3c-0.5,0.2-0.9,0.3-1.2,0.4c-1.2,0.4-2.4,0.7-3.5,1.2
					c-1.3,0.5-1.4,1.3-0.5,2.3c0.6,0.7,1.2,1.3,1.8,2c0.3,0.4,0.6,0.8,1.1,1.3C368,385.2,363.4,386.1,358.9,387 M386.2,366.4
					c-1.3,0.2-2.5,0.3-3.5,0.6c-0.6,0.2-1,0.9-1.6,1.3c-0.5,0.4-0.5,0.8-0.2,1.3c0.5,0.8,1,1.6,1.5,2.4c0.4,0.6,0.9,0.8,1.7,0.6
					c1.3-0.4,2.6-0.7,3.9-1.1c1.6-0.5,1.9-1.3,1.1-2.7c-0.3-0.6-0.7-1.2-1.3-1.6C387.3,366.8,386.6,366.6,386.2,366.4 M362.4,373.6
					c-0.5,1.7,0.6,3.7,1.9,3.7c1.4,0,2.9-0.1,4.3-0.4c1-0.2,1.3-1,0.9-2c-0.3-0.7-0.7-1.3-1.1-2c-1.4-2.2-3.4-2.5-5.5-1
					c-0.2,0.1-0.3,0.5-0.5,0.8c0.9,0.3,1.6-0.2,2.3-0.3c0.9-0.3,1.7,0,2.2,0.8c0.4,0.7,0.8,1.4,1.3,2.3c-1.4,0.4-2.6,0.7-3.7,1
					C363.8,375.5,363.2,374.7,362.4,373.6 M355.5,367.7c0.9-0.5,1.3-0.8,1.8-1c0.9-0.3,1.8,0.2,1.9,1.1c0,0.3-0.1,0.8-0.3,1
					c-0.1,0.2-0.7,0.1-0.9-0.1c-0.5-0.2-1-0.6-1.5-0.9c-0.2,1-0.2,1,0.2,1.5c0.6,0.6,1.3,1.2,2.2,1.1c0.4,0,0.9-0.3,1.2-0.5
					c0.8-0.8,0.9-1.8,0.5-2.8c-0.4-1.1-1.2-1.7-2.3-1.9c-1.1-0.1-2,0.4-2.6,1.2C355.4,366.7,355.5,367.1,355.5,367.7 M376.2,360.9
					c0.8,0.2,1.5,0.3,2.2,0.5c0.4,0.2,0.9,0.6,1,1c0.1,0.4-0.2,1-0.5,1.3c-0.4,0.4-1,0.3-1.5,0c-0.3-0.3-0.7-0.5-1-0.7
					c-0.1,0.1-0.2,0.1-0.3,0.2c0,0.3,0,0.7,0.1,1c0.5,1,1.7,1.5,2.8,1.1c1.2-0.4,1.9-1.5,1.9-2.8c-0.1-1.3-0.9-2.2-2.3-2.4
					C377.7,360,376.8,359.7,376.2,360.9 M366.9,364.3c0,0,0.2,0,0.4,0c0.6,0.1,1.1,0.6,1,1.1c-0.1,0.6-0.5,1-1.2,0.9
					c-0.3,0-0.7-0.2-1-0.3c-0.3-0.1-0.5-0.3-0.8-0.4c-0.2,0-0.5,0-0.5,0.1c-0.1,0.2-0.1,0.6,0,0.6c0.6,0.5,1.2,1,1.8,1.2
					c1,0.4,2.2-0.1,2.8-1.1c0.6-1,0.3-2.3-0.5-3c-0.8-0.7-2.3-0.8-3.1-0.2c-0.2,0.1-0.4,0.5-0.3,0.7c0,0.2,0.4,0.3,0.7,0.4
					C366.3,364.4,366.5,364.3,366.9,364.3"/>
				<path class="st8" d="M261.6,406.7c-0.9-1.9-1.8-3.5-2.7-5.3c0.4-0.8,1.2-1,2-1.2c3.5-1,6.9-2,10.4-2.8c10-2.3,20.1-4,30.2-5.5
					c7.8-1.1,15.5-2.3,23.1-4.3c1.1-0.3,1.9-0.2,2.6,0.8c0.9,1.4,2,2.7,3.1,4.3C307.2,397.5,284.4,402.1,261.6,406.7"/>
				<path class="st8" d="M397.8,361.6c-1.7,0.5-3.1,1-4.5,1.5c-0.4,0.1-0.8,0.4-1.2,0.6c-0.1,0.1-0.2,0.5-0.1,0.7
					c0.1,0.2,0.4,0.3,0.6,0.3c0.3,0,0.6-0.1,0.9-0.2c1.6-0.5,3.2-0.9,4.7-1.4c0.8-0.3,1.5-0.2,2.2,0.4c1.5,1.2,3.1,2.3,4.8,3.6
					c-0.4,0.3-0.7,0.5-1,0.6c-1.3,0.6-2.6,1.1-3.8,1.7c-0.5,0.2-0.9,0.6-1.3,0.8c0.4,0.8,0.8,0.5,1.2,0.4c1.7-0.6,3.4-1.2,5.1-1.9
					c0.9-0.4,1.5-0.3,2.3,0.3c2.3,1.9,4.7,3.8,7,5.6c0.3,0.2,0.6,0.4,1.2,0.8c-0.7,0.2-1,0.4-1.4,0.5c-2.9,0.6-5.9,1.2-8.8,1.8
					c-0.9,0.2-1.5,0-2.1-0.6c-6.2-6-12.5-12.1-18.8-18.1c-0.3-0.3-0.5-0.6-0.8-0.8c0.1-0.2,0.1-0.3,0.2-0.3c2-0.4,4-0.8,6-1.1
					c0.4-0.1,0.9,0,1.1,0.2C393.4,358.3,395.5,359.9,397.8,361.6"/>
				<path class="st8" d="M414.8,364c-2.1-0.4-3.5-2.4-5.6-3.8c1.3-0.5,2.2-1.1,3.2-1.3c0.6-0.1,1.4,0.2,2,0.5
					c3.5,1.5,6.9,3.1,10.3,4.7c4.2,1.9,8.4,3.8,12.7,5.8c0.4,0.2,0.9,0.4,1.5,0.8c-0.5,0.2-0.8,0.3-1.1,0.4
					c-3.7,0.8-7.4,1.5-11.1,2.3c-0.9,0.2-1.5,0-2.2-0.6c-2.7-2.4-5.5-4.6-8.2-7C415.8,365.3,415.4,364.7,414.8,364"/>
				<path class="st8" d="M355,383.4c-1.6,0.2-3,0.5-4.4,0.7c-2.4,0.4-4.8,0.7-7.3,1.1c-0.9,0.2-1.6,0-2.1-0.9
					c-1.7-2.6-3.6-5-5.4-7.5c-0.2-0.3-0.4-0.7-0.7-1.1c1.1-0.2,2.1-0.4,3-0.6c2.9-0.5,5.8-1,8.7-1.5c1.1-0.2,1.8,0,2.4,0.9
					c1.7,2.6,3.4,5.1,5.1,7.6C354.6,382.4,354.7,382.8,355,383.4"/>
				<path class="st8" d="M370.8,379.8c1.6-0.5,2.9-0.9,4.3-1.2c1.6-0.4,1.9-0.9,1.2-2.4c-0.4-0.8-0.8-1.6-1.3-2.4
					c1.2-0.9,2.5-1.2,3.8-1.3c0.4,0,0.8,0.3,1.1,0.6c0.5,0.5,1,1.1,1.4,1.7c1.1,1.4,1.4,1.5,3,0.7c1.5-0.8,3.1-1.3,4.8-1.5
					c0.6-0.1,1.1,0,1.4,0.6c1.1,1.7,2.2,3.4,3.3,5.3c-0.6,0.2-1.1,0.3-1.5,0.4c-5.6,1.1-11.2,2.2-16.7,3.4c-1.2,0.2-1.9,0-2.5-0.9
					C372.7,381.8,371.8,381,370.8,379.8"/>
				<path class="st8" d="M215.5,406.2c-0.3,0.1-0.5,0.2-0.8,0.2c-2.9,0.6-5.8,1.3-8.6,1.9c-0.6,0.2-1.1,0.1-1.6-0.4
					c-2.8-2.8-5.7-5.5-8.5-8.2c-0.1-0.1-0.2-0.3-0.4-0.6c0.3-0.1,0.5-0.2,0.8-0.3c3.2-0.5,6.4-1.1,9.6-1.6c0.6-0.1,1.1-0.1,1.6,0.4
					c2.6,2.7,5.1,5.3,7.7,8C215.4,405.8,215.4,405.9,215.5,406.2"/>
				<path class="st8" d="M231,393.1c2-0.3,3.8-0.7,5.6-1c1.7-0.3,3.4-0.6,5.2-0.9c0.4-0.1,1.1,0,1.4,0.2c2.7,2.4,5.3,5,8.1,7.6
					c-0.4,0.2-0.6,0.3-0.8,0.4c-3.6,0.7-7.2,1.3-10.7,2c-0.7,0.1-1.1,0-1.6-0.5c-2.2-2.4-4.5-4.8-6.7-7.2
					C231.3,393.6,231.2,393.5,231,393.1"/>
				<path class="st8" d="M264.7,397c-1.3,0.2-2.4,0.4-3.5,0.6c-2.4,0.4-4.7,0.8-7.1,1.2c-0.7,0.1-1.2,0-1.8-0.5
					c-2.4-2.3-4.8-4.5-7.2-6.8c-0.2-0.2-0.3-0.4-0.5-0.7c0.5-0.1,0.9-0.3,1.2-0.3c3.3-0.6,6.7-1.1,10-1.7c0.9-0.2,1.6,0,2.2,0.7
					c1.9,2.2,3.9,4.3,5.8,6.4C264.3,396.2,264.4,396.5,264.7,397"/>
				<path class="st8" d="M284.1,384.1c3.4-0.6,6.6-1,9.7-1.7c1.7-0.4,2.8,0,3.9,1.3c1.5,1.8,3.1,3.5,4.7,5.2
					c0.3,0.3,0.6,0.7,0.9,1.2c-0.5,0.1-0.9,0.3-1.3,0.3c-3.5,0.5-7.1,1-10.6,1.6c-1,0.2-1.5,0-2.1-0.9c-1.4-2.1-2.9-4-4.4-6
					C284.6,384.9,284.4,384.6,284.1,384.1"/>
				<path class="st8" d="M340.2,385.4c-0.2,0.1-0.4,0.2-0.7,0.2c-3,0.4-5.9,0.8-8.9,1.3c-0.6,0.1-1,0-1.4-0.5
					c-2-2.8-4.1-5.5-6.2-8.2c-0.1-0.1-0.1-0.2-0.1-0.4c0.3-0.1,0.6-0.3,0.9-0.3c2.9-0.5,5.8-1,8.7-1.5c0.6-0.1,1.1-0.1,1.4,0.5
					c2.1,2.9,4.1,5.8,6.2,8.6C340.1,385.1,340.1,385.2,340.2,385.4"/>
				<path class="st8" d="M277.2,394.6c-2,0.4-4.1,0.9-6.1,1.3c-1.3,0.3-2.6,0.4-3.8,0.7c-0.6,0.1-1.1,0-1.6-0.5
					c-2.1-2.4-4.2-4.8-6.3-7.2c-0.1-0.1-0.1-0.2-0.1-0.4c0.2-0.1,0.4-0.2,0.6-0.3c3.1-0.5,6.3-1,9.4-1.6c0.8-0.2,1.4,0,2,0.7
					c2,2.3,4,4.7,6.1,7C277.3,394.4,277.3,394.5,277.2,394.6"/>
				<path class="st8" d="M298.1,381.9c0.1-0.1,0.3-0.2,0.5-0.2c3.4-0.6,6.9-1.1,10.3-1.7c0.6-0.1,1,0,1.3,0.5
					c1.8,2.4,3.7,4.8,5.5,7.2c0.1,0.1,0,0.2,0.1,0.4c-0.3,0.1-0.6,0.2-0.9,0.3c-2.9,0.5-5.9,1-8.8,1.5c-0.5,0.1-1,0.1-1.3-0.4
					c-2.2-2.5-4.4-4.9-6.6-7.3C298.1,382.1,298.1,382,298.1,381.9"/>
				<path class="st8" d="M259,407.2c-4.1,0.8-8,1.6-11.9,2.4c-0.5,0.1-1,0-1.3-0.4c-1.8-2-3.5-3.9-5.3-5.9c-0.1-0.1-0.1-0.3-0.2-0.5
					c1.5-0.3,2.9-0.6,4.3-0.8c2.3-0.4,4.6-0.8,6.9-1.3c0.9-0.2,1.5,0,2.1,0.6c1.6,1.7,3.2,3.3,4.8,4.9
					C258.5,406.6,258.6,406.8,259,407.2"/>
				<path class="st8" d="M347.3,372c-0.4,0.1-0.6,0.2-0.7,0.2c-3.7,0.6-7.5,1.2-11.2,1.8c-0.9,0.2-1.5,0-2-0.8
					c-1.2-1.6-2.5-3.1-3.7-4.7c-0.2-0.2-0.3-0.5-0.5-0.8c0.4-0.1,0.6-0.3,0.9-0.3c3.5-0.6,7-1.2,10.4-1.9c0.8-0.2,1.4-0.1,2,0.6
					c1.4,1.6,2.8,3.2,4.2,4.9C346.8,371.3,347,371.6,347.3,372"/>
				<path class="st8" d="M236.9,401.9c-0.6,0.1-1,0.3-1.5,0.4c-2.2,0.4-4.4,0.8-6.6,1.3c-0.6,0.1-1,0.1-1.5-0.3
					c-2.6-2.5-5.2-5.1-7.8-7.6c-0.1-0.1-0.1-0.2-0.2-0.4c0.3-0.1,0.6-0.2,0.9-0.3c2.6-0.5,5.2-0.9,7.8-1.4c0.7-0.1,1.2-0.1,1.8,0.5
					c2.2,2.4,4.5,4.8,6.7,7.2C236.6,401.4,236.7,401.6,236.9,401.9"/>
				<path class="st8" d="M185.5,400.7c1.8-0.3,3.6-0.5,5.4-0.9c1.9-0.5,3.3,0,4.7,1.4c2.2,2.3,4.5,4.4,6.8,6.5
					c0.3,0.3,0.6,0.7,1.1,1.3c-2.3,0.5-4.4,1-6.5,1.5c-0.3,0.1-0.7-0.1-0.9-0.3c-3.5-3-7-6-10.4-9
					C185.5,401.1,185.5,401,185.5,400.7"/>
				<path class="st8" d="M272.5,386.1c1.6-0.3,3.1-0.5,4.6-0.8c1.4-0.2,2.9-0.5,4.3-0.7c0.6-0.1,1.1-0.1,1.5,0.4
					c1.8,2.4,3.7,4.8,5.6,7.4c-0.5,0.2-0.8,0.3-1.1,0.3c-2.4,0.5-4.8,0.9-7.2,1.4c-0.6,0.1-1.1,0.1-1.6-0.4c-1.9-2.4-3.9-4.7-5.8-7
					C272.6,386.5,272.6,386.4,272.5,386.1"/>
				<path class="st8" d="M208.9,396.9c1.8-0.3,3.5-0.7,5.2-0.9c3.7-0.5,2.5-1,5.3,1.7c1.8,1.7,3.5,3.4,5.3,5.1
					c0.4,0.3,0.7,0.7,1.1,1.2c-0.3,0.2-0.6,0.3-0.8,0.4c-2.2,0.5-4.5,0.9-6.7,1.4c-0.6,0.1-1,0-1.5-0.4c-2.5-2.6-5-5.2-7.5-7.8
					C209.2,397.4,209.1,397.2,208.9,396.9"/>
				<path class="st8" d="M206.5,409.8c0.4-0.1,0.7-0.3,1-0.3c2.7-0.6,5.4-1.1,8-1.8c0.9-0.2,1.5-0.1,2.1,0.6
					c1.5,1.7,3.1,3.4,4.6,5.1c0.2,0.3,0.4,0.5,0.7,1c-0.9,0.2-1.6,0.4-2.3,0.5c-2.4,0.5-4.9,1-7.3,1.5c-0.6,0.1-1,0-1.5-0.4
					c-1.7-1.9-3.4-3.8-5.1-5.7C206.7,410.2,206.6,410,206.5,409.8"/>
				<path class="st8" d="M327,385.8c-1.1,0.2-2.1,0.3-3,0.5c-1.9,0.4-3.7,0.8-5.5,1.3c-0.7,0.2-1.1,0-1.5-0.6
					c-1.6-2.3-3.4-4.5-5-6.7c-0.1-0.2-0.3-0.4-0.5-0.8c1.1-0.2,2.1-0.4,3-0.5c1.8-0.3,3.5-0.6,5.3-0.9c0.5-0.1,1-0.2,1.4,0.3
					C323.3,380.7,325.2,383.2,327,385.8"/>
				<path class="st8" d="M332.2,374.6c-1,0.2-2,0.3-2.9,0.5c-2.2,0.4-4.4,0.7-6.7,1.1c-0.9,0.2-1.5,0-2.1-0.7
					c-1.6-1.8-3.2-3.5-4.9-5.3c0,0,0.3-0.2,0.6-0.2c3.3-0.6,6.7-1.2,10-1.8c0.6-0.1,1.2-0.2,1.6,0.4c1.4,1.8,2.8,3.7,4.2,5.5
					C332.2,374.1,332.2,374.3,332.2,374.6"/>
				<path class="st8" d="M237.5,384.2c1.9-0.4,3.8-0.7,5.7-1.1c2-0.4,4-0.7,6-1.1c0.8-0.2,1.4-0.1,2,0.6c1.2,1.3,2.6,2.5,3.8,3.8
					c0.2,0.2,0.4,0.5,0.7,0.9c-0.4,0.1-0.6,0.2-0.8,0.3c-3.5,0.6-7.1,1.2-10.6,1.8c-1,0.2-1.7-0.1-2.4-0.7c-1.5-1.4-3-2.7-4.5-4.1
					C237.5,384.4,237.5,384.3,237.5,384.2"/>
				<path class="st8" d="M308.6,378.5c-2.7,0.5-5.1,0.9-7.5,1.3c-1.2,0.2-2.5,0.4-3.7,0.6c-0.6,0.1-1.1,0.1-1.5-0.4
					c-1.6-1.6-3.3-3.2-4.9-4.8c-0.1-0.1-0.1-0.3-0.3-0.5c1.3-0.2,2.5-0.5,3.7-0.7c2.3-0.4,4.6-0.8,6.9-1.3c0.9-0.2,1.5,0,2.1,0.7
					C305,374.9,306.7,376.5,308.6,378.5"/>
				<path class="st8" d="M294.6,380.8c-3.9,0.7-7.4,1.3-11,1.9c-0.3,0-0.8,0-0.9-0.2c-1.6-1.7-3.2-3.5-4.9-5.5
					c1.4-0.3,2.6-0.5,3.8-0.7c2-0.4,4-0.7,6-1.1c0.9-0.2,1.5-0.1,2.1,0.6c1.3,1.4,2.8,2.7,4.1,4.1
					C294,380.1,294.2,380.3,294.6,380.8"/>
				<path class="st8" d="M244.8,410.1c-2.6,0.5-4.7,1-6.9,1.4c-3,0.6-2.1,0.8-4.1-1.4c-1.2-1.3-2.4-2.6-3.6-4
					c-0.3-0.3-0.5-0.7-1-1.2c1.5-0.3,2.7-0.6,4-0.8c1.5-0.3,2.9-0.6,4.4-0.8c0.4-0.1,0.9,0,1.2,0.3
					C240.7,405.7,242.6,407.8,244.8,410.1"/>
				<path class="st8" d="M269.1,385.1c-1.7,0.3-3.3,0.6-4.8,0.9c-1.7,0.3-3.4,0.6-5.2,0.9c-0.9,0.2-1.6,0-2.3-0.7
					c-1.4-1.5-2.9-2.9-4.4-4.3c0,0,0-0.1-0.1-0.3c0.3-0.1,0.6-0.3,0.9-0.3c3-0.5,6-1,9-1.6c0.8-0.2,1.4,0,2,0.6
					c1.4,1.4,2.8,2.7,4.2,4C268.6,384.5,268.8,384.8,269.1,385.1"/>
				<path class="st8" d="M233.5,412.4c-2.8,0.6-5.4,1.1-8.1,1.6c-0.3,0.1-0.8-0.1-1-0.3c-1.8-2-3.6-4.1-5.4-6.2
					c-0.1-0.1,0-0.2,0-0.4c1.8-0.4,3.7-0.8,5.5-1.2c3.6-0.6,2.4-1.1,5,1.6c1.4,1.4,2.7,3,4,4.4C233.4,412,233.4,412.1,233.5,412.4"
					/>
				<path class="st8" d="M224.4,386.6c0.8-0.2,1.3-0.3,1.9-0.4c2.8-0.5,5.6-1,8.4-1.5c0.4-0.1,1.1,0,1.4,0.2
					c1.7,1.5,3.3,3.1,5.2,4.8c-0.7,0.2-1.1,0.3-1.6,0.4c-2.9,0.5-5.9,1-8.8,1.5c-0.9,0.2-1.5,0-2.1-0.7
					C227.4,389.6,225.9,388.2,224.4,386.6"/>
				<path class="st8" d="M188.5,393c3.8-0.7,7.5-1.4,11.3-2c0.3-0.1,0.7,0,1,0.2c1.6,1.5,3.2,3,4.9,4.6c-0.5,0.2-0.7,0.3-1,0.4
					c-3.1,0.5-6.3,1-9.4,1.6c-0.9,0.2-1.6,0-2.3-0.6c-1.5-1.3-3-2.5-4.6-3.8C188.4,393.2,188.4,393.1,188.5,393"/>
				<path class="st8" d="M281.3,383c-1.8,0.3-3.2,0.6-4.6,0.8c-1.6,0.3-3.2,0.5-4.9,0.8c-0.5,0.1-1,0.1-1.4-0.3
					c-1.7-1.6-3.3-3.2-5-4.7c-0.1-0.1-0.1-0.2-0.1-0.4c1-0.2,1.9-0.4,2.9-0.6c2.2-0.4,4.4-0.8,6.6-1.2c0.9-0.2,1.6,0,2.2,0.8
					C278.3,379.7,279.7,381.2,281.3,383"/>
				<path class="st8" d="M304.6,372.1c2.8-0.5,5.5-1,8.3-1.5c0.3,0,0.7,0.1,0.9,0.3c1.8,1.8,3.7,3.5,5.5,5.3c0.1,0.1,0,0.2,0.1,0.4
					c-1.7,0.3-3.4,0.6-5.1,0.9c-1.1,0.2-2.2,0.4-3.3,0.5c-0.4,0-0.9-0.1-1.2-0.3c-1.7-1.7-3.4-3.4-5-5.1
					C304.7,372.5,304.7,372.3,304.6,372.1"/>
				<path class="st8" d="M211.7,388.8c3.1-0.6,5.9-0.9,8.6-1.6c1.8-0.5,3,0,4.1,1.4c1,1.2,2.1,2.2,3.3,3.4c-0.6,0.2-0.9,0.3-1.2,0.3
					c-2.6,0.5-5.2,0.9-7.8,1.4c-0.8,0.1-1.4,0-2-0.6C215.2,391.8,213.6,390.5,211.7,388.8"/>
				<path class="st8" d="M423.5,374c-1.8,0.4-3.6,0.7-5.3,1c-0.4,0.1-0.8-0.1-1.2-0.3c-0.2-0.1-0.3-0.2-0.5-0.4
					c-2.7-2.2-5.4-4.5-8.2-6.8c1.6-0.8,3.2-1.4,4.7-1.9c0.3-0.1,0.7,0,1,0.2c3.2,2.6,6.3,5.2,9.5,7.8
					C423.5,373.6,423.5,373.7,423.5,374"/>
				<path class="st8" d="M210.8,417c-1.7,0.3-3.4,0.7-5.1,1c-0.3,0.1-0.7-0.1-0.9-0.3c-2.2-1.9-4.4-3.8-6.6-5.7
					c-0.1-0.1,0-0.2-0.1-0.5c2-0.4,4-0.9,6-1.3c0.3-0.1,0.7,0.1,0.9,0.3c1.9,2,3.8,4,5.7,6C210.8,416.6,210.8,416.7,210.8,417"/>
				<path class="st8" d="M202.1,390.6c2.7-0.5,5-0.9,7.4-1.3c0.3-0.1,0.8,0.1,1.1,0.3c1.6,1.3,3.2,2.7,4.7,4.1
					c0.1,0.1,0.1,0.2,0.2,0.5c-0.8,0.2-1.5,0.3-2.2,0.4c-1.6,0.3-3.2,0.6-4.9,0.8c-0.4,0.1-1.1,0-1.4-0.3
					C205.5,393.8,203.9,392.3,202.1,390.6"/>
				<path class="st8" d="M192.1,398.2c-1,0.2-1.5,0.3-2.1,0.4c-1.7,0.3-3.4,0.5-5,0.9c-0.9,0.2-1.5,0-2.2-0.6
					c-1.4-1.3-2.9-2.5-4.6-4c2-0.4,3.7-0.7,5.4-1c2.6-0.5,2.6-0.5,4.7,1.2C189.5,396.1,190.7,397,192.1,398.2"/>
				<path class="st8" d="M406,359.6c-2.2,0.6-4,1-5.8,1.5c-0.3,0.1-0.7,0-1-0.2c-2.1-1.4-4.1-2.8-6.1-4.3c-0.1,0-0.1-0.2-0.2-0.4
					c1.6-0.3,3.1-0.6,4.6-0.9c0.6-0.1,1.2-0.3,1.8-0.3c0.4,0,0.8,0,1.1,0.2C402.2,356.5,404,357.9,406,359.6"/>
				<path class="st8" d="M330.6,388.4c1.7-0.2,3.1-0.4,4.5-0.6c1.7-0.2,3.5-0.5,5.2-0.8c0.8-0.1,1.3,0,1.8,0.7
					c0.5,0.7,1,1.5,1.6,2.4c-3.7,0.8-7.2,1.5-10.8,2.2C332.2,391,331.5,389.9,330.6,388.4"/>
				<path class="st8" d="M355.9,384.8c0.5,0.9,0.9,1.6,1.4,2.4c-0.3,0.1-0.6,0.3-0.8,0.4c-3.4,0.7-6.7,1.3-10.1,2.1
					c-1,0.2-1.6,0.1-2.1-0.9c-0.3-0.6-0.8-1.2-1.3-2C347.4,386,351.6,385.4,355.9,384.8"/>
				<path class="st8" d="M412.4,364.5c-1.9,0.7-3.4,1.3-4.9,1.8c-0.3,0.1-0.8,0.1-1.1-0.1c-1.7-1.2-3.3-2.4-5-3.8
					c0.4-0.2,0.6-0.3,0.8-0.4c1.4-0.4,2.8-0.8,4.2-1.1c0.4-0.1,1-0.2,1.3,0C409.2,362,410.7,363.2,412.4,364.5"/>
				<path class="st8" d="M402.2,354.4c0.5,0,1-0.1,1.4,0.1c2.6,1.1,5.1,2.3,7.6,3.5c0.1,0,0.1,0.2,0.2,0.4c-1.1,0.4-2.3,0.6-3.4,0.7
					c-0.2,0-0.5-0.1-0.7-0.3c-1.7-1.3-3.5-2.6-5.2-4C402.1,354.7,402.2,354.5,402.2,354.4"/>
				<path class="st8" d="M254.5,400.3c1.3-0.2,2.4-0.4,3.6-0.6c-0.2,0.4-0.3,0.6-0.5,0.8c-0.5,0.7-0.4,1.3,0,1.9
					c0.4,0.7,0.8,1.4,1.3,2.1C257.5,403.1,256.1,401.8,254.5,400.3"/>
				<path class="st1" d="M404.6,291c-0.1,5.1-3.9,9.1-8.6,9c-4.7-0.1-8.6-4-8.5-8.5c0.1-4.6,4.3-8.8,8.9-8.8
					C400.9,282.8,404.6,286.4,404.6,291 M396.1,298.1c0.7-0.2,1.5-0.2,2.2-0.5c2.7-1,4.4-4,4.2-7.1c-0.2-4.4-5.7-7.3-9.2-4.5
					c-0.6,0.5-1.2,0.9-1.8,1.3c-1,0.7-1.5,1.7-1.8,2.8C388.7,294.2,391.8,298,396.1,298.1"/>
				<path class="st1" d="M386.2,366.4c0.4,0.2,1.1,0.4,1.6,0.8c0.5,0.4,0.9,1,1.3,1.6c0.8,1.4,0.5,2.2-1.1,2.7
					c-1.3,0.4-2.6,0.7-3.9,1.1c-0.7,0.2-1.3,0-1.7-0.6c-0.5-0.8-1-1.6-1.5-2.4c-0.3-0.5-0.3-0.9,0.2-1.3c0.5-0.4,1-1.1,1.6-1.3
					C383.7,366.7,384.8,366.6,386.2,366.4 M388.1,370.1c-0.4-1-0.8-2-1.7-2.1c-0.9-0.1-1.9,0.1-2.8,0.3c-0.5,0.1-0.9,0.7-1.3,1.1
					c0.3,0.5,0.5,1,0.8,1.3c0.2,0.2,0.7,0.5,1,0.4C385.4,370.8,386.6,370.5,388.1,370.1"/>
				<path class="st1" d="M362.4,373.6c0.8,1.1,1.5,2,2.1,2.9c1.2-0.3,2.3-0.6,3.7-1c-0.5-0.8-0.8-1.6-1.3-2.3
					c-0.5-0.8-1.3-1-2.2-0.8c-0.7,0.2-1.4,0.6-2.3,0.3c0.2-0.4,0.3-0.7,0.5-0.8c2-1.6,4.1-1.2,5.5,1c0.4,0.6,0.8,1.3,1.1,2
					c0.4,1,0.1,1.8-0.9,2c-1.4,0.3-2.9,0.4-4.3,0.4C363,377.2,361.8,375.3,362.4,373.6"/>
				<path class="st1" d="M355.5,367.7c0-0.6-0.1-1,0.1-1.3c0.6-0.9,1.5-1.4,2.6-1.2c1.1,0.1,1.9,0.8,2.3,1.9c0.4,1,0.3,2-0.5,2.8
					c-0.3,0.3-0.8,0.5-1.2,0.5c-0.9,0.1-1.6-0.4-2.2-1.1c-0.4-0.4-0.4-0.4-0.2-1.5c0.5,0.3,1,0.7,1.5,0.9c0.3,0.1,0.8,0.2,0.9,0.1
					c0.2-0.2,0.4-0.7,0.3-1c-0.1-0.9-1-1.4-1.9-1.1C356.8,366.9,356.4,367.3,355.5,367.7"/>
				<path class="st1" d="M376.2,360.9c0.6-1.2,1.6-0.9,2.3-0.9c1.3,0.1,2.2,1.1,2.3,2.4c0.1,1.2-0.7,2.4-1.9,2.8
					c-1.1,0.4-2.3-0.1-2.8-1.1c-0.1-0.3-0.1-0.7-0.1-1c0.1-0.1,0.2-0.1,0.3-0.2c0.3,0.2,0.7,0.5,1,0.7c0.5,0.4,1.1,0.5,1.5,0
					c0.3-0.3,0.6-0.9,0.5-1.3c-0.1-0.4-0.6-0.8-1-1C377.7,361.2,377,361.1,376.2,360.9"/>
				<path class="st1" d="M366.9,364.3c-0.4,0.1-0.6,0.1-0.7,0.1c-0.3-0.1-0.6-0.2-0.7-0.4c-0.1-0.2,0.1-0.6,0.3-0.7
					c0.8-0.6,2.3-0.5,3.1,0.2c0.8,0.7,1.1,2,0.5,3c-0.6,1-1.8,1.5-2.8,1.1c-0.7-0.3-1.2-0.8-1.8-1.2c-0.1-0.1-0.1-0.5,0-0.6
					c0-0.1,0.4-0.1,0.5-0.1c0.3,0.1,0.5,0.3,0.8,0.4c0.3,0.1,0.7,0.3,1,0.3c0.6,0,1-0.3,1.2-0.9c0.1-0.5-0.3-1-1-1.1
					C367.1,364.2,366.9,364.3,366.9,364.3"/>
				<path class="st6" d="M396.1,298.1c-4.3-0.1-7.3-3.9-6.4-8c0.3-1.2,0.8-2.1,1.8-2.8c0.6-0.4,1.3-0.8,1.8-1.3
					c3.5-2.8,8.9,0.1,9.2,4.5c0.1,3.1-1.6,6.1-4.2,7.1C397.6,297.8,396.8,297.9,396.1,298.1 M395.2,294.6c2.2-0.1,3.6-0.9,4.5-2.7
					c0.5-1.1,0.3-2.4-0.5-3c-0.3-0.2-0.8-0.3-1-0.2c-0.4,0.2-0.3,0.6-0.1,1c0.6,1.3,0.3,2.4-1.1,3.1c-0.9,0.5-1.9,0.5-2.9,0
					c-1.1-0.5-1.4-1.3-0.8-2.4c0.2-0.3,0.5-0.6,0.6-0.9c0.1-0.3,0-0.6,0-0.9c-0.3,0.1-0.7,0-0.9,0.2c-2.1,1.6-1.8,4.3,0.7,5.4
					C394.2,294.4,394.8,294.5,395.2,294.6 M396,288.7C396,288.7,396,288.7,396,288.7c0-0.3,0.1-0.6,0-0.9c-0.1-0.3-0.4-0.6-0.6-0.6
					c-0.1,0-0.6,0.3-0.6,0.5c-0.1,0.6-0.1,1.2,0,1.7c0,0.2,0.5,0.6,0.7,0.6c0.2,0,0.4-0.4,0.6-0.7C396.1,289.1,396,288.9,396,288.7"
					/>
				<path class="st8" d="M388.1,370.1c-1.4,0.4-2.7,0.8-4,1c-0.3,0.1-0.7-0.2-1-0.4c-0.3-0.3-0.5-0.7-0.8-1.3
					c0.5-0.4,0.8-0.9,1.3-1.1c0.9-0.3,1.9-0.5,2.8-0.3C387.3,368.1,387.6,369.1,388.1,370.1"/>
				<path class="st1" d="M395.2,294.6c-0.4-0.1-1-0.2-1.6-0.4c-2.5-1-2.8-3.7-0.7-5.4c0.2-0.2,0.6-0.1,0.9-0.2c0,0.3,0.1,0.6,0,0.9
					c-0.1,0.3-0.4,0.6-0.6,0.9c-0.6,1.1-0.3,1.9,0.8,2.4c1,0.4,1.9,0.4,2.9,0c1.3-0.6,1.7-1.7,1.1-3.1c-0.2-0.4-0.4-0.8,0.1-1
					c0.3-0.1,0.8,0,1,0.2c0.8,0.7,1,2,0.5,3C398.8,293.6,397.4,294.5,395.2,294.6"/>
				<path class="st1" d="M396,288.7c0,0.2,0.1,0.4,0,0.6c-0.1,0.3-0.4,0.7-0.6,0.7c-0.2,0-0.7-0.3-0.7-0.6c-0.1-0.6-0.1-1.2,0-1.7
					c0-0.2,0.5-0.5,0.6-0.5c0.3,0.1,0.5,0.4,0.6,0.6C396.1,288,396,288.4,396,288.7C396,288.7,396,288.7,396,288.7"/>
			</g>
		</g>
	</g>
</g>
<g id="P1">
	<text transform="matrix(0.9924 -0.1232 0.1232 0.9924 174.4536 244.8063)" class="st9 st10 st11">quit</text>
</g>
<g id="P2">
	<text transform="matrix(0.9924 -0.1232 0.1232 0.9924 176.1897 244.5903)" class="st9 st10 st11">quit</text>
</g>
<g id="P3">
	<text transform="matrix(0.9924 -0.1232 0.1232 0.9924 176.1897 244.5903)" class="st9 st10 st11">quit</text>
</g>
<g id="P4">
	<text transform="matrix(0.9924 -0.1232 0.1232 0.9924 176.1897 244.5903)" class="st9 st10 st11">quit</text>
</g>
<g id="P5">
	<text transform="matrix(0.9924 -0.1232 0.1232 0.9924 176.1897 244.5903)" class="st9 st10 st11">quit</text>
</g>
<g id="P6">
	<text transform="matrix(0.9924 -0.1232 0.1232 0.9924 176.1897 244.5903)" class="st9 st10 st11">quit</text>
</g>
<g id="P7">
	<text transform="matrix(0.9924 -0.1232 0.1232 0.9924 176.1897 244.5903)" class="st9 st10 st11">quit</text>
</g>
<g id="P8">
	<text transform="matrix(0.9924 -0.1232 0.1232 0.9924 176.1897 244.5903)" class="st9 st10 st11">quit</text>
</g>
<g id="P9">
	<text transform="matrix(0.9924 -0.1232 0.1232 0.9924 176.1897 244.5903)" class="st9 st10 st11">quit</text>
</g>
<g id="P10">
	<text transform="matrix(0.9924 -0.1232 0.1232 0.9924 176.1897 244.5903)" class="st9 st10 st11">quit</text>
</g>
<g id="P11">
	<text transform="matrix(0.9924 -0.1232 0.1232 0.9924 176.1897 244.5903)" class="st9 st10 st11">quit</text>
</g>
<g id="P12">
	<text transform="matrix(0.9924 -0.1232 0.1232 0.9924 176.1897 244.5903)" class="st9 st10 st11">quit</text>
</g>
</svg>
