<?xml version="1.0" encoding="utf-8"?>
<!-- Generator: Adobe Illustrator 24.1.2, SVG Export Plug-In . SVG Version: 6.00 Build 0)  -->
<svg version="1.1" xmlns="http://www.w3.org/2000/svg" xmlns:xlink="http://www.w3.org/1999/xlink" x="0px" y="0px"
	 viewBox="0 0 690 500" style="enable-background:new 0 0 690 500;" xml:space="preserve">
<style type="text/css">
	.st0{fill:#E9E200;stroke:#F59F04;stroke-miterlimit:10;}
	.st1{clip-path:url(#SVGID_2_);}
	.st2{clip-path:url(#SVGID_4_);fill:#755B4C;}
	.st3{clip-path:url(#SVGID_4_);fill:#1D1D1B;}
	.st4{clip-path:url(#SVGID_4_);fill:#AF9784;}
	.st5{clip-path:url(#SVGID_6_);}
	.st6{clip-path:url(#SVGID_8_);fill:#902996;}
	.st7{clip-path:url(#SVGID_8_);}
	.st8{clip-path:url(#SVGID_8_);fill:#00FFFF;}
	.st9{clip-path:url(#SVGID_8_);fill:#FFFD15;}
	.st10{clip-path:url(#SVGID_8_);fill:#3EAAF5;}
	.st11{clip-path:url(#SVGID_8_);fill:#FFFFFF;}
	.st12{clip-path:url(#SVGID_10_);}
	.st13{clip-path:url(#SVGID_12_);fill:#902996;}
	.st14{clip-path:url(#SVGID_12_);}
	.st15{clip-path:url(#SVGID_12_);fill:#00FFFF;}
	.st16{clip-path:url(#SVGID_12_);fill:#FFFD15;}
	.st17{clip-path:url(#SVGID_12_);fill:#3EAAF5;}
	.st18{clip-path:url(#SVGID_12_);fill:#FFFFFF;}
	.st19{clip-path:url(#SVGID_14_);}
	.st20{clip-path:url(#SVGID_16_);fill:#902996;}
	.st21{clip-path:url(#SVGID_16_);}
	.st22{clip-path:url(#SVGID_16_);fill:#00FFFF;}
	.st23{clip-path:url(#SVGID_16_);fill:#FFFD15;}
	.st24{clip-path:url(#SVGID_16_);fill:#3EAAF5;}
	.st25{clip-path:url(#SVGID_16_);fill:#FFFFFF;}
	.st26{clip-path:url(#SVGID_18_);}
	.st27{clip-path:url(#SVGID_20_);fill:#755B4C;}
	.st28{clip-path:url(#SVGID_20_);fill:#1D1D1B;}
	.st29{clip-path:url(#SVGID_20_);fill:#AF9784;}
	.hide { opacity: 0 }
	#QUEST { transition: all .3s}
</style>
<g id="QUEST">
	<g>
		<path class="st0" d="M390.2,119.2c0,4.8-1,8.8-2.9,12c-1.9,3.2-4.1,5.9-6.4,8.3c-1.5,1.5-3,3-4.5,4.5c-1.4,1.4-2.7,3-3.9,4.6
			c-1.2,1.6-2.2,3.4-3,5.3c-0.8,1.9-1.4,4.1-1.7,6.5h-23c0.1-5.9,1-10.7,2.8-14.2c1.8-3.5,4-6.7,6.7-9.6c1.2-1.3,2.5-2.6,3.8-3.9
			c1.3-1.3,2.6-2.6,3.7-3.9c1.1-1.3,2-2.7,2.8-4.2c0.7-1.5,1.1-3,1.1-4.7c0-1.8-0.9-3.7-2.6-5.7c-1.7-1.9-4.1-2.9-7.2-2.9
			c-2,0-3.8,0.5-5.2,1.4c-1.4,0.9-2.6,2.1-3.6,3.5c-1,1.4-1.7,3.1-2.1,5c-0.5,1.9-0.7,3.8-0.8,5.6h-23.8c0.1-5.9,1.2-11.2,3.1-15.7
			c2-4.5,4.7-8.3,8.1-11.3c3.4-3,7.2-5.3,11.6-6.8c4.3-1.5,8.9-2.3,13.7-2.3c5.1,0,9.7,0.7,13.8,2.1c4.1,1.4,7.6,3.4,10.5,6
			c2.9,2.6,5.2,5.6,6.8,9.1C389.4,111.3,390.2,115.1,390.2,119.2z M343.1,180.6c0-2.5,0.4-4.5,1.3-6.2c0.9-1.7,2-3.1,3.3-4.1
			c1.3-1.1,2.8-1.9,4.4-2.4c1.6-0.5,3.1-0.8,4.5-0.8c3.9,0,7,1.3,9.3,4c2.3,2.7,3.5,5.8,3.5,9.4c0,3.8-1.3,6.9-3.8,9.4
			c-2.5,2.5-5.6,3.8-9.3,3.8c-3.7,0-6.8-1.2-9.4-3.7C344.3,187.5,343.1,184.3,343.1,180.6z"/>
	</g>
</g>
<g id="P1">
	<g>
		<g>
			<defs>
				<rect id="SVGID_1_" x="83.8" y="234.7" width="178.7" height="195.5"/>
			</defs>
			<clipPath id="SVGID_2_">
				<use xlink:href="#SVGID_1_"  style="overflow:visible;"/>
			</clipPath>
			<g class="st1">
				<defs>
					<rect id="SVGID_3_" x="83.8" y="234.7" width="178.7" height="195.5"/>
				</defs>
				<clipPath id="SVGID_4_">
					<use xlink:href="#SVGID_3_"  style="overflow:visible;"/>
				</clipPath>
				<path class="st2" d="M224.5,335.8c-0.7,4.8-0.8,9.7-0.4,14.5c0.2,2.2,0.5,4.5-0.1,6.7c-0.4,1.7-1.4,3.2-2.2,4.7
					c-6.2,10.2-11.7,21-14.3,32.6c-3.1-13.6-6.2-27.4-6.3-41.4c0-4.3,0.3-8.9,2.6-12.6c2.5-4,7-6.4,11.5-8c2-0.8,4.2-1.4,6.3-0.9
					c2.1,0.6,3.8,3,2.8,4.9"/>
				<path class="st3" d="M207.5,397.1l-0.6-2.7c-3-13.5-6.2-27.4-6.3-41.5c0-4.2,0.2-9,2.6-12.9c2.8-4.4,7.8-6.8,11.8-8.3
					c2.2-0.8,4.5-1.5,6.7-0.9c1.4,0.4,2.6,1.4,3.2,2.8c0.4,0.8,0.5,1.7,0.2,2.5c-0.7,4.7-0.8,9.4-0.4,14.2c0,0.3,0,0.5,0.1,0.8
					c0.2,2,0.4,4.1-0.1,6.1c-0.4,1.7-1.4,3.3-2.3,4.7l-0.1,0.1c-5.5,9.1-11.5,20.1-14.2,32.4L207.5,397.1z M219.8,331.9
					c-1.5,0-3,0.5-4.4,1c-3.9,1.5-8.6,3.7-11.2,7.8c-2.2,3.6-2.5,8-2.5,12.2c0.1,13.1,2.9,26.1,5.7,38.7c3-11.4,8.6-21.6,13.8-30.2
					l0.1-0.1c0.8-1.4,1.7-2.8,2.1-4.4c0.5-1.8,0.3-3.8,0.1-5.7c0-0.3,0-0.5-0.1-0.8c-0.4-4.7-0.3-9.5,0.4-14.2l-0.1,0
					c0-0.1,0.1-0.2,0.1-0.3c0-0.1,0-0.1,0-0.2l0,0c0.1-0.6,0-1.2-0.2-1.6c-0.4-1-1.4-1.8-2.4-2.1C220.8,332,220.3,331.9,219.8,331.9
					"/>
				<path class="st2" d="M137.6,335.9c2.1,4.6,6.9,7.4,9.5,11.8c2.5,4.2,2.7,9.4,2.9,14.3c0.2,7.5,0.4,15.1,0.6,22.6
					c0.1,3.6,0.3,7.2,0.3,10.8c0,2.4-1,5.4-0.4,7.7c9.2-1.1,18.1-1.7,27.4-0.7c9.7,1,19.2,2.3,28.9,2.7c0.7,0,1.5,0,2.1-0.4
					c0.7-0.6,0.8-1.6,0.8-2.6c0.2-7.7-0.2-15.6-0.4-23.4c-0.2-8.9-0.3-18,2.4-26.5c2.8-8.5,9.1-16.3,17.7-18.5
					c-24.7-6.5-50.9-2.5-76.2,0.9c-5.1,0.7-10.3,1.3-15.2,0c0.4,0.6,0.7,1.1,1.1,1.7"/>
				<path class="st3" d="M207.1,405.7c-0.2,0-0.4,0-0.5,0c-7.6-0.3-15.2-1.2-22.5-2c-2.1-0.2-4.3-0.5-6.4-0.7
					c-9.4-1-18.7-0.2-27.2,0.7l-0.5,0.1l-0.1-0.5c-0.4-1.5-0.2-3.3,0.1-5c0.1-1,0.3-1.9,0.3-2.8c0-2.4-0.1-4.8-0.2-7.2
					c0-1.2-0.1-2.4-0.1-3.6l-0.6-22.6c-0.1-4.6-0.3-9.8-2.8-14c-1.1-1.9-2.8-3.6-4.3-5.2c-2-2-4-4.1-5.2-6.7l0.9-0.4l-1.4-2.2
					l1.5,0.4c4.9,1.4,10.3,0.7,15,0c1.1-0.1,2.2-0.3,3.3-0.4c24.3-3.3,49.4-6.7,73.2-0.4l2.3,0.6l-2.3,0.6
					c-9.1,2.3-14.9,10.9-17.3,18.1c-2.8,8.5-2.6,17.5-2.4,26.3c0,2.4,0.1,4.8,0.2,7.1c0.2,5.4,0.3,10.9,0.2,16.3
					c0,0.8-0.1,2.2-1.1,3C208.5,405.6,207.7,405.7,207.1,405.7 M168.3,401.2c3.1,0,6.3,0.1,9.4,0.5c2.2,0.2,4.3,0.5,6.4,0.7
					c7.3,0.8,14.9,1.7,22.4,2c0.7,0,1.3,0,1.7-0.3c0.5-0.4,0.6-1.3,0.6-2.1c0.1-5.4,0-10.9-0.2-16.2c-0.1-2.3-0.1-4.7-0.2-7.1
					c-0.2-8.9-0.4-18,2.5-26.7c2.9-8.8,8.9-15.6,16-18.3c-22.9-5.5-47.2-2.2-70.6,1c-1.1,0.1-2.2,0.3-3.3,0.4
					c-4.4,0.6-9.2,1.2-14,0.3l0.3,0.4l-1,0.6c1.1,2,2.8,3.7,4.5,5.5c1.6,1.7,3.3,3.4,4.5,5.4c2.7,4.5,2.8,10.1,2.9,14.6l0.6,22.6
					c0,1.2,0.1,2.4,0.1,3.6c0.1,2.4,0.2,4.8,0.2,7.3c0,0.9-0.1,2-0.3,3c-0.2,1.4-0.4,2.8-0.2,4C156.4,401.8,162.3,401.2,168.3,401.2
					"/>
				<polygon class="st4" points="152.2,268.1 99.4,339.2 239.7,339.2 247.5,269.5 				"/>
				<path class="st3" d="M240.3,339.8H98.2l53.7-72.4l0.3,0l96,1.5L240.3,339.8z M100.6,338.6h138.5l7.7-68.5l-94.3-1.4L100.6,338.6
					z"/>
			</g>
		</g>
	</g>
	<g>
		<g>
			<defs>
				<rect id="SVGID_5_" x="120.9" y="202.6" width="104.6" height="94.8"/>
			</defs>
			<clipPath id="SVGID_6_">
				<use xlink:href="#SVGID_5_"  style="overflow:visible;"/>
			</clipPath>
			<g class="st5">
				<defs>
					<rect id="SVGID_7_" x="120.9" y="202.6" width="104.6" height="94.8"/>
				</defs>
				<clipPath id="SVGID_8_">
					<use xlink:href="#SVGID_7_"  style="overflow:visible;"/>
				</clipPath>
				<path class="st6" d="M165,281.4v-15.6h-3.8v15.6c-4.3,0.9-7.6,5-7.6,9.9h19C172.6,286.4,169.3,282.3,165,281.4"/>
				<path class="st7" d="M173,291.7h-19.9v-0.4c0-4.9,3.2-9.1,7.6-10.3v-15.7h4.7V281c4.4,1.1,7.6,5.4,7.6,10.3V291.7z M154,290.9
					h18.2c-0.2-4.4-3.2-8.2-7.3-9.1l-0.3-0.1v-15.6h-3v15.6l-0.3,0.1C157.2,282.7,154.2,286.5,154,290.9"/>
				<path class="st6" d="M185.2,281.4v-15.6h-3.8v15.6c-4.3,0.9-7.6,5-7.6,9.9h19C192.8,286.4,189.6,282.3,185.2,281.4"/>
				<path class="st7" d="M193.3,291.7h-19.9v-0.4c0-4.9,3.2-9.1,7.6-10.3v-15.7h4.7V281c4.4,1.1,7.6,5.4,7.6,10.3V291.7z
					 M174.3,290.9h18.2c-0.2-4.4-3.2-8.2-7.3-9.1l-0.3-0.1v-15.6h-3v15.6l-0.3,0.1C177.4,282.7,174.4,286.5,174.3,290.9"/>
				<path class="st6" d="M153.9,235.1c-12.5,0-22.7,10.5-22.7,23.3h2.3c0-11.6,9.1-21,20.3-21V235.1z"/>
				<path class="st7" d="M134,258.8h-3.2v-0.4c0-13.1,10.4-23.7,23.1-23.7h0.4v3.2h-0.4c-11,0-19.9,9.2-19.9,20.5V258.8z M131.7,258
					h1.5c0.2-11.5,9.2-20.7,20.3-21v-1.5C141.5,235.8,131.9,245.7,131.7,258"/>
				<path class="st8" d="M132.5,263.9c-3.3,0-6-2.7-6-6h12.1C138.5,261.2,135.8,263.9,132.5,263.9"/>
				<path class="st7" d="M132.4,264.3c-3.6,0-6.5-2.9-6.5-6.5v-0.4h12.9v0.4C138.9,261.4,136,264.3,132.4,264.3 M126.9,258.3
					c0.2,2.9,2.6,5.2,5.6,5.2c2.9,0,5.4-2.3,5.6-5.2H126.9z"/>
				<path class="st6" d="M192.5,235.1c12.5,0,22.7,10.5,22.7,23.3h-2.3c0-11.6-9.1-21-20.3-21V235.1z"/>
				<path class="st7" d="M215.6,258.8h-3.2v-0.4c0-11.3-8.9-20.5-19.9-20.5h-0.4v-3.2h0.4c12.7,0,23.1,10.7,23.1,23.7V258.8z
					 M213.2,258h1.5c-0.2-12.3-9.9-22.2-21.8-22.5v1.5C204,237.2,213,246.5,213.2,258"/>
				<path class="st8" d="M213.9,263.9c3.3,0,6-2.7,6-6h-12.1C207.9,261.2,210.6,263.9,213.9,263.9"/>
				<path class="st7" d="M213.9,264.3c-3.6,0-6.5-2.9-6.5-6.5v-0.4h12.9v0.4C220.4,261.4,217.5,264.3,213.9,264.3 M208.4,258.3
					c0.2,2.9,2.6,5.2,5.6,5.2c2.9,0,5.4-2.3,5.6-5.2H208.4z"/>
				<path class="st9" d="M173.2,208.7c-5.3,0-9.7,4.3-9.7,9.7h19.4C182.9,213,178.5,208.7,173.2,208.7"/>
				<path class="st7" d="M183.3,218.8h-20.2v-0.4c0-5.6,4.5-10.1,10.1-10.1c5.6,0,10.1,4.5,10.1,10.1V218.8z M164,217.9h18.5
					c-0.2-4.9-4.3-8.8-9.2-8.8C168.2,209.1,164.2,213,164,217.9"/>
				<path class="st8" d="M181.9,246.1h-17.3c-2.9,0-5.3-2.4-5.3-5.3v-21.9c0-2.9,2.4-5.3,5.3-5.3h17.3c2.9,0,5.3,2.4,5.3,5.3v21.9
					C187.2,243.7,184.8,246.1,181.9,246.1"/>
				<path class="st7" d="M181.9,246.5h-17.3c-3.2,0-5.8-2.6-5.8-5.8v-21.9c0-3.2,2.6-5.8,5.8-5.8h17.3c3.2,0,5.8,2.6,5.8,5.8v21.9
					C187.6,243.9,185,246.5,181.9,246.5 M164.5,214c-2.7,0-4.9,2.2-4.9,4.9v21.9c0,2.7,2.2,4.9,4.9,4.9h17.3c2.7,0,4.9-2.2,4.9-4.9
					v-21.9c0-2.7-2.2-4.9-4.9-4.9H164.5z"/>
				<path class="st10" d="M190.8,270.2h-35.2c-2.9,0-5.3-2.4-5.3-5.3v-42.7c0-2.9,2.4-5.3,5.3-5.3h35.2c2.9,0,5.3,2.4,5.3,5.3v42.7
					C196.1,267.8,193.7,270.2,190.8,270.2"/>
				<path class="st7" d="M190.8,270.6h-35.2c-3.2,0-5.8-2.6-5.8-5.8v-42.7c0-3.2,2.6-5.8,5.8-5.8h35.2c3.2,0,5.8,2.6,5.8,5.8v42.7
					C196.5,268.1,194,270.6,190.8,270.6 M155.6,217.3c-2.7,0-4.9,2.2-4.9,4.9v42.7c0,2.7,2.2,4.9,4.9,4.9h35.2
					c2.7,0,4.9-2.2,4.9-4.9v-42.7c0-2.7-2.2-4.9-4.9-4.9H155.6z"/>
				<path class="st6" d="M193.5,242.3h-40.6v-22.1h40.6V242.3z M154.6,240.6h37.2v-18.7h-37.2V240.6z"/>
				<path class="st8" d="M185.3,239.3h-24.2c-2.9,0-5.3-2.4-5.3-5.3v-5.8c0-2.9,2.4-5.3,5.3-5.3h24.2c2.9,0,5.3,2.4,5.3,5.3v5.8
					C190.6,236.9,188.2,239.3,185.3,239.3"/>
				<path class="st7" d="M182.7,226.5c0.7-0.1,1.3,0.1,1.8,0.3c0.8,0.4,1.4,1.5,1.2,2.5c-0.1,0.8-0.8,1.5-1.8,1.6
					c-2,0.3-3.1-1.3-3.2-2.8c0-1,0.7-1.7,1.7-1.7C182.6,226.5,182.7,226.5,182.7,226.5 M184.8,229.2
					C184.8,229.2,184.8,229.2,184.8,229.2c0.1,0,0.2,0,0.2,0c0.4,0,0.4-0.1,0.3-0.5c-0.1-0.3-0.3-0.7-0.5-1c0-0.1-0.2-0.2-0.3-0.1
					c-0.4,0-0.8,0.5-0.8,0.8c0,0.4,0.4,0.7,0.8,0.7C184.7,229.2,184.7,229.2,184.8,229.2"/>
				<path class="st7" d="M160.6,228.6c0-0.7,0.3-1.3,0.9-1.7c0.9-0.6,1.8-0.8,2.8-0.4c1.4,0.6,1.7,2.3,0.6,3.3
					c-0.7,0.7-1.6,1-2.6,0.8C161,230.5,160.6,230,160.6,228.6 M164.2,229.6c0.5,0,0.8-0.3,1-0.9c0.1-0.4,0-0.7-0.4-0.7
					c-0.3-0.1-0.7-0.1-1.1-0.1c-0.4,0-0.6,0.3-0.5,0.7c0,0.2,0.1,0.3,0.2,0.5C163.5,229.4,163.8,229.6,164.2,229.6"/>
				<path class="st7" d="M172.7,234.1c-1.2,0-2.3-0.3-3.3-1c-0.2-0.2-0.4-0.4-0.6-0.6c-0.1-0.1-0.2-0.3-0.2-0.5
					c0-0.2,0.1-0.4,0.3-0.5c0.1-0.1,0.4,0,0.5,0.1c1.4,1.5,4.4,1.4,6.2,0.3c0.3-0.2,0.7-0.4,1-0.5c0.5-0.1,0.7,0.1,0.6,0.6
					c-0.1,0.5-0.5,0.8-0.9,1.1c-1.1,0.7-2.3,1-3.6,1C172.8,234.1,172.8,234.1,172.7,234.1"/>
				<path class="st11" d="M184.8,229.2c-0.1,0-0.1,0-0.2,0c-0.5,0-0.8-0.4-0.8-0.7c0-0.3,0.4-0.8,0.8-0.8c0.1,0,0.3,0.1,0.3,0.1
					c0.2,0.3,0.3,0.6,0.5,1c0.1,0.4,0.1,0.4-0.3,0.5C185,229.2,184.9,229.2,184.8,229.2C184.8,229.2,184.8,229.2,184.8,229.2"/>
				<path class="st11" d="M164.2,229.6c-0.4,0-0.7-0.2-0.8-0.6c-0.1-0.2-0.1-0.3-0.2-0.5c-0.1-0.4,0.1-0.7,0.5-0.7
					c0.4,0,0.7,0,1.1,0.1c0.4,0.1,0.5,0.3,0.4,0.7C165.1,229.3,164.8,229.6,164.2,229.6"/>
				<rect x="164.1" y="245.1" class="st6" width="18.2" height="18.2"/>
				<path class="st7" d="M182.7,263.7h-19v-19h19V263.7z M164.5,262.9h17.3v-17.3h-17.3V262.9z"/>
				<path class="st9" d="M179.2,254.2c0,3.3-2.7,6-6,6c-3.3,0-6-2.7-6-6c0-3.3,2.7-6,6-6C176.5,248.2,179.2,250.9,179.2,254.2"/>
				<path class="st7" d="M173.2,260.6c-3.5,0-6.4-2.9-6.4-6.4c0-3.5,2.9-6.4,6.4-6.4c3.5,0,6.4,2.9,6.4,6.4
					C179.6,257.7,176.7,260.6,173.2,260.6 M173.2,248.7c-3.1,0-5.5,2.5-5.5,5.5c0,3.1,2.5,5.5,5.5,5.5c3.1,0,5.5-2.5,5.5-5.5
					C178.7,251.1,176.3,248.7,173.2,248.7"/>
			</g>
		</g>
	</g>
	<g>
		<g>
			<defs>
				<rect id="SVGID_9_" x="154.5" y="234.7" width="104.6" height="94.8"/>
			</defs>
			<clipPath id="SVGID_10_">
				<use xlink:href="#SVGID_9_"  style="overflow:visible;"/>
			</clipPath>
			<g class="st12">
				<defs>
					<rect id="SVGID_11_" x="154.5" y="234.7" width="104.6" height="94.8"/>
				</defs>
				<clipPath id="SVGID_12_">
					<use xlink:href="#SVGID_11_"  style="overflow:visible;"/>
				</clipPath>
				<path class="st13" d="M198.6,313.4v-15.6h-3.8v15.6c-4.3,0.9-7.6,5-7.6,9.9h19C206.2,318.5,202.9,314.4,198.6,313.4"/>
				<path class="st14" d="M206.6,323.8h-19.9v-0.4c0-4.9,3.2-9.1,7.6-10.3v-15.7h4.7v15.7c4.4,1.1,7.6,5.4,7.6,10.3V323.8z
					 M187.6,322.9h18.2c-0.2-4.4-3.2-8.2-7.3-9.1l-0.3-0.1v-15.6h-3v15.6l-0.3,0.1C190.8,314.7,187.8,318.5,187.6,322.9"/>
				<path class="st13" d="M218.8,313.4v-15.6H215v15.6c-4.3,0.9-7.6,5-7.6,9.9h19C226.4,318.5,223.2,314.4,218.8,313.4"/>
				<path class="st14" d="M226.9,323.8H207v-0.4c0-4.9,3.2-9.1,7.6-10.3v-15.7h4.7v15.7c4.4,1.1,7.6,5.4,7.6,10.3V323.8z
					 M207.9,322.9H226c-0.2-4.4-3.2-8.2-7.3-9.1l-0.3-0.1v-15.6h-3v15.6l-0.3,0.1C211,314.7,208,318.5,207.9,322.9"/>
				<path class="st13" d="M187.5,267.2c-12.5,0-22.7,10.5-22.7,23.3h2.3c0-11.6,9.1-21,20.3-21V267.2z"/>
				<path class="st14" d="M167.6,290.9h-3.2v-0.4c0-13.1,10.4-23.7,23.1-23.7h0.4v3.2h-0.4c-11,0-19.9,9.2-19.9,20.5V290.9z
					 M165.3,290h1.5c0.2-11.5,9.2-20.7,20.3-21v-1.5C175.1,267.8,165.5,277.8,165.3,290"/>
				<path class="st15" d="M166.1,296c-3.3,0-6-2.7-6-6h12.1C172.1,293.3,169.4,296,166.1,296"/>
				<path class="st14" d="M166,296.4c-3.6,0-6.5-2.9-6.5-6.5v-0.4h12.9v0.4C172.5,293.5,169.6,296.4,166,296.4 M160.5,290.4
					c0.2,2.9,2.6,5.2,5.6,5.2c2.9,0,5.4-2.3,5.6-5.2H160.5z"/>
				<path class="st13" d="M226.1,267.2c12.5,0,22.7,10.5,22.7,23.3h-2.3c0-11.6-9.1-21-20.3-21V267.2z"/>
				<path class="st14" d="M249.2,290.9H246v-0.4c0-11.3-8.9-20.5-19.9-20.5h-0.4v-3.2h0.4c12.7,0,23.1,10.7,23.1,23.7V290.9z
					 M246.8,290h1.5c-0.2-12.3-9.9-22.2-21.8-22.5v1.5C237.6,269.3,246.6,278.6,246.8,290"/>
				<path class="st15" d="M247.5,296c3.3,0,6-2.7,6-6h-12.1C241.5,293.3,244.2,296,247.5,296"/>
				<path class="st14" d="M247.5,296.4c-3.6,0-6.5-2.9-6.5-6.5v-0.4H254v0.4C254,293.5,251.1,296.4,247.5,296.4 M242,290.4
					c0.2,2.9,2.6,5.2,5.6,5.2c2.9,0,5.4-2.3,5.6-5.2H242z"/>
				<path class="st16" d="M206.8,240.8c-5.3,0-9.7,4.3-9.7,9.7h19.4C216.5,245.1,212.1,240.8,206.8,240.8"/>
				<path class="st14" d="M216.9,250.9h-20.2v-0.4c0-5.6,4.5-10.1,10.1-10.1c5.6,0,10.1,4.5,10.1,10.1V250.9z M197.6,250H216
					c-0.2-4.9-4.3-8.8-9.2-8.8C201.8,241.2,197.8,245.1,197.6,250"/>
				<path class="st15" d="M215.5,278.2h-17.3c-2.9,0-5.3-2.4-5.3-5.3v-21.9c0-2.9,2.4-5.3,5.3-5.3h17.3c2.9,0,5.3,2.4,5.3,5.3v21.9
					C220.8,275.8,218.4,278.2,215.5,278.2"/>
				<path class="st14" d="M215.5,278.6h-17.3c-3.2,0-5.8-2.6-5.8-5.8v-21.9c0-3.2,2.6-5.8,5.8-5.8h17.3c3.2,0,5.8,2.6,5.8,5.8v21.9
					C221.2,276,218.6,278.6,215.5,278.6 M198.1,246c-2.7,0-4.9,2.2-4.9,4.9v21.9c0,2.7,2.2,4.9,4.9,4.9h17.3c2.7,0,4.9-2.2,4.9-4.9
					v-21.9c0-2.7-2.2-4.9-4.9-4.9H198.1z"/>
				<path class="st17" d="M224.4,302.3h-35.2c-2.9,0-5.3-2.4-5.3-5.3v-42.7c0-2.9,2.4-5.3,5.3-5.3h35.2c2.9,0,5.3,2.4,5.3,5.3v42.7
					C229.7,299.9,227.3,302.3,224.4,302.3"/>
				<path class="st14" d="M224.4,302.7h-35.2c-3.2,0-5.8-2.6-5.8-5.8v-42.7c0-3.2,2.6-5.8,5.8-5.8h35.2c3.2,0,5.8,2.6,5.8,5.8v42.7
					C230.1,300.1,227.6,302.7,224.4,302.7 M189.2,249.4c-2.7,0-4.9,2.2-4.9,4.9v42.7c0,2.7,2.2,4.9,4.9,4.9h35.2
					c2.7,0,4.9-2.2,4.9-4.9v-42.7c0-2.7-2.2-4.9-4.9-4.9H189.2z"/>
				<path class="st13" d="M227.1,274.3h-40.6v-22.1h40.6V274.3z M188.2,272.6h37.2v-18.7h-37.2V272.6z"/>
				<path class="st15" d="M218.9,271.4h-24.2c-2.9,0-5.3-2.4-5.3-5.3v-5.8c0-2.9,2.4-5.3,5.3-5.3h24.2c2.9,0,5.3,2.4,5.3,5.3v5.8
					C224.2,269,221.8,271.4,218.9,271.4"/>
				<path class="st14" d="M216.3,258.5c0.7-0.1,1.3,0.1,1.8,0.3c0.8,0.4,1.4,1.5,1.2,2.5c-0.1,0.8-0.8,1.5-1.8,1.6
					c-2,0.3-3.1-1.3-3.2-2.8c0-1,0.7-1.7,1.7-1.7C216.2,258.5,216.3,258.5,216.3,258.5 M218.4,261.2
					C218.4,261.2,218.4,261.2,218.4,261.2c0.1,0,0.2,0,0.2,0c0.4,0,0.4-0.1,0.3-0.5c-0.1-0.3-0.3-0.7-0.5-1c0-0.1-0.2-0.2-0.3-0.1
					c-0.4,0-0.8,0.5-0.8,0.8c0,0.4,0.4,0.7,0.8,0.7C218.3,261.2,218.3,261.2,218.4,261.2"/>
				<path class="st14" d="M194.2,260.7c0-0.7,0.3-1.3,0.9-1.7c0.9-0.6,1.8-0.8,2.8-0.4c1.4,0.6,1.7,2.3,0.6,3.3
					c-0.7,0.7-1.6,1-2.6,0.8C194.6,262.6,194.2,262,194.2,260.7 M197.8,261.7c0.5,0,0.8-0.3,1-0.9c0.1-0.4,0-0.7-0.4-0.7
					c-0.3-0.1-0.7-0.1-1.1-0.1c-0.4,0-0.6,0.3-0.5,0.7c0,0.2,0.1,0.3,0.2,0.5C197.1,261.5,197.4,261.7,197.8,261.7"/>
				<path class="st14" d="M206.3,266.1c-1.2,0-2.3-0.3-3.3-1c-0.2-0.2-0.4-0.4-0.6-0.6c-0.1-0.1-0.2-0.3-0.2-0.5
					c0-0.2,0.1-0.4,0.3-0.5c0.1-0.1,0.4,0,0.5,0.1c1.4,1.5,4.4,1.4,6.2,0.3c0.3-0.2,0.7-0.4,1-0.5c0.5-0.1,0.7,0.1,0.6,0.6
					c-0.1,0.5-0.5,0.8-0.9,1.1c-1.1,0.7-2.3,1-3.6,1C206.4,266.1,206.4,266.1,206.3,266.1"/>
				<path class="st18" d="M218.4,261.2c-0.1,0-0.1,0-0.2,0c-0.5,0-0.8-0.4-0.8-0.7c0-0.3,0.4-0.8,0.8-0.8c0.1,0,0.3,0.1,0.3,0.1
					c0.2,0.3,0.3,0.6,0.5,1c0.1,0.4,0.1,0.4-0.3,0.5C218.6,261.2,218.5,261.2,218.4,261.2C218.4,261.2,218.4,261.2,218.4,261.2"/>
				<path class="st18" d="M197.8,261.7c-0.4,0-0.7-0.2-0.8-0.6c-0.1-0.2-0.1-0.3-0.2-0.5c-0.1-0.4,0.1-0.7,0.5-0.7
					c0.4,0,0.7,0,1.1,0.1c0.4,0.1,0.5,0.3,0.4,0.7C198.7,261.4,198.4,261.7,197.8,261.7"/>
				<rect x="197.7" y="277.2" class="st13" width="18.2" height="18.2"/>
				<path class="st14" d="M216.3,295.8h-19v-19h19V295.8z M198.1,294.9h17.3v-17.3h-17.3V294.9z"/>
				<path class="st16" d="M212.8,286.3c0,3.3-2.7,6-6,6c-3.3,0-6-2.7-6-6s2.7-6,6-6C210.1,280.3,212.8,283,212.8,286.3"/>
				<path class="st14" d="M206.8,292.7c-3.5,0-6.4-2.9-6.4-6.4c0-3.5,2.9-6.4,6.4-6.4c3.5,0,6.4,2.9,6.4,6.4
					C213.2,289.8,210.3,292.7,206.8,292.7 M206.8,280.7c-3.1,0-5.5,2.5-5.5,5.5c0,3.1,2.5,5.5,5.5,5.5c3.1,0,5.5-2.5,5.5-5.5
					C212.3,283.2,209.9,280.7,206.8,280.7"/>
			</g>
		</g>
	</g>
	<g>
		<g>
			<defs>
				<rect id="SVGID_13_" x="102.2" y="239.4" width="104.6" height="94.8"/>
			</defs>
			<clipPath id="SVGID_14_">
				<use xlink:href="#SVGID_13_"  style="overflow:visible;"/>
			</clipPath>
			<g class="st19">
				<defs>
					<rect id="SVGID_15_" x="102.2" y="239.4" width="104.6" height="94.8"/>
				</defs>
				<clipPath id="SVGID_16_">
					<use xlink:href="#SVGID_15_"  style="overflow:visible;"/>
				</clipPath>
				<path class="st20" d="M146.3,318.2v-15.6h-3.8v15.6c-4.3,0.9-7.6,5-7.6,9.9h19C153.9,323.2,150.6,319.1,146.3,318.2"/>
				<path class="st21" d="M154.3,328.5h-19.9v-0.4c0-4.9,3.2-9.1,7.6-10.3v-15.7h4.7v15.7c4.4,1.1,7.6,5.4,7.6,10.3V328.5z
					 M135.3,327.7h18.2c-0.2-4.4-3.2-8.2-7.3-9.1l-0.3-0.1v-15.6h-3v15.6l-0.3,0.1C138.5,319.5,135.5,323.3,135.3,327.7"/>
				<path class="st20" d="M166.6,318.2v-15.6h-3.8v15.6c-4.3,0.9-7.6,5-7.6,9.9h19C174.1,323.2,170.9,319.1,166.6,318.2"/>
				<path class="st21" d="M174.6,328.5h-19.9v-0.4c0-4.9,3.2-9.1,7.6-10.3v-15.7h4.7v15.7c4.4,1.1,7.6,5.4,7.6,10.3V328.5z
					 M155.6,327.7h18.2c-0.2-4.4-3.2-8.2-7.3-9.1l-0.3-0.1v-15.6h-3v15.6l-0.3,0.1C158.7,319.5,155.7,323.3,155.6,327.7"/>
				<path class="st20" d="M135.2,271.9c-12.5,0-22.7,10.5-22.7,23.3h2.3c0-11.6,9.1-21,20.3-21V271.9z"/>
				<path class="st21" d="M115.3,295.6h-3.2v-0.4c0-13.1,10.4-23.7,23.1-23.7h0.4v3.2h-0.4c-11,0-19.9,9.2-19.9,20.5V295.6z
					 M113,294.8h1.5c0.2-11.5,9.2-20.7,20.3-21v-1.5C122.9,272.5,113.2,282.5,113,294.8"/>
				<path class="st22" d="M113.8,300.7c-3.3,0-6-2.7-6-6h12.1C119.8,298,117.1,300.7,113.8,300.7"/>
				<path class="st21" d="M113.8,301.1c-3.6,0-6.5-2.9-6.5-6.5v-0.4h12.9v0.4C120.2,298.2,117.3,301.1,113.8,301.1 M108.2,295.1
					c0.2,2.9,2.6,5.2,5.6,5.2c2.9,0,5.4-2.3,5.6-5.2H108.2z"/>
				<path class="st20" d="M173.8,271.9c12.5,0,22.7,10.5,22.7,23.3h-2.3c0-11.6-9.1-21-20.3-21V271.9z"/>
				<path class="st21" d="M196.9,295.6h-3.2v-0.4c0-11.3-8.9-20.5-19.9-20.5h-0.4v-3.2h0.4c12.7,0,23.1,10.7,23.1,23.7V295.6z
					 M194.5,294.8h1.5c-0.2-12.3-9.9-22.2-21.8-22.5v1.5C185.3,274,194.3,283.3,194.5,294.8"/>
				<path class="st22" d="M195.3,300.7c3.3,0,6-2.7,6-6h-12.1C189.2,298,191.9,300.7,195.3,300.7"/>
				<path class="st21" d="M195.3,301.1c-3.6,0-6.5-2.9-6.5-6.5v-0.4h12.9v0.4C201.7,298.2,198.8,301.1,195.3,301.1 M189.7,295.1
					c0.2,2.9,2.6,5.2,5.6,5.2c2.9,0,5.4-2.3,5.6-5.2H189.7z"/>
				<path class="st23" d="M154.5,245.5c-5.3,0-9.7,4.3-9.7,9.7h19.4C164.2,249.8,159.9,245.5,154.5,245.5"/>
				<path class="st21" d="M164.6,255.6h-20.2v-0.4c0-5.6,4.5-10.1,10.1-10.1c5.6,0,10.1,4.5,10.1,10.1V255.6z M145.3,254.7h18.5
					c-0.2-4.9-4.3-8.8-9.2-8.8C149.5,245.9,145.5,249.8,145.3,254.7"/>
				<path class="st22" d="M163.2,282.9h-17.3c-2.9,0-5.3-2.4-5.3-5.3v-21.9c0-2.9,2.4-5.3,5.3-5.3h17.3c2.9,0,5.3,2.4,5.3,5.3v21.9
					C168.5,280.5,166.1,282.9,163.2,282.9"/>
				<path class="st21" d="M163.2,283.3h-17.3c-3.2,0-5.8-2.6-5.8-5.8v-21.9c0-3.2,2.6-5.8,5.8-5.8h17.3c3.2,0,5.8,2.6,5.8,5.8v21.9
					C168.9,280.7,166.3,283.3,163.2,283.3 M145.8,250.7c-2.7,0-4.9,2.2-4.9,4.9v21.9c0,2.7,2.2,4.9,4.9,4.9h17.3
					c2.7,0,4.9-2.2,4.9-4.9v-21.9c0-2.7-2.2-4.9-4.9-4.9H145.8z"/>
				<path class="st24" d="M172.1,307h-35.2c-2.9,0-5.3-2.4-5.3-5.3V259c0-2.9,2.4-5.3,5.3-5.3h35.2c2.9,0,5.3,2.4,5.3,5.3v42.7
					C177.4,304.6,175,307,172.1,307"/>
				<path class="st21" d="M172.1,307.4h-35.2c-3.2,0-5.8-2.6-5.8-5.8V259c0-3.2,2.6-5.8,5.8-5.8h35.2c3.2,0,5.8,2.6,5.8,5.8v42.7
					C177.9,304.8,175.3,307.4,172.1,307.4 M136.9,254.1c-2.7,0-4.9,2.2-4.9,4.9v42.7c0,2.7,2.2,4.9,4.9,4.9h35.2
					c2.7,0,4.9-2.2,4.9-4.9V259c0-2.7-2.2-4.9-4.9-4.9H136.9z"/>
				<path class="st20" d="M174.8,279.1h-40.6v-22.1h40.6V279.1z M135.9,277.3h37.2v-18.7h-37.2V277.3z"/>
				<path class="st22" d="M166.6,276.1h-24.2c-2.9,0-5.3-2.4-5.3-5.3V265c0-2.9,2.4-5.3,5.3-5.3h24.2c2.9,0,5.3,2.4,5.3,5.3v5.8
					C172,273.7,169.6,276.1,166.6,276.1"/>
				<path class="st21" d="M164.1,263.3c0.7-0.1,1.3,0.1,1.8,0.3c0.8,0.4,1.4,1.5,1.2,2.5c-0.1,0.8-0.8,1.5-1.8,1.6
					c-2,0.3-3.1-1.3-3.2-2.8c0-1,0.7-1.7,1.7-1.7C163.9,263.3,164,263.3,164.1,263.3 M166.1,265.9
					C166.1,265.9,166.1,265.9,166.1,265.9c0.1,0,0.2,0,0.2,0c0.4,0,0.4-0.1,0.3-0.5c-0.1-0.3-0.3-0.7-0.5-1c0-0.1-0.2-0.2-0.3-0.1
					c-0.4,0-0.8,0.5-0.8,0.8c0,0.4,0.4,0.7,0.8,0.7C166,265.9,166.1,265.9,166.1,265.9"/>
				<path class="st21" d="M141.9,265.4c0-0.7,0.3-1.3,0.9-1.7c0.9-0.6,1.8-0.8,2.8-0.4c1.4,0.6,1.7,2.3,0.6,3.3
					c-0.7,0.7-1.6,1-2.6,0.8C142.3,267.3,141.9,266.7,141.9,265.4 M145.5,266.4c0.5,0,0.8-0.3,1-0.9c0.1-0.4,0-0.7-0.4-0.7
					c-0.3-0.1-0.7-0.1-1.1-0.1c-0.4,0-0.6,0.3-0.5,0.7c0,0.2,0.1,0.3,0.2,0.5C144.8,266.2,145.1,266.4,145.5,266.4"/>
				<path class="st21" d="M154.1,270.8c-1.2,0-2.3-0.3-3.3-1c-0.2-0.2-0.4-0.4-0.6-0.6c-0.1-0.1-0.2-0.3-0.2-0.5
					c0-0.2,0.1-0.4,0.3-0.5c0.1-0.1,0.4,0,0.5,0.1c1.4,1.5,4.4,1.4,6.2,0.3c0.3-0.2,0.7-0.4,1-0.5c0.5-0.1,0.7,0.1,0.6,0.6
					c-0.1,0.5-0.5,0.8-0.9,1.1c-1.1,0.7-2.3,1-3.6,1C154.1,270.8,154.1,270.8,154.1,270.8"/>
				<path class="st25" d="M166.1,265.9c-0.1,0-0.1,0-0.2,0c-0.5,0-0.8-0.4-0.8-0.7c0-0.3,0.4-0.8,0.8-0.8c0.1,0,0.3,0.1,0.3,0.1
					c0.2,0.3,0.3,0.6,0.5,1c0.1,0.4,0.1,0.4-0.3,0.5C166.3,265.9,166.2,265.9,166.1,265.9C166.1,265.9,166.1,265.9,166.1,265.9"/>
				<path class="st25" d="M145.5,266.4c-0.4,0-0.7-0.2-0.8-0.6c-0.1-0.2-0.1-0.3-0.2-0.5c-0.1-0.4,0.1-0.7,0.5-0.7
					c0.4,0,0.7,0,1.1,0.1c0.4,0.1,0.5,0.3,0.4,0.7C146.4,266.1,146.1,266.4,145.5,266.4"/>
				<rect x="145.4" y="281.9" class="st20" width="18.2" height="18.2"/>
				<path class="st21" d="M164,300.5h-19v-19h19V300.5z M145.8,299.7h17.3v-17.3h-17.3V299.7z"/>
				<path class="st23" d="M160.5,291c0,3.3-2.7,6-6,6c-3.3,0-6-2.7-6-6s2.7-6,6-6C157.8,285,160.5,287.7,160.5,291"/>
				<path class="st21" d="M154.5,297.4c-3.5,0-6.4-2.9-6.4-6.4c0-3.5,2.9-6.4,6.4-6.4c3.5,0,6.4,2.9,6.4,6.4
					C160.9,294.5,158,297.4,154.5,297.4 M154.5,285.4c-3.1,0-5.5,2.5-5.5,5.5c0,3.1,2.5,5.5,5.5,5.5c3.1,0,5.5-2.5,5.5-5.5
					C160.1,287.9,157.6,285.4,154.5,285.4"/>
			</g>
		</g>
	</g>
</g>
<g id="P2">
	<g>
		<g>
			<defs>
				<rect id="SVGID_17_" x="401.8" y="239.4" width="178.7" height="195.5"/>
			</defs>
			<clipPath id="SVGID_18_">
				<use xlink:href="#SVGID_17_"  style="overflow:visible;"/>
			</clipPath>
			<g class="st26">
				<defs>
					<rect id="SVGID_19_" x="401.8" y="239.4" width="178.7" height="195.5"/>
				</defs>
				<clipPath id="SVGID_20_">
					<use xlink:href="#SVGID_19_"  style="overflow:visible;"/>
				</clipPath>
				<path class="st27" d="M542.5,340.6c-0.7,4.8-0.8,9.7-0.4,14.5c0.2,2.2,0.5,4.5-0.1,6.7c-0.4,1.7-1.4,3.2-2.2,4.7
					c-6.2,10.2-11.7,21-14.3,32.6c-3.1-13.6-6.2-27.4-6.3-41.4c0-4.3,0.3-8.9,2.6-12.6c2.5-4,7-6.4,11.5-8c2-0.8,4.2-1.4,6.3-0.9
					c2.1,0.6,3.8,3,2.8,4.9"/>
				<path class="st28" d="M525.5,401.9l-0.6-2.7c-3-13.5-6.2-27.4-6.3-41.5c0-4.2,0.2-9,2.6-12.9c2.8-4.4,7.8-6.8,11.8-8.3
					c2.2-0.8,4.5-1.5,6.7-0.9c1.4,0.4,2.6,1.4,3.2,2.8c0.4,0.8,0.5,1.7,0.2,2.5c-0.7,4.7-0.8,9.4-0.4,14.2c0,0.3,0,0.5,0.1,0.8
					c0.2,2,0.4,4.1-0.1,6.1c-0.4,1.7-1.4,3.3-2.3,4.7l-0.1,0.1c-5.5,9.1-11.5,20.1-14.2,32.4L525.5,401.9z M537.8,336.6
					c-1.5,0-3,0.5-4.4,1c-3.9,1.5-8.6,3.7-11.2,7.8c-2.2,3.6-2.5,8-2.5,12.2c0.1,13.1,2.9,26.1,5.7,38.7c3-11.4,8.6-21.6,13.8-30.2
					l0.1-0.1c0.8-1.4,1.7-2.8,2.1-4.4c0.5-1.8,0.3-3.8,0.1-5.7c0-0.3,0-0.5-0.1-0.8c-0.4-4.7-0.3-9.5,0.4-14.2l-0.1,0
					c0-0.1,0.1-0.2,0.1-0.3c0-0.1,0-0.1,0-0.2l0,0c0.1-0.6,0-1.2-0.2-1.6c-0.4-1-1.4-1.8-2.4-2.1
					C538.8,336.7,538.3,336.6,537.8,336.6"/>
				<path class="st27" d="M455.6,340.6c2.1,4.6,6.9,7.4,9.5,11.8c2.5,4.2,2.7,9.4,2.9,14.3c0.2,7.5,0.4,15.1,0.6,22.6
					c0.1,3.6,0.3,7.2,0.3,10.8c0,2.4-1,5.4-0.4,7.7c9.2-1.1,18.1-1.7,27.4-0.7c9.7,1,19.2,2.3,28.9,2.7c0.7,0,1.5,0,2.1-0.4
					c0.7-0.6,0.8-1.6,0.8-2.6c0.2-7.7-0.2-15.6-0.4-23.4c-0.2-8.9-0.3-18,2.4-26.5c2.8-8.5,9.1-16.3,17.7-18.5
					c-24.7-6.5-50.9-2.5-76.2,0.9c-5.1,0.7-10.3,1.3-15.2,0c0.4,0.6,0.7,1.1,1.1,1.7"/>
				<path class="st28" d="M525.1,410.4c-0.2,0-0.4,0-0.5,0c-7.6-0.3-15.2-1.2-22.5-2c-2.1-0.2-4.3-0.5-6.4-0.7
					c-9.4-1-18.7-0.2-27.2,0.7l-0.5,0.1l-0.1-0.5c-0.4-1.5-0.2-3.3,0.1-5c0.1-1,0.3-1.9,0.3-2.8c0-2.4-0.1-4.8-0.2-7.2
					c0-1.2-0.1-2.4-0.1-3.6l-0.6-22.6c-0.1-4.6-0.3-9.8-2.8-14c-1.1-1.9-2.8-3.6-4.3-5.2c-2-2-4-4.1-5.2-6.7l0.9-0.4l-1.4-2.2
					l1.5,0.4c4.9,1.4,10.3,0.7,15,0c1.1-0.1,2.2-0.3,3.3-0.4c24.3-3.3,49.4-6.7,73.2-0.4l2.3,0.6l-2.3,0.6
					c-9.1,2.3-14.9,10.9-17.3,18.1c-2.8,8.5-2.6,17.5-2.4,26.3c0,2.4,0.1,4.8,0.2,7.1c0.2,5.4,0.3,10.9,0.2,16.3
					c0,0.8-0.1,2.2-1.1,3C526.5,410.3,525.7,410.4,525.1,410.4 M486.3,406c3.1,0,6.3,0.1,9.4,0.5c2.2,0.2,4.3,0.5,6.4,0.7
					c7.3,0.8,14.9,1.7,22.4,2c0.7,0,1.3,0,1.7-0.3c0.5-0.4,0.6-1.3,0.6-2.1c0.1-5.4,0-10.9-0.2-16.2c-0.1-2.3-0.1-4.7-0.2-7.1
					c-0.2-8.9-0.4-18,2.5-26.7c2.9-8.8,8.9-15.6,16-18.3c-22.9-5.5-47.2-2.2-70.6,1c-1.1,0.1-2.2,0.3-3.3,0.4
					c-4.4,0.6-9.2,1.2-14,0.3l0.3,0.4l-1,0.6c1.1,2,2.8,3.7,4.5,5.5c1.6,1.7,3.3,3.4,4.5,5.4c2.7,4.5,2.8,10.1,2.9,14.6l0.6,22.6
					c0,1.2,0.1,2.4,0.1,3.6c0.1,2.4,0.2,4.8,0.2,7.3c0,0.9-0.1,2-0.3,3c-0.2,1.4-0.4,2.8-0.2,4C474.4,406.5,480.3,406,486.3,406"/>
				<polygon class="st29" points="470.2,272.8 417.4,343.9 557.7,343.9 565.5,274.3 				"/>
				<path class="st28" d="M558.3,344.6H416.2l53.7-72.4l0.3,0l96,1.5L558.3,344.6z M418.6,343.3h138.5l7.7-68.5l-94.3-1.4
					L418.6,343.3z"/>
			</g>
		</g>
	</g>
</g>
</svg>
