<?xml version="1.0" encoding="utf-8"?>
<!-- Generator: Adobe Illustrator 22.1.0, SVG Export Plug-In . SVG Version: 6.00 Build 0)  -->
<svg version="1.1" xmlns="http://www.w3.org/2000/svg" xmlns:xlink="http://www.w3.org/1999/xlink" x="0px" y="0px"
	 viewBox="0 0 717.6 768" style="enable-background:new 0 0 717.6 768;" xml:space="preserve">
<style type="text/css">
	.st0{fill:#B80000;}
	.st1{fill:#F7C7A3;}
	.st2{fill:#494949;}
	.st3{fill:#DD8C3A;}
	.st4{fill:#FFD804;}
	.st5{fill:#F51E1C;}
	.st6{fill:#4E483A;}
	.st7{fill:#955529;}
	.st8{fill:#439BD3;}
	.st9{fill:#FFFFFF;}
</style>
<g id="Слой6_xA0_Изображение_1_">
</g>
<g id="Слой7_xA0_Изображение_1_">
	<g>
		<path d="M532,476.3c-0.2,0.6-0.4,1.2-0.6,1.8c-1.4,5.4-6.5,6.2-10.3,5c-0.8-0.2-1.5-0.6-2.2-1c-0.5,0.4-1,0.8-1.5,1.1
			c-2.2,1.2-4.3,1.6-6.5,0.1c-3.9-2.8-7.9-5.4-11.7-8.3c-6.1-4.7-12-9.6-18-14.3c-0.9-0.7-1.9-1.4-2.9-2.1c-0.8-0.6-1.7-0.8-2.9-0.3
			c0.1,0.5,0.1,1,0.2,1.5c1,4.3,2,8.6,2.9,12.9c0.2,0.9,0.3,1.9,0.3,2.9c0.1,2.2-1.5,3.9-3.6,3.9c-2.7,0-5.2-1-7.5-2.2
			c-1.3-0.7-1.5-2.2-1.8-3.5c-0.7-3.5-1.4-7.1-2-10.6c-0.5-2.8-0.9-5.7-1.4-8.5c-0.2-0.9-0.5-1.8-1.1-2.6c-1.2-1.7-2.5-3.3-3.9-4.9
			c-1.9-2.1-2.5-4.6-2.2-7.3c0.3-3,0.6-6.1,0.8-9.1c0.1-1,0.1-2,0.2-3.2c-2.6-0.3-5.1-0.5-7.5-1c-2.4-0.5-4.8-1.2-7.2-1.8
			c-1.7-0.4-2.5-1.4-2.8-3.1c-3.4-18-7.1-35.9-10.4-53.9c-2.7-14.9-5.1-29.9-7.4-45c-1.1-7.4-1.8-14.9-2.7-22.4
			c-0.4-3.5-1.4-6.7-3.3-10.2c-0.2,1-0.3,1.6-0.3,2.1c0,5.4-0.1,10.9-0.1,16.3c0.2,15.3,0.7,30.6,2.3,45.8
			c0.9,8.4,2.3,16.8,3.4,25.2c0.3,2.6,0.3,5.3,0.2,7.9c-0.1,2.8-1.4,5.2-3.7,7c-0.9,0.7-1.8,1.3-2.8,2.1c0,0.9,0,1.9,0,2.8
			c0.6,25.3,1.2,50.7,1.9,76c0.5,18.9,1.1,37.9,1.9,56.8c0.7,15.6,2.6,31.1,5.8,46.4c1.3,6.3,1.5,12.6,0.7,18.9
			c-1.4,10.7-0.5,21.2,1.2,31.8c2.6,16.1,6.6,31.9,10.6,47.8c0.4,1.7,1.1,3.3,1.6,5c0.3,1.2,0.6,2.5,0.8,3.3
			c4.7,4.2,9.2,8.2,13.6,12.4c2.8,2.6,4.9,5.7,5.6,9.6c0.3,1.9,0.1,3.9,0.1,5.9c0,1-0.3,2.1-0.1,3.1c1.1,5.1-0.8,9.1-4.3,12.6
			c-0.4,0.4-1,0.8-1.6,1.1c-6,3.1-12.3,5-19,5.4c-0.9,0-1.7,0.3-2.6,0.4c-2.9,0-5.8,0-8.6,0c-0.9-0.1-1.9-0.3-2.8-0.4
			c-9.1-0.5-18.1-1.8-26.9-4.4c-2-0.6-3.9-1.4-5.9-2.1c-2.4-1-4.1-2.8-5.1-5.2c-1-2.5-1.4-5.1-1.7-7.7c-0.2-1.9-0.5-3.8-1-5.6
			c-0.7-2.6-0.8-5.2-0.6-7.8c0.2-2.1,0.5-4.1,0.7-6.2c0.1-0.9,0.1-1.7,0.2-2.8c-1.6,0.4-2.8,0.9-4.1,1.2c-2,0.5-3-0.4-2.6-2.4
			c1.4-5.9,0.6-11.8-0.5-17.6c-1.1-5.5-2.1-10.9-3.5-16.4c0,0.8,0,1.6,0,2.5c0.2,8.8,0.5,17.6,0.7,26.4c0.1,7.1-1.1,14-2.3,20.9
			c-0.3,1.9-0.7,3.8-1.1,5.6c-1.5,7.2-5.5,12.3-12.9,13.9c-5,1.1-10.1,1.8-15.2,2.3c-11.9,1.1-23.8,1.4-35.7,0.6
			c-4.9-0.3-9.7-0.9-14.4-2.4c-2-0.7-4.1-1.5-6-2.5c-2.8-1.5-4.4-3.9-4.8-7.1c-0.2-1.3-0.3-2.7-0.4-4.1c-0.1-1.7-0.3-3.4-0.8-5.1
			c-0.5-1.7-0.3-3.8,0.1-5.6c2.9-11.9,13.9-21.4,26-22.7c2.5-0.3,5.1-0.6,7.1-0.9c1.1-1.6,1.9-2.8,2.9-3.9c1.4-1.7,2.9-3.4,4.4-5
			c0.7-0.8,1-1.5,1-2.6c-0.3-18.7-1.6-37.2-4.7-55.7c-2.5-14.8-5.1-29.6-7.6-44.4c-0.6-3.7-0.9-7.5-1.3-11.2
			c-0.2-2.2,0.3-4.1,1.8-5.8c0.3-0.3,0.5-0.8,1-1.7c-0.6-0.4-1.4-0.8-1.9-1.3c-1.7-1.7-3.3-3.5-4.9-5.2c-2.3-2.5-3.3-5.5-3.3-9
			c0-5.9-0.1-11.8-0.2-17.8c-0.4-13.7-0.9-27.3-1.3-41c-0.7-24.2-1.3-48.5-1-72.7c0-3,0.2-6.1,0.3-9.1c0.1-1.3-0.4-2.1-1.5-2.9
			c-2.7-1.8-5.3-3.8-7.8-6c-1.3-1.1-2.3-2.7-3.3-4.1c-1.2-1.8-1.6-3.7-1.5-5.9c0.4-5.9,1.1-11.7,2.5-17.5c1.1-4.5,1.3-9.2,1.9-13.8
			c1.4-11.3,2.7-22.7,4.2-34c2.1-17,4.6-33.9,5.7-51c0.1-0.8,0.1-1.6,0.2-2.6c-0.5,0.2-0.9,0.3-1.1,0.6
			c-13,13.2-27.5,24.6-41.7,36.4c-3.5,2.9-6.8,6.1-10.1,9.2c-1.9,1.8-2.5,2-4.9,0.9c-4.3-2.1-8-5-11.4-8.3
			c-8-7.9-13.7-17.2-18.2-27.4c-5.5-12.6-9.1-25.8-11.4-39.3c-1.2-7-2.1-14.1-3.2-21.1c-0.2-1.6,0.2-2.6,1.5-3.4
			c3.8-2.7,7.5-5.5,11.3-8.2c1.1-0.8,1.7-1.6,1.8-2.9c0.6-6,1.3-12.1,1.9-18.1c0.1-0.9-0.1-1.9-0.4-2.8c-1.5-4.2-3.2-8.4-4.7-12.6
			c-2.1-6.1-4.2-12.3-7.5-17.9c-0.5-0.8-0.6-1.8-0.6-2.8c0.1-2.3-0.4-4.4-1.1-6.6c-2.7-9.1-5.4-18.2-8.1-27.3
			c-0.7-2.4-0.1-3.6,2.3-4.4c1.4-0.5,2.9-0.7,4.7-1.1c-0.2-1.9-0.4-3.8-0.5-5.7c-0.1-1.2-0.3-2.4-0.4-3.6c0-0.2,0-0.3,0-0.5
			c0-2.7,1-3.2,5.3-4.6c2.1-0.7,2.9-0.3,4,1.9c1.1,2.2,2.1,4.5,3.1,6.8c0.3,0.7,0.6,1.4,1.1,2.6c-0.2-5.1-0.5-9.7-0.6-14.2
			c-0.1-4.4,1.1-5.5,5.5-5.7c0.6,0,1.3,0,1.9,0.1c2.1,0.3,2.8,0.9,3.1,3c0.5,3.7,0.9,7.5,1.4,11.2c1.3,8.5,2.6,16.9,3.9,25.4
			c0.1,0.4,0.3,0.9,0.9,1.3c0.1-0.9,0.2-1.8,0.3-2.6c0.2-5.6,0.4-11.2,0.6-16.8c0.1-1.7,0.3-3.4,0.6-5c0.5-2.4,1.9-3.5,4.4-3.7
			c0.4,0,0.8,0,1.2,0c3.7,0.1,4.5,1.3,4.3,4.9c-0.5,8.5-0.8,16.9-1.1,25.4c0,0.3,0,0.6,0.1,1c0.9,3.8,1.7,7.6,3,11.4
			c0.3-1,0.7-1.9,1-2.9c0.8-2.6,2.3-4.5,4.7-5.8c2-1.1,4.1-2.1,6.2-3.2c1.2-0.6,2.1-0.3,3,0.5c1.4,1.4,3,2.7,4.4,4
			c1.2,1.1,1.4,2.1,0.2,3.3c-1.5,1.6-3.2,2.9-4.7,4.4c-0.8,0.8-1.7,1.5-2.1,2.5c-2,4.3-3.9,8.6-5.8,12.9c-1,2.4-1.2,5-1.1,7.5
			c0,1.8-0.4,3.3-1.6,4.6c-1.8,2-2.6,4.3-2.5,7c0.1,3.1,0,6.2,0,9.5c0.7-0.2,1.3-0.4,2-0.5c1.4-0.2,2.1,0.4,2.2,1.8
			c0,0.2,0,0.5,0,0.7c-0.8,7.2,0,14.4,1,21.5c1.6,11.5,3.9,22.8,7,34c0.2,0.6,0.4,1.2,0.7,2c0.7-0.6,1.2-1,1.7-1.5
			c11-10.8,21.3-22.2,30.5-34.4c1.8-2.4,3.4-4.8,4.9-7.4c2.3-3.9,5.4-6.5,9.8-7.3c5.7-1,11.3-1.9,17-2.9c0.6-0.1,1.3-0.1,2-0.2
			c0-1.8,1.2-2.4,2.6-2.9c5.5-2,10.9-4.1,16.4-6.2c1.7-0.7,3.3-0.9,5.1-0.6c1.1,0.2,2.3,0.2,3.7,0.4c0.1-4.4-0.7-8.3-1.5-12.5
			c-1.1,0.1-2.1,0.2-3.1,0.3c-6.6,0.7-13.1,0.6-19.5-1.3c-2.4-0.7-4.8-1.8-6.9-3.2c-3.2-2.1-5-5.1-4-9.2c1.6-6.7,3-13.4,4.5-20.1
			c2.2-9.3,4.4-18.5,6.6-27.8c0.1-0.5,0.2-1.1,0.2-1.7c-2.2-0.6-4.3-1.1-6.3-1.7c-2.2-0.7-4.4-1.4-6.5-2.4c-3.7-1.9-3.9-6-0.3-8.1
			c2-1.2,4.2-1.9,6.4-2.7c1.7-0.6,3.5-1.2,5.3-1.4c1.8-0.2,2.5-1.2,3.1-2.8c2-5.4,4.1-10.8,6-16.2c2-5.6,4.8-10.8,8.3-15.6
			c1.5-2.1,3.4-3.7,5.7-5.1c5.8-3.4,12.2-5.1,18.8-6.3c5.8-1,11.6-1.7,17.4-0.4c7.9,1.7,15.4,4.3,21.8,9.4c3.8,3.1,6.5,6.8,7.8,11.5
			c2.3,8.6,4.7,17.3,5.1,26.3c0.1,1.3,0.5,2.1,1.7,2.5c1,0.4,2,0.7,2.9,1.1c2.8,1.4,5.7,2.6,8.3,4.2c1.4,0.8,2.6,2.2,3.4,3.6
			c1.4,2.3,0.6,4.2-1.8,5.2c-1.3,0.6-2.7,1-4.1,1.3c-2.9,0.7-5.9,1.4-9,2.1c0.8,3.5,1.6,6.9,2.5,10.2c2.9,11.4,4.7,23,6,34.7
			c0.5,4.4-1.3,7.6-4.6,10.1c-3.4,2.6-7.4,3.8-11.6,4.2c-6.2,0.7-12.3-0.2-18.1-2.4c-0.6-0.2-1.2-0.4-2.1-0.7
			c-0.4,4.1-0.9,8,0.3,11.9c0.3,0.9,0.7,1.4,1.7,1.4c0.8,0,1.6,0.3,2.4,0.3c1.6,0.1,2.8,0.9,3.9,2.1c4.1,4.3,8.7,8,13.7,11.2
			c0.8,0.5,1.6,1,2.4,1.5c1.9,1.2,2,1.5,1.2,3.8c2.8,0.7,5.7,1.3,8.5,2.2c5.9,1.9,11.7,4,17.5,5.9c1.2,0.4,1.9,1.1,2.3,2.2
			c0.4,1.3,0.9,2.6,1.3,3.9c2.9,11.6,5.9,23.2,8.6,34.9c3.7,16.1,6.9,32.4,10.6,48.5c2.2,9.6,4.8,19.1,7.2,28.6
			c3,11.9,5.8,23.9,9.6,35.6c4.5,14.2,8.9,28.4,13.4,42.5c2.1,6.4,4.5,12.6,7.7,18.6c1.1,2,0.8,3.3-0.9,4.9
			c-0.6,0.6-1.4,1.1-2.1,1.6c-0.7,0.5-1.3,0.9-2.3,1.5c0.6,0.6,1.1,1.2,1.6,1.7c5.7,5.5,11.4,11,16.9,16.7c2.1,2.1,4.1,4.5,6,6.9
			c2,2.6,2.7,5.4,0.9,8.7c0.7,0.7,1.4,1.5,2,2.3c2.1,2.5,4.3,5,6.3,7.5c1.4,1.7,2,3.6,0.7,5.8c1.6,1.7,4.1,2.4,4.9,4.8
			C532,475,532,475.6,532,476.3z M220.9,152.3c-4-4.8-8.1-9.7-12.1-14.5c-1.9-2.3-3.1-4.8-3.7-7.7c-0.2-0.9-0.4-1.7-0.7-2.5
			c-1.5-4.1-3.1-8.2-4.6-12.3c-1.4-4-2.8-8-4.2-12c-0.4-1.2-1-2-2.3-2c-1.7,0-3.3,0.1-4.8,1.1c0,0.3,0,0.5,0.1,0.8
			c2.8,9.3,5.8,18.6,8.5,28c0.6,2,0.7,4.1,1,6.1c0.1,0.8,0.2,1.8,0.6,2.5c2.9,5.3,4.9,10.9,6.9,16.6c1.5,4.2,2.9,8.5,4.6,12.6
			c0.8,2,1.3,3.9,1,6c-0.4,3.9-0.8,7.8-1.2,11.7c-0.1,1.4-0.3,2.8-0.4,4.4c0.7-0.4,1-0.5,1.2-0.6c6.9-4.7,13.9-9.2,21.3-12.9
			c0.9-0.5,1.2-1.1,1.2-2.1c0-3.2,0.2-6.4,0.2-9.6c-0.1-3.2,0.8-6,2.9-8.4c1-1.2,1.3-2.5,1.3-4c0-2.4,0-4.8,1-7.1
			c2.2-4.8,4.3-9.6,6.7-14.3c0.5-1.1,1.6-1.9,2.5-2.8c1.4-1.3,2.8-2.5,4.3-3.8c-1.7-1.5-3.1-2.8-4.6-4.1c-1.9,1-3.7,1.9-5.4,2.8
			c-2,1.1-3.3,2.7-4,4.8c-1.2,3.6-2.4,7.3-3.6,10.9c-1.3-0.5-1.4-1.8-1.6-2.9c-1-4.5-1.8-8.9-2.8-13.4c-0.6-2.4-0.9-4.8-1-7.3
			c-0.1-7.9,0-15.8,0.8-23.7c0-0.4,0-0.9-0.1-1.3c-3.7-0.8-4.4-0.3-4.7,3.1c0,0.3-0.1,0.6-0.1,1c-0.3,6.2-0.6,12.3-0.7,18.5
			c-0.1,2.8-0.5,5.2-2.9,7c0.3,1,0.7,1.9,0.8,2.8c0.1,0.4-0.2,1.2-0.5,1.4c-0.7,0.4-1.2-0.1-1.5-0.7c-0.2-0.4-0.3-0.8-0.4-1.1
			c-0.5-1.9-1-3.9-1.5-5.8c-2.8-11.7-4.4-23.6-5.7-35.5c-0.1-1.2-0.4-2.3-0.6-3.8c-1.6,0.1-3.1,0.3-4.8,0.4c0,1.6-0.1,2.8,0,4.1
			c0.4,5.9,0.8,11.8,1.3,17.7c0.2,2.5,0.4,5,1,7.3c1.6,6,3.4,11.9,5.1,17.9c0.1,0.4,0,1.1-0.3,1.2c-0.4,0.2-1.3,0.2-1.5-0.1
			c-0.6-0.8-1-1.8-1.3-2.8c-0.6-1.9-0.9-3.9-1.5-5.8c-0.6-2-1.3-4-2-5.9c-2.9-7.8-5.9-15.5-8.9-23.3c-0.3-0.8-0.8-1.5-1.3-2.5
			c-1.3,0.5-2.5,0.9-3.8,1.4c0.3,2.8,0.6,5.4,0.8,8c0.1,1.6,0.1,3.1,1.8,4.2c0.6,0.4,0.9,1.3,1.2,2.1c3,7.9,5.6,16,7.6,24.2
			c0.6,2.6,1.5,5,2.8,7.5c1.6-0.7,3-1.4,4.5-2c1.5-0.7,2.9-1.3,4.4-2c1.5-0.7,2.9-1.4,4.4-2c1.4-0.6,2.6-1.8,4.3-1.5
			c0.4,1.1-0.4,1.5-1,1.7c-2.3,1.1-3.9,3.4-6.9,3.7c-2.2,0.2-4.3,1.7-6.4,2.6c-0.7,0.3-1.4,0.6-2.3,1c0.7,0.9,1.2,1.5,1.8,2.3
			c0.7-0.4,1.4-0.7,2.1-1c-0.2,1.3,0.5,1.2,1.2,1.1c3.5,0,7,0,10.5,0c0,0.1,0,0.2,0,0.2c-4,0.5-8,1-12.2,1.6c0.5,0.8,1,1.5,1.4,2.1
			c1.9,3,3.8,5.9,5.7,8.9C220.4,151,220.6,151.7,220.9,152.3L220.9,152.3z M295.4,392.8c0,1.6,0,3.1,0,4.6c0.3,17,0.4,34.1,0.8,51.1
			c0.3,12.2,0.8,24.3,1.1,36.5c0.5,15.5,1,31,1.2,46.5c0,4.7,1.3,8.4,4.6,11.6c0.5,0.5,1,1,1.5,1.6c1,0.9,2,1.8,2.9,2.8
			c1.3,1.4,1.4,2.5,0.5,4.1c-0.3,0.6-0.7,1.1-1.1,1.6c-0.9,1-1.2,2.2-1.1,3.6c0.2,2.3,0.3,4.6,0.7,6.9c2.2,12.8,4.5,25.7,6.7,38.5
			c3.5,20.7,6,41.5,6.1,62.5c0,1.2,0,2.4,0.2,3.6c0.3,1.6-0.2,2.8-1.2,3.9c-1.3,1.4-2.4,2.9-3.8,4.5c0.6,0.1,0.9,0.2,1.1,0.2
			c5.6,0.2,11.1,1.2,16.5,2.7c10.6,2.9,20.8,6.9,30.6,11.9c0.8,0.4,1.5,1.1,2.7,0.9c0-2,0-3.9,0-5.8c-0.1-13.7-0.3-27.4-0.4-41
			c0-2.3,0.2-4.6,0-6.9c-0.3-3.6-0.9-7.1-1.3-10.7c-1.7-14.7-3.4-29.4-5.1-44.1c-0.5-4.3-0.8-8.6-1.5-12.9
			c-0.6-3.6-1.2-7.1-1.1-10.7c0.1-2.1,0-4.2,0-6.6c-6.9,4.1-11.9,9.9-17.7,14.6c4-6.6,10.1-10.9,16.5-15.6c-2.1-0.4-3.8-0.7-5.4-1.1
			c-5.2-1.2-10.4-2.5-15.6-3.8c-1-0.3-2-0.7-2.8-1.3c-0.4-0.2-0.6-0.9-0.6-1.4c0-0.3,0.7-0.7,1.1-0.8c0.9-0.1,1.8-0.1,2.6,0
			c6.4,0.9,12.8,1.9,19.2,2.8c0.6,0.1,1.1,0.1,2.1,0.2c-0.8-1.4-1.4-2.4-2-3.4c-1.3-2.1-1.9-4.4-1.5-6.9c0.1-0.9,0.1-1.8,0.3-2.6
			c0.5-2.4,0.3-4.8,0-7.2c-0.8-6.4-1.8-12.9-2-19.3c-0.5-14.8-0.8-29.6-0.9-44.4c-0.1-9.5,0.3-19,0.6-28.6c0.1-2.6-0.7-4.3-2.9-5.7
			c-6.9-4.5-13.1-9.9-18.9-15.9c-1.5-1.6-3-3.4-4.3-5.1c-0.5-0.7-0.9-1.5-1.1-2.4c-0.1-0.4,0.3-1,0.5-1.4c0.5,0.2,1,0.4,1.3,0.7
			c2.5,2.8,4.9,5.7,7.6,8.3c5.4,5.4,11.4,10.1,17.7,14.3c1.9,1.3,2.9,2.9,3,5.1c0,1.8,0.1,3.7,0,5.5c-0.6,18.2-0.7,36.5-0.3,54.7
			c0.2,7.3,0.7,14.5,1.3,21.8c0.4,4.9,1.3,9.8,1.6,14.8c0.2,2.8-0.2,5.7-0.3,8.6c-1.6,1.8,0,2.6,1.1,3.5c1.9,1.6,3.8,3.2,5.8,4.7
			c7.1,5.5,14.6,10.3,23,13.8c2.1,0.9,4.4,1.6,6.5,2.3c0.7,0.3,1.7,0.3,1.4,1.8c-0.6,0.1-1.3,0.3-1.9,0.3c-1.3,0-2.6,0-3.8-0.1
			c-6.5-0.4-13.1-0.8-19.6-1.2c-0.8,0-1.7-0.4-2.5,0.4c3.3,1.9,6.5,3.7,9.7,5.5c-3.2-0.9-6.2-2.2-9.2-3.6c-0.9-0.4-1.7-0.9-2.4-1.5
			c-0.3-0.3-0.7-0.9-0.5-1.2c0.2-0.4,0.8-0.8,1.2-0.9c1.2-0.1,2.4,0,3.6,0.1c5.5,0.4,11,0.8,16.5,1.2c0.7,0,1.4,0,2.2,0
			c-10.5-4.5-19.8-10.5-28.2-18c1.2,2.7,1.2,5.5,1.2,8.3c0,3-0.1,6.1,0.3,9.1c2.1,19,4.2,38,6.5,57c2,17.2,4.5,34.2,8,51.2
			c1.1,5.6,2.3,11.1,1.7,16.9c-0.1,0.9-0.1,1.8-0.2,3c1-0.3,1.8-0.5,2.5-0.8c2.8-1,5.6-2,8.4-2.9c6.7-2.3,13.6-3.8,20.6-4.1
			c8.7-0.4,17.3,0.4,25.8,1.7c0.8,0.1,1.5,0.2,2.6,0.3c-0.3-0.9-0.4-1.5-0.6-2.1c-0.6-2-1.3-3.9-1.8-6c-4-15.6-7.8-31.2-10.5-47
			c-1.8-11-2.8-22-1.4-33.2c0.8-5.9,0.6-11.8-0.6-17.7c-3.9-18.3-5.6-36.8-6.3-55.5c-0.7-19.3-1.1-38.7-1.4-58.1
			c-0.4-22-0.6-44-0.9-66c0-0.8-0.1-1.7-0.2-2.5c-4.4,0.9-8.4,1.7-12.8,2.5c4,5.6,7.3,11.2,10.1,17.2c-4.2-4.6-8.2-9.3-11.1-14.7
			c-1-1.8-2.1-2.4-4.2-2.1c-9,1-18,1-27.1,0c-6.8-0.8-13.4-2.3-19.6-5.3c-1.9-0.9-3.8-1.1-5.8-0.8c-5.1,0.7-10.3,1.5-15.4,2.1
			c-6.6,0.8-13.3,1.1-19.8-0.3C302.5,394.9,299.2,393.8,295.4,392.8z M435.6,388.6c12.7,3.8,40.4,1.9,48.4-3.1
			c-0.2-0.7-0.4-1.3-0.6-2c-3.2-10.2-6.3-20.5-9.5-30.7c-3.4-11.2-6.5-22.6-9.2-34c-3.4-14.2-7.1-28.4-10.5-42.6
			c-4.3-18.5-7.6-37.3-12.5-55.7c-1.5-5.8-2.9-11.6-4.3-17.5c-0.4-1.8-1.3-2.8-3.1-3.5c-8.2-3.3-16.6-5.8-25.1-8.1
			c-1.3-0.4-2.2-0.2-3.4,0.5c-8.8,5.7-17.7,11.2-26.5,16.9c-2,1.3-3.5,1.3-5.4-0.1c-2.5-1.9-5.1-3.5-7.8-5.2c-1.5-1-3.2-1.2-5.1-0.5
			c-6,43.7-9.3,87.6-13.1,131.6c21.3,7.1,42.5,6.1,63.8,1.7c0-2,0.1-3.9,0-5.7c-0.6-15.8-0.9-31.7-0.3-47.5
			c0.2-5.3,0.9-10.3,3.2-15.1c0.5-1.1,0.8-2.3,0.9-3.4c0.7-5.9,1.2-11.9,2.2-17.9c1.4-8.4,3.1-16.7,4.8-25c0.5-2.4,1.3-4.7,2.7-6.8
			c-0.3,7.5-2.5,14.7-3.8,22c-1.3,7.5-2.7,14.9-4,22.4c0.2,0.1,0.4,0.1,0.6,0.2c0.9-1.9,1.8-3.8,2.8-5.7c1-1.9,2-3.9,3-5.7
			c1-1.8,1.7-3.9,3.3-5.4c1,0.9,0.4,1.6,0.1,2.3c-1.7,4.4-3.4,8.8-5.1,13.2c-2,5.2-4.2,10.4-6.1,15.6c-1.4,3.8-1.8,7.8,0.5,11.5
			c0.6,0.9,0.9,2,1.4,3.1c2.1,4.3,3.2,8.8,3.7,13.6c0.8,8.2,1.7,16.4,3,24.5c2.3,14.8,4.9,29.5,7.4,44.2
			C433.2,376.7,434.4,382.6,435.6,388.6z M345,334.4c3.7-43.6,6.9-87.2,12.8-131c-1.3,0.8-2.2,1.3-3,1.9c-1.7,1.4-3.4,2.9-5.1,4.3
			c-2,1.6-3,1.4-4.5-0.8c-0.7-1.1-1.3-2.2-2.3-3.1c-7.7-7-15.4-14-23.1-21c-0.7-0.7-1.5-0.8-2.4-0.7c-7.3,0.5-14.5,1.5-21.5,3.3
			c-2.9,0.8-4.9,2.5-6.4,5.1c-1.6,2.7-3.2,5.6-5.2,8c-5.6,7-11.3,13.9-17.3,20.6c-5.2,5.9-10.6,11.5-16.9,16.3
			c0.5,1.6,0.8,3.2,1.4,4.7c1.8,4.8,3.7,9.5,5.6,14.3c0.3,0.8,0.6,1.5,0.9,2.3c-0.2,0.1-0.3,0.2-0.5,0.2c-3.9-2.6-4.7-7.4-7.2-11.5
			c-0.2,1.4-0.3,2.4-0.4,3.3c-0.5,5.2-1,10.3-1.6,15.5c-0.3,2.5-0.5,4.9-1.8,7.2c-0.1-2-0.1-4,0.2-6c0.9-6.8,1.8-13.6,2.7-20.5
			c0.1-1.1,0.1-2.4-0.2-3.5c-3.5-10-5.9-20.2-8-30.6c-0.1-0.5-0.3-1-0.6-1.7c-12.2,10.8-25.4,19.5-40.2,25.8
			c0.1,0.6,0.1,1.1,0.2,1.5c1.2,4.3,2.3,8.7,3.6,12.9c3.5,11,8.1,21.6,14.8,31c4.5,6.3,9.7,11.9,16.4,16c0.9,0.5,1.8,1,2.7,1.5
			c2.3-2.2,4.5-4.4,6.8-6.3c4.8-4.1,9.7-8.1,14.6-12.1c11.5-9.4,22.8-19.1,33.2-29.8c1.8-1.9,2.3-6.1,1-8.2
			c-3.4-5.3-6.8-10.7-10.2-16c-0.4-0.6-0.8-1.1-1.2-1.7c-0.1,0-0.2,0.1-0.3,0.1c1.8,5.7,3.5,11.3,5.4,17.3c-0.4-0.3-0.6-0.4-0.6-0.5
			c-2.5-6.3-5-12.6-7.4-19c-0.2-0.6-0.3-1.3-0.3-1.9c0.1-1.2,1.1-1.7,2-0.9c0.9,0.8,1.6,1.8,2.2,2.8c3.2,5.3,6.4,10.7,9.6,16
			c0.4,0.6,0.8,1.3,1.5,2.4c0.1-1.1,0.2-1.7,0.2-2.2c0.1-3.7,0.2-7.4,0.2-11c0.1-4.9,0.2-9.8,0.3-14.6c0-0.9-0.2-1.9,1-2.7
			c0.9,1.8,0.9,3.6,0.9,5.3c0.1,10.3,0.4,20.6,0.2,30.9c-0.2,8.5-0.9,16.9-1.9,25.4c-1.9,16.8-4.2,33.5-6.4,50.2
			c-0.2,1.9-0.4,3.9-0.6,5.8C300.6,334.8,332,337.6,345,334.4z M332.8,98.7c0,2.4-0.1,4.8,0,7.3c0.2,3.3-0.3,6.4-2.1,9.2
			c-0.6,1-0.7,2-0.6,3.2c0.6,7.2,1.3,14.3,1.6,21.5c0.1,3.6,1.2,6.3,3.7,8.7c4.7,4.4,9.4,8.6,14.9,12.1c3.4,2.1,7.1,2.8,11,1.8
			c1.7-0.5,3.4-1,5-1.6c7.2-2.6,14.4-5.3,20.9-9.5c4.3-2.8,7.3-6.7,9.2-11.4c1-2.6,1.9-5.3,2.8-7.9c1.2-3.7,2-7.6,2.4-11.4
			c-0.3-0.3-0.5-0.5-0.7-0.6c-5.3-3-4.9-2.9-5.8-9.2c-0.1-0.4-0.1-0.8-0.1-1.2c-0.3-2.5-0.5-5-0.8-7.5c-10.4-0.4-20.5-0.8-30.6-1.3
			C353.4,100.2,343.2,99.4,332.8,98.7z M323.6,720.2c6.4-0.5,12.7-0.9,19.1-1.5c4.9-0.5,9.6-1.8,14.1-3.8c3.2-1.4,5.2-3.6,5.8-7.1
			c0.5-2.9,1-5.8,1.5-8.7c0.3-2-0.5-3.5-2.3-4.4c-7.5-3.9-15.4-7.1-23.4-9.8c-5.9-2-11.9-3.5-18.1-4.3c-2.3-0.3-4.3-0.2-6.5,0.7
			c-2.1,0.9-4.4,1.5-6.7,1.9c-2.7,0.5-5.6,0.6-8.3,1.2c-10.3,2.3-16.5,9.3-20.2,18.7c-1.7,4.2-1,5.8,2.8,8.2c4.5,2.9,9.4,4.8,14.6,6
			C305.1,719.4,314.3,719.7,323.6,720.2z M397.6,687.8c-4.9,0.4-9.3,2-13.8,3.4c-1.4,0.4-1.9,1.3-2,2.6c-0.3,2.7-0.6,5.4-0.9,8.1
			c-0.6,4.7,0.5,8.8,3.6,12.5c2,2.2,4.3,3.8,7.1,4.8c3.8,1.3,7.8,1.7,11.8,2.1c13,1.4,25.9,0.5,38.6-2.2c3.2-0.7,6.4-1.5,9.2-3.2
			c3.4-2.1,4.2-4.2,3.3-8.1c-0.7-2.9-2.2-5.3-4.3-7.4c-3.2-3-6.5-6-9.7-9c-2.1-2-4.7-2.9-7.4-3.3c-5.3-0.7-10.7-1-16-1.8
			c-5-0.7-9.6,0.3-13.9,2.5c-4.6,2.3-9,4.8-13.5,7.2c-0.6,0.3-1.3,0.7-2.3,1.2c1.1-3,2.5-5.1,5.1-6.4
			C394.2,690,395.9,688.8,397.6,687.8z M414.5,364.9c-23.7,6.9-46.3,4.1-68.1-7.2c-0.1,0.5-0.2,0.8-0.2,1.1
			c-0.5,9.3-0.9,18.7-1.3,28c-0.2,3.8-0.1,3.9,3.6,5.3c7.2,2.9,14.7,4.4,22.4,4.9c9.3,0.7,18.5,0.3,27.8-1c4.3-0.6,8.5-1.5,12.7-2.6
			c4-1.1,6-3.7,6-7.7c0-1.4,0.1-2.9-0.1-4.3C416.4,376.1,415.5,370.6,414.5,364.9z M476.1,476.7c-0.7-4.1-1.4-8-2-11.8
			c-0.3-2.2-0.6-4.5-0.6-6.7c0-2.8,2.5-4.2,5.1-3c0.6,0.3,1.2,0.7,1.8,1.2c2.5,1.9,5,3.7,7.5,5.7c7.1,5.5,14.1,11,21.2,16.5
			c1.1,0.9,2.4,1.6,3.6,2.3c1.1,0.6,2.2,0.4,3.2-0.3c1.4-1.1,1.5-4.8,0.1-6.1c-1.2-1.1-2.4-2.1-3.7-3.1
			c-7.8-6.5-15.6-13.1-22.5-20.6c-1.2-1.4-2.4-2.8-3.5-4.3c-0.4-0.5-0.9-1.2,0-1.9c0.2,0,0.5,0,0.7,0.2c0.5,0.3,0.9,0.7,1.3,1.1
			c8.9,9.1,18.5,17.5,28.5,25.4c2.7,2.2,3.8,4.6,2.9,7.9c0,0.1,0.1,0.3,0.1,0.5c0.9,0.3,1.8,0.7,2.7,0.9c2.3,0.6,4.8-0.4,5.6-2.4
			c1.6-3.6,1-3.3-1.4-5c-8.2-5.7-16.1-11.8-23.2-18.9c-2.4-2.4-4.5-5.2-6.7-7.8c-0.7-0.8-1-2-1.4-3c-0.1-0.3,0.1-0.8,0.3-1.7
			c4.3,5.7,9,10.2,14,14.5c7.9,6.9,13.4,11.1,15.9,11.9c-0.4-0.9-0.5-1.7-0.9-2.3c-0.6-0.9-1.2-1.7-1.9-2.4
			c-5.9-6.1-11.8-12.2-17.6-18.3c-1.2-1.2-2.3-2.4-3.4-3.7c-0.7-0.9-1.4-1.9-1.1-3.4c6.4,3.7,10.4,9.7,15.8,14.3
			c0.6-1.8,0-3.2-0.9-4.4c-1.5-1.9-3.1-3.9-4.8-5.6c-6.8-6.7-13.6-13.3-20.5-19.9c-0.2-0.2-0.5-0.4-0.8-0.6c-9.7,4-19.8,6-30.6,5.8
			c-0.3,5-0.7,9.8-0.9,14.6c0,1,0.7,2.1,1.3,3c1.2,1.8,2.6,3.4,4,5.1c1,1.2,1.5,2.6,1.7,4.1c1.1,6.2,2.3,12.4,3.5,18.6
			c0.2,0.8,0.5,1.9,1.1,2.2C471.4,476,473.5,476.9,476.1,476.7z M343.2,356.7c-3.5,0.5-6.9,0.8-10.3,1.3c-7.5,1.2-15,1.5-22.5,1.2
			c-8.3-0.3-16.4-1.6-24.1-4.8c-0.3-0.1-0.6-0.1-0.9-0.2c-0.2,0.3-0.3,0.5-0.4,0.7c-1.5,6.1-2.7,12.2-3.1,18.4
			c-0.2,2.7,0.4,4.9,2.1,6.9c0.8,1,1.7,1.9,2.6,2.8c5.3,4.8,11.5,7.8,18.4,9.3c5.7,1.2,11.4,1.3,17.2,0.8c5.5-0.5,11-1.2,16.4-1.8
			c1.2-0.1,2.3-0.5,3.3-0.7C342.4,379.1,342.8,368,343.2,356.7z M387.5,87.1c0.4-1.1,0.7-1.9,1-2.8c2.1-6.9,3.3-14,3.8-21.2
			c0.4-6.6,0.4-13.3-0.4-19.9c-0.1-1.2-0.3-2.3-1.7-2.8c-4.7-1.8-9.4-3.6-14.4-4.4c-5.5-0.9-10.9-0.4-16.2,0.8
			c-4,0.8-7.9,2-11.8,3.1c-1.4,0.4-2,1.3-2.2,2.7c-1.1,7.1-2.4,14.2-3.3,21.3c-0.9,6.7-1.1,13.5-0.9,20.5
			C356.5,87.5,371.8,87.9,387.5,87.1z M346.6,353.9c21.7,11.6,44,14.6,67.6,7.6c-0.6-7.3-1.3-14.4-1.9-21.7
			c-10.8,1.9-21.5,3.5-32.3,3.3c-10.9-0.1-21.6-1.6-32.1-5.1C347.4,343.4,347,348.6,346.6,353.9z M358.6,198.8
			c3.7-1.7,25.6-19.5,28.1-22.8c-4.8-5.1-5-11.3-3.9-18.2c-1.2,0.5-1.9,0.8-2.6,1.1c-5.1,2-10.3,4-15.4,6
			c-6.3,2.4-12.1,1.4-17.5-2.4c-0.6-0.4-1.3-0.8-2.1-1.3c0,0.8-0.1,1.2,0,1.6c0.9,5.7,1,11.3-0.2,16.9c-0.1,0.6,0.3,1.5,0.7,2.1
			c1.4,2.1,2.8,4.1,4.3,6.1C352.8,191.5,355.7,195.1,358.6,198.8z M285.6,350.7c0.4,0.3,0.6,0.5,0.8,0.6c0.6,0.2,1.2,0.5,1.8,0.7
			c9.5,3.5,19.5,4.4,29.5,4c6.5-0.3,12.9-1.1,19.3-1.8c2.2-0.2,4.4-0.7,6.6-1.1c0.4-5.1,0.7-10,1.1-14.8c-19.4,1.4-38.4,0.6-57-5.8
			C286.9,338.6,286.3,344.6,285.6,350.7z M199.6,234.3c0.5-0.1,0.7,0,0.9-0.1c14.2-6.5,27-15.2,38.7-25.6c0.8-0.7,0.9-1.4,0.8-2.3
			c-0.7-4.7-1.3-9.5-2-14.2c-0.1-0.5-0.2-1-0.4-1.8c-13,10-26.7,18.5-41.2,25.7C197.3,222.3,198.2,228.3,199.6,234.3z M387.3,155.4
			c5.7,1,11,2.2,16.5,1.9c3.2-0.2,6.3-0.8,9.3-2.2c2.1-1,4-2.3,5.3-4.3c0.9-1.3,1.2-2.7,1.1-4.3c-1.1-12-3.1-23.9-5.6-35.7
			c-0.7-3.3-1.4-6.5-2.1-10c-1.4,0.1-2.6,0.2-3.9,0.4c-0.2,0.9-0.4,1.6-0.5,2.3c-0.7,4.7-1.4,9.3-2.1,14c-1.1,7.9-2.7,15.6-5.6,23
			c-2.2,5.5-5.4,10.1-10.3,13.5C388.7,154.3,388.2,154.7,387.3,155.4z M490,403c-16.3,5.2-32.8,8.7-50.3,6.9
			c0.5,2.4,0.8,4.5,1.3,6.6c1,4.9,1,5,6,6c7.3,1.6,14.8,1.8,22.2,0.9c7.8-0.9,15.4-2.9,22.4-6.7c1.2-0.7,2.4-1.5,3.5-2.3
			C493.4,410.5,491.8,406.9,490,403z M338.8,156c-0.9-0.9-1.5-1.4-2-1.9c-1.8-1.7-3.5-3.4-5.2-5.2c-1.8-1.9-2.6-4.3-2.7-7
			c-0.2-10.7-1.1-21.4-2.9-31.9c-0.6-3.9-1.5-7.8-2.2-11.8c-0.2-1.1-0.5-1.9-2-1.4c-0.1,0.5-0.3,1-0.4,1.5
			c-2.5,11.6-4.9,23.1-7.4,34.7c-0.9,4.3-1.8,8.6-2.7,12.9c-0.6,2.9,0.5,5,2.9,6.5c1.6,1,3.4,1.8,5.2,2.4c4.5,1.5,9.2,1.8,14,1.7
			C335,156.3,336.6,156.1,338.8,156z M484.8,388.1c-8,2.8-15.9,4.5-24.1,5.1c-8.1,0.7-16.2,0.1-24.5-1.5c1.1,5.4,2,10.4,3,15.4
			c17.3,1.9,33.7-1.5,50.1-6.3C487.8,396.6,486.3,392.5,484.8,388.1z M363.2,199.7c5.5,1.1,9.1,4.9,13.7,7.5
			c10.2-6.5,20.4-13,30.6-19.5c-5.2-4.1-10.2-7.9-15.3-11.9C382.7,183.6,373.1,191.5,363.2,199.7z M422.2,90.2c0-0.2,0-0.3,0-0.5
			c-2.4-1.2-4.8-2.2-7-3.5c-1.8-1-3.3-1-5.2-0.4c-5.3,1.6-10.7,2.5-16.2,3.1c-11.2,1.2-22.3,1.3-33.5,0.4c-12.9-1-25.5-3.3-37.2-8.9
			c-4,1.5-8.4,1.7-12.6,4.2c2.3,1,4.1,1.8,5.9,2.5c6.7,2.3,13.7,3.3,20.6,4.1c15.3,1.8,30.7,2.9,46.1,3.1c8.8,0.1,17.6,0.1,26.3-1.1
			C413.8,92.6,418.1,91.9,422.2,90.2z M388.8,87c7.6-0.5,14.7-1.6,22.3-2.7c-1.9-1.5-1.7-3.3-1.9-5c-0.9-8.7-2.9-17.1-5.3-25.5
			c-0.9-3.2-2.8-5.9-5.5-8c-1.2-0.9-2.4-1.8-3.7-2.7c-0.4-0.3-0.9-0.4-1.6-0.7C395,57.6,394,72.3,388.8,87z M358,200.7
			c-8.7-7.9-14.5-17.6-21-27c-5.9,2.3-11.5,4.4-17.6,6.8c1.7,1.5,3,2.8,4.3,4c8.1,7.5,17,14.2,24.3,22.8
			C351.2,205.1,353.6,201.6,358,200.7z M454.6,717.8c-0.5,0.2-0.8,0.3-1.2,0.5c-2.6,1.6-5.5,2.6-8.4,3.4c-16,3.9-32.1,4.5-48.3,2.1
			c-5-0.7-9.8-2.3-13.5-6.1c-0.2-0.2-0.4-0.2-0.8-0.3c0.6,4.3,2,7.8,6.6,9.1c0.8,0.2,1.7,0.6,2.5,0.9c13.2,3.9,26.6,5.2,40.3,4.7
			c5.4-0.2,10.6-1.4,15.5-3.7c2.1-1,4-2,5.5-3.9C454.4,722.4,455,720.4,454.6,717.8z M237.6,178.1c-1,0.4-1.7,0.7-2.4,1
			c-4,2.2-8,4.3-11.9,6.7c-9.4,5.7-18.2,12.2-27,18.8c-0.6,0.5-1.4,0.8-1.3,1.9c0.3,2.3,0.6,4.5,1,7c1-0.5,1.8-0.8,2.4-1.2
			c6.5-3.8,13.1-7.4,19.4-11.4c6.2-3.9,12.1-8.4,18.1-12.6c0.8-0.6,1.7-1.1,1.6-2.4C237.5,183.4,237.6,180.9,237.6,178.1z
			 M339.8,84.3c-0.8-14.6,1.1-28.5,4.3-42.6c-2.8,1.1-4.7,2.6-6.2,4.6c-2.9,3.9-5.2,8.1-6.9,12.6c-2.1,5.5-4.1,11.1-6,16.7
			c-0.4,1.2-0.6,2.4-0.9,3.9C329.4,81.2,334.4,82.7,339.8,84.3z M279.1,714c-0.7,4.3,0.7,7.2,4.3,8.9c4.2,2,8.6,2.9,13.2,3.4
			c17,1.7,33.9,1.1,50.7-1.4c2.2-0.3,4.4-0.9,6.5-1.7c2.7-1,4.7-3,6.4-6c-0.8,0.2-1,0.3-1.3,0.4c-6.3,2.9-13,4.3-19.9,4.9
			c-12,1.1-24,0.9-35.9-0.6c-8.2-1-16-3.2-23.1-7.6C279.8,714.2,279.5,714.1,279.1,714z M426,93.9c-1-2.5-1.1-2.6-3-1.9
			c-1.2,0.4-2.4,0.9-3.6,1.2c-6.9,1.9-14,2.8-21.1,2.8c-10.5,0.1-21,0-31.4-0.4c-13.1-0.6-26.2-1.6-39.1-3.9
			c-4.5-0.8-9-2.1-13.4-3.5c-2.1-0.6-4-2-5.9-3c-2,1.6-2.1,2.8,0.1,3.9c1.7,0.9,3.5,1.5,5.4,2.1c12.4,3.5,25.2,5,38.1,5.8
			c7.7,0.5,15.5,0.7,23.2,1.2c9.2,0.5,18.4,0.8,27.6,0.2c6.9-0.4,13.7-1.3,20.3-3.4C424,94.8,424.9,94.4,426,93.9z M402.3,117.4
			c1-5.4,1.9-10.5,2.9-16c-3,0.2-5.7,0.3-8.4,0.5c0,0.9-0.1,1.6,0,2.2c0.4,2.8,1,5.7,1.2,8.5C398.2,115.3,399.7,116.6,402.3,117.4z
			 M337.4,546.5c6,2.3,12.3,3.4,18.8,5c-0.1-1.2-0.2-2.2-0.2-3C349.6,547.8,343.5,547.2,337.4,546.5z M329.4,111.6
			c0.2,0,0.4,0,0.5,0c1.3-4.4,0.4-9,0.7-13.7c-1.3-0.2-2.5-0.3-3.9-0.5C327.6,102.3,328.5,107,329.4,111.6z M343.3,173.5
			c-1.2-0.2-2.1-0.4-3.6-0.7c1.2,1.7,2,2.9,3.1,4.6C343,175.8,343.1,174.8,343.3,173.5z M391.8,172.5c-1.6-0.2-2.7-0.4-4.4-0.6
			c0.9,1.2,1.4,1.8,2,2.7C390.2,173.8,390.8,173.3,391.8,172.5z"/>
		<path class="st0" d="M295.4,392.8c3.8,1,7,2.1,10.4,2.8c6.6,1.4,13.2,1.1,19.8,0.3c5.2-0.6,10.3-1.4,15.4-2.1
			c2-0.3,3.8-0.1,5.8,0.8c6.2,3,12.8,4.5,19.6,5.3c9,1,18,1,27.1,0c2-0.2,3.2,0.3,4.2,2.1c2.9,5.5,6.9,10.1,11.1,14.7
			c-2.8-6-6-11.6-10.1-17.2c4.4-0.9,8.4-1.7,12.8-2.5c0.1,0.9,0.2,1.7,0.2,2.5c0.3,22,0.5,44,0.9,66c0.4,19.4,0.8,38.7,1.4,58.1
			c0.6,18.6,2.4,37.2,6.3,55.5c1.2,5.9,1.4,11.8,0.6,17.7c-1.5,11.2-0.5,22.2,1.4,33.2c2.6,15.9,6.5,31.5,10.5,47c0.5,2,1.2,4,1.8,6
			c0.2,0.6,0.3,1.2,0.6,2.1c-1-0.1-1.8-0.2-2.6-0.3c-8.6-1.3-17.1-2.1-25.8-1.7c-7.1,0.3-13.9,1.8-20.6,4.1
			c-2.8,0.9-5.6,1.9-8.4,2.9c-0.7,0.3-1.5,0.5-2.5,0.8c0.1-1.1,0.1-2,0.2-3c0.6-5.7-0.6-11.3-1.7-16.9c-3.4-16.9-6-34-8-51.2
			c-2.2-19-4.4-38-6.5-57c-0.3-3-0.2-6.1-0.3-9.1c0-2.8,0-5.6-1.2-8.3c8.5,7.5,17.7,13.6,28.2,18c-0.7,0-1.5,0-2.2,0
			c-5.5-0.4-11-0.8-16.5-1.2c-1.2-0.1-2.4-0.2-3.6-0.1c-0.4,0-1,0.5-1.2,0.9c-0.1,0.2,0.2,0.9,0.5,1.2c0.7,0.6,1.6,1.1,2.4,1.5
			c3,1.4,6,2.6,9.2,3.6c-3.2-1.8-6.4-3.6-9.7-5.5c0.8-0.8,1.7-0.5,2.5-0.4c6.5,0.4,13.1,0.8,19.6,1.2c1.3,0.1,2.6,0.1,3.8,0.1
			c0.7,0,1.3-0.2,1.9-0.3c0.2-1.4-0.7-1.5-1.4-1.8c-2.2-0.8-4.4-1.4-6.5-2.3c-8.3-3.5-15.9-8.3-23-13.8c-2-1.5-3.9-3.1-5.8-4.7
			c-1.1-0.9-2.7-1.7-1.1-3.5c0.1-2.9,0.5-5.7,0.3-8.6c-0.4-4.9-1.2-9.8-1.6-14.8c-0.6-7.3-1.1-14.5-1.3-21.8
			c-0.5-18.2-0.3-36.5,0.3-54.7c0.1-1.8,0-3.7,0-5.5c0-2.3-1-3.9-3-5.1c-6.4-4.2-12.3-8.9-17.7-14.3c-2.7-2.6-5-5.5-7.6-8.3
			c-0.3-0.3-0.9-0.5-1.3-0.7c-0.2,0.5-0.6,1-0.5,1.4c0.2,0.8,0.6,1.7,1.1,2.4c1.4,1.8,2.8,3.5,4.3,5.1c5.7,6,11.9,11.4,18.9,15.9
			c2.2,1.5,3,3.2,2.9,5.7c-0.3,9.5-0.6,19-0.6,28.6c0.1,14.8,0.4,29.6,0.9,44.4c0.2,6.5,1.3,12.9,2,19.3c0.3,2.4,0.5,4.8,0,7.2
			c-0.2,0.9-0.1,1.8-0.3,2.6c-0.4,2.5,0.2,4.7,1.5,6.9c0.6,1,1.2,2,2,3.4c-0.9-0.1-1.5-0.1-2.1-0.2c-6.4-1-12.8-1.9-19.2-2.8
			c-0.9-0.1-1.8-0.1-2.6,0c-0.4,0.1-1,0.5-1.1,0.8c0,0.5,0.2,1.2,0.6,1.4c0.9,0.5,1.8,1,2.8,1.3c5.2,1.3,10.4,2.6,15.6,3.8
			c1.6,0.4,3.3,0.7,5.4,1.1c-6.3,4.7-12.5,9.1-16.5,15.6c5.8-4.7,10.8-10.5,17.7-14.6c0,2.4,0,4.5,0,6.6c-0.1,3.6,0.5,7.1,1.1,10.7
			c0.7,4.3,1,8.6,1.5,12.9c1.7,14.7,3.4,29.4,5.1,44.1c0.4,3.6,1,7.1,1.3,10.7c0.2,2.3,0,4.6,0,6.9c0.1,13.7,0.3,27.4,0.4,41
			c0,1.9,0,3.8,0,5.8c-1.2,0.2-1.9-0.5-2.7-0.9c-9.8-5-20-9-30.6-11.9c-5.4-1.5-10.9-2.5-16.5-2.7c-0.3,0-0.6-0.1-1.1-0.2
			c1.4-1.6,2.6-3.1,3.8-4.5c1-1.2,1.5-2.4,1.2-3.9c-0.2-1.2-0.2-2.4-0.2-3.6c0-21-2.6-41.8-6.1-62.5c-2.2-12.9-4.5-25.7-6.7-38.5
			c-0.4-2.3-0.5-4.6-0.7-6.9c-0.1-1.3,0.3-2.5,1.1-3.6c0.4-0.5,0.8-1,1.1-1.6c0.9-1.6,0.8-2.7-0.5-4.1c-0.9-1-2-1.9-2.9-2.8
			c-0.5-0.5-1-1.1-1.5-1.6c-3.3-3.2-4.6-6.9-4.6-11.6c-0.1-15.5-0.7-31-1.2-46.5c-0.4-12.2-0.9-24.3-1.1-36.5
			c-0.4-17-0.6-34.1-0.8-51.1C295.4,395.9,295.4,394.4,295.4,392.8z"/>
		<path class="st0" d="M435.6,388.6c-1.1-6-2.3-12-3.4-18c-2.5-14.7-5.1-29.5-7.4-44.2c-1.3-8.1-2.2-16.3-3-24.5
			c-0.5-4.8-1.7-9.3-3.7-13.6c-0.5-1-0.8-2.1-1.4-3.1c-2.3-3.8-1.9-7.7-0.5-11.5c1.9-5.3,4.1-10.4,6.1-15.6
			c1.7-4.4,3.4-8.8,5.1-13.2c0.3-0.7,0.9-1.4-0.1-2.3c-1.6,1.5-2.3,3.6-3.3,5.4c-1.1,1.9-2.1,3.8-3,5.7c-1,1.9-1.8,3.8-2.8,5.7
			c-0.2-0.1-0.4-0.1-0.6-0.2c1.3-7.5,2.7-14.9,4-22.4c1.3-7.3,3.5-14.5,3.8-22c-1.4,2.1-2.2,4.4-2.7,6.8c-1.7,8.3-3.4,16.6-4.8,25
			c-1,5.9-1.4,11.9-2.2,17.9c-0.1,1.2-0.4,2.4-0.9,3.4c-2.3,4.8-3,9.9-3.2,15.1c-0.6,15.8-0.3,31.7,0.3,47.5c0.1,1.8,0,3.7,0,5.7
			c-21.3,4.4-42.5,5.4-63.8-1.7c3.8-44,7.1-87.9,13.1-131.6c1.8-0.7,3.5-0.5,5.1,0.5c2.6,1.7,5.3,3.3,7.8,5.2
			c1.9,1.4,3.4,1.4,5.4,0.1c8.8-5.7,17.7-11.2,26.5-16.9c1.1-0.7,2.1-0.9,3.4-0.5c8.5,2.4,16.9,4.9,25.1,8.1
			c1.8,0.7,2.7,1.7,3.1,3.5c1.4,5.8,2.8,11.7,4.3,17.5c4.9,18.4,8.2,37.2,12.5,55.7c3.3,14.2,7.1,28.4,10.5,42.6
			c2.7,11.4,5.8,22.8,9.2,34c3.1,10.2,6.3,20.5,9.5,30.7c0.2,0.7,0.4,1.4,0.6,2C475.9,390.6,448.2,392.4,435.6,388.6z M457.1,328.8
			c-0.8-1.6-2.2-1.9-3.8-1.5c-4.4,1-8.9,1.9-13.4,2.8c-0.6,0.1-1.3,0.1-2,0.2c0.9-0.9,1.8-1.5,2.8-1.9c4-1.5,7.9-2.9,11.9-4.4
			c0.9-0.3,1.8-0.7,2.6-1.1c0.3-0.2,0.7-0.8,0.7-1.1c0-0.4-0.5-0.8-0.9-1c-0.7-0.3-1.6-0.3-2.3-0.4c-4.2-0.5-8.4-1.1-12.6-1.6
			c-3.2-0.4-6.5-0.8-9.8-1.1c-1-0.1-2.2-0.3-3.3,0.9c1.6,1.2,3.3,0.5,4.8,0.8c1.7,0.4,3.5,0.6,5.2,0.8c1.7,0.2,3.3,0.5,5,0.7
			c1.7,0.2,3.5,0.5,5.2,0.7c1.6,0.2,3.2,0.4,4.8,0.6c-0.8,0.8-1.7,1.1-2.6,1.5c-3.8,1.6-7.7,3.1-11.5,4.7c-0.9,0.4-1.7,0.9-2.4,1.5
			c-0.3,0.2-0.6,0.9-0.4,1.2c0.1,0.3,0.7,0.6,1.1,0.6c0.7,0,1.4,0,2.1-0.2c4.9-1.1,9.8-2.1,14.7-3.3
			C454.6,327.9,455.9,327.7,457.1,328.8z"/>
		<path class="st0" d="M345,334.4c-12.9,3.3-44.4,0.4-56.9-5.2c0.2-1.9,0.4-3.8,0.6-5.8c2.1-16.7,4.4-33.5,6.4-50.2
			c1-8.4,1.6-16.9,1.9-25.4c0.3-10.3-0.1-20.6-0.2-30.9c0-1.7,0-3.5-0.9-5.3c-1.1,0.9-1,1.9-1,2.7c-0.1,4.9-0.2,9.8-0.3,14.6
			c-0.1,3.7-0.1,7.4-0.2,11c0,0.5-0.1,1-0.2,2.2c-0.7-1.2-1.1-1.8-1.5-2.4c-3.2-5.3-6.4-10.7-9.6-16c-0.6-1-1.4-2-2.2-2.8
			c-0.9-0.8-1.9-0.4-2,0.9c0,0.6,0.1,1.3,0.3,1.9c2.5,6.3,4.9,12.6,7.4,19c0,0.1,0.2,0.2,0.6,0.5c-1.9-6-3.6-11.7-5.4-17.3
			c0.1,0,0.2-0.1,0.3-0.1c0.4,0.6,0.8,1.1,1.2,1.7c3.4,5.3,6.8,10.7,10.2,16c1.3,2.1,0.8,6.3-1,8.2c-10.4,10.7-21.7,20.4-33.2,29.8
			c-4.9,4-9.8,8-14.6,12.1c-2.3,2-4.4,4.1-6.8,6.3c-0.9-0.5-1.8-0.9-2.7-1.5c-6.7-4.1-11.9-9.7-16.4-16c-6.8-9.5-11.3-20-14.8-31
			c-1.3-4.3-2.4-8.6-3.6-12.9c-0.1-0.4-0.1-0.9-0.2-1.5c14.8-6.3,28-15,40.2-25.8c0.3,0.7,0.5,1.2,0.6,1.7c2.1,10.4,4.5,20.6,8,30.6
			c0.4,1.1,0.4,2.4,0.2,3.5c-0.8,6.8-1.8,13.6-2.7,20.5c-0.2,2-0.2,4-0.2,6c1.3-2.2,1.5-4.7,1.8-7.2c0.6-5.2,1-10.3,1.6-15.5
			c0.1-0.9,0.2-1.9,0.4-3.3c2.6,4.1,3.3,8.9,7.2,11.5c0.2-0.1,0.3-0.2,0.5-0.2c-0.3-0.8-0.6-1.5-0.9-2.3c-1.9-4.8-3.8-9.5-5.6-14.3
			c-0.6-1.5-0.9-3-1.4-4.7c6.3-4.8,11.7-10.4,16.9-16.3c5.9-6.7,11.6-13.6,17.3-20.6c2-2.5,3.6-5.3,5.2-8c1.5-2.5,3.4-4.3,6.4-5.1
			c7.1-1.8,14.3-2.8,21.5-3.3c0.9-0.1,1.7,0.1,2.4,0.7c7.7,7,15.4,14,23.1,21c0.9,0.8,1.6,2,2.3,3.1c1.4,2.2,2.4,2.4,4.5,0.8
			c1.7-1.4,3.4-2.9,5.1-4.3c0.8-0.6,1.7-1.1,3-1.9C351.9,247.2,348.6,290.8,345,334.4z"/>
		<path class="st1" d="M332.8,98.7c10.4,0.7,20.6,1.5,30.8,2.1c10.1,0.6,20.3,0.9,30.6,1.3c0.3,2.5,0.5,5,0.8,7.5
			c0,0.4,0.1,0.8,0.1,1.2c0.9,6.4,0.5,6.2,5.8,9.2c0.2,0.1,0.4,0.3,0.7,0.6c-0.5,3.8-1.2,7.6-2.4,11.4c-0.8,2.7-1.7,5.3-2.8,7.9
			c-1.9,4.7-4.9,8.6-9.2,11.4c-6.5,4.2-13.7,6.9-20.9,9.5c-1.7,0.6-3.3,1.1-5,1.6c-3.9,1.1-7.6,0.3-11-1.8
			c-5.4-3.4-10.2-7.7-14.9-12.1c-2.5-2.4-3.6-5.2-3.7-8.7c-0.3-7.2-1-14.4-1.6-21.5c-0.1-1.2-0.1-2.2,0.6-3.2
			c1.8-2.8,2.3-5.9,2.1-9.2C332.7,103.5,332.8,101,332.8,98.7z M353.7,116.3c0.2,0.5,0.4,0.7,0.4,0.9c0,0.4,0.1,0.8,0,1.2
			c-0.9,3.5-1.7,7-3.6,10.1c-1.4,2.3-1.3,4.2,0.7,6c0.8,0.7,1.8,1.3,2.8,1.8c3.1,1.6,6.3,0.5,9.4,0.4c0.2,0,0.4-0.1,0.4-0.2
			c0.3-0.4,0.7-0.8,0.7-1.1c0-0.4-0.5-0.8-0.9-0.9c-0.5-0.1-1.1-0.1-1.6,0c-1.7,0.5-3.4,1.1-5.3,1.7c-1.2-1-2.7-2.2-4-3.4
			c-1.3-1.2-1.4-1.9-0.6-3.4c0.7-1.4,1.6-2.7,2.4-4.1c2.3-4.1,3.1-8.2,0.7-12.5c-0.4-0.6-0.7-1.3-0.9-2c-1.1-3.4-4-4.2-6.9-4.7
			c-3-0.5-5.6,1-7.8,3c-2.6,2.5-2.4,5.2,0.7,7.1c2.4,1.5,5.1,2.2,8,2.2C350.3,118.4,352.1,118.1,353.7,116.3z M375.7,120.9
			c3.4-0.3,6.7-1.1,8.6-2.2c3-1.8,3.3-3.5,1.1-6.2c-3.1-3.8-7.2-5.4-12-5.2c-5.7,0.2-6.9,2.4-8.1,6.8c-0.8,2.9-0.1,4.1,2.8,5.1
			C370.5,120,373.1,120.3,375.7,120.9z M347.4,144.6c-0.4,2-0.1,2.6,2,2.8c1.1,0.1,2.2,0.1,3.3,0c4-0.3,7.9-0.7,11.9-1.2
			c3.3-0.4,6.6-0.9,9.9-1.5c1-0.2,2.1-0.3,2.6-1.5c0.1-0.4,0.2-1,0-1.3c-0.2-0.3-1-0.4-1.2-0.2c-1.8,1.2-3.9,1.3-6,1.5
			c-6.2,0.6-12.4,1.2-18.6,1.7C350.1,145.2,348.8,144.8,347.4,144.6z M370.8,104.3c0.1,0.2,0.1,0.3,0.2,0.5c0.4,0,0.7,0,1.1,0
			c4.2-0.1,8.3,0.2,12.2,1.9c1.5,0.6,2.9,1.2,4.4,1.9c0.7,0.3,1.4,0.4,1.9-0.3c0.5-0.8,0-1.4-0.5-1.9c-0.2-0.2-0.4-0.3-0.6-0.4
			c-5.1-2.9-10.6-3.8-16.4-2.6C372.2,103.5,371.5,104,370.8,104.3z M351.5,105.3c0.1-0.1,0.2-0.3,0.3-0.4c-1-1.3-1.9-2.9-3.6-3.3
			c-2.7-0.6-5.5-0.9-8.3-1.1c-1.8-0.1-3.5,0.6-4.9,1.8c-0.7,0.6-1.3,1.3-0.7,2.3c0.6,0.9,1.4,0.5,2.1,0.1c4.2-1.9,8.4-1.6,12.6-0.2
			C349.9,104.7,350.7,105,351.5,105.3z"/>
		<path class="st2" d="M220.8,152.3c-0.2-0.7-0.4-1.4-0.7-1.9c-1.9-3-3.8-5.9-5.7-8.9c-0.4-0.7-0.9-1.3-1.4-2.1
			c4.2-0.6,8.2-1.1,12.2-1.6c0-0.1,0-0.2,0-0.2c-3.5,0-7,0-10.5,0c-0.7,0-1.5,0.2-1.2-1.1c-0.7,0.4-1.4,0.7-2.1,1
			c-0.6-0.7-1.1-1.4-1.8-2.3c0.9-0.4,1.6-0.7,2.3-1c2.1-0.9,4.2-2.4,6.4-2.6c3-0.3,4.6-2.6,6.9-3.7c0.6-0.3,1.4-0.6,1-1.7
			c-1.7-0.3-2.9,0.9-4.3,1.5c-1.5,0.6-2.9,1.3-4.4,2c-1.5,0.7-2.9,1.3-4.4,2c-1.4,0.6-2.9,1.3-4.5,2c-1.3-2.5-2.2-4.9-2.8-7.5
			c-1.9-8.3-4.6-16.3-7.6-24.2c-0.3-0.7-0.6-1.7-1.2-2.1c-1.6-1-1.6-2.6-1.8-4.2c-0.2-2.6-0.5-5.2-0.8-8c1.3-0.5,2.5-0.9,3.8-1.4
			c0.5,0.9,1,1.7,1.3,2.5c3,7.8,5.9,15.5,8.9,23.3c0.7,1.9,1.4,3.9,2,5.9c0.6,1.9,0.9,3.9,1.5,5.8c0.3,1,0.7,1.9,1.3,2.8
			c0.2,0.3,1,0.2,1.5,0.1c0.2-0.1,0.4-0.9,0.3-1.2c-1.7-6-3.5-11.9-5.1-17.9c-0.6-2.4-0.8-4.9-1-7.3c-0.5-5.9-0.9-11.8-1.3-17.7
			c-0.1-1.3,0-2.5,0-4.1c1.7-0.1,3.1-0.3,4.8-0.4c0.2,1.5,0.5,2.6,0.6,3.8c1.3,11.9,3,23.8,5.7,35.5c0.5,1.9,1,3.9,1.5,5.8
			c0.1,0.4,0.2,0.8,0.4,1.1c0.3,0.6,0.8,1.1,1.5,0.7c0.3-0.2,0.6-0.9,0.5-1.4c-0.1-0.9-0.5-1.8-0.8-2.8c2.4-1.8,2.8-4.3,2.9-7
			c0.1-6.2,0.5-12.3,0.7-18.5c0-0.3,0-0.6,0.1-1c0.4-3.4,1-3.8,4.7-3.1c0,0.4,0.1,0.9,0.1,1.3c-0.8,7.9-0.9,15.8-0.8,23.7
			c0,2.5,0.4,4.9,1,7.3c1.1,4.4,1.9,8.9,2.8,13.4c0.2,1.1,0.3,2.4,1.6,2.9c1.2-3.6,2.4-7.3,3.6-10.9c0.7-2.2,2-3.8,4-4.8
			c1.8-0.9,3.5-1.8,5.4-2.8c1.5,1.3,2.9,2.6,4.6,4.1c-1.5,1.3-2.9,2.5-4.3,3.8c-0.9,0.9-2,1.7-2.5,2.8c-2.3,4.7-4.5,9.5-6.7,14.3
			c-1,2.2-1.1,4.7-1,7.1c0,1.5-0.3,2.8-1.3,4c-2.1,2.4-3,5.2-2.9,8.4c0.1,3.2-0.1,6.4-0.2,9.6c0,1-0.2,1.6-1.2,2.1
			c-7.4,3.8-14.4,8.3-21.3,12.9c-0.2,0.2-0.5,0.3-1.2,0.6c0.2-1.7,0.3-3.1,0.4-4.4c0.4-3.9,0.8-7.8,1.2-11.7c0.2-2.1-0.2-4-1-6
			c-1.7-4.1-3.2-8.4-4.6-12.6c-2-5.7-4-11.3-6.9-16.6c-0.4-0.7-0.5-1.7-0.6-2.5c-0.3-2-0.4-4.1-1-6.1c-2.8-9.3-5.7-18.7-8.5-28
			c-0.1-0.2,0-0.5-0.1-0.8c1.5-1,3.2-1,4.8-1.1c1.3,0,1.9,0.8,2.3,2c1.4,4,2.8,8,4.2,12c1.5,4.1,3.1,8.2,4.6,12.3
			c0.3,0.8,0.5,1.7,0.7,2.5c0.6,2.9,1.8,5.5,3.7,7.7C212.8,142.6,216.8,147.4,220.8,152.3c0,0.7,0,1.5,0,2.3
			c-0.1,2.3-0.3,4.5-0.4,6.8c0.2,0,0.4,0,0.6,0c0.2-2.6,0.5-5.3,0.7-7.9C221.6,153.1,221.1,152.7,220.8,152.3z"/>
		<path class="st3" d="M323.6,720.2c-9.3-0.4-18.6-0.8-27.7-2.9c-5.2-1.2-10.1-3.1-14.6-6c-3.8-2.5-4.5-4-2.8-8.2
			c3.7-9.4,9.8-16.4,20.2-18.7c2.7-0.6,5.6-0.7,8.3-1.2c2.3-0.4,4.6-1,6.7-1.9c2.2-1,4.3-1,6.5-0.7c6.2,0.8,12.2,2.4,18.1,4.3
			c8,2.7,15.9,5.9,23.4,9.8c1.8,0.9,2.6,2.4,2.3,4.4c-0.4,2.9-1,5.8-1.5,8.7c-0.6,3.4-2.6,5.7-5.8,7.1c-4.5,1.9-9.2,3.3-14.1,3.8
			C336.4,719.3,330,719.7,323.6,720.2z"/>
		<path class="st3" d="M397.6,687.8c-1.7,1-3.4,2.1-5.1,3c-2.5,1.3-4,3.3-5.1,6.4c1-0.5,1.6-0.8,2.3-1.2c4.5-2.4,9-4.9,13.5-7.2
			c4.4-2.2,9-3.2,13.9-2.5c5.3,0.7,10.7,1.1,16,1.8c2.8,0.3,5.3,1.3,7.4,3.3c3.2,3,6.5,5.9,9.7,9c2.1,2,3.6,4.5,4.3,7.4
			c1,3.9,0.1,6-3.3,8.1c-2.8,1.7-6,2.5-9.2,3.2c-12.8,2.8-25.6,3.6-38.6,2.2c-4-0.4-8-0.8-11.8-2.1c-2.8-1-5.1-2.5-7.1-4.8
			c-3.2-3.6-4.2-7.8-3.6-12.5c0.3-2.7,0.7-5.4,0.9-8.1c0.1-1.3,0.6-2.1,2-2.6C388.2,689.8,392.7,688.2,397.6,687.8z"/>
		<path class="st0" d="M414.5,364.9c0.9,5.8,1.9,11.2,2.7,16.6c0.2,1.4,0.1,2.9,0.1,4.3c0,4-2,6.6-6,7.7c-4.1,1.1-8.4,2-12.7,2.6
			c-9.2,1.3-18.5,1.7-27.8,1c-7.7-0.6-15.2-2-22.4-4.9c-3.7-1.5-3.7-1.5-3.6-5.3c0.4-9.3,0.9-18.7,1.3-28c0-0.3,0.1-0.6,0.2-1.1
			C368.2,368.9,390.8,371.8,414.5,364.9z"/>
		<path class="st2" d="M476.1,476.7c-2.6,0.2-4.7-0.7-6.6-1.7c-0.6-0.3-0.9-1.4-1.1-2.2c-1.2-6.2-2.4-12.4-3.5-18.6
			c-0.3-1.6-0.8-2.9-1.7-4.1c-1.4-1.7-2.8-3.3-4-5.1c-0.6-0.9-1.3-2-1.3-3c0.2-4.8,0.6-9.5,0.9-14.6c10.8,0.2,20.9-1.8,30.6-5.8
			c0.3,0.2,0.6,0.4,0.8,0.6c6.8,6.6,13.7,13.2,20.5,19.9c1.8,1.7,3.3,3.7,4.8,5.6c0.9,1.2,1.5,2.6,0.9,4.4
			c-5.5-4.6-9.4-10.6-15.8-14.3c-0.3,1.6,0.4,2.5,1.1,3.4c1,1.3,2.2,2.5,3.4,3.7c5.9,6.1,11.8,12.2,17.6,18.3
			c0.7,0.7,1.4,1.6,1.9,2.4c0.4,0.6,0.6,1.4,0.9,2.3c-2.5-0.8-8-5-15.9-11.9c-4.9-4.3-9.7-8.8-14-14.5c-0.2,0.9-0.4,1.4-0.3,1.7
			c0.4,1,0.8,2.2,1.4,3c2.1,2.7,4.2,5.4,6.7,7.8c7.1,7.1,15,13.2,23.2,18.9c2.4,1.7,3,1.4,1.4,5c-0.9,2-3.3,3-5.6,2.4
			c-0.9-0.2-1.8-0.6-2.7-0.9c-0.1-0.2-0.2-0.4-0.1-0.5c1-3.3-0.2-5.8-2.9-7.9c-10-7.9-19.5-16.3-28.5-25.4c-0.4-0.4-0.8-0.7-1.3-1.1
			c-0.2-0.1-0.4-0.1-0.7-0.2c-0.9,0.7-0.4,1.4,0,1.9c1.1,1.5,2.2,2.9,3.5,4.3c6.9,7.5,14.6,14.1,22.5,20.6c1.2,1,2.5,2,3.7,3.1
			c1.4,1.2,1.3,5-0.1,6.1c-0.9,0.7-2.1,0.9-3.2,0.3c-1.2-0.7-2.5-1.4-3.6-2.3c-7.1-5.5-14.1-11-21.2-16.5c-2.5-1.9-5-3.8-7.5-5.7
			c-0.6-0.4-1.2-0.9-1.8-1.2c-2.5-1.2-5,0.1-5.1,3c0,2.2,0.3,4.5,0.6,6.7C474.7,468.7,475.4,472.6,476.1,476.7z"/>
		<path class="st0" d="M343.2,356.7c-0.4,11.3-0.7,22.5-1.1,33.9c-1,0.2-2.1,0.6-3.3,0.7c-5.5,0.6-11,1.3-16.4,1.8
			c-5.8,0.5-11.5,0.5-17.2-0.8c-7-1.5-13.1-4.5-18.4-9.3c-0.9-0.9-1.8-1.8-2.6-2.8c-1.7-2-2.3-4.2-2.1-6.9
			c0.4-6.3,1.6-12.4,3.1-18.4c0.1-0.2,0.2-0.4,0.4-0.7c0.3,0.1,0.6,0.1,0.9,0.2c7.7,3.2,15.8,4.4,24.1,4.8c7.5,0.3,15,0,22.5-1.2
			C336.2,357.5,339.6,357.1,343.2,356.7z"/>
		<path class="st0" d="M387.5,87.1c-15.6,0.8-31,0.4-46.3-2.7c-0.2-6.9,0-13.7,0.9-20.5c0.9-7.1,2.2-14.2,3.3-21.3
			c0.2-1.4,0.8-2.4,2.2-2.7c3.9-1,7.8-2.2,11.8-3.1c5.3-1.1,10.8-1.6,16.2-0.8c5,0.8,9.7,2.5,14.4,4.4c1.4,0.6,1.6,1.6,1.7,2.8
			c0.8,6.6,0.8,13.3,0.4,19.9c-0.5,7.2-1.7,14.3-3.8,21.2C388.1,85.2,387.8,86,387.5,87.1z M354.3,50.4c-1.2,5.7-2.1,11.1-1.2,16.6
			c0.8,5.1,3.5,9,8.1,11.6c1.7,1,3.6,1.5,5.5,1.2c5-0.7,9.2-2.8,11.5-7.5c0.7-1.4,1.1-2.8,1.6-4.3c1.5-4.9,1.6-10.1,1.9-15.2
			c0.1-1.3-0.4-1.7-1.7-1.8c-0.8-0.1-1.6-0.1-2.4-0.1c-3-0.3-5.4-1.3-6.3-4.5c-0.3-1.1-1.1-2-1.6-2.9c-0.5,0.1-0.7,0.1-0.8,0.2
			c-1.9,0.7-2.7,2.4-3.8,3.8c-2.2,2.8-4.9,3.9-8.4,3.2C355.9,50.6,355.2,50.5,354.3,50.4z"/>
		<path class="st4" d="M346.6,353.9c0.4-5.3,0.8-10.4,1.2-15.9c10.5,3.5,21.2,5,32.1,5.1c10.8,0.1,21.5-1.4,32.3-3.3
			c0.6,7.3,1.3,14.4,1.9,21.7C390.6,368.5,368.3,365.5,346.6,353.9z"/>
		<path class="st1" d="M358.6,198.8c-2.9-3.7-5.9-7.3-8.7-10.9c-1.5-2-2.9-4-4.3-6.1c-0.4-0.6-0.8-1.5-0.7-2.1
			c1.2-5.6,1.1-11.3,0.2-16.9c-0.1-0.4,0-0.8,0-1.6c0.9,0.5,1.5,0.9,2.1,1.3c5.4,3.8,11.2,4.8,17.5,2.4c5.1-2,10.3-4,15.4-6
			c0.7-0.3,1.4-0.6,2.6-1.1c-1.2,6.9-1,13.2,3.9,18.2C384.2,179.3,362.3,197.1,358.6,198.8z"/>
		<path class="st4" d="M285.6,350.7c0.7-6.1,1.4-12.1,2.1-18.3c18.6,6.4,37.6,7.3,57,5.8c-0.3,4.8-0.7,9.7-1.1,14.8
			c-2.3,0.4-4.4,0.9-6.6,1.1c-6.4,0.7-12.9,1.5-19.3,1.8c-10,0.4-20-0.5-29.5-4c-0.6-0.2-1.2-0.4-1.8-0.7
			C286.2,351.2,286,351,285.6,350.7z"/>
		<path class="st4" d="M199.6,234.3c-1.4-6-2.3-12-3.3-18.3c14.5-7.2,28.2-15.7,41.2-25.7c0.2,0.8,0.4,1.3,0.4,1.8
			c0.7,4.7,1.3,9.5,2,14.2c0.1,1,0,1.6-0.8,2.3c-11.6,10.4-24.4,19-38.7,25.6C200.3,234.3,200.1,234.2,199.6,234.3z"/>
		<path class="st4" d="M387.3,155.4c0.9-0.7,1.4-1.1,2-1.5c4.9-3.4,8.2-8,10.3-13.5c2.9-7.4,4.5-15.1,5.6-23c0.7-4.7,1.4-9.3,2.1-14
			c0.1-0.7,0.3-1.4,0.5-2.3c1.3-0.1,2.5-0.2,3.9-0.4c0.7,3.4,1.4,6.7,2.1,10c2.5,11.8,4.5,23.7,5.6,35.7c0.2,1.6-0.2,3-1.1,4.3
			c-1.3,2-3.2,3.3-5.3,4.3c-2.9,1.4-6.1,2-9.3,2.2C398.3,157.7,393,156.4,387.3,155.4z"/>
		<path class="st0" d="M490,403c1.8,3.9,3.4,7.5,5.1,11.4c-1.2,0.8-2.3,1.7-3.5,2.3c-7,3.7-14.5,5.7-22.4,6.7
			c-7.4,0.9-14.8,0.7-22.2-0.9c-5-1.1-5-1.1-6-6c-0.4-2.1-0.8-4.2-1.3-6.6C457.2,411.7,473.7,408.2,490,403z"/>
		<path class="st4" d="M338.8,156c-2.2,0.1-3.8,0.3-5.5,0.3c-4.7,0.1-9.4-0.2-14-1.7c-1.8-0.6-3.6-1.4-5.2-2.4
			c-2.4-1.4-3.5-3.6-2.9-6.5c1-4.3,1.8-8.6,2.7-12.9c2.5-11.6,4.9-23.1,7.4-34.7c0.1-0.5,0.3-1.1,0.4-1.5c1.5-0.4,1.8,0.4,2,1.4
			c0.7,3.9,1.6,7.8,2.2,11.8c1.7,10.6,2.6,21.2,2.9,31.9c0.1,2.7,0.8,5,2.7,7c1.7,1.8,3.5,3.5,5.2,5.2
			C337.3,154.6,337.9,155.1,338.8,156z"/>
		<path class="st4" d="M484.8,388.1c1.5,4.4,3,8.5,4.5,12.8c-16.4,4.8-32.8,8.2-50.1,6.3c-1-5.1-2-10-3-15.4
			c8.3,1.5,16.4,2.2,24.5,1.5C468.8,392.6,476.8,390.9,484.8,388.1z"/>
		<path class="st4" d="M363.2,199.7c9.9-8.2,19.5-16.1,29-24c5.2,4,10.1,7.9,15.3,11.9c-10.2,6.5-20.4,13-30.6,19.5
			C372.4,204.6,368.8,200.8,363.2,199.7z"/>
		<path class="st0" d="M422.2,90.2c-4.1,1.6-8.4,2.4-12.8,3c-8.7,1.2-17.5,1.2-26.3,1.1c-15.4-0.2-30.8-1.3-46.1-3.1
			c-7-0.8-14-1.8-20.6-4.1c-1.9-0.6-3.6-1.5-5.9-2.5c4.2-2.4,8.6-2.6,12.6-4.2c11.7,5.6,24.3,7.9,37.2,8.9
			c11.2,0.9,22.4,0.8,33.5-0.4c5.5-0.6,10.9-1.5,16.2-3.1c1.9-0.6,3.5-0.6,5.2,0.4c2.2,1.3,4.7,2.4,7,3.5
			C422.2,89.9,422.2,90.1,422.2,90.2z"/>
		<path class="st5" d="M388.8,87c5.2-14.7,6.2-29.4,4.4-44.6c0.7,0.3,1.2,0.4,1.6,0.7c1.2,0.9,2.5,1.8,3.7,2.7
			c2.7,2.1,4.6,4.7,5.5,8c2.4,8.4,4.5,16.8,5.3,25.5c0.2,1.7,0,3.5,1.9,5C403.5,85.4,396.4,86.5,388.8,87z"/>
		<path class="st4" d="M358,200.7c-4.4,0.9-6.8,4.4-10,6.6c-7.2-8.6-16.1-15.3-24.3-22.8c-1.3-1.2-2.7-2.5-4.3-4
			c6.1-2.3,11.8-4.5,17.6-6.8C343.5,183,349.4,192.8,358,200.7z"/>
		<path class="st6" d="M454.6,717.8c0.5,2.6-0.2,4.6-1.7,6.6c-1.5,1.9-3.4,3-5.5,3.9c-4.9,2.3-10.2,3.4-15.5,3.7
			c-13.7,0.6-27.1-0.8-40.3-4.7c-0.8-0.2-1.6-0.6-2.5-0.9c-4.6-1.2-6-4.7-6.6-9.1c0.4,0.2,0.6,0.2,0.8,0.3c3.7,3.8,8.5,5.4,13.5,6.1
			c16.2,2.3,32.4,1.8,48.3-2.1c3-0.7,5.8-1.7,8.4-3.4C453.7,718.1,454.1,718,454.6,717.8z"/>
		<path class="st0" d="M237.6,178.1c0,2.8-0.1,5.3,0,7.8c0.1,1.3-0.8,1.9-1.6,2.4c-6,4.2-11.9,8.6-18.1,12.6
			c-6.3,4-12.9,7.6-19.4,11.4c-0.7,0.4-1.4,0.7-2.4,1.2c-0.3-2.5-0.7-4.8-1-7c-0.1-1,0.6-1.4,1.3-1.9c8.8-6.6,17.6-13,27-18.8
			c3.9-2.4,7.9-4.5,11.9-6.7C235.9,178.8,236.6,178.5,237.6,178.1z"/>
		<path class="st5" d="M339.8,84.3c-5.3-1.6-10.4-3.2-15.8-4.8c0.4-1.5,0.5-2.8,0.9-3.9c2-5.6,3.9-11.2,6-16.7
			c1.7-4.5,4-8.7,6.9-12.6c1.5-2,3.4-3.5,6.2-4.6C340.9,55.8,339,69.7,339.8,84.3z"/>
		<path class="st6" d="M279.1,714c0.3,0.1,0.6,0.2,0.9,0.4c7.1,4.4,14.9,6.6,23.1,7.6c11.9,1.5,23.9,1.7,35.9,0.6
			c6.9-0.6,13.6-2,19.9-4.9c0.3-0.1,0.6-0.2,1.3-0.4c-1.6,3-3.6,5-6.4,6c-2.1,0.8-4.3,1.4-6.5,1.7c-16.8,2.5-33.8,3.1-50.7,1.4
			c-4.5-0.4-9-1.3-13.2-3.4C279.9,721.2,278.5,718.3,279.1,714z"/>
		<path class="st5" d="M426,93.9c-1.1,0.4-2,0.9-3,1.2c-6.6,2.1-13.4,2.9-20.3,3.4c-9.2,0.6-18.4,0.3-27.6-0.2
			c-7.7-0.4-15.5-0.7-23.2-1.2c-12.9-0.8-25.6-2.3-38.1-5.8c-1.8-0.5-3.7-1.2-5.4-2.1c-2.1-1.1-2.1-2.4-0.1-3.9c2,1,3.8,2.3,5.9,3
			c4.4,1.4,8.9,2.6,13.4,3.5c12.9,2.3,26,3.3,39.1,3.9c10.5,0.4,20.9,0.5,31.4,0.4c7.1-0.1,14.2-0.9,21.1-2.8
			c1.2-0.3,2.4-0.8,3.6-1.2C424.9,91.3,425,91.4,426,93.9z"/>
		<path class="st7" d="M402.3,117.4c-2.6-0.8-4.1-2.1-4.3-4.7c-0.3-2.9-0.8-5.7-1.2-8.5c-0.1-0.7,0-1.4,0-2.2
			c2.7-0.2,5.4-0.3,8.4-0.5C404.2,106.9,403.2,112,402.3,117.4z"/>
		<path class="st0" d="M337.4,546.5c6.1,0.6,12.2,1.3,18.6,2c0.1,0.8,0.1,1.8,0.2,3C349.7,549.9,343.4,548.8,337.4,546.5z"/>
		<path class="st7" d="M329.4,111.6c-0.9-4.6-1.7-9.3-2.6-14.3c1.4,0.2,2.5,0.4,3.9,0.5c-0.3,4.7,0.6,9.3-0.7,13.7
			C329.7,111.6,329.5,111.6,329.4,111.6z"/>
		<path class="st4" d="M343.3,173.5c-0.2,1.3-0.3,2.3-0.5,3.9c-1.1-1.6-1.9-2.8-3.1-4.6C341.2,173.1,342.1,173.2,343.3,173.5z"/>
		<path class="st4" d="M391.8,172.5c-1,0.8-1.6,1.3-2.3,2c-0.6-0.8-1.2-1.5-2-2.7C389.1,172.1,390.2,172.3,391.8,172.5z"/>
		<path d="M457.1,328.8c-1.2-1.1-2.5-0.9-3.9-0.6c-4.9,1.1-9.8,2.2-14.7,3.3c-0.7,0.2-1.4,0.2-2.1,0.2c-0.4,0-1-0.3-1.1-0.6
			c-0.1-0.3,0.1-1,0.4-1.2c0.7-0.6,1.6-1.2,2.4-1.5c3.8-1.6,7.7-3.1,11.5-4.7c0.9-0.4,1.7-0.7,2.6-1.5c-1.6-0.2-3.2-0.4-4.8-0.6
			c-1.7-0.2-3.5-0.5-5.2-0.7c-1.7-0.2-3.3-0.5-5-0.7c-1.7-0.3-3.5-0.5-5.2-0.8c-1.5-0.3-3.2,0.4-4.8-0.8c1.1-1.2,2.3-1,3.3-0.9
			c3.3,0.3,6.5,0.7,9.8,1.1c4.2,0.5,8.4,1.1,12.6,1.6c0.8,0.1,1.6,0.2,2.3,0.4c0.4,0.1,0.8,0.6,0.9,1c0,0.4-0.3,0.9-0.7,1.1
			c-0.8,0.5-1.7,0.8-2.6,1.1c-4,1.5-8,2.9-11.9,4.4c-1,0.4-2,1-2.8,1.9c0.7-0.1,1.3-0.1,2-0.2c4.5-0.9,8.9-1.8,13.4-2.8
			C454.9,326.9,456.2,327.3,457.1,328.8z"/>
		<path d="M353.7,116.3c-1.6,1.8-3.4,2.1-5.4,2c-2.9,0-5.6-0.7-8-2.2c-3.1-1.9-3.4-4.6-0.7-7.1c2.2-2.1,4.7-3.5,7.8-3
			c2.9,0.4,5.9,1.3,6.9,4.7c0.2,0.7,0.5,1.3,0.9,2c2.5,4.3,1.6,8.4-0.7,12.5c-0.8,1.4-1.7,2.7-2.4,4.1c-0.8,1.5-0.7,2.2,0.6,3.4
			c1.3,1.2,2.8,2.4,4,3.4c1.9-0.6,3.6-1.2,5.3-1.7c0.5-0.2,1.1-0.2,1.6,0c0.4,0.1,0.8,0.6,0.9,0.9c0,0.4-0.4,0.8-0.7,1.1
			c-0.1,0.1-0.3,0.2-0.4,0.2c-3.1,0.1-6.3,1.2-9.4-0.4c-1-0.5-2-1-2.8-1.8c-2-1.8-2.1-3.7-0.7-6c1.9-3.1,2.7-6.6,3.6-10.1
			c0.1-0.4,0.1-0.8,0-1.2C354.1,117.1,353.9,116.9,353.7,116.3z M352.9,112.9c-0.7-1.7-1.7-2.8-3-3.8c-1.5-1.2-2.6-0.9-3.3,0.9
			c-0.5,1.2-0.2,2.3,0.8,3.2C349.1,114.7,350.8,114.6,352.9,112.9z M345.6,108.4c-2.1,0.6-3.5,1.5-4.6,2.8c-1,1.2-0.9,2,0.5,2.9
			c1.5,0.9,3.1,1.5,5.5,1.7C344.5,113.6,343.9,111.4,345.6,108.4z"/>
		<path d="M375.7,120.9c-2.6-0.6-5.2-0.9-7.6-1.7c-2.9-1-3.6-2.2-2.8-5.1c1.2-4.4,2.4-6.6,8.1-6.8c4.8-0.2,9,1.4,12,5.2
			c2.2,2.7,1.8,4.4-1.1,6.2C382.4,119.8,379.1,120.6,375.7,120.9z M379.1,111c-1.4-0.3-2.7-0.8-4.1-1c-1.2-0.2-1.7,0.3-1.9,1.6
			c-0.2,1.8,1.1,3.7,2.8,4c1.5,0.2,2.8-0.9,3.2-2.9C379.1,112.2,379.1,111.8,379.1,111z M374,117.7c-2.5-2-3.4-4.4-2.7-7.4
			c-2.9,0.8-4.2,3-3.7,6C369.4,117.1,371.4,117.9,374,117.7z M381.6,112.6c-1.1,1.9-1.9,3.5-2.8,5.1c1.9,0,3.7-0.4,5.3-2.1
			C383.3,114.5,382.4,113.5,381.6,112.6z"/>
		<path d="M347.4,144.6c1.4,0.2,2.7,0.6,3.9,0.5c6.2-0.5,12.4-1.1,18.6-1.7c2-0.2,4.2-0.3,6-1.5c0.3-0.2,1-0.1,1.2,0.2
			c0.2,0.3,0.2,0.9,0,1.3c-0.4,1.2-1.5,1.3-2.6,1.5c-3.3,0.5-6.6,1.1-9.9,1.5c-4,0.5-7.9,0.8-11.9,1.2c-1.1,0.1-2.2,0.1-3.3,0
			C347.3,147.3,346.9,146.7,347.4,144.6z"/>
		<path d="M370.8,104.3c0.7-0.4,1.4-0.9,2.2-1c5.8-1.2,11.3-0.2,16.4,2.6c0.2,0.1,0.4,0.3,0.6,0.4c0.6,0.5,1.1,1.1,0.5,1.9
			c-0.5,0.8-1.2,0.7-1.9,0.3c-1.5-0.6-2.9-1.2-4.4-1.9c-3.9-1.7-8-2-12.2-1.9c-0.4,0-0.7,0-1.1,0
			C370.9,104.7,370.9,104.5,370.8,104.3z"/>
		<path d="M351.5,105.3c-0.8-0.3-1.6-0.7-2.4-0.9c-4.2-1.3-8.4-1.7-12.6,0.2c-0.7,0.3-1.6,0.8-2.1-0.1c-0.6-0.9,0-1.7,0.7-2.3
			c1.4-1.2,3.1-1.9,4.9-1.8c2.8,0.2,5.6,0.5,8.3,1.1c1.7,0.4,2.6,2,3.6,3.3C351.7,105,351.6,105.2,351.5,105.3z"/>
		<path d="M220.8,152.3c0.3,0.4,0.8,0.8,0.8,1.1c-0.2,2.7-0.4,5.3-0.7,7.9c-0.2,0-0.4,0-0.6,0c0.1-2.3,0.3-4.5,0.4-6.8
			C220.8,153.8,220.8,153.1,220.8,152.3C220.9,152.3,220.8,152.3,220.8,152.3z"/>
		<path d="M354.3,50.4c1,0.1,1.7,0.2,2.4,0.3c3.5,0.7,6.3-0.4,8.4-3.2c1.1-1.4,2-3.1,3.8-3.8c0.1-0.1,0.3-0.1,0.8-0.2
			c0.5,0.9,1.3,1.8,1.6,2.9c1,3.2,3.3,4.3,6.3,4.5c0.8,0.1,1.6,0,2.4,0.1c1.3,0.1,1.7,0.5,1.7,1.8c-0.3,5.1-0.4,10.2-1.9,15.2
			c-0.4,1.4-0.9,2.9-1.6,4.3c-2.3,4.8-6.6,6.8-11.5,7.5c-1.9,0.3-3.8-0.3-5.5-1.2c-4.5-2.6-7.2-6.5-8.1-11.6
			C352.2,61.5,353.1,56.1,354.3,50.4z M355.3,53c-0.7,3.3-0.6,11.3,0.1,14c0.9,3.5,2.6,6.5,5.7,8.6c3.7,2.5,3.7,2.4,8,0.9
			c4.2-1.4,6.8-4.2,7.8-8.4c0.9-3.9,1.6-7.8,2.3-11.7c0.2-0.9,0-1.9,0-3c-4.8-0.3-9-1.3-10.6-7C365.6,52.1,361.4,54.5,355.3,53z"/>
		<path class="st8" d="M352.9,112.9c-2.1,1.7-3.8,1.8-5.4,0.4c-1-0.9-1.3-2-0.8-3.2c0.7-1.8,1.7-2.1,3.3-0.9
			C351.2,110.1,352.3,111.3,352.9,112.9z"/>
		<path class="st9" d="M345.6,108.4c-1.7,2.9-1.1,5.2,1.4,7.3c-2.3-0.2-4-0.8-5.5-1.7c-1.4-0.9-1.5-1.7-0.5-2.9
			C342.1,109.9,343.5,109.1,345.6,108.4z"/>
		<path class="st8" d="M379.1,111c0,0.8,0.1,1.2,0,1.7c-0.4,1.9-1.7,3.1-3.2,2.9c-1.6-0.2-3-2.2-2.8-4c0.1-1.2,0.6-1.8,1.9-1.6
			C376.4,110.2,377.7,110.7,379.1,111z"/>
		<path class="st9" d="M374,117.7c-2.6,0.2-4.6-0.5-6.4-1.4c-0.4-3,0.9-5.2,3.7-6C370.6,113.3,371.5,115.6,374,117.7z"/>
		<path class="st9" d="M381.6,112.6c0.8,0.9,1.6,1.9,2.6,3c-1.7,1.6-3.5,2-5.3,2.1C379.7,116,380.6,114.5,381.6,112.6z"/>
		<path class="st4" d="M355.3,53c6.1,1.5,10.2-0.9,13.3-6.5c1.6,5.7,5.8,6.7,10.6,7c0,1.1,0.1,2.1,0,3c-0.7,3.9-1.4,7.9-2.3,11.7
			c-1,4.2-3.6,6.9-7.8,8.4c-4.3,1.5-4.3,1.6-8-0.9c-3.1-2.1-4.7-5.1-5.7-8.6C354.8,64.3,354.7,56.4,355.3,53z"/>
	</g>
</g>
</svg>
