<?xml version="1.0" encoding="utf-8"?>
<!-- Generator: Adobe Illustrator 22.1.0, SVG Export Plug-In . SVG Version: 6.00 Build 0)  -->
<svg version="1.1" id="A1" xmlns="http://www.w3.org/2000/svg" xmlns:xlink="http://www.w3.org/1999/xlink" x="0px" y="0px"
	 viewBox="0 0 690 500" style="enable-background:new 0 0 690 500;" xml:space="preserve">
<style type="text/css">
	.st0{clip-path:url(#SVGID_2_);fill:#061F3E;}
	.st1{clip-path:url(#SVGID_2_);fill:#FBF0D4;}
	.st2{clip-path:url(#SVGID_2_);}
	.st3{clip-path:url(#SVGID_4_);fill:#344154;}
	.st4{clip-path:url(#SVGID_4_);fill:none;stroke:#000000;stroke-width:1.7621;stroke-miterlimit:10;}
	.st5{clip-path:url(#SVGID_4_);fill:#C34948;}
	.st6{clip-path:url(#SVGID_4_);fill:#EF141E;}
	.st7{clip-path:url(#SVGID_4_);fill:#FEFEFE;}
</style>
<g>
	<g>
		<defs>
			<rect id="SVGID_1_" x="0" width="690" height="500"/>
		</defs>
		<clipPath id="SVGID_2_">
			<use xlink:href="#SVGID_1_"  style="overflow:visible;"/>
		</clipPath>
		<rect x="0" class="st0" width="690" height="500"/>
		<rect x="44.8" y="20.8" class="st1" width="600.5" height="241.9"/>
		<g class="st2">
			<defs>
				<rect id="SVGID_3_" x="0" width="690" height="500"/>
			</defs>
			<clipPath id="SVGID_4_">
				<use xlink:href="#SVGID_3_"  style="overflow:visible;"/>
			</clipPath>
			<path class="st3" d="M431.1,517.1h-82V309.9c3.4-15,75.1-15.2,82,0V517.1z"/>
			<path class="st4" d="M431.1,517.1h-82V309.9c3.4-15,75.1-15.2,82,0V517.1z"/>
			<path class="st5" d="M417.6,298.5h-21.5h-11.9h-21.5c-15.5,0-13.4,12.1-13.4,12.8c2.4-5,6.3-8.2,13.2-8
				c7.4,1.5,14.6,2.5,21.7,2.9v0.1c2,0.1,4,0.1,6,0.1c2,0,4,0,6-0.1v-0.1c7.1-0.4,14.3-1.3,21.7-2.9c6.9-0.3,10.8,2.9,13.2,8
				C431,310.6,433.1,298.5,417.6,298.5"/>
			<path class="st4" d="M417.6,298.5h-21.5h-11.9h-21.5c-15.5,0-13.4,12.1-13.4,12.8c2.4-5,6.3-8.2,13.2-8
				c7.4,1.5,14.6,2.5,21.7,2.9v0.1c2,0.1,4,0.1,6,0.1c2,0,4,0,6-0.1v-0.1c7.1-0.4,14.3-1.3,21.7-2.9c6.9-0.3,10.8,2.9,13.2,8
				C431,310.6,433.1,298.5,417.6,298.5z"/>
			<path class="st3" d="M521.5,517.1h-82V309.9c3.4-15,75.1-15.2,82,0V517.1z"/>
			<path class="st4" d="M521.5,517.1h-82V309.9c3.4-15,75.1-15.2,82,0V517.1z"/>
			<path class="st5" d="M507.9,298.5h-21.5h-11.9H453c-15.5,0-13.4,12.1-13.4,12.8c2.4-5,6.3-8.2,13.2-8c7.4,1.5,14.6,2.5,21.7,2.9
				v0.1c2,0.1,4,0.1,6,0.1c2,0,4,0,6-0.1v-0.1c7.1-0.4,14.3-1.3,21.7-2.9c6.9-0.3,10.8,2.9,13.2,8
				C521.3,310.6,523.4,298.5,507.9,298.5"/>
			<path class="st4" d="M507.9,298.5h-21.5h-11.9H453c-15.5,0-13.4,12.1-13.4,12.8c2.4-5,6.3-8.2,13.2-8c7.4,1.5,14.6,2.5,21.7,2.9
				v0.1c2,0.1,4,0.1,6,0.1c2,0,4,0,6-0.1v-0.1c7.1-0.4,14.3-1.3,21.7-2.9c6.9-0.3,10.8,2.9,13.2,8
				C521.3,310.6,523.4,298.5,507.9,298.5z"/>
			<path class="st3" d="M611.8,517.1h-82V309.9c3.4-15,75.1-15.2,82,0V517.1z"/>
			<path class="st4" d="M611.8,517.1h-82V309.9c3.4-15,75.1-15.2,82,0V517.1z"/>
			<path class="st5" d="M598.2,298.5h-21.5h-11.9h-21.5c-15.5,0-13.4,12.1-13.4,12.8c2.4-5,6.3-8.2,13.2-8
				c7.4,1.5,14.6,2.5,21.7,2.9v0.1c2,0.1,4,0.1,6,0.1c2,0,4,0,6-0.1v-0.1c7.1-0.4,14.3-1.3,21.7-2.9c6.9-0.3,10.8,2.9,13.2,8
				C611.7,310.6,613.8,298.5,598.2,298.5"/>
			<path class="st4" d="M598.2,298.5h-21.5h-11.9h-21.5c-15.5,0-13.4,12.1-13.4,12.8c2.4-5,6.3-8.2,13.2-8
				c7.4,1.5,14.6,2.5,21.7,2.9v0.1c2,0.1,4,0.1,6,0.1c2,0,4,0,6-0.1v-0.1c7.1-0.4,14.3-1.3,21.7-2.9c6.9-0.3,10.8,2.9,13.2,8
				C611.7,310.6,613.8,298.5,598.2,298.5z"/>
			<path class="st3" d="M702.1,517.1h-82V309.9c3.4-15,75.1-15.2,82,0V517.1z"/>
			<path class="st4" d="M702.1,517.1h-82V309.9c3.4-15,75.1-15.2,82,0V517.1z"/>
			<path class="st5" d="M688.5,298.5h-21.5h-11.9h-21.5c-15.5,0-13.4,12.1-13.4,12.8c2.4-5,6.3-8.2,13.2-8
				c7.4,1.5,14.6,2.5,21.7,2.9v0.1c2,0.1,4,0.1,6,0.1c2,0,4,0,6-0.1v-0.1c7.1-0.4,14.3-1.3,21.7-2.9c6.9-0.3,10.8,2.9,13.2,8
				C702,310.6,704.1,298.5,688.5,298.5"/>
			<path class="st4" d="M688.5,298.5h-21.5h-11.9h-21.5c-15.5,0-13.4,12.1-13.4,12.8c2.4-5,6.3-8.2,13.2-8
				c7.4,1.5,14.6,2.5,21.7,2.9v0.1c2,0.1,4,0.1,6,0.1c2,0,4,0,6-0.1v-0.1c7.1-0.4,14.3-1.3,21.7-2.9c6.9-0.3,10.8,2.9,13.2,8
				C702,310.6,704.1,298.5,688.5,298.5z"/>
			<path class="st3" d="M69.9,517.1h-82V309.9c3.4-15,75.1-15.2,82,0V517.1z"/>
			<path class="st4" d="M69.9,517.1h-82V309.9c3.4-15,75.1-15.2,82,0V517.1z"/>
			<path class="st5" d="M56.4,298.5H34.9H22.9H1.5c-15.5,0-13.4,12.1-13.4,12.8c2.4-5,6.3-8.2,13.2-8c7.4,1.5,14.6,2.5,21.7,2.9v0.1
				c2,0.1,4,0.1,6,0.1c2,0,4,0,6-0.1v-0.1c7.1-0.4,14.3-1.3,21.7-2.9c6.9-0.3,10.8,2.9,13.2,8C69.8,310.6,71.9,298.5,56.4,298.5"/>
			<path class="st4" d="M56.4,298.5H34.9H22.9H1.5c-15.5,0-13.4,12.1-13.4,12.8c2.4-5,6.3-8.2,13.2-8c7.4,1.5,14.6,2.5,21.7,2.9v0.1
				c2,0.1,4,0.1,6,0.1c2,0,4,0,6-0.1v-0.1c7.1-0.4,14.3-1.3,21.7-2.9c6.9-0.3,10.8,2.9,13.2,8C69.8,310.6,71.9,298.5,56.4,298.5z"/>
			<path class="st3" d="M160.2,517.1h-82V309.9c3.4-15,75.1-15.2,82,0V517.1z"/>
			<path class="st4" d="M160.2,517.1h-82V309.9c3.4-15,75.1-15.2,82,0V517.1z"/>
			<path class="st5" d="M146.7,298.5h-21.5h-11.9H91.8c-15.5,0-13.4,12.1-13.4,12.8c2.4-5,6.3-8.2,13.2-8c7.4,1.5,14.6,2.5,21.7,2.9
				v0.1c2,0.1,4,0.1,6,0.1c2,0,4,0,6-0.1v-0.1c7.1-0.4,14.3-1.3,21.7-2.9c6.9-0.3,10.8,2.9,13.2,8
				C160.1,310.6,162.2,298.5,146.7,298.5"/>
			<path class="st4" d="M146.7,298.5h-21.5h-11.9H91.8c-15.5,0-13.4,12.1-13.4,12.8c2.4-5,6.3-8.2,13.2-8c7.4,1.5,14.6,2.5,21.7,2.9
				v0.1c2,0.1,4,0.1,6,0.1c2,0,4,0,6-0.1v-0.1c7.1-0.4,14.3-1.3,21.7-2.9c6.9-0.3,10.8,2.9,13.2,8
				C160.1,310.6,162.2,298.5,146.7,298.5z"/>
			<path class="st3" d="M250.5,517.1h-82V309.9c3.4-15,75.1-15.2,82,0V517.1z"/>
			<path class="st4" d="M250.5,517.1h-82V309.9c3.4-15,75.1-15.2,82,0V517.1z"/>
			<path class="st5" d="M237,298.5h-21.5h-11.9h-21.5c-15.5,0-13.4,12.1-13.4,12.8c2.4-5,6.3-8.2,13.2-8c7.4,1.5,14.6,2.5,21.7,2.9
				v0.1c2,0.1,4,0.1,6,0.1c2,0,4,0,6-0.1v-0.1c7.1-0.4,14.3-1.3,21.7-2.9c6.9-0.3,10.8,2.9,13.2,8
				C250.4,310.6,252.5,298.5,237,298.5"/>
			<path class="st4" d="M237,298.5h-21.5h-11.9h-21.5c-15.5,0-13.4,12.1-13.4,12.8c2.4-5,6.3-8.2,13.2-8c7.4,1.5,14.6,2.5,21.7,2.9
				v0.1c2,0.1,4,0.1,6,0.1c2,0,4,0,6-0.1v-0.1c7.1-0.4,14.3-1.3,21.7-2.9c6.9-0.3,10.8,2.9,13.2,8
				C250.4,310.6,252.5,298.5,237,298.5z"/>
			<path class="st3" d="M340.9,517.1h-82V309.9c3.4-15,75.1-15.2,82,0V517.1z"/>
			<path class="st4" d="M340.9,517.1h-82V309.9c3.4-15,75.1-15.2,82,0V517.1z"/>
			<path class="st5" d="M327.3,298.5h-21.5h-11.9h-21.5c-15.5,0-13.4,12.1-13.4,12.8c2.4-5,6.3-8.2,13.2-8
				c7.4,1.5,14.6,2.5,21.7,2.9v0.1c2,0.1,4,0.1,6,0.1c2,0,4,0,6-0.1v-0.1c7.1-0.4,14.3-1.3,21.7-2.9c6.9-0.3,10.8,2.9,13.2,8
				C340.7,310.6,342.8,298.5,327.3,298.5"/>
			<path class="st4" d="M327.3,298.5h-21.5h-11.9h-21.5c-15.5,0-13.4,12.1-13.4,12.8c2.4-5,6.3-8.2,13.2-8
				c7.4,1.5,14.6,2.5,21.7,2.9v0.1c2,0.1,4,0.1,6,0.1c2,0,4,0,6-0.1v-0.1c7.1-0.4,14.3-1.3,21.7-2.9c6.9-0.3,10.8,2.9,13.2,8
				C340.7,310.6,342.8,298.5,327.3,298.5z"/>
			<path class="st3" d="M447.4,521.5h-97.5V332.1c4-17.8,89.3-18.1,97.5,0V521.5z"/>
			<path class="st4" d="M447.4,521.5h-97.5V332.1c4-17.8,89.3-18.1,97.5,0V521.5z"/>
			<path class="st5" d="M431.3,318.6h-25.6h-14.2H366c-18.5,0-16,14.4-16,15.2c2.8-6,7.5-9.8,15.7-9.5c8.8,1.8,17.4,3,25.8,3.4v0.1
				c2.3,0.1,4.7,0.1,7.1,0.1c2.4,0,4.7,0,7.1-0.1v-0.1c8.4-0.4,17-1.6,25.8-3.4c8.2-0.3,12.9,3.5,15.7,9.5
				C447.3,332.9,449.8,318.6,431.3,318.6"/>
			<path class="st4" d="M431.3,318.6h-25.6h-14.2H366c-18.5,0-16,14.4-16,15.2c2.8-6,7.5-9.8,15.7-9.5c8.8,1.8,17.4,3,25.8,3.4v0.1
				c2.3,0.1,4.7,0.1,7.1,0.1c2.4,0,4.7,0,7.1-0.1v-0.1c8.4-0.4,17-1.6,25.8-3.4c8.2-0.3,12.9,3.5,15.7,9.5
				C447.3,332.9,449.8,318.6,431.3,318.6z"/>
			<path class="st3" d="M554.8,521.5h-97.5V332.1c4-17.8,89.3-18.1,97.5,0V521.5z"/>
			<path class="st4" d="M554.8,521.5h-97.5V332.1c4-17.8,89.3-18.1,97.5,0V521.5z"/>
			<path class="st5" d="M538.7,318.6h-25.6H499h-25.6c-18.5,0-16,14.4-16,15.2c2.8-6,7.5-9.8,15.7-9.5c8.8,1.8,17.4,3,25.8,3.4v0.1
				c2.3,0.1,4.7,0.1,7.1,0.1c2.4,0,4.7,0,7.1-0.1v-0.1c8.4-0.4,17-1.6,25.8-3.4c8.2-0.3,12.9,3.5,15.7,9.5
				C554.7,332.9,557.2,318.6,538.7,318.6"/>
			<path class="st4" d="M538.7,318.6h-25.6H499h-25.6c-18.5,0-16,14.4-16,15.2c2.8-6,7.5-9.8,15.7-9.5c8.8,1.8,17.4,3,25.8,3.4v0.1
				c2.3,0.1,4.7,0.1,7.1,0.1c2.4,0,4.7,0,7.1-0.1v-0.1c8.4-0.4,17-1.6,25.8-3.4c8.2-0.3,12.9,3.5,15.7,9.5
				C554.7,332.9,557.2,318.6,538.7,318.6z"/>
			<path class="st3" d="M662.2,521.5h-97.5V332.1c4-17.8,89.3-18.1,97.5,0V521.5z"/>
			<path class="st4" d="M662.2,521.5h-97.5V332.1c4-17.8,89.3-18.1,97.5,0V521.5z"/>
			<path class="st5" d="M646.1,318.6h-25.6h-14.2h-25.6c-18.5,0-16,14.4-16,15.2c2.8-6,7.5-9.8,15.7-9.5c8.8,1.8,17.4,3,25.8,3.4
				v0.1c2.3,0.1,4.7,0.1,7.1,0.1c2.4,0,4.7,0,7.1-0.1v-0.1c8.4-0.4,17-1.6,25.8-3.4c8.2-0.3,12.9,3.5,15.7,9.5
				C662,332.9,664.5,318.6,646.1,318.6"/>
			<path class="st4" d="M646.1,318.6h-25.6h-14.2h-25.6c-18.5,0-16,14.4-16,15.2c2.8-6,7.5-9.8,15.7-9.5c8.8,1.8,17.4,3,25.8,3.4
				v0.1c2.3,0.1,4.7,0.1,7.1,0.1c2.4,0,4.7,0,7.1-0.1v-0.1c8.4-0.4,17-1.6,25.8-3.4c8.2-0.3,12.9,3.5,15.7,9.5
				C662,332.9,664.5,318.6,646.1,318.6z"/>
			<path class="st3" d="M769.6,521.5h-97.5V332.1c4-17.8,89.3-18.1,97.5,0V521.5z"/>
			<path class="st4" d="M769.6,521.5h-97.5V332.1c4-17.8,89.3-18.1,97.5,0V521.5z"/>
			<path class="st5" d="M753.5,318.6h-25.6h-14.2h-25.6c-18.5,0-16,14.4-16,15.2c2.8-6,7.5-9.8,15.7-9.5c8.8,1.8,17.4,3,25.8,3.4
				v0.1c2.3,0.1,4.7,0.1,7.1,0.1c2.4,0,4.7,0,7.1-0.1v-0.1c8.4-0.4,17-1.6,25.8-3.4c8.2-0.3,12.9,3.5,15.7,9.5
				C769.4,332.9,771.9,318.6,753.5,318.6"/>
			<path class="st4" d="M753.5,318.6h-25.6h-14.2h-25.6c-18.5,0-16,14.4-16,15.2c2.8-6,7.5-9.8,15.7-9.5c8.8,1.8,17.4,3,25.8,3.4
				v0.1c2.3,0.1,4.7,0.1,7.1,0.1c2.4,0,4.7,0,7.1-0.1v-0.1c8.4-0.4,17-1.6,25.8-3.4c8.2-0.3,12.9,3.5,15.7,9.5
				C769.4,332.9,771.9,318.6,753.5,318.6z"/>
			<path class="st3" d="M17.9,521.5h-97.5V332.1c4-17.8,89.3-18.1,97.5,0V521.5z"/>
			<path class="st4" d="M17.9,521.5h-97.5V332.1c4-17.8,89.3-18.1,97.5,0V521.5z"/>
			<path class="st5" d="M1.8,318.6h-25.6h-14.2h-25.6c-18.5,0-16,14.4-16,15.2c2.8-6,7.5-9.8,15.7-9.5c8.8,1.8,17.4,3,25.8,3.4v0.1
				c2.3,0.1,4.7,0.1,7.1,0.1c2.4,0,4.7,0,7.1-0.1v-0.1c8.4-0.4,17-1.6,25.8-3.4c8.2-0.3,12.9,3.5,15.7,9.5
				C17.8,332.9,20.3,318.6,1.8,318.6"/>
			<path class="st4" d="M1.8,318.6h-25.6h-14.2h-25.6c-18.5,0-16,14.4-16,15.2c2.8-6,7.5-9.8,15.7-9.5c8.8,1.8,17.4,3,25.8,3.4v0.1
				c2.3,0.1,4.7,0.1,7.1,0.1c2.4,0,4.7,0,7.1-0.1v-0.1c8.4-0.4,17-1.6,25.8-3.4c8.2-0.3,12.9,3.5,15.7,9.5
				C17.8,332.9,20.3,318.6,1.8,318.6z"/>
			<path class="st3" d="M125.3,521.5H27.8V332.1c4-17.8,89.3-18.1,97.5,0V521.5z"/>
			<path class="st4" d="M125.3,521.5H27.8V332.1c4-17.8,89.3-18.1,97.5,0V521.5z"/>
			<path class="st5" d="M109.2,318.6H83.6H69.5H43.9c-18.5,0-16,14.4-16,15.2c2.8-6,7.5-9.8,15.7-9.5c8.8,1.8,17.4,3,25.8,3.4v0.1
				c2.3,0.1,4.7,0.1,7.1,0.1c2.4,0,4.7,0,7.1-0.1v-0.1c8.4-0.4,17-1.6,25.8-3.4c8.2-0.3,12.9,3.5,15.7,9.5
				C125.2,332.9,127.7,318.6,109.2,318.6"/>
			<path class="st4" d="M109.2,318.6H83.6H69.5H43.9c-18.5,0-16,14.4-16,15.2c2.8-6,7.5-9.8,15.7-9.5c8.8,1.8,17.4,3,25.8,3.4v0.1
				c2.3,0.1,4.7,0.1,7.1,0.1c2.4,0,4.7,0,7.1-0.1v-0.1c8.4-0.4,17-1.6,25.8-3.4c8.2-0.3,12.9,3.5,15.7,9.5
				C125.2,332.9,127.7,318.6,109.2,318.6z"/>
			<path class="st3" d="M232.7,521.5h-97.5V332.1c4-17.8,89.3-18.1,97.5,0V521.5z"/>
			<path class="st4" d="M232.7,521.5h-97.5V332.1c4-17.8,89.3-18.1,97.5,0V521.5z"/>
			<path class="st5" d="M216.6,318.6H191h-14.2h-25.6c-18.5,0-16,14.4-16,15.2c2.8-6,7.5-9.8,15.7-9.5c8.8,1.8,17.4,3,25.8,3.4v0.1
				c2.3,0.1,4.7,0.1,7.1,0.1c2.4,0,4.7,0,7.1-0.1v-0.1c8.4-0.4,17-1.6,25.8-3.4c8.2-0.3,12.9,3.5,15.7,9.5
				C232.5,332.9,235,318.6,216.6,318.6"/>
			<path class="st4" d="M216.6,318.6H191h-14.2h-25.6c-18.5,0-16,14.4-16,15.2c2.8-6,7.5-9.8,15.7-9.5c8.8,1.8,17.4,3,25.8,3.4v0.1
				c2.3,0.1,4.7,0.1,7.1,0.1c2.4,0,4.7,0,7.1-0.1v-0.1c8.4-0.4,17-1.6,25.8-3.4c8.2-0.3,12.9,3.5,15.7,9.5
				C232.5,332.9,235,318.6,216.6,318.6z"/>
			<path class="st3" d="M340.1,521.5h-97.5V332.1c4-17.8,89.3-18.1,97.5,0V521.5z"/>
			<path class="st4" d="M340.1,521.5h-97.5V332.1c4-17.8,89.3-18.1,97.5,0V521.5z"/>
			<path class="st5" d="M324,318.6h-25.6h-14.2h-25.6c-18.5,0-16,14.4-16,15.2c2.8-6,7.5-9.8,15.7-9.5c8.8,1.8,17.4,3,25.8,3.4v0.1
				c2.3,0.1,4.7,0.1,7.1,0.1c2.4,0,4.7,0,7.1-0.1v-0.1c8.4-0.4,17-1.6,25.8-3.4c8.2-0.3,12.9,3.5,15.7,9.5
				C339.9,332.9,342.4,318.6,324,318.6"/>
			<path class="st4" d="M324,318.6h-25.6h-14.2h-25.6c-18.5,0-16,14.4-16,15.2c2.8-6,7.5-9.8,15.7-9.5c8.8,1.8,17.4,3,25.8,3.4v0.1
				c2.3,0.1,4.7,0.1,7.1,0.1c2.4,0,4.7,0,7.1-0.1v-0.1c8.4-0.4,17-1.6,25.8-3.4c8.2-0.3,12.9,3.5,15.7,9.5
				C339.9,332.9,342.4,318.6,324,318.6z"/>
			<path class="st3" d="M488.1,537.7H351.9V360.4c5.6-24.9,124.7-25.3,136.2,0V537.7z"/>
			<path class="st4" d="M488.1,537.7H351.9V360.4c5.6-24.9,124.7-25.3,136.2,0V537.7z"/>
			<path class="st5" d="M465.6,341.4h-35.7h-19.8h-35.7c-25.8,0-22.3,20.1-22.3,21.2c4-8.3,10.5-13.7,21.9-13.2
				c12.3,2.6,24.3,4.2,36.1,4.8v0.1c3.3,0.1,6.6,0.2,9.9,0.2c3.3,0,6.6,0,9.9-0.2v-0.1c11.8-0.6,23.8-2.2,36.1-4.8
				c11.5-0.5,18,4.9,21.9,13.2C487.9,361.5,491.4,341.4,465.6,341.4"/>
			<path class="st4" d="M465.6,341.4h-35.7h-19.8h-35.7c-25.8,0-22.3,20.1-22.3,21.2c4-8.3,10.5-13.7,21.9-13.2
				c12.3,2.6,24.3,4.2,36.1,4.8v0.1c3.3,0.1,6.6,0.2,9.9,0.2c3.3,0,6.6,0,9.9-0.2v-0.1c11.8-0.6,23.8-2.2,36.1-4.8
				c11.5-0.5,18,4.9,21.9,13.2C487.9,361.5,491.4,341.4,465.6,341.4z"/>
			<path class="st3" d="M638.2,537.7H501.9V360.4c5.6-24.9,124.7-25.3,136.2,0V537.7z"/>
			<path class="st4" d="M638.2,537.7H501.9V360.4c5.6-24.9,124.7-25.3,136.2,0V537.7z"/>
			<path class="st5" d="M615.7,341.4h-35.7h-19.8h-35.7c-25.8,0-22.3,20.1-22.3,21.2c4-8.3,10.5-13.7,21.9-13.2
				c12.3,2.6,24.3,4.2,36.1,4.8v0.1c3.3,0.1,6.6,0.2,9.9,0.2c3.3,0,6.6,0,9.9-0.2v-0.1c11.8-0.6,23.8-2.2,36.1-4.8
				c11.5-0.5,18,4.9,21.9,13.2C638,361.5,641.5,341.4,615.7,341.4"/>
			<path class="st4" d="M615.7,341.4h-35.7h-19.8h-35.7c-25.8,0-22.3,20.1-22.3,21.2c4-8.3,10.5-13.7,21.9-13.2
				c12.3,2.6,24.3,4.2,36.1,4.8v0.1c3.3,0.1,6.6,0.2,9.9,0.2c3.3,0,6.6,0,9.9-0.2v-0.1c11.8-0.6,23.8-2.2,36.1-4.8
				c11.5-0.5,18,4.9,21.9,13.2C638,361.5,641.5,341.4,615.7,341.4z"/>
			<path class="st3" d="M788.2,537.7H652V360.4c5.6-24.9,124.7-25.3,136.2,0V537.7z"/>
			<path class="st4" d="M788.2,537.7H652V360.4c5.6-24.9,124.7-25.3,136.2,0V537.7z"/>
			<path class="st5" d="M765.7,341.4H730h-19.8h-35.7c-25.8,0-22.3,20.1-22.3,21.2c4-8.3,10.5-13.7,21.9-13.2
				c12.3,2.6,24.3,4.2,36.1,4.8v0.1c3.3,0.1,6.6,0.2,9.9,0.2c3.3,0,6.6,0,9.9-0.2v-0.1c11.8-0.6,23.8-2.2,36.1-4.8
				c11.5-0.5,18,4.9,21.9,13.2C788,361.5,791.5,341.4,765.7,341.4"/>
			<path class="st4" d="M765.7,341.4H730h-19.8h-35.7c-25.8,0-22.3,20.1-22.3,21.2c4-8.3,10.5-13.7,21.9-13.2
				c12.3,2.6,24.3,4.2,36.1,4.8v0.1c3.3,0.1,6.6,0.2,9.9,0.2c3.3,0,6.6,0,9.9-0.2v-0.1c11.8-0.6,23.8-2.2,36.1-4.8
				c11.5-0.5,18,4.9,21.9,13.2C788,361.5,791.5,341.4,765.7,341.4z"/>
			<path class="st3" d="M38,537.7H-98.2V360.4c5.6-24.9,124.7-25.3,136.2,0V537.7z"/>
			<path class="st4" d="M38,537.7H-98.2V360.4c5.6-24.9,124.7-25.3,136.2,0V537.7z"/>
			<path class="st5" d="M15.5,341.4h-35.7H-40h-35.7c-25.8,0-22.3,20.1-22.3,21.2c4-8.3,10.5-13.7,21.9-13.2
				c12.3,2.6,24.3,4.2,36.1,4.8v0.1c3.3,0.1,6.6,0.2,9.9,0.2c3.3,0,6.6,0,9.9-0.2v-0.1c11.8-0.6,23.8-2.2,36.1-4.8
				c11.5-0.5,18,4.9,21.9,13.2C37.8,361.5,41.3,341.4,15.5,341.4"/>
			<path class="st4" d="M15.5,341.4h-35.7H-40h-35.7c-25.8,0-22.3,20.1-22.3,21.2c4-8.3,10.5-13.7,21.9-13.2
				c12.3,2.6,24.3,4.2,36.1,4.8v0.1c3.3,0.1,6.6,0.2,9.9,0.2c3.3,0,6.6,0,9.9-0.2v-0.1c11.8-0.6,23.8-2.2,36.1-4.8
				c11.5-0.5,18,4.9,21.9,13.2C37.8,361.5,41.3,341.4,15.5,341.4z"/>
			<path class="st3" d="M188.1,537.7H51.8V360.4c5.6-24.9,124.7-25.3,136.2,0V537.7z"/>
			<path class="st4" d="M188.1,537.7H51.8V360.4c5.6-24.9,124.7-25.3,136.2,0V537.7z"/>
			<path class="st5" d="M165.5,341.4h-35.7h-19.8H74.3c-25.8,0-22.3,20.1-22.3,21.2c4-8.3,10.5-13.7,21.9-13.2
				c12.3,2.6,24.3,4.2,36.1,4.8v0.1c3.3,0.1,6.6,0.2,9.9,0.2c3.3,0,6.6,0,9.9-0.2v-0.1c11.8-0.6,23.8-2.2,36.1-4.8
				c11.5-0.5,18,4.9,21.9,13.2C187.9,361.5,191.4,341.4,165.5,341.4"/>
			<path class="st4" d="M165.5,341.4h-35.7h-19.8H74.3c-25.8,0-22.3,20.1-22.3,21.2c4-8.3,10.5-13.7,21.9-13.2
				c12.3,2.6,24.3,4.2,36.1,4.8v0.1c3.3,0.1,6.6,0.2,9.9,0.2c3.3,0,6.6,0,9.9-0.2v-0.1c11.8-0.6,23.8-2.2,36.1-4.8
				c11.5-0.5,18,4.9,21.9,13.2C187.9,361.5,191.4,341.4,165.5,341.4z"/>
			<path class="st3" d="M338.1,537.7H201.9V360.4c5.6-24.9,124.7-25.3,136.2,0V537.7z"/>
			<path class="st4" d="M338.1,537.7H201.9V360.4c5.6-24.9,124.7-25.3,136.2,0V537.7z"/>
			<path class="st5" d="M315.6,341.4h-35.7h-19.8h-35.7c-25.8,0-22.3,20.1-22.3,21.2c4-8.3,10.5-13.7,21.9-13.2
				c12.3,2.6,24.3,4.2,36.1,4.8v0.1c3.3,0.1,6.6,0.2,9.9,0.2c3.3,0,6.6,0,9.9-0.2v-0.1c11.8-0.6,23.8-2.2,36.1-4.8
				c11.5-0.5,18,4.9,21.9,13.2C337.9,361.5,341.4,341.4,315.6,341.4"/>
			<path class="st4" d="M315.6,341.4h-35.7h-19.8h-35.7c-25.8,0-22.3,20.1-22.3,21.2c4-8.3,10.5-13.7,21.9-13.2
				c12.3,2.6,24.3,4.2,36.1,4.8v0.1c3.3,0.1,6.6,0.2,9.9,0.2c3.3,0,6.6,0,9.9-0.2v-0.1c11.8-0.6,23.8-2.2,36.1-4.8
				c11.5-0.5,18,4.9,21.9,13.2C337.9,361.5,341.4,341.4,315.6,341.4z"/>
			<path class="st3" d="M99.4,511.9h-213.1V409.7c8.8-38.9,195.2-39.6,213.1,0V511.9z"/>
			<path class="st4" d="M99.4,511.9h-213.1V409.7c8.8-38.9,195.2-39.6,213.1,0V511.9z"/>
			<path class="st5" d="M64.2,380H8.4h-31h-55.9c-40.4,0-34.9,31.5-34.9,33.2c6.2-13.1,16.4-21.4,34.3-20.7c19.2,4,38,6.5,56.5,7.5
				v0.2c5.1,0.2,10.3,0.3,15.5,0.3c5.2,0,10.4-0.1,15.5-0.3V400c18.4-1,37.3-3.5,56.5-7.5c17.9-0.7,28.1,7.6,34.3,20.7
				C99.1,411.4,104.6,380,64.2,380"/>
			<path class="st4" d="M64.2,380H8.4h-31h-55.9c-40.4,0-34.9,31.5-34.9,33.2c6.2-13.1,16.4-21.4,34.3-20.7c19.2,4,38,6.5,56.5,7.5
				v0.2c5.1,0.2,10.3,0.3,15.5,0.3c5.2,0,10.4-0.1,15.5-0.3V400c18.4-1,37.3-3.5,56.5-7.5c17.9-0.7,28.1,7.6,34.3,20.7
				C99.1,411.4,104.6,380,64.2,380z"/>
			<path class="st3" d="M334.2,511.9H121.1V409.7c8.8-38.9,195.2-39.6,213.1,0V511.9z"/>
			<path class="st4" d="M334.2,511.9H121.1V409.7c8.8-38.9,195.2-39.6,213.1,0V511.9z"/>
			<path class="st5" d="M299,380h-55.9h-31h-55.9c-40.4,0-34.9,31.5-34.9,33.2c6.2-13.1,16.4-21.4,34.3-20.7c19.2,4,38,6.5,56.5,7.5
				v0.2c5.1,0.2,10.3,0.3,15.5,0.3c5.2,0,10.4-0.1,15.5-0.3V400c18.4-1,37.3-3.5,56.5-7.5c17.9-0.7,28.1,7.6,34.3,20.7
				C333.9,411.4,339.3,380,299,380"/>
			<path class="st4" d="M299,380h-55.9h-31h-55.9c-40.4,0-34.9,31.5-34.9,33.2c6.2-13.1,16.4-21.4,34.3-20.7c19.2,4,38,6.5,56.5,7.5
				v0.2c5.1,0.2,10.3,0.3,15.5,0.3c5.2,0,10.4-0.1,15.5-0.3V400c18.4-1,37.3-3.5,56.5-7.5c17.9-0.7,28.1,7.6,34.3,20.7
				C333.9,411.4,339.3,380,299,380z"/>
			<path class="st3" d="M568.9,511.9H355.8V409.7c8.8-38.9,195.2-39.6,213.1,0V511.9z"/>
			<path class="st4" d="M568.9,511.9H355.8V409.7c8.8-38.9,195.2-39.6,213.1,0V511.9z"/>
			<path class="st5" d="M533.7,380h-55.9h-31H391c-40.4,0-34.9,31.5-34.9,33.2c6.2-13.1,16.4-21.4,34.3-20.7c19.2,4,38,6.5,56.5,7.5
				v0.2c5.1,0.2,10.3,0.3,15.5,0.3c5.2,0,10.4-0.1,15.5-0.3V400c18.4-1,37.3-3.5,56.5-7.5c17.9-0.7,28.1,7.6,34.3,20.7
				C568.6,411.4,574.1,380,533.7,380"/>
			<path class="st4" d="M533.7,380h-55.9h-31H391c-40.4,0-34.9,31.5-34.9,33.2c6.2-13.1,16.4-21.4,34.3-20.7c19.2,4,38,6.5,56.5,7.5
				v0.2c5.1,0.2,10.3,0.3,15.5,0.3c5.2,0,10.4-0.1,15.5-0.3V400c18.4-1,37.3-3.5,56.5-7.5c17.9-0.7,28.1,7.6,34.3,20.7
				C568.6,411.4,574.1,380,533.7,380z"/>
			<path class="st3" d="M803.7,511.9H590.6V409.7c8.8-38.9,195.2-39.6,213.1,0V511.9z"/>
			<path class="st4" d="M803.7,511.9H590.6V409.7c8.8-38.9,195.2-39.6,213.1,0V511.9z"/>
			<path class="st5" d="M768.5,380h-55.9h-31h-55.9c-40.4,0-34.9,31.5-34.9,33.2c6.2-13.1,16.4-21.4,34.3-20.7
				c19.2,4,38,6.5,56.5,7.5v0.2c5.1,0.2,10.3,0.3,15.5,0.3c5.2,0,10.4-0.1,15.5-0.3V400c18.4-1,37.3-3.5,56.5-7.5
				c17.9-0.7,28.1,7.6,34.3,20.7C803.4,411.4,808.8,380,768.5,380"/>
			<path class="st4" d="M768.5,380h-55.9h-31h-55.9c-40.4,0-34.9,31.5-34.9,33.2c6.2-13.1,16.4-21.4,34.3-20.7
				c19.2,4,38,6.5,56.5,7.5v0.2c5.1,0.2,10.3,0.3,15.5,0.3c5.2,0,10.4-0.1,15.5-0.3V400c18.4-1,37.3-3.5,56.5-7.5
				c17.9-0.7,28.1,7.6,34.3,20.7C803.4,411.4,808.8,380,768.5,380z"/>
			<path class="st3" d="M13.9,533.4h-287.3v-71.8c11.9-52.5,263.1-53.4,287.3,0V533.4z"/>
			<path class="st4" d="M13.9,533.4h-287.3v-71.8c11.9-52.5,263.1-53.4,287.3,0V533.4z"/>
			<path class="st5" d="M-33.5,421.6h-75.3h-41.7h-75.3c-54.4,0-47.1,42.4-47.1,44.8c8.3-17.6,22.1-28.9,46.2-27.9
				c25.9,5.4,51.3,8.8,76.1,10.1v0.2c6.9,0.3,13.9,0.4,20.9,0.4c7,0,14-0.1,20.9-0.4v-0.2c24.9-1.3,50.2-4.7,76.1-10.1
				c24.2-1,37.9,10.3,46.2,27.9C13.5,464,20.9,421.6-33.5,421.6"/>
			<path class="st4" d="M-33.5,421.6h-75.3h-41.7h-75.3c-54.4,0-47.1,42.4-47.1,44.8c8.3-17.6,22.1-28.9,46.2-27.9
				c25.9,5.4,51.3,8.8,76.1,10.1v0.2c6.9,0.3,13.9,0.4,20.9,0.4c7,0,14-0.1,20.9-0.4v-0.2c24.9-1.3,50.2-4.7,76.1-10.1
				c24.2-1,37.9,10.3,46.2,27.9C13.5,464,20.9,421.6-33.5,421.6z"/>
			<path class="st3" d="M330.4,533.4H43.1v-71.8c11.9-52.5,263.1-53.4,287.3,0V533.4z"/>
			<path class="st4" d="M330.4,533.4H43.1v-71.8c11.9-52.5,263.1-53.4,287.3,0V533.4z"/>
			<path class="st5" d="M282.9,421.6h-75.3h-41.7H90.6c-54.4,0-47.1,42.4-47.1,44.8c8.3-17.6,22.1-28.9,46.2-27.9
				c25.9,5.4,51.3,8.8,76.1,10.1v0.2c6.9,0.3,13.9,0.4,20.9,0.4c7,0,14-0.1,20.9-0.4v-0.2c24.9-1.3,50.2-4.7,76.1-10.1
				c24.2-1,37.9,10.3,46.2,27.9C330,464,337.4,421.6,282.9,421.6"/>
			<path class="st4" d="M282.9,421.6h-75.3h-41.7H90.6c-54.4,0-47.1,42.4-47.1,44.8c8.3-17.6,22.1-28.9,46.2-27.9
				c25.9,5.4,51.3,8.8,76.1,10.1v0.2c6.9,0.3,13.9,0.4,20.9,0.4c7,0,14-0.1,20.9-0.4v-0.2c24.9-1.3,50.2-4.7,76.1-10.1
				c24.2-1,37.9,10.3,46.2,27.9C330,464,337.4,421.6,282.9,421.6z"/>
			<path class="st3" d="M646.9,533.4H359.6v-71.8c11.9-52.5,263.1-53.4,287.3,0V533.4z"/>
			<path class="st4" d="M646.9,533.4H359.6v-71.8c11.9-52.5,263.1-53.4,287.3,0V533.4z"/>
			<path class="st5" d="M599.4,421.6h-75.3h-41.7h-75.3c-54.4,0-47.1,42.4-47.1,44.8c8.3-17.6,22.1-28.9,46.2-27.9
				c25.9,5.4,51.3,8.8,76.1,10.1v0.2c6.9,0.3,13.9,0.4,20.9,0.4c7,0,14-0.1,20.9-0.4v-0.2c24.9-1.3,50.2-4.7,76.1-10.1
				c24.2-1,37.9,10.3,46.2,27.9C646.5,464,653.8,421.6,599.4,421.6"/>
			<path class="st4" d="M599.4,421.6h-75.3h-41.7h-75.3c-54.4,0-47.1,42.4-47.1,44.8c8.3-17.6,22.1-28.9,46.2-27.9
				c25.9,5.4,51.3,8.8,76.1,10.1v0.2c6.9,0.3,13.9,0.4,20.9,0.4c7,0,14-0.1,20.9-0.4v-0.2c24.9-1.3,50.2-4.7,76.1-10.1
				c24.2-1,37.9,10.3,46.2,27.9C646.5,464,653.8,421.6,599.4,421.6z"/>
			<path class="st3" d="M963.3,533.4H676.1v-71.8c11.9-52.5,263.1-53.4,287.3,0V533.4z"/>
			<path class="st4" d="M963.3,533.4H676.1v-71.8c11.9-52.5,263.1-53.4,287.3,0V533.4z"/>
			<path class="st5" d="M915.9,421.6h-75.3h-41.7h-75.3c-54.4,0-47.1,42.4-47.1,44.8c8.3-17.6,22.1-28.9,46.2-27.9
				c25.9,5.4,51.3,8.8,76.1,10.1v0.2c6.9,0.3,13.9,0.4,20.9,0.4c7,0,14-0.1,20.9-0.4v-0.2c24.9-1.3,50.2-4.7,76.1-10.1
				c24.2-1,37.9,10.3,46.2,27.9C962.9,464,970.3,421.6,915.9,421.6"/>
			<path class="st4" d="M915.9,421.6h-75.3h-41.7h-75.3c-54.4,0-47.1,42.4-47.1,44.8c8.3-17.6,22.1-28.9,46.2-27.9
				c25.9,5.4,51.3,8.8,76.1,10.1v0.2c6.9,0.3,13.9,0.4,20.9,0.4c7,0,14-0.1,20.9-0.4v-0.2c24.9-1.3,50.2-4.7,76.1-10.1
				c24.2-1,37.9,10.3,46.2,27.9C962.9,464,970.3,421.6,915.9,421.6z"/>
			<path class="st6" d="M534.3,196.6H155.7V86.9h378.5V196.6z M340.7,157.3c0.1,0.2,0.2,0.4,0.2,0.6c3.6,9.8,7.1,19.6,10.7,29.4
				c0.2,0.4,0.4,0.5,1,0.5c7,0,14,0,21,0c0.3,0,0.5,0,0.9,0c-0.5-1.2-0.9-2.3-1.4-3.4c-4.3-10.6-8.6-21.2-13-31.8
				c-0.1-0.3-0.2-0.5,0.2-0.8c3-1.7,5.5-3.8,7.5-6.2c3.2-3.7,5.3-7.7,5.8-12.1c0.1-0.9,0-1.9,0-2.8c0.1,0,0.2,0,0.2,0
				c4.4,19,8.8,38.1,13.2,57.1h27c6.1-27.7,12.2-55.3,18.2-82.9l0.2,0v82.9H476v-16.5h-20.6V150H476v-16.8h-20.6v-20.8H476V95.7
				h-64.9c-3.5,18.6-7.1,37.2-10.6,55.8l-0.1,0c-3.5-18.6-7-37.2-10.5-55.7h-23.4c0.9,4.9,1.7,9.8,2.6,14.7
				c-0.2-0.1-0.3-0.2-0.5-0.4c-1.5-1.6-2.8-3.2-4.4-4.6c-7.1-6.3-16.4-9.5-27.7-9.7c-7.9-0.1-15.7,0-23.6,0c-0.2,0-0.3,0-0.6,0v81.2
				c-0.1,0-0.1,0-0.2,0c-5.6-27.1-11.3-54.2-16.9-81.2h-30.7c-5.8,28.1-11.7,56.1-17.5,84.2c-0.1,0-0.1,0-0.2,0V95.7h-29.3
				c-3.5,15.8-7,31.5-10.5,47.3c0,0-0.1,0-0.1,0c-3.4-15.7-6.8-31.5-10.2-47.2h-29.3v92h23.1v-43.7c0,0,0.1,0,0.1,0
				c3.4,14.6,6.9,29.1,10.3,43.7h12.3c3.4-14.6,6.8-29.2,10.2-43.8c0.1,0,0.1,0,0.2,0v43.8h44.5c0.9-4.5,1.7-9,2.6-13.6
				c0.1-0.4,0.3-0.6,0.9-0.6c5.5,0,11,0,16.5,0c0.2,0,0.4,0,0.7,0c0.9,4.7,1.8,9.4,2.7,14.1h43.8v-29.9
				C337.2,157.7,338.9,157.5,340.7,157.3 M480.1,187.7h42.5v-16.5H503V95.7h-22.9V187.7z"/>
			<path class="st7" d="M340.7,157.3c-1.8,0.2-3.5,0.4-5.4,0.6v29.9h-43.8c-0.9-4.7-1.8-9.4-2.7-14.1c-0.2,0-0.5,0-0.7,0
				c-5.5,0-11,0-16.5,0c-0.6,0-0.8,0.1-0.9,0.6c-0.8,4.5-1.7,9-2.6,13.6h-44.5v-43.8c-0.1,0-0.1,0-0.2,0
				c-3.4,14.6-6.8,29.2-10.2,43.8H201c-3.4-14.5-6.9-29.1-10.3-43.7c0,0-0.1,0-0.1,0v43.7h-23.1v-92h29.3
				c3.4,15.7,6.8,31.5,10.2,47.2c0,0,0.1,0,0.1,0c3.5-15.7,7-31.5,10.5-47.3h29.3v84.1c0.1,0,0.1,0,0.2,0
				c5.8-28.1,11.7-56.1,17.5-84.2h30.7c5.6,27.1,11.3,54.2,16.9,81.2c0.1,0,0.1,0,0.2,0V95.7c0.3,0,0.5,0,0.6,0
				c7.9,0,15.7-0.1,23.6,0c11.2,0.1,20.5,3.4,27.7,9.7c1.6,1.4,2.9,3.1,4.4,4.6c0.1,0.1,0.2,0.3,0.5,0.4c-0.9-4.9-1.7-9.8-2.6-14.7
				h23.4c3.5,18.6,7,37.2,10.5,55.7l0.1,0c3.5-18.6,7.1-37.2,10.6-55.8H476v16.8h-20.6v20.8H476V150h-20.6v21.2H476v16.5h-43.6
				v-82.9l-0.2,0c-6.1,27.6-12.2,55.2-18.2,82.9h-27c-4.4-19-8.8-38.1-13.2-57.1c-0.1,0-0.2,0-0.2,0c0,0.9,0.1,1.9,0,2.8
				c-0.5,4.4-2.6,8.4-5.8,12.1c-2,2.4-4.5,4.5-7.5,6.2c-0.4,0.3-0.3,0.5-0.2,0.8c4.3,10.6,8.6,21.2,13,31.8c0.5,1.1,0.9,2.2,1.4,3.4
				c-0.4,0-0.6,0-0.9,0c-7,0-14,0-21,0c-0.6,0-0.8-0.1-1-0.5c-3.5-9.8-7.1-19.6-10.7-29.4C340.9,157.7,340.8,157.6,340.7,157.3
				 M335.4,112.1v29.8c1.4-0.2,2.7-0.3,4-0.6c4.9-1.3,7.9-4,9.7-7.4c2.2-4.2,2.1-8.6,0.7-12.9c-0.9-2.6-2.6-4.9-5.6-6.6
				C341.6,112.9,338.7,112.2,335.4,112.1 M286.5,158.9c-2.2-13-4.3-26-6.5-39c0,0-0.1,0-0.1,0c-2.1,13-4.2,26-6.3,39H286.5z"/>
			<polygon class="st7" points="480.1,187.7 480.1,95.7 503,95.7 503,171.2 522.6,171.2 522.6,187.7 			"/>
			<path class="st6" d="M335.4,112.1c3.3,0.1,6.2,0.8,8.8,2.2c3,1.7,4.7,4,5.6,6.6c1.4,4.3,1.5,8.7-0.7,12.9
				c-1.8,3.5-4.8,6.1-9.7,7.4c-1.2,0.3-2.6,0.4-4,0.6V112.1z"/>
			<path class="st6" d="M286.5,158.9h-12.9c2.1-13,4.2-26,6.3-39c0,0,0.1,0,0.1,0C282.2,132.9,284.4,145.9,286.5,158.9"/>
		</g>
	</g>
</g>
</svg>
