<?xml version="1.0" encoding="utf-8"?>
<!-- Generator: Adobe Illustrator 21.0.0, SVG Export Plug-In . SVG Version: 6.00 Build 0)  -->
<svg version="1.1" xmlns="http://www.w3.org/2000/svg" xmlns:xlink="http://www.w3.org/1999/xlink" x="0px" y="0px"
	 viewBox="0 0 690 500" style="enable-background:new 0 0 690 500;" xml:space="preserve">
<style type="text/css">
	.st0{display:none;}
	.st1{display:inline;opacity:0.5;}
	.st2{filter:url(#Adobe_OpacityMaskFilter);}
	#A,#B,#C,#D,#E,#F,#G,#H,#I { opacity: 0.3; transition: all .3s }
</style>
<g id="Слой_1" class="st0">
	<g class="st1">
		<defs>
			<filter id="Adobe_OpacityMaskFilter" filterUnits="userSpaceOnUse" x="177.8" y="357.5" width="328" height="121">
				<feFlood  style="flood-color:white;flood-opacity:1" result="back"/>
				<feBlend  in="SourceGraphic" in2="back" mode="normal"/>
			</filter>
		</defs>
		<mask maskUnits="userSpaceOnUse" x="177.8" y="357.5" width="328" height="121" id="SVGID_1_">
			<g class="st2">
				
					<image style="overflow:visible;" width="332" height="125" xlink:href="5299EFD7.jpg"  transform="matrix(1 0 0 1 175.8315 355.5)">
				</image>
			</g>
		</mask>
		<g style="mask:url(#SVGID_1_);">
			
				<image style="overflow:visible;" width="328" height="121" xlink:href="5299EFD5.png"  transform="matrix(1 0 0 1 177.8315 357.5)">
			</image>
		</g>
	</g>
</g>
<g id="A">
	
		<image style="overflow:visible;" width="582" height="500" xlink:href="../../../../../../assets/letters/A.png"  transform="matrix(0.2984 0 0 0.2984 18.5951 32.5007)">
	</image>
</g>
<g id="B">
	
		<image style="overflow:visible;" width="582" height="500" xlink:href="../../../../../../assets/letters/B.png"  transform="matrix(0.2984 0 0 0.2984 228.0582 32.5007)">
	</image>
</g>
<g id="C">
	
		<image style="overflow:visible;" width="582" height="500" xlink:href="../../../../../../assets/letters/C.png"  transform="matrix(0.2984 0 0 0.2984 425.3318 32.5007)">
	</image>
</g>
<g id="D">
	
		<image style="overflow:visible;" width="582" height="500" xlink:href="../../../../../../assets/letters/D.png"  transform="matrix(0.2984 0 0 0.2984 18.5951 190.2996)">
	</image>
</g>
<g id="E">
	
		<image style="overflow:visible;" width="582" height="500" xlink:href="../../../../../../assets/letters/E.png"  transform="matrix(0.2984 0 0 0.2984 231.3715 190.2996)">
	</image>
</g>
<g id="F">
	
		<image style="overflow:visible;" width="582" height="500" xlink:href="../../../../../../assets/letters/F.png"  transform="matrix(0.2984 0 0 0.2984 425.3318 190.2996)">
	</image>
</g>
<g id="G">
	
		<image style="overflow:visible;" width="582" height="500" xlink:href="../../../../../../assets/letters/G.png"  transform="matrix(0.2984 0 0 0.2984 18.5951 339.4831)">
	</image>
</g>
<g id="H">
	
		<image style="overflow:visible;" width="582" height="500" xlink:href="../../../../../../assets/letters/H.png"  transform="matrix(0.2984 0 0 0.2984 231.3715 336.5374)">
	</image>
</g>
<g id="I">
	
		<image style="overflow:visible;" width="582" height="500" xlink:href="../../../../../../assets/letters/I.png"  transform="matrix(0.2984 0 0 0.2984 425.3318 336.5374)">
	</image>
</g>
</svg>
