<?xml version="1.0" encoding="utf-8"?>
<!-- Generator: Adobe Illustrator 24.1.2, SVG Export Plug-In . SVG Version: 6.00 Build 0)  -->
<svg version="1.1" xmlns="http://www.w3.org/2000/svg" xmlns:xlink="http://www.w3.org/1999/xlink" x="0px" y="0px"
	 viewBox="0 0 690 500" style="enable-background:new 0 0 690 500;" xml:space="preserve">
<style type="text/css">
	.st0{fill:#E9E200;stroke:#F59F04;stroke-miterlimit:10;}
	.st1{clip-path:url(#SVGID_2_);}
	.st2{clip-path:url(#SVGID_4_);fill:#FF4F4F;}
	.st3{clip-path:url(#SVGID_4_);}
	.st4{clip-path:url(#SVGID_4_);fill:#AF2828;}
	.st5{clip-path:url(#SVGID_4_);fill:#8ACF55;}
	.st6{clip-path:url(#SVGID_4_);fill:none;stroke:#000000;stroke-width:0.5689;stroke-miterlimit:10;}
	.st7{clip-path:url(#SVGID_6_);}
	.st8{clip-path:url(#SVGID_8_);fill:#FF4F4F;}
	.st9{clip-path:url(#SVGID_8_);}
	.st10{clip-path:url(#SVGID_8_);fill:#AF2828;}
	.st11{clip-path:url(#SVGID_8_);fill:#8ACF55;}
	.st12{clip-path:url(#SVGID_8_);fill:none;stroke:#000000;stroke-width:0.5689;stroke-miterlimit:10;}
	.st13{clip-path:url(#SVGID_10_);}
	.st14{clip-path:url(#SVGID_12_);fill:#627A18;}
	.st15{clip-path:url(#SVGID_12_);fill:#1D1D1B;}
	.st16{clip-path:url(#SVGID_12_);fill:#AF9784;}
	.st17{clip-path:url(#SVGID_12_);fill:#755B4C;}
	.st18{clip-path:url(#SVGID_12_);fill:#95C11F;}
	.st19{clip-path:url(#SVGID_14_);}
	.st20{clip-path:url(#SVGID_16_);fill:#627A18;}
	.st21{clip-path:url(#SVGID_16_);fill:#1D1D1B;}
	.st22{clip-path:url(#SVGID_16_);fill:#AF9784;}
	.st23{clip-path:url(#SVGID_16_);fill:#755B4C;}
	.st24{clip-path:url(#SVGID_16_);fill:#95C11F;}
	.hide { opacity: 0 }
	#QUEST { transition: all .3s}
</style>
<g id="TIGER">
</g>
<g id="QUEST">
	<g>
		<path class="st0" d="M390.2,119.2c0,4.8-1,8.8-2.9,12c-1.9,3.2-4.1,5.9-6.4,8.3c-1.5,1.5-3,3-4.5,4.5c-1.4,1.4-2.7,3-3.9,4.6
			c-1.2,1.6-2.2,3.4-3,5.3c-0.8,1.9-1.4,4.1-1.7,6.5h-23c0.1-5.9,1-10.7,2.8-14.2c1.8-3.5,4-6.7,6.7-9.6c1.2-1.3,2.5-2.6,3.8-3.9
			c1.3-1.3,2.6-2.6,3.7-3.9c1.1-1.3,2-2.7,2.8-4.2c0.7-1.5,1.1-3,1.1-4.7c0-1.8-0.9-3.7-2.6-5.7c-1.7-1.9-4.1-2.9-7.2-2.9
			c-2,0-3.8,0.5-5.2,1.4c-1.4,0.9-2.6,2.1-3.6,3.5c-1,1.4-1.7,3.1-2.1,5c-0.5,1.9-0.7,3.8-0.8,5.6h-23.8c0.1-5.9,1.2-11.2,3.1-15.7
			c2-4.5,4.7-8.3,8.1-11.3c3.4-3,7.2-5.3,11.6-6.8c4.3-1.5,8.9-2.3,13.7-2.3c5.1,0,9.7,0.7,13.8,2.1c4.1,1.4,7.6,3.4,10.5,6
			c2.9,2.6,5.2,5.6,6.8,9.1C389.4,111.3,390.2,115.1,390.2,119.2z M343.1,180.6c0-2.5,0.4-4.5,1.3-6.2c0.9-1.7,2-3.1,3.3-4.1
			c1.3-1.1,2.8-1.9,4.4-2.4c1.6-0.5,3.1-0.8,4.5-0.8c3.9,0,7,1.3,9.3,4c2.3,2.7,3.5,5.8,3.5,9.4c0,3.8-1.3,6.9-3.8,9.4
			c-2.5,2.5-5.6,3.8-9.3,3.8c-3.7,0-6.8-1.2-9.4-3.7C344.3,187.5,343.1,184.3,343.1,180.6z"/>
	</g>
</g>
<g id="P1">
	<g>
		<g>
			<defs>
				<rect id="SVGID_1_" x="157.8" y="350.8" width="162.9" height="58.6"/>
			</defs>
			<clipPath id="SVGID_2_">
				<use xlink:href="#SVGID_1_"  style="overflow:visible;"/>
			</clipPath>
			<g class="st1">
				<defs>
					<rect id="SVGID_3_" x="157.8" y="350.8" width="162.9" height="58.6"/>
				</defs>
				<clipPath id="SVGID_4_">
					<use xlink:href="#SVGID_3_"  style="overflow:visible;"/>
				</clipPath>
				<path class="st2" d="M225.3,367.1l-17.4,0.3c-1.5,0-2.8-1.2-2.8-2.8c0-1.5,1.2-2.8,2.8-2.8l17.4-0.3c1.5,0,2.8,1.2,2.8,2.8
					C228,365.8,226.8,367.1,225.3,367.1"/>
				<path class="st3" d="M225.3,367.3l-17.4,0.3c-1.7,0-3.1-1.3-3.1-3c0-1.7,1.3-3.1,3-3.1l17.4-0.3c1.7,0,3.1,1.3,3.1,3
					C228.3,365.9,226.9,367.3,225.3,367.3 M207.8,362c-1.4,0-2.5,1.2-2.5,2.6c0,1.4,1.2,2.5,2.6,2.5l17.4-0.3c1.4,0,2.5-1.2,2.5-2.6
					c0-1.4-1.2-2.5-2.6-2.5L207.8,362z"/>
				<path class="st4" d="M210.3,364.6c0,1.5-1.1,2.7-2.5,2.7c-1.4,0-2.5-1.2-2.5-2.7s1.1-2.7,2.5-2.7
					C209.1,361.9,210.3,363.1,210.3,364.6"/>
				<path class="st3" d="M207.7,367.6c-1.5,0-2.8-1.3-2.8-3c0-1.6,1.2-3,2.8-3c1.5,0,2.8,1.3,2.8,3
					C210.5,366.3,209.2,367.6,207.7,367.6 M207.7,362.1c-1.3,0-2.3,1.1-2.3,2.5s1,2.5,2.3,2.5c1.3,0,2.3-1.1,2.3-2.5
					S209,362.1,207.7,362.1"/>
				<path class="st5" d="M206.9,363.2c0.8,0,1.4,0.6,1.4,1.4c0,0.8-0.6,1.4-1.4,1.5l-25.1,0.8c-3.1,0.1-10.5,0.8-11.2,5.5
					c-0.2,1.2,0.2,2.4,1,3.4c1.6,2,4.9,3.5,8.3,3.7c1.1,0.1,2.2,0.1,3.3,0.1c1.2,0,2.5,0.1,3.8,0.1c1.7,0.1,3.2,1.2,3.8,2.8
					c0.6,1.6,0.3,3.4-0.8,4.7c-1.7,1.9-2.2,4.3-1.4,6.2c1.3,3,4.9,4.5,7.7,5.2c5.3,1.3,10.8,1.3,16.2,1.2l61.7-0.6
					c9.9-0.1,21.1-0.2,30.7-4.2c3.1-1.3,6.5-4.1,7-6.9c0.2-1.5-0.4-2.9-2-4.2c-0.1-0.1-0.2-0.1-0.3-0.2c-6.4-3.2-13.6-5-20.9-5.3
					c-6.6-0.3-14.3,0.4-15.6,2.1c-0.1,0.1-0.1,0.2-0.1,0.5c0.4,1.1,2.3,1.4,3.9,1.4c1.5,0.1,3,0.1,4.5,0.2c3.7,0.1,7.6,0.2,11.4,0.6
					c1.4,0.1,3.2,0.3,4.7,1.2c2,1.2,2.4,2.7,2.4,3.7c-0.1,2.2-2.1,4-3.9,4.9c-1.9,1-4.1,1.3-6,1.5c-1.8,0.2-3.6,0.5-5.4,0.7
					c-3.7,0.5-7.4,1-11.2,1.3c-6.7,0.6-13.4,0.6-19.8,0.5l-38.2-0.4c-2.4,0-5.4-0.1-8-1.5c-2.5-1.4-4-4.1-3.7-6.5
					c0.2-1.4,1-3.9,5.2-5.2c0.3-0.1,0.7-0.2,1.1-0.2c6.9-0.1,13.7,1.2,20.3,2.4c9,1.7,17.6,3.3,26.1,1.7c3.6-0.7,4-2,3.9-3.3
					c0-0.2-0.1-0.4-0.2-0.6c-1.3-2.1-3.5-2.6-6.3-3c-19.8-2.8-40.3-2.2-60-1.7c-0.8,0-1.4-0.6-1.5-1.4c0-0.8,0.6-1.4,1.4-1.5
					c19.8-0.6,40.4-1.1,60.5,1.7c2.5,0.3,6.3,0.9,8.4,4.3c0.3,0.6,0.6,1.2,0.6,1.9c0.3,3.4-1.8,5.5-6.2,6.3
					c-9.1,1.7-18.3,0-27.2-1.7c-6.5-1.2-13.2-2.5-19.8-2.3c-0.1,0-0.2,0-0.3,0c-1.3,0.4-3,1.2-3.2,2.7c-0.1,1.3,0.8,2.9,2.3,3.7
					c1.9,1.1,4.4,1.1,6.6,1.1l38.2,0.4c6.4,0.1,13,0.1,19.5-0.5c3.7-0.4,7.5-0.8,11.1-1.3c1.8-0.2,3.6-0.5,5.4-0.7
					c1.7-0.2,3.6-0.4,5-1.2c1.3-0.7,2.3-1.7,2.3-2.5c0-0.4-0.3-0.8-1-1.2c-1-0.6-2.3-0.7-3.5-0.8c-3.7-0.4-7.6-0.5-11.3-0.6
					c-1.5,0-3-0.1-4.5-0.2c-3.6-0.1-5.8-1.3-6.5-3.4c-0.4-1.1-0.2-2.2,0.5-3.1c2.7-3.5,13.5-3.2,18-3c7.7,0.3,15.3,2,22.1,5.4
					c0.3,0.2,0.6,0.6,0.9,0.9c2.9,2.5,3.2,4.8,2.9,6.6c-0.6,4.1-4.8,7.5-8.7,9.1c-10.2,4.2-21.7,4.3-31.8,4.4l-61.7,0.6
					c-5.6,0.1-11.3,0.1-17-1.3c-4.9-1.2-8.2-3.6-9.6-6.8c-1.3-2.9-0.6-6.6,1.9-9.2c0.4-0.5,0.5-1.1,0.3-1.7c-0.2-0.6-0.8-1-1.4-1
					c-1.2-0.1-2.4-0.1-3.6-0.1c-1.1,0-2.3,0-3.4-0.1c-4.1-0.3-8.2-2.1-10.3-4.8c-1.4-1.7-1.9-3.6-1.6-5.6c0.7-4.8,5.6-7.6,13.9-7.9
					L206.9,363.2C206.9,363.2,206.9,363.2,206.9,363.2"/>
				<path class="st3" d="M206.9,363.2c0,0,0.1,0,0.2,0c0.1,0,0.3,0.1,0.6,0.2c0.2,0.1,0.5,0.4,0.6,0.7c0.1,0.4,0.2,0.9-0.1,1.3
					c-0.1,0.2-0.3,0.5-0.5,0.7c-0.3,0.1-0.7,0.3-1,0.3c-0.6,0-1.3,0-2,0.1c-1.5,0-3.2,0.1-5.1,0.2c-3.8,0.1-8.6,0-14.1,0.2
					c-1.4,0-2.8,0.1-4.3,0.1c-1.5,0.1-3,0.3-4.6,0.6c-0.8,0.2-1.5,0.4-2.3,0.8c-0.7,0.3-1.5,0.7-2.1,1.3c-0.6,0.6-1.1,1.3-1.3,2.1
					c-0.2,0.8-0.2,1.7,0.1,2.6c0.3,0.8,0.9,1.6,1.6,2.2c0.7,0.6,1.5,1.1,2.3,1.5c1.7,0.8,3.6,1.3,5.6,1.4c2,0.1,4,0.1,6.1,0.2
					c0.5,0,1.1,0,1.6,0.2c0.5,0.2,1,0.4,1.4,0.7c0.9,0.6,1.5,1.6,1.7,2.7c0.2,1.1,0.1,2.3-0.5,3.3c-0.1,0.2-0.3,0.5-0.5,0.7
					c-0.2,0.2-0.4,0.4-0.5,0.6c-0.3,0.4-0.6,0.9-0.8,1.4c-0.4,1-0.6,2.2-0.4,3.2c0.1,0.3,0.1,0.5,0.2,0.8c0,0.1,0.1,0.3,0.2,0.4
					c0.1,0.1,0.1,0.3,0.2,0.4c0.3,0.5,0.7,0.9,1.1,1.3c0.8,0.8,1.8,1.4,2.9,1.9c1.1,0.5,2.2,0.9,3.4,1.1c2.3,0.6,4.8,0.9,7.3,1
					c2.5,0.2,5,0.2,7.6,0.1c2.6,0,5.2-0.1,7.8-0.1c5.3-0.1,10.8-0.1,16.4-0.2c11.2-0.1,23,0,35.3-0.1c6.1-0.1,12.4,0,18.8-0.7
					c3.2-0.3,6.3-0.8,9.5-1.6c0.4-0.1,0.8-0.2,1.2-0.3c0.4-0.1,0.8-0.2,1.2-0.3l1.2-0.4l0.6-0.2l0.6-0.2l1.1-0.4
					c0.4-0.1,0.8-0.3,1.1-0.5c0.7-0.4,1.4-0.8,2.1-1.3c0.7-0.5,1.3-1,1.8-1.6c0.6-0.6,1-1.5,1.4-2.2c0.2-0.4,0.3-0.7,0.4-1.1
					l0.1-0.3l0-0.3c0-0.2,0-0.4,0-0.6c-0.1-0.7-0.4-1.5-0.9-2.1c-0.2-0.3-0.5-0.6-0.8-0.9c-0.1-0.1-0.2-0.1-0.2-0.2
					c-0.1,0-0.1-0.1-0.2-0.1l-0.6-0.3c-0.4-0.2-0.8-0.4-1.1-0.5c-0.4-0.2-0.8-0.3-1.2-0.5c-1.6-0.7-3.1-1.2-4.8-1.7
					c-3.2-1-6.6-1.7-10-2c-3.4-0.3-6.9-0.4-10.4-0.1c-1.7,0.1-3.5,0.3-5.2,0.7c-0.4,0.1-0.8,0.2-1.2,0.3c-0.4,0.1-0.8,0.3-1.1,0.5
					c-0.2,0.1-0.3,0.2-0.4,0.4c0,0.1,0,0,0,0.1c0,0.1,0,0.1,0.1,0.2c0.1,0.2,0.4,0.5,0.8,0.6c0.8,0.3,1.6,0.4,2.5,0.4
					c0.9,0,1.8,0.1,2.7,0.1c1.8,0.1,3.6,0.1,5.4,0.2c1.8,0.1,3.6,0.2,5.4,0.3c0.9,0.1,1.8,0.1,2.7,0.2c0.9,0.1,1.8,0.2,2.8,0.4
					c0.9,0.2,1.8,0.6,2.6,1.2c0.8,0.6,1.5,1.4,1.8,2.3c0.2,0.5,0.2,1,0.2,1.5c0,0.2-0.1,0.5-0.1,0.7l-0.1,0.4c0,0.1-0.1,0.2-0.1,0.3
					c-0.4,0.9-1,1.7-1.8,2.3c-0.7,0.6-1.5,1.1-2.4,1.5c-0.9,0.4-1.8,0.6-2.7,0.8c-0.9,0.2-1.9,0.3-2.8,0.4c-0.9,0.1-1.8,0.2-2.8,0.4
					c-3.7,0.5-7.4,1-11.2,1.4c-3.8,0.4-7.6,0.7-11.4,0.8c-3.8,0.1-7.6,0-11.5,0c-7.7-0.1-15.4-0.2-23.2-0.3c-3.9,0-7.8-0.1-11.7-0.1
					c-1,0-2,0-2.9,0c-1,0-2,0-3-0.1c-1-0.1-2-0.2-2.9-0.5c-0.5-0.1-1-0.3-1.4-0.5c-0.5-0.2-0.9-0.4-1.3-0.7c-0.4-0.3-0.8-0.6-1.2-1
					c-0.4-0.4-0.7-0.8-1-1.2c-0.3-0.4-0.5-0.9-0.7-1.3c-0.2-0.5-0.3-1-0.4-1.5c-0.1-0.5-0.1-1,0-1.5c0.1-0.5,0.2-1,0.4-1.5
					c0.4-0.9,1.1-1.7,1.9-2.3c0.8-0.6,1.8-1,2.7-1.3c0.5-0.2,1-0.2,1.5-0.2c0.5,0,1,0,1.5,0c2,0,4,0.2,6,0.4c4,0.4,7.9,1.1,11.9,1.9
					c3.9,0.7,7.9,1.5,11.9,2c4,0.5,8,0.7,12.1,0.3c0.5-0.1,1-0.1,1.5-0.2l1.5-0.2c0.5-0.1,1-0.2,1.5-0.4c0.5-0.2,0.9-0.3,1.3-0.6
					c0.4-0.3,0.7-0.6,0.9-1.1c0.1-0.2,0.1-0.5,0.1-0.7c0-0.1,0-0.2,0-0.4c0-0.1,0-0.2-0.1-0.3c-0.4-0.9-1.2-1.6-2.1-2
					c-0.9-0.5-1.9-0.7-2.9-0.9c-1-0.2-2-0.3-3-0.4c-2-0.3-4-0.5-6.1-0.7c-4-0.4-8.1-0.7-12.2-0.9c-4.1-0.2-8.2-0.3-12.2-0.3
					c-4.1,0-8.2,0-12.3,0.1c-4.1,0.1-8.2,0.2-12.3,0.3l-3.1,0.1c-0.1,0-0.3,0-0.4,0c-0.2,0-0.3,0-0.4-0.1c-0.3-0.1-0.5-0.3-0.7-0.5
					c-0.2-0.2-0.3-0.5-0.4-0.8c0-0.2,0-0.3,0-0.4c0-0.2,0.1-0.3,0.1-0.4c0.2-0.6,0.8-1,1.4-1c0.5,0,1,0,1.6-0.1l3.1-0.1
					c8.2-0.2,16.4-0.4,24.6-0.3c4.1,0,8.2,0.1,12.3,0.3c4.1,0.2,8.2,0.5,12.2,0.9l3,0.3l3,0.4c2,0.3,4.1,0.5,6,1.5
					c0.9,0.5,1.8,1.1,2.5,1.9c0.2,0.2,0.3,0.4,0.5,0.6c0.1,0.2,0.3,0.4,0.4,0.7c0.3,0.5,0.5,1,0.6,1.5c0,0.1,0,0.3,0.1,0.4l0,0.4
					c0,0.2,0,0.5,0,0.8c-0.1,0.5-0.2,1.1-0.4,1.6c0,0.1-0.1,0.3-0.2,0.4c-0.1,0.1-0.1,0.2-0.2,0.4c-0.2,0.2-0.3,0.5-0.5,0.7
					c-0.3,0.4-0.8,0.8-1.2,1.1c-0.9,0.6-1.9,1-2.9,1.2c-0.3,0.1-0.5,0.1-0.8,0.2l-0.4,0.1l-0.4,0.1c-0.5,0.1-1,0.2-1.5,0.2
					c-2,0.3-4.1,0.4-6.1,0.4c-4.1,0-8.1-0.4-12.1-1.1c-4-0.6-7.9-1.4-11.9-2.1c-3.9-0.7-7.9-1.3-11.9-1.4c-1,0-2-0.1-3,0
					c-0.1,0-0.2,0-0.3,0c-0.1,0-0.2,0.1-0.3,0.1c-0.2,0.1-0.4,0.2-0.7,0.3c-0.4,0.2-0.8,0.4-1.2,0.7c-0.3,0.3-0.6,0.6-0.7,1
					c-0.1,0.2-0.1,0.4-0.1,0.6c0,0.2,0,0.4,0.1,0.6c0.2,0.9,0.8,1.6,1.6,2.2c0.2,0.1,0.4,0.3,0.6,0.4c0.2,0.1,0.4,0.2,0.6,0.3
					c0.4,0.2,0.9,0.3,1.4,0.4c0.9,0.2,1.9,0.3,2.9,0.3c2,0,4,0.4,6,0.4c7.9,0.1,15.8,0.1,23.6,0.2c3.9,0,7.8,0.1,11.7,0.1
					c3.9,0,7.7,0,11.5-0.1c1.9-0.1,3.8-0.2,5.7-0.4c1.9-0.2,3.8-0.4,5.7-0.6c1.9-0.2,3.7-0.5,5.6-0.7c1.9-0.2,3.9-0.5,5.7-0.7
					c1.9-0.2,3.6-0.8,5.2-1.6c0.4-0.2,0.7-0.5,1.1-0.7c0.3-0.3,0.6-0.6,0.8-0.9c0.1-0.2,0.1-0.3,0.1-0.4c0-0.1-0.1-0.2-0.3-0.4
					c-0.1-0.1-0.3-0.3-0.5-0.3c-0.1-0.1-0.2-0.1-0.3-0.2c-0.1,0-0.2-0.1-0.3-0.1c-0.8-0.3-1.7-0.4-2.6-0.5c-0.9-0.1-1.8-0.2-2.8-0.2
					c-1.8-0.1-3.7-0.2-5.5-0.3c-1.8-0.1-3.7-0.1-5.5-0.2c-0.9,0-1.8,0-2.8-0.1c-1-0.1-1.9-0.2-2.8-0.5c-0.9-0.3-1.8-0.8-2.5-1.6
					c-0.3-0.4-0.6-0.8-0.8-1.3c0-0.1-0.1-0.2-0.1-0.4c0-0.1-0.1-0.2-0.1-0.4c-0.1-0.3-0.1-0.5-0.1-0.8c0-0.5,0.1-1,0.3-1.5
					c0.1-0.2,0.2-0.5,0.4-0.7c0.1-0.1,0.2-0.2,0.2-0.3c0.1-0.1,0.1-0.2,0.2-0.3c0.7-0.7,1.6-0.9,2.5-1.2c1.8-0.7,3.6-1,5.4-1.2
					c1.8-0.2,3.6-0.3,5.4-0.3c3.6-0.1,7.2,0.1,10.7,0.6c3.5,0.5,6.9,1.4,10.2,2.5c1.7,0.6,3.3,1.2,4.8,2l1.2,0.6
					c0.4,0.2,0.8,0.5,1.2,0.8c0.2,0.1,2.1,2.1,2.3,3c0.2,0.9,0.8,3,0.6,3.9c-0.1,0.9-0.5,1.8-0.8,2.5c-0.4,0.8-0.9,1.5-1.5,2.2
					c-0.6,0.7-1.2,1.3-1.8,1.8c-0.7,0.6-1.4,1-2.1,1.5c-0.7,0.5-1.5,0.8-2.3,1.2c-0.2,0.1-0.4,0.2-0.6,0.3l-0.6,0.2l-1.2,0.4
					c-6.3,2.2-12.9,2.8-19.3,3.1c-3.2,0.2-6.4,0.2-9.5,0.2c-3.1,0-6.2,0-9.3,0.1c-12.3,0.1-24.1,0.4-35.3,0.5
					c-5.6,0-11.1,0.1-16.4,0.1c-5.3,0-10.5,0.2-15.5-0.6c-2.5-0.4-4.9-0.9-7.1-1.9c-1.1-0.5-2.2-1.1-3.1-1.8c-1-0.7-1.8-1.6-2.4-2.6
					c-0.6-1-1.1-2.1-1.2-3.3c0-0.3,0-0.6-0.1-0.9c0-0.3,0-0.6,0-0.9c0-0.6,0.2-1.1,0.3-1.7c0.3-1.1,0.8-2.1,1.5-3l0.2-0.3l0.3-0.3
					l0.3-0.3c0.1-0.1,0.1-0.2,0.2-0.3c0.2-0.5,0.1-1-0.1-1.4c-0.3-0.4-0.8-0.7-1.3-0.7c-0.5,0-1.1,0-1.6-0.1c-1.1,0-2.1-0.1-3.1-0.1
					c-0.5,0-1,0-1.5-0.1c-0.3,0-0.5,0-0.8,0c-0.3,0-0.5,0-0.8-0.1c-1-0.1-2-0.3-3-0.6c-1.9-0.6-3.7-1.5-5.1-2.7
					c-0.7-0.6-1.4-1.3-1.9-2.1c-0.5-0.8-0.9-1.6-1.1-2.5c-0.2-0.9-0.2-1.8,0-2.7c0-0.2,0.1-0.4,0.1-0.6c0.1-0.2,0.1-0.4,0.2-0.6
					c0-0.1,0.1-0.2,0.1-0.3l0.1-0.3c0.1-0.2,0.2-0.4,0.3-0.6c0.1-0.2,0.2-0.4,0.3-0.5c0.1-0.2,0.3-0.3,0.4-0.5
					c0.3-0.3,0.6-0.6,0.9-0.9c0.6-0.5,1.3-1,2-1.4c1.4-0.7,2.9-1.2,4.4-1.5c0.7-0.2,1.5-0.2,2.2-0.3c0.7-0.1,1.4-0.1,2.1-0.2
					c5.6-0.2,10.3-0.3,14.1-0.4C202.8,363.3,206.9,363.2,206.9,363.2L206.9,363.2z M206.9,363.2c0,0-4.1,0.1-11.8,0.4
					c-3.8,0.1-8.6,0.3-14.1,0.5c-0.7,0-1.4,0.1-2.1,0.2c-0.7,0.1-1.4,0.2-2.2,0.3c-1.5,0.3-2.9,0.7-4.4,1.5c-0.7,0.4-1.4,0.8-2,1.3
					c-0.3,0.3-0.6,0.6-0.9,0.9c-0.1,0.2-0.3,0.3-0.4,0.5c-0.1,0.2-0.2,0.4-0.3,0.5c-0.1,0.2-0.2,0.4-0.3,0.6l-0.1,0.3
					c0,0.1-0.1,0.2-0.1,0.3c-0.1,0.2-0.1,0.4-0.2,0.6c0,0.2-0.1,0.4-0.1,0.6c-0.2,0.8-0.1,1.7,0,2.6c0.2,0.9,0.5,1.7,1,2.5
					c0.5,0.8,1.1,1.4,1.9,2c1.4,1.2,3.2,2.1,5.1,2.7c0.9,0.3,1.9,0.5,2.9,0.6c0.3,0,0.5,0,0.8,0.1c0.2,0,0.5,0,0.8,0
					c0.5,0,1,0,1.5,0.1c1,0,2.1,0.1,3.1,0.1c0.5,0,1.1,0,1.6,0.1c0.3,0,0.6,0.1,0.8,0.2c0.3,0.1,0.5,0.3,0.6,0.6
					c0.3,0.5,0.4,1.1,0.2,1.7c-0.1,0.1-0.1,0.3-0.2,0.4l-0.3,0.3l-0.3,0.3l-0.2,0.3c-0.6,0.9-1.1,1.9-1.4,2.9
					c-0.1,0.5-0.3,1.1-0.3,1.6c0,0.3,0,0.6,0,0.8c0,0.3,0,0.6,0.1,0.8c0.1,1.1,0.6,2.2,1.2,3.2c0.6,1,1.4,1.8,2.4,2.5
					c0.9,0.7,2,1.3,3.1,1.8c1.1,0.5,2.2,0.9,3.4,1.2c1.2,0.3,2.4,0.5,3.6,0.7c4.9,0.7,10.1,0.6,15.4,0.5c5.3-0.1,10.8-0.1,16.4-0.2
					c11.2-0.1,23-0.3,35.3-0.4c3.1,0,6.2-0.1,9.3-0.1c3.1,0,6.3-0.1,9.5-0.3c3.2-0.2,6.4-0.5,9.6-1c3.2-0.5,6.4-1.3,9.5-2.4l1.2-0.4
					l0.6-0.2c0.2-0.1,0.4-0.2,0.6-0.2c0.7-0.3,1.5-0.7,2.2-1.1c0.7-0.4,1.4-0.9,2-1.4c0.6-0.5,1.2-1.1,1.7-1.7c0.5-0.6,1-1.3,1.4-2
					c0.4-0.7,0.6-1.4,0.8-2.3c0.1-0.8,0.1-1.6-0.1-2.4c-0.2-0.8-0.5-1.5-1-2.2c-0.1-0.2-0.2-0.3-0.4-0.5c-0.1-0.2-0.3-0.3-0.4-0.5
					c-0.1-0.1-0.3-0.3-0.4-0.4c-0.1-0.1-0.3-0.3-0.5-0.4c-0.3-0.3-0.6-0.5-1-0.6l-1.2-0.6c-1.6-0.7-3.1-1.4-4.8-1.9
					c-3.2-1.1-6.6-2-10.1-2.5c-3.5-0.5-7-0.7-10.5-0.6c-1.8,0-3.5,0.1-5.3,0.3c-1.8,0.2-3.5,0.5-5.1,1.2c-0.4,0.2-0.8,0.3-1.2,0.6
					c-0.2,0.1-0.4,0.2-0.5,0.3l-0.2,0.2l-0.2,0.2c-0.6,0.6-0.9,1.3-0.9,2.1c0,0.2,0,0.4,0.1,0.6c0,0.1,0,0.2,0.1,0.3
					c0,0.1,0.1,0.2,0.1,0.3c0.2,0.4,0.4,0.7,0.6,1c0.5,0.6,1.3,1,2.1,1.3c0.8,0.3,1.7,0.4,2.6,0.5c0.9,0.1,1.8,0.1,2.7,0.1
					c1.8,0.1,3.7,0.1,5.5,0.2c1.8,0.1,3.7,0.1,5.6,0.3c0.9,0.1,1.9,0.1,2.8,0.2c0.9,0.1,1.9,0.2,2.9,0.5c0.1,0,0.2,0.1,0.4,0.2
					c0.1,0.1,0.2,0.1,0.3,0.2c0.2,0.1,0.4,0.3,0.7,0.5c0.2,0.2,0.4,0.4,0.5,0.8c0.1,0.2,0.1,0.4,0,0.5c0,0.2-0.1,0.3-0.1,0.4
					c-0.2,0.5-0.6,0.9-1,1.3c-0.4,0.3-0.8,0.6-1.2,0.9c-0.9,0.5-1.8,0.8-2.8,1c-0.9,0.2-1.9,0.3-2.8,0.4c-3.7,0.5-7.5,1-11.3,1.4
					c-1.9,0.2-3.8,0.4-5.7,0.6c-1.9,0.2-3.8,0.3-5.8,0.4c-3.9,0.1-7.7,0.1-11.6,0.1c-3.9,0-7.8-0.1-11.7-0.1
					c-7.8-0.1-15.7-0.2-23.6-0.2c-2,0-3.9,0-5.9-0.1c-1,0-2-0.1-3-0.3c-1-0.2-2-0.5-2.9-1.2c-0.9-0.6-1.5-1.5-1.9-2.6
					c-0.1-0.3-0.1-0.5-0.1-0.9c0-0.3,0-0.6,0.1-0.8c0.2-0.6,0.5-1,1-1.4c0.4-0.4,0.9-0.6,1.4-0.8c0.2-0.1,0.5-0.2,0.7-0.3
					c0.1,0,0.2-0.1,0.4-0.1c0.2,0,0.3,0,0.4,0c1,0,2,0,3,0c4,0.2,8,0.8,12,1.5c4,0.7,7.9,1.5,11.9,2.1c4,0.6,8,1.1,12,1.1
					c2,0,4-0.1,6-0.4c0.5-0.1,1-0.2,1.5-0.2l0.4-0.1l0.4-0.1c0.2,0,0.5-0.1,0.7-0.2c1-0.2,1.9-0.6,2.7-1.1c0.4-0.3,0.8-0.6,1.1-0.9
					c0.2-0.2,0.3-0.4,0.4-0.6c0.1-0.1,0.1-0.2,0.2-0.3c0.1-0.1,0.1-0.2,0.1-0.3c0.2-0.4,0.3-0.9,0.3-1.4c0-0.2,0-0.5,0-0.7l0-0.4
					c0-0.1,0-0.2,0-0.3c-0.1-0.5-0.2-0.9-0.5-1.3c-0.1-0.2-0.3-0.4-0.4-0.6c-0.1-0.2-0.3-0.4-0.5-0.6c-0.7-0.7-1.5-1.3-2.3-1.7
					c-0.9-0.4-1.8-0.7-2.8-0.9c-1-0.2-2-0.3-3-0.5l-3-0.4l-3-0.3c-4.1-0.4-8.1-0.7-12.2-0.9c-4.1-0.2-8.2-0.3-12.3-0.4
					c-8.2-0.1-16.4,0.1-24.6,0.3l-3.1,0.1c-0.5,0-1,0-1.5,0c-0.4,0-0.8,0.3-1,0.7c0,0.1-0.1,0.2-0.1,0.3c0,0.1,0,0.2,0,0.3
					c0,0.2,0.1,0.4,0.3,0.6c0.1,0.2,0.3,0.3,0.5,0.4c0.1,0,0.2,0.1,0.3,0.1c0.1,0,0.2,0,0.4,0l3.1-0.1c4.1-0.1,8.2-0.2,12.3-0.3
					c4.1-0.1,8.2-0.1,12.3,0c4.1,0,8.2,0.1,12.3,0.3c4.1,0.2,8.1,0.5,12.2,0.9c2,0.2,4.1,0.4,6.1,0.7c1,0.1,2,0.2,3,0.4
					c1,0.2,2,0.4,2.9,0.9c0.9,0.5,1.7,1.2,2.2,2.2c0.1,0.1,0.1,0.3,0.1,0.4c0,0.1,0,0.3,0,0.4c0,0.3,0,0.5-0.1,0.8
					c-0.1,0.5-0.5,1-1,1.3c-0.4,0.3-0.9,0.5-1.4,0.7c-0.5,0.2-1,0.3-1.5,0.4l-1.5,0.2c-0.5,0.1-1,0.1-1.5,0.2
					c-4,0.4-8.1,0.2-12.1-0.3c-8-1-15.8-3-23.8-3.8c-2-0.2-4-0.3-6-0.4c-0.5,0-1,0-1.5,0c-0.5,0-1,0.1-1.4,0.2
					c-0.9,0.3-1.8,0.7-2.6,1.3c-0.8,0.6-1.4,1.3-1.8,2.2c-0.2,0.4-0.3,0.9-0.4,1.4c-0.1,0.5-0.1,1,0,1.4c0.3,1.9,1.5,3.7,3.1,4.7
					c1.6,1.1,3.6,1.5,5.5,1.7c1,0.1,2,0.1,2.9,0.1c1,0,2,0,2.9,0c3.9,0,7.8,0.1,11.7,0.1c7.8,0.1,15.5,0.1,23.2,0.2
					c3.8,0,7.7,0.1,11.5,0c3.8-0.1,7.6-0.4,11.3-0.8c3.7-0.4,7.5-0.9,11.2-1.4c0.9-0.1,1.9-0.2,2.8-0.4c0.9-0.1,1.8-0.2,2.7-0.4
					c0.9-0.2,1.8-0.4,2.6-0.8c0.8-0.4,1.6-0.8,2.3-1.4c0.7-0.6,1.2-1.3,1.6-2.1c0-0.1,0.1-0.2,0.1-0.3l0.1-0.3
					c0-0.2,0.1-0.4,0.1-0.6c0-0.4,0-0.8-0.1-1.2c-0.2-0.8-0.8-1.5-1.5-2c-0.7-0.5-1.5-0.9-2.4-1.1c-0.9-0.2-1.7-0.3-2.6-0.4
					c-0.9-0.1-1.8-0.2-2.7-0.2c-1.8-0.1-3.6-0.2-5.4-0.3c-1.8-0.1-3.6-0.1-5.4-0.2c-0.9,0-1.8-0.1-2.7-0.1c-0.9-0.1-1.8-0.1-2.7-0.5
					c-0.2-0.1-0.5-0.2-0.7-0.4c-0.1-0.1-0.2-0.2-0.3-0.3c-0.1-0.1-0.2-0.3-0.2-0.4c0-0.1-0.1-0.3-0.1-0.4c0-0.2,0-0.5,0.2-0.6
					c0.2-0.2,0.4-0.4,0.6-0.5c0.4-0.3,0.9-0.4,1.3-0.6c0.4-0.1,0.9-0.3,1.3-0.4c1.8-0.4,3.5-0.6,5.3-0.7c3.5-0.2,7.1-0.2,10.5,0.1
					c3.5,0.3,6.9,1,10.2,2c1.6,0.5,3.3,1.1,4.8,1.7c0.4,0.2,0.8,0.3,1.2,0.5c0.4,0.2,0.8,0.4,1.2,0.5l0.6,0.3c0.1,0,0.2,0.1,0.3,0.2
					c0.1,0.1,0.2,0.2,0.3,0.2c0.3,0.3,0.6,0.6,0.9,1c0.6,0.7,1,1.6,1.1,2.5c0,0.2,0,0.5,0,0.7c0,0.1,0,0.2,0,0.3l-0.1,0.3
					c-0.1,0.4-0.3,0.9-0.5,1.3c-0.4,0.8-0.9,1.5-1.5,2.1c-0.6,0.6-1.2,1.2-1.9,1.7c-0.7,0.5-1.4,0.9-2.2,1.3
					c-0.4,0.2-0.8,0.4-1.1,0.5l-1.2,0.4l-0.6,0.2l-0.6,0.2l-1.2,0.4c-0.4,0.1-0.8,0.2-1.2,0.3c-0.4,0.1-0.8,0.2-1.2,0.3
					c-3.2,0.8-6.4,1.3-9.6,1.6c-6.4,0.6-12.7,0.6-18.8,0.6c-12.3,0.1-24.1,0.2-35.3,0.2c-5.6,0-11.1,0.1-16.4,0.1
					c-2.7,0-5.3,0-7.8,0.1c-2.6,0-5.1,0-7.6-0.2c-2.5-0.2-5-0.5-7.3-1.1c-1.2-0.3-2.3-0.7-3.4-1.2c-1.1-0.5-2.1-1.2-3-2
					c-0.4-0.4-0.8-0.9-1.1-1.4c-0.1-0.1-0.2-0.3-0.2-0.4c-0.1-0.1-0.1-0.2-0.2-0.4c-0.1-0.3-0.2-0.6-0.3-0.8
					c-0.2-1.2-0.1-2.4,0.4-3.4c0.2-0.5,0.5-1,0.9-1.5c0.2-0.2,0.4-0.4,0.5-0.6c0.2-0.2,0.3-0.4,0.5-0.7c0.5-0.9,0.7-2,0.5-3.1
					c-0.2-1-0.8-2-1.6-2.6c-0.4-0.3-0.9-0.5-1.4-0.7c-0.5-0.2-1-0.2-1.5-0.2c-2.1-0.1-4.1-0.2-6.1-0.2c-2-0.1-3.9-0.6-5.6-1.4
					c-0.9-0.4-1.6-0.9-2.3-1.5c-0.7-0.6-1.3-1.4-1.6-2.2c-0.3-0.9-0.3-1.8-0.1-2.7c0.2-0.9,0.8-1.6,1.4-2.2c0.6-0.6,1.4-1,2.1-1.3
					c0.8-0.3,1.5-0.6,2.3-0.8c1.6-0.4,3.1-0.6,4.6-0.6c1.5-0.1,2.9-0.1,4.3-0.1c5.6-0.2,10.3-0.3,14.1-0.4c1.9-0.1,3.6-0.1,5.1-0.1
					c0.7,0,1.4,0,2-0.1c0.3,0,0.6,0,0.8-0.2c0.2-0.1,0.4-0.3,0.6-0.5c0.3-0.4,0.2-0.9,0.1-1.2c-0.1-0.3-0.4-0.6-0.6-0.7
					c-0.2-0.1-0.4-0.2-0.5-0.2C207,363.2,206.9,363.2,206.9,363.2L206.9,363.2z"/>
				<path class="st2" d="M191,380.7l-21.2,0.9c-1.9,0.1-3.5-1.4-3.5-3.3c-0.1-1.9,1.4-3.5,3.3-3.5l21.2-0.9c1.9-0.1,3.5,1.4,3.5,3.3
					C194.3,379,192.8,380.6,191,380.7"/>
				<path class="st3" d="M191,381l-21.2,0.9c-2,0.1-3.8-1.5-3.8-3.5c-0.1-2,1.5-3.8,3.5-3.8l21.2-0.9c2-0.1,3.8,1.5,3.8,3.5
					C194.6,379.2,193,380.9,191,381 M169.6,375.1c-1.7,0.1-3.1,1.5-3,3.2c0.1,1.7,1.5,3.1,3.2,3l21.2-0.9c1.7-0.1,3.1-1.5,3-3.2
					c-0.1-1.7-1.5-3.1-3.2-3L169.6,375.1z"/>
				<path class="st4" d="M172.6,378.2c0,1.9-1.4,3.4-3.1,3.4s-3.1-1.5-3.1-3.4s1.4-3.4,3.1-3.4S172.6,376.3,172.6,378.2"/>
				<path class="st6" d="M172.6,378.2c0,1.9-1.4,3.4-3.1,3.4s-3.1-1.5-3.1-3.4s1.4-3.4,3.1-3.4S172.6,376.3,172.6,378.2z"/>
			</g>
		</g>
	</g>
	<g>
		<g>
			<defs>
				<rect id="SVGID_5_" x="70.2" y="375" width="162.9" height="58.6"/>
			</defs>
			<clipPath id="SVGID_6_">
				<use xlink:href="#SVGID_5_"  style="overflow:visible;"/>
			</clipPath>
			<g class="st7">
				<defs>
					<rect id="SVGID_7_" x="70.2" y="375" width="162.9" height="58.6"/>
				</defs>
				<clipPath id="SVGID_8_">
					<use xlink:href="#SVGID_7_"  style="overflow:visible;"/>
				</clipPath>
				<path class="st8" d="M137.6,391.3l-17.4,0.3c-1.5,0-2.8-1.2-2.8-2.8c0-1.5,1.2-2.8,2.8-2.8l17.4-0.3c1.5,0,2.8,1.2,2.8,2.8
					S139.1,391.3,137.6,391.3"/>
				<path class="st9" d="M137.6,391.5l-17.4,0.3c-1.7,0-3.1-1.3-3.1-3c0-1.7,1.3-3.1,3-3.1l17.4-0.3c1.7,0,3.1,1.3,3.1,3
					C140.6,390.1,139.3,391.5,137.6,391.5 M120.1,386.2c-1.4,0-2.5,1.2-2.5,2.6c0,1.4,1.2,2.5,2.6,2.5l17.4-0.3
					c1.4,0,2.5-1.2,2.5-2.6c0-1.4-1.2-2.5-2.6-2.5L120.1,386.2z"/>
				<path class="st10" d="M122.6,388.8c0,1.5-1.1,2.7-2.5,2.7s-2.5-1.2-2.5-2.7s1.1-2.7,2.5-2.7S122.6,387.3,122.6,388.8"/>
				<path class="st9" d="M120.1,391.8c-1.5,0-2.8-1.3-2.8-3c0-1.6,1.2-3,2.8-3s2.8,1.3,2.8,3C122.8,390.5,121.6,391.8,120.1,391.8
					 M120.1,386.3c-1.3,0-2.3,1.1-2.3,2.5c0,1.4,1,2.5,2.3,2.5c1.3,0,2.3-1.1,2.3-2.5C122.4,387.4,121.3,386.3,120.1,386.3"/>
				<path class="st11" d="M119.3,387.4c0.8,0,1.4,0.6,1.4,1.4c0,0.8-0.6,1.4-1.4,1.5L94.2,391c-3.1,0.1-10.5,0.8-11.2,5.5
					c-0.2,1.2,0.2,2.4,1,3.4c1.6,2,4.9,3.5,8.3,3.7c1.1,0.1,2.2,0.1,3.3,0.1c1.2,0,2.5,0.1,3.8,0.1c1.7,0.1,3.2,1.2,3.8,2.8
					c0.6,1.6,0.3,3.4-0.8,4.7c-1.7,1.9-2.2,4.3-1.4,6.2c1.3,3,4.9,4.5,7.7,5.2c5.3,1.3,10.8,1.3,16.2,1.2l61.7-0.6
					c9.9-0.1,21.1-0.2,30.7-4.2c3.1-1.3,6.5-4.1,7-6.9c0.2-1.5-0.4-2.9-2-4.2c-0.1-0.1-0.2-0.1-0.3-0.2c-6.4-3.2-13.6-5-20.9-5.3
					c-6.6-0.3-14.3,0.4-15.6,2.1c-0.1,0.1-0.1,0.2-0.1,0.5c0.4,1.1,2.3,1.4,3.9,1.4c1.5,0.1,3,0.1,4.5,0.2c3.7,0.1,7.6,0.2,11.4,0.6
					c1.4,0.1,3.2,0.3,4.7,1.2c2,1.2,2.4,2.7,2.4,3.7c-0.1,2.2-2.1,4-3.9,4.9c-1.9,1-4.1,1.3-6,1.5c-1.8,0.2-3.6,0.5-5.4,0.7
					c-3.7,0.5-7.4,1-11.2,1.3c-6.7,0.6-13.4,0.6-19.8,0.5l-38.2-0.4c-2.4,0-5.4-0.1-8-1.5c-2.5-1.4-4-4.1-3.7-6.5
					c0.2-1.4,1-3.9,5.2-5.2c0.3-0.1,0.7-0.2,1.1-0.2c6.9-0.1,13.7,1.2,20.3,2.4c9,1.7,17.6,3.3,26.1,1.7c3.6-0.7,4-2,3.9-3.3
					c0-0.2-0.1-0.4-0.2-0.6c-1.3-2.1-3.5-2.6-6.3-3c-19.8-2.8-40.3-2.2-60-1.7c-0.8,0-1.4-0.6-1.5-1.4c0-0.8,0.6-1.4,1.4-1.5
					c19.8-0.6,40.4-1.1,60.5,1.7c2.5,0.3,6.3,0.9,8.4,4.3c0.3,0.6,0.6,1.2,0.6,1.9c0.3,3.4-1.8,5.5-6.2,6.3
					c-9.1,1.7-18.3,0-27.2-1.7c-6.5-1.2-13.2-2.5-19.8-2.3c-0.1,0-0.2,0-0.3,0c-1.3,0.4-3,1.2-3.2,2.7c-0.1,1.3,0.8,2.9,2.3,3.7
					c1.9,1.1,4.4,1.1,6.6,1.1l38.2,0.4c6.4,0.1,13,0.1,19.5-0.5c3.7-0.4,7.5-0.8,11.1-1.3c1.8-0.2,3.6-0.5,5.4-0.7
					c1.7-0.2,3.6-0.4,5-1.2c1.3-0.7,2.3-1.7,2.3-2.5c0-0.4-0.3-0.8-1-1.2c-1-0.6-2.3-0.7-3.5-0.8c-3.7-0.4-7.6-0.5-11.3-0.6
					c-1.5,0-3-0.1-4.5-0.2c-3.6-0.1-5.8-1.3-6.5-3.4c-0.4-1.1-0.2-2.2,0.5-3.1c2.7-3.5,13.5-3.2,18-3c7.7,0.3,15.3,2,22.1,5.4
					c0.3,0.2,0.6,0.6,0.9,0.9c2.9,2.5,3.2,4.8,2.9,6.6c-0.6,4.1-4.8,7.5-8.7,9.1c-10.2,4.2-21.7,4.3-31.8,4.4l-61.7,0.6
					c-5.6,0.1-11.3,0.1-17-1.3c-4.9-1.2-8.2-3.6-9.6-6.8c-1.3-2.9-0.6-6.6,1.9-9.2c0.4-0.5,0.5-1.1,0.3-1.7c-0.2-0.6-0.8-1-1.4-1
					c-1.2-0.1-2.4-0.1-3.6-0.1c-1.1,0-2.3,0-3.4-0.1c-4.1-0.3-8.2-2.1-10.3-4.8c-1.4-1.7-1.9-3.6-1.6-5.6c0.7-4.8,5.6-7.6,13.9-7.9
					L119.3,387.4C119.3,387.4,119.3,387.4,119.3,387.4"/>
				<path class="st9" d="M119.3,387.4c0,0,0.1,0,0.2,0c0.1,0,0.3,0.1,0.6,0.2c0.2,0.1,0.5,0.4,0.6,0.7c0.1,0.4,0.2,0.9-0.1,1.3
					c-0.1,0.2-0.3,0.5-0.5,0.7c-0.3,0.1-0.7,0.3-1,0.3c-0.6,0-1.3,0-2,0.1c-1.5,0-3.2,0.1-5.1,0.2c-3.8,0.1-8.6,0-14.1,0.2
					c-1.4,0-2.8,0.1-4.3,0.1c-1.5,0.1-3,0.3-4.6,0.6c-0.8,0.2-1.5,0.4-2.3,0.8c-0.7,0.3-1.5,0.7-2.1,1.3c-0.6,0.6-1.1,1.3-1.3,2.1
					c-0.2,0.8-0.2,1.7,0.1,2.6c0.3,0.8,0.9,1.6,1.6,2.2c0.7,0.6,1.5,1.1,2.3,1.5c1.7,0.8,3.6,1.3,5.6,1.4c2,0.1,4,0.1,6.1,0.2
					c0.5,0,1.1,0,1.6,0.2c0.5,0.2,1,0.4,1.4,0.7c0.9,0.6,1.5,1.6,1.7,2.7c0.2,1.1,0.1,2.3-0.5,3.3c-0.1,0.2-0.3,0.5-0.5,0.7
					c-0.2,0.2-0.4,0.4-0.5,0.6c-0.3,0.4-0.6,0.9-0.8,1.4c-0.4,1-0.6,2.2-0.4,3.2c0.1,0.3,0.1,0.5,0.2,0.8c0,0.1,0.1,0.3,0.2,0.4
					c0.1,0.1,0.1,0.3,0.2,0.4c0.3,0.5,0.7,0.9,1.1,1.3c0.8,0.8,1.8,1.4,2.9,1.9c1.1,0.5,2.2,0.9,3.4,1.1c2.3,0.6,4.8,0.9,7.3,1
					c2.5,0.2,5,0.2,7.6,0.1c2.6,0,5.2-0.1,7.8-0.1c5.3-0.1,10.8-0.1,16.4-0.2c11.2-0.1,23,0,35.3-0.1c6.1-0.1,12.4,0,18.8-0.7
					c3.2-0.3,6.3-0.8,9.5-1.6c0.4-0.1,0.8-0.2,1.2-0.3c0.4-0.1,0.8-0.2,1.2-0.3l1.2-0.4l0.6-0.2l0.6-0.2l1.1-0.4
					c0.4-0.1,0.8-0.3,1.1-0.5c0.7-0.4,1.4-0.8,2.1-1.3c0.7-0.5,1.3-1,1.8-1.6c0.6-0.6,1-1.5,1.4-2.2c0.2-0.4,0.3-0.7,0.4-1.1
					l0.1-0.3l0-0.3c0-0.2,0-0.4,0-0.6c-0.1-0.7-0.4-1.5-0.9-2.1c-0.2-0.3-0.5-0.6-0.8-0.9c-0.1-0.1-0.2-0.1-0.2-0.2
					c-0.1,0-0.1-0.1-0.2-0.1l-0.6-0.3c-0.4-0.2-0.8-0.4-1.1-0.5c-0.4-0.2-0.8-0.3-1.2-0.5c-1.6-0.7-3.1-1.2-4.8-1.7
					c-3.2-1-6.6-1.7-10-2c-3.4-0.3-6.9-0.4-10.4-0.1c-1.7,0.1-3.5,0.3-5.2,0.7c-0.4,0.1-0.8,0.2-1.2,0.3c-0.4,0.1-0.8,0.3-1.1,0.5
					c-0.2,0.1-0.3,0.2-0.4,0.4c0,0.1,0,0,0,0.1c0,0.1,0,0.1,0.1,0.2c0.1,0.2,0.4,0.5,0.8,0.6c0.8,0.3,1.6,0.4,2.5,0.4
					c0.9,0,1.8,0.1,2.7,0.1c1.8,0.1,3.6,0.1,5.4,0.2c1.8,0.1,3.6,0.2,5.4,0.3c0.9,0.1,1.8,0.1,2.7,0.2c0.9,0.1,1.8,0.2,2.8,0.4
					c0.9,0.2,1.8,0.6,2.6,1.2c0.8,0.6,1.5,1.4,1.8,2.3c0.2,0.5,0.2,1,0.2,1.5c0,0.2-0.1,0.5-0.1,0.7l-0.1,0.4c0,0.1-0.1,0.2-0.1,0.3
					c-0.4,0.9-1,1.7-1.8,2.3c-0.7,0.6-1.5,1.1-2.4,1.5c-0.9,0.4-1.8,0.6-2.7,0.8c-0.9,0.2-1.9,0.3-2.8,0.4c-0.9,0.1-1.8,0.2-2.8,0.4
					c-3.7,0.5-7.4,1-11.2,1.4c-3.8,0.4-7.6,0.7-11.4,0.8c-3.8,0.1-7.6,0-11.5,0c-7.7-0.1-15.4-0.2-23.2-0.3c-3.9,0-7.8-0.1-11.7-0.1
					c-1,0-2,0-2.9,0c-1,0-2,0-3-0.1c-1-0.1-2-0.2-2.9-0.5c-0.5-0.1-1-0.3-1.4-0.5c-0.5-0.2-0.9-0.4-1.3-0.7c-0.4-0.3-0.8-0.6-1.2-1
					c-0.4-0.4-0.7-0.8-1-1.2c-0.3-0.4-0.5-0.9-0.7-1.3c-0.2-0.5-0.3-1-0.4-1.5c-0.1-0.5-0.1-1,0-1.5c0.1-0.5,0.2-1,0.4-1.5
					c0.4-0.9,1.1-1.7,1.9-2.3c0.8-0.6,1.8-1,2.7-1.3c0.5-0.2,1-0.2,1.5-0.2c0.5,0,1,0,1.5,0c2,0,4,0.2,6,0.4c4,0.4,7.9,1.1,11.9,1.9
					c3.9,0.7,7.9,1.5,11.9,2c4,0.5,8,0.7,12.1,0.3c0.5-0.1,1-0.1,1.5-0.2l1.5-0.2c0.5-0.1,1-0.2,1.5-0.4c0.5-0.2,0.9-0.3,1.3-0.6
					c0.4-0.3,0.7-0.6,0.9-1.1c0.1-0.2,0.1-0.5,0.1-0.7c0-0.1,0-0.2,0-0.4c0-0.1,0-0.2-0.1-0.3c-0.4-0.9-1.2-1.6-2.1-2
					c-0.9-0.5-1.9-0.7-2.9-0.9c-1-0.2-2-0.3-3-0.4c-2-0.3-4-0.5-6.1-0.7c-4-0.4-8.1-0.7-12.2-0.9c-4.1-0.2-8.2-0.3-12.2-0.3
					c-4.1,0-8.2,0-12.3,0.1c-4.1,0.1-8.2,0.2-12.3,0.3l-3.1,0.1c-0.1,0-0.3,0-0.4,0c-0.2,0-0.3,0-0.4-0.1c-0.3-0.1-0.5-0.3-0.7-0.5
					c-0.2-0.2-0.3-0.5-0.4-0.8c0-0.2,0-0.3,0-0.4c0-0.2,0.1-0.3,0.1-0.4c0.2-0.6,0.8-1,1.4-1c0.5,0,1,0,1.6-0.1l3.1-0.1
					c8.2-0.2,16.4-0.4,24.6-0.3c4.1,0,8.2,0.1,12.3,0.3c4.1,0.2,8.2,0.5,12.2,0.9l3,0.3l3,0.4c2,0.3,4.1,0.5,6,1.5
					c0.9,0.5,1.8,1.1,2.5,1.9c0.2,0.2,0.3,0.4,0.5,0.6c0.1,0.2,0.3,0.4,0.4,0.7c0.3,0.5,0.5,1,0.6,1.5c0,0.1,0,0.3,0.1,0.4l0,0.4
					c0,0.2,0,0.5,0,0.8c-0.1,0.5-0.2,1.1-0.4,1.6c0,0.1-0.1,0.3-0.2,0.4c-0.1,0.1-0.1,0.2-0.2,0.4c-0.2,0.2-0.3,0.5-0.5,0.7
					c-0.3,0.4-0.8,0.8-1.2,1.1c-0.9,0.6-1.9,1-2.9,1.2c-0.3,0.1-0.5,0.1-0.8,0.2l-0.4,0.1l-0.4,0.1c-0.5,0.1-1,0.2-1.5,0.2
					c-2,0.3-4.1,0.4-6.1,0.4c-4.1,0-8.1-0.4-12.1-1.1c-4-0.6-7.9-1.4-11.9-2.1c-3.9-0.7-7.9-1.3-11.9-1.4c-1,0-2-0.1-3,0
					c-0.1,0-0.2,0-0.3,0c-0.1,0-0.2,0.1-0.3,0.1c-0.2,0.1-0.4,0.2-0.7,0.3c-0.4,0.2-0.8,0.4-1.2,0.7c-0.3,0.3-0.6,0.6-0.7,1
					c-0.1,0.2-0.1,0.4-0.1,0.6c0,0.2,0,0.4,0.1,0.6c0.2,0.9,0.8,1.6,1.6,2.2c0.2,0.1,0.4,0.3,0.6,0.4c0.2,0.1,0.4,0.2,0.6,0.3
					c0.4,0.2,0.9,0.3,1.4,0.4c0.9,0.2,1.9,0.3,2.9,0.3c2,0,4,0.4,6,0.4c7.9,0.1,15.8,0.1,23.6,0.2c3.9,0,7.8,0.1,11.7,0.1
					c3.9,0,7.7,0,11.5-0.1c1.9-0.1,3.8-0.2,5.7-0.4c1.9-0.2,3.8-0.4,5.7-0.6c1.9-0.2,3.7-0.5,5.6-0.7c1.9-0.2,3.9-0.5,5.7-0.7
					c1.9-0.2,3.6-0.8,5.2-1.6c0.4-0.2,0.7-0.5,1.1-0.7c0.3-0.3,0.6-0.6,0.8-0.9c0.1-0.2,0.1-0.3,0.1-0.4c0-0.1-0.1-0.2-0.3-0.4
					c-0.1-0.1-0.3-0.3-0.5-0.3c-0.1-0.1-0.2-0.1-0.3-0.2c-0.1,0-0.2-0.1-0.3-0.1c-0.8-0.3-1.7-0.4-2.6-0.5c-0.9-0.1-1.8-0.2-2.8-0.2
					c-1.8-0.1-3.7-0.2-5.5-0.3c-1.8-0.1-3.7-0.1-5.5-0.2c-0.9,0-1.8,0-2.8-0.1c-1-0.1-1.9-0.2-2.8-0.5c-0.9-0.3-1.8-0.8-2.5-1.6
					c-0.3-0.4-0.6-0.8-0.8-1.3c0-0.1-0.1-0.2-0.1-0.4c0-0.1-0.1-0.2-0.1-0.4c-0.1-0.3-0.1-0.5-0.1-0.8c0-0.5,0.1-1,0.3-1.5
					c0.1-0.2,0.2-0.5,0.4-0.7c0.1-0.1,0.2-0.2,0.2-0.3c0.1-0.1,0.1-0.2,0.2-0.3c0.7-0.7,1.6-0.9,2.5-1.2c1.8-0.7,3.6-1,5.4-1.2
					c1.8-0.2,3.6-0.3,5.4-0.3c3.6-0.1,7.2,0.1,10.7,0.6c3.5,0.5,6.9,1.4,10.2,2.5c1.7,0.6,3.3,1.2,4.8,2l1.2,0.6
					c0.4,0.2,0.8,0.5,1.2,0.8c0.2,0.1,2.1,2.1,2.3,3c0.2,0.9,0.8,3,0.6,3.9c-0.1,0.9-0.5,1.8-0.8,2.5c-0.4,0.8-0.9,1.5-1.5,2.2
					c-0.6,0.7-1.2,1.3-1.8,1.8c-0.7,0.6-1.4,1-2.1,1.5c-0.7,0.5-1.5,0.8-2.3,1.2c-0.2,0.1-0.4,0.2-0.6,0.3l-0.6,0.2l-1.2,0.4
					c-6.3,2.2-12.9,2.8-19.3,3.1c-3.2,0.2-6.4,0.2-9.5,0.2c-3.1,0-6.2,0-9.3,0.1c-12.3,0.1-24.1,0.4-35.3,0.5
					c-5.6,0-11.1,0.1-16.4,0.1c-5.3,0-10.5,0.2-15.5-0.6c-2.5-0.4-4.9-0.9-7.1-1.9c-1.1-0.5-2.2-1.1-3.1-1.8c-1-0.7-1.8-1.6-2.4-2.6
					c-0.6-1-1.1-2.1-1.2-3.3c0-0.3,0-0.6-0.1-0.9c0-0.3,0-0.6,0-0.9c0-0.6,0.2-1.1,0.3-1.7c0.3-1.1,0.8-2.1,1.5-3l0.2-0.3l0.3-0.3
					l0.3-0.3c0.1-0.1,0.1-0.2,0.2-0.3c0.2-0.5,0.1-1-0.1-1.4c-0.3-0.4-0.8-0.7-1.3-0.7c-0.5,0-1.1,0-1.6-0.1c-1.1,0-2.1-0.1-3.1-0.1
					c-0.5,0-1,0-1.5-0.1c-0.3,0-0.5,0-0.8,0c-0.3,0-0.5,0-0.8-0.1c-1-0.1-2-0.3-3-0.6c-1.9-0.6-3.7-1.5-5.1-2.7
					c-0.7-0.6-1.4-1.3-1.9-2.1c-0.5-0.8-0.9-1.6-1.1-2.5c-0.2-0.9-0.2-1.8,0-2.7c0-0.2,0.1-0.4,0.1-0.6c0.1-0.2,0.1-0.4,0.2-0.6
					c0-0.1,0.1-0.2,0.1-0.3l0.1-0.3c0.1-0.2,0.2-0.4,0.3-0.6c0.1-0.2,0.2-0.4,0.3-0.5c0.1-0.2,0.3-0.3,0.4-0.5
					c0.3-0.3,0.6-0.6,0.9-0.9c0.6-0.5,1.3-1,2-1.4c1.4-0.7,2.9-1.2,4.4-1.5c0.7-0.2,1.5-0.2,2.2-0.3c0.7-0.1,1.4-0.1,2.1-0.2
					c5.6-0.2,10.3-0.3,14.1-0.4C115.2,387.5,119.3,387.4,119.3,387.4L119.3,387.4z M119.3,387.4c0,0-4.1,0.1-11.8,0.4
					c-3.8,0.1-8.6,0.3-14.1,0.5c-0.7,0-1.4,0.1-2.1,0.2c-0.7,0.1-1.4,0.2-2.2,0.3c-1.5,0.3-2.9,0.7-4.4,1.5c-0.7,0.4-1.4,0.8-2,1.3
					c-0.3,0.3-0.6,0.6-0.9,0.9c-0.1,0.2-0.3,0.3-0.4,0.5c-0.1,0.2-0.2,0.4-0.3,0.5c-0.1,0.2-0.2,0.4-0.3,0.6l-0.1,0.3
					c0,0.1-0.1,0.2-0.1,0.3c-0.1,0.2-0.1,0.4-0.2,0.6c0,0.2-0.1,0.4-0.1,0.6c-0.2,0.8-0.1,1.7,0,2.6c0.2,0.9,0.5,1.7,1,2.5
					c0.5,0.8,1.1,1.4,1.9,2c1.4,1.2,3.2,2.1,5.1,2.7c0.9,0.3,1.9,0.5,2.9,0.6c0.3,0,0.5,0,0.8,0.1c0.2,0,0.5,0,0.8,0
					c0.5,0,1,0,1.5,0.1c1,0,2.1,0.1,3.1,0.1c0.5,0,1.1,0,1.6,0.1c0.3,0,0.6,0.1,0.8,0.2c0.3,0.1,0.5,0.3,0.6,0.6
					c0.3,0.5,0.4,1.1,0.2,1.7c-0.1,0.1-0.1,0.3-0.2,0.4l-0.3,0.3l-0.3,0.3l-0.2,0.3c-0.6,0.9-1.1,1.9-1.4,2.9
					c-0.1,0.5-0.3,1.1-0.3,1.6c0,0.3,0,0.6,0,0.8c0,0.3,0,0.6,0.1,0.8c0.1,1.1,0.6,2.2,1.2,3.2c0.6,1,1.4,1.8,2.4,2.5
					c0.9,0.7,2,1.3,3.1,1.8c1.1,0.5,2.2,0.9,3.4,1.2c1.2,0.3,2.4,0.5,3.6,0.7c4.9,0.7,10.1,0.6,15.4,0.5c5.3-0.1,10.8-0.1,16.4-0.2
					c11.2-0.1,23-0.3,35.3-0.4c3.1,0,6.2-0.1,9.3-0.1c3.1,0,6.3-0.1,9.5-0.3c3.2-0.2,6.4-0.5,9.6-1c3.2-0.5,6.4-1.3,9.5-2.4l1.2-0.4
					l0.6-0.2c0.2-0.1,0.4-0.2,0.6-0.2c0.7-0.3,1.5-0.7,2.2-1.1c0.7-0.4,1.4-0.9,2-1.4c0.6-0.5,1.2-1.1,1.7-1.7c0.5-0.6,1-1.3,1.4-2
					c0.4-0.7,0.6-1.4,0.8-2.3c0.1-0.8,0.1-1.6-0.1-2.4c-0.2-0.8-0.5-1.5-1-2.2c-0.1-0.2-0.2-0.3-0.4-0.5c-0.1-0.2-0.3-0.3-0.4-0.5
					c-0.1-0.1-0.3-0.3-0.4-0.4c-0.1-0.1-0.3-0.3-0.5-0.4c-0.3-0.3-0.6-0.5-1-0.6l-1.2-0.6c-1.6-0.7-3.1-1.4-4.8-1.9
					c-3.2-1.1-6.6-2-10.1-2.5c-3.5-0.5-7-0.7-10.5-0.6c-1.8,0-3.5,0.1-5.3,0.3c-1.8,0.2-3.5,0.5-5.1,1.2c-0.4,0.2-0.8,0.3-1.2,0.6
					c-0.2,0.1-0.4,0.2-0.5,0.3l-0.2,0.2l-0.2,0.2c-0.6,0.6-0.9,1.3-0.9,2.1c0,0.2,0,0.4,0.1,0.6c0,0.1,0,0.2,0.1,0.3
					c0,0.1,0.1,0.2,0.1,0.3c0.2,0.4,0.4,0.7,0.6,1c0.5,0.6,1.3,1,2.1,1.3c0.8,0.3,1.7,0.4,2.6,0.5c0.9,0.1,1.8,0.1,2.7,0.1
					c1.8,0.1,3.7,0.1,5.5,0.2c1.8,0.1,3.7,0.1,5.6,0.3c0.9,0.1,1.9,0.1,2.8,0.2c0.9,0.1,1.9,0.2,2.9,0.5c0.1,0,0.2,0.1,0.4,0.2
					c0.1,0.1,0.2,0.1,0.3,0.2c0.2,0.1,0.4,0.3,0.7,0.5c0.2,0.2,0.4,0.4,0.5,0.8c0.1,0.2,0.1,0.4,0,0.5c0,0.2-0.1,0.3-0.1,0.4
					c-0.2,0.5-0.6,0.9-1,1.3c-0.4,0.3-0.8,0.6-1.2,0.9c-0.9,0.5-1.8,0.8-2.8,1c-0.9,0.2-1.9,0.3-2.8,0.4c-3.7,0.5-7.5,1-11.3,1.4
					c-1.9,0.2-3.8,0.4-5.7,0.6c-1.9,0.2-3.8,0.3-5.8,0.4c-3.9,0.1-7.7,0.1-11.6,0.1c-3.9,0-7.8-0.1-11.7-0.1
					c-7.8-0.1-15.7-0.2-23.6-0.2c-2,0-3.9,0-5.9-0.1c-1,0-2-0.1-3-0.3c-1-0.2-2-0.5-2.9-1.2c-0.9-0.6-1.5-1.5-1.9-2.6
					c-0.1-0.3-0.1-0.5-0.1-0.8c0-0.3,0-0.6,0.1-0.8c0.2-0.6,0.5-1,1-1.4c0.4-0.4,0.9-0.6,1.4-0.8c0.2-0.1,0.5-0.2,0.7-0.3
					c0.1,0,0.2-0.1,0.4-0.1c0.2,0,0.3,0,0.4,0c1,0,2,0,3,0c4,0.2,8,0.8,12,1.5c4,0.7,7.9,1.5,11.9,2.1c4,0.6,8,1.1,12,1.1
					c2,0,4-0.1,6-0.4c0.5-0.1,1-0.2,1.5-0.2l0.4-0.1l0.4-0.1c0.2,0,0.5-0.1,0.7-0.2c1-0.2,1.9-0.6,2.7-1.1c0.4-0.3,0.8-0.6,1.1-0.9
					c0.2-0.2,0.3-0.4,0.4-0.6c0.1-0.1,0.1-0.2,0.2-0.3c0.1-0.1,0.1-0.2,0.1-0.3c0.2-0.4,0.3-0.9,0.3-1.4c0-0.2,0-0.5,0-0.7l0-0.4
					c0-0.1,0-0.2,0-0.3c-0.1-0.5-0.2-0.9-0.5-1.3c-0.1-0.2-0.3-0.4-0.4-0.6c-0.1-0.2-0.3-0.4-0.5-0.6c-0.7-0.7-1.5-1.3-2.3-1.7
					c-0.9-0.4-1.8-0.7-2.8-0.9c-1-0.2-2-0.3-3-0.5l-3-0.4l-3-0.3c-4.1-0.4-8.1-0.7-12.2-0.9c-4.1-0.2-8.2-0.3-12.3-0.4
					c-8.2-0.1-16.4,0.1-24.6,0.3l-3.1,0.1c-0.5,0-1,0-1.5,0c-0.4,0-0.8,0.3-1,0.7c0,0.1-0.1,0.2-0.1,0.3c0,0.1,0,0.2,0,0.3
					c0,0.2,0.1,0.4,0.3,0.6c0.1,0.2,0.3,0.3,0.5,0.4c0.1,0,0.2,0.1,0.3,0.1c0.1,0,0.2,0,0.4,0l3.1-0.1c4.1-0.1,8.2-0.2,12.3-0.3
					c4.1-0.1,8.2-0.1,12.3,0c4.1,0,8.2,0.1,12.3,0.3c4.1,0.2,8.1,0.5,12.2,0.9c2,0.2,4.1,0.4,6.1,0.7c1,0.1,2,0.2,3,0.4
					c1,0.2,2,0.4,2.9,0.9c0.9,0.5,1.7,1.2,2.2,2.2c0.1,0.1,0.1,0.3,0.1,0.4c0,0.1,0,0.3,0,0.4c0,0.3,0,0.5-0.1,0.8
					c-0.1,0.5-0.5,1-1,1.3c-0.4,0.3-0.9,0.5-1.4,0.7c-0.5,0.2-1,0.3-1.5,0.4l-1.5,0.2c-0.5,0.1-1,0.1-1.5,0.2
					c-4,0.4-8.1,0.2-12.1-0.3c-8-1-15.8-3-23.8-3.8c-2-0.2-4-0.3-6-0.4c-0.5,0-1,0-1.5,0c-0.5,0-1,0.1-1.4,0.2
					c-0.9,0.3-1.8,0.7-2.6,1.3c-0.8,0.6-1.4,1.3-1.8,2.2c-0.2,0.4-0.3,0.9-0.4,1.4c-0.1,0.5-0.1,1,0,1.4c0.3,1.9,1.5,3.7,3.1,4.7
					c1.6,1.1,3.6,1.5,5.5,1.7c1,0.1,2,0.1,2.9,0.1c1,0,2,0,2.9,0c3.9,0,7.8,0.1,11.7,0.1c7.8,0.1,15.5,0.1,23.2,0.2
					c3.8,0,7.7,0.1,11.5,0c3.8-0.1,7.6-0.4,11.3-0.8c3.7-0.4,7.5-0.9,11.2-1.4c0.9-0.1,1.9-0.2,2.8-0.4c0.9-0.1,1.8-0.2,2.7-0.4
					c0.9-0.2,1.8-0.4,2.6-0.8c0.8-0.4,1.6-0.8,2.3-1.4c0.7-0.6,1.2-1.3,1.6-2.1c0-0.1,0.1-0.2,0.1-0.3l0.1-0.3
					c0-0.2,0.1-0.4,0.1-0.6c0-0.4,0-0.8-0.1-1.2c-0.2-0.8-0.8-1.5-1.5-2c-0.7-0.5-1.5-0.9-2.4-1.1c-0.9-0.2-1.7-0.3-2.6-0.4
					c-0.9-0.1-1.8-0.2-2.7-0.2c-1.8-0.1-3.6-0.2-5.4-0.3c-1.8-0.1-3.6-0.1-5.4-0.2c-0.9,0-1.8-0.1-2.7-0.1c-0.9-0.1-1.8-0.1-2.7-0.5
					c-0.2-0.1-0.5-0.2-0.7-0.4c-0.1-0.1-0.2-0.2-0.3-0.3c-0.1-0.1-0.2-0.3-0.2-0.4c0-0.1-0.1-0.3-0.1-0.4c0-0.2,0-0.5,0.2-0.6
					c0.2-0.2,0.4-0.4,0.6-0.5c0.4-0.3,0.9-0.4,1.3-0.6c0.4-0.1,0.9-0.3,1.3-0.4c1.8-0.4,3.5-0.6,5.3-0.7c3.5-0.2,7.1-0.2,10.5,0.1
					c3.5,0.3,6.9,1,10.2,2c1.6,0.5,3.3,1.1,4.8,1.7c0.4,0.2,0.8,0.3,1.2,0.5c0.4,0.2,0.8,0.4,1.2,0.5l0.6,0.3c0.1,0,0.2,0.1,0.3,0.2
					c0.1,0.1,0.2,0.2,0.3,0.2c0.3,0.3,0.6,0.6,0.9,1c0.6,0.7,1,1.6,1.1,2.5c0,0.2,0,0.5,0,0.7c0,0.1,0,0.2,0,0.3l-0.1,0.3
					c-0.1,0.4-0.3,0.9-0.5,1.3c-0.4,0.8-0.9,1.5-1.5,2.1c-0.6,0.6-1.2,1.2-1.9,1.7c-0.7,0.5-1.4,0.9-2.2,1.3
					c-0.4,0.2-0.8,0.4-1.1,0.5l-1.2,0.4l-0.6,0.2l-0.6,0.2l-1.2,0.4c-0.4,0.1-0.8,0.2-1.2,0.3c-0.4,0.1-0.8,0.2-1.2,0.3
					c-3.2,0.8-6.4,1.3-9.6,1.6c-6.4,0.6-12.7,0.6-18.8,0.6c-12.3,0.1-24.1,0.2-35.3,0.2c-5.6,0-11.1,0.1-16.4,0.1
					c-2.7,0-5.3,0-7.8,0.1c-2.6,0-5.1,0-7.6-0.2c-2.5-0.2-5-0.5-7.3-1.1c-1.2-0.3-2.3-0.7-3.4-1.2c-1.1-0.5-2.1-1.2-3-2
					c-0.4-0.4-0.8-0.9-1.1-1.4c-0.1-0.1-0.2-0.3-0.2-0.4c-0.1-0.1-0.1-0.2-0.2-0.4c-0.1-0.3-0.2-0.6-0.3-0.8
					c-0.2-1.2-0.1-2.4,0.4-3.4c0.2-0.5,0.5-1,0.9-1.5c0.2-0.2,0.4-0.4,0.5-0.6c0.2-0.2,0.3-0.4,0.5-0.7c0.5-0.9,0.7-2,0.5-3.1
					c-0.2-1-0.8-2-1.6-2.6c-0.4-0.3-0.9-0.5-1.4-0.7c-0.5-0.2-1-0.2-1.5-0.2c-2.1-0.1-4.1-0.2-6.1-0.2c-2-0.1-3.9-0.6-5.6-1.4
					c-0.9-0.4-1.6-0.9-2.3-1.5c-0.7-0.6-1.3-1.4-1.6-2.2c-0.3-0.9-0.3-1.8-0.1-2.7c0.2-0.9,0.8-1.6,1.4-2.2c0.6-0.6,1.4-1,2.1-1.3
					c0.8-0.3,1.5-0.6,2.3-0.8c1.6-0.4,3.1-0.6,4.6-0.6c1.5-0.1,2.9-0.1,4.3-0.1c5.6-0.2,10.3-0.3,14.1-0.4c1.9-0.1,3.6-0.1,5.1-0.1
					c0.7,0,1.4,0,2-0.1c0.3,0,0.6,0,0.8-0.2c0.2-0.1,0.4-0.3,0.6-0.5c0.3-0.4,0.2-0.9,0.1-1.2c-0.1-0.3-0.4-0.6-0.6-0.7
					c-0.2-0.1-0.4-0.2-0.5-0.2C119.3,387.4,119.3,387.4,119.3,387.4L119.3,387.4z"/>
				<path class="st8" d="M103.3,404.9l-21.2,0.9c-1.9,0.1-3.5-1.4-3.5-3.3c-0.1-1.9,1.4-3.5,3.3-3.5l21.2-0.9
					c1.9-0.1,3.5,1.4,3.5,3.3C106.7,403.2,105.2,404.8,103.3,404.9"/>
				<path class="st9" d="M103.3,405.2l-21.2,0.9c-2,0.1-3.8-1.5-3.8-3.5c-0.1-2,1.5-3.8,3.5-3.8l21.2-0.9c2-0.1,3.8,1.5,3.8,3.5
					C107,403.4,105.4,405.1,103.3,405.2 M81.9,399.3c-1.7,0.1-3.1,1.5-3,3.2c0.1,1.7,1.5,3.1,3.2,3l21.2-0.9c1.7-0.1,3.1-1.5,3-3.2
					c-0.1-1.7-1.5-3.1-3.2-3L81.9,399.3z"/>
				<path class="st10" d="M84.9,402.4c0,1.9-1.4,3.4-3.1,3.4s-3.1-1.5-3.1-3.4c0-1.9,1.4-3.4,3.1-3.4S84.9,400.5,84.9,402.4"/>
				<path class="st12" d="M84.9,402.4c0,1.9-1.4,3.4-3.1,3.4s-3.1-1.5-3.1-3.4c0-1.9,1.4-3.4,3.1-3.4S84.9,400.5,84.9,402.4z"/>
			</g>
		</g>
	</g>
	<g>
		<g>
			<defs>
				<rect id="SVGID_9_" x="89.2" y="180.3" width="165" height="270.5"/>
			</defs>
			<clipPath id="SVGID_10_">
				<use xlink:href="#SVGID_9_"  style="overflow:visible;"/>
			</clipPath>
			<g class="st13">
				<defs>
					<rect id="SVGID_11_" x="89.2" y="180.3" width="165" height="270.5"/>
				</defs>
				<clipPath id="SVGID_12_">
					<use xlink:href="#SVGID_11_"  style="overflow:visible;"/>
				</clipPath>
				<path class="st14" d="M189.4,316.3c-8.4,0.6-16.7,0.8-25.1,0.7c-10.2-0.1-27.6,3.9-26.7-9.8c0.9-12.8,1.7-25.7,2.6-38.5
					c0.6-9.4,1-18.8,1.9-28.2c0.1-1.4,0.4-3,1.7-3.6c0.8-0.5,1.8-0.4,2.8-0.3c9,0.9,17.7,1.2,26.6,2.3c3.3,0.4,28.1-2.5,28.9-0.8
					c4.7,9.6,3.1,23.9,4.3,34.3c1.4,12.4,0.2,25.5,0.2,37.9c0,1.5-0.1,3.1-1.2,4c-0.7,0.6-1.7,0.7-2.6,0.8
					C198.3,315.5,193.9,316,189.4,316.3"/>
				<path class="st15" d="M151.5,318.3c-4.9,0-9.6-0.6-12.3-3.4c-1.8-1.8-2.6-4.4-2.4-7.8l2.6-38.5c0.2-2.9,0.4-5.9,0.5-8.8
					c0.4-6.4,0.8-13,1.4-19.4c0.2-1.5,0.5-3.4,2.1-4.3c1.1-0.6,2.3-0.5,3.2-0.4c3.8,0.4,7.7,0.7,11.4,0.9c5,0.4,10.1,0.7,15.2,1.3
					c1.2,0.1,5.7-0.2,10.4-0.5c15.2-1.1,18.6-1.1,19.2,0.2c3.3,6.8,3.6,15.6,3.8,24.1c0.1,3.8,0.2,7.3,0.5,10.5
					c1,8.6,0.7,17.6,0.4,26.4c-0.1,3.8-0.2,7.8-0.2,11.7c0,1.2,0,3.4-1.6,4.7c-0.9,0.7-2.1,0.9-3,1c-4.4,0.5-8.9,0.9-13.4,1.2
					c-8.3,0.6-16.8,0.8-25.2,0.7c-1.8,0-3.9,0.1-6.1,0.2C156,318.2,153.7,318.3,151.5,318.3 M145.4,237.3c-0.4,0-0.9,0.1-1.2,0.2
					c-0.9,0.5-1.1,1.8-1.2,3c-0.7,6.4-1,13-1.4,19.3c-0.2,2.9-0.3,5.9-0.5,8.8l-2.6,38.5c-0.2,2.9,0.4,5,1.9,6.5
					c3.4,3.5,11,3,17.7,2.7c2.2-0.1,4.3-0.2,6.2-0.2c8.3,0.1,16.7-0.2,25-0.7l0.1,0.8l-0.1-0.8c4.4-0.3,8.9-0.7,13.3-1.2
					c0.9-0.1,1.6-0.2,2.1-0.6c0.8-0.7,0.9-2.1,0.9-3.4c0-3.9,0.1-7.9,0.2-11.7c0.3-8.7,0.5-17.6-0.4-26.1c-0.4-3.3-0.5-6.8-0.6-10.6
					c-0.2-8.3-0.4-16.9-3.5-23.3c-1.6-0.6-11.6,0.1-17.7,0.6c-5.2,0.4-9.4,0.7-10.7,0.5c-5-0.6-10.2-1-15.1-1.3
					c-3.7-0.3-7.6-0.6-11.5-0.9C146.1,237.3,145.8,237.3,145.4,237.3"/>
				<rect x="137.6" y="320.4" class="st16" width="8.9" height="74.2"/>
				<path class="st15" d="M147.3,395.5h-10.6v-75.9h10.6V395.5z M138.4,393.8h7.3v-72.6h-7.3V393.8z"/>
				<rect x="146.5" y="311.1" class="st17" width="8.9" height="74.2"/>
				<path class="st15" d="M156.2,386.1h-10.6v-75.9h10.6V386.1z M147.3,384.4h7.3v-72.6h-7.3V384.4z"/>
				<rect x="194.5" y="320.4" class="st16" width="8.9" height="74.2"/>
				<path class="st15" d="M204.2,395.5h-10.6v-75.9h10.6V395.5z M195.3,393.8h7.3v-72.6h-7.3V393.8z"/>
				<rect x="185.6" y="311.1" class="st17" width="8.9" height="74.2"/>
				<path class="st15" d="M195.3,386.1h-10.6v-75.9h10.6V386.1z M186.4,384.4h7.3v-72.6h-7.3V384.4z"/>
				<path class="st18" d="M202.3,334.5c6.1-1.7,10.6-4.8,11.2-10.4c0.7-7.1-4.8-13.6-11.4-16.3c-6.6-2.7-13.9-2.6-21.1-2.3
					c-11.4,0.4-33.5-3.7-43.5,3c-7.6,5.1-11.6,16.4-2,21.5c9,4.8,19.6,5.5,29.8,5.5C172.5,335.6,190.5,337.7,202.3,334.5"/>
				<path class="st15" d="M185.2,337.1c-4.9,0-9.6-0.3-13.4-0.5c-2.6-0.1-4.8-0.3-6.5-0.3c-10.3-0.1-21-0.8-30.2-5.6
					c-4.7-2.5-5.9-6.1-6-8.8c-0.3-5,2.9-10.7,8-14.1c7.5-5.1,21.5-4.2,32.8-3.6c4.2,0.2,8.1,0.5,11.2,0.4c6.8-0.2,14.6-0.5,21.4,2.4
					c6.5,2.7,12.7,9.5,11.9,17.2c-0.5,5.4-4.5,9.1-11.8,11.1C197.4,336.7,191.2,337.1,185.2,337.1 M156.9,305.4
					c-7.4,0-14.5,0.8-19,3.8c-4.5,3.1-7.5,8.3-7.3,12.7c0.2,3.2,2,5.7,5.1,7.4c8.9,4.7,19.4,5.4,29.5,5.5c1.7,0,4,0.1,6.6,0.3
					c8.5,0.5,21.2,1.2,30.2-1.3l0.2,0.8l-0.2-0.8c6.6-1.8,10.1-5,10.6-9.6c0.7-6.9-5-13-10.9-15.5c-6.5-2.7-14.1-2.5-20.7-2.3
					c-3.2,0.1-7.1-0.1-11.4-0.4C165.6,305.7,161.2,305.4,156.9,305.4"/>
			</g>
		</g>
	</g>
</g>
<g id="P2">
	<g>
		<g>
			<defs>
				<rect id="SVGID_13_" x="435.6" y="172.6" width="165" height="270.5"/>
			</defs>
			<clipPath id="SVGID_14_">
				<use xlink:href="#SVGID_13_"  style="overflow:visible;"/>
			</clipPath>
			<g class="st19">
				<defs>
					<rect id="SVGID_15_" x="435.6" y="172.6" width="165" height="270.5"/>
				</defs>
				<clipPath id="SVGID_16_">
					<use xlink:href="#SVGID_15_"  style="overflow:visible;"/>
				</clipPath>
				<path class="st20" d="M535.8,308.5c-8.4,0.6-16.7,0.8-25.1,0.7c-10.2-0.1-27.6,3.9-26.7-9.8c0.9-12.8,1.7-25.7,2.6-38.5
					c0.6-9.4,1-18.8,1.9-28.2c0.1-1.4,0.4-3,1.7-3.6c0.8-0.5,1.8-0.4,2.8-0.3c9,0.9,17.7,1.2,26.6,2.3c3.3,0.4,28.1-2.5,28.9-0.8
					c4.7,9.6,3.1,23.9,4.3,34.3c1.4,12.4,0.2,25.5,0.2,37.9c0,1.5-0.1,3.1-1.2,4c-0.7,0.6-1.7,0.7-2.6,0.8
					C544.7,307.8,540.3,308.2,535.8,308.5"/>
				<path class="st21" d="M497.9,310.5c-4.9,0-9.6-0.6-12.3-3.4c-1.8-1.8-2.6-4.4-2.4-7.8l2.6-38.5c0.2-2.9,0.4-5.9,0.5-8.8
					c0.4-6.4,0.8-13,1.4-19.4c0.2-1.5,0.5-3.4,2.1-4.3c1.1-0.6,2.3-0.5,3.2-0.4c3.8,0.4,7.7,0.7,11.4,0.9c5,0.4,10.1,0.7,15.2,1.3
					c1.2,0.1,5.7-0.2,10.4-0.5c15.2-1.1,18.6-1.1,19.2,0.2c3.3,6.8,3.6,15.6,3.8,24.1c0.1,3.8,0.2,7.3,0.5,10.5
					c1,8.6,0.7,17.6,0.4,26.4c-0.1,3.8-0.2,7.8-0.2,11.7c0,1.2,0,3.4-1.6,4.7c-0.9,0.7-2.1,0.9-3,1c-4.4,0.5-8.9,0.9-13.4,1.2
					c-8.3,0.6-16.8,0.8-25.2,0.7c-1.8,0-3.9,0.1-6.1,0.2C502.4,310.4,500.1,310.5,497.9,310.5 M491.8,229.6c-0.4,0-0.9,0.1-1.2,0.2
					c-0.9,0.5-1.1,1.8-1.2,3c-0.7,6.4-1,13-1.4,19.3c-0.2,2.9-0.3,5.9-0.5,8.8l-2.6,38.5c-0.2,2.9,0.4,5,1.9,6.5
					c3.4,3.5,11,3,17.7,2.7c2.2-0.1,4.3-0.2,6.2-0.2c8.3,0.1,16.7-0.2,25-0.7l0.1,0.8l-0.1-0.8c4.4-0.3,8.9-0.7,13.3-1.2
					c0.9-0.1,1.6-0.2,2.1-0.6c0.8-0.7,0.9-2.1,0.9-3.4c0-3.9,0.1-7.9,0.2-11.7c0.3-8.7,0.5-17.6-0.4-26.1c-0.4-3.3-0.5-6.8-0.6-10.6
					c-0.2-8.3-0.4-16.9-3.5-23.3c-1.6-0.6-11.6,0.1-17.7,0.6c-5.2,0.4-9.4,0.7-10.7,0.5c-5-0.6-10.2-1-15.1-1.3
					c-3.7-0.3-7.6-0.6-11.5-0.9C492.5,229.6,492.1,229.6,491.8,229.6"/>
				<rect x="484" y="312.7" class="st22" width="8.9" height="74.2"/>
				<path class="st21" d="M493.7,387.7h-10.6v-75.9h10.6V387.7z M484.8,386.1h7.3v-72.6h-7.3V386.1z"/>
				<rect x="492.9" y="303.3" class="st23" width="8.9" height="74.2"/>
				<path class="st21" d="M502.6,378.4h-10.6v-75.9h10.6V378.4z M493.7,376.7h7.3v-72.6h-7.3V376.7z"/>
				<rect x="540.9" y="312.7" class="st22" width="8.9" height="74.2"/>
				<path class="st21" d="M550.6,387.7H540v-75.9h10.6V387.7z M541.7,386.1h7.3v-72.6h-7.3V386.1z"/>
				<rect x="532" y="303.3" class="st23" width="8.9" height="74.2"/>
				<path class="st21" d="M541.7,378.4h-10.6v-75.9h10.6V378.4z M532.8,376.7h7.3v-72.6h-7.3V376.7z"/>
				<path class="st24" d="M548.7,326.8c6.1-1.7,10.6-4.8,11.2-10.4c0.7-7.1-4.8-13.6-11.4-16.3c-6.6-2.7-13.9-2.6-21.1-2.3
					c-11.4,0.4-33.5-3.7-43.5,3c-7.6,5.1-11.6,16.4-2,21.5c9,4.8,19.6,5.5,29.8,5.5C518.9,327.8,536.9,330,548.7,326.8"/>
				<path class="st21" d="M531.6,329.4c-4.9,0-9.6-0.3-13.4-0.5c-2.6-0.1-4.8-0.3-6.5-0.3c-10.3-0.1-21-0.8-30.2-5.6
					c-4.7-2.5-5.9-6.1-6-8.8c-0.3-5,2.9-10.7,8-14.1c7.5-5.1,21.5-4.2,32.8-3.6c4.2,0.2,8.1,0.5,11.2,0.4c6.8-0.2,14.6-0.5,21.4,2.4
					c6.5,2.7,12.7,9.5,11.9,17.2c-0.5,5.4-4.5,9.1-11.8,11.1C543.8,329,537.6,329.4,531.6,329.4 M503.3,297.7
					c-7.4,0-14.5,0.8-19,3.8c-4.5,3.1-7.5,8.3-7.3,12.7c0.2,3.2,2,5.7,5.1,7.4c8.9,4.7,19.4,5.4,29.5,5.5c1.7,0,4,0.1,6.6,0.3
					c8.5,0.5,21.2,1.2,30.2-1.3l0.2,0.8l-0.2-0.8c6.6-1.8,10.1-5,10.6-9.6c0.7-6.9-5-13-10.9-15.5c-6.5-2.7-14.1-2.5-20.7-2.3
					c-3.2,0.1-7.1-0.1-11.4-0.4C512,297.9,507.6,297.7,503.3,297.7"/>
			</g>
		</g>
	</g>
</g>
</svg>
