<?xml version="1.0" encoding="utf-8"?>
<!-- Generator: Adobe Illustrator 22.1.0, SVG Export Plug-In . SVG Version: 6.00 Build 0)  -->
<svg version="1.1" xmlns="http://www.w3.org/2000/svg" xmlns:xlink="http://www.w3.org/1999/xlink" x="0px" y="0px"
	 viewBox="0 0 690 500" style="enable-background:new 0 0 690 500;" xml:space="preserve">
<style type="text/css">
	.st0{fill:#FFFFFF;stroke:#000000;stroke-miterlimit:10;}
	.st1{font-family:'Roboto-Black', sans-serif}
	.st2{font-size:43px;}
	.st3{clip-path:url(#SVGID_2_);}
	.st4{clip-path:url(#SVGID_4_);}
	.st5{clip-path:url(#SVGID_4_);fill:#4D1D16;}
	.st6{clip-path:url(#SVGID_4_);fill:#F5CEA2;}
	.st7{clip-path:url(#SVGID_4_);fill:#1B9106;}
	.st8{clip-path:url(#SVGID_6_);}
	.st9{clip-path:url(#SVGID_8_);}
	.st10{clip-path:url(#SVGID_8_);fill:#4D1D16;}
	.st11{clip-path:url(#SVGID_8_);fill:#F5CEA2;}
	.st12{clip-path:url(#SVGID_8_);fill:#1B9106;}
	.st13{clip-path:url(#SVGID_10_);}
	.st14{clip-path:url(#SVGID_12_);}
	.st15{clip-path:url(#SVGID_12_);fill:#4D1D16;}
	.st16{clip-path:url(#SVGID_12_);fill:#F5CEA2;}
	.st17{clip-path:url(#SVGID_12_);fill:#1B9106;}
	.st18{clip-path:url(#SVGID_14_);}
	.st19{clip-path:url(#SVGID_16_);}
	.st20{clip-path:url(#SVGID_16_);fill:#4D1D16;}
	.st21{clip-path:url(#SVGID_16_);fill:#F5CEA2;}
	.st22{clip-path:url(#SVGID_16_);fill:#1B9106;}
	.st23{clip-path:url(#SVGID_18_);}
	.st24{clip-path:url(#SVGID_20_);}
	.st25{clip-path:url(#SVGID_20_);fill:#4D1D16;}
	.st26{clip-path:url(#SVGID_20_);fill:#F5CEA2;}
	.st27{clip-path:url(#SVGID_20_);fill:#1B9106;}
</style>
<g id="E">
	<text transform="matrix(1 0 0 1 541 79)" class="st0 st1 st2">e</text>
</g>
<g id="U">
	<text transform="matrix(1 0 0 1 347 207)" class="st0 st1 st2">u</text>
</g>
<g id="A">
	<text transform="matrix(1 0 0 1 144 78)" class="st0 st1 st2">a</text>
</g>
<g id="LETTER_FIRST">
	<text transform="matrix(1 0 0 1 300.9998 207)" class="st0 st1 st2">y</text>
	<text transform="matrix(1 0 0 1 500.9998 79)" class="st0 st1 st2">y</text>
	<text transform="matrix(1 0 0 1 100.9998 79)" class="st0 st1 st2">y</text>
</g>
<g id="B3">
	<g>
		<g>
			<defs>
				<rect id="SVGID_9_" x="252.4" y="213.2" width="166.5" height="114.9"/>
			</defs>
			<clipPath id="SVGID_10_">
				<use xlink:href="#SVGID_9_"  style="overflow:visible;"/>
			</clipPath>
			<g class="st13">
				<defs>
					<rect id="SVGID_11_" x="252.4" y="213.2" width="166.5" height="114.9"/>
				</defs>
				<clipPath id="SVGID_12_">
					<use xlink:href="#SVGID_11_"  style="overflow:visible;"/>
				</clipPath>
				<path class="st14" d="M344,224.8c0.8-0.5,1.5-1,2.2-1.5c2.7-1.7,5.7-2.7,8.8-3.4c0.5-0.1,1-0.3,1.5-0.4c0.5-0.1,0.8,0.1,0.8,0.5
					c0.2,2,0.3,4-0.1,5.9c-0.4,2-1.7,3.4-3.4,4.3c-1.8,1-3.8,1.5-5.8,1.8c-1.8,0.2-3.7,0.4-5.5,0.3c-0.2,0-0.3,0-0.3,0.2
					c-0.3,1.3-0.7,2.6-1,4c0.1,0,0.2,0,0.3,0c9.2-1.3,18.4-2.6,27.6-3.9c3.7-0.5,7.5-1,11.2-1.5c0.5-0.1,0.8,0,1.2,0.2
					c1,0.5,2,0.9,2.9,1.5c2.6,1.6,4.7,3.7,6.6,6.1c4.4,5.6,7.1,12,8,19.1c0.8,6.4-0.2,12.5-2.7,18.4c-1.2,2.9-2.7,5.6-4.7,8.1
					c-0.8,1.1-1.8,2-2.7,3c-0.4,0.4-0.8,0.7-1.3,1.1c-0.1,0.1-0.3,0.1-0.5,0.2c-5.5,1.1-10.9,2.3-16.4,3.3
					c-14.3,2.7-28.6,5.5-42.9,8.1c-10.6,2-21.3,3.9-31.9,5.8c-2.5,0.4-5,0.9-7.4,1.4c-0.5,0.1-1.1,0.3-1.6,0.4
					c-1.4,0.2-2.8-0.2-4.1-0.7c-2.1-0.8-3.8-2.2-5.3-3.9c-3-3.3-5-7.1-6.7-11.2c-1.8-4.4-3-9-3.6-13.8c-0.5-3.7-0.7-7.5-0.5-11.3
					c0.2-3.8,0.9-7.6,2.4-11.2c1.5-3.4,3.5-6.4,6.7-8.4c1.7-1.1,3.5-1.8,5.6-2c0.9-0.1,1.8,0,2.7-0.1c1.5-0.1,2.9-0.3,4.4-0.5
					c7.1-1.1,14.3-2.3,21.4-3.4c6.5-1,13-2,19.5-3c0.2,0,0.5-0.2,0.6-0.3c2-1.6,3.1-3.7,3.6-6.2c0.5-2.8,1-5.5,1.6-8.3
					c0.1-0.6,0.3-1.2,0.5-1.8c0.2-0.7,0.7-1,1.4-1.1c2-0.2,4-0.3,6.1-0.5c0.2,0,0.5,0,0.7,0c0.6,0.1,0.8,0.4,0.7,0.9
					c-0.2,1.1-0.3,2.2-0.5,3.4C344,224.6,344,224.7,344,224.8 M328.1,239.6c0,0,0-0.1,0-0.1c-14.3,2.3-28.6,4.5-42.9,6.7
					c0,0.1,0,0.1,0,0.1c0.1,0,0.1,0.1,0.2,0.1c2.1,1.1,4,2.5,5.6,4.3c0.2,0.2,0.4,0.2,0.6,0.1c1.2-0.2,2.5-0.4,3.7-0.6
					c3.4-0.5,6.8-1,10.1-1.6c0.8-0.1,1.6-0.2,2.4-0.3c0,0,0,0.1,0,0.1c-5.5,0.9-10.9,1.9-16.4,2.8c0,0,0,0,0,0.1
					c0.9,1.4,1.8,2.7,2.7,4.1c0.1,0.1,0.2,0.1,0.3,0.1c2-0.3,4-0.6,6-0.8c1-0.1,1.9-0.2,2.9-0.4c0,0,0,0.1,0,0.1c-3,0.5-6,0.9-9,1.4
					c0.1,0.1,0.1,0.2,0.2,0.4c0.6,1.5,1.3,2.9,1.9,4.4c1.7,4.6,2.5,9.3,2.8,14.1c0.3,5.1,0,10.2-1,15.3c-0.7,3.5-1.8,6.8-3.5,10
					c-1.2,2.2-2.7,4.2-4.8,5.7c-0.3,0.3-0.7,0.5-1.1,0.7c0.1,0,0.2,0,0.3,0c9.7-1.8,19.4-3.5,29.1-5.3c13.1-2.4,26.3-4.9,39.4-7.4
					c9.3-1.8,18.5-3.6,27.7-5.4c1.3-0.3,2.3-0.8,3.2-1.8c3.3-3.5,5.7-7.6,7.3-12c2-5.3,2.7-10.7,2-16.3c-0.6-4.9-2.1-9.5-4.5-13.8
					c-1.9-3.5-4.3-6.6-7.3-9.2c-1.4-1.2-2.9-2.3-4.7-2.9c-0.6-0.2-1.2-0.3-1.8-0.2c-4.1,0.5-8.2,1.1-12.3,1.6
					c-8.7,1.2-17.5,2.5-26.2,3.7c-0.3,0-0.4,0.2-0.5,0.4c-0.5,1.5-0.9,3.1-1.5,4.5c-0.8,2.1-2.4,3.4-4.6,3.9
					c-2.5,0.6-4.9,0.2-7.1-1.1c-1-0.5-1.7-1.3-2.2-2.4c-0.2-0.5-0.2-0.8,0.2-1.1c0.5-0.5,1.1-1,1.7-1.5
					C327.5,240.1,327.8,239.9,328.1,239.6 M267.4,269.9c0,4.9,0.5,8.8,1.1,12c1,5.4,2.7,10.5,5.3,15.3c1.5,2.7,3.1,5.1,5.4,7.2
					c1.3,1.2,2.7,2.1,4.4,2.6c1,0.3,2,0.5,2.9,0c1.7-0.9,3.3-1.9,4.6-3.3c2.3-2.4,3.8-5.3,4.9-8.5c1.7-4.7,2.3-9.6,2.5-14.6
					c0.1-4.1-0.1-8.2-0.9-12.3c-0.9-5-2.5-9.8-5.2-14.1c-1.6-2.5-3.5-4.7-6.1-6.3c-2.3-1.4-4.7-1.6-7.2-1.1c-0.1,0-0.2,0.1-0.3,0.1
					c-0.8,0.5-1.7,1-2.5,1.5c-3.3,2.3-5.4,5.5-6.8,9.2C267.9,261.9,267.4,266.3,267.4,269.9 M343.5,221.2c-0.1,0-0.1,0-0.2,0
					c-2.1,0.2-4.2,0.4-6.3,0.6c-0.2,0-0.4,0.2-0.5,0.4c-0.2,0.4-0.3,0.8-0.4,1.3c-0.5,2.4-0.9,4.8-1.4,7.3c-0.3,1.6-0.6,3.2-1.3,4.7
					c-0.8,1.8-2.2,3.1-3.6,4.3c-1.1,0.9-2.2,1.8-3.3,2.8c-0.2,0.2-0.2,0.4-0.1,0.6c0.5,0.8,1.2,1.4,2.1,1.9c1.4,0.6,2.9,0.9,4.4,0.9
					c2.4,0,4.8-1.8,5.5-3.9c1-3.1,2-6.1,2.7-9.2c0-0.1,0-0.2,0-0.2c-0.4-0.1-0.8-0.2-1.2-0.3c-0.7-0.2-0.8-0.7-0.4-1.3
					c0.2-0.3,0.4-0.5,0.6-0.8c0.2-0.2,0.3-0.4,0.5-0.7c0.5-1.2,1.2-2.2,2.1-3.1c0.2-0.2,0.3-0.4,0.3-0.6c0.1-0.8,0.3-1.6,0.4-2.4
					C343.3,222.5,343.4,221.9,343.5,221.2 M346,228c2.3-1.2,4.4-2.7,6.5-4.1c-1.1,1.2-2.2,2.3-3.6,3.3c1.6-0.2,3.2-0.4,4.7-0.6
					c-0.1,0.1-0.2,0.2-0.3,0.2c-1.1,0.3-2.3,0.7-3.4,0.8c-1.7,0.2-3.2,0.7-4.7,1.6c-0.2,0.1-0.4,0.2-0.6,0.3c0,0,0,0,0,0.1h5.1
					c-0.3,0.1-0.6,0.2-0.9,0.3c-1.7,0.3-3.4,0.5-5.1,0.2c-0.1,0-0.2,0-0.3,0c-0.8,0.3-1.6,0.6-2.4,0.9c-0.1,0.1-0.2,0.2-0.3,0.3
					c0,0,0,0.1,0,0.1c0.6,0.1,1.3,0.2,1.9,0.2c2.4,0.1,4.7-0.1,7-0.6c1.5-0.3,2.9-0.8,4.2-1.7c1.4-1,2.3-2.2,2.5-4
					c0.1-1.2,0.1-2.5,0.1-3.8c0-0.2,0-0.4-0.1-0.7c-0.6,0.1-1.1,0.2-1.6,0.4c-3.5,0.8-6.8,2.1-9.7,4.2c-1.7,1.2-3.1,2.6-3.9,4.5
					c0,0.1-0.1,0.2-0.1,0.3c0,0,0,0,0.1,0.1c1.4-0.6,2.7-1.2,4.1-1.9c0.1,0,0.2-0.2,0.2-0.2c0.1-0.9,0.5-1.6,0.9-2.3
					c0.2-0.3,0.3-0.6,0.5-0.8c0,0,0.1,0,0.1,0C346.7,225.9,346.4,226.9,346,228"/>
				<path class="st15" d="M328.1,239.6c-0.3,0.2-0.6,0.5-0.9,0.7c-0.6,0.5-1.1,1-1.7,1.5c-0.4,0.4-0.4,0.6-0.2,1.1
					c0.5,1,1.2,1.8,2.2,2.4c2.2,1.3,4.6,1.7,7.1,1.1c2.1-0.5,3.7-1.8,4.6-3.9c0.6-1.5,1-3,1.5-4.5c0.1-0.3,0.2-0.4,0.5-0.4
					c8.7-1.2,17.5-2.5,26.2-3.7c4.1-0.6,8.2-1.1,12.3-1.6c0.6-0.1,1.2,0,1.8,0.2c1.8,0.6,3.3,1.7,4.7,2.9c3,2.6,5.4,5.7,7.3,9.2
					c2.4,4.3,3.9,8.9,4.5,13.8c0.7,5.6,0,11-2,16.3c-1.7,4.5-4.1,8.5-7.3,12c-0.9,1-1.9,1.6-3.2,1.8c-9.3,1.8-18.5,3.6-27.7,5.4
					c-13.1,2.5-26.2,5-39.4,7.4c-9.7,1.8-19.4,3.6-29.1,5.3c-0.1,0-0.2,0-0.3,0c0.4-0.2,0.7-0.5,1.1-0.7c2-1.5,3.5-3.5,4.8-5.7
					c1.7-3.1,2.8-6.5,3.5-10c1-5,1.3-10.1,1-15.3c-0.3-4.8-1.1-9.6-2.8-14.1c-0.5-1.5-1.3-2.9-1.9-4.4c-0.1-0.1-0.1-0.2-0.2-0.4
					c3-0.5,6-1,9-1.4c0,0,0-0.1,0-0.1c-1,0.1-1.9,0.2-2.9,0.4c-2,0.3-4,0.6-6,0.8c-0.1,0-0.2-0.1-0.3-0.1c-0.9-1.4-1.8-2.7-2.7-4.1
					c0,0,0,0,0-0.1c5.5-0.9,10.9-1.9,16.4-2.8c0,0,0-0.1,0-0.1c-0.8,0.1-1.6,0.2-2.4,0.3c-3.4,0.5-6.8,1-10.1,1.6
					c-1.2,0.2-2.5,0.4-3.7,0.6c-0.2,0-0.4,0.1-0.6-0.1c-1.6-1.8-3.4-3.3-5.6-4.3c-0.1,0-0.1-0.1-0.2-0.1c0,0,0,0,0-0.1
					c14.3-2.2,28.6-4.5,42.9-6.7C328.1,239.6,328.1,239.6,328.1,239.6 M357.3,268.3c-5.4,0.6-10.7,1.5-16,2.8
					C346.7,270.4,352.1,269.5,357.3,268.3 M345.6,264.1C345.6,264.2,345.6,264.2,345.6,264.1c0.1,0.1,0.3,0.1,0.4,0.1
					c1-0.1,2.1-0.2,3.1-0.4c3.5-0.7,7-1.5,10.5-2.3c0.8-0.2,1.6-0.4,2.4-0.6c0,0,0-0.1,0-0.1C356.5,261.9,351.1,263,345.6,264.1
					 M369.4,249.6c0,0,0-0.1,0-0.1c-4.9,0.6-9.9,1.1-14.8,1.7C356.1,251.5,365.3,250.5,369.4,249.6 M314.1,252
					C314.1,252,314.1,252.1,314.1,252c7.2-0.9,14.2-2.3,21.3-3.8c0,0,0-0.1,0-0.1C328.3,249.4,321.2,250.7,314.1,252 M345.6,287.6
					c0.9,0.1,12.4-1.8,13.1-2.1C354.2,286,349.8,286.5,345.6,287.6 M313.1,292.1l0,0.2c3.4-0.3,6.7-1,10-1.9
					C319.8,290.7,316.4,291.3,313.1,292.1 M318.6,264.9c-4.6,0.8-9.1,1.8-13.6,2.9C306.4,267.8,317.1,265.5,318.6,264.9 M343,258.5
					c-1-0.1-10.3,1.7-10.7,2C335.9,260.3,339.5,259.3,343,258.5 M309.2,275.9c0.8,0.1,9.5-1.6,10.1-2
					C315.9,274.4,312.5,275,309.2,275.9 M369,241.6c0,0.1,0,0.1,0,0.2c3.3-0.7,6.6-1.3,10-2c0,0,0-0.1,0-0.1
					C375.6,240.1,372.3,240.6,369,241.6 M374.9,257.7c3.3-0.2,6.5-1.1,9.8-1.9C381.3,256.3,378.1,256.8,374.9,257.7 M374.6,261.6
					c2.7-0.1,5.3-0.8,8-1.4C379.9,260.6,377.2,261,374.6,261.6 M355.7,289.1c-2.6,0.1-5.2,0.5-7.8,1.2
					C350.6,290,353.2,289.7,355.7,289.1 M357.3,254.1c0.8,0.1,6.3-0.9,6.9-1.2C361.9,253.2,359.6,253.5,357.3,254.1 M381.9,280.9
					c-1.7-0.1-3.3-0.3-5,0.1C378.5,281.4,380.2,281,381.9,280.9 M310.7,277.8c0,0,0,0.1,0,0.1c1.9,0.1,3.8-0.3,5.7-0.5
					c0,0,0-0.1,0-0.1C314.5,277.4,312.6,277.6,310.7,277.8 M326.3,255.4c0,0,0-0.1,0-0.1l-5.8,1.1c0,0.1,0,0.1,0,0.2
					C322.5,256.2,324.4,255.8,326.3,255.4"/>
				<path class="st16" d="M267.4,269.9c0-3.6,0.5-8,2.1-12.3c1.4-3.7,3.5-6.9,6.8-9.2c0.8-0.6,1.7-1,2.5-1.5c0.1,0,0.2-0.1,0.3-0.1
					c2.5-0.5,5-0.3,7.2,1.1c2.6,1.6,4.5,3.8,6.1,6.3c2.8,4.3,4.3,9.1,5.2,14.1c0.7,4.1,1,8.2,0.9,12.3c-0.2,5-0.8,9.9-2.5,14.6
					c-1.1,3.1-2.6,6-4.9,8.5c-1.3,1.4-2.9,2.4-4.6,3.3c-1,0.5-1.9,0.3-2.9,0c-1.7-0.5-3.1-1.5-4.4-2.6c-2.3-2-4-4.5-5.4-7.2
					c-2.6-4.8-4.3-9.9-5.3-15.3C267.9,278.7,267.4,274.7,267.4,269.9 M277.5,291.8c0,0,0-0.1-0.1-0.1c-0.8,0.3-1.5,0.5-2.3,0.8
					c-0.1-0.2-0.2-0.4-0.2-0.6c0.8-0.5,1.5-0.9,2.2-1.3c0,0,0-0.1-0.1-0.1c-0.8,0.3-1.5,0.7-2.3,1c-0.1-0.1-0.1-0.2-0.1-0.3
					c-0.4-1.2-0.8-2.4-1.2-3.7c-1.1-3.9-1.8-8-2-12.1c-0.2-3-0.1-6,0.3-9c0.3-2.1,0.6-4.3,1.3-6.3c0-0.1,0.1-0.3,0.2-0.5
					c0.2,0.2,0.3,0.3,0.4,0.4c0.8,0.8,1.6,1.6,2.4,2.4c0.2,0.2,0.2,0.4,0.2,0.7c-0.2,1.9-0.5,3.8-0.6,5.7c-0.2,2.8-0.1,5.7,0.2,8.5
					c0.3,3.7,0.8,7.3,1.6,10.9c0.6,2.5,1.2,5,2.3,7.3c0.4,0.8,0.8,1.5,1.3,2.2c0.5,0.7,1.2,1,2.1,0.9c0.6-0.1,1.1-0.5,1.5-0.9
					c0.7-0.7,1.2-1.5,1.6-2.3c1.1-2.2,1.9-4.5,2.4-6.9c0.6-2.6,0.9-5.2,1.1-7.8c0.1-0.8,0.2-1.5,0.2-2.3c-0.3,1.2-0.5,2.5-0.7,3.7
					c-0.5,2.6-0.9,5.3-1.6,7.9c-0.6,2-1.3,4-2.4,5.8c-0.4,0.6-0.9,1.2-1.4,1.7c-0.9,0.8-1.7,0.7-2.5-0.2c-0.4-0.4-0.7-0.9-0.9-1.4
					c-0.6-1.3-1.2-2.7-1.6-4.1c-1.7-5.5-2.5-11.2-2.8-16.9c-0.2-3.4-0.2-6.7,0.3-10c0.1-0.6,0.2-1.2,0.3-1.8
					c0.2,0.2,0.4,0.3,0.5,0.4c-0.1-0.2-0.2-0.4-0.3-0.6c-0.1-0.1-0.1-0.3-0.1-0.4c0.3-1.5,0.7-3,1.3-4.4c0.3-0.8,0.8-1.5,1.4-2.1
					c1-1,2.1-1,3.2-0.1c0.6,0.6,1.1,1.2,1.6,1.8c0.1,0.1,0.1,0.1,0.2,0.2c-0.3-0.9-1-1.6-1.7-2.3c-1-1-2.4-1-3.4-0.1
					c-0.5,0.5-0.9,1.1-1.3,1.7c-0.8,1.4-1.2,3-1.6,4.6c0,0.1-0.1,0.2-0.1,0.3c-1-1-1.9-1.9-2.8-2.8c0,0-0.1-0.1-0.1-0.2
					c0.1-0.4,0.3-0.7,0.5-1.1c0.6,0.6,1.2,1.1,1.8,1.7c0,0,0.1-0.1,0.1-0.1c-0.5-0.6-1-1.2-1.5-1.8c-0.1-0.1-0.2-0.3-0.1-0.5
					c0.7-1.3,1.4-2.7,2.4-3.8c0,0,0.1-0.1,0.1-0.2c0,0-0.1-0.1-0.1-0.1c-0.5,0.6-1,1.2-1.5,1.9c-0.5,0.7-0.8,1.4-1.3,2.1
					c-0.7-0.7-1.3-1.4-2.2-1.9c0,0.1,0.1,0.2,0.2,0.3c0.6,0.6,1.1,1.2,1.7,1.9c0.1,0.1,0.2,0.3,0.2,0.4c-0.1,0.4-0.3,0.8-0.5,1.2
					c-0.2-0.1-0.4-0.2-0.6-0.2c0.1,0.2,0.2,0.3,0.2,0.4c0.1,0.1,0.1,0.3,0.1,0.4c-1.2,3.3-1.7,6.7-1.9,10.1c-0.2,3.3-0.1,6.7,0.3,10
					c0.5,4,1.4,8,2.9,11.8c0,0.1,0.1,0.2,0.1,0.3c-0.5,0.3-1.1,0.5-1.5,1c0,0,0,0.1,0.1,0.1c0.5-0.2,1.1-0.4,1.6-0.6
					c0.1,0.2,0.2,0.4,0.3,0.7c-0.4,0.2-0.7,0.5-1.1,0.7c0,0,0,0,0,0.1c0.4-0.1,0.8-0.3,1.2-0.4c1.1,2.4,2.4,4.7,4,6.8
					c-0.6-1.1-1.3-2.3-1.9-3.4c-0.6-1.2-1.1-2.4-1.7-3.6C276.1,292.5,276.8,292.2,277.5,291.8 M287,270.3
					C287,270.3,287,270.3,287,270.3c-0.1-0.2-0.1-0.3-0.1-0.5c-0.4-1.5-0.8-3.1-1.6-4.4c-0.3-0.4-0.6-0.9-1-1.2
					c-0.7-0.6-1.6-0.6-2.3,0c0.2-0.1,0.4-0.1,0.5-0.2c0.7-0.2,1.4-0.1,1.8,0.5c0.3,0.4,0.7,0.9,0.9,1.4c0.6,1.3,1,2.6,1.3,4
					c0,0.2,0.2,0.4-0.3,0.5c0.4,0,0.4,0.2,0.5,0.4c0.1,0.3,0.1,0.6,0.2,1c0.1,0.5,0.1,0.5-0.4,0.7c-0.2,0.1-0.4,0.1-0.6,0.2
					c0,0.1,0,0.1,0,0.2c0.4,0,0.7,0,1.2-0.1c0,0.6,0.1,1.1,0.1,1.7c0.1,2.2,0,4.3-0.6,6.4c-0.4,1.3-0.9,2.5-1.8,3.4
					c-0.7,0.7-1.4,1.3-2.4,0.6c0.2,0.6,0.8,0.8,1.3,0.6c0.4-0.2,0.8-0.4,1.1-0.7c0.8-0.7,1.4-1.7,1.8-2.7c0.7-1.6,1-3.3,1-5.1
					c0-1.3-0.1-2.6-0.1-4c0-0.3,0-0.4,0.4-0.5c0.6-0.1,1.2-0.2,1.7-0.4c0.5-0.1,1.1-0.3,1.6-0.4l0-0.1c-1.3,0.2-2.5,0.3-3.8,0.5
					c-0.1-0.6-0.2-1.2-0.3-1.7c0.6-0.2,1.2-0.3,1.8-0.5c0.6-0.2,1.2-0.4,1.8-0.6c0.6-0.2,1.1-0.5,1.7-0.7c0,0,0-0.1,0-0.1
					C290.5,269.2,288.8,269.8,287,270.3 M282.9,268.1c0,0,0.1,0,0.1,0c-0.2-0.4-0.4-0.9-0.6-1.3c-0.2-0.3-0.5-0.3-0.7-0.1
					c-0.2,0.1-0.3,0.3-0.4,0.5c-0.2,0.5-0.4,0.9-0.5,1.4c-0.4,2-0.4,4-0.2,6c0.1,1.5,0.3,2.9,0.9,4.3c0.2,0.6,0.5,1.1,0.9,1.6
					c0.5,0.6,1.7,0.6,2.3,0c-0.2,0-0.3,0.1-0.4,0.1c-0.8,0.2-1.5-0.1-1.9-0.8c-0.2-0.4-0.4-0.7-0.5-1.1c-0.9-3.2-1.2-6.4-0.7-9.7
					c0.1-0.6,0.3-1.1,0.5-1.7c0.2-0.5,0.5-0.5,0.8,0C282.6,267.4,282.7,267.8,282.9,268.1 M284.4,273.1c-0.1-0.1-0.2-0.4-0.3-0.4
					c-0.3-0.1-0.4,0.2-0.4,0.4c-0.1,0.4-0.1,0.7-0.1,1.1c0,0.1,0.1,0.2,0.2,0.4c0.1-0.1,0.3-0.1,0.3-0.3
					C284.2,273.9,284.3,273.5,284.4,273.1"/>
				<path class="st15" d="M343.5,221.2c-0.1,0.7-0.1,1.3-0.2,2c-0.1,0.8-0.2,1.6-0.4,2.4c0,0.2-0.1,0.5-0.3,0.6
					c-0.9,0.9-1.6,1.9-2.1,3.1c-0.1,0.2-0.3,0.5-0.5,0.7c-0.2,0.3-0.4,0.5-0.6,0.8c-0.4,0.6-0.3,1,0.4,1.3c0.4,0.1,0.8,0.2,1.2,0.3
					c0,0.1,0,0.2,0,0.2c-0.7,3.1-1.7,6.2-2.7,9.2c-0.7,2.1-3.1,3.9-5.5,3.9c-1.5,0-3-0.3-4.4-0.9c-0.9-0.4-1.6-1-2.1-1.9
					c-0.2-0.2-0.2-0.4,0.1-0.6c1.1-0.9,2.2-1.9,3.3-2.8c1.5-1.2,2.8-2.5,3.6-4.3c0.7-1.5,1-3.1,1.3-4.7c0.4-2.4,0.9-4.8,1.4-7.3
					c0.1-0.4,0.2-0.9,0.4-1.3c0.1-0.2,0.3-0.4,0.5-0.4c2.1-0.2,4.2-0.4,6.3-0.6C343.4,221.2,343.4,221.2,343.5,221.2 M328.5,242
					c0.7,1.1,3.6,1.9,5.4,1.4c1.5-0.4,3.2-1.7,3.2-2.6C334.6,243.5,331.7,243.7,328.5,242 M334.5,239.9c0,0.1,0,0.1,0,0.2
					c0.2,0,0.4,0,0.6-0.1c0.8-0.4,1.5-1,1.9-1.7c0.7-1.1,1.1-2.4,1.2-3.7c0-0.6,0-1.2,0-1.7c-0.2,0.7-0.3,1.4-0.4,2
					c-0.2,1-0.5,2-1,2.9C336.3,238.7,335.6,239.5,334.5,239.9"/>
				<path class="st17" d="M346,228c0.3-1.1,0.6-2,0.9-3c0,0-0.1,0-0.1,0c-0.2,0.3-0.3,0.5-0.5,0.8c-0.4,0.7-0.8,1.5-0.9,2.3
					c0,0.1-0.1,0.2-0.2,0.2c-1.4,0.6-2.7,1.3-4.1,1.9c0,0,0,0-0.1-0.1c0-0.1,0.1-0.2,0.1-0.3c0.8-1.9,2.2-3.3,3.9-4.5
					c2.9-2.1,6.2-3.4,9.7-4.2c0.5-0.1,1-0.2,1.6-0.4c0,0.3,0.1,0.5,0.1,0.7c0,1.3,0,2.5-0.1,3.8c-0.1,1.7-1.1,3-2.5,4
					c-1.3,0.9-2.7,1.4-4.2,1.7c-2.3,0.5-4.7,0.7-7,0.6c-0.6,0-1.3-0.2-1.9-0.2c0,0,0-0.1,0-0.1c0.1-0.1,0.2-0.2,0.3-0.3
					c0.8-0.3,1.6-0.6,2.4-0.9c0.1,0,0.2-0.1,0.3,0c1.7,0.4,3.4,0.2,5.1-0.2c0.3-0.1,0.6-0.1,0.9-0.3h-5.1c0,0,0,0,0-0.1
					c0.2-0.1,0.4-0.2,0.6-0.3c1.5-0.8,3-1.4,4.7-1.6c1.2-0.1,2.3-0.5,3.4-0.8c0.1,0,0.2-0.1,0.3-0.2c-1.5,0.2-3.1,0.4-4.7,0.6
					c1.4-0.9,2.6-2,3.6-3.3C350.4,225.3,348.4,226.8,346,228"/>
				<path class="st14" d="M357.3,268.3c-5.3,1.3-10.6,2.1-16,2.8C346.6,269.8,352,268.9,357.3,268.3"/>
				<path class="st14" d="M345.6,264.1c5.4-1.1,10.9-2.2,16.3-3.3c0,0,0,0.1,0,0.1c-0.8,0.2-1.6,0.4-2.4,0.6
					c-3.5,0.8-7,1.6-10.5,2.3c-1,0.2-2.1,0.3-3.1,0.4C345.9,264.3,345.8,264.2,345.6,264.1C345.6,264.2,345.6,264.2,345.6,264.1"/>
				<path class="st14" d="M369.4,249.6c-4,0.9-13.3,1.9-14.8,1.6c4.9-0.6,9.9-1.1,14.8-1.7C369.4,249.5,369.4,249.6,369.4,249.6"/>
				<path class="st14" d="M314.1,252c7.1-1.3,14.2-2.6,21.3-3.9c0,0,0,0.1,0,0.1C328.3,249.7,321.3,251.1,314.1,252
					C314.1,252.1,314.1,252,314.1,252"/>
				<path class="st14" d="M345.6,287.6c4.3-1.1,8.7-1.6,13.1-2.1C357.9,285.8,346.5,287.7,345.6,287.6"/>
				<path class="st14" d="M313.1,292.1c3.3-0.9,6.7-1.4,10.1-1.8c-3.3,0.9-6.6,1.6-10,1.9L313.1,292.1z"/>
				<path class="st14" d="M318.6,264.9c-1.5,0.6-12.1,2.9-13.6,2.9C309.5,266.7,314,265.7,318.6,264.9"/>
				<path class="st14" d="M343,258.5c-3.6,0.8-7.1,1.8-10.7,2C332.7,260.2,342,258.5,343,258.5"/>
				<path class="st14" d="M309.2,275.9c3.3-1,6.7-1.5,10.1-2C318.7,274.3,310,276,309.2,275.9"/>
				<path class="st14" d="M369,241.6c3.3-0.9,6.6-1.5,10-1.9c0,0,0,0.1,0,0.1c-3.3,0.7-6.6,1.3-10,2C369,241.7,369,241.6,369,241.6"
					/>
				<path class="st14" d="M374.9,257.7c3.2-0.9,6.5-1.4,9.8-1.9C381.4,256.6,378.2,257.5,374.9,257.7"/>
				<path class="st14" d="M374.6,261.6c2.6-0.7,5.3-1.1,8-1.4C379.9,260.9,377.3,261.5,374.6,261.6"/>
				<path class="st14" d="M355.7,289.1c-2.6,0.6-5.2,0.9-7.8,1.2C350.5,289.6,353.1,289.2,355.7,289.1"/>
				<path class="st14" d="M357.3,254.1c2.3-0.6,4.6-0.9,6.9-1.2C363.6,253.3,358.1,254.3,357.3,254.1"/>
				<path class="st14" d="M381.9,280.9c-1.7,0.1-3.3,0.4-5,0.1C378.5,280.7,380.2,280.9,381.9,280.9"/>
				<path class="st14" d="M310.7,277.8c1.9-0.2,3.8-0.3,5.7-0.5c0,0,0,0.1,0,0.1c-1.9,0.2-3.8,0.6-5.7,0.5
					C310.7,277.9,310.7,277.8,310.7,277.8"/>
				<path class="st14" d="M326.3,255.4c-1.9,0.4-3.8,0.7-5.8,1.1c0-0.1,0-0.1,0-0.2l5.8-1.1C326.3,255.4,326.3,255.4,326.3,255.4"/>
				<path class="st14" d="M277.5,291.8c-0.7,0.4-1.4,0.7-2.2,1.1c0.6,1.2,1.1,2.4,1.7,3.6c0.6,1.2,1.3,2.3,1.9,3.4
					c-1.6-2.1-2.9-4.4-4-6.8c-0.4,0.1-0.8,0.3-1.2,0.4c0,0,0,0,0-0.1c0.3-0.2,0.7-0.4,1.1-0.7c-0.1-0.2-0.2-0.4-0.3-0.7
					c-0.6,0.2-1.1,0.4-1.6,0.6c0,0,0-0.1-0.1-0.1c0.4-0.5,0.9-0.6,1.5-1c0-0.1-0.1-0.2-0.1-0.3c-1.5-3.8-2.4-7.8-2.9-11.8
					c-0.4-3.3-0.5-6.7-0.3-10c0.2-3.5,0.7-6.9,1.9-10.1c0-0.1,0-0.3-0.1-0.4c-0.1-0.1-0.2-0.2-0.2-0.4c0.2,0.1,0.4,0.1,0.6,0.2
					c0.2-0.4,0.4-0.8,0.5-1.2c0-0.1-0.1-0.3-0.2-0.4c-0.5-0.6-1.1-1.2-1.7-1.9c-0.1-0.1-0.1-0.2-0.2-0.3c0.9,0.5,1.5,1.2,2.2,1.9
					c0.4-0.7,0.8-1.4,1.3-2.1c0.5-0.7,1-1.3,1.5-1.9c0,0,0.1,0.1,0.1,0.1c0,0.1,0,0.1-0.1,0.2c-1,1.2-1.7,2.5-2.4,3.8
					c-0.1,0.2,0,0.3,0.1,0.5c0.5,0.6,1,1.2,1.5,1.8c0,0-0.1,0.1-0.1,0.1c-0.6-0.5-1.2-1.1-1.8-1.7c-0.2,0.4-0.3,0.8-0.5,1.1
					c0,0,0,0.1,0.1,0.2c0.9,0.9,1.9,1.9,2.8,2.8c0-0.1,0.1-0.2,0.1-0.3c0.4-1.6,0.8-3.2,1.6-4.6c0.3-0.6,0.8-1.2,1.3-1.7
					c1.1-1,2.4-0.9,3.4,0.1c0.7,0.7,1.3,1.4,1.7,2.3c-0.1-0.1-0.1-0.1-0.2-0.2c-0.5-0.6-1-1.3-1.6-1.8c-1-0.9-2.2-0.9-3.2,0.1
					c-0.6,0.6-1,1.4-1.4,2.1c-0.6,1.4-1,2.9-1.3,4.4c0,0.1,0,0.3,0.1,0.4c0.1,0.2,0.3,0.4,0.3,0.6c-0.2-0.1-0.3-0.2-0.5-0.4
					c-0.1,0.6-0.2,1.2-0.3,1.8c-0.4,3.3-0.5,6.7-0.3,10c0.3,5.7,1.1,11.4,2.8,16.9c0.4,1.4,1,2.7,1.6,4.1c0.2,0.5,0.6,1,0.9,1.4
					c0.7,0.9,1.6,1,2.5,0.2c0.6-0.5,1-1.1,1.4-1.7c1.1-1.8,1.8-3.7,2.4-5.8c0.7-2.6,1.1-5.3,1.6-7.9c0.2-1.2,0.4-2.5,0.7-3.7
					c-0.1,0.8-0.2,1.5-0.2,2.3c-0.3,2.6-0.6,5.2-1.1,7.8c-0.5,2.4-1.3,4.7-2.4,6.9c-0.4,0.8-0.9,1.6-1.6,2.3
					c-0.4,0.4-0.9,0.8-1.5,0.9c-0.9,0.2-1.6-0.2-2.1-0.9c-0.5-0.7-1-1.4-1.3-2.2c-1.1-2.3-1.7-4.8-2.3-7.3
					c-0.8-3.6-1.3-7.3-1.6-10.9c-0.2-2.8-0.3-5.7-0.2-8.5c0.1-1.9,0.4-3.8,0.6-5.7c0-0.3,0-0.5-0.2-0.7c-0.8-0.8-1.6-1.6-2.4-2.4
					c-0.1-0.1-0.2-0.2-0.4-0.4c-0.1,0.2-0.1,0.3-0.2,0.5c-0.7,2.1-1.1,4.2-1.3,6.3c-0.3,3-0.4,6-0.3,9c0.2,4.1,0.8,8.1,2,12.1
					c0.4,1.2,0.8,2.5,1.2,3.7c0,0.1,0.1,0.2,0.1,0.3c0.8-0.3,1.6-0.7,2.3-1c0,0,0,0.1,0.1,0.1c-0.7,0.4-1.5,0.9-2.2,1.3
					c0.1,0.2,0.2,0.4,0.2,0.6c0.8-0.3,1.5-0.5,2.3-0.8C277.4,291.7,277.5,291.8,277.5,291.8"/>
				<path class="st14" d="M287,270.3c1.7-0.6,3.5-1.1,5.2-1.7c0,0,0,0.1,0,0.1c-0.5,0.2-1.1,0.5-1.7,0.7c-0.6,0.2-1.2,0.5-1.8,0.6
					c-0.6,0.2-1.2,0.3-1.8,0.5c0.1,0.6,0.2,1.2,0.3,1.7c1.3-0.2,2.5-0.3,3.8-0.5l0,0.1c-0.5,0.1-1.1,0.3-1.6,0.4
					c-0.6,0.1-1.2,0.3-1.7,0.4c-0.3,0.1-0.4,0.2-0.4,0.5c0.1,1.3,0.2,2.6,0.1,4c0,1.7-0.4,3.5-1,5.1c-0.4,1-0.9,2-1.8,2.7
					c-0.3,0.3-0.7,0.5-1.1,0.7c-0.6,0.2-1.1,0-1.3-0.6c1.1,0.7,1.8,0.1,2.4-0.6c0.9-1,1.5-2.2,1.8-3.4c0.6-2.1,0.8-4.2,0.6-6.4
					c0-0.6-0.1-1.1-0.1-1.7c-0.4,0-0.8,0-1.2,0.1c0-0.1,0-0.1,0-0.2c0.2-0.1,0.4-0.2,0.6-0.2c0.5-0.1,0.5-0.1,0.4-0.7
					c-0.1-0.3-0.1-0.6-0.2-1c0-0.2,0-0.5-0.5-0.4c0.4-0.1,0.3-0.3,0.3-0.5c-0.3-1.4-0.7-2.7-1.3-4c-0.3-0.5-0.6-1-0.9-1.4
					c-0.5-0.6-1.1-0.7-1.8-0.5c-0.1,0-0.3,0.1-0.5,0.2c0.7-0.6,1.7-0.6,2.3,0c0.4,0.3,0.7,0.8,1,1.2c0.8,1.4,1.2,2.9,1.6,4.4
					C286.9,270,286.9,270.1,287,270.3C287,270.3,287,270.3,287,270.3"/>
				<path class="st14" d="M282.9,268.1c-0.1-0.3-0.3-0.6-0.4-0.9c-0.3-0.5-0.6-0.5-0.8,0c-0.2,0.5-0.4,1.1-0.5,1.7
					c-0.5,3.3-0.3,6.5,0.7,9.7c0.1,0.4,0.3,0.8,0.5,1.1c0.4,0.7,1.1,1,1.9,0.8c0.1,0,0.2-0.1,0.4-0.1c-0.6,0.6-1.8,0.6-2.3,0
					c-0.4-0.5-0.7-1-0.9-1.6c-0.5-1.4-0.7-2.8-0.9-4.3c-0.2-2-0.2-4,0.2-6c0.1-0.5,0.3-0.9,0.5-1.4c0.1-0.2,0.2-0.4,0.4-0.5
					c0.3-0.2,0.6-0.2,0.7,0.1c0.2,0.4,0.4,0.9,0.6,1.3C283,268,282.9,268,282.9,268.1"/>
				<path class="st14" d="M284.4,273.1c-0.1,0.5-0.2,0.8-0.3,1.2c0,0.1-0.2,0.2-0.3,0.3c-0.1-0.1-0.2-0.2-0.2-0.4
					c0-0.4,0.1-0.7,0.1-1.1c0-0.2,0.2-0.5,0.4-0.4C284.2,272.7,284.3,273,284.4,273.1"/>
				<path class="st14" d="M328.5,242c3.2,1.7,6.1,1.6,8.7-1.2c0,0.9-1.7,2.2-3.2,2.6C332,243.8,329.1,243.1,328.5,242"/>
				<path class="st14" d="M334.5,239.9c1.1-0.4,1.9-1.2,2.4-2.2c0.5-0.9,0.8-1.9,1-2.9c0.1-0.7,0.3-1.4,0.4-2c0,0.6,0,1.2,0,1.7
					c-0.1,1.3-0.5,2.6-1.2,3.7c-0.5,0.7-1.1,1.4-1.9,1.7c-0.2,0.1-0.4,0.1-0.6,0.1C334.5,240,334.5,240,334.5,239.9"/>
			</g>
		</g>
	</g>
</g>
<g id="B2">
	<g>
		<g>
			<defs>
				<rect id="SVGID_13_" x="450.3" y="88.1" width="166.5" height="114.9"/>
			</defs>
			<clipPath id="SVGID_14_">
				<use xlink:href="#SVGID_13_"  style="overflow:visible;"/>
			</clipPath>
			<g class="st18">
				<defs>
					<rect id="SVGID_15_" x="450.3" y="88.1" width="166.5" height="114.9"/>
				</defs>
				<clipPath id="SVGID_16_">
					<use xlink:href="#SVGID_15_"  style="overflow:visible;"/>
				</clipPath>
				<path class="st19" d="M541.9,99.7c0.8-0.5,1.5-1,2.2-1.5c2.7-1.7,5.7-2.7,8.8-3.4c0.5-0.1,1-0.3,1.5-0.4
					c0.5-0.1,0.8,0.1,0.8,0.5c0.2,2,0.3,4-0.1,5.9c-0.4,2-1.7,3.4-3.4,4.3c-1.8,1-3.8,1.5-5.8,1.8c-1.8,0.2-3.7,0.4-5.5,0.3
					c-0.2,0-0.3,0-0.3,0.2c-0.3,1.3-0.7,2.6-1,4c0.1,0,0.2,0,0.3,0c9.2-1.3,18.4-2.6,27.6-3.9c3.7-0.5,7.5-1,11.2-1.5
					c0.5-0.1,0.8,0,1.2,0.2c1,0.5,2,0.9,2.9,1.5c2.6,1.6,4.7,3.7,6.6,6.1c4.4,5.6,7.1,12,8,19.1c0.8,6.4-0.2,12.5-2.7,18.4
					c-1.2,2.9-2.7,5.6-4.7,8.1c-0.8,1.1-1.8,2-2.7,3c-0.4,0.4-0.8,0.7-1.3,1.1c-0.1,0.1-0.3,0.1-0.5,0.2c-5.5,1.1-10.9,2.3-16.4,3.3
					c-14.3,2.7-28.6,5.5-42.9,8.1c-10.6,2-21.3,3.9-31.9,5.8c-2.5,0.4-5,0.9-7.4,1.4c-0.5,0.1-1.1,0.3-1.6,0.4
					c-1.4,0.2-2.8-0.2-4.1-0.7c-2.1-0.8-3.8-2.2-5.3-3.9c-3-3.3-5-7.1-6.7-11.2c-1.8-4.4-3-9-3.6-13.8c-0.5-3.7-0.7-7.5-0.5-11.3
					c0.2-3.8,0.9-7.6,2.4-11.2c1.5-3.4,3.5-6.4,6.7-8.4c1.7-1.1,3.5-1.8,5.6-2c0.9-0.1,1.8,0,2.7-0.1c1.5-0.1,2.9-0.3,4.4-0.5
					c7.1-1.1,14.3-2.3,21.4-3.4c6.5-1,13-2,19.5-3c0.2,0,0.5-0.2,0.6-0.3c2-1.6,3.1-3.7,3.6-6.2c0.5-2.8,1-5.5,1.6-8.3
					c0.1-0.6,0.3-1.2,0.5-1.8c0.2-0.7,0.7-1,1.4-1.1c2-0.2,4-0.3,6.1-0.5c0.2,0,0.5,0,0.7,0c0.6,0.1,0.8,0.4,0.7,0.9
					c-0.2,1.1-0.3,2.2-0.5,3.4C541.9,99.5,541.9,99.6,541.9,99.7 M526,114.5c0,0,0-0.1,0-0.1c-14.3,2.3-28.6,4.5-42.9,6.7
					c0,0.1,0,0.1,0,0.1c0.1,0,0.1,0.1,0.2,0.1c2.1,1.1,4,2.5,5.6,4.3c0.2,0.2,0.4,0.2,0.6,0.1c1.2-0.2,2.5-0.4,3.7-0.6
					c3.4-0.5,6.8-1,10.1-1.6c0.8-0.1,1.6-0.2,2.4-0.3c0,0,0,0.1,0,0.1c-5.5,0.9-10.9,1.9-16.4,2.8c0,0,0,0,0,0.1
					c0.9,1.4,1.8,2.7,2.7,4.1c0.1,0.1,0.2,0.1,0.3,0.1c2-0.3,4-0.6,6-0.8c1-0.1,1.9-0.2,2.9-0.4c0,0,0,0.1,0,0.1c-3,0.5-6,0.9-9,1.4
					c0.1,0.1,0.1,0.2,0.2,0.4c0.6,1.5,1.3,2.9,1.9,4.4c1.7,4.6,2.5,9.3,2.8,14.1c0.3,5.1,0,10.2-1,15.3c-0.7,3.5-1.8,6.8-3.5,10
					c-1.2,2.2-2.7,4.2-4.8,5.7c-0.3,0.3-0.7,0.5-1.1,0.7c0.1,0,0.2,0,0.3,0c9.7-1.8,19.4-3.5,29.1-5.3c13.1-2.4,26.3-4.9,39.4-7.4
					c9.3-1.8,18.5-3.6,27.7-5.4c1.3-0.3,2.3-0.8,3.2-1.8c3.3-3.5,5.7-7.6,7.3-12c2-5.3,2.7-10.7,2-16.3c-0.6-4.9-2.1-9.5-4.5-13.8
					c-1.9-3.5-4.3-6.6-7.3-9.2c-1.4-1.2-2.9-2.3-4.7-2.9c-0.6-0.2-1.2-0.3-1.8-0.2c-4.1,0.5-8.2,1.1-12.3,1.6
					c-8.7,1.2-17.5,2.5-26.2,3.7c-0.3,0-0.4,0.2-0.5,0.4c-0.5,1.5-0.9,3.1-1.5,4.5c-0.8,2.1-2.4,3.4-4.6,3.9
					c-2.5,0.6-4.9,0.2-7.1-1.1c-1-0.5-1.7-1.3-2.2-2.4c-0.2-0.5-0.2-0.8,0.2-1.1c0.5-0.5,1.1-1,1.7-1.5
					C525.4,115,525.7,114.8,526,114.5 M465.3,144.8c0,4.9,0.5,8.8,1.1,12c1,5.4,2.7,10.5,5.3,15.3c1.5,2.7,3.1,5.1,5.4,7.2
					c1.3,1.2,2.7,2.1,4.4,2.6c1,0.3,2,0.5,2.9,0c1.7-0.9,3.3-1.9,4.6-3.3c2.3-2.4,3.8-5.3,4.9-8.5c1.7-4.7,2.3-9.6,2.5-14.6
					c0.1-4.1-0.1-8.2-0.9-12.3c-0.9-5-2.5-9.8-5.2-14.1c-1.6-2.5-3.5-4.7-6.1-6.3c-2.3-1.4-4.7-1.6-7.2-1.1c-0.1,0-0.2,0.1-0.3,0.1
					c-0.8,0.5-1.7,1-2.5,1.5c-3.3,2.3-5.4,5.5-6.8,9.2C465.8,136.7,465.3,141.2,465.3,144.8 M541.4,96.1c-0.1,0-0.1,0-0.2,0
					c-2.1,0.2-4.2,0.4-6.3,0.6c-0.2,0-0.4,0.2-0.5,0.4c-0.2,0.4-0.3,0.8-0.4,1.3c-0.5,2.4-0.9,4.8-1.4,7.3c-0.3,1.6-0.6,3.2-1.3,4.7
					c-0.8,1.8-2.2,3.1-3.6,4.3c-1.1,0.9-2.2,1.8-3.3,2.8c-0.2,0.2-0.2,0.4-0.1,0.6c0.5,0.8,1.2,1.4,2.1,1.9c1.4,0.6,2.9,0.9,4.4,0.9
					c2.4,0,4.8-1.8,5.5-3.9c1-3.1,2-6.1,2.7-9.2c0-0.1,0-0.2,0-0.2c-0.4-0.1-0.8-0.2-1.2-0.3c-0.7-0.2-0.8-0.7-0.4-1.3
					c0.2-0.3,0.4-0.5,0.6-0.8c0.2-0.2,0.3-0.4,0.5-0.7c0.5-1.2,1.2-2.2,2.1-3.1c0.2-0.2,0.3-0.4,0.3-0.6c0.1-0.8,0.3-1.6,0.4-2.4
					C541.3,97.4,541.3,96.8,541.4,96.1 M544,102.8c2.3-1.2,4.4-2.7,6.5-4.1c-1.1,1.2-2.2,2.3-3.6,3.3c1.6-0.2,3.2-0.4,4.7-0.6
					c-0.1,0.1-0.2,0.2-0.3,0.2c-1.1,0.3-2.3,0.7-3.4,0.8c-1.7,0.2-3.2,0.7-4.7,1.6c-0.2,0.1-0.4,0.2-0.6,0.3c0,0,0,0,0,0.1h5.1
					c-0.3,0.1-0.6,0.2-0.9,0.3c-1.7,0.3-3.4,0.5-5.1,0.2c-0.1,0-0.2,0-0.3,0c-0.8,0.3-1.6,0.6-2.4,0.9c-0.1,0.1-0.2,0.2-0.3,0.3
					c0,0,0,0.1,0,0.1c0.6,0.1,1.3,0.2,1.9,0.2c2.4,0.1,4.7-0.1,7-0.6c1.5-0.3,2.9-0.8,4.2-1.7c1.4-1,2.3-2.2,2.5-4
					c0.1-1.2,0.1-2.5,0.1-3.8c0-0.2,0-0.4-0.1-0.7c-0.6,0.1-1.1,0.2-1.6,0.4c-3.5,0.8-6.8,2.1-9.7,4.2c-1.7,1.2-3.1,2.6-3.9,4.5
					c0,0.1-0.1,0.2-0.1,0.3c0,0,0,0,0.1,0.1c1.4-0.6,2.7-1.2,4.1-1.9c0.1,0,0.2-0.2,0.2-0.2c0.1-0.9,0.5-1.6,0.9-2.3
					c0.2-0.3,0.3-0.6,0.5-0.8c0,0,0.1,0,0.1,0C544.6,100.8,544.3,101.8,544,102.8"/>
				<path class="st20" d="M526,114.5c-0.3,0.2-0.6,0.5-0.9,0.7c-0.6,0.5-1.1,1-1.7,1.5c-0.4,0.4-0.4,0.6-0.2,1.1
					c0.5,1,1.2,1.8,2.2,2.4c2.2,1.3,4.6,1.7,7.1,1.1c2.1-0.5,3.7-1.8,4.6-3.9c0.6-1.5,1-3,1.5-4.5c0.1-0.3,0.2-0.4,0.5-0.4
					c8.7-1.2,17.5-2.5,26.2-3.7c4.1-0.6,8.2-1.1,12.3-1.6c0.6-0.1,1.2,0,1.8,0.2c1.8,0.6,3.3,1.7,4.7,2.9c3,2.6,5.4,5.7,7.3,9.2
					c2.4,4.3,3.9,8.9,4.5,13.8c0.7,5.6,0,11-2,16.3c-1.7,4.5-4.1,8.5-7.3,12c-0.9,1-1.9,1.6-3.2,1.8c-9.3,1.8-18.5,3.6-27.7,5.4
					c-13.1,2.5-26.2,5-39.4,7.4c-9.7,1.8-19.4,3.6-29.1,5.3c-0.1,0-0.2,0-0.3,0c0.4-0.2,0.7-0.5,1.1-0.7c2-1.5,3.5-3.5,4.8-5.7
					c1.7-3.1,2.8-6.5,3.5-10c1-5,1.3-10.1,1-15.3c-0.3-4.8-1.1-9.6-2.8-14.1c-0.5-1.5-1.3-2.9-1.9-4.4c-0.1-0.1-0.1-0.2-0.2-0.4
					c3-0.5,6-1,9-1.4c0,0,0-0.1,0-0.1c-1,0.1-1.9,0.2-2.9,0.4c-2,0.3-4,0.6-6,0.8c-0.1,0-0.2-0.1-0.3-0.1c-0.9-1.4-1.8-2.7-2.7-4.1
					c0,0,0,0,0-0.1c5.5-0.9,10.9-1.9,16.4-2.8c0,0,0-0.1,0-0.1c-0.8,0.1-1.6,0.2-2.4,0.3c-3.4,0.5-6.8,1-10.1,1.6
					c-1.2,0.2-2.5,0.4-3.7,0.6c-0.2,0-0.4,0.1-0.6-0.1c-1.6-1.8-3.4-3.3-5.6-4.3c-0.1,0-0.1-0.1-0.2-0.1c0,0,0,0,0-0.1
					c14.3-2.2,28.6-4.5,42.9-6.7C526,114.5,526,114.5,526,114.5 M555.2,143.2c-5.4,0.6-10.7,1.5-16,2.8
					C544.6,145.3,550,144.4,555.2,143.2 M543.5,139C543.5,139,543.5,139.1,543.5,139c0.1,0.1,0.3,0.1,0.4,0.1c1-0.1,2.1-0.2,3.1-0.4
					c3.5-0.7,7-1.5,10.5-2.3c0.8-0.2,1.6-0.4,2.4-0.6c0,0,0-0.1,0-0.1C554.4,136.8,549,137.9,543.5,139 M567.3,124.5
					c0,0,0-0.1,0-0.1c-4.9,0.6-9.9,1.1-14.8,1.7C554,126.4,563.3,125.4,567.3,124.5 M512,126.9C512,126.9,512,127,512,126.9
					c7.2-0.9,14.2-2.3,21.3-3.8c0,0,0-0.1,0-0.1C526.2,124.3,519.1,125.6,512,126.9 M543.5,162.5c0.9,0.1,12.4-1.8,13.1-2.1
					C552.1,160.9,547.7,161.4,543.5,162.5 M511,167l0,0.2c3.4-0.3,6.7-1,10-1.9C517.7,165.6,514.3,166.1,511,167 M516.5,139.8
					c-4.6,0.8-9.1,1.8-13.6,2.9C504.4,142.7,515,140.4,516.5,139.8 M540.9,133.4c-1-0.1-10.3,1.7-10.7,2
					C533.9,135.2,537.4,134.2,540.9,133.4 M507.1,150.8c0.8,0.1,9.5-1.6,10.1-2C513.8,149.3,510.4,149.9,507.1,150.8 M566.9,116.5
					c0,0.1,0,0.1,0,0.2c3.3-0.7,6.6-1.3,10-2c0,0,0-0.1,0-0.1C573.5,115,570.2,115.5,566.9,116.5 M572.8,132.6
					c3.3-0.2,6.5-1.1,9.8-1.9C579.2,131.2,576,131.7,572.8,132.6 M572.5,136.5c2.7-0.1,5.3-0.8,8-1.4
					C577.8,135.5,575.1,135.9,572.5,136.5 M553.7,163.9c-2.6,0.1-5.2,0.5-7.8,1.2C548.5,164.9,551.1,164.6,553.7,163.9 M555.2,129
					c0.8,0.1,6.3-0.9,6.9-1.2C559.8,128.1,557.5,128.4,555.2,129 M579.8,155.8c-1.7-0.1-3.3-0.3-5,0.1
					C576.4,156.3,578.1,155.9,579.8,155.8 M508.6,152.7c0,0,0,0.1,0,0.1c1.9,0.1,3.8-0.3,5.7-0.5c0,0,0-0.1,0-0.1
					C512.4,152.3,510.5,152.5,508.6,152.7 M524.2,130.3c0,0,0-0.1,0-0.1l-5.8,1.1c0,0.1,0,0.1,0,0.2
					C520.4,131.1,522.3,130.7,524.2,130.3"/>
				<path class="st21" d="M465.3,144.8c0-3.6,0.5-8,2.1-12.3c1.4-3.7,3.5-6.9,6.8-9.2c0.8-0.6,1.7-1,2.5-1.5c0.1,0,0.2-0.1,0.3-0.1
					c2.5-0.5,5-0.3,7.2,1.1c2.6,1.6,4.5,3.8,6.1,6.3c2.8,4.3,4.3,9.1,5.2,14.1c0.7,4.1,1,8.2,0.9,12.3c-0.2,5-0.8,9.9-2.5,14.6
					c-1.1,3.1-2.6,6-4.9,8.5c-1.3,1.4-2.9,2.4-4.6,3.3c-1,0.5-1.9,0.3-2.9,0c-1.7-0.5-3.1-1.5-4.4-2.6c-2.3-2-4-4.5-5.4-7.2
					c-2.6-4.8-4.3-9.9-5.3-15.3C465.8,153.6,465.3,149.6,465.3,144.8 M475.4,166.7c0,0,0-0.1-0.1-0.1c-0.8,0.3-1.5,0.5-2.3,0.8
					c-0.1-0.2-0.2-0.4-0.2-0.6c0.8-0.5,1.5-0.9,2.2-1.3c0,0,0-0.1-0.1-0.1c-0.8,0.3-1.5,0.7-2.3,1c-0.1-0.1-0.1-0.2-0.1-0.3
					c-0.4-1.2-0.8-2.4-1.2-3.7c-1.1-3.9-1.8-8-2-12.1c-0.2-3-0.1-6,0.3-9c0.3-2.1,0.6-4.3,1.3-6.3c0-0.1,0.1-0.3,0.2-0.5
					c0.2,0.2,0.3,0.3,0.4,0.4c0.8,0.8,1.6,1.6,2.4,2.4c0.2,0.2,0.2,0.4,0.2,0.7c-0.2,1.9-0.5,3.8-0.6,5.7c-0.2,2.8-0.1,5.7,0.2,8.5
					c0.3,3.7,0.8,7.3,1.6,10.9c0.6,2.5,1.2,5,2.3,7.3c0.4,0.8,0.8,1.5,1.3,2.2c0.5,0.7,1.2,1,2.1,0.9c0.6-0.1,1.1-0.5,1.5-0.9
					c0.7-0.7,1.2-1.5,1.6-2.3c1.1-2.2,1.9-4.5,2.4-6.9c0.6-2.6,0.9-5.2,1.1-7.8c0.1-0.8,0.2-1.5,0.2-2.3c-0.3,1.2-0.5,2.5-0.7,3.7
					c-0.5,2.6-0.9,5.3-1.6,7.9c-0.6,2-1.3,4-2.4,5.8c-0.4,0.6-0.9,1.2-1.4,1.7c-0.9,0.8-1.7,0.7-2.5-0.2c-0.4-0.4-0.7-0.9-0.9-1.4
					c-0.6-1.3-1.2-2.7-1.6-4.1c-1.7-5.5-2.5-11.2-2.8-16.9c-0.2-3.4-0.2-6.7,0.3-10c0.1-0.6,0.2-1.2,0.3-1.8
					c0.2,0.2,0.4,0.3,0.5,0.4c-0.1-0.2-0.2-0.4-0.3-0.6c-0.1-0.1-0.1-0.3-0.1-0.4c0.3-1.5,0.7-3,1.3-4.4c0.3-0.8,0.8-1.5,1.4-2.1
					c1-1,2.1-1,3.2-0.1c0.6,0.6,1.1,1.2,1.6,1.8c0.1,0.1,0.1,0.1,0.2,0.2c-0.3-0.9-1-1.6-1.7-2.3c-1-1-2.4-1-3.4-0.1
					c-0.5,0.5-0.9,1.1-1.3,1.7c-0.8,1.4-1.2,3-1.6,4.6c0,0.1-0.1,0.2-0.1,0.3c-1-1-1.9-1.9-2.8-2.8c0,0-0.1-0.1-0.1-0.2
					c0.1-0.4,0.3-0.7,0.5-1.1c0.6,0.6,1.2,1.1,1.8,1.7c0,0,0.1-0.1,0.1-0.1c-0.5-0.6-1-1.2-1.5-1.8c-0.1-0.1-0.2-0.3-0.1-0.5
					c0.7-1.3,1.4-2.7,2.4-3.8c0,0,0.1-0.1,0.1-0.2c0,0-0.1-0.1-0.1-0.1c-0.5,0.6-1,1.2-1.5,1.9c-0.5,0.7-0.8,1.4-1.3,2.1
					c-0.7-0.7-1.3-1.4-2.2-1.9c0,0.1,0.1,0.2,0.2,0.3c0.6,0.6,1.1,1.2,1.7,1.9c0.1,0.1,0.2,0.3,0.2,0.4c-0.1,0.4-0.3,0.8-0.5,1.2
					c-0.2-0.1-0.4-0.2-0.6-0.2c0.1,0.2,0.2,0.3,0.2,0.4c0.1,0.1,0.1,0.3,0.1,0.4c-1.2,3.3-1.7,6.7-1.9,10.1c-0.2,3.3-0.1,6.7,0.3,10
					c0.5,4,1.4,8,2.9,11.8c0,0.1,0.1,0.2,0.1,0.3c-0.5,0.3-1.1,0.5-1.5,1c0,0,0,0.1,0.1,0.1c0.5-0.2,1.1-0.4,1.6-0.6
					c0.1,0.2,0.2,0.4,0.3,0.7c-0.4,0.2-0.7,0.5-1.1,0.7c0,0,0,0,0,0.1c0.4-0.1,0.8-0.3,1.2-0.4c1.1,2.4,2.4,4.7,4,6.8
					c-0.6-1.1-1.3-2.3-1.9-3.4c-0.6-1.2-1.1-2.4-1.7-3.6C474,167.4,474.7,167.1,475.4,166.7 M484.9,145.2
					C484.9,145.2,484.9,145.2,484.9,145.2c-0.1-0.2-0.1-0.3-0.1-0.5c-0.4-1.5-0.8-3.1-1.6-4.4c-0.3-0.4-0.6-0.9-1-1.2
					c-0.7-0.6-1.6-0.6-2.3,0c0.2-0.1,0.4-0.1,0.5-0.2c0.7-0.2,1.4-0.1,1.8,0.5c0.3,0.4,0.7,0.9,0.9,1.4c0.6,1.3,1,2.6,1.3,4
					c0,0.2,0.2,0.4-0.3,0.5c0.4,0,0.4,0.2,0.5,0.4c0.1,0.3,0.1,0.6,0.2,1c0.1,0.5,0.1,0.5-0.4,0.7c-0.2,0.1-0.4,0.1-0.6,0.2
					c0,0.1,0,0.1,0,0.2c0.4,0,0.7,0,1.2-0.1c0,0.6,0.1,1.1,0.1,1.7c0.1,2.2,0,4.3-0.6,6.4c-0.4,1.3-0.9,2.5-1.8,3.4
					c-0.7,0.7-1.4,1.3-2.4,0.6c0.2,0.6,0.8,0.8,1.3,0.6c0.4-0.2,0.8-0.4,1.1-0.7c0.8-0.7,1.4-1.7,1.8-2.7c0.7-1.6,1-3.3,1-5.1
					c0-1.3-0.1-2.6-0.1-4c0-0.3,0-0.4,0.4-0.5c0.6-0.1,1.2-0.2,1.7-0.4c0.5-0.1,1.1-0.3,1.6-0.4l0-0.1c-1.3,0.2-2.5,0.3-3.8,0.5
					c-0.1-0.6-0.2-1.2-0.3-1.7c0.6-0.2,1.2-0.3,1.8-0.5c0.6-0.2,1.2-0.4,1.8-0.6c0.6-0.2,1.1-0.5,1.7-0.7c0,0,0-0.1,0-0.1
					C488.4,144.1,486.7,144.7,484.9,145.2 M480.8,142.9c0,0,0.1,0,0.1,0c-0.2-0.4-0.4-0.9-0.6-1.3c-0.2-0.3-0.5-0.3-0.7-0.1
					c-0.2,0.1-0.3,0.3-0.4,0.5c-0.2,0.5-0.4,0.9-0.5,1.4c-0.4,2-0.4,4-0.2,6c0.1,1.5,0.3,2.9,0.9,4.3c0.2,0.6,0.5,1.1,0.9,1.6
					c0.5,0.6,1.7,0.6,2.3,0c-0.2,0-0.3,0.1-0.4,0.1c-0.8,0.2-1.5-0.1-1.9-0.8c-0.2-0.4-0.4-0.7-0.5-1.1c-0.9-3.2-1.2-6.4-0.7-9.7
					c0.1-0.6,0.3-1.1,0.5-1.7c0.2-0.5,0.5-0.5,0.8,0C480.5,142.3,480.6,142.6,480.8,142.9 M482.3,148c-0.1-0.1-0.2-0.4-0.3-0.4
					c-0.3-0.1-0.4,0.2-0.4,0.4c-0.1,0.4-0.1,0.7-0.1,1.1c0,0.1,0.1,0.2,0.2,0.4c0.1-0.1,0.3-0.1,0.3-0.3
					C482.1,148.8,482.2,148.4,482.3,148"/>
				<path class="st20" d="M541.4,96.1c-0.1,0.7-0.1,1.3-0.2,2c-0.1,0.8-0.2,1.6-0.4,2.4c0,0.2-0.1,0.5-0.3,0.6
					c-0.9,0.9-1.6,1.9-2.1,3.1c-0.1,0.2-0.3,0.5-0.5,0.7c-0.2,0.3-0.4,0.5-0.6,0.8c-0.4,0.6-0.3,1,0.4,1.3c0.4,0.1,0.8,0.2,1.2,0.3
					c0,0.1,0,0.2,0,0.2c-0.7,3.1-1.7,6.2-2.7,9.2c-0.7,2.1-3.1,3.9-5.5,3.9c-1.5,0-3-0.3-4.4-0.9c-0.9-0.4-1.6-1-2.1-1.9
					c-0.2-0.2-0.2-0.4,0.1-0.6c1.1-0.9,2.2-1.9,3.3-2.8c1.5-1.2,2.8-2.5,3.6-4.3c0.7-1.5,1-3.1,1.3-4.7c0.4-2.4,0.9-4.8,1.4-7.3
					c0.1-0.4,0.2-0.9,0.4-1.3c0.1-0.2,0.3-0.4,0.5-0.4c2.1-0.2,4.2-0.4,6.3-0.6C541.3,96.1,541.3,96.1,541.4,96.1 M526.4,116.8
					c0.7,1.1,3.6,1.9,5.4,1.4c1.5-0.4,3.2-1.7,3.2-2.6C532.5,118.4,529.6,118.6,526.4,116.8 M532.4,114.8c0,0.1,0,0.1,0,0.2
					c0.2,0,0.4,0,0.6-0.1c0.8-0.4,1.5-1,1.9-1.7c0.7-1.1,1.1-2.4,1.2-3.7c0-0.6,0-1.2,0-1.7c-0.2,0.7-0.3,1.4-0.4,2
					c-0.2,1-0.5,2-1,2.9C534.2,113.6,533.5,114.4,532.4,114.8"/>
				<path class="st22" d="M544,102.8c0.3-1.1,0.6-2,0.9-3c0,0-0.1,0-0.1,0c-0.2,0.3-0.3,0.5-0.5,0.8c-0.4,0.7-0.8,1.5-0.9,2.3
					c0,0.1-0.1,0.2-0.2,0.2c-1.4,0.6-2.7,1.3-4.1,1.9c0,0,0,0-0.1-0.1c0-0.1,0.1-0.2,0.1-0.3c0.8-1.9,2.2-3.3,3.9-4.5
					c2.9-2.1,6.2-3.4,9.7-4.2c0.5-0.1,1-0.2,1.6-0.4c0,0.3,0.1,0.5,0.1,0.7c0,1.3,0,2.5-0.1,3.8c-0.1,1.7-1.1,3-2.5,4
					c-1.3,0.9-2.7,1.4-4.2,1.7c-2.3,0.5-4.7,0.7-7,0.6c-0.6,0-1.3-0.2-1.9-0.2c0,0,0-0.1,0-0.1c0.1-0.1,0.2-0.2,0.3-0.3
					c0.8-0.3,1.6-0.6,2.4-0.9c0.1,0,0.2-0.1,0.3,0c1.7,0.4,3.4,0.2,5.1-0.2c0.3-0.1,0.6-0.1,0.9-0.3h-5.1c0,0,0,0,0-0.1
					c0.2-0.1,0.4-0.2,0.6-0.3c1.5-0.8,3-1.4,4.7-1.6c1.2-0.1,2.3-0.5,3.4-0.8c0.1,0,0.2-0.1,0.3-0.2c-1.5,0.2-3.1,0.4-4.7,0.6
					c1.4-0.9,2.6-2,3.6-3.3C548.3,100.2,546.3,101.6,544,102.8"/>
				<path class="st19" d="M555.2,143.2c-5.3,1.3-10.6,2.1-16,2.8C544.5,144.7,549.9,143.8,555.2,143.2"/>
				<path class="st19" d="M543.5,139c5.4-1.1,10.9-2.2,16.3-3.3c0,0,0,0.1,0,0.1c-0.8,0.2-1.6,0.4-2.4,0.6c-3.5,0.8-7,1.6-10.5,2.3
					c-1,0.2-2.1,0.3-3.1,0.4C543.8,139.2,543.7,139.1,543.5,139C543.5,139.1,543.5,139,543.5,139"/>
				<path class="st19" d="M567.3,124.5c-4,0.9-13.3,1.9-14.8,1.6c4.9-0.6,9.9-1.1,14.8-1.7C567.3,124.4,567.3,124.5,567.3,124.5"/>
				<path class="st19" d="M512,126.9c7.1-1.3,14.2-2.6,21.3-3.9c0,0,0,0.1,0,0.1C526.2,124.6,519.2,126,512,126.9
					C512,127,512,126.9,512,126.9"/>
				<path class="st19" d="M543.5,162.5c4.3-1.1,8.7-1.6,13.1-2.1C555.8,160.7,544.4,162.6,543.5,162.5"/>
				<path class="st19" d="M511,167c3.3-0.9,6.7-1.4,10.1-1.8c-3.3,0.9-6.6,1.6-10,1.9L511,167z"/>
				<path class="st19" d="M516.5,139.8c-1.5,0.6-12.1,2.9-13.6,2.9C507.4,141.6,511.9,140.6,516.5,139.8"/>
				<path class="st19" d="M540.9,133.4c-3.6,0.8-7.1,1.8-10.7,2C530.6,135.1,539.9,133.4,540.9,133.4"/>
				<path class="st19" d="M507.1,150.8c3.3-1,6.7-1.5,10.1-2C516.6,149.2,507.9,150.9,507.1,150.8"/>
				<path class="st19" d="M566.9,116.5c3.3-0.9,6.6-1.5,10-1.9c0,0,0,0.1,0,0.1c-3.3,0.7-6.6,1.3-10,2
					C566.9,116.6,566.9,116.5,566.9,116.5"/>
				<path class="st19" d="M572.8,132.6c3.2-0.9,6.5-1.4,9.8-1.9C579.3,131.5,576.1,132.4,572.8,132.6"/>
				<path class="st19" d="M572.5,136.5c2.6-0.7,5.3-1.1,8-1.4C577.9,135.8,575.2,136.4,572.5,136.5"/>
				<path class="st19" d="M553.7,163.9c-2.6,0.6-5.2,0.9-7.8,1.2C548.4,164.5,551,164.1,553.7,163.9"/>
				<path class="st19" d="M555.2,129c2.3-0.6,4.6-0.9,6.9-1.2C561.5,128.2,556,129.1,555.2,129"/>
				<path class="st19" d="M579.8,155.8c-1.7,0.1-3.3,0.4-5,0.1C576.4,155.6,578.1,155.8,579.8,155.8"/>
				<path class="st19" d="M508.6,152.7c1.9-0.2,3.8-0.3,5.7-0.5c0,0,0,0.1,0,0.1c-1.9,0.2-3.8,0.6-5.7,0.5
					C508.6,152.8,508.6,152.7,508.6,152.7"/>
				<path class="st19" d="M524.2,130.3c-1.9,0.4-3.8,0.7-5.8,1.1c0-0.1,0-0.1,0-0.2l5.8-1.1C524.2,130.3,524.2,130.3,524.2,130.3"/>
				<path class="st19" d="M475.4,166.7c-0.7,0.4-1.4,0.7-2.2,1.1c0.6,1.2,1.1,2.4,1.7,3.6c0.6,1.2,1.3,2.3,1.9,3.4
					c-1.6-2.1-2.9-4.4-4-6.8c-0.4,0.1-0.8,0.3-1.2,0.4c0,0,0,0,0-0.1c0.3-0.2,0.7-0.4,1.1-0.7c-0.1-0.2-0.2-0.4-0.3-0.7
					c-0.6,0.2-1.1,0.4-1.6,0.6c0,0,0-0.1-0.1-0.1c0.4-0.5,0.9-0.6,1.5-1c0-0.1-0.1-0.2-0.1-0.3c-1.5-3.8-2.4-7.8-2.9-11.8
					c-0.4-3.3-0.5-6.7-0.3-10c0.2-3.5,0.7-6.9,1.9-10.1c0-0.1,0-0.3-0.1-0.4c-0.1-0.1-0.2-0.2-0.2-0.4c0.2,0.1,0.4,0.1,0.6,0.2
					c0.2-0.4,0.4-0.8,0.5-1.2c0-0.1-0.1-0.3-0.2-0.4c-0.5-0.6-1.1-1.2-1.7-1.9c-0.1-0.1-0.1-0.2-0.2-0.3c0.9,0.5,1.5,1.2,2.2,1.9
					c0.4-0.7,0.8-1.4,1.3-2.1c0.5-0.7,1-1.3,1.5-1.9c0,0,0.1,0.1,0.1,0.1c0,0.1,0,0.1-0.1,0.2c-1,1.2-1.7,2.5-2.4,3.8
					c-0.1,0.2,0,0.3,0.1,0.5c0.5,0.6,1,1.2,1.5,1.8c0,0-0.1,0.1-0.1,0.1c-0.6-0.5-1.2-1.1-1.8-1.7c-0.2,0.4-0.3,0.8-0.5,1.1
					c0,0,0,0.1,0.1,0.2c0.9,0.9,1.9,1.9,2.8,2.8c0-0.1,0.1-0.2,0.1-0.3c0.4-1.6,0.8-3.2,1.6-4.6c0.3-0.6,0.8-1.2,1.3-1.7
					c1.1-1,2.4-0.9,3.4,0.1c0.7,0.7,1.3,1.4,1.7,2.3c-0.1-0.1-0.1-0.1-0.2-0.2c-0.5-0.6-1-1.3-1.6-1.8c-1-0.9-2.2-0.9-3.2,0.1
					c-0.6,0.6-1,1.4-1.4,2.1c-0.6,1.4-1,2.9-1.3,4.4c0,0.1,0,0.3,0.1,0.4c0.1,0.2,0.3,0.4,0.3,0.6c-0.2-0.1-0.3-0.2-0.5-0.4
					c-0.1,0.6-0.2,1.2-0.3,1.8c-0.4,3.3-0.5,6.7-0.3,10c0.3,5.7,1.1,11.4,2.8,16.9c0.4,1.4,1,2.7,1.6,4.1c0.2,0.5,0.6,1,0.9,1.4
					c0.7,0.9,1.6,1,2.5,0.2c0.6-0.5,1-1.1,1.4-1.7c1.1-1.8,1.8-3.7,2.4-5.8c0.7-2.6,1.1-5.3,1.6-7.9c0.2-1.2,0.4-2.5,0.7-3.7
					c-0.1,0.8-0.2,1.5-0.2,2.3c-0.3,2.6-0.6,5.2-1.1,7.8c-0.5,2.4-1.3,4.7-2.4,6.9c-0.4,0.8-0.9,1.6-1.6,2.3
					c-0.4,0.4-0.9,0.8-1.5,0.9c-0.9,0.2-1.6-0.2-2.1-0.9c-0.5-0.7-1-1.4-1.3-2.2c-1.1-2.3-1.7-4.8-2.3-7.3
					c-0.8-3.6-1.3-7.3-1.6-10.9c-0.2-2.8-0.3-5.7-0.2-8.5c0.1-1.9,0.4-3.8,0.6-5.7c0-0.3,0-0.5-0.2-0.7c-0.8-0.8-1.6-1.6-2.4-2.4
					c-0.1-0.1-0.2-0.2-0.4-0.4c-0.1,0.2-0.1,0.3-0.2,0.5c-0.7,2.1-1.1,4.2-1.3,6.3c-0.3,3-0.4,6-0.3,9c0.2,4.1,0.8,8.1,2,12.1
					c0.4,1.2,0.8,2.5,1.2,3.7c0,0.1,0.1,0.2,0.1,0.3c0.8-0.3,1.6-0.7,2.3-1c0,0,0,0.1,0.1,0.1c-0.7,0.4-1.5,0.9-2.2,1.3
					c0.1,0.2,0.2,0.4,0.2,0.6c0.8-0.3,1.5-0.5,2.3-0.8C475.4,166.6,475.4,166.7,475.4,166.7"/>
				<path class="st19" d="M484.9,145.2c1.7-0.6,3.5-1.1,5.2-1.7c0,0,0,0.1,0,0.1c-0.5,0.2-1.1,0.5-1.7,0.7c-0.6,0.2-1.2,0.5-1.8,0.6
					c-0.6,0.2-1.2,0.3-1.8,0.5c0.1,0.6,0.2,1.2,0.3,1.7c1.3-0.2,2.5-0.3,3.8-0.5l0,0.1c-0.5,0.1-1.1,0.3-1.6,0.4
					c-0.6,0.1-1.2,0.3-1.7,0.4c-0.3,0.1-0.4,0.2-0.4,0.5c0.1,1.3,0.2,2.6,0.1,4c0,1.7-0.4,3.5-1,5.1c-0.4,1-0.9,2-1.8,2.7
					c-0.3,0.3-0.7,0.5-1.1,0.7c-0.6,0.2-1.1,0-1.3-0.6c1.1,0.7,1.8,0.1,2.4-0.6c0.9-1,1.5-2.2,1.8-3.4c0.6-2.1,0.8-4.2,0.6-6.4
					c0-0.6-0.1-1.1-0.1-1.7c-0.4,0-0.8,0-1.2,0.1c0-0.1,0-0.1,0-0.2c0.2-0.1,0.4-0.2,0.6-0.2c0.5-0.1,0.5-0.1,0.4-0.7
					c-0.1-0.3-0.1-0.6-0.2-1c0-0.2,0-0.5-0.5-0.4c0.4-0.1,0.3-0.3,0.3-0.5c-0.3-1.4-0.7-2.7-1.3-4c-0.3-0.5-0.6-1-0.9-1.4
					c-0.5-0.6-1.1-0.7-1.8-0.5c-0.1,0-0.3,0.1-0.5,0.2c0.7-0.6,1.7-0.6,2.3,0c0.4,0.3,0.7,0.8,1,1.2c0.8,1.4,1.2,2.9,1.6,4.4
					C484.8,144.9,484.8,145,484.9,145.2C484.9,145.2,484.9,145.2,484.9,145.2"/>
				<path class="st19" d="M480.8,142.9c-0.1-0.3-0.3-0.6-0.4-0.9c-0.3-0.5-0.6-0.5-0.8,0c-0.2,0.5-0.4,1.1-0.5,1.7
					c-0.5,3.3-0.3,6.5,0.7,9.7c0.1,0.4,0.3,0.8,0.5,1.1c0.4,0.7,1.1,1,1.9,0.8c0.1,0,0.2-0.1,0.4-0.1c-0.6,0.6-1.8,0.6-2.3,0
					c-0.4-0.5-0.7-1-0.9-1.6c-0.5-1.4-0.7-2.8-0.9-4.3c-0.2-2-0.2-4,0.2-6c0.1-0.5,0.3-0.9,0.5-1.4c0.1-0.2,0.2-0.4,0.4-0.5
					c0.3-0.2,0.6-0.2,0.7,0.1c0.2,0.4,0.4,0.9,0.6,1.3C480.9,142.9,480.8,142.9,480.8,142.9"/>
				<path class="st19" d="M482.3,148c-0.1,0.5-0.2,0.8-0.3,1.2c0,0.1-0.2,0.2-0.3,0.3c-0.1-0.1-0.2-0.2-0.2-0.4
					c0-0.4,0.1-0.7,0.1-1.1c0-0.2,0.2-0.5,0.4-0.4C482.1,147.6,482.2,147.8,482.3,148"/>
				<path class="st19" d="M526.4,116.8c3.2,1.7,6.1,1.6,8.7-1.2c0,0.9-1.7,2.2-3.2,2.6C530,118.7,527,118,526.4,116.8"/>
				<path class="st19" d="M532.4,114.8c1.1-0.4,1.9-1.2,2.4-2.2c0.5-0.9,0.8-1.9,1-2.9c0.1-0.7,0.3-1.4,0.4-2c0,0.6,0,1.2,0,1.7
					c-0.1,1.3-0.5,2.6-1.2,3.7c-0.5,0.7-1.1,1.4-1.9,1.7c-0.2,0.1-0.4,0.1-0.6,0.1C532.4,114.9,532.4,114.9,532.4,114.8"/>
			</g>
		</g>
	</g>
</g>
<g id="B1">
	<g>
		<g>
			<defs>
				<rect id="SVGID_17_" x="53.7" y="88.1" width="166.5" height="114.9"/>
			</defs>
			<clipPath id="SVGID_18_">
				<use xlink:href="#SVGID_17_"  style="overflow:visible;"/>
			</clipPath>
			<g class="st23">
				<defs>
					<rect id="SVGID_19_" x="53.7" y="88.1" width="166.5" height="114.9"/>
				</defs>
				<clipPath id="SVGID_20_">
					<use xlink:href="#SVGID_19_"  style="overflow:visible;"/>
				</clipPath>
				<path class="st24" d="M145.3,99.7c0.8-0.5,1.5-1,2.2-1.5c2.7-1.7,5.7-2.7,8.8-3.4c0.5-0.1,1-0.3,1.5-0.4
					c0.5-0.1,0.8,0.1,0.8,0.5c0.2,2,0.3,4-0.1,5.9c-0.4,2-1.7,3.4-3.4,4.3c-1.8,1-3.8,1.5-5.8,1.8c-1.8,0.2-3.7,0.4-5.5,0.3
					c-0.2,0-0.3,0-0.3,0.2c-0.3,1.3-0.7,2.6-1,4c0.1,0,0.2,0,0.3,0c9.2-1.3,18.4-2.6,27.6-3.9c3.7-0.5,7.5-1,11.2-1.5
					c0.5-0.1,0.8,0,1.2,0.2c1,0.5,2,0.9,2.9,1.5c2.6,1.6,4.7,3.7,6.6,6.1c4.4,5.6,7.1,12,8,19.1c0.8,6.4-0.2,12.5-2.7,18.4
					c-1.2,2.9-2.7,5.6-4.7,8.1c-0.8,1.1-1.8,2-2.7,3c-0.4,0.4-0.8,0.7-1.3,1.1c-0.1,0.1-0.3,0.1-0.5,0.2c-5.5,1.1-10.9,2.3-16.4,3.3
					c-14.3,2.7-28.6,5.5-42.9,8.1c-10.6,2-21.3,3.9-31.9,5.8c-2.5,0.4-5,0.9-7.4,1.4c-0.5,0.1-1.1,0.3-1.6,0.4
					c-1.4,0.2-2.8-0.2-4.1-0.7c-2.1-0.8-3.8-2.2-5.3-3.9c-3-3.3-5-7.1-6.7-11.2c-1.8-4.4-3-9-3.6-13.8c-0.5-3.7-0.7-7.5-0.5-11.3
					c0.2-3.8,0.9-7.6,2.4-11.2c1.5-3.4,3.5-6.4,6.7-8.4c1.7-1.1,3.5-1.8,5.6-2c0.9-0.1,1.8,0,2.7-0.1c1.5-0.1,2.9-0.3,4.4-0.5
					c7.1-1.1,14.3-2.3,21.4-3.4c6.5-1,13-2,19.5-3c0.2,0,0.5-0.2,0.6-0.3c2-1.6,3.1-3.7,3.6-6.2c0.5-2.8,1-5.5,1.6-8.3
					c0.1-0.6,0.3-1.2,0.5-1.8c0.2-0.7,0.7-1,1.4-1.1c2-0.2,4-0.3,6.1-0.5c0.2,0,0.5,0,0.7,0c0.6,0.1,0.8,0.4,0.7,0.9
					c-0.2,1.1-0.3,2.2-0.5,3.4C145.3,99.5,145.3,99.6,145.3,99.7 M129.4,114.5c0,0,0-0.1,0-0.1c-14.3,2.3-28.6,4.5-42.9,6.7
					c0,0.1,0,0.1,0,0.1c0.1,0,0.1,0.1,0.2,0.1c2.1,1.1,4,2.5,5.6,4.3c0.2,0.2,0.4,0.2,0.6,0.1c1.2-0.2,2.5-0.4,3.7-0.6
					c3.4-0.5,6.8-1,10.1-1.6c0.8-0.1,1.6-0.2,2.4-0.3c0,0,0,0.1,0,0.1c-5.5,0.9-10.9,1.9-16.4,2.8c0,0,0,0,0,0.1
					c0.9,1.4,1.8,2.7,2.7,4.1c0.1,0.1,0.2,0.1,0.3,0.1c2-0.3,4-0.6,6-0.8c1-0.1,1.9-0.2,2.9-0.4c0,0,0,0.1,0,0.1c-3,0.5-6,0.9-9,1.4
					c0.1,0.1,0.1,0.2,0.2,0.4c0.6,1.5,1.3,2.9,1.9,4.4c1.7,4.6,2.5,9.3,2.8,14.1c0.3,5.1,0,10.2-1,15.3c-0.7,3.5-1.8,6.8-3.5,10
					c-1.2,2.2-2.7,4.2-4.8,5.7c-0.3,0.3-0.7,0.5-1.1,0.7c0.1,0,0.2,0,0.3,0c9.7-1.8,19.4-3.5,29.1-5.3c13.1-2.4,26.3-4.9,39.4-7.4
					c9.3-1.8,18.5-3.6,27.7-5.4c1.3-0.3,2.3-0.8,3.2-1.8c3.3-3.5,5.7-7.6,7.3-12c2-5.3,2.7-10.7,2-16.3c-0.6-4.9-2.1-9.5-4.5-13.8
					c-1.9-3.5-4.3-6.6-7.3-9.2c-1.4-1.2-2.9-2.3-4.7-2.9c-0.6-0.2-1.2-0.3-1.8-0.2c-4.1,0.5-8.2,1.1-12.3,1.6
					c-8.7,1.2-17.5,2.5-26.2,3.7c-0.3,0-0.4,0.2-0.5,0.4c-0.5,1.5-0.9,3.1-1.5,4.5c-0.8,2.1-2.4,3.4-4.6,3.9
					c-2.5,0.6-4.9,0.2-7.1-1.1c-1-0.5-1.7-1.3-2.2-2.4c-0.2-0.5-0.2-0.8,0.2-1.1c0.5-0.5,1.1-1,1.7-1.5
					C128.7,115,129,114.8,129.4,114.5 M68.7,144.8c0,4.9,0.5,8.8,1.1,12c1,5.4,2.7,10.5,5.3,15.3c1.5,2.7,3.1,5.1,5.4,7.2
					c1.3,1.2,2.7,2.1,4.4,2.6c1,0.3,2,0.5,2.9,0c1.7-0.9,3.3-1.9,4.6-3.3c2.3-2.4,3.8-5.3,4.9-8.5c1.7-4.7,2.3-9.6,2.5-14.6
					c0.1-4.1-0.1-8.2-0.9-12.3c-0.9-5-2.5-9.8-5.2-14.1c-1.6-2.5-3.5-4.7-6.1-6.3c-2.3-1.4-4.7-1.6-7.2-1.1c-0.1,0-0.2,0.1-0.3,0.1
					c-0.8,0.5-1.7,1-2.5,1.5c-3.3,2.3-5.4,5.5-6.8,9.2C69.1,136.7,68.7,141.2,68.7,144.8 M144.7,96.1c-0.1,0-0.1,0-0.2,0
					c-2.1,0.2-4.2,0.4-6.3,0.6c-0.2,0-0.4,0.2-0.5,0.4c-0.2,0.4-0.3,0.8-0.4,1.3c-0.5,2.4-0.9,4.8-1.4,7.3c-0.3,1.6-0.6,3.2-1.3,4.7
					c-0.8,1.8-2.2,3.1-3.6,4.3c-1.1,0.9-2.2,1.8-3.3,2.8c-0.2,0.2-0.2,0.4-0.1,0.6c0.5,0.8,1.2,1.4,2.1,1.9c1.4,0.6,2.9,0.9,4.4,0.9
					c2.4,0,4.8-1.8,5.5-3.9c1-3.1,2-6.1,2.7-9.2c0-0.1,0-0.2,0-0.2c-0.4-0.1-0.8-0.2-1.2-0.3c-0.7-0.2-0.8-0.7-0.4-1.3
					c0.2-0.3,0.4-0.5,0.6-0.8c0.2-0.2,0.3-0.4,0.5-0.7c0.5-1.2,1.2-2.2,2.1-3.1c0.2-0.2,0.3-0.4,0.3-0.6c0.1-0.8,0.3-1.6,0.4-2.4
					C144.6,97.4,144.7,96.8,144.7,96.1 M147.3,102.8c2.3-1.2,4.4-2.7,6.5-4.1c-1.1,1.2-2.2,2.3-3.6,3.3c1.6-0.2,3.2-0.4,4.7-0.6
					c-0.1,0.1-0.2,0.2-0.3,0.2c-1.1,0.3-2.3,0.7-3.4,0.8c-1.7,0.2-3.2,0.7-4.7,1.6c-0.2,0.1-0.4,0.2-0.6,0.3c0,0,0,0,0,0.1h5.1
					c-0.3,0.1-0.6,0.2-0.9,0.3c-1.7,0.3-3.4,0.5-5.1,0.2c-0.1,0-0.2,0-0.3,0c-0.8,0.3-1.6,0.6-2.4,0.9c-0.1,0.1-0.2,0.2-0.3,0.3
					c0,0,0,0.1,0,0.1c0.6,0.1,1.3,0.2,1.9,0.2c2.4,0.1,4.7-0.1,7-0.6c1.5-0.3,2.9-0.8,4.2-1.7c1.4-1,2.3-2.2,2.5-4
					c0.1-1.2,0.1-2.5,0.1-3.8c0-0.2,0-0.4-0.1-0.7c-0.6,0.1-1.1,0.2-1.6,0.4c-3.5,0.8-6.8,2.1-9.7,4.2c-1.7,1.2-3.1,2.6-3.9,4.5
					c0,0.1-0.1,0.2-0.1,0.3c0,0,0,0,0.1,0.1c1.4-0.6,2.7-1.2,4.1-1.9c0.1,0,0.2-0.2,0.2-0.2c0.1-0.9,0.5-1.6,0.9-2.3
					c0.2-0.3,0.3-0.6,0.5-0.8c0,0,0.1,0,0.1,0C147.9,100.8,147.6,101.8,147.3,102.8"/>
				<path class="st25" d="M129.4,114.5c-0.3,0.2-0.6,0.5-0.9,0.7c-0.6,0.5-1.1,1-1.7,1.5c-0.4,0.4-0.4,0.6-0.2,1.1
					c0.5,1,1.2,1.8,2.2,2.4c2.2,1.3,4.6,1.7,7.1,1.1c2.1-0.5,3.7-1.8,4.6-3.9c0.6-1.5,1-3,1.5-4.5c0.1-0.3,0.2-0.4,0.5-0.4
					c8.7-1.2,17.5-2.5,26.2-3.7c4.1-0.6,8.2-1.1,12.3-1.6c0.6-0.1,1.2,0,1.8,0.2c1.8,0.6,3.3,1.7,4.7,2.9c3,2.6,5.4,5.7,7.3,9.2
					c2.4,4.3,3.9,8.9,4.5,13.8c0.7,5.6,0,11-2,16.3c-1.7,4.5-4.1,8.5-7.3,12c-0.9,1-1.9,1.6-3.2,1.8c-9.3,1.8-18.5,3.6-27.7,5.4
					c-13.1,2.5-26.2,5-39.4,7.4c-9.7,1.8-19.4,3.6-29.1,5.3c-0.1,0-0.2,0-0.3,0c0.4-0.2,0.7-0.5,1.1-0.7c2-1.5,3.5-3.5,4.8-5.7
					c1.7-3.1,2.8-6.5,3.5-10c1-5,1.3-10.1,1-15.3c-0.3-4.8-1.1-9.6-2.8-14.1c-0.5-1.5-1.3-2.9-1.9-4.4c-0.1-0.1-0.1-0.2-0.2-0.4
					c3-0.5,6-1,9-1.4c0,0,0-0.1,0-0.1c-1,0.1-1.9,0.2-2.9,0.4c-2,0.3-4,0.6-6,0.8c-0.1,0-0.2-0.1-0.3-0.1c-0.9-1.4-1.8-2.7-2.7-4.1
					c0,0,0,0,0-0.1c5.5-0.9,10.9-1.9,16.4-2.8c0,0,0-0.1,0-0.1c-0.8,0.1-1.6,0.2-2.4,0.3c-3.4,0.5-6.8,1-10.1,1.6
					c-1.2,0.2-2.5,0.4-3.7,0.6c-0.2,0-0.4,0.1-0.6-0.1c-1.6-1.8-3.4-3.3-5.6-4.3c-0.1,0-0.1-0.1-0.2-0.1c0,0,0,0,0-0.1
					c14.3-2.2,28.6-4.5,42.9-6.7C129.3,114.5,129.3,114.5,129.4,114.5 M158.6,143.2c-5.4,0.6-10.7,1.5-16,2.8
					C148,145.3,153.3,144.4,158.6,143.2 M146.9,139C146.9,139,146.9,139.1,146.9,139c0.1,0.1,0.3,0.1,0.4,0.1c1-0.1,2.1-0.2,3.1-0.4
					c3.5-0.7,7-1.5,10.5-2.3c0.8-0.2,1.6-0.4,2.4-0.6c0,0,0-0.1,0-0.1C157.8,136.8,152.3,137.9,146.9,139 M170.6,124.5
					c0,0,0-0.1,0-0.1c-4.9,0.6-9.9,1.1-14.8,1.7C157.3,126.4,166.6,125.4,170.6,124.5 M115.3,126.9
					C115.3,126.9,115.4,127,115.3,126.9c7.2-0.9,14.2-2.3,21.3-3.8c0,0,0-0.1,0-0.1C129.5,124.3,122.4,125.6,115.3,126.9
					 M146.8,162.5c0.9,0.1,12.4-1.8,13.1-2.1C155.5,160.9,151.1,161.4,146.8,162.5 M114.4,167l0,0.2c3.4-0.3,6.7-1,10-1.9
					C121,165.6,117.7,166.1,114.4,167 M119.8,139.8c-4.6,0.8-9.1,1.8-13.6,2.9C107.7,142.7,118.3,140.4,119.8,139.8 M144.3,133.4
					c-1-0.1-10.3,1.7-10.7,2C137.2,135.2,140.7,134.2,144.3,133.4 M110.4,150.8c0.8,0.1,9.5-1.6,10.1-2
					C117.1,149.3,113.7,149.9,110.4,150.8 M170.2,116.5c0,0.1,0,0.1,0,0.2c3.3-0.7,6.6-1.3,10-2c0,0,0-0.1,0-0.1
					C176.9,115,173.5,115.5,170.2,116.5 M176.1,132.6c3.3-0.2,6.5-1.1,9.8-1.9C182.6,131.2,179.3,131.7,176.1,132.6 M175.8,136.5
					c2.7-0.1,5.3-0.8,8-1.4C181.1,135.5,178.5,135.9,175.8,136.5 M157,163.9c-2.6,0.1-5.2,0.5-7.8,1.2
					C151.8,164.9,154.4,164.6,157,163.9 M158.5,129c0.8,0.1,6.3-0.9,6.9-1.2C163.1,128.1,160.8,128.4,158.5,129 M183.1,155.8
					c-1.7-0.1-3.3-0.3-5,0.1C179.8,156.3,181.4,155.9,183.1,155.8 M111.9,152.7c0,0,0,0.1,0,0.1c1.9,0.1,3.8-0.3,5.7-0.5
					c0,0,0-0.1,0-0.1C115.7,152.3,113.8,152.5,111.9,152.7 M127.5,130.3c0,0,0-0.1,0-0.1l-5.8,1.1c0,0.1,0,0.1,0,0.2
					C123.7,131.1,125.6,130.7,127.5,130.3"/>
				<path class="st26" d="M68.7,144.8c0-3.6,0.5-8,2.1-12.3c1.4-3.7,3.5-6.9,6.8-9.2c0.8-0.6,1.7-1,2.5-1.5c0.1,0,0.2-0.1,0.3-0.1
					c2.5-0.5,5-0.3,7.2,1.1c2.6,1.6,4.5,3.8,6.1,6.3c2.8,4.3,4.3,9.1,5.2,14.1c0.7,4.1,1,8.2,0.9,12.3c-0.2,5-0.8,9.9-2.5,14.6
					c-1.1,3.1-2.6,6-4.9,8.5c-1.3,1.4-2.9,2.4-4.6,3.3c-1,0.5-1.9,0.3-2.9,0c-1.7-0.5-3.1-1.5-4.4-2.6c-2.3-2-4-4.5-5.4-7.2
					c-2.6-4.8-4.3-9.9-5.3-15.3C69.1,153.6,68.7,149.6,68.7,144.8 M78.7,166.7c0,0,0-0.1-0.1-0.1c-0.8,0.3-1.5,0.5-2.3,0.8
					c-0.1-0.2-0.2-0.4-0.2-0.6c0.8-0.5,1.5-0.9,2.2-1.3c0,0,0-0.1-0.1-0.1c-0.8,0.3-1.5,0.7-2.3,1c-0.1-0.1-0.1-0.2-0.1-0.3
					c-0.4-1.2-0.8-2.4-1.2-3.7c-1.1-3.9-1.8-8-2-12.1c-0.2-3-0.1-6,0.3-9c0.3-2.1,0.6-4.3,1.3-6.3c0-0.1,0.1-0.3,0.2-0.5
					c0.2,0.2,0.3,0.3,0.4,0.4c0.8,0.8,1.6,1.6,2.4,2.4c0.2,0.2,0.2,0.4,0.2,0.7c-0.2,1.9-0.5,3.8-0.6,5.7c-0.2,2.8-0.1,5.7,0.2,8.5
					c0.3,3.7,0.8,7.3,1.6,10.9c0.6,2.5,1.2,5,2.3,7.3c0.4,0.8,0.8,1.5,1.3,2.2c0.5,0.7,1.2,1,2.1,0.9c0.6-0.1,1.1-0.5,1.5-0.9
					c0.7-0.7,1.2-1.5,1.6-2.3c1.1-2.2,1.9-4.5,2.4-6.9c0.6-2.6,0.9-5.2,1.1-7.8c0.1-0.8,0.2-1.5,0.2-2.3c-0.3,1.2-0.5,2.5-0.7,3.7
					c-0.5,2.6-0.9,5.3-1.6,7.9c-0.6,2-1.3,4-2.4,5.8c-0.4,0.6-0.9,1.2-1.4,1.7c-0.9,0.8-1.7,0.7-2.5-0.2c-0.4-0.4-0.7-0.9-0.9-1.4
					c-0.6-1.3-1.2-2.7-1.6-4.1c-1.7-5.5-2.5-11.2-2.8-16.9c-0.2-3.4-0.2-6.7,0.3-10c0.1-0.6,0.2-1.2,0.3-1.8
					c0.2,0.2,0.4,0.3,0.5,0.4c-0.1-0.2-0.2-0.4-0.3-0.6c-0.1-0.1-0.1-0.3-0.1-0.4c0.3-1.5,0.7-3,1.3-4.4c0.3-0.8,0.8-1.5,1.4-2.1
					c1-1,2.1-1,3.2-0.1c0.6,0.6,1.1,1.2,1.6,1.8c0.1,0.1,0.1,0.1,0.2,0.2c-0.3-0.9-1-1.6-1.7-2.3c-1-1-2.4-1-3.4-0.1
					c-0.5,0.5-0.9,1.1-1.3,1.7c-0.8,1.4-1.2,3-1.6,4.6c0,0.1-0.1,0.2-0.1,0.3c-1-1-1.9-1.9-2.8-2.8c0,0-0.1-0.1-0.1-0.2
					c0.1-0.4,0.3-0.7,0.5-1.1c0.6,0.6,1.2,1.1,1.8,1.7c0,0,0.1-0.1,0.1-0.1c-0.5-0.6-1-1.2-1.5-1.8c-0.1-0.1-0.2-0.3-0.1-0.5
					c0.7-1.3,1.4-2.7,2.4-3.8c0,0,0.1-0.1,0.1-0.2c0,0-0.1-0.1-0.1-0.1c-0.5,0.6-1,1.2-1.5,1.9c-0.5,0.7-0.8,1.4-1.3,2.1
					c-0.7-0.7-1.3-1.4-2.2-1.9c0,0.1,0.1,0.2,0.2,0.3c0.6,0.6,1.1,1.2,1.7,1.9c0.1,0.1,0.2,0.3,0.2,0.4c-0.1,0.4-0.3,0.8-0.5,1.2
					c-0.2-0.1-0.4-0.2-0.6-0.2c0.1,0.2,0.2,0.3,0.2,0.4c0.1,0.1,0.1,0.3,0.1,0.4c-1.2,3.3-1.7,6.7-1.9,10.1c-0.2,3.3-0.1,6.7,0.3,10
					c0.5,4,1.4,8,2.9,11.8c0,0.1,0.1,0.2,0.1,0.3c-0.5,0.3-1.1,0.5-1.5,1c0,0,0,0.1,0.1,0.1c0.5-0.2,1.1-0.4,1.6-0.6
					c0.1,0.2,0.2,0.4,0.3,0.7c-0.4,0.2-0.7,0.5-1.1,0.7c0,0,0,0,0,0.1c0.4-0.1,0.8-0.3,1.2-0.4c1.1,2.4,2.4,4.7,4,6.8
					c-0.6-1.1-1.3-2.3-1.9-3.4c-0.6-1.2-1.1-2.4-1.7-3.6C77.3,167.4,78,167.1,78.7,166.7 M88.3,145.2
					C88.2,145.2,88.2,145.2,88.3,145.2c-0.1-0.2-0.1-0.3-0.1-0.5c-0.4-1.5-0.8-3.1-1.6-4.4c-0.3-0.4-0.6-0.9-1-1.2
					c-0.7-0.6-1.6-0.6-2.3,0c0.2-0.1,0.4-0.1,0.5-0.2c0.7-0.2,1.4-0.1,1.8,0.5c0.3,0.4,0.7,0.9,0.9,1.4c0.6,1.3,1,2.6,1.3,4
					c0,0.2,0.2,0.4-0.3,0.5c0.4,0,0.4,0.2,0.5,0.4c0.1,0.3,0.1,0.6,0.2,1c0.1,0.5,0.1,0.5-0.4,0.7c-0.2,0.1-0.4,0.1-0.6,0.2
					c0,0.1,0,0.1,0,0.2c0.4,0,0.7,0,1.2-0.1c0,0.6,0.1,1.1,0.1,1.7c0.1,2.2,0,4.3-0.6,6.4c-0.4,1.3-0.9,2.5-1.8,3.4
					c-0.7,0.7-1.4,1.3-2.4,0.6c0.2,0.6,0.8,0.8,1.3,0.6c0.4-0.2,0.8-0.4,1.1-0.7c0.8-0.7,1.4-1.7,1.8-2.7c0.7-1.6,1-3.3,1-5.1
					c0-1.3-0.1-2.6-0.1-4c0-0.3,0-0.4,0.4-0.5c0.6-0.1,1.2-0.2,1.7-0.4c0.5-0.1,1.1-0.3,1.6-0.4l0-0.1c-1.3,0.2-2.5,0.3-3.8,0.5
					c-0.1-0.6-0.2-1.2-0.3-1.7c0.6-0.2,1.2-0.3,1.8-0.5c0.6-0.2,1.2-0.4,1.8-0.6c0.6-0.2,1.1-0.5,1.7-0.7c0,0,0-0.1,0-0.1
					C91.7,144.1,90,144.7,88.3,145.2 M84.1,142.9c0,0,0.1,0,0.1,0c-0.2-0.4-0.4-0.9-0.6-1.3c-0.2-0.3-0.5-0.3-0.7-0.1
					c-0.2,0.1-0.3,0.3-0.4,0.5c-0.2,0.5-0.4,0.9-0.5,1.4c-0.4,2-0.4,4-0.2,6c0.1,1.5,0.3,2.9,0.9,4.3c0.2,0.6,0.5,1.1,0.9,1.6
					c0.5,0.6,1.7,0.6,2.3,0c-0.2,0-0.3,0.1-0.4,0.1c-0.8,0.2-1.5-0.1-1.9-0.8c-0.2-0.4-0.4-0.7-0.5-1.1c-0.9-3.2-1.2-6.4-0.7-9.7
					c0.1-0.6,0.3-1.1,0.5-1.7c0.2-0.5,0.5-0.5,0.8,0C83.8,142.3,84,142.6,84.1,142.9 M85.7,148c-0.1-0.1-0.2-0.4-0.3-0.4
					c-0.3-0.1-0.4,0.2-0.4,0.4c-0.1,0.4-0.1,0.7-0.1,1.1c0,0.1,0.1,0.2,0.2,0.4c0.1-0.1,0.3-0.1,0.3-0.3
					C85.5,148.8,85.5,148.4,85.7,148"/>
				<path class="st25" d="M144.7,96.1c-0.1,0.7-0.1,1.3-0.2,2c-0.1,0.8-0.2,1.6-0.4,2.4c0,0.2-0.1,0.5-0.3,0.6
					c-0.9,0.9-1.6,1.9-2.1,3.1c-0.1,0.2-0.3,0.5-0.5,0.7c-0.2,0.3-0.4,0.5-0.6,0.8c-0.4,0.6-0.3,1,0.4,1.3c0.4,0.1,0.8,0.2,1.2,0.3
					c0,0.1,0,0.2,0,0.2c-0.7,3.1-1.7,6.2-2.7,9.2c-0.7,2.1-3.1,3.9-5.5,3.9c-1.5,0-3-0.3-4.4-0.9c-0.9-0.4-1.6-1-2.1-1.9
					c-0.2-0.2-0.2-0.4,0.1-0.6c1.1-0.9,2.2-1.9,3.3-2.8c1.5-1.2,2.8-2.5,3.6-4.3c0.7-1.5,1-3.1,1.3-4.7c0.4-2.4,0.9-4.8,1.4-7.3
					c0.1-0.4,0.2-0.9,0.4-1.3c0.1-0.2,0.3-0.4,0.5-0.4c2.1-0.2,4.2-0.4,6.3-0.6C144.6,96.1,144.7,96.1,144.7,96.1 M129.7,116.8
					c0.7,1.1,3.6,1.9,5.4,1.4c1.5-0.4,3.2-1.7,3.2-2.6C135.8,118.4,132.9,118.6,129.7,116.8 M135.7,114.8c0,0.1,0,0.1,0,0.2
					c0.2,0,0.4,0,0.6-0.1c0.8-0.4,1.5-1,1.9-1.7c0.7-1.1,1.1-2.4,1.2-3.7c0-0.6,0-1.2,0-1.7c-0.2,0.7-0.3,1.4-0.4,2
					c-0.2,1-0.5,2-1,2.9C137.6,113.6,136.8,114.4,135.7,114.8"/>
				<path class="st27" d="M147.3,102.8c0.3-1.1,0.6-2,0.9-3c0,0-0.1,0-0.1,0c-0.2,0.3-0.3,0.5-0.5,0.8c-0.4,0.7-0.8,1.5-0.9,2.3
					c0,0.1-0.1,0.2-0.2,0.2c-1.4,0.6-2.7,1.3-4.1,1.9c0,0,0,0-0.1-0.1c0-0.1,0.1-0.2,0.1-0.3c0.8-1.9,2.2-3.3,3.9-4.5
					c2.9-2.1,6.2-3.4,9.7-4.2c0.5-0.1,1-0.2,1.6-0.4c0,0.3,0.1,0.5,0.1,0.7c0,1.3,0,2.5-0.1,3.8c-0.1,1.7-1.1,3-2.5,4
					c-1.3,0.9-2.7,1.4-4.2,1.7c-2.3,0.5-4.7,0.7-7,0.6c-0.6,0-1.3-0.2-1.9-0.2c0,0,0-0.1,0-0.1c0.1-0.1,0.2-0.2,0.3-0.3
					c0.8-0.3,1.6-0.6,2.4-0.9c0.1,0,0.2-0.1,0.3,0c1.7,0.4,3.4,0.2,5.1-0.2c0.3-0.1,0.6-0.1,0.9-0.3H146c0,0,0,0,0-0.1
					c0.2-0.1,0.4-0.2,0.6-0.3c1.5-0.8,3-1.4,4.7-1.6c1.2-0.1,2.3-0.5,3.4-0.8c0.1,0,0.2-0.1,0.3-0.2c-1.5,0.2-3.1,0.4-4.7,0.6
					c1.4-0.9,2.6-2,3.6-3.3C151.7,100.2,149.6,101.6,147.3,102.8"/>
				<path class="st24" d="M158.6,143.2c-5.3,1.3-10.6,2.1-16,2.8C147.9,144.7,153.2,143.8,158.6,143.2"/>
				<path class="st24" d="M146.9,139c5.4-1.1,10.9-2.2,16.3-3.3c0,0,0,0.1,0,0.1c-0.8,0.2-1.6,0.4-2.4,0.6c-3.5,0.8-7,1.6-10.5,2.3
					c-1,0.2-2.1,0.3-3.1,0.4C147.1,139.2,147,139.1,146.9,139C146.9,139.1,146.9,139,146.9,139"/>
				<path class="st24" d="M170.6,124.5c-4,0.9-13.3,1.9-14.8,1.6c4.9-0.6,9.9-1.1,14.8-1.7C170.6,124.4,170.6,124.5,170.6,124.5"/>
				<path class="st24" d="M115.3,126.9c7.1-1.3,14.2-2.6,21.3-3.9c0,0,0,0.1,0,0.1C129.6,124.6,122.5,126,115.3,126.9
					C115.4,127,115.3,126.9,115.3,126.9"/>
				<path class="st24" d="M146.8,162.5c4.3-1.1,8.7-1.6,13.1-2.1C159.2,160.7,147.7,162.6,146.8,162.5"/>
				<path class="st24" d="M114.4,167c3.3-0.9,6.7-1.4,10.1-1.8c-3.3,0.9-6.6,1.6-10,1.9L114.4,167z"/>
				<path class="st24" d="M119.8,139.8c-1.5,0.6-12.1,2.9-13.6,2.9C110.7,141.6,115.3,140.6,119.8,139.8"/>
				<path class="st24" d="M144.3,133.4c-3.6,0.8-7.1,1.8-10.7,2C134,135.1,143.2,133.4,144.3,133.4"/>
				<path class="st24" d="M110.4,150.8c3.3-1,6.7-1.5,10.1-2C119.9,149.2,111.2,150.9,110.4,150.8"/>
				<path class="st24" d="M170.2,116.5c3.3-0.9,6.6-1.5,10-1.9c0,0,0,0.1,0,0.1c-3.3,0.7-6.6,1.3-10,2
					C170.3,116.6,170.2,116.5,170.2,116.5"/>
				<path class="st24" d="M176.1,132.6c3.2-0.9,6.5-1.4,9.8-1.9C182.6,131.5,179.4,132.4,176.1,132.6"/>
				<path class="st24" d="M175.8,136.5c2.6-0.7,5.3-1.1,8-1.4C181.2,135.8,178.6,136.4,175.8,136.5"/>
				<path class="st24" d="M157,163.9c-2.6,0.6-5.2,0.9-7.8,1.2C151.8,164.5,154.4,164.1,157,163.9"/>
				<path class="st24" d="M158.5,129c2.3-0.6,4.6-0.9,6.9-1.2C164.8,128.2,159.3,129.1,158.5,129"/>
				<path class="st24" d="M183.1,155.8c-1.7,0.1-3.3,0.4-5,0.1C179.8,155.6,181.4,155.8,183.1,155.8"/>
				<path class="st24" d="M111.9,152.7c1.9-0.2,3.8-0.3,5.7-0.5c0,0,0,0.1,0,0.1c-1.9,0.2-3.8,0.6-5.7,0.5
					C111.9,152.8,111.9,152.7,111.9,152.7"/>
				<path class="st24" d="M127.5,130.3c-1.9,0.4-3.8,0.7-5.8,1.1c0-0.1,0-0.1,0-0.2l5.8-1.1C127.5,130.3,127.5,130.3,127.5,130.3"/>
				<path class="st24" d="M78.7,166.7c-0.7,0.4-1.4,0.7-2.2,1.1c0.6,1.2,1.1,2.4,1.7,3.6c0.6,1.2,1.3,2.3,1.9,3.4
					c-1.6-2.1-2.9-4.4-4-6.8c-0.4,0.1-0.8,0.3-1.2,0.4c0,0,0,0,0-0.1c0.3-0.2,0.7-0.4,1.1-0.7c-0.1-0.2-0.2-0.4-0.3-0.7
					c-0.6,0.2-1.1,0.4-1.6,0.6c0,0,0-0.1-0.1-0.1c0.4-0.5,0.9-0.6,1.5-1c0-0.1-0.1-0.2-0.1-0.3c-1.5-3.8-2.4-7.8-2.9-11.8
					c-0.4-3.3-0.5-6.7-0.3-10c0.2-3.5,0.7-6.9,1.9-10.1c0-0.1,0-0.3-0.1-0.4c-0.1-0.1-0.2-0.2-0.2-0.4c0.2,0.1,0.4,0.1,0.6,0.2
					c0.2-0.4,0.4-0.8,0.5-1.2c0-0.1-0.1-0.3-0.2-0.4c-0.5-0.6-1.1-1.2-1.7-1.9c-0.1-0.1-0.1-0.2-0.2-0.3c0.9,0.5,1.5,1.2,2.2,1.9
					c0.4-0.7,0.8-1.4,1.3-2.1c0.5-0.7,1-1.3,1.5-1.9c0,0,0.1,0.1,0.1,0.1c0,0.1,0,0.1-0.1,0.2c-1,1.2-1.7,2.5-2.4,3.8
					c-0.1,0.2,0,0.3,0.1,0.5c0.5,0.6,1,1.2,1.5,1.8c0,0-0.1,0.1-0.1,0.1c-0.6-0.5-1.2-1.1-1.8-1.7c-0.2,0.4-0.3,0.8-0.5,1.1
					c0,0,0,0.1,0.1,0.2c0.9,0.9,1.9,1.9,2.8,2.8c0-0.1,0.1-0.2,0.1-0.3c0.4-1.6,0.8-3.2,1.6-4.6c0.3-0.6,0.8-1.2,1.3-1.7
					c1.1-1,2.4-0.9,3.4,0.1c0.7,0.7,1.3,1.4,1.7,2.3c-0.1-0.1-0.1-0.1-0.2-0.2c-0.5-0.6-1-1.3-1.6-1.8c-1-0.9-2.2-0.9-3.2,0.1
					c-0.6,0.6-1,1.4-1.4,2.1c-0.6,1.4-1,2.9-1.3,4.4c0,0.1,0,0.3,0.1,0.4c0.1,0.2,0.3,0.4,0.3,0.6c-0.2-0.1-0.3-0.2-0.5-0.4
					c-0.1,0.6-0.2,1.2-0.3,1.8c-0.4,3.3-0.5,6.7-0.3,10c0.3,5.7,1.1,11.4,2.8,16.9c0.4,1.4,1,2.7,1.6,4.1c0.2,0.5,0.6,1,0.9,1.4
					c0.7,0.9,1.6,1,2.5,0.2c0.6-0.5,1-1.1,1.4-1.7c1.1-1.8,1.8-3.7,2.4-5.8c0.7-2.6,1.1-5.3,1.6-7.9c0.2-1.2,0.4-2.5,0.7-3.7
					c-0.1,0.8-0.2,1.5-0.2,2.3c-0.3,2.6-0.6,5.2-1.1,7.8c-0.5,2.4-1.3,4.7-2.4,6.9c-0.4,0.8-0.9,1.6-1.6,2.3
					c-0.4,0.4-0.9,0.8-1.5,0.9c-0.9,0.2-1.6-0.2-2.1-0.9c-0.5-0.7-1-1.4-1.3-2.2c-1.1-2.3-1.7-4.8-2.3-7.3
					c-0.8-3.6-1.3-7.3-1.6-10.9c-0.2-2.8-0.3-5.7-0.2-8.5c0.1-1.9,0.4-3.8,0.6-5.7c0-0.3,0-0.5-0.2-0.7c-0.8-0.8-1.6-1.6-2.4-2.4
					c-0.1-0.1-0.2-0.2-0.4-0.4c-0.1,0.2-0.1,0.3-0.2,0.5c-0.7,2.1-1.1,4.2-1.3,6.3c-0.3,3-0.4,6-0.3,9c0.2,4.1,0.8,8.1,2,12.1
					c0.4,1.2,0.8,2.5,1.2,3.7c0,0.1,0.1,0.2,0.1,0.3c0.8-0.3,1.6-0.7,2.3-1c0,0,0,0.1,0.1,0.1c-0.7,0.4-1.5,0.9-2.2,1.3
					c0.1,0.2,0.2,0.4,0.2,0.6c0.8-0.3,1.5-0.5,2.3-0.8C78.7,166.6,78.7,166.7,78.7,166.7"/>
				<path class="st24" d="M88.3,145.2c1.7-0.6,3.5-1.1,5.2-1.7c0,0,0,0.1,0,0.1c-0.5,0.2-1.1,0.5-1.7,0.7c-0.6,0.2-1.2,0.5-1.8,0.6
					c-0.6,0.2-1.2,0.3-1.8,0.5c0.1,0.6,0.2,1.2,0.3,1.7c1.3-0.2,2.5-0.3,3.8-0.5l0,0.1c-0.5,0.1-1.1,0.3-1.6,0.4
					c-0.6,0.1-1.2,0.3-1.7,0.4c-0.3,0.1-0.4,0.2-0.4,0.5c0.1,1.3,0.2,2.6,0.1,4c0,1.7-0.4,3.5-1,5.1c-0.4,1-0.9,2-1.8,2.7
					c-0.3,0.3-0.7,0.5-1.1,0.7c-0.6,0.2-1.1,0-1.3-0.6c1.1,0.7,1.8,0.1,2.4-0.6c0.9-1,1.5-2.2,1.8-3.4c0.6-2.1,0.8-4.2,0.6-6.4
					c0-0.6-0.1-1.1-0.1-1.7c-0.4,0-0.8,0-1.2,0.1c0-0.1,0-0.1,0-0.2c0.2-0.1,0.4-0.2,0.6-0.2c0.5-0.1,0.5-0.1,0.4-0.7
					c-0.1-0.3-0.1-0.6-0.2-1c0-0.2,0-0.5-0.5-0.4c0.4-0.1,0.3-0.3,0.3-0.5c-0.3-1.4-0.7-2.7-1.3-4c-0.3-0.5-0.6-1-0.9-1.4
					c-0.5-0.6-1.1-0.7-1.8-0.5c-0.1,0-0.3,0.1-0.5,0.2c0.7-0.6,1.7-0.6,2.3,0c0.4,0.3,0.7,0.8,1,1.2c0.8,1.4,1.2,2.9,1.6,4.4
					C88.2,144.9,88.2,145,88.3,145.2C88.2,145.2,88.2,145.2,88.3,145.2"/>
				<path class="st24" d="M84.1,142.9c-0.1-0.3-0.3-0.6-0.4-0.9c-0.3-0.5-0.6-0.5-0.8,0c-0.2,0.5-0.4,1.1-0.5,1.7
					c-0.5,3.3-0.3,6.5,0.7,9.7c0.1,0.4,0.3,0.8,0.5,1.1c0.4,0.7,1.1,1,1.9,0.8c0.1,0,0.2-0.1,0.4-0.1c-0.6,0.6-1.8,0.6-2.3,0
					c-0.4-0.5-0.7-1-0.9-1.6c-0.5-1.4-0.7-2.8-0.9-4.3c-0.2-2-0.2-4,0.2-6c0.1-0.5,0.3-0.9,0.5-1.4c0.1-0.2,0.2-0.4,0.4-0.5
					c0.3-0.2,0.6-0.2,0.7,0.1c0.2,0.4,0.4,0.9,0.6,1.3C84.2,142.9,84.2,142.9,84.1,142.9"/>
				<path class="st24" d="M85.7,148c-0.1,0.5-0.2,0.8-0.3,1.2c0,0.1-0.2,0.2-0.3,0.3c-0.1-0.1-0.2-0.2-0.2-0.4
					c0-0.4,0.1-0.7,0.1-1.1c0-0.2,0.2-0.5,0.4-0.4C85.5,147.6,85.6,147.8,85.7,148"/>
				<path class="st24" d="M129.7,116.8c3.2,1.7,6.1,1.6,8.7-1.2c0,0.9-1.7,2.2-3.2,2.6C133.3,118.7,130.4,118,129.7,116.8"/>
				<path class="st24" d="M135.7,114.8c1.1-0.4,1.9-1.2,2.4-2.2c0.5-0.9,0.8-1.9,1-2.9c0.1-0.7,0.3-1.4,0.4-2c0,0.6,0,1.2,0,1.7
					c-0.1,1.3-0.5,2.6-1.2,3.7c-0.5,0.7-1.1,1.4-1.9,1.7c-0.2,0.1-0.4,0.1-0.6,0.1C135.7,114.9,135.7,114.9,135.7,114.8"/>
			</g>
		</g>
	</g>
</g>
</svg>
