<?xml version="1.0" encoding="utf-8"?>
<!-- Generator: Adobe Illustrator 22.1.0, SVG Export Plug-In . SVG Version: 6.00 Build 0)  -->
<svg version="1.1" id="A1" xmlns="http://www.w3.org/2000/svg" xmlns:xlink="http://www.w3.org/1999/xlink" x="0px" y="0px"
	 viewBox="0 0 690 500" style="enable-background:new 0 0 690 500;" xml:space="preserve">
<style type="text/css">
	.st0{clip-path:url(#SVGID_2_);fill:#86B7AE;}
	.st1{clip-path:url(#SVGID_2_);fill:#FFD79C;}
	.st2{clip-path:url(#SVGID_2_);fill:#2E516D;}
	.st3{clip-path:url(#SVGID_2_);fill:none;stroke:#000000;stroke-width:1.7621;stroke-miterlimit:10;}
	.st4{clip-path:url(#SVGID_2_);fill:#6C7A7A;}
	.st5{clip-path:url(#SVGID_2_);}
	.st6{clip-path:url(#SVGID_4_);fill:none;stroke:#000000;stroke-width:1.7621;stroke-miterlimit:10;}
	.st7{clip-path:url(#SVGID_2_);fill:#AA8B83;}
	.st8{clip-path:url(#SVGID_2_);fill:#FCDFD4;}
	.st9{clip-path:url(#SVGID_2_);fill:#9C9B99;}
	.st10{clip-path:url(#SVGID_2_);fill:#CDBED1;}
	.st11{clip-path:url(#SVGID_2_);fill:#E6E6E6;}
	.st12{clip-path:url(#SVGID_2_);fill:#B6B8B5;}
	.st13{clip-path:url(#SVGID_6_);fill:#4F514C;}
	.st14{clip-path:url(#SVGID_6_);fill:none;stroke:#000000;stroke-width:1.7621;stroke-miterlimit:10;}
	.st15{clip-path:url(#SVGID_6_);fill:#D3B1A7;}
	.st16{clip-path:url(#SVGID_6_);fill:#AA8B83;}
	.st17{clip-path:url(#SVGID_6_);fill:#FDFDFD;}
	.st18{clip-path:url(#SVGID_6_);fill:#F16A57;}
	.st19{clip-path:url(#SVGID_6_);fill:#2E516D;}
	.st20{clip-path:url(#SVGID_6_);fill:#2E4241;}
</style>
<g>
	<g>
		<defs>
			<rect id="SVGID_1_" x="0" width="690" height="500"/>
		</defs>
		<clipPath id="SVGID_2_">
			<use xlink:href="#SVGID_1_"  style="overflow:visible;"/>
		</clipPath>
		<rect x="0" class="st0" width="690" height="417"/>
		<rect x="31.4" y="39.3" class="st1" width="627.2" height="379"/>
		<rect x="566.8" y="248" class="st2" width="22.8" height="5.3"/>
		<rect x="566.8" y="248" class="st3" width="22.8" height="5.3"/>
		<rect x="566.8" y="170.5" class="st2" width="22.8" height="5.3"/>
		<rect x="566.8" y="170.5" class="st3" width="22.8" height="5.3"/>
		<rect x="0" y="417" class="st4" width="690" height="83"/>
		<g class="st5">
			<defs>
				<rect id="SVGID_3_" x="0" width="690" height="500"/>
			</defs>
			<clipPath id="SVGID_4_">
				<use xlink:href="#SVGID_3_"  style="overflow:visible;"/>
			</clipPath>
			<rect x="-30.7" y="417" class="st6" width="752.1" height="95.3"/>
		</g>
		<rect x="48.5" y="382.9" class="st7" width="547.3" height="34.2"/>
		<rect x="48.5" y="382.9" class="st3" width="547.3" height="34.2"/>
		<rect x="71.9" y="85.8" class="st8" width="500.6" height="302.5"/>
		<rect x="71.9" y="85.8" class="st3" width="500.6" height="302.5"/>
		<rect x="109.3" y="149" class="st4" width="279.6" height="174.3"/>
		<rect x="364.1" y="142.4" class="st9" width="28.7" height="180.8"/>
		<rect x="275.5" y="142.4" class="st9" width="28.7" height="180.8"/>
		<rect x="186.9" y="142.4" class="st9" width="28.7" height="180.8"/>
		<rect x="98.3" y="142.4" class="st9" width="28.7" height="180.8"/>
		<path class="st10" d="M93.5,325.1h302.5V142.8H93.5V325.1z M103.6,148.8h282.3v170.2H103.6V148.8z"/>
		<path class="st3" d="M93.5,325.1h302.5V142.8H93.5V325.1z M103.6,148.8h282.3v170.2H103.6V148.8z"/>
		<rect x="415.6" y="159.5" class="st11" width="139.5" height="258.7"/>
		<rect x="415.6" y="159.5" class="st3" width="139.5" height="258.7"/>
		<rect x="438.8" y="355.6" class="st12" width="95.7" height="35.6"/>
		<rect x="438.8" y="355.6" class="st3" width="95.7" height="35.6"/>
		<rect x="438.8" y="179.2" class="st4" width="95.7" height="152.1"/>
		<rect x="438.8" y="179.2" class="st3" width="95.7" height="152.1"/>
		<g class="st5">
			<defs>
				<rect id="SVGID_5_" x="0" width="690" height="500"/>
			</defs>
			<clipPath id="SVGID_6_">
				<use xlink:href="#SVGID_5_"  style="overflow:visible;"/>
			</clipPath>
			<path class="st13" d="M419.8,328.5c0,3.2,3.5,5.7,7.9,5.7c4.4,0,7.9-2.6,7.9-5.7c0-3.2-3.5-5.7-7.9-5.7
				C423.3,322.8,419.8,325.4,419.8,328.5"/>
			<path class="st14" d="M419.8,328.5c0,3.2,3.5,5.7,7.9,5.7c4.4,0,7.9-2.6,7.9-5.7c0-3.2-3.5-5.7-7.9-5.7
				C423.3,322.8,419.8,325.4,419.8,328.5z"/>
			<rect x="278.3" y="342.5" class="st15" width="113.4" height="35.6"/>
			<rect x="278.3" y="342.5" class="st14" width="113.4" height="35.6"/>
			<rect x="97.6" y="342.5" class="st15" width="113.4" height="35.6"/>
			<rect x="97.6" y="342.5" class="st14" width="113.4" height="35.6"/>
			<rect x="415.6" y="130.6" class="st15" width="139.5" height="35.6"/>
			<rect x="415.6" y="130.6" class="st14" width="139.5" height="35.6"/>
			<rect x="48.5" y="80.6" class="st16" width="547.3" height="34.2"/>
			<rect x="48.5" y="80.6" class="st14" width="547.3" height="34.2"/>
			<polygon class="st17" points="586.5,159.5 631.7,145.1 586.5,145 			"/>
			<polygon class="st18" points="586.5,173 586.5,159.6 631.6,145 635.8,145.5 635.7,156.8 			"/>
			<polygon class="st17" points="586.5,186.1 586.5,173.2 635.7,156.8 635.7,169.8 			"/>
			<polygon class="st17" points="586.5,212 586.5,199.1 635.7,182.7 635.7,195.7 			"/>
			<polygon class="st19" points="586.5,199.1 586.5,186.1 635.7,169.8 635.7,182.7 			"/>
			<polygon class="st18" points="586.5,225 586.5,212 635.7,195.7 635.7,208.6 			"/>
			<polygon class="st17" points="586.5,237.9 586.5,225 635.7,208.6 635.7,221.6 			"/>
			<polygon class="st17" points="586.5,261.6 586.5,250.9 635.7,234.6 635.7,247.5 592.7,261.6 			"/>
			<polygon class="st19" points="586.5,250.9 586.5,237.9 635.7,221.6 635.7,234.6 			"/>
			<polygon class="st18" points="635.8,261.6 635.7,248.1 592.7,261.6 			"/>
			<path class="st19" d="M634.7,137.7c-0.4-10.3-10.8-18.6-23.6-18.6s-23.2,8.3-23.6,18.6h-8v7.3h9.5h44.1h9.5v-7.3H634.7z"/>
			<path class="st14" d="M634.7,137.7c-0.4-10.3-10.8-18.6-23.6-18.6s-23.2,8.3-23.6,18.6h-8v7.3h9.5h44.1h9.5v-7.3H634.7z"/>
			<path class="st19" d="M587.6,268.9c0.4,10.3,10.8,18.6,23.6,18.6s23.2-8.3,23.6-18.6h8v-7.3h-9.5h-44.1h-9.5v7.3H587.6z"/>
			<path class="st14" d="M587.6,268.9c0.4,10.3,10.8,18.6,23.6,18.6s23.2-8.3,23.6-18.6h8v-7.3h-9.5h-44.1h-9.5v7.3H587.6z"/>
			<rect x="586.5" y="145" class="st14" width="49.3" height="116.6"/>
			<path class="st20" d="M322.2,256.5c0-3.3,0-6.6,0-9.8c0-1.4,0.1-2.7-0.1-4.1c-0.1-0.6-0.9-1.1-1.4-1.6c-0.6,0.6-1.6,1.1-1.6,1.7
				c-0.2,3.8-0.1,7.6-0.1,11.4c0,0.9-0.1,1.9-0.2,2.8c-0.3,0-0.7,0-1,0c-0.1-0.7-0.3-1.5-0.3-2.2c0-6.4,0-12.8-0.1-19.2
				c0-2.2,0.6-3.8,3.9-4.9c9.1-2.9,12.8-11.5,7.7-17.2c-3-3.3-1.7-6.3,2.2-8.3c3.8-1.9,9.5-1.5,12.7,0.9c2.5,2,3.1,4.2,1.4,6.7
				c-5.5,8.2-2.5,14.5,8.7,18.5c1,0.4,2.3,1.4,2.3,2.1c0.2,7.7,0.1,15.4,0.1,23c0,0.2-0.3,0.4-1.3,0.5v-6.3c0-2.1,0.2-4.2-0.1-6.2
				c-0.2-1.2-1.1-2.3-1.6-3.4c-0.5,1.1-1.4,2.2-1.4,3.3c-0.2,3.4-0.1,6.9-0.1,10.3c0,0.8-0.2,1.6-0.4,2.5l-1,0
				c-0.1-1.3-0.2-2.6-0.2-3.9c0-3.4,0-6.9-0.1-10.3c0-0.6-1-1.2-1.6-1.8c-0.5,0.6-1.4,1.2-1.5,1.9c-0.2,3.6-0.1,7.2-0.1,10.8
				c0,0.9-0.1,1.9-0.2,2.8c-0.4,0-0.8,0-1.2,0c0-2.1,0-4.1,0-6.2c0-2.4,0.1-4.9-0.1-7.3c-0.1-0.7-1.1-1.3-1.7-2
				c-0.5,0.6-1.3,1.3-1.4,1.9c-0.1,3.7-0.1,7.4-0.1,11.1c0,0.8-0.1,1.7-0.2,2.5c-0.4,0-0.8,0-1.2,0c0-2.8,0-5.6,0-8.4
				c0-1.8,0.1-3.6-0.1-5.4c-0.1-0.6-0.9-1.1-1.4-1.7c-0.6,0.6-1.6,1.1-1.6,1.7c-0.2,4.2-0.1,8.3-0.1,12.5c0,0.4-0.2,0.9-1,1.4
				c-0.1-0.7-0.4-1.4-0.4-2.1c0-3.8,0.1-7.6-0.1-11.4c0-0.7-0.9-1.4-1.5-2.2c-0.6,0.7-1.8,1.4-1.8,2.2c-0.2,3.7-0.1,7.4-0.1,11.1
				c0,0.9-0.1,1.7-1,2.7c-0.2-0.6-0.4-1.2-0.4-1.9c0-3.8,0.1-7.6-0.1-11.4c0-0.9-1-1.8-1.5-2.7c-0.6,0.9-1.5,1.7-1.6,2.6
				c-0.2,3.3-0.1,6.7-0.1,10c0,1,0,1.9,0,2.9c-0.3,0-0.6,0.1-0.9,0.1c-0.2-0.6-0.4-1.2-0.4-1.8c0-3.3,0.1-6.7-0.1-10
				c-0.1-1.3-0.9-2.5-1.4-3.8c-0.6,1.3-1.5,2.6-1.6,3.9c-0.2,3.9-0.1,7.7-0.1,11.6C323.2,256.5,322.7,256.5,322.2,256.5
				 M336.7,207.1c-1.4,1.6-3.1,2.6-2.9,3.4c0.2,0.9,2.1,2.1,3.3,2.1c1.1,0,2.9-1.4,3-2.3C340.1,209.5,338.3,208.6,336.7,207.1"/>
			<path class="st20" d="M171.2,221.6c1.4,0.9,2.8,1.8,4.2,2.7c16.8,11.3,36.1,9.1,50.4-6.1c4.3-4.6,8.3-7.2,13.9-3.9
				c0.7,0.4,1.8,0.8,2.3,0.5c7.3-5,11.8,0.4,17,5.4c14,13.7,33.6,15,49.1,3.7c1.4-1,2.7-2.1,4.5-3.4c-8.7,30-42.7,35.5-71.4,11.7
				c-12.4,13.6-27.1,19.2-44.1,14.2C185.5,242.9,176.7,234.7,171.2,221.6"/>
			<path class="st20" d="M170,254.4c-6-3-9.1-7.1-10-12c-1.3-6.6-2.5-13.2-2.6-19.8l0.2,0l1.3-36.9l-5.7,35.4h-0.6l-9-35.4l4.7,34.2
				l0.2,3.1l-0.2,6.1h0.1c0,2.4-0.1,4.7-0.2,7c-0.2,7.4-1.7,14.7-11.5,19.3c-1,0.5-1.7,1.3-2.4,2.1c-2.7,3.2-2.2,7.3,1.2,9.8
				c3.1,2.2,6.6,2.5,10.4,0.9c4.3-1.8,7.1-6.2,5.3-9.2c-4.2-7.2-2.7-14.4-0.6-21.6c0.3-1.1,1.8-2,2.8-3c1.1,0.9,2.9,1.7,3.2,2.7
				c2.1,7,5.2,13.8,1.2,21.1c-2.4,4.3,1,8.3,6.8,10.4c2.2,0.8,3.7,2.7,5.2,4.2c0.7,0.7,0.9,1.8,1.4,2.6c0.4-0.1,0.9-0.2,1.3-0.3
				c-0.4-1.1-1.2-2.3-1.2-3.4c0-1.4,0.2-3.2,1.2-4.2C177.6,262.5,177.2,258,170,254.4 M149.6,261.1c0.1,3.3-3.6,6.4-7.7,6.4
				c-4,0-7.4-2.9-7.4-6.1c0-3.2,3.5-6.1,7.4-6.2C145.9,255.1,149.5,257.9,149.6,261.1 M153.1,227.7c-1.5,0-2.8-0.9-2.8-2
				c0-1.1,1.2-2,2.8-2c1.5,0,2.8,0.9,2.8,2C155.9,226.8,154.7,227.7,153.1,227.7 M166.6,267.6c-4-0.1-7.6-3.2-7.5-6.6
				c0.1-3.4,3.3-6,7.5-6c4.1,0,7.8,2.9,7.9,6.3C174.4,264.8,170.7,267.7,166.6,267.6"/>
			<path class="st20" d="M186.9,187c16.1-8.6,36-13.8,57.6-13.8c21.6,0,41.5,5.1,57.6,13.8h17.6c-19.5-13.6-46-22-75.2-22
				s-55.7,8.4-75.2,22H186.9z"/>
			<path class="st20" d="M310.1,277.8c-17.3,11.5-40.3,18.5-65.6,18.5c-25.3,0-48.3-7-65.6-18.5h-15.9c19.9,16.4,49,26.8,81.5,26.8
				c32.5,0,61.6-10.4,81.5-26.8H310.1z"/>
		</g>
	</g>
</g>
</svg>
