<?xml version="1.0" encoding="utf-8"?>
<!-- Generator: Adobe Illustrator 22.1.0, SVG Export Plug-In . SVG Version: 6.00 Build 0)  -->
<svg version="1.1" id="Слой2_xA0_Изображение_1_"
	 xmlns="http://www.w3.org/2000/svg" xmlns:xlink="http://www.w3.org/1999/xlink" x="0px" y="0px" viewBox="0 0 552 768"
	 style="enable-background:new 0 0 552 768;" xml:space="preserve">
<style type="text/css">
	.st0{fill:#EC202B;}
	.st1{fill:#EDEDED;}
	.st2{fill:#C7C7C7;}
	.st3{fill:#D0D0D0;}
	.st4{fill:#FFE2C3;}
	.st5{fill:#393939;}
	.st6{fill:#C62128;}
	.st7{fill:#242424;}
	.st8{fill:#E1532A;}
	.st9{fill:#7C7C7C;}
	.st10{fill:#FFFFFF;}
	.st11{fill:#268CD6;}
</style>
<g>
	<path d="M279.8,700.7c0.6,5.2,0.4,10.3-0.7,15.4c-1.4,7.1-5.2,12.6-12,15.4c-14.3,6.1-29.1,10.7-44.5,13
		c-10.4,1.5-20.7,1.3-31.1-0.5c-5.7-1-10.5-3.8-14.4-8c-3.1-3.4-4.2-7.2-3.3-11.7c0.8-3.9,2.2-7.5,4.3-10.8
		c3.9-6.2,9.4-9.9,16.4-11.6c2.5-0.6,5-1.1,7.6-1.8c0.2-2.9,0.4-5.8,0.5-8.6c0.6-11.5-0.3-22.9-1.6-34.2c-2.4-20-4.9-40-5.6-60.2
		c-0.4-11.3-0.8-22.5-1.3-33.8c-0.5-11.5,0.7-22.8,4.1-33.9c0.8-2.6,1.4-5.4,2.1-8.3c-3.1-0.4-6-0.7-8.8-1.2
		c-9.8-1.7-19.7-3.4-29.5-5.3c-5-1-9.9-2.6-14.4-5.3c-1.7-1-3.2-2.3-4.7-3.7c-1-0.9-1.4-2.3-1.2-3.7c0.8-5.6,1.4-11.3,2.2-16.9
		c1.6-11.7,4.4-23.1,7.7-34.4c7-23.8,15.3-47.1,24.8-70c0.7-1.8,1.5-3.5,2.2-5.3c0.6-1.4,1.2-2.6,2.9-2.7c0-5.4,0-10.7,0-16
		c-0.9-0.4-1.6-0.7-2.3-0.9c-15.8-5.8-31.4-12.3-46.8-19.3c-1-0.5-2-0.9-3.2-0.6c-10.6,2.7-21.5,4-32.4,5
		c-16.7,1.5-33.5,2.5-50.3,2.7c-6.3,0.1-12.7,0.2-18.9-1.2c-2.5-0.6-4.9-1.5-7.2-2.5c-1.2-0.5-2.3-1.5-3.2-2.5
		c-1.7-1.9-2.1-4.1-1-6.4c1.2-2.6,3-4.7,5-6.6c6.6-6.3,14.2-10.8,22.7-14.1c4.6-1.8,9.3-3.4,14.2-5.1c-0.4-0.2-0.7-0.5-1.1-0.6
		c-6.1-2-8.1-6-6.1-12.1c0.3-0.8,0.3-1.7,0.3-2.6c-0.2-2.3,0.2-4.5,1.6-6.4c4-5.2,9.2-8.8,15.5-10.7c0.8-0.2,1.6-0.4,2.4-0.3
		c2.4,0.3,4.7,0,6.9-1.1c1-0.5,2.5-0.1,3.7,0.2c0.8,0.2,1.7,0.6,2.4,1.1c6.4,4,13.5,5.6,20.8,6.8c0.8,0.1,1.6,0.2,2.4,0.4
		c0.1,0,0.2,0,0.3-0.1c1.1-1.7,2.2-3.4,3.4-5.1c1.3-1.8,2.1-2,4-0.8c3.5,2.2,7.2,4.3,10.5,6.7c8.3,6.1,17.6,9.8,27.4,12.3
		c6.8,1.7,13.6,3.5,20.5,5c8.5,2,14.9,6.7,19.6,13.9c0.2,0.3,0.4,0.5,0.8,0.9c1.2-2.6,2.4-4.8,2-7.8c-1.2-8.3-3.5-16.3-6.2-24.1
		c-3-8.8-6-17.5-9.1-26.3c-1.1-3.2-1.7-6.5-1.3-9.9c0.4-3.4,1.5-6.5,3.7-9.2c5.4-6.6,12.1-11.3,20.2-14c2.6-0.8,5.2-1.4,8-2.2
		c0.3-2.2,1.7-3.8,3.7-5c-1.1-2.2-0.3-4.1,1.1-5.7c1.5-1.8,3.1-3.7,4.7-5.5c0.5-0.5,1.3-0.8,2-1.1c1-0.4,2-0.6,3-1
		c-0.1-0.7-0.2-1.2-0.2-1.7c-0.1-1.4-0.8-2-2.2-2.4c-5-1.3-9.6-3.5-13.7-6.8c-3.8-3-7.2-6.4-10-10.3c-0.8-1-1.6-1.6-2.9-1.6
		c-4.5-0.2-8.2-2.1-11-5.6c-1.7-2.3-3.1-4.8-4.5-7.3c-0.2-0.4,0.1-1.1,0.2-1.7c0.5,0.1,1.1,0.2,1.5,0.5c1.3,0.9,2.6,1.9,3.9,2.7
		c1.3,0.8,2.7,1.3,4.5,1c-1-4.4,0.4-8.4,1.2-12.6c1.5-7.7,1.8-15.6,1.8-23.4c0-0.3-0.1-0.6-0.3-1.1c-1,0.5-1.8,0.9-2.6,1.4
		c-5.7,3-11.7,4.7-18.2,4c-8.1-0.9-14.8-4.3-19.8-10.9c-0.9-1.2-1.8-2.5-1-4.3c1,0.1,2,0.1,3,0.2c3.7,0.6,7.4,0.9,11.2,0.3
		c2.9-0.5,5.5-1.6,7.9-3.3c1.3-1,2.6-1.9,3.9-2.9c3.8-2.8,7.9-4.1,12.6-3.2c0.2,0,0.5,0,0.9,0c0-0.9,0-1.7,0-2.6
		c-0.4-10.9-0.9-21.7-1.4-32.6c-0.1-1.7-0.2-3.4,0.1-5c0.6-3.3-0.7-5.9-2.9-8.2c-1-1-2-2.1-3-3.1c-2.2-2.1-4.9-3.2-7.9-3.6
		c-2-0.3-4.1-0.9-5.9-1.8c-3.3-1.5-4.9-4.4-4.5-8c0.2-2,0.8-4.1,1.6-6c2.2-4.7,5.5-8.6,9.5-11.9c5.1-4.1,10.8-4.4,16.8-2.8
		c2.5,0.7,4.9,1.9,7.3,3c2.5,1.2,4.8,2.6,7.3,3.7c4.3,1.9,8.9,2.5,13.6,2.3c2.5-0.1,4.7-0.9,6.6-2.5c4-3.2,8.4-5.6,13-7.6
		c8.1-3.4,16.3-3.4,24.6-0.8c2.6,0.8,4.9,2.1,6.5,4.3c2.5,3.5,5.9,4.9,10.1,5.2c3.2,0.2,6.4,0.3,9.6,0.6c5.7,0.5,9.7,3.5,12,8.7
		c2.5,5.8,3.8,11.9,3.2,18.2c-0.6,6.4-4.4,10.5-10.2,12.8c-2.6,1.1-5.4,1.4-8.2,1.3c-1.4-0.1-2.9-0.7-4.5-1.1c0,0-0.1,0.3-0.1,0.5
		c0.9,10.1,0.9,20.1,0.2,30.2c-0.1,1.3,0,2.4,0.8,3.6c3.2,4.9,4.2,10.3,3.2,16.1c-0.1,0.4-0.1,0.8-0.1,1.2c4.6,3.4,4.9,8.3,4.6,13.2
		c-0.3,6-3.2,10.6-8,14.1c-2.8,2.1-5.9,3.2-9.7,2.3c-0.2,2.5-0.8,4.9-0.5,7.2c0.7,5.4,1.8,10.7,2.7,16.1c0,0.2,0.2,0.4,0.3,0.6
		c1,0.1,2.1-0.1,2.7,0.4c0.7,0.6,1.1,1.7,1.5,2.6c0.4,0.9,0.6,1.8,0.8,2.8c0.5,2.1,1.8,3.3,3.9,3.8c0.8,0.2,1.5,0.4,2.3,0.6
		c1.7,0.4,3,1.2,3.9,2.8c0.8,1.5,2.2,2.8,3.4,4c0.5,0.5,1.5,0.5,2.2,0.5c6.9,0.4,13.7,1.1,20.4,2.7c3.8,0.9,7.5,2.1,11.3,3.3
		c2.7,0.8,5,2.4,7.1,4.4c7.6,7.3,14,15.6,19.6,24.5c4.7,7.4,9.2,15,13.8,22.5c1.3,2.1,2.7,4.1,4.1,6.3c1-0.6,1.8-1,2.5-1.5
		c11.7-7.4,22.5-15.9,32.9-24.8c1.2-1,2.3-2.1,4.1-1c0.7-1,1.5-1.9,2-2.8c3.3-5.8,6.5-11.5,9.8-17.3c1-1.8,1.2-3.6,0.8-5.6
		c-0.5-2-0.6-4,0.8-5.7c0.7-0.9,0.1-1.7-0.2-2.5c-1.6-4-3.3-8-4.8-12c-0.8-2.2-1.5-4.6-2-6.9c-0.8-4.1,0.9-7.4,3.8-10.1
		c1.2-1.2,2.3-1.1,3.2,0.4c1.3,2,2.4,4.1,3.4,6.3c1.7,3.9,3.2,7.8,5,12c2.5-2.2,5.3-2.3,8.2-1.9c0.9,0.1,1.7,0.3,2.6,0.6
		c1.3,0.4,1.9,1.3,1.9,2.7c0,1.5,0,3,0,4.8c0.8-0.6,1.4-1.1,2.1-1.5c0.8-0.5,1.6-1.1,2.4-1.5c2.3-1.1,4.1-0.6,5.2,1.7
		c1,2.1,1.7,4.3,2.4,6.5c0.9,3,1.7,6,2.5,9c0.6,2.1,0.6,4.2,0,6.4c-0.4,1.6-0.4,3.3-0.5,5c-0.1,2.9-0.4,5.8-2.8,7.9
		c-0.3,0.2-0.5,0.7-0.5,1c-0.4,2.5-1.6,4.5-3.4,6.3c10.3,17,20.5,34,30.8,51.1c1.1-1.1,2-2,2.9-2.9c5.6-5.7,12.6-8.7,20.2-10.3
		c4.1-0.9,8.2-1.2,12.4-0.6c5.5,0.9,9.4,3.8,11.4,9.1c0.8,2.2,1.3,4.4,1.5,6.8c0.2,3.5-0.8,6.5-3.1,9c-1.6,1.7-3.4,3.4-5.4,4.7
		c-5.3,3.5-11.2,6-17.5,6.7c-8.7,1-16.7-0.9-22.8-7.5c-3.6-3.8-6.9-8-9.8-12.4c-10.4-15.8-20.8-31.7-29.7-48.5
		c-0.1-0.2-0.3-0.4-0.5-0.7c-3,0.8-6.1,1.5-9.2,2.4c-0.4,0.1-0.8,0.5-1.1,0.8c-2.4,2.6-4.4,5.5-5.8,8.9c0.6,0.6,1.2,1.2,1.8,1.8
		c5.5,5.2,11.9,9.2,18.4,13c0.5,0.3,1,0.5,1.5,0.8c1,0.7,1.4,1.6,0.7,2.7c-0.5,0.9-1,1.8-1.7,2.6c-1.2,1.5-2.5,2.9-3.9,4.2
		c-9.5,8.7-19.3,17-29.8,24.5c-12.2,8.8-25.7,14.4-40.6,17c-4.8,0.8-4.2,0.8-7.3-2.2c-3-3-6.1-5.9-9.4-8.6
		c-7.2-6.2-14.6-12.2-21.9-18.3c-0.4-0.3-0.9-0.6-1.4-1c-0.3,12.1-0.3,24.1-0.9,36c-0.5,11.9-1.6,23.8-2.4,36.2
		c0.6-0.8,1-1.2,1.4-1.6c4-5.5,7.9-11.1,11.9-16.6c1.1-1.5,2.3-2.9,3.6-4.2c2.9-2.8,5.7-2.8,8.7-0.1c1.5,1.3,2.8,2.9,3.9,4.5
		c4.5,6.6,7.1,14.1,9.1,21.8c1.5,5.7,2.3,11.4,2.7,17.3c0.2,3.5,0.1,7-0.7,10.5c-0.2,0.9-0.5,1.9-0.9,2.7c-1.9,4.6-5.6,6.7-10.5,6.1
		c-3-0.4-5.9-1.5-8.6-2.9c-1.5-0.8-2.9-1.7-4.7-2.7c0.3,0.7,0.4,1.1,0.6,1.4c6.1,9.3,13.5,17.5,22.8,23.7c1.9,1.3,3.8,2.7,5.5,4.3
		c2.6,2.3,2.5,4.3-0.1,6.4c-4.8,3.9-10.1,4.9-15.9,2.4c-2.8-1.2-5.2-3.1-7.4-5.3c-3.4-3.3-6.2-7.1-8.7-11.1
		c-3.7-5.9-6.8-12.1-9.6-18.5c-0.3-0.7-0.7-1.4-1.4-2.1c0.5,2.7,1,5.3,1.6,8c5.1,24.9,10.4,49.8,15.4,74.7
		c2.8,13.9,4.9,27.9,7.5,41.8c1.1,6,2.3,12.1,4,18c1.1,3.8,3,7.4,4.9,10.9c4.9,8.8,10,17.5,15.1,26.2c10.7,17.9,22,35.3,34.4,52
		c2.4,3.3,5,6.5,7.5,9.6c5.4,6.6,11.1,12.8,17.5,18.4c3.8,3.3,3.8,4.5,0.6,8.4c-2.8,3.4-6.1,6.1-9.6,8.7c-0.7,0.5-1.4,1-2.2,1.6
		c0.4,0.8,0.7,1.4,1,2c5,9.8,5.4,19.8,1.2,29.9c-2.4,5.8-6.6,10.2-11.9,13.5c-9.3,5.8-19.4,9.4-30.1,11.3
		c-9.8,1.7-19.4,1.4-28.9-1.5c-2.4-0.8-4.8-1.8-7.1-2.8c-1.4-0.6-2.7-1.4-3.9-2.3c-4-3-5.1-6.5-3.4-11.2c1.3-3.6,3.3-6.7,5.8-9.6
		c0.5-0.6,1-1.2,1.8-2.1c-0.8-0.1-1.2-0.2-1.7-0.2c-2.3,0-4.6-0.1-7,0c-3,0-5-1.3-6-4.1c-1.8-4.8-3.8-9.5-5.4-14.3
		c-9.5-27.1-19.1-54.1-28.2-81.4c-4.9-14.7-8.8-29.7-13.3-44.6c-1.7-5.7-3.7-11.4-5.7-17.1c-1.2-3.5-1.7-7.1-2.1-10.8
		c-0.3-2.8-0.4-5.6-0.6-8.4c0-0.5-0.2-1.1-0.3-1.8c-1.9,0.3-3.7,0.7-5.5,0.9c-5.2,0.6-10.5,1.2-15.7,1.6c-1.6,0.1-2.4,0.6-3,2.1
		c-1.7,4.3-3.6,8.6-5.4,12.8c-0.7,1.6-0.6,3-0.2,4.6c9,30.3,18,60.7,26.1,91.3c3.9,14.7,6.1,29.7,7.1,44.9c0.3,4.7,0.3,9.4,0.6,14.1
		c0.2,2.7-1,4.2-3.4,5.1C285,698.8,282.5,699.7,279.8,700.7z M182.3,376c-0.4,0.7-0.7,1.4-1,2c-9.8,23.4-18.5,47.2-25.7,71.5
		c-3.5,11.7-6.4,23.6-8.2,35.7c-0.7,5-1,10-1.9,15c-0.4,2.4,0.2,3.9,2.1,5c1.5,0.9,3,1.9,4.6,2.5c2.8,1.1,5.7,2.3,8.6,2.9
		c6.8,1.5,13.6,2.9,20.5,4.1c12.6,2.2,25.3,3.7,38.1,4.6c13,0.9,26,1,39.1,0.6c21.5-0.7,42.2-4.9,62.2-12.6c1.7-0.7,3.3-1.5,5-2.3
		c1.7-0.8,2.4-2,2.4-3.9c0.3-10.6,0.7-21.1,1.1-31.7c0.9-25.7,1.9-51.5,2.9-77.2c0.1-2.3,0-4.6,0.1-6.9c0.2-6,0.6-12,0.8-18
		c0-0.6-0.1-1.2-0.1-1.9c-2.6,1-4.9,2.1-7.3,2.9c-2.4,0.9-4.9,1.6-7.3,2.3c-23.6,6.1-47.7,9.2-72,10.6c-19.7,1.1-39.2-0.1-58.4-4.3
		C186,376.5,184.2,376.3,182.3,376z M337.6,261.3c0-0.2,0-0.4,0.1-0.6c0.7,0,1.4,0.1,2.1,0.1c4.1,0.2,8.1,0.4,12.2,0.5
		c3.9,0.1,7.7-0.7,11.1-2.6c1.2-0.7,2.4-1.6,3.4-2.6c1.4-1.4,1.4-2.2,0.3-3.8c-4.5-7.3-9-14.7-13.7-22c-4.7-7.2-10.1-14-16.3-20.1
		c-2.3-2.2-4.9-3.8-7.9-4.8c-9.7-3.3-19.7-4.8-29.9-5.4c-1.2-0.1-1.8,0.3-2.6,1.2c-1.3,1.4-2.8,2.6-4.3,3.8
		c-12.1,9.1-24.2,18.2-36.2,27.3c-0.6,0.4-1.1,0.8-1.1,1.7c0,0.7-0.4,1.3-0.6,1.8c1.1,1.8,2.2,3.4,2.9,5.2
		c2.5,5.6,2.3,11.4,0.4,17.1c-2.6,8-7.3,14.7-12.7,21c-2,2.4-3.9,1.8-4.8-1.2c0-0.2-0.1-0.3-0.1-0.5c-1.4-7.3-2.2-14.7-1.8-22.2
		c0-0.7,0-1.3,0-2c-0.6,0.7-0.9,1.4-1.1,2.1c-1.9,5.3-3.8,10.7-5.9,16c-0.6,1.6-1.5,3.2-2.4,4.7c-0.6,1.1-1.6,1.9-3,1.5
		c-1.3-0.3-1.8-1.4-1.8-2.5c-0.1-2.1-0.3-4.3-0.1-6.4c0.9-9.8,2.5-19.5,6.7-28.7c-2.4-2.9-2.5-5.8,0.5-8.7c-1.5-0.5-2.8-1-4.2-1.4
		c-0.2,0.9-0.3,1.5-0.4,2.1c-0.4,2.4-0.8,4.7-1.3,7.1c-1.9,9.5-4.8,18.7-7.7,28c-5.3,16.8-8.5,34-8.8,51.6
		c-0.3,17.9,1.3,35.6,4.5,53.2c0.4,1.9,0.8,3.9,1.2,5.8c0.8,0.1,1.3,0.2,1.9,0.3c12,0.9,24,0.8,36-0.1c15.1-1.1,30.1-2.9,45-5.6
		c10.6-1.9,21.2-4.1,31.4-7.6c1.6-0.5,2.3-1.2,2.4-3c0.6-9,1.6-18,2.1-27c0.8-15.3,1.3-30.5,1.9-45.8c0-1.1-0.3-1.8-1.1-2.5
		c-1.2-1-2.5-2-3.6-3.1c-3.9-3.7-7.8-7.4-11.6-11.1c-0.6-0.6-1.5-1.3-1.1-2.6c0.5,0.2,1,0.2,1.3,0.5c1,0.7,1.9,1.5,2.8,2.2
		c10.6,8.9,21.2,17.8,31.8,26.7c6.7,5.6,13.8,10.9,19.8,17.4c0.9,1,1.8,0.9,2.8,0.6c4.4-1,8.8-1.9,13.1-3.1
		c12-3.4,22.3-9.8,32.1-17.3c0.2-0.1,0.2-0.4,0.4-0.7c-0.4-0.6-0.7-1.2-1.1-1.9c-2.7-4.4-4.9-9-6.7-13.8
		c-4.4-11.9-6.3-24.1-5.7-36.7c0-0.8,0-1.6,0-2.8c-1,0.8-1.7,1.3-2.3,1.8c-9.2,7.4-18.6,14.6-28.7,20.8c-2.5,1.5-4.8,3.1-7.2,4.7
		c-3.2,2.2-4.8,5.2-5,9.1c-0.1,2.2-0.4,4.3-0.6,6.5c-0.2,0-0.3,0-0.5,0c-1.6-4.7-2.2-9.5,0.8-14.5c-4.2,1.4-7.6,3.6-11.7,4.1
		c0.5-0.6,1.1-1.1,1.8-1.6c3.8-2.7,8.2-4.4,12.6-5.9c2.3-0.8,4.1-2.3,6.2-3.5c-1.6-2.3-3.1-4.2-4.6-6.4c-2.5,4.2-6.3,5.8-10.5,6.9
		c-4.3,1.1-8.6,0.8-12.9,0.2C342.9,262.4,340.2,261.8,337.6,261.3z M335.3,409.3c-0.1,0-0.2,0-0.4,0.1c0,0.3-0.1,0.6-0.1,0.9
		c-1,26.3-1.9,52.6-2.9,78.9c-0.2,4.2-0.3,8.5-0.5,12.7c-0.1,2.4-0.9,4.4-3.2,5.5c-2,1-4,2.1-6,2.9c-9.2,3.6-18.6,6.4-28.2,8.5
		c-1.2,0.3-2.5,0.6-3.6,0.8c-0.1,0.4-0.2,0.5-0.2,0.7c0.2,8,0.8,15.9,4,23.4c0.6,1.4,1.5,2.4,2.8,3.1c3.5,2,7.2,3.1,11.3,2.7
		c8-0.7,15.4-3.5,22.4-7.3c0.1,0,0.1-0.1,0.2-0.4c-8.4-2.1-16.8-4.2-25-6.8c0.3-0.1,0.5-0.2,0.7-0.1c9,1.9,18,3.7,27,5.6
		c0.1,0,0.2,0,0.2,0c0.4,0.3,1.1,0.6,1.2,1c0.1,0.4-0.4,0.9-0.7,1.3c-0.1,0.2-0.4,0.3-0.6,0.4c-6.5,3.7-13.3,6.6-20.7,8.1
		c-5.6,1.2-11,0.8-16.1-1.9c-0.2-0.1-0.5-0.1-1-0.3c0.7,2.2,1.3,4.1,1.8,6c4.1,13.8,7.8,27.7,12.3,41.4
		c7.6,22.8,15.6,45.5,23.5,68.3c3.6,10.3,7.3,20.5,11.1,30.7c1.7,4.5,1.3,4,5.9,4.1c7.1,0.2,14.1-0.5,21-2
		c19.8-4,38.2-11.7,55.5-21.9c4.9-2.9,9.4-6.3,13.4-10.5c1.1-1.1,2-2.4,3.1-3.7c-1.2-1.1-2.2-2-3.1-3c-3.7-3.7-7.7-7.3-11.2-11.2
		c-4.4-5-8.7-10.3-12.7-15.6c-11.5-15.3-22-31.2-31.9-47.6c-6.8-11.2-13.3-22.6-19.7-34c-1.6-2.8-3-5.9-3.9-9
		c-1.5-5.2-2.7-10.5-3.6-15.9c-2.4-13.4-4.5-26.8-7.1-40.2c-4.1-21.3-8.5-42.5-12.7-63.7C336.9,417.3,336.1,413.3,335.3,409.3z
		 M205.9,700.3c1.4,0.2,2.7,0.3,3.9,0.5c10.3,1.1,20.7,1.5,31.1,1.7c10.2,0.2,20.3-0.6,30.2-3.2c4.5-1.2,9-2.4,13.4-3.8
		c3.2-1,3.2-1.2,3.2-4.4c0-2.2-0.1-4.3-0.2-6.5c-0.6-13-1.9-25.9-4.8-38.5c-2.6-11.4-5.6-22.8-8.8-34.1
		c-6.6-23.3-13.3-46.6-20.1-69.8c-0.4-1.5-0.4-2.8,0.1-4.2c1.7-4.1,3.4-8.1,5-12.2c0.3-0.7,0.6-1.4,1-2.5c-19.2,1-38.1,0-56.8-1.9
		c-1,4.2-1.8,8-2.8,11.8c-2.7,9.7-3.5,19.5-3,29.5c0.3,5.7,0.4,11.4,0.6,17c0.5,11.1,0.8,22.2,1.8,33.3c1.5,16.7,3.5,33.4,5.3,50.1
		c1.1,9.7,1.5,19.4,0.9,29.2C205.7,694.8,205.9,697.4,205.9,700.3z M282.1,58.3c0.7,2.9,1.2,5.6,2,8.2c0.5,1.7,1.4,3.2,2.3,4.7
		c0.7,1.2,2,1.9,3.5,1.7c2-0.2,4-0.3,5.9-0.9c6.2-1.7,9.8-6.4,9.9-12.8c0.1-4.9-0.9-9.5-2.6-14.1c-2-5.2-5.7-8-11.2-8.3
		c-2.7-0.2-5.4-0.3-8.1-0.5c-4.9-0.2-9-1.9-12-6c-1.6-2.2-3.8-3.3-6.4-4c-7.9-2.3-15.6-2-23.2,1.4c-4,1.8-7.9,3.9-11.3,6.7
		c-2.5,2-5.2,2.9-8.4,3c-4.9,0.1-9.6-0.5-14.1-2.5c-2.8-1.2-5.4-2.7-8.1-4.2c-3.3-1.9-6.9-3-10.7-3.3c-4.1-0.4-7.8,0.8-10.9,3.4
		c-3.4,2.9-6.3,6.2-8.2,10.2c-0.8,1.8-1.4,3.7-1.7,5.7c-0.4,2.7,0.8,4.9,3.4,5.9c1.8,0.7,3.8,1.3,5.7,1.5c3,0.4,5.6,1.5,7.7,3.5
		c2.2,2.1,4.1,4.4,6.1,6.7c1.4,1.7,2.6,3.6,4,5.4c2,2.5,4.7,3.7,7.9,4c2.7,0.2,5.3-0.3,7.8-1.2c2.3-0.8,4.6-1.8,7-2.5
		c5.9-1.7,11.5-1.5,16.7,2.2c0.8,0.6,1.6,1.1,2.4,1.6c6,3.6,12.2,4.1,18.5,0.9c3.6-1.8,6.7-4.3,9.5-7.2c1.5-1.6,2.9-3.2,4.5-4.7
		c2.9-2.9,6.2-5.2,10.2-6.7c6-2.2,11.8-1.7,17.4,1.2c0.9,0.4,1.9,0.9,2.1,2.4c-3-0.9-5.8-1.8-8.6-2.5
		C288.1,56.9,285.1,57.2,282.1,58.3z M63.1,306.9c-5.6,1.9-10.9,3.7-16.1,5.6c-8.4,3.1-16.2,7.3-22.7,13.6c-1.5,1.5-3,3.1-4.2,4.9
		c-1.6,2.4-1.3,4,1.2,5.4c2,1.2,4.3,2.1,6.6,2.6c6.8,1.5,13.8,1.4,20.8,1.2c11.7-0.4,23.3-0.9,35-1.7c11.7-0.8,23.4-1.7,35-3.8
		c7.2-1.3,14.5-2.8,21.2-5.9c2.8-1.3,5.6-2.8,8-4.7c4.6-3.6,4.3-9.3-0.2-12.9c-2.6-2.1-5.5-3.6-8.7-4.4c-5.1-1.4-10.2-2.8-15.4-3.6
		c-6.2-1-12.5-2.1-18.8-1.1c-0.6,0.1-1.3,0-1.9-0.2c-1.8-0.4-2.6-1.4-2.6-3.4c0-0.5-0.2-1-0.4-1.7c-0.8,0.4-1.3,0.8-1.9,0.9
		c-2.3,0.7-3.5,2.1-3.3,4.5c0,0.1-0.2,0.2-0.1,0.2c-8,0.9-15.8,1.7-23.7,2.6c-0.9-6.2,3-10.9,7.6-12.2c3.2-0.9,6.4-2,9.5-3.1
		c0.5-0.2,1-0.5,1.8-1c-3-1-5.6-1.5-8.2-1c-8.4,1.5-13.9,6.7-17.7,14C63.2,303.4,62.4,305,63.1,306.9z M195.3,112.8
		c1.5,0.6,3,1.1,4.3,1.8c4.7,2.5,9.9,3.3,15.1,3.4c5.5,0.1,11,0,16.5-0.3c8.9-0.5,17.7-1,26.5-2c8.1-0.9,15.8-3.2,22.8-7.6
		c1-0.6,1.5-1.2,1.6-2.4c0.9-13.4,0.8-26.9-1.2-40.2c-0.3-2-0.8-4-1.2-6.3c-1.4,0.9-2.6,1.4-3.6,2.2c-2.5,2.1-5,4.3-7.2,6.6
		c-3.3,3.5-6.8,6.8-11.1,9c-7.5,3.9-14.7,3.5-21.8-0.9c-1.4-0.9-2.7-1.7-4.1-2.5c-1.7-1-3.5-1.5-5.5-1.6c-3.1-0.2-6,0.3-9,1.3
		c-2.8,1-5.5,2.1-8.4,2.8c-5.5,1.2-10.7,0.5-14.8-4c-0.2-0.3-0.6-0.4-1.1-0.8C193.4,85.2,194.4,98.9,195.3,112.8z M211,376.9
		c0-0.5,0-1.1-0.1-1.6c-2.8-14-4.3-28.1-5-42.4c-0.6-14.2,0-28.3,2.6-42.3c1.9-10.3,4.9-20.4,8.1-30.3c3.3-10.3,6.1-20.7,8.5-31.4
		c-0.9-0.4-1.9-0.7-2.8-1.1c-2.5-1.3-5.3-2.2-7.3-4c-1.8-1.7-3.3-2-5.4-1.2c-0.9,0.3-1.9,0.5-2.8,0.7c-7.7,1.9-14.1,5.9-19.6,11.5
		c-5,5.1-6.4,11.1-4,17.9c2.6,7.6,5.2,15.1,7.8,22.7c2.8,8.2,5.5,16.4,6.8,24.9c0,0.3,0.3,0.5,0.7,1.1c1.5-4.8,3-9.2,4.3-13.6
		c2.5-8.4,3.4-17.1,2.7-25.9c-0.2-3.2-0.9-6.5-1.4-9.7c-0.1-0.5-0.3-1-0.2-1.4c0.1-0.5,0.4-1.2,0.8-1.3c0.4-0.1,1.1,0.2,1.4,0.6
		c0.4,0.4,0.7,1.1,0.9,1.7c0.4,1.5,1,3.1,1.2,4.6c1,8.4,0.9,16.8-0.7,25.1c-1.5,7.6-3.9,15-6.7,22.2c-3.2,8.3-6.7,16.4-10,24.7
		c-2.4,5.9-4.3,11.9-5.1,18.2c-1.1,8.4-1,16.8-0.8,25.1c0,0.3,0.1,0.6,0.2,0.9C188.7,374.1,207.3,377.1,211,376.9z M223.2,163.6
		c2.6-3.3,5.9-4.6,9.8-4.8c4.6-0.2,8.7,1.1,12.3,3.9c2.1,1.7,4.2,3.4,6.4,5c3.3,2.4,7,3.4,11.1,2.8c0.4-0.1,0.8-0.1,1.2-0.1
		c0.7,0,1.6-0.1,2.1,0.2c0.5,0.3,0.6,1.2,1,1.9c2.3-3,3.9-6.2,4.9-9.7c0.9-3.2,1-6.5,0.9-9.7c0-0.6,0.3-1.6,0.7-1.8
		c0.4-0.2,1.4,0.1,1.9,0.4c1.6,1.2,3.4,1.4,5.2,0.8c1.2-0.4,2.4-1,3.4-1.7c6-4.2,8.5-11.2,6.5-18.4c-1.2-4.5-4.5-5.8-8.4-3.2
		c-0.9,0.6-1.7,1.7-2.1,2.8c-0.5,1.1-0.5,2.3-0.6,3.5c-0.1,2.2-1.2,3.4-3.1,4.1c-2.9,1-5.9,1.6-8.9,1.5c-2.7,0-3.3-0.9-3.2-3.6
		c0.4-6.2,0.7-12.4,1-18.7c0-0.4-0.1-0.8-0.1-1.3c-1,0.2-1.8,0.4-2.7,0.5c-2.9,0.5-5.8,1.2-8.8,1.3c-12.4,0.7-24.9,1.3-37.4,2
		c-1.5,0.1-2.9,0.3-4.4,0.4c0.6,0.9,1.3,1.3,1.9,1.7c1.8,1.4,3.7,2.8,5.4,4.3c0.4,0.3,0.7,1.2,0.5,1.6c-0.2,0.4-1.1,0.6-1.6,0.6
		c-1.1-0.2-2.2-0.5-3.2-0.9c-3.3-1.2-6.6-2.4-9.9-3.5c-0.8-0.3-1.8-0.4-2.5-0.1c-2.2,1-4.2,2.2-6.3,3.3c0,0.8,0,1.4,0.1,1.9
		c0.9,9.6,0.4,19.2-1.8,28.6c-0.4,1.7-0.5,3.5-0.6,5.2c0,0.9,0.4,1.8,0.6,2.7c3.9-0.7,7.1-2.4,10.1-4.4c2.4-1.6,4.5-3.6,7.4-4
		c0-0.4,0-0.5-0.1-0.7c-2.3-4.8-1.5-8.8,2.5-12.3c0.8-0.7,1.6-1.3,2.3-2.1c0.9-1,1.5-2.1,1.2-3.8c-3.8,0.8-7.4,0.4-11-0.6
		c-2.2-0.6-3.5-2.1-4.3-4.1c-0.8-2-0.2-3.8,1.6-5c1.7-1.2,3.7-1.5,5.7-1.1c3.8,0.6,6.7,2.5,8.8,5.7c2.7,4,2.2,8.4-1.3,11.7
		c-0.9,0.9-2,1.7-2.7,2.7c-1.5,2-2,4.2-1,6.5c0.9,2.2,2.8,2.9,5,3.1c1.4,0.1,2.8,0.3,4.2,0.5c0,0.1,0.1,0.3,0.1,0.4
		c-0.8,0.5-1.7,1-2.7,1.6C221.5,162.2,222.2,162.9,223.2,163.6z M192.2,316.3c-1.2-1.8-2.5-3.7-3.8-5.6c-0.5-0.7-1.1-1.3-1.8-1.9
		c-4.2-3.7-8.7-6.6-14.3-7.8c-7.7-1.6-15.2-3.7-22.8-5.7c-8.8-2.3-17-5.9-24.4-11.4c-3.5-2.5-7.1-4.9-10.6-7.4
		c-0.4-0.3-0.8-0.5-1.4-0.8c-1.1,1.5-2.2,3-3.4,4.5c4,1.4,5,4.7,5.7,8.2c0.7,3.5-0.2,6.8-1.9,10.2c2.6,0.2,4.8,0.4,7.4,0.7
		c-1-6.5-1.9-12.5-2.8-18.6c0.2,0,0.4-0.1,0.6-0.1c1,3.1,2,6.2,2.8,9.3c0.8,3.2,1.3,6.4,2,9.8c0.7,0.1,1.6,0.3,2.4,0.5
		c6,1.1,11.9,2.3,17.6,4.7c3,1.3,5.9,3,8.2,5.3c2.3,2.3,3.2,5.1,2.9,8.3c-0.4,4.4-2.7,7.7-6.5,9.8c-3.5,2-7.3,3.6-11,5.3
		c-0.6,0.3-1.3,0.5-2.3,1c15.8,6.5,31.2,13,47.2,18.6c0.5-6.7,1.4-12.9,3.5-18.9C187.5,328.2,189.9,322.3,192.2,316.3z M176.7,725.6
		c1.2,0.1,2,0.3,2.8,0.3c3.4-0.1,6.9-0.1,10.3-0.4c4.5-0.4,8.9-1,13.4-0.1c3,0.6,6,1.5,9.1,2.2c4.5,0.9,9.1,2.2,13.6,2.5
		c15.1,1.2,29.8-1.2,44.3-5.3c1.1-0.3,2-0.9,2.6-1.9c1.5-2.1,2.5-4.5,3-7c0.9-4.1,1.1-8.2,0.9-12.4c0-0.6-0.2-1.2-0.3-1.7
		c-0.4,0-0.5-0.1-0.7-0.1c-0.6,0.1-1.2,0.3-1.9,0.4c-9.8,2.5-19.8,3.9-29.9,3.6c-7.5-0.2-15-0.3-22.5-0.7c-6-0.4-12.1-1.3-18.1-1.9
		c-0.5,0-1-0.1-1.4,0.1c-3.1,0.8-6.2,1.4-9.3,2.5C183.4,708.8,179,716.1,176.7,725.6z M430,678.1c-7.1,3.7-13.9,7.3-21.1,11.1
		c1.2,0.1,1.9,0.2,2.7,0.2c2.7,0.3,5.4,0.7,7.8,2.1c1.2,0.7,2.3,1.4,2.2,3c-1.2,0.7-2.3,0.2-3.3-0.2c-2.6-1.2-5.3-1.8-8.1-2
		c-2.1-0.1-4.2-0.1-6.2-0.3c-1.6-0.1-3.1,0.2-4.7,0.8c-11.6,4.5-23.5,7.9-35.9,9.4c-0.9,0.1-1.8,0.6-2.5,1.2
		c-3.2,3-5.8,6.4-7.6,10.4c-0.6,1.3-1.1,2.7-1.2,4.1c-0.2,2.8,0.4,4.1,3.4,3.6c0.2,0,0.5,0,0.7-0.1c8.6-0.8,17.1-0.4,25.6,0.9
		c5.3,0.8,10.6,1.5,15.9,2.3c6.8,1,13.2,0.3,19.1-3.5c1.3-0.9,2.8-1.5,4.2-2.4c2.7-1.7,5.3-3.7,7.3-6.2c5.6-7.1,7.2-15.2,5.7-24
		C433.4,684.8,432.2,681.3,430,678.1z M450.9,270.7c-16.1-8-27.5-20.4-37.9-34.1c-0.8,0.7-1.6,1.4-2.4,2c-0.8,0.6-1,1.3-1,2.3
		c0.1,3.5,0,7,0.3,10.5c0.5,5,1.2,10,2.1,14.9c1.9,9.9,6.1,19,10.2,28.1c0.1,0.3,0.4,0.5,0.6,0.7c0.3-0.2,0.5-0.2,0.7-0.4
		c7.9-6.7,15.9-13.4,23.8-20.2C448.5,273.6,449.4,272.3,450.9,270.7z M248.1,224.1c0.9-1.3,1.9-2.9,2.9-4.4
		c8-11.7,16.1-23.5,24.1-35.2c0.9-1.3,1.2-2.4,0.8-4c-0.7-3.3-1.1-6.6-1.7-9.9c-0.1-0.8-0.3-1.6-0.5-2.8c-1,1.8-1.7,3.2-2.6,4.4
		c-5.1,7.7-11.6,14-19.4,19c-6.9,4.4-14.3,7.1-22.6,6.6c-0.3,0-0.6,0.1-0.9,0.2c0.1,0.4,0.1,0.8,0.2,1.1c0.7,3.8,1.4,7.5,0.8,11.4
		c-0.1,0.5,0.2,1.3,0.6,1.7c3.6,3.9,7.2,7.7,10.8,11.6c0.5,0.6,1.1,0.7,1.9,0.6C244.4,224.2,246,224.2,248.1,224.1z M338,371.4
		c-1.4,2.1-1.2,2-0.5,5.4c0.8,3.7,2.7,6.7,5.2,9.3c4.4,4.7,9.6,8.5,15.5,11.1c1.7,0.7,3.5,1.3,5.3,1.6c4,0.6,6.5-0.9,7.7-4.8
		c0.6-2.2,1-4.5,1.1-6.8c0.3-8.5-1.3-16.7-3.6-24.8c-1.7-5.8-3.8-11.4-7.2-16.4c-1.1-1.7-2.5-3.3-4-4.7c-1.4-1.3-2.4-1.2-3.8,0.1
		c-1.3,1.2-2.4,2.5-3.5,3.9c-4.1,5.5-8.1,11.1-12.3,16.6c-1.4,1.8-1.5,3.7-1.3,6.1c0.5-0.6,0.7-0.8,0.9-1.1c1.6-1.9,3-4,4.8-5.7
		c1.8-1.8,3.9-3.4,6-4.7c2.8-1.7,5.5-0.9,7.3,1.8c0.7,1.1,1.4,2.4,1.8,3.6c1.8,5.6,2.3,11.4,1.8,17.3c-0.1,1.5-0.5,3-1.2,4.4
		c-1.1,2.6-3.3,3.5-5.9,2.4c-1.5-0.6-3-1.5-4.3-2.6c-2.8-2.3-5.2-5-7.2-8C339.8,374.2,338.9,372.8,338,371.4z M448.6,236.3
		c0.5,0.9,0.9,1.8,1.4,2.7c6.2,11.6,13,22.7,20.1,33.8c3,4.6,5.8,9.4,9,13.9c3.2,4.6,6.7,8.9,10,13.4c0.2,0.3,0.6,0.6,0.9,0.8
		c4.3,4,9.5,5.8,15.3,5.9c8.9,0.1,16.5-3.1,23.3-8.6c1.3-1,2.3-2.5,3.2-3.9c1-1.5,1.4-3.3,1.1-5.1c-0.4-2.8-1.2-5.5-2.7-7.9
		c-0.7-1-1.6-1.9-2.7-3.1c-0.8,1.3-1.5,2.3-2.1,3.3c-4.2,7.2-10.7,11-18.8,12.2c-7.1,1-13.5-1.3-20.1-3.3c-0.5-0.2-1-0.8-1.4-1.3
		c-0.6-0.8-1.1-1.6-1.6-2.4c-4.5-7.6-9.1-15.2-13.6-22.9c-5.1-8.7-10.1-17.4-15.1-26.2c-0.1-0.1-0.2-0.2-0.5-0.3
		C452.4,238.1,450.8,236.8,448.6,236.3z M262.9,177.5c-4.1,2.7-8.7,3.2-13.4,2.9c-6.1-0.3-12.1-1.7-17.6-4.3c-2.4-1.2-4.5-3-6.7-4.6
		c-0.7-0.5-1.2-1.2-1.8-1.9c-2.6,2.9-5.7,4.6-9.2,5.6c-3.4,1-6.8,1.7-10.2,2.5c-0.6,0.1-1.1,0.3-1.9,0.5c2.7,3.1,5.4,5.7,8.2,8.2
		c4.8,4.1,10.4,6.6,16.5,7.9c2.4,0.5,4.9,0.5,7.4,0.3c4.9-0.4,9.5-2.1,13.8-4.6C253.5,186.7,258.6,182.7,262.9,177.5z M177,728.4
		c0,2.2,1,3.6,2.1,4.9c3.4,3.9,7.5,6.4,12.6,7.4c10.9,2,21.8,1.9,32.7,0.2c11.9-1.9,23.3-5.5,34.6-9.6c0.6-0.2,1.2-0.6,2-0.9
		c-5.8,0.8-11.4,1.7-17,2.3c-7.5,0.8-15,1.1-22.5-0.2c-4.5-0.8-8.9-2-13.3-3.1c-4.4-1.1-8.9-2-13.5-1.5
		C188.9,728.5,183.1,729.1,177,728.4z M293.2,196.6c-5.7,4.2-11.4,8.3-17,12.5c-0.1-0.1-0.2-0.3-0.4-0.4c5.1-4.7,10.1-9.6,16.2-13.7
		c-0.7-0.8-1.2-1.9-2-2.3c-2.3-1-4.8-1.6-7.1-2.4c-4.8,7.6-11,14-17.1,20.5c0.2-0.7,0.5-1.3,0.9-1.8c3.8-5.1,7.6-10.1,11.3-15.2
		c1.1-1.4,2.1-2.8,3.1-4.3c0.3-0.5,0.6-1.2,0.5-1.7c-0.4-1.6-1-3.2-1.6-5.1c-10.1,14.5-20.1,28.8-30,43c1.1,1.6,2.2,3.2,3.3,4.8
		c1.9-1.3,3.6-2.5,5.4-3.8c10.7-8,21.4-16,32-24.1c1-0.8,2-1.6,3-2.4C295.2,198.7,295.2,198.3,293.2,196.6z M430.2,204.2
		c-0.2,0.3-0.2,0.4-0.2,0.5c0,0.2,0,0.3,0.1,0.5c1.1,3.5,1,6.9-1,10.1c-0.5,0.8-0.8,1.6-1.2,2.4c-3.3,6.4-6.8,12.6-11.8,18.3
		c3.9,5.2,8.3,9.9,12.8,14.8c0.4-0.6,0.5-0.9,0.7-1.2c1.3-2,2.5-4.1,3.8-6.1c1.5-2.4,3.8-3.5,6.5-4c1.9-0.3,3.8-0.9,5.8-1.3
		C440.4,226.7,435.3,215.6,430.2,204.2z M104.1,298.3c1.6,0,2.9-0.1,4.3,0c1.1,0.1,1.8-0.5,2.4-1.3c1.8-2.7,2.2-5.7,1.6-8.9
		c-0.6-3.2-2.2-5-5.6-5.5c-8.5-1.3-16.7-3.7-24.2-8c-0.1-0.1-0.3-0.1-0.4-0.2c-2-1.1-3.7-0.9-5.5,0.5c-5.2,4-8.9,9.1-11.5,15.1
		c-0.3,0.7-0.5,1.4-0.6,2.1c0,0.7,0.3,1.4,0.5,2.1c0.2,0.1,0.5,0.2,0.7,0.3c0.4-0.6,0.7-1.3,1.2-1.7c2.2-1.8,4.4-3.7,6.8-5.3
		c1.3-0.8,2.2-1.6,2.6-3.2c0.6-2.5,2.3-4.2,5-4.5c0.9-0.1,2-0.5,2.5,0.6c0.3,0.8-0.4,1.3-2.1,1.7c-0.3,0.1-0.6,0.1-0.9,0.2
		c-1.2,0.4-2,1.2-2.2,2.7c0.7-0.1,1.2-0.1,1.8-0.2c3.9-0.7,7.7-0.4,11.3,1.3c1.8,0.9,3.1,0.6,4.6-0.4c0.9-0.6,1.7-1.5,3-1
		c0.3,1.3-0.6,2-1.3,2.6c-2.6,2.2-5.5,3.8-8.7,4.9c-1.4,0.5-2.9,0.9-4.3,1.4c-1.5,0.6-2.4,1.5-2.2,2.5c0.3,1.3,1.3,1.7,2.5,1.9
		c0.9,0.1,1.9,0.3,2.9,0.2c2.5-0.2,4.9-0.8,7.1-2.1c2-1.2,3.9-2.5,5.8-3.8c0.5-0.4,1-0.9,1.6-1c0.4-0.1,1.2,0,1.5,0.4
		c0.3,0.3,0.2,1.1,0,1.5c-0.4,0.7-1,1.2-1.5,1.7C103,296.2,103.5,297.2,104.1,298.3z M336.4,382.1c-0.2,0.1-0.5,0.1-0.7,0.2
		c0,2.3,0,4.6,0,6.9c0,0.5,0.2,1.1,0.4,1.6c4.5,10.3,9.4,20.3,15.8,29.6c2.2,3.2,4.8,6.2,7.8,8.7c2.1,1.7,4.3,3.1,6.9,3.7
		c4.1,1,9-0.7,11.4-4.3c-0.6-0.5-1.3-1-2-1.5c-1.3-1-2.7-2.1-4-3c-6.7-4.9-13.1-10-17.9-16.8c-3.6-5.1-7.1-10.3-10.6-15.4
		c-0.4-0.5-0.6-1.1-1.1-1.6C339.9,387.7,337.8,385.2,336.4,382.1z M155.8,123.3c0,0.1-0.1,0.3,0,0.4c0.3,0.5,0.6,0.9,1,1.3
		c6.6,6.6,14.4,9.2,23.6,7.7c5.2-0.8,9.8-3.3,14.3-5.9c4-2.4,8.1-4.5,12.4-6.2c0.5-0.2,0.9-0.5,1.9-0.9c-5.7-0.8-10.5-2.4-15.2-4.4
		c-0.7-0.3-1.4-0.4-2.1-0.6c-4-1.1-7.8-0.3-11.2,2c-1.2,0.8-2.3,1.7-3.5,2.6c-4,3.1-8.5,4.7-13.6,4.7
		C161.1,123.9,158.4,123.5,155.8,123.3z M242.7,276.4c0.2,0,0.4,0.1,0.7,0.1c3.4-4.1,6.5-8.4,8.9-13.3c1.3-2.7,2.4-5.6,3.2-8.5
		c1.4-5.2,0.8-10.3-2.1-15c-0.5-0.8-1.1-1.5-1.5-2c-3.1,1.4-5.8,2.7-8.6,3.8c-1,0.4-1.3,1-1.4,2c-1.1,8.1-1.3,16.2-0.4,24.4
		C241.8,270.8,242.3,273.6,242.7,276.4z M267.4,138.5c2.7,0.1,5.1-0.4,7.6-1.1c2.2-0.6,2.4-0.8,2.4-3.1c0.2-4.8,2.7-7.7,7.5-8.5
		c0.8-0.1,1.5-0.2,2.3-0.3c0.2-5.7-0.1-11.1-3.8-15.8c-4.9,3.3-10,6-15.5,7.3C267.7,124.2,267.6,131.2,267.4,138.5z M263.7,173.3
		c-0.9,0-1.4,0-1.9,0c-4.2,0.2-8.1-1-11.5-3.4c-2.3-1.7-4.5-3.5-6.8-5.3c-3.2-2.4-6.8-3.5-10.8-3.3c-2.4,0.1-4.7,0.9-6.6,2.5
		c-1.5,1.3-1.8,2.8-0.8,4.5c0.4,0.7,1,1.4,1.7,2c2.2,2,4.7,3.7,7.5,4.5c3.7,1.1,7.3,2.2,11.1,2.9c2.9,0.5,5.9,0.5,8.8,0.3
		C258,177.8,261.2,176.5,263.7,173.3z M491,289.1c13.5,4.8,28.7,0.8,33.5-11.7C514.5,274.2,497,280.3,491,289.1z M339.3,368.4
		c1.2,1.9,2.3,3.8,3.6,5.5c2.1,2.6,4.4,5,6.7,7.5c0.7,0.8,1.8,1.4,2.8,1.8c1.9,0.9,2.9,0.5,3.5-1.4c0.3-1,0.5-2,0.6-3
		c0.4-4.8,0.1-9.6-1.1-14.3c-0.4-1.5-0.9-2.9-1.6-4.2c-1.2-2.2-2.6-2.6-4.7-1.3C345.1,361.4,341.9,364.6,339.3,368.4z M186.2,169.2
		c2.5,4,6.1,6.3,10.8,6.5c6.4,0.3,12.6-0.9,18.4-3.5c2-0.9,3.9-2.2,5.6-3.6c1.5-1.2,1.4-2.9-0.1-4.1c-0.7-0.6-1.6-1.1-2.4-1.6
		c-3.9-2.3-6.5-2.2-10.2,0.4c-1.9,1.3-3.8,2.7-5.8,3.8C197.5,169.9,192.1,171.3,186.2,169.2z M213.9,218.3c1.4,2.8,3.2,4.4,5.6,5.4
		c4.3,1.7,8.7,3.2,13,4.8c0.4,0.2,1,0.2,1.4,0.1c1.6-0.9,3.2-1.9,4.8-3c-0.4-0.4-0.6-0.7-0.8-0.9c-5.6-6.1-12.1-11.4-16.2-19
		c-1.2,1.5-2.4,2.8-3.5,4.1c-1.5,1.9-1.4,2.6,0.5,4.2c0.9,0.8,2,1.4,2.9,2.1c2.4,1.9,4.6,3.8,6.5,6.2c-3.9-1.6-7.3-4.1-10.8-6.7
		C216.1,216.6,215,217.4,213.9,218.3z M426.8,172.7c-2.3,2.3-3.1,4.6-2.7,7.3c0.2,1,0.4,2.1,0.7,3c2.1,5.3,4.3,10.5,6.4,15.7
		c0.3,0.8,0.7,1.6,1,2.4c1.6,3.8,3.3,7.6,5.1,11.8c0.6-1.8,0.9-3.1,1.4-4.3c0.9-1.9,0.9-3.6,0.1-5.5c-3.3-8.6-6.6-17.3-10-25.9
		C428.5,175.7,427.6,174.3,426.8,172.7z M440.8,214.1c0.7,0,1.3,0,1.9-0.1c3.5-1.1,7-2,10.5-3.3c1.6-0.6,3.1-1.6,4.5-2.7
		c1.6-1.2,2.3-2.9,1.7-4.9c-0.7-2.4-1.5-4.9-2.3-7.3c-0.2-0.6-0.7-1-1-1.6c-2.4,0.9-4.2,2.2-5.8,4c-1.8,2.1-3.5,4.1-5.2,6.2
		c-1,1.2-2.1,2.4-3,3.7C440.9,209.9,440.1,211.8,440.8,214.1z M252.6,233.8c-1-1.8-1.8-3.3-2.6-4.7c-1.5-2.4-3.7-3.3-6.4-2.6
		c-4.6,1.1-8.4,3.6-11.5,7c-1.2,1.3-1.1,2.3-0.3,3.7c1.2,2.1,3.2,2.9,5.5,2.8C243.1,240,247.8,237.2,252.6,233.8z M63.7,296.7
		c-2.3-2.6-2.5-3.9-1.5-7c0.4-1.1,0.8-2.1,1.3-3.1c1.7-3.5,4.1-6.7,6.6-9.7c0.5-0.5,0.9-1.1,1.3-1.6c-0.3-0.1-0.4-0.2-0.6-0.2
		c-0.2,0-0.5,0-0.7,0c-6.3,1.5-11.2,4.9-15,10c-1.3,1.7-1.4,3.7-0.8,5.7c0.9,3.1,4.6,7.3,7.7,8.8C62.6,298.7,63.1,297.7,63.7,296.7z
		 M232.2,241.7c-0.3,0.8-0.8,1.6-1,2.5c-1.1,4-2.4,8-3.1,12.1c-0.9,5-1.3,10.1-1.8,15.2c-0.1,0.9-0.2,1.9,0.4,2.7
		c2.2-2.9,10.8-26.4,11.5-31.3C236.3,242.5,234.3,242.1,232.2,241.7z M356.2,724c9.3,6.5,32.2,8.4,42.1,3.7
		C384.4,725.8,370.7,722.5,356.2,724z M460.9,208.8c-2.5,2.7-5.4,4.1-8.5,5.3c-1.7,0.6-3.5,1.3-5.3,1.7c-1.6,0.4-2.6,1.4-3.5,2.7
		c-0.8,1.2-0.5,1.9,0.8,2.4c0.4,0.2,0.9,0.3,1.4,0.4c4.6,0.6,8.9-0.2,12.7-3.1C461.9,215.6,462.6,213.2,460.9,208.8z M441.6,201.7
		c3-1.4,5.2-3.3,5.2-6.8c0-0.6,0.1-1.1,0.2-1.7c0.2-2.9,0.1-3.1-2.9-3.4c-1-0.1-2.1-0.1-3.1,0.2c-0.8,0.2-1.6,0.8-2.2,1.4
		c-0.3,0.4-0.5,1.2-0.3,1.7C439.5,195.9,440.5,198.7,441.6,201.7z M461.4,219.8c-1.9,1.1-3.4,2-4.9,2.8c-2.6,1.2-5.3,1.7-8.1,1.7
		c-0.6,0-1.5,0.4-1.6,0.7c-0.1,0.6,0.1,1.4,0.5,2c0.2,0.4,0.8,0.8,1.3,0.9c3.1,0.7,6.2,0.9,9.1-0.4c1.3-0.6,2.4-1.4,2.8-2.8
		C460.9,223.2,461.1,221.7,461.4,219.8z M73.8,301.7c3-0.4,5.7-0.7,8.2-1.1c-1-1.7-1.9-3.2-2.8-4.8
		C76.5,296.5,74.7,298.3,73.8,301.7z M457.3,230.8c-2.7,0.6-5.2,0.8-7.8,0.1c-0.3-0.1-1.1,0.5-1.2,0.9c-0.1,0.4,0.1,1.1,0.5,1.4
		c0.5,0.4,1.3,0.6,1.9,0.9C453.7,235.6,456.1,234.4,457.3,230.8z M210.2,138.2c-1.6-2.2-1.5-4.3-0.5-6.8c-1.3,0.2-2.3,0.2-3.1,0.5
		c-1.8,0.6-2.2,1.7-1.3,3.3C206.2,137,207.5,138.2,210.2,138.2z M210.6,134.6c0,1.4,1,2.7,2.3,3c1,0.2,1.9-0.3,2.3-1.3
		c0.5-1.3-0.1-2.5-1.5-3.3c-0.1,0-0.1-0.1-0.2-0.1C211.7,132,210.6,132.7,210.6,134.6z M60.1,302c-2.4-2.4-4.8-4.8-7.2-7.2
		C52.6,299.2,55.1,301.8,60.1,302z M215.6,127.6c0.1-0.2,0.2-0.4,0.4-0.6c-1.8-1.2-3.6-2.5-5.6-3.5c-1.5-0.8-2-0.6-3.7,0.8
		C209.7,125.4,212.6,126.5,215.6,127.6z M226.3,207.9c0.2-0.1,0.4-0.2,0.6-0.3c-0.2-1.5-0.4-2.9-0.6-4.6c-0.8,0.2-1.4,0.4-2.2,0.7
		C224.9,205.2,225.6,206.6,226.3,207.9z M217.4,136.6c-0.4,0.6-0.6,1-1,1.7c0.7-0.1,1.2-0.2,1.7-0.2
		C217.8,137.6,217.6,137.2,217.4,136.6z"/>
	<path class="st0" d="M182.3,376c1.9,0.3,3.7,0.6,5.5,0.9c19.3,4.2,38.8,5.5,58.4,4.3c24.3-1.4,48.4-4.6,72-10.6
		c2.5-0.6,4.9-1.4,7.3-2.3c2.4-0.8,4.7-1.9,7.3-2.9c0.1,0.7,0.2,1.3,0.1,1.9c-0.3,6-0.6,12-0.8,18c-0.1,2.3,0,4.6-0.1,6.9
		c-0.9,25.7-1.9,51.5-2.9,77.2c-0.4,10.6-0.8,21.1-1.1,31.7c0,2-0.7,3.2-2.4,3.9c-1.7,0.8-3.3,1.6-5,2.3
		c-20,7.7-40.8,11.9-62.2,12.6c-13,0.4-26.1,0.3-39.1-0.6c-12.8-0.9-25.5-2.3-38.1-4.6c-6.8-1.2-13.7-2.6-20.5-4.1
		c-2.9-0.7-5.8-1.8-8.6-2.9c-1.6-0.6-3.1-1.6-4.6-2.5c-1.9-1.1-2.5-2.6-2.1-5c0.9-4.9,1.2-10,1.9-15c1.7-12.1,4.7-24,8.2-35.7
		c7.2-24.3,15.9-48.1,25.7-71.5C181.6,377.3,181.9,376.7,182.3,376z"/>
	<path class="st1" d="M337.6,261.3c2.6,0.5,5.3,1.1,7.9,1.5c4.3,0.6,8.6,0.9,12.9-0.2c4.2-1.1,8-2.7,10.5-6.9c1.6,2.1,3,4.1,4.6,6.4
		c-2.1,1.2-3.9,2.7-6.2,3.5c-4.4,1.5-8.7,3.2-12.6,5.9c-0.6,0.4-1.2,0.9-1.8,1.6c4-0.5,7.5-2.7,11.7-4.1c-3,5-2.3,9.7-0.8,14.5
		c0.2,0,0.3,0,0.5,0c0.2-2.2,0.5-4.3,0.6-6.5c0.2-3.9,1.8-6.9,5-9.1c2.4-1.6,4.8-3.2,7.2-4.7c10.1-6.2,19.5-13.4,28.7-20.8
		c0.6-0.5,1.2-1,2.3-1.8c0,1.2,0,2,0,2.8c-0.6,12.6,1.3,24.9,5.7,36.7c1.8,4.8,4,9.4,6.7,13.8c0.4,0.6,0.7,1.2,1.1,1.9
		c-0.2,0.3-0.2,0.5-0.4,0.7c-9.8,7.4-20.2,13.9-32.1,17.3c-4.3,1.2-8.7,2.1-13.1,3.1c-1,0.2-1.9,0.3-2.8-0.6
		c-6-6.5-13.1-11.8-19.8-17.4c-10.6-8.9-21.2-17.8-31.8-26.7c-0.9-0.8-1.8-1.5-2.8-2.2c-0.3-0.2-0.8-0.3-1.3-0.5
		c-0.4,1.3,0.5,2,1.1,2.6c3.9,3.7,7.7,7.4,11.6,11.1c1.2,1.1,2.4,2.1,3.6,3.1c0.8,0.7,1.1,1.4,1.1,2.5c-0.7,15.3-1.2,30.5-1.9,45.8
		c-0.5,9-1.4,18-2.1,27c-0.1,1.8-0.9,2.4-2.4,3c-10.3,3.5-20.8,5.7-31.4,7.6c-14.9,2.6-29.9,4.5-45,5.6c-12,0.9-24,1-36,0.1
		c-0.5,0-1.1-0.2-1.9-0.3c-0.4-1.9-0.8-3.9-1.2-5.8c-3.2-17.6-4.8-35.3-4.5-53.2c0.3-17.6,3.5-34.8,8.8-51.6
		c2.9-9.2,5.8-18.5,7.7-28c0.5-2.3,0.8-4.7,1.3-7.1c0.1-0.6,0.2-1.2,0.4-2.1c1.4,0.5,2.6,0.9,4.2,1.4c-2.9,2.9-2.9,5.8-0.5,8.7
		c-4.2,9.2-5.8,18.9-6.7,28.7c-0.2,2.1,0,4.3,0.1,6.4c0.1,1.2,0.6,2.2,1.8,2.5c1.4,0.3,2.4-0.4,3-1.5c0.9-1.5,1.8-3,2.4-4.7
		c2-5.3,3.9-10.7,5.9-16c0.3-0.7,0.6-1.4,1.1-2.1c0,0.7,0,1.3,0,2c-0.4,7.5,0.4,14.9,1.8,22.2c0,0.2,0.1,0.3,0.1,0.5
		c0.9,3,2.7,3.6,4.8,1.2c5.4-6.3,10-13.1,12.7-21c1.9-5.7,2.1-11.5-0.4-17.1c-0.8-1.7-1.9-3.3-2.9-5.2c0.2-0.5,0.5-1.1,0.6-1.8
		c0-0.9,0.5-1.2,1.1-1.7c12.1-9.1,24.2-18.1,36.2-27.3c1.5-1.2,3-2.4,4.3-3.8c0.8-0.9,1.5-1.2,2.6-1.2c10.2,0.5,20.2,2,29.9,5.4
		c3,1,5.6,2.6,7.9,4.8c6.2,6.1,11.6,12.8,16.3,20.1c4.7,7.2,9.2,14.6,13.7,22c1,1.7,1,2.5-0.3,3.8c-1,1-2.2,1.9-3.4,2.6
		c-3.5,1.8-7.2,2.6-11.1,2.6c-4.1-0.1-8.1-0.3-12.2-0.5c-0.7,0-1.4-0.1-2.1-0.1C337.6,260.8,337.6,261,337.6,261.3z"/>
	<path class="st2" d="M335.3,409.3c0.8,4,1.6,8,2.4,11.9c4.3,21.2,8.6,42.5,12.7,63.7c2.6,13.3,4.6,26.8,7.1,40.2
		c1,5.3,2.2,10.7,3.6,15.9c0.9,3.1,2.3,6.2,3.9,9c6.5,11.4,13,22.8,19.7,34c9.9,16.4,20.4,32.3,31.9,47.6c4,5.4,8.3,10.6,12.7,15.6
		c3.5,3.9,7.4,7.5,11.2,11.2c1,0.9,2,1.9,3.1,3c-1.1,1.3-2,2.6-3.1,3.7c-4,4.1-8.5,7.6-13.4,10.5c-17.3,10.3-35.7,17.9-55.5,21.9
		c-6.9,1.4-13.9,2.2-21,2c-4.6-0.1-4.2,0.4-5.9-4.1c-3.8-10.2-7.5-20.4-11.1-30.7c-7.9-22.7-15.9-45.4-23.5-68.3
		c-4.5-13.7-8.2-27.6-12.3-41.4c-0.6-1.9-1.2-3.8-1.8-6c0.5,0.1,0.8,0.1,1,0.3c5.1,2.7,10.5,3.1,16.1,1.9c7.3-1.5,14.2-4.4,20.7-8.1
		c0.2-0.1,0.5-0.2,0.6-0.4c0.3-0.4,0.8-1,0.7-1.3c-0.1-0.4-0.8-0.6-1.2-1c-0.1,0-0.2,0-0.2,0c-9-1.9-18-3.7-27-5.6
		c-0.2,0-0.5,0-0.7,0.1c8.2,2.6,16.6,4.7,25,6.8c-0.2,0.3-0.2,0.4-0.2,0.4c-7,3.8-14.4,6.6-22.4,7.3c-4,0.4-7.8-0.7-11.3-2.7
		c-1.3-0.7-2.2-1.8-2.8-3.1c-3.2-7.5-3.8-15.4-4-23.4c0-0.1,0.1-0.3,0.2-0.7c1.1-0.3,2.3-0.5,3.6-0.8c9.6-2.1,19-4.9,28.2-8.5
		c2.1-0.8,4-1.9,6-2.9c2.3-1.1,3.1-3.1,3.2-5.5c0.1-4.2,0.3-8.5,0.5-12.7c1-26.3,1.9-52.6,2.9-78.9c0-0.3,0.1-0.6,0.1-0.9
		C335.1,409.4,335.2,409.4,335.3,409.3z M351.8,518.8c-0.1,0-0.3-0.1-0.4-0.1c-0.1,0.3-0.2,0.6-0.3,0.8c-2.1,6.1-4.1,12.3-6.4,18.3
		c-4.5,12.1-10.4,23.5-16.2,35c-1.1,2.1-2,4.3-2.9,6.6c-0.5,1.2-1,2.6,0.3,3.5c1.2,0.9,2.5,0.1,3.5-0.7c2.2-1.8,4.4-3.7,6.4-5.8
		c7.1-7.4,13-15.6,18.1-24.4c0.4-0.7,0.9-1.4,1.3-2.2c0.6,1.4,0.8,2.8,0.8,4.1c0.2,5.2,0.4,10.4,0.6,15.6c0.1,2.6,0.3,5.1,0.5,7.7
		c0.2,2.2,1.3,3.8,3.4,5c-2-4.1-1.9-4.1-2.1-9.5c-0.2-6.8-0.5-13.6-0.9-20.4c-0.1-1.3-0.2-2.7-0.6-4c-0.3-1.2-1.4-1.4-2.2-0.5
		c-0.6,0.6-1,1.4-1.5,2.2c-3,4.5-5.9,9.1-9.1,13.5c-4,5.5-8.5,10.6-13.6,15.1c-0.7,0.6-1.5,1.2-2.3,1.8c-0.1-1.1,0.2-1.8,0.5-2.5
		c1.1-2.2,2.2-4.5,3.2-6.7c4-8.6,8.2-17.2,12-25.9c3.2-7.5,6-15.2,7.6-23.2C351.6,521.1,351.6,519.9,351.8,518.8z"/>
	<path class="st2" d="M205.9,700.3c0-2.9-0.1-5.5,0-8.1c0.6-9.8,0.2-19.5-0.9-29.2c-1.8-16.7-3.8-33.4-5.3-50.1
		c-1-11.1-1.2-22.2-1.8-33.3c-0.3-5.7-0.3-11.4-0.6-17c-0.5-10,0.3-19.8,3-29.5c1-3.8,1.8-7.6,2.8-11.8c18.8,1.9,37.6,2.9,56.8,1.9
		c-0.4,1.1-0.7,1.8-1,2.5c-1.7,4.1-3.4,8.1-5,12.2c-0.6,1.4-0.6,2.7-0.1,4.2c6.7,23.3,13.5,46.5,20.1,69.8
		c3.2,11.3,6.2,22.7,8.8,34.1c2.9,12.7,4.2,25.6,4.8,38.5c0.1,2.2,0.2,4.3,0.2,6.5c0,3.2,0,3.4-3.2,4.4c-4.4,1.4-8.9,2.6-13.4,3.8
		c-9.9,2.5-20,3.3-30.2,3.2c-10.4-0.2-20.8-0.5-31.1-1.7C208.5,700.7,207.3,700.5,205.9,700.3z M246.2,542.1c-0.3,0-0.6,0.1-0.9,0.1
		c-8.6,2.6-17.3,5.3-25.9,7.9c-1.2,0.4-2.6,0.8-2.9,2.2c-0.3,1.6,0.8,2.5,1.9,3.3c0.4,0.3,0.7,0.6,1.2,0.8c2.6,1.2,5.1,2.6,7.8,3.6
		c5.8,2.1,12,2.7,18.1,3.2c0.2,0,0.5-0.1,1.1-0.3c-5-1.2-9.5-2.2-14-3.3c-4-1-7.8-2.4-11.3-4.5c-1-0.6-1.8-1.4-3.3-2.5
		C228,549.4,237.5,546.7,246.2,542.1z M200.4,562.7c4.4,12.4,12.4,22.6,19.5,33.3c0.2-0.1,0.3-0.2,0.5-0.3
		C213.7,584.7,207,573.7,200.4,562.7z M244,572.7c-3.6,1.8-7.1,3.8-10.2,6.3C237.5,577.4,241.1,575.5,244,572.7z"/>
	<path class="st2" d="M282.1,58.3c3-1.1,6-1.4,9-0.7c2.8,0.7,5.6,1.6,8.6,2.5c-0.2-1.5-1.2-1.9-2.1-2.4c-5.6-2.9-11.4-3.4-17.4-1.2
		c-3.9,1.4-7.2,3.8-10.2,6.7c-1.5,1.5-3,3.1-4.5,4.7c-2.8,2.9-5.9,5.4-9.5,7.2c-6.3,3.2-12.5,2.7-18.5-0.9c-0.8-0.5-1.6-1-2.4-1.6
		c-5.2-3.7-10.8-3.9-16.7-2.2c-2.4,0.7-4.7,1.6-7,2.5c-2.5,0.9-5.1,1.4-7.8,1.2c-3.2-0.2-5.9-1.5-7.9-4c-1.4-1.7-2.6-3.7-4-5.4
		c-1.9-2.3-3.9-4.6-6.1-6.7c-2.1-2-4.8-3.1-7.7-3.5c-2-0.3-3.9-0.8-5.7-1.5c-2.6-1-3.8-3.2-3.4-5.9c0.3-1.9,0.8-3.9,1.7-5.7
		c1.9-4,4.8-7.3,8.2-10.2c3.1-2.7,6.8-3.8,10.9-3.4c3.8,0.3,7.3,1.4,10.7,3.3c2.6,1.5,5.3,2.9,8.1,4.2c4.5,2,9.2,2.6,14.1,2.5
		c3.2-0.1,5.9-1,8.4-3c3.4-2.8,7.3-4.9,11.3-6.7c7.6-3.4,15.3-3.7,23.2-1.4c2.5,0.7,4.8,1.9,6.4,4c3,4.1,7.1,5.7,12,6
		c2.7,0.1,5.4,0.3,8.1,0.5c5.5,0.3,9.3,3.1,11.2,8.3c1.7,4.5,2.7,9.2,2.6,14.1c-0.1,6.4-3.7,11.2-9.9,12.8c-1.9,0.5-3.9,0.6-5.9,0.9
		c-1.5,0.2-2.7-0.5-3.5-1.7c-0.9-1.5-1.8-3.1-2.3-4.7C283.3,63.9,282.8,61.2,282.1,58.3z M251.3,46c-4.5-3.6-9.4-6.2-14.9-7.3
		c-3.1-0.6-6.2-0.9-9.3-0.3c-0.8,0.1-1.6,0.3-1.4,1.6c4.2-0.3,8.3-0.2,12.4,0.9c4.6,1.3,9.5,3.9,10.7,5.6
		c-10.5-0.3-18.4,2.3-23.1,7.6c2.3-1,4-1.8,5.8-2.7c5.6-2.6,11.5-3.9,17.7-3.5c1.6,0.1,3,0.3,4.1,1.5c5.3-2.7,11-3.4,16.7-2.8
		c3.7,0.4,7.4,1.4,11,2.2c0.6,0.1,1.2,0.2,1.9,0.3c-4.1-3.9-9.1-4.7-14.3-4.9c-5.2-0.2-10.3,0.7-15.2,3.2c0.3-3.3,1.9-5.4,4.1-6.9
		c2-1.3,4.1-2.5,6.2-3.7c0.5-0.3,0.9-0.6,1.7-1.2C257.9,36.7,253.8,39.7,251.3,46z"/>
	<path class="st3" d="M63.1,306.9c-0.7-1.9,0.1-3.5,0.9-5c3.8-7.4,9.3-12.5,17.7-14c2.7-0.5,5.2,0,8.2,1c-0.9,0.5-1.3,0.8-1.8,1
		c-3.2,1.1-6.3,2.2-9.5,3.1c-4.6,1.3-8.5,6-7.6,12.2c7.8-0.9,15.7-1.7,23.7-2.6c-0.1,0.1,0.1-0.1,0.1-0.2c-0.2-2.4,1-3.8,3.3-4.5
		c0.6-0.2,1.1-0.5,1.9-0.9c0.2,0.7,0.4,1.2,0.4,1.7c0,2,0.8,3,2.6,3.4c0.6,0.1,1.3,0.3,1.9,0.2c6.4-1.1,12.6,0.1,18.8,1.1
		c5.2,0.8,10.3,2.2,15.4,3.6c3.2,0.8,6.1,2.3,8.7,4.4c4.5,3.6,4.8,9.2,0.2,12.9c-2.4,1.9-5.2,3.4-8,4.7c-6.7,3.1-14,4.6-21.2,5.9
		c-11.6,2.1-23.3,3.1-35,3.8c-11.6,0.8-23.3,1.3-35,1.7c-6.9,0.3-13.9,0.3-20.8-1.2c-2.3-0.5-4.6-1.4-6.6-2.6
		c-2.5-1.4-2.8-3-1.2-5.4c1.2-1.8,2.7-3.4,4.2-4.9c6.5-6.3,14.3-10.4,22.7-13.6C52.2,310.5,57.5,308.8,63.1,306.9z"/>
	<path class="st1" d="M195.3,112.8c-0.9-13.9-1.9-27.5-2.1-41.6c0.6,0.4,0.9,0.6,1.1,0.8c4.1,4.4,9.2,5.2,14.8,4
		c2.9-0.6,5.6-1.8,8.4-2.8c2.9-1,5.9-1.5,9-1.3c2,0.1,3.8,0.6,5.5,1.6c1.4,0.8,2.7,1.7,4.1,2.5c7.1,4.5,14.4,4.9,21.8,0.9
		c4.3-2.3,7.8-5.5,11.1-9c2.2-2.4,4.7-4.5,7.2-6.6c0.9-0.8,2.1-1.3,3.6-2.2c0.4,2.3,0.9,4.3,1.2,6.3c2,13.4,2.1,26.8,1.2,40.2
		c-0.1,1.2-0.6,1.8-1.6,2.4c-7,4.4-14.7,6.7-22.8,7.6c-8.8,1-17.7,1.5-26.5,2c-5.5,0.3-11,0.5-16.5,0.3c-5.2-0.1-10.3-0.9-15.1-3.4
		C198.3,113.8,196.8,113.4,195.3,112.8z"/>
	<path class="st1" d="M211,376.9c-3.7,0.2-22.3-2.8-26.1-4.2c-0.1-0.3-0.2-0.6-0.2-0.9c-0.2-8.4-0.4-16.8,0.8-25.1
		c0.9-6.3,2.8-12.3,5.1-18.2c3.3-8.2,6.8-16.4,10-24.7c2.8-7.2,5.3-14.6,6.7-22.2c1.6-8.3,1.7-16.7,0.7-25.1
		c-0.2-1.6-0.7-3.1-1.2-4.6c-0.2-0.6-0.5-1.2-0.9-1.7c-0.3-0.3-1-0.7-1.4-0.6c-0.4,0.1-0.7,0.8-0.8,1.3c-0.1,0.4,0.1,0.9,0.2,1.4
		c0.5,3.2,1.2,6.4,1.4,9.7c0.6,8.8-0.2,17.4-2.7,25.9c-1.3,4.4-2.8,8.8-4.3,13.6c-0.4-0.7-0.6-0.9-0.7-1.1c-1.3-8.6-4-16.8-6.8-24.9
		c-2.6-7.5-5.2-15.1-7.8-22.7c-2.3-6.8-1-12.7,4-17.9c5.5-5.6,11.9-9.6,19.6-11.5c0.9-0.2,1.9-0.4,2.8-0.7c2.1-0.8,3.6-0.5,5.4,1.2
		c2,1.8,4.8,2.7,7.3,4c0.9,0.5,1.9,0.8,2.8,1.1c-2.4,10.7-5.2,21.1-8.5,31.4c-3.2,10-6.2,20-8.1,30.3c-2.5,14-3.2,28.1-2.6,42.3
		c0.6,14.2,2.1,28.4,5,42.4C211,375.9,211,376.4,211,376.9z"/>
	<path class="st4" d="M223.2,163.6c-1-0.8-1.7-1.4-2.7-2.2c1-0.6,1.9-1.1,2.7-1.6c0-0.1-0.1-0.3-0.1-0.4c-1.4-0.2-2.8-0.4-4.2-0.5
		c-2.2-0.2-4.1-0.9-5-3.1c-1-2.4-0.5-4.6,1-6.5c0.8-1,1.8-1.8,2.7-2.7c3.5-3.3,3.9-7.7,1.3-11.7c-2.1-3.2-5-5.1-8.8-5.7
		c-2-0.3-4-0.1-5.7,1.1c-1.8,1.3-2.4,3-1.6,5c0.8,2,2.1,3.5,4.3,4.1c3.6,1,7.2,1.4,11,0.6c0.3,1.6-0.3,2.8-1.2,3.8
		c-0.7,0.8-1.5,1.4-2.3,2.1c-3.9,3.5-4.7,7.5-2.5,12.3c0.1,0.1,0,0.3,0.1,0.7c-2.9,0.4-5.1,2.4-7.4,4c-3,2-6.1,3.8-10.1,4.4
		c-0.2-0.9-0.6-1.8-0.6-2.7c0.1-1.7,0.2-3.5,0.6-5.2c2.2-9.4,2.7-19,1.8-28.6c-0.1-0.6-0.1-1.1-0.1-1.9c2-1.1,4.1-2.3,6.3-3.3
		c0.7-0.3,1.7-0.2,2.5,0.1c3.3,1.1,6.6,2.4,9.9,3.5c1.1,0.4,2.1,0.7,3.2,0.9c0.5,0.1,1.4-0.2,1.6-0.6c0.2-0.4-0.1-1.3-0.5-1.6
		c-1.8-1.5-3.6-2.9-5.4-4.3c-0.6-0.5-1.3-0.9-1.9-1.7c1.5-0.1,2.9-0.3,4.4-0.4c12.5-0.7,24.9-1.2,37.4-2c2.9-0.2,5.8-0.9,8.8-1.3
		c0.9-0.1,1.7-0.3,2.7-0.5c0.1,0.5,0.1,0.9,0.1,1.3c-0.3,6.2-0.7,12.5-1,18.7c-0.2,2.7,0.5,3.5,3.2,3.6c3.1,0,6-0.6,8.9-1.5
		c1.9-0.7,3-1.9,3.1-4.1c0-1.2,0.1-2.5,0.6-3.5c0.4-1,1.2-2.1,2.1-2.8c3.9-2.6,7.2-1.3,8.4,3.2c1.9,7.2-0.5,14.2-6.5,18.4
		c-1,0.7-2.2,1.3-3.4,1.7c-1.8,0.6-3.6,0.4-5.2-0.8c-0.5-0.4-1.4-0.7-1.9-0.4c-0.5,0.3-0.7,1.2-0.7,1.8c0.1,3.3-0.1,6.5-0.9,9.7
		c-1,3.5-2.6,6.7-4.9,9.7c-0.4-0.8-0.5-1.6-1-1.9c-0.5-0.3-1.4-0.2-2.1-0.2c-0.4,0-0.8,0-1.2,0.1c-4.1,0.5-7.8-0.5-11.1-2.8
		c-2.2-1.6-4.3-3.3-6.4-5c-3.6-2.8-7.7-4.1-12.3-3.9C229.1,159.1,225.8,160.4,223.2,163.6z M245.1,142.3c2.6-0.6,5.5-1,8.2-2
		c3.3-1.2,3.6-2.8,1.4-5.6c-3.5-4.7-11.2-6.2-16.2-3c-0.7,0.4-1.3,1-1.8,1.6c-2.1,2.7-1.1,6.5,2.1,7.6
		C240.8,141.5,242.8,141.7,245.1,142.3z M250.1,128.5c1.6,0,3.2,0,4.8,0c2.4-0.1,3.5-1.8,2.3-3.9c-0.6-1-1.6-2-2.7-2.5
		c-1.4-0.6-3.1-1-4.6-1.1c-5.4,0-10.2,1.9-14.6,4.8c-0.9,0.6-1.6,1.8-2.1,2.8c-0.6,1.5,0.1,2.3,1.8,2c0.5-0.1,0.9-0.2,1.4-0.4
		C240.8,129,245.4,128.5,250.1,128.5z"/>
	<path class="st1" d="M192.2,316.3c-2.3,6.1-4.6,11.9-6.8,17.9c-2.2,6-3.1,12.2-3.5,18.9c-16-5.6-31.3-12.1-47.2-18.6
		c1.1-0.4,1.7-0.7,2.3-1c3.7-1.7,7.5-3.3,11-5.3c3.7-2.1,6.1-5.4,6.5-9.8c0.3-3.2-0.6-6-2.9-8.3c-2.3-2.4-5.2-4-8.2-5.3
		c-5.6-2.4-11.6-3.7-17.6-4.7c-0.9-0.2-1.7-0.3-2.4-0.5c-0.7-3.4-1.2-6.6-2-9.8c-0.8-3.1-1.9-6.2-2.8-9.3c-0.2,0-0.4,0.1-0.6,0.1
		c0.9,6.1,1.8,12.1,2.8,18.6c-2.6-0.2-4.8-0.4-7.4-0.7c1.8-3.4,2.6-6.7,1.9-10.2c-0.7-3.5-1.7-6.7-5.7-8.2c1.2-1.6,2.3-3,3.4-4.5
		c0.6,0.3,1,0.5,1.4,0.8c3.5,2.4,7.1,4.8,10.6,7.4c7.4,5.4,15.6,9,24.4,11.4c7.6,2,15.1,4.1,22.8,5.7c5.6,1.2,10.2,4.1,14.3,7.8
		c0.7,0.6,1.3,1.2,1.8,1.9C189.7,312.5,191,314.5,192.2,316.3z"/>
	<path class="st5" d="M176.7,725.6c2.2-9.5,6.6-16.8,16-20.1c3-1.1,6.2-1.7,9.3-2.5c0.4-0.1,0.9-0.1,1.4-0.1c6,0.7,12,1.6,18.1,1.9
		c7.5,0.5,15,0.5,22.5,0.7c10.1,0.3,20.1-1.1,29.9-3.6c0.6-0.2,1.2-0.3,1.9-0.4c0.1,0,0.3,0,0.7,0.1c0.1,0.5,0.3,1.1,0.3,1.7
		c0.2,4.2-0.1,8.3-0.9,12.4c-0.5,2.5-1.5,4.9-3,7c-0.7,1-1.5,1.6-2.6,1.9c-14.5,4-29.2,6.4-44.3,5.3c-4.6-0.4-9.1-1.6-13.6-2.5
		c-3-0.6-6-1.5-9.1-2.2c-4.5-0.9-8.9-0.3-13.4,0.1c-3.4,0.3-6.9,0.3-10.3,0.4C178.7,725.9,177.9,725.7,176.7,725.6z"/>
	<path class="st5" d="M430,678.1c2.1,3.2,3.3,6.7,4,10.4c1.5,8.8-0.1,16.9-5.7,24c-2,2.5-4.5,4.5-7.3,6.2c-1.4,0.8-2.8,1.5-4.2,2.4
		c-5.9,3.8-12.4,4.4-19.1,3.5c-5.3-0.7-10.6-1.5-15.9-2.3c-8.5-1.3-17-1.7-25.6-0.9c-0.2,0-0.5,0-0.7,0.1c-3,0.6-3.6-0.7-3.4-3.6
		c0.1-1.4,0.7-2.8,1.2-4.1c1.8-4,4.4-7.4,7.6-10.4c0.6-0.6,1.6-1.1,2.5-1.2c12.4-1.5,24.3-4.9,35.9-9.4c1.5-0.6,3-0.9,4.7-0.8
		c2.1,0.1,4.2,0.1,6.2,0.3c2.8,0.2,5.5,0.8,8.1,2c1,0.5,2.1,1,3.3,0.2c0.2-1.6-1-2.4-2.2-3c-2.4-1.4-5.1-1.8-7.8-2.1
		c-0.8-0.1-1.5-0.1-2.7-0.2C416.1,685.4,423,681.8,430,678.1z"/>
	<path class="st1" d="M450.9,270.7c-1.4,1.6-2.4,2.9-3.6,3.9c-7.9,6.8-15.8,13.4-23.8,20.2c-0.2,0.1-0.4,0.2-0.7,0.4
		c-0.2-0.2-0.5-0.4-0.6-0.7c-4.2-9.1-8.4-18.2-10.2-28.1c-0.9-4.9-1.6-9.9-2.1-14.9c-0.4-3.5-0.2-7-0.3-10.5c0-1,0.2-1.7,1-2.3
		c0.8-0.6,1.6-1.3,2.4-2C423.3,250.3,434.8,262.7,450.9,270.7z M440.4,278c-1.5-0.8-3.1-1.4-4.6-2.3c-6.6-3.7-11.9-8.9-16.3-14.9
		c-2.4-3.3-4.6-6.7-6.9-10.1c-0.4-0.6-0.9-1.2-1.3-1.7c-0.3,0.5-0.2,0.8-0.1,1.1c4.1,8.2,9.2,15.7,16.3,21.7c2.7,2.3,5.7,4.4,9,5.8
		C437.6,278.1,438.9,278.7,440.4,278z"/>
	<path class="st4" d="M248.1,224.1c-2.1,0.1-3.8,0.1-5.4,0.3c-0.8,0.1-1.4,0-1.9-0.6c-3.6-3.9-7.2-7.7-10.8-11.6
		c-0.4-0.4-0.7-1.1-0.6-1.7c0.7-3.9-0.1-7.6-0.8-11.4c-0.1-0.3-0.1-0.6-0.2-1.1c0.3-0.1,0.6-0.2,0.9-0.2c8.3,0.5,15.7-2.2,22.6-6.6
		c7.8-5,14.3-11.3,19.4-19c0.8-1.3,1.5-2.6,2.6-4.4c0.2,1.2,0.4,2,0.5,2.8c0.5,3.3,0.9,6.6,1.7,9.9c0.4,1.6,0,2.7-0.8,4
		c-8.1,11.7-16.1,23.4-24.1,35.2C250,221.3,249,222.8,248.1,224.1z"/>
	<path class="st6" d="M338,371.4c0.9,1.4,1.8,2.7,2.7,4c2,3,4.3,5.8,7.2,8c1.3,1,2.8,1.9,4.3,2.6c2.6,1.1,4.8,0.1,5.9-2.4
		c0.6-1.4,1-2.9,1.2-4.4c0.5-5.9,0-11.7-1.8-17.3c-0.4-1.3-1-2.5-1.8-3.6c-1.8-2.7-4.5-3.5-7.3-1.8c-2.2,1.3-4.2,2.9-6,4.7
		c-1.8,1.7-3.2,3.8-4.8,5.7c-0.2,0.3-0.5,0.6-0.9,1.1c-0.2-2.5-0.1-4.3,1.3-6.1c4.2-5.5,8.2-11.1,12.3-16.6c1-1.4,2.2-2.7,3.5-3.9
		c1.4-1.3,2.4-1.4,3.8-0.1c1.5,1.4,2.9,3,4,4.7c3.3,5,5.5,10.6,7.2,16.4c2.3,8.1,3.9,16.3,3.6,24.8c-0.1,2.3-0.4,4.6-1.1,6.8
		c-1.1,3.9-3.7,5.4-7.7,4.8c-1.8-0.3-3.6-0.8-5.3-1.6c-5.9-2.6-11.1-6.4-15.5-11.1c-2.5-2.6-4.4-5.6-5.2-9.3
		C336.8,373.5,336.6,373.5,338,371.4z"/>
	<path class="st3" d="M448.6,236.3c2.2,0.5,3.8,1.8,5.9,1.1c0.2,0.2,0.4,0.2,0.5,0.3c5,8.7,10,17.5,15.1,26.2
		c4.5,7.7,9.1,15.2,13.6,22.9c0.5,0.8,1,1.6,1.6,2.4c0.4,0.5,0.8,1.1,1.4,1.3c6.5,2,13,4.3,20.1,3.3c8.1-1.2,14.6-4.9,18.8-12.2
		c0.6-1,1.3-2,2.1-3.3c1,1.2,2,2,2.7,3.1c1.5,2.4,2.3,5.1,2.7,7.9c0.2,1.8-0.1,3.6-1.1,5.1c-0.9,1.4-1.9,2.8-3.2,3.9
		c-6.8,5.5-14.5,8.7-23.3,8.6c-5.8-0.1-11-1.9-15.3-5.9c-0.3-0.3-0.6-0.5-0.9-0.8c-3.4-4.4-6.8-8.8-10-13.4c-3.2-4.5-6-9.3-9-13.9
		c-7.1-11-14-22.2-20.1-33.8C449.6,238.1,449.1,237.2,448.6,236.3z"/>
	<path class="st4" d="M262.9,177.5c-4.2,5.2-9.4,9.2-15.1,12.5c-4.3,2.5-8.8,4.2-13.8,4.6c-2.4,0.2-5,0.2-7.4-0.3
		c-6.1-1.2-11.7-3.8-16.5-7.9c-2.8-2.4-5.5-5-8.2-8.2c0.8-0.2,1.4-0.4,1.9-0.5c3.4-0.8,6.9-1.5,10.2-2.5c3.5-1,6.7-2.7,9.2-5.6
		c0.7,0.7,1.2,1.4,1.8,1.9c2.2,1.6,4.3,3.4,6.7,4.6c5.5,2.6,11.4,4,17.6,4.3C254.2,180.7,258.7,180.2,262.9,177.5z"/>
	<path class="st7" d="M177,728.4c6.1,0.8,11.9,0.1,17.7-0.5c4.6-0.5,9.1,0.4,13.5,1.5c4.4,1.1,8.8,2.3,13.3,3.1
		c7.5,1.3,15,1,22.5,0.2c5.6-0.6,11.2-1.5,17-2.3c-0.8,0.4-1.4,0.7-2,0.9c-11.3,4.1-22.7,7.7-34.6,9.6c-10.9,1.7-21.8,1.8-32.7-0.2
		c-5.1-0.9-9.2-3.5-12.6-7.4C177.9,732,176.9,730.5,177,728.4z"/>
	<path class="st0" d="M293.2,196.6c2,1.7,2.1,2.1,0.6,3.6c-0.9,0.9-1.9,1.7-3,2.4c-10.7,8-21.4,16.1-32,24.1
		c-1.7,1.3-3.5,2.5-5.4,3.8c-1.2-1.7-2.2-3.2-3.3-4.8c9.9-14.2,19.8-28.4,30-43c0.6,1.9,1.2,3.5,1.6,5.1c0.1,0.5-0.2,1.3-0.5,1.7
		c-1,1.5-2.1,2.8-3.1,4.3c-3.8,5.1-7.6,10.1-11.3,15.2c-0.4,0.5-0.7,1.1-0.9,1.8c6.1-6.5,12.3-12.9,17.1-20.5
		c2.4,0.8,4.8,1.4,7.1,2.4c0.8,0.3,1.3,1.4,2,2.3c-6.1,4.1-11.1,9-16.2,13.7c0.1,0.1,0.2,0.3,0.4,0.4
		C281.8,204.9,287.5,200.8,293.2,196.6z"/>
	<path class="st4" d="M430.2,204.2c5.2,11.4,10.3,22.5,15.5,33.9c-1.9,0.5-3.8,1-5.8,1.3c-2.8,0.4-5,1.6-6.5,4c-1.3,2-2.5,4-3.8,6.1
		c-0.2,0.3-0.4,0.6-0.7,1.2c-4.5-4.9-8.8-9.6-12.8-14.8c4.9-5.7,8.4-12,11.8-18.3c0.4-0.8,0.7-1.6,1.2-2.4c1.9-3.2,2.1-6.6,1-10.1
		c0-0.1-0.1-0.3-0.1-0.5C429.9,204.6,430,204.5,430.2,204.2z"/>
	<path class="st4" d="M104.1,298.3c-0.6-1.1-1.1-2.1-1.7-3.2c0.5-0.6,1.2-1.1,1.5-1.7c0.2-0.4,0.2-1.2,0-1.5c-0.3-0.3-1-0.5-1.5-0.4
		c-0.6,0.2-1.1,0.7-1.6,1c-1.9,1.3-3.8,2.6-5.8,3.8c-2.2,1.3-4.6,1.9-7.1,2.1c-0.9,0.1-1.9-0.1-2.9-0.2c-1.1-0.2-2.2-0.6-2.5-1.9
		c-0.2-1,0.6-1.9,2.2-2.5c1.4-0.5,2.9-0.9,4.3-1.4c3.2-1.1,6.2-2.7,8.7-4.9c0.8-0.6,1.7-1.3,1.3-2.6c-1.3-0.4-2.2,0.5-3,1
		c-1.5,1-2.8,1.2-4.6,0.4c-3.5-1.7-7.4-2.1-11.3-1.3c-0.5,0.1-1.1,0.1-1.8,0.2c0.2-1.5,0.9-2.3,2.2-2.7c0.3-0.1,0.6-0.1,0.9-0.2
		c1.7-0.4,2.4-1,2.1-1.7c-0.5-1.2-1.6-0.8-2.5-0.6c-2.7,0.3-4.4,1.9-5,4.5c-0.4,1.6-1.3,2.3-2.6,3.2c-2.4,1.6-4.6,3.5-6.8,5.3
		c-0.5,0.4-0.8,1.2-1.2,1.7c-0.2-0.1-0.5-0.2-0.7-0.3c-0.2-0.7-0.5-1.4-0.5-2.1c0-0.7,0.3-1.4,0.6-2.1c2.6-6,6.3-11.1,11.5-15.1
		c1.8-1.4,3.6-1.7,5.5-0.5c0.1,0.1,0.3,0.1,0.4,0.2c7.6,4.2,15.8,6.6,24.2,8c3.4,0.5,5,2.3,5.6,5.5c0.6,3.2,0.3,6.2-1.6,8.9
		c-0.6,0.8-1.2,1.4-2.4,1.3C107,298.2,105.7,298.3,104.1,298.3z"/>
	<path class="st6" d="M336.4,382.1c1.4,3.1,3.6,5.7,5.9,8.1c0.4,0.4,0.7,1.1,1.1,1.6c3.5,5.1,7,10.3,10.6,15.4
		c4.8,6.8,11.3,12,17.9,16.8c1.4,1,2.7,2,4,3c0.7,0.5,1.4,1.1,2,1.5c-2.4,3.5-7.3,5.2-11.4,4.3c-2.6-0.6-4.9-2-6.9-3.7
		c-3.1-2.5-5.6-5.5-7.8-8.7c-6.4-9.2-11.3-19.3-15.8-29.6c-0.2-0.5-0.4-1.1-0.4-1.6c0-2.3,0-4.6,0-6.9
		C335.9,382.2,336.1,382.1,336.4,382.1z"/>
	<path class="st8" d="M155.8,123.3c2.6,0.2,5.2,0.6,7.8,0.6c5,0,9.6-1.5,13.6-4.7c1.1-0.9,2.3-1.8,3.5-2.6c3.4-2.3,7.1-3.1,11.2-2
		c0.7,0.2,1.4,0.3,2.1,0.6c4.7,2,9.5,3.6,15.2,4.4c-1,0.5-1.4,0.8-1.9,0.9c-4.3,1.7-8.4,3.8-12.4,6.2c-4.5,2.6-9.1,5.1-14.3,5.9
		c-9.2,1.5-17.1-1.2-23.6-7.7c-0.4-0.4-0.7-0.9-1-1.3C155.8,123.6,155.8,123.4,155.8,123.3z"/>
	<path class="st0" d="M242.7,276.4c-0.4-2.8-0.9-5.6-1.2-8.5c-0.9-8.1-0.7-16.3,0.4-24.4c0.1-1,0.5-1.6,1.4-2
		c2.8-1.2,5.5-2.4,8.6-3.8c0.4,0.5,1,1.2,1.5,2c2.9,4.7,3.5,9.8,2.1,15c-0.8,2.9-1.9,5.8-3.2,8.5c-2.3,4.8-5.5,9.1-8.9,13.3
		C243.1,276.5,242.9,276.4,242.7,276.4z"/>
	<path class="st8" d="M267.4,138.5c0.2-7.3,0.3-14.3,0.5-21.6c5.6-1.3,10.6-4,15.5-7.3c3.6,4.8,4,10.1,3.8,15.8
		c-0.8,0.1-1.6,0.2-2.3,0.3c-4.8,0.8-7.3,3.7-7.5,8.5c-0.1,2.3-0.3,2.5-2.4,3.1C272.5,138.1,270.1,138.6,267.4,138.5z"/>
	<path class="st8" d="M263.7,173.3c-2.5,3.3-5.7,4.6-9.2,4.8c-2.9,0.2-5.9,0.2-8.8-0.3c-3.8-0.6-7.4-1.8-11.1-2.9
		c-2.9-0.9-5.3-2.6-7.5-4.5c-0.6-0.6-1.2-1.3-1.7-2c-1-1.7-0.7-3.2,0.8-4.5c1.9-1.6,4.2-2.4,6.6-2.5c4-0.2,7.6,0.8,10.8,3.3
		c2.3,1.8,4.5,3.6,6.8,5.3c3.4,2.5,7.2,3.6,11.5,3.4C262.3,173.2,262.8,173.3,263.7,173.3z"/>
	<path class="st9" d="M491,289.1c5.9-8.8,23.5-14.9,33.5-11.7C519.7,289.9,504.5,293.9,491,289.1z"/>
	<path class="st8" d="M186.2,169.2c5.9,2.1,11.3,0.7,16.4-2.1c2-1.1,3.9-2.5,5.8-3.8c3.7-2.6,6.3-2.8,10.2-0.4
		c0.8,0.5,1.6,1,2.4,1.6c1.5,1.2,1.6,2.9,0.1,4.1c-1.7,1.4-3.6,2.7-5.6,3.6c-5.8,2.6-12,3.8-18.4,3.5
		C192.3,175.4,188.7,173.2,186.2,169.2z"/>
	<path class="st0" d="M213.9,218.3c1.1-0.9,2.2-1.8,3.4-2.7c3.5,2.6,6.9,5.1,10.8,6.7c-1.8-2.5-4.1-4.4-6.5-6.2
		c-0.9-0.7-2-1.4-2.9-2.1c-1.9-1.6-2-2.3-0.5-4.2c1.1-1.4,2.3-2.7,3.5-4.1c4.1,7.6,10.5,13,16.2,19c0.2,0.2,0.4,0.5,0.8,0.9
		c-1.7,1-3.2,2.1-4.8,3c-0.3,0.2-0.9,0.1-1.4-0.1c-4.4-1.6-8.7-3.1-13-4.8C217.1,222.8,215.3,221.1,213.9,218.3z"/>
	<path class="st3" d="M426.8,172.7c0.8,1.7,1.6,3,2.2,4.5c3.4,8.6,6.6,17.3,10,25.9c0.7,1.9,0.7,3.7-0.1,5.5
		c-0.5,1.2-0.8,2.5-1.4,4.3c-1.8-4.3-3.5-8-5.1-11.8c-0.3-0.8-0.7-1.6-1-2.4c-2.1-5.2-4.3-10.5-6.4-15.7c-0.4-1-0.6-2-0.7-3
		C423.7,177.3,424.5,174.9,426.8,172.7z"/>
	<path class="st4" d="M440.8,214.1c-0.7-2.3,0.2-4.2,1.3-6c0.9-1.3,2-2.5,3-3.7c1.7-2.1,3.5-4.1,5.2-6.2c1.5-1.8,3.4-3.1,5.8-4
		c0.4,0.6,0.8,1,1,1.6c0.8,2.4,1.6,4.8,2.3,7.3c0.6,2-0.1,3.7-1.7,4.9c-1.4,1-2.9,2.1-4.5,2.7c-3.4,1.3-7,2.3-10.5,3.3
		C442.1,214.2,441.5,214.1,440.8,214.1z"/>
	<path class="st0" d="M252.6,233.8c-4.8,3.4-9.5,6.1-15.3,6.3c-2.3,0.1-4.2-0.7-5.5-2.8c-0.9-1.5-0.9-2.4,0.3-3.7
		c3.1-3.5,6.9-5.9,11.5-7c2.7-0.7,4.9,0.2,6.4,2.6C250.8,230.6,251.6,232.1,252.6,233.8z"/>
	<path class="st4" d="M63.7,296.7c-0.6,1.1-1.1,2-1.6,3c-3.1-1.5-6.7-5.7-7.7-8.8c-0.6-2-0.5-4.1,0.8-5.7c3.8-5.1,8.8-8.5,15-10
		c0.2-0.1,0.5,0,0.7,0c0.1,0,0.3,0.1,0.6,0.2c-0.5,0.6-0.9,1.1-1.3,1.6c-2.6,3-4.9,6.1-6.6,9.7c-0.5,1-1,2-1.3,3.1
		C61.2,292.8,61.4,294,63.7,296.7z"/>
	<path class="st0" d="M232.2,241.7c2.1,0.5,4.1,0.9,6,1.3c-0.7,4.8-9.3,28.4-11.5,31.3c-0.7-0.9-0.5-1.9-0.4-2.7
		c0.5-5.1,1-10.2,1.8-15.2c0.7-4.1,2-8.1,3.1-12.1C231.4,243.3,231.9,242.4,232.2,241.7z"/>
	<path class="st7" d="M356.2,724c14.5-1.5,28.1,1.8,42.1,3.7C388.4,732.4,365.5,730.4,356.2,724z"/>
	<path class="st4" d="M460.9,208.8c1.7,4.3,1,6.7-2.4,9.3c-3.8,2.9-8.1,3.7-12.7,3.1c-0.5-0.1-0.9-0.2-1.4-0.4
		c-1.3-0.5-1.6-1.2-0.8-2.4c0.9-1.3,1.8-2.3,3.5-2.7c1.8-0.4,3.5-1,5.3-1.7C455.5,212.9,458.4,211.5,460.9,208.8z"/>
	<path class="st4" d="M441.6,201.7c-1.1-3-2.1-5.8-3.1-8.7c-0.2-0.5,0-1.3,0.3-1.7c0.6-0.6,1.4-1.1,2.2-1.4c1-0.3,2.1-0.3,3.1-0.2
		c3,0.3,3.1,0.4,2.9,3.4c0,0.6-0.1,1.1-0.2,1.7C446.8,198.4,444.6,200.3,441.6,201.7z"/>
	<path class="st4" d="M461.4,219.8c-0.3,1.9-0.5,3.4-0.9,4.9c-0.4,1.4-1.5,2.2-2.8,2.8c-3,1.3-6.1,1.1-9.1,0.4
		c-0.5-0.1-1.1-0.5-1.3-0.9c-0.3-0.6-0.6-1.4-0.5-2c0.1-0.4,1-0.7,1.6-0.7c2.8,0,5.6-0.5,8.1-1.7
		C458.1,221.8,459.5,220.9,461.4,219.8z"/>
	<path class="st4" d="M73.8,301.7c0.9-3.3,2.7-5.2,5.4-5.9c0.9,1.6,1.8,3.1,2.8,4.8C79.5,300.9,76.8,301.3,73.8,301.7z"/>
	<path class="st4" d="M457.3,230.8c-1.2,3.7-3.6,4.8-6.6,3.3c-0.6-0.3-1.4-0.5-1.9-0.9c-0.3-0.3-0.6-1-0.5-1.4
		c0.1-0.4,0.9-1,1.2-0.9C452.1,231.6,454.6,231.3,457.3,230.8z"/>
	<path class="st10" d="M210.2,138.2c-2.7,0.1-4-1.1-5-2.9c-0.8-1.6-0.4-2.7,1.3-3.3c0.9-0.3,1.8-0.3,3.1-0.5
		C208.7,133.9,208.6,136,210.2,138.2z"/>
	<path class="st11" d="M210.6,134.6c0-1.9,1.2-2.6,2.8-1.7c0.1,0,0.1,0.1,0.2,0.1c1.5,0.8,2,2,1.5,3.3c-0.4,1-1.3,1.5-2.3,1.3
		C211.6,137.3,210.6,135.9,210.6,134.6z"/>
	<path class="st4" d="M60.1,302c-5-0.2-7.5-2.7-7.2-7.2C55.3,297.2,57.6,299.5,60.1,302z"/>
	<path class="st8" d="M215.6,127.6c-3-1.1-5.9-2.2-8.9-3.3c1.7-1.4,2.2-1.7,3.7-0.8c1.9,1,3.7,2.3,5.6,3.5
		C215.8,127.2,215.7,127.4,215.6,127.6z"/>
	<path class="st6" d="M226.3,207.9c-0.7-1.3-1.4-2.7-2.2-4.2c0.9-0.3,1.4-0.4,2.2-0.7c0.2,1.6,0.4,3.1,0.6,4.6
		C226.7,207.7,226.5,207.8,226.3,207.9z"/>
	<path class="st10" d="M217.4,136.6c0.3,0.6,0.5,1,0.7,1.5c-0.6,0.1-1,0.1-1.7,0.2C216.7,137.6,217,137.2,217.4,136.6z"/>
	<path d="M351.8,518.8c-0.1,1.2-0.2,2.3-0.4,3.5c-1.6,8-4.4,15.7-7.6,23.2c-3.8,8.7-8,17.3-12,25.9c-1,2.2-2.2,4.5-3.2,6.7
		c-0.3,0.7-0.6,1.4-0.5,2.5c0.8-0.6,1.6-1.1,2.3-1.8c5.2-4.5,9.6-9.6,13.6-15.1c3.2-4.4,6.1-9,9.1-13.5c0.5-0.7,0.9-1.5,1.5-2.2
		c0.8-0.9,1.9-0.7,2.2,0.5c0.4,1.3,0.5,2.7,0.6,4c0.3,6.8,0.6,13.6,0.9,20.4c0.2,5.3,0.1,5.3,2.1,9.5c-2.1-1.2-3.2-2.8-3.4-5
		c-0.2-2.5-0.4-5.1-0.5-7.7c-0.2-5.2-0.4-10.4-0.6-15.6c-0.1-1.3-0.3-2.6-0.8-4.1c-0.4,0.7-0.9,1.4-1.3,2.2
		c-5.1,8.8-11,17.1-18.1,24.4c-2,2.1-4.2,3.9-6.4,5.8c-1,0.8-2.2,1.6-3.5,0.7c-1.3-0.9-0.7-2.4-0.3-3.5c0.9-2.2,1.8-4.4,2.9-6.6
		c5.8-11.5,11.7-22.9,16.2-35c2.3-6.1,4.2-12.2,6.4-18.3c0.1-0.3,0.2-0.6,0.3-0.8C351.5,518.7,351.6,518.7,351.8,518.8z"/>
	<path d="M246.2,542.1c-8.7,4.7-18.2,7.3-28.1,10.7c1.4,1.1,2.3,1.9,3.3,2.5c3.5,2.1,7.3,3.5,11.3,4.5c4.5,1.1,9,2.1,14,3.3
		c-0.6,0.2-0.9,0.3-1.1,0.3c-6.1-0.4-12.3-1-18.1-3.2c-2.7-1-5.2-2.4-7.8-3.6c-0.4-0.2-0.8-0.5-1.2-0.8c-1-0.9-2.2-1.8-1.9-3.3
		c0.3-1.5,1.6-1.9,2.9-2.2c8.6-2.7,17.2-5.3,25.9-7.9C245.6,542.1,245.9,542.1,246.2,542.1z"/>
	<path d="M200.4,562.7c6.7,11,13.3,22,20,33c-0.2,0.1-0.3,0.2-0.5,0.3C212.8,585.3,204.8,575.1,200.4,562.7z"/>
	<path d="M244,572.7c-3,2.8-6.5,4.7-10.2,6.3C237,576.5,240.5,574.5,244,572.7z"/>
	<path d="M251.3,46c2.5-6.3,6.6-9.3,14.1-10.3c-0.8,0.5-1.2,0.9-1.7,1.2c-2.1,1.2-4.2,2.4-6.2,3.7c-2.3,1.5-3.8,3.6-4.1,6.9
		c5-2.5,10-3.4,15.2-3.2c5.2,0.2,10.2,1,14.3,4.9c-0.6-0.1-1.2-0.2-1.9-0.3c-3.7-0.8-7.3-1.8-11-2.2c-5.7-0.6-11.3,0.1-16.7,2.8
		c-1.1-1.2-2.6-1.4-4.1-1.5c-6.2-0.4-12.1,0.9-17.7,3.5c-1.8,0.8-3.6,1.6-5.8,2.7c4.6-5.4,12.6-7.9,23.1-7.6
		c-1.1-1.7-6.1-4.2-10.7-5.6c-4-1.2-8.2-1.3-12.4-0.9c-0.2-1.4,0.6-1.5,1.4-1.6c3.1-0.6,6.2-0.3,9.3,0.3
		C241.9,39.8,246.8,42.4,251.3,46z"/>
	<path d="M245.1,142.3c-2.3-0.5-4.4-0.8-6.3-1.5c-3.2-1.1-4.1-4.9-2.1-7.6c0.5-0.6,1.1-1.2,1.8-1.6c5-3.1,12.7-1.7,16.2,3
		c2.1,2.8,1.9,4.4-1.4,5.6C250.6,141.3,247.8,141.6,245.1,142.3z M244.1,139.9c-0.5-1.3-1.1-2.5-1.2-3.7c-0.2-1.2,0.1-2.4,0.3-3.7
		c-1.7,0.2-3.2,0.6-4.4,1.8c-1.3,1.4-1.3,4,0.1,4.6C240.4,139.7,242.2,140.1,244.1,139.9z M249.5,136.4c0-1.7-0.5-2.6-1.7-3
		c-0.8-0.2-1.9-0.4-2.4,0c-0.9,0.7-0.8,2-0.4,3.1c0.2,0.6,0.5,1.2,0.9,1.7c1,1.2,2.4,1,3.1-0.3C249.2,137.3,249.4,136.6,249.5,136.4
		z M254.1,138.2c-0.7-1.6-1.3-2.8-2.6-3.4c-0.2,1.5-0.3,2.9-0.5,4.5C252.1,138.9,253,138.6,254.1,138.2z"/>
	<path d="M250.1,128.5c-4.6,0-9.2,0.6-13.7,1.8c-0.5,0.1-0.9,0.3-1.4,0.4c-1.6,0.3-2.4-0.5-1.8-2c0.4-1.1,1.2-2.2,2.1-2.8
		c4.4-2.9,9.2-4.8,14.6-4.8c1.5,0,3.2,0.4,4.6,1.1c1.1,0.5,2.1,1.5,2.7,2.5c1.2,2.1,0.1,3.8-2.3,3.9
		C253.3,128.5,251.7,128.5,250.1,128.5z M255.5,126.4c-0.6-1.8-0.7-2.1-2-2.6c-1.7-0.8-3.5-1-5.4-0.8c-3.9,0.5-7.6,1.8-11,3.8
		c-0.7,0.4-1.2,1-1.8,1.5c0.1,0.1,0.2,0.3,0.3,0.4C242,126.2,248.7,125.9,255.5,126.4z"/>
	<path d="M440.4,278c-1.5,0.7-2.8,0.2-4-0.4c-3.3-1.4-6.3-3.5-9-5.8c-7.1-6-12.1-13.5-16.3-21.7c-0.1-0.3-0.2-0.6,0.1-1.1
		c0.4,0.6,0.9,1.2,1.3,1.7c2.3,3.4,4.5,6.8,6.9,10.1c4.5,6,9.8,11.2,16.3,14.9C437.2,276.5,438.8,277.2,440.4,278z"/>
	<path class="st10" d="M244.1,139.9c-1.9,0.2-3.7-0.1-5.3-0.9c-1.3-0.7-1.4-3.2-0.1-4.6c1.1-1.2,2.7-1.6,4.4-1.8
		c-0.1,1.3-0.4,2.5-0.3,3.7C243,137.4,243.6,138.6,244.1,139.9z"/>
	<path class="st11" d="M249.5,136.4c-0.1,0.2-0.2,0.9-0.5,1.4c-0.7,1.3-2.1,1.5-3.1,0.3c-0.4-0.5-0.7-1.1-0.9-1.7
		c-0.4-1.1-0.5-2.4,0.4-3.1c0.5-0.4,1.7-0.2,2.4,0C248.9,133.8,249.4,134.7,249.5,136.4z"/>
	<path class="st10" d="M254.1,138.2c-1.1,0.4-2,0.7-3.1,1c0.2-1.6,0.3-2.9,0.5-4.5C252.9,135.5,253.4,136.7,254.1,138.2z"/>
	<path class="st8" d="M255.5,126.4c-6.9-0.5-13.6-0.2-20,2.3c-0.1-0.1-0.2-0.3-0.3-0.4c0.6-0.5,1.2-1.1,1.8-1.5
		c3.4-2,7.1-3.3,11-3.8c1.9-0.2,3.7,0,5.4,0.8C254.8,124.3,255,124.5,255.5,126.4z"/>
</g>
</svg>
