<?xml version="1.0" encoding="utf-8"?>
<!-- Generator: Adobe Illustrator 22.1.0, SVG Export Plug-In . SVG Version: 6.00 Build 0)  -->
<svg version="1.1" xmlns="http://www.w3.org/2000/svg" xmlns:xlink="http://www.w3.org/1999/xlink" x="0px" y="0px"
	 viewBox="0 0 552 768" style="enable-background:new 0 0 552 768;" xml:space="preserve">
<style type="text/css">
	.st0{fill:#C94C4C;}
	.st1{fill:#681100;}
	.st2{fill:#350900;}
	.st3{fill:#FFD8CA;}
	.st4{fill:#FFEACF;}
	.st5{fill:#A81C01;}
	.st6{fill:#442F25;}
	.st7{fill:#FFCF8A;}
	.st8{fill:#FFFFFF;}
</style>
<g id="Слой2_xA0_Изображение_1_">
</g>
<g id="Слой4_xA0_Изображение_1_">
	<g>
		<path d="M531.7,684.5c-1,4.6-4.4,6.8-8.6,8.1c-6.1,1.9-12.3,1.9-18.5,0.2c-5.6-1.5-10.8-3.9-15.5-7.4c-4.3-3.3-8.6-6.6-12.9-10
			c-5.4-4.4-11.3-7.5-18-9.3c-3.9-1-7.7-2.1-11.6-3.2c-3.5-1-6.8-2.3-9.6-4.7c-2.9-2.5-4.7-5.4-4.6-9.3c0.1-3.6,0.3-7.2,0.6-10.8
			c0.2-2,0.1-3.9-0.9-5.8c-2-4.1-3.9-8.2-5.7-12.4c-3.5-8.1-8.3-15.1-14.8-21c-5.7-5.3-11.5-10.4-17.7-15.1
			c-7.9-6-14.4-13.2-18.6-22.3c-1.5-3.2-2.7-6.7-3.5-10.2c-2.4-11.3-7.2-21.5-13.7-30.9c-4.7-6.8-9.4-13.5-14.7-19.8
			c-0.5-0.6-1-1.2-1.7-1.9c-1.3,0.8-2.6,1.4-3.7,2.3c-4,3.2-8,6.4-11.8,9.9c-4.9,4.5-9.7,9.1-15.2,12.8c-0.9,0.6-1.3,1.3-1.4,2.3
			c-1.5,9-3.1,18-4.5,27c-0.9,5.6-0.9,11.3,0.1,17c0.2,1.2,0.8,2.4,1.3,3.5c2.4,4.4,4.9,8.6,7.2,13c3.4,6.6,4.1,13.7,3.4,21
			c-1,10.1-3.1,19.9-5.3,29.7c-1.1,4.9-2.2,9.8-2.8,14.8c-0.5,3.5-0.3,7-0.2,10.5c0.1,2.9,1.4,5.2,3.8,6.9c3.6,2.7,6.8,5.8,9.6,9.3
			c5.5,6.9,3.5,18.8-5.5,22.8c-1.6,0.7-3.1,1.6-4.8,2.3c-4,1.7-7.6,4.1-10.7,7.2c-2.9,3-5.8,6-8.6,9.1c-5.4,5.8-11.2,11.2-17.3,16.2
			c-4.3,3.5-8.9,6.5-13.9,8.9c-4.7,2.3-9.6,3.7-14.8,3.7c-3.7,0-7.5,0-11.2-0.5c-7-0.9-13.5-7.7-14-14.7c-0.3-4,1-7.5,4.5-9.8
			c2.4-1.6,4.9-3,7.5-4.2c6-2.8,12.1-5.4,18.1-8.2c6.5-3.1,12.6-6.9,18.4-11.2c6.5-4.8,11.2-10.9,13.5-18.8c1.4-4.8,3.2-9.6,4-14.5
			c1.3-8.2,0.5-16.5-1.7-24.5c-2.8-10.4-5.9-20.8-8.6-31.2c-1.9-7.4-3.9-14.7-6.5-21.8c-1.1-3.2-2-6.4-2.9-9.6
			c-1.9-6.9-2.7-14-2.8-21.1c0-6.2,0-12.5,0-18.7c0-0.9,0-1.7,0-2.7c-3.4-0.3-6.6-0.7-9.8-0.9c-4.3-0.3-8.6-0.8-12.9-0.9
			c-7-0.2-13.7,1.1-20.1,3.8c-1.3,0.6-2.7,1.1-4,1.5c-2.7,0.8-3.9-0.2-3.4-2.9c0.2-1.4,0.5-2.8,0.9-4.2c3.4-11,4.7-22.2,4.6-33.6
			c-0.1-11.8-0.4-23.7-0.8-35.5c-1.1-30.2-2.1-60.4-1.1-90.7c0.4-11,0.8-22.1,2-33c0.3-3.1,0.8-6.2,1.2-9.4
			c-1.2-0.6-2.3-1.1-3.4-1.7c-9.1-4.2-17.9-9-26.4-14.1c-3.8-2.3-6.7-5.3-8-9.5c-1.2-3.7-3.4-6.4-6.4-8.7
			c-8.6-6.6-16.9-13.4-25.6-19.9c-5.3-3.9-10.4-8-14.9-12.8c-1.2-1.3-2.3-1.8-4.2-1.4c-3.1,0.7-6.3,1-9.5,1.1
			c-4.6,0.2-8.3-1.8-10.8-5.6c-1.7-2.7-3-5.6-4.4-8.5c-1-2.2-1.8-4.4-2.6-6.2c-2-0.3-3.7-0.5-5.3-0.9c-8.7-2.2-17.3-4.6-26-6.8
			c-2.7-0.7-5.5-1.2-8.2-1.8c-3.4-0.8-6.2-2.6-8-5.6c-1.1-1.9-2.6-2.9-4.7-3.2c-5.5-1-11-2-16.5-3c-1.8-0.3-3.6-0.6-5.4-1.1
			c-5.1-1.5-6.4-5.5-3.4-9.8c0.3-0.4,0.6-0.9,1.1-1.5c-2.9-2.7-4.8-6-6.3-9.6c-2.7-6.5-3.2-13.2-2.4-20c0.7-5.9,2.4-11.6,4.8-17
			c5.2-11.7,14.3-18.8,26.6-21.5c13.4-3,26.4-1.5,38.7,5c2.9,1.6,5.5,3.8,8.1,5.9c2.6,2.1,4.4,4.8,5.6,8c1.7,4.3,3.2,8.7,4.8,13.1
			c0.6,1.7,1.1,3.5,1.8,5.5c0.6-0.5,1-0.9,1.4-1.3c1.7-1.9,3.7-3.3,6.1-4.2c0.7-0.3,1.4-0.5,2.1-0.6c4.8-1,8.1,1.9,7.7,6.8
			c-0.1,1.8-0.5,3.6-0.9,5.4c-0.9,4.2-1.8,8.5-1.8,12.8c-0.1,3.3,0.3,6.6,1.5,9.6c0.3,0.9,0.8,1.7,1.3,2.7c1.5-1,2.8-1.9,4.2-2.7
			c4.3-2.6,7-2.5,11,0.5c5,3.7,8.8,8.5,11.8,14c0.3,0.6,0.5,1.4,1,1.9c2.2,2.4,3.4,5,2.9,8.3c-0.1,0.4,0.2,0.9,0.5,1.2
			c2.9,3,5.9,5.8,9.8,7.6c2.3,1,4.7,1.5,7.2,1.7c1.1,0.1,2.1-0.2,2.6-1.2c0-0.1,0.1-0.1,0.1-0.2c6.1-9.4,14-17.2,21.8-25.2
			c2.4-2.5,5.2-4.8,7.9-6.9c3.5-2.8,7.7-3.6,12.2-3.6c7.4-0.1,13.7,2.6,19.8,6.4c3.1,1.9,6.4,3.6,9.7,5.3c0.7,0.4,1.4,0.6,2.1,0.9
			c1.8-1.6,3.3-3.2,5.1-4.6c6.2-4.6,13.1-7.2,20.7-8.2c5.6-0.7,11.2-0.8,16.7,0c0.6,0.1,1.3,0.1,2.2,0.1c0.1-1.9,0.1-3.7,0.4-5.5
			c0.5-2.8-0.3-4.9-2.3-7c-5.4-5.6-8.4-12.6-10.3-20c-0.5-2.1-1.3-3.6-3.3-4.8c-1.9-1.1-3.3-3-4.8-4.6c-0.6-0.6-1.1-1.4-1.7-2.2
			c-4.4,2.2-7.6,0-10.2-3.3c-1.5-1.8-2.5-3.9-3.8-5.8c-0.4-0.6-0.6-1.3-1.1-2.2c-0.1,0.6-0.2,0.9-0.3,1.2c-0.6,1.7-1.3,2.1-3.1,1.5
			c-0.7-0.2-1.3-0.6-1.9-0.9c-5.5-3.4-9.2-8.3-11.1-14.5c-1.2-3.9-0.4-7.8,1.3-11.4c0.4-0.9,0.9-1.7,1.5-2.9
			c-4.5,1.6-7.6,4.4-10,8.1c-1.6-0.2-1.9-1.4-2-2.5c-0.9-7,0.2-13.4,5.4-18.6c2.7-2.8,5.9-4.9,9.3-6.7c4.8-2.6,10-4.2,15.2-5.8
			c0.8-0.2,1.6-0.5,2.4-0.8c0.1-0.2,0.3-0.4,0.4-0.6c-0.4-0.1-0.8-0.2-1.1-0.4c-5.4-4.3-7.8-10.2-8.4-16.9c-0.5-5.9,1-11.4,3.4-16.8
			c0.8-1.8,1.7-3.6,2.6-5.5c-1.8-1.1-3.4-2.4-5.2-3.4c-0.5-0.3-1.4-0.1-2.1,0c-8,1.7-16.1,2.4-24.3,2.1c-5-0.2-9.9-1-14.6-2.5
			c-0.5-0.2-1.1-0.3-1.6-0.6c-1.3-0.7-1.7-1.6-1-3c3.5-7.2,8.1-13.4,14.9-17.8c9-5.9,18.8-9.5,29.3-11.4c14.2-2.5,28.2-1.4,41.8,3.7
			c7.1,2.7,13.6,6.4,19.8,10.6c1.4,1,2.9,1.6,4.6,2c8.8,2,17.2,5,24.9,9.7c3.7,2.2,7.6,4.1,11.8,6.3c-0.6-2.5-1.1-4.6-1.7-6.7
			c-0.5-2-1.2-4-1.8-6c-0.2-0.8-0.4-1.7-0.5-2.6c-0.2-3.4,2.1-5.4,5.4-5c2,0.3,3.6,1.4,5,2.7c2.2,2.1,3.8,4.6,4.9,7.3
			c1.7,4.6,3.3,9.3,4.8,14c1.6,5,2.9,10,4.3,15c0.3,1.2,0.6,2.3,1.3,3.5c0.1-0.4,0.2-0.8,0.2-1.2c0.1-9.3-0.6-18.5-2.9-27.6
			c-0.6-2.5-1.6-4.9-2.4-7.3c-0.5-1.4-1-2.9-1.3-4.4c-0.7-3.5,1.1-5.4,4.7-4.9c3.2,0.4,5.5,2.2,7,4.9c1.2,2.1,2.1,4.3,3.1,6.5
			c0.3,0.7,0.6,1.5,1,2.3c2.3-0.9,3.9,0.3,5.4,1.6c4.9,4.2,7.4,9.6,7.9,15.9c0.1,1.4,0.4,2.5,1.5,3.6c1.6,1.7,2.3,4,2.9,6.3
			c1.3,4.9,1.5,10,1.8,15c0.6,8.1,1.2,16.3,1.7,24.4c0,0.6,0.1,1.3,0.2,1.9c0.7,5.8,0.1,11.5-2.2,16.9c-0.2,0.5-0.3,1.1-0.5,1.7
			c0.7,0.3,1.4,0.6,2,0.8c3.7,1.5,6.4,4,7.7,7.7c1.4,3.8,2.4,7.6,2.4,11.7c0,3-0.1,6.1-0.1,9.1c0,3.4-1.2,6.3-4.4,8
			c-0.2,0.1-0.4,0.3-0.7,0.5c1.3,3.2,2.8,6.2,4.9,8.8c2.6,3.2,5.2,6.5,7.9,9.6c4.8,5.7,9.6,11.3,14.4,17c1.1,1.3,2.2,2.8,3.1,4.2
			c2.3,3.5,3.1,7.3,2.3,11.4c-0.2,1-0.3,1.8,0.6,2.6c6,5.8,8.3,13.2,9.2,21.1c0.7,6.2,0.2,12.5-1.1,18.6c-1.5,6.7-4.8,12.6-9.4,17.6
			c-8.8,9.6-18.8,17.8-30.9,23.1c-4.6,2-9.2,4.1-13.8,6.2c-0.8,0.4-1.7,1-2.1,1.7c-3.3,6.1-6.2,12.4-7.6,19.4
			c-1.1,5.6-1,11.2-0.6,16.7c1,15.2,3.4,30.2,7.2,44.9c4.6,18,13.4,33.6,26.6,46.7c3.5,3.5,7,7.1,10.3,10.7c2.8,3,5.2,6.3,7,10
			c2.3,4.6,1.7,6.8-2.5,9.7c-2.2,1.6-4.7,2.4-7.3,2.8c-9.3,1.5-18,5-26.7,8.4c-1.2,0.5-2.3,1-3.5,1.6c-3,1.6-5.3,3.8-6.7,6.9
			c-0.8,1.7-1.5,3.4-2.2,5c-0.2,0.5-0.4,1.1-0.7,1.5c-0.9,1.4-2.4,1.4-3.2-0.1c-0.4-0.8-0.6-1.6-0.9-2.5c-0.7-2.1-1.4-4.2-2.1-6.3
			c-3.1,1.3-6.1,2.5-9.2,3.8c0,0.3,0,0.6,0.1,1c4.1,11.8,8.2,23.6,13.4,34.9c2.5,5.3,5.3,10.4,8.6,15.2c5.3,7.7,9.7,16,14.5,24
			c8.5,14.1,17.3,28.1,25.6,42.3c4.3,7.3,7.9,15,11.8,22.5c1.2,2.3,2.3,4.5,3.6,6.8c2.1,3.6,5,6.1,8.9,7.8
			c7.4,3.2,14.9,5.7,22.8,7.1c7.6,1.4,14.5,4.4,20.7,9.1c4.7,3.5,9.4,6.9,13.4,11.3c2.1,2.3,3.7,4.8,4.7,7.8c0.3,1,0.6,2.1,0.9,3.2
			C531.7,683.6,531.7,684.1,531.7,684.5z M343.6,224.2c-1.1,0.3-1.8,0.4-2.5,0.6c-4.4,1.5-8.5,3.7-12.2,6.5c-2.3,1.8-4.6,3.7-7,5.5
			c-4.6,3.6-9.7,6.2-15.5,7.2c-6.4,1.1-12.7,0.9-19.1-0.5c-5.5-1.2-10.3-3.4-13.8-7.9c-0.4-0.6-0.9-1.1-1.5-1.5
			c-0.6-0.4-1.3-0.7-1.9-0.7c-4.2-0.1-7.8,3.2-8.2,7.4c-0.1,0.6-0.1,1.1-0.2,1.7c-1.2,9.3-2.5,18.5-3.7,27.8
			c-2.3,18.3-3.5,36.8-3.1,55.3c0.1,4.5,0.5,9.1,1.1,13.6c1.4,9.9,4.8,19.2,8.5,28.4c0.5,1.3,1.4,1.8,2.7,2
			c3.7,0.6,7.4,1.4,11.1,2.1c2.4,0.4,4.7,0.8,7.1,0.8c7.2,0,14.3-1.1,21.3-3.1c14.6-4.1,28.1-10.5,40.9-18.6
			c0.8-0.5,1.6-1.1,2.4-1.7c-0.2-0.8-0.3-1.6-0.5-2.4c-2-8.7-3.2-17.6-3.4-26.6c-0.4-16.3,1.3-32.4,3.1-48.5c1.3-11.7,2.7-23.3,4-35
			c0.1-0.6,0-1.3,0-2c-0.7,0.2-1.3,0.5-1.9,0.7c-3.2,1.1-5.6-0.2-6.4-3.4c-0.4-1.5-0.4-3-0.7-4.5C344,226.3,343.8,225.4,343.6,224.2
			z M316,389c2.2,3.6,4.5,7,6.3,10.6c5.8,11,10.6,22.4,15.3,33.9c0.3,0.8,0.6,1.7,0.9,2.6c-0.6-0.7-1-1.5-1.4-2.3
			c-5.5-11.6-11-23.3-16.6-34.9c-1.3-2.7-3-5.3-4.5-7.9c-0.3-0.5-0.8-0.9-1-1.2c-7.4,3.1-14.6,6.2-22,9.3
			c4.3,22.6,9.1,45.4,11.5,68.5c-5.1-22.7-8.7-45.6-13.1-68.5c-1.3,0.3-2.3,0.5-3.3,0.8c-2,0.5-2,0.5-2.2,2.5
			c-0.5,3.9-1,7.8-1.5,11.7c-3.2,22.1-6.4,44.2-9.5,66.2c-0.1,0.4-0.2,0.8-0.4,1.2c-0.1-9.1,1.1-18,2.3-26.9
			c1.2-9,2.5-18.1,3.9-27.1c1.4-8.9,3-17.7,4.5-26.9c-8,1.4-15.6,1.2-23.2,0.3c-0.3,0.6-0.5,1-0.6,1.5c-4.4,13-8.4,26-10.8,39.5
			c-2.1,12.1-3.6,24.4-5.3,36.5c-0.5,3.9-0.7,7.8-0.1,11.7c0.4,2.2,0.6,4.6,2,6.7c1-0.5,2-0.8,2.9-1.3c2.4-1.3,4.7-2.7,7.1-4
			c8.6-4.8,17.7-6.8,27.5-5.9c4,0.4,7.9,1,11.9,1.7c8.3,1.5,16.7,1.8,25,0.2c11.8-2.2,22-7.2,29.5-16.9c1.3-1.6,2.6-3.2,4-4.8
			c2.1-2.3,4.2-4.7,6.4-6.9c5.5-5.4,11.7-9.7,18.9-12.4c0.4-0.1,0.7-0.4,1.2-0.6c-0.4-1.6-0.8-3.2-1.3-4.7
			c-4.1-12.7-8.3-25.4-12.4-38.1c-0.6-1.8-1.5-3.3-2.9-4.5c-5.2-4.6-10.4-9.2-15.6-13.9c-0.5-0.5-1-1-1.5-1.6
			c6.7,3.4,11.8,8.7,17.4,13.4c0.2-0.1,0.3-0.2,0.5-0.3c-3.9-11.2-7.8-22.4-11.7-33.6c-6.2,4.8-12.1,9.8-18.3,14.1
			C329.3,381.1,322.5,384.9,316,389z M357.8,230.6c-1.7,1.1-2.2,2.4-2.3,4.2c-0.4,6.4-0.9,12.8-1.5,19.1
			c-1.4,16.1-3.1,32.2-4.3,48.3c-1.5,18.9,0.3,37.6,6.3,55.7c6,17.9,12,35.8,18.2,53.6c5.7,16.6,11.1,33.2,14.8,50.4
			c1.9,8.8,3.8,17.5,7,25.9c0.2,0.6,0.5,1.2,0.9,2.1c0.6-1.1,1-1.9,1.4-2.6c1.7-3.6,4.4-6.3,7.9-8.1c1.3-0.7,2.6-1.3,3.9-1.8
			c8.9-3.6,17.9-7,27.4-8.6c2.4-0.4,4.7-1.1,6.6-2.7c2.2-1.8,2.4-2.3,1.1-4.9c-1.8-3.7-4.2-7-7-10c-3.6-3.9-7.3-7.6-11-11.4
			c-12-12.2-20.5-26.5-25.2-43c-5-17.5-7.8-35.4-8.6-53.6c-0.2-3.9,0.1-7.8,0.6-11.7c0.7-6,3-11.6,5.6-17c0.4-0.8,0.7-1.6,1.2-2.8
			c-0.9,0.2-1.3,0.2-1.8,0.3c-2.8,0.6-5.5,0.7-8.3,0.3c-2.3-0.3-4.3-1.3-5.7-3.1c-1.3-1.8-2.6-3.6-3.7-5.6
			c-6.9-12.5-11.9-25.9-16.1-39.5C361.5,253.2,358.3,242.3,357.8,230.6z M250.1,242.9c-1.1,2.8-2.2,5.3-3.1,7.9
			c-6.5,18.5-11.9,37.3-16.8,56.3c-3.6,14.2-6.2,28.6-7.1,43.2c-0.6,10.6-1.1,21.2-1.3,31.9c-0.6,27.8,0.4,55.6,1.4,83.5
			c0.4,11.7,0.7,23.5,0.7,35.3c0.1,11.3-1.3,22.5-4.6,33.4c-0.2,0.8-0.4,1.6-0.5,2.5c0.4,0,0.5,0.1,0.7,0c0.5-0.2,1.1-0.4,1.6-0.6
			c8.4-3.6,17.2-4.8,26.3-4c5.1,0.4,10.2,0.9,15.3,1.3c0.8,0.1,1.7,0,2.7,0c0.3-14.2,0.6-28.2,0.3-42.5c-1,0.4-1.8,0.6-2.5,1
			c-3.3,1.7-6.6,3.5-9.9,5.3c-1.5,0.8-3,1.6-4.5,2.2c-2.3,0.9-3.9,0.2-4.9-2c-0.3-0.7-0.6-1.5-0.8-2.2c-1.2-4.1-1.8-8.3-1.3-12.6
			c0.7-7.3,1.7-14.6,2.5-21.9c2.3-20.3,7.5-39.9,14.3-59.1c0.2-0.5,0.3-1,0.4-1.6c-1.8-0.6-3.5-1.1-5.1-1.7
			c-3.3-1.4-4.2-2.8-3.7-6.3c0.8-6.1,2.5-12.1,5.2-17.6c1.3-2.7,2.8-5.2,5.7-6.4c0-0.3,0-0.5-0.1-0.6c-0.4-1-0.8-1.9-1.1-2.9
			c-4.7-12-7.9-24.3-8-37.3c0-5.7-0.2-11.4,0.1-17c0.5-10.4,1-20.8,2.2-31.1c1.3-11.3,3.2-22.5,4.9-33.7c0.2-1.3,0.4-2.6,0.6-4.1
			c-1.5,1.1-2.7,2.1-4,2.9c-1.5,0.9-3,0.9-4.4-0.5C250.9,243.5,250.7,243.3,250.1,242.9z M287.3,681.7c3.7,2.1,6.7,2.1,9.9-0.2
			c4.4-3,7.4-7.3,10.2-11.7c0.4-0.7,0.4-1.3,0-2c-1-1.9-1.3-3.9-1.4-6c-0.5-6.7,0.3-13.2,1.8-19.7c2.5-10.8,5.2-21.6,6.3-32.7
			c0.6-5.9,0.9-11.8-1.2-17.5c-2.1-5.7-5-11.1-8.4-16.1c-1-1.5-2.3-2.8-1.7-4.9c0.1-0.3-0.1-0.8-0.2-1.2c-1-5-1.1-10-0.5-15
			c0.8-6.1,1.8-12.2,2.8-18.2c2-12.7,4-25.4,5.9-38.1c0.3-2,0.4-4.1,0.6-6.2c-0.5-0.1-0.8-0.2-1.1-0.2c-5.9-0.1-11.6-1-17.4-2
			c-5.8-1-11.5-1.9-17.4-1.1c-2.5,0.4-5,0.5-7.4,1.6c0,0.9,0,1.7,0,2.5c0.2,9.4,0.4,18.9,0.5,28.3c0.1,12.1,0,24.2-0.1,36.2
			c-0.1,8.8,1.2,17.4,3.8,25.8c1.6,5.1,3.6,10.1,5,15.2c2.4,8.4,4.5,16.8,6.8,25.2c1.9,7,4.2,13.9,5.8,21
			c2.4,10.8,2.7,21.6-1.2,32.2C288.2,678.3,287.8,680,287.3,681.7z M335.4,486.6c0.1,0.3,0,0.5,0.1,0.6c0.5,0.6,0.9,1.1,1.4,1.6
			c8.1,8.7,15.7,17.7,22.4,27.5c4.3,6.4,8.7,12.7,11.3,20c2,5.3,3.4,10.8,5,16.3c1.4,5,3.4,9.6,6.3,13.9c4,5.9,8.9,10.9,14.6,15.1
			c6.6,4.9,12.6,10.4,18.5,15.9c6,5.6,10.6,12.2,13.9,19.6c2.1,4.7,4.3,9.5,6.6,14.1c0.4,0.8,1.1,1.5,1.8,2.1c1.3,1.2,2.8,2.1,4,3.4
			c1.4,1.4,2.6,3.1,3.9,4.5c4.9,5.3,11,8.4,18.1,9.4c2.5,0.3,4.9,0,7.3-1.6c-0.9-0.4-1.6-0.8-2.3-1.1c-5-2-8.7-5.3-11.3-10
			c-1.4-2.6-2.8-5.2-4.1-7.8c-3.3-6.5-6.4-13.1-10.1-19.4c-8.4-14.3-17.1-28.3-25.7-42.5c-4.3-7.2-8.2-14.7-12.9-21.6
			c-7.1-10.5-12.7-21.8-17.1-33.7c-6.5-17.7-12.4-35.6-17.8-53.7c-0.2-0.8-0.5-1.6-0.8-2.6c-3.6,2.8-6.5,5.7-9.3,8.9
			c-2.6,3-5.2,6.1-7.8,9.1c-4,4.7-8.8,8.3-14.4,11C336.6,486,336,486.3,335.4,486.6z M315.4,101.9c-2.8,0.4-5.4,0.8-7.9,1.2
			c-0.8,0.1-1.5,0.5-2.2,0.9c-2.7,1.5-5.2,3.1-7.9,4.4c-1.2,0.6-1.8,1.3-2.1,2.6c-0.7,3.9-1.7,7.8-2.5,11.7
			c-1.9,9.6-4.2,19.2-5.2,29c-0.9,8.6-0.4,17,2.5,25.3c3.6,10.3,10.3,17.9,19.4,23.7c0.5,0.3,1.1,0.7,1.7,0.9
			c4.4,1,8.9,2.1,13.5,2.2c10.5,0.2,20.3-2.1,29.1-8.1c7.1-4.8,12.5-11.1,17.5-17.9c0.2-0.2,0.2-0.6,0.3-1c-3.4-0.1-6.5-0.8-9.2-2.7
			c-0.5-0.3-1.2-0.3-1.8-0.3c-5.7-0.2-10.7-2.4-15.1-6c-0.5-0.5-1.1-1-1.5-1.5c-1.4-1.8-0.9-3.2,1.3-3.5c1.5-0.2,3-0.3,4.5-0.4
			c4.3-0.5,8.6-1.2,12.5-3.2c0.8-0.4,1.6-0.9,2.4-1.4c-0.5-0.3-0.8-0.3-1.1-0.2c-3.2,1.1-6.5,1.4-9.7,0.5
			c-5.8-1.6-11.5-3.4-17.1-5.4c-1.7-0.6-3.2-1.8-4.8-2.7c-0.8-0.5-1.6-1.2-1.4-2.3c0.2-1.2,1.2-1.4,2.1-1.6c1.1-0.3,2.2-0.5,3.2-0.9
			c9.1-3.2,12-14,5.7-21.3c-2.3-2.6-5.2-4.5-8.2-6.1c-2.2-1.1-4.4-2.2-6.6-3.3C321.5,111.6,317,108.1,315.4,101.9z M43.7,210.5
			c-0.7-1.3-1.5-2.5-2.1-3.7c-1.3-2.4-2-4.9-1.8-7.6c0.4-5.1,3.8-7.4,8.6-5.9c6.2,2,11.6,5.3,16.2,9.9c2.5,2.4,4.8,4.9,7.4,7.2
			c1.7,1.5,3.7,2.8,5.5,4.2c1.5,1.1,3.2,1.2,5,0.9c3.8-0.6,6.3-3.6,6.1-7.4c0-0.5-0.2-1-0.1-1.4c0.1-0.5,0.5-1.1,0.9-1.3
			c0.4-0.1,1.1,0.1,1.4,0.4c0.5,0.4,0.7,1,1.1,1.6c1.8,2.7,4.3,4.5,7.5,5.2c3.3,0.8,4.6-0.1,5.3-3.4c0.3-1.6,0.5-3.2-0.2-4.7
			c-0.4-0.8-0.4-1.6,0.4-2.1c1-0.6,1.6,0,2.2,0.8c0.2,0.3,0.4,0.7,0.7,1c1,0.8,1.9,1.7,3,2.3c1.9,0.9,3.9,0.3,5.1-1.4
			c2.8-3.8,2.1-11.6-3.6-13.6c-2-0.7-2.6-1.8-2.7-3.6c-0.2-2.2-0.4-4.4-1.4-6.6c-0.3,0.3-0.5,0.4-0.6,0.6c-1.3,2.5-4,3.2-6.9,2
			c-2.3-1-4.4-2.4-5.9-4.4c-3.2-4.4-4.9-9.4-4.2-14.9c0.5-3.9,2-7.2,6.5-8.4c-0.4-0.5-0.7-0.9-1.1-1.2c-2.9-2.6-6.1-4.7-9.6-6.3
			c-8.4-3.8-17.3-5-26.4-4.4c-2.7,0.2-5.4,0.5-8,1.2c-9,2.5-16.6,7.1-21.4,15.4c-4.4,7.7-6.8,16-7,24.9c-0.1,6.5,1.4,12.7,4.9,18.3
			C31.7,209.3,37.3,211.6,43.7,210.5z M267.8,58.1c-2.2,3.4-3.6,6.8-4.7,10.4c-1.2,3.9-1.8,8-1.1,12.1c1,6.4,3.9,11.6,9.8,14.8
			c3.8,2.1,7.8,3.9,12.1,4.5c3.1,0.4,6.2,0.5,9.3,0.5c10.8,0.2,21.3-1.2,31.7-4.6c4.8-1.6,9.7-2.6,14.6-3.8c1.9-0.5,3.9-0.5,5.9-0.8
			c-0.4-2-0.9-3.8-1-5.6c-0.2-2.7-0.4-5.4-0.2-8.1c0.3-3.8,3.8-5.5,7-3.4c1.2,0.7,2.2,1.8,3.2,2.9c1.2,1.5,2.2,3.2,3.5,4.6
			c1.7,2,3.6,3.8,5.5,5.6c0.8,0.7,1.8,1.3,3.1,1c0.2-9.8-0.4-19.4-2.3-28.9c-0.2-1.3-1-1.9-2-2.5c-4.3-2.5-8.5-5.2-12.9-7.4
			c-5.3-2.7-10.5-5.6-16.2-7.1c-0.5-0.1-0.9-0.1-1.7-0.3c0.4,0.5,0.5,0.7,0.7,0.8c5.1,4.7,10.1,9.3,15.2,14c1,1,1.9,2.1,2.8,3.3
			c0.6,0.8,1.1,1.7,0.3,2.6c-0.7,0.9-1.7,0.7-2.6,0.3c-3.8-1.8-7.8-1.6-11.7-0.4c-1.9,0.6-3.8,1.3-5.7,1.7c-4,0.9-7.8,0.7-11.2-1.9
			c-0.8-0.7-1.5-0.4-2.4-0.3c-2.5,0.5-5,1-7.6,1.1c-5.1,0.2-9.8-1.4-14.4-3.4c-1.2-0.5-2.4-0.6-3.7-0.4c-2.8,0.4-5.7,0.7-8.6,0.8
			C277.5,60.3,272.7,59.4,267.8,58.1z M377,132.9c11-1.1,21.6-3,32.4-2.3c2.3-5.4,3.7-10.5,3.2-16.1c-0.8-9.9-1.4-19.8-2-29.7
			c-0.2-3.2-0.4-6.4-0.8-9.6c-0.3-2.2-0.5-4.4-1.7-6.3c-0.2,0.8-0.2,1.6-0.2,2.3c0,3.6,0.1,7.2,0,10.8c0,0.7,0,1.5-0.3,2.1
			c-0.2,0.4-0.8,0.9-1.3,0.8c-0.4,0-1-0.6-1.1-1c-0.2-0.7-0.1-1.4-0.2-2.1c-0.2-6.6-0.2-13.3-0.5-19.9c-0.2-5.9-2.5-10.9-6.9-14.8
			c-0.4-0.4-1-0.7-1.9-1.3c0.1,1.5,0,2.5,0.2,3.5c1.4,5.5,2.2,11.1,2.5,16.8c0.2,3.8,0.3,7.7,0.4,11.5c0,1.5,0.4,2.5,1.7,3.4
			c1.2,0.9,2.2,2,3.3,3.1c0.5,0.5,0.9,1.2,1,1.9c0.1,0.5,0,1.2-0.4,1.5c-0.3,0.3-1.1,0.3-1.5,0.1c-0.7-0.4-1.3-0.9-1.8-1.5
			c-2.4-2.8-5.4-4.8-8.9-5.8c-3.6-1-7.3-1.6-11-2.4c-0.8-0.2-2,0-2.1-1.1c-0.1-1,1-1.1,1.6-1.5c0.1-0.1,0.1-0.3,0.2-0.4
			c-2.1-7.2-4-14.5-6.2-21.7c-1.1-3.6-2.4-7.1-4-10.5c-0.9-1.9-2.3-3.6-3.7-5.2c-0.6-0.8-1.6-1.3-2.6-1.6c-1.6-0.6-2.5,0.3-2.3,1.9
			c0.2,1.3,0.6,2.5,1,3.7c3.5,11.5,6,23.2,6.3,35.3c0.1,4-0.2,7.9-0.4,12.2c2.3,0.3,4.7,0.6,7.2,0.9c2.2,0.3,4.4,0.8,6.4,2
			c1.7,1.1,3,2.5,3.6,4.6c-1.7,0-2.3-0.1-4.1-1.3c-2.4-1.5-5-2.1-7.7-2.4c-2.5-0.3-4.9-0.6-7.4-1c-2.6-0.4-5-1.3-6.8-3.2
			c-2-2.1-3.9-4.4-5.9-6.6c-1.2-1.4-2.2-2.9-3.4-4.3c-0.7-0.8-1.6-1.6-2.7-1.2c-1.3,0.4-1.1,1.7-1.1,2.7c0,9.1,2.4,17.2,9.2,23.7
			c1.6,1.5,3.2,2.9,4.8,4.3c4.6,4,8.2,8.8,10.7,14.3c1.1,2.3,2,4.7,3,7C375.5,129.8,376.2,131.2,377,132.9z M218.8,50.3
			c0.9,0.3,1.7,0.5,2.4,0.7c9.9,2.6,20,2.3,30,0.7c12.4-2,24.2-6,35.7-10.9c0.5-0.2,1-0.5,1.5-0.7c0.9-0.3,1.8-0.5,2.2,0.6
			c0.4,0.9-0.2,1.5-0.9,1.9c-0.6,0.3-1.3,0.6-1.9,0.9c-7.6,3.4-15.5,6.1-23.5,8.3c-0.7,0.2-1.3,0.4-2.4,0.8c1.2,0.6,2,1,2.7,1.3
			c5.3,2.2,10.8,3,16.4,3.1c9.8,0.1,18.8-2.5,26.4-9c0.4-0.4,0.9-0.8,1.4-0.9c0.5-0.1,1.2-0.1,1.5,0.1c0.3,0.3,0.4,1.1,0.2,1.5
			c-0.4,0.8-1,1.5-1.6,2c-2.9,2.6-6.2,4.5-9.8,6c-0.7,0.3-1.4,0.6-2,0.9c2.5,1.1,5,1.8,7.5,2.2c6.5,1,12.4,0.1,17.3-4.7
			c0.4-0.4,0.9-0.7,1.4-0.9c0.5-0.2,1.2-0.1,1.9-0.2c-0.1,0.7,0,1.2-0.2,1.4c-1.4,1.6-2.9,3.1-4.4,4.8c2,1.1,4.1,1.7,6.3,1.3
			c2.4-0.5,4.8-1.1,7.2-1.8c3.1-1,6.2-1.5,9.5-1.2c0.6,0.1,1.2,0.1,2.2,0.2c-1.8-1.6-3.3-3-4.8-4.3c-4.8-4.1-9.5-8.4-14.4-12.3
			C318.7,36,310,30.5,300.3,27c-19.8-7.2-39.4-6.1-58.7,2.2c-4.7,2-9,4.6-12.9,7.8C224.4,40.6,221.4,45.1,218.8,50.3z M286.3,684.6
			c-0.3,0.7-0.6,1.2-0.8,1.8c-1.9,5.2-5.1,9.6-9.3,13.2c-2.1,1.8-4.3,3.6-6.5,5.3c-6.2,4.4-12.8,8.2-19.8,11.3
			c-4.2,1.9-8.5,3.6-12.7,5.6c-3,1.4-6,3-8.8,4.8c-2.7,1.6-3.5,4.3-3.2,7.3c0.6,5.2,5.6,10.7,10.9,11.3c3.7,0.5,7.5,0.5,11.2,0.5
			c4,0,7.9-1,11.6-2.6c5.3-2.3,10.1-5.5,14.6-9.1c7.3-5.9,14-12.4,20.3-19.4c2.2-2.5,4.6-4.8,7-7.2c2.5-2.4,5.3-4.3,8.5-5.8
			c2.2-1,4.3-2.1,6.5-3.1c7-3.1,8.6-12.7,4.2-17.7c-0.8-1-1.5-2-2.4-3c-2.2-2.5-4.8-4.5-7.6-6.4c-1.3,1.8-2.3,3.5-3.5,5.1
			c-2.4,3.1-5,6-8.4,8.1c-3.2,1.9-6.5,2.2-9.9,0.9C287.7,685.2,287.1,684.9,286.3,684.6z M389.3,178.6c0.4,0.7,0.6,1.2,0.8,1.6
			c2.8,4.8,4.8,9.9,6.6,15.1c3,9.2,6.2,18.3,9.4,27.4c0.4,1.1,0.8,2.1,1.3,3.1c1.9,4.2,5,7.3,9.4,8.7c3.2,1.1,6.4,2.1,9.7,2.4
			c7.7,0.8,14.1-1.8,18.9-8c2.3-3.1,3.4-6.7,4-10.4c0.4-2.5,0.1-4.8-1.2-6.9c-1.3-2.1-2.7-4.2-4.3-6.1c-6.7-8.1-13.4-16.1-20.2-24.1
			c-2.5-3-4.6-6.1-6.2-9.7c-0.2-0.5-0.6-1-0.9-1.6c-3.6,1.7-6.9,3.3-10.4,4.9c-4.9,2.3-10,3.7-15.5,3.5
			C390.4,178.5,390,178.6,389.3,178.6z M420.2,239.3c-1,1.6-2,3.4-3.1,5.2c-6,9.7-12.2,19.3-18,29.2c-3.2,5.3-6,10.9-8.7,16.5
			c-2.3,4.9-3.4,10.1-3.3,15.6c0.1,1.9,0.5,2.5,2.3,3.1c0.5,0.2,1.1,0.3,1.6,0.3c3.6,0.6,7,0.1,10.3-1.3c6.8-2.9,13.5-5.8,20.2-8.9
			c3.3-1.6,6.4-3.6,9.6-5.4c0.9-0.5,1.6-1.3,1.9-2.3c2-5.8,3.5-11.8,3.7-18c0.3-8-1-15.8-2.8-23.5c-0.8-3.2-1.7-6.4-2.5-9.4
			C427.5,240.1,424,239.7,420.2,239.3z M175.6,254.5c-1.6,2.6-2.4,5.8-1.7,8.9c1.1,5.4,2.5,10.7,3.9,16.1c0.2,0.6,0.5,1.2,0.9,1.7
			c7.1,10,15.4,18.8,25,26.4c1.8,1.5,4.1,2.6,6.3,3.3c5,1.7,10.2,1.7,15.4,1.1c0.1,0,0.3-0.2,0.2-0.2c2.3-8.4,4.6-16.6,6.9-24.9
			c0.3-1.1,0-1.8-0.7-2.5c-13.6-14.3-29.5-24.4-49-28.6C180.4,255.4,178,255,175.6,254.5z M263.2,126.3c3-5.8,6.8-10.8,12.9-13.3
			c3.7-1.5,7.5-2.7,11.3-4c3.9-1.3,7.7-2.6,11.6-3.9c0.8-0.3,0.8-0.4,1.5-1.2c-2.9,0-5.8,0-8.8,0c-7.2,0.1-14-1.4-20.3-4.9
			c-0.8-0.4-1.4-0.5-2.3-0.2c-5.1,2-10.2,3.8-15.2,5.9c-3.8,1.6-7.4,3.9-10.5,6.7c-2.7,2.4-4.6,5.3-5.4,8.9
			c-0.4,1.8-0.8,3.7-0.4,5.7c5.2-3.7,15.3-8.7,17.5-8.7c-0.6,0.7-1.1,1.3-1.6,1.9c-1.9,2.6-3.9,5.1-5.5,7.8
			c-2.1,3.6-2.5,7.6-0.9,11.6c1.8,4.4,4.5,8.1,8.4,10.8c0.7,0.5,1.4,0.8,2.3,1.3c0.8-3.5,1.4-6.6,2.2-9.7c0.4-1.9,1-3.8,3.2-5.4
			c0,1.3,0.1,2.2,0,3.1c-0.1,1-0.5,2-0.6,3.1c-0.7,7.1,2.1,12.7,7.3,17.3c0.5,0.4,1.1,0.7,1.7,0.9c0.9,0.3,1.9,0.4,2.8-0.4
			c-0.3-0.8-0.6-1.5-0.9-2.2c-1.3-3.4-2.1-6.9-1.9-10.5c0.1-2,0.6-3.9,1.1-5.8c0.2-0.8,0.9-1.4,1.8-1c0.9,0.3,0.7,1.1,0.6,1.9
			c-0.3,1.4-0.8,2.8-0.8,4.2c-0.4,7.9,2.6,14.5,8.1,20c0.4,0.4,0.8,0.6,1.6,1.1c-0.1-1.3-0.1-2.3-0.2-3.2c-0.3-5.9-0.1-11.7,1-17.5
			c2-11,4.3-22,6.5-32.9c0.2-0.9,0.3-1.8,0.5-2.8C280.7,113.2,271.1,118.1,263.2,126.3z M421.6,154.4c0.3-4.1-0.4-8.5-1.8-12.8
			c-1.4-4.3-4.4-6.7-8.7-7.6c-1.3-0.3-2.7-0.4-4-0.4c-6.2,0.2-12.5,0.3-18.7,0.7c-6,0.4-11.9,1-17.9,1.4c-2.6,0.2-3.3,0.7-3.9,3.3
			c-0.2,0.8-0.4,1.7-0.4,2.6c0.1,3,0,6.1,0.6,9.1c1.4,7.3,4.2,14.1,9.6,19.5c2.1,2.1,4.5,4.1,7.5,4.5c5.2,0.7,10.6,1,15.7-0.6
			c6.8-2.2,13.1-5.5,19.3-8.9c1.6-0.9,2.4-2.3,2.5-4.1C421.3,159,421.4,156.9,421.6,154.4z M335.5,211.8c0,0.9,0,1.6,0,2.3
			c-0.1,4.9-1.8,7.6-6.4,9.3c-4.4,1.6-8.9,3.1-13.4,4.4c-4.9,1.4-9.9,2.1-14.9,1.2c-1.6-0.3-3.3-0.8-4.7-1.6
			c-2.5-1.4-3.3-3.8-2.4-6.6c0.3-1.1,0.9-2.1,1.3-3.1c1.2-2.8,2.1-5.6,2.4-8.7c-0.5-0.1-0.8-0.2-1.1-0.2c-5.7-0.7-11.3-0.6-17,0.2
			c-6.4,0.8-12.2,3-17.6,6.5c-2.7,1.8-5.1,3.9-6.9,6.6c-3,4.7-4.2,9.8-3.3,15.3c0.3,1.6,0.8,3.2,2.5,4.4c1.1-0.9,2.1-1.7,3.1-2.6
			c1.7-1.7,3.3-3.5,4.9-5.2c1.8-1.9,4-2.9,6.5-3.4c2.4-0.4,4.6-0.1,6.3,2c0.7,0.8,1.4,1.5,2.1,2.3c1.8,2,4,3.4,6.5,4.4
			c4.9,1.9,10.1,2.5,15.3,2.5c8.1,0.1,15.4-2.3,21.7-7.5c2.1-1.7,4.3-3.4,6.4-5.1c4.1-3.3,8.7-5.7,13.7-7.3c4.3-1.4,6-0.4,6.6,4
			c0.2,1.4,0.3,2.9,0.5,4.3c0.4,2.3,1.3,2.7,3.3,1.8c4.3-2.1,6.9-5.9,7.8-10.3c1.1-5,3.1-9.4,6.6-13c0.6-0.6,1.1-1.2,2-2.1
			C355.7,203.5,345.4,206,335.5,211.8z M437.4,636.7c-0.2,0.1-0.4,0.2-0.7,0.3c-0.2,1.8-0.6,3.6-0.7,5.4c-0.1,2.3,0,4.6,0,7
			c0,2.4,1.1,4.3,2.8,5.9c2.5,2.3,5.5,3.5,8.7,4.4c4,1.1,8,2.2,12,3.3c6.9,1.9,13.1,5.1,18.6,9.6c3.9,3.2,7.9,6.2,11.9,9.4
			c4.1,3.2,8.6,5.5,13.5,7.1c5.7,1.9,11.4,2.3,17.2,0.8c1.7-0.4,3.3-1.1,4.8-2c2.6-1.6,3.1-3.3,2.2-6.1c-0.9-2.9-2.5-5.3-4.5-7.6
			c-4.1-4.5-9.1-8-14.1-11.5c-4.6-3.3-9.6-5.7-15.2-6.8c-6.4-1.4-12.8-2.7-19-5.1c-0.8-0.3-1.5-0.3-2.1,0.4c-2,2.2-4.7,2.9-7.6,2.9
			c-5.7,0.1-10.8-1.9-15.6-4.8c-3.8-2.3-6.7-5.5-9.3-8.9C439.4,639,438.4,637.9,437.4,636.7z M350.6,351.8c-0.5,0.3-0.8,0.4-1,0.6
			c-4.7,2.9-9.3,6-14.1,8.6c-13.4,7.1-27.4,12.6-42.7,14.2c-5.7,0.6-11.3,0.7-16.9-0.8c-1.7-0.5-3.4-0.8-5.1-1.2
			c-2.4-0.4-4.9-0.7-7.3-1.2c-2.7-0.6-2.8-0.7-4.2,1.6c-0.5,0.7-0.9,1.5-1.3,2.3c-2.2,4.7-3.7,9.7-4.5,14.9
			c-0.7,4.1-0.6,4.2,3.3,5.4c5.2,1.7,10.7,2.1,16.1,2.2c10.3,0.1,20.2-2.3,29.5-6.4c18.3-8.2,35.1-18.8,49.8-32.4
			c0.2-0.2,0.4-0.5,0.6-0.8C352,356.5,351.4,354.2,350.6,351.8z M108.3,221.7c-1.1,0.1-2,0.2-2.9,0.2c-6.1-0.4-12.3-1-18.4-1.3
			c-6.8-0.3-12.3-3.2-17.1-7.7c-2.6-2.4-5-4.9-7.5-7.4c-4.4-4.3-9.4-7.4-15.3-9.2c-2.4-0.7-3.7,0.1-4,2.6c-0.3,2.1,0,4.2,1.1,6
			c1.2,2.1,2.5,4.1,4,6c4.4,5.8,9,11.4,13.5,17.2c1.3,1.7,2.9,2.7,4.9,3.2c2.8,0.7,5.6,1.2,8.4,1.9c9,2.3,17.9,4.7,26.9,7
			c0.8,0.2,1.5,0.4,2.3,0.6c0.5-5.8,0.6-6.1,4.3-11c4.1-5.5,8.8-10.3,14.2-14.5c0.9-0.7,1.9-1.5,2.8-2.2c-0.2-0.4-0.3-0.7-0.4-1
			c-2.2-4-3-8.4-3-12.9c0.1-5,1.1-9.8,2.2-14.7c0.4-1.6,0.7-3.3,0.7-5c0.1-2.1-1-3.1-3.2-2.9c-3.4,0.3-5.9,2.3-8.1,4.7
			c-1.9,2.1-1.9,4.4-1.1,7c0.4,0.2,0.8,0.4,1.2,0.7c6.6,3.2,7.5,11.4,5.2,16.4c-1.8,3.8-5.7,5.4-9.6,3.9c-0.5-0.2-1-0.4-1.7-0.7
			c-0.2,0.9-0.4,1.8-0.7,2.6c-1,3.5-3.4,5.1-7,4.7c-2.8-0.3-5.2-1.4-7.4-3.1c-0.5-0.4-1.1-0.9-1.4-1.1c-1.6,2-3.1,3.8-4.6,5.7
			c0.2,0.1,0.6,0.2,1,0.2c4.1,0.4,8.1,0.7,12.2,1.1c2.1,0.2,4.1,0.5,6.2,0.9C107.1,219.6,108.2,219.8,108.3,221.7z M335.1,148.4
			c4.2,3.2,11.7,4.8,15.9,4c4-0.7,7.3-2.7,10.5-4.9c1-0.7,1.4-1.5,1.5-2.7c0.1-2.3,0.3-4.6,0.9-6.9c0.9-3.5,2.7-4.6,6.3-4.7
			c1.1,0,2.3-0.1,3.6-0.2c-1.3-2.8-2.5-5.2-3.6-7.7c-2.9-6.8-7-12.5-12.8-17.1c-4.5-3.6-8.1-7.9-10.6-13.1c-0.1-0.1-0.2-0.2-0.5-0.4
			c-9.8,0.1-18.8,4-28.3,6.6c0.6,3,2.2,5.2,4.4,6.8c2.1,1.6,4.4,2.9,6.7,4.2c2.5,1.4,5.2,2.5,7.7,3.9c3.3,1.8,6.2,4.2,8.4,7.4
			c5.8,8.4,2.2,20.2-7.4,23.9C337,147.8,336.2,148,335.1,148.4z M176.3,246c-6.6,0-11.5-2.8-15.9-6.8c-1.8-1.7-3.5-3.5-5.3-5.2
			c-0.8-0.8-1.6-1.5-2.6-2.1c-2.4-1.4-4.5-1.3-6.6,0.5c-1.3,1.1-2.5,2.3-3.4,3.7c-1.9,2.9-3.7,5.8-5.4,8.8c-1.6,3-2.3,6.3-2.4,9.7
			c-0.1,2.1,0.6,3.8,2.2,5.4c5.6,5.6,11.3,11.1,18,15.5c1.5,1,2.8,2.1,4.2,3.2c5.9,4.6,11.8,9.3,17.8,13.9c0.4,0.3,1,0.6,1.8,1.1
			c-0.4-1.2-0.6-2-0.9-2.7c-2.7-7.8-5.1-15.7-6.8-23.7c-0.7-3.2-1-6.5-0.2-9.8c0.8-3.2,2.3-6.1,4-8.9
			C175.3,247.7,175.7,247,176.3,246z M238.8,265c0.2-0.4,0.4-0.6,0.5-0.8c2.5-8,5.3-15.9,8.9-23.5c0.3-0.5,0.4-1.2,0.3-1.8
			c-0.2-1.7-0.5-3.3-0.7-5.1c-0.7-0.3-1.5-0.6-2.3-0.9c-9.9-3.4-20-4.1-30.3-2.5c-10.7,1.6-20.5,5.9-30.1,10.9c-2.1,1.1-3,3.1-4.3,5
			C201.6,248.5,221.2,253.6,238.8,265z M132.3,260.5c-0.3-2.4-0.8-4.5-0.8-6.6c0.1-3.8,1-7.4,2.9-10.8c1.5-2.7,3-5.5,4.8-8
			c1.4-2,3.1-3.9,5-5.5c2.5-2.1,5.5-2.5,8.6-1.3c0.5,0.2,1,0.3,1.9,0.6c-3-7.2-7-13-12.9-17.5c-3.1-2.4-4.6-2.5-7.8-0.4
			c-6.3,4.1-12.4,8.6-17.4,14.2c-2.7,2.9-5.1,6.2-7.5,9.3c-1.8,2.3-1.8,4.8-0.7,7.5c1.2,2.8,2.3,5.6,3.5,8.4c1,2.2,2.1,4.5,3.5,6.5
			c1.6,2.5,4,4,6.9,4.2C125.7,261.5,129.1,261,132.3,260.5z M409.7,234.8c-2.2-3.1-4.2-6.1-6.4-9.3c-0.7,0.1-1.7,0.2-2.6,0.4
			c-8.1,1.4-15.7,4.4-23.2,7.6c-4.9,2.1-9.7,4.2-14.9,5.3c-0.3,0.1-0.6,0.3-1,0.5c2.6,14.7,7.4,28.8,12.9,42.7
			c0.3-0.6,0.5-1.3,0.6-1.9c1.3-9.6,5.2-18.1,11.3-25.5c6.1-7.3,13.4-13.2,21.3-18.4C408.5,235.6,409.2,235.2,409.7,234.8z
			 M418.5,238.7c-2.4-1-4.5-1.9-6.8-2.9c-1.3,0.9-2.8,1.8-4.2,2.9c-7.6,5.4-14.8,11.2-20.5,18.7c-6.4,8.5-10.1,17.9-10,28.7
			c0,1.7,0.3,3.3,1.1,4.9c1.8,3.6,3.5,7.2,5.3,10.8c0.3,0.5,0.7,1,1.2,1.8c0.4-2.3,0.6-4.1,1-6c1-5,3-9.6,5.3-14.1
			c3.8-7.5,8.4-14.6,12.9-21.6C408.7,254.2,413.5,246.6,418.5,238.7z M233.5,283.6c1.7-5.7,3.3-11,5-16.5c-2.2-1.4-4.2-2.7-6.4-3.9
			c-10.7-6.1-22.3-9.9-34.3-12.5c-5.4-1.2-10.9-1.9-16.3-2.7c-0.8-0.1-2,0-2.4,0.5c-1.1,1.3-1.9,2.9-3,4.6
			c11.3,1.6,21.8,4.7,31.5,10C217.1,268.3,225.6,275.1,233.5,283.6z M332.1,206.7c-6.4,0.7-12.3,0.1-18.1-1.1
			c-1.9-0.4-3.9-0.9-5.6-1.8c-2.1-1-3.9-2.5-5.8-3.8c-0.5-0.3-1-0.7-1.5-1c-0.1,0.3-0.2,0.5-0.2,0.6c0,0.7-0.1,1.4-0.1,2.2
			c-0.2,6.5-0.9,12.9-3.9,18.9c-0.2,0.4-0.3,0.7-0.4,1.1c-0.4,1.4-0.1,2.4,1.1,3.1c0.8,0.5,1.7,0.9,2.6,1c2.2,0.3,4.5,0.5,6.7,0.4
			c7.9-0.5,15.3-3.3,22.6-6.2c2.2-0.9,3.2-2.7,3.2-4.9C332.5,212.5,332.3,209.8,332.1,206.7z M436,289.8c0.7-0.3,0.9-0.4,1.1-0.5
			c3.8-3.5,7.5-6.9,11.2-10.4c0.4-0.4,0.9-1,1-1.6c1.5-5.3,2.5-10.6,1.4-16.1c-1.7-8.7-6.5-15.8-11-23.3c-2.4,0.8-4.6,1.5-6.9,2.3
			C438.4,256.4,441.9,272.6,436,289.8z M187.4,237.4c19.4-9.9,39.3-13.6,60.4-6c1-3.3,2-6.4,3-9.7c-5.3-2-10.7-3.6-16.5-3.7
			c-10.8-0.2-20.9,2.3-30.4,7.5c-3.9,2.1-7.7,4.6-11.6,6.7C190.1,233.4,188.6,235.1,187.4,237.4z M402.8,223.5
			c-0.1-2.6-1.3-4-3.8-4.5c-3.1-0.5-6.3-1.4-9.4-1.7c-10.6-0.9-19.6,2.8-27.3,9.9c-0.5,0.4-1,1-1,1.5c-0.4,2.9-0.3,5.8,0.3,8.9
			c1.1-0.3,2-0.4,2.8-0.7c4.3-1.7,8.7-3.3,12.9-5.1c8-3.4,16.1-6.6,24.8-8C402.3,223.7,402.5,223.6,402.8,223.5z M314.7,491.9
			c-1.2,9.1-2.4,18.2-3.6,27.7c1.2-0.9,2-1.4,2.7-2c3.4-3,6.9-6,10.2-9.1c4.7-4.3,9.4-8.6,14.9-12c0.3-0.2,0.6-0.2,1-0.4
			c-2.6-3.1-4.9-5.7-6.9-8.2C326.7,489.3,320.8,490.6,314.7,491.9z M225.1,314.4c-2.2,0-4.1,0-6,0c-7.6,0-14.2-2.4-19.9-7.6
			c-6.3-5.8-12.5-11.7-17.7-18.5c-0.3-0.4-0.6-0.7-0.9-1c-0.1,0.9,0.1,1.6,0.4,2.4c2.1,5.1,4.2,10.2,6.2,15.3
			c1.3,3.4,3.7,5.9,6.8,7.8c8.6,5.2,17.4,9.9,26.4,14.1c0.6,0.3,1.3,0.5,2.1,0.8C223.4,323.2,224.3,318.9,225.1,314.4z M381.3,486.7
			c4.1-0.8,7.1-2.1,9.3-4.1c-3.4-10.9-5.1-22.3-8.3-33.5c-4.4,1.6-8.2,3.6-11.8,6.3C374.2,465.9,377.7,476.2,381.3,486.7z
			 M380.4,189.1c0.1,0.1,0.2,0.3,0.3,0.4c-1.8,1.7-3.7,3.4-5.5,5c1.2,1.9,2.8,3,4.8,3c4.7,0,8.7-1.6,11.5-5.8
			c0.5-0.8,0.7-1.6,0.2-2.5c-1.5-3.2-3-6.5-4.6-9.7c-0.3-0.5-1-1.1-1.6-1.2c-2.7-0.3-5.1-1.1-7.5-2.4c-1.2-0.7-3.2,0.2-3.8,1.4
			c-3.5,6.7-8.2,12.4-13.9,17.2c-0.5,0.4-1,0.9-1.7,1.6c4.6,0.6,8.6-0.2,12.4-2.1c2.6-1.3,5.1-2.7,7.6-4.1
			C379.2,189.7,379.8,189.4,380.4,189.1z M451,224.9c-2,5.2-5.3,9-9.7,12c0.9,1.3,1.6,2.5,2.4,3.6c3.1,4.8,6.1,9.8,8,15.2
			c1.7,4.8,2.3,9.6,1.6,14.6c-0.1,0.5-0.1,1-0.2,1.5c0.3-0.1,0.4-0.1,0.4-0.1c0.2-0.3,0.5-0.6,0.7-1c3.1-4.9,4.2-10.3,4.7-15.9
			c0.6-7,0.3-13.9-2.1-20.6C455.7,230.9,454,227.8,451,224.9z M361.6,224.7c11.8-10,24.8-12,39.4-7.2c-0.6-1.9-1.1-3.3-1.5-4.7
			c-0.4-1.5-1.3-2.5-2.5-3.4c-4-2.9-8.5-4.8-13.4-5.6c-3-0.5-5.9-0.2-8.6,1.2c-4.7,2.4-8.4,5.8-11.1,10.3
			C362.3,218.1,361.7,221.1,361.6,224.7z M395.9,78c-0.1-7.3-0.3-14.3-1.3-21.3c-0.9-6.3-2.8-12.3-5.5-18c-0.8-1.6-1.8-3.2-3.1-4.5
			c-1.2-1.3-2.8-2-5.1-1.2c0.4,1.6,0.8,3.1,1.3,4.6c0.9,2.7,2,5.2,2.7,7.9c2.3,9.6,3.5,19.3,2.5,29.2c0,0.3,0.1,0.6,0.1,0.9
			C390.2,76.3,392.9,77.1,395.9,78z M195.7,227.3c0.1,0.2,0.2,0.3,0.3,0.5c6.6-4.2,13.5-7.9,21.2-9.8c7.6-1.9,15.3-2.9,23.1-1.7
			c-3-2.2-6.1-4.3-9.6-5.3c-8.4-2.5-16.4-2.5-23.2,4.3C203.6,219.3,199.7,223.3,195.7,227.3z M106.5,175.9c-0.2-0.8-0.4-1.6-0.6-2.2
			c-1.1-3.1-2.5-6.1-3.4-9.2c-0.7-2.3-2.3-3.5-4.2-4.6c-1-0.6-1.9-0.5-2.5,0.4c-0.7,1-1.5,2.2-1.7,3.3c-1.1,6,0.5,11.2,4.8,15.5
			c0.9,0.9,2.2,1.5,3.5,2c1.6,0.6,2.5,0.3,3.1-1.2C105.9,178.6,106.1,177.2,106.5,175.9z M365.4,159.4c-5.8,4.1-12.6,4.8-19.5,5.5
			c5.7,6.7,17.6,8.4,24.3,3.9C368.7,165.8,367.2,162.7,365.4,159.4z M345.5,203.8c0,0.1,0.1,0.2,0.1,0.3c0.6-0.1,1.2-0.3,1.8-0.4
			c7.3-1.8,14.5-2.1,21.7,0.5c0.6,0.2,1.4,0,1.9-0.3c2.7-1.6,5.5-2.8,8.7-3.4c-2.8-0.6-5-2.1-6.4-4.6c-0.9,0.4-1.7,0.8-2.5,1.2
			c-3.2,1.4-6.5,2.1-10,1.8c-1.7-0.2-3.5-0.8-5.1-0.5c-1.6,0.4-3,1.8-4.5,2.6C349.3,201.9,347.4,202.8,345.5,203.8z M32.4,212.3
			c-0.3,0.2-0.5,0.3-0.6,0.4c-2.9,3.1-2.3,5.3,1.8,6.1c6.3,1.2,12.7,2.2,19.2,3.3c-0.3-0.5-0.5-0.9-0.8-1.2c-1.3-1.7-2.8-3.3-4-5.1
			c-0.9-1.3-2-1.8-3.6-1.8C40.3,214.2,36.3,213.7,32.4,212.3z M381.8,200.4c1.9,0.4,3.7,0.7,5.4,1.2c1.6,0.4,3.2,0.9,4.8,1.6
			c1.5,0.6,3,1.5,4.9,2.4c-0.7-2.2-1.2-4-1.7-5.7c-0.5-1.8-1.1-3.6-1.7-5.5C388.9,198.5,387.4,199.2,381.8,200.4z M351.8,155.3
			c4.2,1.1,8.3,1.3,12.4-0.6c-0.4-1.9-0.7-3.5-1.1-5.6C359.7,152.5,355.9,154.2,351.8,155.3z M364.7,173.8c3.6,0.9,6.8,1.1,10.3-0.1
			c-1-1.1-1.8-1.9-2.6-2.7C369.8,171.9,367.5,172.8,364.7,173.8z M343.1,204.8c-0.1-0.1-0.1-0.1-0.2-0.2c-2.6,0.6-5.2,1.2-8,1.8
			c0.1,0.7,0.2,1.4,0.3,2.2C338,207.3,340.6,206.1,343.1,204.8z"/>
		<path class="st0" d="M343.6,224.2c0.2,1.2,0.5,2.1,0.6,3c0.2,1.5,0.3,3,0.7,4.5c0.8,3.3,3.2,4.5,6.4,3.4c0.6-0.2,1.2-0.4,1.9-0.7
			c0,0.8,0.1,1.4,0,2c-1.3,11.7-2.7,23.3-4,35c-1.8,16.1-3.5,32.3-3.1,48.5c0.2,9,1.4,17.8,3.4,26.6c0.2,0.8,0.3,1.5,0.5,2.4
			c-0.9,0.6-1.6,1.2-2.4,1.7c-12.8,8-26.3,14.5-40.9,18.6c-6.9,2-14.1,3.1-21.3,3.1c-2.4,0-4.8-0.4-7.1-0.8
			c-3.7-0.6-7.4-1.4-11.1-2.1c-1.3-0.2-2.1-0.7-2.7-2c-3.7-9.2-7.1-18.5-8.5-28.4c-0.6-4.5-1.1-9.1-1.1-13.6
			c-0.3-18.5,0.8-36.9,3.1-55.3c1.2-9.3,2.5-18.5,3.7-27.8c0.1-0.6,0.1-1.1,0.2-1.7c0.4-4.2,3.9-7.4,8.2-7.4c0.7,0,1.4,0.3,1.9,0.7
			c0.6,0.4,1.1,0.9,1.5,1.5c3.5,4.5,8.4,6.8,13.8,7.9c6.3,1.4,12.7,1.6,19.1,0.5c5.8-1,10.9-3.6,15.5-7.2c2.3-1.8,4.6-3.7,7-5.5
			c3.7-2.9,7.8-5,12.2-6.5C341.8,224.6,342.5,224.5,343.6,224.2z"/>
		<path class="st0" d="M316,389c6.5-4,13.3-7.8,19.6-12.2c6.3-4.4,12.1-9.3,18.3-14.1c3.9,11.2,7.8,22.4,11.7,33.6
			c-0.2,0.1-0.3,0.2-0.5,0.3c-5.6-4.7-10.7-10-17.4-13.4c0.5,0.5,1,1.1,1.5,1.6c5.2,4.6,10.4,9.3,15.6,13.9c1.4,1.3,2.3,2.7,2.9,4.5
			c4.1,12.7,8.3,25.4,12.4,38.1c0.5,1.5,0.9,3,1.3,4.7c-0.5,0.3-0.8,0.5-1.2,0.6c-7.3,2.7-13.5,7-18.9,12.4
			c-2.2,2.2-4.3,4.5-6.4,6.9c-1.4,1.5-2.8,3.1-4,4.8c-7.6,9.6-17.7,14.6-29.5,16.9c-8.4,1.6-16.7,1.3-25-0.2
			c-3.9-0.7-7.9-1.4-11.9-1.7c-9.7-0.9-18.9,1.1-27.5,5.9c-2.4,1.3-4.7,2.7-7.1,4c-0.9,0.5-1.8,0.9-2.9,1.3c-1.5-2.1-1.7-4.5-2-6.7
			c-0.7-3.9-0.5-7.8,0.1-11.7c1.7-12.2,3.1-24.4,5.3-36.5c2.4-13.5,6.4-26.6,10.8-39.5c0.2-0.4,0.4-0.9,0.6-1.5
			c7.7,1,15.3,1.2,23.2-0.3c-1.5,9.2-3.1,18.1-4.5,26.9c-1.4,9-2.7,18-3.9,27.1c-1.2,8.9-2.5,17.8-2.3,26.9c0.1-0.4,0.3-0.8,0.4-1.2
			c3.2-22.1,6.4-44.2,9.5-66.2c0.6-3.9,1-7.8,1.5-11.7c0.3-2,0.3-2,2.2-2.5c1-0.2,2-0.5,3.3-0.8c4.4,22.9,8,45.9,13.1,68.5
			c-2.4-23.1-7.1-45.9-11.5-68.5c7.4-3.1,14.6-6.2,22-9.3c0.2,0.3,0.7,0.7,1,1.2c1.5,2.6,3.2,5.2,4.5,7.9
			c5.6,11.6,11.1,23.2,16.6,34.9c0.4,0.8,0.8,1.6,1.4,2.3c-0.3-0.9-0.6-1.7-0.9-2.6c-4.7-11.5-9.5-22.9-15.3-33.9
			C320.5,395.9,318.2,392.6,316,389z M343.1,383.8c9.2,14.6,14.2,30.9,19.9,46.9C359.1,413.9,354.4,397.5,343.1,383.8z"/>
		<path class="st1" d="M357.8,230.6c0.5,11.7,3.7,22.6,7.1,33.4c4.3,13.6,9.2,26.9,16.1,39.5c1.1,2,2.3,3.8,3.7,5.6
			c1.4,1.9,3.4,2.8,5.7,3.1c2.8,0.4,5.6,0.3,8.3-0.3c0.5-0.1,0.9-0.2,1.8-0.3c-0.5,1.1-0.9,2-1.2,2.8c-2.6,5.4-4.9,11-5.6,17
			c-0.4,3.9-0.8,7.8-0.6,11.7c0.8,18.2,3.6,36.1,8.6,53.6c4.7,16.5,13.2,30.8,25.2,43c3.7,3.8,7.4,7.5,11,11.4c2.8,3,5.2,6.3,7,10
			c1.2,2.6,1.1,3-1.1,4.9c-1.9,1.6-4.2,2.3-6.6,2.7c-9.5,1.6-18.5,5-27.4,8.6c-1.3,0.5-2.6,1.2-3.9,1.8c-3.5,1.8-6.2,4.5-7.9,8.1
			c-0.4,0.8-0.8,1.5-1.4,2.6c-0.4-0.9-0.7-1.5-0.9-2.1c-3.1-8.4-5.1-17.2-7-25.9c-3.7-17.2-9.1-33.8-14.8-50.4
			c-6.2-17.8-12.2-35.7-18.2-53.6c-6.1-18.1-7.8-36.7-6.3-55.7c1.3-16.1,2.9-32.2,4.3-48.3c0.6-6.4,1.1-12.7,1.5-19.1
			C355.6,233,356.1,231.7,357.8,230.6z"/>
		<path class="st1" d="M250.1,242.9c0.5,0.5,0.8,0.6,1,0.9c1.3,1.4,2.8,1.4,4.4,0.5c1.3-0.8,2.4-1.8,4-2.9c-0.2,1.6-0.4,2.8-0.6,4.1
			c-1.7,11.2-3.6,22.4-4.9,33.7c-1.1,10.3-1.6,20.7-2.2,31.1c-0.3,5.7-0.2,11.3-0.1,17c0.1,13,3.3,25.3,8,37.3
			c0.4,1,0.8,1.9,1.1,2.9c0.1,0.1,0,0.3,0.1,0.6c-2.9,1.2-4.4,3.7-5.7,6.4c-2.7,5.6-4.3,11.5-5.2,17.6c-0.5,3.5,0.4,4.9,3.7,6.3
			c1.6,0.7,3.3,1.1,5.1,1.7c-0.2,0.6-0.3,1.1-0.4,1.6c-6.9,19.2-12,38.8-14.3,59.1c-0.8,7.3-1.8,14.6-2.5,21.9
			c-0.4,4.2,0.2,8.5,1.3,12.6c0.2,0.8,0.5,1.5,0.8,2.2c1.1,2.2,2.6,2.9,4.9,2c1.6-0.6,3-1.4,4.5-2.2c3.3-1.8,6.6-3.5,9.9-5.3
			c0.7-0.4,1.4-0.6,2.5-1c0.4,14.3,0.1,28.3-0.3,42.5c-1,0-1.9,0.1-2.7,0c-5.1-0.4-10.2-0.9-15.3-1.3c-9.1-0.8-17.9,0.4-26.3,4
			c-0.5,0.2-1,0.4-1.6,0.6c-0.1,0-0.3,0-0.7,0c0.2-0.8,0.3-1.7,0.5-2.5c3.3-10.9,4.7-22.1,4.6-33.4c-0.1-11.8-0.3-23.5-0.7-35.3
			c-1-27.8-2.1-55.6-1.4-83.5c0.2-10.6,0.7-21.3,1.3-31.9c0.9-14.6,3.5-29,7.1-43.2c4.9-19,10.3-37.8,16.8-56.3
			C247.9,248.2,249,245.7,250.1,242.9z"/>
		<path class="st2" d="M287.3,681.7c0.5-1.7,0.9-3.3,1.5-4.9c3.9-10.6,3.6-21.4,1.2-32.2c-1.6-7.1-3.9-14-5.8-21
			c-2.3-8.4-4.4-16.9-6.8-25.2c-1.5-5.1-3.4-10.1-5-15.2c-2.7-8.4-3.9-17-3.8-25.8c0.1-12.1,0.1-24.2,0.1-36.2
			c-0.1-9.4-0.3-18.9-0.5-28.3c0-0.8,0-1.6,0-2.5c2.4-1.1,4.9-1.3,7.4-1.6c5.9-0.9,11.6,0.1,17.4,1.1c5.8,1,11.5,1.9,17.4,2
			c0.3,0,0.6,0.1,1.1,0.2c-0.2,2.1-0.3,4.2-0.6,6.2c-1.9,12.7-3.9,25.4-5.9,38.1c-0.9,6.1-1.9,12.2-2.8,18.2c-0.7,5-0.5,10.1,0.5,15
			c0.1,0.4,0.3,0.8,0.2,1.2c-0.6,2.1,0.7,3.4,1.7,4.9c3.4,5.1,6.2,10.4,8.4,16.1c2.2,5.7,1.8,11.6,1.2,17.5
			c-1.1,11.1-3.8,21.9-6.3,32.7c-1.5,6.5-2.3,13.1-1.8,19.7c0.1,2.1,0.4,4.1,1.4,6c0.4,0.7,0.4,1.3,0,2c-2.8,4.4-5.8,8.6-10.2,11.7
			C293.9,683.7,291,683.8,287.3,681.7z"/>
		<path class="st2" d="M335.4,486.6c0.6-0.3,1.2-0.7,1.8-1c5.6-2.6,10.4-6.3,14.4-11c2.6-3,5.2-6.1,7.8-9.1c2.7-3.1,5.7-6.1,9.3-8.9
			c0.3,1,0.6,1.8,0.8,2.6c5.3,18.1,11.3,36,17.8,53.7c4.4,11.9,9.9,23.2,17.1,33.7c4.7,6.9,8.6,14.4,12.9,21.6
			c8.6,14.2,17.3,28.2,25.7,42.5c3.7,6.3,6.7,12.9,10.1,19.4c1.4,2.6,2.7,5.3,4.1,7.8c2.6,4.6,6.3,8,11.3,10
			c0.7,0.3,1.4,0.7,2.3,1.1c-2.4,1.5-4.8,1.9-7.3,1.6c-7.2-0.9-13.3-4-18.1-9.4c-1.3-1.5-2.5-3.1-3.9-4.5c-1.2-1.2-2.7-2.2-4-3.4
			c-0.7-0.6-1.4-1.3-1.8-2.1c-2.2-4.7-4.4-9.4-6.6-14.1c-3.3-7.5-7.9-14-13.9-19.6c-6-5.6-12-11.1-18.5-15.9
			c-5.7-4.2-10.6-9.3-14.6-15.1c-2.9-4.3-4.9-8.9-6.3-13.9c-1.6-5.5-3-11-5-16.3c-2.7-7.2-7-13.6-11.3-20
			c-6.6-9.8-14.3-18.8-22.4-27.5c-0.5-0.5-1-1.1-1.4-1.6C335.4,487.1,335.5,486.9,335.4,486.6z"/>
		<path class="st3" d="M315.4,101.9c1.7,6.2,6.1,9.7,11.4,12.4c2.2,1.2,4.4,2.2,6.6,3.3c3.1,1.6,5.9,3.5,8.2,6.1
			c6.3,7.3,3.5,18.1-5.7,21.3c-1.1,0.4-2.2,0.6-3.2,0.9c-1,0.2-1.9,0.4-2.1,1.6c-0.2,1.1,0.6,1.8,1.4,2.3c1.5,1,3.1,2.2,4.8,2.7
			c5.7,1.9,11.4,3.7,17.1,5.4c3.2,0.9,6.5,0.6,9.7-0.5c0.3-0.1,0.6-0.1,1.1,0.2c-0.8,0.5-1.6,1-2.4,1.4c-3.9,2-8.1,2.8-12.5,3.2
			c-1.5,0.2-3,0.2-4.5,0.4c-2.3,0.3-2.8,1.7-1.3,3.5c0.4,0.6,1,1.1,1.5,1.5c4.4,3.6,9.3,5.8,15.1,6c0.6,0,1.4,0,1.8,0.3
			c2.7,1.9,5.8,2.6,9.2,2.7c-0.1,0.4-0.1,0.7-0.3,1c-5,6.8-10.4,13.1-17.5,17.9c-8.8,6-18.6,8.3-29.1,8.1c-4.6-0.1-9-1.1-13.5-2.2
			c-0.6-0.1-1.2-0.5-1.7-0.9c-9.1-5.7-15.7-13.4-19.4-23.7c-2.9-8.3-3.4-16.7-2.5-25.3c1-9.8,3.4-19.4,5.2-29
			c0.8-3.9,1.7-7.8,2.5-11.7c0.3-1.3,0.8-2,2.1-2.6c2.7-1.3,5.3-3,7.9-4.4c0.7-0.4,1.4-0.8,2.2-0.9
			C310,102.7,312.6,102.4,315.4,101.9z M327.9,188.4c1.8-0.4,3.6-0.7,5.3-1.2c1.8-0.5,2.1-1.2,1.5-3c-0.2-0.7-0.6-1.3-0.9-1.9
			c-3.1-4.8-7.3-8.2-12.7-10.1c-1.3-0.4-2.6-0.7-4-0.8c-3.6-0.2-6.6,1.1-8.7,4.1c-0.8,1.2-1,2.3,0,3.7c1.6,2.1,3.4,3.8,5.6,5.1
			C318.4,186.9,323,187.9,327.9,188.4z M326.4,120.7c1.2-0.1,2.7-0.2,4.1-0.5c1.7-0.3,2.6-1.1,2.3-1.9c-0.5-1.2-1.7-0.7-2.5-0.6
			c-3,0.3-6.1,0.2-9-0.5c-5.5-1.2-10.8-2.9-15.2-6.6c-0.4-0.3-1.3-0.5-1.7-0.3c-0.8,0.4-0.6,1.3-0.2,1.9c0.6,0.7,1.3,1.5,2,2
			C312.2,118.2,318.9,120.3,326.4,120.7z M329,136.3c-0.7,0.7-1.2,1-1.3,1.3c-0.4,0.9-0.7,1.8-1,2.7c-1.4,4.2-3.5,8-6.7,11.2
			c-2.9,2.8-2.3,8,1,10.3c0.8,0.6,1.7,1.2,3.1,0.5c-0.6-1.1-1.1-2.2-1.7-3.2c-1.9-3.2-1.8-4,0.7-6.7c3.5-3.7,5.4-8.1,6-13
			C329.3,138.7,329.1,137.7,329,136.3z M326.6,132.1c-0.1-0.2-0.3-0.4-0.4-0.7c-1,0.3-2.1,0.6-3.1,0.9c-3.8,1.3-7.6,1.8-11.6,1.2
			c-2.4-0.4-4.5-1.5-5.7-3.6c-1.1-1.9-1.9-4-2.8-6.1c-0.2-0.4-0.1-0.8-0.2-1.2c-0.2-0.3-0.5-0.7-0.8-0.7c-0.4,0-1,0.3-1.1,0.6
			c-0.2,0.6-0.3,1.4-0.2,2.1c0.6,3,1.9,5.6,3.9,7.9c1.4,1.6,3.2,2.7,5.3,3.2c5.1,1.2,10,0.6,14.6-1.9
			C325.2,133.4,325.9,132.7,326.6,132.1z"/>
		<path class="st4" d="M43.7,210.5c-6.4,1.1-12-1.2-15.2-6.3c-3.5-5.6-5-11.8-4.9-18.3c0.2-8.9,2.6-17.2,7-24.9
			c4.8-8.3,12.4-13,21.4-15.4c2.6-0.7,5.3-1.1,8-1.2c9.1-0.6,18,0.6,26.4,4.4c3.5,1.6,6.7,3.7,9.6,6.3c0.3,0.3,0.6,0.7,1.1,1.2
			c-4.5,1.1-6,4.5-6.5,8.4c-0.7,5.5,1,10.4,4.2,14.9c1.5,2,3.5,3.4,5.9,4.4c2.8,1.2,5.5,0.5,6.9-2c0.1-0.2,0.3-0.3,0.6-0.6
			c1,2.1,1.2,4.4,1.4,6.6c0.2,1.9,0.8,2.9,2.7,3.6c5.6,2,6.3,9.9,3.6,13.6c-1.2,1.7-3.2,2.3-5.1,1.4c-1.1-0.5-2-1.5-3-2.3
			c-0.3-0.2-0.5-0.6-0.7-1c-0.5-0.8-1.2-1.4-2.2-0.8c-0.8,0.5-0.8,1.3-0.4,2.1c0.7,1.5,0.5,3.1,0.2,4.7c-0.7,3.3-2,4.2-5.3,3.4
			c-3.2-0.7-5.6-2.6-7.5-5.2c-0.4-0.5-0.6-1.2-1.1-1.6c-0.4-0.3-1.1-0.6-1.4-0.4c-0.4,0.1-0.7,0.8-0.9,1.3c-0.1,0.4,0.1,0.9,0.1,1.4
			c0.2,3.8-2.3,6.8-6.1,7.4c-1.8,0.3-3.5,0.2-5-0.9c-1.8-1.4-3.8-2.6-5.5-4.2c-2.6-2.3-4.9-4.8-7.4-7.2c-4.6-4.6-10-7.9-16.2-9.9
			c-4.8-1.5-8.2,0.8-8.6,5.9c-0.2,2.7,0.5,5.2,1.8,7.6C42.2,208,43,209.2,43.7,210.5z M57.9,172.1c0,8.6,5.6,15.3,13.7,16.7
			c1.3,0.2,2.7,0.4,4,0.7c3,0.6,5.2-0.3,6.6-3c1.4-2.5,1.8-5.3,1.5-8.1c-1.1-8.4-8.2-15-16.7-15.4c-4.9-0.3-8.3,2.5-9,7.4
			C57.9,171,57.9,171.8,57.9,172.1z M97.1,187.5c-1.3-0.5-2.5-1-3.7-1.4c-1.2-0.4-2.6-0.7-3.5,0.5c-0.9,1.2-0.5,2.5,0.1,3.6
			c0.7,1.2,1.7,2.4,2.7,3.3c1.1,0.9,2.4,1.5,3.6,2.3c0.5,0.3,1.1,0.6,1.6,1c1.7,1.3,3.6,1.3,4.8-0.3c2-2.6,2.8-5.6,2-8.8
			c-0.7-2.8-3.2-3.6-5.6-2C98.5,186.1,97.9,186.8,97.1,187.5z"/>
		<path class="st1" d="M267.8,58.1c4.9,1.4,9.7,2.2,14.6,2c2.9-0.1,5.7-0.4,8.6-0.8c1.3-0.2,2.5-0.1,3.7,0.4c4.6,2,9.3,3.5,14.4,3.4
			c2.5-0.1,5.1-0.6,7.6-1.1c0.9-0.2,1.6-0.4,2.4,0.3c3.4,2.6,7.2,2.8,11.2,1.9c1.9-0.4,3.8-1.1,5.7-1.7c4-1.2,7.9-1.3,11.7,0.4
			c0.9,0.4,1.9,0.7,2.6-0.3c0.8-0.9,0.2-1.9-0.3-2.6c-0.9-1.2-1.7-2.3-2.8-3.3c-5-4.7-10.1-9.3-15.2-14c-0.2-0.2-0.3-0.3-0.7-0.8
			c0.7,0.1,1.2,0.1,1.7,0.3c5.8,1.5,11,4.4,16.2,7.1c4.4,2.3,8.6,4.9,12.9,7.4c1,0.6,1.8,1.3,2,2.5c1.9,9.5,2.5,19.2,2.3,28.9
			c-1.3,0.3-2.3-0.3-3.1-1c-1.9-1.8-3.8-3.6-5.5-5.6c-1.3-1.4-2.2-3.1-3.5-4.6c-0.9-1.1-2-2.1-3.2-2.9c-3.2-2-6.7-0.4-7,3.4
			c-0.2,2.7,0,5.4,0.2,8.1c0.1,1.8,0.6,3.6,1,5.6c-2,0.3-4,0.3-5.9,0.8c-4.9,1.2-9.8,2.2-14.6,3.8c-10.3,3.4-20.9,4.8-31.7,4.6
			c-3.1-0.1-6.2-0.1-9.3-0.5c-4.3-0.6-8.3-2.4-12.1-4.5c-5.9-3.3-8.8-8.4-9.8-14.8c-0.6-4.1-0.1-8.1,1.1-12.1
			C264.2,64.9,265.6,61.4,267.8,58.1z"/>
		<path class="st3" d="M377,132.9c-0.8-1.6-1.5-3.1-2.1-4.5c-1-2.3-2-4.7-3-7c-2.5-5.5-6-10.3-10.7-14.3c-1.6-1.4-3.3-2.8-4.8-4.3
			c-6.7-6.5-9.2-14.6-9.2-23.7c0-1-0.2-2.3,1.1-2.7c1.1-0.4,2,0.4,2.7,1.2c1.2,1.4,2.2,2.9,3.4,4.3c1.9,2.2,3.8,4.5,5.9,6.6
			c1.8,1.9,4.2,2.9,6.8,3.2c2.5,0.4,4.9,0.7,7.4,1c2.7,0.3,5.3,0.9,7.7,2.4c1.8,1.2,2.3,1.2,4.1,1.3c-0.5-2.1-1.8-3.5-3.6-4.6
			c-1.9-1.2-4.1-1.7-6.4-2c-2.4-0.3-4.9-0.6-7.2-0.9c0.1-4.2,0.5-8.2,0.4-12.2c-0.4-12.1-2.8-23.8-6.3-35.3c-0.4-1.2-0.8-2.4-1-3.7
			c-0.3-1.6,0.7-2.5,2.3-1.9c0.9,0.3,2,0.9,2.6,1.6c1.4,1.6,2.8,3.3,3.7,5.2c1.6,3.4,2.9,6.9,4,10.5c2.2,7.2,4.2,14.4,6.2,21.7
			c-0.1,0.1-0.1,0.3-0.2,0.4c-0.6,0.4-1.7,0.4-1.6,1.5c0.1,1.2,1.3,1,2.1,1.1c3.7,0.8,7.4,1.4,11,2.4c3.5,1,6.5,3,8.9,5.8
			c0.5,0.6,1.1,1.2,1.8,1.5c0.4,0.2,1.2,0.2,1.5-0.1c0.3-0.3,0.5-1,0.4-1.5c-0.2-0.7-0.6-1.3-1-1.9c-1-1.1-2-2.3-3.3-3.1
			c-1.3-0.9-1.7-2-1.7-3.4c-0.1-3.8-0.2-7.7-0.4-11.5c-0.3-5.7-1-11.3-2.5-16.8c-0.2-0.9-0.1-2-0.2-3.5c0.9,0.6,1.5,0.9,1.9,1.3
			c4.4,3.9,6.7,8.9,6.9,14.8c0.3,6.6,0.3,13.3,0.5,19.9c0,0.7-0.1,1.5,0.2,2.1c0.1,0.4,0.7,1,1.1,1c0.4,0,1.1-0.4,1.3-0.8
			c0.3-0.6,0.3-1.4,0.3-2.1c0-3.6,0-7.2,0-10.8c0-0.8,0-1.5,0.2-2.3c1.2,2,1.5,4.2,1.7,6.3c0.4,3.2,0.6,6.4,0.8,9.6
			c0.7,9.9,1.2,19.8,2,29.7c0.5,5.6-1,10.7-3.2,16.1C398.6,129.9,387.9,131.8,377,132.9z"/>
		<path class="st4" d="M218.8,50.3c2.5-5.2,5.6-9.7,9.9-13.2c3.9-3.2,8.2-5.8,12.9-7.8c19.3-8.2,38.9-9.4,58.7-2.2
			c9.7,3.5,18.4,9,26.5,15.3c5,3.9,9.6,8.2,14.4,12.3c1.5,1.3,3,2.6,4.8,4.3c-1.1-0.1-1.7-0.2-2.2-0.2c-3.2-0.3-6.4,0.2-9.5,1.2
			c-2.4,0.7-4.8,1.4-7.2,1.8c-2.2,0.4-4.4-0.2-6.3-1.3c1.6-1.7,3-3.2,4.4-4.8c0.2-0.2,0.1-0.7,0.2-1.4c-0.7,0.1-1.4,0-1.9,0.2
			c-0.5,0.2-1,0.5-1.4,0.9c-4.9,4.8-10.9,5.7-17.3,4.7c-2.5-0.4-5-1.2-7.5-2.2c0.7-0.3,1.3-0.6,2-0.9c3.6-1.5,6.9-3.4,9.8-6
			c0.6-0.6,1.2-1.3,1.6-2c0.2-0.4,0.1-1.2-0.2-1.5c-0.3-0.3-1-0.3-1.5-0.1c-0.5,0.1-1,0.5-1.4,0.9c-7.6,6.5-16.6,9-26.4,9
			c-5.6,0-11.2-0.9-16.4-3.1c-0.8-0.3-1.6-0.7-2.7-1.3c1.1-0.4,1.7-0.6,2.4-0.8c8-2.2,15.9-4.9,23.5-8.3c0.7-0.3,1.3-0.6,1.9-0.9
			c0.8-0.4,1.3-1,0.9-1.9c-0.4-1.1-1.4-0.9-2.2-0.6c-0.5,0.2-1,0.5-1.5,0.7c-11.5,4.9-23.3,8.9-35.7,10.9c-10,1.6-20.1,1.9-30-0.7
			C220.5,50.8,219.8,50.5,218.8,50.3z"/>
		<path class="st1" d="M286.3,684.6c0.8,0.4,1.4,0.6,2,0.8c3.4,1.2,6.7,1,9.9-0.9c3.4-2.1,6-5,8.4-8.1c1.2-1.6,2.3-3.3,3.5-5.1
			c2.8,1.9,5.4,4,7.6,6.4c0.9,0.9,1.6,2,2.4,3c4.3,5,2.8,14.6-4.2,17.7c-2.2,1-4.3,2.1-6.5,3.1c-3.2,1.5-6,3.3-8.5,5.8
			c-2.4,2.4-4.8,4.7-7,7.2c-6.3,7-13,13.5-20.3,19.4c-4.5,3.6-9.3,6.8-14.6,9.1c-3.7,1.6-7.6,2.6-11.6,2.6c-3.7,0-7.5,0-11.2-0.5
			c-5.3-0.7-10.3-6.1-10.9-11.3c-0.3-3,0.5-5.6,3.2-7.3c2.9-1.7,5.8-3.3,8.8-4.8c4.2-2,8.5-3.7,12.7-5.6c7-3.1,13.5-6.9,19.8-11.3
			c2.3-1.6,4.4-3.4,6.5-5.3c4.2-3.6,7.4-7.9,9.3-13.2C285.7,685.8,285.9,685.3,286.3,684.6z"/>
		<path class="st0" d="M389.3,178.6c0.8-0.1,1.1-0.1,1.5-0.1c5.5,0.2,10.6-1.2,15.5-3.5c3.4-1.6,6.8-3.2,10.4-4.9
			c0.3,0.6,0.7,1.1,0.9,1.6c1.6,3.5,3.7,6.7,6.2,9.7c6.8,8,13.5,16,20.2,24.1c1.6,1.9,3,3.9,4.3,6.1c1.3,2.1,1.6,4.5,1.2,6.9
			c-0.7,3.7-1.7,7.3-4,10.4c-4.8,6.3-11.2,8.9-18.9,8c-3.3-0.4-6.6-1.4-9.7-2.4c-4.4-1.5-7.5-4.5-9.4-8.7c-0.5-1-0.9-2-1.3-3.1
			c-3.1-9.1-6.3-18.3-9.4-27.4c-1.7-5.3-3.7-10.4-6.6-15.1C389.8,179.8,389.7,179.4,389.3,178.6z"/>
		<path class="st5" d="M420.2,239.3c3.8,0.4,7.3,0.8,11.3,1.2c0.8,2.9,1.8,6.1,2.5,9.4c1.9,7.7,3.2,15.5,2.8,23.5
			c-0.3,6.2-1.7,12.2-3.7,18c-0.4,1.1-1,1.8-1.9,2.3c-3.2,1.8-6.3,3.8-9.6,5.4c-6.7,3.1-13.4,6-20.2,8.9c-3.3,1.4-6.8,1.9-10.3,1.3
			c-0.5-0.1-1.1-0.2-1.6-0.3c-1.8-0.6-2.2-1.3-2.3-3.1c-0.2-5.5,0.9-10.7,3.3-15.6c2.7-5.6,5.5-11.2,8.7-16.5
			c5.8-9.8,12-19.4,18-29.2C418.2,242.7,419.2,240.9,420.2,239.3z"/>
		<path class="st5" d="M175.6,254.5c2.3,0.5,4.8,0.9,7.2,1.4c19.4,4.2,35.4,14.3,49,28.6c0.7,0.8,1,1.4,0.7,2.5
			c-2.3,8.2-4.6,16.5-6.9,24.9c0,0-0.1,0.1-0.2,0.2c-5.2,0.6-10.4,0.6-15.4-1.1c-2.2-0.7-4.5-1.9-6.3-3.3
			c-9.6-7.6-17.9-16.4-25-26.4c-0.4-0.5-0.7-1.1-0.9-1.7c-1.3-5.3-2.7-10.7-3.9-16.1C173.2,260.3,174,257.1,175.6,254.5z"/>
		<path class="st6" d="M263.2,126.3c7.9-8.2,17.5-13.1,28.7-15.4c-0.2,1-0.4,1.9-0.5,2.8c-2.2,11-4.5,21.9-6.5,32.9
			c-1.1,5.7-1.3,11.6-1,17.5c0,0.9,0.1,1.9,0.2,3.2c-0.8-0.5-1.3-0.7-1.6-1.1c-5.5-5.5-8.5-12.1-8.1-20c0.1-1.4,0.5-2.8,0.8-4.2
			c0.2-0.7,0.3-1.5-0.6-1.9c-1-0.4-1.6,0.2-1.8,1c-0.5,1.9-1,3.9-1.1,5.8c-0.2,3.6,0.6,7.2,1.9,10.5c0.3,0.7,0.6,1.5,0.9,2.2
			c-0.9,0.8-1.9,0.7-2.8,0.4c-0.6-0.2-1.2-0.5-1.7-0.9c-5.2-4.6-8.1-10.2-7.3-17.3c0.1-1,0.5-2,0.6-3.1c0.1-0.9,0-1.8,0-3.1
			c-2.2,1.6-2.7,3.4-3.2,5.4c-0.7,3.1-1.4,6.2-2.2,9.7c-0.9-0.5-1.6-0.9-2.3-1.3c-3.9-2.8-6.6-6.4-8.4-10.8c-1.6-4-1.2-7.9,0.9-11.6
			c1.6-2.8,3.6-5.3,5.5-7.8c0.4-0.6,1-1.2,1.6-1.9c-2.3,0-12.3,5.1-17.5,8.7c-0.3-2,0-3.9,0.4-5.7c0.8-3.6,2.7-6.5,5.4-8.9
			c3.1-2.8,6.6-5.1,10.5-6.7c5-2.1,10.1-3.9,15.2-5.9c0.8-0.3,1.5-0.2,2.3,0.2c6.3,3.5,13.1,5,20.3,4.9c2.9,0,5.9,0,8.8,0
			c-0.7,0.8-0.7,0.9-1.5,1.2c-3.9,1.3-7.7,2.6-11.6,3.9c-3.8,1.3-7.6,2.4-11.3,4C270,115.6,266.2,120.6,263.2,126.3z"/>
		<path class="st7" d="M421.6,154.4c-0.1,2.5-0.2,4.6-0.4,6.6c-0.1,1.8-0.9,3.2-2.5,4.1c-6.2,3.5-12.5,6.7-19.3,8.9
			c-5.1,1.6-10.4,1.4-15.7,0.6c-3-0.4-5.4-2.4-7.5-4.5c-5.4-5.4-8.2-12.1-9.6-19.5c-0.5-3-0.4-6-0.6-9.1c0-0.9,0.2-1.7,0.4-2.6
			c0.7-2.6,1.3-3.1,3.9-3.3c6-0.5,11.9-1.1,17.9-1.4c6.2-0.4,12.5-0.5,18.7-0.7c1.3,0,2.7,0.1,4,0.4c4.3,0.9,7.4,3.3,8.7,7.6
			C421.1,145.9,421.9,150.3,421.6,154.4z"/>
		<path class="st7" d="M335.5,211.8c9.9-5.8,20.1-8.3,31.8-5.3c-0.8,0.9-1.4,1.5-2,2.1c-3.6,3.7-5.5,8-6.6,13
			c-0.9,4.4-3.5,8.2-7.8,10.3c-2,1-2.9,0.5-3.3-1.8c-0.3-1.4-0.3-2.9-0.5-4.3c-0.7-4.4-2.4-5.5-6.6-4c-5,1.6-9.6,4.1-13.7,7.3
			c-2.1,1.7-4.3,3.3-6.4,5.1c-6.3,5.2-13.6,7.6-21.7,7.5c-5.2-0.1-10.4-0.6-15.3-2.5c-2.5-1-4.7-2.4-6.5-4.4
			c-0.7-0.8-1.5-1.5-2.1-2.3c-1.7-2-3.8-2.4-6.3-2c-2.5,0.5-4.7,1.5-6.5,3.4c-1.6,1.7-3.2,3.5-4.9,5.2c-0.9,0.9-2,1.7-3.1,2.6
			c-1.7-1.2-2.2-2.8-2.5-4.4c-1-5.5,0.3-10.6,3.3-15.3c1.8-2.7,4.1-4.9,6.9-6.6c5.4-3.5,11.3-5.7,17.6-6.5c5.7-0.7,11.3-0.8,17-0.2
			c0.3,0,0.6,0.1,1.1,0.2c-0.3,3.1-1.2,5.9-2.4,8.7c-0.4,1-1,2-1.3,3.1c-0.9,2.7-0.1,5.2,2.4,6.6c1.4,0.8,3.1,1.3,4.7,1.6
			c5.1,0.9,10.1,0.2,14.9-1.2c4.5-1.3,9-2.8,13.4-4.4c4.6-1.7,6.4-4.3,6.4-9.3C335.5,213.4,335.5,212.7,335.5,211.8z"/>
		<path class="st1" d="M437.4,636.7c1,1.2,2.1,2.4,3,3.6c2.7,3.4,5.6,6.6,9.3,8.9c4.8,2.9,9.9,4.9,15.6,4.8c2.9,0,5.6-0.7,7.6-2.9
			c0.7-0.7,1.3-0.7,2.1-0.4c6.1,2.4,12.6,3.7,19,5.1c5.6,1.2,10.6,3.5,15.2,6.8c4.9,3.5,9.9,7,14.1,11.5c2,2.2,3.6,4.7,4.5,7.6
			c0.9,2.9,0.4,4.6-2.2,6.1c-1.5,0.9-3.2,1.6-4.8,2c-5.8,1.5-11.6,1.1-17.2-0.8c-4.9-1.6-9.4-3.9-13.5-7.1c-4-3.1-8-6.2-11.9-9.4
			c-5.5-4.5-11.7-7.7-18.6-9.6c-4-1.1-8-2.2-12-3.3c-3.2-0.9-6.2-2.1-8.7-4.4c-1.7-1.6-2.8-3.5-2.8-5.9c0-2.3-0.1-4.6,0-7
			c0.1-1.8,0.4-3.6,0.7-5.4C436.9,636.9,437.2,636.8,437.4,636.7z"/>
		<path class="st7" d="M350.6,351.8c0.7,2.4,1.4,4.6,2.1,6.9c-0.2,0.3-0.4,0.6-0.6,0.8c-14.8,13.6-31.6,24.2-49.8,32.4
			c-9.3,4.2-19.2,6.5-29.5,6.4c-5.4,0-10.9-0.5-16.1-2.2c-3.9-1.2-4-1.3-3.3-5.4c0.8-5.1,2.3-10.1,4.5-14.9c0.4-0.8,0.8-1.6,1.3-2.3
			c1.5-2.3,1.6-2.2,4.2-1.6c2.4,0.5,4.9,0.8,7.3,1.2c1.7,0.3,3.5,0.7,5.1,1.2c5.6,1.6,11.2,1.4,16.9,0.8
			c15.3-1.6,29.3-7.2,42.7-14.2c4.9-2.6,9.4-5.7,14.1-8.6C349.9,352.3,350.2,352.1,350.6,351.8z"/>
		<path class="st3" d="M108.3,221.7c-0.1-1.9-1.2-2.1-2.2-2.3c-2-0.4-4.1-0.7-6.2-0.9c-4.1-0.4-8.1-0.7-12.2-1.1
			c-0.4,0-0.7-0.1-1-0.2c1.5-1.9,3-3.7,4.6-5.7c0.3,0.3,0.9,0.7,1.4,1.1c2.2,1.8,4.6,2.8,7.4,3.1c3.7,0.4,6-1.1,7-4.7
			c0.2-0.8,0.4-1.7,0.7-2.6c0.7,0.3,1.2,0.5,1.7,0.7c3.9,1.5,7.8-0.1,9.6-3.9c2.3-5,1.4-13.2-5.2-16.4c-0.4-0.2-0.8-0.5-1.2-0.7
			c-0.8-2.6-0.8-4.9,1.1-7c2.2-2.5,4.6-4.4,8.1-4.7c2.1-0.2,3.2,0.8,3.2,2.9c0,1.7-0.3,3.3-0.7,5c-1.1,4.8-2.2,9.7-2.2,14.7
			c-0.1,4.6,0.8,8.9,3,12.9c0.1,0.3,0.2,0.6,0.4,1c-0.9,0.7-1.9,1.5-2.8,2.2c-5.4,4.2-10.1,9.1-14.2,14.5c-3.7,4.9-3.8,5.2-4.3,11
			c-0.8-0.2-1.6-0.4-2.3-0.6c-9-2.4-17.9-4.7-26.9-7c-2.8-0.7-5.6-1.2-8.4-1.9c-2-0.5-3.7-1.5-4.9-3.2c-4.5-5.7-9-11.4-13.5-17.2
			c-1.5-1.9-2.7-3.9-4-6c-1.1-1.8-1.4-3.9-1.1-6c0.3-2.5,1.6-3.3,4-2.6c5.9,1.8,10.9,4.9,15.3,9.2c2.5,2.5,5,5,7.5,7.4
			c4.8,4.5,10.3,7.4,17.1,7.7c6.1,0.3,12.3,0.9,18.4,1.3C106.3,221.9,107.2,221.8,108.3,221.7z"/>
		<path class="st6" d="M335.1,148.4c1.1-0.4,1.9-0.7,2.7-1c9.6-3.6,13.2-15.4,7.4-23.9c-2.2-3.2-5.1-5.5-8.4-7.4
			c-2.5-1.4-5.2-2.5-7.7-3.9c-2.3-1.3-4.6-2.6-6.7-4.2c-2.2-1.7-3.8-3.8-4.4-6.8c9.4-2.6,18.5-6.5,28.3-6.6c0.2,0.2,0.4,0.3,0.5,0.4
			c2.5,5.2,6.1,9.5,10.6,13.1c5.8,4.6,9.9,10.3,12.8,17.1c1.1,2.5,2.3,4.9,3.6,7.7c-1.3,0.1-2.5,0.2-3.6,0.2
			c-3.6,0.1-5.4,1.3-6.3,4.7c-0.6,2.2-0.7,4.6-0.9,6.9c-0.1,1.3-0.5,2-1.5,2.7c-3.2,2.3-6.5,4.2-10.5,4.9
			C346.8,153.2,339.3,151.6,335.1,148.4z"/>
		<path class="st0" d="M176.3,246c-0.6,1-1.1,1.7-1.5,2.4c-1.7,2.8-3.2,5.7-4,8.9c-0.8,3.3-0.5,6.5,0.2,9.8
			c1.7,8.1,4.1,15.9,6.8,23.7c0.3,0.7,0.5,1.5,0.9,2.7c-0.9-0.5-1.4-0.8-1.8-1.1c-5.9-4.6-11.8-9.3-17.8-13.9
			c-1.4-1.1-2.7-2.2-4.2-3.2c-6.7-4.3-12.3-9.9-18-15.5c-1.5-1.5-2.2-3.2-2.2-5.4c0.1-3.4,0.8-6.7,2.4-9.7c1.7-3,3.4-6,5.4-8.8
			c0.9-1.4,2.1-2.6,3.4-3.7c2.1-1.8,4.2-1.9,6.6-0.5c0.9,0.6,1.8,1.3,2.6,2.1c1.8,1.7,3.5,3.5,5.3,5.2
			C164.8,243.2,169.7,246,176.3,246z"/>
		<path class="st5" d="M238.8,265c-17.7-11.4-37.3-16.4-58.1-18.9c1.3-1.9,2.3-3.9,4.3-5c9.5-5,19.3-9.3,30.1-10.9
			c10.3-1.6,20.4-0.9,30.3,2.5c0.8,0.3,1.6,0.6,2.3,0.9c0.3,1.8,0.6,3.5,0.7,5.1c0.1,0.6,0,1.3-0.3,1.8c-3.6,7.6-6.4,15.5-8.9,23.5
			C239.3,264.4,239.1,264.6,238.8,265z"/>
		<path class="st7" d="M132.3,260.5c-3.2,0.6-6.6,1-10.1,0.7c-3-0.2-5.4-1.7-6.9-4.2c-1.3-2.1-2.4-4.3-3.5-6.5
			c-1.3-2.8-2.3-5.6-3.5-8.4c-1.1-2.6-1.1-5.1,0.7-7.5c2.5-3.1,4.9-6.4,7.5-9.3c5.1-5.6,11.1-10.1,17.4-14.2c3.3-2.1,4.7-2,7.8,0.4
			c5.9,4.5,9.9,10.3,12.9,17.5c-0.9-0.3-1.4-0.5-1.9-0.6c-3.1-1.2-6.1-0.9-8.6,1.3c-1.9,1.6-3.6,3.5-5,5.5c-1.8,2.5-3.3,5.3-4.8,8
			c-1.9,3.3-2.8,7-2.9,10.8C131.5,255.9,132,258.1,132.3,260.5z"/>
		<path class="st5" d="M409.7,234.8c-0.5,0.4-1.3,0.8-2,1.3c-7.9,5.2-15.3,11.1-21.3,18.4c-6.1,7.4-10,15.9-11.3,25.5
			c-0.1,0.6-0.3,1.2-0.6,1.9c-5.4-13.9-10.3-27.9-12.9-42.7c0.5-0.2,0.7-0.4,1-0.5c5.2-1.1,10-3.3,14.9-5.3
			c7.5-3.2,15.1-6.1,23.2-7.6c0.9-0.2,1.9-0.3,2.6-0.4C405.5,228.7,407.6,231.7,409.7,234.8z"/>
		<path class="st4" d="M418.5,238.7c-5,7.8-9.8,15.5-14.8,23.1c-4.6,7.1-9.1,14.1-12.9,21.6c-2.3,4.5-4.3,9.1-5.3,14.1
			c-0.4,1.8-0.6,3.7-1,6c-0.6-0.8-0.9-1.3-1.2-1.8c-1.8-3.6-3.5-7.2-5.3-10.8c-0.8-1.5-1-3.2-1.1-4.9c-0.1-10.8,3.6-20.2,10-28.7
			c5.6-7.5,12.9-13.3,20.5-18.7c1.4-1,2.9-2,4.2-2.9C414,236.8,416.1,237.7,418.5,238.7z"/>
		<path class="st4" d="M233.5,283.6c-7.8-8.4-16.3-15.2-26-20.6c-9.7-5.4-20.1-8.4-31.5-10c1.1-1.7,1.9-3.3,3-4.6
			c0.4-0.5,1.6-0.6,2.4-0.5c5.4,0.8,10.9,1.6,16.3,2.7c12,2.6,23.6,6.4,34.3,12.5c2.1,1.2,4.2,2.6,6.4,3.9
			C236.8,272.6,235.2,277.8,233.5,283.6z"/>
		<path class="st3" d="M332.1,206.7c0.2,3.1,0.4,5.8,0.4,8.5c0,2.2-1.1,4-3.2,4.9c-7.3,2.9-14.6,5.7-22.6,6.2
			c-2.2,0.2-4.5-0.1-6.7-0.4c-0.9-0.1-1.8-0.5-2.6-1c-1.2-0.7-1.4-1.7-1.1-3.1c0.1-0.4,0.2-0.8,0.4-1.1c3-5.9,3.7-12.3,3.9-18.9
			c0-0.7,0-1.4,0.1-2.2c0-0.1,0.1-0.3,0.2-0.6c0.5,0.3,1,0.7,1.5,1c1.9,1.3,3.8,2.8,5.8,3.8c1.7,0.9,3.7,1.4,5.6,1.8
			C319.8,206.8,325.7,207.3,332.1,206.7z"/>
		<path class="st4" d="M436,289.8c5.8-17.2,2.4-33.4-3.1-49.6c2.3-0.7,4.5-1.5,6.9-2.3c4.5,7.4,9.3,14.6,11,23.3
			c1.1,5.5,0.1,10.8-1.4,16.1c-0.2,0.6-0.6,1.2-1,1.6c-3.7,3.5-7.5,7-11.2,10.4C436.9,289.4,436.7,289.4,436,289.8z"/>
		<path class="st4" d="M187.4,237.4c1.2-2.3,2.7-4,4.9-5.2c3.9-2.1,7.7-4.6,11.6-6.7c9.5-5.1,19.6-7.7,30.4-7.5
			c5.7,0.1,11.2,1.7,16.5,3.7c-1,3.3-2,6.4-3,9.7C226.8,223.8,206.8,227.5,187.4,237.4z"/>
		<path class="st4" d="M402.8,223.5c-0.3,0.1-0.5,0.2-0.8,0.3c-8.7,1.5-16.8,4.6-24.8,8c-4.3,1.8-8.6,3.4-12.9,5.1
			c-0.8,0.3-1.7,0.5-2.8,0.7c-0.6-3-0.7-6-0.3-8.9c0.1-0.6,0.6-1.1,1-1.5c7.7-7.1,16.8-10.7,27.3-9.9c3.2,0.3,6.3,1.1,9.4,1.7
			C401.5,219.5,402.7,220.9,402.8,223.5z"/>
		<path class="st2" d="M314.7,491.9c6.1-1.3,12-2.6,18.2-3.9c2,2.4,4.3,5.1,6.9,8.2c-0.4,0.2-0.8,0.2-1,0.4
			c-5.5,3.4-10.2,7.7-14.9,12c-3.3,3.1-6.8,6.1-10.2,9.1c-0.7,0.6-1.5,1.1-2.7,2C312.3,510,313.5,500.9,314.7,491.9z"/>
		<path class="st4" d="M225.1,314.4c-0.9,4.5-1.7,8.7-2.6,13.2c-0.8-0.3-1.5-0.5-2.1-0.8c-9.1-4.2-17.9-8.9-26.4-14.1
			c-3.1-1.9-5.5-4.3-6.8-7.8c-2-5.1-4.1-10.2-6.2-15.3c-0.3-0.7-0.5-1.5-0.4-2.4c0.3,0.3,0.7,0.6,0.9,1c5.2,6.8,11.4,12.7,17.7,18.5
			c5.7,5.2,12.3,7.6,19.9,7.6C221,314.4,222.9,314.4,225.1,314.4z"/>
		<path class="st2" d="M381.3,486.7c-3.6-10.4-7.1-20.7-10.8-31.3c3.6-2.7,7.4-4.7,11.8-6.3c3.2,11.2,4.9,22.6,8.3,33.5
			C388.4,484.5,385.4,485.9,381.3,486.7z"/>
		<path class="st6" d="M380.4,189.1c-0.6,0.3-1.2,0.6-1.8,0.9c-2.5,1.4-5,2.8-7.6,4.1c-3.8,2-7.8,2.8-12.4,2.1
			c0.7-0.7,1.2-1.2,1.7-1.6c5.7-4.9,10.4-10.5,13.9-17.2c0.6-1.2,2.7-2,3.8-1.4c2.3,1.3,4.8,2.1,7.5,2.4c0.6,0.1,1.3,0.6,1.6,1.2
			c1.6,3.2,3.1,6.5,4.6,9.7c0.4,0.9,0.3,1.7-0.2,2.5c-2.7,4.1-6.7,5.8-11.5,5.8c-2,0-3.6-1.1-4.8-3c1.8-1.7,3.6-3.4,5.5-5
			C380.6,189.4,380.5,189.3,380.4,189.1z"/>
		<path class="st5" d="M451,224.9c3,2.9,4.7,6,5.9,9.4c2.4,6.7,2.7,13.6,2.1,20.6c-0.5,5.6-1.7,11.1-4.7,15.9
			c-0.2,0.3-0.5,0.6-0.7,1c0,0-0.1,0-0.4,0.1c0.1-0.6,0.1-1,0.2-1.5c0.7-5,0.1-9.9-1.6-14.6c-2-5.5-4.9-10.4-8-15.2
			c-0.7-1.1-1.5-2.3-2.4-3.6C445.7,233.9,449,230.1,451,224.9z"/>
		<path class="st5" d="M361.6,224.7c0-3.6,0.7-6.6,2.3-9.3c2.7-4.5,6.3-8,11.1-10.3c2.7-1.4,5.6-1.7,8.6-1.2
			c4.9,0.8,9.3,2.7,13.4,5.6c1.2,0.9,2.1,1.9,2.5,3.4c0.4,1.4,0.9,2.8,1.5,4.7C386.5,212.7,373.4,214.7,361.6,224.7z"/>
		<path class="st8" d="M395.9,78c-3-0.9-5.6-1.6-8.4-2.4c0-0.3-0.1-0.6-0.1-0.9c1-9.9-0.2-19.6-2.5-29.2c-0.7-2.7-1.8-5.3-2.7-7.9
			c-0.5-1.5-0.8-3-1.3-4.6c2.2-0.8,3.9,0,5.1,1.2c1.2,1.3,2.3,2.9,3.1,4.5c2.7,5.7,4.6,11.8,5.5,18C395.6,63.7,395.8,70.7,395.9,78z
			"/>
		<path class="st5" d="M195.7,227.3c4-4,7.9-8.1,11.9-12.1c6.7-6.8,14.8-6.8,23.2-4.3c3.5,1,6.6,3.1,9.6,5.3
			c-7.9-1.2-15.5-0.2-23.1,1.7c-7.7,1.9-14.5,5.6-21.2,9.8C195.9,227.7,195.8,227.5,195.7,227.3z"/>
		<path class="st6" d="M106.5,175.9c-0.3,1.3-0.6,2.7-1.1,4c-0.6,1.5-1.5,1.9-3.1,1.2c-1.2-0.5-2.5-1.1-3.5-2
			c-4.3-4.3-6-9.5-4.8-15.5c0.2-1.2,1-2.3,1.7-3.3c0.6-0.9,1.6-1,2.5-0.4c1.8,1.1,3.5,2.3,4.2,4.6c1,3.1,2.3,6.1,3.4,9.2
			C106.1,174.4,106.3,175.1,106.5,175.9z"/>
		<path class="st6" d="M365.4,159.4c1.7,3.3,3.3,6.3,4.8,9.4c-6.7,4.6-18.6,2.8-24.3-3.9C352.9,164.3,359.6,163.5,365.4,159.4z"/>
		<path class="st3" d="M32.4,212.3c3.9,1.4,7.9,1.9,12,1.8c1.6,0,2.7,0.4,3.6,1.8c1.2,1.8,2.7,3.4,4,5.1c0.3,0.3,0.5,0.7,0.8,1.2
			c-6.5-1.1-12.9-2.1-19.2-3.3c-4.2-0.8-4.8-3-1.8-6.1C31.9,212.6,32,212.5,32.4,212.3z"/>
		<path class="st6" d="M351.8,155.3c4.1-1.1,7.9-2.9,11.3-6.2c0.4,2,0.8,3.7,1.1,5.6C360.1,156.7,356,156.4,351.8,155.3z"/>
		<path class="st6" d="M364.7,173.8c2.8-1,5.2-1.9,7.7-2.8c0.7,0.8,1.5,1.6,2.6,2.7C371.4,174.9,368.3,174.7,364.7,173.8z"/>
		<path d="M343.1,383.8c11.3,13.7,16,30.1,19.9,46.9C357.3,414.7,352.3,398.4,343.1,383.8z"/>
		<path d="M327.9,188.4c-4.9-0.5-9.6-1.5-13.8-4c-2.2-1.3-4.1-3-5.6-5.1c-1-1.4-0.8-2.5,0-3.7c2.1-3,5.1-4.3,8.7-4.1
			c1.3,0.1,2.7,0.4,4,0.8c5.4,1.8,9.6,5.3,12.7,10.1c0.4,0.6,0.7,1.3,0.9,1.9c0.6,1.8,0.3,2.5-1.5,3
			C331.5,187.8,329.7,188.1,327.9,188.4z M310.2,177.9c3.6,5.4,16,9.4,21.3,7c-2.1-5.3-9.8-10.6-15.3-10.4
			C313.6,174.5,311.5,175.5,310.2,177.9z"/>
		<path d="M326.4,120.7c-7.5-0.4-14.2-2.5-20.2-6.5c-0.8-0.5-1.4-1.2-2-2c-0.5-0.6-0.6-1.5,0.2-1.9c0.4-0.2,1.3-0.1,1.7,0.3
			c4.5,3.6,9.8,5.3,15.2,6.6c3,0.7,6,0.8,9,0.5c0.9-0.1,2-0.6,2.5,0.6c0.4,0.8-0.5,1.6-2.3,1.9C329,120.5,327.6,120.6,326.4,120.7z"
			/>
		<path d="M329,136.3c0.1,1.4,0.3,2.3,0.2,3.2c-0.7,5-2.5,9.4-6,13c-2.6,2.7-2.6,3.5-0.7,6.7c0.6,1,1.1,2.1,1.7,3.2
			c-1.4,0.7-2.3,0-3.1-0.5c-3.3-2.3-3.9-7.5-1-10.3c3.2-3.2,5.3-7,6.7-11.2c0.3-0.9,0.6-1.8,1-2.7
			C327.8,137.3,328.3,137.1,329,136.3z"/>
		<path d="M326.6,132.1c-0.7,0.6-1.3,1.3-2.1,1.7c-4.6,2.5-9.5,3.1-14.6,1.9c-2.1-0.5-3.8-1.6-5.3-3.2c-2-2.2-3.3-4.9-3.9-7.9
			c-0.1-0.7-0.1-1.4,0.2-2.1c0.1-0.3,0.7-0.6,1.1-0.6c0.3,0,0.6,0.4,0.8,0.7c0.2,0.3,0.1,0.8,0.2,1.2c0.9,2,1.7,4.2,2.8,6.1
			c1.2,2.1,3.3,3.2,5.7,3.6c4,0.7,7.8,0.1,11.6-1.2c1-0.4,2.1-0.6,3.1-0.9C326.3,131.6,326.4,131.9,326.6,132.1z"/>
		<path d="M57.9,172.1c0-0.3,0-1,0.1-1.7c0.7-4.9,4-7.7,9-7.4c8.5,0.5,15.6,7,16.7,15.4c0.4,2.8-0.1,5.6-1.5,8.1
			c-1.4,2.7-3.7,3.6-6.6,3c-1.3-0.3-2.7-0.5-4-0.7C63.5,187.4,57.9,180.7,57.9,172.1z M75.3,186c0.3,0,1.3,0,2.1-0.3
			c2-0.9,3.7-4.3,3.5-6.6c-0.6-6.1-5.1-11.2-11.4-12.7c-6.4-1.6-8.8,1.5-8.4,7.5c0,0.1,0,0.2,0,0.2C62,181.1,67.5,185.9,75.3,186z"
			/>
		<path d="M97.1,187.5c0.8-0.7,1.4-1.3,2.1-1.8c2.4-1.6,4.9-0.8,5.6,2c0.8,3.2,0,6.2-2,8.8c-1.2,1.6-3.2,1.6-4.8,0.3
			c-0.5-0.4-1.1-0.7-1.6-1c-1.2-0.7-2.6-1.3-3.6-2.3c-1.1-0.9-2-2.1-2.7-3.3c-0.7-1.1-1.1-2.4-0.1-3.6c1-1.2,2.3-0.9,3.5-0.5
			C94.6,186.5,95.8,187,97.1,187.5z M101.6,187.1c-0.8,0.7-1.5,1.2-2.1,1.8c-1.5,1.6-2.1,1.7-4.2,0.8c-0.9-0.4-1.8-0.7-3.1-1.2
			c0.2,0.7,0.3,1.1,0.4,1.3c1.6,2.4,4.2,3.6,6.5,5.1c0.4,0.2,1.4-0.1,1.9-0.5C102.5,192.9,102.8,189.5,101.6,187.1z"/>
		<path class="st8" d="M310.2,177.9c1.3-2.4,3.4-3.4,6.1-3.4c5.5-0.1,13.2,5.2,15.3,10.4C326.1,187.3,313.7,183.3,310.2,177.9z"/>
		<path class="st6" d="M75.3,186c-7.8-0.1-13.3-4.9-14.3-11.9c0-0.1,0-0.2,0-0.2c-0.4-6,2-9.1,8.4-7.5c6.3,1.5,10.8,6.6,11.4,12.7
			c0.2,2.3-1.4,5.7-3.5,6.6C76.6,186,75.6,186,75.3,186z"/>
		<path class="st6" d="M101.6,187.1c1.3,2.4,0.9,5.9-0.6,7.3c-0.4,0.4-1.5,0.7-1.9,0.5c-2.3-1.6-4.9-2.8-6.5-5.1
			c-0.2-0.2-0.2-0.6-0.4-1.3c1.3,0.5,2.2,0.8,3.1,1.2c2.1,0.9,2.7,0.7,4.2-0.8C100.1,188.3,100.8,187.8,101.6,187.1z"/>
	</g>
</g>
</svg>
