<?xml version="1.0" encoding="utf-8"?>
<!-- Generator: Adobe Illustrator 22.1.0, SVG Export Plug-In . SVG Version: 6.00 Build 0)  -->
<svg version="1.1" id="Слой4_xA0_Изображение_1_"
	 xmlns="http://www.w3.org/2000/svg" xmlns:xlink="http://www.w3.org/1999/xlink" x="0px" y="0px" viewBox="0 0 552 768"
	 style="enable-background:new 0 0 552 768;" xml:space="preserve">
<style type="text/css">
	.st0{fill:#EE2D30;}
	.st1{fill:#F2B597;}
	.st2{fill:#6D371D;}
	.st3{fill:#423F3A;}
	.st4{fill:#453418;}
	.st5{fill:#FFCC3F;}
	.st6{fill:#FDA539;}
	.st7{fill:#352611;}
	.st8{fill:#FFFFFF;}
	.st9{fill:#D84138;}
</style>
<g>
	<path d="M306.3,13.5c1.9,0.4,3.8,0.6,5.6,1.2c5.8,1.8,10.6,5.3,14.8,9.6c4.3,4.3,7.7,9.2,9.5,15.1c2.6,8.2,0.3,15.2-6.5,20.4
		c-0.4,0.3-0.9,0.7-1.5,1.1c1.1,0.5,2,0.9,3,1.4c2.3,1,4.4,2.3,6.1,4.1c3.7,3.9,4.5,8.9,2,13.7c-1.2,2.3-2.8,4.2-4.8,5.8
		c-4.5,3.6-9.5,6.4-15.3,7.1c-0.6,0.1-1.3,0.1-2.2,0.2c0.5,0.6,0.8,1.2,1.2,1.7c1.1,1.1,2.2,2.1,3.3,3.2c2.3,2.3,3.1,5.1,2.4,8.3
		c-1.8,8.2-6.4,14.3-13.5,18.7c-2.6,1.6-5.1,3.5-7.4,5.5c-1.9,1.7-3.2,3.8-3.4,6.5c-0.3,3.5,1.5,6,4.9,6.7c1.3,0.3,2.6,0.4,3.9,0.7
		c3.7,0.8,4.9,3.7,3.1,7c-1.1,2-2.8,3.4-4.8,4.4c-6.7,3.4-13.5,3.4-20.4,0.4c-1.7-0.7-3-1.9-4-3.5c-0.2-0.2-0.7-0.5-0.9-0.4
		c-2.1,0.7-4.2,0.5-6.2-0.8c-1.2,8.8,2.1,16.6,5.1,24.4c2.8-1.6,4.7-1.3,6.4,1.5c0.8,1.3,1.4,2.8,1.5,4.3c0.1,1.1-0.4,2.4-1,3.3
		c-1,1.6-1,2.8,0.6,3.8c3.3,2.1,7,3.5,10.8,4.7c6.8,2.2,13.6,4.3,20.4,6.4c4.1,1.3,7.3,3.6,9.9,7c3.2,4.1,5.6,8.5,6.6,13.7
		c0.6,3.1,1.5,6.1,2.2,9.2c0.2,0.9-0.1,1.9-0.1,2.8c0.4,7.7,0.9,15.3,1.4,23c0.6,9.9,1.3,19.8,2.1,29.7c0.7,8.8,1.6,17.5,2.4,26.3
		c0.3,3.1,0.3,6.2,0.4,9.3c0,0.5,0.2,1.2,0.5,1.5c1.2,1.4,0.8,2.9,0.6,4.3c-0.1,0.3-0.4,0.6-0.6,0.8c-1.3,1.2-2.8,2.2-4.1,3.5
		c-5.3,5.5-12,8-19.3,8.8c-7.3,0.8-14.2-0.7-20.9-3.3c-1.9-0.7-3.9-1.5-5.8-2.3c-0.4-0.1-0.7-0.3-1.3-0.5c0.2,0.7,0.4,1.3,0.5,1.8
		c4,12.5,8,25,10.9,37.8c4.4,19.3,5.9,38.8,5.8,58.5c-0.1,16.1-1.2,32.1-2.8,48.1c-1.9,19.6-4.2,39.2-5.9,58.9
		c-2.1,24.9-2.5,49.9-0.1,74.8c1.2,12.4,3.7,24.5,7.6,36.3c4.4,13.4,12.9,23.3,24.8,30.5c9,5.4,18.8,8.8,29,11.2
		c12.5,3,25.2,4.6,37.9,5.7c5.1,0.4,10.2,0.8,15.3,1.2c5.2,0.4,8.1,3.5,7.9,8.8c-0.2,5.5-2.7,10.1-6.5,13.9c-8.5,8.7-19.7,11-31,6.3
		c-4.7-2-9.2-4.3-13.9-6.2c-2.4-1-5-1.7-7.6-2.1c-4.3-0.8-6.4,0.6-7.7,4.7c-1,3.1-1.7,6.3-2.6,9.5c-2.3,7.9-6.9,14.1-14.2,18
		c-8,4.3-15.3,2.2-19.9-5.6c-1.5-2.6-2.8-5.4-4-8.2c-1.9-4.2-4-8.2-7.2-11.5c-1.4-1.4-3-2.7-4.8-3.7c-2.7-1.5-4.9-0.8-6.3,2
		c-0.9,1.7-1.5,3.6-2.1,5.5c-1.5,4.2-2.7,8.5-4.4,12.7c-1.5,3.9-4.2,7-7.7,9.3c-6.3,4.1-12.8,3.7-18.3-1.3c-2.4-2.1-4.5-4.6-6.6-6.9
		c-3.4-3.7-7.1-7.2-11.4-9.9c-1-0.6-2-1.1-3.1-1.6c-2.2-0.9-4.4-0.8-6.3,0.4c-1.8,1.1-3.5,2.5-5.2,3.9c-2.2,2-4.2,4.2-6.5,6.2
		c-5.6,4.8-12.1,7.1-19.5,6.2c-4.5-0.5-8.2-2.8-11.8-5.2c-3.7-2.4-7.5-4.6-11.3-6.9c-1.2-0.7-2.5-1.2-3.8-1.7c-3.5-1.3-6.9-1-10,1.2
		c-2,1.4-3.8,2.9-5.9,4.2c-1.7,1.1-3.6,2-5.4,2.9c-0.9,0.4-2.1-0.2-2.5-1.2c-0.3-0.8,0.3-1.4,0.9-2c1.9-1.8,3.9-3.5,5.4-5.6
		c8.6-11.9,13.8-25.2,16.3-39.7c5-29.1,4.3-58.1-0.6-87.1c-1.9-11.4-4-22.9-5.7-34.3c-2.6-17.7-3.4-35.5-2.9-53.4
		c0.5-17.1,1.4-34.2,3-51.3c1.8-19.4,5.9-38.3,11.5-56.9c5.1-16.8,9.6-33.8,12.8-51.1c2.1-11.7,3.5-23.5,3.1-35.4
		c-0.2-5.4-1.7-10.7-4.3-15.6c-2.2-4-4.3-8-6.3-12.1c-1.3-2.8-2.4-5.7-3.6-8.5c-0.1-0.3-0.2-0.6-0.4-1c-1,0.9-2,1.7-3,2.6
		c-7.1,6.1-14.2,12.4-21.5,18.3c-5.5,4.5-11.5,8.4-17.9,11.5c-1.1,0.6-2.1,1.5-3.2,2.2c-1.9,1.3-4.1,1.8-6.4,1.5
		c-3-0.5-5.2-2.7-5.2-5.8c0-3,0.3-6.1,0.7-9.1c0.7-4.7,1.7-9.3,2.7-13.9c0.7-3.1,1.9-6.1,3.7-8.8c0.2-0.3,0.4-0.6,0.5-1
		c1.3-5.8,4.4-10.7,7.7-15.5c6.7-9.6,13.3-19.3,20.8-28.3c2.6-3.2,4.5-6.9,6.8-10.3c1.5-2.3,3-4.6,4.5-7c-0.6-0.5-1.2-1-1.7-1.6
		c-0.9-1-0.8-1.9,0-2.9c1.4-1.7,2.8-3.4,4.2-5.1c1.6-1.9,2.2-2,4.5-0.8c0.2-0.3,0.5-0.6,0.7-0.9c1.9-2.4,3.7-4.8,5.6-7.2
		c0.5-0.6,0.5-1,0.1-1.6c-1.9-2.8-3.7-5.7-5.7-8.5c-0.7-1.1-1.2-2.2-0.7-3.4c0.8-1.6,1.5-3.3,2.7-4.6c5.1-5.3,10.4-10.5,15.7-15.7
		c1.9-1.9,2.2-3.2,0.8-5.5c-0.1-0.2-0.3-0.4-0.5-0.5c-2.3-1-3.5-3-4.2-5.2c-1.3-4.1-2.6-8.2-3.6-12.3c-0.8-3.3-1.3-6.7-1.5-10.1
		c-0.4-5.9,3-10,8.9-10.5c5.4-0.5,10.3,1.3,14.5,4.5c1.2,0.9,2.1,2.6,2.7,4.1c2.3,6,2.9,12.3,3,18.7c0,2.1-1.3,3.5-2.6,4.8
		c-0.7,0.7-0.8,1.2-0.6,2.1c0.4,2.2,1.5,3.6,3.6,4.4c5,2,9.9,4.1,14.8,6.2c0.9,0.4,1.2,0,1.5-0.7c2.1-4.9,3.4-10,3.3-15.4
		c0-2.6-0.1-5.2-0.2-7.8c0-0.3-0.2-0.7-0.4-0.7c-2.8-1-4.5-3.4-6.4-5.4c-2.6-2.7-5.2-5.5-7.6-8.4c-3.4-4.2-5.1-9.2-6.4-14.4
		c-1.9-7.6-2-15.4-1.1-23.1c0.1-0.8-0.2-1.8-0.6-2.4c-2.2-3.3-4.6-6.6-6.8-9.9c-3.7-5.6-6.8-11.4-7.7-18.2
		c-0.8-6.3,0.5-12.1,4.3-17.2c2.6-3.5,6-5,10.4-4.3c2.8,0.5,3.4,0.2,4.8-2.3c1.7-2.9,3.3-5.8,4.8-8.8c3.2-6.3,8.4-9.6,15.2-10.9
		c8.2-1.6,16.4-1.8,24.6-0.4c4.2,0.7,7.9,2.4,10.7,5.9c0.3-0.4,0.6-0.7,0.8-1.1c5.2-6.8,11.8-11.6,20.2-13.8
		c1.1-0.3,2.3-0.4,3.4-0.7C304.4,13.5,305.3,13.5,306.3,13.5z M216.1,272.2c-0.1,0-0.3-0.1-0.4-0.1c-0.7,0.6-1.4,1.2-2.1,1.9
		c-1.5,1.5-3.2,2.3-5.4,2.3c-1.3,0-2.6-0.1-4-0.1c-2,0.1-4,0.3-5.7,1.7c-3.2,2.5-6.4,4.9-9.6,7.4c-0.3,0.2-0.5,0.9-0.4,1.3
		c0.4,1.4,0.8,2.8,1.5,4.1c2.7,5.6,5.4,11.2,8.3,16.8c2.3,4.5,4.1,9.1,4.4,14.1c0.2,3.3-0.1,6.6-0.1,9.9c0,10.1-1,20.1-2.8,30.1
		c-2.9,17.1-7.3,33.9-12.3,50.4c-6.1,20.3-10.4,41-12,62.2c-0.8,11.5-1.6,23-2.1,34.5c-0.7,13.8-0.8,27.6,0.1,41.4
		c1.1,16.9,3.8,33.6,6.8,50.3c2.9,15.9,4.8,31.9,5.3,48c0.4,15.2-0.9,30.2-3.2,45.2c-2.1,14-6.8,27.1-14.5,39.1
		c-0.2,0.4-0.4,0.7-0.8,1.4c0.9-0.5,1.6-0.9,2.2-1.3c2.9-1.6,6-2.1,9.3-1.4c1.9,0.4,3.7,1.1,5.4,1.9c5.3,2.4,10,5.7,14.8,8.9
		c7.4,5,16,4.9,23.2-0.4c2.4-1.8,4.5-4.1,6.8-6.1c2.3-2,4.5-4.1,7.1-5.7c3.9-2.6,8-2.1,11.8,0c5.1,2.9,9.4,6.9,13.4,11.2
		c2.1,2.2,4.1,4.5,6.3,6.6c4.5,4.2,9.2,4.6,14.4,1.3c3.6-2.2,5.8-5.6,7.3-9.4c1.5-4.1,2.7-8.4,4.1-12.5c0.7-2,1.7-4.1,2.9-5.9
		c1.8-2.6,4.5-3.4,7.5-2.6c1.3,0.3,2.6,0.8,3.6,1.6c1.9,1.5,3.8,3.1,5.5,5c3.6,4,5.7,8.9,7.9,13.7c1.1,2.3,2.2,4.6,3.7,6.7
		c3.2,4.6,7.8,5.8,12.9,3.6c1-0.4,2-1,2.9-1.6c5.6-3.8,9.2-9,11.1-15.4c0.8-2.8,1.4-5.6,2.2-8.3c0.6-2.1,1.4-4.2,3.1-5.8
		c0.5-0.5,1.1-1,1.8-1.5c-0.3-0.1-0.4-0.2-0.6-0.2c-5.1-2-10.4-3.7-15.4-6c-18-8.1-33.2-19.9-45.5-35.2
		c-11.4-14.2-19.1-30.4-24.4-47.8c-4.9-16-8.1-32.4-10.8-48.9c-0.3-1.7-0.5-3.5-0.7-5.3c0.3,0.1,0.3,0.2,0.3,0.4
		c2.3,11,4.6,22.1,7.1,33.1c3.2,14.4,7.5,28.4,13.9,41.7c6.8,14.1,15.4,26.8,26.8,37.6c14.5,13.8,31.6,23.1,50.3,29.8
		c0.5,0.2,1,0.1,1.5,0.1c1.5,0,3-0.2,4.5,0c5.3,0.7,10,2.9,14.8,5.1c3.2,1.5,6.3,3,9.6,4.2c12.2,4.3,22.3-1.9,27.4-9
		c2.1-2.9,3.6-6.2,3.3-9.9c-0.2-2.6-1.5-3.9-4.1-4.2c-0.4-0.1-0.9-0.1-1.3-0.1c-3.8-0.3-7.7-0.5-11.5-0.8
		c-14.3-1.2-28.5-2.9-42.4-6.3c-11.5-2.8-22.4-6.8-32.2-13.5c-8-5.4-14.7-12-19.1-20.7c-4.4-8.8-7-18.1-9-27.6
		c-3-14.4-3.9-29.1-4.3-43.8c-0.6-25.1,1.2-50.1,3.9-75.1c1.9-17.7,3.7-35.4,5.2-53.1c1.4-15.5,1.6-31.1,1-46.6
		c-0.6-15-2.4-29.9-6.2-44.5c-3.2-12.3-6.8-24.5-10.2-36.8c-0.1-0.4-0.6-0.8-1-1.1c-1.5-0.9-3.1-1.7-4.6-2.5
		c-1.4-0.8-2.8-1.7-4.3-2.6c0.1,0.4,0.1,0.6,0.1,0.8c3,10,6.1,20,9.1,30c0.1,0.5,0.3,1.1,0.1,1.5c-0.6,1.6-1.2,3.3-2.2,4.8
		c-2.7,3.9-6.3,6.7-10.6,8.6c-11.6,4.9-23.5,6-35.9,3.8c-0.9-0.2-1.8-0.6-2.4-1.2c-2.5-2.3-4.5-5-6-8c-3.4-7-5.5-14.4-6.9-22
		c-0.1-0.6-0.4-1.2-0.7-1.7c-1-1.2-1.5-2.7-0.9-4.1c0.6-1.4,1.4-2.8,2.5-3.9c3.4-3.1,7.3-5.4,11.7-6.9c0.9-0.3,1.2-0.6,1-1.6
		c-1.7-8.5-3.4-16.9-5.1-25.4c-0.1-0.4-0.6-1-1-1.1c-3.3-1.3-6-3.4-8.4-6.1c-2.2-2.4-4-5.2-6.8-7.1c-0.6-0.4-1.1-1.2-1.5-1.9
		c-1.4-2.5-1-4.4,1.4-6.1C215.2,277.5,215.3,274.9,216.1,272.2z M249.2,147.3c2.1-0.2,3.7-0.3,5.4-0.6c1.7-0.3,3.4-0.8,5-1.3
		c6.2-2,11.7-5.2,15.7-10.5c5.9-7.9,9.8-16.8,13.5-25.8c0.1-0.2-0.1-0.7-0.3-0.9c-1.8-1.3-2.4-3.1-1.9-5.3c0.3-1,0-1.8-0.8-2.6
		c-1.7-1.5-2.2-3.5-1.8-5.7c0.3-1.6,0.8-3.2,1.7-4.6c2.1-3.4,2.3-7,2-10.9c-0.2-3.3-1.7-5.2-5-6.1c-9.8-2.5-16.9-8.6-22.4-17
		c-2.1-3.1-4.1-6.3-6.5-9.2c-4.1-5-12.4-6.9-18.7-1.4c-4.9,4.4-8.5,9.7-10.7,16c-0.2,0.7-0.3,1.4-0.3,2.1c0,2.3,0.1,4.6,0.1,6.8
		c-0.1,8.5-0.2,17-1.7,25.5c-1.3,7.6-1.1,15.2,0.6,22.8c1.2,5.4,2.9,10.7,6.6,15c2.7,3.2,5.7,6.1,8.5,9.3c1.4,1.6,2.9,3,5.1,3.4
		C245.4,146.7,247.5,147,249.2,147.3z M287.1,120.6c-0.1,0.2-0.3,0.4-0.3,0.6c-2.8,5.8-5.9,11.6-9.9,16.6c-0.1,0.2-0.3,0.4-0.3,0.6
		c-0.3,2.5-0.5,5.1-0.9,7.6c-0.3,2.7,1.8,4.6,4.4,3.8c0.6-0.2,1.1-0.5,1.6-0.8c1-0.5,2-0.2,2.4,0.8c0.6,2,2.2,3.1,4,3.9
		c5.2,2,10.4,2.2,15.6,0.2c2.3-0.8,4.3-2.1,5.5-4.4c0.7-1.4,0.3-2.2-1.2-2.5c-1.2-0.3-2.5-0.4-3.7-0.6c-5.8-1.2-8.7-5.9-7.2-11.7
		c0.7-2.7,2.2-5,4.4-6.7c2.9-2.3,6-4.5,9.2-6.5c5.7-3.8,9.1-9.1,10.7-15.6c0.6-2.4,0-4.5-1.8-6.2c-0.8-0.7-1.6-1.5-2.4-2.2
		c-3.5-3.4-4.3-7.3-2.6-11.8c0.6-1.6,1.4-3.1,2.1-4.6c1.2-2.3,1.9-4.8,1.7-7.4c-0.3-4.4-2.4-7.6-6.3-9.5c-4.6-2.2-9.3-4.2-14-6.3
		c-6.7-2.9-11.5-7.8-14.5-14.5c-1.3-3-2.7-5.9-4-8.8c-2.3-5-6-8.2-11.5-9.1c-8.3-1.4-16.5-1.1-24.7,0.6c-5.7,1.2-10,4.3-12.7,9.6
		c-1.5,3-3.2,5.8-4.7,8.8c-1.5,2.9-3.8,4.2-7.1,3.5c-3.8-0.7-6.5,0.9-8.6,3.9c-2.8,4.2-3.9,8.8-3.5,13.8c0.5,5.2,2.4,9.9,5,14.4
		c2.6,4.3,5.3,8.4,8,12.7c0,0.1,0.2,0.1,0.4,0.2c0.2-1.2,0.4-2.2,0.5-3.3c0.4-5.9,0.8-11.8,1.2-17.7c0.2-2.2,0.6-4.5,0.5-6.7
		c-0.1-2.3,0.3-4.4,1.1-6.5c2-5.2,5.1-9.7,9.1-13.5c1.7-1.6,3.7-3,5.8-3.9c5.8-2.5,13-0.6,17.1,4.5c2.4,2.9,4.4,6,6.5,9.1
		c4,5.9,8.7,10.9,15.2,13.9c2.4,1.1,5,1.9,7.5,2.8c2.5,0.9,4.2,2.5,4.7,5.1c0.9,4.9,0.9,9.7-1.8,14.2c-0.8,1.4-1.2,3.1-1.7,4.7
		c-0.1,0.4,0.1,1.1,0.4,1.4c2.4,1.9,3.2,4.5,3.1,7.4c-0.1,0.9,0.2,1.6,1.2,2c2.7,0.9,3.9,3.1,4.2,5.8c0.2,1.2,0.3,2.5,0.5,3.7
		c0.2,1.5,0.9,2.6,2.2,3.4c0.7,0.4,1.3,1,1.8,1.6c0.6,0.8,0.3,1.4-0.7,1.3c-1-0.1-2-0.5-2.9-0.8c-0.6-0.1-1.2-0.4-1.8-0.3
		C291.6,121.3,289.4,121.5,287.1,120.6z M216.8,238.3c0.1-0.5,0.1-0.8,0.3-1c1.9-1.9,2.6-4.6,3.8-6.9c0.4-0.7,1-1.4,1.7-1.7
		c3.5-1.5,7-3.2,11-3.2c0.2,0,0.5,0,0.7-0.2c1.2-1,2.4-2,3.4-3.1c0.5-0.6,0.7-1.6,0.5-2.3c-0.1-0.4-1.4-0.4-2.1-0.6
		c-0.3-0.1-0.6,0-1,0c-4.6,0.9-9.3,1.6-13.9,2.6c-4.8,1-7.8,4.1-9.2,8.8c-0.3,1-0.6,2.1-0.8,3.1c-0.1,0.4-0.1,0.9-0.4,1.2
		c-0.4,0.4-0.9,0.9-1.4,0.9c-0.4,0-1-0.5-1.2-1c-0.3-0.8-0.5-1.8-0.6-2.7c-0.5-4-2.2-7.4-4.6-10.6c-1-1.3-2.5-2.2-3.8-3.2
		c-0.8-0.6-1.6-0.3-1.7,0.8c0,0.9,0,1.9,0.2,2.8c1,3.4,2.1,6.7,3.1,10.1c1.2,3.9,1.3,7.9,0.5,12c-1.4,7.2-5.6,12.6-10.9,17.1
		c-2.1,1.8-4.6,3.2-7,4.6c-7.2,4.2-14.9,7.2-22.9,9.5c-5.4,1.6-10.6,3.7-15.4,6.7c-5,3.1-8.5,7.1-9.9,12.8
		c-1.3,5.6-2.3,11.3-3.4,16.9c-0.3,1.8-0.4,3.7-0.4,5.5c0,1.9,1,3,2.5,3.2c1.5,0.2,2.9,0,4.2-0.9c1.5-1.1,3.1-2.1,4.7-3.1
		c7.5-4.3,14.7-9.1,21.3-14.7c6.7-5.6,13.1-11.4,19.7-17c3.7-3.1,7.7-6,11.7-8.8c2.1-1.5,4.5-2.7,7.2-2.7c1.5,0,3-0.1,4.6,0
		c2,0.1,3.7-0.5,5-2c0.7-0.8,1.7-1.5,2.6-2.2c4.9-3.6,9.8-7.1,14.7-10.8c1.9-1.4,3.6-3.1,5.2-4.8c2-2.2,2-5,2.1-7.9
		c-3.9,4.3-7.7,8.4-13.2,10.2c0-0.4,0.2-0.8,0.4-1c1.4-1.4,2.8-3,4.4-4.3c4.7-3.9,8.4-8.5,11.1-14c0.2-0.3,0.3-0.7,0.5-1
		c-0.7,0.2-1.2,0.6-1.7,0.9c-3.8,2.8-7.5,5.6-11.3,8.3c-1.5,1-3.2,1.8-4.8,2.6c-0.6,0.3-1.4,0.3-1.7-0.5c-0.3-0.8,0.2-1.3,0.9-1.6
		c1.4-0.8,2.8-1.4,4.1-2.3c2.4-1.6,4.7-3.3,7-5c3.7-2.7,7.4-5.4,11.2-8.1c0.9-0.6,1.5-1.4,1.3-2.6c-0.5-2.3-1.8-3.2-4-2.3
		c-2.7,1.1-5.3,2.4-7.8,3.9c-4.2,2.5-8.3,5.1-12.4,7.7C219.4,237.6,218.3,238.1,216.8,238.3z M290.1,307.2c-0.3-2.8-0.5-5.4-0.7-8
		c-0.7-8.3,0.5-16.2,4.1-23.7c4.4-9.2,9.4-18,14.8-26.6c1.6-2.5,3.2-5,5.1-7.3c3.6-4.4,8.5-6.8,13.8-8.6c2.4-0.8,4.7-1.6,7.1-2.3
		c0.7-0.2,1-0.6,0.7-1.3c-0.4-1.4-0.8-2.9-1.3-4.2c-0.1-0.4-0.7-0.7-1.1-0.8c-1.7-0.6-3.4,0.2-5,0.5c-10.6,1.9-21.2,3.2-31.9,3.9
		c-14.2,1-28.3,1.7-42.5,1.1c-0.5,0-1,0-1.6,0c0.3,10.2,0.6,20.3,1,30.6c0.2-0.2,0.3-0.3,0.4-0.3c1.2-1.7,2.8-2.6,4.9-2.2
		c2.2,0.5,3.2,2.2,3.5,4.2c0.2,1.6,0.1,3.2,0.1,4.8c-0.1,2.8-0.3,5.5-0.4,8.3c-0.1,1.5,0.6,2.5,1.9,3.3c2.7,1.7,4.3,4.2,4.7,7.4
		c0.2,1.9,0.5,3.9,0.5,5.8c-0.1,1.8,0.6,3.1,1.8,4.2c5.6,5.4,12,9.3,19.6,11.1C289.4,307.2,289.7,307.2,290.1,307.2z M225.8,291.3
		c2.2,2.7,4.6,4.8,7.7,6.1c3.1,1.3,6.3,2.3,9.7,2.6c2.7,0.3,5.4,0.7,7.7,2.4c1.8,1.3,3.8,1.9,5.9,1.9c2.1,0,2.6,0.7,1.7,2.5
		c1,0.7,2,1.4,3,2.1c5.8,4.3,11.5,8.6,17.3,12.9c8.7,6.3,18.2,10.8,28.6,13.6c9.3,2.5,18.3,1.8,26.5-3.4c2.5-1.6,4.5-3.9,6.7-5.9
		c0.7-0.7,0.7-2.2,0-3c-1.3-1.7-2.8-3.3-4.1-5c-3.3-4.3-7.7-6.2-12.9-6.2c-4.4,0-8.7,0.1-13.1,0.2c-6.9,0.2-13.8,0.1-20.6-1.2
		c-8.2-1.6-15.2-5.5-21.2-11.3c-2.5-2.4-4.2-5.2-3.9-8.9c0-0.3,0-0.6,0-0.8c-0.1-3.9-1-7.5-4.8-9.7c-1.3-0.7-1.9-2.1-1.9-3.6
		c0-2.6,0.1-5.2,0.1-7.8c0-2.2,0.1-4.4,0.1-6.6c0-0.9-0.6-1.6-1.5-1.7c-1.1-0.1-1.8,0.5-2.2,1.4c-0.4,1-0.8,2.1-0.8,3.1
		c-0.2,3.2-0.2,6.5-0.3,9.7c0,0.8-0.3,1.7-0.6,2.4c-0.4,0.8-1.1,0.7-1.6-0.1c-0.2-0.4-0.4-0.9-0.5-1.3c-0.5-1.8-1-3.6-1.4-5.5
		c-0.4-2.2-1.7-3.4-3.9-3.5c-2.2-0.1-4.5-0.3-6.7-0.1c-3.4,0.3-6.8,0.9-10.2,1.4c-0.4,0.1-1.1,0.3-1.2,0.6c-0.1,0.4,0.2,1,0.5,1.3
		c0.6,0.8,1.4,1.1,2.5,1.1c2.2,0,4.5-0.1,6.7,0.1c2,0.1,3.9,0.3,5.8,0.6c3.7,0.7,5,3.2,5.2,7.3c0,0.3-0.2,0.7-0.4,0.7
		c-0.2,0.1-0.6-0.2-0.8-0.4c-0.4-0.8-0.8-1.5-1.1-2.4c-0.6-1.8-1.8-2.7-3.6-2.9c-2.7-0.2-5.4-0.4-8.1-0.5c-1.6-0.1-3.3,0-4.9,0
		c-3.2,0-6.3-0.1-9.5,0c-1.4,0-1.8,0.6-1.6,2c0.2,1.3,1.3,1.6,2.3,2c6.7,2,13.7,3.2,20.3,5.6c1.7,0.6,3.5,1,5.2,1.6
		c0.4,0.1,0.6,0.6,0.9,1c-0.4,0.2-0.8,0.6-1.2,0.6c-0.7,0.1-1.4,0-2-0.2c-5.4-1.2-10.7-2.5-16.1-3.6c-2.6-0.5-5.2-0.7-7.8-0.9
		c-1.2-0.1-1.6,0.5-1.2,1.6c0.3,0.7,0.7,1.5,1.3,2c1.2,0.9,2.4,1.9,3.8,2.4c1.9,0.8,4,1.1,6,1.7c3.4,0.9,6.9,1.8,10.2,2.9
		c0.9,0.3,1.6,1,2.3,1.7c0.2,0.2,0.3,0.8,0.2,1.1c-0.1,0.2-0.6,0.3-0.9,0.2c-0.7-0.1-1.4-0.3-2.1-0.6
		C235,293,230.5,292.3,225.8,291.3z M334.6,44.4c0-1.5-0.6-4-1.6-6.4c-3.8-8.7-10.1-15.3-18.6-19.7c-4.1-2.1-8.4-2.9-12.9-2
		c-8.9,1.8-15.5,7-20.9,14.1c-0.2,0.2-0.2,0.7-0.1,1c2,4.2,3.9,8.3,5.9,12.5c1.9,3.9,4.6,7.2,8.4,9.5c2.2,1.3,4.6,2.4,7,3.5
		c4,1.9,8.1,3.6,12.1,5.6c2.9,1.4,4.9,3.7,6,6.9c1.7,4.8,0.8,9.3-1.4,13.8c-0.8,1.5-1.5,3-2,4.6c-0.8,2.5-0.4,3,2.2,2.7
		c5.2-0.6,9.6-3.1,13.7-6.2c1.9-1.5,3.5-3.3,4.6-5.5c1.8-3.7,1.4-7.5-1.5-10.4c-1.4-1.4-3.1-2.4-4.7-3.4c-1.3-0.8-2.8-1.3-4.2-2
		c-1.9-1-2-2.5-0.3-3.8c0.8-0.6,1.7-1.2,2.5-1.9C332.5,54.1,334.6,50.3,334.6,44.4z M273.1,196.4c-0.1,0.1-0.2,0.1-0.3,0.2
		c-2.4,2.3-5.1,3-8.3,2.1c-0.3-0.1-0.8,0.1-1.1,0.3c-3.1,1.9-6.3,2.2-9.7,0.6c-0.3-0.1-0.6-0.3-0.9-0.2c-1.1,0.6-2.2,1.2-3.2,1.7
		c0.6,8.5,1.2,17,1.8,25.7c1.9,0,3.8,0,5.7,0c21.7,0.4,43.3-0.9,64.8-3.7c3-0.4,6-0.8,9-1.2c0.6-0.1,1.3,0,1.2-1.1
		c-1.1-6.1-4.3-11.1-8.8-15.1c-1.3-1.2-3.2-1.9-4.9-2.7c-1-0.5-2.1-0.6-3.2-1c-10.3-3.3-21-5.7-30.2-11.7c-0.9,0.5-1.9,1.1-2.8,1.7
		c-0.5,0.3-1.1,0.8-1.4,1.3C279.2,196.6,276.2,197.8,273.1,196.4z M334.2,233.2c-3.7,1.5-7.1,2.8-10.5,4.3c-3.6,1.6-6.8,4-9,7.3
		c-2.5,3.7-4.9,7.5-7.2,11.3c-0.2,0.4-0.2,1-0.1,1.4c5.6,16.2,9.4,32.8,13.6,49.3c0.3,1.1,0.6,1.5,1.8,1.5
		c6.8-0.1,12.6,2.3,16.8,7.9c0.4,0.5,0.9,1,1.3,1.5c0.1,0,0.3-0.1,0.4-0.1C337.6,289.7,335.9,261.6,334.2,233.2z M228.5,345.1
		c0,0.3,0,0.5,0.1,0.6c1.5,5.7,3.1,11.2,5.5,16.6c1.5,3.5,3.2,7,6.2,9.6c0.6,0.5,1.3,1,2,1.1c11,1.9,21.7,0.9,32.2-3.2
		c4.2-1.6,7.7-4.2,10.3-7.9c1.1-1.6,1.6-3.1,1-5.1c-2.6-8.2-5-16.5-7.5-24.8c-0.2-0.6-0.4-1.1-0.6-1.7c-0.2,0.1-0.3,0.2-0.4,0.2
		c-3.9,4.4-8.8,7.3-14.1,9.5c-7.7,3.2-15.8,4.4-24,5C235.7,345.3,232.1,345.1,228.5,345.1z M232.3,215c0-0.3,0-0.7,0.1-1
		c0.3-4.9,0.5-9.8,1-14.7c0.6-6.8,2.9-12.9,7.4-18.2c0.4-0.5,0.8-0.9,1.3-1.5c-1.6-0.8-3-1.6-4.5-2.3c-5.2-2.2-10.4-4.4-15.6-6.6
		c-2.6-1.1-5.3-2.1-6.1-5.4c-0.5,1.2-0.7,2.3-1.1,3.4c-0.5,1.3-1.2,1.7-2.6,1.6c-2-0.1-3.6-0.8-5.1-2.1c-0.4-0.3-0.8-0.6-1.4-1.1
		c0.2,0.6,0.2,0.9,0.3,1.2c0.6,2.4,0.2,4.2-1.7,6c-5,4.7-9.9,9.6-14.8,14.4c-0.3,0.3-0.5,0.6-1,1.2c3-0.5,5.3,0.6,7.3,2.1
		c0.9,0.6,1.8,1.3,2.5,2c3.6,3.9,7.1,7.8,10.6,11.7c0.5,0.5,0.9,1.1,1.1,1.4c0.8-0.7,1.4-1.3,2.1-1.9c0.3-0.3,0.7-0.5,1-0.6
		c1.6-0.7,2.1-1.9,1.8-3.6c-0.6-2.9-1.2-5.9-1.7-8.8c-0.3-1.5-0.5-3-0.7-4.5c-0.1-0.8,0-1.7,1-1.9c0.9-0.2,1.4,0.4,1.8,1.1
		c0.3,0.7,0.7,1.4,0.9,2.1c1.9,5.6,3.9,11.1,5.7,16.7c0.7,2.2,1.9,3.8,4.1,4.8C228.2,211.6,230.1,213.4,232.3,215z M240.5,175.3
		c3.9,1,5.4,4,6.3,7.5c0.4,1.3,0.6,2.6,1,4c0.1,0.5,0.2,1,0.3,1.6c2.7-1.2,4.5,0.1,5.9,2.1c3.3-2.6,6.5-2.5,9.8-0.1
		c1.5-3,4-3.1,6.8-2.3c1.4-2.8,3.9-3,6.1-2.8c0.8-1.3,1.5-2.4,2.1-3.5c0.1-0.2,0.2-0.7,0-0.9c-1.4-3.6-2.8-7.2-4.2-10.8
		c-2.8-7.3-3.6-14.8-2.1-22.5c0.4-2.1,0.8-4.1,1.2-6.2c-8.9,6.7-18.7,10.2-30.1,8.4C245.5,158.5,244.4,166.9,240.5,175.3z
		 M141,280.8c0.3,0,0.4,0.1,0.5,0c0.5-0.3,1.1-0.6,1.5-0.9c4.7-3.5,10.1-5.5,15.7-7.1c7.3-2.1,14.4-4.7,21.1-8.1
		c1-0.5,1.5-1.1,1.5-2.3c0.1-5,1.8-9.5,5.1-13.3c2.3-2.7,4.8-5.2,7.1-7.8c1-1.1,2-2.2,3-3.4c-6.2-3.8-12.2-7.6-18.3-11.3
		c-1.5,2.3-3,4.7-4.6,7.1c-2.6,3.9-4.9,7.9-7.8,11.5c-7.7,9.5-14.6,19.5-21.5,29.6C143.2,276.7,142.2,278.8,141,280.8z M305.5,260.3
		c-0.1,0-0.3,0-0.4,0c-0.1,0.2-0.3,0.4-0.4,0.6c-1.3,2.1-2.5,4.3-3.8,6.4c-0.6,0.9-1.3,1.8-1.7,2.7c-1.1,2.4-2.1,4.9-3.2,7.4
		c-1.5,3.3-2.7,6.7-3.2,10.3c-0.8,6.4-0.2,12.7,0.6,19c0.1,1,0.5,1.5,1.6,1.6c7.4,0.8,14.9,0.4,22.3,0.1c0.1,0,0.3-0.1,0.7-0.2
		C313.8,292.1,309.6,276.2,305.5,260.3z M249,264.9c0-0.5,0-0.8,0-1.2c-0.1-4.2-0.2-8.5-0.3-12.7c-0.6-16.7-0.7-33.4-2.6-50.1
		c-0.6-4.8-0.9-9.6-1.5-14.4c-0.2-1.6-0.7-3.1-1-4.7c-0.3,0.1-0.4,0.2-0.4,0.2c-0.2,0.2-0.3,0.3-0.5,0.5c-2.8,3.6-4.9,7.6-5.8,12.1
		c-1.4,7.1-1.6,14.3-1.7,21.5c0,0.1,0.1,0.3,0.2,0.4c1.7,0.1,3.5-0.2,4.7,1.3c1.2,1.5,0.7,3.1,0.2,4.8c0.6-0.1,1-0.2,1.5-0.2
		c1.7-0.2,3.2,0.4,4.2,1.8c2.1,2.8,1.7,5.8-1.1,7.8c-1.3,0.9-2.1,1.9-2.6,3.6c-0.7,2.4-2.1,4.5-3.2,6.8c-0.2,0.4-0.4,1-0.4,1.4
		c0,1.3,0.1,2.6,0.2,3.9c0.2,3.3-0.7,6.2-3,8.7c-0.2,0.3-0.3,0.9-0.2,1.3c0.4,1.7,1,3.4,1.4,5.1c0.2,0.8,0.6,0.9,1.3,0.9
		C242,263.7,245.5,263.5,249,264.9z M218.3,152.5c-0.3-4.9-1-9.7-2.7-14.3c-0.4-1.2-1.2-2.5-2.2-3.2c-3.3-2.3-7-3.6-11-3.6
		c-4.7,0-7.3,3-7.1,7.7c0.3,5.4,1.8,10.5,2.9,15.8c0.6,2.7,1.9,4.6,4.1,6.1c1.8,1.2,3.6,1.8,5.6,1.2c2.1-0.6,4.3-1.2,6.2-2.1
		c2.8-1.4,4.6-2.6,4.1-6.4C218.2,153.2,218.3,152.8,218.3,152.5z M215.9,221c0,0-0.1-0.2-0.2-0.4c-3.7-5.2-7.3-10.4-11.1-15.5
		c-3.1-4-6.4-7.8-10.4-11c-2.2-1.7-4.5-2.3-7.2-1.6c-1.4,0.4-1.6,0.9-0.8,2.1c2,3,4,5.9,5.8,9c2.2,3.7,4.1,7.6,6.2,11.4
		c0.2,0.4,0.6,0.9,1,1.1c3.4,1.1,5.6,3.5,7.2,6.5c1.2,2.2,2.3,4.5,3.3,6.7c0.7-1.4,1.4-3,2.5-4.4C213.2,223.4,214.6,222.3,215.9,221
		z M239.3,330.7c-4.2,2.1-8.3,4.2-11.5,7.6c-0.2,0.2-0.3,0.4-0.4,0.6c-1,1.6-0.7,2.5,1.1,2.9c1.4,0.3,2.8,0.5,4.3,0.5
		c6.9,0,13.7-1,20.4-2.4c5.1-1.1,9.9-2.8,14.4-5.5c3.3-2,6.4-4.2,8.5-7.4c1.1-1.6,0.9-2.1-0.8-2.9c-3.4-1.4-6.9-0.9-10.4-0.3
		c0.1,0.6,0.2,1,0.3,1.5c0.7,3.5,0.3,4.4-2.7,6.2c-5,3-10.5,4.5-16.2,5.1c-2.9,0.3-5.3-1.3-6.4-3.9
		C239.6,332,239.5,331.4,239.3,330.7z M247.3,304.1c2.1,9.1,4.3,18.2,6.5,27.6c2.3-1.1,4.5-2.1,6.7-3.1c1.3-0.6,1.7-1.4,1.2-2.8
		c-1.7-5.2-3.3-10.3-4.9-15.5c-0.6-1.9-1.3-3.3-3.6-3.4c-0.9,0-1.8-0.6-2.7-1C249.5,305.3,248.5,304.7,247.3,304.1z M176.9,221.6
		c6.8,5.2,14.2,9.3,21.7,14c-0.2-0.8-0.2-1.3-0.4-1.8c-1.1-3.8-2.2-7.5-3.3-11.3c-0.1-0.4-0.6-0.7-1.1-0.9c-2.8-0.9-5.7-1.6-8.5-2.6
		c-1.6-0.6-3.2-1.4-4.8-2.1C179.4,218.5,178.2,219.9,176.9,221.6z M250.8,332.4c-3.7-10.7-7.5-21-13.2-30.5
		c-0.1,0.2-0.2,0.4-0.1,0.5c2.4,9.4,4.9,18.7,5.4,28.5c0.1,1.2,1.3,2.4,2.4,2.3C247.1,333,248.8,332.7,250.8,332.4z M184.9,261.8
		c8.9-3.7,14.1-14,14-21.5c-4,4.6-7.8,8.9-11.4,13.4C185.6,255.9,185,258.8,184.9,261.8z M230.5,217.2c-0.1-0.1-0.2-0.3-0.4-0.4
		c-2.2-2.3-4.9-3.7-7.6-5.1c-0.4-0.2-1.3-0.1-1.6,0.2c-1.6,1.3-3.1,2.7-4.7,4.1c0.8,1.2,1.5,2.4,2.3,3.5c0.2,0.2,0.7,0.4,1,0.4
		C223.1,219,226.7,218.1,230.5,217.2z M190.9,208c-1.9,2.7-3.6,5.1-5.5,7.9c3.3,1.1,6.4,2.1,9.7,3.2c0.2-1,0.8-2,0.5-2.5
		C194.2,213.7,192.6,211,190.9,208z M257.8,197.8c0,0,0,0.1,0,0.1c1-0.3,2.1-0.4,3.1-0.8c2.1-0.9,2.5-2.7,1-4.5
		c-1.9-2.2-4.7-1.8-6.7-0.5c-0.2,0.1-0.3,0.6-0.3,0.9c0,0.9,0.1,1.8,0,2.6c-0.1,1.5-0.1,1.6,1.4,1.9
		C256.8,197.7,257.3,197.7,257.8,197.8z M265.9,196.2c1.5,0.1,3.1-0.1,4.4-1.3c0.8-0.7,1.1-1.6,0.6-2.7c-1-2.3-4.2-2.7-5.8-0.7
		c-0.2,0.2-0.2,0.6-0.2,0.8C265.3,193.5,265.6,194.7,265.9,196.2z M270.1,319.8c-2.9-2.3-5.7-4.6-8.7-7.1c0.5,1.6,1,2.9,1.4,4.2
		c0.4,1.3,0.8,2.6,1.2,3.9C266.1,320.4,268,320.1,270.1,319.8z M274.6,194.1c0.1,0,0.5,0,0.9,0c1.2-0.1,2.5-1.2,2.7-2.3
		c0.4-1.6,0-2.7-1.2-3.4c-1.2-0.7-2.7-0.6-3.7,0.3c-0.3,0.3-0.5,0.8-0.4,1.2C273.3,191.2,273.9,192.5,274.6,194.1z M249,198.1
		c1.8-0.3,2.2-0.7,2.6-2.2c0-0.2,0.1-0.4,0.2-0.5c0.9-1.4,0-4.3-1.5-4.9c-0.9-0.4-1.9,0.1-1.9,0.9
		C248.6,193.5,248.8,195.8,249,198.1z M291.8,110.7c-0.1,0-0.3,0-0.4,0c-1,2.4-2.1,4.8-3.2,7.3c1.6,0,3.1,0,4.6,0
		c-0.2-1.4-0.4-2.6-0.5-3.7C292.1,113.1,292,111.9,291.8,110.7z M281.3,189.3c1.9-0.9,2.8-2.3,2-4c-0.3-0.7-1.1-1.3-1.8-1.6
		c-0.3-0.1-1.3,0.4-1.5,0.8c-0.3,0.8-0.3,1.8-0.1,2.6C280.1,187.9,280.8,188.5,281.3,189.3z M285.1,182.3c0.4-1.4-0.5-3.9-1.8-4.5
		c-0.3-0.1-0.9-0.1-1.1,0.2c-0.7,0.7-0.6,2.4,0.3,2.9C283.3,181.4,284.3,181.8,285.1,182.3z"/>
	<path class="st0" d="M216.1,272.2c-0.8,2.7-0.9,5.2,1.7,7c-2.3,1.7-2.8,3.6-1.4,6.1c0.4,0.7,0.8,1.4,1.5,1.9
		c2.7,1.9,4.6,4.6,6.8,7.1c2.3,2.7,5.1,4.7,8.4,6.1c0.4,0.2,0.9,0.7,1,1.1c1.7,8.5,3.4,16.9,5.1,25.4c0.2,0.9-0.1,1.3-1,1.6
		c-4.3,1.5-8.3,3.8-11.7,6.9c-1.1,1-1.9,2.5-2.5,3.9c-0.6,1.4-0.1,2.9,0.9,4.1c0.4,0.5,0.6,1.1,0.7,1.7c1.4,7.6,3.6,15,6.9,22
		c1.5,3.1,3.5,5.7,6,8c0.6,0.6,1.6,1,2.4,1.2c12.3,2.3,24.3,1.1,35.9-3.8c4.3-1.8,7.9-4.7,10.6-8.6c1-1.4,1.5-3.1,2.2-4.8
		c0.2-0.4,0-1-0.1-1.5c-3-10-6.1-20-9.1-30c-0.1-0.2-0.1-0.4-0.1-0.8c1.5,0.9,2.9,1.8,4.3,2.6c1.5,0.9,3.1,1.7,4.6,2.5
		c0.4,0.2,0.9,0.6,1,1.1c3.4,12.2,7,24.4,10.2,36.8c3.7,14.6,5.6,29.4,6.2,44.5c0.6,15.6,0.3,31.1-1,46.6
		c-1.6,17.7-3.3,35.4-5.2,53.1c-2.7,25-4.5,50-3.9,75.1c0.3,14.7,1.2,29.3,4.3,43.8c2,9.5,4.5,18.9,9,27.6
		c4.4,8.7,11.1,15.3,19.1,20.7c9.8,6.7,20.8,10.7,32.2,13.5c14,3.4,28.2,5.1,42.4,6.3c3.8,0.3,7.7,0.6,11.5,0.8
		c0.4,0,0.9,0.1,1.3,0.1c2.6,0.3,3.9,1.6,4.1,4.2c0.3,3.7-1.2,7-3.3,9.9c-5.1,7.1-15.2,13.3-27.4,9c-3.3-1.2-6.4-2.7-9.6-4.2
		c-4.8-2.2-9.5-4.4-14.8-5.1c-1.5-0.2-3,0-4.5,0c-0.5,0-1.1,0-1.5-0.1c-18.7-6.7-35.8-16.1-50.3-29.8c-11.4-10.8-20-23.6-26.8-37.6
		c-6.4-13.3-10.7-27.3-13.9-41.7c-2.5-11-4.7-22-7.1-33.1c0-0.1-0.1-0.3-0.3-0.4c0.2,1.8,0.4,3.5,0.7,5.3
		c2.7,16.5,5.9,32.9,10.8,48.9c5.3,17.4,13.1,33.5,24.4,47.8c12.3,15.4,27.5,27.2,45.5,35.2c5,2.3,10.3,4,15.4,6
		c0.1,0.1,0.3,0.1,0.6,0.2c-0.6,0.5-1.2,1-1.8,1.5c-1.6,1.6-2.5,3.6-3.1,5.8c-0.8,2.8-1.4,5.6-2.2,8.3c-1.8,6.5-5.5,11.7-11.1,15.4
		c-0.9,0.6-1.9,1.2-2.9,1.6c-5.2,2.2-9.7,1-12.9-3.6c-1.4-2.1-2.6-4.4-3.7-6.7c-2.2-4.8-4.3-9.7-7.9-13.7c-1.6-1.8-3.5-3.5-5.5-5
		c-1-0.8-2.3-1.3-3.6-1.6c-3-0.8-5.7,0-7.5,2.6c-1.2,1.8-2.2,3.8-2.9,5.9c-1.5,4.1-2.6,8.4-4.1,12.5c-1.4,3.9-3.7,7.2-7.3,9.4
		c-5.3,3.3-9.9,2.9-14.4-1.3c-2.2-2.1-4.2-4.4-6.3-6.6c-4-4.3-8.3-8.3-13.4-11.2c-3.8-2.2-8-2.6-11.8,0c-2.5,1.7-4.8,3.8-7.1,5.7
		c-2.3,2-4.4,4.3-6.8,6.1c-7.2,5.3-15.8,5.4-23.2,0.4c-4.8-3.2-9.5-6.5-14.8-8.9c-1.7-0.8-3.6-1.4-5.4-1.9c-3.2-0.8-6.4-0.3-9.3,1.4
		c-0.7,0.4-1.3,0.8-2.2,1.3c0.4-0.6,0.6-1,0.8-1.4c7.7-12,12.4-25,14.5-39.1c2.3-15,3.6-30,3.2-45.2c-0.5-16.1-2.4-32.1-5.3-48
		c-3.1-16.6-5.7-33.3-6.8-50.3c-0.9-13.8-0.8-27.6-0.1-41.4c0.5-11.5,1.3-23,2.1-34.5c1.5-21.2,5.8-41.9,12-62.2
		c5-16.6,9.3-33.3,12.3-50.4c1.7-10,2.7-20,2.8-30.1c0-3.3,0.3-6.6,0.1-9.9c-0.3-5-2.1-9.6-4.4-14.1c-2.9-5.5-5.6-11.1-8.3-16.8
		c-0.6-1.3-1.1-2.7-1.5-4.1c-0.1-0.4,0.1-1.1,0.4-1.3c3.2-2.5,6.4-4.9,9.6-7.4c1.7-1.3,3.7-1.6,5.7-1.7c1.3-0.1,2.6,0.1,4,0.1
		c2.1,0,3.9-0.8,5.4-2.3c0.6-0.7,1.4-1.3,2.1-1.9C215.8,272.2,216,272.2,216.1,272.2z M202,740c0.1,0,0.2,0.1,0.3,0.1
		c0.9-1.9,1.9-3.7,2.6-5.6c3.7-9.7,6.2-19.8,8.4-30c3.1-14.2,5.3-28.5,7-42.9c1.3-10.7,2.2-21.4,2.6-32.2
		c0.4-12.6,0.1-25.1-0.9-37.6c-0.8-9.3-1.8-18.6-3.8-27.7c-1.5-7-3.5-14-5.2-20.9c-0.8-3.1-1.5-6.2-1.1-9.5c0.1-0.7,0.4-1.3,0.6-1.9
		c0.1,0,0.3,0,0.4,0c0.3,0.6,0.8,1.2,1,1.8c0.9,2.9,1.9,5.8,2.6,8.7c4.3,18.3,7.1,36.9,9.5,55.5c2.3,17.8,4.4,35.7,6.5,53.6
		c2.9,25.3,7.9,50.2,14.2,74.8c0.1,0.5,0.3,1.1,0.4,1.6c0.2-0.3,0.2-0.6,0.1-0.9c-2.3-11.3-4.5-22.6-6.8-33.9
		c-3.6-17.3-5.8-34.7-7.8-52.2c-2.9-24.5-5.6-48.9-9.9-73.2c-1.7-9.7-3.9-19.3-6-29c-0.5-2.3-1.5-4.5-2.4-6.7
		c-0.2-0.5-1.1-1.2-1.5-1.1c-0.6,0.1-1.4,0.8-1.5,1.4c-0.3,1.2-0.6,2.5-0.4,3.8c0.4,3,0.8,6,1.6,8.9c4.9,16.7,7.5,33.7,8.6,51
		c1.2,20.1,0.5,40.2-1.7,60.3c-1.5,13.9-3.5,27.7-6.2,41.4c-2.7,13.7-5.8,27.3-10.5,40.5C202.4,738.7,202.2,739.3,202,740z
		 M261.9,583.3c-0.1,0-0.3,0-0.4,0c6,43.1,11.9,86.2,17.9,129.3c0.2,0,0.3,0,0.5-0.1C275,669.3,268.6,626.2,261.9,583.3z"/>
	<path class="st1" d="M249.2,147.3c-1.7-0.3-3.8-0.6-5.9-0.9c-2.2-0.4-3.7-1.8-5.1-3.4c-2.8-3.1-5.8-6.1-8.5-9.3
		c-3.7-4.3-5.4-9.6-6.6-15c-1.6-7.5-1.9-15.2-0.6-22.8c1.5-8.4,1.6-16.9,1.7-25.5c0-2.3-0.1-4.6-0.1-6.8c0-0.7,0.1-1.4,0.3-2.1
		c2.2-6.3,5.7-11.6,10.7-16c6.3-5.6,14.5-3.6,18.7,1.4c2.4,2.9,4.4,6.1,6.5,9.2c5.5,8.3,12.6,14.4,22.4,17c3.3,0.9,4.8,2.8,5,6.1
		c0.3,3.8,0.1,7.5-2,10.9c-0.9,1.3-1.3,3-1.7,4.6c-0.5,2.2,0.1,4.2,1.8,5.7c0.8,0.7,1.1,1.6,0.8,2.6c-0.6,2.2,0,3.9,1.9,5.3
		c0.2,0.1,0.3,0.6,0.3,0.9c-3.7,9-7.6,17.9-13.5,25.8c-4,5.4-9.5,8.5-15.7,10.5c-1.6,0.5-3.3,1-5,1.3
		C252.9,147,251.3,147,249.2,147.3z M235.6,120.3c-0.4-0.7-0.7-1.5-1.2-2.1c-0.3-0.3-1.1-0.5-1.5-0.4c-0.3,0.1-0.6,1-0.5,1.4
		c0.7,2.1,1.9,3.8,4.3,4.1c0.5,0.1,1,0.3,1.3,0.7c2,2.9,4.8,4.3,8.1,4.7c4.9,0.5,9.6-0.4,14.2-2.2c0.8-0.3,1.8-0.2,2.7-0.4
		c0.6-0.1,1.4-0.1,1.9-0.4c0.9-0.7,1.7-1.5,2.4-2.4c0.3-0.4,0.3-1.3,0-1.7c-0.2-0.3-1.2-0.3-1.6-0.1c-0.8,0.3-1.6,0.8-2.3,1.4
		c-0.6,0.5-1.2,0.6-2,0.3c-3.3-1.2-6.5-2.4-9.9-3.4c-5.2-1.5-10.4-2.3-15.5,0.4C235.9,120.3,235.8,120.3,235.6,120.3z M277.6,93.9
		c-0.2-2-1-3.3-2.3-4.3c-3-2.3-6.8-1.9-10.2-2.2c-1.3-0.1-3.2,2.1-3.3,3.6c0,0.6,0.2,1.5,0.6,1.9c0.6,0.6,1.3,0,1.9-0.5
		c1.4-1.4,3.1-1.7,5-1.2c2.2,0.6,3.9,1.8,5.4,3.5c0.4,0.4,1.3,0.7,1.9,0.6C276.9,95,277.3,94.2,277.6,93.9z M239.3,83
		c0-0.1-0.1-0.2-0.1-0.3c-2.4,0.6-4.8,1.2-7.1,1.9c-2.4,0.7-2.3,0.8-2.2,3.2c0,0.8,0.1,1.5,1,1.7c0.8,0.2,1.3-0.3,1.7-1
		c0.9-1.4,3.4-2.4,4.8-2c1.8,0.4,3.5,1.1,4.7,2.7c0.4,0.5,0.8,1,1.4,1.3c0.4,0.2,1,0.4,1.3,0.3c0.2-0.1,0.4-0.8,0.4-1.2
		c-0.2-1.2-0.5-2.3-1-3.4C243,83.4,242.2,82.9,239.3,83z M267.1,76.8c-0.7,0.2-2,0.3-3.1,0.7c-0.8,0.3-1.5,1-2.2,1.6
		c-0.2,0.2-0.2,0.9,0,1.3c0.1,0.2,0.8,0.2,1.1,0c3.4-2,6.7-1.4,9.8,0.5c1.8,1.2,3.3,2.8,5,4.2c0.6,0.4,1.3,0.6,2,1
		c-0.1-0.8-0.2-1.6-0.3-2.4c0,0,0-0.1-0.1-0.1C276.4,79.8,272.6,77.2,267.1,76.8z M246.7,78.4c0-2.1-1.9-4.1-4.3-4.6
		c-4.1-0.9-8-0.2-11.6,2c-0.5,0.3-1,0.9-1.2,1.4c-0.1,0.4,0.1,1.1,0.5,1.4c0.2,0.2,0.9,0.1,1.2-0.1c1.3-0.6,2.5-1.6,3.9-2
		c3.7-0.9,7.5-1.7,10.4,2.1c0.1,0.2,0.6,0.3,0.8,0.2C246.6,78.9,246.6,78.5,246.7,78.4z M244,108.5c0.2-0.6,0.5-1.1,0.7-1.6
		c0.7-1.9,1.6-3.7,2.2-5.6c1-3,1.3-6.2,0.6-9.3c-0.1-0.5-0.5-1-0.7-1.5c-0.4,0.3-0.5,0.4-0.5,0.6c0,5.1-1.3,10-3.6,14.5
		c-1,2.1,0.1,3.7,1.3,5.2c0.4,0.6,1,0.8,1.6,0.2c0.6-0.7,0.3-1.3-0.3-1.8C244.9,109,244.5,108.8,244,108.5z"/>
	<path class="st2" d="M287.1,120.6c2.3,0.9,4.5,0.7,6.7,0.3c0.6-0.1,1.2,0.1,1.8,0.3c1,0.2,1.9,0.7,2.9,0.8c1,0.1,1.3-0.5,0.7-1.3
		c-0.5-0.6-1.1-1.2-1.8-1.6c-1.3-0.8-2-1.9-2.2-3.4c-0.2-1.2-0.3-2.5-0.5-3.7c-0.3-2.7-1.5-4.8-4.2-5.8c-1-0.3-1.2-1-1.2-2
		c0.2-3-0.7-5.5-3.1-7.4c-0.3-0.2-0.5-1-0.4-1.4c0.5-1.6,0.8-3.3,1.7-4.7c2.7-4.5,2.7-9.3,1.8-14.2c-0.5-2.6-2.1-4.3-4.7-5.1
		c-2.5-0.9-5.1-1.7-7.5-2.8c-6.5-3-11.2-8-15.2-13.9c-2.1-3.1-4.1-6.2-6.5-9.1c-4.2-5.1-11.3-7-17.1-4.5c-2.1,0.9-4.1,2.3-5.8,3.9
		c-4,3.8-7.1,8.3-9.1,13.5c-0.8,2.1-1.2,4.2-1.1,6.5c0.1,2.2-0.4,4.5-0.5,6.7c-0.4,5.9-0.8,11.8-1.2,17.7c-0.1,1.1-0.3,2.2-0.5,3.3
		c-0.2-0.1-0.3-0.1-0.4-0.2c-2.7-4.2-5.5-8.4-8-12.7c-2.6-4.4-4.6-9.2-5-14.4c-0.4-5,0.7-9.6,3.5-13.8c2.1-3,4.8-4.6,8.6-3.9
		c3.3,0.7,5.6-0.6,7.1-3.5c1.5-2.9,3.2-5.8,4.7-8.8c2.7-5.3,7-8.4,12.7-9.6c8.2-1.8,16.4-2,24.7-0.6c5.5,0.9,9.3,4.1,11.5,9.1
		c1.3,3,2.7,5.9,4,8.8c3,6.7,7.8,11.5,14.5,14.5c4.7,2,9.4,4.1,14,6.3c3.9,1.9,6,5.1,6.3,9.5c0.2,2.6-0.5,5.1-1.7,7.4
		c-0.7,1.5-1.5,3-2.1,4.6c-1.7,4.5-0.9,8.5,2.6,11.8c0.8,0.7,1.6,1.5,2.4,2.2c1.8,1.7,2.4,3.8,1.8,6.2c-1.6,6.6-5,11.9-10.7,15.6
		c-3.1,2.1-6.2,4.2-9.2,6.5c-2.2,1.7-3.7,4-4.4,6.7c-1.5,5.7,1.4,10.5,7.2,11.7c1.2,0.3,2.5,0.4,3.7,0.6c1.5,0.3,1.9,1.1,1.2,2.5
		c-1.2,2.3-3.2,3.6-5.5,4.4c-5.2,1.9-10.4,1.8-15.6-0.2c-1.8-0.7-3.4-1.8-4-3.9c-0.3-1-1.3-1.3-2.4-0.8c-0.5,0.3-1.1,0.6-1.6,0.8
		c-2.6,0.8-4.7-1.1-4.4-3.8c0.3-2.5,0.6-5.1,0.9-7.6c0-0.2,0.2-0.5,0.3-0.6c4.1-5.1,7.1-10.8,9.9-16.6
		C286.9,120.9,287,120.8,287.1,120.6z"/>
	<path class="st3" d="M216.8,238.3c1.5-0.2,2.7-0.6,3.8-1.3c4.1-2.6,8.2-5.3,12.4-7.7c2.5-1.5,5.1-2.8,7.8-3.9c2.2-0.9,3.5,0,4,2.3
		c0.2,1.2-0.4,2-1.3,2.6c-3.7,2.7-7.4,5.4-11.2,8.1c-2.3,1.7-4.7,3.4-7,5c-1.3,0.9-2.7,1.5-4.1,2.3c-0.6,0.4-1.2,0.8-0.9,1.6
		c0.3,0.8,1.1,0.8,1.7,0.5c1.6-0.8,3.3-1.6,4.8-2.6c3.8-2.7,7.6-5.5,11.3-8.3c0.5-0.4,1-0.7,1.7-0.9c-0.2,0.3-0.3,0.7-0.5,1
		c-2.7,5.4-6.5,10.1-11.1,14c-1.6,1.3-2.9,2.8-4.4,4.3c-0.2,0.2-0.4,0.6-0.4,1c5.5-1.9,9.3-5.9,13.2-10.2c-0.1,3-0.1,5.8-2.1,7.9
		c-1.6,1.7-3.3,3.4-5.2,4.8c-4.8,3.7-9.8,7.2-14.7,10.8c-0.9,0.7-1.8,1.3-2.6,2.2c-1.4,1.5-3,2.1-5,2c-1.5-0.1-3,0-4.6,0
		c-2.7,0-5.1,1.2-7.2,2.7c-3.9,2.9-7.9,5.7-11.7,8.8c-6.7,5.6-13.1,11.4-19.7,17c-6.6,5.5-13.8,10.4-21.3,14.7
		c-1.6,0.9-3.2,2-4.7,3.1c-1.3,0.9-2.7,1.1-4.2,0.9c-1.5-0.2-2.5-1.3-2.5-3.2c0-1.8,0.1-3.7,0.4-5.5c1-5.7,2.1-11.3,3.4-16.9
		c1.3-5.7,4.8-9.7,9.9-12.8c4.9-3,10-5.1,15.4-6.7c8-2.4,15.7-5.3,22.9-9.5c2.4-1.4,4.9-2.8,7-4.6c5.4-4.6,9.5-10,10.9-17.1
		c0.8-4,0.7-8-0.5-12c-1-3.4-2.1-6.7-3.1-10.1c-0.3-0.9-0.3-1.9-0.2-2.8c0.1-1.1,0.8-1.4,1.7-0.8c1.4,0.9,2.9,1.9,3.8,3.2
		c2.3,3.1,4.1,6.6,4.6,10.6c0.1,0.9,0.3,1.8,0.6,2.7c0.2,0.4,0.8,1,1.2,1c0.5,0,1-0.5,1.4-0.9c0.3-0.3,0.3-0.8,0.4-1.2
		c0.3-1,0.5-2.1,0.8-3.1c1.4-4.7,4.3-7.8,9.2-8.8c4.6-1,9.3-1.8,13.9-2.6c0.3-0.1,0.6-0.1,1,0c0.7,0.1,2,0.2,2.1,0.6
		c0.2,0.7,0,1.8-0.5,2.3c-1,1.2-2.2,2.1-3.4,3.1c-0.2,0.1-0.5,0.2-0.7,0.2c-4,0-7.4,1.7-11,3.2c-0.7,0.3-1.3,1-1.7,1.7
		c-1.3,2.3-1.9,4.9-3.8,6.9C216.9,237.4,216.9,237.8,216.8,238.3z"/>
	<path class="st0" d="M290.1,307.2c-0.4,0-0.6,0-0.9-0.1c-7.6-1.8-14-5.7-19.6-11.1c-1.2-1.2-1.9-2.4-1.8-4.2
		c0.1-1.9-0.2-3.9-0.5-5.8c-0.4-3.2-2-5.7-4.7-7.4c-1.3-0.8-1.9-1.8-1.9-3.3c0.2-2.8,0.3-5.5,0.4-8.3c0.1-1.6,0.1-3.2-0.1-4.8
		c-0.3-2.1-1.2-3.8-3.5-4.2c-2.1-0.5-3.7,0.4-4.9,2.2c-0.1,0.1-0.2,0.1-0.4,0.3c-0.3-10.2-0.6-20.4-1-30.6c0.6,0,1.1,0,1.6,0
		c14.2,0.6,28.4-0.1,42.5-1.1c10.7-0.8,21.3-2,31.9-3.9c1.7-0.3,3.3-1.1,5-0.5c0.4,0.1,0.9,0.4,1.1,0.8c0.5,1.4,0.8,2.8,1.3,4.2
		c0.2,0.7,0,1.1-0.7,1.3c-2.4,0.7-4.7,1.6-7.1,2.3c-5.3,1.8-10.2,4.2-13.8,8.6c-1.9,2.3-3.5,4.8-5.1,7.3
		c-5.4,8.6-10.4,17.4-14.8,26.6c-3.6,7.5-4.8,15.4-4.1,23.7C289.6,301.8,289.8,304.5,290.1,307.2z"/>
	<path class="st3" d="M225.8,291.3c4.7,0.9,9.2,1.6,13.4,3.4c0.7,0.3,1.4,0.5,2.1,0.6c0.3,0.1,0.9-0.1,0.9-0.2
		c0.1-0.3,0-0.9-0.2-1.1c-0.7-0.6-1.4-1.4-2.3-1.7c-3.4-1.1-6.8-1.9-10.2-2.9c-2-0.6-4.1-0.9-6-1.7c-1.4-0.5-2.6-1.5-3.8-2.4
		c-0.6-0.5-1-1.2-1.3-2c-0.4-1.1,0-1.7,1.2-1.6c2.6,0.2,5.3,0.4,7.8,0.9c5.4,1.1,10.8,2.4,16.1,3.6c0.7,0.1,1.4,0.2,2,0.2
		c0.4,0,0.8-0.4,1.2-0.6c-0.3-0.3-0.5-0.9-0.9-1c-1.7-0.6-3.5-1-5.2-1.6c-6.6-2.4-13.6-3.6-20.3-5.6c-1-0.3-2.1-0.6-2.3-2
		c-0.2-1.4,0.2-2,1.6-2c3.2,0,6.3,0,9.5,0c1.6,0,3.3-0.1,4.9,0c2.7,0.1,5.4,0.2,8.1,0.5c1.8,0.1,3,1.1,3.6,2.9
		c0.3,0.8,0.7,1.6,1.1,2.4c0.1,0.2,0.6,0.4,0.8,0.4c0.2-0.1,0.4-0.5,0.4-0.7c-0.2-4.1-1.5-6.6-5.2-7.3c-1.9-0.4-3.9-0.5-5.8-0.6
		c-2.2-0.1-4.5-0.1-6.7-0.1c-1.1,0-1.9-0.3-2.5-1.1c-0.3-0.4-0.6-0.9-0.5-1.3c0-0.3,0.7-0.5,1.2-0.6c3.4-0.5,6.8-1.1,10.2-1.4
		c2.2-0.2,4.5,0,6.7,0.1c2.2,0.1,3.5,1.3,3.9,3.5c0.4,1.8,0.9,3.6,1.4,5.5c0.1,0.5,0.3,0.9,0.5,1.3c0.5,0.8,1.2,0.8,1.6,0.1
		c0.4-0.7,0.6-1.6,0.6-2.4c0.2-3.2,0.1-6.5,0.3-9.7c0.1-1.1,0.4-2.1,0.8-3.1c0.4-0.9,1.1-1.5,2.2-1.4c1,0.1,1.5,0.9,1.5,1.7
		c0.1,2.2,0,4.4-0.1,6.6c0,2.6-0.2,5.2-0.1,7.8c0,1.5,0.6,2.8,1.9,3.6c3.8,2.2,4.6,5.8,4.8,9.7c0,0.3,0,0.6,0,0.8
		c-0.3,3.7,1.4,6.5,3.9,8.9c6,5.8,13,9.7,21.2,11.3c6.8,1.3,13.7,1.4,20.6,1.2c4.4-0.1,8.7-0.2,13.1-0.2c5.2,0,9.7,1.9,12.9,6.2
		c1.3,1.7,2.7,3.4,4.1,5c0.6,0.8,0.7,2.3,0,3c-2.2,2-4.2,4.3-6.7,5.9c-8.3,5.3-17.3,5.9-26.5,3.4c-10.3-2.8-19.9-7.3-28.6-13.6
		c-5.8-4.2-11.6-8.6-17.3-12.9c-1-0.7-2-1.4-3-2.1c0.9-1.7,0.5-2.5-1.7-2.5c-2.2,0-4.1-0.5-5.9-1.9c-2.3-1.7-5-2.1-7.7-2.4
		c-3.4-0.4-6.6-1.3-9.7-2.6C230.4,296.1,228,294,225.8,291.3z"/>
	<path class="st2" d="M334.6,44.4c0,6-2.1,9.8-5.8,12.8c-0.8,0.7-1.7,1.2-2.5,1.9c-1.7,1.3-1.6,2.8,0.3,3.8c1.4,0.7,2.9,1.2,4.2,2
		c1.7,1,3.4,2.1,4.7,3.4c2.9,2.9,3.3,6.7,1.5,10.4c-1.1,2.2-2.7,4-4.6,5.5c-4.1,3.1-8.5,5.7-13.7,6.2c-2.6,0.3-3.1-0.2-2.2-2.7
		c0.5-1.6,1.2-3.1,2-4.6c2.3-4.4,3.2-8.9,1.4-13.8c-1.1-3.1-3.2-5.4-6-6.9c-4-2-8.1-3.7-12.1-5.6c-2.4-1.1-4.7-2.2-7-3.5
		c-3.8-2.2-6.5-5.5-8.4-9.5c-2-4.1-4-8.3-5.9-12.5c-0.1-0.3-0.1-0.7,0.1-1c5.4-7.1,12-12.3,20.9-14.1c4.5-0.9,8.9-0.1,12.9,2
		C323,22.7,329.2,29.2,333,38C334.1,40.4,334.6,42.9,334.6,44.4z"/>
	<path class="st1" d="M273.1,196.4c3.1,1.3,6.1,0.2,7.6-2.8c0.3-0.5,0.9-0.9,1.4-1.3c0.9-0.6,1.9-1.1,2.8-1.7
		c9.2,6,19.9,8.4,30.2,11.7c1.1,0.3,2.2,0.5,3.2,1c1.7,0.8,3.6,1.4,4.9,2.7c4.5,4.1,7.7,9,8.8,15.1c0.2,1.1-0.6,1-1.2,1.1
		c-3,0.4-6,0.8-9,1.2c-21.5,2.8-43.1,4-64.8,3.7c-1.9,0-3.8,0-5.7,0c-0.6-8.8-1.2-17.3-1.8-25.7c1-0.5,2.1-1.2,3.2-1.7
		c0.2-0.1,0.6,0,0.9,0.2c3.4,1.6,6.6,1.3,9.7-0.6c0.3-0.2,0.8-0.4,1.1-0.3c3.2,0.9,5.9,0.1,8.3-2.1
		C272.9,196.5,273,196.5,273.1,196.4z"/>
	<path class="st1" d="M334.2,233.2c1.7,28.3,3.4,56.4,7,84.4c-0.1,0-0.3,0.1-0.4,0.1c-0.4-0.5-0.9-1-1.3-1.5
		c-4.2-5.6-10-7.9-16.8-7.9c-1.2,0-1.5-0.4-1.8-1.5c-4.1-16.6-8-33.2-13.6-49.3c-0.1-0.4-0.2-1.1,0.1-1.4c2.4-3.8,4.7-7.6,7.2-11.3
		c2.3-3.3,5.4-5.7,9-7.3C327.1,236,330.5,234.7,334.2,233.2z"/>
	<path class="st4" d="M228.5,345.1c3.6,0,7.2,0.2,10.6,0c8.2-0.7,16.3-1.8,24-5c5.3-2.2,10.2-5.1,14.1-9.5c0.1-0.1,0.2-0.1,0.4-0.2
		c0.2,0.6,0.4,1.1,0.6,1.7c2.5,8.3,4.9,16.5,7.5,24.8c0.6,2,0.2,3.6-1,5.1c-2.7,3.7-6.1,6.3-10.3,7.9c-10.4,4-21.2,5.1-32.2,3.2
		c-0.7-0.1-1.5-0.6-2-1.1c-2.9-2.6-4.6-6.1-6.2-9.6c-2.3-5.4-4-11-5.5-16.6C228.5,345.6,228.5,345.4,228.5,345.1z"/>
	<path class="st5" d="M232.3,215c-2.2-1.6-4.2-3.4-6.5-4.5c-2.3-1.1-3.4-2.6-4.1-4.8c-1.8-5.6-3.8-11.1-5.7-16.7
		c-0.2-0.7-0.6-1.4-0.9-2.1c-0.4-0.7-0.8-1.4-1.8-1.1c-1,0.3-1.1,1.1-1,1.9c0.2,1.5,0.4,3,0.7,4.5c0.6,2.9,1.1,5.9,1.7,8.8
		c0.3,1.7-0.2,2.9-1.8,3.6c-0.4,0.2-0.7,0.4-1,0.6c-0.7,0.6-1.3,1.2-2.1,1.9c-0.2-0.3-0.6-0.8-1.1-1.4c-3.5-3.9-7-7.9-10.6-11.7
		c-0.7-0.8-1.6-1.4-2.5-2c-2.1-1.6-4.3-2.6-7.3-2.1c0.5-0.5,0.7-0.9,1-1.2c4.9-4.8,9.8-9.7,14.8-14.4c1.9-1.8,2.4-3.6,1.7-6
		c-0.1-0.3-0.1-0.6-0.3-1.2c0.6,0.5,1,0.8,1.4,1.1c1.5,1.2,3.2,1.9,5.1,2.1c1.4,0.1,2.1-0.3,2.6-1.6c0.4-1.1,0.6-2.2,1.1-3.4
		c0.8,3.3,3.5,4.3,6.1,5.4c5.2,2.3,10.4,4.4,15.6,6.6c1.5,0.6,2.9,1.5,4.5,2.3c-0.5,0.6-0.9,1-1.3,1.5c-4.4,5.2-6.7,11.4-7.4,18.2
		c-0.5,4.9-0.7,9.8-1,14.7C232.3,214.3,232.3,214.7,232.3,215z"/>
	<path class="st1" d="M240.5,175.3c3.9-8.3,5-16.7,3.1-25.6c11.4,1.7,21.2-1.7,30.1-8.4c-0.4,2.1-0.8,4.2-1.2,6.2
		c-1.5,7.7-0.6,15.2,2.1,22.5c1.4,3.6,2.8,7.2,4.2,10.8c0.1,0.3,0.1,0.7,0,0.9c-0.6,1.1-1.3,2.2-2.1,3.5c-2.2-0.2-4.7,0-6.1,2.8
		c-2.7-0.8-5.2-0.7-6.8,2.3c-3.2-2.5-6.5-2.5-9.8,0.1c-1.4-2-3.2-3.2-5.9-2.1c-0.1-0.6-0.2-1.1-0.3-1.6c-0.3-1.3-0.6-2.6-1-4
		C245.9,179.3,244.4,176.3,240.5,175.3z"/>
	<path class="st1" d="M141,280.8c1.2-2.1,2.2-4.2,3.5-6c6.8-10.1,13.8-20.1,21.5-29.6c2.9-3.6,5.2-7.6,7.8-11.5
		c1.6-2.4,3.1-4.7,4.6-7.1c6.1,3.8,12.1,7.5,18.3,11.3c-1,1.2-2,2.3-3,3.4c-2.4,2.6-4.8,5.1-7.1,7.8c-3.3,3.8-5,8.3-5.1,13.3
		c0,1.2-0.5,1.8-1.5,2.3c-6.8,3.4-13.8,6-21.1,8.1c-5.6,1.6-11,3.6-15.7,7.1c-0.5,0.4-1,0.6-1.5,0.9
		C141.4,280.9,141.4,280.9,141,280.8z"/>
	<path class="st5" d="M249,264.9c-3.5-1.5-7.1-1.2-10.6-1.1c-0.8,0-1.1-0.1-1.3-0.9c-0.4-1.7-1-3.4-1.4-5.1c-0.1-0.4,0-1,0.2-1.3
		c2.3-2.5,3.2-5.4,3-8.7c-0.1-1.3-0.2-2.6-0.2-3.9c0-0.5,0.2-1,0.4-1.4c1.1-2.3,2.5-4.4,3.2-6.8c0.5-1.6,1.3-2.6,2.6-3.6
		c2.8-2,3.2-5,1.1-7.8c-1.1-1.4-2.5-1.9-4.2-1.8c-0.4,0-0.9,0.1-1.5,0.2c0.5-1.7,1-3.3-0.2-4.8c-1.2-1.5-3-1.2-4.7-1.3
		c-0.1-0.2-0.2-0.3-0.2-0.4c0-7.2,0.2-14.4,1.7-21.5c0.9-4.5,3-8.5,5.8-12.1c0.1-0.2,0.3-0.4,0.5-0.5c0.1-0.1,0.1-0.1,0.4-0.2
		c0.4,1.6,0.9,3.1,1,4.7c0.5,4.8,0.9,9.6,1.5,14.4c1.9,16.6,2,33.4,2.6,50.1c0.2,4.2,0.2,8.5,0.3,12.7
		C249,264.1,249,264.4,249,264.9z"/>
	<path class="st5" d="M218.3,152.5c0,0.4,0,0.7,0,1.1c0.6,3.9-1.2,5.1-4.1,6.4c-2,1-4.1,1.5-6.2,2.1c-2,0.6-3.9,0.1-5.6-1.2
		c-2.2-1.5-3.5-3.5-4.1-6.1c-1.2-5.2-2.6-10.4-2.9-15.8c-0.2-4.7,2.4-7.6,7.1-7.7c4,0,7.7,1.3,11,3.6c1,0.7,1.7,2,2.2,3.2
		C217.3,142.8,218,147.6,218.3,152.5z"/>
	<path class="st6" d="M215.9,221c-1.3,1.3-2.7,2.4-3.7,3.8c-1,1.4-1.7,3-2.5,4.4c-1-2.1-2.1-4.5-3.3-6.7c-1.7-2.9-3.8-5.4-7.2-6.5
		c-0.4-0.1-0.8-0.6-1-1.1c-2.1-3.8-4-7.6-6.2-11.4c-1.8-3.1-3.8-6-5.8-9c-0.8-1.2-0.6-1.7,0.8-2.1c2.7-0.7,5-0.2,7.2,1.6
		c4,3.2,7.4,7,10.4,11c3.8,5.1,7.4,10.3,11.1,15.5C215.8,220.8,215.9,221,215.9,221z"/>
	<path class="st7" d="M239.3,330.7c0.2,0.7,0.3,1.3,0.5,1.9c1.1,2.7,3.5,4.2,6.4,3.9c5.7-0.6,11.2-2.2,16.2-5.1
		c3-1.8,3.4-2.7,2.7-6.2c-0.1-0.5-0.2-0.9-0.3-1.5c3.5-0.6,7-1.1,10.4,0.3c1.8,0.7,1.9,1.2,0.8,2.9c-2.1,3.3-5.2,5.4-8.5,7.4
		c-4.4,2.7-9.3,4.4-14.4,5.5c-6.7,1.5-13.5,2.4-20.4,2.4c-1.4,0-2.9-0.2-4.3-0.5c-1.8-0.4-2.1-1.3-1.1-2.9c0.1-0.2,0.3-0.4,0.4-0.6
		C231.1,334.9,235.1,332.8,239.3,330.7z"/>
	<path class="st5" d="M247.3,304.1c1.2,0.6,2.2,1.2,3.3,1.8c0.9,0.4,1.8,1,2.7,1c2.3,0.1,3,1.5,3.6,3.4c1.6,5.2,3.2,10.4,4.9,15.5
		c0.4,1.3,0,2.2-1.2,2.8c-2.2,1-4.4,2-6.7,3.1C251.6,322.3,249.5,313.2,247.3,304.1z"/>
	<path class="st0" d="M176.9,221.6c1.3-1.6,2.5-3.1,3.7-4.6c1.6,0.7,3.2,1.6,4.8,2.1c2.8,0.9,5.7,1.7,8.5,2.6
		c0.4,0.1,0.9,0.5,1.1,0.9c1.1,3.7,2.2,7.5,3.3,11.3c0.1,0.4,0.2,0.9,0.4,1.8C191.2,230.9,183.7,226.8,176.9,221.6z"/>
	<path class="st6" d="M250.8,332.4c-2,0.3-3.8,0.6-5.5,0.7c-1.1,0.1-2.3-1.1-2.4-2.3c-0.5-9.7-3-19.1-5.4-28.5c0-0.1,0-0.3,0.1-0.5
		C243.3,311.4,247.2,321.7,250.8,332.4z"/>
	<path class="st0" d="M184.9,261.8c0.2-3,0.7-5.9,2.5-8.1c3.6-4.5,7.5-8.8,11.4-13.4C199,247.8,193.8,258.1,184.9,261.8z"/>
	<path class="st6" d="M230.5,217.2c-3.7,0.9-7.4,1.8-11,2.6c-0.3,0.1-0.8-0.1-1-0.4c-0.8-1.1-1.5-2.2-2.3-3.5
		c1.6-1.4,3.1-2.8,4.7-4.1c0.4-0.3,1.2-0.4,1.6-0.2c2.7,1.4,5.5,2.8,7.6,5.1C230.3,216.9,230.4,217.1,230.5,217.2z"/>
	<path class="st1" d="M190.9,208c1.7,3,3.3,5.7,4.6,8.5c0.3,0.6-0.3,1.5-0.5,2.5c-3.3-1.1-6.4-2.1-9.7-3.2
		C187.3,213.1,189.1,210.7,190.9,208z"/>
	<path class="st8" d="M257.8,197.8c-0.5-0.1-1-0.1-1.4-0.2c-1.5-0.3-1.6-0.4-1.4-1.9c0.1-0.9,0-1.7,0-2.6c0-0.3,0.1-0.8,0.3-0.9
		c2.1-1.3,4.9-1.7,6.7,0.5c1.5,1.7,1.1,3.6-1,4.5c-1,0.4-2.1,0.6-3.1,0.8C257.8,197.9,257.8,197.8,257.8,197.8z"/>
	<path class="st8" d="M265.9,196.2c-0.3-1.4-0.6-2.6-0.8-3.9c0-0.3,0-0.6,0.2-0.8c1.5-2,4.7-1.5,5.8,0.7c0.5,1.1,0.2,2-0.6,2.7
		C269,196.1,267.4,196.3,265.9,196.2z"/>
	<path class="st0" d="M270.1,319.8c-2.1,0.3-4,0.7-6.1,1c-0.4-1.2-0.8-2.5-1.2-3.9c-0.4-1.3-0.9-2.6-1.4-4.2
		C264.4,315.2,267.2,317.5,270.1,319.8z"/>
	<path class="st8" d="M274.6,194.1c-0.7-1.6-1.3-2.9-1.7-4.3c-0.1-0.3,0.1-0.9,0.4-1.2c0.9-0.9,2.5-1,3.7-0.3
		c1.2,0.7,1.6,1.8,1.2,3.4c-0.2,1-1.5,2.1-2.7,2.3C275.1,194.2,274.7,194.1,274.6,194.1z"/>
	<path class="st8" d="M249,198.1c-0.2-2.3-0.4-4.5-0.6-6.7c-0.1-0.8,0.9-1.3,1.9-0.9c1.5,0.6,2.4,3.5,1.5,4.9
		c-0.1,0.2-0.2,0.3-0.2,0.5C251.2,197.3,250.7,197.8,249,198.1z"/>
	<path class="st1" d="M291.8,110.7c0.2,1.2,0.3,2.3,0.5,3.5c0.2,1.2,0.3,2.4,0.5,3.7c-1.5,0-3,0-4.6,0c1.1-2.4,2.1-4.9,3.2-7.3
		C291.5,110.7,291.7,110.7,291.8,110.7z"/>
	<path class="st8" d="M281.3,189.3c-0.5-0.8-1.2-1.4-1.4-2.2c-0.2-0.8-0.2-1.8,0.1-2.6c0.1-0.4,1.1-1,1.5-0.8
		c0.7,0.3,1.5,0.9,1.8,1.6C284.1,187,283.2,188.4,281.3,189.3z"/>
	<path class="st8" d="M285.1,182.3c-0.9-0.5-1.8-0.9-2.7-1.5c-0.8-0.5-1-2.2-0.3-2.9c0.2-0.2,0.8-0.3,1.1-0.2
		C284.6,178.4,285.5,181,285.1,182.3z"/>
	<path d="M202,740c0.2-0.7,0.4-1.3,0.7-2c4.7-13.2,7.8-26.8,10.5-40.5c2.7-13.7,4.7-27.5,6.2-41.4c2.2-20,2.9-40.1,1.7-60.3
		c-1.1-17.3-3.7-34.3-8.6-51c-0.8-2.9-1.2-5.9-1.6-8.9c-0.2-1.2,0.1-2.6,0.4-3.8c0.2-0.6,0.9-1.3,1.5-1.4c0.4-0.1,1.3,0.6,1.5,1.1
		c0.9,2.2,1.9,4.4,2.4,6.7c2.1,9.6,4.3,19.3,6,29c4.4,24.3,7,48.7,9.9,73.2c2.1,17.5,4.2,34.9,7.8,52.2c2.3,11.3,4.6,22.6,6.8,33.9
		c0.1,0.3,0.1,0.5-0.1,0.9c-0.1-0.5-0.3-1.1-0.4-1.6c-6.3-24.6-11.3-49.5-14.2-74.8c-2-17.9-4.2-35.7-6.5-53.6
		c-2.4-18.6-5.2-37.2-9.5-55.5c-0.7-2.9-1.7-5.8-2.6-8.7c-0.2-0.6-0.7-1.2-1-1.8c-0.1,0-0.3,0-0.4,0c-0.2,0.6-0.5,1.3-0.6,1.9
		c-0.4,3.2,0.3,6.4,1.1,9.5c1.7,7,3.7,13.9,5.2,20.9c2,9.1,3,18.4,3.8,27.7c1.1,12.5,1.4,25.1,0.9,37.6c-0.4,10.8-1.3,21.5-2.6,32.2
		c-1.7,14.4-4,28.7-7,42.9c-2.2,10.2-4.7,20.2-8.4,30c-0.7,1.9-1.7,3.7-2.6,5.6C202.2,740.1,202.1,740,202,740z"/>
	<path d="M261.9,583.3c6.6,43,13.1,86,18,129.2c-0.2,0-0.3,0-0.5,0.1c-6-43.1-11.9-86.2-17.9-129.3
		C261.7,583.3,261.8,583.3,261.9,583.3z"/>
	<path d="M235.6,120.3c0.2,0,0.3,0,0.4-0.1c5.1-2.8,10.3-1.9,15.5-0.4c3.3,1,6.6,2.2,9.9,3.4c0.7,0.3,1.3,0.2,2-0.3
		c0.7-0.6,1.5-1.1,2.3-1.4c0.5-0.2,1.4-0.2,1.6,0.1c0.3,0.3,0.3,1.3,0,1.7c-0.7,0.9-1.5,1.8-2.4,2.4c-0.5,0.4-1.2,0.3-1.9,0.4
		c-0.9,0.1-1.9,0-2.7,0.4c-4.6,1.8-9.3,2.8-14.2,2.2c-3.4-0.4-6.2-1.8-8.1-4.7c-0.2-0.4-0.8-0.6-1.3-0.7c-2.5-0.3-3.6-2-4.3-4.1
		c-0.1-0.4,0.2-1.3,0.5-1.4c0.4-0.1,1.2,0,1.5,0.4C234.9,118.8,235.2,119.6,235.6,120.3z M259.9,126c0-0.1,0-0.2,0-0.3
		c-6.8-0.7-13.7-1.3-20.7-2c1.4,1.9,3.3,3,5.4,3.5C249.8,128.5,254.8,127,259.9,126z M237.8,120.7c0,0.1,0,0.3,0,0.4
		c5.4,0.5,10.7,1.1,16.1,1.6c0-0.1,0-0.2,0-0.4C248.7,120.5,243.4,119.2,237.8,120.7z"/>
	<path d="M277.6,93.9c-0.3,0.3-0.6,1.1-1.2,1.3c-0.5,0.2-1.5-0.1-1.9-0.6c-1.5-1.7-3.2-2.9-5.4-3.5c-1.9-0.5-3.6-0.2-5,1.2
		c-0.5,0.5-1.2,1.1-1.9,0.5c-0.4-0.4-0.7-1.2-0.6-1.9c0.1-1.5,2-3.7,3.3-3.6c3.5,0.4,7.2-0.1,10.2,2.2
		C276.5,90.6,277.4,91.9,277.6,93.9z"/>
	<path d="M239.3,83c2.9-0.1,3.7,0.4,4.9,3.1c0.5,1.1,0.8,2.3,1,3.4c0.1,0.4-0.1,1.1-0.4,1.2c-0.4,0.1-1-0.1-1.3-0.3
		c-0.5-0.3-1-0.8-1.4-1.3c-1.2-1.6-2.9-2.2-4.7-2.7c-1.4-0.4-3.9,0.7-4.8,2c-0.4,0.7-0.9,1.1-1.7,1c-0.9-0.2-0.9-0.9-1-1.7
		c-0.1-2.4-0.2-2.4,2.2-3.2c2.3-0.7,4.7-1.3,7.1-1.9C239.2,82.8,239.3,82.9,239.3,83z"/>
	<path d="M267.1,76.8c5.6,0.4,9.3,3,12.3,6.8c0,0,0.1,0.1,0.1,0.1c0.1,0.8,0.2,1.6,0.3,2.4c-0.7-0.3-1.4-0.5-2-1
		c-1.7-1.4-3.2-3-5-4.2c-3.1-1.9-6.4-2.5-9.8-0.5c-0.3,0.2-1.1,0.1-1.1,0c-0.2-0.4-0.2-1,0-1.3c0.6-0.6,1.4-1.3,2.2-1.6
		C265.1,77.2,266.3,77,267.1,76.8z"/>
	<path d="M246.7,78.4c0,0.1-0.1,0.5-0.3,0.6c-0.2,0.1-0.7-0.1-0.8-0.2c-2.8-3.8-6.6-3.1-10.4-2.1c-1.4,0.3-2.6,1.3-3.9,2
		c-0.4,0.2-1.1,0.3-1.2,0.1c-0.3-0.4-0.6-1-0.5-1.4c0.2-0.6,0.7-1.1,1.2-1.4c3.6-2.2,7.5-2.9,11.6-2
		C244.8,74.4,246.6,76.4,246.7,78.4z"/>
	<path d="M244,108.5c0.5,0.3,0.9,0.5,1.3,0.8c0.6,0.5,0.9,1.1,0.3,1.8c-0.6,0.7-1.2,0.4-1.6-0.2c-1.2-1.5-2.3-3.1-1.3-5.2
		c2.3-4.6,3.6-9.4,3.6-14.5c0-0.1,0.1-0.3,0.5-0.6c0.2,0.5,0.6,1,0.7,1.5c0.7,3.2,0.4,6.3-0.6,9.3c-0.6,1.9-1.4,3.7-2.2,5.6
		C244.5,107.5,244.2,108,244,108.5z"/>
	<path class="st9" d="M259.9,126c-5.1,1-10.1,2.5-15.3,1.2c-2.1-0.5-4-1.6-5.4-3.5c7,0.7,13.9,1.3,20.7,2
		C259.9,125.8,259.9,125.9,259.9,126z"/>
	<path class="st9" d="M237.8,120.7c5.6-1.5,10.9-0.2,16.1,1.7c0,0.1,0,0.2,0,0.4c-5.4-0.5-10.7-1.1-16.1-1.6
		C237.8,121,237.8,120.8,237.8,120.7z"/>
</g>
</svg>
