<?xml version="1.0" encoding="utf-8"?>
<!-- Generator: Adobe Illustrator 22.1.0, SVG Export Plug-In . SVG Version: 6.00 Build 0)  -->
<svg version="1.1" xmlns="http://www.w3.org/2000/svg" xmlns:xlink="http://www.w3.org/1999/xlink" x="0px" y="0px"
	 viewBox="0 0 552 768" style="enable-background:new 0 0 552 768;" xml:space="preserve">
<style type="text/css">
	.st0{fill:#FEE6E6;}
	.st1{fill:#350744;}
	.st2{fill:#EFB5A1;}
	.st3{fill:#A8715D;}
	.st4{fill:#9E9E9E;}
	.st5{fill:#565656;}
	.st6{fill:#E5E5E5;}
	.st7{fill:#A64686;}
	.st8{fill:#FFFFFF;}
	.st9{fill:#5397C6;}
	.st10{fill:#D34646;}
</style>
<g id="Слой2_xA0_Изображение_1_">
</g>
<g id="Слой3_xA0_Изображение_1_">
	<g>
		<path d="M439.1,346.6c0.3,1,0.6,1.9,0.9,2.7c4.5,11.9,9.1,23.7,13.5,35.7c5.2,14.3,9.6,28.8,12.5,43.8c0.1,0.4,0.2,0.8,0.2,1.2
			c0.5,5.9-0.1,6.7-4.6,9.1c-1.9,1-3.7,2.1-5,4c-0.6,0.9-1.8,1.6-2.8,2.1c-0.9,0.4-1.3,1-1.5,1.9c-1,5.3-2.1,10.5-3.1,15.8
			c-0.2,1.3-0.3,2.7-0.3,4.1c0,2.8,0.6,5.4,2.3,7.7c1.1,1.6,1,2.5-0.4,3.8c-1.2,1.2-2.5,2.3-3.8,3.2c-2,1.5-4,2.9-6.2,4.2
			c-1.4,0.8-2,1.7-2.2,3.4c-1.5,13-3.5,25.8-6,38.6c-4.1,20.8-9.6,41.3-18.2,60.7c-4.5,10.1-9.6,19.9-14.9,29.6
			c-5.5,10.1-11,20.2-16.5,30.3c-3.4,6.3-6.4,12.7-8.7,19.5c-2.9,8.5-3.2,17.3-2.5,26.1c0.3,4.2,2.2,7.8,5.2,10.8
			c3.2,3.2,6.9,5.8,10.9,7.8c4.3,2.2,8.8,4.1,13.2,6.2c2.1,1,4.2,1.9,6.3,2.9c1.7,0.8,2.5,2.1,2.7,3.9c0.4,3.4-0.5,6.5-2.6,9.2
			c-2.1,2.7-4.9,4.6-7.9,6.1c-4.4,2.2-9.2,3.2-14.1,3.7c-8.8,0.8-17.6,0.2-26.2-2.2c-8.1-2.2-13.9-7-17.3-14.7
			c-2.8-6.2-4.6-12.8-6.4-19.3c-1.5-5.5-3.1-10.9-4.8-16.3c-0.7-2.3-1.8-4.5-2.8-6.6c-1-2-1.6-4-1.6-6.2c0-1.8-0.1-3.7-0.1-5.5
			c0.1-6.7,5.3-12.8,12-14c1.1-0.2,2.2-0.3,3.3-0.5c4.1-0.5,7.5-2.4,9.9-5.7c1.5-2.2,2.8-4.6,3.9-7.1c3-7.2,4.4-14.7,4.6-22.4
			c0.2-12,0.1-24,0.1-36.3c-0.4,0.4-0.7,0.6-0.9,0.9c-8,15.3-16.2,30.5-24,45.9c-4.1,8.1-7.4,16.5-11,24.8c-2.6,6-3.4,12.3-3.8,18.7
			c-0.7,10.7-0.2,21.4,0.8,32.1c0.8,7.8,3.5,14.5,8.4,20.5c2.3,2.9,4.2,6,4.9,9.8c0.6,3.4-0.4,5.9-3.3,7.8c-2.7,1.7-5.7,2.6-8.7,3.2
			c-7.7,1.6-15.6,1.7-23.4,1.2c-5.6-0.4-11.1-1.2-16.6-2.6c-6-1.7-11.1-4.8-15-9.7c-2.8-3.5-3.7-7.4-2.5-11.7
			c0.6-1.9,1.2-3.8,1.9-5.7c1.2-3.1,2.5-6.1,3.6-9.2c2.8-8,6.9-15.5,11.2-22.8c0.6-1,1.2-2.1,1.5-3.2c4.1-15,8.2-30.1,12.2-45.1
			c1.4-5.5,1.9-11.2,1.8-16.9c-0.1-8.7-0.4-17.4-0.4-26.2c0-6.4,0.1-12.8,0.3-19.2c0.3-9.2,2.7-17.8,7.5-25.7
			c3.4-5.5,6.8-11,10-16.6c2-3.4,3.8-6.9,5.5-10.4c2.5-5.1,4-10.5,4.5-16.1c0.4-5.1,0.8-10.2,1.2-15.4c-0.8-0.3-1.4-0.5-2-0.7
			c-2.4-0.8-4.9-1.5-7.3-2.4c-0.8-0.3-1.6-0.7-2.4-1.1c-1.3-0.9-1.5-1.9-0.6-3.2c0.1-0.1,0.2-0.3,0.3-0.4c4-5.1,5.2-10.9,3.7-17.2
			c-1-4.4-2.2-8.7-3.4-13c-3.4-12.6-7-25.3-10.4-37.9c-2.6-9.7-2.6-19.6-1.2-29.5c1.8-11.9,4.9-23.5,9.3-34.7c0.2-0.5,0.3-1,0.2-1.7
			c-0.6,0.5-1.1,1.1-1.7,1.6c-13.6,12.6-29.5,21-47.6,25.1c-4,0.9-8.1,1.2-12.1,0.3c-0.9-0.2-1.9-0.5-2.7-0.8
			c-1.5-0.5-2.4-1.6-2.6-3.1c-0.3-2.1-0.7-4.1-1-6.2c-0.2-2,0.4-2.7,2.4-2.4c2.1,0.2,4.3,0.7,6.4,1c11.3,1.5,22.2-0.2,32.7-4.1
			c8.5-3.1,16.3-7.8,23.8-12.9c1-0.7,2-1.3,2.9-2.1c0.6-0.5,1.1-1.1,1.8-1.9c-1.8-1.4-1.2-3.2-0.5-5.4c-1,0.6-1.6,0.9-2.1,1.2
			c-7.2,4.5-15.1,7.4-23.6,8c-3.5,0.3-7,0-10.5-0.9c-1-0.3-2-0.6-2.9-1c-6.1-2.7-7.9-8.5-4.6-14.3c1.4-2.5,3.4-4.6,5.6-6.5
			c7.9-6.5,16.9-10.2,27.2-10.8c5.9-0.3,11.5,0.6,16.5,3.9c0.2,0.1,0.4,0.2,0.6,0.2c0.2-0.1,0.4-0.2,0.4-0.3c2-5.7,4-11.3,5.9-17
			c2.7-8,2.7-16,0.8-24.1c-2.6-10.9-5.6-21.7-9.9-32c-0.3-0.8-0.7-1.6-1-2.4c-0.1-0.1-0.2-0.2-0.5-0.6c-0.5,0.7-1.1,1.3-1.6,2
			c-4.2,5.6-8.4,11.3-12.7,16.9c-4.7,6.2-9.7,12.1-15.2,17.6c-4.2,4.1-8.7,7.7-13.7,10.8c-4.3,2.7-9.1,4.2-13.9,5.7
			c-1.1,0.3-2-0.3-2.9-0.9c-3.7-2.8-6.7-6.2-8.4-10.6c-1.5-3.9-2.8-7.8-3.9-11.8c-3.2-11.7-6.1-23.5-10.1-35
			c-2.5-7.1-4.9-14.2-8.6-20.8c-1.6-2.9-3.4-5.6-5.3-8.3c-3.1-4.3-7.6-6.4-12.5-8c-0.7-0.2-1.4-0.1-2.1-0.1
			c-19.6,1.2-39.2,1.5-58.8,1.1c-14.8-0.3-29.6-1.2-44.2-3.7c-10.7-1.8-21.2-4.2-31-9c-2.7-1.3-5.4-2.9-7.7-4.8
			c-6.1-5-5.7-10.9,1-15.3c3.5-2.3,7.4-3.7,11.4-4.9c2.1-0.6,4.2-1.1,6.3-1.7c0.1-0.3,0.3-0.6,0.3-0.9C86,149.8,94,136.6,104.6,125
			c8.9-9.8,19.2-17.6,31.5-22.6c8.1-3.3,16.4-5.2,25.1-6.1c0.5-0.1,1.1-0.1,1.7-0.2c0.1-0.5,0.2-0.8,0.2-1.2
			c0-8.1,6.1-13.6,14.2-12.7c6.7,0.7,11.7,5.1,13.4,12c0.3,1.2,0.5,2.3,0.8,3.7c0.8,0.2,1.5,0.3,2.3,0.5
			c16.4,3.6,31.9,9.6,45.6,19.3c14.6,10.3,26.2,23.4,34.2,39.5c2,4,3.4,8.3,4.2,12.7c0.1,0.6,0.3,1.2,0.5,1.9
			c3.1,0.9,6.2,1.8,9.2,2.8c2.5,0.8,5,1.8,7.4,2.8c1.1,0.5,2.1,1.1,3,1.9c1.5,1.4,2,3.2,1,5c-0.8,1.4-1.8,2.9-3.1,3.8
			c-2.2,1.5-4.7,2.8-7.2,3.7c-6.9,2.6-14.1,4.1-21.4,5.2c-8.6,1.3-17.3,2.3-25.9,3.4c-0.4,0.1-0.8,0.1-1.4,0.2
			c0.1,0.6,0.2,1.1,0.3,1.6c1.4,3.6,2.9,7.1,5,10.3c4.3,6.7,9.1,13.1,14.4,19.1c4,4.6,8,9.2,12,13.8c0.3,0.4,0.5,0.8,0.8,1.4
			c7.7-13.5,16.4-25.5,24.5-38c0.8-1.3,1-2.3,0.2-3.7c-1.6-3-2.3-5,2.6-7c3.7-1.5,7.5-2.7,11.3-4c5.3-1.8,10.6-3.5,15.5-5.1
			c0.8-1.9,1.2-3.6,2.1-4.7c1.1-1.3,2.7-2.2,4.2-3.1c1.2-0.8,2.5-1.4,3.8-2c2.4-1.1,3-0.9,4.8,1c0.2,0.2,0.4,0.3,0.7,0.6
			c0.6-1.5,0.3-3,0.2-4.5c-0.1-1.9,0.2-4.2-0.7-5.6c-0.8-1.4-3.1-1.8-4.6-2.8c-9.3-5.8-16.4-13.7-21.7-23.2
			c-0.8-1.5-1.8-2.8-3.1-3.9c-4.8-4.2-9.5-8.3-14.2-12.6c-5-4.7-9.3-9.9-12.5-16c-1.5-2.9-2.7-6-3.1-9.3c-0.7-4.6,0.3-8.8,2.7-12.6
			c1.7-2.7,3.5-5.4,5.5-7.9c4.1-5.2,7-11.1,9.8-17c0.2-0.5,0.4-1.1,0.4-1.6c0.7-10.2,6.5-16.7,15.2-21.1c3.8-1.9,8-2.8,12.2-3.6
			c0.8-0.1,1.5-0.3,2.5-0.5c-0.4-0.6-0.7-0.9-0.9-1.3c-0.6-1.1-1.4-2.2-1.9-3.3c-2.1-5-1-9.4,3.4-12.5c2.2-1.5,4.7-2.8,7.3-3.6
			c10.5-3.2,21.2-3.9,32-1.2c4.2,1,8,2.8,11.2,5.8c3,2.8,5.2,6,5.1,10.4c-0.1,2.8-1.3,5.1-2.8,7.3c-0.7,1-1.4,1.9-2.2,3.1
			c0.8,0.4,1.5,0.7,2.2,1c16.6,6.5,25.7,19.1,29.1,36.2c1.4,7,1.4,14,0.5,21c-1,7.9-4.4,14.6-9.6,20.6c-0.9,1-1.9,2-2.8,3
			c-1.6,1.9-3.5,3.6-6.1,4.3c-0.3,1.4-0.5,2.8-0.8,4.2c-1.4,7.3-3.5,14.3-7.8,20.5c-0.9,1.2-1.9,2.4-2.8,3.6
			c-0.4,0.5-0.8,1.1-0.8,1.6c0.4,6.5,0.9,12.9,2.8,19.4c2.8-0.8,5.4-0.1,7.9,1.1c4.2,2,7.2,5,8,9.8c0.2,0.9,0.7,1.4,1.4,1.7
			c2.4,1,4.9,2,7.3,2.9c1.3,0.5,2.6,0.9,3.8,1.4c1.7,0.7,2.5,1.9,2.4,3.7c-0.1,0.6-0.1,1.1,0,1.7c0.2,0.7,0.4,1.4,0.8,1.9
			c3.5,4,7.2,7.7,10.5,11.8c6.5,7.8,13.6,15.1,21.3,21.7c9.5,8.2,19.2,16.2,29.3,23.6c2.4,1.7,4.9,3.3,7.3,5
			c3.2,2.2,5.7,4.9,6.9,8.6c0.3,0.9,0.4,2.1,0.1,3c-5.4,17.1-12.6,33.4-23.2,47.9c-3.9,5.4-8.3,10.3-13.3,14.8
			c-1.7,1.5-3.5,2.8-5.3,4.2c-2.9,2.2-6.3,3-9.9,2.9c-0.5,0-1,0-1.4,0C439.6,346.4,439.5,346.4,439.1,346.6z M323.1,434.1
			c8.1,1,10.7,2.2,16.6,7.6c1.7,1.5,3.3,3,4.9,4.6c4.6,4.6,10.1,6.2,16.5,5c3.4-0.6,6.8-1.2,10.1-1.9c10-2.2,19.8-1.9,29.4,2.1
			c2.3,0.9,4.7,1.6,7.1,2.2c4.6,1.3,9.1,0.7,13.2-1.6c2-1.1,4.1-2.2,5.9-3.6c4.9-4,10.4-5.7,16.7-5.2c2.3,0.2,4.6-0.1,6.9-0.4
			c0.7-0.1,1.6-0.5,2.1-1c2.3-2.6,5.1-4.6,8.2-6.1c1.7-0.8,2.4-2,2.2-3.8c-0.1-0.8-0.1-1.6-0.3-2.4c-0.5-2.3-1-4.7-1.5-7
			c-3.3-14.5-8-28.5-13-42.4c-3.7-10.2-7.5-20.4-11.2-30.6c-0.9-2.6-1.6-5.3-4-7.3c-1.4,0.3-3,0.4-4.5,0.9
			c-3.8,1.1-7.7,1.7-11.6,1.8c-11.1,0.1-22.2,0.3-33.3-0.1c-17.2-0.6-34.3-1.6-51.5-2.3c-4.8-0.2-9.6-0.1-14.3-1
			c-0.1,0-0.3,0.1-0.6,0.3c-0.3,1.2-0.7,2.6-1.1,4c4.6,0.4,8.9,0.8,13.2,1.3c3,0.3,6,0.7,9.1,1c1.3,0.1,2.3,0.5,2.4,2.1
			c0.1,1.7,0.7,3.3,0.6,4.9c-0.2,3.7-0.5,7.3-1.1,11c-1.3,8.4-4,16.4-6.7,24.5c-3.7,11-7.2,22.1-9.1,33.5
			C323.9,427.3,323.5,430.6,323.1,434.1z M432.5,338.8c-0.4-2.7-1.2-4.9-2.4-7c-1.5-2.7-3.1-5.4-4.6-8.1c-4.1-7.3-7.4-14.9-9-23.1
			c-1.2-6.3-2-12.6-1.4-19.2c-0.7,0.3-1.2,0.6-1.7,0.8c-0.7,0.3-1.3,0.7-2,0.7c-0.6,0-1.4-0.3-1.8-0.7c-0.2-0.2,0.2-1.2,0.5-1.6
			c0.4-0.5,1.1-0.9,1.7-1.3c9.9-6.4,15.2-16,17.7-27.2c0.8-3.4,0.2-6.7-2.1-9.5c-1.1-1.4-2.1-2.8-3.1-4.3
			c-7.9-11.4-11.4-24.2-11.2-38c0-1.4-0.6-1.8-1.6-2.2c-3.6-1.4-7.3-2.9-11-4.4c-2.5,3.7-6.7,5.8-10.5,8.5c0.5,0.2,0.7,0.4,0.9,0.5
			c6.1,2.1,10.8,6.1,14.8,11c1.9,2.4,3.3,5.1,3.9,8.2c0.8,4.1-0.4,7.8-2.3,11.3c-3.5,6.2-8,11.6-12.8,16.7c-0.3,0.3-0.6,0.6-0.9,0.8
			c-2.5,2-4.4,1.3-5-1.8c-1.4-8-2.7-15.9-4-23.9c-0.4-2.4-0.7-4.8-1.2-7.6c-1.4,0.8-2.3,1.5-3.4,2.1c-2.2,1.3-4.3,2.7-6.6,3.9
			c-2.4,1.2-4.9,1.1-7.4-0.2c-0.4-0.2-0.9-0.4-1.6-0.7c0.3,0.9,0.5,1.5,0.7,2.1c3.1,8.7,7,17,11,25.3c0.7,1.5,1.4,3.1,1.8,4.7
			c0.7,2.6-0.4,4.7-3,5.3c-1.9,0.4-4,0.6-5.9,0.3c-10.5-1.8-19.6-6.7-27.4-14c-0.9-0.9-1.7-1.9-2.5-2.9c-2.7-3.8-3.4-8-2.3-12.5
			c0.8-3.2,2.4-6.1,4.3-8.8c3.1-4.4,7-8.1,11.1-11.6c0.4-0.4,0.8-0.8,1.2-1.2c-4.3-1.2-8.5-2.2-12.6-3.5c-6.1-1.9-10.3-5.9-12.6-12
			c-0.3-0.8-0.6-1.6-1-2.4c-0.4,0.1-0.6,0.1-0.8,0.2c-4.9,1.8-9.7,3.6-14.6,5.4c-3.5,1.2-6.9,2.4-10.4,3.7c-0.9,0.3-1.8,0.9-2.7,1.5
			c0.4,0.9,0.6,1.6,0.9,2.2c4.1,8.5,8.1,17,12.2,25.5c7.7,15.8,14.1,32.1,18,49.2c1.6,7.2,2.7,14.3,1.2,21.6
			c-0.8,3.8-2,7.6-3.2,11.3c-1.6,5-3.5,9.9-5.1,15c-1.2,3.8-2.1,7.7-3.2,11.8c3.2,0.2,6.2,0.3,9.1,0.5c10.2,0.4,20.3,0.6,30.5,1.2
			c16.9,0.8,33.9,1.6,50.8,1.3c3.6-0.1,7.2-0.1,10.8-0.6C424.9,340.6,428.7,339.6,432.5,338.8z M328.4,496.6c-0.1,3-0.1,5.3-0.3,7.7
			c-0.4,4.5-0.6,8.9-1.3,13.3c-1,6.2-3.6,11.9-6.7,17.4c-4.1,7.2-8.4,14.4-12.6,21.5c-3.4,5.7-5.8,11.8-6.4,18.4
			c-0.5,5.6-0.9,11.2-0.9,16.8c0,10.3,0.3,20.6,0.5,30.9c0.2,8.4-0.7,16.6-2.8,24.7c-1.8,6.7-3.5,13.5-5.4,20.2
			c-2.7,9.6-5.4,19.2-8.4,28.8c-1.1,3.6-1.3,7-0.9,10.6c0.4,3.2,1.8,5.9,4.1,8.2c5.7,5.7,12.6,8.6,20.6,8.8c3.9,0.1,7.4-1,10.5-3.5
			c1-0.8,1.3-1.5,1-2.9c-2-8-3.5-16-2.9-24.4c0.4-5.3,0.3-10.7,0.5-16.1c0.3-6.8,1.7-13.4,4.3-19.8c5.8-14.1,12.2-27.8,19.5-41.1
			c8.3-15.1,16.3-30.3,23.4-45.9c9.7-21.5,17.9-43.6,23.9-66.5c0.2-0.8,0.4-1.6,0.6-2.8C368.4,502.4,348.3,502.5,328.4,496.6z
			 M318.4,348.9c-0.5,1.1-1,2.1-1.5,3.1c-5.3,12.8-8.9,26-10.9,39.7c-1.5,10.1-1.1,20.1,1.7,29.9c2.8,9.8,5.4,19.6,8,29.4
			c1.8,6.5,3.6,12.9,5.2,19.4c1.6,6.5,0.8,12.7-3,18.4c-0.2,0.3-0.3,0.7-0.6,1.3c3.5,1,6.8,2,10.1,2.9c9.9,2.6,19.9,4.7,30.2,5.1
			c15,0.7,29.9,0,44.8-2c15.8-2,30.1-7.8,42.8-17.4c1-0.8,1.9-1.6,2.9-2.5c-2.5-4-2.9-8.1-2.5-12.4c0.3-3.2,1-6.3,1.6-9.5
			c0.5-2.6,1.1-5.1,1.7-7.9c-3.3,0-6.4,0-9.5,0c-2.9,0-5.5,0.9-7.8,2.6c-2.1,1.5-4.3,3.1-6.5,4.5c-6.2,4-12.9,5.1-20,2.8
			c-3-1-6.1-2-9.1-3c-6.3-2.2-12.7-2.6-19.2-1.6c-5.3,0.8-10.5,1.9-15.8,2.8c-6.9,1.2-13-0.5-18.1-5.3c-1.6-1.5-3.1-3-4.7-4.4
			c-1.6-1.4-3.1-2.8-4.8-4c-2.9-2.1-6.2-3.3-9.9-3.1c-0.2,0-0.5,0-0.7,0c-2.2-0.1-2.9-0.7-3-2.9c0-1,0-1.9,0.1-2.9
			c0.6-4.5,1.2-9,2.1-13.5c2.1-10.8,5.6-21.2,9.1-31.5c2.8-8.3,5.5-16.6,6.7-25.2c0.5-3.5,0.8-6.9,1.2-10.6
			C332,350.3,325.3,349.6,318.4,348.9z M372.7,705.3c-0.4-0.7-0.7-1.2-1-1.8c-1.7-2.7-2.9-5.6-3.2-8.7c-0.7-8.3-0.6-16.6,1.7-24.8
			c1.9-6.9,4.7-13.4,8-19.7c7.3-13.7,14.8-27.3,22.2-40.9c9-16.6,16.6-33.9,21.8-52.1c6.2-21.8,10.2-44.1,13.4-66.5
			c0.1-0.5,0-1,0-1.9c-13.7,8-28.8,10.4-43.9,11.9c-1,4.1-1.9,8-3,11.9c-6.1,22.3-14.3,43.7-24.1,64.6c-0.8,1.6-1.1,3.3-1.1,5.1
			c0,13.1,0.1,26.2,0,39.3c-0.1,9.3-1.7,18.3-5.2,26.9c-1.6,3.8-3.6,7.3-6.8,10c-0.7,0.6-0.9,1.2-0.8,2.1c1.3,7.6,2.4,15.2,3.8,22.7
			c0.9,5.1,2.4,9.9,5.1,14.4c1.3,2.1,2.9,4,5,5.4C366.9,704.8,369.5,705.8,372.7,705.3z M395.4,125.9c0.2,0.1,0.3,0.2,0.5,0.3
			c0.5-0.4,1.2-0.7,1.6-1.2c2-2.2,4-4.4,5.8-6.7c3.7-4.7,6.2-10.1,7.1-16.1c1.3-9.3,0.9-18.5-1.9-27.5c-2.9-9-7.7-16.7-15.5-22.2
			c-5.1-3.7-10.9-6.1-16.9-7.8c-15.4-4.4-31-5.4-46.8-2.8c-5,0.8-9.9,1.9-14.3,4.6c-6.1,3.7-10.5,8.6-11.6,15.9
			c-0.4,2.8-0.1,5.7-0.2,8.6c0,1.1,0,2.3,0,3.4c-0.2,0.1-0.4,0.1-0.6,0.2c-0.6-1.1-1.2-2.2-1.9-3.4c-0.3,0.4-0.5,0.8-0.6,1.1
			c-2,4.5-4.7,8.5-7.7,12.4c-1.7,2.2-3.4,4.5-4.8,6.9c-2.9,4.7-3.5,9.7-1.6,14.9c0.9,2.3,2,4.6,3.2,6.7c2.5,4.4,5.7,8.3,9.3,11.8
			c4.2,4.1,8.6,8.1,13.1,12.4c-2.1-8.7-4-17-6-25.5c-1.9,1.7-3.4,3.5-5.8,4.8c0.9-3,2.3-5.1,4-7.1c2.1-2.5,4.3-4.9,6.5-7.4
			c5.6-6.4,8.6-13.8,8.9-22.2c0.1-3.1,0-6.2,0-9.4c0-1.3,0.1-2.6,1-4.1c0.5,0.8,0.9,1.4,1.2,2c0.7,1.4,1.4,2.9,2.1,4.3
			c4.7,9.1,11.3,16.4,20.4,21.4c5.5,3,11.5,4.8,17.6,6.2c5.4,1.3,10.9,2.4,16.3,3.8c4.5,1.2,8.7,3.1,12.6,5.6
			c2.4,1.6,4.5,3.6,5.7,6.3c0.6,1.3,0.6,2.5,0.2,3.9C395.8,121.8,395.7,123.9,395.4,125.9z M85.8,165.3c1.5-0.2,2.5-0.4,3.5-0.6
			c5.1-0.7,10.3-1.7,15.4-2.1c10.8-0.9,21.7-1.6,32.5-2.1c25.3-1,50.5-0.1,75.7,1.7c0.5,0,1,0,1.7-0.1c-0.1-0.7-0.1-1.1-0.2-1.6
			c-1.1-5.1-2.2-10.2-3.4-15.2c-3.6-14.9-10.1-28.6-18.2-41.6c-1.2-2-2.6-2.9-4.9-3.2c-8.9-1.3-17.8-1.9-26.8-1
			c-10.8,1.1-21,3.9-30.6,9c-11.1,5.9-20.3,14.2-28.1,23.9c-7,8.7-12.4,18.2-15.7,28.9C86.5,162.6,86.2,163.8,85.8,165.3z
			 M238.7,197.9c0.4,0.1,0.6,0.1,0.8,0.1c10.9-1.6,21.8-3.2,32.7-5c5.7-0.9,11.3-2.3,16.6-4.5c1.8-0.7,3.5-1.6,5-2.7
			c3.3-2.5,3.1-4.3-0.6-5.8c-3.9-1.5-7.8-2.9-11.8-4c-14.4-4.1-29.2-6.2-44.1-8.1c-19.9-2.5-39.8-3.7-59.8-4.3
			c-18.9-0.5-37.9-0.5-56.8,0.8c-11.2,0.7-22.3,1.8-33.3,3.9c-6.1,1.2-12.2,2.5-17.9,5.2c-1.9,0.9-3.7,2-5.2,3.3
			c-2.8,2.3-2.9,4.9-0.3,7.4c1.6,1.6,3.4,2.9,5.3,4.1c5.7,3.4,12,5.6,18.4,7.3c14.1,3.8,28.6,5.3,43.1,6.2c20.6,1.2,41.2,1,61.9,0.6
			c0.6,0,1.2-0.1,1.9-0.2c-4.3-1.4-8.5-2.6-12.6-4.2c-6.1-2.3-11.8-5.2-17.3-8.7c-1.8-1.2-3.5-2.6-4.4-4.6c-1.6-3.3,0-7.3,4.5-6.9
			c2,0.2,4.1,0.7,6.3,1.1c1.2-1.7,3.3-2.2,5.4-1.9c2.5,0.3,5.1,0.6,7.5,1.3c3.4,0.9,6.7,2.1,10,3.2c1,0.3,2.1,0.6,3.3,0.9
			c0.1-0.8,0.1-1.2,0.2-1.7c0.6-5,3.4-6.5,7.8-4.2c0.1,0,0.1,0.1,0.2,0.1c4.7,2.2,9.4,4.4,14.2,6.5c2.2,0.9,4.5,1.6,6.9,2
			c5.4,0.9,9,3.9,10.9,9C237.8,195.3,238.3,196.6,238.7,197.9z M276.8,265.9c-0.2-1.2-0.5-2.1-0.6-3c-0.3-3.9-1.6-7.5-3.8-10.7
			c-1.4-2.1-3-4.2-4.6-6.1c-3.9-4.6-8-9.2-11.9-13.8c-6.6-7.6-12.2-15.8-16.4-25c-1.7-3.6-3.3-7.3-5.2-10.8
			c-1.3-2.4-2.9-4.6-4.5-6.8c-0.9-1.2-2-1.8-3.6-2.1c-1.8-0.3-3.6-0.7-5.3-1.4c-5.4-2.3-10.8-4.7-16.2-7.1c-0.7-0.3-1.4-0.8-2.2-1
			c-0.4-0.1-1.1,0.1-1.5,0.4c-1.6,1.6-1.3,3.6,0.6,4.8c0.7,0.5,1.5,0.8,2.4,1.2c2.8,1.2,5.6,2.3,8.4,3.5c1,0.4,1.9,0.8,2.8,1.4
			c1.3,0.9,1.4,1.9,0.7,3.6c-0.5-0.3-1.1-0.7-1.6-1c-0.9-0.5-1.8-1.1-2.7-1.5c-4.1-1.9-8.3-3.8-12.4-5.6c-0.3-0.2-0.7-0.2-1.1-0.3
			c-2.1-0.3-4.3-0.5-6.3-1.1c-3.1-0.8-6.1-2-9.2-2.8c-2.1-0.5-4.4-0.7-6.6-0.9c-0.8-0.1-1.6,0.4-2.4,0.6c0.1,1.8,1.3,2.3,2.4,2.7
			c2.6,1,5.3,1.9,8,2.6c5.2,1.4,10.4,2.6,15.6,3.9c0.8,0.2,1.5,0.5,2.2,0.9c0.3,0.2,0.6,0.9,0.5,1.2c-0.1,0.3-0.7,0.8-1,0.8
			c-0.8,0-1.6-0.1-2.4-0.3c-3.9-0.9-7.8-1.8-11.7-2.8c-3.6-1-7.2-2-10.8-3.2c-2.6-0.9-5-2.2-5.7-5.2c-2-0.2-4-0.5-5.9-0.5
			c-2,0-2.7,1.3-1.8,3.1c0.3,0.7,0.9,1.4,1.4,1.9c0.8,0.7,1.7,1.5,2.7,2c9.7,5.5,19.8,10.2,30.9,12.1c2.5,0.4,5.1,0.7,7.5,1.3
			c8.1,2.2,14.6,6.6,19.2,13.7c3.9,6,6.9,12.5,9.4,19.1c4.9,12.9,8.5,26.2,12,39.4c1.1,4.2,2.5,8.4,3.9,12.6
			c1.4,4.1,3.9,7.5,7.3,10.2c1.3,1.1,2.5,1.3,4.1,0.6c4.7-2,9.2-4.4,13.4-7.4c7.1-5.1,13.1-11.3,18.4-18.1c7.1-9,14-18.3,21-27.4
			c0.1-0.2,0.2-0.4,0.3-0.6c-2.6-7-13.5-30.4-15.1-32.1c-1.4,2.2-2.8,4.3-4.3,6.4c-5.9,8.9-11.8,17.7-17.7,26.6
			c-1.1,1.7-2.1,3.6-2.9,5.1c1.3,2.7,2.6,5,3.5,7.5c0.7,1.8,0.9,3.7,1.1,5.6C279.2,263.5,278.4,264.8,276.8,265.9z M321,86.8
			c-0.2,0.6-0.4,1.1-0.5,1.5c-1.3,5.4-3.9,10.1-7.4,14.4c-1.4,1.7-2.8,3.3-4.2,4.9c-0.8,0.8-1,1.6-0.8,2.8
			c1.5,6.4,2.9,12.9,4.5,19.4c2.8,11.1,8.5,20.4,16.7,28.3c6.2,6,13.2,10.1,22,11c9.5,1,17.5-1.5,24.4-8c1.8-1.7,3.5-3.5,5.2-5.3
			c3.5-3.5,5.8-7.7,7.5-12.4c3.1-8.4,4-17.1,4.6-25.9c0-0.7-0.3-1.6-0.7-2.2c-0.8-1-1.8-2-2.9-2.8c-3-2.2-6.3-3.7-9.8-4.9
			c-0.6-0.2-1.2-0.3-1.8-0.5c-3,4.1-6.8,6.7-11.5,8c-3.2,0.9-6.1,0.4-9-1.1c-1.6-0.8-2.1-2.1-1.9-3.7c0.3-2.1,1.2-4,2.6-5.6
			c0.5-0.6,1-1.1,1.5-1.7c-2.2-1.7-2.6,1.3-4.1,1.3c-1-0.8,0-1.7-0.1-2.4c-4.2-1.6-8.3-3.5-12.5-4.8c-6.2-1.9-11.9-4.7-17.4-7.9
			C323.9,88.4,322.5,87.6,321,86.8z M431.8,327.8c2.6,4,3.7,7.9,4.6,11.9c0.1,0.4,0.1,0.9,0.3,1.1c0.7,0.8,1.3,1.9,2.1,2
			c3.1,0.5,6.3,0.6,9-1.4c2.5-1.8,4.9-3.6,7.2-5.6c7.3-6.6,13.1-14.4,18.2-22.8c7-11.3,11.8-23.6,17.1-35.7c0.2-0.4,0.1-1.1,0-1.6
			c-1.2-3.8-3.6-6.7-7-8.8c-1.6-0.9-3.1-2-4.6-3.1c-11.3-8.1-21.9-16.9-32.4-26c-7.3-6.4-14.1-13.2-20.2-20.8
			c-2.5-3.2-5.2-6.3-7.8-9.4c-0.4-0.5-0.9-1-1.7-1.7c0.1,1.3,0.1,2,0.2,2.8c0.9,6,2.4,11.7,4.7,17.3c2.1,5.1,5.1,9.6,8.4,13.9
			c3.1,4,3.9,8.3,2.8,13.1c-0.6,2.5-1.3,4.9-2.1,7.8c0.2,0.1,0.7,0.3,1,0.6c5.6,4.9,11.6,9.1,18.5,11.9c4.9,2,9.7,4.2,13.5,7.9
			c1-0.2,1.8-0.5,2.7-0.7c2.2-0.4,4.3-0.3,6.4,0.4c0.8,0.3,1.7,0.6,1.5,2c-1.3,0-2.6,0-3.8,0c-3.9-0.2-6.8,1.3-8.7,4.8
			c-2.4,4.2-4.2,8.7-4.6,13.5c-0.3,4.2-1.3,8.2-2.9,12c-1.7,4.2-4.3,7.8-7.9,10.7c-2.1,1.7-5.8,2.3-8.1-0.1
			c-1.9-1.9-3.7-3.7-5.5-5.7c-1-1.1-1.7-2.3-2.7-3.3c-1.6-1.7-3-1.7-5.2,0.2c1,1.6,1.9,3.4,3.2,4.8c2.5,2.8,5.3,5.3,8,8
			c0.4,0.4,0.6,1,1,1.6C434.8,330.4,433.9,328.5,431.8,327.8z M347.7,661.6c-3.1,0.6-5.9,1-8.6,1.5c-4.1,0.7-8.7,4.8-9.1,8.5
			c-0.5,4.8-0.8,9.6,1.9,14c0.6,0.9,1,2,1.3,3.1c1.8,5.7,3.7,11.4,5.3,17.2c1.8,6.7,3.6,13.4,6.3,19.8c3,7,8,11.6,15.4,13.5
			c10.1,2.6,20.2,3.2,30.4,1.2c4.6-0.9,8.9-2.7,12.5-5.8c2-1.8,3.5-3.9,3.7-6.8c0.1-2.4,0-2.6-2.2-3.6c-3.3-1.5-6.6-2.9-9.9-4.4
			c-6.7-3-13.3-6.3-18.8-11.3c-0.7-0.7-1.5-0.7-2.4-0.7c-1.4,0.1-2.9,0.3-4.3,0.2c-4.9-0.5-8.4-3.2-11.2-7
			c-2.7-3.7-4.5-7.8-5.5-12.2c-1.3-6.2-2.3-12.4-3.4-18.6C348.6,667.3,348.2,664.4,347.7,661.6z M423.5,312c0.7-0.2,1-0.3,1.3-0.5
			c3.4-1.2,5.5-0.7,7.9,2.1c0.8,1,1.6,2,2.3,3c1.9,2.5,4,4.9,6.4,7c4-1.8,6.7-4.9,8.9-8.4c2-3.2,3.3-6.6,3.4-10.6
			c0.1-6.4,1.9-12.4,5.2-18c0.6-1.1,1.4-2.1,2.1-3.2c-2.8-2.6-5.9-4.5-9.4-5.8c-7.7-2.9-14.5-7.3-20.7-12.8c-0.5-0.4-1-0.8-1.6-1.3
			c-0.4,0.8-0.8,1.5-1.2,2.2c-2.1,4.1-4.5,8-8,11c-1.8,1.6-2.4,3.4-2.4,5.6c0,0.6,0,1.3,0,1.9c0.4,7.7,1.5,15.3,3.8,22.6
			C422.2,308.6,422.9,310.2,423.5,312z M280,700.7c-0.2,0-0.4-0.1-0.6-0.1c-1.5,3.3-3.1,6.6-4.5,10c-1.9,4.6-3.6,9.2-5.4,13.9
			c-0.7,1.9-1.3,3.8-1.8,5.7c-0.7,2.8,0,5.3,1.7,7.7c3.4,4.4,7.7,7.4,13,8.9c12.7,3.4,25.5,4,38.5,1.7c2.7-0.5,5.4-1.5,7.9-2.7
			c2.3-1,2.9-2.6,2.3-4.9c-0.5-1.9-1.2-3.9-2.3-5.5c-2.7-4.1-6-7.9-7.9-12.7c-0.6,0.4-1,0.6-1.4,0.9c-3.4,2.5-7.2,3.7-11.4,3.6
			c-8.7-0.1-16.2-3.1-22.6-9.1c-3.9-3.6-5.8-8.1-5.7-13.5C280,703.3,280,702,280,700.7z M246.4,165.7c-0.3-0.9-0.5-1.7-0.8-2.4
			c-1.4-3.6-2.9-7.1-4.4-10.6c-6.3-15.6-15.6-29.1-27.8-40.6c-9.2-8.7-5.5-6.6-18-9.9c-0.3-0.1-0.6-0.1-0.9-0.2
			c-0.5-0.1-1-0.1-2-0.2c12.9,18.6,20.5,38.7,23.4,60.6C226.2,163.5,236.2,164.6,246.4,165.7z M275.2,171c-1.3-5.8-3.3-10.8-6-15.5
			c-13.3-23.1-32.5-39.2-57.4-48.4c-0.3-0.1-0.7-0.1-1.5-0.2c1.5,1.4,2.7,2.5,3.8,3.6c12.5,11.9,22.4,25.6,28.7,41.7
			c1.6,4,3.1,8,4.6,12.1c0.5,1.3,1.1,1.9,2.5,2.1c5.4,0.8,10.9,1.8,16.3,2.8C269.1,169.7,271.9,170.3,275.2,171z M344.6,171.3
			c0.1,1.6,0.2,3.2,0.3,4.7c0.4,3.1,0.6,6.2-0.9,9.2c-0.2,0.5-0.2,1.3,0,1.8c0.7,1.4,1.3,2.9,2.3,4.1c2.4,2.8,5.5,4.5,8.6,6.5
			c1.8,1.1,3.2,1.1,5,0c4.1-2.4,8.6-3.3,13.4-2.5c2.3,0.4,4.7,1,7.3,1.6c2.2-2.4,4.7-4.9,6.3-8c-0.9-1.3-1.7-2.4-2.3-3.6
			c-0.6-1.3-1.1-2.7-1.5-4c-1.7-5.6-2.4-11.4-2.6-17.2c0-0.8-0.1-1.7-0.2-2.9c-1.1,1-2,1.8-2.8,2.5c-7.2,6.4-15.3,10.1-25.1,8.7
			C350,171.8,347.5,171.6,344.6,171.3z M347.2,37.4c5,0.5,11.1,0.9,17.2,1.7c4.2,0.6,8.4,1.8,12.6,2.8c1.2,0.3,2,0.2,2.7-0.8
			c0.9-1.4,2-2.7,2.9-4.1c1.9-3.2,1.8-6.4-0.4-9.4c-0.9-1.3-2-2.5-3.2-3.6c-2.6-2.3-5.6-3.6-8.9-4.4c-10.9-2.7-21.7-2.1-32.3,1.5
			c-2.1,0.7-4,1.9-5.8,3.3c-2.3,1.7-3,4.1-2.4,6.8c0.5,2.1,1.4,4.1,2.9,5.7c1,1.1,2,1.5,3.6,1.4C339.3,37.8,342.7,37.7,347.2,37.4z
			 M356.2,211.1c-5.1,4.3-9.9,8.8-13.5,14.4c-5.1,8-4.2,14.2,3.1,20.3c5.9,5,12.7,8.7,20.2,10.7c2.3,0.6,4.7,0.8,7.1,0.8
			c1.9,0,2.4-0.8,1.8-2.7c-0.6-1.7-1.3-3.3-2.1-4.8c-4.8-9.9-9.1-19.9-11.7-30.6c-0.1-0.4-0.4-0.7-0.8-1.3c-1.9,7.3,0,14.1,0.2,20.9
			c-2.1-5.3-3.2-10.9-3.1-17.1c-0.9,1.2-1.5,1.9-2,2.5c-1.8,2.1-3.6,4.3-5.5,6.3c-1.3,1.4-2.4,1.6-3.1,1c-1.2-1-0.6-2.2-0.1-3.3
			c0.7-1.5,1.3-3.1,2.3-4.5c2.3-3.3,4.8-6.6,7.2-9.9C356.5,213,357.5,212.4,356.2,211.1z M386.1,212c-0.7,1.9-0.7,3.8-0.3,5.7
			c1.9,9.7,3.8,19.4,5.7,29.2c0.1,0.3,0.3,0.5,0.7,1.2c0.6-0.9,1.1-1.5,1.6-2.1c2.5-3.1,5.1-6.1,7.5-9.3c1.6-2.2,2.9-4.6,4.2-7
			c1.9-3.8,1.7-7.6-0.4-11.2c-3.4-5.8-8.2-10-14.4-12.5c-1.4-0.6-3-0.8-4.8-1.2c0.1,1.4,0.2,2.3,0.3,3.1c6.7,2.8,10.8,5.9,12.2,9.1
			c-2.6-1.7-5-3.2-7.5-4.8c0.1,0.7,0.3,1,0.6,1.3c2.9,2.9,4.5,6.4,5.3,10.3c0.1,0.5,0.2,1.1,0.2,1.7c0,0.8-0.2,1.8-1.1,1.9
			c-0.5,0-1.3-0.5-1.7-1c-0.5-0.5-0.7-1.2-1-1.9c-1.4-3.1-2.8-6.3-4.1-9.5C388.6,213.4,387.7,212.4,386.1,212z M383.4,208.8
			C383.4,208.8,383.4,208.8,383.4,208.8c-0.1-0.8,0-1.6-0.1-2.4c-0.4-4.4-2.6-7.1-6.8-8.2c-6-1.5-11.7-1.1-16.9,2.7
			c-2,1.4-2.6,2.5-1.9,4.9c1.5,5.2,4.2,9.8,8.2,13.6c2.2,2.1,4.6,2.4,7.2,0.9c2-1.2,3.9-2.6,6-3.5c3.3-1.4,4.4-3.8,4.2-7.2
			C383.4,209.3,383.4,209,383.4,208.8z M318.3,330.7c-5.5-1.6-10.8-2.7-16.4-2.8c-6.1-0.1-11.9,1.1-17.2,4.2c-1.5,0.9-2.9,2-4.1,3.3
			c-1.5,1.6-1.4,3.2,0.3,4.6c1.4,1.1,3.1,2,4.7,2.7c2.8,1.1,5.8,1.1,8.8,1c7.3-0.4,14.1-2.7,20.7-5.7c0.5-0.2,1-0.6,1.3-1
			C317.4,335.1,318.4,333.2,318.3,330.7z M318.9,328.3c0.7-2.1,0.7-2.1-0.9-3.2c-2.8-1.9-5.9-2.9-9.2-3.2c-13-1.1-24.1,3.1-33.4,12
			c-1.3,1.2-2.3,2.7-3.1,4.2c-2.3,4.3-1,8.4,3.5,10.3c2.3,1,4.9,1.6,7.4,1.8c9.2,0.8,17.7-1.9,25.7-6.2c0.3-0.2,0.6-0.4,0.9-0.7
			c-0.2-0.1-0.3-0.2-0.4-0.1c-0.7,0.2-1.4,0.4-2.1,0.6c-4.8,1.5-9.7,2.5-14.8,2.5c-3.3,0-6.5-0.5-9.6-1.9c-1.8-0.8-3.5-1.9-4.7-3.6
			c-1.4-1.9-1.6-4-0.3-6c0.7-1.1,1.5-2.1,2.5-2.8c2.1-1.4,4.3-2.9,6.6-3.8c6.9-2.9,14.1-3.5,21.4-2.2
			C312,326.6,315.3,327.5,318.9,328.3z M355.5,200.4c-0.7-0.3-1.4-0.6-2.1-1c-3.1-1.5-6-3.4-8.4-5.8c-2.2-2.1-3.6-4.6-3.9-7.7
			c-0.2-1.8-1-3.3-2.5-4.9c-2.1,1.2-4.3,2.3-6.4,3.6c-2.3,1.4-2.7,2.7-2,5.3c1.7,6.8,5.8,11.5,12.7,13.4c2.9,0.8,5.8,1.6,8.8,2.3
			c1,0.2,2,0.2,2.7,0.3C354.7,204,355.1,202.3,355.5,200.4z M165.7,95.5c7.6,0.5,15.1,0.9,22.5,1.4c-0.3-9-9.2-14.7-17.3-11.1
			C166.9,87.7,165.1,91.2,165.7,95.5z M292.6,366.3c-14.7,6-29.7,8.5-45.7,5c0.2,1.6,0.5,2.7,0.6,3.9c0.1,2.1,1.2,3.2,3.2,3.5
			c0.9,0.1,1.7,0.3,2.6,0.4c3.5,0.3,7-0.1,10.5-0.8c9.9-2.2,19.1-6.3,27.9-11.3C292,366.8,292.3,366.5,292.6,366.3z M385.1,202.1
			c2.1-1.4,4-2.6,5.9-4c2-1.5,4-2.9,5.8-4.6c2.2-2.1,2.3-3.8,0.7-6.4c-1.8-3-4.6-4.8-7.9-5.7c-1-0.3-2-0.4-3.1,0.4
			c0.7,1.7,1.2,3.5,2.2,4.8c1.1,1.5,1.1,2.8,0.3,4.2c-1.1,1.8-2.4,3.5-3.7,5.2c-0.8,1-1.6,1.9-2.4,2.8
			C383.6,199.9,384.3,200.8,385.1,202.1z M321.5,84.3c3.3,2.3,9.5,5.3,11,5.4c-1.9-2.2-4-4.5-5.8-6.9c-1.8-2.4-3.3-5.1-5.2-8.1
			C321.5,78.2,321.5,81.2,321.5,84.3z M371.4,105.4c-0.4,4.3-1.7,6-4.7,6.3c-3.4,0.3-5.4-1.4-6.4-5.7c-1.8,1.3-2.6,3.1-3.2,5.1
			c4.9,4.1,14.5,1.7,18-4.7C373.9,106,372.7,105.7,371.4,105.4z M363.5,103.8c-1.2,1.7-1.2,3.2-0.2,4.4c0.9,1.1,2.7,1.6,4.1,1
			c1.1-0.4,1.7-1.2,1.5-2.4c-0.1-1.1-0.4-2-1.7-2.3C365.9,104.3,364.7,104,363.5,103.8z M358,214.3c-2.8,2.3-8.1,10.5-8.5,13.5
			c1.3-1.5,2.6-2.8,3.6-4.2c1.8-2.3,3.5-4.7,5.3-7.1C358.9,215.7,358.9,214.9,358,214.3z"/>
		<path class="st0" d="M323.1,434.1c0.4-3.5,0.8-6.8,1.3-10.1c1.9-11.5,5.4-22.5,9.1-33.5c2.7-8,5.4-16.1,6.7-24.5
			c0.6-3.6,0.9-7.3,1.1-11c0.1-1.6-0.5-3.3-0.6-4.9c-0.1-1.6-1.1-1.9-2.4-2.1c-3-0.3-6-0.7-9.1-1c-4.3-0.4-8.6-0.8-13.2-1.3
			c0.4-1.4,0.8-2.8,1.1-4c0.3-0.1,0.5-0.3,0.6-0.3c4.7,0.9,9.5,0.8,14.3,1c17.2,0.7,34.3,1.8,51.5,2.3c11.1,0.4,22.2,0.2,33.3,0.1
			c3.9,0,7.8-0.6,11.6-1.8c1.5-0.5,3.1-0.6,4.5-0.9c2.4,2,3.1,4.7,4,7.3c3.7,10.2,7.5,20.4,11.2,30.6c5,13.9,9.7,27.9,13,42.4
			c0.5,2.3,1,4.7,1.5,7c0.2,0.8,0.2,1.6,0.3,2.4c0.3,1.8-0.5,3-2.2,3.8c-3.1,1.5-5.9,3.5-8.2,6.1c-0.5,0.5-1.4,0.9-2.1,1
			c-2.3,0.2-4.6,0.6-6.9,0.4c-6.3-0.5-11.8,1.2-16.7,5.2c-1.8,1.5-3.9,2.5-5.9,3.6c-4.2,2.3-8.6,2.8-13.2,1.6
			c-2.4-0.6-4.8-1.3-7.1-2.2c-9.6-3.9-19.4-4.2-29.4-2.1c-3.4,0.7-6.8,1.3-10.1,1.9c-6.4,1.2-11.9-0.4-16.5-5
			c-1.6-1.6-3.2-3.1-4.9-4.6C333.8,436.3,331.2,435.1,323.1,434.1z M364.2,347.3c-0.2,0-0.4,0-0.6,0c0,0.9,0.1,1.7,0.1,2.6
			c1,14.6,2.1,29.2,3.1,43.8c0.7,11.3,1.4,22.6,3.1,33.9c0.2,1.4,0.5,2.8,0.7,4.2c0.2-5.4,0.1-10.7-0.2-16
			c-0.6-10.8-1.3-21.7-2.1-32.5c-0.7-8.9-1.6-17.8-2.6-26.7C365.4,353.4,364.7,350.4,364.2,347.3z M394.4,353.2
			c0.2,1.9,0.3,3.8,0.6,5.6c2.7,17.7,6.2,35.3,10.9,52.5c2.9,10.8,6.3,21.5,11.1,31.6c0.4,0.9,0.8,1.7,1.3,2.5
			c0.2-0.1,0.4-0.2,0.5-0.2C408,415.4,400.7,384.4,394.4,353.2z M451.3,434c0.1-0.1,0.3-0.1,0.4-0.2c-0.1-0.3-0.1-0.6-0.2-0.9
			c-4.6-17.9-10.4-35.4-17.8-52.3c-3.8-8.8-7.9-17.5-12.9-25.7c-0.8-1.3-1.7-2.4-2.5-3.7c-0.1,0.1-0.3,0.2-0.4,0.2
			c0.2,0.5,0.4,0.9,0.7,1.4c5,9,9.3,18.4,13.3,27.9c6.8,16.2,12.3,32.9,18.1,49.5C450.4,431.5,450.9,432.8,451.3,434z M360.8,370.4
			c-5.8,23.5-10.5,47.4-15.1,71.3c0.5-0.3,1-0.6,1.1-1c0.5-1.6,1-3.2,1.4-4.8C353.4,414.2,357.5,392.4,360.8,370.4z"/>
		<path class="st1" d="M432.5,338.8c-3.9,0.8-7.7,1.7-11.5,2.2c-3.6,0.5-7.2,0.5-10.8,0.6c-17,0.3-33.9-0.5-50.8-1.3
			c-10.1-0.5-20.3-0.8-30.5-1.2c-2.9-0.1-5.9-0.3-9.1-0.5c1.1-4.1,2-8,3.2-11.8c1.6-5,3.5-10,5.1-15c1.2-3.7,2.3-7.5,3.2-11.3
			c1.6-7.3,0.5-14.5-1.2-21.6c-4-17.2-10.4-33.4-18-49.2c-4.1-8.5-8.2-17-12.2-25.5c-0.3-0.6-0.6-1.3-0.9-2.2c1-0.5,1.8-1.1,2.7-1.5
			c3.5-1.3,6.9-2.4,10.4-3.7c4.9-1.8,9.8-3.6,14.6-5.4c0.2-0.1,0.4-0.1,0.8-0.2c0.3,0.8,0.7,1.6,1,2.4c2.2,6,6.5,10,12.6,12
			c4.1,1.3,8.3,2.3,12.6,3.5c-0.4,0.4-0.8,0.8-1.2,1.2c-4.1,3.4-7.9,7.2-11.1,11.6c-1.9,2.7-3.5,5.5-4.3,8.8
			c-1.1,4.5-0.5,8.7,2.3,12.5c0.7,1,1.5,2.1,2.5,2.9c7.8,7.3,16.8,12.1,27.4,14c1.9,0.3,4,0.2,5.9-0.3c2.6-0.6,3.7-2.7,3-5.3
			c-0.4-1.6-1.1-3.2-1.8-4.7c-4-8.3-8-16.6-11-25.3c-0.2-0.6-0.4-1.2-0.7-2.1c0.7,0.3,1.2,0.4,1.6,0.7c2.4,1.3,4.9,1.4,7.4,0.2
			c2.3-1.1,4.4-2.6,6.6-3.9c1-0.6,2-1.2,3.4-2.1c0.4,2.8,0.8,5.2,1.2,7.6c1.3,8,2.6,15.9,4,23.9c0.5,3.1,2.5,3.8,5,1.8
			c0.3-0.2,0.6-0.5,0.9-0.8c4.8-5.1,9.4-10.5,12.8-16.7c2-3.5,3.1-7.2,2.3-11.3c-0.6-3.1-2-5.8-3.9-8.2c-4-5-8.7-8.9-14.8-11
			c-0.2-0.1-0.4-0.2-0.9-0.5c3.9-2.7,8-4.8,10.5-8.5c3.8,1.5,7.4,2.9,11,4.4c1.1,0.4,1.6,0.9,1.6,2.2c-0.2,13.8,3.3,26.6,11.2,38
			c1,1.4,2,2.9,3.1,4.3c2.3,2.8,2.9,6.1,2.1,9.5c-2.5,11.2-7.8,20.8-17.7,27.2c-0.6,0.4-1.3,0.8-1.7,1.3c-0.4,0.4-0.7,1.4-0.5,1.6
			c0.4,0.4,1.2,0.7,1.8,0.7c0.7,0,1.3-0.5,2-0.7c0.5-0.2,1-0.5,1.7-0.8c-0.6,6.6,0.2,12.9,1.4,19.2c1.6,8.3,4.9,15.9,9,23.1
			c1.5,2.7,3.1,5.4,4.6,8.1C431.3,333.9,432.1,336.2,432.5,338.8z M329,251.8c-1.3,0.5-1.3,1.5-1.3,2.4c0.1,1.3,0.2,2.7,0.6,4
			c3.3,11.1,10.3,19,21,23.3c6.3,2.6,12.9,3.1,19.5,1.5c0.7-0.2,1.4-0.4,2-0.7c0.8-0.3,1.5-0.8,1.2-1.8c-0.2-1-1.1-1-1.9-0.9
			c-0.5,0-0.9,0.2-1.4,0.3c-1.1,0.2-2.2,0.5-3.3,0.6c-17.5,2-33.6-10.4-36.2-27.9C329.3,252.4,329.1,252.1,329,251.8z"/>
		<path class="st2" d="M328.4,496.6c19.9,5.9,40,5.8,60.4,4.4c-0.2,1.1-0.4,2-0.6,2.8c-6,22.9-14.2,44.9-23.9,66.5
			c-7.1,15.7-15.1,30.9-23.4,45.9c-7.3,13.3-13.7,27.1-19.5,41.1c-2.6,6.4-3.9,13-4.3,19.8c-0.3,5.4-0.1,10.7-0.5,16.1
			c-0.6,8.3,0.9,16.4,2.9,24.4c0.3,1.3,0,2.1-1,2.9c-3.1,2.5-6.6,3.6-10.5,3.5c-8-0.2-14.9-3.1-20.6-8.8c-2.3-2.3-3.7-5-4.1-8.2
			c-0.4-3.6-0.3-7,0.9-10.6c3-9.5,5.7-19.1,8.4-28.8c1.9-6.7,3.6-13.4,5.4-20.2c2.1-8.1,3-16.3,2.8-24.7
			c-0.2-10.3-0.5-20.6-0.5-30.9c0-5.6,0.4-11.2,0.9-16.8c0.6-6.6,3-12.7,6.4-18.4c4.3-7.1,8.5-14.3,12.6-21.5
			c3.1-5.4,5.7-11.2,6.7-17.4c0.7-4.4,0.9-8.9,1.3-13.3C328.3,501.9,328.3,499.5,328.4,496.6z"/>
		<path d="M318.4,348.9c6.9,0.7,13.6,1.5,20.6,2.2c-0.4,3.7-0.7,7.1-1.2,10.6c-1.2,8.7-3.9,17-6.7,25.2c-3.5,10.4-7,20.8-9.1,31.5
			c-0.9,4.5-1.4,9-2.1,13.5c-0.1,0.9-0.1,1.9-0.1,2.9c0.1,2.1,0.8,2.8,3,2.9c0.2,0,0.5,0,0.7,0c3.7-0.2,6.9,1,9.9,3.1
			c1.7,1.2,3.2,2.6,4.8,4c1.6,1.4,3.2,2.9,4.7,4.4c5.2,4.8,11.2,6.6,18.1,5.3c5.3-0.9,10.5-2,15.8-2.8c6.5-1,12.9-0.6,19.2,1.6
			c3,1,6.1,2.1,9.1,3c7.1,2.3,13.7,1.1,20-2.8c2.2-1.4,4.4-2.9,6.5-4.5c2.3-1.7,4.9-2.6,7.8-2.6c3.1,0,6.2,0,9.5,0
			c-0.6,2.8-1.2,5.3-1.7,7.9c-0.6,3.1-1.3,6.3-1.6,9.5c-0.5,4.3,0,8.5,2.5,12.4c-1,0.8-1.9,1.7-2.9,2.5c-12.7,9.6-27,15.3-42.8,17.4
			c-14.9,1.9-29.8,2.6-44.8,2c-10.3-0.4-20.3-2.5-30.2-5.1c-3.3-0.9-6.6-1.9-10.1-2.9c0.3-0.6,0.4-1,0.6-1.3
			c3.8-5.7,4.6-11.9,3-18.4c-1.6-6.5-3.4-13-5.2-19.4c-2.7-9.8-5.3-19.6-8-29.4c-2.8-9.9-3.2-19.8-1.7-29.9
			c2-13.7,5.6-26.9,10.9-39.7C317.4,350.9,317.9,350,318.4,348.9z"/>
		<path class="st2" d="M372.7,705.3c-3.2,0.5-5.7-0.5-8.1-2c-2.1-1.4-3.7-3.3-5-5.4c-2.7-4.4-4.2-9.3-5.1-14.4
			c-1.4-7.5-2.5-15.1-3.8-22.7c-0.2-0.9,0.1-1.5,0.8-2.1c3.2-2.7,5.2-6.2,6.8-10c3.5-8.6,5.1-17.7,5.2-26.9c0.1-13.1,0-26.2,0-39.3
			c0-1.8,0.4-3.4,1.1-5.1c9.8-20.9,18-42.4,24.1-64.6c1.1-3.8,1.9-7.7,3-11.9c15.2-1.5,30.2-3.9,43.9-11.9c0,0.9,0.1,1.4,0,1.9
			c-3.2,22.4-7.2,44.7-13.4,66.5c-5.2,18.2-12.8,35.5-21.8,52.1c-7.4,13.7-14.8,27.3-22.2,40.9c-3.4,6.3-6.2,12.8-8,19.7
			c-2.2,8.1-2.4,16.4-1.7,24.8c0.3,3.1,1.4,6.1,3.2,8.7C372,704.1,372.3,704.6,372.7,705.3z"/>
		<path class="st3" d="M395.4,125.9c0.3-2,0.4-4.1,0.9-6c0.4-1.4,0.4-2.6-0.2-3.9c-1.2-2.7-3.3-4.7-5.7-6.3
			c-3.9-2.6-8.1-4.5-12.6-5.6c-5.4-1.4-10.9-2.5-16.3-3.8c-6.1-1.4-12.1-3.2-17.6-6.2c-9.1-4.9-15.7-12.3-20.4-21.4
			c-0.7-1.4-1.4-2.9-2.1-4.3c-0.3-0.6-0.7-1.2-1.2-2c-0.9,1.5-1,2.8-1,4.1c0,3.1,0.1,6.2,0,9.4c-0.3,8.5-3.3,15.9-8.9,22.2
			c-2.2,2.5-4.4,4.9-6.5,7.4c-1.7,2-3.1,4.1-4,7.1c2.5-1.3,4-3.1,5.8-4.8c2,8.5,4,16.8,6,25.5c-4.5-4.3-8.9-8.3-13.1-12.4
			c-3.6-3.5-6.8-7.4-9.3-11.8c-1.2-2.1-2.3-4.4-3.2-6.7c-2-5.2-1.4-10.2,1.6-14.9c1.5-2.4,3.1-4.6,4.8-6.9c3-3.9,5.7-7.9,7.7-12.4
			c0.2-0.3,0.4-0.7,0.6-1.1c0.7,1.2,1.3,2.3,1.9,3.4c0.2-0.1,0.4-0.1,0.6-0.2c0-1.1,0-2.3,0-3.4c0-2.9-0.2-5.8,0.2-8.6
			c1.1-7.3,5.5-12.2,11.6-15.9c4.4-2.6,9.3-3.8,14.3-4.6c15.8-2.5,31.4-1.5,46.8,2.8c6,1.7,11.8,4.2,16.9,7.8
			c7.8,5.6,12.7,13.3,15.5,22.2c2.9,9,3.3,18.2,1.9,27.5c-0.9,6-3.4,11.3-7.1,16.1c-1.8,2.3-3.8,4.5-5.8,6.7
			c-0.4,0.5-1.1,0.8-1.6,1.2C395.7,126,395.5,126,395.4,125.9z"/>
		<path class="st4" d="M85.8,165.3c0.4-1.5,0.6-2.7,1-3.8c3.3-10.7,8.8-20.2,15.7-28.9c7.8-9.8,17-18,28.1-23.9
			c9.6-5.1,19.9-7.9,30.6-9c9-0.9,17.9-0.3,26.8,1c2.2,0.3,3.7,1.3,4.9,3.2c8,13,14.6,26.6,18.2,41.6c1.2,5,2.3,10.1,3.4,15.2
			c0.1,0.5,0.1,0.9,0.2,1.6c-0.6,0-1.1,0.1-1.7,0.1c-25.2-1.8-50.5-2.8-75.7-1.7c-10.9,0.4-21.7,1.2-32.5,2.1
			c-5.2,0.4-10.3,1.4-15.4,2.1C88.3,164.9,87.3,165.1,85.8,165.3z"/>
		<path class="st5" d="M238.7,197.9c-0.5-1.3-0.9-2.6-1.4-3.9c-1.8-5.1-5.5-8-10.9-9c-2.3-0.4-4.7-1.1-6.9-2
			c-4.8-2-9.5-4.3-14.2-6.5c-0.1,0-0.1-0.1-0.2-0.1c-4.4-2.3-7.2-0.7-7.8,4.2c-0.1,0.5-0.1,0.9-0.2,1.7c-1.2-0.3-2.3-0.6-3.3-0.9
			c-3.3-1.1-6.7-2.3-10-3.2c-2.4-0.7-5-1-7.5-1.3c-2.1-0.2-4.2,0.2-5.4,1.9c-2.2-0.4-4.3-0.9-6.3-1.1c-4.5-0.4-6.1,3.6-4.5,6.9
			c1,2,2.6,3.4,4.4,4.6c5.5,3.5,11.3,6.4,17.3,8.7c4.1,1.6,8.3,2.8,12.6,4.2c-0.6,0.1-1.3,0.2-1.9,0.2c-20.6,0.4-41.3,0.7-61.9-0.6
			c-14.5-0.9-29-2.4-43.1-6.2c-6.4-1.7-12.7-3.9-18.4-7.3c-1.9-1.1-3.7-2.5-5.3-4.1c-2.5-2.6-2.4-5.1,0.3-7.4
			c1.6-1.3,3.4-2.4,5.2-3.3c5.7-2.7,11.8-4,17.9-5.2c11-2.1,22.1-3.2,33.3-3.9c18.9-1.3,37.9-1.3,56.8-0.8c20,0.5,39.9,1.8,59.8,4.3
			c14.8,1.8,29.6,4,44.1,8.1c4,1.1,7.9,2.5,11.8,4c3.7,1.5,3.9,3.3,0.6,5.8c-1.5,1.1-3.3,2-5,2.7c-5.3,2.2-11,3.6-16.6,4.5
			c-10.9,1.8-21.8,3.3-32.7,5C239.3,198,239.2,198,238.7,197.9z"/>
		<path class="st2" d="M276.8,265.9c1.7-1.2,2.4-2.5,2.3-4c-0.2-1.9-0.4-3.8-1.1-5.6c-0.9-2.5-2.2-4.8-3.5-7.5
			c0.9-1.5,1.8-3.4,2.9-5.1c5.9-8.9,11.8-17.7,17.7-26.6c1.4-2.1,2.8-4.2,4.3-6.4c1.5,1.7,12.5,25.1,15.1,32.1
			c-0.1,0.2-0.1,0.4-0.3,0.6c-7,9.2-13.9,18.4-21,27.4c-5.4,6.8-11.3,13-18.4,18.1c-4.2,3-8.7,5.4-13.4,7.4
			c-1.6,0.7-2.8,0.4-4.1-0.6c-3.4-2.8-5.9-6.1-7.3-10.2c-1.4-4.1-2.8-8.3-3.9-12.6c-3.5-13.3-7.1-26.6-12-39.4
			c-2.5-6.7-5.5-13.1-9.4-19.1c-4.7-7.1-11.1-11.6-19.2-13.7c-2.5-0.7-5-0.9-7.5-1.3c-11.1-1.9-21.2-6.6-30.9-12.1
			c-1-0.5-1.9-1.3-2.7-2c-0.6-0.5-1.1-1.2-1.4-1.9c-0.9-1.8-0.1-3.1,1.8-3.1c1.9,0,3.8,0.3,5.9,0.5c0.8,3,3.1,4.3,5.7,5.2
			c3.6,1.2,7.2,2.2,10.8,3.2c3.9,1,7.8,1.9,11.7,2.8c0.8,0.2,1.6,0.3,2.4,0.3c0.4,0,0.9-0.4,1-0.8c0.1-0.4-0.1-1-0.5-1.2
			c-0.7-0.4-1.4-0.7-2.2-0.9c-5.2-1.3-10.4-2.5-15.6-3.9c-2.7-0.7-5.3-1.7-8-2.6c-1.1-0.4-2.3-0.9-2.4-2.7c0.8-0.2,1.6-0.6,2.4-0.6
			c2.2,0.2,4.5,0.4,6.6,0.9c3.1,0.8,6.1,2,9.2,2.8c2.1,0.5,4.2,0.7,6.3,1.1c0.4,0.1,0.8,0.1,1.1,0.3c4.1,1.9,8.3,3.7,12.4,5.6
			c0.9,0.4,1.8,1,2.7,1.5c0.5,0.3,1,0.7,1.6,1c0.8-1.6,0.7-2.6-0.7-3.6c-0.8-0.6-1.8-1-2.8-1.4c-2.8-1.2-5.6-2.3-8.4-3.5
			c-0.8-0.3-1.6-0.7-2.4-1.2c-1.9-1.2-2.2-3.2-0.6-4.8c0.3-0.3,1-0.5,1.5-0.4c0.8,0.2,1.4,0.7,2.2,1c5.4,2.4,10.8,4.8,16.2,7.1
			c1.7,0.7,3.5,1.2,5.3,1.4c1.6,0.2,2.8,0.8,3.6,2.1c1.5,2.2,3.2,4.4,4.5,6.8c1.9,3.5,3.5,7.2,5.2,10.8c4.2,9.1,9.9,17.4,16.4,25
			c4,4.6,8,9.1,11.9,13.8c1.7,1.9,3.2,4,4.6,6.1c2.2,3.2,3.5,6.8,3.8,10.7C276.3,263.8,276.5,264.7,276.8,265.9z"/>
		<path class="st2" d="M321,86.8c1.5,0.8,2.9,1.6,4.2,2.4c5.6,3.2,11.3,6,17.4,7.9c4.3,1.3,8.3,3.2,12.5,4.8
			c0.2,0.7-0.9,1.6,0.1,2.4c1.5,0.1,2-3,4.1-1.3c-0.5,0.6-1,1.1-1.5,1.7c-1.4,1.6-2.3,3.4-2.6,5.6c-0.2,1.7,0.3,2.9,1.9,3.7
			c2.9,1.6,5.9,2,9,1.1c4.7-1.3,8.5-3.9,11.5-8c0.6,0.1,1.2,0.3,1.8,0.5c3.5,1.2,6.8,2.7,9.8,4.9c1.1,0.8,2.1,1.8,2.9,2.8
			c0.5,0.6,0.8,1.5,0.7,2.2c-0.6,8.8-1.5,17.5-4.6,25.9c-1.7,4.6-4.1,8.9-7.5,12.4c-1.7,1.8-3.4,3.6-5.2,5.3c-6.8,6.5-14.9,9-24.4,8
			c-8.9-0.9-15.9-5-22-11c-8.2-7.9-13.9-17.3-16.7-28.3c-1.6-6.4-3-12.9-4.5-19.4c-0.3-1.2,0-2,0.8-2.8c1.5-1.6,2.9-3.2,4.2-4.9
			c3.5-4.3,6.1-9,7.4-14.4C320.6,87.9,320.8,87.4,321,86.8z M355.6,157.6c3.9-0.1,7.4-1.2,10.4-3.5c3.9-3,6.4-6.9,8.2-11.3
			c0.2-0.6,0.2-1.6-0.1-1.9c-0.4-0.3-1.3-0.3-1.9-0.1c-1.9,0.5-3.8,1.2-5.8,1.7c-8,2-16,4-24.2,4.9c-1,0.1-2.1,0.3-3,0.7
			c-0.5,0.2-1,0.8-1.1,1.4c-0.1,0.3,0.5,0.8,0.9,1.1c0.2,0.2,0.7,0.2,0.8,0.4c1.5,2.4,4.1,3.2,6.4,4.4
			C349.2,156.8,352.4,157.5,355.6,157.6z M326.7,124.1c3.8,0.1,7.5-1.2,10-3c3.3-2.3,2.4-6,0.2-7.6c-2.1-1.5-4.4-3-6.8-3.9
			c-1.9-0.7-4.1-0.9-6.1-0.7c-3.6,0.4-6.1,2.5-7.3,6c-0.5,1.5-0.6,3,0.5,4.3C319.7,122.4,323,124,326.7,124.1z M316,109.7
			c1.4-0.7,2.5-1.4,3.8-1.8c5-1.5,10-1.5,14.9,0.9c0.7,0.3,1.4,0.5,2.1,0.8c0.1-0.1,0.2-0.3,0.4-0.4c-0.2-0.4-0.3-1.1-0.6-1.3
			c-1-0.7-2.1-1.5-3.2-2c-4.3-1.7-8.7-1.8-13.1-0.6c-1.4,0.4-2.9,1-4.2,1.7C314.6,107.7,314.6,108.4,316,109.7z M349.3,126
			c-0.2-0.1-0.5-0.1-0.7-0.2c-0.3,0.4-0.7,0.8-0.8,1.3c-0.4,1.2-0.8,2.4-1.1,3.6c-0.8,2.9,1.4,6,4.5,6.3c0.3,0,0.5-0.2,1.1-0.4
			c-0.7-0.8-1.1-1.5-1.7-1.9c-1.9-1.3-2.2-2.9-1.6-5C349.2,128.5,349.2,127.2,349.3,126z"/>
		<path class="st2" d="M431.8,327.8c2.1,0.7,3,2.6,5.3,2.1c-0.4-0.7-0.6-1.2-1-1.6c-2.6-2.7-5.4-5.2-8-8c-1.3-1.4-2.2-3.3-3.2-4.8
			c2.2-1.9,3.5-1.9,5.2-0.2c1,1,1.8,2.3,2.7,3.3c1.8,1.9,3.6,3.8,5.5,5.7c2.3,2.3,6,1.8,8.1,0.1c3.5-2.9,6.1-6.5,7.9-10.7
			c1.6-3.9,2.6-7.8,2.9-12c0.3-4.9,2.2-9.3,4.6-13.5c1.9-3.5,4.8-4.9,8.7-4.8c1.2,0.1,2.5,0,3.8,0c0.2-1.4-0.7-1.7-1.5-2
			c-2.1-0.8-4.2-0.9-6.4-0.4c-0.9,0.2-1.7,0.4-2.7,0.7c-3.9-3.7-8.6-5.9-13.5-7.9c-6.9-2.8-12.9-7.1-18.5-11.9
			c-0.4-0.3-0.8-0.5-1-0.6c0.8-2.9,1.5-5.4,2.1-7.8c1.1-4.8,0.3-9.2-2.8-13.1c-3.3-4.3-6.3-8.8-8.4-13.9c-2.3-5.6-3.8-11.4-4.7-17.3
			c-0.1-0.8-0.1-1.6-0.2-2.8c0.8,0.8,1.3,1.2,1.7,1.7c2.6,3.1,5.3,6.2,7.8,9.4c6.1,7.6,12.9,14.4,20.2,20.8
			c10.4,9.1,21.1,17.9,32.4,26c1.5,1.1,3,2.1,4.6,3.1c3.5,2,5.8,5,7,8.8c0.2,0.5,0.2,1.1,0,1.6c-5.3,12.1-10.1,24.4-17.1,35.7
			c-5.2,8.3-11,16.1-18.2,22.8c-2.2,2-4.7,3.8-7.2,5.6c-2.7,2-5.9,1.8-9,1.4c-0.8-0.1-1.5-1.3-2.1-2c-0.2-0.3-0.2-0.7-0.3-1.1
			C435.4,335.7,434.4,331.8,431.8,327.8z"/>
		<path class="st1" d="M347.7,661.6c0.5,2.8,0.9,5.7,1.4,8.6c1.1,6.2,2.1,12.4,3.4,18.6c1,4.4,2.8,8.5,5.5,12.2
			c2.8,3.8,6.4,6.5,11.2,7c1.4,0.1,2.9,0,4.3-0.2c0.9-0.1,1.7,0,2.4,0.7c5.5,5,12.1,8.3,18.8,11.3c3.3,1.5,6.6,2.9,9.9,4.4
			c2.2,1,2.3,1.2,2.2,3.6c-0.2,2.8-1.6,5-3.7,6.8c-3.6,3.1-7.8,4.9-12.5,5.8c-10.2,2-20.3,1.4-30.4-1.2c-7.5-1.9-12.5-6.5-15.4-13.5
			c-2.7-6.4-4.5-13.1-6.3-19.8c-1.6-5.8-3.5-11.5-5.3-17.2c-0.3-1.1-0.8-2.1-1.3-3.1c-2.7-4.4-2.5-9.2-1.9-14c0.4-3.7,5-7.8,9.1-8.5
			C341.8,662.7,344.6,662.2,347.7,661.6z"/>
		<path class="st1" d="M280,700.7c0,1.3,0,2.7,0,4c-0.1,5.4,1.8,9.8,5.7,13.5c6.4,5.9,13.8,9,22.6,9.1c4.2,0,8-1.2,11.4-3.6
			c0.4-0.3,0.8-0.5,1.4-0.9c1.9,4.8,5.1,8.6,7.9,12.7c1.1,1.6,1.7,3.6,2.3,5.5c0.7,2.3,0,3.9-2.3,4.9c-2.5,1.1-5.2,2.2-7.9,2.7
			c-12.9,2.2-25.8,1.7-38.5-1.7c-5.3-1.5-9.7-4.4-13-8.9c-1.8-2.3-2.4-4.8-1.7-7.7c0.5-1.9,1.1-3.8,1.8-5.7
			c1.7-4.6,3.5-9.3,5.4-13.9c1.4-3.4,3-6.7,4.5-10C279.6,700.6,279.8,700.6,280,700.7z"/>
		<path class="st6" d="M246.4,165.7c-10.2-1.1-20.2-2.2-30.5-3.4c-2.8-21.9-10.5-42-23.4-60.6c1,0.1,1.5,0.1,2,0.2
			c0.3,0,0.6,0.1,0.9,0.2c12.5,3.3,8.8,1.2,18,9.9c12.2,11.5,21.5,25.1,27.8,40.6c1.4,3.6,2.9,7.1,4.4,10.6
			C245.9,164.1,246.1,164.8,246.4,165.7z"/>
		<path class="st4" d="M275.2,171c-3.3-0.7-6.2-1.3-9-1.8c-5.4-1-10.9-1.9-16.3-2.8c-1.4-0.2-2-0.8-2.5-2.1c-1.5-4.1-3-8.1-4.6-12.1
			c-6.3-16.1-16.2-29.9-28.7-41.7c-1.2-1.1-2.3-2.2-3.8-3.6c0.8,0.1,1.2,0.1,1.5,0.2c25,9.2,44.2,25.3,57.4,48.4
			C272,160.2,274,165.2,275.2,171z"/>
		<path class="st2" d="M344.6,171.3c2.8,0.3,5.4,0.5,7.9,0.9c9.9,1.4,18-2.2,25.1-8.7c0.8-0.7,1.6-1.5,2.8-2.5
			c0.1,1.2,0.2,2.1,0.2,2.9c0.2,5.8,0.9,11.6,2.6,17.2c0.4,1.4,0.9,2.8,1.5,4c0.6,1.2,1.4,2.2,2.3,3.6c-1.6,3-4.2,5.5-6.3,8
			c-2.7-0.6-5-1.2-7.3-1.6c-4.7-0.8-9.3,0-13.4,2.5c-1.8,1.1-3.2,1.1-5,0c-3-1.9-6.2-3.7-8.6-6.5c-1-1.2-1.7-2.7-2.3-4.1
			c-0.2-0.5-0.2-1.3,0-1.8c1.4-3,1.2-6,0.9-9.2C344.8,174.4,344.7,172.9,344.6,171.3z"/>
		<path class="st3" d="M347.2,37.4c-4.5,0.3-7.8,0.4-11.2,0.8c-1.5,0.2-2.6-0.3-3.6-1.4c-1.5-1.6-2.4-3.6-2.9-5.7
			c-0.6-2.7,0.1-5.2,2.4-6.8c1.8-1.3,3.7-2.5,5.8-3.3c10.6-3.6,21.4-4.2,32.3-1.5c3.3,0.8,6.4,2.2,8.9,4.4c1.2,1.1,2.3,2.3,3.2,3.6
			c2.1,3,2.3,6.2,0.4,9.4c-0.9,1.4-1.9,2.7-2.9,4.1c-0.7,1-1.5,1.1-2.7,0.8c-4.2-1-8.4-2.2-12.6-2.8
			C358.3,38.2,352.2,37.9,347.2,37.4z"/>
		<path class="st7" d="M356.2,211.1c1.3,1.3,0.3,1.9-0.3,2.6c-2.4,3.3-4.9,6.5-7.2,9.9c-0.9,1.4-1.6,2.9-2.3,4.5
			c-0.5,1.1-1.1,2.3,0.1,3.3c0.7,0.6,1.8,0.4,3.1-1c1.9-2,3.7-4.2,5.5-6.3c0.6-0.7,1.1-1.4,2-2.5c-0.1,6.3,1,11.8,3.1,17.1
			c-0.2-6.9-2.1-13.7-0.2-20.9c0.4,0.6,0.8,1,0.8,1.3c2.6,10.7,7,20.7,11.7,30.6c0.8,1.6,1.5,3.2,2.1,4.8c0.7,1.8,0.2,2.7-1.8,2.7
			c-2.4,0-4.8-0.2-7.1-0.8c-7.5-2-14.3-5.6-20.2-10.7c-7.3-6.1-8.2-12.3-3.1-20.3C346.3,219.8,351.1,215.4,356.2,211.1z"/>
		<path class="st7" d="M386.1,212c1.6,0.4,2.5,1.5,3.1,2.9c1.3,3.2,2.7,6.3,4.1,9.5c0.3,0.7,0.5,1.4,1,1.9c0.4,0.5,1.1,1,1.7,1
			c0.9-0.1,1.1-1,1.1-1.9c0-0.6-0.1-1.1-0.2-1.7c-0.8-3.9-2.5-7.4-5.3-10.3c-0.3-0.3-0.6-0.7-0.6-1.3c2.4,1.6,4.9,3.1,7.5,4.8
			c-1.4-3.3-5.4-6.3-12.2-9.1c-0.1-0.8-0.2-1.7-0.3-3.1c1.8,0.4,3.4,0.6,4.8,1.2c6.2,2.5,11,6.8,14.4,12.5c2.1,3.6,2.4,7.5,0.4,11.2
			c-1.2,2.4-2.6,4.8-4.2,7c-2.4,3.2-5,6.2-7.5,9.3c-0.5,0.6-0.9,1.3-1.6,2.1c-0.5-0.7-0.7-1-0.7-1.2c-1.9-9.7-3.8-19.4-5.7-29.2
			C385.4,215.7,385.3,213.9,386.1,212z"/>
		<path class="st7" d="M383.4,208.8c0,0.2,0,0.5,0,0.7c0.2,3.3-0.9,5.8-4.2,7.2c-2.1,0.9-4,2.3-6,3.5c-2.6,1.5-5.1,1.1-7.2-0.9
			c-4-3.8-6.7-8.3-8.2-13.6c-0.7-2.4-0.1-3.4,1.9-4.9c5.2-3.8,10.9-4.2,16.9-2.7c4.2,1.1,6.4,3.8,6.8,8.2
			C383.4,207.2,383.3,208,383.4,208.8C383.4,208.8,383.4,208.8,383.4,208.8z"/>
		<path class="st0" d="M318.9,328.3c-3.6-0.8-7-1.7-10.4-2.3c-7.3-1.4-14.5-0.7-21.4,2.2c-2.3,1-4.5,2.4-6.6,3.8
			c-1,0.7-1.9,1.8-2.5,2.8c-1.3,2-1.1,4.1,0.3,6c1.2,1.7,2.9,2.7,4.7,3.6c3,1.4,6.3,1.9,9.6,1.9c5.1,0,10-1,14.8-2.5
			c0.7-0.2,1.4-0.4,2.1-0.6c0.1,0,0.1,0.1,0.4,0.1c-0.3,0.3-0.6,0.5-0.9,0.7c-8,4.4-16.5,7.1-25.7,6.2c-2.5-0.2-5.1-0.8-7.4-1.8
			c-4.5-1.9-5.8-6-3.5-10.3c0.8-1.5,1.9-3,3.1-4.2c9.4-8.8,20.5-13.1,33.4-12c3.3,0.3,6.4,1.4,9.2,3.2
			C319.6,326.2,319.6,326.2,318.9,328.3z"/>
		<path class="st7" d="M355.5,200.4c-0.4,1.9-0.8,3.6-1.2,5.6c-0.8-0.1-1.8-0.1-2.7-0.3c-2.9-0.7-5.9-1.5-8.8-2.3
			c-6.9-1.9-10.9-6.6-12.7-13.4c-0.7-2.6-0.3-3.8,2-5.3c2.1-1.3,4.2-2.4,6.4-3.6c1.5,1.5,2.3,3,2.5,4.9c0.3,3.1,1.7,5.6,3.9,7.7
			c2.5,2.4,5.4,4.3,8.4,5.8C354.1,199.8,354.8,200.1,355.5,200.4z"/>
		<path class="st4" d="M165.7,95.5c-0.6-4.3,1.2-7.9,5.2-9.7c8.1-3.7,17,2.1,17.3,11.1C180.7,96.5,173.3,96,165.7,95.5z"/>
		<path class="st0" d="M292.6,366.3c-0.3,0.2-0.6,0.5-0.9,0.7c-8.8,5-18,9-27.9,11.3c-3.5,0.8-6.9,1.1-10.5,0.8
			c-0.9-0.1-1.7-0.3-2.6-0.4c-2-0.3-3.1-1.4-3.2-3.5c-0.1-1.2-0.3-2.3-0.6-3.9C262.9,374.8,278,372.4,292.6,366.3z"/>
		<path class="st7" d="M385.1,202.1c-0.8-1.2-1.5-2.2-2.4-3.4c0.8-0.9,1.6-1.8,2.4-2.8c1.3-1.7,2.6-3.4,3.7-5.2
			c0.8-1.4,0.8-2.7-0.3-4.2c-1-1.4-1.4-3.1-2.2-4.8c1.1-0.8,2.2-0.7,3.1-0.4c3.3,0.9,6.1,2.7,7.9,5.7c1.6,2.6,1.5,4.3-0.7,6.4
			c-1.8,1.7-3.8,3.2-5.8,4.6C389.2,199.4,387.2,200.7,385.1,202.1z"/>
		<path class="st3" d="M321.5,84.3c0-3.1,0-6.1,0-9.6c1.9,3,3.4,5.7,5.2,8.1c1.8,2.4,3.9,4.7,5.8,6.9
			C331,89.6,324.8,86.6,321.5,84.3z"/>
		<path class="st8" d="M371.4,105.4c1.3,0.3,2.4,0.6,3.6,0.9c-3.5,6.4-13.1,8.8-18,4.7c0.6-1.9,1.4-3.7,3.2-5.1c1,4.3,3,6,6.4,5.7
			C369.7,111.4,371.1,109.7,371.4,105.4z"/>
		<path class="st9" d="M363.5,103.8c1.2,0.2,2.4,0.5,3.7,0.7c1.3,0.2,1.6,1.2,1.7,2.3c0.1,1.2-0.4,2-1.5,2.4c-1.4,0.6-3.2,0.1-4.1-1
			C362.3,106.9,362.3,105.5,363.5,103.8z"/>
		<path class="st7" d="M358,214.3c1,0.6,1,1.3,0.3,2.2c-1.8,2.4-3.5,4.8-5.3,7.1c-1.1,1.4-2.3,2.6-3.6,4.2
			C349.9,224.9,355.2,216.6,358,214.3z"/>
		<path d="M364.2,347.3c0.5,3.1,1.2,6.1,1.6,9.2c0.9,8.9,1.9,17.8,2.6,26.7c0.8,10.8,1.5,21.7,2.1,32.5c0.3,5.3,0.4,10.6,0.2,16
			c-0.3-1.4-0.5-2.8-0.7-4.2c-1.7-11.2-2.4-22.6-3.1-33.9c-0.9-14.6-2-29.2-3.1-43.8c-0.1-0.9-0.1-1.7-0.1-2.6
			C363.8,347.3,364,347.3,364.2,347.3z"/>
		<path d="M394.4,353.2c6.3,31.2,13.5,62.1,24.4,92.1c-0.2,0.1-0.4,0.2-0.5,0.2c-0.4-0.8-0.9-1.7-1.3-2.5
			c-4.8-10.2-8.2-20.8-11.1-31.6c-4.7-17.3-8.3-34.8-10.9-52.5C394.7,357,394.6,355.1,394.4,353.2z"/>
		<path d="M451.3,434c-0.4-1.3-0.9-2.5-1.3-3.8c-5.8-16.6-11.3-33.3-18.1-49.5c-4-9.5-8.3-18.9-13.3-27.9c-0.2-0.4-0.5-0.9-0.7-1.4
			c0.1-0.1,0.3-0.2,0.4-0.2c0.9,1.2,1.8,2.4,2.5,3.7c5,8.2,9,16.9,12.9,25.7c7.4,16.9,13.2,34.4,17.8,52.3c0.1,0.3,0.1,0.6,0.2,0.9
			C451.6,433.9,451.5,434,451.3,434z"/>
		<path d="M360.8,370.4c-3.3,22-7.4,43.8-12.6,65.4c-0.4,1.6-0.9,3.2-1.4,4.8c-0.1,0.4-0.6,0.8-1.1,1
			C350.2,417.8,355,394,360.8,370.4z"/>
		<path d="M329,251.8c0.1,0.3,0.3,0.6,0.3,0.9c2.6,17.5,18.8,29.9,36.2,27.9c1.1-0.1,2.2-0.4,3.3-0.6c0.5-0.1,0.9-0.3,1.4-0.3
			c0.8-0.1,1.7-0.1,1.9,0.9c0.2,1-0.5,1.5-1.2,1.8c-0.7,0.3-1.4,0.5-2,0.7c-6.7,1.6-13.2,1.1-19.5-1.5c-10.7-4.4-17.8-12.2-21-23.3
			c-0.4-1.3-0.5-2.7-0.6-4C327.7,253.3,327.7,252.2,329,251.8z"/>
		<path d="M355.6,157.6c-3.2,0-6.4-0.7-9.4-2.3c-2.3-1.2-4.9-2-6.4-4.4c-0.1-0.2-0.6-0.2-0.8-0.4c-0.4-0.3-1-0.8-0.9-1.1
			c0.1-0.5,0.6-1.2,1.1-1.4c1-0.4,2-0.5,3-0.7c8.2-0.9,16.2-2.9,24.2-4.9c1.9-0.5,3.8-1.2,5.8-1.7c0.6-0.2,1.6-0.2,1.9,0.1
			c0.3,0.3,0.3,1.4,0.1,1.9c-1.8,4.4-4.4,8.4-8.2,11.3C363,156.4,359.6,157.5,355.6,157.6z M345.3,149.3c0.6,2,0.6,2.1,2.2,2.3
			c1,0.1,2.1,0.2,3.1,0.1c6.1-0.5,11.6-2.7,17.1-5.3c1.2-0.6,1.2-1.3,0.5-2.3C360.5,145.8,352.9,147.6,345.3,149.3z M368.6,148.2
			c-6.6,2.8-13.3,5.4-21.1,5.2C354.6,157.1,363.7,155.9,368.6,148.2z"/>
		<path d="M326.7,124.1c-3.7,0-7-1.7-9.5-4.9c-1-1.3-1-2.9-0.5-4.3c1.2-3.5,3.7-5.6,7.3-6c2-0.2,4.2,0,6.1,0.7
			c2.4,0.9,4.7,2.4,6.8,3.9c2.3,1.7,3.2,5.3-0.2,7.6C334.2,122.8,330.5,124.1,326.7,124.1z M334.6,114.7c-0.3,4.2-2.4,5.9-5.9,5.1
			c-3.4-0.8-5.6-4-5.1-7.5c0-0.3,0-0.6,0-1c-0.6,0.2-1.1,0.3-1.5,0.5c-1.9,1.1-3.8,2.7-3.6,5c0.2,2.1,2.1,3.3,4.1,4
			c4.6,1.7,9,0.9,12.9-2c0.8-0.6,1.3-1.5,2.1-2.4C336.4,115.8,335.6,115.3,334.6,114.7z M325.4,113.2c0,2.4,2.6,4.7,5,4.4
			c1.9-0.2,2.8-1.9,2-3.7c-0.9-1.9-2.7-2.3-4.5-2.7C326.1,110.9,325.4,111.5,325.4,113.2z"/>
		<path d="M316,109.7c-1.4-1.3-1.4-2-0.1-2.7c1.3-0.7,2.7-1.3,4.2-1.7c4.4-1.2,8.8-1.2,13.1,0.6c1.2,0.5,2.2,1.2,3.2,2
			c0.3,0.2,0.4,0.9,0.6,1.3c-0.1,0.1-0.2,0.3-0.4,0.4c-0.7-0.3-1.4-0.5-2.1-0.8c-4.8-2.4-9.8-2.4-14.9-0.9
			C318.5,108.3,317.4,109,316,109.7z"/>
		<path d="M349.3,126c-0.1,1.2,0,2.5-0.4,3.7c-0.6,2.1-0.3,3.7,1.6,5c0.6,0.4,1,1.1,1.7,1.9c-0.6,0.2-0.8,0.4-1.1,0.4
			c-3-0.3-5.3-3.4-4.5-6.3c0.3-1.2,0.7-2.5,1.1-3.6c0.2-0.5,0.6-0.8,0.8-1.3C348.8,125.9,349,125.9,349.3,126z"/>
		<path class="st8" d="M345.3,149.3c7.6-1.7,15.2-3.5,22.9-5.2c0.7,0.9,0.6,1.7-0.5,2.3c-5.4,2.6-11,4.8-17.1,5.3
			c-1,0.1-2.1,0-3.1-0.1C345.9,151.4,345.9,151.3,345.3,149.3z"/>
		<path class="st10" d="M368.6,148.2c-4.9,7.7-13.9,8.8-21.1,5.2C355.3,153.6,361.9,151,368.6,148.2z"/>
		<path class="st8" d="M334.6,114.7c1.1,0.6,1.9,1.1,3,1.7c-0.8,0.9-1.3,1.8-2.1,2.4c-3.9,2.8-8.3,3.7-12.9,2
			c-1.9-0.7-3.9-1.9-4.1-4c-0.2-2.3,1.6-3.8,3.6-5c0.4-0.2,0.9-0.3,1.5-0.5c0,0.4,0,0.7,0,1c-0.5,3.5,1.7,6.7,5.1,7.5
			C332.2,120.6,334.3,118.9,334.6,114.7z"/>
		<path class="st9" d="M325.4,113.2c0-1.7,0.7-2.3,2.4-1.9c1.8,0.4,3.6,0.8,4.5,2.7c0.8,1.8,0,3.4-2,3.7
			C328,117.9,325.4,115.5,325.4,113.2z"/>
	</g>
</g>
</svg>
