<?xml version="1.0" encoding="utf-8"?>
<!-- Generator: Adobe Illustrator 22.1.0, SVG Export Plug-In . SVG Version: 6.00 Build 0)  -->
<svg version="1.1" xmlns="http://www.w3.org/2000/svg" xmlns:xlink="http://www.w3.org/1999/xlink" x="0px" y="0px"
	 viewBox="0 0 662.4 921.6" style="enable-background:new 0 0 662.4 921.6;" xml:space="preserve">
<style type="text/css">
	.st0{fill:#69C6EF;}
	.st1{fill:#F57325;}
	.st2{fill:#593829;}
	.st3{fill:#FDD0A7;}
	.st4{fill:#C4C4C4;}
	.st5{fill:#FFFFFF;}
	.st6{fill:#386733;}
</style>
<g id="Слой2_xA0_Изображение_1_">
</g>
<g id="Слой4_xA0_Изображение_1_">
	<g>
		<path d="M265.9,807c-0.5,0-0.9,0-1.3,0c-3.2,0.1-6.5,0.3-9.7,0.2c-1.7,0-3.5-0.5-5.2-0.7c-1.1-0.1-1.5-0.8-1.5-1.8
			c0.1-5,0-10.1,0.2-15.1c0.3-7.9,0.8-15.9,1.4-23.8c0.6-8.6,1.4-17.2,2.3-25.8c1.2-10.9,3.6-21.5,6.1-32.1c2-8.6,3.9-17.2,5.5-25.9
			c0.8-4.5,1-9,1.6-13.6c1-8.6,1.1-17.2,1-25.8c0-1.2-0.3-2.1-1.4-2.8c-1.6-1-1.9-2.4-0.8-4c1.2-1.7,2.6-3.3,4-4.7
			c1.2-1.2,1.4-2.3,1-3.9c-2.1-8.6-3.9-17.2-5.9-25.8c-2.3-9.4-4.1-18.9-5.4-28.5c-1.4-10.5-2.3-21.1-2.2-31.7
			c0.1-11,0.6-21.9,1-32.9c0.1-4,0.4-7.9,0.7-11.9c0-0.4,0-0.8,0-1.2c-2.4-0.5-4.8-0.9-7.2-1.4c-0.7-0.2-1.5-0.4-2.2-0.7
			c-1.2-0.5-1.5-1.3-0.9-2.5c7.6-14.3,13.3-29.3,17.3-44.9c0.1-0.3,0.1-0.7,0.3-1.2c-1.7,0.4-3.3,0.9-4.8,1.3
			c-6.3,1.4-12.7,3-19,4.3c-7.6,1.5-14.3-0.7-19.4-6.6c-4.2-4.8-7.9-9.8-10.8-15.5c-1-2-1.7-4.1-1.4-6.4c0.5-5.2,0.9-10.5,1.7-15.7
			c1.2-7.8,2.6-15.5,4.4-23.2c1.5-6.7,3.7-13.2,5.6-19.9c-0.5-0.2-0.8-0.3-1.1-0.4c-5.7-1.5-11.4-2.6-17.3-3.1
			c-0.6,0-1.2-0.1-1.8-0.3c-1.1-0.3-1.6-1.3-1.2-2.4c3.1-7.8,6-15.7,9.4-23.5c9-20.7,17.6-41.7,25.1-63c1-2.9,1.8-5.8,2.5-8.7
			c0.5-1.9,1.5-3.1,3.4-3.7c5.2-1.7,10.4-3.4,15.5-5.5c10.3-4.2,20.1-9.3,29.6-14.9c2.1-1.2,3.9-3.1,5.7-4.7c2.2-2,2.5-4.8,3.2-7.5
			c1.8-7.6,1.8-15.3,0.4-23c-0.8-4.3-2-8.5-3.1-12.7c-0.2-0.8-0.8-1.4-1.2-2.1c-5.9,3.2-11.4,2.4-16.7-1.3c-0.3-0.2-0.7-0.2-1.1-0.3
			c-1.8-0.5-3.8-0.7-5.3-1.5c-2.9-1.6-5.8-3.3-8-6.4c-0.3,1.6-0.6,2.9-0.9,4.2c0,0.2,0,0.5-0.1,0.7c-0.4,0.6-0.8,1.5-1.2,1.5
			c-0.6,0.1-1.5-0.4-1.8-0.9c-1.3-2.3-2.6-4.7-3.6-7.2c-1.3-3.3-1.6-6.8-1.4-10.6c-0.5,0.4-0.9,0.6-1.3,0.9
			c-1.6,1.4-3.2,2.8-4.8,4.2c-0.7,0.6-1.6,1.2-2.3,0.6c-0.5-0.4-0.9-1.4-0.9-2.1c0.2-4.4,1.1-8.7,2.7-12.8c1.9-4.7,3-9.5,2.2-14.6
			c-0.4-2.9-0.9-5.8-1.3-8.8c-1.7-11.3-0.9-22.3,4.2-32.6c4.8-9.8,12.1-17.4,21.6-22.8c3.6-2.1,7.6-3.5,11.9-3.8
			c0.3,0,0.6-0.2,0.8-0.4c4-5.4,9.6-8.3,15.9-10.3c6-1.9,11.9-3.8,18.2-4.7c4.9-0.7,9.8-0.4,14.7,0.4c6.5,1,12.7,2.8,18.7,5.4
			c3.9,1.7,7.2,4.1,10.2,7.1c3.9,3.9,7.3,8.2,10.5,12.7c6.2,8.8,10.8,18.4,15.3,28c2.4,5,3.9,10.2,3.8,15.8
			c-0.1,6.5-2.9,11.8-7.1,16.5c-0.9,1-1.3,1-2.6,0.7c-1.2,2-2.4,4.1-3.7,6.1c-1,1.7-2.1,3.4-3.1,5.1c-0.2,0.3-0.3,0.8-0.3,1.2
			c2.6,10,0.9,19.5-3,28.8c-1.3,3.2-2.7,6.4-4.1,9.6c-3.1,6.9-8.8,10.7-15.8,12.7c-1.9,0.5-3.9,0.9-5.9,1.3c0.7,7.2,0.8,14.4,3,21.4
			c0.5,1.5,1.2,2.3,2.8,2.7c8.1,2.1,16.4,2.9,24.7,3c3.6,0.1,7.2,0,10.8,0c1.2,0,2.4-0.2,3.7-0.4c1.4-0.2,2.7-0.2,3.7,1.1
			c0.2,0.3,0.5,0.5,0.8,0.8c5.1,4,8.7,9.1,11.8,14.6c3.1,5.5,6.5,10.8,9.5,16.4c1,1.8,1.2,4,1.6,6.1c1.7,9.8,3.4,19.6,5.1,29.4
			c0.5,2.8,1.3,5.6,1.9,8.4c0.1,0.3,0.2,0.6,0.3,0.9c6.2-1.6,12.3-3.1,18.4-4.6c6.2-1.6,12.4-3.2,18.6-4.7c1.6-0.4,2.6,0.5,2.2,2
			c-1.9,7.3-3.7,14.6-5.8,21.9c-1.6,5.7-3.7,11.2-5.6,16.8c-0.2,0.5-0.3,1.1-0.5,1.5c1.3,1,2.6,1.9,3.9,2.9c1.5,1.2,2.2,2.8,1.7,4.8
			c-0.4,1.5-0.9,3-1.2,4.5c-1.6,8.4-4.6,16.4-7.7,24.4c-0.2,0.6-0.5,1.2-0.8,1.8c-1.8,4.9-5.5,6.9-10.6,6.8c-1.1,0-1.5,0.3-1.9,1.3
			c-3.5,9.8-7,19.6-10.6,29.4c-1.6,4.3-3.4,8.5-5.1,12.8c-0.1,0.4-0.3,0.7-0.4,1.1c-0.2,1.1-0.9,1.7-2,2c-0.9,0.2-1.9,0.4-2.9,0.6
			c0.1,0.3,0.1,0.6,0.2,0.8c2.7,10.2,6,20.2,9.7,30.1c1.7,4.6,2.5,9.5,3,14.4c0.2,1.4-0.2,2.8-1.2,3.7c-1.5,1.3-3.1,2.5-4.7,3.7
			c-0.3,0.3-0.7,0.8-0.8,1.2c-0.6,12.1-2.3,24-4.8,35.8c-3.7,17.4-8.1,34.7-14,51.5c-4.5,13.1-10.2,25.9-15.9,38.5
			c-4.5,10-9.1,19.9-13.7,29.8c-1.2,2.7-2.1,5.3-2.1,8.4c0,3.2-0.7,6.3-1,9.5c-0.7,6.6-1.6,13.2-2,19.8c-0.5,8.1-1,16.2-1,24.3
			c0,7.2,0.5,14.4,1,21.6c0.5,7.3,1,14.6,1.8,21.9c0.6,5.3,1.6,10.6,2.5,16c0.1,0.9,0.5,1.8,0.6,2.7c0,0.6-0.1,1.6-0.6,1.9
			c-1.5,1.2-3.1,2.5-4.8,3.3c-3.8,1.5-7.7,2.7-11.6,4.1c-0.2,0.1-0.4,0.1-0.7,0.2c1.9,2.6,4,5,6.5,7.1c5,4.3,11,6,17.5,6.2
			c3.4,0.1,6.8,0.1,10.2,0.4c5,0.6,8.6,3.6,11.5,7.5c8,11,0.4,25.3-12,27.1c-6.1,0.9-12.3,0.9-18.4,0.3c-4.8-0.5-9.5-1.2-14.3-1.7
			c-0.2,0-0.4,0-0.9,0c4.5,3.2,7.2,7.5,9.4,12.2c1.5,3.3,2.7,6.8,1.6,10.4c-1.7,5.6-5.7,8.9-11.1,10.4c-6.7,1.8-13.5,1.5-20.3-0.4
			c-7.2-2-14.4-4.1-21.7-6c-7.5-2-15.2-3-22.9-3.6c-3.3-0.3-6.6-0.9-9.9-1.5c-3.8-0.8-6.6-3.2-9-6.2c-5.5-6.7-7.1-14.6-6.3-23
			c0.4-4.6,1.4-9.1,2.1-13.7C265.8,807.8,265.9,807.4,265.9,807z M317.4,795.5c-0.8-2.4-2.8-4-2.4-6.5c-2.1-7.2-2.5-14.6-2.3-22.1
			c0.4-10.7,1.9-21.3,3.6-31.8c2.6-15.7,5.4-31.3,8.1-47c1.5-8.5,3-16.9,4.5-25.4c0.7-4.1,1.6-8.2,2-12.4c0.2-2.2,0.4-4.3,1.4-6.4
			c0.7-1.4,1.2-3,1.8-4.4c5.2-12.7,9.7-25.7,12.2-39.3c2.5-13.3,4.6-26.7,6.8-40c2.3-14.2,3.9-28.5,5.2-42.8c0.2-1.7,0-1.8-1.6-1.4
			c-1.8,0.5-3.6,0.9-5.4,1.2c-1.1,0.2-2-0.4-2.1-1.3c-0.1-0.9,0.5-1.3,1.6-1.4c0.9-0.1,1.8-0.1,2.6-0.3c6.9-1.7,13.4-4.4,19.6-7.8
			c0.1,0,0.1-0.2,0.2-0.3c-2.7-0.5-5.3-0.9-7.9-1.4c-6.1-1.2-12.2-2.7-18.3-3.6c-7.7-1.2-15.4-2.1-23.1-2.7
			c-11.3-0.9-22.7-1.4-34-1.9c-7.6-0.4-15.3-0.5-22.9-0.7c-2.4-0.1-4.8,0-7.2,0c0,0,0,0.2,0,0.3c-0.4,8-0.8,16.1-1.3,24.1
			c-0.8,13.7-0.6,27.3,0.5,41c0.8,9,1.9,18,3.8,26.8c2.8,13.2,5.9,26.4,8.9,39.6c0.4,1.8,0.2,3.3-1.2,4.6c-0.7,0.6-1.3,1.3-1.9,2
			c-0.9,1.1-1.8,2.2-2.7,3.2c0.2,0.3,0.2,0.4,0.2,0.4c0.1,0.1,0.2,0.2,0.4,0.3c1.7,0.9,2.2,2.4,2.2,4.2c0,1.6,0,3.2,0,4.8
			c0.3,9.7-0.7,19.3-1.6,28.8c-0.9,8.8-2.9,17.4-4.9,26c-2.9,12.6-6.1,25.1-7.6,37.9c-0.7,6-1.3,11.9-1.8,17.9
			c-0.5,6.2-0.8,12.4-1.1,18.7c-0.4,8.3-0.7,16.6-1,24.9c-0.1,3.4,0,3.5,3.4,3.4c4.9-0.1,9.8-0.4,14.7-0.6
			c6.1-0.2,12.2-0.3,18.2-0.5c7.4-0.3,14.7-1.2,21.6-4.3C311.7,798,314.6,796.7,317.4,795.5z M288.5,238.1c-1.1,0.7-2.2,1.5-3.3,2.1
			c-8.8,4.5-17.6,9.3-26.6,13.4c-5.6,2.6-11.6,4.3-17.4,6.3c-1.4,0.5-2.1,1.3-2.4,2.7c-0.6,2.6-1.2,5.2-2.2,7.7
			c-5.6,14.8-11.2,29.6-17.1,44.4c-4,10.1-8.4,20-12.6,30c-1.6,3.9-3,7.8-4.6,11.8c0.7,0.1,1.3,0.2,2,0.3c1.6,0.2,3.2,0.3,4.8,0.6
			c9,1.6,17.9,3.8,26.6,6.6c9.6,3.1,19.6,4.4,29.5,6.5c0.1-0.2,0.2-0.4,0.3-0.7c2-6.9,4.1-13.8,6.1-20.8c2.6-9.5,4.9-19,8.5-28.2
			c1.9-4.9,2.8-9.7,1.1-14.9c-1.3-4.2-2.2-8.5-4.1-12.5c-0.3-0.5-0.5-1.1-0.7-1.6c0.4,0.2,0.5,0.5,0.7,0.8c2,3.9,4,7.8,5.9,11.8
			c0.7,1.4,1.2,3,1.6,4.5c0.9,3.9-0.2,7.7-1.5,11.4c-1.3,3.7-2.7,7.4-3.8,11.2c-3.3,11.3-6.5,22.7-9.6,34.1c-0.1,0.5,0,1,0.1,1.5
			c0.8,3,1.8,6.1,2.6,9.1c1.4,5.3,2.8,10.5,3.1,16c0.2,3.8,0,7.6,0.1,11.4c0,0.5-0.2,1.1,0.6,1.3c4.2,0.9,8.3,1.8,12.4,3
			c9.6,2.8,19.4,3.3,29.2,1.7c13.8-2.3,25.4-9,35.3-18.8c2.6-2.6,5.4-5,8.3-7.2c1.4-1.1,3.1-1.7,4.8-2.4c0.7-0.3,1.2-0.5,1.4-1.3
			c3.4-9.4,6.6-18.9,10.2-28.3c3.3-8.6,6.9-17.1,10.3-25.7c0.6-1.4,1.3-2.2,2.8-2.6c5.1-1.4,10.2-2.9,15.3-4.3
			c0.8-0.2,1.6-0.5,2.4-0.7c-0.3-0.9-0.6-1.7-0.9-2.5c-3.7-8.6-7.5-17.1-11.1-25.7c-1.2-3-2-6.1-2.8-9.3c-0.6-2.4-0.6-4.9,1-7.4
			c0.4,1.7,0.9,3.3,1.2,4.9c0.6,2.6,0.9,5.4,1.9,7.9c2.3,6,4.9,11.8,7.4,17.7c2,4.5,4,9,6.1,13.7c3.3-0.9,6.7-1.8,10.2-2.7
			c-0.1-0.5-0.2-0.9-0.3-1.3c-0.8-3.7-1.8-7.5-2.5-11.2c-1.5-8.5-2.9-17.1-4.4-25.6c-0.4-2.1-0.6-4.3-1.5-6.1
			c-2.5-4.8-5.3-9.3-7.9-13.9c-3.7-6.3-7.5-12.5-13.4-17c-0.4-0.3-0.9-0.6-1.4-0.6c-2.8,0-5.6,0.2-8.3,0.2
			c-4.9-0.1-9.8-0.3-14.7-0.6c-2.7-0.1-5.5-0.2-8.2-0.5c-2.1-0.2-4.2-0.7-6.3-1.1c0,0.1-0.1,0.2-0.1,0.3c1.6,0.6,3.2,1.4,4.9,1.6
			c4.4,0.7,8.8,1.2,13.2,1.7c2.3,0.3,4.6,0.5,7.1,0.8c-0.6,1.9-1.3,3.5-1.8,5.2c-5.1,16-10.3,32.1-15.4,48.1
			c-1.7,5.2-3.3,10.5-5,15.7c-0.7,2.1-1.5,2.5-3.3,1.3c-5.4-3.6-10.9-7-16.1-10.9c-4.9-3.7-9.7-7.6-14.2-11.8
			c-9-8.5-17.7-17.3-26.6-26c-4.1-4-8.2-7.8-12.3-11.8c-2-1.9-2-3-0.1-5C284.9,243.9,287,241.3,288.5,238.1z M417.4,493.8
			c-0.6,0.3-0.8,0.4-1.1,0.5c-5.5,2.6-11,5.3-16.6,7.9c-6.8,3.2-13.8,5-21.3,4.4c-0.3,0-0.7,0.1-1,0.3c-4.4,2.2-8.7,4.6-13.2,6.5
			c-2.3,1-3.2,2-3.3,4.6c-0.3,6.2-1.1,12.4-1.8,18.6c-0.8,7.1-1.8,14.2-2.8,21.3c-1.3,8.6-2.6,17.3-4.2,25.9c-1.6,9-3.3,18.1-5.4,27
			c-2.8,11.9-7.3,23.3-11.9,34.6c-0.4,1-0.8,2.1-1,3.2c-0.5,3.2-0.6,6.5-1.2,9.7c-1.6,9.1-3.3,18.2-4.9,27.3
			c-1.9,10.7-3.7,21.5-5.6,32.2c-2.2,12.5-4.4,24.9-5.8,37.5c-0.9,8.2-1.3,16.4-0.4,24.7c0.1,1.1,0.3,1.8,1.6,1.9
			c0.7,0,1.4,0.3,2.1,0.4c9.4,1.4,18.7,1,28-1c5.9-1.2,11.7-2.6,17.1-5.2c4.9-2.4,4.2-1.6,3.4-6.7c-0.8-5-1.7-10.1-2.3-15.1
			c-0.8-7.5-1.4-15.1-1.9-22.7c-0.5-7.4-0.9-14.9-1-22.3c-0.1-10.2,0.7-20.4,1.7-30.5c0.4-4.5,1.1-9,1.6-13.6
			c0.4-4.1,0.8-8.2,1.2-12.3c-0.1,0-0.3-0.1-0.4-0.1c-4.1,3.6-8.3,7.1-12.5,10.8c0.8-0.3,1.5-0.6,2.2-0.8c-1.3,0.8-2.6,1.5-4,2.1
			c-0.3,0.1-0.8,0.1-1.2,0.1c0.1-0.4,0.1-0.9,0.3-1.2c1-1,2.1-2.1,3.3-3c3.9-2.8,7.8-5.6,11.7-8.4c0.6-0.4,1.1-1,1.4-1.6
			c0.9-1.9,1.7-4,2.6-5.9c6.8-15.1,13.8-30.2,20.5-45.4c7.2-16.3,12.4-33.3,16.8-50.5c3.7-14.5,7-29.1,8.6-44
			C416.9,501.2,417.1,497.6,417.4,493.8z M346,431.4c-1.4,0-2.7,0-4,0c-1.9,0.1-3.6-0.5-5.1-1.6c-0.2-0.2-0.6-0.4-0.8-0.4
			c-1.5,0.1-3,0-4.4,0.3c-4.4,0.9-8.9,2.1-13.3,3.1c-10.8,2.4-21.6,4.8-32.4,7.2c-5.7,1.3-11.5,2.4-17.2,3.6
			c-0.9,0.2-1.3,0.6-1.5,1.4c-0.3,1.3-0.7,2.6-1.1,3.9c-3.7,13.2-7.9,26.2-14.6,38.3c-0.7,1.2-1.2,2.6-1.9,4.2
			c3.2,0.5,6.2,1.1,9.1,1.3c7.1,0.4,14.1,0.6,21.2,0.8c6.5,0.2,13,0.2,19.4,0.6c9.5,0.5,18.9,1.1,28.4,1.9
			c6.3,0.5,12.6,1.2,18.8,2.3c8.6,1.5,17.2,3.3,25.7,5c8.4,1.6,16.6,1.1,24.5-2.5c6.3-2.9,12.5-5.9,18.7-8.8
			c2.5-1.2,5.2-2.3,7.3-4.3c0.9-0.9,1.4-1.8,1.3-3.2c-0.7-5.6-2-11.1-3.9-16.4c-2.4-6.7-4.6-13.5-6.8-20.3c-0.8-2.6-1.5-5.3-2.3-7.9
			c-0.3,0-0.4,0-0.6,0c-4.9,0.6-9.8,1.3-14.7,1.8c-8.1,0.9-16.1,1.8-24.2,2.7c-9.4,1.1-18.8,2.2-28.2,3.3c-1.5,0.2-2.4-0.8-2-2.3
			c0.3-1.3,0.8-2.5,1.2-3.8C343.6,438.3,344.7,434.9,346,431.4z M321.8,89.5c-0.3,2-0.5,3.8-0.9,5.5c-0.4,1.7-0.9,3.5-1.6,5.1
			c-5.3,13.8-14.5,24.5-26.2,33.3c-9.3,7-19.7,12.3-30.4,16.9c-1.9,0.8-4.1,1-6.1,1.5c-0.1-0.2-0.1-0.4-0.2-0.6
			c2.7-1.5,5.4-3.2,8.2-4.5c7.2-3.5,14.4-7.1,21.2-11.4c17-10.9,28.8-25.8,35-45.1c0.3-1,0.2-1.7-0.6-2.4
			c-5.9-5.4-12.3-9.8-20.6-10.7c0.5-0.1,1-0.1,1.4,0c2,0.4,4,0.8,6,1.1c6.8,1,12.3,4.2,16.5,9.6c2.6,3.4,4.7,7.1,7.1,10.7
			c0.4,0.6,0.6,1.3,1.1,1.7c2.1,1.9,4.1,4,6.3,5.7c7.5,5.7,15.2,11.3,23.5,15.9c3.2,1.7,6.1,3.8,8.4,6.6c0.7,0.9,1,1.7,0.1,2.6
			c-0.2,0.2-0.3,0.7-0.4,1.1c-0.3,6.1-0.4,12.2,1.4,18.2c0.3,0.9,0.6,1.8,1,3.1c2.2-3.9,4.4-7.3,6.2-11c1.6-3.2,2.1-6.6,1.7-10.3
			c-0.4-3.5-0.5-7-0.8-10.4c2.8,5.7,4.4,11.7,3.5,18.2c2.4-3.1,4-6.6,4.4-10.5c0.5-5.1-0.5-9.9-2.6-14.5
			c-4.5-9.8-8.9-19.7-15.3-28.6c-2.8-4-5.5-8-8.9-11.5c-3.7-3.7-7.6-7.1-12.5-9c-5.4-2.1-10.9-3.8-16.7-4.7
			c-4.2-0.7-8.4-1.1-12.7-0.6c-7.3,0.9-14.2,3.2-21.2,5.5c-5.2,1.7-9.5,4.5-12.8,8.9c-0.8,1.1-1.7,1.7-3.1,1.3c-0.5-0.1-1,0-1.5,0.1
			c-4.5,1.1-8.9,2.7-12.6,5.7c-2.3,1.8-4.6,3.6-6.7,5.7c-8.7,8.4-13.6,18.6-14.6,30.7c-0.5,6.5,0.3,12.9,1.4,19.3
			c0.7,4.4,1.2,8.9,0,13.3c-0.7,2.8-1.8,5.5-2.7,8.3c-0.8,2.6-1.5,5.2-1.6,8.1c0.5-0.4,0.8-0.7,1.1-0.9c2-1.5,4-3.1,6-4.5
			c0.5-0.3,1.4-0.4,1.8-0.1c0.4,0.3,0.6,1.2,0.6,1.8c0,2.6-0.3,5.2,0,7.7c0.3,2.9,1.3,5.7,2.9,8.4c0.1-0.6,0.2-1,0.3-1.4
			c0.5-1.8,1-3.5,1.6-5.3c0.2-0.4,0.9-0.9,1.3-0.9c0.4,0,0.9,0.6,1.2,1.1c0.2,0.3,0.2,0.7,0.3,1c0.3,1.5,1.1,2.9,2.3,3.8
			c1.9,1.4,3.9,2.7,5.9,4c0.3,0.2,0.7,0.3,1.3,0.5c-0.2-0.4-0.3-0.5-0.3-0.6c-5.1-6.3-6.6-13.6-5.3-21.5c0.2-1.1,0.5-2.2,0.8-3.3
			c1.9-6.3,7.7-8.7,13.6-5.7c1.8,0.9,3.6,1.3,5.5,0.6c1.3-0.5,2.8-0.9,4-1.6c2.7-1.6,5.4-3.3,8-5.1c7.9-5.5,15-11.8,21-19.4
			c5.6-7.1,9.2-15.4,12.7-23.7c0.1-0.2,0.1-0.4,0-0.5c-1.1-2-2.2-3.9-3.5-6.2c-0.1,1.1-0.1,1.8-0.2,2.5c-0.7,4.7-2.3,9-4.6,13.2
			c-5.4,10-12.9,18.2-21.8,25.3c-4.7,3.7-9.5,7.2-14.9,9.8c-2.6,1.3-6.5,2.3-8.1,2.2c1-0.6,2.2-1.3,3.3-2c1.6-1,3.2-2,4.8-3
			c4.2-2.8,8.4-5.4,12.4-8.4c9.8-7.4,17.9-16.4,23.2-27.5c1.9-4.1,3.3-8.5,5-12.7c0.1-0.2,0-0.6-0.1-0.8
			C324,92.7,322.9,91.2,321.8,89.5z M370.7,392.2c0.8-0.4,1.7-0.9,2.5-1.3c5.5-2.8,10-6.9,14.8-10.5c1.4-1.1,2.9-2.1,4.5-2.8
			c3.2-1.4,5.8,0.4,5.9,3.9c0,2.1-0.7,4.1-1.6,5.9c-1.4,2.5-1.9,5.2-2.2,8c-0.4,4.5-0.7,8.9-0.9,13.4c-0.1,2-0.9,3.6-2.6,4.6
			c-1.4,0.8-3,1.4-4.5,2.1c-0.3,0.2-0.8,0.3-1,0.6c-1,1.8-2,3.7-2.9,5.6c-0.6,1.3-1.6,2-3,2.4c-0.8,0.2-1.6,0.3-2.3,0.6
			c-0.4,0.1-0.9,0.3-1.1,0.6c-2.9,4.4-7.3,6-12.3,6.1c-4.6,0.1-9.3,0-13.9,0c-0.8,0-1.3,0.2-1.6,1.1c-0.5,1.5-1.1,2.9-1.6,4.4
			c-0.9,2.6-1.7,5.2-2.6,7.9c0.5,0,0.9,0,1.2-0.1c4.8-0.5,9.7-1.1,14.5-1.6c7.4-0.8,14.8-1.6,22.2-2.5c7.2-0.8,14.4-1.7,21.7-2.6
			c3.6-0.4,7.3-1,10.9-1.5c0.9-0.1,1.5-0.4,1.8-1.4c0.2-1,0.8-2,1.2-3c4.9-13.3,9.8-26.6,14.7-39.9c0.1-0.3,0-0.8-0.2-1.2
			c-0.7-1.3-1.1-2.6-0.8-4.1c0.6-2.3,2.1-3.9,4.1-5c-1.5-1.7-1.2-3.6-0.3-5.4c0.8-1.5,1.7-3,2.5-4.5c-1.4-1.5-1.7-2.7-1-4.8
			c0.4-1.4,1-2.7,1.6-4c1.5-3.1,2.4-3.5,5.6-2.8c0-4.1,0.8-8.2,1.8-12.1c0.6-2.2,1.1-2.6,3.3-2.7c4.7-12.2,8.2-24.8,10.9-37.6
			c-0.2,0-0.4,0-0.5,0.1c-12.8,3.2-25.5,6.4-38.3,9.7c-8.8,2.3-17.7,4.7-26.5,7.2c-4.1,1.1-4.1,1.2-5.7,5.2c0,0.1-0.1,0.1-0.1,0.2
			c-6.7,15.7-12.7,31.5-18.2,47.6c-0.3,0.8-0.5,1.6-0.8,2.4c1.8,0.1,3.5,0.2,5.1,0.4c2.2,0.3,2.9,1.8,2.2,3.9
			c-0.1,0.3-0.3,0.7-0.5,1C375.2,388.2,373,390.3,370.7,392.2z M391.9,394c-1.6,1.2-3.1,2.6-4.8,3.8c-1.6,1.1-2.7,2.2-2.1,4.3
			c0.1,0.3,0,0.6,0,1c-0.2,2.8-1.4,4.2-4.2,4.6c-2,0.3-4.1,0.1-6.1,0.1c-0.5,0-1.3-0.4-1.4-0.7c-0.1-0.4,0.2-1.1,0.6-1.5
			c1-1.1,2.1-2,3.2-3c0.7-0.6,1.4-1.3,2.2-1.9c2.6-2,5.3-4,7.9-6c3.6-2.7,6.7-5.9,8-10.3c0.3-1,0.4-2.1,0.4-3.2c0-1-0.8-1.5-1.8-1.2
			c-0.5,0.1-1,0.4-1.4,0.7c-2.2,1.6-4.5,3.1-6.6,4.8c-5.9,5-12.4,8.7-19.4,11.7c-1.3,0.5-2.9,0.6-4.3,0.7c-1.2,0-1.7-1-1-2
			c0.3-0.5,0.7-0.9,1.2-1.2c1.7-1.2,3.4-2.3,5.1-3.6c1.8-1.3,3.5-2.6,5.1-4.1c0.9-0.9,1.5-2.1,2.4-3.4c-3.7-0.6-6.8-0.4-9.9,0.9
			c-3.2,1.4-5.9,3.7-8.3,6.2c-4.4,4.4-9,8.6-14.3,12c-10.5,6.9-22,10.3-34.4,10.7c-8.7,0.3-17-1.5-25.2-4
			c-12.1-3.7-23.6-2.1-34.4,4.4c-0.5,0.3-1.1,0.7-1.6,0.7c-0.4,0.1-1.1-0.2-1.3-0.5c-0.2-0.3-0.1-1.1,0.2-1.4
			c0.5-0.6,1.2-0.9,1.8-1.4c0.3-0.3,0.7-0.7,0.8-1.1c0.4-1.7,0.6-3.5,1.2-5.2c2.8-9,5.6-17.9,8.4-26.9c0.6-1.8,1.1-3.7,1.7-5.9
			c-12.7-1-24.4-5.6-36.5-8.6c-0.2,0.5-0.3,0.9-0.4,1.3c-0.8,3.5-1.7,7-2.5,10.5c-2.2,10-5.6,19.7-6.7,29.9
			c-0.6,5.4-1.3,10.8-1.8,16.2c-0.2,1.9,0.2,3.8,1,5.5c3.1,6.1,7,11.5,11.8,16.4c3.3,3.4,7.4,5.2,12.1,4.8c4.3-0.4,8.6-1.1,12.9-2.1
			c7.1-1.6,14.1-3.7,21.3-5.3c8.1-1.8,16.2-3.2,24.3-4.9c8-1.7,16-3.7,24-5.6c4.9-1.1,9.8-2.2,14.8-3.4c-0.3-0.9-0.6-1.9-1-3
			c1.1,0.6,2.1,1,3,1.6c0.9,0.6,1.6,1.5,2.4,2.2c1.1,1,2.3,1.5,3.8,1.5c5.8,0,11.6,0,17.4,0c0.6,0,1.1-0.1,1.7-0.1
			c1.4-0.1,2.8-0.4,4.3-0.4c3,0,5.7-0.5,7.6-3.1c-1.3-0.4-2.6-0.8-3.8-1.3c0-0.2,0-0.3,0-0.5c2.5-0.4,5.1-0.8,7.6-1.4
			c1.2-0.3,2.6-0.5,3.4-1.3c1.1-1.2,1.7-2.8,2.5-4.3c-3.1-0.4-6.4,0.6-9-1.9c2.3-1.1,2.3-1.1,4.9-0.9c3.7,0.3,7.2-0.2,10.5-1.9
			c1.5-0.8,2.2-1.9,2.3-3.6C391.3,403.5,391.6,398.7,391.9,394z M331.7,103.8c-0.5,1.1-0.8,2.1-1.3,3.1c-3.1,7.3-6.5,14.4-11.4,20.6
			c-7.6,9.6-16.9,17.2-27.1,23.8c-2.6,1.6-5.2,3.1-8.3,3.7c-1.5,0.3-3,0.4-4.5-0.3c-1.2-0.5-2.5-1.1-3.8-1.4c-3.8-1-6.9,0.7-8.1,4.5
			c-2.8,9.4-1.1,17.8,5.8,24.9c3.1,3.1,6.9,4.5,11.2,3.9c1-0.1,2.1-0.6,3-1c0.6-0.3,0.8-0.9,0.3-1.6c-0.5-0.8-1-1.7-1.2-2.6
			c-0.1-0.5,0.2-1.4,0.6-1.5c0.4-0.2,1.1,0.2,1.6,0.5c0.2,0.1,0.3,0.6,0.5,0.8c2.2,3.5,4.2,7.2,6.8,10.5c4.5,5.8,10.1,10.4,17.2,13
			c5.3,1.9,10.9,2.6,16.5,2.7c6.6,0.2,13.2,0.3,19.7-1.4c6.4-1.7,11.6-5.1,14.4-11.5c1.4-3.2,2.7-6.4,4.1-9.6
			c1.9-4.5,3.1-9.2,3.7-14.1c0.6-5.2,0-10.3-1.6-15.1c-2.7-8-3.5-16.2-2.7-24.6c0.1-1.3-0.1-2.2-1.2-3c-2-1.4-4-2.9-6.1-4.2
			c-4.5-2.9-9.1-5.6-13.5-8.7C341.3,111.7,336.1,108.3,331.7,103.8z M373.9,243.8c-2.7-0.3-5.3-0.5-7.8-0.9c-3.9-0.6-7.9-0.9-11.7-2
			c-4.9-1.3-8.6-4.4-9.7-9.6c-0.9-4.1-1.6-8.3-2.2-12.5c-0.4-3-0.5-6-0.8-9c-0.4,0-0.7,0-1,0c-5.4-0.1-10.9,0-16.3-0.3
			c-11.2-0.6-20.6-5.2-28.2-13.5c-0.2-0.2-0.3-0.6-0.5-0.9c-0.1,0.1-0.2,0.2-0.3,0.3c0.4,2.2,0.8,4.3,1.2,6.5
			c1.8,10.8,1.3,21.4-3,31.7c-0.8,1.8-1.2,3.8-2.2,5.5c-0.9,1.7-2.1,3.2-3.3,4.7c-1.4,1.7-2.9,3.4-4.5,5.4c0.7,0.6,1.4,1.2,2.1,1.8
			c1.3,1.2,2.7,2.3,4,3.6c7,6.9,14.1,13.9,21.1,20.8c0.6,0.6,1.5,1,2.3,1.1c2.7,0.4,5.5,0.7,8.2,0.9c14.5,0.8,28.7-0.6,42.5-5
			c0.8-0.3,1.3-0.7,1.5-1.5c2.2-7.3,4.5-14.6,6.8-22C372.7,247.2,373.3,245.6,373.9,243.8z M266.5,819.1c0,0.1-0.1,0.2-0.1,0.4
			c-0.6,4.9-0.5,9.7,0.8,14.5c1.2,4.5,3.6,8.3,6.9,11.4c1.1,1.1,2.6,2.1,4,2.5c3.4,0.9,6.9,1.4,10.3,1.9c5,0.7,10,1,15,1.9
			c9.4,1.7,18.7,4,27.8,7.1c6.2,2.1,12.6,2.8,19.1,1.8c3.8-0.6,7.1-2,9.7-5c2.1-2.5,3-5.2,2.3-8.4c-1.2-4.8-3.6-9-6.8-12.7
			c-2.1-2.5-4.8-4-7.9-4.6c-2.3-0.5-4.6-1-6.9-1.3c-8.7-1.3-16.2-4.7-22.2-11.3c-1.3-1.4-2.7-1.9-4.3-1.7c-1.8,0.2-3.7,0.5-5.2,1.4
			c-3,1.8-5.9,3.8-8.7,6c-3.7,2.8-7.6,4.9-12.4,4.8c-5.8-0.2-11.3-1.8-16.4-4.5C269.7,822.1,268.2,820.5,266.5,819.1z M311.3,801.1
			c0,0.2,0,0.2,0,0.3c0.3,0.6,0.6,1.1,0.9,1.7c3,5.9,6.5,11.5,11.8,15.7c2.5,2,5.2,3.7,8.5,4c1.5,0.1,2.9,0.4,4.4,0.7
			c11.7,2.3,23.3,4.8,35.3,5.3c5.1,0.2,10.2,0.2,15.3-0.6c10.1-1.7,16.6-13.6,9.8-22.8c-2.8-3.8-6.2-6.6-11.2-6.7
			c-2.6-0.1-5.1-0.1-7.7-0.2c-5.9-0.2-11.7-1.2-16.8-4.6c-2.8-1.8-5.3-3.9-7.3-6.5c-0.9-1.2-1.9-1.2-2.9-0.6c-1.7,1-3.4,2-4.7,3.4
			c-1.6,1.7-2.9,3.8-4.3,5.8c-2.4,3.4-5.7,5.1-9.9,5.1c-5,0.1-9.7-1-14.5-2.3c-0.5-0.1-1.1-0.3-1.6-0.1
			C314.7,799.5,313.1,800.3,311.3,801.1z M363.9,275.1c-8,2.4-15.9,4-24.1,4.6c-8.1,0.7-16.2,0.6-24.5-0.2
			c11.2,11.8,23.6,21.7,37.5,30C356.5,298,360.2,286.6,363.9,275.1z M307.9,802.4c-9.1,3.2-10.4,3-18.6,3.6
			c-6,0.5-12.1,0.4-18.1,0.5c-2.4,0.1-2.4,0-3,2.4c-0.1,0.5-0.4,1-0.3,1.5c0,1.8-1.2,3.4,0,5.3c1.2,1.9,2.5,3.6,4.4,4.8
			c4,2.4,8.3,3.6,12.8,4.3c5.1,0.8,9.5-0.6,13.5-3.9c1.4-1.2,2.8-2.4,4.3-3.4c2.4-1.5,4.8-2.8,7.3-4c1.3-0.6,2.9-0.7,4.5-1
			C312.1,809.4,311.1,805.2,307.9,802.4z M272.4,404.5c1.4-11.6-1.2-22.5-4.5-33.5c-1.3,2.5-1.3,2.5-4,1.9c-0.6-0.1-1.2-0.2-1.7-0.3
			c-3.8,12.2-7.6,24.3-11.4,36.5C257.7,405.9,264.9,404.3,272.4,404.5z M351.5,784c-0.5-0.8-0.5-0.9-2.1-0.5
			c-10.7,2.4-21.5,2.9-32.3,0.9c-0.1,0-0.3,0.1-0.4,0.1c0.5,3.7,1.7,7.1,4.2,9.9c0.6,0.7,0.5,1.2-0.1,1.7c-0.2,0.2-0.4,0.3-0.8,0.6
			c4.2,0.9,8.1,2,12.3,1.8c1.4-0.1,2.9-0.3,4.2-0.8c2.5-0.9,3.9-3,5.2-5.1C344,788.8,347.1,785.7,351.5,784z M451.7,364.9
			c-0.3,0-0.5-0.1-0.7-0.1c-2,0-3.9-0.5-5.6-1.6c-1-0.6-2.4-0.5-3.7-0.6c-0.2,0-0.5,0.3-0.6,0.6c-0.7,1.7-1.5,3.4-2.1,5.2
			c-0.3,0.9,0,1.6,0.9,2c2.7,1,5.4,2,8.1,3c0.6,0.2,0.9,0,1.1-0.7c0.7-2,1.4-4.1,2.1-6.1C451.4,366,451.5,365.5,451.7,364.9z
			 M448.3,348.2c-1,3.9-1.9,7.5-1.8,11.2c0,1.1,0.7,2.1,1.9,2.4c1.1,0.3,2.2,0.3,3.3,0.4c0.2,0,0.5-0.3,0.5-0.5
			c0.7-2.5,1.4-5,2.1-7.5c0.2-0.8,0.1-1.6-0.7-2.1C451.9,350.9,450.2,349.6,448.3,348.2z M439.8,373.4c-0.8,1.5-1.7,3-2.5,4.5
			c-0.6,1.1-0.5,2.2,0.7,2.8c1.7,0.9,3.5,1.8,5.3,2.5c0.5,0.2,1.8-0.1,2-0.5c1-2.1,1.7-4.4,2.6-6.5
			C445.1,375.2,442.6,374.4,439.8,373.4z M437,383.6c-0.9,1.1-2.1,2.2-2.9,3.6c-0.7,1.2,0.2,2.4,1.6,2.4c0.8,0,1.7,0,2.5-0.1
			c2.4-0.3,4.5-1,5.5-3.3C441.6,385.4,439.5,384.6,437,383.6z M382.3,401.5c-1.6,1.4-3.8,2-4.9,4.2c0.9-0.2,1.6-0.4,2.3-0.6
			C382.1,404.8,382.5,404.2,382.3,401.5z"/>
		<path class="st0" d="M317.4,795.5c-2.8,1.2-5.7,2.5-8.6,3.7c-6.9,3.1-14.2,4-21.6,4.3c-6.1,0.3-12.1,0.3-18.2,0.5
			c-4.9,0.2-9.8,0.5-14.7,0.6c-3.4,0.1-3.5,0-3.4-3.4c0.3-8.3,0.6-16.6,1-24.9c0.3-6.2,0.6-12.5,1.1-18.7c0.5-6,1.1-11.9,1.8-17.9
			c1.5-12.8,4.7-25.3,7.6-37.9c2-8.6,4.1-17.2,4.9-26c0.9-9.6,1.9-19.2,1.6-28.8c0-1.6,0-3.2,0-4.8c0-1.8-0.5-3.3-2.2-4.2
			c-0.1-0.1-0.3-0.2-0.4-0.3c-0.1,0-0.1-0.1-0.2-0.4c0.9-1,1.8-2.1,2.7-3.2c0.6-0.7,1.2-1.4,1.9-2c1.4-1.3,1.6-2.9,1.2-4.6
			c-3-13.2-6.1-26.4-8.9-39.6c-1.9-8.8-3.1-17.8-3.8-26.8c-1.1-13.7-1.3-27.3-0.5-41c0.5-8,0.8-16.1,1.3-24.1c0-0.2,0-0.3,0-0.3
			c2.4,0,4.8-0.1,7.2,0c7.6,0.2,15.3,0.3,22.9,0.7c11.3,0.5,22.7,1,34,1.9c7.7,0.6,15.4,1.5,23.1,2.7c6.1,0.9,12.2,2.4,18.3,3.6
			c2.6,0.5,5.3,1,7.9,1.4c-0.1,0.1-0.1,0.2-0.2,0.3c-6.2,3.4-12.7,6.1-19.6,7.8c-0.8,0.2-1.7,0.3-2.6,0.3c-1.2,0.1-1.7,0.6-1.6,1.4
			c0.1,0.9,1,1.5,2.1,1.3c1.8-0.4,3.6-0.7,5.4-1.2c1.6-0.4,1.8-0.3,1.6,1.4c-1.3,14.3-2.9,28.6-5.2,42.8c-2.2,13.4-4.3,26.7-6.8,40
			c-2.6,13.5-7,26.5-12.2,39.3c-0.6,1.5-1.1,3-1.8,4.4c-0.9,2-1.1,4.2-1.4,6.4c-0.4,4.2-1.3,8.3-2,12.4c-1.5,8.5-3,16.9-4.5,25.4
			c-2.7,15.7-5.5,31.3-8.1,47c-1.8,10.5-3.2,21.1-3.6,31.8c-0.3,7.5,0.2,14.9,2.3,22.1C314.6,791.5,316.6,793.1,317.4,795.5z
			 M301.3,666.6c-12.3-9.5-21.6-21.5-29.3-34.8c-0.1,0.6-0.2,1.3,0,1.8c0.7,1.9,1.4,3.9,2.3,5.8c5.1,9.6,12.2,17.6,21.2,23.8
			c0.4,0.2,0.7,0.5,1.1,0.8c-0.1,0.1-0.1,0.2-0.2,0.3c-5.1-2.8-10.3-5.5-15.3-8.5c-2.8-1.6-5.2-3.8-7.8-5.7
			c-0.6-0.5-1.1-1.2-1.9-0.7c-0.8,0.5-0.8,1.3-0.5,2.1c1,2.7,1.9,5.5,3.1,8.2c2.3,5.5,4.8,11,7.2,16.4c0.1,0.3,0.3,0.6,0.4,0.9
			c0,0,0.1,0,0.1,0c-2.5-7.8-4.9-15.7-7.4-23.5C282.8,658.6,291.8,663.1,301.3,666.6z M319.8,668.9c3-4.9,6-9.8,7-15.6
			C324.4,658.5,322.1,663.7,319.8,668.9z"/>
		<path class="st0" d="M288.5,238.1c-1.5,3.2-3.6,5.8-6,8.4c-1.8,2-1.9,3,0.1,5c4.1,4,8.2,7.8,12.3,11.8c8.9,8.7,17.6,17.5,26.6,26
			c4.5,4.2,9.3,8.1,14.2,11.8c5.2,3.9,10.7,7.3,16.1,10.9c1.8,1.2,2.6,0.9,3.3-1.3c1.7-5.2,3.4-10.5,5-15.7
			c5.1-16,10.3-32.1,15.4-48.1c0.5-1.7,1.2-3.4,1.8-5.2c-2.5-0.3-4.8-0.5-7.1-0.8c-4.4-0.5-8.8-1-13.2-1.7c-1.7-0.3-3.3-1.1-4.9-1.6
			c0-0.1,0.1-0.2,0.1-0.3c2.1,0.4,4.2,0.9,6.3,1.1c2.7,0.3,5.5,0.3,8.2,0.5c4.9,0.2,9.8,0.4,14.7,0.6c2.8,0.1,5.6-0.2,8.3-0.2
			c0.5,0,1,0.3,1.4,0.6c5.9,4.5,9.8,10.7,13.4,17c2.7,4.6,5.5,9.2,7.9,13.9c0.9,1.8,1.1,4.1,1.5,6.1c1.5,8.5,2.8,17.1,4.4,25.6
			c0.7,3.8,1.6,7.5,2.5,11.2c0.1,0.4,0.2,0.8,0.3,1.3c-3.5,0.9-7,1.9-10.2,2.7c-2.1-4.7-4.1-9.2-6.1-13.7
			c-2.5-5.9-5.1-11.7-7.4-17.7c-1-2.5-1.2-5.3-1.9-7.9c-0.4-1.6-0.8-3.1-1.2-4.9c-1.6,2.4-1.6,4.9-1,7.4c0.8,3.1,1.6,6.3,2.8,9.3
			c3.6,8.6,7.4,17.1,11.1,25.7c0.3,0.8,0.6,1.6,0.9,2.5c-0.9,0.2-1.6,0.5-2.4,0.7c-5.1,1.4-10.2,2.9-15.3,4.3
			c-1.5,0.4-2.2,1.2-2.8,2.6c-3.4,8.6-7,17.1-10.3,25.7c-3.6,9.4-6.8,18.8-10.2,28.3c-0.3,0.8-0.7,1-1.4,1.3
			c-1.7,0.6-3.4,1.3-4.8,2.4c-2.9,2.3-5.7,4.6-8.3,7.2c-9.9,9.8-21.4,16.5-35.3,18.8c-9.8,1.6-19.6,1.1-29.2-1.7
			c-4.1-1.2-8.3-2-12.4-3c-0.9-0.2-0.6-0.7-0.6-1.3c0-3.8,0.1-7.6-0.1-11.4c-0.2-5.5-1.7-10.7-3.1-16c-0.8-3.1-1.7-6.1-2.6-9.1
			c-0.1-0.5-0.2-1-0.1-1.5c3.2-11.4,6.4-22.8,9.6-34.1c1.1-3.8,2.5-7.5,3.8-11.2c1.3-3.7,2.4-7.4,1.5-11.4c-0.3-1.5-0.9-3.1-1.6-4.5
			c-1.9-4-3.9-7.9-5.9-11.8c-0.2-0.3-0.3-0.6-0.7-0.8c0.2,0.5,0.4,1.1,0.7,1.6c1.9,4,2.8,8.3,4.1,12.5c1.7,5.2,0.8,10-1.1,14.9
			c-3.6,9.2-5.9,18.7-8.5,28.2c-1.9,7-4,13.9-6.1,20.8c-0.1,0.2-0.2,0.4-0.3,0.7c-9.9-2-19.9-3.4-29.5-6.5c-8.7-2.8-17.6-5-26.6-6.6
			c-1.6-0.3-3.2-0.4-4.8-0.6c-0.6-0.1-1.2-0.2-2-0.3c1.5-4,3-8,4.6-11.8c4.2-10,8.6-19.9,12.6-30c5.9-14.7,11.5-29.6,17.1-44.4
			c0.9-2.5,1.6-5.1,2.2-7.7c0.3-1.4,1-2.2,2.4-2.7c5.9-2,11.8-3.7,17.4-6.3c9-4.2,17.8-8.9,26.6-13.4
			C286.4,239.6,287.4,238.8,288.5,238.1z M321.2,324.4c0.1-0.4,0.1-0.5,0.1-0.7c0.5-4,0.2-4.4-3.8-4.4c-0.1,0-0.2,0-0.4,0
			c-1.8,0.1-3.7,0.1-5.5,0.3c-1.4,0.2-2.1,1.1-2.2,2.6c-0.1,0.8,0,1.7,0,2.6c-0.2,0-0.5,0.1-0.8,0.1c-2.5,0.2-5,0.4-7.5,0.7
			c-0.3,0-0.6,0-0.8-0.1c-1.4-0.4-2.4,0.1-2.3,1.6c0.1,3.9,0.4,7.9,0.8,11.8c0.2,1.7,1.1,2.3,2.9,2.4c0.5,0,1,0.1,1.6,0
			c5.3-0.2,10.6-0.4,15.9-0.6c4.5-0.2,9-0.4,13.5-0.7c2.6-0.2,2.9-0.8,2.5-3.4c0-0.2-0.1-0.4-0.1-0.6c-0.5-3-1.1-6.1-1.4-9.1
			c-0.3-2.4-0.3-2.5-2.7-2.5C327.8,324.4,324.6,324.4,321.2,324.4z M360,350.9c-0.9,1.3-1.7,2.4-2.5,3.5c-0.4,0.5-0.6,1.1-0.9,1.7
			c-4,6.2-9.2,11.1-15.7,14.6c-4.8,2.6-9.8,4.5-15.3,4.2c-3.9-0.2-7.9-0.8-11.7-1.4c-3.3-0.6-6.5-1.1-9.9-0.7
			c1.3,0.7,2.5,1.4,3.8,1.9c1.3,0.5,2.7,0.8,4,1.1c2.6,0.5,5.2,1,7.8,1.4c5.1,0.7,10.2,0.7,15.2-1c7.7-2.5,14.1-6.9,19.5-12.8
			c2.3-2.6,4.6-5.3,5.9-8.6C360.6,353.6,360.9,352.4,360,350.9z"/>
		<path class="st0" d="M417.4,493.8c-0.3,3.8-0.5,7.4-0.9,11c-1.6,14.9-4.9,29.5-8.6,44c-4.3,17.3-9.6,34.2-16.8,50.5
			c-6.7,15.2-13.7,30.3-20.5,45.4c-0.9,2-1.7,4-2.6,5.9c-0.3,0.6-0.8,1.2-1.4,1.6c-3.9,2.8-7.8,5.5-11.7,8.4c-1.2,0.9-2.2,1.9-3.3,3
			c-0.3,0.2-0.2,0.8-0.3,1.2c0.4,0,0.8,0.1,1.2-0.1c1.4-0.6,2.7-1.2,4-2.1c-0.7,0.3-1.4,0.5-2.2,0.8c4.3-3.7,8.4-7.3,12.5-10.8
			c0.1,0,0.3,0.1,0.4,0.1c-0.4,4.1-0.7,8.2-1.2,12.3c-0.5,4.5-1.2,9-1.6,13.6c-1,10.1-1.8,20.3-1.7,30.5c0.1,7.4,0.5,14.9,1,22.3
			c0.5,7.6,1.1,15.2,1.9,22.7c0.5,5.1,1.5,10.1,2.3,15.1c0.8,5.1,1.5,4.3-3.4,6.7c-5.4,2.6-11.3,4-17.1,5.2c-9.3,1.9-18.6,2.4-28,1
			c-0.7-0.1-1.4-0.4-2.1-0.4c-1.3,0-1.5-0.8-1.6-1.9c-0.9-8.2-0.5-16.4,0.4-24.7c1.3-12.6,3.6-25.1,5.8-37.5
			c1.9-10.7,3.7-21.5,5.6-32.2c1.6-9.1,3.3-18.2,4.9-27.3c0.6-3.2,0.7-6.5,1.2-9.7c0.2-1.1,0.6-2.2,1-3.2
			c4.6-11.3,9.1-22.7,11.9-34.6c2.1-8.9,3.8-18,5.4-27c1.6-8.6,2.9-17.2,4.2-25.9c1.1-7.1,2-14.2,2.8-21.3
			c0.7-6.2,1.5-12.4,1.8-18.6c0.1-2.6,1-3.6,3.3-4.6c4.5-1.9,8.8-4.3,13.2-6.5c0.3-0.2,0.7-0.3,1-0.3c7.5,0.6,14.6-1.2,21.3-4.4
			c5.5-2.6,11-5.2,16.6-7.9C416.5,494.2,416.8,494.1,417.4,493.8z M366.6,659.7c-0.1-0.2-0.2-0.3-0.4-0.5c-2.9,2.6-6.1,4.8-9.1,7.1
			c0.1,0.1,0.1,0.2,0.2,0.3C360.4,664.3,363.5,662,366.6,659.7z"/>
		<path class="st0" d="M346,431.4c-1.2,3.5-2.3,6.8-3.5,10.2c-0.4,1.2-0.8,2.5-1.2,3.8c-0.4,1.5,0.4,2.5,2,2.3
			c9.4-1.1,18.8-2.2,28.2-3.3c8.1-0.9,16.1-1.8,24.2-2.7c4.9-0.6,9.8-1.2,14.7-1.8c0.2,0,0.3,0,0.6,0c0.8,2.6,1.4,5.3,2.3,7.9
			c2.2,6.8,4.4,13.6,6.8,20.3c1.9,5.3,3.2,10.8,3.9,16.4c0.2,1.3-0.3,2.3-1.3,3.2c-2.1,2-4.7,3.1-7.3,4.3c-6.2,3-12.5,5.9-18.7,8.8
			c-7.9,3.7-16.1,4.1-24.5,2.5c-8.6-1.7-17.1-3.5-25.7-5c-6.2-1.1-12.5-1.8-18.8-2.3c-9.4-0.8-18.9-1.4-28.4-1.9
			c-6.5-0.3-13-0.4-19.4-0.6c-7.1-0.2-14.2-0.4-21.2-0.8c-3-0.2-5.9-0.8-9.1-1.3c0.8-1.6,1.3-3,1.9-4.2
			c6.7-12.1,10.9-25.1,14.6-38.3c0.4-1.3,0.8-2.6,1.1-3.9c0.2-0.9,0.6-1.3,1.5-1.4c5.8-1.2,11.5-2.3,17.2-3.6
			c10.8-2.4,21.6-4.8,32.4-7.2c4.4-1,8.9-2.1,13.3-3.1c1.4-0.3,2.9-0.3,4.4-0.3c0.3,0,0.6,0.2,0.8,0.4c1.5,1.2,3.2,1.7,5.1,1.6
			C343.2,431.4,344.5,431.4,346,431.4z"/>
		<path class="st1" d="M321.8,89.5c1.2,1.7,2.2,3.2,3.2,4.7c0.1,0.2,0.2,0.6,0.1,0.8c-1.6,4.2-3,8.6-5,12.7
			c-5.3,11.2-13.4,20.1-23.2,27.5c-4,3-8.2,5.6-12.4,8.4c-1.6,1-3.2,2-4.8,3c-1.1,0.7-2.3,1.4-3.3,2c1.5,0.1,5.5-1,8.1-2.2
			c5.4-2.6,10.2-6.1,14.9-9.8c8.9-7,16.4-15.2,21.8-25.3c2.2-4.1,3.9-8.5,4.6-13.2c0.1-0.7,0.1-1.4,0.2-2.5c1.3,2.2,2.4,4.2,3.5,6.2
			c0.1,0.1,0.1,0.4,0,0.5c-3.5,8.3-7,16.6-12.7,23.7c-6,7.6-13.1,13.9-21,19.4c-2.6,1.8-5.3,3.5-8,5.1c-1.2,0.7-2.6,1.1-4,1.6
			c-1.9,0.7-3.8,0.4-5.5-0.6c-5.9-3-11.7-0.5-13.6,5.7c-0.3,1.1-0.6,2.2-0.8,3.3c-1.3,7.9,0.2,15.2,5.3,21.5
			c0.1,0.1,0.1,0.2,0.3,0.6c-0.6-0.2-1-0.3-1.3-0.5c-2-1.3-4-2.6-5.9-4c-1.3-0.9-2-2.3-2.3-3.8c-0.1-0.4-0.1-0.8-0.3-1
			c-0.3-0.4-0.8-1-1.2-1.1c-0.4,0-1.2,0.5-1.3,0.9c-0.6,1.7-1.1,3.5-1.6,5.3c-0.1,0.4-0.2,0.8-0.3,1.4c-1.7-2.7-2.7-5.5-2.9-8.4
			c-0.3-2.6,0.1-5.2,0-7.7c0-0.6-0.2-1.5-0.6-1.8c-0.4-0.3-1.4-0.2-1.8,0.1c-2.1,1.4-4,3-6,4.5c-0.3,0.2-0.6,0.5-1.1,0.9
			c0.2-3,0.8-5.6,1.6-8.1c0.9-2.8,2-5.5,2.7-8.3c1.2-4.4,0.7-8.9,0-13.3c-1.1-6.4-1.9-12.8-1.4-19.3c1-12.1,5.9-22.3,14.6-30.7
			c2.1-2,4.4-3.8,6.7-5.7c3.7-2.9,8.1-4.5,12.6-5.7c0.5-0.1,1.1-0.3,1.5-0.1c1.4,0.4,2.3-0.2,3.1-1.3c3.2-4.4,7.6-7.2,12.8-8.9
			c7-2.3,13.9-4.7,21.2-5.5c4.2-0.5,8.5-0.1,12.7,0.6c5.7,0.9,11.3,2.5,16.7,4.7c5,2,8.8,5.3,12.5,9c3.5,3.5,6.1,7.6,8.9,11.5
			c6.4,8.9,10.8,18.7,15.3,28.6c2.1,4.5,3.1,9.4,2.6,14.5c-0.4,3.9-2,7.3-4.4,10.5c0.9-6.5-0.7-12.5-3.5-18.2
			c0.3,3.4,0.4,6.9,0.8,10.4c0.4,3.6-0.1,7.1-1.7,10.3c-1.8,3.6-4,7.1-6.2,11c-0.4-1.3-0.7-2.2-1-3.1c-1.8-6-1.7-12.1-1.4-18.2
			c0-0.4,0.1-0.9,0.4-1.1c1-0.9,0.6-1.8-0.1-2.6c-2.3-2.8-5.3-4.9-8.4-6.6c-8.3-4.6-16-10.2-23.5-15.9c-2.2-1.7-4.3-3.7-6.3-5.7
			c-0.5-0.4-0.7-1.2-1.1-1.7c-2.3-3.6-4.5-7.3-7.1-10.7c-4.1-5.4-9.7-8.6-16.5-9.6c-2-0.3-4-0.7-6-1.1c-0.5-0.1-0.9-0.1-1.4,0
			c8.3,0.9,14.7,5.3,20.6,10.7c0.8,0.7,0.9,1.4,0.6,2.4c-6.2,19.2-18.1,34.2-35,45.1c-6.8,4.4-14,7.9-21.2,11.4
			c-2.8,1.4-5.5,3-8.2,4.5c0.1,0.2,0.1,0.4,0.2,0.6c2-0.5,4.2-0.7,6.1-1.5c10.7-4.6,21.1-9.9,30.4-16.9
			c11.7-8.8,20.8-19.6,26.2-33.3c0.6-1.7,1.2-3.4,1.6-5.1C321.2,93.3,321.4,91.6,321.8,89.5z"/>
		<path class="st2" d="M370.7,392.2c2.3-2,4.5-4,6-6.7c0.2-0.3,0.3-0.6,0.5-1c0.8-2.1,0-3.5-2.2-3.9c-1.6-0.3-3.3-0.3-5.1-0.4
			c0.2-0.7,0.5-1.6,0.8-2.4c5.5-16.1,11.6-32,18.2-47.6c0-0.1,0.1-0.1,0.1-0.2c1.6-4,1.6-4.1,5.7-5.2c8.8-2.4,17.6-4.9,26.5-7.2
			c12.7-3.3,25.5-6.5,38.3-9.7c0.2,0,0.3-0.1,0.5-0.1c-2.8,12.8-6.2,25.4-10.9,37.6c-2.2,0.1-2.7,0.5-3.3,2.7c-1.1,4-1.9,8-1.8,12.1
			c-3.2-0.7-4.1-0.3-5.6,2.8c-0.6,1.3-1.2,2.6-1.6,4c-0.7,2.2-0.3,3.4,1,4.8c-0.9,1.5-1.8,3-2.5,4.5c-0.9,1.8-1.2,3.7,0.3,5.4
			c-2.1,1.2-3.6,2.7-4.1,5c-0.4,1.5,0.1,2.8,0.8,4.1c0.2,0.3,0.3,0.8,0.2,1.2c-4.9,13.3-9.8,26.6-14.7,39.9c-0.4,1-0.9,2-1.2,3
			c-0.2,1-0.9,1.3-1.8,1.4c-3.6,0.5-7.3,1-10.9,1.5c-7.2,0.9-14.4,1.7-21.7,2.6c-7.4,0.9-14.8,1.7-22.2,2.5
			c-4.8,0.5-9.7,1.1-14.5,1.6c-0.3,0-0.7,0-1.2,0.1c0.9-2.7,1.8-5.3,2.6-7.9c0.5-1.5,1.1-2.9,1.6-4.4c0.3-0.9,0.7-1.1,1.6-1.1
			c4.6,0,9.3,0.1,13.9,0c5.1-0.1,9.4-1.7,12.3-6.1c0.2-0.3,0.7-0.5,1.1-0.6c0.8-0.2,1.6-0.3,2.3-0.6c1.3-0.4,2.3-1.1,3-2.4
			c0.9-1.9,1.9-3.8,2.9-5.6c0.2-0.3,0.6-0.4,1-0.6c1.5-0.7,3.1-1.3,4.5-2.1c1.7-1,2.5-2.6,2.6-4.6c0.3-4.5,0.5-8.9,0.9-13.4
			c0.2-2.8,0.8-5.5,2.2-8c1-1.8,1.7-3.8,1.6-5.9c-0.1-3.5-2.7-5.3-5.9-3.9c-1.6,0.7-3.1,1.7-4.5,2.8c-4.8,3.7-9.4,7.8-14.8,10.5
			C372.4,391.3,371.5,391.8,370.7,392.2z"/>
		<path class="st3" d="M391.9,394c-0.3,4.7-0.6,9.5-0.8,14.2c-0.1,1.7-0.9,2.8-2.3,3.6c-3.3,1.8-6.8,2.2-10.5,1.9
			c-2.5-0.2-2.5-0.2-4.9,0.9c2.6,2.5,5.9,1.4,9,1.9c-0.8,1.5-1.4,3.1-2.5,4.3c-0.7,0.8-2.2,1-3.4,1.3c-2.5,0.5-5,0.9-7.6,1.4
			c0,0.2,0,0.3,0,0.5c1.3,0.4,2.5,0.8,3.8,1.3c-1.9,2.6-4.7,3.1-7.6,3.1c-1.4,0-2.8,0.2-4.3,0.4c-0.6,0.1-1.1,0.1-1.7,0.1
			c-5.8,0-11.6,0-17.4,0c-1.5,0-2.7-0.5-3.8-1.5c-0.8-0.7-1.5-1.6-2.4-2.2c-0.9-0.6-1.9-1-3-1.6c0.4,1.1,0.7,2.1,1,3
			c-4.9,1.1-9.8,2.2-14.8,3.4c-8,1.9-16,3.8-24,5.6c-8.1,1.7-16.2,3.1-24.3,4.9c-7.1,1.6-14.1,3.7-21.3,5.3c-4.2,1-8.5,1.7-12.9,2.1
			c-4.7,0.4-8.8-1.4-12.1-4.8c-4.7-4.9-8.7-10.4-11.8-16.4c-0.9-1.7-1.2-3.6-1-5.5c0.6-5.4,1.2-10.8,1.8-16.2
			c1.1-10.2,4.6-19.9,6.7-29.9c0.8-3.5,1.7-7,2.5-10.5c0.1-0.4,0.2-0.8,0.4-1.3c12.1,3,23.8,7.5,36.5,8.6c-0.6,2.2-1.1,4.1-1.7,5.9
			c-2.8,9-5.6,17.9-8.4,26.9c-0.5,1.7-0.7,3.5-1.2,5.2c-0.1,0.4-0.4,0.8-0.8,1.1c-0.6,0.5-1.3,0.8-1.8,1.4c-0.3,0.3-0.4,1.1-0.2,1.4
			c0.2,0.3,0.9,0.5,1.3,0.5c0.6-0.1,1.1-0.4,1.6-0.7c10.9-6.4,22.3-8,34.4-4.4c8.2,2.5,16.5,4.3,25.2,4c12.5-0.4,24-3.8,34.4-10.7
			c5.3-3.5,9.8-7.6,14.3-12c2.5-2.5,5.1-4.8,8.3-6.2c3-1.3,6.2-1.6,9.9-0.9c-0.9,1.3-1.5,2.5-2.4,3.4c-1.6,1.5-3.3,2.8-5.1,4.1
			c-1.7,1.2-3.4,2.4-5.1,3.6c-0.4,0.3-0.9,0.7-1.2,1.2c-0.7,1-0.2,2.1,1,2c1.4,0,3-0.1,4.3-0.7c7-2.9,13.6-6.7,19.4-11.7
			c2.1-1.8,4.3-3.3,6.6-4.8c0.4-0.3,0.9-0.5,1.4-0.7c1-0.3,1.7,0.2,1.8,1.2c0,1.1-0.1,2.2-0.4,3.2c-1.4,4.4-4.5,7.6-8,10.3
			c-2.6,2-5.3,4-7.9,6c-0.8,0.6-1.5,1.2-2.2,1.9c-1.1,1-2.2,2-3.2,3c-0.4,0.4-0.7,1.1-0.6,1.5c0.1,0.4,0.9,0.7,1.4,0.7
			c2,0.1,4.1,0.2,6.1-0.1c2.8-0.4,3.9-1.8,4.2-4.6c0-0.3,0.1-0.7,0-1c-0.5-2.1,0.5-3.2,2.1-4.3C388.8,396.6,390.4,395.2,391.9,394z"
			/>
		<path class="st3" d="M331.7,103.8c4.4,4.5,9.6,7.9,14.7,11.4c4.4,3,9,5.7,13.5,8.7c2.1,1.3,4.1,2.8,6.1,4.2c1,0.7,1.3,1.6,1.2,3
			c-0.9,8.4,0,16.5,2.7,24.6c1.6,4.9,2.2,10,1.6,15.1c-0.6,4.9-1.8,9.6-3.7,14.1c-1.3,3.2-2.7,6.4-4.1,9.6c-2.8,6.4-8,9.7-14.4,11.5
			c-6.4,1.8-13.1,1.7-19.7,1.4c-5.6-0.2-11.2-0.8-16.5-2.7c-7.1-2.5-12.7-7.1-17.2-13c-2.5-3.3-4.5-7-6.8-10.5
			c-0.2-0.3-0.2-0.7-0.5-0.8c-0.5-0.3-1.2-0.7-1.6-0.5c-0.4,0.2-0.7,1.1-0.6,1.5c0.2,0.9,0.7,1.8,1.2,2.6c0.5,0.7,0.3,1.3-0.3,1.6
			c-1,0.4-2,0.9-3,1c-4.4,0.6-8.2-0.8-11.2-3.9c-7-7.1-8.6-15.5-5.8-24.9c1.1-3.8,4.2-5.4,8.1-4.5c1.3,0.3,2.6,0.9,3.8,1.4
			c1.5,0.6,3,0.6,4.5,0.3c3-0.6,5.7-2.1,8.3-3.7c10.2-6.6,19.5-14.2,27.1-23.8c4.9-6.2,8.3-13.3,11.4-20.6
			C330.8,105.9,331.2,104.9,331.7,103.8z M350.8,154.6c0.1-0.1,0.1-0.2,0.2-0.3c2.2,0.3,4.3,0.1,6-1.5c3.7-3.5,5.6-7.8,5.1-12.9
			c-0.2-2.2-1.1-4.2-3.5-5c-2.2-0.8-4.1,0-5.6,1.5c-1.6,1.7-3.2,3.5-4.4,5.5c-2.6,4.7-2.8,9.6,0.2,14.2c1.4,2.2,3.3,4.1,5,6.1
			c1.8,2.1,1.5,5.1-0.8,6.7c-1.5,1.1-3.2,1.8-5.1,1.8c-0.8,0-1.4,0.4-1.4,1.3c0,0.8,0.6,1.2,1.3,1.3c0.5,0,1,0.1,1.4-0.1
			c1.6-0.6,3.2-1.1,4.8-1.8c3.9-1.9,4.9-8.3,1.5-11.1c-0.5-0.4-1-0.9-1.4-1.5C353,157.4,351.9,156,350.8,154.6z M318.6,163.5
			c3.2,0,4.8-0.5,6.7-1.5c3.5-2,5.9-4.9,7.9-8.3c0.2-0.3,0.3-0.7,0.3-1c0.2-3.6-1.1-6.5-3.8-8.7c-1.3-1.1-2.9-1.4-4.6-1.2
			c-6.3,0.7-12.9,6.8-14,13.1c-0.4,2,0.1,3.8,1.8,5.2C314.8,162.7,317,163.5,318.6,163.5z M283.1,167.9c-1.1,0.5-2.2,0.8-3.2,1.4
			c-1,0.6-1.9,1.3-2.7,2.1c-1.9,2-2.2,4.5-0.7,6.8c1.2,1.9,2.9,3.2,5,4.1c0.3,0.1,0.6,0.3,0.8,0.2c0.5-0.2,1.2-0.4,1.4-0.8
			c0.1-0.4-0.3-1-0.6-1.5c-0.2-0.2-0.6-0.2-0.8-0.4c-1.1-0.8-2.3-1.6-3.3-2.6c-1.2-1.4-1.1-2.9,0.3-4.1c0.9-0.8,2.1-1.5,3.2-2
			c0.8-0.4,1.8-0.5,2.6-0.7c1.1-0.3,1.3-1,0.6-1.9c-0.2-0.3-0.4-0.7-0.5-1.1c-0.2-0.7-0.2-1.5-0.6-2.1c-1.8-3.3-4.4-5.9-7.6-7.8
			c-1.1-0.7-2.3-0.6-3.4,0.1c-3.3,2-5.2,7.8-3.8,11.3c0.2,0.5,1,1.1,1.5,1.1c0.8,0,1-0.8,0.9-1.5c0-0.4-0.1-0.8-0.2-1.2
			c-0.4-2.8,0.5-5.1,2.4-7.1c0.5-0.5,1.1-0.6,1.7-0.2C279.1,162,281.5,164.5,283.1,167.9z M335.5,190c0,0,0-0.1,0-0.1
			c0.5,0,1,0,1.4,0c7.8-0.8,14.8-3.7,21.1-8.1c0.9-0.7,1.5-2,2-3.2c0.2-0.4-0.2-1.2-0.6-1.4c-0.4-0.2-1.1,0-1.6,0.3
			c-0.4,0.3-0.5,0.9-0.8,1.3c-0.2,0.4-0.4,0.9-0.8,1.1c-5.8,3.8-12.1,6.5-19.1,7.3c-1.1,0.1-2.3,0.1-3.4-0.2c-1-0.3-1.9-0.3-2.2,0.5
			c-0.4,0.9,0.1,1.9,1.1,2.1C333.6,189.8,334.6,189.9,335.5,190z M331.6,138.3c-0.2-0.3-0.3-0.9-0.7-1.2c-0.9-0.8-1.8-1.6-2.9-2.1
			c-3.6-1.6-7.1-1-10.4,1c-4.1,2.4-6.9,6.1-9.3,10.1c-0.1,0.2-0.2,0.4-0.2,0.5c0.1,0.5,0.1,1.2,0.4,1.3c0.4,0.2,1.1,0.1,1.5-0.1
			c0.4-0.2,0.6-0.6,0.8-1c1.3-1.7,2.4-3.5,3.8-5.1c1.8-2,3.9-3.7,6.5-4.6c3-1,5.7-0.7,8,1.7c0.3,0.3,0.6,0.5,1,0.7
			C330.9,140,331.6,139.4,331.6,138.3z M358.1,123.9c-1.8,0.1-2.9,0.9-3.9,1.8c-2.7,2.6-4.8,5.6-6.5,8.8c-0.4,0.7-0.6,1.4-0.8,2.1
			c-0.2,0.8,0.1,1.5,1,1.6c0.9,0.2,1.3-0.4,1.6-1.2c1.5-3.8,4-6.9,6.8-9.7c1.3-1.2,1.9-1.1,2.7,0.5c0.3,0.6,0.6,1.3,1,1.9
			c0.3,0.4,1,0.6,1.4,0.8c0.2-0.6,0.7-1.2,0.6-1.6c-0.6-1.4-1.3-2.8-2.2-4C359.4,124.3,358.5,124.1,358.1,123.9z"/>
		<path class="st3" d="M373.9,243.8c-0.6,1.8-1.1,3.4-1.6,5.1c-2.3,7.3-4.5,14.6-6.8,22c-0.2,0.8-0.7,1.2-1.5,1.5
			c-13.8,4.5-28,5.8-42.5,5c-2.7-0.2-5.5-0.5-8.2-0.9c-0.8-0.1-1.7-0.6-2.3-1.1c-7.1-6.9-14.1-13.9-21.1-20.8
			c-1.3-1.3-2.7-2.4-4-3.6c-0.7-0.6-1.4-1.2-2.1-1.8c1.7-2,3.2-3.6,4.5-5.4c1.2-1.5,2.4-3,3.3-4.7c0.9-1.7,1.4-3.7,2.2-5.5
			c4.2-10.3,4.8-20.9,3-31.7c-0.4-2.2-0.8-4.3-1.2-6.5c0.1-0.1,0.2-0.2,0.3-0.3c0.2,0.3,0.3,0.7,0.5,0.9c7.6,8.3,17,12.9,28.2,13.5
			c5.4,0.3,10.9,0.2,16.3,0.3c0.3,0,0.5,0,1,0c0.2,3.1,0.3,6.1,0.8,9c0.6,4.2,1.3,8.4,2.2,12.5c1.2,5.2,4.8,8.3,9.7,9.6
			c3.8,1,7.8,1.4,11.7,2C368.6,243.3,371.1,243.5,373.9,243.8z"/>
		<path class="st4" d="M266.5,819.1c1.7,1.4,3.3,3,5.1,4c5.1,2.7,10.5,4.4,16.4,4.5c4.8,0.1,8.7-1.9,12.4-4.8c2.8-2.1,5.6-4.2,8.7-6
			c1.5-0.9,3.5-1.2,5.2-1.4c1.6-0.2,3,0.3,4.3,1.7c5.9,6.6,13.5,10,22.2,11.3c2.3,0.4,4.6,0.8,6.9,1.3c3.1,0.7,5.8,2.2,7.9,4.6
			c3.2,3.7,5.7,7.9,6.8,12.7c0.8,3.2-0.2,6-2.3,8.4c-2.6,3-5.9,4.5-9.7,5c-6.5,1-12.9,0.3-19.1-1.8c-9.1-3.1-18.4-5.4-27.8-7.1
			c-4.9-0.9-10-1.2-15-1.9c-3.5-0.5-6.9-1.1-10.3-1.9c-1.5-0.4-2.9-1.4-4-2.5c-3.3-3.1-5.7-6.9-6.9-11.4c-1.3-4.8-1.4-9.6-0.8-14.5
			C266.4,819.4,266.4,819.2,266.5,819.1z"/>
		<path class="st4" d="M311.3,801.1c1.8-0.8,3.5-1.6,5.2-2.3c0.4-0.2,1.1-0.1,1.6,0.1c4.8,1.3,9.5,2.4,14.5,2.3
			c4.2,0,7.5-1.7,9.9-5.1c1.4-1.9,2.6-4,4.3-5.8c1.3-1.4,3.1-2.4,4.7-3.4c1-0.6,2-0.5,2.9,0.6c2.1,2.6,4.6,4.7,7.3,6.5
			c5.1,3.3,10.8,4.3,16.8,4.6c2.6,0.1,5.1,0.1,7.7,0.2c5,0.1,8.4,2.9,11.2,6.7c6.7,9.2,0.2,21.2-9.8,22.8
			c-5.1,0.9-10.2,0.9-15.3,0.6c-11.9-0.6-23.6-3.1-35.3-5.3c-1.4-0.3-2.9-0.6-4.4-0.7c-3.4-0.3-6-2-8.5-4
			c-5.3-4.2-8.8-9.8-11.8-15.7c-0.3-0.6-0.6-1.1-0.9-1.7C311.3,801.4,311.3,801.3,311.3,801.1z"/>
		<path class="st5" d="M363.9,275.1c-3.7,11.5-7.4,22.9-11.1,34.4c-13.9-8.3-26.3-18.2-37.5-30c8.3,0.8,16.4,0.9,24.5,0.2
			C347.9,279,355.9,277.4,363.9,275.1z"/>
		<path class="st3" d="M307.9,802.4c3.2,2.8,4.2,7,6.8,10.2c-1.6,0.3-3.2,0.4-4.5,1c-2.5,1.2-5,2.5-7.3,4c-1.6,1-2.9,2.2-4.3,3.4
			c-3.9,3.3-8.4,4.7-13.5,3.9c-4.5-0.7-8.9-2-12.8-4.3c-1.9-1.1-3.2-2.8-4.4-4.8c-1.2-2,0.1-3.6,0-5.3c0-0.5,0.2-1,0.3-1.5
			c0.5-2.4,0.5-2.3,3-2.4c6-0.2,12.1-0.1,18.1-0.5C297.6,805.3,298.9,805.6,307.9,802.4z"/>
		<path class="st3" d="M351.5,784c-4.4,1.7-7.5,4.7-9.9,8.6c-1.3,2.1-2.7,4.3-5.2,5.1c-1.3,0.5-2.8,0.7-4.2,0.8
			c-4.1,0.2-8.1-0.9-12.3-1.8c0.3-0.3,0.5-0.5,0.8-0.6c0.6-0.5,0.7-1,0.1-1.7c-2.5-2.8-3.7-6.2-4.2-9.9c0.1,0,0.3-0.1,0.4-0.1
			c10.8,2,21.6,1.5,32.3-0.9C350.9,783.2,351,783.2,351.5,784z"/>
		<path class="st3" d="M451.7,364.9c-0.2,0.6-0.4,1.1-0.5,1.6c-0.7,2-1.4,4.1-2.1,6.1c-0.2,0.6-0.5,0.9-1.1,0.7
			c-2.7-1-5.4-1.9-8.1-3c-0.9-0.3-1.2-1.1-0.9-2c0.7-1.7,1.4-3.5,2.1-5.2c0.1-0.2,0.4-0.6,0.6-0.6c1.2,0.1,2.7,0,3.7,0.6
			c1.8,1.1,3.6,1.7,5.6,1.6C451.2,364.9,451.4,364.9,451.7,364.9z"/>
		<path class="st3" d="M448.3,348.2c1.9,1.4,3.6,2.6,5.3,3.9c0.7,0.5,0.9,1.3,0.7,2.1c-0.7,2.5-1.4,5-2.1,7.5
			c-0.1,0.2-0.4,0.5-0.5,0.5c-1.1-0.1-2.2-0.1-3.3-0.4c-1.2-0.3-1.8-1.2-1.9-2.4C446.4,355.7,447.3,352.1,448.3,348.2z"/>
		<path class="st3" d="M439.8,373.4c2.8,0.9,5.3,1.8,8,2.7c-0.8,2.1-1.6,4.4-2.6,6.5c-0.2,0.4-1.4,0.7-2,0.5
			c-1.8-0.7-3.6-1.6-5.3-2.5c-1.2-0.6-1.3-1.7-0.7-2.8C438.1,376.4,439,374.9,439.8,373.4z"/>
		<path class="st3" d="M437,383.6c2.5,1,4.6,1.8,6.7,2.6c-1.1,2.3-3.2,3-5.5,3.3c-0.8,0.1-1.7,0.1-2.5,0.1c-1.4,0-2.3-1.2-1.6-2.4
			C434.9,385.8,436.1,384.7,437,383.6z"/>
		<path class="st2" d="M382.3,401.5c0.2,2.7-0.3,3.3-2.6,3.7c-0.7,0.1-1.4,0.3-2.3,0.6C378.5,403.5,380.7,402.9,382.3,401.5z"/>
		<path d="M301.3,666.6c-9.5-3.5-18.5-8.1-27.1-13.4c2.5,7.8,4.9,15.7,7.4,23.5c0,0-0.1,0-0.1,0c-0.1-0.3-0.2-0.6-0.4-0.9
			c-2.4-5.5-4.9-10.9-7.2-16.4c-1.1-2.7-2.1-5.4-3.1-8.2c-0.3-0.8-0.3-1.6,0.5-2.1c0.9-0.5,1.3,0.2,1.9,0.7c2.6,2,5.1,4.1,7.8,5.7
			c5,3,10.2,5.7,15.3,8.5c0.1-0.1,0.1-0.2,0.2-0.3c-0.4-0.3-0.7-0.5-1.1-0.8c-9-6.2-16.1-14.1-21.2-23.8c-1-1.8-1.6-3.8-2.3-5.8
			c-0.2-0.5-0.1-1.2,0-1.8C279.8,645.1,289,657.1,301.3,666.6z"/>
		<path d="M319.8,668.9c2.3-5.2,4.7-10.4,7-15.6C325.8,659.1,322.8,664,319.8,668.9z"/>
		<path d="M321.2,324.4c3.3,0,6.5,0,9.7,0c2.5,0,2.4,0.1,2.7,2.5c0.4,3,0.9,6.1,1.4,9.1c0,0.2,0.1,0.4,0.1,0.6
			c0.4,2.6,0,3.2-2.5,3.4c-4.5,0.3-9,0.5-13.5,0.7c-5.3,0.2-10.6,0.4-15.9,0.6c-0.5,0-1,0-1.6,0c-1.8-0.1-2.7-0.7-2.9-2.4
			c-0.4-3.9-0.6-7.9-0.8-11.8c-0.1-1.5,1-2,2.3-1.6c0.3,0.1,0.5,0.1,0.8,0.1c2.5-0.2,5-0.4,7.5-0.7c0.3,0,0.6-0.1,0.8-0.1
			c0-0.9,0-1.7,0-2.6c0.1-1.4,0.8-2.4,2.2-2.6c1.8-0.2,3.7-0.2,5.5-0.3c0.1,0,0.2,0,0.4,0c3.9,0,4.3,0.4,3.8,4.4
			C321.3,323.9,321.3,324.1,321.2,324.4z M332.6,337.5c0.1-0.3,0.1-0.4,0.1-0.5c-0.5-3.2-1-6.3-1.6-9.4c0-0.3-0.7-0.6-1-0.6
			c-3.6,0-7.2,0-10.8,0c-6,0-11.9,0.4-17.8,1.4c-0.7,0.1-0.9,0.4-0.9,1.1c0.1,2.2,0.3,4.5,0.4,6.7c0.2,2.6,0.2,2.7,2.8,2.6
			c7.4-0.2,14.9-0.5,22.3-0.7C328.2,338,330.3,337.7,332.6,337.5z"/>
		<path d="M360,350.9c0.9,1.5,0.6,2.7,0.1,3.9c-1.3,3.3-3.5,6-5.9,8.6c-5.4,5.9-11.8,10.3-19.5,12.8c-5,1.6-10.1,1.7-15.2,1
			c-2.6-0.3-5.2-0.8-7.8-1.4c-1.4-0.3-2.7-0.6-4-1.1c-1.3-0.5-2.5-1.2-3.8-1.9c3.4-0.4,6.6,0.1,9.9,0.7c3.9,0.7,7.8,1.2,11.7,1.4
			c5.5,0.3,10.5-1.6,15.3-4.2c6.5-3.6,11.7-8.5,15.7-14.6c0.3-0.5,0.6-1.1,0.9-1.7C358.3,353.3,359.1,352.2,360,350.9z"/>
		<path d="M366.6,659.7c-3.1,2.3-6.2,4.6-9.2,6.9c-0.1-0.1-0.1-0.2-0.2-0.3c3-2.4,6.2-4.5,9.1-7.1
			C366.3,659.4,366.5,659.6,366.6,659.7z"/>
		<path d="M350.8,154.6c1.1,1.4,2.2,2.8,3.4,4.2c0.4,0.5,0.9,1,1.4,1.5c3.4,2.8,2.4,9.3-1.5,11.1c-1.5,0.7-3.2,1.3-4.8,1.8
			c-0.4,0.2-1,0.1-1.4,0.1c-0.7-0.1-1.3-0.5-1.3-1.3c0-0.9,0.6-1.3,1.4-1.3c1.9,0,3.6-0.8,5.1-1.8c2.3-1.6,2.6-4.6,0.8-6.7
			c-1.7-2-3.6-3.9-5-6.1c-3-4.6-2.8-9.5-0.2-14.2c1.1-2,2.8-3.8,4.4-5.5c1.5-1.6,3.4-2.3,5.6-1.5c2.4,0.8,3.3,2.8,3.5,5
			c0.4,5.1-1.4,9.4-5.1,12.9c-1.7,1.6-3.8,1.8-6,1.5C350.9,154.4,350.9,154.5,350.8,154.6z M354.4,151.6c0.8-0.7,1.4-1.1,1.8-1.6
			c1.8-2.1,3-4.6,3.3-7.4c0.1-1.3-0.1-2.6-0.4-3.8c-0.4-1.5-1.9-1.9-3.2-1.1c-1,0.7-1.9,1.6-2.8,2.3
			C356.5,143.5,355.3,147.4,354.4,151.6z M352.4,141c-2.5,2.7-3.3,5.8-2.9,9.2c0,0.4,0.8,0.9,1.4,1.1c0.2,0.1,0.9-0.3,1-0.7
			c0.4-1.1,0.8-2.2,1-3.3C353.3,145.3,353.5,143.2,352.4,141z"/>
		<path d="M318.6,163.5c-1.6,0-3.8-0.8-5.8-2.5c-1.6-1.4-2.1-3.2-1.8-5.2c1.1-6.3,7.7-12.4,14-13.1c1.7-0.2,3.3,0.1,4.6,1.2
			c2.7,2.2,4,5.2,3.8,8.7c0,0.3-0.2,0.7-0.3,1c-2,3.4-4.4,6.4-7.9,8.3C323.4,163.1,321.8,163.5,318.6,163.5z M321.3,160.7
			c0.1,0,0.3,0,0.4,0c4.3-1.2,6.9-4.3,9.1-7.9c0.1-0.1,0.1-0.3,0.1-0.5c0.4-2.6-0.7-4.6-2.5-6.2c-0.6-0.5-1.6-0.9-2.4-0.8
			c-1.6,0.2-3.1,0.7-4.9,1.2C324.8,149.6,325.6,156,321.3,160.7z M319.5,147.8c-2.5,1.8-4.3,4.2-5.4,7.1c-1,2.7-0.6,4.1,2.7,5.5
			c0.4,0.2,1.1,0,1.5-0.3C322.2,157.1,322.7,151.8,319.5,147.8z"/>
		<path d="M283.1,167.9c-1.5-3.3-4-5.9-7-8c-0.6-0.5-1.2-0.3-1.7,0.2c-2,2-2.8,4.3-2.4,7.1c0.1,0.4,0.1,0.8,0.2,1.2
			c0.1,0.7-0.2,1.5-0.9,1.5c-0.5,0-1.3-0.6-1.5-1.1c-1.5-3.5,0.5-9.3,3.8-11.3c1.1-0.7,2.3-0.8,3.4-0.1c3.2,2,5.8,4.5,7.6,7.8
			c0.3,0.6,0.4,1.4,0.6,2.1c0.1,0.4,0.2,0.8,0.5,1.1c0.7,0.9,0.5,1.5-0.6,1.9c-0.9,0.3-1.8,0.3-2.6,0.7c-1.1,0.5-2.3,1.2-3.2,2
			c-1.4,1.2-1.5,2.8-0.3,4.1c0.9,1,2.1,1.7,3.3,2.6c0.2,0.2,0.7,0.2,0.8,0.4c0.3,0.4,0.8,1.1,0.6,1.5c-0.1,0.4-0.9,0.6-1.4,0.8
			c-0.2,0.1-0.5-0.1-0.8-0.2c-2.1-0.8-3.8-2.2-5-4.1c-1.5-2.3-1.2-4.8,0.7-6.8c0.8-0.8,1.8-1.5,2.7-2.1
			C280.8,168.7,282,168.3,283.1,167.9z"/>
		<path d="M335.5,190c-0.9-0.1-1.8-0.2-2.7-0.4c-1-0.2-1.5-1.3-1.1-2.1c0.3-0.8,1.2-0.8,2.2-0.5c1.1,0.3,2.3,0.4,3.4,0.2
			c7-0.8,13.2-3.4,19.1-7.3c0.4-0.2,0.5-0.7,0.8-1.1c0.3-0.4,0.4-1,0.8-1.3c0.4-0.3,1.2-0.5,1.6-0.3c0.4,0.2,0.8,1.1,0.6,1.4
			c-0.5,1.1-1,2.5-2,3.2c-6.4,4.4-13.4,7.2-21.1,8.1c-0.5,0.1-1,0-1.4,0C335.5,189.9,335.5,189.9,335.5,190z"/>
		<path d="M331.6,138.3c0,1.1-0.7,1.7-1.5,1.3c-0.4-0.1-0.7-0.4-1-0.7c-2.3-2.4-5.1-2.7-8-1.7c-2.6,0.9-4.7,2.6-6.5,4.6
			c-1.4,1.6-2.6,3.4-3.8,5.1c-0.3,0.3-0.5,0.8-0.8,1c-0.4,0.2-1.1,0.3-1.5,0.1c-0.3-0.2-0.3-0.9-0.4-1.3c0-0.2,0.1-0.4,0.2-0.5
			c2.4-4,5.2-7.7,9.3-10.1c3.3-2,6.8-2.6,10.4-1c1.1,0.5,2,1.3,2.9,2.1C331.3,137.4,331.4,138,331.6,138.3z"/>
		<path d="M358.1,123.9c0.4,0.2,1.4,0.4,1.8,1c0.9,1.2,1.6,2.6,2.2,4c0.2,0.4-0.4,1.1-0.6,1.6c-0.5-0.3-1.1-0.4-1.4-0.8
			c-0.5-0.5-0.7-1.2-1-1.9c-0.9-1.6-1.5-1.8-2.7-0.5c-2.9,2.8-5.3,6-6.8,9.7c-0.3,0.7-0.7,1.3-1.6,1.2c-0.9-0.2-1.2-0.8-1-1.6
			c0.2-0.7,0.5-1.4,0.8-2.1c1.7-3.3,3.9-6.2,6.5-8.8C355.1,124.7,356.2,124,358.1,123.9z"/>
		<path class="st5" d="M332.6,337.5c-2.2,0.2-4.4,0.5-6.6,0.5c-7.4,0.3-14.8,0.5-22.3,0.7c-2.6,0.1-2.6,0-2.8-2.6
			c-0.1-2.2-0.3-4.5-0.4-6.7c0-0.7,0.2-1,0.9-1.1c5.9-1,11.9-1.4,17.8-1.4c3.6,0,7.2,0,10.8,0c0.4,0,1,0.3,1,0.6
			c0.6,3.1,1.1,6.3,1.6,9.4C332.6,337.1,332.6,337.2,332.6,337.5z"/>
		<path class="st5" d="M354.4,151.6c0.9-4.2,2.1-8.1-1.3-11.7c0.9-0.8,1.8-1.7,2.8-2.3c1.3-0.8,2.7-0.4,3.2,1.1
			c0.4,1.2,0.6,2.6,0.4,3.8c-0.3,2.8-1.5,5.3-3.3,7.4C355.7,150.5,355.1,150.9,354.4,151.6z"/>
		<path class="st6" d="M352.4,141c1.1,2.2,0.8,4.3,0.5,6.4c-0.2,1.1-0.6,2.2-1,3.3c-0.1,0.3-0.8,0.8-1,0.7c-0.5-0.2-1.3-0.7-1.4-1.1
			C349.1,146.8,350,143.7,352.4,141z"/>
		<path class="st5" d="M321.3,160.7c4.3-4.7,3.5-11.1-0.3-14.2c1.8-0.5,3.3-1,4.9-1.2c0.8-0.1,1.8,0.3,2.4,0.8
			c1.8,1.6,2.9,3.6,2.5,6.2c0,0.2,0,0.3-0.1,0.5c-2.2,3.6-4.8,6.7-9.1,7.9C321.5,160.7,321.4,160.7,321.3,160.7z"/>
		<path class="st6" d="M319.5,147.8c3.3,4,2.7,9.3-1.2,12.4c-0.4,0.3-1.1,0.4-1.5,0.3c-3.3-1.4-3.7-2.8-2.7-5.5
			C315.2,152,317,149.6,319.5,147.8z"/>
	</g>
</g>
</svg>
