<?xml version="1.0" encoding="utf-8"?>
<!-- Generator: Adobe Illustrator 22.1.0, SVG Export Plug-In . SVG Version: 6.00 Build 0)  -->
<svg version="1.1" xmlns="http://www.w3.org/2000/svg" xmlns:xlink="http://www.w3.org/1999/xlink" x="0px" y="0px"
	 viewBox="0 0 662.4 921.6" style="enable-background:new 0 0 662.4 921.6;" xml:space="preserve">
<style type="text/css">
	.st0{fill:#4C7072;}
	.st1{fill:#273C27;}
	.st2{fill:#EDD0BC;}
	.st3{fill:#811F0F;}
	.st4{fill:#EA4436;}
	.st5{fill:#5A3624;}
	.st6{fill:#242424;}
	.st7{fill:#DE8C23;}
	.st8{fill:#FFFFFF;}
	.st9{fill:#8A654D;}
	.st10{fill:#57090C;}
</style>
<g id="Слой2_xA0_Изображение_1_">
</g>
<g id="Слой5_xA0_Изображение_1_">
</g>
<g id="Слой4_xA0_Изображение_1_">
	<g>
		<g>
			<path d="M170.1,224.4c0.3-0.8,0.7-1.6,0.9-2.4c3.7-15.1,19.4-20.5,29.6-17.4c3.5,1.1,6.7,2.8,9.2,5.4c7.8,7.9,10.7,17.3,7.8,28.1
				c-0.5,2.1-1.7,4-2.6,6.1c1.6,2.5,3.3,5.2,4.9,8c0.5,0.8,1.2,0.9,2,1c4.1,0.4,8.1,0.9,12.2,1.3c2.5,0.3,4.3,1.5,5.4,3.8
				c0.9,1.8,1.8,3.6,2.7,5.5c0.3-0.4,0.5-0.6,0.6-0.8c3.2-8,6.4-16,9.5-24.1c2-5.1,3.9-10.3,4.7-15.8c0.1-0.6,0.2-1.3,0.2-1.9
				c0-1.3,0.4-2.3,1.7-2.9c0.9-0.4,1.3-1.1,1.2-2.1c-0.8-6.2,3.1-9,7.9-11.1c2.3-1,4.7-1.6,7-2.3c2.3-0.7,4.6-1.2,7-1.7
				c2.3-0.6,2.4-0.6,2.3-3.1c-0.1-2.8-0.2-5.6-0.5-8.4c-0.2-2.6,0.1-3.4,2.7-3.8c4.9-0.8,9.8-1.5,14.7-2.3c4-0.6,8.1-1.3,12.1-2
				c0.8-0.1,1.5-0.4,2.4-0.6c0-0.6,0.1-1,0.1-1.5c0.2-2.4-0.2-4.2-3.1-5c-2.3-0.6-3.9-2.4-5.2-4.4c-2.7-4.2-5.5-8.3-7.8-12.7
				c-3.4-6.4-6.3-13.1-9.4-19.7c-2.6-5.4-3.6-11.2-3.8-17.2c-0.2-5.7-0.6-11.5-0.9-17.2c-0.1-1.8-0.5-3.5-1.5-5
				c-0.7-1.1-0.8-2.4-0.6-3.7c0.8-5.2,1.6-10.4,2.3-15.6c0.5-3.2,0.9-6.5,1.3-9.9c-0.4-0.2-0.9-0.5-1.4-0.7
				c-5.8-2.6-10.9-6.2-14.3-11.6c-2.3-3.5-4.2-7.3-6.3-11c-0.4-0.8-0.8-1.6,0-2.4c0.7-0.7,1.6-0.5,2.5-0.3c2.1,0.5,4.2,1,6.3,1.4
				c1,0.2,1.8-0.2,2.3-1.2c0.6-1.1,1.5-2.1,2.4-2.9c4.8-4.3,9.9-8.1,15.7-11c7.8-4.1,16.3-5.2,24.9-4.3c4.7,0.5,9.3,1.6,13.9,2.4
				c0.3,0.1,0.6,0.1,1.1,0.1c-0.2-2.6-0.6-5.2,2.3-6.5c0.2,0,0.3,0,0.5,0c5.2,2.8,10.5,5.7,15.9,8.6c0.1-0.7,0.1-1.3,0.2-1.9
				c0.5-4.1,3.8-6.3,7.6-4.7c7.6,3.3,13,8.7,15.2,16.8c0.7,2.6,0.9,5.3,1.4,8.3c0.5,0.2,1.3,0.6,2.1,0.9c5.6,2.1,8.4,6.3,9.5,12
				c0.9,4.6,0.6,9.2-0.2,13.8c-0.9,5-1.9,10.1-2.9,15.1c-0.2,1-0.1,1.7,0.5,2.4c3.3,4,4.2,8.7,3.7,13.8c-0.2,2.1-0.4,4.1-0.8,6.2
				c-1.4,6.9-5.3,12.2-10.7,16.6c-1.2,1-1.6,1.9-1.4,3.4c1.3,7.8-1.7,14.1-7.5,19.2c-1.3,1.2-2.8,1.7-4.8,1.4
				c-1.1,8-1.6,15.9-1.9,23.9c0.9,0.4,1.5,0.7,2.2,0.9c8.5,2.9,16.1,7.4,23.6,12.1c2.7,1.7,5.5,3.2,8.3,4.8c1.4,0.8,1.7,1.3,1,2.9
				c-0.2,0.4-0.4,0.8-0.7,1.4c0.7,0.2,1.3,0.4,1.9,0.6c7.7,1.8,14.8,5,21.5,9.2c1.9,1.1,2.8,2.6,2.6,4.7c-0.3,2.4-0.5,4.8-1,7.1
				c-0.3,1.3-0.2,2.5,0.3,3.7c7.6,17.5,15.4,35,25.2,51.4c3.1,5.1,6.4,10.2,9.9,15c4,5.4,9.1,9.6,15.2,12.6c2.3,1.1,2.9,2.2,2.2,4.6
				c-0.5,1.9-1.3,3.8-1.9,5.7c-0.5,1.6-0.5,1.8,1,2.7c0.7,0.5,1.6,0.8,2.3,1.3c1.7,1,3.4,1.9,4.9,3c2.1,1.5,2.1,2.8,0.4,4.5
				c-1.2,1.2-2.5,2.2-3.9,3.5c0.1,0.4,0.3,0.8,0.5,1.2c4.1,7.5,7.3,15.3,9.8,23.4c0.8,2.4,1.7,4.8,2.6,7.2c1.6,4.3,1.5,8.8,0.9,13.3
				c-0.4,3.2-2.1,5.5-4.8,7.1c-5.3,3.2-10.4,6.7-15.9,9.4c-17.3,8.3-33.9,17.9-50.6,27.5c-1.7,1-3.5,2-5.2,2.9
				c-1.7,0.9-3.3,1.8-4.6,3.3c-1.9,2.1-4.3,2.3-7,1.1c-2.1-0.9-4.2-1.6-6.3-2.4c-0.4-0.1-0.8-0.1-1.5-0.1c0.1,1.7,0.2,3.3,0.4,4.8
				c0.6,3.5,1.4,6.9,1.8,10.4c0.3,2.9,0.2,5.9,0.2,8.9c0,0.5-0.1,1.2-0.4,1.6c-1.2,1.3-0.9,2.8-0.8,4.3c0.6,7.2,1.2,14.3,1.8,21.5
				c0.7,8.1,1.4,16.3,2,24.4c0.5,7.2,0.8,14.4,1.3,21.6c0.6,8.5,1.2,17.1,1.8,25.6c0.5,7,1.1,14,1.6,21c0.7,9.6,1.4,19.1,2.1,28.7
				c0.6,7.8,1.1,15.6,1.7,23.4c0.6,6.9,1.3,13.9,2.1,20.8c0.9,7.8,2,15.5,3.1,23.3c1.1,7.5,2.5,15,3.6,22.5c1,6.7,1.8,13.5,2.7,20.2
				c0.9,6.7,1.6,13.3,2.5,20c1,7.8,2,15.5,3.2,23.3c1.5,9.9,4.4,19.5,7,29.1c0.8,2.8,1.2,5.6,1.8,8.4c0.7,3.6,0.2,7.2-0.8,10.7
				c-1.1,3.8-0.7,7.3,1.5,10.6c1.4,2.2,2.2,4.5,1.6,7.3c-0.5,2.2,0.3,4.3,1.6,6.1c1.2,1.8,2.6,3.5,3.9,5.2c0.8,1.1,1.6,2.2,2.4,3.3
				c0.9,1.4,1.2,3.1,0.5,4.6c-2.1,4.5-2.1,9.3-3.1,14c-0.3,1.6-0.5,3.3-0.6,5c-0.2,2.2-0.4,2.4-2.9,2.8c0.3,0.6,0.5,1.1,0.9,1.6
				c5,7.9,9,16.2,12.5,24.8c1.1,2.8,1.9,5.8,1.7,8.9c-0.3,4.3-1.8,6.1-6.1,6.6c-3.7,0.5-7.5,0.6-11.2,0.9c-8.7,0.7-17.4,1.3-26.1,2
				c-0.5,0-0.9,0.2-1.4,0.3c-4,0-8,0-12,0c-3.3-1.2-6.7-2.3-9.8-3.8c-2.2-1.1-4.1-2.8-6-4.3c-2.3-1.9-2.8-4.5-1.6-7.2
				c1-2.3,2.2-4.6,3.7-6.7c4.2-5.8,7.3-12,9.6-18.7c0.4-1.1,0.8-2.2,1.3-3.5c-1.3-0.5-1.7-1.5-1.8-2.8c-0.2-1.2-0.9-2.4-1.6-3.4
				c-1.2-1.8-2.6-3.5-3.8-5.2c-1.2-1.7-1.6-3.7-0.7-5.7c0.7-1.8,1.4-3.6,2.2-5.3c0.8-1.7,1.1-3.3,0.8-5.3c-1-5.6-1.6-11.2-2.4-16.9
				c-2.9-20.4-7.8-40.3-13.5-60.1c-3.4-11.7-6.9-23.5-9.9-35.3c-2.7-10.8-4.7-21.7-7.1-32.5c-1-4.4-1.5-8.8-1.3-13.3
				c0.1-1.5,0.2-3,0.4-4.5c0.3-2,0.2-2.2-1.5-3.3c-1.3-0.8-2.7-1.4-4-2.2c-1-0.6-2-1.3-2.9-2.1c-1.2-1.1-1.6-2.5-1.1-4.1
				c0.2-0.5,0.3-1.1,0.6-1.6c1.6-2.5,1.8-5.3,1.8-8.3c-0.1-10.3-1-20.4-2.2-30.6c-2.4-19.2-6.5-38.1-10.4-57.1
				c-2.4-11.7-4.8-23.5-7.1-35.3c0-0.2-0.2-0.4-0.5-1.1c-0.4,2.4-0.7,4.2-1,6.1c-1.5,11.5-4.1,22.8-6.9,34.1
				c-2.6,10.6-4.9,21.2-7.7,31.7c-1.9,7.3-4.3,14.4-6.5,21.6c-0.5,1.5-0.9,3.1-1.4,4.6c-0.6,1.6-0.4,2.8,1,3.8
				c0.1,0,0.1,0.1,0.2,0.2c3.8,2.9,3.4,6,0.2,9.3c-0.8,0.9-1.6,1.8-2.3,2.8c-0.6,0.8-0.6,1.6,0.4,2.3c1.9,1.2,2.2,3,1.5,5
				c-0.2,0.5-0.3,1.1-0.4,1.6c-0.6,5.7-1.2,11.4-1.7,17.2c-0.8,10-1.8,19.9-2.1,29.9c-0.4,17.4-0.4,34.7,0.6,52.1
				c0.6,10.4,1.5,20.7,2.2,31.1c1,14.8,1.9,29.7,2,44.6c0,3.5,0.3,7,0.6,10.5c0.4,4.1-0.4,5.6-4.2,7.3c-0.5,0.2-0.9,0.5-1.6,0.9
				c0.7,0.8,1.3,1.4,1.8,2.1c2.1,2.4,1.9,4.5-0.5,6.6c-0.5,0.5-1.2,0.8-1.7,1.3c-1.5,1.2-3,2.1-5.3,0.4c0.5,3.4,0.8,6.3,1.3,9.2
				c0.7,4.8,1.5,9.6,2.2,14.5c0.7,4.8-0.4,9-3.6,12.7c-1.9,2.2-4.1,3.4-7.1,3.3c-4.6-0.1-9.3,0.1-13.9,0c-7.6-0.2-15.2,0.5-22.7,1.3
				c-7.9,0.8-15.8,1.5-23.6,2.3c-6.3,0.6-12.6,1.4-18.8,2c-4.4,0.5-8.4-0.4-12.2-2.7c-1.9-1.2-3.4-2.7-4-4.9
				c-0.8-2.6,0.3-5.7,3.4-6.4c5.5-1.3,10.8-3.3,16-5.6c9.7-4.3,19-9.3,27.6-15.4c2.3-1.7,4.7-3.4,6.9-5.2c2.4-2,3.9-4.6,4.9-7.6
				c0.8-2.4,1.3-4.9,1.9-7.4c-0.9-0.8-1.7-1.2-2.9-1c-1.9,0.3-2.9-1-2.1-2.7c0.5-1.1,1.3-2,2.1-2.9c1.4-1.5,2.9-3,4.3-4.5
				c1.7-2,1.6-2.7-0.6-4.2c-0.9-0.6-1.8-1.1-2.6-1.7c-2.1-1.5-2.4-3-1.1-5.2c0.9-1.5,2-2.9,3-4.3c0.5-0.6,1-1.3,1.5-1.9
				c2.1-2.5,3-5.2,2.9-8.6c-0.3-8.8-0.2-17.6-0.6-26.4c-0.4-8.4-1.1-16.8-1.7-25.1c-0.6-7.8-1.2-15.6-2.1-23.4
				c-1.4-12.1-3-24.3-4.6-36.4c-1-7.5-2.2-15-3.5-22.5c-0.7-4.4-1.9-8.8-2.4-13.2c-0.5-3.5-0.5-7-0.5-10.5c0-2-0.5-3.6-2.4-4.6
				c-0.6-0.3-1-0.7-1.5-1.2c-1.5-1.2-2-2.7-1.5-4.7c1.8-7,2.9-14.1,3.7-21.3c0.8-7.5,1.5-15,2.3-22.4c0.7-7,1.3-14,2.1-21
				c1-8.5,2-17,3.1-25.5c1.1-8.5,2.4-16.9,3.7-25.4c1.5-10.6,3.1-21.2,4.4-31.8c0.9-7.5,1.4-15,2.1-22.4c0-0.5,0-1,0.1-1.4
				c0.8-3.4,0.2-6.7-1-9.9c-0.8-2.2-0.3-3.7,1.2-5.4c2.8-2.9,4.6-6.5,6.2-10.4c-0.5-0.4-1-0.7-1.5-1c-1.3-0.7-2.6-1.3-3.8-2.1
				c-1.8-1.1-2-1.9-1.1-3.8c0.4-0.9,0.8-1.7,1.3-2.6c1.2-2.1,1-4.1-0.3-6.1c-0.3-0.5-0.6-0.9-0.9-1.4c-0.8-1.3-1-2.6-0.5-4.1
				c3.3-9.1,5.4-18.6,7.1-28.1c4.1-23.4,5.9-47,4.1-70.7c0-0.2-0.1-0.4-0.2-1.2c-5,7.3-9.8,14.3-14.7,21.5c0.3,0.6,0.8,1.4,1.2,2.2
				c1.2,2.5,1.8,5.1,1.5,7.9c-0.1,0.8-0.2,1.6-0.5,2.3c-1.2,3.4-3.8,4.1-6.4,1.7c-0.3-0.3-0.5-0.7-0.8-1.2c-0.8,1.3-0.7,2.3-0.8,3.3
				c-0.5,3.7-1,7.4-1.5,11.2c-0.1,0.8-0.3,1.6-0.5,2.3c-0.6,2.2-1.4,4.2-4.2,4.1c0.1,0.7,0.1,1.3,0.2,1.8c0.4,2.8-0.2,4.1-3,4.9
				c-3,0.8-6.1,1.2-9.2,1.7c-0.7,0.1-1.4,0.1-2.2,0.1c-2.9,0.1-5.5,0.8-8.2,2.1c-7,3.3-13.8,2-19.8-2.6c-3.3-2.5-4.5-6.4-5-10.3
				c-0.7-4.8-1.2-9.7-1.4-14.5c-0.2-5.2-0.1-10.4,0.1-15.6c0.6-12.4,0-24.8-1.4-37.1c-0.5-4.5-0.5-8.9,0.2-13.4
				c0.4-2.7,1.3-5.3,2.7-7.6c1.3-2.2,2.5-4.5,3.8-6.7c0.7-1.1,0.6-2,0-3.1c-1.4-2.4-2.7-4.9-4-7.4c-1.4-2.7-2.8-5.4-4.2-8.1
				c-2.7-1.3-5.7-2.6-8.4-4.2c-6.6-3.9-11.1-9.5-12.9-17.1c-0.2-0.8-0.5-1.5-0.8-2.2C170.1,228.6,170.1,226.5,170.1,224.4z
				 M243.5,338.6c1.5,1.6,3,3.2,4.7,4.9c1.6-0.8,2.5,0.3,3.3,1.8c0.5,0.9,1.1,1.8,1.7,2.6c0.3,0.4,0.8,0.6,1.5,1.1
				c0.3-1,0.6-1.7,0.7-2.5c0.4-3.2-0.5-6-2.3-8.6c-0.3-0.4-0.6-0.7-0.9-1.1c-0.6-0.8-0.6-1.7,0.3-2.3c2.8-2,4.4-4.8,6.2-7.5
				c3.6-5.3,7.1-10.6,10.8-15.9c0.7-1,0.8-2,0.7-3.2c-0.7-7.5-1.4-15-2.1-22.4c-0.8-8.1-1.7-16.2-2.6-24.3
				c-1.2-11.1-2.3-22.3-3.5-33.4c-0.2-2.3-0.7-4.5-1-6.7c-0.2,0-0.4,0-0.5,0c-0.2,1.4-0.4,2.7-0.7,4.1c-1.3,6-3.5,11.8-5.7,17.5
				c-3.5,9.2-7.1,18.4-10.6,27.5c-0.5,1.3-0.6,2.3,0.3,3.5c0.8,1,1,2.5,1.2,3.8c0.3,2.3,0.4,4.6,2.1,6.4c0.5,0.5,0.6,1.3,0.7,2
				c0.3,1.6,0.5,3.2,0.5,4.8c0,1.6,0.3,2.9,1.3,4.2c1.5,1.9,1.6,4.1,0.7,6.4c-0.3,0.7-0.5,1.4-0.9,2c-0.6,1-0.7,1.9,0,2.9
				c2.1,3.1,2.9,6.7,3.4,10.4c0.4,3.4-0.1,6.6-3,8.8c-0.2,0.2-0.4,0.5-0.6,0.7c5.5,2.5,5.5,2.5,6,3.8c-1.4-0.4-2.7-0.7-4-1.1
				c-2.8-0.8-5.6-1.5-8.4,0c-0.3,0.2-0.8,0.2-1.2,0.3c-2.9,0.5-5.6,0.5-7.7-2c-0.3-0.4-0.9-0.7-1.4-0.7c-3.3-0.1-6.5,0-9.8,0
				c0.3,0.3,0.7,0.4,1,0.5c7,1.5,12.9,5.1,18.1,9.9C242.6,337.2,243,338,243.5,338.6c-0.7-0.5-1.4-0.9-2.1-1.5
				c-6-5.4-12.9-9.2-21-10.2c-0.5-0.1-1,0-1.8,0c0.9,2.6,1.7,4.9,2.4,7.3c0.5,1.6,1.3,2.7,2.7,3.7c4,2.9,8,5.8,11.9,9
				c3.3,2.7,5.3,6.2,5.8,10.4c0.3,2.6,0.8,5.2,1.2,7.8c0.1,1,0.4,1.9,1.9,1.8c0.3-1,0.7-2.1,0.8-3.2c0.7-5.6,1.3-11.3,2.1-16.9
				c0.2-1.7-0.1-3.1-1.2-4.4C245.3,341.2,244.4,339.9,243.5,338.6z M439.7,851.5c0.2-1.3,0.4-2.2,0.6-3.2c1-5,1-10.2,3.2-15
				c0.5-1.1,0.4-2.2-0.4-3.2c-0.6-0.8-1.2-1.7-1.9-2.5c-1.4-1.9-2.9-3.7-4.1-5.6c-1.6-2.3-2.6-4.9-2-7.7c0.5-2.3-0.2-4.1-1.3-5.8
				c-2.4-3.8-2.9-7.9-1.7-12.2c1.1-4,1.3-8,0.5-12.1c-0.5-2.2-1-4.4-1.6-6.5c-1.7-6.4-3.5-12.8-5.1-19.2c-2.1-8.8-3.1-17.8-4.2-26.7
				c-0.8-6.3-1.6-12.7-2.4-19c-1.1-8.4-2-16.8-3.2-25.2c-1.6-11-3.6-21.9-5.1-32.9c-1.4-9.9-2.7-19.8-3.5-29.8
				c-1.3-15.5-2.3-30.9-3.4-46.4c-0.7-9.9-1.6-19.8-2.3-29.7c-0.8-10.4-1.5-20.9-2.2-31.3c-0.4-6.1-0.6-12.3-1.1-18.4
				c-0.7-9.6-1.6-19.3-2.4-28.9c-0.1-1.7-0.4-3.5-0.5-5.2c-0.8,0.9-1.2,1.9-1.6,2.8c-0.8,2.2-2.2,3.2-4.6,2.9
				c-3.7-0.4-7.5-0.5-11.2-1.2c-10-1.8-19.9-3.8-29.9-5.7c-8.9-1.7-17.5-4.3-26.4-5.8c-6.4-1.1-12.8-2.9-19.1-4.4
				c-4.6-1.1-9-2.9-13.1-5.2c-3.5-2-7-4.1-10.6-6.1c-3.1-1.7-6.4-3.3-9.7-5c-0.6,1.1-1,1.9-1.5,2.7c-1.6,2.6-3.2,5.4-5.1,7.8
				c-0.9,1.2-1.2,2.2-0.8,3.6c0.8,2.6,1.5,5.2,1.2,8c-0.8,7.3-1.3,14.6-2.2,21.9c-1.1,9.5-2.3,19-3.6,28.5
				c-1.8,12.8-3.8,25.6-5.5,38.4c-1.2,8.9-2.1,17.8-3,26.7c-1.1,10.7-2.1,21.5-3.2,32.2c-0.8,8.3-1.9,16.5-3.8,24.6
				c-0.7,2.8-0.7,2.9,1.8,4.5c2.3,1.5,3.4,3.5,3.4,6.2c0,1.4,0,2.7,0,4.1c-0.1,3.6,0.4,7.2,1.2,10.7c0.7,3.2,1.3,6.4,1.9,9.6
				c1.6,10,3.2,20,4.6,30.1c1.4,10,2.6,20,3.6,30c1,9.9,1.7,19.8,2.5,29.6c1.3,15.4,1.8,30.8,1.7,46.3c0,2.1-0.5,4-1.7,5.6
				c-1.6,2.2-3.2,4.4-4.8,6.6c-0.5,0.8-1,1.6-1.7,2.5c0.8,0.6,1.4,1,2.1,1.4c0.8,0.5,1.6,1,2.4,1.6c2.3,1.9,2.7,4,0.9,6.5
				c-0.9,1.2-2,2.3-3,3.4c-0.8,0.9-1.7,1.7-2.8,2.8c1.1,0.4,1.7,0.8,2.5,0.9c2.4,0.4,4.7,0.8,7.1,1.1c6.2,0.7,12.4,1.2,18.5,2.8
				c6.2,1.6,12.6,2.6,17.7,7c0.8-0.5,1.4-0.9,2.1-1.4c1.4-1.1,1.4-1.6,0.3-3c-0.6-0.7-1.2-1.3-1.8-2c-1.3-1.7-1.1-3.3,0.7-4.5
				c0.7-0.4,1.4-0.7,2.1-1.1c2.1-1,2.5-1.7,2.4-4.1c-0.3-4.4-0.7-8.8-0.8-13.2c-0.3-7.5-0.3-15-0.7-22.5c-0.6-10-1.5-19.9-2.1-29.9
				c-0.6-10.1-1.3-20.3-1.6-30.4c-0.6-19.3-1-38.5,0.6-57.8c0.6-7.1,1.1-14.2,1.8-21.3c0.5-4.8,1.1-9.6,1.6-14.6
				c-0.2-0.1-0.4-0.4-0.6-0.6c-2.1-1.6-2.3-2.5-1.5-4.9c0.6-1.7,1.7-3,3-4.3c2.5-2.4,2.4-3.2-0.1-5.4c-0.2-0.2-0.4-0.3-0.5-0.5
				c-1.8-1.6-2.3-3.6-1.5-5.9c0.6-1.7,1.1-3.5,1.7-5.3c2.1-6.6,4.4-13.2,6.1-19.9c3.7-14.7,7.2-29.5,10.7-44.3
				c2.7-11.2,4.3-22.6,5.7-34c0.3-2.4,0.5-4.8,0.4-7.1c-0.1-2.2-0.6-4.4-0.8-6.7c-0.1-1.2-0.6-2.1-1.6-2.8c-1.5-1.1-2.9-2.2-4.5-3.1
				c-5.2-3-10.4-5.9-15.7-8.8c-0.6-0.3-1.5-0.5-1.8-1.6c5.3,1.5,10.2,3.6,14.8,6c2.8,1.4,5.6,3.1,8.3,4.8c2.2,1.3,3.2,3.3,3.5,5.9
				c0.4,4.3,0.9,8.6,1.7,12.8c2.3,12,4.7,24,7.1,36c4.4,21.6,9.3,43.1,12,65.1c1.3,10.9,2.2,21.8,2,32.8c0,1.5-0.6,2.9-1.1,4.4
				c-0.2,0.8-0.7,1.4-1,2.2c-0.6,1.5-0.5,2,0.8,2.8c1.4,0.9,2.9,1.6,4.4,2.4c1.8,1,4,2,4.2,4.2c0.2,1.8,1,3.1,2,4.5
				c15.1,21,31.7,40.8,48.2,60.7c0.2,0.3,0.4,0.6,0.6,0.9c-20.2-17.9-36.4-39.1-51-62.1c-0.1,1-0.1,1.6-0.2,2.1
				c-0.2,4.7,0.3,9.4,1.3,14c2,9.1,3.6,18.2,5.9,27.2c3.4,13.2,7.1,26.4,10.9,39.5c5,17.4,9.5,34.9,12.4,52.7
				c1.4,8.6,2.5,17.2,3.8,25.8c0.3,1.8,0.1,3.5-0.7,5.1c-0.8,1.7-1.5,3.5-2.3,5.3c-0.8,1.7-0.4,3.3,0.7,4.7c1.7,2.3,3.4,4.6,5,6.7
				c2.8-0.7,5.4-1.7,8-1.9c7.8-0.6,15.7-0.5,23.5,0.5C431.5,850,435.5,850.8,439.7,851.5z M371.2,228.5c0.1,1.5,0.2,2.4,0.2,3.4
				c0.5,9.1,1.1,18.2,1.3,27.3c0.2,6.3-0.6,12.6-1.9,18.8c-1.2,5.6-3.6,10.7-5.8,16c-3.6,8.3-9.5,14.4-17.2,18.8
				c-1.8,1-3.8,1.7-5.8,2c-8.7,1.3-16.8-0.3-24.3-5.2c-11.3-7.3-17.4-17.7-19.2-30.9c-1-7.6-0.6-15.2,0.2-22.7
				c1.5-14,3.3-27.9,6-41.8c0.1-0.7,0.2-1.5-0.1-2.1c-0.7-1.3-1.7-2.5-2.8-3.9c-1.6,1.1-3.1,2-4.4,3.1c-3.6,3.2-7,6.5-10.5,9.8
				c-0.6,0.6-1.3,1.2-2,1.6c-1,0.5-1.9,0-2.2-1.1c-0.1-0.5-0.1-1,0-1.4c0.3-2.7,0.6-5.4,0.9-8.1c0.3-2.7,0.5-5.4,0.8-8.2
				c-0.8,0-1.3-0.1-1.7,0c-4.1,1.1-8.2,2.1-12.2,3.4c-1.9,0.6-3.6,1.9-5.4,3.1c-1.3,0.8-1.9,2.2-1.8,3.7c0.2,2.8,0.4,5.6,0.8,8.3
				c0.6,4.7,1.6,9.3,2.1,14c1.6,14.5,3,28.9,4.4,43.4c0.7,7.2,1.4,14.3,2,21.5c0.7,8,1.4,15.9,1.7,23.9c0.9,21.9-1.3,43.6-5.3,65.1
				c-1.5,8.1-3.4,16.1-6.1,23.9c-0.6,1.7-0.5,2.9,0.5,4.4c2,2.9,2.2,6.1,0.4,9.3c-0.4,0.7-0.7,1.4-1.1,2.3c1.1,0.6,2.2,1.2,3.2,1.8
				c7.6,4.1,15.2,8.2,22.7,12.4c4.1,2.3,8.4,4.3,12.9,5.7c2.2,0.7,4.4,1.3,6.7,1.9c7.1,1.7,14.3,3.7,21.7,3.8
				c6.9,0.1,13.9,0.1,20.9-0.1c10.1-0.3,20.1-1.7,29.9-4c5.1-1.2,9.9-3,14.6-5.2c0-3.1,0.1-6.2,0-9.2c-0.3-5.1-2.4-9.9-2.3-15.1
				c0-1.2-0.9-1.7-2-1.2c-0.5,0.2-0.9,0.6-1.4,0.9c-1.7,1.2-3.3,2.5-5.1,3.6c-2.1,1.3-3.5,0.9-4.9-1.1c-0.4-0.5-0.7-1.1-1-1.6
				c-0.6-1.3-1.5-2.2-3-2.4c-0.6-0.1-1.2-0.4-1.8-0.7c-1.7-0.8-2.6-2.1-2.4-4c0.1-1.4,0.1-2.9,0-4.3c-0.1-3,0-6.1-0.6-9
				c-0.9-4.1,0.1-7.1,3.4-9.7c4.8-3.7,9.8-7.1,15.2-10c0.7-0.4,1.3-0.8,2.4-1.4c-0.8-0.5-1.2-1-1.7-1.1c-0.6-0.2-1.3,0.1-1.9,0
				c-2-0.2-3.3,0.5-4.1,2.5c-0.4,1.1-1.2,2.1-2,2.9c-1.2,1.3-2.7,2-4.4,2.1c-3,0.2-5-2-4.1-4.8c1.3-3.9,2.9-7.8,4.5-11.6
				c0.3-0.7,1.2-1.2,2-1.4c1.8-0.5,3.6-0.7,5.4-1.1c2.6-0.5,5.1-1,7.8-1.4c0.1-0.6,0.1-1.1,0.2-1.5c0.1-3.3-0.2-6.6,0.3-9.8
				c1.4-11.4,3-22.8,4.6-34.2c0.8-5.5,1.5-10.9,2.7-16.3c1.9-8.6,4.2-17.1,6.2-25.6c2.1-9.3,4-18.6,5.9-27.9
				c2.4-11.7,4.6-23.4,6.9-35c0.2-1,0.2-2.1,0.3-3.1c0.2-1.4-0.4-2.2-1.6-2.9c-6.9-4.3-14.3-7.4-22.3-9.1c-1-0.2-1.7,0-2.2,0.8
				c-1.8,2.4-3.7,4.6-5.4,7.1c-4.3,6.2-8.9,12.3-12.3,19.2c-1.1,2.3-2.2,2.4-4.1,0.8C372.2,229.3,371.9,229.1,371.2,228.5z
				 M368.2,124.3c0.3,0.8,0.6,1.6,0.9,2.4c0.7,1.8,1.3,2.2,3.3,1.8c2.3-0.5,4.1-1.7,5.8-3.2c6.7-6.1,9.3-13.8,9.1-22.6
				c-0.1-2.7-0.8-5.2-2.3-7.5c-2.1-3.3-4.5-3.8-7.6-1.6c-1.1,0.8-2,2-2.7,3.2c-0.6,1.1-1,2.4-1.3,3.6c-0.8,2.9-1.5,5.9-2.2,8.8
				c-0.3,1.1-0.9,1.9-2.1,1.9c-2.6-0.1-5.3-0.1-7.9-0.4c-1.9-0.2-2.2-0.8-2.4-2.7c-0.1-0.6,0.1-1.3-0.1-1.9
				c-0.2-0.7-0.4-1.6-0.9-2.1c-1.3-1.1-1.6-2.5-1.6-4.1c0.3-4.8,0.5-9.6,0.7-14.4c0.2-4.2,0.4-8.5,0.7-12.7c0.1-1.3-0.5-2-1.6-2.6
				c-8.8-4.8-18.1-6-27.9-4.2c-1.7,0.3-3,0.9-3.6,2.7c-0.5,1.3-1.1,2.5-1.8,3.7c-0.3,0.5-0.8,1.1-1.3,1.2c-0.4,0-1.1-0.6-1.3-1.1
				c-0.9-2.3-2.7-3.7-4.5-5.1c-1.3-1-2.7-1.3-4.3-1.2c-4.2,0.3-8.5,0.5-12.7,0.9c-3,0.2-6,0.7-9,1.6c-0.4,7.8-1.5,15.4-2.9,22.9
				c-0.1,0.3,0.1,0.7,0.2,1.2c0.9-0.4,1.6-0.8,2.4-1.1c4.5-2.1,9.2-3.7,14.2-4.2c1.1-0.1,2.5-0.1,3.5,0.4c2.5,1.4,4.2,3.7,5.1,6.4
				c0.5,1.6-0.2,2.5-1.8,2.7c-0.8,0.1-1.6,0-2.4-0.1c-5.4-0.5-10.9-0.7-16.2,0.4c-1.3,0.3-2.7,0.4-3.7,1.6c0.2,1.6,0.6,3.2,0.7,4.8
				c0.4,6,0.7,12,0.9,18c0.2,4.6,0.9,9.1,2.8,13.3c3,6.4,5.8,12.8,9,19.1c2.5,4.9,5.6,9.5,8.5,14.2c0.6,0.9,1.4,1.7,2.5,2.9
				c0.2-2.8-0.8-5,0.1-7.5c1.1,2.7,2,5.2,3,7.7c1.6-1.2,0.9-2.6,0.9-3.9c0-1.3-0.2-2.6,0.4-3.8c0.9,1.6,1.4,3.3,2.2,4.9
				c0.7,1.6,0.9,3.5,3,4.8c-0.5-3.4-1.5-6.5-0.5-10c1.2,3,2.2,5.7,3.3,8.2c0.6,1.5,0.8,1.5,2.5,0.6c-1.4-5.2-1.5-6.3-0.8-8.6
				c0.3,0.6,0.5,1.1,0.7,1.6c0.9,2,1.8,3.9,2.7,5.9c0.5,1.2,1.3,1.2,2.2,0.6c-1.6-6.6-1.7-7.6-0.6-9.4c1,2.3,1.9,4.6,2.9,6.8
				c0.9,1.9,1.2,2,3.2,1.4c4.1-1.1,7.5-3.2,10.1-6.5c1.9-2.3,3.9-4.7,5.9-7c2.8-3.3,5.6-6.6,8.3-9.9c1.9-2.3,3.5-4.8,3.8-7.9
				c0.5-4.7,0.9-9.3,1.3-14.2c-1.9,0.5-3.8,1.1-5.5-0.5c2.5-1.8,5.3-2.8,8.1-3.8c0.1,0.1,0.2,0.3,0.3,0.4
				C369.4,122,368.9,123.1,368.2,124.3z M376.3,385.4c2.7-0.1,4.5-1.4,5.2-3.5c1.4-3.9,3.9-4.9,7.8-4.4c3.2,0.4,3.3,0.2,4.3,2.6
				c1.5,0.9,3,1.2,3.7,2.2c1.2,1.8,2,3.9,3.1,6.1c-1.4,0-1.9-0.7-2.4-1.4c-0.6-0.8-1.2-1.7-1.8-2.6c-0.6-1-1.4-1.2-2.4-0.7
				c-0.6,0.3-1.2,0.5-1.7,0.8c-4.4,2.7-8.8,5.5-13.2,8.3c-1.5,1-2.8,2.2-4,3.4c-0.6,0.6-1.1,1.4-1.2,2.2c-0.3,1.8,0.2,3.6,1,5.4
				c0.4-0.2,0.7-0.4,0.9-0.6c3.7-2.7,7.4-5.6,11.2-8.2c2.6-1.8,5.5-3.2,8.3-4.7c1.5-0.8,3-0.7,4.2,0.5c1.9,1.9,3.1,4.3,4.1,6.9
				c-0.7-0.1-1.3-0.3-1.8-0.7c-0.9-0.8-1.8-1.8-2.7-2.7c-1.5-1.7-1.8-1.8-3.9-0.8c-0.6,0.3-1.2,0.5-1.7,0.9
				c-4.6,3.1-9.2,6.1-13.7,9.2c-1.3,0.9-2.5,2-3.6,3.1c-0.7,0.7-1.3,1.7-1.4,2.6c-0.2,2.1-0.1,4.2-0.1,6.2c0,0.4,0.5,0.8,0.6,1
				c1.4-1.2,2.5-2.5,3.9-3.4c4.7-3.1,9.8-5.3,15.2-7.1c1.3-0.4,2.6-0.7,4-0.9c2.4-0.4,4,0.5,5,2.8c1,2.3,1.8,4.7,2.7,7.2
				c-1.2,0.2-1.9-0.3-2.4-1c-0.7-1-1.4-2.1-2-3.3c-1.5-3.1-1.6-3.2-5-2.3c-5.5,1.5-10.6,3.9-15.5,6.9c-0.7,0.4-1.4,1-2.2,1.6
				c1.3,2,2.5,3.9,3.8,6.1c2.1-1.5,4.1-2.9,5.9-4.4c1.5-1.2,3.1-1.6,4.9-0.9c3.7,1.3,7.5,2.4,11.1,3.9c1.7,0.7,3,0.8,4.5-0.3
				c2.2-1.6,4.3-3.3,6.7-4.7c5.1-3,10.3-5.8,15.4-8.8c11.7-6.9,23.6-13.4,35.9-19.3c6.3-3,12.3-6.6,18.1-10.4
				c1.4-0.9,2.8-1.9,3.4-3.6c0.8-2.5,1.3-5.1,1.1-7.8c-0.6-5.5-2.9-10.4-5.9-15c-0.4-0.6-1.1-1.1-1.8-1.4c-3.6-1.2-7.4-1.2-11.1-1.3
				c-0.4,0-0.8,0.2-1.2,0.3c-1.5,0.4-3.1,0.8-4.6,1.2c-5.5,1.3-11,2.7-16.3,4.7c-1.9,0.7-3.2,1.8-4.1,3.7
				c-2.6,5.6-5.3,11.1-8.1,16.6c-3.2,6.2-7.8,11.1-14.1,14.3c-1.7,0.9-4,0.8-5.7,1.7c-2.3,1.3-3.9,0.2-5.2-1.2
				c-1.6-1.7-3.1-3.5-4.2-5.5c-2-3.7-3.7-7.6-5.4-11.5c-1.2-2.9-1.5-3.1-4.6-3.2c-5.3-0.2-10.3,1.1-15.4,2.1
				c-0.9,0.2-1.4,0.7-1.7,1.5c-1.1,2.9-2.3,5.8-3.4,8.7C376.6,383.5,376.5,384.3,376.3,385.4z M337.1,24.3c0.2,1.2,0.2,2,0.4,2.8
				c0.2,0.7,0.7,1.3,0.8,2c0.1,0.6,0.1,1.6-0.2,2c-0.4,0.4-1.4,0.5-1.9,0.3c-5.1-1.9-10.5-2.8-15.9-3.4c-8.8-1-17.3-0.1-25.1,4.2
				c-5.1,2.7-9.7,6.2-14.1,9.9c-0.6,0.5-1.2,1.2-2,2.1c2.9,0.2,5.2,0.3,7.6,0.5c12.9,1.3,22.7,7.6,29.3,18.8
				c1.3,2.3,3.6,3.5,5.2,5.4c0.4-0.3,0.5-0.4,0.6-0.5c0.1-0.2,0.3-0.4,0.4-0.6c1-3,3.3-4.1,6.2-4.3c0.5,0,0.9-0.2,1.4-0.3
				c10.3-1.9,19.8,0.4,28.9,5.4c1.6,0.9,2.2,2,2.1,3.9c-0.5,6-0.8,12-1.2,17.9c-0.2,3.1-0.4,6.2-0.6,9.3c0,0.7,0,1.7,0.4,2
				c1.7,1.4,2.3,3.2,2.1,5.3c-0.1,1,0.4,1.5,1.4,1.5c2,0,4,0,6.1,0c0.4-2.1,0.8-4.2,1.3-6.2c0.6-2.3,1-4.7,2-6.9
				c1.7-3.9,5-5.9,9.3-6.2c0.5,0,1.1-0.1,1.8-0.2c0.6-2.9,1.2-5.7,1.7-8.5c1-5.4,2-10.8,1.7-16.4c-0.4-6.3-2.8-11.3-9.7-13.2
				c-2.4-0.7-2.6-1.1-2.7-3.6c0-0.6,0-1.1-0.1-1.7c-0.4-7.8-3.9-13.9-10.5-18.1c-1.3-0.8-2.6-1.5-4-2.1c-1.6-0.6-2.7,0-3.1,1.6
				c-0.2,1-0.1,2.1-0.1,3.1c0,1.2,0.5,2.5-0.7,3.3c-1.3,0.9-2.3-0.2-3.3-0.8c-4.5-2.6-9-5.2-13.5-7.8
				C338.4,24.8,338,24.6,337.1,24.3z M239.2,267.3c0.9-0.9,0.5-1.8,0.1-2.7c-0.7-1.5-1.5-3-2.1-4.6c-0.7-1.7-2-2.6-3.8-2.8
				c-5.7-0.5-11.5-1.2-17.2-1.5c-4.7-0.3-5.3,0.3-7.1,4.7c-1.7,4.1-3.4,8.1-5.2,12.1c-1.2,2.7-2.6,5.3-4.8,7.4
				c-0.5,0.5-0.8,1.2-1,1.9c-0.4,1.6-0.8,3.3-1,4.9c-1.1,6.4-0.5,12.8,0.2,19.1c0.9,8.5,1.3,17.1,1.1,25.6c-0.3,10-0.8,20,0.2,30
				c0.3,3.2,1.1,6.4,1.9,9.6c0.5,1.9,1.5,3.5,3,4.8c6.4,5.5,17,4.5,22.1-2.2c2.3-3,3.2-6.2,2.2-9.9c-0.4-1.6-0.8-3.3-1.3-4.8
				c-4.4-12.3-8.9-24.7-12.1-37.4c-0.1-0.2-0.1-0.5-0.2-0.7c-0.3-0.9-0.9-1.6-1.8-2.1c-3.5-1.8-6.3-4.4-9-7.1
				c-1.4-1.4-2.3-3.2-2.9-5.4c0.6,0.3,0.9,0.4,1.1,0.6c2.4,2,4.8,4,7.2,5.9c1.8,1.4,3.7,2.8,5.8,3.8c2.7,1.3,5.2,0,6.4-2.7
				c1.3-2.8,2.7-5.6,4.1-8.4c0.9-1.7,2.4-2.8,4.3-3.2c5.6-1.2,11.3-2.5,17-0.2c0.1,0,0.3-0.1,0.4-0.1c2.5-4,0.5-8.1-4.2-8.4
				c-3.4-0.2-6.9-0.4-10.3-0.5c-1.6-0.1-3.1,0.2-4.6,1.1c-1.1,0.7-2.5,1-4,1.6c1.8-4.4,4.7-6,8.9-5.7c2.3,0.2,4.6,0.2,6.9,0.4
				c2.3,0.1,4.5,0.4,6.9,0.5c-0.3-1.1-0.7-2.1-0.8-3.1c-0.5-2.7-2.1-3.9-4.7-4.3c-5.1-0.7-10.2-0.8-15.3-0.1
				c-0.6,0.1-1.1,0.2-1.7,0.2c-0.8,0-1.4-0.3-1.6-1.2c-0.1-0.9,0.4-1.3,1.2-1.6c0.4-0.1,0.8-0.3,1.2-0.3c1.6-0.2,3.2-0.5,4.8-0.5
				c4.4,0,8.7,0.2,13.2,0.3c-0.2-1.3-0.5-2.7-0.8-4.1c-0.2-1-0.9-1.7-1.8-2.1c-0.7-0.3-1.5-0.6-2.3-0.7c-4.2-0.5-8.4-1.2-12.6-1.4
				c-3.3-0.2-6.7,0.1-10,0.1c-0.5,0-1.3-0.2-1.4-0.6c-0.2-0.5-0.1-1.4,0.2-1.7c0.6-0.5,1.5-0.9,2.3-1c1-0.2,2,0,2.9,0
				c0.3-0.4,0.4-0.6,0.6-0.8c2.8-4,3-4.1,7.9-3.2C231.4,265.7,235.3,266.5,239.2,267.3z M461.4,309c-0.1-0.1-0.1-0.1-0.2-0.2
				c-8.4,4.7-16.8,9.4-25.2,14c-0.1-0.2-0.2-0.3-0.3-0.5c1.2-0.8,2.4-1.6,3.6-2.5c6.8-5.3,14.4-9.3,22-13.2c0.8-0.4,1.7-0.8,2.7-1.1
				c0.4-0.1,1,0.1,1.3,0.3c0.2,0.3,0.1,0.9-0.1,1.3c-0.2,0.5-0.6,0.9-1.1,1.3c-1.3,1.2-2.6,2.4-3.9,3.5
				c-8.2,6.8-16.4,13.5-23.9,21.1c-0.4,0.4-0.8,0.9-1.2,1.3c1.7-0.5,3.3-1.3,4.8-2.2c9.7-5.9,19.4-11.9,29-17.8
				c0.6-0.4,1.2-0.9,1.5-1.5c0.7-1.6,1.3-3.3,1.9-4.9c0.4-1.1,0.2-1.9-1.1-2.5c-7.7-3.8-13.7-9.7-18.4-16.8
				c-3.8-5.7-7.4-11.6-10.7-17.6c-7.7-13.7-14.6-27.7-19.8-42.6c-0.1-0.4-0.4-0.8-0.8-1.6c-5.6,25.5-9.8,50.8-16.5,74.9
				c1.6,2.1,2.9,3.7,4.2,5.3c2.2,2.6,3.1,5.5,2,8.9c-0.2,0.6-0.3,1.2-0.4,1.9c-0.4,2.4,0.1,3.4,2.6,3.9c1.8,0.4,3.6,0.4,5.5,0.5
				c3.2,0.1,4.8,0.9,5.8,4c0.7,2.2,1,4.5,1.4,6.8c0.2,1.2,0.4,2.5,0.6,3.8c2.9-0.1,5.8,0.6,6.9-3c0.2-0.6,0.7-1.1,1.2-1.5
				c2.4-2.4,4.6-4.9,7.1-7.1c5.8-5,11.9-9.8,17.8-14.6C460.2,310,460.8,309.5,461.4,309z M257.8,838c-0.4,1.9-0.9,3.6-1.3,5.4
				c-1.3,5.5-4.2,10-8.7,13.4c-10.4,7.6-21.4,14-33.2,19.1c-5,2.2-10,4.2-15.3,5.5c-2.6,0.6-3.1,2.6-1.3,4.6
				c0.7,0.8,1.5,1.4,2.4,1.9c3.2,1.9,6.7,2.4,10.4,1.9c3.3-0.4,6.7-0.9,10-1.2c10.9-1.1,21.8-2.1,32.7-3.1c5.3-0.5,10.7-1,16-1.2
				c6.6-0.2,13.3-0.1,19.9,0c2,0,3.5-0.7,4.8-2.2c2-2.2,3.2-4.8,3-7.6c-0.2-4-1-8.1-1.5-12.1c0-0.1-0.2-0.2-0.3-0.3
				c-0.2,0-0.3-0.1-0.5-0.1c-0.5,0.1-0.9,0.1-1.4,0.2c-4.3,0.7-8.7,1.5-13.1,0.7c-1.7-0.3-3.4-0.7-5.1-1.4c-1.9-0.7-2.9-2.2-2.8-4.3
				c0.1-1.1,0-2.2,0-3.4c-0.2-5.3-2.1-9.8-6.4-13.1C263.8,838.8,261.1,837.5,257.8,838z M336.3,311.7c3.3,0.7,6.8,0.3,9.6-1.3
				c5.8-3.2,10.9-7.4,14.1-13.3c2.6-5,4.9-10.2,6.8-15.6c3-8.8,3.4-18,3-27.3c-0.3-8.2-0.9-16.4-1.6-24.6c-0.4-5.3,0.1-4.1-4.2-7.3
				c-1.7-1.2-3.4-2.6-5.6-3.2c-2.8,5.5-5.8,10.8-8.1,16.4c-3,7.1-5.7,14.4-8.3,21.7c-1.9,5.4-3.5,11-5.1,16.5
				c-0.4,1.3-0.7,2.6-0.7,4c0.1,6.8,0.3,13.6,0.4,20.4c0,2.6-0.2,5.3-0.3,7.9C336.2,307.8,336.3,309.7,336.3,311.7z M404.1,306.2
				c-0.2,0.9-0.4,1.5-0.5,2.1c-0.9,5.4-1.8,10.9-2.6,16.3c-1.3,8.6-2.6,17.2-3.6,25.9c-0.6,5.1-0.5,10.4-0.8,15.5
				c0,0.4,0.2,0.8,0.2,1c0.2,0.1,0.3,0.2,0.3,0.2c0.3,0.1,0.6,0.1,0.9,0.1c3.3,0.1,5.6,1.7,6.5,5c0.2,0.6,0.4,1.2,0.7,1.8
				c1.9,4.8,4.1,9.3,7.1,13.6c0.7,1,1.5,1.4,2.8,1.4c2.8-0.2,5.3-1,7.7-2.5c4.9-3.2,8.7-7.3,11.2-12.5c2.5-5.1,4.9-10.2,7.5-15.3
				c0.6-1.2,0.6-2.2,0.1-3.4c-2-5.1-4-10.3-6-15.4c-0.1-0.3-0.4-0.6-0.6-1c-1.3,0.2-2.4,0.4-3.6,0.6c-1.2,0.1-2.4,0.3-3.6,0.3
				c-3.3,0.1-4-0.6-4.4-3.9c-0.3-2.5-0.5-4.9-1-7.3c-0.7-3-1.2-3.2-4.3-3.3c-2.2-0.1-4.5-0.3-6.6-1c-3.1-1-4.2-3.2-3.7-6.4
				c0.2-1.1,0.6-2.2,0.6-3.3c0.1-1.2,0.2-2.5-0.2-3.5C407.4,309.1,405.9,307.7,404.1,306.2z M444.3,870c-1.4,0-2.5,0-3.6,0
				c-2.1,0.1-3.9-0.6-5.7-1.6c-3.1-1.7-5.5-4.1-7.2-7.2c-0.7-1.3-1.4-2.7-2.2-4c-2.2-3.4-5.1-5.6-9.5-5.5c-2.6,0.1-5.1-0.1-7.7,0
				c-2.1,0.1-4.3,0.4-6.4,0.5c-1.5,0.1-2.4,0.9-2.9,2.4c-0.9,2.6-2,5.2-2.9,7.9c-2.2,6.2-5.2,12-9.1,17.4c-1.4,1.9-2.5,4.1-3.6,6.2
				c-0.7,1.4-0.7,2.9,0.6,4.2c4.5,4.3,9.8,7.1,16,7.3c5.3,0.2,10.5-0.2,15.8-0.6c10.3-0.7,20.6-1.5,30.9-2.3
				c0.7-0.1,1.4-0.2,2.1-0.3c1.9-0.4,2.5-1,2.6-2.9c0.1-1.6,0.2-3.2-0.2-4.8C450.1,880.9,447.1,875.5,444.3,870z M307.5,215.9
				c-0.2,0.9-0.4,1.3-0.5,1.8c-1.5,10.8-3.1,21.5-4.6,32.3c-1.2,8.4-1.7,16.9-1.2,25.4c0.9,14.1,6.9,25.2,19.4,32.5
				c2.7,1.6,5.5,3,8.6,3.7c1.3,0.3,2.6,0.7,4.1,0.2c0.2-1.7,0.5-3.4,0.5-5c-0.2-10.1-0.4-20.3-0.7-30.4c-0.1-2.6-0.6-5.1-1.5-7.5
				c-3.7-9.1-7.2-18.3-11-27.3c-3.3-7.8-7.1-15.4-11.4-22.7C308.7,217.8,308.2,217,307.5,215.9z M362.1,151.6
				c-0.8,0.8-1.2,1.2-1.5,1.6c-3.4,4.1-6.8,8.1-10.1,12.2c-2.8,3.3-6,6-10.2,7.3c-6.3,2-12.7,3.4-19.3,3.4c-0.6,0-1.2,0.1-1.9,0.2
				c-0.1,0.8-0.2,1.4-0.1,2c0.1,2.6,0.2,5.3,0.4,7.9c0.3,4.5,0.4,8.9-2.2,13c-1.6,2.5-1.3,5.4-0.8,8.2c0.6,2.8,2.3,4.5,5.1,5.1
				c1.2,0.2,2.4,0.5,3.5,0.5c8,0.4,15.8-1.2,23.3-3.9c2.5-0.9,5.1-2.1,7.3-3.5c4.3-2.7,7.7-6.2,9.4-11.1c0.4-1.1,0.4-2.1-0.4-3.1
				c-3.4-4.4-4.7-9.4-4.5-14.8c0.3-5.7,0.7-11.3,1.1-17C361.4,157,361.7,154.6,362.1,151.6z M363.3,180.2c0.3,1.5,0.3,2.5,0.8,3.4
				c1,2.1,2.1,4.1,3.2,6.2c0.4,0.8,1,1.6,0.9,2.4c-0.9,5.6-2.1,11-5.4,15.7c-1.5,2.1-3.2,4.2-4.8,6.3c-0.3,0.4-0.5,0.9-0.7,1.1
				c1.3,0.5,2.4,0.9,3.4,1.4c4.2,2.3,8.1,5.2,11.6,8.5c0.6,0.6,1.3,1.1,2,1.8c6-10.7,13.1-20.3,20.6-29.8
				C384.7,190.7,375.2,183.8,363.3,180.2z M332.6,262.5c-0.2-6.2-0.7-8.4-2.8-12.4c-5.8-11.3-10.2-23.1-13.6-35.3
				c-0.3-1.2-0.9-2.4-1.5-3.5c-2.4-5-2.9-9.9,0.3-14.8c0.8-1.3,1.3-2.6,1.3-4c0-2.2,0-4.3-0.1-6.5c0-0.6-0.2-1.2-0.4-1.8
				c-9.7,1.5-19.2,3-29,4.5c1.2,9.7,0.2,19-0.8,28.5c1.8-1.4,3.3-3.1,5-4.5c2.9-2.4,5.8-4.7,8.9-6.9c1.9-1.3,3.1-1,4.5,0.9
				c2.6,3.7,5.4,7.4,7.7,11.3c4.4,7.4,8.2,15.2,11.5,23.2C326.7,248.3,329.6,255.3,332.6,262.5z M483.3,347.7c0-0.6,0.1-0.8,0-0.9
				c-2.3-5.1-4.7-10.1-7-15.2c-0.5-1.2-1.3-1.7-2.6-1.5c-0.5,0.1-1,0.1-1.4,0.1c-9,1.1-17.8,2.7-26.5,5.2c-2.5,0.7-5,1.6-7.8,2.5
				c2.1,5.6,4.2,10.9,6.3,16.3c6.5-3.1,13.1-4.8,19.9-6.2c1.9-0.4,3.8-0.4,5.7-0.5c1.3-0.1,2.5-0.1,3.8-0.4c2.4-0.6,4.7-0.7,7.1,0
				C481.4,347.3,482.3,347.5,483.3,347.7z M319.2,215.2c3.9,12.2,8.1,24.2,14.5,35.9c0.1-1.2,0.3-1.8,0.3-2.4c0.1-1.5,0.2-3,0.3-4.5
				c0.4-6.2,3-11.5,7.2-16.1c5.6-6.2,11.1-12.6,16.6-18.9c0.7-0.7,1.2-1.6,1.8-2.4C347.3,214,334,217.2,319.2,215.2z M342.8,459.4
				c0.6,0.2,1.2,0.3,1.8,0.5c10.3,2.1,20.6,4.3,31,6.2c4.3,0.8,8.7,1,13.1,1.5c1.4,0.2,2.2-0.4,2.7-1.8c1-2.8,2.1-5.5,2.9-8.4
				c0.7-2.3,0.4-4.6-0.2-7.2C377.5,457.2,360.2,458.4,342.8,459.4z M269.2,47c1.6,3.2,3.1,6.1,5.2,8.7c0.4,0.5,1.3,0.9,2.1,1
				c1.9,0.3,3.8,0.5,5.7,0.6c3.6,0.2,7.2,0.2,10.8,0.5c5.2,0.4,10.4,1.3,14.8,4.2c2.1,1.4,4.3,1.7,6.7,1.7c0-0.2,0-0.4-0.1-0.5
				c-6.2-9.3-14.8-15.1-26-16.5c-4-0.5-8.1-1.2-12,0.6c-0.6,0.3-1.4,0.2-2.1,0.2C272.7,47.3,271.2,47.2,269.2,47z M269.4,839.2
				c1.2,1.5,2.1,2.5,2.8,3.6c2.6,3.9,3.4,8.2,3.4,12.8c0,3,0.3,3.3,3.2,4.1c0.4,0.1,0.8,0.1,1.2,0.2c3.7,0.7,7.5,0.4,11.2-0.3
				c1.3-0.2,2.6-0.5,4-0.8c-0.6-4-1.2-7.8-1.6-11.6c-0.2-2.1-1.2-2.9-3-3.4c-5.3-1.3-10.5-2.6-15.8-3.9
				C273.3,839.5,271.6,839.5,269.4,839.2z M245,312.7c-0.4,0.3-0.8,0.6-1.2,0.8c-1.1,0.5-2.2,1-3.2,1.6c-3.1,1.8-4.9,6.3-3.8,9.3
				c0.6,1.8,1.2,2.2,3,2c2.6-0.3,4.9-1.2,7.2-2.5c2.6-1.6,3.4-4,3-6.8c-0.5-3.5-1.3-6.9-3.3-9.9c-1-1.5-2.1-2.6-3.8-3
				c-4.7-0.9-9.2,0-13.7,1.3c-0.1,0-0.2,0.1-0.2,0.1c-0.8,1.1-1.9,2-2.4,3.2c-0.3,0.7,0.3,1.8,0.8,2.6c0.9,1.6,1.8,3.2,2.8,4.7
				c1,1.5,2.1,3,3.2,4.6C236.9,312.6,240.6,310.1,245,312.7z M223.9,341.7c-0.2,0.1-0.3,0.2-0.5,0.3c0.8,2.4,1.7,4.8,2.5,7.2
				c1.5,4.4,3.1,8.7,4.4,13.1c1.3,4.2,0.7,8.2-1.7,11.9c-0.3,0.4-0.5,0.9-0.8,1.7c3-0.4,5.7-0.6,8.3-1c1-0.1,2-0.4,3-0.7
				c1.7-0.5,1.7-0.7,1.5-2.4c-0.7-4.5-1.5-9-2.2-13.5c-0.5-3.1-1.5-5.8-3.7-8.1C231.6,346.9,227.8,344.3,223.9,341.7z M439.6,334.1
				c0.2,0,0.5-0.1,0.7-0.1c11.1-3.7,22.5-5.8,34.2-7c0.4,0,0.9,0,1.1-0.2c1.4-1.3,2.7-2.6,4.3-4.1c-1.9-1.1-3.6-2.1-5.3-3
				c-2.1-1.1-4.2-2.2-5-5.1C459.8,321.6,450.1,328.5,439.6,334.1z M335.1,268.6c2.5-8.9,5.6-17.7,9.1-26.3
				c3.5-8.6,7.7-16.9,11.7-25.4c-1.8,1.6-3.4,3.3-4.9,5.1c-3.3,3.7-6.5,7.4-9.8,11.2c-1.9,2.2-2.9,5-3.5,7.8c-0.5,2.6-0.7,5.2-1,7.8
				C336.2,255.4,335.7,262,335.1,268.6z M216.6,252.5c-1.1-2.3-2.4-4.2-3.9-6.2c-5.2,4.3-11.1,6.4-17.5,7.8c2.5,4.6,5,8.9,7.6,13.6
				c0.7-1.6,1.2-2.6,1.7-3.7c0.9-2.3,1.9-4.6,2.8-6.9c1.1-2.6,3.1-4,5.9-4.3C214.1,252.8,215.2,252.7,216.6,252.5z M308.8,63.6
				c-0.8-0.5-1.1-0.8-1.4-0.9c-1.2-0.5-2.4-0.9-3.6-1.3c-8.7-2.5-17.6-2.1-27-2.6c3.5,3.4,7.2,5.8,11.3,7.3c0.5,0.2,1.1,0.1,1.6-0.1
				c5.4-1.5,11-1.9,16.6-2C306.9,63.9,307.6,63.7,308.8,63.6z M426,852.1c1.7,2.9,3.1,5.2,4.5,7.7c1.5,2.7,3.7,4.8,6.4,6.3
				c1.8,1,3.6,1.2,5.5,0.7c0-0.3,0-0.6-0.1-0.8c-2.2-3.6-4.3-7.3-6.6-10.9c-0.3-0.6-1-1.1-1.7-1.2
				C431.5,853.2,428.8,852.7,426,852.1z M224.3,312.4c-0.5,1.1-0.9,1.8-1.1,2.5c-0.6,1.9-1.7,3.2-3.3,4.2c-2.6,1.6-2.9,3.2-1.2,6.1
				c4.3-0.2,8.8-0.4,13.6-0.7C229.6,320.5,227.1,316.6,224.3,312.4z M287.2,97.1c6.7-2.2,13.6-2.8,20.6-1.9c0.5,0.1,1,0.1,1.4,0
				c0.4,0,0.8-0.2,1.3-0.4c-0.3-0.7-0.4-1.3-0.7-1.7c-2.9-4.4-4-4.5-8-3.6c-4.1,0.9-8,2.1-11.8,3.9c-0.9,0.5-1.8,1-2.7,1.5
				C286.3,95.4,286.2,96.1,287.2,97.1z M369.5,131.8c-0.2,1.9-0.4,3.9-0.6,5.8c-0.3,2.7-0.7,5.4-2.2,7.7c-1,1.5-0.6,2.9,0,4.4
				c6.1-4.2,9.5-11.7,7.9-18.6C373.1,131.4,371.5,131.6,369.5,131.8z M211.1,219.8c-0.2,2.2-0.4,4.4-0.6,6.7
				c1.9,0.3,3.4,0.6,5.5,0.9c-0.5-2.2-0.9-4-1.4-5.7C214,219.6,213.9,219.7,211.1,219.8z M180.8,218.9c-0.5,2.2-1.2,4.2-1,6.6
				c1.3-0.1,2.5-0.2,3.9-0.3c0.4-2.2,0.7-4.2,1.1-6.3C183.4,218.9,182.3,218.9,180.8,218.9z M176.8,225.7c0.4-2.2,1.3-4.2,1.2-6.3
				c-2.4-0.4-3.2-0.3-3.6,0.6c-0.9,1.9-1.5,3.8-1.2,6.2C174.5,226,175.6,225.8,176.8,225.7z M206,225.9c0.9,0.1,1.9,0.2,3.1,0.4
				c0.3-2.3,0.6-4.4,0.9-6.8c-1.4,0-2.6,0-4,0C206,221.6,206,223.6,206,225.9z M215.9,228.3c-1.8-0.2-3.5-0.4-5.4-0.6
				c-0.2,1.5-0.3,2.7-0.5,4.2c2.1,0.2,3.9,0.4,5.9,0.6C215.9,231.1,215.9,229.9,215.9,228.3z M191.6,218.8c-0.2,2.3-0.4,4.2-0.7,6.3
				c1.3,0,2.3,0,3.6,0c0.4-2,0.7-3.9,1.1-6.1C194.2,219,193.1,218.9,191.6,218.8z M198.3,206.8c-1.6-0.1-2.8-0.2-4.1-0.1
				c-0.5,0-1.2,0.6-1.3,1c-0.2,1.1-0.2,2.3-0.2,3.5c1.7,0,3,0,4.5,0C197.5,209.8,197.9,208.6,198.3,206.8z M208.7,244.2
				c2.5,0,4.3-1.9,5.4-5.3c-1.5-0.6-3-0.6-4.8-0.1C209.1,240.6,208.9,242.3,208.7,244.2z M178.6,232.4c1.2-0.1,2,0,2.8-0.2
				c0.5-0.2,1.1-0.7,1.3-1.2c0.3-1.3,0.4-2.6,0.7-4c-1.5,0-2.7,0-4,0C179.1,228.7,178.9,230.3,178.6,232.4z M197.9,238.6
				c-1.3,0-2.2,0-3.3,0c-0.2,1.9-0.4,3.7-0.6,5.7c1,0,1.8,0.1,2.4,0c0.5-0.1,1.2-0.7,1.2-1.1C197.9,241.7,197.9,240.2,197.9,238.6z
				 M186.8,244.8c0.2-2.1,0.3-3.8,0.4-5.8c-1.2,0-2.1,0-3.1,0c-0.5,2-0.8,3.9-0.6,6C184.6,244.9,185.5,244.8,186.8,244.8z
				 M197.3,246c-1.2-0.1-2.3-0.1-3.6-0.2c-0.2,1.8-0.4,3.3-0.6,4.8c3.1,1.1,4,0.6,4.1-2.3C197.3,247.7,197.3,246.9,197.3,246z
				 M188.9,225.1c0.3-2.2,0.6-4.1,0.9-6.2c-1.1,0-1.9,0-2.9,0c-0.3,2-0.6,4-1,6.2C187,225.1,187.8,225.1,188.9,225.1z M176.6,227.1
				c-1.3,0-2.4,0-3.5,0c-0.2,2.1-0.4,3.9,0.6,5.7c1,0.1,2.1,0.2,2.4-1C176.4,230.3,176.5,228.7,176.6,227.1z M201.6,219.2
				c-0.2,2.3-0.6,4.3-0.4,6.4c0.9,0,1.6,0,2.5,0c0.2-2.1,0.5-4.1,0.7-6.3C203.4,219.2,202.7,219.2,201.6,219.2z M200.3,219.3
				c-1.4-0.2-2.7-0.8-3.1,0.8c-0.4,1.6-0.5,3.2-0.7,5.1c1.1,0,2,0,3,0C199.7,223.3,200,221.4,200.3,219.3z M209.5,236.6
				c1.9,0.2,3.6,0.4,5.5,0.5c0.2-1.1,0.4-2,0.6-3.2c-2.1-0.1-3.9-0.2-5.8-0.3C209.8,234.7,209.7,235.6,209.5,236.6z M196.9,213.1
				c-1.6,0-3,0-4.5,0c-0.2,1.3-0.3,2.5-0.5,3.9c1.5,0,2.8,0,4.2,0C196.3,215.8,196.5,214.6,196.9,213.1z M181.8,237.5
				c0.2-1.5,0.4-2.8,0.6-4.3c-1.3,0-2.3,0-3.4,0c-0.6,1.7-0.7,3.2-0.3,4.8c0.4,0,0.7,0,1,0C180.3,237.9,180.9,237.8,181.8,237.5z
				 M210.1,218.1c0.8-4.1,0.8-4.1-2.8-4.4c-0.3,0-0.6,0.1-1,0.1c0,1.2,0,2.4,0,3.7C207.5,217.8,208.7,217.9,210.1,218.1z
				 M185.8,213.4c-3.4-0.5-4.1-0.1-4.4,3.9C184.8,218,185.7,217.9,185.8,213.4z M189.6,238.6c-0.1,2-0.2,3.9-0.3,5.7
				c2.3,0.1,2.4,0.1,2.6-0.9c0.2-1.5,0.3-3.1,0.5-4.8C191.5,238.6,190.8,238.6,189.6,238.6z M185.7,226.9c-0.2,1.7-0.9,3.2-0.5,4.9
				c1.1,0.1,2.4,0.5,2.8-0.7c0.5-1.3,0.4-2.7,0.6-4.2C187.5,226.9,186.7,226.9,185.7,226.9z M190.9,226.9c-0.2,1.6-0.4,3-0.5,4.5
				c1.2,0,2.1,0,3.2,0c0.2-1.5,0.4-2.8,0.6-4.3C192.9,227,192.1,227,190.9,226.9z M204.9,238.6c-0.2,2-0.3,3.7-0.5,5.7
				c0.9,0,1.7-0.1,2.5-0.1c-0.2-2,0.8-3.7,0.1-5.6C206.4,238.5,205.8,238.5,204.9,238.6z M198.4,231.4c0.8-1.2,0.9-2.6,0.6-4.2
				c-1,0-1.9,0-2.9,0c-0.2,1.5-0.3,2.8-0.5,4.2C196.8,231.4,197.6,231.4,198.4,231.4z M178.6,239.4c-0.8,2.6,0.3,4,2.4,5.3
				c0.2-1.9,0.3-3.6,0.5-5.6C180.4,239.2,179.5,239.3,178.6,239.4z M187.5,233.2c-2.6-0.4-2.7-0.3-3,2c-0.1,0.7-0.1,1.3-0.1,2
				C187.6,237.3,188,236.8,187.5,233.2z M188.4,211.1c3,0.5,3.5-0.2,3.4-4.4c-0.9,0.2-1.8,0.5-2.8,0.7
				C188.8,208.7,188.6,209.9,188.4,211.1z M175.6,218.2c1.2-0.3,2.5,0.5,3.3-0.8c0.6-1,0.8-2.3,1.3-3.5
				C177.6,213.9,176.4,215,175.6,218.2z M208.9,227.7c-1.3,0-2.2,0-3.2,0c0,1.4,0,2.5,0,3.9c0.9,0.1,1.7,0.2,2.6,0.3
				C208.5,230.4,208.7,229.2,208.9,227.7z M201.8,217.2c1,0.1,1.8,0.2,2.9,0.3c0.1-1.5,0.2-2.6,0.3-4c-1.2,0-2,0-3,0
				C201.9,214.8,201.9,215.9,201.8,217.2z M190.8,213.2c-1,0-1.8,0-2.7,0c-0.5,1.3-1,2.5-0.3,4c0.8-0.1,1.5-0.1,2.4-0.2
				C190.4,215.7,190.6,214.6,190.8,213.2z M187,208.4c-3,0.3-3.9,1.2-3.8,3.6C186.9,211.7,187,211.6,187,208.4z M200.5,217
				c0.2-1.3,0.3-2.4,0.5-3.8c-1.1,0-1.9,0-2.8,0c-0.2,1.3-0.4,2.4-0.5,3.8C198.7,217,199.4,217,200.5,217z M201.6,243.8
				c0.2-1.7,0.4-3.4,0.6-5.2c-0.9,0-1.4,0-2.1,0c-0.1,1.5-0.3,2.8-0.4,4.1C199.6,244,199.7,244.1,201.6,243.8z M190.2,233
				c-0.1,1.3-0.2,2.5-0.3,3.7c3,0.2,3.5-0.5,2.8-3.7C192,233,191.2,233,190.2,233z M201,211.4c1.1-3.4,0.8-4-1.9-4
				c-0.2,1.2-0.4,2.4-0.7,3.8C199.4,211.3,200.2,211.3,201,211.4z M191.2,250.2c0.1-1.5,0.3-2.9,0.4-4.4c-1,0-1.6,0-2.6,0
				c-0.1,1.3-0.1,2.5-0.2,3.7C189.7,249.8,190.3,250,191.2,250.2z M198.6,233.3c-3.4-0.5-3.7-0.2-3.3,3c0.9,0,1.8,0,2.8,0
				C198.3,235.2,198.5,234.3,198.6,233.3z M203.6,227.5c-1,0-1.7,0-2.6,0c0,1.4,0,2.6,0,3.9c0.8-0.1,1.4-0.1,2.1-0.2
				C203.2,230.1,203.4,228.9,203.6,227.5z M202.3,211.4c1.1,0.1,1.9,0.3,2.8,0.4c0.5-2.5,0.3-2.7-2.6-3.4
				C202.4,209.4,202.4,210.3,202.3,211.4z M207.8,236.3c0-1,0.1-1.8,0.1-2.8c-0.9,0-1.7-0.1-2.6-0.1c0,1.1,0,2,0,2.9
				C206.1,236.3,206.8,236.3,207.8,236.3z M199,250.1c2.1-0.6,2.6-1.5,2.2-3.2c-0.1-0.3-0.6-0.8-0.9-0.8c-0.3,0-0.9,0.4-0.9,0.8
				C199.2,247.8,199.1,248.8,199,250.1z M186.7,245.7c-1.3,0-2.4-0.4-3.7,0.7c1.3,0.8,2.4,1.4,3.7,2.2
				C186.7,247.5,186.7,246.8,186.7,245.7z M200.4,236.2c2.3,0,2.3-0.1,2-2.9c-0.6,0-1.2,0-2,0C200.4,234.4,200.4,235.2,200.4,236.2z
				 M175.3,237.8c0.2-0.1,0.3-0.1,0.5-0.2c0-1.2,0-2.5,0-3.8c-0.7,0-1.3,0-2.2,0C174.3,235.3,174.8,236.5,175.3,237.8z M225.7,268.9
				c-0.2-1.3-1.1-1.6-2.1-1.6c-1,0-1.3,0.7-1.3,1.6C223.5,268.9,224.6,268.9,225.7,268.9z M206.5,246c-2.4-0.3-2.4-0.2-2.1,2.3
				C205.3,247.8,206.5,247.7,206.5,246z M211.7,215.9c-0.5,2.4-0.5,2.4,1.5,2.5C212.7,217.6,212.3,216.9,211.7,215.9z M206.5,210.4
				c-0.3,1.8-0.3,1.8,2,1.6C207.8,211.4,207.2,211,206.5,210.4z M179.6,212.4c0.1,0.1,0.3,0.3,0.4,0.4c0.3-0.4,0.6-0.7,0.9-1.1
				c-0.1-0.1-0.2-0.2-0.3-0.3C180.3,211.8,180,212.1,179.6,212.4z"/>
			<path class="st0" d="M439.7,851.5c-4.2-0.7-8.1-1.4-12.1-2c-7.8-1-15.6-1.1-23.5-0.5c-2.6,0.2-5.2,1.2-8,1.9
				c-1.6-2.1-3.3-4.4-5-6.7c-1.1-1.5-1.4-3-0.7-4.7c0.8-1.7,1.5-3.5,2.3-5.3c0.8-1.6,1-3.3,0.7-5.1c-1.3-8.6-2.4-17.3-3.8-25.8
				c-2.9-17.9-7.4-35.3-12.4-52.7c-3.8-13.1-7.5-26.3-10.9-39.5c-2.3-9-3.9-18.1-5.9-27.2c-1-4.6-1.5-9.3-1.3-14
				c0-0.5,0.1-1.1,0.2-2.1c14.7,23,30.8,44.2,51,62.1c-0.2-0.3-0.3-0.6-0.6-0.9c-16.5-19.9-33-39.7-48.2-60.7c-1-1.4-1.8-2.7-2-4.5
				c-0.2-2.3-2.4-3.2-4.2-4.2c-1.5-0.8-3-1.5-4.4-2.4c-1.3-0.9-1.4-1.3-0.8-2.8c0.3-0.7,0.8-1.4,1-2.2c0.4-1.4,1.1-2.9,1.1-4.4
				c0.2-11-0.6-21.9-2-32.8c-2.7-21.9-7.5-43.5-12-65.1c-2.5-12-4.9-24-7.1-36c-0.8-4.2-1.3-8.5-1.7-12.8c-0.2-2.6-1.3-4.6-3.5-5.9
				c-2.7-1.7-5.4-3.4-8.3-4.8c-4.7-2.4-9.5-4.4-14.8-6c0.3,1.1,1.2,1.3,1.8,1.6c5.2,3,10.5,5.9,15.7,8.8c1.6,0.9,3,2.1,4.5,3.1
				c0.9,0.7,1.4,1.6,1.6,2.8c0.2,2.2,0.8,4.4,0.8,6.7c0.1,2.4-0.1,4.8-0.4,7.1c-1.4,11.4-3.1,22.8-5.7,34
				c-3.5,14.8-6.9,29.6-10.7,44.3c-1.7,6.7-4,13.3-6.1,19.9c-0.5,1.8-1.1,3.5-1.7,5.3c-0.8,2.3-0.3,4.2,1.5,5.9
				c0.2,0.2,0.4,0.3,0.5,0.5c2.5,2.2,2.5,3,0.1,5.4c-1.3,1.2-2.4,2.5-3,4.3c-0.8,2.4-0.6,3.3,1.5,4.9c0.2,0.2,0.5,0.4,0.6,0.6
				c-0.6,4.9-1.2,9.7-1.6,14.6c-0.7,7.1-1.2,14.2-1.8,21.3c-1.6,19.2-1.2,38.5-0.6,57.8c0.3,10.1,1,20.3,1.6,30.4
				c0.6,10,1.6,19.9,2.1,29.9c0.4,7.5,0.4,15,0.7,22.5c0.2,4.4,0.5,8.8,0.8,13.2c0.2,2.4-0.2,3.1-2.4,4.1c-0.7,0.3-1.5,0.6-2.1,1.1
				c-1.8,1.1-2.1,2.8-0.7,4.5c0.5,0.7,1.2,1.3,1.8,2c1.1,1.3,1.1,1.8-0.3,3c-0.6,0.5-1.3,0.9-2.1,1.4c-5.1-4.4-11.5-5.4-17.7-7
				c-6.1-1.6-12.3-2.1-18.5-2.8c-2.4-0.3-4.7-0.7-7.1-1.1c-0.7-0.1-1.4-0.5-2.5-0.9c1.1-1.1,2-1.9,2.8-2.8c1-1.1,2.1-2.2,3-3.4
				c1.8-2.5,1.4-4.6-0.9-6.5c-0.7-0.6-1.6-1.1-2.4-1.6c-0.6-0.4-1.3-0.9-2.1-1.4c0.6-1,1.1-1.8,1.7-2.5c1.6-2.2,3.2-4.4,4.8-6.6
				c1.2-1.7,1.7-3.5,1.7-5.6c0.2-15.4-0.4-30.9-1.7-46.3c-0.8-9.9-1.5-19.8-2.5-29.6c-1-10-2.2-20-3.6-30c-1.4-10.1-3-20.1-4.6-30.1
				c-0.5-3.2-1.2-6.4-1.9-9.6c-0.7-3.5-1.3-7.1-1.2-10.7c0.1-1.4,0-2.7,0-4.1c0-2.7-1.1-4.7-3.4-6.2c-2.5-1.6-2.5-1.7-1.8-4.5
				c2-8.1,3-16.3,3.8-24.6c1.1-10.7,2.1-21.5,3.2-32.2c0.9-8.9,1.8-17.8,3-26.7c1.7-12.8,3.8-25.6,5.5-38.4c1.3-9.5,2.5-19,3.6-28.5
				c0.8-7.3,1.4-14.6,2.2-21.9c0.3-2.8-0.4-5.4-1.2-8c-0.5-1.5-0.2-2.4,0.8-3.6c1.9-2.5,3.4-5.2,5.1-7.8c0.5-0.8,0.9-1.7,1.5-2.7
				c3.3,1.7,6.5,3.3,9.7,5c3.6,2,7.1,4.1,10.6,6.1c4.1,2.3,8.5,4.1,13.1,5.2c6.4,1.6,12.7,3.3,19.1,4.4c8.9,1.5,17.6,4.1,26.4,5.8
				c10,1.9,19.9,4,29.9,5.7c3.7,0.7,7.5,0.8,11.2,1.2c2.3,0.2,3.8-0.8,4.6-2.9c0.3-1,0.8-1.9,1.6-2.8c0.2,1.7,0.4,3.5,0.5,5.2
				c0.8,9.6,1.6,19.3,2.4,28.9c0.5,6.1,0.7,12.3,1.1,18.4c0.7,10.5,1.4,20.9,2.2,31.3c0.7,9.9,1.5,19.8,2.3,29.7
				c1.1,15.5,2.1,31,3.4,46.4c0.9,9.9,2.2,19.9,3.5,29.8c1.5,11,3.5,21.9,5.1,32.9c1.2,8.4,2.2,16.8,3.2,25.2
				c0.8,6.3,1.6,12.7,2.4,19c1.2,9,2.1,18,4.2,26.7c1.6,6.4,3.4,12.8,5.1,19.2c0.6,2.2,1.1,4.3,1.6,6.5c0.8,4.1,0.6,8.1-0.5,12.1
				c-1.2,4.3-0.7,8.4,1.7,12.2c1.1,1.8,1.8,3.6,1.3,5.8c-0.6,2.8,0.5,5.4,2,7.7c1.3,1.9,2.8,3.7,4.1,5.6c0.6,0.8,1.2,1.7,1.9,2.5
				c0.7,1,0.8,2.1,0.4,3.2c-2.1,4.8-2.1,10-3.2,15C440,849.2,439.9,850.2,439.7,851.5z M297.3,673.6c-0.2,0-0.3-0.1-0.5-0.1
				c-10.7,50.2-21.5,100.4-32.3,151.1c0.4-0.8,0.6-1.2,0.7-1.5c2.3-7.2,4.8-14.2,6.7-21.5c7-26.7,12.1-53.8,17.3-80.9
				c2.6-13.6,4.8-27.2,7.1-40.9C296.7,677.7,297,675.7,297.3,673.6z M399.6,823.8c0-0.2,0-0.3,0-0.5c0.7-0.1,1.4-0.3,2-0.3
				c4.2,0.2,8.5,0.3,12.7,0.8c4.8,0.5,9.6,1.4,14.5,2c1.7,0.2,3.3,0.5,5,0.5c1.9,0,2.6-1.3,1.7-2.9c-0.4-0.7-0.9-1.3-1.4-1.9
				c-1.3-1.3-2.6-2.6-4-3.8c-4.7-4.1-9.4-8.2-14.2-12.2c-9.1-7.6-17-16.5-24.5-25.6c-0.6-0.7-1-1.4-1.5-2.1
				c0.9,4.9,3.4,8.9,6.5,12.4c4.5,4.9,9.2,9.8,14.1,14.3c5.8,5.4,12,10.4,17.9,15.6c1.2,1,2.2,2.2,3.4,3.2c-0.1,0.2-0.2,0.4-0.2,0.5
				c-1.4-0.1-2.8-0.1-4.2-0.3c-4.9-0.6-9.8-1.5-14.7-1.9c-4-0.3-8-0.3-12-0.2c-1.2,0-2.9,0.3-3,1.8c-0.2,1.6,1.5,1.8,2.7,2.2
				c3.9,1.1,7.9,2.1,11.8,3.3c8,2.5,15.8,5.6,22.9,10.3c1.6,1,3,2.3,4.9,3.8c-1.1-2.2-2.6-3.2-4-4.3c-4.2-3.3-8.9-5.6-13.8-7.6
				c-6.2-2.6-12.6-4.5-19.1-6.2C401.9,824.5,400.8,824.2,399.6,823.8z M301.7,629.4c0.1-0.1,0.2-0.3,0.3-0.4
				c-5-5.1-15.4-11.2-20.8-13.5c-0.6-0.3-1.2-0.5-1.8-0.7c-0.8-0.3-1.6-0.3-2.2,0.5c-0.6,0.8-0.2,1.6,0.3,2.2
				c0.5,0.6,1.1,1.1,1.7,1.6c5.4,4.7,10.8,9.5,16.2,14.2c0.7,0.6,1.3,1.5,2.1,2.5c-2.5,0.9-4.6,1.6-6.7,2.4
				c-6.5,2.3-12.7,5.2-18.6,8.9c-0.9,0.6-1.8,1.3-2.5,2.2c-0.4,0.4-0.5,1.5-0.2,1.9c0.3,0.4,1.2,0.5,1.8,0.6c0.4,0,0.7-0.2,1.1-0.4
				c2.8-1,5.5-2.1,8.3-3.1c0.3-0.1,0.6-0.4,0.8-0.5c0-0.1-0.1-0.2-0.1-0.3c-2.1,0.6-4.1,1.1-6.2,1.7c0.6-0.8,1.4-1.3,2.1-1.7
				c5.3-2.9,10.8-5.2,16.5-7.2c1.6-0.5,3.2-1.1,4.7-1.9c2-1,2.3-2.5,1.2-4.4c-0.5-0.7-1-1.4-1.6-2.1c-1.2-1.3-2.5-2.5-3.8-3.7
				c-1.8-1.7-3.6-3.3-5.4-4.9c0.1-0.1,0.1-0.2,0.2-0.2C293.4,625.2,297.6,627.3,301.7,629.4z M429.9,799.5c0.1-0.1,0.1-0.2,0.2-0.3
				c-2.3-2.4-4.6-4.8-6.9-7.3c-11.3-11.9-21-24.9-28.9-39.3c-4.7-8.5-9.1-17.2-13.7-25.8c-0.3-0.5-0.6-0.9-0.9-1.4
				c-0.1,0.6,0,1.1,0.2,1.5c2.2,5.1,4.4,10.3,6.7,15.4c5.1,11.3,11.1,22.1,18.5,32.1c4.8,6.4,10,12.5,16,17.8
				C423.8,794.9,426.9,797.1,429.9,799.5z M290.3,809.7c-0.3,0.9-0.7,1.7-1,2.6c2.8-3.5,4.3-7.4,3.7-9.4c-3,2.3-5.1,5.3-7.7,7.8
				c-2.7,2.5-5.4,5-8.2,7.4c-2.8,2.4-5.7,4.7-8.5,7c-2.8,2.3-5.6,4.6-8.3,6.8c0.1,0.1,0.2,0.3,0.3,0.4c1-0.5,2.1-1,3.1-1.6
				C273.4,824.9,282.4,818,290.3,809.7z M299.4,644.3c-8.4,9.3-15.4,19.7-21.1,30.9C285.4,665,293.2,655.1,299.4,644.3z
				 M292.7,830.8c-1.2-0.2-2.1-0.6-3.1-0.6c-4.5-0.3-8.9-0.8-13.4-0.3c-1,0.1-2-0.1-3.2-0.2c-0.3,0.4-0.2,0.9,0.5,1.1
				c0.9,0.2,1.9,0.4,2.8,0.4C281.6,831.1,287,830.9,292.7,830.8z M283.6,819.8c0.1,0.1,0.2,0.1,0.3,0.2c0.2-0.2,0.4-0.5,0.6-0.7
				c-0.1-0.1-0.2-0.1-0.3-0.2C284,819.3,283.8,819.6,283.6,819.8z"/>
			<path class="st1" d="M371.2,228.5c0.7,0.6,1,0.8,1.3,1.1c2,1.6,3,1.5,4.1-0.8c3.4-6.8,8-12.9,12.3-19.2c1.7-2.4,3.6-4.7,5.4-7.1
				c0.6-0.8,1.2-1,2.2-0.8c8,1.7,15.4,4.8,22.3,9.1c1.2,0.7,1.7,1.6,1.6,2.9c-0.1,1-0.1,2.1-0.3,3.1c-2.3,11.7-4.5,23.4-6.9,35
				c-1.9,9.3-3.8,18.6-5.9,27.9c-1.9,8.6-4.3,17-6.2,25.6c-1.2,5.4-1.9,10.8-2.7,16.3c-1.6,11.4-3.2,22.8-4.6,34.2
				c-0.4,3.2-0.2,6.5-0.3,9.8c0,0.5-0.1,0.9-0.2,1.5c-2.6,0.5-5.2,1-7.8,1.4c-1.8,0.3-3.6,0.6-5.4,1.1c-0.8,0.2-1.7,0.8-2,1.4
				c-1.6,3.8-3.2,7.7-4.5,11.6c-0.9,2.9,1.1,5,4.1,4.8c1.8-0.1,3.3-0.9,4.4-2.1c0.8-0.9,1.6-1.9,2-2.9c0.8-1.9,2.1-2.7,4.1-2.5
				c0.6,0.1,1.3-0.1,1.9,0c0.5,0.1,0.9,0.6,1.7,1.1c-1.1,0.6-1.7,1-2.4,1.4c-5.4,2.8-10.4,6.3-15.2,10c-3.3,2.5-4.3,5.6-3.4,9.7
				c0.6,2.9,0.5,6,0.6,9c0.1,1.4,0.1,2.9,0,4.3c-0.1,1.9,0.8,3.2,2.4,4c0.6,0.3,1.2,0.6,1.8,0.7c1.5,0.2,2.4,1.1,3,2.4
				c0.3,0.6,0.6,1.1,1,1.6c1.4,2.1,2.7,2.4,4.9,1.1c1.8-1.1,3.4-2.4,5.1-3.6c0.5-0.3,0.9-0.7,1.4-0.9c1.1-0.5,2,0,2,1.2
				c-0.2,5.2,2,10,2.3,15.1c0.2,3,0,6,0,9.2c-4.7,2.2-9.5,4-14.6,5.2c-9.8,2.3-19.8,3.7-29.9,4c-6.9,0.2-13.9,0.2-20.9,0.1
				c-7.4-0.1-14.5-2-21.7-3.8c-2.3-0.5-4.5-1.2-6.7-1.9c-4.6-1.3-8.8-3.4-12.9-5.7c-7.6-4.2-15.2-8.2-22.7-12.4
				c-1-0.6-2.1-1.2-3.2-1.8c0.4-0.9,0.7-1.6,1.1-2.3c1.8-3.2,1.7-6.3-0.4-9.3c-1-1.5-1.1-2.7-0.5-4.4c2.7-7.8,4.6-15.8,6.1-23.9
				c4-21.5,6.2-43.2,5.3-65.1c-0.3-8-1.1-16-1.7-23.9c-0.6-7.2-1.3-14.3-2-21.5c-1.4-14.5-2.9-29-4.4-43.4c-0.5-4.7-1.4-9.3-2.1-14
				c-0.4-2.8-0.6-5.5-0.8-8.3c-0.1-1.6,0.5-2.9,1.8-3.7c1.7-1.1,3.5-2.4,5.4-3.1c4-1.3,8.1-2.3,12.2-3.4c0.4-0.1,0.9,0,1.7,0
				c-0.3,2.8-0.5,5.5-0.8,8.2c-0.3,2.7-0.6,5.4-0.9,8.1c0,0.5-0.1,1,0,1.4c0.3,1.1,1.2,1.6,2.2,1.1c0.8-0.4,1.4-1,2-1.6
				c3.5-3.3,7-6.6,10.5-9.8c1.3-1.2,2.8-2,4.4-3.1c1,1.4,2,2.6,2.8,3.9c0.3,0.5,0.3,1.4,0.1,2.1c-2.6,13.8-4.5,27.8-6,41.8
				c-0.8,7.6-1.2,15.2-0.2,22.7c1.7,13.2,7.8,23.6,19.2,30.9c7.5,4.9,15.6,6.4,24.3,5.2c2-0.3,4.1-1,5.8-2
				c7.7-4.4,13.6-10.5,17.2-18.8c2.2-5.2,4.6-10.4,5.8-16c1.3-6.2,2.1-12.5,1.9-18.8c-0.3-9.1-0.9-18.2-1.3-27.3
				C371.4,230.9,371.3,230,371.2,228.5z M270.9,387.5c-0.1,0.2-0.2,0.4-0.3,0.6c21.8,14,45.8,23.6,69.5,33.8c-0.7,0.1-1.3,0.1-1.9,0
				c-7.8-1-15.5-2.1-23.3-2.8c-12.5-1.3-25-1.7-37.6-1.3c-3.2,0.1-6.4,0.6-9.5,0.9c-0.7,0.1-1.5,0.1-1.6,1.1c1-0.1,1.9-0.3,2.8-0.3
				c3.4,0,6.9,0,10.3,0.2c10.7,0.6,21.4,1.1,32.1,2c11.2,1,22.4,2.3,33.6,3.5c3.8,0.4,7.6,1.1,11.1,2.8c0.8,0.3,1.6,0.5,2.4,0.8
				c0-0.1,0.1-0.2,0.1-0.2c-0.7-0.4-1.3-0.8-2-1.2c0-0.1,0.1-0.1,0.1-0.2c2.2,0.4,4.3,0.8,6.5,1.2c-0.3-0.5-0.7-0.8-1.1-0.9
				c-3.9-1-7.7-2-11.6-3c-1.5-0.4-3-0.7-4.4-1.3c-15.4-7-30.9-13.9-46.2-21.1c-9-4.2-17.7-8.9-26.5-13.4
				C272.6,388.3,271.8,387.9,270.9,387.5z"/>
			<path class="st2" d="M368.2,124.3c0.6-1.3,1.1-2.3,1.7-3.4c-0.1-0.1-0.2-0.3-0.3-0.4c-2.7,1-5.5,2-8.1,3.8c1.7,1.6,3.6,1,5.5,0.5
				c-0.4,4.9-0.8,9.6-1.3,14.2c-0.3,3-1.9,5.6-3.8,7.9c-2.7,3.3-5.5,6.6-8.3,9.9c-2,2.3-3.9,4.6-5.9,7c-2.7,3.3-6.1,5.4-10.1,6.5
				c-2,0.5-2.3,0.5-3.2-1.4c-1-2.2-1.9-4.5-2.9-6.8c-1.1,1.7-1.1,2.7,0.6,9.4c-0.9,0.7-1.7,0.6-2.2-0.6c-0.9-2-1.8-3.9-2.7-5.9
				c-0.2-0.5-0.4-1-0.7-1.6c-0.7,2.3-0.6,3.5,0.8,8.6c-1.7,0.9-1.8,0.9-2.5-0.6c-1.1-2.6-2.1-5.2-3.3-8.2c-0.9,3.5,0,6.5,0.5,10
				c-2.1-1.3-2.3-3.2-3-4.8c-0.7-1.6-1.3-3.2-2.2-4.9c-0.6,1.2-0.4,2.5-0.4,3.8c0,1.3,0.7,2.7-0.9,3.9c-1-2.5-1.9-4.9-3-7.7
				c-1,2.4,0,4.7-0.1,7.5c-1.1-1.3-1.9-2-2.5-2.9c-2.9-4.7-5.9-9.3-8.5-14.2c-3.2-6.2-6-12.7-9-19.1c-2-4.2-2.6-8.7-2.8-13.3
				c-0.3-6-0.6-12-0.9-18c-0.1-1.6-0.4-3.2-0.7-4.8c1-1.1,2.3-1.3,3.7-1.6c5.4-1.1,10.8-0.9,16.2-0.4c0.8,0.1,1.6,0.2,2.4,0.1
				c1.6-0.2,2.3-1.1,1.8-2.7c-0.9-2.8-2.5-5-5.1-6.4c-1-0.5-2.3-0.6-3.5-0.4c-5,0.6-9.7,2.1-14.2,4.2c-0.7,0.3-1.4,0.7-2.4,1.1
				c-0.1-0.5-0.2-0.9-0.2-1.2c1.4-7.5,2.5-15.1,2.9-22.9c3-0.9,6-1.4,9-1.6c4.2-0.3,8.5-0.6,12.7-0.9c1.6-0.1,3,0.2,4.3,1.2
				c1.8,1.4,3.6,2.9,4.5,5.1c0.2,0.5,0.9,1.1,1.3,1.1c0.4,0,1-0.7,1.3-1.2c0.7-1.2,1.3-2.4,1.8-3.7c0.6-1.7,1.9-2.3,3.6-2.7
				c9.8-1.8,19.1-0.6,27.9,4.2c1.1,0.6,1.7,1.3,1.6,2.6c-0.3,4.2-0.5,8.5-0.7,12.7c-0.3,4.8-0.5,9.6-0.7,14.4
				c-0.1,1.6,0.3,3,1.6,4.1c0.5,0.5,0.7,1.3,0.9,2.1c0.2,0.6,0,1.3,0.1,1.9c0.2,1.9,0.5,2.5,2.4,2.7c2.6,0.3,5.3,0.3,7.9,0.4
				c1.3,0,1.9-0.7,2.1-1.9c0.7-2.9,1.4-5.9,2.2-8.8c0.3-1.2,0.6-2.5,1.3-3.6c0.7-1.2,1.6-2.4,2.7-3.2c3.2-2.3,5.5-1.7,7.6,1.6
				c1.5,2.3,2.2,4.8,2.3,7.5c0.2,8.8-2.3,16.5-9.1,22.6c-1.7,1.5-3.5,2.7-5.8,3.2c-1.9,0.4-2.6,0.1-3.3-1.8
				C368.8,125.9,368.5,125.1,368.2,124.3z M291,117.9L291,117.9c0.3,0.8,1.1,1.2,1.9,0.9c0.7-0.2,1.4-0.7,2-1.2
				c0.2-0.2,0.2-1.1,0-1.2c-0.7-0.4-1.6-0.9-2.3-0.8c-0.7,0.1-1.5,0.8-2.1,1.3C290.4,116.8,290.8,117.5,291,117.9z M340.4,120.3
				c0,0.4-0.2,0.8,0,1c1.1,1.4,4.4,1.2,5.2-0.4c0.2-0.4,0-1.5-0.3-1.6c-0.9-0.4-1.9-0.6-2.9-0.6
				C341.4,118.7,340.6,119.1,340.4,120.3L340.4,120.3z M368.9,117.3c-1.6,0.5-3.2,0.9-4.8,1.4c-0.9,0.3-2,0.5-2.4,1.7
				c2.4,1.7,6.1,1.1,7.6-1.3C369.7,118.4,370.1,117.6,368.9,117.3c0.4-0.7,1.8-0.8,1.4-2.3c-2.6-1-5.2-0.2-7.8,0.3
				c-0.8,0.1-1.6,0.6-1.8,1.6c0.9,1,2,1.2,3.1,1.1C365.4,117.8,367.1,117.5,368.9,117.3z M310.5,112.3c0,2.4-0.5,4.4-1.5,6.2
				c-1.4,2.2-2.9,4.4-4.4,6.5c-1.2,1.7-1.8,3.4-1,5.4c1.9,4.8,7.6,7.7,12.6,6.2c0.8-0.2,1.5-0.7,1.4-1.7c-0.1-1-0.9-1.2-1.8-1.2
				c-1.1,0-2.2,0-3.4,0c-2.8,0.1-4.6-1.6-5.8-3.9c-0.6-1-0.5-2,0.2-2.9c0.4-0.5,0.8-1,1.2-1.5c1.4-2.2,3-4.2,4-6.5
				c2-4.5,2.5-9.1-1-13.3c-0.4-0.4-0.5-1-0.8-1.5c-3.4-6.1-11-7.6-16.5-3.3c-2.5,2-2.9,5-1.1,7.7c1.1,1.6,2.7,2.5,4.5,3
				C301.4,112.9,305.7,113.1,310.5,112.3z M334.7,112.3c5.3-0.3,9.6-1.8,13.6-4c4.4-2.3,4.7-6.5,0.9-9.7c-0.5-0.5-1.2-0.9-1.8-1.2
				c-5.8-3.4-14.1-2.4-18.9,2.2c-1.5,1.4-2.6,3-3.2,5c-0.8,2.8,0.4,5.3,3.1,6.2C330.5,111.5,332.9,111.9,334.7,112.3z M330.3,86.4
				c-1.3,0.1-2.4,0.1-3.5,0.3c-3.3,0.5-5,2.7-4.6,6.1c0.2,1.9,0.8,3.1,3.3,2.5c5.9-1.4,11.7-1.3,17.6,0c2.7,0.5,5.3,1.3,7.9,1.9
				c0.6,0.1,1.6,0.2,1.9-0.2c0.7-0.7,0-1.5-0.6-2c-1.3-1.1-2.5-2.3-3.9-3.1C342.7,88.5,336.6,86.9,330.3,86.4z M342.2,138
				c-0.4-0.5-0.6-1.1-1-1.2c-0.5-0.1-1.3-0.1-1.5,0.2c-0.7,0.9-1.5,1.9-1.7,3c-0.3,1.5-1.1,2.1-2.5,2.5c-3.9,1.1-7.8,2.3-11.7,3.4
				c-4.2,1.2-8.5,2.3-12.7,3.3c-0.9,0.2-1.9,0.1-2.9,0.3c-1.2,0.2-1.7,1.1-1.2,2.1c0.5,0.9,1.9,1.5,2.9,1.2c0.5-0.2,1-0.5,1.6-0.6
				c8-1.6,15.6-4.7,23.2-7.4c2.3-0.8,4.3-2.4,6-4.3C341.3,139.7,341.7,138.8,342.2,138z M382.6,99c-2.4-0.5-3.7,0.6-4.8,1.9
				c-2.7,3.1-4.3,6.7-4.9,10.7c-0.3,1.8,0,2.3,1.8,2.8c1.7,0.5,2.3,1.6,2.5,3.1c0.1,1.6-0.5,3-2,3.8c-0.5,0.3-1,0.4-1.6,0.6
				c-0.7,0.3-1.4,0.9-0.9,1.6c0.3,0.5,1,0.8,1.7,1c0.3,0.1,0.8-0.1,1.1-0.2c2.5-0.8,4.1-2.5,4.5-5.1c0.5-2.7-0.1-5.1-2.4-6.9
				c-0.5-0.4-1-0.7-1.6-1.1C376.7,106.5,379.7,103,382.6,99z M349.4,121.3c-0.7,0.2-1.4,0.2-1.8,0.5c-0.5,0.4-1.1,1-1.1,1.6
				c0,0.4,0.6,1.1,1,1.4c1.2,0.6,2.5,0.6,3.6-0.1c0.5-0.3,0.9-1,0.9-1.5c0-0.5-0.6-1.1-1-1.4C350.6,121.4,350,121.4,349.4,121.3z
				 M349.1,119.5c0.8-0.2,1.7-0.3,2.4-0.8c0.5-0.3,1.1-1.1,1.1-1.6c0-0.5-0.7-1.3-1.2-1.6c-1.5-0.8-4,0.2-4.7,1.8
				c-0.4,0.8-0.1,1.4,0.7,1.8C347.9,119.3,348.4,119.3,349.1,119.5z M298.7,120.8c0.7-0.4,1.5-0.9,2.3-1.5c0.1-0.1-0.1-0.8-0.4-1
				c-0.9-0.8-1.9-0.6-2.9-0.2c-0.3,0.1-0.6,0.3-0.8,0.5c-0.7,0.7-0.6,1.4,0.3,1.9C297.6,120.5,298,120.6,298.7,120.8z M294.2,119.7
				c-1.6,0-2.6,0.6-2.6,1.4c0,0.9,0.6,1.2,1.4,1.2c1.1,0,2.3-0.7,2.1-1.4C295.1,120.3,294.4,119.9,294.2,119.7z"/>
			<path class="st2" d="M376.3,385.4c0.2-1,0.2-1.9,0.5-2.7c1.1-2.9,2.3-5.8,3.4-8.7c0.3-0.8,0.9-1.3,1.7-1.5
				c5.1-1,10.1-2.3,15.4-2.1c3,0.1,3.3,0.4,4.6,3.2c1.7,3.9,3.4,7.8,5.4,11.5c1.1,2,2.6,3.8,4.2,5.5c1.4,1.4,2.9,2.5,5.2,1.2
				c1.7-0.9,3.9-0.9,5.7-1.7c6.3-3.2,10.9-8.1,14.1-14.3c2.8-5.5,5.5-11,8.1-16.6c0.9-1.9,2.2-3,4.1-3.7c5.3-2.1,10.8-3.4,16.3-4.7
				c1.6-0.4,3.1-0.8,4.6-1.2c0.4-0.1,0.8-0.3,1.2-0.3c3.7,0.1,7.5,0,11.1,1.3c0.7,0.2,1.4,0.8,1.8,1.4c3,4.6,5.3,9.5,5.9,15
				c0.3,2.7-0.3,5.3-1.1,7.8c-0.5,1.7-2,2.7-3.4,3.6c-5.8,3.8-11.8,7.4-18.1,10.4c-12.3,5.8-24.2,12.4-35.9,19.3
				c-5.1,3-10.3,5.8-15.4,8.8c-2.3,1.4-4.5,3-6.7,4.7c-1.5,1.1-2.8,1-4.5,0.3c-3.6-1.4-7.4-2.6-11.1-3.9c-1.8-0.6-3.4-0.3-4.9,0.9
				c-1.9,1.5-3.8,2.8-5.9,4.4c-1.3-2.1-2.5-4-3.8-6.1c0.8-0.6,1.5-1.2,2.2-1.6c4.9-3,10-5.4,15.5-6.9c3.3-0.9,3.5-0.7,5,2.3
				c0.6,1.1,1.3,2.2,2,3.3c0.5,0.7,1.2,1.2,2.4,1c-0.9-2.5-1.7-4.9-2.7-7.2c-1-2.3-2.6-3.1-5-2.8c-1.3,0.2-2.7,0.5-4,0.9
				c-5.3,1.8-10.5,4-15.2,7.1c-1.4,0.9-2.5,2.1-3.9,3.4c-0.1-0.2-0.6-0.6-0.6-1c-0.1-2.1-0.1-4.2,0.1-6.2c0.1-0.9,0.8-1.9,1.4-2.6
				c1.1-1.2,2.3-2.2,3.6-3.1c4.5-3.1,9.1-6.2,13.7-9.2c0.5-0.4,1.1-0.6,1.7-0.9c2.1-1,2.3-0.9,3.9,0.8c0.9,0.9,1.7,1.9,2.7,2.7
				c0.4,0.4,1.1,0.6,1.8,0.7c-1-2.5-2.2-4.9-4.1-6.9c-1.2-1.2-2.8-1.3-4.2-0.5c-2.8,1.5-5.7,2.9-8.3,4.7c-3.8,2.6-7.5,5.5-11.2,8.2
				c-0.2,0.2-0.5,0.3-0.9,0.6c-0.8-1.8-1.3-3.5-1-5.4c0.1-0.8,0.6-1.7,1.2-2.2c1.2-1.2,2.5-2.5,4-3.4c4.3-2.8,8.8-5.6,13.2-8.3
				c0.5-0.3,1.2-0.5,1.7-0.8c1-0.5,1.8-0.2,2.4,0.7c0.6,0.9,1.1,1.7,1.8,2.6c0.5,0.7,1.1,1.4,2.4,1.4c-1.1-2.2-1.8-4.3-3.1-6.1
				c-0.7-1-2.2-1.3-3.7-2.2c-1-2.4-1.1-2.2-4.3-2.6c-3.8-0.5-6.4,0.5-7.8,4.4C380.8,383.9,379,385.2,376.3,385.4z"/>
			<path class="st3" d="M337.1,24.3c0.8,0.4,1.3,0.5,1.7,0.7c4.5,2.6,9,5.2,13.5,7.8c1,0.6,2,1.6,3.3,0.8c1.2-0.8,0.7-2.1,0.7-3.3
				c0-1-0.1-2.1,0.1-3.1c0.4-1.6,1.5-2.2,3.1-1.6c1.4,0.5,2.8,1.3,4,2.1c6.6,4.3,10.1,10.3,10.5,18.1c0,0.6,0,1.1,0.1,1.7
				c0.1,2.5,0.3,2.9,2.7,3.6c6.9,1.9,9.3,6.9,9.7,13.2c0.4,5.6-0.7,11-1.7,16.4c-0.5,2.8-1.1,5.6-1.7,8.5c-0.7,0.1-1.3,0.1-1.8,0.2
				c-4.3,0.3-7.5,2.3-9.3,6.2c-1,2.2-1.4,4.6-2,6.9c-0.5,2-0.8,4-1.3,6.2c-2.2,0-4.1,0-6.1,0c-1,0-1.5-0.5-1.4-1.5
				c0.2-2.1-0.4-3.9-2.1-5.3c-0.4-0.3-0.4-1.3-0.4-2c0.1-3.1,0.4-6.2,0.6-9.3c0.4-6,0.7-12,1.2-17.9c0.2-1.9-0.5-3-2.1-3.9
				c-9-5-18.5-7.3-28.9-5.4c-0.5,0.1-0.9,0.2-1.4,0.3c-3,0.2-5.2,1.3-6.2,4.3c-0.1,0.2-0.2,0.4-0.4,0.6c-0.1,0.1-0.2,0.2-0.6,0.5
				c-1.6-1.9-3.8-3.1-5.2-5.4c-6.6-11.2-16.3-17.5-29.3-18.8c-2.4-0.2-4.7-0.3-7.6-0.5c0.9-0.9,1.4-1.6,2-2.1
				c4.4-3.8,9-7.2,14.1-9.9c7.9-4.2,16.4-5.2,25.1-4.2c5.4,0.6,10.8,1.5,15.9,3.4c0.5,0.2,1.6,0.1,1.9-0.3c0.4-0.4,0.3-1.3,0.2-2
				c-0.1-0.7-0.6-1.3-0.8-2C337.4,26.3,337.3,25.4,337.1,24.3z"/>
			<path class="st2" d="M239.2,267.3c-3.9-0.8-7.8-1.7-11.7-2.4c-4.8-0.9-5.1-0.8-7.9,3.2c-0.1,0.2-0.3,0.4-0.6,0.8
				c-0.9,0-1.9-0.1-2.9,0c-0.8,0.1-1.7,0.5-2.3,1c-0.3,0.3-0.4,1.2-0.2,1.7c0.1,0.3,0.9,0.6,1.4,0.6c3.3,0,6.7-0.3,10-0.1
				c4.2,0.3,8.4,0.9,12.6,1.4c0.8,0.1,1.5,0.4,2.3,0.7c1,0.4,1.6,1.1,1.8,2.1c0.3,1.4,0.5,2.8,0.8,4.1c-4.5-0.1-8.8-0.3-13.2-0.3
				c-1.6,0-3.2,0.3-4.8,0.5c-0.4,0-0.8,0.2-1.2,0.3c-0.8,0.2-1.3,0.7-1.2,1.6c0.1,0.9,0.8,1.2,1.6,1.2c0.6,0,1.1-0.1,1.7-0.2
				c5.1-0.6,10.2-0.6,15.3,0.1c2.6,0.4,4.3,1.6,4.7,4.3c0.2,1,0.5,2,0.8,3.1c-2.4-0.2-4.7-0.4-6.9-0.5c-2.3-0.1-4.6-0.2-6.9-0.4
				c-4.2-0.3-7.1,1.3-8.9,5.7c1.5-0.6,2.9-0.9,4-1.6c1.5-0.9,2.9-1.2,4.6-1.1c3.4,0.2,6.9,0.3,10.3,0.5c4.6,0.3,6.6,4.3,4.2,8.4
				c-0.1,0-0.3,0.2-0.4,0.1c-5.7-2.3-11.3-1.1-17,0.2c-1.9,0.4-3.4,1.5-4.3,3.2c-1.4,2.8-2.9,5.5-4.1,8.4c-1.2,2.7-3.7,4-6.4,2.7
				c-2.1-1-3.9-2.4-5.8-3.8c-2.5-1.9-4.8-3.9-7.2-5.9c-0.2-0.2-0.5-0.3-1.1-0.6c0.6,2.3,1.5,4,2.9,5.4c2.7,2.8,5.5,5.4,9,7.1
				c0.9,0.5,1.5,1.1,1.8,2.1c0.1,0.2,0.2,0.5,0.2,0.7c3.3,12.7,7.7,25,12.1,37.4c0.6,1.6,0.9,3.2,1.3,4.8c1,3.7,0,7-2.2,9.9
				c-5.1,6.7-15.7,7.7-22.1,2.2c-1.5-1.3-2.6-2.9-3-4.8c-0.8-3.2-1.5-6.4-1.9-9.6c-1-10-0.5-20-0.2-30c0.2-8.6-0.1-17.1-1.1-25.6
				c-0.7-6.4-1.3-12.7-0.2-19.1c0.3-1.7,0.6-3.3,1-4.9c0.2-0.7,0.5-1.4,1-1.9c2.2-2.1,3.6-4.7,4.8-7.4c1.8-4,3.5-8,5.2-12.1
				c1.8-4.4,2.4-5,7.1-4.7c5.7,0.4,11.5,1,17.2,1.5c1.9,0.2,3.1,1.1,3.8,2.8c0.7,1.5,1.4,3,2.1,4.6
				C239.7,265.5,240.1,266.4,239.2,267.3z"/>
			<path class="st4" d="M461.4,309c-0.6,0.5-1.2,1.1-1.9,1.6c-5.9,4.9-11.9,9.7-17.8,14.6c-2.5,2.2-4.8,4.7-7.1,7.1
				c-0.4,0.5-1,0.9-1.2,1.5c-1.1,3.6-4,2.9-6.9,3c-0.2-1.4-0.3-2.6-0.6-3.8c-0.4-2.3-0.7-4.6-1.4-6.8c-1-3.1-2.5-3.9-5.8-4
				c-1.8,0-3.7-0.1-5.5-0.5c-2.5-0.5-3-1.5-2.6-3.9c0.1-0.6,0.2-1.3,0.4-1.9c1.1-3.4,0.2-6.3-2-8.9c-1.3-1.6-2.5-3.2-4.2-5.3
				c6.7-24.1,10.9-49.4,16.5-74.9c0.4,0.8,0.7,1.2,0.8,1.6c5.1,14.9,12.1,28.9,19.8,42.6c3.4,6,7,11.9,10.7,17.6
				c4.7,7.1,10.6,13,18.4,16.8c1.2,0.6,1.5,1.4,1.1,2.5c-0.6,1.7-1.2,3.3-1.9,4.9c-0.3,0.6-0.9,1.1-1.5,1.5
				c-9.7,6-19.3,11.9-29,17.8c-1.5,0.9-3,1.7-4.8,2.2c0.4-0.4,0.8-0.9,1.2-1.3c7.5-7.6,15.7-14.3,23.9-21.1c1.4-1.1,2.6-2.3,3.9-3.5
				c0.4-0.4,0.8-0.8,1.1-1.3c0.2-0.4,0.3-1,0.1-1.3c-0.2-0.3-0.9-0.4-1.3-0.3c-0.9,0.3-1.8,0.6-2.7,1.1c-7.6,4-15.1,8-22,13.2
				c-1.2,0.9-2.4,1.7-3.6,2.5c0.1,0.2,0.2,0.3,0.3,0.5c8.4-4.7,16.8-9.4,25.2-14C461.3,308.8,461.4,308.9,461.4,309z M419.5,250.4
				c-0.2,0-0.4,0.1-0.5,0.1c0.5,1.8,1,3.6,1.5,5.5c2.9,11.3,5,22.8,6.7,34.3c1.5,10.5,2.8,21.1,2.5,31.8c0,1.2-0.3,2.4-0.5,3.6
				c1.1-0.2,1.5-1.2,1.7-2.2c0.5-2.7,1.1-5.5,1.3-8.3c0.4-6.1-0.4-12.1-1.1-18.2c-1.1-9.6-3.3-19.1-5.6-28.4
				C423.9,262.3,422,256.3,419.5,250.4z M418.1,271.9c-0.2,0-0.4,0-0.6,0.1c-0.1,13.7,0.8,27.3,0.6,41.4c1.5-1.3,1.8-2.7,2-4.1
				c0.9-6,0.7-12.1,0.2-18.1c-0.5-6.3-1.3-12.5-1.9-18.8C418.5,272.2,418.3,272.1,418.1,271.9z"/>
			<path class="st5" d="M257.8,838c3.3-0.5,6,0.8,8.4,2.7c4.3,3.3,6.2,7.8,6.4,13.1c0,1.1,0.1,2.2,0,3.4c-0.1,2.1,0.9,3.6,2.8,4.3
				c1.6,0.6,3.3,1,5.1,1.4c4.4,0.8,8.8,0,13.1-0.7c0.5-0.1,0.9-0.2,1.4-0.2c0.1,0,0.3,0.1,0.5,0.1c0.1,0.1,0.3,0.2,0.3,0.3
				c0.5,4,1.3,8,1.5,12.1c0.2,2.8-1.1,5.4-3,7.6c-1.3,1.4-2.8,2.2-4.8,2.2c-6.6-0.1-13.3-0.2-19.9,0c-5.3,0.2-10.7,0.7-16,1.2
				c-10.9,1-21.8,2.1-32.7,3.1c-3.3,0.3-6.7,0.8-10,1.2c-3.7,0.4-7.2,0-10.4-1.9c-0.9-0.5-1.7-1.2-2.4-1.9c-1.8-2-1.3-4,1.3-4.6
				c5.3-1.3,10.3-3.3,15.3-5.5c11.8-5.1,22.8-11.6,33.2-19.1c4.6-3.3,7.5-7.8,8.7-13.4C256.9,841.7,257.3,839.9,257.8,838z"/>
			<path class="st4" d="M336.3,311.7c0-2,0-3.9,0-5.8c0.1-2.6,0.3-5.3,0.3-7.9c-0.1-6.8-0.3-13.6-0.4-20.4c0-1.3,0.3-2.7,0.7-4
				c1.7-5.5,3.2-11,5.1-16.5c2.6-7.3,5.2-14.6,8.3-21.7c2.4-5.6,5.4-10.9,8.1-16.4c2.1,0.6,3.9,1.9,5.6,3.2c4.4,3.2,3.8,2,4.2,7.3
				c0.6,8.2,1.3,16.4,1.6,24.6c0.3,9.2,0,18.4-3,27.3c-1.8,5.3-4.1,10.6-6.8,15.6c-3.1,5.9-8.3,10.1-14.1,13.3
				C343.1,312,339.6,312.4,336.3,311.7z"/>
			<path class="st5" d="M444.3,870c2.8,5.6,5.7,10.9,7.1,16.9c0.4,1.5,0.3,3.2,0.2,4.8c-0.1,1.9-0.8,2.4-2.6,2.9
				c-0.7,0.2-1.4,0.3-2.1,0.3c-10.3,0.8-20.6,1.6-30.9,2.3c-5.3,0.3-10.5,0.7-15.8,0.6c-6.2-0.2-11.5-3-16-7.3
				c-1.3-1.2-1.3-2.7-0.6-4.2c1.1-2.1,2.2-4.3,3.6-6.2c3.9-5.4,6.9-11.2,9.1-17.4c0.9-2.6,2-5.2,2.9-7.9c0.5-1.5,1.4-2.3,2.9-2.4
				c2.1-0.2,4.3-0.5,6.4-0.5c2.6-0.1,5.1,0.1,7.7,0c4.3-0.2,7.3,2,9.5,5.5c0.8,1.3,1.5,2.6,2.2,4c1.7,3.1,4.1,5.5,7.2,7.2
				c1.8,1,3.6,1.6,5.7,1.6C441.8,870,442.9,870,444.3,870z M435.5,876.4c-0.5-1.9-1.7-3.1-3.3-3.7c-2.9-1-5.9-1.9-8.9-2.8
				c-4-1.2-8.1-1.4-12.1-0.8c-6.4,0.9-12.1,3.5-17.3,7.3c-2.2,1.6-4.1,3.6-5.1,6.3c4.4-3.4,9.3-5.9,14.3-8.2
				c5.8-2.7,12-3.5,18.2-2.1C426,873.6,430.7,875.1,435.5,876.4z"/>
			<path class="st4" d="M307.5,215.9c0.7,1.1,1.3,1.9,1.7,2.7c4.3,7.3,8.1,14.9,11.4,22.7c3.8,9.1,7.4,18.2,11,27.3
				c1,2.4,1.5,4.9,1.5,7.5c0.2,10.1,0.5,20.3,0.7,30.4c0,1.7-0.3,3.3-0.5,5c-1.5,0.5-2.8,0.1-4.1-0.2c-3.1-0.6-5.8-2.1-8.6-3.7
				c-12.5-7.2-18.5-18.4-19.4-32.5c-0.6-8.5,0-16.9,1.2-25.4c1.5-10.8,3.1-21.5,4.6-32.3C307.1,217.2,307.2,216.8,307.5,215.9z"/>
			<path class="st2" d="M362.1,151.6c-0.3,3-0.6,5.4-0.8,7.8c-0.4,5.7-0.9,11.3-1.1,17c-0.2,5.4,1.1,10.5,4.5,14.8
				c0.8,1,0.8,2,0.4,3.1c-1.7,4.9-5.2,8.4-9.4,11.1c-2.3,1.4-4.8,2.6-7.3,3.5c-7.5,2.7-15.2,4.3-23.3,3.9c-1.2-0.1-2.4-0.3-3.5-0.5
				c-2.8-0.5-4.6-2.3-5.1-5.1c-0.6-2.8-0.8-5.7,0.8-8.2c2.6-4.1,2.5-8.5,2.2-13c-0.2-2.6-0.3-5.3-0.4-7.9c0-0.6,0.1-1.2,0.1-2
				c0.7-0.1,1.3-0.2,1.9-0.2c6.6,0,13-1.4,19.3-3.4c4.2-1.3,7.4-4,10.2-7.3c3.4-4.1,6.8-8.1,10.1-12.2
				C360.9,152.8,361.3,152.4,362.1,151.6z"/>
			<path class="st4" d="M243.5,338.7c-0.5-0.7-0.9-1.5-1.6-2c-5.2-4.7-11.1-8.4-18.1-9.9c-0.4-0.1-0.7-0.2-1-0.5c3.3,0,6.5,0,9.8,0
				c0.5,0,1.1,0.3,1.4,0.7c2.1,2.5,4.8,2.6,7.7,2c0.4-0.1,0.8-0.1,1.2-0.3c2.8-1.4,5.6-0.8,8.4,0c1.3,0.4,2.6,0.7,4,1.1
				c-0.5-1.3-0.5-1.3-6-3.8c0.2-0.3,0.3-0.5,0.6-0.7c3-2.3,3.5-5.4,3-8.8c-0.5-3.7-1.2-7.3-3.4-10.4c-0.7-1-0.7-1.9,0-2.9
				c0.4-0.6,0.6-1.3,0.9-2c0.9-2.2,0.8-4.4-0.7-6.4c-1-1.3-1.3-2.6-1.3-4.2c0-1.6-0.3-3.2-0.5-4.8c-0.1-0.7-0.3-1.5-0.7-2
				c-1.7-1.8-1.8-4.1-2.1-6.4c-0.2-1.3-0.4-2.8-1.2-3.8c-0.9-1.3-0.8-2.3-0.3-3.5c3.5-9.2,7.1-18.4,10.6-27.5
				c2.2-5.7,4.4-11.5,5.7-17.5c0.3-1.3,0.5-2.7,0.7-4.1c0.2,0,0.4,0,0.5,0c0.4,2.2,0.8,4.5,1,6.7c1.2,11.1,2.3,22.3,3.5,33.4
				c0.9,8.1,1.8,16.2,2.6,24.3c0.8,7.5,1.4,15,2.1,22.4c0.1,1.1,0,2.1-0.7,3.2c-3.6,5.3-7.1,10.6-10.8,15.9
				c-1.9,2.7-3.5,5.6-6.2,7.5c-0.9,0.6-0.8,1.5-0.3,2.3c0.3,0.4,0.6,0.7,0.9,1.1c1.9,2.6,2.7,5.4,2.3,8.6c-0.1,0.7-0.4,1.5-0.7,2.5
				c-0.7-0.5-1.2-0.7-1.5-1.1c-0.6-0.8-1.2-1.7-1.7-2.6c-0.8-1.5-1.8-2.6-3.3-1.8C246.5,341.8,245,340.2,243.5,338.7L243.5,338.7z
				 M258.7,324.3c2.8-19.5,2.4-39,2.9-58.6c-0.6,3.8-1.1,7.6-1.4,11.4c-0.8,9.3-1.5,18.6-2.2,27.9
				C257.6,311.5,257.7,317.9,258.7,324.3z"/>
			<path class="st4" d="M363.3,180.2c11.9,3.7,21.4,10.6,31.6,16.9c-7.5,9.5-14.6,19.1-20.6,29.8c-0.8-0.6-1.4-1.2-2-1.8
				c-3.5-3.3-7.3-6.2-11.6-8.5c-1-0.6-2.2-0.9-3.4-1.4c0.2-0.3,0.4-0.7,0.7-1.1c1.6-2.1,3.3-4.2,4.8-6.3c3.4-4.7,4.6-10.1,5.4-15.7
				c0.1-0.7-0.5-1.6-0.9-2.4c-1-2.1-2.2-4.1-3.2-6.2C363.6,182.7,363.6,181.6,363.3,180.2z"/>
			<path class="st4" d="M332.6,262.5c-3-7.2-5.9-14.2-8.8-21.2c-3.3-8-7.1-15.8-11.5-23.2c-2.3-3.9-5.1-7.6-7.7-11.3
				c-1.4-1.9-2.6-2.3-4.5-0.9c-3.1,2.1-6,4.5-8.9,6.9c-1.7,1.4-3.2,3-5,4.5c0.9-9.5,2-18.9,0.8-28.5c9.8-1.5,19.3-3,29-4.5
				c0.1,0.6,0.4,1.2,0.4,1.8c0.1,2.2,0.1,4.3,0.1,6.5c0,1.5-0.5,2.8-1.3,4c-3.2,4.8-2.6,9.8-0.3,14.8c0.5,1.1,1.2,2.3,1.5,3.5
				c3.3,12.2,7.7,24,13.6,35.3C331.9,254.1,332.3,256.2,332.6,262.5z"/>
			<path class="st4" d="M483.3,347.7c-1-0.2-1.9-0.4-2.7-0.6c-2.4-0.6-4.7-0.6-7.1,0c-1.2,0.3-2.5,0.2-3.8,0.4
				c-1.9,0.2-3.8,0.1-5.7,0.5c-6.7,1.4-13.4,3.1-19.9,6.2c-2.1-5.4-4.1-10.7-6.3-16.3c2.8-0.9,5.3-1.8,7.8-2.5
				c8.7-2.5,17.6-4.1,26.5-5.2c0.5-0.1,1,0,1.4-0.1c1.3-0.2,2.1,0.3,2.6,1.5c2.3,5.1,4.7,10.2,7,15.2
				C483.3,346.9,483.3,347.1,483.3,347.7z"/>
			<path class="st6" d="M319.2,215.2c14.8,2,28.1-1.2,40.7-8.4c-0.6,0.8-1.2,1.6-1.8,2.4c-5.5,6.3-11,12.7-16.6,18.9
				c-4.2,4.6-6.7,9.9-7.2,16.1c-0.1,1.5-0.2,3-0.3,4.5c0,0.6-0.1,1.2-0.3,2.4C327.3,239.4,323.1,227.4,319.2,215.2z"/>
			<path class="st4" d="M342.8,459.4c17.4-1,34.7-2.2,51.3-9.1c0.6,2.5,0.9,4.9,0.2,7.2c-0.8,2.8-2,5.6-2.9,8.4
				c-0.5,1.3-1.3,1.9-2.7,1.8c-4.4-0.5-8.8-0.7-13.1-1.5c-10.4-1.9-20.7-4.1-31-6.2C344,459.8,343.4,459.6,342.8,459.4z"/>
			<path class="st4" d="M243.5,338.6c0.9,1.3,1.8,2.6,2.8,3.8c1.1,1.3,1.4,2.7,1.2,4.4c-0.8,5.6-1.4,11.3-2.1,16.9
				c-0.1,1.1-0.6,2.1-0.8,3.2c-1.5,0.1-1.8-0.7-1.9-1.8c-0.4-2.6-0.9-5.2-1.2-7.8c-0.5-4.3-2.5-7.8-5.8-10.4
				c-3.8-3.1-7.8-6.1-11.9-9c-1.4-1-2.3-2.1-2.7-3.7c-0.7-2.4-1.5-4.7-2.4-7.3c0.8,0,1.3-0.1,1.8,0c8.1,1.1,15,4.8,21,10.2
				C242.1,337.7,242.8,338.1,243.5,338.6L243.5,338.6z"/>
			<path class="st3" d="M269.2,47c2,0.2,3.5,0.4,5,0.4c0.7,0,1.5,0.1,2.1-0.2c3.9-1.8,8-1.1,12-0.6c11.2,1.4,19.8,7.2,26,16.5
				c0.1,0.1,0,0.3,0.1,0.5c-2.4,0-4.6-0.3-6.7-1.7c-4.5-2.9-9.6-3.8-14.8-4.2c-3.6-0.3-7.2-0.3-10.8-0.5c-1.9-0.1-3.8-0.3-5.7-0.6
				c-0.7-0.1-1.6-0.5-2.1-1C272.3,53.1,270.8,50.2,269.2,47z"/>
			<path class="st7" d="M269.4,839.2c2.2,0.3,3.8,0.3,5.4,0.7c5.3,1.2,10.5,2.6,15.8,3.9c1.8,0.4,2.8,1.3,3,3.4
				c0.3,3.8,1,7.6,1.6,11.6c-1.4,0.3-2.7,0.6-4,0.8c-3.7,0.7-7.4,1-11.2,0.3c-0.4-0.1-0.8-0.1-1.2-0.2c-2.9-0.7-3.2-1.1-3.2-4.1
				c0-4.6-0.8-8.9-3.4-12.8C271.5,841.7,270.6,840.7,269.4,839.2z"/>
			<path class="st6" d="M245,312.7c-4.4-2.6-8.1-0.1-11.7,7.9c-1.1-1.6-2.2-3-3.2-4.6c-1-1.5-2-3.1-2.8-4.7c-0.4-0.8-1-1.9-0.8-2.6
				c0.5-1.2,1.6-2.1,2.4-3.2c0-0.1,0.1-0.1,0.2-0.1c4.5-1.3,9-2.2,13.7-1.3c1.7,0.3,2.9,1.4,3.8,3c1.9,3.1,2.8,6.5,3.3,9.9
				c0.4,2.8-0.4,5.2-3,6.8c-2.2,1.4-4.6,2.2-7.2,2.5c-1.8,0.2-2.4-0.2-3-2c-1.1-3.1,0.7-7.5,3.8-9.3c1-0.6,2.2-1,3.2-1.6
				C244.2,313.3,244.6,313,245,312.7z"/>
			<path class="st4" d="M223.9,341.7c3.8,2.6,7.6,5.2,10.9,8.5c2.2,2.3,3.3,5,3.7,8.1c0.7,4.5,1.4,9,2.2,13.5
				c0.3,1.7,0.2,1.9-1.5,2.4c-1,0.3-2,0.6-3,0.7c-2.7,0.4-5.4,0.7-8.3,1c0.4-0.8,0.5-1.3,0.8-1.7c2.3-3.7,3-7.7,1.7-11.9
				c-1.4-4.4-2.9-8.8-4.4-13.1c-0.8-2.4-1.7-4.8-2.5-7.2C223.6,341.9,223.8,341.8,223.9,341.7z"/>
			<path class="st4" d="M439.6,334.1c10.5-5.6,20.1-12.6,30-19.6c0.7,2.9,2.8,4,5,5.1c1.7,0.9,3.3,1.9,5.3,3
				c-1.6,1.5-2.9,2.9-4.3,4.1c-0.2,0.2-0.7,0.2-1.1,0.2c-11.6,1.2-23.1,3.3-34.2,7C440.1,334.1,439.8,334.1,439.6,334.1z"/>
			<path class="st4" d="M335.1,268.6c0.5-6.6,1-13.2,1.6-19.8c0.2-2.6,0.5-5.3,1-7.8c0.5-2.9,1.5-5.6,3.5-7.8
				c3.2-3.8,6.5-7.5,9.8-11.2c1.6-1.8,3.2-3.5,4.9-5.1c-3.9,8.5-8.1,16.8-11.7,25.4C340.7,250.9,337.6,259.7,335.1,268.6z"/>
			<path class="st6" d="M216.6,252.5c-1.4,0.1-2.4,0.2-3.4,0.3c-2.8,0.3-4.8,1.6-5.9,4.3c-0.9,2.3-1.8,4.6-2.8,6.9
				c-0.5,1.1-1,2.2-1.7,3.7c-2.6-4.7-5.1-9.1-7.6-13.6c6.4-1.4,12.3-3.4,17.5-7.8C214.1,248.4,215.5,250.3,216.6,252.5z"/>
			<path class="st3" d="M308.8,63.6c-1.2,0.2-1.8,0.3-2.5,0.3c-5.6,0.2-11.2,0.5-16.6,2c-0.5,0.1-1.1,0.2-1.6,0.1
				c-4.2-1.5-7.8-3.9-11.3-7.3c9.4,0.5,18.3,0.1,27,2.6c1.2,0.4,2.4,0.8,3.6,1.3C307.7,62.8,308,63,308.8,63.6z"/>
			<path class="st7" d="M426,852.1c2.9,0.6,5.5,1.1,8.1,1.8c0.6,0.2,1.3,0.7,1.7,1.2c2.2,3.6,4.4,7.2,6.6,10.9
				c0.1,0.2,0.1,0.4,0.1,0.8c-2,0.5-3.8,0.3-5.5-0.7c-2.7-1.5-4.9-3.5-6.4-6.3C429.1,857.4,427.7,855,426,852.1z"/>
			<path class="st4" d="M224.3,312.4c2.7,4.2,5.3,8,7.9,12.1c-4.8,0.2-9.2,0.5-13.6,0.7c-1.7-2.9-1.4-4.5,1.2-6.1
				c1.6-1,2.8-2.3,3.3-4.2C223.4,314.2,223.8,313.5,224.3,312.4z"/>
			<path class="st3" d="M287.2,97.1c-1-1-0.8-1.6,0-2.1c0.9-0.5,1.8-1,2.7-1.5c3.7-1.8,7.7-3.1,11.8-3.9c4.1-0.9,5.1-0.8,8,3.6
				c0.3,0.5,0.4,1,0.7,1.7c-0.5,0.1-0.9,0.3-1.3,0.4c-0.5,0.1-1,0-1.4,0C300.7,94.3,293.9,94.9,287.2,97.1z"/>
			<path class="st3" d="M369.5,131.8c2-0.2,3.6-0.4,5.1-0.6c1.6,6.9-1.8,14.4-7.9,18.6c-0.7-1.5-1-2.9,0-4.4c1.5-2.3,2-5,2.2-7.7
				C369.1,135.7,369.3,133.7,369.5,131.8z"/>
			<path class="st8" d="M211.1,219.8c2.8-0.1,2.9-0.1,3.5,1.9c0.5,1.7,0.9,3.5,1.4,5.7c-2.1-0.3-3.7-0.6-5.5-0.9
				C210.7,224.1,210.9,222,211.1,219.8z"/>
			<path class="st8" d="M180.8,218.9c1.5,0,2.6,0,4,0c-0.4,2.1-0.7,4.1-1.1,6.3c-1.3,0.1-2.5,0.2-3.9,0.3
				C179.5,223,180.3,221.1,180.8,218.9z"/>
			<path class="st8" d="M176.8,225.7c-1.2,0.2-2.4,0.3-3.7,0.5c-0.3-2.4,0.4-4.3,1.2-6.2c0.4-0.9,1.2-1,3.6-0.6
				C178.1,221.5,177.3,223.5,176.8,225.7z"/>
			<path class="st8" d="M206,225.9c0-2.3,0-4.3,0-6.4c1.4,0,2.5,0,4,0c-0.3,2.3-0.6,4.4-0.9,6.8C207.9,226.1,206.9,226,206,225.9z"
				/>
			<path class="st8" d="M215.9,228.3c0,1.6,0,2.8,0,4.3c-2-0.2-3.9-0.4-5.9-0.6c0.2-1.5,0.3-2.7,0.5-4.2
				C212.4,228,214.1,228.1,215.9,228.3z"/>
			<path class="st8" d="M191.6,218.8c1.5,0.1,2.6,0.1,4,0.2c-0.4,2.2-0.7,4.1-1.1,6.1c-1.2,0-2.2,0-3.6,0
				C191.2,223,191.4,221.1,191.6,218.8z"/>
			<path class="st8" d="M198.3,206.8c-0.5,1.8-0.8,3.1-1.1,4.4c-1.5,0-2.8,0-4.5,0c0.1-1.2,0-2.4,0.2-3.5c0.1-0.4,0.8-1,1.3-1
				C195.5,206.6,196.7,206.7,198.3,206.8z"/>
			<path class="st8" d="M208.7,244.2c0.2-1.9,0.4-3.6,0.6-5.4c1.8-0.4,3.3-0.5,4.8,0.1C213.1,242.3,211.2,244.2,208.7,244.2z"/>
			<path class="st8" d="M178.6,232.4c0.2-2.1,0.4-3.7,0.7-5.5c1.4,0,2.6,0,4,0c-0.2,1.5-0.3,2.8-0.7,4c-0.1,0.5-0.8,1-1.3,1.2
				C180.7,232.4,179.9,232.3,178.6,232.4z"/>
			<path class="st8" d="M197.9,238.6c-0.1,1.6-0.1,3.1-0.3,4.6c-0.1,0.4-0.7,1-1.2,1.1c-0.6,0.2-1.4,0-2.4,0c0.2-2,0.4-3.8,0.6-5.7
				C195.7,238.6,196.6,238.6,197.9,238.6z"/>
			<path class="st8" d="M186.8,244.8c-1.3,0.1-2.2,0.1-3.3,0.2c-0.2-2.1,0.1-4,0.6-6c1.1,0,2,0,3.1,0
				C187.1,240.9,187,242.7,186.8,244.8z"/>
			<path class="st8" d="M197.3,246c0,0.9,0,1.6,0,2.3c-0.1,2.8-1,3.4-4.1,2.3c0.2-1.5,0.4-3,0.6-4.8C195,245.9,196,246,197.3,246z"
				/>
			<path class="st8" d="M188.9,225.1c-1.1,0-1.9,0-3,0c0.3-2.2,0.6-4.2,1-6.2c1,0,1.8,0,2.9,0C189.5,221.1,189.2,223,188.9,225.1z"
				/>
			<path class="st8" d="M176.6,227.1c-0.2,1.6-0.2,3.2-0.5,4.8c-0.3,1.2-1.3,1.1-2.4,1c-0.9-1.8-0.8-3.7-0.6-5.7
				C174.3,227.1,175.3,227.1,176.6,227.1z"/>
			<path class="st8" d="M201.6,219.2c1.1,0.1,1.8,0.1,2.9,0.1c-0.2,2.2-0.5,4.2-0.7,6.3c-0.9,0-1.6,0-2.5,0
				C201,223.4,201.4,221.5,201.6,219.2z"/>
			<path class="st8" d="M200.3,219.3c-0.3,2.1-0.5,3.9-0.8,5.9c-1,0-1.9,0-3,0c0.2-1.8,0.3-3.5,0.7-5.1
				C197.6,218.5,198.8,219.1,200.3,219.3z"/>
			<path class="st8" d="M209.5,236.6c0.1-1,0.2-1.9,0.4-3c1.9,0.1,3.7,0.2,5.8,0.3c-0.2,1.2-0.4,2.1-0.6,3.2
				C213.2,237,211.5,236.8,209.5,236.6z"/>
			<path class="st8" d="M196.9,213.1c-0.3,1.4-0.6,2.6-0.8,3.9c-1.4,0-2.6,0-4.2,0c0.2-1.4,0.3-2.6,0.5-3.9
				C193.8,213.1,195.2,213.1,196.9,213.1z"/>
			<path class="st8" d="M181.8,237.5c-0.9,0.2-1.5,0.4-2.1,0.5c-0.3,0.1-0.6,0-1,0c-0.4-1.6-0.3-3.1,0.3-4.8c1.1,0,2.1,0,3.4,0
				C182.1,234.7,182,236.1,181.8,237.5z"/>
			<path class="st8" d="M210.1,218.1c-1.3-0.2-2.5-0.3-3.8-0.5c0-1.3,0-2.5,0-3.7c0.4-0.1,0.7-0.2,1-0.1
				C210.9,214,210.9,214,210.1,218.1z"/>
			<path class="st8" d="M185.8,213.4c-0.1,4.5-0.9,4.6-4.4,3.9C181.7,213.3,182.4,212.9,185.8,213.4z"/>
			<path class="st8" d="M189.6,238.6c1.2,0,1.8,0,2.8,0c-0.2,1.7-0.2,3.2-0.5,4.8c-0.2,1-0.3,1-2.6,0.9
				C189.4,242.5,189.5,240.7,189.6,238.6z"/>
			<path class="st8" d="M185.7,226.9c1,0,1.8,0,2.9,0c-0.2,1.5-0.1,2.9-0.6,4.2c-0.4,1.2-1.7,0.8-2.8,0.7
				C184.8,230.1,185.4,228.7,185.7,226.9z"/>
			<path class="st8" d="M190.9,226.9c1.2,0.1,2.1,0.1,3.2,0.2c-0.2,1.5-0.4,2.8-0.6,4.3c-1.1,0-2,0-3.2,0
				C190.5,229.9,190.7,228.5,190.9,226.9z"/>
			<path class="st8" d="M204.9,238.6c0.9,0,1.5-0.1,2.2-0.1c0.7,1.9-0.3,3.6-0.1,5.6c-0.9,0-1.6,0.1-2.5,0.1
				C204.6,242.2,204.7,240.5,204.9,238.6z"/>
			<path class="st8" d="M198.4,231.4c-0.9,0-1.7,0-2.8,0c0.2-1.4,0.3-2.7,0.5-4.2c1,0,1.9,0,2.9,0
				C199.3,228.8,199.2,230.2,198.4,231.4z"/>
			<path class="st8" d="M178.6,239.4c0.9-0.1,1.8-0.2,3-0.3c-0.2,2-0.4,3.7-0.5,5.6C178.9,243.4,177.8,242,178.6,239.4z"/>
			<path class="st8" d="M187.5,233.2c0.5,3.7,0.1,4.1-3.2,4c0-0.7,0-1.3,0.1-2C184.8,232.8,184.9,232.8,187.5,233.2z"/>
			<path class="st8" d="M188.4,211.1c0.2-1.2,0.4-2.4,0.6-3.7c1-0.2,1.9-0.5,2.8-0.7C191.9,210.9,191.4,211.6,188.4,211.1z"/>
			<path class="st8" d="M175.6,218.2c0.9-3.2,2-4.3,4.5-4.4c-0.4,1.2-0.7,2.5-1.3,3.5C178.1,218.7,176.8,217.9,175.6,218.2z"/>
			<path class="st8" d="M208.9,227.7c-0.2,1.6-0.4,2.7-0.6,4.2c-0.9-0.1-1.7-0.2-2.6-0.3c0-1.4,0-2.5,0-3.9
				C206.7,227.7,207.6,227.7,208.9,227.7z"/>
			<path class="st8" d="M201.8,217.2c0.1-1.3,0.1-2.4,0.2-3.6c1,0,1.9,0,3,0c-0.1,1.3-0.2,2.5-0.3,4
				C203.6,217.4,202.8,217.3,201.8,217.2z"/>
			<path class="st8" d="M190.8,213.2c-0.2,1.4-0.4,2.5-0.6,3.8c-0.9,0.1-1.7,0.1-2.4,0.2c-0.7-1.5-0.2-2.7,0.3-4
				C188.9,213.2,189.7,213.2,190.8,213.2z"/>
			<path class="st8" d="M187,208.4c0,3.2-0.1,3.4-3.8,3.6C183.1,209.5,184,208.7,187,208.4z"/>
			<path class="st8" d="M200.5,217c-1.1,0-1.9,0-2.9,0c0.2-1.3,0.4-2.4,0.5-3.8c0.9,0,1.7,0,2.8,0
				C200.8,214.6,200.7,215.7,200.5,217z"/>
			<path class="st8" d="M201.6,243.8c-1.9,0.3-2,0.2-1.9-1.1c0.1-1.3,0.2-2.7,0.4-4.1c0.7,0,1.3,0,2.1,0
				C202,240.5,201.8,242.2,201.6,243.8z"/>
			<path class="st8" d="M190.2,233c1,0,1.8,0,2.5,0c0.7,3.2,0.3,3.8-2.8,3.7C190,235.4,190.1,234.3,190.2,233z"/>
			<path class="st8" d="M201,211.4c-0.9-0.1-1.6-0.1-2.6-0.2c0.2-1.4,0.5-2.6,0.7-3.8C201.9,207.4,202.2,207.9,201,211.4z"/>
			<path class="st8" d="M191.2,250.2c-0.9-0.3-1.5-0.4-2.4-0.7c0.1-1.2,0.1-2.4,0.2-3.7c0.9,0,1.6,0,2.6,0
				C191.5,247.4,191.4,248.7,191.2,250.2z"/>
			<path class="st8" d="M198.6,233.3c-0.1,1-0.3,2-0.4,3c-1.1,0-2,0-2.8,0C194.9,233.1,195.2,232.8,198.6,233.3z"/>
			<path class="st8" d="M203.6,227.5c-0.2,1.4-0.4,2.5-0.6,3.8c-0.7,0.1-1.3,0.1-2.1,0.2c0-1.3,0-2.5,0-3.9
				C201.8,227.5,202.6,227.5,203.6,227.5z"/>
			<path class="st8" d="M202.3,211.4c0.1-1.1,0.1-2.1,0.2-3c3,0.7,3.1,0.9,2.6,3.4C204.2,211.7,203.4,211.6,202.3,211.4z"/>
			<path class="st8" d="M207.8,236.3c-1,0-1.6,0-2.4,0c0-1,0-1.8,0-2.9c0.8,0,1.6,0.1,2.6,0.1C207.9,234.5,207.8,235.3,207.8,236.3z
				"/>
			<path class="st8" d="M199,250.1c0.2-1.3,0.2-2.3,0.5-3.3c0.1-0.3,0.6-0.8,0.9-0.8c0.3,0,0.8,0.5,0.9,0.8
				C201.6,248.7,201.1,249.5,199,250.1z"/>
			<path class="st8" d="M186.7,245.7c0,1,0,1.8,0,3c-1.3-0.8-2.4-1.5-3.7-2.2C184.2,245.3,185.4,245.7,186.7,245.7z"/>
			<path class="st8" d="M200.4,236.2c0-1,0-1.8,0-2.9c0.7,0,1.4,0,2,0C202.8,236.1,202.7,236.2,200.4,236.2z"/>
			<path class="st8" d="M175.3,237.8c-0.5-1.2-1-2.5-1.7-4c0.9,0,1.5,0,2.2,0c0,1.3,0,2.6,0,3.8
				C175.6,237.6,175.5,237.7,175.3,237.8z"/>
			<path class="st6" d="M225.7,268.9c-1.2,0-2.2,0-3.4,0c0-0.9,0.3-1.6,1.3-1.6C224.6,267.2,225.5,267.5,225.7,268.9z"/>
			<path class="st8" d="M206.5,246c0.1,1.7-1.2,1.8-2.1,2.3C204,245.8,204.1,245.7,206.5,246z"/>
			<path class="st8" d="M211.7,215.9c0.6,1,1,1.6,1.5,2.5C211.2,218.3,211.2,218.3,211.7,215.9z"/>
			<path class="st8" d="M206.5,210.4c0.7,0.5,1.3,1,2,1.6C206.3,212.3,206.3,212.3,206.5,210.4z"/>
			<path class="st8" d="M179.6,212.4c0.4-0.3,0.7-0.6,1.1-1c0.1,0.1,0.2,0.2,0.3,0.3c-0.3,0.4-0.6,0.7-0.9,1.1
				C179.9,212.7,179.7,212.5,179.6,212.4z"/>
			<path d="M297.3,673.6c-0.3,2.1-0.6,4.2-1,6.2c-2.4,13.6-4.5,27.3-7.1,40.9c-5.2,27.1-10.3,54.2-17.3,80.9
				c-1.9,7.3-4.4,14.3-6.7,21.5c-0.1,0.4-0.3,0.7-0.7,1.5c10.8-50.7,21.6-100.9,32.3-151.1C297,673.5,297.1,673.6,297.3,673.6z"/>
			<path d="M399.6,823.8c1.1,0.3,2.2,0.7,3.3,1c6.5,1.7,12.9,3.6,19.1,6.2c4.9,2.1,9.7,4.3,13.8,7.6c1.4,1.1,2.9,2.2,4,4.3
				c-1.9-1.5-3.4-2.7-4.9-3.8c-7-4.7-14.8-7.8-22.9-10.3c-3.9-1.2-7.8-2.2-11.8-3.3c-1.2-0.3-2.8-0.6-2.7-2.2c0.2-1.5,1.8-1.8,3-1.8
				c4-0.1,8-0.2,12,0.2c4.9,0.4,9.8,1.3,14.7,1.9c1.4,0.2,2.8,0.2,4.2,0.3c0.1-0.2,0.2-0.4,0.2-0.5c-1.1-1.1-2.2-2.2-3.4-3.2
				c-6-5.2-12.1-10.2-17.9-15.6c-4.9-4.5-9.6-9.4-14.1-14.3c-3.2-3.5-5.6-7.5-6.5-12.4c0.5,0.7,1,1.4,1.5,2.1
				c7.6,9.1,15.4,18,24.5,25.6c4.8,4,9.5,8.1,14.2,12.2c1.4,1.2,2.7,2.5,4,3.8c0.6,0.6,1.1,1.2,1.4,1.9c0.9,1.6,0.2,2.9-1.7,2.9
				c-1.7,0-3.3-0.3-5-0.5c-4.8-0.7-9.6-1.5-14.5-2c-4.2-0.4-8.4-0.6-12.7-0.8c-0.7,0-1.4,0.2-2,0.3
				C399.7,823.5,399.7,823.7,399.6,823.8z"/>
			<path d="M301.7,629.4c-4.2-2.1-8.3-4.2-12.5-6.3c-0.1,0.1-0.1,0.2-0.2,0.2c1.8,1.6,3.6,3.3,5.4,4.9c1.3,1.2,2.6,2.4,3.8,3.7
				c0.6,0.6,1.2,1.3,1.6,2.1c1.1,1.9,0.8,3.4-1.2,4.4c-1.5,0.8-3.1,1.3-4.7,1.9c-5.7,1.9-11.2,4.3-16.5,7.2
				c-0.8,0.4-1.5,0.9-2.1,1.7c2.1-0.6,4.1-1.1,6.2-1.7c0,0.1,0.1,0.2,0.1,0.3c-0.3,0.2-0.5,0.4-0.8,0.5c-2.8,1.1-5.5,2.1-8.3,3.1
				c-0.4,0.1-0.8,0.4-1.1,0.4c-0.7-0.1-1.6-0.2-1.8-0.6c-0.3-0.4-0.1-1.5,0.2-1.9c0.7-0.8,1.6-1.6,2.5-2.2
				c5.8-3.7,12.1-6.5,18.6-8.9c2.1-0.7,4.2-1.5,6.7-2.4c-0.8-1-1.4-1.9-2.1-2.5c-5.4-4.8-10.8-9.5-16.2-14.2c-0.6-0.5-1.2-1-1.7-1.6
				c-0.6-0.6-0.9-1.4-0.3-2.2c0.5-0.8,1.3-0.8,2.2-0.5c0.6,0.2,1.2,0.4,1.8,0.7c5.4,2.3,15.7,8.4,20.8,13.5
				C301.9,629.1,301.8,629.2,301.7,629.4z"/>
			<path d="M429.9,799.5c-3-2.4-6.1-4.6-9-7.1c-6-5.3-11.2-11.4-16-17.8c-7.4-10-13.4-20.8-18.5-32.1c-2.3-5.1-4.4-10.3-6.7-15.4
				c-0.2-0.4-0.3-0.9-0.2-1.5c0.3,0.5,0.6,0.9,0.9,1.4c4.6,8.6,9,17.3,13.7,25.8c7.9,14.4,17.6,27.4,28.9,39.3
				c2.3,2.4,4.6,4.8,6.9,7.3C430,799.3,430,799.4,429.9,799.5z"/>
			<path d="M290.3,809.7c-7.9,8.3-17,15.1-26.7,21c-1,0.6-2.1,1.1-3.1,1.6c-0.1-0.1-0.2-0.3-0.3-0.4c2.8-2.3,5.6-4.6,8.3-6.8
				c2.8-2.3,5.7-4.6,8.5-7c2.8-2.4,5.5-4.9,8.2-7.4c2.7-2.4,4.8-5.5,7.7-7.8c0.6,2-0.9,5.9-3.7,9.4
				C289.7,811.5,290,810.6,290.3,809.7z"/>
			<path d="M299.4,644.3c-6.2,10.9-14,20.7-21.1,30.9C284,664,291,653.6,299.4,644.3z"/>
			<path d="M292.7,830.8c-5.6,0.1-11,0.3-16.5,0.4c-0.9,0-1.9-0.2-2.8-0.4c-0.7-0.2-0.8-0.7-0.5-1.1c1.2,0.1,2.2,0.3,3.2,0.2
				c4.5-0.5,8.9,0,13.4,0.3C290.5,830.2,291.5,830.5,292.7,830.8z"/>
			<path d="M283.6,819.8c0.2-0.2,0.4-0.5,0.6-0.7c0.1,0.1,0.2,0.1,0.3,0.2c-0.2,0.2-0.4,0.5-0.6,0.7
				C283.8,820,283.7,819.9,283.6,819.8z"/>
			<path d="M270.9,387.5c0.8,0.4,1.7,0.7,2.5,1.1c8.8,4.5,17.6,9.2,26.5,13.4c15.3,7.2,30.8,14.1,46.2,21.1c1.4,0.6,2.9,0.9,4.4,1.3
				c3.9,1,7.7,2,11.6,3c0.4,0.1,0.8,0.4,1.1,0.9c-2.2-0.4-4.3-0.8-6.5-1.2c0,0.1-0.1,0.1-0.1,0.2c0.7,0.4,1.3,0.8,2,1.2
				c0,0.1-0.1,0.2-0.1,0.2c-0.8-0.2-1.6-0.4-2.4-0.8c-3.5-1.6-7.3-2.3-11.1-2.8c-11.2-1.2-22.4-2.5-33.6-3.5
				c-10.7-0.9-21.4-1.4-32.1-2c-3.4-0.2-6.9-0.2-10.3-0.2c-0.9,0-1.8,0.2-2.8,0.3c0.2-1,1-1,1.6-1.1c3.2-0.3,6.4-0.8,9.5-0.9
				c12.6-0.4,25.1,0.1,37.6,1.3c7.8,0.8,15.5,1.9,23.3,2.8c0.6,0.1,1.2,0.1,1.9,0c-23.7-10.2-47.7-19.8-69.5-33.8
				C270.8,387.9,270.9,387.7,270.9,387.5z"/>
			<path d="M310.5,112.3c-4.8,0.8-9.1,0.6-13.4-0.7c-1.8-0.5-3.4-1.4-4.5-3c-1.8-2.7-1.4-5.7,1.1-7.7c5.5-4.3,13.1-2.8,16.5,3.3
				c0.3,0.5,0.5,1,0.8,1.5c3.5,4.2,3,8.8,1,13.3c-1,2.3-2.6,4.4-4,6.5c-0.3,0.5-0.8,1-1.2,1.5c-0.8,0.9-0.8,1.8-0.2,2.9
				c1.3,2.3,3,3.9,5.8,3.9c1.1,0,2.2-0.1,3.4,0c0.9,0,1.7,0.2,1.8,1.2c0.1,1-0.6,1.4-1.4,1.7c-5,1.5-10.8-1.3-12.6-6.2
				c-0.8-2-0.2-3.7,1-5.4c1.6-2.1,3.1-4.3,4.4-6.5C310,116.7,310.5,114.7,310.5,112.3z M302.3,110c-0.5-1.6-1.3-3.1-1.3-4.6
				c0-1.6,0.7-3.1,1.1-4.8c-2.3-0.3-4.3,0.4-6.2,1.4c-2.6,1.5-2.8,4.5-0.3,6.1C297.7,109.6,300,110.2,302.3,110z M305.8,102.2
				c-1.7,1.4-2.2,2.5-1.9,3.9c0.4,1.7,1.7,2.5,3.2,2.8c0.5,0.1,1.4,0,1.7-0.4c0.4-0.5,0.6-1.4,0.4-1.9
				C308.5,104.8,307.5,103.3,305.8,102.2z"/>
			<path d="M334.7,112.3c-1.7-0.4-4.1-0.8-6.4-1.6c-2.7-0.9-3.8-3.4-3.1-6.2c0.5-2,1.7-3.6,3.2-5c4.9-4.6,13.2-5.6,18.9-2.2
				c0.6,0.4,1.2,0.8,1.8,1.2c3.8,3.2,3.5,7.4-0.9,9.7C344.2,110.5,339.9,112,334.7,112.3z M343.9,98.9c-1.6-0.2-2.8-0.4-4-0.6
				c-2.4-0.5-4.6,2.6-3.3,5.1c0.7,1.3,1.6,2.3,3,2.9c2,0.9,3.5,0.2,3.9-1.9C343.9,102.7,343.8,100.9,343.9,98.9z M333.2,100.1
				c-2.6,1.1-4.1,2.8-5,5c-0.4,1-0.3,2.1,0.7,2.8c2.8,1.7,5.7,2.4,9.1,1.2C334.8,107,332.9,104.2,333.2,100.1z M346.6,100.6
				c0,1.9,0,3.5,0,5.3C349.4,104.3,349.4,102.8,346.6,100.6z"/>
			<path d="M330.3,86.4c6.3,0.5,12.4,2.1,18.1,5.3c1.4,0.8,2.7,2,3.9,3.1c0.6,0.5,1.3,1.3,0.6,2c-0.3,0.4-1.3,0.3-1.9,0.2
				c-2.7-0.6-5.3-1.3-7.9-1.9c-5.9-1.2-11.8-1.3-17.6,0c-2.5,0.6-3.1-0.5-3.3-2.5c-0.3-3.3,1.3-5.5,4.6-6.1
				C327.9,86.5,329,86.5,330.3,86.4z M324.2,93.9c7.7-2.4,14.9-2.2,22.2-0.9c-4.2-2.4-8.6-3.8-13.3-4.4c-2.2-0.3-4.4-0.1-6.6,0
				c-1.4,0-2.1,1-2.3,2.3C324.2,91.8,324.2,92.7,324.2,93.9z"/>
			<path d="M342.2,138c-0.5,0.8-0.9,1.7-1.5,2.4c-1.7,1.9-3.6,3.4-6,4.3c-7.7,2.7-15.2,5.9-23.2,7.4c-0.5,0.1-1,0.4-1.6,0.6
				c-1,0.3-2.4-0.3-2.9-1.2c-0.5-0.9,0-1.9,1.2-2.1c0.9-0.2,1.9-0.1,2.9-0.3c4.3-1.1,8.5-2.2,12.7-3.3c3.9-1.1,7.8-2.3,11.7-3.4
				c1.4-0.4,2.2-0.9,2.5-2.5c0.2-1.1,1-2.1,1.7-3c0.2-0.3,1-0.3,1.5-0.2C341.6,136.9,341.8,137.5,342.2,138z"/>
			<path d="M382.6,99c-2.9,4-5.9,7.5-6.6,12.3c0.6,0.4,1.1,0.7,1.6,1.1c2.2,1.8,2.9,4.2,2.4,6.9c-0.5,2.6-2.1,4.3-4.5,5.1
				c-0.4,0.1-0.8,0.3-1.1,0.2c-0.6-0.2-1.4-0.5-1.7-1c-0.4-0.8,0.2-1.3,0.9-1.6c0.5-0.2,1.1-0.4,1.6-0.6c1.5-0.8,2.2-2.1,2-3.8
				c-0.1-1.5-0.7-2.7-2.5-3.1c-1.8-0.5-2.1-1-1.8-2.8c0.6-4,2.2-7.7,4.9-10.7C378.8,99.6,380.1,98.6,382.6,99z"/>
			<path d="M368.9,117.3c-1.7,0.2-3.5,0.4-5.2,0.6c-1.1,0.1-2.2,0-3.1-1.1c0.2-1,1-1.4,1.8-1.6c2.6-0.5,5.2-1.3,7.8-0.3
				C370.7,116.5,369.3,116.6,368.9,117.3L368.9,117.3z"/>
			<path d="M368.8,117.4c1.3,0.3,0.9,1.1,0.5,1.8c-1.4,2.4-5.1,3-7.6,1.3c0.3-1.2,1.4-1.4,2.4-1.7
				C365.7,118.2,367.3,117.8,368.8,117.4C368.9,117.3,368.8,117.4,368.8,117.4z"/>
			<path class="st9" d="M349.4,121.3c0.5,0.1,1.2,0.1,1.6,0.4c0.5,0.3,1,0.9,1,1.4c0,0.5-0.4,1.2-0.9,1.5c-1.1,0.7-2.4,0.7-3.6,0.1
				c-0.5-0.2-1.1-1-1-1.4c0.1-0.6,0.6-1.2,1.1-1.6C348.1,121.5,348.8,121.4,349.4,121.3z M347.1,123.2c1.6,1.7,2.3,1.7,3.6,0
				C349.6,122.5,348.5,122,347.1,123.2z"/>
			<path class="st9" d="M349.1,119.5c-0.7-0.1-1.2-0.2-1.7-0.4c-0.8-0.3-1-0.9-0.7-1.8c0.7-1.6,3.2-2.6,4.7-1.8
				c0.6,0.3,1.2,1,1.2,1.6c0,0.5-0.6,1.3-1.1,1.6C350.8,119.2,349.9,119.3,349.1,119.5z M351.6,117.2c-1.9-1.5-3.1-1.3-4.2,1
				C349,118.3,350.5,118.7,351.6,117.2z"/>
			<path class="st9" d="M340.4,120.3c0.1-1.2,1-1.6,2-1.6c1,0,2,0.2,2.9,0.6c0.3,0.1,0.5,1.2,0.3,1.6c-0.8,1.6-4.1,1.8-5.2,0.4
				C340.2,121.1,340.4,120.6,340.4,120.3c1.8,1.7,2.8,1.7,4.5-0.1C343.3,118.7,341.9,119.5,340.4,120.3z"/>
			<path class="st9" d="M298.7,120.8c-0.7-0.2-1.1-0.2-1.5-0.4c-0.9-0.4-1.1-1.2-0.3-1.9c0.2-0.2,0.5-0.4,0.8-0.5
				c1-0.3,2-0.5,2.9,0.2c0.2,0.2,0.4,0.9,0.4,1C300.2,119.9,299.3,120.4,298.7,120.8z M297.6,119c0,0.2,0.1,0.4,0.1,0.7
				c0.7,0.1,1.5,0.3,2.3-1C299,118.8,298.3,118.9,297.6,119z"/>
			<path class="st9" d="M291,117.9c-0.2-0.4-0.6-1-0.5-1.1c0.7-0.5,1.4-1.2,2.1-1.3c0.7-0.1,1.6,0.4,2.3,0.8c0.2,0.1,0.2,1,0,1.2
				c-0.6,0.5-1.3,1-2,1.2C292.1,119,291.4,118.7,291,117.9c1.2,0.3,2.4,0.6,3.2-0.9C292.3,116,291.9,116.1,291,117.9z"/>
			<path class="st9" d="M294.2,119.7c0.2,0.2,0.8,0.7,0.9,1.2c0.1,0.7-1.1,1.4-2.1,1.4c-0.8,0-1.5-0.2-1.4-1.2
				C291.7,120.2,292.7,119.6,294.2,119.7z M292.6,120.8c0.7,1,1.2,0.7,1.5-0.4C293.6,120.5,293.1,120.7,292.6,120.8z"/>
			<path d="M419.5,250.4c2.4,5.9,4.4,12,5.9,18.2c2.4,9.4,4.5,18.8,5.6,28.4c0.7,6,1.5,12.1,1.1,18.2c-0.2,2.8-0.8,5.5-1.3,8.3
				c-0.2,1-0.5,2-1.7,2.2c0.2-1.2,0.5-2.4,0.5-3.6c0.3-10.7-1-21.2-2.5-31.8c-1.7-11.5-3.7-23-6.7-34.3c-0.5-1.8-1-3.6-1.5-5.5
				C419.2,250.4,419.4,250.4,419.5,250.4z"/>
			<path d="M418.1,271.9c0.1,0.2,0.4,0.3,0.4,0.5c0.7,6.3,1.4,12.5,1.9,18.8c0.5,6,0.7,12.1-0.2,18.1c-0.2,1.4-0.5,2.8-2,4.1
				c0.1-14.1-0.7-27.8-0.6-41.4C417.7,271.9,417.9,271.9,418.1,271.9z"/>
			<path d="M435.5,876.4c-4.8-1.3-9.4-2.8-14.1-3.9c-6.3-1.4-12.4-0.6-18.2,2.1c-5,2.3-9.9,4.9-14.3,8.2c1-2.7,2.9-4.7,5.1-6.3
				c5.2-3.8,10.9-6.4,17.3-7.3c4.1-0.6,8.1-0.4,12.1,0.8c3,0.9,6,1.8,8.9,2.8C433.8,873.3,435,874.5,435.5,876.4z"/>
			<path d="M258.7,324.3c-1-6.4-1.1-12.8-0.6-19.3c0.7-9.3,1.4-18.6,2.2-27.9c0.3-3.8,0.8-7.6,1.4-11.4
				C261.1,285.3,261.5,304.8,258.7,324.3z"/>
			<path class="st8" d="M302.3,110c-2.3,0.2-4.6-0.4-6.6-1.7c-2.6-1.7-2.4-4.6,0.3-6.1c1.9-1.1,3.9-1.7,6.2-1.4
				c-0.4,1.7-1.1,3.2-1.1,4.8C301,107,301.8,108.5,302.3,110z"/>
			<path class="st10" d="M305.8,102.2c1.6,1.1,2.7,2.7,3.4,4.4c0.2,0.5,0,1.4-0.4,1.9c-0.3,0.4-1.2,0.5-1.7,0.4
				c-1.5-0.4-2.8-1.2-3.2-2.8C303.6,104.7,304.1,103.6,305.8,102.2z"/>
			<path class="st10" d="M343.9,98.9c-0.1,2,0,3.8-0.3,5.4c-0.4,2.2-1.9,2.8-3.9,1.9c-1.4-0.6-2.3-1.6-3-2.9
				c-1.2-2.5,0.9-5.6,3.3-5.1C341.1,98.5,342.2,98.6,343.9,98.9z"/>
			<path class="st8" d="M333.2,100.1c-0.2,4.2,1.6,6.9,4.9,9c-3.5,1.2-6.4,0.5-9.1-1.2c-1.1-0.7-1.1-1.8-0.7-2.8
				C329.1,102.8,330.5,101.1,333.2,100.1z"/>
			<path class="st8" d="M346.6,100.6c2.8,2.2,2.8,3.6,0,5.3C346.6,104.1,346.6,102.5,346.6,100.6z"/>
			<path class="st3" d="M324.2,93.9c0-1.3-0.1-2.1,0-3c0.2-1.3,0.9-2.3,2.3-2.3c2.2-0.1,4.5-0.3,6.6,0c4.7,0.6,9.1,2,13.3,4.4
				C339.2,91.7,331.9,91.6,324.2,93.9z"/>
			<path class="st9" d="M347.1,123.2c1.4-1.1,2.5-0.7,3.6,0C349.4,124.8,348.7,124.9,347.1,123.2z"/>
			<path class="st9" d="M351.6,117.2c-1.2,1.5-2.6,1.2-4.2,1C348.6,115.9,349.8,115.7,351.6,117.2z"/>
			<path class="st9" d="M340.4,120.3c1.5-0.8,2.9-1.6,4.5-0.1C343.2,122,342.2,122,340.4,120.3C340.4,120.3,340.4,120.3,340.4,120.3
				z"/>
			<path class="st9" d="M297.6,119c0.7-0.1,1.3-0.2,2.4-0.3c-0.8,1.3-1.5,1-2.3,1C297.7,119.4,297.7,119.2,297.6,119z"/>
			<path class="st9" d="M291,117.9c0.9-1.8,1.3-1.9,3.2-0.9C293.4,118.4,292.2,118.1,291,117.9C291,117.8,291,117.9,291,117.9z"/>
			<path class="st9" d="M292.6,120.8c0.5-0.1,1-0.3,1.5-0.4C293.8,121.5,293.3,121.8,292.6,120.8z"/>
		</g>
		<path class="st6" d="M175,231.1c0.6-5.6,4-10.6,8.6-13.8c4.6-3.2,10.2-4.7,15.8-5c2.9-0.1,5.9,0,8.7,1.1c4.6,1.8,7.9,6.1,9.2,10.8
			c1.3,4.7,0.7,9.9-1.1,14.4c-1,2.5-2.3,4.8-4.2,6.6c-2.8,2.7-6.6,4-10.2,5.3c-2.3,0.8-4.7,1.6-7.2,1.6
			C184.6,252.4,173.9,241.1,175,231.1z"/>
	</g>
</g>
</svg>
