<?xml version="1.0" encoding="utf-8"?>
<!-- Generator: Adobe Illustrator 22.1.0, SVG Export Plug-In . SVG Version: 6.00 Build 0)  -->
<svg version="1.1" id="Слой_3" xmlns="http://www.w3.org/2000/svg" xmlns:xlink="http://www.w3.org/1999/xlink" x="0px" y="0px"
	 viewBox="0 0 690 500" style="enable-background:new 0 0 690 500;" xml:space="preserve">
<style type="text/css">
	.st0{clip-path:url(#SVGID_2_);}
	.st1{clip-path:url(#SVGID_4_);}
	.st2{clip-path:url(#SVGID_4_);fill:#84004F;}
	.st3{clip-path:url(#SVGID_4_);fill:#435A2C;}
	.st4{clip-path:url(#SVGID_4_);fill:#420000;}
	.st5{clip-path:url(#SVGID_4_);fill:#8B3216;}
	.st6{clip-path:url(#SVGID_4_);fill:#F3A000;}
	.st7{clip-path:url(#SVGID_4_);fill:#FFFFFF;}
	.st8{clip-path:url(#SVGID_4_);fill:#1E4411;}
</style>
<g>
	<g>
		<defs>
			<rect id="SVGID_1_" x="182" y="33" width="296.1" height="412"/>
		</defs>
		<clipPath id="SVGID_2_">
			<use xlink:href="#SVGID_1_"  style="overflow:visible;"/>
		</clipPath>
		<g class="st0">
			<defs>
				<rect id="SVGID_3_" x="182" y="33" width="296.1" height="412"/>
			</defs>
			<clipPath id="SVGID_4_">
				<use xlink:href="#SVGID_3_"  style="overflow:visible;"/>
			</clipPath>
			<path class="st1" d="M363.9,247.8c0.1,1.6,0.2,3.1,0.4,4.6c0.6,4,1.2,8,1.8,12c0.6,4.1,1.2,8.2,1.9,12.2c1.4,8.4,3.4,16.8,5.7,25
				c0.6,2.2,1.2,4.4,1.8,6.6c0.3,1,0.3,2,0.1,3c-0.2,0.7-0.1,1.5-0.1,2.2c0,0.9-0.2,1.3-1.1,1.6c-0.6,0.2-0.8,0.5-0.9,1.1
				c-0.5,3.5-1.2,7.1-1.7,10.6c-0.5,3.7-0.9,7.4-1.3,11.1c-0.8,6.9-1.6,13.9-2.4,20.8c-1.1,10.5-1.8,21.1-1.6,31.7
				c0,0.9,0.1,1.7,0.1,2.6c0,0.2,0.2,0.5,0.4,0.6c1,0.4,1.6,1.1,1.9,2.1c0.3,1.1,0.6,2.2,0.7,3.3c0.2,1.4,0.9,2.3,2.2,3
				c2.4,1.3,5,2,7.6,2.6c3.6,0.8,7.3,1.6,10.9,2.5c1.6,0.4,3.1,1,4.6,1.7c1.5,0.7,2.1,2,1.7,3.6c-0.6,2.5-2.1,4.3-4.5,5.3
				c-2.1,0.9-4.3,1.1-6.5,1.4c-5.6,0.7-11.2,0.5-16.8,0.2c-3.9-0.2-7.7-0.4-11.6-0.5c-1.8,0-2.8-0.9-3.5-2.4c-1-2.2-1.2-4.5-0.6-6.9
				c0.3-1,0.5-2,0.8-3.1c0.1-0.4,0.1-0.8,0.6-1c0.2-0.1,0.3-0.8,0.3-1.2c-0.6-2.8-1.4-5.6-2-8.4c-2.4-10.8-4.3-21.7-5.6-32.6
				c-0.5-4.2-0.9-8.3-1.1-12.5c-0.1-2,0.2-4.1,0.5-6.1c0.4-3.8,0.9-7.6,1.4-11.4c0.3-2.2,0.7-4.5,1.7-6.5c0.1-0.1,0.1-0.3,0.1-0.4
				c-0.1-1.7-0.2-3.4-0.2-5.1c0-0.5-0.2-0.7-0.7-0.6c-0.3,0.1-0.6,0.1-1,0.1c-1,0-1.5-0.4-1.6-1.4c-0.2-3.4-0.9-6.7-1.9-9.9
				c-1.2-3.8-2.5-7.6-3.2-11.5c-0.7-3.4-1.3-6.7-2.1-10.1c-0.4-2-1.1-4-1.5-6c-0.3-1.6-0.5-3.3-0.7-5c-0.1-1.1-0.2-2.3-0.4-3.4
				c0-0.3-0.2-0.7-0.4-1c-0.1,0-0.1,0-0.2,0c-0.4,1.6-0.8,3.2-1.1,4.7c-1.5,8.3-2.9,16.6-4.5,24.9c-1.3,6.6-2.8,13.2-4.2,19.8
				c-0.1,0.4-0.1,0.8-0.2,1.1c-0.2,0.9-0.5,1.2-1.5,1.2c-0.7,0-1.4,0-2.2,0c0,0.2,0,0.4,0,0.7c0.6,10.8,0.7,21.6,0.6,32.4
				c0,7-0.6,14-1.1,20.9c-0.4,5-1,10.1-0.7,15.2c0.1,1.5,0.4,2.9,0.6,4.4c0.2,1.2,0.4,2.5,0.6,3.7c0.4,1.7,0.8,3.3,1.3,5
				c1.3,4.3,2.2,8.6,2.2,13.1c0,1.5-0.3,1.8-1.7,2.3c-2.8,0.9-5.8,1.2-8.8,1.3c-4.4,0.2-8.7,0.1-13-0.6c-1.3-0.2-2.7-0.6-3.8-1.4
				c-0.5-0.4-0.9-0.9-1.3-1.4c-0.5-0.7-0.5-1.5,0-2.3c4.6-6.9,7.8-14.4,9.7-22.4c0.3-1.2,0.8-2.3,1.2-3.5c0.1-0.3,0.1-0.6,0-0.8
				c-0.6-3.1-1-6.2-1.7-9.3c-1.3-6.2-2.9-12.3-4.1-18.5c-2.5-12.7-3.3-25.5-2.2-38.4c0-0.1,0-0.2,0-0.4c-1.4-0.2-2.9-0.4-4.3-0.6
				c-0.1,0-0.3,0-0.4-0.1c-1-0.2-1.3-0.7-0.9-1.6c0.8-1.7,1.4-3.5,1.9-5.4c0.9-3.6,1.2-7.2,1.2-10.9c0-9.7-0.3-19.4-0.3-29.1
				c0-7.3,0.2-14.5,0.4-21.7c0.1-2.3,0.4-4.6,0.7-6.9c0.1-0.6,0-1.1-0.3-1.6c-1.2-1.7-2.3-3.4-3.5-5.1c-5.3-7-10.6-13.8-15.9-20.8
				c-3.2-4.3-6.4-8.7-9.5-13.2c-1.8-2.6-3.2-5.4-4.8-8.2c-0.1-0.1-0.1-0.3-0.2-0.4c-1.2-1.2-1-2.7-0.6-4.1c0.2-0.9,0.7-1.7,1.2-2.5
				c1.4-2.1,2.6-4.2,3.7-6.5c1.3-2.7,2.9-5.2,4.5-7.6c6.1-9.1,11.4-18.6,16-28.5c1.4-3.1,2.7-6.3,4.2-9.5c0.8-1.8,1.8-3.5,2.8-5.2
				c1.5-2.5,3.9-3.5,6.7-3.9c2.8-0.3,5.5,0.1,8,1.2c2,0.9,4,1.1,6.1,0.7c2.6-0.4,4.2-2,5.2-4.4c0.8-1.9,0.8-4,0.9-6
				c-0.1,0-0.2,0-0.2,0c-1.8,1.8-3.9,1.9-6.2,1.5c-2.4-0.4-4.1-1.6-5.1-3.9c-0.5-1.2-0.8-1.3-2.1-0.8c-1.4,0.5-2.8,1.2-4.2,1.6
				c-3.8,1-6.8-0.9-7.6-5c-0.3-1.4-0.2-2.8-0.4-4.3c-0.5,0-1.1,0-1.7,0.1c-2.4,0.2-3.3-0.8-3.1-3.2c0-0.4,0.1-0.7,0.1-1.1
				c-0.3,0-0.5-0.1-0.7-0.1c-1.6-0.2-2.5-1.1-2.8-2.7c-0.3-1.9,0.2-3.5,1.5-4.9c0.7-0.7,1.5-1.4,2.4-2.3c-0.2-0.1-0.5-0.2-0.7-0.4
				c-0.6-0.7-1.3-1.5-1.7-2.3c-0.6-1.1-0.6-2.2,0-3.4c0.1-0.2,0.1-0.6,0-0.8c-0.8-1.9-1.4-3.9-1.5-6c-0.2-4,2.1-6.6,6.1-6.9
				c1-0.1,1-0.1,1-1.1c-0.1-2.2,0.3-4.3,1.6-6.2c1-1.4,2.3-2.2,3.9-2.4c0.2,0,0.4,0,0.6-0.1c0,0,0,0,0.1-0.1c0.4-3.9,2.7-6.5,6-8.2
				c3.4-1.8,6.8-1.7,10,0.6c0.1-0.2,0.2-0.3,0.2-0.5c0.5-1.8,1.7-3.1,3.4-3.7c1-0.4,2.1-0.7,3.2-0.9c1.4-0.3,2.6,0.4,3.7,1.2
				c0.2,0.1,0.6,0.3,0.8,0.2c1.8-1.3,3.8-1.4,5.9-1.1c3.4,0.5,6.3,1.9,8.2,4.9c0.4,0.7,0.7,1.4,1.1,2.2c0.3-0.1,0.6-0.1,0.9-0.2
				c2-0.5,3.1,0,3.7,1.9c0.5,1.4,0.7,2.9,1.1,4.3c0.4,0,0.8-0.1,1.3-0.1c2.7-0.1,5,0.9,6.9,2.7c1.4,1.3,1.8,2.8,1.3,4.7
				c0,0.2-0.1,0.3-0.1,0.6c0.4,0.1,0.8,0.2,1.2,0.2c3.9,0.8,5.6,4.5,3.8,8c-0.5,1-1.3,2-2,3c1.8,1.4,2.3,3.3,1.9,5.6
				c-0.5,2.2-1.6,3.9-3.8,4.8c0.3,0.6,0.7,1.1,0.9,1.7c1.3,2.7,1.5,5.3-0.1,8c-1.1,1.8-2.7,2.9-4.9,3.1c-0.2,0-0.4,0.1-0.7,0.1
				c0.1,3-0.9,5.1-4.1,5.7c-0.3,1.4-1.1,2.5-2.3,3.3c-1.4,1-2.9,1.2-4.5,0.3c-0.2-0.1-0.5,0-0.7,0.1c-0.4,0.3-0.8,0.7-1.2,0.9
				c-0.8,0.4-1.7,0.6-2.5,0.8c0-0.1-0.1-0.1-0.1-0.2c0,0.1-0.1,0.2,0,0.3c0.4,2.4,1.2,4.7,2.8,6.6c1.3,1.6,2.9,2.4,5,2.2
				c1.6-0.1,3.2-0.3,4.7-0.5c1.9-0.3,3.5,0.3,4.9,1.5c0.4,0.3,0.7,0.7,0.6,1.3c0,0.1,0.1,0.3,0.2,0.5c3.3,4.9,5.8,10.3,8.6,15.5
				c3.5,6.5,6.9,13.1,10.4,19.6c1.7,3.1,3.6,6,5.3,9c1,1.8,2.1,3.6,3,5.5c0.8,1.7,1.1,3.6,1.9,5.2c1.6,3.2,1.2,6.3,0.3,9.5
				c-2.2,7.8-5.1,15.3-8.9,22.5c-4.1,7.6-8.2,15.1-12.3,22.7c-0.6,1.1-1.3,2.1-1.9,3.1c-0.2,0.3-0.4,0.5-0.4,0.8
				C365,247.5,364.6,247.8,363.9,247.8 M350.3,132.3c-0.9-0.1-0.9-0.1-0.9,0.8c0,0.8,0,1.7-0.1,2.5c-0.6,3.5-1.2,6.9-1.9,10.4
				c-0.7,3.3-2.1,6.1-4.4,8.6c-3.9,4.1-12.4,5.6-16.8-1.1c-1.4-2.1-2.8-4.2-4.1-6.4c-2.3-3.8-4-7.8-5.3-12c-0.1-0.2-0.3-0.5-0.5-0.5
				c-0.6,0-1.2,0-1.8,0.1c0,0.2,0.1,0.4,0.1,0.6c0.2,1.5,0.5,3,0.7,4.4c0.8,7.7,0.8,15.5,0.4,23.3c-0.2,3.5-0.8,6.9-2.2,10.1
				c-1.3,2.9-3,5.6-5.4,7.6c-1.6,1.3-3.4,2.1-5.4,2.5c0,0.2,0,0.4,0,0.6c1.5,8.6,2.9,17.3,4.4,25.9c0.8,4.7,1.7,9.4,2.6,14.2
				c0.5,3.2,0.5,6.3-1.9,8.8c0,0,0,0,0,0.1c-0.5,0.8-0.6,1.6,0,2.3c0.3,0.5,0.6,0.9,1,1.4c1.5,1.8,3.5,2.8,5.7,3.6
				c9.6,3.3,19.5,5,29.7,4.7c3-0.1,5.8-0.7,8.6-1.7c1.3-0.5,2.7-0.9,4-1.5c1.2-0.5,2.4-1.3,3.5-1.9c0.4-0.2,0.5-0.7,0.5-1.2
				c-0.2-1.8-0.4-3.7-1.6-5.2c-0.2-0.3-0.3-0.6-0.5-0.9c-0.9-1.9-1-3.8-0.1-5.7c0.4-0.7,0.7-1.5,1.1-2.2c0.4-0.7,0.3-1.3-0.1-2
				c-1.1-1.7-1.7-3.5-1.9-5.5c-0.1-2-0.3-3.9-0.4-5.9c-0.2-3.7-0.5-7.4-0.7-11c-0.2-3.4-0.5-6.8-0.7-10.2c-0.3-4.1-0.6-8.2-0.8-12.3
				c-0.3-3.9-0.6-7.7-0.7-11.6c-0.1-3.3,0.1-6.5,0.1-9.8c0-0.8-0.1-1.6-0.2-2.4c-1-5.7-2.1-11.4-3.1-17.1
				C350.6,135.2,350.5,133.8,350.3,132.3 M353.8,244.4c-1.5,0.5-2.9,0.9-4.3,1.4c-0.2,0.1-0.3,0.4-0.4,0.6c-0.1,2.6-0.2,5.3-0.3,7.9
				c-0.1,1.5-0.1,3-0.3,4.4c-0.1,1.2-0.5,1.5-1.6,1.8c-2.1,0.5-4.3,0.9-6.4,1.4c-1,0.2-2,0.4-3,0.5c-0.9,0.1-1.4-0.4-1.6-1.3
				c0-0.3,0-0.5,0-0.8c0.3-3.2,0.5-6.5,0.8-9.7c0.1-1.4,0.2-2.8,0.3-4.2c-0.3,0-0.5-0.1-0.6-0.1c-5.5-0.5-11-1.4-16.4-2.8
				c-0.6-0.1-0.8,0-1.1,0.4c-3.8,5.8-7.5,11.5-11.3,17.3c-1.2,1.8-2.4,3.5-3.7,5.2c-0.8,1.1-1.5,1.2-2.8,0.7
				c-0.7-0.2-1.3-0.5-2.1-0.8c0,1.9,0,3.8,0,5.6c0.2,8.4,0.4,16.8,0.5,25.2c0,4.8-0.2,9.6-0.4,14.4c0,1-0.1,1,0.8,1.3
				c2.9,1.1,5.9,1.6,8.9,1.9c5.5,0.4,10.9,0.1,16.4-0.3c0.4,0,0.6-0.2,0.7-0.6c0.7-3.3,1.5-6.5,2.1-9.8c1.6-8.7,3.1-17.5,4.8-26.2
				c0.6-3.2,1.6-6.2,2.4-9.3c0.2-0.7,0.7-1.1,1.4-1.3c0.5-0.1,1.1-0.3,1.6-0.4c3.8-1.2,7.6-2.3,11.4-3.5c0.3-0.1,0.7-0.1,1.1-0.2
				c0,0.1,0,0.1,0.1,0.2c-0.3,0.2-0.7,0.4-1,0.6c-4,2.1-8.1,3.8-12.5,5c-0.2,0.1-0.6,0.4-0.6,0.6c0.1,0.7,0.3,1.4,0.5,2
				c0.2,0.8,0.7,1.5,0.8,2.3c0.2,1,0.2,2,0.4,3c0.2,1.6,0.4,3.2,0.7,4.8c0.3,1.7,0.9,3.3,1.3,4.9c0.9,4.2,1.7,8.4,2.7,12.6
				c1,3.9,2.2,7.8,3.4,11.7c0.1,0.4,0.4,0.4,0.7,0.4c3.1-0.2,6.3-0.2,9.4-0.5c5.4-0.6,10.7-1.9,15.8-3.8c0.8-0.3,0.8-0.3,0.6-1.2
				c-0.4-1.3-0.7-2.7-1.1-4c-2.7-9.8-4.8-19.7-6-29.8c-0.3-2.7-0.5-5.4-1.5-7.9c-0.1-0.4-0.3-0.8-0.4-1.1c-2.5-4.5-5.1-9-7.6-13.5
				C355.5,247.6,354.7,246,353.8,244.4 M341.1,119.9c0,0.1,0,0.1,0,0.2c0.3,0,0.6,0.1,0.9-0.1c1-0.5,2-1.1,2.9-1.7
				c0.4-0.3,0.8-0.4,1.2,0.1c0.5,0.6,1.2,0.7,1.9,0.6c1.5-0.3,2.8-1.7,3-3.2c0.1-0.8,0.4-1.1,0.9-1c1.6,0.1,2.8-0.9,3-2.5
				c0.1-0.6,0-1.2,0-1.7c0-1.1,0.2-1.5,1.4-1.4c3.6,0.1,5.7-3.3,5.3-6.3c-0.2-1.8-1.1-3.4-2.2-4.8c-0.6-0.8-0.4-1.4,0.6-1.6
				c0.5-0.1,0.9-0.2,1.3-0.5c2.3-1.4,3.5-6.4,0.1-7.9c-0.7-0.3-0.7-1-0.1-1.4c1.3-0.9,2.2-2.1,2.7-3.6c0.7-2.4,0-4.5-2.7-5.1
				c-0.6-0.2-1.3-0.2-1.9-0.3c-0.8-0.2-1.1-0.7-0.9-1.5c0.1-0.2,0.1-0.4,0.2-0.7c0.5-1.5,0.2-2.7-1-3.7c-2-1.6-4.1-2.4-6.7-2.1
				c-1.4,0.2-1.7-0.1-1.9-1.5c-0.2-1.4-0.5-2.7-0.9-4.1c-0.3-1-0.7-1.1-1.7-0.9c-0.6,0.1-1.1,0.3-1.7,0.4c-0.7,0.1-1-0.1-1.2-0.8
				c-0.2-0.6-0.4-1.2-0.6-1.8c-1.2-2.4-3.4-3.7-5.9-4.4c-2.3-0.6-4.6-0.8-6.7,0.8c-0.5,0.4-1.1,0.3-1.6,0c-0.4-0.3-0.7-0.6-1.2-0.8
				c-0.6-0.2-1.2-0.6-1.7-0.5c-3.3,0.4-5.3,1.6-5.9,4.4c-0.3,1.2-0.9,1.4-1.9,0.7c-1.1-0.8-2.2-1.5-3.5-1.6
				c-3.5-0.5-6.3,1.1-8.6,3.6c-1.2,1.2-1.8,2.8-1.9,4.5c-0.1,1.1-0.4,1.4-1.5,1.4c-1.6,0.1-2.7,0.7-3.6,2.1c-1,1.5-1.3,3.2-1.2,4.9
				c0,2.3-0.3,2.5-2.5,2.8c-0.9,0.1-1.7,0.4-2.5,0.8c-1.4,0.8-2,2.1-2.1,3.7c-0.1,2.4,0.5,4.6,1.5,6.7c0.2,0.5,0.4,1,0,1.5
				c-0.7,1-0.6,2,0,2.9c0.5,0.7,1.2,1.4,1.8,2.1c0.8,0.8,0.8,1.2-0.1,2c-0.7,0.7-1.5,1.3-2.2,2c-0.9,0.9-1.4,2.1-1.3,3.4
				c0.1,1.3,0.6,1.8,1.9,2c0.2,0,0.5,0,0.7,0.1c0.9,0.1,1.2,0.6,1,1.5c-0.1,0.6-0.2,1.2-0.2,1.8c0,0.8,0.3,1,1.1,1
				c0.7,0,1.5-0.1,2.2-0.1c1.4,0,1.8,0.4,1.7,1.8c-0.1,1.9,0,3.7,0.8,5.4c0.8,1.6,2.2,2.5,4,2.3c1.2-0.1,2.3-0.5,3.4-0.9
				c1-0.3,1.9-0.8,2.9-1.1c1.1-0.3,2,0.2,2.6,1.2c0.3,0.6,0.6,1.1,0.9,1.7c0.4,0.7,1.1,1.3,1.9,1.6c1.3,0.5,2.6,0.7,4,0.6
				c1.6-0.1,2.7-1,3.5-2.3c0.4-0.7,0.2-1.1-0.5-1.3c-2.3-0.8-4.6-1.8-6.7-3.1c-2.6-1.6-4.8-3.6-6.2-6.4c-0.1-0.1-0.1-0.2-0.2-0.3
				c-1.9,1.1-3.7,1.2-5.6,0.2c-0.8-0.4-1.6-0.9-2.3-1.5c-2.4-2.2-3.7-4.9-3-8.2c0.5-2.8,2.4-4.7,4.7-6.1c0.6-0.3,1.4-0.3,2.1-0.4
				c0.6-0.1,1.2,0,1.7-0.2c1.5-0.5,2.9-1.1,4.3-1.8c1.6-0.8,2.7-2.2,3.1-4.1c0.1-0.5,0.2-0.9,0.4-1.4c0.5-1.5,1.2-2,2.7-1.9
				c2.2,0.1,4.1-0.6,5.8-1.9c0.9-0.7,1.4-1.5,1.3-2.6c0-0.4,0-0.7,0-1.1c0-0.6,0.3-0.9,0.8-1c2.7-0.7,5.2-0.6,7.4,1.4
				c0.2,0.2,0.4,0.3,0.7,0.5c1,0.8,2.2,1.1,3.5,1.1c2,0,3.8-0.7,5.5-1.6c0.5-0.3,1.3-0.4,1.9-0.4c0.9,0,1.6,0.4,2.2,1
				c2,1.7,4.3,2.7,7,2.4c0.4,0,0.7,0.1,0.8,0.5c0.1,0.4-0.2,0.7-0.6,0.8c-0.4,0.1-0.9,0.1-1.3,0.2c0,0.2,0,0.3,0,0.5
				c0.2,1.5,0.4,3,0.7,4.5c1.2,6.2,1.1,12.3-0.6,18.4c-1.5,5.2-4.3,9.3-9,12.2C342.7,119.2,341.9,119.5,341.1,119.9 M300.8,173.7
				c0.2,1,0.4,1.6,0.5,2.3c0.2,1,0.3,1.1,1.2,0.9c1.2-0.2,2.1-0.9,2.9-1.8c2-2.4,3.1-5.3,3.6-8.3c0.6-3.9,0.8-7.8,0.8-11.7
				c0-7-0.1-13.9-0.1-20.9c0-0.5-0.2-0.7-0.7-0.9c-2-0.7-4.1-0.9-6.2-0.7c-2.7,0.3-4.7,1.5-5.9,3.9c-0.6,1.2-1.3,2.3-1.8,3.5
				c-1.1,2.4-2,4.9-3.1,7.4c-1.9,4.3-4.1,8.6-6.4,12.7c-3.5,6.5-7.3,12.8-11.3,19c-1.6,2.6-3.2,5.2-4.5,7.9c-0.9,1.7-1.7,3.4-2.9,5
				c-0.3,0.4-0.6,0.8-0.9,1.3c-1.1,1.8-1.2,3.7-0.1,5.5c1.1,1.8,2.1,3.7,3.4,5.4c3.3,4.7,6.7,9.4,10.2,14.1
				c4.7,6.3,9.4,12.5,14.2,18.7c1.5,1.9,3.1,3.7,4.4,5.7c1.2,1.8,2.2,3.7,3.3,5.6c0.5,0.8,1.1,1.4,1.7,2.2c1.1-1.7,2.2-3.3,3.2-4.9
				c0.3-0.4,0.5-0.9,0.8-1.4c0.4-0.7,0.3-1.5-0.1-2.2c-0.8-1.3-1.5-2.6-2.3-3.9c-1.2-1.8-2.3-3.7-3.7-5.3c-4.3-5.2-7.7-11-9.7-17.5
				c-0.9-3-1.9-5.9-2.7-8.9c-1.3-4.8-3.9-8.7-8.2-11.4c-0.4-0.2-0.8-0.5-1.1-0.9c-0.2-0.2-0.2-0.5-0.2-0.8c0.3,0,0.6-0.1,0.8,0
				c0.9,0.5,1.9,1.1,2.8,1.6c0.2,0.1,0.3,0.2,0.4,0.2c0.4-0.7,0.7-1.3,1.2-1.9c2.8-3.7,5.6-7.3,8.5-10.9c2.9-3.6,5.9-7.1,8.4-11
				c1.1-1.8,2.3-3.5,3.4-5.3c0.1-0.2,0.4-0.4,0.5-0.5c0.1,0,0.1,0.1,0.2,0.1c0,0.3-0.1,0.6-0.1,1c0.2-0.1,0.4-0.3,0.6-0.4
				c0.8-0.4,1.6-0.8,2.4-1.2c0.4-0.2,0.8-0.1,1,0.3c0.2,0.5-0.1,0.8-0.5,1c-0.2,0.1-0.3,0.1-0.5,0.2c-1.5,0.6-2.9,1.4-3.9,2.7
				C302.8,170.6,301.7,172.3,300.8,173.7 M356.5,405.6c0,0.1,0.1,0.1,0.1,0.2c0.5-0.2,1-0.3,1.4-0.5c0.6-0.4,1-0.9,1.6-1.3
				c0.7-0.6,1.2-1.2,0.5-2.1c-0.1-0.1-0.1-0.2-0.1-0.2c-1.3-3.5,1.6-7.2,4.3-8.1c0.4-0.1,0.5-0.4,0.5-0.8c-0.1-1.8-0.2-3.7-0.2-5.5
				c0-13.3,1.3-26.6,3.1-39.8c0.8-6.1,1.5-12.1,2.3-18.2c0.5-3.5,1-7,1.5-10.6c0.1-0.9,0.2-1.7,0.4-2.7c-6.8,2.8-13.8,3.4-20.8,4.5
				c0.3,2.6,0.2,5.1-0.4,7.5c-0.4,1.7-0.7,3.4-1,5.2c-0.5,3.7-0.9,7.3-1.4,11c-0.6,4.2-0.7,8.3-0.2,12.5c0.9,6.8,1.7,13.5,2.8,20.3
				c1.2,8,2.8,16,4.8,23.8C356.1,402.4,356.8,403.9,356.5,405.6 M364,245.1c0.8-1.4,1.7-2.9,2.6-4.4c2.8-5.1,5.5-10.2,8.3-15.2
				c3.6-6.4,6.9-12.9,9.3-19.8c1.2-3.5,2.5-7.1,3.2-10.8c0.3-1.7,0.3-3.3-0.5-4.9c-0.5-1-0.8-2-1.1-3c-0.4-1-0.6-2.1-1.1-3
				c-0.9-1.8-1.9-3.7-3-5.4c-4-6.5-7.8-13.1-11.3-19.9c-4.4-8.6-8.4-17.3-13.3-25.6c-0.5-0.9-1.6-1.4-2.6-1.2c0.2,1,0.4,1.9,0.5,2.9
				c0.2,2.5,0.3,5.1,0.4,7.6c0.1,4.9,0.3,9.7,0.4,14.6c0,2.6-0.1,5.1-0.1,7.7c0,0.5,0.1,1.1,0.3,1.6c3.2,8.1,8.3,14.9,15.1,20.4
				c1.4,1.1,2.8,2.3,4.1,3.6c0.4,0.4,0.8,1,1,1.6c0.2,0.4,0,0.9-0.5,1.1c-0.5,0.2-0.9-0.1-1.1-0.5c-0.1-0.2-0.2-0.4-0.4-0.7
				c-0.5,1.3-1,2.6-1.5,3.9c-1.9,4.4-2.8,8.9-2.3,13.7c0.1,1.6,0.2,3.3-0.1,4.9c-0.3,2.2-1,4.4-1.5,6.6c-1.1,4.6-3.5,8.5-7,11.6
				c-0.3,0.3-0.8,0.6-0.9,0.9c-0.1,0.4,0.2,0.8,0.4,1.2c0.6,1.6,0.5,3.2,0.4,4.9c0,0.3,0,0.6,0.1,0.8
				C362.6,241.8,363.3,243.4,364,245.1 M306.7,94.6c1,3.5,2,7.1,2.9,10.7c0.9,3.7,2.9,6.6,6,8.6c6.4,4.1,13.4,6.2,21,5.4
				c3-0.3,5.7-1.4,8.1-3.4c3.8-3.2,5.7-7.3,6.7-12c1-5,1-10,0.2-15c-0.3-1.9-0.4-3.8-0.7-5.8c-2.1-0.4-4.1-1.5-5.8-3
				c-0.4-0.3-1.2-0.5-1.7-0.4c-0.9,0.3-1.8,0.9-2.7,1.4c1.6-0.1,3.1,0.4,4.4,1.2c0.1,0.1,0.3,0.1,0.4,0.2c0.4,0.2,0.8,0.4,0.7,1
				c-0.1,0.5-0.6,0.6-1,0.6c-0.5,0-0.9,0-1.4,0c-2.9,0.2-5.4,1.1-7.9,2.6c-0.5,0.3-1,0.6-1.5,0.8c-0.6,0.3-1.8-0.1-2.2-0.7
				c-0.3-0.5-0.2-1,0.5-1.7c1.4-1.3,3-2.3,4.7-3c0.2-0.1,0.4-0.2,0.6-0.3c0,0-0.1-0.1-0.1-0.1c-0.1,0-0.2,0-0.3,0
				c-2.2,0.2-4.1-0.4-5.8-1.8c-0.4-0.3-0.8-0.7-1.3-1c-1.6-1.1-3.3-0.9-5.1-0.7c0,0.4,0,0.8,0.1,1.2c0.2,1.4-0.3,2.6-1.4,3.5
				c-2,1.6-4.3,2.5-6.9,2.5c-1.1,0-1.2,0.1-1.5,1.1c-0.1,0.3-0.2,0.6-0.2,1c0.2-0.1,0.3-0.1,0.4-0.1c1.8-0.7,3.6-1,5.5-0.9
				c1.1,0.1,2.2,0.3,3.3,0.6c1,0.3,1.2,0.9,0.9,1.9c-0.1,0.2-0.1,0.3-0.2,0.5c-0.1,0.4-0.4,0.5-0.8,0.5c-3.6-0.4-7,0.4-10.1,2.3
				c-0.4,0.2-0.7,0.4-1.1,0.7c-0.6,0.3-1.2,0.4-1.9,0.1c-0.2-0.1-0.4-0.1-0.6-0.1C309.6,93.4,308.1,94,306.7,94.6 M319.3,394.7
				c0-0.9-0.1-1.7-0.1-2.4c-0.2-5.7,0.6-11.3,0.9-16.9c0.3-6,0.9-12.1,0.9-18.1c0.1-10.4-0.1-20.8-0.1-31.2c0-0.6,0.1-1.5-0.2-1.8
				c-0.4-0.3-1.2-0.1-1.9-0.1c-4.6,0.1-9.1,0.1-13.7,0.2c-1.2,0-2.4-0.1-3.6-0.2c0,0.4-0.1,0.7-0.1,1.1c-0.7,13.9,0.4,27.6,3.4,41.2
				c1.3,5.7,2.6,11.4,3.8,17.1c0.6,2.6,1,5.3,1.4,7.9C313.6,390.9,316.8,391.6,319.3,394.7 M305.7,236.3c0-0.5-0.1-0.9-0.1-1.2
				c0-0.6-0.2-1.2-0.1-1.7c0.2-0.7,0.5-1.5,1-2.1c1.1-1.4,1.6-3,1.4-4.8c-0.1-1.3-0.2-2.6-0.4-3.8c-1.3-7.2-2.6-14.3-3.8-21.5
				c-1.2-7-2.1-14.1-3.2-21.2c-0.2-1.6-0.4-3.1-0.6-4.8c-5.4,6.9-10.7,13.8-16,20.7c0.1,0.1,0.2,0.2,0.2,0.3
				c2.5,2.2,4.2,4.9,5.2,8.1c0.9,2.8,1.7,5.7,2.6,8.5c1.6,5.1,3.6,10,6.7,14.3c1.5,2.1,3.2,4.2,4.7,6.2
				C304.2,234.2,304.9,235.2,305.7,236.3 M360,231.8c3.1-2.6,5.5-5.6,6.7-9.4c0.6-1.9,1.1-3.8,1.6-5.7c0.7-2.3,0.8-4.7,0.6-7.1
				c-0.3-4,0-7.9,1.4-11.6c0.9-2.3,1.9-4.5,2.9-6.7c0.2-0.5,0.1-0.7-0.2-1c-0.9-0.7-1.8-1.5-2.7-2.2c-6-4.8-10.9-10.5-14-17.6
				c0-0.1-0.1-0.1-0.2-0.3c0,0.5,0,0.9,0.1,1.3c0.2,2.7,0.4,5.3,0.6,8c0.3,4.7,0.6,9.4,0.9,14.1c0.5,7.4,1,14.9,1.5,22.3
				c0.1,2,0.5,3.9,1.6,5.6c0.8,1.3,0.8,2.6,0.1,3.9c-0.4,0.8-0.8,1.6-1.2,2.4C359,229.2,359.2,230.5,360,231.8 M324.6,119.7
				c-0.1,1.8-0.1,3.5-0.2,5.2c-0.1,2.4-0.6,4.8-2.3,6.7c-0.1,0.2-0.1,0.5-0.1,0.8c1.4,5.8,3.9,11.1,7.3,15.9c0.8,1.1,1.8,2,3,2.7
				c2.6,1.5,6.7,1.4,8.7-2.5c0.8-1.5,1.3-3.1,1.3-4.8c0.2-4.6,0.3-9.1,0.4-13.7c0-0.3-0.1-0.6-0.3-0.8c-1.4-2-2.2-4.2-2.6-6.6
				c-0.1-0.8-0.2-1.5-0.3-2.3C334.4,121.4,329.4,121.2,324.6,119.7 M383.2,407.5c-0.5-0.1-1.1-0.3-1.6-0.4c-1.2-0.3-1.1-0.3-1.8,0.8
				c-0.7,1.1-1.4,2.2-2.3,3.2c-1.3,1.4-2,1.6-3.8,0.8c-4.3-2-8.4-4.4-12.1-7.4c-0.6,0.6-1.2,1.2-1.9,1.8c-1.2,1-2.5,1.6-4.1,0.8
				c-0.3,1.2-0.5,2.3-0.8,3.4c-0.4,1.8-0.2,3.6,0.6,5.3c0.4,0.8,0.9,1.3,1.9,1.3c1.9,0,3.7,0.1,5.6,0.2c5.2,0.2,10.5,0.3,15.7,0.5
				c0.5,0,0.8-0.1,0.9-0.7c0.6-3.4,1.6-6.6,3.8-9.4C383.2,407.6,383.2,407.6,383.2,407.5 M311.8,421.6l0-0.2c1.1,0,2.3,0,3.4,0
				c2.8-0.1,5.6-0.4,8.3-1.2c0.5-0.1,0.6-0.4,0.6-0.9c0-1.3-0.6-2.5-1-3.6c-0.4-1-1.1-1.8-2.1-2.3c-1.6-1-3.4-1.5-5.3-1.7
				c-4.8-0.5-9.3,0.6-13.4,3.2c-1.2,0.7-2.1,1.7-2.8,3c-0.1,0.1-0.2,0.3-0.4,0.3c-0.5,0.2-0.5,0.6-0.2,1c0.2,0.3,0.5,0.5,0.8,0.7
				c0.9,0.4,1.8,0.9,2.8,1C305.6,421.1,308.7,421.4,311.8,421.6 M306.9,236.8c-0.4,0.9-0.3,1.6,0.4,2.2c0.1,0.1,0.2,0.3,0.2,0.4
				c0.3,0.6,0.4,1.2,0.8,1.7c0.7,1.1,0.8,2.3,0.2,3.4c-0.5,1.1-1.2,2.1-1.8,3.1c-1.1,1.8-2.4,3.5-3.4,5.4c-1.4,2.4-2.6,5-3.9,7.5
				c-0.2,0.3-0.3,0.6-0.3,1c-0.1,0.9,0,1.8-0.1,2.6c0,0.4,0.1,0.5,0.5,0.7c0.7,0.3,1.5,0.5,2.2,0.8c0.4,0.2,0.7,0.1,1-0.3
				c0.6-0.8,1.2-1.6,1.8-2.4c4.1-6.2,8.1-12.4,12.2-18.5c0.3-0.5,0.6-0.9,1-1.5C313.7,241.6,309.5,240.5,306.9,236.8 M296.8,321.7
				c0,0,0.1,0.1,0.3,0.1c3.2,0.3,6.4,0.8,9.5,0.9c5.7,0.1,11.4-0.1,17.2-0.2c0.1,0,0.4-0.2,0.4-0.4c0.2-0.5,0.2-1.1,0.3-1.6
				c0.3-1.4,0.6-2.8,0.9-4.3c-0.3,0-0.5,0-0.7,0c-5.4,0.3-10.8,0.6-16.2,0.1c-3.2-0.3-6.4-0.9-9.3-2.2c-0.1,0-0.2-0.1-0.2-0.1
				C298.3,316.5,297.6,319.1,296.8,321.7 M344.3,131.4c0,0.2,0,0.4,0,0.6c-0.1,3.5-0.1,7.1-0.3,10.6c-0.1,2.6-0.6,5.1-2,7.3
				c-1.6,2.6-4,3.8-7.1,3.6c-2.6-0.2-4.7-1.5-6.3-3.5c-3.7-4.7-6.1-10.1-7.6-15.9c-0.1-0.4-0.2-0.8-0.2-1.1c-1.1,0.5-2.1,1-3.2,1.5
				c0.3,0.8,0.6,1.6,0.9,2.4c2.3,5.8,5.3,11.3,9.1,16.3c1,1.3,2.1,2.5,3.7,2.9c3.2,0.9,6.3,0.7,9-1.3c2.5-1.8,4.3-4.2,5.1-7.1
				c1.4-4.8,2.3-9.6,2.6-14.6c0-0.2,0-0.5,0-0.5C346.7,132.2,345.5,131.8,344.3,131.4 M348,319c0.2,0,0.4,0,0.6,0
				c2.5-0.3,5-0.6,7.5-0.9c5.9-0.8,11.7-2,17.2-4.3c0.4-0.2,0.5-0.4,0.5-0.7c0-0.7,0-1.5,0.2-2.2c0.2-1,0-1.9-0.3-2.8
				c-8.6,3.3-17.4,4.8-26.6,4.4C347.3,314.6,347.7,316.7,348,319 M311.5,134c0,0.9,0,1.8,0,2.6c0.2,8.9,0.3,17.9-0.4,26.8
				c-0.2,3-0.7,6-2,8.7c-0.3,0.5-0.5,1.1-0.8,1.6c-1.5,2.4-3.2,4.6-6.5,4.5c0.2,1.3,0.4,2.5,0.6,3.9c1-0.4,2-0.7,2.8-1.2
				c2.5-1.3,4.1-3.4,5.5-5.7c2.4-4,3.4-8.3,3.5-12.9c0.2-5.1,0.2-10.2,0.1-15.3c0-4.1-0.4-8.2-1.3-12.2c0-0.2-0.2-0.5-0.4-0.6
				C312.3,134.2,311.9,134.1,311.5,134 M348,246.3c-3.2,0.1-6.4,0.2-9.6,0.3c-0.3,4.7-0.6,9.6-0.8,14.4c0.4,0,0.7-0.1,1-0.1
				c2.7-0.6,5.3-1.2,8-1.7c0.7-0.1,0.9-0.4,1-1.1c0.1-1.6,0.2-3.3,0.3-4.9C347.8,250.9,347.9,248.6,348,246.3 M317.5,408.3
				c0.1-0.6,0.1-1.2,0.2-1.8c0.4-2.9,0.9-5.9,1.3-8.8c0-0.3,0-0.6-0.1-0.8c-2-3.2-4-4.1-7.8-4c-1.1,0-1.8,1-1.7,2.1
				c0.2,4,0.2,8-0.2,12c0,0.4-0.1,0.9-0.2,1.4C311.9,407.4,314.7,407.6,317.5,408.3 M379,406.4c-0.4-0.1-0.5-0.2-0.7-0.2
				c-2.3-0.5-4.7-1.2-6.8-2.3c-2.1-1.1-3.4-2.6-3.7-5c-0.1-0.7-0.1-1.5-0.3-2.2c-0.3-1.6-1.8-2.2-3.2-1.5c-1.3,0.7-2.3,1.8-2.8,3.2
				c-0.7,2.1,0.9,5.2,3,6.2c0.7,0.3,1.4,0.8,2,1.2c2.6,1.6,5.2,3.2,8,4.4c0.6,0.2,1,0.2,1.4-0.2C377,408.9,378,407.7,379,406.4
				 M380.8,417.7c1.2-0.1,2.3-0.1,3.3-0.2c2.4-0.2,4.7-0.5,7-1.3c1.9-0.7,3.2-2,3.7-3.9c0.3-1.1,0.1-1.6-0.9-2
				c-1.1-0.5-2.1-1-3.2-1.2c-1.8-0.4-3.6-0.7-5.4-1.1c-0.4-0.1-0.7,0-0.9,0.4c-1.3,1.9-2.2,4-2.8,6.2
				C381.2,415.5,381,416.5,380.8,417.7 M306.8,101.4c-0.3-1.3-0.5-2.6-0.8-3.8c-0.1-0.5-0.3-1-0.5-1.5c-0.6-1.2-1.5-1.5-2.6-0.8
				c-2.3,1.4-3.5,3.6-3.3,6.3c0.3,3.3,2.3,5.4,5.2,6.6c1.1,0.4,2.2,0.2,3.2-0.2c0.4-0.2,0.5-0.4,0.4-0.8c-0.2-0.6-0.3-1.2-0.5-1.8
				c-0.3-1-0.6-2-0.8-3c-0.9,0.3-1.2,0.9-1.4,1.7c-0.1,0.4-0.2,0.9-0.7,0.9c-0.5-0.1-0.6-0.6-0.5-1.1c0.1-0.4,0.2-0.8,0.4-1.1
				C305.3,102,305.9,101.6,306.8,101.4 M302,413.1c1.7-0.7,3.3-1.6,5-2.1c4.6-1.4,9.2-1.6,13.6,0.5c1,0.5,1.9,1.2,2.9,1.8
				c-1.2-4.6-2.4-9.2-3.6-13.8c-0.3,1.9-0.5,3.8-0.8,5.7c-0.2,1.3-0.2,2.5-0.4,3.8c-0.1,0.8-0.6,1.2-1.4,1c-3-0.8-6-1-8.9,0.3
				c-0.9,0.4-1.6-0.2-1.4-1.2c0.1-0.6,0.3-1.2,0.4-1.8c0.2-3.4,0.4-6.8,0.6-10.2c0-0.2,0-0.3,0-0.5
				C306.9,402.3,304.9,407.9,302,413.1 M363.1,258.2c0,0,0.1,0,0.1-0.1c0-0.3-0.1-0.6-0.1-0.9c-0.3-3.5-0.8-7.1-0.9-10.6
				c-0.1-2-1-3.6-1.5-5.6c-1.5,2-3.7,2.1-5.7,3C357.8,248.7,360.5,253.4,363.1,258.2 M353.9,147.2c0.1,0,0.1,0,0.2,0
				c-0.5-5.1,0-10.2-0.9-15.3c-0.7,0.1-1.3,0.1-2.1,0.2C352.1,137.2,353,142.2,353.9,147.2 M299.6,248.9c-0.2,2.9-0.3,5.7-0.5,8.5
				c0.1,0,0.1,0,0.2,0c0.9-1.7,1.8-3.3,2.7-5c0.1-0.2,0-0.5-0.2-0.7C301.3,250.8,300.5,249.9,299.6,248.9 M313.8,90.9
				c3.4-2.1,7-2.8,10.8-2.2c-0.1-0.5,0-0.5-0.6-0.6c-1.9-0.5-3.9-0.5-5.8,0C316.6,88.5,314.9,89.1,313.8,90.9 M341.9,82.5
				c-3.2-0.1-5.8,1.5-8.1,3.5c0.3,0,0.5-0.1,0.7-0.2c1.5-0.8,3-1.7,4.5-2.4C339.9,83,340.9,82.8,341.9,82.5"/>
			<path class="st2" d="M350.3,132.3c0.2,1.5,0.3,2.9,0.6,4.4c1,5.7,2.1,11.4,3.1,17.1c0.1,0.8,0.2,1.6,0.2,2.4
				c0,3.3-0.2,6.5-0.1,9.8c0.1,3.9,0.4,7.8,0.7,11.6c0.3,4.1,0.6,8.2,0.8,12.3c0.2,3.4,0.5,6.8,0.7,10.2c0.2,3.7,0.5,7.4,0.7,11
				c0.1,2,0.3,3.9,0.4,5.9c0.1,2,0.8,3.8,1.9,5.5c0.4,0.7,0.5,1.3,0.1,2c-0.4,0.7-0.7,1.5-1.1,2.2c-1,1.9-0.9,3.8,0.1,5.7
				c0.2,0.3,0.3,0.6,0.5,0.9c1.2,1.5,1.4,3.4,1.6,5.2c0,0.5-0.1,0.9-0.5,1.2c-1.2,0.7-2.3,1.4-3.5,1.9c-1.3,0.6-2.7,1-4,1.5
				c-2.8,1-5.6,1.6-8.6,1.7c-10.2,0.2-20.1-1.4-29.7-4.7c-2.1-0.7-4.1-1.8-5.7-3.6c-0.4-0.4-0.6-0.9-1-1.4c-0.6-0.8-0.4-1.6,0-2.3
				c0,0,0,0,0-0.1c2.4-2.6,2.4-5.7,1.9-8.8c-0.8-4.7-1.7-9.4-2.6-14.2c-1.5-8.6-3-17.3-4.4-25.9c0-0.2,0-0.4,0-0.6
				c2-0.3,3.8-1.1,5.4-2.5c2.5-2.1,4.2-4.7,5.4-7.6c1.4-3.2,2.1-6.6,2.2-10.1c0.4-7.8,0.4-15.5-0.4-23.3c-0.2-1.5-0.5-3-0.7-4.4
				c0-0.2-0.1-0.4-0.1-0.6c0.7,0,1.3-0.1,1.8-0.1c0.2,0,0.4,0.3,0.5,0.5c1.3,4.2,3.1,8.2,5.3,12c1.3,2.2,2.7,4.3,4.1,6.4
				c4.4,6.6,12.9,5.2,16.8,1.1c2.3-2.5,3.8-5.3,4.4-8.6c0.7-3.4,1.3-6.9,1.9-10.4c0.1-0.8,0.1-1.7,0.1-2.5
				C349.3,132.2,349.3,132.2,350.3,132.3 M343.2,172.5c0.5,0,1.2,0.1,1.9,0.1c0.8,0,1.2-0.3,1.2-1.1c-0.1-1.4-0.2-2.9-0.5-4.3
				c-0.1-0.4-0.5-0.9-0.8-1c-0.6-0.2-1.4-0.3-1.9-0.1c-1.5,0.7-3.1,0.7-4.6,1.2c-2.8,0.9-5.5,1.7-8.1,3c-1.5,0.8-3,1.7-4.4,2.7
				c-1.3,1-2.2,2.3-2.7,3.9c-0.7,2.2,0,4.2,2,5.4c0.8,0.5,1.7,0.9,2.6,1.2c2.1,0.8,4.2,1.4,6.3,2.2c2.1,0.8,4.1,1.8,5.8,3.2
				c1.3,1,1.5,2,0.9,3.5c-0.8,2-2.2,3.3-4.2,4c-3.7,1.3-7.3,2.9-11.3,2.9c-0.7,0-1,0.4-1,1.1c0,2.5,2.1,4.4,4.5,3.8
				c2.9-0.7,5.8-1.4,8.7-2.4c3.2-1.1,6.3-2.5,9.1-4.4c2-1.3,3.8-2.9,5-5c1.6-2.9,1.6-6.4-1.6-9c-2.1-1.7-4.5-2.8-7.1-3.4
				c-2.7-0.7-5.5-1.3-8.2-2c-0.7-0.2-1.5-0.4-2.1-0.7c-1-0.4-1.1-1.3-0.2-2c0.3-0.3,0.7-0.5,1.1-0.7
				C336.6,173.3,339.7,172.5,343.2,172.5"/>
			<path class="st3" d="M353.8,244.4c0.8,1.6,1.6,3.2,2.5,4.7c2.5,4.5,5.1,9,7.6,13.5c0.2,0.4,0.3,0.8,0.4,1.1
				c1,2.6,1.2,5.2,1.5,7.9c1.2,10.1,3.4,20,6,29.8c0.4,1.3,0.7,2.7,1.1,4c0.2,0.9,0.2,0.9-0.6,1.2c-5.1,1.9-10.4,3.3-15.8,3.8
				c-3.1,0.3-6.3,0.4-9.4,0.5c-0.3,0-0.6,0.1-0.7-0.4c-1.1-3.9-2.4-7.8-3.4-11.7c-1-4.2-1.8-8.4-2.7-12.6c-0.4-1.7-0.9-3.3-1.3-4.9
				c-0.3-1.6-0.5-3.2-0.7-4.8c-0.1-1-0.2-2-0.4-3c-0.2-0.8-0.6-1.5-0.8-2.3c-0.2-0.7-0.4-1.3-0.5-2c0-0.2,0.3-0.5,0.6-0.6
				c4.4-1.1,8.5-2.9,12.5-5c0.4-0.2,0.7-0.4,1-0.6c0-0.1,0-0.1-0.1-0.2c-0.4,0.1-0.7,0.1-1.1,0.2c-3.8,1.2-7.6,2.3-11.4,3.5
				c-0.5,0.2-1.1,0.3-1.6,0.4c-0.7,0.1-1.2,0.5-1.4,1.3c-0.8,3.1-1.8,6.2-2.4,9.3c-1.7,8.7-3.2,17.5-4.8,26.2
				c-0.6,3.3-1.4,6.5-2.1,9.8c-0.1,0.4-0.3,0.6-0.7,0.6c-5.5,0.4-10.9,0.7-16.4,0.3c-3-0.2-6-0.7-8.9-1.9c-0.9-0.4-0.8-0.4-0.8-1.3
				c0.2-4.8,0.4-9.6,0.4-14.4c-0.1-8.4-0.3-16.8-0.5-25.2c0-1.8,0-3.7,0-5.6c0.7,0.3,1.4,0.5,2.1,0.8c1.3,0.5,1.9,0.4,2.8-0.7
				c1.3-1.7,2.5-3.4,3.7-5.2c3.8-5.7,7.6-11.5,11.3-17.3c0.3-0.5,0.6-0.6,1.1-0.4c5.4,1.4,10.9,2.3,16.4,2.8c0.2,0,0.4,0,0.6,0.1
				c-0.1,1.4-0.2,2.8-0.3,4.2c-0.3,3.2-0.5,6.5-0.8,9.7c0,0.3,0,0.5,0,0.8c0.1,0.9,0.6,1.4,1.6,1.3c1-0.1,2-0.3,3-0.5
				c2.1-0.4,4.3-0.9,6.4-1.4c1.1-0.2,1.5-0.6,1.6-1.8c0.1-1.5,0.2-3,0.3-4.4c0.1-2.6,0.2-5.3,0.3-7.9c0-0.2,0.2-0.6,0.4-0.6
				C351,245.3,352.4,244.9,353.8,244.4"/>
			<path class="st4" d="M341.1,119.9c0.8-0.4,1.6-0.8,2.3-1.2c4.6-2.9,7.5-7,9-12.2c1.7-6.1,1.8-12.2,0.6-18.4
				c-0.3-1.5-0.4-3-0.7-4.5c0-0.1,0-0.3,0-0.5c0.5-0.1,0.9-0.1,1.3-0.2c0.4-0.1,0.6-0.4,0.6-0.8c-0.1-0.4-0.4-0.6-0.8-0.5
				c-2.7,0.2-5-0.7-7-2.4c-0.7-0.6-1.4-1-2.2-1c-0.6,0-1.3,0.1-1.9,0.4c-1.7,0.9-3.5,1.6-5.5,1.6c-1.3,0-2.5-0.4-3.5-1.1
				c-0.2-0.2-0.5-0.3-0.7-0.5c-2.2-2-4.7-2.1-7.4-1.4c-0.6,0.1-0.8,0.5-0.8,1c0,0.4-0.1,0.7,0,1.1c0.1,1.1-0.4,2-1.3,2.6
				c-1.7,1.3-3.7,2-5.8,1.9c-1.5-0.1-2.2,0.4-2.7,1.9c-0.2,0.4-0.3,0.9-0.4,1.4c-0.4,1.9-1.4,3.2-3.1,4.1c-1.4,0.7-2.9,1.3-4.3,1.8
				c-0.5,0.2-1.1,0.1-1.7,0.2c-0.7,0.1-1.5,0.1-2.1,0.4c-2.4,1.4-4.2,3.3-4.7,6.1c-0.6,3.3,0.6,6,3,8.2c0.7,0.6,1.5,1.1,2.3,1.5
				c1.9,1,3.8,0.9,5.6-0.2c0.1,0.1,0.2,0.2,0.2,0.3c1.4,2.7,3.6,4.8,6.2,6.4c2.1,1.3,4.3,2.3,6.7,3.1c0.8,0.3,0.9,0.6,0.5,1.3
				c-0.7,1.4-1.9,2.2-3.5,2.3c-1.4,0.1-2.7-0.1-4-0.6c-0.8-0.3-1.5-0.8-1.9-1.6c-0.3-0.6-0.6-1.1-0.9-1.7c-0.6-1-1.5-1.5-2.6-1.2
				c-1,0.3-1.9,0.8-2.9,1.1c-1.1,0.4-2.2,0.8-3.4,0.9c-1.8,0.2-3.1-0.6-4-2.3c-0.9-1.7-1-3.5-0.8-5.4c0.1-1.4-0.3-1.8-1.7-1.8
				c-0.7,0-1.5,0.1-2.2,0.1c-0.8,0-1.1-0.2-1.1-1c0-0.6,0.1-1.2,0.2-1.8c0.2-0.9-0.2-1.3-1-1.5c-0.2,0-0.5-0.1-0.7-0.1
				c-1.3-0.2-1.8-0.7-1.9-2c-0.1-1.3,0.3-2.5,1.3-3.4c0.7-0.7,1.5-1.3,2.2-2c0.8-0.7,0.9-1.1,0.1-2c-0.6-0.7-1.3-1.3-1.8-2.1
				c-0.7-0.9-0.8-1.9,0-2.9c0.4-0.5,0.2-1,0-1.5c-1-2.1-1.7-4.3-1.5-6.7c0.1-1.6,0.7-2.9,2.1-3.7c0.8-0.4,1.6-0.7,2.5-0.8
				c2.3-0.3,2.6-0.5,2.5-2.8c0-1.8,0.3-3.4,1.2-4.9c0.8-1.3,2-2,3.6-2.1c1.1,0,1.4-0.3,1.5-1.4c0.1-1.7,0.8-3.2,1.9-4.5
				c2.3-2.5,5.1-4,8.6-3.6c1.3,0.2,2.5,0.8,3.5,1.6c1,0.7,1.6,0.6,1.9-0.7c0.6-2.8,2.7-4,5.9-4.4c0.6-0.1,1.2,0.3,1.7,0.5
				c0.4,0.2,0.8,0.5,1.2,0.8c0.5,0.4,1.1,0.4,1.6,0c2.1-1.6,4.4-1.4,6.7-0.8c2.5,0.7,4.7,1.9,5.9,4.4c0.3,0.6,0.5,1.2,0.6,1.8
				c0.2,0.6,0.5,0.9,1.2,0.8c0.6-0.1,1.1-0.3,1.7-0.4c1-0.2,1.4-0.1,1.7,0.9c0.4,1.3,0.7,2.7,0.9,4.1c0.2,1.4,0.5,1.7,1.9,1.5
				c2.6-0.4,4.8,0.4,6.7,2.1c1.2,1,1.5,2.2,1,3.7c-0.1,0.2-0.2,0.4-0.2,0.7c-0.2,0.8,0.1,1.3,0.9,1.5c0.6,0.1,1.3,0.2,1.9,0.3
				c2.7,0.7,3.4,2.8,2.7,5.1c-0.4,1.5-1.4,2.7-2.7,3.6c-0.6,0.4-0.6,1.1,0.1,1.4c3.5,1.5,2.3,6.5-0.1,7.9c-0.4,0.2-0.9,0.4-1.3,0.5
				c-1,0.2-1.3,0.8-0.6,1.6c1.1,1.4,2,3,2.2,4.8c0.4,3-1.7,6.4-5.3,6.3c-1.1,0-1.4,0.3-1.4,1.4c0,0.6,0.1,1.2,0,1.7
				c-0.2,1.6-1.5,2.6-3,2.5c-0.6,0-0.9,0.3-0.9,1c-0.2,1.5-1.5,2.9-3,3.2c-0.7,0.1-1.4,0-1.9-0.6c-0.4-0.5-0.7-0.4-1.2-0.1
				c-1,0.6-1.9,1.2-2.9,1.7c-0.2,0.1-0.6,0.1-0.8,0.1C341.1,120.1,341.1,120,341.1,119.9"/>
			<path class="st5" d="M300.8,173.7c1-1.4,2.1-3.1,3.3-4.7c1-1.3,2.3-2.1,3.9-2.7c0.2-0.1,0.3-0.1,0.5-0.2c0.4-0.2,0.7-0.5,0.5-1
				c-0.2-0.4-0.6-0.5-1-0.3c-0.8,0.4-1.6,0.8-2.4,1.2c-0.2,0.1-0.4,0.2-0.6,0.4c0-0.4,0.1-0.7,0.1-1c-0.1,0-0.1-0.1-0.2-0.1
				c-0.2,0.2-0.4,0.3-0.5,0.5c-1.1,1.8-2.3,3.5-3.4,5.3c-2.5,3.9-5.5,7.4-8.4,11c-2.9,3.6-5.7,7.3-8.5,10.9
				c-0.4,0.6-0.8,1.2-1.2,1.9c-0.1-0.1-0.3-0.1-0.4-0.2c-0.9-0.5-1.8-1.1-2.8-1.6c-0.2-0.1-0.5,0-0.8,0c0.1,0.3,0.1,0.6,0.2,0.8
				c0.3,0.3,0.7,0.6,1.1,0.9c4.3,2.6,6.9,6.5,8.2,11.4c0.8,3,1.8,6,2.7,8.9c2.1,6.5,5.4,12.3,9.7,17.5c1.4,1.7,2.5,3.5,3.7,5.3
				c0.8,1.3,1.6,2.6,2.3,3.9c0.4,0.7,0.5,1.4,0.1,2.2c-0.2,0.5-0.5,1-0.7,1.4c-1,1.6-2.1,3.2-3.2,4.9c-0.6-0.7-1.2-1.4-1.7-2.2
				c-1.1-1.8-2.1-3.8-3.3-5.6c-1.4-2-3-3.8-4.4-5.7c-4.7-6.2-9.5-12.4-14.2-18.7c-3.5-4.6-6.8-9.4-10.2-14.1
				c-1.2-1.7-2.3-3.6-3.4-5.4c-1.1-1.9-1-3.7,0.1-5.5c0.3-0.4,0.6-0.9,0.9-1.3c1.1-1.6,2-3.3,2.9-5c1.4-2.7,2.9-5.4,4.5-7.9
				c4-6.2,7.8-12.5,11.3-19c2.3-4.2,4.5-8.4,6.4-12.7c1.1-2.4,2-4.9,3.1-7.4c0.5-1.2,1.2-2.4,1.8-3.5c1.3-2.3,3.3-3.6,5.9-3.9
				c2.1-0.2,4.1-0.1,6.2,0.7c0.5,0.2,0.7,0.4,0.7,0.9c0,7,0.1,13.9,0.1,20.9c0,3.9-0.2,7.9-0.8,11.7c-0.5,3.1-1.6,5.9-3.6,8.3
				c-0.8,0.9-1.6,1.6-2.9,1.8c-1,0.2-1.1,0.1-1.2-0.9C301.2,175.3,301,174.6,300.8,173.7"/>
			<path class="st5" d="M356.5,405.6c0.3-1.7-0.3-3.3-0.7-4.9c-2-7.9-3.6-15.8-4.8-23.8c-1-6.7-1.9-13.5-2.8-20.3
				c-0.5-4.2-0.5-8.3,0.2-12.5c0.5-3.6,0.9-7.3,1.4-11c0.2-1.7,0.6-3.5,1-5.2c0.6-2.5,0.7-4.9,0.4-7.5c7-1,14.1-1.7,20.8-4.5
				c-0.1,1-0.2,1.9-0.4,2.7c-0.5,3.5-1.1,7-1.5,10.6c-0.8,6.1-1.6,12.1-2.3,18.2c-1.7,13.2-3,26.4-3.1,39.8c0,1.8,0.1,3.7,0.2,5.5
				c0,0.4-0.1,0.6-0.5,0.8c-2.7,0.9-5.5,4.5-4.3,8.1c0,0.1,0,0.2,0.1,0.2c0.7,0.9,0.2,1.5-0.5,2.1c-0.5,0.4-1,1-1.6,1.3
				c-0.4,0.3-0.9,0.4-1.4,0.5C356.6,405.8,356.5,405.7,356.5,405.6"/>
			<path class="st5" d="M364,245.1c-0.7-1.6-1.4-3.2-2.1-4.9c-0.1-0.2-0.1-0.5-0.1-0.8c0.1-1.7,0.1-3.3-0.4-4.9
				c-0.1-0.4-0.5-0.8-0.4-1.2c0.1-0.4,0.6-0.6,0.9-0.9c3.5-3.1,5.9-7,7-11.6c0.5-2.2,1.2-4.4,1.5-6.6c0.2-1.6,0.2-3.3,0.1-4.9
				c-0.4-4.8,0.4-9.3,2.3-13.7c0.5-1.2,1-2.5,1.5-3.9c0.1,0.2,0.2,0.4,0.4,0.7c0.2,0.4,0.6,0.7,1.1,0.5c0.5-0.2,0.7-0.7,0.5-1.1
				c-0.2-0.6-0.5-1.2-1-1.6c-1.3-1.2-2.7-2.4-4.1-3.6c-6.8-5.5-11.9-12.2-15.1-20.4c-0.2-0.5-0.3-1.1-0.3-1.6c0-2.6,0.1-5.1,0.1-7.7
				c-0.1-4.9-0.2-9.7-0.4-14.6c-0.1-2.6-0.2-5.1-0.4-7.6c-0.1-1-0.3-1.9-0.5-2.9c1-0.2,2.1,0.3,2.6,1.2c4.9,8.3,9,17,13.3,25.6
				c3.5,6.8,7.3,13.4,11.3,19.9c1.1,1.8,2,3.6,3,5.4c0.5,1,0.7,2,1.1,3c0.4,1,0.7,2,1.1,3c0.8,1.6,0.8,3.2,0.5,4.9
				c-0.7,3.7-2,7.2-3.2,10.8c-2.4,6.9-5.8,13.4-9.3,19.8c-2.8,5.1-5.5,10.2-8.3,15.2C365.8,242.1,364.9,243.6,364,245.1"/>
			<path class="st5" d="M306.7,94.6c1.4-0.6,2.9-1.2,4.3-1.7c0.2-0.1,0.4,0,0.6,0.1c0.6,0.3,1.3,0.2,1.9-0.1
				c0.4-0.2,0.7-0.4,1.1-0.7c3.1-1.9,6.5-2.7,10.1-2.3c0.4,0,0.7-0.1,0.8-0.5c0-0.2,0.1-0.3,0.2-0.5c0.3-0.9,0.1-1.6-0.9-1.9
				c-1.1-0.3-2.2-0.5-3.3-0.6c-1.9-0.1-3.7,0.2-5.5,0.9c-0.1,0-0.2,0.1-0.4,0.1c0.1-0.4,0.2-0.7,0.2-1c0.3-1,0.5-1.1,1.5-1.1
				c2.6,0,4.9-0.9,6.9-2.5c1.1-0.9,1.6-2,1.4-3.5c0-0.4,0-0.7-0.1-1.2c1.8-0.2,3.5-0.4,5.1,0.7c0.4,0.3,0.9,0.6,1.3,1
				c1.7,1.4,3.6,2,5.8,1.8c0.1,0,0.2,0,0.3,0c0,0,0,0,0.1,0.1c-0.2,0.1-0.4,0.2-0.6,0.3c-1.7,0.7-3.3,1.7-4.7,3
				c-0.7,0.6-0.9,1.1-0.5,1.7c0.4,0.6,1.6,1,2.2,0.7c0.5-0.2,1-0.5,1.5-0.8c2.4-1.4,5-2.4,7.9-2.6c0.5,0,0.9,0,1.4,0
				c0.5,0,0.9,0,1-0.6c0.1-0.5-0.2-0.8-0.7-1c-0.1-0.1-0.3-0.1-0.4-0.2c-1.4-0.8-2.8-1.3-4.4-1.2c0.9-0.5,1.7-1.1,2.7-1.4
				c0.5-0.2,1.3,0,1.7,0.4c1.7,1.5,3.7,2.6,5.8,3c0.2,2,0.4,3.9,0.7,5.8c0.8,5,0.8,10-0.2,15c-1,4.7-2.9,8.9-6.7,12
				c-2.3,2-5,3-8.1,3.4c-7.7,0.8-14.6-1.3-21-5.4c-3.2-2-5.1-4.9-6-8.6C308.7,101.6,307.7,98.1,306.7,94.6 M338.6,95.1
				C338.6,95.1,338.6,95.1,338.6,95.1c0.5,0,1,0,1.5-0.1c1.9-0.2,3.6-0.9,4.9-2.4c1.5-1.7,1.6-2.4,0.3-4.2c-1.4-2-3.7-2.7-5.9-1.7
				c-2.6,1.1-3.8,3.2-4,6c-0.1,1.3,0.8,2.3,2.1,2.4C337.9,95.1,338.3,95.1,338.6,95.1 M318.7,100.2c2-0.1,4.3-0.8,5.9-1.8
				c0.6-0.4,1.1-0.9,1.5-1.4c0.6-0.7,0.6-1.5,0.2-2.3c-1.8-3.5-6.6-4.2-9.3-1.5c-1.3,1.3-2,2.9-2,4.7c0,1.2,0.1,1.4,1.2,1.7
				C317,99.9,317.9,100,318.7,100.2 M330.1,111.4c0.4-0.1,1.1-0.4,1.8-0.6c2-0.6,3.9-1.2,5.9-1.6c1.1-0.2,2.3-0.2,3.4-0.3
				c1-0.1,1.7-0.8,1.9-1.7c0.1-0.4-0.1-0.7-0.5-0.7c-0.2,0-0.5,0.2-0.6,0.4c-0.4,1.1-0.3,1.1-1.4,1.1c-3.3,0.1-6.4,0.8-9.5,2
				c-0.8,0.3-1.6,0.3-2.4,0c-0.3-0.1-0.7-0.3-1-0.3c-0.2,0-0.6,0.1-0.7,0.3c-0.1,0.2,0,0.6,0.1,0.8c0.1,0.2,0.4,0.3,0.6,0.4
				C328.4,111.2,329.1,111.3,330.1,111.4 M334.5,96.6c0.1,0.2,0.3,0.4,0.4,0.6c0.8,0.8,1.7,1.1,2.8,1.3c1,0.1,1.5,0.6,1.7,1.4
				c0.3,1.3-0.6,2.7-1.9,3.1c-0.2,0.1-0.4,0.3-0.4,0.4c0,0.2,0.3,0.5,0.4,0.5c0.5,0,1.1,0,1.5-0.3c1.2-0.8,1.7-2.1,1.7-3.5
				c-0.1-1.1-0.6-2.2-1.7-2.5c-1.4-0.5-2.8-0.7-4.3-1C334.7,96.4,334.7,96.5,334.5,96.6 M332,105.4c0.5-0.2,1.1-0.3,1.6-0.5
				c0.6-0.2,1.2-0.4,1.9-0.7c0.2-0.1,0.4-0.3,0.4-0.4c0-0.2-0.2-0.4-0.4-0.4c-0.4-0.1-0.8-0.1-1.2,0c-0.6,0.1-1.1,0.4-1.7,0.6
				c-0.5,0.2-1,0.2-1.4-0.3c-0.1-0.2-0.5-0.1-0.7-0.2c-0.1,0.3-0.2,0.6-0.2,0.8C330.6,104.9,331.2,105.3,332,105.4"/>
			<path class="st5" d="M319.3,394.7c-2.5-3.1-5.7-3.8-9.2-3.4c-0.5-2.6-0.9-5.3-1.4-7.9c-1.2-5.7-2.6-11.4-3.8-17.1
				c-3-13.6-4.1-27.3-3.4-41.2c0-0.3,0.1-0.7,0.1-1.1c1.2,0.1,2.4,0.2,3.6,0.2c4.6,0,9.1-0.1,13.7-0.2c0.6,0,1.5-0.2,1.9,0.1
				c0.3,0.3,0.2,1.2,0.2,1.8c0.1,10.4,0.2,20.8,0.1,31.2c-0.1,6-0.6,12.1-0.9,18.1c-0.3,5.6-1.1,11.2-0.9,16.9
				C319.2,393,319.3,393.8,319.3,394.7"/>
			<path class="st5" d="M324.6,119.7c4.9,1.5,9.8,1.7,14.9,0.7c0.1,0.8,0.2,1.6,0.3,2.3c0.4,2.4,1.2,4.6,2.6,6.6
				c0.2,0.2,0.3,0.5,0.3,0.8c-0.1,4.6-0.2,9.1-0.4,13.7c-0.1,1.7-0.6,3.3-1.3,4.8c-1.9,3.9-6.1,4-8.7,2.5c-1.2-0.7-2.2-1.6-3-2.7
				c-3.4-4.9-5.9-10.1-7.3-15.9c-0.1-0.2-0.1-0.6,0.1-0.8c1.7-1.9,2.1-4.3,2.3-6.7C324.4,123.2,324.5,121.5,324.6,119.7"/>
			<path class="st6" d="M383.2,407.5c0,0.1,0,0.2,0,0.2c-2.2,2.8-3.2,6-3.8,9.4c-0.1,0.6-0.3,0.7-0.9,0.7
				c-5.2-0.2-10.5-0.3-15.7-0.5c-1.9-0.1-3.7-0.2-5.6-0.2c-1,0-1.5-0.5-1.9-1.3c-0.7-1.7-1-3.5-0.6-5.3c0.2-1.1,0.5-2.3,0.8-3.4
				c1.6,0.8,2.9,0.2,4.1-0.8c0.7-0.6,1.3-1.2,1.9-1.8c3.7,3,7.8,5.4,12.1,7.4c1.7,0.8,2.5,0.7,3.8-0.8c0.9-1,1.6-2.1,2.3-3.2
				c0.7-1.1,0.7-1.1,1.8-0.8C382.1,407.2,382.6,407.4,383.2,407.5"/>
			<path class="st7" d="M311.8,421.6c-3.1-0.3-6.2-0.5-9.3-0.9c-0.9-0.1-1.9-0.6-2.8-1c-0.3-0.1-0.5-0.4-0.8-0.7
				c-0.4-0.4-0.3-0.7,0.2-1c0.1-0.1,0.3-0.2,0.4-0.3c0.6-1.3,1.6-2.2,2.8-3c4.1-2.6,8.5-3.7,13.4-3.2c1.9,0.2,3.7,0.8,5.3,1.7
				c0.9,0.6,1.6,1.3,2.1,2.3c0.5,1.2,1.1,2.3,1,3.6c0,0.5-0.2,0.7-0.6,0.9c-2.7,0.8-5.5,1.1-8.3,1.2c-1.1,0-2.3,0-3.4,0L311.8,421.6
				z"/>
			<path class="st8" d="M306.9,236.8c2.6,3.8,6.7,4.8,10.8,6.2c-0.4,0.5-0.7,1-1,1.5c-4.1,6.2-8.1,12.4-12.2,18.5
				c-0.6,0.8-1.2,1.6-1.8,2.4c-0.3,0.4-0.6,0.4-1,0.3c-0.7-0.3-1.4-0.6-2.2-0.8c-0.3-0.1-0.5-0.3-0.5-0.7c0-0.9,0-1.8,0.1-2.6
				c0-0.3,0.1-0.7,0.3-1c1.3-2.5,2.6-5,3.9-7.5c1-1.8,2.3-3.6,3.4-5.4c0.6-1,1.3-2.1,1.8-3.1c0.6-1.2,0.5-2.3-0.2-3.4
				c-0.3-0.5-0.5-1.2-0.8-1.7c-0.1-0.2-0.1-0.3-0.2-0.4C306.7,238.4,306.5,237.7,306.9,236.8"/>
			<path class="st8" d="M296.8,321.7c0.7-2.6,1.5-5.1,2.2-7.7c0,0,0.1,0,0.2,0.1c3,1.4,6.1,1.9,9.3,2.2c5.4,0.5,10.8,0.2,16.2-0.1
				c0.2,0,0.4,0,0.7,0c-0.3,1.5-0.6,2.9-0.9,4.3c-0.1,0.5-0.2,1.1-0.3,1.6c0,0.2-0.3,0.4-0.4,0.4c-5.7,0.1-11.4,0.3-17.2,0.2
				c-3.2-0.1-6.4-0.6-9.5-0.9C297,321.7,296.8,321.7,296.8,321.7"/>
			<path class="st7" d="M344.3,131.4c1.3,0.4,2.5,0.8,3.8,1.2c0,0.1,0,0.3,0,0.5c-0.4,5-1.3,9.8-2.6,14.6c-0.9,3-2.6,5.3-5.1,7.1
				c-2.8,2-5.8,2.2-9,1.3c-1.6-0.5-2.7-1.7-3.7-2.9c-3.8-5-6.8-10.5-9.1-16.3c-0.3-0.8-0.6-1.7-0.9-2.4c1.1-0.5,2.1-1,3.2-1.5
				c0.1,0.4,0.1,0.8,0.2,1.1c1.6,5.8,3.9,11.2,7.6,15.9c1.6,2,3.7,3.3,6.3,3.5c3,0.2,5.4-0.9,7.1-3.6c1.4-2.2,1.9-4.7,2-7.3
				c0.2-3.5,0.2-7.1,0.3-10.6C344.3,131.8,344.3,131.6,344.3,131.4"/>
			<path class="st8" d="M348,319c-0.3-2.2-0.7-4.3-1-6.5c9.2,0.4,18-1.1,26.6-4.4c0.3,0.9,0.6,1.8,0.3,2.8c-0.2,0.7-0.2,1.4-0.2,2.2
				c0,0.4-0.1,0.6-0.5,0.7c-5.5,2.3-11.3,3.6-17.2,4.3c-2.5,0.3-5,0.6-7.5,0.9C348.4,319,348.2,318.9,348,319"/>
			<path class="st7" d="M311.5,134c0.4,0.1,0.8,0.1,1.2,0.3c0.2,0.1,0.3,0.4,0.4,0.6c0.8,4,1.2,8.1,1.3,12.2c0,5.1,0,10.2-0.1,15.3
				c-0.1,4.6-1.2,8.9-3.5,12.9c-1.4,2.3-3.1,4.4-5.5,5.7c-0.9,0.5-1.8,0.8-2.8,1.2c-0.2-1.4-0.4-2.6-0.6-3.9c3.3,0.1,5-2,6.5-4.5
				c0.3-0.5,0.6-1.1,0.8-1.6c1.3-2.8,1.8-5.7,2-8.7c0.7-8.9,0.6-17.9,0.4-26.8C311.4,135.8,311.5,134.9,311.5,134"/>
			<path class="st8" d="M348,246.3c-0.1,2.3-0.2,4.6-0.3,7c-0.1,1.6-0.2,3.3-0.3,4.9c0,0.7-0.3,0.9-1,1.1c-2.7,0.5-5.3,1.1-8,1.7
				c-0.3,0.1-0.6,0.1-1,0.1c0.3-4.9,0.6-9.7,0.8-14.4C341.6,246.5,344.7,246.4,348,246.3"/>
			<path class="st7" d="M317.5,408.3c-2.9-0.7-5.7-0.9-8.5,0.1c0.1-0.5,0.1-1,0.2-1.4c0.4-4,0.4-8,0.2-12c-0.1-1.1,0.7-2.1,1.7-2.1
				c3.8-0.1,5.8,0.9,7.8,4c0.1,0.2,0.1,0.5,0.1,0.8c-0.4,2.9-0.8,5.9-1.3,8.8C317.6,407.1,317.6,407.7,317.5,408.3"/>
			<path class="st7" d="M379,406.4c-1.1,1.3-2,2.5-3,3.7c-0.4,0.4-0.8,0.5-1.4,0.2c-2.8-1.2-5.4-2.7-8-4.4c-0.7-0.4-1.3-0.9-2-1.2
				c-2.2-1-3.7-4.2-3-6.2c0.5-1.4,1.4-2.5,2.8-3.2c1.4-0.8,2.9-0.1,3.2,1.5c0.2,0.7,0.2,1.4,0.3,2.2c0.3,2.4,1.6,3.9,3.7,5
				c2.2,1.1,4.5,1.7,6.8,2.3C378.5,406.2,378.6,406.3,379,406.4"/>
			<path class="st7" d="M380.8,417.7c0.3-1.2,0.5-2.2,0.7-3.3c0.6-2.2,1.5-4.3,2.8-6.2c0.2-0.3,0.5-0.5,0.9-0.4
				c1.8,0.4,3.6,0.6,5.4,1.1c1.1,0.3,2.2,0.8,3.2,1.2c1,0.5,1.2,1,0.9,2c-0.5,2-1.8,3.3-3.7,3.9c-2.3,0.8-4.6,1-7,1.3
				C383,417.6,382,417.6,380.8,417.7"/>
			<path class="st5" d="M306.8,101.4c-0.9,0.2-1.6,0.6-2,1.4c-0.2,0.4-0.3,0.8-0.4,1.1c-0.1,0.5,0,1,0.5,1.1
				c0.5,0.1,0.6-0.5,0.7-0.9c0.2-0.8,0.5-1.4,1.4-1.7c0.3,1,0.6,2,0.8,3c0.2,0.6,0.3,1.2,0.5,1.8c0.2,0.4,0,0.6-0.4,0.8
				c-1.1,0.5-2.2,0.7-3.2,0.2c-3-1.2-5-3.4-5.2-6.6c-0.2-2.7,1-4.8,3.3-6.3c1.2-0.7,2-0.5,2.6,0.8c0.2,0.5,0.4,1,0.5,1.5
				C306.4,98.9,306.6,100.1,306.8,101.4"/>
			<path class="st6" d="M302,413.1c2.8-5.2,4.9-10.8,6.2-16.6c0,0.2,0,0.3,0,0.5c-0.2,3.4-0.4,6.8-0.6,10.2c0,0.6-0.2,1.2-0.4,1.8
				c-0.2,1,0.4,1.6,1.4,1.2c3-1.3,5.9-1.1,8.9-0.3c0.8,0.2,1.3-0.2,1.4-1c0.2-1.3,0.2-2.5,0.4-3.8c0.2-1.9,0.5-3.8,0.8-5.7
				c1.2,4.6,2.4,9.2,3.6,13.8c-1-0.6-1.9-1.3-2.9-1.8c-4.5-2-9.1-1.9-13.6-0.5C305.3,411.5,303.7,412.4,302,413.1"/>
			<path class="st8" d="M363.1,258.2c-2.7-4.7-5.3-9.5-8-14.3c2-0.9,4.2-1,5.7-3c0.5,2.1,1.4,3.7,1.5,5.6c0.1,3.5,0.6,7.1,0.9,10.6
				c0,0.3,0.1,0.6,0.1,0.9C363.2,258.1,363.2,258.1,363.1,258.2"/>
			<path class="st7" d="M353.9,147.2c-0.9-5-1.8-10-2.8-15.1c0.8-0.1,1.4-0.2,2.1-0.2c0.9,5.1,0.4,10.2,0.9,15.3
				C354,147.2,354,147.2,353.9,147.2"/>
			<path class="st3" d="M299.6,248.9c0.9,1,1.6,1.9,2.3,2.8c0.1,0.2,0.3,0.6,0.2,0.7c-0.9,1.7-1.8,3.3-2.7,5c-0.1,0-0.1,0-0.2,0
				C299.3,254.6,299.5,251.8,299.6,248.9"/>
			<path class="st4" d="M313.8,90.9c1-1.9,2.7-2.4,4.5-2.9c1.9-0.5,3.9-0.5,5.8,0c0.5,0.1,0.5,0.1,0.6,0.6
				C320.8,88.1,317.3,88.9,313.8,90.9"/>
			<path class="st4" d="M341.9,82.5c-1,0.3-2,0.5-2.9,0.9c-1.5,0.7-3,1.6-4.5,2.4c-0.2,0.1-0.4,0.2-0.7,0.2
				C336.1,84,338.7,82.4,341.9,82.5"/>
			<path class="st1" d="M343.2,172.5c-3.5,0-6.6,0.8-9.6,2.2c-0.4,0.2-0.8,0.4-1.1,0.7c-0.8,0.6-0.7,1.6,0.2,2
				c0.7,0.3,1.4,0.5,2.1,0.7c2.7,0.7,5.5,1.3,8.2,2c2.6,0.7,5,1.7,7.1,3.4c3.2,2.6,3.2,6.1,1.6,9c-1.2,2.1-3,3.7-5,5
				c-2.8,1.9-5.9,3.4-9.1,4.4c-2.8,0.9-5.8,1.7-8.7,2.4c-2.4,0.6-4.5-1.3-4.5-3.8c0-0.7,0.3-1.1,1-1.1c4,0,7.6-1.7,11.3-2.9
				c1.9-0.7,3.4-2,4.2-4c0.6-1.5,0.4-2.5-0.9-3.5c-1.7-1.4-3.7-2.4-5.8-3.2c-2.1-0.8-4.2-1.4-6.3-2.2c-0.9-0.3-1.8-0.7-2.6-1.2
				c-2-1.2-2.7-3.1-2-5.4c0.5-1.6,1.4-2.9,2.7-3.9c1.4-1,2.9-1.9,4.4-2.7c2.6-1.3,5.4-2.1,8.1-3c1.5-0.5,3.1-0.5,4.6-1.2
				c0.5-0.3,1.3-0.1,1.9,0.1c0.3,0.1,0.7,0.6,0.8,1c0.2,1.4,0.4,2.8,0.5,4.3c0,0.8-0.4,1.1-1.2,1.1
				C344.4,172.6,343.7,172.5,343.2,172.5 M326,200.8c0.3,1.7,1.1,2.3,2.7,2c3.2-0.6,6.3-1.5,9.4-2.7c3.2-1.3,6.4-2.7,9.1-4.9
				c1.7-1.4,3.2-2.9,3.8-5.1c0.5-1.8,0.1-3.5-1.2-4.9c-1.2-1.2-2.5-2.1-4.1-2.6c-2.4-0.8-4.9-1.4-7.4-2.1c-2-0.6-4.1-1.1-6.1-1.7
				c-1-0.3-1.6-1.1-1.7-2.2c-0.1-1.1,0.3-1.9,1.2-2.5c0.6-0.4,1.1-0.7,1.7-1c3.4-1.5,6.9-2.3,10.6-2.1c0.3,0,0.5,0,0.8,0
				c-0.1-0.9-0.2-1.8-0.3-2.7c-0.1-0.9-0.3-1.1-1.2-0.7c-0.2,0.1-0.4,0.1-0.6,0.1c-3.1,0.4-6.1,1.2-9,2.5c-2.4,1-4.8,2.1-6.9,3.7
				c-1.1,0.9-1.9,1.9-2.3,3.2c-0.6,1.8-0.1,3.2,1.6,4.1c0.8,0.4,1.7,0.8,2.6,1.1c2.6,1,5.2,1.8,7.7,2.9c1.7,0.7,3.2,1.8,4.7,2.9
				c1.3,1,1.6,2.4,1.2,4c-0.7,2.7-2.5,4.5-5,5.5C333.8,199,330.1,200.4,326,200.8"/>
			<path class="st1" d="M338.6,95.1c-0.4,0-0.7,0-1.1,0c-1.3-0.1-2.2-1-2.1-2.4c0.2-2.7,1.4-4.8,4-6c2.2-1,4.5-0.3,5.9,1.7
				c1.3,1.8,1.3,2.5-0.3,4.2c-1.3,1.4-3,2.1-4.9,2.4C339.6,95.1,339.1,95.1,338.6,95.1C338.6,95.1,338.6,95.1,338.6,95.1 M340,89.8
				C340,89.8,340,89.8,340,89.8c0.1,0.7,0.2,1.3,0.5,1.9c0.2,0.6,0.8,1,1.4,0.9c1.2-0.1,2.2-0.7,2.8-1.7c0.1-0.2,0.2-0.4,0.1-0.6
				c-0.4-1.3-1.8-2.5-3.2-2.5c-1.2-0.1-1.3,0-1.5,1.2C340.1,89.2,340.1,89.5,340,89.8 M340.1,93.8c-1.4-1.6-1.6-3.3-1-5.4
				c-0.4,0.3-0.6,0.5-0.8,0.7c-1,1-1.5,2.3-1.7,3.6c-0.1,0.6,0.1,1,0.7,1.1C338.2,93.8,339.2,93.8,340.1,93.8"/>
			<path class="st1" d="M318.7,100.2c-0.8-0.2-1.7-0.3-2.5-0.5c-1.1-0.3-1.2-0.5-1.2-1.7c0-1.9,0.7-3.4,2-4.7c2.7-2.8,7.5-2,9.3,1.5
				c0.4,0.8,0.4,1.6-0.2,2.3c-0.4,0.5-0.9,1-1.5,1.4C323,99.4,320.7,100,318.7,100.2 M319.5,93.2c-0.1,0-0.1,0-0.2,0
				c-1.7,0.7-3.2,2.5-3.1,4.9c0,0.1,0.2,0.3,0.3,0.4c1.6,0.6,3.3,0.4,4.9-0.1C319.2,95.9,319.1,95.7,319.5,93.2 M320.5,94.2
				c0,1.1,0.6,2.1,1.6,2.7c1.2,0.7,2.3,0.5,3-0.8c0.1-0.2,0.1-0.6,0-0.9c-0.6-1.3-1.7-2-3-2.3c-1.2-0.3-1.5-0.1-1.5,1.1
				C320.5,94.2,320.5,94.2,320.5,94.2"/>
			<path class="st1" d="M330.1,111.4c-1-0.1-1.8-0.2-2.5-0.3c-0.2,0-0.5-0.2-0.6-0.4c-0.1-0.2-0.2-0.6-0.1-0.8
				c0.1-0.2,0.5-0.3,0.7-0.3c0.4,0,0.7,0.2,1,0.3c0.8,0.3,1.6,0.4,2.4,0c3.1-1.2,6.2-1.9,9.5-2c1.1,0,1.1-0.1,1.4-1.1
				c0.1-0.2,0.4-0.4,0.6-0.4c0.4,0,0.6,0.3,0.5,0.7c-0.2,0.9-0.9,1.6-1.9,1.7c-1.1,0.1-2.3,0.1-3.4,0.3c-2,0.4-3.9,1-5.9,1.6
				C331.2,111.1,330.6,111.3,330.1,111.4"/>
			<path class="st1" d="M334.5,96.6c0.1-0.1,0.2-0.1,0.2-0.1c1.4,0.3,2.9,0.6,4.3,1c1.1,0.4,1.6,1.4,1.7,2.5
				c0.1,1.4-0.5,2.7-1.7,3.5c-0.4,0.3-1,0.2-1.5,0.3c-0.1,0-0.4-0.3-0.4-0.5c0-0.1,0.2-0.3,0.4-0.4c1.3-0.4,2.1-1.8,1.9-3.1
				c-0.2-0.9-0.7-1.3-1.7-1.4c-1-0.1-2-0.5-2.8-1.3C334.8,97,334.7,96.8,334.5,96.6"/>
			<path class="st1" d="M332,105.4c-0.8-0.1-1.4-0.5-1.6-1.2c-0.1-0.2,0.1-0.5,0.2-0.8c0.2,0.1,0.6,0.1,0.7,0.2
				c0.4,0.5,0.9,0.5,1.4,0.3c0.6-0.2,1.1-0.4,1.7-0.6c0.4-0.1,0.8-0.1,1.2,0c0.1,0,0.3,0.3,0.4,0.4c0,0.1-0.2,0.3-0.4,0.4
				c-0.6,0.3-1.2,0.5-1.9,0.7C333.1,105.1,332.5,105.2,332,105.4"/>
			<path class="st6" d="M326,200.8c4-0.4,7.8-1.7,11.5-3.1c2.5-1,4.3-2.8,5-5.5c0.4-1.6,0.1-3-1.2-4c-1.5-1.1-3.1-2.2-4.7-2.9
				c-2.5-1.1-5.1-1.9-7.7-2.9c-0.9-0.3-1.8-0.6-2.6-1.1c-1.7-0.9-2.2-2.3-1.6-4.1c0.4-1.3,1.3-2.4,2.3-3.2c2.1-1.7,4.5-2.7,6.9-3.7
				c2.9-1.2,5.9-2.1,9-2.5c0.2,0,0.4-0.1,0.6-0.1c0.9-0.4,1.1-0.3,1.2,0.7c0.1,0.9,0.2,1.7,0.3,2.7c-0.3,0-0.6,0-0.8,0
				c-3.7-0.2-7.2,0.6-10.6,2.1c-0.6,0.3-1.2,0.6-1.7,1c-0.9,0.6-1.3,1.4-1.2,2.5c0.1,1.1,0.7,1.9,1.7,2.2c2,0.6,4.1,1.1,6.1,1.7
				c2.5,0.7,5,1.3,7.4,2.1c1.6,0.5,2.9,1.4,4.1,2.6c1.4,1.4,1.7,3,1.2,4.9c-0.6,2.2-2.1,3.7-3.8,5.1c-2.7,2.2-5.9,3.6-9.1,4.9
				c-3,1.2-6.2,2.1-9.4,2.7C327.2,203.1,326.3,202.4,326,200.8"/>
			<path class="st4" d="M340,89.8c0-0.3,0.1-0.6,0.1-0.9c0.2-1.2,0.3-1.3,1.5-1.2c1.4,0.1,2.8,1.2,3.2,2.5c0.1,0.2,0,0.4-0.1,0.6
				c-0.6,1.1-1.6,1.6-2.8,1.7c-0.7,0.1-1.2-0.3-1.4-0.9C340.2,91.1,340.1,90.4,340,89.8C340,89.8,340,89.8,340,89.8"/>
			<path class="st7" d="M340.1,93.8c-0.9,0-1.9,0-2.8,0c-0.6,0-0.9-0.5-0.7-1.1c0.3-1.3,0.7-2.6,1.7-3.6c0.2-0.2,0.4-0.4,0.8-0.7
				C338.5,90.4,338.7,92.2,340.1,93.8"/>
			<path class="st7" d="M319.5,93.2c-0.4,2.5-0.3,2.8,1.9,5.2c-1.7,0.5-3.3,0.7-4.9,0.1c-0.1,0-0.3-0.2-0.3-0.4
				c-0.1-2.3,1.4-4.2,3.1-4.9C319.3,93.1,319.4,93.1,319.5,93.2"/>
			<path class="st4" d="M320.5,94.2c0,0,0-0.1,0-0.1c0.1-1.3,0.3-1.5,1.5-1.1c1.4,0.3,2.4,1.1,3,2.3c0.1,0.2,0.1,0.6,0,0.9
				c-0.7,1.3-1.8,1.5-3,0.8C321.1,96.3,320.5,95.3,320.5,94.2"/>
		</g>
	</g>
</g>
</svg>
