<?xml version="1.0" encoding="utf-8"?>
<!-- Generator: Adobe Illustrator 22.1.0, SVG Export Plug-In . SVG Version: 6.00 Build 0)  -->
<svg version="1.1" id="A1" xmlns="http://www.w3.org/2000/svg" xmlns:xlink="http://www.w3.org/1999/xlink" x="0px" y="0px"
	 viewBox="0 0 690 500" style="enable-background:new 0 0 690 500;" xml:space="preserve">
<style type="text/css">
	.st0{clip-path:url(#SVGID_2_);}
	.st1{clip-path:url(#SVGID_4_);}
	.st2{clip-path:url(#SVGID_4_);fill:#002951;}
	.st3{clip-path:url(#SVGID_4_);fill:#F3E501;}
	.st4{clip-path:url(#SVGID_4_);fill:#A86530;}
	.st5{clip-path:url(#SVGID_4_);fill:#390000;}
	.st6{clip-path:url(#SVGID_4_);fill:#05B149;}
	.st7{clip-path:url(#SVGID_4_);fill:#006F0F;}
	.st8{clip-path:url(#SVGID_4_);fill:#002100;}
	.st9{clip-path:url(#SVGID_4_);fill:#FFFFFF;}
	.st10{clip-path:url(#SVGID_6_);}
	.st11{clip-path:url(#SVGID_8_);}
	.st12{clip-path:url(#SVGID_8_);fill:#458EFF;}
	.st13{clip-path:url(#SVGID_8_);fill:#00025D;}
	.st14{clip-path:url(#SVGID_8_);fill:#211915;}
	.st15{clip-path:url(#SVGID_8_);fill:#C9875F;}
	.st16{clip-path:url(#SVGID_8_);fill:#FFFFFF;}
	.st17{clip-path:url(#SVGID_8_);fill:#E41C00;}
	.st18{clip-path:url(#SVGID_8_);fill:#0F7115;}
</style>
<g>
	<g>
		<defs>
			<rect id="SVGID_1_" x="55.8" y="51.3" width="293.5" height="408.4"/>
		</defs>
		<clipPath id="SVGID_2_">
			<use xlink:href="#SVGID_1_"  style="overflow:visible;"/>
		</clipPath>
		<g class="st0">
			<defs>
				<rect id="SVGID_3_" x="55.8" y="51.3" width="293.5" height="408.4"/>
			</defs>
			<clipPath id="SVGID_4_">
				<use xlink:href="#SVGID_3_"  style="overflow:visible;"/>
			</clipPath>
			<path class="st1" d="M167,255.5c-0.8-0.1-1.5-0.3-2.2-0.4c-0.5-0.1-0.9-0.2-1.3-0.4c-0.9-0.3-1.2-0.9-1-1.9
				c0.4-1.8,0.7-3.7,1-5.5c0.1-0.6,0.2-1.2,0.2-1.8c0-0.4-0.1-0.8-0.2-1.1c-0.4-0.9-0.9-1.7-1.4-2.5c-0.3-0.5-0.2-1,0-1.5
				c4.7-8.8,7.8-18.2,10-27.9c0-0.2,0.1-0.4,0.1-0.7c-1.2,0.1-2.4,0.1-3.6,0.2c-3.3,0.2-6.5,0.5-9.8,0.7c-1.2,0.1-2.3,0-3.5,0
				c-1.9,0-3-1.2-3.8-2.8c-1.6-3.3-2.1-6.8-1.2-10.4c1.2-4.9,2.5-9.8,3.7-14.7c0.1-0.2,0.1-0.4,0.2-0.6c0.2-0.7,0.5-1.3-0.3-2
				c-0.3-0.3-0.3-1-0.4-1.6c-0.9-0.3-2-0.7-2.6-1.8c-0.6-1.1-0.8-2.1,0.1-3.1c-1.4-1.2-1.3-3,0.2-4.2c0.7-0.6,1.6-0.8,2.5-0.9
				c0.4,0,0.8-0.1,1.2-0.1c-0.1-0.5-0.2-0.8-0.2-1.2c-0.1-0.8,0.1-1.4,0.8-1.7c0.5-0.3,1-0.5,1.5-0.7c0.4-0.1,0.5-0.3,0.6-0.7
				c0.4-1.7,0.7-3.4,1.2-5.1c0.2-0.9,0.3-1.8,1.1-2.4c0.1-0.1,0.1-0.3,0.2-0.4c1.5-3.9,2.4-8,2.9-12.1c0.2-1.8,0.5-3.6,0.7-5.4
				c0.1-0.5,0.2-0.9,0.4-1.4c0.3-0.9,0.8-1.5,1.9-1.7c4.4-0.8,8.7-1.6,13-2.4c0.1,0,0.3-0.1,0.5-0.1c-0.4-0.7-0.8-1.3-1.2-1.9
				c-0.7-1.1-0.6-1.8,0.7-2.3c1.9-0.7,3.9-1.3,5.8-1.8c2.1-0.5,4.2-0.9,6.3-1.3c0.4-0.1,0.5-0.2,0.5-0.6c-0.2-1.5-0.2-1.5-1.7-1.7
				c-1.5-0.2-2.8-0.8-3.7-2.2c-1.9-2.9-3.9-5.8-5.9-8.7c-1.3-2-1.9-4.2-2.4-6.5c-0.6-2.7-1.4-5.4-2.6-8c-1.3-2.9-2.1-6.1-3.1-9.2
				c-0.5-1.4-0.7-2.8-1.2-4.2c-0.5-1.6-1.1-3.2-1.7-4.8c-0.2-0.5-0.3-1.1-0.5-1.6c-0.5-1.8-0.2-3.4,0.7-5c2.1-3.5,5-6.1,8.5-8.2
				c6.1-3.5,12.7-4.7,19.7-3.8c3,0.4,6,0.8,8.9,1.5c7.8,2,12.7,8.6,12.4,16.7c0,0.9,0.1,1.6,0.7,2.3c1.2,1.4,1.5,3.2,1.7,4.9
				c0.1,1,0.1,2,0,3.1c0,1.7,0,3.4-0.2,5c-0.1,1.7-0.9,3.1-2.4,4c-0.1,0.1-0.3,0.3-0.2,0.4c0.1,1.9-0.7,3.5-1.8,5.1
				c-0.2,0.3-0.3,0.6-0.4,0.9c-0.2,3.2-1.4,6.1-3.6,8.5c-0.3,0.4-0.5,0.8-0.5,1.3c0.1,1.4,0.1,2.9,0.2,4.3c0,0.2,0.1,0.5,0.2,0.8
				c0.5-0.2,0.9-0.4,1.3-0.5c0.8-0.3,1.2-0.1,1.4,0.8c0.2,0.9,0.3,1.8,0.6,2.6c0.4,1.4,0.9,2.7,1.5,4c0.4,0.9,1.1,1.4,2.1,1.6
				c0.9,0.1,1.7,0.2,2.6,0.2c5,0.1,10,0,15.1,0.1c1.9,0,3.7,0.3,5.6,0.5c0.4,0,0.7,0.1,1,0.3c0.3,0.2,0.6,0.5,0.8,0.8
				c0.4,0.8,0.8,1.6,1.1,2.5c0.6,1.3,1.1,2.5,1.7,3.8c0.4,0.7,0.8,1.4,1.3,2c0.6,0.8,0.8,1.6,0.7,2.5c-0.3,2.7-0.5,5.4-0.9,8.1
				c-0.7,4.9-1.5,9.8-2.3,14.7c-1.1,6.3-1.3,12.7-1.3,19.1c0,3.9,0.2,7.8,0.3,11.7c0.1,3.2,0.2,6.3-0.3,9.5
				c-0.5,2.9-1.6,5.6-3.4,7.9c-1.7,2.2-3.6,4.3-6.1,5.6c-0.4,0.2-0.7,0.4-1.1,0.5c-0.6,0.1-0.7,0.4-0.7,0.9c0,2.5-0.1,5,0.4,7.4
				c0.3,1.4,0.8,2.7,1,4.1c0.7,4.2,0.7,8.5,0.6,12.8c0,0.7-0.2,1.4-1,1.8c-0.1,0.1-0.2,0.4-0.2,0.6c0.2,1.8,0.6,3.5,0.7,5.3
				c0.1,1.6-0.1,1.8-1.7,2.1c-0.1,0-0.2,0-0.4,0.1c0.1,0.8,0.2,1.7,0.3,2.6c1.4,8.2,2.8,16.3,4.2,24.4c1.8,10.6,3.6,21.3,5.5,31.9
				c1,6,0.8,11.9,0.4,17.9c-0.6,9.3-1.3,18.6-1.5,27.8c-0.3,13.3,1.5,26.4,5.6,39.2c1,3.2,2.2,6.3,3.2,9.5c0.3,0.8,0.5,1.6,0.5,2.4
				c0.2,3.8,0.3,7.6,0.5,11.3c0,0.8-0.1,1.4-1,1.8c0.3,0.2,0.5,0.3,0.7,0.4c4.1,2.2,7.6,5.2,10.5,8.8c1,1.2,1.8,2.6,2.3,4.2
				c1,3,0,6.7-3.9,8.2c-2.6,1-5.3,1.3-8.1,1.4c-7,0.4-13.8-0.7-20.2-3.5c-4.2-1.8-7.8-4.4-10.7-8c-1.2-1.5-2.1-3.2-2.5-5.1
				c-0.1-0.4-0.3-0.5-0.7-0.5c-1.4,0-1.7-0.3-1.7-1.6c0-3.3-0.9-6.5-1.2-9.7c-0.6-6.8-1.3-13.6-1.9-20.5
				c-0.9-10.3-1.6-20.7-3.1-30.9c-0.4-2.8-0.9-5.5-1.3-8.3c-0.6-4.1-0.6-8.3-0.4-12.4c0.1-2.3,0.2-4.6,0.3-6.9c0-1,0.4-1.9,1.1-2.6
				c0.5-0.5,0.9-1,1.4-1.6c0.4-0.5,0.5-1.1,0.2-1.7c-0.3-0.7-0.6-1.5-0.9-2.2c-0.5-1.3-0.5-2.6,0.1-3.9c0.2-0.4,0.3-0.8,0.5-1.2
				c0.9-2.2,1-4.3,0.3-6.7c-2.7-9.5-5.1-19-7.6-28.5c-0.9-3.6-1.9-7.1-2.8-10.7c0-0.2-0.1-0.3-0.3-0.5c0,0.5-0.1,1-0.1,1.6
				c-0.7,7.2-2,14.3-3.2,21.4c-1.1,6.5-2.3,13-3.4,19.5c-0.2,0.9-0.2,1.9-0.2,2.8c0,0.5,0.2,1,0.5,1.4c1.7,2,1.8,3.2,0.2,5.4
				c-0.3,0.4-0.6,0.8-1,1.3c0.3,0.2,0.6,0.4,0.9,0.5c1.4,0.7,2,1.8,2.2,3.3c0.5,3.9,0.6,7.8,0.5,11.7c-0.3,10.6-0.6,21.2-0.7,31.8
				c-0.1,9.5,0.2,18.9,0.9,28.4c0.2,2.1,0.7,4.1,1,6.2c0.3,2.9,0.4,5.9,0.7,8.8c0.1,1.5,0.3,3.1,0.4,4.6c0.1,1.3-0.2,1.8-1.4,2.1
				c-0.7,0.2-1.4,0.1-2.1,0.1c-0.2,0-0.4-0.1-0.6-0.1c-0.4-0.1-0.6,0.1-0.8,0.6c-0.8,3.2-2.4,5.9-4.9,8c-0.2,0.2-0.5,0.3-0.7,0.5
				c-5.5,3.3-11.4,5.8-17.8,6.6c-6.8,0.9-13.5,0.9-20.2-0.5c-2.9-0.6-5.6-1.5-8-3.3c-2-1.6-3.2-3.6-3.2-6.2c0-1.7,0.7-3.1,2.3-3.8
				c2.1-0.9,4.3-1.8,6.5-2.7c4.7-1.9,8.9-4.5,12.8-7.8c1.2-1,2.5-1.9,3.8-2.8c0.4-0.3,0.5-0.4,0.4-1c-0.1-0.7,0.1-1.4,0.2-2.1
				c1.1-4.6,0.8-9.3,1-13.9c0.2-7.5,0.5-14.9,0.3-22.4c-0.1-6-0.7-12.1-1.2-18.1c-0.7-8.2-1.6-16.5-2.5-24.7
				c-0.5-4.8-1.1-9.6-1.5-14.5c-0.2-2.7-0.1-5.4-0.1-8.2c0.1-5.9,0.3-11.9,0.5-17.8c0.3-8.5,0.9-17,1.8-25.5
				c0.6-5.4,1.4-10.8,2.4-16.1C167,255.7,167,255.7,167,255.5 M211.4,338.9c-0.5,0.3-0.5,1-0.5,1.6c-0.1,3.2-0.3,6.4-0.3,9.6
				c0,2.8,0.1,5.7,0.4,8.5c0.4,3.5,1.1,6.9,1.5,10.4c1.6,11.5,2.3,23,3.3,34.5c0.5,6,1.2,11.9,1.7,17.8c0.2,1.9,0.4,3.9,0.6,5.8
				c0.1,0.6,0.1,1.1,0.2,1.7c1.2,0.1,2.7-0.1,3.9-0.7c2-0.9,4-1.9,6-2.9c3-1.5,6-3,9.2-3.8c1.8-0.5,3.6-0.6,5.4-0.1
				c1.8,0.5,3.6,1,5.4,1.5c0.5,0.1,1.1,0.2,1.7,0.3c0-0.3,0-0.5,0-0.7c-0.1-3.5-0.3-6.9-0.5-10.4c0-0.8-0.2-1.6-0.5-2.3
				c-1-3.1-2.2-6.2-3.2-9.3c-3.2-9.8-4.9-20-5.6-30.3c-0.5-7.4-0.1-14.7,0.3-22.1c0.5-7.2,0.9-14.4,1.3-21.6
				c0.3-4.5-0.4-8.8-1.1-13.2c-2-12.1-4.1-24.1-6.1-36.2c-1-5.8-1.9-11.7-2.8-17.5c-0.2-1.2-0.3-2.3-0.4-3.6c-0.3,0-0.5,0.1-0.7,0.1
				c-7.7,1.5-15.5,2.1-23.3,1.8c-7-0.3-14.1-0.7-21.1-1c-0.2,0-0.5,0-0.7,0c0.2,0.2,0.4,0.3,0.6,0.4c3.6,1.4,7.2,2.8,10.8,4.2
				c1.2,0.5,1.8,1.4,2.1,2.7c0.4,2.3,0.8,4.6,1.3,6.9c1.8,7.2,3.7,14.3,5.5,21.4c2.4,9.1,4.8,18.2,7.3,27.3c0.4,1.5,0.6,3.1,1.2,4.5
				c2.9,6.9,6.5,13.4,10.9,19.5c0.6,0.8,1.2,1.6,1.7,2.5c0.1,0.2,0.1,0.8,0,0.9c-0.2,0.2-0.6,0.1-1,0.1c-0.2,0-0.3-0.2-0.5-0.3
				c-1.9-1.4-3.8-2.8-5.7-4.1c-2.1-1.4-4.2-2.8-6.3-4.1c-0.4-0.3-0.9-0.4-1.3-0.6c-0.1,0-0.1,0.1-0.2,0.1c0.1,0.3,0.1,0.7,0.3,1
				c0.5,1.1,1,2.2,1.7,3.1c2.7,3.9,5.4,7.9,8.1,11.8c0.6,0.9,1.2,1.8,1.8,2.7c-0.2-0.1-0.4-0.2-0.5-0.4c-3.4-4-6.7-8.1-9.6-12.5
				C213.2,342.3,212.4,340.6,211.4,338.9 M168.2,255.7c-0.1,0.2-0.1,0.5-0.1,0.7c-0.7,6-1.7,11.9-2.2,17.9
				c-0.7,8.2-1.1,16.4-1.5,24.6c-0.2,4.9-0.3,9.9-0.4,14.8c0,3.3-0.2,6.6,0.1,9.8c0.4,5.1,1.1,10.1,1.7,15.2
				c0.8,7.8,1.6,15.7,2.4,23.5c0.8,8.1,1.5,16.2,1.3,24.3c-0.2,8.4-0.4,16.8-0.7,25.2c0,1.4-0.3,2.7-0.5,4c-0.1,0.7-0.2,1.4-0.3,2.2
				c0.5,0,0.9,0,1.3,0c4.5-0.2,8.4,1.2,11.8,4.3c1.7,1.5,3.4,3,5.1,4.4c3.3,2.9,7.1,3.4,11.2,3c0.5-0.1,0.7-0.3,0.7-0.9
				c-0.2-2.2-0.4-4.4-0.5-6.5c-0.2-2.6-0.5-5.2-0.8-7.9c-0.2-1.6-0.6-3.3-0.7-4.9c-0.7-8.6-1-17.3-0.9-25.9c0.1-11,0.5-22,0.7-33
				c0.1-4.1,0.2-8.2-0.3-12.3c-0.1-1.2-0.5-2-1.7-2.5c-0.2-0.1-0.4-0.2-0.6-0.3c-1.1-0.7-1.3-1.7-0.5-2.8c0.4-0.5,0.8-1,1.1-1.5
				c0.2-0.4,0.4-0.8,0.5-1.3c0.1-0.3-0.1-0.6-0.5-0.5c-2.8,0.4-5.6,0.1-8.4-0.3c-3.9-0.5-7.8-1.2-11.6-1.9c-0.3,0-0.6-0.1-0.8-0.1
				c0.3,0.4,0.6,0.7,0.9,1c3.6,2.6,7.5,4.7,11.6,6.4c0.5,0.2,1,0.4,1.4,0.7c0.7,0.4,0.8,1.1,0.2,1.7c-0.3,0.3-0.7,0.6-1.1,0.8
				c-1.8,1.1-3.7,2.2-5.5,3.3c-0.4,0.2-0.7,0.6-1.1,0.9c0,0.1,0,0.1,0.1,0.2c1.4,0.4,2.7,0.8,4.1,1.1c-0.2,0.1-0.5,0.2-0.7,0.2
				c-1.2-0.2-2.4-0.3-3.6-0.5c-0.9-0.2-1.2-1-0.5-1.7c0.4-0.4,0.8-0.8,1.3-1.1c1.8-1.1,3.7-2.2,5.6-3.3c0.3-0.2,0.5-0.4,0.8-0.6
				c-0.4-0.2-0.7-0.3-1-0.5c-1.6-0.7-3.3-1.4-4.9-2.2c-2.8-1.4-5.6-2.9-8-4.9c-0.4-0.3-0.7-0.7-1-1.1c-0.5-0.8,0-1.5,0.8-1.6
				c0.5,0,1,0,1.5,0.1c2.6,0.4,5.1,1,7.7,1.4c3.7,0.6,7.3,1.1,11,1.2c0.3,0,0.6,0,0.8,0c-0.9-1.1-0.9-2.3-0.8-3.5
				c0-0.6,0.1-1.2,0.2-1.8c1.2-6.6,2.4-13.2,3.5-19.8c1.4-8.3,2.8-16.6,4.1-24.8c0.1-0.5,0.1-1.1,0-1.6c-0.9-4.3-1.8-8.6-2.7-12.9
				c-0.1-0.4-0.4-0.8-0.8-1c-0.7-0.4-1.4-0.7-2.1-1c-3.6-1.5-7.1-2.9-10.7-4.3c-0.5-0.2-1-0.3-1.4-0.7c-0.4-0.4-0.9-0.4-1.3-0.4
				c-2.8-0.2-5.5-0.3-8.3-0.5C171.5,255.9,169.9,255.8,168.2,255.7 M237.8,157c0.1,0.1,0.1,0.2,0.2,0.2c-0.5,0.7-1,1.4-1.5,2.1
				c-2.8,4.2-4.8,8.7-6.6,13.4c-0.8,2.1-1.6,4.1-2.1,6.2c-0.7,2.7-1.1,5.5-1.6,8.3c-0.5,3.1-1,6.2-0.4,9.4c0.9,4.3,2.1,8.5,3.7,12.6
				c0.2,0.4,0.6,1-0.1,1.3c-0.7,0.3-0.9-0.4-1-0.8c-0.9-2.6-1.7-5.2-2.6-7.8c-0.1-0.3-0.2-0.5-0.3-0.8c-0.3,0.5-0.4,1.1-0.5,1.6
				c-0.3,2.2-0.6,4.3-0.9,6.5c-0.1,0.8-0.4,1.5-0.6,2.3c-0.1,0-0.2,0-0.3-0.1c-0.2-2.4,0.2-4.9,0.5-7.3c-1.1,0.6-2.1,1.1-3.1,1.6
				c-0.6,0.3-1.2,0.6-1.9,0.4c-0.1,0-0.3,0-0.4,0.1c-3,1.3-6.3,1.9-9.6,1.9c-0.9,0-1.6,0-2.5,0.3c-1,0.3-2.1,0.4-3.2,0.4
				c-1.4,0.1-2.6,0.7-3.9,1.1c2.2,0.6,4.4,1.2,6.6,1.7c9.1,2.2,18.2,4.6,27.2,7.3c0.2,0.1,0.5,0.1,0.6,0c1.2-0.7,2.5-1.2,3.5-2.2
				c2.7-2.5,4.5-5.7,5.4-9.3c0.7-2.6,0.7-5.4,0.6-8.1c-0.1-5-0.4-10-0.4-15.1c0-6.5,0.3-12.9,1.4-19.3c1-5.2,2-10.5,2.5-15.8
				c0.2-2,0.5-3.9,0.7-5.9c0.1-0.6-0.1-1-0.4-1.5c-0.5-0.7-1-1.5-1.4-2.3c-0.8-1.8-1.6-3.6-2.3-5.4c-0.2-0.5-0.5-0.8-1-0.8
				c-1.5-0.2-3-0.4-4.6-0.5c-4.9-0.1-9.9-0.1-14.8-0.2c-1.5,0-3-0.3-4.5-0.4c-0.2,0-0.5,0.1-0.7,0.2c-3.1,1.6-6.2,3.5-9.5,4.5
				c-0.1,0-0.3,0.3-0.3,0.4c-0.1,1.4-0.1,2.7-0.2,4.1c0,0.4-0.1,0.9-0.2,1.3c-1.1,5-2.3,10-3.5,14.9c-1,4.3-2.2,8.6-3.3,12.9
				c-0.5,1.9-0.1,4.1-1.3,5.9c1.3,0.2,1.9,0.9,2,2.1c0.2,1.8,0,3.5-0.4,5.2c-0.2,1-0.8,1.6-1.8,1.8c-0.4,0.1-0.5,0.3-0.5,0.7
				c0,1.4,0,2.9-0.1,4.3c0,0.4,0.1,0.6,0.5,0.7c2.3,1,4.6,2.1,6.9,3.1c0.2,0.1,0.6,0.1,0.8,0.1c2.1-0.9,4.3-1.2,6.6-1.2
				c0.4,0,0.5-0.2,0.6-0.5c0.2-0.8,0.4-1.6,0.6-2.4c0.4-1.9,1.4-3.3,3.2-4.1c2.3-1.1,4.6-2.2,7-3.2c0.4-0.2,0.5-0.3,0.6-0.7
				c0.4-2.5,0.9-5.1,1.3-7.6c0.5-3.3,0.9-6.6,1.4-9.8c0.2-1.3,0.5-2.5-0.2-3.7c0,0,0-0.1,0-0.1c-1-3.7-1.9-7.3-2.9-11
				c-0.3-1.1-0.3-2.2-0.4-3.3c0-0.2,0.1-0.5,0.1-0.7c0.1,0,0.2,0,0.3,0c1.1,4.6,2.2,9.2,3.3,13.7c0.6-1.5,1.1-3.2,1.9-4.8
				c2.7-5.5,5.9-10.8,9.3-16c0.1-0.2,0.3-0.3,0.5-0.5l0.2,0.1c-0.2,0.6-0.4,1.1-0.6,1.7c-1.8,3.4-3.7,6.8-5.5,10.3
				c-1.5,2.8-2.8,5.6-4.2,8.4c-0.5,1.1-0.5,2.2-0.2,3.3c0.2,0.7,0.3,1.5,0.2,2.3c-0.1,1.6-0.4,3.2-0.6,4.7c-0.2,1.6-0.4,3.3-0.6,4.9
				c0.2-0.2,0.3-0.4,0.3-0.6c1.3-3.9,2.9-7.8,4.9-11.4c0.9-1.5,1.9-3,2.8-4.4C236.9,157.5,237.4,157.3,237.8,157 M215.7,100.2
				c0.5-0.1,1-0.3,1.5-0.4c0.3-0.1,0.5-0.2,0.7-0.4c0.9-0.5,1.5-1.8,1.3-2.5c-0.1-0.5-0.2-1-0.1-1.5c0.1-1.2,0.2-2.3,0.3-3.5
				c0.2-2,0-3.9-0.7-5.8c-0.4-1-1-1.8-2-2.2c-0.6-0.3-1.2-0.2-1.8,0.2c-2,1.4-2.8,3.3-2.6,5.6c0,0.4,0.1,0.7,0.1,1.1
				c0,1.4-0.9,2.3-2.2,2.4c-0.6,0-1.3,0-2-0.1c-1.4-0.2-2.1-0.9-2.2-2.3c-0.1-1.6-0.2-3.1-0.2-4.7c0.1-2.6-0.8-4.7-2.6-6.6
				c-1.4-1.4-3.1-2.1-5.1-1.6c-3.3,0.8-6.4,1.9-9.2,3.9c-3.2,2.2-6.7,2.9-10.5,2c-0.8-0.2-1.6-0.2-2.3-0.3c-0.3,0-0.6,0-0.8,0.2
				c-1,0.9-1.9,1.7-2.8,2.7c-0.2,0.2-0.2,0.6-0.1,0.8c0.5,1.7,1.1,3.4,1.6,5.1c0.6,1.8,1.2,3.6,2.1,5.3c0.3,0.5,0.6,1,0.7,1.5
				c0.8,2.8,1.7,5.6,2.4,8.4c0.6,2.2,1,4.5,2.3,6.4c2,2.9,3.9,5.8,5.9,8.6c0.5,0.7,1.1,1.1,1.9,1.2c0.6,0.1,1.1,0.2,1.7,0.2
				c8.2,0,14.9-3.2,20.3-9.3c0.9-1,1.7-2.2,2.2-3.4c0.9-2.3,1.1-4.7,0.9-7.1c-0.2-2.8-1-5.5-1.8-8.2c-0.1-0.5-0.3-1-0.3-1.4
				c0-0.4,0.2-0.8,0.4-1.2c0.3,0.2,0.7,0.4,0.9,0.7c0.3,0.4,0.5,0.9,0.7,1.4C214.8,97,215.2,98.5,215.7,100.2 M196.2,247
				c0.2,0,0.4,0,0.6,0c2.5-0.1,4.9-0.1,7.4-0.2c9-0.1,18.1-0.3,27.1-0.4c0.6,0,1.2-0.1,1.8-0.2c0.5,0,0.8-0.3,0.8-0.9
				c0-0.8,0-1.7,0-2.5c0-3.4-0.1-6.7-0.7-10c-0.2-1.3-0.7-2.6-1-3.9c-0.5-2.7-0.4-5.4-0.3-8.1c0-0.5-0.1-0.7-0.6-0.8
				c-4.5-1.3-9-2.5-13.4-3.8c-6.3-1.8-12.5-3.6-18.8-5.3c0,0-0.1,0-0.2,0c0,0.2-0.1,0.4-0.1,0.5c-0.3,3-0.6,6.1-1,9.1
				c-1.2,8.3-1.9,16.7-1.7,25.1C196.2,246.1,196.2,246.5,196.2,247 M197.7,185.9c-2-0.2-2.6-0.8-2.5-2.7c0.1-1.6,0.3-3.3,0.5-4.9
				c0.1-0.5,0.6-1,0.8-1.5c0.1-0.2,0.2-0.4,0.2-0.6c-0.3-1.3-0.5-2.6-0.9-3.9c-1.3-4.5-2.7-9-4.1-13.5c-0.8-2.6-1.6-5.2-2.7-7.7
				c-2.3-5.2-5.7-9.8-8.8-14.5c-0.1-0.1-0.4-0.2-0.6-0.1c-0.8,0.2-1.7,0.5-2.5,0.7c-3.6,0.7-7.2,1.4-10.8,2.1
				c-0.6,0.1-0.9,0.4-1,0.9c-0.2,1.5-0.5,2.9-0.7,4.4c-0.6,5.1-1.6,10-3.5,14.8c-0.1,0.3-0.2,0.7-0.4,0.9c-0.8,0.7-0.8,1.7-1.1,2.7
				c-0.3,0.9-0.5,1.9-0.8,2.8c0,0.2-0.1,0.4-0.1,0.6c3-0.3,5.9,0.4,8.8,1.1c0-0.1,0-0.2,0-0.3c0-1.7,1.4-2.6,2.9-1.9
				c0.2,0.1,0.5,0.2,0.7,0.3c0.5,0.3,1,0.5,1.6,0.9c-0.4-1.8-0.8-3.5-1.2-5.2c0-0.1-0.1-0.3-0.2-0.3c-1.9-1.4-3.4-3.2-4.7-5.1
				c-0.1-0.2-0.2-0.5-0.3-0.7c1.2,0.5,1.9,1.4,2.6,2.2c0.7,0.8,1.4,1.7,2.1,2.5c0.1-0.3,0-0.5,0-0.7c-1.1-4.6-2.3-9.2-3.4-13.7
				c-0.1-0.4-0.2-0.8-0.2-1.2c0-0.2,0.2-0.4,0.2-0.6c0.2,0.1,0.5,0.2,0.5,0.3c0.2,0.4,0.4,0.9,0.5,1.4c1.1,4,2.2,8.1,3.2,12.1
				c0.7,3,1.3,6.1,1.8,9.1c0.1,0.4,0.2,0.6,0.5,0.8c1.6,1.3,3.2,2.5,4.7,3.9c2,1.8,2.9,4.1,2.8,6.8c0,0.5,0,0.9,0,1.4
				c0.8-1.3,1.2-1.5,2.7-0.9c0.7,0.3,1.3,0.6,1.9,1c1.6,1.2,2.8,2.6,2.8,4.7c0,0.2,0.2,0.4,0.4,0.5c0.9,0.6,1.8,1.2,2.7,1.8
				c1.5,1.1,3,2.3,4.5,3.4c0.2,0.1,0.4,0.2,0.7,0.3C197.6,188.8,197.7,187.4,197.7,185.9 M169.5,227.6c0.3-0.2,0.6-0.4,0.8-0.5
				c1.6-1.3,3.2-2.6,4.7-4c0.9-0.7,1.7-0.6,1.9,0.6c0.3,1.8,0.6,3.7,0.8,5.6c0.1,0.6-0.2,1.1-0.8,1.4c-3.3,1.4-6.5,2.8-9.8,4.2
				c-0.3,0.1-0.6,0.4-0.8,0.7c-0.9,1.8-1.7,3.6-2.5,5.4c-0.1,0.2-0.1,0.6,0,0.8c0.5,0.9,1,1.9,1.5,2.8c0.2,0.3,0.5,0.6,0.8,0.7
				c1.3,0.5,2.7,1,4.1,1.3c3.5,0.7,7,0.8,10.5,0.8c4.5,0,9-0.1,13.5-0.1c0.2,0,0.3,0,0.5-0.1c-0.1-0.4-0.1-0.8-0.1-1.2
				c-0.1-6.3-0.1-12.7,0.9-19c0.8-5.2,1.4-10.5,2.2-15.7c0-0.2,0-0.5,0.1-0.8c-0.2,0-0.3,0-0.4,0.1c-2.2,0.5-4.5,0.7-6.7,0.7
				c-5.3-0.1-10.7,0.3-16,0.6c-0.5,0-0.8,0.2-0.9,0.7c-1,4.9-2.3,9.8-4,14.6C169.6,227.1,169.6,227.3,169.5,227.6 M155.7,183.7
				c-0.3,1.7-0.6,3.5-1,5.2c-0.9,3.8-1.8,7.7-2.7,11.5c-0.7,3.1-0.1,6,1.2,8.8c0.5,1,1.1,1.7,2.3,1.7c1.1,0,2.3,0.1,3.4,0
				c3.9-0.2,7.8-0.5,11.7-0.8c6.5-0.4,13-1,19.5-0.8c3.4,0.1,6.7-0.4,9.8-1.6c1.4-0.5,2.8-0.8,4.2-0.8c0.8,0,1.6-0.2,2.5-0.4
				c-0.1-0.4-0.2-0.6-0.3-0.8c-0.6-1.4-1.3-2.8-1.9-4.2c-0.6-1.3-1.3-2.6-1.3-4c-1,0.1-2,0.2-3,0.2c-3-0.1-5.8-0.9-8.4-2
				c-4-1.8-8-3.7-12-5.6c-1.1-0.5-2.1-1-3.4-1.1c-2.3-0.2-4.5,0.2-6.7,0.6c-0.2,0-0.5,0.4-0.5,0.6c-0.6,1.5-1.1,3.1-1.6,4.6
				c-0.2,0.7-0.5,1.3-0.8,2c-0.1,0-0.1-0.1-0.2-0.1c0.8-2.3,1.5-4.6,2.4-7.1c-0.7,0.2-1.5,0.3-1.9,0.7c-1.3,1.5-2.3,3.1-3.5,4.7
				c-0.1,0.1-0.1,0.2-0.1,0.3c0,0,0.1,0,0.1,0l1-1.3c0,0,0.1,0.1,0.1,0.1c-0.8,1.5-1.7,3.1-2.5,4.6c-0.7,1.3-1.3,2.6-1.9,3.9
				c-0.1,0.2-0.4,0.3-0.7,0.5c-0.1-0.3-0.2-0.5-0.3-0.8c0-0.1,0-0.2,0.1-0.3c1.1-4.2,3.3-7.9,6.2-11.1c0.1-0.2,0.3-0.3,0.4-0.5
				c-3.1,0.7-6.2,1.4-9.2,1.9c0-0.1-0.1-0.2-0.1-0.3c1.9-0.8,3.7-1.7,5.6-2.4c1.9-0.7,3.9-1.2,6-1.8c-0.4-0.1-0.6-0.2-0.9-0.2
				c-1.4-0.1-2.7-0.1-4.1-0.2c-0.6-0.1-1.3-0.2-1.8-0.5C159.4,186,157.6,184.9,155.7,183.7 M171.5,85.2c0.6-0.8,1.2-1.5,1.8-2.3
				c0.4-0.6,0.9-1.1,1.7-1.1c1.3,0.1,2.7,0.1,4,0.4c3.6,0.8,6.7,0,9.6-2.3c0.3-0.2,0.6-0.4,1-0.6c2.5-1.3,5.1-2.1,7.7-2.9
				c2.8-0.8,5.3-0.1,7.3,2c2,2.1,3.1,4.6,3,7.5c0,1.2,0,2.4,0,3.6c0.1,1.8,0.5,2.1,2.3,2c0,0,0,0,0.1,0c0.6,0,0.9-0.3,0.9-0.9
				c0-0.6-0.1-1.3-0.2-1.9c-0.2-1.2,0.1-2.3,0.7-3.3c0.4-0.5,0.8-1.1,1.2-1.5c1-1.1,2.2-1.9,3.8-1.8c0.5,0,0.6-0.2,0.6-0.6
				c0.2-5.1-3.1-12.4-9.8-14.4c-3.2-1-6.6-1.4-9.9-1.8c-6.9-0.8-13.3,0.4-19.3,3.9c-2.9,1.7-5.2,3.9-7.1,6.7c-0.8,1.2-1.3,2.5-0.9,4
				c0.4,1.6,0.9,3.2,1.3,4.8C171.3,84.8,171.4,84.9,171.5,85.2 M154.8,180.8c0.2,0.3,0.2,0.5,0.4,0.6c0.9,0.7,1.8,1.5,2.8,2.1
				c1.3,0.8,2.6,1.6,4,2.3c0.4,0.2,0.9,0.4,1.3,0.4c2.5,0,5,0.3,7.4,1.1c0.5,0.2,1,0.1,1.5,0.1c1.8,0,3.5,0,5.3,0
				c0.2,0,0.5-0.1,0.6-0.3c0.9-1.5,1.7-3.1,2.5-4.6c0.1-0.2,0.2-0.5,0.2-0.8c-0.1-1.2-0.2-2.4-0.2-3.6c-0.1-2.1-0.8-4-2.3-5.5
				c-1.8-1.9-3.8-3.5-6.1-4.8c-0.7-0.4-1.4-0.8-2.2-1.2c-0.2-0.1-0.4,0-0.6,0c0,0.2,0,0.5,0.1,0.7c0.2,0.3,0.4,0.5,0.7,0.7
				c1.2,1.1,2.5,2.3,3.7,3.4c0.2,0.2,0.4,0.4,0.5,0.7c0.1,0.1,0.1,0.5,0,0.5c-0.1,0.1-0.4,0.1-0.6,0.1c-0.4-0.2-0.8-0.4-1.2-0.7
				c-3.4-2.8-7.3-3.9-11.6-4.1c-1.4-0.1-2.7,0-4,0.6c-0.7,0.3-0.8,0.5-0.6,1.3c0.2,0.6,0.6,0.6,1,0.6c3.8,0.4,7.5,1.7,11.1,2.7
				c0.4,0.1,0.8,0.4,0.7,0.9c-0.1,0.5-0.6,0.6-1,0.5c-0.4-0.1-0.9-0.2-1.3-0.3c-2.8-0.7-5.6-1.4-8.3-2.1c-0.8-0.2-1.6-0.2-2.3-0.4
				c-1.5-0.3-2.8,0.1-4.1,0.9c-0.2,0.1-0.3,0.3-0.3,0.5c-0.4,0.8-0.3,1.2,0.5,1.6c1.5,0.7,3,1,4.6,0.9c2.6-0.2,5,0.3,7.5,1
				c1.2,0.4,2.4,0.9,3.2,1.9c0.3,0.4,0.6,0.8,0.1,1.2c-0.4,0.4-0.9,0.2-1.2-0.2c-0.6-0.8-1.5-1.2-2.5-1.5c-2.4-0.7-4.8-1.1-7.3-1
				c-1.1,0.1-2.3-0.2-3.5-0.3c-0.3,0-0.7,0-1,0c-0.4,0-0.5,0.3-0.5,0.7c0.1,0.8,0.5,1.4,1.2,1.7c0.6,0.2,1.2,0.4,1.8,0.5
				c3.2,0.6,6.4,1.3,9.6,1.9c0.8,0.2,1.4,0.5,1.8,1.2c0.2,0.3,0.3,0.7-0.1,1c-0.3,0.3-0.6,0.1-1-0.1c-0.4-0.3-0.9-0.6-1.4-0.7
				c-1.4-0.4-2.9-0.7-4.4-1C157.9,181.3,156.5,181.1,154.8,180.8 M206.2,140.9l-0.2-0.1c-0.4,0.1-0.8,0.3-1.2,0.4
				c-0.7,0.2-1.5,0.5-2.2,0.6c-2.5,0.2-5,0.1-7.5-0.5c-2.4-0.6-4.4-1.7-5.1-4.3c0,0-0.1-0.1,0,0c-2.2,0.5-4.3,1-6.4,1.5
				c0,0.1,0.1,0.2,0.2,0.3c0.8,1.2,1.5,2.3,2.3,3.5c2.5,3.8,4.8,7.7,6.2,12.1c2,6.4,3.9,12.7,5.8,19.1c0,0.2,0.1,0.3,0.2,0.5
				c0.2-0.3,0.3-0.5,0.3-0.7c0.6-2.8,1.2-5.6,1.9-8.3c1.7-6.8,3.4-13.6,5.1-20.3C205.8,143.4,206,142.1,206.2,140.9 M260.5,434.7
				c0,0,0-0.1,0-0.1c-0.1-0.1-0.2-0.2-0.3-0.4c-1.9-2.3-4.2-4.2-6.6-5.9c-0.3-0.2-0.8-0.3-1.2-0.4c-2-0.3-3.7,0.5-5.4,1.3
				c-2.2,1.1-4.3,2.2-6.5,3.2c-2.9,1.3-5.9,1-8.7-0.4c-1.9-0.9-3.6-2.1-5.2-3.4c-0.2-0.1-0.5-0.3-0.7-0.2c-1.8,0.8-3.5,1.8-5.7,2
				c0.5,1.1,1,2.2,1.5,3.1c1.1,1.8,2.4,3.6,4.4,4.6c5.8,3.2,12,4.4,18.7,3.7c2.2-0.2,4-0.9,5.5-2.6c0.8-0.9,1.6-1.6,2.5-2.4
				c1.6-1.4,3.4-2.2,5.5-2.2C259.1,434.7,259.8,434.7,260.5,434.7 M151.7,431.4c1.9,0.8,3.3,2.1,4.8,3.5c0.6,0.6,1.3,1.2,1.9,1.8
				c2.2,2,4.7,3.4,7.6,3.7c2.7,0.2,5.5,0.2,8.2,0c5.3-0.5,10.2-2.1,15-4.2c0.5-0.2,1.1-0.6,1.7-0.6c0.8,0,1-0.5,1.3-1
				c0.5-1,0.9-2,1.4-3.1c-0.5-0.1-0.9-0.1-1.3-0.2c-1.4-0.3-2.9,0-4.1-0.9c-0.7-0.5-1.6-0.9-2.2-1.5c-0.9-0.8-1.9-0.9-3-0.8
				c-2.4,0.2-4.6,1.1-6.7,2.1c-2.5,1.1-5,2.2-7.6,3c-3.5,1.1-7,0.8-10.2-1.3c-1.1-0.7-2-1.4-2.2-2.8
				C154.6,429.8,153.2,430.6,151.7,431.4 M232.6,248.2c-3.8,0-7.4,0-11,0c-6.3,0.1-12.7,0.3-19,0.4c-2.1,0-4.3,0.1-6.4,0.1
				c-0.3,0-0.5,0-0.5,0.4c0.1,2.1,0.2,4.2,0.3,6.3c0.4,0,0.6,0.1,0.7,0.1c3.6,0.2,7.2,0.3,10.8,0.5c8.6,0.4,17-0.5,25.4-2.1
				c0.2,0,0.5-0.3,0.4-0.4C233.1,251.7,232.9,249.9,232.6,248.2 M189.8,437.8c0-0.1-0.1-0.1-0.1-0.2c-0.2,0.1-0.3,0.1-0.5,0.2
				c-6.9,3.1-14.1,4.7-21.7,4.3c-3.3-0.2-6.3-1.2-8.8-3.2c-1.7-1.3-3.2-2.9-4.8-4.3c-0.8-0.7-1.8-1.4-2.8-1.9
				c-0.6-0.3-1.4-0.5-2-0.3c-2,0.7-3.9,1.5-5.8,2.3c-0.9,0.4-1.3,1.1-1.3,2.1c0,2,0.9,3.6,2.4,4.8c1.4,1.1,3.1,1.8,4.8,2.4
				c4.2,1.3,8.5,1.6,12.8,1.7c9.3,0.2,18.1-1.7,26.1-6.7C188.7,438.7,189.3,438.3,189.8,437.8 M192.5,125.6c0.1,0.3,0.1,0.5,0.2,0.7
				c0.5,2,0.7,4,0.6,6.1c-0.1,1.4-0.4,2.7-1.2,3.8c-0.4,0.5-0.4,0.9-0.1,1.3c0.4,0.5,0.8,1,1.2,1.2c0.8,0.4,1.6,0.9,2.5,1
				c3.3,0.6,6.7,1,9.9-0.6c0.5-0.2,0.6-0.4,0.7-0.9c0.1-1.8-0.3-3.5-0.8-5.2c-0.5-1.5-1-3-1.5-4.5c-0.4-1.1-0.2-1.6,0.8-2.2
				c0.7-0.4,1.5-0.8,2.2-1.2c1.4-0.7,2.8-1.4,4.1-2.1c-0.1-1.7-0.2-3.4-0.4-5.1C205.6,122.6,199.5,125.2,192.5,125.6 M183.2,426.7
				c-1.2-1-2.4-2.1-3.5-3.1c-3.1-2.9-6.8-3.9-10.9-3.7c-0.3,0-0.5,0.1-0.8,0.3c-1,0.7-1.9,1.4-2.8,2.1c-2.5,1.9-4.9,3.8-7.4,5.8
				c-0.2,0.1-0.3,0.5-0.2,0.6c0.2,0.4,0.5,0.7,0.8,1c2.3,2.1,5.1,2.7,8.1,2.3c2.5-0.4,4.8-1.3,7.1-2.4
				C176.6,428.2,179.7,426.8,183.2,426.7 M194.6,255.4c-0.1-2.2-0.2-4.4-0.3-6.6c-0.2,0-0.5,0-0.7,0c-6.4,0-12.9,0.3-19.3-0.2
				c-3.1-0.2-6.1-0.6-9-2c-0.1,0-0.2,0-0.2,0c-0.3,2.2-0.6,4.4-1,6.6C165.7,253.8,192.4,255.8,194.6,255.4 M219.5,204.7
				c1.1-0.7,2.2-1.3,3.3-1.9c0.6-0.3,0.9-0.8,0.9-1.5c0.1-1.4,0.2-2.7,0.2-4.1c-0.1-3.4-0.1-6.8,0.6-10.2c0.2-0.7,0.3-1.5,0.4-2.2
				c-0.1,0-0.2-0.1-0.2,0c-2.3,1.1-4.6,2.2-6.9,3.3c-0.8,0.4-1.2,1.1-1.5,1.9c-0.3,0.8-0.5,1.7-0.8,2.5c-0.3,0.8-0.4,1.5,0.1,2.3
				c0.5,0.8,0.6,1.9,1.1,2.8C217.8,199.9,218.8,202.2,219.5,204.7 M234.9,443.3c0.3,0.1,0.6,0.2,0.9,0.3c6.1,2,12.3,2.7,18.7,2.1
				c2.1-0.2,4.1-0.5,6-1.4c1.5-0.7,2.4-1.8,2.5-3.5c0.1-0.9-0.2-1.9-0.4-2.8c-0.3-1.2-1-1.8-2.3-1.8c-2.5-0.1-4.8,0.3-6.6,2.1
				c-0.8,0.8-1.6,1.5-2.3,2.3c-1.7,1.8-3.8,2.7-6.3,2.9C241.7,443.9,238.3,443.9,234.9,443.3 M227.8,427.5c1.7,1.3,3.3,2.4,5.2,3.3
				c2.2,1,4.4,1.2,6.6,0.3c1.6-0.6,3.2-1.4,4.8-2.1c1.5-0.7,3-1.4,4.5-2c0.5-0.2,1-0.2,1.6-0.4c-0.3-0.2-0.5-0.3-0.7-0.3
				c-3.4-1.5-6.9-2.5-10.5-2.8c-0.6-0.1-1.3-0.2-1.8,0C234.1,424.2,231,425.8,227.8,427.5 M210.4,206.4c2.1-0.2,4.5-0.6,6.8-1.4
				c0.5-0.2,0.7-0.4,0.5-0.9c-1-3.2-2.4-6.2-4.3-9.1c-0.1-0.2-0.3-0.4-0.5-0.4c-2.5,0-4.9,0.5-7,1.8c-1.4,0.8-1.5,1.1-0.8,2.6
				c0.9,2,1.8,4,2.7,6C208.5,206.5,208.5,206.5,210.4,206.4 M186.2,191.4c2.8,1.2,5.4,2.5,8.2,3.5c2.8,1.1,5.6,1.7,8.7,1.4
				c0.8-0.1,1.3-0.4,1.8-1c-0.2-0.1-0.4-0.2-0.6-0.3c-2-0.9-4-1.9-6-2.8c-2.3-1.1-4.4-2.5-6.2-4.3c-0.7-0.7-1.5-1.3-2.2-1.9
				c-0.2-0.1-0.4-0.2-0.7-0.4C188.7,187.9,187.5,189.6,186.2,191.4 M214.1,325.2c-0.6,1.4-1.1,2.8-1.6,4.2c-0.2,0.5-0.1,1.2,0,1.8
				c0.2,0.9,0.7,1.7,1,2.5c0.4,1.1,0.3,2.2-0.4,3.1c-0.1,0.1-0.2,0.3-0.3,0.4c4.1,2.1,7.7,4.8,11.5,7.2
				C220.2,338.4,216.8,332,214.1,325.2 M191.5,128.9c-1.1,0.3-2.2,0.6-3.3,0.9c-2.4,0.6-4.9,1.3-7.3,1.9c-0.5,0.1-1,0.4-1.5,0.6
				c1.2,1.8,2.3,3.4,3.3,5c0.4-0.1,0.6-0.3,0.9-0.3c1.9-0.4,3.8-0.8,5.8-1.1c0.9-0.2,1.5-0.7,1.8-1.5
				C191.9,132.6,191.7,130.8,191.5,128.9 M178.9,187.8c1.7,0.9,3.4,1.7,5,2.6c0.2,0.1,0.4,0.2,0.7,0.2c0.2,0,0.4,0,0.5-0.1
				c1-1.5,2.1-2.9,2.5-4.7c0.5-2.1,0-3.8-1.8-5c-0.7-0.5-1.4-0.8-2.1-1.1c-0.4-0.2-0.6-0.1-0.8,0.3c-0.2,0.8-0.4,1.7-0.8,2.5
				C181.3,184.3,180.5,186.2,178.9,187.8 M206.7,131.8c2.7-1.4,5.3-2.7,7.9-4.1c0.1-0.1,0.2-0.3,0.2-0.4c-0.3-1.4-0.7-2.9-1-4.4
				c-0.7,0.4-1.4,0.8-2.1,1.2c-1.9,1.1-3.8,2.1-5.7,3.2c-0.2,0.1-0.4,0.5-0.4,0.6C205.8,129.2,206.2,130.4,206.7,131.8 M167.3,233.2
				c0.2,0,0.2,0,0.3-0.1c2.8-1.2,5.6-2.5,8.4-3.7c0.2-0.1,0.3-0.4,0.3-0.6c-0.1-1-0.2-1.9-0.4-2.8c-0.1-0.5-0.2-1-0.3-1.6
				c-0.1,0.1-0.2,0.1-0.2,0.2c-2,1.9-4.1,3.6-6.5,5.1c-0.2,0.1-0.3,0.3-0.4,0.4C168.1,231.1,167.7,232.1,167.3,233.2 M207.9,136.1
				c3-1.6,6-3.1,9-4.6c-0.6-0.9-1.1-1.8-1.7-2.6c-2.7,1.3-5.3,2.7-8.1,4C207.3,133.8,207.6,134.9,207.9,136.1 M196.5,182.7
				C196.6,182.7,196.6,182.7,196.5,182.7c0.1,0.3,0.1,0.6,0.1,0.9c0,0.7,0.2,0.9,0.9,0.9c0.5,0,1-0.1,1.4-0.2
				c0.3-0.1,0.6-0.4,0.7-0.7c0.5-1.6,0.7-3.2,0.5-4.8c-0.1-1.1-1-1.4-1.9-0.9c-0.2,0.1-0.4,0.2-0.6,0.2c-0.5,0-0.7,0.3-0.8,0.8
				C196.9,180,196.7,181.4,196.5,182.7 M216.2,103.7c0.1,0,0.1,0,0.2,0c0.3-0.7,0.5-1.4,0.8-2.2c-0.5,0-0.8,0.1-1.2,0.1
				c0,0.1,0,0.2,0,0.3C216,102.5,216.1,103.1,216.2,103.7"/>
			<path class="st2" d="M211.4,338.9c0.9,1.7,1.7,3.4,2.7,5c2.9,4.4,6.1,8.5,9.6,12.5c0.1,0.2,0.3,0.3,0.5,0.4
				c-0.6-0.9-1.2-1.8-1.8-2.7c-2.7-3.9-5.4-7.8-8.1-11.8c-0.7-1-1.2-2.1-1.7-3.1c-0.2-0.3-0.2-0.7-0.3-1c0.1,0,0.1-0.1,0.2-0.1
				c0.4,0.2,0.9,0.3,1.3,0.6c2.1,1.4,4.2,2.7,6.3,4.1c1.9,1.3,3.8,2.7,5.7,4.1c0.2,0.1,0.3,0.3,0.5,0.3c0.3,0,0.7,0.1,1-0.1
				c0.1-0.1,0.1-0.7,0-0.9c-0.5-0.9-1.1-1.7-1.7-2.5c-4.4-6.1-8-12.6-10.9-19.5c-0.6-1.4-0.8-3-1.2-4.5c-2.4-9.1-4.9-18.2-7.3-27.3
				c-1.9-7.1-3.7-14.3-5.5-21.4c-0.6-2.3-1-4.6-1.3-6.9c-0.2-1.3-0.8-2.2-2.1-2.7c-3.6-1.4-7.2-2.8-10.8-4.2
				c-0.2-0.1-0.4-0.2-0.6-0.4c0.2,0,0.5,0,0.7,0c7,0.3,14.1,0.7,21.1,1c7.8,0.3,15.6-0.3,23.3-1.8c0.2,0,0.5-0.1,0.7-0.1
				c0.1,1.2,0.3,2.4,0.4,3.6c0.9,5.8,1.8,11.7,2.8,17.5c2,12.1,4.1,24.1,6.1,36.2c0.7,4.4,1.4,8.7,1.1,13.2
				c-0.5,7.2-0.9,14.4-1.3,21.6c-0.5,7.3-0.8,14.7-0.3,22.1c0.7,10.3,2.3,20.4,5.6,30.3c1,3.1,2.1,6.2,3.2,9.3
				c0.2,0.7,0.4,1.5,0.5,2.3c0.2,3.5,0.3,6.9,0.5,10.4c0,0.2,0,0.4,0,0.7c-0.6-0.1-1.1-0.1-1.7-0.3c-1.8-0.5-3.6-1-5.4-1.5
				c-1.8-0.5-3.6-0.4-5.4,0.1c-3.3,0.9-6.2,2.3-9.2,3.8c-2,1-4,2-6,2.9c-1.2,0.6-2.7,0.8-3.9,0.7c-0.1-0.5-0.1-1.1-0.2-1.7
				c-0.2-1.9-0.4-3.9-0.6-5.8c-0.6-5.9-1.2-11.9-1.7-17.8c-1.1-11.5-1.8-23.1-3.3-34.5c-0.5-3.5-1.2-6.9-1.5-10.4
				c-0.3-2.8-0.4-5.6-0.4-8.5c0-3.2,0.2-6.4,0.3-9.6C211,339.8,210.9,339.2,211.4,338.9"/>
			<path class="st2" d="M168.2,255.7c1.7,0.1,3.3,0.3,4.9,0.4c2.8,0.2,5.5,0.3,8.3,0.5c0.5,0,0.9,0.1,1.3,0.4
				c0.4,0.3,0.9,0.5,1.4,0.7c3.6,1.4,7.1,2.9,10.7,4.3c0.7,0.3,1.5,0.6,2.1,1c0.3,0.2,0.7,0.6,0.8,1c0.9,4.3,1.8,8.6,2.7,12.9
				c0.1,0.5,0.1,1.1,0,1.6c-1.4,8.3-2.7,16.6-4.1,24.8c-1.1,6.6-2.4,13.2-3.5,19.8c-0.1,0.6-0.1,1.2-0.2,1.8
				c-0.1,1.2-0.1,2.4,0.8,3.5c-0.3,0-0.6,0-0.8,0c-3.7,0-7.4-0.6-11-1.2c-2.6-0.4-5.1-0.9-7.7-1.4c-0.5-0.1-1-0.1-1.5-0.1
				c-0.9,0.1-1.3,0.9-0.8,1.6c0.2,0.4,0.6,0.8,1,1.1c2.4,2,5.2,3.5,8,4.9c1.6,0.8,3.3,1.5,4.9,2.2c0.3,0.1,0.6,0.3,1,0.5
				c-0.3,0.2-0.6,0.4-0.8,0.6c-1.9,1.1-3.7,2.2-5.6,3.3c-0.5,0.3-0.9,0.7-1.3,1.1c-0.6,0.8-0.4,1.5,0.5,1.7c1.2,0.2,2.4,0.4,3.6,0.5
				c0.2,0,0.5,0,0.7-0.2c-1.4-0.4-2.7-0.8-4.1-1.1c0-0.1,0-0.1-0.1-0.2c0.4-0.3,0.7-0.6,1.1-0.9c1.8-1.1,3.7-2.2,5.5-3.3
				c0.4-0.2,0.8-0.5,1.1-0.8c0.6-0.6,0.5-1.2-0.2-1.7c-0.4-0.3-0.9-0.5-1.4-0.7c-4.1-1.7-8-3.8-11.6-6.4c-0.4-0.3-0.7-0.6-0.9-1
				c0.3,0,0.6,0,0.8,0.1c3.9,0.6,7.8,1.3,11.6,1.9c2.8,0.4,5.6,0.7,8.4,0.3c0.5-0.1,0.6,0.2,0.5,0.5c-0.1,0.4-0.3,0.9-0.5,1.3
				c-0.3,0.5-0.7,1-1.1,1.5c-0.8,1.1-0.6,2,0.5,2.8c0.2,0.1,0.4,0.2,0.6,0.3c1.1,0.5,1.5,1.3,1.7,2.5c0.5,4.1,0.4,8.2,0.3,12.3
				c-0.2,11-0.6,22-0.7,33c-0.1,8.7,0.3,17.3,0.9,25.9c0.1,1.6,0.5,3.3,0.7,4.9c0.3,2.6,0.5,5.2,0.8,7.9c0.2,2.2,0.3,4.4,0.5,6.5
				c0.1,0.6-0.1,0.8-0.7,0.9c-4.1,0.5-8-0.1-11.2-3c-1.7-1.5-3.4-2.9-5.1-4.4c-3.3-3.1-7.3-4.5-11.8-4.3c-0.4,0-0.8,0-1.3,0
				c0.1-0.8,0.2-1.5,0.3-2.2c0.2-1.3,0.5-2.7,0.5-4c0.3-8.4,0.5-16.8,0.7-25.2c0.2-8.1-0.5-16.2-1.3-24.3
				c-0.8-7.8-1.6-15.7-2.4-23.5c-0.5-5.1-1.3-10.1-1.7-15.2c-0.3-3.3-0.1-6.5-0.1-9.8c0.1-4.9,0.1-9.9,0.4-14.8
				c0.4-8.2,0.8-16.4,1.5-24.6c0.5-6,1.4-11.9,2.2-17.9C168.1,256.1,168.1,255.9,168.2,255.7 M181,356.2c0.1-0.1,0.2-0.2,0.3-0.3
				c3.1-3.6,6.1-7.2,8.7-11.2c1-1.5,1.8-3.1,2.2-4.9c0.1-0.4,0.1-0.7,0.1-1.1C189.3,345.1,184.4,350.2,181,356.2"/>
			<path class="st3" d="M237.8,157c-0.4,0.3-0.9,0.5-1.2,0.9c-1,1.4-2,2.9-2.8,4.4c-2,3.6-3.6,7.5-4.9,11.4
				c-0.1,0.2-0.1,0.4-0.3,0.6c0.2-1.6,0.4-3.3,0.6-4.9c0.2-1.6,0.5-3.2,0.6-4.7c0.1-0.7,0-1.5-0.2-2.2c-0.3-1.2-0.3-2.3,0.2-3.3
				c1.4-2.8,2.8-5.7,4.2-8.4c1.8-3.4,3.7-6.9,5.5-10.3c0.3-0.5,0.4-1.1,0.6-1.7l-0.2-0.1c-0.2,0.2-0.4,0.3-0.5,0.5
				c-3.4,5.2-6.6,10.4-9.3,16c-0.8,1.6-1.3,3.3-1.9,4.8c-1.1-4.4-2.2-9-3.3-13.7c-0.1,0-0.2,0-0.3,0c-0.1,0.2-0.2,0.5-0.1,0.7
				c0.1,1.1,0.2,2.2,0.4,3.3c0.9,3.7,1.9,7.3,2.9,11c0,0,0,0.1,0,0.1c0.7,1.2,0.4,2.4,0.2,3.7c-0.5,3.3-0.9,6.6-1.4,9.8
				c-0.4,2.5-0.8,5.1-1.3,7.6c-0.1,0.4-0.2,0.6-0.6,0.7c-2.3,1-4.7,2.1-7,3.2c-1.7,0.8-2.8,2.2-3.2,4.1c-0.2,0.8-0.4,1.6-0.6,2.4
				c-0.1,0.4-0.2,0.5-0.6,0.5c-2.3,0-4.5,0.3-6.6,1.2c-0.2,0.1-0.6,0-0.8-0.1c-2.3-1-4.6-2.1-6.9-3.1c-0.3-0.2-0.5-0.3-0.5-0.7
				c0-1.4,0.1-2.8,0.1-4.3c0-0.4,0.1-0.6,0.5-0.7c1-0.2,1.5-0.9,1.8-1.8c0.4-1.7,0.6-3.4,0.4-5.2c-0.1-1.2-0.8-1.9-2-2.1
				c1.2-1.9,0.8-4,1.3-5.9c1.1-4.3,2.3-8.6,3.3-12.9c1.2-5,2.3-9.9,3.5-14.9c0.1-0.4,0.1-0.9,0.2-1.3c0.1-1.4,0.1-2.7,0.2-4.1
				c0-0.2,0.2-0.4,0.3-0.4c3.4-1.1,6.4-3,9.5-4.5c0.2-0.1,0.5-0.2,0.7-0.2c1.5,0.1,3,0.4,4.5,0.4c4.9,0.1,9.9,0.1,14.8,0.2
				c1.5,0,3,0.3,4.6,0.5c0.5,0.1,0.8,0.3,1,0.8c0.8,1.8,1.5,3.7,2.3,5.4c0.4,0.8,0.9,1.6,1.4,2.3c0.3,0.5,0.5,0.9,0.4,1.5
				c-0.2,2-0.5,3.9-0.7,5.9c-0.5,5.3-1.5,10.6-2.5,15.8c-1.2,6.4-1.5,12.8-1.4,19.3c0,5,0.3,10,0.4,15.1c0.1,2.7,0.1,5.4-0.6,8.1
				c-0.9,3.6-2.7,6.7-5.4,9.3c-1,0.9-2.3,1.5-3.5,2.2c-0.2,0.1-0.4,0-0.6,0c-9-2.7-18-5.1-27.2-7.3c-2.2-0.5-4.4-1.1-6.6-1.7
				c1.3-0.4,2.5-1,3.9-1.1c1.1,0,2.2-0.1,3.2-0.4c0.8-0.3,1.6-0.3,2.5-0.3c3.3,0,6.5-0.5,9.6-1.9c0.1-0.1,0.3-0.1,0.4-0.1
				c0.7,0.3,1.3-0.1,1.9-0.4c1-0.5,2-1,3.1-1.6c-0.3,2.5-0.8,4.9-0.5,7.3c0.1,0,0.2,0,0.3,0.1c0.2-0.8,0.5-1.5,0.6-2.3
				c0.3-2.2,0.6-4.3,0.9-6.5c0.1-0.5,0.2-1.1,0.5-1.6c0.1,0.3,0.2,0.5,0.3,0.8c0.8,2.6,1.7,5.2,2.6,7.8c0.2,0.5,0.3,1.1,1,0.8
				c0.6-0.3,0.2-0.9,0.1-1.3c-1.6-4.1-2.8-8.3-3.7-12.6c-0.6-3.2-0.2-6.3,0.4-9.4c0.5-2.8,0.9-5.5,1.6-8.3c0.5-2.1,1.3-4.2,2.1-6.2
				c1.8-4.7,3.8-9.2,6.6-13.4c0.5-0.7,1-1.4,1.5-2.1C237.9,157.1,237.9,157,237.8,157 M220.6,158.1c0.1,0,0.2,0,0.2,0
				c0-1.2,0-2.5,0-3.7c0-1-0.5-1.4-1.5-1.3c-1.1,0.1-2.1,0.3-3.2,0.4c-1.9,0.2-3.8,0.2-5.7,0.4c-1.3,0.1-1.5,0.5-1.3,1.8
				c0.1,0.8,0.2,1.6,0.2,2.5c0,1.5,0,3,0,4.5c0,1,0.3,1.9,1.2,2.5c1.3,0.9,2.5,1.7,3.9,2.5c1.2,0.7,1.5,0.7,2.4-0.4
				c1.2-1.4,2.4-3,3.5-4.5c0.3-0.4,0.4-0.8,0.4-1.3C220.7,160.4,220.6,159.2,220.6,158.1 M234.1,173.2c-2.1,2.3-4.2,4.7-5.7,7.5
				C230.6,178.4,232.5,175.9,234.1,173.2"/>
			<path class="st4" d="M215.7,100.2c-0.5-1.6-0.9-3.2-1.3-4.7c-0.2-0.5-0.4-1-0.7-1.4c-0.2-0.3-0.6-0.5-0.9-0.7
				c-0.1,0.4-0.3,0.8-0.4,1.2c0,0.5,0.1,1,0.3,1.4c0.8,2.7,1.5,5.4,1.8,8.2c0.2,2.5,0,4.9-0.9,7.1c-0.5,1.2-1.3,2.4-2.2,3.4
				c-5.4,6.1-12.2,9.3-20.3,9.3c-0.6,0-1.1-0.1-1.7-0.2c-0.8-0.1-1.4-0.5-1.9-1.2c-2-2.9-3.9-5.8-5.9-8.6c-1.3-1.9-1.8-4.2-2.3-6.4
				c-0.7-2.8-1.6-5.6-2.4-8.4c-0.2-0.5-0.5-1-0.7-1.5c-0.9-1.7-1.6-3.4-2.1-5.3c-0.5-1.7-1.1-3.4-1.6-5.1c-0.1-0.3,0-0.7,0.1-0.8
				c0.9-0.9,1.8-1.8,2.8-2.7c0.2-0.2,0.5-0.2,0.8-0.2c0.8,0.1,1.6,0.1,2.3,0.3c3.8,0.9,7.3,0.2,10.5-2c2.8-1.9,6-3,9.2-3.9
				c2-0.5,3.7,0.1,5.1,1.6c1.8,1.8,2.7,4,2.6,6.6c0,1.6,0,3.1,0.2,4.7c0.1,1.4,0.8,2.1,2.2,2.3c0.6,0.1,1.3,0.2,2,0.1
				c1.4-0.1,2.2-1,2.2-2.4c0-0.4,0-0.7-0.1-1.1c-0.1-2.4,0.6-4.3,2.6-5.6c0.6-0.4,1.1-0.4,1.8-0.2c1,0.4,1.7,1.2,2,2.2
				c0.7,1.9,0.8,3.8,0.7,5.8c-0.1,1.2-0.3,2.3-0.3,3.5c0,0.5,0,1,0.1,1.5c0.1,0.8-0.4,2-1.3,2.5c-0.2,0.1-0.5,0.3-0.7,0.4
				C216.7,99.9,216.2,100,215.7,100.2 M188.9,104c-0.2,0.5-0.5,1.1-0.7,1.8c-0.2,0.6-0.4,1.2-0.3,1.8c0.4,2.5,2.9,3.6,5.2,2.4
				c0.2-0.1,0.3-0.3,0.4-0.4c-0.1-0.1-0.3-0.4-0.5-0.4c-0.8-0.2-1.5-0.3-2.3-0.4c-0.9-0.1-1.5-1.2-1.2-2.1c0.4-0.9,0.8-1.9,1-2.9
				c0.4-2,0.2-4-1.3-5.6c-1.4-1.5-3.1-2.5-5.1-2.8c-3-0.5-5.3,1.7-4.9,4.7c0.3,2.6,2.6,4.6,5.3,4.6C186,104.5,187.4,104.2,188.9,104
				 M198.7,99.6c0.3,0,0.6,0,0.9-0.1c2.7-0.3,4.7-1.5,5.6-4.1c0.7-2-0.2-4-2.1-4.8c-1.2-0.5-2.4-0.5-3.6-0.3c-2.4,0.6-4.4,1.7-5,4.4
				c-0.5,2.2,0.4,4.7,3.3,4.8C198.1,99.6,198.4,99.6,198.7,99.6 M194.7,118l0-0.2c2.3-0.1,4.5-0.6,6.5-1.8c2-1.2,3.3-3,3.7-5.4
				c0.1-0.7-0.2-1.3-0.7-1.8c-0.5-0.5-1,0-1.5,0.3c-0.3,0.2-0.6,0.3-0.9,0.4c-2.7,1-5.4,1.9-8,3c-1.7,0.6-3.3,1.4-4.9,2.2
				c-0.6,0.3-0.8,0.9-0.2,1.2c0.7,0.5,1.4,1,2.2,1.2C192.1,117.5,193.4,117.7,194.7,118 M201.1,88.4c0.5,0,0.9-0.1,1-0.6
				c0.1-0.5-0.2-0.8-0.6-1c-0.3-0.1-0.5-0.1-0.8-0.1c-3.1-0.1-5.7,1-8.1,2.9c-0.2,0.2-0.4,0.4-0.5,0.7c-0.1,0.2,0,0.5,0.2,0.7
				c0.1,0.1,0.5,0.1,0.7,0.1c0.1,0,0.3-0.2,0.4-0.3C195.7,89.1,198.2,88,201.1,88.4 M182.3,90.9c-1.8,0-4.4,2.1-4.7,3.6
				c0,0.3,0.2,0.7,0.4,0.9c0.2,0.1,0.7,0,0.9-0.1c0.3-0.2,0.5-0.6,0.7-0.9c1.3-1.8,2-2,4.1-1.3c0.1,0,0.2,0.1,0.2,0.1
				c0.6,0.1,1.3,0.3,1.9,0.4c0.2,0,0.5-0.3,0.7-0.4c-0.2-0.2-0.3-0.5-0.5-0.6c-0.7-0.4-1.5-0.8-2.3-1.1
				C183.2,91.2,182.6,91,182.3,90.9 M216.7,86.1c0-0.1-0.1-0.1-0.1-0.2c-1.1,0.2-1.9,0.9-2.4,1.9c-0.7,1.3-1,2.7-0.5,4.2
				c0.1,0.4,0.2,0.7,0.7,0.7c1.2,0.2,1.5,0.6,1.5,1.9c0,0.3-0.1,0.5,0,0.8c0.1,0.3,0.2,0.7,0.5,0.8c0.4,0.2,0.7-0.1,0.8-0.5
				c0.7-1.6-0.2-3.5-1.9-3.8c-0.5-0.1-0.6-0.3-0.6-0.7c-0.1-1.3,0.3-2.4,1-3.5C215.9,87.1,216.3,86.6,216.7,86.1"/>
			<path class="st3" d="M196.2,247c0-0.5,0-0.9-0.1-1.3c-0.2-8.4,0.4-16.8,1.7-25.1c0.4-3,0.7-6,1-9.1c0-0.2,0-0.4,0.1-0.5
				c0.1,0,0.1,0,0.2,0c6.3,1.8,12.6,3.6,18.8,5.3c4.5,1.3,9,2.5,13.4,3.8c0.5,0.1,0.6,0.3,0.6,0.8c-0.1,2.7-0.2,5.4,0.3,8.1
				c0.3,1.3,0.8,2.6,1,3.9c0.6,3.3,0.7,6.7,0.7,10c0,0.8,0,1.7,0,2.5c0,0.6-0.3,0.8-0.8,0.9c-0.6,0.1-1.2,0.1-1.8,0.2
				c-9,0.2-18.1,0.3-27.1,0.4c-2.5,0-4.9,0.1-7.4,0.2C196.6,247,196.5,247,196.2,247 M224.8,242.8c1.6-0.4,3.2-1.1,4.6-2.3
				c0.4-0.4,0.3-0.8,0-1.2c-0.4-0.4-0.8-0.7-1.1-1c-2.2-2.2-4.1-4.8-6-7.3c-1.4-1.9-2.7-3.7-3.6-5.9c-0.1-0.3-0.3-0.6-0.5-0.9
				c-0.3-0.5-0.8-0.7-1.4-0.4c-1.3,0.6-2.4,1.4-3.3,2.5c-0.4,0.5-0.4,1,0,1.6c0.4,0.6,0.9,1.2,1.3,1.7c1.3,1.5,2.6,3,3.8,4.5
				c1.9,2.3,3.5,4.8,4.7,7.5C223.5,242.3,223.8,242.8,224.8,242.8"/>
			<path class="st3" d="M197.7,185.9c-0.1,1.4-0.1,2.9-0.2,4.4c-0.3-0.1-0.5-0.2-0.7-0.3c-1.5-1.1-3-2.3-4.5-3.4
				c-0.9-0.6-1.8-1.2-2.7-1.8c-0.2-0.1-0.4-0.4-0.4-0.5c0-2.1-1.2-3.5-2.8-4.7c-0.6-0.4-1.3-0.7-1.9-1c-1.5-0.6-1.8-0.4-2.7,0.9
				c0-0.5,0-0.9,0-1.4c0-2.7-0.9-5-2.8-6.8c-1.5-1.4-3.1-2.6-4.7-3.9c-0.3-0.2-0.4-0.4-0.5-0.8c-0.6-3-1.1-6.1-1.8-9.1
				c-1-4.1-2.1-8.1-3.2-12.1c-0.1-0.5-0.3-0.9-0.5-1.4c-0.1-0.2-0.4-0.2-0.5-0.3c-0.1,0.2-0.3,0.4-0.2,0.6c0,0.4,0.1,0.8,0.2,1.2
				c1.1,4.6,2.3,9.2,3.4,13.7c0.1,0.2,0.1,0.4,0,0.7c-0.7-0.8-1.4-1.7-2.1-2.5c-0.7-0.8-1.4-1.7-2.6-2.2c0.1,0.2,0.2,0.5,0.3,0.7
				c1.3,1.9,2.8,3.7,4.7,5.1c0.1,0.1,0.2,0.2,0.2,0.3c0.4,1.7,0.8,3.3,1.2,5.2c-0.6-0.3-1.1-0.6-1.6-0.9c-0.2-0.1-0.4-0.2-0.7-0.3
				c-1.6-0.7-2.9,0.1-2.9,1.9c0,0.1,0,0.2,0,0.3c-2.9-0.7-5.7-1.3-8.8-1.1c0.1-0.2,0.1-0.4,0.1-0.6c0.3-0.9,0.5-1.9,0.8-2.8
				c0.3-0.9,0.3-1.9,1.1-2.7c0.2-0.2,0.3-0.6,0.4-0.9c1.9-4.8,2.9-9.7,3.5-14.8c0.2-1.5,0.4-2.9,0.7-4.4c0.1-0.6,0.4-0.8,1-0.9
				c3.6-0.7,7.2-1.4,10.8-2.1c0.9-0.2,1.7-0.5,2.5-0.7c0.2,0,0.5,0,0.6,0.1c3.1,4.8,6.6,9.3,8.8,14.5c1.1,2.5,1.9,5.1,2.7,7.7
				c1.4,4.5,2.8,9,4.1,13.5c0.4,1.3,0.6,2.6,0.9,3.9c0,0.2-0.1,0.4-0.2,0.6c-0.3,0.5-0.8,1-0.8,1.5c-0.3,1.6-0.5,3.2-0.5,4.9
				C195.1,185.1,195.7,185.7,197.7,185.9 M184.7,155.9c0-0.5-0.4-0.7-0.9-0.5c-0.5,0.3-1,0.7-1.6,1c-2.5,1.4-4.8,0.4-6.4-1.5
				c-0.1-0.1-0.2-0.3-0.3-0.4c-0.3-0.2-0.6-0.4-0.8-0.4c-0.4,0.1-0.4,0.6-0.2,0.9c0.5,0.9,1,1.9,1.5,2.8c1,1.5,2.5,2.6,3.9,3.8
				c0.1,0.1,0.3,0.2,0.5,0.3c0.9,0.4,1.6,0.3,2.1-0.5C183.8,159.8,184.2,157.8,184.7,155.9C184.7,156,184.7,155.9,184.7,155.9"/>
			<path class="st3" d="M169.5,227.6c0.1-0.3,0.1-0.4,0.1-0.6c1.6-4.8,2.9-9.6,4-14.6c0.1-0.5,0.3-0.7,0.9-0.7
				c5.3-0.3,10.7-0.7,16-0.6c2.3,0.1,4.5-0.1,6.7-0.7c0.1,0,0.2,0,0.4-0.1c0,0.3,0,0.5-0.1,0.8c-0.7,5.2-1.4,10.5-2.2,15.7
				c-0.9,6.3-1,12.6-0.9,19c0,0.4,0.1,0.8,0.1,1.2c-0.2,0-0.3,0.1-0.5,0.1c-4.5,0-9,0.1-13.5,0.1c-3.5,0-7.1-0.1-10.5-0.8
				c-1.4-0.3-2.7-0.8-4.1-1.3c-0.3-0.1-0.6-0.4-0.8-0.7c-0.6-0.9-1.1-1.8-1.5-2.8c-0.1-0.2-0.1-0.6,0-0.8c0.8-1.8,1.7-3.6,2.5-5.4
				c0.2-0.3,0.5-0.6,0.8-0.7c3.3-1.4,6.5-2.8,9.8-4.2c0.6-0.3,0.9-0.7,0.8-1.4c-0.2-1.9-0.5-3.7-0.8-5.6c-0.2-1.1-1-1.3-1.9-0.6
				c-1.6,1.3-3.2,2.7-4.7,4C170.1,227.2,169.8,227.3,169.5,227.6"/>
			<path class="st3" d="M155.7,183.7c1.9,1.1,3.7,2.3,5.6,3.4c0.5,0.3,1.2,0.5,1.8,0.5c1.4,0.1,2.7,0.1,4.1,0.2
				c0.2,0,0.5,0.1,0.9,0.2c-2.1,0.6-4.1,1.1-6,1.8c-1.9,0.7-3.7,1.6-5.6,2.4c0,0.1,0.1,0.2,0.1,0.3c3.1-0.5,6.1-1.2,9.2-1.9
				c-0.1,0.2-0.3,0.3-0.4,0.5c-2.9,3.3-5,6.9-6.2,11.1c0,0.1-0.1,0.2-0.1,0.3c0.1,0.3,0.2,0.5,0.3,0.8c0.2-0.2,0.5-0.3,0.6-0.5
				c0.7-1.3,1.3-2.6,1.9-3.9c0.8-1.5,1.7-3.1,2.5-4.6c0,0-0.1-0.1-0.1-0.1l-1,1.3c0,0-0.1,0-0.1,0c0-0.1,0.1-0.2,0.1-0.3
				c1.1-1.6,2.2-3.2,3.5-4.7c0.4-0.4,1.2-0.5,1.9-0.7c-0.8,2.4-1.6,4.7-2.4,7.1c0.1,0,0.1,0.1,0.2,0.1c0.3-0.7,0.6-1.3,0.8-2
				c0.6-1.5,1.1-3.1,1.6-4.6c0.1-0.2,0.3-0.6,0.5-0.6c2.2-0.4,4.4-0.7,6.7-0.6c1.2,0.1,2.3,0.6,3.4,1.1c4,1.9,7.9,3.8,12,5.6
				c2.7,1.2,5.5,2,8.4,2c1,0,2-0.1,3-0.2c0,1.4,0.7,2.7,1.3,4c0.6,1.4,1.3,2.8,1.9,4.2c0.1,0.2,0.2,0.4,0.3,0.8
				c-0.9,0.1-1.7,0.4-2.5,0.4c-1.5,0-2.9,0.3-4.2,0.8c-3.2,1.1-6.5,1.7-9.8,1.6c-6.5-0.2-13,0.5-19.5,0.8c-3.9,0.2-7.8,0.5-11.7,0.8
				c-1.1,0.1-2.3,0-3.4,0c-1.2,0-1.8-0.7-2.3-1.7c-1.3-2.8-1.9-5.7-1.2-8.8c0.9-3.8,1.8-7.7,2.7-11.5
				C155.1,187.2,155.4,185.5,155.7,183.7 M195.4,206.5c-0.1,0.1-0.1,0.1-0.2,0.2c-0.6-0.2-1.2-0.3-1.7-0.6c-2.6-1.2-4.7-3-6.5-5.1
				c-0.1-0.1-0.2-0.3-0.3-0.4c-0.2-0.1-0.4-0.1-0.5-0.2c0,0.2-0.1,0.4,0,0.6c0.1,0.3,0.3,0.5,0.4,0.8c1.8,2.4,4.2,4.2,7,5.4
				c0.4,0.2,0.9,0.3,1.4,0.3c1,0.1,1.5-0.5,1.3-1.4c-0.1-0.4-0.3-0.8-0.4-1.3c-0.4-1.6-0.8-3.1-1.2-4.7c-0.1-0.4,0-0.9,0-1.4
				c0.1,0,0.1,0,0.2,0c1.3,2,2.3,4.1,4,5.8c-1.1-2.1-2.3-4.1-3.6-6.1c0-0.1-0.1-0.1-0.2-0.2c-0.4-0.4-0.8-0.3-1,0.2
				c-0.1,0.3-0.1,0.7-0.1,1c0,2,0.5,4,1.1,5.9C195.2,205.6,195.3,206.1,195.4,206.5"/>
			<path class="st5" d="M171.5,85.2c-0.1-0.3-0.3-0.4-0.3-0.6c-0.5-1.6-1-3.2-1.3-4.8c-0.3-1.4,0.1-2.8,0.9-4c1.9-2.8,4.2-5,7.1-6.7
				c6-3.5,12.5-4.7,19.3-3.9c3.3,0.4,6.7,0.9,9.9,1.8c6.7,2,10,9.2,9.8,14.4c0,0.4-0.1,0.6-0.6,0.6c-1.6-0.1-2.8,0.7-3.8,1.8
				c-0.4,0.5-0.9,1-1.2,1.5c-0.7,1-0.9,2.1-0.7,3.3c0.1,0.6,0.1,1.3,0.2,1.9c0,0.6-0.3,0.9-0.9,0.9c0,0,0,0-0.1,0
				c-1.8,0.1-2.2-0.2-2.3-2c-0.1-1.2-0.1-2.4,0-3.6c0.1-2.9-1-5.4-3-7.5c-2-2.1-4.4-2.8-7.3-2c-2.6,0.8-5.2,1.6-7.7,2.9
				c-0.3,0.2-0.7,0.4-1,0.6c-2.8,2.2-6,3-9.6,2.3c-1.3-0.3-2.6-0.3-4-0.4c-0.8,0-1.3,0.5-1.7,1.1C172.8,83.6,172.2,84.4,171.5,85.2"
				/>
			<path class="st4" d="M154.8,180.8c1.6,0.3,3.1,0.5,4.6,0.8c1.5,0.3,2.9,0.6,4.4,1c0.5,0.1,0.9,0.4,1.4,0.7c0.3,0.2,0.6,0.4,1,0.1
				c0.3-0.3,0.3-0.6,0.1-1c-0.4-0.7-1.1-1-1.8-1.2c-3.2-0.6-6.4-1.3-9.6-1.9c-0.6-0.1-1.2-0.3-1.8-0.5c-0.7-0.3-1.1-0.9-1.2-1.7
				c0-0.4,0.1-0.6,0.5-0.7c0.3,0,0.7,0,1,0c1.2,0.1,2.3,0.4,3.5,0.3c2.5-0.1,4.9,0.3,7.3,1c1,0.3,1.8,0.7,2.5,1.5
				c0.3,0.4,0.7,0.6,1.2,0.2c0.4-0.4,0.2-0.8-0.1-1.2c-0.8-1-2-1.5-3.2-1.9c-2.4-0.7-4.9-1.2-7.5-1c-1.6,0.1-3.2-0.1-4.6-0.9
				c-0.8-0.4-0.9-0.8-0.5-1.6c0.1-0.2,0.2-0.4,0.3-0.5c1.3-0.8,2.6-1.2,4.1-0.9c0.8,0.2,1.6,0.2,2.3,0.4c2.8,0.7,5.6,1.4,8.3,2.1
				c0.4,0.1,0.9,0.2,1.3,0.3c0.4,0.1,0.9,0,1-0.5c0.1-0.5-0.2-0.8-0.7-0.9c-3.7-1-7.3-2.3-11.1-2.7c-0.4,0-0.9-0.1-1.1-0.6
				c-0.2-0.8-0.2-1,0.6-1.3c1.3-0.6,2.6-0.7,4-0.6c4.3,0.2,8.3,1.3,11.6,4.1c0.4,0.3,0.8,0.5,1.2,0.7c0.2,0.1,0.4,0,0.6-0.1
				c0.1-0.1,0.1-0.4,0-0.5c-0.1-0.3-0.3-0.5-0.5-0.7c-1.2-1.1-2.5-2.3-3.7-3.4c-0.2-0.2-0.5-0.4-0.7-0.7c-0.1-0.2-0.1-0.4-0.1-0.7
				c0.2,0,0.5-0.1,0.6,0c0.7,0.4,1.5,0.8,2.2,1.2c2.2,1.3,4.3,2.9,6.1,4.8c1.5,1.6,2.2,3.4,2.3,5.5c0.1,1.2,0.2,2.4,0.2,3.6
				c0,0.3-0.1,0.6-0.2,0.8c-0.8,1.6-1.7,3.1-2.5,4.6c-0.1,0.2-0.4,0.3-0.6,0.3c-1.8,0-3.5,0.1-5.3,0c-0.5,0-1,0-1.5-0.1
				c-2.4-0.9-4.9-1.2-7.4-1.1c-0.4,0-0.9-0.2-1.3-0.4c-1.3-0.7-2.7-1.5-4-2.3c-1-0.6-1.8-1.4-2.8-2.1
				C155.1,181.2,155,181.1,154.8,180.8"/>
			<path class="st6" d="M206.2,140.9c-0.2,1.2-0.4,2.5-0.7,3.7c-1.7,6.8-3.4,13.6-5.1,20.3c-0.7,2.8-1.2,5.6-1.9,8.3
				c-0.1,0.2-0.1,0.5-0.3,0.7c-0.1-0.2-0.1-0.3-0.2-0.5c-1.9-6.4-3.8-12.7-5.8-19.1c-1.4-4.4-3.7-8.3-6.2-12.1
				c-0.8-1.1-1.5-2.3-2.3-3.5c-0.1-0.1-0.1-0.3-0.2-0.3c2.1-0.5,4.2-1,6.4-1.5c-0.1-0.1,0,0,0,0c0.7,2.6,2.8,3.7,5.1,4.3
				c2.4,0.6,5,0.7,7.5,0.5c0.7-0.1,1.5-0.4,2.2-0.6c0.4-0.1,0.8-0.3,1.2-0.4L206.2,140.9z"/>
			<path class="st7" d="M260.5,434.7c-0.8,0-1.5,0-2.2,0c-2.1,0-4,0.8-5.5,2.2c-0.8,0.8-1.7,1.5-2.5,2.4c-1.5,1.6-3.3,2.4-5.5,2.6
				c-6.6,0.7-12.8-0.5-18.7-3.7c-1.9-1.1-3.2-2.8-4.4-4.6c-0.6-0.9-1-2-1.5-3.1c2.2-0.2,3.9-1.2,5.7-2c0.2-0.1,0.5,0,0.7,0.2
				c1.6,1.3,3.3,2.4,5.2,3.4c2.9,1.4,5.8,1.7,8.7,0.4c2.2-1,4.4-2.1,6.5-3.2c1.7-0.8,3.4-1.6,5.4-1.3c0.4,0.1,0.9,0.2,1.2,0.4
				c2.4,1.7,4.7,3.7,6.6,5.9c0.1,0.1,0.2,0.2,0.3,0.4C260.5,434.6,260.5,434.7,260.5,434.7"/>
			<path class="st7" d="M151.7,431.4c1.5-0.8,2.9-1.5,4.4-2.3c0.2,1.4,1.2,2.1,2.2,2.8c3.2,2.1,6.7,2.4,10.2,1.3
				c2.6-0.8,5.1-2,7.6-3c2.2-0.9,4.3-1.8,6.7-2.1c1.1-0.1,2.1,0,3,0.8c0.7,0.6,1.5,0.9,2.2,1.5c1.3,0.9,2.7,0.7,4.1,0.9
				c0.4,0.1,0.7,0.1,1.3,0.2c-0.5,1.1-0.9,2.1-1.4,3.1c-0.2,0.5-0.5,1-1.3,1c-0.5,0-1.1,0.4-1.7,0.6c-4.8,2.1-9.8,3.7-15,4.2
				c-2.7,0.2-5.5,0.3-8.2,0c-2.9-0.3-5.4-1.7-7.6-3.7c-0.7-0.6-1.3-1.2-1.9-1.8C155,433.5,153.6,432.2,151.7,431.4"/>
			<path class="st7" d="M232.6,248.2c0.2,1.7,0.5,3.5,0.7,5.3c0,0.1-0.3,0.4-0.4,0.4c-8.4,1.6-16.9,2.5-25.4,2.1
				c-3.6-0.2-7.2-0.3-10.8-0.5c-0.2,0-0.4,0-0.7-0.1c-0.1-2.1-0.2-4.2-0.3-6.3c0-0.4,0.2-0.4,0.5-0.4c2.1,0,4.3-0.1,6.4-0.1
				c6.3-0.1,12.7-0.3,19-0.4C225.2,248.1,228.8,248.2,232.6,248.2"/>
			<path class="st8" d="M189.8,437.8c-0.6,0.4-1.2,0.8-1.8,1.2c-8,5-16.8,6.9-26.1,6.7c-4.3-0.1-8.6-0.4-12.8-1.7
				c-1.7-0.5-3.4-1.2-4.8-2.4c-1.5-1.2-2.4-2.8-2.4-4.8c0-1,0.4-1.7,1.3-2.1c1.9-0.8,3.8-1.7,5.8-2.3c0.6-0.2,1.4,0,2,0.3
				c1,0.5,1.9,1.2,2.8,1.9c1.6,1.4,3.1,3,4.8,4.3c2.6,2,5.5,3,8.8,3.2c7.6,0.4,14.8-1.2,21.7-4.3c0.2-0.1,0.3-0.1,0.5-0.2
				C189.8,437.7,189.8,437.8,189.8,437.8"/>
			<path class="st4" d="M192.5,125.6c7-0.4,13.1-3,18.1-7.8c0.1,1.7,0.2,3.3,0.4,5.1c-1.3,0.7-2.7,1.4-4.1,2.1
				c-0.7,0.4-1.5,0.7-2.2,1.2c-1,0.6-1.2,1.1-0.8,2.2c0.5,1.5,1,3,1.5,4.5c0.6,1.7,0.9,3.4,0.8,5.2c0,0.5-0.2,0.7-0.7,0.9
				c-3.2,1.6-6.6,1.2-9.9,0.6c-0.9-0.1-1.7-0.6-2.5-1c-0.5-0.3-0.9-0.8-1.2-1.2c-0.3-0.4-0.3-0.8,0.1-1.3c0.9-1.1,1.2-2.4,1.2-3.8
				c0.1-2.1-0.2-4.1-0.6-6.1C192.6,126.1,192.6,125.9,192.5,125.6"/>
			<path class="st8" d="M183.2,426.7c-3.5,0.1-6.6,1.5-9.6,2.9c-2.3,1-4.6,2-7.1,2.4c-3,0.4-5.8-0.2-8.1-2.3c-0.3-0.3-0.6-0.6-0.8-1
				c-0.1-0.1,0.1-0.5,0.2-0.6c2.4-1.9,4.9-3.9,7.4-5.8c0.9-0.7,1.9-1.4,2.8-2.1c0.2-0.1,0.5-0.3,0.8-0.3c4.1-0.2,7.8,0.8,10.9,3.7
				C180.8,424.6,182,425.6,183.2,426.7"/>
			<path class="st7" d="M194.6,255.4c-2.1,0.4-28.8-1.6-30.4-2.2c0.3-2.2,0.6-4.4,1-6.6c0,0,0.1,0,0.2,0c2.8,1.3,5.9,1.8,9,2
				c6.4,0.5,12.9,0.2,19.3,0.2c0.3,0,0.5,0,0.7,0C194.4,251,194.5,253.2,194.6,255.4"/>
			<path class="st4" d="M219.5,204.7c-0.7-2.5-1.7-4.8-2.8-7.1c-0.4-0.9-0.6-1.9-1.1-2.8c-0.5-0.8-0.4-1.5-0.1-2.3
				c0.3-0.8,0.5-1.7,0.8-2.5c0.3-0.8,0.7-1.5,1.5-1.9c2.3-1.1,4.6-2.2,6.9-3.3c0,0,0.1,0,0.2,0c-0.1,0.7-0.2,1.5-0.4,2.2
				c-0.7,3.4-0.7,6.8-0.6,10.2c0,1.4-0.1,2.7-0.2,4.1c0,0.7-0.3,1.2-0.9,1.5C221.7,203.4,220.7,204.1,219.5,204.7"/>
			<path class="st8" d="M234.9,443.3c3.4,0.6,6.8,0.6,10.2,0.3c2.4-0.2,4.6-1.1,6.3-2.9c0.7-0.8,1.6-1.5,2.3-2.3
				c1.8-1.9,4.1-2.3,6.6-2.1c1.3,0.1,2.1,0.6,2.3,1.8c0.2,0.9,0.5,1.9,0.4,2.8c-0.1,1.6-1,2.8-2.5,3.5c-1.9,0.9-3.9,1.2-6,1.4
				c-6.4,0.7-12.6-0.1-18.7-2.1C235.4,443.5,235.2,443.4,234.9,443.3"/>
			<path class="st8" d="M227.8,427.5c3.2-1.7,6.3-3.3,9.7-4.2c0.6-0.2,1.2,0,1.8,0c3.7,0.4,7.2,1.3,10.5,2.8
				c0.2,0.1,0.4,0.2,0.7,0.3c-0.6,0.1-1.2,0.2-1.6,0.4c-1.5,0.6-3,1.3-4.5,2c-1.6,0.7-3.1,1.5-4.8,2.1c-2.2,0.9-4.4,0.7-6.6-0.3
				C231.1,429.9,229.5,428.8,227.8,427.5"/>
			<path class="st7" d="M210.4,206.4c-1.9,0.1-1.9,0.1-2.6-1.3c-0.9-2-1.8-4-2.7-6c-0.6-1.5-0.5-1.7,0.8-2.6c2.1-1.3,4.5-1.8,7-1.8
				c0.2,0,0.4,0.2,0.5,0.4c1.8,2.8,3.3,5.8,4.3,9.1c0.2,0.6,0,0.8-0.5,0.9C214.9,205.8,212.5,206.3,210.4,206.4"/>
			<path class="st3" d="M186.2,191.4c1.3-1.9,2.5-3.5,2.9-5.7c0.3,0.2,0.5,0.3,0.7,0.4c0.8,0.6,1.5,1.2,2.2,1.9
				c1.8,1.8,3.9,3.2,6.2,4.3c2,0.9,4,1.9,6,2.8c0.2,0.1,0.4,0.2,0.6,0.3c-0.5,0.6-1,0.9-1.8,1c-3,0.3-5.9-0.4-8.7-1.4
				C191.6,193.9,189,192.6,186.2,191.4"/>
			<path class="st2" d="M214.1,325.2c2.7,6.8,6.1,13.3,10.4,19.3c-3.9-2.4-7.5-5.1-11.5-7.2c0.1-0.1,0.2-0.3,0.3-0.4
				c0.7-1,0.8-2,0.4-3.1c-0.3-0.8-0.8-1.7-1-2.5c-0.2-0.6-0.2-1.2,0-1.8C213,328,213.6,326.6,214.1,325.2"/>
			<path class="st3" d="M191.5,128.9c0.2,1.9,0.4,3.8-0.3,5.5c-0.3,0.8-0.9,1.3-1.8,1.5c-1.9,0.3-3.8,0.7-5.8,1.1
				c-0.3,0.1-0.5,0.2-0.9,0.3c-1.1-1.6-2.2-3.3-3.3-5c0.6-0.2,1-0.5,1.5-0.6c2.4-0.6,4.9-1.3,7.3-1.9
				C189.3,129.5,190.4,129.2,191.5,128.9"/>
			<path class="st7" d="M178.9,187.8c1.5-1.6,2.4-3.5,3.3-5.3c0.4-0.8,0.5-1.6,0.8-2.5c0.1-0.4,0.4-0.5,0.8-0.3
				c0.7,0.4,1.5,0.7,2.1,1.1c1.8,1.2,2.3,3,1.8,5c-0.5,1.8-1.5,3.2-2.5,4.7c-0.1,0.1-0.3,0.1-0.5,0.1c-0.2,0-0.4-0.1-0.7-0.2
				C182.3,189.5,180.7,188.7,178.9,187.8"/>
			<path class="st3" d="M206.7,131.8c-0.5-1.4-0.9-2.6-1.2-3.8c0-0.2,0.2-0.5,0.4-0.6c1.9-1.1,3.8-2.1,5.7-3.2
				c0.7-0.4,1.5-0.8,2.1-1.2c0.3,1.5,0.7,2.9,1,4.4c0,0.1-0.1,0.3-0.2,0.4C212,129.1,209.4,130.4,206.7,131.8"/>
			<path class="st7" d="M167.3,233.2c0.4-1.1,0.8-2.1,1.3-3.1c0.1-0.2,0.2-0.3,0.4-0.4c2.3-1.5,4.5-3.2,6.5-5.1c0,0,0.1-0.1,0.2-0.2
				c0.1,0.5,0.2,1.1,0.3,1.6c0.1,0.9,0.3,1.9,0.4,2.8c0,0.2-0.1,0.5-0.3,0.6c-2.8,1.3-5.6,2.5-8.4,3.7
				C167.5,233.2,167.5,233.2,167.3,233.2"/>
			<path class="st7" d="M207.9,136.1c-0.3-1.2-0.5-2.3-0.8-3.2c2.7-1.4,5.4-2.7,8.1-4c0.5,0.9,1.1,1.7,1.7,2.6
				C213.9,133,210.9,134.5,207.9,136.1"/>
			<path class="st6" d="M196.5,182.7c0.2-1.3,0.3-2.6,0.5-3.9c0.1-0.4,0.2-0.8,0.8-0.8c0.2,0,0.4-0.1,0.6-0.2
				c0.9-0.5,1.8-0.2,1.9,0.9c0.2,1.6-0.1,3.3-0.5,4.8c-0.1,0.3-0.4,0.6-0.7,0.7c-0.4,0.2-1,0.2-1.4,0.2c-0.7,0-0.9-0.1-0.9-0.9
				C196.6,183.3,196.6,183,196.5,182.7C196.6,182.7,196.6,182.7,196.5,182.7"/>
			<path class="st5" d="M216.2,103.7c-0.1-0.6-0.2-1.2-0.2-1.8c0-0.1,0-0.2,0-0.3c0.4,0,0.7-0.1,1.2-0.1c-0.3,0.8-0.5,1.5-0.8,2.2
				C216.3,103.7,216.2,103.7,216.2,103.7"/>
			<path class="st1" d="M181,356.2c3.4-6,8.3-11.1,11.3-17.5c0,0.4,0,0.8-0.1,1.1c-0.4,1.8-1.2,3.3-2.2,4.9c-2.6,4-5.6,7.6-8.7,11.2
				C181.2,356,181.1,356.1,181,356.2"/>
			<path class="st1" d="M220.6,158.1c0,1.1,0,2.3,0,3.4c0,0.4-0.2,0.9-0.4,1.3c-1.1,1.5-2.2,3.1-3.5,4.5c-0.9,1.1-1.2,1.1-2.4,0.4
				c-1.3-0.8-2.6-1.6-3.9-2.5c-0.9-0.6-1.2-1.5-1.2-2.5c0-1.5,0-3,0-4.5c0-0.8-0.1-1.7-0.2-2.5c-0.2-1.3,0-1.7,1.3-1.8
				c1.9-0.2,3.8-0.3,5.7-0.4c1.1-0.1,2.2-0.2,3.2-0.4c1-0.1,1.5,0.2,1.5,1.3c0.1,1.2,0,2.5,0,3.7
				C220.8,158.1,220.7,158.1,220.6,158.1 M219.6,158.1c0,0,0.1,0,0.2,0c0.1-0.8,0.1-1.7,0.2-2.5c0.1-1.5,0.1-1.5-1.4-1.3
				c-2.6,0.3-5.2,0.5-7.8,0.7c-0.5,0-0.7,0.2-0.7,0.7c0.1,2.5,0.2,5,0.3,7.5c0,0.3,0.3,0.8,0.6,1c1.2,0.8,2.4,1.6,3.6,2.4
				c0.6,0.4,1.1,0.3,1.6-0.3c1-1.3,2.1-2.6,3.1-4c0.2-0.3,0.3-0.6,0.3-0.9C219.6,160.3,219.6,159.2,219.6,158.1"/>
			<path class="st1" d="M234.1,173.2c-1.6,2.7-3.5,5.2-5.7,7.5C229.9,177.9,232,175.5,234.1,173.2"/>
			<path class="st1" d="M188.9,104c-1.5,0.2-2.9,0.5-4.2,0.5c-2.7,0-5-2-5.3-4.6c-0.4-3.1,1.8-5.3,4.9-4.7c2,0.4,3.7,1.3,5.1,2.8
				c1.5,1.6,1.7,3.6,1.3,5.6c-0.2,1-0.6,1.9-1,2.9c-0.3,0.8,0.2,1.9,1.2,2.1c0.8,0.1,1.5,0.3,2.3,0.4c0.2,0,0.3,0.3,0.5,0.4
				c-0.1,0.1-0.3,0.3-0.4,0.4c-2.2,1.3-4.8,0.1-5.2-2.4c-0.1-0.6,0.1-1.2,0.3-1.8C188.4,105.1,188.7,104.5,188.9,104 M184,96.9
				c-1.6-0.4-2.7,0.4-2.9,2c-0.2,1.8,1,3.3,3,3.8c1.7,0.4,3.3-0.2,4.9-0.7c0.1,0,0.2-0.1,0.2-0.2c0.2-0.4-0.1-1.7-0.5-2.1
				c-0.1,0.4-0.2,0.7-0.4,1.1c-0.5,1.1-1.5,1.8-2.6,1.7c-1.1-0.1-2-0.8-2.3-2C183,99.1,183.1,97.9,184,96.9 M184.3,99.1
				c0.1,0.4,0.2,1,0.5,1.3c0.2,0.3,0.7,0.6,1.1,0.6c0.7,0.1,1.3-0.7,1.5-1.6c0.2-0.9,0.2-1-0.7-1.5c-0.2-0.1-0.5-0.3-0.7-0.4
				c-0.7-0.4-1.1-0.2-1.4,0.5C184.5,98.3,184.4,98.7,184.3,99.1"/>
			<path class="st1" d="M198.7,99.6c-0.3,0-0.6-0.1-1-0.1c-2.9-0.1-3.9-2.7-3.3-4.8c0.6-2.6,2.6-3.8,5-4.4c1.2-0.3,2.5-0.2,3.6,0.3
				c2,0.8,2.9,2.8,2.1,4.8c-1,2.6-3,3.8-5.6,4.1C199.3,99.6,199,99.6,198.7,99.6 M202.3,92c0.9,1.7,0.8,3.3-0.2,4.5
				c-1.1,1.2-2.9,1.1-3.8-0.4c-0.5-0.9-0.6-1.9-0.3-2.9c0.1-0.3,0.2-0.6,0.4-1c-1.6,0.7-2.6,1.8-2.8,3.4c-0.2,1.1,0.3,1.9,1.4,2.2
				c1.1,0.3,2.2,0.3,3.3,0c1.7-0.5,3-1.4,3.5-3.2C204.2,93.4,203.5,92.3,202.3,92 M198.8,94.1c0.2,0.5,0.2,1,0.5,1.4
				c0.5,0.9,1.5,0.9,2.1,0.1c0.6-0.8,0.6-1.6,0.3-2.5c-0.3-0.9-1-1.1-1.8-0.8C199.2,92.6,198.9,93.1,198.8,94.1"/>
			<path class="st1" d="M194.7,118c-1.3-0.3-2.5-0.5-3.7-0.9c-0.8-0.3-1.5-0.8-2.2-1.2c-0.5-0.3-0.4-1,0.2-1.2
				c1.6-0.7,3.2-1.5,4.9-2.2c2.7-1,5.3-2,8-3c0.3-0.1,0.6-0.2,0.9-0.4c0.5-0.3,1-0.7,1.5-0.3c0.5,0.4,0.8,1,0.7,1.8
				c-0.3,2.4-1.6,4.1-3.7,5.4c-2,1.2-4.2,1.8-6.5,1.8L194.7,118z M191.6,114.8c0.9,1.4,0.9,1.4,2.3,1.4c0.9,0,1.8,0,2.7-0.2
				c2.2-0.4,4.2-1.3,5.7-3.1c0.5-0.7,0.9-1.4,1-2.5C199.3,111.9,195.5,113.3,191.6,114.8"/>
			<path class="st1" d="M201.1,88.4c-2.9-0.3-5.4,0.7-7.8,2.3c-0.1,0.1-0.3,0.3-0.4,0.3c-0.2,0-0.5,0-0.7-0.1
				c-0.1-0.1-0.2-0.5-0.2-0.7c0.1-0.2,0.3-0.5,0.5-0.7c2.3-1.9,5-3,8.1-2.9c0.3,0,0.6,0.1,0.8,0.1c0.5,0.2,0.7,0.5,0.6,1
				C201.9,88.2,201.6,88.4,201.1,88.4"/>
			<path class="st1" d="M182.3,90.9c0.3,0.1,0.9,0.3,1.5,0.5c0.8,0.3,1.6,0.7,2.3,1.1c0.2,0.1,0.3,0.4,0.5,0.6
				c-0.2,0.1-0.5,0.4-0.7,0.4c-0.6-0.1-1.3-0.2-1.9-0.4c-0.1,0-0.2-0.1-0.2-0.1c-2.1-0.8-2.8-0.6-4.1,1.3c-0.2,0.3-0.4,0.7-0.7,0.9
				c-0.2,0.2-0.7,0.3-0.9,0.1c-0.2-0.2-0.4-0.6-0.4-0.9C177.9,93,180.5,90.9,182.3,90.9"/>
			<path class="st1" d="M216.7,86.1c-0.4,0.5-0.8,1.1-1.1,1.6c-0.7,1-1.1,2.2-1,3.5c0,0.4,0.1,0.6,0.6,0.7c1.7,0.3,2.6,2.2,1.9,3.8
				c-0.2,0.4-0.4,0.7-0.8,0.5c-0.2-0.1-0.4-0.5-0.5-0.8c-0.1-0.2,0-0.5,0-0.8c0-1.2-0.3-1.7-1.5-1.9c-0.5-0.1-0.5-0.4-0.7-0.7
				c-0.5-1.5-0.2-2.9,0.5-4.2c0.5-1,1.3-1.6,2.4-1.9C216.6,86,216.6,86,216.7,86.1"/>
			<path class="st1" d="M224.8,242.8c-1,0-1.3-0.5-1.6-1.2c-1.2-2.7-2.8-5.2-4.7-7.5c-1.2-1.5-2.5-3-3.8-4.5
				c-0.5-0.6-0.9-1.1-1.3-1.7c-0.4-0.5-0.4-1.1,0-1.6c0.9-1.1,2-1.9,3.3-2.5c0.6-0.3,1-0.1,1.4,0.4c0.2,0.3,0.4,0.6,0.5,0.9
				c0.9,2.2,2.3,4,3.6,5.9c1.9,2.5,3.7,5.1,6,7.3c0.4,0.4,0.8,0.7,1.1,1c0.4,0.4,0.5,0.9,0,1.2C228,241.7,226.4,242.4,224.8,242.8
				 M217.1,224.9c-0.7,0.5-1.4,0.9-1.9,1.4c-1,0.9-0.9,0.6-0.2,1.6c0.2,0.3,0.4,0.5,0.6,0.7c2.3,2.7,4.7,5.3,6.5,8.3
				c0.8,1.3,1.5,2.7,2.2,4c0.1,0.2,0.2,0.6,0.6,0.4c1-0.5,2-0.9,3.1-1.4C223.5,235.5,220.4,230.3,217.1,224.9"/>
			<path class="st1" d="M184.7,155.9C184.7,155.9,184.7,156,184.7,155.9c-0.5,1.9-0.9,3.9-2.1,5.5c-0.5,0.8-1.3,0.9-2.1,0.5
				c-0.2-0.1-0.3-0.2-0.5-0.3c-1.4-1.1-2.9-2.2-3.9-3.8c-0.6-0.9-1-1.8-1.5-2.8c-0.2-0.3-0.2-0.8,0.2-0.9c0.2-0.1,0.6,0.2,0.8,0.4
				c0.1,0.1,0.2,0.3,0.3,0.4c1.6,1.9,3.8,2.8,6.4,1.5c0.5-0.3,1-0.7,1.6-1C184.3,155.2,184.7,155.4,184.7,155.9 M176.6,157.2
				c1.4,1.4,2.7,2.8,4.4,3.8c0.4,0.2,0.7,0,0.9-0.4c0.6-1.2,1.1-2.4,1.6-3.6c-0.1,0-0.1-0.1-0.2-0.1
				C181.2,158.3,179,158.7,176.6,157.2"/>
			<path class="st1" d="M195.4,206.5c-0.1-0.4-0.2-0.8-0.4-1.3c-0.6-1.9-1.1-3.8-1.1-5.9c0-0.3,0-0.7,0.1-1c0.2-0.5,0.6-0.6,1-0.2
				c0.1,0.1,0.1,0.1,0.2,0.2c1.2,2,2.4,4,3.6,6.1c-1.7-1.7-2.7-3.8-4-5.8c-0.1,0-0.1,0-0.2,0c0,0.5-0.1,0.9,0,1.4
				c0.4,1.6,0.8,3.1,1.2,4.7c0.1,0.4,0.3,0.8,0.4,1.3c0.2,1-0.3,1.5-1.3,1.4c-0.5,0-0.9-0.2-1.4-0.3c-2.8-1.2-5.1-3-7-5.4
				c-0.2-0.2-0.3-0.5-0.4-0.8c-0.1-0.2,0-0.4,0-0.6c0.2,0.1,0.4,0.1,0.5,0.2c0.1,0.1,0.2,0.3,0.3,0.4c1.8,2.2,3.9,3.9,6.5,5.1
				c0.5,0.3,1.1,0.4,1.7,0.6C195.3,206.6,195.4,206.6,195.4,206.5"/>
			<path class="st6" d="M219.6,158.1c0,1.1,0,2.2,0,3.2c0,0.3-0.1,0.7-0.3,0.9c-1,1.3-2,2.7-3.1,4c-0.4,0.6-0.9,0.7-1.6,0.3
				c-1.2-0.8-2.4-1.5-3.6-2.4c-0.3-0.2-0.6-0.6-0.6-1c-0.1-2.5-0.2-5-0.3-7.5c0-0.5,0.2-0.6,0.7-0.7c2.6-0.2,5.2-0.5,7.8-0.7
				c1.5-0.2,1.5-0.2,1.4,1.3c-0.1,0.8-0.1,1.7-0.2,2.5C219.7,158.1,219.6,158.1,219.6,158.1"/>
			<path class="st9" d="M184,96.9c-0.9,1.1-1,2.2-0.6,3.5c0.4,1.2,1.3,2,2.3,2c1.1,0.1,2.1-0.6,2.6-1.7c0.2-0.3,0.2-0.7,0.4-1.1
				c0.4,0.4,0.7,1.7,0.5,2.1c0,0.1-0.1,0.2-0.2,0.2c-1.6,0.5-3.2,1.1-4.9,0.7c-2-0.4-3.2-2-3-3.8C181.3,97.3,182.3,96.5,184,96.9"/>
			<path class="st5" d="M184.3,99.1c0.1-0.4,0.2-0.7,0.3-1c0.3-0.7,0.7-0.9,1.4-0.5c0.2,0.1,0.5,0.3,0.7,0.4
				c0.8,0.5,0.9,0.6,0.7,1.5c-0.2,0.9-0.9,1.6-1.5,1.6c-0.4,0-0.9-0.3-1.1-0.6C184.5,100,184.5,99.5,184.3,99.1"/>
			<path class="st9" d="M202.3,92c1.2,0.3,1.9,1.4,1.5,2.6c-0.5,1.8-1.8,2.7-3.5,3.2c-1.1,0.3-2.2,0.2-3.3,0c-1.1-0.3-1.6-1-1.4-2.2
				c0.2-1.7,1.2-2.8,2.8-3.4c-0.1,0.4-0.3,0.7-0.4,1c-0.3,1-0.2,2,0.3,2.9c0.8,1.4,2.7,1.6,3.8,0.4C203.1,95.4,203.2,93.7,202.3,92"
				/>
			<path class="st5" d="M198.8,94.1c0.1-1,0.4-1.5,1-1.7c0.9-0.3,1.5,0,1.8,0.8c0.3,0.9,0.3,1.7-0.3,2.5c-0.6,0.8-1.6,0.7-2.1-0.1
				C199,95.1,199,94.6,198.8,94.1"/>
			<path class="st9" d="M191.6,114.8c3.9-1.5,7.7-2.9,11.6-4.4c-0.1,1.1-0.5,1.8-1,2.5c-1.5,1.8-3.5,2.7-5.7,3.1
				c-0.9,0.2-1.8,0.2-2.7,0.2C192.4,116.2,192.4,116.1,191.6,114.8"/>
			<path class="st7" d="M217.1,224.9c3.2,5.4,6.4,10.6,11,15.1c-1.1,0.5-2.1,0.9-3.1,1.4c-0.4,0.2-0.5-0.2-0.6-0.4
				c-0.7-1.3-1.4-2.7-2.2-4c-1.8-3-4.3-5.6-6.5-8.3c-0.2-0.2-0.4-0.5-0.6-0.7c-0.7-1-0.8-0.7,0.2-1.6
				C215.8,225.8,216.4,225.4,217.1,224.9"/>
			<path class="st6" d="M176.6,157.2c2.4,1.5,4.6,1.1,6.8-0.3c0.1,0,0.1,0.1,0.2,0.1c-0.5,1.2-1.1,2.4-1.6,3.6
				c-0.2,0.4-0.5,0.6-0.9,0.4C179.3,160,177.9,158.6,176.6,157.2"/>
		</g>
	</g>
</g>
<g>
	<g>
		<defs>
			<rect id="SVGID_5_" x="288.3" y="78.5" width="229.7" height="407.1"/>
		</defs>
		<clipPath id="SVGID_6_">
			<use xlink:href="#SVGID_5_"  style="overflow:visible;"/>
		</clipPath>
		<g class="st10">
			<defs>
				<rect id="SVGID_7_" x="288.3" y="78.5" width="229.7" height="407.1"/>
			</defs>
			<clipPath id="SVGID_8_">
				<use xlink:href="#SVGID_7_"  style="overflow:visible;"/>
			</clipPath>
			<path class="st11" d="M360.5,413.2c0.5-2.5,1.1-5,1.5-7.5c1.4-9,2.7-18,4-27.1c0.9-5.9,1.8-11.8,2.6-17.7c1-7,1.7-14,1.7-21.1
				c0-0.3,0-0.5,0-0.8c-1.2-0.1-2.3-0.2-3.3-0.3c-1.4-0.2-2.8-0.5-4.2-0.8c-0.4-0.1-0.8-0.3-1.2-0.5c-1.1-0.6-1.4-1.4-0.9-2.5
				c0.5-1,1-2,1.4-3.1c2.9-7.6,5.1-15.5,7-23.5c2.3-9.9,4.5-19.9,6.8-29.8c0.3-1.2,0.6-2.5,0.9-3.7c0.1-0.2,0.1-0.4,0.2-0.8
				c-0.9,0.2-1.8,0.4-2.6,0.6c-0.6,0.1-1.2,0.5-1.7,0c-0.5-0.5-0.2-1.1,0.1-1.7c2.4-5.6,3.6-11.6,4.3-17.6c1-7.8,1.5-15.5,1.7-23.3
				c0.1-5.3,0.1-10.6,0.2-15.9c0-0.2,0-0.4,0-0.6c-1.6,0-3.2-0.1-4.8,0c-3,0.1-6,0.3-9,0.6c-7.9,0.7-15.7,1.9-23.4,3.4
				c-2.1,0.4-4.3,0.7-6.5,1.1c-0.4,0.1-0.7,0.3-1.1,0.5c-3.9,1.6-7.9-0.7-8.5-4.8c-0.4-2.8-0.1-5.6,1.1-8.3c0.8-1.9,1.8-3.7,2.9-5.4
				c1.8-2.9,3.5-5.9,4.6-9.1c1-2.8,2.2-5.4,3.6-8c2-3.6,3.7-7.4,5.7-11c1.5-2.6,3.1-5.2,4.8-7.7c0.4-0.7,1.1-1.3,1.6-1.9
				c0.7-0.9,1.7-1.1,2.8-0.8c0.4,0.1,0.6,0.1,0.9-0.2c0.1-0.2,0.3-0.3,0.4-0.4c1.3-1.3,2.1-1.4,3.6-0.4c0.9,0.6,1.8,1.1,3,0.6
				c0.9-0.4,1.9,0,2.6,0.9c1.8,2.4,3.2,4.9,3.8,7.9c0.2,1,0,2-0.8,2.8c-0.1,0.1-0.2,0.2-0.2,0.3c-0.8,1.9-2.4,2.9-4.4,3.2
				c-0.4,0.1-0.6,0.2-0.6,0.7c-0.4,3.2-3.6,6.7-6.8,7.2c-0.9,0.1-1.9,0-2.8,0.1c-0.3,0-0.6,0.1-0.8,0.2c-1.1,0.7-2.3,1.4-3.3,2.2
				c-0.5,0.4-0.9,1.1-1.2,1.7c-0.9,1.9-1.2,3.9-1.4,5.9c-0.2,2.8-0.4,5.6-0.7,8.4c0,0.6-0.1,1.1-0.2,1.8c0.9-0.1,1.7-0.1,2.4-0.2
				c2-0.3,3.8-1.1,5.6-2c6.1-3.1,12.3-6.1,18.4-9.2c2.3-1.2,4.8-1.8,7.4-2.2c4.4-0.7,8.9-0.8,13.3-0.1c1.1,0.2,1.6-0.2,1.7-1.4
				c0.1-2.6,0.1-5.2-0.4-7.8c-0.1-0.9-0.5-1.4-1.2-1.9c-3.6-2.3-6.3-5.4-7.9-9.4c-0.2-0.4-0.4-0.4-0.7-0.4
				c-6.4,0.1-12.1-4.5-13.4-10.7c-0.5-2.6-0.3-5.1,0.6-7.5c0.5-1.2,1.2-2.2,2.2-3c-0.3-0.3-0.5-0.5-0.8-0.7
				c-1.3-1.2-1.6-2.8-1.2-4.5c0.5-1.8,1.5-3.3,2.9-4.5c0.5-0.4,0.6-0.7,0.3-1.3c-0.5-1-0.3-1.9,0.5-2.7c0.5-0.5,1-0.8,1.5-1.2
				c0.3-0.3,0.5-0.5,0.2-0.9c-1.9-2.8-1.7-5.7,0-8.5c1.4-2.5,3.4-4.5,5.6-6.4c0.6-0.6,1.3-1.1,1.9-1.6c0.7-0.6,1.6-0.8,2.5-0.5
				c1,0.3,1.9,0.7,2.8,1.2c0.6,0.3,1.2,0.4,1.9,0.3c1.9-0.3,3.8-0.6,5.7-0.7c2.2-0.1,4.2,0.7,5.9,2.2c0.4,0.4,0.8,0.4,1.3,0.2
				c1-0.4,1.9-0.8,2.9-1.1c1.3-0.4,2.5-0.7,3.9-0.5c2.5,0.4,4.2,1.9,5.3,4.1c0.1,0.2,0.2,0.5,0.4,0.8c0.3-0.1,0.5-0.2,0.7-0.3
				c1.9-1,3.9-0.9,5.8,0c1.5,0.7,2.7,1.7,3.7,3c0.9,1.2,1.3,2.6,0.7,4.1c0.9,0.1,1.7,0.1,2.5,0.2c1.8,0.3,3.5,0.8,4.8,2.1
				c1.7,1.6,1.9,3.5,0.8,5.6c-0.1,0.2-0.1,0.5,0,0.6c1.3,1.5,1.3,3.4-0.6,5c-0.1,0.1-0.2,0.2-0.4,0.3c0.2,0.3,0.4,0.6,0.5,0.9
				c0.4,1.1,0.2,2-0.6,2.8c-0.3,0.3-0.5,0.6-0.3,1.1c0.1,0.3,0.2,0.7,0,0.9c-0.3,0.5-0.1,0.8,0.3,1.2c0.8,1,1.3,2.1,1.4,3.4
				c0.4,5-1.2,9.3-5.1,12.5c-0.9,0.7-2,1.2-3.1,1.6c-0.6,0.2-1.3,0.2-1.9,0.3c0-0.1-0.1-0.1-0.1-0.2c-0.1,0.2-0.1,0.4-0.2,0.6
				c-1.4,3.8-3.5,7.2-6.8,9.6c-0.9,0.7-1.5,1.6-2.2,2.4c-0.3,0.3-0.3,0.9-0.4,1.3c0,1.3-0.1,2.7,0.1,4c0.1,0.8,0.5,1.5,0.8,2.2
				c0.7,1.3,1.5,2.6,2.2,3.9c0.5,0.9,1.4,1.2,2.4,1.2c2,0,3.9,0,5.9,0c2.8-0.1,5.5,0.5,8,1.7c3.9,1.8,7.7,3.6,11.6,5.5
				c4.4,2.1,8.9,3.8,13.5,5.4c0.6,0.2,1.1,0.4,1.8,0.6c0-0.4,0-0.7,0-1c-0.2-3.8,0.3-7.4,1.9-10.9c0.9-2,1.5-4,1.7-6.2
				c0.3-2.8-0.8-5-3.1-6.6c-0.9-0.7-1.9-1.2-3.1-1.4c-1.9-0.3-3.4-1.2-4.8-2.4c-1.5-1.3-1.8-2.4-1.1-4.3c0.2-0.6,0.2-0.9-0.3-1.3
				c-1.1-1-1.8-2.2-1.8-3.7c0-0.2-0.1-0.3-0.2-0.5c-0.6-0.8-0.8-1.6-0.7-2.6c0.2-1.4,0.5-2.7,0.9-4c0.7-2.3,3.3-3.4,5.6-2.4
				c0.4-0.4,0.7-0.8,1.1-1.2c0.6-0.6,1.1-0.7,1.9-0.3c1.3,0.6,2.6,1.3,3.8,2c1.4,0.8,2.9,1.4,4.5,1.6c1.7,0.2,2.5,1.1,2.9,2.7
				c2.1,8.5,3.8,17.1,4.5,25.8c0.5,6.7,1.2,13.3,1.8,20c0.2,2.1,0.3,4.3-0.2,6.4c-0.6,2.5-2.5,4-5.1,4c-0.9,0-1.7,0-2.6,0
				c-4.6,0.4-9.3,0-13.9-0.5c-6.6-0.8-13.2-1.7-19.7-2.5c-0.5-0.1-0.9-0.2-1.4-0.3c-0.5-0.1-0.9-0.2-1.5-0.4
				c0.1,0.9,0.1,1.7,0.1,2.5c0.8,9.5,0.5,19,0.1,28.4c-0.3,6.4-0.4,12.8-0.6,19.2c0,1.4,0.2,2.7,0.2,4.1c0,1.1-0.3,1.3-1.3,1.5
				c0,0.1,0,0.1,0,0.2c1.3,3,1.8,6.3,2.6,9.5c2.6,10.8,5.8,21.4,9.2,32c1.4,4.4,2.8,8.8,3.5,13.4c0.2,1.3,0.2,2.7,0.3,4.1
				c0,0.3,0,0.6,0.1,0.8c0.4,1.3,0.1,2-1.1,2.8c0,0.1,0,0.2,0,0.3c3.3,12.5,6.1,25.2,8.7,37.9c1.8,8.7,4.5,17.1,7.5,25.4
				c1,2.9,2.1,5.7,3.2,8.6c0.1,0.4,0.3,0.5,0.7,0.7c1.1,0.3,1.9,1.1,2.4,2c0.6,1,1.2,2.1,1.6,3.2c1.3,3.3,3.3,6.1,5.8,8.7
				c1.9,2,3.7,4.1,5.3,6.2c2.5,3.3,2.3,6.9,0.9,10.6c-0.5,1.3-1.5,2.3-2.8,3c-2.7,1.5-5.7,2.1-8.8,2.2c-5,0.1-9.9-0.6-14.5-2.7
				c-3.2-1.5-5.4-3.8-6.1-7.4c-0.3-1.4-0.1-2.8,0.3-4.1c0.7-2,1.4-4.1,2-6.1c0.9-3,0.5-5.9-0.6-8.7c-0.5-1.2-0.9-2.4-0.8-3.7
				c0-1.8,0.6-2.4,2.4-2.2c0.4,0,0.9,0.1,1.4,0.2c-0.5-0.7-1-1.3-1.5-1.9c-2.4-2.9-4.8-5.8-7.2-8.8c-3.2-4-5.4-8.6-7.5-13.2
				c-1.6-3.4-3.1-6.9-3.9-10.6c-0.7-3.2-0.9-6.4-1.2-9.6c-0.6-6.1-1.3-12.1-2.4-18.1c-0.3-1.7-1.1-3.3-2.3-4.6
				c-1.2-1.3-2.3-2.5-3.6-3.8c-0.2-0.2-0.5-0.3-0.8-0.2c-3.1,0.2-6.1,0.4-9.2,0.5c-1,0.1-2.1,0-3.1-0.1c-1.7-0.2-2.3-1-2-2.6
				c0-0.2,0-0.3,0.1-0.5c0.9-2.5,0.7-5.1,0.1-7.6c-0.9-4.2-2-8.4-3-12.6c-1-4.1-2.1-8.2-3.1-12.2c0-0.2-0.1-0.3-0.2-0.5
				c-0.7,3.4-1.5,6.8-2.1,10.2c-1.3,6.2-2.5,12.4-3.7,18.6c-0.2,0.9-0.5,1.8-0.7,2.7c-0.4,1.4-1.3,2-2.8,2.1c-0.6,0-1.3,0-1.9,0
				c0.1,1.1,0.2,2,0.2,2.9c0.3,4.4-0.4,8.6-1.2,12.9c-1.8,9.7-5,19-9,28c-2.8,6.3-5.2,12.8-7.3,19.3c-1.6,4.9-1.1,9.7,0.4,14.4
				c0.1,0.2,0.4,0.5,0.6,0.5c1.6,0.5,2.6,1.7,2.7,3.4c0.1,2.7-0.4,5.3-0.8,7.9c-0.2,1.2-0.4,2.4-0.6,3.5c-0.1,0.7-0.3,1.4-0.6,2
				c-0.5,1.1-1.3,1.7-2.5,1.9c-4.7,0.6-9.3,1.2-14,1.9c-3.7,0.6-7.3,1.5-10.9,2.2c-6.2,1.2-12.5,1.4-18.9,1.1
				c-0.4,0-0.8-0.1-1.2-0.1c-2-0.2-3.2-1.4-3.9-3.2c-1-2.4-0.9-4.9,0-7.4c1.1-3.2,3.1-5.9,5.8-7.9c2.2-1.6,4.6-2,7.1-1.3
				c0.8,0.2,1.6,0.4,2.3,0.7c3,1,5.9,0.6,8.7-0.9c2.8-1.5,5.2-3.5,7.1-6c0.5-0.6,1-1.1,1.7-1.6c1.1-0.8,2.1-0.6,2.8,0.6
				c0,0.1,0.1,0.1,0.1,0.2C360.4,413.2,360.4,413.2,360.5,413.2 M430.1,272.2c0-0.2,0-0.5,0-0.8c0-2.3-0.1-4.5-0.1-6.8
				c0.1-4.1,0.2-8.2,0.3-12.3c0.4-9.3,1-18.6,0.3-27.9c-0.3-3.3,0-6.6-0.6-9.9c-0.4-2.3-0.5-4.7-0.6-7c-0.2-3.3-0.6-6.6-0.2-10
				c-2-0.3-4.1-0.2-6.2-0.2c0,0.7,0,1.3,0,1.9c-0.1,1.2-0.3,2.3-1.2,3c-3.1,2.6-6.4,4.7-10.3,5.8c-4.2,1.2-8.4,1.4-12.7,1
				c-2.9-0.3-5.6-0.8-8.2-2.1c-2.3-1.2-3.9-2.9-4.5-5.4c-0.5-2-0.9-4.1-1.3-6.2c-0.1-0.4-0.2-0.6-0.6-0.5c-1.1,0-2.2,0-3.3,0.1
				c-0.7,0-1.4,0.1-2.1,0.2c0,0.3,0.1,0.5,0.1,0.7c0.5,4.5,1.1,9,1.4,13.5c0.9,15.7,0.4,31.4-1.5,47.1c-0.6,5.4-1.7,10.7-3.7,15.7
				c-0.1,0.2-0.2,0.5-0.3,0.7c5.8-0.3,6.8-0.2,12.5,1.3c2.2,0.6,4.4,1.2,6.5,1.8c6.6,1.8,13.2,2.3,20,1.1c4.8-0.9,9.5-2.3,14.1-4.1
				C428.6,272.6,429.3,272.5,430.1,272.2 M432.6,337.4c-0.4-1.2-0.7-2.2-1-3.2c-1.8-5.8-3.6-11.6-4.8-17.6c-0.6-2.9-1-5.9-1.7-8.8
				c-2.4-9.1-4.4-18.2-6-27.4c-0.1-0.9-0.3-1.7-0.4-2.6c-0.3,0.1-0.5,0.1-0.7,0.2c-5.7,1.4-11.5,1.9-17.4,1.1
				c-3.9-0.5-7.7-1.6-11.4-2.6c-3.2-0.9-6.4-1.8-9.7-2.1c-0.9-0.1-0.9-0.1-1.1,0.8c-1.6,7.2-3.2,14.5-4.7,21.7
				c-2,9.2-4,18.4-6.9,27.4c-1.2,3.8-2.3,7.7-4.3,11.3c0,0.1,0,0.2-0.1,0.3c0.2,0.1,0.4,0.2,0.6,0.3c0.8,0.2,1.6,0.4,2.4,0.5
				c4.9,0.7,9.8,0.9,14.7,1c3.2,0.1,6.3-0.1,9.4-0.8c1.3-0.3,2.7-0.3,4-0.4c1.1-0.1,1.3-0.2,1.6-1.2c0.8-3.4,1.5-6.7,2.2-10.1
				c1.6-7.9,3.2-15.8,4.8-23.7c0.1-0.4,0.3-0.9,0.3-1.3c-0.3-2.8-0.7-5.6-1.1-8.3c-0.2-1.4-0.4-1.6-1.8-1.8
				c-1.7-0.2-3.5-0.5-5.2-0.8c-0.7-0.1-1.5-0.3-2.2-0.5c-0.2-0.1-0.3-0.5-0.5-0.7c0.2-0.1,0.5-0.3,0.7-0.4c0.1,0,0.2,0,0.3,0
				c2.2,0.2,4.4,0.5,6.7,0.7c0.5,0.1,1.1,0.1,1.6,0.3c1.1,0.3,1.7,1,2,2.1c0.1,0.4,0.1,0.8,0.2,1.2c0.3,2.2,0.5,4.3,0.8,6.4
				c1.1,6.5,2.9,12.8,4.5,19.2c1.1,4.3,2.1,8.7,3,13c0.5,2.3,0.7,4.7-0.2,7.1c-0.1,0.3-0.1,0.6-0.2,0.9c-0.1,0.4,0,0.5,0.4,0.5
				c0.8,0,1.5,0.1,2.3,0.1c4.9,0,9.8-0.5,14.7-1.2C429.8,337.7,431.2,337.6,432.6,337.4 M431.4,151c-0.4-0.9-0.5-1.7,0.3-2.3
				c1-0.8,1-1.2,0.2-2.2c-0.6-0.8-0.5-1.3,0.3-2c0.1-0.1,0.2-0.2,0.3-0.2c1.4-1.1,1.4-1.8,0.4-3.2c-0.6-0.8-0.6-1.2-0.1-2
				c0.9-1.4,0.8-2.6-0.4-3.8c-0.9-0.9-2-1.4-3.2-1.5c-1.3-0.2-2.6-0.2-3.9-0.3c-1.1-0.1-1.5-0.8-1-1.7c0.6-1,0.5-1.9-0.1-2.8
				c-1.1-1.6-2.5-2.7-4.4-3.2c-1-0.3-2-0.3-2.9,0.2c-0.5,0.2-0.9,0.4-1.4,0.6c-0.9,0.3-1.4,0.1-1.7-0.7c-0.2-0.4-0.3-0.9-0.6-1.3
				c-1.3-2.4-3.5-3.4-6.1-2.8c-0.8,0.2-1.5,0.5-2.3,0.7c-0.6,0.2-1.2,0.5-1.9,0.7c-0.9,0.3-1.7,0.2-2.4-0.5c-1.5-1.4-3.3-2-5.2-1.9
				c-1.8,0.1-3.6,0.4-5.4,0.7c-1,0.2-1.8,0.1-2.7-0.4c-0.7-0.4-1.5-0.7-2.3-1c-0.7-0.3-1.3-0.2-1.8,0.3c-1,0.9-2,1.7-3,2.6
				c-1.6,1.5-3,3.1-4.1,5c-1.3,2.4-1.6,4.7,0.1,7.1c0.7,1.1,0.6,1.8-0.5,2.6c-0.5,0.4-1,0.7-1.4,1.2c-0.4,0.3-0.5,0.8-0.3,1.3
				c0.6,1.4,0.5,1.7-0.7,2.8c-1.1,1-1.9,2.1-2.4,3.5c-0.4,1.3-0.3,2.5,0.6,3.6c0.3,0.4,0.5,0.8,0.8,1.2c2.8-0.9,4.9,0.2,6.7,2.7
				c0.1-0.4,0.1-0.6,0.1-0.8c0-2.8,0.5-5.6,1.6-8.2c0.4-0.9,0.9-1.8,1.5-2.7c0.8-1.2,1.7-1.2,2.8-0.2c0.6,0.5,1.2,1.1,1.8,1.6
				c1.5,1.4,3.2,1.6,5,0.8c0.3-0.1,0.6-0.3,0.9-0.4c0.5-0.2,1-0.5,1.5-0.7c0.8-0.3,1.3,0.1,1.4,0.9c0.1,0.4,0.1,0.8,0.1,1.3
				c0.2,1.4,0.9,2.1,2.3,2c1.1-0.1,2.2-0.4,3.2-0.6c0.4-0.1,0.9-0.3,1.1,0.2c0.1,0.3,0.1,0.8-0.1,1.2c-0.1,0.4-0.4,0.7-0.7,1.2
				c0.2,0,0.2,0,0.3,0c2.5-1.1,4.6-2.7,5.8-5.3c0.5-1.1,1-1.2,1.9-0.4c0.4,0.3,0.9,0.7,1.4,0.9c1.9,0.9,4.1,0.1,5.1-1.7
				c0.3-0.5,0.9-0.6,1.2-0.1c0.7,1.1,1.8,1.5,3,1.6c0.7,0.1,1.4,0.1,2.2,0.2c1.1,0.2,1.6,0.9,1.4,2c-0.1,0.5-0.3,1-0.5,1.5
				c-0.1,0.4-0.3,0.7-0.4,1.1c1.5,0.1,1.9,0.3,2.3,1.1c0.1,0.2,0.2,0.6,0.1,0.9c-0.5,1-0.1,1.9,0,2.9c0.7-1,1.4-1.9,2.5-2.5
				C429,150.8,430.1,150.7,431.4,151 M394.3,144.5c-0.9,0.4-1.7,0.8-2.6,1.1c-2,0.8-3.8,0.4-5.4-0.9c-0.5-0.4-1-0.9-1.5-1.4
				c-1.2-1.2-1.3-1.2-2.1,0.4c-1.6,3.1-2.3,6.5-2.2,10c0,0.6,0.3,1.2-0.4,1.6c-0.1,0,0,0.3,0,0.4c0.8,3.6,1.5,7.3,2.3,10.9
				c0.3,1.3,0.8,2.6,1.2,3.8c1.6,4.6,4.5,8.2,8.6,10.8c1.5,1,3.3,1.6,4.5,3.1c0,0.1,0.1,0.1,0.2,0.1c2.2,0.8,4.5,1.5,6.9,1.9
				c2,0.3,3.8-0.1,5.4-1.2c0.9-0.6,1.8-1.2,2.7-1.9c0.8-0.7,1.5-1.5,2.2-2.2c0.6-0.6,1.1-1.2,1.7-1.7c3.6-2.8,6-6.4,6.9-10.8
				c0.5-2.4,0.7-5,0.9-7.5c0.2-3.2,0.2-6.4,0.3-9.6c0-1,0.1-1-0.9-1c-1.3,0-1.9-0.8-1.4-2.1c0.2-0.6,0.5-1.1,0.7-1.7
				c0.3-0.9,0.2-1-0.7-1c-1.7-0.1-3.4-0.4-4.7-1.5c-2.5,2.2-5.2,2.6-8,0.6c-1.3,2.3-3.2,4.1-5.6,5.3c-0.6,0.3-1.4,0.5-2.1,0.6
				c-1,0.1-1.5-0.6-1.2-1.6c0.1-0.2,0.1-0.4,0.2-0.7c-1.5,0.2-2.9,0.5-4.3-0.1C394.7,147.5,394.4,146,394.3,144.5 M373.6,416.2
				c-0.1-0.2-0.1-0.4-0.2-0.6c-1.6-4.8-2.1-9.6-0.5-14.5c1.6-4.9,3.3-9.7,5.2-14.5c1.9-4.8,4-9.5,5.9-14.3c2.5-6.3,4-12.9,5.4-19.6
				c0.9-4.4,1.4-8.9,0.9-13.4c0-0.2-0.1-0.4-0.1-0.7c-6,1.3-12,0.8-18.1,0.6c0,0.3,0,0.6,0,0.9c0,7.2-0.8,14.3-1.8,21.4
				c-0.8,5.9-1.7,11.7-2.6,17.5c-1.3,8.7-2.5,17.4-3.9,26c-0.5,3.4-1.2,6.9-2.4,10.1c0,0.1-0.1,0.3,0,0.4c0.2,0.8,1.6,1.9,2.4,1.9
				C367,417.7,370.2,416.7,373.6,416.2 M430.1,197.6c0,0.3,0,0.5,0,0.6c0.4,3.8,0.8,7.6,1.2,11.4c0.2,2.2,0.4,4.5,0.6,6.7
				c0,0.2,0.2,0.6,0.4,0.6c1,0.3,2.1,0.6,3.1,0.7c9.3,1.3,18.5,2.7,27.9,3.3c2.9,0.2,5.8,0.4,8.7-0.3c1.5-0.3,2.4-1.1,2.7-2.6
				c0.5-2,0.3-3.9,0.1-5.9c-0.8-9.4-1.6-18.9-2.3-28.3c-0.1-1.6-0.1-3.3-0.5-4.8c-1-4.2-2.1-8.3-3.1-12.4c-0.2-1-0.8-1.5-1.8-1.6
				c-2.4-0.4-4.8-0.8-7.1-1.3c-0.3,0.8-0.7,1.7-1,2.5c-0.3,0.7-0.7,1.4-0.9,2.2c-0.3,0.9-0.2,1.2,0.7,1.5c0.7,0.2,1.5,0.3,2.3,0.4
				c0.7,0.1,1.3-0.2,1.5-1c0.1-0.3,0.2-0.5,0.4-0.8c0.2-0.3,0.1-0.5-0.2-0.7c-0.3-0.2-0.7-0.4-1-0.6c-0.2-0.2-0.3-0.6-0.2-0.8
				c0.1-0.2,0.5-0.4,0.7-0.3c1.2,0.4,2,1.2,2.9,2.2c-0.4,0-0.5,0.1-0.6,0.1c-0.2,0.4-0.5,0.7-0.6,1c-0.6,1.5-1.2,3-1.8,4.6
				c-0.4,1-0.4,1.2,0.5,1.9c1,0.9,2.1,1.7,3.1,2.5c0.3,0.3,0.6,0.6,0.8,1c0.2,0.5,0,0.8-0.5,0.7c-0.4-0.1-0.8-0.2-1.2-0.5
				c-1.7-1.3-3.7-2.4-4.6-4.3c-1,0.6-1.9,1.1-2.9,1.7c-0.3,0.1-0.6,0.3-0.9,0.2c-0.3-0.1-0.7-0.3-0.8-0.6c-0.1-0.2,0.3-0.5,0.5-0.7
				c0.1-0.1,0.4-0.1,0.6-0.2c1.4-0.5,2.4-1.3,3-2.8c-1.3-0.5-2.5-0.9-3.8-0.8c-0.3,0-0.7,0.3-0.8,0.5c-0.7,1.4-1.5,2.7-1.6,4.3
				c-0.1,0.8,0,1.5,0.7,2.1c1.2,1.1,2.6,1.9,4.2,2.2c0.6,0.1,1.2,0.3,1.8,0.5c3.2,1.3,6.5,4.1,5.9,9.3c-0.2,2.5-1,4.8-2,7
				c-1.2,3-1.7,6.1-1.5,9.3c0.1,1.9,0.5,3.8,0.7,5.7c0,0.3,0,0.6,0,0.8c-1.2-1-1.9-2.3-2.2-3.7c-1-0.2-1.8-0.3-2.7-0.6
				c-4.1-1.1-8.1-2.6-11.9-4.4c-4.1-1.9-8.1-3.9-12.2-5.8C433.1,198.7,431.7,198.2,430.1,197.6 M426.3,340.1
				c0.2,0.2,0.3,0.3,0.4,0.5c0.8,0.8,1.6,1.6,2.4,2.4c1.5,1.6,2.5,3.4,2.8,5.5c1.1,6.2,1.9,12.4,2.4,18.7c0.4,5,1,9.9,3,14.6
				c1.4,3.3,3,6.6,4.5,9.8c1.5,3.2,3.5,6.1,5.7,8.8c2.2,2.8,4.5,5.5,6.7,8.2c0.3,0.4,0.6,0.8,0.9,1.1c0.6-0.3,1.2-0.6,1.8-0.7
				c0.6-0.1,1.3,0,2,0c1.4,0.1,2.7,0.4,4.1,1.2c-0.1-0.3-0.2-0.5-0.2-0.7c-1-2.8-2.1-5.5-3.1-8.3c-2.7-7.7-5.3-15.4-7.1-23.4
				c-2.8-12.6-5.6-25.2-8.4-37.8c-0.2-0.9-0.4-1.8-0.6-2.6C437.8,338.4,432.1,339.2,426.3,340.1 M353.5,180.4
				c-0.1,0.2-0.2,0.3-0.3,0.4c-1.6,2.2-3.6,4-5.8,5.6c-0.3,0.2-0.6,0.5-1,0.6c-0.3,0.1-0.7-0.1-0.9-0.3c-0.1-0.2-0.1-0.6,0.1-0.8
				c0.3-0.3,0.7-0.6,1-0.9c1.8-1.3,3.4-2.9,4.9-4.6c0.8-0.9,1-1.8,0.6-3c-0.9-2.4-1-4.8-0.4-7.3c0.1-0.4,0.3-0.7,0.8-0.8
				c0.4-0.1,0.6,0.1,0.5,0.5c-0.4,1,0.4,1.5,0.8,2.2c0.1,0.2,0.4,0.3,0.7,0.3c0.8,0.1,1.5-0.2,1.9-0.8c0.4-0.7,0.8-1.4,0.2-2.3
				c-1.1-1.6-2.6-2.7-4.4-3.5c-0.5-0.2-0.9-0.1-1.3,0.3c-0.9,1-1.8,2.1-2.7,3.1c-0.1,0.1-0.1,0.2-0.2,0.3c-1.3,2.5-2.7,5.1-4,7.6
				c-1.7,3.3-3.2,6.6-4.9,9.9c-1.2,2.2-2.2,4.4-3,6.7c-1,2.8-2.2,5.6-3.8,8.2c-0.9,1.5-1.9,3-2.8,4.5c-1.6,2.8-2.4,5.7-2.2,8.9
				c0.1,1.4,0.4,2.7,1.5,3.6c0.6,0.6,1.2,1.2,2.2,1c2.6-0.4,5.2-0.8,7.8-1.3c10.2-2.2,20.5-3.8,30.9-4.4c2.7-0.2,5.3-0.6,8-0.2
				c0.3,0,0.7,0.1,1.2,0.1c-0.4-6.3-0.7-12.5-1.1-18.8c-1,0.2-1.9,0.3-2.7,0.5c-1.4,0.4-2.9,0.9-4.2,1.5c-5.1,2.5-10.2,5.1-15.4,7.6
				c-2.1,1-4.2,2-6.4,2.9c-1.3,0.6-2.8,0.9-4.2,0.8c-0.6,0-1.1-0.1-1.7-0.2c-0.1,0.4-0.2,0.9-0.3,1.3c-0.5,1.7-1,3.3-2.1,4.7
				c-0.4,0.6-1,1-1.7,1.1c-0.4,0.1-0.6-0.1-0.4-0.5c0.2-0.5,0.4-1,0.7-1.5c0.8-1.3,1.4-2.6,1.8-4.1c0.7-2.8,0.9-5.7,1.2-8.5
				c0.2-2.4,0.5-4.8,0.9-7.1c0.3-1.6,0.9-3.2,1.9-4.5c0.7-0.8,1.6-1.5,2.4-2.1c1.3-1,2.7-1.7,4.5-1.6c2.2,0.1,3.9-0.8,5.3-2.5
				c0.7-0.9,1.3-1.9,1.8-2.9c0.2-0.3,0.1-0.8,0.2-1.2c0-0.5-0.1-0.9,0-1.4c0.1-0.6-0.1-1.1-0.7-1.2c-0.7-0.1-1.4-0.2-2.1-0.1
				c-0.9,0.1-1.7,0.4-2.5,0.6c-0.2,0.1-0.4,0.3-0.4,0.5c0.1,1.8,0.2,2.1,2,2.3c0.1,0,0.3,0,0.4,0.1c0.1,0,0.3,0.1,0.3,0.2
				c0.2,0.4,0.3,0.7,0.5,1.2C355.9,181.2,354.7,181.1,353.5,180.4 M335.9,438.7c1.9-0.1,4.5-0.2,7.1-0.5c4.5-0.5,9-1.6,13.4-2.4
				c5.2-1,10.4-1.6,15.6-2.3c2.4-0.3,2.7-0.5,3.1-2.9c0,0,0,0,0-0.1c0.4-2.2,0.8-4.3,1.1-6.5c0.2-1.4,0.2-2.8,0.2-4.3
				c0-1.1-0.6-1.7-1.7-1.7c-0.5,0-1.1,0-1.7,0.1c-2.7,0.4-5.4,0.8-8.1,1.2c-0.2,0-0.3,0.2-0.4,0.4c-0.4,0.7-0.7,1.5-1.2,2.1
				c-2.1,2.4-4.7,4.1-7.7,5.3c-3.8,1.5-7.4,1-10.6-1.7c-0.8-0.7-1.8-1.3-2.7-2c-0.2-0.1-0.4-0.3-0.7-0.3c-1.6-0.4-3.1-0.8-4.7-1.2
				c-1.9-0.5-3.7-0.1-5.4,1c-2.7,1.9-4.6,4.5-5.5,7.7c-0.6,1.9-0.6,3.8,0.2,5.6c0.5,1.4,1.5,2.2,3,2.2
				C331.2,438.5,333.2,438.6,335.9,438.7 M386.1,194.7c0.5,2,1,3.8,1.4,5.6c0.6,2.7,2.3,4.5,4.9,5.5c2.5,1,5.1,1.4,7.8,1.6
				c7.6,0.6,14.5-1.2,20.3-6.3c0.3-0.2,0.6-0.6,0.7-0.9c0.2-0.9,0.3-1.9,0.5-2.9c-0.6,0-1.1,0-1.5,0c-1.5,0-2.7-0.6-3.6-1.8
				c-0.2-0.3-0.5-0.5-0.7-0.8c-0.5-0.6-1-1.1-1.4-1.8c-1.3-2.5-1.6-5.1-1.3-7.8c0-0.2,0-0.3,0-0.5c-0.5,0.3-0.9,0.6-1.4,0.9
				c-2.4,1.6-5.1,2.7-8.1,2.5c-2.7-0.3-5.2-1.2-7.6-2.5c-0.9-0.5-1.7-0.9-2.7-1.4c0.8,2.8,0.8,5.5,0.7,8.2c-0.1,1.7-1.1,3.2-3.1,2.9
				c-0.4,0-0.7-0.1-1.1-0.1C388.6,194.9,387.4,194.8,386.1,194.7 M464.5,412c0.5,1.2,1,2.3,1.5,3.4c1,2.5,2.2,4.9,3.8,7.1
				c0.7,1,1.2,2.1,1.6,3.2c0.3,1.1,0.4,2.2,0.4,3.3c0,1.1-0.6,1.5-1.7,1.4c-1-0.1-1.9-0.3-2.9-0.5c-1.9-0.4-3.6-0.2-5,1.2
				c-0.2,0.2-0.5,0.4-0.8,0.5c-1,0.5-1.7,0.4-2.5-0.4c-1.3-1.3-2.1-2.9-2.6-4.7c-1-4.2-1.6-8.4-1.9-12.7c0-0.2-0.2-0.5-0.4-0.7
				c-0.3-0.2-0.6-0.4-1-0.5c-1.2-0.4-1.5-0.1-1.2,1.1c0.2,0.8,0.5,1.7,0.7,2.5c1.2,4.2,1.3,8.3-0.3,12.4c-0.4,1.1-0.8,2.2-1.1,3.3
				c-1,2.9-0.2,5.3,1.8,7.5c1.1,1.1,2.4,1.8,3.8,2.4c4.4,1.8,8.9,2.4,13.6,2.1c2.4-0.1,4.8-0.6,6.9-1.8c1.1-0.6,2.1-1.4,2.5-2.6
				c1-2.9,1.2-5.9-0.8-8.5c-1.5-1.9-3-3.8-4.7-5.5c-2.9-3-5.2-6.2-6.7-10.1c-0.3-0.8-0.7-1.5-1.1-2.2c-0.3-0.5-0.6-0.8-1-1.2
				C465.1,411.6,464.7,411.6,464.5,412 M438.4,336.6c0-0.2,0-0.4,0-0.5c-0.6-2.6-1.1-5.2-1.7-7.7c-1.4-5.5-3-10.9-4.4-16.3
				c-3-11.7-5-23.6-6.9-35.6c0-0.2-0.1-0.4-0.1-0.7c-1.8,0.6-3.5,1.1-5.2,1.6c0,0.1,0,0.3,0,0.4c1.6,7.3,3.1,14.6,4.7,21.8
				c0.8,3.7,2,7.2,2.7,10.9c1.1,6,2.4,11.9,4.2,17.7c0.9,2.8,1.7,5.6,2.6,8.4c0.1,0.2,0.1,0.6,0.5,0.5
				C436,336.9,437.2,336.7,438.4,336.6 M428.8,274.4c-0.7,0.3-1.2,0.5-1.8,0.7c-0.4,0.1-0.5,0.3-0.4,0.8c0.9,4.5,1.8,9.1,2.6,13.6
				c1.6,8.4,3.3,16.7,5.5,25c1.6,6.2,3.2,12.3,4.8,18.5c0.3,1,0.5,2.1,0.7,3.2c1.7-0.4,3.4-0.4,4.8-1.1c-0.1-0.6-0.3-1.1-0.3-1.7
				c-0.2-1.6-0.3-3.2-0.6-4.7c-1-5-2.6-9.8-4.2-14.6c-3.7-11.2-6.9-22.5-9.5-34C430,278.3,429.4,276.4,428.8,274.4 M470.2,428.8
				c0-0.4,0-0.8,0-1.1c-0.2-1.6-0.9-3-1.8-4.4c-1.1-1.7-2.1-3.4-3-5.1c-0.9-1.7-1.5-3.4-2.3-5.2c-0.1-0.1-0.1-0.3-0.1-0.4
				c-0.1-0.3-0.2-0.6-0.4-0.7c-0.5-0.3-1.1-0.7-1.7-0.9c-1.1-0.2-2.2-0.3-3.3-0.3c-0.9,0-1.5,0.6-1.6,1.5c0,0.7-0.1,1.4,0,2
				c0.3,4,0.9,7.9,1.8,11.8c0.3,1.4,0.9,2.7,1.9,3.8c0.6,0.6,0.7,0.7,1.3,0.1c1.9-1.8,4.1-2,6.5-1.5
				C468.4,428.5,469.3,428.6,470.2,428.8 M381.9,170.9c-0.6-2.3-1.2-4.4-1.8-6.6c-0.9,0.2-1.5,0.7-1.7,1.6c-0.1,0.4-0.1,0.9-0.2,1.2
				c-0.1,0.3-0.4,0.5-0.7,0.7c-0.2-0.3-0.6-0.5-0.6-0.8c-0.4-1.4,0.6-3.3,2-3.9c0.3-0.1,0.7-0.2,1-0.3c-0.2-1.6-0.5-3.1-0.7-4.7
				c-0.1-1.1-0.4-2.1-0.9-3c-0.4-1-1-1.8-1.8-2.4c-1.6-1.2-3.7-0.9-4.9,0.8c-0.4,0.5-0.7,1.1-0.9,1.7c-2.4,6.8,2,14.1,9.3,15.4
				C380.6,170.8,381.2,170.8,381.9,170.9 M358.7,414.1c-0.2,0.1-0.4,0.3-0.5,0.4c-1,0.8-2,1.7-3,2.5c-2,1.8-4,3.6-6.5,4.7
				c-1.3,0.6-2.8,1-4.3,1.6c1.4,0.8,2.8,1.8,4.2,2.4c1,0.4,2.2,0.6,3.3,0.5c4.4-0.5,7.8-2.8,10.6-6.1c0.2-0.2,0.3-0.6,0.4-0.9
				C360.5,418.4,359.5,416.3,358.7,414.1 M424.8,168.8c0.6-0.2,1.1-0.3,1.6-0.5c4.4-2,7.3-7.8,6.4-12.5c-0.2-1-0.6-1.9-1.3-2.6
				c-0.9-0.8-1.9-1-2.9-0.3c-0.6,0.4-1.2,1-1.7,1.6c-0.4,0.5-0.7,1-1,1.6c-0.1,0.2-0.3,0.5-0.3,0.8c0,1.2,0,2.4,0,3.6
				c0,0.4,0.1,0.6,0.5,0.7c1.8,0.6,2.8,3,1.8,4.5c-0.1,0.1-0.3,0.2-0.4,0.4c-0.1-0.1-0.3-0.3-0.3-0.4c-0.2-0.6-0.3-1.2-0.5-1.8
				c-0.2-0.7-0.5-1.2-1.1-1.6C425.3,164.4,425.1,166.5,424.8,168.8 M354.3,165c0.2,0.1,0.4,0.3,0.6,0.4c0.8,0.7,1.7,1.5,2.5,2.3
				c1.2,1.3,1.2,2.7,0.3,4.2c-0.4,0.7-1,1.3-1.8,1.4c-0.9,0.1-1.9,0.2-2.8-0.2c-0.2-0.1-0.5,0-0.6,0.1c-0.1,0.1,0,0.4,0,0.5
				c0.3,0.7,0.9,1,1.9,0.9c1.5-0.2,3-0.5,4.3-1.3c1.7-1,2.8-2.4,3.2-4.3c0-0.3-0.1-0.7-0.3-0.8c-1.3-1.2-2.7-2.4-4.1-3.4
				c-1.5-1.2-1.6-1.1-3,0.1C354.3,164.9,354.3,165,354.3,165 M359.3,174.8c1.6,0.4,3.2,0.4,4.7,0c1.4-0.4,1.8-0.9,1.4-2.3
				c-0.6-2.5-1.9-4.7-3.3-6.9c-0.4-0.7-1.2-0.9-2.1-0.7c0.2,0.2,0.4,0.4,0.6,0.5c0.6,0.5,1.2,1.1,1.8,1.6c0.9,0.7,1,1.5,0.8,2.6
				c-0.5,2-1.6,3.6-3.3,4.8C359.7,174.5,359.5,174.6,359.3,174.8 M460.7,162.6c0-0.1,0-0.1,0-0.2c-0.6-0.3-1.1-0.5-1.7-0.8
				c-1.1-0.5-0.8-0.6-1.6,0.3c-1.3,1.6-2.5,3.3-3.3,5.2c-0.2,0.4-0.3,1-0.2,1.4c0.2,0.8,1.5,1.5,2.3,1.4c0-0.6-0.1-1.3,0.2-1.7
				c0.9-1.8,1.8-3.6,2.7-5.5c0.1-0.1,0.3-0.2,0.5-0.2C460.1,162.5,460.4,162.5,460.7,162.6 M455.5,161.9c-0.7,0.2-1.4,0.4-2.1,0.6
				c-0.8,0.2-1.3,0.7-1.5,1.5c-0.3,1.3-0.6,2.6-0.8,3.8c-0.2,1.5,0.5,2.2,2.1,2.1c-1-1-0.9-2.1-0.5-3.3c0.2-0.5,0.4-0.9,0.6-1.4
				C454.1,164.2,454.8,163.1,455.5,161.9 M454.1,171.6c-0.9-0.1-1.7-0.1-2.5-0.1c0,0-0.1,0.1-0.1,0.1c0.5,0.7,1.1,1.4,1.7,2.2
				C453.6,172.9,453.8,172.3,454.1,171.6 M363.8,176.4c-1.1,0.1-2.1,0.1-3.1,0.2c0.1,0.3,0.2,0.6,0.4,0.9
				C362.1,177.4,363,177.2,363.8,176.4"/>
			<path class="st12" d="M430.1,272.2c-0.8,0.2-1.5,0.4-2.1,0.6c-4.6,1.8-9.2,3.2-14.1,4.1c-6.7,1.2-13.4,0.7-20-1.1
				c-2.2-0.6-4.3-1.2-6.5-1.8c-5.8-1.5-6.7-1.6-12.5-1.3c0.1-0.3,0.2-0.5,0.3-0.7c2-5.1,3-10.4,3.7-15.7c1.9-15.6,2.4-31.3,1.5-47.1
				c-0.2-4.5-0.9-9-1.4-13.5c0-0.2,0-0.4-0.1-0.7c0.7-0.1,1.4-0.2,2.1-0.2c1.1-0.1,2.2,0,3.3-0.1c0.4,0,0.5,0.2,0.6,0.5
				c0.4,2.1,0.7,4.1,1.3,6.2c0.6,2.5,2.2,4.3,4.5,5.4c2.6,1.3,5.4,1.8,8.2,2.1c4.3,0.4,8.5,0.3,12.7-1c3.9-1.1,7.2-3.3,10.3-5.8
				c0.9-0.8,1.2-1.9,1.2-3c0-0.6,0-1.2,0-1.9c2.1,0,4.1-0.1,6.2,0.2c-0.4,3.4,0,6.7,0.2,10c0.1,2.3,0.2,4.7,0.6,7
				c0.6,3.3,0.3,6.6,0.6,9.9c0.8,9.3,0.2,18.6-0.3,27.9c-0.2,4.1-0.3,8.2-0.3,12.3c0,2.3,0.1,4.5,0.1,6.8
				C430.1,271.7,430.1,272,430.1,272.2 M409.7,224.6c0.2-1.2,0.3-2.2,0.5-3.2c0.2-1.2-0.2-1.7-1.4-1.5c-1.7,0.1-3.5,0.3-5.2,0.5
				c-0.5,0-0.9,0.3-1.1,0.7c-0.2,0.5-0.5,0.9-0.9,1.3c-2,2.7-4.1,5.5-6.1,8.2c-0.3,0.4-0.7,0.7-1.1,1.1c-1.9,1.7-4,3.2-5.8,5
				c-1.8,1.7-3.3,3.6-4.1,6c-1.3,4,0.5,7,4.6,7.9c0.1,0,0.2,0,0.3,0.1c2.8,0.4,5.5-0.1,8.2-0.8c0.5-0.1,1-0.3,1.4-0.4
				c0.4,0.9,0.6,0.9,1.5,1.1c1.9,0.3,3.8,0.6,5.7,0.9c1.2,0.2,1.7-0.2,1.7-1.4c0-1.4,0-2.9,0-4.3c0-0.5,0.2-0.8,0.6-1
				c4.1-2.8,7.7-6.1,10.5-10.2c0.9-1.4,1.8-2.8,2.2-4.5c0.7-2.8-0.5-4.8-3.3-5.4c-2.4-0.6-4.8-0.5-7.3,0
				C410.4,224.4,410.1,224.5,409.7,224.6"/>
			<path class="st13" d="M432.6,337.4c-1.5,0.2-2.8,0.4-4.2,0.5c-4.9,0.6-9.8,1.1-14.7,1.2c-0.8,0-1.5,0-2.3-0.1
				c-0.3,0-0.5-0.2-0.4-0.5c0.1-0.3,0.1-0.6,0.2-0.9c0.8-2.3,0.6-4.7,0.2-7.1c-0.9-4.4-2-8.7-3-13c-1.6-6.4-3.4-12.7-4.5-19.2
				c-0.4-2.1-0.6-4.3-0.8-6.4c-0.1-0.4-0.1-0.8-0.2-1.2c-0.2-1.1-0.9-1.8-2-2.1c-0.5-0.1-1-0.2-1.6-0.3c-2.2-0.2-4.4-0.5-6.7-0.7
				c-0.1,0-0.2-0.1-0.3,0c-0.3,0.1-0.5,0.3-0.7,0.4c0.2,0.2,0.3,0.6,0.5,0.7c0.7,0.2,1.4,0.4,2.2,0.5c1.7,0.3,3.5,0.5,5.2,0.8
				c1.4,0.2,1.6,0.4,1.8,1.8c0.4,2.8,0.7,5.6,1.1,8.3c0,0.4-0.2,0.9-0.3,1.3c-1.6,7.9-3.2,15.8-4.8,23.7c-0.7,3.4-1.4,6.7-2.2,10.1
				c-0.2,1-0.5,1.1-1.6,1.2c-1.4,0.1-2.7,0.2-4,0.4c-3.1,0.6-6.2,0.8-9.4,0.8c-4.9-0.1-9.8-0.3-14.7-1c-0.8-0.1-1.6-0.3-2.4-0.5
				c-0.2,0-0.4-0.2-0.6-0.3c0-0.1,0-0.2,0.1-0.3c1.9-3.6,3-7.5,4.3-11.3c2.9-9,4.9-18.2,6.9-27.4c1.6-7.2,3.2-14.5,4.7-21.7
				c0.2-0.9,0.2-0.9,1.1-0.8c3.3,0.3,6.5,1.2,9.7,2.1c3.8,1,7.5,2.1,11.4,2.6c5.9,0.8,11.7,0.3,17.4-1.1c0.2-0.1,0.4-0.1,0.7-0.2
				c0.1,0.9,0.3,1.8,0.4,2.6c1.5,9.2,3.6,18.4,6,27.4c0.8,2.9,1.1,5.8,1.7,8.8c1.2,6,3.1,11.8,4.8,17.6
				C431.9,335.2,432.3,336.2,432.6,337.4 M397.6,290.7c0-0.1,0-0.2,0-0.2c-0.4,0-0.8-0.1-1.3-0.1c-1.2,0.1-2.4,0.2-3.6,0.3
				c-3.7,0.4-7.3,1.2-10.9,2.2c-0.5,0.1-1.1,0.3-0.9,0.9c0.1,0.7,0.7,0.6,1.2,0.5c2.4-0.3,4.9-0.5,7.3-0.8c0.1,0,0.3-0.1,0.4-0.1
				l0-0.1h-4.3c0-0.1,0-0.1,0-0.2C389.5,292.2,393.6,291.4,397.6,290.7 M386.6,302.2l0.1,0.1c0.3-0.2,0.7-0.5,1-0.7
				c3-2.3,5.9-4.7,8.9-7c0.9-0.7,1.7-1.3,2.6-1.9c0.1-0.1,0.2-0.3,0.2-0.5c-0.2,0-0.4-0.1-0.6,0c-0.6,0.3-1.2,0.6-1.7,1
				c-3.7,2.5-7,5.5-10.2,8.6C386.8,301.9,386.7,302.1,386.6,302.2"/>
			<path class="st14" d="M431.4,151c-1.2-0.3-2.4-0.3-3.5,0.3c-1.1,0.6-1.8,1.5-2.5,2.5c0-1-0.4-1.9,0-2.9c0.1-0.2,0-0.6-0.1-0.9
				c-0.4-0.8-0.9-0.9-2.3-1.1c0.2-0.4,0.3-0.7,0.4-1.1c0.2-0.5,0.4-1,0.5-1.5c0.2-1.1-0.3-1.8-1.4-2c-0.7-0.1-1.4-0.1-2.2-0.2
				c-1.2-0.2-2.3-0.6-3-1.6c-0.3-0.5-0.9-0.4-1.2,0.1c-1,1.8-3.3,2.6-5.1,1.7c-0.5-0.2-1-0.5-1.4-0.9c-0.9-0.8-1.4-0.6-1.9,0.4
				c-1.2,2.5-3.3,4.2-5.8,5.3c-0.1,0-0.1,0-0.3,0c0.3-0.4,0.5-0.8,0.7-1.2c0.1-0.4,0.2-0.9,0.1-1.2c-0.2-0.5-0.7-0.3-1.1-0.2
				c-1.1,0.2-2.2,0.5-3.2,0.6c-1.4,0.1-2.1-0.6-2.3-2c-0.1-0.4-0.1-0.8-0.1-1.3c-0.1-0.8-0.6-1.2-1.4-0.9c-0.5,0.2-1,0.5-1.5,0.7
				c-0.3,0.1-0.6,0.3-0.9,0.4c-1.8,0.8-3.5,0.6-5-0.8c-0.6-0.6-1.2-1.1-1.8-1.6c-1.1-1-2-0.9-2.8,0.2c-0.6,0.8-1.1,1.7-1.5,2.7
				c-1.1,2.6-1.6,5.4-1.6,8.2c0,0.2-0.1,0.4-0.1,0.8c-1.8-2.5-3.9-3.6-6.7-2.7c-0.3-0.4-0.5-0.8-0.8-1.2c-0.9-1.1-1-2.3-0.6-3.6
				c0.5-1.4,1.3-2.5,2.4-3.5c1.2-1,1.3-1.3,0.7-2.8c-0.2-0.5-0.1-0.9,0.3-1.3c0.5-0.4,1-0.8,1.4-1.2c1-0.8,1.2-1.5,0.5-2.6
				c-1.6-2.4-1.4-4.7-0.1-7.1c1.1-1.9,2.5-3.5,4.1-5c1-0.9,2-1.7,3-2.6c0.6-0.5,1.1-0.6,1.8-0.3c0.8,0.3,1.6,0.6,2.3,1
				c0.9,0.5,1.7,0.6,2.7,0.4c1.8-0.3,3.6-0.6,5.4-0.7c2-0.1,3.8,0.6,5.2,1.9c0.7,0.7,1.5,0.8,2.4,0.5c0.6-0.2,1.2-0.5,1.9-0.7
				c0.8-0.3,1.5-0.6,2.3-0.7c2.6-0.6,4.8,0.4,6.1,2.8c0.2,0.4,0.4,0.9,0.6,1.3c0.3,0.9,0.8,1.1,1.7,0.7c0.5-0.2,0.9-0.4,1.4-0.6
				c1-0.4,1.9-0.5,2.9-0.2c1.9,0.5,3.3,1.6,4.4,3.2c0.6,0.9,0.7,1.8,0.1,2.8c-0.6,1-0.1,1.7,1,1.7c1.3,0.1,2.6,0.1,3.9,0.3
				c1.2,0.2,2.3,0.6,3.2,1.5c1.1,1.2,1.3,2.4,0.4,3.8c-0.5,0.8-0.5,1.2,0.1,2c1.1,1.4,1,2.1-0.4,3.2c-0.1,0.1-0.2,0.2-0.3,0.2
				c-0.7,0.7-0.8,1.2-0.3,2c0.7,1,0.7,1.4-0.2,2.2C430.9,149.4,431,150.1,431.4,151"/>
			<path class="st15" d="M394.3,144.5c0.1,1.5,0.4,3,1.9,3.7c1.4,0.7,2.8,0.4,4.3,0.1c-0.1,0.3-0.2,0.5-0.2,0.7
				c-0.3,1,0.2,1.7,1.2,1.6c0.7-0.1,1.4-0.3,2.1-0.6c2.3-1.2,4.2-2.9,5.6-5.3c2.8,2,5.4,1.6,8-0.6c1.4,1.1,3,1.4,4.7,1.5
				c0.9,0,1,0.2,0.7,1c-0.2,0.6-0.5,1.1-0.7,1.7c-0.5,1.3,0.1,2.1,1.4,2.1c1,0,0.9,0,0.9,1c-0.1,3.2-0.1,6.4-0.3,9.6
				c-0.2,2.5-0.4,5-0.9,7.5c-0.9,4.4-3.3,8.1-6.9,10.8c-0.6,0.5-1.2,1.1-1.7,1.7c-0.7,0.7-1.4,1.5-2.2,2.2c-0.8,0.7-1.8,1.2-2.7,1.9
				c-1.6,1.2-3.4,1.5-5.4,1.2c-2.4-0.3-4.6-1-6.9-1.9c-0.1,0-0.2-0.1-0.2-0.1c-1.2-1.5-2.9-2.1-4.5-3.1c-4.1-2.6-7-6.2-8.6-10.8
				c-0.4-1.3-0.9-2.5-1.2-3.8c-0.8-3.6-1.5-7.3-2.3-10.9c0-0.1-0.1-0.4,0-0.4c0.6-0.4,0.4-1.1,0.4-1.6c-0.1-3.5,0.6-6.9,2.2-10
				c0.8-1.6,0.9-1.5,2.1-0.4c0.5,0.5,1,0.9,1.5,1.4c1.6,1.4,3.4,1.7,5.4,0.9C392.6,145.3,393.4,144.9,394.3,144.5 M412.5,152.5
				c-0.4,0.1-1,0.1-1.6,0.3c-2.1,0.6-3.9,1.7-5.1,3.6c-0.2,0.4-0.3,0.9-0.3,1.3c0,0.3,0.1,0.6,0.1,0.8c-0.2,2.1,0.8,3.7,2.8,4.3
				c1.3,0.4,2.6,0.5,3.8,0.2c2.5-0.5,4.6-1.5,5.8-3.9c0.9-1.6,0.6-3.3-0.6-4.7C416.3,153.1,414.6,152.6,412.5,152.5 M390,164.5
				c1.8,0,3.1-0.2,4.4-0.8c1.5-0.7,2.7-2.9,2.3-4.5c-0.1-0.4-0.4-0.8-0.6-1.3c-0.6-1.7-3-3.5-4.8-3.6c-2.9-0.1-5.8,2.1-6.4,5
				c-0.5,2.4,0.8,4.4,3.2,5C388.9,164.4,389.7,164.5,390,164.5 M393.4,173.1c-0.6,1-0.3,1.6,0.6,2c0.2,0.1,0.3,0.2,0.5,0.3
				c1.5,1.2,3.1,2,5,2.5c1.4,0.3,2.9,0.7,4.3,0.4c3.7-0.5,6.5-2.5,8.8-5.3c0.2-0.3,0.2-0.8,0.2-1.2c0-0.2-0.4-0.4-0.6-0.4
				c-0.5-0.1-0.6,0.3-0.9,0.7c-0.2,0.3-0.5,0.6-0.9,0.6c-1.1,0.2-2.3,0.2-3.4,0.3c-3.9,0.3-7.7,0.6-11.6,0.8c-0.2,0-0.4,0-0.5,0
				C394.4,173.6,393.9,173.4,393.4,173.1 M417.6,148.2c-3.8,0.1-7.1,0.8-10.2,2.1c-0.7,0.3-1.4,0.7-2.1,1.1
				c-0.3,0.2-0.6,0.5-0.3,0.9c0.2,0.2,0.6,0.3,0.9,0.2c0.5-0.1,0.9-0.3,1.3-0.5c3.9-1.5,8-2.5,12.3-2c0.2,0,0.5,0,0.7-0.1
				c0.6-0.2,0.8-0.9,0.3-1.3c-0.2-0.2-0.6-0.4-0.9-0.4C418.8,148.3,418,148.2,417.6,148.2 M386.3,150.7c-0.4,0-0.9,0-1.3,0
				c-0.8,0.1-1.6,0.1-2.3,0.2c-0.5,0.1-0.9,0.4-0.8,0.9c0,0.5,0.5,0.7,1.1,0.7c0.1,0,0.2,0,0.3,0c2.8-0.4,5.5-0.3,8.2,0.3
				c1.4,0.3,2.8,0.8,4.2,1.2c0.2,0.1,0.5-0.1,0.8-0.1c-0.1-0.3-0.1-0.6-0.3-0.8c-0.4-0.3-0.8-0.6-1.3-0.8
				C392.2,151.1,389.3,150.8,386.3,150.7 M401.8,169.7c0.3,0,0.8,0,1.2-0.1c0.7-0.1,1.5-0.3,2.2-0.6c0.5-0.2,0.8-0.5,0.6-1
				c-0.2-0.5-0.6-0.5-1.1-0.4c-0.1,0-0.1,0-0.2,0.1c-1.6,0.5-3.3,0.5-4.9,0.2c-0.4-0.1-0.7-0.2-1.1-0.4c-0.8-0.4-0.9-0.7-0.4-1.5
				c0.3-0.4,0.7-0.7,1-1.1c0.1-0.1,0.3-0.4,0.2-0.5c-0.1-0.2-0.3-0.3-0.5-0.3c-0.1,0-0.3,0-0.4,0c-1,0.3-1.9,1.4-2,2.5
				c-0.1,1,0.4,1.7,1.5,2.3C399.1,169.5,400.4,169.7,401.8,169.7"/>
			<path class="st15" d="M373.6,416.2c-3.3,0.5-6.5,1.5-9.9,1.3c-0.8,0-2.2-1.1-2.4-1.9c0-0.1,0-0.3,0-0.4c1.3-3.3,1.9-6.7,2.4-10.1
				c1.3-8.7,2.6-17.4,3.9-26c0.9-5.8,1.8-11.7,2.6-17.5c1-7.1,1.7-14.2,1.8-21.4c0-0.3,0-0.5,0-0.9c6.1,0.2,12.1,0.7,18.1-0.6
				c0,0.3,0.1,0.5,0.1,0.7c0.6,4.5,0,9-0.9,13.4c-1.3,6.7-2.8,13.3-5.4,19.6c-1.9,4.8-4,9.5-5.9,14.3c-1.9,4.8-3.6,9.6-5.2,14.5
				c-1.6,4.8-1.1,9.7,0.5,14.5C373.4,415.8,373.5,416,373.6,416.2"/>
			<path class="st15" d="M430.1,197.6c1.5,0.6,3,1.1,4.3,1.7c4.1,1.9,8.1,3.9,12.2,5.8c3.9,1.8,7.8,3.3,11.9,4.4
				c0.9,0.2,1.7,0.4,2.7,0.6c0.3,1.4,1,2.6,2.2,3.7c0-0.3,0-0.6,0-0.8c-0.2-1.9-0.6-3.8-0.7-5.7c-0.2-3.2,0.3-6.3,1.5-9.3
				c0.9-2.3,1.7-4.6,2-7c0.5-5.3-2.7-8-5.9-9.3c-0.6-0.2-1.2-0.4-1.8-0.5c-1.7-0.3-3-1.2-4.2-2.2c-0.7-0.6-0.8-1.2-0.7-2.1
				c0.2-1.6,0.9-2.9,1.6-4.3c0.1-0.3,0.5-0.5,0.8-0.5c1.3,0,2.5,0.3,3.8,0.8c-0.6,1.5-1.6,2.3-3,2.8c-0.2,0.1-0.5,0.1-0.6,0.2
				c-0.2,0.2-0.6,0.6-0.5,0.7c0.1,0.3,0.5,0.5,0.8,0.6c0.3,0.1,0.6,0,0.9-0.2c1-0.5,1.9-1.1,2.9-1.7c0.9,1.9,2.9,3,4.6,4.3
				c0.3,0.2,0.8,0.4,1.2,0.5c0.5,0.1,0.8-0.2,0.5-0.7c-0.2-0.4-0.5-0.7-0.8-1c-1-0.9-2.1-1.7-3.1-2.5c-0.9-0.7-0.9-0.9-0.5-1.9
				c0.6-1.5,1.2-3.1,1.8-4.6c0.1-0.3,0.4-0.6,0.6-1c0.1,0,0.2,0,0.6-0.1c-0.9-1-1.7-1.8-2.9-2.2c-0.2-0.1-0.6,0.2-0.7,0.3
				c-0.1,0.2,0,0.6,0.2,0.8c0.3,0.3,0.6,0.4,1,0.6c0.3,0.2,0.4,0.4,0.2,0.7c-0.2,0.2-0.3,0.5-0.4,0.8c-0.2,0.8-0.7,1.1-1.5,1
				c-0.8-0.1-1.6-0.2-2.3-0.4c-0.9-0.3-1-0.6-0.7-1.5c0.3-0.7,0.6-1.4,0.9-2.2c0.4-0.8,0.7-1.7,1-2.5c2.4,0.4,4.8,0.9,7.1,1.3
				c1,0.2,1.6,0.6,1.8,1.6c1,4.1,2.2,8.3,3.1,12.4c0.4,1.6,0.3,3.2,0.5,4.8c0.8,9.4,1.6,18.9,2.3,28.3c0.2,2,0.3,3.9-0.1,5.9
				c-0.3,1.5-1.2,2.2-2.7,2.6c-2.9,0.7-5.8,0.5-8.7,0.3c-9.3-0.6-18.6-2-27.9-3.3c-1-0.1-2.1-0.4-3.1-0.7c-0.2,0-0.3-0.4-0.4-0.6
				c-0.2-2.2-0.4-4.5-0.6-6.7c-0.4-3.8-0.8-7.6-1.2-11.4C430.1,198,430.1,197.9,430.1,197.6"/>
			<path class="st15" d="M426.3,340.1c5.8-0.8,11.5-1.7,17.3-2.5c0.2,0.8,0.4,1.7,0.6,2.6c2.8,12.6,5.6,25.2,8.4,37.8
				c1.8,8,4.4,15.7,7.1,23.4c1,2.8,2,5.5,3.1,8.3c0.1,0.2,0.1,0.4,0.2,0.7c-1.3-0.8-2.7-1.1-4.1-1.2c-0.7-0.1-1.3-0.1-2,0
				c-0.6,0.1-1.1,0.4-1.8,0.7c-0.3-0.3-0.6-0.7-0.9-1.1c-2.2-2.7-4.5-5.5-6.7-8.2c-2.2-2.7-4.1-5.7-5.7-8.8
				c-1.6-3.3-3.1-6.5-4.5-9.8c-2-4.6-2.6-9.6-3-14.6c-0.5-6.3-1.3-12.5-2.4-18.7c-0.4-2.1-1.3-4-2.8-5.5c-0.8-0.8-1.6-1.6-2.4-2.4
				C426.6,340.4,426.4,340.3,426.3,340.1"/>
			<path class="st15" d="M353.5,180.4c1.1,0.6,2.3,0.7,3.6,0.7c-0.2-0.4-0.3-0.8-0.5-1.2c-0.1-0.1-0.2-0.2-0.3-0.2
				c-0.1-0.1-0.3,0-0.4-0.1c-1.8-0.2-1.9-0.5-2-2.3c0-0.2,0.2-0.5,0.4-0.5c0.8-0.3,1.7-0.5,2.5-0.6c0.7-0.1,1.4,0,2.1,0.1
				c0.6,0.1,0.8,0.6,0.7,1.2c-0.1,0.5,0,0.9,0,1.4c0,0.4,0,0.9-0.2,1.2c-0.6,1-1.1,2-1.8,2.9c-1.3,1.7-3.1,2.6-5.3,2.5
				c-1.7-0.1-3.1,0.6-4.5,1.6c-0.9,0.6-1.7,1.3-2.4,2.1c-1.1,1.3-1.7,2.9-1.9,4.5c-0.4,2.4-0.7,4.8-0.9,7.1
				c-0.3,2.9-0.4,5.7-1.2,8.5c-0.4,1.5-1,2.8-1.8,4.1c-0.3,0.5-0.5,1-0.7,1.5c-0.2,0.4,0,0.6,0.4,0.5c0.7-0.1,1.2-0.5,1.7-1.1
				c1.1-1.4,1.7-3,2.1-4.7c0.1-0.4,0.2-0.8,0.3-1.3c0.6,0.1,1.1,0.2,1.7,0.2c1.5,0.1,2.9-0.3,4.2-0.8c2.2-0.9,4.3-1.8,6.4-2.9
				c5.1-2.5,10.2-5.1,15.4-7.6c1.3-0.6,2.8-1.1,4.2-1.5c0.8-0.3,1.7-0.4,2.7-0.5c0.4,6.3,0.7,12.5,1.1,18.8
				c-0.5-0.1-0.9-0.1-1.2-0.1c-2.7-0.4-5.4,0-8,0.2c-10.4,0.6-20.7,2.3-30.9,4.4c-2.6,0.5-5.2,0.9-7.8,1.3c-1,0.2-1.6-0.4-2.2-1
				c-1-1-1.4-2.2-1.5-3.6c-0.1-3.2,0.7-6.2,2.2-8.9c0.9-1.5,1.8-3,2.8-4.5c1.6-2.6,2.8-5.4,3.8-8.2c0.8-2.3,1.9-4.5,3-6.7
				c1.7-3.2,3.3-6.6,4.9-9.9c1.3-2.6,2.6-5.1,4-7.6c0-0.1,0.1-0.2,0.2-0.3c0.9-1,1.8-2.1,2.7-3.1c0.3-0.4,0.8-0.5,1.3-0.3
				c1.8,0.8,3.3,1.9,4.4,3.5c0.6,0.9,0.2,1.6-0.2,2.3c-0.4,0.7-1.1,0.9-1.9,0.8c-0.2,0-0.6-0.1-0.7-0.3c-0.4-0.7-1.2-1.2-0.8-2.2
				c0.2-0.4-0.1-0.5-0.5-0.5c-0.5,0.1-0.7,0.4-0.8,0.8c-0.6,2.5-0.5,4.9,0.4,7.3c0.5,1.2,0.2,2.1-0.6,3c-1.5,1.7-3.1,3.2-4.9,4.6
				c-0.4,0.3-0.8,0.5-1,0.9c-0.2,0.2-0.2,0.7-0.1,0.8c0.2,0.2,0.6,0.3,0.9,0.3c0.4-0.1,0.7-0.3,1-0.6c2.2-1.6,4.2-3.4,5.8-5.6
				C353.3,180.7,353.4,180.6,353.5,180.4"/>
			<path class="st13" d="M335.9,438.7c-2.7-0.1-4.6-0.2-6.6-0.3c-1.5,0-2.5-0.8-3-2.2c-0.7-1.9-0.7-3.8-0.2-5.6
				c0.9-3.2,2.8-5.7,5.5-7.7c1.6-1.2,3.4-1.5,5.4-1c1.6,0.4,3.1,0.8,4.7,1.2c0.2,0.1,0.5,0.2,0.7,0.3c0.9,0.6,1.8,1.3,2.7,2
				c3.2,2.7,6.7,3.1,10.6,1.7c3-1.1,5.6-2.8,7.7-5.3c0.5-0.6,0.8-1.4,1.2-2.1c0.1-0.2,0.3-0.4,0.4-0.4c2.7-0.4,5.4-0.8,8.1-1.2
				c0.5-0.1,1.1-0.1,1.7-0.1c1.1,0.1,1.7,0.6,1.7,1.7c0,1.4,0,2.9-0.2,4.3c-0.3,2.2-0.7,4.3-1.1,6.5c0,0,0,0,0,0.1
				c-0.4,2.4-0.7,2.6-3.1,2.9c-5.2,0.7-10.4,1.4-15.6,2.3c-4.5,0.9-8.9,1.9-13.4,2.4C340.4,438.5,337.8,438.6,335.9,438.7"/>
			<path class="st15" d="M386.1,194.7c1.4,0.2,2.5,0.3,3.7,0.4c0.4,0,0.7,0.1,1.1,0.1c2,0.3,3-1.2,3.1-2.9c0.1-2.7,0.1-5.4-0.7-8.2
				c1,0.5,1.9,0.9,2.7,1.4c2.4,1.3,4.9,2.2,7.6,2.5c3,0.3,5.6-0.8,8.1-2.5c0.4-0.3,0.9-0.6,1.4-0.9c0,0.2,0,0.4,0,0.5
				c-0.2,2.7,0,5.4,1.3,7.8c0.3,0.7,0.9,1.2,1.4,1.8c0.2,0.3,0.5,0.5,0.7,0.8c0.9,1.3,2.1,1.9,3.6,1.8c0.4,0,0.9,0,1.5,0
				c-0.2,1-0.2,2-0.5,2.9c-0.1,0.3-0.4,0.7-0.7,0.9c-5.9,5-12.7,6.9-20.3,6.3c-2.7-0.2-5.3-0.6-7.8-1.6c-2.6-1-4.2-2.8-4.9-5.5
				C387,198.5,386.6,196.7,386.1,194.7"/>
			<path class="st13" d="M464.5,412c0.2-0.4,0.6-0.4,1,0c0.3,0.4,0.7,0.8,1,1.2c0.4,0.7,0.8,1.5,1.1,2.2c1.5,3.8,3.9,7.1,6.7,10.1
				c1.7,1.7,3.2,3.6,4.7,5.5c2,2.6,1.8,5.6,0.8,8.5c-0.4,1.2-1.3,2-2.5,2.6c-2.2,1.1-4.5,1.7-6.9,1.8c-4.7,0.2-9.3-0.4-13.6-2.1
				c-1.4-0.6-2.7-1.3-3.8-2.4c-2-2.1-2.7-4.6-1.8-7.5c0.4-1.1,0.7-2.2,1.1-3.3c1.5-4.1,1.4-8.2,0.3-12.4c-0.2-0.8-0.5-1.7-0.7-2.5
				c-0.3-1.2,0-1.4,1.2-1.1c0.3,0.1,0.7,0.2,1,0.5c0.2,0.2,0.4,0.4,0.4,0.7c0.3,4.3,0.9,8.5,1.9,12.7c0.4,1.8,1.2,3.4,2.6,4.7
				c0.8,0.8,1.5,1,2.5,0.4c0.3-0.1,0.6-0.3,0.8-0.5c1.4-1.4,3.2-1.6,5-1.2c1,0.2,1.9,0.4,2.9,0.5c1.1,0.1,1.7-0.4,1.7-1.4
				c0-1.1-0.1-2.3-0.4-3.3c-0.3-1.1-0.9-2.2-1.6-3.2c-1.6-2.2-2.8-4.6-3.8-7.1C465.6,414.2,465,413.2,464.5,412"/>
			<path class="st16" d="M438.4,336.6c-1.2,0.2-2.5,0.4-3.7,0.5c-0.4,0.1-0.4-0.3-0.5-0.5c-0.9-2.8-1.7-5.6-2.6-8.4
				c-1.8-5.8-3.1-11.7-4.2-17.7c-0.7-3.7-1.9-7.2-2.7-10.9c-1.6-7.3-3.1-14.5-4.7-21.8c0-0.1,0-0.2,0-0.4c1.7-0.5,3.4-1.1,5.2-1.6
				c0,0.2,0.1,0.4,0.1,0.7c1.9,11.9,3.9,23.8,6.9,35.6c1.4,5.5,3,10.9,4.4,16.3c0.7,2.6,1.1,5.1,1.7,7.7
				C438.4,336.2,438.4,336.3,438.4,336.6"/>
			<path class="st13" d="M428.8,274.4c0.6,2,1.2,3.8,1.6,5.8c2.6,11.5,5.8,22.8,9.5,34c1.6,4.8,3.2,9.6,4.2,14.6
				c0.3,1.6,0.4,3.2,0.6,4.7c0.1,0.5,0.2,1,0.3,1.7c-1.4,0.6-3.1,0.6-4.8,1.1c-0.2-1.1-0.4-2.2-0.7-3.2c-1.6-6.2-3.2-12.4-4.8-18.5
				c-2.2-8.2-3.9-16.6-5.5-25c-0.9-4.6-1.7-9.1-2.6-13.6c-0.1-0.4,0-0.7,0.4-0.8C427.6,274.9,428.1,274.7,428.8,274.4"/>
			<path class="st12" d="M470.2,428.8c-0.9-0.2-1.8-0.3-2.6-0.5c-2.4-0.5-4.6-0.2-6.5,1.5c-0.7,0.6-0.7,0.5-1.3-0.1
				c-1-1.1-1.6-2.4-1.9-3.8c-0.9-3.9-1.5-7.8-1.8-11.8c0-0.7,0-1.4,0-2c0-0.9,0.6-1.5,1.6-1.5c1.1,0.1,2.2,0.1,3.3,0.3
				c0.6,0.1,1.2,0.5,1.7,0.9c0.2,0.1,0.3,0.5,0.4,0.7c0.1,0.1,0.1,0.3,0.1,0.4c0.8,1.7,1.4,3.5,2.3,5.2c0.9,1.7,1.9,3.4,3,5.1
				c0.9,1.4,1.6,2.8,1.8,4.4C470.2,428,470.2,428.3,470.2,428.8"/>
			<path class="st15" d="M381.9,170.9c-0.7-0.1-1.3-0.1-1.9-0.2c-7.3-1.3-11.7-8.5-9.3-15.4c0.2-0.6,0.5-1.2,0.9-1.7
				c1.2-1.6,3.3-2,4.9-0.8c0.8,0.6,1.5,1.4,1.8,2.4c0.4,1,0.8,2,0.9,3c0.1,1.6,0.4,3.1,0.7,4.7c-0.3,0.1-0.7,0.2-1,0.3
				c-1.4,0.6-2.4,2.5-2,3.9c0.1,0.3,0.4,0.5,0.6,0.8c0.2-0.2,0.6-0.4,0.7-0.7c0.2-0.4,0.1-0.8,0.2-1.2c0.3-1,0.8-1.5,1.7-1.6
				C380.7,166.4,381.3,168.6,381.9,170.9"/>
			<path class="st12" d="M358.7,414.1c0.8,2.2,1.8,4.2,4.3,5.1c-0.1,0.3-0.2,0.6-0.4,0.9c-2.8,3.3-6.2,5.6-10.6,6.1
				c-1.1,0.1-2.3,0-3.3-0.5c-1.5-0.6-2.8-1.6-4.2-2.4c1.5-0.5,2.9-1,4.3-1.6c2.5-1.1,4.5-3,6.5-4.7c1-0.8,2-1.7,3-2.5
				C358.3,414.4,358.5,414.3,358.7,414.1"/>
			<path class="st15" d="M424.8,168.8c0.3-2.3,0.5-4.4,0.7-6.6c0.5,0.5,0.9,1,1.1,1.6c0.2,0.6,0.3,1.2,0.5,1.8
				c0.1,0.2,0.2,0.3,0.3,0.4c0.1-0.1,0.3-0.2,0.4-0.4c1-1.5,0-4-1.8-4.5c-0.4-0.1-0.6-0.3-0.5-0.7c0-1.2,0-2.4,0-3.6
				c0-0.3,0.1-0.6,0.3-0.8c0.3-0.5,0.6-1.1,1-1.6c0.5-0.6,1.1-1.2,1.7-1.6c1-0.6,2-0.5,2.9,0.3c0.8,0.7,1.1,1.6,1.3,2.6
				c0.9,4.7-2,10.5-6.4,12.5C425.9,168.5,425.4,168.6,424.8,168.8"/>
			<path class="st15" d="M354.3,165c0.1-0.1,0.1-0.1,0.1-0.1c1.5-1.2,1.5-1.2,3-0.1c1.4,1.1,2.8,2.3,4.1,3.4
				c0.2,0.2,0.3,0.6,0.3,0.8c-0.3,1.9-1.5,3.4-3.2,4.3c-1.3,0.7-2.8,1.1-4.3,1.3c-0.9,0.1-1.6-0.2-1.9-0.9c-0.1-0.2-0.1-0.5,0-0.5
				c0.2-0.1,0.5-0.2,0.6-0.1c0.9,0.4,1.8,0.3,2.8,0.2c0.9-0.1,1.4-0.7,1.8-1.4c0.9-1.5,0.9-2.9-0.3-4.2c-0.7-0.8-1.6-1.5-2.5-2.3
				C354.7,165.3,354.5,165.2,354.3,165"/>
			<path class="st15" d="M359.3,174.8c0.3-0.2,0.5-0.3,0.6-0.5c1.7-1.1,2.8-2.7,3.3-4.8c0.3-1,0.1-1.9-0.8-2.6
				c-0.6-0.5-1.2-1.1-1.8-1.6c-0.2-0.1-0.3-0.3-0.6-0.5c0.9-0.2,1.6,0,2.1,0.7c1.4,2.1,2.7,4.4,3.3,6.9c0.3,1.4,0,2-1.4,2.3
				C362.4,175.2,360.9,175.3,359.3,174.8"/>
			<path class="st15" d="M460.7,162.6c-0.3,0-0.7-0.1-1-0.1c-0.2,0-0.4,0.1-0.5,0.2c-0.9,1.8-1.9,3.6-2.7,5.5
				c-0.2,0.5-0.1,1.1-0.2,1.7c-0.8,0.1-2.1-0.6-2.3-1.4c-0.1-0.4,0-1,0.2-1.4c0.8-1.9,2-3.6,3.3-5.2c0.8-0.9,0.5-0.8,1.6-0.3
				c0.6,0.3,1.1,0.5,1.7,0.8C460.7,162.4,460.7,162.5,460.7,162.6"/>
			<path class="st15" d="M455.5,161.9c-0.7,1.2-1.4,2.3-2.1,3.4c-0.3,0.4-0.5,0.9-0.6,1.4c-0.5,1.2-0.5,2.3,0.5,3.3
				c-1.6,0.1-2.3-0.6-2.1-2.1c0.2-1.3,0.5-2.6,0.8-3.8c0.2-0.8,0.7-1.3,1.5-1.5C454.1,162.3,454.8,162.1,455.5,161.9"/>
			<path class="st15" d="M454.1,171.6c-0.3,0.7-0.5,1.3-0.9,2.2c-0.6-0.8-1.2-1.5-1.7-2.2c0,0,0.1-0.1,0.1-0.1
				C452.4,171.5,453.2,171.5,454.1,171.6"/>
			<path class="st15" d="M363.8,176.4c-0.8,0.7-1.8,1-2.8,1.1c-0.1-0.3-0.2-0.6-0.4-0.9C361.7,176.6,362.7,176.5,363.8,176.4"/>
			<path class="st11" d="M409.7,224.6c0.4-0.1,0.7-0.2,1-0.2c2.4-0.5,4.9-0.6,7.3,0c2.8,0.7,3.9,2.7,3.3,5.4
				c-0.4,1.7-1.3,3.1-2.2,4.5c-2.8,4.1-6.4,7.4-10.5,10.2c-0.4,0.3-0.6,0.6-0.6,1c0,1.4,0,2.9,0,4.3c0,1.2-0.5,1.6-1.7,1.4
				c-1.9-0.3-3.8-0.6-5.7-0.9c-0.9-0.1-1.1-0.2-1.5-1.1c-0.5,0.1-0.9,0.3-1.4,0.4c-2.7,0.8-5.4,1.3-8.2,0.8c-0.1,0-0.2,0-0.3-0.1
				c-4.1-0.9-5.8-3.9-4.6-7.9c0.8-2.4,2.3-4.3,4.1-6c1.8-1.8,3.9-3.3,5.8-5c0.4-0.3,0.8-0.7,1.1-1.1c2.1-2.7,4.1-5.4,6.1-8.2
				c0.3-0.4,0.6-0.9,0.9-1.3c0.2-0.5,0.6-0.7,1.1-0.7c1.7-0.2,3.5-0.3,5.2-0.5c1.2-0.1,1.6,0.4,1.4,1.5
				C410.1,222.4,409.9,223.4,409.7,224.6 M406.1,249.5c0.5-9.4,1.4-18.7,2.3-28.1c-1.5,0.1-2.9,0.3-4.4,0.4c-0.1,0-0.3,0.2-0.4,0.3
				c-0.6,0.8-1.2,1.6-1.8,2.4c-2.8,3.5-5.5,7.1-7.6,11.1c-0.1,0.2-0.2,0.5-0.4,0.8c0.2,0,0.4,0.1,0.6,0.1c1-0.1,2-0.3,3-0.4
				c1,0,1.5-0.5,1.6-1.4c0.1-0.6,0.4-1,1-1.2c0.9-0.3,1.7-0.6,2.6-0.9c0.8-0.2,1.3,0.2,1.3,1c0,0.7,0,1.4-0.1,2.1
				c-0.6,2.9-1.2,5.8-1.9,8.7c-0.3,1.4-0.7,2.9-1.1,4.3C402.7,249,404.4,249.2,406.1,249.5 M402.4,234.4c-1,0.2-1.8,0.3-2.1,1.5
				c-0.2,1-1,1.6-2,1.7c-1.7,0.1-3.3,0.2-5,0.2c-1,0-1.4-0.6-1.1-1.6c0.2-0.5,0.4-1,0.6-1.4c-2,1.6-3.8,3.3-5.3,5.4
				c-0.8,1.1-1.5,2.3-1.7,3.7c-0.5,2.5,0.6,4.3,3,4.9c0.4,0.1,0.7,0.2,1.1,0.2c3.2,0.4,6.2-0.5,9.2-1.6c0.2-0.1,0.3-0.3,0.4-0.5
				c0.9-3.5,1.7-7,2.5-10.5C402.3,235.8,402.3,235.1,402.4,234.4 M408.2,242.8c0.3-0.2,0.4-0.2,0.6-0.3c3.2-2.3,6-4.9,8.3-8.1
				c1.1-1.5,2.2-3,2.6-4.8c0.5-2-0.2-3.1-2.2-3.6c-2.4-0.5-4.9-0.4-7.3,0.2c-0.5,0.2-0.7,0.4-0.8,1c-0.3,4.1-0.6,8.2-1,12.3
				C408.4,240.5,408.3,241.6,408.2,242.8"/>
			<path class="st11" d="M397.6,290.7c-4,0.8-8.1,1.6-12.1,2.3c0,0.1,0,0.1,0,0.2h4.3l0,0.1c-0.1,0-0.3,0.1-0.4,0.1
				c-2.4,0.3-4.8,0.6-7.3,0.8c-0.5,0.1-1.1,0.2-1.2-0.5c-0.1-0.7,0.5-0.8,0.9-0.9c3.6-1,7.2-1.7,10.9-2.2c1.2-0.1,2.4-0.2,3.6-0.3
				c0.4,0,0.8,0.1,1.3,0.1C397.6,290.5,397.6,290.6,397.6,290.7"/>
			<path class="st11" d="M386.6,302.2c0.1-0.2,0.2-0.3,0.4-0.5c3.2-3.1,6.5-6.1,10.2-8.6c0.5-0.4,1.1-0.7,1.7-1c0.1-0.1,0.4,0,0.6,0
				c-0.1,0.2-0.1,0.4-0.2,0.5c-0.9,0.7-1.8,1.3-2.6,1.9c-3,2.3-5.9,4.7-8.9,7c-0.3,0.3-0.7,0.5-1,0.7L386.6,302.2z"/>
			<path class="st11" d="M412.5,152.5c2.1,0,3.7,0.6,5,1.9c1.2,1.4,1.5,3,0.6,4.7c-1.2,2.3-3.3,3.4-5.8,3.9
				c-1.3,0.2-2.6,0.2-3.8-0.2c-2-0.6-3-2.2-2.8-4.3c0-0.3-0.1-0.6-0.1-0.8c0.1-0.4,0.1-0.9,0.3-1.3c1.2-1.9,3-3,5.1-3.6
				C411.6,152.6,412.2,152.6,412.5,152.5 M413.2,154.2c-0.9,0-1.4,0.3-1.7,1.1c-0.4,1.2-0.3,2.3,0.3,3.3c0.8,1.5,3.6,1.5,4.6,0.1
				c0.7-1,0.6-2.2-0.3-3.2C415.4,154.6,414.3,154.2,413.2,154.2 M412.5,161.2c-2.6-1.6-3-3.8-2.4-6.5c-0.8,0.5-1.6,1-2.4,1.6
				c-0.1,0.1-0.2,0.3-0.3,0.5c-0.1,0.7-0.2,1.5-0.2,2.2c0,1.1,0.5,1.7,1.5,2.1C409.9,161.5,411.1,161.4,412.5,161.2"/>
			<path class="st11" d="M390,164.5c-0.4,0-1.1-0.1-1.8-0.2c-2.4-0.5-3.7-2.5-3.2-5c0.6-2.9,3.4-5.1,6.4-5c1.8,0.1,4.2,1.9,4.8,3.6
				c0.2,0.4,0.4,0.8,0.6,1.3c0.4,1.6-0.8,3.8-2.3,4.5C393.1,164.3,391.8,164.5,390,164.5 M390.7,159c0,1.3,0.5,2.1,1.5,2.4
				c1.2,0.4,2.5-0.3,2.6-1.5c0.1-1.4-1-3.3-2.4-3.8c-0.2-0.1-0.5,0-0.6,0.2C391.1,157.2,390.8,158.1,390.7,159 M390.1,156.1
				c-0.1,0-0.1,0-0.2,0c-1.8,0.3-3.3,2.1-3.4,3.9c-0.1,0.7,0.1,1.4,0.6,1.9c0.7,0.8,2.9,1.2,4,0.8
				C388.8,160.9,388.6,159.7,390.1,156.1"/>
			<path class="st11" d="M393.4,173.1c0.5,0.2,1,0.5,1.5,0.7c0.1,0.1,0.3,0,0.5,0c3.9-0.3,7.7-0.6,11.6-0.8c1.1-0.1,2.3-0.1,3.4-0.3
				c0.3,0,0.7-0.3,0.9-0.6c0.2-0.3,0.4-0.8,0.9-0.7c0.2,0,0.6,0.3,0.6,0.4c0,0.4,0,1-0.2,1.2c-2.3,2.8-5.1,4.8-8.8,5.3
				c-1.5,0.2-2.9-0.1-4.3-0.4c-1.9-0.4-3.5-1.3-5-2.5c-0.1-0.1-0.3-0.2-0.5-0.3C393,174.8,392.8,174.2,393.4,173.1 M397.4,175.5
				c3.3,2,9.5,1.4,11.6-1.2c-0.1,0-0.1,0-0.2,0c-3.5,0.2-7,0.3-10.5,0.5C397.9,174.8,397.6,174.9,397.4,175.5"/>
			<path class="st11" d="M417.6,148.2c0.4,0,1.2,0.1,2,0.2c0.3,0,0.7,0.2,0.9,0.4c0.4,0.4,0.3,1.1-0.3,1.3c-0.2,0.1-0.5,0.1-0.7,0.1
				c-4.3-0.5-8.3,0.4-12.3,2c-0.4,0.2-0.9,0.4-1.3,0.5c-0.3,0-0.8,0-0.9-0.2c-0.3-0.3,0-0.7,0.3-0.9c0.7-0.4,1.4-0.8,2.1-1.1
				C410.5,149,413.8,148.3,417.6,148.2"/>
			<path class="st11" d="M386.3,150.7c2.9,0,5.9,0.3,8.6,1.6c0.5,0.2,0.9,0.5,1.3,0.8c0.2,0.2,0.2,0.5,0.3,0.8
				c-0.3,0-0.6,0.2-0.8,0.1c-1.4-0.4-2.8-0.9-4.2-1.2c-2.7-0.5-5.5-0.6-8.2-0.3c-0.1,0-0.2,0-0.3,0c-0.6,0-1.1-0.3-1.1-0.7
				c0-0.6,0.3-0.9,0.8-0.9c0.8-0.1,1.6-0.2,2.3-0.2C385.4,150.7,385.9,150.7,386.3,150.7"/>
			<path class="st11" d="M401.8,169.7c-1.5,0-2.7-0.2-3.9-0.7c-1.1-0.5-1.6-1.3-1.5-2.3c0.1-1,1.1-2.2,2-2.5c0.1,0,0.3-0.1,0.4,0
				c0.2,0.1,0.4,0.2,0.5,0.3c0,0.1-0.1,0.3-0.2,0.5c-0.3,0.4-0.7,0.7-1,1.1c-0.5,0.7-0.4,1.1,0.4,1.5c0.3,0.2,0.7,0.3,1.1,0.4
				c1.7,0.3,3.3,0.3,4.9-0.2c0.1,0,0.1,0,0.2-0.1c0.5-0.1,0.9-0.1,1.1,0.4c0.2,0.5-0.1,0.9-0.6,1c-0.7,0.2-1.5,0.4-2.2,0.6
				C402.6,169.7,402.1,169.7,401.8,169.7"/>
			<path class="st17" d="M406.1,249.5c-1.7-0.3-3.4-0.5-5.2-0.8c0.4-1.5,0.8-2.9,1.1-4.3c0.7-2.9,1.3-5.8,1.9-8.7
				c0.1-0.7,0.1-1.4,0.1-2.1c0-0.8-0.6-1.2-1.3-1c-0.9,0.2-1.7,0.5-2.6,0.9c-0.5,0.2-0.9,0.6-1,1.2c-0.2,0.9-0.7,1.4-1.6,1.4
				c-1,0.1-2,0.2-3,0.4c-0.2,0-0.3,0-0.6-0.1c0.1-0.3,0.3-0.5,0.4-0.8c2.1-4,4.8-7.6,7.6-11.1c0.6-0.8,1.2-1.6,1.8-2.4
				c0.1-0.1,0.2-0.3,0.4-0.3c1.5-0.1,3-0.3,4.4-0.4C407.5,230.8,406.6,240.1,406.1,249.5"/>
			<path class="st16" d="M402.4,234.4c-0.1,0.7-0.1,1.4-0.3,2c-0.8,3.5-1.7,7-2.5,10.5c0,0.2-0.2,0.5-0.4,0.5c-3,1.1-6,1.9-9.2,1.6
				c-0.4,0-0.8-0.1-1.1-0.2c-2.5-0.7-3.5-2.4-3-4.9c0.3-1.4,0.9-2.5,1.7-3.7c1.5-2.1,3.3-3.8,5.3-5.4c-0.2,0.5-0.4,0.9-0.6,1.4
				c-0.4,1,0,1.6,1.1,1.6c1.7,0,3.3-0.1,5-0.2c1.1-0.1,1.8-0.7,2-1.7C400.6,234.7,401.5,234.7,402.4,234.4"/>
			<path class="st16" d="M408.2,242.8c0.1-1.2,0.2-2.3,0.3-3.3c0.3-4.1,0.7-8.2,1-12.3c0-0.6,0.2-0.8,0.8-1c2.4-0.7,4.9-0.8,7.3-0.2
				c2,0.4,2.7,1.6,2.2,3.6c-0.5,1.8-1.5,3.3-2.6,4.8c-2.3,3.2-5.2,5.8-8.3,8.1C408.6,242.5,408.4,242.6,408.2,242.8"/>
			<path class="st18" d="M413.2,154.2c1.1,0.1,2.1,0.4,3,1.3c0.9,0.9,1,2.1,0.3,3.2c-1,1.4-3.7,1.3-4.6-0.1c-0.6-1-0.7-2.2-0.3-3.3
				C411.8,154.5,412.4,154.1,413.2,154.2"/>
			<path class="st16" d="M412.5,161.2c-1.4,0.2-2.6,0.3-3.8-0.1c-1-0.4-1.5-1-1.5-2.1c0-0.7,0.1-1.5,0.2-2.2c0-0.2,0.1-0.4,0.3-0.5
				c0.8-0.6,1.5-1.1,2.4-1.6C409.4,157.4,409.9,159.6,412.5,161.2"/>
			<path class="st18" d="M390.7,159c0-0.9,0.4-1.8,1.1-2.6c0.1-0.1,0.5-0.3,0.6-0.2c1.3,0.5,2.5,2.4,2.4,3.8
				c-0.1,1.2-1.4,1.9-2.6,1.5C391.2,161.1,390.7,160.3,390.7,159"/>
			<path class="st16" d="M390.1,156.1c-1.5,3.6-1.4,4.8,1,6.6c-1,0.4-3.2,0-4-0.8c-0.5-0.5-0.7-1.2-0.6-1.9c0.1-1.8,1.7-3.6,3.4-3.9
				C390,156.1,390.1,156.1,390.1,156.1"/>
			<path class="st16" d="M397.4,175.5c0.1-0.6,0.5-0.7,1-0.7c3.5-0.2,7-0.3,10.5-0.5c0.1,0,0.1,0,0.2,0
				C406.9,176.9,400.8,177.5,397.4,175.5"/>
		</g>
	</g>
</g>
</svg>
