<?xml version="1.0" encoding="utf-8"?>
<!-- Generator: Adobe Illustrator 22.1.0, SVG Export Plug-In . SVG Version: 6.00 Build 0)  -->
<svg version="1.1" id="Слой8_xA0_Изображение_1_"
	 xmlns="http://www.w3.org/2000/svg" xmlns:xlink="http://www.w3.org/1999/xlink" x="0px" y="0px" viewBox="0 0 552 768"
	 style="enable-background:new 0 0 552 768;" xml:space="preserve">
<style type="text/css">
	.st0{fill:#569FC2;}
	.st1{fill:#926E24;}
	.st2{fill:#3E4933;}
	.st3{fill:#660B00;}
	.st4{fill:#FF6535;}
	.st5{fill:#1E0000;}
	.st6{fill:#B71E13;}
	.st7{fill:#CB9E41;}
	.st8{fill:#4A8CAE;}
	.st9{fill:#78C0DD;}
	.st10{fill:#FFFFFF;}
</style>
<g>
	<path d="M308,615.5c-1-0.1-1.9-0.2-2.7-0.3c-1.6-0.2-2.4-0.9-2.7-2.5c-1.8-9.5-3-19.1-3.5-28.8c-0.7-13.1-1.6-26.2-2.3-39.3
		c-0.5-10.9-0.8-21.7-1-32.6c-0.5-21.8-0.9-43.6-1.4-65.4c0-1.3-0.4-1.7-1.7-1.8c-2.5-0.1-4.9-0.4-7.3-0.6c-0.1,0.2-0.2,0.3-0.2,0.3
		c-0.1,9.4-0.3,18.9-0.3,28.3c0,11,0.2,22,0.5,33c0.1,3.7,0.7,7.4,1,11.1c0.4,4.9,0.7,9.8,1,14.7c0.5,10.8,1.1,21.6,1.5,32.4
		c0.4,11.5,0.8,23.1-0.4,34.6c-0.4,3.6-1.2,7.1-2,10.6c-0.2,0.8-1,1.6-1.7,2c-1.6,0.8-3.4,1.4-5.1,2c-0.7,0.2-1,0.4-1,1.2
		c0.2,13.9,0.5,27.8,0.6,41.6c0.1,9.9-0.1,19.8-0.2,29.7c-0.1,4.8-0.1,9.6-0.5,14.4c-0.6,6.4-1.5,12.7-2.5,19
		c-0.6,3.6-1.4,7.2-2.5,10.7c-3.1,10.1-10.1,16.6-20.1,19.6c-13.5,3.9-27.3,6.3-41.4,5.9c-5.8-0.2-11.7-0.6-17.4-2
		c-3-0.7-5.7-1.8-7.9-4c-1.7-1.7-2.4-3.7-1.9-6c0.6-3.4,2-6.4,4.6-8.7c3.1-2.8,6.8-4.5,10.6-6c5.4-2,10.8-3.8,16.1-6
		c5.6-2.3,10.7-5.8,15.5-9.5c5-3.8,7.4-9.1,8.1-15.2c1.3-10.6,1.8-21.2,1-31.9c-1-14.8-2.4-29.6-3.6-44.4c-0.3-3.6-0.3-7.3-0.6-10.9
		c0-0.7-0.4-1.5-0.8-2c-2.9-2.7-5.8-5.5-8.9-8c-2.4-1.9-3.1-4-2.3-7c1.7-6.7,3-13.6,4.7-20.3c3.1-11.9,4-24,3.2-36.3
		c-1-16.4-1.8-32.9-2.9-49.3c-1-14.7-2.4-29.4-3.7-44.1c-1.3-15-2.6-30-2.7-45c0-0.2,0-0.4,0-0.7c-1.5-0.4-2.9-0.7-4.4-1
		c-2.8-0.6-4.5-2.4-4.3-5.3c0.1-1.6,0.6-3.2,0.9-4.7c-7.5-0.9-14.9-3.4-22.4-5.5c-11.1-3.1-22.2-6.3-33.3-9.6
		c-7.3-2.2-13.7-5.9-19.2-11.2c-3.8-3.7-5.4-7.9-3.5-13c0.4-1.1,0.9-2.2,1.3-3.4c6.4-17.3,15.7-33.2,24.2-49.4
		c3.3-6.2,6.4-12.4,9.2-18.9c0.3-0.6,0.2-1.1-0.3-1.6c-0.9-1-1.8-2.2-2.6-3.3c-0.7-1-0.9-2.1-0.3-3.3c1.3-2.7,2.5-5.5,4-8.2
		c3.7-6.6,7.7-13.1,11.3-19.8c4.9-8.9,10.8-17.2,16.6-25.6c1.7-2.4,3.3-4.9,5.1-7.2c0.5-0.7,1.4-1.2,2.2-1.5
		c2.1-0.7,4.2-1.2,6.4-1.8c0-0.2,0-0.4,0-0.6c-0.1-1.6,0.3-2.4,1.9-2.6c3-0.5,6.1-0.8,9.2-1.1c1.2-0.1,2-0.4,2.9-1.4
		c3.3-4.1,7.5-7.1,12-9.8c4.3-2.5,8.7-4.5,13.8-4.4c1.3,0,1.5-0.6,1.7-1.6c0.6-4.5,0.5-9.1,0.1-13.7c-0.1-1.5-0.2-3-0.4-4.4
		c-0.1-0.4-0.2-1-0.5-1.3c-2.3-1.7-4.5-3.5-6.2-6.3c-4.5,3.1-8.9,6.2-13.5,9.4c2.4,0.9,3.9,2.3,4.6,4.5c0.6,1.8,0.4,3.6-0.2,5.4
		c-1.3,3.4-3.4,4.6-7.5,4.1c-0.1,0.5-0.1,1.1-0.3,1.6c-0.4,1.2-0.8,2.5-1.5,3.5c-1.4,2.2-3.7,2.6-6,1.3c-0.2-0.1-0.5-0.3-0.7-0.4
		c-0.9,1.4-1.8,2.9-2.8,4.2c-1.8,2.3-4.1,3.9-7.1,4.3c-0.6,0.1-1.3,0.1-1.9,0.1c-4.3-0.4-6-3.9-3.6-7.5c0.4-0.6,0.9-1.2,1.4-1.9
		c-0.2-0.1-0.4-0.2-0.6-0.3c-2.7-1.2-3.4-3-2.3-5.7c1.2-2.9,3.6-4.7,6.5-5.7c1.2-0.4,2.4-0.7,3.5-1c-1.1-3.6-0.3-6,2.9-8
		c4-2.5,8.2-3.2,12.6-0.8c0.2,0.1,0.7,0.1,1,0c4.5-3.2,9-6.4,13.7-9.8c-0.4-0.7-0.8-1.6-1.3-2.6c-1.3,0.7-2.5,1.3-3.8,1.9
		c-6.1,3-12.3,5.7-18.8,7.4c-6.1,1.7-12.4,2.2-18.6,0.9c-11-2.3-18-9.6-20.1-20.7c-1.5-7.9-0.8-15.8,0.6-23.6
		c3-17.2,10.4-32.5,20.9-46.4c3.3-4.4,7.1-8.4,10.7-12.6c0.5-0.6,1-1.5,1.2-2.3c3.6-14.5,11.2-26.2,23.3-34.9
		c6.4-4.6,13.7-7.1,21.5-8.2c8.3-1.2,16.7-1.2,24.9,0.8c0,0,0.1,0,0.1,0c3.1,1.5,6.1,0.9,9.3,0.4c8.2-1.5,16.5-2.1,24.8-1.4
		c6.6,0.6,12.9,2.1,18.6,5.7c10.9,6.8,15.9,16.8,15.5,29.5c-0.2,8.3-2.6,16.1-6,23.6c-5.8,12.6-13,24.1-23,33.9
		c-1.5,1.4-1.9,2.7-1.7,4.7c0.9,9.6-2.4,17.5-10,23.5c-1.1,0.9-2.3,1.6-3.3,2.5c-0.3,0.2-0.4,0.6-0.5,1c-0.9,6.7-3.6,12.8-6.9,18.7
		c-0.9,1.5-2.4,2.7-3.5,4.1c-0.3,0.4-0.6,1-0.6,1.5c1,7.3,2.1,14.6,3.2,21.8c0.1,0.7,0.4,0.8,1.1,1c4,0.8,8.1,1.4,11.9,2.6
		c4.7,1.5,8.4,4.8,11.6,8.4c0.8,1,1,2.6,1.4,3.9c-0.1,0.1-0.2,0.2-0.4,0.3c0.7,0.1,1.4,0.2,2.1,0.3c3.3,0.6,6.5,1.1,9.8,1.7
		c1,0.2,1.9,0.6,2.3,1.7c0.1,0.3,0.6,0.5,1,0.5c2.1,0.2,4.3,0.3,6.4,0.7c0.8,0.1,1.8,0.8,2.3,1.5c1.4,2.3,2.8,4.7,4,7.1
		c9.1,18.5,19.3,36.3,30.9,53.3c0.5,0.8,1.3,1.3,1.9,2.1c0.3,0.4,0.5,1,0.4,1.4c-0.2,0.7-0.6,1.3-1.1,1.8c-1.1,1.3-2.2,2.5-3.3,3.8
		c-0.1-0.1-0.2-0.1-0.3-0.2c0.2,0.4,0.4,0.7,0.7,1.1c6.9,9.3,12.2,19.4,17,29.9c3.9,8.4,7.9,16.8,10.5,25.7c0.9,3,1.6,6,2.1,9.1
		c0.7,4.9-1.1,8.6-5.6,11c-13.1,7.3-26.6,13.9-40.1,20.6c-4,2-7.9,4.4-11.8,6.7c-0.4,0.2-0.6,0.7-0.8,1.2c-0.4,1.1-0.5,2.4-1.2,3.3
		c-1.7,2.3-3.6,4.5-5.4,6.7c-0.2,0.2-0.3,0.6-0.3,0.8c0.2,10.7,0.1,21.4,0.6,32.1c0.4,9.7,1.1,19.4,2,29.1c1.2,13.3,1.7,26.7,1.8,40
		c0.2,26.8,0.6,53.5,0.7,80.3c0,5.4,0.9,10.4,3.5,15.1c1.6,2.9,2.8,6,4.3,9c0.7,1.4,0.7,2.7-0.2,4c-2.6,3.5-5.1,7.1-7.9,10.5
		c-0.7,0.8-2.1,1.1-3.3,1.4c-0.9,0.2-1.3,0.5-1.3,1.6c-0.2,12.9-0.5,25.8-0.7,38.6c-0.4,18.3-1.1,36.5,0.4,54.8
		c0.3,4.2,1.4,8.2,3,12.1c1.5,3.6,4,6.3,7.7,7.7c4.6,1.7,9.3,3.3,13.9,4.8c5.3,1.7,9.8,4.4,13.4,8.7c1.6,1.8,2.6,3.9,2.8,6.4
		c0.2,2.4-0.8,4.2-2.8,5.4c-2.5,1.4-5.2,2-7.9,2.2c-11.2,1.1-22.2,0.3-33.1-2.6c-5.9-1.6-11.7-3.4-17.5-5.2
		c-1.8-0.6-3.5-1.6-5.2-2.5c-2.6-1.4-4.5-3.4-5.3-6.2c-1.3-4.5-2.5-9-3.6-13.6c-1.7-7.2-2-14.6-2.5-21.9
		c-0.7-11.3-1.3-22.5-2.2-33.8c-0.6-8-1.7-16-2.6-24c-1-9.4-0.8-18.9-0.7-28.4C308.1,616.6,308,616.1,308,615.5z M226.6,416
		c0.1,0,0.2,0.1,0.3,0.1c0.3-0.3,0.5-0.6,0.7-0.9c5.7-7.6,11.4-15.2,17.1-22.9c0.8-1.1,1.6-2.2,2.6-3.1c1.4-1.3,3-1,4.1,0.6
		c0.3,0.4,0.6,0.9,0.7,1.4c0.9,3.2,1.9,6.3,2.6,9.6c0.7,3.5-0.5,6.4-3.4,8.5c-2,1.5-4.1,2.9-6.1,4.2c-6.2,4-12,8.5-16.8,14.2
		c-0.4,0.5-0.7,1.4-0.7,2c0.5,6.2,1.2,12.4,1.7,18.6c1.2,13.7,2.5,27.3,3.5,41c1.1,15.8,1.9,31.7,2.8,47.5c0.7,11.6,0.2,23-2.6,34.3
		c-2,8-3.7,16.1-5.6,24.2c-0.2,0.9-0.1,1.5,0.7,2.2c3.8,3.4,7.6,6.9,11.4,10.4c0,0,0.1,0,0.2,0.1c3.1-2.4,26-5.7,30.5-4.4
		c-0.7,0.2-1.2,0.3-1.8,0.4c-4.4,0.7-8.8,1.5-13.1,2.2c-4.3,0.7-8.5,1.4-12.8,2.2c-0.7,0.1-1.3,0.4-2,0.7c0.6,1.2,1.4,1.6,2.5,1.5
		c1-0.1,1.9,0.1,2.9,0.1c6.8,0.3,13.6,0.9,20.4,1c5.5,0.1,10.8-0.8,15.9-3c0.5-0.2,1-0.7,1.1-1.2c0.6-3.1,1.4-6.2,1.7-9.3
		c1.1-12.3,0.8-24.6,0.2-36.9c-0.5-10.1-1.3-20.1-1.3-30.2c0-3.7-0.3-7.4-0.6-11.1c-0.5-5.9-1.3-11.9-1.4-17.8
		c-0.3-11.8-0.3-23.6-0.3-35.4c0-3.4,0.1-6.9,0.2-10.3c0.1-3.7,0.2-7.4,0.3-11.2c0-1.1-0.3-1.6-1.5-1.6c-1.3,0-2.6-0.2-3.8-0.4
		c-5.8-0.7-11.6-1.5-17.4-2.3c-0.8-0.1-2.1-0.1-2-1.3c0.1-1.2,1.4-0.9,2.2-0.8c7.3,0.6,14.7,1.2,22,1.8c4.1,0.4,8.2,0.7,12.3,1.1
		c2.3,0.2,3,1.1,3.1,3.3c0.1,1.8,0.2,3.7,0.2,5.5c0.5,24,1,48.1,1.6,72.1c0.2,8.1,0.7,16.1,1.1,24.2c0.5,8.5,1.1,17.1,1.5,25.6
		c0.6,12.7,1.4,25.4,3.8,37.9c0.2,1,0.5,1.3,1.5,1.4c3.6,0.3,7.2,0.7,10.9,1.1c4.8,0.5,9.7,1,14.5,0.2c6.6-1.1,13.2-2.4,19.8-3.7
		c0.6-0.1,1.2-0.5,1.5-1c2.2-2.8,4.3-5.6,6.5-8.5c0.6-0.8,0.7-1.5,0.2-2.5c-1.8-3.7-3.5-7.4-5.3-11c-1.5-3-2.3-6.2-2.4-9.6
		c-0.1-6.3-0.3-12.6-0.4-19c-0.3-26.3-0.5-52.6-0.8-78.8c-0.1-5.7-0.5-11.4-0.9-17.1c-0.8-10.5-1.6-21-2.5-31.5
		c-0.1-0.6-0.4-1.3-0.8-1.8c-7.5-7.9-15-15.8-22.6-23.7c-3.2-3.3-6.4-6.6-9.6-9.9c-1.1-1.2-1.4-2.5-0.5-3.9c0.9-1.5,1.8-3,2.9-4.4
		c1.4-1.7,2.8-2.1,4.8-1.1c1.7,0.9,3.5,1.9,5,3c5.7,4.1,11.3,8.3,16.9,12.5c1,0.7,2.1,1.4,3.1,2.1c0-3.9,0-7.6,0-11.3
		c-3.2-0.5-3.3-0.7-4-3.8c-0.3,0.1-0.5,0.2-0.8,0.2c-1.7,0.5-2.6-0.1-2.9-1.8c-0.2-0.9-0.2-1.8-0.3-2.7c-0.1-1-0.2-1.9-0.3-2.9
		c-1.2,0.2-2.2,0.4-3.2,0.5c-2,0.2-3.2-0.8-3.4-2.8c-0.1-1.2,0-2.4-0.1-3.6c0-2.5,0.9-4.6,2.8-6.3c1.6-1.5,3.2-2.9,4.7-4.4
		c0.3-0.3,0.7-0.4,1-0.7c-0.1-0.1-0.2-0.2-0.3-0.3c-1.4,0.5-2.8,1-4.2,1.5c-1.8,0.6-3.6,0.6-5.2-0.4c-1.4-1-2.8-2.1-4-3.4
		c-1.4-1.5-1.2-3,0.4-4.3c4.1-3.3,8.6-6.2,13.7-7.6c0.3-0.1,0.6-0.1,0.8-0.3c1.1-1.8,2.6-2,4.6-1.4c0.3-1.6,0.6-3.1,0.9-4.7
		c0.2-0.8-0.2-1.1-0.9-1.4c-2.1-0.8-4.3-1.6-6.4-2.5c-1.5-0.6-2.6-1.7-2.6-3.5c-0.1-10.1-0.4-20.2-0.4-30.3c0-8.9,0.1-17.8,0.4-26.6
		c0.2-8.6,0.7-17.2,1.1-25.8c0.7-12.8-0.1-25.7,1.5-38.6c0.4-2.9-0.1-5.9-0.3-8.9c0-0.3-0.4-0.8-0.7-0.9c-4.2-0.8-8.4-1.6-12.8-2.4
		c-0.1,0.4-0.1,0.8-0.2,1.3c-0.2,1.6-0.3,3.3-0.5,4.9c-1,6.4-2.4,12.8-3.1,19.3c-1.5,12.8-3.1,25.6-5.9,38.3
		c-1.3,5.9-2.8,11.7-4.4,17.6c-0.5,2-1.3,2.3-3.3,2.4c-4.5,0.2-9,0.3-13.5,0.6c-8.3,0.6-16.5,1.3-24.8,1.2c-5.3-0.1-10.6,0.1-16,0.2
		c-2.7,0.1-3.3-0.2-4-2.9c-1.7-6.5-3.3-12.9-4.9-19.4c-5-19.9-11-39.6-15.1-59.8c-0.1-0.3-0.3-0.7-0.5-0.9c-1-0.8-2-1.6-3-2.4
		c-0.2-0.2-0.6-0.2-0.9-0.2c-1.4,0-2.7,0.1-4.1,0.2c-2,0.2-4.1,0.5-6.2,0.8c0.2,0.8,0.3,1.4,0.4,2c0.9,3.6,1.9,7.2,2.7,10.8
		c0.7,3.1,1.2,6.3,1.7,9.4c2.3,13.4,4.8,26.8,6.8,40.3c1.7,11.3,2.9,22.6,4.3,33.9c0.7,5.7,1.6,11.3,2.2,17
		c0.5,4.8,0.5,9.7,1.8,14.4c0.3,1.2-0.2,2.3-1.1,3c-1,0.8-2.1,1.6-3.2,2c-3.1,1.2-6.3,2.3-9.5,3.3c-0.8,0.3-1.1,0.7-1.2,1.5
		c-0.1,4.2,0.4,8.4,1.4,12.5c0,0.2,0.2,0.3,0.3,0.5c1.8-0.6,3.5-1.1,5.3-1.6c0.9-0.3,1.8-0.6,2.7-0.6c4,0.1,8,0.2,12,0.5
		c1.6,0.1,3,0.9,3.8,2.4c1.6,2.9,1.8,5.9,1.1,9.1c-0.3,1.2-1.1,1.8-2.4,1.8c-1.3-0.1-2.6-0.1-3.8-0.2c-3-0.1-5.9-0.2-8.9-0.4
		c1.7,0.3,3.3,0.5,5,0.7c6.8,0.8,10.8,4.3,12.4,11c0.6,2.2-0.1,3.5-2.3,4.1c-0.8,0.2-1.7,0.4-2.6,0.5c-1.5,0.2-3,0.3-4.6,0.5
		c1.4,2,1.6,4,0.4,6.1c-1.2,2.1-3.1,2.8-5.4,2.9c0.4,5.2-2.2,7.9-7.1,7.9c-0.9,0-1.8,0-2.9,0C226,404.3,226.3,410.2,226.6,416z
		 M232,103.9c-0.5-3-0.9-5.8-1.4-8.7c-0.7-4.1-1.7-8.1-2.3-12.2c-1-6.4-1.8-12.9-1.1-19.5c0.2-2.1,0.8-4.2,1.5-6.3
		c0.4-1.2,1.3-2.3,2.6-2.6c0.8-0.2,0.9-0.5,1-1.2c0.4-3.3,4.4-7.8,7.9-8.1c0.4,0,0.8-0.5,1-0.8c1.4-2.8,3.6-4.6,6.6-5.4
		c2.7-0.8,5.5-0.7,8.2-0.3c0.7,0.1,1.2,0,1.6-0.6c0.5-0.7,1.2-1.3,1.9-1.8c4-2.6,8.2-2.8,12.4-0.7c0.8,0.4,1.3,0.4,2.1-0.1
		c2.4-1.7,5.1-2.6,8-2c2.2,0.4,4.3,1.3,6.4,1.9c0.6,0.2,1.3,0.3,1.8,0.2c2.3-0.6,4.6-0.7,6.9-0.3c3.8,0.7,7.1,2.2,8.4,6.1
		c0.6,1.8,1.4,2.4,3,2.8c2.6,0.7,5,2,6.3,4.4c0.6,1.1,0.5,2.5,1.1,3.6c0.6,1.1,2,1.9,2.4,3c0.6,1.6,1,3.5,0.9,5.2
		c-0.4,10.2-1.4,20.3-3.1,30.4c-0.6,3.6-0.8,7.3-1.2,11.2c1.6-1,3.2-1.6,4.9-1.1c1.7,0.4,2.8,1.6,3.6,3.1c0.3-0.2,0.4-0.2,0.4-0.3
		c0.8-0.8,1.6-1.6,2.4-2.5c9.7-10.4,16.9-22.4,22.2-35.5c2.6-6.4,4-13,4-19.9c-0.2-11.7-5.6-20.2-15.9-25.6c-5.8-3-12-4-18.4-4.2
		c-13.3-0.4-26.1,1.8-38.7,6.1c-12.5,4.2-24.1,10.1-35,17.4c-17.3,11.5-31.9,25.8-42.9,43.6c-6.8,11-11.6,22.8-13.8,35.6
		c-1.3,7.4-2,14.8-0.6,22.2c1.8,9.2,7,15.2,16.2,17.4c4,1,8.1,1,12.2,0.5c9.9-1.4,18.9-5.5,27.7-10.1c0.3-0.1,0.5-0.8,0.4-1.1
		c-0.8-2.9-1.7-5.7-2.4-8.5c-0.3-1.3-0.8-2.1-2.2-2.4c-1.2-0.3-2.3-1-3.3-1.6c-5.4-3.6-9-8.5-11.1-14.6c-1-3-1.5-6-1.2-9.2
		C224,106,227.4,103.2,232,103.9z M239.4,613.1c0.2,2.1,0.3,4.3,0.6,6.6c1.3,14.4,2.8,28.9,4,43.3c1,11.6,0.5,23.2-0.7,34.7
		c-0.9,8.4-4.7,15-11.7,19.8c-6.7,4.6-13.6,8.6-21.3,11.1c-2.5,0.8-5.1,1.6-7.6,2.7c-3,1.3-6,2.6-8.8,4.2c-2.8,1.6-4.7,4.2-5.4,7.4
		c-0.5,1.9,0,3.3,1.5,4.6c1.9,1.5,4.1,2.2,6.3,2.7c7.1,1.5,14.3,2,21.5,1.7c11.4-0.4,22.6-2.4,33.6-5.4c9.7-2.7,16.6-8.6,19.4-18.5
		c1-3.4,1.7-6.9,2.3-10.4c0.8-5,1.8-10.1,2.1-15.2c0.6-10.7,1-21.5,1.2-32.2c0.1-7.2-0.3-14.5-0.4-21.7c-0.2-11-0.2-21.9-0.4-32.9
		c0-0.5,0-0.9-0.1-1.5c-5.3,1-10.4,1-15.6,0.7c-5.7-0.3-11.4-0.7-17.1-1.1C241.6,613.7,240.6,613.4,239.4,613.1z M251.2,155.3
		c2,2.9,4.3,5.1,7.4,6.2c4.6,1.7,9.4,2.8,14.2,3.4c4,0.4,8.1,0.8,12.1,0.4c7.9-0.7,13.3-5.8,17.6-11.9c1.9-2.7,2.9-6,4-9.1
		c0.8-2.3,1.4-4.8,1.8-7.2c0.5-2.8,0.6-5.6,0.9-8.5c1.2-10.5,2.3-21,3.6-31.5c1-8.5-2.1-15.7-6.6-22.5c-2.5-3.7-6-4.7-10.2-3.2
		c-2.7,0.9-5.3,2.1-7.9,3.2c-7,2.9-14,3.8-21.2,1c-3.5-1.4-7.1-2.7-10.6-4.2c-4.7-1.9-8.8-1.1-12.5,2.3c-3.5,3.2-6,7.1-8,11.4
		c-2.2,4.7-2.9,9.6-1.6,14.7c2.2,8.2,4.5,16.4,6.7,24.7c1.8,6.6,3.3,13.3,5.2,19.8c0.8,2.9,2.3,5.7,3.4,8.6
		c4.6-2.5,8.8-4.8,13.2-7.1c-1.3-0.3-2.5-0.4-3.6-0.7c-2.1-0.6-3.6-3-3.3-4.9c0.2-1.1,0.9-1.4,1.8-0.7c0.4,0.4,0.7,1,0.9,1.5
		c0.5,1.4,0.8,1.6,2.1,1.1c0.6-0.2,1.3-0.4,2-0.5c6.4-1.1,12.8-1.2,19.2,0.2c3.7,0.8,7.4,1.5,10.6,3.7c0.6,0.4,1,0.2,1.3-0.6
		c0.1-0.4,0.9-0.8,1.3-0.9c0.3,0,0.8,0.6,0.9,1c0.3,1.3-0.9,2.6-2.2,2.7c-1.9,0.1-3.8,0.3-5.6,0.2c-6.4-0.4-12.7-1-19.1-1.5
		c-0.4,0-0.9-0.1-1.3,0.1c-2.2,1.1-4.5,2.1-6.7,3.3C257.7,151.6,254.5,153.4,251.2,155.3z M311.5,615.6c-0.1,0.6-0.1,0.8-0.1,1
		c-0.3,11-0.1,22.1,1.2,33.1c0.9,7.5,1.9,15.1,2.5,22.7c0.8,10.6,1.4,21.2,2,31.8c0.5,10,2,19.9,4.5,29.6c1.2,4.9,3.8,8.1,8.5,10
		c6.3,2.5,12.7,4.2,19.3,5.8c10.2,2.5,20.5,3.3,31,2.2c2.1-0.2,4.2-0.9,6.3-1.5c1.5-0.5,2-1.4,1.5-2.9c-0.5-1.4-1.2-2.9-2.1-4.1
		c-3.1-3.8-7.3-6.1-12-7.5c-4.4-1.4-8.8-2.9-13.2-4.5c-5-1.9-8.5-5.4-10.5-10.4c-1.6-4.2-2.7-8.6-3.1-13.1c-0.9-11.5-1-23-0.7-34.5
		c0.6-19.3,1.4-38.6,2.1-57.9c0-0.4,0-0.8,0-1.6C336.2,617.1,324,618,311.5,615.6z M199.4,299.9c-9.4-6.7-17.6-14.4-25.3-22.5
		c-0.7,2-1.2,3.9-2.1,5.6c-7.4,14.4-14.9,28.8-22.4,43.3c-3.7,7.2-6.7,14.8-9.6,22.4c-1.3,3.4-0.8,6.4,1.7,9c3.4,3.4,7,6.6,11.6,8.4
		c4.6,1.8,9.1,3.7,13.8,5.1c14.9,4.4,29.8,8.5,44.7,12.8c0.9,0.3,1.8,0.5,2.5,0.6c0.5-2.1,1-4,1.6-6.2c-1.2-0.6-2.2-1.8-2.1-3.5
		c0.3-4,0.4-8.2,4.9-9.7c-1.7-0.7-3.7-1.4-5.5-2.4c-2-1.1-4-2.4-5.9-3.7c-5.4-3.4-10.6-7-16.1-10.3c-7.1-4.3-14.5-4.8-21.9-0.7
		c-1.5,0.8-3,1.7-4.5,2.5c-1.5,0.8-3.1,1.5-4.7,2.2c-0.4,0.2-0.8,0.2-1.2,0.2c-0.1-0.1-0.1-0.2-0.2-0.3c0.4-0.5,0.8-1.1,1.3-1.6
		c4.1-4,9-6.6,14.4-8.2c0.5-0.2,1.2-0.6,1.5-1c5.6-9.9,11.3-19.8,16.8-29.8C195,308.1,197.1,304.1,199.4,299.9z M228.6,334.3
		c1.5-0.8,2.8-1.4,4-2.1c0.6-0.3,0.8-0.8,0.6-1.6c-0.5-3.1-0.9-6.1-1.3-9.2c-0.2-1.4-0.1-2.9-0.3-4.3c-0.7-5.6-1.5-11.2-2.2-16.9
		c-2.5-20.8-4.8-41.7-8.5-62.4c-1.7-9.3-2.5-18.8-5.3-27.9c-0.3-0.9-0.5-1.8-0.8-2.8c-2.2,0.6-4.3,1.1-6.4,1.8
		c-0.7,0.2-1.4,0.8-1.8,1.4c-1.7,2.6-3.4,5.2-5,7.9c-4.9,7.8-10,15.5-14.7,23.3c-4.1,6.8-8,13.8-11.9,20.7c-1.1,1.9-2,4-3,6
		c-0.5,1-0.3,1.8,0.5,2.7c8.5,9.4,17.6,18.2,27.8,25.7c2.8,2.1,5.7,4.1,8.6,6.2c0.2-0.3,0.3-0.4,0.4-0.6c3.4-5.5,6.8-10.9,10.2-16.4
		c0.9-1.5,0.5-4.4-0.9-5.5c-9.1-6.7-18.5-12.8-29.3-16.7c-0.2-0.1-0.5-0.1-0.7-0.3c-0.3-0.3-0.4-0.8-0.6-1.1
		c0.4-0.1,0.8-0.4,1.1-0.4c0.6,0.1,1.2,0.4,1.8,0.6c9.3,4,17.8,9.4,26.1,15.2c0.4,0.3,0.7,0.5,1.1,0.7c0.1-0.1,0.2-0.2,0.3-0.3
		c-0.6-1.3-1.1-2.7-1.9-3.9c-2.4-3.5-4.9-6.9-7.4-10.3c-3.1-4.2-6.2-8.3-9.3-12.5c-0.7-0.9-1.2-1.9-1.6-2.9
		c-0.1-0.3,0.2-0.7,0.3-1.1c0.3,0.2,0.8,0.4,1,0.7c0.6,0.9,1.1,1.9,1.7,2.7c4.4,5.7,8.8,11.4,13.1,17.1c0.1,0.2,0.3,0.3,0.7,0.6
		c-0.2-0.7-0.3-1.1-0.4-1.5c-1.4-4.3-2.8-8.5-4.1-12.8c-0.7-2.2-1.2-4.5-1.6-6.7c-0.1-0.4,0.4-1,0.6-1.5c0.4,0.4,1,0.6,1.1,1.1
		c1.9,5.4,3.8,10.8,5.7,16.2c4.1,11.9,8.5,23.8,11.5,36.1c0.5,1.9,1,3.8,1,5.8c0,7.8-0.1,15.5-0.2,23.3
		C228.6,330.1,228.6,332,228.6,334.3z M356.9,377.1c2.8-1.8,5.3-3.5,7.9-4.8c9-4.7,18-9.2,27-13.9c5.8-3.1,11.9-5.5,17.4-9.1
		c2.6-1.6,3.9-3.7,3.6-6.7c-0.2-2.3-0.6-4.5-1.3-6.7c-2.2-8-5.5-15.7-9-23.2c-4.5-9.6-8.9-19.3-14.8-28.2c-1.5-2.4-3.1-4.7-4.6-6.9
		c-8.7,6.2-17.2,12.3-25.8,18.4c8.8,11.5,16.5,23.8,23.6,36.4c2.8-1.3,5.6-2.7,8.5-3.8c2.9-1.1,5.9-1.6,9-1.2
		c-0.4,0.4-0.8,0.6-1.2,0.8c-4.2,1.9-8.5,3.5-12.6,5.6c-4.8,2.4-8.8,5.8-11.5,10.7c-2.2,4-5.2,7.5-8.9,10.3c-2.4,1.8-5,3.2-7.7,4.8
		c0,0,0.1,0.2,0.1,0.5c0.5,2.9,1.3,5.8-0.7,8.6c-0.2,0.2,0,0.7,0,1.1c0.2,1.7,0.4,3.4,0.6,5.1C356.8,375.5,356.9,376.2,356.9,377.1z
		 M314.3,84.6c0.1,0,0.1,0,0.2,0c0.1-0.5,0.2-0.9,0.2-1.4c0.5-6,1.1-11.9,1.6-17.9c0.2-2.4,0.2-4.8,0.1-7.2c0-1.4-0.7-2.5-2.1-3.1
		c-0.9-0.3-1.3-1.1-1.2-2c0.2-2.3-0.9-3.9-2.7-4.8c-1.6-0.8-3.4-1.3-5.2-1.7c-1.1-0.3-1.9-0.7-1.9-2c0-2.9-1.7-4.6-4.2-5.6
		c-2.7-1.1-5.5-1.2-8.2-0.3c-1.1,0.3-2,0.3-3-0.1c-1.3-0.6-2.6-1.1-3.9-1.5c-3.4-1.1-6.6-0.6-9.3,1.8c-0.9,0.8-1.7,0.8-2.8,0.3
		c-1.1-0.5-2.2-1.1-3.3-1.4c-3.7-1.1-7.4,0.3-9.6,3.4c-0.6,0.8-1.3,1-2.3,0.9c-1.7-0.2-3.4-0.5-5.1-0.5c-3.9,0.1-7,1.3-8.5,5.4
		c-0.2,0.6-1.1,1.2-1.8,1.2c-3.6,0.4-6.3,3.3-6.3,7c0,1.3-0.8,2.1-2.1,2c-1-0.1-1.6,0.4-1.8,1.2c-0.4,1.3-0.8,2.7-1,4.1
		c-0.8,6.3-0.1,12.5,0.8,18.8c0.2,1.5,0.5,3.1,0.7,4.7c0.2-0.2,0.3-0.2,0.3-0.2c0.1-0.3,0.2-0.5,0.3-0.8c2.2-5.1,5.1-9.9,9.4-13.6
		c4.6-4,9.6-4.9,15.3-2.6c3.3,1.3,6.6,2.6,9.9,3.9c6.9,2.9,13.7,2,20.4-0.9c2.5-1.1,5.1-2.2,7.7-3c5.3-1.7,9.8-0.3,13.3,4.1
		c1.9,2.3,3.2,4.9,4.2,7.6C313.1,81.7,313.7,83.2,314.3,84.6z M234.3,207c0.1,0.6,0.2,0.9,0.2,1.2c1.1,4.4,2.2,8.8,3.3,13.1
		c3.8,14.2,7.7,28.4,11.5,42.6c1.7,6.4,3.3,12.9,4.9,19.4c0.2,0.8,0.6,1.1,1.5,1.1c2.5-0.1,5-0.2,7.4-0.2c5,0,10,0,15-0.1
		c2.1,0,4.1-0.2,6.3-0.3c-1.3-21.1-1.7-42.1-1.4-63.2c-0.6,0.2-1,0.3-1.4,0.4c-5,1.4-9.6,3.5-13.5,7c-1.8,1.6-2.5,1.5-4.3,0
		c-4.1-3.3-8.3-6.5-12.3-9.9C246.4,213.9,240.3,210.8,234.3,207z M350.2,297.2c0.5-0.5,1-0.9,1.5-1.4c0.8-0.7,1.5-1.4,2.4-2
		c10.6-6.8,21.1-14,30.8-22.1c1.8-1.5,1.9-1,0.4-3.1c-5.5-8-10.8-16.1-15.4-24.6c-4.6-8.3-9.2-16.7-13.7-25.1
		c-1.9-3.5-3.3-7.2-5-10.8c-0.2-0.4-0.6-0.9-0.9-0.9c-2.2-0.2-4.4-0.3-6.7-0.4c0,0.5,0,0.9,0,1.3c0,3.8,0.1,7.6,0,11.4
		c0,1.4-0.4,2.8-0.6,4.3c-0.1,0.9-0.5,1.9-0.5,2.8c-0.1,10.8-0.1,21.7-0.3,32.5c-0.2,11.4-0.7,22.8-1,34.2
		c-0.2,7.2-0.2,14.3-0.2,21.5c0,6.3,0.3,12.6,0.4,18.9c0,1.9,0.4,2.3,2.5,2.6c0-0.4,0-0.7,0-1.1c0-2.2-0.1-4.5-0.1-6.7
		c0.4-15.4,0.7-30.8,1.1-46.2c0.3-10.4,0.7-20.7,1.3-31c0.3-5.7,1-11.3,1.6-17c0.1-1.1,0.4-2.1,0.8-3.1c0.2-0.5,0.9-0.9,1.3-1.3
		c0.4,0.5,0.9,0.9,1.2,1.4c0.2,0.4,0.2,0.9,0.3,1.4c0.5,5.3,0.9,10.5,1.4,15.8c0.1,1,0.2,2,0.4,3.3c1.6-1.3,2.9-2.4,4.4-3.6
		c-0.1,0.5,0,0.7-0.1,0.8c-1.1,1.4-2.2,2.9-3.4,4.1c-0.9,0.9-1.9,0.5-2.3-0.7c-0.2-0.4-0.3-0.9-0.3-1.4c-0.3-2.5-0.5-5-0.7-7.5
		c-0.3-2.7-0.5-5.5-0.7-8.2c-0.1,0-0.2,0-0.3,0c-1.4,12.5-1.7,25-2.5,37.9c1.2-3.8,2.3-7.3,3.5-10.8c1.2-3.5,2.8-6.7,5.3-9.5
		c0.1,0.5,0.1,0.9-0.1,1.3c-0.9,2.8-1.7,5.6-2.7,8.3c-2.4,6.7-4,13.6-5.1,20.7C347.3,288.2,348.1,292.7,350.2,297.2z M323.7,206
		c-0.1,0-0.2-0.1-0.3-0.1c-1.8,1.5-3.6,3.1-5.4,4.5c-4.4,3.5-8.7,7.2-12.1,11.7c-1.4,1.8-3.2,3.4-4.8,5c-1.5,1.5-3.2,1.6-5,0.5
		c-3.2-2-6.4-4-9.6-6c-0.4-0.2-0.7-0.5-1.3-0.8c0.1,21.1,0.5,42,1.9,62.9c0.5,0,0.7,0,1,0c6.5-0.4,13-0.8,19.5-1.1
		c2.8-0.2,2.3,0.5,3.1-2.4c3.6-12.9,5.8-26.1,7.7-39.3c1.2-8,2.2-16,3.4-24C322.3,213.2,323,209.6,323.7,206z M220,362.6
		c0.2-1.5,0.2-2.8,0.5-4.1c0.3-1.1,0.1-2.1-0.2-3.1c-1.5-5.1-2.3-10.4-1.8-15.8c0.2-1.9,0.7-2.5,2.5-3c1-0.3,2.1-0.7,3.1-0.9
		c1-0.2,1.2-0.7,1.2-1.6c0.1-8.9,0.2-17.8,0.4-26.6c0-2.3-0.2-4.5-0.8-6.6c-0.7-2.7-1.4-5.4-2.1-8.1c-0.4-1.4-0.8-2.7-1.2-4.3
		c-0.3,0.5-0.5,0.7-0.7,1c-3.3,5.2-6.5,10.4-9.8,15.7c-1.2,1.9-2,2-3.8,0.7c-1.9-1.4-3.8-2.7-5.5-4c-7.8,13.6-15.5,27.1-23.2,40.7
		c-0.1,0,0,0,0.1,0c0.2,0,0.3,0,0.5,0c5.6,0,10.6,1.8,15.2,4.9c6.1,4.1,12.2,8,18.4,12c1.6,1.1,3.4,1.9,5.2,2.8
		C218.5,362.4,219.3,362.4,220,362.6z M257.9,164.6c0.1,0.9,0.2,1.7,0.3,2.4c0.9,6.5,1.1,13.1-0.5,19.5c-0.2,1-0.1,1.6,0.6,2.4
		c6.8,7.5,13.6,15,20.4,22.5c1.8,2,3.6,4.1,5.5,6.4c0.4-0.5,0.8-0.9,1.2-1.4c2.8-4.2,5.6-8.4,8.3-12.6c2.7-4.2,5.4-8.4,8.1-12.6
		c0.3-0.4,0.3-1.1,0.2-1.6c-0.4-1.5-1.1-2.8-1.4-4.3c-0.8-4.8-1.5-9.7-2.1-14.6c-0.3-2.5-0.5-5-0.8-7.7c-0.5,0.3-0.8,0.6-1.1,0.9
		c-3.9,3-8.3,4.6-13.2,4.8c-8.2,0.2-16.3-1.1-24.1-3.6C258.9,164.9,258.5,164.8,257.9,164.6z M378.9,333.9
		c-7.8-12.3-15.1-24.6-23.8-35.8c-1.3,1.2-2.4,2.3-3.7,3.3c-1.4,1.1-2.6,0.6-3.1-1.1c-0.2-0.9-0.5-1.7-0.9-2.9
		c-0.1,0.4-0.2,0.5-0.2,0.6c-0.5,12-0.9,24-1.3,36c-0.1,3.5-0.1,3.5,3.3,4.8c1.8,0.7,2.4,1.5,2,3.5c-0.4,2.4-1.1,4.8-1.6,7.2
		c-0.1,0.4-0.2,1-0.1,1.3c0.9,2,2,4,3,5.9c2.7,0.6,4.9-0.6,7-2c5-3.1,8.7-7.5,11.6-12.5c1.8-3,4-5.7,6.9-7.7
		C378.4,334.4,378.6,334.1,378.9,333.9z M281,218.4c-1.2-1.4-2.4-2.8-3.5-4.1c-7.8-8.9-15.6-17.9-23.4-26.8
		c-0.2-0.3-0.8-0.5-1.1-0.5c-1.8,0.3-3.7,0.4-5.4,1c-5.1,1.8-9.6,4.8-13.7,8.3c-1.5,1.3-2.9,2.6-4.4,4c0.9,0.7,1.5,1.2,2.1,1.6
		c2.8,1.8,5.6,3.7,8.5,5.4c4.7,2.8,9.4,5.6,13.6,9.1c3.6,3,7.4,5.9,11,8.9c1,0.9,1.7,1,2.8,0c3.3-3,7.1-5,11.4-6.2
		C279.5,219,280.1,218.7,281,218.4z M287,218.8c3.6,2.2,7.2,4.3,10.8,6.3c0.3,0.2,1.1,0,1.4-0.3c1.4-1.3,2.8-2.5,4-4
		c3.5-4.4,7.4-8.2,11.8-11.7c3.7-3,7.2-6.5,10.7-9.7c0.9-0.8,0.8-1.7,0-2.5c-0.7-0.7-1.5-1.4-2.2-2.2c-4.6-4.5-10.4-6.3-16.4-7.4
		c-0.6,1.3-1.1,2.6-1.7,3.7c-0.7,1.3-1.4,2.7-2.3,3.9c-5.1,7.6-10.2,15.2-15.3,22.8C287.5,218,287.3,218.2,287,218.8z M286,16.6
		c-0.7-0.1-1-0.2-1.4-0.3c-6.4-1-12.9-1-19.4-0.3c-6.4,0.7-12.7,2.3-18.4,5.5c-10.1,5.7-17.3,14-22.2,24.4c-1,2.2-1.9,4.6-2.8,6.8
		c0.1,0.1,0.2,0.1,0.3,0.2C240.5,36,261.6,23.7,286,16.6z M348,425.4c0.1-0.3,0.1-0.5,0.1-0.6c-0.1-6-0.1-12-0.3-18
		c0-0.5-0.5-1.1-0.9-1.3c-3.4-2.3-6.8-4.6-10.2-7c-4.5-3.2-8.8-6.5-13.3-9.6c-2.8-1.9-3.2-1.7-5,1.1c-2.1,3.4-2,2.6,0.5,5.2
		c6.4,6.7,12.9,13.3,19.4,20C341.5,418.6,344.7,422,348,425.4z M237.7,379c3.4-0.4,6.2-0.6,8.9-0.9c0.9-0.1,1.2-0.6,0.8-1.4
		c-0.8-1.6-1.6-3.2-2.5-4.8c-1-1.8-2.6-2.9-4.5-3.2c-6.6-1.1-13.2-2.4-19.9-1.2c-1.6,0.3-2.7,0.9-3.1,2.6c-0.3,1.1-0.6,2.2-0.8,3.4
		c-0.3,1.9,0.1,2.5,2.1,2.9c1.8,0.4,3.7,0.6,5.6,0.9C228.8,377.9,233.5,378.5,237.7,379z M249.5,391.2c-0.2,0-0.3-0.1-0.5-0.1
		c-0.6,0.7-1.2,1.4-1.7,2.1c-6.3,8.7-12.5,17.5-19.9,25.3c-0.2,0.2-0.4,0.5-0.4,0.7c0.1,1.9,0.3,3.8,0.4,5.8
		c0.3-0.2,0.4-0.2,0.4-0.2c5-5.5,11-10,17.3-14c1.6-1,3.1-2.1,4.6-3.2c1.3-1,2.5-2.1,2.6-3.8C252.8,399.3,251,395.2,249.5,391.2z
		 M229.4,179c-0.1,0-0.1,0-0.2-0.1c0-0.3-0.1-0.7-0.1-1c0.2-0.5,0.3-1.3,0.7-1.5c0.4-0.2,1.1,0,1.6,0.1c0.3,0.1,0.5,0.4,0.8,0.5
		c1.3,0.9,2.6,0.8,3.6-0.5c1.2-1.4,1.6-3,1.2-4.8c-0.7-3-4-4-6.3-2.1c-0.5,0.4-1,0.8-1.5,1.2c-5.6,5.2-11.3,10.4-16.9,15.6
		c-0.8,0.7-1.5,1.6-2.1,2.5c-1,1.5-0.5,2.7,1.3,2.7c1.4,0,2.9-0.3,4.1-1c2.2-1.2,3.8-3.2,4.7-5.6c0.3-0.8,0.3-1.7,0.4-2.6
		c0-0.8,0.1-1.5,0.9-1.7c0.9-0.3,1.4,0.3,1.8,1c0.3,0.5,0.6,1.1,1,1.5c1.4,1.6,2.8,1.5,3.7-0.5C228.9,181.8,229.1,180.4,229.4,179z
		 M354.7,363.7c-0.1-0.7-0.1-1.4-0.2-2c-0.3-1.9-1.5-2.5-3.2-1.6c-5,2.6-8.9,6.5-13,10.1c-2.4,2.1-2.9,4.6-2.7,7.5
		c0,0.7,0.3,1,1,0.8c2.3-0.6,4.6-1.2,7-1.8c0.4-0.1,0.7-0.4,1-0.6c2.8-2.7,5.6-5.5,8.5-8.1C354.3,366.7,355.1,365.5,354.7,363.7z
		 M313.7,117.4c1.6,1,3.1,1.8,4.5,2.8c0.7,0.5,1,1.4,0.2,2.1c-0.7,0.7-1.3,0.1-2-0.4c-0.9-0.7-1.9-1.4-2.9-2
		c-0.1,0.1-0.3,0.1-0.4,0.2c-0.5,4.1-1,8.2-1.5,12.4c0.4-0.1,0.4-0.1,0.5-0.1c6.5-4.9,10.3-11.3,10.1-19.7c0-2.3-0.5-4.6-1-6.8
		c-0.3-1.5-1.5-2.4-2.6-2.4c-1.5,0-3.9,1.9-4,3.5C314.3,110.5,314,114.1,313.7,117.4z M235.9,118.6c-0.9-3.5-1.8-7-2.8-10.6
		c-0.1-0.3-0.4-0.6-0.6-0.9c-1.7-1.6-3.6-1.3-5.1,0.8c-1.2,1.7-1.4,3.7-1.2,5.6c0.8,8.2,4.6,14.7,11.5,19.2c0.6,0.4,1.3,0.7,2.2,1.2
		c-1.1-4.6-2.2-8.8-3.3-13.2c-1.4,0.9-2.5,1.6-3,3c-0.2,0.6-0.7,1.3-1.4,0.9c-0.5-0.3-1.1-1.2-0.9-1.6c0.3-0.9,0.8-1.9,1.6-2.6
		C233.7,119.8,234.9,119.3,235.9,118.6z M222.9,362.8c2-0.2,4-0.6,5.9-0.6c5.1,0,10.2,0.1,15.3,0.1c0.5,0,1.3,0.3,1.2-0.6
		c-0.1-1.8-0.3-3.6-0.6-5.3c-0.2-1-1-1.6-2.1-1.7c-4.6-0.6-9.2-1-13.7-0.1c-5.1,1.1-6.2,2-6.2,7.9
		C222.8,362.6,222.9,362.7,222.9,362.8z M231.1,388c2.5-0.1,4.2-0.1,5.8-0.4c1.9-0.3,3.2-2.8,2-4.1c-0.9-1-2.2-1.9-3.5-2.1
		c-5.1-0.8-10.2-1.4-15.3-2.1c-2.1-0.3-2.2-0.3-2.8,1.8c-0.1,0.3-0.2,0.6-0.2,0.9c-0.3,1.3,0.1,2.4,1.3,3c1.2,0.6,2.4,1.3,3.7,1.6
		C225.4,387.3,228.7,387.6,231.1,388z M349.7,356.5c-0.7-1.2-1.2-2.3-1.8-3.2c-1-1.8-1.5-2.1-3.6-1.7c-5.6,1-10,4.3-14.4,7.5
		c1.9,3,4.1,3.8,7.2,2.7c0.6-0.2,1.3-0.5,1.9-0.7C342.5,359.5,346,358,349.7,356.5z M217.9,387.9c-2.1,3.4-1,6.4,2.7,7.1
		c3,0.5,6.1,0.6,9.2,0.7c2.1,0.1,3.9-2.1,3.7-4.2c-0.1-0.7-0.3-1-1-1C227.5,390.3,222.5,390.2,217.9,387.9z M342.5,385.9
		c5-2.6,9-5.8,11.5-10.7c0.7-1.4,0.8-3,0.4-4.7c-2.2,2.1-4.3,3.9-6.2,6c-1.6,1.7-3.2,3.2-5.6,3.7c-0.3,0.1-0.7,0.7-0.7,1
		C342,382.6,342.3,384.1,342.5,385.9z M230.6,166c-2.1-1.5-8-0.9-10.7,2c-0.8,0.8-1.6,2-0.9,3c0.7,1,2,1.6,3.1,2.4
		c0.1,0.1,0.5-0.1,0.6-0.2C225.2,170.8,227.9,168.5,230.6,166z M218.9,175.6c-2.6-0.8-8.1,1.5-9.6,4.7c-0.2,0.4-0.3,0.7-0.4,1.1
		c0,0.3,0.1,0.7,0.3,1c0.7,0.9,2.7,1.1,3.5,0.3C214.8,180.3,216.9,177.8,218.9,175.6z M288.2,146c0-0.2,0-0.3,0-0.5
		c-8.3-3-16.8-3.5-25.4-2.3c0,0.1,0,0.3,0,0.4C271.2,144.3,279.7,145.2,288.2,146z M355.2,378.4c-2.4,3.5-5.3,6.1-8.6,8.4
		c-0.4,0.2-0.2,1.4-0.1,2.1c0,0.2,0.9,0.4,1.3,0.4c1.4-0.2,2.5-0.9,3.4-2.1c1.1-1.6,2.2-3.1,3.4-4.7
		C355.3,381.4,355.5,380.1,355.2,378.4z"/>
	<path class="st0" d="M226.6,416c-0.3-5.9-0.7-11.8-1-17.8c1.1,0,2,0,2.9,0c5,0,7.5-2.7,7.1-7.9c2.2-0.1,4.2-0.8,5.4-2.9
		c1.2-2.1,1.1-4-0.4-6.1c1.6-0.2,3.1-0.3,4.6-0.5c0.9-0.1,1.7-0.3,2.6-0.5c2.2-0.6,2.9-1.9,2.3-4.1c-1.7-6.7-5.6-10.1-12.4-11
		c-1.7-0.2-3.3-0.4-5-0.7c3,0.1,5.9,0.2,8.9,0.4c1.3,0.1,2.6,0.1,3.8,0.2c1.3,0.1,2.1-0.6,2.4-1.8c0.8-3.1,0.5-6.2-1.1-9.1
		c-0.8-1.5-2.2-2.3-3.8-2.4c-4-0.2-8-0.4-12-0.5c-0.9,0-1.8,0.4-2.7,0.6c-1.7,0.5-3.5,1.1-5.3,1.6c-0.1-0.2-0.2-0.3-0.3-0.5
		c-1-4.1-1.6-8.2-1.4-12.5c0-0.8,0.3-1.2,1.2-1.5c3.2-1,6.4-2.1,9.5-3.3c1.2-0.4,2.2-1.3,3.2-2c1-0.7,1.5-1.8,1.1-3
		c-1.3-4.7-1.3-9.6-1.8-14.4c-0.6-5.7-1.5-11.3-2.2-17c-1.4-11.3-2.6-22.7-4.3-33.9c-2-13.5-4.5-26.9-6.8-40.3
		c-0.5-3.1-1-6.3-1.7-9.4c-0.8-3.6-1.8-7.2-2.7-10.8c-0.1-0.6-0.2-1.2-0.4-2c2.2-0.3,4.2-0.6,6.2-0.8c1.4-0.1,2.7-0.2,4.1-0.2
		c0.3,0,0.7,0,0.9,0.2c1,0.8,2,1.5,3,2.4c0.2,0.2,0.4,0.6,0.5,0.9c4.1,20.1,10.2,39.8,15.1,59.8c1.6,6.5,3.2,13,4.9,19.4
		c0.7,2.7,1.3,2.9,4,2.9c5.3-0.1,10.6-0.3,16-0.2c8.3,0.1,16.5-0.5,24.8-1.2c4.5-0.3,9-0.4,13.5-0.6c2-0.1,2.8-0.4,3.3-2.4
		c1.5-5.8,3.1-11.7,4.4-17.6c2.7-12.6,4.3-25.5,5.9-38.3c0.8-6.5,2.1-12.9,3.1-19.3c0.3-1.6,0.4-3.3,0.5-4.9c0-0.4,0.1-0.9,0.2-1.3
		c4.3,0.8,8.5,1.6,12.8,2.4c0.3,0.1,0.7,0.6,0.7,0.9c0.2,3,0.6,6,0.3,8.9c-1.6,12.8-0.8,25.7-1.5,38.6c-0.4,8.6-0.9,17.2-1.1,25.8
		c-0.2,8.9-0.4,17.8-0.4,26.6c0,10.1,0.3,20.2,0.4,30.3c0,1.8,1.1,2.9,2.6,3.5c2.1,0.9,4.2,1.7,6.4,2.5c0.7,0.3,1.1,0.6,0.9,1.4
		c-0.3,1.5-0.6,3-0.9,4.7c-2-0.6-3.6-0.4-4.6,1.4c-0.1,0.2-0.5,0.2-0.8,0.3c-5.2,1.5-9.6,4.3-13.7,7.6c-1.6,1.3-1.8,2.8-0.4,4.3
		c1.2,1.3,2.5,2.4,4,3.4c1.6,1.1,3.4,1,5.2,0.4c1.4-0.5,2.8-1,4.2-1.5c0.1,0.1,0.2,0.2,0.3,0.3c-0.3,0.2-0.7,0.4-1,0.7
		c-1.6,1.5-3.1,3-4.7,4.4c-1.9,1.7-2.8,3.7-2.8,6.3c0,1.2-0.1,2.4,0.1,3.6c0.2,2,1.4,3,3.4,2.8c1-0.1,2-0.3,3.2-0.5
		c0.1,1,0.2,1.9,0.3,2.9c0.1,0.9,0.2,1.8,0.3,2.7c0.3,1.7,1.3,2.3,2.9,1.8c0.3-0.1,0.5-0.1,0.8-0.2c0.6,3.1,0.8,3.3,4,3.8
		c0,3.7,0,7.4,0,11.3c-1-0.7-2.1-1.4-3.1-2.1c-5.6-4.2-11.2-8.4-16.9-12.5c-1.6-1.1-3.3-2.1-5-3c-2-1-3.4-0.7-4.8,1.1
		c-1.1,1.4-2,2.9-2.9,4.4c-0.9,1.4-0.6,2.8,0.5,3.9c3.2,3.3,6.4,6.6,9.6,9.9c7.5,7.9,15.1,15.8,22.6,23.7c0.4,0.4,0.7,1.2,0.8,1.8
		c0.9,10.5,1.7,21,2.5,31.5c0.4,5.7,0.8,11.4,0.9,17.1c0.3,26.3,0.5,52.6,0.8,78.8c0.1,6.3,0.3,12.6,0.4,19c0.1,3.4,0.9,6.5,2.4,9.6
		c1.8,3.7,3.5,7.4,5.3,11c0.5,1,0.4,1.7-0.2,2.5c-2.2,2.8-4.3,5.7-6.5,8.5c-0.4,0.5-1,0.9-1.5,1c-6.6,1.3-13.2,2.6-19.8,3.7
		c-4.8,0.8-9.7,0.3-14.5-0.2c-3.6-0.4-7.2-0.8-10.9-1.1c-1-0.1-1.3-0.5-1.5-1.4c-2.4-12.5-3.2-25.2-3.8-37.9
		c-0.4-8.5-1.1-17.1-1.5-25.6c-0.4-8.1-0.9-16.1-1.1-24.2c-0.6-24-1-48.1-1.6-72.1c0-1.8-0.1-3.7-0.2-5.5c-0.1-2.3-0.8-3.1-3.1-3.3
		c-4.1-0.4-8.2-0.8-12.3-1.1c-7.3-0.6-14.7-1.2-22-1.8c-0.8-0.1-2.1-0.4-2.2,0.8c-0.1,1.2,1.2,1.2,2,1.3c5.8,0.8,11.6,1.5,17.4,2.3
		c1.3,0.2,2.5,0.3,3.8,0.4c1.2,0,1.5,0.5,1.5,1.6c-0.1,3.7-0.2,7.4-0.3,11.2c-0.1,3.4-0.2,6.9-0.2,10.3c0.1,11.8,0,23.6,0.3,35.4
		c0.2,5.9,1,11.9,1.4,17.8c0.3,3.7,0.6,7.4,0.6,11.1c0,10.1,0.8,20.1,1.3,30.2c0.6,12.3,0.9,24.6-0.2,36.9c-0.3,3.1-1,6.2-1.7,9.3
		c-0.1,0.5-0.7,1-1.1,1.2c-5.1,2.2-10.5,3.1-15.9,3c-6.8-0.1-13.6-0.6-20.4-1c-1,0-1.9-0.2-2.9-0.1c-1.1,0.1-1.9-0.3-2.5-1.5
		c0.7-0.2,1.3-0.5,2-0.7c4.3-0.7,8.5-1.5,12.8-2.2c4.4-0.7,8.8-1.5,13.1-2.2c0.5-0.1,1.1-0.2,1.8-0.4c-4.5-1.3-27.4,2.1-30.5,4.4
		c-0.1,0-0.2,0-0.2-0.1c-3.8-3.5-7.6-7-11.4-10.4c-0.7-0.7-0.9-1.3-0.7-2.2c1.9-8.1,3.6-16.2,5.6-24.2c2.8-11.3,3.3-22.8,2.6-34.3
		c-0.9-15.9-1.7-31.7-2.8-47.5c-1-13.7-2.3-27.3-3.5-41c-0.5-6.2-1.2-12.4-1.7-18.6c-0.1-0.7,0.2-1.5,0.7-2
		c4.8-5.7,10.6-10.2,16.8-14.2c2.1-1.3,4.1-2.7,6.1-4.2c2.9-2.1,4.1-5,3.4-8.5c-0.7-3.2-1.7-6.4-2.6-9.6c-0.1-0.5-0.4-0.9-0.7-1.4
		c-1.1-1.6-2.7-1.9-4.1-0.6c-1,0.9-1.8,2-2.6,3.1c-5.7,7.6-11.4,15.2-17.1,22.9c-0.2,0.3-0.5,0.6-0.7,0.9
		C226.9,416.1,226.8,416.1,226.6,416z M287,355.9c4.7,0,9.3,0.2,13.8,0c4.4-0.2,8.8-0.8,13.2-1.3c1.7-0.2,2.1-0.8,2.3-2.4
		c0.1-0.8,0.1-1.7,0.2-2.5c1.5-14.6,3-29.1,1.5-43.8c-0.1-1.1-0.4-2.1-0.7-3.1c-0.5-1.6-0.9-2-2.5-2c-9.5,0-19-0.2-28.6,0.1
		c-10.2,0.3-20.4,1.1-30.5,1.8c-1.5,0.1-3,0.7-4.5,1.1c-0.9,0.3-1.2,1.1-1,2c0.3,1.6,0.5,3.2,0.7,4.7c1.2,9.5,2.3,19,3.5,28.4
		c0.5,4.1,0.9,8.3,1.4,12.4c0.2,1.5,0.8,2,2.2,2.3c0.5,0.1,0.9,0.2,1.4,0.2C268.7,354.6,277.9,355.3,287,355.9z M239.6,572.3
		c-0.1,0.1-0.2,0.2-0.2,0.3c5.8,4.4,11.8,8.6,18.1,12.3c6.3,3.7,12.8,7.1,19.4,10.7c-0.8,0.1-1.4,0.2-2,0.2
		c-4.7-0.2-9.4-0.4-14.1-0.6c-9.7-0.4-19.4-0.9-29.1-1.3c-0.6,0-1.1,0.1-1.7,0.1c0,0.2,0,0.3,0,0.5c0.8,0.2,1.6,0.4,2.5,0.4
		c5.5,0.5,11.1,1,16.6,1.4c8.3,0.5,16.5,0.9,24.8,1.3c1.1,0.1,2.3-0.2,3.4-0.5c0.6-0.2,1.5-0.8,1.5-1.4c0.1-0.5-0.6-1.3-1.1-1.7
		c-0.6-0.5-1.3-0.7-2-1.1c-2.6-1.3-5.2-2.5-7.7-4c-8.2-4.8-16.3-9.6-24.5-14.5C242.2,573.7,240.9,573,239.6,572.3z M347,601.8
		c0-0.2,0-0.3-0.1-0.5c-2.1,0.2-4.1,0.5-6.2,0.6c-6.3,0.5-12.6,1-18.9,1.5c-2.5,0.2-5-0.2-7.3-1.4c-0.5-0.2-0.9-0.6-1.3-0.9
		c0-0.1,0-0.3,0-0.4c1-0.4,2-0.8,3.1-1.1c6.9-1.9,13.9-3.5,20.7-5.6c4.3-1.3,8.4-3.1,12.5-4.8c1.3-0.5,2.3-1.5,3.4-2.4
		c0.3-0.2,0.3-0.8,0.4-1.2c-0.4,0.1-0.8,0.1-1.2,0.2c-1.4,0.7-2.6,1.6-4,2.1c-4.5,1.7-9,3.4-13.6,4.7c-6.2,1.8-12.6,3.4-18.9,5.1
		c-0.9,0.2-1.8,0.6-2.7,1c-2.4,1.2-2.5,3.3-0.2,4.7c0.6,0.4,1.3,0.7,2,1c2.8,1.1,5.7,1.3,8.6,1c4.8-0.5,9.5-1.2,14.3-1.9
		C340.9,603,343.9,602.3,347,601.8z"/>
	<path class="st1" d="M232,103.9c-4.7-0.7-8,2.1-8.5,7.3c-0.3,3.2,0.2,6.2,1.2,9.2c2.1,6.1,5.7,11.1,11.1,14.6
		c1,0.7,2.1,1.3,3.3,1.6c1.4,0.3,1.8,1.2,2.2,2.4c0.7,2.9,1.7,5.7,2.4,8.5c0.1,0.3-0.1,1-0.4,1.1c-8.8,4.6-17.7,8.7-27.7,10.1
		c-4.1,0.6-8.2,0.5-12.2-0.5c-9.2-2.2-14.5-8.2-16.2-17.4c-1.4-7.4-0.7-14.8,0.6-22.2c2.2-12.8,7-24.6,13.8-35.6
		c11-17.8,25.6-32,42.9-43.6c10.9-7.3,22.6-13.2,35-17.4c12.5-4.2,25.4-6.4,38.7-6.1c6.4,0.2,12.7,1.1,18.4,4.2
		c10.3,5.4,15.7,13.9,15.9,25.6c0.1,6.9-1.4,13.5-4,19.9c-5.3,13.1-12.5,25.1-22.2,35.5c-0.8,0.8-1.6,1.7-2.4,2.5
		c-0.1,0.1-0.2,0.1-0.4,0.3c-0.8-1.4-1.9-2.6-3.6-3.1c-1.7-0.4-3.2,0.1-4.9,1.1c0.4-3.9,0.6-7.6,1.2-11.2
		c1.7-10.1,2.7-20.2,3.1-30.4c0.1-1.7-0.3-3.6-0.9-5.2c-0.4-1.1-1.8-1.9-2.4-3c-0.6-1.1-0.5-2.5-1.1-3.6c-1.4-2.4-3.7-3.8-6.3-4.4
		c-1.6-0.4-2.5-1-3-2.8c-1.3-3.9-4.6-5.4-8.4-6.1c-2.3-0.4-4.6-0.2-6.9,0.3c-0.6,0.1-1.2,0-1.8-0.2c-2.1-0.6-4.2-1.5-6.4-1.9
		c-2.9-0.6-5.7,0.3-8,2c-0.8,0.6-1.3,0.5-2.1,0.1c-4.3-2-8.4-1.9-12.4,0.7c-0.7,0.5-1.4,1.1-1.9,1.8c-0.5,0.6-0.9,0.7-1.6,0.6
		c-2.7-0.5-5.5-0.5-8.2,0.3c-3,0.8-5.2,2.6-6.6,5.4c-0.2,0.4-0.6,0.8-1,0.8c-3.5,0.3-7.5,4.8-7.9,8.1c-0.1,0.7-0.3,1-1,1.2
		c-1.4,0.3-2.3,1.3-2.6,2.6c-0.6,2.1-1.2,4.2-1.5,6.3c-0.8,6.5,0.1,13,1.1,19.5c0.6,4.1,1.6,8.2,2.3,12.2
		C231.1,98.1,231.6,100.9,232,103.9z"/>
	<path class="st2" d="M239.4,613.1c1.2,0.3,2.2,0.6,3.3,0.7c5.7,0.4,11.4,0.8,17.1,1.1c5.2,0.3,10.3,0.3,15.6-0.7
		c0,0.6,0.1,1,0.1,1.5c0.1,11,0.2,21.9,0.4,32.9c0.1,7.2,0.5,14.5,0.4,21.7c-0.2,10.8-0.5,21.5-1.2,32.2c-0.3,5.1-1.2,10.2-2.1,15.2
		c-0.6,3.5-1.3,7-2.3,10.4c-2.8,9.9-9.7,15.9-19.4,18.5c-11,3-22.2,5-33.6,5.4c-7.2,0.2-14.4-0.2-21.5-1.7c-2.3-0.5-4.5-1.1-6.3-2.7
		c-1.5-1.2-2-2.6-1.5-4.6c0.8-3.3,2.6-5.8,5.4-7.4c2.8-1.6,5.8-3,8.8-4.2c2.5-1,5-1.8,7.6-2.7c7.7-2.5,14.6-6.6,21.3-11.1
		c7-4.8,10.8-11.4,11.7-19.8c1.2-11.6,1.7-23.1,0.7-34.7c-1.2-14.5-2.7-28.9-4-43.3C239.8,617.4,239.6,615.2,239.4,613.1z"/>
	<path class="st3" d="M251.2,155.3c3.4-1.9,6.5-3.7,9.8-5.5c2.2-1.2,4.4-2.2,6.7-3.3c0.4-0.2,0.8-0.2,1.3-0.1
		c6.4,0.5,12.7,1,19.1,1.5c1.9,0.1,3.8-0.1,5.6-0.2c1.3-0.1,2.5-1.4,2.2-2.7c-0.1-0.4-0.6-1-0.9-1c-0.5,0-1.2,0.4-1.3,0.9
		c-0.3,0.8-0.7,1-1.3,0.6c-3.2-2.1-6.9-2.8-10.6-3.7c-6.4-1.4-12.8-1.3-19.2-0.2c-0.7,0.1-1.3,0.3-2,0.5c-1.3,0.5-1.6,0.3-2.1-1.1
		c-0.2-0.5-0.4-1.1-0.9-1.5c-0.8-0.7-1.6-0.4-1.8,0.7c-0.3,1.9,1.2,4.3,3.3,4.9c1.1,0.3,2.3,0.5,3.6,0.7c-4.4,2.4-8.7,4.7-13.2,7.1
		c-1.2-2.9-2.6-5.7-3.4-8.6c-1.9-6.6-3.5-13.2-5.2-19.8c-2.2-8.2-4.5-16.4-6.7-24.7c-1.4-5.1-0.7-10,1.6-14.7c2-4.3,4.4-8.2,8-11.4
		c3.7-3.4,7.8-4.2,12.5-2.3c3.5,1.5,7.1,2.8,10.6,4.2c7.2,2.8,14.3,1.9,21.2-1c2.6-1.1,5.2-2.2,7.9-3.2c4.2-1.4,7.8-0.5,10.2,3.2
		c4.5,6.8,7.6,14,6.6,22.5c-1.3,10.5-2.4,21-3.6,31.5c-0.3,2.8-0.4,5.7-0.9,8.5c-0.4,2.4-1,4.9-1.8,7.2c-1.1,3.1-2.2,6.4-4,9.1
		c-4.3,6.1-9.7,11.2-17.6,11.9c-4,0.4-8.1,0-12.1-0.4c-4.9-0.5-9.6-1.6-14.2-3.4C255.5,160.4,253.1,158.2,251.2,155.3z M262.6,102.6
		c0-0.1,0.1-0.2,0.1-0.3c1.3,0,2.6,0,3.9,0c0.8,0,1.2,0.3,1.4,1c0.6,1.5,1.2,3,1.7,4.5c2.2,6.1,1.2,11.7-2.4,17
		c-0.7,1-1.3,1.9-1.9,2.9c-1.3,2.2-1.2,3.5,0.6,5.3c3.3,3.4,7.3,5.3,12.2,4.9c3-0.3,5-1.8,6-4.7c0.2-0.7,0.6-1.3,0.9-1.9
		c0.6-1.1,1.1-2.3,0.6-3.5c-0.1-0.3-0.7-0.5-1-0.7c-0.1,0.4-0.3,0.7-0.3,1.1c0,0.5,0.1,1,0,1.5c-0.1,2.3-2,3.4-3.3,4.9
		c-0.5,0.5-1.2,0.9-1.9,1c-4.8,0.9-8.6-0.9-11.7-4.5c-0.3-0.4-0.4-1.3-0.1-1.8c0.5-1.1,1.3-2.2,2-3.2c3.4-5.1,4.8-10.7,2.8-16.7
		c-1.1-3.2-2.7-6.2-4-9.3c-1-2.5-3-3.6-5.6-4c-5.6-0.8-11.1-0.6-16.6,0.4c-0.6,0.1-1.3,0.6-1.5,1.2c-1.3,2.7,0.5,5.4,3.5,5.1
		c0.8-0.1,1.6-0.1,2.4-0.2c-0.8,0.8-1.7,1.3-2.4,2c-2.7,3.2-2.9,5.9,1.1,7.5c2,0.8,4.2,1.3,6.3,1.8c3.4,0.7,6.7,0.1,9.9-1.2
		c0.6-0.3,1.6-1,1.5-1.5c0-2.6-0.5-5.1-2.5-7C263.7,103.6,263.2,103.1,262.6,102.6z M285.9,103.1c-0.5,0.5-0.7,0.7-0.9,0.8
		c-1.6,1.3-2.8,2.9-3,5.1c-0.2,1.7,0,2.3,1.6,2.9c3.4,1.2,6.9,1.9,10.6,1.7c2.7-0.1,5.2-1.1,7.2-2.8c2.4-2.1,2.3-4.7-0.3-6.6
		c-0.6-0.4-1.3-0.7-1.9-1c-0.2-0.1-0.5-0.3-0.8-0.4c0-0.1,0-0.2,0.1-0.3c1.5,0.1,3.1,0.2,4.6,0.4c1,0.1,1.7-0.1,2.1-1.1
		c0.9-2.6,0.1-4.2-2.6-4.9c-0.6-0.1-1.2-0.3-1.8-0.3c-6.2-0.1-12.5-0.1-18.7-0.2c-0.9,0-1.2,0.4-1.2,1.1c0.1,1.4,0.3,2.8,0.6,4.1
		c0.2,1.1,1.1,1.6,2.2,1.5C284.5,103.1,285,103.1,285.9,103.1z M276.9,154.1c1.2-0.3,2.1-0.5,2.9-0.8c0.3-0.1,0.7-0.7,0.6-1
		c0-0.3-0.5-0.7-0.9-0.8c-0.6-0.2-1.2-0.1-1.8-0.2c-2.2-0.4-4.4-0.8-6.7-1.2c-0.6-0.1-1.3-0.8-1.6,0.1c-0.2,0.4,0.3,1.1,0.7,1.6
		c0.3,0.4,0.7,0.6,1.2,0.8C273.3,153.1,275.2,153.6,276.9,154.1z"/>
	<path class="st2" d="M311.5,615.6c12.5,2.3,24.7,1.5,37-2c0,0.7,0,1.2,0,1.6c-0.7,19.3-1.5,38.6-2.1,57.9
		c-0.4,11.5-0.2,23,0.7,34.5c0.4,4.6,1.4,8.9,3.1,13.1c2,5.1,5.4,8.5,10.5,10.4c4.3,1.6,8.7,3.1,13.2,4.5c4.7,1.5,8.9,3.7,12,7.5
		c0.9,1.2,1.6,2.6,2.1,4.1c0.5,1.5,0.1,2.4-1.5,2.9c-2,0.7-4.1,1.3-6.3,1.5c-10.4,1-20.8,0.3-31-2.2c-6.5-1.6-13-3.3-19.3-5.8
		c-4.7-1.9-7.3-5.1-8.5-10c-2.5-9.7-4-19.6-4.5-29.6c-0.5-10.6-1.1-21.2-2-31.8c-0.6-7.6-1.6-15.1-2.5-22.7c-1.3-11-1.5-22-1.2-33.1
		C311.4,616.4,311.4,616.2,311.5,615.6z"/>
	<path class="st3" d="M199.4,299.9c-2.3,4.2-4.4,8.2-6.6,12.2c-5.6,9.9-11.2,19.9-16.8,29.8c-0.3,0.5-0.9,0.9-1.5,1
		c-5.5,1.6-10.4,4.2-14.4,8.2c-0.5,0.5-0.9,1.1-1.3,1.6c0.1,0.1,0.1,0.2,0.2,0.3c0.4-0.1,0.8-0.1,1.2-0.2c1.6-0.7,3.1-1.4,4.7-2.2
		c1.5-0.8,3-1.7,4.5-2.5c7.4-4.1,14.8-3.5,21.9,0.7c5.5,3.3,10.7,6.8,16.1,10.3c2,1.3,3.9,2.6,5.9,3.7c1.8,1,3.9,1.7,5.5,2.4
		c-4.4,1.5-4.6,5.7-4.9,9.7c-0.1,1.6,0.9,2.9,2.1,3.5c-0.5,2.1-1,4.1-1.6,6.2c-0.6-0.2-1.6-0.4-2.5-0.6
		c-14.9-4.2-29.9-8.4-44.7-12.8c-4.7-1.4-9.3-3.2-13.8-5.1c-4.5-1.8-8.1-5-11.6-8.4c-2.5-2.5-3-5.6-1.7-9c3-7.6,5.9-15.1,9.6-22.4
		c7.5-14.4,15-28.8,22.4-43.3c0.9-1.7,1.4-3.6,2.1-5.6C181.8,285.5,190,293.2,199.4,299.9z"/>
	<path class="st4" d="M228.6,334.3c0-2.3,0-4.2,0-6.2c0.1-7.8,0.2-15.5,0.2-23.3c0-1.9-0.5-3.9-1-5.8c-3-12.3-7.4-24.2-11.5-36.1
		c-1.9-5.4-3.7-10.8-5.7-16.2c-0.2-0.4-0.8-0.7-1.1-1.1c-0.2,0.5-0.7,1.1-0.6,1.5c0.5,2.3,1,4.5,1.6,6.7c1.3,4.3,2.7,8.5,4.1,12.8
		c0.1,0.4,0.2,0.8,0.4,1.5c-0.4-0.3-0.5-0.5-0.7-0.6c-4.4-5.7-8.8-11.4-13.1-17.1c-0.6-0.8-1.1-1.8-1.7-2.7c-0.2-0.3-0.6-0.4-1-0.7
		c-0.1,0.4-0.5,0.9-0.3,1.1c0.5,1,1,2,1.6,2.9c3.1,4.2,6.2,8.3,9.3,12.5c2.5,3.4,5,6.8,7.4,10.3c0.8,1.2,1.3,2.6,1.9,3.9
		c-0.1,0.1-0.2,0.2-0.3,0.3c-0.4-0.2-0.7-0.5-1.1-0.7c-8.2-5.8-16.8-11.2-26.1-15.2c-0.6-0.3-1.2-0.5-1.8-0.6
		c-0.3-0.1-0.7,0.2-1.1,0.4c0.2,0.4,0.4,0.8,0.6,1.1c0.1,0.2,0.4,0.2,0.7,0.3c10.7,3.8,20.2,9.9,29.3,16.7c1.4,1.1,1.8,4,0.9,5.5
		c-3.4,5.5-6.8,10.9-10.2,16.4c-0.1,0.2-0.2,0.3-0.4,0.6c-2.9-2.1-5.8-4.1-8.6-6.2c-10.2-7.5-19.3-16.2-27.8-25.7
		c-0.8-0.9-1-1.6-0.5-2.7c1-2,1.9-4,3-6c3.9-6.9,7.8-13.9,11.9-20.7c4.8-7.9,9.8-15.6,14.7-23.3c1.7-2.6,3.3-5.3,5-7.9
		c0.4-0.6,1.1-1.1,1.8-1.4c2.1-0.7,4.2-1.2,6.4-1.8c0.3,1.1,0.5,1.9,0.8,2.8c2.8,9.1,3.6,18.6,5.3,27.9c3.7,20.7,6,41.6,8.5,62.4
		c0.7,5.6,1.5,11.3,2.2,16.9c0.2,1.4,0.1,2.9,0.3,4.3c0.4,3.1,0.8,6.2,1.3,9.2c0.1,0.8,0,1.2-0.6,1.6
		C231.4,332.9,230.1,333.5,228.6,334.3z"/>
	<path class="st3" d="M356.9,377.1c-0.1-0.9-0.1-1.6-0.2-2.4c-0.2-1.7-0.4-3.4-0.6-5.1c0-0.4-0.2-0.8,0-1.1c2-2.7,1.2-5.7,0.7-8.6
		c0-0.3-0.2-0.5-0.1-0.5c2.6-1.6,5.3-3,7.7-4.8c3.7-2.8,6.7-6.3,8.9-10.3c2.7-4.9,6.7-8.3,11.5-10.7c4.1-2,8.4-3.7,12.6-5.6
		c0.4-0.2,0.8-0.4,1.2-0.8c-3.1-0.3-6.2,0.1-9,1.2c-2.9,1.1-5.7,2.5-8.5,3.8c-7.1-12.6-14.8-24.9-23.6-36.4
		c8.6-6.1,17.2-12.3,25.8-18.4c1.5,2.2,3.1,4.5,4.6,6.9c5.8,8.9,10.3,18.6,14.8,28.2c3.5,7.5,6.8,15.2,9,23.2c0.6,2.2,1,4.4,1.3,6.7
		c0.3,3-1.1,5.1-3.6,6.7c-5.5,3.6-11.6,6-17.4,9.1c-8.9,4.7-18,9.2-27,13.9C362.2,373.6,359.8,375.3,356.9,377.1z"/>
	<path class="st5" d="M314.3,84.6c-0.6-1.4-1.2-2.8-1.8-4.3c-1.1-2.7-2.4-5.3-4.2-7.6c-3.5-4.3-7.9-5.8-13.3-4.1
		c-2.6,0.9-5.2,1.9-7.7,3c-6.7,2.9-13.4,3.7-20.4,0.9c-3.3-1.4-6.6-2.6-9.9-3.9c-5.6-2.3-10.7-1.4-15.3,2.6
		c-4.3,3.8-7.1,8.5-9.4,13.6c-0.1,0.3-0.2,0.5-0.3,0.8c0,0-0.1,0-0.3,0.2c-0.3-1.6-0.5-3.2-0.7-4.7c-0.9-6.2-1.6-12.5-0.8-18.8
		c0.2-1.4,0.6-2.7,1-4.1c0.2-0.8,0.8-1.3,1.8-1.2c1.3,0.1,2.1-0.7,2.1-2c0-3.7,2.7-6.6,6.3-7c0.7-0.1,1.6-0.7,1.8-1.2
		c1.4-4.1,4.6-5.3,8.5-5.4c1.7,0,3.4,0.3,5.1,0.5c1,0.1,1.7,0,2.3-0.9c2.2-3.1,5.8-4.5,9.6-3.4c1.1,0.3,2.2,0.9,3.3,1.4
		c1,0.5,1.9,0.5,2.8-0.3c2.7-2.4,5.9-2.9,9.3-1.8c1.3,0.4,2.6,1,3.9,1.5c1,0.4,2,0.5,3,0.1c2.8-0.9,5.5-0.8,8.2,0.3
		c2.5,1,4.2,2.6,4.2,5.6c0,1.2,0.8,1.7,1.9,2c1.8,0.5,3.6,0.9,5.2,1.7c1.9,0.9,3,2.5,2.7,4.8c-0.1,0.9,0.3,1.7,1.2,2
		c1.4,0.5,2.1,1.7,2.1,3.1c0.1,2.4,0.1,4.8-0.1,7.2c-0.5,6-1.1,11.9-1.6,17.9c0,0.5-0.1,0.9-0.2,1.4
		C314.4,84.5,314.4,84.6,314.3,84.6z"/>
	<path class="st4" d="M234.3,207c6,3.8,12.1,6.8,17.3,11.2c4,3.4,8.2,6.6,12.3,9.9c1.8,1.5,2.5,1.5,4.3,0c3.9-3.5,8.5-5.7,13.5-7
		c0.4-0.1,0.8-0.2,1.4-0.4c-0.4,21.1,0,42.1,1.4,63.2c-2.2,0.1-4.2,0.3-6.3,0.3c-5,0.1-10,0-15,0.1c-2.5,0-5,0.1-7.4,0.2
		c-0.9,0-1.3-0.2-1.5-1.1c-1.6-6.5-3.2-13-4.9-19.4c-3.8-14.2-7.7-28.4-11.5-42.6c-1.2-4.4-2.2-8.8-3.3-13.1
		C234.5,208,234.4,207.6,234.3,207z"/>
	<path class="st4" d="M350.2,297.2c-2.1-4.5-2.9-9-2.1-13.9c1.2-7,2.7-14,5.1-20.7c1-2.7,1.8-5.5,2.7-8.3c0.1-0.4,0.1-0.8,0.1-1.3
		c-2.5,2.8-4.1,6-5.3,9.5c-1.2,3.5-2.3,7-3.5,10.8c0.7-12.8,1.1-25.4,2.5-37.9c0.1,0,0.2,0,0.3,0c0.2,2.7,0.5,5.5,0.7,8.2
		c0.2,2.5,0.5,5,0.7,7.5c0,0.5,0.1,1,0.3,1.4c0.4,1.2,1.5,1.6,2.3,0.7c1.2-1.3,2.3-2.7,3.4-4.1c0.1-0.1,0-0.3,0.1-0.8
		c-1.5,1.3-2.8,2.3-4.4,3.6c-0.1-1.2-0.3-2.3-0.4-3.3c-0.5-5.3-0.9-10.5-1.4-15.8c0-0.5,0-1-0.3-1.4c-0.3-0.5-0.8-1-1.2-1.4
		c-0.5,0.4-1.1,0.8-1.3,1.3c-0.4,1-0.7,2.1-0.8,3.1c-0.6,5.6-1.3,11.3-1.6,17c-0.6,10.3-1,20.7-1.3,31c-0.5,15.4-0.8,30.8-1.1,46.2
		c-0.1,2.2,0.1,4.5,0.1,6.7c0,0.3,0,0.7,0,1.1c-2.1-0.3-2.5-0.7-2.5-2.6c-0.1-6.3-0.4-12.6-0.4-18.9c0-7.2,0-14.3,0.2-21.5
		c0.3-11.4,0.7-22.8,1-34.2c0.2-10.8,0.2-21.7,0.3-32.5c0-0.9,0.3-1.9,0.5-2.8c0.2-1.4,0.6-2.8,0.6-4.3c0.1-3.8,0-7.6,0-11.4
		c0-0.4,0-0.9,0-1.3c2.3,0.1,4.5,0.2,6.7,0.4c0.3,0,0.8,0.5,0.9,0.9c1.7,3.6,3.2,7.3,5,10.8c4.5,8.4,9.1,16.7,13.7,25.1
		c4.7,8.5,10,16.6,15.4,24.6c1.4,2.1,1.3,1.6-0.4,3.1c-9.7,8.1-20.1,15.2-30.8,22.1c-0.9,0.6-1.6,1.3-2.4,2
		C351.2,296.3,350.7,296.8,350.2,297.2z"/>
	<path class="st4" d="M323.7,206c-0.6,3.6-1.4,7.2-1.9,10.8c-1.2,8-2.2,16-3.4,24c-1.9,13.2-4,26.4-7.7,39.3
		c-0.8,2.9-0.3,2.2-3.1,2.4c-6.5,0.4-13,0.8-19.5,1.1c-0.3,0-0.5,0-1,0c-1.3-20.9-1.7-41.7-1.9-62.9c0.6,0.4,0.9,0.6,1.3,0.8
		c3.2,2,6.4,4,9.6,6c1.8,1.1,3.5,1,5-0.5c1.6-1.6,3.4-3.2,4.8-5c3.5-4.5,7.7-8.2,12.1-11.7c1.8-1.5,3.6-3,5.4-4.5
		C323.5,205.9,323.6,205.9,323.7,206z"/>
	<path class="st3" d="M257.9,164.6c0.6,0.2,1,0.3,1.4,0.4c7.8,2.5,15.8,3.8,24.1,3.6c4.9-0.1,9.3-1.7,13.2-4.8
		c0.3-0.3,0.7-0.5,1.1-0.9c0.3,2.7,0.4,5.2,0.8,7.7c0.7,4.9,1.3,9.7,2.1,14.6c0.2,1.5,1,2.9,1.4,4.3c0.1,0.5,0.1,1.2-0.2,1.6
		c-2.7,4.2-5.3,8.4-8.1,12.6c-2.8,4.2-5.5,8.4-8.3,12.6c-0.3,0.5-0.8,1-1.2,1.4c-1.9-2.2-3.7-4.3-5.5-6.4
		c-6.8-7.5-13.6-15-20.4-22.5c-0.7-0.7-0.8-1.4-0.6-2.4c1.6-6.5,1.4-13,0.5-19.5C258.2,166.3,258.1,165.5,257.9,164.6z"/>
	<path class="st6" d="M281,218.4c-0.9,0.3-1.5,0.6-2.1,0.8c-4.3,1.2-8.1,3.2-11.4,6.2c-1.1,1-1.8,0.8-2.8,0c-3.6-3-7.4-5.9-11-8.9
		c-4.2-3.5-8.9-6.3-13.6-9.1c-2.9-1.7-5.7-3.6-8.5-5.4c-0.6-0.4-1.1-0.9-2.1-1.6c1.6-1.4,3-2.8,4.4-4c4.1-3.5,8.6-6.4,13.7-8.3
		c1.7-0.6,3.6-0.7,5.4-1c0.3,0,0.8,0.2,1.1,0.5c7.8,8.9,15.6,17.9,23.4,26.8C278.6,215.6,279.8,217,281,218.4z"/>
	<path class="st6" d="M287,218.8c0.3-0.5,0.5-0.8,0.6-1c5.1-7.6,10.2-15.2,15.3-22.8c0.8-1.3,1.6-2.6,2.3-3.9
		c0.6-1.2,1.1-2.4,1.7-3.7c6,1.1,11.8,2.9,16.4,7.4c0.7,0.7,1.5,1.4,2.2,2.2c0.8,0.8,0.9,1.6,0,2.5c-3.6,3.3-7,6.7-10.7,9.7
		c-4.3,3.5-8.3,7.4-11.8,11.7c-1.2,1.5-2.6,2.7-4,4c-0.3,0.3-1.1,0.5-1.4,0.3C294.1,223,290.6,220.9,287,218.8z"/>
	<path class="st7" d="M286,16.6C261.6,23.7,240.5,36,222,52.9c-0.1-0.1-0.2-0.1-0.3-0.2c0.9-2.3,1.7-4.6,2.8-6.8
		c4.9-10.4,12.1-18.8,22.2-24.4c5.7-3.2,11.9-4.7,18.4-5.5c6.5-0.7,12.9-0.7,19.4,0.3C284.9,16.3,285.3,16.4,286,16.6z"/>
	<path class="st8" d="M348,425.4c-3.3-3.5-6.5-6.8-9.7-10.1c-6.5-6.7-13-13.3-19.4-20c-2.5-2.6-2.6-1.8-0.5-5.2c1.7-2.9,2.2-3,5-1.1
		c4.5,3.1,8.9,6.4,13.3,9.6c3.4,2.4,6.8,4.6,10.2,7c0.4,0.3,0.9,0.9,0.9,1.3c0.1,6,0.2,12,0.3,18C348.1,425,348.1,425.1,348,425.4z"
		/>
	<path class="st3" d="M237.7,379c-4.2-0.5-8.9-1.2-13.6-1.8c-1.9-0.3-3.7-0.5-5.6-0.9c-1.9-0.4-2.4-1-2.1-2.9
		c0.2-1.1,0.5-2.3,0.8-3.4c0.4-1.6,1.5-2.3,3.1-2.6c6.8-1.2,13.3,0.1,19.9,1.2c2,0.3,3.6,1.4,4.5,3.2c0.9,1.6,1.7,3.2,2.5,4.8
		c0.4,0.8,0.1,1.3-0.8,1.4C243.8,378.4,241.1,378.7,237.7,379z"/>
	<path class="st8" d="M249.5,391.2c1.5,4.1,3.3,8.1,2.9,12.6c-0.1,1.7-1.4,2.9-2.6,3.8c-1.5,1.1-3.1,2.2-4.6,3.2
		c-6.3,4-12.2,8.4-17.3,14c-0.1,0.1-0.1,0.1-0.4,0.2c-0.1-2-0.3-3.9-0.4-5.8c0-0.2,0.2-0.5,0.4-0.7c7.4-7.9,13.6-16.7,19.9-25.3
		c0.5-0.7,1.2-1.4,1.7-2.1C249.2,391.1,249.3,391.1,249.5,391.2z"/>
	<path class="st7" d="M229.4,179c-0.4,1.3-0.6,2.7-1.1,4c-0.9,2-2.2,2.1-3.7,0.5c-0.4-0.4-0.7-1-1-1.5c-0.4-0.7-0.9-1.3-1.8-1
		c-0.8,0.3-0.9,1-0.9,1.7c0,0.9,0,1.8-0.4,2.6c-1,2.3-2.5,4.4-4.7,5.6c-1.2,0.6-2.7,1-4.1,1c-1.8,0-2.3-1.2-1.3-2.7
		c0.6-0.9,1.3-1.7,2.1-2.5c5.6-5.2,11.3-10.4,16.9-15.6c0.5-0.4,1-0.8,1.5-1.2c2.3-1.9,5.6-0.9,6.3,2.1c0.4,1.8,0,3.4-1.2,4.8
		c-1.1,1.2-2.3,1.4-3.6,0.5c-0.3-0.2-0.5-0.5-0.8-0.5c-0.5-0.1-1.3-0.4-1.6-0.1c-0.4,0.2-0.5,1-0.7,1.5c-0.1,0.3,0,0.6,0.1,1
		C229.3,179,229.3,179,229.4,179z"/>
	<path class="st3" d="M354.7,363.7c0.4,1.8-0.5,3.1-1.7,4.2c-2.8,2.7-5.6,5.4-8.5,8.1c-0.3,0.3-0.6,0.5-1,0.6
		c-2.3,0.6-4.6,1.2-7,1.8c-0.7,0.2-0.9-0.2-1-0.8c-0.2-2.9,0.3-5.4,2.7-7.5c4.1-3.6,8.1-7.5,13-10.1c1.7-0.9,2.9-0.3,3.2,1.6
		C354.7,362.3,354.7,363,354.7,363.7z"/>
	<path class="st3" d="M313.7,117.4c0.3-3.3,0.6-6.9,0.9-10.5c0.2-1.5,2.5-3.5,4-3.5c1.2,0,2.3,0.9,2.6,2.4c0.5,2.2,1,4.5,1,6.8
		c0.1,8.3-3.6,14.7-10.1,19.7c-0.1,0-0.1,0-0.5,0.1c0.5-4.2,1-8.3,1.5-12.4c0.1-0.1,0.3-0.1,0.4-0.2c1,0.7,1.9,1.3,2.9,2
		c0.6,0.5,1.2,1.1,2,0.4c0.8-0.7,0.4-1.6-0.2-2.1C316.8,119.3,315.3,118.4,313.7,117.4z"/>
	<path class="st3" d="M235.9,118.6c-1,0.7-2.2,1.2-3,2c-0.7,0.7-1.3,1.6-1.6,2.6c-0.1,0.4,0.5,1.4,0.9,1.6c0.7,0.4,1.1-0.3,1.4-0.9
		c0.5-1.4,1.6-2.2,3-3c1.1,4.4,2.2,8.6,3.3,13.2c-0.9-0.5-1.6-0.8-2.2-1.2c-6.9-4.6-10.7-11-11.5-19.2c-0.2-2,0.1-3.9,1.2-5.6
		c1.4-2.1,3.3-2.4,5.1-0.8c0.3,0.2,0.5,0.5,0.6,0.9C234.1,111.6,235,115.2,235.9,118.6z"/>
	<path class="st3" d="M222.9,362.8c0-0.1-0.1-0.2-0.1-0.4c0-5.9,1.1-6.8,6.2-7.9c4.6-1,9.2-0.5,13.7,0.1c1.1,0.1,1.9,0.7,2.1,1.7
		c0.3,1.8,0.4,3.5,0.6,5.3c0.1,0.9-0.7,0.7-1.2,0.6c-5.1-0.1-10.2-0.2-15.3-0.1C226.9,362.2,224.9,362.6,222.9,362.8z"/>
	<path class="st3" d="M231.1,388c-2.4-0.3-5.7-0.7-8.9-1.3c-1.3-0.2-2.5-0.9-3.7-1.6c-1.2-0.6-1.6-1.7-1.3-3
		c0.1-0.3,0.1-0.6,0.2-0.9c0.6-2.1,0.7-2.1,2.8-1.8c5.1,0.7,10.2,1.2,15.3,2.1c1.3,0.2,2.6,1.1,3.5,2.1c1.2,1.3-0.2,3.8-2,4.1
		C235.3,387.8,233.6,387.8,231.1,388z"/>
	<path class="st3" d="M349.7,356.5c-3.6,1.6-7.1,3.1-10.7,4.6c-0.6,0.3-1.3,0.5-1.9,0.7c-3.1,1.1-5.3,0.3-7.2-2.7
		c4.4-3.3,8.8-6.5,14.4-7.5c2.1-0.4,2.5-0.1,3.6,1.7C348.5,354.2,349,355.3,349.7,356.5z"/>
	<path class="st3" d="M217.9,387.9c4.6,2.3,9.6,2.5,14.6,2.6c0.7,0,1,0.3,1,1c0.2,2.1-1.6,4.3-3.7,4.2c-3.1-0.1-6.2-0.2-9.2-0.7
		C216.9,394.3,215.8,391.3,217.9,387.9z"/>
	<path class="st3" d="M342.5,385.9c-0.2-1.8-0.5-3.3-0.6-4.8c0-0.3,0.4-0.9,0.7-1c2.4-0.5,4-2,5.6-3.7c1.9-2,4-3.9,6.2-6
		c0.3,1.8,0.3,3.3-0.4,4.7C351.5,380.1,347.5,383.3,342.5,385.9z"/>
	<path class="st7" d="M230.6,166c-2.7,2.4-5.3,4.7-8,7.1c-0.2,0.1-0.5,0.3-0.6,0.2c-1.1-0.7-2.3-1.4-3.1-2.4c-0.7-1,0.1-2.1,0.9-3
		C222.5,165.1,228.4,164.6,230.6,166z"/>
	<path class="st7" d="M218.9,175.6c-2,2.2-4.1,4.7-6.3,7.1c-0.8,0.8-2.7,0.6-3.5-0.3c-0.2-0.2-0.3-0.7-0.3-1c0-0.4,0.2-0.8,0.4-1.1
		C210.8,177.1,216.3,174.7,218.9,175.6z"/>
	<path class="st5" d="M288.2,146c-8.5-0.8-17-1.6-25.4-2.5c0-0.1,0-0.3,0-0.4c8.7-1.2,17.2-0.6,25.4,2.3
		C288.2,145.6,288.2,145.8,288.2,146z"/>
	<path class="st3" d="M355.2,378.4c0.3,1.7,0.1,2.9-0.8,4.1c-1.2,1.5-2.3,3.1-3.4,4.7c-0.8,1.2-2,1.9-3.4,2.1
		c-0.4,0.1-1.2-0.2-1.3-0.4c-0.1-0.7-0.3-1.8,0.1-2.1C349.9,384.6,352.8,381.9,355.2,378.4z"/>
	<path d="M287,355.9c-9.1-0.7-18.2-1.4-27.3-2.1c-0.5,0-1-0.1-1.4-0.2c-1.4-0.3-2-0.8-2.2-2.3c-0.5-4.1-0.9-8.3-1.4-12.4
		c-1.1-9.5-2.3-19-3.5-28.4c-0.2-1.6-0.5-3.2-0.7-4.7c-0.2-1,0.1-1.7,1-2c1.5-0.5,3-1,4.5-1.1c10.2-0.7,20.3-1.5,30.5-1.8
		c9.5-0.3,19-0.1,28.6-0.1c1.6,0,2.1,0.4,2.5,2c0.3,1,0.6,2.1,0.7,3.1c1.4,14.7,0,29.2-1.5,43.8c-0.1,0.8-0.1,1.7-0.2,2.5
		c-0.2,1.6-0.7,2.2-2.3,2.4c-4.4,0.5-8.8,1.1-13.2,1.3C296.2,356.1,291.6,355.9,287,355.9z M254.7,322c0.2,1.3,0.4,2.5,0.5,3.7
		c1,8.1,1.9,16.2,2.9,24.3c0.1,1.1,0.5,1.4,1.6,1.4c11.7,0.6,23.4,1.3,35.1,1.8c5.9,0.3,11.7-0.1,17.6-0.9c1.2-0.2,1.8-0.5,1.7-1.8
		c0-1.2,0.2-2.3,0.3-3.5c0.7-8.9,1.3-17.9,2-26.8c0-0.5,0-0.9,0-1.4C295.7,320.1,275.3,321.8,254.7,322z M297.7,303
		c0,0.1,0,0.2,0,0.4c-3.9,0-7.8-0.2-11.7,0c-10.2,0.6-20.4,1.8-30.6,1.8c-0.8,0-1.5,0.4-2.3,0.6c-1,0.2-1,0.8-0.9,1.6
		c0.7,3.9,1.5,7.9,2.1,11.8c0.2,1,0.5,1.3,1.5,1.3c6.2-0.3,12.5-0.5,18.7-0.9c13.7-0.8,27.4-1.6,41.1-2.4c0.8,0,0.9-0.4,0.9-1
		c-0.1-1.8-0.1-3.7-0.2-5.5c-0.1-2.2-0.4-4.4-0.5-6.5c-0.1-0.9-0.7-1.1-1.5-1.1C308.6,303,303.1,303,297.7,303z"/>
	<path d="M239.6,572.3c1.3,0.7,2.5,1.5,3.8,2.2c8.2,4.8,16.3,9.7,24.5,14.5c2.5,1.4,5.1,2.7,7.7,4c0.7,0.3,1.4,0.6,2,1.1
		c0.5,0.5,1.2,1.2,1.1,1.7c-0.1,0.5-0.9,1.2-1.5,1.4c-1.1,0.3-2.3,0.6-3.4,0.5c-8.3-0.4-16.5-0.8-24.8-1.3
		c-5.5-0.3-11.1-0.9-16.6-1.4c-0.8-0.1-1.6-0.3-2.5-0.4c0-0.2,0-0.3,0-0.5c0.6-0.1,1.1-0.2,1.7-0.1c9.7,0.4,19.4,0.9,29.1,1.3
		c4.7,0.2,9.4,0.4,14.1,0.6c0.6,0,1.3-0.1,2-0.2c-6.6-3.6-13-7.1-19.4-10.7c-6.3-3.7-12.3-7.9-18.1-12.3
		C239.5,572.5,239.5,572.4,239.6,572.3z"/>
	<path d="M347,601.8c-3.1,0.6-6.2,1.3-9.3,1.7c-4.7,0.7-9.5,1.3-14.3,1.9c-2.9,0.3-5.8,0.1-8.6-1c-0.7-0.3-1.4-0.6-2-1
		c-2.2-1.4-2.1-3.5,0.2-4.7c0.8-0.4,1.8-0.7,2.7-1c6.3-1.7,12.6-3.2,18.9-5.1c4.6-1.4,9.1-3.1,13.6-4.7c1.4-0.5,2.7-1.4,4-2.1
		c0.3-0.2,0.8-0.2,1.2-0.2c-0.1,0.4-0.1,1-0.4,1.2c-1.1,0.9-2.1,1.9-3.4,2.4c-4.1,1.7-8.2,3.5-12.5,4.8c-6.8,2.1-13.8,3.7-20.7,5.6
		c-1.1,0.3-2.1,0.7-3.1,1.1c0,0.1,0,0.3,0,0.4c0.4,0.3,0.8,0.7,1.3,0.9c2.3,1.2,4.8,1.5,7.3,1.4c6.3-0.4,12.6-0.9,18.9-1.5
		c2.1-0.2,4.1-0.4,6.2-0.6C347,601.4,347,601.6,347,601.8z"/>
	<path d="M262.6,102.6c0.6,0.5,1.1,1,1.7,1.5c2.1,1.9,2.5,4.4,2.5,7c0,0.5-0.9,1.3-1.5,1.5c-3.2,1.3-6.5,1.9-9.9,1.2
		c-2.1-0.5-4.3-1-6.3-1.8c-3.9-1.6-3.7-4.3-1.1-7.5c0.6-0.7,1.6-1.2,2.4-2c-0.8,0.1-1.6,0.1-2.4,0.2c-3,0.2-4.8-2.4-3.5-5.1
		c0.3-0.5,1-1.1,1.5-1.2c5.5-1,11-1.3,16.6-0.4c2.5,0.4,4.5,1.4,5.6,4c1.3,3.1,2.9,6.1,4,9.3c2,6,0.7,11.5-2.8,16.7
		c-0.7,1.1-1.5,2.1-2,3.2c-0.2,0.5-0.2,1.4,0.1,1.8c3.1,3.6,6.9,5.4,11.7,4.5c0.7-0.1,1.5-0.5,1.9-1c1.3-1.5,3.2-2.6,3.3-4.9
		c0-0.5-0.1-1,0-1.5c0-0.4,0.2-0.7,0.3-1.1c0.4,0.2,0.9,0.4,1,0.7c0.5,1.3-0.1,2.4-0.6,3.5c-0.3,0.6-0.7,1.3-0.9,1.9
		c-0.9,2.9-2.9,4.5-6,4.7c-4.9,0.4-8.8-1.5-12.2-4.9c-1.8-1.8-1.9-3.1-0.6-5.3c0.6-1,1.2-2,1.9-2.9c3.6-5.3,4.6-10.9,2.4-17
		c-0.5-1.5-1.2-3-1.7-4.5c-0.3-0.7-0.7-1-1.4-1c-1.3,0-2.6,0-3.9,0C262.7,102.4,262.7,102.5,262.6,102.6z M266,100.6
		c0.1-0.2,0.2-0.4,0.3-0.6c-0.6-0.5-1.2-1.1-1.9-1.4c-0.9-0.4-1.8-0.5-2.8-0.7c-4.8-0.6-9.6-0.4-14.3,0.3c-0.9,0.1-1.3,0.4-1.2,1.3
		c0.1,1,0.4,1.4,1.5,1.4c3.1-0.2,6.1-0.2,9.2-0.3C259.9,100.6,263,100.6,266,100.6z M260.6,110.3c0.6-0.1,1.4-0.2,2.1-0.4
		c1.4-0.5,2.1-2.3,1.2-3.3c-1.4-1.4-2.9-2.8-5-3c-0.5-0.1-1.1,0.2-1.4,0.5c-1,1.3-1.4,2.7-0.7,4.3
		C257.5,109.8,258.9,110.2,260.6,110.3z M255.5,103.6c-0.1-0.1-0.2-0.2-0.2-0.3c-1.4,0.6-2.9,1.2-4.3,1.9c-1.1,0.5-1.9,1.4-2.3,2.6
		c-0.3,0.9-0.1,1.4,0.6,1.8c2.4,1.3,5.1,1.7,8.2,2.1C254.2,109.4,254,106.7,255.5,103.6z"/>
	<path d="M285.9,103.1c-0.9,0.1-1.5,0.1-2,0.1c-1.2,0.1-2-0.4-2.2-1.5c-0.3-1.4-0.4-2.7-0.6-4.1c-0.1-0.7,0.3-1.1,1.2-1.1
		c6.2,0.1,12.5,0.1,18.7,0.2c0.6,0,1.2,0.1,1.8,0.3c2.7,0.7,3.5,2.3,2.6,4.9c-0.4,1-1.1,1.2-2.1,1.1c-1.5-0.2-3.1-0.3-4.6-0.4
		c0,0.1,0,0.2-0.1,0.3c0.3,0.1,0.5,0.3,0.8,0.4c0.6,0.3,1.3,0.6,1.9,1c2.5,1.9,2.7,4.5,0.3,6.6c-2.1,1.8-4.5,2.7-7.2,2.8
		c-3.6,0.2-7.2-0.5-10.6-1.7c-1.6-0.6-1.8-1.2-1.6-2.9c0.2-2.2,1.4-3.7,3-5.1C285.2,103.7,285.4,103.5,285.9,103.1z M303.6,101
		c0.6-1.5,0.4-2-1.1-2.4c-0.9-0.2-1.8-0.4-2.7-0.4c-5.5,0-11,0-16.5,0.1c-0.1,0-0.3,0.1-0.4,0.1c0,2.7,0.3,3,2.9,2.8
		C291.7,100.9,297.7,100.3,303.6,101z M293,103.8c-1.9-0.1-2.3,0.1-2.8,1.6c-0.5,1.4-0.3,2.8,0.9,3.9c1.3,1.2,2.8,1.6,4.4,1
		c1.5-0.6,2.5-1.6,2.7-3.2c0.2-1.5-0.3-2.2-1.8-2.5C295.3,104.2,294.1,104,293,103.8z M288.8,104.1c-2.2,1.1-4.2,2.5-5.1,4.9
		c-0.1,0.2,0.1,0.8,0.3,0.8c1.9,0.5,3.9,0.9,5.8,1.4c0-0.1,0.1-0.2,0.1-0.3C288,108.8,287.6,106.6,288.8,104.1z M300,106
		c-0.3,1.2-0.6,2.4-0.8,3.6C301.2,108.5,301.4,107.4,300,106z"/>
	<path d="M276.9,154.1c-1.7-0.5-3.6-1-5.5-1.6c-0.4-0.1-0.9-0.4-1.2-0.8c-0.3-0.5-0.8-1.2-0.7-1.6c0.3-0.8,1-0.2,1.6-0.1
		c2.2,0.4,4.4,0.8,6.7,1.2c0.6,0.1,1.2,0,1.8,0.2c0.4,0.1,0.8,0.5,0.9,0.8c0,0.3-0.3,0.9-0.6,1C279,153.6,278.1,153.8,276.9,154.1z"
		/>
	<path class="st9" d="M254.7,322c20.6-0.1,41-1.9,61.6-3.1c0,0.5,0,1,0,1.4c-0.6,8.9-1.3,17.9-2,26.8c-0.1,1.2-0.3,2.3-0.3,3.5
		c0,1.3-0.6,1.7-1.7,1.8c-5.8,0.8-11.7,1.2-17.6,0.9c-11.7-0.6-23.4-1.2-35.1-1.8c-1-0.1-1.4-0.3-1.6-1.4
		c-0.9-8.1-1.9-16.2-2.9-24.3C255.1,324.5,254.9,323.3,254.7,322z"/>
	<path class="st8" d="M297.7,303c5.5,0,11,0,16.4,0c0.8,0,1.4,0.1,1.5,1.1c0.2,2.2,0.4,4.4,0.5,6.5c0.1,1.8,0.1,3.7,0.2,5.5
		c0,0.7-0.1,1-0.9,1c-13.7,0.8-27.4,1.6-41.1,2.4c-6.2,0.4-12.5,0.6-18.7,0.9c-1,0.1-1.3-0.3-1.5-1.3c-0.6-3.9-1.4-7.9-2.1-11.8
		c-0.2-0.8-0.1-1.4,0.9-1.6c0.8-0.2,1.5-0.6,2.3-0.6c10.3,0.1,20.4-1.2,30.6-1.8c3.9-0.2,7.8,0,11.7,0
		C297.7,303.2,297.7,303.1,297.7,303z"/>
	<path class="st5" d="M266,100.6c-3.1,0-6.1,0-9.2,0c-3.1,0-6.1,0.1-9.2,0.3c-1.1,0.1-1.4-0.4-1.5-1.4c-0.1-1,0.3-1.2,1.2-1.3
		c4.8-0.8,9.5-0.9,14.3-0.3c0.9,0.1,1.9,0.3,2.8,0.7c0.7,0.3,1.3,0.9,1.9,1.4C266.2,100.2,266.1,100.4,266,100.6z"/>
	<path class="st5" d="M260.6,110.3c-1.7-0.1-3.1-0.5-3.8-2c-0.7-1.5-0.3-3,0.7-4.3c0.3-0.3,1-0.6,1.4-0.5c2.1,0.3,3.6,1.6,5,3
		c0.9,1,0.2,2.8-1.2,3.3C262,110.1,261.2,110.2,260.6,110.3z"/>
	<path class="st10" d="M255.5,103.6c-1.5,3.1-1.3,5.7,1.9,8.1c-3.1-0.4-5.7-0.8-8.2-2.1c-0.8-0.4-1-0.9-0.6-1.8
		c0.5-1.2,1.2-2.1,2.3-2.6c1.4-0.7,2.9-1.3,4.3-1.9C255.3,103.4,255.4,103.5,255.5,103.6z"/>
	<path class="st5" d="M303.6,101c-6-0.7-12-0.1-17.9,0.2c-2.6,0.1-2.9-0.1-2.9-2.8c0.1,0,0.3-0.1,0.4-0.1c5.5,0,11-0.1,16.5-0.1
		c0.9,0,1.8,0.1,2.7,0.4C304,98.9,304.3,99.5,303.6,101z"/>
	<path class="st5" d="M293,103.8c1.1,0.2,2.3,0.4,3.4,0.6c1.5,0.4,2,1,1.8,2.5c-0.2,1.6-1.2,2.7-2.7,3.2c-1.6,0.6-3.2,0.3-4.4-1
		c-1.1-1.1-1.3-2.4-0.9-3.9C290.6,103.9,291.1,103.7,293,103.8z"/>
	<path class="st10" d="M288.8,104.1c-1.2,2.5-0.8,4.8,1.1,6.8c0,0.1-0.1,0.2-0.1,0.3c-1.9-0.4-3.9-0.9-5.8-1.4
		c-0.2,0-0.4-0.6-0.3-0.8C284.7,106.6,286.6,105.2,288.8,104.1z"/>
	<path class="st10" d="M300,106c1.5,1.4,1.2,2.5-0.8,3.6C299.4,108.4,299.7,107.2,300,106z"/>
</g>
</svg>
