<?xml version="1.0" encoding="utf-8"?>
<!-- Generator: Adobe Illustrator 22.1.0, SVG Export Plug-In . SVG Version: 6.00 Build 0)  -->
<svg version="1.1" id="Слой4_xA0_Изображение_1_"
	 xmlns="http://www.w3.org/2000/svg" xmlns:xlink="http://www.w3.org/1999/xlink" x="0px" y="0px" viewBox="0 0 662.4 921.6"
	 style="enable-background:new 0 0 662.4 921.6;" xml:space="preserve">
<style type="text/css">
	.st0{fill:#E4E8E9;}
	.st1{fill:#324E7E;}
	.st2{fill:#E4A16C;}
	.st3{fill:#75716F;}
	.st4{fill:#2B190C;}
	.st5{fill:#223057;}
	.st6{fill:#FFD351;}
	.st7{fill:#FFFFFF;}
	.st8{fill:#C3C7CA;}
	.st9{fill:#D8D8D8;}
	.st10{fill:#63180F;}
</style>
<g>
	<path d="M155.5,470.2c2.3-3.5,4.8-6.8,6.7-10.5c6.9-13,14.2-25.8,20.4-39.1c4.9-10.5,8.8-21.4,12.6-32.4c3.4-10,5.9-20.2,9-30.3
		c2.9-9.6,6.1-19.2,8.7-28.9c2.2-8.3,3.7-16.8,5.5-25.3c0.3-1.1,0.6-2.4,1.2-3.3c3.1-4.4,5.5-9.2,7-14.4c0.6-2.2,1.9-3.6,4.3-3.8
		c0.5,0,1.1-0.3,1.8-0.5c-0.1-1.8-0.2-3.5-0.3-5.2c-0.2-5.1,0.8-6.7,5.6-8.4c2.5-0.9,5.2-1.5,7.9-2.1c9.9-2.3,19.8-4.5,29.7-6.7
		c2.8-0.6,5.6-1.1,8.5-1.7c0.3-0.1,0.6-0.1,0.9-0.1c2.6-0.3,3.1,0,4.1,2.8c2.2-0.6,4.4-1.1,6.8-1.7c-0.4-1.6-0.8-3-1.2-4.3
		c-0.5-1.8-0.3-2.2,1.5-2.9c2.1-0.7,4.2-1.4,6.4-2.1c1.7-0.6,3.4-0.9,5.1,0.3c1.2-2.2,1.4-4.6,1.4-6.8c0-2-0.4-4-0.6-6
		c-0.1-1.2-0.7-2-1.8-2.5c-4.3-2-8-5-11.3-8.4c-3.1-3.1-5-6.8-5.8-11.1c-1.5-7.4-2.6-14.8-3.2-22.3c0-0.6-0.1-1.1-0.2-1.7
		c-1.2-0.2-2.4-0.3-3.5-0.6c-2.8-0.8-5-2.5-6.9-4.6c-4.8-5.4-7.7-11.7-9.7-18.5c-1.1-3.7-2-7.4-1.9-11.3c0.1-3.2,1-6.1,2.7-8.8
		c2.3-3.6,5.6-5.4,9.8-5.4c0.9,0,1.9,0,3.1,0c-0.3-2.8-0.6-5.6-0.9-8.5c-1.6-0.4-3.2-0.7-4.8-1.1c-3.1-0.7-5.9-2-8.1-4.3
		c-3.4-3.4-3.3-6.9,0.1-10.2c1.2-1.2,2.5-2.2,3.9-3.4c-0.4-5.1-0.9-10.3-1.4-15.6c-0.9,0.1-1.5,0.2-2.1,0.2
		c-2.2,0.1-4.3,0.3-6.5,0.1c-6.7-0.8-11.6-6.3-11.8-13c-0.1-3.5,0.6-6.8,1.7-10.1c2.1-6.2,5.4-11.7,9.7-16.7
		c6.2-7.1,13.4-13,21.2-18.3c14.8-10.3,30.8-18.1,48.3-22.9c5.4-1.5,10.9-2.6,16.5-2.8c0.5,0,1.1-0.2,1.6-0.4c2.2,0,4.5,0,6.7,0
		c1.6,0.2,3.1,0.4,4.7,0.6c6.4,0.9,12.7,2.5,18.7,5c9.6,3.9,19.2,8,28.2,13.3c11.6,6.8,22.7,14.4,32.6,23.6c3.3,3,6.5,6.2,8.8,10.1
		c1.9,3.4,3.4,6.9,3.7,10.8c0.6,6.7-3.3,14.1-9.3,17.2c-4.7,2.5-9.8,3.5-15,3.7c-0.6,0-1.3,0.1-2,0.1c-0.1,0.6-0.3,1.1-0.3,1.6
		c-0.4,3.9-0.6,7.8-1.1,11.7c-0.1,1.1,0.1,1.9,1,2.6c2.3,1.8,3.9,4.2,4.5,7.1c0.8,3.7-0.7,6.5-4.4,7.6c-1.8,0.6-3.7,0.8-5.6,1.1
		c-1.1,0.2-2.2,0.2-3.4,0.2c0,4.4,0,8.6,0,12.9c0.4-0.2,0.9-0.3,1.3-0.5c3.5-1.5,6.4-0.8,8.6,2.3c2.3,3.2,3.6,6.8,3.8,10.7
		c0.1,2.5,0,5-0.4,7.4c-0.8,5.2-2.4,10.3-4.6,15.1c-0.6,1.3-1.3,2.6-2,3.8c-1.5,2.6-3.5,4.5-6.8,4.9c-0.1,0.4-0.1,0.8-0.1,1.2
		c0,5.7,0.2,11.4,0.1,17c-0.1,3.5-0.4,7-0.9,10.5c-1.1,7.6-5.3,13.3-12,17c-3.7,2-7.7,3.6-11.5,5.3c-0.7,0.3-1.4,0.6-2.2,1
		c0.2,4.1,0.8,8,2.1,11.9c1.1-0.7,1.9-1.7,2.9-1.8c1-0.1,2.1,0.5,3.2,0.8c6,1.7,12,3.4,17.9,5.2c3.5,1.1,3.7,1.7,1.8,4.9
		c-0.5,0.7-0.9,1.5-1.4,2.3c1,1,2.3,1.1,3.6,1.5c1.1-1.5,2.3-2.3,4.4-1.9c6.8,1.4,13.7,2.5,20.5,3.8c6,1.2,11.9,2.5,17.8,3.9
		c1.7,0.4,3.3,1.1,4.9,1.9c1.8,0.8,2.1,1.6,1.3,3.4c-1.1,2.5-2.2,4.9-3.4,7.6c0.7,0.1,1.2,0.1,1.7,0.2c2.1,0.1,2.7,0.5,3,2.6
		c0.3,2.1,0.4,4.1,0.8,6.2c2.4,12.3,4.8,24.6,7.4,36.9c2.4,11.7,5.1,23.3,7.5,34.9c3.1,15.3,8,29.9,15.3,43.8
		c0.6,1.1,0.9,2.2,1.6,3.2c3.8,6.1,4.6,13.1,4.8,20c0.4,13.8,0.5,27.7,0.8,41.5c0.1,3.6,0.2,7.2,0.3,10.8c0.1,2.6-0.2,3.1-2.7,4.1
		c-5.4,2.2-11,3.8-16.7,5.1c-14.9,3.3-30,4.8-45.2,4.7c-2,0-4,0-6.2,0c-0.6,3.3-1.3,6.4-1.8,9.5c-0.1,0.8,0.2,1.7,0.4,2.6
		c0.9,3.5,2,6.9,2.9,10.4c0.2,0.9,0.2,1.9,0,2.8c-0.5,2.6-1.4,5.1-0.6,7.8c0.3,1.2-0.2,2-1.3,2.5c-0.5,0.2-1,0.5-1.7,0.8
		c-0.1,1.3-0.3,2.7-0.3,4.2c-0.7,10.5-0.3,21,0.1,31.4c0.5,12.5,0,25-0.3,37.4c-0.3,13.4-0.6,26.9-0.9,40.3
		c-0.3,11.4-0.4,22.7-1,34.1c-0.8,13.5-2,26.9-3.1,40.4c-0.8,10.3-1.8,20.5-2.5,30.8c-0.9,14.2-1.7,28.4-2.5,42.6
		c-0.4,7.3-0.6,14.5-0.9,21.8c-0.1,1.5,0.4,2.5,1.5,3.5c1.6,1.4,3.1,3,4.6,4.5c1.8,1.9,2.1,4,0.9,6.4c-1.2,2.5-2.2,5.1-3.4,7.7
		c-0.8,1.8-0.6,3,0.8,4.5c2.4,2.5,4.6,5.3,6.9,8c0.3,0.3,0.5,0.6,0.7,1c1.3,1.9,1.1,2.9-1,3.7c-3.2,1.2-6.5,2.3-9.7,3.5
		c-0.5,0.2-1,0.3-1.5,0.9c1.9,0,3.7,0.1,5.6,0.2c4.7,0.2,9.4,0.4,14.1,0.9c3,0.3,5.9,1.2,8.9,1.9c9.8,2.6,19.6,15,19.1,26.2
		c0,0.6,0,1.1,0,1.7c0.4,5-2.2,8-6.4,9.9c-3.8,1.8-7.9,2.5-12.1,2.9c-13.7,1.4-27.3,0.9-41-0.4c-10.1-0.9-20.2-2.4-30-4.9
		c-2.5-0.6-4.9-1.4-7.4-2.1c-7.5-2.2-13.2-6.7-17.3-13.2c-1.3-2.1-2.6-4.2-4.1-6.6c-0.3,1-0.5,1.7-0.7,2.4
		c-1.5,6.7-5.2,11.7-11.1,15.2c-6.6,3.8-13.6,6.4-20.9,8.1c-9.7,2.4-19.7,3.6-29.6,4.3c-6.5,0.5-13.1,0.9-19.6,0.9
		c-10.1,0-20.1-1.2-29.8-4.3c-3.1-1-6-2.2-8.6-4.2c-1.4-1.1-2-2.6-1.3-4.2c3.3-8.4,7.1-16.6,14-22.9c5.6-5.2,12.3-7.5,19.7-8.4
		c0.7-0.1,1.4-0.1,2.1-0.2c0.1,0,0.2-0.2,0.5-0.4c-1-1.3-0.5-2.6-0.1-4c1.4-4.7,4.3-8.7,6.8-12.9c0.5-0.8,0.9-1.7,1.5-2.5
		c2.6-3.8,2.4-7.7,0.5-11.6c-1.3-2.6-2.8-5-4.4-7.4c-2.8-3.9-2.8-4.7,0.8-7.7c1.4-1.2,2.9-2.3,4.3-3.4c1-0.7,1.4-1.6,1.4-2.8
		c1-16.9,0.7-33.7,0.3-50.6c-0.2-9.2-0.4-18.4-0.7-27.6c-0.8-18.8-1.6-37.6-2.7-56.3c-0.9-15.8-2.1-31.6-3-47.4
		c-0.7-12.5-1.2-25.1-2-37.6c-0.8-12.9-1.8-25.7-2.6-38.5c-0.3-4.4-0.5-8.8-0.8-13.3c-1.1-0.4-2.2-0.8-3.3-1.2
		c-0.9-0.4-1-0.9-0.8-1.9c0.6-2.6,1-5.3,1.3-8c0.2-2.1-0.6-4-2.1-5.4c-1.2-1.1-2.6-2.2-3.9-3.2c-0.6-0.5-1.3-0.9-1.9-1.4
		c-1.5-1.4-1.7-2.6-0.5-4.2c1.5-1.9,3.2-3.6,4.9-5.3c0.9-0.9,1.3-1.7,1-3c-0.4-1.5-0.5-3.1-0.8-4.9c-4.9,0.9-9.6,2-14.2,3.4
		c-1.3,0.4-2.4,0.6-3.7,0.3c-9.2-2.2-18.3-4.4-27.5-6.4c-8.7-1.9-17.5-3.7-26.3-5.6c-6.5-1.4-12.9-2.9-19.4-4.4
		c-0.7-0.2-1.5-0.6-1.9-1.2c-1.1-1.6-2.1-3.2-3-4.9c-1.5-2.9-3.4-5.4-5.5-7.8c-0.9-0.9-1.7-1.9-2.5-2.8
		C155.5,470.9,155.5,470.5,155.5,470.2z M293.1,554.6L293.1,554.6c0-1.1-0.9-0.7-1.6-0.8c-4.4-0.3-8.8-0.6-13.2-0.9
		c-3-0.2-6-0.5-9.2-0.8c0.1,1.3,0.1,2.4,0.2,3.5c0.6,9.3,1.3,18.5,1.9,27.8c0.4,6.8,0.6,13.6,1,20.4c0.9,15.5,1.8,31,2.8,46.5
		c0.5,7.7,1.1,15.3,1.5,23c0.8,13,1.6,26,2.1,39c0.6,13.1,0.9,26.2,1.2,39.3c0.3,10.8,0.5,21.6,0.5,32.4c0,8.9-0.5,17.7-0.6,26.6
		c0,2.2-0.7,3.7-2.4,4.8c-0.7,0.4-1.3,0.9-1.9,1.4c-1.5,1.2-2.9,2.4-4.4,3.7c0.8,1.1,1.5,2,2.1,2.9c1.6,2.6,3.3,5.1,4.5,7.9
		c1.9,4.4,2,8.8-0.7,13.1c-1.5,2.3-2.9,4.6-4.3,7c-1.8,3-3.5,6-4.3,9.5c2.3,1.4,4.6,2.1,7.1,2.5c9.3,1.5,18.6,2.9,28,4.3
		c10.6,1.5,21.3,2.1,32.1,1.9c3.9-0.1,7.8-0.1,11.7-1c3.3-0.8,6.6-1.8,9.9-2.7c0-1.3,0-2.2,0-3.2c0-19.5,0-39,0-58.6
		c0-22.8,0.3-45.6,0.9-68.4c0.8-29,1-58.1,1.3-87.1c0.2-18.3,0-36.6,0-55c0-0.8-0.1-1.6,0.1-2.4c0.1-0.5,0.6-1.2,1.1-1.3
		c0.8-0.2,1.3,0.5,1.4,1.3c0.1,0.9,0,1.8,0,2.6c0,1.1,0,2.2,0,3.2c0.2,0.1,0.4,0.2,0.6,0.3c0.3-0.4,0.5-0.8,0.8-1.1
		c6.6-8.1,13.9-15.5,21.3-22.8c0.5-0.4,0.9-0.9,1.4-1.3c0.6-0.5,1.4-0.7,1.9,0c0.3,0.4,0.1,1.2-0.1,1.7c-0.2,0.5-0.7,0.8-1.1,1.2
		c-3.6,3.6-7.1,7.1-10.6,10.7c-0.5,0.5-1,1.1-1.5,1.7c0.1,0.1,0.2,0.3,0.3,0.4c7.1-3.4,14.2-6.7,22.3-8.8c-0.5,0.5-0.7,0.7-0.9,0.8
		c-6.6,4.1-13.6,7.1-21.1,8.8c-1.5,0.3-2.6,0.9-3.6,2.1c-2.6,3.2-5.2,6.3-7.9,9.3c-1.1,1.3-1.5,2.6-1.5,4.3
		c-0.1,28.6-0.2,57.3-0.4,85.9c-0.1,14.2-0.4,28.3-0.7,42.5c-0.3,12.8-0.9,25.6-1.1,38.4c-0.2,19.3,0,38.6,0,57.8
		c0,0.7,0.1,1.4,0.2,2.5c13.2-18.8,25.3-37.8,39.3-55.4c-0.1,0.6-0.3,1.2-0.7,1.7c-5.2,8.2-10.2,16.5-15.5,24.5
		c-7.2,10.9-14.4,21.8-22.4,32c-0.7,0.9-0.9,1.8-0.9,2.9c0,6.6,0,13.3,0,19.9c0,0.7,0.1,1.4,0.2,2.2c3.2,0.5,6.1,1.4,9.1,1.5
		c13.7,0.3,27.3,0.1,40.9-1.8c6.7-0.9,13.3-2,19.5-4.6c0.9-0.4,1.7-0.8,2.9-1.3c-2.7-3.1-5.1-5.9-7.7-8.6c-1.8-1.9-2.3-3.9-1.3-6.3
		c1.2-2.7,2.3-5.5,3.6-8.1c0.8-1.6,0.6-2.9-0.6-4.1c-1.5-1.5-3-3.1-4.7-4.5c-1.4-1.2-2-2.6-1.9-4.4c0.3-6,0.3-12,0.6-18
		c0.9-16.4,1.8-32.9,2.9-49.3c1-14,2.4-28,3.5-42.1c0.9-11.4,1.7-22.8,2.2-34.2c0.5-9.4,0.5-18.9,0.7-28.3c0.4-15,0.8-29.9,1.1-44.9
		c0.2-6.4,0.4-12.8,0.3-19.2c-0.1-10.7-0.4-21.4-0.7-32.1c0-0.6-0.1-1.2-0.2-1.7c-0.4,0-0.5-0.1-0.7-0.1
		c-11.6,1.6-23.2,3.5-34.9,4.8c-11.4,1.3-22.8,2.2-34.2,2.7c-21.4,0.9-42.7,0.2-64.1-0.6C295.4,554,294.3,554.4,293.1,554.6z
		 M504.3,484.5c-0.1-2.4-0.2-4.5-0.3-6.5c-0.2-14.8-0.3-29.6-0.6-44.4c-0.1-8.1-1-16.1-5.5-23.2c-0.3-0.5-0.5-1.2-0.8-1.7
		c-7.5-14.3-12.4-29.6-15.7-45.4c-2.8-13.4-5.8-26.7-8.7-40.1c-2.4-11.1-4.8-22.2-6.3-33.4c-0.2-1.2-0.4-2.5-0.5-3.8
		c-1.2-0.1-2.2-0.2-3.3-0.3c-0.4,0.9-0.8,1.7-1.1,2.5c-0.9,2-1.7,4-2.7,5.9c-1.2,2.2-2.1,2.5-4.5,1.9c-1.6-0.5-3.2-0.9-4.9-1.3
		c-10.3-2.5-20.6-5.1-30.9-7.6c-2.2-0.6-4.5-1.2-6.6-2.1c-2.4-0.9-2.7-2.1-1.4-4.3c0.2-0.3,0.4-0.5,0.5-0.8c2.2-4.3,4.3-8.5,6.6-13
		c-1.6-0.6-2.8-1-4-1.4c-0.3,0.5-0.5,0.8-0.6,1.1c-4.6,10-8.8,20.1-10.8,30.9c-0.4,2.3-1.1,2.6-3.2,1.6c-1.6-0.8-3.1-1.6-4.8-2.2
		c-7.4-2.4-14.4-5.8-21.1-9.7c-0.6-0.3-1.2-0.6-2-1c1.4,2.4,2.5,4.4,3.7,6.4c1,1.5,1,3.1,0,4.5c-1.3,1.9-2.7,3.8-4.3,5.4
		c-2.4,2.5-4.9,4.7-7.6,7.2c1.1,1.2,2,2.5,3.1,3.5c1.9,1.8,3.8,3.4,5.8,5.1c0.9,0.7,1.6,1.5,1.7,2.8c0.3,6.1,0.9,12.3,0.9,18.4
		c0.1,21.8,0,43.5,0.1,65.3c0,7.5,0.2,15,0.5,22.6c0.5,15.7,1,31.5,1.4,47.2c0.1,5.2,0.3,10.4,1.3,15.5c0.3,1.6,0.1,3.2-1,4.5
		c-1.8,2.1-3.6,4.3-5.4,6.4c-1.9,2.2-4,4.2-5.1,6.9c-0.3,0.8-0.7,1.7-1.7,1.8c-1.2,0.1-1.6-0.8-2.2-1.6c-1.8-2.6-3.7-5.2-5.5-7.8
		c-1.1-1.5-2.3-2.9-3.4-4.3c-0.3-0.4-0.8-0.9-0.9-1.4c-0.4-2.4-1.1-4.9-1.1-7.3c-0.3-14.4-0.4-28.8-0.6-43.2
		c-0.3-22.7-0.5-45.4-1-68.1c-0.2-10-0.8-20-1.3-30c-0.3-7.3-0.7-14.5-1.1-21.8c-0.1-1.6,0.4-2.8,1.5-3.9c2-2.1,4-4.1,6-6.2
		c0.8-0.9,1.5-2,2.3-3c-0.6-0.4-1-0.7-1.4-0.9c-5-2.7-9.1-6.5-12.8-10.7c-0.5-0.5-0.9-1.1-1.3-1.7c-1.1-1.4-1.3-2.9-0.3-4.4
		c1-1.5,2-3.1,3.2-4.4c2.2-2.5,4.7-4.8,7-7.3c0.4-0.4,0.7-0.9,1.3-1.7c-1,0.2-1.6,0.2-2.1,0.3c-8.7,1.6-16.9,4.9-24.8,8.6
		c-6.4,3-12.7,6.5-18.9,9.8c-2.1,1.2-3.5,0.7-4-1.7c-0.5-2.7-1.3-5.3-1.7-8c-1.2-7.5-2.2-15-3.3-22.5c-0.2-1.6-0.7-3.2-1.1-5.1
		c-2.7,0.7-5.2,1.3-7.8,2c-0.2,2-0.5,3.9-0.5,5.8c0,3.9,0.3,7.8,0.4,11.7c0.1,3.1-0.2,3.5-3.2,4.5c-4.5,1.5-9,2.9-13.3,4.7
		c-10.4,4.3-21.2,7.2-31.9,10.4c-2,0.6-3,0.1-3.7-1.9c-0.7-1.9-1.3-3.9-1.8-6c-0.6-2.5-1.1-5.1-1.7-7.6c-2.5-0.2-3.7,1-4.3,3.2
		c-1.1,4-2.7,7.9-5.2,11.2c-1.9,2.5-2.7,5.3-3.2,8.4c-1.8,10.2-4,20.2-7.2,30c-2.8,8.3-5.1,16.8-7.4,25.3
		c-2.7,9.8-5.3,19.6-8.8,29.1c-4.4,12-8.6,24.1-14.4,35.5c-3.1,6-6.3,11.9-9.4,17.8c-3.8,7.3-7.5,14.7-12.1,21.5
		c-0.8,1.2-1.5,2.4-2.2,3.7c0.3,0.5,0.6,0.9,0.9,1.2c2.9,3,5.1,6.3,7,10c0.4,0.8,0.8,1.6,1.4,2.3c0.6,0.6,1.3,1.2,2.1,1.4
		c6.4,1.5,12.7,3.1,19.1,4.5c9.8,2.1,19.7,4.1,29.5,6.3c7.8,1.7,15.6,3.6,23.4,5.4c0.8,0.2,1.7,0.1,2.5-0.1c3.5-0.8,7-1.7,10.5-2.6
		c1.5-0.4,2.9-0.8,4.6-1.2c-1.7-15.5-3.4-30.8-5.1-45.9c-8.9-2.2-17.5-4-26.2-4.9c-2-0.2-3.3-1.2-4.5-2.7c-1.8-2.2-3.7-4.5-5.8-6.4
		c-4.1-3.7-8.3-7.2-12.5-10.8c-0.8-0.7-1.7-1.4-2.6-2.2c0,0.4-0.1,0.6,0,0.7c7.3,9.2,14.4,18.6,24.3,25.4c0.5,0.4,1.1,1.1,1.1,1.6
		c0,1-1.1,1-1.9,1.1c-1.9,0.1-3.8,0.1-5.7,0.3c-5.4,0.5-10.5,2.2-15,5.3c-0.7,0.5-1.3,1-2,1.6c0.1,0.1,0.1,0.2,0.2,0.3
		c1-0.1,1.9-0.2,2.9-0.4c-1.6,0.4-3.2,1.6-5.1,0.8c0.6-1.6,1.7-2.7,2.8-3.6c5.5-4.3,11.8-6,19-6.5c-1.8-1.6-3.4-2.9-4.9-4.3
		c-5.3-5.1-10.1-10.7-14.5-16.6c-2.2-2.9-4.2-5.8-6.3-8.8c-0.6-0.8-1.6-1.8-0.7-2.8c1-1.1,1.9,0.2,2.6,0.8c3.8,2.9,7.6,5.8,11.4,8.8
		c5.5,4.4,10.9,8.9,15.1,14.7c0.4,0.5,1,1,1.5,1.1c1.8,0.3,3.6,0.5,5.5,0.7c0.5-0.8,0.9-1.5,1.2-2.2c3.4-6.5,6.7-12.9,10-19.4
		c1.5-3,3-6,4.4-9c1-2.1,1.2-4.4,0.9-6.8c-0.8-6.6-1.5-13.2-2.2-19.8c-1.1-9.5-2.2-19.1-3.2-28.6c-0.5-4.6-0.8-9.2-1.2-13.8
		c1.5,2.1,1.9,4.4,2.4,6.7c2.2,11,3,22.2,4.3,33.3c0.9,8.2,1.8,16.4,2.6,24.6c0.9,8.3,1.8,16.7,2.7,25c0.9,8.5,1.8,17,2.7,25.5
		c1,9.4,2.1,18.8,3.1,28.1c0.5,4.9,0.8,9.9,1.5,14.8c0.8,5.8,0.6,4.7-2.7,8.1c-1.2,1.3-2.4,2.7-3.8,4.2c0.7,0.3,1.2,0.6,1.4,0.5
		c1.4-1.1,3.1-0.8,4.6-0.9c24.8-0.8,49.6,0.1,74.4,1.1c13.6,0.5,27.2,1.2,40.8,1.8c9.4,0.4,18.9,0.8,28.3,1.2
		c6.3,0.3,12.6,0.7,18.9,1.1c0.6,0,1.1,0.1,1.7,0.1c-4.4,1-8.7,1.6-13.2,1.4c-18.4-0.9-36.8-1.4-55.1-2.1
		c-14.5-0.5-29.1-1.3-43.6-1.7c-17.9-0.5-35.8-0.8-53.7-1.1c-0.4,0-0.9,0-1.7,0.1c1.1,1,2,1.7,2.8,2.4c3,2.5,4.4,5.6,3.9,9.5
		c-0.1,1-0.3,1.9-0.4,2.9c-0.1,1.2-0.3,2.5-0.4,3.7c0.6,0.3,1.1,0.5,1.5,0.6c6.3,1.9,12.8,2.8,19.3,3.3c12.7,1,25.4,0.8,38.1,0.2
		c9.4-0.4,18.9-1,28.3-1.6c6.1-0.4,12.3-0.9,18.4-1.7c9.9-1.3,19.8-2.9,29.7-4.2c10.5-1.3,21-2,31.6-2.2c0.8,0,1.6-0.1,2.5-0.1
		c0-1.5-0.3-2.9,0.1-4.2c1.2-3.8,0.8-7.5-0.5-11.2c-0.6-1.8-1.2-3.7-1.6-5.5c-0.3-1.4-0.5-2.9-0.3-4.2c0.6-3.3,1.3-6.6,2.2-9.8
		c0.4-1.6,0.5-3.1,0.1-4.7c-1.6-6.9-3.2-13.9-4.7-20.8c-2.2-10.3-3.9-20.7-4.5-31.3c-1.1-17.8,1.1-35.3,4.1-52.7
		c1.8-10.4,4-20.7,6.2-31c0.9-4.3,2.1-8.5,3.2-12.8c0.2-0.8,0.4-2,1.1-2.4c1-0.6,1.1-1.5,1.4-2.5c1.4-5.5,2.7-11,4.1-16.5
		c0.2-0.8,0.5-1.6,0.8-2.4c0.2,1.8,0,3.4-0.2,5.1c-2.3,14.9-5.5,29.7-9.3,44.3c-1.2,4.5-2.7,8.9-3.6,13.4
		c-1.3,6.6-2.2,13.2-3.2,19.9c-0.1,0.7-0.2,1.5,0,2.1c0.5,1.8,0.9,3.6,1.6,5.3c3.5,7.9,7.1,15.7,10.7,23.6c0.8,1.7,1.7,3.2,2.6,4.8
		c0.3,0.5,0.7,1,1.3,1.8c3.5-5.6,7.3-10.6,13.1-13.6c-3.2,5-7.4,9.1-10.4,14.8c1.9-0.6,3.3-1.1,4.7-1.6c10.2-3,20.6-4.5,31.2-5.2
		c2.1-0.2,4.3-0.1,6.5,0c0.9,0,1.7,0.4,1.6,1.4c0,0.6-0.6,1.3-1.1,1.6c-0.7,0.4-1.6,0.6-2.5,0.8c-6.1,1.3-12.2,2.6-18.3,3.9
		c-4.5,1-9,2-14.1,3.1c1,0.4,1.4,0.6,1.8,0.8c2.7,1.2,5.4,2.3,8.1,3.6c1.1,0.6,2.1,1.5,3,2.3c0.7,0.6,1.2,1.4,0.4,2.3
		c-0.8,0.9-1.6,0.2-2.3-0.4c-1.1-0.8-2.1-1.8-3.2-2.4c-3.5-2-7.3-3.3-11.2-4.1c-1.2-0.2-2.4-0.4-3.5-0.7c-0.4-0.1-0.9-0.8-0.9-1.2
		c0-0.4,0.5-1,0.9-1.2c0.4-0.3,1.1-0.3,1.6-0.4c5.4-1.2,10.8-2.4,16.1-3.6c3.2-0.7,6.5-1.4,9.7-2.1c-3,0-5.9,0.3-8.8,0.9
		c-6,1.2-11.9,2.5-17.8,3.8c-1.2,0.2-2.4,0.3-3.5,0.8c-4,1.9-7.9,3.9-11.8,5.9c-2,1-4.1,2.2-6.2,3.3c0.4,2.6,0.7,5.2,1.2,7.7
		c2.4,11.8,4.9,23.6,7.4,35.6C460.2,494.7,482.7,492.6,504.3,484.5z M406.7,129.6c-1.8-0.4-3.2-0.6-4.6-0.9
		c-7.2-1.7-14.4-3.5-21.7-5.2c-8.9-2-17.9-3.3-27.1-3.4c-13.7-0.2-27,2.5-40,6.9c-6.5,2.2-13,4.4-19.8,5.6c-0.4,0.1-0.8,0.3-1.1,0.4
		c0.6,5.5,1.2,10.8,1.8,16.1c1,10,2.2,20,4.4,29.9c1.1,4.8,2.2,9.5,4.3,13.9c1.7,3.5,4.4,5.8,8.2,6.9c5,1.5,9.4,0,12.5-4.2
		c0.7-0.9,1.2-1.9,1.8-2.8c3.1-5,7.6-7.9,13.6-8.1c1.2-1.7,2-3.8,4.8-4.7c-0.4,1.4-0.7,2.5-1.1,3.4c-1,2.2-2.1,4.3-3.2,6.4
		c-0.9,1.8-0.8,2.2,0.8,3.4c1.8,1.3,3.8,1.9,6.1,1.6c1.8-0.3,3.4,0,4.9,1.3c1.5,1.4,3.4,1.7,5.4,1.3c2.4-0.4,4.4-1.4,6-3.2
		c0.9-1,1.8-1.8,3.2-1.9c0.4,0,0.8-0.2,1.1-0.4c2.3-1,3.1-2.6,2-4.9c-0.7-1.5-1.7-2.9-2.5-4.4c-0.5-0.8-1.1-1.6-0.5-2.6
		c1.8,0,2,0,3,1.8c0.8,1.5,2,2.2,3.5,2.4c0.9,0.1,1.7,0.4,2.6,0.6c3.7,0.9,6.4,3.1,8.3,6.4c0.6,1,1.1,1.9,1.8,2.8
		c4.2,5.6,11.4,6,16.2,0.9c2.9-3,4.7-6.7,5.6-10.7c1.4-5.7,1.6-11.5,1.3-17.4c-0.4-9.2-0.8-18.4-1.3-27.5
		C407,136,406.8,132.8,406.7,129.6z M281.3,133.2c1.1,8,1.9,15.7,3.2,23.3c2,12.4,3.7,24.8,4.6,37.3c0.5,7.4,1.6,14.6,3.4,21.8
		c0.5,2,1.4,4.1,2.7,5.8c2.6,3.6,5.8,6.6,9.7,8.8c11.2,6.4,23,11.1,35.9,12.9c0.9,0.1,1.8,0.3,2.5,0.7c1.9,1.4,3.6,0.9,5.3-0.3
		c1.8-1.3,1.8-1.3,3.4,0.4c1.3,1.5,2.5,1.7,4.3,0.7c0.6-0.3,1.2-0.8,1.7-1.3c1.6-1.4,1.7-1.4,3.3,0c2.1,1.8,4,1.8,5.5-0.4
		c1-1.6,2.1-1.8,3.8-1.5c2.1,0.4,4.1,0,5.8-1.6c0.5-0.5,1.4-0.7,2.1-0.9c0.5-0.2,1.1-0.1,1.7-0.2c7.6-1.3,14.5-4.5,21.1-8.2
		c5.7-3.1,9.2-8.1,10.2-14.6c0.6-3.6,0.9-7.3,0.9-11c0-13.4-0.2-26.7-0.3-40.1c0-1.5-0.1-3-0.1-4.6c0-1.4,0-2.7,0-4.1
		c0.2-8,0.4-16,0.5-24c0-0.6-0.1-1.2-0.2-1.9c-0.9-0.1-1.7-0.3-2.6-0.4c0,0.9,0,1.6,0,2.3c0.1,3.4,0.3,6.7,0.4,10.1
		c0.3,7.3,0.6,14.5,1,21.8c0.3,6.5,0.4,13-0.9,19.4c-1.1,5.1-3.1,9.7-6.8,13.5c-5.6,5.7-14.4,5.3-19.4-0.9c-0.9-1.2-1.8-2.5-2.5-3.8
		c-2-3.5-5.1-5-9.1-5.5c0.1,0.6,0.2,0.9,0.2,1.3c0,0.8,0.3,1.7-0.1,2.3c-1.1,1.7-2.3,3.4-4.3,3.9c-1.7,0.4-2.9,1.4-4.2,2.5
		c-3.7,3.5-10.4,4.7-14.2,1c-0.9-0.9-2-0.7-3.2-0.5c-3.5,0.4-6.4-0.9-8.8-3.4c-1.3-1.3-1.5-2.7-0.7-4.4c0.3-0.6,0.5-1.2,0.8-2.1
		c-4.2,0.5-7,2.6-9.2,5.6c-0.9,1.2-1.5,2.4-2.3,3.6c-1.9,2.8-4.4,4.9-7.7,5.7c-6.3,1.6-13.3-1.1-16.7-6.7c-1.3-2.2-2.3-4.6-3.1-7
		c-1.3-4.4-2.4-8.9-3.4-13.5c-2.4-11.7-3.4-23.6-4.4-35.4c-0.2-2.2-0.3-4.4-0.4-6.6C287.4,133.2,284.6,133.2,281.3,133.2z
		 M268.1,95.4c-0.1-0.8-0.1-1.3-0.2-1.9c-0.3-3-0.4-6.1-1.1-9c-0.7-3.3,0.7-5.6,2.6-7.8c0.3-0.4,0.6-0.7,0.9-1.1
		c4.6-4.6,9.5-8.9,15.3-11.9c11.7-6,23.9-10.3,37-12c1.7-0.2,2.7-0.7,3.4-2.4c1.2-3,3.2-4,6.3-3.7c0.3-0.6,0.6-1.2,0.9-1.9
		c2.1-4.2,5.6-6.7,10-8.1c1.2-0.4,2.4-0.6,3.7,0.2c-0.1,2.5-2.3,4-3,6.3c7-3.5,13.6-3.7,20.1,1.9c-0.2-1.2-0.2-1.8-0.3-2.4
		c-0.5-2.1-1.7-3.7-3.1-5.3c-1-1.1-0.6-2.3,0.8-2.7c0.4-0.1,0.8-0.1,1.2-0.1c2.7,0.3,5.2,1.2,6.8,3.6c1,1.5,2,3.1,2.7,4.8
		c0.9,2.2,1.5,4.5,2.3,6.9c1.9-0.4,3.9-0.9,5.8,0.2c2.1,1.2,2.2,3.3,2.2,5.4c0.9,0.2,1.7,0.4,2.4,0.6c5.5,1.5,11,2.8,16.4,4.5
		c9.1,2.9,16.6,8.2,23,15.1c1.9,2.1,2.6,4.5,1.9,7.3c-0.4,1.6-0.7,3.3-1,4.9c-0.4,2.9-0.6,5.8-0.9,8.9c5.4,0.2,10.1-0.8,14.8-2.7
		c5.4-2.2,10.5-10.1,8.7-17.5c-1.2-4.9-3.7-9.2-7.2-12.8c-4.5-4.7-9.4-8.8-14.6-12.8c-16-12.3-33.5-21.7-52.4-28.7
		c-7.2-2.6-14.6-4.2-22.3-4.3c-9-0.1-17.7,1.6-26.2,4.3c-19.3,6.2-36.9,15.7-52.6,28.6c-5.6,4.6-10.9,9.7-14.9,15.8
		c-3.5,5.3-6,10.9-6.8,17.3c-0.5,4.6,0.8,8.5,4.6,11.2C259.2,96.8,263.6,96.4,268.1,95.4z M359.8,862c0,1.3-0.1,2.5-0.1,3.7
		c0,1.5-0.8,2.4-2.1,2.8c-1.1,0.3-2.2,0.6-3.2,0.9c-1.9,0.6-2,0.9-1.4,2.7c1.5,4.4,4,8.2,6.7,11.9c3.2,4.3,7.2,7.5,12.3,9.1
		c4.4,1.4,8.8,2.8,13.3,3.8c19.3,4.1,38.9,5.6,58.6,4.8c4.8-0.2,9.5-1.1,14.2-1.8c2.5-0.4,4.9-1.5,6.9-3.1c1.1-0.9,1.9-1.9,2.1-3.4
		c0.4-4.1,0.4-8.2-1.2-12.1c-3.8-9-10.1-15.1-20.1-17c-5.4-1-10.8-1.4-16.2-1.5c-4.9-0.1-9.9-0.4-14.8-0.9c-1.7-0.2-3.3-0.5-5-0.3
		c-6.8,0.7-13.5,1.4-20.3,1.7c-6.9,0.3-13.9,0.1-20.9,0.1c-1,0-2.1-0.2-3.1-0.4C363.8,862.7,361.9,862.4,359.8,862z M360.3,311.3
		c-0.2,0.1-0.8,0.3-1.1,0.7c-2.8,3.1-5.5,6.2-8.3,9.3c-0.8,0.9-1.2,1.8-1.2,3c0.2,3.4,0.2,6.9,0.4,10.3c0.5,9.7,1.5,19.5,1.7,29.2
		c0.6,29,0.9,58.1,1.3,87.1c0.2,12,0.3,24,0.5,36c0.1,2.7,0.3,5.5,2,7.8c2.6,3.6,5.5,7,8.2,10.4c3.1-3.5,6.2-7.2,9.3-10.8
		c0.4-0.4,0.6-0.9,1-1.3c0.8-0.9,0.9-1.9,0.7-3.1c-0.5-3.9-1.1-7.9-1.2-11.9c-0.3-10.5-0.4-21-0.7-31.4c-0.3-12.1-1-24.1-1.1-36.2
		c-0.2-22.4-0.1-44.8-0.1-67.2c0-7-0.2-14.1-0.9-21.1c-0.1-1.1-0.6-1.9-1.4-2.6C366.3,316.9,363.5,314.2,360.3,311.3z M340,93.4
		c-11.9-0.6-22.7,0.7-33.1,4.7c-6.2,2.4-12.2,5.2-18.3,7.8c-6.5,2.8-12.3,6.8-18.1,10.8c-1.3,0.9-2.5,2-3.6,3.2
		c-1.5,1.7-1.5,3.2-0.1,4.9c1.4,1.7,3.1,3.1,5.2,3.7c3,0.8,6,1.6,9.1,1.9c7.2,0.7,14.2-0.5,21-2.6c6.7-2.1,13.4-4.3,20.1-6.2
		c9.3-2.6,18.9-4,28.6-4.1c13.4-0.1,26.4,2.4,39.3,5.6c7.4,1.9,14.7,3.8,22.2,4.7c3.5,0.4,7,0.2,10.4-0.8c2.4-0.7,3.2-2,2.8-4.5
		c-0.2-1.8-1-3.4-2.4-4.6c-1.5-1.3-3.1-2.6-4.8-3.5c-8.7-4.9-18-8.5-27.5-11.7C374.3,97,357,93.7,340,93.4z M349.9,870.9
		c-2.9,0.4-5.4,1.1-8,1.1c-9.6,0.1-19.2,0.5-28.7-0.6c-10.9-1.3-21.8-2.9-32.8-4.5c-4.9-0.7-9.8-1.5-14.8-1.1
		c-10.4,0.7-18.9,4.8-24.9,13.6c-3.2,4.7-5.6,9.7-7.8,14.8c-0.3,0.6-0.4,1.3-0.6,2c2.5,2.4,5.5,3.5,8.5,4.4c9.3,2.8,18.9,4,28.6,4.1
		c9.2,0,18.4-0.6,27.5-1.6c8.9-0.9,17.8-2.3,26.3-4.9c6.2-1.9,12.2-4.2,17.5-8.1c2-1.5,3.8-3.2,5-5.4
		C348.3,880.6,349.2,875.9,349.9,870.9z M324.5,66.3c-3.9-1.6-5.1-3.1-5-6c0.2-2.7,1.4-3.8,5.4-4.8c0-0.4-0.1-0.9-0.1-1.4
		c-0.7,0-1.2,0-1.8,0.1c-11.4,1.6-22.2,5.2-32.6,10c-7.4,3.4-13.7,8.2-19.1,14.2c-1.6,1.8-2.5,3.6-1.8,6.1c0.2,0.6,0.1,1.3,0.2,1.9
		c0.5,4.3,1,8.5,1.5,13.1c0.9-0.5,1.6-1,2.2-1.3c4.9-2.7,9.6-5.7,14.7-8.1c15.8-7.4,32.5-10.2,49.8-10.5c8.9-0.1,17.7,0.6,26.5,1.8
		c12.1,1.6,24.2,3.7,35.9,7.2c7,2.1,14,4.4,20.3,8.3c0.1,0.1,0.3,0,0.6,0c0.1-0.4,0.1-0.7,0.2-1.1c0.7-4.9,1.2-9.8,2-14.7
		c0.3-1.9,0-3.2-1.2-4.5c-4.8-5.2-10.1-9.5-16.6-12.4c-5.1-2.3-10.4-4-15.9-5.3c-2.9-0.7-5.9-1.3-8.9-2c-0.4,0.5-0.7,0.9-1,1.3
		c-0.3,0.5-0.5,0.9-0.8,1.4c3.3,3,3.1,5.7-0.6,7.9c-1.5,0.9-3.2,1.4-5,2.2c-0.2,1.9-1.8,2.6-3.7,2.9c-0.6,0.1-1.3,0.2-1.9,0.2
		c-4,0.1-8,0-12,0.3c-7.4,0.6-14.7,0-22-0.2c-1.3,0-2.5-0.3-3.8-0.7C327.2,71.3,324.8,69.7,324.5,66.3z M349.7,245.9
		c-0.4,0.2-0.7,0.3-0.9,0.4c-2.4,1.1-4.7,1.5-7-0.2c-0.5-0.4-1.3-0.5-2-0.6c-9.2-1.3-17.9-3.9-26.3-7.9c-0.7-0.3-1.4-0.6-2.4-1.1
		c0.7,5.1,0.9,9.9-1.1,14.5c0.8,0.6,1.5,1.1,2.2,1.6c5.2,2.8,10.4,5.6,15.6,8.4c3.1,1.6,6.3,3.1,9.4,4.7c5.5,2.9,11,5.9,16.5,8.8
		c1,0.5,2,0.9,3,1.4c10-8.4,20.7-15.4,31.1-22.8c-0.9-4.5-1.7-8.7-2.6-12.9c-2.2,0.4-4.3,0.8-6.4,1.2c-0.5,0.1-0.9,0.3-1.3,0.6
		c-2,1.7-4.4,2.2-7,2c-1.1-0.1-1.7,0.3-2.5,1c-2.3,2.4-4.8,2.7-7.8,0.9c-0.3-0.2-0.7-0.3-0.9-0.5
		C354.9,248.5,353.5,248.6,349.7,245.9z M272.3,112.2c1.4-0.9,2.4-1.5,3.5-2.2c3-1.8,5.8-3.7,8.9-5.2c5.8-2.8,11.7-5.5,17.7-7.9
		c7.9-3.3,16.2-5.3,24.8-6c10.4-0.9,20.8,0,31.1,1.3c9.8,1.2,19.3,3.5,28.7,6.4c10.8,3.4,21.6,7.1,31.5,12.6
		c0.4,0.2,0.8,0.4,1.6,0.7c0.2-2.1,0.5-4,0.7-5.8c0.5-6.1,0.5-6.4-5-8.9c-4.8-2.2-9.7-4-14.7-5.7c-10.4-3.3-21.1-5.3-31.8-6.9
		c-14.1-2.1-28.3-3.1-42.6-1.8c-12.4,1.1-24.3,3.9-35.7,8.8c-6.3,2.7-12.3,6.2-18,10c-0.7,0.5-1.5,0.8-1.4,2
		C271.8,106.3,272,109.1,272.3,112.2z M399.5,296c3.2-13.3,8.1-25.8,14.8-38c-6.7-1.9-13.2-3.8-19.8-5.6c-0.6-0.2-1.4,0.2-1.9,0.5
		c-1.3,0.9-2.6,1.9-3.9,2.8c-9.3,6.7-18.7,13.5-28,20.2c-0.5,0.4-0.9,0.8-1.4,1.2c0.2,0.2,0.3,0.4,0.4,0.5
		c5.8,1.6,10.7,4.9,15.8,7.9C383,290,391.1,293.2,399.5,296z M351.9,276.9c-0.5-0.4-0.6-0.6-0.8-0.7c-6.5-3.5-12.9-7-19.4-10.4
		c-4.4-2.3-9-4.2-13.3-6.6c-3.9-2.1-7.7-4.6-11.5-6.9c-0.7-0.4-1.7-1-2.4-0.9c-2.5,0.5-4.9,1.2-7,2.4c1,4.7,2.2,9.2,2.9,13.8
		c1.1,6.6,1.9,13.3,2.9,19.9c0.4,2.8,1.1,5.6,1.7,8.5C320.2,287.9,334.9,280.2,351.9,276.9z M364.7,36.7c0.6,2,1.4,3.7,1.6,5.5
		c0.3,2.7,0.2,5.4,0.4,8.1c0.3,4.2-1.3,7.7-4.1,10.6c-2.7,2.7-5.9,4.4-9.9,3.3c-0.4-0.1-1-0.1-1.4-0.1c-5.4,0.2-9.1-2.8-11-7.6
		c-2.1-5.4-1.6-10.5,1.1-15.5c0.4-0.7,0.7-1.4,1.3-2.6c-0.9,0.4-1.2,0.6-1.4,0.7c-0.4,0.2-0.8,0.5-1.2,0.8
		c-3.5,2.5-5.7,5.7-5.6,10.2c0,0.8-0.3,1.6-1.1,1.6c-0.5,0-1.2-0.6-1.5-1.2c-0.5-0.8-0.7-1.7-1-2.6c-3.7,2.2-4.3,6-1.6,8.7
		c0.5,0.5,1.1,1,0.7,1.8c-0.5,0.9-1.2,0.8-2.1,0.5c-1.1-0.3-2.3-0.6-3.5-0.7c-1-0.1-1.9,0.4-2.2,1.5c-0.3,1.1-0.1,2.1,0.8,2.8
		c0.6,0.4,1.3,0.7,1.9,0.9c0.5,0.2,1.1,0.2,1.6,0.4c1.7,0.5,1.8,0.8,1,2.5c-0.1,0.2-0.1,0.4-0.3,1c0.9,0.6,1.8,1.4,2.9,1.8
		c1.3,0.5,2.8,0.9,4.2,0.9c5.7,0.2,11.3,0.4,17,0.4c4.2,0,8.3-0.2,12.5-0.3c2.1-0.1,4.3-0.3,6.4-0.5c-0.5-2.6-0.5-2.7,2-3
		c0.6-0.1,1.3-0.1,1.9-0.3c1.3-0.5,2.7-1,3.9-1.8c1.4-1,1.2-2.2-0.4-2.8c-0.2-0.1-0.5-0.1-0.7-0.1c-1.1-0.4-1.5-1.2-0.9-2.2
		c0.3-0.6,0.7-1,1.1-1.6c0.8-1.4,1.8-2.7,2.4-4.1c0.7-1.6-0.1-2.6-1.8-2.8c-1.4-0.1-2.4,0.5-3.5,1.3c-1.2,0.8-2.1,0.3-2.4-1.1
		c-0.1-0.3,0-0.6-0.1-1c-0.3-3.6-1.5-6.9-3.2-10C367.5,38.8,366.5,37.5,364.7,36.7z M269,549.2c0.7,0.1,1.1,0.2,1.5,0.2
		c9.5,1.1,18.9,1.8,28.5,2c13,0.3,26.1,0.6,39.1,0.9c0.7,0,1.4-0.1,2.2-0.2c-0.2-3.5-0.4-6.8-0.6-10.2c-0.6,0-1.1-0.1-1.5-0.1
		c-10.3,0.4-20.6,0.9-30.9,1.1c-11.4,0.3-22.7-0.3-33.9-2.3c-1.5-0.3-3.1-0.6-4.9-1c0.1,2.4,0.2,4.5,0.3,6.7
		C268.8,547.3,268.9,548.2,269,549.2z M383.3,550.3c4.5,0.4,44.3-5,47.3-6.4c0.2-3.5,0.4-7.1,0.6-10.9c-16.3,0.3-32.2,1.8-47.9,4.4
		C383.3,541.9,383.3,546.1,383.3,550.3z M285.8,188c-0.1-1.9-0.1-3.5-0.3-5.1c-1.7-12.4-3.5-24.7-5.2-37c-0.1-1.1-0.6-1.6-1.6-1.7
		c-3.6-0.5-6.9,0.2-9.2,3.3c-2.3,3-3.1,6.5-2.8,10.2c0.9,8.4,3.6,16.2,8.5,23.1c1,1.4,2,2.7,3.2,3.9
		C280.3,186.6,282.6,187.8,285.8,188z M356.5,279.5c-3.6,3.7-7.1,7.3-10.5,11c-0.9,0.9-1.5,2-2.3,3.1c-0.9,1.2-0.6,2.2,0.3,3.2
		c2.7,3.1,5.5,6,8.9,8.3c2,1.4,4.2,2.6,6.5,4c3.9-3.8,7.7-7.3,11.3-11c2.4-2.5,2.3-3.3,0.6-6.3c-0.4-0.7-0.8-1.4-1.2-2.1
		c-2.8-5.1-7.6-7.6-12.5-10C357.2,279.5,356.8,279.5,356.5,279.5z M264.1,264.4c1.7,8.1,3.4,15.8,5,23.6c5.7-2,11.3-4,16.7-5.9
		c0-7.5,0-14.8,0-22.3C278.6,261.4,271.4,262.9,264.1,264.4z M380.6,537.8c-12.7,2.3-25.4,3-38.3,3.9c0.2,3.7,0.4,7.1,0.6,10.4
		c5.6,0.8,34.2-0.5,37.7-1.7C380.6,546.3,380.6,542.2,380.6,537.8z M421.2,264.7c-3,6.1-5.8,11.8-8.7,17.9c6,1.6,11.9,3.2,17.8,4.8
		c2.8-6.6,5.5-13,8.3-19.7C432.6,266.7,426.9,265.7,421.2,264.7z M414.6,184.5c1.7,0.2,2.6-0.7,3.5-1.7c0.8-0.9,1.5-1.9,2-3
		c3.3-6.3,5.3-13,6-20.1c0.5-4.4-0.6-8.6-3-12.4c-2-3.1-4.5-3.3-7.2-0.9c-1,0.9-1.5,1.9-1.5,3.3c0,11.2,0,22.4,0,33.6
		C414.5,183.7,414.5,184.1,414.6,184.5z M353.2,61.8c4.5,0,6.9-1.5,9.2-4.9c4.3-6.4-1-13.8-6.9-14.4c-1.7-0.2-3.5-0.1-5.2,0.1
		c-3.9,0.5-6.7,2.7-7.8,6.5c-1,3.8,0.4,7.2,2.9,10.2c0.2,0.3,0.6,0.5,1,0.7C348.5,61,350.8,61.8,353.2,61.8z M428.2,409.5
		c-1.4,13.2-1.5,25.8,0.1,38.6c5.2-2.6,10.2-5,15.3-7.5C437.3,430.9,433.8,420,428.2,409.5z M250.9,417.7c-0.2,0-0.3-0.1-0.5-0.1
		c-4.8,9.1-9.5,18.3-14.3,27.6c6.1,1.3,11.9,2.5,18.1,3.8C253.1,438.4,252,428,250.9,417.7z M259.1,265.7c-1.8,0.4-3.4,0.8-5,1.3
		c1.4,8.5,2.8,16.8,4.2,25.2c1.8-0.6,3.2-1.2,4.6-1.6C261.6,282.2,260.4,274.1,259.1,265.7z M243.8,269.2c1.6,8.7,3.1,17.2,4.7,25.9
		c1.5-0.5,2.8-0.8,4-1.2c-1.2-8.8-2.4-17.2-3.6-25.9C247.1,268.4,245.5,268.8,243.8,269.2z M242.8,296.6c-1.3-8.9-2.6-17.4-3.9-26
		c-3.6,1.4-4.1,2-4,4.6c0.2,6.8,1.4,13.5,3.3,20c0.2,0.8,0.6,1.6,1,2.5C240.5,297.3,241.7,297,242.8,296.6z M439.7,289.5
		c2.9-6.8,5.7-13.2,8.5-19.8c-1.8-0.3-3.5-0.6-5.3-1c-2.7,6.6-5.4,13-8.1,19.6C436.6,288.8,438.1,289.1,439.7,289.5z M452.7,270.6
		c-2.8,6.8-5.5,13.3-8.3,20c1.4,0.3,2.7,0.7,3.9,0.9c3.3-6.6,6.5-13,9.9-19.6C456.4,271.5,454.6,271.1,452.7,270.6z M267.2,288.9
		c-1.3-8.2-2.6-16.1-4-24.2c-1.1,0.3-2.1,0.5-3.2,0.8c1.5,8.2,3,16.2,4.4,24.4C265.5,289.5,266.3,289.2,267.2,288.9z M456,293.7
		c3-6.6,5.9-12.8,8.9-19.3c-1-0.4-1.7-0.7-2.7-1.1c-2.8,6.6-5.5,13.1-8.2,19.6C454.5,293.1,455.1,293.3,456,293.7z M240.6,269.9
		c1.6,8.9,3.2,17.4,4.8,25.9c1.7,0,1.4-1.1,1.3-2c-0.8-5.6-1.6-11.2-2.4-16.8c-0.3-2.4-0.6-4.9-1-7.5
		C242.3,269.6,241.5,269.7,240.6,269.9z M250.6,267.7c1.5,8.6,3,16.9,4.5,25.3c1.7-0.1,1.2-1.2,1.1-2.1c-0.8-5.9-1.6-11.8-2.3-17.8
		c-0.3-1.9-0.5-3.9-0.8-6C252.2,267.4,251.5,267.5,250.6,267.7z M432.1,287.5c1.3,0.9,1.7,0.3,2.2-0.8c2.5-5.6,5-11.2,7.5-16.8
		c0.2-0.3,0.3-0.7,0.5-1.3c-1-0.2-1.9-0.4-2.9-0.5C436.9,274.7,434.5,281.1,432.1,287.5z M459,272.3c-2.9,6.6-5.8,13.1-8.6,19.6
		c1.5,0.9,1.7-0.3,2.1-1.1c2.6-5.3,5.1-10.7,7.7-16c0.3-0.6,0.5-1.1,0.8-1.9C460.2,272.7,459.7,272.5,459,272.3z M449.2,269.9
		c-2.5,6.8-5,13.3-7.4,19.8c0,0,0.2,0.2,0.6,0.5c3.1-6.6,6.1-13.1,9.2-19.8C450.7,270.2,450,270.1,449.2,269.9z"/>
	<path class="st0" d="M504.3,484.5c-21.6,8.1-44.1,10.3-67,9.9c-2.5-12-5-23.8-7.4-35.6c-0.5-2.5-0.8-5-1.2-7.7
		c2.1-1.1,4.1-2.2,6.2-3.3c3.9-2,7.8-4,11.8-5.9c1-0.5,2.3-0.5,3.5-0.8c5.9-1.3,11.9-2.6,17.8-3.8c2.9-0.6,5.8-0.9,8.8-0.9
		c-3.2,0.7-6.5,1.3-9.7,2.1c-5.4,1.2-10.8,2.4-16.1,3.6c-0.5,0.1-1.2,0.2-1.6,0.4c-0.4,0.3-0.9,0.8-0.9,1.2c0,0.4,0.5,1.1,0.9,1.2
		c1.1,0.4,2.3,0.5,3.5,0.7c3.9,0.8,7.7,2,11.2,4.1c1.2,0.7,2.2,1.6,3.2,2.4c0.7,0.6,1.4,1.3,2.3,0.4c0.8-0.9,0.2-1.7-0.4-2.3
		c-0.9-0.9-1.9-1.8-3-2.3c-2.6-1.3-5.4-2.4-8.1-3.6c-0.4-0.2-0.8-0.4-1.8-0.8c5.1-1.1,9.6-2.1,14.1-3.1c6.1-1.3,12.2-2.6,18.3-3.9
		c0.9-0.2,1.8-0.4,2.5-0.8c0.5-0.3,1.1-1.1,1.1-1.6c0.1-0.9-0.8-1.3-1.6-1.4c-2.2,0-4.3-0.1-6.5,0c-10.5,0.8-21,2.2-31.2,5.2
		c-1.4,0.4-2.8,0.9-4.7,1.6c3-5.7,7.3-9.8,10.4-14.8c-5.7,3-9.6,8-13.1,13.6c-0.6-0.8-1-1.2-1.3-1.8c-0.9-1.6-1.9-3.2-2.6-4.8
		c-3.6-7.8-7.2-15.7-10.7-23.6c-0.7-1.7-1.2-3.5-1.6-5.3c-0.2-0.7-0.1-1.4,0-2.1c1-6.6,1.9-13.3,3.2-19.9c0.9-4.5,2.4-8.9,3.6-13.4
		c3.8-14.6,6.9-29.4,9.3-44.3c0.3-1.7,0.4-3.3,0.2-5.1c-0.3,0.8-0.6,1.6-0.8,2.4c-1.4,5.5-2.7,11-4.1,16.5c-0.2,0.9-0.3,1.8-1.4,2.5
		c-0.6,0.4-0.8,1.5-1.1,2.4c-1.1,4.3-2.3,8.5-3.2,12.8c-2.1,10.3-4.4,20.6-6.2,31c-3,17.4-5.1,35-4.1,52.7c0.6,10.6,2.3,21,4.5,31.3
		c1.5,7,3.1,13.9,4.7,20.8c0.4,1.6,0.3,3.1-0.1,4.7c-0.9,3.2-1.6,6.5-2.2,9.8c-0.2,1.4,0,2.9,0.3,4.2c0.4,1.9,1,3.7,1.6,5.5
		c1.3,3.7,1.7,7.4,0.5,11.2c-0.4,1.2-0.1,2.7-0.1,4.2c-0.9,0-1.7,0.1-2.5,0.1c-10.6,0.2-21.1,0.8-31.6,2.2
		c-9.9,1.3-19.8,2.9-29.7,4.2c-6.1,0.8-12.2,1.3-18.4,1.7c-9.4,0.6-18.8,1.2-28.3,1.6c-12.7,0.6-25.4,0.8-38.1-0.2
		c-6.5-0.5-13-1.5-19.3-3.3c-0.5-0.1-0.9-0.3-1.5-0.6c0.1-1.2,0.3-2.5,0.4-3.7c0.1-1,0.3-1.9,0.4-2.9c0.5-3.9-0.9-7-3.9-9.5
		c-0.8-0.7-1.7-1.4-2.8-2.4c0.8-0.1,1.3-0.1,1.7-0.1c17.9,0.4,35.8,0.6,53.7,1.1c14.6,0.4,29.1,1.2,43.6,1.7
		c18.4,0.7,36.8,1.2,55.1,2.1c4.5,0.2,8.8-0.4,13.2-1.4c-0.6,0-1.1-0.1-1.7-0.1c-6.3-0.4-12.6-0.8-18.9-1.1
		c-9.4-0.5-18.9-0.8-28.3-1.2c-13.6-0.6-27.2-1.2-40.8-1.8c-24.8-0.9-49.6-1.8-74.4-1.1c-1.6,0-3.2-0.2-4.6,0.9
		c-0.2,0.1-0.6-0.2-1.4-0.5c1.4-1.5,2.5-2.9,3.8-4.2c3.3-3.5,3.5-2.3,2.7-8.1c-0.7-4.9-1-9.9-1.5-14.8c-1-9.4-2.1-18.8-3.1-28.1
		c-0.9-8.5-1.8-17-2.7-25.5c-0.9-8.3-1.8-16.7-2.7-25c-0.9-8.2-1.7-16.4-2.6-24.6c-1.3-11.1-2.1-22.3-4.3-33.3
		c-0.5-2.3-0.9-4.7-2.4-6.7c0.4,4.6,0.7,9.2,1.2,13.8c1,9.5,2.1,19.1,3.2,28.6c0.7,6.6,1.4,13.2,2.2,19.8c0.3,2.4,0.1,4.6-0.9,6.8
		c-1.4,3-2.9,6.1-4.4,9c-3.3,6.5-6.7,12.9-10,19.4c-0.4,0.7-0.8,1.4-1.2,2.2c-1.9-0.2-3.7-0.4-5.5-0.7c-0.6-0.1-1.2-0.6-1.5-1.1
		c-4.2-5.7-9.6-10.3-15.1-14.7c-3.7-3-7.6-5.9-11.4-8.8c-0.7-0.6-1.6-1.8-2.6-0.8c-0.9,1,0.1,1.9,0.7,2.8c2,3,4.1,5.9,6.3,8.8
		c4.5,5.8,9.2,11.5,14.5,16.6c1.5,1.4,3,2.7,4.9,4.3c-7.2,0.5-13.6,2.3-19,6.5c-1.2,0.9-2.3,2-2.8,3.6c1.9,0.8,3.5-0.3,5.1-0.8
		c-1,0.1-1.9,0.2-2.9,0.4c-0.1-0.1-0.1-0.2-0.2-0.3c0.7-0.5,1.3-1.1,2-1.6c4.5-3.1,9.6-4.8,15-5.3c1.9-0.2,3.8-0.2,5.7-0.3
		c0.8,0,1.8,0,1.9-1.1c0-0.5-0.6-1.3-1.1-1.6c-9.9-6.8-17-16.1-24.3-25.4c-0.1-0.1,0-0.3,0-0.7c0.9,0.8,1.8,1.4,2.6,2.2
		c4.2,3.6,8.5,7.1,12.5,10.8c2.1,1.9,4,4.1,5.8,6.4c1.2,1.5,2.5,2.5,4.5,2.7c8.8,0.9,17.3,2.8,26.2,4.9c1.7,15.1,3.4,30.4,5.1,45.9
		c-1.7,0.4-3.1,0.8-4.6,1.2c-3.5,0.9-7,1.8-10.5,2.6c-0.8,0.2-1.7,0.3-2.5,0.1c-7.8-1.8-15.6-3.7-23.4-5.4
		c-9.8-2.2-19.7-4.2-29.5-6.3c-6.4-1.4-12.8-2.9-19.1-4.5c-0.8-0.2-1.5-0.8-2.1-1.4c-0.6-0.6-1-1.5-1.4-2.3c-1.8-3.7-4.1-7-7-10
		c-0.3-0.3-0.6-0.8-0.9-1.2c0.8-1.3,1.4-2.5,2.2-3.7c4.6-6.9,8.3-14.2,12.1-21.5c3.1-6,6.3-11.9,9.4-17.8
		c5.8-11.4,10-23.5,14.4-35.5c3.5-9.5,6.1-19.3,8.8-29.1c2.3-8.5,4.7-16.9,7.4-25.3c3.2-9.8,5.5-19.9,7.2-30c0.5-3,1.3-5.8,3.2-8.4
		c2.5-3.4,4.1-7.2,5.2-11.2c0.6-2.3,1.8-3.4,4.3-3.2c0.6,2.5,1.1,5.1,1.7,7.6c0.5,2,1.1,4,1.8,6c0.8,2,1.7,2.5,3.7,1.9
		c10.7-3.2,21.5-6.1,31.9-10.4c4.3-1.8,8.9-3.2,13.3-4.7c2.9-1,3.3-1.3,3.2-4.5c-0.1-3.9-0.4-7.8-0.4-11.7c0-1.9,0.3-3.8,0.5-5.8
		c2.6-0.7,5.1-1.3,7.8-2c0.4,1.8,0.8,3.4,1.1,5.1c1.1,7.5,2.2,15,3.3,22.5c0.4,2.7,1.3,5.3,1.7,8c0.4,2.4,1.8,2.9,4,1.7
		c6.2-3.4,12.5-6.8,18.9-9.8c8-3.7,16.1-7,24.8-8.6c0.5-0.1,1.1-0.2,2.1-0.3c-0.6,0.8-0.9,1.3-1.3,1.7c-2.3,2.4-4.7,4.8-7,7.3
		c-1.2,1.4-2.2,2.9-3.2,4.4c-1,1.5-0.8,3,0.3,4.4c0.4,0.6,0.9,1.1,1.3,1.7c3.7,4.2,7.8,8,12.8,10.7c0.4,0.2,0.8,0.5,1.4,0.9
		c-0.8,1.1-1.5,2.1-2.3,3c-2,2.1-4,4.2-6,6.2c-1.1,1.1-1.6,2.3-1.5,3.9c0.4,7.3,0.7,14.5,1.1,21.8c0.5,10,1.1,20,1.3,30
		c0.4,22.7,0.7,45.4,1,68.1c0.2,14.4,0.3,28.8,0.6,43.2c0,2.4,0.7,4.9,1.1,7.3c0.1,0.5,0.5,1,0.9,1.4c1.1,1.5,2.3,2.9,3.4,4.3
		c1.9,2.6,3.7,5.2,5.5,7.8c0.6,0.8,1,1.7,2.2,1.6c1-0.1,1.4-0.9,1.7-1.8c1.1-2.7,3.2-4.8,5.1-6.9c1.9-2.1,3.6-4.3,5.4-6.4
		c1.2-1.3,1.4-2.8,1-4.5c-1.1-5.1-1.2-10.3-1.3-15.5c-0.4-15.8-1-31.5-1.4-47.2c-0.2-7.5-0.4-15-0.5-22.6
		c-0.1-21.8,0.1-43.5-0.1-65.3c0-6.1-0.6-12.3-0.9-18.4c-0.1-1.3-0.8-2-1.7-2.8c-1.9-1.7-3.9-3.3-5.8-5.1c-1.1-1-2-2.3-3.1-3.5
		c2.6-2.5,5.2-4.8,7.6-7.2c1.6-1.7,3-3.5,4.3-5.4c1-1.4,1-2.9,0-4.5c-1.2-2-2.3-4-3.7-6.4c0.9,0.4,1.5,0.7,2,1
		c6.7,4,13.6,7.3,21.1,9.7c1.7,0.5,3.2,1.4,4.8,2.2c2.1,1.1,2.8,0.8,3.2-1.6c2-10.9,6.2-21,10.8-30.9c0.1-0.3,0.3-0.5,0.6-1.1
		c1.2,0.4,2.4,0.9,4,1.4c-2.3,4.5-4.4,8.7-6.6,13c-0.1,0.3-0.4,0.5-0.5,0.8c-1.3,2.1-0.9,3.4,1.4,4.3c2.2,0.8,4.4,1.5,6.6,2.1
		c10.3,2.6,20.6,5.1,30.9,7.6c1.6,0.4,3.2,0.9,4.9,1.3c2.4,0.7,3.3,0.4,4.5-1.9c1-1.9,1.8-3.9,2.7-5.9c0.4-0.8,0.7-1.6,1.1-2.5
		c1.1,0.1,2.1,0.2,3.3,0.3c0.2,1.3,0.4,2.5,0.5,3.8c1.6,11.3,3.9,22.4,6.3,33.4c2.9,13.3,6,26.7,8.7,40.1
		c3.3,15.8,8.1,31.1,15.7,45.4c0.3,0.6,0.5,1.2,0.8,1.7c4.5,7.1,5.4,15.1,5.5,23.2c0.3,14.8,0.4,29.6,0.6,44.4
		C504.1,480,504.2,482,504.3,484.5z M292.6,352.3c-9.7,0.5-17.2,0.9-24.7,1.3c-3.6,0.2-4.6,1.2-4.5,4.7c0.1,4.1,0.3,8.2,0.7,12.2
		c0.7,6.9,1.7,13.8,2.5,20.7c0.3,2.5,1.7,4.2,3.7,5.6c2.7,1.9,5.7,3.2,8.9,4.1c3.5,1,6.9,1.9,10.4,2.9c0.6,0.2,1.3,0.3,1.9,0.2
		c2.6-0.8,5.3-1.4,7.6-2.7c4.5-2.4,8.4-5.8,12.2-9.2c3.7-3.3,5.1-7.1,4.8-12.1c-0.4-8.3-0.2-16.6-0.2-24.9c0-2.6-0.3-3-2.8-3.2
		c-0.6-0.1-1.3,0-1.9,0C304.2,352,297.3,352.2,292.6,352.3z M309.4,342.5c6.4-2.2,6.4-2.2,7.8-4.6c0.5-0.1,1.1-0.1,1.6-0.2
		c1.3-0.3,2.7-0.6,3.9-1.1c1.5-0.7,2.2-2.4,2-3.8c-0.2-1.2-1.1-1.8-3.1-2c-0.2,0-0.3,0-0.5,0c-2.7,0-5.4,0-8.2,0.1
		c-9.3,0.3-18.7,0.6-28,0.9c-7.7,0.2-15.3,0.2-23,0.4c-2.1,0.1-4.1,0.5-6.2,0.9c-1.2,0.2-2.1,0.8-2.3,2.1c-0.1,1.3,0.6,2.1,1.6,2.7
		c0.5,0.3,1,0.4,1.5,0.7c0.4,0.3,1,0.6,1.2,1c0.7,1.4,1.9,2.2,3.2,2.7c1.6,0.6,3.3,1.1,5.1,1.7c0.3,1.7,1.6,2.7,3.3,3.2
		c1.7,0.5,3.5,1.1,5.3,1.3c6.3,0.6,12.6,1,18.9,0.4c3.7-0.3,7.3-0.7,10.9-1.2C307.3,347.1,309.2,345.6,309.4,342.5z M423.5,503.4
		c-0.1-0.2-0.2-0.4-0.2-0.5c-20.6,4.4-41.4,7.3-62.3,9.9c1.8,0,3.6,0.1,5.5,0c4.1-0.2,8.3-0.5,12.4-0.7c11.7-0.7,23.4-2.3,34.7-5.4
		C416.9,505.7,420.2,504.4,423.5,503.4z M459.4,336.5c-0.1-0.1-0.3-0.2-0.4-0.3c-0.2,0.2-0.3,0.3-0.5,0.5
		c-5.3,8.2-10.6,16.3-15.8,24.6c-1.7,2.8-3.1,5.8-4.5,8.7c-0.6,1.2-1.1,2.4-0.9,4.2C444.9,361.4,452.1,349,459.4,336.5z M358,513.2
		c0,0,0-0.1,0-0.1c-1,0-1.9,0-2.9,0c0,0,0,0.1,0,0.1C356,513.2,357,513.2,358,513.2z M371,528c0,0,0,0.1,0,0.1c0.5,0,1,0,1.6,0
		c0,0,0-0.1,0-0.1C372,528,371.5,528,371,528z M379,527c0,0,0,0.1,0,0.1c0.4,0,0.9,0,1.3,0c0,0,0-0.1,0-0.1
		C379.9,527,379.4,527,379,527z M375.1,527.5c0,0.1,0.1,0.2,0.1,0.3c0.4,0,0.9-0.1,1.3-0.1c0-0.1,0-0.1,0-0.2
		C376,527.5,375.6,527.5,375.1,527.5z M368.4,528.6c0,0,0-0.1,0-0.1c-0.4,0-0.9,0-1.3,0c0,0,0,0.1,0,0.1
		C367.5,528.6,368,528.6,368.4,528.6z M363.3,528.9c0,0.1,0,0.2,0,0.3c0.4,0,0.7-0.1,1.1-0.1c0,0,0-0.1,0-0.1
		C364,528.9,363.6,528.9,363.3,528.9z M350.4,513.6C350.4,513.6,350.4,513.7,350.4,513.6c0.3,0.1,0.7,0.1,1,0.1c0,0,0,0,0-0.1
		C351,513.6,350.7,513.6,350.4,513.6z M356.7,530.1c0,0,0.1-0.1,0.1-0.1c-0.4,0-0.8,0-1.2,0c0,0,0,0.1,0,0.1
		C356,530.1,356.4,530.1,356.7,530.1z M352.8,530.5c0,0,0-0.1,0.1-0.1c-0.4,0-0.8,0-1.1,0c0,0,0,0.1,0,0.1
		C352.1,530.5,352.5,530.5,352.8,530.5z M408.7,523.2c0,0.1,0,0.2,0,0.2c0.4,0,0.9,0,1.3-0.1c0-0.1,0-0.1,0-0.2
		C409.6,523.2,409.2,523.2,408.7,523.2z M359.4,529.4c0,0,0,0.1,0,0.1c0.4,0,0.9,0,1.3,0c0,0,0-0.1,0-0.1
		C360.3,529.4,359.8,529.4,359.4,529.4z M402.9,524.3c0-0.1,0-0.1,0-0.2c-0.5,0-1,0-1.5,0c0,0.1,0,0.1,0,0.2
		C401.9,524.3,402.4,524.3,402.9,524.3z M397.7,524.6c0,0.1,0,0.2,0,0.2c0.4,0,0.9,0,1.3-0.1c0-0.1,0-0.1,0-0.2
		C398.6,524.6,398.1,524.6,397.7,524.6z M395.2,525.2c0-0.1,0-0.1,0-0.2c-0.4,0-0.9,0.1-1.3,0.1c0,0,0,0.1,0,0.1
		C394.4,525.2,394.8,525.2,395.2,525.2z M390.2,525.6c0,0.1,0,0.1,0,0.2c0.4,0,0.9-0.1,1.3-0.1c0,0,0-0.1,0-0.1
		C391,525.6,390.6,525.6,390.2,525.6z M387.9,526.2c0-0.1,0-0.1,0-0.2c-0.4,0-0.9,0-1.3,0c0,0.1,0,0.1,0,0.2
		C387,526.2,387.5,526.2,387.9,526.2z M382.8,526.5c0,0.1,0,0.2,0.1,0.2c0.4,0,0.9,0,1.3-0.1c0-0.1,0-0.1,0-0.2
		C383.7,526.5,383.3,526.5,382.8,526.5z"/>
	<path class="st1" d="M293.1,554.6c1.1-0.2,2.3-0.6,3.4-0.5c21.3,0.8,42.7,1.5,64.1,0.6c11.4-0.5,22.8-1.5,34.2-2.7
		c11.7-1.3,23.3-3.2,34.9-4.8c0.2,0,0.3,0,0.7,0.1c0.1,0.6,0.2,1.1,0.2,1.7c0.2,10.7,0.6,21.4,0.7,32.1c0.1,6.4-0.2,12.8-0.3,19.2
		c-0.4,15-0.8,29.9-1.1,44.9c-0.2,9.4-0.3,18.9-0.7,28.3c-0.5,11.4-1.3,22.8-2.2,34.2c-1.1,14-2.5,28-3.5,42.1
		c-1.2,16.4-2,32.9-2.9,49.3c-0.3,6-0.4,12-0.6,18c-0.1,1.8,0.5,3.2,1.9,4.4c1.6,1.4,3.1,3,4.7,4.5c1.3,1.2,1.4,2.5,0.6,4.1
		c-1.3,2.7-2.4,5.4-3.6,8.1c-1.1,2.4-0.6,4.4,1.3,6.3c2.6,2.7,5,5.6,7.7,8.6c-1.2,0.5-2.1,0.9-2.9,1.3c-6.3,2.6-12.9,3.7-19.5,4.6
		c-13.6,1.9-27.3,2.1-40.9,1.8c-3-0.1-6-0.9-9.1-1.5c-0.1-0.8-0.2-1.5-0.2-2.2c0-6.6,0-13.3,0-19.9c0-1.1,0.2-2,0.9-2.9
		c8.1-10.3,15.2-21.1,22.4-32c5.3-8.1,10.4-16.3,15.5-24.5c0.3-0.5,0.5-1.1,0.7-1.7c-14,17.6-26.1,36.6-39.3,55.4
		c-0.1-1.2-0.2-1.9-0.2-2.5c0-19.3-0.1-38.6,0-57.8c0.1-12.8,0.8-25.6,1.1-38.4c0.3-14.2,0.6-28.3,0.7-42.5
		c0.2-28.6,0.3-57.3,0.4-85.9c0-1.7,0.4-3,1.5-4.3c2.7-3,5.3-6.2,7.9-9.3c1-1.2,2.1-1.7,3.6-2.1c7.6-1.7,14.6-4.7,21.1-8.8
		c0.2-0.1,0.4-0.4,0.9-0.8c-8,2.1-15.2,5.4-22.3,8.8c-0.1-0.1-0.2-0.3-0.3-0.4c0.5-0.6,1-1.2,1.5-1.7c3.5-3.6,7.1-7.2,10.6-10.7
		c0.4-0.4,0.9-0.7,1.1-1.2c0.2-0.5,0.4-1.3,0.1-1.7c-0.5-0.7-1.3-0.5-1.9,0c-0.5,0.4-1,0.9-1.4,1.3c-7.5,7.3-14.7,14.7-21.3,22.8
		c-0.3,0.4-0.5,0.7-0.8,1.1c-0.2-0.1-0.4-0.2-0.6-0.3c0-1.1,0-2.2,0-3.2c0-0.9,0-1.8,0-2.6c-0.1-0.8-0.6-1.5-1.4-1.3
		c-0.5,0.1-0.9,0.8-1.1,1.3c-0.2,0.8-0.1,1.6-0.1,2.4c0,18.3,0.1,36.6,0,55c-0.3,29-0.5,58.1-1.3,87.1c-0.6,22.8-0.9,45.6-0.9,68.4
		c0,19.5,0,39,0,58.6c0,1,0,1.9,0,3.2c-3.3,0.9-6.6,1.9-9.9,2.7c-3.8,0.9-7.7,0.9-11.7,1c-10.7,0.2-21.4-0.4-32.1-1.9
		c-9.3-1.3-18.7-2.8-28-4.3c-2.4-0.4-4.8-1.1-7.1-2.5c0.7-3.5,2.5-6.6,4.3-9.5c1.4-2.3,2.8-4.7,4.3-7c2.7-4.2,2.6-8.7,0.7-13.1
		c-1.2-2.8-3-5.3-4.5-7.9c-0.6-0.9-1.3-1.8-2.1-2.9c1.5-1.3,3-2.5,4.4-3.7c0.6-0.5,1.3-1,1.9-1.4c1.8-1.1,2.4-2.7,2.4-4.8
		c0.1-8.9,0.6-17.7,0.6-26.6c0-10.8-0.3-21.6-0.5-32.4c-0.3-13.1-0.6-26.2-1.2-39.3c-0.6-13-1.4-26-2.1-39c-0.4-7.7-1-15.3-1.5-23
		c-1-15.5-1.9-31-2.8-46.5c-0.4-6.8-0.6-13.6-1-20.4c-0.6-9.3-1.3-18.5-1.9-27.8c-0.1-1.1-0.1-2.2-0.2-3.5c3.2,0.3,6.2,0.6,9.2,0.8
		c4.4,0.3,8.8,0.6,13.2,0.9C292.2,553.8,293.1,553.4,293.1,554.6c-0.5,0.7-1.1,1.3-1.5,2.1c-3.8,6.8-7.7,13.6-11.3,20.5
		c-2.2,4.1-4,8.4-5.9,12.6c-0.5,1.2-0.9,2.5-1.2,3.9c-0.1,0.3,0.4,1,0.7,1.1c0.3,0.1,0.9-0.2,1.2-0.5c0.4-0.4,0.6-0.9,0.8-1.4
		c1.9-4.2,3.8-8.4,5.7-12.6c3.6-7.7,7.2-15.5,10.8-23.2C292.8,556.2,292.9,555.4,293.1,554.6z M393,822.9c-0.6,0.3-1.3,0.7-1.9,1
		c-3,2-6,4-9,5.9c-5.1,3.2-10.2,6.3-15.3,9.3c-1.6,1-3.5,1.5-5.2,2.3c-0.5,0.2-1,0.8-1,1.3c-0.1,0.3,0.6,0.9,1.1,1
		c0.7,0.2,1.4,0.3,2.1,0.3c10.7,0.6,21.4,1.3,32.1,1.8c6.1,0.3,12.1,0.4,18.2,0.5c2.7,0.1,5.4-0.4,8-1.1c0-0.2,0-0.3,0-0.5
		c-18.1-1-36.3-2.1-54.4-3.1c-0.1-0.2-0.1-0.3-0.2-0.5c0.2-0.1,0.4-0.2,0.6-0.3c8.6-4.6,16.1-10.8,23.8-16.6
		c0.5-0.4,0.9-0.9,1.4-1.3c0.5-0.4,1.1-0.8,1.6-1.1c-0.1-0.1-0.2-0.2-0.3-0.4C394.1,822,393.5,822.5,393,822.9z M292.5,830.1
		c0.1-0.1,0.2-0.3,0.2-0.4c2.5,1,5,2,7.5,3c2.5,1,5,2,7.6,3c2.5,1,5.1,1.9,7.6,2.8c2.5,0.9,4.9,1.7,7.5,2.1c-1.1-0.6-2.3-1-3.5-1.5
		c-13.1-5-25.8-10.8-38.3-17c-0.8-0.4-1.6-0.9-2.4-1c-0.5-0.1-1.4,0.2-1.6,0.5c-0.2,0.4,0,1.3,0.3,1.7c0.8,0.8,1.7,1.5,2.6,2
		c8.1,4.8,16.1,9.8,24.3,14.4c12.5,7,25.5,12.9,38.6,18.7c0.7,0.3,1.7,0.4,2.2,1.4c-22.9-0.8-45.4-3.5-67.2-10.1
		c1.7,1,3.5,1.9,5.3,2.6c6.4,2.5,13.1,4.2,19.8,5.7c7,1.6,14.2,2.5,21.3,3c8.1,0.5,16.3,1,24.4,1.4c0.7,0,1.5,0.1,2.1-0.1
		c0.5-0.2,1.2-0.6,1.3-1.1c0.1-0.5-0.3-1.2-0.7-1.6c-0.5-0.5-1.2-0.8-1.9-1.1c-2.2-1-4.4-2-6.6-2.9c-16.8-7.3-33.2-15.3-49-24.6
		C293.6,830.8,293.1,830.4,292.5,830.1z M284.6,762.5c0.2,0.8,0.5,1.6,0.7,2.4c5.2,15.6,12.3,30.2,21.3,43.9
		c6.3,9.7,13,19,21.1,27.3c2.5,2.6,5.3,4.8,8,7.3c0.8,0.7,1.3,1.9,3.1,1.4C315.2,820.7,297.9,792.9,284.6,762.5z M410.1,553.4
		c0,0.2-0.1,0.5,0,0.7c0.2,0.6,0.4,1.2,0.8,1.7c2.9,4.5,5.7,9,8.6,13.5c2.7,4.1,6.4,7.5,8,12.4c0.1,0.4,1,0.8,1.3,0.7
		c0.5-0.2,0.9-0.8,1-1.3c0.1-0.5-0.1-1.1-0.3-1.6c-0.5-1.2-1-2.4-1.8-3.4c-2-2.9-4.1-5.7-6.3-8.5
		C417.6,562.9,413.8,558.2,410.1,553.4z"/>
	<path class="st2" d="M406.7,129.6c0.1,3.3,0.3,6.5,0.4,9.7c0.4,9.2,0.8,18.4,1.3,27.5c0.3,5.9,0,11.7-1.3,17.4
		c-1,4-2.7,7.7-5.6,10.7c-4.8,5-12,4.6-16.2-0.9c-0.7-0.9-1.2-1.9-1.8-2.8c-1.9-3.3-4.6-5.5-8.3-6.4c-0.9-0.2-1.7-0.5-2.6-0.6
		c-1.6-0.2-2.7-1-3.5-2.4c-1-1.8-1.2-1.7-3-1.8c-0.6,1,0,1.8,0.5,2.6c0.9,1.4,1.8,2.9,2.5,4.4c1.1,2.3,0.4,3.9-2,4.9
		c-0.4,0.2-0.7,0.3-1.1,0.4c-1.4,0.1-2.3,0.9-3.2,1.9c-1.6,1.8-3.6,2.8-6,3.2c-2,0.3-3.9,0.1-5.4-1.3c-1.4-1.3-3.1-1.6-4.9-1.3
		c-2.3,0.3-4.3-0.2-6.1-1.6c-1.6-1.2-1.7-1.6-0.8-3.4c1-2.2,2.2-4.3,3.2-6.4c0.4-1,0.7-2,1.1-3.4c-2.8,0.9-3.5,3-4.8,4.7
		c-6,0.3-10.4,3.1-13.6,8.1c-0.6,0.9-1.2,1.9-1.8,2.8c-3.1,4.2-7.5,5.6-12.5,4.2c-3.7-1.1-6.5-3.4-8.2-6.9
		c-2.1-4.4-3.2-9.2-4.3-13.9c-2.2-9.8-3.4-19.8-4.4-29.9c-0.5-5.3-1.2-10.6-1.8-16.1c0.3-0.1,0.7-0.3,1.1-0.4
		c6.8-1.2,13.3-3.4,19.8-5.6c13-4.3,26.2-7,40-6.9c9.1,0.1,18.2,1.4,27.1,3.4c7.2,1.6,14.4,3.5,21.7,5.2
		C403.5,129,404.9,129.2,406.7,129.6z M371.3,163.2c0.1-0.1,0.2-0.2,0.3-0.3c0.5,0.2,0.9,0.5,1.4,0.7c4.8,2.3,9.9,3.1,15.1,2.2
		c4.3-0.8,7.9-2.8,10.8-6.1c1-1.2,1.7-2.5,1.1-4.2c-2-5.7-5.6-8.4-11.7-8.4c-8.4,0-14.5,4.6-19.9,10.5c-1.1,1.2-1.2,2.8-0.6,4.3
		c0.7,1.7,1.5,3.3,2.4,4.9c2.5,4.5,5.3,8.8,6.7,13.7c0.2,0.8,0.6,1.7,1.8,1.5c0.9-0.7,0.8-1.7,0.5-2.6c-0.5-1.6-1-3.2-1.8-4.7
		c-1.6-3.1-3.3-6-4.9-9C372.2,165,371.8,164.1,371.3,163.2z M333,166.6c-0.3,0.9-0.4,1.5-0.6,2c-1.4,4.1-2.9,8.1-4.3,12.2
		c-0.3,0.9-0.6,1.8,0.5,2.3c1.1,0.5,1.6-0.4,1.9-1.3c0.1-0.2,0.2-0.4,0.2-0.7c2-5.7,3.9-11.5,6-17.2c0.7-2,0.4-3.7-1.2-5
		c-2.8-2.5-5.7-4.9-8.6-7.2c-2.1-1.6-4.6-2.2-7.2-2.2c-7.6,0.1-13.1,4.5-18.3,9.4c-0.6,0.6-0.5,1.3,0.1,1.9c1,0.9,1.9,2,3,2.7
		c3.7,2.7,7.8,4.3,12.3,5.2c5.2,1.1,10.2,0.7,14.9-1.7C332,166.9,332.4,166.8,333,166.6z M386.8,133.8c-4.2,0.5-8.5,0.7-12.6,1.5
		c-3.2,0.6-6.3,1.8-9.4,2.8c-2.1,0.7-3.1,2.5-3.7,4.5c-0.6,2.1,0.5,3.3,2.7,3c1.7-0.3,3.4-0.8,5.1-1.2c1.2-0.3,2.3-0.7,3.5-0.8
		c4.4-0.3,8.8-0.7,13.2-0.7c5.4-0.1,10.7,0.3,16,1.6c0.9,0.2,1.7,0.3,2.3-0.6c1.7-2.6,0.8-6-1.9-7.4c-1-0.5-2.1-0.9-3.2-1.1
		C394.8,134.7,390.8,134.3,386.8,133.8z M309.3,130c0,0.2,0.1,0.4,0.1,0.6c2.1-0.2,4.1-0.4,6.2-0.4c3.3,0,6.7,0,10,0.1
		c4.2,0.2,8.1,1.6,12.1,2.8c5.5,1.6,11,3,16.8,2.1c4.1-0.6,8.1-1.6,12.1-2.9c7.8-2.5,15.7-3.4,23.9-2c1,0.2,2.3,0.7,2.6-0.8
		c0.2-1.4-1.2-1.5-2.1-1.7c-4.6-0.8-9.2-1-13.8-0.5c-4.7,0.5-9.2,1.9-13.7,3.3c-5.8,1.8-11.6,3-17.7,1.6c-3.1-0.7-6.2-1.6-9.3-2.3
		c-3.3-0.8-6.5-1.6-9.8-2.2c-3.6-0.6-7.3-0.8-11-0.2C313.3,127.9,311.1,128.5,309.3,130z M335.5,145.5c0,0.1,0,0.2,0,0.3
		c1-0.1,2.1-0.1,3-0.5c2.1-0.7,2.5-2.3,0.9-3.8c-1-0.9-2.2-1.6-3.4-2.1c-5.9-2.4-12-3.2-18.3-3.2c-5.8,0-11,1.8-15.6,5.2
		c-1.2,0.9-2.3,2-3.3,3.1c-0.6,0.6-1.1,1.5-0.5,2.4c0.7,1,1.7,0.8,2.6,0.5c5.2-2.1,10.7-2.7,16.2-2.7
		C323.2,144.9,329.4,145.3,335.5,145.5z"/>
	<path class="st3" d="M281.3,133.2c3.3,0,6.1,0,9.1,0c0.1,2.2,0.2,4.4,0.4,6.6c1,11.9,2.1,23.7,4.4,35.4c0.9,4.5,2.1,9,3.4,13.5
		c0.7,2.4,1.8,4.8,3.1,7c3.3,5.6,10.4,8.3,16.7,6.7c3.4-0.9,5.8-3,7.7-5.7c0.8-1.2,1.5-2.5,2.3-3.6c2.2-3,5-5.1,9.2-5.6
		c-0.3,0.9-0.5,1.5-0.8,2.1c-0.8,1.6-0.5,3.1,0.7,4.4c2.4,2.4,5.3,3.8,8.8,3.4c1.1-0.1,2.2-0.4,3.2,0.5c3.8,3.7,10.5,2.4,14.2-1
		c1.3-1.2,2.5-2.1,4.2-2.5c2.1-0.5,3.3-2.3,4.3-3.9c0.4-0.5,0.1-1.5,0.1-2.3c0-0.4-0.1-0.7-0.2-1.3c4,0.5,7.2,2,9.1,5.5
		c0.8,1.3,1.6,2.6,2.5,3.8c5,6.2,13.8,6.6,19.4,0.9c3.7-3.8,5.8-8.4,6.8-13.5c1.3-6.4,1.2-12.9,0.9-19.4c-0.4-7.3-0.6-14.5-1-21.8
		c-0.1-3.4-0.3-6.7-0.4-10.1c0-0.7,0-1.4,0-2.3c1,0.1,1.7,0.3,2.6,0.4c0.1,0.7,0.2,1.3,0.2,1.9c-0.2,8-0.4,16-0.5,24
		c0,1.4,0,2.7,0,4.1c0,1.5,0.1,3,0.1,4.6c0.1,13.4,0.3,26.7,0.3,40.1c0,3.7-0.3,7.4-0.9,11c-1,6.5-4.5,11.5-10.2,14.6
		c-6.7,3.7-13.6,6.8-21.1,8.2c-0.5,0.1-1.1,0.1-1.7,0.2c-0.7,0.2-1.6,0.4-2.1,0.9c-1.7,1.6-3.7,2-5.8,1.6c-1.7-0.3-2.8-0.1-3.8,1.5
		c-1.5,2.2-3.4,2.3-5.5,0.4c-1.7-1.4-1.7-1.4-3.3,0c-0.5,0.5-1.1,0.9-1.7,1.3c-1.8,1-2.9,0.8-4.3-0.7c-1.6-1.7-1.6-1.7-3.4-0.4
		c-1.7,1.2-3.4,1.7-5.3,0.3c-0.7-0.5-1.6-0.6-2.5-0.7c-12.9-1.7-24.7-6.5-35.9-12.9c-3.9-2.2-7.1-5.3-9.7-8.8
		c-1.2-1.7-2.2-3.8-2.7-5.8c-1.7-7.2-2.9-14.4-3.4-21.8c-0.9-12.5-2.6-25-4.6-37.3C283.2,148.9,282.4,141.2,281.3,133.2z
		 M352.2,215.9c1.9-0.1,4.6-0.3,7.3-0.6c6.8-0.8,13.3-2.7,19.5-5.5c0.7-0.3,1.5-0.7,2-1.3c0.3-0.3,0.3-1.1,0.1-1.5
		c-0.1-0.3-0.8-0.4-1.2-0.4c-0.4,0-0.7,0.3-1.1,0.4c-1.9,0.8-3.8,1.7-5.7,2.4c-8,2.8-16.2,4.3-24.7,3.7c-4.8-0.4-9.5-1-14.3-1.7
		c-1.9-0.3-3.7-0.9-5.5-1.6c-0.9-0.3-1.5-0.5-2.1,0.3c-0.5,0.7-0.2,1.7,0.8,2.2c0.9,0.4,1.9,0.8,2.9,1
		C337.2,214.8,344.2,215.7,352.2,215.9z"/>
	<path class="st1" d="M268.1,95.4c-4.5,1-8.9,1.4-12.7-1.3c-3.8-2.7-5.2-6.6-4.6-11.2c0.8-6.3,3.3-12,6.8-17.3
		c4.1-6.1,9.3-11.2,14.9-15.8C288.2,37,305.7,27.4,325,21.2c8.5-2.7,17.2-4.4,26.2-4.3c7.7,0.1,15.1,1.6,22.3,4.3
		c18.9,7,36.4,16.4,52.4,28.7c5.1,4,10.1,8.1,14.6,12.8c3.5,3.7,5.9,7.9,7.2,12.8c1.9,7.4-3.3,15.3-8.7,17.5
		c-4.7,1.9-9.4,2.9-14.8,2.7c0.3-3.1,0.6-6,0.9-8.9c0.2-1.7,0.5-3.3,1-4.9c0.8-2.8,0-5.2-1.9-7.3c-6.4-7-13.9-12.3-23-15.1
		c-5.4-1.7-10.9-3-16.4-4.5c-0.8-0.2-1.5-0.4-2.4-0.6c0-2.1-0.1-4.2-2.2-5.4c-1.9-1.1-3.9-0.5-5.8-0.2c-0.8-2.4-1.4-4.7-2.3-6.9
		c-0.7-1.7-1.6-3.3-2.7-4.8c-1.6-2.3-4.1-3.3-6.8-3.6c-0.4,0-0.8,0-1.2,0.1c-1.4,0.4-1.9,1.5-0.8,2.7c1.4,1.6,2.6,3.2,3.1,5.3
		c0.1,0.6,0.2,1.2,0.3,2.4c-6.4-5.7-13-5.4-20.1-1.9c0.7-2.3,2.9-3.8,3-6.3c-1.2-0.7-2.5-0.6-3.7-0.2c-4.3,1.4-7.8,3.9-10,8.1
		c-0.3,0.6-0.6,1.3-0.9,1.9c-3.1-0.3-5.1,0.7-6.3,3.7c-0.7,1.7-1.7,2.2-3.4,2.4c-13,1.8-25.3,6-37,12c-5.8,3-10.7,7.2-15.3,11.9
		c-0.3,0.3-0.6,0.7-0.9,1.1c-1.9,2.3-3.3,4.5-2.6,7.8c0.7,2.9,0.7,6,1.1,9C268,94.1,268,94.6,268.1,95.4z"/>
	<path class="st4" d="M359.8,862c2.1,0.4,4,0.7,5.9,1c1,0.2,2.1,0.4,3.1,0.4c7,0,13.9,0.2,20.9-0.1c6.8-0.3,13.5-1.1,20.3-1.7
		c1.7-0.2,3.3,0.1,5,0.3c4.9,0.5,9.9,0.8,14.8,0.9c5.4,0.1,10.8,0.5,16.2,1.5c10,1.9,16.3,8,20.1,17c1.6,3.8,1.6,8,1.2,12.1
		c-0.1,1.5-1,2.5-2.1,3.4c-2,1.7-4.4,2.7-6.9,3.1c-4.7,0.8-9.5,1.6-14.2,1.8c-19.7,0.8-39.3-0.6-58.6-4.8c-4.5-1-8.9-2.4-13.3-3.8
		c-5.1-1.6-9.2-4.8-12.3-9.1c-2.7-3.7-5.2-7.5-6.7-11.9c-0.6-1.9-0.5-2.1,1.4-2.7c1.1-0.4,2.1-0.6,3.2-0.9c1.4-0.4,2.1-1.3,2.1-2.8
		C359.7,864.5,359.8,863.3,359.8,862z"/>
	<path class="st5" d="M360.3,311.3c3.2,2.9,6.1,5.6,9,8.2c0.8,0.7,1.3,1.5,1.4,2.6c0.7,7,0.9,14,0.9,21.1c0,22.4-0.1,44.8,0.1,67.2
		c0.1,12.1,0.8,24.1,1.1,36.2c0.3,10.5,0.4,21,0.7,31.4c0.1,4,0.7,7.9,1.2,11.9c0.2,1.2,0.1,2.2-0.7,3.1c-0.4,0.4-0.7,0.9-1,1.3
		c-3.1,3.6-6.2,7.2-9.3,10.8c-2.7-3.4-5.5-6.8-8.2-10.4c-1.7-2.3-1.9-5.1-2-7.8c-0.3-12-0.4-24-0.5-36c-0.4-29-0.7-58.1-1.3-87.1
		c-0.2-9.7-1.1-19.5-1.7-29.2c-0.2-3.4-0.3-6.9-0.4-10.3c-0.1-1.2,0.4-2.1,1.2-3c2.8-3.1,5.5-6.2,8.3-9.3
		C359.5,311.7,360,311.5,360.3,311.3z"/>
	<path class="st1" d="M340,93.4c17,0.3,34.2,3.6,51.1,9.3c9.5,3.2,18.8,6.7,27.5,11.7c1.7,1,3.3,2.2,4.8,3.5
		c1.3,1.2,2.1,2.8,2.4,4.6c0.3,2.5-0.4,3.8-2.8,4.5c-3.4,1-6.9,1.2-10.4,0.8c-7.6-0.9-14.9-2.8-22.2-4.7
		c-12.9-3.3-25.9-5.8-39.3-5.6c-9.7,0.1-19.3,1.5-28.6,4.1c-6.8,1.9-13.4,4.1-20.1,6.2c-6.9,2.1-13.8,3.4-21,2.6
		c-3.1-0.3-6.1-1.1-9.1-1.9c-2.1-0.6-3.8-2-5.2-3.7c-1.4-1.7-1.4-3.3,0.1-4.9c1.1-1.2,2.3-2.3,3.6-3.2c5.8-4,11.5-8.1,18.1-10.8
		c6.1-2.6,12.1-5.4,18.3-7.8C317.3,94,328.2,92.8,340,93.4z"/>
	<path class="st4" d="M349.9,870.9c-0.7,5.1-1.5,9.7-3.9,14c-1.2,2.2-3,3.9-5,5.4c-5.3,3.9-11.3,6.2-17.5,8.1
		c-8.6,2.6-17.4,3.9-26.3,4.9c-9.1,1-18.3,1.6-27.5,1.6c-9.7-0.1-19.3-1.2-28.6-4.1c-3.1-0.9-6-2.1-8.5-4.4c0.2-0.7,0.3-1.4,0.6-2
		c2.2-5.2,4.6-10.2,7.8-14.8c6-8.8,14.5-12.9,24.9-13.6c5-0.4,9.9,0.4,14.8,1.1c10.9,1.6,21.8,3.2,32.8,4.5
		c9.5,1.1,19.2,0.8,28.7,0.6C344.4,871.9,347,871.3,349.9,870.9z"/>
	<path class="st5" d="M324.5,66.3c0.3,3.4,2.7,5,5.7,5.8c1.2,0.3,2.5,0.6,3.8,0.7c7.3,0.3,14.7,0.8,22,0.2c4-0.3,8-0.2,12-0.3
		c0.6,0,1.3-0.1,1.9-0.2c1.8-0.3,3.4-1,3.7-2.9c1.8-0.8,3.5-1.3,5-2.2c3.7-2.2,3.9-5,0.6-7.9c0.3-0.4,0.5-0.9,0.8-1.4
		c0.3-0.4,0.6-0.8,1-1.3c3,0.7,5.9,1.3,8.9,2c5.4,1.3,10.8,3,15.9,5.3c6.4,2.9,11.8,7.3,16.6,12.4c1.2,1.3,1.6,2.7,1.2,4.5
		c-0.9,4.9-1.4,9.8-2,14.7c0,0.4-0.1,0.8-0.2,1.1c-0.3,0-0.5,0.1-0.6,0c-6.3-3.9-13.3-6.2-20.3-8.3c-11.7-3.5-23.8-5.7-35.9-7.2
		c-8.8-1.1-17.7-1.9-26.5-1.8c-17.3,0.2-34.1,3.1-49.8,10.5c-5,2.4-9.8,5.4-14.7,8.1c-0.7,0.4-1.3,0.8-2.2,1.3
		c-0.5-4.5-1-8.8-1.5-13.1c-0.1-0.6,0-1.3-0.2-1.9c-0.7-2.4,0.2-4.3,1.8-6.1c5.4-6,11.7-10.9,19.1-14.2c10.4-4.8,21.2-8.5,32.6-10
		c0.5-0.1,1.1-0.1,1.8-0.1c0,0.6,0.1,1,0.1,1.4c-4.1,1-5.3,2-5.4,4.8C319.3,63.2,320.6,64.7,324.5,66.3z"/>
	<path class="st2" d="M349.7,245.9c3.8,2.6,5.1,2.6,9.6-0.4c0.3,0.1,0.6,0.3,0.9,0.5c3,1.7,5.5,1.5,7.8-0.9c0.7-0.8,1.4-1.1,2.5-1
		c2.5,0.2,4.9-0.3,7-2c0.4-0.3,0.8-0.5,1.3-0.6c2.1-0.4,4.2-0.8,6.4-1.2c0.9,4.3,1.7,8.5,2.6,12.9c-10.3,7.3-21.1,14.4-31.1,22.8
		c-1-0.5-2-0.9-3-1.4c-5.5-2.9-11-5.9-16.5-8.8c-3.1-1.6-6.3-3.1-9.4-4.7c-5.2-2.7-10.4-5.6-15.6-8.4c-0.8-0.4-1.4-1-2.2-1.6
		c2-4.7,1.8-9.4,1.1-14.5c1,0.4,1.7,0.8,2.4,1.1c8.4,4,17.1,6.6,26.3,7.9c0.7,0.1,1.5,0.2,2,0.6c2.3,1.7,4.7,1.3,7,0.2
		C349.1,246.2,349.4,246.1,349.7,245.9z"/>
	<path class="st6" d="M272.3,112.2c-0.3-3.1-0.5-5.9-0.7-8.7c-0.1-1.1,0.7-1.5,1.4-2c5.7-3.8,11.7-7.3,18-10
		c11.4-4.9,23.3-7.7,35.7-8.8c14.3-1.2,28.4-0.3,42.6,1.8c10.8,1.6,21.5,3.6,31.8,6.9c5,1.6,10,3.5,14.7,5.7c5.5,2.5,5.5,2.8,5,8.9
		c-0.2,1.9-0.4,3.8-0.7,5.8c-0.7-0.3-1.2-0.4-1.6-0.7c-10-5.5-20.7-9.2-31.5-12.6c-9.4-3-18.9-5.3-28.7-6.4
		c-10.3-1.2-20.7-2.2-31.1-1.3c-8.6,0.7-16.9,2.7-24.8,6c-6,2.5-11.9,5.1-17.7,7.9c-3.1,1.5-5.9,3.4-8.9,5.2
		C274.7,110.7,273.7,111.4,272.3,112.2z"/>
	<path class="st7" d="M399.5,296c-8.4-2.8-16.4-6-24-10.4c-5.1-3-10-6.3-15.8-7.9c-0.1,0-0.2-0.2-0.4-0.5c0.5-0.4,0.9-0.8,1.4-1.2
		c9.3-6.7,18.7-13.5,28-20.2c1.3-0.9,2.5-1.9,3.9-2.8c0.5-0.3,1.4-0.7,1.9-0.5c6.5,1.8,13.1,3.7,19.8,5.6
		C407.6,270.1,402.7,282.6,399.5,296z"/>
	<path class="st7" d="M351.9,276.9c-17,3.2-31.8,11-46.8,19.1c-0.6-2.9-1.3-5.7-1.7-8.5c-1-6.6-1.8-13.3-2.9-19.9
		c-0.8-4.6-1.9-9.1-2.9-13.8c2.1-1.2,4.5-1.8,7-2.4c0.7-0.2,1.6,0.4,2.4,0.9c3.8,2.3,7.6,4.8,11.5,6.9c4.4,2.3,8.9,4.3,13.3,6.6
		c6.5,3.4,13,6.9,19.4,10.4C351.3,276.3,351.5,276.5,351.9,276.9z"/>
	<path class="st6" d="M364.7,36.7c1.8,0.8,2.9,2.1,3.7,3.5c1.7,3.1,2.9,6.4,3.2,10c0,0.3,0,0.6,0.1,1c0.3,1.4,1.2,1.9,2.4,1.1
		c1.1-0.7,2.2-1.3,3.5-1.3c1.7,0.1,2.5,1.2,1.8,2.8c-0.7,1.4-1.6,2.8-2.4,4.1c-0.3,0.5-0.8,1-1.1,1.6c-0.5,1.1-0.2,1.8,0.9,2.2
		c0.2,0.1,0.5,0.1,0.7,0.1c1.6,0.6,1.8,1.8,0.4,2.8c-1.2,0.8-2.5,1.3-3.9,1.8c-0.6,0.2-1.2,0.2-1.9,0.3c-2.5,0.3-2.5,0.4-2,3
		c-2.1,0.2-4.3,0.4-6.4,0.5c-4.2,0.2-8.3,0.3-12.5,0.3c-5.7,0-11.3-0.2-17-0.4c-1.4-0.1-2.9-0.4-4.2-0.9c-1.1-0.4-1.9-1.2-2.9-1.8
		c0.2-0.5,0.2-0.8,0.3-1c0.9-1.7,0.8-2-1-2.5c-0.5-0.2-1.1-0.2-1.6-0.4c-0.7-0.2-1.4-0.5-1.9-0.9c-1-0.7-1.1-1.7-0.8-2.8
		c0.3-1.1,1.2-1.6,2.2-1.5c1.2,0.1,2.3,0.4,3.5,0.7c0.8,0.2,1.6,0.4,2.1-0.5c0.4-0.8-0.2-1.3-0.7-1.8c-2.7-2.7-2.2-6.5,1.6-8.7
		c0.3,0.9,0.5,1.8,1,2.6c0.3,0.5,1,1.1,1.5,1.2c0.8,0,1.1-0.7,1.1-1.6c-0.2-4.5,2-7.7,5.6-10.2c0.4-0.3,0.8-0.5,1.2-0.8
		c0.3-0.2,0.6-0.3,1.4-0.7c-0.6,1.2-0.9,1.9-1.3,2.6c-2.7,5-3.2,10.1-1.1,15.5c1.9,4.8,5.6,7.8,11,7.6c0.5,0,1-0.1,1.4,0.1
		c4,1.1,7.2-0.6,9.9-3.3c2.9-2.9,4.5-6.4,4.1-10.6c-0.2-2.7,0-5.4-0.4-8.1C366.1,40.4,365.3,38.7,364.7,36.7z"/>
	<path class="st4" d="M269,549.2c-0.1-1-0.2-1.9-0.2-2.8c-0.1-2.1-0.2-4.3-0.3-6.7c1.8,0.4,3.3,0.7,4.9,1c11.2,2,22.6,2.5,33.9,2.3
		c10.3-0.2,20.6-0.8,30.9-1.1c0.5,0,0.9,0,1.5,0.1c0.2,3.4,0.4,6.7,0.6,10.2c-0.8,0.1-1.5,0.2-2.2,0.2c-13-0.3-26.1-0.6-39.1-0.9
		c-9.5-0.2-19-0.9-28.5-2C270.1,549.4,269.7,549.3,269,549.2z"/>
	<path class="st4" d="M383.3,550.3c0-4.2,0-8.4,0-12.9c15.7-2.6,31.6-4.1,47.9-4.4c-0.2,3.9-0.4,7.4-0.6,10.9
		C427.6,545.3,387.8,550.7,383.3,550.3z"/>
	<path class="st2" d="M285.8,188c-3.2-0.2-5.5-1.4-7.4-3.3c-1.2-1.2-2.3-2.5-3.2-3.9c-4.9-7-7.6-14.7-8.5-23.1
		c-0.4-3.7,0.5-7.2,2.8-10.2c2.3-3.1,5.6-3.8,9.2-3.3c1,0.1,1.5,0.6,1.6,1.7c1.7,12.4,3.5,24.7,5.2,37
		C285.7,184.5,285.7,186.1,285.8,188z"/>
	<path class="st5" d="M356.5,279.5c0.3,0,0.7,0,1.1,0.2c4.9,2.4,9.7,4.9,12.5,10c0.4,0.7,0.8,1.4,1.2,2.1c1.7,3,1.8,3.9-0.6,6.3
		c-3.6,3.7-7.4,7.2-11.3,11c-2.3-1.4-4.5-2.6-6.5-4c-3.4-2.3-6.2-5.3-8.9-8.3c-0.9-1-1.2-2-0.3-3.2c0.8-1,1.4-2.1,2.3-3.1
		C349.4,286.8,352.9,283.2,356.5,279.5z"/>
	<path class="st5" d="M264.1,264.4c7.4-1.5,14.5-3.1,21.8-4.6c0,7.5,0,14.8,0,22.3c-5.5,1.9-11,3.9-16.7,5.9
		C267.4,280.2,265.8,272.5,264.1,264.4z"/>
	<path class="st8" d="M380.6,537.8c0,4.4,0,8.6,0,12.7c-3.5,1.2-32.1,2.5-37.7,1.7c-0.2-3.3-0.4-6.7-0.6-10.4
		C355.2,540.8,367.9,540.1,380.6,537.8z"/>
	<path class="st5" d="M421.2,264.7c5.7,1,11.4,2,17.4,3c-2.8,6.7-5.5,13.1-8.3,19.7c-5.9-1.6-11.8-3.2-17.8-4.8
		C415.4,276.5,418.3,270.8,421.2,264.7z"/>
	<path class="st2" d="M414.6,184.5c-0.1-0.5-0.1-0.8-0.1-1.1c0-11.2,0-22.4,0-33.6c0-1.4,0.4-2.4,1.5-3.3c2.7-2.4,5.2-2.2,7.2,0.9
		c2.4,3.8,3.5,8,3,12.4c-0.7,7.1-2.7,13.8-6,20.1c-0.5,1.1-1.2,2.1-2,3C417.2,183.8,416.3,184.7,414.6,184.5z"/>
	<path class="st6" d="M353.2,61.8c-2.5,0.1-4.7-0.7-6.8-1.9c-0.3-0.2-0.7-0.4-1-0.7c-2.5-3-3.9-6.3-2.9-10.2c1-3.8,3.8-6,7.8-6.5
		c1.7-0.2,3.5-0.3,5.2-0.1c5.9,0.6,11.3,8,6.9,14.4C360.1,60.3,357.7,61.8,353.2,61.8z"/>
	<path class="st5" d="M259.1,265.7c1.3,8.4,2.5,16.5,3.8,24.8c-1.4,0.5-2.8,1-4.6,1.6c-1.4-8.4-2.8-16.7-4.2-25.2
		C255.7,266.5,257.3,266.1,259.1,265.7z"/>
	<path class="st5" d="M243.8,269.2c1.8-0.4,3.4-0.8,5.2-1.2c1.2,8.7,2.4,17.2,3.6,25.9c-1.2,0.4-2.5,0.7-4,1.2
		C246.9,286.4,245.4,277.9,243.8,269.2z"/>
	<path class="st5" d="M242.8,296.6c-1.2,0.4-2.3,0.7-3.7,1.1c-0.3-0.9-0.7-1.6-1-2.5c-1.9-6.5-3.1-13.2-3.3-20
		c-0.1-2.7,0.4-3.2,4-4.6C240.2,279.2,241.5,287.8,242.8,296.6z"/>
	<path class="st5" d="M439.7,289.5c-1.6-0.4-3.1-0.7-4.9-1.1c2.7-6.6,5.4-13,8.1-19.6c1.8,0.3,3.5,0.6,5.3,1
		C445.4,276.3,442.6,282.7,439.7,289.5z"/>
	<path class="st5" d="M452.7,270.6c1.9,0.5,3.6,0.9,5.4,1.3c-3.4,6.7-6.6,13.1-9.9,19.6c-1.2-0.3-2.5-0.6-3.9-0.9
		C447.2,283.9,449.9,277.4,452.7,270.6z"/>
	<path class="st6" d="M267.2,288.9c-0.9,0.3-1.7,0.6-2.7,1c-1.5-8.2-2.9-16.2-4.4-24.4c1.1-0.3,2-0.5,3.2-0.8
		C264.5,272.8,265.8,280.7,267.2,288.9z"/>
	<path class="st5" d="M456,293.7c-0.8-0.3-1.4-0.6-2-0.8c2.7-6.6,5.4-13,8.2-19.6c0.9,0.4,1.7,0.7,2.7,1.1
		C461.8,280.8,459,287.1,456,293.7z"/>
	<path class="st6" d="M240.6,269.9c0.9-0.2,1.7-0.3,2.6-0.5c0.3,2.6,0.7,5.1,1,7.5c0.8,5.6,1.6,11.2,2.4,16.8c0.1,0.9,0.5,2-1.3,2
		C243.8,287.3,242.2,278.8,240.6,269.9z"/>
	<path class="st6" d="M250.6,267.7c0.9-0.2,1.6-0.3,2.5-0.5c0.3,2.1,0.5,4.1,0.8,6c0.8,5.9,1.6,11.8,2.3,17.8c0.1,0.9,0.6,2-1.1,2.1
		C253.6,284.6,252.1,276.3,250.6,267.7z"/>
	<path class="st6" d="M432.1,287.5c2.4-6.4,4.8-12.8,7.3-19.4c1,0.2,1.9,0.3,2.9,0.5c-0.2,0.6-0.3,0.9-0.5,1.3
		c-2.5,5.6-5,11.2-7.5,16.8C433.9,287.7,433.4,288.4,432.1,287.5z"/>
	<path class="st6" d="M459,272.3c0.7,0.2,1.2,0.4,1.9,0.6c-0.3,0.7-0.6,1.3-0.8,1.9c-2.6,5.3-5.1,10.7-7.7,16
		c-0.4,0.8-0.6,2-2.1,1.1C453.2,285.4,456.1,278.9,459,272.3z"/>
	<path class="st6" d="M449.2,269.9c0.9,0.2,1.5,0.3,2.4,0.5c-3.1,6.7-6.1,13.2-9.2,19.8c-0.3-0.3-0.6-0.4-0.6-0.5
		C444.2,283.2,446.6,276.7,449.2,269.9z"/>
	<path d="M292.6,352.3c4.7-0.1,11.6-0.3,18.4-0.5c0.6,0,1.3,0,1.9,0c2.6,0.2,2.8,0.7,2.8,3.2c0,8.3-0.2,16.6,0.2,24.9
		c0.3,5-1.1,8.8-4.8,12.1c-3.8,3.4-7.7,6.8-12.2,9.2c-2.4,1.2-5.1,1.9-7.6,2.7c-0.6,0.2-1.3,0-1.9-0.2c-3.5-0.9-6.9-1.9-10.4-2.9
		c-3.2-0.9-6.2-2.2-8.9-4.1c-2-1.4-3.4-3.1-3.7-5.6c-0.8-6.9-1.8-13.8-2.5-20.7c-0.4-4-0.6-8.1-0.7-12.2c-0.1-3.5,0.9-4.5,4.5-4.7
		C275.4,353.2,282.9,352.8,292.6,352.3z M266.4,366.9c0.2,1.9,0.2,3.7,0.5,5.5c0.8,6.2,1.6,12.3,2.3,18.5c0.2,1.7,1.1,2.8,2.4,3.7
		c2.3,1.7,4.8,2.8,7.5,3.6c3.9,1.1,7.8,2.2,11.7,3.3c0.6,0.2,1.4,0.1,2-0.1c7.3-2.9,13.2-7.6,18.5-13.3c1.5-1.5,2.2-3.2,2.1-5.4
		c-0.2-6.1-0.4-12.1-0.5-18.2c0-0.3-0.2-0.5-0.3-0.8c-5.8,4-11.6,7.6-17.8,10.6c-2.5,1.2-4.6,2-7,0.1c-0.5-0.4-1.2-0.5-1.8-0.7
		C279.5,371.5,273.1,369.2,266.4,366.9z M265.4,356.1c0.2,1.5,0.5,3,0.4,4.4c-0.1,2.1,1,3.3,2.7,4.1c2.3,1,4.5,2,6.9,2.8
		c4.9,1.8,9.8,3.4,14.7,5.2c0.9,0.3,1.7,0.2,2.5-0.2c6-2.6,11.5-6,16.8-9.6c2.9-1.9,4.4-4.5,3.8-8.4
		C297.3,354.3,281.5,355.8,265.4,356.1z"/>
	<path d="M309.4,342.5c-0.2,3.1-2,4.6-4.9,5c-3.6,0.5-7.3,0.9-10.9,1.2c-6.3,0.6-12.6,0.2-18.9-0.4c-1.8-0.2-3.6-0.8-5.3-1.3
		c-1.7-0.5-3-1.5-3.3-3.2c-1.8-0.6-3.5-1-5.1-1.7c-1.3-0.5-2.6-1.2-3.2-2.7c-0.2-0.4-0.8-0.7-1.2-1c-0.5-0.3-1-0.4-1.5-0.7
		c-1-0.6-1.7-1.4-1.6-2.7c0.2-1.3,1.1-1.9,2.3-2.1c2-0.3,4.1-0.8,6.2-0.9c7.7-0.2,15.3-0.2,23-0.4c9.3-0.2,18.7-0.6,28-0.9
		c2.7-0.1,5.4,0,8.2-0.1c0.2,0,0.3,0,0.5,0c2,0.2,2.9,0.8,3.1,2c0.3,1.4-0.5,3.1-2,3.8c-1.2,0.6-2.6,0.8-3.9,1.1
		c-0.5,0.1-1.1,0.2-1.6,0.2C315.8,340.3,315.8,340.3,309.4,342.5z M283.9,334.3c-9.2,0-18.4-0.2-27.7,0.8c0.7,0.5,1.4,1,2.2,1.1
		c1.6,0.3,3.2,0.5,4.8,0.5c4.5,0,8.9-0.2,13.4-0.3c2.1,0,3.1,0.5,2.8,1.4c-0.4,1.4-1.7,1.3-2.8,1.3c-4.4,0.1-8.8,0.2-13.2,0.3
		c-0.4,0-0.8,0.1-1.5,0.3c4,1.6,9.3,2.3,13.3,1.7c1.2-0.2,2.4-0.3,3.6-0.3c0.9,0,1.8,0,2.1,1.5c-0.7,0.3-1.4,0.9-2.2,1
		c-2.2,0.3-4.5,0.4-6.7,0.6c-0.6,0-1.1,0.1-1.7,0.1c3.1,1.7,6.4,2,9.8,1.8c0.8-0.1,1.6-0.1,2.3,0c3.7,0.1,7.5,1.1,11.2,0.2
		c0.5-0.1,1.1,0,1.7-0.1c3-0.4,6-0.7,9-1.1c0.9-0.1,1.9-0.4,2.1-1.6c-2.3-0.3-5,1.2-6.7-2c2.2-1.2,4.4-0.2,6.5-0.8
		c2.1-0.6,4.3-0.9,6.2-2.1c-1.1-0.1-2.2-0.1-3.3,0c-2.7,0.1-5.4,0.2-8.1,0.3c-0.6,0-1.3-0.1-1.9-0.3c-0.4-0.1-0.8-0.7-0.8-1
		c0-0.3,0.4-0.9,0.8-1c0.7-0.2,1.4-0.3,2.1-0.3c2.6-0.1,5.1,0,7.7-0.2c3.6-0.2,7.2-0.6,10.7-1c0.8-0.1,1.7-0.2,2.1-1.4
		c-9.4-0.4-18.7,0.6-27.8,0.9c-0.2,1.5-0.2,2.6-0.5,3.7c-0.5,2.3-1.7,3.4-3.6,3.6c-2.1,0.2-3.8-0.7-4.7-2.9
		C284.6,337.4,284.4,336,283.9,334.3z M286.5,334.4c0.5,1.4,0.7,2.6,1.3,3.6c0.3,0.5,1.2,1,1.7,1c0.5-0.1,1.1-0.8,1.4-1.4
		c0.5-1,0.5-2.1-0.3-3.2C289.4,334.4,288.2,334.4,286.5,334.4z"/>
	<path d="M423.5,503.4c-3.3,1.1-6.6,2.3-10,3.2c-11.4,3.1-23,4.7-34.7,5.4c-4.1,0.2-8.3,0.5-12.4,0.7c-1.8,0.1-3.6,0-5.5,0
		c20.9-2.5,41.7-5.5,62.3-9.9C423.3,503,423.4,503.2,423.5,503.4z"/>
	<path d="M459.4,336.5c-7.3,12.5-14.5,24.9-22.1,37.8c-0.3-1.9,0.3-3.1,0.9-4.2c1.4-2.9,2.8-6,4.5-8.7c5.2-8.3,10.5-16.4,15.8-24.6
		c0.1-0.2,0.3-0.4,0.5-0.5C459.1,336.3,459.3,336.4,459.4,336.5z"/>
	<path d="M358,513.2c-1,0-1.9,0-2.9,0c0,0,0-0.1,0-0.1c1,0,1.9,0,2.9,0C358,513.1,358,513.2,358,513.2z"/>
	<path d="M371,528c0.5,0,1,0,1.6,0c0,0,0,0.1,0,0.1c-0.5,0-1,0-1.6,0C371,528.1,371,528,371,528z"/>
	<path d="M379,527c0.4,0,0.9,0,1.3,0c0,0,0,0.1,0,0.1c-0.4,0-0.9,0-1.3,0C379,527.1,379,527.1,379,527z"/>
	<path d="M375.1,527.5c0.5,0,0.9,0,1.4,0c0,0.1,0,0.1,0,0.2c-0.4,0-0.9,0.1-1.3,0.1C375.2,527.7,375.1,527.6,375.1,527.5z"/>
	<path d="M368.4,528.6c-0.4,0-0.9,0-1.3,0c0,0,0-0.1,0-0.1c0.4,0,0.9,0,1.3,0C368.4,528.5,368.4,528.6,368.4,528.6z"/>
	<path d="M363.3,528.9c0.4,0,0.7,0,1.1,0c0,0,0,0.1,0,0.1c-0.4,0-0.7,0.1-1.1,0.1C363.3,529.1,363.3,529,363.3,528.9z"/>
	<path d="M350.4,513.6c0.3,0,0.7,0,1,0c0,0,0,0,0,0.1C351,513.7,350.7,513.7,350.4,513.6C350.4,513.7,350.4,513.6,350.4,513.6z"/>
	<path d="M356.7,530.1c-0.4,0-0.8,0-1.2,0c0,0,0-0.1,0-0.1c0.4,0,0.8,0,1.2,0C356.8,530,356.8,530,356.7,530.1z"/>
	<path d="M352.8,530.5c-0.4,0-0.7,0-1.1,0c0,0,0-0.1,0-0.1c0.4,0,0.8,0,1.1,0C352.9,530.4,352.9,530.5,352.8,530.5z"/>
	<path d="M408.7,523.2c0.4,0,0.9,0,1.3,0c0,0.1,0,0.1,0,0.2c-0.4,0-0.9,0-1.3,0.1C408.7,523.3,408.7,523.2,408.7,523.2z"/>
	<path d="M359.4,529.4c0.4,0,0.9,0,1.3,0c0,0,0,0.1,0,0.1c-0.4,0-0.9,0-1.3,0C359.4,529.5,359.4,529.5,359.4,529.4z"/>
	<path d="M402.9,524.3c-0.5,0-1,0-1.5,0c0-0.1,0-0.1,0-0.2c0.5,0,1,0,1.5,0C402.9,524.2,402.9,524.2,402.9,524.3z"/>
	<path d="M397.7,524.6c0.4,0,0.9,0,1.3,0c0,0.1,0,0.1,0,0.2c-0.4,0-0.9,0-1.3,0.1C397.7,524.8,397.7,524.7,397.7,524.6z"/>
	<path d="M395.2,525.2c-0.4,0-0.9,0-1.3,0c0,0,0-0.1,0-0.1c0.4,0,0.9-0.1,1.3-0.1C395.2,525.1,395.2,525.2,395.2,525.2z"/>
	<path d="M390.2,525.6c0.4,0,0.9,0,1.3,0c0,0,0,0.1,0,0.1c-0.4,0-0.9,0.1-1.3,0.1C390.2,525.7,390.2,525.7,390.2,525.6z"/>
	<path d="M387.9,526.2c-0.5,0-0.9,0-1.4,0c0-0.1,0-0.1,0-0.2c0.4,0,0.9,0,1.3,0C387.9,526.1,387.9,526.2,387.9,526.2z"/>
	<path d="M382.8,526.5c0.5,0,0.9,0,1.4,0c0,0.1,0,0.1,0,0.2c-0.4,0-0.9,0-1.3,0.1C382.8,526.7,382.8,526.6,382.8,526.5z"/>
	<path d="M292.5,830.1c0.5,0.3,1.1,0.7,1.6,1c15.8,9.2,32.2,17.3,49,24.6c2.2,1,4.4,1.9,6.6,2.9c0.7,0.3,1.4,0.6,1.9,1.1
		c0.4,0.4,0.8,1.1,0.7,1.6c-0.1,0.5-0.8,0.9-1.3,1.1c-0.7,0.2-1.4,0.2-2.1,0.1c-8.1-0.5-16.3-0.9-24.4-1.4c-7.2-0.5-14.3-1.4-21.3-3
		c-6.7-1.5-13.3-3.3-19.8-5.7c-1.8-0.7-3.6-1.6-5.3-2.6c21.9,6.6,44.3,9.3,67.2,10.1c-0.5-1.1-1.4-1.1-2.2-1.4
		c-13.1-5.8-26.1-11.6-38.6-18.7c-8.2-4.6-16.2-9.6-24.3-14.4c-1-0.6-1.9-1.3-2.6-2c-0.3-0.4-0.5-1.3-0.3-1.7
		c0.2-0.4,1.1-0.6,1.6-0.5c0.8,0.2,1.6,0.6,2.4,1c12.6,6.1,25.2,12,38.3,17c1.2,0.5,2.4,0.9,3.5,1.5c-2.6-0.4-5.1-1.2-7.5-2.1
		c-2.6-0.9-5.1-1.9-7.6-2.8c-2.5-1-5-2-7.6-3c-2.5-1-5-2-7.5-3C292.7,829.8,292.6,829.9,292.5,830.1z"/>
	<path d="M284.6,762.5c13.3,30.5,30.6,58.3,54.2,82.3c-1.8,0.5-2.3-0.7-3.1-1.4c-2.6-2.5-5.4-4.7-8-7.3
		c-8.1-8.2-14.8-17.6-21.1-27.3c-9-13.7-16.1-28.3-21.3-43.9C285,764.1,284.8,763.3,284.6,762.5z"/>
	<path d="M393.2,823.1c-0.5,0.4-0.9,0.9-1.4,1.3c-7.7,5.8-15.2,12-23.8,16.6c-0.2,0.1-0.4,0.2-0.6,0.3c0.1,0.2,0.1,0.3,0.2,0.5
		c18.1,1,36.3,2.1,54.4,3.1c0,0.2,0,0.3,0,0.5c-2.6,0.7-5.3,1.1-8,1.1c-6.1-0.1-12.1-0.2-18.2-0.5c-10.7-0.5-21.4-1.2-32.1-1.8
		c-0.7,0-1.5-0.1-2.1-0.3c-0.5-0.2-1.1-0.7-1.1-1c0.1-0.5,0.6-1.1,1-1.3c1.7-0.8,3.6-1.3,5.2-2.3c5.2-3,10.3-6.2,15.3-9.3
		c3-1.9,6-4,9-5.9c0.6-0.4,1.2-0.7,1.9-1C393.1,823,393.2,823.1,393.2,823.1z"/>
	<path d="M293.1,554.6c-0.2,0.8-0.3,1.7-0.7,2.4c-3.6,7.7-7.2,15.5-10.8,23.2c-1.9,4.2-3.8,8.4-5.7,12.6c-0.2,0.5-0.5,1-0.8,1.4
		c-0.3,0.3-0.9,0.6-1.2,0.5c-0.3-0.1-0.8-0.8-0.7-1.1c0.3-1.3,0.6-2.6,1.2-3.9c1.9-4.2,3.7-8.5,5.9-12.6c3.6-6.9,7.5-13.7,11.3-20.5
		C292,555.9,292.7,555.3,293.1,554.6C293.2,554.6,293.1,554.6,293.1,554.6z"/>
	<path d="M410.1,553.4c3.8,4.8,7.5,9.5,11.3,14.3c2.2,2.8,4.3,5.6,6.3,8.5c0.7,1,1.2,2.2,1.8,3.4c0.2,0.5,0.4,1.1,0.3,1.6
		c-0.1,0.5-0.6,1.1-1,1.3c-0.3,0.1-1.2-0.4-1.3-0.7c-1.5-4.9-5.3-8.3-8-12.4c-2.9-4.5-5.8-9-8.6-13.5c-0.3-0.5-0.5-1.1-0.8-1.7
		C410,553.9,410.1,553.6,410.1,553.4z"/>
	<path d="M393,822.9c0.5-0.4,1-0.9,1.6-1.3c0.1,0.1,0.2,0.2,0.3,0.4c-0.5,0.4-1.1,0.8-1.6,1.1C393.2,823.1,393.1,823,393,822.9z"/>
	<path d="M371.3,163.2c0.5,0.9,0.9,1.7,1.4,2.6c1.7,3,3.4,6,4.9,9c0.8,1.5,1.2,3.1,1.8,4.7c0.3,0.9,0.4,1.9-0.5,2.6
		c-1.2,0.2-1.6-0.7-1.8-1.5c-1.4-5-4.3-9.3-6.7-13.7c-0.9-1.6-1.7-3.3-2.4-4.9c-0.7-1.5-0.6-3,0.6-4.3c5.4-5.9,11.4-10.5,19.9-10.5
		c6.1,0,9.7,2.7,11.7,8.4c0.6,1.7-0.1,3-1.1,4.2c-2.9,3.3-6.6,5.4-10.8,6.1c-5.3,0.9-10.3,0.1-15.1-2.2c-0.5-0.2-1-0.5-1.4-0.7
		C371.5,163.1,371.4,163.1,371.3,163.2z M380.4,153.7c0.3,1,0.5,2,1,2.8c2.9,4.3,9.3,4.2,12.2-0.2c1.7-2.6,0.4-5.8-2.7-6.3
		c-2.7-0.5-5.4-0.4-8,0.5C380.8,151.3,380.6,151.6,380.4,153.7z M397,155.6c-2.3,4.5-5.8,7.4-10.8,6.7c-4.8-0.7-8-3.7-8.6-9.3
		c-2.6,2.1-4.8,4-7.2,5.9c6,4.5,12.3,5.7,19,4c2.8-0.7,5.3-2.3,7.3-4.4C397.5,157.6,397.9,156.8,397,155.6z"/>
	<path d="M333,166.6c-0.7,0.2-1,0.3-1.4,0.5c-4.8,2.5-9.7,2.9-14.9,1.7c-4.4-1-8.6-2.6-12.3-5.2c-1.1-0.8-2-1.8-3-2.7
		c-0.6-0.6-0.7-1.3-0.1-1.9c5.2-4.9,10.6-9.3,18.3-9.4c2.6,0,5.1,0.6,7.2,2.2c3,2.3,5.8,4.8,8.6,7.2c1.6,1.3,1.8,3,1.2,5
		c-2,5.7-4,11.5-6,17.2c-0.1,0.2-0.2,0.5-0.2,0.7c-0.3,0.9-0.8,1.7-1.9,1.3c-1.1-0.4-0.8-1.4-0.5-2.3c1.4-4.1,2.9-8.1,4.3-12.2
		C332.6,168.1,332.8,167.5,333,166.6z M303.9,160.1c0.5,0.3,0.8,0.4,1,0.6c4.7,3.5,10.1,5.5,15.9,6.1c4.8,0.4,9.1-1.2,12.9-4.1
		c0.4-0.3,1.1-0.7,0.3-1.6c-3.2,3.9-7.1,4.9-11.5,2.7c-4.6-2.2-7-5.9-5.7-11.5C311.6,153.7,307.8,156.6,303.9,160.1z M320.1,152.1
		c-2,3.8-0.9,7.2,3.1,9.2c3.6,1.9,7,1,8.6-2.4C328.2,156.2,325.3,152.4,320.1,152.1z"/>
	<path d="M386.8,133.8c4,0.5,8,0.9,11.9,1.4c1.1,0.1,2.2,0.6,3.2,1.1c2.7,1.4,3.6,4.8,1.9,7.4c-0.6,1-1.4,0.9-2.3,0.6
		c-5.2-1.3-10.6-1.7-16-1.6c-4.4,0.1-8.8,0.4-13.2,0.7c-1.2,0.1-2.3,0.5-3.5,0.8c-1.7,0.4-3.4,0.9-5.1,1.2c-2.1,0.4-3.2-0.9-2.7-3
		c0.6-2,1.6-3.7,3.7-4.5c3.1-1.1,6.2-2.2,9.4-2.8C378.3,134.5,382.6,134.3,386.8,133.8z M401.7,141.5c0.2-2.4,0.1-2.6-1.6-3.2
		c-0.9-0.3-1.8-0.6-2.8-0.8c-6.8-1.2-13.5-1.3-20.3-0.2c-3.5,0.6-7,1.7-10.4,2.7c-1.2,0.4-2.4,1-2.6,2.7c6.3-1,12.4-2.7,18.7-2.8
		C389,140,395.3,140.4,401.7,141.5z"/>
	<path d="M309.3,130c1.8-1.5,4-2,6.3-2.4c3.7-0.6,7.3-0.5,11,0.2c3.3,0.6,6.5,1.4,9.8,2.2c3.1,0.7,6.2,1.6,9.3,2.3
		c6.1,1.4,11.9,0.2,17.7-1.6c4.5-1.4,9-2.8,13.7-3.3c4.6-0.5,9.3-0.3,13.8,0.5c1,0.2,2.4,0.3,2.1,1.7c-0.2,1.5-1.6,1-2.6,0.8
		c-8.1-1.4-16-0.5-23.9,2c-3.9,1.3-8,2.3-12.1,2.9c-5.7,0.9-11.3-0.5-16.8-2.1c-4-1.2-7.9-2.6-12.1-2.8c-3.3-0.2-6.7-0.2-10-0.1
		c-2.1,0-4.1,0.3-6.2,0.4C309.4,130.3,309.3,130.2,309.3,130z"/>
	<path d="M335.5,145.5c-6.1-0.3-12.3-0.7-18.4-0.7c-5.5,0-11,0.6-16.2,2.7c-0.9,0.4-1.9,0.5-2.6-0.5c-0.6-0.9-0.2-1.7,0.5-2.4
		c1-1.1,2.1-2.2,3.3-3.1c4.6-3.4,9.9-5.2,15.6-5.2c6.3,0,12.4,0.8,18.3,3.2c1.2,0.5,2.5,1.2,3.4,2.1c1.6,1.5,1.2,3.1-0.9,3.8
		c-1,0.3-2,0.3-3,0.5C335.5,145.8,335.5,145.7,335.5,145.5z M337.3,143.6c-0.9-1.2-0.9-1.2-2.1-1.7c-3.9-1.7-8.1-2.4-12.3-2.8
		c-5.8-0.6-11.5-0.2-16.7,2.9c-0.7,0.4-1.4,0.9-2.1,1.3C315.2,141.4,326.3,142,337.3,143.6z"/>
	<path d="M352.2,215.9c-8-0.3-15-1.1-22-2.6c-1-0.2-2-0.5-2.9-1c-1-0.5-1.3-1.5-0.8-2.2c0.6-0.8,1.2-0.6,2.1-0.3
		c1.8,0.6,3.6,1.3,5.5,1.6c4.7,0.7,9.5,1.3,14.3,1.7c8.5,0.6,16.7-0.9,24.7-3.7c1.9-0.7,3.8-1.6,5.7-2.4c0.4-0.2,0.7-0.4,1.1-0.4
		c0.4,0,1.1,0.2,1.2,0.4c0.2,0.4,0.2,1.2-0.1,1.5c-0.5,0.6-1.3,1-2,1.3c-6.2,2.8-12.7,4.7-19.5,5.5
		C356.8,215.6,354,215.8,352.2,215.9z"/>
	<path class="st9" d="M266.4,366.9c6.7,2.3,13.1,4.6,19.6,6.9c0.6,0.2,1.3,0.3,1.8,0.7c2.4,1.8,4.6,1,7-0.1c6.2-3,12-6.6,17.8-10.6
		c0.1,0.3,0.3,0.5,0.3,0.8c0.2,6.1,0.3,12.1,0.5,18.2c0.1,2.2-0.6,3.8-2.1,5.4c-5.3,5.6-11.3,10.4-18.5,13.3c-0.6,0.2-1.4,0.3-2,0.1
		c-3.9-1-7.8-2.2-11.7-3.3c-2.7-0.8-5.2-1.9-7.5-3.6c-1.3-0.9-2.2-2-2.4-3.7c-0.7-6.2-1.6-12.3-2.3-18.5
		C266.6,370.6,266.5,368.7,266.4,366.9z"/>
	<path class="st7" d="M265.4,356.1c16-0.3,31.9-1.8,47.7-1.7c0.6,3.9-0.9,6.5-3.8,8.4c-5.4,3.6-10.9,7-16.8,9.6
		c-0.8,0.4-1.6,0.5-2.5,0.2c-4.9-1.8-9.8-3.4-14.7-5.2c-2.3-0.8-4.6-1.8-6.9-2.8c-1.7-0.8-2.8-2-2.7-4.1
		C265.9,359.1,265.6,357.7,265.4,356.1z"/>
	<path class="st6" d="M283.9,334.3c0.5,1.7,0.7,3.1,1.3,4.4c0.9,2.2,2.6,3.1,4.7,2.9c1.9-0.2,3-1.3,3.6-3.6c0.3-1.1,0.3-2.2,0.5-3.7
		c9.1-0.4,18.3-1.3,27.8-0.9c-0.3,1.2-1.2,1.3-2.1,1.4c-3.6,0.4-7.2,0.7-10.7,1c-2.5,0.2-5.1,0.1-7.7,0.2c-0.7,0-1.4,0.1-2.1,0.3
		c-0.4,0.1-0.8,0.7-0.8,1c0,0.4,0.4,0.9,0.8,1c0.6,0.2,1.2,0.3,1.9,0.3c2.7-0.1,5.4-0.2,8.1-0.3c1.1,0,2.2-0.1,3.3,0
		c-1.9,1.2-4.2,1.5-6.2,2.1c-2,0.6-4.3-0.3-6.5,0.8c1.7,3.2,4.4,1.7,6.7,2c-0.2,1.2-1.1,1.5-2.1,1.6c-3,0.4-6,0.8-9,1.1
		c-0.6,0.1-1.1-0.1-1.7,0.1c-3.8,0.8-7.5-0.1-11.2-0.2c-0.8,0-1.6,0-2.3,0c-3.4,0.2-6.6-0.1-9.8-1.8c0.6,0,1.1,0,1.7-0.1
		c2.2-0.2,4.5-0.3,6.7-0.6c0.8-0.1,1.5-0.6,2.2-1c-0.3-1.5-1.2-1.5-2.1-1.5c-1.2,0-2.4,0.2-3.6,0.3c-4,0.6-9.3-0.1-13.3-1.7
		c0.7-0.1,1.1-0.3,1.5-0.3c4.4-0.1,8.8-0.2,13.2-0.3c1.1,0,2.4,0.2,2.8-1.3c0.2-0.9-0.8-1.4-2.8-1.4c-4.5,0.1-8.9,0.3-13.4,0.3
		c-1.6,0-3.2-0.2-4.8-0.5c-0.8-0.1-1.5-0.6-2.2-1.1C265.5,334.1,274.7,334.3,283.9,334.3z"/>
	<path class="st6" d="M286.5,334.4c1.6,0,2.9,0,4.1,0c0.8,1.1,0.8,2.2,0.3,3.2c-0.3,0.6-0.9,1.3-1.4,1.4c-0.5,0.1-1.4-0.4-1.7-1
		C287.2,337,287,335.8,286.5,334.4z"/>
	<path class="st10" d="M380.4,153.7c0.3-2.2,0.5-2.4,2.5-3.1c2.6-0.9,5.3-1,8-0.5c3.1,0.5,4.4,3.7,2.7,6.3
		c-2.8,4.3-9.3,4.5-12.2,0.2C380.8,155.8,380.7,154.7,380.4,153.7z"/>
	<path class="st7" d="M397,155.6c0.8,1.2,0.5,2-0.3,2.9c-2,2.2-4.5,3.7-7.3,4.4c-6.8,1.7-13.1,0.5-19-4c2.4-2,4.7-3.8,7.2-5.9
		c0.6,5.6,3.8,8.7,8.6,9.3C391.2,163,394.7,160.1,397,155.6z"/>
	<path class="st7" d="M303.9,160.1c4-3.5,7.7-6.4,12.9-7.8c-1.3,5.6,1.1,9.3,5.7,11.5c4.4,2.1,8.4,1.2,11.5-2.7
		c0.8,0.8,0.2,1.2-0.3,1.6c-3.8,2.9-8.1,4.5-12.9,4.1c-5.8-0.5-11.2-2.5-15.9-6.1C304.7,160.5,304.4,160.4,303.9,160.1z"/>
	<path class="st10" d="M320.1,152.1c5.2,0.3,8.1,4.2,11.7,6.8c-1.6,3.4-5.1,4.3-8.6,2.4C319.2,159.3,318,155.9,320.1,152.1z"/>
	<path class="st3" d="M401.7,141.5c-6.4-1.2-12.7-1.6-19-1.5c-6.3,0-12.4,1.7-18.7,2.8c0.2-1.8,1.5-2.4,2.6-2.7
		c3.4-1,6.9-2.1,10.4-2.7c6.7-1.1,13.5-1,20.3,0.2c0.9,0.2,1.9,0.4,2.8,0.8C401.8,138.9,401.8,139.1,401.7,141.5z"/>
	<path class="st3" d="M337.3,143.6c-11-1.7-22.1-2.2-33.2-0.3c0.7-0.4,1.4-0.9,2.1-1.3c5.2-3.1,10.9-3.5,16.7-2.9
		c4.2,0.4,8.4,1.1,12.3,2.8C336.4,142.5,336.4,142.5,337.3,143.6z"/>
</g>
</svg>
