<?xml version="1.0" encoding="utf-8"?>
<!-- Generator: Adobe Illustrator 22.1.0, SVG Export Plug-In . SVG Version: 6.00 Build 0)  -->
<svg version="1.1" xmlns="http://www.w3.org/2000/svg" xmlns:xlink="http://www.w3.org/1999/xlink" x="0px" y="0px"
	 viewBox="0 0 690 500" style="enable-background:new 0 0 690 500;" xml:space="preserve">
<style type="text/css">
	.st0{clip-path:url(#SVGID_2_);}
	.st1{clip-path:url(#SVGID_4_);}
	.st2{clip-path:url(#SVGID_4_);fill:#2D2841;}
	.st3{clip-path:url(#SVGID_4_);fill:#C09640;}
	.st4{clip-path:url(#SVGID_4_);fill:#4C342E;}
	.st5{clip-path:url(#SVGID_4_);fill:#FE966F;}
	.st6{clip-path:url(#SVGID_4_);fill:#A93534;}
	.st7{clip-path:url(#SVGID_4_);fill:#5B1010;}
	.st8{clip-path:url(#SVGID_4_);fill:#FFFFFF;}
	.st9{clip-path:url(#SVGID_4_);fill:#7B824D;}
	.st10{clip-path:url(#SVGID_6_);}
	.st11{clip-path:url(#SVGID_8_);}
	.st12{clip-path:url(#SVGID_8_);fill:#252825;}
	.st13{clip-path:url(#SVGID_8_);fill:#707A6F;}
	.st14{clip-path:url(#SVGID_8_);fill:#424741;}
	.st15{clip-path:url(#SVGID_8_);fill:#B1BCAF;}
	.st16{clip-path:url(#SVGID_8_);fill:#7395B1;}
	.st17{clip-path:url(#SVGID_8_);fill:#9AB8CC;}
	.st18{clip-path:url(#SVGID_8_);fill:#FFFFFF;}
	.st19{fill:none;stroke:#FF0000;stroke-width:20;stroke-miterlimit:10;}
</style>
<g id="TIGER">
	<g>
		<g>
			<defs>
				<rect id="SVGID_1_" x="-19.2" y="63.9" width="297.6" height="414"/>
			</defs>
			<clipPath id="SVGID_2_">
				<use xlink:href="#SVGID_1_"  style="overflow:visible;"/>
			</clipPath>
			<g class="st0">
				<defs>
					<rect id="SVGID_3_" x="-19.2" y="63.9" width="297.6" height="414"/>
				</defs>
				<clipPath id="SVGID_4_">
					<use xlink:href="#SVGID_3_"  style="overflow:visible;"/>
				</clipPath>
				<path class="st1" d="M169.5,433c0.7,0,1.4-0.1,2.1-0.1c1.7,0,3.5-0.1,5.2-0.1c4.9,0,8.5,2.3,11.1,6.3c2.3,3.4,3.4,7.3,4.2,11.3
					c0.3,1.7,0.6,3.4,0.8,5c0.1,1,0,2-0.5,2.9c-0.1,0.2,0,0.5,0,0.7c0.1,1.1,0.4,2.2,0.4,3.3c0,1.8-1,3-2.6,3.6
					c-1.5,0.6-3,0.8-4.6,0.7c-3.8-0.1-7.6-0.2-11.4-0.6c-4.6-0.4-9.2-1.1-13.7-1.6c-1.5-0.2-3.1-0.2-4.6-0.3
					c-4.5-0.2-8.9-0.3-13.4-0.4c-2.4,0-4.7,0-7.1,0.1c-1.7,0.1-3.2-0.5-4.6-1.4c-1.2-0.8-1.9-1.9-2.1-3.4c-0.3-1.8-0.2-3.6,0.5-5.3
					c0.2-0.4,0.1-0.8-0.1-1.2c-1.3-2.5-1.7-5.2-1.9-7.9c-0.2-1.7-0.3-3.4-0.5-5c0-0.3-0.2-0.6-0.4-0.7c-0.5-0.4-0.8-0.9-0.8-1.5
					c0-2.9,0.1-5.7,0-8.6c0-2.8-0.1-5.6-0.1-8.4c-0.1-5.6,0-11.1-0.5-16.7c-0.7-9-1.4-18-2.1-26.9c-0.6-8-1.3-16.1-2-24.1
					c0-0.2-0.1-0.5-0.2-0.7c-0.1,1.5-0.1,2.9-0.2,4.4c-0.4,4.2-0.8,8.4-1.1,12.6c-0.1,0.8,0,1.6,0,2.3c0.1,2.5,0.2,5,0.5,7.4
					c0.7,5.5,0.5,11,0.6,16.5c0.2,7.2,0.2,14.5,0.4,21.7c0.1,4.2,0.5,8.4,0.7,12.6c0.1,1.3,0,2.7,0.1,4c0.1,1.2,0.3,2.4,0.5,3.6
					c0.2,1.1,0.5,2.3,0.6,3.4c0.1,0.7-0.1,1.4-0.1,2.3c-1.2,0.1-2.4,0.2-3.7,0.3c0.1,0.2,0.3,0.4,0.4,0.6c1.8,2.8,3,5.8,3.5,9.1
					c0.1,0.4,0.1,0.8,0,1.2c-0.2,0.8,0.1,1.5,0.4,2.2c1.2,2.3,1.5,4.8,0.6,7.3c-0.7,1.8-1.8,2.9-3.8,3.1c-2,0.2-4,0.4-6,0.5
					c-7.2,0.4-14.3,0.9-21.5,1.3c-3.1,0.2-6.2,0.1-9.4,0.1c-0.4,0-0.8-0.1-1.2-0.2c-1.7-0.3-2.9-1.3-3.5-2.9
					c-0.6-1.7-0.7-3.4-0.6-5.2c0-0.2,0-0.5-0.1-0.7c-0.6-1.1-0.7-2.2-0.5-3.4c0-0.3,0.1-0.5,0.2-0.8c1.1-2.6,1.4-5.3,2.2-8
					c0.4-1.2,0.9-2.4,1.4-3.5c0.1-0.3,0.2-0.5-0.1-0.8c-1.3-1.1-1.5-2.4-0.7-4c0.9-1.9,1.1-3.9,1.2-5.9c0.2-6,1-11.9,1.5-17.8
					c0.3-3.7,0.6-7.4,0.7-11.1c0.4-8.3,0.6-16.7,1-25c0.3-6.5,0.8-13,1.2-19.6c0.3-5.4,0.7-10.7,1-16.1c0.4-7.3,0.8-14.6,1.1-21.8
					c0.3-7.8,0.6-15.5,0.8-23.3c0.2-4.4,0.3-8.8,0.5-13.3c0-0.5-0.1-0.7-0.6-0.9c-2.8-1-2.3-1-2.5-3.3c-0.1-1.3-0.2-2.7-0.3-4
					c-0.3-4.6,0.1-9.1,0.7-13.6c0.5-3.7,1.1-7.4,1.7-11.1c0-0.3,0.1-0.5,0.1-0.8c-0.1,0-0.1-0.1-0.2-0.1c-0.2,0.4-0.5,0.9-0.6,1.3
					c-0.3,1.1-0.6,2.2-1,3.3c-0.5,1.5-1,1.7-2.3,1c-0.2-0.1-0.4-0.2-0.6-0.3c-1,1.1-1.2,1.2-2.4,1c0,0.1-0.1,0.3-0.1,0.5
					c-0.1,0.5-0.2,0.9-0.4,1.4c-0.7,1.8-2.2,2-3.4,0.5c-0.9-1.1-1.2-2.3-1.3-3.7c0-0.6-0.3-0.7-0.8-0.7c-2.7-0.2-5.1-1.1-7.2-2.8
					c-1.9-1.6-2.3-3.2-1.5-5.5c2.1-5.8,3.6-11.7,5.3-17.6c3-10.3,5.5-20.7,8.3-31c0.4-1.3,0.8-2.6,1.2-4c-0.5-0.2-0.9-0.4-1.4-0.6
					c-1-0.5-1.2-0.9-0.7-2c2.7-6,6.2-11.5,10.4-16.6c2.9-3.6,6-7.1,9.4-10.2c1.1-1,2.3-1.7,3.6-2.2c1.7-0.6,3.4-0.3,5,0.4
					c2.4,1.1,4.3,2.8,6.2,4.6c0.6,0.6,1.2,1.1,1.8,1.8c0.1-0.9,0.2-1.6,0.2-2.3c0-2.5,0-5,0-7.4c0-0.2-0.1-0.6-0.3-0.7
					c-4.5-3.8-6.8-8.7-7.8-14.4c-0.3-1.5-0.5-3.1-0.8-4.7c-1.3,0.7-2.7,0.7-4.1,0.3c-2.5-0.7-4.3-2.3-5.6-4.4
					c-2.2-3.5-3.5-7.2-3-11.4c0.1-1.1,0.7-2.2,1-3.3c0.1-0.2,0.2-0.6,0.1-0.7c-3-5.1-3.2-10.5-1.3-16c0.6-1.6,1.4-3.2,2.2-4.8
					c-0.1,0-0.3,0.1-0.4,0.1c-1.4,0.4-2.8,0.9-4.2,1.2c-2.1,0.5-3-0.4-2.6-2.5c0.5-2.3,1.3-4.5,2.7-6.5c1.7-2.3,4.2-3.6,6.9-4.5
					c0.6-0.2,1.2-0.4,1.8-0.7c-0.7-0.1-1.5-0.2-2.2-0.3c-1-0.1-2-0.1-3-0.3c-0.6-0.1-1.1-0.3-1.3-0.9c-0.2-0.6,0-1.1,0.5-1.5
					c0.6-0.6,1.3-1.1,2-1.5c4.6-2.5,9.4-3.3,14.5-1.6c0.7,0.2,1.3,0.5,2,0.9c-0.1-0.3-0.1-0.5-0.2-0.7c-0.9-1.7-1.8-3.4-2.7-5.1
					c-0.2-0.5-0.5-0.9-0.7-1.4c-0.3-1,0.2-1.8,1.3-1.8c0.7,0,1.3,0.1,2,0.3c4.4,1.3,8.1,3.8,10.9,7.6c0.1,0.1,0.1,0.2,0.1,0.2
					c0.5-0.5,1-0.9,1.5-1.4c2-1.8,4.4-3.2,6.9-4c2.2-0.7,4.4-1.2,6.7-1.8c0.5-0.1,1-0.1,1.5,0c0.9,0.2,1.3,0.8,1.1,1.7
					c-0.1,0.5-0.3,0.9-0.6,1.4c-0.7,1.2-1.5,2.3-2.3,3.4c-0.1,0.2-0.2,0.3-0.4,0.6c0.6-0.2,1.1-0.3,1.5-0.4c4.4-1.2,8.9-1.6,13.4-1
					c4.8,0.6,8.5,2.9,11.1,7c1.2,2,2.3,4,3.5,6c1.5,2.5,2.9,5.2,4.5,7.6c2.8,4.2,6.8,6.8,11.3,8.8c0.6,0.3,1.3,0.5,1.2,1.3
					c-0.1,0.9-0.8,1.1-1.5,1.2c-1.9,0.3-3.8,0.5-5.6,0.7c-0.1,0-0.3,0-0.6,0c0.2,0.2,0.4,0.4,0.5,0.6c0.9,1.3,2,2.5,2.8,3.8
					c1,1.7,1.5,3.6,0.7,5.5c0.1,0,0.1,0.1,0.1,0.1c0.5,0,1-0.1,1.2,0.5c0.3,0.6,0,1.1-0.3,1.6c-2.3,3.3-5.4,5.6-9.2,6.7
					c-2,0.6-4.1,0.9-6.1,1.3c-0.3,0.1-0.5,0.1-0.8,0.1c1.9,4.5,0.3,8.2-2.4,11.6c-2.3,2.9-5.3,4.5-8.9,4.8c-1,0.1-1.3,0.5-1.6,1.2
					c-1.7,3.5-3.7,6.9-6.6,9.6c-2.6,2.4-5.5,4.2-8.9,5.3c-0.5,0.1-0.6,0.4-0.7,0.8c-0.3,2-0.6,4-0.9,5.9c0,0.2-0.1,0.4-0.1,0.7
					c0.2-0.1,0.4-0.1,0.6-0.2c6.9-2.5,14.5-0.4,19.1,6.6c2.1,3.2,3.7,6.6,5.3,10.1c1.1,2.4,2.3,4.9,3.5,7.3c0.3,0.5,0.6,1,0.9,1.5
					c0.5,0.9,0.5,1.5-0.4,2c-0.9,0.6-1.9,1.1-2.9,1.6c-1.4,0.8-1.4,0.8-1.2,2.4c0.5,5,1.1,10,1.6,15.1c0.5,5.2,0.9,10.5,1.4,15.7
					c0.4,4,0.8,7.9,1.2,11.9c0.1,0.7,0.2,1.4,0.3,2.1c0.3,1.1,0,2-0.7,2.8c-1.4,1.7-3.2,2.9-5.2,3.8c-2.5,1.1-5.2,1.4-8,1.3
					c-0.3,0-0.6,0-1,0c0.1,0.9,0.1,1.7,0.2,2.5c0.5,6,1,11.9,1.5,17.9c0.1,0.9,0,1.8,0.1,2.7c0,0.8-0.3,1.3-1,1.5
					c-0.9,0.3-1.8,0.6-2.7,0.8c-0.5,0.1-0.7,0.4-0.7,0.9c0.2,4.9,0.2,9.9,0.5,14.8c0.5,8.2,1.1,16.4,1.9,24.6
					c1.1,11.4,2.7,22.8,4.9,34c0.7,3.4,0.7,6.8,0.7,10.2c0,2.5,0.3,5.1,0.8,7.6c1.7,9.1,3.5,18.2,5.3,27.2c1.2,6,2.4,12.1,3.6,18.1
					c0.3,1.5,1,2.9,1.6,4.3c0.9,1.9,1.7,3.8,2.5,5.8C169.7,431.1,169.7,431.5,169.5,433 M146.5,369.8c0.2,0.1,0.4,0.3,0.7,0.4
					c0.7,0.4,1.4,0.8,2.1,1.3c0.2,0.1,0.2,0.4,0.4,0.5c-0.2,0-0.5,0.2-0.6,0.1c-1.2-0.5-2.3-1.1-3.4-1.7c-0.5-0.2-0.8-0.7-0.7-1.3
					c0.2-0.6,0.7-0.7,1.2-0.8c0.9-0.1,1.8-0.1,2.7-0.2c1.5-0.2,3-0.4,4.4-1.3c0.4-0.2,0.5-0.5,0.5-0.9c0.1-3-0.1-5.9-0.6-8.8
					c-0.9-5.4-2-10.7-2.7-16.1c-1.9-13.4-3.2-26.9-3.8-40.5c-0.1-1.5-0.4-2.8-1-4.1c-1.9-3.9-3.8-7.8-5.6-11.8
					c-0.3-0.5-0.6-0.7-1.1-0.5c-0.5,0.1-0.9,0.2-1.4,0.2c-10.8,1.5-21.8,2-32.7,2c-1,0-1.6,0.3-2.1,1.2c-3.6,5.6-7.6,10.9-11.8,16
					c-0.4,0.4-0.5,0.9-0.5,1.5c-0.5,12-0.9,23.9-1.5,35.9c-0.3,7.3-0.8,14.5-1.3,21.8c0,0.5,0.1,0.8,0.5,1.2
					c2.4,2.2,4.8,4.4,7.2,6.7c1.2,1.1,2.3,2.3,3.5,3.3c1.8,1.5,3.8,2.1,6.1,1.5c4.5-1.2,8.2-3.6,11.4-6.8c1.3-1.3,1.8-2.8,1.9-4.6
					c0.2-4,0.6-8.1,0.8-12.1c0.4-6.2,0.4-12.5,0.1-18.7c-0.1-1.2-0.1-2.5-0.1-3.7c0-1.5,0-2.9,0-4.4c0-2.1,0-4.2,0-6.3
					c0-1.9,0.1-3.7,0.1-5.6c0-2.7,0-5.4,0-8.1c0-1.4,0.6-2.6,1.7-3.5c0.4-0.3,0.8-0.7,1.2-1c3.8-3,7.5-6,11.3-9
					c0.2-0.2,0.7-0.2,0.8-0.1c0.2,0.1,0.2,0.6,0.2,0.8c0,0.2-0.2,0.4-0.4,0.6c-1,0.9-1.9,1.8-2.9,2.7c-2.9,2.3-5.8,4.6-8.7,6.8
					c-1.1,0.8-1.7,1.9-1.7,3.3c0,2.9,0,5.8,0,8.7c0,8.8-0.1,17.6,0.8,26.4c0.8,7.5,1.4,15.1,2.1,22.6c0.1,0.8,0.2,1.5,0.2,2.4
					c0.3-0.1,0.5-0.2,0.7-0.3c3.7-2,7.6-3.5,11.7-4.6c0.7-0.2,1.4-0.3,2.2-0.3c0.9,0,1.3,0.8,0.7,1.5c-0.3,0.4-0.7,0.8-1.1,1.1
					c-2,1.4-4,2.7-6,4c-1.8,1.1-3.6,2-5.4,3.1c-0.7,0.4-0.7,0.7,0.1,1c1.1,0.5,2.3,0.9,3.5,1.3c0.3,0.1,0.6,0.2,0.8,0.4
					c0.1,0.1,0.3,0.4,0.2,0.6c-0.1,0.2-0.3,0.3-0.5,0.3c-0.3,0-0.5-0.1-0.8-0.2c-0.9-0.3-1.7-0.7-2.6-1c-0.5-0.2-1-0.4-1.5-0.7
					c-1-0.6-1.1-1.5-0.2-2.2c0.6-0.5,1.3-0.9,2-1.3c3.3-1.8,6.6-3.7,9.5-6c0.2-0.2,0.4-0.3,0.6-0.5c0,0-0.1-0.1-0.1-0.1
					c-0.5,0.1-1,0.2-1.5,0.4c-3.8,1.1-7.5,2.5-11.1,4.2c-1,0.5-1,0.5-0.9,1.6c0.3,4.3,0.7,8.6,1,12.9c0.1,0.8,0.3,1.6,0.9,2.1
					c0.3,0.3,0.6,0.6,0.8,0.9c2.9,3.6,5.8,7.2,8.6,10.9c3.3,4.5,6.5,9.2,9.7,13.8c0.2,0.3,0.3,0.6,0.5,0.8c-0.1,0-0.2,0.1-0.2,0.1
					c-6.8-8.6-13-17.7-20-26.2c-0.1,0.3-0.1,0.5-0.1,0.7c0.4,5.2,0.7,10.5,1.1,15.7c0.5,6.7,1,13.4,0.9,20.1c0,3.8-0.2,7.7-0.2,11.5
					c0,1.8,0.1,3.6,0.2,5.4c0,0.6,0.2,0.9,0.6,1.1c0.6,0.3,1.3,0.4,1.9,0.7c1.2,0.5,2.4,0.9,3.6,0.8c3.2-0.1,6.3-0.2,9.5-0.3
					c2.3-0.1,4.6-0.3,6.8-0.6c1.9-0.3,3.7-0.8,5.6-1.1c4-0.7,7.8-2.2,11.3-4.3c1.3-0.8,1.4-1.1,0.9-2.5c-0.6-1.7-1.2-3.5-2-5.1
					c-1.6-3.1-2.5-6.4-3.2-9.8c-1.5-7.5-3-15.1-4.4-22.6c-1.4-7.1-2.6-14.2-3.9-21.4c-0.2-1.2-0.3-2.4-0.4-3.7
					C151.4,369.4,149,369.4,146.5,369.8 M99.1,183.4c0.1,0,0.2,0,0.2,0c0,0.2,0.1,0.4,0.1,0.7c-0.1,2.5,0,5-0.2,7.5
					c-0.3,3.4-0.7,6.7-1.1,10.1c-1.4,11.9-3.2,23.7-5.2,35.4c-1.2,7.2-2.6,14.5-3.8,21.7c-0.8,4.6-1.4,9.1-1.5,13.7
					c0,3.1,0.2,6.2,0.4,9.4c0,0.2,0.2,0.5,0.4,0.6c0.7,0.3,1.3,0.5,2,0.7c4.5,1,9.1,1.5,13.7,1.5c4.1,0,8.2-0.1,12.3-0.3
					c6.4-0.3,12.7-0.6,19-1.5c4.7-0.7,9.4-1.7,14-3c0.6-0.2,0.8-0.4,0.8-1c-0.3-4.3-0.6-8.6-0.9-12.9c-0.4-5.7-1-11.3-1.2-17
					c-0.2-6-0.1-11.9-0.1-17.9c0-7.4-0.1-14.9,0-22.3c0-1.7,0.1-3.5,0.6-5.1c1.1-3.9,2.6-7.7,3.9-11.5c0.1-0.2,0.1-0.4,0.2-0.5
					c0.1-0.1,0.3-0.2,0.4-0.3c0.1,0.2,0.3,0.3,0.3,0.5c0,0.3,0,0.7-0.1,1c-0.5,3.7-1.7,7.3-2.9,10.8c-0.2,0.7-0.3,1.4-0.5,2.2
					c4.8-2.1,9.1-4.8,13.5-7.2c-0.1-0.2-0.1-0.2-0.1-0.3c-1.3-2.6-2.7-5.2-3.9-7.8c-1.7-3.5-3.3-7.1-5.4-10.4
					c-1.6-2.4-3.6-4.5-6.3-5.7c-3.9-1.8-7.9-1.7-11.9-0.1c-0.2,0.1-0.4,0.5-0.5,0.7c-0.3,1.2-0.4,2.5-0.7,3.7
					c-0.3,1.4-1.1,2.5-2.2,3.4c-3.2,2.3-9.1,4-14.1,0.7c-2.5-1.6-3.7-3.8-3.3-6.7c0.1-1.2,0.3-2.4,0.5-3.7c0-0.2,0-0.6-0.2-0.8
					c-2.2-2.3-4.5-4.5-7.2-6.1c-2.5-1.5-4.9-1.4-7.1,0.5c-1.8,1.5-3.4,3.2-5,4.9c-5.6,6.1-10.6,12.6-14.2,20.1
					c-0.3,0.6-0.5,1.1-0.8,1.7c1.7,1.1,14.7,5.1,16.3,5c-1.3-6.4-2.5-12.8-3.8-19.1c0.1,0,0.2-0.1,0.3-0.1c1.4,2.4,1.9,5.1,2.4,7.7
					c0.5,2.7,1,5.3,1.5,8C98,190.7,98.4,187,99.1,183.4 M167.2,117.4c-0.1,0.5-0.2,1.2-0.5,1.9c-0.4,1-1.1,1.4-2.1,1
					c-0.6-0.2-1.3-0.6-1.9-0.9c-0.4-0.2-0.7-0.4-1-0.5c-0.9,4.4-1.7,8.7-2.5,13.1c0.1,0,0.2-0.1,0.3-0.1c1.2-0.8,2.5-1.2,4-0.9
					c0.1,0,0.3,0,0.4,0c1.9-0.3,3.8-0.5,5.7-0.9c3.8-0.7,7.1-2.4,9.7-5.3c0.1-0.2,0.3-0.3,0.5-0.6c-0.4,0-0.6,0-0.8,0
					c-0.6,0-1-0.2-1.2-0.8c-0.1-0.6,0.2-0.9,0.7-1.1c0.7-0.4,0.9-0.9,1-1.6c0-1.1-0.3-2.1-0.8-3c-0.8-1.5-1.8-2.8-3-4
					c-0.3-0.3-0.7-0.7-1-1c-0.3-0.4-0.5-0.9-0.3-1.4c0.2-0.5,0.7-0.6,1.2-0.7c0.3,0,0.6,0,0.9,0c1.5-0.1,3-0.2,4.5-0.3l0-0.2
					c-0.2-0.1-0.5-0.3-0.7-0.4c-3.6-1.8-6.8-4.3-9.2-7.6c-1.5-2.1-2.8-4.3-4.1-6.5c-1.5-2.6-2.9-5.2-4.4-7.8
					c-1.9-3.2-4.7-5.3-8.4-6.1c-1.5-0.3-3.1-0.5-4.6-0.6c-4.6-0.2-9,0.7-13.3,2.4c-0.4,0.2-0.9,0.4-1.3,0.4c-0.3,0-0.8-0.2-1-0.5
					c-0.1-0.2,0.1-0.7,0.2-1c0.1-0.2,0.3-0.3,0.5-0.5c1.9-1.6,3.3-3.6,4.6-5.7c0.1-0.1,0.1-0.3,0.2-0.5c-0.1,0-0.1-0.1-0.2-0.1
					c-0.1,0-0.3,0-0.4,0c-2.6,0.4-5.1,1.1-7.5,2.2c-2.8,1.2-5.3,2.8-7,5.5c-0.4,0.7-1.1,0.6-1.6-0.1c-0.4-0.7-0.8-1.5-1.3-2.1
					c-2.5-3-5.7-5.1-9.5-6.2c-0.3-0.1-0.6-0.1-1.1-0.2c0.2,0.4,0.4,0.7,0.6,1c0.9,1.7,1.9,3.4,2.7,5.2c0.4,0.9,0.6,2,0.8,3
					c0.1,0.5,0,1-0.5,1.2c-0.5,0.3-0.9,0-1.2-0.4c-0.8-1-1.9-1.6-3.1-2c-4.9-1.5-9.4-0.6-13.7,2c-0.2,0.1-0.4,0.3-0.7,0.6
					c0.9,0.1,1.7,0.1,2.5,0.2c2,0.2,4,0.4,5.9,1.2c0.6,0.2,1,0.6,0.9,1.3c-0.1,0.7-0.7,0.7-1.2,0.7c-2.1,0.2-4.2,0.7-6.1,1.5
					c-3.3,1.4-5.5,3.7-6.5,7.1c-0.2,0.6-0.4,1.2-0.5,1.9c-0.1,0.3-0.1,0.6-0.1,1c0.3,0,0.6,0,0.8-0.1c2-0.5,4.1-1.1,6.1-1.6
					c0.3-0.1,0.5-0.3,0.7-0.5c1.2-1.1,2.3-2.3,3.5-3.4c0.2-0.2,0.5-0.4,0.7-0.5c0.3,0,0.7,0,0.9,0.2c0.2,0.2,0.1,0.6,0,0.9
					c-0.2,0.3-0.5,0.6-0.7,0.8c-2.7,2.5-5.1,5.2-6.6,8.7c-2,4.9-2.1,9.8,0,14.7c0.1,0.3,0.3,0.5,0.4,0.8c0.1,0,0.2,0,0.2-0.1
					c3.4-2.4,7-1.6,9,2c0.3,0.5,0.6,0.5,0.9,0.2c0.7-0.7,1.4-1.4,1.9-2.3c0.9-1.4,1.3-2.9,1.6-4.6c0.1-0.7,0.6-1.2,1.1-0.9
					c0.3,0.1,0.6,0.5,0.8,0.8c0.3,0.4,0.4,0.9,0.6,1.5c0.4-0.3,0.7-0.5,0.9-0.7c3-2.8,3.8-7.8,1.8-11.4c-0.7-1.3-0.1-2.5,1.3-2.8
					c0.1,0,0.2,0,0.2-0.1c1.6-0.7,3.3-0.7,5-0.4c2.8,0.5,5.4,1.7,7.7,3.3c2.5,1.8,5,3.6,7.4,5.6c4.4,3.5,9.2,6,14.7,7.1
					c1.2,0.2,2.5,0.4,3.9,0.6c0-0.9,0-1.6,0-2.4c-0.1-2.9-0.9-5.5-3.3-7.4c-0.8-0.7-1.7-1.3-2.5-2c-0.2-0.1-0.3-0.3-0.5-0.4
					c0-0.1,0-0.1,0.1-0.2c0.3,0,0.6,0,0.9,0c1.3,0.2,2.5,0.7,3.5,1.6c1.4,1.2,2.2,2.7,3.1,4.2c1.8,3,4.3,5.2,7.4,6.8
					c0.2,0.1,0.5,0.2,0.8,0.3c0.5-2.1,0.4-4-0.8-5.7c-0.8-1.1-1.7-2.3-2.5-3.4c-0.1-0.2-0.2-0.4-0.4-0.6c0,0,0.1-0.1,0.1-0.1
					c0.2,0.1,0.5,0.2,0.7,0.4c0.7,0.5,1.4,1,2.1,1.6c1.5,1.1,2.3,2.6,2.6,4.5c0,0.3,0.3,0.6,0.5,0.7c0.6,0.4,1.3,0.8,1.9,1.3
					c0.5,0.4,0.9,0.9,1.4,1.4c0,0.1-0.1,0.1-0.1,0.2c-0.3,0-0.6,0.1-0.8,0C169,118.3,168.1,117.8,167.2,117.4 M84.2,421.6
					c0.9-0.1,1.6-0.2,2.4-0.4c3.8-0.8,7.3-2.2,10.9-3.7c4-1.7,8-3.4,12-5.1c0.7-0.3,1.4-0.5,2.1-0.6c0.8-0.1,1.4,0.3,1.7,1
					c0.4,1.2,0.4,2.3-0.1,3.5c-0.1,0.2-0.3,0.4-0.5,0.5c-1.2,0.5-2.3,1-3.5,1.5c-8.1,3.5-16.3,6.7-24.8,9.4
					c-0.6,0.2-0.9,0.5-0.9,1.1c0,1.1-0.1,2.3-0.2,3.4c-0.1,2.8-0.4,5.6-1.6,8.1c-0.3,0.6-0.1,1.1,0.7,1.5c0.1-0.1,0.2-0.2,0.3-0.3
					c1.2-1.5,2.7-2.7,4.5-3.7c4.4-2.4,9.2-3.1,14.1-2.9c5.9,0.2,11.2,2.2,15.8,6c0.2,0.1,0.4,0.3,0.6,0.3c1,0,1.9,0,2.9,0
					c0.4,0,0.6-0.2,0.5-0.6c-0.2-0.9-0.2-1.8-0.5-2.7c-0.5-1.6-0.7-3.2-0.7-4.9c0-1.4,0-2.8-0.1-4.3c-0.3-6.1-0.7-12.1-0.8-18.2
					c-0.2-8.9-0.2-17.8-0.3-26.7c0-0.3,0-0.7,0-1c-0.8-3.4-0.8-6.8-1-10.2c-0.1-1.2-0.1-2.5-0.2-3.8c-0.4,0.4-0.7,0.9-1.1,1.2
					c-2.2,2.2-4.9,3.8-7.6,5.1c-1.1,0.5-2.3,0.9-3.5,1.2c-2.5,0.6-4.8,0.1-6.7-1.6c-0.9-0.8-1.7-1.6-2.5-2.4
					c-2.4-2.3-4.9-4.6-7.3-6.9c-0.1-0.1-0.3-0.2-0.4-0.3c0,0.3,0.2,0.4,0.3,0.6c1,1.1,1.9,2.1,2.9,3.2c1.7,2,3.4,4.1,5.1,6.1
					c0.7,0.8,1.1,1.8,1.3,2.9c0.1,0.6,0.3,1.2,0.6,1.7c1.9,2.8,4.3,3.7,7.3,2.6c1.1-0.4,2.3-0.8,3.4-1.3c0.3-0.1,0.5-0.1,0.8-0.2
					c0,0.1,0.1,0.1,0.1,0.2c-0.2,0.2-0.3,0.4-0.5,0.5c-1.5,1-3,1.7-4.7,2c-3.3,0.7-7.1-1.7-7.9-5c-0.3-1.3-0.8-2.3-1.7-3.3
					c-2.5-2.9-4.9-5.7-7.4-8.6c-0.2-0.2-0.4-0.4-0.7-0.7c-1.3,16-1.3,31.8-2.2,47.8c1.4-0.5,2.8-0.8,4-1.3c3.8-1.8,7.6-3.6,11.4-5.5
					c2.1-1,4.1-2.1,6.2-3.1c0.2-0.1,0.4-0.1,0.6-0.2c0,0.1,0.1,0.1,0.1,0.2c-0.2,0.2-0.5,0.4-0.7,0.5c-2.8,1.6-5.6,3.3-8.4,4.8
					c-4.1,2.2-8.2,4.5-12.9,5.5c-0.2,0-0.4,0.4-0.5,0.6c-0.2,1.5-0.3,3-0.5,4.5C84.3,420.4,84.2,420.9,84.2,421.6 M106.8,123.7
					c0,0.9-0.1,1.8,0,2.6c0.9,5.9,1.8,11.8,2.7,17.8c0.9,5.5,3,10.3,7.2,14.2c1.9,1.7,3.9,3.2,6.3,4.2c2.3,0.9,4.6,2,7.3,1.6
					c1.6-0.2,3.2,0,4.8-0.3c5-1,8.9-3.8,12.1-7.6c2.3-2.8,4-6,5.3-9.4c2.4-6.2,4.4-12.5,5.9-18.9c0.7-2.9,1-5.8,1.5-8.7
					c0.2-1.1,0.1-1.9-0.9-2.5c-0.2-0.1-0.4-0.4-0.6-0.6c-0.3-0.3-0.6-0.6-0.9-1c0,1.1,0.1,2.1,0,3.1c-0.1,1.5-0.6,1.9-2,1.7
					c-4.2-0.4-8.1-1.5-11.9-3.3c-3.4-1.6-6.4-3.9-9.3-6.3c-2.5-2-4.9-4-7.7-5.5c-2.7-1.5-5.5-2.4-8.7-2c-0.9,0.1-1.1,0.6-0.7,1.4
					c0.3,0.6,0.7,1.3,0.8,2c0.1,1.6,0.3,3.2,0.1,4.8c-0.3,2.6-1.5,4.8-3.5,6.6c-1.2,1-1.9,1.1-3.1,0.3
					C110.3,120.2,109.4,122.6,106.8,123.7 M128.6,440c0.1,0.7,0.1,1.3,0.2,1.9c0.3,2.5,0.5,5,1,7.4c1.1,4.7,4.7,7.3,9.5,7.1
					c1.4,0,2.8-0.2,4.3-0.3c3.3-0.2,6.5-0.5,9.7,0.4c4.8,1.2,9.7,2,14.6,2.6c4.4,0.6,8.8,1.1,13.3,1c2.9,0,5.7-0.5,8.4-1.6
					c1.3-0.6,1.9-1.5,1.7-2.9c-0.4-2.4-0.8-4.8-1.3-7.2c-0.6-2.9-1.7-5.6-3.3-8.2c-2.1-3.2-4.8-5.3-8.8-5.6c-3.7-0.2-7.5,0-11.2,0.3
					c-0.3,0-0.5,0.2-0.8,0.3c-1.4,0.7-2.9,1.4-4.3,2c-2.7,1.1-5.5,1.5-8.3,2.1c-6.1,1.4-12.3,1.6-18.5,1.8
					C132.6,441.3,130.5,441,128.6,440 M96.9,459.4c1.2-0.1,2.4-0.1,3.6-0.2c4.5-0.3,9-0.5,13.5-0.9c1.5-0.1,3-0.4,4.3-1
					c1.9-0.8,3.3-2.5,2.6-5c-0.3-1.1-0.5-2.1-0.9-3.2c-1.4-3.8-3.6-7-7.2-9c-7.7-4.3-15.5-4.6-23.6-1.3c-4,1.6-6.7,4.6-7.9,8.7
					c-0.9,3.2-1.6,6.4-2.4,9.6c-0.3,1.1,0.2,1.7,1.3,1.9c0.9,0.2,1.9,0.3,2.9,0.4C87.8,459.9,92.4,459.6,96.9,459.4 M82.3,195.2
					c-0.1,0.3-0.1,0.5-0.2,0.7c-1.5,6.4-2.9,12.7-4.6,19c-3,11.2-5.7,22.5-9.6,33.5c-0.1,0.4-0.2,1-0.1,1.4c0.5,1.6,2,2.3,3.4,3.1
					c-0.2-2.5-0.2-2.5,0.8-4.9c1-2.4,2.4-4.6,4-6.7c2.3-3,4.8-5.9,7.8-8.2c0.6-0.5,1.4-0.8,2.2-1.1c0.4-0.1,0.6-0.3,0.7-0.7
					c0.8-2.4,1.6-4.7,2.5-7.1c2.1-5.7,4.2-11.3,6.2-17c0.3-0.8,0.6-1.6,0.7-2.4c0.3-1.6,0.4-3.2,0.7-4.7c0.1-0.4,0-0.6-0.5-0.7
					c-4.5-1-8.9-2.4-13.2-4C82.8,195.4,82.6,195.3,82.3,195.2 M149.7,235.7c0,0.4,0,0.7,0,0.9c0,2.6,0,5.2,0,7.8
					c0.1,3.2,0.2,6.5,0.3,9.7c0,0.4,0,0.7,0.5,0.7c2.1,0.1,4.2,0.1,6.3-0.5c2.4-0.7,4.4-1.9,6-3.8c0.3-0.3,0.5-0.8,0.4-1.2
					c-0.2-2-0.6-4-0.7-6c-0.7-6.9-1.3-13.8-1.9-20.7c-0.5-5.6-0.9-11.2-1.3-16.8c-0.1-0.9-0.2-1.8-0.3-2.7c-0.3,0.1-0.4,0.2-0.6,0.3
					c-2.8,1.4-5.7,2.8-8.5,4.3c-0.2,0.1-0.3,0.4-0.3,0.5c-0.1,0.8-0.1,1.6-0.1,2.4c0,7.8,0.1,15.6,0.1,23.3c0,0.4,0.1,0.6,0.6,0.6
					c1.9,0.1,3.5,0.7,5.1,1.7c2.6,1.8,4.6,4.1,6,6.9c0.1,0.2,0.1,0.4,0.2,0.6c0,0-0.1,0.1-0.1,0.1c-0.2-0.1-0.4-0.3-0.6-0.4
					c-1.1-1.2-2.3-2.3-3.4-3.5c-1.4-1.4-2.9-2.8-4.8-3.5C151.7,236.1,150.8,236,149.7,235.7 M117.4,161.1c0,0.3,0,0.4,0,0.5
					c0.3,2.3,0.4,4.7,0.1,7c-0.3,2.3-0.6,4.6-0.8,6.9c-0.4,3.3,0.6,5.1,3.6,6.5c3,1.4,6,1,9-0.2c2.2-0.9,3.6-2.4,3.9-4.8
					c0.4-3.1,0.9-6.2,1.4-9.3c0.1-0.7,0.2-1.3,0.3-2.1c-3.2,0.4-6.2,0.1-9.1-0.6C122.7,164.2,120,163,117.4,161.1 M79.7,460.7
					c-0.3,0.9,0,2.8,0.5,4.1c0.4,1,1.1,1.6,2.2,1.8c0.3,0,0.6,0.1,0.9,0.1c3.2,0,6.4,0.1,9.6-0.1c6.3-0.3,12.6-0.7,18.9-1.1
					c2.6-0.2,5.1-0.4,7.7-0.5c1.8-0.1,2.6-1.1,3-2.7c0.1-0.3,0.1-0.5,0.2-0.8c0.2-1.6-0.2-3.1-1-4.6c-1.7,2.3-4.1,2.8-6.6,3.1
					c-2,0.3-4,0.4-6,0.6c-4.5,0.3-9,0.5-13.5,0.7c-4,0.2-8.1,0.4-12.1-0.1C82.1,461,80.9,460.9,79.7,460.7 M130.7,454.9
					c-0.4,1-0.4,2-0.3,3c0.2,2.3,1,3.4,3.2,4c0.6,0.2,1.2,0.2,1.8,0.2c2.8,0,5.6-0.1,8.3,0c2.5,0,5.1,0.2,7.6,0.3
					c3,0.1,6,0.1,8.9,0.4c4.6,0.4,9.1,1.1,13.7,1.6c4.2,0.5,8.4,0.8,12.6,0.6c1-0.1,2.1-0.3,3.1-0.6c0.5-0.2,1.1-0.7,1.3-1.2
					c0.5-1,0.3-2.2,0-3.3c-0.5,0.2-1,0.5-1.5,0.6c-3.2,1.2-6.5,1.6-9.9,1.5c-8.5-0.3-16.8-1.4-25.1-3.3c-3.3-0.8-6.5-1-9.9-0.8
					c-2.2,0.1-4.3,0.3-6.5,0.3c-1.9,0-3.7-0.6-5.4-1.6C132.1,456,131.4,455.4,130.7,454.9 M73.4,253.6c0.6-0.5,1-0.9,1.5-1.3
					c0.4-0.3,0.5-0.5,0.4-1c-0.2-1.4-0.3-2.7,0.4-4c1.2-2.1,2.4-4.2,3.6-6.3c0.2-0.3,0.5-0.5,0.8-0.7c0,0.4,0,0.7-0.1,1.1
					c-1,2.1-2,4.2-3,6.2c-0.5,1-0.6,2-0.4,3c0.3,1.9,0.5,3.7,0.8,5.6c0.1,1.1,0.4,2.2,1.1,3.1c0.5,0.6,0.8,0.6,1-0.1
					c0.4-1.2,0.9-2.4,0.3-3.7c-0.2-0.3-0.2-0.7-0.3-1.1c-0.5-2.6-0.7-5.3-0.3-7.9c0.1-0.8,0.4-1.7,0.9-2.5c1.1-1.7,2.7-3,4.3-4.2
					c0.2-0.1,0.5-0.1,0.8-0.2c-0.1,0.3-0.1,0.6-0.3,0.8c-0.9,1.1-1.9,2.1-2.8,3.1c-0.9,1-1.6,2.1-1.6,3.5c0,2.1,0.1,4.2,0.3,6.3
					c0.1,1,0.6,1.9,0.9,2.8c0.1,0.2,0.5,0.4,0.6,0.3c0.3-0.2,0.7-0.3,0.5-0.8c-0.1-0.5-0.2-1-0.1-1.5c0.1-0.9,0.3-1.9,0.6-2.8
					c0.2-0.7,0.3-1.3,0.1-2c-0.2-1.1-0.2-2.1,0.8-2.9c0.9-0.6,1.5-1.4,2-2.3c0.3-0.5,0.7-0.8,1.4-0.6c0.4,0.1,0.9,0.3,1.3,0.5
					c0.2,0.1,0.3,0.4,0.5,0.7c-0.3,0.1-0.5,0.3-0.8,0.3c-1.3,0-1.3-0.1-1.8,1.1c-0.2,0.3-0.3,0.7-0.5,1c-1,2.3-1.9,4.7-2.2,7.2
					c-0.1,1,0.2,1.5,1.3,1.7c0.3-0.9,0.6-1.9,0.8-2.8c0.3-1.5,1.1-2.5,2.3-3.3c0.2-0.1,0.4-0.4,0.4-0.6c0.7-4,1.5-8,2.2-12
					c0-0.2,0-0.6-0.2-0.7c-1.2-1-2.4-1.9-3.6-2.8c-0.5-0.4-1.2-0.3-1.7,0c-0.6,0.4-1.2,0.8-1.7,1.3c-1.9,1.9-3.7,3.8-5.5,5.8
					c-2.5,2.9-4.4,6-5.6,9.7C72.4,251.7,72.8,252.6,73.4,253.6 M105.9,131.2c-1.5,0.9-2.4,2-2.7,3.6c0,0.2,0,0.5-0.1,0.7
					c-0.2,0.3-0.5,0.6-0.8,0.6c-0.3,0-0.6-0.4-0.7-0.7c-0.1-0.2,0-0.5,0-0.8c0.4-2.2,1.6-3.8,3.6-4.6c0.4-0.2,0.6-0.4,0.5-0.9
					c-0.1-1.2-0.2-2.3-0.3-3.5c-0.1-1.9-1.1-3.3-2.3-4.6c-0.2-0.2-0.5-0.4-0.8-0.5c-2.4-0.9-4.5,0-5.6,2.3c-0.3,0.6-0.5,1.3-0.6,1.9
					c-0.3,1.8-0.1,3.6,0.4,5.4c0.8,2.8,2,5.4,4.2,7.3c1.2,1,2.5,1.6,4.1,1.6c1.4,0,2-0.6,1.8-2c0,0,0,0,0-0.1
					C106.4,135.3,106.1,133.3,105.9,131.2 M83.6,426.8c0.4-0.1,0.7-0.2,0.9-0.3c5.5-2,11.1-4,16.6-6.1c3.7-1.4,7.2-3.1,10.8-4.7
					c0.2-0.1,0.5-0.4,0.5-0.6c0.1-0.5,0.1-1,0-1.5c-0.1-0.8-0.5-1-1.3-0.8c-0.8,0.2-1.6,0.5-2.3,0.8c-4.4,1.8-8.8,3.7-13.2,5.5
					c-3.3,1.4-6.6,2.6-10.2,3.2c-1.6,0.3-1.6,0.2-1.7,1.8C83.8,425,83.7,425.9,83.6,426.8 M90.3,301.5c0.1,0,0.1,0,0.2,0.1
					c3.9-4.9,7.7-9.9,11.3-15c-3.8-0.5-7.4-0.9-11.1-1.4C90.5,290.6,90.4,296,90.3,301.5 M154.2,147.2c0.1,0,0.2,0,0.2,0
					c0.5-0.1,0.9-0.2,1.4-0.3c4.8-1.4,7.6-4.6,8.8-9.4c0.3-1.2,0.2-2.5-0.3-3.7c-0.5-1.2-1.4-1.7-2.6-1.3c-0.8,0.2-1.5,0.7-2.2,1.2
					c-0.8,0.7-1.4,1.5-1.7,2.6c-0.3,1.3-0.8,2.5-1.2,3.8c1.2,0.3,2,0.9,2.4,2c0.3,0.7,0.2,1.3-0.3,1.5c-0.5,0.2-0.8-0.1-1.1-0.9
					c-0.3-0.6-0.6-1.2-1.3-1.5C155.6,143.4,154.9,145.3,154.2,147.2 M91.5,235.1c1.2-7.8,2.4-15.5,3.6-23.2c-0.1,0-0.1,0-0.2,0
					c-0.1,0.2-0.1,0.3-0.2,0.5c-2.1,6.2-4.2,12.4-6.3,18.6c-0.5,1.4-0.5,1.4,0.7,2.3C90,233.8,90.7,234.4,91.5,235.1 M140.9,283.8
					c1.8,3.6,3.5,7.1,5.3,10.7v-11.9C144.3,283.1,142.6,283.4,140.9,283.8 M75.6,253.5l-0.1,0c-0.2,0.3-0.4,0.6-0.6,0.9
					c0.3,0.1,0.6,0.2,0.9,0.3C75.7,254.2,75.7,253.8,75.6,253.5"/>
				<path class="st2" d="M146.5,369.8c2.4-0.4,4.9-0.4,7.1-1.8c0.2,1.3,0.2,2.5,0.4,3.7c1.3,7.1,2.6,14.3,3.9,21.4
					c1.4,7.5,2.9,15.1,4.4,22.6c0.7,3.4,1.5,6.7,3.2,9.8c0.9,1.6,1.4,3.4,2,5.1c0.5,1.5,0.4,1.7-0.9,2.5c-3.5,2.1-7.3,3.6-11.3,4.3
					c-1.9,0.3-3.7,0.9-5.6,1.1c-2.3,0.3-4.5,0.5-6.8,0.6c-3.2,0.2-6.3,0.3-9.5,0.3c-1.3,0-2.5-0.3-3.6-0.8c-0.6-0.3-1.3-0.4-1.9-0.7
					c-0.5-0.2-0.6-0.6-0.6-1.1c0-1.8-0.2-3.6-0.2-5.4c0-3.8,0.2-7.7,0.2-11.5c0-6.7-0.4-13.4-0.9-20.1c-0.4-5.2-0.7-10.5-1.1-15.7
					c0-0.2,0-0.5,0.1-0.7c7,8.5,13.1,17.6,20,26.2c0.1,0,0.2-0.1,0.2-0.1c-0.2-0.3-0.3-0.6-0.5-0.8c-3.2-4.6-6.4-9.3-9.7-13.8
					c-2.7-3.7-5.7-7.3-8.6-10.9c-0.3-0.3-0.5-0.6-0.8-0.9c-0.7-0.5-0.9-1.3-0.9-2.1c-0.3-4.3-0.7-8.6-1-12.9
					c-0.1-1.1-0.1-1.1,0.9-1.6c3.6-1.7,7.3-3.1,11.1-4.2c0.5-0.1,1-0.2,1.5-0.4c0,0,0.1,0.1,0.1,0.1c-0.2,0.2-0.4,0.4-0.6,0.5
					c-2.9,2.3-6.2,4.2-9.5,6c-0.7,0.4-1.4,0.8-2,1.3c-0.9,0.7-0.8,1.6,0.2,2.2c0.5,0.3,1,0.5,1.5,0.7c0.9,0.4,1.7,0.7,2.6,1
					c0.3,0.1,0.5,0.2,0.8,0.2c0.2,0,0.5-0.2,0.5-0.3c0.1-0.2-0.1-0.5-0.2-0.6c-0.2-0.2-0.5-0.3-0.8-0.4c-1.2-0.4-2.4-0.8-3.5-1.3
					c-0.7-0.3-0.7-0.6-0.1-1c1.8-1,3.6-2,5.4-3.1c2-1.3,4-2.7,6-4c0.4-0.3,0.8-0.7,1.1-1.1c0.5-0.7,0.2-1.5-0.7-1.5
					c-0.7,0-1.5,0.1-2.2,0.3c-4,1.1-7.9,2.6-11.7,4.6c-0.2,0.1-0.4,0.2-0.7,0.3c-0.1-0.8-0.2-1.6-0.2-2.4
					c-0.7-7.5-1.4-15.1-2.1-22.6c-0.9-8.8-0.8-17.6-0.8-26.4c0-2.9,0-5.8,0-8.7c0-1.4,0.6-2.4,1.7-3.3c2.9-2.3,5.8-4.5,8.7-6.8
					c1-0.8,2-1.8,2.9-2.7c0.2-0.2,0.4-0.4,0.4-0.6c0-0.3,0-0.7-0.2-0.8c-0.2-0.1-0.6-0.1-0.8,0.1c-3.8,3-7.5,6-11.3,9
					c-0.4,0.3-0.8,0.7-1.2,1c-1.1,0.9-1.7,2.1-1.7,3.5c0,2.7,0,5.4,0,8.1c0,1.9-0.1,3.7-0.1,5.6c0,2.1,0,4.2,0,6.3
					c0,1.5,0,2.9,0,4.4c0,1.2,0.1,2.5,0.1,3.7c0.3,6.2,0.3,12.5-0.1,18.7c-0.2,4-0.6,8.1-0.8,12.1c-0.1,1.8-0.7,3.3-1.9,4.6
					c-3.2,3.3-7,5.7-11.4,6.8c-2.3,0.6-4.3,0-6.1-1.5c-1.2-1.1-2.4-2.2-3.5-3.3c-2.4-2.2-4.8-4.5-7.2-6.7c-0.4-0.3-0.5-0.7-0.5-1.2
					c0.4-7.3,0.9-14.5,1.3-21.8c0.5-12,1-23.9,1.5-35.9c0-0.6,0.2-1,0.5-1.5c4.2-5.2,8.2-10.4,11.8-16c0.6-0.9,1.1-1.2,2.1-1.2
					c10.9,0,21.9-0.5,32.7-2c0.5-0.1,0.9-0.1,1.4-0.2c0.5-0.1,0.9,0,1.1,0.5c1.9,3.9,3.7,7.9,5.6,11.8c0.7,1.3,1,2.7,1,4.1
					c0.7,13.6,1.9,27.1,3.8,40.5c0.8,5.4,1.8,10.8,2.7,16.1c0.5,2.9,0.7,5.9,0.6,8.8c0,0.4-0.2,0.7-0.5,0.9
					c-1.3,0.8-2.8,1.1-4.4,1.3c-0.9,0.1-1.8,0.1-2.7,0.2c-0.5,0-1,0.2-1.2,0.8c-0.2,0.6,0.2,1,0.7,1.3c1.1,0.6,2.3,1.1,3.4,1.7
					c0.2,0.1,0.4-0.1,0.6-0.1c-0.1-0.2-0.2-0.4-0.4-0.5c-0.7-0.5-1.4-0.9-2.1-1.3C147,370.1,146.7,370,146.5,369.8"/>
				<path class="st3" d="M99.1,183.4c-0.6,3.6-1.1,7.2-1.5,10.9c-0.5-2.7-0.9-5.4-1.5-8c-0.5-2.7-1-5.4-2.4-7.7
					c-0.1,0-0.2,0.1-0.3,0.1c1.3,6.4,2.5,12.7,3.8,19.1c-1.6,0.1-14.7-3.9-16.3-5c0.3-0.6,0.5-1.1,0.8-1.7c3.6-7.5,8.6-14,14.2-20.1
					c1.6-1.7,3.3-3.3,5-4.9c2.2-1.9,4.6-2,7.1-0.5c2.7,1.6,5.1,3.8,7.2,6.1c0.2,0.2,0.2,0.5,0.2,0.8c-0.1,1.2-0.3,2.4-0.5,3.7
					c-0.3,2.9,0.9,5.1,3.3,6.7c5,3.2,10.9,1.6,14.1-0.7c1.2-0.8,1.9-2,2.2-3.4c0.3-1.2,0.4-2.5,0.7-3.7c0.1-0.3,0.2-0.6,0.5-0.7
					c4-1.5,7.9-1.7,11.9,0.1c2.7,1.2,4.7,3.3,6.3,5.7c2.1,3.3,3.7,6.8,5.4,10.4c1.2,2.6,2.6,5.2,3.9,7.8c0,0.1,0.1,0.2,0.1,0.3
					c-4.5,2.4-8.7,5.1-13.5,7.2c0.2-0.8,0.3-1.6,0.5-2.2c1.2-3.5,2.4-7.1,2.9-10.8c0.1-0.3,0.1-0.7,0.1-1c0-0.2-0.2-0.3-0.3-0.5
					c-0.2,0.1-0.3,0.2-0.4,0.3c-0.1,0.1-0.2,0.3-0.2,0.5c-1.3,3.8-2.7,7.6-3.9,11.5c-0.5,1.6-0.6,3.4-0.6,5.1c0,7.4,0,14.9,0,22.3
					c0,6-0.1,12,0.1,17.9c0.2,5.7,0.8,11.4,1.2,17c0.3,4.3,0.6,8.6,0.9,12.9c0,0.6-0.2,0.9-0.8,1c-4.6,1.3-9.2,2.3-14,3
					c-6.3,0.9-12.7,1.2-19,1.5c-4.1,0.2-8.2,0.3-12.3,0.3c-4.6,0-9.2-0.5-13.7-1.5c-0.7-0.2-1.4-0.4-2-0.7c-0.2-0.1-0.4-0.4-0.4-0.6
					c-0.2-3.1-0.4-6.2-0.4-9.4c0-4.6,0.7-9.2,1.5-13.7c1.2-7.3,2.5-14.5,3.8-21.7c2-11.8,3.8-23.6,5.2-35.4
					c0.4-3.4,0.8-6.7,1.1-10.1c0.2-2.5,0.2-5,0.2-7.5c0-0.2-0.1-0.4-0.1-0.7C99.2,183.4,99.1,183.4,99.1,183.4"/>
				<path class="st4" d="M167.2,117.4c0.9,0.4,1.8,0.9,2.7,1.3c0.2,0.1,0.5,0,0.8,0c0-0.1,0.1-0.1,0.1-0.2c-0.5-0.5-0.9-1-1.4-1.4
					c-0.6-0.5-1.3-0.8-1.9-1.3c-0.2-0.2-0.5-0.5-0.5-0.7c-0.3-1.8-1.2-3.3-2.6-4.5c-0.7-0.5-1.4-1.1-2.1-1.6
					c-0.2-0.2-0.5-0.2-0.7-0.4c0,0-0.1,0.1-0.1,0.1c0.1,0.2,0.2,0.4,0.4,0.6c0.8,1.1,1.7,2.2,2.5,3.4c1.2,1.7,1.3,3.6,0.8,5.7
					c-0.3-0.1-0.6-0.2-0.8-0.3c-3.1-1.6-5.6-3.8-7.4-6.8c-0.9-1.5-1.7-3-3.1-4.2c-1-0.9-2.2-1.4-3.5-1.6c-0.3,0-0.6,0-0.9,0
					c0,0.1,0,0.1-0.1,0.2c0.2,0.1,0.3,0.3,0.5,0.4c0.8,0.7,1.7,1.3,2.5,2c2.3,1.9,3.1,4.5,3.3,7.4c0,0.7,0,1.5,0,2.4
					c-1.4-0.2-2.6-0.4-3.9-0.6c-5.5-1.1-10.3-3.6-14.7-7.1c-2.4-1.9-4.9-3.8-7.4-5.6c-2.3-1.6-4.9-2.8-7.7-3.3
					c-1.7-0.3-3.3-0.3-5,0.4c-0.1,0-0.2,0.1-0.2,0.1c-1.4,0.3-2,1.5-1.3,2.8c2,3.6,1.2,8.6-1.8,11.4c-0.3,0.2-0.6,0.4-0.9,0.7
					c-0.2-0.6-0.4-1.1-0.6-1.5c-0.2-0.3-0.5-0.7-0.8-0.8c-0.5-0.2-1,0.2-1.1,0.9c-0.2,1.6-0.7,3.2-1.6,4.6c-0.5,0.8-1.2,1.5-1.9,2.3
					c-0.3,0.3-0.6,0.3-0.9-0.2c-2.1-3.7-5.6-4.4-9-2c0,0-0.1,0-0.2,0.1c-0.1-0.2-0.3-0.5-0.4-0.8c-2.1-4.9-2-9.8,0-14.7
					c1.4-3.5,3.8-6.2,6.6-8.7c0.3-0.2,0.6-0.5,0.7-0.8c0.1-0.2,0.1-0.7,0-0.9c-0.2-0.2-0.6-0.3-0.9-0.2c-0.3,0-0.5,0.3-0.7,0.5
					c-1.2,1.1-2.3,2.3-3.5,3.4c-0.2,0.2-0.4,0.4-0.7,0.5c-2,0.6-4.1,1.1-6.1,1.6c-0.2,0.1-0.5,0-0.8,0.1c0-0.4,0-0.7,0.1-1
					c0.2-0.6,0.3-1.3,0.5-1.9c1-3.4,3.2-5.8,6.5-7.1c2-0.8,4-1.3,6.1-1.5c0.5,0,1.1-0.1,1.2-0.7c0.1-0.7-0.3-1-0.9-1.3
					c-1.9-0.8-3.9-1-5.9-1.2c-0.8-0.1-1.5-0.1-2.5-0.2c0.3-0.3,0.5-0.4,0.7-0.6c4.3-2.6,8.8-3.5,13.7-2c1.2,0.4,2.3,1,3.1,2
					c0.3,0.4,0.7,0.7,1.2,0.4c0.5-0.2,0.6-0.7,0.5-1.2c-0.2-1-0.4-2.1-0.8-3c-0.8-1.8-1.8-3.5-2.7-5.2c-0.2-0.3-0.3-0.6-0.6-1
					c0.5,0.1,0.8,0.1,1.1,0.2c3.8,1.1,7,3.2,9.5,6.2c0.5,0.6,0.9,1.4,1.3,2.1c0.4,0.7,1.1,0.8,1.6,0.1c1.7-2.7,4.2-4.2,7-5.5
					c2.4-1.1,4.9-1.8,7.5-2.2c0.1,0,0.3,0,0.4,0c0,0,0.1,0,0.2,0.1c-0.1,0.2-0.1,0.3-0.2,0.5c-1.3,2.1-2.6,4.1-4.6,5.7
					c-0.2,0.1-0.4,0.3-0.5,0.5c-0.1,0.3-0.3,0.8-0.2,1c0.2,0.3,0.6,0.5,1,0.5c0.5,0,0.9-0.2,1.3-0.4c4.3-1.7,8.7-2.5,13.3-2.4
					c1.5,0.1,3.1,0.3,4.6,0.6c3.7,0.7,6.5,2.9,8.4,6.1c1.5,2.5,2.9,5.2,4.4,7.8c1.3,2.2,2.6,4.4,4.1,6.5c2.4,3.3,5.5,5.8,9.2,7.6
					c0.2,0.1,0.5,0.3,0.7,0.4l0,0.2c-1.5,0.1-3,0.2-4.5,0.3c-0.3,0-0.6,0-0.9,0c-0.5,0-1,0.1-1.2,0.7c-0.2,0.5,0,1,0.3,1.4
					c0.3,0.4,0.6,0.7,1,1c1.2,1.2,2.3,2.5,3,4c0.5,1,0.8,1.9,0.8,3c0,0.7-0.3,1.3-1,1.6c-0.4,0.2-0.8,0.6-0.7,1.1
					c0.2,0.6,0.6,0.8,1.2,0.8c0.2,0,0.5,0,0.8,0c-0.2,0.3-0.3,0.5-0.5,0.6c-2.6,2.9-5.9,4.5-9.7,5.3c-1.9,0.4-3.8,0.6-5.7,0.9
					c-0.1,0-0.3,0-0.4,0c-1.5-0.3-2.8,0.1-4,0.9c-0.1,0.1-0.2,0.1-0.3,0.1c0.8-4.4,1.7-8.7,2.5-13.1c0.3,0.1,0.6,0.4,1,0.5
					c0.6,0.3,1.2,0.6,1.9,0.9c1,0.3,1.8,0,2.1-1C167,118.6,167.1,117.9,167.2,117.4"/>
				<path class="st2" d="M84.2,421.6c0.1-0.7,0.1-1.2,0.2-1.7c0.2-1.5,0.3-3,0.5-4.5c0-0.2,0.3-0.6,0.5-0.6c4.6-1,8.7-3.3,12.9-5.5
					c2.8-1.5,5.6-3.2,8.4-4.8c0.3-0.2,0.5-0.4,0.7-0.5c0-0.1-0.1-0.1-0.1-0.2c-0.2,0.1-0.4,0.1-0.6,0.2c-2.1,1-4.1,2.1-6.2,3.1
					c-3.8,1.9-7.6,3.7-11.4,5.5c-1.2,0.6-2.6,0.9-4,1.3c0.9-16,0.9-31.8,2.2-47.8c0.3,0.3,0.5,0.5,0.7,0.7c2.5,2.9,4.9,5.7,7.4,8.6
					c0.8,1,1.4,2,1.7,3.3c0.8,3.3,4.6,5.7,7.9,5c1.7-0.4,3.3-1.1,4.7-2c0.2-0.1,0.3-0.3,0.5-0.5c0-0.1-0.1-0.1-0.1-0.2
					c-0.3,0.1-0.6,0.1-0.8,0.2c-1.1,0.4-2.3,0.9-3.4,1.3c-2.9,1-5.3,0.1-7.3-2.6c-0.3-0.5-0.5-1.1-0.6-1.7c-0.2-1.1-0.6-2.1-1.3-2.9
					c-1.7-2.1-3.4-4.1-5.1-6.1c-0.9-1.1-1.9-2.2-2.9-3.2c-0.1-0.2-0.3-0.3-0.3-0.6c0.1,0.1,0.3,0.2,0.4,0.3c2.4,2.3,4.9,4.6,7.3,6.9
					c0.8,0.8,1.6,1.7,2.5,2.4c2,1.7,4.3,2.2,6.7,1.6c1.2-0.3,2.4-0.7,3.5-1.2c2.8-1.3,5.4-2.9,7.6-5.1c0.4-0.4,0.7-0.8,1.1-1.2
					c0.1,1.3,0.2,2.6,0.2,3.8c0.2,3.4,0.3,6.9,1,10.2c0.1,0.3,0,0.6,0,1c0.1,8.9,0.1,17.8,0.3,26.7c0.1,6.1,0.5,12.1,0.8,18.2
					c0.1,1.4,0.1,2.8,0.1,4.3c0,1.7,0.2,3.3,0.7,4.9c0.3,0.9,0.3,1.8,0.5,2.7c0.1,0.4-0.1,0.6-0.5,0.6c-1,0-1.9,0-2.9,0
					c-0.2,0-0.5-0.1-0.6-0.3c-4.5-3.9-9.8-5.8-15.8-6c-4.9-0.2-9.7,0.6-14.1,2.9c-1.7,0.9-3.2,2.1-4.5,3.7c-0.1,0.1-0.2,0.2-0.3,0.3
					c-0.7-0.5-0.9-0.9-0.7-1.5c1.2-2.6,1.4-5.4,1.6-8.1c0.1-1.1,0.1-2.3,0.2-3.4c0-0.6,0.2-0.9,0.9-1.1c8.4-2.7,16.7-5.9,24.8-9.4
					c1.2-0.5,2.3-1,3.5-1.5c0.2-0.1,0.4-0.3,0.5-0.5c0.5-1.1,0.6-2.3,0.1-3.5c-0.3-0.8-0.9-1.2-1.7-1c-0.7,0.1-1.4,0.3-2.1,0.6
					c-4,1.7-8,3.4-12,5.1c-3.5,1.5-7.1,2.9-10.9,3.7C85.8,421.3,85.1,421.4,84.2,421.6"/>
				<path class="st5" d="M106.8,123.7c2.6-1.1,3.6-3.5,4.5-6c1.2,0.8,1.9,0.8,3.1-0.3c2-1.7,3.3-3.9,3.5-6.6c0.2-1.6,0-3.2-0.1-4.8
					c-0.1-0.7-0.5-1.4-0.8-2c-0.4-0.7-0.2-1.3,0.7-1.4c3.1-0.4,6,0.5,8.7,2c2.8,1.5,5.2,3.5,7.7,5.5c2.9,2.4,5.9,4.7,9.3,6.3
					c3.8,1.8,7.8,2.9,11.9,3.3c1.5,0.1,1.9-0.2,2-1.7c0.1-1,0-1.9,0-3.1c0.4,0.4,0.6,0.7,0.9,1c0.2,0.2,0.4,0.5,0.6,0.6
					c1,0.6,1.1,1.5,0.9,2.5c-0.5,2.9-0.8,5.9-1.5,8.7c-1.5,6.5-3.5,12.8-5.9,18.9c-1.3,3.4-3,6.6-5.3,9.4c-3.2,3.9-7.1,6.6-12.1,7.6
					c-1.5,0.3-3.2,0.1-4.8,0.3c-2.6,0.3-4.9-0.7-7.3-1.6c-2.4-0.9-4.4-2.5-6.3-4.2c-4.2-3.8-6.4-8.7-7.2-14.2
					c-0.9-5.9-1.8-11.8-2.7-17.8C106.6,125.5,106.8,124.6,106.8,123.7 M116.8,121.4c-1.1,0.1-1.9,0.2-2.7,0.3
					c-1.1,0.2-1.7,0.9-1.9,2c-0.1,0.6-0.1,1.1-0.2,1.7c-0.3,4.5,2.7,8.7,7,9.8c3.4,0.9,6.3-0.2,8.1-2.9c0.7-1.1,0.8-2.2,0.4-3.3
					c-0.3-0.8-0.7-1.6-1.1-2.4c-1.1-2.1-2.7-3.6-5.1-4.2C119.8,121.9,118.1,121.7,116.8,121.4 M146.9,127.7c-2,0-4,0.3-5.7,1.4
					c-1.4,0.9-2.5,2-2.7,3.7c-0.3,2.7,0.6,5.1,3.6,6.3c4.5,1.9,10-0.3,11.8-4.7c1.1-2.7,0.1-5-2.6-6.1
					C149.9,127.9,148.4,127.7,146.9,127.7 M131.7,154c1.5-0.2,2.9-0.3,4.4-0.6c1.9-0.3,3.7-0.8,5.3-2c0.8-0.6,1.3-1.4,1.5-2.3
					c0.1-0.5,0-0.9-0.5-1.1c-0.5-0.1-0.8,0.2-1,0.7c-0.1,0.4-0.3,0.8-0.6,1.1c-0.6,0.5-1.2,0.9-1.9,1.1c-3.5,1.3-7,1.7-10.7,1
					c-4.4-0.8-7.4-3.5-9.5-7.4c-0.2-0.3-0.3-0.7-0.5-1c-0.1-0.1-0.3-0.2-0.4-0.2c-0.1,0-0.3,0.2-0.3,0.3c0,0.4,0,0.7,0.1,1.1
					c0.9,2.7,2.5,4.9,4.8,6.5C125.2,153.3,128.3,153.9,131.7,154 M119.2,120.3c3.4,0,6.6,0.8,9.6,2.4c0.6,0.3,1.2,0.3,1.8-0.1
					c0.6-0.4,0.6-0.9,0.5-1.5c-0.1-1-0.6-1.6-1.4-2.1c-2.1-1.3-4.3-2.2-6.7-2.5c-1.5-0.2-3.1-0.1-4.5,0.6c-0.7,0.4-1.3,0.9-1.6,1.6
					c-0.3,0.9,0.1,1.6,1.1,1.6C118.4,120.3,118.8,120.3,119.2,120.3 M150.9,125.4C150.9,125.4,150.9,125.4,150.9,125.4
					c0.1,0,0.3,0,0.4,0c0.5-0.1,1-0.2,1.3-0.8c0.2-0.5-0.1-1-0.4-1.3c-0.3-0.3-0.6-0.6-0.9-0.8c-2.3-1.6-4.9-2.1-7.7-2.1
					c-1.2,0-2.4,0.2-3.5,0.9c-0.5,0.3-0.9,0.8-1.2,1.4c-0.3,0.8,0.1,1.4,0.9,1.5c0.8,0.1,1.7,0.2,2.5,0.3c1.4,0.1,2.9,0.2,4.3,0.4
					C148,125,149.5,125.2,150.9,125.4 M135,140.5c-0.1,0-0.2,0.1-0.2,0.1c0.1,0.6,0.1,1.1,0.2,1.7c0.2,1,0,1.3-1,1.5
					c-1.9,0.4-3.6,0.1-5.3-0.9c-0.6-0.4-0.9-0.9-1-1.6c0-0.3-0.2-0.5-0.3-0.8c-0.2,0.2-0.6,0.4-0.7,0.6c-0.1,0.4-0.2,0.9-0.1,1.2
					c0.3,0.6,0.7,1.3,1.2,1.8c1.2,1.1,2.8,1.4,4.4,1.5c1.1,0.1,2.2,0,3.1-0.6c0.8-0.4,1.5-1.1,1.4-2.1
					C136.6,141.8,135.9,141.1,135,140.5"/>
				<path class="st6" d="M128.6,440c2,1.1,4,1.4,6,1.3c6.2-0.2,12.4-0.4,18.5-1.8c2.8-0.6,5.7-1,8.3-2.1c1.5-0.6,2.9-1.4,4.3-2
					c0.3-0.1,0.5-0.3,0.8-0.3c3.7-0.3,7.4-0.6,11.2-0.3c3.9,0.2,6.7,2.4,8.8,5.6c1.6,2.5,2.7,5.3,3.3,8.2c0.5,2.4,0.9,4.8,1.3,7.2
					c0.2,1.4-0.3,2.3-1.7,2.9c-2.7,1.1-5.5,1.6-8.4,1.6c-4.5,0.1-8.9-0.5-13.3-1c-4.9-0.6-9.8-1.4-14.6-2.6
					c-3.2-0.8-6.5-0.6-9.7-0.4c-1.4,0.1-2.8,0.2-4.3,0.3c-4.8,0.1-8.4-2.4-9.5-7.1c-0.6-2.4-0.7-4.9-1-7.4
					C128.7,441.3,128.6,440.7,128.6,440"/>
				<path class="st6" d="M96.9,459.4c-4.6,0.2-9.2,0.5-13.8,0c-1-0.1-1.9-0.2-2.9-0.4c-1.1-0.2-1.5-0.8-1.3-1.9
					c0.8-3.2,1.5-6.4,2.4-9.6c1.2-4.2,3.9-7.1,7.9-8.7c8-3.2,15.9-3,23.6,1.3c3.6,2,5.8,5.2,7.2,9c0.4,1,0.6,2.1,0.9,3.2
					c0.7,2.5-0.8,4.2-2.6,5c-1.3,0.6-2.8,0.9-4.3,1c-4.5,0.4-9,0.6-13.5,0.9C99.3,459.3,98.1,459.3,96.9,459.4"/>
				<path class="st5" d="M82.3,195.2c0.3,0.1,0.5,0.1,0.7,0.2c4.3,1.6,8.7,2.9,13.2,4c0.4,0.1,0.5,0.3,0.5,0.7
					c-0.2,1.6-0.4,3.2-0.7,4.7c-0.1,0.8-0.4,1.6-0.7,2.4c-2.1,5.7-4.2,11.3-6.2,17c-0.9,2.3-1.7,4.7-2.5,7.1
					c-0.1,0.4-0.3,0.5-0.7,0.7c-0.8,0.3-1.5,0.6-2.2,1.1c-3,2.4-5.5,5.2-7.8,8.2c-1.6,2.1-3,4.3-4,6.7c-1,2.4-1,2.4-0.8,4.9
					c-1.5-0.8-2.9-1.5-3.4-3.1c-0.1-0.4,0-1,0.1-1.4c3.8-11,6.6-22.3,9.6-33.5c1.7-6.3,3.1-12.7,4.6-19
					C82.2,195.7,82.2,195.5,82.3,195.2"/>
				<path class="st5" d="M149.7,235.7c1.1,0.2,2,0.4,2.9,0.7c1.9,0.7,3.4,2.1,4.8,3.5c1.1,1.2,2.3,2.3,3.4,3.5
					c0.2,0.2,0.4,0.3,0.6,0.4c0,0,0.1-0.1,0.1-0.1c-0.1-0.2-0.1-0.4-0.2-0.6c-1.4-2.8-3.4-5.1-6-6.9c-1.5-1-3.2-1.7-5.1-1.7
					c-0.5,0-0.6-0.2-0.6-0.6c0-7.8-0.1-15.6-0.1-23.3c0-0.8,0-1.6,0.1-2.4c0-0.2,0.1-0.5,0.3-0.5c2.8-1.4,5.6-2.9,8.5-4.3
					c0.2-0.1,0.3-0.2,0.6-0.3c0.1,1,0.3,1.9,0.3,2.7c0.5,5.6,0.9,11.2,1.3,16.8c0.6,6.9,1.2,13.8,1.9,20.7c0.2,2,0.5,4,0.7,6
					c0,0.4-0.2,0.9-0.4,1.2c-1.6,1.9-3.7,3.1-6,3.8c-2.1,0.6-4.2,0.7-6.3,0.5c-0.5,0-0.5-0.3-0.5-0.7c-0.1-3.2-0.2-6.5-0.3-9.7
					c0-2.6,0-5.2,0-7.8C149.7,236.4,149.7,236.2,149.7,235.7"/>
				<path class="st5" d="M117.4,161.1c2.6,1.9,5.4,3.1,8.4,3.9c3,0.8,6,1,9.1,0.6c-0.1,0.7-0.2,1.4-0.3,2.1c-0.5,3.1-1,6.2-1.4,9.3
					c-0.3,2.5-1.7,4-3.9,4.8c-3,1.2-5.9,1.5-9,0.2c-3-1.4-4.1-3.2-3.6-6.5c0.3-2.3,0.6-4.6,0.8-6.9c0.3-2.3,0.2-4.7-0.1-7
					C117.4,161.5,117.4,161.4,117.4,161.1"/>
				<path class="st7" d="M79.7,460.7c1.2,0.2,2.4,0.3,3.6,0.5c4,0.5,8.1,0.3,12.1,0.1c4.5-0.2,9-0.5,13.5-0.7c2-0.1,4-0.3,6-0.6
					c2.5-0.3,4.9-0.8,6.6-3.1c0.8,1.5,1.2,3,1,4.6c0,0.3-0.1,0.5-0.2,0.8c-0.4,1.6-1.2,2.6-3,2.7c-2.6,0.1-5.1,0.4-7.7,0.5
					c-6.3,0.4-12.6,0.8-18.8,1.1c-3.2,0.2-6.4,0.1-9.6,0.1c-0.3,0-0.6-0.1-0.9-0.1c-1.1-0.2-1.8-0.7-2.2-1.8
					C79.7,463.5,79.5,461.6,79.7,460.7"/>
				<path class="st7" d="M130.7,454.9c0.7,0.5,1.4,1.1,2.1,1.5c1.6,1.1,3.4,1.7,5.4,1.6c2.2,0,4.3-0.2,6.5-0.3
					c3.3-0.2,6.6,0,9.9,0.8c8.2,2,16.6,3,25.1,3.3c3.4,0.1,6.7-0.3,9.9-1.5c0.5-0.2,0.9-0.4,1.5-0.6c0.2,1.1,0.5,2.3,0,3.3
					c-0.2,0.5-0.8,1-1.3,1.2c-1,0.3-2,0.6-3.1,0.6c-4.2,0.3-8.4-0.1-12.6-0.6c-4.6-0.5-9.1-1.2-13.7-1.6c-3-0.3-5.9-0.3-8.9-0.4
					c-2.5-0.1-5.1-0.2-7.6-0.3c-2.8,0-5.6,0-8.3,0c-0.6,0-1.2,0-1.8-0.2c-2.2-0.6-3-1.7-3.2-4C130.3,456.9,130.3,455.9,130.7,454.9"
					/>
				<path class="st5" d="M73.4,253.6c-0.6-1-1.1-2-0.7-3.2c1.2-3.6,3.2-6.8,5.6-9.7c1.7-2,3.6-3.9,5.5-5.8c0.5-0.5,1.1-0.9,1.7-1.3
					c0.5-0.4,1.2-0.4,1.7,0c1.2,0.9,2.4,1.9,3.6,2.8c0.1,0.1,0.2,0.5,0.2,0.7c-0.7,4-1.4,8-2.2,12c0,0.2-0.2,0.5-0.4,0.6
					c-1.2,0.8-2,1.9-2.3,3.3c-0.2,1-0.5,1.9-0.8,2.8c-1.1-0.2-1.5-0.7-1.3-1.7c0.3-2.5,1.3-4.9,2.2-7.2c0.1-0.3,0.3-0.7,0.5-1
					c0.5-1.1,0.5-1.1,1.8-1.1c0.3,0,0.5-0.2,0.8-0.3c-0.2-0.2-0.3-0.6-0.5-0.7c-0.4-0.2-0.8-0.4-1.3-0.5c-0.6-0.2-1.1,0.1-1.4,0.6
					c-0.5,0.9-1.2,1.7-2,2.3c-1,0.7-1.1,1.8-0.8,2.9c0.2,0.7,0.1,1.3-0.1,2c-0.3,0.9-0.5,1.8-0.6,2.8c-0.1,0.5,0,1,0.1,1.5
					c0.2,0.5-0.3,0.6-0.5,0.8c-0.1,0.1-0.5-0.1-0.6-0.3c-0.3-0.9-0.8-1.8-0.9-2.8c-0.2-2.1-0.2-4.2-0.3-6.3c0-1.4,0.7-2.5,1.6-3.5
					c0.9-1,1.9-2.1,2.8-3.1c0.2-0.2,0.2-0.5,0.3-0.8c-0.3,0.1-0.6,0-0.8,0.2c-1.7,1.2-3.2,2.5-4.3,4.2c-0.5,0.7-0.8,1.6-0.9,2.5
					c-0.3,2.6-0.1,5.3,0.3,7.9c0.1,0.4,0.1,0.7,0.3,1.1c0.6,1.3,0.2,2.5-0.3,3.7c-0.2,0.7-0.5,0.7-1,0.1c-0.7-0.9-0.9-2-1.1-3.1
					c-0.3-1.9-0.5-3.7-0.8-5.6c-0.2-1.1,0-2,0.4-3c1-2.1,2-4.1,3-6.2c0.1-0.3,0.1-0.7,0.1-1.1c-0.3,0.2-0.7,0.4-0.8,0.7
					c-1.2,2.1-2.4,4.2-3.6,6.3c-0.7,1.3-0.6,2.6-0.4,4c0.1,0.5,0,0.7-0.4,1C74.4,252.7,74,253.2,73.4,253.6"/>
				<path class="st5" d="M105.9,131.2c0.3,2.1,0.5,4.1,0.7,6c0,0,0,0,0,0.1c0.2,1.4-0.4,2-1.8,2c-1.6,0-2.9-0.6-4.1-1.6
					c-2.3-2-3.5-4.5-4.2-7.3c-0.5-1.8-0.7-3.6-0.4-5.4c0.1-0.7,0.3-1.3,0.6-1.9c1.1-2.3,3.2-3.2,5.6-2.3c0.3,0.1,0.6,0.2,0.8,0.5
					c1.2,1.3,2.2,2.7,2.3,4.6c0.1,1.2,0.1,2.3,0.3,3.5c0,0.5-0.1,0.7-0.5,0.9c-2,0.9-3.2,2.4-3.6,4.6c0,0.3-0.1,0.6,0,0.8
					c0.2,0.3,0.5,0.7,0.7,0.7c0.3,0,0.6-0.3,0.8-0.6c0.1-0.2,0.1-0.5,0.1-0.7C103.5,133.2,104.4,132.1,105.9,131.2"/>
				<path class="st2" d="M83.6,426.8c0.1-1,0.2-1.9,0.2-2.7c0.2-1.6,0.2-1.6,1.7-1.8c3.5-0.6,6.9-1.8,10.2-3.2
					c4.4-1.8,8.8-3.7,13.2-5.5c0.8-0.3,1.5-0.6,2.3-0.8c0.8-0.2,1.2,0,1.3,0.8c0.1,0.5,0,1,0,1.5c0,0.2-0.3,0.5-0.5,0.6
					c-3.6,1.6-7.2,3.3-10.8,4.7c-5.5,2.1-11.1,4.1-16.6,6.1C84.3,426.7,84,426.7,83.6,426.8"/>
				<path class="st2" d="M90.3,301.5c0.1-5.4,0.2-10.9,0.3-16.3c3.7,0.5,7.4,0.9,11.1,1.4c-3.5,5.1-7.3,10.1-11.3,15
					C90.4,301.5,90.3,301.5,90.3,301.5"/>
				<path class="st5" d="M154.2,147.2c0.7-2,1.3-3.9,2-5.8c0.7,0.3,1,0.8,1.3,1.5c0.3,0.8,0.7,1,1.1,0.9c0.5-0.2,0.6-0.8,0.3-1.5
					c-0.4-1-1.2-1.7-2.4-2c0.4-1.3,0.9-2.5,1.2-3.8c0.3-1.1,0.9-1.9,1.7-2.6c0.6-0.5,1.4-0.9,2.2-1.2c1.2-0.4,2.1,0.1,2.6,1.3
					c0.5,1.2,0.6,2.4,0.3,3.7c-1.2,4.8-4,8-8.8,9.4c-0.5,0.1-0.9,0.2-1.4,0.3C154.4,147.3,154.4,147.3,154.2,147.2"/>
				<path class="st2" d="M140.9,283.8c1.7-0.4,3.5-0.8,5.3-1.2v11.9C144.4,291,142.7,287.4,140.9,283.8"/>
				<path class="st5" d="M75.6,253.5c0.1,0.4,0.1,0.7,0.2,1.2c-0.3-0.1-0.6-0.2-0.9-0.3c0.2-0.3,0.4-0.6,0.6-0.9L75.6,253.5z"/>
				<path class="st1" d="M116.8,121.4c1.3,0.3,3,0.5,4.5,0.9c2.3,0.6,3.9,2.2,5.1,4.2c0.4,0.8,0.8,1.6,1.1,2.4
					c0.5,1.2,0.3,2.3-0.4,3.3c-1.7,2.7-4.7,3.8-8.1,2.9c-4.3-1.1-7.3-5.3-7-9.8c0-0.6,0.1-1.1,0.2-1.7c0.1-1.1,0.8-1.8,1.9-2
					C114.9,121.5,115.7,121.5,116.8,121.4 M126,130.5c-0.2,0.2-0.4,0.4-0.6,0.6c-2.2,1.9-5.1,1.7-6.8-0.5c-0.8-1.1-1.2-2.3-1.3-3.7
					c-0.1-1.3,0.2-2.5,1-3.7c-1.3,0-2.5,0-3.7,0c-0.2,0-0.6,0.4-0.6,0.6c-0.9,4,1,7.3,3.8,8.9c1.9,1.1,3.8,1.2,5.9,0.5
					C124.9,132.9,125.6,131.9,126,130.5 M118.7,126.4c0.1,1.1,0.4,2.1,0.9,2.9c0.8,1.2,2,1.6,3.3,1.2c1.1-0.4,1.9-1.2,2.3-2.3
					c0.1-0.2,0.1-0.5-0.1-0.7c-1-1.7-2.3-3-4.2-3.6c-0.7-0.2-1.2-0.2-1.6,0.5C119.1,125.1,119,125.8,118.7,126.4"/>
				<path class="st1" d="M146.9,127.7c1.5,0,3,0.2,4.4,0.7c2.7,1.1,3.7,3.3,2.6,6.1c-1.8,4.4-7.3,6.6-11.8,4.7
					c-3-1.2-3.9-3.6-3.6-6.3c0.2-1.7,1.3-2.8,2.7-3.7C142.9,128,144.9,127.7,146.9,127.7 M149.3,129.6c0.1,0.9,0.3,1.8,0.2,2.7
					c-0.1,2.7-2,4.7-4.5,4.7c-2.6,0-4.5-1.9-4.6-4.6c0-0.1,0-0.2-0.1-0.4c-0.4,0.4-0.7,0.8-0.5,1.3c0.2,0.5,0.1,1.1,0.3,1.5
					c0.3,0.7,0.6,1.4,1.2,1.9c3.5,2.8,9.1,1.4,10.9-2.7C153.2,131.7,151.8,129.5,149.3,129.6 M148,131.8c-0.3-0.7-0.5-1.4-0.8-2.1
					c-0.1-0.2-0.4-0.4-0.6-0.3c-1.3,0.2-2.5,0.4-3.8,0.7c-0.2,0-0.5,0.2-0.6,0.5c-1.1,2.2,0.3,4.7,2.6,4.8
					C146.6,135.4,147.9,133.9,148,131.8"/>
				<path class="st1" d="M131.7,154c-3.3-0.1-6.5-0.8-9.2-2.7c-2.3-1.7-4-3.8-4.8-6.5c-0.1-0.3-0.1-0.7-0.1-1.1
					c0-0.1,0.2-0.3,0.3-0.3c0.1,0,0.3,0.1,0.4,0.2c0.2,0.3,0.4,0.6,0.5,1c2,3.9,5,6.6,9.5,7.4c3.6,0.7,7.2,0.3,10.7-1
					c0.7-0.2,1.3-0.7,1.9-1.1c0.3-0.2,0.5-0.7,0.6-1.1c0.2-0.5,0.5-0.8,1-0.7c0.6,0.1,0.7,0.6,0.5,1.1c-0.2,1-0.8,1.7-1.5,2.3
					c-1.6,1.2-3.4,1.7-5.3,2C134.6,153.7,133.1,153.8,131.7,154"/>
				<path class="st1" d="M119.2,120.3c-0.4,0-0.8,0-1.2,0c-0.9,0-1.4-0.7-1.1-1.6c0.3-0.8,0.9-1.3,1.6-1.6c1.4-0.7,2.9-0.8,4.5-0.6
					c2.4,0.3,4.6,1.2,6.7,2.5c0.8,0.5,1.3,1.2,1.4,2.1c0.1,0.6,0,1.2-0.5,1.5c-0.6,0.4-1.1,0.4-1.8,0.1
					C125.8,121.1,122.6,120.3,119.2,120.3 M118.5,118.7c1.6,0.2,3.1,0.3,4.5,0.5c2.1,0.4,4,1.1,5.8,2.2c0.2,0.1,0.5,0.1,0.7,0.1
					c0-0.2,0.1-0.5,0.1-0.6c-0.1-0.3-0.3-0.7-0.6-0.8c-1.4-0.7-2.8-1.4-4.2-1.9c-1.3-0.5-2.7-0.7-4.1-0.5
					C119.9,117.9,119.1,118.1,118.5,118.7"/>
				<path class="st1" d="M150.9,125.4c-1.4-0.2-2.9-0.4-4.3-0.6c-1.4-0.2-2.9-0.2-4.3-0.4c-0.8-0.1-1.7-0.1-2.5-0.3
					c-0.8-0.1-1.3-0.7-0.9-1.5c0.2-0.5,0.7-1,1.2-1.4c1-0.7,2.2-0.9,3.5-0.9c2.8-0.1,5.3,0.5,7.7,2.1c0.3,0.2,0.6,0.5,0.9,0.8
					c0.4,0.4,0.6,0.8,0.4,1.3c-0.2,0.6-0.7,0.7-1.3,0.8C151.2,125.4,151,125.4,150.9,125.4C150.9,125.4,150.9,125.4,150.9,125.4
					 M150.4,123.9c0-0.1,0-0.1,0-0.2c-2.9-1.7-5.9-2.3-9.2-1.3c-0.3,0.1-0.5,0.3-1,0.5c0.8,0.2,1.4,0.4,1.9,0.5
					c1.8,0.1,3.7,0.1,5.5,0.3C148.6,123.7,149.5,123.8,150.4,123.9"/>
				<path class="st1" d="M135,140.5c0.9,0.6,1.6,1.4,1.7,2.5c0.1,1-0.6,1.6-1.4,2.1c-1,0.5-2.1,0.6-3.1,0.6
					c-1.6-0.1-3.1-0.4-4.4-1.5c-0.5-0.4-0.9-1.1-1.2-1.8c-0.2-0.3,0-0.9,0.1-1.2c0.1-0.3,0.5-0.4,0.7-0.6c0.1,0.3,0.3,0.5,0.3,0.8
					c0.1,0.7,0.4,1.3,1,1.6c1.6,1,3.4,1.3,5.3,0.9c1-0.2,1.1-0.5,1-1.5c-0.1-0.6-0.1-1.1-0.2-1.7C134.8,140.5,134.9,140.5,135,140.5
					"/>
				<path class="st8" d="M126,130.5c-0.3,1.3-1.1,2.3-2.4,2.8c-2,0.7-4,0.6-5.9-0.5c-2.8-1.6-4.7-4.9-3.8-8.9
					c0.1-0.2,0.4-0.6,0.6-0.6c1.2-0.1,2.4,0,3.7,0c-0.8,1.1-1.1,2.4-1,3.7c0.1,1.3,0.5,2.6,1.3,3.7c1.7,2.2,4.6,2.4,6.8,0.5
					C125.5,130.9,125.7,130.7,126,130.5"/>
				<path class="st9" d="M118.7,126.4c0.2-0.7,0.4-1.4,0.7-2c0.4-0.7,0.8-0.8,1.6-0.5c1.9,0.6,3.2,1.9,4.2,3.6
					c0.1,0.2,0.1,0.5,0.1,0.7c-0.4,1.1-1.2,1.9-2.3,2.3c-1.3,0.5-2.5,0-3.3-1.2C119.1,128.5,118.9,127.5,118.7,126.4"/>
				<path class="st8" d="M149.3,129.6c2.5-0.1,4,2,2.9,4.3c-1.9,4.1-7.4,5.5-10.9,2.7c-0.5-0.4-0.9-1.2-1.2-1.9
					c-0.2-0.5-0.2-1-0.3-1.5c-0.2-0.6,0.1-0.9,0.5-1.3c0,0.2,0,0.3,0.1,0.4c0.1,2.7,2.1,4.6,4.6,4.6c2.5,0,4.5-2,4.5-4.7
					C149.6,131.4,149.4,130.5,149.3,129.6"/>
				<path class="st9" d="M148,131.8c-0.2,2.1-1.4,3.6-3.2,3.5c-2.3-0.1-3.7-2.6-2.6-4.8c0.1-0.2,0.4-0.4,0.6-0.5
					c1.3-0.3,2.5-0.5,3.8-0.7c0.2,0,0.5,0.2,0.6,0.3C147.5,130.4,147.8,131.1,148,131.8"/>
				<path class="st4" d="M118.5,118.7c0.6-0.6,1.4-0.8,2.2-0.9c1.4-0.2,2.8,0,4.1,0.5c1.4,0.5,2.8,1.2,4.2,1.9
					c0.3,0.1,0.5,0.5,0.6,0.8c0.1,0.2,0,0.4-0.1,0.6c-0.2,0-0.5,0-0.7-0.1c-1.8-1.1-3.7-1.9-5.8-2.2
					C121.6,119,120.1,118.9,118.5,118.7"/>
				<path class="st4" d="M150.4,123.9c-0.9-0.1-1.8-0.3-2.7-0.3c-1.8-0.1-3.7-0.1-5.5-0.3c-0.6,0-1.2-0.3-1.9-0.5
					c0.4-0.2,0.7-0.4,1-0.5c3.3-1,6.3-0.3,9.2,1.3C150.4,123.8,150.4,123.8,150.4,123.9"/>
			</g>
		</g>
	</g>
	<g>
		<g>
			<defs>
				<rect id="SVGID_5_" x="329" y="122.1" width="287" height="262.4"/>
			</defs>
			<clipPath id="SVGID_6_">
				<use xlink:href="#SVGID_5_"  style="overflow:visible;"/>
			</clipPath>
			<g class="st10">
				<defs>
					<rect id="SVGID_7_" x="329" y="122.1" width="287" height="262.4"/>
				</defs>
				<clipPath id="SVGID_8_">
					<use xlink:href="#SVGID_7_"  style="overflow:visible;"/>
				</clipPath>
				<path class="st11" d="M597.4,304.7c-0.1,0.4-0.2,0.8-0.3,1.2c-0.6,1.3-1.5,2.3-2.9,2.6c-1.1,0.2-2.2,0.4-3.4,0.4
					c-7.9,0.2-15.7-0.3-23.5-1.8c-2.1-0.4-4.1-0.9-6.1-1.8c-1.2-0.5-2.4-1.1-3.3-2.1c-0.5-0.5-1.1-1.1-1.4-1.8c-0.5-1-0.5-2-0.1-3
					c0.9-2,2.2-3.6,3.8-5.1c0.5-0.5,1-0.9,1.6-1.4c-0.3-0.1-0.4-0.2-0.6-0.3c-2.3-0.7-4.7-1-7.1-1.1c-3.7-0.1-7.4,0.2-11.1,0.4
					c-4.6,0.4-9.1,0.7-13.6,1.2c-4.5,0.5-9,1-13.5,1.7c-8.8,1.3-17.6,2.6-26.5,3.3c-3,0.2-5.9,0.5-8.9,0.3c-3.1-0.3-5.6-1.5-7.5-4
					c-0.1-0.2-0.3-0.4-0.4-0.6c-2.5-3.4-5.9-5.1-10-5.6c-2.9-0.4-5.8-0.3-8.8-0.1c-3.3,0.2-6.5,0.6-9.8,0.8c-0.3,0-0.6,0.1-0.9,0.1
					c0,0.5,0.4,0.4,0.6,0.5c1.1,0.3,2.2,0.5,3.2,0.8c1.8,0.5,3.6,1.2,5.2,2.2c1.7,1.1,2.7,2.6,3,4.5c0.2,1.1,0.1,2.3,0,3.5
					c-0.1,1.5-0.3,3-0.5,4.4c0,0.2-0.1,0.4-0.1,0.6c0,0.9-0.2,1.7-0.6,2.6c-0.3,0.6-0.6,1-1.2,1.4c-5.6,3.8-11.8,5.8-18.4,6.8
					c-4.2,0.7-8.5,0.9-12.8,0.7c-5.8-0.3-11.4-1.7-16.8-3.9c-2.4-1-4.7-2.1-6.8-3.5c-0.2-0.1-0.3-0.2-0.5-0.3
					c-1.2-0.6-1.8-1.6-1.9-2.9c-0.1-1.2-0.3-2.5-0.4-3.7c0-0.3-0.1-0.5-0.1-0.9c-0.6-0.1-1.1-0.1-1.7-0.2c-2-0.4-4-0.8-6-1.3
					c-0.8-0.2-1.5-0.5-2.2-0.9c-0.6-0.3-1.1-0.6-1.6-1c-1.4-1.2-1.6-2.7-0.6-4.3c0.6-1,1.4-1.7,2.3-2.3c1.5-0.9,2.9-1.7,4.5-2.4
					c3.3-1.5,6.9-2.4,10.4-3.2c3.6-0.8,7.3-1.5,10.9-2.3c0.8-0.2,0.8-0.2,0.9-1c0-0.7,0.1-1.4,0.1-2.2c-0.6,0.1-1.1,0.1-1.6,0.1
					c-5.9,0.6-11.7,1.3-17.6,2c-0.4,0-0.8,0.1-1.2,0.3c-5,1.7-10.1,3.4-15.1,5.1c-4.6,1.6-9.1,3.3-13.3,5.7
					c-3.3,1.9-6.3,4.1-8.7,6.9c-0.8,0.9-1.5,1.9-2.1,2.9c-1,1.7-0.6,2.9,0.9,4.1c1.4,1.1,3.1,1.8,4.8,2.4c2.9,1,5.9,1.5,8.9,2
					c4.5,0.7,8.9,1.3,13.4,2c3.3,0.5,6.4,1.3,9.4,2.7c3.5,1.7,6.5,4,9.1,6.9c0.5,0.5,0.9,0.7,1.6,0.6c13.4-2.5,26.9-4.9,40.3-7.3
					c14.6-2.7,29.2-5.3,43.8-8c13-2.4,26-4.7,39-7.1c1-0.2,1.9-0.1,2.8,0.3c9,4.3,18.1,8.6,27.2,12.9c0.4,0.2,0.9,0.4,1.3,0.6
					c0.5,0.2,0.7,0.5,0.7,1c0,1,0,1.9-0.1,2.9c0,0.6-0.2,0.8-0.7,0.9c-2.9,0.6-5.8,1.3-8.6,1.9c-18.5,4.3-37.1,8.5-55.6,12.8
					c-17.2,4-34.3,7.9-51.5,11.9c-10.2,2.4-20.4,4.7-30.6,7.1c-0.1,0-0.2,0-0.3,0.1c-0.9,0.5-1.5,0.1-2.2-0.5
					c-7.9-6.2-15.7-12.3-23.6-18.5c-0.6-0.4-0.8-0.9-0.8-1.6c0-1.7-0.1-3.3-0.2-5c0-1,0.1-1.1,1.1-1.2c2.1-0.3,4.1-0.7,6.2-1.1
					c2.9-0.5,5.8-1,8.6-1.6c0.2,0,0.4-0.1,0.7-0.2c-0.3-0.3-0.5-0.6-0.7-0.8c-4.2-4.3-9.2-7-15.1-8c-3.9-0.7-7.8-1.2-11.8-1.8
					c-3.8-0.6-7.6-1.1-11.3-2.1c-1.7-0.5-3.4-1.1-4.9-2c-0.8-0.4-1.5-0.9-2.2-1.5c-1.5-1.3-1.8-3-1.1-4.8c0.3-0.7,0.7-1.4,1.2-2.1
					c1.3-1.8,2.8-3.3,4.5-4.7c3.5-3,7.5-5.2,11.8-7c4.5-2,9.2-3.5,13.9-5c0.7-0.2,1.5-0.5,2.2-0.7c0.2-0.1,0.4-0.2,0.5-0.4
					c-1.8,0.2-3.6,0.4-5.4,0.6c-5.3,0.6-10.7,1.2-16,1.8c-0.3,0-0.6,0-0.9-0.1c-0.9-0.4-1.9-0.8-2.8-1.2c-0.5-0.2-0.7-0.5-0.7-1
					c-0.4-3.9-0.8-7.8-1.2-11.7c-0.5-4.6-1-9.3-1.5-13.9c-0.5-4.7-1-9.3-1.5-14c-0.5-4.6-1-9.2-1.5-13.8c-0.5-4.7-1-9.3-1.5-14
					c-0.5-4.6-1-9.2-1.5-13.8c-0.5-4.6-1-9.3-1.5-13.9c-0.2-2-0.4-3.9-0.7-5.9c0-0.4-0.2-0.8-0.3-1.2v-0.4c0.5-0.8,1.1-1.6,1.6-2.4
					c0.2-0.3,0.4-0.6,0.6-0.8c0.3-0.3,0.6-0.4,1-0.4c19.4,0.2,38.8,0.4,58.2,0.6c7.1,0.1,14.3,0.2,21.4,0.2c0.3,0,0.5,0,0.9,0
					c0-0.3,0.1-0.6,0.1-0.9c0-1.3,0-2.6,0-3.9c0-0.8,0.1-0.9,0.8-1.1c7.7-2.4,15.5-4.9,23.2-7.3c11.6-3.7,23.3-7.4,34.9-11.1
					c0.9-0.3,1.8-0.4,2.7-0.2c2.5,0.4,5,0.6,7.5,0.9c5.2,0.6,10.3,1.3,15.5,1.9c5.1,0.6,10.2,1.2,15.3,1.9c1.7,0.2,3.4,0.4,5.1,0.6
					c1.1,0.1,1.1,0.2,1.2,1.3c0.2,4.4,0.3,8.7,0.5,13.1c0.4,9.2,0.7,18.3,1.1,27.5c0.4,8.9,0.7,17.7,1.1,26.6
					c0.4,9.1,0.7,18.1,1.1,27.2c0.4,8.8,0.7,17.6,1.1,26.4c0,0.7,0.1,1.3,0.1,2c0,0.7-0.2,0.9-0.8,1c-5,0.9-10.1,1.8-15.1,2.7
					c-8.9,1.6-17.7,3.3-26.6,4.9c-0.8,0.2-1.6,0.3-2.5,0.5c-0.3,0.1-0.7,0.1-1,0c-2.6-0.7-5.2-1.4-7.8-2.1
					c-14.7-3.7-29.5-7.3-44.2-11c-0.3-0.1-0.7-0.2-1.2-0.3c-0.2,2.8-0.3,5.6-0.3,8.4c0.3,0,0.6,0,0.9,0c3.2-0.3,6.3-0.6,9.5-0.8
					c3.1-0.2,6.2-0.4,9.3,0.1c4.4,0.6,8.2,2.4,10.9,6.1c0.2,0.2,0.3,0.4,0.5,0.6c1.6,2.2,3.8,3.2,6.5,3.5c3,0.2,5.9,0,8.8-0.3
					c9.2-0.7,18.4-2,27.5-3.5c6-0.9,12.1-1.6,18.1-2c4.4-0.3,8.8-0.7,13.2-1c3.6-0.2,7.3-0.3,10.9,0.5c1.2,0.3,2.4,0.6,3.6,1
					c0.4,0.1,0.8,0.1,1.2-0.1c2.4-1.3,5-1.9,7.7-2c6.6-0.2,12.6,1.6,18.1,5.1c2.8,1.8,5.1,4.1,6.8,6.9c0.4,0.6,0.6,1.4,0.8,2.2
					c0.1,0.3,0.1,0.6,0.2,0.9V304.7z M432.7,177.8c0.4,0,0.7,0,1,0c4.4,0,8.8,0.1,13.2,0.1c6.7,0.1,13.4,0.1,20,0.2
					c1.1,0,1.2,0.1,1.4,1c1.7,7.3,3.3,14.6,5,22c3.9,17.1,7.8,34.2,11.7,51.3c1.3,5.8,2.7,11.6,4,17.4c0.3,1.2,0.1,1.4-1.1,1.5
					c-5.4,0.6-10.8,1.2-16.2,1.8c-9.1,1-18.3,2-27.4,3c-0.3,0-0.6,0.1-0.9,0.1c-0.2,0.8,0.4,0.8,0.8,0.9c17,4.2,33.9,8.5,50.9,12.7
					c0.3,0.1,0.6,0.1,1,0.2c-1.4-45.3-2.7-90.4-4.1-135.8c-19.8,6.3-39.5,12.5-59.2,18.7V177.8z M350.8,178.2
					c0,1.1,12.6,104.8,13,105.6c0.1,0,0.3,0,0.4,0c41.1-4.6,82.1-9.1,123.2-13.7c0.1,0,0.2,0,0.3-0.1c0,0,0,0,0.1-0.1
					c0,0,0,0,0.1-0.1c-6.9-30.1-13.8-60.2-20.7-90.5C428.3,179,389.5,178.6,350.8,178.2 M497.3,290.3c14.7-2.7,29.2-5.4,43.8-8.1
					c-1.6-40.8-3.3-81.6-4.9-122.3c-14.4-1.8-28.6-3.5-43-5.3C494.5,199.8,495.9,245,497.3,290.3 M383.6,327.7
					c0.2,0.2,0.4,0.4,0.6,0.5c7.4,6,14.8,12.1,22.2,18.1c0.4,0.3,0.8,0.4,1.3,0.3c7.7-1.7,15.3-3.3,23-4.9
					c21.1-4.5,42.3-9.1,63.4-13.6c18.9-4.1,37.8-8.1,56.7-12.2c0.8-0.2,1.5-0.3,2.5-0.6c-0.4-0.2-0.6-0.3-0.9-0.5
					c-1.3-0.6-2.6-1.2-3.9-1.8c-7.6-3.6-15.2-7.2-22.7-10.8c-0.6-0.3-1.2-0.4-1.8-0.2c-1.1,0.2-2.2,0.4-3.3,0.6
					c-9,1.6-18.1,3.3-27.1,4.9c-9,1.6-18.1,3.3-27.1,4.9c-9,1.6-18.1,3.3-27.1,4.9c-9.1,1.7-18.2,3.3-27.3,5
					c-9.2,1.7-18.5,3.4-27.7,5C384.1,327.6,383.9,327.6,383.6,327.7 M442.1,276.4c-8.9,1-17.7,2-26.4,2.9c-0.1,1.2-0.2,2.3-0.2,3.4
					c-0.4,4.7-0.7,9.5-1.1,14.2c0,0.5,0.1,0.7,0.5,0.9c0.5,0.3,1.1,0.6,1.6,1c0.4,0.3,0.8,0.3,1.3,0.3c6.9-1.2,13.8-2.5,20.7-3.7
					c1-0.2,2-0.4,3-0.6C441.6,288.7,441.9,282.6,442.1,276.4 M411.1,291.9c-0.2,0-0.3,0-0.4,0c-2.7,0.6-5.4,1.5-7.9,2.6
					c-1.5,0.7-2.9,1.5-4.2,2.5c-0.7,0.6-1.4,1.3-1.9,2.1c-0.5,1-0.4,1.8,0.4,2.5c0.4,0.4,0.7,0.7,1.2,0.9c1.2,0.6,2.4,1.3,3.7,1.7
					c5.8,2,11.8,3,18,3.1c4.2,0.1,8.3-0.4,12.4-1.2c4.3-0.8,8.6-1.9,12.7-3.4c1.8-0.7,3.5-1.5,5-2.5c1-0.7,2-1.5,2.7-2.5
					c1-1.5,1-2.9-0.4-4.2c-0.6-0.6-1.3-1.1-2-1.5c-1.6-0.9-3.3-1.4-5.1-1.8c-0.7-0.2-1.5-0.3-2.3-0.5c0,0.5-0.1,0.9-0.1,1.3
					c0,1.3-0.1,2.6-0.1,3.8c0,0.7-0.2,0.9-0.9,1c-6.4,1.1-12.8,2.3-19.2,3.4c-1.8,0.3-3.6,0.6-5.5,1c-0.4,0.1-0.7,0.1-1-0.2
					c-0.6-0.4-1.2-0.8-1.7-1.3c-0.8-0.6-1.6-1.1-2.8-0.9c-0.5,0.1-0.8-0.2-0.9-0.8c0-0.2,0-0.4,0-0.6c0.1-1.4,0.2-2.9,0.3-4.3
					C411.1,292.3,411.1,292.1,411.1,291.9 M407.8,352.1c48.9-11.3,97.6-22.5,146.4-33.7v-1.8c-38.5,8.3-76.9,16.5-115.2,24.7
					c-10.5,2.3-21,4.5-31.5,6.8c0,0,0,0-0.1,0.1c0,0,0,0.1-0.1,0.1C407.5,349.4,407.6,350.7,407.8,352.1 M396.4,303.2
					c0.1,0.9,0.3,1.8,0.4,2.7c0.1,0.5,0.3,0.8,0.7,1.1c0.8,0.5,1.5,1,2.3,1.5c6.9,3.8,14.2,6.1,22.1,6.5c4.1,0.2,8.1-0.1,12.1-0.7
					c6.4-1,12.3-2.9,17.7-6.5c0.8-0.6,1.2-1.4,1.3-2.2c0.2-1.3,0.3-2.7,0.5-4c0.1-0.8,0.1-1.7,0.2-2.5c-0.1,0-0.2,0-0.2,0
					c-0.1,0.1-0.2,0.2-0.3,0.3c-0.9,1.1-2,2-3.2,2.7c-1.4,0.8-2.8,1.5-4.2,2.1c-3.8,1.5-7.8,2.5-11.9,3.4c-4.6,1-9.3,1.5-14,1.4
					c-4.8-0.1-9.4-0.8-14.1-1.9c-3.2-0.8-6.3-1.7-9.1-3.7C396.7,303.2,396.6,303.2,396.4,303.2 M581.5,296.3c0.4,1,0.4,2-0.1,2.8
					c-0.4,0.6-1,1.2-1.6,1.6c-1,0.8-2.2,1.1-3.5,1.3c-2.5,0.5-5,0.3-7.5,0.1c-3-0.3-5.9-0.6-8.9-0.9c-0.7-0.1-1.5-0.1-2.3-0.2
					c0.3,0.8,0.8,1.2,1.3,1.6c1.3,1.1,2.8,1.8,4.4,2.3c2.8,0.9,5.6,1.4,8.5,1.8c4,0.5,7.9,0.8,11.9,1c2.9,0.1,5.8,0.2,8.7-0.1
					c1-0.1,2.1-0.3,2.9-0.9c0.4-0.2,0.6-0.5,0.7-1c0.4-1.7,0.2-3.3-0.8-4.7c-1.9-2.7-4.2-4.9-7-6.6c-0.3-0.2-0.5-0.3-0.8-0.5
					C586,296.4,583.8,296.4,581.5,296.3 M395.2,299.5c0.6-1.5,1.5-2.6,2.7-3.5c0.6-0.5,1.3-0.9,1.9-1.3c2.9-1.8,6.1-2.9,9.4-3.7
					c0.6-0.2,1.3-0.3,2-0.5c0.2-2.1,0.4-4.1,0.5-6.2c-0.3,0-0.5,0.1-0.7,0.1c-2.2,0.4-4.4,0.9-6.7,1.3c-3.9,0.8-7.9,1.7-11.7,3
					c-2.2,0.8-4.4,1.7-6.3,3.1c-0.7,0.5-1.4,1.1-1.9,1.7c-1,1.1-0.9,2.2,0.4,3c0.6,0.4,1.2,0.8,1.9,1c1.6,0.5,3.1,0.9,4.7,1.3
					C392.6,299.1,393.9,299.3,395.2,299.5 M573.5,292.2c-0.3,0.9-0.9,1.4-1.7,1.7c-0.5,0.2-1,0.3-1.5,0.4c-2.4,0.4-4.7,0.1-7-0.9
					c-0.3-0.1-0.5-0.2-0.8-0.4c-1.2,0.9-2.3,1.8-3.2,3c-0.7,0.9-1.2,1.9-1.8,2.9c-0.2,0.3-0.2,0.7-0.3,1.1c1.8,0.2,3.4,0.4,5,0.5
					c3.1,0.3,6.1,0.6,9.2,0.9c1.8,0.2,3.6,0,5.4-0.4c1.1-0.3,2.2-0.7,3.1-1.6c1.2-1.1,1.3-2.3,0.1-3.4
					C578.3,294.1,576,293.1,573.5,292.2 M362.3,283.4l-12.7-103.3c-0.5,0.4-0.5,0.8-0.4,1.2c0.3,2.8,0.6,5.6,0.9,8.4
					c0.6,5.2,1.1,10.4,1.7,15.6c0.6,5.7,1.3,11.4,1.9,17.2c0.7,6.8,1.5,13.6,2.2,20.4c0.7,6.3,1.4,12.5,2.1,18.8
					c0.7,6.5,1.5,12.9,2.1,19.4c0.1,1.4,0.6,2.1,1.9,2.4C362,283.4,362,283.4,362.3,283.4 M382.5,328.6c0.1,1.4,0.2,2.6,0.2,3.7
					c0,0.6,0.2,1,0.7,1.3c7.4,5.7,14.8,11.5,22.2,17.3c0.2,0.2,0.5,0.3,0.8,0.6c-0.1-1.1-0.3-2.1-0.3-3.1c0-0.6-0.3-1-0.7-1.3
					c-7.3-6-14.6-11.9-21.9-17.9C383.2,329.1,382.9,328.9,382.5,328.6 M586.4,293.6c-2.8-2-11.2-4.1-13.7-3.4
					c0.4,0.8,0.9,1.2,1.8,1.5c2.1,0.7,4,1.7,5.7,3.2c0.2,0.2,0.4,0.3,0.7,0.4c1.2,0.2,2.4,0.3,3.5-0.1
					C585.4,295,586.1,294.5,586.4,293.6 M413,296.7c0.4-5.7,0.9-11.4,1.4-17.2c-0.4,0-0.7,0.1-1,0.1c-0.4,2.5-1.4,16.5-1.2,17.3
					c0.1,0,0.3,0,0.4,0C412.7,296.8,412.8,296.8,413,296.7 M563.9,292.3c0.2,0.1,0.4,0.2,0.5,0.3c1.9,0.7,3.9,0.9,5.9,0.5
					c0.4-0.1,0.9-0.2,1.3-0.4c0.9-0.4,1-1.1,0.2-1.6c-0.8-0.6-1.8-0.9-2.9-0.7c-1.5,0.3-2.9,0.8-4.3,1.5
					C564.4,292,564.2,292.1,563.9,292.3"/>
				<path class="st12" d="M432.7,177.8V173c19.7-6.2,39.4-12.5,59.2-18.7c1.4,45.3,2.7,90.5,4.1,135.8c-0.4-0.1-0.7-0.1-1-0.2
					c-17-4.2-33.9-8.4-50.9-12.7c-0.4-0.1-1-0.1-0.8-0.9c0.3,0,0.6-0.1,0.9-0.1c9.1-1,18.3-2,27.4-3c5.4-0.6,10.8-1.2,16.2-1.8
					c1.3-0.1,1.4-0.3,1.1-1.5c-1.3-5.8-2.7-11.6-4-17.4c-3.9-17.1-7.8-34.2-11.7-51.3c-1.7-7.3-3.3-14.6-5-22c-0.2-0.9-0.3-1-1.4-1
					c-6.7-0.1-13.4-0.1-20-0.2c-4.4,0-8.8-0.1-13.2-0.1C433.4,177.8,433.1,177.8,432.7,177.8"/>
				<path class="st13" d="M350.8,178.2c38.7,0.4,77.5,0.8,116.3,1.2c6.9,30.2,13.8,60.4,20.7,90.5c0,0.1-0.1,0.1-0.1,0.1
					c0,0,0,0-0.1,0.1c-0.1,0-0.2,0.1-0.3,0.1c-41.1,4.6-82.1,9.1-123.2,13.7c-0.1,0-0.3,0-0.4,0C363.4,283,350.8,179.3,350.8,178.2
					 M411.2,183.6C411.2,183.6,411.2,183.6,411.2,183.6c-16.8,0.1-33.7,0.1-50.5,0.1c-0.4,0-0.8,0-1.3,0c-0.4,0-0.6,0.3-0.7,0.7
					c0,0.2,0,0.4,0.1,0.5c0.7,4.7,1.3,9.3,2,14c0.9,6,1.7,12,2.6,18.1c0.9,6.1,1.7,12.2,2.6,18.2c0.8,5.6,1.6,11.2,2.4,16.8
					c0.8,5.6,1.6,11.2,2.4,16.7c0.3,2,0.6,4.1,0.9,6.1c0.1,0.7,0.3,0.9,1,0.9c0.1,0,0.3,0,0.4,0c2.3-0.2,4.6-0.4,7-0.6
					c3.8-0.3,7.6-0.6,11.3-1c4.7-0.4,9.4-0.8,14.1-1.2c4.6-0.4,9.2-0.8,13.8-1.2c4.7-0.4,9.3-0.8,14-1.2c4.5-0.4,9-0.8,13.6-1.1
					c4.7-0.4,9.3-0.8,14-1.2c4.7-0.4,9.3-0.8,14-1.2c2.4-0.2,4.8-0.3,7.1-0.5c0.6,0,0.9-0.5,0.7-1.1c-0.1-0.4-0.3-0.8-0.4-1.2
					c-0.9-3.9-1.8-7.8-2.8-11.8c-3.8-16.4-7.7-32.8-11.5-49.2c-1.5-6.4-3-12.9-4.5-19.3c-0.2-0.7-0.3-0.8-1.1-0.8c-0.3,0-0.7,0-1,0
					C444.8,183.5,428,183.5,411.2,183.6"/>
				<path class="st14" d="M497.3,290.3c-1.4-45.3-2.7-90.5-4.1-135.8c14.4,1.8,28.6,3.5,43,5.3c1.6,40.8,3.3,81.5,4.9,122.3
					C526.5,284.9,512,287.6,497.3,290.3 M497.6,219.1c0.3,9.3,0.5,18.6,0.8,27.9c0.2,8.6,0.5,17.2,0.7,25.8c0.1,1.8,0.1,3.7,0.2,5.5
					c0,0.8,0.1,0.9,1,0.8c0.1,0,0.1,0,0.2,0c5-0.7,9.9-1.3,14.9-2c5.1-0.7,10.2-1.4,15.3-2.1c2.3-0.3,4.7-0.6,7-0.9
					c0.7-0.1,0.8-0.2,0.8-0.8c-0.1-4.1-0.3-8.2-0.4-12.3c-0.4-13.9-0.8-27.7-1.3-41.6c-0.3-9.3-0.6-18.7-0.8-28
					c-0.2-8-0.5-16-0.7-24.1c0-1.4-0.1-2.7-0.1-4.1c0-0.8-0.1-0.9-0.9-0.8c-0.2,0-0.5,0-0.7,0c-1.4-0.1-2.9-0.3-4.3-0.4
					c-4.7-0.4-9.4-0.9-14.2-1.3c-4.2-0.4-8.4-0.8-12.6-1.2c-1.9-0.2-3.7-0.4-5.6-0.5c-0.7-0.1-0.9,0.1-0.9,0.8c0,0.1,0,0.2,0,0.4
					c0.2,7.7,0.4,15.4,0.6,23.1C496.9,195.1,497.3,207.1,497.6,219.1"/>
				<path class="st15" d="M383.6,327.7c0.3-0.1,0.5-0.2,0.8-0.2c9.2-1.7,18.5-3.4,27.7-5c9.1-1.7,18.2-3.3,27.3-5
					c9-1.6,18.1-3.3,27.1-4.9c9-1.6,18.1-3.3,27.1-4.9c9-1.6,18.1-3.3,27.1-4.9c1.1-0.2,2.2-0.4,3.3-0.6c0.6-0.1,1.2-0.1,1.8,0.2
					c7.6,3.6,15.1,7.2,22.7,10.8c1.3,0.6,2.6,1.2,3.9,1.8c0.2,0.1,0.5,0.2,0.9,0.5c-0.9,0.2-1.7,0.4-2.5,0.6
					c-18.9,4.1-37.8,8.1-56.7,12.2c-21.1,4.5-42.3,9.1-63.4,13.6c-7.7,1.6-15.3,3.3-23,4.9c-0.5,0.1-0.9,0-1.3-0.3
					c-7.4-6.1-14.8-12.1-22.2-18.1C384,328.1,383.8,327.9,383.6,327.7 M407.5,343.4c0.2,0,0.4-0.1,0.6-0.1c4.4-0.9,8.8-1.8,13.2-2.7
					c13.4-2.7,26.9-5.4,40.3-8.2c13.7-2.8,27.4-5.5,41.1-8.3c15-3,30-6.1,45-9.1c0.3-0.1,0.5-0.1,0.8-0.2c0.5-0.2,0.6-0.7,0.1-1
					c-0.1-0.1-0.3-0.1-0.4-0.2c-7.3-3.3-14.5-6.6-21.8-10c-0.5-0.2-0.9-0.3-1.4-0.2c-1.4,0.3-2.8,0.5-4.2,0.8
					c-7.8,1.4-15.6,2.8-23.3,4.2c-7.7,1.4-15.5,2.8-23.2,4.2c-7.8,1.4-15.5,2.8-23.3,4.2c-7.7,1.4-15.5,2.8-23.2,4.2
					c-7.8,1.4-15.6,2.8-23.4,4.2c-4.3,0.8-8.6,1.6-12.9,2.3c-0.3,0.1-0.7,0.2-1,0.1c-0.3,0-0.5,0-0.7,0.3c-0.1,0.3,0.1,0.5,0.3,0.7
					c3.1,2.6,6.2,5.3,9.3,7.9c2.4,2.1,4.9,4.2,7.3,6.3C406.8,343.2,407,343.5,407.5,343.4"/>
				<path class="st14" d="M442.1,276.4c-0.3,6.2-0.5,12.3-0.7,18.5c-1,0.2-2,0.4-3,0.6c-6.9,1.2-13.8,2.4-20.7,3.7
					c-0.5,0.1-0.9,0.1-1.3-0.3c-0.5-0.4-1-0.7-1.6-1c-0.4-0.2-0.5-0.5-0.5-0.9c0.4-4.7,0.8-9.5,1.1-14.2c0.1-1.1,0.2-2.2,0.2-3.4
					C424.4,278.3,433.2,277.4,442.1,276.4"/>
				<path class="st13" d="M411.1,291.9c0,0.2,0,0.4,0,0.5c-0.1,1.4-0.2,2.9-0.3,4.3c0,0.2,0,0.4,0,0.6c0.1,0.6,0.3,0.9,0.9,0.8
					c1.1-0.2,1.9,0.3,2.8,0.9c0.6,0.4,1.2,0.8,1.7,1.3c0.3,0.3,0.7,0.2,1,0.2c1.8-0.3,3.6-0.6,5.5-1c6.4-1.1,12.8-2.3,19.2-3.4
					c0.7-0.1,0.8-0.3,0.9-1c0.1-1.3,0.1-2.6,0.1-3.8c0-0.4,0.1-0.8,0.1-1.3c0.8,0.2,1.6,0.3,2.3,0.5c1.8,0.4,3.5,0.9,5.1,1.8
					c0.7,0.4,1.4,0.9,2,1.5c1.3,1.3,1.4,2.6,0.4,4.2c-0.7,1-1.6,1.8-2.7,2.5c-1.6,1.1-3.2,1.9-5,2.5c-4.1,1.5-8.4,2.6-12.7,3.4
					c-4.1,0.8-8.2,1.3-12.4,1.2c-6.2-0.1-12.2-1.1-18-3.1c-1.3-0.4-2.5-1.1-3.7-1.7c-0.4-0.2-0.8-0.6-1.2-0.9
					c-0.8-0.8-0.9-1.6-0.4-2.5c0.4-0.9,1.1-1.5,1.9-2.1c1.3-1,2.7-1.8,4.2-2.5c2.5-1.2,5.2-2,7.9-2.6
					C410.8,291.9,410.9,291.9,411.1,291.9"/>
				<path class="st13" d="M407.8,352.1c-0.2-1.4-0.3-2.6-0.5-3.8c0-0.1,0.1-0.1,0.1-0.1c0,0,0,0,0.1-0.1c10.5-2.3,21-4.5,31.5-6.8
					c38.4-8.2,76.8-16.5,115.2-24.7v1.8C505.4,329.6,456.6,340.8,407.8,352.1"/>
				<path class="st14" d="M396.4,303.2c0.2,0,0.3,0,0.3,0c2.7,1.9,5.9,2.9,9.1,3.7c4.6,1.2,9.3,1.8,14.1,1.9c4.7,0.1,9.4-0.5,14-1.4
					c4-0.9,8-1.8,11.9-3.4c1.5-0.6,2.9-1.3,4.2-2.1c1.2-0.7,2.3-1.6,3.2-2.7c0.1-0.1,0.2-0.2,0.3-0.3c0,0,0.1,0,0.2,0
					c-0.1,0.8-0.1,1.7-0.2,2.5c-0.1,1.3-0.2,2.7-0.5,4c-0.2,0.9-0.5,1.7-1.3,2.2c-5.4,3.6-11.4,5.5-17.7,6.5
					c-4,0.6-8.1,0.9-12.1,0.7c-7.9-0.4-15.2-2.6-22.1-6.5c-0.8-0.4-1.5-1-2.3-1.5c-0.4-0.3-0.6-0.6-0.7-1.1
					C396.7,305,396.6,304.1,396.4,303.2"/>
				<path class="st13" d="M581.5,296.3c2.4,0.1,4.6,0.1,5.9-2.3c0.3,0.2,0.6,0.3,0.8,0.5c2.8,1.7,5.1,3.9,7,6.6c1,1.4,1.3,3,0.8,4.7
					c-0.1,0.4-0.3,0.7-0.7,1c-0.9,0.6-1.9,0.8-2.9,0.9c-2.9,0.3-5.8,0.2-8.7,0.1c-4-0.1-8-0.4-11.9-1c-2.9-0.4-5.7-0.9-8.5-1.8
					c-1.6-0.5-3.1-1.2-4.4-2.3c-0.5-0.4-1-0.8-1.3-1.6c0.9,0.1,1.6,0.1,2.3,0.2c3,0.3,5.9,0.6,8.9,0.9c2.5,0.2,5,0.4,7.5-0.1
					c1.2-0.2,2.5-0.6,3.5-1.3c0.6-0.5,1.2-1,1.6-1.7C581.9,298.3,581.9,297.3,581.5,296.3"/>
				<path class="st15" d="M573.5,292.2c2.5,0.9,4.7,1.9,6.5,3.7c1.1,1.2,1,2.3-0.1,3.4c-0.9,0.8-1.9,1.3-3.1,1.6
					c-1.8,0.4-3.6,0.6-5.4,0.4c-3.1-0.3-6.1-0.6-9.2-0.9c-1.6-0.2-3.3-0.3-5-0.5c0.1-0.4,0.1-0.8,0.3-1.1c0.6-1,1.1-2,1.8-2.9
					c0.9-1.2,2-2.1,3.2-3c0.3,0.1,0.6,0.2,0.8,0.4c2.2,1,4.6,1.3,7,0.9c0.5-0.1,1-0.2,1.5-0.4C572.6,293.6,573.2,293.1,573.5,292.2"
					/>
				<path class="st14" d="M362.3,283.4c-0.2,0-0.3,0-0.3,0c-1.2-0.3-1.7-1-1.9-2.4c-0.6-6.5-1.4-12.9-2.1-19.4
					c-0.7-6.3-1.4-12.5-2.1-18.8c-0.7-6.8-1.5-13.6-2.2-20.4c-0.6-5.7-1.3-11.4-1.9-17.2c-0.6-5.2-1.1-10.4-1.7-15.6
					c-0.3-2.8-0.6-5.6-0.9-8.4c0-0.4-0.1-0.8,0.4-1.2L362.3,283.4z"/>
				<path class="st13" d="M382.5,328.6c0.4,0.3,0.6,0.5,0.9,0.7c7.3,6,14.6,11.9,21.9,17.9c0.4,0.4,0.7,0.7,0.7,1.3
					c0.1,1,0.2,1.9,0.3,3.1c-0.4-0.3-0.6-0.4-0.8-0.6c-7.4-5.8-14.8-11.5-22.2-17.3c-0.5-0.4-0.7-0.8-0.7-1.3
					C382.7,331.2,382.6,330,382.5,328.6"/>
				<path class="st15" d="M586.4,293.6c-0.3,1-1.1,1.4-1.9,1.7c-1.2,0.3-2.4,0.3-3.5,0.1c-0.2,0-0.5-0.2-0.7-0.4
					c-1.7-1.5-3.6-2.5-5.7-3.2c-0.9-0.3-1.4-0.7-1.8-1.5C575.2,289.5,583.6,291.6,586.4,293.6"/>
				<path class="st12" d="M413,296.7c-0.2,0.1-0.3,0.1-0.4,0.1c-0.1,0-0.3,0-0.4,0c-0.2-0.8,0.8-14.8,1.2-17.3c0.3,0,0.6-0.1,1-0.1
					C413.9,285.3,413.5,291,413,296.7"/>
				<path class="st14" d="M563.9,292.3c0.3-0.2,0.5-0.3,0.7-0.5c1.3-0.7,2.8-1.2,4.3-1.5c1.1-0.2,2,0.1,2.9,0.7
					c0.8,0.6,0.7,1.2-0.2,1.6c-0.4,0.2-0.8,0.3-1.3,0.4c-2,0.4-4,0.2-5.9-0.5C564.2,292.5,564.1,292.4,563.9,292.3"/>
				<path class="st11" d="M411.2,183.6c16.8-0.1,33.6-0.1,50.4-0.2c0.3,0,0.7,0,1,0c0.7,0,0.9,0.1,1.1,0.8c1.5,6.4,3,12.9,4.5,19.3
					c3.8,16.4,7.7,32.8,11.5,49.2c0.9,3.9,1.8,7.8,2.8,11.8c0.1,0.4,0.3,0.8,0.4,1.2c0.2,0.5-0.1,1-0.7,1.1
					c-2.4,0.2-4.8,0.3-7.1,0.5c-4.7,0.4-9.3,0.8-14,1.2c-4.7,0.4-9.3,0.8-14,1.2c-4.5,0.4-9,0.8-13.6,1.1c-4.7,0.4-9.3,0.8-14,1.2
					c-4.6,0.4-9.2,0.8-13.8,1.2c-4.7,0.4-9.4,0.8-14.1,1.2c-3.8,0.3-7.6,0.6-11.3,1c-2.3,0.2-4.6,0.4-7,0.6c-0.1,0-0.3,0-0.4,0
					c-0.7,0-0.9-0.1-1-0.9c-0.3-2-0.6-4.1-0.9-6.1c-0.8-5.6-1.6-11.2-2.4-16.7c-0.8-5.6-1.6-11.2-2.4-16.8
					c-0.9-6.1-1.8-12.2-2.6-18.2c-0.9-6-1.7-12-2.6-18.1c-0.7-4.7-1.3-9.3-2-14c0-0.2-0.1-0.4-0.1-0.5c0-0.4,0.2-0.7,0.7-0.7
					c0.4,0,0.8,0,1.3,0C377.5,183.7,394.4,183.6,411.2,183.6C411.2,183.6,411.2,183.6,411.2,183.6 M447.9,198c0,0,0.1,0.1,0.1,0.1
					c-0.1,0.2-0.2,0.3-0.2,0.5c-1.4,2.5-2.7,4.9-4.1,7.4c-9.1,15.8-18.5,31.4-28.3,46.8c-3.9,6.1-7.9,12.2-11.9,18.3
					c-0.2,0.3-0.3,0.6-0.6,1c0.5,0,0.9-0.1,1.2-0.1c1-0.1,2-0.2,2.9-0.3c5.4-0.4,10.8-0.9,16.1-1.3c6-0.5,12-1,18-1.5
					c0.7-0.1,1.2-0.3,1.5-1c5.9-10.5,11.9-20.9,17.8-31.5c3.2-5.7,6.1-11.6,9.1-17.3c0.3-0.6,0.5-1.2,0.3-1.9
					c-2.5-10.6-5-21.2-7.5-31.8c-0.1-0.2-0.1-0.4-0.2-0.6c-1.6-0.1-101.6,0.3-102.1,0.4c0.1,1.2,12.6,88.6,12.9,89.3
					c0.2,0,0.4,0,0.6,0c4.5-0.4,8.9-0.7,13.4-1.1c4.6-0.4,9.3-0.8,13.9-1.2c0.7-0.1,1.2-0.3,1.6-0.9c9.7-14.9,19.3-29.9,28.5-45.2
					c5.5-9.1,10.9-18.3,16.4-27.4C447.6,198.4,447.7,198.2,447.9,198 M470.5,219.4c-0.1,0-0.1,0-0.2,0c-0.5,0.9-0.9,1.9-1.4,2.8
					c-4.8,9.6-10,19-15.3,28.3c-3.3,5.7-6.6,11.4-9.8,17.1c-0.2,0.3-0.4,0.6-0.4,1c0.5,0,0.9-0.1,1.3-0.1c1.1-0.1,2.2-0.2,3.3-0.3
					c2.8-0.2,5.6-0.5,8.4-0.7c0.5,0,0.9-0.3,1.1-0.7c0.2-0.4,0.4-0.8,0.6-1.2c5.4-9,10.7-18,16.1-26.9c0.4-0.6,0.5-1.2,0.3-1.9
					c-1.3-5.3-2.5-10.6-3.7-15.8C470.8,220.4,470.6,219.9,470.5,219.4 M475,238.6c-5.8,9.7-11.5,19.1-17.3,28.6
					c0.1,0,0.2,0.1,0.3,0.1c1-0.1,2-0.1,3-0.2c0.2,0,0.5-0.3,0.6-0.4c0.2-0.2,0.3-0.5,0.5-0.8c4-6.5,8.1-13,12.1-19.6
					c0.2-0.4,0.5-0.7,0.8-1.1c0.1,0,0.1,0.1,0.2,0.1c-0.1,0.3-0.2,0.6-0.4,0.8c-0.7,1.2-1.3,2.4-2,3.6c-3.3,5.4-6.5,10.8-9.8,16.1
					c-0.2,0.3-0.3,0.6-0.6,1c6.4-0.5,12.6-1,19-1.6C479.2,256.4,477.1,247.6,475,238.6"/>
				<path class="st11" d="M497.6,219.1c-0.3-12-0.7-23.9-1-35.9c-0.2-7.7-0.4-15.4-0.6-23.1c0-0.1,0-0.2,0-0.4
					c0-0.7,0.2-0.9,0.9-0.8c1.9,0.2,3.7,0.4,5.6,0.5c4.2,0.4,8.4,0.8,12.6,1.2c4.7,0.4,9.4,0.9,14.2,1.3c1.4,0.1,2.9,0.3,4.3,0.4
					c0.2,0,0.5,0,0.7,0c0.8-0.1,0.8,0,0.9,0.8c0,1.4,0.1,2.7,0.1,4.1c0.2,8,0.5,16,0.7,24.1c0.3,9.3,0.6,18.7,0.8,28
					c0.4,13.9,0.8,27.7,1.3,41.6c0.1,4.1,0.3,8.2,0.4,12.3c0,0.6-0.1,0.7-0.8,0.8c-2.3,0.3-4.7,0.6-7,0.9
					c-5.1,0.7-10.2,1.4-15.3,2.1c-5,0.7-9.9,1.3-14.9,2c-0.1,0-0.1,0-0.2,0c-0.8,0.1-0.9,0-1-0.8c-0.1-1.8-0.1-3.7-0.2-5.5
					c-0.2-8.6-0.5-17.2-0.7-25.8C498.1,237.7,497.9,228.4,497.6,219.1 M500.2,278.2c12.5-1.7,24.8-3.4,37.2-5
					c-0.4-11.7-0.7-23.4-1.1-35.1c-12.5,1.3-24.8,2.6-37.2,3.9C499.5,254,499.9,266,500.2,278.2 M535.7,215.3
					c-12.5,0.3-24.8,0.6-37.2,0.9c0.2,8.3,0.5,16.5,0.7,24.8c12.4-1.3,24.8-2.6,37.2-3.9C536.2,229.8,535.9,222.7,535.7,215.3
					 M497.7,187.6c12.4,0.3,24.8,0.6,37.2,0.8c-0.1-4.6-0.3-9-0.4-13.5c-12.4-0.7-24.8-1.4-37.2-2.1
					C497.4,177.8,497.5,182.7,497.7,187.6 M534.9,189.4c-12.5-0.3-24.8-0.6-37.2-0.8c0.1,4.5,0.2,8.9,0.4,13.2
					c1.4,0.2,36.5-0.3,37.2-0.6C535.2,197.3,535.1,193.4,534.9,189.4 M498.5,215.2c1.2,0.2,36.5-0.7,37.2-1
					c-0.1-3.9-0.2-7.9-0.4-11.9c-12.4,0.2-24.8,0.3-37.2,0.5C498.2,207,498.3,211.1,498.5,215.2 M531.1,163.1
					c-0.1,0.3-0.1,0.6-0.1,0.8c-0.2,1.5-0.4,3.1-0.6,4.6c-0.1,1.1-0.2,1.1-1.2,1c-2.3-0.2-4.5-0.4-6.8-0.5
					c-5.1-0.4-10.2-0.8-15.2-1.2c-1.8-0.1-3.6-0.2-5.3-0.3c-0.4,0-0.5-0.3-0.6-0.7c-0.1-0.8-0.1-1.5-0.2-2.3
					c-0.1-1.4-0.2-2.8-0.4-4.3c-1.3-0.1-2.5-0.2-3.7-0.3c-0.2,1.1,0.1,11.3,0.4,12.1c12.3,0.7,24.6,1.4,37.1,2.1
					c-0.1-3.6-0.2-7.1-0.3-10.6c-0.8-0.1-1.4-0.2-2.1-0.2C531.8,163.1,531.5,163.1,531.1,163.1 M502.2,166.5
					c9.1,0.7,18.1,1.4,27.2,2.1c0.2-1.9,0.5-3.7,0.7-5.7c-9.5-0.9-18.9-1.8-28.5-2.7C501.8,162.4,502,164.4,502.2,166.5"/>
				<path class="st11" d="M407.5,343.4c-0.5,0.1-0.7-0.2-1-0.5c-2.4-2.1-4.9-4.2-7.3-6.3c-3.1-2.6-6.2-5.3-9.3-7.9
					c-0.2-0.2-0.4-0.4-0.3-0.7c0.1-0.3,0.4-0.3,0.7-0.3c0.3,0,0.7-0.1,1-0.1c4.3-0.8,8.6-1.6,12.9-2.3c7.8-1.4,15.6-2.8,23.4-4.2
					c7.7-1.4,15.5-2.8,23.2-4.2c7.8-1.4,15.5-2.8,23.3-4.2c7.7-1.4,15.5-2.8,23.2-4.2c7.8-1.4,15.6-2.8,23.3-4.2
					c1.4-0.3,2.8-0.5,4.2-0.8c0.5-0.1,0.9,0,1.4,0.2c7.3,3.3,14.5,6.6,21.8,10c0.1,0.1,0.3,0.1,0.4,0.2c0.4,0.3,0.4,0.8-0.1,1
					c-0.2,0.1-0.5,0.1-0.8,0.2c-15,3-30,6.1-45,9.1c-13.7,2.8-27.4,5.5-41.1,8.3c-13.4,2.7-26.9,5.4-40.3,8.2
					c-4.4,0.9-8.8,1.8-13.2,2.7C407.9,343.4,407.7,343.4,407.5,343.4 M499.1,324c2.7-0.6,5.4-1.1,8.3-1.7c-0.3-0.3-0.4-0.6-0.6-0.8
					c-0.3-0.4-0.7-0.8-1.1-1.2c-0.5-0.6-0.4-1.1,0.3-1.4c0.7-0.3,1.4-0.5,2.1-0.7c0.2-0.1,0.4-0.2,0.7-0.3c-0.3-0.5-0.6-0.9-0.8-1.4
					c-0.4-0.7-0.3-1.1,0.4-1.4c0.6-0.3,1.3-0.5,2-0.7c0.8-0.3,1.5,0,2,0.7c0.3,0.4,0.7,0.9,1,1.2c1.2-0.4,2.3-0.7,3.4-1
					c1-0.3,1.7,0.1,2.2,1c0.6,1.1,1.3,2.1,1.9,3.1c0.9,0,3.4-0.5,4.2-0.9c-0.3-0.2-0.5-0.4-0.7-0.7c-3.6-3.5-7.2-7-10.8-10.6
					c-0.5-0.5-0.9-0.6-1.5-0.5c-6.5,1.2-13,2.3-19.4,3.5c-0.9,0.2-1.8,0.3-2.9,0.5C493.6,314.8,496.6,319.2,499.1,324 M441,335.7
					c13.6-2.8,27.2-5.5,41-8.3c-0.7-0.9-1.3-1.7-1.9-2.6c-0.4-0.6-0.9-0.7-1.5-0.5c-4.5,1.2-9.2,1.9-13.8,2.6
					c-6.1,0.8-12.1,1.9-18,3.3c-2.1,0.5-4.1,1.1-6.2,1.7c-0.4,0.1-0.9,0.2-1.2,0.7C439.9,333.6,440.5,334.6,441,335.7 M522.4,308.8
					c-1.4-1-2.6-2-3.9-2.9c-0.2-0.1-0.5-0.1-0.7-0.1c-1.2,0.2-2.4,0.4-3.6,0.7c0,0-0.1,0.1-0.1,0.2c0.1,0.2,0.3,0.3,0.5,0.5
					c3.7,3.6,7.5,7.2,11.2,10.8c0.4,0.4,0.8,0.5,1.3,0.4c1.7-0.4,3.5-0.7,5.3-1.1c0.2,0,0.4-0.1,0.8-0.3c-0.3-0.2-0.5-0.3-0.7-0.5
					c-1.4-1.1-2.8-2.2-4.2-3.4c-0.5-0.4-0.9-0.4-1.4-0.2c-1,0.4-2,0.8-3,1.1c-0.2,0.1-0.5,0.3-0.7-0.2c0.3-0.2,0.5-0.4,0.8-0.5
					c0.8-0.3,1.5-0.7,2.3-1c0.2-0.1,0.3-0.2,0.6-0.4c-1-0.8-2-1.4-2.9-2.2c-0.4-0.3-0.8-0.4-1.3-0.2c-0.9,0.3-1.9,0.6-2.8,0.8
					c-0.2,0-0.3,0.1-0.5,0.1c-0.1,0-0.3-0.1-0.3-0.2c0-0.1,0-0.3,0.1-0.4c0.2-0.2,0.5-0.3,0.7-0.4
					C520.5,309.3,521.4,309.1,522.4,308.8 M532.5,310.2c0.4,0.4,0.6,0.8,0.9,1c1.6,1.4,3.3,2.8,4.9,4.2c0.4,0.4,0.8,0.4,1.3,0.3
					c2.2-0.5,4.4-0.9,6.6-1.4c0.2,0,0.4-0.1,0.7-0.2c-0.4-0.2-0.6-0.3-0.9-0.5c-2.5-1.2-5-2.3-7.6-3.4c-2.1-0.9-4.1-1.9-6.2-2.8
					c-0.4-0.2-0.8-0.4-1.2-0.3c-0.6,0.1-1.2,0.5-1.9,0.8C530.5,308.8,531.3,310,532.5,310.2 M496.8,321.8c-0.2-0.3-0.3-0.6-0.4-0.8
					c-1-1.5-2-3-3-4.5c-0.4-0.6-0.8-0.7-1.4-0.6c-1.7,0.3-3.5,0.6-5.2,0.9c-0.6,0.1-1.2,0.2-1.8,0.3c0.2,0.3,0.3,0.5,0.4,0.7
					c1.1,1.5,2.2,3,3.2,4.5c0.3,0.5,0.7,0.6,1.3,0.5c1.4-0.2,2.9-0.4,4.3-0.6C495.1,322,495.9,321.9,496.8,321.8 M506.3,319.6
					c0.6,0.7,1.1,1.2,1.5,1.7c0.4,0.6,0.8,0.7,1.5,0.6c3.3-0.7,6.7-1.4,10-2c0.3-0.1,0.5-0.2,0.9-0.3c-0.7-1.1-1.4-2.1-2-3.2
					c-0.2-0.3-0.5-0.4-0.8-0.3c-1,0.1-2,0.4-2.9,0.9c-1,0.5-1.1,0.4-1.8-0.4c-0.3-0.3-0.5-0.7-0.9-1c-0.2-0.2-0.5-0.4-0.7-0.3
					c-0.8,0.1-1.6,0.3-2.3,0.8c0.3,0.5,0.5,1,0.8,1.4c0.4,0.9,0.2,1.2-0.7,1.5C508,319.1,507.2,319.4,506.3,319.6 M413.5,335.4
					c-0.1-0.2-0.1-0.2-0.1-0.3c-1.5-1.6-3.1-3.2-4.6-4.8c-0.3-0.3-0.6-0.3-1-0.3c-1.9,0.3-3.8,0.6-5.7,1c-0.1,0-0.3,0.1-0.5,0.2
					c0.1,0.1,0.1,0.3,0.2,0.3c1.7,1.6,3.4,3.3,5.1,4.9c0.3,0.3,0.6,0.3,1,0.2c1.7-0.4,3.4-0.8,5.1-1.2
					C413.2,335.5,413.3,335.5,413.5,335.4 M422.8,327.6c0.1,0.2,0.2,0.3,0.2,0.4c1.3,1.4,2.7,2.9,4,4.3c0.3,0.3,0.6,0.4,0.9,0.3
					c2.1-0.4,4.3-0.8,6.4-1.2c0.1,0,0.2-0.1,0.5-0.2c-1.7-1.6-3.2-3.1-4.8-4.5c-0.2-0.2-0.6-0.2-0.8-0.1c-1,0.1-2.1,0.3-3.1,0.5
					C425,327.2,424,327.4,422.8,327.6 M442.9,329.9c-0.2-0.3-0.3-0.4-0.4-0.6c-1.2-1.3-2.3-2.5-3.5-3.8c-0.4-0.4-0.8-0.5-1.3-0.4
					c-2,0.4-4,0.7-6,1c-0.2,0-0.4,0.1-0.7,0.2c0.1,0.2,0.2,0.3,0.3,0.4c1.4,1.4,2.9,2.7,4.3,4.1c0.3,0.3,0.6,0.4,1,0.3
					c1.4-0.3,2.8-0.5,4.2-0.7C441.5,330.1,442.1,330,442.9,329.9 M454.5,322.2c0.2,0.3,0.3,0.5,0.4,0.6c0.9,1.2,1.8,2.4,2.6,3.6
					c0.3,0.5,0.7,0.6,1.3,0.5c2.1-0.4,4.2-0.6,6.4-1c0.2,0,0.5-0.1,0.8-0.2c-0.2-0.3-0.4-0.5-0.6-0.7c-0.9-1-1.9-2-2.8-3.1
					c-0.6-0.8-1.3-1-2.3-0.8C458.4,321.6,456.5,321.9,454.5,322.2 M487.9,323c0-0.1,0-0.2,0-0.2c-1.2-1.7-2.5-3.4-3.7-5.2
					c-0.2-0.3-0.5-0.3-0.9-0.3c-1.7,0.3-3.5,0.6-5.2,0.9c-0.2,0-0.4,0.1-0.5,0.2c0,0.1,0,0.2,0.1,0.2c1.2,1.6,2.5,3.3,3.7,4.9
					c0.2,0.3,0.5,0.4,0.8,0.3c1.8-0.3,3.5-0.5,5.3-0.8C487.7,323.1,487.8,323,487.9,323 M450.4,328.5c0-0.1,0.1-0.2,0.1-0.2
					c-1.2-1.4-2.4-2.8-3.6-4.2c-0.3-0.4-0.7-0.5-1.2-0.4c-1.9,0.3-3.8,0.6-5.6,1c-0.1,0-0.3,0.1-0.4,0.2c0,0.1,0,0.2,0.1,0.2
					c1.3,1.4,2.5,2.9,3.8,4.3c0.3,0.3,0.6,0.4,1,0.3c0.8-0.1,1.5-0.2,2.3-0.4C447.9,329,449.2,328.7,450.4,328.5 M462.8,320.9
					c0,0.1,0,0.1,0,0.1c1.3,1.5,2.6,2.9,3.9,4.4c0.2,0.3,0.5,0.3,0.8,0.2c1.8-0.3,3.5-0.6,5.3-0.9c0.2,0,0.4-0.1,0.5-0.2
					c0-0.1,0-0.2-0.1-0.2c-1.1-1.4-2.2-2.9-3.3-4.3c-0.2-0.3-0.4-0.3-0.8-0.3c-2.1,0.4-4.1,0.7-6.2,1
					C463,320.8,462.9,320.8,462.8,320.9 M439.5,336c-0.2-0.3-0.3-0.4-0.4-0.5c-1-1-1.9-1.9-2.9-3c-0.4-0.4-0.8-0.5-1.3-0.4
					c-1.4,0.3-2.8,0.5-4.1,0.8c-0.8,0.2-1.7,0.3-2.5,0.5c0.1,0.2,0.1,0.3,0.1,0.3c1.1,1.2,2.1,2.3,3.2,3.5c0.2,0.3,0.5,0.3,0.8,0.2
					C434.7,337,437,336.5,439.5,336 M492.2,315c-0.2-0.3-0.3-0.4-0.4-0.6c-0.8-1-1.7-1.9-2.5-2.9c-0.3-0.4-0.7-0.5-1.2-0.4
					c-2.1,0.4-4.2,0.8-6.2,1.1c-0.2,0-0.3,0.1-0.5,0.2c0.1,0.2,0.2,0.3,0.3,0.5c0.7,0.9,1.5,1.9,2.2,2.8c0.3,0.5,0.7,0.6,1.2,0.5
					c2.2-0.4,4.5-0.7,6.7-1.1C491.9,315.1,492,315.1,492.2,315 M426.3,332.8c-0.1-0.2-0.1-0.3-0.2-0.4c-1.3-1.4-2.7-2.9-4-4.3
					c-0.3-0.3-0.6-0.4-1-0.3c-1.6,0.3-3.1,0.5-4.7,0.8c-0.2,0-0.4,0.1-0.6,0.2c0.1,0.1,0.1,0.2,0.1,0.2c1.6,1.5,3.1,3,4.7,4.5
					c0.3,0.3,0.5,0.3,0.9,0.2c1.3-0.3,2.6-0.5,3.9-0.8C425.6,333,425.9,332.9,426.3,332.8 M395.6,332.1c0,0.1,0,0.2,0.1,0.3
					c2.1,1.8,4.2,3.6,6.2,5.4c0.1,0.1,0.4,0.2,0.6,0.2c1.2-0.3,2.5-0.6,3.9-0.9c-0.3-0.3-0.5-0.6-0.7-0.8c-1.4-1.3-2.8-2.6-4.1-3.9
					c-0.8-0.8-1.6-1.1-2.8-0.8C397.7,331.9,396.7,332,395.6,332.1 M447.5,323.4c0.1,0.2,0.1,0.3,0.1,0.3c1.2,1.4,2.3,2.8,3.5,4.2
					c0.3,0.3,0.6,0.3,1,0.3c1.4-0.3,2.9-0.5,4.3-0.8c0.2,0,0.4-0.1,0.7-0.2c-1.2-1.5-2.3-3-3.4-4.4c-0.2-0.3-0.6-0.3-0.9-0.2
					c-0.9,0.1-1.7,0.3-2.6,0.4C449.4,323.1,448.5,323.2,447.5,323.4 M409.6,329.8c0.1,0.2,0.2,0.3,0.3,0.4c1.5,1.5,3,3.1,4.5,4.6
					c0.3,0.3,0.5,0.3,0.9,0.2c1.3-0.3,2.7-0.6,4-0.8c0.2,0,0.3-0.1,0.5-0.2c-0.3-0.3-0.5-0.5-0.7-0.7c-1-1-2.1-2.1-3.2-3
					c-1.7-1.6-1-1.3-3.2-1C411.7,329.4,410.7,329.6,409.6,329.8 M408.1,337.5c0.1,0.1,0.1,0.3,0.2,0.3c1,1.1,2,2.3,3.1,3.4
					c0.2,0.3,0.5,0.3,0.9,0.3c1.5-0.3,2.9-0.6,4.4-0.9c0.4-0.1,0.8-0.2,1.4-0.3c-0.2-0.3-0.3-0.4-0.4-0.6c-0.9-1-1.8-2-2.7-3.1
					c-0.4-0.4-0.7-0.5-1.3-0.4c-1.6,0.4-3.2,0.7-4.8,1.1C408.6,337.4,408.4,337.5,408.1,337.5 M480.1,323.2c-1.1-1.6-2.2-3-3.5-4.5
					c-0.2-0.3-0.5-0.2-0.8-0.2c-1.1,0.2-2.1,0.4-3.2,0.5c-0.6,0.1-1.1,0.2-1.8,0.3c0.1,0.2,0.2,0.3,0.3,0.5c1,1.3,2,2.7,3,4
					c0.3,0.3,0.5,0.5,0.9,0.4c1.1-0.3,2.2-0.5,3.3-0.8C478.9,323.4,479.4,323.3,480.1,323.2 M483.2,316.5c0-0.2,0-0.3-0.1-0.3
					c-0.8-1.1-1.7-2.2-2.5-3.3c-0.3-0.4-0.6-0.3-1-0.3c-2,0.4-4,0.7-6,1.1c-0.2,0-0.3,0.1-0.4,0.1c1,1.1,2,2.1,2.9,3.2
					c0.4,0.4,0.7,0.5,1.3,0.4c1.3-0.2,2.6-0.4,4-0.7C482,316.7,482.6,316.6,483.2,316.5 M426.7,322.2c0,0.1,0,0.1,0,0.2
					c0.9,0.8,1.8,1.6,2.7,2.4c0.4,0.4,0.8,0.6,1.4,0.4c2.1-0.4,4.2-0.7,6.3-1.1c0.1,0,0.3-0.1,0.5-0.2c-0.2-0.2-0.3-0.4-0.4-0.5
					c-0.8-0.8-1.5-1.5-2.3-2.3c-0.4-0.4-0.7-0.4-1.2-0.3c-1.2,0.3-2.4,0.4-3.6,0.7C428.9,321.8,427.8,322,426.7,322.2 M469.1,318.8
					c-1.1-1.1-2.1-2.1-3-3.1c-0.4-0.4-0.8-0.5-1.3-0.4c-1.4,0.3-2.8,0.5-4.1,0.8c-0.7,0.1-1.4,0.3-2.2,0.4c0.1,0.2,0.1,0.3,0.2,0.3
					c1,1,2,1.9,2.9,2.9c0.3,0.3,0.6,0.3,0.9,0.2c0.7-0.1,1.5-0.2,2.2-0.4C466,319.4,467.4,319.1,469.1,318.8 M460.7,320.2
					c-0.2-0.3-0.3-0.5-0.5-0.6c-0.8-0.8-1.7-1.6-2.5-2.5c-0.4-0.4-0.8-0.5-1.3-0.4c-1.2,0.3-2.4,0.4-3.6,0.7
					c-0.7,0.1-1.4,0.3-2.3,0.4c1,1.2,2,2.2,2.9,3.3c0.1,0.1,0.4,0.2,0.6,0.1C456.3,321,458.4,320.6,460.7,320.2 M431,337.7
					c-1.3-1.4-2.5-2.6-3.6-3.8c-0.1-0.2-0.5-0.2-0.7-0.2c-0.9,0.1-1.8,0.3-2.6,0.5c-0.7,0.1-1.5,0.3-2.4,0.5
					c0.3,0.3,0.4,0.5,0.6,0.7c0.7,0.8,1.4,1.6,2.2,2.4c1.2,1.3,0.7,1.2,2.5,0.8C428.2,338.3,429.5,338,431,337.7 M445.5,322.8
					c-0.2-0.2-0.3-0.4-0.4-0.5c-0.8-0.8-1.7-1.6-2.5-2.4c-0.4-0.3-0.7-0.4-1.2-0.3c-1.8,0.3-3.6,0.6-5.4,1c-0.2,0-0.4,0.1-0.5,0.2
					c0,0.1,0,0.1,0.1,0.2c0.9,0.9,1.8,1.7,2.6,2.6c0.4,0.4,0.8,0.5,1.4,0.4c1-0.2,2.1-0.4,3.1-0.5
					C443.5,323.2,444.5,323,445.5,322.8 M424.2,339.1c0-0.2,0-0.2-0.1-0.3c-0.8-0.9-1.6-1.8-2.4-2.7c-1.5-1.6-0.8-1.3-3-0.9
					c-1.1,0.2-2.2,0.5-3.3,0.7c0,0.1,0,0.2,0,0.2c1.1,1.2,2.1,2.5,3.2,3.7c0.1,0.1,0.4,0.2,0.6,0.2
					C421,339.8,422.6,339.4,424.2,339.1 M418.8,323.7c0.9,0.9,1.8,1.8,2.6,2.6c0.4,0.4,0.8,0.5,1.3,0.4c1.8-0.3,3.5-0.6,5.3-0.9
					c0.3,0,0.5-0.1,0.9-0.2c-1.1-1-2.1-2-3.1-2.9c-0.2-0.2-0.6-0.2-0.8-0.1c-1.7,0.3-3.3,0.6-5,0.9
					C419.6,323.5,419.3,323.6,418.8,323.7 M397.4,327.5c0,0.1,0,0.1-0.1,0.2c0.9,0.8,1.8,1.5,2.7,2.3c0.4,0.4,0.8,0.5,1.4,0.4
					c1.9-0.3,3.7-0.6,5.6-1c0.2,0,0.3-0.1,0.6-0.2c-1-1-2-1.9-2.9-2.7c-0.1-0.1-0.4-0.2-0.6-0.1
					C401.8,326.7,399.6,327.1,397.4,327.5 M452.8,321.6c-1-1.1-1.8-2-2.6-2.9c-0.4-0.5-0.8-0.6-1.3-0.5c-1.3,0.3-2.6,0.5-4,0.7
					c-0.6,0.1-1.1,0.2-1.7,0.3c0,0.1,0,0.2,0.1,0.3c1,0.9,2,1.9,3,2.8c0.2,0.2,0.5,0.2,0.8,0.2c1-0.2,1.9-0.3,2.9-0.5
					C450.9,321.9,451.7,321.8,452.8,321.6 M466.7,315c0.1,0.2,0.1,0.3,0.1,0.3c1,1,2,2.1,3,3.1c0.2,0.2,0.5,0.2,0.7,0.2
					c0.7-0.1,1.3-0.2,1.9-0.3c1-0.2,2-0.3,3-0.5c0-0.2,0-0.2-0.1-0.3c-1.1-1.1-2.2-2.1-3.3-3.2c-0.1-0.1-0.4-0.2-0.6-0.2
					C470,314.4,468.4,314.7,466.7,315 M411.2,325c1.1,1,2.1,1.8,3,2.6c0.4,0.3,0.7,0.4,1.2,0.3c1.6-0.3,3.1-0.5,4.7-0.8
					c0.2,0,0.4-0.1,0.7-0.2c-0.7-0.7-1.4-1.4-2-2.1c-0.7-0.8-1.4-1.1-2.5-0.8C414.7,324.5,413.1,324.7,411.2,325 M537.7,316.2
					c0-0.2,0-0.2,0-0.2c-1.9-1.6-3.8-3.1-5.6-4.6c-0.1-0.1-0.4-0.2-0.6-0.1c-0.9,0.3-1.9,0.7-2.8,1.2c1.7,1.4,3.3,2.7,4.9,4.1
					c0.1,0.1,0.2,0.2,0.3,0.2c0.2,0.1,0.5,0.2,0.7,0.1C535.6,316.6,536.7,316.4,537.7,316.2 M410.7,341.8c0-0.1,0-0.2,0-0.3
					c-1.1-1.2-2.2-2.4-3.4-3.6c-0.1-0.1-0.4-0.2-0.6-0.2c-1.2,0.2-2.4,0.5-3.6,0.8c0,0.2,0,0.2,0.1,0.3c1.3,1.1,2.6,2.3,3.9,3.4
					c0.1,0.1,0.4,0.2,0.6,0.2C408.7,342.2,409.7,342,410.7,341.8 M405.5,326.1c1.1,1,2,1.9,3,2.8c0.2,0.2,0.5,0.2,0.8,0.2
					c1-0.1,1.9-0.3,2.9-0.5c0.4-0.1,0.9-0.2,1.3-0.3c-0.1-0.2-0.1-0.3-0.1-0.3c-0.9-0.8-1.9-1.7-2.8-2.5c-0.2-0.1-0.4-0.2-0.6-0.2
					C408.5,325.5,407.1,325.8,405.5,326.1 M399.5,330.6c-0.9-0.7-1.6-1.3-2.3-1.9c-1.2-1-1.2-1-2.8-0.7c-1,0.2-2,0.4-3.2,0.6
					c1,0.9,1.9,1.6,2.8,2.4c0.4,0.4,0.8,0.5,1.3,0.4c1-0.2,2-0.3,3-0.5C398.6,330.8,399,330.8,399.5,330.6 M527.3,307.5
					c-1.2-1-2.3-1.8-3.3-2.6c-0.2-0.1-0.4-0.1-0.7-0.1c-0.4,0-0.7,0.1-1.1,0.2c-0.9,0.2-1.8,0.3-2.8,0.5c0.1,0.1,0.1,0.2,0.1,0.3
					c1.2,0.9,2.4,1.7,3.7,2.5c0.2,0.1,0.4,0.2,0.6,0.1C524.9,308.2,526,307.9,527.3,307.5 M482.2,324.8c0.5,0.8,0.9,1.6,1.4,2.3
					c2.1-0.4,4.2-0.9,6.4-1.3c-0.4-0.5-0.7-1-1-1.4c-0.3-0.4-0.6-0.5-1-0.4c-1,0.2-2.1,0.3-3.1,0.5
					C484.1,324.5,483.3,324.6,482.2,324.8 M497.4,322.6c-2.6,0.4-5.1,0.8-7.7,1.2c0.3,0.5,0.6,0.8,0.8,1.2c0.3,0.6,0.7,0.6,1.2,0.5
					c2-0.4,4-0.8,6-1.2c0.2,0,0.3-0.1,0.5-0.2C497.9,323.5,497.6,323.1,497.4,322.6 M531.1,310.5c-1-0.8-1.9-1.5-2.8-2.2
					c-0.2-0.1-0.5-0.1-0.8,0c-0.8,0.2-1.7,0.4-2.5,0.7c-0.1,0-0.3,0.1-0.5,0.2c1.1,0.8,2,1.5,3,2.2c0.2,0.1,0.5,0.1,0.7,0.1
					C529.1,311.3,530,310.9,531.1,310.5 M525,304.5c0,0.1,0,0.2-0.1,0.2c1,0.8,2.1,1.6,3.1,2.4c0.1,0.1,0.3,0.2,0.4,0.2
					c0.7-0.1,1.4-0.2,2-0.4c-0.1-0.1-0.1-0.2-0.1-0.2c-1.5-0.7-3-1.4-4.5-2.1C525.6,304.4,525.3,304.5,525,304.5 M436.8,331.8
					c1,0.9,1.8,1.7,2.6,2.5c-0.3-0.4-0.5-0.9-0.8-1.3c-0.2-0.4-0.3-0.8,0-1.2c0.1-0.1,0.2-0.3,0.3-0.5
					C438.2,331.6,437.6,331.7,436.8,331.8"/>
				<path class="st16" d="M447.9,198c-0.1,0.2-0.3,0.4-0.4,0.6c-5.5,9.1-10.9,18.3-16.4,27.4c-9.2,15.3-18.8,30.3-28.5,45.2
					c-0.4,0.6-0.9,0.9-1.6,0.9c-4.6,0.4-9.3,0.8-13.9,1.2c-4.5,0.4-8.9,0.8-13.4,1.1c-0.2,0-0.4,0-0.6,0
					c-0.4-0.7-12.8-88.1-12.9-89.3c0.5-0.2,100.5-0.6,102.1-0.4c0.1,0.2,0.2,0.4,0.2,0.6c2.5,10.6,5,21.2,7.5,31.8
					c0.2,0.7,0,1.3-0.3,1.9c-3,5.8-6,11.6-9.1,17.3c-5.9,10.5-11.9,21-17.8,31.5c-0.4,0.6-0.8,0.9-1.5,1c-6,0.5-12,1-18,1.5
					c-5.4,0.5-10.8,0.9-16.1,1.3c-1,0.1-2,0.2-2.9,0.3c-0.4,0-0.7,0-1.2,0.1c0.2-0.4,0.4-0.7,0.6-1c4-6.1,8-12.2,11.9-18.3
					c9.8-15.4,19.2-31,28.3-46.8c1.4-2.4,2.7-4.9,4.1-7.4c0.1-0.2,0.2-0.3,0.2-0.5C448,198,447.9,198,447.9,198"/>
				<path class="st17" d="M470.5,219.4c0.1,0.5,0.3,1.1,0.4,1.6c1.2,5.3,2.5,10.6,3.7,15.8c0.2,0.7,0,1.2-0.3,1.9
					c-5.4,9-10.8,18-16.1,26.9c-0.2,0.4-0.4,0.8-0.6,1.2c-0.2,0.5-0.6,0.7-1.1,0.7c-2.8,0.2-5.6,0.5-8.4,0.7
					c-1.1,0.1-2.2,0.2-3.3,0.3c-0.4,0-0.9,0.1-1.3,0.1c-0.1-0.5,0.2-0.7,0.4-1c3.3-5.7,6.6-11.4,9.8-17.1
					c5.3-9.3,10.6-18.7,15.3-28.3c0.5-0.9,0.9-1.9,1.4-2.8C470.4,219.3,470.4,219.3,470.5,219.4"/>
				<path class="st16" d="M475,238.6c2.1,9,4.2,17.8,6.3,26.8c-6.3,0.6-12.5,1.1-19,1.6c0.3-0.5,0.4-0.8,0.6-1
					c3.3-5.4,6.5-10.8,9.8-16.1c0.7-1.2,1.4-2.4,2-3.6c0.2-0.3,0.3-0.6,0.4-0.8c-0.1,0-0.1-0.1-0.2-0.1c-0.3,0.4-0.5,0.7-0.8,1.1
					c-4,6.5-8.1,13-12.1,19.6c-0.2,0.3-0.3,0.5-0.5,0.8c-0.2,0.2-0.4,0.4-0.6,0.4c-1,0.1-2,0.2-3,0.2c-0.1,0-0.2-0.1-0.3-0.1
					C463.5,257.7,469.2,248.3,475,238.6"/>
				<path class="st13" d="M500.2,278.2c-0.3-12.2-0.7-24.2-1-36.3c12.4-1.3,24.7-2.6,37.2-3.9c0.4,11.7,0.7,23.4,1.1,35.1
					C525,274.8,512.7,276.5,500.2,278.2 M526.4,266.6c0-2.7-2.2-4.9-4.9-4.9c-2.7,0-5.3,2.5-5.3,5.3c0,2.7,2.3,5,5.1,5.1
					C524.1,272,526.4,269.7,526.4,266.6"/>
				<path class="st14" d="M535.7,215.3c0.2,7.3,0.4,14.5,0.7,21.8c-12.4,1.3-24.8,2.6-37.2,3.9c-0.2-8.3-0.5-16.5-0.7-24.8
					C510.9,215.9,523.3,215.6,535.7,215.3"/>
				<path class="st13" d="M497.7,187.6c-0.1-5-0.3-9.8-0.4-14.7c12.5,0.7,24.8,1.4,37.2,2.1c0.1,4.5,0.3,8.9,0.4,13.5
					C522.5,188.2,510.1,187.9,497.7,187.6"/>
				<path class="st14" d="M534.9,189.4c0.1,4,0.2,7.9,0.4,11.8c-0.7,0.2-35.8,0.7-37.2,0.6c-0.2-4.3-0.3-8.7-0.4-13.2
					C510.1,188.9,522.5,189.1,534.9,189.4"/>
				<path class="st13" d="M498.5,215.2c-0.1-4.1-0.2-8.2-0.3-12.4c12.4-0.2,24.8-0.3,37.2-0.5c0.1,4,0.2,8,0.4,11.9
					C535,214.4,499.7,215.4,498.5,215.2"/>
				<path class="st14" d="M531.1,163.1c0.4,0,0.7,0,1,0.1c0.7,0.1,1.4,0.1,2.1,0.2c0.1,3.5,0.2,7,0.3,10.6
					c-12.4-0.7-24.7-1.4-37.1-2.1c-0.2-0.7-0.5-11-0.4-12.1c1.2,0.1,2.4,0.2,3.7,0.3c0.1,1.5,0.2,2.9,0.4,4.3
					c0.1,0.8,0.1,1.5,0.2,2.3c0,0.4,0.1,0.6,0.6,0.7c1.8,0.1,3.6,0.2,5.3,0.3c5.1,0.4,10.2,0.8,15.2,1.2c2.3,0.2,4.5,0.4,6.8,0.5
					c1.1,0.1,1.1,0.1,1.2-1c0.2-1.5,0.4-3.1,0.6-4.6C531,163.7,531,163.5,531.1,163.1"/>
				<path class="st15" d="M502.2,166.5c-0.2-2.1-0.3-4.1-0.5-6.2c9.5,0.9,18.9,1.8,28.5,2.7c-0.2,1.9-0.5,3.7-0.7,5.7
					C520.3,167.9,511.3,167.2,502.2,166.5"/>
				<path class="st18" d="M499.1,324c-2.5-4.8-5.5-9.1-9.3-13.1c1.1-0.2,2-0.4,2.9-0.5c6.5-1.2,13-2.3,19.4-3.5c0.6-0.1,1,0,1.5,0.5
					c3.6,3.5,7.2,7.1,10.8,10.6c0.2,0.2,0.5,0.4,0.7,0.7c-0.7,0.4-3.2,0.9-4.2,0.9c-0.6-1-1.3-2-1.9-3.1c-0.5-0.9-1.2-1.3-2.2-1
					c-1.1,0.3-2.2,0.6-3.4,1c-0.3-0.3-0.6-0.7-1-1.2c-0.5-0.7-1.2-1-2-0.7c-0.7,0.2-1.4,0.4-2,0.7c-0.7,0.3-0.8,0.7-0.4,1.4
					c0.2,0.4,0.5,0.9,0.8,1.4c-0.3,0.1-0.5,0.2-0.7,0.3c-0.7,0.2-1.4,0.4-2.1,0.7c-0.8,0.3-0.8,0.7-0.3,1.4c0.3,0.4,0.7,0.8,1.1,1.2
					c0.2,0.2,0.4,0.5,0.6,0.8C504.6,322.9,501.9,323.4,499.1,324 M515.4,311.6c-0.8,0.1-1.5,0.2-2.1,0.4c-0.4,0.1-0.6,0.5-0.9,0.8
					c-0.3,0.2-0.3,0.5-0.1,0.8c0.3,0.5,0.6,1,0.9,1.4c0.2,0.4,0.6,0.5,1,0.4c0.8-0.2,1.6-0.4,2.3-0.6c1-0.3,1.1-0.8,0.6-1.6
					c-0.2-0.4-0.4-0.7-0.8-1C516.1,311.8,515.7,311.7,515.4,311.6 M501.2,315.9c-0.3,1,0.4,2.2,1.2,2.2c0.9,0,1.7-0.1,2.6-0.2
					c0.6-0.1,0.8-0.6,0.5-1.2c-0.2-0.4-0.4-0.8-0.6-1.2c-0.8-1.3-2-1.5-3.3-0.6c-0.1,0.1-0.2,0.3-0.3,0.5c0.6,0.2,1-0.1,1.4-0.2
					c0.6-0.2,1,0,1.3,0.5c0.3,0.4,0.5,0.9,0.8,1.3c-0.8,0.2-1.5,0.4-2.2,0.6C502.1,317.1,501.7,316.6,501.2,315.9 M497.1,312.4
					c0.5-0.3,0.8-0.5,1.1-0.6c0.5-0.2,1.1,0.1,1.1,0.6c0,0.2-0.1,0.5-0.2,0.6c-0.1,0.1-0.4,0-0.6,0c-0.3-0.1-0.6-0.4-0.9-0.6
					c-0.1,0.6-0.1,0.6,0.1,0.9c0.4,0.4,0.8,0.7,1.3,0.6c0.2,0,0.5-0.2,0.7-0.3c0.5-0.5,0.5-1.1,0.3-1.7c-0.2-0.6-0.7-1-1.4-1.1
					c-0.6-0.1-1.2,0.2-1.5,0.7C497.1,311.8,497.1,312.1,497.1,312.4 M509.5,308.4c0.5,0.1,0.9,0.2,1.3,0.3c0.2,0.1,0.5,0.3,0.6,0.6
					c0,0.2-0.1,0.6-0.3,0.8c-0.3,0.3-0.6,0.2-0.9,0c-0.2-0.1-0.4-0.3-0.6-0.4c-0.1,0-0.1,0.1-0.2,0.1c0,0.2,0,0.4,0.1,0.6
					c0.3,0.6,1,0.9,1.7,0.7c0.7-0.2,1.2-0.9,1.1-1.7c0-0.8-0.6-1.3-1.4-1.4C510.4,307.8,509.8,307.7,509.5,308.4 M503.9,310.3
					c0,0,0.1,0,0.3,0c0.4,0.1,0.6,0.3,0.6,0.7c-0.1,0.4-0.3,0.6-0.7,0.6c-0.2,0-0.4-0.1-0.6-0.2c-0.2-0.1-0.3-0.2-0.5-0.2
					c-0.1,0-0.3,0-0.3,0c-0.1,0.1-0.1,0.3,0,0.4c0.3,0.3,0.7,0.6,1.1,0.7c0.6,0.2,1.3-0.1,1.7-0.7c0.3-0.6,0.2-1.3-0.3-1.8
					c-0.5-0.4-1.4-0.5-1.8-0.1c-0.1,0.1-0.2,0.3-0.2,0.4c0,0.1,0.3,0.2,0.4,0.2C503.6,310.4,503.7,310.4,503.9,310.3"/>
				<path class="st18" d="M441,335.7c-0.6-1.1-1.1-2.1-1.6-3.1c0.2-0.5,0.7-0.6,1.2-0.7c2.1-0.6,4.1-1.2,6.2-1.7
					c6-1.4,12-2.4,18-3.3c4.6-0.7,9.3-1.4,13.8-2.6c0.7-0.2,1.1-0.1,1.5,0.5c0.6,0.8,1.2,1.6,1.9,2.6
					C468.3,330.2,454.7,332.9,441,335.7"/>
				<path class="st18" d="M522.4,308.8c-1,0.3-1.9,0.6-2.7,0.9c-0.2,0.1-0.5,0.2-0.7,0.4c-0.1,0.1-0.1,0.3-0.1,0.4
					c0,0.1,0.2,0.2,0.3,0.2c0.2,0,0.3-0.1,0.5-0.1c0.9-0.3,1.9-0.5,2.8-0.8c0.5-0.2,0.9-0.1,1.3,0.2c0.9,0.7,1.8,1.4,2.9,2.2
					c-0.3,0.2-0.4,0.3-0.6,0.4c-0.8,0.3-1.5,0.6-2.3,1c-0.3,0.1-0.5,0.3-0.8,0.5c0.2,0.5,0.5,0.3,0.7,0.2c1-0.4,2-0.7,3-1.1
					c0.5-0.2,0.9-0.2,1.4,0.2c1.4,1.1,2.8,2.2,4.2,3.4c0.2,0.1,0.4,0.3,0.7,0.5c-0.4,0.1-0.6,0.2-0.8,0.3c-1.8,0.4-3.5,0.7-5.3,1.1
					c-0.5,0.1-0.9,0-1.3-0.4c-3.7-3.6-7.5-7.2-11.2-10.8c-0.2-0.2-0.3-0.3-0.5-0.5c0-0.1,0.1-0.2,0.1-0.2c1.2-0.2,2.4-0.5,3.6-0.7
					c0.2,0,0.5,0,0.7,0.1C519.8,306.8,521,307.7,522.4,308.8"/>
				<path class="st18" d="M532.5,310.2c-1.3-0.3-2.1-1.4-3.3-2.3c0.7-0.3,1.3-0.7,1.9-0.8c0.4-0.1,0.8,0.1,1.2,0.3
					c2.1,0.9,4.1,1.9,6.2,2.8c2.5,1.1,5,2.3,7.6,3.4c0.3,0.1,0.5,0.3,0.9,0.5c-0.3,0.1-0.5,0.2-0.7,0.2c-2.2,0.5-4.4,0.9-6.7,1.4
					c-0.5,0.1-0.9,0-1.3-0.3c-1.6-1.4-3.3-2.8-4.9-4.2C533.1,311,532.9,310.6,532.5,310.2"/>
				<path class="st18" d="M496.8,321.8c-0.9,0.1-1.8,0.3-2.6,0.4c-1.4,0.2-2.9,0.4-4.3,0.6c-0.6,0.1-0.9,0-1.3-0.5
					c-1-1.5-2.1-3-3.2-4.5c-0.1-0.2-0.3-0.4-0.4-0.7c0.7-0.1,1.2-0.2,1.8-0.3c1.7-0.3,3.5-0.6,5.2-0.9c0.6-0.1,1.1,0,1.4,0.6
					c1,1.5,2,3,3,4.5C496.5,321.2,496.7,321.4,496.8,321.8"/>
				<path class="st18" d="M506.3,319.6c1-0.3,1.8-0.5,2.6-0.7c1-0.2,1.1-0.5,0.7-1.5c-0.2-0.5-0.5-0.9-0.8-1.4
					c0.7-0.5,1.5-0.7,2.3-0.8c0.2,0,0.5,0.2,0.7,0.3c0.3,0.3,0.6,0.7,0.9,1c0.7,0.9,0.8,0.9,1.8,0.4c0.9-0.5,1.9-0.8,2.9-0.9
					c0.4,0,0.6,0,0.8,0.3c0.6,1,1.3,2.1,2,3.2c-0.4,0.1-0.6,0.2-0.9,0.3c-3.3,0.7-6.7,1.3-10,2c-0.7,0.1-1.1,0-1.5-0.6
					C507.3,320.8,506.9,320.3,506.3,319.6"/>
				<path class="st18" d="M413.5,335.4c-0.2,0.1-0.3,0.1-0.5,0.1c-1.7,0.4-3.4,0.8-5.1,1.2c-0.4,0.1-0.7,0-1-0.2
					c-1.7-1.6-3.4-3.3-5.1-4.9c-0.1-0.1-0.1-0.2-0.2-0.3c0.2-0.1,0.3-0.1,0.5-0.2c1.9-0.3,3.8-0.6,5.7-1c0.4-0.1,0.7,0,1,0.3
					c1.5,1.6,3.1,3.2,4.6,4.8C413.4,335.2,413.4,335.2,413.5,335.4"/>
				<path class="st18" d="M422.8,327.6c1.2-0.2,2.3-0.4,3.3-0.6c1-0.2,2.1-0.4,3.1-0.5c0.3,0,0.6,0,0.8,0.1c1.6,1.5,3.2,3,4.8,4.5
					c-0.2,0.1-0.3,0.2-0.5,0.2c-2.1,0.4-4.3,0.8-6.4,1.2c-0.4,0.1-0.7,0-0.9-0.3c-1.3-1.4-2.7-2.9-4-4.3
					C422.9,327.9,422.9,327.8,422.8,327.6"/>
				<path class="st18" d="M442.9,329.9c-0.8,0.1-1.4,0.3-2.1,0.4c-1.4,0.2-2.8,0.5-4.2,0.7c-0.4,0.1-0.7,0-1-0.3
					c-1.4-1.4-2.9-2.7-4.3-4.1c-0.1-0.1-0.2-0.2-0.3-0.4c0.3-0.1,0.5-0.2,0.7-0.2c2-0.3,4-0.7,6-1c0.6-0.1,1,0,1.3,0.4
					c1.1,1.3,2.3,2.6,3.5,3.8C442.6,329.4,442.7,329.6,442.9,329.9"/>
				<path class="st18" d="M454.5,322.2c2-0.3,3.9-0.6,5.8-1c1-0.2,1.7,0,2.3,0.8c0.9,1.1,1.9,2.1,2.8,3.1c0.2,0.2,0.3,0.4,0.6,0.7
					c-0.3,0.1-0.6,0.2-0.8,0.2c-2.1,0.3-4.2,0.6-6.4,1c-0.6,0.1-0.9,0-1.3-0.5c-0.8-1.2-1.8-2.4-2.6-3.6
					C454.7,322.7,454.6,322.5,454.5,322.2"/>
				<path class="st18" d="M487.9,323c-0.1,0-0.3,0.1-0.4,0.1c-1.8,0.3-3.5,0.5-5.3,0.8c-0.3,0.1-0.6,0-0.8-0.3
					c-1.2-1.7-2.5-3.3-3.7-4.9c0,0,0-0.1-0.1-0.2c0.2-0.1,0.3-0.2,0.5-0.2c1.7-0.3,3.5-0.6,5.2-0.9c0.3-0.1,0.6-0.1,0.9,0.3
					c1.2,1.7,2.5,3.4,3.7,5.2C487.9,322.8,487.9,322.9,487.9,323"/>
				<path class="st18" d="M450.4,328.5c-1.2,0.3-2.4,0.5-3.6,0.8c-0.8,0.1-1.5,0.3-2.3,0.4c-0.4,0.1-0.7,0-1-0.3
					c-1.2-1.4-2.5-2.9-3.8-4.3c0,0,0-0.1-0.1-0.2c0.1-0.1,0.2-0.1,0.4-0.2c1.9-0.3,3.8-0.6,5.6-1c0.5-0.1,0.8,0,1.2,0.4
					c1.2,1.4,2.4,2.8,3.6,4.2C450.4,328.3,450.4,328.4,450.4,328.5"/>
				<path class="st18" d="M462.8,320.9c0.1,0,0.2-0.1,0.3-0.1c2.1-0.3,4.1-0.7,6.2-1c0.3-0.1,0.6,0,0.8,0.3c1.1,1.4,2.2,2.9,3.3,4.3
					c0,0,0,0.1,0.1,0.2c-0.2,0.1-0.4,0.1-0.5,0.2c-1.8,0.3-3.5,0.6-5.3,0.9c-0.3,0.1-0.6,0-0.8-0.2c-1.3-1.5-2.6-2.9-3.9-4.4
					C462.8,321,462.8,321,462.8,320.9"/>
				<path class="st18" d="M439.5,336c-2.5,0.5-4.8,1-7.1,1.5c-0.3,0.1-0.6,0-0.8-0.2c-1.1-1.2-2.1-2.3-3.2-3.5
					c-0.1-0.1-0.1-0.2-0.1-0.3c0.9-0.2,1.7-0.3,2.5-0.5c1.4-0.3,2.8-0.5,4.1-0.8c0.5-0.1,0.9,0,1.3,0.4c0.9,1,1.9,2,2.9,3
					C439.2,335.6,439.3,335.8,439.5,336"/>
				<path class="st18" d="M492.2,315c-0.2,0.1-0.3,0.1-0.4,0.1c-2.2,0.4-4.5,0.7-6.7,1.1c-0.5,0.1-0.9,0-1.2-0.5
					c-0.7-1-1.5-1.9-2.2-2.8c-0.1-0.1-0.2-0.3-0.3-0.5c0.2-0.1,0.4-0.2,0.5-0.2c2.1-0.4,4.2-0.7,6.2-1.1c0.5-0.1,0.8,0,1.2,0.4
					c0.8,1,1.7,1.9,2.5,2.9C491.9,314.6,492,314.7,492.2,315"/>
				<path class="st18" d="M426.3,332.8c-0.3,0.1-0.6,0.2-0.9,0.2c-1.3,0.3-2.6,0.5-3.9,0.8c-0.3,0.1-0.6,0.1-0.9-0.2
					c-1.5-1.5-3.1-3-4.7-4.5c0,0,0-0.1-0.1-0.2c0.2-0.1,0.4-0.1,0.6-0.2c1.6-0.3,3.1-0.5,4.7-0.8c0.4-0.1,0.7-0.1,1,0.3
					c1.3,1.4,2.7,2.9,4,4.3C426.1,332.5,426.1,332.7,426.3,332.8"/>
				<path class="st18" d="M395.6,332.1c1.1-0.2,2.2-0.3,3.2-0.6c1.1-0.3,2,0,2.8,0.8c1.3,1.3,2.7,2.6,4.1,3.9
					c0.2,0.2,0.4,0.4,0.7,0.8c-1.4,0.3-2.6,0.6-3.9,0.9c-0.2,0-0.4-0.1-0.6-0.2c-2.1-1.8-4.2-3.6-6.2-5.4
					C395.6,332.4,395.6,332.3,395.6,332.1"/>
				<path class="st18" d="M447.5,323.4c0.9-0.2,1.8-0.3,2.7-0.5c0.9-0.1,1.7-0.3,2.6-0.4c0.3-0.1,0.6-0.1,0.9,0.2
					c1.1,1.5,2.2,2.9,3.4,4.4c-0.3,0.1-0.5,0.2-0.7,0.2c-1.4,0.3-2.9,0.5-4.3,0.8c-0.4,0.1-0.7,0.1-1-0.3c-1.1-1.4-2.3-2.8-3.5-4.2
					C447.6,323.6,447.6,323.5,447.5,323.4"/>
				<path class="st18" d="M409.6,329.8c1.1-0.2,2.1-0.4,3.1-0.5c2.2-0.3,1.5-0.6,3.2,1c1.1,1,2.1,2,3.2,3c0.2,0.2,0.4,0.4,0.7,0.7
					c-0.2,0.1-0.3,0.2-0.5,0.2c-1.3,0.3-2.7,0.6-4,0.8c-0.4,0.1-0.6,0-0.9-0.2c-1.5-1.6-3-3.1-4.5-4.6
					C409.8,330.1,409.7,330,409.6,329.8"/>
				<path class="st18" d="M408.1,337.5c0.2-0.1,0.4-0.2,0.6-0.2c1.6-0.4,3.2-0.7,4.8-1.1c0.5-0.1,0.9,0,1.3,0.4c0.9,1,1.8,2,2.7,3.1
					c0.1,0.2,0.2,0.3,0.4,0.6c-0.5,0.1-0.9,0.2-1.4,0.3c-1.5,0.3-2.9,0.6-4.4,0.9c-0.4,0.1-0.6,0-0.9-0.3c-1-1.1-2-2.3-3.1-3.4
					C408.3,337.8,408.2,337.7,408.1,337.5"/>
				<path class="st18" d="M480.1,323.2c-0.7,0.1-1.2,0.2-1.8,0.3c-1.1,0.2-2.2,0.5-3.3,0.8c-0.4,0.1-0.6,0-0.9-0.4c-1-1.3-2-2.7-3-4
					c-0.1-0.1-0.2-0.2-0.3-0.5c0.7-0.1,1.2-0.2,1.8-0.3c1.1-0.2,2.1-0.4,3.2-0.5c0.3-0.1,0.6-0.1,0.8,0.2
					C477.9,320.2,479,321.7,480.1,323.2"/>
				<path class="st18" d="M483.2,316.5c-0.6,0.1-1.2,0.2-1.8,0.3c-1.3,0.2-2.7,0.4-4,0.7c-0.5,0.1-0.9,0-1.3-0.4
					c-0.9-1.1-1.9-2.1-2.9-3.2c0,0,0.2-0.1,0.4-0.1c2-0.4,4-0.7,6-1.1c0.4-0.1,0.7-0.1,1,0.3c0.8,1.1,1.7,2.2,2.5,3.3
					C483.2,316.2,483.2,316.3,483.2,316.5"/>
				<path class="st18" d="M426.7,322.2c1.1-0.2,2.3-0.4,3.4-0.6c1.2-0.2,2.4-0.4,3.6-0.7c0.5-0.1,0.8,0,1.2,0.3
					c0.7,0.8,1.5,1.5,2.3,2.3c0.1,0.1,0.2,0.3,0.4,0.5c-0.2,0.1-0.3,0.1-0.5,0.2c-2.1,0.4-4.2,0.7-6.3,1.1c-0.6,0.1-1,0-1.4-0.4
					c-0.9-0.8-1.8-1.6-2.7-2.4C426.6,322.4,426.6,322.3,426.7,322.2"/>
				<path class="st18" d="M469.1,318.8c-1.6,0.3-3,0.5-4.4,0.8c-0.7,0.1-1.5,0.2-2.2,0.4c-0.3,0.1-0.6,0-0.9-0.2c-1-1-2-1.9-2.9-2.9
					c-0.1-0.1-0.1-0.2-0.2-0.3c0.8-0.1,1.5-0.3,2.2-0.4c1.4-0.3,2.8-0.5,4.1-0.8c0.5-0.1,0.9,0,1.3,0.4
					C467,316.7,467.9,317.7,469.1,318.8"/>
				<path class="st18" d="M460.7,320.2c-2.3,0.4-4.4,0.8-6.6,1.1c-0.2,0-0.5,0-0.6-0.1c-1-1-1.9-2.1-2.9-3.3
					c0.8-0.2,1.6-0.3,2.3-0.4c1.2-0.2,2.4-0.4,3.6-0.7c0.5-0.1,0.9,0,1.3,0.4c0.8,0.8,1.6,1.6,2.5,2.5
					C460.4,319.8,460.5,320,460.7,320.2"/>
				<path class="st18" d="M431,337.7c-1.5,0.3-2.8,0.6-4.1,0.8c-1.8,0.3-1.2,0.5-2.5-0.8c-0.7-0.8-1.5-1.6-2.2-2.4
					c-0.2-0.2-0.3-0.4-0.6-0.7c0.9-0.2,1.6-0.3,2.4-0.5c0.9-0.2,1.7-0.4,2.6-0.5c0.2,0,0.6,0,0.7,0.2
					C428.5,335.1,429.7,336.3,431,337.7"/>
				<path class="st18" d="M445.5,322.8c-1,0.2-2,0.4-2.9,0.5c-1,0.2-2.1,0.3-3.1,0.5c-0.5,0.1-1,0-1.4-0.4c-0.8-0.9-1.7-1.7-2.6-2.6
					c0,0,0-0.1-0.1-0.2c0.2-0.1,0.3-0.2,0.5-0.2c1.8-0.3,3.6-0.6,5.4-1c0.5-0.1,0.9,0,1.2,0.3c0.8,0.8,1.7,1.6,2.5,2.4
					C445.2,322.4,445.3,322.6,445.5,322.8"/>
				<path class="st18" d="M424.2,339.1c-1.6,0.3-3.3,0.7-4.9,1c-0.2,0-0.5-0.1-0.6-0.2c-1.1-1.2-2.2-2.5-3.2-3.7c0,0,0-0.1,0-0.2
					c1.1-0.2,2.2-0.5,3.3-0.7c2.2-0.4,1.4-0.6,3,0.9c0.8,0.9,1.6,1.8,2.4,2.7C424.2,338.8,424.2,338.9,424.2,339.1"/>
				<path class="st18" d="M418.8,323.7c0.5-0.1,0.8-0.2,1.1-0.3c1.7-0.3,3.3-0.6,5-0.9c0.3,0,0.6,0,0.8,0.1c1,0.9,2,1.8,3.1,2.9
					c-0.4,0.1-0.7,0.2-0.9,0.2c-1.8,0.3-3.5,0.6-5.3,0.9c-0.5,0.1-0.9,0-1.3-0.4C420.6,325.5,419.7,324.7,418.8,323.7"/>
				<path class="st18" d="M397.4,327.5c2.2-0.4,4.5-0.8,6.7-1.2c0.2,0,0.4,0,0.6,0.1c1,0.9,1.9,1.8,2.9,2.7
					c-0.3,0.1-0.4,0.2-0.6,0.2c-1.9,0.3-3.8,0.6-5.6,1c-0.6,0.1-1,0-1.4-0.4c-0.9-0.8-1.8-1.5-2.7-2.3
					C397.3,327.7,397.3,327.6,397.4,327.5"/>
				<path class="st18" d="M452.8,321.6c-1.1,0.2-1.9,0.3-2.8,0.5c-1,0.2-1.9,0.3-2.9,0.5c-0.3,0.1-0.6,0.1-0.8-0.2
					c-1-0.9-2-1.9-3-2.8c0,0,0-0.1-0.1-0.3c0.6-0.1,1.1-0.2,1.7-0.3c1.3-0.2,2.6-0.5,4-0.7c0.6-0.1,1,0,1.3,0.5
					C451,319.6,451.8,320.5,452.8,321.6"/>
				<path class="st18" d="M466.7,315c1.7-0.3,3.3-0.6,4.9-0.9c0.2,0,0.4,0.1,0.6,0.2c1.1,1,2.2,2.1,3.3,3.2c0,0,0,0.1,0.1,0.3
					c-1,0.2-2,0.4-3,0.5c-0.6,0.1-1.3,0.2-1.9,0.3c-0.2,0-0.6,0-0.7-0.2c-1-1-2-2-3-3.1C466.7,315.3,466.7,315.2,466.7,315"/>
				<path class="st18" d="M411.2,325c1.8-0.3,3.5-0.6,5.1-1c1.1-0.3,1.8,0,2.5,0.8c0.6,0.7,1.3,1.3,2,2.1c-0.3,0.1-0.5,0.2-0.7,0.2
					c-1.6,0.3-3.1,0.5-4.7,0.8c-0.5,0.1-0.8,0-1.2-0.3C413.3,326.8,412.4,326,411.2,325"/>
				<path class="st18" d="M537.7,316.2c-1.1,0.2-2.1,0.4-3.2,0.6c-0.2,0-0.5-0.1-0.7-0.2c-0.1,0-0.2-0.1-0.3-0.2
					c-1.6-1.3-3.2-2.7-4.9-4.1c1-0.5,1.9-0.8,2.8-1.2c0.2-0.1,0.4,0,0.6,0.1c1.9,1.5,3.8,3.1,5.6,4.6
					C537.7,316,537.7,316,537.7,316.2"/>
				<path class="st18" d="M410.7,341.8c-1,0.2-2,0.4-3,0.6c-0.2,0-0.4-0.1-0.6-0.2c-1.3-1.1-2.6-2.2-3.9-3.4c0,0,0-0.1-0.1-0.3
					c1.2-0.3,2.4-0.5,3.6-0.8c0.2,0,0.4,0.1,0.6,0.2c1.1,1.2,2.3,2.4,3.4,3.6C410.7,341.6,410.7,341.7,410.7,341.8"/>
				<path class="st18" d="M405.5,326.1c1.6-0.3,3-0.5,4.4-0.8c0.2,0,0.5,0.1,0.6,0.2c1,0.8,1.9,1.6,2.8,2.5c0.1,0,0.1,0.1,0.1,0.3
					c-0.5,0.1-0.9,0.2-1.3,0.3c-1,0.2-1.9,0.4-2.9,0.5c-0.3,0-0.6,0-0.8-0.2C407.5,328,406.6,327.1,405.5,326.1"/>
				<path class="st18" d="M399.5,330.6c-0.6,0.1-0.9,0.2-1.2,0.3c-1,0.2-2,0.3-3,0.5c-0.5,0.1-0.9,0-1.3-0.4
					c-0.9-0.8-1.7-1.5-2.8-2.4c1.2-0.2,2.2-0.4,3.2-0.6c1.6-0.3,1.6-0.3,2.8,0.7C398,329.3,398.7,329.9,399.5,330.6"/>
				<path class="st18" d="M527.3,307.5c-1.3,0.3-2.4,0.6-3.5,0.9c-0.2,0-0.4,0-0.6-0.1c-1.2-0.8-2.4-1.7-3.7-2.5c0,0,0-0.1-0.1-0.3
					c0.9-0.2,1.8-0.4,2.8-0.5c0.4-0.1,0.7-0.2,1.1-0.2c0.2,0,0.5,0,0.7,0.1C525,305.7,526,306.6,527.3,307.5"/>
				<path class="st18" d="M482.2,324.8c1-0.1,1.9-0.3,2.7-0.4c1-0.1,2.1-0.3,3.1-0.5c0.5-0.1,0.8,0,1,0.4c0.3,0.4,0.6,0.9,1,1.4
					c-2.2,0.4-4.3,0.9-6.4,1.3C483.2,326.3,482.7,325.6,482.2,324.8"/>
				<path class="st18" d="M497.4,322.6c0.3,0.5,0.5,1,0.8,1.4c-0.2,0.1-0.3,0.2-0.5,0.2c-2,0.4-4,0.8-6,1.2c-0.6,0.1-1,0-1.2-0.5
					c-0.2-0.4-0.5-0.7-0.8-1.2C492.3,323.3,494.8,323,497.4,322.6"/>
				<path class="st18" d="M531.1,310.5c-1.1,0.4-2,0.8-2.9,1.1c-0.2,0.1-0.5,0-0.7-0.1c-1-0.7-1.9-1.4-3-2.2
					c0.2-0.1,0.3-0.2,0.5-0.2c0.8-0.2,1.7-0.5,2.5-0.7c0.2-0.1,0.6-0.1,0.8,0C529.2,309,530.1,309.7,531.1,310.5"/>
				<path class="st18" d="M525,304.5c0.3,0,0.6,0,0.8,0.1c1.5,0.7,3,1.4,4.5,2.1c0,0,0.1,0.1,0.1,0.2c-0.7,0.3-1.3,0.3-2,0.4
					c-0.1,0-0.3-0.1-0.4-0.2c-1-0.8-2.1-1.6-3.1-2.4C525,304.6,525,304.5,525,304.5"/>
				<path class="st18" d="M436.8,331.8c0.8-0.1,1.4-0.2,2.2-0.4c-0.1,0.2-0.2,0.4-0.3,0.5c-0.3,0.4-0.2,0.8,0,1.2
					c0.3,0.4,0.5,0.8,0.8,1.3C438.6,333.6,437.8,332.8,436.8,331.8"/>
				<path class="st11" d="M526.4,266.6c0,3-2.3,5.4-5.2,5.4c-2.8,0-5.1-2.4-5.1-5.1c0-2.8,2.6-5.3,5.3-5.3
					C524.2,261.7,526.4,263.9,526.4,266.6 M521.3,270.8c0.4-0.1,0.9-0.1,1.3-0.3c1.6-0.6,2.6-2.4,2.5-4.2c-0.1-2.6-3.4-4.4-5.5-2.7
					c-0.3,0.3-0.7,0.5-1.1,0.8c-0.6,0.4-0.9,1-1.1,1.7C516.9,268.5,518.8,270.8,521.3,270.8"/>
				<path class="st11" d="M515.4,311.6c0.3,0.1,0.7,0.2,1,0.5c0.3,0.3,0.6,0.6,0.8,1c0.5,0.9,0.3,1.3-0.6,1.6
					c-0.8,0.2-1.6,0.4-2.3,0.6c-0.4,0.1-0.8,0-1-0.4c-0.3-0.5-0.6-1-0.9-1.4c-0.2-0.3-0.2-0.6,0.1-0.8c0.3-0.2,0.6-0.6,0.9-0.8
					C513.9,311.8,514.6,311.7,515.4,311.6 M516.5,313.8c-0.3-0.6-0.5-1.2-1-1.3c-0.5-0.1-1.1,0-1.6,0.2c-0.3,0.1-0.5,0.4-0.8,0.6
					c0.2,0.3,0.3,0.6,0.5,0.8c0.1,0.1,0.4,0.3,0.6,0.3C514.9,314.3,515.7,314,516.5,313.8"/>
				<path class="st11" d="M501.2,315.9c0.5,0.7,0.9,1.2,1.3,1.7c0.7-0.2,1.4-0.4,2.2-0.6c-0.3-0.5-0.5-0.9-0.8-1.3
					c-0.3-0.5-0.8-0.6-1.3-0.5c-0.4,0.1-0.8,0.4-1.4,0.2c0.1-0.2,0.2-0.4,0.3-0.5c1.2-0.9,2.5-0.7,3.3,0.6c0.2,0.4,0.5,0.8,0.6,1.2
					c0.3,0.6,0.1,1-0.5,1.2c-0.8,0.2-1.7,0.3-2.6,0.2C501.6,318.1,500.9,316.9,501.2,315.9"/>
				<path class="st11" d="M497.1,312.4c0-0.4,0-0.6,0.1-0.8c0.4-0.5,0.9-0.8,1.5-0.7c0.7,0.1,1.2,0.5,1.4,1.1
					c0.2,0.6,0.2,1.2-0.3,1.7c-0.2,0.2-0.5,0.3-0.7,0.3c-0.6,0.1-1-0.3-1.3-0.6c-0.2-0.3-0.2-0.3-0.1-0.9c0.3,0.2,0.6,0.4,0.9,0.6
					c0.2,0.1,0.5,0.1,0.6,0c0.1-0.1,0.2-0.4,0.2-0.6c-0.1-0.6-0.6-0.9-1.1-0.6C497.9,311.9,497.6,312.1,497.1,312.4"/>
				<path class="st11" d="M509.5,308.4c0.4-0.7,0.9-0.6,1.4-0.5c0.8,0.1,1.3,0.7,1.4,1.4c0,0.7-0.4,1.4-1.1,1.7
					c-0.6,0.2-1.4-0.1-1.7-0.7c-0.1-0.2-0.1-0.4-0.1-0.6c0.1,0,0.1-0.1,0.2-0.1c0.2,0.1,0.4,0.3,0.6,0.4c0.3,0.2,0.6,0.3,0.9,0
					c0.2-0.2,0.4-0.5,0.3-0.8c0-0.2-0.3-0.5-0.6-0.6C510.4,308.5,509.9,308.5,509.5,308.4"/>
				<path class="st11" d="M503.9,310.3c-0.3,0-0.4,0.1-0.4,0.1c-0.2-0.1-0.4-0.1-0.4-0.2c0-0.1,0.1-0.3,0.2-0.4
					c0.5-0.4,1.4-0.3,1.8,0.1c0.5,0.4,0.6,1.2,0.3,1.8c-0.3,0.6-1.1,0.9-1.7,0.7c-0.4-0.2-0.7-0.5-1.1-0.7c-0.1,0,0-0.3,0-0.4
					c0-0.1,0.2-0.1,0.3,0c0.2,0.1,0.3,0.2,0.5,0.2c0.2,0.1,0.4,0.2,0.6,0.2c0.4,0,0.6-0.2,0.7-0.6c0.1-0.3-0.2-0.6-0.6-0.7
					C504,310.3,503.9,310.3,503.9,310.3"/>
				<path class="st16" d="M521.3,270.8c-2.6-0.1-4.4-2.3-3.8-4.8c0.2-0.7,0.5-1.3,1.1-1.7c0.4-0.3,0.7-0.5,1.1-0.8
					c2.1-1.7,5.3,0.1,5.5,2.7c0.1,1.8-0.9,3.6-2.5,4.2C522.2,270.7,521.8,270.7,521.3,270.8 M520.8,268.7c1.3-0.1,2.2-0.6,2.7-1.6
					c0.3-0.6,0.2-1.4-0.3-1.8c-0.2-0.1-0.5-0.2-0.6-0.1c-0.3,0.1-0.2,0.4,0,0.6c0.4,0.8,0.2,1.4-0.6,1.8c-0.6,0.3-1.2,0.3-1.7,0
					c-0.7-0.3-0.8-0.8-0.5-1.4c0.1-0.2,0.3-0.3,0.3-0.5c0.1-0.2,0-0.4,0-0.5c-0.2,0-0.4,0-0.6,0.1c-1.3,1-1.1,2.6,0.4,3.2
					C520.2,268.6,520.6,268.7,520.8,268.7 M521.3,265.2C521.3,265.2,521.3,265.2,521.3,265.2c0-0.2,0-0.4,0-0.5
					c-0.1-0.2-0.2-0.3-0.4-0.4c-0.1,0-0.3,0.2-0.4,0.3c-0.1,0.3-0.1,0.7,0,1c0,0.1,0.3,0.3,0.4,0.3c0.1,0,0.3-0.2,0.4-0.4
					C521.3,265.5,521.3,265.3,521.3,265.2"/>
				<path class="st18" d="M516.5,313.8c-0.9,0.2-1.6,0.4-2.4,0.6c-0.2,0-0.4-0.1-0.6-0.3c-0.2-0.2-0.3-0.4-0.5-0.8
					c0.3-0.2,0.5-0.6,0.8-0.6c0.5-0.2,1.1-0.3,1.6-0.2C516.1,312.7,516.3,313.2,516.5,313.8"/>
				<path class="st11" d="M520.8,268.7c-0.2-0.1-0.6-0.1-1-0.3c-1.5-0.6-1.7-2.2-0.4-3.2c0.1-0.1,0.4-0.1,0.6-0.1
					c0,0.2,0.1,0.4,0,0.6c-0.1,0.2-0.2,0.3-0.3,0.5c-0.4,0.6-0.2,1.1,0.5,1.4c0.6,0.3,1.2,0.3,1.7,0c0.8-0.4,1-1,0.6-1.8
					c-0.1-0.2-0.2-0.5,0-0.6c0.2-0.1,0.5,0,0.6,0.1c0.5,0.4,0.6,1.2,0.3,1.8C523,268.2,522.1,268.7,520.8,268.7"/>
				<path class="st11" d="M521.3,265.2c0,0.1,0,0.3,0,0.3c-0.1,0.2-0.2,0.4-0.4,0.4c-0.1,0-0.4-0.2-0.4-0.3c-0.1-0.3,0-0.7,0-1
					c0-0.1,0.3-0.3,0.4-0.3c0.2,0.1,0.3,0.2,0.4,0.4C521.3,264.8,521.3,265,521.3,265.2C521.3,265.2,521.3,265.2,521.3,265.2"/>
			</g>
		</g>
	</g>
</g>
<g id="_2">
	<line class="st19" x1="306" y1="109" x2="616" y2="384.6"/>
	<line class="st19" x1="634" y1="70" x2="302" y2="421.1"/>
</g>
</svg>
